<?xml version="1.0" encoding="UTF-8"?><svg id="_-drilling-crane-rails" xmlns="http://www.w3.org/2000/svg" viewBox="0 0 400 200"><defs><style>.cls-1{fill:#fff;}.cls-2{fill:#f1f0f0;}.cls-3{fill:#221f1f;}.cls-4{stroke-dasharray:0 0 11.26 3.38;}.cls-4,.cls-5,.cls-6,.cls-7,.cls-8{fill:none;stroke:#221f1f;stroke-width:.72px;}.cls-5{stroke-dasharray:0 0 12.18 3.65;}.cls-6{stroke-dasharray:0 0 12.17 3.65;}.cls-8{stroke-dasharray:0 0 12.04 3.61;}</style></defs><polyline class="cls-2" points="320.85 51.55 349.9 121.77 349.9 131.05 171.07 131.05 171.07 51.55 320.85 51.55"/><path class="cls-2" d="M138.3,123.55c-13.14,1.15-23.7-.8-36.74-3.22-4.48-.83-3.55-27.89-3.26-31.9,.12-1.73,1.25-14.4,2.25-14.67,3.9-1.04,16.56-1.98,15.82-6.43-.97-5.81-.11-13.36-5.51-16.31-4.89-2.66-10.87-3.75-16.48-3.38-5.61-.38-11.59,.71-16.48,3.38-5.4,2.95-4.54,10.5-5.51,16.31-.74,4.45,11.91,5.38,15.82,6.43,1,.27,2.13,12.94,2.25,14.67,.28,4.01,1.21,31.07-3.26,31.9-13.04,2.43-23.6,4.37-36.74,3.22,0,3.61-1.94,8.34,2.26,8.45,4.66,.12,9.32,.24,13.98,.36,9.04,.23,18.09,.46,27.13,.7v.03c.18,0,.37-.01,.55-.01,.18,0,.37,0,.55,.01v-.03c9.04-.23,18.09-.46,27.13-.7,4.66-.12,9.32-.24,13.98-.36,4.2-.11,2.25-4.83,2.25-8.45"/><g><polygon class="cls-7" points="320.93 51.55 349.98 121.77 349.98 131.05 171.07 131.05 171.07 51.55 320.93 51.55"/><path class="cls-1" d="M278.79,94.53c0,4.59,3.73,8.32,8.32,8.32s8.32-3.72,8.32-8.32-3.72-8.32-8.32-8.32-8.32,3.72-8.32,8.32"/><path class="cls-7" d="M278.79,94.53c0,4.59,3.73,8.32,8.32,8.32s8.32-3.72,8.32-8.32-3.72-8.32-8.32-8.32-8.32,3.72-8.32,8.32Z"/><path class="cls-1" d="M213.87,94.53c0,4.59,3.72,8.32,8.32,8.32s8.32-3.72,8.32-8.32-3.73-8.32-8.32-8.32-8.32,3.72-8.32,8.32"/><path class="cls-7" d="M213.87,94.53c0,4.59,3.72,8.32,8.32,8.32s8.32-3.72,8.32-8.32-3.73-8.32-8.32-8.32-8.32,3.72-8.32,8.32Z"/><line class="cls-7" x1="171.54" y1="68.65" x2="328.23" y2="68.65"/><line class="cls-7" x1="350.06" y1="122.26" x2="172" y2="122.26"/><path class="cls-7" d="M222.22,129.01v22.6m64.89-22.51v22.6m-68-56.83h6.18m-3.09-3.09v6.18m-4.39-3.09h-23.56m57.09,0h-23.56m-5.58-5.92v-7.25m0,18.58v23.56m61.74-28.97h6.17m-3.09-3.09v6.18m-4.39-3.09h-23.56m57.09,0h-23.56m-5.58-5.92v-7.25m0,18.58v23.56"/><line class="cls-8" x1="212.73" y1="68.83" x2="212.73" y2="94.68"/><line class="cls-6" x1="230.59" y1="68.28" x2="230.59" y2="94.68"/><line class="cls-7" x1="170.9" y1="128.8" x2="170.9" y2="151.4"/><path class="cls-3" d="M281.84,141.48c-1.86-.56-3.07-1.08-4.56-1.68v5.68c.53-.25,2.7-1.12,4.56-1.68,1.99-.6,3.8-1.01,4.97-1.16-1.17-.15-2.98-.56-4.97-1.16"/><line class="cls-7" x1="279.18" y1="142.63" x2="260.19" y2="142.63"/><path class="cls-3" d="M280.66,141.99c-1.03-.31-1.71-.6-2.54-.93v3.16c.3-.14,1.51-.62,2.54-.94,1.11-.33,2.12-.56,2.77-.65-.65-.08-1.66-.31-2.77-.65"/><path class="cls-3" d="M216.37,141.4c-1.86-.56-3.07-1.08-4.57-1.68v5.68c.53-.25,2.7-1.12,4.57-1.68,1.99-.6,3.8-1.01,4.97-1.16-1.17-.15-2.98-.56-4.97-1.16"/><line class="cls-7" x1="213.71" y1="142.56" x2="202.18" y2="142.56"/><path class="cls-3" d="M215.5,141.78c-1.26-.38-2.08-.73-3.09-1.14v3.84c.36-.17,1.83-.76,3.09-1.14,1.35-.41,2.57-.69,3.36-.78-.79-.1-2.01-.38-3.36-.78"/><path class="cls-3" d="M228.54,143.63c1.86,.56,3.07,1.08,4.56,1.68v-5.68c-.53,.25-2.7,1.12-4.56,1.68-1.99,.6-3.8,1.01-4.97,1.16,1.17,.15,2.98,.56,4.97,1.16"/><line class="cls-7" x1="231.2" y1="142.48" x2="248.94" y2="142.48"/><path class="cls-3" d="M229.66,143.15c1.08,.32,1.78,.62,2.64,.97v-3.28c-.31,.15-1.56,.65-2.64,.97-1.15,.35-2.2,.59-2.87,.67,.68,.08,1.72,.32,2.87,.67"/><path class="cls-3" d="M177.17,143.71c1.86,.56,3.07,1.08,4.56,1.68v-5.68c-.53,.25-2.7,1.12-4.56,1.68-1.99,.6-3.8,1.01-4.97,1.16,1.17,.15,2.98,.56,4.97,1.16"/><line class="cls-7" x1="179.83" y1="142.56" x2="191.02" y2="142.56"/><path class="cls-3" d="M178.17,143.28c1.16,.35,1.92,.68,2.85,1.05v-3.55c-.33,.16-1.69,.7-2.85,1.05-1.24,.38-2.37,.63-3.11,.73,.73,.09,1.86,.35,3.11,.72"/><path class="cls-3" d="M195.55,141.92l.66-1.96c.13-.41,.24-.83,.33-1.22h.03c.1,.39,.2,.79,.34,1.23l.67,1.95h-2.03m2.22,.68l.72,2.13h.93l-2.31-6.76h-1.05l-2.3,6.76h.9l.7-2.13h2.4Z"/><path class="cls-3" d="M236.41,76.17c1.86,.56,3.07,1.08,4.57,1.68v-5.68c-.54,.25-2.7,1.12-4.57,1.68-1.99,.6-3.8,1.01-4.97,1.16,1.17,.15,2.98,.56,4.97,1.16"/><line class="cls-7" x1="239.07" y1="75.02" x2="242.79" y2="75.02"/><path class="cls-3" d="M238.49,75.27c.41,.12,.67,.23,.99,.37v-1.24c-.12,.05-.59,.24-.99,.37-.44,.13-.83,.22-1.08,.25,.25,.03,.65,.12,1.08,.25"/><path class="cls-3" d="M207,73.86c-1.86-.56-3.07-1.08-4.56-1.68v5.68c.53-.25,2.7-1.12,4.56-1.68,1.99-.6,3.8-1.01,4.97-1.16-1.17-.15-2.98-.56-4.97-1.16"/><line class="cls-7" x1="204.35" y1="75.02" x2="200.97" y2="75.02"/><path class="cls-3" d="M204.85,74.8c-.35-.11-.58-.2-.86-.32v1.07c.1-.05,.51-.21,.86-.32,.38-.11,.72-.19,.94-.22-.22-.03-.56-.11-.94-.22"/><path class="cls-3" d="M220.82,71.16c.23-.05,.57-.09,1.02-.09,1.84,0,2.75,.99,2.74,2.61,0,1.83-1.01,2.88-2.88,2.87-.34,0-.66,0-.88-.04v-5.34m-.88,6.01c.45,.06,.96,.08,1.59,.08,1.32,0,2.36-.34,3-.97,.62-.62,.97-1.52,.97-2.63s-.35-1.88-.96-2.44c-.59-.55-1.48-.83-2.74-.83-.69,0-1.32,.06-1.87,.14v6.65Z"/><polyline class="cls-3" points="154.59 113.45 151.97 113.45 151.97 115.88 154.9 115.88 154.9 116.62 151.09 116.62 151.09 109.86 154.75 109.86 154.75 110.59 151.97 110.59 151.97 112.72 154.59 112.72 154.59 113.45"/><path class="cls-3" d="M253.12,138.65c.14-.03,.37-.06,.77-.06,.88,0,1.47,.32,1.47,1.1,0,.65-.54,1.14-1.45,1.14h-.79v-2.19m-.87,6.06c.29,.04,.75,.08,1.35,.08,1.1,0,1.86-.2,2.33-.63,.35-.33,.58-.77,.58-1.35,0-1-.75-1.53-1.39-1.69v-.03c.7-.25,1.14-.82,1.14-1.48,0-.53-.22-.93-.57-1.19-.41-.34-.97-.49-1.85-.49-.6,0-1.21,.06-1.59,.15v6.64Zm.87-3.22h.72c.95,0,1.74,.39,1.74,1.3,0,.98-.83,1.31-1.73,1.31-.31,0-.55-.01-.73-.04v-2.58Z"/><line class="cls-4" x1="138.29" y1="131.72" x2="171.12" y2="131.72"/><line class="cls-5" x1="58.51" y1="95.11" x2="189.69" y2="95.11"/><path class="cls-3" d="M151.96,100.84c-.56,1.86-1.08,3.07-1.68,4.57h5.68c-.25-.53-1.12-2.7-1.68-4.57-.6-1.99-1.01-3.8-1.16-4.97-.15,1.17-.56,2.98-1.16,4.97"/><line class="cls-7" x1="153.12" y1="103.5" x2="153.12" y2="107.58"/><path class="cls-3" d="M152.54,102.17c-.28,.93-.54,1.54-.84,2.28h2.84c-.13-.27-.56-1.35-.84-2.28-.3-1-.51-1.9-.58-2.49-.07,.59-.28,1.49-.58,2.49"/><path class="cls-3" d="M154.27,126.24c.56-1.86,1.08-3.07,1.68-4.57h-5.68c.25,.53,1.12,2.7,1.68,4.57,.6,1.99,1.01,3.8,1.16,4.97,.15-1.17,.56-2.98,1.16-4.97"/><line class="cls-7" x1="153.12" y1="123.58" x2="153.12" y2="119.36"/><path class="cls-3" d="M153.7,124.91c.28-.93,.54-1.54,.84-2.28h-2.84c.13,.27,.56,1.35,.84,2.28,.3,1,.51,1.9,.58,2.49,.07-.59,.28-1.49,.58-2.49"/><path class="cls-7" d="M138.3,123.55c-13.14,1.15-23.7-.8-36.74-3.22-4.48-.83-3.55-27.89-3.26-31.9,.12-1.73,1.25-14.4,2.25-14.67,3.9-1.04,16.56-1.98,15.82-6.43-.97-5.81-.11-13.36-5.51-16.31-4.89-2.66-10.87-3.75-16.48-3.38-5.61-.38-11.59,.71-16.48,3.38-5.4,2.95-4.54,10.5-5.51,16.31-.74,4.45,11.91,5.38,15.82,6.43,1,.27,2.13,12.94,2.25,14.67,.28,4.01,1.21,31.07-3.26,31.9-13.04,2.43-23.6,4.37-36.74,3.22,0,3.61-1.94,8.34,2.26,8.45,4.66,.12,9.32,.24,13.98,.36,9.04,.23,18.09,.46,27.13,.7v.03c.18,0,.37-.01,.55-.01,.18,0,.37,0,.55,.01v-.03c9.04-.23,18.09-.46,27.13-.7,4.66-.12,9.32-.24,13.98-.36,4.2-.11,2.25-4.83,2.25-8.45Z"/></g></svg>