<?xml version="1.0" encoding="UTF-8"?><svg id="Stroke_icons" xmlns="http://www.w3.org/2000/svg" viewBox="0 0 80 80"><defs><style>.cls-1{fill:none;stroke:#212121;stroke-miterlimit:10;stroke-width:1.5px;}</style></defs><ellipse class="cls-1" cx="40" cy="40" rx="38.25" ry="38.24"/><g><path class="cls-1" d="M35.92,50.02c-1.3-.53-2.51-1.33-3.56-2.39-1.05-1.06-1.84-2.28-2.36-3.58-.52-1.3-.78-2.68-.78-4.07,0-1.38,.27-2.76,.81-4.06,.53-1.3,1.33-2.51,2.39-3.56,1.06-1.05,2.28-1.84,3.58-2.36,1.3-.52,2.68-.78,4.07-.78,1.38,0,2.76,.27,4.06,.81,1.3,.53,2.51,1.33,3.56,2.39,1.05,1.06,1.84,2.28,2.36,3.58"/><path class="cls-1" d="M45.49,54.73c-.15,.06-.31,.11-.46,.16-.31,.1-.62,.2-.93,.28l-.46,4.87c-1.18,.21-2.39,.32-3.63,.32s-2.56-.12-3.79-.35l-.43-4.87c-1.25-.35-2.47-.85-3.62-1.51l-3.77,3.11c-2.05-1.42-3.82-3.21-5.23-5.27l3.15-3.75c-.65-1.16-1.15-2.37-1.49-3.63l-4.87-.46c-.21-1.18-.32-2.39-.32-3.63s.12-2.56,.35-3.79l4.87-.43c.35-1.25,.85-2.47,1.51-3.62l-3.11-3.77c1.42-2.05,3.21-3.82,5.27-5.23l3.74,3.14c1.16-.65,2.38-1.15,3.63-1.49l.46-4.87c1.18-.21,2.39-.32,3.63-.32s2.56,.12,3.79,.35l.43,4.87c1.25,.35,2.47,.85,3.62,1.51l3.77-3.11c2.05,1.42,3.82,3.21,5.23,5.27l-3.14,3.74c.65,1.16,1.15,2.38,1.49,3.63l4.87,.46c.21,1.18,.32,2.39,.32,3.63s-.12,2.56-.35,3.79l-4.87,.43c-.09,.31-.18,.62-.29,.93-.05,.14-.1,.29-.16,.43"/><path class="cls-1" d="M48.11,44.16l9.73,9.73c1.08,1.08,1.09,2.86,0,3.95h0c-1.09,1.09-2.86,1.09-3.95,0l-9.73-9.73c-2.57,1.03-5.61,.51-7.69-1.57-2.17-2.17-2.65-5.4-1.42-8.03l4.9,4.9,2.55-.91,.91-2.55-4.9-4.9c2.63-1.22,5.86-.75,8.03,1.42,2.08,2.08,2.6,5.12,1.57,7.69h0Z"/></g></svg>