<?xml version="1.0" encoding="UTF-8"?><svg id="Stroke_icons" xmlns="http://www.w3.org/2000/svg" viewBox="0 0 80 80"><defs><style>.cls-1{stroke-linecap:round;}.cls-1,.cls-2{fill:none;stroke:#212121;stroke-miterlimit:10;stroke-width:1.5px;}</style></defs><ellipse class="cls-2" cx="40" cy="40" rx="38.25" ry="38.24"/><g><g><path class="cls-1" d="M60.02,42.82l-6.61,8.64c-.05,.07-.16,.08-.23,.02l-5.42-5.15s-.05-.13-.01-.18l2.1-2.56c.05-.06,.13-.06,.19-.01l2.84,2.57,4.61-5.75c.05-.06,.14-.07,.19-.01l2.31,2.27s.05,.12,.01,.17Z"/><path class="cls-1" d="M64.8,46.22c-.3,5.95-5.36,10.54-11.32,10.24-5.95-.3-10.54-5.36-10.24-11.32,.3-5.95,5.36-10.54,11.32-10.24,5.95,.3,10.54,5.36,10.24,11.32Z"/></g><g><path class="cls-1" d="M53.2,31.62v-6.88c0-.73-.59-1.33-1.33-1.33h-5.44"/><path class="cls-1" d="M32.56,23.41h-5.44c-.73,0-1.33,.59-1.33,1.33v30.58c0,.73,.59,1.33,1.33,1.33h18.36"/><rect class="cls-1" x="32.56" y="20.76" width="13.88" height="5.3" rx="1.4" ry="1.4"/><path class="cls-1" d="M33.64,30.79l-2.11,2.11s-.12,.05-.17,0l-1.17-1.17"/><path class="cls-1" d="M33.64,40.06l-2.11,2.11s-.12,.05-.17,0l-1.17-1.17"/><path class="cls-1" d="M33.64,49.32l-2.11,2.11s-.12,.05-.17,0l-1.17-1.17"/><line class="cls-1" x1="37.36" y1="31.87" x2="48.06" y2="31.87"/><line class="cls-1" x1="37.36" y1="41.13" x2="40.45" y2="41.13"/><line class="cls-1" x1="37.36" y1="50.39" x2="40.13" y2="50.39"/></g></g></svg>