<?xml version="1.0" encoding="UTF-8"?><svg id="Stroke_icons" xmlns="http://www.w3.org/2000/svg" xmlns:xlink="http://www.w3.org/1999/xlink" viewBox="0 0 80 80"><defs><style>.cls-1,.cls-2,.cls-3{fill:none;}.cls-2{stroke-miterlimit:10;}.cls-2,.cls-3{stroke:#212121;stroke-width:1.5px;}.cls-4{clip-path:url(#clippath);}.cls-3{stroke-linejoin:round;}</style><clipPath id="clippath"><rect class="cls-1" x="20.34" y="21.16" width="39.32" height="37.68" transform="translate(80 80) rotate(180)"/></clipPath></defs><ellipse class="cls-2" cx="40" cy="40" rx="38.27" ry="38.25"/><g class="cls-4"><g><polyline class="cls-3" points="43.42 29.39 40 29.35 36.58 29.39"/><polyline class="cls-3" points="42.53 25.3 40 25.25 37.47 25.3"/><polyline class="cls-3" points="45.73 40 40 40 34.27 40"/><polyline class="cls-3" points="44.67 35.13 40 35.08 35.33 35.13"/><polyline class="cls-3" points="47.16 46.59 40 46.55 32.84 46.59"/><polyline class="cls-3" points="35.08 25.25 29.97 25.25 28.64 29.35 34.27 29.35"/><polyline class="cls-3" points="32.63 35.08 26.77 35.08 25.17 40 30.99 40"/><polyline class="cls-3" points="29.35 46.55 23.03 46.55 21.16 52.29 27.71 52.29"/><polyline class="cls-3" points="44.92 25.25 50.03 25.25 51.36 29.35 45.73 29.35"/><polyline class="cls-3" points="47.37 35.08 53.23 35.08 54.83 40 49.01 40"/><polyline class="cls-3" points="50.65 46.55 56.97 46.55 58.84 52.29 52.29 52.29"/><line class="cls-3" x1="25.92" y1="59.44" x2="36.05" y2="20.58"/><polyline class="cls-3" points="49.97 59.49 48.41 52.29 31.59 52.29 30.03 59.49"/><line class="cls-3" x1="54.08" y1="59.44" x2="43.95" y2="20.58"/></g></g></svg>