<?xml version="1.0" encoding="UTF-8" standalone="no"?>
<svg
   xmlns:dc="http://purl.org/dc/elements/1.1/"
   xmlns:cc="http://creativecommons.org/ns#"
   xmlns:rdf="http://www.w3.org/1999/02/22-rdf-syntax-ns#"
   xmlns:svg="http://www.w3.org/2000/svg"
   xmlns="http://www.w3.org/2000/svg"
   version="1.1"
   id="Layer_1"
   x="0px"
   y="0px"
   viewBox="0 0 203 203"
   xml:space="preserve"
   width="203"
   height="203"><metadata
   id="metadata36"><rdf:RDF><cc:Work
       rdf:about=""><dc:format>image/svg+xml</dc:format><dc:type
         rdf:resource="http://purl.org/dc/dcmitype/StillImage" /><dc:title></dc:title></cc:Work></rdf:RDF></metadata><defs
   id="defs34" />
<style
   type="text/css"
   id="style27">
	.st0{fill:#F6B90F;}
</style>
<path
   class="st0"
   d="m 195.31134,63.533 c -0.133,-0.332 -0.27,-0.663 -0.407,-0.994 -0.128,-0.307 -0.255,-0.614 -0.386,-0.92 -4.93,-11.611 -12.115,-22.484 -21.568,-31.937 -17.894,-17.893 -41.299,-28.269 -66.388,-29.546 -0.024,-0.001 -0.048,-0.003 -0.073,-0.004 -0.744,-0.037 -1.49,-0.064 -2.236,-0.085 -0.125,-0.004 -0.25,-0.011 -0.375,-0.014 C 103.01734,0.012 102.15434,0 101.29034,0 74.220344,0 48.771344,10.542 29.630344,29.683 v 0 h -0.001 C 8.4323439,50.878 -1.3866561,79.204 0.15734388,107.011 L 40.080344,104.773 c -0.934,-16.831 5.003,-33.977 17.833,-46.807 v -10e-4 l 10e-4,10e-4 c 11.586,-11.586 26.991,-17.967 43.375996,-17.967 1.048,0 2.091,0.027 3.126,0.079 0.148,0.007 0.294,0.024 0.442,0.032 0.9,0.052 1.798,0.115 2.687,0.205 0.028,0.003 0.056,0.007 0.084,0.01 21.449,2.212 39.648,15.524 48.756,34.074 0.089,0.182 0.183,0.363 0.27,0.546 0.274,0.573 0.53,1.156 0.787,1.739 0.175,0.399 0.354,0.796 0.52,1.198 0.155,0.374 0.299,0.754 0.447,1.131 0.242,0.622 0.484,1.244 0.705,1.872 0.057,0.161 0.109,0.324 0.165,0.485 4.426,12.919 4.425,27.029 -0.002,39.947 -0.055,0.158 -0.105,0.317 -0.161,0.475 -0.222,0.632 -0.466,1.258 -0.71,1.884 -0.146,0.373 -0.288,0.748 -0.442,1.118 -0.168,0.407 -0.349,0.81 -0.526,1.214 -0.255,0.577 -0.508,1.155 -0.78,1.722 -0.09,0.19 -0.187,0.377 -0.279,0.565 -9.111,18.544 -27.306,31.849 -48.749,34.061 -0.028,0.003 -0.056,0.008 -0.085,0.01 -0.89,0.091 -1.787,0.153 -2.687,0.205 -0.148,0.008 -0.294,0.025 -0.442,0.032 -1.036,0.052 -2.078,0.079 -3.126,0.079 -16.384996,0 -31.789996,-6.381 -43.375996,-17.967 l -28.285,28.287 c 19.141,19.142 44.59,29.684 71.659996,29.684 0.865,0 1.727,-0.011 2.588,-0.033 0.125,-0.003 0.25,-0.01 0.375,-0.014 0.747,-0.021 1.492,-0.048 2.236,-0.085 0.024,-0.001 0.048,-0.003 0.073,-0.004 25.089,-1.277 48.495,-11.654 66.388,-29.546 9.454,-9.454 16.64,-20.329 21.57,-31.941 0.129,-0.302 0.255,-0.606 0.381,-0.909 0.138,-0.334 0.277,-0.669 0.411,-1.004 4.717,-11.689 7.32,-24.448 7.32,-37.806 0.001,-13.361 -2.603,-26.122 -7.32,-37.811 z"
   id="path29" />
</svg>
