<?xml version="1.0" encoding="UTF-8" standalone="no"?>
<svg
   xmlns:dc="http://purl.org/dc/elements/1.1/"
   xmlns:cc="http://creativecommons.org/ns#"
   xmlns:rdf="http://www.w3.org/1999/02/22-rdf-syntax-ns#"
   xmlns:svg="http://www.w3.org/2000/svg"
   xmlns="http://www.w3.org/2000/svg"
   height="76"
   width="76"
   xml:space="preserve"
   viewBox="0 0 76 76"
   y="0px"
   x="0px"
   id="Layer_1"
   version="1.1"><metadata
     id="metadata15"><rdf:RDF><cc:Work
         rdf:about=""><dc:format>image/svg+xml</dc:format><dc:type
           rdf:resource="http://purl.org/dc/dcmitype/StillImage" /><dc:title></dc:title></cc:Work></rdf:RDF></metadata><defs
     id="defs13" /><style
     id="style2"
     type="text/css">
	.st0{fill:none;stroke:#000000;stroke-width:2;stroke-miterlimit:10;}
</style><g
     transform="translate(-12.455002,-11.723)"
     id="g8"><circle
       style="fill:none;stroke:#000000;stroke-width:2;stroke-miterlimit:10"
       id="circle4"
       r="36.681"
       cy="50.042"
       cx="50.136002"
       class="st0" /><path
       style="fill:none;stroke:#000000;stroke-width:2;stroke-miterlimit:10"
       id="path6"
       d="M 50.137,68.759 72.029,68.65 c 0,0 0.875,0 0.875,-0.547 0,-0.548 -0.109,-3.722 -0.109,-4.16 0,-0.437 0,-1.094 -1.094,-1.532 -1.095,-0.438 -4.707,-0.876 -6.24,-1.314 -1.532,-0.438 -2.408,-1.094 -2.517,-2.299 -0.11,-1.203 -0.11,-10.07 -0.11,-11.821 0,-1.751 0.657,-2.408 1.533,-2.736 0.875,-0.329 1.97,-0.329 2.846,-0.657 0.876,-0.329 1.751,-0.985 1.751,-2.19 v -7.005 c 0,-1.532 -0.985,-2.408 -2.517,-2.517 -1.533,-0.11 -12.479,-0.548 -16.31,-0.548 -3.831,0 -14.777,0.438 -16.309,0.548 -1.533,0.109 -2.518,0.985 -2.518,2.517 v 7.005 c 0,1.205 0.876,1.861 1.751,2.19 0.876,0.328 1.97,0.328 2.846,0.657 0.876,0.328 1.533,0.985 1.533,2.736 0,1.751 0,10.618 -0.11,11.821 -0.109,1.205 -0.985,1.861 -2.517,2.299 -1.533,0.438 -5.145,0.876 -6.24,1.314 -1.094,0.438 -1.094,1.095 -1.094,1.532 0,0.438 -0.11,3.612 -0.11,4.16 0,0.547 0.876,0.547 0.876,0.547 z"
       class="st0" /></g></svg>