<?xml version="1.0" encoding="UTF-8" standalone="no"?>
<!-- Generator: Adobe Illustrator 24.0.0, SVG Export Plug-In . SVG Version: 6.00 Build 0)  -->

<svg
   version="1.1"
   id="Layer_1"
   x="0px"
   y="0px"
   viewBox="0 0 76 76"
   xml:space="preserve"
   width="76"
   height="76"
   xmlns="http://www.w3.org/2000/svg"
   xmlns:svg="http://www.w3.org/2000/svg"><defs
   id="defs310" />
<style
   type="text/css"
   id="style299">
	.st0{fill:none;stroke:#000000;stroke-width:2;stroke-miterlimit:10;}
</style>
<g
   id="g305"
   transform="translate(-12.455002,-11.72226)">
	<path
   class="st0"
   d="m 50.137,67.369 h 17.419 c 0.32,0 0.855,-0.321 0.855,-0.321 0,0 0.213,-0.641 0.106,-1.282 -0.106,-0.641 -0.961,-1.603 -1.709,-1.817 -0.748,-0.214 -2.458,-0.57 -6.84,-1.496 -4.381,-0.926 -5.236,-5.022 -5.236,-6.198 v -5.878 c 0,-8.335 6.091,-10.793 6.732,-11.114 0.642,-0.32 1.711,-1.389 1.604,-2.03 -0.107,-0.641 -0.321,-2.672 -0.642,-3.74 -0.32,-1.069 -1.282,-2.351 -2.458,-2.458 -1.175,-0.107 -3.953,-0.321 -9.831,-0.321 -5.878,0 -8.656,0.214 -9.832,0.321 -1.175,0.107 -2.137,1.389 -2.458,2.458 -0.32,1.068 -0.534,3.099 -0.641,3.74 -0.106,0.641 0.962,1.71 1.603,2.03 0.641,0.321 6.733,2.779 6.733,11.114 v 5.878 c 0,1.176 -0.855,5.272 -5.237,6.198 -4.381,0.926 -6.091,1.282 -6.839,1.496 -0.748,0.214 -1.603,1.176 -1.71,1.817 -0.107,0.641 0.107,1.282 0.107,1.282 0,0 0.534,0.321 0.855,0.321 z"
   id="path301" />
	<circle
   class="st0"
   cx="50.136002"
   cy="50.042"
   r="36.681"
   id="circle303" />
</g>
</svg>
