<?xml version="1.0" encoding="utf-8"?>
<!-- Generator: Adobe Illustrator 24.0.0, SVG Export Plug-In . SVG Version: 6.00 Build 0)  -->
<svg version="1.1" id="Layer_1" xmlns="http://www.w3.org/2000/svg" xmlns:xlink="http://www.w3.org/1999/xlink" x="0px" y="0px"
	 viewBox="0 0 100 100" style="enable-background:new 0 0 100 100;" xml:space="preserve">
<style type="text/css">
	.st0{fill:none;stroke:#000000;stroke-width:2;stroke-miterlimit:10;}
</style>
<g>
	<circle class="st0" cx="50.136" cy="50.042" r="36.681"/>
	<path class="st0" d="M50.137,70.759h20.283c0,0,0.133-0.741,0.143-1.608c0.01-0.867-0.728-1.247-1.346-1.378
		c-0.617-0.132-2.35-0.153-2.846-0.159c-0.495-0.005-1.611,0.105-2.721-0.28c-1.11-0.385-6.291-2.057-8.878-3.079
		c-2.589-1.022-2.756-7.711-2.741-8.949c0.015-1.238-0.098-2.106-0.016-8.916c0.082-6.81,1.697-7.255,2.692-7.645
		c1.277-0.501,3.108-0.954,3.73-1.194c0.622-0.24,1.236,0.139,1.256-1.47c0,0,0.024-1.982-0.087-3.097
		c-0.412-4.173-2.265-5.131-4.78-5.352c-1.438-0.126-3.338-0.071-4.689-0.087c-1.351,0.016-3.251-0.039-4.689,0.087
		c-2.515,0.221-4.368,1.179-4.78,5.352c-0.111,1.115-0.087,3.097-0.087,3.097c0.019,1.609,0.634,1.23,1.256,1.47
		c0.622,0.24,2.453,0.693,3.729,1.194c0.996,0.39,2.611,0.835,2.693,7.645c0.082,6.81-0.031,7.678-0.016,8.916
		c0.014,1.238-0.152,7.927-2.74,8.949c-2.589,1.022-7.769,2.694-8.88,3.079c-1.109,0.385-2.225,0.275-2.72,0.28
		c-0.496,0.006-2.229,0.027-2.847,0.159c-0.617,0.131-1.355,0.511-1.345,1.378c0.01,0.867,0.143,1.608,0.143,1.608H50.137z"/>
</g>
</svg>
