<?xml version="1.0" encoding="UTF-8" standalone="no"?>
<!-- Generator: Adobe Illustrator 24.0.0, SVG Export Plug-In . SVG Version: 6.00 Build 0)  -->

<svg
   version="1.1"
   id="Layer_1"
   x="0px"
   y="0px"
   viewBox="0 0 76 76"
   xml:space="preserve"
   width="76"
   height="76"
   xmlns="http://www.w3.org/2000/svg"
   xmlns:svg="http://www.w3.org/2000/svg"><defs
   id="defs555" />
<style
   type="text/css"
   id="style544">
	.st0{fill:none;stroke:#000000;stroke-width:2;stroke-miterlimit:10;}
</style>
<g
   id="g550"
   transform="translate(-12.455002,-11.72226)">
	<path
   class="st0"
   d="m 54.201,36.013 c 1.266,5.698 6.096,2.509 6.574,0.12 0.479,-2.392 0.718,-4.663 0.837,-5.141 0.12,-0.479 0.239,-1.434 0.837,-1.434 0.598,0 1.195,0.119 1.673,0.119 0.478,0 1.076,0.12 0.957,1.076 -0.12,0.956 0,0.956 -0.957,5.021 -0.956,4.064 -3.586,5.498 -5.02,6.096 -1.435,0.597 -2.749,0.956 -4.423,1.434 -1.674,0.479 -3.108,0.956 -3.108,2.989 v 17.452 c 0,1.076 0.359,1.913 2.152,2.272 1.793,0.358 13.388,1.434 14.703,1.673 1.314,0.239 2.032,0.478 2.032,1.195 0,0.717 -0.598,0.837 -0.598,0.837 l -19.723,-0.12 -19.724,0.12 c 0,0 -0.598,-0.12 -0.598,-0.837 0,-0.717 0.718,-0.956 2.032,-1.195 1.315,-0.239 12.91,-1.315 14.704,-1.673 1.793,-0.359 2.151,-1.196 2.151,-2.272 V 39.838 c 0,-1.554 -1.076,-2.391 -1.673,-2.63 -0.598,-0.239 -1.674,-0.239 -3.228,-0.598 -1.554,-0.359 -2.988,-1.434 -2.988,-2.51 v -4.183 c 0,-0.479 0.358,-1.435 0.956,-1.435 0.598,0 8.965,-0.12 9.802,-0.12 0.837,0 1.672,0.698 1.793,1.793 0.239,2.151 0.598,4.782 0.837,5.858"
   id="path546" />
	<circle
   class="st0"
   cx="50.136002"
   cy="50.042"
   r="36.681"
   id="circle548" />
</g>
</svg>
