<?xml version="1.0" encoding="UTF-8" standalone="no"?>
<!-- Generator: Adobe Illustrator 24.0.0, SVG Export Plug-In . SVG Version: 6.00 Build 0)  -->

<svg
   version="1.1"
   id="Layer_1"
   x="0px"
   y="0px"
   viewBox="0 0 76 76"
   xml:space="preserve"
   width="76"
   height="76"
   xmlns="http://www.w3.org/2000/svg"
   xmlns:svg="http://www.w3.org/2000/svg"><defs
   id="defs800" />
<style
   type="text/css"
   id="style789">
	.st0{fill:none;stroke:#000000;stroke-width:2;stroke-miterlimit:10;}
</style>
<g
   id="g795"
   transform="matrix(1,0,0,1.0000236,-12.455002,-11.722552)">
	<circle
   class="st0"
   cx="50.136002"
   cy="50.042"
   r="36.681"
   id="circle791" />
	<path
   class="st0"
   d="m 62.497,31.78 c -1.504,-0.022 -26.271,1.615 -27.765,1.594 -1.495,-0.022 -2.34,0.962 -2.527,2.455 -0.188,1.491 -0.291,8.634 -0.308,9.797 -0.016,1.162 0.973,1.674 2.302,1.694 1.328,0.019 20.597,0.13 21.261,0.14 0.665,0.01 1.158,0.349 1.141,1.512 -0.016,1.162 -0.028,13.455 -0.04,14.286 -0.012,0.83 -0.847,1.15 -1.347,1.309 -0.501,0.159 -3.994,0.441 -4.992,0.592 -0.999,0.152 -1.678,1.139 -1.688,1.803 -0.009,0.665 -0.024,1.662 -0.033,2.325 -0.01,0.665 0.484,1.004 1.314,1.016 0.831,0.013 12.132,-0.323 13.128,-0.309 0.997,0.014 1.673,-0.806 1.685,-1.637 0.012,-0.83 -0.015,-33.557 -0.001,-34.554 0.014,-0.996 -0.47,-1.999 -2.13,-2.023"
   id="path793" />
</g>
</svg>
