<?xml version="1.0" encoding="UTF-8" standalone="no"?>
<!-- Generator: Adobe Illustrator 24.0.0, SVG Export Plug-In . SVG Version: 6.00 Build 0)  -->

<svg
   version="1.1"
   id="Layer_1"
   x="0px"
   y="0px"
   viewBox="0 0 76 76"
   xml:space="preserve"
   width="76"
   height="76"
   xmlns="http://www.w3.org/2000/svg"
   xmlns:svg="http://www.w3.org/2000/svg"><defs
   id="defs109" />
<style
   type="text/css"
   id="style98">
	.st0{fill:none;stroke:#000000;stroke-width:2;stroke-miterlimit:10;}
</style>
<g
   id="g104"
   transform="translate(-12.455002,-11.72226)">
	<path
   class="st0"
   d="m 50.137,60.948 h 28.882 c 0,0 0.108,-0.217 0.108,-1.52 0,-1.303 -1.845,-1.737 -2.606,-1.737 -0.759,0 -7.709,-0.543 -9.228,-0.652 -1.521,-0.108 -5.104,-0.543 -7.275,-1.086 -2.172,-0.542 -3.366,-1.628 -3.366,-2.823 v -3.908 c 0,-1.629 1.737,-1.846 2.606,-2.063 0.868,-0.218 1.737,-1.086 1.737,-1.955 0,-0.868 -0.109,-4.995 -0.109,-6.189 0,-1.194 -1.085,-2.28 -2.606,-2.28 0,0 -5.645,-0.109 -8.143,-0.109 -2.497,0 -8.143,0.109 -8.143,0.109 -1.52,0 -2.606,1.086 -2.606,2.28 0,1.194 -0.109,5.321 -0.109,6.189 0,0.869 0.869,1.737 1.738,1.955 0.868,0.217 2.606,0.434 2.606,2.063 v 3.908 c 0,1.195 -1.195,2.281 -3.366,2.823 -2.172,0.543 -5.755,0.978 -7.275,1.086 -1.52,0.109 -8.469,0.652 -9.229,0.652 -0.76,0 -2.606,0.434 -2.606,1.737 0,1.303 0.109,1.52 0.109,1.52 z"
   id="path100" />
	<circle
   class="st0"
   cx="50.136002"
   cy="50.042"
   r="36.681"
   id="circle102" />
</g>
</svg>
