<?xml version="1.0" encoding="UTF-8" standalone="no"?>
<svg
   xmlns:dc="http://purl.org/dc/elements/1.1/"
   xmlns:cc="http://creativecommons.org/ns#"
   xmlns:rdf="http://www.w3.org/1999/02/22-rdf-syntax-ns#"
   xmlns:svg="http://www.w3.org/2000/svg"
   xmlns="http://www.w3.org/2000/svg"
   xml:space="preserve"
   style="enable-background:new 0 0 40 40;"
   viewBox="0 0 40 40"
   y="0px"
   x="0px"
   id="Layer_1"
   version="1.1"><metadata
     id="metadata26"><rdf:RDF><cc:Work
         rdf:about=""><dc:format>image/svg+xml</dc:format><dc:type
           rdf:resource="http://purl.org/dc/dcmitype/StillImage" /><dc:title></dc:title></cc:Work></rdf:RDF></metadata><defs
     id="defs24" /><style
     id="style15"
     type="text/css">
	.st0{fill:#A5A5A5;}
</style><g
     id="g19"><path
       style="fill:#efb412;fill-opacity:1"
       id="path17"
       d="M25.491,10.736c0.323,0,0.585,0.262,0.585,0.585v3.695c0,0.46-0.322,0.858-0.773,0.954l-0.657,0.139   c-1.441,0.306-2.471,1.579-2.471,3.052v4.06c0,0.921,0.644,1.716,1.544,1.908l4.508,0.958c0.451,0.096,0.772,0.493,0.772,0.954   v1.05c0,0.108-0.087,0.195-0.195,0.195H11.647c-0.108,0-0.195-0.087-0.195-0.195v-1.05c0-0.46,0.322-0.858,0.773-0.954l4.508-0.958   c0.9-0.192,1.544-0.987,1.544-1.908v-4.06c0-1.473-1.03-2.745-2.471-3.052l-0.656-0.139c-0.45-0.096-0.772-0.493-0.772-0.954   v-3.695c0-0.323,0.262-0.585,0.585-0.585H25.491 M25.491,9.736H14.962c-0.874,0-1.585,0.711-1.585,1.585v3.695   c0,0.927,0.658,1.739,1.564,1.932l0.657,0.139c0.973,0.207,1.679,1.079,1.679,2.073v4.06c0,0.446-0.316,0.837-0.752,0.929   l-4.507,0.958c-0.907,0.193-1.565,1.005-1.565,1.932v1.05c0,0.659,0.536,1.195,1.195,1.195h17.159c0.659,0,1.195-0.536,1.195-1.195   v-1.05c0-0.927-0.658-1.739-1.565-1.932l-4.508-0.958c-0.436-0.093-0.752-0.484-0.752-0.929v-4.06c0-0.995,0.706-1.867,1.678-2.073   l0.656-0.139c0.907-0.193,1.565-1.005,1.565-1.932v-3.695C27.076,10.447,26.365,9.736,25.491,9.736L25.491,9.736z"
       class="st0" /></g></svg>