<?xml version="1.0" encoding="UTF-8" standalone="no"?>
<svg
   xmlns:dc="http://purl.org/dc/elements/1.1/"
   xmlns:cc="http://creativecommons.org/ns#"
   xmlns:rdf="http://www.w3.org/1999/02/22-rdf-syntax-ns#"
   xmlns:svg="http://www.w3.org/2000/svg"
   xmlns="http://www.w3.org/2000/svg"
   xml:space="preserve"
   style="enable-background:new 0 0 40 40;"
   viewBox="0 0 40 40"
   y="0px"
   x="0px"
   id="Layer_1"
   version="1.1"><metadata
     id="metadata91"><rdf:RDF><cc:Work
         rdf:about=""><dc:format>image/svg+xml</dc:format><dc:type
           rdf:resource="http://purl.org/dc/dcmitype/StillImage" /><dc:title></dc:title></cc:Work></rdf:RDF></metadata><defs
     id="defs89" /><style
     id="style80"
     type="text/css">
	.st0{fill:#A5A5A5;}
</style><g
     id="g84"><path
       style="fill:#efb412;fill-opacity:1"
       id="path82"
       d="M20.226,9.653c0.096,0.001,0.198,0.001,0.304,0.001c0.172,0,0.356-0.001,0.543-0.001   c0.441,0,0.903,0.005,1.291,0.039c1.147,0.101,1.993,0.538,2.181,2.442c0.051,0.509,0.04,1.413,0.04,1.413   c-0.009,0.734-0.289,0.561-0.573,0.671c-0.284,0.109-1.119,0.316-1.702,0.545c-0.454,0.178-1.191,0.381-1.228,3.488   c-0.037,3.107,0.014,3.503,0.007,4.067c-0.007,0.565,0.069,3.616,1.25,4.082c1.18,0.466,3.544,1.229,4.05,1.405   c0.327,0.113,0.656,0.133,0.908,0.133c0.129,0,0.238-0.005,0.317-0.005c0.006,0,0.011,0,0.016,0   c0.226,0.003,1.017,0.012,1.298,0.073c0.282,0.06,0.619,0.233,0.614,0.629c-0.005,0.395-0.065,0.734-0.065,0.734h-9.253h-9.253   c0,0-0.061-0.338-0.065-0.734c-0.005-0.396,0.332-0.569,0.614-0.629c0.282-0.06,1.073-0.07,1.299-0.073c0.005,0,0.011,0,0.016,0   c0.079,0,0.188,0.005,0.317,0.005c0.252,0,0.581-0.019,0.907-0.133c0.507-0.176,2.87-0.938,4.051-1.405   c1.181-0.466,1.256-3.518,1.25-4.082c-0.007-0.565,0.045-0.961,0.007-4.067c-0.037-3.107-0.774-3.31-1.229-3.488   c-0.582-0.229-1.417-0.435-1.701-0.545c-0.284-0.109-0.564,0.063-0.573-0.671c0,0-0.011-0.904,0.04-1.413   c0.188-1.904,1.033-2.341,2.181-2.442c0.388-0.034,0.851-0.039,1.291-0.039c0.188,0,0.371,0.001,0.543,0.001   C20.028,9.655,20.13,9.654,20.226,9.653 M20.226,8.653c-0.004,0-0.008,0-0.012,0l-0.293,0.001l-0.258,0l-0.286,0   c-0.462,0-0.948,0.005-1.379,0.043c-1.899,0.167-2.88,1.228-3.088,3.339c-0.054,0.547-0.046,1.425-0.044,1.523   c0.011,0.935,0.423,1.474,1.225,1.601c0.004,0.001,0.007,0.001,0.009,0.001c0.006,0-0.001-0.003-0.012-0.007   c0.132,0.05,0.359,0.119,0.627,0.197c0.335,0.099,0.753,0.221,1.059,0.342c0.475,0.184,0.581,1.497,0.594,2.569   c0.026,2.161,0.009,2.997-0.002,3.496c-0.005,0.229-0.008,0.392-0.006,0.571c0.015,1.358-0.299,2.918-0.634,3.149   c-0.858,0.337-2.417,0.855-3.348,1.165c-0.294,0.098-0.524,0.174-0.646,0.217c-0.2,0.07-0.427,0.078-0.58,0.078l-0.173-0.003   l-0.144-0.002c-0.811,0.01-1.258,0.038-1.524,0.095c-0.862,0.183-1.414,0.818-1.405,1.618c0.005,0.465,0.073,0.856,0.081,0.899   c0.086,0.477,0.5,0.823,0.984,0.823h9.253h9.253c0.484,0,0.899-0.347,0.984-0.823c0.008-0.043,0.076-0.433,0.081-0.899   c0.009-0.8-0.543-1.435-1.407-1.618c-0.264-0.056-0.711-0.085-1.494-0.094l-0.173,0.002l-0.173,0.003   c-0.153,0-0.38-0.008-0.58-0.077c-0.123-0.043-0.354-0.12-0.651-0.218c-0.93-0.309-2.486-0.827-3.359-1.171   c-0.32-0.223-0.634-1.782-0.618-3.14c0.002-0.179-0.001-0.342-0.006-0.571c-0.01-0.499-0.028-1.335-0.002-3.496   c0.013-1.072,0.119-2.385,0.553-2.553c0.347-0.136,0.764-0.259,1.099-0.357c0.25-0.074,0.465-0.138,0.6-0.187   c0.831-0.138,1.238-0.676,1.25-1.605c0.001-0.099,0.01-0.976-0.045-1.524c-0.208-2.111-1.19-3.172-3.088-3.339   c-0.431-0.038-0.917-0.043-1.379-0.043l-0.286,0l-0.258,0l-0.293-0.001C20.234,8.653,20.23,8.653,20.226,8.653L20.226,8.653z"
       class="st0" /></g></svg>