<?xml version="1.0" encoding="UTF-8" standalone="no"?>
<svg
   xmlns:dc="http://purl.org/dc/elements/1.1/"
   xmlns:cc="http://creativecommons.org/ns#"
   xmlns:rdf="http://www.w3.org/1999/02/22-rdf-syntax-ns#"
   xmlns:svg="http://www.w3.org/2000/svg"
   xmlns="http://www.w3.org/2000/svg"
   xml:space="preserve"
   style="enable-background:new 0 0 40 40;"
   viewBox="0 0 40 40"
   y="0px"
   x="0px"
   id="Layer_1"
   version="1.1"><metadata
     id="metadata52"><rdf:RDF><cc:Work
         rdf:about=""><dc:format>image/svg+xml</dc:format><dc:type
           rdf:resource="http://purl.org/dc/dcmitype/StillImage" /><dc:title></dc:title></cc:Work></rdf:RDF></metadata><defs
     id="defs50" /><style
     id="style41"
     type="text/css">
	.st0{fill:#A5A5A5;}
</style><g
     id="g45"><path
       style="fill:#efb412;fill-opacity:1"
       id="path43"
       d="M20.864,10.316c0.372,0,0.743,0.31,0.797,0.797c0.106,0.956,0.266,2.126,0.372,2.605   c0.233,1.049,0.738,1.42,1.264,1.42c0.745,0,1.534-0.745,1.659-1.367c0.213-1.064,0.319-2.073,0.372-2.286   c0.053-0.213,0.106-0.638,0.372-0.638c0.266,0,0.531,0.053,0.744,0.053c0.213,0,0.478,0.053,0.426,0.478   c-0.053,0.425,0,0.425-0.426,2.232c-0.425,1.807-1.594,2.444-2.232,2.71c-0.638,0.265-1.222,0.425-1.967,0.638   c-0.744,0.213-1.382,0.425-1.382,1.329v7.759c0,0.478,0.16,0.851,0.957,1.01c0.797,0.159,5.952,0.638,6.537,0.744   c0.584,0.106,0.903,0.213,0.903,0.531c0,0.319-0.266,0.372-0.266,0.372l-8.769-0.053l-8.77,0.053c0,0-0.266-0.053-0.266-0.372   c0-0.319,0.319-0.425,0.903-0.531c0.585-0.106,5.74-0.585,6.538-0.744c0.797-0.16,0.956-0.532,0.956-1.01V15.418   c0-0.691-0.478-1.063-0.744-1.169c-0.266-0.106-0.744-0.106-1.435-0.266c-0.691-0.16-1.328-0.638-1.328-1.116v-1.86   c0-0.213,0.159-0.638,0.425-0.638C16.772,10.369,20.492,10.316,20.864,10.316 M20.864,9.316c-0.203,0-1.394,0.016-2.485,0.03   c-0.911,0.012-1.752,0.023-1.873,0.023c-0.93,0-1.425,0.951-1.425,1.638v1.86c0,1.053,1.058,1.849,2.103,2.09   c0.381,0.088,0.696,0.132,0.949,0.167c0.134,0.019,0.301,0.042,0.353,0.058c0.004,0.005,0.102,0.069,0.102,0.236v10.62   c-0.036,0.012-0.086,0.025-0.153,0.039c-0.404,0.081-2.376,0.286-3.816,0.436c-1.54,0.16-2.425,0.254-2.704,0.304   c-0.472,0.086-1.725,0.314-1.725,1.515c0,0.782,0.554,1.249,1.069,1.353c0.065,0.013,0.131,0.02,0.197,0.02   c0.002,0,0.004,0,0.006,0l8.77-0.053l8.757,0.053c0.002,0,0.004,0,0.006,0c0.066,0,0.132-0.007,0.197-0.02   c0.515-0.103,1.069-0.571,1.069-1.353c0-1.202-1.253-1.429-1.724-1.515c-0.279-0.051-1.163-0.144-2.703-0.304   c-1.44-0.15-3.413-0.356-3.817-0.436c-0.066-0.013-0.116-0.027-0.153-0.039v-7.75c0-0.095,0.015-0.13,0.015-0.13   c0.073-0.074,0.472-0.188,0.642-0.237l0.163-0.047c0.68-0.194,1.268-0.361,1.912-0.629c1.852-0.772,2.556-2.278,2.821-3.405   c0.365-1.552,0.393-1.836,0.426-2.165l0.019-0.172c0.071-0.572-0.133-0.941-0.317-1.149C27.362,10.147,27.023,9.9,26.444,9.9   c-0.069,0-0.145-0.01-0.226-0.019c-0.166-0.017-0.342-0.034-0.518-0.034c-0.472,0-1.084,0.23-1.327,1.327l-0.015,0.068   c-0.024,0.097-0.06,0.326-0.106,0.643c-0.063,0.445-0.15,1.054-0.277,1.689c-0.041,0.181-0.435,0.563-0.678,0.563   c-0.008,0-0.17-0.105-0.288-0.637c-0.088-0.395-0.24-1.469-0.354-2.498C22.549,10.041,21.779,9.316,20.864,9.316L20.864,9.316z"
       class="st0" /></g></svg>