<?xml version="1.0" encoding="utf-8"?>
<!-- Generator: Adobe Illustrator 27.8.0, SVG Export Plug-In . SVG Version: 6.00 Build 0)  -->
<svg version="1.1" id="Calque_1" xmlns="http://www.w3.org/2000/svg" xmlns:xlink="http://www.w3.org/1999/xlink" x="0px" y="0px"
	 viewBox="0 0 60 60" style="enable-background:new 0 0 60 60;" xml:space="preserve">
<style type="text/css">
	.st0{fill:#FFFFFF;}
</style>
<path class="st0" d="M19.2,49.5h-8.1V23.5h8.1V49.5z M15.2,19.9c-2.6,0-4.7-2.1-4.7-4.7c0-2.6,2.1-4.7,4.7-4.7
	c2.6,0,4.7,2.1,4.7,4.7C19.9,17.8,17.8,19.9,15.2,19.9z M49.5,49.5h-8.1V36.8c0-3-0.1-6.9-4.2-6.9c-4.2,0-4.9,3.3-4.9,6.7v12.9h-8.1
	V23.5H32V27h0.1c1.1-2,3.7-4.2,7.7-4.2c8.2,0,9.7,5.4,9.7,12.4L49.5,49.5L49.5,49.5z"/>
<path class="st0" d="M57,3V57H3V3H57 M60,0H0v60h60V0L60,0z"/>
</svg>
