<?xml version="1.0" encoding="utf-8"?>
<!-- Generator: Adobe Illustrator 24.0.0, SVG Export Plug-In . SVG Version: 6.00 Build 0)  -->
<svg version="1.1" id="Layer_1" xmlns="http://www.w3.org/2000/svg" xmlns:xlink="http://www.w3.org/1999/xlink" x="0px" y="0px"
	 viewBox="0 0 40 40" style="enable-background:new 0 0 40 40;" xml:space="preserve">
<style type="text/css">
	.st0{fill:#A5A5A5;}
</style>
<g>
	<path class="st0" d="M26.54,10.946c0.005,0,0.01,0,0.015,0c0.738,0.011,0.954,0.457,0.947,0.899
		c-0.006,0.443,0.006,14.994,0,15.363c-0.005,0.366-0.301,0.728-0.738,0.728c-0.004,0-0.007,0-0.011,0c-0.009,0-0.02,0-0.033,0
		c-0.602,0-5.257,0.138-5.778,0.138c-0.01,0-0.019,0-0.026,0c-0.369-0.005-0.589-0.156-0.584-0.452
		c0.004-0.295,0.011-0.738,0.015-1.034c0.004-0.295,0.306-0.734,0.751-0.802c0.444-0.067,1.997-0.193,2.219-0.263
		c0.222-0.071,0.594-0.213,0.599-0.582c0.005-0.369,0.011-5.835,0.018-6.352c0.008-0.517-0.212-0.668-0.507-0.672
		c-0.295-0.004-8.862-0.054-9.453-0.062c-0.591-0.009-1.031-0.237-1.023-0.753c0.008-0.517,0.053-3.693,0.137-4.356
		c0.082-0.657,0.451-1.092,1.102-1.092c0.007,0,0.014,0,0.022,0c0.004,0,0.009,0,0.014,0C15.009,11.655,25.745,10.946,26.54,10.946
		 M26.54,9.946c-0.4,0-2.628,0.135-6.248,0.358c-2.675,0.165-5.707,0.351-6.068,0.351c0,0,0,0-0.001,0
		c-1.158,0-1.979,0.772-2.129,1.967c-0.074,0.587-0.119,2.743-0.144,4.448c-0.012,0.883,0.604,1.764,2.008,1.785
		c0.341,0.005,3.325,0.023,5.855,0.039c1.303,0.008,2.484,0.015,3.118,0.02c-0.003,0.634-0.006,1.964-0.008,3.217
		c-0.002,1.002-0.004,1.953-0.006,2.453c-0.213,0.026-0.693,0.075-1.002,0.106c-0.4,0.041-0.779,0.08-0.968,0.108
		c-0.975,0.148-1.59,1.037-1.601,1.775l-0.007,0.525l-0.007,0.511c-0.007,0.461,0.194,0.88,0.552,1.149
		c0.273,0.204,0.615,0.311,1.017,0.317c0.001,0,0.003,0,0.004,0c0.311,0,1.456-0.03,2.782-0.065
		c1.282-0.034,2.734-0.072,3.032-0.072c0,0,0,0,0.001,0c0.988,0,1.768-0.768,1.781-1.713c0.002-0.173,0.002-2.849,0-7.237
		c-0.002-3.705-0.003-7.904,0-8.127c0.007-0.497-0.144-0.94-0.437-1.279c-0.244-0.283-0.702-0.622-1.495-0.634
		C26.564,9.946,26.544,9.946,26.54,9.946L26.54,9.946z"/>
</g>
</svg>
