<?xml version="1.0" encoding="utf-8"?>
<!-- Generator: Adobe Illustrator 24.0.0, SVG Export Plug-In . SVG Version: 6.00 Build 0)  -->
<svg version="1.1" id="Layer_1" xmlns="http://www.w3.org/2000/svg" xmlns:xlink="http://www.w3.org/1999/xlink" x="0px" y="0px"
	 viewBox="0 0 40 40" style="enable-background:new 0 0 40 40;" xml:space="preserve">
<style type="text/css">
	.st0{fill:#A5A5A5;}
</style>
<g>
	<path class="st0" d="M20.226,11.188c1.703,0,6.57,0.195,7.252,0.244c0.681,0.048,1.119,0.438,1.119,1.119v3.115
		c0,0.536-0.389,0.827-0.779,0.974c-0.389,0.146-0.876,0.146-1.265,0.292c-0.389,0.146-0.682,0.438-0.682,1.216
		c0,0.779,0,4.721,0.049,5.256c0.048,0.536,0.438,0.827,1.119,1.022c0.682,0.195,2.288,0.389,2.774,0.584
		c0.486,0.195,0.486,0.487,0.486,0.681c0,0.195,0.048,1.606,0.048,1.85c0,0.243-0.389,0.243-0.389,0.243l-9.733,0.048l-9.733-0.048
		c0,0-0.389,0-0.389-0.243c0-0.244,0.049-1.655,0.049-1.85c0-0.194,0-0.486,0.486-0.681c0.487-0.195,2.093-0.389,2.774-0.584
		c0.681-0.195,1.071-0.486,1.119-1.022c0.049-0.535,0.049-4.477,0.049-5.256c0-0.779-0.292-1.071-0.682-1.216
		c-0.389-0.146-0.876-0.146-1.265-0.292c-0.389-0.146-0.779-0.438-0.779-0.974v-3.115c0-0.681,0.438-1.071,1.12-1.119
		C13.656,11.383,18.523,11.188,20.226,11.188 M20.226,10.188c-1.767,0-6.653,0.198-7.323,0.246
		c-1.225,0.087-2.048,0.938-2.048,2.117v3.115c0,0.86,0.533,1.574,1.427,1.91c0.286,0.107,0.569,0.154,0.819,0.196
		c0.168,0.028,0.343,0.057,0.446,0.096c0.002,0.001,0.004,0.001,0.005,0.001c0.011,0.04,0.028,0.126,0.028,0.279
		c0,4.291-0.034,5.034-0.044,5.161c-0.014,0.005-0.115,0.075-0.398,0.156c-0.259,0.074-0.739,0.159-1.203,0.241
		c-0.813,0.144-1.33,0.241-1.668,0.376c-0.509,0.204-1.115,0.648-1.115,1.61c0,0.089-0.011,0.439-0.022,0.808
		c-0.013,0.441-0.027,0.909-0.027,1.041c0,0.709,0.597,1.243,1.389,1.243l9.728,0.048l9.743-0.048c0.787,0,1.384-0.534,1.384-1.243
		c0-0.132-0.014-0.6-0.027-1.041c-0.011-0.37-0.022-0.72-0.022-0.808c0-0.961-0.606-1.406-1.115-1.61
		c-0.338-0.135-0.856-0.232-1.668-0.376c-0.464-0.082-0.944-0.167-1.203-0.241c-0.336-0.096-0.415-0.176-0.418-0.179
		c0.01-0.088-0.024-0.799-0.024-5.137c0-0.149,0.016-0.234,0.027-0.276c0.134-0.048,0.296-0.075,0.453-0.101
		c0.25-0.042,0.533-0.089,0.818-0.196c0.894-0.336,1.428-1.05,1.428-1.91v-3.115c0-1.179-0.823-2.029-2.048-2.117
		C26.88,10.386,21.992,10.188,20.226,10.188L20.226,10.188z"/>
</g>
</svg>
