<?xml version="1.0" encoding="utf-8"?>
<!-- Generator: Adobe Illustrator 24.0.0, SVG Export Plug-In . SVG Version: 6.00 Build 0)  -->
<svg version="1.1" id="Layer_1" xmlns="http://www.w3.org/2000/svg" xmlns:xlink="http://www.w3.org/1999/xlink" x="0px" y="0px"
	 viewBox="0 0 40 40" style="enable-background:new 0 0 40 40;" xml:space="preserve">
<style type="text/css">
	.st0{fill:#A5A5A5;}
</style>
<g>
	<path class="st0" d="M20.226,14.623c1.004,0,3.273,0.044,3.273,0.044c0.611,0,1.047,0.436,1.047,0.916
		c0,0.48,0.044,2.138,0.044,2.487c0,0.349-0.349,0.698-0.698,0.786c-0.349,0.087-1.047,0.174-1.047,0.829v1.571
		c0,0.48,0.48,0.917,1.353,1.135c0.872,0.218,2.312,0.393,2.924,0.436c0.61,0.044,3.404,0.262,3.709,0.262
		c0.306,0,1.047,0.174,1.047,0.698c0,0.524-0.043,0.611-0.043,0.611H20.226H8.619c0,0-0.044-0.087-0.044-0.611
		c0-0.524,0.742-0.698,1.047-0.698c0.305,0,3.098-0.218,3.709-0.262c0.611-0.043,2.051-0.218,2.924-0.436
		c0.872-0.218,1.353-0.654,1.353-1.135v-1.571c0-0.655-0.698-0.742-1.047-0.829c-0.349-0.088-0.698-0.436-0.698-0.786
		c0-0.349,0.044-2.007,0.044-2.487c0-0.48,0.436-0.916,1.047-0.916C16.954,14.667,19.223,14.623,20.226,14.623 M20.226,13.623
		c-1.009,0-3.292,0.044-3.292,0.044c-1.11,0-2.028,0.859-2.028,1.916c0,0.255-0.013,0.849-0.024,1.395
		c-0.01,0.482-0.02,0.929-0.02,1.093c0,0.903,0.75,1.579,1.455,1.756l0.134,0.032c0.042,0.01,0.101,0.023,0.157,0.038v1.267
		c-0.062,0.054-0.229,0.167-0.595,0.258c-0.769,0.192-2.115,0.364-2.752,0.409l-0.761,0.057c-0.859,0.065-2.648,0.2-2.88,0.203
		c-0.848,0-2.045,0.527-2.045,1.698c0,0.636,0.055,0.87,0.15,1.06c0.17,0.338,0.515,0.551,0.894,0.551h11.607h11.607
		c0.379,0,0.726-0.215,0.895-0.554c0.094-0.189,0.148-0.422,0.148-1.056c0-1.171-1.197-1.698-2.047-1.698
		c-0.23-0.003-2.021-0.138-2.881-0.203l-0.756-0.057c-0.638-0.045-1.985-0.217-2.753-0.409c-0.367-0.091-0.533-0.205-0.595-0.258
		v-1.267c0.056-0.015,0.115-0.028,0.157-0.038l0.133-0.031c0.706-0.177,1.456-0.853,1.456-1.756c0-0.164-0.009-0.61-0.02-1.093
		c-0.012-0.546-0.024-1.14-0.024-1.395c0-1.057-0.918-1.916-2.047-1.916C23.495,13.666,21.231,13.623,20.226,13.623L20.226,13.623z"
		/>
</g>
</svg>
