<?xml version="1.0" encoding="UTF-8" standalone="no"?>
<!-- Generator: Adobe Illustrator 24.0.0, SVG Export Plug-In . SVG Version: 6.00 Build 0)  -->

<svg
   version="1.1"
   id="Layer_1"
   x="0px"
   y="0px"
   viewBox="0 0 186.087 1024.264"
   xml:space="preserve"
   width="186.08701"
   height="1024.264"
   xmlns:xlink="http://www.w3.org/1999/xlink"
   xmlns="http://www.w3.org/2000/svg"
   xmlns:svg="http://www.w3.org/2000/svg"><defs
   id="defs48" />
<style
   type="text/css"
   id="style9">
	.st0{clip-path:url(#SVGID_2_);}
	.st1{fill:#EFB311;}
</style>
<g
   id="g43"
   transform="rotate(-90,512.13195,512.13147)">
	<defs
   id="defs12">
		
			<rect
   id="SVGID_1_"
   x="419.08801"
   y="-419.08801"
   transform="rotate(90,512.13195,93.04345)"
   width="186.08701"
   height="1024.264" />
	</defs>
	<clipPath
   id="SVGID_2_">
		<use
   xlink:href="#SVGID_1_"
   style="overflow:visible"
   id="use14"
   x="0"
   y="0"
   width="100%"
   height="100%" />
	</clipPath>
	<g
   class="st0"
   clip-path="url(#SVGID_2_)"
   id="g41">
		<polygon
   class="st1"
   points="371.153,-184.831 185.577,0.628 0,186.087 0,232.621 0,279.152 231.326,47.968 462.651,-183.238 416.903,-184.046 "
   id="polygon17" />
		<polygon
   class="st1"
   points="186.182,558.35 231.954,559.157 277.704,559.964 511.295,326.515 744.864,93.066 744.864,93.021 883.099,-45.098 1021.311,-183.238 975.562,-184.046 929.812,-184.831 837.328,-92.438 744.864,-0.045 744.864,0 465.523,279.174 "
   id="polygon19" />
		<polygon
   class="st1"
   points="557.359,-184.831 278.69,93.694 0,372.219 0,418.752 0,465.283 324.439,141.034 648.878,-183.238 603.13,-184.046 "
   id="polygon21" />
		<polygon
   class="st1"
   points="184.948,-184.831 92.464,-92.438 0,-0.045 0,46.488 0,93.021 138.234,-45.098 276.447,-183.238 230.697,-184.046 "
   id="polygon23" />
		<path
   class="st1"
   d="m 46.558,-139.599 45.03,-45.098 H 45.795 0 v 45.098 c 0,24.78 0.337,45.076 0.765,45.076 0.425,0 21.023,-20.295 45.793,-45.076 z"
   id="path25" />
		<path
   class="st1"
   d="m 744.864,-93.066 v -46.533 c 0,24.78 0.337,45.076 0.765,45.076 0.426,0 21.023,-20.295 45.793,-45.076 l 45.03,-45.098 h -45.793 -45.795 v -1.435 L 372.433,186.11 -0.022,558.35 l 45.75,0.807 45.771,0.808 326.683,-326.515 z"
   id="path27" />
		<polygon
   class="st1"
   points="372.41,558.35 418.159,559.157 463.908,559.964 604.386,419.581 744.864,279.197 744.864,279.152 976.19,47.968 1207.516,-183.238 1161.767,-184.046 1116.018,-184.831 930.441,0.628 744.864,186.087 744.864,186.131 558.637,372.241 "
   id="polygon29" />
		<polygon
   class="st1"
   points="558.615,558.35 604.342,559.157 650.091,559.964 697.478,512.67 744.864,465.351 744.864,465.283 1069.304,141.034 1393.743,-183.238 1347.994,-184.046 1302.223,-184.831 1023.555,93.694 744.864,372.219 744.864,372.263 651.751,465.306 "
   id="polygon31" />
		<polygon
   class="st1"
   points="1394.955,559.964 1442.342,512.67 1489.729,465.351 1489.729,418.819 1489.729,372.263 1396.615,465.306 1303.479,558.35 1349.206,559.157 "
   id="polygon33" />
		<polygon
   class="st1"
   points="1489.729,186.131 1303.501,372.241 1117.274,558.35 1163.023,559.157 1208.772,559.964 1349.25,419.581 1489.729,279.197 1489.729,232.664 "
   id="polygon35" />
		<polygon
   class="st1"
   points="1489.729,-186.131 1117.297,186.11 744.842,558.35 790.592,559.157 836.362,559.964 1163.046,233.45 1489.729,-93.066 1489.729,-139.599 "
   id="polygon37" />
		<polygon
   class="st1"
   points="1489.729,0 1210.388,279.174 931.046,558.35 976.818,559.157 1022.568,559.964 1256.16,326.515 1489.729,93.066 1489.729,46.533 "
   id="polygon39" />
	</g>
</g>
</svg>
