<?xml version="1.0" encoding="utf-8"?>
<!-- Generator: Adobe Illustrator 24.0.0, SVG Export Plug-In . SVG Version: 6.00 Build 0)  -->
<svg version="1.1" id="Layer_1" xmlns="http://www.w3.org/2000/svg" xmlns:xlink="http://www.w3.org/1999/xlink" x="0px" y="0px"
	 viewBox="0 0 1024.264 186.087" style="enable-background:new 0 0 1024.264 186.087;" xml:space="preserve">
<style type="text/css">
	.st0{clip-path:url(#SVGID_2_);}
	.st1{fill:#EFB311;}
</style>
<g>
	<defs>
		
			<rect id="SVGID_1_" x="419.088" y="-419.088" transform="matrix(-1.836970e-16 1 -1 -1.836970e-16 605.1754 -419.0885)" width="186.087" height="1024.264"/>
	</defs>
	<clipPath id="SVGID_2_">
		<use xlink:href="#SVGID_1_"  style="overflow:visible;"/>
	</clipPath>
	<g class="st0">
		<polygon class="st1" points="462.651,-183.238 416.903,-184.046 371.153,-184.831 185.577,0.628 0,186.087 0,232.621 0,279.152 
			231.326,47.968 		"/>
		<polygon class="st1" points="744.864,93.066 744.864,93.021 883.099,-45.098 1021.311,-183.238 975.562,-184.046 
			929.812,-184.831 837.328,-92.438 744.864,-0.045 744.864,0 465.523,279.174 186.182,558.35 231.954,559.157 277.704,559.964 
			511.295,326.515 		"/>
		<polygon class="st1" points="648.878,-183.238 603.13,-184.046 557.359,-184.831 278.69,93.694 0,372.219 0,418.752 0,465.283 
			324.439,141.034 		"/>
		<polygon class="st1" points="276.447,-183.238 230.697,-184.046 184.948,-184.831 92.464,-92.438 0,-0.045 0,46.488 0,93.021 
			138.234,-45.098 		"/>
		<path class="st1" d="M46.558-139.599l45.03-45.098H45.795H0v45.098c0,24.78,0.337,45.076,0.765,45.076
			C1.19-94.523,21.788-114.818,46.558-139.599z"/>
		<path class="st1" d="M744.864-93.066v-46.533c0,24.78,0.337,45.076,0.765,45.076c0.426,0,21.023-20.295,45.793-45.076
			l45.03-45.098h-45.793h-45.795v-1.435L372.433,186.11L-0.022,558.35l45.75,0.807l45.771,0.808L418.182,233.45L744.864-93.066z"/>
		<polygon class="st1" points="744.864,279.197 744.864,279.152 976.19,47.968 1207.516,-183.238 1161.767,-184.046 
			1116.018,-184.831 930.441,0.628 744.864,186.087 744.864,186.131 558.637,372.241 372.41,558.35 418.159,559.157 
			463.908,559.964 604.386,419.581 		"/>
		<polygon class="st1" points="744.864,465.351 744.864,465.283 1069.304,141.034 1393.743,-183.238 1347.994,-184.046 
			1302.223,-184.831 1023.555,93.694 744.864,372.219 744.864,372.263 651.751,465.306 558.615,558.35 604.342,559.157 
			650.091,559.964 697.478,512.67 		"/>
		<polygon class="st1" points="1303.479,558.35 1349.206,559.157 1394.955,559.964 1442.342,512.67 1489.729,465.351 
			1489.729,418.819 1489.729,372.263 1396.615,465.306 		"/>
		<polygon class="st1" points="1489.729,279.197 1489.729,232.664 1489.729,186.131 1303.501,372.241 1117.274,558.35 
			1163.023,559.157 1208.772,559.964 1349.25,419.581 		"/>
		<polygon class="st1" points="1489.729,-93.066 1489.729,-139.599 1489.729,-186.131 1117.297,186.11 744.842,558.35 
			790.592,559.157 836.362,559.964 1163.046,233.45 		"/>
		<polygon class="st1" points="1489.729,93.066 1489.729,46.533 1489.729,0 1210.388,279.174 931.046,558.35 976.818,559.157 
			1022.568,559.964 1256.16,326.515 		"/>
	</g>
</g>
</svg>
