<svg id="Layer_1" data-name="Layer 1" xmlns="http://www.w3.org/2000/svg" viewBox="0 0 153.672 44.841"><defs><style>.cls-1{fill:#eeb310;}.cls-2{fill:#fff;}</style></defs><title>logo</title><rect class="cls-1" x="1.5" y="1.5" width="85.924" height="41.841"/><path d="M91.257,46.434H2.332V1.592H91.257Zm-85.925-3H88.257V4.592H5.332Z" transform="translate(-2.332 -1.592)"/><rect class="cls-2" x="87.425" y="1.5" width="64.748" height="41.841"/><path d="M156,46.434H88.257V1.592H156Zm-64.747-3H153V4.592H91.257Z" transform="translate(-2.332 -1.592)"/><path d="M33.376,11.428,29.56,37.275H25.816L23.692,22.3,21.6,37.275H17.86L14.044,11.428h3.42L19.912,30.8,22.36,11.428h2.7L27.508,30.8l2.448-19.368Z" transform="translate(-2.332 -1.592)"/><path d="M35.356,37.275V11.428h3.456V37.275Z" transform="translate(-2.332 -1.592)"/><path d="M42.052,11.428H48.82q3.959,0,3.96,4.428v6.372q0,3.383-2.052,4.284L53.14,37.275H49.864L47.6,26.836H45.508V37.275H42.052Zm3.456,12.456h2.268q1.547,0,1.548-1.872v-5.58q0-1.872-1.548-1.872H45.508Z" transform="translate(-2.332 -1.592)"/><path d="M61.167,14.56V37.275H57.711V14.56H54.4V11.428h10.08V14.56Z" transform="translate(-2.332 -1.592)"/><path d="M74.163,37.275V25.54H69.915V37.275H66.459V11.428h3.456V22.407h4.248V11.428h3.456V37.275Z" transform="translate(-2.332 -1.592)"/><path d="M101.456,11.428h6.767q3.96,0,3.96,4.428v6.372q0,3.383-2.052,4.284l2.412,10.763h-3.276L107,26.836h-2.087V37.275h-3.456Zm3.456,12.456h2.267q1.546,0,1.548-1.872v-5.58q0-1.872-1.548-1.872h-2.267Z" transform="translate(-2.332 -1.592)"/><path d="M118.339,37.275h-3.456V15.856q0-4.429,4.14-4.428h2.592q4.139,0,4.14,4.428V37.275H122.3V27.808h-3.96Zm3.96-12.6v-8.6a1.336,1.336,0,0,0-1.511-1.511h-.937a1.336,1.336,0,0,0-1.512,1.511v8.6Z" transform="translate(-2.332 -1.592)"/><path d="M128.815,37.275V11.428h3.456V37.275Z" transform="translate(-2.332 -1.592)"/><path d="M143.718,37.275H135.51V11.428h3.456V34.144h4.752Z" transform="translate(-2.332 -1.592)"/></svg>