<svg id="Layer_1" data-name="Layer 1" xmlns="http://www.w3.org/2000/svg" viewBox="0 0 300 300"><defs><style>.cls-1{fill:#f0f0f0;}.cls-2{fill:#303030;}.cls-3,.cls-4{fill:none;stroke:#616161;stroke-width:0.32px;}.cls-3{stroke-miterlimit:10;}.cls-5{fill:#616161;}.cls-6{fill:#616262;}</style></defs><path class="cls-1" d="M150,299A149,149,0,1,0,1,150,149,149,0,0,0,150,299"/><path class="cls-2" d="M144.89,59l-1.58,4.56h-5.74l9.1-26.42h6.77l9,26.42h-5.94L155,59ZM150,43.61l-3.68,10.93h7.32Z"/><path class="cls-2" d="M150,239.11c3.25,0,5.35.48,6.73,1.5a6.81,6.81,0,0,1,2.53,5.59,6.34,6.34,0,0,1-1.66,4.51,5.81,5.81,0,0,1-2.77,1.58,5.9,5.9,0,0,1,3.13,1.43,6.15,6.15,0,0,1,1.9,4.75,6.87,6.87,0,0,1-2.73,5.78c-1.39.91-3,1.27-5.9,1.27h-9.74V239.11Zm-3.09,11.2h2.18c3.21,0,4.71-1.15,4.71-3.6a3.24,3.24,0,0,0-1.58-3,8.4,8.4,0,0,0-3.41-.51h-1.9Zm0,11.21h2.66c1.85,0,2.73-.16,3.52-.71a3.71,3.71,0,0,0-.2-5.82c-.83-.48-1.66-.64-3.64-.64h-2.34Z"/><path class="cls-2" d="M226.48,140.68h5.66l-7.36,26.42h-5.47l-4.16-17.3L211,167.1h-5.47l-7.2-26.42h5.74l4.24,16.68,4.27-16.68H218l4.12,16.95Z"/><path class="cls-2" d="M41.08,162.3H35.66V135.89h5.42v11.16h10V135.89h5.43V162.3H51.1V151.49h-10Z"/><line class="cls-3" x1="73.26" y1="89.11" x2="73.26" y2="210.89"/><line class="cls-3" x1="68.8" y1="89.11" x2="77.71" y2="89.11"/><line class="cls-3" x1="68.8" y1="210.88" x2="77.71" y2="210.88"/><line class="cls-3" x1="190.46" y1="78.09" x2="109.79" y2="78.09"/><line class="cls-3" x1="190.46" y1="73.64" x2="190.46" y2="82.55"/><line class="cls-3" x1="109.79" y1="73.64" x2="109.79" y2="82.55"/><line class="cls-3" x1="210.89" y1="221.9" x2="89.12" y2="221.9"/><line class="cls-3" x1="210.89" y1="217.45" x2="210.89" y2="226.36"/><line class="cls-3" x1="89.12" y1="217.45" x2="89.12" y2="226.36"/><line class="cls-4" x1="168.96" y1="154.79" x2="188.16" y2="154.79"/><polygon class="cls-5" points="171.37 148.38 164.95 154.79 171.37 161.21 171.37 148.38"/><line class="cls-4" x1="131.15" y1="154.79" x2="111.95" y2="154.79"/><polygon class="cls-5" points="128.74 161.21 135.16 154.79 128.74 148.38 128.74 161.21"/><path class="cls-6" d="M96.29,197.51a10.3,10.3,0,0,0-8.16,10.09v3a1.28,1.28,0,0,0,1.28,1.29H210.58a1.3,1.3,0,0,0,1.3-1.29v-3a10.31,10.31,0,0,0-8.17-10.09l-27.28-5.8a15.47,15.47,0,0,1-12.25-15.13V147.24A25.78,25.78,0,0,1,184.6,122l1.55-.33a6.45,6.45,0,0,0,5.1-6.31V93.28a5.16,5.16,0,0,0-5.15-5.16H113.91a5.16,5.16,0,0,0-5.16,5.16v22.1a6.45,6.45,0,0,0,5.11,6.31l1.54.33a25.77,25.77,0,0,1,20.42,25.22v29.34a15.47,15.47,0,0,1-12.25,15.13Z"/></svg>