<?xml version="1.0" encoding="utf-8"?>
<!-- Generator: Adobe Illustrator 26.0.2, SVG Export Plug-In . SVG Version: 6.00 Build 0)  -->
<svg version="1.1" id="svg1926" xmlns:svg="http://www.w3.org/2000/svg"
	 xmlns="http://www.w3.org/2000/svg" xmlns:xlink="http://www.w3.org/1999/xlink" x="0px" y="0px" viewBox="0 0 51 51"
	 style="enable-background:new 0 0 51 51;" xml:space="preserve">
<style type="text/css">
	.st0{fill:#F0F0F0;}
	.st1{enable-background:new    ;}
	.st2{fill:#303030;}
	.st3{fill:none;stroke:#616161;stroke-width:0.1276;stroke-miterlimit:4.025;}
	.st4{fill:none;stroke:#616161;stroke-width:0.1276;stroke-miterlimit:1.61;}
	.st5{fill:#616161;}
</style>
<g id="layer1">
	<g id="g1869" transform="matrix(0.3768213,0,0,-0.3768213,-27.296596,247.77507)">
		<g id="g1664">
			<g>
				<g>
					<g id="g1666">
						<g id="g1672" transform="translate(96.3231,609.772)">
							<path id="path1674" class="st0" d="M43.8-87.6c37.4,0,67.7,30.3,67.7,67.7S81.2,47.8,43.8,47.8s-67.7-30.3-67.7-67.7
								C-23.9-57.3,6.4-87.6,43.8-87.6"/>
						</g>
					</g>
				</g>
			</g>
		</g>
		<g class="st1">
			<path class="st2" d="M137.8,631.2l-0.7-2.1h-2.6l4.1,12h3.1l4.1-12h-2.7l-0.7,2.1H137.8z M140.1,638.2l-1.7-5h3.3L140.1,638.2z"
				/>
		</g>
		<g class="st1">
			<path class="st2" d="M140.1,549.3c1.5,0,2.4-0.2,3.1-0.7c0.7-0.6,1.2-1.5,1.2-2.5c0-0.8-0.3-1.5-0.8-2c-0.3-0.3-0.6-0.5-1.3-0.7
				c0.7-0.2,1-0.3,1.4-0.6c0.6-0.5,0.9-1.2,0.9-2.2c0-1.1-0.5-2.1-1.2-2.6c-0.6-0.4-1.4-0.6-2.7-0.6h-4.4v12h3.8V549.3z
				 M138.7,544.2h1c1.5,0,2.1,0.5,2.1,1.6c0,0.6-0.3,1.1-0.7,1.3c-0.3,0.2-0.8,0.2-1.5,0.2h-0.9
				C138.7,547.3,138.7,544.2,138.7,544.2z M138.7,539.2h1.2c0.8,0,1.2,0.1,1.6,0.3c0.4,0.3,0.6,0.7,0.6,1.3s-0.2,1.1-0.7,1.4
				c-0.4,0.2-0.8,0.3-1.7,0.3h-1.1L138.7,539.2L138.7,539.2z"/>
		</g>
		<g class="st1">
			<path class="st2" d="M169.8,594.1h2.6l-3.3-12h-2.5l-1.9,7.9l-1.9-7.9h-2.5l-3.3,12h2.6l1.9-7.6l1.9,7.6h2.4l1.9-7.7L169.8,594.1
				z"/>
		</g>
		<g class="st1">
			<path class="st2" d="M90.7,584.2h-2.5v12h2.5v-5.1h4.5v5.1h2.5v-12h-2.5v4.9h-4.5V584.2z"/>
		</g>
		<g id="g1686" transform="translate(84.0216,643.538)">
			<path id="path1688" class="st3" d="M21.2-25.7v-56"/>
		</g>
		<g id="g1690" transform="translate(83.3074,643.538)">
			<path id="path1692" class="st3" d="M19.9-25.7h4"/>
		</g>
		<g id="g1694" transform="translate(83.3074,623.773)">
			<path id="path1696" class="st3" d="M19.9-61.9h4"/>
		</g>
		<g id="g1698" transform="translate(100.815,645.181)">
			<path id="path1700" class="st3" d="M52.1-22.7H27.7"/>
		</g>
		<g id="g1702" transform="translate(100.815,645.895)">
			<path id="path1704" class="st3" d="M52.1-21.4v-4"/>
		</g>
		<g id="g1706" transform="translate(92.22,645.895)">
			<path id="path1708" class="st3" d="M36.3-21.4v-4"/>
		</g>
		<g id="g1710" transform="translate(105.728,622.13)">
			<path id="path1712" class="st3" d="M61.1-65H7.8"/>
		</g>
		<g id="g1714" transform="translate(105.728,622.844)">
			<path id="path1716" class="st3" d="M61.1-63.7v-4"/>
		</g>
		<g id="g1718" transform="translate(86.9185,622.844)">
			<path id="path1720" class="st3" d="M26.6-63.7v-4"/>
		</g>
		<g id="g1722" transform="translate(97.8958,632.887)">
			<path id="path1724" class="st4" d="M46.7-45.2h8.7"/>
		</g>
		<g id="g1726" transform="translate(98.2808,633.915)">
			<path id="path1728" class="st5" d="M47.4-43.3l-2.9-2.9l2.9-2.9V-43.3z"/>
		</g>
		<g id="g1730" transform="translate(94.7505,632.887)">
			<path id="path1732" class="st4" d="M40.9-45.2h-8.7"/>
		</g>
		<g id="g1734" transform="translate(94.3655,631.859)">
			<path id="path1736" class="st5" d="M40.2-47.1l2.9,2.9l-2.9,2.9V-47.1z"/>
		</g>
		<g id="g1738">
			<g>
				<g>
					<g id="g1740">
						<g id="g1746" transform="translate(96.3231,623.615)">
							<path id="path1748" class="st5" d="M43.8-62.2h26.7c0,0,0.2,1,0.2,2.1s-1,1.6-1.8,1.8s-3.1,0.2-3.8,0.2s-2.1-0.1-3.6,0.4
								c-1.5,0.5-8.3,2.7-11.7,4.1c-3.4,1.3-3.6,10.2-3.6,11.8s-0.1,2.8,0,11.7c0.1,9,2.2,9.6,3.6,10.1c1.7,0.7,4.1,1.3,4.9,1.6
								c0.8,0.3,1.6-0.2,1.7,1.9c0,0,0,2.6-0.1,4.1c-0.5,5.5-3,6.8-6.3,7c-1.9,0.2-4.4,0.1-6.2,0.1c-1.8,0-4.3,0.1-6.2-0.1
								c-3.3-0.3-5.8-1.6-6.3-7c-0.1-1.5-0.1-4.1-0.1-4.1c0-2.1,0.8-1.6,1.7-1.9c0.8-0.3,3.2-0.9,4.9-1.6c1.3-0.5,3.4-1.1,3.6-10.1
								c0.1-9,0-10.1,0-11.7s-0.2-10.4-3.6-11.8C34.3-55,27.5-57.2,26-57.7c-1.5-0.5-2.9-0.4-3.6-0.4s-2.9,0-3.8-0.2
								c-0.8-0.2-1.8-0.7-1.8-1.8s0.2-2.1,0.2-2.1H43.8z"/>
						</g>
					</g>
				</g>
			</g>
		</g>
	</g>
</g>
</svg>
