<?xml version="1.0" encoding="UTF-8"?><svg id="Layer_7" xmlns="http://www.w3.org/2000/svg" xmlns:xlink="http://www.w3.org/1999/xlink" viewBox="0 0 720 576"><defs><style>.cls-1,.cls-2,.cls-3{fill:none;}.cls-4{fill:#303030;font-family:NeuzeitGro-Bol, 'Neuzeit Grotesk';font-size:13.84px;}.cls-5{letter-spacing:.01em;}.cls-6{letter-spacing:-.01em;}.cls-7{letter-spacing:-.02em;}.cls-8{clip-path:url(#clippath);}.cls-2{stroke-miterlimit:10;}.cls-2,.cls-3{stroke:#231f20;stroke-width:.87px;}.cls-9{fill:#f7f7f7;}.cls-10{fill:#999;}.cls-11{fill:#aaa;}.cls-12{fill:#bcbcbc;}.cls-13{fill:#ddd;}.cls-14{fill:#dbdbdb;}.cls-15{fill:#231f20;}.cls-16{letter-spacing:0em;}.cls-17{letter-spacing:0em;}.cls-3{stroke-miterlimit:1;}.cls-18{letter-spacing:-.01em;}.cls-19{letter-spacing:0em;}.cls-20{clip-path:url(#clippath-1);}.cls-21{clip-path:url(#clippath-4);}.cls-22{clip-path:url(#clippath-3);}.cls-23{clip-path:url(#clippath-2);}.cls-24{clip-path:url(#clippath-5);}.cls-25{letter-spacing:0em;}.cls-26{letter-spacing:0em;}.cls-27{letter-spacing:-.02em;}.cls-28{letter-spacing:.02em;}.cls-29{letter-spacing:-.01em;}.cls-30{letter-spacing:0em;}.cls-31{letter-spacing:0em;}.cls-32{letter-spacing:0em;}.cls-33{letter-spacing:0em;}.cls-34{letter-spacing:0em;}.cls-35{letter-spacing:0em;}.cls-36{letter-spacing:0em;}.cls-37{letter-spacing:-.01em;}.cls-38{letter-spacing:0em;}.cls-39{letter-spacing:-.02em;}.cls-40{letter-spacing:-.02em;}.cls-41{letter-spacing:0em;}.cls-42{letter-spacing:0em;}.cls-43{letter-spacing:0em;}.cls-44{letter-spacing:0em;}.cls-45{letter-spacing:0em;}</style><clipPath id="clippath"><rect class="cls-1" x="67.27" y="153.21" width="582.73" height="373.7"/></clipPath><clipPath id="clippath-1"><rect class="cls-1" x="67.27" y="49.09" width="585.46" height="477.83"/></clipPath><clipPath id="clippath-2"><rect class="cls-1" x="67.27" y="49.09" width="585.46" height="477.83"/></clipPath><clipPath id="clippath-3"><rect class="cls-1" x="67.27" y="49.09" width="585.46" height="477.83"/></clipPath><clipPath id="clippath-4"><rect class="cls-1" x="67.27" y="49.09" width="585.46" height="477.83"/></clipPath><clipPath id="clippath-5"><rect class="cls-1" x="67.27" y="49.09" width="585.46" height="477.83"/></clipPath></defs><polygon class="cls-9" points="99.81 369.22 99.81 383.56 123.36 398.27 416.93 229.22 416.93 214.88 393.37 201.03 99.81 369.2 99.81 369.22"/><polygon class="cls-2" points="99.81 369.22 99.81 383.56 123.36 398.27 416.93 229.22 416.93 214.88 393.37 201.03 99.81 369.2 99.81 369.22"/><polyline class="cls-9" points="99.8 369.23 123.35 383.93 123.35 398.27"/><polyline class="cls-2" points="99.8 369.23 123.35 383.93 123.35 398.27"/><polyline class="cls-9" points="416.93 214.89 123.35 383.93 123.35 398.27"/><polyline class="cls-2" points="416.93 214.89 123.35 383.93 123.35 398.27"/><polyline class="cls-2" points="416.93 214.89 123.35 383.93 99.79 369.22"/><polygon class="cls-9" points="270.79 467.98 270.79 482.32 294.34 497.03 587.91 327.98 587.91 313.64 564.35 299.79 270.79 467.96 270.79 467.98"/><polygon class="cls-2" points="270.79 467.98 270.79 482.32 294.34 497.03 587.91 327.98 587.91 313.64 564.35 299.79 270.79 467.96 270.79 467.98"/><polyline class="cls-9" points="270.78 467.99 294.33 482.69 294.33 497.03"/><polyline class="cls-2" points="270.78 467.99 294.33 482.69 294.33 497.03"/><polyline class="cls-9" points="587.9 313.65 294.33 482.69 294.33 497.03"/><polyline class="cls-2" points="587.9 313.65 294.33 482.69 294.33 497.03"/><polyline class="cls-2" points="587.9 313.65 294.33 482.69 270.77 467.97"/><polygon class="cls-9" points="184.2 383.03 184.2 397.37 207.75 412.07 395.44 303.47 395.44 289.13 371.88 275.28 184.2 383.01 184.2 383.03"/><polygon class="cls-2" points="184.2 383.03 184.2 397.37 207.75 412.07 395.44 303.47 395.44 289.13 371.88 275.28 184.2 383.01 184.2 383.03"/><polyline class="cls-9" points="184.19 383.04 207.74 397.74 207.74 412.08"/><polyline class="cls-2" points="184.19 383.04 207.74 397.74 207.74 412.08"/><polyline class="cls-9" points="395.43 289.14 207.74 397.74 207.74 412.08"/><polyline class="cls-2" points="395.43 289.14 207.74 397.74 207.74 412.08"/><polyline class="cls-2" points="395.43 289.14 207.74 397.74 184.18 383.03"/><polygon class="cls-9" points="241.61 418.21 241.61 432.55 265.16 447.26 452.84 338.65 452.84 324.32 429.28 310.46 241.61 418.19 241.61 418.21"/><polygon class="cls-2" points="241.61 418.21 241.61 432.55 265.16 447.26 452.84 338.65 452.84 324.32 429.28 310.46 241.61 418.19 241.61 418.21"/><polyline class="cls-9" points="241.6 418.22 265.15 432.93 265.15 447.27"/><polyline class="cls-2" points="241.6 418.22 265.15 432.93 265.15 447.27"/><polyline class="cls-9" points="452.83 324.32 265.15 432.93 265.15 447.27"/><polyline class="cls-2" points="452.83 324.32 265.15 432.93 265.15 447.27"/><polyline class="cls-2" points="452.83 324.32 265.15 432.93 241.59 418.21"/><polygon class="cls-9" points="356.42 481.17 356.42 495.51 379.96 510.22 567.65 401.61 567.65 387.27 544.09 373.42 356.42 481.15 356.42 481.17"/><polygon class="cls-2" points="356.42 481.17 356.42 495.51 379.96 510.22 567.65 401.61 567.65 387.27 544.09 373.42 356.42 481.15 356.42 481.17"/><polyline class="cls-9" points="356.41 481.18 379.96 495.89 379.96 510.23"/><polyline class="cls-2" points="356.41 481.18 379.96 495.89 379.96 510.23"/><polyline class="cls-9" points="567.64 387.28 379.96 495.89 379.96 510.23"/><polyline class="cls-2" points="567.64 387.28 379.96 495.89 379.96 510.23"/><polyline class="cls-2" points="567.64 387.28 379.96 495.89 356.4 481.17"/><polygon class="cls-9" points="72.48 314.51 72.48 328.85 96.03 343.56 283.71 234.96 283.71 220.62 260.15 206.76 72.48 314.5 72.48 314.51"/><polygon class="cls-2" points="72.48 314.51 72.48 328.85 96.03 343.56 283.71 234.96 283.71 220.62 260.15 206.76 72.48 314.5 72.48 314.51"/><polyline class="cls-9" points="72.47 314.52 96.02 329.23 96.02 343.57"/><polyline class="cls-2" points="72.47 314.52 96.02 329.23 96.02 343.57"/><polyline class="cls-9" points="283.7 220.63 96.02 329.23 96.02 343.57"/><polyline class="cls-2" points="283.7 220.63 96.02 329.23 96.02 343.57"/><polyline class="cls-2" points="283.7 220.63 96.02 329.23 72.46 314.51"/><g class="cls-8"><path class="cls-2" d="M354.86,237.17c1.34,3.61-2.75,8.46-9.13,10.82-6.38,2.37-12.64,1.36-13.98-2.25-1.34-3.61,2.75-8.46,9.13-10.82,6.38-2.37,12.64-1.36,13.98,2.25Z"/><path class="cls-2" d="M361.97,236.16c1.84,4.96-5.33,12.19-16.02,16.16-10.68,3.96-20.84,3.15-22.68-1.81-1.84-4.96,5.33-12.19,16.02-16.16,10.68-3.96,20.84-3.15,22.68,1.81Z"/><path class="cls-2" d="M524.03,337.6c1.34,3.61-2.75,8.46-9.13,10.82-6.38,2.37-12.64,1.36-13.98-2.25-1.34-3.61,2.75-8.45,9.13-10.82,6.38-2.37,12.64-1.36,13.98,2.25Z"/><path class="cls-2" d="M531.14,336.6c1.84,4.96-5.33,12.19-16.02,16.16-10.68,3.96-20.84,3.15-22.68-1.81-1.84-4.96,5.33-12.2,16.02-16.16,10.68-3.96,20.84-3.15,22.68,1.81Z"/></g><polyline class="cls-13" points="101.24 278.87 94.31 281.8 94.31 273.26 99.68 269.2 99.6 262.56 86.17 272.38 86.28 276.75 88.08 276.79 88.08 285.33 81.15 290.28 81.16 297.11"/><polyline class="cls-3" points="101.24 278.87 94.31 281.8 94.31 273.26 99.68 269.2 99.6 262.56 86.17 272.38 86.28 276.75 88.08 276.79 88.08 285.33 81.15 290.28 81.16 297.11"/><polyline class="cls-13" points="81.17 290.81 81.17 290.83 81.12 297.33 462.86 521.72 482.5 510.48 482.94 503.28 102.87 279.48"/><polyline class="cls-2" points="81.17 290.81 81.17 290.83 81.12 297.33 462.86 521.72 482.5 510.48 482.94 503.28 102.87 279.48"/><polyline class="cls-2" points="81.16 290.83 463.74 514.77 463.74 521.32"/><line class="cls-2" x1="463.74" y1="514.77" x2="81.15" y2="290.82"/><polygon class="cls-12" points="471.18 510.68 88.59 286.73 88.23 286.52 88.92 285.81 88.91 282.8 89 282.71 469.38 501.64 471.18 510.68"/><polygon class="cls-13" points="82.68 271.18 82.68 278.6 464.42 502.99 481.33 493.31 481.33 485.02 99.58 262.36 82.68 271.16 82.68 271.18"/><polygon class="cls-2" points="82.68 271.18 82.68 278.6 464.42 502.99 481.33 493.31 481.33 485.02 99.58 262.36 82.68 271.16 82.68 271.18"/><polyline class="cls-2" points="82.67 271.19 464.41 494.71 464.41 502.99"/><polyline class="cls-2" points="481.32 485.03 464.41 494.71 82.65 271.18"/><polygon class="cls-13" points="476.01 506.08 476.01 497.54 481.37 493.48 481.37 485.03 464.41 494.66 464.41 503.11 469.78 501.08 469.78 509.61 462.85 514.56 462.85 521.94 482.94 510.54 482.94 503.16 476.01 506.08"/><polygon class="cls-3" points="476.01 506.08 476.01 497.54 481.37 493.48 481.37 485.03 464.41 494.66 464.41 503.11 469.78 501.08 469.78 509.61 462.85 514.56 462.85 521.94 482.94 510.54 482.94 503.16 476.01 506.08"/><polyline class="cls-13" points="194.96 206.12 188.03 209.05 188.03 200.51 193.4 196.45 193.32 189.81 179.9 199.63 180.01 204 181.8 204.04 181.8 212.58 174.87 217.53 174.88 224.36"/><polyline class="cls-3" points="194.96 206.12 188.03 209.05 188.03 200.51 193.4 196.45 193.32 189.81 179.9 199.63 180.01 204 181.8 204.04 181.8 212.58 174.87 217.53 174.88 224.36"/><polyline class="cls-13" points="174.9 218.06 174.9 218.08 174.84 224.58 556.58 448.97 576.22 437.73 576.66 430.53 196.59 206.73"/><polyline class="cls-2" points="174.9 218.06 174.9 218.08 174.84 224.58 556.58 448.97 576.22 437.73 576.66 430.53 196.59 206.73"/><polyline class="cls-2" points="174.89 218.08 557.47 442.02 557.47 448.57"/><line class="cls-2" x1="557.47" y1="442.02" x2="174.88" y2="218.07"/><polygon class="cls-12" points="564.9 437.93 182.31 213.98 181.95 213.77 182.65 213.06 182.63 210.05 182.72 209.96 563.11 428.89 564.9 437.93"/><polygon class="cls-13" points="176.4 198.43 176.4 205.85 558.14 430.24 575.05 420.56 575.05 412.27 193.3 189.61 176.4 198.41 176.4 198.43"/><polygon class="cls-2" points="176.4 198.43 176.4 205.85 558.14 430.24 575.05 420.56 575.05 412.27 193.3 189.61 176.4 198.41 176.4 198.43"/><polyline class="cls-2" points="176.39 198.44 558.13 421.96 558.13 430.24"/><polyline class="cls-2" points="575.04 412.28 558.13 421.96 176.38 198.43"/><polygon class="cls-13" points="569.73 433.33 569.73 424.79 575.1 420.73 575.1 412.28 558.13 421.91 558.13 430.36 563.5 428.33 563.5 436.86 556.57 441.81 556.57 449.19 576.66 437.78 576.66 430.41 569.73 433.33"/><polygon class="cls-3" points="569.73 433.33 569.73 424.79 575.1 420.73 575.1 412.28 558.13 421.91 558.13 430.36 563.5 428.33 563.5 436.86 556.57 441.81 556.57 449.19 576.66 437.78 576.66 430.41 569.73 433.33"/><polyline class="cls-11" points="315.08 197.15 308.14 200.07 308.14 191.54 313.51 187.48 313.43 180.84 300.01 190.66 300.12 195.03 301.92 195.07 301.92 203.61 294.99 208.56 295 215.39"/><polyline class="cls-3" points="315.08 197.15 308.14 200.07 308.14 191.54 313.51 187.48 313.43 180.84 300.01 190.66 300.12 195.03 301.92 195.07 301.92 203.61 294.99 208.56 295 215.39"/><polyline class="cls-11" points="295.01 209.09 295.01 209.11 294.95 215.61 593.42 393.5 613.06 382.26 613.49 375.06 316.7 197.76"/><polyline class="cls-2" points="295.01 209.09 295.01 209.11 294.95 215.61 593.42 393.5 613.06 382.26 613.49 375.06 316.7 197.76"/><polyline class="cls-2" points="295 209.11 594.3 386.54 594.3 393.09"/><line class="cls-2" x1="594.3" y1="386.54" x2="294.99" y2="209.1"/><polygon class="cls-10" points="601.73 382.45 302.42 205.01 302.07 204.8 302.76 204.09 302.75 201.08 302.83 200.98 599.94 373.42 601.73 382.45"/><polygon class="cls-11" points="296.51 189.46 296.51 196.88 594.98 374.76 611.89 365.08 611.89 356.8 313.41 180.63 296.51 189.44 296.51 189.46"/><polygon class="cls-2" points="296.51 189.46 296.51 196.88 594.98 374.76 611.89 365.08 611.89 356.8 313.41 180.63 296.51 189.44 296.51 189.46"/><polyline class="cls-2" points="296.5 189.47 594.97 366.49 594.97 374.77"/><polyline class="cls-2" points="611.88 356.81 594.97 366.49 296.49 189.46"/><polygon class="cls-11" points="606.56 377.85 606.56 369.32 611.93 365.26 611.93 356.81 594.97 366.44 594.97 374.89 600.34 372.85 600.34 381.39 593.41 386.34 593.41 393.72 613.49 382.31 613.49 374.93 606.56 377.85"/><polygon class="cls-3" points="606.56 377.85 606.56 369.32 611.93 365.26 611.93 356.81 594.97 366.44 594.97 374.89 600.34 372.85 600.34 381.39 593.41 386.34 593.41 393.72 613.49 382.31 613.49 374.93 606.56 377.85"/><polygon class="cls-14" points="276.92 167.23 276.92 172.05 627.9 377.99 644.81 368.31 644.81 362.62 293.82 158.4 276.92 167.21 276.92 167.23"/><polygon class="cls-2" points="276.92 167.23 276.92 172.05 627.9 377.99 644.81 368.31 644.81 362.62 293.82 158.4 276.92 167.21 276.92 167.23"/><polyline class="cls-2" points="276.91 167.23 627.89 372.31 627.89 378"/><polyline class="cls-2" points="644.81 362.63 627.89 372.31 276.9 167.22"/><polygon class="cls-9" points="352.64 250 330.54 236.76 330.54 230.2 352.64 243.31 352.64 250"/><polygon class="cls-2" points="352.64 250 330.54 236.76 330.54 230.2 352.64 243.31 352.64 250"/><polygon class="cls-9" points="521.81 350.87 499.71 337.56 499.71 330.48 521.81 343.57 521.81 350.87"/><polygon class="cls-2" points="521.81 350.87 499.71 337.56 499.71 330.48 521.81 343.57 521.81 350.87"/><line class="cls-2" x1="457.56" y1="63.1" x2="457.56" y2="299.54"/><g class="cls-20"><path class="cls-15" d="M457.56,297.81c-.96,0-1.73,.78-1.73,1.73s.78,1.73,1.73,1.73,1.73-.77,1.73-1.73-.78-1.73-1.73-1.73"/></g><line class="cls-2" x1="542.56" y1="124.98" x2="542.56" y2="312.94"/><g class="cls-23"><path class="cls-15" d="M542.56,311.21c-.96,0-1.73,.78-1.73,1.73s.78,1.73,1.73,1.73,1.73-.78,1.73-1.73-.78-1.73-1.73-1.73"/></g><line class="cls-2" x1="156.14" y1="124.98" x2="156.14" y2="276.72"/><g class="cls-22"><path class="cls-15" d="M156.14,274.99c-.96,0-1.73,.78-1.73,1.73s.78,1.73,1.73,1.73,1.73-.78,1.73-1.73-.78-1.73-1.73-1.73"/></g><line class="cls-2" x1="95.85" y1="63.1" x2="95.85" y2="268.89"/><g class="cls-21"><path class="cls-15" d="M95.85,267.16c-.96,0-1.73,.78-1.73,1.73s.78,1.73,1.73,1.73,1.73-.78,1.73-1.73-.78-1.73-1.73-1.73"/></g><line class="cls-2" x1="336.58" y1="63.1" x2="336.58" y2="245.6"/><g class="cls-24"><path class="cls-15" d="M336.58,243.87c-.96,0-1.73,.78-1.73,1.73s.78,1.73,1.73,1.73,1.73-.78,1.73-1.73-.78-1.73-1.73-1.73"/></g><text class="cls-4" transform="translate(558.13 136.14)"><tspan class="cls-17" x="0" y="0">S</tspan><tspan x="7.24" y="0">a</tspan><tspan class="cls-18" x="15.64" y="0">f</tspan><tspan class="cls-34" x="19.43" y="0">e</tspan><tspan class="cls-5" x="27.03" y="0">t</tspan><tspan class="cls-7" x="31.12" y="0">y</tspan><tspan class="cls-27" x="37.33" y="0"> </tspan><tspan class="cls-29" x="41.22" y="0">c</tspan><tspan class="cls-39" x="47.51" y="0">o</tspan><tspan class="cls-37" x="55.16" y="0">v</tspan><tspan class="cls-41" x="61.38" y="0">e</tspan><tspan class="cls-42" x="69" y="0">r</tspan></text><text class="cls-4" transform="translate(473.14 73.02)"><tspan class="cls-6" x="0" y="0">C</tspan><tspan class="cls-19" x="8.65" y="0">o</tspan><tspan class="cls-43" x="16.43" y="0">n</tspan><tspan class="cls-33" x="23.71" y="0">t</tspan><tspan class="cls-43" x="27.53" y="0">a</tspan><tspan class="cls-28" x="35.86" y="0">c</tspan><tspan class="cls-40" x="42.56" y="0">t </tspan><tspan class="cls-19" x="50.11" y="0">r</tspan><tspan class="cls-33" x="54.63" y="0">a</tspan><tspan class="cls-25" x="62.94" y="0">i</tspan><tspan x="66.32" y="0">l</tspan></text><text class="cls-4" transform="translate(350.43 73.02)"><tspan class="cls-30" x="0" y="0">I</tspan><tspan x="3.79" y="0">n</tspan><tspan class="cls-30" x="11.14" y="0">s</tspan><tspan class="cls-45" x="16.91" y="0">ul</tspan><tspan class="cls-44" x="27.39" y="0">a</tspan><tspan class="cls-36" x="35.78" y="0">t</tspan><tspan class="cls-19" x="39.59" y="0">o</tspan><tspan x="47.37" y="0">r</tspan></text><text class="cls-4" transform="translate(111.43 73.02)"><tspan class="cls-18" x="0" y="0">R</tspan><tspan class="cls-43" x="7.92" y="0">u</tspan><tspan class="cls-31" x="14.96" y="0">n</tspan><tspan class="cls-36" x="22.22" y="0">ni</tspan><tspan class="cls-16" x="32.85" y="0">n</tspan><tspan class="cls-27" x="40.21" y="0">g </tspan><tspan class="cls-19" x="51.99" y="0">r</tspan><tspan class="cls-32" x="56.52" y="0">ai</tspan><tspan x="68.2" y="0">l</tspan></text><text class="cls-4" transform="translate(171.71 136.14)"><tspan class="cls-38" x="0" y="0">S</tspan><tspan class="cls-19" x="7.25" y="0">l</tspan><tspan class="cls-26" x="10.67" y="0">e</tspan><tspan class="cls-19" x="18.33" y="0">e</tspan><tspan class="cls-35" x="25.94" y="0">p</tspan><tspan class="cls-19" x="34.34" y="0">e</tspan><tspan x="41.96" y="0">r</tspan></text></svg>