<?xml version="1.0" encoding="UTF-8"?><svg id="_1-drilling-crane-rails" xmlns="http://www.w3.org/2000/svg" viewBox="0 0 400 200"><defs><style>.cls-1,.cls-2,.cls-3,.cls-4,.cls-5,.cls-6,.cls-7,.cls-8,.cls-9,.cls-10,.cls-11,.cls-12,.cls-13,.cls-14,.cls-15,.cls-16,.cls-17{fill:none;}.cls-2{stroke-width:.17px;}.cls-2,.cls-3,.cls-4,.cls-5,.cls-6,.cls-7,.cls-8,.cls-9,.cls-10,.cls-11,.cls-12,.cls-13,.cls-14,.cls-15,.cls-16,.cls-17{stroke:#231f20;}.cls-3{stroke-width:.45px;}.cls-4{stroke-width:.43px;}.cls-18{fill:#fff;}.cls-19{fill:#f1f0f0;}.cls-20{fill:#231f20;}.cls-5{stroke-width:.4px;}.cls-6{stroke-width:.53px;}.cls-7{stroke-width:.49px;}.cls-8{stroke-dasharray:0 0 8.41 2.52;}.cls-8,.cls-9{stroke-width:.42px;}.cls-9{stroke-dasharray:0 0 8.41 2.52;}.cls-10{stroke-width:.15px;}.cls-11{stroke-dasharray:0 0 8.32 2.5;stroke-width:.42px;}.cls-12,.cls-15{stroke-width:.78px;}.cls-13,.cls-16{stroke-width:.39px;}.cls-14{stroke-width:.38px;}.cls-15{stroke-linecap:round;stroke-linejoin:round;}.cls-16{stroke-dasharray:0 0 7.78 2.33;}.cls-17{stroke-width:.7px;}</style></defs><polyline class="cls-19" points="363.2 42.31 397.26 124.6 397.26 135.48 134.01 135.48 134.01 42.31 363.2 42.31"/><polygon class="cls-12" points="363.2 42.31 397.26 124.6 397.26 135.48 134.01 135.48 134.01 42.31 363.2 42.31"/><rect class="cls-1" x="2.09" y="40.28" width="395.83" height="119.43"/><g><path class="cls-18" d="M353.38,92.69c0,5.38,4.36,9.75,9.75,9.75s9.75-4.36,9.75-9.75-4.37-9.75-9.75-9.75-9.75,4.36-9.75,9.75"/><path class="cls-12" d="M353.38,92.69c0,5.38,4.36,9.75,9.75,9.75s9.75-4.36,9.75-9.75-4.37-9.75-9.75-9.75-9.75,4.36-9.75,9.75Z"/><path class="cls-18" d="M260.25,92.69c0,5.38,4.37,9.75,9.75,9.75s9.75-4.36,9.75-9.75-4.36-9.75-9.75-9.75-9.75,4.36-9.75,9.75"/><path class="cls-12" d="M260.25,92.69c0,5.38,4.37,9.75,9.75,9.75s9.75-4.36,9.75-9.75-4.36-9.75-9.75-9.75-9.75,4.36-9.75,9.75Z"/><path class="cls-18" d="M184.17,92.69c0,5.38,4.36,9.75,9.75,9.75s9.75-4.36,9.75-9.75-4.37-9.75-9.75-9.75-9.75,4.36-9.75,9.75"/><path class="cls-12" d="M184.17,92.69c0,5.38,4.36,9.75,9.75,9.75s9.75-4.36,9.75-9.75-4.37-9.75-9.75-9.75-9.75,4.36-9.75,9.75Z"/><line class="cls-17" x1="134.55" y1="62.35" x2="371.75" y2="62.35"/><line class="cls-12" x1="397.8" y1="125.19" x2="135.09" y2="125.19"/><path class="cls-13" d="M193.95,133.1v26.49m76.05-26.39v26.49m92.84-26.47v26.49M190.3,93.08h7.24m-3.62-3.62v7.24m-5.14-3.62h-27.61m66.91,0h-27.61m-6.54-6.93v-8.5m0,21.77v27.61m72.35-33.96h7.24m-3.62-3.62v7.24m-5.14-3.62h-27.62m66.91,0h-27.62m-6.54-6.93v-8.5m0,21.77v27.61m89.35-33.96h7.24m-3.62-3.62v7.24m-5.14-3.62h-27.61m66.91,0h-27.61m-6.54-6.93v-8.5m0,21.77v27.61"/><line class="cls-11" x1="182.82" y1="62.57" x2="182.82" y2="92.86"/><line class="cls-9" x1="203.76" y1="61.91" x2="203.76" y2="92.86"/><line class="cls-13" x1="133.81" y1="132.84" x2="133.81" y2="159.33"/><path class="cls-20" d="M356.32,147.48c-2.18-.66-3.6-1.27-5.35-1.97v6.66c.63-.3,3.17-1.31,5.35-1.97,2.34-.7,4.45-1.19,5.83-1.36-1.37-.17-3.49-.65-5.83-1.36"/><line class="cls-14" x1="353.2" y1="148.83" x2="324.23" y2="148.83"/><path class="cls-20" d="M354.73,148.17c-1.07-.32-1.77-.62-2.63-.97v3.27c.31-.15,1.56-.64,2.63-.97,1.15-.34,2.19-.58,2.86-.67-.68-.08-1.72-.32-2.86-.67"/><path class="cls-20" d="M263.82,147.71c-2.18-.66-3.6-1.27-5.35-1.97v6.66c.63-.3,3.17-1.31,5.35-1.97,2.33-.71,4.45-1.19,5.82-1.36-1.37-.17-3.49-.65-5.82-1.36"/><line class="cls-4" x1="260.71" y1="149.06" x2="238.45" y2="149.06"/><path class="cls-20" d="M262.44,148.3c-1.21-.37-2.01-.7-2.98-1.09v3.71c.35-.17,1.77-.73,2.98-1.1,1.3-.39,2.48-.66,3.24-.76-.76-.1-1.94-.37-3.24-.76"/><path class="cls-20" d="M187.09,147.61c-2.18-.66-3.6-1.27-5.35-1.97v6.66c.63-.3,3.17-1.31,5.35-1.97,2.33-.71,4.45-1.19,5.82-1.36-1.37-.17-3.49-.65-5.82-1.36"/><line class="cls-6" x1="183.97" y1="148.97" x2="170.46" y2="148.97"/><path class="cls-20" d="M186.08,148.05c-1.47-.44-2.43-.86-3.62-1.33v4.5c.42-.2,2.14-.89,3.62-1.33,1.58-.47,3.01-.8,3.94-.92-.93-.12-2.36-.44-3.94-.92"/><path class="cls-20" d="M277.14,150.27c2.18,.66,3.6,1.27,5.35,1.97v-6.66c-.63,.3-3.17,1.31-5.35,1.97-2.33,.7-4.45,1.19-5.83,1.36,1.37,.17,3.49,.65,5.83,1.36"/><line class="cls-5" x1="280.26" y1="148.92" x2="310.74" y2="148.92"/><path class="cls-20" d="M278.65,149.62c1.13,.34,1.86,.65,2.76,1.02v-3.44c-.32,.15-1.64,.68-2.76,1.02-1.21,.37-2.3,.62-3.01,.7,.71,.09,1.8,.34,3.01,.7"/><path class="cls-20" d="M201.36,150.23c2.18,.66,3.6,1.27,5.35,1.97v-6.66c-.63,.3-3.17,1.31-5.35,1.97-2.33,.71-4.45,1.19-5.82,1.36,1.37,.17,3.49,.65,5.82,1.36"/><line class="cls-3" x1="204.48" y1="148.88" x2="225.27" y2="148.88"/><path class="cls-20" d="M202.67,149.66c1.26,.38,2.08,.73,3.09,1.14v-3.85c-.36,.17-1.83,.76-3.09,1.14-1.35,.41-2.57,.69-3.37,.78,.79,.1,2.02,.38,3.37,.78"/><path class="cls-20" d="M141.15,150.32c2.18,.66,3.6,1.27,5.35,1.97v-6.66c-.63,.3-3.17,1.31-5.35,1.97-2.33,.71-4.45,1.19-5.82,1.36,1.37,.17,3.49,.65,5.82,1.36"/><line class="cls-7" x1="144.27" y1="148.97" x2="157.39" y2="148.97"/><path class="cls-20" d="M142.33,149.81c1.36,.41,2.25,.79,3.34,1.23v-4.16c-.39,.19-1.98,.82-3.34,1.23-1.46,.44-2.78,.74-3.64,.85,.86,.11,2.18,.41,3.64,.85"/><path class="cls-20" d="M162.69,148.22l.77-2.29c.15-.48,.28-.97,.39-1.43h.04c.12,.46,.23,.93,.4,1.45l.79,2.28h-2.39m2.6,.8l.84,2.49h1.09l-2.7-7.92h-1.24l-2.69,7.92h1.06l.82-2.49h2.81Z"/><path class="cls-20" d="M210.59,71.16c2.18,.66,3.6,1.27,5.35,1.97v-6.66c-.63,.3-3.17,1.31-5.35,1.97-2.34,.7-4.45,1.19-5.83,1.36,1.37,.17,3.49,.65,5.83,1.36"/><line class="cls-2" x1="213.7" y1="69.81" x2="218.06" y2="69.81"/><path class="cls-20" d="M213.02,70.1c.47,.14,.78,.28,1.16,.43v-1.45c-.14,.06-.69,.29-1.16,.43-.51,.15-.97,.26-1.27,.3,.3,.04,.76,.14,1.27,.3"/><path class="cls-20" d="M176.12,68.46c-2.18-.66-3.6-1.27-5.35-1.97v6.66c.62-.3,3.17-1.31,5.35-1.97,2.33-.71,4.45-1.19,5.82-1.36-1.37-.17-3.49-.65-5.82-1.36"/><line class="cls-10" x1="173" y1="69.81" x2="169.05" y2="69.81"/><path class="cls-20" d="M173.59,69.55c-.41-.12-.68-.24-1.01-.37v1.26c.12-.06,.6-.25,1.01-.37,.44-.13,.84-.22,1.1-.26-.26-.03-.66-.12-1.1-.26"/><path class="cls-20" d="M192.31,65.29c.27-.06,.67-.11,1.2-.11,2.16,0,3.22,1.16,3.21,3.05,0,2.14-1.19,3.37-3.37,3.36-.4,0-.78,0-1.03-.05v-6.26m-1.03,7.04c.53,.07,1.13,.1,1.87,.1,1.54,0,2.76-.4,3.51-1.14,.73-.73,1.14-1.79,1.14-3.08s-.41-2.21-1.13-2.86c-.69-.65-1.74-.97-3.21-.97-.81,0-1.55,.07-2.19,.17v7.79Z"/><polyline class="cls-20" points="114.69 114.85 111.62 114.85 111.62 117.71 115.05 117.71 115.05 118.57 110.59 118.57 110.59 110.64 114.88 110.64 114.88 111.5 111.62 111.5 111.62 114.01 114.69 114.01 114.69 114.85"/><path class="cls-20" d="M230.16,144.39c.17-.04,.44-.07,.9-.07,1.03,0,1.73,.38,1.73,1.29,0,.76-.64,1.34-1.7,1.34h-.93v-2.56m-1.02,7.1c.34,.05,.88,.09,1.59,.09,1.29,0,2.19-.23,2.73-.74,.41-.39,.68-.9,.68-1.59,0-1.18-.88-1.8-1.63-1.97v-.04c.82-.3,1.34-.96,1.34-1.74,0-.62-.26-1.09-.67-1.4-.48-.4-1.14-.58-2.16-.58-.71,0-1.42,.07-1.87,.18v7.78Zm1.02-3.77h.85c1.12,0,2.04,.46,2.04,1.53,0,1.15-.97,1.54-2.03,1.54-.36,0-.65-.01-.86-.05v-3.02Z"/><path class="cls-20" d="M320.1,152.57c-.36,.19-1.13,.38-2.09,.38-2.23,0-3.9-1.41-3.9-4.02s1.68-4.16,4.14-4.16c.97,0,1.61,.21,1.88,.35l-.26,.83c-.38-.19-.93-.33-1.59-.33-1.86,0-3.09,1.19-3.09,3.27,0,1.95,1.12,3.18,3.03,3.18,.64,0,1.27-.13,1.68-.33l.2,.82"/></g><line class="cls-16" x1="95.58" y1="136.27" x2="134.07" y2="136.27"/><line class="cls-8" x1="2.09" y1="93.36" x2="155.82" y2="93.36"/><rect class="cls-1" x="2.09" y="40.28" width="395.83" height="119.43"/><g><path class="cls-19" d="M101.56,133.06v-4.82c0-.62,.3-3.31-.43-3.53-2.96-.89-5.96-1.52-8.99-2.17-2.53-.54-5.08-1.01-7.61-1.54-2.72-.57-5.84-1-8.37-2.18-1.38-.65-2.68-1.25-3.95-2.09-.41-.27-1.44-.7-1.68-1.14-.43-.76-.85-1.52-1.28-2.28-1.4-2.5-1.81-5.64-2.36-8.42-1.12-5.61-.82-11.58-.44-17.24,.17-2.57,.36-5.19,.89-7.71,.3-1.44,.48-2.86,1.1-4.19,.67-1.43,1.36-2.66,2.21-3.98,2.95-4.56,7.96-7.32,12.8-9.49,2.41-1.08,4.26-2.48,3.95-5.37-.13-1.18-.51-2.37-.78-3.52-.67-2.89-1.36-5.72-3.01-8.2-.3-.44-1.07-.7-1.51-.97-.55-.32-1.27-.96-1.9-1.11-1.18-.28-2.38-.66-3.58-.81-3.11-.37-6.25-.91-9.38-1.12-5.57-.38-11.25-.23-16.83-.14-6.07,.1-12.05,.25-18.05,1.3-1.2,.21-2.67,.41-3.73,1.03-.81,.48-1.62,.95-2.43,1.43-.63,.37-.89,.94-1.29,1.55-.81,1.22-1.1,2.86-1.57,4.24-.45,1.37-.68,2.83-1,4.23-.26,1.11-.58,2.19-.45,3.34,.35,2.96,3.22,3.79,5.57,4.85,2.21,1,4.2,2.33,6.2,3.7,2.46,1.68,4.18,3.83,5.78,6.3,1.64,2.53,2.14,5.12,2.74,8.03,.52,2.48,.56,5.16,.73,7.7,.22,3.23,.23,6.32,.12,9.56-.19,5.53-.98,11.43-3.72,16.3-1.15,2.04-4.29,3.69-6.53,4.35-3,.87-5.94,1.61-9,2.25-2.64,.55-5.29,1.05-7.92,1.62-1.46,.31-2.93,.61-4.38,.97-.64,.16-1.28,.31-1.91,.5-1.11,.33-1.37,.26-1.79,1.33-.16,.4-.03,1-.03,1.45v2.63c0,1.44,.05,2.87-.08,4.3-.1,1.06-.24,1.11,.67,1.66,.41,.25,1.09,.31,1.57,.31H98.03c.46,0,.94,.03,1.4,0,.93-.06,1.49-.27,2.27-.74,.23-.14-.11-1.84-.14-2.16"/><path class="cls-15" d="M101.56,133.06v-4.82c0-.62,.3-3.31-.43-3.53-2.96-.89-5.96-1.52-8.99-2.17-2.53-.54-5.08-1.01-7.61-1.54-2.72-.57-5.84-1-8.37-2.18-1.38-.65-2.68-1.25-3.95-2.09-.41-.27-1.44-.7-1.68-1.14-.43-.76-.85-1.52-1.28-2.28-1.4-2.5-1.81-5.64-2.36-8.42-1.12-5.61-.82-11.58-.44-17.24,.17-2.57,.36-5.19,.89-7.71,.3-1.44,.48-2.86,1.1-4.19,.67-1.43,1.36-2.66,2.21-3.98,2.95-4.56,7.96-7.32,12.8-9.49,2.41-1.08,4.26-2.48,3.95-5.37-.13-1.18-.51-2.37-.78-3.52-.67-2.89-1.36-5.72-3.01-8.2-.3-.44-1.07-.7-1.51-.97-.55-.32-1.27-.96-1.9-1.11-1.18-.28-2.38-.66-3.58-.81-3.11-.37-6.25-.91-9.38-1.12-5.57-.38-11.25-.23-16.83-.14-6.07,.1-12.05,.25-18.05,1.3-1.2,.21-2.67,.41-3.73,1.03-.81,.48-1.62,.95-2.43,1.43-.63,.37-.89,.94-1.29,1.55-.81,1.22-1.1,2.86-1.57,4.24-.45,1.37-.68,2.83-1,4.23-.26,1.11-.58,2.19-.45,3.34,.35,2.96,3.22,3.79,5.57,4.85,2.21,1,4.2,2.33,6.2,3.7,2.46,1.68,4.18,3.83,5.78,6.3,1.64,2.53,2.14,5.12,2.74,8.03,.52,2.48,.56,5.16,.73,7.7,.22,3.23,.23,6.32,.12,9.56-.19,5.53-.98,11.43-3.72,16.3-1.15,2.04-4.29,3.69-6.53,4.35-3,.87-5.94,1.61-9,2.25-2.64,.55-5.29,1.05-7.92,1.62-1.46,.31-2.93,.61-4.38,.97-.64,.16-1.28,.31-1.91,.5-1.11,.33-1.37,.26-1.79,1.33-.16,.4-.03,1-.03,1.45v2.63c0,1.44,.05,2.87-.08,4.3-.1,1.06-.24,1.11,.67,1.66,.41,.25,1.09,.31,1.57,.31H98.03c.46,0,.94,.03,1.4,0,.93-.06,1.49-.27,2.27-.74,.23-.14-.11-1.84-.14-2.16"/><path class="cls-20" d="M111.61,100.07c-.66,2.18-1.27,3.6-1.97,5.35h6.66c-.3-.63-1.31-3.17-1.97-5.35-.7-2.33-1.19-4.45-1.36-5.82-.17,1.37-.65,3.49-1.36,5.82"/><line class="cls-13" x1="112.96" y1="103.19" x2="112.96" y2="107.97"/><path class="cls-20" d="M112.29,101.63c-.33,1.09-.63,1.8-.99,2.67h3.33c-.15-.31-.65-1.58-.99-2.67-.35-1.17-.59-2.23-.68-2.91-.09,.69-.33,1.75-.68,2.91"/><path class="cls-20" d="M114.32,129.85c.66-2.18,1.27-3.6,1.97-5.35h-6.66c.3,.63,1.31,3.17,1.97,5.35,.71,2.34,1.19,4.45,1.36,5.83,.17-1.37,.65-3.49,1.36-5.83"/><line class="cls-13" x1="112.96" y1="126.73" x2="112.96" y2="121.79"/><path class="cls-20" d="M113.64,128.29c.33-1.09,.63-1.8,.98-2.68h-3.33c.15,.31,.65,1.59,.98,2.68,.35,1.17,.59,2.23,.68,2.91,.09-.69,.33-1.75,.68-2.91"/></g></svg>