<?xml version="1.0" encoding="UTF-8"?><svg id="_1-drilling-crane-rails" xmlns="http://www.w3.org/2000/svg" viewBox="0 0 400 200"><defs><style>.cls-1{stroke-dasharray:0 0 0 0 0 0 11.26 3.38;}.cls-1,.cls-2,.cls-3,.cls-4,.cls-5{fill:none;stroke:#221f1f;stroke-width:.72px;}.cls-2{stroke-dasharray:0 0 0 0 0 0 12.18 3.65;}.cls-6{fill:#f2f0f0;}.cls-7{fill:#fff;}.cls-8{fill:#221f1f;}.cls-3{stroke-dasharray:0 0 0 0 0 0 12.04 3.61;}.cls-4{stroke-dasharray:0 0 0 0 0 0 12.17 3.65;}</style></defs><polyline class="cls-6" points="358.37 37.17 396.44 129.19 396.44 141.35 162.09 141.35 162.09 37.17 358.37 37.17"/><path class="cls-6" d="M119.15,131.52c-17.22,1.51-31.06-1.05-48.15-4.22-5.87-1.09-4.65-36.55-4.27-41.8,.16-2.27,1.64-18.87,2.95-19.22,5.11-1.36,21.7-2.59,20.73-8.43-1.27-7.61-.14-17.51-7.22-21.37-6.41-3.49-14.24-4.91-21.6-4.43-7.35-.5-15.19,.93-21.6,4.43-7.08,3.87-5.95,13.76-7.22,21.37-.97,5.83,15.61,7.05,20.73,8.43,1.31,.35,2.79,16.96,2.95,19.22,.37,5.25,1.59,40.71-4.27,41.8-17.09,3.18-30.93,5.73-48.15,4.22,0,4.73-2.54,10.93,2.96,11.07,6.11,.16,12.21,.31,18.32,.47,11.85,.3,23.71,.6,35.55,.92v.04c.24,0,.48-.01,.72-.01s.48,0,.72,.01v-.04c11.85-.3,23.71-.6,35.55-.92,6.11-.16,12.21-.31,18.32-.47,5.5-.14,2.95-6.33,2.95-11.07"/><g><polygon class="cls-5" points="358.47 37.17 396.54 129.19 396.54 141.35 162.09 141.35 162.09 37.17 358.47 37.17"/><path class="cls-7" d="M303.25,93.49c0,6.01,4.89,10.9,10.9,10.9s10.9-4.87,10.9-10.9-4.87-10.9-10.9-10.9-10.9,4.87-10.9,10.9"/><path class="cls-5" d="M303.25,93.49c0,6.01,4.89,10.9,10.9,10.9s10.9-4.87,10.9-10.9-4.87-10.9-10.9-10.9-10.9,4.87-10.9,10.9Z"/><path class="cls-7" d="M218.18,93.49c0,6.01,4.87,10.9,10.9,10.9s10.9-4.87,10.9-10.9-4.89-10.9-10.9-10.9-10.9,4.87-10.9,10.9"/><path class="cls-5" d="M218.18,93.49c0,6.01,4.87,10.9,10.9,10.9s10.9-4.87,10.9-10.9-4.89-10.9-10.9-10.9-10.9,4.87-10.9,10.9Z"/><line class="cls-5" x1="162.71" y1="59.58" x2="368.04" y2="59.58"/><line class="cls-5" x1="396.65" y1="129.83" x2="163.31" y2="129.83"/><path class="cls-5" d="M229.12,138.68v29.62m85.03-29.5v29.62m-89.11-74.47h8.1m-4.05-4.05v8.1m-5.75-4.05h-30.87m74.81,0h-30.87m-7.31-7.76v-9.5m0,24.35v30.87m80.91-37.96h8.09m-4.05-4.05v8.1m-5.75-4.05h-30.87m74.81,0h-30.87m-7.31-7.76v-9.5m0,24.35v30.87"/><line class="cls-3" x1="216.69" y1="59.81" x2="216.69" y2="93.69"/><line class="cls-4" x1="240.09" y1="59.09" x2="240.09" y2="93.69"/><line class="cls-5" x1="161.87" y1="138.4" x2="161.87" y2="168.02"/><path class="cls-8" d="M307.25,155.02c-2.44-.73-4.02-1.42-5.98-2.2v7.44c.69-.33,3.54-1.47,5.98-2.2,2.61-.79,4.98-1.32,6.51-1.52-1.53-.2-3.91-.73-6.51-1.52"/><line class="cls-5" x1="303.76" y1="156.52" x2="278.88" y2="156.52"/><path class="cls-8" d="M305.7,155.69c-1.35-.41-2.24-.79-3.33-1.22v4.14c.39-.18,1.98-.81,3.33-1.23,1.45-.43,2.78-.73,3.63-.85-.85-.1-2.18-.41-3.63-.85"/><path class="cls-8" d="M221.46,154.91c-2.44-.73-4.02-1.42-5.99-2.2v7.44c.69-.33,3.54-1.47,5.99-2.2,2.61-.79,4.98-1.32,6.51-1.52-1.53-.2-3.91-.73-6.51-1.52"/><line class="cls-5" x1="217.97" y1="156.43" x2="202.86" y2="156.43"/><path class="cls-8" d="M220.32,155.41c-1.65-.5-2.73-.96-4.05-1.49v5.03c.47-.22,2.4-1,4.05-1.49,1.77-.54,3.37-.9,4.4-1.02-1.04-.13-2.63-.5-4.4-1.02"/><path class="cls-8" d="M237.4,157.83c2.44,.73,4.02,1.42,5.98,2.2v-7.44c-.69,.33-3.54,1.47-5.98,2.2-2.61,.79-4.98,1.32-6.51,1.52,1.53,.2,3.91,.73,6.51,1.52"/><line class="cls-5" x1="240.89" y1="156.33" x2="264.14" y2="156.33"/><path class="cls-8" d="M238.87,157.21c1.42,.42,2.33,.81,3.46,1.27v-4.3c-.41,.2-2.04,.85-3.46,1.27-1.51,.46-2.88,.77-3.76,.88,.89,.1,2.25,.42,3.76,.88"/><path class="cls-8" d="M170.09,157.94c2.44,.73,4.02,1.42,5.98,2.2v-7.44c-.69,.33-3.54,1.47-5.98,2.2-2.61,.79-4.98,1.32-6.51,1.52,1.53,.2,3.91,.73,6.51,1.52"/><line class="cls-5" x1="173.57" y1="156.43" x2="188.24" y2="156.43"/><path class="cls-8" d="M171.4,157.38c1.52,.46,2.52,.89,3.73,1.38v-4.65c-.43,.21-2.21,.92-3.73,1.38-1.62,.5-3.11,.83-4.08,.96,.96,.12,2.44,.46,4.08,.94"/><path class="cls-8" d="M194.17,155.59l.86-2.57c.17-.54,.31-1.09,.43-1.6h.04c.13,.51,.26,1.04,.45,1.61l.88,2.56h-2.66m2.91,.89l.94,2.79h1.22l-3.03-8.86h-1.38l-3.01,8.86h1.18l.92-2.79h3.16Z"/><path class="cls-8" d="M247.72,69.43c2.44,.73,4.02,1.42,5.99,2.2v-7.44c-.71,.33-3.54,1.47-5.99,2.2-2.61,.79-4.98,1.32-6.51,1.52,1.53,.2,3.91,.73,6.51,1.52"/><line class="cls-5" x1="251.2" y1="67.93" x2="256.08" y2="67.93"/><path class="cls-8" d="M250.44,68.25c.54,.16,.88,.3,1.3,.48v-1.62c-.16,.07-.77,.31-1.3,.48-.58,.17-1.09,.29-1.42,.33,.33,.04,.85,.16,1.42,.33"/><path class="cls-8" d="M209.18,66.41c-2.44-.73-4.02-1.42-5.98-2.2v7.44c.69-.33,3.54-1.47,5.98-2.2,2.61-.79,4.98-1.32,6.51-1.52-1.53-.2-3.91-.73-6.51-1.52"/><line class="cls-5" x1="205.71" y1="67.93" x2="201.28" y2="67.93"/><path class="cls-8" d="M206.36,67.64c-.46-.14-.76-.26-1.13-.42v1.4c.13-.07,.67-.28,1.13-.42,.5-.14,.94-.25,1.23-.29-.29-.04-.73-.14-1.23-.29"/><path class="cls-8" d="M227.29,62.87c.3-.07,.75-.12,1.34-.12,2.41,0,3.6,1.3,3.59,3.42,0,2.4-1.32,3.77-3.77,3.76-.45,0-.86,0-1.15-.05v-7m-1.15,7.88c.59,.08,1.26,.1,2.08,.1,1.73,0,3.09-.45,3.93-1.27,.81-.81,1.27-1.99,1.27-3.45s-.46-2.46-1.26-3.2c-.77-.72-1.94-1.09-3.59-1.09-.9,0-1.73,.08-2.45,.18v8.71h.01Z"/><polyline class="cls-8" points="140.5 118.29 137.07 118.29 137.07 121.47 140.9 121.47 140.9 122.44 135.91 122.44 135.91 113.58 140.71 113.58 140.71 114.54 137.07 114.54 137.07 117.33 140.5 117.33 140.5 118.29"/><path class="cls-8" d="M269.61,151.31c.18-.04,.48-.08,1.01-.08,1.15,0,1.93,.42,1.93,1.44,0,.85-.71,1.49-1.9,1.49h-1.04v-2.87m-1.14,7.94c.38,.05,.98,.1,1.77,.1,1.44,0,2.44-.26,3.05-.83,.46-.43,.76-1.01,.76-1.77,0-1.31-.98-2-1.82-2.21v-.04c.92-.33,1.49-1.07,1.49-1.94,0-.69-.29-1.22-.75-1.56-.54-.45-1.27-.64-2.42-.64-.79,0-1.59,.08-2.08,.2v8.7h0Zm1.14-4.23h.94c1.24,0,2.28,.51,2.28,1.7,0,1.28-1.09,1.72-2.27,1.72-.41,0-.72-.01-.96-.05v-3.38h0Z"/><line class="cls-1" x1="119.14" y1="142.23" x2="162.16" y2="142.23"/><line class="cls-2" x1="14.59" y1="94.25" x2="186.49" y2="94.25"/><path class="cls-8" d="M137.05,101.76c-.73,2.44-1.42,4.02-2.2,5.99h7.44c-.33-.69-1.47-3.54-2.2-5.99-.79-2.61-1.32-4.98-1.52-6.51-.2,1.53-.73,3.91-1.52,6.51"/><line class="cls-5" x1="138.57" y1="105.25" x2="138.57" y2="110.59"/><path class="cls-8" d="M137.81,103.5c-.37,1.22-.71,2.02-1.1,2.99h3.72c-.17-.35-.73-1.77-1.1-2.99-.39-1.31-.67-2.49-.76-3.26-.09,.77-.37,1.95-.76,3.26"/><path class="cls-8" d="M140.08,135.05c.73-2.44,1.42-4.02,2.2-5.99h-7.44c.33,.69,1.47,3.54,2.2,5.99,.79,2.61,1.32,4.98,1.52,6.51,.2-1.53,.73-3.91,1.52-6.51"/><line class="cls-5" x1="138.57" y1="131.56" x2="138.57" y2="126.03"/><path class="cls-8" d="M139.33,133.3c.37-1.22,.71-2.02,1.1-2.99h-3.72c.17,.35,.73,1.77,1.1,2.99,.39,1.31,.67,2.49,.76,3.26,.09-.77,.37-1.95,.76-3.26"/><path class="cls-5" d="M119.15,131.52c-17.22,1.51-31.06-1.05-48.15-4.22-5.87-1.09-4.65-36.55-4.27-41.8,.16-2.27,1.64-18.87,2.95-19.22,5.11-1.36,21.7-2.59,20.73-8.43-1.27-7.61-.14-17.51-7.22-21.37-6.41-3.49-14.24-4.91-21.6-4.43-7.35-.5-15.19,.93-21.6,4.43-7.08,3.87-5.95,13.76-7.22,21.37-.97,5.83,15.61,7.05,20.73,8.43,1.31,.35,2.79,16.96,2.95,19.22,.37,5.25,1.59,40.71-4.27,41.8-17.09,3.18-30.93,5.73-48.15,4.22,0,4.73-2.54,10.93,2.96,11.07,6.11,.16,12.21,.31,18.32,.47,11.85,.3,23.71,.6,35.55,.92v.04c.24,0,.48-.01,.72-.01s.48,0,.72,.01v-.04c11.85-.3,23.71-.6,35.55-.92,6.11-.16,12.21-.31,18.32-.47,5.5-.14,2.95-6.33,2.95-11.07h.01Z"/></g></svg>