<?xml version="1.0" encoding="utf-8"?>
<!-- Generator: Adobe Illustrator 27.0.1, SVG Export Plug-In . SVG Version: 6.00 Build 0)  -->
<svg version="1.1" id="_-drilling-crane-rails" xmlns="http://www.w3.org/2000/svg" xmlns:xlink="http://www.w3.org/1999/xlink"
	 x="0px" y="0px" viewBox="0 0 400 200" style="enable-background:new 0 0 400 200;" xml:space="preserve">
<style type="text/css">
	.st0{fill:#F1F0F0;}
	.st1{fill:none;stroke:#221F1F;stroke-width:0.72;}
	.st2{fill:#FFFFFF;}
	.st3{fill:none;stroke:#221F1F;stroke-width:0.72;stroke-dasharray:0,0,12.04,3.61;}
	.st4{fill:none;stroke:#221F1F;stroke-width:0.72;stroke-dasharray:0,0,12.17,3.65;}
	.st5{fill:#221F1F;}
	.st6{fill:none;stroke:#221F1F;stroke-width:0.72;stroke-dasharray:0,0,11.26,3.38;}
	.st7{fill:none;stroke:#221F1F;stroke-width:0.72;stroke-dasharray:0,0,12.18,3.65;}
</style>
<polyline class="st0" points="320.9,51.5 349.9,121.8 349.9,131.1 171.1,131.1 171.1,51.5 320.9,51.5 "/>
<path class="st0" d="M138.3,123.6c-13.1,1.2-23.7-0.8-36.7-3.2c-4.5-0.8-3.6-27.9-3.3-31.9c0.1-1.7,1.2-14.4,2.2-14.7
	c3.9-1,16.6-2,15.8-6.4c-1-5.8-0.1-13.4-5.5-16.3c-4.9-2.7-10.9-3.8-16.5-3.4c-5.6-0.4-11.6,0.7-16.5,3.4c-5.4,3-4.5,10.5-5.5,16.3
	c-0.7,4.4,11.9,5.4,15.8,6.4c1,0.3,2.1,12.9,2.2,14.7c0.3,4,1.2,31.1-3.3,31.9c-13,2.4-23.6,4.4-36.7,3.2c0,3.6-1.9,8.3,2.3,8.4
	c4.7,0.1,9.3,0.2,14,0.4c9,0.2,18.1,0.5,27.1,0.7v0c0.2,0,0.4,0,0.6,0s0.4,0,0.6,0v0c9-0.2,18.1-0.5,27.1-0.7
	c4.7-0.1,9.3-0.2,14-0.4C140.2,131.9,138.3,127.2,138.3,123.6"/>
<g>
	<polygon class="st1" points="320.9,51.5 350,121.8 350,131.1 171.1,131.1 171.1,51.5 	"/>
	<path class="st2" d="M278.8,94.5c0,4.6,3.7,8.3,8.3,8.3s8.3-3.7,8.3-8.3s-3.7-8.3-8.3-8.3S278.8,89.9,278.8,94.5"/>
	<path class="st1" d="M278.8,94.5c0,4.6,3.7,8.3,8.3,8.3s8.3-3.7,8.3-8.3s-3.7-8.3-8.3-8.3S278.8,89.9,278.8,94.5z"/>
	<path class="st2" d="M213.9,94.5c0,4.6,3.7,8.3,8.3,8.3s8.3-3.7,8.3-8.3s-3.7-8.3-8.3-8.3S213.9,89.9,213.9,94.5"/>
	<path class="st1" d="M213.9,94.5c0,4.6,3.7,8.3,8.3,8.3s8.3-3.7,8.3-8.3s-3.7-8.3-8.3-8.3S213.9,89.9,213.9,94.5z"/>
	<line class="st1" x1="171.5" y1="68.7" x2="328.2" y2="68.7"/>
	<line class="st1" x1="350.1" y1="122.3" x2="172" y2="122.3"/>
	<path class="st1" d="M222.2,129v22.6 M287.1,129.1v22.6 M219.1,94.9h6.2 M222.2,91.8V98 M217.8,94.9h-23.6 M251.3,94.9h-23.6
		 M222.2,89v-7.2 M222.2,100.3v23.6 M283.9,94.9h6.2 M287,91.8V98 M282.6,94.9h-23.6 M316.2,94.9h-23.6 M287,89v-7.2 M287,100.3
		v23.6"/>
	<line class="st3" x1="212.7" y1="68.8" x2="212.7" y2="94.7"/>
	<line class="st4" x1="230.6" y1="68.3" x2="230.6" y2="94.7"/>
	<line class="st1" x1="170.9" y1="128.8" x2="170.9" y2="151.4"/>
	<path class="st5" d="M281.8,141.5c-1.9-0.6-3.1-1.1-4.6-1.7v5.7c0.5-0.2,2.7-1.1,4.6-1.7c2-0.6,3.8-1,5-1.2
		C285.6,142.5,283.8,142.1,281.8,141.5"/>
	<line class="st1" x1="279.2" y1="142.6" x2="260.2" y2="142.6"/>
	<path class="st5" d="M280.7,142c-1-0.3-1.7-0.6-2.5-0.9v3.2c0.3-0.1,1.5-0.6,2.5-0.9c1.1-0.3,2.1-0.6,2.8-0.6
		C282.8,142.6,281.8,142.3,280.7,142"/>
	<path class="st5" d="M216.4,141.4c-1.9-0.6-3.1-1.1-4.6-1.7v5.7c0.5-0.2,2.7-1.1,4.6-1.7c2-0.6,3.8-1,5-1.2
		C220.2,142.4,218.4,142,216.4,141.4"/>
	<line class="st1" x1="213.7" y1="142.6" x2="202.2" y2="142.6"/>
	<path class="st5" d="M215.5,141.8c-1.3-0.4-2.1-0.7-3.1-1.1v3.8c0.4-0.2,1.8-0.8,3.1-1.1c1.4-0.4,2.6-0.7,3.4-0.8
		C218.1,142.5,216.9,142.2,215.5,141.8"/>
	<path class="st5" d="M228.5,143.6c1.9,0.6,3.1,1.1,4.6,1.7v-5.7c-0.5,0.2-2.7,1.1-4.6,1.7c-2,0.6-3.8,1-5,1.2
		C224.7,142.6,226.5,143,228.5,143.6"/>
	<line class="st1" x1="231.2" y1="142.5" x2="248.9" y2="142.5"/>
	<path class="st5" d="M229.7,143.1c1.1,0.3,1.8,0.6,2.6,1v-3.3c-0.3,0.1-1.6,0.6-2.6,1c-1.1,0.4-2.2,0.6-2.9,0.7
		C227.5,142.6,228.5,142.8,229.7,143.1"/>
	<path class="st5" d="M177.2,143.7c1.9,0.6,3.1,1.1,4.6,1.7v-5.7c-0.5,0.2-2.7,1.1-4.6,1.7c-2,0.6-3.8,1-5,1.2
		C173.4,142.7,175.2,143.1,177.2,143.7"/>
	<line class="st1" x1="179.8" y1="142.6" x2="191" y2="142.6"/>
	<path class="st5" d="M178.2,143.3c1.2,0.4,1.9,0.7,2.9,1.1v-3.6c-0.3,0.2-1.7,0.7-2.9,1.1c-1.2,0.4-2.4,0.6-3.1,0.7
		C175.8,142.6,176.9,142.9,178.2,143.3"/>
	<path class="st5" d="M195.6,141.9l0.7-2c0.1-0.4,0.2-0.8,0.3-1.2h0c0.1,0.4,0.2,0.8,0.3,1.2l0.7,1.9L195.6,141.9 M197.8,142.6
		l0.7,2.1h0.9l-2.3-6.8h-1.1l-2.3,6.8h0.9l0.7-2.1H197.8L197.8,142.6z"/>
	<path class="st5" d="M236.4,76.2c1.9,0.6,3.1,1.1,4.6,1.7v-5.7c-0.5,0.2-2.7,1.1-4.6,1.7c-2,0.6-3.8,1-5,1.2
		C232.6,75.2,234.4,75.6,236.4,76.2"/>
	<line class="st1" x1="239.1" y1="75" x2="242.8" y2="75"/>
	<path class="st5" d="M238.5,75.3c0.4,0.1,0.7,0.2,1,0.4v-1.2c-0.1,0.1-0.6,0.2-1,0.4c-0.4,0.1-0.8,0.2-1.1,0.2
		C237.7,75.1,238.1,75.1,238.5,75.3"/>
	<path class="st5" d="M207,73.9c-1.9-0.6-3.1-1.1-4.6-1.7v5.7c0.5-0.2,2.7-1.1,4.6-1.7c2-0.6,3.8-1,5-1.2
		C210.8,74.9,209,74.5,207,73.9"/>
	<line class="st1" x1="204.4" y1="75" x2="201" y2="75"/>
	<path class="st5" d="M204.9,74.8c-0.4-0.1-0.6-0.2-0.9-0.3v1.1c0.1-0.1,0.5-0.2,0.9-0.3c0.4-0.1,0.7-0.2,0.9-0.2
		C205.6,75,205.2,74.9,204.9,74.8"/>
	<path class="st5" d="M220.8,71.2c0.2-0.1,0.6-0.1,1-0.1c1.8,0,2.8,1,2.7,2.6c0,1.8-1,2.9-2.9,2.9c-0.3,0-0.7,0-0.9,0V71.2
		 M219.9,77.2c0.4,0.1,1,0.1,1.6,0.1c1.3,0,2.4-0.3,3-1c0.6-0.6,1-1.5,1-2.6s-0.4-1.9-1-2.4c-0.6-0.6-1.5-0.8-2.7-0.8
		c-0.7,0-1.3,0.1-1.9,0.1L219.9,77.2L219.9,77.2z"/>
	<polyline class="st5" points="154.6,113.4 152,113.4 152,115.9 154.9,115.9 154.9,116.6 151.1,116.6 151.1,109.9 154.8,109.9 
		154.8,110.6 152,110.6 152,112.7 154.6,112.7 154.6,113.4 	"/>
	<path class="st5" d="M253.1,138.6c0.1,0,0.4-0.1,0.8-0.1c0.9,0,1.5,0.3,1.5,1.1c0,0.6-0.5,1.1-1.4,1.1h-0.8L253.1,138.6
		 M252.3,144.7c0.3,0,0.8,0.1,1.4,0.1c1.1,0,1.9-0.2,2.3-0.6c0.4-0.3,0.6-0.8,0.6-1.4c0-1-0.8-1.5-1.4-1.7v0
		c0.7-0.2,1.1-0.8,1.1-1.5c0-0.5-0.2-0.9-0.6-1.2c-0.4-0.3-1-0.5-1.9-0.5c-0.6,0-1.2,0.1-1.6,0.1L252.3,144.7L252.3,144.7z
		 M253.1,141.5h0.7c0.9,0,1.7,0.4,1.7,1.3c0,1-0.8,1.3-1.7,1.3c-0.3,0-0.6,0-0.7,0L253.1,141.5L253.1,141.5z"/>
	<line class="st6" x1="138.3" y1="131.7" x2="171.1" y2="131.7"/>
	<line class="st7" x1="58.5" y1="95.1" x2="189.7" y2="95.1"/>
	<path class="st5" d="M152,100.8c-0.6,1.9-1.1,3.1-1.7,4.6h5.7c-0.2-0.5-1.1-2.7-1.7-4.6c-0.6-2-1-3.8-1.2-5
		C153,97,152.6,98.8,152,100.8"/>
	<line class="st1" x1="153.1" y1="103.5" x2="153.1" y2="107.6"/>
	<path class="st5" d="M152.5,102.2c-0.3,0.9-0.5,1.5-0.8,2.3h2.8c-0.1-0.3-0.6-1.3-0.8-2.3c-0.3-1-0.5-1.9-0.6-2.5
		C153,100.3,152.8,101.2,152.5,102.2"/>
	<path class="st5" d="M154.3,126.2c0.6-1.9,1.1-3.1,1.7-4.6h-5.7c0.2,0.5,1.1,2.7,1.7,4.6c0.6,2,1,3.8,1.2,5
		C153.3,130,153.7,128.2,154.3,126.2"/>
	<line class="st1" x1="153.1" y1="123.6" x2="153.1" y2="119.4"/>
	<path class="st5" d="M153.7,124.9c0.3-0.9,0.5-1.5,0.8-2.3h-2.8c0.1,0.3,0.6,1.3,0.8,2.3c0.3,1,0.5,1.9,0.6,2.5
		C153.2,126.8,153.4,125.9,153.7,124.9"/>
	<path class="st1" d="M138.3,123.6c-13.1,1.2-23.7-0.8-36.7-3.2c-4.5-0.8-3.6-27.9-3.3-31.9c0.1-1.7,1.2-14.4,2.2-14.7
		c3.9-1,16.6-2,15.8-6.4c-1-5.8-0.1-13.4-5.5-16.3c-4.9-2.7-10.9-3.8-16.5-3.4c-5.6-0.4-11.6,0.7-16.5,3.4c-5.4,3-4.5,10.5-5.5,16.3
		c-0.7,4.4,11.9,5.4,15.8,6.4c1,0.3,2.1,12.9,2.2,14.7c0.3,4,1.2,31.1-3.3,31.9c-13,2.4-23.6,4.4-36.7,3.2c0,3.6-1.9,8.3,2.3,8.4
		c4.7,0.1,9.3,0.2,14,0.4c9,0.2,18.1,0.5,27.1,0.7v0c0.2,0,0.4,0,0.6,0s0.4,0,0.6,0v0c9-0.2,18.1-0.5,27.1-0.7
		c4.7-0.1,9.3-0.2,14-0.4C140.2,131.9,138.3,127.2,138.3,123.6L138.3,123.6z"/>
</g>
</svg>
