<?xml version="1.0" encoding="UTF-8"?><svg id="_1-drilling-crane-rails" xmlns="http://www.w3.org/2000/svg" viewBox="0 0 400 200"><defs><style>.cls-1{fill:#fff;}.cls-2{fill:#f1f0f0;}.cls-3{fill:#221f1f;}.cls-4{stroke-dasharray:0 0 8.43 2.53;}.cls-4,.cls-5,.cls-6,.cls-7,.cls-8{fill:none;stroke:#221f1f;stroke-width:.75px;}.cls-5{stroke-dasharray:0 0 8.42 2.53;}.cls-6{stroke-dasharray:0 0 8.33 2.5;}.cls-8{stroke-dasharray:0 0 7.79 2.34;}</style></defs><polyline class="cls-2" points="362.98 45.56 395.95 125.21 395.95 135.74 141.12 135.74 141.12 45.56 362.98 45.56"/><path class="cls-2" d="M103.94,127.24c-14.91,1.3-26.89-.91-41.68-3.66-5.08-.95-4.03-31.64-3.7-36.2,.14-1.96,1.42-16.34,2.55-16.64,4.43-1.18,18.79-2.24,17.95-7.29-1.1-6.59-.13-15.16-6.25-18.5-5.54-3.02-12.33-4.26-18.69-3.83-6.36-.43-13.15,.81-18.69,3.83-6.12,3.34-5.15,11.91-6.25,18.5-.84,5.05,13.52,6.11,17.95,7.29,1.13,.3,2.41,14.68,2.55,16.64,.32,4.55,1.38,35.25-3.7,36.2-14.79,2.75-26.77,4.96-41.68,3.66,0,4.1-2.2,9.46,2.56,9.58,5.29,.13,10.57,.27,15.86,.4,10.26,.26,20.52,.53,30.78,.79v.03c.21,0,.41-.01,.62-.02,.21,0,.41,0,.62,.02v-.03c10.26-.26,20.52-.52,30.78-.79,5.29-.13,10.57-.27,15.86-.4,4.76-.12,2.56-5.48,2.56-9.58"/><polygon class="cls-7" points="362.98 45.56 395.95 125.21 395.95 135.74 141.12 135.74 141.12 45.56 362.98 45.56"/><path class="cls-1" d="M353.48,94.32c0,5.21,4.22,9.44,9.44,9.44s9.44-4.23,9.44-9.44-4.23-9.44-9.44-9.44-9.44,4.23-9.44,9.44"/><path class="cls-7" d="M353.48,94.32c0,5.21,4.22,9.44,9.44,9.44s9.44-4.23,9.44-9.44-4.23-9.44-9.44-9.44-9.44,4.23-9.44,9.44Z"/><path class="cls-1" d="M263.33,94.32c0,5.21,4.23,9.44,9.44,9.44s9.44-4.23,9.44-9.44-4.22-9.44-9.44-9.44-9.44,4.23-9.44,9.44"/><path class="cls-7" d="M263.33,94.32c0,5.21,4.23,9.44,9.44,9.44s9.44-4.23,9.44-9.44-4.22-9.44-9.44-9.44-9.44,4.23-9.44,9.44Z"/><path class="cls-1" d="M189.67,94.32c0,5.21,4.23,9.44,9.44,9.44s9.44-4.23,9.44-9.44-4.23-9.44-9.44-9.44-9.44,4.23-9.44,9.44"/><path class="cls-7" d="M189.67,94.32c0,5.21,4.23,9.44,9.44,9.44s9.44-4.23,9.44-9.44-4.23-9.44-9.44-9.44-9.44,4.23-9.44,9.44Z"/><line class="cls-7" x1="141.64" y1="64.96" x2="371.26" y2="64.96"/><line class="cls-7" x1="396.47" y1="125.78" x2="142.17" y2="125.78"/><path class="cls-7" d="M199.14,133.44v25.64m73.61-25.54v25.64m89.87-25.62v25.64M195.61,94.7h7.01m-3.5-3.5v7.01m-4.98-3.5h-26.73m64.77,0h-26.73m-6.33-6.71v-8.22m0,21.07v26.73m70.04-32.87h7m-3.5-3.5v7.01m-4.98-3.5h-26.73m64.77,0h-26.73m-6.33-6.71v-8.22m0,21.07v26.73m86.49-32.87h7m-3.5-3.5v7.01m-4.98-3.5h-26.73m64.77,0h-26.73m-6.33-6.71v-8.22m0,21.07v26.73"/><line class="cls-6" x1="188.38" y1="65.16" x2="188.38" y2="94.49"/><line class="cls-5" x1="208.64" y1="64.53" x2="208.64" y2="94.49"/><line class="cls-7" x1="140.93" y1="133.19" x2="140.93" y2="158.83"/><path class="cls-3" d="M356.32,147.36c-2.11-.64-3.48-1.22-5.18-1.91v6.44c.61-.29,3.07-1.27,5.18-1.91,2.26-.68,4.31-1.15,5.64-1.32-1.33-.17-3.38-.63-5.64-1.32"/><line class="cls-7" x1="353.3" y1="148.67" x2="325.26" y2="148.67"/><path class="cls-3" d="M354.79,148.03c-1.04-.31-1.71-.6-2.54-.94v3.17c.3-.14,1.51-.62,2.54-.94,1.11-.33,2.12-.56,2.77-.65-.65-.08-1.66-.31-2.77-.65"/><path class="cls-3" d="M266.78,147.58c-2.11-.64-3.48-1.23-5.18-1.91v6.45c.61-.29,3.07-1.27,5.18-1.91,2.26-.68,4.31-1.15,5.64-1.32-1.33-.17-3.38-.63-5.64-1.31"/><line class="cls-7" x1="263.77" y1="148.89" x2="242.22" y2="148.89"/><path class="cls-3" d="M265.44,148.16c-1.17-.35-1.94-.68-2.88-1.06v3.59c.34-.16,1.71-.71,2.88-1.06,1.26-.38,2.4-.64,3.14-.73-.74-.09-1.88-.35-3.14-.73"/><path class="cls-3" d="M192.51,147.49c-2.11-.64-3.49-1.22-5.18-1.91v6.44c.61-.29,3.07-1.27,5.18-1.91,2.26-.68,4.31-1.15,5.64-1.32-1.33-.17-3.38-.63-5.64-1.32"/><line class="cls-7" x1="189.49" y1="148.8" x2="176.41" y2="148.8"/><path class="cls-3" d="M191.53,147.92c-1.43-.43-2.36-.83-3.5-1.29v4.36c.41-.2,2.07-.86,3.5-1.29,1.53-.46,2.91-.78,3.81-.89-.9-.11-2.28-.43-3.81-.89"/><path class="cls-3" d="M279.67,150.06c2.11,.64,3.49,1.22,5.18,1.91v-6.44c-.61,.29-3.07,1.27-5.18,1.91-2.26,.68-4.31,1.15-5.64,1.32,1.33,.17,3.38,.63,5.64,1.32"/><line class="cls-7" x1="282.69" y1="148.75" x2="312.2" y2="148.75"/><path class="cls-3" d="M281.13,149.43c1.09,.33,1.8,.63,2.67,.99v-3.33c-.31,.15-1.59,.66-2.67,.99-1.17,.35-2.23,.6-2.92,.68,.69,.09,1.75,.33,2.92,.68"/><path class="cls-3" d="M206.32,150.02c2.11,.64,3.48,1.22,5.18,1.91v-6.44c-.61,.29-3.07,1.27-5.18,1.91-2.26,.68-4.31,1.15-5.64,1.32,1.33,.17,3.38,.63,5.64,1.32"/><line class="cls-7" x1="209.34" y1="148.71" x2="229.46" y2="148.71"/><path class="cls-3" d="M207.59,149.47c1.22,.37,2.02,.71,2.99,1.1v-3.72c-.35,.17-1.77,.73-2.99,1.1-1.31,.39-2.49,.66-3.26,.76,.77,.1,1.95,.37,3.26,.76"/><path class="cls-3" d="M148.04,150.11c2.11,.64,3.48,1.23,5.18,1.91v-6.44c-.61,.29-3.07,1.27-5.18,1.91-2.26,.68-4.31,1.15-5.64,1.32,1.33,.17,3.38,.63,5.64,1.31"/><line class="cls-7" x1="151.06" y1="148.8" x2="163.75" y2="148.8"/><path class="cls-3" d="M149.17,149.62c1.32,.4,2.18,.77,3.24,1.19v-4.03c-.38,.18-1.92,.79-3.24,1.19-1.41,.43-2.69,.72-3.52,.82,.83,.1,2.11,.4,3.52,.82"/><path class="cls-3" d="M168.88,148.08l.75-2.22c.15-.47,.27-.94,.38-1.39h.03c.11,.44,.23,.9,.39,1.4l.76,2.21h-2.31m2.52,.77l.82,2.41h1.06l-2.62-7.67h-1.19l-2.61,7.67h1.02l.8-2.41h2.72Z"/><path class="cls-3" d="M215.25,73.48c2.11,.64,3.48,1.23,5.18,1.91v-6.44c-.61,.29-3.07,1.27-5.18,1.91-2.26,.68-4.31,1.15-5.64,1.32,1.33,.17,3.38,.63,5.64,1.31"/><line class="cls-7" x1="218.27" y1="72.18" x2="222.48" y2="72.18"/><path class="cls-3" d="M217.61,72.46c.46,.14,.76,.27,1.13,.41v-1.4c-.13,.06-.67,.28-1.13,.41-.49,.15-.94,.25-1.23,.29,.29,.04,.73,.14,1.23,.29"/><path class="cls-3" d="M181.88,70.87c-2.11-.64-3.48-1.22-5.18-1.91v6.44c.61-.29,3.07-1.27,5.18-1.91,2.26-.68,4.31-1.15,5.64-1.32-1.33-.17-3.38-.63-5.64-1.32"/><line class="cls-7" x1="178.87" y1="72.18" x2="175.04" y2="72.18"/><path class="cls-3" d="M179.44,71.93c-.4-.12-.66-.23-.98-.36v1.21c.12-.05,.58-.24,.98-.36,.43-.13,.81-.22,1.06-.25-.25-.03-.64-.12-1.06-.25"/><path class="cls-3" d="M197.56,67.8c.26-.06,.65-.1,1.16-.1,2.09,0,3.12,1.13,3.11,2.96,0,2.07-1.15,3.27-3.26,3.25-.39,0-.75,0-1-.05v-6.06m-1,6.81c.51,.07,1.09,.09,1.81,.09,1.49,0,2.67-.39,3.4-1.1,.71-.71,1.1-1.73,1.1-2.98s-.4-2.14-1.09-2.76c-.67-.62-1.68-.94-3.11-.94-.79,0-1.5,.07-2.12,.16v7.54Z"/><polyline class="cls-3" points="122.42 115.78 119.45 115.78 119.45 118.54 122.77 118.54 122.77 119.37 118.45 119.37 118.45 111.7 122.6 111.7 122.6 112.53 119.45 112.53 119.45 114.96 122.42 114.96 122.42 115.78"/><path class="cls-3" d="M234.2,144.37c.16-.03,.42-.07,.88-.07,1,0,1.67,.36,1.67,1.25,0,.74-.61,1.3-1.65,1.3h-.9v-2.48m-.99,6.87c.33,.05,.85,.09,1.54,.09,1.25,0,2.12-.23,2.64-.72,.4-.38,.66-.88,.66-1.53,0-1.14-.85-1.74-1.58-1.91v-.03c.8-.28,1.3-.93,1.3-1.68,0-.6-.25-1.06-.65-1.35-.47-.39-1.1-.56-2.09-.56-.68,0-1.38,.07-1.81,.17v7.53Zm.99-3.65h.82c1.08,0,1.98,.44,1.98,1.48,0,1.11-.94,1.49-1.97,1.49-.35,0-.63-.01-.83-.05v-2.92Z"/><path class="cls-3" d="M321.26,152.29c-.35,.18-1.09,.36-2.02,.36-2.16,0-3.78-1.37-3.78-3.89s1.63-4.03,4-4.03c.94,0,1.56,.2,1.82,.34l-.25,.81c-.36-.18-.9-.32-1.54-.32-1.8,0-2.99,1.15-2.99,3.16,0,1.89,1.08,3.08,2.93,3.08,.61,0,1.23-.12,1.63-.32l.2,.8"/><line class="cls-8" x1="103.92" y1="136.51" x2="141.18" y2="136.51"/><line class="cls-4" x1="13.42" y1="94.97" x2="162.24" y2="94.97"/><path class="cls-3" d="M119.44,101.47c-.64,2.11-1.23,3.48-1.91,5.18h6.44c-.29-.61-1.27-3.07-1.91-5.18-.68-2.26-1.15-4.31-1.32-5.64-.17,1.33-.63,3.38-1.32,5.64"/><line class="cls-7" x1="120.75" y1="104.49" x2="120.75" y2="109.12"/><path class="cls-3" d="M120.09,102.98c-.32,1.06-.61,1.74-.95,2.59h3.22c-.14-.3-.63-1.53-.95-2.59-.34-1.13-.58-2.16-.66-2.82-.08,.66-.32,1.69-.66,2.82"/><path class="cls-3" d="M122.06,130.29c.64-2.11,1.23-3.48,1.91-5.18h-6.44c.29,.61,1.27,3.07,1.91,5.18,.68,2.26,1.15,4.31,1.32,5.64,.17-1.33,.63-3.38,1.32-5.64"/><line class="cls-7" x1="120.75" y1="127.28" x2="120.75" y2="122.49"/><path class="cls-3" d="M121.4,128.78c.32-1.06,.61-1.74,.95-2.59h-3.22c.14,.3,.63,1.53,.95,2.59,.34,1.13,.58,2.16,.66,2.82,.08-.66,.32-1.69,.66-2.82"/><path class="cls-7" d="M103.94,127.24c-14.91,1.3-26.89-.91-41.68-3.66-5.08-.95-4.03-31.64-3.7-36.2,.14-1.96,1.42-16.34,2.55-16.64,4.43-1.18,18.79-2.24,17.95-7.29-1.1-6.59-.13-15.16-6.25-18.5-5.54-3.02-12.33-4.26-18.69-3.83-6.36-.43-13.15,.81-18.69,3.83-6.12,3.34-5.15,11.91-6.25,18.5-.84,5.05,13.52,6.11,17.95,7.29,1.13,.3,2.41,14.68,2.55,16.64,.32,4.55,1.38,35.25-3.7,36.2-14.79,2.75-26.77,4.96-41.68,3.66,0,4.1-2.2,9.46,2.56,9.58,5.29,.13,10.57,.27,15.86,.4,10.26,.26,20.52,.53,30.78,.79v.03c.21,0,.41-.01,.62-.02,.21,0,.41,0,.62,.02v-.03c10.26-.26,20.52-.52,30.78-.79,5.29-.13,10.57-.27,15.86-.4,4.76-.12,2.56-5.48,2.56-9.58Z"/></svg>