<?xml version="1.0" encoding="UTF-8"?><svg id="Layer_1" xmlns="http://www.w3.org/2000/svg" viewBox="0 0 300 300"><defs><style>.cls-1{fill:#f0f0f0;}.cls-2{fill:#303030;}.cls-3{fill:#616262;}.cls-4{fill:#616161;}.cls-5,.cls-6{stroke-miterlimit:10;}.cls-5,.cls-6,.cls-7{fill:none;stroke-width:.32px;}.cls-5,.cls-7{stroke:#616161;}.cls-6{stroke:#fff;}</style></defs><g><path class="cls-1" d="M150,299c82.29,0,149-66.71,149-149S232.29,.99,150,.99,1,67.71,1,150s66.71,149,149,149"/><path class="cls-2" d="M144.89,58.97l-1.58,4.56h-5.74l9.11-26.42h6.77l9.03,26.42h-5.94l-1.5-4.56h-10.14Zm5.07-15.37l-3.68,10.93h7.32l-3.64-10.93Z"/><path class="cls-2" d="M149.96,239.11c3.25,0,5.35,.48,6.73,1.5,1.63,1.23,2.53,3.25,2.53,5.59,0,1.82-.55,3.33-1.66,4.51-.75,.76-1.35,1.11-2.77,1.58,1.58,.35,2.3,.67,3.13,1.43,1.22,1.11,1.9,2.73,1.9,4.75,0,2.46-1.03,4.63-2.74,5.78-1.38,.91-3.01,1.27-5.9,1.27h-9.74v-26.41h8.51Zm-3.09,11.2h2.18c3.2,0,4.71-1.15,4.71-3.6,0-1.35-.63-2.5-1.58-2.97-.75-.35-1.86-.51-3.41-.51h-1.9v7.09Zm0,11.2h2.66c1.86,0,2.73-.16,3.52-.71,.87-.6,1.31-1.55,1.31-2.81,0-1.43-.52-2.41-1.5-3.01-.83-.48-1.66-.63-3.64-.63h-2.34v7.16Z"/><path class="cls-2" d="M35.08,162.3h-5.42v-26.41h5.42v11.16h10.02v-11.16h5.42v26.41h-5.42v-10.81h-10.02v10.81Z"/><g><line class="cls-5" x1="61.26" y1="97.58" x2="61.26" y2="202.09"/><line class="cls-5" x1="56.8" y1="97.58" x2="65.71" y2="97.58"/><line class="cls-5" x1="56.8" y1="202.09" x2="65.71" y2="202.09"/></g><line class="cls-5" x1="190.46" y1="78.09" x2="109.79" y2="78.09"/><line class="cls-5" x1="190.46" y1="73.64" x2="190.46" y2="82.55"/><line class="cls-5" x1="109.79" y1="73.64" x2="109.79" y2="82.55"/><line class="cls-5" x1="210.89" y1="221.9" x2="89.12" y2="221.9"/><line class="cls-5" x1="210.89" y1="217.45" x2="210.89" y2="226.36"/><line class="cls-5" x1="89.12" y1="217.45" x2="89.12" y2="226.36"/><path class="cls-3" d="M149.87,202.74s-74.18,.01-82.23,.01c-.5,0-2.63-.39-2.7-2.64-.04-1.41-.38-3.13,0-6.39,.61-5.28,5.8-8.28,9.69-8.71,12.75-1.44,17.78-2.2,22.88-2.8,14.94-1.74,11.08-15.95,7.63-23.79-3.95-8.98-7.46-14.28-7.46-18.56s-.5-24.56-.63-30.09c-.09-3.96,1.71-11.65,9.05-12.17,9.64-.69,43.77-.18,43.77-.18h.27s34.14-.5,43.78,.18c7.33,.52,9.13,8.2,9.04,12.17-.13,5.53-.63,25.82-.63,30.09s-3.51,9.57-7.46,18.56c-3.45,7.84-7.31,22.05,7.63,23.79,5.1,.6,10.13,1.36,22.87,2.8,3.89,.44,9.08,3.44,9.68,8.71,.38,3.26,.04,4.97,0,6.39-.06,2.26-2.2,2.64-2.7,2.64-8.05,0-82.22-.01-82.22-.01h-.27Z"/><line class="cls-6" x1="188.5" y1="167.96" x2="111.58" y2="167.96"/><line class="cls-6" x1="188.5" y1="163.54" x2="188.5" y2="172.38"/><line class="cls-6" x1="111.58" y1="163.54" x2="111.58" y2="172.38"/><path class="cls-2" d="M161.22,155.18h5.62l-7.31,26.23h-5.43l-4.13-17.18-4.13,17.18h-5.43l-7.16-26.23h5.7l4.2,16.56,4.25-16.56h5.35l4.09,16.83,4.37-16.83Z"/></g><g><line class="cls-7" x1="168.91" y1="150" x2="188.1" y2="150"/><polygon class="cls-4" points="171.31 143.59 164.9 150 171.31 156.41 171.31 143.59"/><line class="cls-7" x1="131.09" y1="150" x2="111.9" y2="150"/><polygon class="cls-4" points="128.69 156.41 135.1 150 128.69 143.59 128.69 156.41"/></g></svg>