<svg id="Layer_1" data-name="Layer 1" xmlns="http://www.w3.org/2000/svg" viewBox="0 0 300 300"><defs><style>.cls-1{fill:#f0f0f0;}.cls-2{fill:#303030;}.cls-3,.cls-4{fill:none;stroke:#616161;stroke-width:0.32px;}.cls-3{stroke-miterlimit:10;}.cls-5{fill:#616161;}</style></defs><path class="cls-1" d="M150,299A149,149,0,1,0,1,150,149,149,0,0,0,150,299"/><path class="cls-2" d="M144.89,59l-1.58,4.56h-5.75l9.11-26.42h6.78l9,26.42h-5.94L155,59ZM150,43.61l-3.68,10.93h7.32Z"/><path class="cls-2" d="M150,239.11c3.25,0,5.34.47,6.73,1.5a6.85,6.85,0,0,1,2.54,5.59,6.35,6.35,0,0,1-1.67,4.51,5.81,5.81,0,0,1-2.77,1.58,5.86,5.86,0,0,1,3.13,1.43,6.15,6.15,0,0,1,1.9,4.75,6.87,6.87,0,0,1-2.73,5.78c-1.39.91-3,1.27-5.9,1.27h-9.75V239.11Zm-3.09,11.2h2.18c3.21,0,4.71-1.15,4.71-3.6a3.24,3.24,0,0,0-1.58-3,8.47,8.47,0,0,0-3.41-.51h-1.9Zm0,11.21h2.65c1.87,0,2.74-.16,3.53-.71a3.73,3.73,0,0,0-.2-5.82c-.83-.48-1.66-.64-3.64-.64h-2.34Z"/><path class="cls-2" d="M215.27,140.68h5.66l-7.36,26.42H208.1L204,149.8l-4.17,17.3h-5.46l-7.21-26.42h5.75l4.23,16.68,4.28-16.68h5.38l4.12,16.95Z"/><path class="cls-2" d="M41.12,162.31H35.7V135.9h5.42v11.16h10V135.9h5.42v26.41H51.14V151.49h-10Z"/><line class="cls-3" x1="73.26" y1="88.35" x2="73.26" y2="211.65"/><line class="cls-3" x1="68.8" y1="88.35" x2="77.71" y2="88.35"/><line class="cls-3" x1="68.8" y1="211.65" x2="77.71" y2="211.65"/><line class="cls-3" x1="178.02" y1="78.09" x2="124.41" y2="78.09"/><line class="cls-3" x1="178.02" y1="73.64" x2="178.02" y2="82.55"/><line class="cls-3" x1="124.4" y1="73.64" x2="124.4" y2="82.55"/><line class="cls-3" x1="208.67" y1="221.9" x2="91.33" y2="221.9"/><line class="cls-3" x1="208.67" y1="217.45" x2="208.67" y2="226.36"/><line class="cls-3" x1="91.33" y1="217.45" x2="91.33" y2="226.36"/><line class="cls-4" x1="159.81" y1="154.79" x2="179.01" y2="154.79"/><polygon class="cls-5" points="162.21 148.38 155.8 154.79 162.21 161.21 162.21 148.38"/><line class="cls-4" x1="140.19" y1="154.79" x2="121" y2="154.79"/><polygon class="cls-5" points="137.79 161.21 144.2 154.79 137.79 148.38 137.79 161.21"/><path class="cls-5" d="M150,212.64h58.85a30.65,30.65,0,0,0,.41-4.66c0-2.52-2.11-3.62-3.9-4a67.09,67.09,0,0,0-8.26-.46,22.45,22.45,0,0,1-7.89-.81c-3.22-1.11-18.25-6-25.76-8.92s-8-22.36-7.95-25.95-.29-6.11-.05-25.85,4.93-21,7.81-22.16c3.7-1.46,9-2.77,10.82-3.47s3.59.41,3.65-4.26c0,0,.06-5.74-.25-9-1.2-12.1-6.58-14.88-13.87-15.52-4.18-.37-9.68-.21-13.61-.26s-9.43-.11-13.61.26c-7.29.64-12.67,3.42-13.86,15.52-.32,3.23-.25,9-.25,9,0,4.67,1.84,3.57,3.64,4.26s7.12,2,10.82,3.47c2.89,1.13,7.57,2.42,7.81,22.16s-.09,22.26,0,25.85-.45,23-7.95,25.95-22.54,7.81-25.77,8.92a22.45,22.45,0,0,1-7.89.81,67.09,67.09,0,0,0-8.26.46c-1.79.38-3.93,1.48-3.91,4a33.06,33.06,0,0,0,.42,4.66Z"/></svg>