<?xml version="1.0" encoding="UTF-8"?><svg id="Layer_1" xmlns="http://www.w3.org/2000/svg" viewBox="0 0 800 800"><defs><style>.cls-1{fill:#f0f0f0;}.cls-2{fill:#ccc;}</style></defs><g><rect class="cls-1" x="2.5" y="1.5" width="795" height="797"/><path class="cls-2" d="M796.5,2.5V797.5H3.5V2.5H796.5m2-2H1.5V799.5H798.5V.5h0Z"/></g><g><path class="cls-2" d="M278.9,461.18h-25.72v-125.24h25.35l52.38,78.11v-78.11h25.72v125.24h-25.16l-52.57-79.23v79.23Z"/><path class="cls-2" d="M387.42,482.05h-16.52l62.34-164.1h16.52l-62.34,164.1Z"/><path class="cls-2" d="M463.46,439.59l-7.51,21.59h-27.23l43.19-125.24h32.11l42.81,125.24h-28.16l-7.13-21.59h-48.07Zm24.03-72.85l-17.46,51.82h34.74l-17.27-51.82Z"/></g></svg>