<?xml version="1.0" encoding="UTF-8"?>
<svg xmlns="http://www.w3.org/2000/svg" xmlns:xlink="http://www.w3.org/1999/xlink" viewBox="0 0 1000 800">
  <defs>
    <style>
      .cls-1, .cls-2, .cls-3, .cls-4, .cls-5 {
        fill: none;
      }

      .cls-1, .cls-3, .cls-4, .cls-5 {
        stroke-linecap: round;
        stroke-linejoin: round;
      }

      .cls-1, .cls-3, .cls-5 {
        stroke: #000;
      }

      .cls-6 {
        clip-path: url(#clippath);
      }

      .cls-2, .cls-7, .cls-8, .cls-9, .cls-10 {
        stroke-width: 0px;
      }

      .cls-3 {
        stroke-width: 2px;
      }

      .cls-11 {
        clip-path: url(#clippath-1);
      }

      .cls-12 {
        clip-path: url(#clippath-4);
      }

      .cls-13 {
        clip-path: url(#clippath-3);
      }

      .cls-14 {
        clip-path: url(#clippath-2);
      }

      .cls-15 {
        clip-path: url(#clippath-7);
      }

      .cls-16 {
        clip-path: url(#clippath-8);
      }

      .cls-17 {
        clip-path: url(#clippath-6);
      }

      .cls-18 {
        clip-path: url(#clippath-5);
      }

      .cls-19 {
        clip-path: url(#clippath-9);
      }

      .cls-7 {
        fill: #000;
      }

      .cls-20 {
        clip-path: url(#clippath-12);
      }

      .cls-21 {
        clip-path: url(#clippath-10);
      }

      .cls-22 {
        clip-path: url(#clippath-11);
      }

      .cls-4 {
        stroke: lime;
      }

      .cls-23 {
        stroke: #ccc;
        stroke-miterlimit: 10;
      }

      .cls-23, .cls-9 {
        fill: #fff;
      }

      .cls-5 {
        stroke-dasharray: 0 0 0 0 15.24 7.62 0 7.62;
      }

      .cls-8 {
        fill: #ccc;
      }

      .cls-10 {
        fill: #efefef;
      }
    </style>
    <clipPath id="clippath">
      <rect class="cls-2" x="168.7" y="2.89" width="693.59" height="793.5"></rect>
    </clipPath>
    <clipPath id="clippath-1">
      <rect class="cls-2" x="168.7" y="2.89" width="693.59" height="793.5"></rect>
    </clipPath>
    <clipPath id="clippath-2">
      <rect class="cls-2" x="168.7" y="2.89" width="693.59" height="793.5"></rect>
    </clipPath>
    <clipPath id="clippath-3">
      <rect class="cls-2" x="168.7" y="2.89" width="693.59" height="793.5"></rect>
    </clipPath>
    <clipPath id="clippath-4">
      <rect class="cls-2" x="168.7" y="2.89" width="693.59" height="793.5"></rect>
    </clipPath>
    <clipPath id="clippath-5">
      <rect class="cls-2" x="168.7" y="2.89" width="693.59" height="793.5"></rect>
    </clipPath>
    <clipPath id="clippath-6">
      <rect class="cls-2" x="168.7" y="2.89" width="693.59" height="793.5"></rect>
    </clipPath>
    <clipPath id="clippath-7">
      <rect class="cls-2" x="168.7" y="2.89" width="693.59" height="793.5"></rect>
    </clipPath>
    <clipPath id="clippath-8">
      <rect class="cls-2" x="168.7" y="2.89" width="693.59" height="793.5"></rect>
    </clipPath>
    <clipPath id="clippath-9">
      <rect class="cls-2" x="168.7" y="2.89" width="693.59" height="793.5"></rect>
    </clipPath>
    <clipPath id="clippath-10">
      <rect class="cls-2" x="168.7" y="2.89" width="693.59" height="793.5"></rect>
    </clipPath>
    <clipPath id="clippath-11">
      <rect class="cls-2" x="168.7" y="2.89" width="693.59" height="793.5"></rect>
    </clipPath>
    <clipPath id="clippath-12">
      <rect class="cls-2" x="168.7" y="2.89" width="693.59" height="793.5"></rect>
    </clipPath>
  </defs>
  <g id="Layer_1" data-name="Layer 1">
    <g>
      <path class="cls-7" d="M370.34,191.23l-.76,3.82h-.97l2.47-12.14h1.13l2.49,12.14h-1l-.78-3.82h-2.58ZM372.73,190l-.71-3.49c-.16-.79-.27-1.51-.38-2.21h-.02c-.11.72-.23,1.46-.37,2.2l-.71,3.51h2.19Z"></path>
      <path class="cls-7" d="M551.26,183.07c.41-.14,1.06-.25,1.72-.25.94,0,1.54.27,2,.88.38.47.61,1.19.61,2.14,0,1.17-.46,2.2-1.23,2.66v.04c.69.29,1.5,1.24,1.5,3.04,0,1.04-.25,1.84-.62,2.43-.51.77-1.33,1.13-2.52,1.13-.65,0-1.14-.07-1.46-.14v-11.94ZM552.2,188.04h.85c.99,0,1.58-.86,1.58-2.03,0-1.42-.65-1.98-1.6-1.98-.43,0-.68.05-.83.11v3.91ZM552.2,193.86c.18.05.45.07.79.07.97,0,1.87-.59,1.87-2.36,0-1.66-.85-2.34-1.88-2.34h-.78v4.63Z"></path>
      <path class="cls-7" d="M650.5,194.65c-.35.29-1.04.58-1.92.58-2.05,0-3.6-2.16-3.6-6.14s1.54-6.37,3.8-6.37c.91,0,1.48.32,1.73.54l-.23,1.28c-.36-.29-.86-.5-1.47-.5-1.71,0-2.84,1.82-2.84,5.01,0,2.97,1.03,4.88,2.8,4.88.57,0,1.16-.2,1.53-.5l.19,1.24Z"></path>
      <path class="cls-7" d="M726,183.07c.57-.14,1.25-.25,2-.25,1.35,0,2.31.52,2.95,1.51.65.99,1.03,2.4,1.03,4.36s-.37,3.6-1.05,4.72c-.68,1.13-1.8,1.75-3.22,1.75-.67,0-1.23-.05-1.71-.14v-11.94ZM726.94,193.8c.24.07.58.09.95.09,2.01,0,3.1-1.87,3.1-5.15.01-2.86-.96-4.68-2.95-4.68-.49,0-.85.07-1.1.16v9.58Z"></path>
      <path class="cls-7" d="M210.79,373.47l-1.03-2.98c-.42-1.14-.68-1.88-.94-2.66h-.02c-.23.78-.46,1.5-.88,2.68l-.97,2.96h-1.2l2.47-6.82-2.38-6.66h1.21l1.07,3.16c.3.88.53,1.56.75,2.28h.04c.23-.8.43-1.42.73-2.28l1.1-3.16h1.2l-2.46,6.56,2.52,6.92h-1.21Z"></path>
      <path class="cls-7" d="M760.87,380.36l-1.03-2.98c-.42-1.14-.68-1.88-.94-2.66h-.02c-.23.78-.46,1.5-.88,2.68l-.97,2.96h-1.2l2.47-6.82-2.38-6.66h1.21l1.07,3.16c.3.88.53,1.56.75,2.28h.04c.23-.8.43-1.42.73-2.28l1.1-3.16h1.2l-2.46,6.56,2.52,6.92h-1.21Z"></path>
      <path class="cls-7" d="M522.54,678.1v-5.72l-2.56-7.76h1.19l1.14,3.72c.31,1.02.55,1.84.8,2.78h.02c.23-.88.5-1.76.82-2.78l1.17-3.72h1.19l-2.71,7.74v5.74h-1.06Z"></path>
      <path class="cls-7" d="M513.47,128.81v-5.72l-2.56-7.76h1.19l1.14,3.72c.31,1.02.55,1.84.8,2.78h.02c.23-.88.5-1.76.82-2.78l1.17-3.72h1.19l-2.71,7.74v5.74h-1.06Z"></path>
      <g class="cls-6">
        <path class="cls-10" d="M383.76,237.27v-35.04c0-11.8,9.06-21.63,20.82-22.59,29.99-2.45,60.13-2.52,90.13-.19,6.13.48,12.23,1.28,18.27,2.42,16.71,3.17,29.08,17.37,29.93,34.35l2.96,59.28c.9,18.1,15.84,32.3,33.96,32.3h6.64c33.25,0,61.62-24.03,67.09-56.82l11.02-66.13c.68-4.1,4.23-7.1,8.39-7.1h24.84c.94,0,1.87.08,2.8.23,9.26,1.54,15.52,10.3,13.98,19.56l-11.13,66.78c-5.81,34.84-32.55,62.45-67.19,69.38l-83.21,16.64c-19.87,3.97-34.17,21.42-34.17,41.68v129.47c0,21.43,15.96,39.51,37.24,42.17l139.88,17.48c2.83.36,4.96,2.77,4.96,5.62v17.41c0,3.13-2.54,5.67-5.67,5.67h-389.66c-3.13,0-5.67-2.54-5.67-5.67v-17.41c0-2.86,2.13-5.27,4.96-5.62l139.88-17.48c21.27-2.66,37.24-20.74,37.24-42.17v-204.49c0-18.29-11.71-34.53-29.07-40.32l-53.71-17.9c-9.26-3.08-15.5-11.75-15.5-21.5"></path>
      </g>
      <line class="cls-3" x1="500.46" y1="609.84" x2="695.29" y2="609.84"></line>
      <line class="cls-3" x1="700.96" y1="604.18" x2="700.96" y2="586.77"></line>
      <line class="cls-3" x1="695.99" y1="581.14" x2="556.11" y2="563.66"></line>
      <line class="cls-3" x1="518.88" y1="521.49" x2="518.88" y2="392.02"></line>
      <g class="cls-11">
        <path class="cls-3" d="M553.05,350.35c-19.87,3.97-34.17,21.42-34.17,41.68"></path>
        <path class="cls-3" d="M695.29,609.84c3.13,0,5.67-2.54,5.67-5.67"></path>
        <path class="cls-3" d="M700.96,586.77c0-2.86-2.13-5.27-4.96-5.62"></path>
        <path class="cls-3" d="M518.88,521.49c0,21.43,15.96,39.51,37.24,42.17"></path>
      </g>
      <line class="cls-3" x1="500.46" y1="609.84" x2="305.63" y2="609.84"></line>
      <line class="cls-3" x1="299.96" y1="604.18" x2="299.96" y2="586.77"></line>
      <line class="cls-3" x1="383.76" y1="237.27" x2="383.76" y2="202.23"></line>
      <g class="cls-14">
        <path class="cls-3" d="M383.76,237.27c0,9.76,6.24,18.42,15.5,21.5"></path>
      </g>
      <line class="cls-3" x1="304.93" y1="581.14" x2="444.8" y2="563.66"></line>
      <g class="cls-13">
        <path class="cls-3" d="M299.96,604.18c0,3.13,2.54,5.67,5.67,5.67"></path>
        <path class="cls-3" d="M304.93,581.14c-2.84.36-4.96,2.77-4.96,5.62"></path>
        <path class="cls-3" d="M444.8,563.66c21.27-2.66,37.24-20.74,37.24-42.17"></path>
      </g>
      <line class="cls-3" x1="553.05" y1="350.35" x2="636.27" y2="333.71"></line>
      <g class="cls-12">
        <path class="cls-3" d="M636.26,333.71c34.64-6.93,61.38-34.54,67.19-69.38"></path>
      </g>
      <line class="cls-3" x1="452.97" y1="276.68" x2="399.26" y2="258.78"></line>
      <g class="cls-18">
        <path class="cls-3" d="M482.04,317c0-18.29-11.71-34.53-29.07-40.32"></path>
      </g>
      <line class="cls-3" x1="714.58" y1="197.55" x2="703.45" y2="264.33"></line>
      <line class="cls-3" x1="664.58" y1="184.85" x2="653.56" y2="250.98"></line>
      <g class="cls-17">
        <path class="cls-3" d="M586.47,307.8c33.25,0,61.62-24.03,67.09-56.82"></path>
        <path class="cls-3" d="M672.97,177.75c-4.16,0-7.7,3-8.39,7.1"></path>
      </g>
      <line class="cls-3" x1="672.97" y1="177.75" x2="697.81" y2="177.75"></line>
      <g class="cls-15">
        <path class="cls-3" d="M714.58,197.55c1.54-9.26-4.71-18.02-13.98-19.56-.92-.15-1.86-.23-2.8-.23"></path>
      </g>
      <line class="cls-3" x1="542.91" y1="216.22" x2="545.87" y2="275.5"></line>
      <g class="cls-16">
        <path class="cls-3" d="M545.87,275.5c.9,18.1,15.84,32.3,33.97,32.3"></path>
      </g>
      <line class="cls-3" x1="586.47" y1="307.8" x2="579.83" y2="307.8"></line>
      <g class="cls-19">
        <path class="cls-3" d="M494.71,179.45c-30-2.33-60.14-2.27-90.13.19"></path>
        <path class="cls-3" d="M404.58,179.64c-11.76.96-20.82,10.79-20.82,22.59"></path>
      </g>
      <line class="cls-3" x1="482.04" y1="317" x2="482.04" y2="521.49"></line>
      <g class="cls-21">
        <path class="cls-3" d="M512.98,181.87c-6.04-1.14-12.14-1.95-18.27-2.42"></path>
        <path class="cls-3" d="M542.91,216.22c-.85-16.98-13.22-31.18-29.93-34.35"></path>
      </g>
      <line class="cls-5" x1="500.46" y1="153.28" x2="500.46" y2="645.52"></line>
      <line class="cls-1" x1="533.73" y1="193.69" x2="575.9" y2="156.48"></line>
      <line class="cls-1" x1="533.73" y1="193.69" x2="540.18" y2="186.01"></line>
      <line class="cls-1" x1="540.18" y1="186.01" x2="542.15" y2="188.24"></line>
      <line class="cls-1" x1="542.15" y1="188.24" x2="533.73" y2="193.69"></line>
      <g>
        <path class="cls-7" d="M550.36,159.97c.19-.34.54-.74.92-1.08.59-.52,1.12-.67,1.74-.51.49.13,1.04.5,1.52,1.05.83.93,1.02,1.87.79,2.51l.03.03c.49-.1,1.13.23,1.88.88,1.01.87,1.71,1.46,2.04,1.65l-.57.5c-.25-.14-.88-.66-1.78-1.44-.99-.87-1.54-1.03-2.07-.62l-.52.46,2.71,3.07-.55.48-6.17-6.98ZM553.75,162.71l.56-.5c.59-.52.49-1.38-.23-2.19-.81-.91-1.56-.96-2.14-.46-.26.23-.42.44-.47.56l2.28,2.58Z"></path>
        <path class="cls-7" d="M556.99,155.93h-.01s-.15,1.28-.15,1.28l-.73-.61.19-1.59.47-.42,6.03,6.83-.54.47-5.27-5.96Z"></path>
        <path class="cls-7" d="M563.48,158.93c.31.03.9-.03,1.29-.37.71-.63.27-1.58-.24-2.14-.85-.95-1.73-.9-2.26-.43l-.31.27-.61-.69.31-.27c.4-.36.61-1.15-.11-1.96-.48-.55-1.12-.85-1.63-.4-.33.29-.43.81-.42,1.18l-.74-.54c-.02-.45.17-1.08.61-1.47.81-.71,1.88-.24,2.61.59.62.7.9,1.52.66,2.27l.02.02c.65-.28,1.62,0,2.46.95.96,1.09,1.3,2.5.31,3.37-.46.41-1.08.52-1.47.48l-.48-.85Z"></path>
      </g>
      <line class="cls-1" x1="513.64" y1="182" x2="520.36" y2="147.06"></line>
      <line class="cls-1" x1="513.64" y1="182" x2="514.05" y2="171.98"></line>
      <line class="cls-1" x1="514.05" y1="171.98" x2="516.97" y2="172.54"></line>
      <line class="cls-1" x1="516.97" y1="172.54" x2="513.64" y2="182"></line>
      <g>
        <path class="cls-7" d="M502.3,165.46c-.05-.39-.02-.92.07-1.42.15-.77.48-1.22,1.07-1.46.47-.2,1.13-.24,1.85-.1,1.22.24,1.95.85,2.17,1.5h.04c.33-.37,1.04-.5,2.03-.45,1.33.07,2.25.11,2.63.06l-.14.74c-.28.04-1.1.01-2.29-.05-1.31-.08-1.85.12-2.02.77l-.13.68,4.02.77-.14.72-9.15-1.76ZM506.66,165.55l.14-.73c.15-.77-.46-1.39-1.52-1.59-1.2-.23-1.82.19-1.98.95-.07.35-.06.6-.03.73l3.38.65Z"></path>
        <path class="cls-7" d="M505.08,156.67c-.04.15-.06.34-.05.55.1,1.2,1.37,2.07,2.82,2.48v-.02c-.51-.36-.89-.9-.78-1.49.18-.95,1.45-1.4,3.2-1.06,1.64.31,3.02,1.27,2.81,2.39-.22,1.15-1.85,1.61-4.17,1.17-1.76-.34-3.08-.99-3.86-1.68-.64-.59-.98-1.27-.99-1.97-.01-.23,0-.41.03-.54l.99.19ZM510.2,157.87c-1.28-.25-2.13.04-2.26.71-.08.44.29.93.9,1.25.13.08.3.14.52.19,1.47.27,2.64.07,2.79-.69.12-.63-.66-1.22-1.94-1.46Z"></path>
        <path class="cls-7" d="M509.52,152.61c3.04.58,4.59,1.58,4.36,2.77-.2,1.05-1.98,1.44-4.94.89-3-.58-4.5-1.67-4.29-2.76.22-1.13,2.02-1.45,4.87-.91ZM509.09,155.55c2.33.45,3.73.27,3.86-.39.14-.74-1.23-1.38-3.52-1.81-2.2-.42-3.71-.36-3.85.39-.12.64,1.08,1.35,3.52,1.81Z"></path>
      </g>
      <line class="cls-1" x1="453.92" y1="177.76" x2="454.28" y2="112.15"></line>
      <line class="cls-1" x1="453.92" y1="177.76" x2="452.49" y2="167.83"></line>
      <line class="cls-1" x1="452.49" y1="167.83" x2="455.46" y2="167.85"></line>
      <line class="cls-1" x1="455.46" y1="167.85" x2="453.92" y2="177.76"></line>
      <g>
        <path class="cls-7" d="M444.49,139.98c3.09.02,4.8.72,4.79,1.93,0,1.07-1.68,1.78-4.69,1.78-3.05-.02-4.73-.82-4.72-1.93,0-1.15,1.72-1.8,4.62-1.78ZM444.61,142.94c2.37.01,3.71-.42,3.72-1.09,0-.76-1.46-1.13-3.79-1.14-2.24-.01-3.71.32-3.72,1.09,0,.65,1.31,1.13,3.79,1.14Z"></path>
        <path class="cls-7" d="M444.47,144.29c3.09.02,4.8.72,4.79,1.93,0,1.07-1.68,1.78-4.69,1.78-3.05-.02-4.73-.82-4.72-1.93,0-1.15,1.72-1.8,4.62-1.78ZM444.59,147.26c2.37.01,3.71-.42,3.72-1.09,0-.76-1.46-1.13-3.79-1.14-2.24-.01-3.71.32-3.72,1.09,0,.65,1.31,1.12,3.79,1.14Z"></path>
        <path class="cls-7" d="M449.07,152.26h-.76s-.94-.59-.94-.59c-2.2-1.41-3.38-2.04-4.75-2.06-.92,0-1.78.26-1.79,1.07,0,.5.42.91.76,1.16l-.87.23c-.53-.38-.92-.92-.92-1.55,0-1.18,1.35-1.67,2.66-1.66,1.68,0,3.04.75,4.88,1.91l.67.44h.03v-2.46s1.04,0,1.04,0l-.02,3.49Z"></path>
        <path class="cls-7" d="M439.73,158.25c-.12-.37-.19-.9-.19-1.41,0-.78.24-1.29.78-1.64.42-.28,1.07-.44,1.8-.44,1.25,0,2.07.48,2.4,1.08h.04c.25-.44.93-.69,1.91-.82,1.32-.18,2.23-.31,2.59-.42v.76c-.27.09-1.08.21-2.26.37-1.3.16-1.8.46-1.84,1.12v.69s4.08.02,4.08.02v.73s-9.32-.05-9.32-.05ZM444.03,157.54v-.75c0-.78-.7-1.28-1.78-1.29-1.22,0-1.75.52-1.77,1.29,0,.35.05.61.11.72l3.45.02Z"></path>
      </g>
      <line class="cls-1" x1="389.52" y1="187.13" x2="356.37" y2="157.54"></line>
      <line class="cls-1" x1="389.52" y1="187.13" x2="381.13" y2="181.64"></line>
      <line class="cls-1" x1="381.13" y1="181.64" x2="383.11" y2="179.42"></line>
      <line class="cls-1" x1="383.11" y1="179.42" x2="389.52" y2="187.13"></line>
      <g>
        <path class="cls-7" d="M366.32,147.3c.36.15.8.45,1.18.79.58.52.8,1.03.71,1.67-.07.5-.38,1.09-.86,1.63-.83.93-1.73,1.23-2.4,1.09l-.03.03c.16.48-.1,1.15-.65,1.97-.74,1.11-1.25,1.87-1.4,2.22l-.56-.5c.11-.26.55-.95,1.22-1.93.74-1.08.84-1.65.38-2.12l-.51-.46-2.72,3.05-.54-.49,6.21-6.95ZM364,151l.56.5c.58.52,1.43.32,2.15-.49.81-.91.77-1.66.2-2.18-.26-.24-.49-.36-.61-.4l-2.3,2.57Z"></path>
        <path class="cls-7" d="M366.12,156.51c.77-.86,1.61-1.19,2.43-1.1l.02-.04c-.13-.76.19-1.52.72-2.1.96-1.08,2.16-1.32,2.88-.68.79.71.45,1.88-.31,2.73-.51.57-1.23,1.04-2.09.99l-.03.03c.21.79,0,1.66-.75,2.49-1.05,1.18-2.37,1.43-3.15.74-.85-.76-.61-2.07.28-3.06ZM368.35,158.43c.74-.83.75-1.53.43-2.28-.68-.2-1.41.1-1.98.74-.63.67-.86,1.56-.34,2.02.5.44,1.27.22,1.9-.48ZM369.86,153.67c-.61.68-.63,1.32-.34,1.95.53.11,1.17-.06,1.72-.68.48-.54.79-1.28.3-1.72-.46-.41-1.16-.13-1.68.45Z"></path>
      </g>
      <line class="cls-1" x1="759.24" y1="177.75" x2="745.99" y2="177.75"></line>
      <line class="cls-1" x1="759.24" y1="203.25" x2="716.47" y2="203.25"></line>
      <line class="cls-1" x1="754.28" y1="177.75" x2="754.28" y2="203.25"></line>
      <line class="cls-1" x1="754.28" y1="177.75" x2="755.77" y2="187.67"></line>
      <line class="cls-1" x1="755.77" y1="187.67" x2="752.8" y2="187.67"></line>
      <line class="cls-1" x1="752.8" y1="187.67" x2="754.29" y2="177.75"></line>
      <line class="cls-1" x1="754.28" y1="203.25" x2="752.8" y2="193.33"></line>
      <line class="cls-1" x1="752.8" y1="193.33" x2="755.77" y2="193.33"></line>
      <line class="cls-1" x1="755.77" y1="193.33" x2="754.28" y2="203.25"></line>
      <path class="cls-7" d="M748.46,191.84c.03-.16,0-.34-.04-.6-.1-.43-.39-.83-.88-1.14-.55-.36-1.34-.62-2.42-.72v.03c.62.3.98.74.98,1.29,0,.98-1.23,1.61-2.79,1.61-1.72,0-3.24-.75-3.24-1.87s1.51-1.81,3.84-1.81c2,0,3.4.4,4.27.94.69.42,1.11,1,1.22,1.59.07.27.08.5.07.68h-1.01ZM743.22,191.57c1.13,0,1.93-.41,1.93-1.05,0-.5-.41-.88-.95-1.08-.11-.04-.25-.07-.45-.07-1.55,0-2.75.34-2.75,1.12,0,.63.92,1.08,2.21,1.08Z"></path>
      <line class="cls-1" x1="782.12" y1="177.75" x2="745.99" y2="177.75"></line>
      <line class="cls-1" x1="782.12" y1="206.08" x2="715.99" y2="206.08"></line>
      <line class="cls-1" x1="777.16" y1="177.75" x2="777.16" y2="206.08"></line>
      <line class="cls-1" x1="777.16" y1="177.75" x2="778.65" y2="187.67"></line>
      <line class="cls-1" x1="778.65" y1="187.67" x2="775.67" y2="187.67"></line>
      <line class="cls-1" x1="775.67" y1="187.67" x2="777.16" y2="177.75"></line>
      <line class="cls-1" x1="777.16" y1="206.08" x2="775.67" y2="196.17"></line>
      <line class="cls-1" x1="775.67" y1="196.17" x2="778.65" y2="196.17"></line>
      <line class="cls-1" x1="778.65" y1="196.17" x2="777.16" y2="206.08"></line>
      <g>
        <path class="cls-7" d="M764.25,195.06v.02l.85.95-.94.14-1.06-1.19v-.63h9.1v.71h-7.96Z"></path>
        <path class="cls-7" d="M767.55,188.72c3.1,0,4.8.69,4.8,1.9,0,1.07-1.67,1.79-4.68,1.81-3.05,0-4.73-.79-4.73-1.9s1.71-1.81,4.61-1.81ZM767.69,191.69c2.37,0,3.71-.44,3.71-1.11,0-.76-1.47-1.12-3.8-1.12s-3.71.34-3.71,1.11c0,.65,1.32,1.12,3.8,1.12Z"></path>
      </g>
      <line class="cls-1" x1="799.69" y1="177.75" x2="745.99" y2="177.75"></line>
      <line class="cls-1" x1="799.69" y1="216.23" x2="714.3" y2="216.23"></line>
      <line class="cls-1" x1="794.74" y1="131.36" x2="794.74" y2="216.23"></line>
      <line class="cls-1" x1="794.74" y1="177.75" x2="796.22" y2="187.67"></line>
      <line class="cls-1" x1="796.22" y1="187.67" x2="793.25" y2="187.67"></line>
      <line class="cls-1" x1="793.25" y1="187.67" x2="794.74" y2="177.75"></line>
      <line class="cls-1" x1="794.74" y1="216.23" x2="793.25" y2="206.31"></line>
      <line class="cls-1" x1="793.25" y1="206.31" x2="796.22" y2="206.31"></line>
      <line class="cls-1" x1="796.22" y1="206.31" x2="794.73" y2="216.23"></line>
      <g>
        <path class="cls-7" d="M781.82,157.46v.02l.85.95-.94.14-1.06-1.19v-.63h9.1v.71h-7.96Z"></path>
        <path class="cls-7" d="M788.36,154.58c.22-.21.57-.7.57-1.21,0-.95-1.01-1.24-1.76-1.24-1.27,0-1.82.7-1.82,1.41v.41h-.92v-.41c0-.54-.46-1.22-1.54-1.22-.73,0-1.37.28-1.37.96,0,.44.32.86.6,1.09l-.9.19c-.35-.29-.7-.84-.7-1.43,0-1.08,1.06-1.56,2.17-1.56.94,0,1.74.34,2.14,1.01h.03c.22-.67,1.06-1.22,2.34-1.22,1.46,0,2.73.68,2.73,1.99,0,.61-.32,1.15-.62,1.42l-.95-.2Z"></path>
        <path class="cls-7" d="M789.05,150.39c-.52,0-.88-.21-.88-.5s.36-.5.88-.5.88.19.88.5c0,.29-.38.5-.88.5Z"></path>
        <path class="cls-7" d="M781.71,145.44v2.09l2.34.21c-.03-.13-.06-.24-.06-.45,0-.42.15-.84.49-1.18.41-.43,1.19-.78,2.34-.78,1.78,0,3.11.85,3.11,2.03,0,.6-.28,1.1-.56,1.36l-.94-.19c.22-.23.5-.67.5-1.17,0-.7-.76-1.29-1.97-1.29-1.18,0-2.02.48-2.02,1.57,0,.31.06.55.1.76l-4.37-.35v-2.61h1.04Z"></path>
        <path class="cls-7" d="M787.47,144.46c-1.15,0-1.96-.41-2.44-1.08h-.04c-.48.61-1.26.87-2.04.87-1.44,0-2.42-.73-2.42-1.69,0-1.06,1.11-1.59,2.24-1.59.77,0,1.6.23,2.13.9h.04c.45-.68,1.25-1.1,2.35-1.1,1.58,0,2.65.82,2.65,1.86,0,1.14-1.13,1.83-2.47,1.83ZM782.86,143.55c.91,0,1.4-.41,1.68-1.04-.27-.47-.83-.83-1.65-.83-.73,0-1.49.26-1.49.93,0,.61.67.95,1.46.95ZM787.41,141.52c-1.11,0-1.64.46-1.99,1.2.31.64,1.01.98,1.88.98.92.03,1.74-.4,1.74-1.09s-.69-1.09-1.62-1.09Z"></path>
      </g>
      <line class="cls-1" x1="820.21" y1="177.75" x2="745.99" y2="177.75"></line>
      <line class="cls-1" x1="820.21" y1="217.42" x2="714.1" y2="217.42"></line>
      <line class="cls-1" x1="815.25" y1="177.75" x2="815.25" y2="217.42"></line>
      <line class="cls-1" x1="815.25" y1="177.75" x2="816.74" y2="187.67"></line>
      <line class="cls-1" x1="816.74" y1="187.67" x2="813.76" y2="187.67"></line>
      <line class="cls-1" x1="813.76" y1="187.67" x2="815.25" y2="177.75"></line>
      <line class="cls-1" x1="815.25" y1="217.42" x2="813.76" y2="207.5"></line>
      <line class="cls-1" x1="813.76" y1="207.5" x2="816.73" y2="207.5"></line>
      <line class="cls-1" x1="816.74" y1="207.5" x2="815.25" y2="217.42"></line>
      <g>
        <path class="cls-7" d="M802.33,200.72v.02l.85.95-.94.14-1.06-1.19v-.63h9.1v.71h-7.96Z"></path>
        <path class="cls-7" d="M810.29,195.73h-2.48v2.54h-.81l-5.81-2.44v-.8h5.66v-.77h.97v.77h2.48v.7ZM806.84,195.73h-3.04c-.48,0-.95,0-1.43-.03v.03c.53.17.92.3,1.34.45l3.1,1.34h.03v-1.79Z"></path>
      </g>
      <line class="cls-1" x1="383.76" y1="57.65" x2="383.76" y2="213.39"></line>
      <line class="cls-1" x1="542.91" y1="57.65" x2="542.91" y2="213.39"></line>
      <line class="cls-1" x1="383.76" y1="62.61" x2="542.91" y2="62.61"></line>
      <line class="cls-1" x1="383.76" y1="62.61" x2="393.68" y2="61.12"></line>
      <line class="cls-1" x1="393.68" y1="61.13" x2="393.68" y2="64.1"></line>
      <line class="cls-1" x1="393.68" y1="64.1" x2="383.76" y2="62.61"></line>
      <line class="cls-1" x1="542.91" y1="62.61" x2="532.99" y2="64.1"></line>
      <line class="cls-1" x1="532.99" y1="64.1" x2="532.99" y2="61.13"></line>
      <line class="cls-1" x1="532.99" y1="61.13" x2="542.91" y2="62.61"></line>
      <g>
        <path class="cls-7" d="M452.93,49.59h-2.08l-.21,2.34c.13-.03.24-.06.45-.06.42,0,.84.15,1.18.49.43.41.78,1.19.78,2.34,0,1.78-.85,3.11-2.04,3.11-.6,0-1.1-.28-1.36-.56l.18-.94c.23.22.67.5,1.17.5.7,0,1.29-.76,1.29-1.98,0-1.18-.48-2.02-1.57-2.02-.31,0-.56.06-.76.1l.35-4.37h2.62v1.04Z"></path>
        <path class="cls-7" d="M457.09,49.42c-.15-.01-.34,0-.55.06-1.16.32-1.77,1.74-1.9,3.24h.02c.26-.57.71-1.05,1.32-1.05.97,0,1.65,1.16,1.65,2.94,0,1.67-.68,3.21-1.82,3.21s-1.93-1.51-1.93-3.88c0-1.79.39-3.21.92-4.1.45-.74,1.06-1.2,1.75-1.34.22-.06.4-.07.54-.07v1.01ZM456.88,54.67c0-1.3-.45-2.09-1.13-2.09-.45,0-.86.46-1.06,1.12-.05.14-.08.32-.08.55.02,1.5.43,2.61,1.2,2.61.64,0,1.07-.88,1.07-2.19Z"></path>
        <path class="cls-7" d="M458.35,56.93c0-.52.21-.88.5-.88s.5.36.5.88-.19.88-.5.88-.5-.38-.5-.88Z"></path>
        <path class="cls-7" d="M461.63,49.7h-.02l-.95.85-.14-.94,1.19-1.06h.63v9.1h-.71v-7.96Z"></path>
        <path class="cls-7" d="M467.46,49.42c-.15-.01-.34,0-.56.06-1.16.32-1.77,1.74-1.9,3.24h.02c.26-.57.71-1.05,1.32-1.05.97,0,1.65,1.16,1.65,2.94,0,1.67-.68,3.21-1.82,3.21s-1.93-1.51-1.93-3.88c0-1.79.39-3.21.92-4.1.45-.74,1.06-1.2,1.75-1.34.22-.06.4-.07.54-.07v1.01ZM467.25,54.67c0-1.3-.45-2.09-1.13-2.09-.45,0-.86.46-1.06,1.12-.05.14-.08.32-.08.55.02,1.5.43,2.61,1.2,2.61.64,0,1.07-.88,1.07-2.19Z"></path>
      </g>
      <line class="cls-1" x1="542.91" y1="57.65" x2="542.91" y2="213.39"></line>
      <line class="cls-1" x1="659.35" y1="57.65" x2="659.35" y2="213.39"></line>
      <line class="cls-1" x1="542.91" y1="62.61" x2="659.35" y2="62.61"></line>
      <line class="cls-1" x1="542.91" y1="62.61" x2="552.83" y2="61.12"></line>
      <line class="cls-1" x1="552.83" y1="61.13" x2="552.83" y2="64.1"></line>
      <line class="cls-1" x1="552.83" y1="64.1" x2="542.91" y2="62.61"></line>
      <line class="cls-1" x1="659.35" y1="62.61" x2="649.44" y2="64.1"></line>
      <line class="cls-1" x1="649.44" y1="64.1" x2="649.44" y2="61.13"></line>
      <line class="cls-1" x1="649.44" y1="61.13" x2="659.35" y2="62.61"></line>
      <g>
        <path class="cls-7" d="M589.75,57.65v-2.48h-2.54v-.81l2.44-5.81h.8v5.66h.76v.97h-.76v2.48h-.7ZM589.75,54.21v-3.04c0-.48,0-.95.03-1.43h-.03c-.17.53-.3.92-.45,1.34l-1.34,3.1v.03h1.79Z"></path>
        <path class="cls-7" d="M593.38,49.7h-.02l-.95.85-.14-.94,1.19-1.06h.63v9.1h-.71v-7.96Z"></path>
        <path class="cls-7" d="M596.15,56.93c0-.52.21-.88.5-.88s.5.36.5.88-.19.88-.5.88-.5-.38-.5-.88Z"></path>
        <path class="cls-7" d="M601.46,53c0,3.1-.69,4.8-1.9,4.8-1.07,0-1.79-1.67-1.81-4.68,0-3.05.79-4.73,1.9-4.73s1.81,1.71,1.81,4.61ZM598.49,53.14c0,2.37.44,3.71,1.11,3.71.76,0,1.12-1.47,1.12-3.8s-.34-3.71-1.11-3.71c-.65,0-1.12,1.32-1.12,3.8Z"></path>
        <path class="cls-7" d="M602.57,56.79c.16.03.34,0,.6-.04.43-.1.83-.39,1.14-.88.36-.55.62-1.34.72-2.42h-.03c-.3.62-.74.98-1.29.98-.98,0-1.61-1.23-1.61-2.79,0-1.72.75-3.24,1.87-3.24s1.81,1.51,1.81,3.84c0,2-.4,3.4-.94,4.27-.42.69-1,1.11-1.59,1.22-.27.07-.5.08-.68.07v-1.01ZM602.84,51.55c0,1.13.41,1.93,1.05,1.93.5,0,.88-.41,1.08-.95.04-.11.07-.25.07-.45,0-1.55-.34-2.75-1.12-2.75-.63,0-1.08.92-1.08,2.21Z"></path>
      </g>
      <g>
        <path class="cls-7" d="M556.79,255.85v-.02s-.9-.91-.9-.91l.93-.19,1.12,1.14.03.63-9.09.45-.04-.71,7.95-.4Z"></path>
        <path class="cls-7" d="M549.69,258.97c.52-.03.89.17.91.46.02.29-.34.51-.86.54-.49.02-.88-.15-.89-.46-.01-.29.35-.51.84-.54ZM554.63,258.72c.52-.03.89.17.91.46.02.29-.34.51-.86.54-.49.02-.88-.15-.89-.46-.01-.29.35-.51.84-.54Z"></path>
        <path class="cls-7" d="M549.06,260.68l.76-.04.96.53c2.28,1.28,3.49,1.85,4.86,1.79.92-.05,1.76-.36,1.72-1.17-.03-.5-.46-.89-.83-1.12l.86-.28c.55.35.97.87,1,1.5.06,1.18-1.26,1.74-2.56,1.8-1.68.08-3.07-.58-4.98-1.64l-.69-.4h-.03s.12,2.45.12,2.45l-1.02.05-.17-3.48Z"></path>
        <path class="cls-7" d="M554.11,268.38c-3.09.15-4.83-.45-4.89-1.66-.05-1.07,1.58-1.87,4.58-2.04,3.05-.15,4.77.55,4.82,1.66.06,1.15-1.62,1.89-4.51,2.04ZM553.82,265.43c-2.36.12-3.69.62-3.65,1.29.04.76,1.52,1.04,3.85.93,2.24-.11,3.69-.53,3.65-1.29-.03-.65-1.37-1.05-3.85-.93Z"></path>
      </g>
      <g>
        <path class="cls-7" d="M641.54,234.39v.02s.68,1.08.68,1.08h-.95s-.85-1.37-.85-1.37l.1-.62,8.98,1.5-.12.7-7.85-1.31Z"></path>
        <path class="cls-7" d="M644.26,232.04c-.51-.09-.84-.35-.79-.64.05-.29.44-.42.95-.34.48.08.82.33.77.64-.05.29-.46.43-.94.35ZM649.14,232.86c-.51-.09-.83-.35-.79-.64.05-.29.44-.42.95-.34.48.08.83.33.77.64-.05.29-.46.43-.94.35Z"></path>
        <path class="cls-7" d="M642.51,226.88c-.04.15-.06.34-.04.56.13,1.2,1.42,2.04,2.88,2.41v-.02c-.52-.35-.92-.88-.82-1.47.16-.95,1.42-1.43,3.17-1.14,1.64.27,3.05,1.2,2.87,2.32-.19,1.15-1.81,1.66-4.14,1.27-1.77-.29-3.1-.91-3.9-1.59-.66-.57-1.01-1.24-1.04-1.95-.02-.23,0-.41.02-.54l.99.17ZM647.66,227.95c-1.28-.21-2.13.1-2.24.77-.07.44.31.92.93,1.23.13.07.3.14.52.17,1.48.23,2.64,0,2.77-.76.11-.63-.69-1.2-1.98-1.41Z"></path>
      </g>
      <g>
        <path class="cls-7" d="M693.72,237.15v.02s.68,1.08.68,1.08h-.95s-.85-1.37-.85-1.37l.1-.62,8.98,1.5-.12.7-7.85-1.31Z"></path>
        <path class="cls-7" d="M696.44,234.8c-.51-.09-.84-.35-.79-.64.05-.29.44-.42.95-.34.48.08.82.33.77.64-.05.29-.46.43-.94.35ZM701.31,235.61c-.51-.09-.83-.35-.79-.64.05-.29.44-.42.95-.34.48.08.83.33.77.64-.05.29-.46.43-.94.35Z"></path>
        <path class="cls-7" d="M694.69,229.64c-.04.15-.06.34-.04.56.13,1.2,1.42,2.04,2.88,2.41v-.02c-.52-.35-.92-.88-.82-1.47.16-.95,1.42-1.43,3.17-1.14,1.64.27,3.05,1.2,2.87,2.32-.19,1.15-1.81,1.66-4.14,1.27-1.77-.29-3.1-.91-3.9-1.59-.66-.57-1.01-1.24-1.04-1.95-.02-.23,0-.41.02-.54l1,.17ZM699.83,230.71c-1.28-.21-2.13.1-2.24.77-.07.44.32.92.93,1.23.13.07.3.14.52.17,1.48.23,2.64,0,2.77-.76.11-.63-.69-1.2-1.98-1.41Z"></path>
      </g>
      <g>
        <path class="cls-7" d="M675.93,566.55h-.02s-1.05.73-1.05.73l-.03-.95,1.32-.91.63.08-1.13,9.03-.71-.09.99-7.89Z"></path>
        <path class="cls-7" d="M677.78,574.08c.06-.51.32-.85.61-.81.29.04.44.42.38.94-.06.49-.3.84-.61.8-.29-.04-.45-.44-.38-.92ZM678.39,569.17c.06-.51.32-.85.61-.81.29.04.44.42.38.94-.06.49-.3.84-.61.8-.29-.04-.45-.44-.38-.92Z"></path>
        <path class="cls-7" d="M679.58,572.7c.14-1.14.65-1.9,1.38-2.28v-.04c-.54-.55-.71-1.36-.61-2.14.18-1.43,1.03-2.31,1.98-2.19,1.05.13,1.44,1.29,1.3,2.42-.1.76-.42,1.56-1.16,2v.04c.62.53.93,1.37.8,2.47-.2,1.57-1.14,2.53-2.17,2.4-1.13-.14-1.68-1.35-1.51-2.67ZM682.5,573.01c.14-1.1-.26-1.68-.95-2.12-.67.23-1.1.88-1.21,1.74-.14.91.18,1.77.87,1.86.66.08,1.17-.55,1.29-1.48ZM681.05,568.23c-.11.9.24,1.44.83,1.8.5-.21.93-.72,1.03-1.54.09-.72-.08-1.51-.73-1.59-.61-.08-1.03.55-1.12,1.33Z"></path>
      </g>
      <g>
        <path class="cls-7" d="M406.06,556.5h-.02s-.84.97-.84.97l-.26-.91,1.05-1.21.62-.08,1.13,9.03-.71.09-.99-7.89Z"></path>
        <path class="cls-7" d="M409.09,558.43c-.06-.51.1-.9.39-.94.29-.04.53.3.6.81.06.49-.08.88-.39.92-.29.04-.54-.31-.6-.8ZM409.7,563.34c-.06-.51.1-.9.39-.94.29-.04.53.3.6.81.06.49-.08.89-.39.92-.29.04-.54-.31-.6-.8Z"></path>
        <path class="cls-7" d="M411.1,561.55c-.14-1.14.17-2,.77-2.55v-.04c-.67-.4-1.03-1.14-1.13-1.92-.18-1.43.42-2.5,1.38-2.61,1.05-.13,1.71.9,1.85,2.03.1.76-.03,1.61-.63,2.22v.04c.74.36,1.25,1.1,1.39,2.2.2,1.57-.48,2.73-1.52,2.86-1.13.14-1.96-.9-2.12-2.22ZM411.43,556.87c.11.9.58,1.34,1.24,1.54.43-.32.72-.92.62-1.74-.09-.72-.44-1.44-1.1-1.36-.61.08-.86.79-.76,1.56ZM414.02,561.13c-.14-1.1-.66-1.57-1.44-1.83-.6.39-.85,1.12-.74,1.99.09.92.61,1.67,1.3,1.59.66-.08,1-.82.88-1.75Z"></path>
      </g>
      <line class="cls-1" x1="316.45" y1="216.23" x2="380.92" y2="216.23"></line>
      <line class="cls-1" x1="316.45" y1="177.75" x2="352.59" y2="177.75"></line>
      <line class="cls-1" x1="321.41" y1="216.23" x2="321.41" y2="177.75"></line>
      <line class="cls-1" x1="321.41" y1="216.23" x2="319.92" y2="206.31"></line>
      <line class="cls-1" x1="319.93" y1="206.31" x2="322.9" y2="206.31"></line>
      <line class="cls-1" x1="322.9" y1="206.31" x2="321.41" y2="216.23"></line>
      <line class="cls-1" x1="321.41" y1="177.75" x2="322.9" y2="187.67"></line>
      <line class="cls-1" x1="322.9" y1="187.67" x2="319.93" y2="187.67"></line>
      <line class="cls-1" x1="319.93" y1="187.67" x2="321.41" y2="177.75"></line>
      <path class="cls-7" d="M307.01,197.77h3.95v-2.74h-3.95v-.74h9.44v.74h-4.43v2.74h4.43v.73h-9.44v-.73Z"></path>
      <line class="cls-1" x1="862.15" y1="609.84" x2="308.46" y2="609.84"></line>
      <line class="cls-1" x1="862.15" y1="177.75" x2="452.47" y2="177.75"></line>
      <line class="cls-1" x1="857.19" y1="609.84" x2="857.19" y2="177.75"></line>
      <line class="cls-1" x1="857.19" y1="609.84" x2="855.7" y2="599.93"></line>
      <line class="cls-1" x1="855.7" y1="599.93" x2="858.67" y2="599.93"></line>
      <line class="cls-1" x1="858.68" y1="599.93" x2="857.19" y2="609.84"></line>
      <line class="cls-1" x1="857.19" y1="177.75" x2="858.68" y2="187.67"></line>
      <line class="cls-1" x1="858.68" y1="187.67" x2="855.7" y2="187.67"></line>
      <line class="cls-1" x1="855.7" y1="187.67" x2="857.19" y2="177.75"></line>
      <g>
        <path class="cls-7" d="M844.27,405.86v.02l.85.95-.94.14-1.06-1.19v-.63h9.1v.71h-7.96Z"></path>
        <path class="cls-7" d="M844.16,399.89v2.08l2.34.21c-.03-.13-.06-.24-.06-.45,0-.42.15-.84.49-1.18.41-.43,1.19-.78,2.34-.78,1.78,0,3.11.85,3.11,2.04,0,.6-.28,1.1-.56,1.36l-.94-.18c.22-.23.5-.67.5-1.17,0-.7-.76-1.29-1.97-1.29-1.18,0-2.02.48-2.02,1.57,0,.31.06.56.1.76l-4.37-.35v-2.62h1.04Z"></path>
        <path class="cls-7" d="M852.23,398.84h-.76l-.94-.58c-2.21-1.4-3.39-2.03-4.76-2.03-.92,0-1.78.27-1.78,1.08,0,.5.42.91.77,1.16l-.87.24c-.53-.38-.92-.92-.92-1.55,0-1.18,1.34-1.67,2.65-1.67,1.68,0,3.04.73,4.89,1.88l.67.44h.03v-2.46h1.02v3.49Z"></path>
        <path class="cls-7" d="M851.5,394.47c-.52,0-.88-.21-.88-.5s.36-.5.88-.5.88.19.88.5c0,.29-.38.5-.88.5Z"></path>
        <path class="cls-7" d="M844.16,389.53v2.09l2.34.21c-.03-.13-.06-.24-.06-.45,0-.42.15-.84.49-1.18.41-.43,1.19-.78,2.34-.78,1.78,0,3.11.85,3.11,2.03,0,.6-.28,1.1-.56,1.36l-.94-.19c.22-.23.5-.67.5-1.17,0-.7-.76-1.29-1.97-1.29-1.18,0-2.02.48-2.02,1.57,0,.31.06.55.1.76l-4.37-.35v-2.61h1.04Z"></path>
      </g>
      <line class="cls-1" x1="299.96" y1="796.24" x2="299.96" y2="607.01"></line>
      <line class="cls-1" x1="700.96" y1="796.24" x2="700.96" y2="607.01"></line>
      <line class="cls-1" x1="299.96" y1="791.28" x2="700.96" y2="791.28"></line>
      <line class="cls-1" x1="299.96" y1="791.28" x2="309.88" y2="789.79"></line>
      <line class="cls-1" x1="309.88" y1="789.79" x2="309.88" y2="792.77"></line>
      <line class="cls-1" x1="309.88" y1="792.77" x2="299.96" y2="791.28"></line>
      <line class="cls-1" x1="700.96" y1="791.28" x2="691.04" y2="792.77"></line>
      <line class="cls-1" x1="691.04" y1="792.77" x2="691.04" y2="789.79"></line>
      <line class="cls-1" x1="691.04" y1="789.79" x2="700.96" y2="791.28"></line>
      <g>
        <path class="cls-7" d="M488.4,778.37h-.02l-.95.85-.14-.94,1.19-1.06h.63v9.1h-.71v-7.96Z"></path>
        <path class="cls-7" d="M493.39,786.32v-2.48h-2.54v-.81l2.44-5.81h.8v5.66h.76v.97h-.76v2.48h-.7ZM493.39,782.88v-3.04c0-.48,0-.95.03-1.43h-.03c-.17.53-.3.92-.45,1.34l-1.34,3.1v.03h1.79Z"></path>
        <path class="cls-7" d="M497.02,778.37h-.02l-.95.85-.14-.94,1.19-1.06h.63v9.1h-.71v-7.96Z"></path>
        <path class="cls-7" d="M499.78,785.6c0-.52.21-.88.5-.88s.5.36.5.88-.19.88-.5.88-.5-.38-.5-.88Z"></path>
        <path class="cls-7" d="M504.73,778.26h-2.08l-.21,2.34c.13-.03.24-.06.45-.06.42,0,.84.15,1.18.49.43.41.78,1.19.78,2.34,0,1.78-.85,3.11-2.04,3.11-.6,0-1.1-.28-1.36-.56l.18-.94c.23.22.67.5,1.17.5.7,0,1.29-.76,1.29-1.97,0-1.18-.48-2.02-1.57-2.02-.31,0-.56.06-.76.1l.35-4.37h2.62v1.04Z"></path>
      </g>
      <line class="cls-1" x1="482.04" y1="441.59" x2="482.04" y2="518.66"></line>
      <line class="cls-1" x1="518.88" y1="441.59" x2="518.88" y2="518.66"></line>
      <line class="cls-1" x1="482.04" y1="446.55" x2="554.4" y2="446.55"></line>
      <line class="cls-1" x1="482.04" y1="446.55" x2="491.96" y2="445.06"></line>
      <line class="cls-1" x1="491.96" y1="445.06" x2="491.96" y2="448.04"></line>
      <line class="cls-1" x1="491.96" y1="448.04" x2="482.04" y2="446.55"></line>
      <line class="cls-1" x1="518.88" y1="446.55" x2="508.96" y2="448.04"></line>
      <line class="cls-1" x1="508.96" y1="448.04" x2="508.96" y2="445.06"></line>
      <line class="cls-1" x1="508.96" y1="445.06" x2="518.88" y2="446.55"></line>
      <g>
        <path class="cls-7" d="M546.14,433.63h-.02l-.95.85-.14-.94,1.19-1.06h.63v9.1h-.71v-7.96Z"></path>
        <path class="cls-7" d="M549.02,440.18c.21.22.7.57,1.21.57.95,0,1.24-1.01,1.24-1.76,0-1.27-.7-1.82-1.41-1.82h-.41v-.92h.41c.54,0,1.22-.46,1.22-1.54,0-.73-.28-1.37-.96-1.37-.44,0-.86.32-1.09.6l-.19-.9c.29-.35.84-.7,1.43-.7,1.08,0,1.56,1.06,1.56,2.17,0,.94-.34,1.74-1.01,2.14v.03c.67.22,1.22,1.06,1.22,2.34,0,1.46-.68,2.73-1.99,2.73-.61,0-1.15-.32-1.42-.62l.2-.95Z"></path>
      </g>
      <line class="cls-1" x1="301.79" y1="582.6" x2="271.84" y2="550.02"></line>
      <line class="cls-1" x1="301.79" y1="582.6" x2="293.98" y2="576.3"></line>
      <line class="cls-1" x1="293.99" y1="576.3" x2="296.17" y2="574.29"></line>
      <line class="cls-1" x1="296.18" y1="574.29" x2="301.79" y2="582.6"></line>
      <g>
        <path class="cls-7" d="M282.83,540.88c.34.19.75.53,1.09.9.53.58.7,1.11.54,1.73-.12.5-.48,1.05-1.02,1.54-.92.84-1.84,1.06-2.5.84l-.03.03c.11.49-.21,1.14-.84,1.9-.84,1.03-1.42,1.74-1.61,2.07l-.51-.56c.13-.25.65-.89,1.4-1.8.84-1.01,1-1.56.58-2.08l-.47-.51-3.01,2.77-.49-.54,6.86-6.3ZM280.16,544.33l.51.55c.53.58,1.39.46,2.18-.27.9-.83.93-1.58.42-2.15-.24-.26-.45-.41-.57-.46l-2.54,2.33Z"></path>
        <path class="cls-7" d="M280.06,551.63l.56-.51,1.08-.21c2.58-.47,3.87-.8,4.88-1.72.68-.63,1.13-1.4.58-2-.34-.36-.92-.38-1.35-.33l.48-.76c.65-.08,1.3.05,1.73.51.8.87.14,2.14-.82,3.02-1.24,1.14-2.73,1.52-4.88,1.92l-.79.13-.02.02,1.66,1.81-.75.69-2.36-2.57Z"></path>
      </g>
      <line class="cls-1" x1="304.12" y1="609.64" x2="292.56" y2="651.54"></line>
      <line class="cls-1" x1="304.12" y1="609.64" x2="302.92" y2="619.59"></line>
      <line class="cls-1" x1="302.92" y1="619.6" x2="300.05" y2="618.8"></line>
      <line class="cls-1" x1="300.05" y1="618.8" x2="304.12" y2="609.64"></line>
      <g>
        <path class="cls-7" d="M282.56,633.93c-.02-.39.05-.92.18-1.41.21-.75.57-1.18,1.18-1.38.48-.16,1.14-.15,1.85.05,1.2.33,1.87,1,2.04,1.67h.04c.36-.34,1.08-.42,2.06-.28,1.32.17,2.23.28,2.61.27l-.2.73c-.28.02-1.1-.08-2.27-.24-1.3-.18-1.85-.02-2.07.61l-.18.66,3.94,1.09-.19.71-8.98-2.48ZM286.9,634.37l.2-.72c.21-.75-.35-1.42-1.39-1.71-1.17-.32-1.83.04-2.05.79-.09.34-.11.6-.08.73l3.32.92Z"></path>
        <path class="cls-7" d="M293.15,630.59l-.73-.2-.75-.81c-1.76-1.93-2.73-2.86-4.05-3.23-.89-.25-1.79-.21-2,.57-.13.48.16.99.43,1.32h-.9c-.41-.51-.65-1.13-.48-1.74.31-1.13,1.74-1.25,3-.91,1.62.45,2.74,1.51,4.21,3.12l.53.6h.03s.65-2.36.65-2.36l.99.27-.93,3.36Z"></path>
      </g>
      <line class="cls-1" x1="697.55" y1="581.57" x2="715.47" y2="540.36"></line>
      <line class="cls-1" x1="697.55" y1="581.57" x2="700.14" y2="571.88"></line>
      <line class="cls-1" x1="700.14" y1="571.88" x2="702.87" y2="573.07"></line>
      <line class="cls-1" x1="702.87" y1="573.07" x2="697.55" y2="581.57"></line>
      <g>
        <path class="cls-7" d="M696.19,548.89c.03-.39.18-.9.38-1.37.31-.72.73-1.09,1.36-1.2.5-.09,1.15.02,1.82.31,1.14.5,1.71,1.26,1.78,1.94l.04.02c.41-.3,1.13-.27,2.08,0,1.28.36,2.17.6,2.55.63l-.3.69c-.28-.02-1.08-.23-2.22-.55-1.26-.37-1.83-.28-2.14.31l-.27.63,3.75,1.63-.29.67-8.54-3.71ZM700.43,549.94l.3-.69c.31-.72-.15-1.46-1.13-1.89-1.12-.49-1.82-.21-2.14.49-.14.32-.19.58-.19.71l3.16,1.37Z"></path>
        <path class="cls-7" d="M707.15,547.07l-.69-.3-.63-.91c-1.47-2.16-2.3-3.21-3.55-3.76-.85-.37-1.74-.46-2.06.28-.2.46.02,1,.24,1.37l-.89-.13c-.34-.56-.48-1.21-.23-1.79.47-1.08,1.9-1,3.1-.48,1.54.67,2.5,1.88,3.73,3.68l.44.67h.03s.98-2.24.98-2.24l.94.41-1.39,3.2Z"></path>
      </g>
      <line class="cls-1" x1="698.99" y1="608.47" x2="726.88" y2="640.86"></line>
      <line class="cls-1" x1="698.99" y1="608.47" x2="706.59" y2="615.02"></line>
      <line class="cls-1" x1="706.59" y1="615.02" x2="704.33" y2="616.96"></line>
      <line class="cls-1" x1="704.33" y1="616.96" x2="698.99" y2="608.47"></line>
      <g>
        <path class="cls-7" d="M718.84,609.67c.34.2.74.55,1.06.94.51.59.66,1.13.49,1.75-.13.49-.52,1.03-1.07,1.51-.95.81-1.88,1-2.52.76l-.03.03c.09.5-.25,1.13-.9,1.87-.88,1-1.48,1.7-1.68,2.02l-.49-.57c.14-.24.67-.87,1.46-1.76.88-.98,1.05-1.53.65-2.06l-.45-.52-3.1,2.67-.48-.55,7.06-6.08ZM716.06,613.03l.49.57c.51.59,1.38.5,2.19-.2.92-.8.98-1.54.49-2.14-.23-.27-.44-.42-.56-.47l-2.61,2.25Z"></path>
        <path class="cls-7" d="M715.72,620.32l.57-.49,1.09-.17c2.59-.39,3.89-.68,4.94-1.57.7-.6,1.17-1.37.64-1.98-.32-.38-.91-.41-1.34-.38l.5-.75c.65-.06,1.3.09,1.71.57.77.89.07,2.14-.91,3-1.27,1.1-2.78,1.43-4.93,1.76l-.79.11-.02.02,1.6,1.86-.78.67-2.28-2.64Z"></path>
      </g>
      <line class="cls-1" x1="532.84" y1="552.98" x2="562.3" y2="520.48"></line>
      <line class="cls-1" x1="532.84" y1="552.98" x2="538.4" y2="544.63"></line>
      <line class="cls-1" x1="538.4" y1="544.63" x2="540.6" y2="546.63"></line>
      <line class="cls-1" x1="540.6" y1="546.63" x2="532.84" y2="552.98"></line>
      <g>
        <path class="cls-7" d="M537.29,526.83c.15-.36.46-.8.8-1.17.52-.58,1.04-.79,1.67-.7.5.07,1.09.38,1.63.87.92.84,1.22,1.74,1.07,2.41l.03.03c.48-.16,1.15.1,1.97.66,1.1.75,1.87,1.26,2.21,1.42l-.51.56c-.26-.11-.95-.56-1.92-1.23-1.08-.75-1.64-.86-2.12-.39l-.46.51,3.03,2.75-.49.54-6.9-6.26ZM540.97,529.17l.5-.55c.52-.58.33-1.43-.47-2.15-.9-.82-1.65-.78-2.18-.22-.24.26-.37.49-.4.61l2.55,2.31Z"></path>
        <path class="cls-7" d="M543.43,522.08h-.01s0,1.29,0,1.29l-.79-.52v-1.6s.44-.47.44-.47l6.75,6.11-.48.53-5.9-5.34Z"></path>
        <path class="cls-7" d="M547.36,517.58l-1.4,1.54,1.59,1.73c.06-.11.12-.22.26-.37.28-.31.68-.52,1.15-.54.59-.04,1.41.22,2.26.99,1.32,1.2,1.73,2.72.94,3.6-.4.44-.95.63-1.33.63l-.57-.77c.32-.02.83-.16,1.16-.53.47-.52.31-1.47-.59-2.29-.88-.78-1.82-1-2.55-.19-.21.23-.33.45-.43.63l-3-3.2,1.76-1.94.77.7Z"></path>
      </g>
      <line class="cls-1" x1="474.13" y1="546.18" x2="444.29" y2="524.89"></line>
      <line class="cls-1" x1="474.13" y1="546.18" x2="465.2" y2="541.63"></line>
      <line class="cls-1" x1="465.19" y1="541.63" x2="466.92" y2="539.21"></line>
      <line class="cls-1" x1="466.92" y1="539.2" x2="474.13" y2="546.17"></line>
      <g>
        <path class="cls-7" d="M453.09,513.67c.37.11.85.36,1.26.66.64.45.91.94.89,1.58-.01.51-.26,1.13-.68,1.72-.72,1.01-1.59,1.41-2.27,1.34l-.02.03c.21.46.03,1.16-.43,2.03-.61,1.18-1.03,2-1.15,2.36l-.62-.44c.08-.27.45-1,1-2.05.62-1.16.66-1.73.14-2.15l-.56-.4-2.38,3.33-.6-.42,5.41-7.58ZM451.19,517.59l.61.44c.64.45,1.46.16,2.08-.72.71-.99.59-1.73-.04-2.19-.29-.21-.53-.31-.65-.33l-2,2.8Z"></path>
        <path class="cls-7" d="M458.53,519.22h-.01s-1.27.13-1.27.13l.43-.85,1.59-.17.51.37-5.29,7.41-.58-.42,4.62-6.48Z"></path>
        <path class="cls-7" d="M463.45,522.59l-1.7-1.21-1.53,1.78c.12.05.23.1.4.21.34.24.59.61.67,1.08.11.58-.05,1.42-.72,2.36-1.03,1.45-2.5,2.04-3.46,1.35-.49-.35-.73-.87-.78-1.25l.7-.66c.05.31.25.8.66,1.09.57.41,1.49.14,2.2-.85.68-.96.78-1.92-.11-2.56-.25-.18-.49-.28-.67-.36l2.83-3.35,2.13,1.52-.6.84Z"></path>
      </g>
      <line class="cls-1" x1="530.87" y1="362.43" x2="601.3" y2="430.72"></line>
      <line class="cls-1" x1="530.87" y1="362.43" x2="539.03" y2="368.27"></line>
      <line class="cls-1" x1="539.03" y1="368.27" x2="536.96" y2="370.4"></line>
      <line class="cls-1" x1="536.96" y1="370.4" x2="530.87" y2="362.43"></line>
      <g>
        <path class="cls-7" d="M595.79,405.56c.35.17.78.49,1.14.84.56.54.76,1.07.64,1.7-.09.5-.42,1.07-.93,1.6-.87.89-1.78,1.16-2.44.99l-.03.03c.14.49-.14,1.15-.73,1.95-.78,1.07-1.32,1.82-1.49,2.16l-.54-.53c.12-.25.59-.93,1.3-1.88.79-1.05.91-1.62.46-2.11l-.5-.48-2.85,2.94-.53-.51,6.49-6.69ZM593.32,409.16l.54.52c.56.54,1.42.38,2.17-.4.85-.87.84-1.62.29-2.17-.25-.25-.47-.38-.6-.42l-2.4,2.47Z"></path>
        <path class="cls-7" d="M600.33,411.86h-.01s-1.28-.06-1.28-.06l.55-.77,1.6.07.45.44-6.34,6.54-.51-.5,5.54-5.71Z"></path>
        <path class="cls-7" d="M604.7,415.94l-1.5-1.45-1.78,1.53c.11.07.21.13.36.27.3.29.5.7.5,1.17.03.59-.27,1.4-1.07,2.22-1.24,1.28-2.78,1.64-3.63.82-.43-.42-.6-.97-.59-1.35l.79-.55c0,.32.13.83.49,1.18.5.49,1.46.36,2.3-.52.81-.85,1.06-1.78.28-2.54-.22-.22-.44-.35-.61-.46l3.3-2.89,1.88,1.82-.72.74Z"></path>
      </g>
      <line class="cls-1" x1="481.36" y1="309.44" x2="452.42" y2="314.67"></line>
      <line class="cls-1" x1="481.36" y1="309.44" x2="471.86" y2="312.66"></line>
      <line class="cls-1" x1="471.86" y1="312.66" x2="471.33" y2="309.74"></line>
      <line class="cls-1" x1="471.33" y1="309.74" x2="481.36" y2="309.44"></line>
      <g>
        <path class="cls-7" d="M450.52,300.48c.34-.19.85-.35,1.35-.44.77-.14,1.31,0,1.75.47.36.36.63.97.76,1.68.22,1.23-.09,2.12-.62,2.56v.04c.48.17.86.79,1.17,1.73.42,1.26.71,2.14.89,2.47l-.75.13c-.14-.25-.41-1.02-.77-2.15-.4-1.25-.78-1.68-1.44-1.6l-.68.12.73,4.02-.72.13-1.66-9.17ZM452,304.59l.74-.13c.77-.14,1.13-.93.94-1.99-.22-1.2-.83-1.63-1.6-1.5-.35.06-.59.16-.69.24l.61,3.39Z"></path>
        <path class="cls-7" d="M458.29,300.46h-.02s-.78,1.01-.78,1.01l-.31-.9.99-1.26.62-.11,1.62,8.96-.7.13-1.42-7.83Z"></path>
        <path class="cls-7" d="M464.14,299.29l-2.05.37.21,2.34c.12-.05.23-.1.43-.13.41-.08.85,0,1.25.27.49.32.98,1.03,1.19,2.16.32,1.75-.28,3.21-1.45,3.42-.59.11-1.13-.08-1.44-.31v-.96c.28.18.77.38,1.25.29.69-.12,1.14-.97.92-2.17-.22-1.16-.83-1.9-1.91-1.71-.31.06-.54.15-.73.23l-.43-4.36,2.57-.46.18,1.02Z"></path>
      </g>
      <line class="cls-1" x1="679.01" y1="311.15" x2="715.83" y2="348.84"></line>
      <line class="cls-1" x1="679.01" y1="311.15" x2="687" y2="317.21"></line>
      <line class="cls-1" x1="687" y1="317.21" x2="684.87" y2="319.29"></line>
      <line class="cls-1" x1="684.87" y1="319.29" x2="679.01" y2="311.15"></line>
      <g>
        <path class="cls-7" d="M711.02,323.48c.35.18.77.51,1.12.87.55.56.73,1.09.59,1.71-.1.5-.45,1.06-.97,1.57-.89.87-1.81,1.11-2.47.92l-.03.03c.12.49-.17,1.15-.78,1.93-.81,1.05-1.37,1.78-1.55,2.12l-.53-.54c.12-.25.62-.91,1.35-1.85.81-1.03.95-1.59.52-2.09l-.48-.49-2.93,2.86-.51-.52,6.66-6.51ZM708.46,327.01l.52.54c.55.56,1.4.41,2.17-.34.87-.85.88-1.6.35-2.17-.25-.25-.46-.39-.59-.44l-2.46,2.41Z"></path>
        <path class="cls-7" d="M709.72,333.45c-.01.31.08.9.44,1.27.66.68,1.59.19,2.13-.35.91-.9.81-1.77.31-2.28l-.29-.29.66-.65.29.29c.38.38,1.18.55,1.96-.2.52-.51.79-1.16.31-1.64-.31-.31-.83-.39-1.19-.36l.51-.77c.45-.04,1.09.11,1.5.53.75.77.33,1.86-.46,2.64-.67.66-1.48.97-2.24.78l-.02.02c.31.64.09,1.62-.82,2.51-1.04,1.02-2.43,1.42-3.35.48-.43-.44-.58-1.05-.55-1.45l.82-.52Z"></path>
        <path class="cls-7" d="M717.46,336.74c-2.21,2.16-3.92,2.86-4.76,2-.75-.76-.06-2.45,2.08-4.56,2.18-2.13,3.94-2.74,4.72-1.95.8.82.04,2.49-2.03,4.51ZM715.29,334.72c-1.69,1.65-2.35,2.91-1.88,3.39.53.54,1.83-.23,3.5-1.85,1.6-1.57,2.42-2.84,1.88-3.39-.45-.46-1.72.12-3.5,1.85Z"></path>
      </g>
      <line class="cls-1" x1="568.76" y1="305.95" x2="557.91" y2="337.48"></line>
      <line class="cls-1" x1="568.76" y1="305.95" x2="566.94" y2="315.81"></line>
      <line class="cls-1" x1="566.94" y1="315.81" x2="564.13" y2="314.84"></line>
      <line class="cls-1" x1="564.13" y1="314.84" x2="568.76" y2="305.95"></line>
      <g>
        <path class="cls-7" d="M544.61,332.19c0-.39.11-.91.27-1.39.25-.74.64-1.14,1.26-1.3.49-.13,1.15-.07,1.84.16,1.18.41,1.81,1.12,1.93,1.79h.04c.38-.32,1.1-.35,2.07-.15,1.31.25,2.21.42,2.59.43l-.25.72c-.28,0-1.09-.14-2.26-.38-1.29-.27-1.85-.14-2.1.48l-.22.65,3.87,1.33-.24.69-8.81-3.03ZM548.92,332.9l.24-.71c.25-.74-.26-1.44-1.28-1.79-1.15-.4-1.83-.07-2.09.66-.12.33-.15.59-.13.72l3.26,1.12Z"></path>
        <path class="cls-7" d="M548.39,325.4v.02s.49,1.18.49,1.18l-.93-.17-.62-1.48.21-.6,8.61,2.96-.23.67-7.52-2.59Z"></path>
        <path class="cls-7" d="M556.79,325.43l-.72-.25-.7-.85c-1.64-2.04-2.55-3.02-3.84-3.47-.88-.3-1.77-.32-2.04.45-.16.47.1,1,.35,1.35l-.9-.06c-.38-.53-.57-1.17-.37-1.76.38-1.11,1.82-1.14,3.05-.72,1.59.55,2.64,1.68,4.01,3.37l.49.63h.03s.8-2.31.8-2.31l.97.33-1.14,3.3Z"></path>
      </g>
      <line class="cls-1" x1="617.16" y1="300.49" x2="632.8" y2="331.41"></line>
      <line class="cls-1" x1="617.16" y1="300.49" x2="622.97" y2="308.67"></line>
      <line class="cls-1" x1="622.97" y1="308.67" x2="620.31" y2="310.01"></line>
      <line class="cls-1" x1="620.31" y1="310.01" x2="617.16" y2="300.49"></line>
      <g>
        <path class="cls-7" d="M633.03,300.2c.28.27.58.72.81,1.16.35.7.37,1.26.05,1.81-.25.44-.75.88-1.4,1.21-1.11.56-2.06.52-2.63.13l-.04.02c-.03.5-.51,1.04-1.32,1.6-1.09.76-1.84,1.29-2.12,1.56l-.34-.67c.2-.2.86-.68,1.84-1.36,1.09-.74,1.39-1.23,1.12-1.84l-.31-.62-3.65,1.85-.33-.65,8.31-4.2ZM629.52,302.79l.34.67c.35.7,1.21.82,2.18.33,1.09-.55,1.32-1.26.99-1.96-.16-.32-.32-.52-.43-.6l-3.08,1.55Z"></path>
        <path class="cls-7" d="M627.44,309.8l.68-.34,1.1.09c2.61.25,3.94.28,5.17-.33.82-.42,1.47-1.04,1.1-1.77-.22-.44-.78-.62-1.21-.69l.67-.6c.65.1,1.24.4,1.52.96.53,1.05-.44,2.1-1.61,2.69-1.5.76-3.04.72-5.21.52l-.8-.09h-.03s1.11,2.2,1.11,2.2l-.91.46-1.58-3.11Z"></path>
        <path class="cls-7" d="M630.42,315.68l2.21-1.12-1.14-2.27.72-.37,6.29-.45.36.71-5.05,2.55.34.68-.86.44-.34-.68-2.21,1.12-.32-.62ZM633.49,314.13l2.71-1.37c.42-.22.85-.42,1.29-.62v-.02c-.56.09-.97.15-1.42.2l-3.37.2h-.03s.81,1.61.81,1.61Z"></path>
      </g>
      <line class="cls-1" x1="579.84" y1="281.01" x2="579.84" y2="304.97"></line>
      <line class="cls-1" x1="586.47" y1="281.01" x2="586.47" y2="304.97"></line>
      <line class="cls-1" x1="579.84" y1="285.97" x2="613.86" y2="285.97"></line>
      <line class="cls-1" x1="579.84" y1="285.97" x2="569.92" y2="284.48"></line>
      <line class="cls-1" x1="569.92" y1="284.48" x2="569.92" y2="287.46"></line>
      <line class="cls-1" x1="569.92" y1="287.46" x2="579.84" y2="285.97"></line>
      <line class="cls-1" x1="579.84" y1="285.97" x2="565.95" y2="285.97"></line>
      <line class="cls-1" x1="586.47" y1="285.97" x2="596.39" y2="287.46"></line>
      <line class="cls-1" x1="596.39" y1="287.46" x2="596.39" y2="284.48"></line>
      <line class="cls-1" x1="596.39" y1="284.48" x2="586.47" y2="285.97"></line>
      <line class="cls-1" x1="586.47" y1="285.97" x2="600.36" y2="285.97"></line>
      <g>
        <path class="cls-7" d="M592.09,281.01v-.76l.58-.94c1.4-2.21,2.03-3.39,2.04-4.76,0-.92-.27-1.78-1.08-1.78-.5,0-.91.42-1.16.77l-.24-.87c.38-.53.92-.92,1.55-.92,1.18,0,1.67,1.34,1.67,2.65,0,1.68-.73,3.04-1.88,4.89l-.44.67v.03h2.46v1.02h-3.49Z"></path>
        <path class="cls-7" d="M596.46,280.28c0-.52.21-.88.5-.88s.5.36.5.88-.19.88-.5.88-.5-.38-.5-.88Z"></path>
        <path class="cls-7" d="M598.32,279.6c.21.22.7.57,1.21.57.95,0,1.24-1.01,1.24-1.77,0-1.27-.7-1.82-1.41-1.82h-.41v-.92h.41c.54,0,1.22-.46,1.22-1.54,0-.73-.28-1.37-.96-1.37-.44,0-.86.32-1.09.6l-.19-.9c.29-.35.84-.7,1.43-.7,1.08,0,1.56,1.06,1.56,2.17,0,.94-.34,1.74-1.01,2.14v.03c.67.22,1.22,1.06,1.22,2.34,0,1.46-.68,2.73-1.99,2.73-.61,0-1.15-.32-1.42-.62l.2-.95Z"></path>
        <path class="cls-7" d="M604.74,281.01v-2.48h-2.54v-.81l2.44-5.81h.8v5.66h.76v.97h-.76v2.48h-.7ZM604.74,277.57v-3.04c0-.48,0-.95.03-1.43h-.03c-.17.53-.3.92-.45,1.34l-1.34,3.1v.03h1.79Z"></path>
      </g>
      <line class="cls-1" x1="705.98" y1="179.84" x2="738.39" y2="120.74"></line>
      <line class="cls-1" x1="705.98" y1="179.84" x2="709.45" y2="170.43"></line>
      <line class="cls-1" x1="709.45" y1="170.43" x2="712.06" y2="171.86"></line>
      <line class="cls-1" x1="712.06" y1="171.86" x2="705.98" y2="179.84"></line>
      <g>
        <path class="cls-7" d="M718.4,127.52c.07-.39.26-.88.5-1.33.38-.69.83-1.01,1.46-1.07.51-.05,1.15.12,1.79.47,1.09.6,1.59,1.41,1.6,2.09l.04.02c.43-.26,1.15-.17,2.07.18,1.24.47,2.11.79,2.48.86l-.36.66c-.28-.05-1.05-.33-2.16-.75-1.22-.48-1.8-.45-2.15.11l-.33.6,3.59,1.97-.35.64-8.17-4.48ZM722.53,128.95l.36-.66c.38-.69-.01-1.46-.96-1.98-1.07-.59-1.79-.38-2.17.29-.17.31-.24.56-.25.69l3.02,1.66Z"></path>
        <path class="cls-7" d="M723.75,120.01c-.08.13-.17.3-.22.51-.28,1.17.67,2.39,1.92,3.22v-.02c-.37-.5-.57-1.13-.28-1.66.46-.85,1.81-.89,3.37-.03,1.46.8,2.49,2.14,1.94,3.13-.56,1.02-2.26.97-4.33-.17-1.57-.86-2.63-1.88-3.15-2.78-.43-.75-.55-1.51-.34-2.18.06-.22.13-.39.2-.51l.88.48ZM728.26,122.71c-1.14-.63-2.04-.61-2.37-.02-.21.39,0,.97.47,1.47.1.11.24.23.44.34,1.32.71,2.49.88,2.86.2.31-.56-.26-1.36-1.4-1.99Z"></path>
      </g>
      <line class="cls-1" x1="668.74" y1="178.88" x2="636.07" y2="121.97"></line>
      <line class="cls-1" x1="668.74" y1="178.88" x2="662.51" y2="171.02"></line>
      <line class="cls-1" x1="662.51" y1="171.02" x2="665.09" y2="169.54"></line>
      <line class="cls-1" x1="665.09" y1="169.54" x2="668.74" y2="178.88"></line>
      <g>
        <path class="cls-7" d="M648.77,115.39c.29.26.62.68.87,1.12.39.68.43,1.23.15,1.81-.22.46-.7.92-1.33,1.28-1.08.62-2.03.62-2.62.27l-.04.02c0,.51-.46,1.06-1.24,1.67-1.05.82-1.77,1.39-2.03,1.67l-.38-.66c.18-.21.83-.73,1.77-1.45,1.05-.79,1.32-1.3,1.03-1.9l-.34-.6-3.55,2.04-.36-.63,8.08-4.64ZM645.41,118.17l.37.65c.39.68,1.26.75,2.19.22,1.06-.61,1.25-1.33.88-2.01-.18-.31-.35-.5-.46-.57l-2.99,1.72Z"></path>
        <path class="cls-7" d="M645.02,124.72c-.09.29-.15.89.11,1.34.47.82,1.49.58,2.15.19,1.1-.64,1.23-1.51.88-2.13l-.21-.36.8-.46.21.36c.27.47,1.01.83,1.94.29.63-.36,1.05-.92.71-1.51-.22-.38-.71-.58-1.07-.65l.68-.61c.45.07,1.03.38,1.32.89.54.93-.14,1.89-1.1,2.44-.81.47-1.67.57-2.36.19h-.02c.14.71-.32,1.6-1.42,2.24-1.26.73-2.71.77-3.36-.37-.31-.53-.29-1.16-.17-1.54l.93-.3Z"></path>
      </g>
      <line class="cls-1" x1="386.57" y1="248.21" x2="342.73" y2="272.36"></line>
      <line class="cls-1" x1="386.57" y1="248.21" x2="378.6" y2="254.3"></line>
      <line class="cls-1" x1="378.6" y1="254.3" x2="377.17" y2="251.69"></line>
      <line class="cls-1" x1="377.17" y1="251.69" x2="386.57" y2="248.21"></line>
      <g>
        <path class="cls-7" d="M351.28,251.44c.26-.29.69-.6,1.14-.85.68-.38,1.24-.41,1.81-.12.45.23.9.72,1.26,1.36.6,1.09.59,2.04.23,2.62l.02.04c.5,0,1.06.47,1.65,1.27.8,1.06,1.35,1.8,1.63,2.06l-.66.37c-.21-.19-.71-.84-1.42-1.79-.78-1.06-1.28-1.34-1.88-1.06l-.6.33,1.97,3.58-.64.35-4.5-8.16ZM354,254.85l.66-.36c.69-.38.77-1.24.25-2.19-.59-1.07-1.31-1.28-1.99-.92-.31.17-.5.34-.58.45l1.66,3.02Z"></path>
        <path class="cls-7" d="M359.9,254.69c-.55-1.01-.59-1.92-.23-2.66l-.03-.03c-.76-.12-1.37-.69-1.75-1.37-.7-1.26-.53-2.47.31-2.94.93-.51,1.93.2,2.47,1.2.37.68.57,1.51.24,2.3l.02.04c.81.06,1.57.56,2.1,1.53.76,1.39.56,2.71-.35,3.22-1,.55-2.15-.11-2.8-1.28ZM358.47,250.21c.44.8,1.04,1.03,1.73.97.28-.46.33-1.13-.07-1.85-.35-.64-.95-1.17-1.53-.85-.54.3-.51,1.05-.13,1.73ZM362.45,253.22c-.53-.97-1.2-1.21-2.01-1.16-.41.58-.38,1.36.04,2.12.42.82,1.18,1.33,1.79.99.58-.32.63-1.13.17-1.95Z"></path>
      </g>
      <line class="cls-1" x1="486.05" y1="556.71" x2="497.63" y2="556.71"></line>
      <line class="cls-1" x1="486.05" y1="609.84" x2="518.99" y2="609.84"></line>
      <line class="cls-1" x1="491.01" y1="556.71" x2="491.01" y2="609.84"></line>
      <line class="cls-1" x1="491.01" y1="556.71" x2="492.5" y2="566.62"></line>
      <line class="cls-1" x1="492.5" y1="566.62" x2="489.52" y2="566.62"></line>
      <line class="cls-1" x1="489.52" y1="566.62" x2="491.01" y2="556.71"></line>
      <line class="cls-1" x1="491.01" y1="609.84" x2="489.52" y2="599.93"></line>
      <line class="cls-1" x1="489.52" y1="599.93" x2="492.5" y2="599.93"></line>
      <line class="cls-1" x1="492.5" y1="599.93" x2="491.01" y2="609.84"></line>
      <g>
        <path class="cls-7" d="M478.1,595.34v.02l.85.95-.94.14-1.06-1.19v-.63h9.1v.71h-7.96Z"></path>
        <path class="cls-7" d="M483.74,592.7c-1.15,0-1.96-.41-2.44-1.08h-.04c-.48.61-1.26.87-2.04.87-1.44,0-2.42-.73-2.42-1.69,0-1.06,1.11-1.59,2.24-1.59.77,0,1.6.23,2.13.9h.04c.45-.68,1.25-1.1,2.35-1.1,1.58,0,2.65.82,2.65,1.86,0,1.14-1.13,1.83-2.47,1.83ZM479.13,591.79c.91,0,1.4-.41,1.68-1.04-.27-.47-.83-.83-1.65-.83-.73,0-1.49.26-1.49.92,0,.61.67.95,1.46.95ZM483.68,589.76c-1.11,0-1.64.46-1.99,1.2.31.64,1.01.98,1.88.98.92.02,1.74-.4,1.74-1.09s-.69-1.09-1.62-1.09Z"></path>
        <path class="cls-7" d="M485.32,588.26c-.52,0-.88-.21-.88-.5s.36-.5.88-.5.88.19.88.5-.38.5-.88.5Z"></path>
        <path class="cls-7" d="M476.95,583.03h.81l8.29,2.38v.76l-8.05-2.37h-.03v2.67h-1.02v-3.45Z"></path>
        <path class="cls-7" d="M477.98,579.01v2.08l2.34.21c-.03-.13-.06-.24-.06-.45,0-.42.15-.84.49-1.18.41-.43,1.19-.78,2.34-.78,1.78,0,3.11.85,3.11,2.04,0,.6-.28,1.1-.56,1.36l-.94-.18c.22-.23.5-.67.5-1.17,0-.7-.76-1.29-1.97-1.29-1.18,0-2.02.48-2.02,1.57,0,.31.06.56.1.76l-4.37-.35v-2.62h1.04Z"></path>
      </g>
      <line class="cls-1" x1="257.84" y1="581.77" x2="297.13" y2="581.77"></line>
      <line class="cls-1" x1="257.84" y1="609.84" x2="297.13" y2="609.84"></line>
      <line class="cls-1" x1="262.8" y1="581.77" x2="262.8" y2="609.85"></line>
      <line class="cls-1" x1="262.8" y1="581.77" x2="264.29" y2="591.68"></line>
      <line class="cls-1" x1="264.29" y1="591.68" x2="261.31" y2="591.68"></line>
      <line class="cls-1" x1="261.31" y1="591.68" x2="262.8" y2="581.77"></line>
      <line class="cls-1" x1="262.8" y1="609.84" x2="261.31" y2="599.93"></line>
      <line class="cls-1" x1="261.31" y1="599.93" x2="264.29" y2="599.93"></line>
      <line class="cls-1" x1="264.29" y1="599.93" x2="262.8" y2="609.84"></line>
      <g>
        <path class="cls-7" d="M256.97,606.07c.03-.16,0-.34-.04-.6-.1-.43-.39-.83-.88-1.14-.55-.36-1.34-.62-2.42-.72v.03c.62.3.98.74.98,1.29,0,.98-1.23,1.61-2.79,1.61-1.72,0-3.24-.75-3.24-1.87s1.51-1.81,3.84-1.81c2,0,3.4.4,4.27.94.69.42,1.11,1,1.22,1.59.07.27.08.5.07.68h-1.01ZM251.74,605.8c1.13,0,1.93-.41,1.93-1.05,0-.5-.41-.88-.95-1.08-.11-.04-.25-.07-.45-.07-1.55,0-2.75.34-2.75,1.12,0,.63.92,1.08,2.21,1.08Z"></path>
        <path class="cls-7" d="M257.11,602.13c-.52,0-.88-.21-.88-.5s.36-.5.88-.5.88.19.88.5-.38.5-.88.5Z"></path>
        <path class="cls-7" d="M256.97,600.02c.03-.16,0-.34-.04-.6-.1-.43-.39-.83-.88-1.14-.55-.36-1.34-.62-2.42-.72v.03c.62.3.98.74.98,1.29,0,.98-1.23,1.61-2.79,1.61-1.72,0-3.24-.75-3.24-1.87s1.51-1.81,3.84-1.81c2,0,3.4.4,4.27.94.69.42,1.11,1,1.22,1.59.07.27.08.5.07.68h-1.01ZM251.74,599.75c1.13,0,1.93-.41,1.93-1.05,0-.5-.41-.88-.95-1.08-.11-.04-.25-.07-.45-.07-1.55,0-2.75.34-2.75,1.12,0,.63.92,1.08,2.21,1.08Z"></path>
        <path class="cls-7" d="M249.89,594.53v.02l.85.95-.94.14-1.06-1.19v-.63h9.1v.71h-7.96Z"></path>
      </g>
      <line class="cls-1" x1="299.96" y1="760.22" x2="299.96" y2="607.01"></line>
      <line class="cls-1" x1="500.46" y1="760.22" x2="500.46" y2="580.12"></line>
      <line class="cls-1" x1="299.96" y1="755.26" x2="500.46" y2="755.26"></line>
      <line class="cls-1" x1="299.96" y1="755.26" x2="309.88" y2="753.77"></line>
      <line class="cls-1" x1="309.88" y1="753.77" x2="309.88" y2="756.75"></line>
      <line class="cls-1" x1="309.88" y1="756.75" x2="299.96" y2="755.26"></line>
      <line class="cls-1" x1="500.46" y1="755.26" x2="490.54" y2="756.75"></line>
      <line class="cls-1" x1="490.54" y1="756.75" x2="490.54" y2="753.77"></line>
      <line class="cls-1" x1="490.54" y1="753.77" x2="500.46" y2="755.26"></line>
      <g>
        <path class="cls-7" d="M382.43,740.58c-.61,1.37-1.06,3.19-1.06,5.73s.46,4.29,1.06,5.69h-.58c-.53-1.16-1.1-2.96-1.1-5.69,0-2.76.57-4.55,1.1-5.73h.58Z"></path>
        <path class="cls-7" d="M386.53,741.2v.81l-2.38,8.29h-.76l2.37-8.05v-.03h-2.67v-1.02h3.45Z"></path>
        <path class="cls-7" d="M390.92,745.65c0,3.1-.69,4.8-1.9,4.8-1.07,0-1.79-1.67-1.81-4.68,0-3.05.79-4.73,1.9-4.73s1.81,1.71,1.81,4.61ZM387.96,745.79c0,2.37.44,3.71,1.11,3.71.76,0,1.12-1.47,1.12-3.8s-.34-3.71-1.11-3.71c-.65,0-1.12,1.32-1.12,3.8Z"></path>
        <path class="cls-7" d="M391.66,749.57c0-.52.21-.88.5-.88s.5.36.5.88-.19.88-.5.88-.5-.38-.5-.88Z"></path>
        <path class="cls-7" d="M396.89,741.2v.81l-2.38,8.29h-.76l2.37-8.05v-.03h-2.67v-1.02h3.45Z"></path>
        <path class="cls-7" d="M400.92,742.23h-2.08l-.21,2.34c.13-.03.24-.06.45-.06.42,0,.84.15,1.18.49.43.41.78,1.19.78,2.34,0,1.78-.85,3.11-2.04,3.11-.6,0-1.1-.28-1.36-.56l.18-.94c.23.22.67.5,1.17.5.7,0,1.29-.76,1.29-1.97,0-1.18-.48-2.02-1.57-2.02-.31,0-.56.06-.76.1l.35-4.37h2.62v1.04Z"></path>
        <path class="cls-7" d="M401.76,752c.6-1.39,1.06-3.21,1.06-5.73s-.45-4.3-1.06-5.69h.57c.54,1.15,1.1,2.94,1.1,5.7s-.56,4.52-1.1,5.72h-.57Z"></path>
      </g>
      <line class="cls-1" x1="500.46" y1="760.22" x2="500.46" y2="577.1"></line>
      <line class="cls-1" x1="700.96" y1="760.22" x2="700.96" y2="607.01"></line>
      <line class="cls-1" x1="500.46" y1="755.26" x2="700.96" y2="755.26"></line>
      <line class="cls-1" x1="500.46" y1="755.26" x2="510.38" y2="753.77"></line>
      <line class="cls-1" x1="510.38" y1="753.77" x2="510.38" y2="756.75"></line>
      <line class="cls-1" x1="510.38" y1="756.75" x2="500.46" y2="755.26"></line>
      <line class="cls-1" x1="700.96" y1="755.26" x2="691.04" y2="756.75"></line>
      <line class="cls-1" x1="691.04" y1="756.75" x2="691.04" y2="753.77"></line>
      <line class="cls-1" x1="691.04" y1="753.77" x2="700.96" y2="755.26"></line>
      <g>
        <path class="cls-7" d="M582.93,740.58c-.61,1.37-1.06,3.19-1.06,5.73s.46,4.29,1.06,5.69h-.58c-.53-1.16-1.1-2.96-1.1-5.69,0-2.76.57-4.55,1.1-5.73h.58Z"></path>
        <path class="cls-7" d="M587.02,741.2v.81l-2.38,8.29h-.76l2.37-8.05v-.03h-2.67v-1.02h3.45Z"></path>
        <path class="cls-7" d="M591.42,745.65c0,3.1-.69,4.8-1.9,4.8-1.07,0-1.79-1.67-1.81-4.68,0-3.05.79-4.73,1.9-4.73s1.81,1.71,1.81,4.61ZM588.45,745.79c0,2.37.44,3.71,1.11,3.71.76,0,1.12-1.47,1.12-3.8s-.34-3.71-1.11-3.71c-.65,0-1.12,1.32-1.12,3.8Z"></path>
        <path class="cls-7" d="M592.16,749.57c0-.52.21-.88.5-.88s.5.36.5.88-.19.88-.5.88-.5-.38-.5-.88Z"></path>
        <path class="cls-7" d="M597.39,741.2v.81l-2.38,8.29h-.76l2.37-8.05v-.03h-2.67v-1.02h3.45Z"></path>
        <path class="cls-7" d="M601.41,742.23h-2.08l-.21,2.34c.13-.03.24-.06.45-.06.42,0,.84.15,1.18.49.43.41.78,1.19.78,2.34,0,1.78-.85,3.11-2.04,3.11-.6,0-1.1-.28-1.36-.56l.18-.94c.23.22.67.5,1.17.5.7,0,1.29-.76,1.29-1.97,0-1.18-.48-2.02-1.57-2.02-.31,0-.56.06-.76.1l.35-4.37h2.62v1.04Z"></path>
        <path class="cls-7" d="M602.25,752c.6-1.39,1.06-3.21,1.06-5.73s-.45-4.3-1.06-5.69h.57c.54,1.15,1.1,2.94,1.1,5.7s-.56,4.52-1.1,5.72h-.57Z"></path>
      </g>
      <line class="cls-1" x1="714.82" y1="14.61" x2="714.82" y2="191.92"></line>
      <line class="cls-1" x1="383.76" y1="14.61" x2="383.76" y2="199.4"></line>
      <line class="cls-1" x1="714.82" y1="19.57" x2="383.76" y2="19.57"></line>
      <line class="cls-1" x1="714.82" y1="19.57" x2="704.9" y2="21.06"></line>
      <line class="cls-1" x1="704.9" y1="21.06" x2="704.9" y2="18.09"></line>
      <line class="cls-1" x1="704.9" y1="18.09" x2="714.82" y2="19.57"></line>
      <line class="cls-1" x1="383.76" y1="19.57" x2="393.68" y2="18.09"></line>
      <line class="cls-1" x1="393.68" y1="18.09" x2="393.68" y2="21.06"></line>
      <line class="cls-1" x1="393.68" y1="21.06" x2="383.76" y2="19.57"></line>
      <g class="cls-22">
        <g>
          <path class="cls-7" d="M534.25,6.66h-.02l-.95.85-.14-.94,1.19-1.06h.63v9.1h-.71v-7.96Z"></path>
          <path class="cls-7" d="M538.56,6.66h-.02l-.95.85-.14-.94,1.19-1.06h.63v9.1h-.71v-7.96Z"></path>
          <path class="cls-7" d="M544.39,6.38c-.15-.01-.34,0-.55.06-1.16.32-1.77,1.74-1.9,3.24h.02c.26-.57.71-1.05,1.32-1.05.97,0,1.65,1.16,1.65,2.94,0,1.67-.68,3.21-1.82,3.21s-1.93-1.51-1.93-3.88c0-1.79.39-3.21.92-4.1.45-.74,1.06-1.2,1.75-1.34.22-.06.4-.07.54-.07v1.01ZM544.18,11.63c0-1.3-.45-2.09-1.13-2.09-.45,0-.86.46-1.06,1.12-.05.14-.08.32-.08.55.02,1.5.43,2.61,1.2,2.61.64,0,1.07-.88,1.07-2.19Z"></path>
          <path class="cls-7" d="M545.64,13.89c0-.52.21-.88.5-.88s.5.36.5.88-.19.88-.5.88-.5-.38-.5-.88Z"></path>
          <path class="cls-7" d="M547.25,12.3c0-1.15.41-1.96,1.08-2.44v-.04c-.61-.48-.87-1.26-.87-2.05,0-1.44.73-2.42,1.69-2.42,1.06,0,1.59,1.11,1.59,2.24,0,.77-.23,1.6-.9,2.13v.04c.68.45,1.1,1.25,1.1,2.35,0,1.58-.82,2.65-1.86,2.65-1.14,0-1.83-1.13-1.83-2.47ZM550.2,12.25c0-1.11-.46-1.64-1.2-1.99-.64.31-.98,1.01-.98,1.88-.02.92.4,1.74,1.09,1.74s1.09-.69,1.09-1.62ZM548.16,7.7c0,.91.41,1.4,1.04,1.68.47-.27.83-.83.83-1.65,0-.73-.26-1.48-.92-1.48-.61,0-.95.67-.95,1.46Z"></path>
          <path class="cls-7" d="M551.63,14.62v-.76l.58-.94c1.4-2.21,2.03-3.39,2.04-4.76,0-.92-.27-1.78-1.08-1.78-.5,0-.91.42-1.16.77l-.24-.87c.38-.53.92-.92,1.55-.92,1.18,0,1.67,1.34,1.67,2.65,0,1.68-.73,3.04-1.88,4.89l-.44.67v.03h2.46v1.02h-3.49Z"></path>
        </g>
      </g>
      <line class="cls-1" x1="180.43" y1="177.76" x2="451.09" y2="177.76"></line>
      <line class="cls-1" x1="180.43" y1="609.84" x2="302.79" y2="609.84"></line>
      <line class="cls-1" x1="185.39" y1="177.76" x2="185.39" y2="609.84"></line>
      <line class="cls-1" x1="185.39" y1="177.76" x2="186.88" y2="187.68"></line>
      <line class="cls-1" x1="186.88" y1="187.68" x2="183.9" y2="187.68"></line>
      <line class="cls-1" x1="183.9" y1="187.68" x2="185.39" y2="177.76"></line>
      <line class="cls-1" x1="185.39" y1="609.84" x2="183.9" y2="599.93"></line>
      <line class="cls-1" x1="183.9" y1="599.93" x2="186.88" y2="599.93"></line>
      <line class="cls-1" x1="186.88" y1="599.93" x2="185.39" y2="609.84"></line>
      <g class="cls-20">
        <g>
          <path class="cls-7" d="M172.47,405.86v.02l.85.95-.94.14-1.06-1.19v-.63h9.1v.71h-7.96Z"></path>
          <path class="cls-7" d="M172.36,399.89v2.08l2.34.21c-.03-.13-.06-.24-.06-.45,0-.42.15-.84.49-1.18.41-.43,1.19-.78,2.34-.78,1.78,0,3.11.85,3.11,2.04,0,.6-.28,1.1-.56,1.36l-.94-.18c.22-.23.5-.67.5-1.17,0-.7-.76-1.29-1.97-1.29-1.18,0-2.02.48-2.02,1.57,0,.31.06.56.1.76l-4.37-.35v-2.62h1.04Z"></path>
          <path class="cls-7" d="M180.43,398.84h-.76l-.94-.58c-2.21-1.4-3.39-2.03-4.76-2.03-.92,0-1.78.27-1.78,1.08,0,.5.42.91.77,1.16l-.87.24c-.53-.38-.92-.92-.92-1.55,0-1.18,1.34-1.67,2.65-1.67,1.68,0,3.04.73,4.89,1.88l.67.44h.03v-2.46h1.02v3.49Z"></path>
          <path class="cls-7" d="M179.7,394.48c-.52,0-.88-.21-.88-.5s.36-.5.88-.5.88.19.88.5c0,.29-.38.5-.88.5Z"></path>
          <path class="cls-7" d="M172.36,389.53v2.09l2.34.21c-.03-.13-.06-.24-.06-.45,0-.42.15-.84.49-1.18.41-.43,1.19-.78,2.34-.78,1.78,0,3.11.85,3.11,2.03,0,.6-.28,1.1-.56,1.36l-.94-.19c.22-.23.5-.67.5-1.17,0-.7-.76-1.29-1.97-1.29-1.18,0-2.02.48-2.02,1.57,0,.31.06.55.1.76l-4.37-.35v-2.61h1.04Z"></path>
        </g>
      </g>
      <line class="cls-1" x1="277.5" y1="292.5" x2="497.62" y2="292.5"></line>
      <line class="cls-1" x1="277.5" y1="177.75" x2="380.93" y2="177.75"></line>
      <line class="cls-1" x1="282.46" y1="292.5" x2="282.46" y2="177.75"></line>
      <line class="cls-1" x1="282.46" y1="292.5" x2="280.97" y2="282.59"></line>
      <line class="cls-1" x1="280.97" y1="282.59" x2="283.94" y2="282.59"></line>
      <line class="cls-1" x1="283.95" y1="282.59" x2="282.46" y2="292.5"></line>
      <line class="cls-1" x1="282.46" y1="177.75" x2="283.95" y2="187.67"></line>
      <line class="cls-1" x1="283.95" y1="187.67" x2="280.97" y2="187.67"></line>
      <line class="cls-1" x1="280.97" y1="187.67" x2="282.46" y2="177.75"></line>
      <g>
        <path class="cls-7" d="M277.5,243.53h-2.48v2.54h-.81l-5.81-2.44v-.8h5.66v-.76h.97v.76h2.48v.7ZM274.05,243.53h-3.04c-.48,0-.95,0-1.43-.03v.03c.53.17.92.3,1.34.45l3.1,1.34h.03v-1.79Z"></path>
        <path class="cls-7" d="M272.85,237.88c3.1,0,4.8.69,4.8,1.9,0,1.07-1.67,1.79-4.68,1.81-3.05,0-4.73-.79-4.73-1.9s1.71-1.81,4.61-1.81ZM272.99,240.84c2.37,0,3.71-.44,3.71-1.11,0-.76-1.47-1.12-3.8-1.12s-3.71.34-3.71,1.11c0,.65,1.32,1.12,3.8,1.12Z"></path>
        <path class="cls-7" d="M276.77,237.14c-.52,0-.88-.21-.88-.5s.36-.5.88-.5.88.19.88.5c0,.29-.38.5-.88.5Z"></path>
        <path class="cls-7" d="M269.43,232.19v2.09l2.34.21c-.03-.13-.06-.24-.06-.45,0-.42.15-.84.49-1.18.41-.43,1.19-.78,2.34-.78,1.78,0,3.11.85,3.11,2.03,0,.6-.28,1.1-.56,1.36l-.94-.19c.22-.23.5-.67.5-1.17,0-.7-.76-1.29-1.97-1.29-1.18,0-2.02.48-2.02,1.57,0,.31.06.55.1.76l-4.37-.35v-2.61h1.04Z"></path>
      </g>
      <line class="cls-1" x1="839.11" y1="307.8" x2="646.92" y2="307.8"></line>
      <line class="cls-1" x1="839.11" y1="177.75" x2="720.72" y2="177.75"></line>
      <line class="cls-1" x1="834.15" y1="307.8" x2="834.15" y2="177.75"></line>
      <line class="cls-1" x1="834.15" y1="307.8" x2="832.67" y2="297.89"></line>
      <line class="cls-1" x1="832.67" y1="297.89" x2="835.64" y2="297.89"></line>
      <line class="cls-1" x1="835.64" y1="297.89" x2="834.15" y2="307.8"></line>
      <line class="cls-1" x1="834.15" y1="177.75" x2="835.64" y2="187.67"></line>
      <line class="cls-1" x1="835.64" y1="187.67" x2="832.67" y2="187.67"></line>
      <line class="cls-1" x1="832.67" y1="187.67" x2="834.15" y2="177.75"></line>
      <g>
        <path class="cls-7" d="M829.2,251.18h-2.48v2.54h-.81l-5.81-2.44v-.8h5.66v-.76h.97v.76h2.48v.7ZM825.75,251.18h-3.04c-.48,0-.95,0-1.43-.03v.03c.53.17.92.3,1.34.45l3.1,1.34h.03v-1.79Z"></path>
        <path class="cls-7" d="M821.13,245.9v2.09l2.34.21c-.03-.13-.06-.24-.06-.45,0-.42.15-.84.49-1.18.41-.43,1.19-.78,2.34-.78,1.78,0,3.11.85,3.11,2.03,0,.6-.28,1.1-.56,1.36l-.94-.19c.22-.23.5-.67.5-1.17,0-.7-.76-1.29-1.97-1.29-1.18,0-2.02.48-2.02,1.57,0,.31.06.55.1.76l-4.37-.35v-2.61h1.04Z"></path>
        <path class="cls-7" d="M828.47,244.79c-.52,0-.88-.21-.88-.5s.36-.5.88-.5.88.19.88.5c0,.29-.38.5-.88.5Z"></path>
        <path class="cls-7" d="M828.33,242.68c.03-.16,0-.34-.04-.6-.1-.43-.39-.83-.88-1.14-.55-.36-1.34-.62-2.42-.72v.03c.62.3.98.74.98,1.29,0,.98-1.23,1.61-2.79,1.61-1.72,0-3.24-.75-3.24-1.87s1.51-1.81,3.84-1.81c2,0,3.4.4,4.27.94.69.42,1.11,1,1.22,1.59.07.27.08.5.07.68h-1.01ZM823.09,242.41c1.13,0,1.93-.41,1.93-1.05,0-.5-.41-.88-.95-1.08-.11-.04-.25-.07-.45-.07-1.55,0-2.75.34-2.75,1.12,0,.63.92,1.08,2.21,1.08Z"></path>
      </g>
      <line class="cls-1" x1="831.53" y1="360.86" x2="503.29" y2="360.86"></line>
      <line class="cls-1" x1="831.53" y1="556.71" x2="503.29" y2="556.71"></line>
      <line class="cls-1" x1="826.57" y1="360.86" x2="826.57" y2="556.71"></line>
      <line class="cls-1" x1="826.57" y1="360.86" x2="828.06" y2="370.78"></line>
      <line class="cls-1" x1="828.06" y1="370.78" x2="825.08" y2="370.78"></line>
      <line class="cls-1" x1="825.08" y1="370.78" x2="826.57" y2="360.86"></line>
      <line class="cls-1" x1="826.57" y1="556.71" x2="825.08" y2="546.79"></line>
      <line class="cls-1" x1="825.08" y1="546.79" x2="828.06" y2="546.79"></line>
      <line class="cls-1" x1="828.06" y1="546.79" x2="826.57" y2="556.71"></line>
      <g>
        <path class="cls-7" d="M813.38,469.33c-.01.15,0,.34.06.56.32,1.16,1.74,1.77,3.24,1.9v-.02c-.57-.26-1.05-.71-1.05-1.32,0-.97,1.16-1.65,2.94-1.65,1.67,0,3.21.68,3.21,1.82s-1.51,1.93-3.88,1.93c-1.79,0-3.21-.39-4.1-.92-.74-.45-1.21-1.06-1.34-1.75-.06-.22-.07-.4-.07-.54h1.01ZM818.63,469.54c-1.3,0-2.09.45-2.09,1.13,0,.45.46.86,1.12,1.06.14.05.32.08.55.08,1.5-.02,2.61-.43,2.61-1.2,0-.64-.88-1.07-2.18-1.07Z"></path>
        <path class="cls-7" d="M820.74,467.71c.03-.16,0-.34-.04-.6-.1-.43-.39-.83-.88-1.14-.55-.36-1.34-.62-2.42-.72v.03c.62.3.98.74.98,1.29,0,.98-1.23,1.61-2.79,1.61-1.72,0-3.24-.75-3.24-1.87s1.51-1.81,3.84-1.81c2,0,3.4.4,4.27.94.69.42,1.11,1,1.22,1.59.07.27.08.5.07.68h-1.01ZM815.5,467.44c1.13,0,1.93-.41,1.93-1.05,0-.5-.41-.88-.95-1.08-.11-.04-.25-.07-.45-.07-1.55,0-2.75.34-2.75,1.12,0,.63.92,1.08,2.21,1.08Z"></path>
        <path class="cls-7" d="M820.88,463.77c-.52,0-.88-.21-.88-.5s.36-.5.88-.5.88.19.88.5-.38.5-.88.5Z"></path>
        <path class="cls-7" d="M813.66,460.48v.02l.85.95-.94.14-1.06-1.19v-.63h9.1v.71h-7.96Z"></path>
        <path class="cls-7" d="M821.61,457.78h-.76l-.94-.58c-2.21-1.4-3.39-2.03-4.76-2.04-.92,0-1.78.27-1.78,1.08,0,.5.42.91.77,1.16l-.87.24c-.53-.38-.92-.92-.92-1.55,0-1.18,1.34-1.67,2.65-1.67,1.68,0,3.04.73,4.89,1.88l.67.44h.03v-2.46h1.02v3.49Z"></path>
      </g>
      <g>
        <path class="cls-7" d="M611.81,325.56h-.02s-.84.97-.84.97l-.26-.91,1.05-1.2.63-.08,1.13,9.03-.71.09-.99-7.89Z"></path>
        <path class="cls-7" d="M614.84,327.49c-.06-.51.1-.9.39-.94s.53.3.6.81c.06.49-.08.89-.39.92-.29.04-.54-.31-.6-.8ZM615.45,332.4c-.06-.51.1-.9.39-.94.29-.04.53.3.6.81.06.49-.08.89-.39.92-.29.04-.54-.31-.6-.8Z"></path>
        <path class="cls-7" d="M619.44,324.49l-2.07.26.08,2.35c.12-.04.23-.08.43-.11.42-.05.85.05,1.23.34.48.35.92,1.08,1.07,2.22.22,1.77-.46,3.19-1.63,3.34-.59.07-1.13-.14-1.42-.39l.07-.95c.25.19.73.42,1.22.35.69-.09,1.19-.91,1.04-2.12-.15-1.17-.73-1.94-1.81-1.81-.31.04-.54.13-.74.19l-.19-4.38,2.59-.32.13,1.03Z"></path>
      </g>
      <line class="cls-1" x1="204.31" y1="609.84" x2="297.13" y2="609.84"></line>
      <line class="cls-1" x1="204.31" y1="385.91" x2="519.72" y2="385.91"></line>
      <line class="cls-1" x1="209.27" y1="609.84" x2="209.27" y2="385.91"></line>
      <line class="cls-1" x1="209.27" y1="609.84" x2="207.78" y2="599.93"></line>
      <line class="cls-1" x1="207.78" y1="599.93" x2="210.76" y2="599.93"></line>
      <line class="cls-1" x1="210.76" y1="599.93" x2="209.27" y2="609.84"></line>
      <line class="cls-1" x1="209.27" y1="385.91" x2="210.76" y2="395.83"></line>
      <line class="cls-1" x1="210.76" y1="395.83" x2="207.78" y2="395.83"></line>
      <line class="cls-1" x1="207.78" y1="395.83" x2="209.27" y2="385.91"></line>
      <g>
        <path class="cls-7" d="M195.21,508h.81l8.29,2.38v.76l-8.05-2.37h-.03v2.67h-1.02v-3.45Z"></path>
        <path class="cls-7" d="M203.45,506.81c.03-.16,0-.34-.04-.6-.1-.43-.39-.83-.88-1.14-.55-.36-1.34-.62-2.42-.72v.03c.62.3.98.74.98,1.29,0,.98-1.23,1.61-2.79,1.61-1.72,0-3.24-.75-3.24-1.87s1.51-1.81,3.84-1.81c2,0,3.4.4,4.27.94.69.42,1.11,1,1.22,1.59.07.27.08.5.07.68h-1.01ZM198.21,506.54c1.13,0,1.93-.41,1.93-1.05,0-.5-.41-.88-.95-1.08-.11-.04-.25-.07-.45-.07-1.55,0-2.75.34-2.75,1.12,0,.63.92,1.08,2.21,1.08Z"></path>
        <path class="cls-7" d="M203.58,502.86c-.52,0-.88-.21-.88-.5s.36-.5.88-.5.88.19.88.5-.38.5-.88.5Z"></path>
        <path class="cls-7" d="M199.66,497.55c3.1,0,4.8.69,4.8,1.9,0,1.07-1.67,1.79-4.68,1.81-3.05,0-4.73-.79-4.73-1.9s1.71-1.81,4.61-1.81ZM199.8,500.52c2.37,0,3.71-.44,3.71-1.11,0-.76-1.47-1.12-3.8-1.12s-3.71.34-3.71,1.11c0,.65,1.32,1.12,3.8,1.12Z"></path>
        <path class="cls-7" d="M202.9,496.7c.22-.21.57-.7.57-1.21,0-.95-1.01-1.24-1.76-1.24-1.27,0-1.82.7-1.82,1.41v.41h-.92v-.41c0-.54-.46-1.22-1.54-1.22-.73,0-1.37.28-1.37.96,0,.44.32.86.6,1.09l-.9.19c-.35-.29-.7-.84-.7-1.43,0-1.08,1.06-1.56,2.17-1.56.94,0,1.74.34,2.14,1.01h.03c.22-.67,1.06-1.22,2.34-1.22,1.46,0,2.73.68,2.73,1.99,0,.61-.32,1.15-.62,1.42l-.95-.2Z"></path>
      </g>
      <line class="cls-1" x1="522.55" y1="648.89" x2="522.55" y2="388.75"></line>
      <line class="cls-1" x1="500.46" y1="648.89" x2="500.46" y2="388.75"></line>
      <line class="cls-1" x1="553.59" y1="643.93" x2="500.46" y2="643.93"></line>
      <line class="cls-1" x1="522.55" y1="643.93" x2="532.47" y2="645.42"></line>
      <line class="cls-1" x1="532.47" y1="645.41" x2="532.47" y2="642.44"></line>
      <line class="cls-1" x1="532.47" y1="642.44" x2="522.55" y2="643.93"></line>
      <line class="cls-1" x1="522.55" y1="643.93" x2="536.44" y2="643.93"></line>
      <line class="cls-1" x1="500.46" y1="643.93" x2="490.54" y2="642.44"></line>
      <line class="cls-1" x1="490.54" y1="642.44" x2="490.54" y2="645.41"></line>
      <line class="cls-1" x1="490.54" y1="645.41" x2="500.46" y2="643.93"></line>
      <line class="cls-1" x1="500.46" y1="643.93" x2="486.57" y2="643.93"></line>
      <g>
        <path class="cls-7" d="M541.33,629.87v.81l-2.38,8.29h-.76l2.37-8.05v-.03h-2.67v-1.02h3.45Z"></path>
        <path class="cls-7" d="M542.15,638.24c0-.52.21-.88.5-.88s.5.36.5.88-.19.88-.5.88-.5-.38-.5-.88Z"></path>
        <path class="cls-7" d="M543.76,636.66c0-1.15.41-1.96,1.08-2.44v-.04c-.61-.48-.87-1.26-.87-2.04,0-1.44.73-2.42,1.69-2.42,1.06,0,1.59,1.11,1.59,2.24,0,.77-.23,1.6-.9,2.13v.04c.68.45,1.1,1.25,1.1,2.35,0,1.58-.82,2.65-1.86,2.65-1.14,0-1.83-1.13-1.83-2.47ZM546.7,636.6c0-1.11-.46-1.64-1.2-1.99-.64.31-.98,1.01-.98,1.88-.02.92.4,1.74,1.09,1.74s1.09-.69,1.09-1.62ZM544.67,632.05c0,.91.41,1.4,1.04,1.68.47-.27.83-.83.83-1.65,0-.73-.26-1.49-.92-1.49-.61,0-.95.67-.95,1.46Z"></path>
      </g>
      <line class="cls-1" x1="299.96" y1="330.56" x2="299.96" y2="578.93"></line>
      <line class="cls-1" x1="542.91" y1="340.48" x2="542.91" y2="219.12"></line>
      <line class="cls-1" x1="299.96" y1="335.52" x2="542.91" y2="335.52"></line>
      <line class="cls-1" x1="299.96" y1="335.52" x2="309.88" y2="334.03"></line>
      <line class="cls-1" x1="309.88" y1="334.03" x2="309.88" y2="337.01"></line>
      <line class="cls-1" x1="309.88" y1="337.01" x2="299.96" y2="335.52"></line>
      <line class="cls-1" x1="542.91" y1="335.52" x2="532.99" y2="337.01"></line>
      <line class="cls-1" x1="532.99" y1="337.01" x2="532.99" y2="334.03"></line>
      <line class="cls-1" x1="532.99" y1="334.03" x2="542.91" y2="335.52"></line>
      <g>
        <path class="cls-7" d="M404.79,328.25c0-1.15.41-1.96,1.08-2.44v-.04c-.61-.48-.87-1.26-.87-2.05,0-1.44.73-2.42,1.69-2.42,1.06,0,1.59,1.11,1.59,2.24,0,.77-.23,1.6-.9,2.13v.04c.68.45,1.1,1.25,1.1,2.35,0,1.58-.82,2.65-1.86,2.65-1.14,0-1.83-1.13-1.83-2.47ZM407.74,328.19c0-1.11-.46-1.64-1.2-1.99-.64.31-.98,1.01-.98,1.88-.02.92.4,1.74,1.09,1.74s1.09-.69,1.09-1.62ZM405.7,323.64c0,.91.41,1.4,1.04,1.68.47-.27.83-.83.83-1.65,0-.73-.26-1.48-.92-1.48-.61,0-.95.67-.95,1.46Z"></path>
        <path class="cls-7" d="M412.43,322.49h-2.08l-.21,2.34c.13-.03.24-.06.45-.06.42,0,.84.15,1.18.49.43.41.78,1.19.78,2.34,0,1.78-.85,3.11-2.04,3.11-.6,0-1.1-.28-1.36-.56l.18-.94c.23.22.67.5,1.17.5.7,0,1.29-.76,1.29-1.98,0-1.18-.48-2.02-1.57-2.02-.31,0-.56.06-.76.1l.35-4.37h2.62v1.04Z"></path>
        <path class="cls-7" d="M413.54,329.83c0-.52.21-.88.5-.88s.5.36.5.88-.19.88-.5.88-.5-.38-.5-.88Z"></path>
        <path class="cls-7" d="M418.77,321.46v.81l-2.38,8.29h-.76l2.37-8.05v-.03h-2.67v-1.02h3.45Z"></path>
        <path class="cls-7" d="M419.71,329.15c.21.22.7.57,1.21.57.95,0,1.24-1.01,1.24-1.77,0-1.27-.7-1.82-1.41-1.82h-.41v-.92h.41c.54,0,1.22-.46,1.22-1.54,0-.73-.28-1.37-.96-1.37-.44,0-.86.32-1.09.6l-.19-.9c.29-.35.84-.7,1.43-.7,1.08,0,1.56,1.06,1.56,2.17,0,.94-.34,1.74-1.01,2.14v.03c.67.22,1.22,1.06,1.22,2.34,0,1.46-.68,2.73-1.99,2.73-.61,0-1.15-.32-1.42-.62l.2-.95Z"></path>
      </g>
      <path class="cls-7" d="M437.17,315.93l-.64,1.4v.02l1.02-.22v.76l-1.02-.2v.02l.65,1.34-.42.4-.4-1.57h-.01l-.44,1.58-.38-.4.64-1.37v-.02l-1,.21v-.76l.99.21v-.02l-.63-1.37.41-.39.42,1.56h.01l.41-1.57.4.38Z"></path>
      <g>
        <path class="cls-7" d="M440.71,256.53h-.02s-1.16.53-1.16.53l.14-.94,1.46-.67.6.19-2.68,8.7-.68-.21,2.34-7.6Z"></path>
        <path class="cls-7" d="M441.22,264.26c.15-.5.46-.78.74-.69.28.09.36.49.21.99-.14.47-.44.77-.74.68-.28-.09-.36-.51-.22-.98ZM442.67,259.54c.15-.5.46-.78.74-.69.28.09.36.49.21.99-.14.47-.44.77-.74.68-.28-.09-.36-.51-.22-.98Z"></path>
        <path class="cls-7" d="M443.2,264.14c.13.28.5.75.99.9.91.28,1.49-.6,1.7-1.32.37-1.22-.13-1.95-.81-2.16l-.39-.12.27-.88.39.12c.51.16,1.3-.08,1.62-1.11.21-.7.14-1.39-.51-1.59-.42-.13-.91.06-1.22.25l.08-.91c.38-.25,1.01-.42,1.57-.25,1.03.32,1.18,1.48.86,2.54-.28.9-.83,1.56-1.6,1.75v.03c.57.41.84,1.38.47,2.59-.43,1.39-1.46,2.41-2.71,2.02-.59-.18-1.01-.65-1.18-1.01l.47-.85Z"></path>
      </g>
      <line class="cls-1" x1="500.46" y1="100.92" x2="500.46" y2="150.45"></line>
      <line class="cls-1" x1="542.91" y1="100.92" x2="542.91" y2="213.39"></line>
      <line class="cls-1" x1="500.46" y1="105.88" x2="542.91" y2="105.88"></line>
      <line class="cls-1" x1="500.46" y1="105.88" x2="510.38" y2="104.39"></line>
      <line class="cls-1" x1="510.38" y1="104.39" x2="510.38" y2="107.37"></line>
      <line class="cls-1" x1="510.38" y1="107.37" x2="500.46" y2="105.88"></line>
      <line class="cls-1" x1="542.91" y1="105.88" x2="532.99" y2="107.37"></line>
      <line class="cls-1" x1="532.99" y1="107.37" x2="532.99" y2="104.39"></line>
      <line class="cls-1" x1="532.99" y1="104.39" x2="542.91" y2="105.88"></line>
      <g>
        <path class="cls-7" d="M509.62,92.97h-.02l-.95.85-.14-.94,1.19-1.06h.63v9.1h-.71v-7.96Z"></path>
        <path class="cls-7" d="M514.61,100.92v-2.48h-2.54v-.81l2.44-5.81h.8v5.66h.76v.97h-.76v2.48h-.7ZM514.61,97.48v-3.04c0-.48,0-.95.03-1.43h-.03c-.17.53-.3.92-.45,1.34l-1.34,3.1v.03h1.79Z"></path>
        <path class="cls-7" d="M516.7,100.19c0-.52.21-.88.5-.88s.5.36.5.88-.19.88-.5.88-.5-.38-.5-.88Z"></path>
        <path class="cls-7" d="M518.81,100.05c.16.03.34,0,.6-.04.43-.1.83-.39,1.14-.88.36-.55.62-1.34.72-2.42h-.03c-.3.62-.74.98-1.29.98-.98,0-1.61-1.23-1.61-2.79,0-1.72.75-3.24,1.87-3.24s1.81,1.51,1.81,3.84c0,2-.4,3.4-.94,4.27-.42.69-1,1.11-1.59,1.22-.27.07-.5.08-.68.07v-1.01ZM519.08,94.81c0,1.13.41,1.93,1.05,1.93.5,0,.88-.41,1.08-.95.04-.11.07-.25.07-.45,0-1.55-.34-2.75-1.12-2.75-.63,0-1.08.92-1.08,2.21Z"></path>
        <path class="cls-7" d="M522.62,98.61c0-1.15.41-1.96,1.08-2.44v-.04c-.61-.48-.87-1.26-.87-2.05,0-1.44.73-2.42,1.69-2.42,1.06,0,1.59,1.11,1.59,2.24,0,.77-.23,1.6-.9,2.13v.04c.68.45,1.1,1.25,1.1,2.35,0,1.58-.82,2.65-1.86,2.65-1.14,0-1.83-1.13-1.83-2.47ZM525.57,98.55c0-1.11-.46-1.64-1.2-1.99-.64.31-.98,1.01-.98,1.88-.02.92.4,1.74,1.09,1.74s1.09-.69,1.09-1.62ZM523.53,94c0,.91.41,1.4,1.04,1.68.47-.27.83-.83.83-1.65,0-.73-.26-1.48-.92-1.48-.61,0-.95.67-.95,1.46Z"></path>
      </g>
      <line class="cls-4" x1="522.55" y1="385.91" x2="522.55" y2="385.91"></line>
    </g>
  </g>
  <g id="Layer_2" data-name="Layer 2">
    <g id="Watermark">
      <rect class="cls-9" x="438.45" y="684.92" width="123.09" height="46.3"></rect>
      <rect class="cls-23" x="444.86" y="692.76" width="62.89" height="30.62"></rect>
      <rect class="cls-23" x="507.75" y="692.76" width="47.39" height="30.62"></rect>
      <path class="cls-8" d="M466.48,698.86l-2.79,18.92h-2.69l-1.55-11-1.53,11h-2.74l-2.8-18.92h2.51l1.74,14.14,1.79-14.17h2l1.77,14.17,1.81-14.14h2.48Z"></path>
      <path class="cls-8" d="M467.93,717.78v-18.92h2.53v18.92h-2.53Z"></path>
      <path class="cls-8" d="M472.83,698.86h5c1.93,0,2.9,1.08,2.9,3.24v4.66c0,1.65-.51,2.7-1.51,3.14l1.77,7.88h-2.4l-1.66-7.64h-1.53v7.64h-2.53l-.04-18.92ZM475.36,707.98h1.64c.76,0,1.14-.46,1.14-1.37v-4.09c0-.91-.38-1.37-1.14-1.37h-1.66l.02,6.83Z"></path>
      <path class="cls-8" d="M486.82,701.15v16.63h-2.53v-16.63h-2.42v-2.29h7.38v2.29h-2.43Z"></path>
      <path class="cls-8" d="M496.34,717.78v-8.59h-3.11v8.59h-2.53v-18.92h2.53v8h3.11v-8h2.53v18.92h-2.53Z"></path>
      <path class="cls-8" d="M516.31,698.86h5c1.93,0,2.9,1.08,2.89,3.24v4.66c0,1.65-.5,2.7-1.5,3.14l1.77,7.88h-2.47l-1.66-7.64h-1.53v7.64h-2.53l.03-18.92ZM518.84,707.98h1.66c.76,0,1.13-.46,1.13-1.37v-4.09c0-.91-.37-1.37-1.13-1.37h-1.66v6.83Z"></path>
      <path class="cls-8" d="M528.67,717.78h-2.53v-15.68c0-2.16,1-3.24,3-3.24h1.9c2,0,3,1.08,3,3.24v15.68h-2.53v-6.93h-2.9l.06,6.93ZM531.57,708.56v-6.3c.06-.55-.33-1.05-.88-1.11-.08,0-.16,0-.23,0h-.68c-.55-.06-1.05.33-1.11.88,0,.08,0,.16,0,.23v6.3h2.9Z"></path>
      <path class="cls-8" d="M536.34,717.78v-18.92h2.53v18.92h-2.53Z"></path>
      <path class="cls-8" d="M547.24,717.78h-6v-18.92h2.53v16.63h3.47v2.29Z"></path>
    </g>
  </g>
</svg>
