<?xml version="1.0" encoding="UTF-8"?>
<svg xmlns="http://www.w3.org/2000/svg" xmlns:xlink="http://www.w3.org/1999/xlink" viewBox="0 0 1000 800">
  <defs>
    <style>
      .cls-1 {
        stroke-dasharray: 0 0 0 0 13.28 6.64 0 6.64;
      }

      .cls-1, .cls-2, .cls-3, .cls-4, .cls-5 {
        fill: none;
      }

      .cls-1, .cls-2, .cls-4, .cls-5 {
        stroke: #000;
        stroke-linecap: round;
        stroke-linejoin: round;
      }

      .cls-6 {
        clip-path: url(#clippath);
      }

      .cls-3, .cls-7, .cls-8, .cls-9, .cls-10 {
        stroke-width: 0px;
      }

      .cls-4 {
        stroke-width: 2px;
      }

      .cls-11 {
        clip-path: url(#clippath-1);
      }

      .cls-12 {
        clip-path: url(#clippath-4);
      }

      .cls-13 {
        clip-path: url(#clippath-3);
      }

      .cls-14 {
        clip-path: url(#clippath-2);
      }

      .cls-15 {
        clip-path: url(#clippath-7);
      }

      .cls-16 {
        clip-path: url(#clippath-8);
      }

      .cls-17 {
        clip-path: url(#clippath-6);
      }

      .cls-18 {
        clip-path: url(#clippath-5);
      }

      .cls-19 {
        clip-path: url(#clippath-9);
      }

      .cls-7 {
        fill: #000;
      }

      .cls-20 {
        clip-path: url(#clippath-14);
      }

      .cls-21 {
        clip-path: url(#clippath-13);
      }

      .cls-22 {
        clip-path: url(#clippath-12);
      }

      .cls-23 {
        clip-path: url(#clippath-10);
      }

      .cls-24 {
        clip-path: url(#clippath-15);
      }

      .cls-25 {
        clip-path: url(#clippath-17);
      }

      .cls-26 {
        clip-path: url(#clippath-16);
      }

      .cls-27 {
        clip-path: url(#clippath-11);
      }

      .cls-8, .cls-28 {
        fill: #f0f0f0;
      }

      .cls-9 {
        fill: #ccc;
      }

      .cls-28 {
        stroke: #ccc;
        stroke-miterlimit: 10;
      }

      .cls-5 {
        stroke-width: .75px;
      }

      .cls-10 {
        fill: #efefef;
      }
    </style>
    <clipPath id="clippath">
      <rect class="cls-3" x="220.47" y="1.89" width="650.05" height="797"></rect>
    </clipPath>
    <clipPath id="clippath-1">
      <rect class="cls-3" x="220.47" y="1.89" width="650.05" height="797"></rect>
    </clipPath>
    <clipPath id="clippath-2">
      <rect class="cls-3" x="220.47" y="1.89" width="650.05" height="797"></rect>
    </clipPath>
    <clipPath id="clippath-3">
      <rect class="cls-3" x="220.47" y="1.89" width="650.05" height="797"></rect>
    </clipPath>
    <clipPath id="clippath-4">
      <rect class="cls-3" x="220.47" y="1.89" width="650.05" height="797"></rect>
    </clipPath>
    <clipPath id="clippath-5">
      <rect class="cls-3" x="220.47" y="1.89" width="650.05" height="797"></rect>
    </clipPath>
    <clipPath id="clippath-6">
      <rect class="cls-3" x="220.47" y="1.89" width="650.05" height="797"></rect>
    </clipPath>
    <clipPath id="clippath-7">
      <rect class="cls-3" x="220.47" y="1.89" width="650.05" height="797"></rect>
    </clipPath>
    <clipPath id="clippath-8">
      <rect class="cls-3" x="220.47" y="1.89" width="650.05" height="797"></rect>
    </clipPath>
    <clipPath id="clippath-9">
      <rect class="cls-3" x="220.47" y="1.89" width="650.05" height="797"></rect>
    </clipPath>
    <clipPath id="clippath-10">
      <rect class="cls-3" x="220.47" y="1.89" width="650.05" height="797"></rect>
    </clipPath>
    <clipPath id="clippath-11">
      <rect class="cls-3" x="220.47" y="1.89" width="650.05" height="797"></rect>
    </clipPath>
    <clipPath id="clippath-12">
      <rect class="cls-3" x="220.47" y="1.89" width="650.05" height="797"></rect>
    </clipPath>
    <clipPath id="clippath-13">
      <rect class="cls-3" x="220.47" y="1.89" width="650.05" height="797"></rect>
    </clipPath>
    <clipPath id="clippath-14">
      <rect class="cls-3" x="220.47" y="1.89" width="650.05" height="797"></rect>
    </clipPath>
    <clipPath id="clippath-15">
      <rect class="cls-3" x="220.47" y="1.89" width="650.05" height="797"></rect>
    </clipPath>
    <clipPath id="clippath-16">
      <rect class="cls-3" x="220.47" y="1.89" width="650.05" height="797"></rect>
    </clipPath>
    <clipPath id="clippath-17">
      <rect class="cls-3" x="220.47" y="1.89" width="650.05" height="797"></rect>
    </clipPath>
  </defs>
  <g id="Layer_1" data-name="Layer 1">
    <g>
      <line class="cls-2" x1="380.25" y1="246.64" x2="346.17" y2="204.99"></line>
      <polygon class="cls-2" points="380.25 246.64 372.27 239.41 374.74 237.38 380.25 246.64"></polygon>
      <g>
        <path class="cls-7" d="M358.39,195.75c.36.22.78.62,1.12,1.03.53.65.68,1.23.47,1.89-.16.52-.58,1.09-1.19,1.59-1.04.85-2.04,1.02-2.73.75l-.04.03c.09.54-.29,1.21-1.02,1.99-.97,1.05-1.63,1.78-1.86,2.13l-.52-.63c.16-.26.75-.92,1.62-1.85.97-1.03,1.17-1.61.75-2.19l-.47-.57-3.4,2.78-.5-.61,7.74-6.34ZM355.32,199.29l.51.62c.53.65,1.46.58,2.36-.16,1.01-.83,1.09-1.63.58-2.28-.24-.29-.46-.47-.58-.53l-2.86,2.34Z"></path>
        <path class="cls-7" d="M363.69,204.34l-1.42-1.73-2.09,1.42c.11.09.21.17.35.33.29.35.45.8.39,1.31-.05.63-.46,1.46-1.41,2.24-1.48,1.21-3.16,1.41-3.97.42-.41-.5-.52-1.11-.46-1.51l.91-.48c-.03.34.04.9.38,1.31.47.58,1.51.56,2.52-.27.97-.81,1.35-1.77.61-2.68-.21-.26-.42-.42-.6-.56l3.87-2.68,1.78,2.17-.86.71Z"></path>
      </g>
      <line class="cls-2" x1="346.75" y1="417.67" x2="393.02" y2="417.67"></line>
      <line class="cls-2" x1="393.02" y1="417.67" x2="429.09" y2="351.51"></line>
      <line class="cls-2" x1="430.64" y1="352.36" x2="427.53" y2="350.66"></line>
      <line class="cls-2" x1="427.53" y1="350.66" x2="434.19" y2="342.16"></line>
      <line class="cls-2" x1="434.18" y1="342.16" x2="430.64" y2="352.36"></line>
      <g>
        <path class="cls-7" d="M376.2,404.87h-.02l-1.02.92-.15-1.01,1.28-1.14h.68v9.78h-.77v-8.55Z"></path>
        <path class="cls-7" d="M379.17,407.33c0-.56.23-.95.54-.95s.52.39.53.95c0,.53-.21.93-.54.93-.32,0-.53-.41-.53-.93ZM379.17,412.64c0-.56.23-.95.54-.95s.52.39.53.95c0,.53-.21.93-.54.93-.32,0-.53-.41-.53-.93Z"></path>
        <path class="cls-7" d="M381.16,411.89c.23.24.75.62,1.3.62,1.02,0,1.34-1.08,1.33-1.9,0-1.37-.75-1.96-1.52-1.96h-.44v-.99h.44c.58,0,1.31-.5,1.31-1.66,0-.78-.3-1.47-1.03-1.47-.47,0-.92.35-1.17.65l-.21-.96c.31-.38.9-.75,1.54-.75,1.16,0,1.68,1.14,1.68,2.33,0,1.01-.36,1.87-1.08,2.3v.03c.72.24,1.31,1.14,1.31,2.51,0,1.57-.73,2.93-2.14,2.93-.66,0-1.24-.35-1.53-.66l.22-1.02Z"></path>
      </g>
      <line class="cls-2" x1="565.82" y1="368.65" x2="553.02" y2="380.34"></line>
      <line class="cls-2" x1="553.02" y1="380.34" x2="526.63" y2="380.34"></line>
      <polygon class="cls-2" points="565.82 368.65 559.03 377.01 556.88 374.66 565.82 368.65"></polygon>
      <g>
        <path class="cls-7" d="M527.31,365.01c.4-.14.97-.21,1.51-.21.84,0,1.38.26,1.76.83.31.45.48,1.14.48,1.93,0,1.34-.51,2.23-1.15,2.59v.04c.47.27.75.99.89,2.05.2,1.41.34,2.39.47,2.78h-.81c-.1-.29-.23-1.16-.41-2.42-.18-1.4-.51-1.93-1.22-1.97h-.74v4.39h-.79v-10ZM528.1,369.63h.8c.84,0,1.37-.77,1.37-1.93,0-1.31-.57-1.88-1.4-1.9-.38,0-.65.06-.78.12v3.7Z"></path>
        <path class="cls-7" d="M535.53,366.47h-.02l-1.02.92-.15-1.01,1.28-1.14h.68v9.78h-.77v-8.55Z"></path>
        <path class="cls-7" d="M538.43,375.01v-.81l.62-1.01c1.5-2.38,2.18-3.64,2.19-5.12,0-.99-.29-1.91-1.17-1.91-.53,0-.98.45-1.25.83l-.25-.93c.41-.57.99-.99,1.66-.99,1.26,0,1.8,1.44,1.8,2.84,0,1.81-.79,3.27-2.02,5.25l-.47.72v.03h2.64v1.1h-3.75Z"></path>
      </g>
      <line class="cls-2" x1="484.32" y1="241.96" x2="464.29" y2="486.18"></line>
      <polygon class="cls-2" points="484.32 241.96 485.04 252.71 481.85 252.45 484.32 241.96"></polygon>
      <g>
        <path class="cls-7" d="M449,484.15c-.1-.41-.13-.98-.09-1.52.07-.84.37-1.36.97-1.69.48-.27,1.18-.38,1.96-.32,1.33.11,2.18.69,2.49,1.36h.05c.31-.44,1.05-.66,2.11-.72,1.42-.08,2.41-.15,2.81-.24l-.07.81c-.29.08-1.17.14-2.45.21-1.41.06-1.96.35-2.07,1.05l-.06.74,4.38.36-.06.78-9.97-.82ZM453.67,483.74l.07-.8c.07-.84-.65-1.43-1.81-1.53-1.3-.11-1.92.41-2,1.24-.03.38,0,.65.06.78l3.69.3Z"></path>
        <path class="cls-7" d="M457.02,478.37c-1.23-.1-2.06-.61-2.51-1.38h-.05c-.56.61-1.43.82-2.27.75-1.54-.13-2.53-1-2.45-2.02.09-1.13,1.33-1.6,2.54-1.5.83.07,1.69.38,2.2,1.15h.04c.54-.69,1.43-1.07,2.62-.97,1.7.14,2.76,1.11,2.67,2.22-.1,1.22-1.38,1.86-2.8,1.75ZM452.17,476.99c.97.08,1.54-.32,1.89-.97-.24-.53-.81-.96-1.7-1.04-.78-.06-1.61.15-1.67.86-.05.66.64,1.08,1.48,1.15ZM457.22,475.21c-1.18-.1-1.79.35-2.23,1.11.27.71.99,1.14,1.92,1.22.99.11,1.89-.27,1.96-1.02.06-.71-.64-1.23-1.64-1.31Z"></path>
        <path class="cls-7" d="M455.22,469.59c3.31.27,5.08,1.16,4.98,2.46-.09,1.14-1.94,1.77-5.17,1.52-3.27-.27-5-1.26-4.9-2.45.1-1.23,1.99-1.79,5.09-1.53ZM455.11,472.78c2.53.21,4.01-.14,4.07-.86.07-.81-1.48-1.33-3.97-1.53-2.4-.2-4,.04-4.07.86-.06.69,1.31,1.31,3.97,1.53Z"></path>
      </g>
      <line class="cls-2" x1="470" y1="240.96" x2="467.69" y2="321.42"></line>
      <polygon class="cls-2" points="470 240.96 471.29 251.65 468.1 251.56 470 240.96"></polygon>
      <g>
        <path class="cls-7" d="M457.96,300.78c3.32.1,5.14.89,5.1,2.19-.03,1.15-1.84,1.87-5.08,1.8-3.28-.09-5.06-.99-5.03-2.19.04-1.24,1.89-1.89,5-1.8ZM458.02,303.97c2.54.07,4-.36,4.02-1.08.02-.81-1.55-1.25-4.04-1.32-2.41-.07-4,.26-4.02,1.08-.02.69,1.38,1.24,4.04,1.32Z"></path>
        <path class="cls-7" d="M457.83,305.41c3.32.1,5.14.89,5.1,2.19-.03,1.15-1.84,1.87-5.08,1.8-3.28-.09-5.06-.99-5.03-2.19.04-1.24,1.89-1.89,5-1.8ZM457.89,308.6c2.54.07,4-.36,4.02-1.08.02-.81-1.55-1.25-4.04-1.32-2.41-.07-4,.26-4.02,1.08-.02.69,1.38,1.24,4.04,1.32Z"></path>
        <path class="cls-7" d="M461.07,313.85c.25-.22.64-.73.65-1.28.03-1.02-1.05-1.37-1.86-1.38-1.37-.03-1.98.69-2,1.46v.44s-1-.03-1-.03v-.44c.03-.58-.45-1.32-1.6-1.36-.78-.02-1.48.26-1.5.99-.01.47.32.93.61,1.19l-.97.18c-.37-.32-.73-.92-.71-1.56.03-1.16,1.19-1.65,2.38-1.61,1.01.03,1.86.41,2.27,1.15h.03c.26-.72,1.18-1.28,2.55-1.24,1.56.04,2.91.81,2.87,2.22-.02.66-.38,1.23-.7,1.51l-1.02-.25Z"></path>
        <path class="cls-7" d="M452.39,320.28c-.12-.4-.18-.97-.17-1.51.02-.84.3-1.37.88-1.74.46-.29,1.16-.45,1.94-.42,1.34.04,2.21.57,2.55,1.22h.05c.28-.46,1.01-.72,2.07-.83,1.42-.16,2.4-.27,2.79-.39l-.02.81c-.29.09-1.16.2-2.43.34-1.4.14-1.94.45-2.01,1.16l-.02.74,4.39.13-.02.79-10-.29ZM457.03,319.63l.02-.8c.02-.84-.73-1.39-1.89-1.43-1.31-.04-1.9.52-1.94,1.35-.01.38.04.65.1.78l3.7.11Z"></path>
      </g>
      <line class="cls-2" x1="397.87" y1="242.1" x2="422.55" y2="483.25"></line>
      <polygon class="cls-2" points="397.87 242.1 400.54 252.53 397.37 252.86 397.87 242.1"></polygon>
      <g>
        <path class="cls-7" d="M435.46,458.82c.18.38.31.94.36,1.48.09.84-.11,1.4-.64,1.84-.42.35-1.09.59-1.87.67-1.33.14-2.27-.28-2.69-.88h-.05c-.22.5-.91.85-1.94,1.1-1.39.34-2.34.58-2.72.75l-.08-.81c.27-.13,1.13-.35,2.37-.65,1.37-.32,1.86-.7,1.84-1.42l-.08-.74-4.37.45-.08-.78,9.95-1.02ZM430.95,460.07l.08.8c.08.83.9,1.29,2.06,1.17,1.3-.13,1.81-.76,1.74-1.59-.04-.38-.13-.64-.2-.76l-3.68.38Z"></path>
        <path class="cls-7" d="M428.63,465.97c1.23-.12,2.14.23,2.72.89h.04c.44-.71,1.25-1.08,2.09-1.16,1.54-.16,2.67.52,2.78,1.54.12,1.13-1.01,1.82-2.22,1.94-.82.08-1.73-.07-2.37-.73h-.04c-.41.78-1.21,1.32-2.4,1.44-1.69.17-2.92-.58-3.03-1.7-.12-1.22,1.01-2.08,2.43-2.23ZM429.02,469.11c1.18-.12,1.7-.67,1.99-1.5-.4-.65-1.19-.94-2.11-.85-.99.07-1.81.61-1.74,1.36.07.71.85,1.09,1.86.99ZM433.66,466.43c-.97.1-1.45.59-1.68,1.3.34.47.97.8,1.86.71.78-.08,1.56-.44,1.49-1.15-.07-.66-.82-.94-1.66-.86Z"></path>
        <path class="cls-7" d="M432.01,474.27c-3.31.34-5.21-.21-5.34-1.5-.12-1.14,1.59-2.1,4.8-2.44,3.26-.33,5.15.33,5.27,1.51.13,1.23-1.63,2.12-4.73,2.44ZM431.54,471.11c-2.53.26-3.92.87-3.85,1.59.08.81,1.69,1.03,4.18.78,2.39-.25,3.93-.77,3.85-1.59-.07-.69-1.53-1.05-4.18-.78Z"></path>
      </g>
      <line class="cls-2" x1="591.14" y1="292.63" x2="591.14" y2="334.69"></line>
      <line class="cls-2" x1="591.14" y1="334.69" x2="566.12" y2="341.9"></line>
      <line class="cls-2" x1="555.89" y1="344.85" x2="566.61" y2="343.61"></line>
      <line class="cls-2" x1="566.62" y1="343.61" x2="565.63" y2="340.19"></line>
      <line class="cls-2" x1="565.63" y1="340.19" x2="555.89" y2="344.85"></line>
      <g>
        <path class="cls-7" d="M579.39,308.79v.02l.92,1.02-1.01.15-1.14-1.28v-.68h9.78v.77h-8.55Z"></path>
        <path class="cls-7" d="M581.86,305.82c-.56,0-.95-.23-.95-.54s.39-.52.95-.53c.53,0,.93.21.93.54,0,.32-.41.53-.93.53ZM587.17,305.82c-.56,0-.95-.23-.95-.54s.39-.52.95-.53c.53,0,.93.21.93.54,0,.32-.41.53-.93.53Z"></path>
        <path class="cls-7" d="M579.09,300.67c-.01.16,0,.37.06.6.35,1.25,1.87,1.91,3.48,2.04v-.03c-.62-.28-1.13-.77-1.13-1.42,0-1.04,1.25-1.77,3.16-1.77,1.79,0,3.45.73,3.45,1.95s-1.62,2.08-4.17,2.08c-1.93,0-3.45-.42-4.41-.99-.8-.49-1.29-1.14-1.44-1.88-.06-.23-.08-.43-.08-.58h1.08ZM584.73,300.89c-1.4,0-2.24.48-2.24,1.21,0,.48.5.92,1.2,1.14.15.05.35.09.59.09,1.61-.02,2.8-.46,2.8-1.29,0-.69-.95-1.15-2.35-1.15Z"></path>
      </g>
      <line class="cls-2" x1="641.61" y1="295.74" x2="641.61" y2="341.65"></line>
      <line class="cls-2" x1="641.61" y1="295.74" x2="657.17" y2="298.27"></line>
      <line class="cls-2" x1="656.88" y1="300.02" x2="667.68" y2="299.99"></line>
      <line class="cls-2" x1="667.68" y1="299.98" x2="657.45" y2="296.52"></line>
      <line class="cls-2" x1="657.45" y1="296.52" x2="656.88" y2="300.03"></line>
      <g>
        <path class="cls-7" d="M628.8,312.01v.02l.92,1.02-1.01.15-1.14-1.28v-.68h9.78v.77h-8.55Z"></path>
        <path class="cls-7" d="M631.27,309.04c-.56,0-.95-.23-.95-.54s.39-.52.95-.53c.53,0,.93.21.93.54,0,.32-.41.53-.93.53ZM636.58,309.04c-.56,0-.95-.23-.95-.54s.39-.52.95-.53c.53,0,.93.21.93.54,0,.32-.41.53-.93.53Z"></path>
        <path class="cls-7" d="M628.5,303.89c-.01.16,0,.37.06.6.35,1.25,1.87,1.91,3.48,2.04v-.03c-.62-.28-1.13-.77-1.13-1.42,0-1.04,1.25-1.77,3.16-1.77,1.79,0,3.45.73,3.45,1.95s-1.62,2.08-4.17,2.08c-1.93,0-3.45-.42-4.41-.99-.8-.49-1.29-1.14-1.44-1.88-.06-.23-.08-.43-.08-.58h1.08ZM634.14,304.11c-1.4,0-2.24.48-2.24,1.21,0,.48.5.92,1.2,1.14.15.05.35.09.59.09,1.61-.02,2.8-.46,2.8-1.29,0-.69-.95-1.15-2.35-1.15Z"></path>
      </g>
      <line class="cls-2" x1="762.79" y1="364.9" x2="762.79" y2="318.27"></line>
      <line class="cls-2" x1="762.79" y1="318.27" x2="731.46" y2="313.88"></line>
      <line class="cls-2" x1="731.21" y1="315.64" x2="720.91" y2="312.4"></line>
      <line class="cls-2" x1="720.91" y1="312.4" x2="731.71" y2="312.12"></line>
      <line class="cls-2" x1="731.71" y1="312.12" x2="731.21" y2="315.64"></line>
      <g>
        <path class="cls-7" d="M749.99,335.27v.02l.92,1.02-1.01.15-1.14-1.28v-.68h9.78v.77h-8.55Z"></path>
        <path class="cls-7" d="M752.45,332.3c-.56,0-.95-.23-.95-.54s.39-.52.95-.53c.53,0,.93.21.93.54,0,.32-.41.53-.93.53ZM757.76,332.3c-.56,0-.95-.23-.95-.54s.39-.52.95-.53c.53,0,.93.21.93.54,0,.32-.41.53-.93.53Z"></path>
        <path class="cls-7" d="M749.68,327.14c-.01.16,0,.37.06.6.35,1.25,1.87,1.91,3.48,2.04v-.03c-.62-.28-1.13-.77-1.13-1.42,0-1.04,1.25-1.77,3.16-1.77,1.79,0,3.45.73,3.45,1.95s-1.62,2.08-4.17,2.08c-1.93,0-3.45-.42-4.41-.99-.8-.49-1.29-1.14-1.44-1.88-.06-.23-.08-.43-.08-.58h1.08ZM755.33,327.37c-1.4,0-2.24.48-2.24,1.21,0,.48.5.92,1.2,1.14.15.05.35.09.59.09,1.61-.02,2.8-.46,2.8-1.29,0-.69-.95-1.15-2.35-1.15Z"></path>
      </g>
      <line class="cls-2" x1="669.93" y1="455.55" x2="623.59" y2="455.55"></line>
      <line class="cls-2" x1="623.59" y1="455.55" x2="613.96" y2="425.14"></line>
      <line class="cls-2" x1="612.27" y1="425.68" x2="615.65" y2="424.61"></line>
      <line class="cls-2" x1="615.65" y1="424.61" x2="610.74" y2="414.99"></line>
      <line class="cls-2" x1="610.74" y1="414.99" x2="612.27" y2="425.68"></line>
      <g>
        <path class="cls-7" d="M653.07,442.75h-.02l-1.02.92-.15-1.01,1.28-1.14h.68v9.78h-.77v-8.55Z"></path>
        <path class="cls-7" d="M656.04,445.22c0-.56.23-.95.54-.95s.52.39.53.95c0,.53-.21.93-.54.93-.32,0-.53-.41-.53-.93ZM656.04,450.53c0-.56.23-.95.54-.95s.52.39.53.95c0,.53-.21.93-.54.93-.32,0-.53-.41-.53-.93Z"></path>
        <path class="cls-7" d="M661.35,442.63h-2.24l-.23,2.51c.14-.03.26-.06.48-.06.45,0,.9.17,1.26.53.46.44.84,1.28.84,2.51,0,1.91-.91,3.34-2.19,3.34-.64,0-1.18-.3-1.46-.6l.2-1.01c.24.24.72.54,1.26.54.75,0,1.39-.81,1.39-2.12,0-1.26-.51-2.17-1.69-2.17-.33,0-.6.06-.81.11l.38-4.69h2.81v1.11Z"></path>
      </g>
      <g>
        <path class="cls-7" d="M378.8,650.14h-.02s-.9,1.04-.9,1.04l-.28-.98,1.13-1.29.67-.08,1.21,9.7-.76.1-1.06-8.48Z"></path>
        <path class="cls-7" d="M382.05,652.22c-.07-.55.11-.97.42-1.01.31-.04.57.32.65.87.06.52-.09.95-.42.99-.31.04-.58-.34-.65-.86ZM382.71,657.49c-.07-.55.11-.97.42-1.01.31-.04.57.32.65.87.07.52-.09.95-.42.99-.31.04-.58-.34-.65-.86Z"></path>
        <path class="cls-7" d="M384.21,655.57c-.15-1.22.18-2.15.83-2.74v-.04c-.72-.43-1.11-1.23-1.21-2.06-.19-1.54.46-2.68,1.48-2.81,1.13-.14,1.84.97,1.99,2.18.1.82-.03,1.73-.67,2.39v.04c.79.39,1.35,1.18,1.49,2.36.21,1.69-.52,2.93-1.63,3.07-1.22.15-2.11-.96-2.28-2.38ZM384.57,650.54c.12.97.63,1.44,1.34,1.65.47-.35.78-.99.67-1.87-.1-.78-.48-1.55-1.18-1.46-.66.08-.92.84-.82,1.68ZM387.35,655.12c-.15-1.18-.71-1.69-1.55-1.96-.64.41-.91,1.21-.8,2.13.1.99.65,1.8,1.4,1.71.71-.09,1.08-.88.95-1.88Z"></path>
      </g>
      <g>
        <path class="cls-7" d="M641.81,652.74h-.02s-1.13.78-1.13.78l-.03-1.02,1.42-.98.67.08-1.21,9.7-.76-.1,1.06-8.48Z"></path>
        <path class="cls-7" d="M643.79,660.83c.07-.55.34-.91.66-.87.31.04.47.45.41,1.01-.07.52-.32.9-.65.86-.31-.04-.48-.47-.41-.99ZM644.45,655.56c.07-.55.34-.91.66-.87.31.04.47.45.41,1.01-.07.52-.32.9-.65.86-.31-.04-.48-.47-.41-.99Z"></path>
        <path class="cls-7" d="M645.73,659.34c.15-1.22.7-2.04,1.48-2.45v-.05c-.58-.59-.76-1.46-.65-2.29.19-1.54,1.1-2.49,2.13-2.36,1.13.14,1.54,1.39,1.39,2.6-.1.82-.46,1.67-1.24,2.15v.04c.66.57,1,1.48.86,2.66-.21,1.69-1.22,2.71-2.33,2.57-1.22-.15-1.8-1.45-1.62-2.87ZM648.87,659.67c.15-1.18-.27-1.81-1.02-2.28-.72.24-1.18.94-1.3,1.87-.15.98.19,1.9.93,2,.71.09,1.26-.59,1.38-1.59ZM647.31,654.55c-.12.97.25,1.55.89,1.93.54-.22,1-.77,1.11-1.65.1-.78-.08-1.62-.79-1.71-.66-.08-1.1.59-1.21,1.43Z"></path>
      </g>
      <line class="cls-2" x1="233.07" y1="704.97" x2="287.71" y2="704.97"></line>
      <line class="cls-2" x1="233.07" y1="240.83" x2="440.83" y2="240.83"></line>
      <line class="cls-2" x1="238.39" y1="704.97" x2="238.39" y2="240.83"></line>
      <polygon class="cls-2" points="238.39 704.97 236.8 694.32 239.99 694.32 238.39 704.97"></polygon>
      <polygon class="cls-2" points="238.39 240.83 239.99 251.48 236.8 251.48 238.39 240.83"></polygon>
      <g class="cls-6">
        <g>
          <path class="cls-7" d="M224.52,485.85v.02l.92,1.02-1.01.15-1.14-1.28v-.68h9.78v.77h-8.55Z"></path>
          <path class="cls-7" d="M224.4,479.44v2.24l2.51.23c-.03-.14-.06-.26-.06-.48,0-.45.17-.9.53-1.26.44-.46,1.28-.84,2.51-.84,1.91,0,3.34.91,3.34,2.19,0,.64-.3,1.18-.6,1.46l-1.01-.2c.24-.24.54-.72.54-1.26,0-.75-.81-1.39-2.12-1.39-1.26,0-2.17.51-2.17,1.69,0,.33.06.6.11.81l-4.69-.38v-2.81h1.11Z"></path>
          <path class="cls-7" d="M233.06,478.32h-.81l-1.01-.62c-2.38-1.5-3.64-2.18-5.12-2.19-.99,0-1.91.29-1.91,1.17,0,.53.45.98.83,1.25l-.93.25c-.57-.41-.99-.99-.99-1.66,0-1.26,1.44-1.8,2.84-1.8,1.81,0,3.26.79,5.25,2.02l.72.47h.03v-2.64h1.1v3.75Z"></path>
          <path class="cls-7" d="M232.28,473.62c-.56,0-.95-.23-.95-.54s.39-.53.95-.53.95.21.95.54c0,.32-.41.53-.95.53Z"></path>
          <path class="cls-7" d="M224.4,468.31v2.24l2.51.23c-.03-.14-.06-.26-.06-.48,0-.45.17-.9.53-1.26.44-.46,1.28-.84,2.51-.84,1.91,0,3.34.91,3.34,2.19,0,.64-.3,1.18-.6,1.46l-1.01-.2c.24-.24.54-.72.54-1.26,0-.75-.81-1.39-2.12-1.39-1.26,0-2.17.51-2.17,1.69,0,.33.06.6.11.81l-4.69-.38v-2.81h1.11Z"></path>
        </g>
      </g>
      <line class="cls-2" x1="480.21" y1="574.83" x2="480.21" y2="607.02"></line>
      <line class="cls-2" x1="519.77" y1="574.83" x2="519.77" y2="607.02"></line>
      <line class="cls-2" x1="480.21" y1="580.15" x2="546.47" y2="580.15"></line>
      <polygon class="cls-2" points="480.21 580.15 469.56 578.56 469.56 581.75 480.21 580.15"></polygon>
      <line class="cls-2" x1="480.21" y1="580.15" x2="465.3" y2="580.15"></line>
      <polygon class="cls-2" points="519.77 580.15 530.43 581.75 530.43 578.56 519.77 580.15"></polygon>
      <line class="cls-2" x1="519.77" y1="580.15" x2="534.69" y2="580.15"></line>
      <g>
        <path class="cls-7" d="M537.6,566.28h-.02l-1.02.92-.15-1.01,1.28-1.14h.68v9.78h-.77v-8.55Z"></path>
        <path class="cls-7" d="M540.69,573.31c.23.24.75.62,1.3.62,1.02,0,1.34-1.08,1.33-1.9,0-1.37-.75-1.96-1.52-1.96h-.44v-.99h.44c.58,0,1.31-.5,1.31-1.66,0-.78-.3-1.47-1.03-1.47-.47,0-.92.35-1.17.65l-.21-.96c.31-.38.9-.75,1.54-.75,1.16,0,1.68,1.14,1.68,2.33,0,1.01-.36,1.87-1.08,2.3v.03c.72.24,1.31,1.14,1.31,2.51,0,1.56-.73,2.93-2.14,2.93-.66,0-1.24-.35-1.53-.66l.22-1.02Z"></path>
      </g>
      <g class="cls-11">
        <line class="cls-2" x1="870.34" y1="704.97" x2="712.28" y2="704.97"></line>
        <line class="cls-2" x1="870.34" y1="240.83" x2="714.32" y2="240.83"></line>
      </g>
      <line class="cls-2" x1="865.02" y1="704.97" x2="865.02" y2="240.83"></line>
      <polygon class="cls-2" points="865.02 704.97 863.42 694.32 866.61 694.32 865.02 704.97"></polygon>
      <polygon class="cls-2" points="865.02 240.83 866.61 251.48 863.42 251.48 865.02 240.83"></polygon>
      <g>
        <path class="cls-7" d="M851.15,487.83v.02l.92,1.02-1.01.15-1.14-1.28v-.68h9.78v.77h-8.55Z"></path>
        <path class="cls-7" d="M851.03,481.42v2.24l2.51.23c-.03-.14-.06-.26-.06-.48,0-.45.17-.9.53-1.26.44-.46,1.28-.84,2.51-.84,1.91,0,3.34.91,3.34,2.19,0,.64-.3,1.18-.6,1.46l-1.01-.2c.24-.24.54-.72.54-1.26,0-.75-.81-1.39-2.12-1.39-1.26,0-2.17.51-2.17,1.69,0,.33.06.6.11.81l-4.69-.38v-2.81h1.11Z"></path>
        <path class="cls-7" d="M859.69,480.3h-.81l-1.01-.62c-2.38-1.5-3.64-2.18-5.12-2.19-.99,0-1.91.29-1.91,1.17,0,.53.45.98.83,1.25l-.93.25c-.57-.41-.99-.98-.99-1.66,0-1.26,1.44-1.8,2.84-1.8,1.81,0,3.26.79,5.25,2.02l.72.47h.03v-2.64h1.1v3.75Z"></path>
        <path class="cls-7" d="M858.91,475.6c-.56,0-.95-.23-.95-.54s.39-.53.95-.53.95.21.95.54c0,.32-.41.53-.95.53Z"></path>
        <path class="cls-7" d="M851.03,470.29v2.24l2.51.23c-.03-.14-.06-.26-.06-.48,0-.45.17-.9.53-1.26.44-.46,1.28-.84,2.51-.84,1.91,0,3.34.91,3.34,2.19,0,.64-.3,1.18-.6,1.46l-1.01-.2c.24-.24.54-.72.54-1.26,0-.75-.81-1.39-2.12-1.39-1.26,0-2.17.51-2.17,1.69,0,.33.06.6.11.81l-4.69-.38v-2.81h1.11Z"></path>
      </g>
      <line class="cls-2" x1="374.67" y1="14.48" x2="374.67" y2="255.37"></line>
      <line class="cls-2" x1="729.54" y1="14.48" x2="729.54" y2="256.05"></line>
      <line class="cls-2" x1="374.67" y1="19.81" x2="729.54" y2="19.81"></line>
      <polygon class="cls-2" points="374.67 19.81 385.32 18.21 385.32 21.41 374.67 19.81"></polygon>
      <polygon class="cls-2" points="729.54 19.81 718.89 21.41 718.89 18.21 729.54 19.81"></polygon>
      <g class="cls-14">
        <g>
          <path class="cls-7" d="M566.71,5.94h-.02l-1.02.92-.15-1.01,1.28-1.14h.68v9.78h-.77V5.94Z"></path>
          <path class="cls-7" d="M571.34,5.94h-.02l-1.02.92-.15-1.01,1.28-1.14h.68v9.78h-.77V5.94Z"></path>
          <path class="cls-7" d="M577.59,5.64c-.16-.02-.37,0-.6.06-1.25.35-1.91,1.87-2.04,3.48h.03c.28-.62.77-1.13,1.42-1.13,1.04,0,1.77,1.25,1.77,3.16,0,1.79-.73,3.45-1.95,3.45s-2.08-1.62-2.08-4.17c0-1.93.42-3.45.99-4.41.49-.8,1.14-1.29,1.88-1.44.23-.06.43-.08.58-.08v1.08ZM577.37,11.28c0-1.4-.48-2.24-1.21-2.24-.48,0-.92.5-1.14,1.2-.05.15-.09.35-.09.59.02,1.61.46,2.8,1.29,2.8.69,0,1.15-.95,1.15-2.35Z"></path>
          <path class="cls-7" d="M578.94,13.7c0-.56.23-.95.54-.95s.53.39.53.95-.21.95-.54.95c-.32,0-.53-.41-.53-.95Z"></path>
          <path class="cls-7" d="M584.09,5.64c-.16-.02-.37,0-.6.06-1.25.35-1.91,1.87-2.04,3.48h.03c.28-.62.77-1.13,1.42-1.13,1.04,0,1.77,1.25,1.77,3.16,0,1.79-.73,3.45-1.95,3.45s-2.08-1.62-2.08-4.17c0-1.93.42-3.45.99-4.41.49-.8,1.14-1.29,1.88-1.44.24-.06.43-.08.58-.08v1.08ZM583.87,11.28c0-1.4-.48-2.24-1.21-2.24-.48,0-.92.5-1.14,1.2-.05.15-.09.35-.09.59.02,1.61.46,2.8,1.29,2.8.69,0,1.15-.95,1.15-2.35Z"></path>
        </g>
      </g>
      <line class="cls-2" x1="798.63" y1="380.53" x2="595.82" y2="380.53"></line>
      <line class="cls-2" x1="798.63" y1="240.83" x2="714.32" y2="240.83"></line>
      <line class="cls-2" x1="793.3" y1="380.53" x2="793.3" y2="240.83"></line>
      <polygon class="cls-2" points="793.3 380.53 791.71 369.88 794.9 369.88 793.3 380.53"></polygon>
      <polygon class="cls-2" points="793.3 240.83 794.9 251.48 791.71 251.48 793.3 240.83"></polygon>
      <g>
        <path class="cls-7" d="M787.98,319.71h-2.66v2.73h-.87l-6.24-2.62v-.86h6.08v-.82h1.04v.82h2.66v.75ZM784.28,319.71h-3.26c-.51,0-1.02,0-1.54-.03v.03c.57.18.99.33,1.44.49l3.33,1.44h.03v-1.92Z"></path>
        <path class="cls-7" d="M779.31,314.03v2.24l2.51.23c-.03-.14-.06-.26-.06-.48,0-.45.17-.9.53-1.26.44-.46,1.28-.84,2.51-.84,1.91,0,3.34.91,3.34,2.19,0,.64-.3,1.18-.6,1.46l-1.01-.2c.24-.24.54-.72.54-1.26,0-.75-.81-1.39-2.12-1.39-1.26,0-2.17.51-2.17,1.69,0,.33.06.6.11.81l-4.69-.38v-2.81h1.11Z"></path>
        <path class="cls-7" d="M787.2,312.84c-.56,0-.95-.23-.95-.54s.39-.53.95-.53.95.21.95.54c0,.32-.41.53-.95.53Z"></path>
        <path class="cls-7" d="M787.05,310.57c.03-.17,0-.37-.04-.64-.11-.46-.42-.89-.95-1.23-.59-.39-1.44-.67-2.6-.78v.03c.66.33,1.05.79,1.05,1.38,0,1.06-1.32,1.73-2.99,1.73-1.85,0-3.48-.8-3.48-2s1.62-1.94,4.12-1.94c2.15,0,3.66.43,4.59,1.01.74.45,1.19,1.08,1.31,1.71.08.29.09.54.08.73h-1.08ZM781.42,310.28c1.22,0,2.08-.44,2.08-1.13,0-.53-.44-.95-1.02-1.16-.12-.04-.27-.07-.48-.07-1.67,0-2.95.37-2.95,1.2,0,.68.99,1.16,2.38,1.16Z"></path>
      </g>
      <line class="cls-2" x1="651.82" y1="349.93" x2="673.58" y2="365.47"></line>
      <polygon class="cls-2" points="651.82 349.93 661.42 354.82 659.56 357.43 651.82 349.93"></polygon>
      <g>
        <path class="cls-7" d="M662.46,338.77c.4.12.91.39,1.35.71.68.49.98,1.01.95,1.7-.01.55-.28,1.21-.73,1.85-.78,1.09-1.71,1.52-2.44,1.44l-.03.04c.22.49.03,1.24-.46,2.19-.66,1.27-1.11,2.15-1.24,2.54l-.66-.47c.09-.29.48-1.08,1.08-2.21.67-1.24.71-1.86.15-2.31l-.6-.43-2.55,3.58-.64-.46,5.81-8.14ZM660.41,342.98l.65.47c.68.49,1.56.17,2.24-.77.76-1.07.63-1.86-.04-2.36-.31-.22-.56-.33-.7-.35l-2.15,3.01Z"></path>
        <path class="cls-7" d="M661.93,350.68l.47-.66,1.09-.46c2.6-1.06,3.89-1.7,4.75-2.89.58-.81.88-1.72.16-2.23-.43-.31-1.06-.2-1.5-.05l.34-.91c.66-.23,1.38-.24,1.93.16,1.03.73.62,2.22-.19,3.36-1.05,1.47-2.54,2.2-4.7,3.1l-.8.31-.02.02,2.15,1.53-.64.89-3.05-2.18Z"></path>
        <path class="cls-7" d="M667.69,354.8l1.55-2.17-2.22-1.58.51-.71,5.76-3.56.7.5-3.53,4.95.67.48-.6.84-.67-.48-1.55,2.17-.61-.44ZM669.85,351.79l1.9-2.66c.3-.42.6-.83.92-1.23l-.02-.02c-.48.36-.84.62-1.24.89l-3.1,1.87-.02.02,1.57,1.12Z"></path>
      </g>
      <line class="cls-2" x1="715.41" y1="241.31" x2="722.58" y2="210.45"></line>
      <polygon class="cls-2" points="715.41 241.31 716.27 230.57 719.38 231.29 715.41 241.31"></polygon>
      <g>
        <path class="cls-7" d="M703.8,223.24c-.04-.42.01-.99.14-1.52.19-.82.56-1.29,1.2-1.53.51-.2,1.22-.21,1.98-.03,1.3.3,2.06,1,2.26,1.7h.04c.37-.39,1.14-.5,2.2-.4,1.42.13,2.41.21,2.82.17l-.18.79c-.3.03-1.18-.03-2.45-.15-1.4-.14-1.99.06-2.2.74l-.17.72,4.28.99-.18.77-9.75-2.26ZM708.48,223.52l.18-.78c.19-.82-.44-1.51-1.57-1.77-1.28-.3-1.96.13-2.16.93-.09.37-.09.65-.06.79l3.61.84Z"></path>
        <path class="cls-7" d="M707.16,213.91c-.05.16-.08.36-.08.59.05,1.29,1.39,2.28,2.92,2.78v-.03c-.53-.41-.92-1-.77-1.64.23-1.01,1.62-1.44,3.48-1.01,1.74.41,3.19,1.49,2.91,2.68-.28,1.22-2.05,1.66-4.53,1.08-1.88-.44-3.26-1.18-4.07-1.97-.67-.66-1-1.4-.98-2.16,0-.24.02-.44.06-.58l1.06.24ZM712.6,215.41c-1.36-.32-2.29-.04-2.46.67-.11.47.27,1.01.91,1.38.14.09.32.17.55.22,1.57.35,2.83.19,3.02-.62.16-.67-.67-1.33-2.03-1.65Z"></path>
      </g>
      <line class="cls-2" x1="530.62" y1="639.6" x2="563.57" y2="611.64"></line>
      <polygon class="cls-2" points="530.62 639.6 537.7 631.49 539.77 633.92 530.62 639.6"></polygon>
      <g>
        <path class="cls-7" d="M536.1,614.96c.22-.36.6-.79,1.01-1.14.64-.54,1.22-.7,1.88-.51.53.15,1.1.56,1.61,1.16.87,1.02,1.05,2.02.8,2.71l.03.04c.53-.1,1.21.27,2,.98,1.07.95,1.81,1.6,2.16,1.82l-.62.53c-.26-.15-.93-.73-1.88-1.58-1.04-.95-1.63-1.14-2.21-.71l-.56.48,2.84,3.35-.6.51-6.47-7.63ZM539.69,617.97l.61-.52c.64-.54.55-1.47-.2-2.36-.85-1-1.65-1.07-2.29-.54-.29.25-.46.47-.51.6l2.39,2.82Z"></path>
        <path class="cls-7" d="M543.31,610.75h-.01s-.18,1.37-.18,1.37l-.77-.67.24-1.7.52-.44,6.33,7.46-.59.5-5.53-6.52Z"></path>
        <path class="cls-7" d="M548.12,606.51l-1.71,1.45,1.45,2.06c.08-.11.16-.22.33-.36.34-.29.8-.46,1.3-.42.63.04,1.47.43,2.27,1.37,1.24,1.46,1.47,3.14.49,3.96-.49.41-1.1.54-1.5.49l-.5-.9c.34.03.9-.05,1.31-.4.57-.49.54-1.52-.31-2.52-.82-.96-1.79-1.32-2.69-.56-.25.22-.42.43-.55.61l-2.75-3.83,2.14-1.82.72.85Z"></path>
      </g>
      <line class="cls-2" x1="469.76" y1="639.12" x2="439.61" y2="614.23"></line>
      <polygon class="cls-2" points="469.76 639.12 460.53 633.57 462.57 631.11 469.76 639.12"></polygon>
      <g>
        <path class="cls-7" d="M449.93,602.89c.39.15.88.45,1.3.8.65.54.9,1.08.83,1.76-.05.54-.36,1.19-.86,1.79-.85,1.03-1.81,1.4-2.53,1.27l-.03.04c.19.51-.05,1.24-.61,2.15-.75,1.22-1.26,2.06-1.41,2.45l-.63-.52c.11-.28.56-1.04,1.23-2.13.75-1.19.84-1.81.31-2.3l-.57-.47-2.8,3.39-.61-.5,6.37-7.72ZM447.6,606.95l.62.51c.65.54,1.55.28,2.29-.61.83-1.01.76-1.81.13-2.35-.29-.24-.54-.37-.68-.4l-2.36,2.85Z"></path>
        <path class="cls-7" d="M455.34,609.24h-.01s-1.37.05-1.37.05l.52-.88,1.72-.07.52.43-6.22,7.54-.59-.49,5.44-6.59Z"></path>
        <path class="cls-7" d="M460.36,613.23l-1.73-1.43-1.77,1.79c.12.06.24.12.41.26.35.29.59.7.64,1.21.08.63-.17,1.52-.95,2.47-1.22,1.47-2.83,1.99-3.81,1.18-.5-.41-.72-.98-.75-1.39l.79-.65c.04.34.21.88.62,1.22.58.48,1.59.26,2.42-.75.8-.98.98-2,.08-2.75-.26-.21-.5-.33-.69-.44l3.28-3.38,2.17,1.79-.71.86Z"></path>
      </g>
      <line class="cls-2" x1="448.99" y1="347.1" x2="499.99" y2="364.1"></line>
      <line class="cls-2" x1="440.22" y1="655.36" x2="499.99" y2="647.89"></line>
      <line class="cls-2" x1="499.99" y1="647.89" x2="559.76" y2="655.36"></line>
      <line class="cls-2" x1="709.99" y1="674.14" x2="715.32" y2="674.81"></line>
      <line class="cls-2" x1="715.32" y1="674.81" x2="715.32" y2="680.18"></line>
      <line class="cls-2" x1="284.66" y1="680.18" x2="284.66" y2="674.81"></line>
      <line class="cls-2" x1="284.66" y1="674.81" x2="290" y2="674.14"></line>
      <line class="cls-2" x1="269.34" y1="364.1" x2="496.95" y2="364.1"></line>
      <line class="cls-2" x1="269.34" y1="240.83" x2="440.83" y2="240.83"></line>
      <line class="cls-2" x1="274.66" y1="364.1" x2="274.66" y2="240.83"></line>
      <polygon class="cls-2" points="274.66 364.1 273.07 353.44 276.26 353.44 274.66 364.1"></polygon>
      <polygon class="cls-2" points="274.66 240.83 276.26 251.48 273.07 251.48 274.66 240.83"></polygon>
      <g>
        <path class="cls-7" d="M269.34,311.49h-2.66v2.73h-.87l-6.24-2.62v-.86h6.08v-.82h1.04v.82h2.66v.75ZM265.64,311.49h-3.26c-.51,0-1.02,0-1.54-.03v.03c.57.18.99.33,1.44.49l3.33,1.44h.03v-1.92Z"></path>
        <path class="cls-7" d="M264.34,305.42c3.33,0,5.16.74,5.16,2.04,0,1.15-1.79,1.92-5.02,1.94-3.28,0-5.09-.85-5.09-2.04s1.84-1.94,4.95-1.94ZM264.49,308.6c2.54,0,3.99-.47,3.99-1.19,0-.81-1.58-1.2-4.08-1.2s-3.99.37-3.99,1.19c0,.7,1.41,1.2,4.08,1.2Z"></path>
        <path class="cls-7" d="M268.56,304.62c-.56,0-.95-.23-.95-.54s.39-.53.95-.53.95.21.95.54c0,.32-.41.53-.95.53Z"></path>
        <path class="cls-7" d="M260.67,299.31v2.24l2.51.23c-.03-.14-.06-.26-.06-.48,0-.45.17-.9.53-1.26.44-.46,1.28-.84,2.51-.84,1.91,0,3.34.91,3.34,2.19,0,.64-.3,1.18-.6,1.46l-1.01-.2c.24-.24.54-.72.54-1.26,0-.75-.81-1.39-2.12-1.39-1.26,0-2.17.52-2.17,1.69,0,.33.06.6.11.81l-4.69-.38v-2.81h1.11Z"></path>
      </g>
      <line class="cls-2" x1="464.42" y1="515.95" x2="464.42" y2="487.67"></line>
      <line class="cls-2" x1="567.04" y1="510.63" x2="464.42" y2="510.63"></line>
      <polygon class="cls-2" points="499.99 510.63 489.34 512.22 489.34 509.03 499.99 510.63"></polygon>
      <polygon class="cls-2" points="464.42 510.63 475.07 509.03 475.07 512.22 464.42 510.63"></polygon>
      <g>
        <path class="cls-7" d="M539,496.75h-.02l-1.02.92-.15-1.01,1.28-1.14h.68v9.78h-.77v-8.55Z"></path>
        <path class="cls-7" d="M543.63,496.75h-.02l-1.02.92-.15-1.01,1.28-1.14h.68v9.78h-.77v-8.55Z"></path>
        <path class="cls-7" d="M546.6,504.52c0-.56.23-.95.54-.95s.53.39.53.95-.21.95-.54.95c-.32,0-.53-.41-.53-.95Z"></path>
        <path class="cls-7" d="M551.76,496.45c-.16-.01-.37,0-.6.06-1.25.35-1.91,1.87-2.04,3.48h.03c.28-.62.77-1.13,1.42-1.13,1.04,0,1.77,1.25,1.77,3.16,0,1.79-.73,3.45-1.95,3.45s-2.08-1.62-2.08-4.17c0-1.93.42-3.45.99-4.41.49-.8,1.14-1.29,1.88-1.44.24-.06.43-.08.58-.08v1.08ZM551.53,502.09c0-1.4-.48-2.24-1.21-2.24-.48,0-.92.5-1.14,1.2-.05.15-.09.35-.09.59.02,1.61.46,2.8,1.29,2.8.69,0,1.15-.95,1.15-2.35Z"></path>
        <path class="cls-7" d="M553.5,504.37c.17.03.37,0,.64-.04.46-.11.89-.42,1.23-.95.39-.59.67-1.44.78-2.6h-.03c-.33.66-.79,1.05-1.38,1.05-1.06,0-1.73-1.32-1.73-2.99,0-1.85.8-3.48,2.01-3.48s1.94,1.62,1.94,4.12c0,2.15-.43,3.66-1.01,4.59-.45.74-1.07,1.19-1.71,1.31-.29.08-.54.09-.73.08v-1.08ZM553.79,498.74c0,1.22.44,2.08,1.13,2.08.53,0,.95-.44,1.16-1.02.05-.12.07-.27.07-.48,0-1.67-.37-2.95-1.2-2.95-.68,0-1.16.99-1.16,2.38Z"></path>
      </g>
      <line class="cls-2" x1="499.99" y1="572.21" x2="499.99" y2="549.53"></line>
      <line class="cls-2" x1="422.66" y1="572.21" x2="422.66" y2="487.36"></line>
      <line class="cls-2" x1="499.99" y1="566.89" x2="422.66" y2="566.89"></line>
      <polygon class="cls-2" points="499.99 566.89 489.34 568.48 489.34 565.29 499.99 566.89"></polygon>
      <polygon class="cls-2" points="422.66 566.89 433.31 565.29 433.31 568.48 422.66 566.89"></polygon>
      <g>
        <path class="cls-7" d="M446.64,561.56v-.81l.62-1.01c1.5-2.38,2.18-3.64,2.19-5.12,0-.99-.29-1.91-1.17-1.91-.53,0-.98.45-1.25.83l-.25-.93c.41-.57.98-.99,1.66-.99,1.26,0,1.8,1.44,1.8,2.84,0,1.81-.79,3.26-2.02,5.25l-.47.72v.03h2.64v1.1h-3.75Z"></path>
        <path class="cls-7" d="M454.78,552.89h-2.24l-.23,2.51c.14-.03.26-.06.48-.06.45,0,.9.17,1.26.53.46.44.84,1.28.84,2.51,0,1.91-.91,3.34-2.19,3.34-.64,0-1.18-.3-1.46-.6l.2-1.01c.24.24.72.54,1.26.54.75,0,1.39-.81,1.39-2.12,0-1.26-.51-2.17-1.69-2.17-.33,0-.6.06-.81.11l.38-4.69h2.81v1.11Z"></path>
        <path class="cls-7" d="M455.97,560.78c0-.56.23-.95.54-.95s.53.39.53.95-.21.95-.54.95c-.32,0-.53-.41-.53-.95Z"></path>
        <path class="cls-7" d="M460.23,561.56v-2.66h-2.73v-.87l2.62-6.24h.86v6.08h.82v1.04h-.82v2.66h-.75ZM460.23,557.86v-3.26c0-.51,0-1.02.03-1.54h-.03c-.18.57-.33.99-.49,1.44l-1.44,3.33v.03h1.92Z"></path>
        <path class="cls-7" d="M464.13,553.01h-.02l-1.02.92-.15-1.01,1.28-1.14h.68v9.78h-.77v-8.55Z"></path>
      </g>
      <line class="cls-2" x1="577" y1="240.83" x2="446.91" y2="240.83"></line>
      <line class="cls-2" x1="577" y1="278.45" x2="547.87" y2="278.45"></line>
      <line class="cls-2" x1="571.68" y1="207" x2="571.68" y2="278.45"></line>
      <polygon class="cls-2" points="571.68 240.83 573.28 230.18 570.08 230.18 571.68 240.83"></polygon>
      <line class="cls-2" x1="571.68" y1="240.83" x2="571.68" y2="225.92"></line>
      <polygon class="cls-2" points="571.68 278.45 570.08 289.1 573.28 289.1 571.68 278.45"></polygon>
      <line class="cls-2" x1="571.68" y1="278.45" x2="571.68" y2="293.36"></line>
      <g>
        <path class="cls-7" d="M557.81,235.04v.02l.92,1.02-1.01.15-1.14-1.28v-.68h9.78v.77h-8.55Z"></path>
        <path class="cls-7" d="M566.35,232.14h-.81l-1.01-.62c-2.38-1.5-3.64-2.18-5.12-2.19-.99,0-1.91.29-1.91,1.17,0,.53.45.98.83,1.25l-.93.25c-.57-.41-.99-.98-.99-1.66,0-1.26,1.44-1.8,2.84-1.8,1.81,0,3.26.79,5.25,2.02l.72.47h.03v-2.64h1.1v3.75Z"></path>
        <path class="cls-7" d="M565.57,227.44c-.56,0-.95-.23-.95-.54s.39-.53.95-.53.95.21.95.54c0,.32-.41.53-.95.53Z"></path>
        <path class="cls-7" d="M564.83,225.45c.24-.23.62-.75.62-1.3,0-1.02-1.08-1.34-1.9-1.33-1.37,0-1.96.75-1.96,1.52v.44h-.99v-.44c0-.58-.5-1.31-1.66-1.31-.78,0-1.47.3-1.47,1.03,0,.47.35.92.65,1.17l-.96.21c-.38-.31-.75-.9-.75-1.54,0-1.16,1.14-1.68,2.33-1.68,1.01,0,1.87.36,2.3,1.08h.03c.24-.72,1.14-1.31,2.51-1.31,1.57,0,2.93.73,2.93,2.14,0,.66-.35,1.24-.66,1.53l-1.02-.22Z"></path>
        <path class="cls-7" d="M557.51,217.66c-.01.16,0,.37.06.6.35,1.25,1.87,1.91,3.48,2.04v-.03c-.62-.28-1.13-.77-1.13-1.42,0-1.04,1.25-1.77,3.16-1.77,1.79,0,3.45.73,3.45,1.95s-1.62,2.08-4.17,2.08c-1.93,0-3.45-.42-4.41-.99-.8-.49-1.29-1.14-1.44-1.88-.06-.23-.08-.43-.08-.58h1.08ZM563.15,217.88c-1.4,0-2.24.48-2.24,1.21,0,.48.5.92,1.2,1.14.15.05.35.09.59.09,1.61-.02,2.8-.46,2.8-1.29,0-.69-.95-1.15-2.35-1.15Z"></path>
      </g>
      <line class="cls-2" x1="336.94" y1="283.44" x2="329.11" y2="283.44"></line>
      <line class="cls-2" x1="326.29" y1="240.83" x2="440.83" y2="240.83"></line>
      <line class="cls-2" x1="331.62" y1="283.44" x2="331.62" y2="240.83"></line>
      <polygon class="cls-2" points="331.62 283.44 330.02 272.79 333.21 272.79 331.62 283.44"></polygon>
      <polygon class="cls-2" points="331.62 240.83 333.21 251.48 330.02 251.48 331.62 240.83"></polygon>
      <g>
        <path class="cls-7" d="M317.75,263.03v.02l.92,1.02-1.01.15-1.14-1.28v-.68h9.78v.77h-8.55Z"></path>
        <path class="cls-7" d="M326.29,257.67h-2.66v2.73h-.87l-6.24-2.62v-.86h6.08v-.82h1.04v.82h2.66v.75ZM322.59,257.67h-3.26c-.51,0-1.02,0-1.54-.03v.03c.57.18.99.33,1.44.49l3.33,1.44h.03v-1.92Z"></path>
      </g>
      <line class="cls-2" x1="356.21" y1="240.83" x2="440.83" y2="240.83"></line>
      <line class="cls-2" x1="361.53" y1="268.22" x2="361.53" y2="240.83"></line>
      <polygon class="cls-2" points="361.53 268.22 359.93 257.57 363.13 257.57 361.53 268.22"></polygon>
      <polygon class="cls-2" points="361.53 240.83 363.13 251.48 359.93 251.48 361.53 240.83"></polygon>
      <path class="cls-7" d="M355.27,255.96c.03-.17,0-.37-.04-.64-.11-.46-.42-.89-.95-1.23-.59-.39-1.44-.67-2.6-.78v.03c.66.33,1.05.79,1.05,1.38,0,1.06-1.32,1.73-2.99,1.73-1.85,0-3.48-.8-3.48-2.01s1.62-1.94,4.12-1.94c2.15,0,3.66.43,4.59,1.01.74.45,1.19,1.07,1.31,1.71.08.29.09.54.08.73h-1.08ZM349.65,255.67c1.22,0,2.08-.44,2.08-1.13,0-.53-.44-.95-1.02-1.16-.12-.05-.27-.07-.48-.07-1.67,0-2.95.37-2.95,1.2,0,.68.99,1.16,2.38,1.16Z"></path>
      <line class="cls-2" x1="678.77" y1="243.55" x2="701.84" y2="266.3"></line>
      <polygon class="cls-2" points="678.77 243.55 687.48 249.89 685.23 252.17 678.77 243.55"></polygon>
      <g>
        <path class="cls-7" d="M700.67,243.7c.38.18.84.53,1.22.91.6.59.8,1.15.67,1.83-.1.54-.46,1.15-1.01,1.71-.94.95-1.92,1.23-2.63,1.04l-.03.03c.14.52-.16,1.23-.8,2.08-.85,1.15-1.44,1.94-1.62,2.31l-.58-.57c.13-.27.65-.99,1.41-2.01.85-1.12.99-1.73.52-2.26l-.53-.52-3.08,3.13-.56-.55,7.03-7.12ZM697.99,247.54l.57.56c.6.59,1.52.42,2.33-.41.92-.93.92-1.74.33-2.33-.27-.27-.5-.41-.64-.46l-2.6,2.64Z"></path>
        <path class="cls-7" d="M699.47,254.43c0,.33.1.97.49,1.35.73.72,1.71.17,2.28-.42.96-.98.84-1.92.29-2.46l-.31-.31.7-.71.31.31c.41.41,1.28.57,2.1-.26.55-.56.82-1.26.3-1.77-.33-.33-.9-.4-1.29-.36l.53-.83c.48-.05,1.17.1,1.62.54.82.81.39,1.99-.44,2.84-.71.72-1.57,1.07-2.39.88l-.02.02c.34.68.13,1.73-.83,2.71-1.1,1.11-2.58,1.58-3.58.59-.47-.46-.64-1.12-.62-1.54l.87-.58Z"></path>
      </g>
      <line class="cls-2" x1="499.99" y1="437.14" x2="556.47" y2="425.84"></line>
      <line class="cls-2" x1="825.46" y1="437.14" x2="503.03" y2="437.14"></line>
      <line class="cls-2" x1="825.46" y1="240.83" x2="714.33" y2="240.83"></line>
      <line class="cls-2" x1="820.13" y1="437.14" x2="820.13" y2="240.83"></line>
      <polygon class="cls-2" points="820.13 437.14 818.54 426.49 821.73 426.49 820.13 437.14"></polygon>
      <polygon class="cls-2" points="820.13 240.83 821.73 251.48 818.54 251.48 820.13 240.83"></polygon>
      <g>
        <path class="cls-7" d="M805.96,347.12c-.01.16,0,.37.06.6.35,1.25,1.87,1.91,3.48,2.04v-.03c-.62-.28-1.13-.77-1.13-1.42,0-1.04,1.25-1.77,3.16-1.77,1.79,0,3.45.73,3.45,1.95s-1.62,2.08-4.17,2.08c-1.93,0-3.45-.42-4.41-.99-.8-.49-1.29-1.14-1.44-1.88-.06-.23-.08-.43-.08-.58h1.08ZM811.6,347.34c-1.4,0-2.24.48-2.24,1.21,0,.48.5.92,1.2,1.14.15.05.35.09.59.09,1.61-.02,2.8-.46,2.8-1.29,0-.69-.95-1.15-2.35-1.15Z"></path>
        <path class="cls-7" d="M814.81,343.38h-2.66v2.73h-.87l-6.24-2.62v-.86h6.08v-.82h1.04v.82h2.66v.75ZM811.11,343.38h-3.26c-.51,0-1.02,0-1.54-.03v.03c.57.18.99.33,1.44.49l3.33,1.44h.03v-1.92Z"></path>
        <path class="cls-7" d="M814.02,341.14c-.56,0-.95-.23-.95-.54s.39-.53.95-.53.95.21.95.54c0,.32-.41.53-.95.53Z"></path>
        <path class="cls-7" d="M806.14,335.83v2.24l2.51.23c-.03-.14-.06-.26-.06-.48,0-.45.17-.9.53-1.26.44-.46,1.28-.84,2.51-.84,1.91,0,3.34.91,3.34,2.19,0,.64-.3,1.18-.6,1.46l-1.01-.2c.24-.24.54-.72.54-1.26,0-.75-.81-1.39-2.12-1.39-1.26,0-2.17.52-2.17,1.69,0,.33.06.6.11.81l-4.69-.38v-2.81h1.11Z"></path>
      </g>
      <line class="cls-2" x1="757.17" y1="704.97" x2="712.27" y2="704.97"></line>
      <line class="cls-2" x1="757.17" y1="674.81" x2="718.36" y2="674.81"></line>
      <line class="cls-2" x1="751.84" y1="704.97" x2="751.84" y2="674.81"></line>
      <polygon class="cls-2" points="751.84 704.97 750.24 694.32 753.44 694.32 751.84 704.97"></polygon>
      <polygon class="cls-2" points="751.84 674.81 753.44 685.46 750.24 685.46 751.84 674.81"></polygon>
      <g>
        <path class="cls-7" d="M745.58,699.64c.03-.17,0-.37-.04-.64-.11-.46-.42-.89-.95-1.23-.59-.39-1.44-.67-2.6-.78v.03c.66.33,1.05.79,1.05,1.38,0,1.06-1.32,1.73-2.99,1.73-1.85,0-3.48-.8-3.48-2.01s1.62-1.94,4.12-1.94c2.15,0,3.66.43,4.59,1.01.74.45,1.19,1.07,1.31,1.71.08.29.09.54.08.73h-1.08ZM739.95,699.36c1.22,0,2.08-.44,2.08-1.13,0-.53-.44-.95-1.02-1.16-.12-.05-.27-.07-.48-.07-1.67,0-2.95.37-2.95,1.2,0,.68.99,1.16,2.38,1.16Z"></path>
        <path class="cls-7" d="M745.73,695.41c-.56,0-.95-.23-.95-.54s.39-.53.95-.53.95.21.95.54c0,.32-.41.53-.95.53Z"></path>
        <path class="cls-7" d="M745.58,693.15c.03-.17,0-.37-.04-.64-.11-.46-.42-.89-.95-1.23-.59-.39-1.44-.67-2.6-.78v.03c.66.32,1.05.79,1.05,1.38,0,1.06-1.32,1.73-2.99,1.73-1.85,0-3.48-.8-3.48-2.01s1.62-1.94,4.12-1.94c2.15,0,3.66.43,4.59,1.01.74.45,1.19,1.08,1.31,1.71.08.29.09.54.08.73h-1.08ZM739.95,692.86c1.22,0,2.08-.44,2.08-1.13,0-.53-.44-.95-1.02-1.16-.12-.04-.27-.07-.48-.07-1.67,0-2.95.37-2.95,1.2,0,.68.99,1.16,2.38,1.16Z"></path>
        <path class="cls-7" d="M737.97,687.25v.02l.92,1.02-1.01.15-1.14-1.28v-.68h9.78v.77h-8.55Z"></path>
      </g>
      <line class="cls-2" x1="529.97" y1="441.86" x2="597.45" y2="496.57"></line>
      <polygon class="cls-2" points="529.97 441.86 539.25 447.32 537.23 449.81 529.97 441.86"></polygon>
      <g>
        <path class="cls-7" d="M589.13,470.15c.39.14.88.45,1.3.79.65.53.91,1.07.85,1.75-.05.54-.35,1.19-.84,1.8-.84,1.04-1.79,1.41-2.52,1.29l-.03.04c.19.51-.04,1.24-.59,2.15-.74,1.22-1.24,2.07-1.39,2.46l-.63-.51c.1-.29.55-1.05,1.21-2.14.74-1.2.82-1.81.29-2.3l-.58-.47-2.77,3.41-.61-.5,6.3-7.77ZM586.83,474.24l.62.51c.65.53,1.55.27,2.28-.63.82-1.02.74-1.82.11-2.36-.29-.24-.54-.36-.68-.39l-2.33,2.88Z"></path>
        <path class="cls-7" d="M594.59,476.46h-.01s-1.37.06-1.37.06l.52-.88,1.72-.08.53.43-6.16,7.6-.6-.48,5.38-6.64Z"></path>
        <path class="cls-7" d="M599.64,480.4l-1.74-1.41-1.76,1.81c.12.06.24.12.41.25.35.28.6.7.65,1.2.08.63-.15,1.52-.93,2.48-1.2,1.48-2.81,2.02-3.8,1.22-.5-.4-.73-.98-.76-1.39l.79-.66c.04.34.22.88.63,1.21.58.47,1.59.25,2.42-.77.79-.99.96-2.01.05-2.75-.26-.21-.5-.33-.7-.43l3.25-3.41,2.18,1.77-.7.86Z"></path>
      </g>
      <line class="cls-2" x1="682.13" y1="391.58" x2="702.36" y2="418.52"></line>
      <polygon class="cls-2" points="682.13 391.58 689.81 399.14 687.25 401.06 682.13 391.58"></polygon>
      <g>
        <path class="cls-7" d="M697.72,386.84c.35.24.75.65,1.07,1.08.5.67.62,1.26.4,1.9-.18.52-.63,1.07-1.25,1.54-1.07.8-2.08.93-2.76.64l-.04.03c.07.54-.34,1.2-1.1,1.94-1.01,1.01-1.71,1.71-1.94,2.05l-.49-.65c.17-.25.79-.88,1.69-1.78,1.01-.98,1.24-1.56.84-2.16l-.44-.59-3.51,2.64-.47-.63,8-6.01ZM694.5,390.24l.48.64c.5.67,1.44.64,2.36-.06,1.05-.79,1.16-1.59.68-2.26-.23-.3-.44-.48-.56-.55l-2.96,2.22Z"></path>
        <path class="cls-7" d="M694.95,397.27c-.06.33-.04.97.29,1.41.61.82,1.67.42,2.31-.08,1.09-.83,1.11-1.77.65-2.39l-.27-.35.79-.6.27.35c.35.46,1.18.75,2.11.05.63-.47,1-1.12.56-1.71-.28-.38-.83-.53-1.22-.55l.65-.75c.49.02,1.14.27,1.52.78.69.92.09,2.03-.86,2.74-.81.6-1.71.83-2.49.51l-.02.02c.24.72-.13,1.73-1.22,2.56-1.25.94-2.79,1.18-3.63.05-.4-.53-.47-1.2-.39-1.62l.95-.44Z"></path>
        <path class="cls-7" d="M702.73,401.86c-2.66,2-4.57,2.51-5.35,1.47-.69-.92.28-2.61,2.85-4.57,2.62-1.97,4.58-2.37,5.29-1.42.74.99-.3,2.65-2.79,4.52ZM700.7,399.4c-2.03,1.53-2.91,2.77-2.47,3.35.49.65,1.98.01,3.98-1.49,1.92-1.45,2.97-2.69,2.47-3.35-.42-.56-1.85-.11-3.98,1.49Z"></path>
      </g>
      <line class="cls-2" x1="710.62" y1="674.25" x2="728.63" y2="597.15"></line>
      <polygon class="cls-2" points="710.62 674.25 711.48 663.52 714.6 664.24 710.62 674.25"></polygon>
      <g>
        <path class="cls-7" d="M702.95,639.96c-.04-.42.01-.99.14-1.52.19-.82.56-1.29,1.21-1.53.51-.2,1.22-.21,1.98-.03,1.3.3,2.05,1,2.26,1.71h.04c.37-.38,1.14-.49,2.2-.39,1.42.13,2.41.21,2.82.18l-.19.79c-.3.03-1.18-.03-2.45-.15-1.4-.14-1.99.05-2.2.74l-.17.72,4.28,1-.18.77-9.74-2.28ZM707.63,640.25l.18-.78c.19-.82-.44-1.51-1.56-1.78-1.28-.3-1.96.13-2.17.93-.09.37-.09.65-.06.78l3.6.84Z"></path>
        <path class="cls-7" d="M714.17,635.92l-.79-.18-.84-.84c-1.97-2-3.05-2.95-4.48-3.29-.97-.23-1.93-.15-2.12.7-.12.52.22,1.05.52,1.4l-.97.03c-.46-.53-.74-1.18-.59-1.84.29-1.23,1.81-1.42,3.18-1.1,1.76.41,3,1.51,4.65,3.17l.6.62h.03s.6-2.56.6-2.56l1.07.25-.85,3.65Z"></path>
      </g>
      <line class="cls-2" x1="715.26" y1="699.69" x2="683.05" y2="695.36"></line>
      <polygon class="cls-2" points="715.26 699.69 704.5 699.86 704.92 696.69 715.26 699.69"></polygon>
      <g>
        <path class="cls-7" d="M685.82,680.26c.41-.08.99-.08,1.52,0,.83.11,1.34.44,1.64,1.05.25.49.32,1.2.22,1.97-.18,1.33-.8,2.14-1.48,2.41v.04c.42.33.61,1.08.61,2.15,0,1.43.02,2.42.09,2.82l-.81-.11c-.06-.3-.08-1.18-.08-2.46,0-1.41-.25-1.98-.95-2.12l-.73-.1-.58,4.35-.78-.1,1.33-9.92ZM685.98,684.94l.8.11c.83.11,1.46-.58,1.62-1.73.17-1.3-.31-1.94-1.13-2.06-.38-.05-.65-.03-.79.02l-.49,3.67Z"></path>
        <path class="cls-7" d="M690.92,691.04l.11-.81.75-.92c1.8-2.16,2.64-3.32,2.85-4.78.13-.98-.03-1.93-.9-2.05-.53-.07-1.03.32-1.35.65l-.13-.96c.48-.51,1.11-.85,1.78-.76,1.25.17,1.59,1.67,1.4,3.06-.24,1.79-1.21,3.13-2.7,4.93l-.56.65v.03s2.61.35,2.61.35l-.15,1.09-3.72-.5Z"></path>
      </g>
      <line class="cls-2" x1="288.12" y1="704.37" x2="268.13" y2="746.02"></line>
      <polygon class="cls-2" points="288.12 704.37 284.95 714.66 282.07 713.28 288.12 704.37"></polygon>
      <g>
        <path class="cls-7" d="M254.58,738.71c.05-.42.23-.96.46-1.45.36-.76.83-1.14,1.51-1.23.54-.08,1.24.06,1.94.4,1.21.58,1.79,1.42,1.84,2.15l.04.02c.45-.31,1.22-.25,2.23.08,1.36.43,2.3.73,2.71.78l-.35.73c-.3-.03-1.15-.29-2.36-.68-1.34-.44-1.96-.38-2.31.25l-.32.67,3.96,1.9-.34.71-9.02-4.33ZM259.09,740l.35-.72c.36-.76-.1-1.57-1.14-2.07-1.18-.57-1.94-.3-2.31.44-.16.34-.23.61-.23.75l3.34,1.6Z"></path>
        <path class="cls-7" d="M266.41,737.19l-.73-.35-.64-1c-1.49-2.38-2.34-3.54-3.67-4.18-.9-.43-1.85-.57-2.23.22-.23.48-.01,1.07.21,1.48l-.95-.18c-.34-.61-.47-1.32-.18-1.93.55-1.14,2.08-1,3.34-.39,1.63.78,2.6,2.12,3.86,4.1l.45.74h.03s1.14-2.37,1.14-2.37l.99.47-1.62,3.38Z"></path>
      </g>
      <line class="cls-2" x1="285.21" y1="677.67" x2="323.8" y2="695.17"></line>
      <polygon class="cls-2" points="285.21 677.67 295.57 680.61 294.25 683.52 285.21 677.67"></polygon>
      <g>
        <path class="cls-7" d="M314.92,674.3c.42.04.97.21,1.46.43.77.35,1.15.8,1.26,1.48.09.54-.04,1.24-.36,1.95-.55,1.22-1.38,1.82-2.11,1.88l-.02.04c.32.44.27,1.21-.03,2.23-.4,1.37-.68,2.32-.72,2.73l-.74-.34c.03-.3.27-1.15.63-2.37.41-1.35.34-1.96-.3-2.3l-.67-.31-1.81,4-.72-.33,4.13-9.11ZM313.73,678.83l.73.33c.76.35,1.57-.13,2.05-1.19.54-1.19.26-1.95-.49-2.3-.35-.16-.62-.21-.76-.21l-1.53,3.37Z"></path>
        <path class="cls-7" d="M316.7,686.09l.34-.74.98-.66c2.35-1.55,3.49-2.42,4.1-3.76.41-.9.53-1.86-.27-2.22-.49-.22-1.08,0-1.48.24l.16-.96c.61-.35,1.31-.5,1.92-.22,1.15.52,1.04,2.06.46,3.33-.75,1.64-2.07,2.65-4.01,3.95l-.73.46v.03s2.39,1.09,2.39,1.09l-.45,1-3.41-1.55Z"></path>
      </g>
      <line class="cls-2" x1="715.32" y1="798.71" x2="715.32" y2="701.92"></line>
      <line class="cls-2" x1="284.66" y1="798.71" x2="284.66" y2="701.92"></line>
      <line class="cls-2" x1="715.32" y1="793.38" x2="284.66" y2="793.38"></line>
      <polygon class="cls-2" points="715.32 793.38 704.67 794.98 704.67 791.78 715.32 793.38"></polygon>
      <polygon class="cls-2" points="284.66 793.38 295.32 791.78 295.32 794.98 284.66 793.38"></polygon>
      <g>
        <path class="cls-7" d="M483.66,779.51h-.02l-1.02.92-.15-1.01,1.28-1.14h.68v9.78h-.77v-8.55Z"></path>
        <path class="cls-7" d="M489.03,788.05v-2.66h-2.73v-.87l2.62-6.24h.86v6.08h.82v1.04h-.82v2.66h-.75ZM489.03,784.35v-3.26c0-.51,0-1.02.03-1.54h-.03c-.18.57-.33.99-.49,1.44l-1.44,3.33v.03h1.92Z"></path>
        <path class="cls-7" d="M492.92,779.51h-.02l-1.02.92-.15-1.01,1.28-1.14h.68v9.78h-.77v-8.55Z"></path>
        <path class="cls-7" d="M495.89,787.27c0-.56.23-.95.54-.95s.53.39.53.95-.21.95-.54.95c-.32,0-.53-.41-.53-.95Z"></path>
        <path class="cls-7" d="M501.2,779.39h-2.24l-.23,2.51c.14-.03.26-.06.48-.06.45,0,.9.17,1.26.53.46.44.84,1.28.84,2.51,0,1.91-.91,3.34-2.19,3.34-.64,0-1.18-.3-1.46-.6l.2-1.01c.24.24.72.54,1.26.54.75,0,1.39-.81,1.39-2.12,0-1.26-.51-2.17-1.69-2.17-.33,0-.6.06-.81.11l.38-4.69h2.81v1.11Z"></path>
      </g>
      <line class="cls-2" x1="499.99" y1="758.52" x2="499.99" y2="708.01"></line>
      <line class="cls-2" x1="523.4" y1="758.52" x2="523.4" y2="734.03"></line>
      <line class="cls-2" x1="499.99" y1="753.2" x2="575.53" y2="753.2"></line>
      <polygon class="cls-2" points="499.99 753.2 489.34 751.6 489.34 754.8 499.99 753.2"></polygon>
      <line class="cls-2" x1="499.99" y1="753.2" x2="485.08" y2="753.2"></line>
      <polygon class="cls-2" points="523.4 753.2 534.05 754.8 534.05 751.6 523.4 753.2"></polygon>
      <line class="cls-2" x1="523.4" y1="753.2" x2="538.31" y2="753.2"></line>
      <g>
        <path class="cls-7" d="M555.96,738.09v.87l-2.56,8.91h-.82l2.55-8.65v-.03h-2.87v-1.1h3.7Z"></path>
        <path class="cls-7" d="M556.84,747.09c0-.56.23-.95.54-.95s.53.39.53.95-.21.95-.54.95c-.32,0-.53-.41-.53-.95Z"></path>
        <path class="cls-7" d="M562,739.03c-.16-.01-.37,0-.6.06-1.25.35-1.91,1.87-2.04,3.48h.03c.28-.62.77-1.13,1.42-1.13,1.04,0,1.77,1.25,1.77,3.16,0,1.79-.73,3.45-1.95,3.45s-2.08-1.62-2.08-4.17c0-1.93.42-3.45.99-4.41.49-.8,1.14-1.29,1.88-1.44.24-.06.43-.08.58-.08v1.08ZM561.77,744.67c0-1.4-.48-2.24-1.21-2.24-.48,0-.92.5-1.14,1.2-.05.15-.09.35-.09.59.02,1.61.46,2.8,1.29,2.8.69,0,1.15-.95,1.15-2.35Z"></path>
        <path class="cls-7" d="M563.74,746.94c.17.03.37,0,.64-.04.46-.11.89-.42,1.23-.95.39-.59.67-1.44.78-2.6h-.03c-.33.66-.79,1.05-1.38,1.05-1.06,0-1.73-1.32-1.73-2.99,0-1.85.8-3.48,2.01-3.48s1.94,1.62,1.94,4.12c0,2.15-.43,3.66-1.01,4.59-.45.74-1.07,1.19-1.71,1.31-.29.08-.54.09-.73.08v-1.08ZM564.03,741.31c0,1.22.44,2.08,1.13,2.08.53,0,.95-.44,1.16-1.02.05-.12.07-.27.07-.48,0-1.67-.37-2.95-1.2-2.95-.68,0-1.16.99-1.16,2.38Z"></path>
      </g>
      <line class="cls-2" x1="785.24" y1="647.89" x2="503.03" y2="647.89"></line>
      <line class="cls-2" x1="785.24" y1="704.97" x2="503.03" y2="704.97"></line>
      <line class="cls-2" x1="779.91" y1="647.89" x2="779.91" y2="704.97"></line>
      <polygon class="cls-2" points="779.91 647.89 781.51 658.54 778.32 658.54 779.91 647.89"></polygon>
      <polygon class="cls-2" points="779.91 704.97 778.32 694.32 781.51 694.32 779.91 704.97"></polygon>
      <g>
        <path class="cls-7" d="M764.15,698.56c1.47.66,3.43,1.14,6.15,1.14s4.6-.5,6.11-1.14v.62c-1.25.57-3.17,1.18-6.11,1.18-2.96,0-4.89-.61-6.15-1.18v-.62Z"></path>
        <path class="cls-7" d="M766.04,696.25v.02l.92,1.02-1.01.15-1.14-1.28v-.68h9.78v.77h-8.55Z"></path>
        <path class="cls-7" d="M772.11,693.42c-1.23,0-2.11-.44-2.62-1.17h-.04c-.51.66-1.35.94-2.2.94-1.55,0-2.6-.79-2.6-1.82,0-1.14,1.19-1.71,2.41-1.71.83,0,1.72.24,2.29.97h.04c.48-.73,1.34-1.18,2.53-1.18,1.7,0,2.84.88,2.84,2,0,1.23-1.22,1.97-2.65,1.97ZM767.16,692.44c.98,0,1.5-.44,1.81-1.12-.29-.51-.89-.89-1.78-.89-.78,0-1.59.28-1.59.99,0,.66.72,1.02,1.56,1.02ZM772.04,690.25c-1.19,0-1.76.5-2.14,1.29.33.69,1.08,1.06,2.02,1.06.99.03,1.87-.42,1.87-1.17s-.74-1.17-1.75-1.17Z"></path>
        <path class="cls-7" d="M773.81,688.65c-.56,0-.95-.23-.95-.54s.39-.53.95-.53.95.21.95.54c0,.32-.41.53-.95.53Z"></path>
        <path class="cls-7" d="M764.81,683.03h.87l8.91,2.56v.82l-8.65-2.55h-.03v2.87h-1.1v-3.7Z"></path>
        <path class="cls-7" d="M765.92,678.71v2.24l2.51.23c-.03-.14-.06-.26-.06-.48,0-.45.17-.9.53-1.26.44-.46,1.28-.84,2.51-.84,1.91,0,3.34.91,3.34,2.19,0,.64-.3,1.18-.6,1.46l-1.01-.2c.24-.24.54-.72.54-1.26,0-.75-.81-1.39-2.12-1.39-1.26,0-2.17.51-2.17,1.69,0,.33.06.6.11.81l-4.69-.38v-2.81h1.11Z"></path>
      </g>
      <path class="cls-7" d="M773.92,676.1c-1.19-.51-2.76-.91-4.92-.91s-3.7.39-4.89.91v-.49c.99-.46,2.53-.95,4.9-.95s3.89.48,4.91.95v.49Z"></path>
      <line class="cls-2" x1="443.87" y1="546.98" x2="443.87" y2="404.41"></line>
      <line class="cls-2" x1="499.99" y1="546.98" x2="499.99" y2="404.41"></line>
      <line class="cls-2" x1="443.87" y1="541.66" x2="499.99" y2="541.66"></line>
      <polygon class="cls-2" points="443.87 541.66 454.52 540.06 454.52 543.25 443.87 541.66"></polygon>
      <polygon class="cls-2" points="499.99 541.66 489.34 543.25 489.34 540.06 499.99 541.66"></polygon>
      <g>
        <path class="cls-7" d="M449.9,527.78h-.02l-1.02.92-.15-1.01,1.28-1.14h.68v9.78h-.77v-8.55Z"></path>
        <path class="cls-7" d="M452.73,533.85c0-1.23.44-2.11,1.17-2.62v-.04c-.66-.51-.94-1.35-.94-2.2,0-1.55.79-2.6,1.82-2.6,1.14,0,1.71,1.19,1.71,2.41,0,.83-.24,1.72-.97,2.29v.04c.73.48,1.18,1.34,1.18,2.53,0,1.7-.88,2.84-2,2.84-1.23,0-1.97-1.22-1.97-2.65ZM455.9,533.79c0-1.19-.5-1.76-1.29-2.14-.69.33-1.06,1.08-1.06,2.02-.03.99.42,1.87,1.17,1.87s1.17-.74,1.17-1.75ZM453.71,528.9c0,.98.44,1.5,1.12,1.81.51-.29.89-.89.89-1.78,0-.78-.28-1.59-.99-1.59-.66,0-1.02.72-1.02,1.56Z"></path>
        <path class="cls-7" d="M457.5,535.55c0-.56.23-.95.54-.95s.53.39.53.95-.21.95-.54.95c-.32,0-.53-.41-.53-.95Z"></path>
        <path class="cls-7" d="M461.76,536.33v-2.66h-2.73v-.87l2.62-6.24h.86v6.08h.82v1.04h-.82v2.66h-.75ZM461.76,532.63v-3.26c0-.51,0-1.02.03-1.54h-.03c-.18.57-.33.99-.49,1.44l-1.44,3.33v.03h1.92Z"></path>
        <path class="cls-7" d="M466.39,536.33v-2.66h-2.73v-.87l2.62-6.24h.86v6.08h.82v1.04h-.82v2.66h-.75ZM466.39,532.63v-3.26c0-.51,0-1.02.03-1.54h-.03c-.18.57-.33.99-.49,1.44l-1.44,3.33v.03h1.92Z"></path>
      </g>
      <line class="cls-2" x1="305.76" y1="240.83" x2="440.83" y2="240.83"></line>
      <line class="cls-2" x1="311.09" y1="283.44" x2="311.09" y2="240.83"></line>
      <polygon class="cls-2" points="311.09 283.44 309.49 272.79 312.69 272.79 311.09 283.44"></polygon>
      <polygon class="cls-2" points="311.09 240.83 312.69 251.48 309.49 251.48 311.09 240.83"></polygon>
      <path class="cls-7" d="M293.49,262.97h4.24v-2.94h-4.24v-.79h10.14v.79h-4.75v2.94h4.75v.79h-10.14v-.79Z"></path>
      <polygon class="cls-5" points="305.14 264.44 305.14 264.44 305.14 258.55 305.14 264.44"></polygon>
      <line class="cls-2" x1="308.43" y1="265.59" x2="308.43" y2="258.68"></line>
      <line class="cls-2" x1="284.66" y1="45.84" x2="284.66" y2="671.76"></line>
      <line class="cls-2" x1="545.65" y1="45.84" x2="545.65" y2="280.4"></line>
      <line class="cls-2" x1="284.66" y1="51.17" x2="545.65" y2="51.17"></line>
      <polygon class="cls-2" points="284.66 51.17 295.31 49.57 295.31 52.77 284.66 51.17"></polygon>
      <polygon class="cls-2" points="545.65 51.17 535 52.77 535 49.57 545.65 51.17"></polygon>
      <g>
        <path class="cls-7" d="M396.01,43.36c0-1.23.44-2.11,1.17-2.62v-.05c-.66-.51-.94-1.35-.94-2.2,0-1.55.79-2.6,1.82-2.6,1.14,0,1.71,1.19,1.71,2.41,0,.83-.24,1.72-.97,2.29v.05c.73.48,1.18,1.34,1.18,2.53,0,1.7-.88,2.84-2,2.84-1.23,0-1.97-1.22-1.97-2.65ZM399.17,43.3c0-1.19-.5-1.76-1.29-2.14-.69.33-1.06,1.08-1.06,2.02-.03.99.42,1.87,1.17,1.87s1.17-.74,1.17-1.75ZM396.98,38.41c0,.98.44,1.5,1.12,1.81.51-.29.89-.89.89-1.78,0-.78-.28-1.59-.99-1.59-.66,0-1.02.72-1.02,1.56Z"></path>
        <path class="cls-7" d="M404.21,37.18h-2.24l-.23,2.51c.14-.03.26-.06.48-.06.45,0,.9.17,1.26.53.46.44.84,1.28.84,2.51,0,1.91-.91,3.34-2.19,3.34-.64,0-1.18-.3-1.46-.6l.2-1.01c.24.24.72.54,1.26.54.75,0,1.39-.81,1.39-2.12,0-1.26-.51-2.17-1.69-2.17-.33,0-.6.06-.81.1l.38-4.69h2.81v1.11Z"></path>
        <path class="cls-7" d="M405.4,45.06c0-.56.23-.95.54-.95s.53.39.53.95-.21.95-.54.95c-.32,0-.53-.41-.53-.95Z"></path>
        <path class="cls-7" d="M411.02,36.06v.87l-2.56,8.91h-.82l2.55-8.65v-.03h-2.87v-1.1h3.7Z"></path>
        <path class="cls-7" d="M415.34,37.18h-2.24l-.23,2.51c.14-.03.26-.06.48-.06.45,0,.9.17,1.26.53.46.44.84,1.28.84,2.51,0,1.91-.91,3.34-2.19,3.34-.64,0-1.18-.3-1.46-.6l.2-1.01c.24.24.72.54,1.26.54.75,0,1.39-.81,1.39-2.12,0-1.26-.51-2.17-1.69-2.17-.33,0-.6.06-.81.1l.38-4.69h2.81v1.11Z"></path>
      </g>
      <line class="cls-2" x1="728.98" y1="263.97" x2="732.84" y2="240.83"></line>
      <line class="cls-2" x1="732.84" y1="240.83" x2="711.28" y2="240.83"></line>
      <line class="cls-2" x1="732.84" y1="14.48" x2="732.84" y2="237.79"></line>
      <line class="cls-2" x1="729.54" y1="14.48" x2="729.54" y2="256.05"></line>
      <line class="cls-2" x1="795.97" y1="19.81" x2="729.54" y2="19.81"></line>
      <polygon class="cls-2" points="732.84 19.81 743.49 21.41 743.49 18.21 732.84 19.81"></polygon>
      <line class="cls-2" x1="732.84" y1="19.81" x2="747.75" y2="19.81"></line>
      <polygon class="cls-2" points="729.54 19.81 718.89 18.21 718.89 21.41 729.54 19.81"></polygon>
      <line class="cls-2" x1="729.54" y1="19.81" x2="714.63" y2="19.81"></line>
      <g class="cls-13">
        <g>
          <path class="cls-7" d="M774.32,5.94h-.02l-1.02.92-.15-1.01,1.28-1.14h.68v9.78h-.77V5.94Z"></path>
          <path class="cls-7" d="M777.29,13.7c0-.56.23-.95.54-.95s.53.39.53.95-.21.95-.54.95c-.32,0-.53-.41-.53-.95Z"></path>
          <path class="cls-7" d="M783,9.49c0,3.33-.74,5.16-2.04,5.16-1.15,0-1.92-1.79-1.94-5.02,0-3.28.85-5.09,2.04-5.09s1.94,1.84,1.94,4.95ZM779.81,9.64c0,2.54.47,3.99,1.19,3.99.81,0,1.2-1.58,1.2-4.08s-.37-3.99-1.19-3.99c-.7,0-1.2,1.41-1.2,4.08Z"></path>
          <path class="cls-7" d="M783.65,12c0-1.23.44-2.11,1.17-2.62v-.05c-.66-.51-.94-1.35-.94-2.2,0-1.55.79-2.6,1.82-2.6,1.14,0,1.71,1.19,1.71,2.41,0,.83-.24,1.72-.97,2.29v.05c.73.48,1.18,1.34,1.18,2.53,0,1.7-.88,2.84-2,2.84-1.23,0-1.97-1.22-1.97-2.65ZM786.81,11.94c0-1.19-.5-1.76-1.29-2.14-.69.33-1.06,1.08-1.06,2.02-.03.99.42,1.87,1.17,1.87s1.17-.74,1.17-1.75ZM784.63,7.05c0,.98.44,1.5,1.12,1.81.51-.29.89-.89.89-1.78,0-.78-.28-1.59-.99-1.59-.66,0-1.02.72-1.02,1.56Z"></path>
        </g>
      </g>
      <line class="cls-2" x1="648" y1="278.45" x2="668.23" y2="278.45"></line>
      <line class="cls-2" x1="648" y1="240.83" x2="682.23" y2="240.83"></line>
      <line class="cls-2" x1="653.33" y1="278.45" x2="653.33" y2="203.94"></line>
      <polygon class="cls-2" points="653.33 278.45 651.73 289.1 654.92 289.1 653.33 278.45"></polygon>
      <line class="cls-2" x1="653.33" y1="278.45" x2="653.33" y2="293.36"></line>
      <polygon class="cls-2" points="653.33 240.83 654.92 230.18 651.73 230.18 653.33 240.83"></polygon>
      <line class="cls-2" x1="653.33" y1="240.83" x2="653.33" y2="225.92"></line>
      <g>
        <path class="cls-7" d="M639.46,231.98v.02l.92,1.02-1.01.15-1.14-1.28v-.68h9.78v.77h-8.55Z"></path>
        <path class="cls-7" d="M648,229.07h-.81l-1.01-.62c-2.38-1.5-3.64-2.18-5.12-2.19-.99,0-1.91.29-1.91,1.17,0,.53.45.98.83,1.25l-.93.25c-.57-.41-.99-.98-.99-1.66,0-1.26,1.44-1.8,2.84-1.8,1.81,0,3.26.79,5.25,2.02l.72.47h.03v-2.64h1.1v3.75Z"></path>
        <path class="cls-7" d="M647.22,224.38c-.56,0-.95-.23-.95-.54s.39-.53.95-.53.95.21.95.54c0,.32-.41.53-.95.53Z"></path>
        <path class="cls-7" d="M646.48,222.38c.24-.23.62-.75.62-1.3,0-1.02-1.08-1.34-1.9-1.33-1.37,0-1.96.75-1.96,1.52v.44h-.99v-.44c0-.58-.5-1.31-1.66-1.31-.78,0-1.47.3-1.47,1.03,0,.47.35.92.65,1.17l-.96.21c-.38-.31-.75-.9-.75-1.54,0-1.16,1.14-1.68,2.33-1.68,1.01,0,1.87.36,2.3,1.08h.03c.24-.72,1.14-1.31,2.51-1.31,1.57,0,2.93.73,2.93,2.14,0,.66-.35,1.24-.66,1.53l-1.02-.22Z"></path>
        <path class="cls-7" d="M639.16,214.59c-.01.16,0,.37.06.6.35,1.25,1.87,1.91,3.48,2.04v-.03c-.62-.28-1.13-.77-1.13-1.42,0-1.04,1.25-1.77,3.16-1.77,1.79,0,3.45.73,3.45,1.95s-1.62,2.08-4.17,2.08c-1.93,0-3.45-.42-4.41-.99-.8-.49-1.29-1.14-1.44-1.88-.06-.23-.08-.43-.08-.58h1.08ZM644.8,214.82c-1.4,0-2.24.48-2.24,1.21,0,.48.5.92,1.2,1.14.15.05.35.09.59.09,1.61-.02,2.8-.46,2.8-1.29,0-.69-.95-1.15-2.35-1.15Z"></path>
      </g>
      <line class="cls-2" x1="544.82" y1="214.62" x2="544.82" y2="275.41"></line>
      <line class="cls-2" x1="499.99" y1="214.62" x2="499.99" y2="240.72"></line>
      <line class="cls-2" x1="544.82" y1="219.95" x2="499.99" y2="219.95"></line>
      <polygon class="cls-2" points="544.82 219.95 534.17 221.54 534.17 218.35 544.82 219.95"></polygon>
      <polygon class="cls-2" points="499.99 219.95 510.64 218.35 510.64 221.54 499.99 219.95"></polygon>
      <g>
        <path class="cls-7" d="M509.45,206.07h-.02l-1.02.92-.15-1.01,1.28-1.14h.68v9.78h-.77v-8.55Z"></path>
        <path class="cls-7" d="M514.81,214.62v-2.66h-2.73v-.87l2.62-6.24h.86v6.08h.82v1.04h-.82v2.66h-.75ZM514.81,210.92v-3.26c0-.51,0-1.02.03-1.53h-.03c-.18.57-.33.99-.49,1.44l-1.44,3.32v.03h1.92Z"></path>
        <path class="cls-7" d="M517.05,213.84c0-.56.23-.95.54-.95s.53.39.53.95-.21.95-.54.95c-.32,0-.53-.41-.53-.95Z"></path>
        <path class="cls-7" d="M522.67,204.84v.87l-2.56,8.91h-.82l2.55-8.65v-.03h-2.87v-1.1h3.7Z"></path>
        <path class="cls-7" d="M523.68,213.1c.23.24.75.62,1.3.62,1.02,0,1.34-1.08,1.33-1.9,0-1.37-.75-1.96-1.52-1.96h-.44v-.99h.44c.58,0,1.31-.5,1.31-1.66,0-.78-.3-1.47-1.03-1.47-.47,0-.92.35-1.17.65l-.21-.96c.31-.38.9-.75,1.54-.75,1.16,0,1.68,1.14,1.68,2.33,0,1.01-.36,1.87-1.08,2.3v.03c.72.24,1.31,1.14,1.31,2.51,0,1.56-.73,2.93-2.14,2.93-.66,0-1.24-.35-1.53-.66l.22-1.02Z"></path>
      </g>
      <line class="cls-2" x1="529.72" y1="253.44" x2="513.4" y2="274.94"></line>
      <polygon class="cls-2" points="529.72 253.44 524.55 262.89 522 260.96 529.72 253.44"></polygon>
      <g>
        <path class="cls-7" d="M501.6,265.08c.13-.4.42-.9.74-1.33.51-.67,1.04-.95,1.72-.9.55.03,1.2.31,1.82.78,1.07.81,1.47,1.75,1.37,2.48l.04.03c.5-.21,1.24,0,2.17.52,1.25.7,2.11,1.17,2.5,1.31l-.49.65c-.29-.09-1.06-.51-2.17-1.14-1.22-.7-1.84-.76-2.31-.22l-.45.59,3.5,2.66-.47.63-7.97-6.05ZM505.75,267.25l.49-.64c.51-.67.22-1.56-.7-2.26-1.04-.79-1.84-.68-2.36-.03-.23.3-.34.55-.37.69l2.95,2.24Z"></path>
        <path class="cls-7" d="M507.73,259.42h-.01s.11,1.38.11,1.38l-.9-.49-.14-1.71.41-.54,7.79,5.91-.46.61-6.81-5.17Z"></path>
        <path class="cls-7" d="M515.2,261.2c.33-.03.94-.22,1.28-.66.62-.81-.05-1.72-.71-2.21-1.1-.82-2.01-.58-2.47.03l-.27.35-.79-.6.27-.35c.35-.46.4-1.34-.53-2.04-.62-.47-1.36-.65-1.8-.07-.28.37-.28.94-.19,1.33l-.89-.42c-.11-.47-.05-1.17.33-1.68.7-.92,1.93-.65,2.87.07.8.61,1.27,1.42,1.18,2.26l.02.02c.63-.43,1.7-.35,2.79.48,1.25.95,1.89,2.36,1.04,3.48-.4.53-1.02.78-1.45.82l-.68-.79Z"></path>
      </g>
      <line class="cls-2" x1="381.27" y1="321.44" x2="355.97" y2="345.21"></line>
      <polygon class="cls-2" points="381.27 321.44 374.6 329.9 372.41 327.57 381.27 321.44"></polygon>
      <g>
        <path class="cls-7" d="M345.9,333.62c.2-.37.56-.82.96-1.19.61-.58,1.18-.76,1.85-.6.53.12,1.13.51,1.67,1.08.92.98,1.16,1.97.93,2.67l.03.03c.53-.12,1.23.21,2.05.88,1.11.89,1.89,1.51,2.25,1.71l-.59.56c-.27-.14-.96-.68-1.95-1.49-1.09-.9-1.69-1.06-2.24-.6l-.54.51,3.01,3.2-.57.54-6.85-7.29ZM349.64,336.44l.59-.55c.61-.58.48-1.5-.32-2.34-.9-.96-1.7-.98-2.32-.42-.28.26-.43.49-.48.62l2.53,2.7Z"></path>
        <path class="cls-7" d="M355.73,334.7c-.84-.9-1.12-1.84-.94-2.71l-.04-.03c-.82.07-1.6-.35-2.18-.96-1.06-1.13-1.21-2.44-.46-3.14.83-.78,2.06-.3,2.89.59.57.6,1,1.42.86,2.33l.03.03c.86-.15,1.78.17,2.59,1.03,1.16,1.24,1.31,2.67.49,3.44-.9.84-2.27.46-3.25-.58ZM353.05,330.43c.67.71,1.35.79,2.05.55.17-.55.04-1.26-.56-1.91-.54-.57-1.3-.97-1.82-.48-.48.45-.25,1.23.33,1.84ZM357.99,332.5c-.81-.87-1.57-.94-2.4-.67-.27.71-.03,1.51.61,2.19.66.74,1.59,1.07,2.13.56.52-.49.35-1.34-.34-2.08Z"></path>
      </g>
      <line class="cls-2" x1="479.03" y1="380.09" x2="449.37" y2="386.97"></line>
      <polygon class="cls-2" points="479.03 380.09 469.01 384.05 468.29 380.94 479.03 380.09"></polygon>
      <g>
        <path class="cls-7" d="M446.53,371.86c.36-.22.89-.42,1.42-.55.82-.19,1.4-.06,1.9.41.4.37.73,1.01.9,1.77.3,1.31.01,2.28-.53,2.78v.04c.53.16.97.8,1.34,1.79.51,1.33.87,2.25,1.09,2.61l-.79.18c-.16-.26-.49-1.08-.94-2.27-.49-1.32-.93-1.76-1.63-1.65l-.72.17.99,4.28-.77.18-2.26-9.75ZM448.34,376.19l.78-.18c.82-.19,1.16-1.06.9-2.19-.3-1.28-.98-1.7-1.79-1.53-.37.09-.62.21-.73.29l.84,3.61Z"></path>
        <path class="cls-7" d="M454.86,371.43h-.02s-.79,1.13-.79,1.13l-.38-.95.99-1.4.66-.15,2.21,9.53-.75.17-1.93-8.33Z"></path>
        <path class="cls-7" d="M461.08,369.86l-2.18.51.35,2.5c.12-.06.24-.12.45-.17.44-.1.92-.04,1.35.23.55.32,1.11,1.06,1.39,2.26.43,1.86-.13,3.46-1.37,3.75-.62.15-1.22-.03-1.56-.25l-.03-1.03c.29.18.83.36,1.35.24.73-.17,1.17-1.11.88-2.38-.29-1.23-.99-1.99-2.13-1.73-.33.08-.57.19-.77.29l-.69-4.66,2.74-.64.25,1.08Z"></path>
      </g>
      <line class="cls-2" x1="826.29" y1="704.97" x2="712.28" y2="704.97"></line>
      <line class="cls-2" x1="826.29" y1="463.71" x2="793.16" y2="463.71"></line>
      <line class="cls-2" x1="820.97" y1="704.97" x2="820.97" y2="463.71"></line>
      <polygon class="cls-2" points="820.97 704.97 819.37 694.32 822.56 694.32 820.97 704.97"></polygon>
      <polygon class="cls-2" points="820.97 463.71 822.56 474.36 819.37 474.36 820.97 463.71"></polygon>
      <g>
        <path class="cls-7" d="M805.86,595.21h.87l8.91,2.56v.82l-8.65-2.55h-.03v2.87h-1.1v-3.7Z"></path>
        <path class="cls-7" d="M814.71,593.93c.03-.17,0-.37-.04-.64-.11-.46-.42-.89-.95-1.23-.59-.39-1.44-.67-2.6-.78v.03c.66.33,1.05.79,1.05,1.38,0,1.06-1.32,1.73-2.99,1.73-1.85,0-3.48-.8-3.48-2.01s1.62-1.94,4.12-1.94c2.15,0,3.66.43,4.59,1.01.74.45,1.19,1.07,1.31,1.71.08.29.09.54.08.73h-1.08ZM809.08,593.64c1.22,0,2.08-.44,2.08-1.13,0-.53-.44-.95-1.02-1.16-.12-.05-.27-.07-.48-.07-1.67,0-2.95.37-2.95,1.2,0,.68.99,1.16,2.38,1.16Z"></path>
        <path class="cls-7" d="M814.86,589.69c-.56,0-.95-.23-.95-.54s.39-.53.95-.53.95.21.95.54c0,.32-.41.53-.95.53Z"></path>
        <path class="cls-7" d="M815.64,587.89h-.81l-1.01-.62c-2.38-1.5-3.64-2.18-5.12-2.19-.99,0-1.91.29-1.91,1.17,0,.53.45.98.83,1.25l-.93.25c-.57-.41-.99-.98-.99-1.66,0-1.26,1.44-1.8,2.84-1.8,1.81,0,3.26.79,5.25,2.02l.72.47h.03v-2.64h1.1v3.75Z"></path>
        <path class="cls-7" d="M805.86,579.45h.87l8.91,2.56v.82l-8.65-2.55h-.03v2.87h-1.1v-3.7Z"></path>
      </g>
      <line class="cls-2" x1="374.67" y1="113.8" x2="374.67" y2="255.71"></line>
      <line class="cls-2" x1="545.65" y1="113.8" x2="545.65" y2="280.4"></line>
      <line class="cls-2" x1="374.67" y1="119.13" x2="545.65" y2="119.13"></line>
      <polygon class="cls-2" points="374.67 119.13 385.32 117.53 385.32 120.73 374.67 119.13"></polygon>
      <polygon class="cls-2" points="545.65 119.13 535 120.73 535 117.53 545.65 119.13"></polygon>
      <g>
        <path class="cls-7" d="M448.99,105.14h-2.24l-.23,2.51c.14-.03.26-.06.48-.06.45,0,.9.17,1.26.53.46.44.84,1.28.84,2.51,0,1.91-.91,3.34-2.19,3.34-.64,0-1.18-.3-1.46-.6l.2-1.01c.24.24.72.54,1.26.54.75,0,1.39-.81,1.39-2.12,0-1.26-.51-2.17-1.69-2.17-.33,0-.6.06-.81.1l.38-4.69h2.81v1.11Z"></path>
        <path class="cls-7" d="M453.46,104.96c-.16-.02-.37,0-.6.06-1.25.35-1.91,1.87-2.04,3.48h.03c.28-.62.77-1.13,1.42-1.13,1.04,0,1.77,1.25,1.77,3.16,0,1.79-.73,3.45-1.95,3.45s-2.08-1.62-2.08-4.17c0-1.93.42-3.45.99-4.41.49-.8,1.14-1.29,1.88-1.44.23-.06.43-.08.58-.08v1.08ZM453.24,110.6c0-1.4-.48-2.24-1.21-2.24-.48,0-.92.5-1.14,1.2-.05.15-.09.35-.09.59.02,1.61.46,2.8,1.29,2.8.69,0,1.15-.95,1.15-2.35Z"></path>
        <path class="cls-7" d="M454.81,113.02c0-.56.23-.95.54-.95s.53.39.53.95-.21.95-.54.95c-.32,0-.53-.41-.53-.95Z"></path>
        <path class="cls-7" d="M458.34,105.26h-.02l-1.02.92-.15-1.01,1.28-1.14h.68v9.78h-.77v-8.55Z"></path>
        <path class="cls-7" d="M461.17,111.32c0-1.23.44-2.11,1.17-2.62v-.05c-.66-.51-.94-1.35-.94-2.2,0-1.55.79-2.6,1.82-2.6,1.14,0,1.71,1.19,1.71,2.41,0,.83-.24,1.72-.97,2.29v.05c.73.48,1.18,1.34,1.18,2.53,0,1.7-.88,2.84-2,2.84-1.23,0-1.97-1.22-1.97-2.65ZM464.33,111.26c0-1.19-.5-1.76-1.29-2.14-.69.33-1.06,1.08-1.06,2.02-.03.99.42,1.87,1.17,1.87s1.17-.74,1.17-1.75ZM462.14,106.37c0,.98.44,1.5,1.12,1.81.51-.29.89-.89.89-1.78,0-.78-.28-1.59-.99-1.59-.66,0-1.02.72-1.02,1.56Z"></path>
      </g>
      <line class="cls-2" x1="545.65" y1="113.27" x2="545.65" y2="280.4"></line>
      <line class="cls-2" x1="670.44" y1="113.27" x2="670.44" y2="280.4"></line>
      <line class="cls-2" x1="545.65" y1="118.6" x2="670.44" y2="118.6"></line>
      <polygon class="cls-2" points="545.65 118.6 556.31 117 556.31 120.2 545.65 118.6"></polygon>
      <polygon class="cls-2" points="670.44 118.6 659.79 120.2 659.79 117 670.44 118.6"></polygon>
      <g>
        <path class="cls-7" d="M605.41,113.27v-2.66h-2.73v-.87l2.62-6.24h.86v6.08h.82v1.04h-.82v2.66h-.75ZM605.41,109.57v-3.26c0-.51,0-1.02.03-1.53h-.03c-.18.57-.33.99-.49,1.44l-1.44,3.32v.03h1.92Z"></path>
        <path class="cls-7" d="M609.31,104.73h-.02l-1.02.92-.15-1.01,1.28-1.14h.68v9.78h-.77v-8.55Z"></path>
      </g>
      <line class="cls-2" x1="670.44" y1="113.33" x2="670.44" y2="280.4"></line>
      <line class="cls-2" x1="725.74" y1="113.33" x2="725.74" y2="280.4"></line>
      <line class="cls-2" x1="670.44" y1="118.65" x2="725.74" y2="118.65"></line>
      <polygon class="cls-2" points="670.44 118.65 681.09 117.06 681.09 120.25 670.44 118.65"></polygon>
      <polygon class="cls-2" points="725.74 118.65 715.09 120.25 715.09 117.06 725.74 118.65"></polygon>
      <g>
        <path class="cls-7" d="M685.13,104.78h-.02l-1.02.92-.15-1.01,1.28-1.14h.68v9.78h-.77v-8.55Z"></path>
        <path class="cls-7" d="M687.96,110.85c0-1.23.44-2.11,1.17-2.62v-.05c-.66-.51-.94-1.35-.94-2.2,0-1.55.79-2.6,1.82-2.6,1.14,0,1.71,1.19,1.71,2.41,0,.83-.24,1.72-.97,2.29v.05c.73.48,1.18,1.34,1.18,2.53,0,1.7-.88,2.84-2,2.84-1.23,0-1.97-1.22-1.97-2.65ZM691.13,110.79c0-1.19-.5-1.76-1.29-2.14-.69.33-1.06,1.08-1.06,2.02-.03.99.42,1.87,1.17,1.87s1.17-.74,1.17-1.75ZM688.94,105.9c0,.98.44,1.5,1.12,1.81.51-.29.89-.89.89-1.78,0-.78-.28-1.59-.99-1.59-.66,0-1.02.72-1.02,1.56Z"></path>
        <path class="cls-7" d="M692.73,112.55c0-.56.23-.95.54-.95s.53.39.53.95-.21.95-.54.95c-.32,0-.53-.41-.53-.95Z"></path>
        <path class="cls-7" d="M696.26,104.78h-.02l-1.02.92-.15-1.01,1.28-1.14h.68v9.78h-.77v-8.55Z"></path>
        <path class="cls-7" d="M702.98,103.55v.87l-2.56,8.91h-.82l2.55-8.65v-.03h-2.87v-1.1h3.7Z"></path>
      </g>
      <line class="cls-2" x1="482.71" y1="704.97" x2="496.95" y2="704.97"></line>
      <line class="cls-2" x1="482.71" y1="647.89" x2="496.95" y2="647.89"></line>
      <line class="cls-2" x1="488.03" y1="704.97" x2="488.03" y2="647.89"></line>
      <polygon class="cls-2" points="488.03 704.97 486.43 694.32 489.63 694.32 488.03 704.97"></polygon>
      <polygon class="cls-2" points="488.03 647.89 489.63 658.54 486.43 658.54 488.03 647.89"></polygon>
      <g>
        <path class="cls-7" d="M472.26,696.73c1.47.66,3.43,1.14,6.15,1.14s4.6-.5,6.11-1.14v.62c-1.25.57-3.17,1.18-6.11,1.18-2.96,0-4.89-.61-6.15-1.18v-.62Z"></path>
        <path class="cls-7" d="M474.16,694.42v.02l.92,1.02-1.01.15-1.14-1.28v-.68h9.78v.77h-8.55Z"></path>
        <path class="cls-7" d="M480.22,691.58c-1.23,0-2.11-.44-2.62-1.17h-.04c-.51.66-1.35.94-2.2.94-1.55,0-2.6-.79-2.6-1.82,0-1.14,1.19-1.71,2.41-1.71.83,0,1.72.24,2.29.97h.04c.48-.73,1.34-1.18,2.53-1.18,1.7,0,2.84.88,2.84,2,0,1.23-1.22,1.97-2.65,1.97ZM475.27,690.61c.98,0,1.5-.44,1.81-1.12-.29-.51-.89-.89-1.78-.89-.78,0-1.59.28-1.59.99,0,.66.72,1.02,1.56,1.02ZM480.16,688.42c-1.19,0-1.76.5-2.14,1.29.33.69,1.08,1.06,2.02,1.06.99.03,1.87-.42,1.87-1.17s-.74-1.17-1.75-1.17Z"></path>
        <path class="cls-7" d="M481.92,686.82c-.56,0-.95-.23-.95-.54s.39-.53.95-.53.95.21.95.54c0,.32-.41.53-.95.53Z"></path>
        <path class="cls-7" d="M472.93,681.2h.87l8.91,2.56v.82l-8.65-2.55h-.03v2.87h-1.1v-3.7Z"></path>
        <path class="cls-7" d="M474.04,676.87v2.24l2.51.23c-.03-.14-.06-.26-.06-.48,0-.45.17-.9.53-1.26.44-.46,1.28-.84,2.51-.84,1.91,0,3.34.91,3.34,2.19,0,.64-.3,1.18-.6,1.46l-1.01-.2c.24-.24.54-.72.54-1.26,0-.75-.81-1.39-2.12-1.39-1.26,0-2.17.51-2.17,1.69,0,.33.06.6.11.81l-4.69-.38v-2.81h1.11Z"></path>
      </g>
      <path class="cls-7" d="M482.03,657.29c-1.19-.51-2.76-.91-4.92-.91s-3.7.39-4.89.91v-.49c.99-.46,2.53-.95,4.9-.95s3.89.48,4.91.95v.49Z"></path>
      <path class="cls-7" d="M367.04,295.6l-.81,4.1h-1.04l2.66-13.04h1.22l2.67,13.04h-1.08l-.84-4.1h-2.78ZM369.61,294.28l-.77-3.75c-.17-.85-.29-1.63-.41-2.38h-.02c-.12.77-.24,1.57-.39,2.36l-.77,3.77h2.36Z"></path>
      <path class="cls-7" d="M535.47,286.6c.44-.15,1.14-.27,1.85-.27,1.01,0,1.66.29,2.15.95.41.5.65,1.28.65,2.3,0,1.26-.5,2.36-1.32,2.86v.04c.74.31,1.61,1.34,1.61,3.27,0,1.12-.27,1.97-.66,2.61-.54.83-1.43,1.22-2.71,1.22-.7,0-1.23-.08-1.57-.15v-12.83ZM536.48,291.94h.92c1.07,0,1.7-.93,1.7-2.19,0-1.53-.7-2.13-1.72-2.13-.46,0-.73.06-.89.12v4.2ZM536.48,298.19c.2.06.49.08.85.08,1.04,0,2.01-.64,2.01-2.53,0-1.78-.92-2.52-2.02-2.52h-.84v4.97Z"></path>
      <path class="cls-7" d="M684.49,298.95c-.37.31-1.11.62-2.07.62-2.21,0-3.87-2.32-3.87-6.6s1.66-6.85,4.09-6.85c.97,0,1.59.35,1.86.58l-.24,1.37c-.38-.31-.93-.54-1.58-.54-1.83,0-3.05,1.95-3.05,5.38,0,3.19,1.1,5.24,3.01,5.24.62,0,1.24-.21,1.65-.54l.21,1.33Z"></path>
      <path class="cls-7" d="M732.78,287.61c.62-.15,1.35-.27,2.15-.27,1.45,0,2.49.56,3.17,1.62.7,1.06,1.1,2.57,1.1,4.68s-.39,3.87-1.13,5.07c-.73,1.22-1.94,1.88-3.46,1.88-.72,0-1.32-.06-1.83-.15v-12.83ZM733.79,299.14c.26.08.63.1,1.02.1,2.16,0,3.33-2.01,3.33-5.53.01-3.08-1.03-5.03-3.17-5.03-.52,0-.92.08-1.18.17v10.29Z"></path>
      <path class="cls-7" d="M779.35,457.75l-1.11-3.2c-.45-1.23-.74-2.02-1.01-2.86h-.03c-.25.84-.49,1.61-.94,2.88l-1.04,3.18h-1.29l2.66-7.33-2.55-7.16h1.3l1.15,3.4c.32.95.57,1.68.8,2.45h.04c.25-.86.46-1.53.79-2.45l1.19-3.4h1.29l-2.64,7.05,2.71,7.44h-1.3Z"></path>
      <path class="cls-7" d="M523.38,145.49v-6.15l-2.75-8.34h1.28l1.22,4c.33,1.1.59,1.98.86,2.99h.03c.25-.95.54-1.89.88-2.99l1.25-4h1.28l-2.91,8.32v6.17h-1.13Z"></path>
      <path class="cls-7" d="M272.84,457.75l-1.11-3.2c-.45-1.23-.74-2.02-1.01-2.86h-.03c-.25.84-.49,1.61-.94,2.88l-1.04,3.18h-1.29l2.66-7.33-2.55-7.16h1.3l1.15,3.4c.32.95.57,1.68.8,2.45h.04c.25-.86.46-1.53.79-2.45l1.19-3.4h1.29l-2.64,7.05,2.71,7.44h-1.3Z"></path>
      <path class="cls-7" d="M531.94,738.6v-6.15l-2.75-8.34h1.28l1.22,4c.33,1.1.59,1.98.86,2.99h.03c.25-.95.54-1.89.88-2.99l1.25-4h1.28l-2.91,8.32v6.17h-1.13Z"></path>
      <g class="cls-12">
        <path class="cls-10" d="M592.77,380.53c35.56-.19,65.81-25.96,71.66-61.04l11.84-71.03c.73-4.4,4.54-7.63,9.01-7.63h26.01c1.01,0,2.01.08,3,.25,9.95,1.66,16.67,11.07,15.01,21.01l-11.91,71.47c-6.24,37.42-34.96,67.08-72.16,74.52l-88.75,17.75c-21.34,4.27-36.7,23-36.7,44.77v139.45c0,23.02,17.14,42.44,39.99,45.3l150.22,18.78c3.05.38,5.33,2.97,5.33,6.04v18.7c0,3.36-2.72,6.09-6.09,6.09h-418.48c-3.36,0-6.09-2.73-6.09-6.09v-18.7c0-3.07,2.29-5.66,5.33-6.04l150.22-18.78c22.85-2.86,39.99-22.27,39.99-45.3v-219.66c0-19.65-12.57-37.1-31.22-43.31l-57.67-19.22c-9.94-3.31-16.65-12.62-16.65-23.1v-46.02c0-7.56,5.55-13.97,13.03-15.06,9.03-1.31,18.12-2.11,27.24-2.4,18.98-.6,37.97-.61,56.95-.03,14.09.43,28.13,2.09,41.93,4.95,16,3.31,28.31,16.12,31,32.24l11.93,71.56c2.94,17.61,18.17,30.52,36.03,30.52"></path>
        <path class="cls-4" d="M387.7,243.69c-7.48,1.09-13.03,7.5-13.03,15.06"></path>
        <path class="cls-4" d="M414.94,241.29c-9.12.29-18.21,1.09-27.24,2.4"></path>
        <path class="cls-4" d="M471.89,241.26c-18.98-.58-37.97-.57-56.95.03"></path>
        <path class="cls-4" d="M513.82,246.21c-13.81-2.86-27.84-4.52-41.93-4.95"></path>
        <path class="cls-4" d="M544.82,278.45c-2.69-16.11-15-28.92-31-32.24"></path>
      </g>
      <line class="cls-4" x1="556.75" y1="350.01" x2="544.82" y2="278.45"></line>
      <g class="cls-18">
        <path class="cls-4" d="M556.75,350.01c2.94,17.61,18.17,30.52,36.03,30.52"></path>
        <path class="cls-4" d="M592.77,380.53c35.56-.19,65.81-25.96,71.66-61.04"></path>
      </g>
      <line class="cls-4" x1="676.27" y1="248.46" x2="664.43" y2="319.5"></line>
      <g class="cls-17">
        <path class="cls-4" d="M685.27,240.83c-4.46,0-8.27,3.23-9.01,7.63"></path>
      </g>
      <line class="cls-4" x1="711.28" y1="240.83" x2="685.27" y2="240.83"></line>
      <g class="cls-15">
        <path class="cls-4" d="M729.29,262.1c1.66-9.95-5.06-19.36-15.01-21.01-.99-.16-2-.25-3-.25"></path>
      </g>
      <line class="cls-4" x1="717.38" y1="333.57" x2="729.29" y2="262.1"></line>
      <g class="cls-16">
        <path class="cls-4" d="M645.23,408.09c37.2-7.44,65.92-37.1,72.16-74.52"></path>
      </g>
      <line class="cls-4" x1="556.47" y1="425.84" x2="645.22" y2="408.09"></line>
      <g class="cls-19">
        <path class="cls-4" d="M556.47,425.84c-21.34,4.27-36.7,23.01-36.7,44.77"></path>
      </g>
      <line class="cls-4" x1="519.77" y1="610.06" x2="519.77" y2="470.61"></line>
      <g class="cls-23">
        <path class="cls-4" d="M519.77,610.06c0,23.02,17.14,42.45,39.99,45.3"></path>
      </g>
      <line class="cls-4" x1="709.99" y1="674.14" x2="559.76" y2="655.36"></line>
      <g class="cls-27">
        <path class="cls-4" d="M715.32,680.18c0-3.07-2.29-5.66-5.33-6.04"></path>
      </g>
      <line class="cls-4" x1="715.32" y1="698.88" x2="715.32" y2="680.18"></line>
      <g class="cls-22">
        <path class="cls-4" d="M709.23,704.97c3.36,0,6.09-2.72,6.09-6.09"></path>
      </g>
      <line class="cls-4" x1="290.75" y1="704.97" x2="709.23" y2="704.97"></line>
      <g class="cls-21">
        <path class="cls-4" d="M284.66,698.88c0,3.36,2.72,6.09,6.09,6.09"></path>
      </g>
      <line class="cls-4" x1="284.66" y1="680.18" x2="284.66" y2="698.88"></line>
      <g class="cls-20">
        <path class="cls-4" d="M290,674.14c-3.05.38-5.33,2.97-5.33,6.04"></path>
      </g>
      <line class="cls-4" x1="440.22" y1="655.36" x2="290" y2="674.14"></line>
      <g class="cls-24">
        <path class="cls-4" d="M440.22,655.36c22.85-2.86,39.99-22.28,39.99-45.3"></path>
      </g>
      <line class="cls-4" x1="480.21" y1="390.41" x2="480.21" y2="610.06"></line>
      <g class="cls-26">
        <path class="cls-4" d="M480.21,390.41c0-19.65-12.57-37.1-31.22-43.31"></path>
      </g>
      <line class="cls-4" x1="391.32" y1="327.87" x2="448.99" y2="347.1"></line>
      <g class="cls-25">
        <path class="cls-4" d="M374.67,304.77c0,10.48,6.71,19.78,16.65,23.1"></path>
      </g>
      <line class="cls-4" x1="374.67" y1="258.75" x2="374.67" y2="304.77"></line>
      <line class="cls-1" x1="247.94" y1="463.71" x2="790.12" y2="463.71"></line>
      <line class="cls-1" x1="523.4" y1="730.99" x2="523.4" y2="152.17"></line>
      <line class="cls-1" x1="499.78" y1="730.99" x2="499.78" y2="152.17"></line>
      <line class="cls-2" x1="467.44" y1="330.21" x2="443.87" y2="322.35"></line>
      <line class="cls-2" x1="443.87" y1="322.35" x2="443.87" y2="401.37"></line>
      <line class="cls-2" x1="467.44" y1="330.21" x2="467.81" y2="317.47"></line>
      <line class="cls-2" x1="427.72" y1="401.37" x2="461.18" y2="401.37"></line>
      <line class="cls-2" x1="443.87" y1="415.08" x2="443.87" y2="386.2"></line>
      <line class="cls-2" x1="540.26" y1="278.46" x2="549.39" y2="278.45"></line>
      <line class="cls-2" x1="544.82" y1="283.02" x2="544.82" y2="273.89"></line>
      <line class="cls-2" x1="537.08" y1="268.23" x2="546.21" y2="268.22"></line>
      <line class="cls-2" x1="541.65" y1="272.79" x2="541.65" y2="263.66"></line>
      <line class="cls-2" x1="541.09" y1="283.45" x2="550.22" y2="283.44"></line>
      <line class="cls-2" x1="545.65" y1="288.01" x2="545.65" y2="278.88"></line>
      <line class="cls-2" x1="666.7" y1="278.45" x2="675.84" y2="278.44"></line>
      <line class="cls-2" x1="671.27" y1="283.02" x2="671.27" y2="273.89"></line>
    </g>
  </g>
  <g id="Layer_2" data-name="Layer 2">
    <g id="Watermark">
      <rect class="cls-8" x="438.45" y="656.81" width="123.09" height="46.3"></rect>
      <rect class="cls-28" x="444.86" y="664.65" width="62.89" height="30.62"></rect>
      <rect class="cls-28" x="507.75" y="664.65" width="47.39" height="30.62"></rect>
      <path class="cls-9" d="M466.48,670.75l-2.79,18.92h-2.69l-1.55-11-1.53,11h-2.74l-2.8-18.92h2.51l1.74,14.14,1.79-14.17h2l1.77,14.17,1.81-14.14h2.48Z"></path>
      <path class="cls-9" d="M467.93,689.67v-18.92h2.53v18.92h-2.53Z"></path>
      <path class="cls-9" d="M472.83,670.75h5c1.93,0,2.9,1.08,2.9,3.24v4.66c0,1.65-.51,2.7-1.51,3.14l1.77,7.88h-2.4l-1.66-7.64h-1.53v7.64h-2.53l-.04-18.92ZM475.36,679.87h1.64c.76,0,1.14-.46,1.14-1.37v-4.09c0-.91-.38-1.37-1.14-1.37h-1.66l.02,6.83Z"></path>
      <path class="cls-9" d="M486.82,673.04v16.63h-2.53v-16.63h-2.42v-2.29h7.38v2.29h-2.43Z"></path>
      <path class="cls-9" d="M496.34,689.67v-8.59h-3.11v8.59h-2.53v-18.92h2.53v8h3.11v-8h2.53v18.92h-2.53Z"></path>
      <path class="cls-9" d="M516.31,670.75h5c1.93,0,2.9,1.08,2.89,3.24v4.66c0,1.65-.5,2.7-1.5,3.14l1.77,7.88h-2.47l-1.66-7.64h-1.53v7.64h-2.53l.03-18.92ZM518.84,679.87h1.66c.76,0,1.13-.46,1.13-1.37v-4.09c0-.91-.37-1.37-1.13-1.37h-1.66v6.83Z"></path>
      <path class="cls-9" d="M528.67,689.67h-2.53v-15.68c0-2.16,1-3.24,3-3.24h1.9c2,0,3,1.08,3,3.24v15.68h-2.53v-6.93h-2.9l.06,6.93ZM531.57,680.45v-6.3c.06-.55-.33-1.05-.88-1.11-.08,0-.16,0-.23,0h-.68c-.55-.06-1.05.33-1.11.88,0,.08,0,.16,0,.23v6.3h2.9Z"></path>
      <path class="cls-9" d="M536.34,689.67v-18.92h2.53v18.92h-2.53Z"></path>
      <path class="cls-9" d="M547.24,689.67h-6v-18.92h2.53v16.63h3.47v2.29Z"></path>
    </g>
  </g>
</svg>
