<?xml version="1.0" encoding="UTF-8"?>
<svg xmlns="http://www.w3.org/2000/svg" xmlns:xlink="http://www.w3.org/1999/xlink" viewBox="0 0 1000 800">
  <defs>
    <style>
      .cls-1 {
        clip-path: url(#clippath);
      }

      .cls-2, .cls-3, .cls-4, .cls-5, .cls-6, .cls-7, .cls-8, .cls-9, .cls-10, .cls-11 {
        fill: none;
      }

      .cls-2, .cls-12, .cls-13, .cls-14, .cls-15, .cls-16 {
        stroke-width: 0px;
      }

      .cls-3, .cls-4, .cls-17 {
        stroke-miterlimit: 10;
      }

      .cls-3, .cls-6 {
        stroke: #30302f;
      }

      .cls-4, .cls-5, .cls-7, .cls-8, .cls-9, .cls-10, .cls-11 {
        stroke: #231f20;
      }

      .cls-5 {
        stroke-width: 2px;
      }

      .cls-6 {
        stroke-width: .9px;
      }

      .cls-7 {
        stroke-dasharray: 0 0 18.95 5.73;
      }

      .cls-18 {
        clip-path: url(#clippath-1);
      }

      .cls-19 {
        clip-path: url(#clippath-3);
      }

      .cls-20 {
        clip-path: url(#clippath-2);
      }

      .cls-8 {
        stroke-dasharray: 0 0 19.02 5.8;
      }

      .cls-9 {
        stroke-dasharray: 0 0 19.08 5.86;
      }

      .cls-12, .cls-17 {
        fill: #f0f0f0;
      }

      .cls-13 {
        fill: #30302f;
      }

      .cls-11 {
        stroke-miterlimit: 1;
      }

      .cls-14 {
        fill: #ccc;
      }

      .cls-17 {
        stroke: #ccc;
      }

      .cls-15 {
        fill: #f1f1f1;
      }

      .cls-16 {
        fill: #231f20;
      }
    </style>
    <clipPath id="clippath">
      <rect class="cls-2" x="120.91" y="2.56" width="769.87" height="796.57"></rect>
    </clipPath>
    <clipPath id="clippath-1">
      <rect class="cls-2" x="120.91" y="2.56" width="769.87" height="796.57"></rect>
    </clipPath>
    <clipPath id="clippath-2">
      <rect class="cls-2" x="120.91" y="2.56" width="769.87" height="796.57"></rect>
    </clipPath>
    <clipPath id="clippath-3">
      <rect class="cls-2" x="120.91" y="2.56" width="769.87" height="796.57"></rect>
    </clipPath>
  </defs>
  <g id="Layer_1" data-name="Layer 1">
    <g>
      <path class="cls-15" d="M482.2,636.89c0,16.81-12.74,30.9-29.48,32.57l-239.57,23.95c-3.35.34-5.89,3.16-5.89,6.52v13.71c0,3.62,2.93,6.55,6.55,6.55h576.07c3.61,0,6.55-2.94,6.55-6.55v-13.71c0-3.36-2.55-6.18-5.89-6.52l-239.58-23.95c-16.73-1.67-29.47-15.76-29.47-32.57v-276.75c0-15.61,11-29.04,26.3-32.1l120.6-24.12c45.9-9.18,78.94-49.48,78.94-96.29v-63.52c0-7.23-5.86-13.09-13.09-13.09h-54.37c-6.4,0-11.86,4.63-12.91,10.94l-15.07,90.44c-3.16,18.94-19.54,32.82-38.74,32.82h-11.46c-19.2,0-35.59-13.88-38.74-32.82l-11.9-71.37c-2.45-14.73-14.57-25.93-29.45-27.23-47.34-4.12-94.98-3.66-142.24,1.4-6.65.71-11.7,6.33-11.7,13.02v80.09c0,6.24,4.4,11.62,10.52,12.84l77.72,15.54c15.3,3.06,26.31,16.49,26.31,32.1v348.11Z"></path>
      <path class="cls-5" d="M662.66,49.25v112.24M549.49,49.25l.32,106.89M376.71,17.63h360.82M482.2,636.89c0,16.81-12.74,30.9-29.48,32.57l-239.57,23.95c-3.35.34-5.89,3.16-5.89,6.52v13.71c0,3.62,2.93,6.55,6.55,6.55h576.07c3.61,0,6.55-2.94,6.55-6.55v-13.71c0-3.36-2.55-6.18-5.89-6.52l-239.58-23.95c-16.73-1.67-29.47-15.76-29.47-32.57v-276.75c0-15.61,11-29.04,26.3-32.1l120.6-24.12c45.9-9.18,78.94-49.48,78.94-96.29v-63.52c0-7.23-5.86-13.09-13.09-13.09h-54.37c-6.4,0-11.86,4.63-12.91,10.94l-15.07,90.44c-3.16,18.94-19.54,32.82-38.74,32.82h-11.46c-19.2,0-35.59-13.88-38.74-32.82l-11.9-71.37c-2.45-14.73-14.57-25.93-29.45-27.23-47.34-4.12-94.98-3.66-142.24,1.4-6.65.71-11.7,6.33-11.7,13.02v80.09c0,6.24,4.4,11.62,10.52,12.84l77.72,15.54c15.3,3.06,26.31,16.49,26.31,32.1v348.11Z"></path>
      <polygon class="cls-16" points="378.85 20.63 367.16 17.5 378.85 14.37 378.85 20.63"></polygon>
      <polygon class="cls-16" points="735.4 20.63 747.08 17.5 735.4 14.37 735.4 20.63"></polygon>
      <line class="cls-10" x1="376.71" y1="57.15" x2="540.15" y2="57.15"></line>
      <polygon class="cls-16" points="378.85 60.15 367.16 57.02 378.85 53.89 378.85 60.15"></polygon>
      <polygon class="cls-16" points="538.02 60.15 549.7 57.02 538.02 53.89 538.02 60.15"></polygon>
      <line class="cls-10" x1="559.25" y1="57.15" x2="653.11" y2="57.15"></line>
      <polygon class="cls-16" points="561.39 60.15 549.7 57.02 561.39 53.89 561.39 60.15"></polygon>
      <polygon class="cls-16" points="650.97 60.15 662.66 57.02 650.97 53.89 650.97 60.15"></polygon>
      <line class="cls-10" x1="510.54" y1="99.37" x2="539.94" y2="99.37"></line>
      <polygon class="cls-16" points="512.67 102.37 500.99 99.24 512.67 96.1 512.67 102.37"></polygon>
      <polygon class="cls-16" points="537.8 102.37 549.49 99.24 537.8 96.1 537.8 102.37"></polygon>
      <polyline class="cls-10" points="365.63 128.5 326.34 86.57 245.96 86.57"></polyline>
      <polygon class="cls-16" points="366.54 123.99 373.68 137.32 360.83 129.34 366.54 123.99"></polygon>
      <polyline class="cls-10" points="750.23 127.17 790.97 86.03 857.58 86.03"></polyline>
      <polygon class="cls-16" points="753.87 127.76 743.42 133.86 749.42 123.36 753.87 127.76"></polygon>
      <polyline class="cls-10" points="662.79 129.49 642.45 108.22 603.41 108.22"></polyline>
      <polygon class="cls-16" points="663.48 125.87 669.3 136.48 658.96 130.2 663.48 125.87"></polygon>
      <polyline class="cls-10" points="539.73 655.69 603.27 599.12 680.89 599.12"></polyline>
      <polygon class="cls-16" points="543.32 656.51 532.51 661.94 539.15 651.83 543.32 656.51"></polygon>
      <polyline class="cls-10" points="462.43 656.33 442.71 637.69 365.09 637.69"></polyline>
      <polygon class="cls-16" points="462.94 652.68 469.28 662.98 458.64 657.24 462.94 652.68"></polygon>
      <polyline class="cls-10" points="726.14 282.23 767.99 321.76 825.7 321.76"></polyline>
      <polygon class="cls-16" points="725.63 285.88 719.29 275.58 729.93 281.33 725.63 285.88"></polygon>
      <polyline class="cls-6" points="539.51 344.31 584.83 375.1 650.79 375.1"></polyline>
      <polygon class="cls-13" points="539.52 348.13 531.55 338.9 543.06 342.91 539.52 348.13"></polygon>
      <polyline class="cls-10" points="535.52 164.43 485.43 170.49 431.63 170.49"></polyline>
      <polygon class="cls-16" points="533.03 161.71 545.01 163.41 533.79 167.93 533.03 161.71"></polygon>
      <polyline class="cls-6" points="468.51 275.67 383.33 340.22 317.37 340.22"></polyline>
      <polygon class="cls-13" points="464.88 274.45 476.18 269.86 468.7 279.49 464.88 274.45"></polygon>
      <line class="cls-10" x1="465.63" y1="595.44" x2="490.54" y2="595.44"></line>
      <polygon class="cls-16" points="467.77 598.44 456.08 595.31 467.77 592.18 467.77 598.44"></polygon>
      <polygon class="cls-16" points="488.41 598.44 500.09 595.31 488.41 592.18 488.41 598.44"></polygon>
      <line class="cls-10" x1="142.33" y1="710.84" x2="142.33" y2="140.26"></line>
      <polygon class="cls-16" points="145.33 708.7 142.2 720.39 139.07 708.7 145.33 708.7"></polygon>
      <polygon class="cls-16" points="145.33 142.39 142.2 130.71 139.07 142.39 145.33 142.39"></polygon>
      <line class="cls-10" x1="806.45" y1="255.99" x2="806.45" y2="140.73"></line>
      <polygon class="cls-16" points="809.45 253.85 806.32 265.54 803.19 253.85 809.45 253.85"></polygon>
      <polygon class="cls-16" points="809.45 142.87 806.32 131.18 803.19 142.87 809.45 142.87"></polygon>
      <line class="cls-10" x1="862.64" y1="327.75" x2="862.64" y2="141.17"></line>
      <polygon class="cls-16" points="865.64 325.61 862.51 337.3 859.37 325.61 865.64 325.61"></polygon>
      <polygon class="cls-16" points="865.64 143.3 862.51 131.62 859.37 143.3 865.64 143.3"></polygon>
      <line class="cls-10" x1="862.85" y1="709.69" x2="862.85" y2="411.74"></line>
      <polygon class="cls-16" points="865.85 707.55 862.72 719.24 859.58 707.55 865.85 707.55"></polygon>
      <polygon class="cls-16" points="865.85 413.88 862.72 402.19 859.58 413.88 865.85 413.88"></polygon>
      <line class="cls-6" x1="288.25" y1="267.21" x2="500.99" y2="267.21"></line>
      <path class="cls-10" d="M550.38,161.68h45.88M600.68,265.31h211.36M186.33,665.5h313.39M381.53,595.44h79.94"></path>
      <polyline class="cls-6" points="889.89 337.68 501.11 337.68 540.2 330.55"></polyline>
      <line class="cls-10" x1="615.13" y1="161.41" x2="664.96" y2="161.41"></line>
      <line class="cls-7" x1="238.84" y1="402.35" x2="874.73" y2="402.35"></line>
      <g class="cls-1">
        <path class="cls-10" d="M132.19,720.23h759.53M133.01,130.71h758.72M796.42,713.64v85.09M207.26,713.64v85.68M747.53,10.18v137.73M367.46,9.66v137.73"></path>
      </g>
      <polyline class="cls-6" points="364.36 244.05 300.56 306.24 230.5 306.24"></polyline>
      <polygon class="cls-13" points="360.62 243.29 371.26 237.33 365.03 247.81 360.62 243.29"></polygon>
      <path class="cls-4" d="M461.92,557.57c0,2.73-2.21,4.94-4.94,4.94s-4.94-2.21-4.94-4.94,2.21-4.94,4.94-4.94,4.94,2.21,4.94,4.94ZM667.6,161.49c0,2.73-2.21,4.94-4.94,4.94s-4.94-2.21-4.94-4.94,2.21-4.94,4.94-4.94,4.94,2.21,4.94,4.94ZM554.43,161.49c0,2.73-2.21,4.94-4.94,4.94s-4.94-2.21-4.94-4.94,2.21-4.94,4.94-4.94,4.94,2.21,4.94,4.94Z"></path>
      <polyline class="cls-6" points="377.59 145.37 399.5 348.3 432.73 343.81 456.98 557.57 475.84 346.51 500.09 349.2 518.1 145.03"></polyline>
      <polygon class="cls-13" points="374.68 147.85 376.56 135.8 380.96 147.17 374.68 147.85"></polygon>
      <polygon class="cls-13" points="521.06 147.45 518.95 135.44 514.77 146.9 521.06 147.45"></polygon>
      <line class="cls-6" x1="500.99" y1="267.21" x2="460.91" y2="258.11"></line>
      <polyline class="cls-10" points="597.63 255.39 606.07 199.89 616.84 256.08"></polyline>
      <polygon class="cls-16" points="600.91 253.73 596.06 264.82 594.72 252.79 600.91 253.73"></polygon>
      <polygon class="cls-16" points="613.5 254.55 618.77 265.44 619.65 253.37 613.5 254.55"></polygon>
      <line class="cls-10" x1="456.98" y1="562.51" x2="456.98" y2="598.88"></line>
      <g>
        <path class="cls-13" d="M549.53,11.96h-1.13v-7.23c-.27.26-.63.52-1.08.78-.44.26-.84.46-1.2.59v-1.1c.63-.3,1.19-.66,1.67-1.08.47-.42.81-.84,1.01-1.24h.73v9.28Z"></path>
        <path class="cls-13" d="M556.71,11.96h-1.13v-7.23c-.27.26-.63.52-1.08.78-.44.26-.84.46-1.2.59v-1.1c.63-.3,1.19-.66,1.67-1.08.47-.42.81-.84,1.01-1.24h.73v9.28Z"></path>
      </g>
      <g>
        <path class="cls-13" d="M564.55,4.98l-1.13.09c-.1-.45-.24-.77-.43-.97-.31-.32-.69-.49-1.13-.49-.36,0-.68.1-.95.3-.36.26-.64.64-.84,1.14s-.31,1.21-.32,2.14c.27-.42.61-.73,1-.93.4-.2.81-.3,1.24-.3.76,0,1.4.28,1.93.84.53.56.8,1.28.8,2.16,0,.58-.13,1.12-.38,1.62-.25.5-.59.88-1.03,1.15-.44.27-.93.4-1.49.4-.95,0-1.72-.35-2.31-1.04-.6-.7-.9-1.84-.9-3.44,0-1.79.33-3.09.99-3.9.58-.71,1.35-1.06,2.33-1.06.73,0,1.32.2,1.79.61s.74.97.84,1.69ZM559.92,8.97c0,.39.08.77.25,1.12.17.36.4.63.7.82.3.19.61.28.94.28.48,0,.89-.19,1.24-.58.34-.39.52-.91.52-1.58s-.17-1.14-.51-1.51c-.34-.37-.77-.55-1.29-.55s-.95.18-1.31.55c-.36.37-.54.85-.54,1.45Z"></path>
        <path class="cls-13" d="M575.51,14.68c-.63-.79-1.16-1.72-1.59-2.78-.43-1.06-.65-2.16-.65-3.29,0-1,.16-1.96.49-2.88.38-1.06.96-2.12,1.75-3.18h.81c-.51.88-.84,1.5-1.01,1.87-.26.58-.46,1.19-.61,1.82-.18.79-.27,1.58-.27,2.37,0,2.02.63,4.04,1.89,6.06h-.81Z"></path>
      </g>
      <g>
        <path class="cls-13" d="M581.61,11.96v-2.21h-4.01v-1.04l4.22-5.99h.93v5.99h1.25v1.04h-1.25v2.21h-1.13ZM581.61,8.71v-4.17l-2.9,4.17h2.9Z"></path>
        <path class="cls-13" d="M585.79,11.96v-1.29h1.29v1.29h-1.29Z"></path>
        <path class="cls-13" d="M588.75,9.54l1.19-.1c.09.58.29,1.02.62,1.31.32.29.71.44,1.16.44.55,0,1.01-.21,1.39-.62.38-.41.57-.96.57-1.64s-.18-1.16-.54-1.53c-.36-.37-.84-.56-1.43-.56-.37,0-.7.08-.99.25-.29.17-.53.38-.69.65l-1.07-.14.9-4.75h4.6v1.08h-3.69l-.5,2.49c.55-.39,1.14-.58,1.75-.58.81,0,1.49.28,2.04.84.55.56.83,1.28.83,2.16s-.24,1.56-.73,2.17c-.59.75-1.4,1.12-2.43,1.12-.84,0-1.53-.24-2.06-.71-.53-.47-.83-1.1-.91-1.87Z"></path>
        <path class="cls-13" d="M601.82,4.98l-1.13.09c-.1-.45-.24-.77-.43-.97-.31-.32-.69-.49-1.13-.49-.36,0-.68.1-.95.3-.36.26-.64.64-.84,1.14s-.31,1.21-.32,2.14c.27-.42.61-.73,1-.93.4-.2.81-.3,1.24-.3.76,0,1.4.28,1.93.84.53.56.8,1.28.8,2.16,0,.58-.13,1.12-.38,1.62-.25.5-.59.88-1.03,1.15-.44.27-.93.4-1.49.4-.95,0-1.72-.35-2.31-1.04-.6-.7-.9-1.84-.9-3.44,0-1.79.33-3.09.99-3.9.58-.71,1.35-1.06,2.33-1.06.73,0,1.32.2,1.79.61s.74.97.84,1.69ZM597.19,8.97c0,.39.08.77.25,1.12.17.36.4.63.7.82.3.19.61.28.94.28.48,0,.89-.19,1.24-.58.34-.39.52-.91.52-1.58s-.17-1.14-.51-1.51c-.34-.37-.77-.55-1.29-.55s-.95.18-1.31.55c-.36.37-.54.85-.54,1.45Z"></path>
        <path class="cls-13" d="M603.19,3.93v-1.09h5.99v.88c-.59.63-1.17,1.46-1.75,2.5s-1.03,2.11-1.34,3.2c-.23.77-.37,1.62-.43,2.54h-1.17c.01-.73.16-1.61.43-2.64s.67-2.02,1.18-2.98c.51-.96,1.05-1.76,1.63-2.42h-4.53Z"></path>
        <path class="cls-13" d="M610.67,5.99l-.32-1.76v-1.51h1.29v1.51l-.28,1.76h-.69ZM612.76,5.99l-.31-1.76v-1.51h1.29v1.51l-.3,1.76h-.68Z"></path>
      </g>
      <path class="cls-13" d="M615.91,14.68h-.81c1.26-2.02,1.89-4.04,1.89-6.06,0-.79-.09-1.57-.27-2.35-.14-.63-.34-1.24-.6-1.82-.16-.38-.5-1.01-1.02-1.89h.81c.79,1.06,1.38,2.12,1.75,3.18.32.92.49,1.88.49,2.88,0,1.14-.22,2.23-.65,3.29-.44,1.06-.96,1.98-1.59,2.78Z"></path>
      <g>
        <path class="cls-13" d="M583.44,49.93l1.14-.15c.13.64.35,1.11.67,1.39.31.28.69.43,1.14.43.53,0,.98-.19,1.35-.56.37-.37.55-.83.55-1.38s-.17-.95-.51-1.29c-.34-.34-.77-.51-1.3-.51-.21,0-.48.04-.8.13l.13-1c.08,0,.14.01.18.01.48,0,.92-.13,1.31-.38.39-.25.58-.64.58-1.17,0-.42-.14-.76-.42-1.03-.28-.27-.65-.41-1.09-.41s-.81.14-1.1.42c-.29.28-.48.69-.57,1.25l-1.13-.2c.14-.76.45-1.35.95-1.77.49-.42,1.1-.63,1.83-.63.5,0,.97.11,1.39.32.42.22.75.51.97.89.22.37.34.77.34,1.19s-.11.76-.32,1.09c-.21.33-.53.59-.95.78.55.13.97.39,1.27.79.3.4.45.9.45,1.49,0,.81-.29,1.49-.88,2.05-.59.56-1.33.84-2.23.84-.81,0-1.49-.24-2.02-.73-.54-.48-.84-1.11-.92-1.88Z"></path>
        <path class="cls-13" d="M594.26,52.37v-2.21h-4.01v-1.04l4.22-5.99h.93v5.99h1.25v1.04h-1.25v2.21h-1.13ZM594.26,49.12v-4.17l-2.9,4.17h2.9Z"></path>
        <path class="cls-13" d="M598.44,52.37v-1.29h1.29v1.29h-1.29Z"></path>
        <path class="cls-13" d="M605.03,52.37v-2.21h-4.01v-1.04l4.22-5.99h.93v5.99h1.25v1.04h-1.25v2.21h-1.13ZM605.03,49.12v-4.17l-2.9,4.17h2.9Z"></path>
        <path class="cls-13" d="M612.22,52.37v-2.21h-4.01v-1.04l4.22-5.99h.93v5.99h1.25v1.04h-1.25v2.21h-1.13ZM612.22,49.12v-4.17l-2.9,4.17h2.9Z"></path>
      </g>
      <g>
        <path class="cls-13" d="M435.69,50l1.19-.1c.09.58.29,1.02.62,1.31.32.29.71.44,1.16.44.55,0,1.01-.21,1.39-.62.38-.41.57-.96.57-1.64s-.18-1.16-.54-1.53c-.36-.37-.84-.56-1.43-.56-.37,0-.7.08-.99.25-.29.17-.53.38-.69.65l-1.07-.14.9-4.75h4.6v1.08h-3.69l-.5,2.49c.55-.39,1.14-.58,1.75-.58.81,0,1.49.28,2.04.84.55.56.83,1.28.83,2.16s-.24,1.56-.73,2.17c-.59.75-1.4,1.12-2.43,1.12-.84,0-1.53-.24-2.06-.71-.53-.47-.83-1.1-.91-1.87Z"></path>
        <path class="cls-13" d="M448.77,45.44l-1.13.09c-.1-.45-.24-.77-.43-.97-.31-.32-.69-.49-1.13-.49-.36,0-.68.1-.95.3-.36.26-.64.64-.84,1.14s-.31,1.21-.32,2.14c.27-.42.61-.73,1-.93.4-.2.81-.3,1.24-.3.76,0,1.4.28,1.93.84.53.56.8,1.28.8,2.16,0,.58-.13,1.12-.38,1.62-.25.5-.59.88-1.03,1.15-.44.27-.93.4-1.49.4-.95,0-1.72-.35-2.31-1.04-.6-.7-.9-1.84-.9-3.44,0-1.79.33-3.09.99-3.9.58-.71,1.35-1.06,2.33-1.06.73,0,1.32.2,1.79.61s.74.97.84,1.69ZM444.13,49.43c0,.39.08.77.25,1.12.17.36.4.63.7.82.3.19.61.28.94.28.48,0,.89-.19,1.24-.58.34-.39.52-.91.52-1.58s-.17-1.14-.51-1.51c-.34-.37-.77-.55-1.29-.55s-.95.18-1.31.55c-.36.37-.54.85-.54,1.45Z"></path>
        <path class="cls-13" d="M450.7,52.42v-1.29h1.29v1.29h-1.29Z"></path>
        <path class="cls-13" d="M453.65,47.86c0-1.09.11-1.97.34-2.64.22-.67.56-1.18,1-1.54.44-.36,1-.54,1.67-.54.5,0,.93.1,1.31.3.38.2.68.49.93.86s.44.83.57,1.38c.14.54.21,1.27.21,2.19,0,1.08-.11,1.96-.33,2.63-.22.67-.56,1.18-1,1.55-.44.36-1,.55-1.68.55-.89,0-1.59-.32-2.1-.96-.61-.77-.92-2.02-.92-3.76ZM454.82,47.86c0,1.52.18,2.53.53,3.03.36.5.79.75,1.31.75s.96-.25,1.32-.76c.36-.5.53-1.51.53-3.03s-.18-2.53-.53-3.03-.8-.75-1.33-.75-.94.22-1.25.66c-.39.56-.59,1.6-.59,3.12Z"></path>
        <path class="cls-13" d="M460.84,49.98l1.14-.15c.13.64.35,1.11.67,1.39.31.28.69.43,1.14.43.53,0,.98-.19,1.35-.56.37-.37.55-.83.55-1.38s-.17-.95-.51-1.29c-.34-.34-.77-.51-1.3-.51-.21,0-.48.04-.8.13l.13-1c.08,0,.14.01.18.01.48,0,.92-.13,1.31-.38.39-.25.58-.64.58-1.17,0-.42-.14-.76-.42-1.03-.28-.27-.65-.41-1.09-.41s-.81.14-1.1.42c-.29.28-.48.69-.57,1.25l-1.13-.2c.14-.76.45-1.35.95-1.77.49-.42,1.1-.63,1.83-.63.5,0,.97.11,1.39.32.42.22.75.51.97.89.22.37.34.77.34,1.19s-.11.76-.32,1.09c-.21.33-.53.59-.95.78.55.13.97.39,1.27.79.3.4.45.9.45,1.49,0,.81-.29,1.49-.88,2.05-.59.56-1.33.84-2.23.84-.81,0-1.49-.24-2.02-.73-.54-.48-.84-1.11-.92-1.88Z"></path>
      </g>
      <g>
        <path class="cls-13" d="M512.7,93.44h-1.13v-7.23c-.27.26-.63.52-1.08.78-.44.26-.84.46-1.2.59v-1.1c.63-.3,1.19-.66,1.67-1.08.47-.42.81-.84,1.01-1.24h.73v9.28Z"></path>
        <path class="cls-13" d="M515.61,91.01l1.19-.1c.09.58.29,1.02.62,1.31.32.29.71.44,1.16.44.55,0,1.01-.21,1.39-.62.38-.41.57-.96.57-1.64s-.18-1.16-.54-1.53c-.36-.37-.84-.56-1.43-.56-.37,0-.7.08-.99.25-.29.17-.53.38-.69.65l-1.07-.14.9-4.75h4.6v1.08h-3.69l-.5,2.49c.55-.39,1.14-.58,1.75-.58.81,0,1.49.28,2.04.84.55.56.83,1.28.83,2.16s-.24,1.56-.73,2.17c-.59.75-1.4,1.12-2.43,1.12-.84,0-1.53-.24-2.06-.71-.53-.47-.83-1.1-.91-1.87Z"></path>
        <path class="cls-13" d="M523.43,93.44v-1.29h1.29v1.29h-1.29Z"></path>
        <path class="cls-13" d="M526.38,88.88c0-1.09.11-1.97.34-2.64.22-.67.56-1.18,1-1.54.44-.36,1-.54,1.67-.54.5,0,.93.1,1.31.3.38.2.68.49.93.86s.44.83.57,1.38c.14.54.21,1.27.21,2.19,0,1.08-.11,1.96-.33,2.63-.22.67-.56,1.18-1,1.55-.44.36-1,.55-1.68.55-.89,0-1.59-.32-2.1-.96-.61-.77-.92-2.02-.92-3.76ZM527.55,88.88c0,1.52.18,2.53.53,3.03.36.5.79.75,1.31.75s.96-.25,1.32-.76c.36-.5.53-1.51.53-3.03s-.18-2.53-.53-3.03-.8-.75-1.33-.75-.94.22-1.25.66c-.39.56-.59,1.6-.59,3.12Z"></path>
        <path class="cls-13" d="M533.57,91l1.14-.15c.13.64.35,1.11.67,1.39.31.28.69.43,1.14.43.53,0,.98-.19,1.35-.56.37-.37.55-.83.55-1.38s-.17-.95-.51-1.29c-.34-.34-.77-.51-1.3-.51-.21,0-.48.04-.8.13l.13-1c.08,0,.14.01.18.01.48,0,.92-.13,1.31-.38.39-.25.58-.64.58-1.17,0-.42-.14-.76-.42-1.03-.28-.27-.65-.41-1.09-.41s-.81.14-1.1.42c-.29.28-.48.69-.57,1.25l-1.13-.2c.14-.76.45-1.35.95-1.77.49-.42,1.1-.63,1.83-.63.5,0,.97.11,1.39.32.42.22.75.51.97.89.22.37.34.77.34,1.19s-.11.76-.32,1.09c-.21.33-.53.59-.95.78.55.13.97.39,1.27.79.3.4.45.9.45,1.49,0,.81-.29,1.49-.88,2.05-.59.56-1.33.84-2.23.84-.81,0-1.49-.24-2.02-.73-.54-.48-.84-1.11-.92-1.88Z"></path>
      </g>
      <g>
        <path class="cls-13" d="M659.85,594.76v-9.25h4.1c.82,0,1.45.08,1.88.25s.77.46,1.03.88c.26.42.38.89.38,1.39,0,.66-.21,1.21-.64,1.66-.42.45-1.08.74-1.97.86.32.16.57.31.74.46.36.33.7.74,1.02,1.23l1.61,2.52h-1.54l-1.22-1.92c-.36-.55-.65-.98-.88-1.27-.23-.29-.44-.5-.62-.62-.18-.12-.37-.2-.56-.25-.14-.03-.37-.04-.68-.04h-1.42v4.11h-1.22ZM661.07,589.59h2.63c.56,0,1-.06,1.31-.17.32-.12.55-.3.72-.55.16-.25.25-.53.25-.83,0-.44-.16-.8-.48-1.08-.32-.28-.82-.42-1.5-.42h-2.93v3.06Z"></path>
        <path class="cls-13" d="M672.97,594.76h-1.13v-7.23c-.27.26-.63.52-1.08.78-.44.26-.84.46-1.2.59v-1.1c.63-.3,1.19-.66,1.67-1.08.47-.42.81-.84,1.01-1.24h.73v9.29Z"></path>
      </g>
      <path class="cls-13" d="M675.87,590.2c0-1.09.11-1.97.34-2.64.22-.67.56-1.18,1-1.54.44-.36,1-.54,1.67-.54.5,0,.93.1,1.31.3.38.2.68.49.93.86s.44.83.57,1.38.21,1.27.21,2.19c0,1.08-.11,1.96-.33,2.63-.22.67-.56,1.18-1,1.55-.44.36-1,.54-1.68.54-.89,0-1.59-.32-2.1-.96-.61-.77-.92-2.02-.92-3.76ZM677.03,590.2c0,1.52.18,2.53.53,3.03.36.5.79.75,1.31.75s.96-.25,1.32-.76c.36-.5.53-1.51.53-3.03s-.18-2.53-.53-3.03c-.36-.5-.8-.75-1.33-.75s-.94.22-1.25.66c-.39.56-.59,1.6-.59,3.12Z"></path>
      <g>
        <path class="cls-13" d="M627.13,369.59v-9.25h4.1c.82,0,1.45.08,1.88.25.43.17.77.46,1.03.88.26.42.38.88.38,1.39,0,.66-.21,1.21-.64,1.66-.42.45-1.08.74-1.97.86.32.16.57.31.74.46.36.33.7.74,1.02,1.23l1.61,2.52h-1.54l-1.22-1.92c-.36-.56-.65-.98-.88-1.27-.23-.29-.44-.5-.62-.62-.18-.12-.37-.2-.56-.25-.14-.03-.37-.04-.68-.04h-1.42v4.11h-1.22ZM628.35,364.42h2.63c.56,0,1-.06,1.31-.17s.55-.3.72-.56.25-.53.25-.83c0-.44-.16-.8-.48-1.08-.32-.28-.82-.42-1.5-.42h-2.93v3.06Z"></path>
        <path class="cls-13" d="M640.25,369.59h-1.13v-7.23c-.27.26-.63.52-1.08.78-.44.26-.84.46-1.2.59v-1.1c.63-.3,1.19-.66,1.67-1.08.47-.42.81-.84,1.01-1.24h.73v9.28Z"></path>
      </g>
      <path class="cls-13" d="M643.15,365.02c0-1.09.11-1.97.34-2.64.22-.67.56-1.18,1-1.54.44-.36,1-.54,1.67-.54.5,0,.93.1,1.31.3.38.2.68.49.93.86s.44.83.57,1.38c.14.54.21,1.27.21,2.19,0,1.08-.11,1.96-.33,2.63-.22.67-.56,1.18-1,1.55-.44.36-1,.55-1.68.55-.89,0-1.59-.32-2.1-.96-.61-.77-.92-2.02-.92-3.76ZM644.31,365.02c0,1.52.18,2.53.53,3.03.36.5.79.75,1.31.75s.96-.25,1.32-.76c.36-.5.53-1.51.53-3.03s-.18-2.53-.53-3.03-.8-.75-1.33-.75-.94.22-1.25.66c-.39.56-.59,1.6-.59,3.12Z"></path>
      <g class="cls-18">
        <path class="cls-13" d="M882.58,406.53l3.58-4.82-3.15-4.43h1.46l1.68,2.37c.35.49.6.87.74,1.14.21-.34.45-.69.73-1.05l1.86-2.45h1.33l-3.25,4.36,3.5,4.89h-1.51l-2.33-3.3c-.13-.19-.26-.4-.4-.62-.21.34-.35.57-.44.69l-2.32,3.22h-1.47Z"></path>
      </g>
      <path class="cls-13" d="M227.06,406.53l3.58-4.82-3.15-4.43h1.46l1.68,2.37c.35.49.6.87.74,1.14.21-.34.45-.69.73-1.05l1.86-2.45h1.33l-3.25,4.36,3.5,4.89h-1.51l-2.33-3.3c-.13-.19-.26-.4-.4-.62-.21.34-.35.57-.44.69l-2.32,3.22h-1.47Z"></path>
      <g>
        <path class="cls-13" d="M601.28,193.42v-9.25h4.1c.82,0,1.45.08,1.88.25.43.17.77.46,1.03.88.26.42.38.88.38,1.39,0,.66-.21,1.21-.64,1.66-.42.45-1.08.74-1.97.86.32.16.57.31.74.46.36.33.7.74,1.02,1.23l1.61,2.52h-1.54l-1.22-1.92c-.36-.56-.65-.98-.88-1.27-.23-.29-.44-.5-.62-.62-.18-.12-.37-.2-.56-.25-.14-.03-.37-.04-.68-.04h-1.42v4.11h-1.22ZM602.5,188.26h2.63c.56,0,1-.06,1.31-.17s.55-.3.72-.56.25-.53.25-.83c0-.44-.16-.8-.48-1.08-.32-.28-.82-.42-1.5-.42h-2.93v3.06Z"></path>
        <path class="cls-13" d="M614.41,193.42h-1.13v-7.23c-.27.26-.63.52-1.08.78-.44.26-.84.46-1.2.59v-1.1c.63-.3,1.19-.66,1.67-1.08.47-.42.81-.84,1.01-1.24h.73v9.28Z"></path>
      </g>
      <path class="cls-13" d="M623.26,192.33v1.09h-6.11c0-.27.04-.54.13-.79.16-.42.4-.83.75-1.23s.84-.87,1.49-1.4c1-.82,1.68-1.48,2.04-1.96.35-.48.53-.94.53-1.37,0-.45-.16-.83-.48-1.14-.32-.31-.74-.46-1.26-.46-.55,0-.98.16-1.31.49s-.49.78-.5,1.36l-1.17-.12c.08-.87.38-1.53.9-1.99.52-.46,1.22-.68,2.1-.68s1.59.25,2.11.74c.52.49.78,1.1.78,1.83,0,.37-.08.73-.23,1.09s-.4.73-.75,1.13c-.35.4-.93.94-1.75,1.63-.68.57-1.12.96-1.31,1.16-.19.2-.35.41-.48.61h4.54Z"></path>
      <path class="cls-13" d="M651.7,215.22l-.21,1.12-7.11-1.32c.21.32.4.72.57,1.2.17.48.29.91.36,1.28l-1.08-.2c-.18-.68-.43-1.29-.76-1.83-.33-.54-.67-.95-1.03-1.22l.13-.72,9.13,1.69Z"></path>
      <path class="cls-13" d="M647.03,210.76l-1.27-.24.24-1.27,1.27.24-.24,1.27ZM652.35,211.74l-1.27-.24.24-1.27,1.27.24-.24,1.27Z"></path>
      <path class="cls-13" d="M647.1,201.78l-.12,1.13c-.46.02-.8.1-1.03.24-.37.24-.6.59-.68,1.03-.07.36-.02.69.12.99.19.4.51.75.97,1.04.46.29,1.14.53,2.04.71-.36-.34-.6-.73-.73-1.16-.13-.43-.15-.85-.07-1.28.14-.74.53-1.33,1.17-1.75.64-.42,1.4-.55,2.27-.39.57.11,1.08.33,1.52.66.44.34.76.74.94,1.22.18.48.22.99.12,1.54-.17.93-.66,1.62-1.45,2.08-.79.46-1.98.54-3.55.25-1.76-.33-2.97-.89-3.65-1.68-.59-.7-.79-1.52-.62-2.48.13-.71.44-1.26.93-1.65.49-.38,1.09-.55,1.81-.51ZM650.17,207.06c.38.07.77.06,1.15-.04.38-.1.69-.28.93-.54.24-.26.39-.55.45-.87.09-.47-.03-.91-.35-1.32-.32-.41-.8-.67-1.46-.8-.63-.12-1.16-.04-1.58.23-.42.27-.68.66-.78,1.16-.09.5,0,.97.3,1.38.3.42.74.68,1.33.79Z"></path>
      <g>
        <path class="cls-13" d="M434.54,165.62v-9.25h4.1c.82,0,1.45.08,1.88.25.43.17.77.46,1.03.88.26.42.38.88.38,1.39,0,.66-.21,1.21-.64,1.66-.42.45-1.08.74-1.97.86.32.16.57.31.74.46.36.33.7.74,1.02,1.23l1.61,2.52h-1.54l-1.22-1.92c-.36-.56-.65-.98-.88-1.27-.23-.29-.44-.5-.62-.62-.18-.12-.37-.2-.56-.25-.14-.03-.37-.04-.68-.04h-1.42v4.11h-1.22ZM435.76,160.46h2.63c.56,0,1-.06,1.31-.17s.55-.3.72-.56.25-.53.25-.83c0-.44-.16-.8-.48-1.08-.32-.28-.82-.42-1.5-.42h-2.93v3.06Z"></path>
        <path class="cls-13" d="M447.66,165.62h-1.13v-7.23c-.27.26-.63.52-1.08.78-.44.26-.84.46-1.2.59v-1.1c.63-.3,1.19-.66,1.67-1.08.47-.42.81-.84,1.01-1.24h.73v9.28Z"></path>
      </g>
      <path class="cls-13" d="M450.55,161.06c0-1.09.11-1.97.34-2.64.22-.67.56-1.18,1-1.54.44-.36,1-.54,1.67-.54.5,0,.93.1,1.31.3.38.2.68.49.93.86s.44.83.57,1.38c.14.54.21,1.27.21,2.19,0,1.08-.11,1.96-.33,2.63-.22.67-.56,1.18-1,1.55-.44.36-1,.55-1.68.55-.89,0-1.59-.32-2.1-.96-.61-.77-.92-2.02-.92-3.76ZM451.72,161.06c0,1.52.18,2.53.53,3.03.36.5.79.75,1.31.75s.96-.25,1.32-.76c.36-.5.53-1.51.53-3.03s-.18-2.53-.53-3.03-.8-.75-1.33-.75-.94.22-1.25.66c-.39.56-.59,1.6-.59,3.12Z"></path>
      <g>
        <path class="cls-13" d="M319.38,332.63v-9.25h4.1c.82,0,1.45.08,1.88.25.43.17.77.46,1.03.88.26.42.38.88.38,1.39,0,.66-.21,1.21-.64,1.66-.42.45-1.08.74-1.97.86.32.16.57.31.74.46.36.33.7.74,1.02,1.23l1.61,2.52h-1.54l-1.22-1.92c-.36-.56-.65-.98-.88-1.27-.23-.29-.44-.5-.62-.62-.18-.12-.37-.2-.56-.25-.14-.03-.37-.04-.68-.04h-1.42v4.11h-1.22ZM320.61,327.46h2.63c.56,0,1-.06,1.31-.17s.55-.3.72-.56.25-.53.25-.83c0-.44-.16-.8-.48-1.08-.32-.28-.82-.42-1.5-.42h-2.93v3.06Z"></path>
        <path class="cls-13" d="M332.51,332.63h-1.13v-7.23c-.27.26-.63.52-1.08.78-.44.26-.84.46-1.2.59v-1.1c.63-.3,1.19-.66,1.67-1.08.47-.42.81-.84,1.01-1.24h.73v9.28Z"></path>
      </g>
      <path class="cls-13" d="M335.4,328.07c0-1.09.11-1.97.34-2.64.22-.67.56-1.18,1-1.54.44-.36,1-.54,1.67-.54.5,0,.93.1,1.31.3.38.2.68.49.93.86s.44.83.57,1.38c.14.54.21,1.27.21,2.19,0,1.08-.11,1.96-.33,2.63-.22.67-.56,1.18-1,1.55-.44.36-1,.55-1.68.55-.89,0-1.59-.32-2.1-.96-.61-.77-.92-2.02-.92-3.76ZM336.57,328.07c0,1.52.18,2.53.53,3.03.36.5.79.75,1.31.75s.96-.25,1.32-.76c.36-.5.53-1.51.53-3.03s-.18-2.53-.53-3.03-.8-.75-1.33-.75-.94.22-1.25.66c-.39.56-.59,1.6-.59,3.12Z"></path>
      <g>
        <path class="cls-13" d="M389.04,589.79h-1.13v-7.23c-.27.26-.63.52-1.08.78-.44.26-.84.46-1.2.59v-1.1c.63-.3,1.19-.66,1.67-1.08.47-.42.81-.84,1.01-1.24h.73v9.29Z"></path>
        <path class="cls-13" d="M391.95,587.35l1.14-.15c.13.64.35,1.11.67,1.39.31.28.69.43,1.14.43.53,0,.98-.19,1.35-.56s.55-.83.55-1.38-.17-.95-.51-1.29c-.34-.34-.77-.51-1.3-.51-.21,0-.48.04-.8.13l.13-1c.08,0,.14.01.18.01.48,0,.92-.13,1.31-.38.39-.25.58-.64.58-1.17,0-.42-.14-.76-.42-1.03-.28-.27-.65-.41-1.09-.41s-.81.14-1.1.42c-.29.28-.48.69-.57,1.25l-1.13-.2c.14-.76.45-1.35.95-1.77.49-.42,1.1-.63,1.83-.63.5,0,.97.11,1.39.33.42.22.75.51.97.89.22.38.34.77.34,1.19s-.11.76-.32,1.09c-.21.33-.53.59-.95.78.55.13.97.39,1.27.79s.45.89.45,1.49c0,.81-.29,1.49-.88,2.05s-1.33.84-2.23.84c-.81,0-1.49-.24-2.02-.73s-.84-1.11-.92-1.88Z"></path>
        <path class="cls-13" d="M399.77,589.79v-1.29h1.29v1.29h-1.29Z"></path>
        <path class="cls-13" d="M402.72,587.37l1.19-.1c.09.58.29,1.02.62,1.31.32.29.71.44,1.16.44.55,0,1.01-.21,1.39-.62.38-.41.57-.96.57-1.64s-.18-1.16-.54-1.53c-.36-.38-.84-.56-1.43-.56-.37,0-.7.08-.99.25-.29.17-.53.38-.69.65l-1.07-.14.9-4.75h4.6v1.08h-3.69l-.5,2.49c.55-.39,1.14-.58,1.75-.58.81,0,1.49.28,2.04.84.55.56.83,1.28.83,2.16s-.24,1.56-.73,2.17c-.59.75-1.4,1.12-2.43,1.12-.84,0-1.53-.24-2.06-.71-.53-.47-.83-1.1-.91-1.87Z"></path>
      </g>
      <g>
        <path class="cls-13" d="M366.1,631.06v-9.25h4.1c.82,0,1.45.08,1.88.25s.77.46,1.03.88c.26.42.38.89.38,1.39,0,.66-.21,1.21-.64,1.66-.42.45-1.08.74-1.97.86.32.16.57.31.74.46.36.33.7.74,1.02,1.23l1.61,2.52h-1.54l-1.22-1.92c-.36-.55-.65-.98-.88-1.27-.23-.29-.44-.5-.62-.62-.18-.12-.37-.2-.56-.25-.14-.03-.37-.04-.68-.04h-1.42v4.11h-1.22ZM367.32,625.89h2.63c.56,0,1-.06,1.31-.17.32-.12.55-.3.72-.55.16-.25.25-.53.25-.83,0-.44-.16-.8-.48-1.08-.32-.28-.82-.42-1.5-.42h-2.93v3.06Z"></path>
        <path class="cls-13" d="M379.22,631.06h-1.13v-7.23c-.27.26-.63.52-1.08.78-.44.26-.84.46-1.2.59v-1.1c.63-.3,1.19-.66,1.67-1.08.47-.42.81-.84,1.01-1.24h.73v9.29Z"></path>
      </g>
      <path class="cls-13" d="M382.11,626.5c0-1.09.11-1.97.34-2.64.22-.67.56-1.18,1-1.54.44-.36,1-.54,1.67-.54.5,0,.93.1,1.31.3.38.2.68.49.93.86s.44.83.57,1.38.21,1.27.21,2.19c0,1.08-.11,1.96-.33,2.63-.22.67-.56,1.18-1,1.55-.44.36-1,.54-1.68.54-.89,0-1.59-.32-2.1-.96-.61-.77-.92-2.02-.92-3.76ZM383.28,626.5c0,1.52.18,2.53.53,3.03.36.5.79.75,1.31.75s.96-.25,1.32-.76c.36-.5.53-1.51.53-3.03s-.18-2.53-.53-3.03c-.36-.5-.8-.75-1.33-.75s-.94.22-1.25.66c-.39.56-.59,1.6-.59,3.12Z"></path>
      <g>
        <path class="cls-13" d="M231.52,297.67v-9.25h4.1c.82,0,1.45.08,1.88.25.43.17.77.46,1.03.88.26.42.38.88.38,1.39,0,.66-.21,1.21-.64,1.66-.42.45-1.08.74-1.97.86.32.16.57.31.74.46.36.33.7.74,1.02,1.23l1.61,2.52h-1.54l-1.22-1.92c-.36-.56-.65-.98-.88-1.27-.23-.29-.44-.5-.62-.62-.18-.12-.37-.2-.56-.25-.14-.03-.37-.04-.68-.04h-1.42v4.11h-1.22ZM232.74,292.5h2.63c.56,0,1-.06,1.31-.17s.55-.3.72-.56.25-.53.25-.83c0-.44-.16-.8-.48-1.08-.32-.28-.82-.42-1.5-.42h-2.93v3.06Z"></path>
        <path class="cls-13" d="M244.01,297.67v-2.21h-4.01v-1.04l4.22-5.99h.93v5.99h1.25v1.04h-1.25v2.21h-1.13ZM244.01,294.42v-4.17l-2.9,4.17h2.9Z"></path>
      </g>
      <g>
        <path class="cls-13" d="M246.97,81.07v-9.25h4.1c.82,0,1.45.08,1.88.25.43.17.77.46,1.03.88.26.42.38.88.38,1.39,0,.66-.21,1.21-.64,1.66-.42.45-1.08.74-1.97.86.32.16.57.31.74.46.36.33.7.74,1.02,1.23l1.61,2.52h-1.54l-1.22-1.92c-.36-.56-.65-.98-.88-1.27-.23-.29-.44-.5-.62-.62-.18-.12-.37-.2-.56-.25-.14-.03-.37-.04-.68-.04h-1.42v4.11h-1.22ZM248.19,75.91h2.63c.56,0,1-.06,1.31-.17s.55-.3.72-.56.25-.53.25-.83c0-.44-.16-.8-.48-1.08-.32-.28-.82-.42-1.5-.42h-2.93v3.06Z"></path>
        <path class="cls-13" d="M259.46,81.07v-2.21h-4.01v-1.04l4.22-5.99h.93v5.99h1.25v1.04h-1.25v2.21h-1.13ZM259.46,77.82v-4.17l-2.9,4.17h2.9Z"></path>
      </g>
      <g>
        <path class="cls-13" d="M841.98,80.67v-9.25h4.1c.82,0,1.45.08,1.88.25.43.17.77.46,1.03.88.26.42.38.88.38,1.39,0,.66-.21,1.21-.64,1.66-.42.45-1.08.74-1.97.86.32.16.57.31.74.46.36.33.7.74,1.02,1.23l1.61,2.52h-1.54l-1.22-1.92c-.36-.56-.65-.98-.88-1.27-.23-.29-.44-.5-.62-.62-.18-.12-.37-.2-.56-.25-.14-.03-.37-.04-.68-.04h-1.42v4.11h-1.22ZM843.21,75.51h2.63c.56,0,1-.06,1.31-.17s.55-.3.72-.56.25-.53.25-.83c0-.44-.16-.8-.48-1.08-.32-.28-.82-.42-1.5-.42h-2.93v3.06Z"></path>
        <path class="cls-13" d="M854.47,80.67v-2.21h-4.01v-1.04l4.22-5.99h.93v5.99h1.25v1.04h-1.25v2.21h-1.13ZM854.47,77.42v-4.17l-2.9,4.17h2.9Z"></path>
      </g>
      <g>
        <path class="cls-13" d="M606.56,104.34v-9.25h4.1c.82,0,1.45.08,1.88.25.43.17.77.46,1.03.88.26.42.38.88.38,1.39,0,.66-.21,1.21-.64,1.66-.42.45-1.08.74-1.97.86.32.16.57.31.74.46.36.33.7.74,1.02,1.23l1.61,2.52h-1.54l-1.22-1.92c-.36-.56-.65-.98-.88-1.27-.23-.29-.44-.5-.62-.62-.18-.12-.37-.2-.56-.25-.14-.03-.37-.04-.68-.04h-1.42v4.11h-1.22ZM607.79,99.17h2.63c.56,0,1-.06,1.31-.17s.55-.3.72-.56.25-.53.25-.83c0-.44-.16-.8-.48-1.08-.32-.28-.82-.42-1.5-.42h-2.93v3.06Z"></path>
        <path class="cls-13" d="M619.05,104.34v-2.21h-4.01v-1.04l4.22-5.99h.93v5.99h1.25v1.04h-1.25v2.21h-1.13ZM619.05,101.09v-4.17l-2.9,4.17h2.9Z"></path>
      </g>
      <g>
        <path class="cls-13" d="M803.98,317.56v-9.25h4.1c.82,0,1.45.08,1.88.25.43.17.77.46,1.03.88.26.42.38.88.38,1.39,0,.66-.21,1.21-.64,1.66-.42.45-1.08.74-1.97.86.32.16.57.31.74.46.36.33.7.74,1.02,1.23l1.61,2.52h-1.54l-1.22-1.92c-.36-.56-.65-.98-.88-1.27-.23-.29-.44-.5-.62-.62-.18-.12-.37-.2-.56-.25-.14-.03-.37-.04-.68-.04h-1.42v4.11h-1.22ZM805.2,312.4h2.63c.56,0,1-.06,1.31-.17s.55-.3.72-.56.25-.53.25-.83c0-.44-.16-.8-.48-1.08-.32-.28-.82-.42-1.5-.42h-2.93v3.06Z"></path>
        <path class="cls-13" d="M812.83,315.12l1.14-.15c.13.64.35,1.11.67,1.39.31.28.69.43,1.14.43.53,0,.98-.19,1.35-.56.37-.37.55-.83.55-1.38s-.17-.95-.51-1.29c-.34-.34-.77-.51-1.3-.51-.21,0-.48.04-.8.13l.13-1c.08,0,.14.01.18.01.48,0,.92-.13,1.31-.38.39-.25.58-.64.58-1.17,0-.42-.14-.76-.42-1.03-.28-.27-.65-.41-1.09-.41s-.81.14-1.1.42c-.29.28-.48.69-.57,1.25l-1.13-.2c.14-.76.45-1.35.95-1.77.49-.42,1.1-.63,1.83-.63.5,0,.97.11,1.39.32.42.22.75.51.97.89.22.37.34.77.34,1.19s-.11.76-.32,1.09c-.21.33-.53.59-.95.78.55.13.97.39,1.27.79.3.4.45.9.45,1.49,0,.81-.29,1.49-.88,2.05-.59.56-1.33.84-2.23.84-.81,0-1.49-.24-2.02-.73-.54-.48-.84-1.11-.92-1.88Z"></path>
      </g>
      <path class="cls-13" d="M819.99,313c0-1.09.11-1.97.34-2.64.22-.67.56-1.18,1-1.54.44-.36,1-.54,1.67-.54.5,0,.93.1,1.31.3.38.2.68.49.93.86s.44.83.57,1.38c.14.54.21,1.27.21,2.19,0,1.08-.11,1.96-.33,2.63-.22.67-.56,1.18-1,1.55-.44.36-1,.55-1.68.55-.89,0-1.59-.32-2.1-.96-.61-.77-.92-2.02-.92-3.76ZM821.16,313c0,1.52.18,2.53.53,3.03.36.5.79.75,1.31.75s.96-.25,1.32-.76c.36-.5.53-1.51.53-3.03s-.18-2.53-.53-3.03-.8-.75-1.33-.75-.94.22-1.25.66c-.39.56-.59,1.6-.59,3.12Z"></path>
      <g>
        <path class="cls-13" d="M710.57,706.95v-9.25h4.1c.82,0,1.45.08,1.88.25s.77.46,1.03.88c.26.42.38.89.38,1.39,0,.66-.21,1.21-.64,1.66-.42.45-1.08.74-1.97.86.32.16.57.31.74.46.36.33.7.74,1.02,1.23l1.61,2.52h-1.54l-1.22-1.92c-.36-.55-.65-.98-.88-1.27-.23-.29-.44-.5-.62-.62-.18-.12-.37-.2-.56-.25-.14-.03-.37-.04-.68-.04h-1.42v4.11h-1.22ZM711.79,701.79h2.63c.56,0,1-.06,1.31-.17.32-.12.55-.3.72-.55.16-.25.25-.53.25-.83,0-.44-.16-.8-.48-1.08-.32-.28-.82-.42-1.5-.42h-2.93v3.06Z"></path>
        <path class="cls-13" d="M725.38,705.86v1.09h-6.11c0-.27.04-.54.13-.79.16-.42.4-.83.75-1.23s.84-.87,1.49-1.4c1-.82,1.68-1.48,2.04-1.96s.53-.94.53-1.37-.16-.83-.48-1.14c-.32-.31-.74-.46-1.26-.46-.55,0-.98.16-1.31.49-.33.33-.49.78-.5,1.36l-1.17-.12c.08-.87.38-1.53.9-1.99s1.22-.68,2.1-.68,1.59.25,2.11.74c.52.49.78,1.1.78,1.83,0,.37-.08.73-.23,1.09s-.4.73-.75,1.13c-.35.4-.93.94-1.75,1.63-.68.57-1.12.96-1.31,1.16s-.35.41-.48.62h4.54Z"></path>
      </g>
      <g>
        <path class="cls-13" d="M273.32,708.81v-9.25h4.1c.82,0,1.45.08,1.88.25s.77.46,1.03.88c.26.42.38.89.38,1.39,0,.66-.21,1.21-.64,1.66-.42.45-1.08.74-1.97.86.32.16.57.31.74.46.36.33.7.74,1.02,1.23l1.61,2.52h-1.54l-1.22-1.92c-.36-.55-.65-.98-.88-1.27-.23-.29-.44-.5-.62-.62-.18-.12-.37-.2-.56-.25-.14-.03-.37-.04-.68-.04h-1.42v4.11h-1.22ZM274.54,703.65h2.63c.56,0,1-.06,1.31-.17.32-.12.55-.3.72-.55.16-.25.25-.53.25-.83,0-.44-.16-.8-.48-1.08-.32-.28-.82-.42-1.5-.42h-2.93v3.06Z"></path>
        <path class="cls-13" d="M288.14,707.72v1.09h-6.11c0-.27.04-.54.13-.79.16-.42.4-.83.75-1.23s.84-.87,1.49-1.4c1-.82,1.68-1.48,2.04-1.96s.53-.94.53-1.37-.16-.83-.48-1.14c-.32-.31-.74-.46-1.26-.46-.55,0-.98.16-1.31.49-.33.33-.49.78-.5,1.36l-1.17-.12c.08-.87.38-1.53.9-1.99s1.22-.68,2.1-.68,1.59.25,2.11.74c.52.49.78,1.1.78,1.83,0,.37-.08.73-.23,1.09s-.4.73-.75,1.13c-.35.4-.93.94-1.75,1.63-.68.57-1.12.96-1.31,1.16s-.35.41-.48.62h4.54Z"></path>
      </g>
      <g>
        <path class="cls-13" d="M605.28,671.06l-1.13-.1.63-7.21c-.29.24-.68.46-1.14.69-.46.22-.88.38-1.24.48l.1-1.09c.66-.24,1.24-.55,1.75-.94.51-.38.88-.76,1.11-1.14l.73.06-.81,9.25Z"></path>
        <path class="cls-13" d="M608.8,671.36l.11-1.29,1.29.11-.11,1.29-1.29-.11ZM609.27,665.98l.11-1.29,1.29.11-.11,1.29-1.29-.11Z"></path>
      </g>
      <g>
        <path class="cls-13" d="M616.02,672l-1.13-.1.63-7.21c-.29.24-.68.46-1.14.69-.46.22-.88.38-1.24.48l.1-1.09c.66-.24,1.24-.55,1.75-.94.51-.38.88-.76,1.11-1.14l.73.06-.81,9.25Z"></path>
        <path class="cls-13" d="M619.32,667.71c.1-1.09.28-1.96.57-2.6.28-.64.66-1.13,1.13-1.45.47-.32,1.04-.45,1.71-.39.49.04.92.18,1.27.41s.64.55.85.94c.21.4.36.87.45,1.42.09.55.1,1.28.02,2.2-.09,1.08-.28,1.94-.56,2.59-.28.64-.66,1.13-1.13,1.45-.47.32-1.05.46-1.72.4-.89-.08-1.56-.46-2.01-1.14-.54-.82-.74-2.09-.58-3.83ZM620.48,667.81c-.13,1.51-.04,2.53.27,3.07.31.53.72.82,1.24.87.52.04.98-.17,1.38-.64s.66-1.46.79-2.97c.13-1.52.04-2.54-.27-3.07-.31-.53-.73-.82-1.26-.86-.52-.05-.95.14-1.3.55-.44.53-.72,1.55-.86,3.06Z"></path>
      </g>
      <g>
        <path class="cls-13" d="M255.3,684.16l-1.13.1-.63-7.21c-.25.28-.58.58-1,.87-.42.3-.8.53-1.14.69l-.1-1.09c.61-.35,1.13-.76,1.56-1.23.44-.46.74-.9.9-1.32l.73-.06.81,9.25Z"></path>
        <path class="cls-13" d="M258.36,678.47l-.11-1.29,1.29-.11.11,1.29-1.29.11ZM258.83,683.86l-.11-1.29,1.29-.11.11,1.29-1.29.11Z"></path>
      </g>
      <path class="cls-13" d="M266.04,683.23l-1.13.1-.63-7.21c-.25.28-.58.57-1,.87-.42.3-.8.53-1.14.69l-.1-1.09c.61-.35,1.13-.76,1.56-1.23.44-.46.74-.9.9-1.32l.73-.06.81,9.25Z"></path>
      <path class="cls-13" d="M268.56,678.43c-.09-1.09-.06-1.98.11-2.66.17-.68.45-1.23.86-1.62.41-.4.95-.63,1.62-.69.49-.04.94.02,1.33.19.39.17.72.43,1,.78.28.35.51.79.69,1.32.19.53.32,1.25.4,2.16.09,1.08.06,1.96-.1,2.65-.16.68-.45,1.23-.86,1.63-.41.4-.95.63-1.63.69-.89.08-1.61-.18-2.17-.77-.67-.71-1.09-1.93-1.24-3.67ZM269.72,678.33c.13,1.51.4,2.5.8,2.97s.86.68,1.38.64.93-.34,1.24-.87.4-1.55.27-3.06c-.13-1.52-.4-2.51-.8-2.98-.4-.47-.86-.68-1.39-.63-.52.05-.91.3-1.18.77-.34.59-.45,1.65-.31,3.16Z"></path>
      <g>
        <path class="cls-13" d="M593.6,314.13l-1.12.2-1.26-7.12c-.22.3-.53.62-.92.96s-.75.6-1.08.79l-.19-1.08c.57-.4,1.06-.86,1.45-1.36.39-.5.65-.97.78-1.39l.72-.13,1.61,9.14Z"></path>
        <path class="cls-13" d="M596.14,308.2l-.22-1.27,1.27-.22.22,1.27-1.27.22ZM597.08,313.52l-.22-1.27,1.27-.22.22,1.27-1.27.22Z"></path>
        <path class="cls-13" d="M599.57,310.62l1.16-.31c.19.56.46.95.83,1.18.37.23.77.31,1.22.23.54-.09.96-.38,1.26-.85.3-.47.39-1.04.27-1.71-.11-.64-.38-1.11-.8-1.41-.42-.31-.92-.41-1.5-.31-.36.06-.67.2-.93.42-.26.21-.45.47-.57.76l-1.07.05.06-4.83,4.53-.8.19,1.07-3.63.64-.06,2.53c.48-.48,1.02-.77,1.62-.87.79-.14,1.51.02,2.16.47.64.45,1.04,1.11,1.19,1.98.15.82.03,1.58-.34,2.26-.45.84-1.19,1.35-2.2,1.53-.83.15-1.54.03-2.15-.34-.61-.37-1.01-.93-1.22-1.69Z"></path>
      </g>
      <g>
        <path class="cls-13" d="M416.67,243.14l-1.12-.2,1.26-7.12c-.31.21-.71.4-1.2.58-.48.18-.91.3-1.28.37l.19-1.08c.68-.18,1.29-.44,1.83-.78.54-.34.94-.68,1.21-1.04l.72.13-1.61,9.14Z"></path>
        <path class="cls-13" d="M420.16,243.75l.22-1.27,1.27.22-.22,1.27-1.27-.22ZM421.1,238.43l.22-1.27,1.27.22-.22,1.27-1.27-.22Z"></path>
      </g>
      <path class="cls-13" d="M423.49,241.88l1.19.11c-.01.59.11,1.05.38,1.4.27.34.62.56,1.07.63.54.1,1.03-.03,1.47-.37.45-.34.73-.85.84-1.52.11-.64.02-1.17-.27-1.6-.29-.43-.73-.7-1.31-.8-.36-.06-.7-.04-1.02.07-.32.11-.58.28-.8.52l-1.02-.32,1.71-4.52,4.53.8-.19,1.07-3.63-.64-.92,2.36c.61-.29,1.22-.37,1.82-.27.79.14,1.42.53,1.87,1.18.45.65.6,1.4.44,2.27-.15.82-.51,1.49-1.1,2.01-.71.63-1.58.86-2.59.68-.83-.15-1.46-.5-1.91-1.05-.44-.56-.63-1.22-.57-2Z"></path>
      <g>
        <path class="cls-13" d="M802.35,197.84h-2.21v4.01h-1.04l-5.99-4.22v-.93h5.99v-1.25h1.04v1.25h2.21v1.14ZM799.1,197.84h-4.17l4.17,2.9v-2.9Z"></path>
        <path class="cls-13" d="M802.35,190.02v1.14h-7.23c.26.27.52.63.78,1.08.26.44.46.84.59,1.2h-1.1c-.3-.63-.66-1.19-1.08-1.67s-.84-.81-1.24-1.01v-.73h9.29Z"></path>
      </g>
      <g>
        <path class="cls-13" d="M850.6,238.58l.09,1.13c-.45.1-.77.24-.97.43-.32.31-.49.69-.49,1.14,0,.36.1.68.3.95.26.36.64.64,1.14.85.5.21,1.21.31,2.14.32-.42-.27-.73-.61-.93-1-.2-.4-.3-.81-.3-1.24,0-.76.28-1.4.84-1.93.56-.53,1.28-.8,2.16-.8.58,0,1.12.12,1.62.38.5.25.88.59,1.15,1.03.26.44.4.93.4,1.49,0,.95-.35,1.72-1.04,2.31-.7.6-1.84.9-3.44.9-1.79,0-3.09-.33-3.9-.99-.71-.58-1.06-1.35-1.06-2.33,0-.73.2-1.32.61-1.79.41-.46.97-.74,1.69-.84ZM854.58,243.22c.39,0,.77-.08,1.12-.25s.63-.4.82-.7c.19-.3.28-.61.28-.94,0-.48-.19-.89-.58-1.24-.39-.34-.91-.52-1.58-.52s-1.14.17-1.51.51c-.37.34-.55.77-.55,1.29s.18.95.55,1.31c.37.36.85.54,1.45.54Z"></path>
        <path class="cls-13" d="M855.14,237.28l-.15-1.14c.64-.13,1.11-.35,1.39-.67.28-.31.43-.69.43-1.15,0-.53-.19-.98-.56-1.35-.37-.37-.83-.55-1.38-.55s-.95.17-1.29.51c-.34.34-.51.77-.51,1.3,0,.21.04.48.13.8l-1-.13c0-.08.01-.14.01-.18,0-.48-.13-.92-.38-1.31-.25-.39-.64-.58-1.17-.58-.42,0-.76.14-1.03.42s-.41.65-.41,1.09.14.81.42,1.1c.28.29.69.48,1.25.57l-.2,1.14c-.76-.14-1.35-.45-1.77-.95-.42-.49-.63-1.1-.63-1.84,0-.5.11-.97.33-1.39s.51-.75.89-.97c.38-.23.77-.34,1.19-.34s.76.11,1.09.32c.33.21.59.53.78.95.13-.55.39-.97.79-1.27s.89-.45,1.49-.45c.81,0,1.49.29,2.05.88.56.59.84,1.33.84,2.23,0,.81-.24,1.49-.73,2.02-.48.54-1.11.84-1.88.92Z"></path>
      </g>
      <g>
        <path class="cls-13" d="M855.44,581.84l-.1-1.09c.51-.09.89-.27,1.12-.53.23-.26.35-.6.35-1,0-.35-.08-.66-.24-.92-.16-.26-.37-.48-.64-.65-.27-.17-.63-.31-1.08-.42s-.92-.17-1.39-.17c-.05,0-.13,0-.23,0,.36.23.66.54.88.93.23.39.34.82.34,1.28,0,.77-.28,1.41-.83,1.94-.55.53-1.29.79-2.19.79s-1.69-.28-2.26-.83c-.57-.55-.86-1.25-.86-2.08,0-.6.16-1.15.49-1.65.32-.5.79-.88,1.38-1.13.6-.26,1.47-.39,2.6-.39s2.12.13,2.82.38c.7.26,1.23.64,1.6,1.14.37.51.55,1.1.55,1.78,0,.72-.2,1.31-.6,1.77-.4.46-.97.73-1.69.83ZM851.36,577.19c-.65,0-1.17.17-1.55.52-.38.35-.57.76-.57,1.25s.21.94.62,1.32c.41.38.95.56,1.6.56.59,0,1.07-.18,1.44-.53s.55-.79.55-1.31-.18-.96-.55-1.3c-.37-.34-.88-.51-1.53-.51Z"></path>
        <path class="cls-13" d="M849.54,574.75h-1.09v-5.99h.88c.63.59,1.46,1.17,2.5,1.75,1.04.58,2.11,1.03,3.2,1.34.77.23,1.62.37,2.54.43v1.17c-.73-.01-1.61-.16-2.64-.43s-2.02-.67-2.98-1.18c-.96-.51-1.76-1.05-2.42-1.63v4.53Z"></path>
        <path class="cls-13" d="M857.58,567h-1.29v-1.29h1.29v1.29Z"></path>
        <path class="cls-13" d="M855.14,564.04l-.15-1.14c.64-.13,1.11-.35,1.39-.67.28-.31.43-.69.43-1.14,0-.53-.19-.98-.56-1.35s-.83-.55-1.38-.55-.95.17-1.29.51c-.34.34-.51.77-.51,1.3,0,.21.04.48.13.8l-1-.13c0-.08.01-.14.01-.18,0-.48-.13-.92-.38-1.31-.25-.39-.64-.58-1.17-.58-.42,0-.76.14-1.03.42-.27.28-.41.65-.41,1.09s.14.81.42,1.1c.28.29.69.48,1.25.57l-.2,1.13c-.76-.14-1.35-.45-1.77-.95-.42-.49-.63-1.1-.63-1.83,0-.5.11-.97.33-1.39.22-.42.51-.75.89-.97.38-.22.77-.34,1.19-.34s.76.11,1.09.32c.33.21.59.53.78.95.13-.55.39-.97.79-1.27s.89-.45,1.49-.45c.81,0,1.49.29,2.05.88s.84,1.33.84,2.23c0,.81-.24,1.49-.73,2.02s-1.11.84-1.88.92Z"></path>
      </g>
      <path class="cls-13" d="M857.58,552.59v1.13h-7.23c.26.27.52.63.78,1.08.26.44.46.84.59,1.2h-1.1c-.3-.63-.66-1.19-1.08-1.67-.42-.47-.84-.81-1.24-1.01v-.73h9.29Z"></path>
      <g>
        <path class="cls-13" d="M130.31,480.9v1.13h-7.23c.26.27.52.63.78,1.08.26.44.46.84.59,1.2h-1.1c-.3-.63-.66-1.19-1.08-1.67-.42-.47-.84-.81-1.24-1.01v-.73h9.29Z"></path>
        <path class="cls-13" d="M125.29,476.24c-.17.47-.42.82-.74,1.05-.32.23-.7.34-1.15.34-.67,0-1.24-.24-1.7-.73-.46-.48-.69-1.13-.69-1.93s.23-1.46.7-1.95c.47-.49,1.04-.74,1.71-.74.43,0,.8.11,1.12.34.32.22.56.57.73,1.02.19-.57.48-1,.9-1.3.41-.3.9-.44,1.48-.44.79,0,1.46.28,1.99.84.54.56.81,1.29.81,2.21s-.27,1.65-.81,2.21c-.54.56-1.21.84-2.02.84-.6,0-1.1-.15-1.51-.46-.41-.31-.68-.74-.83-1.3ZM123.37,476.47c.44,0,.79-.14,1.07-.42.28-.28.42-.65.42-1.1s-.14-.8-.41-1.08c-.28-.28-.61-.42-1.01-.42s-.77.14-1.05.43c-.28.29-.43.65-.43,1.08s.14.79.42,1.08c.28.29.61.43,1,.43ZM127.64,476.84c.32,0,.64-.08.94-.23s.54-.38.7-.68c.17-.3.25-.63.25-.98,0-.54-.17-.99-.52-1.34-.35-.35-.79-.53-1.33-.53s-1,.18-1.36.55c-.36.36-.54.82-.54,1.37s.18.98.53,1.33c.35.35.79.53,1.33.53Z"></path>
        <path class="cls-13" d="M125.75,470.81c-1.09,0-1.97-.11-2.64-.34-.67-.22-1.18-.56-1.54-1-.36-.44-.54-1-.54-1.67,0-.5.1-.93.3-1.31.2-.38.49-.68.86-.93s.83-.44,1.38-.57,1.27-.21,2.19-.21c1.08,0,1.96.11,2.63.33.67.22,1.18.56,1.55,1,.36.44.54,1,.54,1.68,0,.89-.32,1.59-.96,2.1-.77.61-2.02.92-3.76.92ZM125.75,469.64c1.52,0,2.53-.18,3.03-.53.5-.36.75-.79.75-1.31s-.25-.96-.76-1.32c-.5-.36-1.51-.53-3.03-.53s-2.53.18-3.03.53c-.5.36-.75.8-.75,1.33s.22.94.66,1.25c.56.39,1.6.59,3.12.59Z"></path>
      </g>
      <g class="cls-20">
        <path class="cls-13" d="M133.03,453.97c-.79.63-1.72,1.16-2.78,1.59-1.06.43-2.16.65-3.29.65-1,0-1.96-.16-2.88-.49-1.06-.38-2.12-.96-3.18-1.75v-.81c.87.51,1.5.84,1.87,1.01.58.26,1.19.46,1.82.61.79.18,1.58.27,2.37.27,2.02,0,4.04-.63,6.06-1.89v.81Z"></path>
      </g>
      <g>
        <path class="cls-13" d="M122.28,451.43h-1.09v-5.99h.88c.63.59,1.46,1.17,2.5,1.75,1.04.58,2.11,1.03,3.2,1.34.77.23,1.62.37,2.54.43v1.17c-.73-.01-1.61-.16-2.64-.43s-2.02-.67-2.98-1.18c-.96-.51-1.76-1.05-2.42-1.63v4.53Z"></path>
        <path class="cls-13" d="M130.31,443.68h-1.29v-1.29h1.29v1.29Z"></path>
        <path class="cls-13" d="M125.75,440.73c-1.09,0-1.97-.11-2.64-.34-.67-.22-1.18-.56-1.54-1-.36-.44-.54-1-.54-1.67,0-.5.1-.93.3-1.31.2-.38.49-.68.86-.93s.83-.44,1.38-.57,1.27-.21,2.19-.21c1.08,0,1.96.11,2.63.33.67.22,1.18.56,1.55,1,.36.44.54,1,.54,1.68,0,.89-.32,1.59-.96,2.1-.77.61-2.02.92-3.76.92ZM125.75,439.56c1.52,0,2.53-.18,3.03-.53.5-.36.75-.79.75-1.31s-.25-.96-.76-1.32c-.5-.36-1.51-.53-3.03-.53s-2.53.18-3.03.53c-.5.36-.75.8-.75,1.33s.22.94.66,1.25c.56.39,1.6.59,3.12.59Z"></path>
        <path class="cls-13" d="M125.3,431.8c-.17.47-.42.82-.74,1.05-.32.23-.7.34-1.15.34-.67,0-1.24-.24-1.7-.73-.46-.48-.69-1.13-.69-1.93s.23-1.46.7-1.95c.47-.49,1.04-.74,1.71-.74.43,0,.8.11,1.12.34.32.22.56.57.73,1.02.19-.57.48-1,.9-1.3.41-.3.9-.44,1.48-.44.79,0,1.46.28,1.99.84.54.56.81,1.29.81,2.21s-.27,1.65-.81,2.21c-.54.56-1.21.84-2.02.84-.6,0-1.1-.15-1.51-.46-.41-.31-.68-.74-.83-1.3ZM123.38,432.03c.44,0,.79-.14,1.07-.42.28-.28.42-.65.42-1.1s-.14-.8-.41-1.08c-.28-.28-.61-.42-1.01-.42s-.77.14-1.05.43c-.28.29-.43.65-.43,1.08s.14.79.42,1.08c.28.29.61.43,1,.43ZM127.65,432.39c.32,0,.64-.08.94-.23s.54-.38.7-.68c.17-.3.25-.63.25-.98,0-.54-.17-.99-.52-1.34-.35-.35-.79-.53-1.33-.53s-1,.18-1.36.55c-.36.36-.54.82-.54,1.37s.18.98.53,1.33c.35.35.79.53,1.33.53Z"></path>
        <path class="cls-13" d="M122.28,426.29h-1.09v-5.99h.88c.63.59,1.46,1.17,2.5,1.75,1.04.58,2.11,1.03,3.2,1.34.77.23,1.62.37,2.54.43v1.17c-.73-.01-1.61-.16-2.64-.43s-2.02-.67-2.98-1.18c-.96-.51-1.76-1.05-2.42-1.63v4.53Z"></path>
        <path class="cls-13" d="M124.34,416.72l-1.76.31h-1.51v-1.29h1.51l1.76.3v.68ZM124.34,418.81l-1.76.32h-1.51v-1.29h1.51l1.76.28v.69Z"></path>
      </g>
      <g class="cls-19">
        <path class="cls-13" d="M133.03,413.56v.81c-2.02-1.26-4.04-1.89-6.06-1.89-.79,0-1.58.09-2.35.27-.63.14-1.24.34-1.82.6-.38.16-1.01.5-1.89,1.02v-.81c1.05-.79,2.12-1.38,3.18-1.75.92-.32,1.88-.49,2.88-.49,1.14,0,2.23.22,3.29.65,1.06.44,1.98.96,2.78,1.59Z"></path>
      </g>
      <g>
        <path class="cls-13" d="M289.11,207.21h-2.21v4.01h-1.04l-5.99-4.22v-.93h5.99v-1.25h1.04v1.25h2.21v1.14ZM285.86,207.21h-4.17l4.17,2.9v-2.9Z"></path>
        <path class="cls-13" d="M289.11,199.39v1.14h-7.23c.26.27.52.63.78,1.08.26.44.46.84.59,1.2h-1.1c-.3-.63-.66-1.19-1.08-1.67s-.84-.81-1.24-1.01v-.73h9.29Z"></path>
        <path class="cls-13" d="M289.11,195.84h-1.29v-1.29h1.29v1.29Z"></path>
      </g>
      <path class="cls-13" d="M288.02,186.94h1.09v6.11c-.27,0-.54-.04-.79-.13-.42-.16-.83-.4-1.23-.75s-.87-.84-1.4-1.49c-.82-1-1.48-1.68-1.96-2.04-.48-.35-.94-.53-1.37-.53s-.83.16-1.14.48c-.31.32-.46.74-.46,1.26,0,.55.16.98.49,1.31.33.33.78.49,1.36.5l-.12,1.17c-.87-.08-1.53-.38-1.99-.9s-.68-1.22-.68-2.1.25-1.59.74-2.11c.49-.52,1.1-.78,1.83-.78.37,0,.73.08,1.09.23s.73.4,1.13.75.94.93,1.63,1.75c.57.68.96,1.12,1.16,1.31s.41.35.62.48v-4.54Z"></path>
      <line class="cls-11" x1="491.65" y1="457.87" x2="511.93" y2="457.87"></line>
      <polygon class="cls-16" points="493.79 461 482.1 457.87 493.79 454.74 493.79 461"></polygon>
      <polygon class="cls-16" points="509.79 460.87 521.48 457.74 509.79 454.61 509.79 460.87"></polygon>
      <g>
        <path class="cls-13" d="M559.18,453.03h-1.13v-7.23c-.27.26-.63.52-1.08.78-.44.26-.84.46-1.2.59v-1.1c.63-.3,1.19-.66,1.67-1.08.47-.42.81-.84,1.01-1.24h.73v9.29Z"></path>
        <path class="cls-13" d="M568.05,451.94v1.09h-6.11c0-.27.04-.54.13-.79.16-.42.4-.83.75-1.23s.84-.87,1.49-1.4c1-.82,1.68-1.48,2.04-1.96s.53-.94.53-1.37-.16-.83-.48-1.14c-.32-.31-.74-.46-1.26-.46-.55,0-.98.16-1.31.49-.33.33-.49.78-.5,1.36l-1.17-.12c.08-.87.38-1.53.9-1.99s1.22-.68,2.1-.68,1.59.25,2.11.74c.52.49.78,1.1.78,1.83,0,.37-.08.73-.23,1.09s-.4.73-.75,1.13c-.35.4-.93.94-1.75,1.63-.68.57-1.12.96-1.31,1.16s-.35.41-.48.62h4.54Z"></path>
        <path class="cls-13" d="M575.35,455.75c-.63-.79-1.16-1.72-1.59-2.78-.43-1.06-.65-2.16-.65-3.29,0-1,.16-1.96.49-2.88.38-1.06.96-2.12,1.75-3.18h.81c-.51.87-.84,1.5-1.01,1.87-.26.58-.46,1.19-.61,1.82-.18.79-.27,1.58-.27,2.37,0,2.02.63,4.04,1.89,6.06h-.81Z"></path>
        <path class="cls-13" d="M577.16,448.47c0-1.09.11-1.97.34-2.64.22-.67.56-1.18,1-1.54.44-.36,1-.54,1.67-.54.5,0,.93.1,1.31.3.38.2.68.49.93.86s.44.83.57,1.38.21,1.27.21,2.19c0,1.08-.11,1.96-.33,2.63-.22.67-.56,1.18-1,1.55-.44.36-1,.54-1.68.54-.89,0-1.59-.32-2.1-.96-.61-.77-.92-2.02-.92-3.76ZM578.33,448.47c0,1.52.18,2.53.53,3.03.36.5.79.75,1.31.75s.96-.25,1.32-.76c.36-.5.53-1.51.53-3.03s-.18-2.53-.53-3.03c-.36-.5-.8-.75-1.33-.75s-.94.22-1.25.66c-.39.56-.59,1.6-.59,3.12Z"></path>
        <path class="cls-13" d="M584.98,453.03v-1.29h1.29v1.29h-1.29Z"></path>
        <path class="cls-13" d="M591.58,453.03v-2.21h-4.01v-1.04l4.22-5.99h.93v5.99h1.25v1.04h-1.25v2.21h-1.13ZM591.58,449.77v-4.17l-2.9,4.17h2.9Z"></path>
        <path class="cls-13" d="M595.2,444.99v-1.09h5.99v.88c-.59.63-1.17,1.46-1.75,2.5-.58,1.04-1.03,2.11-1.34,3.2-.23.77-.37,1.62-.43,2.54h-1.17c.01-.73.16-1.61.43-2.64s.67-2.02,1.18-2.98c.51-.96,1.05-1.76,1.63-2.42h-4.53Z"></path>
        <path class="cls-13" d="M608.27,451.94v1.09h-6.11c0-.27.04-.54.13-.79.16-.42.4-.83.75-1.23s.84-.87,1.49-1.4c1-.82,1.68-1.48,2.04-1.96s.53-.94.53-1.37-.16-.83-.48-1.14c-.32-.31-.74-.46-1.26-.46-.55,0-.98.16-1.31.49-.33.33-.49.78-.5,1.36l-1.17-.12c.08-.87.38-1.53.9-1.99s1.22-.68,2.1-.68,1.59.25,2.11.74c.52.49.78,1.1.78,1.83,0,.37-.08.73-.23,1.09s-.4.73-.75,1.13c-.35.4-.93.94-1.75,1.63-.68.57-1.12.96-1.31,1.16s-.35.41-.48.62h4.54Z"></path>
        <path class="cls-13" d="M609.86,447.06l-.32-1.76v-1.51h1.29v1.51l-.28,1.76h-.69ZM611.95,447.06l-.31-1.76v-1.51h1.29v1.51l-.3,1.76h-.68Z"></path>
      </g>
      <path class="cls-13" d="M615.12,455.75h-.81c1.26-2.02,1.89-4.04,1.89-6.06,0-.79-.09-1.58-.27-2.35-.14-.63-.34-1.24-.6-1.82-.16-.38-.5-1.01-1.02-1.89h.81c.79,1.05,1.38,2.12,1.75,3.18.32.92.49,1.88.49,2.88,0,1.14-.22,2.23-.65,3.29-.44,1.06-.96,1.98-1.59,2.78Z"></path>
      <path class="cls-11" d="M521.78,457.87h48.4M193.02,710.94v-35.89"></path>
      <polygon class="cls-16" points="196.15 708.8 193.02 720.49 189.89 708.8 196.15 708.8"></polygon>
      <polygon class="cls-16" points="196.02 677.18 192.89 665.5 189.75 677.18 196.02 677.18"></polygon>
      <g>
        <path class="cls-13" d="M188.06,693.92v1.13h-7.23c.26.27.52.63.78,1.08.26.44.46.84.59,1.2h-1.1c-.3-.63-.66-1.19-1.08-1.67-.42-.47-.84-.81-1.24-1.01v-.73h9.29Z"></path>
        <path class="cls-13" d="M180.03,690.94h-1.09v-5.99h.88c.63.59,1.46,1.17,2.5,1.75,1.04.58,2.11,1.03,3.2,1.34.77.23,1.62.37,2.54.43v1.17c-.73-.01-1.61-.16-2.64-.43s-2.02-.67-2.98-1.18c-.96-.51-1.76-1.05-2.42-1.63v4.53Z"></path>
      </g>
      <g>
        <path class="cls-13" d="M482.9,783.13h-1.13v-7.23c-.27.26-.63.52-1.08.78-.44.26-.84.46-1.2.59v-1.1c.63-.3,1.19-.66,1.67-1.08.47-.42.81-.84,1.01-1.24h.73v9.29Z"></path>
        <path class="cls-13" d="M487.55,778.11c-.47-.17-.82-.42-1.05-.74-.23-.32-.34-.7-.34-1.15,0-.67.24-1.24.73-1.7.48-.46,1.13-.69,1.93-.69s1.46.23,1.95.7c.49.47.74,1.04.74,1.71,0,.43-.11.8-.34,1.12-.22.32-.57.56-1.02.73.57.19,1,.48,1.3.9.3.41.44.9.44,1.48,0,.79-.28,1.46-.84,1.99-.56.54-1.29.81-2.21.81s-1.65-.27-2.21-.81c-.56-.54-.84-1.21-.84-2.02,0-.6.15-1.1.46-1.51.31-.41.74-.68,1.3-.83ZM486.96,780.46c0,.32.08.64.23.94s.38.54.68.7c.3.17.63.25.98.25.54,0,.99-.17,1.34-.52.35-.35.53-.79.53-1.33s-.18-1-.55-1.36c-.36-.36-.82-.54-1.37-.54s-.98.18-1.33.53c-.35.35-.53.79-.53,1.33ZM487.33,776.19c0,.44.14.79.42,1.07.28.28.65.42,1.1.42s.8-.14,1.08-.41c.28-.28.42-.61.42-1.01s-.14-.77-.43-1.05c-.29-.28-.65-.43-1.08-.43s-.79.14-1.08.42c-.29.28-.43.61-.43,1Z"></path>
        <path class="cls-13" d="M492.99,778.56c0-1.09.11-1.97.34-2.64.22-.67.56-1.18,1-1.54.44-.36,1-.54,1.67-.54.5,0,.93.1,1.31.3.38.2.68.49.93.86s.44.83.57,1.38.21,1.27.21,2.19c0,1.08-.11,1.96-.33,2.63-.22.67-.56,1.18-1,1.55-.44.36-1,.54-1.68.54-.89,0-1.59-.32-2.1-.96-.61-.77-.92-2.02-.92-3.76ZM494.16,778.56c0,1.52.18,2.53.53,3.03.36.5.79.75,1.31.75s.96-.25,1.32-.76c.36-.5.53-1.51.53-3.03s-.18-2.53-.53-3.03c-.36-.5-.8-.75-1.33-.75s-.94.22-1.25.66c-.39.56-.59,1.6-.59,3.12Z"></path>
        <path class="cls-13" d="M506.25,785.84c-.63-.79-1.16-1.72-1.59-2.78-.43-1.06-.65-2.16-.65-3.29,0-1,.16-1.96.49-2.88.38-1.06.96-2.12,1.75-3.18h.81c-.51.87-.84,1.5-1.01,1.87-.26.58-.46,1.19-.61,1.82-.18.79-.27,1.58-.27,2.37,0,2.02.63,4.04,1.89,6.06h-.81Z"></path>
        <path class="cls-13" d="M508.14,775.09v-1.09h5.99v.88c-.59.63-1.17,1.46-1.75,2.5-.58,1.04-1.03,2.11-1.34,3.2-.23.77-.37,1.62-.43,2.54h-1.17c.01-.73.16-1.61.43-2.64s.67-2.02,1.18-2.98c.51-.96,1.05-1.76,1.63-2.42h-4.53Z"></path>
        <path class="cls-13" d="M515.88,783.13v-1.29h1.29v1.29h-1.29Z"></path>
        <path class="cls-13" d="M518.84,778.56c0-1.09.11-1.97.34-2.64.22-.67.56-1.18,1-1.54.44-.36,1-.54,1.67-.54.5,0,.93.1,1.31.3.38.2.68.49.93.86s.44.83.57,1.38.21,1.27.21,2.19c0,1.08-.11,1.96-.33,2.63-.22.67-.56,1.18-1,1.55-.44.36-1,.54-1.68.54-.89,0-1.59-.32-2.1-.96-.61-.77-.92-2.02-.92-3.76ZM520,778.56c0,1.52.18,2.53.53,3.03.36.5.79.75,1.31.75s.96-.25,1.32-.76c.36-.5.53-1.51.53-3.03s-.18-2.53-.53-3.03c-.36-.5-.8-.75-1.33-.75s-.94.22-1.25.66c-.39.56-.59,1.6-.59,3.12Z"></path>
        <path class="cls-13" d="M527.77,778.11c-.47-.17-.82-.42-1.05-.74-.23-.32-.34-.7-.34-1.15,0-.67.24-1.24.73-1.7.48-.46,1.13-.69,1.93-.69s1.46.23,1.95.7c.49.47.74,1.04.74,1.71,0,.43-.11.8-.34,1.12-.22.32-.57.56-1.02.73.57.19,1,.48,1.3.9.3.41.44.9.44,1.48,0,.79-.28,1.46-.84,1.99-.56.54-1.29.81-2.21.81s-1.65-.27-2.21-.81c-.56-.54-.84-1.21-.84-2.02,0-.6.15-1.1.46-1.51.31-.41.74-.68,1.3-.83ZM527.18,780.46c0,.32.08.64.23.94s.38.54.68.7c.3.17.63.25.98.25.54,0,.99-.17,1.34-.52.35-.35.53-.79.53-1.33s-.18-1-.55-1.36c-.36-.36-.82-.54-1.37-.54s-.98.18-1.33.53c-.35.35-.53.79-.53,1.33ZM527.54,776.19c0,.44.14.79.42,1.07.28.28.65.42,1.1.42s.8-.14,1.08-.41c.28-.28.42-.61.42-1.01s-.14-.77-.43-1.05c-.29-.28-.65-.43-1.08-.43s-.79.14-1.08.42c-.29.28-.43.61-.43,1Z"></path>
        <path class="cls-13" d="M533.28,775.09v-1.09h5.99v.88c-.59.63-1.17,1.46-1.75,2.5-.58,1.04-1.03,2.11-1.34,3.2-.23.77-.37,1.62-.43,2.54h-1.17c.01-.73.16-1.61.43-2.64s.67-2.02,1.18-2.98c.51-.96,1.05-1.76,1.63-2.42h-4.53Z"></path>
        <path class="cls-13" d="M540.76,777.15l-.32-1.76v-1.51h1.29v1.51l-.28,1.76h-.69ZM542.85,777.15l-.31-1.76v-1.51h1.29v1.51l-.3,1.76h-.68Z"></path>
      </g>
      <path class="cls-13" d="M545.99,785.84h-.81c1.26-2.02,1.89-4.04,1.89-6.06,0-.79-.09-1.58-.27-2.35-.14-.63-.34-1.24-.6-1.82-.16-.38-.5-1.01-1.02-1.89h.81c.79,1.05,1.38,2.12,1.75,3.18.32.92.49,1.88.49,2.88,0,1.14-.22,2.23-.65,3.29-.44,1.06-.96,1.98-1.59,2.78Z"></path>
      <line class="cls-10" x1="786.04" y1="787.98" x2="217" y2="787.98"></line>
      <polygon class="cls-16" points="783.91 784.85 795.59 787.98 783.91 791.11 783.91 784.85"></polygon>
      <polygon class="cls-16" points="219.14 784.85 207.45 787.98 219.14 791.11 219.14 784.85"></polygon>
      <path class="cls-16" d="M541.65,743.74v-4.86l-4.43-6.61h1.83l2.27,3.47c.41.65.8,1.3,1.17,1.94.35-.6.78-1.28,1.28-2.02l2.22-3.38h1.77l-4.59,6.61v4.86h-1.53Z"></path>
      <line class="cls-9" x1="530.76" y1="759.66" x2="530.09" y2="117.11"></line>
      <line class="cls-11" x1="509.64" y1="756.93" x2="521.21" y2="756.93"></line>
      <polygon class="cls-16" points="511.77 760.06 500.09 756.93 511.77 753.8 511.77 760.06"></polygon>
      <polygon class="cls-16" points="519.08 759.93 530.76 756.8 519.08 753.67 519.08 759.93"></polygon>
      <g>
        <path class="cls-13" d="M556.36,746.96c-.47-.17-.82-.42-1.05-.74-.23-.32-.34-.7-.34-1.15,0-.67.24-1.24.73-1.7.48-.46,1.13-.69,1.93-.69s1.46.23,1.95.7c.49.47.74,1.04.74,1.71,0,.43-.11.8-.34,1.12-.22.32-.57.56-1.02.73.57.19,1,.48,1.3.9.3.41.44.9.44,1.48,0,.79-.28,1.46-.84,1.99-.56.54-1.29.81-2.21.81s-1.65-.27-2.21-.81c-.56-.54-.84-1.21-.84-2.02,0-.6.15-1.1.46-1.51.31-.41.74-.68,1.3-.83ZM555.76,749.3c0,.32.08.64.23.94s.38.54.68.7c.3.17.63.25.98.25.54,0,.99-.17,1.34-.52.35-.35.53-.79.53-1.33s-.18-1-.55-1.36c-.36-.36-.82-.54-1.37-.54s-.98.18-1.33.53c-.35.35-.53.79-.53,1.33ZM556.13,745.03c0,.44.14.79.42,1.07.28.28.65.42,1.1.42s.8-.14,1.08-.41c.28-.28.42-.61.42-1.01s-.14-.77-.43-1.05c-.29-.28-.65-.43-1.08-.43s-.79.14-1.08.42c-.29.28-.43.61-.43,1Z"></path>
        <path class="cls-13" d="M562.43,751.97v-1.29h1.29v1.29h-1.29Z"></path>
        <path class="cls-13" d="M565.55,749.83l1.09-.1c.09.51.27.89.53,1.12.26.23.6.35,1,.35.35,0,.66-.08.92-.24.26-.16.48-.37.65-.64.17-.27.31-.63.42-1.08s.17-.92.17-1.39c0-.05,0-.13,0-.23-.23.36-.54.66-.93.88-.39.23-.82.34-1.28.34-.77,0-1.41-.28-1.94-.83-.53-.55-.79-1.29-.79-2.19s.28-1.69.83-2.26c.55-.57,1.25-.86,2.08-.86.6,0,1.15.16,1.65.49.5.32.88.79,1.13,1.38.26.6.39,1.47.39,2.6s-.13,2.12-.38,2.82c-.26.7-.64,1.23-1.14,1.6-.51.37-1.1.55-1.78.55-.72,0-1.31-.2-1.77-.6-.46-.4-.73-.97-.83-1.69ZM570.2,745.75c0-.65-.17-1.17-.52-1.55-.35-.38-.76-.57-1.25-.57s-.94.21-1.32.62c-.38.41-.56.95-.56,1.6,0,.59.18,1.07.53,1.44s.79.55,1.31.55.96-.18,1.3-.55c.34-.37.51-.88.51-1.53Z"></path>
        <path class="cls-13" d="M578.46,744.99l-1.13.09c-.1-.45-.24-.77-.43-.97-.31-.32-.69-.49-1.13-.49-.36,0-.68.1-.95.3-.36.26-.64.64-.84,1.14-.21.5-.31,1.21-.32,2.14.27-.42.61-.73,1-.93.4-.2.81-.3,1.24-.3.76,0,1.4.28,1.93.84.53.56.8,1.28.8,2.16,0,.58-.13,1.12-.38,1.62-.25.5-.59.88-1.03,1.15-.44.26-.93.4-1.49.4-.95,0-1.72-.35-2.31-1.04-.6-.7-.9-1.84-.9-3.44,0-1.79.33-3.09.99-3.9.58-.71,1.35-1.06,2.33-1.06.73,0,1.32.2,1.79.61s.74.97.84,1.69ZM573.82,748.98c0,.39.08.77.25,1.12.17.36.4.63.7.82.3.19.61.28.94.28.48,0,.89-.19,1.24-.58.34-.39.52-.91.52-1.58s-.17-1.14-.51-1.51c-.34-.37-.77-.55-1.29-.55s-.95.18-1.31.55c-.36.37-.54.85-.54,1.45Z"></path>
      </g>
      <line class="cls-11" x1="530.96" y1="756.93" x2="579.36" y2="756.93"></line>
      <path class="cls-16" d="M539.84,128.22v-4.86l-4.43-6.61h1.83l2.27,3.47c.41.65.8,1.3,1.17,1.94.35-.6.78-1.28,1.28-2.02l2.22-3.38h1.77l-4.59,6.61v4.86h-1.53Z"></path>
      <line class="cls-8" x1="500.09" y1="95.48" x2="500.09" y2="759.66"></line>
      <polyline class="cls-3" points="785.26 698.74 756.81 711.52 710.34 711.52"></polyline>
      <polygon class="cls-13" points="782.03 696.76 793.97 694.83 784.6 702.47 782.03 696.76"></polygon>
      <polyline class="cls-3" points="217.49 700.64 245.94 713.42 292.41 713.42"></polyline>
      <polygon class="cls-13" points="218.15 704.37 208.77 696.73 220.72 698.66 218.15 704.37"></polygon>
      <g>
        <path class="cls-13" d="M863.27,745.37v-9.25h4.1c.82,0,1.45.08,1.88.25s.77.46,1.03.88c.26.42.38.89.38,1.39,0,.66-.21,1.21-.64,1.66-.42.45-1.08.74-1.97.86.32.16.57.31.74.46.36.33.7.74,1.02,1.23l1.61,2.52h-1.54l-1.22-1.92c-.36-.55-.65-.98-.88-1.27-.23-.29-.44-.5-.62-.62-.18-.12-.37-.2-.56-.25-.14-.03-.37-.04-.68-.04h-1.42v4.11h-1.22ZM864.49,740.2h2.63c.56,0,1-.06,1.31-.17.32-.12.55-.3.72-.55.16-.25.25-.53.25-.83,0-.44-.16-.8-.48-1.08-.32-.28-.82-.42-1.5-.42h-2.93v3.06Z"></path>
        <path class="cls-13" d="M878.09,744.28v1.09h-6.11c0-.27.04-.54.13-.79.16-.42.4-.83.75-1.23s.84-.87,1.49-1.4c1-.82,1.68-1.48,2.04-1.96s.53-.94.53-1.37-.16-.83-.48-1.14c-.32-.31-.74-.46-1.26-.46-.55,0-.98.16-1.31.49-.33.33-.49.78-.5,1.36l-1.17-.12c.08-.87.38-1.53.9-1.99s1.22-.68,2.1-.68,1.59.25,2.11.74c.52.49.78,1.1.78,1.83,0,.37-.08.73-.23,1.09s-.4.73-.75,1.13c-.35.4-.93.94-1.75,1.63-.68.57-1.12.96-1.31,1.16s-.35.41-.48.62h4.54Z"></path>
      </g>
      <polyline class="cls-3" points="803.36 726.13 833.05 749.68 879.52 749.68"></polyline>
      <polygon class="cls-13" points="803.09 729.91 795.88 720.19 806.98 725 803.09 729.91"></polygon>
      <line class="cls-10" x1="295.69" y1="257.66" x2="295.69" y2="140.26"></line>
      <polygon class="cls-16" points="298.69 255.53 295.56 267.21 292.43 255.53 298.69 255.53"></polygon>
      <polygon class="cls-16" points="298.69 142.39 295.56 130.71 292.43 142.39 298.69 142.39"></polygon>
      <g>
        <path class="cls-13" d="M556.54,213.68l.23,1.11-7.09,1.45c.31.21.64.51.98.9.34.38.62.73.81,1.05l-1.08.22c-.42-.56-.88-1.03-1.4-1.41-.51-.38-.98-.63-1.41-.74l-.15-.72,9.1-1.86Z"></path>
        <path class="cls-13" d="M550.54,211.3l-1.27.26-.26-1.27,1.27-.26.26,1.27ZM555.83,210.21l-1.27.26-.26-1.27,1.27-.26.26,1.27Z"></path>
      </g>
      <path class="cls-13" d="M547.22,202.94l.31,1.09c-.42.19-.71.39-.87.62-.26.37-.34.77-.25,1.21.07.36.24.65.49.87.33.3.76.5,1.29.6.53.1,1.25.06,2.16-.11-.46-.18-.83-.45-1.11-.8-.28-.35-.46-.73-.55-1.16-.15-.74,0-1.43.43-2.06.44-.63,1.09-1.04,1.96-1.21.57-.12,1.12-.1,1.66.04.54.15.98.4,1.33.78s.58.84.69,1.38c.19.93,0,1.75-.56,2.48-.56.73-1.63,1.25-3.19,1.57-1.75.36-3.09.3-4.02-.19-.81-.42-1.31-1.11-1.5-2.07-.15-.71-.07-1.34.24-1.88.31-.54.8-.92,1.49-1.16ZM552.05,206.69c.38-.08.73-.24,1.05-.47.32-.23.54-.52.66-.85.12-.33.15-.66.09-.98-.1-.47-.37-.83-.82-1.09-.45-.26-1-.32-1.65-.19-.63.13-1.09.4-1.38.8-.29.41-.39.87-.28,1.37.1.5.37.89.8,1.17.43.28.94.35,1.53.24Z"></path>
      <g>
        <path class="cls-13" d="M395.64,199.35l-9.2.91-.4-4.08c-.08-.82-.06-1.45.06-1.9.12-.44.38-.81.78-1.11.39-.3.84-.47,1.35-.52.65-.06,1.22.09,1.71.47.49.38.84,1,1.05,1.87.12-.34.25-.6.39-.78.29-.39.67-.77,1.12-1.13l2.35-1.85.15,1.53-1.79,1.41c-.52.41-.91.75-1.18,1-.27.26-.45.49-.55.68-.1.19-.16.39-.19.58-.02.14,0,.37.02.68l.14,1.41,4.09-.4.12,1.22ZM390.38,198.64l-.26-2.62c-.05-.56-.16-.99-.3-1.29-.15-.3-.35-.52-.62-.66-.27-.14-.55-.19-.85-.16-.44.04-.78.24-1.03.58-.25.34-.34.86-.27,1.54l.29,2.91,3.04-.3Z"></path>
        <path class="cls-13" d="M393.1,184.71l1.09-.11.6,6.08c-.27.03-.54.02-.8-.06-.43-.11-.86-.32-1.3-.62-.44-.3-.95-.75-1.54-1.34-.92-.92-1.63-1.53-2.15-1.84-.51-.31-.98-.44-1.41-.39-.45.04-.81.24-1.09.59-.28.35-.39.78-.34,1.3.05.54.26.96.62,1.26.36.29.83.42,1.4.36v1.17c-.88,0-1.57-.23-2.07-.7-.51-.47-.8-1.15-.89-2.02-.09-.88.09-1.61.53-2.17.44-.56,1.02-.88,1.74-.95.37-.04.74,0,1.11.12.37.12.77.33,1.2.64.43.31,1.02.84,1.79,1.58.64.62,1.07,1.02,1.29,1.19.22.17.44.31.66.42l-.45-4.51Z"></path>
        <path class="cls-13" d="M392.39,177.56l1.09-.11.6,6.08c-.27.03-.54.02-.8-.05-.43-.11-.86-.32-1.3-.62-.44-.3-.95-.75-1.54-1.34-.92-.92-1.63-1.53-2.15-1.84-.51-.3-.98-.43-1.41-.39-.45.04-.81.24-1.08.59-.28.35-.39.78-.34,1.3.05.54.26.96.62,1.26.36.29.83.41,1.4.36v1.17c-.88,0-1.57-.23-2.07-.7-.51-.47-.8-1.15-.89-2.02-.09-.88.09-1.61.53-2.17.44-.56,1.02-.88,1.74-.95.37-.04.74,0,1.11.12.37.12.77.33,1.2.64.43.31,1.02.84,1.79,1.58.64.62,1.07,1.02,1.29,1.19.22.17.44.31.66.42l-.45-4.51Z"></path>
      </g>
      <path class="cls-13" d="M390.95,176.49l-.22-1.18c.57-.15.98-.39,1.24-.74.26-.35.37-.75.32-1.2-.05-.54-.3-.98-.75-1.32-.45-.34-1.01-.47-1.69-.4-.64.06-1.14.3-1.47.69-.34.4-.48.89-.42,1.48.04.36.15.69.35.96.19.28.43.49.71.63l-.03,1.07-4.81-.42-.45-4.58,1.08-.11.36,3.67,2.52.25c-.44-.51-.69-1.07-.75-1.68-.08-.8.13-1.51.63-2.12.5-.61,1.19-.95,2.07-1.04.83-.08,1.58.09,2.23.51.8.52,1.25,1.29,1.36,2.31.08.84-.08,1.54-.5,2.12s-1.01.94-1.77,1.09Z"></path>
      <g>
        <path class="cls-13" d="M525.56,205.64l-9.22-.65.29-4.09c.06-.82.18-1.44.38-1.86s.51-.74.95-.96c.44-.23.91-.32,1.42-.29.65.05,1.19.3,1.61.75s.66,1.13.72,2.02c.18-.31.35-.55.51-.7.35-.33.79-.64,1.3-.93l2.62-1.43-.11,1.54-2,1.08c-.58.32-1.02.58-1.33.79-.31.21-.53.4-.66.58-.13.17-.23.35-.29.54-.04.14-.07.36-.09.68l-.1,1.42,4.1.29-.09,1.22ZM520.49,204.06l.19-2.62c.04-.56.01-1-.08-1.32s-.26-.58-.5-.76c-.24-.18-.51-.28-.81-.3-.44-.03-.81.1-1.11.4-.3.3-.48.79-.53,1.47l-.21,2.92,3.05.22Z"></path>
        <path class="cls-13" d="M525.52,190.78l1.09.08-.43,6.1c-.27-.01-.53-.07-.78-.19-.4-.18-.79-.46-1.17-.83-.38-.37-.81-.9-1.29-1.58-.75-1.06-1.35-1.78-1.81-2.17-.46-.39-.9-.59-1.33-.62-.45-.03-.84.1-1.17.4-.33.3-.52.71-.55,1.22-.04.54.09.99.4,1.34.3.35.74.55,1.32.59l-.2,1.16c-.86-.14-1.5-.49-1.92-1.04-.42-.55-.6-1.27-.53-2.14.06-.88.36-1.57.89-2.05.53-.48,1.15-.7,1.88-.65.37.03.73.13,1.07.3.35.18.7.45,1.07.83.37.38.87,1,1.5,1.86.52.72.88,1.18,1.07,1.39.19.21.38.38.58.52l.32-4.52Z"></path>
      </g>
      <path class="cls-13" d="M526.03,183.62l1.09.08-.43,6.1c-.27-.01-.53-.07-.78-.19-.41-.18-.8-.46-1.17-.83-.38-.37-.81-.9-1.29-1.58-.75-1.06-1.35-1.78-1.81-2.17-.46-.39-.9-.59-1.33-.62-.45-.03-.84.1-1.17.4-.33.3-.51.71-.55,1.22-.04.54.09.99.4,1.34.3.35.74.55,1.32.59l-.2,1.16c-.86-.14-1.5-.49-1.92-1.04-.42-.55-.6-1.27-.53-2.14.06-.88.36-1.57.88-2.05.53-.48,1.15-.7,1.88-.65.37.03.73.13,1.07.3s.7.45,1.07.83c.37.38.87,1,1.5,1.86.52.72.88,1.18,1.07,1.39.19.21.38.38.58.52l.32-4.52Z"></path>
      <path class="cls-13" d="M524.78,182.32l-.02-1.2c.59-.05,1.04-.22,1.35-.52.31-.3.49-.68.52-1.13.04-.55-.13-1.02-.52-1.43-.38-.41-.92-.63-1.6-.68-.65-.05-1.17.1-1.57.44-.4.34-.62.8-.66,1.39-.03.37.03.7.18,1.01.15.31.34.55.6.74l-.21,1.05-4.67-1.23.32-4.59,1.08.08-.26,3.68,2.44.67c-.35-.58-.5-1.18-.45-1.78.06-.81.38-1.46.98-1.98.6-.51,1.33-.74,2.21-.68.83.06,1.54.35,2.11.88.71.64,1.02,1.48.95,2.5-.06.84-.34,1.51-.85,2-.51.5-1.15.76-1.93.78Z"></path>
      <line class="cls-11" x1="583.1" y1="151.83" x2="583.1" y2="140.26"></line>
      <polygon class="cls-16" points="586.24 149.7 583.1 161.38 579.97 149.7 586.24 149.7"></polygon>
      <polygon class="cls-16" points="586.1 142.39 582.97 130.71 579.84 142.39 586.1 142.39"></polygon>
      <line class="cls-11" x1="583.1" y1="131.01" x2="583.1" y2="82.6"></line>
      <g>
        <path class="cls-13" d="M576.01,107.42l-.1-1.09c.51-.09.89-.27,1.12-.53.23-.26.35-.59.35-1,0-.35-.08-.65-.24-.92-.16-.26-.37-.48-.64-.65-.27-.17-.63-.31-1.08-.42-.45-.11-.92-.17-1.39-.17-.05,0-.13,0-.23,0,.36.23.66.54.88.93.23.39.34.82.34,1.28,0,.77-.28,1.41-.83,1.94-.55.53-1.29.79-2.19.79s-1.69-.28-2.26-.83c-.57-.55-.86-1.25-.86-2.08,0-.6.16-1.15.49-1.65.32-.5.79-.88,1.38-1.14.6-.26,1.47-.39,2.6-.39s2.12.13,2.82.38,1.23.64,1.6,1.15c.37.51.55,1.1.55,1.78,0,.72-.2,1.31-.6,1.77-.4.46-.97.73-1.69.83ZM571.92,102.77c-.65,0-1.17.17-1.55.52-.38.35-.57.76-.57,1.25s.21.94.62,1.32c.41.37.95.56,1.6.56.59,0,1.07-.18,1.44-.53.37-.36.55-.79.55-1.32s-.18-.96-.55-1.3c-.37-.34-.88-.51-1.53-.51Z"></path>
        <path class="cls-13" d="M578.14,99.77h-1.29v-1.29h1.29v1.29Z"></path>
        <path class="cls-13" d="M578.14,92.54v1.14h-7.23c.26.27.52.63.78,1.08.26.44.46.84.59,1.2h-1.1c-.3-.63-.66-1.19-1.08-1.67s-.84-.81-1.24-1.01v-.73h9.29Z"></path>
      </g>
      <path class="cls-13" d="M570.11,89.56h-1.09v-5.99h.88c.63.59,1.46,1.17,2.5,1.75,1.04.58,2.11,1.02,3.2,1.34.77.23,1.62.37,2.54.44v1.17c-.73-.01-1.61-.16-2.64-.43-1.03-.27-2.02-.67-2.98-1.18-.96-.51-1.76-1.05-2.42-1.63v4.53Z"></path>
    </g>
  </g>
  <g id="Layer_2" data-name="Layer 2">
    <g id="Watermark">
      <rect class="cls-12" x="438.45" y="671.81" width="123.09" height="46.3"></rect>
      <rect class="cls-17" x="444.86" y="679.65" width="62.89" height="30.62"></rect>
      <rect class="cls-17" x="507.75" y="679.65" width="47.39" height="30.62"></rect>
      <path class="cls-14" d="M466.48,685.75l-2.79,18.92h-2.69l-1.55-11-1.53,11h-2.74l-2.8-18.92h2.51l1.74,14.14,1.79-14.17h2l1.77,14.17,1.81-14.14h2.48Z"></path>
      <path class="cls-14" d="M467.93,704.67v-18.92h2.53v18.92h-2.53Z"></path>
      <path class="cls-14" d="M472.83,685.75h5c1.93,0,2.9,1.08,2.9,3.24v4.66c0,1.65-.51,2.7-1.51,3.14l1.77,7.88h-2.4l-1.66-7.64h-1.53v7.64h-2.53l-.04-18.92ZM475.36,694.87h1.64c.76,0,1.14-.46,1.14-1.37v-4.09c0-.91-.38-1.37-1.14-1.37h-1.66l.02,6.83Z"></path>
      <path class="cls-14" d="M486.82,688.04v16.63h-2.53v-16.63h-2.42v-2.29h7.38v2.29h-2.43Z"></path>
      <path class="cls-14" d="M496.34,704.67v-8.59h-3.11v8.59h-2.53v-18.92h2.53v8h3.11v-8h2.53v18.92h-2.53Z"></path>
      <path class="cls-14" d="M516.31,685.75h5c1.93,0,2.9,1.08,2.89,3.24v4.66c0,1.65-.5,2.7-1.5,3.14l1.77,7.88h-2.47l-1.66-7.64h-1.53v7.64h-2.53l.03-18.92ZM518.84,694.87h1.66c.76,0,1.13-.46,1.13-1.37v-4.09c0-.91-.37-1.37-1.13-1.37h-1.66v6.83Z"></path>
      <path class="cls-14" d="M528.67,704.67h-2.53v-15.68c0-2.16,1-3.24,3-3.24h1.9c2,0,3,1.08,3,3.24v15.68h-2.53v-6.93h-2.9l.06,6.93ZM531.57,695.45v-6.3c.06-.55-.33-1.05-.88-1.11-.08,0-.16,0-.23,0h-.68c-.55-.06-1.05.33-1.11.88,0,.08,0,.16,0,.23v6.3h2.9Z"></path>
      <path class="cls-14" d="M536.34,704.67v-18.92h2.53v18.92h-2.53Z"></path>
      <path class="cls-14" d="M547.24,704.67h-6v-18.92h2.53v16.63h3.47v2.29Z"></path>
    </g>
  </g>
</svg>
