<?xml version="1.0" encoding="UTF-8"?>
<svg xmlns="http://www.w3.org/2000/svg" xmlns:xlink="http://www.w3.org/1999/xlink" viewBox="0 0 1000 800">
  <defs>
    <style>
      .cls-1, .cls-2, .cls-3, .cls-4, .cls-5, .cls-6 {
        fill: none;
      }

      .cls-1, .cls-3, .cls-4, .cls-5 {
        stroke: #000;
      }

      .cls-1, .cls-3, .cls-4, .cls-5, .cls-6 {
        stroke-linecap: round;
      }

      .cls-1, .cls-3, .cls-4, .cls-6 {
        stroke-linejoin: round;
      }

      .cls-7 {
        clip-path: url(#clippath);
      }

      .cls-2, .cls-8, .cls-9, .cls-5, .cls-10, .cls-11 {
        stroke-width: 0px;
      }

      .cls-3 {
        stroke-width: 2px;
      }

      .cls-12 {
        clip-path: url(#clippath-1);
      }

      .cls-13 {
        clip-path: url(#clippath-4);
      }

      .cls-14 {
        clip-path: url(#clippath-3);
      }

      .cls-15 {
        clip-path: url(#clippath-2);
      }

      .cls-8 {
        fill: #000;
      }

      .cls-9, .cls-16 {
        fill: #f0f0f0;
      }

      .cls-4 {
        stroke-width: 1.65px;
      }

      .cls-5, .cls-16 {
        stroke-miterlimit: 10;
      }

      .cls-6 {
        stroke: #231f20;
      }

      .cls-10 {
        fill: #ccc;
      }

      .cls-16 {
        stroke: #ccc;
      }

      .cls-11 {
        fill: #efefef;
      }
    </style>
    <clipPath id="clippath">
      <rect class="cls-2" x="201.01" y="1.5" width="619.97" height="797"></rect>
    </clipPath>
    <clipPath id="clippath-1">
      <rect class="cls-2" x="201.01" y="1.5" width="619.97" height="797"></rect>
    </clipPath>
    <clipPath id="clippath-2">
      <rect class="cls-2" x="201.01" y="1.5" width="619.97" height="797"></rect>
    </clipPath>
    <clipPath id="clippath-3">
      <rect class="cls-2" x="201.01" y="1.5" width="619.97" height="797"></rect>
    </clipPath>
    <clipPath id="clippath-4">
      <rect class="cls-2" x="201.01" y="1.5" width="619.97" height="797"></rect>
    </clipPath>
  </defs>
  <g id="Layer_1" data-name="Layer 1">
    <g>
      <g class="cls-7">
        <path class="cls-11" d="M450.51,657.34c16.95-1.7,29.87-15.96,29.87-33h-.02s0-352.6,0-352.6h.02c0-15.82-11.16-29.44-26.66-32.54h-.02l-78.74-15.73h.03c-6.2-1.25-10.66-6.69-10.66-13.02h-.02s0-80.14,0-80.14h.02c0-8.4,6.26-15.46,14.59-16.47h0c9.97-1.21,19.99-1.85,30.03-1.92v.02s10.4-.02,10.4-.02l10.41.1,10.41.2,10.41.32,10.41.4,10.41.55h0c15.3.85,30.5,3.04,45.43,6.52v-.03c16.96,3.96,29.87,17.72,32.73,34.89l-.03.03,9.96,59.71h0c3.2,19.19,19.8,33.25,39.25,33.25h-.01,14.28c19.45,0,36.05-14.06,39.25-33.25h0s15.25-91.61,15.25-91.61l.03-.02c1.07-6.4,6.6-11.08,13.08-11.08v.02s55.05,0,55.05,0v-.02c7.34,0,13.28,5.94,13.28,13.26h0v64.37h.02c0,47.41-33.47,88.23-79.96,97.53h-.02s-122.19,24.43-122.19,24.43v-.02c-15.49,3.1-26.65,16.71-26.65,32.52h0v280.36h0c0,17.03,12.91,31.29,29.87,32.99h0s242.69,24.27,242.69,24.27v-.02c3.4.34,5.98,3.19,5.98,6.6h-.02v13.91h.02c0,3.66-2.97,6.63-6.64,6.63H208.46h.01c-3.67,0-6.64-2.97-6.64-6.64h0s0-13.88,0-13.88h0c0-3.42,2.59-6.28,5.98-6.62"></path>
        <path class="cls-3" d="M450.51,657.34c16.95-1.7,29.87-15.96,29.87-33h-.02s0-352.6,0-352.6h.02c0-15.82-11.16-29.44-26.66-32.54h-.02l-78.74-15.73h.03c-6.2-1.25-10.66-6.69-10.66-13.02h-.02s0-80.14,0-80.14h.02c0-8.4,6.26-15.46,14.59-16.47h0c9.97-1.21,19.99-1.85,30.03-1.92v.02s10.4-.02,10.4-.02l10.41.1,10.41.2,10.41.32,10.41.4,10.41.55h0c15.3.85,30.5,3.04,45.43,6.52v-.03c16.96,3.96,29.87,17.72,32.73,34.89l-.03.03,9.96,59.71h0c3.2,19.19,19.8,33.25,39.25,33.25h-.01,14.28c19.45,0,36.05-14.06,39.25-33.25h0s15.25-91.61,15.25-91.61l.03-.02c1.07-6.4,6.6-11.08,13.08-11.08v.02s55.05,0,55.05,0v-.02c7.34,0,13.28,5.94,13.28,13.26h0v64.37h.02c0,47.41-33.47,88.23-79.96,97.53h-.02s-122.19,24.43-122.19,24.43v-.02c-15.49,3.1-26.65,16.71-26.65,32.52h0v280.36h0c0,17.03,12.91,31.29,29.87,32.99h0s242.69,24.27,242.69,24.27v-.02c3.4.34,5.98,3.19,5.98,6.6h-.02v13.91h.02c0,3.66-2.97,6.63-6.64,6.63H208.46h.01c-3.67,0-6.64-2.97-6.64-6.64h0s0-13.88,0-13.88h0c0-3.42,2.59-6.28,5.98-6.62"></path>
      </g>
      <path class="cls-11" d="M450.49,657.33l-242.69,24.28,242.69-24.28Z"></path>
      <path class="cls-4" d="M450.49,657.33l-242.69,24.28,242.69-24.28Z"></path>
      <path class="cls-8" d="M309.41,139.73v4.47h5.17v-4.47h1.4v10.69h-1.4v-5.01h-5.17v5.01h-1.38v-10.69h1.38Z"></path>
      <line class="cls-1" x1="500.26" y1="741.89" x2="500.26" y2="665.47"></line>
      <line class="cls-1" x1="500.26" y1="653.6" x2="500.26" y2="641.73"></line>
      <line class="cls-1" x1="500.26" y1="629.86" x2="500.26" y2="570.53"></line>
      <line class="cls-1" x1="500.26" y1="558.66" x2="500.26" y2="546.79"></line>
      <line class="cls-1" x1="500.26" y1="534.92" x2="500.26" y2="475.59"></line>
      <line class="cls-1" x1="500.26" y1="463.72" x2="500.26" y2="451.85"></line>
      <line class="cls-1" x1="500.26" y1="439.98" x2="500.26" y2="380.65"></line>
      <line class="cls-1" x1="500.26" y1="368.78" x2="500.26" y2="356.91"></line>
      <line class="cls-1" x1="500.26" y1="345.04" x2="500.26" y2="285.71"></line>
      <line class="cls-1" x1="500.26" y1="273.84" x2="500.26" y2="261.97"></line>
      <line class="cls-1" x1="500.26" y1="250.11" x2="500.26" y2="190.77"></line>
      <line class="cls-1" x1="500.26" y1="178.9" x2="500.26" y2="167.03"></line>
      <line class="cls-1" x1="500.26" y1="155.17" x2="500.26" y2="78.77"></line>
      <line class="cls-1" x1="364.3" y1="387.82" x2="396.39" y2="387.82"></line>
      <line class="cls-1" x1="408.26" y1="387.82" x2="420.13" y2="387.82"></line>
      <line class="cls-1" x1="431.99" y1="387.82" x2="491.33" y2="387.82"></line>
      <line class="cls-1" x1="503.2" y1="387.82" x2="515.07" y2="387.82"></line>
      <line class="cls-1" x1="526.93" y1="387.82" x2="586.27" y2="387.82"></line>
      <line class="cls-1" x1="598.14" y1="387.82" x2="610.01" y2="387.82"></line>
      <line class="cls-1" x1="621.9" y1="387.82" x2="681.23" y2="387.82"></line>
      <line class="cls-1" x1="693.1" y1="387.82" x2="704.97" y2="387.82"></line>
      <line class="cls-1" x1="716.84" y1="387.82" x2="748.93" y2="387.82"></line>
      <line class="cls-1" x1="529.75" y1="78.77" x2="529.75" y2="155.16"></line>
      <line class="cls-1" x1="529.75" y1="167.03" x2="529.75" y2="178.9"></line>
      <line class="cls-1" x1="529.75" y1="190.77" x2="529.75" y2="250.11"></line>
      <line class="cls-1" x1="529.75" y1="261.97" x2="529.75" y2="273.84"></line>
      <line class="cls-1" x1="529.75" y1="285.71" x2="529.75" y2="345.04"></line>
      <line class="cls-1" x1="529.75" y1="356.91" x2="529.75" y2="368.78"></line>
      <line class="cls-1" x1="529.75" y1="380.65" x2="529.75" y2="439.98"></line>
      <line class="cls-1" x1="529.75" y1="451.85" x2="529.75" y2="463.72"></line>
      <line class="cls-1" x1="529.75" y1="475.59" x2="529.75" y2="534.92"></line>
      <line class="cls-1" x1="529.75" y1="546.79" x2="529.75" y2="558.66"></line>
      <line class="cls-1" x1="529.75" y1="570.53" x2="529.75" y2="629.86"></line>
      <line class="cls-1" x1="529.75" y1="641.73" x2="529.75" y2="653.6"></line>
      <line class="cls-1" x1="529.75" y1="665.47" x2="529.75" y2="741.89"></line>
      <line class="cls-6" x1="549.51" y1="154.89" x2="662.2" y2="154.89"></line>
      <line class="cls-6" x1="345.26" y1="174.92" x2="766.98" y2="174.92"></line>
      <line class="cls-6" x1="552.84" y1="174.92" x2="552.84" y2="174.92"></line>
      <line class="cls-6" x1="658.86" y1="174.92" x2="658.86" y2="174.92"></line>
      <line class="cls-6" x1="364.3" y1="174.92" x2="364.3" y2="174.92"></line>
      <line class="cls-6" x1="748.93" y1="174.92" x2="748.93" y2="174.92"></line>
      <polygon class="cls-8" points="817.07 682.2 815.51 692.44 818.65 692.44 817.07 682.2"></polygon>
      <polygon class="cls-5" points="817.07 682.2 815.51 692.44 818.65 692.44 817.07 682.2"></polygon>
      <polygon class="cls-8" points="817.07 708.73 818.65 698.52 815.51 698.52 817.07 708.73"></polygon>
      <polygon class="cls-5" points="817.07 708.73 818.65 698.52 815.51 698.52 817.07 708.73"></polygon>
      <g class="cls-12">
        <line class="cls-1" x1="801.99" y1="682.2" x2="820.41" y2="682.2"></line>
        <line class="cls-1" x1="795.34" y1="708.73" x2="820.41" y2="708.73"></line>
      </g>
      <line class="cls-1" x1="817.07" y1="682.2" x2="817.07" y2="708.73"></line>
      <polyline class="cls-1" points="808.76 696.2 810.52 695.13 812.27 695.13 814.03 696.2 814.03 698.3 812.27 699.36 810.52 699.36 808.76 698.3 808.76 696.2 807.01 695.13 805.28 695.13 803.52 696.2 803.52 698.3 805.28 699.36 807.01 699.36 808.76 698.3"></polyline>
      <polygon class="cls-8" points="817.07 320.79 818.65 310.58 815.51 310.58 817.07 320.79"></polygon>
      <polygon class="cls-5" points="817.07 320.79 818.65 310.58 815.51 310.58 817.07 320.79"></polygon>
      <polygon class="cls-8" points="817.07 111.92 815.51 122.13 818.65 122.13 817.07 111.92"></polygon>
      <polygon class="cls-5" points="817.07 111.92 815.51 122.13 818.65 122.13 817.07 111.92"></polygon>
      <g class="cls-15">
        <line class="cls-1" x1="503.57" y1="320.79" x2="820.41" y2="320.79"></line>
        <line class="cls-1" x1="738.97" y1="111.92" x2="820.4" y2="111.92"></line>
      </g>
      <line class="cls-1" x1="817.07" y1="320.79" x2="817.07" y2="111.92"></line>
      <polyline class="cls-1" points="808.76 224.15 808.76 220.98 810.52 219.92 812.27 219.92 814.03 220.98 814.03 223.11 812.27 224.15 807.01 224.15 803.52 222.04 803.52 220.98"></polyline>
      <polyline class="cls-1" points="805.27 217.79 803.52 216.73 803.52 214.6 805.27 213.54 807 213.54 808.76 214.6 808.76 215.67"></polyline>
      <polyline class="cls-1" points="808.76 214.6 810.52 213.54 812.27 213.54 814.03 214.6 814.03 216.73 812.27 217.79"></polyline>
      <polygon class="cls-8" points="321.85 111.92 320.27 122.13 323.41 122.13 321.85 111.92"></polygon>
      <polygon class="cls-5" points="321.85 111.92 320.27 122.13 323.41 122.13 321.85 111.92"></polygon>
      <polygon class="cls-8" points="321.85 174.92 323.41 164.71 320.27 164.71 321.85 174.92"></polygon>
      <polygon class="cls-5" points="321.85 174.92 323.41 164.71 320.27 164.71 321.85 174.92"></polygon>
      <line class="cls-1" x1="677.25" y1="111.92" x2="318.54" y2="111.92"></line>
      <line class="cls-1" x1="341.95" y1="174.92" x2="318.54" y2="174.92"></line>
      <line class="cls-1" x1="321.85" y1="111.92" x2="321.85" y2="174.92"></line>
      <polygon class="cls-8" points="201.84 778.38 212.05 779.94 212.05 776.8 201.84 778.38"></polygon>
      <polygon class="cls-5" points="201.84 778.38 212.05 779.94 212.05 776.8 201.84 778.38"></polygon>
      <polygon class="cls-8" points="798.65 778.38 788.44 776.8 788.44 779.94 798.65 778.38"></polygon>
      <polygon class="cls-5" points="798.65 778.38 788.44 776.8 788.44 779.94 798.65 778.38"></polygon>
      <line class="cls-1" x1="201.84" y1="705.42" x2="201.84" y2="781.69"></line>
      <line class="cls-1" x1="798.65" y1="705.42" x2="798.65" y2="781.69"></line>
      <line class="cls-1" x1="201.84" y1="778.38" x2="798.65" y2="778.38"></line>
      <polygon class="cls-8" points="202.73 684.9 210.69 691.5 212.3 688.81 202.73 684.9"></polygon>
      <polygon class="cls-5" points="202.73 684.9 210.69 691.5 212.3 688.81 202.73 684.9"></polygon>
      <line class="cls-1" x1="202.73" y1="684.9" x2="235.61" y2="704.58"></line>
      <polyline class="cls-1" points="217.04 690.34 222.31 681.22 225.08 682.82 225.1 684.87 224.24 686.38 222.43 687.37 219.69 685.79"></polyline>
      <line class="cls-1" x1="220.6" y1="686.31" x2="220.73" y2="692.46"></line>
      <polyline class="cls-1" points="230.2 687.82 232 686.83 233.83 687.89 233.88 689.94 233.02 691.45 231.21 692.44 229.38 691.38 227.58 692.37 225.82 695.41 229.5 697.53"></polyline>
      <polygon class="cls-8" points="469.35 649.03 463.69 640.37 461.37 642.47 469.35 649.03"></polygon>
      <polygon class="cls-5" points="469.35 649.03 463.69 640.37 461.37 642.47 469.35 649.03"></polygon>
      <line class="cls-1" x1="469.35" y1="649.03" x2="447.2" y2="624.35"></line>
      <polyline class="cls-1" points="451.95 625.09 459.78 618.05 461.91 620.42 461.32 622.37 460.01 623.56 457.98 623.93 455.85 621.56"></polyline>
      <line class="cls-1" x1="456.57" y1="622.35" x2="454.79" y2="628.23"></line>
      <polyline class="cls-1" points="465.25 626.75 467.25 626.38 459.41 633.4"></polyline>
      <line class="cls-1" x1="458.72" y1="632.61" x2="460.13" y2="634.19"></line>
      <polyline class="cls-1" points="462.26 636.56 462.85 634.61 468.06 629.91 470.09 629.54 470.81 630.31 470.22 632.29 464.97 636.98 462.97 637.35 462.26 636.56"></polyline>
      <polygon class="cls-8" points="480.35 561.18 490.56 562.74 490.56 559.6 480.35 561.18"></polygon>
      <polygon class="cls-5" points="480.35 561.18 490.56 562.74 490.56 559.6 480.35 561.18"></polygon>
      <polygon class="cls-8" points="520.13 561.18 509.92 559.6 509.92 562.74 520.13 561.18"></polygon>
      <polygon class="cls-5" points="520.13 561.18 509.92 559.6 509.92 562.74 520.13 561.18"></polygon>
      <line class="cls-1" x1="480.35" y1="561.18" x2="520.13" y2="561.18"></line>
      <polyline class="cls-1" points="501.24 549.36 502.31 547.61 502.31 558.14"></polyline>
      <line class="cls-1" x1="501.24" y1="558.14" x2="503.37" y2="558.14"></line>
      <polyline class="cls-1" points="505.5 549.36 506.56 547.61 508.69 547.61 509.75 549.36 509.75 551.12 508.69 552.87 506.56 552.87 505.5 554.63 505.5 558.14 509.75 558.14"></polyline>
      <polygon class="cls-8" points="500.26 59.78 510.47 61.36 510.47 58.22 500.26 59.78"></polygon>
      <polygon class="cls-5" points="500.26 59.78 510.47 61.36 510.47 58.22 500.26 59.78"></polygon>
      <polygon class="cls-8" points="549.51 59.78 539.3 58.22 539.3 61.36 549.51 59.78"></polygon>
      <polygon class="cls-5" points="549.51 59.78 539.3 58.22 539.3 61.36 549.51 59.78"></polygon>
      <line class="cls-1" x1="500.26" y1="108.61" x2="500.26" y2="56.47"></line>
      <line class="cls-1" x1="549.51" y1="151.58" x2="549.51" y2="56.47"></line>
      <line class="cls-1" x1="500.26" y1="59.78" x2="549.51" y2="59.78"></line>
      <polyline class="cls-1" points="507.35 47.96 508.39 46.23 508.39 56.74"></polyline>
      <line class="cls-1" x1="507.35" y1="56.74" x2="509.45" y2="56.74"></line>
      <polyline class="cls-1" points="515.83 53.23 511.58 53.23 514.77 46.23 514.77 56.74"></polyline>
      <polyline class="cls-1" points="519.02 54.98 519.02 56.74 517.96 58.5"></polyline>
      <polyline class="cls-1" points="524.31 51.47 525.38 53.23 525.38 54.98 524.31 56.74 522.21 56.74 521.15 54.98 521.15 53.23 522.21 51.47 524.31 51.47 525.38 49.72 525.38 47.96 524.31 46.23 522.21 46.23 521.15 47.96 521.15 49.72 522.21 51.47"></polyline>
      <polyline class="cls-1" points="527.5 51.47 530.69 51.47 531.75 53.23 531.75 54.98 530.69 56.74 528.57 56.74 527.5 54.98 527.5 49.72 529.63 46.23 530.69 46.23"></polyline>
      <polygon class="cls-8" points="576.23 111.92 574.65 122.13 577.82 122.13 576.23 111.92"></polygon>
      <polygon class="cls-5" points="576.23 111.92 574.65 122.13 577.82 122.13 576.23 111.92"></polygon>
      <polygon class="cls-8" points="576.23 154.89 577.82 144.68 574.65 144.68 576.23 154.89"></polygon>
      <polygon class="cls-5" points="576.23 154.89 577.82 144.68 574.65 144.68 576.23 154.89"></polygon>
      <line class="cls-1" x1="503.57" y1="111.92" x2="579.55" y2="111.92"></line>
      <line class="cls-1" x1="552.84" y1="154.89" x2="579.55" y2="154.89"></line>
      <line class="cls-1" x1="576.23" y1="111.92" x2="576.23" y2="154.89"></line>
      <polyline class="cls-1" points="564.41 150.94 562.66 149.87 573.19 149.87"></polyline>
      <line class="cls-1" x1="573.19" y1="150.94" x2="573.19" y2="148.81"></line>
      <polyline class="cls-1" points="564.41 146.71 562.66 145.65 562.66 143.52 564.41 142.46 566.17 142.46 567.93 143.52 567.93 145.65 569.68 146.71 573.19 146.71 573.19 142.46"></polyline>
      <polyline class="cls-1" points="571.44 139.27 573.19 139.27 574.95 140.33"></polyline>
      <polyline class="cls-1" points="573.19 136.08 573.19 135.01 569.68 132.89 564.41 132.89 562.66 133.95 562.66 136.08 564.41 137.14 566.17 137.14 567.93 136.08 567.93 132.89"></polyline>
      <polyline class="cls-1" points="567.93 130.79 567.93 127.6 569.68 126.53 571.44 126.53 573.19 127.6 573.19 129.72 571.44 130.79 566.17 130.79 562.66 128.66 562.66 127.6"></polyline>
      <polygon class="cls-8" points="294.13 111.92 292.57 122.13 295.72 122.13 294.13 111.92"></polygon>
      <polygon class="cls-5" points="294.13 111.92 292.57 122.13 295.72 122.13 294.13 111.92"></polygon>
      <polygon class="cls-8" points="294.13 248.52 295.72 238.31 292.57 238.31 294.13 248.52"></polygon>
      <polygon class="cls-5" points="294.13 248.52 295.72 238.31 292.57 238.31 294.13 248.52"></polygon>
      <line class="cls-1" x1="496.94" y1="111.92" x2="290.82" y2="111.92"></line>
      <line class="cls-1" x1="496.94" y1="248.52" x2="290.82" y2="248.52"></line>
      <line class="cls-1" x1="294.13" y1="111.92" x2="294.13" y2="248.52"></line>
      <polyline class="cls-1" points="287.58 193.51 287.58 197.77 280.58 194.58 291.09 194.58"></polyline>
      <polyline class="cls-1" points="282.34 191.39 280.58 190.32 291.09 190.32"></polyline>
      <line class="cls-1" x1="291.09" y1="191.39" x2="291.09" y2="189.26"></line>
      <polyline class="cls-1" points="289.34 186.1 291.09 186.1 292.85 187.16"></polyline>
      <polyline class="cls-1" points="282.34 183.97 280.58 182.9 280.58 180.78 282.34 179.72 284.09 179.72 285.82 180.78 285.82 182.9 287.58 183.97 291.09 183.97 291.09 179.72"></polyline>
      <polyline class="cls-1" points="291.09 176.53 289.34 177.59 282.34 177.59 280.58 176.53 280.58 175.46 282.34 174.4 289.34 174.4 291.09 175.46 291.09 176.53"></polyline>
      <polygon class="cls-8" points="420.4 440.13 430.63 441.72 430.63 438.55 420.4 440.13"></polygon>
      <polygon class="cls-5" points="420.4 440.13 430.63 441.72 430.63 438.55 420.4 440.13"></polygon>
      <polygon class="cls-8" points="500.26 440.13 490.02 438.55 490.02 441.72 500.26 440.13"></polygon>
      <polygon class="cls-5" points="500.26 440.13 490.02 438.55 490.02 441.72 500.26 440.13"></polygon>
      <line class="cls-1" x1="420.4" y1="412.15" x2="420.4" y2="443.45"></line>
      <line class="cls-1" x1="420.4" y1="440.13" x2="500.26" y2="440.13"></line>
      <polyline class="cls-1" points="440.42 428.31 441.49 426.56 443.61 426.56 444.68 428.31 444.68 430.07 443.61 431.83 441.49 431.83 440.42 433.58 440.42 437.09 444.68 437.09"></polyline>
      <polyline class="cls-1" points="446.8 435.34 447.87 437.09 449.99 437.09 451.06 435.34 451.06 431.83 449.99 430.07 446.8 430.07 446.8 426.56 451.06 426.56"></polyline>
      <polyline class="cls-1" points="454.22 435.34 454.22 437.09 453.16 438.85"></polyline>
      <polyline class="cls-1" points="456.35 435.34 457.41 437.09 459.54 437.09 460.6 435.34 460.6 431.83 459.54 430.07 456.35 430.07 456.35 426.56 460.6 426.56"></polyline>
      <polyline class="cls-1" points="463.79 437.09 462.72 435.34 462.72 428.31 463.79 426.56 464.85 426.56 465.91 428.31 465.91 435.34 464.85 437.09 463.79 437.09"></polyline>
      <polygon class="cls-8" points="365.46 124.24 374.39 129.45 375.55 126.51 365.46 124.24"></polygon>
      <polygon class="cls-5" points="365.46 124.24 374.39 129.45 375.55 126.51 365.46 124.24"></polygon>
      <line class="cls-1" x1="365.46" y1="124.24" x2="395.95" y2="136.23"></line>
      <polyline class="cls-1" points="375.47 124.9 379.31 115.11 382.27 116.28 382.62 118.3 381.98 119.93 380.35 121.17 377.38 120.01"></polyline>
      <line class="cls-1" x1="378.37" y1="120.4" x2="379.4" y2="126.46"></line>
      <polyline class="cls-1" points="385.54 126.98 385.88 129.01 387.86 129.77 389.49 128.54 390.78 125.27 390.43 123.25 387.47 122.08 388.75 118.82 392.71 120.38"></polyline>
      <polygon class="cls-8" points="407.71 111.95 406.26 122.18 409.4 122.16 407.71 111.95"></polygon>
      <polygon class="cls-5" points="407.71 111.95 406.26 122.18 409.4 122.16 407.71 111.95"></polygon>
      <line class="cls-1" x1="407.71" y1="111.95" x2="410.73" y2="377.19"></line>
      <polyline class="cls-1" points="405.32 169.78 394.81 169.9 394.76 166.71 396.51 165.62 398.27 165.6 400.03 166.66 400.05 169.83"></polyline>
      <line class="cls-1" x1="400.05" y1="168.76" x2="405.27" y2="165.53"></line>
      <polyline class="cls-1" points="399.9 156.53 401.66 155.44 403.41 155.41 405.17 156.45 405.19 158.58 403.46 159.67 401.71 159.69 399.93 158.65 399.9 156.53 398.15 155.49 396.39 155.49 394.64 156.57 394.66 158.7 396.44 159.74 398.2 159.71 399.93 158.65"></polyline>
      <polyline class="cls-1" points="405.12 152.22 403.39 153.29 396.37 153.38 394.59 152.32 394.59 151.28 396.32 150.2 403.34 150.12 405.12 151.16 405.12 152.22"></polyline>
      <polygon class="cls-8" points="549.46 154.6 539.12 154.8 539.67 157.89 549.46 154.6"></polygon>
      <polygon class="cls-5" points="549.46 154.6 539.12 154.8 539.67 157.89 549.46 154.6"></polygon>
      <line class="cls-1" x1="549.46" y1="154.6" x2="507.01" y2="161.96"></line>
      <polyline class="cls-1" points="507.01 158.87 505.2 148.52 508.34 147.97 509.7 149.5 510 151.24 509.25 153.16 506.12 153.71"></polyline>
      <line class="cls-1" x1="507.15" y1="153.51" x2="511.21" y2="158.16"></line>
      <polyline class="cls-1" points="515.49 148.51 516.25 146.59 518.03 156.97"></polyline>
      <line class="cls-1" x1="516.99" y1="157.14" x2="519.1" y2="156.8"></line>
      <polyline class="cls-1" points="519.69 147.77 520.43 145.87 522.51 145.5 523.87 147.06 524.16 148.79 523.42 150.69 522.36 150.86"></polyline>
      <polyline class="cls-1" points="523.42 150.69 524.76 152.25 525.05 153.98 524.31 155.88 522.23 156.25 520.88 154.7"></polyline>
      <polygon class="cls-8" points="516.57 119.96 512.74 129.55 515.78 130.27 516.57 119.96"></polygon>
      <polygon class="cls-5" points="516.57 119.96 512.74 129.55 515.78 130.27 516.57 119.96"></polygon>
      <polyline class="cls-1" points="516.57 119.96 496.77 205.21 500.43 189.73 494.54 215"></polyline>
      <line class="cls-1" x1="494.54" y1="207.14" x2="494.54" y2="222.83"></line>
      <line class="cls-1" x1="486.71" y1="215" x2="502.41" y2="215"></line>
      <polyline class="cls-1" points="492.76 209.01 482.5 206.61 483.22 203.52 485.17 202.88 486.88 203.28 488.36 204.71 487.62 207.8"></polyline>
      <line class="cls-1" x1="487.87" y1="206.79" x2="493.73" y2="204.86"></line>
      <polyline class="cls-1" points="490.64 194.85 492.59 194.21 494.3 194.6 495.78 196.03 495.29 198.11 493.33 198.73 491.63 198.33 490.17 196.92 490.64 194.85 489.18 193.41 487.47 193.02 485.52 193.66 485.05 195.71 486.51 197.15 488.22 197.54 490.17 196.92"></polyline>
      <polyline class="cls-1" points="496.75 191.91 494.79 192.55 487.94 190.94 486.48 189.51 486.73 188.49 488.66 187.85 495.51 189.43 496.97 190.87 496.75 191.91"></polyline>
      <polygon class="cls-8" points="470.74 113.43 468.61 123.57 471.75 123.74 470.74 113.43"></polygon>
      <polygon class="cls-5" points="470.74 113.43 468.61 123.57 471.75 123.74 470.74 113.43"></polygon>
      <polyline class="cls-1" points="470.74 113.43 465.12 214.75 432.86 184.14 420.4 408.83"></polyline>
      <line class="cls-1" x1="420.4" y1="401" x2="420.4" y2="416.67"></line>
      <line class="cls-1" x1="412.56" y1="408.83" x2="428.26" y2="408.83"></line>
      <polyline class="cls-1" points="464.53 170.54 454.02 169.95 454.2 166.76 456 165.8 457.76 165.9 459.44 167.06 459.26 170.25"></polyline>
      <line class="cls-1" x1="459.34" y1="169.18" x2="464.75" y2="166.29"></line>
      <polyline class="cls-1" points="456.32 159.94 454.64 158.78 454.76 156.65 456.57 155.68 458.32 155.78 460.01 156.95 459.96 158.01"></polyline>
      <polyline class="cls-1" points="460.01 156.95 461.81 155.98 463.57 156.08 465.27 157.24 465.15 159.37 463.34 160.31"></polyline>
      <polyline class="cls-1" points="465.49 152.99 463.69 153.95 456.69 153.58 454.99 152.42 455.04 151.36 456.87 150.39 463.86 150.79 465.57 151.93 465.49 152.99"></polyline>
      <polyline class="cls-1" points="465.79 147.7 463.99 148.66 456.96 148.27 455.28 147.11 455.33 146.07 457.16 145.1 464.16 145.47 465.87 146.64 465.79 147.7"></polyline>
      <polygon class="cls-8" points="410.73 462.04 420.94 463.62 420.94 460.46 410.73 462.04"></polygon>
      <polygon class="cls-5" points="410.73 462.04 420.94 463.62 420.94 460.46 410.73 462.04"></polygon>
      <polygon class="cls-8" points="500.26 462.04 490.02 460.46 490.02 463.62 500.26 462.04"></polygon>
      <polygon class="cls-5" points="500.26 462.04 490.02 460.46 490.02 463.62 500.26 462.04"></polygon>
      <line class="cls-1" x1="410.73" y1="380.5" x2="410.73" y2="465.35"></line>
      <line class="cls-1" x1="410.73" y1="462.04" x2="500.26" y2="462.04"></line>
      <polyline class="cls-1" points="447.69 450.22 448.76 448.47 450.88 448.47 451.95 450.22 451.95 451.98 450.88 453.73 448.76 453.73 447.69 455.49 447.69 459 451.95 459"></polyline>
      <polyline class="cls-1" points="454.05 448.46 458.3 448.46 455.11 459"></polyline>
      <polygon class="cls-8" points="479.69 265.11 469.35 265.61 469.99 268.7 479.69 265.11"></polygon>
      <polygon class="cls-5" points="479.69 265.11 469.35 265.61 469.99 268.7 479.69 265.11"></polygon>
      <line class="cls-1" x1="479.69" y1="265.11" x2="447.2" y2="271.74"></line>
      <polyline class="cls-1" points="450.24 268.01 448.14 257.7 451.25 257.05 452.64 258.56 452.98 260.29 452.29 262.22 449.18 262.84"></polyline>
      <line class="cls-1" x1="450.21" y1="262.64" x2="454.39" y2="267.16"></line>
      <polyline class="cls-1" points="458.42 257.4 459.09 255.47 461.19 265.78"></polyline>
      <line class="cls-1" x1="460.15" y1="265.98" x2="462.23" y2="265.56"></line>
      <polyline class="cls-1" points="465.37 264.94 463.96 263.43 462.58 256.53 463.27 254.61 464.31 254.41 465.69 255.91 467.1 262.79 466.41 264.72 465.37 264.94"></polyline>
      <polygon class="cls-8" points="521.57 334.39 530.89 338.87 531.8 335.85 521.57 334.39"></polygon>
      <polygon class="cls-5" points="521.57 334.39 530.89 338.87 531.8 335.85 521.57 334.39"></polygon>
      <line class="cls-1" x1="521.57" y1="334.39" x2="553.29" y2="344.01"></line>
      <polyline class="cls-1" points="531.56 334.24 534.62 324.18 537.66 325.09 538.16 327.07 537.66 328.75 536.13 330.14 533.09 329.2"></polyline>
      <line class="cls-1" x1="534.1" y1="329.52" x2="535.64" y2="335.48"></line>
      <polyline class="cls-1" points="543.79 328.78 545.33 327.42 542.26 337.48"></polyline>
      <line class="cls-1" x1="541.25" y1="337.18" x2="543.3" y2="337.8"></line>
      <polyline class="cls-1" points="546.34 338.72 545.82 336.74 547.88 330.01 549.38 328.65 550.4 328.95 550.91 330.93 548.89 337.65 547.35 339.04 546.34 338.72"></polyline>
      <polygon class="cls-8" points="368.18 219.84 376.54 213.74 374.31 211.51 368.18 219.84"></polygon>
      <polygon class="cls-5" points="368.18 219.84 376.54 213.74 374.31 211.51 368.18 219.84"></polygon>
      <line class="cls-1" x1="368.18" y1="219.84" x2="397.01" y2="191.02"></line>
      <polyline class="cls-1" points="378.47 205.26 371.02 197.81 373.27 195.56 375.28 196.06 376.51 197.29 377.01 199.27 374.76 201.55"></polyline>
      <line class="cls-1" x1="375.5" y1="200.78" x2="381.46" y2="202.26"></line>
      <polyline class="cls-1" points="386.16 192.62 383.14 195.61 380.44 188.4 387.89 195.84"></polyline>
      <polygon class="cls-8" points="270.18 111.92 268.59 122.13 271.76 122.13 270.18 111.92"></polygon>
      <polygon class="cls-5" points="270.18 111.92 268.59 122.13 271.76 122.13 270.18 111.92"></polygon>
      <polygon class="cls-8" points="270.18 708.73 271.76 698.52 268.59 698.52 270.18 708.73"></polygon>
      <polygon class="cls-5" points="270.18 708.73 271.76 698.52 268.59 698.52 270.18 708.73"></polygon>
      <line class="cls-1" x1="677.25" y1="111.92" x2="266.86" y2="111.92"></line>
      <line class="cls-1" x1="270.18" y1="111.92" x2="270.18" y2="708.73"></line>
      <polygon class="cls-8" points="364.3 20.3 374.54 21.86 374.54 18.71 364.3 20.3"></polygon>
      <polygon class="cls-5" points="364.3 20.3 374.54 21.86 374.54 18.71 364.3 20.3"></polygon>
      <polygon class="cls-8" points="748.93 20.3 738.69 18.71 738.69 21.86 748.93 20.3"></polygon>
      <polygon class="cls-5" points="748.93 20.3 738.69 18.71 738.69 21.86 748.93 20.3"></polygon>
      <line class="cls-1" x1="364.3" y1="127.01" x2="364.3" y2="16.98"></line>
      <line class="cls-1" x1="748.93" y1="121.86" x2="748.93" y2="16.98"></line>
      <line class="cls-1" x1="364.3" y1="20.3" x2="748.93" y2="20.3"></line>
      <polygon class="cls-8" points="794.84 247.86 796.42 237.65 793.28 237.65 794.84 247.86"></polygon>
      <polygon class="cls-5" points="794.84 247.86 796.42 237.65 793.28 237.65 794.84 247.86"></polygon>
      <polygon class="cls-8" points="794.84 111.92 793.28 122.13 796.42 122.13 794.84 111.92"></polygon>
      <polygon class="cls-5" points="794.84 111.92 793.28 122.13 796.42 122.13 794.84 111.92"></polygon>
      <line class="cls-1" x1="616.31" y1="247.86" x2="798.15" y2="247.86"></line>
      <line class="cls-1" x1="794.84" y1="247.86" x2="794.84" y2="111.92"></line>
      <polyline class="cls-1" points="788.29 183.45 788.29 187.68 781.27 184.51 791.8 184.51"></polyline>
      <polyline class="cls-1" points="783.02 181.32 781.27 180.26 791.8 180.26"></polyline>
      <line class="cls-1" x1="791.8" y1="181.32" x2="791.8" y2="179.2"></line>
      <polygon class="cls-8" points="549.51 39.61 559.74 41.19 559.74 38.02 549.51 39.61"></polygon>
      <polygon class="cls-5" points="549.51 39.61 559.74 41.19 559.74 38.02 549.51 39.61"></polygon>
      <polygon class="cls-8" points="662.2 39.61 651.96 38.02 651.96 41.19 662.2 39.61"></polygon>
      <polygon class="cls-5" points="662.2 39.61 651.96 38.02 651.96 41.19 662.2 39.61"></polygon>
      <line class="cls-1" x1="549.51" y1="151.58" x2="549.51" y2="36.29"></line>
      <line class="cls-1" x1="662.2" y1="151.58" x2="662.2" y2="36.29"></line>
      <line class="cls-1" x1="549.51" y1="39.61" x2="662.2" y2="39.61"></line>
      <polyline class="cls-1" points="588.3 27.79 589.36 26.03 591.49 26.03 592.55 27.79 592.55 29.54 591.49 31.3 590.42 31.3"></polyline>
      <polyline class="cls-1" points="591.49 31.3 592.55 33.05 592.55 34.81 591.49 36.57 589.36 36.57 588.3 34.81"></polyline>
      <polyline class="cls-1" points="594.68 27.79 595.74 26.03 597.87 26.03 598.93 27.79 598.93 29.54 597.87 31.3 596.8 31.3"></polyline>
      <polyline class="cls-1" points="597.87 31.3 598.93 33.05 598.93 34.81 597.87 36.57 595.74 36.57 594.68 34.81"></polyline>
      <polyline class="cls-1" points="602.12 34.81 602.12 36.56 601.05 38.32"></polyline>
      <polyline class="cls-1" points="605.28 36.57 606.35 36.57 608.47 33.05 608.47 27.79 607.41 26.03 605.28 26.03 604.22 27.79 604.22 29.54 605.28 31.3 608.47 31.3"></polyline>
      <polyline class="cls-1" points="613.79 31.3 614.85 33.05 614.85 34.81 613.79 36.57 611.66 36.57 610.6 34.81 610.6 33.05 611.66 31.3 613.79 31.3 614.85 29.54 614.85 27.79 613.79 26.03 611.66 26.03 610.6 27.79 610.6 29.54 611.66 31.3"></polyline>
      <polygon class="cls-8" points="742.3 113.7 735.82 121.76 738.54 123.32 742.3 113.7"></polygon>
      <polygon class="cls-5" points="742.3 113.7 735.82 121.76 738.54 123.32 742.3 113.7"></polygon>
      <line class="cls-1" x1="742.3" y1="113.7" x2="721.51" y2="149.68"></line>
      <polyline class="cls-1" points="721.51 143.59 712.41 138.33 713.99 135.58 716.05 135.53 717.55 136.4 718.54 138.2 716.96 140.97"></polyline>
      <line class="cls-1" x1="717.48" y1="140.03" x2="723.64" y2="139.91"></line>
      <polyline class="cls-1" points="725.66 129.38 723.54 133.06 719.06 126.81 728.19 132.07"></polyline>
      <polygon class="cls-8" points="673.27 114.12 677.6 123.52 680.22 121.76 673.27 114.12"></polygon>
      <polygon class="cls-5" points="673.27 114.12 677.6 123.52 680.22 121.76 673.27 114.12"></polygon>
      <line class="cls-1" x1="673.27" y1="114.12" x2="696.14" y2="148.76"></line>
      <polyline class="cls-1" points="685.91 127.75 694.71 121.94 696.46 124.61 695.58 126.46 694.12 127.42 692.06 127.5 690.31 124.83"></polyline>
      <line class="cls-1" x1="690.9" y1="125.72" x2="688.26" y2="131.28"></line>
      <polyline class="cls-1" points="696.76 137.81 694.44 134.27 702.03 133.06 693.25 138.85"></polyline>
      <polygon class="cls-8" points="737.36 236.06 729.07 229.88 727.59 232.67 737.36 236.06"></polygon>
      <polygon class="cls-5" points="737.36 236.06 729.07 229.88 727.59 232.67 737.36 236.06"></polygon>
      <polyline class="cls-1" points="737.36 236.06 694.91 213.59 713.62 223.48 680.89 206.15"></polyline>
      <line class="cls-1" x1="680.89" y1="198.31" x2="680.89" y2="214.01"></line>
      <line class="cls-1" x1="673.05" y1="206.15" x2="688.73" y2="206.15"></line>
      <polyline class="cls-1" points="692.68 209.04 697.6 199.74 700.42 201.23 700.54 203.28 699.73 204.81 697.97 205.87 695.15 204.39"></polyline>
      <line class="cls-1" x1="696.09" y1="204.89" x2="696.44" y2="211.02"></line>
      <polyline class="cls-1" points="705.74 206.02 707.52 204.96 709.37 205.97 709.49 208 708.68 209.56 706.92 210.62 705.98 210.13"></polyline>
      <polyline class="cls-1" points="706.92 210.62 707.05 212.65 706.21 214.21 704.45 215.27 702.57 214.28 702.47 212.23"></polyline>
      <polyline class="cls-1" points="708.21 217.25 708.09 215.19 711.37 208.99 713.13 207.95 714.07 208.45 714.19 210.5 710.9 216.7 709.15 217.74 708.21 217.25"></polyline>
      <polygon class="cls-8" points="578.36 242.24 584.94 234.28 582.24 232.68 578.36 242.24"></polygon>
      <polygon class="cls-5" points="578.36 242.24 584.94 234.28 582.24 232.68 578.36 242.24"></polygon>
      <line class="cls-1" x1="578.36" y1="242.24" x2="598.71" y2="208.07"></line>
      <polyline class="cls-1" points="580.51 233.74 571.48 228.35 573.09 225.63 575.14 225.6 576.65 226.49 577.62 228.32 575.99 231.04"></polyline>
      <line class="cls-1" x1="576.53" y1="230.13" x2="582.68" y2="230.1"></line>
      <polyline class="cls-1" points="578.16 220.56 577.2 218.73 586.25 224.12"></polyline>
      <line class="cls-1" x1="585.7" y1="225.04" x2="586.79" y2="223.21"></line>
      <polyline class="cls-1" points="580.34 216.9 579.37 215.1 580.46 213.27 582.51 213.24 584.02 214.16 584.98 215.96 583.9 217.79 584.86 219.6 587.88 221.4 590.05 217.74"></polyline>
      <polygon class="cls-8" points="637.08 239.72 632.16 230.65 629.64 232.55 637.08 239.72"></polygon>
      <polygon class="cls-5" points="637.08 239.72 632.16 230.65 629.64 232.55 637.08 239.72"></polygon>
      <line class="cls-1" x1="637.08" y1="239.72" x2="612.97" y2="208.08"></line>
      <polyline class="cls-1" points="618.39 211.04 626.77 204.66 628.7 207.21 627.93 209.11 626.55 210.18 624.52 210.4 622.59 207.85"></polyline>
      <line class="cls-1" x1="623.23" y1="208.72" x2="620.96" y2="214.43"></line>
      <polyline class="cls-1" points="631.52 213.79 633.54 213.59 625.16 219.97"></polyline>
      <line class="cls-1" x1="624.52" y1="219.1" x2="625.8" y2="220.81"></line>
      <polyline class="cls-1" points="634.09 217.17 636.11 216.95 637.4 218.66 636.66 220.56 635.25 221.62 633.22 221.85 631.93 220.14 629.88 220.36 627.09 222.49 629.66 225.88"></polyline>
      <polygon class="cls-8" points="500.26 758.13 490.02 756.55 490.02 759.69 500.26 758.13"></polygon>
      <polygon class="cls-5" points="500.26 758.13 490.02 756.55 490.02 759.69 500.26 758.13"></polygon>
      <polygon class="cls-8" points="529.75 758.13 539.99 759.69 539.99 756.55 529.75 758.13"></polygon>
      <polygon class="cls-5" points="529.75 758.13 539.99 759.69 539.99 756.55 529.75 758.13"></polygon>
      <line class="cls-1" x1="500.26" y1="745.2" x2="500.26" y2="761.45"></line>
      <line class="cls-1" x1="529.75" y1="745.2" x2="529.75" y2="761.45"></line>
      <polyline class="cls-1" points="480.6 758.13 500.26 758.13 529.75 758.13 581.52 758.13"></polyline>
      <polyline class="cls-1" points="552.15 749.82 553.22 751.55 553.22 753.31 552.15 755.07 550.03 755.07 548.99 753.31 548.99 751.55 550.03 749.82 552.15 749.82 553.22 748.07 553.22 746.31 552.15 744.56 550.03 744.56 548.99 746.31 548.99 748.07 550.03 749.82"></polyline>
      <polyline class="cls-1" points="556.4 753.31 556.4 755.07 555.34 756.82"></polyline>
      <polyline class="cls-1" points="559.59 755.07 560.66 755.07 562.78 751.55 562.78 746.31 561.72 744.56 559.59 744.56 558.53 746.31 558.53 748.07 559.59 749.82 562.78 749.82"></polyline>
      <polyline class="cls-1" points="565.95 755.07 564.91 753.31 564.91 746.31 565.95 744.56 567.01 744.56 568.07 746.31 568.07 753.31 567.01 755.07 565.95 755.07"></polyline>
      <polygon class="cls-8" points="201.84 758.13 212.05 759.69 212.05 756.55 201.84 758.13"></polygon>
      <polygon class="cls-5" points="201.84 758.13 212.05 759.69 212.05 756.55 201.84 758.13"></polygon>
      <polygon class="cls-8" points="500.26 758.13 490.02 756.55 490.02 759.69 500.26 758.13"></polygon>
      <polygon class="cls-5" points="500.26 758.13 490.02 756.55 490.02 759.69 500.26 758.13"></polygon>
      <line class="cls-1" x1="201.84" y1="705.42" x2="201.84" y2="761.44"></line>
      <line class="cls-1" x1="500.26" y1="745.2" x2="500.26" y2="761.45"></line>
      <line class="cls-1" x1="201.84" y1="758.13" x2="500.26" y2="758.13"></line>
      <polyline class="cls-1" points="344.3 755.07 345.36 755.07 347.49 751.55 347.49 746.31 346.42 744.56 344.3 744.56 343.23 746.31 343.23 748.07 344.3 749.82 347.49 749.82"></polyline>
      <polyline class="cls-1" points="350.68 755.07 349.61 753.31 349.61 746.31 350.68 744.56 351.74 744.56 352.8 746.31 352.8 753.31 351.74 755.07 350.68 755.07"></polyline>
      <polygon class="cls-8" points="797.76 705.42 789.7 698.94 788.14 701.66 797.76 705.42"></polygon>
      <polygon class="cls-5" points="797.76 705.42 789.7 698.94 788.14 701.66 797.76 705.42"></polygon>
      <line class="cls-1" x1="797.76" y1="705.42" x2="770.98" y2="689.97"></line>
      <polyline class="cls-1" points="777.06 689.94 782.33 680.85 785.1 682.43 785.13 684.48 784.26 685.99 782.45 686.98 779.71 685.39"></polyline>
      <line class="cls-1" x1="780.62" y1="685.94" x2="780.75" y2="692.07"></line>
      <polyline class="cls-1" points="790.22 687.42 792.02 686.43 793.85 687.5 793.9 689.55 793.04 691.06 791.23 692.05 789.4 690.98 787.6 691.97 785.84 695.01 789.52 697.14"></polyline>
      <polygon class="cls-8" points="293.98 387.82 292.4 398.03 295.54 398.03 293.98 387.82"></polygon>
      <polygon class="cls-5" points="293.98 387.82 292.4 398.03 295.54 398.03 293.98 387.82"></polygon>
      <polygon class="cls-8" points="293.98 708.73 295.54 698.52 292.4 698.52 293.98 708.73"></polygon>
      <polygon class="cls-5" points="293.98 708.73 295.54 698.52 292.4 698.52 293.98 708.73"></polygon>
      <line class="cls-1" x1="360.99" y1="387.82" x2="290.67" y2="387.82"></line>
      <line class="cls-1" x1="293.98" y1="387.82" x2="293.98" y2="708.73"></line>
      <polyline class="cls-1" points="290.94 564.77 290.94 563.7 287.43 561.58 282.17 561.58 280.41 562.64 280.41 564.77 282.17 565.83 283.92 565.83 285.68 564.77 285.68 561.58"></polyline>
      <polyline class="cls-1" points="285.68 559.45 285.68 556.26 287.43 555.2 289.19 555.2 290.94 556.26 290.94 558.39 289.19 559.45 283.92 559.45 280.41 557.32 280.41 556.26"></polyline>
      <polyline class="cls-1" points="289.19 552.01 290.94 552.01 292.7 553.07"></polyline>
      <polyline class="cls-1" points="280.41 549.91 280.41 545.65 290.94 548.84"></polyline>
      <polyline class="cls-1" points="290.94 542.47 290.94 541.4 287.43 539.28 282.17 539.28 280.41 540.34 280.41 542.47 282.17 543.53 283.92 543.53 285.68 542.47 285.68 539.28"></polyline>
      <polygon class="cls-8" points="549.51 40.05 539.3 38.47 539.3 41.61 549.51 40.05"></polygon>
      <polygon class="cls-5" points="549.51 40.05 539.3 38.47 539.3 41.61 549.51 40.05"></polygon>
      <polygon class="cls-8" points="364.3 40.05 374.54 41.61 374.54 38.47 364.3 40.05"></polygon>
      <polygon class="cls-5" points="364.3 40.05 374.54 41.61 374.54 38.47 364.3 40.05"></polygon>
      <line class="cls-1" x1="549.51" y1="151.58" x2="549.51" y2="36.74"></line>
      <line class="cls-1" x1="364.3" y1="127.01" x2="364.3" y2="36.74"></line>
      <line class="cls-1" x1="549.51" y1="40.05" x2="364.3" y2="40.05"></line>
      <polyline class="cls-1" points="439.36 35.25 440.42 37.01 442.55 37.01 443.61 35.25 443.61 31.74 442.55 29.99 439.36 29.99 439.36 26.48 443.61 26.48"></polyline>
      <polyline class="cls-1" points="445.74 35.25 446.8 37.01 448.93 37.01 449.99 35.25 449.99 31.74 448.93 29.99 445.74 29.99 445.74 26.48 449.99 26.48"></polyline>
      <polyline class="cls-1" points="453.16 35.25 453.16 37.01 452.12 38.77"></polyline>
      <polyline class="cls-1" points="458.47 31.74 459.54 33.5 459.54 35.26 458.47 37.01 456.35 37.01 455.28 35.26 455.28 33.5 456.35 31.74 458.47 31.74 459.54 29.99 459.54 28.23 458.47 26.48 456.35 26.48 455.28 28.23 455.28 29.99 456.35 31.74"></polyline>
      <polyline class="cls-1" points="461.66 31.74 464.85 31.74 465.92 33.5 465.92 35.26 464.85 37.01 462.73 37.01 461.66 35.26 461.66 29.99 463.79 26.48 464.85 26.48"></polyline>
      <polyline class="cls-6" points="536.72 729.75 539.37 735.01 539.37 740.26"></polyline>
      <line class="cls-6" x1="539.37" y1="735.01" x2="541.99" y2="729.75"></line>
      <polyline class="cls-6" points="646.25 652.24 647.73 650.63 646.65 661.09"></polyline>
      <line class="cls-6" x1="645.34" y1="660.97" x2="647.96" y2="661.24"></line>
      <line class="cls-6" x1="651.29" y1="654.54" x2="651.12" y2="656.27"></line>
      <line class="cls-6" x1="650.92" y1="658.02" x2="650.75" y2="659.75"></line>
      <polyline class="cls-6" points="654.11 653.06 655.6 651.45 654.48 661.93"></polyline>
      <line class="cls-6" x1="653.2" y1="661.78" x2="655.79" y2="662.05"></line>
      <polyline class="cls-6" points="659.73 662.47 658.61 660.6 659.33 653.6 660.84 651.99 662.15 652.14 663.26 654.02 662.52 660.99 661.04 662.6 659.73 662.47"></polyline>
      <polyline class="cls-6" points="327.93 653.62 329.07 651.75 330.16 662.23"></polyline>
      <line class="cls-6" x1="328.85" y1="662.35" x2="331.47" y2="662.08"></line>
      <line class="cls-6" x1="333.35" y1="654.84" x2="333.54" y2="656.57"></line>
      <line class="cls-6" x1="333.72" y1="658.32" x2="333.91" y2="660.05"></line>
      <polyline class="cls-6" points="335.79 652.81 336.91 650.93 338.02 661.39"></polyline>
      <line class="cls-6" x1="336.71" y1="661.54" x2="339.33" y2="661.26"></line>
      <polyline class="cls-6" points="343.26 660.84 341.75 659.24 341.03 652.26 342.15 650.39 343.46 650.24 344.94 651.84 345.68 658.81 344.57 660.7 343.26 660.84"></polyline>
      <polyline class="cls-6" points="600.59 285.91 601.5 283.9 603.7 294.21"></polyline>
      <line class="cls-6" x1="602.42" y1="294.48" x2="604.99" y2="293.94"></line>
      <line class="cls-6" x1="606.1" y1="286.52" x2="606.47" y2="288.23"></line>
      <line class="cls-6" x1="606.84" y1="289.96" x2="607.19" y2="291.67"></line>
      <polyline class="cls-6" points="609.76 291.12 611.42 292.56 613.98 292.01 614.93 290.03 614.18 286.6 612.53 285.16 608.67 285.98 607.95 282.54 613.1 281.45"></polyline>
      <polyline class="cls-6" points="641.18 204.17 639.67 202.59 650.03 204.42"></polyline>
      <line class="cls-6" x1="649.81" y1="205.7" x2="650.28" y2="203.11"></line>
      <line class="cls-6" x1="643.8" y1="199.3" x2="645.53" y2="199.59"></line>
      <line class="cls-6" x1="647.26" y1="199.92" x2="648.99" y2="200.21"></line>
      <polyline class="cls-6" points="646 197.02 646.7 193.12 648.65 192.13 650.38 192.45 651.86 194.03 651.42 196.63 649.46 197.62 644.27 196.7 641.28 193.51 641.5 192.2"></polyline>
      <polyline class="cls-6" points="567.88 188.25 569.83 189.23 559.47 191.06"></polyline>
      <line class="cls-6" x1="559.25" y1="189.78" x2="559.69" y2="192.37"></line>
      <line class="cls-6" x1="567.06" y1="193.73" x2="565.33" y2="194.03"></line>
      <line class="cls-6" x1="563.6" y1="194.35" x2="561.87" y2="194.65"></line>
      <polyline class="cls-6" points="565.8 196.63 566.47 200.53 564.98 202.12 563.25 202.44 561.3 201.45 560.83 198.85 562.34 197.25 567.53 196.33 571.44 198.31 571.66 199.62"></polyline>
      <polyline class="cls-6" points="434.96 221.92 436.59 220.46 434.42 230.77"></polyline>
      <line class="cls-6" x1="433.13" y1="230.5" x2="435.7" y2="231.04"></line>
      <line class="cls-6" x1="439.73" y1="224.71" x2="439.36" y2="226.44"></line>
      <line class="cls-6" x1="439.02" y1="228.15" x2="438.64" y2="229.88"></line>
      <polyline class="cls-6" points="441.22 230.43 442.13 232.4 444.7 232.95 446.36 231.51 447.1 228.08 446.16 226.1 442.3 225.26 443.04 221.85 448.19 222.93"></polyline>
      <line class="cls-6" x1="364.23" y1="384.9" x2="369.49" y2="374.37"></line>
      <line class="cls-6" x1="364.23" y1="374.37" x2="369.49" y2="384.9"></line>
      <line class="cls-6" x1="737.9" y1="384.9" x2="743.17" y2="374.37"></line>
      <line class="cls-6" x1="737.9" y1="374.37" x2="743.17" y2="384.9"></line>
      <polyline class="cls-6" points="351.69 169.43 351.69 165.92 354.34 158.9 356.96 165.92 356.96 169.43"></polyline>
      <line class="cls-6" x1="351.69" y1="165.92" x2="356.96" y2="165.92"></line>
      <polyline class="cls-6" points="754.37 169.43 758.32 169.43 759.63 167.68 759.63 160.65 758.32 158.9 754.37 158.9"></polyline>
      <line class="cls-6" x1="755.7" y1="158.9" x2="755.7" y2="169.43"></line>
      <polyline class="cls-6" points="651.42 167.68 650.11 169.43 647.49 169.43 646.15 167.68 646.15 160.65 647.49 158.9 650.11 158.9 651.42 160.65"></polyline>
      <polyline class="cls-6" points="554.01 169.43 557.96 169.43 559.27 167.68 559.27 165.92 557.96 164.16 555.32 164.16"></polyline>
      <polyline class="cls-6" points="557.96 164.16 559.27 162.41 559.27 160.65 557.96 158.9 554.01 158.9"></polyline>
      <line class="cls-6" x1="555.32" y1="158.9" x2="555.32" y2="169.43"></line>
      <polyline class="cls-6" points="532.84 78 535.49 83.27 535.49 88.53"></polyline>
      <line class="cls-6" x1="535.49" y1="83.27" x2="538.11" y2="78"></line>
      <line class="cls-1" x1="503.57" y1="111.92" x2="798.15" y2="111.92"></line>
      <g class="cls-14">
        <g>
          <path class="cls-8" d="M508.48,13.91h-1.55V5.69l-2.39.96v-1.49l3.85-1.56h.1v10.31Z"></path>
          <path class="cls-8" d="M516.4,13.91h-1.55V5.69l-2.39.96v-1.49l3.85-1.56h.1v10.31Z"></path>
          <path class="cls-8" d="M524.73,3.55v1.44h-.1c-.53,0-.98.08-1.36.24-.38.16-.7.38-.95.66-.25.28-.44.6-.57.97-.13.37-.21.77-.25,1.19.1-.13.22-.25.35-.36.13-.12.28-.22.44-.31.16-.09.34-.17.53-.22.19-.05.39-.08.61-.08.46,0,.86.1,1.19.29.34.19.62.45.84.77.22.32.38.68.49,1.1.11.41.16.84.16,1.29,0,.5-.07.96-.2,1.39s-.33.8-.59,1.12c-.26.32-.58.57-.95.75-.38.18-.81.27-1.29.27-.51,0-.96-.11-1.35-.33-.39-.22-.72-.52-.98-.89-.26-.37-.47-.8-.6-1.29-.14-.49-.21-1-.21-1.53v-.66c0-.5.03-1,.1-1.48.07-.48.18-.94.33-1.37.15-.43.35-.83.59-1.19.24-.36.53-.67.87-.93.34-.26.74-.46,1.19-.61.45-.15.96-.22,1.53-.22h.17ZM523.06,8.45c-.18,0-.34.03-.51.09-.16.06-.31.14-.45.25-.14.11-.26.24-.37.39-.11.15-.19.32-.26.5v.48c0,.42.04.79.12,1.1.09.31.2.58.34.79.15.21.31.37.5.48.19.11.39.16.61.16.24,0,.46-.05.64-.16.19-.1.35-.25.48-.44.13-.19.23-.41.3-.67s.1-.54.1-.85c0-.29-.03-.56-.1-.82-.06-.26-.16-.48-.29-.68-.13-.19-.29-.35-.48-.46-.19-.11-.41-.17-.66-.17Z"></path>
          <path class="cls-8" d="M537.21,9.72c0-.68.05-1.32.15-1.92.1-.59.23-1.14.39-1.65.16-.51.35-.96.57-1.38.22-.41.44-.78.68-1.1.24-.32.48-.59.72-.81.24-.22.47-.39.69-.51l.31,1c-.25.21-.49.49-.74.84-.25.35-.47.79-.68,1.31s-.37,1.13-.49,1.82-.19,1.49-.19,2.38v.14c0,.89.06,1.68.19,2.38s.29,1.31.49,1.83.43.97.68,1.32c.25.36.49.65.74.86l-.31.95c-.22-.12-.45-.29-.69-.51-.24-.22-.48-.49-.72-.81-.24-.32-.47-.68-.68-1.09-.22-.41-.41-.87-.57-1.37-.16-.51-.29-1.06-.39-1.65-.1-.6-.15-1.23-.15-1.92v-.11Z"></path>
          <path class="cls-8" d="M548.95,10.25h1.18v1.37h-1.18v2.29h-1.54v-2.29h-4.07l-.04-1.03,4.06-6.99h1.59v6.65ZM544.89,10.25h2.52v-4.39l-.17.33-2.36,4.06Z"></path>
          <path class="cls-8" d="M553.72,12.9c0-.17.03-.32.08-.47s.12-.27.22-.38c.09-.11.21-.19.35-.25.14-.06.3-.09.48-.09s.34.03.48.09c.14.06.26.15.35.25s.17.23.22.38.08.3.08.47-.03.32-.08.46-.12.26-.22.37-.22.19-.35.24c-.14.06-.3.09-.48.09s-.34-.03-.48-.09c-.14-.06-.26-.14-.35-.24-.09-.1-.17-.23-.22-.37s-.08-.29-.08-.46Z"></path>
          <path class="cls-8" d="M559.96,8.8l.51-5.2h5.01v1.51h-3.74l-.24,2.44c.15-.09.35-.19.6-.28s.54-.13.86-.13c.44,0,.84.08,1.19.24.35.16.65.39.89.69.24.3.42.66.55,1.09.13.43.19.91.19,1.45,0,.48-.06.93-.18,1.34-.12.42-.31.78-.56,1.09-.25.31-.57.55-.95.73s-.83.27-1.35.27c-.39,0-.77-.06-1.12-.19-.36-.12-.68-.31-.96-.55s-.51-.55-.68-.91c-.18-.36-.28-.79-.31-1.27h1.49c.06.51.23.9.51,1.16.28.27.64.4,1.07.4.25,0,.47-.05.66-.16.19-.1.35-.25.47-.44.12-.19.22-.41.28-.67.06-.26.09-.55.09-.86s-.04-.57-.11-.82-.18-.47-.32-.65c-.14-.18-.32-.32-.53-.43s-.45-.16-.73-.16c-.18,0-.34.01-.48.05-.13.03-.25.07-.36.13s-.2.12-.29.19c-.09.08-.17.16-.26.24l-1.23-.33Z"></path>
          <path class="cls-8" d="M572.2,3.55v1.44h-.1c-.53,0-.98.08-1.36.24-.38.16-.7.38-.95.66-.25.28-.44.6-.57.97-.13.37-.21.77-.25,1.19.1-.13.22-.25.35-.36.13-.12.28-.22.44-.31.16-.09.34-.17.53-.22.19-.05.39-.08.61-.08.46,0,.86.1,1.19.29.34.19.62.45.84.77.22.32.38.68.49,1.1.11.41.16.84.16,1.29,0,.5-.07.96-.2,1.39s-.33.8-.59,1.12c-.26.32-.58.57-.95.75-.38.18-.81.27-1.29.27-.51,0-.96-.11-1.35-.33-.39-.22-.72-.52-.98-.89-.26-.37-.47-.8-.6-1.29-.14-.49-.21-1-.21-1.53v-.66c0-.5.03-1,.1-1.48.07-.48.18-.94.33-1.37.15-.43.35-.83.59-1.19.24-.36.53-.67.87-.93.34-.26.74-.46,1.19-.61.45-.15.96-.22,1.53-.22h.17ZM570.53,8.45c-.18,0-.34.03-.51.09-.16.06-.31.14-.45.25-.14.11-.26.24-.37.39-.11.15-.19.32-.26.5v.48c0,.42.04.79.12,1.1.09.31.2.58.34.79.15.21.31.37.5.48.19.11.39.16.61.16.24,0,.46-.05.64-.16.19-.1.35-.25.48-.44.13-.19.23-.41.3-.67s.1-.54.1-.85c0-.29-.03-.56-.1-.82-.06-.26-.16-.48-.29-.68-.13-.19-.29-.35-.48-.46-.19-.11-.41-.17-.66-.17Z"></path>
          <path class="cls-8" d="M581.59,4.54l-3.75,9.37h-1.62l3.75-8.9h-4.86v-1.41h6.48v.94Z"></path>
          <path class="cls-8" d="M585.63,3.79l-.16,2.83h-1.02v-3.58h1.18v.76ZM588.15,3.79l-.16,2.83h-1.02v-3.58h1.18v.76Z"></path>
          <path class="cls-8" d="M595.95,9.83c0,.67-.05,1.31-.15,1.9-.1.59-.23,1.14-.4,1.64-.17.5-.36.96-.58,1.38s-.45.78-.69,1.11c-.24.32-.49.59-.73.82-.25.22-.48.4-.7.51l-.3-.95c.24-.2.48-.48.73-.84.25-.36.47-.8.68-1.33s.37-1.14.49-1.84.19-1.5.19-2.38v-.14c0-.89-.07-1.68-.2-2.38-.13-.7-.3-1.32-.51-1.85-.21-.53-.43-.97-.68-1.33-.25-.36-.48-.64-.7-.84l.3-.95c.22.12.45.29.7.52.25.22.49.49.73.81.24.32.47.69.69,1.11.22.42.41.88.58,1.38.17.51.3,1.05.4,1.65.1.59.15,1.22.15,1.89v.11Z"></path>
        </g>
      </g>
      <g>
        <path class="cls-8" d="M256.35,446.09c-.68,0-1.32-.05-1.92-.15-.59-.1-1.14-.23-1.65-.39-.5-.16-.96-.35-1.38-.57s-.78-.44-1.1-.68-.59-.48-.81-.72c-.22-.24-.39-.47-.51-.69l1-.31c.21.25.49.49.84.74.35.25.79.47,1.31.67.52.2,1.13.37,1.82.49s1.49.19,2.38.19h.14c.89,0,1.68-.06,2.37-.19s1.31-.29,1.83-.49c.52-.2.97-.43,1.32-.67.36-.25.65-.5.86-.74l.95.31c-.12.22-.29.45-.51.69-.22.24-.49.48-.81.72s-.68.47-1.09.68c-.41.22-.87.41-1.38.57-.5.16-1.05.29-1.65.39-.59.1-1.23.15-1.92.15h-.11Z"></path>
        <path class="cls-8" d="M260.55,435.26v1.55h-8.22l.96,2.4h-1.49l-1.57-3.85v-.1h10.31Z"></path>
        <path class="cls-8" d="M252.95,425.66c.51,0,.96.12,1.35.36.39.24.7.56.93.97.12-.23.26-.44.43-.63.17-.19.36-.34.57-.48.21-.13.45-.23.7-.3.25-.07.52-.11.81-.11.48,0,.9.08,1.27.24s.68.38.92.65c.25.28.44.6.56.97.13.37.19.77.19,1.2s-.07.84-.19,1.21-.31.7-.56.97c-.25.28-.56.49-.92.65-.37.15-.79.23-1.27.23-.28,0-.55-.04-.81-.11-.26-.07-.49-.17-.7-.3-.21-.13-.4-.29-.57-.48-.17-.19-.31-.4-.42-.63-.23.4-.54.72-.93.95s-.84.35-1.35.35c-.46,0-.86-.07-1.22-.21-.36-.14-.66-.34-.9-.59-.24-.25-.43-.55-.55-.9s-.19-.73-.19-1.14.06-.79.19-1.14c.12-.35.31-.65.55-.91s.54-.46.9-.6c.36-.14.76-.22,1.22-.22ZM253.01,427.2c-.23,0-.44.03-.63.1s-.35.16-.49.27c-.14.11-.24.26-.32.42s-.11.35-.11.54.04.38.11.54c.07.16.17.3.31.41.13.11.3.2.49.26.19.06.41.09.65.09s.45-.03.64-.09c.19-.06.35-.15.49-.27.13-.11.24-.25.31-.42.08-.16.11-.34.11-.55s-.04-.38-.11-.54-.18-.3-.31-.42-.3-.2-.49-.26c-.19-.06-.41-.09-.64-.09ZM257.66,427c-.26,0-.5.04-.71.11-.21.07-.39.18-.55.31-.15.13-.27.29-.35.48-.08.19-.12.4-.12.63s.04.44.12.63.2.34.35.47c.15.13.33.23.55.3.21.07.45.11.71.11.53,0,.94-.14,1.23-.41.29-.27.44-.64.44-1.12,0-.22-.04-.43-.11-.61-.08-.19-.19-.35-.33-.48-.14-.13-.32-.24-.53-.31s-.44-.11-.7-.11Z"></path>
        <path class="cls-8" d="M256.62,417.58c.67,0,1.25.07,1.76.21.51.14.93.34,1.27.6s.6.58.78.96c.17.38.26.8.26,1.28s-.09.89-.26,1.27c-.18.38-.43.7-.78.96s-.77.47-1.27.61c-.51.14-1.09.22-1.76.22h-2.46c-.67,0-1.25-.07-1.76-.21-.51-.14-.93-.34-1.27-.61s-.6-.58-.78-.96c-.17-.38-.26-.8-.26-1.27s.09-.9.26-1.27c.17-.38.43-.7.78-.96s.77-.47,1.27-.61c.51-.14,1.09-.21,1.76-.21h2.46ZM255.98,422.14l-2.46-3c-.7.03-1.22.17-1.56.42-.34.25-.51.61-.51,1.08,0,.5.2.88.59,1.13.39.25,1,.37,1.81.37h2.13ZM254.85,419.13l2.46,3c1.35-.08,2.03-.58,2.03-1.5,0-1-.81-1.5-2.42-1.5h-2.07Z"></path>
        <path class="cls-8" d="M256.35,406.53c-.68,0-1.32-.05-1.92-.15-.59-.1-1.14-.23-1.65-.39-.5-.16-.96-.35-1.38-.57-.41-.22-.78-.45-1.1-.68-.32-.24-.59-.48-.81-.72s-.39-.47-.51-.69l1-.31c.21.25.49.49.84.74s.79.47,1.31.68c.52.2,1.13.37,1.82.49s1.49.19,2.38.19h.14c.89,0,1.68-.06,2.37-.19s1.31-.29,1.83-.49c.52-.2.97-.43,1.32-.68s.65-.49.86-.74l.95.31c-.12.22-.29.45-.51.69-.22.24-.49.48-.81.72-.32.24-.68.47-1.09.68-.41.22-.87.41-1.38.57-.5.16-1.05.29-1.65.39-.59.1-1.23.15-1.92.15h-.11Z"></path>
        <path class="cls-8" d="M251.18,393.8l9.37,3.75v1.62l-8.9-3.75v4.86h-1.41v-6.48h.94Z"></path>
        <path class="cls-8" d="M259.53,390.02c-.16,0-.32-.02-.47-.08-.15-.05-.27-.12-.38-.21-.1-.09-.19-.21-.25-.35s-.09-.3-.09-.48.03-.34.09-.48.15-.26.25-.35c.11-.09.23-.17.38-.22.15-.05.3-.08.47-.08s.32.02.46.08c.14.05.26.12.36.22.1.1.19.21.25.35s.09.3.09.48-.03.34-.09.48-.14.26-.25.35c-.1.09-.23.17-.36.21-.14.05-.29.08-.46.08Z"></path>
        <path class="cls-8" d="M256.62,378.01c.67,0,1.25.07,1.76.21.51.14.93.34,1.27.6.34.26.6.58.78.96.17.38.26.8.26,1.27s-.09.89-.26,1.27c-.18.38-.43.7-.78.96s-.77.47-1.27.61c-.51.14-1.09.22-1.76.22h-2.46c-.67,0-1.25-.07-1.76-.21-.51-.14-.93-.34-1.27-.61s-.6-.58-.78-.96-.26-.8-.26-1.26.09-.9.26-1.28c.17-.38.43-.7.78-.96.34-.26.77-.47,1.27-.61.51-.14,1.09-.21,1.76-.21h2.46ZM255.98,382.57l-2.46-3c-.7.03-1.22.17-1.56.42-.34.25-.51.61-.51,1.08,0,.5.2.88.59,1.13.39.25,1,.37,1.81.37h2.13ZM254.85,379.56l2.46,3c1.35-.08,2.03-.58,2.03-1.5,0-1-.81-1.5-2.42-1.5h-2.07Z"></path>
        <path class="cls-8" d="M252.95,370.27c.51,0,.96.12,1.35.36.39.24.7.56.93.97.12-.23.26-.44.43-.63.17-.19.36-.34.57-.48.21-.13.45-.23.7-.3.25-.07.52-.11.81-.11.48,0,.9.08,1.27.24s.68.38.92.65c.25.28.44.6.56.97.13.37.19.77.19,1.2s-.07.84-.19,1.21-.31.7-.56.97c-.25.28-.56.49-.92.65-.37.15-.79.23-1.27.23-.28,0-.55-.04-.81-.11-.26-.07-.49-.17-.7-.3-.21-.13-.4-.29-.57-.48-.17-.19-.31-.4-.42-.63-.23.4-.54.72-.93.95s-.84.35-1.35.35c-.46,0-.86-.07-1.22-.21-.36-.14-.66-.34-.9-.59-.24-.25-.43-.55-.55-.9s-.19-.73-.19-1.14.06-.79.19-1.14c.12-.35.31-.65.55-.91s.54-.46.9-.6c.36-.14.76-.22,1.22-.22ZM253.01,371.81c-.23,0-.44.03-.63.1s-.35.16-.49.27c-.14.11-.24.26-.32.42s-.11.35-.11.54.04.38.11.54c.07.16.17.3.31.41.13.11.3.2.49.26.19.06.41.09.65.09s.45-.03.64-.09c.19-.06.35-.15.49-.27.13-.11.24-.25.31-.42.08-.16.11-.34.11-.55s-.04-.38-.11-.54-.18-.3-.31-.42-.3-.2-.49-.26c-.19-.06-.41-.09-.64-.09ZM257.66,371.61c-.26,0-.5.04-.71.11-.21.07-.39.18-.55.31-.15.13-.27.29-.35.48-.08.19-.12.4-.12.63s.04.44.12.63.2.34.35.47c.15.13.33.23.55.3.21.07.45.11.71.11.53,0,.94-.14,1.23-.41.29-.27.44-.64.44-1.12,0-.22-.04-.43-.11-.61-.08-.19-.19-.35-.33-.48-.14-.13-.32-.24-.53-.31s-.44-.11-.7-.11Z"></path>
        <path class="cls-8" d="M251.18,362.15l9.37,3.76v1.62l-8.9-3.76v4.86h-1.41v-6.48h.94Z"></path>
        <path class="cls-8" d="M250.42,355.59l2.83.16v1.02h-3.58v-1.18h.76ZM250.42,358.11l2.83.16v1.02h-3.58v-1.18h.76Z"></path>
        <path class="cls-8" d="M256.47,347.79c.68,0,1.31.05,1.9.15.59.1,1.14.23,1.64.4s.96.36,1.38.58c.42.22.78.45,1.1.69.32.24.59.49.82.73.22.25.39.48.51.7l-.95.3c-.2-.24-.48-.48-.84-.73-.36-.25-.8-.47-1.33-.68-.53-.2-1.14-.37-1.84-.5s-1.5-.19-2.38-.19h-.14c-.89,0-1.68.07-2.38.2-.7.13-1.32.3-1.85.51-.53.21-.97.44-1.33.68-.36.25-.64.48-.84.7l-.95-.3c.12-.22.29-.45.52-.7.22-.25.49-.49.82-.73.32-.24.69-.47,1.11-.69.42-.22.88-.41,1.39-.58.5-.17,1.05-.3,1.65-.4.59-.1,1.22-.15,1.89-.15h.11Z"></path>
      </g>
      <g class="cls-13">
        <g>
          <path class="cls-8" d="M465.89,790.38c0-.68.05-1.32.15-1.92.1-.59.23-1.14.39-1.65.16-.5.35-.96.57-1.38s.44-.78.68-1.1.48-.59.72-.81.47-.39.69-.51l.31,1c-.24.21-.49.49-.74.84-.25.35-.47.79-.68,1.31-.2.52-.37,1.13-.49,1.82s-.19,1.49-.19,2.38v.14c0,.89.06,1.68.19,2.37s.29,1.31.49,1.83c.2.52.43.97.68,1.32.25.36.5.65.74.86l-.31.95c-.22-.12-.45-.29-.69-.51-.24-.22-.48-.49-.72-.81s-.47-.68-.68-1.09c-.22-.41-.41-.87-.57-1.38-.16-.5-.29-1.05-.39-1.65-.1-.59-.15-1.23-.15-1.92v-.11Z"></path>
          <path class="cls-8" d="M476.73,794.57h-1.55v-8.22l-2.4.96v-1.49l3.85-1.57h.1v10.31Z"></path>
          <path class="cls-8" d="M486.32,786.98c0,.51-.12.96-.35,1.35-.24.39-.56.7-.97.93.23.12.44.26.63.43s.35.36.48.57c.13.21.23.45.31.7.07.25.11.52.11.81,0,.48-.08.9-.24,1.27-.16.37-.38.68-.65.92-.27.25-.6.44-.97.56s-.77.19-1.19.19-.84-.07-1.21-.19-.7-.31-.98-.56c-.28-.25-.49-.56-.65-.92s-.23-.79-.23-1.27c0-.28.03-.55.11-.81.07-.26.17-.49.3-.7.13-.21.29-.4.48-.57.19-.17.4-.31.63-.42-.4-.23-.72-.54-.95-.93-.23-.39-.35-.84-.35-1.35,0-.46.07-.86.21-1.22s.34-.66.59-.9c.25-.24.55-.43.9-.55.35-.12.73-.19,1.14-.19s.79.06,1.14.19c.35.12.65.31.91.55s.46.54.6.9c.14.36.22.76.22,1.22ZM484.98,791.68c0-.26-.04-.5-.11-.71-.07-.21-.18-.39-.31-.55-.13-.15-.29-.27-.48-.35s-.4-.12-.63-.12-.44.04-.63.12-.35.2-.48.35c-.13.15-.23.33-.3.55-.07.21-.11.45-.11.71,0,.53.14.94.41,1.23.27.29.64.44,1.12.44.22,0,.43-.04.61-.11s.35-.19.48-.33c.13-.14.24-.32.31-.53.07-.21.11-.44.11-.7ZM484.78,787.03c0-.23-.03-.44-.1-.63s-.16-.35-.27-.49c-.12-.14-.26-.24-.42-.32s-.35-.11-.54-.11-.38.04-.54.11c-.16.07-.3.17-.41.31s-.2.3-.26.49c-.06.19-.09.41-.09.65s.03.45.09.64c.06.19.15.35.26.49s.25.24.42.31c.16.08.35.11.55.11s.38-.04.54-.11.3-.18.42-.31.2-.3.26-.49c.06-.19.09-.41.09-.64Z"></path>
          <path class="cls-8" d="M494.41,790.65c0,.67-.07,1.25-.21,1.76-.14.51-.34.93-.6,1.27-.26.34-.58.6-.96.78-.38.17-.8.26-1.28.26s-.89-.09-1.27-.26c-.38-.18-.7-.43-.96-.78s-.47-.77-.61-1.27c-.14-.51-.22-1.09-.22-1.76v-2.46c0-.67.07-1.25.21-1.76.14-.51.34-.93.61-1.27s.58-.6.96-.78c.38-.17.8-.26,1.27-.26s.9.09,1.28.26c.38.17.7.43.96.78.26.34.47.77.61,1.27.14.51.21,1.09.21,1.76v2.46ZM489.85,790l3-2.46c-.03-.7-.17-1.22-.42-1.56-.25-.34-.61-.51-1.08-.51-.5,0-.88.2-1.13.59-.25.39-.37,1-.37,1.81v2.13ZM492.86,788.87l-3,2.46c.08,1.35.58,2.03,1.5,2.03,1,0,1.5-.81,1.5-2.42v-2.07Z"></path>
          <path class="cls-8" d="M505.45,790.38c0-.68.05-1.32.15-1.92.1-.59.23-1.14.39-1.65.16-.5.35-.96.57-1.38.22-.41.44-.78.68-1.1.24-.32.48-.59.72-.81.24-.22.47-.39.69-.51l.31,1c-.25.21-.49.49-.74.84-.25.35-.47.79-.68,1.31-.2.52-.37,1.13-.49,1.82s-.19,1.49-.19,2.38v.14c0,.89.06,1.68.19,2.37s.29,1.31.49,1.83c.2.52.43.97.68,1.32.25.36.49.65.74.86l-.31.95c-.22-.12-.45-.29-.69-.51-.24-.22-.48-.49-.72-.81-.24-.32-.47-.68-.68-1.09-.22-.41-.41-.87-.57-1.38-.16-.5-.29-1.05-.39-1.65-.1-.59-.15-1.23-.15-1.92v-.11Z"></path>
          <path class="cls-8" d="M518.18,785.2l-3.75,9.37h-1.62l3.75-8.9h-4.86v-1.41h6.48v.94Z"></path>
          <path class="cls-8" d="M521.96,793.56c0-.16.03-.32.08-.47s.12-.27.22-.38c.09-.1.21-.19.35-.25.14-.06.3-.09.48-.09s.34.03.48.09c.14.06.26.15.35.25.1.11.17.23.22.38s.08.3.08.47-.03.32-.08.46-.12.26-.22.36c-.1.1-.22.19-.35.25-.14.06-.3.09-.48.09s-.34-.03-.48-.09c-.14-.06-.26-.14-.35-.25-.09-.1-.17-.23-.22-.36s-.08-.29-.08-.46Z"></path>
          <path class="cls-8" d="M533.97,790.65c0,.67-.07,1.25-.21,1.76-.14.51-.34.93-.6,1.27-.26.34-.58.6-.96.78-.38.17-.8.26-1.27.26s-.89-.09-1.27-.26c-.38-.18-.7-.43-.96-.78-.26-.34-.47-.77-.61-1.27-.14-.51-.22-1.09-.22-1.76v-2.46c0-.67.07-1.25.21-1.76.14-.51.34-.93.61-1.27.26-.34.58-.6.96-.78s.8-.26,1.26-.26.9.09,1.27.26.7.43.96.78c.26.34.47.77.61,1.27.14.51.21,1.09.21,1.76v2.46ZM529.41,790l3-2.46c-.03-.7-.17-1.22-.42-1.56-.25-.34-.61-.51-1.08-.51-.5,0-.88.2-1.13.59-.25.39-.37,1-.37,1.81v2.13ZM532.43,788.87l-3,2.46c.08,1.35.58,2.03,1.5,2.03,1,0,1.5-.81,1.5-2.42v-2.07Z"></path>
          <path class="cls-8" d="M541.71,786.98c0,.51-.12.96-.35,1.35s-.56.7-.97.93c.23.12.44.26.63.43s.35.36.48.57c.13.21.24.45.31.7.07.25.11.52.11.81,0,.48-.08.9-.24,1.27s-.38.68-.65.92c-.28.25-.6.44-.97.56s-.77.19-1.2.19-.84-.07-1.21-.19-.7-.31-.98-.56c-.28-.25-.49-.56-.65-.92s-.24-.79-.24-1.27c0-.28.04-.55.11-.81.07-.26.17-.49.3-.7.13-.21.29-.4.48-.57.19-.17.4-.31.63-.42-.4-.23-.72-.54-.95-.93-.23-.39-.35-.84-.35-1.35,0-.46.07-.86.21-1.22s.34-.66.59-.9.55-.43.9-.55c.35-.12.73-.19,1.14-.19s.79.06,1.14.19.65.31.91.55c.26.24.46.54.6.9.14.36.22.76.22,1.22ZM540.37,791.68c0-.26-.04-.5-.11-.71-.07-.21-.18-.39-.31-.55-.13-.15-.29-.27-.48-.35s-.4-.12-.63-.12-.44.04-.63.12c-.19.08-.35.2-.48.35-.13.15-.23.33-.3.55-.07.21-.11.45-.11.71,0,.53.14.94.41,1.23.27.29.65.44,1.12.44.22,0,.43-.04.62-.11s.35-.19.48-.33c.13-.14.24-.32.31-.53s.11-.44.11-.7ZM540.17,787.03c0-.23-.03-.44-.1-.63-.06-.19-.15-.35-.27-.49-.12-.14-.26-.24-.42-.32-.17-.08-.35-.11-.54-.11s-.38.04-.54.11c-.16.07-.3.17-.41.31s-.2.3-.26.49c-.06.19-.09.41-.09.65s.03.45.09.64c.06.19.15.35.26.49.11.13.25.24.42.31.16.08.34.11.55.11s.38-.04.54-.11c.16-.08.3-.18.42-.31.11-.13.2-.3.26-.49.06-.19.09-.41.09-.64Z"></path>
          <path class="cls-8" d="M549.84,785.2l-3.75,9.37h-1.62l3.75-8.9h-4.86v-1.41h6.48v.94Z"></path>
          <path class="cls-8" d="M553.88,784.45l-.16,2.83h-1.02v-3.58h1.18v.76ZM556.4,784.45l-.16,2.83h-1.02v-3.58h1.18v.76Z"></path>
          <path class="cls-8" d="M564.19,790.49c0,.68-.05,1.31-.15,1.9-.1.59-.23,1.14-.4,1.64-.17.5-.36.96-.58,1.38s-.45.78-.69,1.1c-.24.32-.49.59-.73.82-.25.22-.48.39-.7.51l-.3-.95c.24-.2.48-.48.73-.84.25-.36.47-.8.68-1.33.2-.53.37-1.14.49-1.84s.19-1.5.19-2.38v-.14c0-.89-.07-1.68-.2-2.38-.13-.7-.3-1.32-.51-1.85s-.43-.97-.68-1.33c-.25-.36-.48-.64-.7-.84l.3-.95c.22.12.45.29.7.52s.49.49.73.82c.24.32.47.69.69,1.11s.41.88.58,1.39c.17.5.3,1.05.4,1.65.1.59.15,1.22.15,1.89v.11Z"></path>
        </g>
      </g>
    </g>
  </g>
  <g id="Layer_2" data-name="Layer 2">
    <g id="Watermark">
      <rect class="cls-9" x="438.45" y="660.81" width="123.09" height="46.3"></rect>
      <rect class="cls-16" x="444.86" y="668.65" width="62.89" height="30.62"></rect>
      <rect class="cls-16" x="507.75" y="668.65" width="47.39" height="30.62"></rect>
      <path class="cls-10" d="M466.48,674.75l-2.79,18.92h-2.69l-1.55-11-1.53,11h-2.74l-2.8-18.92h2.51l1.74,14.14,1.79-14.17h2l1.77,14.17,1.81-14.14h2.48Z"></path>
      <path class="cls-10" d="M467.93,693.67v-18.92h2.53v18.92h-2.53Z"></path>
      <path class="cls-10" d="M472.83,674.75h5c1.93,0,2.9,1.08,2.9,3.24v4.66c0,1.65-.51,2.7-1.51,3.14l1.77,7.88h-2.4l-1.66-7.64h-1.53v7.64h-2.53l-.04-18.92ZM475.36,683.87h1.64c.76,0,1.14-.46,1.14-1.37v-4.09c0-.91-.38-1.37-1.14-1.37h-1.66l.02,6.83Z"></path>
      <path class="cls-10" d="M486.82,677.04v16.63h-2.53v-16.63h-2.42v-2.29h7.38v2.29h-2.43Z"></path>
      <path class="cls-10" d="M496.34,693.67v-8.59h-3.11v8.59h-2.53v-18.92h2.53v8h3.11v-8h2.53v18.92h-2.53Z"></path>
      <path class="cls-10" d="M516.31,674.75h5c1.93,0,2.9,1.08,2.89,3.24v4.66c0,1.65-.5,2.7-1.5,3.14l1.77,7.88h-2.47l-1.66-7.64h-1.53v7.64h-2.53l.03-18.92ZM518.84,683.87h1.66c.76,0,1.13-.46,1.13-1.37v-4.09c0-.91-.37-1.37-1.13-1.37h-1.66v6.83Z"></path>
      <path class="cls-10" d="M528.67,693.67h-2.53v-15.68c0-2.16,1-3.24,3-3.24h1.9c2,0,3,1.08,3,3.24v15.68h-2.53v-6.93h-2.9l.06,6.93ZM531.57,684.45v-6.3c.06-.55-.33-1.05-.88-1.11-.08,0-.16,0-.23,0h-.68c-.55-.06-1.05.33-1.11.88,0,.08,0,.16,0,.23v6.3h2.9Z"></path>
      <path class="cls-10" d="M536.34,693.67v-18.92h2.53v18.92h-2.53Z"></path>
      <path class="cls-10" d="M547.24,693.67h-6v-18.92h2.53v16.63h3.47v2.29Z"></path>
    </g>
  </g>
</svg>
