<?xml version="1.0" encoding="UTF-8"?>
<svg xmlns="http://www.w3.org/2000/svg" xmlns:xlink="http://www.w3.org/1999/xlink" viewBox="0 0 1000 800">
  <defs>
    <style>
      .cls-1 {
        clip-path: url(#clippath);
      }

      .cls-2, .cls-3, .cls-4, .cls-5, .cls-6, .cls-7, .cls-8, .cls-9, .cls-10, .cls-11, .cls-12, .cls-13 {
        fill: none;
      }

      .cls-2, .cls-14, .cls-15, .cls-16, .cls-17, .cls-18 {
        stroke-width: 0px;
      }

      .cls-3, .cls-5, .cls-6, .cls-8, .cls-12 {
        stroke: #231f20;
      }

      .cls-3, .cls-6, .cls-10 {
        stroke-width: 1.13px;
      }

      .cls-4 {
        stroke-width: 2px;
      }

      .cls-4, .cls-7, .cls-9, .cls-13 {
        stroke: #000;
        stroke-linecap: round;
        stroke-linejoin: round;
      }

      .cls-5 {
        stroke-width: .98px;
      }

      .cls-19 {
        clip-path: url(#clippath-1);
      }

      .cls-20 {
        clip-path: url(#clippath-4);
      }

      .cls-21 {
        clip-path: url(#clippath-3);
      }

      .cls-22 {
        clip-path: url(#clippath-2);
      }

      .cls-14, .cls-23 {
        fill: #f0f0f0;
      }

      .cls-6 {
        stroke-dasharray: 0 0 17.46 5.32;
      }

      .cls-7 {
        stroke-width: .66px;
      }

      .cls-8 {
        stroke-dasharray: 0 0 17.49 5.36;
      }

      .cls-8, .cls-12 {
        stroke-width: .9px;
      }

      .cls-9 {
        stroke-width: .81px;
      }

      .cls-10, .cls-11 {
        stroke: #303030;
      }

      .cls-10, .cls-11, .cls-23 {
        stroke-miterlimit: 10;
      }

      .cls-11 {
        stroke-width: 1.17px;
      }

      .cls-15 {
        fill: #303030;
      }

      .cls-16 {
        fill: #ccc;
      }

      .cls-23 {
        stroke: #ccc;
      }

      .cls-17 {
        fill: #efefef;
      }

      .cls-18 {
        fill: #231f20;
      }

      .cls-13 {
        stroke-width: .73px;
      }
    </style>
    <clipPath id="clippath">
      <rect class="cls-2" x="14.04" y="127.16" width="985.96" height="545.68"></rect>
    </clipPath>
    <clipPath id="clippath-1">
      <rect class="cls-2" x="14.04" y="127.16" width="985.96" height="545.68"></rect>
    </clipPath>
    <clipPath id="clippath-2">
      <rect class="cls-2" x="14.04" y="127.16" width="985.96" height="545.68"></rect>
    </clipPath>
    <clipPath id="clippath-3">
      <rect class="cls-2" x="14.04" y="127.16" width="985.96" height="545.68"></rect>
    </clipPath>
    <clipPath id="clippath-4">
      <rect class="cls-2" x="14.04" y="127.16" width="985.96" height="545.68"></rect>
    </clipPath>
  </defs>
  <g id="Layer_1" data-name="Layer 1">
    <g>
      <g class="cls-1">
        <path class="cls-17" d="M502.24,192.49l-3.09-.05-112.77,2.92c-42.19-2.33-48.65,20.57-48.65,47.44v190.72c-3.14,17.3-15.41,43.95-59.11,60.48-49.6,5.04-189.15,15.97-189.15,15.97-11.77,0-21.35,14.28-21.35,18.36v23.87c0,4.07,3.3,7.37,7.37,7.37h426.75V192.49Z"></path>
        <path class="cls-17" d="M496.87,192.49l3.09-.05,112.77,2.92c42.19-2.33,48.65,20.57,48.65,47.44v190.72c3.14,17.3,15.41,43.95,59.11,60.48,49.6,5.04,189.15,15.97,189.15,15.97,11.77,0,21.35,14.28,21.35,18.36v23.87c0,4.07-3.3,7.37-7.38,7.37h-426.75V192.49Z"></path>
        <line class="cls-4" x1="337.77" y1="229.76" x2="337.77" y2="417.8"></line>
        <polyline class="cls-4" points="370.25 195.26 369.25 195.26 368.04 195.46 367.03 195.66 365.82 195.86 364.6 196.06 363.6 196.26 362.39 196.67 361.38 196.87 360.37 197.27 359.16 197.68 358.15 198.28 357.14 198.69 356.13 199.29 355.12 199.69 354.11 200.3 353.1 200.9 352.3 201.71 351.29 202.32 350.48 203.12 349.47 203.73 348.66 204.54 347.86 205.34 347.05 206.15 346.24 206.96 345.64 207.97 344.83 208.77 344.23 209.78 343.62 210.79 343.02 211.6 342.41 212.61 341.81 213.62 341.2 214.62 340.8 215.63 340.39 216.84 339.99 217.85 339.59 218.86 339.18 220.07 338.98 221.08 338.58 222.29 338.37 223.3 338.17 224.51 337.97 225.72 337.97 226.73 337.97 227.94 337.77 229.15 337.77 229.76"></polyline>
        <polyline class="cls-4" points="662 229.76 662 228.55 662 227.54 661.8 226.33 661.6 225.12 661.6 224.11 661.4 222.9 660.99 221.69 660.79 220.68 660.39 219.67 660.19 218.46 659.79 217.45 659.38 216.24 658.78 215.23 658.37 214.22 657.77 213.21 657.16 212.2 656.56 211.19 655.95 210.39 655.35 209.38 654.74 208.37 653.93 207.56 653.13 206.76 652.32 205.95 651.71 204.94 650.7 204.33 649.9 203.53 649.09 202.72 648.08 202.11 647.28 201.31 646.27 200.7 645.26 200.1 644.25 199.49 643.24 199.09 642.23 198.48 641.22 198.08 640.21 197.68 639 197.27 637.99 196.87 636.99 196.47 635.77 196.26 634.77 195.86 633.56 195.66 632.35 195.46 631.34 195.46 630.12 195.26 629.52 195.26"></polyline>
        <polyline class="cls-4" points="629.52 195.26 624.27 194.85 616.81 194.45 609.34 194.05 601.68 193.64 594.21 193.44 586.54 193.04 579.08 192.83 571.61 192.43 563.95 192.23 556.48 192.03 549.02 191.82 541.35 191.82 533.88 191.62 526.22 191.42 518.75 191.42 511.29 191.42 503.62 191.42 496.15 191.42 488.69 191.42 481.02 191.42 473.56 191.42 465.89 191.62 458.43 191.82 450.96 191.82 443.29 192.03 435.83 192.23 428.16 192.43 420.7 192.83 413.23 193.04 405.56 193.44 398.1 193.64 390.63 194.05 382.97 194.45 375.5 194.85 370.25 195.26"></polyline>
        <line class="cls-4" x1="908.36" y1="509.2" x2="733.63" y2="495.28"></line>
        <line class="cls-4" x1="932.16" y1="552.17" x2="932.16" y2="535.03"></line>
        <line class="cls-4" x1="74.07" y1="558.63" x2="925.71" y2="558.63"></line>
        <line class="cls-4" x1="266.14" y1="495.28" x2="91.62" y2="509.2"></line>
        <line class="cls-4" x1="662" y1="417.8" x2="662" y2="229.76"></line>
        <polyline class="cls-4" points="932.16 535.02 932.16 534.02 932.16 533.21 931.96 532.2 931.76 531.19 931.76 530.18 931.36 529.17 931.16 528.17 930.96 527.36 930.55 526.35 930.35 525.34 929.95 524.53 929.34 523.52 928.94 522.72 928.53 521.91 927.93 520.9 927.32 520.09 926.72 519.29 926.11 518.68 925.51 517.88 924.9 517.07 924.09 516.46 923.49 515.66 922.68 515.05 921.87 514.44 921.07 513.84 920.26 513.23 919.45 512.83 918.44 512.23 917.64 511.82 916.83 511.42 915.82 511.01 914.81 510.61 914.01 510.41 913 510.01 911.99 509.8 910.98 509.6 910.17 509.4 909.16 509.4 908.36 509.2"></polyline>
        <polyline class="cls-4" points="91.62 509.2 90.61 509.4 89.6 509.4 88.59 509.6 87.58 509.8 86.78 510.21 85.77 510.41 84.76 510.81 83.95 511.01 82.94 511.42 82.14 511.82 81.13 512.43 80.32 512.83 79.51 513.44 78.71 514.04 77.9 514.45 77.09 515.25 76.29 515.86 75.48 516.46 74.87 517.27 74.27 517.87 73.46 518.68 72.85 519.49 72.25 520.3 71.85 521.1 71.24 521.91 70.84 522.72 70.23 523.73 69.83 524.53 69.43 525.54 69.22 526.55 68.82 527.36 68.62 528.37 68.42 529.38 68.21 530.38 68.01 531.19 67.81 532.2 67.81 533.21 67.61 534.22 67.61 535.03"></polyline>
        <polyline class="cls-4" points="925.71 558.63 925.91 558.63 926.11 558.63 926.31 558.63 926.72 558.63 926.92 558.63 927.12 558.63 927.32 558.43 927.52 558.43 927.93 558.43 928.13 558.23 928.33 558.23 928.53 558.03 928.74 557.82 928.94 557.82 929.14 557.62 929.34 557.62 929.54 557.42 929.74 557.22 929.95 557.02 930.15 556.82 930.35 556.82 930.55 556.61 930.75 556.41 930.75 556.21 930.95 556.01 931.16 555.81 931.16 555.61 931.36 555.4 931.56 555 931.56 554.8 931.76 554.6 931.76 554.39 931.76 554.19 931.96 553.99 931.96 553.79 931.96 553.38 932.16 553.18 932.16 552.98 932.16 552.78 932.16 552.38 932.16 552.17"></polyline>
        <polyline class="cls-4" points="733.63 495.28 732.42 495.28 731.21 495.07 730 494.87 728.79 494.67 727.58 494.47 726.37 494.27 725.16 494.07 723.95 493.86 722.73 493.66 721.52 493.26 720.31 493.06 719.1 492.66 717.89 492.45 716.88 492.05 715.67 491.65 714.46 491.24 713.25 490.84 712.24 490.43 711.03 490.03 709.82 489.63 708.81 489.02 707.6 488.62 706.59 488.01 705.38 487.61 704.37 487.01 703.37 486.4 702.15 485.79 701.15 485.19 700.14 484.58 699.13 483.98 697.92 483.37 696.91 482.77 695.9 481.96 694.89 481.36 693.88 480.55 693.08 479.94 692.07 479.14 691.06 478.33 690.05 477.52 689.24 476.72 688.23 475.91 687.43 475.1 686.42 474.29 685.61 473.49 684.6 472.68 683.79 471.87 682.99 470.86 682.18 470.06 681.37 469.05 680.57 468.24 679.76 467.23 678.95 466.22 678.14 465.21 677.54 464.41 676.73 463.4 676.13 462.39 675.32 461.38 674.71 460.37 674.11 459.36 673.3 458.35 672.7 457.14 672.09 456.14 671.49 455.13 670.88 454.12 670.48 452.91 669.87 451.9 669.27 450.69 668.86 449.68 668.26 448.47 667.85 447.46 667.45 446.25 667.05 445.04 666.65 444.03 666.24 442.82 665.84 441.61 665.43 440.4 665.03 439.39 664.63 438.18 664.42 436.97 664.02 435.76 663.82 434.55 663.62 433.34 663.42 432.12 663.21 430.91 663.01 429.7 662.81 428.49 662.61 427.28 662.41 426.07 662.41 424.86 662.21 423.65 662.21 422.44 662 421.23 662 420.02 662 418.81 662 417.8"></polyline>
        <polyline class="cls-4" points="337.77 417.8 337.77 419.01 337.77 420.22 337.77 421.43 337.77 422.64 337.57 423.85 337.57 425.06 337.37 426.27 337.16 427.48 336.96 428.7 336.96 429.91 336.76 431.12 336.36 432.33 336.16 433.54 335.95 434.75 335.75 435.96 335.35 437.17 335.15 438.18 334.74 439.39 334.34 440.6 333.94 441.81 333.53 443.02 333.13 444.03 332.73 445.24 332.32 446.45 331.92 447.46 331.51 448.67 330.91 449.68 330.51 450.89 329.9 451.9 329.3 453.11 328.69 454.12 328.29 455.13 327.68 456.34 327.08 457.35 326.27 458.35 325.66 459.36 325.06 460.37 324.45 461.38 323.65 462.39 323.04 463.4 322.23 464.41 321.43 465.42 320.82 466.43 320.01 467.23 319.21 468.24 318.4 469.25 317.59 470.06 316.79 471.07 315.98 471.87 314.97 472.68 314.16 473.69 313.36 474.49 312.35 475.3 311.54 476.11 310.53 476.92 309.52 477.72 308.72 478.53 307.71 479.14 306.7 479.94 305.69 480.75 304.68 481.36 303.67 482.16 302.66 482.77 301.65 483.37 300.65 483.98 299.64 484.78 298.63 485.39 297.42 486 296.41 486.4 295.4 487.01 294.19 487.61 293.18 488.22 291.97 488.62 290.96 489.22 289.75 489.63 288.74 490.03 287.53 490.43 286.32 490.84 285.31 491.24 284.1 491.65 282.89 492.05 281.68 492.45 280.47 492.86 279.46 493.06 278.25 493.46 277.04 493.66 275.83 493.86 274.62 494.07 273.41 494.47 272.2 494.67 270.99 494.67 269.78 494.87 268.56 495.07 267.35 495.28 266.15 495.28"></polyline>
        <line class="cls-4" x1="67.61" y1="535.02" x2="67.61" y2="552.17"></line>
        <polyline class="cls-4" points="67.61 552.17 67.61 552.58 67.61 552.78 67.81 552.98 67.81 553.18 67.81 553.38 67.81 553.79 68.01 553.99 68.01 554.19 68.01 554.39 68.22 554.6 68.22 554.8 68.42 555.2 68.42 555.4 68.62 555.61 68.82 555.81 68.82 556.01 69.02 556.21 69.22 556.41 69.42 556.61 69.42 556.82 69.63 556.82 69.83 557.02 70.03 557.22 70.23 557.42 70.43 557.62 70.64 557.62 70.84 557.82 71.04 558.02 71.24 558.02 71.44 558.23 71.85 558.23 72.05 558.43 72.25 558.43 72.45 558.43 72.65 558.63 72.86 558.63 73.26 558.63 73.46 558.63 73.66 558.63 73.86 558.63 74.07 558.63"></polyline>
      </g>
      <line class="cls-3" x1="908.34" y1="509.12" x2="973.8" y2="509.12"></line>
      <g class="cls-19">
        <line class="cls-3" x1="932.61" y1="509.12" x2="932.61" y2="672.84"></line>
      </g>
      <line class="cls-12" x1="661.29" y1="132.19" x2="661.29" y2="342.53"></line>
      <line class="cls-5" x1="67.44" y1="549.59" x2="67.44" y2="670.48"></line>
      <g class="cls-22">
        <line class="cls-3" x1="1000" y1="558.91" x2="32.5" y2="558.96"></line>
      </g>
      <line class="cls-8" x1="500.36" y1="612.22" x2="499.56" y2="160.57"></line>
      <line class="cls-6" x1="850.08" y1="408.98" x2="35.27" y2="408.46"></line>
      <line class="cls-12" x1="337.96" y1="132.19" x2="337.96" y2="229.51"></line>
      <g class="cls-21">
        <path class="cls-18" d="M509.34,185.47v-5.47l-4.99-7.45h2.06l2.55,3.9c.47.73.9,1.46,1.32,2.18.4-.68.87-1.44,1.44-2.28l2.5-3.81h1.99l-5.16,7.45v5.47h-1.72Z"></path>
        <path class="cls-18" d="M511.16,580.04v-5.47l-4.99-7.44h2.06l2.55,3.9c.47.73.9,1.46,1.32,2.18.4-.68.87-1.44,1.44-2.28l2.5-3.8h1.99l-5.16,7.44v5.47h-1.72Z"></path>
        <path class="cls-18" d="M866.03,417.82l4.96-6.7-4.4-6.21h2.03l2.37,3.32c.49.69.83,1.2,1.03,1.54.3-.46.64-.95,1.04-1.45l2.53-3.41h1.88l-4.47,6.14,4.83,6.77h-2.1l-3.25-4.58c-.19-.26-.37-.52-.55-.77-.27.4-.46.68-.59.85l-3.27,4.5h-2.05Z"></path>
        <path class="cls-18" d="M14.03,413.98l4.97-6.7-4.4-6.21h2.03l2.38,3.33c.49.68.83,1.2,1.03,1.53.29-.46.64-.95,1.04-1.45l2.53-3.41h1.88l-4.47,6.14,4.83,6.77h-2.1l-3.25-4.58c-.19-.26-.37-.52-.55-.77-.26.4-.46.68-.59.86l-3.27,4.5h-2.06Z"></path>
        <line class="cls-3" x1="964.74" y1="509.12" x2="964.78" y2="558.91"></line>
        <line class="cls-3" x1="964.74" y1="457.25" x2="964.74" y2="502.74"></line>
        <line class="cls-3" x1="964.85" y1="602.44" x2="964.85" y2="564.35"></line>
        <polygon class="cls-15" points="960.68 494.9 964.74 509.58 968.8 494.9 960.68 494.9"></polygon>
        <polygon class="cls-15" points="968.79 573.58 964.74 558.91 960.68 573.58 968.79 573.58"></polygon>
      </g>
      <g>
        <path class="cls-15" d="M959.4,538.3v1.43h-9.13c.33.34.66.8.99,1.36.33.56.58,1.06.74,1.51h-1.39c-.38-.8-.83-1.5-1.37-2.1-.54-.6-1.06-1.02-1.56-1.27v-.92h11.72Z"></path>
        <path class="cls-15" d="M959.4,529.23v1.43h-9.13c.33.34.66.8.99,1.36.33.56.58,1.06.74,1.51h-1.39c-.38-.8-.83-1.5-1.37-2.1-.54-.6-1.06-1.02-1.56-1.27v-.92h11.72Z"></path>
      </g>
      <g>
        <path class="cls-15" d="M40.39,499.73l-.19-1.43c.81-.16,1.4-.44,1.76-.84.36-.4.54-.88.54-1.45,0-.67-.23-1.24-.7-1.71-.47-.46-1.05-.7-1.74-.7s-1.2.21-1.63.64c-.43.43-.64.98-.64,1.64,0,.27.05.61.16,1.01l-1.26-.16c.01-.09.02-.17.02-.23,0-.61-.16-1.16-.48-1.65-.32-.49-.81-.73-1.47-.73-.53,0-.96.18-1.31.53-.35.36-.52.82-.52,1.38s.18,1.02.53,1.39c.35.37.88.61,1.58.72l-.25,1.43c-.96-.17-1.71-.57-2.23-1.19-.53-.62-.79-1.39-.79-2.32,0-.64.14-1.22.41-1.76s.65-.95,1.12-1.23.97-.43,1.5-.43.96.13,1.38.41c.41.27.74.67.99,1.2.16-.69.49-1.23.99-1.61.5-.38,1.13-.57,1.88-.57,1.02,0,1.88.37,2.59,1.11.71.74,1.06,1.68,1.06,2.82,0,1.03-.31,1.88-.92,2.55-.61.68-1.4,1.06-2.37,1.16Z"></path>
        <path class="cls-15" d="M43.47,486.07h-2.79v5.06h-1.31l-7.56-5.33v-1.17h7.56v-1.58h1.31v1.58h2.79v1.43ZM39.36,486.07h-5.26l5.26,3.65v-3.65Z"></path>
        <path class="cls-15" d="M43.47,480.79h-1.63v-1.63h1.63v1.63Z"></path>
      </g>
      <path class="cls-15" d="M34.65,469.66l.11,1.42c-.56.13-.97.31-1.23.54-.41.39-.61.87-.61,1.43,0,.46.13.86.38,1.2.33.45.81.81,1.44,1.07.63.26,1.53.4,2.7.41-.53-.34-.92-.77-1.17-1.27-.25-.5-.38-1.02-.38-1.57,0-.96.35-1.77,1.05-2.44.7-.67,1.61-1.01,2.73-1.01.73,0,1.41.16,2.04.47.63.32,1.11.75,1.45,1.3.33.55.5,1.18.5,1.88,0,1.19-.44,2.17-1.32,2.92-.88.75-2.33,1.13-4.34,1.13-2.26,0-3.9-.42-4.92-1.25-.89-.73-1.34-1.71-1.34-2.94,0-.92.26-1.67.77-2.26.52-.59,1.23-.94,2.13-1.05ZM39.69,475.52c.49,0,.97-.1,1.42-.31.45-.21.79-.5,1.03-.88.24-.38.35-.77.35-1.19,0-.61-.24-1.13-.73-1.56-.49-.44-1.15-.65-1.99-.65s-1.44.21-1.91.65c-.46.43-.7.97-.7,1.62s.23,1.2.7,1.65c.46.45,1.07.68,1.83.68Z"></path>
      <line class="cls-10" x1="49.83" y1="419.06" x2="49.83" y2="544.28"></line>
      <polygon class="cls-15" points="45.95 423.93 50 409.26 54.06 423.93 45.95 423.93"></polygon>
      <polygon class="cls-15" points="45.95 544.28 50 558.96 54.06 544.28 45.95 544.28"></polygon>
      <g>
        <path class="cls-15" d="M464.82,647.94v1.38h-7.72c-.01-.34.04-.68.17-1,.2-.53.51-1.04.94-1.55s1.06-1.1,1.88-1.77c1.27-1.04,2.13-1.86,2.57-2.47.45-.61.67-1.18.67-1.72s-.2-1.05-.61-1.44c-.41-.39-.94-.59-1.59-.59-.69,0-1.24.21-1.66.62-.41.41-.62.99-.63,1.72l-1.47-.15c.1-1.1.48-1.94,1.14-2.51s1.54-.86,2.65-.86,2.01.31,2.66.93.98,1.39.98,2.31c0,.47-.1.93-.29,1.38-.19.45-.51.93-.95,1.43s-1.18,1.18-2.21,2.05c-.86.72-1.41,1.21-1.66,1.47-.24.26-.45.52-.61.78h5.72Z"></path>
        <path class="cls-15" d="M466.35,643.57c0-1.38.14-2.49.43-3.33.28-.84.71-1.49,1.27-1.95.56-.46,1.26-.69,2.11-.69.63,0,1.18.13,1.65.38.47.25.86.62,1.17,1.09.31.47.55,1.05.72,1.74.18.68.26,1.6.26,2.76,0,1.37-.14,2.48-.42,3.32-.28.84-.7,1.49-1.26,1.95-.56.46-1.27.69-2.12.69-1.13,0-2.01-.4-2.65-1.21-.77-.97-1.15-2.55-1.15-4.75ZM467.82,643.57c0,1.92.22,3.19.67,3.83.45.63,1,.95,1.66.95s1.21-.32,1.66-.96c.45-.64.67-1.91.67-3.82s-.22-3.2-.67-3.83c-.45-.63-1.01-.95-1.68-.95s-1.18.28-1.58.84c-.49.71-.74,2.03-.74,3.94Z"></path>
        <path class="cls-15" d="M475.42,643.57c0-1.38.14-2.49.43-3.33.28-.84.71-1.49,1.27-1.95.56-.46,1.26-.69,2.11-.69.63,0,1.18.13,1.65.38.47.25.86.62,1.17,1.09.31.47.55,1.05.72,1.74.18.68.26,1.6.26,2.76,0,1.37-.14,2.48-.42,3.32-.28.84-.7,1.49-1.26,1.95-.56.46-1.27.69-2.12.69-1.12,0-2.01-.4-2.65-1.21-.77-.97-1.15-2.55-1.15-4.75ZM476.89,643.57c0,1.92.22,3.19.67,3.83.45.63,1,.95,1.66.95s1.21-.32,1.66-.96c.45-.64.67-1.91.67-3.82s-.22-3.2-.67-3.83c-.45-.63-1.01-.95-1.68-.95s-1.18.28-1.58.84c-.49.71-.74,2.03-.74,3.94Z"></path>
        <path class="cls-15" d="M492.16,652.75c-.79-1-1.46-2.17-2.01-3.5-.55-1.34-.82-2.72-.82-4.16,0-1.26.2-2.47.61-3.63.48-1.34,1.22-2.68,2.21-4.01h1.03c-.64,1.1-1.07,1.89-1.27,2.36-.32.73-.58,1.5-.76,2.29-.23.99-.34,1.99-.34,2.99,0,2.55.79,5.1,2.38,7.65h-1.03Z"></path>
        <path class="cls-15" d="M494.55,639.18v-1.38h7.56v1.12c-.74.79-1.48,1.84-2.21,3.15-.73,1.31-1.29,2.66-1.69,4.04-.29.98-.47,2.05-.55,3.21h-1.47c.02-.92.2-2.03.54-3.33.35-1.3.84-2.55,1.49-3.76.64-1.21,1.33-2.23,2.06-3.05h-5.72Z"></path>
        <path class="cls-15" d="M504.32,649.32v-1.63h1.63v1.63h-1.63Z"></path>
        <path class="cls-15" d="M510.25,642.99c-.59-.22-1.04-.53-1.32-.93s-.43-.89-.43-1.45c0-.85.31-1.56.92-2.14.61-.58,1.42-.87,2.44-.87s1.84.3,2.46.89.93,1.31.93,2.16c0,.54-.14,1.01-.43,1.41-.28.4-.72.71-1.29.93.72.23,1.26.61,1.64,1.13.37.52.56,1.14.56,1.86,0,1-.35,1.84-1.06,2.52-.71.68-1.64,1.02-2.79,1.02s-2.08-.34-2.79-1.02c-.71-.68-1.06-1.53-1.06-2.55,0-.76.19-1.39.58-1.91.38-.51.93-.86,1.64-1.05ZM509.51,645.95c0,.41.1.8.29,1.19s.48.68.86.89c.38.21.79.31,1.23.31.68,0,1.25-.22,1.7-.66.45-.44.67-1,.67-1.68s-.23-1.26-.69-1.71c-.46-.45-1.03-.68-1.72-.68s-1.23.22-1.68.67c-.44.45-.67,1-.67,1.67ZM509.97,640.56c0,.55.18,1,.53,1.35.36.35.82.53,1.39.53s1-.17,1.36-.52.53-.77.53-1.28-.18-.97-.55-1.33c-.36-.36-.82-.54-1.36-.54s-1,.18-1.36.53c-.36.35-.54.77-.54,1.26Z"></path>
        <path class="cls-15" d="M517.21,639.18v-1.38h7.56v1.12c-.74.79-1.48,1.84-2.21,3.15-.73,1.31-1.29,2.66-1.69,4.04-.29.98-.47,2.05-.55,3.21h-1.47c.02-.92.2-2.03.54-3.33.35-1.3.84-2.55,1.49-3.76.64-1.21,1.33-2.23,2.06-3.05h-5.72Z"></path>
        <path class="cls-15" d="M530.78,649.32v-2.79h-5.06v-1.31l5.33-7.56h1.17v7.56h1.58v1.31h-1.58v2.79h-1.43ZM530.78,645.21v-5.26l-3.65,5.26h3.65Z"></path>
        <path class="cls-15" d="M535.73,641.78l-.4-2.22v-1.91h1.63v1.91l-.36,2.22h-.88ZM538.36,641.78l-.39-2.22v-1.91h1.63v1.91l-.38,2.22h-.86Z"></path>
      </g>
      <path class="cls-15" d="M542.27,652.75h-1.03c1.59-2.55,2.38-5.1,2.38-7.65,0-1-.11-1.99-.34-2.97-.18-.8-.43-1.56-.76-2.29-.21-.48-.63-1.27-1.28-2.39h1.03c1,1.33,1.74,2.67,2.21,4.01.41,1.16.61,2.37.61,3.63,0,1.43-.27,2.82-.82,4.16-.55,1.34-1.22,2.5-2,3.5Z"></path>
      <line class="cls-10" x1="82.04" y1="655.45" x2="923.01" y2="655.45"></line>
      <polygon class="cls-15" points="82.96 659.33 68.29 655.28 82.96 651.22 82.96 659.33"></polygon>
      <polygon class="cls-15" points="917.68 659.33 932.35 655.28 917.68 651.22 917.68 659.33"></polygon>
      <g>
        <path class="cls-15" d="M981.43,382.08c-.22.59-.53,1.03-.93,1.32-.4.29-.89.43-1.45.43-.85,0-1.56-.3-2.14-.92-.58-.61-.87-1.42-.87-2.44s.3-1.84.89-2.46,1.31-.93,2.16-.93c.54,0,1.01.14,1.41.43s.71.71.93,1.29c.23-.72.61-1.26,1.13-1.64s1.14-.56,1.86-.56c1,0,1.84.35,2.52,1.06.68.71,1.02,1.63,1.02,2.79s-.34,2.08-1.02,2.79c-.68.71-1.53,1.06-2.55,1.06-.76,0-1.39-.19-1.91-.58s-.86-.93-1.05-1.64ZM979,382.37c.55,0,1-.18,1.35-.53.35-.36.53-.82.53-1.39s-.17-1-.52-1.36c-.35-.35-.77-.53-1.28-.53s-.97.18-1.33.54c-.36.36-.54.82-.54,1.36s.18,1,.53,1.36c.35.36.77.54,1.26.54ZM984.39,382.83c.41,0,.8-.1,1.19-.29.38-.19.68-.48.89-.86.21-.38.31-.79.31-1.23,0-.68-.22-1.25-.66-1.7-.44-.45-1-.67-1.68-.67s-1.26.23-1.71.69c-.45.46-.68,1.03-.68,1.72s.22,1.23.67,1.68,1,.67,1.67.67Z"></path>
        <path class="cls-15" d="M984.7,375.22l-.13-1.5c.73-.11,1.28-.37,1.65-.78.37-.41.55-.9.55-1.47,0-.69-.26-1.27-.78-1.75-.52-.48-1.21-.72-2.07-.72s-1.46.23-1.94.69c-.47.46-.71,1.06-.71,1.8,0,.46.1.88.31,1.25.21.37.48.66.82.88l-.17,1.35-6-1.13v-5.8h1.37v4.66l3.14.63c-.49-.7-.73-1.44-.73-2.21,0-1.02.35-1.88,1.06-2.58.71-.7,1.61-1.05,2.72-1.05s1.97.31,2.74.92c.94.75,1.42,1.77,1.42,3.07,0,1.06-.3,1.93-.89,2.6-.59.67-1.38,1.05-2.36,1.15Z"></path>
        <path class="cls-15" d="M991.19,358.48c-1,.79-2.17,1.46-3.5,2.01-1.34.55-2.72.82-4.16.82-1.26,0-2.47-.2-3.63-.61-1.34-.48-2.68-1.21-4.01-2.21v-1.03c1.1.64,1.89,1.07,2.36,1.27.73.32,1.5.58,2.29.76.99.23,1.99.34,2.99.34,2.55,0,5.1-.79,7.65-2.38v1.03Z"></path>
        <path class="cls-15" d="M984.68,356.18l-.19-1.43c.81-.16,1.4-.44,1.76-.84.36-.4.54-.88.54-1.45,0-.67-.23-1.24-.7-1.71-.47-.46-1.05-.7-1.74-.7s-1.2.21-1.63.64c-.43.43-.64.98-.64,1.64,0,.27.05.61.16,1.01l-1.26-.16c.01-.09.02-.17.02-.23,0-.61-.16-1.16-.48-1.65s-.81-.73-1.47-.73c-.53,0-.96.18-1.31.53-.34.36-.52.82-.52,1.38s.18,1.02.53,1.39c.35.37.88.61,1.58.72l-.25,1.43c-.96-.17-1.71-.57-2.23-1.19-.53-.62-.79-1.39-.79-2.32,0-.64.14-1.22.41-1.76s.65-.95,1.12-1.23.97-.43,1.5-.43.96.13,1.38.41c.41.27.74.67.99,1.2.16-.69.49-1.23.99-1.61.5-.38,1.13-.57,1.88-.57,1.02,0,1.88.37,2.59,1.11s1.06,1.68,1.06,2.82c0,1.03-.31,1.88-.92,2.55s-1.4,1.06-2.37,1.16Z"></path>
        <path class="cls-15" d="M987.76,346.32h-1.63v-1.63h1.63v1.63Z"></path>
        <path class="cls-15" d="M984.68,342.58l-.19-1.43c.81-.16,1.4-.44,1.76-.84.36-.4.54-.88.54-1.45,0-.67-.23-1.24-.7-1.71-.47-.46-1.05-.7-1.74-.7s-1.2.21-1.63.64c-.43.43-.64.98-.64,1.64,0,.27.05.61.16,1.01l-1.26-.16c.01-.09.02-.17.02-.23,0-.61-.16-1.16-.48-1.65s-.81-.73-1.47-.73c-.53,0-.96.18-1.31.53-.34.36-.52.82-.52,1.38s.18,1.02.53,1.39c.35.37.88.61,1.58.72l-.25,1.43c-.96-.17-1.71-.57-2.23-1.19-.53-.62-.79-1.39-.79-2.32,0-.64.14-1.22.41-1.76s.65-.95,1.12-1.23.97-.43,1.5-.43.96.13,1.38.41c.41.27.74.67.99,1.2.16-.69.49-1.23.99-1.61.5-.38,1.13-.57,1.88-.57,1.02,0,1.88.37,2.59,1.11s1.06,1.68,1.06,2.82c0,1.03-.31,1.88-.92,2.55s-1.4,1.06-2.37,1.16Z"></path>
        <path class="cls-15" d="M987.76,328.93h-2.79v5.06h-1.31l-7.56-5.33v-1.17h7.56v-1.58h1.31v1.58h2.79v1.43ZM983.65,328.93h-5.26l5.26,3.65v-3.65Z"></path>
        <path class="cls-15" d="M978.95,317.02l.11,1.42c-.56.13-.97.31-1.23.54-.41.39-.61.87-.61,1.43,0,.46.13.86.38,1.2.33.45.81.81,1.44,1.07.63.26,1.53.4,2.7.41-.53-.34-.92-.77-1.17-1.27-.25-.5-.38-1.02-.38-1.57,0-.96.35-1.77,1.05-2.44.7-.67,1.61-1.01,2.73-1.01.73,0,1.41.16,2.04.47s1.11.75,1.44,1.3.5,1.18.5,1.88c0,1.19-.44,2.17-1.32,2.92-.88.75-2.33,1.13-4.34,1.13-2.26,0-3.9-.42-4.92-1.25-.89-.73-1.34-1.71-1.34-2.94,0-.92.26-1.67.77-2.26.51-.59,1.23-.94,2.13-1.05ZM983.98,322.87c.49,0,.97-.1,1.42-.31.45-.21.79-.5,1.03-.88s.35-.77.35-1.19c0-.61-.24-1.13-.73-1.56-.49-.44-1.15-.65-1.99-.65s-1.44.21-1.91.65c-.46.43-.7.97-.7,1.62s.23,1.2.7,1.65c.46.45,1.07.68,1.83.68Z"></path>
        <path class="cls-15" d="M980.22,312.28l-2.22.39h-1.91v-1.63h1.91l2.22.38v.86ZM980.22,314.92l-2.22.4h-1.91v-1.63h1.91l2.22.36v.88Z"></path>
        <path class="cls-15" d="M991.19,308.26v1.03c-2.55-1.59-5.1-2.38-7.65-2.38-1,0-1.99.11-2.97.34-.8.18-1.56.43-2.29.76-.48.21-1.27.63-2.39,1.28v-1.03c1.33-1,2.67-1.74,4.01-2.21,1.16-.41,2.37-.61,3.63-.61,1.43,0,2.82.27,4.16.82,1.34.55,2.51,1.22,3.5,2Z"></path>
      </g>
      <line class="cls-10" x1="994.11" y1="203.35" x2="994.11" y2="547.03"></line>
      <polygon class="cls-15" points="990.22 205.84 994.28 191.17 998.34 205.84 990.22 205.84"></polygon>
      <polygon class="cls-15" points="990.22 544.15 994.28 558.83 998.34 544.15 990.22 544.15"></polygon>
      <path class="cls-15" d="M859.65,541.35l-4.57-10.74,4.76-2.02c.96-.41,1.73-.62,2.31-.64.58-.02,1.12.15,1.63.51.51.36.88.84,1.14,1.43.32.76.35,1.51.08,2.24s-.89,1.39-1.86,1.97c.45.02.81.08,1.08.17.58.21,1.17.51,1.79.93l3.11,2.13-1.79.76-2.37-1.63c-.69-.47-1.24-.82-1.65-1.04-.41-.23-.76-.36-1.03-.41-.27-.05-.53-.05-.77-.01-.18.04-.45.13-.81.29l-1.65.7,2.03,4.77-1.42.6ZM858.52,534.75l3.06-1.3c.65-.28,1.13-.56,1.44-.85.31-.29.5-.62.56-1,.06-.38.02-.74-.12-1.09-.22-.51-.58-.85-1.09-1.02-.51-.17-1.16-.09-1.96.25l-3.4,1.44,1.51,3.55Z"></path>
      <path class="cls-15" d="M873.33,525.98l-1.27.66c-.34-.47-.66-.77-.98-.92-.52-.22-1.04-.23-1.56,0-.42.18-.74.45-.96.82-.29.48-.43,1.06-.42,1.74s.23,1.56.68,2.64c.11-.62.35-1.14.71-1.57.36-.43.79-.75,1.29-.97.88-.37,1.77-.37,2.66.02.89.38,1.56,1.09,1.99,2.12.29.67.41,1.36.36,2.06-.04.7-.26,1.32-.63,1.84-.38.52-.89.92-1.53,1.2-1.1.47-2.17.44-3.21-.07-1.04-.51-1.95-1.7-2.74-3.55-.88-2.08-1.14-3.75-.77-5.02.32-1.1,1.05-1.9,2.18-2.38.85-.36,1.64-.42,2.38-.17.74.25,1.34.76,1.81,1.55ZM869.91,532.9c.19.46.47.85.84,1.18s.77.54,1.21.6c.44.07.85.02,1.23-.14.56-.24.94-.66,1.15-1.28.21-.62.15-1.31-.18-2.09-.32-.74-.76-1.24-1.34-1.5-.58-.26-1.17-.26-1.77,0-.6.25-1.01.68-1.24,1.29-.23.6-.2,1.25.09,1.95Z"></path>
      <line class="cls-11" x1="914.78" y1="524.37" x2="854.3" y2="552.23"></line>
      <polygon class="cls-15" points="911.41 521.64 926.43 519.18 914.8 529.01 911.41 521.64"></polygon>
      <g class="cls-20">
        <g>
          <path class="cls-15" d="M470.03,131.01v-1.38h7.56v1.12c-.74.79-1.48,1.84-2.21,3.15-.73,1.31-1.29,2.66-1.69,4.04-.29.98-.47,2.05-.55,3.21h-1.47c.02-.92.2-2.03.54-3.33.35-1.3.84-2.55,1.49-3.76.64-1.21,1.33-2.23,2.06-3.05h-5.72Z"></path>
          <path class="cls-15" d="M479,138.1l1.5-.13c.11.73.37,1.28.78,1.65.41.37.9.55,1.47.55.69,0,1.27-.26,1.75-.78.48-.52.72-1.21.72-2.07s-.23-1.46-.69-1.93c-.46-.47-1.06-.71-1.8-.71-.46,0-.88.11-1.25.32-.37.21-.66.48-.88.82l-1.35-.17,1.13-6h5.8v1.37h-4.66l-.63,3.14c.7-.49,1.44-.73,2.21-.73,1.02,0,1.88.35,2.58,1.06.7.71,1.05,1.61,1.05,2.72s-.31,1.97-.92,2.74c-.75.94-1.77,1.42-3.07,1.42-1.06,0-1.93-.3-2.6-.89-.67-.59-1.05-1.38-1.15-2.37Z"></path>
          <path class="cls-15" d="M495.74,144.59c-.79-1-1.46-2.17-2.01-3.5-.55-1.34-.82-2.72-.82-4.16,0-1.26.2-2.47.61-3.63.48-1.34,1.22-2.68,2.21-4.01h1.03c-.64,1.1-1.07,1.89-1.27,2.36-.32.73-.58,1.5-.76,2.29-.23.99-.34,1.99-.34,2.99,0,2.55.79,5.1,2.38,7.65h-1.03Z"></path>
          <path class="cls-15" d="M505.56,139.78v1.38h-7.72c-.01-.34.04-.68.17-1,.2-.53.51-1.04.94-1.55s1.06-1.1,1.88-1.77c1.27-1.04,2.13-1.86,2.57-2.47.45-.61.67-1.18.67-1.72s-.2-1.05-.61-1.44c-.41-.39-.94-.59-1.59-.59-.69,0-1.24.21-1.66.62s-.62.99-.63,1.72l-1.47-.15c.1-1.1.48-1.94,1.14-2.51s1.54-.86,2.65-.86,2.01.31,2.66.93c.65.62.98,1.39.98,2.31,0,.47-.1.93-.29,1.38-.19.45-.51.93-.95,1.43-.44.5-1.18,1.18-2.21,2.05-.86.72-1.41,1.21-1.66,1.47-.24.26-.45.52-.6.78h5.72Z"></path>
          <path class="cls-15" d="M507.9,141.15v-1.63h1.63v1.63h-1.63Z"></path>
          <path class="cls-15" d="M511.84,138.45l1.38-.13c.12.65.34,1.12.67,1.41s.75.44,1.27.44c.44,0,.83-.1,1.16-.3.33-.2.6-.47.82-.81.21-.34.39-.79.53-1.37.14-.57.22-1.16.22-1.75,0-.06,0-.16,0-.29-.29.46-.68.83-1.17,1.11-.5.28-1.03.43-1.61.43-.97,0-1.78-.35-2.45-1.05-.67-.7-1-1.62-1-2.77s.35-2.14,1.05-2.86c.7-.72,1.57-1.08,2.62-1.08.76,0,1.45.21,2.08.61.63.41,1.11.99,1.43,1.75.33.76.49,1.85.49,3.28s-.16,2.68-.49,3.56-.81,1.56-1.45,2.02c-.64.46-1.39.69-2.25.69-.91,0-1.66-.25-2.24-.76s-.93-1.22-1.04-2.14ZM517.71,133.3c0-.82-.22-1.48-.66-1.96-.44-.48-.96-.72-1.58-.72s-1.19.26-1.66.78c-.47.52-.71,1.19-.71,2.02,0,.74.22,1.35.67,1.81.45.46,1,.7,1.66.7s1.21-.23,1.64-.7c.43-.46.64-1.11.64-1.93Z"></path>
          <path class="cls-15" d="M520.7,138.1l1.5-.13c.11.73.37,1.28.78,1.65.41.37.9.55,1.47.55.69,0,1.27-.26,1.75-.78.48-.52.72-1.21.72-2.07s-.23-1.46-.69-1.93c-.46-.47-1.06-.71-1.8-.71-.46,0-.88.11-1.25.32-.37.21-.66.48-.88.82l-1.35-.17,1.13-6h5.8v1.37h-4.66l-.63,3.14c.7-.49,1.44-.73,2.21-.73,1.02,0,1.88.35,2.58,1.06.7.71,1.05,1.61,1.05,2.72s-.31,1.97-.92,2.74c-.75.94-1.77,1.42-3.07,1.42-1.06,0-1.93-.3-2.6-.89-.67-.59-1.05-1.38-1.15-2.37Z"></path>
          <path class="cls-15" d="M529.77,138.07l1.43-.19c.16.81.44,1.4.84,1.76s.88.54,1.44.54c.67,0,1.24-.23,1.71-.7.46-.47.7-1.05.7-1.74s-.21-1.2-.65-1.63c-.43-.43-.98-.64-1.64-.64-.27,0-.61.05-1.01.16l.16-1.26c.1.01.17.02.23.02.61,0,1.16-.16,1.65-.48.49-.32.73-.81.73-1.47,0-.53-.18-.96-.53-1.31-.36-.34-.81-.52-1.38-.52s-1.02.18-1.39.53c-.37.35-.61.88-.72,1.58l-1.43-.25c.18-.96.57-1.71,1.19-2.23s1.39-.79,2.32-.79c.64,0,1.22.14,1.76.41.54.27.95.65,1.23,1.12.28.47.43.97.43,1.5,0,.5-.14.96-.41,1.38-.27.41-.67.74-1.2.99.69.16,1.23.49,1.61.99.38.5.57,1.13.57,1.88,0,1.02-.37,1.88-1.11,2.59-.74.71-1.68,1.06-2.82,1.06-1.02,0-1.88-.31-2.55-.92s-1.06-1.4-1.16-2.37Z"></path>
          <path class="cls-15" d="M539.31,133.61l-.4-2.22v-1.91h1.63v1.91l-.36,2.22h-.88ZM541.94,133.61l-.39-2.22v-1.91h1.63v1.91l-.38,2.22h-.86Z"></path>
        </g>
        <path class="cls-15" d="M545.87,144.59h-1.03c1.59-2.55,2.38-5.1,2.38-7.65,0-1-.11-1.99-.34-2.97-.18-.8-.43-1.56-.76-2.29-.21-.48-.63-1.27-1.28-2.39h1.03c1,1.33,1.74,2.67,2.21,4.01.41,1.16.61,2.37.61,3.63,0,1.43-.27,2.82-.82,4.16-.55,1.34-1.22,2.5-2,3.5Z"></path>
      </g>
      <line class="cls-10" x1="349.98" y1="147.14" x2="652.28" y2="147.14"></line>
      <polygon class="cls-15" points="352.58 151.02 337.9 146.97 352.58 142.91 352.58 151.02"></polygon>
      <polygon class="cls-15" points="647.58 151.02 662.26 146.97 647.58 142.91 647.58 151.02"></polygon>
      <path class="cls-15" d="M106.17,532.33l-4.55-10.75,4.77-2.02c.96-.41,1.73-.62,2.31-.63.58-.02,1.12.15,1.63.52.5.36.88.84,1.13,1.43.32.76.35,1.51.07,2.24-.27.73-.9,1.39-1.87,1.96.45.02.81.08,1.08.17.58.21,1.17.52,1.79.93l3.11,2.14-1.79.76-2.37-1.64c-.69-.47-1.24-.82-1.65-1.05-.41-.23-.76-.37-1.03-.41-.27-.05-.53-.05-.77-.01-.18.03-.45.13-.81.28l-1.65.7,2.02,4.77-1.42.6ZM105.06,525.72l3.06-1.29c.65-.28,1.13-.56,1.44-.85.31-.29.5-.62.56-1,.07-.38.03-.74-.12-1.08-.21-.51-.58-.85-1.08-1.02s-1.16-.09-1.96.25l-3.4,1.44,1.5,3.56Z"></path>
      <path class="cls-15" d="M121.42,525.86l-1.32.56-3.56-8.41c-.19.44-.48.92-.87,1.44-.39.52-.75.94-1.1,1.27l-.54-1.28c.59-.66,1.06-1.35,1.4-2.08s.53-1.37.57-1.93l.85-.36,4.56,10.79Z"></path>
      <path class="cls-15" d="M125.54,524.11l-.64-1.5,1.5-.64.64,1.5-1.5.64Z"></path>
      <path class="cls-15" d="M127.78,519.84l1.34-.7c.39.63.84,1.04,1.36,1.22.52.18,1.04.16,1.57-.06.64-.27,1.07-.74,1.31-1.4s.19-1.39-.15-2.19c-.32-.75-.78-1.26-1.39-1.51-.61-.26-1.25-.24-1.94.05-.43.18-.77.44-1.03.78-.26.34-.42.7-.49,1.09l-1.31.36-1.29-5.96,5.35-2.26.53,1.26-4.29,1.81.64,3.13c.46-.72,1.04-1.23,1.75-1.53.94-.4,1.87-.41,2.79-.03.92.38,1.6,1.08,2.03,2.1.41.97.48,1.93.22,2.88-.32,1.16-1.08,1.99-2.27,2.5-.98.41-1.89.48-2.74.19-.85-.29-1.51-.86-1.98-1.73Z"></path>
      <line class="cls-10" x1="79.11" y1="553.28" x2="139.64" y2="525.53"></line>
      <polygon class="cls-15" points="82.47 556.01 67.44 558.44 79.09 548.64 82.47 556.01"></polygon>
      <g>
        <path class="cls-15" d="M729.4,444.9l-4.54-10.75,4.77-2.01c.96-.41,1.73-.62,2.31-.63.58-.02,1.12.15,1.63.52.51.36.88.84,1.13,1.43.32.76.35,1.51.07,2.24-.27.73-.9,1.39-1.87,1.96.45.02.81.08,1.08.17.58.21,1.17.52,1.79.93l3.11,2.13-1.79.76-2.37-1.64c-.69-.47-1.24-.82-1.65-1.05s-.76-.37-1.03-.41c-.27-.05-.53-.05-.77-.01-.18.03-.45.13-.81.28l-1.65.7,2.02,4.77-1.42.6ZM728.28,438.29l3.06-1.29c.65-.28,1.13-.56,1.44-.85.31-.29.5-.62.56-1,.07-.38.02-.74-.12-1.08-.21-.51-.58-.85-1.08-1.02-.51-.17-1.16-.09-1.96.25l-3.4,1.44,1.5,3.56Z"></path>
        <path class="cls-15" d="M744.66,438.45l-1.32.56-3.56-8.41c-.19.44-.48.92-.87,1.44-.39.52-.75.95-1.1,1.27l-.54-1.28c.59-.66,1.06-1.35,1.4-2.08.34-.73.53-1.37.57-1.93l.85-.36,4.56,10.79Z"></path>
        <path class="cls-15" d="M747.61,430.33c-.63.03-1.16-.08-1.58-.34-.42-.26-.74-.65-.96-1.17-.33-.78-.33-1.56,0-2.33.34-.77.97-1.35,1.91-1.75.94-.4,1.81-.44,2.61-.14.8.3,1.37.85,1.7,1.63.21.5.26.99.16,1.47-.11.48-.38.93-.83,1.36.75-.06,1.4.07,1.95.4.55.33.96.83,1.24,1.5.39.92.39,1.83,0,2.73-.39.9-1.11,1.58-2.17,2.02-1.06.45-2.05.5-2.97.14-.92-.35-1.57-1-1.97-1.94-.3-.7-.37-1.36-.21-1.98.16-.62.52-1.16,1.11-1.6ZM746.4,428.21c.21.51.55.85,1.02,1.04.46.18.96.17,1.48-.05.51-.21.86-.55,1.05-1.01.19-.46.19-.92-.01-1.38-.2-.48-.54-.82-1.02-1.01-.47-.19-.96-.18-1.46.03-.5.21-.85.55-1.05,1.01-.2.46-.2.92,0,1.37ZM748.07,433.35c.16.38.4.7.73.98.33.28.71.44,1.14.48.43.04.85-.02,1.26-.19.63-.27,1.07-.69,1.3-1.27.24-.58.23-1.18-.04-1.81-.27-.63-.7-1.07-1.3-1.31-.6-.24-1.22-.22-1.85.05-.62.26-1.05.69-1.28,1.27-.23.58-.22,1.18.04,1.8Z"></path>
      </g>
      <line class="cls-10" x1="702.33" y1="465.85" x2="762.87" y2="438.1"></line>
      <polygon class="cls-15" points="705.69 468.58 690.66 471.01 702.31 461.21 705.69 468.58"></polygon>
      <path class="cls-15" d="M391.47,224.49l5.85-10.1,4.48,2.59c.9.52,1.53,1.01,1.9,1.46.36.45.55.99.57,1.61.01.62-.14,1.21-.46,1.77-.42.72-1,1.19-1.75,1.41s-1.65.12-2.69-.31c.26.38.43.7.51.97.18.58.29,1.25.33,1.99l.16,3.77-1.68-.97-.12-2.88c-.04-.83-.09-1.48-.16-1.95-.07-.47-.16-.82-.29-1.07-.12-.25-.28-.45-.45-.62-.13-.12-.37-.28-.72-.48l-1.55-.9-2.6,4.49-1.34-.77ZM396.08,219.62l2.87,1.66c.61.35,1.12.57,1.54.64.42.07.8.02,1.14-.15.34-.17.6-.42.79-.75.28-.48.33-.97.16-1.48-.17-.51-.63-.98-1.38-1.41l-3.2-1.85-1.94,3.34Z"></path>
      <path class="cls-15" d="M406.22,225.72c-.41-.49-.63-.98-.68-1.47-.05-.49.07-.98.35-1.47.43-.74,1.05-1.2,1.87-1.39.82-.19,1.67-.04,2.54.47.88.51,1.44,1.18,1.68,2,.24.82.15,1.6-.28,2.34-.27.47-.63.8-1.08,1.01-.45.2-.98.25-1.58.15.5.56.79,1.16.85,1.8.06.64-.09,1.27-.45,1.89-.5.86-1.23,1.41-2.18,1.65-.95.23-1.93.06-2.92-.51-1-.58-1.63-1.34-1.9-2.28-.27-.94-.15-1.86.36-2.74.38-.66.86-1.11,1.46-1.36.59-.25,1.24-.28,1.95-.08ZM404.09,227.9c-.21.35-.32.74-.34,1.17-.02.43.08.83.3,1.2.22.37.53.67.91.89.59.34,1.19.44,1.8.28.61-.16,1.08-.53,1.42-1.12.35-.6.43-1.21.26-1.83-.17-.62-.56-1.1-1.15-1.45-.58-.34-1.18-.42-1.79-.26-.61.16-1.08.54-1.41,1.11ZM407.19,223.47c-.28.48-.35.96-.22,1.44.13.48.44.86.94,1.15.48.28.96.35,1.44.23.48-.12.85-.4,1.1-.84.26-.45.33-.93.19-1.42-.13-.49-.44-.88-.9-1.15-.47-.27-.95-.35-1.44-.23-.49.12-.85.39-1.1.82Z"></path>
      <line class="cls-10" x1="356.14" y1="215.15" x2="414.74" y2="246.8"></line>
      <polygon class="cls-15" points="355.98 219.48 344.99 208.94 359.84 212.35 355.98 219.48"></polygon>
      <path class="cls-15" d="M558.58,262.56l-11.65-.66.29-5.17c.06-1.04.21-1.82.45-2.35.24-.53.63-.94,1.18-1.23.55-.29,1.14-.42,1.78-.38.83.05,1.51.35,2.04.92.54.57.85,1.42.94,2.54.22-.4.43-.7.63-.9.44-.43.98-.82,1.62-1.19l3.29-1.85-.11,1.94-2.51,1.41c-.73.41-1.28.75-1.67,1.02s-.66.52-.82.74c-.16.22-.28.45-.35.69-.05.17-.08.46-.1.85l-.1,1.79,5.17.29-.09,1.54ZM552.16,260.65l.19-3.31c.04-.71,0-1.26-.12-1.67-.12-.41-.34-.72-.65-.95s-.65-.35-1.03-.37c-.55-.03-1.02.14-1.39.52-.38.38-.59,1-.64,1.87l-.21,3.69,3.85.22Z"></path>
      <path class="cls-15" d="M556.16,251.23l-.04-1.51c.74-.07,1.3-.3,1.69-.68.39-.38.6-.86.64-1.44.04-.69-.19-1.29-.68-1.79-.49-.51-1.17-.79-2.03-.83-.82-.05-1.47.15-1.97.58-.5.43-.77,1.02-.81,1.76-.03.46.05.88.24,1.27.19.38.44.69.77.92l-.25,1.33-5.92-1.47.33-5.79,1.37.08-.27,4.65,3.1.81c-.45-.73-.65-1.47-.61-2.24.06-1.02.46-1.86,1.2-2.52.74-.66,1.67-.96,2.78-.89,1.05.06,1.95.42,2.68,1.08.9.8,1.31,1.85,1.24,3.14-.06,1.06-.41,1.91-1.04,2.54-.63.64-1.44.97-2.43,1.01Z"></path>
      <path class="cls-15" d="M553.98,242.01c-1.38-.08-2.48-.28-3.3-.62-.82-.33-1.45-.79-1.87-1.38s-.61-1.3-.56-2.15c.04-.62.19-1.17.47-1.62s.66-.83,1.16-1.11c.49-.28,1.08-.49,1.77-.62.69-.14,1.61-.17,2.77-.1,1.37.08,2.46.28,3.29.61.82.33,1.45.79,1.88,1.37.43.59.62,1.3.57,2.16-.06,1.12-.52,1.98-1.36,2.58-1.01.71-2.61,1.01-4.8.88ZM554.07,240.54c1.91.11,3.2-.04,3.86-.45.66-.41,1.01-.95,1.04-1.6.04-.66-.25-1.23-.86-1.71-.61-.48-1.87-.78-3.78-.89-1.92-.11-3.21.04-3.86.45-.66.41-1,.95-1.04,1.62-.04.66.21,1.2.75,1.62.68.53,1.98.86,3.89.96Z"></path>
      <path class="cls-15" d="M554.5,232.95c-1.38-.08-2.48-.28-3.3-.62-.82-.33-1.45-.79-1.87-1.38-.42-.58-.61-1.3-.56-2.15.04-.62.19-1.17.47-1.62s.66-.83,1.16-1.11c.49-.28,1.08-.49,1.77-.62.69-.14,1.61-.17,2.77-.1,1.37.08,2.46.28,3.29.61.82.33,1.45.79,1.88,1.37.43.59.62,1.3.57,2.16-.06,1.12-.52,1.98-1.36,2.58-1.01.71-2.61,1.01-4.8.88ZM554.59,231.48c1.91.11,3.2-.04,3.86-.45.66-.41,1.01-.95,1.04-1.6.04-.66-.25-1.23-.86-1.71s-1.87-.78-3.78-.89c-1.92-.11-3.21.04-3.86.45-.66.41-1,.95-1.04,1.62-.04.66.21,1.2.75,1.62.68.53,1.98.86,3.89.96Z"></path>
      <line class="cls-10" x1="567.84" y1="205.64" x2="566.04" y2="272.21"></line>
      <polygon class="cls-15" points="563.91 207.45 568.35 192.9 572.01 207.68 563.91 207.45"></polygon>
      <line class="cls-13" x1="337.77" y1="489.7" x2="337.77" y2="246.05"></line>
      <line class="cls-9" x1="905.34" y1="509.07" x2="662" y2="489.63"></line>
      <line class="cls-9" x1="180.8" y1="502.17" x2="337.77" y2="489.63"></line>
      <line class="cls-7" x1="661.92" y1="489.69" x2="661.92" y2="239.33"></line>
    </g>
  </g>
  <g id="Layer_2" data-name="Layer 2">
    <g id="Watermark">
      <rect class="cls-14" x="438.45" y="451.26" width="123.09" height="46.3"></rect>
      <rect class="cls-23" x="444.86" y="459.1" width="62.89" height="30.62"></rect>
      <rect class="cls-23" x="507.75" y="459.1" width="47.39" height="30.62"></rect>
      <path class="cls-16" d="M466.48,465.2l-2.79,18.92h-2.69l-1.55-11-1.53,11h-2.74l-2.8-18.92h2.51l1.74,14.14,1.79-14.17h2l1.77,14.17,1.81-14.14h2.48Z"></path>
      <path class="cls-16" d="M467.93,484.12v-18.92h2.53v18.92h-2.53Z"></path>
      <path class="cls-16" d="M472.83,465.2h5c1.93,0,2.9,1.08,2.9,3.24v4.66c0,1.65-.51,2.7-1.51,3.14l1.77,7.88h-2.4l-1.66-7.64h-1.53v7.64h-2.53l-.04-18.92ZM475.36,474.32h1.64c.76,0,1.14-.46,1.14-1.37v-4.09c0-.91-.38-1.37-1.14-1.37h-1.66l.02,6.83Z"></path>
      <path class="cls-16" d="M486.82,467.49v16.63h-2.53v-16.63h-2.42v-2.29h7.38v2.29h-2.43Z"></path>
      <path class="cls-16" d="M496.34,484.12v-8.59h-3.11v8.59h-2.53v-18.92h2.53v8h3.11v-8h2.53v18.92h-2.53Z"></path>
      <path class="cls-16" d="M516.31,465.2h5c1.93,0,2.9,1.08,2.89,3.24v4.66c0,1.65-.5,2.7-1.5,3.14l1.77,7.88h-2.47l-1.66-7.64h-1.53v7.64h-2.53l.03-18.92ZM518.84,474.32h1.66c.76,0,1.13-.46,1.13-1.37v-4.09c0-.91-.37-1.37-1.13-1.37h-1.66v6.83Z"></path>
      <path class="cls-16" d="M528.67,484.12h-2.53v-15.68c0-2.16,1-3.24,3-3.24h1.9c2,0,3,1.08,3,3.24v15.68h-2.53v-6.93h-2.9l.06,6.93ZM531.57,474.9v-6.3c.06-.55-.33-1.05-.88-1.11-.08,0-.16,0-.23,0h-.68c-.55-.06-1.05.33-1.11.88,0,.08,0,.16,0,.23v6.3h2.9Z"></path>
      <path class="cls-16" d="M536.34,484.12v-18.92h2.53v18.92h-2.53Z"></path>
      <path class="cls-16" d="M547.24,484.12h-6v-18.92h2.53v16.63h3.47v2.29Z"></path>
    </g>
  </g>
</svg>
