<?xml version="1.0" encoding="UTF-8"?>
<svg xmlns="http://www.w3.org/2000/svg" xmlns:xlink="http://www.w3.org/1999/xlink" viewBox="0 0 1000 800">
  <defs>
    <style>
      .cls-1 {
        clip-path: url(#clippath);
      }

      .cls-2, .cls-3, .cls-4 {
        fill: none;
      }

      .cls-2, .cls-5, .cls-6, .cls-7, .cls-8 {
        stroke-width: 0px;
      }

      .cls-9 {
        clip-path: url(#clippath-1);
      }

      .cls-10 {
        clip-path: url(#clippath-2);
      }

      .cls-3 {
        stroke-width: 2px;
      }

      .cls-3, .cls-4 {
        stroke: #231f20;
        stroke-linecap: round;
        stroke-linejoin: round;
      }

      .cls-5 {
        fill: #f1f0f0;
      }

      .cls-6, .cls-11 {
        fill: #f0f0f0;
      }

      .cls-7 {
        fill: #ccc;
      }

      .cls-11 {
        stroke: #ccc;
        stroke-miterlimit: 10;
      }

      .cls-8 {
        fill: #231f20;
      }
    </style>
    <clipPath id="clippath">
      <rect class="cls-2" x="43.08" y="2.5" width="777.56" height="795"></rect>
    </clipPath>
    <clipPath id="clippath-1">
      <rect class="cls-2" x="43.08" y="2.5" width="777.56" height="795"></rect>
    </clipPath>
    <clipPath id="clippath-2">
      <rect class="cls-2" x="43.08" y="2.5" width="777.56" height="795"></rect>
    </clipPath>
  </defs>
  <g id="Layer_1" data-name="Layer 1">
    <g>
      <polygon class="cls-5" points="633.77 250.92 635.82 250.2 637.62 249.12 639.31 247.68 640.63 245.99 641.59 244.07 642.19 242.03 642.43 239.86 642.43 146.33 641.47 136.71 638.82 127.45 634.38 118.8 628.48 111.22 621.27 104.85 612.98 99.92 603.96 96.68 594.34 95.11 499.97 92.11 405.47 95.11 395.97 96.68 386.95 99.92 378.66 104.85 371.45 111.22 365.43 118.8 361.11 127.45 358.46 136.71 357.5 146.33 357.5 239.86 357.74 242.03 358.34 244.07 359.3 245.99 360.63 247.68 362.19 249.12 364.11 250.2 366.16 250.92 438.05 268.96 444.3 271.12 450.07 274.37 455.24 278.58 459.57 283.62 462.94 289.39 465.22 295.65 466.42 302.26 471.11 456.26 459.21 609.91 457.89 615.56 455.72 620.97 452.72 625.9 448.75 630.23 444.18 633.84 439.13 636.72 433.6 638.52 337.66 662.57 309.65 667.02 225.73 672.55 223.57 672.91 221.53 673.63 219.73 674.71 218.16 676.15 216.84 677.84 215.88 679.76 215.28 681.8 215.03 683.97 215.03 718.83 784.9 718.83 784.9 683.97 784.66 681.8 784.05 679.76 783.09 677.84 781.77 676.15 780.21 674.71 778.28 673.63 776.36 672.91 774.2 672.55 690.28 667.02 662.27 662.57 566.33 638.52 560.8 636.72 555.75 633.84 551.18 630.23 547.21 625.9 544.21 620.97 541.92 615.56 540.72 609.91 528.82 456.26 533.51 302.26 534.71 295.65 536.99 289.39 540.36 283.62 544.69 278.58 549.74 274.37 555.63 271.12 561.88 268.96 633.77 250.92"></polygon>
      <polyline class="cls-3" points="633.77 250.92 635.82 250.2 637.62 249.12 639.31 247.68 640.63 245.99 641.59 244.07 642.19 242.03 642.43 239.86 642.43 146.33 641.47 136.71 638.82 127.45 634.38 118.8 628.48 111.22 621.27 104.85 612.98 99.92 603.96 96.68 594.34 95.11 499.97 92.11 405.47 95.11 395.97 96.68 386.95 99.92 378.66 104.85 371.45 111.22 365.43 118.8 361.11 127.45 358.46 136.71 357.5 146.33 357.5 239.86 357.74 242.03 358.34 244.07 359.3 245.99 360.63 247.68 362.19 249.12 364.11 250.2 366.16 250.92 438.05 268.96 444.3 271.12 450.07 274.37 455.24 278.58 459.57 283.62 462.94 289.39 465.22 295.65 466.42 302.26 471.11 456.26 459.21 609.91 457.89 615.56 455.72 620.97 452.72 625.9 448.75 630.23 444.18 633.84 439.13 636.72 433.6 638.52 337.66 662.57 309.65 667.02 225.73 672.55 223.57 672.91 221.53 673.63 219.73 674.71 218.16 676.15 216.84 677.84 215.88 679.76 215.28 681.8 215.03 683.97 215.03 718.83 784.9 718.83 784.9 683.97 784.66 681.8 784.05 679.76 783.09 677.84 781.77 676.15 780.21 674.71 778.28 673.63 776.36 672.91 774.2 672.55 690.28 667.02 662.27 662.57 566.33 638.52 560.8 636.72 555.75 633.84 551.18 630.23 547.21 625.9 544.21 620.97 541.92 615.56 540.72 609.91 528.82 456.26 533.51 302.26 534.71 295.65 536.99 289.39 540.36 283.62 544.69 278.58 549.74 274.37 555.63 271.12 561.88 268.96 633.77 250.92"></polyline>
      <polyline class="cls-8" points="676.09 752.38 690.28 754.66 690.28 749.97"></polyline>
      <polyline class="cls-8" points="770.59 754.66 784.9 752.37 770.59 749.97"></polyline>
      <polyline class="cls-8" points="529.78 360.81 543.97 363.81 544.09 359.12"></polyline>
      <polyline class="cls-8" points="781.17 676.27 792.47 667.26 788.98 664.13"></polyline>
      <polyline class="cls-8" points="418.93 108.58 423.74 108.34 420.62 94.27"></polyline>
      <polyline class="cls-8" points="563.08 283.26 567.65 282.18 561.88 268.96"></polyline>
      <polyline class="cls-8" points="546.73 529.12 532.31 527.8 546.37 524.43"></polyline>
      <polyline class="cls-8" points="615.02 117.84 611.17 115.07 621.51 104.97"></polyline>
      <polyline class="cls-8" points="246.41 92.11 248.82 106.29 244.01 106.29"></polyline>
      <polyline class="cls-8" points="246.41 284.34 248.82 270.16 244.01 270.16"></polyline>
      <polyline class="cls-8" points="302.44 248.76 304.84 234.57 300.15 234.57"></polyline>
      <polyline class="cls-8" points="302.44 92.11 304.84 106.29 300.15 106.29"></polyline>
      <polyline class="cls-8" points="99.86 718.83 102.15 704.65 97.46 704.65"></polyline>
      <polyline class="cls-8" points="99.86 622.05 102.15 636.24 97.46 636.24"></polyline>
      <polyline class="cls-8" points="146.51 718.83 148.79 704.65 144.1 704.65"></polyline>
      <polyline class="cls-8" points="471.47 425.85 485.66 428.25 485.66 423.44"></polyline>
      <polyline class="cls-8" points="514.15 428.25 528.46 425.85 514.15 423.44"></polyline>
      <polyline class="cls-8" points="628.12 36.08 642.43 33.68 628.12 31.27"></polyline>
      <polyline class="cls-8" points="357.5 33.68 371.81 36.08 371.81 31.28"></polyline>
      <polyline class="cls-8" points="73.89 718.83 76.3 704.65 71.61 704.65"></polyline>
      <polyline class="cls-8" points="73.89 92.11 76.3 106.29 71.61 106.29"></polyline>
      <polyline class="cls-8" points="770.59 784.23 784.9 781.83 770.59 779.55"></polyline>
      <polyline class="cls-8" points="215.04 781.83 229.34 784.24 229.34 779.55"></polyline>
      <polyline class="cls-8" points="146.51 673.27 148.79 687.57 144.1 687.57"></polyline>
      <g class="cls-1">
        <path class="cls-3" d="M499.97,486.8v-7.09M499.97,536.69v-42.8M499.97,550.88v-7.09M499.97,600.77v-42.68M499.97,614.96v-7.09M499.97,664.85v-42.68M499.97,679.16v-7.21M499.97,728.93v-42.68M499.97,743.24v-7.09M499.97,796.5v-46.17"></path>
      </g>
      <path class="cls-3" d="M300.15,106.29h4.69M304.84,106.29l-2.41-14.19M302.44,92.11l-2.28,14.19M97.46,704.65h4.69M102.14,704.65l-2.28,14.19M99.86,718.83l-2.41-14.19M97.46,636.24h4.69M102.14,636.24l-2.28-14.19M99.86,622.05l-2.41,14.19M144.1,687.57h4.69M148.79,687.57l-2.29-14.31M146.51,673.27l-2.4,14.31M144.1,704.65h4.69M148.79,704.65l-2.29,14.19M146.51,718.83l-2.4-14.19M485.66,423.44v4.81M485.66,428.25l-14.19-2.41M471.47,425.85l14.19-2.4M514.15,423.44l14.31,2.4M528.46,425.85l-14.31,2.41M514.15,428.25v-4.81M628.12,31.27l14.31,2.4M642.43,33.68l-14.31,2.41M628.12,36.08v-4.81M371.81,31.27v4.81M371.81,36.08l-14.31-2.41M357.5,33.68l14.31-2.4M71.61,704.65h4.69M76.3,704.65l-2.4,14.19M73.89,718.83l-2.29-14.19M71.61,106.29h4.69M76.3,106.29l-2.4-14.19M73.89,92.11l-2.29,14.19M770.59,779.55l14.31,2.28M784.9,781.83l-14.31,2.41M770.59,784.24v-4.69M229.34,779.55v4.69M229.34,784.24l-14.31-2.41M215.04,781.83l14.31-2.28M499.97,87.9v-46.17M499.97,102.21v-7.09M499.97,152.1v-42.8M499.97,166.29v-7.09M499.97,216.18v-42.8M499.97,230.36v-7.09M499.97,280.26v-42.68M499.97,294.56v-7.21M499.97,344.34v-42.68M499.97,358.64v-7.21M499.97,408.42v-42.68M499.97,422.72v-7.09M499.97,472.62v-42.8"></path>
      <path class="cls-4" d="M784.9,718.83h0M215.03,718.83h0M229.34,781.83h541.25M784.9,722.44v66.48M215.03,722.44v66.48M690.28,749.97v4.69M690.28,754.66l-14.19-2.28M676.09,752.38l14.19-2.41M770.59,749.97l14.31,2.41M784.9,752.38l-14.31,2.28M770.59,754.66v-4.69M544.09,359.12l-.12,4.69M543.97,363.81l-14.19-3M529.78,360.81l14.31-1.68M788.98,664.13l3.49,3.13M792.47,667.26l-11.3,9.02M781.17,676.27l7.81-12.14M420.62,94.27l3.13,14.07M423.74,108.34l-4.81.24M418.94,108.58l1.68-14.31M561.88,268.96l5.77,13.22M567.65,282.18l-4.57,1.08M563.08,283.26l-1.2-14.31M546.37,524.43l-14.07,3.37M532.31,527.8l14.43,1.32M546.73,529.12l-.36-4.69M621.51,104.97l-10.34,10.1M611.17,115.07l3.85,2.76M615.02,117.83l6.49-12.86M244.01,106.29h4.81M248.82,106.29l-2.41-14.19M246.41,92.11l-2.4,14.19M244.01,270.16h4.81M248.82,270.16l-2.41,14.19M246.41,284.35l-2.4-14.19M300.15,234.57h4.69M304.84,234.57l-2.41,14.19M302.44,248.76l-2.29-14.19"></path>
      <g class="cls-9">
        <path class="cls-4" d="M634.98,365.38l-105.2-4.57M819.64,633.95l-38.47,42.32M425.67,189.01l-5.05-94.74M571.02,305.38h0M561.88,268.96h0M575.47,323.3l-10.1-40.52M638.7,519.98l-106.4,7.82M591.1,146.33h0M587.49,151.14l34.03-46.17M246.41,92.11h0M499.97,92.11h0M499.97,284.34h0M246.41,270.16V106.29M496.36,92.11H239.32M496.36,284.34H239.32M302.44,248.76h0M357.5,248.76h0M499.97,92.11h0M302.44,106.29v128.28M353.89,248.76h-58.55M496.36,92.11h-201.01M99.86,718.83h0M215.04,718.83h0M499.97,622.05h0M99.86,636.24v68.41M211.55,718.83h-118.9M496.36,622.05H92.65M499.97,284.34l-61.92-15.39M146.51,673.27h0M226.46,673.27h0M215.04,718.83h0M146.51,673.27v-50.01M146.51,704.65v-17.07M222.85,673.27h-83.55M211.55,718.83h-72.25M528.46,425.85h0M528.46,429.94h0M471.47,429.94h0M471.47,425.85h-75.98M514.15,425.85h-28.49M528.46,426.45v-7.7M471.47,426.45v-7.7M642.43,33.68h0M642.43,146.33h0M357.5,146.33h0M371.81,33.68h256.32M642.43,142.72V26.59M357.5,142.72V26.59M73.89,718.83h0M784.9,718.83h0M499.97,92.11h0M73.89,106.29v598.35M781.29,718.83H66.8M496.36,92.11H66.8M784.9,781.83h0"></path>
      </g>
      <path class="cls-4" d="M676.09,752.38h0M676.09,666.05h0M784.9,718.83h0M770.59,752.38h-80.31M676.09,669.54v89.93M784.9,722.44v37.03"></path>
      <g class="cls-10">
        <path class="cls-3" d="M44.92,417.31l2.16.96M47.08,418.27l2.29.6M49.37,418.88l2.41.24M51.77,419.12l2.4-.24M54.18,418.88l2.29-.6M56.46,418.27l2.16-.96M59.47,424.17h-15.39l3.49,3.49M59.47,432.7h-15.39l3.49,3.49"></path>
        <path class="cls-3" d="M58.62,417.31l.24-.24M58.86,417.07l.24-.36M59.11,416.71l.24-.36M59.35,416.35l.12-.36M59.47,415.99v-.36M59.47,415.63v-.36M59.47,415.27l-.12-.36M59.35,414.91l-.24-.36M59.11,414.55l-.24-.36M58.86,414.19l-.24-.24M58.62,413.95l-2.16-.96M56.46,412.98l-2.29-.6M54.18,412.38l-2.4-.24M51.77,412.14l-2.41.24M49.37,412.38l-2.28.6M47.08,412.98l-2.16.96M44.92,413.95l-.24.24M44.68,414.19l-.24.36M44.44,414.55l-.24.36M44.2,414.91l-.12.36M44.08,415.27v.36M44.08,415.63v.36M44.08,415.99l.12.36M44.2,416.35l.24.36M44.44,416.71l.24.36M44.68,417.07l.24.24"></path>
        <path class="cls-3" d="M493.47,18.89l.6-.12M494.07,18.77l.6-.12M494.68,18.65l.6-.24M495.28,18.41l.48-.36M495.76,18.05l.36-.48M496.12,17.57l.36-.48M496.48,17.09l.24-.48M496.72,16.61l.12-.6M496.84,16.01l.12-.6M493.47,10.24h-3.37V3.5h6.01M496.96,15.41v-1.68M490.11,18.89h3.37"></path>
        <path class="cls-3" d="M503.81,17.93l.24.36M504.05,18.29l.36.24M504.41,18.53l.36.12M504.77,18.65l.36.12M505.14,18.77l.36.12M505.5,18.89l.36-.12M505.86,18.77l.36-.12M506.22,18.65l.36-.12M506.58,18.53l.36-.24M506.94,18.29l.24-.36M507.18,17.93l.96-2.16M508.14,15.77l.6-2.29M508.74,13.48l.24-2.28M508.98,11.2l-.24-2.41M508.74,8.79l-.6-2.28M508.14,6.51l-.96-2.16M507.18,4.34l-.24-.36M506.94,3.98l-.36-.24M506.58,3.74l-.36-.12M506.22,3.62l-.36-.12M505.86,3.5h-.36M505.5,3.5h-.36M505.14,3.5l-.36.12M504.77,3.62l-.36.12M504.41,3.74l-.36.24M504.05,3.98l-.24.36M503.81,4.34l-.96,2.16M502.85,6.51l-.6,2.28M502.25,8.79l-.24,2.41M502.01,11.2l.24,2.28M502.25,13.48l.6,2.29M502.85,15.77l.96,2.16M496.96,13.72l-.12-.72M496.84,13l-.12-.6M496.72,12.4l-.36-.6M496.36,11.8l-.36-.48M496,11.32l-.6-.48M495.4,10.84l-.6-.24M494.8,10.6l-.6-.24M494.19,10.36l-.72-.12"></path>
      </g>
      <path class="cls-3" d="M408.48,410.58l.24.24M408.72,410.82l.24.24M408.96,411.06l.36.24M409.32,411.3l.48.12M409.8,411.42h.36M410.16,411.42h.36M410.52,411.42l.36-.12M410.88,411.3l.36-.24M411.24,411.06l.36-.24M411.6,410.82l.24-.24M411.84,410.58l.96-2.16M412.8,408.42l.6-2.41M413.41,406.01l.12-2.28M413.53,403.73l-.12-2.41M413.41,401.32l-.6-2.29M412.8,399.04l-.96-2.16M411.84,396.87l-.24-.36M411.6,396.51l-.36-.24M411.24,396.27l-.36-.12M410.88,396.15l-.36-.12M410.52,396.03h-.36M410.16,396.03h-.36M409.8,396.03l-.48.12M409.32,396.15l-.36.12M408.96,396.27l-.24.24M408.72,396.51l-.24.36M408.48,396.87l-.96,2.16M407.51,399.04l-.6,2.29M406.91,401.32l-.24,2.41M406.67,403.73l.24,2.28M406.91,406.01l.6,2.41M407.51,408.42l.96,2.16M401.62,411.42v-15.39l-3.49,3.37"></path>
      <path class="cls-3" d="M130.04,644.05l-.6.12M129.44,644.17l-.72.12M128.72,644.29l-.48.36M128.23,644.66l-.6.48M127.63,645.14l-.36.48M127.27,645.62l-.36.6M126.91,646.22l-.24.6M126.67,646.82v.72M126.67,647.54v.6M126.67,648.14l.24.72M126.91,648.86l.36.48M127.27,649.34l.36.6M127.63,649.95l.6.36M128.23,650.31l.48.36M128.72,650.67l.72.24M129.44,650.91h.6M130.04,650.91h.72M130.76,650.91l.6-.24M131.36,650.67l.6-.36M131.96,650.31l.48-.36M132.44,649.95l.48-.6M132.92,649.34l.36-.48M133.28,648.86l.12-.72M133.4,648.14l.12-.6M133.52,647.54l-.12-.72M133.4,646.82l-.12-.6M133.28,646.22l-.36-.6M132.92,645.62l-.48-.48M132.44,645.14l-.48-.48M131.96,644.66l-.6-.36M131.36,644.29l-.6-.12M130.76,644.17l-.72-.12M138.57,650.91h.72M139.3,650.91l.6-.24M139.89,650.67l.6-.36M140.5,650.31l.6-.36M141.1,649.95l.36-.6M141.46,649.34l.36-.48M141.82,648.86l.12-.72M141.94,648.14l.12-.6M142.06,647.54l-.12-.72M141.94,646.82l-.12-.6M141.82,646.22l-.36-.6M141.46,645.62l-.36-.48M141.1,645.14l-.6-.48M140.5,644.66l-.6-.36M139.89,644.29l-.6-.12M139.3,644.17l-.72-.12M136.89,644.05l-.6.12M136.29,644.17l-.72.12M135.57,644.29l-.6.36M134.97,644.66l-.48.48M134.48,645.14l-.36.48M134.13,645.62l-.36.6M133.77,646.22l-.24.6M133.52,646.82v.72M133.52,647.54v.6M133.52,648.14l.24.72M133.77,648.86l.36.48M134.13,649.34l.36.6M134.48,649.95l.48.36M134.97,650.31l.6.36M135.57,650.67l.72.24M136.29,650.91h.6M138.57,650.91h-1.68M136.89,644.05h1.68"></path>
      <path class="cls-3" d="M286.09,158.83h-.72M285.37,158.83l-.6.24M284.76,159.07l-.6.24M284.16,159.31l-.48.48M283.68,159.79l-.48.48M283.2,160.27l-.24.6M282.96,160.87l-.24.6M282.72,161.48v.72M282.72,162.2v.72M282.72,162.92l.24.6M282.96,163.52l.24.6M283.2,164.12l.48.48M283.68,164.6l.48.48M284.16,165.08l.6.24M284.76,165.32l.6.24M285.37,165.56h.72M286.09,165.56h.72M286.81,165.56l.6-.24M287.41,165.32l.6-.24M288.01,165.08l.48-.48M288.49,164.6l.48-.48M288.97,164.12l.24-.6M289.21,163.52l.24-.6M289.45,162.92v-.72M289.45,162.2v-.72M289.45,161.48l-.24-.6M289.21,160.87l-.24-.6M288.97,160.27l-.48-.48M288.49,159.79l-.48-.48M288.01,159.31l-.6-.24M287.41,159.07l-.6-.24M286.81,158.83h-.72M294.62,165.56h.72M295.34,165.56l.6-.24M295.95,165.32l.6-.24M296.55,165.08l.48-.48M297.03,164.6l.48-.48M297.51,164.12l.24-.6M297.75,163.52l.24-.6M297.99,162.92l.12-.72M298.11,162.2l-.12-.72M297.99,161.48l-.24-.6M297.75,160.87l-.24-.6M297.51,160.27l-.48-.48M297.03,159.79l-.48-.48M296.55,159.31l-.6-.24M295.95,159.07l-.6-.24M295.34,158.83h-.72M292.94,158.83h-.72M292.22,158.83l-.6.24M291.62,159.07l-.6.24M291.02,159.31l-.48.48M290.54,159.79l-.48.48M290.05,160.27l-.24.6M289.81,160.87l-.24.6M289.57,161.48l-.12.72M289.45,162.2l.12.72M289.57,162.92l.24.6M289.81,163.52l.24.6M290.05,164.12l.48.48M290.54,164.6l.48.48M291.02,165.08l.6.24M291.62,165.32l.6.24M292.22,165.56h.72M294.62,165.56h-1.68M292.94,158.83h1.68M287.89,171.21l-.6-.24M287.29,170.97l-.6-.24M286.69,170.73h-.72M285.97,170.73l-.6.12M285.37,170.85l-.6.12M284.76,170.97l-.6.36M284.16,171.33l-.48.48M283.68,171.82l-.48.48M283.2,172.3l-.24.6M282.96,172.9l-.24.6M282.72,173.5v.72M282.72,174.22v.6M282.72,174.82l.24.6M282.96,175.42l.24.6M283.2,176.02l.36.48M283.56,176.5l.48.48M284.04,176.98l.6.36M284.64,177.35l.6.24M287.89,171.21l10.22,6.37v-6.85M95.41,665.57l-15.39-3.49v6.85h1.68M95.41,674.11h-15.39l3.37,3.37"></path>
      <path class="cls-3" d="M595.54,132.86l.36-1.32M595.9,131.54v-1.44M595.9,130.1l-.24-1.32M595.66,128.78l-.36-1.32M595.3,127.45l-.6-1.2M594.7,126.25l-.84-.96M593.86,125.29l-1.08-.96M591.09,127.33l2.04-2.76M584.96,127.09l1.32.96M592.78,124.33l-3.73-2.77M583.4,137.67l.48-.72M583.88,136.95l.24-.72M584.12,136.23l.12-.84M584.24,135.39v-.84M584.24,134.55l-.24-.84M584,133.71l-.36-.72M583.64,132.98l-.48-.72M583.16,132.26l-.6-.48M582.56,131.78l-.72-.48M581.84,131.3l-.84-.24M581,131.06l-.72-.12M580.27,130.94h-.84M579.43,130.94l-.84.24M578.59,131.18l-.72.36M577.87,131.54l-.72.48M577.15,132.02l-.6.6M584,137.07l7.45,1.2M583.4,137.67l-2.53,3.49M586.41,145.25l-12.38-9.14,2.52-3.49M235.23,174.82h6.85M226.7,177.35l11.9,3.37v-8.54M242.09,189.25l-.12-.6M241.97,188.65l-.24-.72M241.73,187.93l-.24-.48M241.48,187.44l-.48-.6M241,186.84l-.48-.36M240.52,186.48l-.6-.36M239.92,186.12l-.6-.24M239.32,185.88h-.72M236.92,185.88h-.6M236.32,185.88l-.6.24M235.71,186.12l-.48.24M235.23,186.36l-.48.36M234.75,186.72l-.48.36M234.27,187.08l-.36.48M233.91,187.56l-.24.6M233.67,188.17l-.12.48M233.55,188.65l-.12.6M233.43,189.25v-.6M233.43,188.65l-.24-.72M233.19,187.93l-.24-.48M232.95,187.44l-.48-.6M232.47,186.84l-.48-.36M231.99,186.48l-.6-.36M231.39,186.12l-.6-.24M230.78,185.88h-.72M230.06,185.88h-.72M229.34,185.88l-.6.24M228.74,186.12l-.6.36M228.14,186.48l-.48.36M227.66,186.84l-.48.6M227.18,187.44l-.24.48M226.94,187.93l-.24.72M226.7,188.65v.6M242.09,189.25v3.49M236.92,185.88h1.68M233.43,189.25v1.8M226.7,192.73v-3.49"></path>
      <path class="cls-3" d="M619.47,516.98l3.49-.24M613.1,507.24l.24-.6M613.34,506.64l.12-.6M613.46,506.04v-.72M613.46,505.32l-.12-.6M613.34,504.72l-.24-.6M613.1,504.11l-.36-.6M612.73,503.51l-.48-.48M612.25,503.03l-.48-.36M611.77,502.67l-.6-.24M611.17,502.43l-.6-.12M610.57,502.31h-.72M609.85,502.31h-.6M609.25,502.31l-.6.24M608.65,502.55l-.6.36M608.05,502.91l-.48.48M607.56,503.39l-.48.48M607.08,503.87l-.24.6M606.85,504.48l-.24.6M613.1,507.24l-5.53,10.58,6.85-.48M597.71,511.69l.84-.12M598.55,511.57l.72-.24M599.27,511.33l.72-.48M599.99,510.85l.6-.6M600.59,510.25l.48-.72M601.07,509.52l.36-.72M601.44,508.8l.24-.84M601.68,507.96v-.84M601.68,507.12l-.12-.84M601.56,506.28l-.36-.72M601.19,505.56l-.48-.72M600.71,504.84l-.48-.6M600.23,504.23l-.72-.48M599.51,503.75l-.84-.36M598.67,503.39l-.72-.12M597.95,503.27l-.84-.12M598.55,511.69l3.97,6.49M597.71,511.69l-4.33.36M593.98,518.9l-1.2-15.39,4.33-.36M586.29,128.05l.6.36M586.89,128.42l.6.24M587.49,128.66l.72.12M588.21,128.78l.6-.12M588.81,128.66l.72-.12M589.53,128.54l.6-.36M590.13,128.18l.48-.36M590.61,127.81l.48-.48M589.05,121.56l-.6-.36M588.45,121.2l-.6-.24M587.85,120.96l-.72-.12M587.13,120.84l-.72.12M586.41,120.96l-.6.12M585.81,121.08l-.6.24M585.2,121.32l-.48.48M584.72,121.8l-.48.48M584.24,122.28l-.36.6M583.88,122.89l-.24.6M583.64,123.49l-.12.6M583.52,124.09l.12.72M583.64,124.81l.12.6M583.76,125.41l.24.6M584,126.01l.48.6M584.48,126.61l.48.48"></path>
      <path class="cls-3" d="M438.77,160.27l-10.58-5.77.48,6.85M434.56,144.76l.12.84M434.68,145.61l.36.72M435.04,146.33l.36.72M435.41,147.05l.6.6M436.01,147.65l.6.6M436.61,148.25l.84.24M437.45,148.49l.84.24M438.29,148.73h.72M439.01,148.73l.84-.12M439.85,148.61l.84-.24M440.7,148.37l.72-.48M441.42,147.89l.6-.48M442.02,147.41l.48-.72M442.5,146.69l.36-.72M442.86,145.97l.24-.84M443.1,145.13v-.84M434.56,145.61l-6.61,3.73M434.56,144.76l-.24-4.33M427.47,140.8l15.39-.72.24,4.21M578.11,315.48l15.75-.36-1.68-6.61-1.68.36M581.6,301.42l.24.84M581.84,302.26l.48.72M582.32,302.98l.6.6M582.92,303.58l.6.48M583.52,304.06l.84.36M584.36,304.42l.72.24M585.08,304.66h.84M585.93,304.66l.84-.12M586.77,304.54l.84-.24M587.61,304.3l.72-.48M588.33,303.82l.6-.6M588.93,303.22l.48-.6M589.41,302.62l.36-.84M589.77,301.78l.24-.72M590.01,301.06v-.84M590.01,300.21l-.12-.84M581.84,302.26l-5.77,4.93M581.6,301.42l-.96-4.09M573.9,298.89l14.91-3.73,1.08,4.21M634.86,515.89l-1.08-15.39-3.25,3.61M625.96,511.33l-.12-.6M625.84,510.73l-.24-.6M625.6,510.13l-.36-.6M625.24,509.52l-.48-.48M624.76,509.04l-.48-.36M624.28,508.68l-.6-.36M623.67,508.32l-.72-.12M622.96,508.2h-.72M622.96,516.74l.6-.12M623.55,516.62l.48-.24M624.04,516.38l.6-.24M624.64,516.14l.36-.36M625,515.77l.48-.48M625.48,515.3l.24-.48M625.72,514.81l.24-.6M625.96,514.21l.12-.6M626.08,513.61v-.6M622.23,508.2l-3.37.24-.48-6.85,6.01-.36M626.08,513.01l-.12-1.68"></path>
      <path class="cls-3" d="M444.3,182.76l.24-.24M444.54,182.51l.24-.36M444.78,182.15l.24-.36M445.02,181.8v-.36M445.02,181.43l.12-.48M445.14,180.95l-.12-.36M445.02,180.59l-.12-.36M444.9,180.23l-.24-.36M444.66,179.87l-.24-.24M444.42,179.63l-.24-.36M444.18,179.27l-2.28-.72M441.9,178.55l-2.29-.48M439.61,178.07l-2.4-.12M437.21,177.95l-2.41.36M434.8,178.31l-2.16.72M432.64,179.03l-2.17,1.08M434.32,173.02h.6M434.92,173.02l.6-.12M435.53,172.9l.48-.24M436.01,172.66l.48-.24M436.49,172.42l.36-.36M436.85,172.06l.36-.48M437.21,171.57l.24-.48M437.45,171.1l.12-.6M437.57,170.49l.12-.48M437.69,170.01l-.12-.6M432.28,166.29l-.6.12M431.68,166.41l-.72.24M430.96,166.65l-.48.24M430.48,166.89l-.48.48M429.99,167.37l-.48.6M429.51,167.97l-.24.6M429.27,168.57l-.12.6M429.15,169.17l-.12.72M429.03,169.89l.12.6M429.15,170.49l.24.72M429.39,171.22l.36.48M429.75,171.7l.48.48M430.24,172.18l.48.48M430.72,172.66l.6.24M431.32,172.9l.72.12M432.04,173.02l.6.12M444.54,170.73l-.72-1.32M443.82,169.41l-.96-1.2M442.86,168.21l-1.2-.96M441.66,167.25l-1.32-.6M440.33,166.65l-1.44-.48M438.89,166.17l-1.44-.12M437.57,169.41l-.12-3.37M432.64,173.14l1.68-.12M437.45,166.05l-5.17.24M438.77,160.27l.6.24M439.37,160.52l.6.12M439.97,160.64h.72M440.69,160.64l.6-.12M441.3,160.52l.6-.24M441.9,160.27l.6-.24M442.5,160.03l.48-.48M442.98,159.55l.36-.6M443.34,158.95l.24-.6M443.58,158.35l.24-.6M443.82,157.75v-.6M443.82,157.15l-.12-.72M443.7,156.43l-.24-.6M443.46,155.83l-.24-.6M443.22,155.23l-.48-.48M442.74,154.74l-.48-.36M442.26,154.38l-.6-.36M441.66,154.02l-.6-.24"></path>
      <path class="cls-3" d="M595.18,352.39h.84M596.02,352.39l.84-.24M596.87,352.15l.72-.36M597.59,351.79l.72-.48M598.31,351.31l.48-.6M598.79,350.71l.48-.72M599.27,349.99l.24-.84M599.51,349.15l.12-.84M599.63,348.3v-.84M599.63,347.46l-.24-.84M599.39,346.62l-.36-.72M599.03,345.9l-.48-.6M598.55,345.3l-.6-.6M597.95,344.7l-.72-.48M597.23,344.22l-.84-.24M596.38,343.98l-.84-.12M596.02,352.39l3.13,7.09M595.18,352.39l-4.21-.12M590.61,359l.72-15.27,4.21.12M805.7,627.58l-.24-.6M805.45,626.98l-.36-.6M805.09,626.38l-.36-.48M804.73,625.9l-.6-.36M804.13,625.54l-.6-.24M803.53,625.3l-.6-.24M802.93,625.06h-.72M802.21,625.06l-.6.12M801.61,625.18l-.6.24M801,625.42l-.6.36M800.41,625.78l-.48.36M799.92,626.14l-.36.6M799.56,626.74l-.36.6M799.2,627.34l-.12.6M799.08,627.95l-.12.6M798.96,628.54l.12.72M799.08,629.27l.12.6M799.2,629.87l.36.6M805.7,627.58l3.25,11.54,4.69-5.05M797.64,641.41l.48-.6M798.12,640.81l.36-.84M798.48,639.97l.24-.72M798.72,639.24v-.84M798.72,638.4l-.12-.84M798.6,637.56l-.24-.84M798.36,636.72l-.48-.72M797.88,636l-.6-.6M797.28,635.4l-.6-.48M796.68,634.92l-.84-.36M795.83,634.56l-.72-.24M795.12,634.32h-.84M794.27,634.32l-.84.12M793.43,634.44l-.84.24M792.59,634.68l-.72.48M791.87,635.16l-.6.48M798.24,640.81l7.33,2.04M797.64,641.41l-2.88,3.12M799.8,649.22l-11.42-10.34,2.88-3.25M430.48,180.11l-.24.24M430.24,180.35l-.24.36M429.99,180.71l-.24.36M429.75,181.07v.36M429.75,181.43v.36M429.75,181.79v.36M429.75,182.15l.12.48M429.87,182.63l.24.24M430.11,182.88l.24.36M430.36,183.24l.36.24M430.72,183.48l2.17.84M432.88,184.32l2.28.48M435.16,184.8h2.41M437.57,184.8l2.4-.24M439.97,184.56l2.17-.72M442.14,183.84l2.16-1.08"></path>
      <path class="cls-3" d="M623.32,355.4v-.72M623.32,354.68l-.24-.6M623.08,354.07l-.24-.6M622.83,353.47l-.36-.6M622.47,352.87l-.6-.48M621.87,352.39l-.48-.24M621.39,352.15l-.72-.24M620.67,351.91l-.6-.12M619.71,360.33h.6M620.31,360.33l.48-.12M620.79,360.21l.6-.24M621.39,359.97l.48-.36M621.87,359.6l.48-.36M622.35,359.24l.36-.48M622.71,358.76l.24-.6M622.96,358.16l.24-.48M623.2,357.68v-.6M620.07,351.79l-3.49-.12.36-6.85,6.01.24M623.2,357.08l.12-1.68M616.22,360.21l3.49.12M611.05,349.75l.36-.6M611.41,349.15l.12-.6M611.53,348.54l.12-.6M611.65,347.94v-.72M611.65,347.22l-.24-.6M611.41,346.62l-.24-.6M611.17,346.02l-.48-.48M610.69,345.54l-.48-.48M610.21,345.06l-.6-.36M609.61,344.7l-.6-.24M609.01,344.46h-.6M608.41,344.46h-.72M607.69,344.46l-.6.12M607.09,344.58l-.6.24M606.48,344.82l-.48.36M606,345.18l-.48.48M605.52,345.66l-.36.6M605.16,346.26l-.36.6M611.05,349.75l-6.73,9.86,6.85.36"></path>
      <path class="cls-3" d="M738.37,735.9v-.6M738.37,735.3l-.24-.72M738.13,734.58l-.36-.6M737.77,733.98l-.36-.48M737.41,733.5l-.48-.36M736.93,733.14l-.6-.36M736.33,732.78l-.72-.24M735.6,732.54h-.6M735,732.54h-.72M734.28,732.54l-.6.24M733.68,732.78l-.6.36M733.08,733.14l-.48.36M732.6,733.5l-.48.48M732.12,733.98l-.36.6M731.76,734.58l-.12.72M731.64,735.3l-.12.6M733.2,747.93l1.2-.6M734.4,747.33l1.2-.72M735.6,746.6l.96-.96M736.57,745.64l.72-1.08M737.29,744.56l.6-1.2M737.89,743.36l.36-1.32M738.25,742.04l.12-1.44M735,741.07h3.37M731.52,735.9v1.68M738.37,740.59v-4.69M726.35,747.93v-15.39l-3.37,3.37M399.82,274.13l-1.68,6.61M399.46,265.23l-6.25,10.82,8.29,2.04M389.36,270.64l.12-.84M387.8,276.41l.24-.84M382.39,276.77l3.85-14.91-4.21,2.52M381.79,637.44l1.68,6.61M377.1,629.75l-.36,12.5,8.29-2.16M370.73,639.36l-.24-.84M372.29,645.14l-.24-.84M367.72,648.02l-3.85-14.91-2.4,4.21M267.69,659.68l-.12-.72M267.57,658.96l-.24-.6M267.33,658.36l-.24-.6M267.09,657.76l-.48-.48M266.61,657.28l-.48-.48M266.13,656.8l-.6-.24M265.53,656.56l-.72-.24M264.81,656.32h-.6M264.45,664.85h.48M264.93,664.85l.6-.24M265.53,664.61l.6-.24M266.13,664.37l.48-.36M266.61,664.01l.36-.48M266.97,663.53l.36-.48M267.33,663.05l.24-.48M267.57,662.57l.12-.6M267.69,661.97v-.6M264.21,656.32l-3.49.12-.12-6.85,5.89-.12M267.69,661.37v-1.68M260.96,664.97l3.49-.12M255.79,665.09l-.36-15.39-3.37,3.49M247.14,657.64l-.12-.84M247.26,663.65v-.84M242.21,665.45l-.48-15.39-3.25,3.49M631.61,360.81l.72-15.39-3.61,3.37"></path>
      <path class="cls-3" d="M731.52,737.59l.12.72M731.64,738.31l.12.6M731.76,738.91l.36.6M732.12,739.51l.48.6M732.6,740.11l.48.36M733.08,740.47l.6.36M733.68,740.83l.6.12M734.28,740.95l.72.12"></path>
      <line class="cls-3" x1="464.73" y1="776.54" x2="464.97" y2="776.9"></line>
      <line class="cls-3" x1="464.97" y1="776.9" x2="465.33" y2="777.14"></line>
      <line class="cls-3" x1="465.33" y1="777.14" x2="465.69" y2="777.26"></line>
      <line class="cls-3" x1="465.69" y1="777.26" x2="466.05" y2="777.38"></line>
      <line class="cls-3" x1="466.05" y1="777.38" x2="466.41" y2="777.5"></line>
      <line class="cls-3" x1="466.41" y1="777.5" x2="466.77" y2="777.38"></line>
      <line class="cls-3" x1="466.77" y1="777.38" x2="467.25" y2="777.26"></line>
      <line class="cls-3" x1="467.25" y1="777.26" x2="467.61" y2="777.14"></line>
      <line class="cls-3" x1="467.61" y1="777.14" x2="467.85" y2="776.9"></line>
      <line class="cls-3" x1="467.85" y1="776.9" x2="468.09" y2="776.54"></line>
      <line class="cls-3" x1="468.09" y1="776.54" x2="469.06" y2="774.38"></line>
      <line class="cls-3" x1="469.05" y1="774.38" x2="469.66" y2="772.09"></line>
      <line class="cls-3" x1="469.66" y1="772.09" x2="469.9" y2="769.81"></line>
      <line class="cls-3" x1="469.9" y1="769.81" x2="469.66" y2="767.4"></line>
      <line class="cls-3" x1="469.66" y1="767.4" x2="469.05" y2="765.12"></line>
      <line class="cls-3" x1="469.05" y1="765.12" x2="468.09" y2="762.95"></line>
      <line class="cls-3" x1="468.09" y1="762.96" x2="467.85" y2="762.59"></line>
      <line class="cls-3" x1="467.85" y1="762.59" x2="467.61" y2="762.35"></line>
      <line class="cls-3" x1="467.61" y1="762.35" x2="467.25" y2="762.23"></line>
      <line class="cls-3" x1="467.25" y1="762.23" x2="466.77" y2="762.11"></line>
      <line class="cls-3" x1="466.77" y1="762.11" x2="466.41" y2="762.11"></line>
      <line class="cls-3" x1="466.41" y1="762.11" x2="466.05" y2="762.11"></line>
      <line class="cls-3" x1="466.05" y1="762.11" x2="465.69" y2="762.23"></line>
      <line class="cls-3" x1="465.69" y1="762.23" x2="465.33" y2="762.35"></line>
      <line class="cls-3" x1="465.33" y1="762.35" x2="464.97" y2="762.59"></line>
      <line class="cls-3" x1="464.97" y1="762.59" x2="464.73" y2="762.96"></line>
      <line class="cls-3" x1="464.73" y1="762.96" x2="463.76" y2="765.12"></line>
      <line class="cls-3" x1="463.76" y1="765.12" x2="463.16" y2="767.4"></line>
      <line class="cls-3" x1="463.16" y1="767.4" x2="463.04" y2="769.81"></line>
      <line class="cls-3" x1="463.04" y1="769.81" x2="463.16" y2="772.09"></line>
      <line class="cls-3" x1="463.16" y1="772.09" x2="463.77" y2="774.38"></line>
      <line class="cls-3" x1="463.76" y1="774.38" x2="464.73" y2="776.54"></line>
      <line class="cls-3" x1="475.48" y1="776.54" x2="475.72" y2="776.9"></line>
      <line class="cls-3" x1="475.72" y1="776.9" x2="476.08" y2="777.14"></line>
      <line class="cls-3" x1="476.08" y1="777.14" x2="476.44" y2="777.26"></line>
      <line class="cls-3" x1="476.44" y1="777.26" x2="476.8" y2="777.38"></line>
      <line class="cls-3" x1="476.8" y1="777.38" x2="477.16" y2="777.5"></line>
      <line class="cls-3" x1="477.16" y1="777.5" x2="477.52" y2="777.38"></line>
      <line class="cls-3" x1="477.52" y1="777.38" x2="478.01" y2="777.26"></line>
      <line class="cls-3" x1="478" y1="777.26" x2="478.37" y2="777.14"></line>
      <line class="cls-3" x1="478.37" y1="777.14" x2="478.61" y2="776.9"></line>
      <line class="cls-3" x1="478.61" y1="776.9" x2="478.85" y2="776.54"></line>
      <line class="cls-3" x1="478.85" y1="776.54" x2="479.81" y2="774.38"></line>
      <line class="cls-3" x1="479.81" y1="774.38" x2="480.41" y2="772.09"></line>
      <line class="cls-3" x1="480.41" y1="772.09" x2="480.65" y2="769.81"></line>
      <line class="cls-3" x1="480.65" y1="769.81" x2="480.41" y2="767.4"></line>
      <line class="cls-3" x1="480.41" y1="767.4" x2="479.81" y2="765.12"></line>
      <line class="cls-3" x1="479.81" y1="765.12" x2="478.85" y2="762.95"></line>
      <line class="cls-3" x1="478.85" y1="762.96" x2="478.61" y2="762.59"></line>
      <line class="cls-3" x1="478.61" y1="762.59" x2="478.37" y2="762.35"></line>
      <line class="cls-3" x1="478.37" y1="762.35" x2="478" y2="762.23"></line>
      <line class="cls-3" x1="478" y1="762.23" x2="477.52" y2="762.11"></line>
      <line class="cls-3" x1="477.52" y1="762.11" x2="477.16" y2="762.11"></line>
      <line class="cls-3" x1="477.16" y1="762.11" x2="476.8" y2="762.11"></line>
      <line class="cls-3" x1="476.8" y1="762.11" x2="476.44" y2="762.23"></line>
      <line class="cls-3" x1="476.44" y1="762.23" x2="476.08" y2="762.35"></line>
      <line class="cls-3" x1="476.08" y1="762.35" x2="475.72" y2="762.59"></line>
      <line class="cls-3" x1="475.72" y1="762.59" x2="475.48" y2="762.96"></line>
      <line class="cls-3" x1="475.48" y1="762.96" x2="474.52" y2="765.12"></line>
      <line class="cls-3" x1="474.52" y1="765.12" x2="473.92" y2="767.4"></line>
      <line class="cls-3" x1="473.92" y1="767.4" x2="473.8" y2="769.81"></line>
      <line class="cls-3" x1="473.8" y1="769.81" x2="473.92" y2="772.09"></line>
      <line class="cls-3" x1="473.92" y1="772.09" x2="474.52" y2="774.38"></line>
      <line class="cls-3" x1="474.52" y1="774.38" x2="475.48" y2="776.54"></line>
      <polyline class="cls-3" points="457.87 777.5 457.87 762.11 454.51 765.48"></polyline>
    </g>
  </g>
  <g id="Layer_2" data-name="Layer 2">
    <g id="Watermark">
      <rect class="cls-6" x="438.45" y="642.92" width="123.09" height="46.3"></rect>
      <rect class="cls-11" x="444.86" y="650.76" width="62.89" height="30.62"></rect>
      <rect class="cls-11" x="507.75" y="650.76" width="47.39" height="30.62"></rect>
      <path class="cls-7" d="M466.48,656.86l-2.79,18.92h-2.69l-1.55-11-1.53,11h-2.74l-2.8-18.92h2.51l1.74,14.14,1.79-14.17h2l1.77,14.17,1.81-14.14h2.48Z"></path>
      <path class="cls-7" d="M467.93,675.78v-18.92h2.53v18.92h-2.53Z"></path>
      <path class="cls-7" d="M472.83,656.86h5c1.93,0,2.9,1.08,2.9,3.24v4.66c0,1.65-.51,2.7-1.51,3.14l1.77,7.88h-2.4l-1.66-7.64h-1.53v7.64h-2.53l-.04-18.92ZM475.36,665.98h1.64c.76,0,1.14-.46,1.14-1.37v-4.09c0-.91-.38-1.37-1.14-1.37h-1.66l.02,6.83Z"></path>
      <path class="cls-7" d="M486.82,659.15v16.63h-2.53v-16.63h-2.42v-2.29h7.38v2.29h-2.43Z"></path>
      <path class="cls-7" d="M496.34,675.78v-8.59h-3.11v8.59h-2.53v-18.92h2.53v8h3.11v-8h2.53v18.92h-2.53Z"></path>
      <path class="cls-7" d="M516.31,656.86h5c1.93,0,2.9,1.08,2.89,3.24v4.66c0,1.65-.5,2.7-1.5,3.14l1.77,7.88h-2.47l-1.66-7.64h-1.53v7.64h-2.53l.03-18.92ZM518.84,665.98h1.66c.76,0,1.13-.46,1.13-1.37v-4.09c0-.91-.37-1.37-1.13-1.37h-1.66v6.83Z"></path>
      <path class="cls-7" d="M528.67,675.78h-2.53v-15.68c0-2.16,1-3.24,3-3.24h1.9c2,0,3,1.08,3,3.24v15.68h-2.53v-6.93h-2.9l.06,6.93ZM531.57,666.56v-6.3c.06-.55-.33-1.05-.88-1.11-.08,0-.16,0-.23,0h-.68c-.55-.06-1.05.33-1.11.88,0,.08,0,.16,0,.23v6.3h2.9Z"></path>
      <path class="cls-7" d="M536.34,675.78v-18.92h2.53v18.92h-2.53Z"></path>
      <path class="cls-7" d="M547.24,675.78h-6v-18.92h2.53v16.63h3.47v2.29Z"></path>
    </g>
  </g>
</svg>
