<svg xmlns="http://www.w3.org/2000/svg" viewBox="0 0 1000 800"><defs><style>.cls-1{fill:#303030;}.cls-2,.cls-5,.cls-6,.cls-7{fill:none;stroke:#241f21;stroke-width:1.11px;}.cls-2,.cls-8{stroke-miterlimit:10;}.cls-3{fill:#241f21;}.cls-4,.cls-8{fill:#f0f0f0;}.cls-6{stroke-dasharray:18.81 5.74;}.cls-7{stroke-dasharray:19.06 5.99;}.cls-8{stroke:#ccc;}.cls-9{fill:#ccc;}</style></defs><g id="Flat"><path class="cls-1" d="M27,440.2v1.36H18.86v2.94H17.77a6.86,6.86,0,0,0-.09-1.12,2.83,2.83,0,0,0-.32-1,2.22,2.22,0,0,0-.66-.74,2.57,2.57,0,0,0-1-.42v-1Z"/><path class="cls-1" d="M21.41,436.34c-.62,0-1.28,0-1.95-.09a5.77,5.77,0,0,1-1.86-.46,3.38,3.38,0,0,1-1.4-1.14,3.45,3.45,0,0,1-.55-2.08,3.5,3.5,0,0,1,.55-2.09,3.43,3.43,0,0,1,1.4-1.13,5.77,5.77,0,0,1,1.86-.46c.67-.06,1.33-.09,1.95-.09l1.3,0A9.38,9.38,0,0,1,24,429a6.45,6.45,0,0,1,1.2.37,3.38,3.38,0,0,1,1,.65,3,3,0,0,1,.69,1.05,4.69,4.69,0,0,1,0,3,2.87,2.87,0,0,1-.69,1,3.22,3.22,0,0,1-1,.66,6.45,6.45,0,0,1-1.2.37,9.38,9.38,0,0,1-1.31.16Zm0-1.44c.42,0,.9,0,1.43,0a6.27,6.27,0,0,0,1.48-.25,2.86,2.86,0,0,0,1.18-.7,2.11,2.11,0,0,0,0-2.68,2.86,2.86,0,0,0-1.18-.7,5.8,5.8,0,0,0-1.48-.25c-.53,0-1,0-1.43,0h-.92c-.34,0-.67,0-1,.08a8.13,8.13,0,0,0-1,.21,2.72,2.72,0,0,0-.84.4,2.16,2.16,0,0,0-.58.66,2,2,0,0,0-.22,1,1.93,1.93,0,0,0,.22,1,2.09,2.09,0,0,0,.58.67,2.72,2.72,0,0,0,.84.4,6.55,6.55,0,0,0,1,.2,6.87,6.87,0,0,0,1,.08Z"/><path class="cls-1" d="M20.5,424.65c0-.11,0-.21,0-.31v-.28a2.82,2.82,0,0,0-.12-.83,2.08,2.08,0,0,0-.35-.68,1.65,1.65,0,0,0-1.38-.65,1.65,1.65,0,0,0-1.36.57,2.24,2.24,0,0,0-.46,1.44,2.06,2.06,0,0,0,.2,1,1.82,1.82,0,0,0,.53.66,2.12,2.12,0,0,0,.78.39,3.3,3.3,0,0,0,.95.13v1.36a5.27,5.27,0,0,1-1.49-.26,3.35,3.35,0,0,1-1.15-.67,2.87,2.87,0,0,1-.75-1.07,3.9,3.9,0,0,1-.27-1.5,4.92,4.92,0,0,1,.18-1.36,3.25,3.25,0,0,1,.55-1.1,2.45,2.45,0,0,1,.95-.72,3.13,3.13,0,0,1,1.35-.27,2.14,2.14,0,0,1,1.35.46,3,3,0,0,1,.91,1.11h0a2.33,2.33,0,0,1,1-1.54,3.07,3.07,0,0,1,1.77-.51,3.52,3.52,0,0,1,1.5.31,3.21,3.21,0,0,1,1.08.84,3.85,3.85,0,0,1,.65,1.24,5,5,0,0,1,.22,1.51,4.88,4.88,0,0,1-.24,1.57,3.48,3.48,0,0,1-.72,1.19,3.08,3.08,0,0,1-1.16.76,4.06,4.06,0,0,1-1.56.25v-1.36a2.71,2.71,0,0,0,1.79-.64,2.19,2.19,0,0,0,.7-1.77,2.69,2.69,0,0,0-.16-.94,2.42,2.42,0,0,0-.43-.79,2,2,0,0,0-.68-.53,2.11,2.11,0,0,0-.92-.2,2.19,2.19,0,0,0-.94.19,2,2,0,0,0-1.1,1.28,3.24,3.24,0,0,0-.13.94,7.15,7.15,0,0,0,0,.82Z"/><path class="cls-1" d="M25.2,417.92v-1.77H27v1.77Z"/><path class="cls-1" d="M27,409.12v1.36H18.86v2.94H17.77a6.77,6.77,0,0,0-.09-1.12,2.83,2.83,0,0,0-.32-1,2.25,2.25,0,0,0-.66-.75,2.44,2.44,0,0,0-1-.41v-1Z"/><path class="cls-1" d="M24.24,403.79a1.74,1.74,0,0,0,1.28-.68A2.24,2.24,0,0,0,26,401.7a2,2,0,0,0-1.09-1.87,7.11,7.11,0,0,0-3.29-.69l0,.05a2.82,2.82,0,0,1,1.14,1.08,2.94,2.94,0,0,1,.42,1.53,3.92,3.92,0,0,1-.28,1.54,3,3,0,0,1-.77,1.12,3.13,3.13,0,0,1-1.19.69,4.7,4.7,0,0,1-1.54.23,4,4,0,0,1-1.5-.27,3.19,3.19,0,0,1-1.16-.77,3.38,3.38,0,0,1-.76-1.18,4.08,4.08,0,0,1-.27-1.5,4.36,4.36,0,0,1,.25-1.49,2.83,2.83,0,0,1,.85-1.24,4.53,4.53,0,0,1,1.66-.84,9.44,9.44,0,0,1,2.65-.31,9,9,0,0,1,4.52.93,3.22,3.22,0,0,1,1.58,3A4.58,4.58,0,0,1,27,403a2.8,2.8,0,0,1-.55,1,3,3,0,0,1-.91.73,3.3,3.3,0,0,1-1.28.34Zm-4.81-4.4a3.21,3.21,0,0,0-1,.15,2.83,2.83,0,0,0-.82.45,2.16,2.16,0,0,0-.57.73,2.43,2.43,0,0,0-.2,1,2.2,2.2,0,0,0,.22,1,1.88,1.88,0,0,0,.6.68,2.45,2.45,0,0,0,.85.39,4.17,4.17,0,0,0,1,.12,2.53,2.53,0,0,0,1.66-.64,2.34,2.34,0,0,0,.54-.7,2,2,0,0,0,.2-.9,2.32,2.32,0,0,0-.2-1,2.23,2.23,0,0,0-.55-.73,2.34,2.34,0,0,0-.79-.47A3,3,0,0,0,19.43,399.39Z"/><path class="cls-1" d="M30.14,389.35a20.29,20.29,0,0,1-3.59,1.83,11,11,0,0,1-3.89.67,12.1,12.1,0,0,1-3.8-.63,12.51,12.51,0,0,1-3.56-1.87v-1a13,13,0,0,0,3.61,1.63,14.49,14.49,0,0,0,3.75.48,14.94,14.94,0,0,0,3.83-.49,14.35,14.35,0,0,0,3.65-1.62Z"/><path class="cls-1" d="M23.12,381.78v-1.54h1.2v1.54H27v1.27H24.32v5H23l-7.36-5.16v-1.08Zm0,1.27H17.58v0l5.54,3.76Z"/><path class="cls-1" d="M27,369.46v1.36H18.86v2.94H17.77a6.77,6.77,0,0,0-.09-1.12,2.83,2.83,0,0,0-.32-1,2.25,2.25,0,0,0-.66-.75,2.44,2.44,0,0,0-1-.41v-1Z"/><path class="cls-1" d="M15.3,361.83v-1.17l11.94,4.73v1.16Z"/><path class="cls-1" d="M18.54,354.33a2,2,0,0,0-1.23.6,1.82,1.82,0,0,0-.46,1.31,2.17,2.17,0,0,0,.42,1.39,2.84,2.84,0,0,0,1.07.83,5.26,5.26,0,0,0,1.4.39,10.42,10.42,0,0,0,1.4.13l0,0A3,3,0,0,1,20,357.76a3.7,3.7,0,0,1-.35-1.64,3.59,3.59,0,0,1,.28-1.46,3,3,0,0,1,.77-1.08,3.4,3.4,0,0,1,1.17-.68,4.28,4.28,0,0,1,1.45-.24,4.65,4.65,0,0,1,1.3.19,3.78,3.78,0,0,1,1.23.63,3.31,3.31,0,0,1,.92,1.17,4.14,4.14,0,0,1,.35,1.79,3.61,3.61,0,0,1-.51,2,3.55,3.55,0,0,1-1.32,1.18,5.33,5.33,0,0,1-1.76.55,13.36,13.36,0,0,1-1.85.14,12.84,12.84,0,0,1-2.26-.2,6,6,0,0,1-1.94-.68,3.72,3.72,0,0,1-1.36-1.28,3.66,3.66,0,0,1-.51-2,3.23,3.23,0,0,1,.75-2.24,3.13,3.13,0,0,1,2.14-.95Zm2.35,2.05a2.23,2.23,0,0,0,.2,1,2.12,2.12,0,0,0,.54.74,2.29,2.29,0,0,0,.81.45,3,3,0,0,0,1,.16,3.21,3.21,0,0,0,1-.16,2.33,2.33,0,0,0,.8-.46,2.21,2.21,0,0,0,.54-.73,2.48,2.48,0,0,0,.2-1,2.38,2.38,0,0,0-.2-1,2.15,2.15,0,0,0-.55-.71,2.41,2.41,0,0,0-.8-.44,3,3,0,0,0-1-.16,3.61,3.61,0,0,0-1,.14,2.23,2.23,0,0,0-.81.42,2.16,2.16,0,0,0-.55.72A2.31,2.31,0,0,0,20.89,356.38Z"/><path class="cls-1" d="M15.57,348.09V347h4.12v1.09Zm0,2.23v-1.08h4.12v1.08Z"/><path class="cls-1" d="M30.14,345.42a12.94,12.94,0,0,0-3.61-1.63,14.63,14.63,0,0,0-3.76-.48,14.86,14.86,0,0,0-3.82.49,13.72,13.72,0,0,0-3.65,1.62v-1c.59-.38,1.19-.73,1.78-1a15.86,15.86,0,0,1,1.8-.79,13.71,13.71,0,0,1,1.88-.5,10.9,10.9,0,0,1,2-.17,12.06,12.06,0,0,1,3.8.63,12.7,12.7,0,0,1,3.57,1.87Z"/><line class="cls-2" x1="33.22" y1="101.95" x2="33.22" y2="686.44"/><polygon class="cls-3" points="29.52 104.59 33.38 90.14 37.26 104.59 29.52 104.59"/><polygon class="cls-3" points="29.52 683.8 33.38 698.25 37.26 683.8 29.52 683.8"/><path class="cls-4" d="M863.4,602.43s.7-7.65-6.26-9-124.57-29.23-124.57-29.23c-6.12-1.55-25.9-8.79-28.2-33.87l.36-197.88s.09-27.57,30-34.53l59.51-13.78s12.72-3,12.77-22V134.52s-4-31-33.26-33.73c-11.4-1.09-170.34-13.51-274.62-10.6-104.29-2.91-263.22,9.51-274.64,10.6-29.23,2.78-33.25,33.73-33.25,33.73V262.11c.05,19,12.77,22,12.77,22l59.51,13.78c29.93,7,30,34.53,30,34.53l.36,197.88c-2.3,25.08-22.08,32.32-28.2,33.87,0,0-117.61,27.83-124.57,29.23s-6.26,9-6.26,9c-.72,75.1,0,85.6,0,85.6a10.48,10.48,0,0,0,8.91,10.21H854.49A10.48,10.48,0,0,0,863.4,688s.72-10.5,0-85.6"/><path class="cls-5" d="M134.6,601.9V791.55M989.22,698.3,2,698.35M191.15,30.28V137.16M806.82,31.89V138.77M863.4,602.43s.7-7.65-6.26-9-124.57-29.23-124.57-29.23c-6.12-1.55-25.9-8.79-28.2-33.87l.36-197.88s.09-27.57,30-34.53l59.51-13.78s12.72-3,12.77-22V134.52s-4-31-33.26-33.73c-11.4-1.09-170.34-13.51-274.63-10.6-104.28-2.91-263.21,9.51-274.63,10.6-29.23,2.78-33.25,33.73-33.25,33.73V262.11c.05,19,12.77,22,12.77,22l59.51,13.78c29.93,7,30,34.53,30,34.53l.36,197.88c-2.3,25.08-22.08,32.32-28.2,33.87,0,0-117.61,27.83-124.57,29.23s-6.26,9-6.26,9c-.72,75.1,0,85.6,0,85.6a10.48,10.48,0,0,0,8.91,10.21H854.49A10.48,10.48,0,0,0,863.4,688S864.12,677.53,863.4,602.43ZM.48,90.17l987.24-.06"/><line class="cls-6" x1="500.58" y1="727.13" x2="499.62" y2="70.05"/><path class="cls-5" d="M500.93,352.22H988M858.9,594h54.74M730.81,298.9,500.93,352.22M267.72,298.9l233.21,53.32M728.62,563.14,500.5,510.83M270.19,563.14l230.74-52.31M863.72,677.39V791.55M500.93,510.73H989.49"/><path class="cls-1" d="M97.41,593.36v4.57l3.26.61,0,0a2.29,2.29,0,0,1-.61-1,3.68,3.68,0,0,1-.2-1.16,4.15,4.15,0,0,1,.24-1.42,3.09,3.09,0,0,1,.73-1.17,3.33,3.33,0,0,1,1.21-.78,4.62,4.62,0,0,1,1.7-.29,3.94,3.94,0,0,1,1.4.25,3.4,3.4,0,0,1,1.2.74,3.47,3.47,0,0,1,.85,1.24,4.38,4.38,0,0,1,.32,1.73,4.16,4.16,0,0,1-.22,1.38,3.34,3.34,0,0,1-.63,1.14,3.19,3.19,0,0,1-1,.79,3.27,3.27,0,0,1-1.36.3V599a2.13,2.13,0,0,0,1.46-.71,2,2,0,0,0,.43-.73,2.81,2.81,0,0,0,.15-.94,2.34,2.34,0,0,0-.17-.91,2.09,2.09,0,0,0-.5-.77,2.35,2.35,0,0,0-.84-.52,3.19,3.19,0,0,0-1.17-.19,2.86,2.86,0,0,0-1,.18,2.39,2.39,0,0,0-.82.52,2.28,2.28,0,0,0-.53.81,2.68,2.68,0,0,0-.19,1,2.49,2.49,0,0,0,.29,1.19,3.27,3.27,0,0,0,.78.92l-.07,1.17L96.22,599v-5.59Z"/><path class="cls-1" d="M101.79,591.32c-.63,0-1.28,0-2-.09a5.91,5.91,0,0,1-1.86-.46,3.44,3.44,0,0,1-1.4-1.14,3.52,3.52,0,0,1-.55-2.08,3.57,3.57,0,0,1,.55-2.09,3.5,3.5,0,0,1,1.4-1.13,5.91,5.91,0,0,1,1.86-.46c.68-.06,1.33-.09,2-.09l1.29,0a9.2,9.2,0,0,1,1.31.16,6.56,6.56,0,0,1,1.21.37,3.38,3.38,0,0,1,1,.65,3,3,0,0,1,.68,1,4.51,4.51,0,0,1,0,3,2.85,2.85,0,0,1-.68,1,3.22,3.22,0,0,1-1,.66,6.56,6.56,0,0,1-1.21.37,9.2,9.2,0,0,1-1.31.16Zm0-1.44c.43,0,.91,0,1.43,0a6.36,6.36,0,0,0,1.49-.25,2.89,2.89,0,0,0,1.17-.7,2.11,2.11,0,0,0,0-2.68,2.89,2.89,0,0,0-1.17-.7,5.88,5.88,0,0,0-1.49-.25c-.52,0-1,0-1.43,0h-.91c-.34,0-.68,0-1,.08a7.74,7.74,0,0,0-1,.21,2.72,2.72,0,0,0-.84.4,2,2,0,0,0-.58.66,2,2,0,0,0-.23,1,1.93,1.93,0,0,0,.23,1,2,2,0,0,0,.58.67,2.72,2.72,0,0,0,.84.4,6.3,6.3,0,0,0,1,.2,6.77,6.77,0,0,0,1,.08Z"/><path class="cls-1" d="M105.58,581.78V580h1.77v1.77Z"/><path class="cls-1" d="M103.5,572v-1.54h1.2V572h2.65v1.27H104.7v5h-1.31L96,573.06V572Zm0,1.27H98v0l5.54,3.76Z"/><path class="cls-1" d="M101.79,569.12c-.63,0-1.28,0-2-.09a5.91,5.91,0,0,1-1.86-.46,3.44,3.44,0,0,1-1.4-1.14,3.52,3.52,0,0,1,1.4-5.3,5.65,5.65,0,0,1,1.86-.46c.68-.06,1.33-.09,2-.09l1.29,0a8,8,0,0,1,1.31.16,5.87,5.87,0,0,1,1.21.37,3.2,3.2,0,0,1,1,.65,3,3,0,0,1,.68,1.05,4.51,4.51,0,0,1,0,3,2.85,2.85,0,0,1-.68,1,3.22,3.22,0,0,1-1,.66,6.56,6.56,0,0,1-1.21.37,9.21,9.21,0,0,1-1.31.15C102.64,569.11,102.21,569.12,101.79,569.12Zm0-1.44c.43,0,.91,0,1.43,0a5.88,5.88,0,0,0,1.49-.26,2.76,2.76,0,0,0,1.17-.69,1.82,1.82,0,0,0,.48-1.34,1.79,1.79,0,0,0-.48-1.34,2.78,2.78,0,0,0-1.17-.7,6.35,6.35,0,0,0-1.49-.26c-.52,0-1,0-1.43,0h-.91a8.42,8.42,0,0,0-1,.08,7.74,7.74,0,0,0-1,.21,2.51,2.51,0,0,0-.84.4,1.94,1.94,0,0,0-.58.66,2.18,2.18,0,0,0,0,2A1.85,1.85,0,0,0,98,567a2.51,2.51,0,0,0,.84.4,7.74,7.74,0,0,0,1,.21,6.77,6.77,0,0,0,1,.08Z"/><path class="cls-1" d="M110.51,553.21a20.21,20.21,0,0,1-3.58,1.83,11,11,0,0,1-3.89.68,12.18,12.18,0,0,1-3.81-.64,12.78,12.78,0,0,1-3.56-1.87v-1a12.94,12.94,0,0,0,3.61,1.63,14.63,14.63,0,0,0,3.76.48,14.44,14.44,0,0,0,3.82-.49,13.41,13.41,0,0,0,3.65-1.62Z"/><path class="cls-1" d="M107.35,546.64V548H99.23v2.94H98.15a6.86,6.86,0,0,0-.09-1.12,3.06,3.06,0,0,0-.33-1,2.3,2.3,0,0,0-.65-.74,2.48,2.48,0,0,0-1.06-.42v-1Z"/><path class="cls-1" d="M98.91,532.4a1.94,1.94,0,0,0-1.23.59,1.87,1.87,0,0,0-.46,1.31,2.17,2.17,0,0,0,.42,1.39,2.87,2.87,0,0,0,1.08.83,5.6,5.6,0,0,0,1.39.4,12.2,12.2,0,0,0,1.41.12l0,0a2.86,2.86,0,0,1-1.13-1.19,3.57,3.57,0,0,1-.36-1.64,3.76,3.76,0,0,1,.28-1.46,3.06,3.06,0,0,1,.78-1.08,3.4,3.4,0,0,1,1.17-.68,4.24,4.24,0,0,1,1.45-.24,4.58,4.58,0,0,1,1.29.19,3.59,3.59,0,0,1,1.23.63,3.2,3.2,0,0,1,.92,1.17,4,4,0,0,1,.36,1.79,3.53,3.53,0,0,1-.52,2,3.41,3.41,0,0,1-1.32,1.18,5.05,5.05,0,0,1-1.75.55,12,12,0,0,1-1.86.14,12.92,12.92,0,0,1-2.26-.2,6.1,6.1,0,0,1-1.94-.68,3.77,3.77,0,0,1-1.35-1.28,3.58,3.58,0,0,1-.52-2,3.2,3.2,0,0,1,.75-2.23,3.13,3.13,0,0,1,2.14-1Zm2.35,2a2.46,2.46,0,0,0,.2,1,2.34,2.34,0,0,0,.55.73,2.22,2.22,0,0,0,.81.46,3.27,3.27,0,0,0,1,.15,3.21,3.21,0,0,0,1-.16,2.43,2.43,0,0,0,.8-.46,2.09,2.09,0,0,0,.53-.73,2.29,2.29,0,0,0,.2-1,2.16,2.16,0,0,0-.2-1,1.87,1.87,0,0,0-.55-.72,2.31,2.31,0,0,0-.8-.44,2.93,2.93,0,0,0-1-.15,3.54,3.54,0,0,0-1,.13,2.08,2.08,0,0,0-.82.43,2.15,2.15,0,0,0-.55.71A2.31,2.31,0,0,0,101.26,534.44Z"/><path class="cls-1" d="M100.88,526.64c0-.1,0-.2,0-.3v-.29a2.81,2.81,0,0,0-.12-.82,2.06,2.06,0,0,0-.36-.69,1.75,1.75,0,0,0-.57-.47,1.86,1.86,0,0,0-.81-.17,1.66,1.66,0,0,0-1.36.57,2.26,2.26,0,0,0-.46,1.44,2.19,2.19,0,0,0,.2,1,1.92,1.92,0,0,0,.54.66,2,2,0,0,0,.78.39,3.24,3.24,0,0,0,.94.13v1.36a4.87,4.87,0,0,1-1.48-.27,3.18,3.18,0,0,1-1.15-.66,3,3,0,0,1-.75-1.08,3.67,3.67,0,0,1-.28-1.49,5,5,0,0,1,.19-1.37,3,3,0,0,1,.55-1.09,2.54,2.54,0,0,1,.94-.73,3.33,3.33,0,0,1,1.36-.26,2.19,2.19,0,0,1,1.35.45,3,3,0,0,1,.9,1.11h0a2.39,2.39,0,0,1,1-1.54,3.14,3.14,0,0,1,1.77-.5,3.36,3.36,0,0,1,1.49.31,3.12,3.12,0,0,1,1.08.84,3.59,3.59,0,0,1,.66,1.24,4.92,4.92,0,0,1,.22,1.51,4.56,4.56,0,0,1-.25,1.56,3.14,3.14,0,0,1-1.87,2,4.08,4.08,0,0,1-1.57.25v-1.36a2.79,2.79,0,0,0,1.8-.64,2.23,2.23,0,0,0,.69-1.77,3,3,0,0,0-.15-1,2.47,2.47,0,0,0-.43-.78,2.12,2.12,0,0,0-.69-.53,2,2,0,0,0-.92-.2,2.12,2.12,0,0,0-.93.19,2.21,2.21,0,0,0-.69.51,2.1,2.1,0,0,0-.41.77,3.24,3.24,0,0,0-.14.94,6.77,6.77,0,0,0,0,.81Z"/><path class="cls-1" d="M95.67,516.8v-1.16l12,4.73v1.16Z"/><path class="cls-1" d="M98.91,509.31a2,2,0,0,0-1.23.6,1.87,1.87,0,0,0-.46,1.31,2.17,2.17,0,0,0,.42,1.39,2.75,2.75,0,0,0,1.08.82,4.86,4.86,0,0,0,1.39.4,10.41,10.41,0,0,0,1.41.13l0,0a2.92,2.92,0,0,1-1.13-1.19,3.57,3.57,0,0,1-.36-1.64,3.76,3.76,0,0,1,.28-1.46,3.06,3.06,0,0,1,.78-1.08,3.4,3.4,0,0,1,1.17-.68,4.24,4.24,0,0,1,1.45-.24,4.58,4.58,0,0,1,1.29.19,3.59,3.59,0,0,1,1.23.63,3.2,3.2,0,0,1,.92,1.17,4,4,0,0,1,.36,1.79,3.53,3.53,0,0,1-.52,2,3.41,3.41,0,0,1-1.32,1.18,5.27,5.27,0,0,1-1.75.55,13.38,13.38,0,0,1-1.86.14,12.92,12.92,0,0,1-2.26-.2,6.1,6.1,0,0,1-1.94-.68,3.77,3.77,0,0,1-1.35-1.28,3.58,3.58,0,0,1-.52-2,3.18,3.18,0,0,1,.75-2.23,3.13,3.13,0,0,1,2.14-1Zm2.35,2.05a2.46,2.46,0,0,0,.2,1,2.34,2.34,0,0,0,.55.73,2.21,2.21,0,0,0,.81.45,3,3,0,0,0,1,.16,3.21,3.21,0,0,0,1-.16,2.43,2.43,0,0,0,.8-.46,2.18,2.18,0,0,0,.53-.73,2.32,2.32,0,0,0,.2-1,2.23,2.23,0,0,0-.2-1,1.92,1.92,0,0,0-.55-.71,2.31,2.31,0,0,0-.8-.44,2.93,2.93,0,0,0-1-.16,3.53,3.53,0,0,0-1,.14,2.07,2.07,0,0,0-1.37,1.14A2.31,2.31,0,0,0,101.26,511.36Z"/><path class="cls-1" d="M103.5,500.35v-1.53h1.2v1.53h2.65v1.28H104.7v5h-1.31L96,501.44v-1.09Zm0,1.28H98v0l5.54,3.77Z"/><path class="cls-1" d="M95.94,494.19V493.1h4.12v1.09Zm0,2.23v-1.08h4.12v1.08Z"/><path class="cls-1" d="M110.51,491.52a12.81,12.81,0,0,0-3.61-1.63,15.05,15.05,0,0,0-7.58,0,13.55,13.55,0,0,0-3.65,1.62v-1c.6-.38,1.19-.73,1.78-1a14.38,14.38,0,0,1,1.81-.79,12.11,12.11,0,0,1,1.88-.5,10.73,10.73,0,0,1,2-.18,12.17,12.17,0,0,1,3.8.64,12.65,12.65,0,0,1,3.56,1.87Z"/><path class="cls-1" d="M458.54,435.74a1.94,1.94,0,0,0-.59-1.23,1.82,1.82,0,0,0-1.31-.46,2.17,2.17,0,0,0-1.39.42,2.82,2.82,0,0,0-.83,1.07,5.67,5.67,0,0,0-.4,1.4,12.2,12.2,0,0,0-.12,1.41l0,0a3,3,0,0,1,1.19-1.14,3.69,3.69,0,0,1,1.63-.35,3.78,3.78,0,0,1,1.47.28,3.06,3.06,0,0,1,1.08.78,3.45,3.45,0,0,1,.68,1.16,4.34,4.34,0,0,1,.24,1.46,4.63,4.63,0,0,1-.19,1.29,3.59,3.59,0,0,1-.63,1.23,3.31,3.31,0,0,1-1.17.92,4,4,0,0,1-1.79.36,3.51,3.51,0,0,1-2-.52,3.55,3.55,0,0,1-1.18-1.32,5.34,5.34,0,0,1-.56-1.76,13.09,13.09,0,0,1-.13-1.85,12,12,0,0,1,.2-2.26,6,6,0,0,1,.68-1.94,3.86,3.86,0,0,1,1.27-1.36,3.72,3.72,0,0,1,2-.51,3.2,3.2,0,0,1,2.23.75,3.11,3.11,0,0,1,1,2.14Zm-2,2.35a2.46,2.46,0,0,0-1,.2,2.17,2.17,0,0,0-.73.54,2.27,2.27,0,0,0-.46.82,3.27,3.27,0,0,0-.15,1,2.94,2.94,0,0,0,.16,1,2.43,2.43,0,0,0,.46.8,2.09,2.09,0,0,0,.73.53,2.44,2.44,0,0,0,1,.2,2.3,2.3,0,0,0,1-.2,2,2,0,0,0,.72-.55,2.49,2.49,0,0,0,.44-.8,3,3,0,0,0,.15-1,3.66,3.66,0,0,0-.13-1,2.11,2.11,0,0,0-.43-.81,2.15,2.15,0,0,0-.71-.55A2.31,2.31,0,0,0,456.5,438.09Z"/><path class="cls-1" d="M463,441.45a1.71,1.71,0,0,0,.68,1.27,2.24,2.24,0,0,0,1.41.45,2,2,0,0,0,1.87-1.09,7.11,7.11,0,0,0,.69-3.29l-.05,0a3,3,0,0,1-2.62,1.57,4.09,4.09,0,0,1-1.53-.28,3.26,3.26,0,0,1-1.13-.78,3.17,3.17,0,0,1-.68-1.19,4.65,4.65,0,0,1-.24-1.54,4,4,0,0,1,.28-1.49,3.43,3.43,0,0,1,.76-1.17,3.57,3.57,0,0,1,1.19-.76,4,4,0,0,1,1.5-.27,4.36,4.36,0,0,1,1.49.25,2.88,2.88,0,0,1,1.24.85,4.53,4.53,0,0,1,.84,1.66,9.91,9.91,0,0,1,.31,2.66,8.9,8.9,0,0,1-.94,4.52,3.22,3.22,0,0,1-3,1.58,4.25,4.25,0,0,1-1.32-.19,2.93,2.93,0,0,1-1-.55,2.72,2.72,0,0,1-.72-.91,3.44,3.44,0,0,1-.35-1.27Zm4.39-4.81a3.21,3.21,0,0,0-.15-1,2.64,2.64,0,0,0-.44-.83,2.13,2.13,0,0,0-.73-.56,2.28,2.28,0,0,0-1-.21,2.18,2.18,0,0,0-1,.22,1.88,1.88,0,0,0-.68.6,2.5,2.5,0,0,0-.39.86,4.09,4.09,0,0,0-.12,1,2.54,2.54,0,0,0,.63,1.66,2.1,2.1,0,0,0,.71.54,2,2,0,0,0,.9.2,2.32,2.32,0,0,0,1-.2,2.17,2.17,0,0,0,.73-.54,2.41,2.41,0,0,0,.46-.79A2.76,2.76,0,0,0,467.34,436.64Z"/><path class="cls-1" d="M471,442.4h1.77v1.78H471Z"/><path class="cls-1" d="M475.17,435.74a2.65,2.65,0,0,1,.27-1.23,2.73,2.73,0,0,1,.74-.91,3.46,3.46,0,0,1,1.06-.56,4.35,4.35,0,0,1,1.25-.19,4.42,4.42,0,0,1,1.59.25,2.93,2.93,0,0,1,1.06.65,2.65,2.65,0,0,1,.6.93,3.25,3.25,0,0,1,.19,1.06,2.49,2.49,0,0,1-.43,1.4,2.71,2.71,0,0,1-1.14.95,2.72,2.72,0,0,1,1.52,1.05,3.08,3.08,0,0,1,.5,1.78,3.43,3.43,0,0,1-.3,1.46,3.25,3.25,0,0,1-.8,1.09,3.54,3.54,0,0,1-1.19.67,4.71,4.71,0,0,1-1.47.23,5,5,0,0,1-1.52-.22,3.65,3.65,0,0,1-1.22-.64,3,3,0,0,1-.81-1.08,3.57,3.57,0,0,1-.3-1.51,3,3,0,0,1,.51-1.75,2.82,2.82,0,0,1,1.47-1.08,2.44,2.44,0,0,1-1.15-.93A2.57,2.57,0,0,1,475.17,435.74Zm1,5.24a2,2,0,0,0,.68,1.61,2.55,2.55,0,0,0,1.73.58,2.62,2.62,0,0,0,.94-.17,2.21,2.21,0,0,0,.73-.46,2,2,0,0,0,.48-.7,2.21,2.21,0,0,0,.17-.87,1.9,1.9,0,0,0-.19-.86,2.1,2.1,0,0,0-.5-.68,2.41,2.41,0,0,0-.74-.45,2.44,2.44,0,0,0-.9-.17,2.87,2.87,0,0,0-.95.15,2.4,2.4,0,0,0-.76.44,2.21,2.21,0,0,0-.51.69A2.11,2.11,0,0,0,476.21,441Zm.4-5.19a1.86,1.86,0,0,0,.16.81,1.43,1.43,0,0,0,.43.56,1.71,1.71,0,0,0,.64.34,2.77,2.77,0,0,0,.78.11,1.91,1.91,0,0,0,1.34-.48,1.72,1.72,0,0,0,.53-1.34,1.6,1.6,0,0,0-.53-1.3,2.12,2.12,0,0,0-1.37-.44,2.77,2.77,0,0,0-.78.11,2,2,0,0,0-.62.34,1.71,1.71,0,0,0-.42.54A1.6,1.6,0,0,0,476.61,435.79Z"/><path class="cls-1" d="M490.52,434.24H486l-.6,3.26,0,0a2.17,2.17,0,0,1,.95-.61,3.37,3.37,0,0,1,1.16-.2,4.19,4.19,0,0,1,1.42.24,3.16,3.16,0,0,1,1.16.72,3.62,3.62,0,0,1,.79,1.22,4.62,4.62,0,0,1,.28,1.7,4.21,4.21,0,0,1-.24,1.4,3.57,3.57,0,0,1-.75,1.2,3.65,3.65,0,0,1-1.23.85,4.46,4.46,0,0,1-1.74.32,4.16,4.16,0,0,1-1.38-.22,3.2,3.2,0,0,1-1.14-.64,3,3,0,0,1-.78-1,3.13,3.13,0,0,1-.31-1.36h1.36a2,2,0,0,0,.22.8,2.11,2.11,0,0,0,.49.66,2.25,2.25,0,0,0,.74.43,2.75,2.75,0,0,0,.93.15,2.59,2.59,0,0,0,.92-.17,2.18,2.18,0,0,0,.77-.5,2.5,2.5,0,0,0,.52-.84,3.46,3.46,0,0,0,.19-1.17,2.63,2.63,0,0,0-.19-1,2.25,2.25,0,0,0-.52-.82,2.2,2.2,0,0,0-.8-.53,2.76,2.76,0,0,0-1.05-.19,2.32,2.32,0,0,0-1.18.29,3.45,3.45,0,0,0-.93.78l-1.16-.07,1.05-5.88h5.59Z"/><path class="cls-1" d="M508.48,447.34a18.73,18.73,0,0,1-1.83-3.59,10.71,10.71,0,0,1-.68-3.89,11.89,11.89,0,0,1,.64-3.8,12.39,12.39,0,0,1,1.87-3.56h1a13.1,13.1,0,0,0-1.63,3.61,14.49,14.49,0,0,0-.47,3.75,14.89,14.89,0,0,0,.48,3.83,14.2,14.2,0,0,0,1.62,3.65Z"/><path class="cls-1" d="M510.06,436.86a4.4,4.4,0,0,1,.18-1.6,3.63,3.63,0,0,1,.69-1.27,3.38,3.38,0,0,1,1.17-.84,4,4,0,0,1,1.6-.3,4.16,4.16,0,0,1,1.38.22,3.35,3.35,0,0,1,1.13.62,2.77,2.77,0,0,1,.75,1,3.3,3.3,0,0,1,.28,1.4,3.47,3.47,0,0,1-.23,1.33,4,4,0,0,1-.61,1,5.74,5.74,0,0,1-.88.82c-.33.24-.67.48-1,.7l-1.06.63a7.76,7.76,0,0,0-1,.67,3.8,3.8,0,0,0-.75.75,2.15,2.15,0,0,0-.41.94h5.81v1.2h-7.39a5.79,5.79,0,0,1,.36-1.72,5.29,5.29,0,0,1,.71-1.24,5.55,5.55,0,0,1,1-.92c.36-.26.74-.51,1.15-.76s.9-.57,1.26-.82a5.44,5.44,0,0,0,.9-.76,2.6,2.6,0,0,0,.73-1.87,1.9,1.9,0,0,0-.18-.83,2,2,0,0,0-.47-.65,2.14,2.14,0,0,0-.7-.42,2.55,2.55,0,0,0-.84-.14,2,2,0,0,0-1,.25,2.12,2.12,0,0,0-.69.64,2.76,2.76,0,0,0-.39.91,3.82,3.82,0,0,0-.11,1Z"/><path class="cls-1" d="M526.16,437.71h.59a2.76,2.76,0,0,0,.82-.12,2,2,0,0,0,.69-.35,1.75,1.75,0,0,0,.47-.57,1.73,1.73,0,0,0,.17-.81,1.65,1.65,0,0,0-.57-1.36,2.45,2.45,0,0,0-2.4-.26,2,2,0,0,0-.66.53,2.17,2.17,0,0,0-.39.79,3.24,3.24,0,0,0-.13.94h-1.36a5,5,0,0,1,.27-1.49,3.27,3.27,0,0,1,.66-1.15,3,3,0,0,1,1.08-.75,3.85,3.85,0,0,1,1.49-.27,4.63,4.63,0,0,1,1.37.19,3,3,0,0,1,1.09.55,2.54,2.54,0,0,1,.73.94,3.3,3.3,0,0,1,.26,1.36,2.19,2.19,0,0,1-.45,1.35,3,3,0,0,1-1.11.9v0a2.35,2.35,0,0,1,1.54,1,3.14,3.14,0,0,1,.5,1.77,3.36,3.36,0,0,1-.31,1.49,3.21,3.21,0,0,1-.84,1.08,3.42,3.42,0,0,1-1.24.65,4.92,4.92,0,0,1-1.51.23,4.56,4.56,0,0,1-1.56-.25,3.16,3.16,0,0,1-1.2-.72,3.12,3.12,0,0,1-.76-1.16,4.22,4.22,0,0,1-.25-1.56h1.36a2.81,2.81,0,0,0,.64,1.8,2.25,2.25,0,0,0,1.77.69,3,3,0,0,0,1-.15,2.69,2.69,0,0,0,.78-.43,2.12,2.12,0,0,0,.53-.69,2,2,0,0,0,.2-.92,2.12,2.12,0,0,0-.19-.93,2.21,2.21,0,0,0-.51-.69,2,2,0,0,0-.77-.41,3.19,3.19,0,0,0-.94-.14,6.77,6.77,0,0,0-.81.05Z"/><path class="cls-1" d="M536,432.5h1.16l-4.73,11.95h-1.16Z"/><path class="cls-1" d="M543.57,440.33h1.53v1.2h-1.53v2.65h-1.28v-2.65h-5v-1.31l5.16-7.37h1.09Zm-1.28,0v-5.55h0l-3.77,5.55Z"/><path class="cls-1" d="M547.5,432.77h1.08v4.12H547.5Zm2.23,0h1.09v4.12h-1.09Z"/><path class="cls-1" d="M552.4,447.34a12.81,12.81,0,0,0,1.63-3.61,15.05,15.05,0,0,0,0-7.58,13.41,13.41,0,0,0-1.62-3.65h1c.38.6.73,1.19,1,1.78a13.78,13.78,0,0,1,.79,1.81,12,12,0,0,1,.5,1.87,10.92,10.92,0,0,1,.18,2,12.17,12.17,0,0,1-.64,3.8,12.78,12.78,0,0,1-1.87,3.56Z"/><path class="cls-1" d="M97.22,299.69v4.57l3.26.6,0,0a2.17,2.17,0,0,1-.61-.95,3.63,3.63,0,0,1-.2-1.16,4.19,4.19,0,0,1,.24-1.42,3.16,3.16,0,0,1,.72-1.16,3.62,3.62,0,0,1,1.22-.79,4.62,4.62,0,0,1,1.7-.28,4.16,4.16,0,0,1,1.4.24,3.57,3.57,0,0,1,1.2.75,3.51,3.51,0,0,1,.85,1.23,4.46,4.46,0,0,1,.32,1.74,4.16,4.16,0,0,1-.22,1.38,3.34,3.34,0,0,1-.63,1.14,3.19,3.19,0,0,1-2.39,1.09v-1.36a2,2,0,0,0,.8-.22,2.08,2.08,0,0,0,1.09-1.23,2.75,2.75,0,0,0,.15-.93A2.39,2.39,0,0,0,106,302a2.18,2.18,0,0,0-.5-.77,2.33,2.33,0,0,0-.84-.51,3.18,3.18,0,0,0-1.17-.2,2.66,2.66,0,0,0-1,.19,2.25,2.25,0,0,0-.82.52,2.33,2.33,0,0,0-.53.8,2.76,2.76,0,0,0-.19,1.05,2.43,2.43,0,0,0,.29,1.18,3.45,3.45,0,0,0,.78.93l-.07,1.16L96,305.28v-5.59Z"/><path class="cls-1" d="M99.84,297.61a4.58,4.58,0,0,1-1.59-.18,3.56,3.56,0,0,1-1.27-.7,3,3,0,0,1-.84-1.16,3.87,3.87,0,0,1-.31-1.6,4.43,4.43,0,0,1,.22-1.38,3.35,3.35,0,0,1,.62-1.13,2.9,2.9,0,0,1,1-.76,3.72,3.72,0,0,1,2.73,0,4,4,0,0,1,1,.61,5.28,5.28,0,0,1,.82.88c.25.33.48.67.7,1s.43.7.63,1.06a7.76,7.76,0,0,0,.67,1,3.59,3.59,0,0,0,.76.75,2.06,2.06,0,0,0,.93.41v-5.81h1.2v7.39a5.48,5.48,0,0,1-1.72-.37,4.67,4.67,0,0,1-1.24-.71,5.51,5.51,0,0,1-.92-1c-.26-.36-.51-.74-.75-1.15s-.58-.9-.83-1.26a5.44,5.44,0,0,0-.76-.9,2.58,2.58,0,0,0-.83-.54,2.53,2.53,0,0,0-1-.19,2,2,0,0,0-1.49.65,2,2,0,0,0-.41.69,2.41,2.41,0,0,0-.15.85,1.92,1.92,0,0,0,.25,1,2,2,0,0,0,.65.7,2.62,2.62,0,0,0,.9.39,3.44,3.44,0,0,0,1,.1Z"/><path class="cls-1" d="M105.39,288.11v-1.77h1.77v1.77Z"/><path class="cls-1" d="M97.19,276.86a11.85,11.85,0,0,0,2,1.62,18,18,0,0,0,2.5,1.33,17.29,17.29,0,0,0,2.73.95,14.13,14.13,0,0,0,2.73.45v1.52a14.74,14.74,0,0,1-2.81-.48,16.24,16.24,0,0,1-2.61-1,17,17,0,0,1-4.44-3v5.95H96v-7.34Z"/><path class="cls-1" d="M98.72,275.07a2.66,2.66,0,0,1-2.14-1A3.46,3.46,0,0,1,96,273a4.37,4.37,0,0,1-.19-1.26,4.59,4.59,0,0,1,.25-1.58,2.86,2.86,0,0,1,.66-1.06,2.61,2.61,0,0,1,.92-.6,3,3,0,0,1,1.06-.19,2.39,2.39,0,0,1,1.4.43,2.74,2.74,0,0,1,.95,1.13,2.75,2.75,0,0,1,1.05-1.51,3.08,3.08,0,0,1,1.78-.5,3.43,3.43,0,0,1,1.46.3,3.12,3.12,0,0,1,1.09.8,3.59,3.59,0,0,1,.67,1.18,4.71,4.71,0,0,1,.23,1.47,4.94,4.94,0,0,1-.22,1.52,3.46,3.46,0,0,1-.64,1.22,3,3,0,0,1-1.08.82,3.57,3.57,0,0,1-1.51.29,3,3,0,0,1-1.75-.51,2.93,2.93,0,0,1-1.08-1.47,2.39,2.39,0,0,1-.93,1.15A2.47,2.47,0,0,1,98.72,275.07Zm0-1.43a2,2,0,0,0,.81-.16,1.65,1.65,0,0,0,.57-.43,1.77,1.77,0,0,0,.33-.64,2.56,2.56,0,0,0,.11-.79,1.91,1.91,0,0,0-.48-1.34,1.71,1.71,0,0,0-1.34-.52,1.57,1.57,0,0,0-1.3.53,2.1,2.1,0,0,0-.44,1.37,2.76,2.76,0,0,0,.11.77,1.77,1.77,0,0,0,.34.62,1.59,1.59,0,0,0,1.29.59Zm5.19.4a2,2,0,0,0,1.61-.68,2.58,2.58,0,0,0,.58-1.74,2.33,2.33,0,0,0-.17-.93,2.11,2.11,0,0,0-.46-.73,2,2,0,0,0-.69-.48,2.13,2.13,0,0,0-.88-.17,2,2,0,0,0-.86.18,2.1,2.1,0,0,0-.68.51,2.41,2.41,0,0,0-.45.74,2.44,2.44,0,0,0-.17.9,2.81,2.81,0,0,0,.15.94,2.3,2.3,0,0,0,.44.76,1.94,1.94,0,0,0,.69.51A2,2,0,0,0,104,274Z"/><path class="cls-1" d="M110.32,259.53a18.73,18.73,0,0,1-3.59,1.83,10.91,10.91,0,0,1-3.88.68A11.9,11.9,0,0,1,99,261.4a12.52,12.52,0,0,1-3.56-1.87v-1a12.94,12.94,0,0,0,3.61,1.63,14.63,14.63,0,0,0,3.76.48,14.86,14.86,0,0,0,3.82-.48,13.77,13.77,0,0,0,3.65-1.63Z"/><path class="cls-1" d="M99.84,258a4.58,4.58,0,0,1-1.59-.18,3.56,3.56,0,0,1-1.27-.7,3.1,3.1,0,0,1-.84-1.16,3.87,3.87,0,0,1-.31-1.6,4.43,4.43,0,0,1,.22-1.38,3.35,3.35,0,0,1,.62-1.13,2.9,2.9,0,0,1,1-.76,3.72,3.72,0,0,1,2.73,0,3.69,3.69,0,0,1,1,.61,5.28,5.28,0,0,1,.82.88c.25.33.48.67.7,1s.43.7.63,1.06a7.76,7.76,0,0,0,.67,1,4.14,4.14,0,0,0,.76.75,2.06,2.06,0,0,0,.93.41v-5.81h1.2v7.39a5.48,5.48,0,0,1-1.72-.37,4.67,4.67,0,0,1-1.24-.71,5.23,5.23,0,0,1-.92-1,12.5,12.5,0,0,1-.75-1.14c-.3-.48-.58-.9-.83-1.26a5.44,5.44,0,0,0-.76-.9,2.79,2.79,0,0,0-.83-.55,2.71,2.71,0,0,0-1-.18,2,2,0,0,0-1.49.65,2,2,0,0,0-.41.69,2.41,2.41,0,0,0-.15.85,1.92,1.92,0,0,0,.25,1,2,2,0,0,0,.65.7,2.62,2.62,0,0,0,.9.39,3.81,3.81,0,0,0,1,.1Z"/><path class="cls-1" d="M97.22,237.83v4.56l3.26.61,0,0a2.23,2.23,0,0,1-.61-.95,3.68,3.68,0,0,1-.2-1.16,4.19,4.19,0,0,1,.24-1.42,3.2,3.2,0,0,1,.72-1.17,3.46,3.46,0,0,1,1.22-.78,4.62,4.62,0,0,1,1.7-.29,4.17,4.17,0,0,1,1.4.25,3.52,3.52,0,0,1,2,2,4.41,4.41,0,0,1,.32,1.73,4.26,4.26,0,0,1-.22,1.39,3.34,3.34,0,0,1-.63,1.14,3.16,3.16,0,0,1-1,.78,3.27,3.27,0,0,1-1.36.3v-1.35a2.22,2.22,0,0,0,.8-.22,2.27,2.27,0,0,0,.66-.49A2.18,2.18,0,0,0,106,242a2.75,2.75,0,0,0,.15-.93,2.39,2.39,0,0,0-.17-.92,2.18,2.18,0,0,0-.5-.77,2.35,2.35,0,0,0-.84-.52,3.19,3.19,0,0,0-1.17-.19,2.86,2.86,0,0,0-1,.18,2.55,2.55,0,0,0-.82.52,2.47,2.47,0,0,0-.53.81,2.69,2.69,0,0,0-.19,1,2.45,2.45,0,0,0,.29,1.18,3.27,3.27,0,0,0,.78.92l-.07,1.17L96,243.42v-5.59Z"/><path class="cls-1" d="M95.48,232v-1.16l12,4.72v1.17Z"/><path class="cls-1" d="M98.72,224.52a1.94,1.94,0,0,0-1.23.59,1.88,1.88,0,0,0-.46,1.31,2.2,2.2,0,0,0,.42,1.4,2.79,2.79,0,0,0,1.07.82,5.38,5.38,0,0,0,1.4.4,10.41,10.41,0,0,0,1.41.13l0,0a2.92,2.92,0,0,1-1.13-1.19,3.6,3.6,0,0,1-.36-1.64,3.76,3.76,0,0,1,.28-1.46,3.1,3.1,0,0,1,.78-1.09,3.62,3.62,0,0,1,1.16-.68,4.34,4.34,0,0,1,1.46-.24,4.66,4.66,0,0,1,1.29.2,3.27,3.27,0,0,1,1.23.63,3.36,3.36,0,0,1,.92,1.16,4.07,4.07,0,0,1,.36,1.8,3.32,3.32,0,0,1-1.84,3.21,5.35,5.35,0,0,1-1.75.55,13.38,13.38,0,0,1-1.86.14,12.92,12.92,0,0,1-2.26-.2,6.36,6.36,0,0,1-1.94-.68,4,4,0,0,1-1.36-1.28,3.66,3.66,0,0,1-.51-2,2.93,2.93,0,0,1,2.89-3.2Zm2.35,2a2.41,2.41,0,0,0,.2,1,2.38,2.38,0,0,0,.55.74,2.21,2.21,0,0,0,.81.45,3.27,3.27,0,0,0,1,.15,2.94,2.94,0,0,0,1-.16,2.25,2.25,0,0,0,.8-.45,2.13,2.13,0,0,0,.53-.74,2.25,2.25,0,0,0,.2-1,2.2,2.2,0,0,0-.2-1,1.87,1.87,0,0,0-.55-.72,2.49,2.49,0,0,0-.8-.44,3,3,0,0,0-1-.15,3.53,3.53,0,0,0-1,.14,2.2,2.2,0,0,0-.82.42,2.09,2.09,0,0,0-.55.72A2.28,2.28,0,0,0,101.07,226.57Z"/><path class="cls-1" d="M103.31,215.56V214h1.2v1.53h2.65v1.28h-2.65v5H103.2l-7.37-5.16v-1.09Zm0,1.28H97.77v0l5.54,3.77Z"/><path class="cls-1" d="M95.75,209.39v-1.08h4.12v1.08Zm0,2.24v-1.09h4.12v1.09Z"/><path class="cls-1" d="M110.32,206.73a12.81,12.81,0,0,0-3.61-1.63,15.05,15.05,0,0,0-7.58,0,13.55,13.55,0,0,0-3.65,1.62v-1c.6-.38,1.19-.73,1.78-1a14.38,14.38,0,0,1,1.81-.79,11.23,11.23,0,0,1,1.87-.5,10.92,10.92,0,0,1,2-.18,11.89,11.89,0,0,1,3.8.64,12.65,12.65,0,0,1,3.56,1.87Z"/><line class="cls-2" x1="113.73" y1="413.34" x2="113.73" y2="686.44"/><polygon class="cls-3" points="110.02 415.99 113.89 401.54 117.76 415.99 110.02 415.99"/><polygon class="cls-3" points="110.02 683.8 113.89 698.25 117.76 683.8 110.02 683.8"/><line class="cls-2" x1="113.73" y1="101.92" x2="113.73" y2="389.73"/><polygon class="cls-3" points="110.02 104.56 113.89 90.11 117.76 104.56 110.02 104.56"/><polygon class="cls-3" points="110.02 387.09 113.89 401.54 117.76 387.09 110.02 387.09"/><line class="cls-2" x1="691.86" y1="450.2" x2="305.58" y2="450.2"/><polygon class="cls-3" points="689.22 446.49 703.66 450.36 689.22 454.23 689.22 446.49"/><polygon class="cls-3" points="308.22 446.49 293.77 450.36 308.22 454.23 308.22 446.49"/><line class="cls-7" x1="104.96" y1="401.88" x2="499.84" y2="401.88"/><path class="cls-1" d="M90.4,407.05l4.42-6-3.9-5.47h1.8l2.08,2.93a16.5,16.5,0,0,1,.92,1.4,14,14,0,0,1,.9-1.3l2.3-3h1.65l-4,5.39,4.33,6H99L96.13,403c-.16-.23-.32-.49-.5-.76-.25.41-.43.7-.54.85l-2.87,4Z"/><path class="cls-1" d="M507.35,407.05l4.42-6-3.9-5.47h1.81l2.07,2.93a16.5,16.5,0,0,1,.92,1.4c.26-.41.56-.85.91-1.3l2.3-3h1.64l-4,5.39,4.33,6H516L513.08,403c-.16-.23-.32-.49-.5-.76-.25.41-.43.7-.54.85l-2.87,4Z"/><path class="cls-1" d="M471.42,775.82h-1.36V767.7h-2.93v-1.08a6.74,6.74,0,0,0,1.11-.09,3.12,3.12,0,0,0,1-.33,2.3,2.3,0,0,0,.74-.65,2.48,2.48,0,0,0,.41-1.06h1Z"/><path class="cls-1" d="M475.32,768.5a4.63,4.63,0,0,1,.18-1.6,3.65,3.65,0,0,1,.7-1.27,3.43,3.43,0,0,1,1.16-.84,4,4,0,0,1,1.6-.3,4.16,4.16,0,0,1,1.38.22,3.35,3.35,0,0,1,1.13.62,2.9,2.9,0,0,1,.76,1,3.46,3.46,0,0,1,.28,1.4,3.67,3.67,0,0,1-.23,1.33,4,4,0,0,1-.62,1,5.31,5.31,0,0,1-.88.82c-.33.24-.67.48-1,.7l-1.05.63a7.19,7.19,0,0,0-1,.67,4.43,4.43,0,0,0-.75.75,2.1,2.1,0,0,0-.41.94h5.82v1.2H475a5.7,5.7,0,0,1,.37-1.72,4.83,4.83,0,0,1,1.67-2.16c.35-.26.73-.51,1.14-.76s.9-.57,1.26-.82a5.44,5.44,0,0,0,.9-.76,2.79,2.79,0,0,0,.55-.83,2.76,2.76,0,0,0,.18-1,2,2,0,0,0-.18-.84,1.87,1.87,0,0,0-.47-.64,2.1,2.1,0,0,0-.69-.42,2.66,2.66,0,0,0-.85-.14,1.92,1.92,0,0,0-1,.25,2.05,2.05,0,0,0-.7.64,2.76,2.76,0,0,0-.39.91,3.81,3.81,0,0,0-.1,1Z"/><path class="cls-1" d="M487,769.35h.59a2.76,2.76,0,0,0,.82-.12,2,2,0,0,0,.69-.35,1.64,1.64,0,0,0,.47-.57,1.73,1.73,0,0,0,.18-.81,1.63,1.63,0,0,0-.58-1.36,2.2,2.2,0,0,0-1.44-.46,2.12,2.12,0,0,0-.95.2,2,2,0,0,0-.67.53,2.54,2.54,0,0,0-.39.79,3.56,3.56,0,0,0-.13.94h-1.35a5.33,5.33,0,0,1,.26-1.49,3.43,3.43,0,0,1,.66-1.15,3,3,0,0,1,1.08-.75,3.85,3.85,0,0,1,1.49-.27,4.63,4.63,0,0,1,1.37.19,3,3,0,0,1,1.09.55,2.37,2.37,0,0,1,.73.94,3.14,3.14,0,0,1,.26,1.36,2.19,2.19,0,0,1-.45,1.35,2.93,2.93,0,0,1-1.11.9v0a2.35,2.35,0,0,1,1.54,1,3.1,3.1,0,0,1,.5,1.78,3.36,3.36,0,0,1-.31,1.49,3.09,3.09,0,0,1-.84,1.08,3.62,3.62,0,0,1-1.23.65,5,5,0,0,1-1.51.23,4.58,4.58,0,0,1-1.57-.25A3.43,3.43,0,0,1,485,775a3.12,3.12,0,0,1-.76-1.16,4.23,4.23,0,0,1-.24-1.56h1.35a2.82,2.82,0,0,0,.64,1.79,2.23,2.23,0,0,0,1.78.7,2.94,2.94,0,0,0,.94-.15,2.45,2.45,0,0,0,.78-.43,2.3,2.3,0,0,0,.54-.69,2.24,2.24,0,0,0,0-1.85,1.94,1.94,0,0,0-.51-.69,2.16,2.16,0,0,0-.76-.42,3.3,3.3,0,0,0-.95-.13,7,7,0,0,0-.81,0Z"/><path class="cls-1" d="M493.7,774h1.78v1.78H493.7Z"/><path class="cls-1" d="M497.86,767.38a2.73,2.73,0,0,1,.27-1.24,2.76,2.76,0,0,1,.73-.9,3.52,3.52,0,0,1,1.07-.56,3.94,3.94,0,0,1,1.25-.19,4.37,4.37,0,0,1,1.58.25,2.85,2.85,0,0,1,1.06.65,2.65,2.65,0,0,1,.6.93,3,3,0,0,1,.19,1.06,2.41,2.41,0,0,1-.43,1.4,2.68,2.68,0,0,1-1.13,1,2.72,2.72,0,0,1,1.52,1,3.06,3.06,0,0,1,.49,1.78,3.59,3.59,0,0,1-.29,1.46,3.24,3.24,0,0,1-.8,1.08,3.59,3.59,0,0,1-1.19.68,4.71,4.71,0,0,1-1.47.23,4.94,4.94,0,0,1-1.52-.22,3.33,3.33,0,0,1-1.22-.65,2.92,2.92,0,0,1-.82-1.07,3.77,3.77,0,0,1-.29-1.51,3,3,0,0,1,.51-1.75,2.82,2.82,0,0,1,1.47-1.08,2.44,2.44,0,0,1-1.15-.93A2.52,2.52,0,0,1,497.86,767.38Zm1,5.24a2,2,0,0,0,.67,1.61,2.58,2.58,0,0,0,1.74.58,2.52,2.52,0,0,0,.93-.17,2.25,2.25,0,0,0,.74-.46,2.29,2.29,0,0,0,.48-.7,2.23,2.23,0,0,0,.16-.88,2,2,0,0,0-.18-.85,2.1,2.1,0,0,0-.5-.68,2.54,2.54,0,0,0-1.65-.62,2.85,2.85,0,0,0-.94.15,2.3,2.3,0,0,0-.76.44,1.94,1.94,0,0,0-.51.69A2.11,2.11,0,0,0,498.9,772.62Zm.39-5.19a2,2,0,0,0,.16.81,1.53,1.53,0,0,0,.44.56,1.91,1.91,0,0,0,.63.34,2.9,2.9,0,0,0,.79.11,1.91,1.91,0,0,0,1.34-.48,1.72,1.72,0,0,0,.53-1.34,1.57,1.57,0,0,0-.54-1.3,2.09,2.09,0,0,0-1.36-.44,2.77,2.77,0,0,0-.78.11,1.77,1.77,0,0,0-.62.34,1.59,1.59,0,0,0-.59,1.29Z"/><path class="cls-1" d="M509.18,769.35h.59a2.87,2.87,0,0,0,.83-.12,1.91,1.91,0,0,0,.68-.35,1.53,1.53,0,0,0,.47-.57,1.73,1.73,0,0,0,.18-.81,1.63,1.63,0,0,0-.58-1.36,2.19,2.19,0,0,0-1.43-.46,2.13,2.13,0,0,0-1,.2,1.82,1.82,0,0,0-.66.53,2.36,2.36,0,0,0-.4.79,3.56,3.56,0,0,0-.12.94h-1.36a5.33,5.33,0,0,1,.26-1.49,3.45,3.45,0,0,1,.67-1.15,2.87,2.87,0,0,1,1.07-.75,3.86,3.86,0,0,1,1.5-.27,4.56,4.56,0,0,1,1.36.19,3.08,3.08,0,0,1,1.1.55,2.35,2.35,0,0,1,.72.94,3.14,3.14,0,0,1,.27,1.36,2.14,2.14,0,0,1-.46,1.35,2.93,2.93,0,0,1-1.11.9v0a2.35,2.35,0,0,1,1.54,1,3.1,3.1,0,0,1,.51,1.78,3.37,3.37,0,0,1-.32,1.49,3.07,3.07,0,0,1-.83,1.08,3.76,3.76,0,0,1-1.24.65A5,5,0,0,1,510,776a4.58,4.58,0,0,1-1.57-.25,3.39,3.39,0,0,1-1.19-.72,3,3,0,0,1-.76-1.16,4,4,0,0,1-.25-1.56h1.36a2.71,2.71,0,0,0,.64,1.79,2.19,2.19,0,0,0,1.77.7,2.94,2.94,0,0,0,.94-.15,2.45,2.45,0,0,0,.78-.43,2,2,0,0,0,.54-.69,2.11,2.11,0,0,0,.2-.92,2.27,2.27,0,0,0-.19-.93,2,2,0,0,0-1.28-1.11,3.24,3.24,0,0,0-.94-.13,7.08,7.08,0,0,0-.82,0Z"/><path class="cls-1" d="M522.28,779a18.73,18.73,0,0,1-1.83-3.59,11,11,0,0,1-.68-3.89,11.89,11.89,0,0,1,.64-3.8,12.65,12.65,0,0,1,1.87-3.56h1a12.81,12.81,0,0,0-1.63,3.61,15.05,15.05,0,0,0,0,7.58,13.55,13.55,0,0,0,1.62,3.65Z"/><path class="cls-1" d="M529.85,772h1.53v1.19h-1.53v2.66h-1.28v-2.66h-5v-1.31l5.15-7.36h1.09Zm-1.28,0v-5.55h0L524.77,772Z"/><path class="cls-1" d="M544.61,765.85a11.08,11.08,0,0,0-1.61,2,18.5,18.5,0,0,0-1.34,2.49,19.19,19.19,0,0,0-.95,2.73,14.31,14.31,0,0,0-.44,2.74h-1.52a13.87,13.87,0,0,1,.47-2.81,16.72,16.72,0,0,1,1-2.62,17.38,17.38,0,0,1,1.37-2.37,17.86,17.86,0,0,1,1.67-2.06h-5.94v-1.28h7.33Z"/><path class="cls-1" d="M549.8,764.14H551l-4.73,12h-1.17Z"/><path class="cls-1" d="M551.72,767.38a2.73,2.73,0,0,1,.27-1.24,2.76,2.76,0,0,1,.73-.9,3.52,3.52,0,0,1,1.07-.56,3.94,3.94,0,0,1,1.25-.19,4.37,4.37,0,0,1,1.58.25,2.85,2.85,0,0,1,1.06.65,2.52,2.52,0,0,1,.6.93,3,3,0,0,1,.19,1.06,2.41,2.41,0,0,1-.43,1.4,2.62,2.62,0,0,1-1.13,1,2.72,2.72,0,0,1,1.52,1,3.06,3.06,0,0,1,.49,1.78,3.59,3.59,0,0,1-.29,1.46,3.24,3.24,0,0,1-.8,1.08,3.59,3.59,0,0,1-1.19.68,4.71,4.71,0,0,1-1.47.23,4.94,4.94,0,0,1-1.52-.22,3.33,3.33,0,0,1-1.22-.65,2.92,2.92,0,0,1-.82-1.07,3.77,3.77,0,0,1-.29-1.51,3,3,0,0,1,.51-1.75,2.82,2.82,0,0,1,1.47-1.08,2.44,2.44,0,0,1-1.15-.93A2.52,2.52,0,0,1,551.72,767.38Zm1,5.24a2,2,0,0,0,.67,1.61,2.58,2.58,0,0,0,1.74.58,2.52,2.52,0,0,0,.93-.17,2.25,2.25,0,0,0,.74-.46,2.29,2.29,0,0,0,.48-.7,2.23,2.23,0,0,0,.16-.88,2,2,0,0,0-.18-.85,2.1,2.1,0,0,0-.5-.68,2.54,2.54,0,0,0-1.65-.62,2.85,2.85,0,0,0-.94.15,2.3,2.3,0,0,0-.76.44,1.94,1.94,0,0,0-.51.69A2.11,2.11,0,0,0,552.76,772.62Zm.39-5.19a2,2,0,0,0,.16.81,1.53,1.53,0,0,0,.44.56,1.91,1.91,0,0,0,.63.34,2.9,2.9,0,0,0,.79.11,1.91,1.91,0,0,0,1.34-.48,1.72,1.72,0,0,0,.53-1.34,1.57,1.57,0,0,0-.54-1.3,2.09,2.09,0,0,0-1.36-.44,2.77,2.77,0,0,0-.78.11,1.77,1.77,0,0,0-.62.34,1.59,1.59,0,0,0-.59,1.29Z"/><path class="cls-1" d="M561.3,764.41h1.09v4.12H561.3Zm2.24,0h1.08v4.12h-1.08Z"/><path class="cls-1" d="M566.21,779a13.19,13.19,0,0,0,1.62-3.61,14.57,14.57,0,0,0,.48-3.76,14.86,14.86,0,0,0-.48-3.82,14.05,14.05,0,0,0-1.62-3.65h1c.39.6.73,1.19,1,1.78a13.78,13.78,0,0,1,.79,1.81,12,12,0,0,1,.51,1.87,11.76,11.76,0,0,1-.47,5.82,12.52,12.52,0,0,1-1.87,3.56Z"/><line class="cls-5" x1="851.85" y1="781.83" x2="146.37" y2="781.83"/><polygon class="cls-3" points="849.21 785.7 863.66 781.83 849.21 777.95 849.21 785.7"/><polygon class="cls-3" points="134.57 781.82 149.01 785.69 149.01 777.95 134.57 781.82"/><line class="cls-2" x1="280.97" y1="288.39" x2="328.53" y2="203.11"/><polygon class="cls-3" points="285.49 287.89 275.08 298.62 278.73 284.12 285.49 287.89"/><line class="cls-2" x1="786.38" y1="118.55" x2="714.44" y2="184.57"/><polygon class="cls-3" points="781.93 117.6 795.19 110.69 787.17 123.31 781.93 117.6"/><line class="cls-2" x1="791.22" y1="272.19" x2="708.27" y2="220.68"/><polygon class="cls-3" points="790.93 267.65 801.17 278.55 786.85 274.23 790.93 267.65"/><line class="cls-2" x1="697.58" y1="551.71" x2="592.77" y2="613.17"/><polygon class="cls-3" points="693.43 549.84 707.85 545.87 697.35 556.52 693.43 549.84"/><line class="cls-5" x1="905.76" y1="686.44" x2="905.76" y2="605.85"/><polygon class="cls-3" points="909.47 683.8 905.6 698.25 901.73 683.8 909.47 683.8"/><polygon class="cls-3" points="909.47 608.49 905.6 594.04 901.73 608.49 909.47 608.49"/><path class="cls-1" d="M965.36,649.07a1.67,1.67,0,0,0,0-.31v-.28a2.87,2.87,0,0,0-.12-.83,2.08,2.08,0,0,0-.35-.68,1.57,1.57,0,0,0-.58-.47,1.66,1.66,0,0,0-.8-.18,1.63,1.63,0,0,0-1.36.58,2.19,2.19,0,0,0-.46,1.43,2,2,0,0,0,.2,1,1.82,1.82,0,0,0,.53.66,2.4,2.4,0,0,0,.78.4,3.69,3.69,0,0,0,.95.12v1.36a5.27,5.27,0,0,1-1.49-.26,3.35,3.35,0,0,1-1.15-.67,2.87,2.87,0,0,1-.75-1.07,3.86,3.86,0,0,1-.27-1.5,4.92,4.92,0,0,1,.18-1.36,3.44,3.44,0,0,1,.55-1.1,2.45,2.45,0,0,1,1-.72,3.13,3.13,0,0,1,1.35-.27,2.14,2.14,0,0,1,1.35.46,3,3,0,0,1,.91,1.11h0a2.35,2.35,0,0,1,1-1.54,3.08,3.08,0,0,1,1.78-.51,3.37,3.37,0,0,1,1.49.32,3.07,3.07,0,0,1,1.08.83,4,4,0,0,1,.65,1.24,5,5,0,0,1,.23,1.51,4.83,4.83,0,0,1-.25,1.57,3.39,3.39,0,0,1-.72,1.19,3,3,0,0,1-1.16.76,4.06,4.06,0,0,1-1.56.25v-1.36a2.71,2.71,0,0,0,1.79-.64,2.19,2.19,0,0,0,.7-1.77,2.94,2.94,0,0,0-.15-.94,2.47,2.47,0,0,0-.44-.78,1.9,1.9,0,0,0-.68-.54,2.11,2.11,0,0,0-.92-.2,2.27,2.27,0,0,0-.93.19,2,2,0,0,0-.69.51,2.06,2.06,0,0,0-.42.77,3.24,3.24,0,0,0-.13.94,5.39,5.39,0,0,0,0,.82Z"/><path class="cls-1" d="M971.83,638v1.36h-8.11v2.94h-1.09a8.2,8.2,0,0,0-.08-1.12,3.06,3.06,0,0,0-.33-1,2.22,2.22,0,0,0-.66-.74,2.44,2.44,0,0,0-1-.42v-1Z"/><path class="cls-1" d="M970.06,633.46v-1.77h1.77v1.77Z"/><path class="cls-1" d="M961.87,622.22a11.52,11.52,0,0,0,2,1.61,17.39,17.39,0,0,0,2.49,1.33,19.23,19.23,0,0,0,2.73,1,14.34,14.34,0,0,0,2.73.44v1.52a13.89,13.89,0,0,1-2.8-.47,15.8,15.8,0,0,1-2.62-1,16.75,16.75,0,0,1-2.37-1.36,18.06,18.06,0,0,1-2.06-1.67v5.94H960.7v-7.33Z"/><path class="cls-1" d="M963.4,614.85a2,2,0,0,0-1.23.6,1.82,1.82,0,0,0-.46,1.31,2.17,2.17,0,0,0,.42,1.39,2.72,2.72,0,0,0,1.07.82,4.93,4.93,0,0,0,1.4.4,10.42,10.42,0,0,0,1.4.13l0,0a2.94,2.94,0,0,1-1.14-1.19,3.7,3.7,0,0,1-.35-1.64,3.59,3.59,0,0,1,.28-1.46,3,3,0,0,1,.77-1.08,3.4,3.4,0,0,1,1.17-.68,4.28,4.28,0,0,1,1.45-.24,4.65,4.65,0,0,1,1.3.19,3.68,3.68,0,0,1,1.23.63,3.31,3.31,0,0,1,.92,1.17A4,4,0,0,1,972,617a3.61,3.61,0,0,1-.52,2,3.55,3.55,0,0,1-1.32,1.18,5.33,5.33,0,0,1-1.76.55,13.24,13.24,0,0,1-1.85.14,12.84,12.84,0,0,1-2.26-.2,6,6,0,0,1-1.94-.68A3.72,3.72,0,0,1,961,618.7a3.66,3.66,0,0,1-.51-2,3.18,3.18,0,0,1,.75-2.23,3.09,3.09,0,0,1,2.14-1Zm2.35,2a2.31,2.31,0,0,0,.2,1,2.17,2.17,0,0,0,.54.73,2.25,2.25,0,0,0,.82.45,2.94,2.94,0,0,0,1,.16,3.11,3.11,0,0,0,1-.16,2.33,2.33,0,0,0,.8-.46,2.08,2.08,0,0,0,.54-.73,2.48,2.48,0,0,0,.2-1,2.38,2.38,0,0,0-.2-1,2,2,0,0,0-.55-.71,2.41,2.41,0,0,0-.8-.44,3,3,0,0,0-1-.16,3.66,3.66,0,0,0-1,.14,2.23,2.23,0,0,0-.81.42,2.07,2.07,0,0,0-.55.72A2.31,2.31,0,0,0,965.75,616.9Z"/><path class="cls-1" d="M975,604.89a20.29,20.29,0,0,1-3.59,1.83,11,11,0,0,1-3.89.67,12.15,12.15,0,0,1-3.8-.63,12.51,12.51,0,0,1-3.56-1.87v-1a12.69,12.69,0,0,0,3.61,1.63,15.05,15.05,0,0,0,7.58,0,13.55,13.55,0,0,0,3.65-1.62Z"/><path class="cls-1" d="M971.83,598.32v1.36h-8.11v2.94h-1.09a8.2,8.2,0,0,0-.08-1.12,3.06,3.06,0,0,0-.33-1,2.22,2.22,0,0,0-.66-.74,2.44,2.44,0,0,0-1-.42v-1Z"/><path class="cls-1" d="M971.83,585v1.36h-8.11v2.94h-1.09a8.09,8.09,0,0,0-.08-1.12,3.06,3.06,0,0,0-.33-1,2.13,2.13,0,0,0-.66-.74,2.32,2.32,0,0,0-1-.42v-1Z"/><path class="cls-1" d="M960.16,577.37V576.2l12,4.73v1.16Z"/><path class="cls-1" d="M968,569.8v-1.54h1.2v1.54h2.65v1.27h-2.65v5h-1.31l-7.36-5.16V569.8Zm0,1.27h-5.54v0l5.54,3.77Z"/><path class="cls-1" d="M960.43,563.63v-1.09h4.12v1.09Zm0,2.24v-1.09h4.12v1.09Z"/><path class="cls-1" d="M975,561a12.94,12.94,0,0,0-3.61-1.63,14.63,14.63,0,0,0-3.76-.48,14.86,14.86,0,0,0-3.82.49,14.05,14.05,0,0,0-3.65,1.62v-1c.59-.38,1.19-.73,1.78-1a15.86,15.86,0,0,1,1.8-.79,13.71,13.71,0,0,1,1.88-.5,10.9,10.9,0,0,1,2-.17,12.06,12.06,0,0,1,3.8.63,12.7,12.7,0,0,1,3.57,1.87Z"/><line class="cls-5" x1="978.52" y1="686.44" x2="978.52" y2="522.54"/><polygon class="cls-3" points="982.23 683.8 978.36 698.25 974.48 683.8 982.23 683.8"/><polygon class="cls-3" points="982.23 525.18 978.36 510.73 974.48 525.18 982.23 525.18"/><path class="cls-1" d="M964.52,482.23a4.17,4.17,0,0,1-1.6-.18,3.63,3.63,0,0,1-1.27-.69,3.25,3.25,0,0,1-.84-1.17,4,4,0,0,1-.3-1.6,4.43,4.43,0,0,1,.21-1.38,3.55,3.55,0,0,1,.63-1.13,2.88,2.88,0,0,1,1-.75,3.3,3.3,0,0,1,1.4-.28,3.38,3.38,0,0,1,1.32.23,3.65,3.65,0,0,1,1,.61,5.34,5.34,0,0,1,.83.88c.24.33.48.67.7,1l.63,1.06a9,9,0,0,0,.66,1,4.55,4.55,0,0,0,.76.76,2.15,2.15,0,0,0,.94.4v-5.81h1.19v7.39a5.72,5.72,0,0,1-1.71-.36,5.1,5.1,0,0,1-1.24-.71,5.55,5.55,0,0,1-.92-1c-.26-.36-.51-.74-.76-1.14s-.57-.9-.82-1.27a5.44,5.44,0,0,0-.76-.9,2.69,2.69,0,0,0-.83-.54,2.76,2.76,0,0,0-1-.19,1.92,1.92,0,0,0-.84.18,2,2,0,0,0-.64.47,2.14,2.14,0,0,0-.42.7,2.32,2.32,0,0,0-.14.84,2.05,2.05,0,0,0,.24,1,2.26,2.26,0,0,0,.65.69,2.8,2.8,0,0,0,.9.39,3.94,3.94,0,0,0,1,.11Z"/><path class="cls-1" d="M963.4,467.44a2,2,0,0,0-1.23.59,1.84,1.84,0,0,0-.46,1.31,2.18,2.18,0,0,0,.42,1.4,2.72,2.72,0,0,0,1.07.82,4.93,4.93,0,0,0,1.4.4,10.42,10.42,0,0,0,1.4.13l0,0a2.94,2.94,0,0,1-1.14-1.19,3.7,3.7,0,0,1-.35-1.64,3.59,3.59,0,0,1,.28-1.46,3.17,3.17,0,0,1,.77-1.09,3.54,3.54,0,0,1,1.17-.67,4.28,4.28,0,0,1,1.45-.24,4.65,4.65,0,0,1,1.3.19,3.68,3.68,0,0,1,1.23.63,3.31,3.31,0,0,1,.92,1.17,4,4,0,0,1,.36,1.79,3.61,3.61,0,0,1-.52,2,3.55,3.55,0,0,1-1.32,1.18,5.33,5.33,0,0,1-1.76.55,13.24,13.24,0,0,1-1.85.14,12.84,12.84,0,0,1-2.26-.2,6,6,0,0,1-1.94-.68,3.72,3.72,0,0,1-1.36-1.28,3.66,3.66,0,0,1-.51-2,3.23,3.23,0,0,1,.75-2.24,3.13,3.13,0,0,1,2.14-1Zm2.35,2.05a2.23,2.23,0,0,0,.2,1,2.12,2.12,0,0,0,.54.74,2.25,2.25,0,0,0,.82.45,2.94,2.94,0,0,0,1,.16,3.11,3.11,0,0,0,1-.16,2.33,2.33,0,0,0,.8-.46,2.08,2.08,0,0,0,.54-.73,2.48,2.48,0,0,0,.2-1,2.38,2.38,0,0,0-.2-1,2,2,0,0,0-.55-.71,2.41,2.41,0,0,0-.8-.44,2.76,2.76,0,0,0-1-.16,3.66,3.66,0,0,0-1,.14,2.23,2.23,0,0,0-.81.42,2,2,0,0,0-.55.72A2.28,2.28,0,0,0,965.75,469.49Z"/><path class="cls-1" d="M970.06,463.85v-1.77h1.77v1.77Z"/><path class="cls-1" d="M969.1,458.59a1.69,1.69,0,0,0,1.28-.67,2.24,2.24,0,0,0,.45-1.41,2,2,0,0,0-1.09-1.87,7.11,7.11,0,0,0-3.29-.69l0,0a3,3,0,0,1,1.56,2.62,4.11,4.11,0,0,1-.27,1.54,3.22,3.22,0,0,1-.78,1.12,3.13,3.13,0,0,1-1.19.69,5,5,0,0,1-1.54.23,4,4,0,0,1-1.49-.27,3.27,3.27,0,0,1-1.17-.77,3.38,3.38,0,0,1-.76-1.18,4.08,4.08,0,0,1-.27-1.5,4.36,4.36,0,0,1,.25-1.49,2.83,2.83,0,0,1,.85-1.24,4.53,4.53,0,0,1,1.66-.84,9.49,9.49,0,0,1,2.65-.31,9,9,0,0,1,4.52.93,3.22,3.22,0,0,1,1.59,3,4.57,4.57,0,0,1-.19,1.32,2.88,2.88,0,0,1-.55,1,2.85,2.85,0,0,1-.91.73,3.3,3.3,0,0,1-1.28.34Zm-4.81-4.39a3.21,3.21,0,0,0-1,.15,2.73,2.73,0,0,0-.82.45,2.16,2.16,0,0,0-.57.73,2.41,2.41,0,0,0-.2,1,2.15,2.15,0,0,0,.22,1,1.84,1.84,0,0,0,.6.69,2.43,2.43,0,0,0,.85.38,4.17,4.17,0,0,0,1,.12,2.51,2.51,0,0,0,.9-.16,2.69,2.69,0,0,0,.76-.47,2.19,2.19,0,0,0,.54-.7,2,2,0,0,0,.2-.9,2.32,2.32,0,0,0-.2-1,2.38,2.38,0,0,0-.55-.74,2.49,2.49,0,0,0-.79-.46A2.93,2.93,0,0,0,964.29,454.2Z"/><path class="cls-1" d="M969.1,449.71a1.69,1.69,0,0,0,1.28-.67,2.24,2.24,0,0,0,.45-1.41,2,2,0,0,0-1.09-1.87,7.11,7.11,0,0,0-3.29-.69l0,0a3,3,0,0,1,1.56,2.62,4.11,4.11,0,0,1-.27,1.54,3.22,3.22,0,0,1-.78,1.12,3.13,3.13,0,0,1-1.19.69,5,5,0,0,1-1.54.23,4,4,0,0,1-1.49-.27,3.27,3.27,0,0,1-1.17-.77,3.38,3.38,0,0,1-.76-1.18,4.08,4.08,0,0,1-.27-1.5,4.36,4.36,0,0,1,.25-1.49,2.83,2.83,0,0,1,.85-1.24,4.53,4.53,0,0,1,1.66-.84,9.49,9.49,0,0,1,2.65-.31,9,9,0,0,1,4.52.93,3.22,3.22,0,0,1,1.59,3,4.57,4.57,0,0,1-.19,1.32,3,3,0,0,1-.55,1,2.85,2.85,0,0,1-.91.73,3.49,3.49,0,0,1-1.28.34Zm-4.81-4.39a3.21,3.21,0,0,0-1,.15,2.52,2.52,0,0,0-.82.45,2.16,2.16,0,0,0-.57.73,2.38,2.38,0,0,0-.2,1,2.15,2.15,0,0,0,.22,1,1.92,1.92,0,0,0,.6.69,2.43,2.43,0,0,0,.85.38,4.17,4.17,0,0,0,1,.12,2.51,2.51,0,0,0,.9-.16,2.69,2.69,0,0,0,.76-.47,2.19,2.19,0,0,0,.54-.7,2,2,0,0,0,.2-.9,2.32,2.32,0,0,0-.2-1,2.38,2.38,0,0,0-.55-.74,2.49,2.49,0,0,0-.79-.46A2.69,2.69,0,0,0,964.29,445.32Z"/><path class="cls-1" d="M975,435.27a19,19,0,0,1-3.59,1.83,10.75,10.75,0,0,1-3.89.68,11.89,11.89,0,0,1-3.8-.64,12.26,12.26,0,0,1-3.56-1.87v-1a12.65,12.65,0,0,0,3.61,1.62,14.49,14.49,0,0,0,3.75.48,14.94,14.94,0,0,0,3.83-.48,14.2,14.2,0,0,0,3.65-1.62Z"/><path class="cls-1" d="M971.83,428.71v1.36h-8.11V433h-1.09a8.09,8.09,0,0,0-.08-1.12,3.06,3.06,0,0,0-.33-1,2.25,2.25,0,0,0-.66-.75,2.44,2.44,0,0,0-1-.41v-1Z"/><path class="cls-1" d="M971.83,415.39v1.36h-8.11v2.93h-1.09a8.05,8.05,0,0,0-.08-1.11,3.12,3.12,0,0,0-.33-1,2.22,2.22,0,0,0-.66-.74,2.44,2.44,0,0,0-1-.41v-1Z"/><path class="cls-1" d="M960.16,407.75v-1.16l12,4.73v1.16Z"/><path class="cls-1" d="M971.83,401.19v1.36h-8.11v2.94h-1.09a8.09,8.09,0,0,0-.08-1.12,3.21,3.21,0,0,0-.33-1,2.22,2.22,0,0,0-.66-.74,2.44,2.44,0,0,0-1-.41v-1Z"/><path class="cls-1" d="M963.4,391.38a2,2,0,0,0-1.23.59,1.84,1.84,0,0,0-.46,1.31,2.2,2.2,0,0,0,.42,1.4,2.72,2.72,0,0,0,1.07.82,5.27,5.27,0,0,0,1.4.4,10.42,10.42,0,0,0,1.4.13l0,0a2.94,2.94,0,0,1-1.14-1.19,3.73,3.73,0,0,1-.35-1.64,3.59,3.59,0,0,1,.28-1.46,3.17,3.17,0,0,1,.77-1.09,3.57,3.57,0,0,1,1.17-.68,4.28,4.28,0,0,1,1.45-.24,4.67,4.67,0,0,1,1.3.2,3.38,3.38,0,0,1,2.15,1.79,4.07,4.07,0,0,1,.36,1.8,3.32,3.32,0,0,1-1.84,3.21,5.33,5.33,0,0,1-1.76.55,13.24,13.24,0,0,1-1.85.14,12.84,12.84,0,0,1-2.26-.2,6.26,6.26,0,0,1-1.94-.68,3.8,3.8,0,0,1-1.36-1.28,3.66,3.66,0,0,1-.51-2,3.23,3.23,0,0,1,.75-2.24,3.18,3.18,0,0,1,2.14-1Zm2.35,2.05a2.26,2.26,0,0,0,.2,1,2.21,2.21,0,0,0,.54.74,2.25,2.25,0,0,0,.82.45,3.21,3.21,0,0,0,1,.15,2.86,2.86,0,0,0,1-.16,2.16,2.16,0,0,0,.8-.45,2,2,0,0,0,.54-.74,2.4,2.4,0,0,0,.2-1,2.35,2.35,0,0,0-.2-1,2,2,0,0,0-.55-.72,2.6,2.6,0,0,0-.8-.44,3,3,0,0,0-1-.15,3.66,3.66,0,0,0-1,.14,2.23,2.23,0,0,0-.81.42,2,2,0,0,0-.55.72A2.28,2.28,0,0,0,965.75,393.43Z"/><path class="cls-1" d="M960.43,385.14v-1.09h4.12v1.09Zm0,2.23v-1.08h4.12v1.08Z"/><path class="cls-1" d="M975,382.53a13,13,0,0,0-3.61-1.63,14.49,14.49,0,0,0-3.75-.48,14.81,14.81,0,0,0-3.82.49,14.05,14.05,0,0,0-3.65,1.62v-1a20.37,20.37,0,0,1,1.78-1,13,13,0,0,1,1.8-.79,12.14,12.14,0,0,1,1.88-.51,11.72,11.72,0,0,1,5.81.47,12.24,12.24,0,0,1,3.56,1.86Z"/><line class="cls-5" x1="978.52" y1="498.93" x2="978.52" y2="364.03"/><polygon class="cls-3" points="982.23 496.29 978.36 510.74 974.48 496.29 982.23 496.29"/><polygon class="cls-3" points="982.23 366.67 978.36 352.22 974.48 366.67 982.23 366.67"/><path class="cls-1" d="M968,262.56V261h1.2v1.53h2.65v1.28h-2.65v5h-1.31l-7.36-5.16v-1.09Zm0,1.28h-5.54v0l5.54,3.77Z"/><path class="cls-1" d="M968,253.68v-1.53h1.2v1.53h2.65V255h-2.65v5h-1.31l-7.36-5.16v-1.09Zm0,1.28h-5.54v0l5.54,3.77Z"/><path class="cls-1" d="M970.06,250.17v-1.78h1.77v1.78Z"/><path class="cls-1" d="M968,240.36v-1.53h1.2v1.53h2.65v1.28h-2.65v5h-1.31l-7.36-5.15v-1.09Zm0,1.28h-5.54v0l5.54,3.77Z"/><path class="cls-1" d="M961.9,230.66v4.57l3.26.61,0,0a2.25,2.25,0,0,1-.62-.95,3.68,3.68,0,0,1-.2-1.16,4.15,4.15,0,0,1,.24-1.42,3.22,3.22,0,0,1,.73-1.17,3.46,3.46,0,0,1,1.22-.78,4.62,4.62,0,0,1,1.7-.29,3.88,3.88,0,0,1,1.39.25,3.35,3.35,0,0,1,1.21.74,3.74,3.74,0,0,1,.85,1.24A4.38,4.38,0,0,1,972,234a4.43,4.43,0,0,1-.22,1.38,3.41,3.41,0,0,1-.64,1.15,3,3,0,0,1-1,.78,3.32,3.32,0,0,1-1.37.3v-1.36a2.2,2.2,0,0,0,.81-.21,2,2,0,0,0,.65-.5,2.22,2.22,0,0,0,.44-.73,2.77,2.77,0,0,0,.15-.94,2.53,2.53,0,0,0-.17-.91,2.09,2.09,0,0,0-.5-.77,2.54,2.54,0,0,0-.84-.52,3.28,3.28,0,0,0-1.18-.19,2.9,2.9,0,0,0-1,.18,2.45,2.45,0,0,0-.81.52,2.3,2.3,0,0,0-.54.81,2.87,2.87,0,0,0-.19,1,2.39,2.39,0,0,0,.3,1.19,3.23,3.23,0,0,0,.77.92l-.06,1.17-5.88-1.06v-5.59Z"/><path class="cls-1" d="M975,221.59a19,19,0,0,1-3.59,1.83,11,11,0,0,1-3.89.68,11.89,11.89,0,0,1-3.8-.64,12.51,12.51,0,0,1-3.56-1.87v-1a12.69,12.69,0,0,0,3.61,1.63,15.05,15.05,0,0,0,7.58,0,13.55,13.55,0,0,0,3.65-1.62Z"/><path class="cls-1" d="M971.83,215v1.35h-8.11v2.94h-1.09a8.32,8.32,0,0,0-.08-1.12,3.06,3.06,0,0,0-.33-1,2.22,2.22,0,0,0-.66-.74,2.57,2.57,0,0,0-1-.42v-1Z"/><path class="cls-1" d="M965.36,203.91a1.62,1.62,0,0,0,0-.3v-.29a2.76,2.76,0,0,0-.12-.82,2.14,2.14,0,0,0-.35-.69,1.57,1.57,0,0,0-.58-.47,1.66,1.66,0,0,0-.8-.18,1.63,1.63,0,0,0-1.36.58,2.19,2.19,0,0,0-.46,1.43,2,2,0,0,0,.2,1,2,2,0,0,0,.53.67,2.59,2.59,0,0,0,.78.39,3.69,3.69,0,0,0,.95.12v1.36a5.27,5.27,0,0,1-1.49-.26,3.5,3.5,0,0,1-1.15-.66,3,3,0,0,1-.75-1.08,3.86,3.86,0,0,1-.27-1.5,4.92,4.92,0,0,1,.18-1.36,3.44,3.44,0,0,1,.55-1.1,2.55,2.55,0,0,1,1-.72,3.13,3.13,0,0,1,1.35-.27,2.2,2.2,0,0,1,1.35.46,3,3,0,0,1,.91,1.11h0a2.35,2.35,0,0,1,1-1.54,3.08,3.08,0,0,1,1.78-.51,3.37,3.37,0,0,1,1.49.32,3.07,3.07,0,0,1,1.08.83,4,4,0,0,1,.65,1.24,5,5,0,0,1,.23,1.51,4.83,4.83,0,0,1-.25,1.57,3.43,3.43,0,0,1-.72,1.2,3,3,0,0,1-1.16.75,4.06,4.06,0,0,1-1.56.25v-1.36a2.76,2.76,0,0,0,1.79-.63,2.23,2.23,0,0,0,.7-1.78,2.94,2.94,0,0,0-.15-.94,2.47,2.47,0,0,0-.44-.78,2,2,0,0,0-.68-.54,2.11,2.11,0,0,0-.92-.2,2.27,2.27,0,0,0-.93.19,2,2,0,0,0-.69.51,2.06,2.06,0,0,0-.42.77,3.24,3.24,0,0,0-.13.94,5.39,5.39,0,0,0,0,.82Z"/><path class="cls-1" d="M960.16,194.07V192.9l12,4.73v1.17Z"/><path class="cls-1" d="M968,186.5V185h1.2v1.53h2.65v1.28h-2.65v5h-1.31l-7.36-5.16V186.5Zm0,1.28h-5.54v0l5.54,3.77Z"/><path class="cls-1" d="M960.43,180.33v-1.08h4.12v1.08Zm0,2.24v-1.09h4.12v1.09Z"/><path class="cls-1" d="M975,177.67a12.94,12.94,0,0,0-3.61-1.63,14.63,14.63,0,0,0-3.76-.48,14.86,14.86,0,0,0-3.82.48,13.77,13.77,0,0,0-3.65,1.63v-1a20.52,20.52,0,0,1,1.78-1,14.26,14.26,0,0,1,1.8-.79,11.34,11.34,0,0,1,1.88-.5,10.89,10.89,0,0,1,2-.18,11.8,11.8,0,0,1,3.8.64,12.45,12.45,0,0,1,3.57,1.87Z"/><line class="cls-5" x1="978.52" y1="341.62" x2="978.52" y2="101.95"/><polygon class="cls-3" points="982.23 338.98 978.36 353.43 974.48 338.98 982.23 338.98"/><polygon class="cls-3" points="982.23 104.59 978.36 90.14 974.48 104.59 982.23 104.59"/><path class="cls-3" d="M512,727.13v-6l-5.49-8.18h2.27l2.81,4.29c.51.8,1,1.6,1.45,2.39.43-.75,1-1.58,1.58-2.5l2.75-4.18h2.19l-5.67,8.18v6Z"/><path class="cls-3" d="M512,84.23v-6l-5.49-8.17h2.27l2.81,4.28c.51.81,1,1.61,1.45,2.4.43-.75,1-1.58,1.58-2.5l2.75-4.18h2.19l-5.67,8.17v6Z"/><line class="cls-5" x1="202.95" y1="41.36" x2="795.02" y2="41.36"/><polygon class="cls-3" points="205.59 45.07 191.15 41.2 205.59 37.33 205.59 45.07"/><polygon class="cls-3" points="792.38 45.07 806.82 41.2 792.38 37.33 792.38 45.07"/><polyline class="cls-5" points="698.3 644.69 827.01 644.69 854.92 605.89"/><polygon class="cls-3" points="856.52 610.29 861.81 596.31 850.23 605.77 856.52 610.29"/><line class="cls-5" x1="827.01" y1="644.69" x2="852.71" y2="686.43"/><polygon class="cls-3" points="848.03 686.21 858.9 696.48 854.63 682.15 848.03 686.21"/><path class="cls-1" d="M462.69,28.13h-1.36V20h-2.94V18.93a6.86,6.86,0,0,0,1.12-.09,3.06,3.06,0,0,0,1-.33,2.3,2.3,0,0,0,.74-.65,2.48,2.48,0,0,0,.42-1.06h1Z"/><path class="cls-1" d="M466.55,22.57c0-.63,0-1.28.09-2a5.77,5.77,0,0,1,.46-1.86,3.2,3.2,0,0,1,3.22-1.95,3.18,3.18,0,0,1,3.22,1.95,5.77,5.77,0,0,1,.46,1.86c.06.68.09,1.33.09,2q0,.62,0,1.29a9.38,9.38,0,0,1-.16,1.31,6.56,6.56,0,0,1-.37,1.21,3.52,3.52,0,0,1-.65,1,3.12,3.12,0,0,1-1.05.68,4.51,4.51,0,0,1-3,0,3,3,0,0,1-1-.68,3.35,3.35,0,0,1-.66-1,6.56,6.56,0,0,1-.37-1.21,11.16,11.16,0,0,1-.16-1.31Q466.55,23.19,466.55,22.57Zm1.44,0c0,.43,0,.9,0,1.43a6,6,0,0,0,.26,1.49,2.76,2.76,0,0,0,.69,1.17,2.11,2.11,0,0,0,2.68,0,2.89,2.89,0,0,0,.7-1.17,6,6,0,0,0,.25-1.49c0-.53,0-1,0-1.43v-.92c0-.33,0-.67-.08-1a7.9,7.9,0,0,0-.21-1,2.67,2.67,0,0,0-.4-.83,2.19,2.19,0,0,0-.66-.59,2,2,0,0,0-1-.22,1.93,1.93,0,0,0-1,.22,2.12,2.12,0,0,0-.67.59,2.65,2.65,0,0,0-.39.83,6.44,6.44,0,0,0-.21,1,6.74,6.74,0,0,0-.08,1C468,22,468,22.27,468,22.55Z"/><path class="cls-1" d="M481.46,24.28H483v1.19h-1.53v2.66h-1.28V25.47h-5V24.16l5.16-7.36h1.09Zm-1.28,0V18.73h0l-3.76,5.55Z"/><path class="cls-1" d="M485,26.35h1.77v1.78H485Z"/><path class="cls-1" d="M496.21,18.16a11.52,11.52,0,0,0-1.61,2,18.45,18.45,0,0,0-1.33,2.49,18,18,0,0,0-.95,2.73,13.61,13.61,0,0,0-.45,2.74h-1.52a14.6,14.6,0,0,1,.47-2.81,15.8,15.8,0,0,1,1-2.62,17.32,17.32,0,0,1,1.36-2.37,19,19,0,0,1,1.67-2.06h-5.94V17h7.33Z"/><path class="cls-1" d="M498,19.69a2.73,2.73,0,0,1,.27-1.24,2.93,2.93,0,0,1,.74-.9,3.46,3.46,0,0,1,1.06-.56,4,4,0,0,1,1.26-.19,4.4,4.4,0,0,1,1.58.25,2.93,2.93,0,0,1,1.06.65,2.57,2.57,0,0,1,.6.93,3,3,0,0,1,.19,1.06,2.41,2.41,0,0,1-.43,1.4,2.71,2.71,0,0,1-1.14.95,2.69,2.69,0,0,1,1.52,1.05,3.06,3.06,0,0,1,.5,1.78,3.43,3.43,0,0,1-.3,1.46,3.11,3.11,0,0,1-.8,1.08,3.4,3.4,0,0,1-1.19.68,4.71,4.71,0,0,1-1.47.23,4.88,4.88,0,0,1-1.51-.22,3.45,3.45,0,0,1-1.23-.65,3,3,0,0,1-.81-1.07,3.57,3.57,0,0,1-.3-1.51,3,3,0,0,1,.51-1.75A2.91,2.91,0,0,1,499.58,22a2.44,2.44,0,0,1-1.15-.93A2.6,2.6,0,0,1,498,19.69Zm1,5.24a2,2,0,0,0,.68,1.61,2.55,2.55,0,0,0,1.73.58,2.58,2.58,0,0,0,.94-.17,2.21,2.21,0,0,0,.73-.46,2,2,0,0,0,.48-.7,2.25,2.25,0,0,0,.17-.87,2,2,0,0,0-.18-.86,2.13,2.13,0,0,0-.51-.68,2.41,2.41,0,0,0-.74-.45,2.25,2.25,0,0,0-.9-.17,2.91,2.91,0,0,0-.95.15,2.25,2.25,0,0,0-.75.44,1.94,1.94,0,0,0-.51.69A2,2,0,0,0,499,24.93Zm.4-5.19a1.86,1.86,0,0,0,.16.81,1.61,1.61,0,0,0,.43.56,2,2,0,0,0,.64.34,2.88,2.88,0,0,0,.78.11,1.9,1.9,0,0,0,1.34-.48,1.68,1.68,0,0,0,.53-1.34,1.59,1.59,0,0,0-.53-1.3,2.12,2.12,0,0,0-1.37-.44,2.7,2.7,0,0,0-.77.11,1.91,1.91,0,0,0-.63.34,1.87,1.87,0,0,0-.42.54A1.6,1.6,0,0,0,499.44,19.74Z"/><path class="cls-1" d="M513.54,31.29a19.26,19.26,0,0,1-1.82-3.59,10.75,10.75,0,0,1-.68-3.89,11.89,11.89,0,0,1,.64-3.8,12.36,12.36,0,0,1,1.86-3.56h1A13.1,13.1,0,0,0,513,20.06a14.49,14.49,0,0,0-.48,3.75,14.94,14.94,0,0,0,.49,3.83,14.2,14.2,0,0,0,1.62,3.65Z"/><path class="cls-1" d="M521.12,24.28h1.53v1.19h-1.53v2.66h-1.28V25.47h-5V24.16L520,16.8h1.09Zm-1.28,0V18.73h0L516,24.28Z"/><path class="cls-1" d="M533.43,28.13h-1.36V20h-2.94V18.93a6.77,6.77,0,0,0,1.12-.09,3.06,3.06,0,0,0,1-.33,2.34,2.34,0,0,0,.75-.65,2.48,2.48,0,0,0,.41-1.06h1Z"/><path class="cls-1" d="M541.07,16.45h1.16l-4.73,12h-1.16Z"/><path class="cls-1" d="M543,19.69a2.73,2.73,0,0,1,.27-1.24,2.79,2.79,0,0,1,.74-.9,3.46,3.46,0,0,1,1.06-.56,4,4,0,0,1,1.25-.19,4.42,4.42,0,0,1,1.59.25,2.93,2.93,0,0,1,1.06.65,2.57,2.57,0,0,1,.6.93,3.25,3.25,0,0,1,.19,1.06,2.49,2.49,0,0,1-.43,1.4,2.71,2.71,0,0,1-1.14.95,2.72,2.72,0,0,1,1.52,1.05,3.06,3.06,0,0,1,.5,1.78,3.43,3.43,0,0,1-.3,1.46,3.11,3.11,0,0,1-.8,1.08,3.4,3.4,0,0,1-1.19.68,4.71,4.71,0,0,1-1.47.23,5,5,0,0,1-1.52-.22,3.49,3.49,0,0,1-1.22-.65,3,3,0,0,1-.81-1.07,3.57,3.57,0,0,1-.3-1.51,3,3,0,0,1,.51-1.75A2.82,2.82,0,0,1,544.56,22a2.44,2.44,0,0,1-1.15-.93A2.6,2.6,0,0,1,543,19.69Zm1,5.24a2,2,0,0,0,.68,1.61,2.55,2.55,0,0,0,1.73.58,2.62,2.62,0,0,0,.94-.17,2.21,2.21,0,0,0,.73-.46,2,2,0,0,0,.48-.7,2.25,2.25,0,0,0,.17-.87,1.9,1.9,0,0,0-.19-.86,2.1,2.1,0,0,0-.5-.68,2.41,2.41,0,0,0-.74-.45,2.25,2.25,0,0,0-.9-.17,2.91,2.91,0,0,0-.95.15,2.25,2.25,0,0,0-.75.44,2,2,0,0,0-.7,1.58Zm.4-5.19a1.86,1.86,0,0,0,.16.81,1.61,1.61,0,0,0,.43.56,1.87,1.87,0,0,0,.64.34,2.83,2.83,0,0,0,.78.11,1.9,1.9,0,0,0,1.34-.48,1.68,1.68,0,0,0,.53-1.34,1.59,1.59,0,0,0-.53-1.3A2.12,2.12,0,0,0,546.4,18a2.7,2.7,0,0,0-.77.11,1.91,1.91,0,0,0-.63.34,1.87,1.87,0,0,0-.42.54A1.6,1.6,0,0,0,544.42,19.74Z"/><path class="cls-1" d="M552.57,16.72h1.08v4.12h-1.08Zm2.23,0h1.09v4.12H554.8Z"/><path class="cls-1" d="M557.47,31.29a12.94,12.94,0,0,0,1.63-3.61,15.05,15.05,0,0,0,0-7.58,13.41,13.41,0,0,0-1.62-3.65h1c.38.6.73,1.19,1,1.78a15.25,15.25,0,0,1,.79,1.81,13.21,13.21,0,0,1,.5,1.87,10.92,10.92,0,0,1,.18,2,12.17,12.17,0,0,1-.64,3.8,12.78,12.78,0,0,1-1.87,3.56Z"/><path class="cls-1" d="M270.67,266.49l2.69-4.65a3.76,3.76,0,0,1,2-1.8,2.76,2.76,0,0,1,2.35.29,3.47,3.47,0,0,1,1.34,1.32,2.44,2.44,0,0,1,.17,1.84l0,0a2.18,2.18,0,0,1,.68-.54,1.8,1.8,0,0,1,.71-.17,2.12,2.12,0,0,1,.74.12c.25.08.5.17.76.28l.76.38c.27.14.52.25.78.36a5.56,5.56,0,0,0,.76.24,2.16,2.16,0,0,0,.76,0l-.85,1.46a.88.88,0,0,1-.52-.05,4.72,4.72,0,0,1-.63-.28l-.71-.37a4.85,4.85,0,0,0-.78-.34,6.35,6.35,0,0,0-.77-.26,2,2,0,0,0-.72-.07,1.55,1.55,0,0,0-.66.26,2,2,0,0,0-.59.68l-1.85,3.21,4.22,2.44-.76,1.31Zm6.9-1.43a6.23,6.23,0,0,0,.43-.91,2.33,2.33,0,0,0,.15-.88,1.71,1.71,0,0,0-.25-.81,2.39,2.39,0,0,0-2.22-1,1.92,1.92,0,0,0-1.25,1.07l-1.89,3.26,3.44,2Z"/><path class="cls-1" d="M281.4,253.85a2,2,0,0,0-1.36-.1,1.82,1.82,0,0,0-1.05.9,2.14,2.14,0,0,0-.33,1.42,2.68,2.68,0,0,0,.51,1.25,5.55,5.55,0,0,0,1,1.05,13.69,13.69,0,0,0,1.15.81h.05a3,3,0,0,1-.39-1.6,3.55,3.55,0,0,1,.52-1.59,3.6,3.6,0,0,1,1-1.13,3.08,3.08,0,0,1,1.21-.55,3.6,3.6,0,0,1,1.35,0,4.39,4.39,0,0,1,1.38.52,4.54,4.54,0,0,1,1,.82,3.31,3.31,0,0,1,.75,1.16,3.35,3.35,0,0,1,.22,1.47,4.19,4.19,0,0,1-.59,1.73,3.54,3.54,0,0,1-1.47,1.5,3.48,3.48,0,0,1-1.73.36,5.32,5.32,0,0,1-1.8-.4,13.6,13.6,0,0,1-1.67-.81,13.12,13.12,0,0,1-1.86-1.3,6.26,6.26,0,0,1-1.34-1.56,3.92,3.92,0,0,1-.53-1.79,3.67,3.67,0,0,1,.56-2,2.91,2.91,0,0,1,4.1-1.32Zm1,3a2.38,2.38,0,0,0-.33,1,2.33,2.33,0,0,0,.11.91,2.19,2.19,0,0,0,.47.8,3.77,3.77,0,0,0,.79.63,3.5,3.5,0,0,0,.94.36,2.37,2.37,0,0,0,.92,0,2.13,2.13,0,0,0,.83-.37,2.27,2.27,0,0,0,.67-.76,2.38,2.38,0,0,0,.32-.95,1.91,1.91,0,0,0-.12-.89,2.39,2.39,0,0,0-.47-.78,2.87,2.87,0,0,0-.76-.61,3.41,3.41,0,0,0-.93-.39,2.21,2.21,0,0,0-.92,0,2.08,2.08,0,0,0-.83.35A2.36,2.36,0,0,0,282.41,256.8Z"/><path class="cls-1" d="M289,254.07l.89-1.53,1.53.89L290.5,255Z"/><path class="cls-1" d="M288.2,246a1.84,1.84,0,0,0,.17-.25l.14-.25a2.65,2.65,0,0,0,.31-.77,2.26,2.26,0,0,0,0-.77,1.66,1.66,0,0,0-.26-.7,1.84,1.84,0,0,0-.61-.56,1.71,1.71,0,0,0-1.47-.18,2.24,2.24,0,0,0-1.12,1,2.07,2.07,0,0,0-.3.93,1.86,1.86,0,0,0,.13.84,2.37,2.37,0,0,0,.48.73,3.94,3.94,0,0,0,.75.58l-.68,1.18a5.34,5.34,0,0,1-1.15-1,3.37,3.37,0,0,1-.67-1.15,3.11,3.11,0,0,1-.11-1.3,3.66,3.66,0,0,1,.52-1.43,4.45,4.45,0,0,1,.84-1.09,3.25,3.25,0,0,1,1-.68,2.59,2.59,0,0,1,1.18-.15,3.25,3.25,0,0,1,1.31.45,2.14,2.14,0,0,1,.94,1.07,3,3,0,0,1,.23,1.41l0,0a2.37,2.37,0,0,1,1.62-.85,3.13,3.13,0,0,1,1.79.45,3.31,3.31,0,0,1,1.13,1,3.16,3.16,0,0,1,.52,1.26,3.91,3.91,0,0,1-.05,1.4,4.92,4.92,0,0,1-.57,1.42,4.57,4.57,0,0,1-1,1.23,3.3,3.3,0,0,1-1.22.68,3.23,3.23,0,0,1-1.39.08,4.34,4.34,0,0,1-1.48-.57l.68-1.18a2.77,2.77,0,0,0,1.88.35,2.26,2.26,0,0,0,1.49-1.19,2.93,2.93,0,0,0,.34-.89,2.68,2.68,0,0,0,0-.89,2,2,0,0,0-1-1.44,2,2,0,0,0-1.75-.21,2.27,2.27,0,0,0-.75.46,3.43,3.43,0,0,0-.59.75,7,7,0,0,0-.36.73Z"/><path class="cls-1" d="M291.66,233.1l-2.28,4,2.51,2.15h.05a2.14,2.14,0,0,1-.06-1.13,3.38,3.38,0,0,1,.41-1.1,4.13,4.13,0,0,1,.92-1.11,3.16,3.16,0,0,1,1.21-.65,3.62,3.62,0,0,1,1.44-.07,4.81,4.81,0,0,1,1.62.6,4.13,4.13,0,0,1,1.08.92,3.5,3.5,0,0,1,.68,1.24,3.91,3.91,0,0,1,.11,1.5,4.33,4.33,0,0,1-.59,1.66,4.52,4.52,0,0,1-.88,1.09,3.48,3.48,0,0,1-1.12.67,3.08,3.08,0,0,1-1.28.16,3.13,3.13,0,0,1-1.33-.42l.68-1.17a2,2,0,0,0,.8.21,2.08,2.08,0,0,0,.82-.1,2,2,0,0,0,.74-.42,2.7,2.7,0,0,0,.91-1.61,2.2,2.2,0,0,0-.05-.92,2.36,2.36,0,0,0-.47-.86,3.39,3.39,0,0,0-.92-.76,2.89,2.89,0,0,0-1-.35,2.42,2.42,0,0,0-1,0,2.25,2.25,0,0,0-.86.43,2.74,2.74,0,0,0-.69.81,2.43,2.43,0,0,0-.34,1.17,3.28,3.28,0,0,0,.21,1.19l-.64,1-4.56-3.86,2.79-4.84Z"/><path class="cls-1" d="M307.54,231.8a18.8,18.8,0,0,1-4-.21,11,11,0,0,1-3.71-1.36,11.87,11.87,0,0,1-3-2.46,12.59,12.59,0,0,1-2.15-3.39l.52-.9a13.08,13.08,0,0,0,2.31,3.21,14.62,14.62,0,0,0,3,2.3,15,15,0,0,0,3.56,1.49,14,14,0,0,0,4,.42Z"/><path class="cls-1" d="M308.08,224.53l-.68,1.18-7-4.06-1.47,2.54-.94-.54a7.14,7.14,0,0,0,.48-1,3.1,3.1,0,0,0,.21-1,2.22,2.22,0,0,0-.2-1,2.45,2.45,0,0,0-.7-.88l.52-.9Z"/><path class="cls-1" d="M301.8,212.08l.58-1,8,10.07-.58,1Z"/><path class="cls-1" d="M312.36,209.44l.77-1.33,1,.6L313.4,210l2.29,1.33-.64,1.1-2.29-1.32-2.49,4.3-1.13-.66-3.8-8.15.55-.94Zm-.64,1.11-4.8-2.78,0,0,2.92,6Z"/><path class="cls-1" d="M307.78,202.26l.55-.94,3.56,2.06-.54.94Zm1.12-1.94.55-.94,3.56,2.06-.54.94Z"/><path class="cls-1" d="M322.85,205.3a13,13,0,0,0-2.31-3.22A15.08,15.08,0,0,0,314,198.3a13.27,13.27,0,0,0-4-.42l.52-.9a20.28,20.28,0,0,1,2.06,0,14,14,0,0,1,2,.22,11.09,11.09,0,0,1,1.88.5,10.77,10.77,0,0,1,1.83.86,11.62,11.62,0,0,1,3,2.45,12.64,12.64,0,0,1,2.15,3.4Z"/><path class="cls-1" d="M704.65,170.53l3.89-3.7a3.78,3.78,0,0,1,2.4-1.17,2.75,2.75,0,0,1,2.17,1,3.41,3.41,0,0,1,.91,1.64,2.4,2.4,0,0,1-.35,1.82l0,0a2.13,2.13,0,0,1,.8-.33,1.83,1.83,0,0,1,.74.05,2,2,0,0,1,.67.31c.22.15.43.31.65.49l.63.58a8.27,8.27,0,0,0,.64.56,4.81,4.81,0,0,0,.66.45,2.09,2.09,0,0,0,.72.23L718,173.6a.94.94,0,0,1-.48-.2A4.87,4.87,0,0,1,717,173l-.58-.57a5.47,5.47,0,0,0-.65-.54c-.23-.17-.45-.33-.67-.47a1.91,1.91,0,0,0-.67-.26,1.53,1.53,0,0,0-.7,0,2,2,0,0,0-.76.49l-2.69,2.56,3.36,3.53-1.1,1Zm7,.58a5.91,5.91,0,0,0,.68-.75,2.37,2.37,0,0,0,.39-.8,1.75,1.75,0,0,0,0-.85,2.17,2.17,0,0,0-.54-.88,2.09,2.09,0,0,0-1.31-.69,2,2,0,0,0-1.51.67l-2.73,2.6,2.74,2.88Z"/><path class="cls-1" d="M718.51,161.43a1.91,1.91,0,0,0-1.28-.48,1.83,1.83,0,0,0-1.27.56,2.21,2.21,0,0,0-.72,1.27,2.79,2.79,0,0,0,.14,1.34,5,5,0,0,0,.68,1.29,10.74,10.74,0,0,0,.87,1.11H717a2.91,2.91,0,0,1,.08-1.64,3.51,3.51,0,0,1,.94-1.38,3.62,3.62,0,0,1,1.25-.81,3.19,3.19,0,0,1,1.32-.19,3.65,3.65,0,0,1,1.3.38,4.27,4.27,0,0,1,1.18.89,5.09,5.09,0,0,1,.75,1.07,3.74,3.74,0,0,1,.39,1.32,3.46,3.46,0,0,1-.21,1.47,4,4,0,0,1-1.06,1.5,3.56,3.56,0,0,1-1.82,1,3.42,3.42,0,0,1-1.77-.14,5.34,5.34,0,0,1-1.61-.89,14,14,0,0,1-1.38-1.25,13,13,0,0,1-1.41-1.77,6.12,6.12,0,0,1-.84-1.88,3.78,3.78,0,0,1,0-1.86,3.68,3.68,0,0,1,1.1-1.76,3.2,3.2,0,0,1,2.14-1,3.15,3.15,0,0,1,2.17.89Zm.13,3.11a2.31,2.31,0,0,0-.59.84,2.14,2.14,0,0,0-.16.9,2.31,2.31,0,0,0,.23.9,3.55,3.55,0,0,0,.58.83,3.09,3.09,0,0,0,.8.61,2.22,2.22,0,0,0,.88.26,2,2,0,0,0,.9-.12,2.22,2.22,0,0,0,.86-.54,2.11,2.11,0,0,0,.57-.82,1.83,1.83,0,0,0,.14-.89,2.49,2.49,0,0,0-.23-.88,2.79,2.79,0,0,0-.55-.8,3.13,3.13,0,0,0-.79-.63,2.06,2.06,0,0,0-.87-.3,2.19,2.19,0,0,0-1.77.64Z"/><path class="cls-1" d="M725.69,163.77l1.28-1.22,1.22,1.28-1.28,1.22Z"/><path class="cls-1" d="M727.23,155.82l.23-.2.21-.2a2.61,2.61,0,0,0,.51-.65,2.07,2.07,0,0,0,.26-.73,1.56,1.56,0,0,0-.06-.74,1.76,1.76,0,0,0-.42-.71,1.67,1.67,0,0,0-1.36-.58,2.25,2.25,0,0,0-1.36.65,2.12,2.12,0,0,0-.55.81,1.89,1.89,0,0,0-.12.84,2.47,2.47,0,0,0,.26.84,3.36,3.36,0,0,0,.56.77l-1,.94a5.27,5.27,0,0,1-.83-1.26,3.21,3.21,0,0,1-.31-1.29,3,3,0,0,1,.26-1.29,3.88,3.88,0,0,1,.9-1.23,4.86,4.86,0,0,1,1.11-.8,3.09,3.09,0,0,1,1.18-.36,2.66,2.66,0,0,1,1.17.18,3.41,3.41,0,0,1,1.13.8,2.27,2.27,0,0,1,.6,1.3,3.1,3.1,0,0,1-.18,1.42l0,0a2.36,2.36,0,0,1,1.79-.36,3.15,3.15,0,0,1,1.58.94,3.44,3.44,0,0,1,.81,1.3,3.16,3.16,0,0,1,.13,1.36,3.49,3.49,0,0,1-.44,1.32,5.08,5.08,0,0,1-2.25,2.11,3.35,3.35,0,0,1-1.36.3,3,3,0,0,1-1.35-.32,4.23,4.23,0,0,1-1.26-1l1-.93a2.81,2.81,0,0,0,1.7.86,2.26,2.26,0,0,0,1.76-.72,3,3,0,0,0,.58-.76,2.28,2.28,0,0,0,.27-.85,2.16,2.16,0,0,0-.09-.87,2.09,2.09,0,0,0-.48-.8,2.22,2.22,0,0,0-.79-.55,2.06,2.06,0,0,0-.84-.14,2,2,0,0,0-.84.22,3.2,3.2,0,0,0-.78.56,6.15,6.15,0,0,0-.56.59Z"/><path class="cls-1" d="M734.19,144.4l-3.31,3.15,1.8,2.78h.05a2.1,2.1,0,0,1,.26-1.1,3.72,3.72,0,0,1,.7-.94,4.1,4.1,0,0,1,1.2-.81,3.29,3.29,0,0,1,1.34-.28,3.51,3.51,0,0,1,1.41.34,4.73,4.73,0,0,1,1.38,1,4,4,0,0,1,.78,1.18,3.65,3.65,0,0,1,.3,1.39,3.7,3.7,0,0,1-.32,1.46,4.45,4.45,0,0,1-1,1.43,4.58,4.58,0,0,1-1.15.8,3.45,3.45,0,0,1-1.27.32,3.05,3.05,0,0,1-1.27-.2,3.3,3.3,0,0,1-1.16-.78l1-.94a2.11,2.11,0,0,0,.71.44,2,2,0,0,0,.81.13,2.23,2.23,0,0,0,.83-.19,2.84,2.84,0,0,0,1.33-1.29,2,2,0,0,0,.21-.89,2.28,2.28,0,0,0-.2-1,3.24,3.24,0,0,0-.67-1,2.85,2.85,0,0,0-.84-.62,2.28,2.28,0,0,0-.94-.23,2.24,2.24,0,0,0-1,.16,2.66,2.66,0,0,0-.89.59,2.37,2.37,0,0,0-.66,1,3.47,3.47,0,0,0-.14,1.2l-.88.76-3.29-5,4.05-3.86Z"/><path class="cls-1" d="M749.78,147.63a19.1,19.1,0,0,1-3.8-1.34,11,11,0,0,1-3.17-2.35,11.85,11.85,0,0,1-2.16-3.2,12.41,12.41,0,0,1-1.1-3.86l.75-.72a12.71,12.71,0,0,0,1.31,3.74,15,15,0,0,0,5.23,5.48,13.24,13.24,0,0,0,3.69,1.53Z"/><path class="cls-1" d="M752.35,140.81l-1,.94-5.59-5.88-2.13,2-.75-.79a6.47,6.47,0,0,0,.75-.83,2.89,2.89,0,0,0,.49-.91,2.36,2.36,0,0,0,.09-1,2.57,2.57,0,0,0-.43-1.05l.75-.72Z"/><path class="cls-1" d="M749.83,127.08l.84-.81,4.81,11.92-.85.8Z"/><path class="cls-1" d="M760.7,127.53l1.12-1.06.82.87-1.11,1.06,1.83,1.92-.93.88-1.83-1.92L757,132.7l-.9-.95-1.33-8.89.78-.75Zm-.92.88-3.82-4,0,0L757,131Z"/><path class="cls-1" d="M758.33,119.34l.79-.75,2.84,3-.78.75ZM760,117.8l.78-.75,2.84,3-.78.75Z"/><path class="cls-1" d="M771.93,126.51a13,13,0,0,0-1.31-3.74,15,15,0,0,0-5.23-5.48,13.68,13.68,0,0,0-3.69-1.53l.75-.72c.69.17,1.35.36,2,.58a14,14,0,0,1,1.82.76,13.36,13.36,0,0,1,1.66,1,11.7,11.7,0,0,1,1.51,1.34,11.85,11.85,0,0,1,2.16,3.2,12.55,12.55,0,0,1,1.1,3.87Z"/><path class="cls-1" d="M583.7,597.23l4.62-2.72a3.78,3.78,0,0,1,2.6-.59,2.75,2.75,0,0,1,1.91,1.41,3.44,3.44,0,0,1,.51,1.81,2.45,2.45,0,0,1-.76,1.69l0,0a1.94,1.94,0,0,1,.85-.14,1.95,1.95,0,0,1,1.29.67c.18.2.35.4.52.63s.32.46.48.7a7.67,7.67,0,0,0,.5.69,4.42,4.42,0,0,0,.55.59,1.78,1.78,0,0,0,.64.39l-1.46.86a1,1,0,0,1-.43-.31,4.36,4.36,0,0,1-.4-.55c-.14-.21-.29-.43-.44-.68a4.83,4.83,0,0,0-.51-.68l-.54-.6a1.91,1.91,0,0,0-.59-.41,1.5,1.5,0,0,0-.7-.11,1.93,1.93,0,0,0-.85.31l-3.2,1.87,2.47,4.21-1.31.76Zm6.69,2.16a6.43,6.43,0,0,0,.83-.58,2,2,0,0,0,.56-.69,1.68,1.68,0,0,0,.18-.83,2,2,0,0,0-.32-1,2.09,2.09,0,0,0-1.12-1,2,2,0,0,0-1.62.31l-3.25,1.91,2,3.43Z"/><path class="cls-1" d="M599.26,591.52a2,2,0,0,0-1.14-.76,1.85,1.85,0,0,0-1.36.26,2.13,2.13,0,0,0-1,1.08,2.73,2.73,0,0,0-.17,1.33,5.23,5.23,0,0,0,.36,1.41,11.82,11.82,0,0,0,.6,1.28h.05a2.9,2.9,0,0,1,.45-1.58,4,4,0,0,1,2.64-1.63A3,3,0,0,1,601,593a3.7,3.7,0,0,1,1.17.66,4.36,4.36,0,0,1,.94,1.13,4.45,4.45,0,0,1,.49,1.22,3.56,3.56,0,0,1,.08,1.38,3.21,3.21,0,0,1-.54,1.38A4,4,0,0,1,601.8,600a3.32,3.32,0,0,1-3.7,0,5.47,5.47,0,0,1-1.36-1.24,13.54,13.54,0,0,1-1.06-1.53,13.18,13.18,0,0,1-1-2,6.22,6.22,0,0,1-.39-2,3.77,3.77,0,0,1,.41-1.82,3.65,3.65,0,0,1,1.48-1.46,2.93,2.93,0,0,1,4.22.87Zm-.58,3.06a2.34,2.34,0,0,0-.77.68,2.06,2.06,0,0,0-.35.84,2.14,2.14,0,0,0,0,.94,3.27,3.27,0,0,0,1,1.71,2.48,2.48,0,0,0,.8.46,2.23,2.23,0,0,0,.9.09,2.47,2.47,0,0,0,1-.34,2.27,2.27,0,0,0,.74-.66,1.92,1.92,0,0,0,.34-.84,2.53,2.53,0,0,0,0-.91,3.32,3.32,0,0,0-.36-.91,3.73,3.73,0,0,0-.62-.79,2.32,2.32,0,0,0-.78-.49,2.23,2.23,0,0,0-.9-.11A2.43,2.43,0,0,0,598.68,594.58Z"/><path class="cls-1" d="M605.72,595.43l1.53-.89.89,1.53-1.53.89Z"/><path class="cls-1" d="M609,588a1.71,1.71,0,0,0,.27-.14l.25-.14a3,3,0,0,0,.64-.52,2,2,0,0,0,.42-.65,1.67,1.67,0,0,0,.11-.74,1.78,1.78,0,0,0-.25-.78,1.62,1.62,0,0,0-1.19-.88,2.45,2.45,0,0,0-2.2,1,1.91,1.91,0,0,0-.3.79,2.59,2.59,0,0,0,.06.87,3.36,3.36,0,0,0,.37.88l-1.17.69a5.25,5.25,0,0,1-.53-1.42,3.45,3.45,0,0,1,0-1.32,3.1,3.1,0,0,1,.55-1.2,4,4,0,0,1,1.15-1,5.45,5.45,0,0,1,1.27-.53,3.25,3.25,0,0,1,1.23-.08,2.57,2.57,0,0,1,1.1.45,3.32,3.32,0,0,1,.92,1,2.22,2.22,0,0,1,.29,1.4,3,3,0,0,1-.5,1.34v0a2.37,2.37,0,0,1,1.82.06,3.08,3.08,0,0,1,1.34,1.27,3.5,3.5,0,0,1,.48,1.45,3.2,3.2,0,0,1-.17,1.35,3.75,3.75,0,0,1-.74,1.19,5.15,5.15,0,0,1-2.66,1.54,3.47,3.47,0,0,1-1.4,0,3.09,3.09,0,0,1-1.24-.62,4.12,4.12,0,0,1-1-1.22l1.17-.69a2.75,2.75,0,0,0,1.46,1.22,2.21,2.21,0,0,0,1.88-.29,2.94,2.94,0,0,0,.74-.61,2.46,2.46,0,0,0,.46-.77,2.06,2.06,0,0,0,.11-.86,2.11,2.11,0,0,0-.29-.9,2.08,2.08,0,0,0-.64-.7,2,2,0,0,0-.79-.34,2.14,2.14,0,0,0-.87,0,3.33,3.33,0,0,0-.88.36,6.19,6.19,0,0,0-.68.46Z"/><path class="cls-1" d="M618.4,578.51l-3.94,2.31,1.12,3.12h0a2.16,2.16,0,0,1,.51-1,3.36,3.36,0,0,1,.89-.76,4.36,4.36,0,0,1,1.35-.51,3.16,3.16,0,0,1,1.37,0,3.57,3.57,0,0,1,1.29.65,4.82,4.82,0,0,1,1.11,1.33,4.11,4.11,0,0,1,.5,1.33,3.51,3.51,0,0,1-.67,2.77,4.39,4.39,0,0,1-1.34,1.15,4.09,4.09,0,0,1-1.3.51,3.17,3.17,0,0,1-1.3,0,3.12,3.12,0,0,1-1.2-.48,3.39,3.39,0,0,1-1-1l1.17-.69a2,2,0,0,0,.6.59,2.08,2.08,0,0,0,.75.32,2.48,2.48,0,0,0,.86,0,2.79,2.79,0,0,0,.88-.35,2.59,2.59,0,0,0,.71-.61,2,2,0,0,0,.4-.82,2.46,2.46,0,0,0,0-1,3.35,3.35,0,0,0-.43-1.11,3,3,0,0,0-.68-.8,2.6,2.6,0,0,0-.86-.44,2.43,2.43,0,0,0-1-.05,2.81,2.81,0,0,0-1,.36,2.32,2.32,0,0,0-.87.86,3.32,3.32,0,0,0-.41,1.13l-1,.54L613,580.3l4.82-2.82Z"/><path class="cls-1" d="M632.84,585.2a19.68,19.68,0,0,1-3.39-2.17,10.73,10.73,0,0,1-2.55-3,11.92,11.92,0,0,1-1.38-3.6,12.6,12.6,0,0,1-.19-4l.9-.53a13.07,13.07,0,0,0,.42,3.94,15.19,15.19,0,0,0,3.84,6.53,13.86,13.86,0,0,0,3.25,2.33Z"/><path class="cls-1" d="M636.91,579.15l-1.18.68-4.1-7-2.54,1.48-.55-.93a6.89,6.89,0,0,0,.92-.65,2.88,2.88,0,0,0,.68-.77,2.09,2.09,0,0,0,.31-1,2.44,2.44,0,0,0-.17-1.12l.89-.52Z"/><path class="cls-1" d="M637.57,565.2l1-.59,2,12.7-1,.59Z"/><path class="cls-1" d="M648.06,568.12l1.33-.78.6,1-1.32.78,1.34,2.29-1.1.64-1.34-2.28-4.29,2.51-.66-1.13.72-9,.94-.55Zm-1.1.64-2.8-4.78,0,0-.45,6.69Z"/><path class="cls-1" d="M647.62,559.6l.94-.55,2.08,3.55-.94.55Zm1.93-1.13.93-.55,2.09,3.55-.94.55Z"/><path class="cls-1" d="M659.21,569.66a12.43,12.43,0,0,0-.42-3.93,15,15,0,0,0-3.84-6.54,13.7,13.7,0,0,0-3.25-2.32l.9-.53c.63.32,1.23.66,1.8,1a14.07,14.07,0,0,1,1.59,1.16,11.82,11.82,0,0,1,1.38,1.36,10.84,10.84,0,0,1,1.18,1.65,12.06,12.06,0,0,1,1.37,3.6,12.6,12.6,0,0,1,.19,4Z"/><path class="cls-1" d="M720,206.61l4.55,2.84a3.73,3.73,0,0,1,1.73,2,2.73,2.73,0,0,1-.37,2.34,3.45,3.45,0,0,1-1.36,1.3,2.48,2.48,0,0,1-1.85.11v0a2.11,2.11,0,0,1,.51.7,1.86,1.86,0,0,1,.15.72,2.36,2.36,0,0,1-.14.73,8,8,0,0,1-.32.75c-.13.25-.26.5-.4.75s-.27.51-.38.76a5.76,5.76,0,0,0-.27.76,1.92,1.92,0,0,0,0,.75l-1.44-.89a1,1,0,0,1,.07-.52,6.88,6.88,0,0,1,.3-.62l.4-.7a6.82,6.82,0,0,0,.37-.77c.11-.25.2-.51.28-.75a1.83,1.83,0,0,0,.09-.72,1.58,1.58,0,0,0-.23-.67,2,2,0,0,0-.67-.61l-3.14-2-2.58,4.13-1.29-.8Zm1.19,6.94a6.38,6.38,0,0,0,.9.46,2,2,0,0,0,.87.18,1.71,1.71,0,0,0,.82-.22,2.17,2.17,0,0,0,.72-.75,2,2,0,0,0,.33-1.44,1.92,1.92,0,0,0-1-1.29l-3.2-2-2.1,3.37Z"/><path class="cls-1" d="M728.57,217.76a1.84,1.84,0,0,0,.25.17l.24.16a3,3,0,0,0,.76.33,2.28,2.28,0,0,0,.77.07,1.81,1.81,0,0,0,.71-.24,1.7,1.7,0,0,0,.57-.59,1.61,1.61,0,0,0,.23-1.46,2.19,2.19,0,0,0-1-1.15,2.12,2.12,0,0,0-.92-.34,2,2,0,0,0-.85.1,2.33,2.33,0,0,0-.74.46,3.33,3.33,0,0,0-.61.73l-1.15-.72a5,5,0,0,1,1-1.12,3.16,3.16,0,0,1,1.17-.62,3,3,0,0,1,1.31-.07,3.75,3.75,0,0,1,1.41.56,4.64,4.64,0,0,1,1.06.88,3,3,0,0,1,.64,1.05,2.58,2.58,0,0,1,.12,1.18,3.25,3.25,0,0,1-.5,1.29,2.14,2.14,0,0,1-1.1.91,3,3,0,0,1-1.42.17v0a2.35,2.35,0,0,1,.79,1.64,3.07,3.07,0,0,1-.51,1.77,3.43,3.43,0,0,1-1.06,1.11,3.21,3.21,0,0,1-1.28.47,4,4,0,0,1-1.4-.1,5.37,5.37,0,0,1-1.4-.61,4.86,4.86,0,0,1-1.19-1,3.42,3.42,0,0,1-.64-1.24,3.25,3.25,0,0,1,0-1.39,4.07,4.07,0,0,1,.62-1.46l1.15.72a2.76,2.76,0,0,0-.41,1.86,2.23,2.23,0,0,0,1.14,1.53,2.71,2.71,0,0,0,.88.37,2.44,2.44,0,0,0,.89.05,2,2,0,0,0,1.47-1,2.22,2.22,0,0,0,.34-.9,2,2,0,0,0-.51-1.61,3.06,3.06,0,0,0-.72-.61,5.17,5.17,0,0,0-.72-.39Z"/><path class="cls-1" d="M731.8,225.29l1.5.94-.94,1.5-1.5-.93Z"/><path class="cls-1" d="M738.33,231.45l-1.15-.72,4.29-6.88L739,222.29l.57-.92a7.33,7.33,0,0,0,1,.52,3,3,0,0,0,1,.24,2.2,2.2,0,0,0,1-.16,2.44,2.44,0,0,0,.91-.68l.88.55Z"/><path class="cls-1" d="M746.39,226.52a2.81,2.81,0,0,1,.88-.9,2.77,2.77,0,0,1,1.11-.38,3.44,3.44,0,0,1,1.19.09,4,4,0,0,1,1.17.5,4.57,4.57,0,0,1,1.21,1,2.88,2.88,0,0,1,.55,1.11,2.45,2.45,0,0,1,0,1.11,3,3,0,0,1-.4,1,2.5,2.5,0,0,1-1.1,1,2.74,2.74,0,0,1-1.47.2,2.8,2.8,0,0,1,.74,1.7,3.15,3.15,0,0,1-.53,1.77,3.42,3.42,0,0,1-1,1.08,3.19,3.19,0,0,1-1.25.5,3.54,3.54,0,0,1-1.37-.06,4.67,4.67,0,0,1-1.37-.58,5.19,5.19,0,0,1-1.17-1,3.55,3.55,0,0,1-.7-1.19,3.06,3.06,0,0,1-.12-1.35,3.68,3.68,0,0,1,.55-1.44,3,3,0,0,1,1.36-1.21,2.94,2.94,0,0,1,1.82-.14A2.35,2.35,0,0,1,746,228,2.48,2.48,0,0,1,746.39,226.52Zm-1.89,5a2,2,0,0,0-.28,1.72,2.56,2.56,0,0,0,1.17,1.41,2.64,2.64,0,0,0,.88.36,2.31,2.31,0,0,0,.87,0,2.19,2.19,0,0,0,.77-.33,2.28,2.28,0,0,0,.61-.66,2,2,0,0,0,.29-.82,2,2,0,0,0-.06-.85,2.59,2.59,0,0,0-.39-.78,2.53,2.53,0,0,0-.68-.62,2.9,2.9,0,0,0-.88-.37,2.37,2.37,0,0,0-.88,0,1.92,1.92,0,0,0-.79.31A2,2,0,0,0,744.5,231.52Zm3.08-4.19a1.87,1.87,0,0,0-.29.77,1.49,1.49,0,0,0,.07.7,1.74,1.74,0,0,0,.36.63,2.8,2.8,0,0,0,.61.51,2,2,0,0,0,1.39.3,1.74,1.74,0,0,0,1.16-.86,1.59,1.59,0,0,0,.23-1.39,2.08,2.08,0,0,0-.92-1.09,2.84,2.84,0,0,0-.72-.32,1.65,1.65,0,0,0-1.89.75Z"/><path class="cls-1" d="M753.45,244.57a19.21,19.21,0,0,1,.34-4,11,11,0,0,1,1.49-3.66,11.9,11.9,0,0,1,2.55-2.88,12.58,12.58,0,0,1,3.47-2l.88.55a13,13,0,0,0-3.29,2.2,14.3,14.3,0,0,0-2.39,2.94,14.73,14.73,0,0,0-1.62,3.5,13.66,13.66,0,0,0-.55,4Z"/><path class="cls-1" d="M760.69,245.37l-1.15-.72,4.29-6.89-2.49-1.55.57-.92a7.25,7.25,0,0,0,1,.51,2.88,2.88,0,0,0,1,.25,2.19,2.19,0,0,0,1-.17,2.4,2.4,0,0,0,.91-.67l.88.55Z"/><path class="cls-1" d="M773.36,239.49l1,.62L764,247.74l-1-.62Z"/><path class="cls-1" d="M773.27,243.26a2.65,2.65,0,0,1,.88-.91,2.78,2.78,0,0,1,1.1-.38,3.52,3.52,0,0,1,1.2.09,4,4,0,0,1,1.17.5,4.74,4.74,0,0,1,1.21,1.05,3,3,0,0,1,.55,1.12,2.55,2.55,0,0,1,0,1.1,3.23,3.23,0,0,1-.4,1,2.41,2.41,0,0,1-1.11,1,2.79,2.79,0,0,1-1.46.21,2.74,2.74,0,0,1,.73,1.69,3.06,3.06,0,0,1-.52,1.77,3.54,3.54,0,0,1-1,1.08,3.24,3.24,0,0,1-1.26.5A3.49,3.49,0,0,1,773,253a4.41,4.41,0,0,1-1.37-.58,5.19,5.19,0,0,1-1.17-1,3.39,3.39,0,0,1-.7-1.19,3.06,3.06,0,0,1-.12-1.35,3.53,3.53,0,0,1,.55-1.44,3,3,0,0,1,1.36-1.21,2.94,2.94,0,0,1,1.82-.14,2.42,2.42,0,0,1-.49-1.4A2.54,2.54,0,0,1,773.27,243.26Zm-1.9,5a2,2,0,0,0-.27,1.72,2.58,2.58,0,0,0,1.16,1.41,2.73,2.73,0,0,0,.88.36,2.31,2.31,0,0,0,.87,0,2,2,0,0,0,1.38-1,1.86,1.86,0,0,0,.3-.82,2,2,0,0,0-.07-.85,2.44,2.44,0,0,0-.39-.77,2.21,2.21,0,0,0-.67-.62,2.48,2.48,0,0,0-.88-.37,2.18,2.18,0,0,0-.88,0,2,2,0,0,0-.8.31A2.22,2.22,0,0,0,771.37,248.25Zm3.09-4.19a1.93,1.93,0,0,0-.29.77,1.49,1.49,0,0,0,.07.7,1.66,1.66,0,0,0,.36.63,3,3,0,0,0,.6.51,2,2,0,0,0,1.4.3,1.69,1.69,0,0,0,1.15-.86,1.57,1.57,0,0,0,.24-1.39,2.1,2.1,0,0,0-.93-1.09,2.64,2.64,0,0,0-.71-.32,1.72,1.72,0,0,0-.71,0,1.61,1.61,0,0,0-.65.24A1.56,1.56,0,0,0,774.46,244.06Z"/><path class="cls-1" d="M783,245.79l.92.57-2.18,3.5-.92-.57Zm1.9,1.18.92.58L783.62,251l-.92-.57Z"/><path class="cls-1" d="M779.43,260.75a13,13,0,0,0,3.29-2.2,15.13,15.13,0,0,0,4-6.44,13.66,13.66,0,0,0,.55-4l.88.55c0,.7,0,1.39-.06,2.06a14.09,14.09,0,0,1-.28,1.95,12.45,12.45,0,0,1-.57,1.86,11.7,11.7,0,0,1-.91,1.8,12.16,12.16,0,0,1-2.56,2.88,12.58,12.58,0,0,1-3.47,2Z"/><path class="cls-1" d="M699.48,623.57h5.36a3.71,3.71,0,0,1,2.54.81,2.72,2.72,0,0,1,.93,2.18,3.5,3.5,0,0,1-.47,1.82,2.42,2.42,0,0,1-1.51,1.07v0a2,2,0,0,1,.81.32,2.09,2.09,0,0,1,.5.53,2,2,0,0,1,.27.7c.05.25.1.52.13.8s0,.56.06.85a7.66,7.66,0,0,0,.08.85,4,4,0,0,0,.17.78,1.92,1.92,0,0,0,.36.66H707a.9.9,0,0,1-.22-.48,4.31,4.31,0,0,1-.07-.67q0-.37,0-.81a6,6,0,0,0-.1-.85,6.49,6.49,0,0,0-.16-.79,1.69,1.69,0,0,0-.3-.65,1.44,1.44,0,0,0-.55-.45,2.08,2.08,0,0,0-.89-.17H701V635h-1.52Zm4.68,5.25a5.4,5.4,0,0,0,1-.08,2.06,2.06,0,0,0,.84-.31,1.73,1.73,0,0,0,.58-.62,2.13,2.13,0,0,0,.21-1,2.05,2.05,0,0,0-.48-1.4,1.94,1.94,0,0,0-1.55-.55H701v4Z"/><path class="cls-1" d="M714.86,635H713.5v-8.11h-2.94v-1.09a8.09,8.09,0,0,0,1.12-.08,3.06,3.06,0,0,0,1-.33,2.25,2.25,0,0,0,.75-.66,2.39,2.39,0,0,0,.41-1.05h1Z"/><path class="cls-1" d="M719.38,633.2h1.77V635h-1.77Z"/><path class="cls-1" d="M730,625h-4.57l-.6,3.26,0,0a2.19,2.19,0,0,1,.95-.62,3.63,3.63,0,0,1,1.16-.2,4.19,4.19,0,0,1,1.42.24,3.18,3.18,0,0,1,1.16.73,3.53,3.53,0,0,1,.79,1.21,4.72,4.72,0,0,1,.28,1.71,4.11,4.11,0,0,1-.24,1.39,3.52,3.52,0,0,1-.75,1.21,3.8,3.8,0,0,1-1.23.85,4.68,4.68,0,0,1-3.12.1,3.36,3.36,0,0,1-1.14-.64,3,3,0,0,1-.78-1,3.32,3.32,0,0,1-.31-1.37h1.36a2,2,0,0,0,.22.81,2,2,0,0,0,.49.65,2.11,2.11,0,0,0,.74.44,2.75,2.75,0,0,0,.93.15,2.59,2.59,0,0,0,.92-.17,2.18,2.18,0,0,0,.77-.5,2.72,2.72,0,0,0,.52-.84,3.52,3.52,0,0,0,.19-1.18,2.7,2.7,0,0,0-.19-1,2.3,2.3,0,0,0-.52-.81,2.36,2.36,0,0,0-.8-.54,2.93,2.93,0,0,0-1-.19,2.33,2.33,0,0,0-1.18.3,3.41,3.41,0,0,0-.93.77l-1.16-.06,1-5.88H730Z"/><path class="cls-1" d="M733.52,632.24a1.69,1.69,0,0,0,.67,1.28,2.24,2.24,0,0,0,1.41.45,2,2,0,0,0,1.87-1.09,7.11,7.11,0,0,0,.69-3.29l0,0a3,3,0,0,1-2.62,1.56,3.92,3.92,0,0,1-1.54-.28,3.07,3.07,0,0,1-1.12-.77,3.13,3.13,0,0,1-.69-1.19,5,5,0,0,1-.23-1.54,4.08,4.08,0,0,1,.27-1.5,3.32,3.32,0,0,1,.77-1.16,3.38,3.38,0,0,1,1.18-.76,4.08,4.08,0,0,1,1.5-.27,4.36,4.36,0,0,1,1.49.25,2.83,2.83,0,0,1,1.24.85,4.53,4.53,0,0,1,.84,1.66,9.49,9.49,0,0,1,.31,2.65,9,9,0,0,1-.93,4.52,3.22,3.22,0,0,1-3,1.59,4.57,4.57,0,0,1-1.32-.19,3,3,0,0,1-1-.55,2.85,2.85,0,0,1-.73-.91,3.3,3.3,0,0,1-.34-1.28Zm4.39-4.81a3.21,3.21,0,0,0-.15-1,2.52,2.52,0,0,0-.45-.82,2.16,2.16,0,0,0-.73-.57,2.41,2.41,0,0,0-1-.2,2.15,2.15,0,0,0-1,.22,1.92,1.92,0,0,0-.69.6,2.43,2.43,0,0,0-.38.85,4.17,4.17,0,0,0-.12,1,2.51,2.51,0,0,0,.16.9,2.69,2.69,0,0,0,.47.76,2.19,2.19,0,0,0,.7.54,2,2,0,0,0,.9.2,2.32,2.32,0,0,0,1-.2,2.29,2.29,0,0,0,1.2-1.34A3,3,0,0,0,737.91,627.43Z"/><path class="cls-1" d="M748,638.14a19,19,0,0,1-1.83-3.59,10.75,10.75,0,0,1-.68-3.89,11.84,11.84,0,0,1,.64-3.8A12.26,12.26,0,0,1,748,623.3h1a13,13,0,0,0-1.63,3.61,14.49,14.49,0,0,0-.47,3.75,14.94,14.94,0,0,0,.48,3.83,14.2,14.2,0,0,0,1.62,3.65Z"/><path class="cls-1" d="M754.52,635h-1.36v-8.11h-2.94v-1.09a8.09,8.09,0,0,0,1.12-.08,3.06,3.06,0,0,0,1-.33,2.25,2.25,0,0,0,.75-.66,2.39,2.39,0,0,0,.41-1.05h1Z"/><path class="cls-1" d="M762.16,623.3h1.16l-4.73,12h-1.16Z"/><path class="cls-1" d="M768.72,635h-1.36v-8.11h-2.94v-1.09a8.09,8.09,0,0,0,1.12-.08,3.06,3.06,0,0,0,1-.33,2.25,2.25,0,0,0,.75-.66,2.39,2.39,0,0,0,.41-1.05h1Z"/><path class="cls-1" d="M778.53,626.54a2,2,0,0,0-.59-1.23,1.84,1.84,0,0,0-1.31-.46,2.2,2.2,0,0,0-1.4.42,2.72,2.72,0,0,0-.82,1.07,4.93,4.93,0,0,0-.4,1.4,10.42,10.42,0,0,0-.13,1.4l0,0A2.94,2.94,0,0,1,775.1,628a3.7,3.7,0,0,1,1.64-.35,3.59,3.59,0,0,1,1.46.28,3.17,3.17,0,0,1,1.09.77,3.38,3.38,0,0,1,.67,1.17,4.28,4.28,0,0,1,.24,1.45,4.65,4.65,0,0,1-.19,1.3,3.6,3.6,0,0,1-.63,1.23,3.36,3.36,0,0,1-1.16.92,4.07,4.07,0,0,1-1.8.36,3.32,3.32,0,0,1-3.21-1.84,5.33,5.33,0,0,1-.55-1.76,13.24,13.24,0,0,1-.14-1.85,12.84,12.84,0,0,1,.2-2.26,6,6,0,0,1,.68-1.94,3.72,3.72,0,0,1,1.28-1.36,3.66,3.66,0,0,1,2-.51,3.23,3.23,0,0,1,2.24.75,3.18,3.18,0,0,1,1,2.14Zm-2,2.35a2.38,2.38,0,0,0-1,.2,2.12,2.12,0,0,0-.74.54,2.25,2.25,0,0,0-.45.82,2.94,2.94,0,0,0-.16,1,3.11,3.11,0,0,0,.16,1,2.33,2.33,0,0,0,.46.8,2.21,2.21,0,0,0,.73.54,2.48,2.48,0,0,0,1,.2,2.38,2.38,0,0,0,1-.2,2.3,2.3,0,0,0,.72-.55,2.82,2.82,0,0,0,.44-.8,3,3,0,0,0,.15-1,3.66,3.66,0,0,0-.14-1,2.23,2.23,0,0,0-.42-.81,2,2,0,0,0-.72-.55A2.28,2.28,0,0,0,776.48,628.89Z"/><path class="cls-1" d="M782.54,623.57h1.08v4.12h-1.08Zm2.23,0h1.09v4.12h-1.09Z"/><path class="cls-1" d="M787.38,638.14a13.23,13.23,0,0,0,1.63-3.61,14.63,14.63,0,0,0,.48-3.76A14.86,14.86,0,0,0,789,627a14.05,14.05,0,0,0-1.62-3.65h1c.38.59.72,1.19,1,1.78a13,13,0,0,1,.79,1.8,12.45,12.45,0,0,1,.51,1.88,11.72,11.72,0,0,1-.47,5.81,12.42,12.42,0,0,1-1.86,3.57Z"/></g><g id="Watermark"><rect class="cls-4" x="438.45" y="602.24" width="123.09" height="46.3"/><rect class="cls-8" x="444.86" y="610.07" width="62.89" height="30.62"/><rect class="cls-8" x="507.75" y="610.07" width="47.39" height="30.62"/><path class="cls-9" d="M466.48,616.17l-2.79,18.92H461l-1.55-11-1.53,11h-2.74l-2.8-18.92h2.51l1.79,14.18,1.79-14.18h2l1.79,14.18L464,616.17Z"/><path class="cls-9" d="M467.93,635.09V616.17h2.53v18.92Z"/><path class="cls-9" d="M472.83,616.17h5q2.9,0,2.9,3.25v4.66c0,1.65-.51,2.7-1.51,3.13l1.77,7.88h-2.4l-1.66-7.64h-1.53v7.64h-2.53Zm2.53,9.12H477c.76,0,1.14-.46,1.14-1.37v-4.08c0-.92-.38-1.37-1.14-1.37h-1.66Z"/><path class="cls-9" d="M486.82,618.47v16.62h-2.53V618.47h-2.42v-2.3h7.38v2.3Z"/><path class="cls-9" d="M496.34,635.09V626.5h-3.11v8.59H490.7V616.17h2.53v8h3.11v-8h2.53v18.92Z"/><path class="cls-9" d="M516.31,616.17h5q2.9,0,2.89,3.25v4.66c0,1.65-.5,2.7-1.5,3.13l1.77,7.88H522l-1.66-7.64h-1.53v7.64h-2.53Zm2.53,9.12h1.66c.76,0,1.13-.46,1.13-1.37v-4.08c0-.92-.37-1.37-1.13-1.37h-1.66Z"/><path class="cls-9" d="M528.67,635.09h-2.53V619.42q0-3.25,3-3.25h1.9q3,0,3,3.25v15.67h-2.53v-6.93h-2.9Zm2.9-9.22v-6.3a1,1,0,0,0-1.11-1.1h-.68a1,1,0,0,0-1.11,1.1v6.3Z"/><path class="cls-9" d="M536.34,635.09V616.17h2.53v18.92Z"/><path class="cls-9" d="M547.24,635.09h-6V616.17h2.53V632.8h3.47Z"/></g></svg>