<svg xmlns="http://www.w3.org/2000/svg" xmlns:xlink="http://www.w3.org/1999/xlink" viewBox="0 0 1000 800"><defs><style>.cls-1,.cls-10,.cls-11,.cls-4,.cls-6,.cls-8,.cls-9{fill:none;}.cls-2{fill:#303030;}.cls-12,.cls-3{fill:#f0f0f0;}.cls-10,.cls-11,.cls-4,.cls-6,.cls-8,.cls-9{stroke:#221e1f;}.cls-10,.cls-4,.cls-6,.cls-8{stroke-width:1.1px;}.cls-5{clip-path:url(#clip-path);}.cls-6{stroke-dasharray:18.42 5.5;}.cls-7{fill:#221e1f;}.cls-8{stroke-dasharray:18.71 5.79;}.cls-9{stroke-width:0.97px;}.cls-10,.cls-12{stroke-miterlimit:10;}.cls-11{stroke-width:1.07px;}.cls-12{stroke:#ccc;}.cls-13{fill:#ccc;}</style><clipPath id="clip-path"><rect class="cls-1" x="196.92" y="6.81" width="755.63" height="790.48"/></clipPath></defs><g id="Flat"><path class="cls-2" d="M231.3,383l4.37-5.89-3.85-5.41h1.78l2.05,2.9a14.62,14.62,0,0,1,.91,1.39,14.34,14.34,0,0,1,.89-1.29l2.28-3h1.62l-4,5.33,4.28,6h-1.85l-2.84-4c-.16-.23-.33-.48-.5-.76-.25.41-.43.7-.54.85L233.1,383Z"/><path class="cls-2" d="M914.87,383l4.37-5.89-3.86-5.41h1.78l2.05,2.9a14.62,14.62,0,0,1,.91,1.39,14.55,14.55,0,0,1,.9-1.29l2.27-3h1.63L921,377l4.28,6h-1.85l-2.85-4c-.16-.23-.32-.48-.49-.76-.25.41-.43.7-.54.85L916.66,383Z"/><path class="cls-3" d="M534.34,731.6H337.08s-24-4.79-25.43-29.42l-.58-520.38c.74-6.44,8.58-27.11,32.25-26,20.52,1,348.73,11.22,437,17A21.33,21.33,0,0,1,798.5,185c2.07,15.41,7.36,43,8.74,97.29,2.08,81.86-.46,77.75-.46,77.75s1.15,20-17.69,20c-23.7,0-334,10.81-334,10.81.49.15-19.32-2.76-19.78,13.57,0,.51.14.37.23,222.18,0,0-2.07,15.41,17.71,15.19l82.2,12.54s24.06,7.76,24.06,26.79V711s3,20.92-25.19,20.56"/><path class="cls-4" d="M209.62,156.88l737.19-.08M534.34,731.6H337.08s-24-4.79-25.43-29.42l-.58-520.38c.74-6.44,8.58-27.11,32.25-26,20.52,1,348.73,11.22,437,17A21.33,21.33,0,0,1,798.5,185c2.07,15.41,7.36,43,8.74,97.29,2.08,81.86-.46,77.75-.46,77.75s1.15,20-17.69,20c-23.7,0-334,10.81-334,10.81.49.15-19.32-2.76-19.78,13.57,0,.51.14.37.23,222.18,0,0-2.07,15.41,17.71,15.19l82.2,12.54s24.06,7.76,24.06,26.79V711S562.52,732,534.34,731.6Z"/><g class="cls-5"><line class="cls-4" x1="559.72" y1="658.75" x2="559.72" y2="797.29"/></g><path class="cls-4" d="M311.31,99.11v82.53M807.68,99.11V268.67"/><g class="cls-5"><line class="cls-4" x1="311.61" y1="703.07" x2="311.61" y2="797.3"/></g><line class="cls-4" x1="949.6" y1="731.56" x2="208.41" y2="731.56"/><line class="cls-6" x1="910.7" y1="376.42" x2="246.51" y2="376.42"/><line class="cls-4" x1="704.6" y1="658.1" x2="543.59" y2="658.1"/><g class="cls-5"><line class="cls-4" x1="952.54" y1="633.64" x2="435.85" y2="633.64"/></g><path class="cls-4" d="M951.52,391.09H450.2M865.49,268.67H808.26m99-95.87H782.4"/><g class="cls-5"><line class="cls-4" x1="780.04" y1="6.87" x2="798.58" y2="187.37"/></g><path class="cls-4" d="M694.29,633.64V658.1m0-67.65V622"/><polygon class="cls-7" points="690.46 619.36 694.29 633.64 698.12 619.36 690.46 619.36"/><line class="cls-8" x1="500.77" y1="766.34" x2="499.82" y2="135.04"/><path class="cls-7" d="M512,760.11v-5.94l-5.42-8.09h2.25l2.77,4.24c.5.8,1,1.59,1.43,2.37.43-.74,1-1.56,1.56-2.47l2.72-4.14h2.16l-5.6,8.09v5.94Z"/><path class="cls-7" d="M512,149.06v-5.94L506.59,135h2.25l2.77,4.24c.5.79,1,1.58,1.43,2.36.43-.74,1-1.56,1.56-2.47l2.72-4.13h2.16l-5.6,8.08v5.94Z"/><path class="cls-2" d="M469.94,413.68l7.22-8.7,3.86,3.2a6.64,6.64,0,0,1,1.57,1.71,2.51,2.51,0,0,1,.28,1.63,3.24,3.24,0,0,1-.73,1.61,2.85,2.85,0,0,1-1.89,1.06,3.94,3.94,0,0,1-2.52-.73,4,4,0,0,1,.33,1,7.94,7.94,0,0,1,0,1.95l-.45,3.62-1.45-1.2.35-2.76c.1-.81.15-1.43.17-1.89a3.47,3.47,0,0,0-.11-1.07,2.27,2.27,0,0,0-.33-.66,4.46,4.46,0,0,0-.61-.58l-1.33-1.11-3.21,3.87Zm5.19-3.9,2.47,2.05a4.81,4.81,0,0,0,1.37.86,1.7,1.7,0,0,0,1.11,0,1.89,1.89,0,0,0,.88-.59,1.67,1.67,0,0,0,.39-1.38,2.75,2.75,0,0,0-1.08-1.58l-2.76-2.28Z"/><path class="cls-2" d="M481.69,423.43l1.73-2.08-3.78-3.13.82-1,8.64-2.35.87.73-4.67,5.63,1.17,1-.81,1-1.18-1-1.72,2.09Zm2.54-3.06,3.25-3.92-6,1.66Z"/><line class="cls-9" x1="449.18" y1="403.92" x2="482.63" y2="431.06"/><polygon class="cls-7" points="448.87 408.89 439.27 395.66 454.2 402.32 448.87 408.89"/><path class="cls-2" d="M467.83,615.93l-5.46-9.9,4.39-2.42a6.42,6.42,0,0,1,2.16-.84,2.47,2.47,0,0,1,1.62.33,3.14,3.14,0,0,1,1.23,1.27,2.82,2.82,0,0,1,.3,2.15,4,4,0,0,1-1.6,2.08,3.41,3.41,0,0,1,1.06.06,8.21,8.21,0,0,1,1.82.71l3.2,1.75-1.65.91-2.44-1.34a17.09,17.09,0,0,0-1.7-.84,3.4,3.4,0,0,0-1-.3,2,2,0,0,0-.74.07,4.8,4.8,0,0,0-.75.35l-1.52.84,2.42,4.39Zm-1.74-6.26,2.82-1.55a4.79,4.79,0,0,0,1.3-1,1.67,1.67,0,0,0,.44-1,1.78,1.78,0,0,0-.23-1,1.63,1.63,0,0,0-1.14-.87,2.7,2.7,0,0,0-1.86.43l-3.13,1.73Z"/><path class="cls-2" d="M481.2,608.56l-1.31-2.37-4.29,2.36-.62-1.11,1-8.9,1-.55,3.53,6.41,1.34-.73.61,1.11-1.33.74,1.3,2.37Zm-1.92-3.49-2.46-4.46-.64,6.17Z"/><line class="cls-9" x1="451.12" y1="631.77" x2="488.6" y2="610.56"/><polygon class="cls-7" points="455.63 633.88 439.8 637.98 451.46 626.51 455.63 633.88"/><path class="cls-2" d="M611,616.9l-6.4-9.31,4.12-2.84a6.67,6.67,0,0,1,2.07-1,2.47,2.47,0,0,1,1.64.18,3.17,3.17,0,0,1,1.36,1.13,2.87,2.87,0,0,1,.5,2.12,3.87,3.87,0,0,1-1.38,2.22,4.49,4.49,0,0,1,1.06-.05,8.24,8.24,0,0,1,1.87.54l3.36,1.42-1.55,1.07-2.56-1.09a18.87,18.87,0,0,0-1.77-.67,3.61,3.61,0,0,0-1-.2,2.49,2.49,0,0,0-.74.14,4.39,4.39,0,0,0-.71.43l-1.43,1,2.84,4.14Zm-2.35-6,2.65-1.82a4.36,4.36,0,0,0,1.2-1.08,1.72,1.72,0,0,0,.34-1.06,1.85,1.85,0,0,0-.32-1,1.69,1.69,0,0,0-1.23-.76,2.73,2.73,0,0,0-1.81.62l-2.94,2Z"/><path class="cls-2" d="M618.22,608.34l1.13-.93a2.61,2.61,0,0,0,1.53.89,2,2,0,0,0,1.47-.36,2.18,2.18,0,0,0,1-1.58,2.85,2.85,0,0,0-.56-2.05,2.54,2.54,0,0,0-1.61-1.16,2.54,2.54,0,0,0-2.65,1.36,2.27,2.27,0,0,0-.25,1.13l-1.17.6-2.39-5.41,4.63-3.18.75,1.09-3.71,2.56,1.22,2.84a3.68,3.68,0,0,1,1.35-1.79,3.39,3.39,0,0,1,2.64-.57,3.54,3.54,0,0,1,2.33,1.6,4.1,4.1,0,0,1,.77,2.69,3.6,3.6,0,0,1-1.67,2.81,3.64,3.64,0,0,1-2.56.71A3.37,3.37,0,0,1,618.22,608.34Z"/><line class="cls-9" x1="563.91" y1="657.78" x2="629.55" y2="610.56"/><polygon class="cls-7" points="568.62 659.38 553.33 665.17 563.67 652.51 568.62 659.38"/><path class="cls-2" d="M583.45,747.38l8.21-7.76,3.44,3.64a6.66,6.66,0,0,1,1.36,1.88,2.51,2.51,0,0,1,.08,1.65,3.24,3.24,0,0,1-.91,1.51,2.87,2.87,0,0,1-2,.83,3.94,3.94,0,0,1-2.42-1,3.4,3.4,0,0,1,.21,1,7.72,7.72,0,0,1-.24,1.94l-.88,3.54L589,753.25l.68-2.7c.19-.79.32-1.4.39-1.86a3.6,3.6,0,0,0,0-1.07,2.52,2.52,0,0,0-.25-.7,4.2,4.2,0,0,0-.54-.64L588.12,745l-3.65,3.45Zm5.61-3.25,2.21,2.34a5.1,5.1,0,0,0,1.26,1,1.69,1.69,0,0,0,1.09.17,1.87,1.87,0,0,0,1-.48,1.71,1.71,0,0,0,.56-1.33,2.77,2.77,0,0,0-.89-1.69l-2.46-2.6Z"/><path class="cls-2" d="M593.06,753.21l1.08.88a3,3,0,0,0-.67,1.76,2,2,0,0,0,.58,1.37,2.3,2.3,0,0,0,3.31.07,2.09,2.09,0,0,0,.72-1.53,2.13,2.13,0,0,0-.64-1.58,3.59,3.59,0,0,0-.78-.61l1-.73a1,1,0,0,0,.14.18,2.84,2.84,0,0,0,1.43.84,1.6,1.6,0,0,0,1.53-.46,1.71,1.71,0,0,0,.56-1.25,1.82,1.82,0,0,0-.55-1.31,1.9,1.9,0,0,0-1.3-.63,2.53,2.53,0,0,0-1.58.54l-.78-1.18a3.57,3.57,0,0,1,2.37-.64,3.39,3.39,0,0,1,2.1,1.1,3.87,3.87,0,0,1,.88,1.51,2.94,2.94,0,0,1,0,1.61,2.67,2.67,0,0,1-.78,1.3,2.27,2.27,0,0,1-1.24.63,2.55,2.55,0,0,1-1.49-.19,2.61,2.61,0,0,1,.37,1.79,2.91,2.91,0,0,1-.94,1.66,3.34,3.34,0,0,1-2.57.94,3.8,3.8,0,0,1-2.62-1.28,3.54,3.54,0,0,1-1.05-2.4A3.42,3.42,0,0,1,593.06,753.21Z"/><line class="cls-9" x1="563.88" y1="735.24" x2="593.81" y2="766.21"/><polygon class="cls-7" points="562.98 740.13 555.04 725.84 569.06 734.25 562.98 740.13"/><path class="cls-2" d="M758.79,339l6.47-9.26,4.11,2.87a6.72,6.72,0,0,1,1.71,1.56,2.52,2.52,0,0,1,.41,1.6,3.1,3.1,0,0,1-.59,1.67,2.87,2.87,0,0,1-1.8,1.22,4,4,0,0,1-2.57-.52,3.62,3.62,0,0,1,.42,1,7.39,7.39,0,0,1,.15,1.94L767,344.7l-1.54-1.08.12-2.79c0-.8,0-1.43,0-1.89a3.6,3.6,0,0,0-.19-1.06,2.23,2.23,0,0,0-.39-.63,3.66,3.66,0,0,0-.65-.52l-1.42-1L760,339.85Zm4.84-4.32,2.64,1.84a4.84,4.84,0,0,0,1.43.75,1.81,1.81,0,0,0,1.11-.05,1.86,1.86,0,0,0,.83-.66,1.69,1.69,0,0,0,.28-1.42,2.75,2.75,0,0,0-1.21-1.47l-2.94-2.05Z"/><path class="cls-2" d="M769.37,342.75l1.24.64a3,3,0,0,0-.3,1.86,2,2,0,0,0,.84,1.22,2.25,2.25,0,0,0,1.75.4,2.32,2.32,0,0,0,1.51-1,2.15,2.15,0,0,0,.4-1.65,2.17,2.17,0,0,0-.95-1.42,4.08,4.08,0,0,0-.89-.44l.82-.91.18.14a2.86,2.86,0,0,0,1.57.54,1.6,1.6,0,0,0,1.4-.76,1.71,1.71,0,0,0,.3-1.34,1.81,1.81,0,0,0-.81-1.17,1.88,1.88,0,0,0-1.39-.36,2.63,2.63,0,0,0-1.45.86l-1-1a3.62,3.62,0,0,1,2.18-1.11,3.32,3.32,0,0,1,2.28.66,3.54,3.54,0,0,1,1.17,1.3,3,3,0,0,1,.36,1.57,2.86,2.86,0,0,1-.5,1.43,2.38,2.38,0,0,1-1.09.87,2.76,2.76,0,0,1-1.5.11,2.65,2.65,0,0,1,.73,1.68,2.92,2.92,0,0,1-.59,1.81,3.34,3.34,0,0,1-2.32,1.44,3.8,3.8,0,0,1-2.83-.72,3.57,3.57,0,0,1-1.52-2.14A3.42,3.42,0,0,1,769.37,342.75Z"/><line class="cls-9" x1="790.8" y1="367.36" x2="755.23" y2="343.08"/><polygon class="cls-7" points="790.7 362.38 801.36 374.78 785.93 369.38 790.7 362.38"/><path class="cls-2" d="M762.11,224.77l-9.91-5.43,2.41-4.39a6.47,6.47,0,0,1,1.37-1.87,2.53,2.53,0,0,1,1.54-.59,3.17,3.17,0,0,1,1.72.41,2.84,2.84,0,0,1,1.41,1.66,4,4,0,0,1-.24,2.61,3.77,3.77,0,0,1,.93-.52,8.09,8.09,0,0,1,1.91-.37l3.64-.24-.9,1.65-2.78.18c-.81.06-1.43.12-1.88.2a3.11,3.11,0,0,0-1,.3,2.3,2.3,0,0,0-.59.45,3.69,3.69,0,0,0-.45.71l-.83,1.52,4.4,2.41Zm-4.82-4.34,1.54-2.82a4.76,4.76,0,0,0,.59-1.51,1.77,1.77,0,0,0-.17-1.1,1.93,1.93,0,0,0-.75-.75,1.64,1.64,0,0,0-1.43-.12,2.7,2.7,0,0,0-1.34,1.36L754,218.63Z"/><path class="cls-2" d="M764.69,213.85l.51-1.31a3,3,0,0,0,1.88.1,2,2,0,0,0,1.13-1,2.27,2.27,0,0,0,.2-1.78,2.31,2.31,0,0,0-1.15-1.4,2.2,2.2,0,0,0-1.69-.21,2.16,2.16,0,0,0-1.3,1.1,3.9,3.9,0,0,0-.34.93l-1-.72.12-.19a2.92,2.92,0,0,0,.36-1.62,1.59,1.59,0,0,0-.91-1.31,1.72,1.72,0,0,0-1.36-.15,2,2,0,0,0-1.28,2.35,2.54,2.54,0,0,0,1,1.34l-.89,1.1a3.57,3.57,0,0,1-1.34-2.05,3.36,3.36,0,0,1,.41-2.34,3.58,3.58,0,0,1,1.17-1.3,2.81,2.81,0,0,1,1.52-.52,2.84,2.84,0,0,1,1.47.33,2.4,2.4,0,0,1,1,1,1,1,0,1,0,1.87.58,2.94,2.94,0,0,1,1.87.39,3.35,3.35,0,0,1,1.68,2.15,3.78,3.78,0,0,1-.41,2.89,3.56,3.56,0,0,1-2,1.74A3.45,3.45,0,0,1,764.69,213.85Z"/><line class="cls-9" x1="786.85" y1="189.71" x2="766.57" y2="227.7"/><polygon class="cls-7" points="781.91 190.34 793.08 178.4 789.38 194.33 781.91 190.34"/><path class="cls-2" d="M348.52,699.71l-5.45-9.9,4.39-2.42a6.93,6.93,0,0,1,2.15-.84,2.53,2.53,0,0,1,1.62.33,3.16,3.16,0,0,1,1.24,1.27,2.86,2.86,0,0,1,.29,2.15,3.88,3.88,0,0,1-1.6,2.08,4.24,4.24,0,0,1,1.07.06,8.14,8.14,0,0,1,1.81.71l3.21,1.75-1.65.91-2.45-1.34c-.71-.38-1.27-.66-1.69-.84a3.48,3.48,0,0,0-1-.3,2.28,2.28,0,0,0-.75.07,5.27,5.27,0,0,0-.75.35l-1.52.84,2.42,4.4Zm-1.74-6.25,2.82-1.56a4.79,4.79,0,0,0,1.3-.95,1.69,1.69,0,0,0,.44-1,1.87,1.87,0,0,0-.22-1A1.69,1.69,0,0,0,350,688a2.74,2.74,0,0,0-1.86.44L345,690.18Z"/><path class="cls-2" d="M356.58,691.89l1.22-.81a2.54,2.54,0,0,0,1.43,1,2,2,0,0,0,1.5-.21,2.25,2.25,0,0,0,1.12-1.48,2.86,2.86,0,0,0-.36-2.09A2.53,2.53,0,0,0,360,687a2.3,2.3,0,0,0-1.86.24,2.49,2.49,0,0,0-.91.85,2.28,2.28,0,0,0-.36,1.1l-1.22.48-1.85-5.61,4.92-2.71.64,1.16-3.95,2.18.94,2.95a3.65,3.65,0,0,1,1.52-1.65,3.39,3.39,0,0,1,2.69-.31,3.59,3.59,0,0,1,2.16,1.82,4.14,4.14,0,0,1,.5,2.75,4,4,0,0,1-4.56,3.09A3.3,3.3,0,0,1,356.58,691.89Z"/><line class="cls-9" x1="331.81" y1="715.56" x2="369.3" y2="694.35"/><polygon class="cls-7" points="336.32 717.66 320.5 721.76 332.15 710.3 336.32 717.66"/><path class="cls-2" d="M349.7,183.73l8-8,3.56,3.53a6.64,6.64,0,0,1,1.41,1.83,2.5,2.5,0,0,1,.14,1.65,3.22,3.22,0,0,1-.87,1.54,2.84,2.84,0,0,1-2,.89,3.94,3.94,0,0,1-2.44-1,4.34,4.34,0,0,1,.24,1,7.57,7.57,0,0,1-.18,2l-.77,3.56-1.33-1.32.59-2.72c.17-.79.28-1.42.33-1.87a3.38,3.38,0,0,0,0-1.07,2,2,0,0,0-.27-.7,4.56,4.56,0,0,0-.55-.62l-1.23-1.22-3.54,3.56Zm5.51-3.43,2.28,2.26a4.6,4.6,0,0,0,1.29,1,1.71,1.71,0,0,0,1.1.14,1.86,1.86,0,0,0,.93-.51,1.68,1.68,0,0,0,.51-1.34,2.67,2.67,0,0,0-.94-1.66l-2.54-2.53Z"/><path class="cls-2" d="M359.46,189.24l1.12.94a2.62,2.62,0,0,0-.59,1.67,2.06,2.06,0,0,0,.63,1.38,2.24,2.24,0,0,0,1.74.66,2.79,2.79,0,0,0,1.9-.94,2.57,2.57,0,0,0,.85-1.79,2.47,2.47,0,0,0-3-2.39l-.8-1,4.86-3.35,4,4-.93.94L366,186.1l-2.58,1.73a3.63,3.63,0,0,1,2,1,3.37,3.37,0,0,1,1,2.49,3.56,3.56,0,0,1-1.14,2.58,4.1,4.1,0,0,1-2.5,1.26,3.58,3.58,0,0,1-3.07-1.12,3.67,3.67,0,0,1-1.18-2.39A3.38,3.38,0,0,1,359.46,189.24Z"/><line class="cls-9" x1="329.88" y1="172.08" x2="360.79" y2="202.08"/><polygon class="cls-7" points="329.13 177 320.75 162.97 335.03 170.93 329.13 177"/><path class="cls-2" d="M400.11,782.8v-2.7H395.2v-1.27l5.16-7.33h1.13v7.33H403v1.27h-1.53v2.7Zm0-4v-5.1l-3.54,5.1Z"/><path class="cls-2" d="M404.44,777.23a10.53,10.53,0,0,1,.41-3.23,4,4,0,0,1,1.23-1.88,3.12,3.12,0,0,1,2-.66,3.4,3.4,0,0,1,1.6.36,3.1,3.1,0,0,1,1.13,1.06,5.63,5.63,0,0,1,.7,1.68,11.09,11.09,0,0,1,.26,2.67,10.39,10.39,0,0,1-.41,3.21,4,4,0,0,1-1.22,1.89,3.17,3.17,0,0,1-2.06.67,3.07,3.07,0,0,1-2.56-1.18A7.4,7.4,0,0,1,404.44,777.23Zm1.43,0a7,7,0,0,0,.65,3.7,1.85,1.85,0,0,0,3.21,0,10.88,10.88,0,0,0,0-7.41,1.92,1.92,0,0,0-1.62-.91,1.79,1.79,0,0,0-1.53.8A7.19,7.19,0,0,0,405.87,777.23Z"/><path class="cls-2" d="M420.64,786.13a14.11,14.11,0,0,1-1.94-3.4,10.47,10.47,0,0,1-.79-4,10.35,10.35,0,0,1,.59-3.51,14.9,14.9,0,0,1,2.14-3.89h1c-.62,1.07-1,1.83-1.24,2.29a12.64,12.64,0,0,0-1.07,5.12,13.91,13.91,0,0,0,2.31,7.41Z"/><path class="cls-2" d="M428.09,782.8H426.7V774a7.06,7.06,0,0,1-1.31,1,8.35,8.35,0,0,1-1.46.71v-1.34a8.26,8.26,0,0,0,2-1.32,5.3,5.3,0,0,0,1.23-1.51h.9Z"/><path class="cls-2" d="M432.42,782.8v-1.58H434v1.58Z"/><path class="cls-2" d="M436,779.84l1.46-.12a2.54,2.54,0,0,0,.75,1.6,2,2,0,0,0,1.42.54,2.25,2.25,0,0,0,1.7-.76,2.84,2.84,0,0,0,.69-2,2.56,2.56,0,0,0-.67-1.88,2.33,2.33,0,0,0-1.74-.68,2.44,2.44,0,0,0-1.21.3,2.32,2.32,0,0,0-.85.79l-1.3-.17,1.09-5.8H443V773h-4.51l-.61,3a3.71,3.71,0,0,1,2.14-.71,3.34,3.34,0,0,1,2.49,1,3.56,3.56,0,0,1,1,2.63,4.12,4.12,0,0,1-.89,2.65,3.59,3.59,0,0,1-3,1.38,3.64,3.64,0,0,1-2.52-.87A3.35,3.35,0,0,1,436,779.84Z"/><path class="cls-2" d="M444.9,773v-1.33h7.32v1.08a15.32,15.32,0,0,0-2.14,3,18.74,18.74,0,0,0-1.64,3.92,14.52,14.52,0,0,0-.53,3.1h-1.43a13.89,13.89,0,0,1,.53-3.22,16.89,16.89,0,0,1,1.43-3.64,15.56,15.56,0,0,1,2-3Z"/><path class="cls-2" d="M453.59,779.84l1.46-.12a2.59,2.59,0,0,0,.75,1.6,2,2,0,0,0,1.42.54,2.25,2.25,0,0,0,1.7-.76,2.84,2.84,0,0,0,.69-2,2.56,2.56,0,0,0-.67-1.88,2.33,2.33,0,0,0-1.74-.68,2.44,2.44,0,0,0-1.21.3,2.32,2.32,0,0,0-.85.79l-1.3-.17,1.09-5.8h5.62V773H456l-.61,3a3.71,3.71,0,0,1,2.14-.71,3.34,3.34,0,0,1,2.49,1,3.56,3.56,0,0,1,1,2.63,4.12,4.12,0,0,1-.89,2.65,3.59,3.59,0,0,1-3,1.38,3.64,3.64,0,0,1-2.52-.87A3.35,3.35,0,0,1,453.59,779.84Z"/><path class="cls-2" d="M462.82,775.5l-.38-2.15V771.5H464v1.85l-.35,2.15Zm2.56,0-.38-2.15V771.5h1.58v1.85l-.37,2.15Z"/><path class="cls-2" d="M469.27,786.13h-1a13.91,13.91,0,0,0,2.31-7.41,12.88,12.88,0,0,0-1.06-5.1c-.2-.46-.62-1.23-1.25-2.31h1a14.61,14.61,0,0,1,2.14,3.89,10.36,10.36,0,0,1,.6,3.51,10.48,10.48,0,0,1-.8,4A14.11,14.11,0,0,1,469.27,786.13Z"/><line class="cls-4" x1="323.35" y1="789.41" x2="548.05" y2="789.41"/><polygon class="cls-7" points="325.96 793.08 311.68 789.25 325.96 785.42 325.96 793.08"/><polygon class="cls-7" points="545.44 793.08 559.72 789.25 545.44 785.42 545.44 793.08"/><path class="cls-2" d="M387.94,750.38l1.39-.18a3.11,3.11,0,0,0,.81,1.7,2.06,2.06,0,0,0,1.4.52,2.31,2.31,0,0,0,2.33-2.36,2.15,2.15,0,0,0-.62-1.58,2.19,2.19,0,0,0-1.59-.62,4.1,4.1,0,0,0-1,.15l.15-1.21h.23a2.82,2.82,0,0,0,1.59-.46,1.57,1.57,0,0,0,.71-1.43,1.68,1.68,0,0,0-.51-1.26,1.87,1.87,0,0,0-1.34-.5,1.89,1.89,0,0,0-1.35.51,2.51,2.51,0,0,0-.69,1.52l-1.39-.24a3.62,3.62,0,0,1,1.16-2.17,3.34,3.34,0,0,1,2.24-.76,3.7,3.7,0,0,1,1.7.39,3,3,0,0,1,1.2,1.09,2.79,2.79,0,0,1,.41,1.45,2.34,2.34,0,0,1-.4,1.34,2.63,2.63,0,0,1-1.16,1,2.68,2.68,0,0,1,1.56,1,3,3,0,0,1,.55,1.83,3.35,3.35,0,0,1-1.08,2.51,3.81,3.81,0,0,1-2.72,1,3.57,3.57,0,0,1-2.48-.88A3.49,3.49,0,0,1,387.94,750.38Z"/><path class="cls-2" d="M396.72,747.79a10.28,10.28,0,0,1,.41-3.23,4,4,0,0,1,1.22-1.88,3.17,3.17,0,0,1,2-.66,3.4,3.4,0,0,1,1.6.36,3.18,3.18,0,0,1,1.13,1.06,5.63,5.63,0,0,1,.7,1.68,11.17,11.17,0,0,1,.25,2.67,10.43,10.43,0,0,1-.4,3.21,4,4,0,0,1-1.23,1.89,3.42,3.42,0,0,1-4.62-.51A7.48,7.48,0,0,1,396.72,747.79Zm1.42,0a7.16,7.16,0,0,0,.65,3.71,1.86,1.86,0,0,0,3.22,0,10.88,10.88,0,0,0,0-7.41,2,2,0,0,0-1.63-.91,1.79,1.79,0,0,0-1.52.8A7.17,7.17,0,0,0,398.14,747.79Z"/><path class="cls-2" d="M406.27,753.36v-1.58h1.58v1.58Z"/><path class="cls-2" d="M410,743.54v-1.33h7.32v1.08a15.32,15.32,0,0,0-2.14,3.05,18.74,18.74,0,0,0-1.64,3.92,14.52,14.52,0,0,0-.53,3.1h-1.43a13.89,13.89,0,0,1,.53-3.22,16.43,16.43,0,0,1,1.44-3.64,15.55,15.55,0,0,1,2-3Z"/><path class="cls-2" d="M418.66,750.4l1.46-.12a2.65,2.65,0,0,0,.75,1.6,2,2,0,0,0,1.42.54,2.23,2.23,0,0,0,1.7-.76,2.84,2.84,0,0,0,.69-2,2.61,2.61,0,0,0-.66-1.88,2.37,2.37,0,0,0-1.75-.68,2.44,2.44,0,0,0-1.21.3,2.4,2.4,0,0,0-.85.79l-1.3-.17,1.09-5.8h5.62v1.32h-4.51l-.61,3a3.71,3.71,0,0,1,2.14-.71,3.36,3.36,0,0,1,2.5,1,3.56,3.56,0,0,1,1,2.63,4.06,4.06,0,0,1-.89,2.65,3.56,3.56,0,0,1-3,1.38,3.63,3.63,0,0,1-2.51-.87A3.36,3.36,0,0,1,418.66,750.4Z"/><line class="cls-4" x1="323.35" y1="759.97" x2="488.09" y2="759.97"/><polygon class="cls-7" points="325.96 763.64 311.68 759.81 325.96 755.99 325.96 763.64"/><polygon class="cls-7" points="485.53 763.64 499.81 759.81 485.53 755.99 485.53 763.64"/><path class="cls-2" d="M375.73,527.49v1.33h-7.47a2.62,2.62,0,0,1,.16-1,5.2,5.2,0,0,1,.92-1.51,14.83,14.83,0,0,1,1.81-1.71,14.89,14.89,0,0,0,2.49-2.39,2.83,2.83,0,0,0,.65-1.67,1.87,1.87,0,0,0-.59-1.39,2.11,2.11,0,0,0-1.54-.57,2.17,2.17,0,0,0-1.6.6,2.33,2.33,0,0,0-.61,1.67l-1.43-.15a3.52,3.52,0,0,1,1.11-2.43,3.73,3.73,0,0,1,2.56-.84,3.55,3.55,0,0,1,2.58.91,3,3,0,0,1,1,2.23,3.54,3.54,0,0,1-.28,1.34,5.5,5.5,0,0,1-.92,1.38,22.42,22.42,0,0,1-2.14,2c-.83.7-1.37,1.18-1.6,1.43a4.3,4.3,0,0,0-.59.75Z"/><path class="cls-2" d="M377.22,523.25a10.53,10.53,0,0,1,.41-3.23,4.07,4.07,0,0,1,1.23-1.88,3.13,3.13,0,0,1,2-.67,3.4,3.4,0,0,1,1.6.37,2.94,2.94,0,0,1,1.13,1.06,5.63,5.63,0,0,1,.71,1.68,11.71,11.71,0,0,1,.25,2.67,10.48,10.48,0,0,1-.41,3.21,4.07,4.07,0,0,1-1.22,1.89,3.16,3.16,0,0,1-2.06.66,3.1,3.1,0,0,1-2.56-1.17A7.4,7.4,0,0,1,377.22,523.25Zm1.43,0a7,7,0,0,0,.65,3.7,1.9,1.9,0,0,0,1.6.92,1.92,1.92,0,0,0,1.61-.92,10.88,10.88,0,0,0,0-7.41,1.93,1.93,0,0,0-1.62-.92,1.78,1.78,0,0,0-1.53.81A7.27,7.27,0,0,0,378.65,523.25Z"/><line class="cls-4" x1="323.35" y1="535.43" x2="422.26" y2="535.43"/><polygon class="cls-7" points="325.96 539.1 311.68 535.27 325.96 531.45 325.96 539.1"/><polygon class="cls-7" points="421.32 539.1 435.59 535.27 421.32 531.45 421.32 539.1"/><path class="cls-2" d="M266.31,557.11l-.12-1.46a2.65,2.65,0,0,0,1.6-.75,2,2,0,0,0,.53-1.42,2.22,2.22,0,0,0-.75-1.7,2.85,2.85,0,0,0-2-.69,2.55,2.55,0,0,0-1.87.67,2.29,2.29,0,0,0-.68,1.74,2.44,2.44,0,0,0,.3,1.21,2.4,2.4,0,0,0,.79.85l-.17,1.3-5.8-1.09v-5.62h1.32v4.51l3,.61a3.71,3.71,0,0,1-.71-2.14,3.39,3.39,0,0,1,1-2.5,3.64,3.64,0,0,1,2.64-1,4.08,4.08,0,0,1,2.65.89,3.56,3.56,0,0,1,1.38,3,3.62,3.62,0,0,1-.87,2.51A3.36,3.36,0,0,1,266.31,557.11Z"/><path class="cls-2" d="M259.45,548.24h-1.33v-7.32h1.08a15.32,15.32,0,0,0,3.05,2.14,18.52,18.52,0,0,0,3.92,1.64,15.17,15.17,0,0,0,3.1.53v1.43a13.81,13.81,0,0,1-3.22-.53,16.43,16.43,0,0,1-3.64-1.44,15.09,15.09,0,0,1-3-2Z"/><path class="cls-2" d="M269.27,538.77h-1.58v-1.58h1.58Z"/><path class="cls-2" d="M266.29,535.15l-.19-1.38a3,3,0,0,0,1.7-.82,2,2,0,0,0,.52-1.4,2.24,2.24,0,0,0-.67-1.65,2.31,2.31,0,0,0-1.68-.67,2.11,2.11,0,0,0-1.58.62,2.19,2.19,0,0,0-.62,1.59,4.1,4.1,0,0,0,.15,1l-1.22-.16c0-.09,0-.16,0-.22a2.88,2.88,0,0,0-.46-1.6,1.59,1.59,0,0,0-1.43-.7,1.68,1.68,0,0,0-1.26.51,1.83,1.83,0,0,0-.5,1.34,1.9,1.9,0,0,0,.5,1.34,2.55,2.55,0,0,0,1.53.7l-.25,1.39a3.57,3.57,0,0,1-2.16-1.16,3.34,3.34,0,0,1-.76-2.24,3.77,3.77,0,0,1,.39-1.71,2.93,2.93,0,0,1,1.09-1.19,2.79,2.79,0,0,1,1.45-.41,2.44,2.44,0,0,1,1.34.39,2.61,2.61,0,0,1,.95,1.17,2.68,2.68,0,0,1,1-1.56,2.94,2.94,0,0,1,1.82-.56,3.32,3.32,0,0,1,2.51,1.08,3.78,3.78,0,0,1,1,2.73,3.54,3.54,0,0,1-.88,2.47A3.4,3.4,0,0,1,266.29,535.15Z"/><path class="cls-2" d="M266.29,526.4,266.1,525a3,3,0,0,0,1.7-.82,2,2,0,0,0,.52-1.39,2.25,2.25,0,0,0-.67-1.66,2.31,2.31,0,0,0-1.68-.67,2.15,2.15,0,0,0-1.58.62,2.19,2.19,0,0,0-.62,1.59,4.1,4.1,0,0,0,.15,1l-1.22-.15c0-.1,0-.17,0-.23a2.82,2.82,0,0,0-.46-1.59,1.58,1.58,0,0,0-1.43-.71,1.68,1.68,0,0,0-1.26.51,1.83,1.83,0,0,0-.5,1.34,1.93,1.93,0,0,0,.5,1.35,2.54,2.54,0,0,0,1.53.69l-.25,1.39a3.57,3.57,0,0,1-2.16-1.16,3.34,3.34,0,0,1-.76-2.24,3.77,3.77,0,0,1,.39-1.71,2.93,2.93,0,0,1,1.09-1.19,2.79,2.79,0,0,1,1.45-.41,2.44,2.44,0,0,1,1.34.39,2.66,2.66,0,0,1,.95,1.17,2.68,2.68,0,0,1,1-1.56,2.94,2.94,0,0,1,1.82-.55,3.35,3.35,0,0,1,2.51,1.07,3.78,3.78,0,0,1,1,2.73,3.53,3.53,0,0,1-.88,2.47A3.45,3.45,0,0,1,266.29,526.4Z"/><line class="cls-10" x1="275.58" y1="388.09" x2="275.58" y2="720.06"/><polygon class="cls-7" points="271.91 390.7 275.74 376.42 279.57 390.7 271.91 390.7"/><polygon class="cls-7" points="271.91 717.45 275.74 731.73 279.57 717.45 271.91 717.45"/><path class="cls-2" d="M937.9,518.65h-2.71v4.9h-1.27l-7.32-5.16v-1.13h7.32v-1.53h1.27v1.53h2.71Zm-4,0h-5.09l5.09,3.54Z"/><path class="cls-2" d="M932.33,514.31a10.19,10.19,0,0,1-3.23-.41,4,4,0,0,1-1.88-1.22,3.12,3.12,0,0,1-.67-2,3.29,3.29,0,0,1,.37-1.6A3.06,3.06,0,0,1,928,507.9a5.63,5.63,0,0,1,1.68-.7,11.32,11.32,0,0,1,2.68-.25,10.52,10.52,0,0,1,3.21.4,4.08,4.08,0,0,1,1.89,1.23,3.45,3.45,0,0,1-.51,4.62A7.48,7.48,0,0,1,932.33,514.31Zm0-1.42a7.12,7.12,0,0,0,3.7-.65,1.87,1.87,0,0,0,0-3.22,10.88,10.88,0,0,0-7.41,0,2,2,0,0,0-.92,1.63,1.78,1.78,0,0,0,.81,1.52A7.15,7.15,0,0,0,932.33,512.89Z"/><line class="cls-10" x1="944.21" y1="402.76" x2="944.21" y2="621.35"/><polygon class="cls-7" points="940.54 405.37 944.36 391.09 948.19 405.37 940.54 405.37"/><polygon class="cls-7" points="940.54 618.74 944.36 633.02 948.19 618.74 940.54 618.74"/><path class="cls-2" d="M937.9,687.23v1.39h-8.84a7.06,7.06,0,0,1,1,1.31,10.08,10.08,0,0,1,.71,1.46h-1.34a8.11,8.11,0,0,0-1.33-2,4.94,4.94,0,0,0-1.51-1.24v-.89Z"/><path class="cls-2" d="M934.94,683.67l-.12-1.45a2.65,2.65,0,0,0,1.6-.75A2.09,2.09,0,0,0,937,680a2.22,2.22,0,0,0-.75-1.69,2.83,2.83,0,0,0-2-.7,2.59,2.59,0,0,0-1.87.67,2.32,2.32,0,0,0-.69,1.75,2.47,2.47,0,0,0,.31,1.21,2.29,2.29,0,0,0,.79.84l-.17,1.31-5.81-1.1v-5.62h1.33v4.51l3,.61a3.63,3.63,0,0,1-.71-2.13,3.39,3.39,0,0,1,1-2.5,3.6,3.6,0,0,1,2.64-1,4.09,4.09,0,0,1,2.65.9,3.55,3.55,0,0,1,1.37,3,3.64,3.64,0,0,1-.86,2.52A3.35,3.35,0,0,1,934.94,683.67Z"/><line class="cls-10" x1="944.21" y1="645.31" x2="944.21" y2="719.89"/><polygon class="cls-7" points="940.54 647.92 944.36 633.64 948.19 647.92 940.54 647.92"/><polygon class="cls-7" points="940.54 717.28 944.36 731.56 948.19 717.28 940.54 717.28"/><path class="cls-2" d="M687.89,700.11v1.38h-8.84a7.53,7.53,0,0,1,1,1.32,9.27,9.27,0,0,1,.72,1.46h-1.34a8.45,8.45,0,0,0-1.33-2,5.17,5.17,0,0,0-1.51-1.23v-.89Z"/><path class="cls-2" d="M686.56,689.26h1.33v7.47a2.4,2.4,0,0,1-1-.16,5.2,5.2,0,0,1-1.51-.92,14.12,14.12,0,0,1-1.71-1.81,15.31,15.31,0,0,0-2.39-2.49,2.9,2.9,0,0,0-1.67-.65,1.87,1.87,0,0,0-1.39.59,2.12,2.12,0,0,0-.57,1.54,2.16,2.16,0,0,0,.6,1.6A2.27,2.27,0,0,0,680,695l-.15,1.43a3.52,3.52,0,0,1-2.43-1.11,3.73,3.73,0,0,1-.84-2.56,3.6,3.6,0,0,1,.9-2.58,3,3,0,0,1,2.24-1,3.45,3.45,0,0,1,1.33.28,5.17,5.17,0,0,1,1.38.92,22.16,22.16,0,0,1,2,2.14c.7.84,1.18,1.37,1.42,1.61a4.38,4.38,0,0,0,.76.58Z"/><line class="cls-10" x1="694.2" y1="669.77" x2="694.2" y2="719.89"/><polygon class="cls-7" points="690.53 672.38 694.36 658.1 698.18 672.38 690.53 672.38"/><polygon class="cls-7" points="690.53 717.28 694.36 731.56 698.18 717.28 690.53 717.28"/><path class="cls-2" d="M934.92,281.16l-.19-1.39a3,3,0,0,0,1.7-.81,2,2,0,0,0,.52-1.4,2.21,2.21,0,0,0-.68-1.65,2.28,2.28,0,0,0-1.68-.68,2.14,2.14,0,0,0-2.19,2.21,4,4,0,0,0,.15,1l-1.22-.15c0-.09,0-.17,0-.22a2.91,2.91,0,0,0-.46-1.6,1.6,1.6,0,0,0-1.43-.71,1.65,1.65,0,0,0-1.26.52,1.81,1.81,0,0,0-.51,1.33,1.89,1.89,0,0,0,.51,1.35,2.54,2.54,0,0,0,1.53.69l-.25,1.39a3.52,3.52,0,0,1-2.16-1.16,3.35,3.35,0,0,1-.77-2.24,3.73,3.73,0,0,1,.4-1.7,2.91,2.91,0,0,1,1.08-1.19,2.77,2.77,0,0,1,1.46-.42,2.31,2.31,0,0,1,1.33.4,2.65,2.65,0,0,1,1,1.16,2.58,2.58,0,0,1,1-1.56,2.92,2.92,0,0,1,1.82-.55,3.32,3.32,0,0,1,2.51,1.08,3.78,3.78,0,0,1,1,2.73,3.56,3.56,0,0,1-.88,2.47A3.47,3.47,0,0,1,934.92,281.16Z"/><path class="cls-2" d="M931.77,270.25a2.6,2.6,0,0,1-.9,1.28,2.34,2.34,0,0,1-1.4.42,2.77,2.77,0,0,1-2.08-.89,3.29,3.29,0,0,1-.84-2.36,3.33,3.33,0,0,1,.86-2.38,2.8,2.8,0,0,1,2.1-.9,2.3,2.3,0,0,1,1.36.41,2.6,2.6,0,0,1,.9,1.25,2.89,2.89,0,0,1,2.9-2.12,3.26,3.26,0,0,1,2.44,1,3.71,3.71,0,0,1,1,2.7,3.74,3.74,0,0,1-1,2.7,3.3,3.3,0,0,1-2.47,1,2.92,2.92,0,0,1-1.84-.56A2.77,2.77,0,0,1,931.77,270.25Zm-2.35.28a1.73,1.73,0,0,0,1.31-.52,2,2,0,0,0,0-2.65,1.65,1.65,0,0,0-1.24-.52,1.72,1.72,0,0,0-1.28.53,1.79,1.79,0,0,0-.53,1.32,1.82,1.82,0,0,0,.51,1.32A1.68,1.68,0,0,0,929.42,270.53Zm5.22.45a2.48,2.48,0,0,0,1.15-.29,1.92,1.92,0,0,0,.86-.83,2.48,2.48,0,0,0,.3-1.2,2.22,2.22,0,0,0-.64-1.64,2.19,2.19,0,0,0-1.62-.65A2.25,2.25,0,0,0,933,267a2.28,2.28,0,0,0-.66,1.67,2.22,2.22,0,0,0,2.27,2.27Z"/><line class="cls-10" x1="944.21" y1="168.55" x2="944.21" y2="379.42"/><polygon class="cls-7" points="940.54 171.16 944.36 156.88 948.19 171.16 940.54 171.16"/><polygon class="cls-7" points="940.54 376.81 944.36 391.1 948.19 376.81 940.54 376.81"/><path class="cls-2" d="M891.1,281.16l-.19-1.39a3,3,0,0,0,1.7-.81,2,2,0,0,0,.52-1.4,2.25,2.25,0,0,0-.67-1.66,2.31,2.31,0,0,0-1.68-.67,2.15,2.15,0,0,0-1.58.62,2.19,2.19,0,0,0-.62,1.59,4.1,4.1,0,0,0,.15,1l-1.21-.15a2.11,2.11,0,0,0,0-.23,2.82,2.82,0,0,0-.46-1.59,1.58,1.58,0,0,0-1.43-.71,1.68,1.68,0,0,0-1.26.51,1.83,1.83,0,0,0-.5,1.34,1.89,1.89,0,0,0,.51,1.35,2.49,2.49,0,0,0,1.52.69l-.25,1.39a3.57,3.57,0,0,1-2.16-1.16,3.34,3.34,0,0,1-.76-2.24,3.7,3.7,0,0,1,.39-1.7,3,3,0,0,1,1.09-1.2,2.79,2.79,0,0,1,1.45-.41,2.34,2.34,0,0,1,1.34.4,2.63,2.63,0,0,1,1,1.16,2.68,2.68,0,0,1,1-1.56,3,3,0,0,1,1.83-.55,3.32,3.32,0,0,1,2.5,1.08,3.78,3.78,0,0,1,1,2.72,3.57,3.57,0,0,1-.88,2.48A3.49,3.49,0,0,1,891.1,281.16Z"/><path class="cls-2" d="M891.1,272.38l-.19-1.39a3,3,0,0,0,1.7-.81,2,2,0,0,0,.52-1.4,2.25,2.25,0,0,0-.67-1.66,2.31,2.31,0,0,0-1.68-.67,2.15,2.15,0,0,0-1.58.62,2.19,2.19,0,0,0-.62,1.59,4.1,4.1,0,0,0,.15,1l-1.21-.15a2.11,2.11,0,0,0,0-.23,2.82,2.82,0,0,0-.46-1.59,1.58,1.58,0,0,0-1.43-.71,1.68,1.68,0,0,0-1.26.51,1.83,1.83,0,0,0-.5,1.34,1.89,1.89,0,0,0,.51,1.35,2.49,2.49,0,0,0,1.52.69l-.25,1.39a3.57,3.57,0,0,1-2.16-1.16,3.34,3.34,0,0,1-.76-2.24,3.77,3.77,0,0,1,.39-1.71,3,3,0,0,1,1.09-1.19,2.79,2.79,0,0,1,1.45-.41,2.34,2.34,0,0,1,1.34.4,2.63,2.63,0,0,1,1,1.16,2.68,2.68,0,0,1,1-1.56,3,3,0,0,1,1.83-.55,3.32,3.32,0,0,1,2.5,1.08,3.76,3.76,0,0,1,1,2.72,3.57,3.57,0,0,1-.88,2.48A3.49,3.49,0,0,1,891.1,272.38Z"/><line class="cls-10" x1="900.39" y1="184.47" x2="900.39" y2="364.75"/><polygon class="cls-7" points="896.72 187.08 900.54 172.8 904.37 187.08 896.72 187.08"/><polygon class="cls-7" points="896.72 362.14 900.54 376.42 904.37 362.14 896.72 362.14"/><path class="cls-2" d="M845.75,226.74v1.38h-8.84a7.17,7.17,0,0,1,1,1.32,9.13,9.13,0,0,1,.71,1.46h-1.34a8.14,8.14,0,0,0-1.32-2,5.3,5.3,0,0,0-1.51-1.23v-.89Z"/><path class="cls-2" d="M842.79,223.18l-.12-1.46a2.54,2.54,0,0,0,1.6-.75,2,2,0,0,0,.53-1.42,2.24,2.24,0,0,0-.75-1.7,2.85,2.85,0,0,0-2-.69,2.55,2.55,0,0,0-1.87.67,2.29,2.29,0,0,0-.68,1.74,2.41,2.41,0,0,0,.3,1.21,2.32,2.32,0,0,0,.79.85l-.17,1.3-5.8-1.09v-5.62h1.32v4.51l3,.61a3.71,3.71,0,0,1-.71-2.14,3.34,3.34,0,0,1,1-2.49,3.56,3.56,0,0,1,2.63-1,4.14,4.14,0,0,1,2.65.89,3.59,3.59,0,0,1,1.38,3,3.64,3.64,0,0,1-.87,2.52A3.35,3.35,0,0,1,842.79,223.18Z"/><line class="cls-10" x1="852.06" y1="184.47" x2="852.06" y2="257"/><polygon class="cls-7" points="848.39 187.08 852.22 172.8 856.04 187.08 848.39 187.08"/><polygon class="cls-7" points="848.39 254.39 852.22 268.67 856.04 254.39 848.39 254.39"/><path class="cls-2" d="M684.91,598.38l-.19-1.39a3,3,0,0,0,1.7-.81,2,2,0,0,0,.52-1.4,2.22,2.22,0,0,0-.67-1.65,2.32,2.32,0,0,0-1.69-.68,2.12,2.12,0,0,0-2.19,2.21,4,4,0,0,0,.15,1l-1.22-.15c0-.1,0-.17,0-.23a2.9,2.9,0,0,0-.46-1.59,1.6,1.6,0,0,0-1.43-.71,1.65,1.65,0,0,0-1.26.52,1.79,1.79,0,0,0-.51,1.33,1.89,1.89,0,0,0,.51,1.35,2.54,2.54,0,0,0,1.53.69l-.25,1.39a3.57,3.57,0,0,1-2.16-1.16,3.35,3.35,0,0,1-.77-2.24,3.73,3.73,0,0,1,.4-1.7A2.91,2.91,0,0,1,678,592a2.77,2.77,0,0,1,1.46-.42,2.31,2.31,0,0,1,1.33.4,1,1,0,1,0,1.92-.4,2.92,2.92,0,0,1,1.82-.55,3.32,3.32,0,0,1,2.51,1.08,3.78,3.78,0,0,1,1,2.73,3.56,3.56,0,0,1-.88,2.47A3.47,3.47,0,0,1,684.91,598.38Z"/><path class="cls-2" d="M266.29,273l-.19-1.39a3,3,0,0,0,1.7-.81,2,2,0,0,0,.52-1.4,2.24,2.24,0,0,0-.67-1.65A2.32,2.32,0,0,0,266,267a2.12,2.12,0,0,0-1.58.63,2.15,2.15,0,0,0-.62,1.58,4,4,0,0,0,.15,1l-1.22-.15c0-.09,0-.17,0-.22a2.85,2.85,0,0,0-.46-1.6,1.6,1.6,0,0,0-1.43-.71,1.65,1.65,0,0,0-1.26.52,1.8,1.8,0,0,0-.5,1.33,1.93,1.93,0,0,0,.5,1.35,2.54,2.54,0,0,0,1.53.69l-.25,1.39a3.56,3.56,0,0,1-2.16-1.15,3.37,3.37,0,0,1-.76-2.25,3.76,3.76,0,0,1,.39-1.7,2.87,2.87,0,0,1,1.09-1.19,2.71,2.71,0,0,1,1.45-.42,2.45,2.45,0,0,1,1.34.4,2.63,2.63,0,0,1,.95,1.16,2.68,2.68,0,0,1,1-1.56,2.94,2.94,0,0,1,1.82-.55,3.32,3.32,0,0,1,2.51,1.08,3.78,3.78,0,0,1,1,2.73,3.56,3.56,0,0,1-.88,2.47A3.44,3.44,0,0,1,266.29,273Z"/><path class="cls-2" d="M266.31,264.18l-.12-1.46a2.65,2.65,0,0,0,1.6-.75,2,2,0,0,0,.53-1.42,2.22,2.22,0,0,0-.75-1.7,2.85,2.85,0,0,0-2-.69,2.59,2.59,0,0,0-1.87.66,2.33,2.33,0,0,0-.68,1.75,2.44,2.44,0,0,0,.3,1.21,2.4,2.4,0,0,0,.79.85l-.17,1.3-5.8-1.09v-5.62h1.32v4.51l3,.61a3.71,3.71,0,0,1-.71-2.14,3.39,3.39,0,0,1,1-2.5,3.6,3.6,0,0,1,2.64-1,4.09,4.09,0,0,1,2.65.9,3.56,3.56,0,0,1,1.38,3,3.63,3.63,0,0,1-.87,2.51A3.36,3.36,0,0,1,266.31,264.18Z"/><path class="cls-2" d="M269.27,254.62h-1.58V253h1.58Z"/><path class="cls-2" d="M260.74,243.81l.11,1.38a2.54,2.54,0,0,0-1.19.53,1.79,1.79,0,0,0-.59,1.38,1.9,1.9,0,0,0,.37,1.17,3.14,3.14,0,0,0,1.39,1,7.31,7.31,0,0,0,2.61.39,3.21,3.21,0,0,1-1.5-2.74,3.13,3.13,0,0,1,1-2.36,3.67,3.67,0,0,1,2.64-1,4.3,4.3,0,0,1,2,.46,3.37,3.37,0,0,1,1.4,1.26,3.47,3.47,0,0,1,.49,1.82,3.56,3.56,0,0,1-1.28,2.83,6.44,6.44,0,0,1-4.21,1.09c-2.18,0-3.77-.4-4.76-1.21a3.47,3.47,0,0,1-1.29-2.84,3.19,3.19,0,0,1,.74-2.19A3.16,3.16,0,0,1,260.74,243.81Zm4.87,5.67a3.09,3.09,0,0,0,1.37-.31,2.21,2.21,0,0,0,1-.85,2.11,2.11,0,0,0,.34-1.15,2,2,0,0,0-.7-1.51,2.82,2.82,0,0,0-1.93-.63,2.65,2.65,0,0,0-1.85.62,2.06,2.06,0,0,0-.67,1.58,2.14,2.14,0,0,0,.67,1.59A2.42,2.42,0,0,0,265.61,249.48Z"/><path class="cls-2" d="M259.45,242.16h-1.33v-7.32h1.08a15.32,15.32,0,0,0,3.05,2.14,18.52,18.52,0,0,0,3.92,1.64,14.52,14.52,0,0,0,3.1.53v1.43a13.81,13.81,0,0,1-3.22-.53,16.43,16.43,0,0,1-3.64-1.44,15.09,15.09,0,0,1-3-2Z"/><line class="cls-10" x1="275.58" y1="168.56" x2="275.58" y2="363.69"/><polygon class="cls-7" points="271.91 171.17 275.74 156.89 279.57 171.17 271.91 171.17"/><polygon class="cls-7" points="271.91 361.08 275.74 375.36 279.57 361.08 271.91 361.08"/><line class="cls-10" x1="214.71" y1="168.56" x2="214.71" y2="719.89"/><polygon class="cls-7" points="211.05 171.17 214.87 156.89 218.7 171.17 211.05 171.17"/><polygon class="cls-7" points="211.05 717.28 214.87 731.56 218.7 717.28 211.05 717.28"/><path class="cls-2" d="M205.8,465.47l-.13-1.33a2.35,2.35,0,0,0,1.37-.65,1.8,1.8,0,0,0,.42-1.23,2.08,2.08,0,0,0-.29-1.12,2.56,2.56,0,0,0-.78-.79,4.6,4.6,0,0,0-1.32-.51,6.94,6.94,0,0,0-1.7-.21h-.28a3.29,3.29,0,0,1,1.08,1.14,3.24,3.24,0,0,1-.61,3.94,3.75,3.75,0,0,1-2.68,1,3.84,3.84,0,0,1-2.77-1,3.4,3.4,0,0,1-1.05-2.54,3.6,3.6,0,0,1,.6-2,3.71,3.71,0,0,1,1.69-1.39,8.45,8.45,0,0,1,3.18-.47,10.16,10.16,0,0,1,3.45.47,4,4,0,0,1,2,1.4,3.59,3.59,0,0,1,.67,2.18,3,3,0,0,1-2.8,3.17Zm-5-5.68a2.7,2.7,0,0,0-1.9.64,2,2,0,0,0-.7,1.53,2.11,2.11,0,0,0,.76,1.61,2.82,2.82,0,0,0,2,.68,2.39,2.39,0,0,0,1.75-.65,2.14,2.14,0,0,0,.67-1.61,2,2,0,0,0-.67-1.58A2.67,2.67,0,0,0,200.81,459.79Z"/><path class="cls-2" d="M205.43,456.89l-.19-1.39a3,3,0,0,0,1.7-.81,2,2,0,0,0,.52-1.4,2.21,2.21,0,0,0-.68-1.65,2.28,2.28,0,0,0-1.68-.68,2.14,2.14,0,0,0-2.19,2.22,4,4,0,0,0,.15,1l-1.22-.15c0-.09,0-.17,0-.22a2.93,2.93,0,0,0-.46-1.6,1.6,1.6,0,0,0-1.43-.71,1.65,1.65,0,0,0-1.26.52,1.81,1.81,0,0,0-.51,1.33,1.89,1.89,0,0,0,.51,1.35,2.54,2.54,0,0,0,1.53.69l-.25,1.39a3.56,3.56,0,0,1-2.16-1.15,3.37,3.37,0,0,1-.77-2.25,3.77,3.77,0,0,1,.4-1.7,2.91,2.91,0,0,1,1.08-1.19,2.76,2.76,0,0,1,1.46-.41,2.38,2.38,0,0,1,1.33.39,2.65,2.65,0,0,1,1,1.16,2.56,2.56,0,0,1,1-1.55,2.92,2.92,0,0,1,1.82-.56,3.32,3.32,0,0,1,2.51,1.08,3.78,3.78,0,0,1,1,2.73,3.56,3.56,0,0,1-.88,2.47A3.42,3.42,0,0,1,205.43,456.89Z"/><g class="cls-5"><path class="cls-2" d="M211.73,440.71a13.54,13.54,0,0,1-3.39,1.94,10.48,10.48,0,0,1-4,.8,10.37,10.37,0,0,1-3.52-.6,14.56,14.56,0,0,1-3.88-2.14v-1c1.07.62,1.83,1,2.29,1.23a12.64,12.64,0,0,0,5.12,1.07,13.92,13.92,0,0,0,7.4-2.3Z"/></g><path class="cls-2" d="M205.43,438.49l-.19-1.39a3,3,0,0,0,1.7-.81,2,2,0,0,0,.52-1.4,2.26,2.26,0,0,0-.67-1.66,2.31,2.31,0,0,0-1.68-.67,2.15,2.15,0,0,0-1.58.62,2.19,2.19,0,0,0-.62,1.59,4.1,4.1,0,0,0,.15,1l-1.21-.15a2.11,2.11,0,0,0,0-.23,2.82,2.82,0,0,0-.46-1.59,1.58,1.58,0,0,0-1.43-.71,1.65,1.65,0,0,0-1.26.52,1.79,1.79,0,0,0-.5,1.33,1.89,1.89,0,0,0,.51,1.35,2.49,2.49,0,0,0,1.52.69l-.24,1.39a3.57,3.57,0,0,1-2.17-1.16,3.34,3.34,0,0,1-.76-2.24,3.7,3.7,0,0,1,.39-1.7,3,3,0,0,1,1.09-1.2,2.79,2.79,0,0,1,1.45-.41,2.34,2.34,0,0,1,1.34.4,2.63,2.63,0,0,1,.95,1.16,2.68,2.68,0,0,1,1-1.56,3,3,0,0,1,1.83-.55,3.32,3.32,0,0,1,2.5,1.08,3.78,3.78,0,0,1,1,2.73,3.56,3.56,0,0,1-.88,2.47A3.49,3.49,0,0,1,205.43,438.49Z"/><path class="cls-2" d="M208.41,428.94h-1.58v-1.58h1.58Z"/><path class="cls-2" d="M199.88,418.13l.11,1.38a2.65,2.65,0,0,0-1.19.52,1.83,1.83,0,0,0-.59,1.39,1.92,1.92,0,0,0,.37,1.17,3.19,3.19,0,0,0,1.39,1,7.33,7.33,0,0,0,2.62.39,3.23,3.23,0,0,1-1.14-1.22,3.41,3.41,0,0,1-.37-1.52,3.16,3.16,0,0,1,1-2.37,3.7,3.7,0,0,1,2.64-1,4.3,4.3,0,0,1,2,.46,3.24,3.24,0,0,1,1.4,1.26,3.47,3.47,0,0,1,.49,1.82,3.57,3.57,0,0,1-1.28,2.83,6.44,6.44,0,0,1-4.21,1.09c-2.18,0-3.77-.4-4.76-1.21a3.47,3.47,0,0,1-1.29-2.84,3.19,3.19,0,0,1,.74-2.19A3.16,3.16,0,0,1,199.88,418.13Zm4.87,5.67a3.23,3.23,0,0,0,1.37-.31,2.21,2.21,0,0,0,1-.85,2.13,2.13,0,0,0,.34-1.15,2,2,0,0,0-.7-1.51,2.82,2.82,0,0,0-1.93-.63A2.65,2.65,0,0,0,203,420a2.06,2.06,0,0,0-.67,1.58,2.14,2.14,0,0,0,.67,1.59A2.42,2.42,0,0,0,204.75,423.8Z"/><path class="cls-2" d="M199.88,409.35l.11,1.38a2.65,2.65,0,0,0-1.19.52,1.83,1.83,0,0,0-.59,1.39,1.87,1.87,0,0,0,.37,1.16,3.14,3.14,0,0,0,1.39,1,7.33,7.33,0,0,0,2.62.39,3.23,3.23,0,0,1-1.14-1.22,3.41,3.41,0,0,1-.37-1.52,3.16,3.16,0,0,1,1-2.37,3.66,3.66,0,0,1,2.64-1,4.3,4.3,0,0,1,2,.46,3.24,3.24,0,0,1,1.4,1.26,3.47,3.47,0,0,1,.49,1.82,3.57,3.57,0,0,1-1.28,2.83,6.44,6.44,0,0,1-4.21,1.09c-2.18,0-3.77-.4-4.76-1.21a3.47,3.47,0,0,1-1.29-2.84,3.19,3.19,0,0,1,.74-2.19A3.16,3.16,0,0,1,199.88,409.35Zm4.87,5.66a3.22,3.22,0,0,0,1.37-.3,2.27,2.27,0,0,0,1-.85,2.13,2.13,0,0,0,.34-1.15,2,2,0,0,0-.7-1.51,2.82,2.82,0,0,0-1.93-.63,2.65,2.65,0,0,0-1.85.62,2,2,0,0,0-.67,1.57,2.14,2.14,0,0,0,.67,1.6A2.42,2.42,0,0,0,204.75,415Z"/><path class="cls-2" d="M208.41,402.54v1.39h-8.84a7.06,7.06,0,0,1,1,1.31,9.19,9.19,0,0,1,.71,1.47H199.9a8.14,8.14,0,0,0-1.32-2,5.3,5.3,0,0,0-1.51-1.23v-.9Z"/><path class="cls-2" d="M201.11,396l-2.15.38h-1.85v-1.58H199l2.15.37Zm0,2.55-2.15.39h-1.85v-1.58H199l2.15.35Z"/><g class="cls-5"><path class="cls-2" d="M211.73,392.12v1a13.85,13.85,0,0,0-7.4-2.31,12.72,12.72,0,0,0-2.88.33,12.05,12.05,0,0,0-2.22.74,25.54,25.54,0,0,0-2.31,1.24v-1A14.85,14.85,0,0,1,200.8,390a10.37,10.37,0,0,1,3.52-.59,10.47,10.47,0,0,1,4,.79A14.18,14.18,0,0,1,211.73,392.12Z"/></g><line class="cls-4" x1="900.43" y1="112.89" x2="900.43" y2="144.41"/><polygon class="cls-7" points="896.61 141.79 900.43 156.07 904.26 141.79 896.61 141.79"/><path class="cls-2" d="M891.05,120.81l-.18-1.39a3.11,3.11,0,0,0,1.7-.81,2.06,2.06,0,0,0,.52-1.4,2.29,2.29,0,0,0-.68-1.66,2.32,2.32,0,0,0-1.68-.67,2.12,2.12,0,0,0-1.58.63,2.15,2.15,0,0,0-.62,1.58,4.1,4.1,0,0,0,.15,1l-1.21-.15a2,2,0,0,0,0-.23,2.82,2.82,0,0,0-.46-1.59,1.59,1.59,0,0,0-1.43-.71,1.65,1.65,0,0,0-1.26.52,1.83,1.83,0,0,0-.5,1.33,1.89,1.89,0,0,0,.51,1.35,2.51,2.51,0,0,0,1.52.69l-.24,1.39a3.62,3.62,0,0,1-2.17-1.16,3.34,3.34,0,0,1-.76-2.24,3.73,3.73,0,0,1,.39-1.7,2.87,2.87,0,0,1,1.09-1.19,2.71,2.71,0,0,1,1.45-.42,2.34,2.34,0,0,1,1.34.4,2.63,2.63,0,0,1,.95,1.16,2.68,2.68,0,0,1,1-1.56,3,3,0,0,1,1.83-.55,3.35,3.35,0,0,1,2.51,1.08,3.82,3.82,0,0,1,1,2.73,3.56,3.56,0,0,1-.88,2.47A3.44,3.44,0,0,1,891.05,120.81Z"/><path class="cls-4" d="M900.43,402.91v31.51m0-261.62V157.26"/><polygon class="cls-7" points="896.61 405.51 900.43 391.23 904.26 405.51 896.61 405.51"/><path class="cls-2" d="M892.7,425.71H894v7.47a2.43,2.43,0,0,1-1-.16,5,5,0,0,1-1.5-.92,12.85,12.85,0,0,1-1.71-1.81,15.26,15.26,0,0,0-2.4-2.49,2.87,2.87,0,0,0-1.67-.65,1.87,1.87,0,0,0-1.39.59,2.12,2.12,0,0,0-.56,1.54,2.16,2.16,0,0,0,.6,1.6,2.24,2.24,0,0,0,1.66.61l-.14,1.43a3.56,3.56,0,0,1-2.44-1.1,3.82,3.82,0,0,1-.83-2.57,3.6,3.6,0,0,1,.9-2.58,3,3,0,0,1,2.23-.94,3.49,3.49,0,0,1,1.34.27,5.57,5.57,0,0,1,1.38.93,23.16,23.16,0,0,1,2,2.13c.7.84,1.17,1.37,1.42,1.61a4.74,4.74,0,0,0,.75.58Z"/><line class="cls-11" x1="900.43" y1="391.09" x2="900.43" y2="376.42"/><line class="cls-10" x1="796.39" y1="108.92" x2="322.99" y2="108.92"/><polygon class="cls-7" points="793.78 105.25 808.06 109.07 793.78 112.9 793.78 105.25"/><polygon class="cls-7" points="325.6 105.25 311.32 109.07 325.6 112.9 325.6 105.25"/><path class="cls-2" d="M522.28,96.48a2.56,2.56,0,0,1-1.28-.9,2.34,2.34,0,0,1-.42-1.4,2.77,2.77,0,0,1,.89-2.08,3.28,3.28,0,0,1,2.36-.84,3.33,3.33,0,0,1,2.38.86,2.8,2.8,0,0,1,.9,2.1,2.3,2.3,0,0,1-.41,1.36,2.63,2.63,0,0,1-1.26.9,2.88,2.88,0,0,1,2.13,2.9,3.26,3.26,0,0,1-1,2.44,3.78,3.78,0,0,1-2.7,1,3.71,3.71,0,0,1-2.7-1,3.3,3.3,0,0,1-1-2.47,3,3,0,0,1,.55-1.84A2.83,2.83,0,0,1,522.28,96.48Zm-.73,2.87a2.6,2.6,0,0,0,.28,1.15,2,2,0,0,0,.84.86,2.47,2.47,0,0,0,1.19.3,2.25,2.25,0,0,0,1.65-.64,2.18,2.18,0,0,0,.64-1.62,2.25,2.25,0,0,0-.66-1.66,2.28,2.28,0,0,0-1.67-.66,2.22,2.22,0,0,0-2.27,2.27Zm.45-5.22a1.73,1.73,0,0,0,.52,1.31,2,2,0,0,0,2.65,0,1.68,1.68,0,0,0,.51-1.24,1.71,1.71,0,0,0-.52-1.28,1.94,1.94,0,0,0-2.64,0A1.64,1.64,0,0,0,522,94.13Z"/><path class="cls-2" d="M528.92,97a10.53,10.53,0,0,1,.41-3.23,4.07,4.07,0,0,1,1.23-1.88,3.09,3.09,0,0,1,2.05-.67,3.39,3.39,0,0,1,1.59.37,2.94,2.94,0,0,1,1.13,1.06,5.63,5.63,0,0,1,.71,1.68,11.17,11.17,0,0,1,.25,2.67,10.48,10.48,0,0,1-.41,3.21,4.07,4.07,0,0,1-1.22,1.89,3.15,3.15,0,0,1-2,.66,3.11,3.11,0,0,1-2.57-1.17A7.4,7.4,0,0,1,528.92,97Zm1.43,0a7,7,0,0,0,.65,3.7,1.9,1.9,0,0,0,1.61.92,1.92,1.92,0,0,0,1.6-.92,7,7,0,0,0,.65-3.7,7,7,0,0,0-.65-3.71,1.93,1.93,0,0,0-1.62-.92,1.78,1.78,0,0,0-1.53.81A7.27,7.27,0,0,0,530.35,97Z"/><path class="cls-2" d="M545.12,105.93a13.85,13.85,0,0,1-1.94-3.39,10.47,10.47,0,0,1-.79-4A10.62,10.62,0,0,1,543,95a14.85,14.85,0,0,1,2.14-3.88h1c-.62,1.07-1,1.83-1.23,2.29a12.05,12.05,0,0,0-.74,2.22,12.91,12.91,0,0,0-.34,2.9,13.85,13.85,0,0,0,2.31,7.4Z"/><path class="cls-2" d="M547.35,99.63l1.39-.19a3,3,0,0,0,.81,1.7,2,2,0,0,0,1.4.52,2.22,2.22,0,0,0,1.66-.68,2.28,2.28,0,0,0,.67-1.68,2.12,2.12,0,0,0-2.21-2.19,4.1,4.1,0,0,0-1,.15l.15-1.22.23,0a2.9,2.9,0,0,0,1.59-.46,1.58,1.58,0,0,0,.71-1.43,1.68,1.68,0,0,0-.51-1.26,1.83,1.83,0,0,0-1.34-.51,1.89,1.89,0,0,0-1.35.51,2.54,2.54,0,0,0-.69,1.53l-1.39-.25A3.57,3.57,0,0,1,548.65,92a3.35,3.35,0,0,1,2.24-.77,3.7,3.7,0,0,1,1.7.4,3,3,0,0,1,1.2,1.08,2.85,2.85,0,0,1,.41,1.46,2.38,2.38,0,0,1-.39,1.33,2.81,2.81,0,0,1-1.17,1,2.58,2.58,0,0,1,1.56,1,2.92,2.92,0,0,1,.55,1.82,3.32,3.32,0,0,1-1.08,2.51,3.78,3.78,0,0,1-2.72,1,3.57,3.57,0,0,1-2.48-.88A3.51,3.51,0,0,1,547.35,99.63Z"/><path class="cls-2" d="M556.9,102.61V101h1.58v1.58Z"/><path class="cls-2" d="M565.74,102.61h-1.39V93.77a6.63,6.63,0,0,1-1.31,1,9.72,9.72,0,0,1-1.46.72V94.1a8.29,8.29,0,0,0,2-1.33,5,5,0,0,0,1.23-1.51h.9Z"/><path class="cls-2" d="M569.29,99.65l1.46-.12a2.65,2.65,0,0,0,.75,1.6,2.07,2.07,0,0,0,1.42.53,2.22,2.22,0,0,0,1.7-.75,2.87,2.87,0,0,0,.69-2,2.59,2.59,0,0,0-.66-1.87,2.33,2.33,0,0,0-1.75-.69,2.45,2.45,0,0,0-1.21.31,2.31,2.31,0,0,0-.85.79l-1.3-.17,1.09-5.81h5.62v1.33h-4.51l-.61,3a3.63,3.63,0,0,1,2.14-.71,3.39,3.39,0,0,1,2.5,1,3.6,3.6,0,0,1,1,2.64,4.08,4.08,0,0,1-.89,2.65,3.56,3.56,0,0,1-3,1.37,3.61,3.61,0,0,1-2.51-.86A3.38,3.38,0,0,1,569.29,99.65Z"/><path class="cls-2" d="M578.07,97a10.53,10.53,0,0,1,.41-3.23,4.07,4.07,0,0,1,1.23-1.88,3.09,3.09,0,0,1,2-.67,3.39,3.39,0,0,1,1.59.37,3,3,0,0,1,1.14,1.06,5.9,5.9,0,0,1,.7,1.68,11.17,11.17,0,0,1,.25,2.67,10.18,10.18,0,0,1-.41,3.21,4.07,4.07,0,0,1-1.22,1.89,3.15,3.15,0,0,1-2,.66,3.11,3.11,0,0,1-2.57-1.17A7.4,7.4,0,0,1,578.07,97Zm1.43,0a7.12,7.12,0,0,0,.65,3.7,1.9,1.9,0,0,0,1.61.92,1.92,1.92,0,0,0,1.6-.92A7,7,0,0,0,584,97a7,7,0,0,0-.66-3.71,1.93,1.93,0,0,0-1.62-.92,1.76,1.76,0,0,0-1.52.81A7.15,7.15,0,0,0,579.5,97Z"/><path class="cls-2" d="M587.31,95.31l-.39-2.15V91.31h1.58v1.85l-.34,2.15Zm2.55,0-.38-2.15V91.31h1.58v1.85l-.37,2.15Z"/><path class="cls-2" d="M593.75,105.93h-1a13.92,13.92,0,0,0,2.3-7.4,12.72,12.72,0,0,0-.33-2.88,12,12,0,0,0-.73-2.22c-.2-.46-.62-1.23-1.24-2.31h1A14.56,14.56,0,0,1,595.89,95a10.37,10.37,0,0,1,.6,3.52,10.48,10.48,0,0,1-.8,4A13.85,13.85,0,0,1,593.75,105.93Z"/><path class="cls-2" d="M779.23,42.14l.18,1.37-8.76,1.17a7.48,7.48,0,0,1,1.12,1.17,8.79,8.79,0,0,1,.9,1.36l-1.33.17a8.37,8.37,0,0,0-1.58-1.84,5,5,0,0,0-1.66-1l-.12-.89Z"/><path class="cls-2" d="M772.11,38.72l-1.57.21-.2-1.57,1.56-.21Zm6.55-.87-1.57.21-.2-1.57,1.56-.21Z"/><path class="cls-2" d="M777.5,29.08l.18,1.38-8.77,1.17A6.67,6.67,0,0,1,770,32.8a9.74,9.74,0,0,1,.91,1.36l-1.33.17A8.4,8.4,0,0,0,768,32.49a5,5,0,0,0-1.66-1l-.11-.89Z"/><path class="cls-2" d="M771.5,26.3a10.34,10.34,0,0,1-3.25,0,4,4,0,0,1-2-1,3.16,3.16,0,0,1-.93-2,3.25,3.25,0,0,1,.16-1.63,3.13,3.13,0,0,1,.89-1.26,5.66,5.66,0,0,1,1.58-.91,10.94,10.94,0,0,1,2.61-.61,10.63,10.63,0,0,1,3.24,0,4.14,4.14,0,0,1,2,1,3.16,3.16,0,0,1,.93,1.95,3.09,3.09,0,0,1-.82,2.7A7.41,7.41,0,0,1,771.5,26.3Zm-.19-1.42a7.07,7.07,0,0,0,3.59-1.13,1.93,1.93,0,0,0,.7-1.72,1.91,1.91,0,0,0-1.13-1.47,10.79,10.79,0,0,0-7.34,1,2,2,0,0,0-.7,1.73,1.8,1.8,0,0,0,1,1.41A7.13,7.13,0,0,0,771.31,24.88Z"/></g><g id="Watermark"><rect class="cls-3" x="435.92" y="258.01" width="123.09" height="46.3"/><rect class="cls-12" x="442.33" y="265.85" width="62.89" height="30.62"/><rect class="cls-12" x="505.22" y="265.85" width="47.39" height="30.62"/><path class="cls-13" d="M464,272l-2.79,18.92h-2.74l-1.55-11-1.53,11H452.6L449.81,272h2.5l1.79,14.17L455.89,272h2l1.79,14.17L461.45,272Z"/><path class="cls-13" d="M465.4,290.87V272h2.53v18.92Z"/><path class="cls-13" d="M470.3,272h5q2.89,0,2.9,3.24v4.66c0,1.65-.5,2.7-1.51,3.14l1.77,7.88H476l-1.66-7.64h-1.53v7.64H470.3Zm2.53,9.11h1.66c.76,0,1.14-.45,1.14-1.37v-4.08c0-.91-.38-1.37-1.14-1.37h-1.66Z"/><path class="cls-13" d="M484.29,274.24v16.63h-2.52V274.24h-2.43V272h7.38v2.29Z"/><path class="cls-13" d="M493.81,290.87v-8.59H490.7v8.59h-2.53V272h2.53v8h3.11v-8h2.53v18.92Z"/><path class="cls-13" d="M513.78,272h5q2.89,0,2.89,3.24v4.66c0,1.65-.5,2.7-1.5,3.14l1.77,7.88h-2.4l-1.66-7.64h-1.53v7.64h-2.53Zm2.53,9.11H518c.76,0,1.13-.45,1.13-1.37v-4.08c0-.91-.37-1.37-1.13-1.37h-1.66Z"/><path class="cls-13" d="M526.14,290.87h-2.53V275.19q0-3.24,3-3.24h1.9q3,0,3,3.24v15.68H529v-6.93h-2.9Zm2.9-9.23v-6.29a1,1,0,0,0-1.11-1.11h-.68a1,1,0,0,0-1.11,1.11v6.29Z"/><path class="cls-13" d="M533.81,290.87V272h2.53v18.92Z"/><path class="cls-13" d="M544.71,290.87h-6V272h2.53v16.62h3.47Z"/></g></svg>