<svg xmlns="http://www.w3.org/2000/svg" viewBox="0 0 1000 800"><defs><style>.cls-1,.cls-7{fill:#f0f0f0;}.cls-2{fill:#221e1f;}.cls-3,.cls-5,.cls-6{fill:none;stroke:#221e1f;stroke-width:0.83px;}.cls-3{stroke-linecap:round;stroke-linejoin:round;}.cls-4{fill:#616161;}.cls-6{stroke-dasharray:5.84 5.84;}.cls-7{stroke:#ccc;stroke-miterlimit:10;}.cls-8{fill:#ccc;}</style></defs><g id="Flat"><path class="cls-1" d="M358.77,120.38c-.52,9.82-4.93,99.12-5,100.38s-.67,6.73,4.62,9.47,49.24,16.56,49.24,16.56,37,12.11,38.56,12.71c4.24,1.59,9.45,4.43,15.26,13.87a27.64,27.64,0,0,1,4,15.75V577.43s-.08,11.31-.13,12.88-.81,11.58-7.59,19-13.15,9.06-16.33,10.28-79.14,26.21-79.14,26.21S316.09,661.5,312,662.44s-8.08,1.71-10.59,2.07-51.26,5-51.26,5L206.61,674a12.19,12.19,0,0,0-8,4.08c-3,3.77-3.68,5.84-3.9,8.53s0,25.72,0,25.72-.63,4.85,2.55,7.85,8.31,2.79,11.14,2.79H792.35s6.37,0,8.66-2.31,3.09-3.64,3.09-9.83V687a12.48,12.48,0,0,0-2.07-6.76c-2.26-3.53-5.42-6-11.86-6.55s-89.76-8.59-94.82-9.46-15.53-4-16.4-4.29L554.3,618.44s-5.46-2-8.62-4.73-7.89-8-9.35-11.82-2.58-6.59-2.58-10.92-.18-30.38-.18-30.38V288.75s.29-7.46,2.22-11.86,6-10,7.56-11.32,6.48-5.27,10.77-6.59,37.26-12.36,37.26-12.36,47.4-15.61,48.53-16.05a10.32,10.32,0,0,0,3.64-3,8.94,8.94,0,0,0,1.74-5.13c0-2.08-1.45-28.56-1.45-28.56l-1-19.83-2.07-40.71s-.22-8-.73-12.7a61,61,0,0,0-3-13.28,90.2,90.2,0,0,0-10.88-18.33c-4.37-5.28-15.68-13.87-22.3-16.09a121.26,121.26,0,0,0-29.36-6.25C560.85,65.47,533,64.2,533,64.2s-29.87-.66-33.51-.66-35.22.51-39.4.84-20.52,1-25.14,1.38-27.76,3.38-31.47,4.37-13.57,4-21.76,10.29S364.32,99.56,362.1,107s-3.09,8.94-3.33,13.4"/><path class="cls-2" d="M358.77,120.38l-.59,0c-.53,9.82-4.93,99.14-5,100.37,0,.26-.07.77-.07,1.4a10.69,10.69,0,0,0,.84,4.3,8.83,8.83,0,0,0,4.17,4.34c1.41.72,5.13,2.09,10,3.77,14.6,5.05,39.32,12.83,39.32,12.83l.18-.57-.18.57,5.8,1.9c5.24,1.71,13.13,4.3,19.86,6.52l8.74,2.89c2.31.76,3.87,1.28,4.13,1.38,4.16,1.58,9.19,4.28,15,13.63a26.87,26.87,0,0,1,3.9,15.34V577.43h0s0,2.83-.05,5.85-.06,6.25-.08,7c0,1.49-.82,11.4-7.43,18.61s-12.88,8.89-16.12,10.12c-.75.29-6.12,2.09-13.68,4.6-11.35,3.77-27.71,9.17-41.23,13.63l-17.16,5.66-7,2.32h0l-7.27,2.47c-6.59,2.23-16.56,5.6-25.28,8.5-4.35,1.44-8.4,2.78-11.54,3.79s-5.41,1.71-6.12,1.87c-4.12.94-8.06,1.7-10.55,2.06-.59.08-4.13.44-9,.93-7.39.72-17.93,1.74-26.64,2.57l-11,1.05-4.51.43h0l-43.49,4.49.06.59,0-.59a12.7,12.7,0,0,0-8.37,4.3,20.59,20.59,0,0,0-3.09,4.81,12.16,12.16,0,0,0-.94,4c-.09,1.1-.11,5.12-.11,9.71,0,7.34.06,16.06.06,16.06h.6l-.59-.08a7.26,7.26,0,0,0-.06,1.09,10,10,0,0,0,2.8,7.27c3,2.82,7.39,2.94,10.33,2.95H792.35a25.71,25.71,0,0,0,3.56-.3c1.93-.31,4.17-.86,5.52-2.18a9.42,9.42,0,0,0,2.54-3.68,20.24,20.24,0,0,0,.72-6.57V687h-.59l.59,0v-.22a13.37,13.37,0,0,0-2.17-6.9,13.77,13.77,0,0,0-4.56-4.58,17.48,17.48,0,0,0-7.75-2.24c-3.21-.27-25.66-2.42-47.92-4.61-11.13-1.09-22.22-2.2-30.84-3.08s-14.8-1.56-16-1.77c-5-.85-15.5-4-16.32-4.27L554.49,617.88l-.19.56.2-.56-.88-.34a29.64,29.64,0,0,1-7.55-4.28c-3.11-2.7-7.82-8-9.19-11.59-1.46-3.8-2.54-6.48-2.54-10.7s-.18-30.38-.18-30.38h0V288.75h-.59l.59,0s0-.45.07-1.21c.17-2.28.71-7.28,2.1-10.44a43.1,43.1,0,0,1,3.86-6.7,28.93,28.93,0,0,1,3.55-4.4c1.52-1.32,6.44-5.22,10.56-6.47,4.31-1.32,37.26-12.37,37.27-12.37h0l23.85-7.86,16.63-5.5,5.65-1.87c1.41-.47,2.25-.76,2.43-.83a10.68,10.68,0,0,0,3.9-3.18,9.48,9.48,0,0,0,1.87-5.48c0-1.09-.37-8.2-.73-15.09s-.73-13.5-.73-13.5l-1-19.83-2.07-40.71-.59,0,.59,0s-.22-8-.73-12.74a61.31,61.31,0,0,0-3-13.43,90.11,90.11,0,0,0-11-18.5,63,63,0,0,0-10.42-9.29c-4.23-3.1-8.73-5.83-12.16-7a121.66,121.66,0,0,0-29.49-6.28C560.88,64.88,533,63.61,533,63.61h0S503.1,63,499.44,63c-1.83,0-10.63.13-19.51.29s-17.8.38-19.94.55c-4.16.32-20.49,1-25.14,1.38-2.34.2-9.27,1-16.11,2-3.41.46-6.8.94-9.57,1.36s-4.9.79-5.89,1c-3.76,1-13.67,4.06-22,10.4a65.24,65.24,0,0,0-12.14,13c-3.62,5-6.49,10.06-7.64,13.89s-1.88,5.93-2.41,7.82a24.25,24.25,0,0,0-.94,5.72l.59,0,.59,0a23.16,23.16,0,0,1,.9-5.47c.52-1.84,1.29-4.08,2.41-7.8s3.89-8.65,7.46-13.54A64.49,64.49,0,0,1,382,80.89c8.08-6.17,17.88-9.22,21.55-10.19.87-.23,3-.61,5.77-1,8.27-1.27,22.17-3,25.6-3.32,4.59-.4,20.92-1,25.14-1.38,2-.16,11-.37,19.86-.54s17.68-.3,19.49-.3,10.19.17,18.11.33l10.66.23,4.72.1,0-.59,0,.59,4.57.22c8.49.41,26.74,1.36,37,2.29a120,120,0,0,1,29.23,6.23c3.2,1.06,7.66,3.74,11.83,6.81a62.31,62.31,0,0,1,10.2,9.08,89.29,89.29,0,0,1,10.78,18.17,59.86,59.86,0,0,1,2.95,13.14c.25,2.32.43,5.49.55,8.07s.18,4.57.18,4.57h0l2.07,40.72,1,19.83s.09,1.66.22,4.17c.21,3.77.52,9.48.77,14.44s.46,9.19.46,9.92a8.33,8.33,0,0,1-1.62,4.77A9.93,9.93,0,0,1,639.7,230l-2.39.8c-4.91,1.64-16.44,5.45-26.74,8.85L597,244.14l-5.83,1.91h0L586,247.8c-9.47,3.17-28.83,9.64-32,10.62-4.47,1.37-9.38,5.33-11,6.7a28.79,28.79,0,0,0-3.75,4.62,44.63,44.63,0,0,0-4,6.91,30.61,30.61,0,0,0-1.88,7.74c-.31,2.44-.39,4.32-.39,4.33h0V560.59h0s0,1.62,0,4.13c0,7.53.15,23,.15,26.24,0,4.44,1.18,7.36,2.63,11.13,1.54,4,6.29,9.23,9.51,12.06s8.78,4.82,8.81,4.84h0l5.32,1.77,119.32,39.71c.92.3,11.36,3.42,16.49,4.31,1.33.23,7.45.89,16.09,1.78,25.87,2.65,73.93,7.28,78.78,7.69a16.52,16.52,0,0,1,7.24,2.07,12.53,12.53,0,0,1,4.17,4.21,12.12,12.12,0,0,1,2,6.26V687h0v23.83a19.44,19.44,0,0,1-.66,6.18,8.12,8.12,0,0,1-2.26,3.23c-.94,1-3,1.58-4.86,1.85-.92.14-1.77.21-2.38.25l-1,0H207.2c-2.9,0-7-.2-9.52-2.63a8.83,8.83,0,0,1-2.42-6.41c0-.29,0-.53,0-.7l0-.18v-.14s0-2.17,0-5.27,0-7.11,0-10.78c0-4.57,0-8.64.11-9.61a11.08,11.08,0,0,1,.85-3.68,19.42,19.42,0,0,1,2.93-4.53,10.58,10.58,0,0,1,4.85-3.26,11.43,11.43,0,0,1,1.92-.5l.56-.08.19,0h0l43.51-4.49h0l24.69-2.36,17.5-1.69c4.93-.49,8.43-.84,9.1-.94,2.54-.36,6.5-1.13,10.64-2.07,1.1-.25,4.73-1.41,9.65-3,14.73-4.82,40.68-13.66,40.68-13.66l-.19-.56.19.56,38.37-12.65c9.69-3.2,19.48-6.44,27-9s12.9-4.29,13.74-4.61c3.13-1.19,9.7-2.92,16.56-10.43s7.69-17.72,7.74-19.37.14-12.89.14-12.9h0V289a28.07,28.07,0,0,0-4.09-16c-5.85-9.53-11.23-12.5-15.55-14.12-.44-.16-3-1-6.72-2.24-11.07-3.66-31.86-10.47-31.86-10.47h0l-7-2.2c-6.3-2-15.88-5.09-24.37-7.92-4.25-1.41-8.23-2.76-11.39-3.89s-5.51-2-6.44-2.52A7.62,7.62,0,0,1,355,226a9.58,9.58,0,0,1-.74-3.83c0-.58,0-1,.06-1.32.09-1.28,4.5-90.56,5-100.38Z"/><path class="cls-2" d="M668,414.73h32.53a.41.41,0,0,0,.42-.41.42.42,0,0,0-.42-.42H668a.42.42,0,0,0-.42.42.41.41,0,0,0,.42.41m-23.1,0H656.4a.41.41,0,0,0,.41-.41.41.41,0,0,0-.41-.42H644.85a.41.41,0,0,0-.41.42.41.41,0,0,0,.41.41m-69.29,0H633.3a.41.41,0,0,0,.42-.41.42.42,0,0,0-.42-.42H575.56a.41.41,0,0,0-.41.42.41.41,0,0,0,.41.41m-23.1,0H564a.41.41,0,0,0,.42-.41.42.42,0,0,0-.42-.42H552.46a.42.42,0,0,0-.41.42.41.41,0,0,0,.41.41m-69.28,0h57.74a.41.41,0,0,0,.41-.41.41.41,0,0,0-.41-.42H483.18a.42.42,0,0,0-.42.42.41.41,0,0,0,.42.41m-23.1,0h11.55a.41.41,0,0,0,.41-.41.41.41,0,0,0-.41-.42H460.08a.41.41,0,0,0-.41.42.41.41,0,0,0,.41.41m-69.29,0h57.74a.41.41,0,0,0,.42-.41.42.42,0,0,0-.42-.42H390.79a.41.41,0,0,0-.41.42.41.41,0,0,0,.41.41m-23.09,0h11.54a.42.42,0,0,0,.42-.42.42.42,0,0,0-.42-.41H367.7a.42.42,0,0,0-.42.41.42.42,0,0,0,.42.42m-69.29,0h57.74a.42.42,0,0,0,0-.83H298.41a.42.42,0,0,0-.42.41.42.42,0,0,0,.42.42"/><path class="cls-2" d="M791.18,674.29l53.58.49a.42.42,0,1,0,0-.83l-53.57-.49a.42.42,0,1,0,0,.83"/><path class="cls-2" d="M828.93,713.43v1.45h-9.22a7.26,7.26,0,0,1,1,1.37,10.55,10.55,0,0,1,.75,1.52h-1.4a9,9,0,0,0-1.38-2.12,5.45,5.45,0,0,0-1.58-1.28v-.94Z"/><path class="cls-2" d="M823.12,709.73a10.68,10.68,0,0,1-3.36-.43,4.18,4.18,0,0,1-2-1.28,3.26,3.26,0,0,1-.69-2.13,3.55,3.55,0,0,1,.38-1.67,3.26,3.26,0,0,1,1.1-1.18,6.05,6.05,0,0,1,1.76-.73,11.34,11.34,0,0,1,2.78-.27,11,11,0,0,1,3.35.43,4.17,4.17,0,0,1,2,1.27,3.3,3.3,0,0,1,.69,2.15,3.2,3.2,0,0,1-1.22,2.67C826.93,709.34,825.33,709.73,823.12,709.73Zm0-1.49c1.94,0,3.22-.22,3.86-.68a1.94,1.94,0,0,0,0-3.35,11.32,11.32,0,0,0-7.73,0,2,2,0,0,0-1,1.69,1.84,1.84,0,0,0,.84,1.59A7.47,7.47,0,0,0,823.12,708.24Z"/><path class="cls-2" d="M828.93,699.76h-1.64v-1.65h1.64Z"/><path class="cls-2" d="M825.85,696l-.13-1.52a2.73,2.73,0,0,0,1.67-.78,2.15,2.15,0,0,0,.55-1.49,2.31,2.31,0,0,0-.78-1.76,3,3,0,0,0-2.09-.73,2.67,2.67,0,0,0-2,.7,2.67,2.67,0,0,0-.39,3.08,2.32,2.32,0,0,0,.82.88l-.18,1.36-6.05-1.14v-5.86h1.38v4.7l3.17.64a3.87,3.87,0,0,1-.74-2.23,3.52,3.52,0,0,1,1.07-2.6,3.72,3.72,0,0,1,2.75-1.06,4.28,4.28,0,0,1,2.76.93,3.71,3.71,0,0,1,1.43,3.09,3.82,3.82,0,0,1-.9,2.63A3.5,3.5,0,0,1,825.85,696Z"/><path class="cls-2" d="M823.12,686.84a10.68,10.68,0,0,1-3.36-.43,4.11,4.11,0,0,1-2-1.28,3.24,3.24,0,0,1-.69-2.13,3.51,3.51,0,0,1,.38-1.66,3.18,3.18,0,0,1,1.1-1.18,5.8,5.8,0,0,1,1.76-.74,11.94,11.94,0,0,1,2.78-.26,10.65,10.65,0,0,1,3.35.43,4.1,4.1,0,0,1,2,1.27,3.27,3.27,0,0,1,.69,2.14,3.22,3.22,0,0,1-1.22,2.68C826.93,686.46,825.33,686.84,823.12,686.84Zm0-1.48a7.39,7.39,0,0,0,3.86-.68,1.94,1.94,0,0,0,0-3.35c-.64-.46-1.93-.68-3.86-.68s-3.23.22-3.87.68a2,2,0,0,0-1,1.69,1.86,1.86,0,0,0,.84,1.59A7.47,7.47,0,0,0,823.12,685.36Z"/><rect class="cls-2" x="194.41" y="712.59" width="0.83" height="73.71"/><path class="cls-2" d="M803.64,713V786.3a.41.41,0,0,0,.42.41.41.41,0,0,0,.41-.41V713a.41.41,0,0,0-.41-.42.42.42,0,0,0-.42.42"/><path class="cls-2" d="M491.86,769.26h-1.44V760a7.72,7.72,0,0,1-1.37,1,10.6,10.6,0,0,1-1.53.75v-1.4a8.62,8.62,0,0,0,2.12-1.38,5.34,5.34,0,0,0,1.29-1.58h.93Z"/><path class="cls-2" d="M495.58,766.14,497,766a3.19,3.19,0,0,0,.85,1.77,2.07,2.07,0,0,0,1.46.55,2.36,2.36,0,0,0,1.73-.71,2.42,2.42,0,0,0,.7-1.75,2.24,2.24,0,0,0-.65-1.65,2.27,2.27,0,0,0-1.66-.64,4.05,4.05,0,0,0-1,.16l.16-1.27h.24a3,3,0,0,0,1.66-.48,1.66,1.66,0,0,0,.74-1.49,1.76,1.76,0,0,0-.54-1.32,1.94,1.94,0,0,0-1.39-.52,2,2,0,0,0-1.41.53,2.74,2.74,0,0,0-.72,1.59l-1.45-.25a3.76,3.76,0,0,1,1.21-2.26,3.5,3.5,0,0,1,2.34-.8,3.79,3.79,0,0,1,1.77.42,3,3,0,0,1,1.25,1.13,2.94,2.94,0,0,1,.43,1.52,2.54,2.54,0,0,1-.41,1.39,2.83,2.83,0,0,1-1.22,1,2.78,2.78,0,0,1,1.63,1,3.08,3.08,0,0,1,.57,1.9,3.47,3.47,0,0,1-1.12,2.62,3.94,3.94,0,0,1-2.85,1.07,3.67,3.67,0,0,1-2.57-.92A3.52,3.52,0,0,1,495.58,766.14Z"/><path class="cls-2" d="M509.36,769.26v-2.83h-5.11v-1.32l5.38-7.64h1.18v7.64h1.59v1.32h-1.59v2.83Zm0-4.15v-5.32l-3.69,5.32Z"/><path class="cls-2" d="M499.44,600.5H877.76a.41.41,0,0,0,.42-.41.42.42,0,0,0-.42-.42H499.44a.42.42,0,0,0,0,.83"/><path class="cls-2" d="M867.22,661.4h1.39v7.79a2.63,2.63,0,0,1-1-.17,5.36,5.36,0,0,1-1.57-.95,15.43,15.43,0,0,1-1.78-1.89,15.42,15.42,0,0,0-2.5-2.6,3,3,0,0,0-1.74-.68,1.94,1.94,0,0,0-1.45.62,2.22,2.22,0,0,0-.59,1.6,2.27,2.27,0,0,0,.63,1.68,2.35,2.35,0,0,0,1.73.63l-.15,1.49a3.7,3.7,0,0,1-2.54-1.15,4,4,0,0,1-.87-2.68,3.74,3.74,0,0,1,.94-2.68,3.1,3.1,0,0,1,2.33-1,3.4,3.4,0,0,1,1.39.29,5.15,5.15,0,0,1,1.44,1A21.73,21.73,0,0,1,865,664.9c.73.87,1.22,1.42,1.48,1.67a4.62,4.62,0,0,0,.78.61Z"/><path class="cls-2" d="M858.37,659.75H857v-7.62h1.13a16.34,16.34,0,0,0,3.18,2.23,19.78,19.78,0,0,0,4.09,1.7,15,15,0,0,0,3.23.56v1.49a14.71,14.71,0,0,1-3.36-.55,17.8,17.8,0,0,1-3.79-1.5,16.13,16.13,0,0,1-3.09-2.08Z"/><path class="cls-2" d="M506.93,484.55h-1.45v-9.22a7,7,0,0,1-1.37,1,10.06,10.06,0,0,1-1.52.75v-1.4a8.81,8.81,0,0,0,2.12-1.38,5.5,5.5,0,0,0,1.29-1.58h.93Z"/><path class="cls-2" d="M510.63,481.47l1.52-.13a2.79,2.79,0,0,0,.79,1.67,2.13,2.13,0,0,0,1.48.56,2.32,2.32,0,0,0,1.77-.79,3,3,0,0,0,.72-2.09,2.71,2.71,0,0,0-.69-2,2.68,2.68,0,0,0-3.09-.39,2.4,2.4,0,0,0-.88.82l-1.36-.18,1.14-6.05h5.86v1.38h-4.7l-.63,3.17a3.81,3.81,0,0,1,2.22-.74,3.55,3.55,0,0,1,2.61,1.07,3.76,3.76,0,0,1,1.06,2.75,4.26,4.26,0,0,1-.93,2.76,3.73,3.73,0,0,1-3.1,1.43,3.79,3.79,0,0,1-2.62-.9A3.51,3.51,0,0,1,510.63,481.47Z"/><path class="cls-2" d="M358.92,120.07V7a.41.41,0,0,0-.42-.41.41.41,0,0,0-.41.41v113a.41.41,0,0,0,.41.41.41.41,0,0,0,.42-.41"/><path class="cls-2" d="M640.4,120.07V7a.42.42,0,0,0-.83,0v113a.42.42,0,0,0,.83,0"/><polygon class="cls-2" points="436.32 65.79 439.67 80.61 435.06 80.93 436.32 65.79"/><path class="cls-2" d="M504,64H912.16a.41.41,0,0,0,.41-.42.41.41,0,0,0-.41-.41H504a.41.41,0,0,0,0,.82"/><path class="cls-2" d="M504,64H877.77a.42.42,0,0,0,.41-.42.41.41,0,0,0-.41-.41H504a.41.41,0,0,0,0,.82"/><path class="cls-2" d="M499.44,277.7H877.76a.41.41,0,0,0,.42-.41.42.42,0,0,0-.42-.42H499.44a.42.42,0,0,0,0,.83"/><path class="cls-2" d="M868.62,173.47h-2.83v5.11h-1.32l-7.64-5.38V172h7.64v-1.59h1.32V172h2.83Zm-4.15,0h-5.31l5.31,3.69Z"/><path class="cls-2" d="M858.38,168.85H857v-7.62h1.13a16.34,16.34,0,0,0,3.18,2.23,19.78,19.78,0,0,0,4.09,1.7,15,15,0,0,0,3.24.56v1.49a14.54,14.54,0,0,1-3.36-.55,17.68,17.68,0,0,1-3.8-1.5,15.73,15.73,0,0,1-3.08-2.08Z"/><rect class="cls-2" x="157.44" y="722.42" width="51.03" height="0.83"/><line class="cls-3" x1="293.86" y1="414.32" x2="157.44" y2="414.32"/><path class="cls-2" d="M146.94,565.94l.11,1.44a2.82,2.82,0,0,0-1.24.54,1.94,1.94,0,0,0-.61,1.45,2,2,0,0,0,.38,1.22,3.3,3.3,0,0,0,1.46,1.07,7.36,7.36,0,0,0,2.72.41,3.35,3.35,0,0,1-1.18-1.28,3.39,3.39,0,0,1-.39-1.58,3.29,3.29,0,0,1,1.07-2.46,3.82,3.82,0,0,1,2.75-1,4.49,4.49,0,0,1,2.06.48,3.46,3.46,0,0,1,1.46,1.31,3.58,3.58,0,0,1,.51,1.9,3.69,3.69,0,0,1-1.33,3,6.74,6.74,0,0,1-4.39,1.14c-2.27,0-3.93-.42-5-1.26a3.64,3.64,0,0,1-1.35-3,3.36,3.36,0,0,1,.78-2.28A3.31,3.31,0,0,1,146.94,565.94Zm5.08,5.91a3.36,3.36,0,0,0,1.43-.32,2.34,2.34,0,0,0,1-.89,2.21,2.21,0,0,0,.36-1.2,2,2,0,0,0-.74-1.57,2.9,2.9,0,0,0-2-.66,2.72,2.72,0,0,0-1.92.65,2.13,2.13,0,0,0-.71,1.64,2.22,2.22,0,0,0,.71,1.66A2.5,2.5,0,0,0,152,571.85Z"/><path class="cls-2" d="M145.6,564.2h-1.39v-7.63h1.12a16.14,16.14,0,0,0,3.19,2.23,20.07,20.07,0,0,0,4.08,1.71,15,15,0,0,0,3.24.55v1.49a14.54,14.54,0,0,1-3.36-.55,17.88,17.88,0,0,1-3.8-1.5,15.73,15.73,0,0,1-3.08-2.08Z"/><path class="cls-2" d="M155.84,554.32h-1.65v-1.64h1.65Z"/><path class="cls-2" d="M149.45,548.34a2.76,2.76,0,0,1-.94,1.33,2.48,2.48,0,0,1-1.47.43,2.86,2.86,0,0,1-2.16-.92,3.46,3.46,0,0,1-.87-2.46,3.41,3.41,0,0,1,.89-2.48,2.9,2.9,0,0,1,2.18-.94,2.37,2.37,0,0,1,1.43.43,2.65,2.65,0,0,1,.94,1.3,3,3,0,0,1,3-2.22,3.4,3.4,0,0,1,2.54,1.07,4.36,4.36,0,0,1,0,5.63,3.46,3.46,0,0,1-2.58,1.07,3.18,3.18,0,0,1-1.93-.58A3,3,0,0,1,149.45,548.34Zm-2.45.29a1.82,1.82,0,0,0,1.36-.54,1.89,1.89,0,0,0,.53-1.4,1.85,1.85,0,0,0-.52-1.37,1.73,1.73,0,0,0-1.29-.54,1.83,1.83,0,0,0-1.34.55,2,2,0,0,0,0,2.75A1.71,1.71,0,0,0,147,548.63Zm5.44.46a2.72,2.72,0,0,0,1.2-.29,2.13,2.13,0,0,0,.89-.87,2.61,2.61,0,0,0,.32-1.25,2.31,2.31,0,0,0-.67-1.71,2.46,2.46,0,0,0-3.42,0,2.36,2.36,0,0,0-.69,1.74,2.31,2.31,0,0,0,2.37,2.36Z"/><path class="cls-2" d="M146.94,533.9l.11,1.44a2.82,2.82,0,0,0-1.24.54,2.07,2.07,0,0,0-.23,2.66,3.24,3.24,0,0,0,1.46,1.08,7.58,7.58,0,0,0,2.72.41,3.35,3.35,0,0,1-1.18-1.28,3.39,3.39,0,0,1-.39-1.58,3.27,3.27,0,0,1,1.07-2.46,3.82,3.82,0,0,1,2.75-1,4.49,4.49,0,0,1,2.06.48,3.4,3.4,0,0,1,1.46,1.31,3.58,3.58,0,0,1,.51,1.9,3.7,3.7,0,0,1-1.33,3,6.74,6.74,0,0,1-4.39,1.14c-2.27,0-3.93-.42-5-1.26a3.64,3.64,0,0,1-1.35-3,3.15,3.15,0,0,1,2.93-3.34Zm5.08,5.91a3.36,3.36,0,0,0,1.43-.32,2.34,2.34,0,0,0,1-.89,2.21,2.21,0,0,0,.36-1.2,2,2,0,0,0-.74-1.57,2.9,2.9,0,0,0-2-.66,2.68,2.68,0,0,0-1.92.65,2.13,2.13,0,0,0-.71,1.64,2.22,2.22,0,0,0,.71,1.66A2.5,2.5,0,0,0,152,539.81Z"/><path class="cls-2" d="M504,64H842.46a.42.42,0,0,0,.41-.42.41.41,0,0,0-.41-.41H504a.41.41,0,0,0,0,.82"/><path class="cls-2" d="M640.39,125H842.45a.42.42,0,1,0,0-.83H640.39a.41.41,0,0,0-.42.41.42.42,0,0,0,.42.42"/><path class="cls-2" d="M830.23,111.46v1.45H821a7.72,7.72,0,0,1,1,1.37,8.8,8.8,0,0,1,.75,1.52h-1.4a9,9,0,0,0-1.38-2.12,5.45,5.45,0,0,0-1.58-1.28v-.94Z"/><path class="cls-2" d="M827.12,107.75l-.2-1.45a3.2,3.2,0,0,0,1.78-.85,2.07,2.07,0,0,0,.54-1.45,2.41,2.41,0,0,0-2.46-2.43,2.22,2.22,0,0,0-2.29,2.31,4.05,4.05,0,0,0,.16,1l-1.27-.16a2.27,2.27,0,0,0,0-.24,3,3,0,0,0-.48-1.66,1.64,1.64,0,0,0-1.48-.74,1.75,1.75,0,0,0-1.32.54,1.91,1.91,0,0,0-.53,1.39,1.93,1.93,0,0,0,.54,1.4,2.63,2.63,0,0,0,1.59.73l-.26,1.45a3.76,3.76,0,0,1-2.26-1.21,3.51,3.51,0,0,1-.8-2.34,3.83,3.83,0,0,1,.42-1.78,3,3,0,0,1,2.65-1.67,2.51,2.51,0,0,1,1.39.41,2.85,2.85,0,0,1,1,1.22,2.73,2.73,0,0,1,1-1.63,3.07,3.07,0,0,1,1.9-.58,3.46,3.46,0,0,1,2.61,1.13,3.94,3.94,0,0,1,1.08,2.84,3.68,3.68,0,0,1-.93,2.58A3.58,3.58,0,0,1,827.12,107.75Z"/><path class="cls-2" d="M830.23,97.79h-1.65V96.14h1.65Z"/><path class="cls-2" d="M830.23,89.39h-2.82V94.5h-1.33l-7.64-5.37V87.94h7.64V86.35h1.33v1.59h2.82Zm-4.15,0h-5.31l5.31,3.69Z"/><path class="cls-2" d="M828.84,77.27h1.39v7.79a2.65,2.65,0,0,1-1-.17,5.41,5.41,0,0,1-1.56-1,14.88,14.88,0,0,1-1.79-1.9,15.66,15.66,0,0,0-2.5-2.59,3,3,0,0,0-1.74-.68,2,2,0,0,0-1.45.62,2.22,2.22,0,0,0-.59,1.6,2.25,2.25,0,0,0,.63,1.67,2.4,2.4,0,0,0,1.74.64l-.16,1.48a3.61,3.61,0,0,1-2.53-1.15,3.91,3.91,0,0,1-.88-2.67,3.74,3.74,0,0,1,1-2.69,3.07,3.07,0,0,1,2.33-1,3.61,3.61,0,0,1,1.39.29,6,6,0,0,1,1.44,1,24.84,24.84,0,0,1,2.07,2.24c.73.86,1.22,1.42,1.48,1.67a4.79,4.79,0,0,0,.79.61Z"/><path class="cls-2" d="M393.75,234.88l-1.4-.37,2.38-8.91a6.86,6.86,0,0,1-1.59.61,8.8,8.8,0,0,1-1.66.33l.36-1.35a8.75,8.75,0,0,0,2.41-.79,5.4,5.4,0,0,0,1.65-1.19l.9.24Z"/><path class="cls-2" d="M398.1,236.05l.43-1.59,1.59.42-.42,1.59Zm1.78-6.66.43-1.59,1.59.42-.43,1.6Z"/><path class="cls-2" d="M402.56,234l1.45.18a3.06,3.06,0,0,0,.36,1.93,2,2,0,0,0,1.27.9,2.31,2.31,0,0,0,1.85-.24,2.37,2.37,0,0,0,1.13-1.51,2.21,2.21,0,0,0-.21-1.75,2.27,2.27,0,0,0-1.43-1.06,4.21,4.21,0,0,0-1-.1l.48-1.19.22.08a3,3,0,0,0,1.74,0,1.63,1.63,0,0,0,1.09-1.25,1.73,1.73,0,0,0-.18-1.41,1.87,1.87,0,0,0-1.2-.86,1.93,1.93,0,0,0-1.5.15,2.66,2.66,0,0,0-1.11,1.35l-1.33-.62a3.72,3.72,0,0,1,1.74-1.87,3.52,3.52,0,0,1,2.47-.17,3.86,3.86,0,0,1,1.61.86,3,3,0,0,1,.91,1.41,2.93,2.93,0,0,1,0,1.58,2.53,2.53,0,0,1-.75,1.24,2.83,2.83,0,0,1-1.43.65,2.7,2.7,0,0,1,1.31,1.38,3,3,0,0,1,.07,2,3.51,3.51,0,0,1-1.76,2.24,4,4,0,0,1-3,.3,3.72,3.72,0,0,1-2.25-1.56A3.56,3.56,0,0,1,402.56,234Z"/><path class="cls-2" d="M295.9,409.08l4.56-6.14-4-5.65h1.86l2.14,3c.44.62.76,1.11.95,1.44a14.93,14.93,0,0,1,.93-1.34l2.37-3.13h1.69l-4.13,5.56,4.46,6.23h-1.93l-3-4.21q-.26-.36-.51-.78c-.27.43-.45.72-.57.88l-3,4.11Z"/><path class="cls-2" d="M306.88,409.08l4.56-6.14-4-5.65h1.86l2.14,3c.44.62.76,1.11.95,1.44a14.93,14.93,0,0,1,.93-1.34l2.37-3.13h1.7l-4.14,5.56,4.46,6.23h-1.93l-3-4.21c-.16-.24-.34-.5-.51-.78-.27.43-.45.72-.57.88l-2.95,4.11Z"/><path class="cls-2" d="M348.14,193.6,348,195l-9.2-.71a7.18,7.18,0,0,1,.89,1.44,9.56,9.56,0,0,1,.63,1.58l-1.4-.11a8.44,8.44,0,0,0-1.21-2.22,5.33,5.33,0,0,0-1.47-1.41l.07-.93Z"/><path class="cls-2" d="M341.62,188.57l-1.64-.13.12-1.64,1.65.13Zm6.87.53-1.65-.12.13-1.65,1.64.13Z"/><path class="cls-2" d="M348,177.65l1.39.11-.6,7.77a2.58,2.58,0,0,1-1-.25,5.17,5.17,0,0,1-1.49-1.07,14.76,14.76,0,0,1-1.64-2,16.26,16.26,0,0,0-2.28-2.79,3.11,3.11,0,0,0-1.68-.81,2,2,0,0,0-1.5.51,2.2,2.2,0,0,0-.71,1.55,2.24,2.24,0,0,0,.49,1.71,2.38,2.38,0,0,0,1.68.77l-.26,1.47a3.62,3.62,0,0,1-2.44-1.34,3.9,3.9,0,0,1-.66-2.74,3.73,3.73,0,0,1,1.14-2.6,3.1,3.1,0,0,1,2.4-.81,3.59,3.59,0,0,1,1.37.4,5.61,5.61,0,0,1,1.36,1.07,23.93,23.93,0,0,1,1.89,2.39c.66.92,1.11,1.51,1.35,1.78a5,5,0,0,0,.73.67Z"/><path class="cls-2" d="M343.69,175.77a10.92,10.92,0,0,1-3.32-.69,4.22,4.22,0,0,1-1.86-1.43,3.21,3.21,0,0,1-.52-2.18,3.52,3.52,0,0,1,.51-1.63,3.14,3.14,0,0,1,1.19-1.09,5.86,5.86,0,0,1,1.8-.59,11.31,11.31,0,0,1,2.8,0,10.87,10.87,0,0,1,3.3.68,4.2,4.2,0,0,1,1.87,1.43,3.28,3.28,0,0,1,.52,2.19,3.21,3.21,0,0,1-1.42,2.57Q347,176,343.69,175.77Zm.12-1.48a7.38,7.38,0,0,0,3.9-.38,1.94,1.94,0,0,0,.26-3.34,11.3,11.3,0,0,0-7.71-.6,2,2,0,0,0-1.08,1.61,1.86,1.86,0,0,0,.72,1.65A7.37,7.37,0,0,0,343.81,174.29Z"/><path class="cls-1" d="M429.85,65.72q-11.44,1.05-22.78,3.07v0l2.09-.33c2.77-.43,6.16-.9,9.57-1.36,4-.54,8-1,11.11-1.42"/><path class="cls-1" d="M435.94,66.27l-1,.08c-1,.08-2.74.28-5,.55,2-.18,4-.35,6-.49Z"/><path class="cls-2" d="M435.87,65.23q-3,.21-6,.49c-3.12.37-7.13.88-11.11,1.42-3.41.46-6.8.93-9.57,1.36l-2.09.33.1.55.1.58Q418.56,68,430,66.9c2.24-.27,4-.47,5-.55l1-.08,0-.45Z"/><path class="cls-1" d="M499.44,64.19q-3.69,0-7.38,0L480,64.43l-5.92.12q-14.5.4-29,1.27H552.94c-6-.34-11.7-.63-15.45-.81l-2.13-.11-4-.14-3.2-.07-10.66-.23-12.92-.25-5.19,0"/><path class="cls-4" d="M535.36,64.9l2.13.11c3.75.18,9.42.47,15.45.81h.9q-9.24-.55-18.48-.92m-43.3-.68q-9,.07-18,.33l5.93-.12,12.1-.21m12.57,0,12.92.25,10.66.23,3.2.07q-13.38-.48-26.78-.55"/><path class="cls-1" d="M542.25,64h-.84c5.94.3,14.14.74,21.61,1.23v0q-10.38-.72-20.77-1.21m-50.2-1q-9,.08-18.06.32l5.94-.12,12.12-.2m12.59,0,8.48.17h4.32q-6.41-.13-12.8-.17"/><path class="cls-1" d="M436.28,66.25l-.34,0v.14l.32,0Zm95.13-1.49,4,.14-2.43-.11-1.52,0M474,64.55c-6.62.14-12.36.29-13.95.42-3.83.3-17.76.87-23.66,1.27l0,.14c2.87-.2,5.73-.39,8.6-.56q14.47-.87,29-1.27m25.41-.42h0c-.93,0-3.7,0-7.38.09q3.69,0,7.39,0l5.18,0c-2.53,0-4.43-.08-5.19-.08"/><path class="cls-2" d="M499.44,63l-7.39,0-12.12.2-5.94.12q-19.08.54-38.12,1.87l0,.59,0,.45.34,0,0-.46.1.45c5.9-.4,19.83-1,23.67-1.27,1.58-.13,7.32-.28,13.94-.42q9-.26,18-.33c3.68,0,6.45-.09,7.38-.09h0c.76,0,2.66,0,5.19.08q13.39.08,26.78.55l1.52,0,2.43.11q9.24.38,18.48.92c3,.18,6.07.38,9.1.59l0-.59,0-.57c-7.47-.49-15.67-.93-21.61-1.23H504a.41.41,0,0,1-.41-.42.41.41,0,0,1,.41-.41h9.13L504.64,63h-5.2"/><path class="cls-2" d="M436.32,65.79l0,.46v.14h.18l0-.14Z"/><path class="cls-2" d="M517.44,63.19H504a.41.41,0,0,0,0,.82h38.26q-12.4-.57-24.81-.82"/><path class="cls-1" d="M590.53,68.57l1.27.29v-.07l-1.28-.22M563,65.23h0v0l2.33.16L563,65.23"/><path class="cls-1" d="M565.26,66.59q12.6,1,25,3.14a122.18,122.18,0,0,0-15.86-2.43c-2.63-.24-5.79-.48-9.18-.71"/><path class="cls-2" d="M563,65.25l0,.57,0,.59c.77.06,1.55.11,2.32.18,3.39.23,6.56.47,9.18.71a124.39,124.39,0,0,1,15.87,2.43l1.3.23.19-1.1-1.27-.29Q578,66.4,565.35,65.4L563,65.25"/><path class="cls-1" d="M592.47,70.23l47.23,53.61c-.08-1.12-.17-2.18-.27-3.11-.16-1.48-.39-3-.68-4.55a58,58,0,0,0-3.28-10.88,92.32,92.32,0,0,0-9.77-15.88,61.89,61.89,0,0,0-10.2-9.08A63.92,63.92,0,0,0,607,75c-.72-.36-1.45-.69-2.19-1-.38-.16-.75-.3-1.1-.41-3.12-1-6.78-2.22-11.2-3.3"/><path class="cls-4" d="M638.75,116.18c.29,1.52.52,3.07.68,4.55.1.93.19,2,.27,3.11l0,0a57.62,57.62,0,0,0-1-7.71M607,75a63.92,63.92,0,0,1,8.54,5.39,61.89,61.89,0,0,1,10.2,9.08,92.32,92.32,0,0,1,9.77,15.88A58.6,58.6,0,0,0,607,75m-14.62-4.86.13.14c4.42,1.08,8.08,2.25,11.2,3.3.35.11.72.25,1.1.41a58.5,58.5,0,0,0-12.43-3.85"/><path class="cls-1" d="M640.4,118.75v.17q.12.84.21,1.68c.12,1.07.22,2.32.3,3.6H641c-.11-1.84-.29-3.66-.56-5.45M607.49,73.89a64.6,64.6,0,0,1,8.71,5.49,62,62,0,0,1,10.41,9.29,92.31,92.31,0,0,1,10,16.18,59.77,59.77,0,0,0-29.08-31m-15.68-5.1h0v.07c4.9,1.14,8.89,2.42,12.24,3.54.4.14.81.29,1.23.46a59.66,59.66,0,0,0-13.46-4.07"/><path class="cls-1" d="M635.47,105.3a58,58,0,0,1,3.28,10.88,53.57,53.57,0,0,0-2.27-8.59c-.21-.57-.56-1.35-1-2.29m-30.7-31.36c.74.32,1.46.65,2.19,1-.77-.39-1.5-.73-2.19-1"/><path class="cls-2" d="M591.8,68.86l-.19,1.1.73.14a57.35,57.35,0,0,1,12.43,3.84c.69.28,1.42.62,2.19,1a58.65,58.65,0,0,1,28.51,30.36c.45.94.8,1.72,1,2.29a53.57,53.57,0,0,1,2.27,8.59,57.56,57.56,0,0,1,1,7.72c0,.24,0,.49,0,.74H640v0a.42.42,0,0,1,.41-.41h.53c-.08-1.28-.18-2.53-.3-3.6q-.09-.84-.21-1.68v1.15a.42.42,0,0,1-.83,0v-5.74a59.42,59.42,0,0,0-3-9.48,92.31,92.31,0,0,0-10-16.18,62,62,0,0,0-10.41-9.29,64.6,64.6,0,0,0-8.71-5.49c-.73-.36-1.47-.7-2.22-1-.42-.17-.83-.32-1.23-.46-3.35-1.12-7.34-2.4-12.24-3.54"/><path class="cls-2" d="M639.57,114.33v5.74a.42.42,0,0,0,.83,0v-1.32c-.22-1.49-.5-3-.83-4.42"/><path class="cls-2" d="M641,124.2h-.57a.42.42,0,0,0-.42.42h0l1,0c0-.12,0-.25,0-.38"/><path class="cls-1" d="M641,125h0c.25,4,.36,8.08.37,8.3L643.41,174l1,19.83s0,.74.11,2Z"/><path class="cls-1" d="M643.36,195.91l1.29,25.8h0c0-1.57-.23-5.13-.44-9.16-.25-5-.56-10.67-.77-14.44,0-.83-.08-1.58-.11-2.19"/><path class="cls-2" d="M640,124.64h-.18l3.57,71.27c0,.61.07,1.36.11,2.19.21,3.77.52,9.48.77,14.44.21,4,.38,7.59.44,9.16l.36,0h.2l.59,0-1.29-25.8c-.07-1.24-.11-2-.11-2l-1-19.83-2.07-40.71c0-.22-.12-4.3-.37-8.3h-.59a.41.41,0,0,1-.41-.39"/><path class="cls-2" d="M641,124.58h0l-1,0a.41.41,0,0,0,.42.4H641Z"/><path class="cls-1" d="M644.65,222.54l-5,7.35a8.5,8.5,0,0,0,5-7.35"/><path class="cls-1" d="M644.68,221.7h0l0,.42c0,.14,0,.28,0,.41a8.5,8.5,0,0,1-5,7.35,6.62,6.62,0,0,1-.78.3l0,.11.82-.28a9.81,9.81,0,0,0,3.37-2.79,8.26,8.26,0,0,0,1.63-4.77c0-.14,0-.4,0-.76"/><path class="cls-2" d="M645.83,221.65l-.59,0h-.56c0,.36,0,.62,0,.76a8.26,8.26,0,0,1-1.63,4.77A9.81,9.81,0,0,1,639.7,230l-.82.28.15.46.19.56a9.68,9.68,0,0,0,6.62-9.19c0-.16,0-.32,0-.48"/><path class="cls-1" d="M598,245.06l-6.43,2.12c-.29.1-28.86,9.68-36.09,12l0,.05Z"/><path class="cls-1" d="M638.84,230.19l-41.23,13.75,13-4.27c10.3-3.4,21.83-7.21,26.74-8.85l1.57-.52Z"/><path class="cls-2" d="M638.88,230.3l-1.57.52c-4.91,1.64-16.44,5.45-26.74,8.85l-13,4.27L555.12,258.1l.18.56.18.52c7.22-2.32,35.79-11.9,36.08-12l6.43-2.12,41.23-13.74-.19-.56Z"/><path class="cls-1" d="M554.7,259.5a31.18,31.18,0,0,0-14.05,10.27l-.46.65a50.57,50.57,0,0,0-2.74,4.43c-.33.66-.64,1.34-.93,2h5.66Z"/><path class="cls-4" d="M540.65,269.77a31.22,31.22,0,0,0-3.2,5.08,50.57,50.57,0,0,1,2.74-4.43l.46-.65"/><path class="cls-1" d="M541.58,277.7h-5.39a31.81,31.81,0,0,0-1,3.18,50,50,0,0,0-.94,6.68l0,.38Z"/><path class="cls-4" d="M535.17,280.88a30.76,30.76,0,0,0-1,7.14l.05-.08,0-.39a50.09,50.09,0,0,1,.94-6.67"/><path class="cls-4" d="M542.18,276.87h-5.65c-.12.27-.23.55-.34.83h5.39Z"/><path class="cls-1" d="M537.45,274.85c-.37.69-.72,1.37-1,2h.08c.29-.68.6-1.36.93-2m18-15.67-1.19.37c-4.11,1.25-9,5.15-10.55,6.47a25.13,25.13,0,0,0-3.09,3.75A31.18,31.18,0,0,1,554.7,259.5l.79-.27Z"/><path class="cls-1" d="M539.71,269a32.55,32.55,0,0,0-3.31,5.26,52.05,52.05,0,0,1,2.82-4.56c.16-.24.33-.47.49-.7"/><path class="cls-2" d="M555.12,258.1A32.38,32.38,0,0,0,539.71,269c-.16.23-.33.46-.49.71a50.43,50.43,0,0,0-2.82,4.55c-.42.84-.81,1.7-1.15,2.57h1.19c.3-.65.64-1.33,1-2a30.79,30.79,0,0,1,3.2-5.08,25.13,25.13,0,0,1,3.09-3.75c1.53-1.32,6.44-5.22,10.55-6.47l1.19-.37-.18-.51Z"/><path class="cls-1" d="M536.19,277.7h-.1a22,22,0,0,0-.92,3.18,31.81,31.81,0,0,1,1-3.18"/><path class="cls-1" d="M534,280.62a32.66,32.66,0,0,0-1.06,8.24h0v-.13h0s.08-1.89.39-4.33c.16-1.17.37-2.48.65-3.77"/><path class="cls-2" d="M536.09,277.7h-1.16c-.35,1-.66,1.93-.92,2.92-.28,1.29-.49,2.6-.65,3.77-.31,2.44-.39,4.32-.39,4.33h0v.13h1.16c0-.28,0-.56,0-.84a30.76,30.76,0,0,1,1-7.14,23.29,23.29,0,0,1,.92-3.18"/><path class="cls-2" d="M536.53,276.87h-1.28c-.11.27-.22.55-.32.83h1.26c.11-.28.22-.56.34-.83"/><path class="cls-1" d="M533,414.73h0V588.51h.2c0-5.59-.11-17.47-.15-23.77,0-2.52,0-4.14,0-4.14h0Zm0-125.87h0v125h0Z"/><path class="cls-2" d="M534.14,414.73H533V560.59h0s0,1.62,0,4.14c0,6.3.12,18.18.15,23.77h1Zm0-125.87H533v125h1.17Z"/><polygon class="cls-2" points="532.97 413.9 532.95 413.9 532.95 414.73 532.97 414.73 534.14 414.73 534.14 413.9 532.97 413.9"/><path class="cls-1" d="M542.18,600.5h-5.66a31.51,31.51,0,0,0,3.91,6.81c1,1.31,2.19,2.59,3.29,3.72a31.26,31.26,0,0,0,11,6.84Zm-7.84-10.88V591c0,.55,0,1.06,0,1.56a31.15,31.15,0,0,0,1.8,7.14h5.39Z"/><path class="cls-4" d="M540.43,607.31a30.6,30.6,0,0,0,3.29,3.72c-1.1-1.13-2.25-2.41-3.29-3.72m-6.28-18a30.3,30.3,0,0,0,.24,3.18c0-.5,0-1,0-1.56v-1.36Z"/><path class="cls-4" d="M541.58,599.67h-5.39l.33.83h5.66Z"/><path class="cls-1" d="M543.72,611c.83.85,1.63,1.61,2.35,2.23a29.48,29.48,0,0,0,7.55,4.28l.87.34,1,.32,0-.06-.79-.27a31.26,31.26,0,0,1-11-6.84m-7.2-10.53h-.09q.23.57.45,1.17a22.94,22.94,0,0,0,3.55,5.64,31.51,31.51,0,0,1-3.91-6.81m-2.13-8a24.32,24.32,0,0,0,1.73,7.14h.07a31.15,31.15,0,0,1-1.8-7.14"/><path class="cls-1" d="M539.56,608.14a33.08,33.08,0,0,0,3.4,3.8c-1.13-1.15-2.31-2.45-3.4-3.8m-6.41-19.63H533a32.9,32.9,0,0,0,.26,4.12c0-.53-.06-1.08-.06-1.66v-2.46"/><path class="cls-2" d="M536.43,600.5h-1.19a32.86,32.86,0,0,0,4.32,7.64c1.09,1.34,2.26,2.65,3.4,3.8a32.38,32.38,0,0,0,12.15,7.33l.36-1.07-1-.32-.87-.34a29.64,29.64,0,0,1-7.55-4.28c-.72-.62-1.52-1.38-2.35-2.23a30.6,30.6,0,0,1-3.29-3.72,23.24,23.24,0,0,1-3.55-5.64q-.23-.6-.45-1.17m-2.3-12h-1V591c0,.58,0,1.13.06,1.67a32.11,32.11,0,0,0,1.72,7h1.19a24.32,24.32,0,0,1-1.73-7.14c-.13-1-.22-2.11-.25-3.18,0-.28,0-.56,0-.84"/><path class="cls-2" d="M536.19,599.67h-1.26c.1.28.21.56.32.83h1.27l-.33-.83"/><path class="cls-1" d="M555.49,618.14h0l0,.06,112.7,37.51Z"/><path class="cls-1" d="M668,656.89l12.62,4.2V661l-1.84-.56L668,656.89"/><path class="cls-2" d="M555.47,618.2l-.36,1.07L668,656.89l10.79,3.59,1.84.56L681,660l-12.79-4.27-112.7-37.5"/><path class="cls-1" d="M691.78,662.84c1.37.33,2.64.61,3.68.78.59.11,2.38.32,5.07.62v-.09c-2.94-.29-5.87-.73-8.76-1.31"/><path class="cls-1" d="M680.6,661l0,.05a91.24,91.24,0,0,0,11,2.91c-3.83-.91-8.41-2.22-10.94-3"/><path class="cls-2" d="M681,660h0L680.6,661c2.53.74,7.11,2.05,10.94,3a88.86,88.86,0,0,0,8.88,1.33l.06-.59,0-.5c-2.69-.3-4.48-.51-5.07-.62-1-.17-2.31-.45-3.68-.78A90.27,90.27,0,0,1,681,660"/><path class="cls-1" d="M700.54,664.15h0v.09c2.79.3,6.54.7,10.93,1.15,8.62.88,19.71,2,30.84,3.08,16.43,1.61,33,3.21,41.78,4Z"/><path class="cls-1" d="M784,673.69l7.77.78v0c-.51-.07-1-.13-1.6-.18l-6.17-.57"/><path class="cls-2" d="M700.53,664.24l0,.5-.06.59L784,673.69l6.17.57c.56,0,1.09.11,1.6.18v-.15h-.55a.42.42,0,0,1,0-.83h.64v-.17l-7.75-.78c-8.82-.83-25.35-2.42-41.78-4-11.13-1.09-22.22-2.2-30.84-3.08-4.39-.45-8.14-.85-10.93-1.15"/><path class="cls-2" d="M791.18,673.46a.42.42,0,0,0,0,.83h.55l0-.42,0-.41h-.64Z"/><path class="cls-1" d="M792.39,674.56l11.06,12.21a13.06,13.06,0,0,0-8.24-11.46,17,17,0,0,0-2.82-.75"/><path class="cls-4" d="M792.39,674.55h0a17,17,0,0,1,2.82.75,13.33,13.33,0,0,0-2.82-.76"/><path class="cls-1" d="M792.4,673.35l.66.13h.09l-.75-.13"/><path class="cls-1" d="M795.21,675.31a13.06,13.06,0,0,1,8.24,11.46c0,.23,0,.45,0,.68h0V687h0v-.17a12.12,12.12,0,0,0-2-6.26,12.53,12.53,0,0,0-4.17-4.21,12.23,12.23,0,0,0-2.15-1m-3.49-.87v0l.49.07-.49-.09"/><path class="cls-2" d="M791.73,674.29v.15l.49.08.18,0a14.77,14.77,0,0,1,5,1.78,12.53,12.53,0,0,1,4.17,4.21,12.12,12.12,0,0,1,2,6.26V687h0v.47h1.14a14.24,14.24,0,0,0-8.7-13.12Zm.11-1h0l0,.19h1.24l-.66-.13-.56-.07"/><path class="cls-2" d="M791.82,673.47l-.05.41,0,.42,4.23,0a14.73,14.73,0,0,0-2.81-.85h-1.33Z"/><path class="cls-1" d="M804.65,713c0,.25,0,.49,0,.72h0Z"/><path class="cls-1" d="M803.51,687.45h0V713c0-.65,0-1.38,0-2.2V687.45Z"/><path class="cls-2" d="M804.65,687.45h-1.14v23.36c0,.82,0,1.55,0,2.2v.74h.17V713a.42.42,0,0,1,.42-.42.41.41,0,0,1,.41.42v.78h.14c0-.23,0-.47,0-.72Z"/><path class="cls-2" d="M804.06,712.55a.42.42,0,0,0-.42.42v.78h.83V713a.41.41,0,0,0-.41-.42"/><path class="cls-1" d="M803.36,714.44l-7.62,7.62a13.7,13.7,0,0,0,3.45-.93,8.79,8.79,0,0,0,1.78-1.37,8.38,8.38,0,0,0,2-3.22,11.28,11.28,0,0,0,.37-2.1"/><path class="cls-4" d="M799.19,721.13a13.7,13.7,0,0,1-3.45.93l-.16.17a8.66,8.66,0,0,0,3.61-1.1m4.25-6.77-.08.08a12.26,12.26,0,0,1-.36,2.1,8.7,8.7,0,0,0,.44-2.18"/><path class="cls-1" d="M799.71,722.2l-.12,0h0l.1,0m4.94-8.45h0c0,.52-.08,1-.14,1.43v.43a9.54,9.54,0,0,0,.18-1.86"/><path class="cls-1" d="M803,716.54a8.38,8.38,0,0,1-2,3.22,8.79,8.79,0,0,1-1.78,1.37,4.65,4.65,0,0,0,1.4-.91,8.12,8.12,0,0,0,2.26-3.23c0-.14.1-.29.14-.45"/><path class="cls-2" d="M803.64,713.75h-.17c0,.2,0,.41,0,.61a8.29,8.29,0,0,1-.45,2.18c0,.16-.09.31-.14.45a8.12,8.12,0,0,1-2.26,3.23,4.65,4.65,0,0,1-1.4.91,8.51,8.51,0,0,1-3.61,1.1l-.61,0h4.62l.12,0a9.72,9.72,0,0,0,3.93-4.15Zm1,0h-.14v1.42c.06-.43.11-.91.14-1.42"/><path class="cls-2" d="M804.47,713.75h-.83v4.3a9.57,9.57,0,0,0,.83-2.45v-1.85Z"/><path class="cls-1" d="M203.92,723.4v0h.3l-.3,0"/><path class="cls-1" d="M504,722.25H204.27c1,.09,1.9.11,2.75.11H504Z"/><path class="cls-2" d="M204.27,722.25h-.35v.18h4.55v.83h-4.55v.14l.3,0H504v-1.07H207c-.85,0-1.78,0-2.75-.11"/><rect class="cls-2" x="203.92" y="722.42" width="4.55" height="0.83"/><path class="cls-1" d="M195.44,714.36a8.53,8.53,0,0,0,4,6.64,12,12,0,0,0,3.72,1.12Z"/><path class="cls-4" d="M199.48,721a8.49,8.49,0,0,0,3.83,1.23l-.11-.11a12,12,0,0,1-3.72-1.12"/><path class="cls-1" d="M198.85,722c.25.15.5.29.77.42h.14a8.27,8.27,0,0,1-.91-.42"/><path class="cls-1" d="M195.42,713.75h-.16a8.68,8.68,0,0,0,2.42,6,7.72,7.72,0,0,0,1.8,1.27,9,9,0,0,1-1.57-1.24,8.5,8.5,0,0,1-2.47-5.4c0-.2,0-.41,0-.61"/><path class="cls-2" d="M194.41,713.75h-.17a10.27,10.27,0,0,0,.17,1.85Zm.86,0h0v4.3a9.75,9.75,0,0,0,3.61,4c.3.16.6.3.91.43h4.16v-.18a6.08,6.08,0,0,1-.61,0,8.36,8.36,0,0,1-3.83-1.22,7.72,7.72,0,0,1-1.8-1.27,8.62,8.62,0,0,1-2.41-6"/><path class="cls-2" d="M195.24,713.75h-.83v1.85a9.57,9.57,0,0,0,.83,2.45Z"/><path class="cls-1" d="M202.78,723.25h-.71a9.44,9.44,0,0,0,1.85.18v0c-.37,0-.76-.08-1.14-.15"/><path class="cls-2" d="M203.92,723.25h-1.14c.38.07.77.11,1.14.15Z"/><path class="cls-2" d="M203.92,722.42h-4.31a9.09,9.09,0,0,0,2.45.83h1.86Z"/><path class="cls-1" d="M195.42,687.45h-.11c-.05,1.64-.07,5-.07,8.8s0,7.68,0,10.78,0,5.27,0,5.27v.14l0,.18c0,.17,0,.41,0,.7v.43h.16Z"/><path class="cls-2" d="M195.31,687.45h-1.08v26.3h.18v-1.16h.83v1.16h0c0-.16,0-.3,0-.43,0-.29,0-.53,0-.7l0-.18v-.14s0-2.17,0-5.27,0-7.11,0-10.78,0-7.16.07-8.8"/><polygon class="cls-2" points="194.41 712.59 194.41 713.75 194.83 713.75 195.25 713.75 195.25 712.59 194.41 712.59"/><path class="cls-1" d="M206.47,674.59h0l-.56.08c-.2,0-.42.08-.68.14a13,13,0,0,0-5.47,2.93,8.65,8.65,0,0,0-.63.7,21.19,21.19,0,0,0-2.82,4.28,13,13,0,0,0-.86,4Z"/><path class="cls-4" d="M199.75,677.74a13.14,13.14,0,0,0-3.45,5,20.75,20.75,0,0,1,2.83-4.29c.2-.24.4-.47.62-.69m6.75-3.19a10.58,10.58,0,0,0-1.27.26l.67-.14.56-.08h0Z"/><path class="cls-1" d="M199,676.84a14.32,14.32,0,0,0-3.76,5.43,21.32,21.32,0,0,1,3-4.58c.25-.3.51-.59.77-.85m8.08-3.56a16,16,0,0,0-2.09.37,11.36,11.36,0,0,1,1.59-.26l.51-.06Z"/><path class="cls-1" d="M196.3,682.72l-.1.24a11.08,11.08,0,0,0-.85,3.68c0,.17,0,.45,0,.8h.11c0-.22,0-.45,0-.67a13,13,0,0,1,.86-4m8.93-7.91a11.7,11.7,0,0,0-5.48,2.93,13,13,0,0,1,5.48-2.93"/><path class="cls-2" d="M207.06,673.33l-.51.06a11.1,11.1,0,0,0-1.58.26,14.07,14.07,0,0,0-6,3.19,10.62,10.62,0,0,0-.78.85,21.32,21.32,0,0,0-3,4.58,14.14,14.14,0,0,0-1,5.17h1.07c0-.35,0-.63,0-.8a11.08,11.08,0,0,1,.85-3.68l.1-.24a13.14,13.14,0,0,1,3.45-5,11.7,11.7,0,0,1,5.48-2.93,10.58,10.58,0,0,1,1.27-.26c.22,0,.44-.06.67-.09l-.06-.59Z"/><path class="cls-1" d="M223.21,671.67l-16.16,1.61v.05Zm75.14-7.52-30.07,3c8.11-.77,17.32-1.66,24-2.31l6.12-.61Z"/><path class="cls-1" d="M268.4,668.34l-18.24,1.74h0l-26.82,2.77Z"/><path class="cls-2" d="M298.36,664.24l-6.12.61-24,2.31-45.07,4.51-16.15,1.66.05.54.06.59,16.17-1.61,26.83-2.77h0l18.24-1.74,30.07-3-.06-.59Z"/><path class="cls-1" d="M317.93,660a90.52,90.52,0,0,1-19.58,4.18v.09l2.92-.32c2.49-.36,6.43-1.12,10.55-2.06.71-.16,3-.86,6.11-1.86Z"/><path class="cls-2" d="M317.93,660c-3.13,1-5.39,1.71-6.1,1.87-4.12.94-8.06,1.71-10.55,2.06l-2.93.32.06.5,0,.59a90.89,90.89,0,0,0,19.84-4.24l-.19-.56Z"/><path class="cls-1" d="M356.62,647.07,317.93,660v0h0c3.14-1,7.19-2.34,11.54-3.79,8.72-2.9,18.69-6.27,25.28-8.5l1.85-.63m86.77-28.93L370.62,642.4l15.62-5.15c13.52-4.46,29.88-9.86,41.23-13.63,7.56-2.51,12.93-4.31,13.68-4.6l2.27-.82Z"/><path class="cls-1" d="M371,643.52l-8.58,2.83L357,648.19Z"/><path class="cls-2" d="M443.41,618.2c-.85.32-1.61.58-2.25.82s-6.13,2.09-13.69,4.6c-11.35,3.77-27.71,9.17-41.23,13.63l-15.62,5.15-14,4.67-1.85.63c-6.59,2.23-16.56,5.6-25.28,8.5-4.36,1.45-8.4,2.78-11.54,3.79h0l.17.54.19.56L357,648.19l5.41-1.84,8.58-2.83,72.77-24.25Z"/><path class="cls-1" d="M464.71,589.39l-20.52,28.48a31.65,31.65,0,0,0,3.94-1.75,33,33,0,0,0,7.23-5.28,31.26,31.26,0,0,0,8.17-13.68,33.67,33.67,0,0,0,1-4.79c.08-.64.14-1.29.18-1.93a.86.86,0,0,0,0-.15c0-.18,0-.49,0-.9"/><path class="cls-4" d="M455.36,610.84a33,33,0,0,1-7.23,5.28,31.11,31.11,0,0,0,7.23-5.28m9.15-18.47a33.67,33.67,0,0,1-1,4.79,30.82,30.82,0,0,0,1-4.79m.23-3,0,0c0,.41,0,.72,0,.9s0,.09,0,.15c0-.36,0-.73.05-1.09"/><path class="cls-1" d="M448.13,616.12a31.65,31.65,0,0,1-3.94,1.75l-.8.27,0,.06a37.74,37.74,0,0,0,4.71-2.08m15.4-19a31.26,31.26,0,0,1-8.17,13.68c.63-.6,1.27-1.24,1.91-1.94a28.69,28.69,0,0,0,6.26-11.74m1.16-6.72c0,.65-.1,1.29-.18,1.93.12-.89.17-1.56.18-1.93"/><path class="cls-1" d="M456,611.87a34.33,34.33,0,0,1-7.62,5.46,32.47,32.47,0,0,0,7.62-5.46m9.74-19.81a34.81,34.81,0,0,1-1,5.11,32.25,32.25,0,0,0,1-5.11m.2-3.55h0c0,.86,0,1.51,0,1.82,0,.08,0,.18,0,.3,0-.7.07-1.4.07-2.12"/><path class="cls-2" d="M465.91,588.51h-1.16c0,.28,0,.56,0,.84s0,.73-.05,1.09-.06,1-.18,1.93a30.82,30.82,0,0,1-1,4.79,28.69,28.69,0,0,1-6.26,11.74c-.64.7-1.28,1.34-1.91,1.94a31.11,31.11,0,0,1-7.23,5.28,35.79,35.79,0,0,1-4.72,2.08l.17.5.19.57a32.26,32.26,0,0,0,12.23-7.4,32.44,32.44,0,0,0,8.76-14.7,33.53,33.53,0,0,0,1-5.11c.06-.47.1-.95.13-1.42,0-.13,0-.23,0-.31,0-.31,0-1,0-1.82"/><path class="cls-1" d="M464.83,414.73h-.08V586.29c0-1,0-2,0-3,0-3,.05-5.84.05-5.85Zm0-125.87h-.08v125h.08v-125"/><path class="cls-1" d="M465.94,586.3c0,.81,0,1.57,0,2.21h0Z"/><path class="cls-2" d="M465.94,414.73h-1.11V577.42s0,2.83-.05,5.85c0,1,0,2.06,0,3v2.22h1.16c0-.64,0-1.4,0-2.21Zm0-125.87h-1.11v125h1.11Z"/><polygon class="cls-2" points="464.83 413.9 464.75 413.9 464.75 414.73 464.83 414.73 465.94 414.73 465.94 413.9 464.83 413.9"/><path class="cls-1" d="M444.19,259.5,464.74,288a31.24,31.24,0,0,0-20.55-28.52"/><path class="cls-1" d="M443.41,259.19v0l.79.27A31.24,31.24,0,0,1,464.74,288c0,.28,0,.56,0,.84h.08a26.74,26.74,0,0,0-3.9-15.18c-5.78-9.35-10.81-12.05-15-13.63l-2.55-.86"/><path class="cls-2" d="M443.77,258.1l-.19.57-.17.52,2.55.86c4.16,1.58,9.19,4.28,15,13.63a26.74,26.74,0,0,1,3.9,15.18h1.11a32.42,32.42,0,0,0-22.17-30.76"/><path class="cls-1" d="M430.47,254.92l12.93,4.31v0l-1.58-.52-8.74-2.89-2.62-.86"/><path class="cls-1" d="M360,230.19l0,.12c1.21.5,3,1.16,5.08,1.91,3.16,1.13,7.14,2.48,11.39,3.89,8.49,2.83,18.07,5.91,24.37,7.92,4.2,1.34,6.94,2.2,7,2.2h0l23.09,7.58Z"/><path class="cls-2" d="M360,230.31l-.33,1,70.8,23.6,2.62.86,8.75,2.89,1.57.52.17-.52.19-.57-12.88-4.29-23.09-7.58h0s-2.75-.86-7-2.2c-6.3-2-15.88-5.09-24.37-7.92-4.25-1.41-8.23-2.76-11.39-3.89-2.11-.75-3.87-1.41-5.08-1.91"/><path class="cls-1" d="M354.29,222.61a9.7,9.7,0,0,0,.14,1.34,8.49,8.49,0,0,0,4.84,5.94Z"/><path class="cls-4" d="M354.24,222.54a8.25,8.25,0,0,0,.19,1.41,9.7,9.7,0,0,1-.14-1.34Z"/><path class="cls-1" d="M353.06,221.65c0,.16,0,.32,0,.48a9.8,9.8,0,0,0,.21,2,12.18,12.18,0,0,1-.17-2c0-.17,0-.32,0-.47Z"/><path class="cls-1" d="M354.43,224a8.5,8.5,0,0,0,.59,2,7.64,7.64,0,0,0,3.62,3.76c.31.15.77.36,1.36.6l0-.12q-.39-.13-.78-.3a8.5,8.5,0,0,1-4.83-5.94"/><path class="cls-2" d="M353.1,221.65c0,.15,0,.3,0,.47a11.3,11.3,0,0,0,.18,2,9.67,9.67,0,0,0,6.4,7.15l.19-.57.15-.44c-.6-.24-1.06-.45-1.37-.6A7.64,7.64,0,0,1,355,226a8.5,8.5,0,0,1-.59-2,8.25,8.25,0,0,1-.19-1.41c0-.14,0-.27,0-.41v-.42Z"/><path class="cls-1" d="M357.91,124.58l-4.85,97.07h0c0-.41,0-.74.06-.93.08-1.13,3.76-75.73,4.8-96.13Z"/><path class="cls-2" d="M358,124.59c-1,20.4-4.72,95-4.8,96.13,0,.2,0,.52-.06.93l.55,0,.59,0,4.86-97.06-.6,0Z"/><path class="cls-1" d="M406.52,70.13c-.35.05-.68.11-1,.17q-2,.42-4,1a70.39,70.39,0,0,0-11,4.36,58.73,58.73,0,0,0-12.67,8.9,75.18,75.18,0,0,0-7.73,9.06,69.17,69.17,0,0,0-4.63,7.19,57,57,0,0,0-2.95,6.74c-.67,2.22-1.21,3.9-1.65,5.29a58.82,58.82,0,0,0-1.63,9.34c0,.49,0,1-.08,1.67Z"/><path class="cls-4" d="M359.27,122.17c0,.57-.1,1.15-.13,1.72l.05,0c0-.62.06-1.18.08-1.67m3.28-14.63q-.94,2.59-1.65,5.29c.44-1.39,1-3.07,1.65-5.29m15.31-23A58.87,58.87,0,0,0,365.5,100.8a70.24,70.24,0,0,1,4.63-7.19,76,76,0,0,1,7.73-9.06m23.66-13.26a58.39,58.39,0,0,0-11,4.36,70,70,0,0,1,11-4.36m5-1.19-1,.2c.3-.06.63-.12,1-.17Z"/><path class="cls-1" d="M358.09,122.08c-.08.83-.14,1.67-.18,2.5h0c.05-1,.09-1.8.13-2.51m3.33-14.92q-.94,2.63-1.66,5.34c.44-1.4,1-3.09,1.66-5.34M377,83.7a60,60,0,0,0-12.58,16.52,72.06,72.06,0,0,1,4.71-7.3A75.17,75.17,0,0,1,377,83.7m24.2-13.57A59.33,59.33,0,0,0,390,74.59a71.91,71.91,0,0,1,11.23-4.46m5.83-1.34-1.75.34,1.76-.3Z"/><path class="cls-1" d="M360.9,112.83c-.24.79-.46,1.48-.64,2.12a23.16,23.16,0,0,0-.9,5.47c0,.43-.05,1-.09,1.75a58.82,58.82,0,0,1,1.63-9.34m4.6-12a32.89,32.89,0,0,0-2.83,6.35l-.12.39a57,57,0,0,1,2.95-6.74m25-25.15a53.91,53.91,0,0,0-8.5,5.24,46.49,46.49,0,0,0-4.17,3.66,58.73,58.73,0,0,1,12.67-8.9m15-5.35c-.89.15-1.56.29-2,.4-.56.14-1.25.34-2.06.59q2-.57,4-1"/><path class="cls-2" d="M407.08,68.83l-1.76.3c-1.38.29-2.74.62-4.08,1A71.91,71.91,0,0,0,390,74.59a59.38,59.38,0,0,0-13,9.11,76.05,76.05,0,0,0-7.87,9.22,69.18,69.18,0,0,0-4.7,7.3,57.19,57.19,0,0,0-3,6.94c-.68,2.25-1.23,3.93-1.67,5.34-.32,1.23-.6,2.48-.84,3.73v3.84a.41.41,0,0,1-.42.41.45.45,0,0,1-.23-.07c-.07.55-.13,1.11-.18,1.67,0,.71-.08,1.55-.13,2.51l.54,0,.6,0c0-.25,0-.5,0-.75,0-.57.08-1.15.13-1.72,0-.73.07-1.32.09-1.75a23.16,23.16,0,0,1,.9-5.47c.18-.64.4-1.33.64-2.12.47-1.8,1-3.57,1.65-5.29l.12-.39a33.16,33.16,0,0,1,2.83-6.35,58.87,58.87,0,0,1,12.36-16.25A46.49,46.49,0,0,1,382,80.89a53.18,53.18,0,0,1,8.5-5.24,58.83,58.83,0,0,1,11-4.37c.81-.24,1.51-.43,2.06-.58s1.07-.24,2-.4l1-.21.73-.13-.1-.59Z"/><path class="cls-2" d="M358.92,116.23c-.27,1.38-.48,2.77-.65,4.18a.45.45,0,0,0,.23.07.41.41,0,0,0,.42-.41Z"/><path class="cls-1" d="M803.64,722.25h-4a15.69,15.69,0,0,1-3.68,1c-.57.09-1.12.15-1.6.19h9.33Zm108.52,0H804.47v1.18H912.16Z"/><path class="cls-1" d="M794.25,722.25H504v.11H792.35l1,0,.9-.07"/><path class="cls-2" d="M799.59,722.25h-5.34l-.91.07-1,0H504v1.07H794.31c.48,0,1-.1,1.6-.19a15.69,15.69,0,0,0,3.68-1"/><rect class="cls-2" x="803.64" y="722.25" width="0.83" height="1.18"/><path class="cls-2" d="M492,7.63l-1.43.12a2.71,2.71,0,0,0-.55-1.24,1.92,1.92,0,0,0-1.45-.62,2,2,0,0,0-1.21.39,3.21,3.21,0,0,0-1.08,1.45,7.66,7.66,0,0,0-.41,2.72,3.42,3.42,0,0,1,1.28-1.18,3.5,3.5,0,0,1,1.58-.38A3.28,3.28,0,0,1,491.23,10a3.86,3.86,0,0,1,1,2.76,4.65,4.65,0,0,1-.47,2.06,3.53,3.53,0,0,1-1.32,1.46,3.67,3.67,0,0,1-1.9.5,3.72,3.72,0,0,1-2.95-1.33A6.71,6.71,0,0,1,484.46,11q0-3.42,1.26-5a3.65,3.65,0,0,1,3-1.35,3.32,3.32,0,0,1,2.28.78A3.28,3.28,0,0,1,492,7.63Zm-5.9,5.08a3.35,3.35,0,0,0,.31,1.43,2.44,2.44,0,0,0,.89,1,2.29,2.29,0,0,0,1.2.35,2,2,0,0,0,1.58-.74,2.94,2.94,0,0,0,.65-2,2.69,2.69,0,0,0-.65-1.92,2.13,2.13,0,0,0-1.64-.7,2.23,2.23,0,0,0-1.66.7A2.51,2.51,0,0,0,486.13,12.71Z"/><path class="cls-2" d="M501.29,15.14v1.39H493.5a2.42,2.42,0,0,1,.17-1,5,5,0,0,1,.95-1.57,15.43,15.43,0,0,1,1.89-1.78,16.72,16.72,0,0,0,2.6-2.5,3,3,0,0,0,.67-1.74,1.93,1.93,0,0,0-.61-1.45,2.2,2.2,0,0,0-1.6-.59,2.3,2.3,0,0,0-1.68.62,2.39,2.39,0,0,0-.63,1.74l-1.49-.15a3.68,3.68,0,0,1,1.15-2.54,3.93,3.93,0,0,1,2.68-.87,3.71,3.71,0,0,1,2.68.94,3.08,3.08,0,0,1,1,2.33A3.57,3.57,0,0,1,501,9.36a5.15,5.15,0,0,1-1,1.44,23.05,23.05,0,0,1-2.23,2.07c-.87.73-1.43,1.23-1.67,1.49a4.62,4.62,0,0,0-.61.78Z"/><path class="cls-2" d="M445.72,148.91l11.75-1,.43,5.21a7,7,0,0,1-.12,2.41,2.6,2.6,0,0,1-1,1.4,3.41,3.41,0,0,1-1.73.64,2.92,2.92,0,0,1-2.17-.64,4.08,4.08,0,0,1-1.3-2.41,3.75,3.75,0,0,1-.51,1,8.17,8.17,0,0,1-1.45,1.42l-3,2.31-.16-2,2.31-1.75q1-.78,1.53-1.26a3.72,3.72,0,0,0,.72-.85,2.4,2.4,0,0,0,.25-.74,5.13,5.13,0,0,0,0-.87l-.15-1.8-5.22.43Zm6.69,1,.28,3.34a5.08,5.08,0,0,0,.36,1.65,1.8,1.8,0,0,0,.78.85,1.94,1.94,0,0,0,1.08.23,1.8,1.8,0,0,0,1.32-.72,2.89,2.89,0,0,0,.38-2l-.31-3.71Z"/><path class="cls-2" d="M449,172.17l-1.39.11-.64-7.76a2.5,2.5,0,0,1,1,.09,5.14,5.14,0,0,1,1.64.82,14.9,14.9,0,0,1,1.93,1.73,16.13,16.13,0,0,0,2.7,2.39,3,3,0,0,0,1.79.53,1.93,1.93,0,0,0,1.4-.74,2.18,2.18,0,0,0,.45-1.64,2.23,2.23,0,0,0-.76-1.62,2.39,2.39,0,0,0-1.78-.49l0-1.49a3.67,3.67,0,0,1,2.62.93,3.9,3.9,0,0,1,1.09,2.6,3.74,3.74,0,0,1-.71,2.75,3.09,3.09,0,0,1-2.25,1.18,3.6,3.6,0,0,1-1.41-.17,5.66,5.66,0,0,1-1.51-.84A24.29,24.29,0,0,1,451,168.5c-.8-.81-1.34-1.32-1.62-1.55a4.88,4.88,0,0,0-.83-.54Z"/><path class="cls-2" d="M453.57,173.35a10.52,10.52,0,0,1,3.39.15,4.22,4.22,0,0,1,2.06,1.11,3.27,3.27,0,0,1,.87,2.07,3.45,3.45,0,0,1-.25,1.69,3.06,3.06,0,0,1-1,1.27,5.77,5.77,0,0,1-1.68.87,11.42,11.42,0,0,1-2.76.5,11,11,0,0,1-3.37-.15,4.22,4.22,0,0,1-2.07-1.11,3.38,3.38,0,0,1-.87-2.08,3.25,3.25,0,0,1,1-2.77C449.81,174.05,451.36,173.53,453.57,173.35Zm.12,1.48c-1.92.16-3.19.49-3.79,1a1.93,1.93,0,0,0,.28,3.33,7.36,7.36,0,0,0,3.9.36,7.47,7.47,0,0,0,3.8-1,2,2,0,0,0,.81-1.77,1.84,1.84,0,0,0-1-1.51A7.45,7.45,0,0,0,453.69,174.83Z"/><path class="cls-2" d="M454.33,182.47a10.54,10.54,0,0,1,3.39.15,4.27,4.27,0,0,1,2.06,1.11,3.26,3.26,0,0,1,.86,2.07,3.32,3.32,0,0,1-.24,1.69,3.15,3.15,0,0,1-1,1.27,5.7,5.7,0,0,1-1.69.87,11.33,11.33,0,0,1-2.75.5,11,11,0,0,1-3.37-.15,4.22,4.22,0,0,1-2.07-1.11,3.59,3.59,0,0,1,.13-4.85Q451,182.74,454.33,182.47Zm.12,1.48c-1.93.16-3.19.49-3.79,1a1.94,1.94,0,0,0,.28,3.34,7.56,7.56,0,0,0,3.9.36,7.45,7.45,0,0,0,3.8-1,2,2,0,0,0,.81-1.77,1.87,1.87,0,0,0-1-1.51A7.45,7.45,0,0,0,454.45,184Z"/><path class="cls-2" d="M417.11,100.28l11.58-2.19,1,5.14a7,7,0,0,1,.14,2.41,2.65,2.65,0,0,1-.86,1.49,3.3,3.3,0,0,1-1.66.82,3,3,0,0,1-2.23-.41,4.13,4.13,0,0,1-1.53-2.26,4.14,4.14,0,0,1-.41,1,7.58,7.58,0,0,1-1.3,1.56L419,110.48l-.36-1.93,2.12-2q.91-.87,1.38-1.41a3.42,3.42,0,0,0,.63-.92,2.4,2.4,0,0,0,.18-.76,4.59,4.59,0,0,0-.11-.86l-.33-1.78-5.15,1Zm6.75.31.63,3.29a5.05,5.05,0,0,0,.52,1.61,1.77,1.77,0,0,0,.87.76,1.89,1.89,0,0,0,1.1.12,1.77,1.77,0,0,0,1.23-.86,2.82,2.82,0,0,0,.18-2l-.69-3.66Z"/><path class="cls-2" d="M430.2,121.58l-.38-1.4a2.71,2.71,0,0,0,1.11-.76,1.88,1.88,0,0,0,.34-1.54,1.93,1.93,0,0,0-.6-1.12A3.29,3.29,0,0,0,429,116a7.52,7.52,0,0,0-2.75.1,3.36,3.36,0,0,1,1.39,1,3.51,3.51,0,0,1,.68,1.48,3.33,3.33,0,0,1-.59,2.62,3.84,3.84,0,0,1-2.52,1.51,4.46,4.46,0,0,1-2.12-.09,3.37,3.37,0,0,1-1.67-1,3.5,3.5,0,0,1-.85-1.77,3.68,3.68,0,0,1,.76-3.14,6.72,6.72,0,0,1,4.1-1.94c2.23-.42,3.94-.31,5.11.32a3.64,3.64,0,0,1,1.88,2.67,3.28,3.28,0,0,1-.35,2.38A3.33,3.33,0,0,1,430.2,121.58Zm-6.09-4.87a3.53,3.53,0,0,0-1.35.58,2.39,2.39,0,0,0-.86,1.07,2.31,2.31,0,0,0-.13,1.24,2.08,2.08,0,0,0,1,1.41,2.91,2.91,0,0,0,2.1.27,2.73,2.73,0,0,0,1.77-1,2.15,2.15,0,0,0,.39-1.74,2.24,2.24,0,0,0-1-1.51A2.55,2.55,0,0,0,424.11,116.71Z"/><path class="cls-2" d="M427.47,123.77a10.53,10.53,0,0,1,3.38-.2,4.16,4.16,0,0,1,2.17.89,3.25,3.25,0,0,1,1.08,2,3.56,3.56,0,0,1-.07,1.7,3.22,3.22,0,0,1-.86,1.37,6.17,6.17,0,0,1-1.59,1,11.8,11.8,0,0,1-2.69.78,10.75,10.75,0,0,1-3.37.2,4.19,4.19,0,0,1-2.17-.89,3.57,3.57,0,0,1-.37-4.83C423.8,124.86,425.29,124.18,427.47,123.77Zm.27,1.46a7.47,7.47,0,0,0-3.67,1.38,2,2,0,0,0-.63,1.83,2,2,0,0,0,1.26,1.47,7.44,7.44,0,0,0,3.92,0c1.9-.36,3.13-.82,3.67-1.39a2,2,0,0,0,.63-1.84,1.85,1.85,0,0,0-1.13-1.4A7.43,7.43,0,0,0,427.74,125.23Z"/><path class="cls-2" d="M376.12,119.59l.88-11.75,5.21.39a7.08,7.08,0,0,1,2.37.49,2.67,2.67,0,0,1,1.22,1.22,3.39,3.39,0,0,1,.36,1.81,3,3,0,0,1-1,2,4.1,4.1,0,0,1-2.58.9,4.56,4.56,0,0,1,.89.65,8.69,8.69,0,0,1,1.17,1.66l1.81,3.36-2-.15-1.37-2.56a19.45,19.45,0,0,0-1-1.7,3.69,3.69,0,0,0-.73-.85,2.32,2.32,0,0,0-.69-.37,5.81,5.81,0,0,0-.86-.12l-1.8-.13-.39,5.22Zm2.05-6.45,3.34.25a5,5,0,0,0,1.68-.09,1.76,1.76,0,0,0,1-.64,2,2,0,0,0,.39-1,1.75,1.75,0,0,0-.5-1.42,2.91,2.91,0,0,0-1.87-.68l-3.72-.27Z"/><path class="cls-2" d="M397.38,121.18l-1.44-.11.69-9.19a8.38,8.38,0,0,1-1.44.89,9.56,9.56,0,0,1-1.58.63l.1-1.39a8.76,8.76,0,0,0,2.22-1.22,5.43,5.43,0,0,0,1.4-1.48l.93.07Z"/><path class="cls-2" d="M401.33,118.36l1.46-.09a3.16,3.16,0,0,0,.71,1.83,2.08,2.08,0,0,0,1.41.65,2.35,2.35,0,0,0,1.78-.58,2.38,2.38,0,0,0,.83-1.69,2.23,2.23,0,0,0-2.13-2.46,4,4,0,0,0-1,.09l.25-1.26.24,0a3.06,3.06,0,0,0,1.69-.36,1.64,1.64,0,0,0,.85-1.43,1.75,1.75,0,0,0-.44-1.35,1.88,1.88,0,0,0-1.35-.63,2,2,0,0,0-1.44.43,2.63,2.63,0,0,0-.84,1.53l-1.42-.36a3.62,3.62,0,0,1,1.37-2.16,3.45,3.45,0,0,1,2.39-.63,3.83,3.83,0,0,1,1.74.55,2.93,2.93,0,0,1,1.15,1.22,2.88,2.88,0,0,1,.32,1.54,2.55,2.55,0,0,1-.51,1.36,2.79,2.79,0,0,1-1.29.9,2.82,2.82,0,0,1,1.55,1.12,3.08,3.08,0,0,1,.43,1.94,3.46,3.46,0,0,1-1.31,2.53,4,4,0,0,1-2.92.86,3.69,3.69,0,0,1-2.5-1.12A3.53,3.53,0,0,1,401.33,118.36Z"/><path class="cls-2" d="M374.06,209.53,368.4,199.2l4.58-2.51a6.61,6.61,0,0,1,2.26-.87,2.59,2.59,0,0,1,1.68.35,3.34,3.34,0,0,1,1.29,1.32,3,3,0,0,1,.3,2.25,4.14,4.14,0,0,1-1.67,2.16,4,4,0,0,1,1.1.07,7.57,7.57,0,0,1,1.89.75l3.34,1.83-1.72.94-2.55-1.4c-.74-.4-1.32-.7-1.76-.89a3.79,3.79,0,0,0-1.08-.31,2.43,2.43,0,0,0-.77.07,4.11,4.11,0,0,0-.79.37l-1.59.87,2.52,4.59ZM372.27,203l2.94-1.61a5,5,0,0,0,1.36-1,1.78,1.78,0,0,0,.46-1.06,1.89,1.89,0,0,0-.23-1.07,1.77,1.77,0,0,0-1.2-.92,2.85,2.85,0,0,0-1.94.45l-3.27,1.79Z"/><path class="cls-2" d="M394,197.05l.67,1.22L387.8,202a2.39,2.39,0,0,1-.33-1,5.06,5.06,0,0,1,.08-1.84,14.32,14.32,0,0,1,.8-2.47,16,16,0,0,0,1.08-3.44,3,3,0,0,0-.24-1.85,1.92,1.92,0,0,0-1.24-1,2.2,2.2,0,0,0-1.69.25,2.26,2.26,0,0,0-1.17,1.35,2.41,2.41,0,0,0,.28,1.83l-1.38.58a3.7,3.7,0,0,1-.21-2.78,4,4,0,0,1,1.93-2.05,3.72,3.72,0,0,1,2.81-.46,3.07,3.07,0,0,1,2,1.57,3.6,3.6,0,0,1,.41,1.36,5.39,5.39,0,0,1-.15,1.72,23.06,23.06,0,0,1-1,2.89c-.41,1.06-.67,1.76-.76,2.1a5.39,5.39,0,0,0-.16,1Z"/><path class="cls-2" d="M518.1,747.75v-5L513.56,736h1.9l2.32,3.55c.43.67.83,1.33,1.2,2,.35-.62.78-1.31,1.28-2.08l2.29-3.47h1.81l-4.7,6.79v5Z"/><path class="cls-2" d="M518.1,55.67v-5l-4.54-6.79h1.9l2.32,3.55c.43.67.83,1.33,1.2,2,.35-.62.78-1.31,1.28-2.08l2.29-3.47h1.81l-4.7,6.79v5Z"/><path class="cls-2" d="M406.46,304.33l-6.89-9.56,4.24-3a6.87,6.87,0,0,1,2.13-1.15,2.63,2.63,0,0,1,1.72.15,3.36,3.36,0,0,1,1.44,1.15,3,3,0,0,1,.57,2.19,4.14,4.14,0,0,1-1.39,2.36,4.17,4.17,0,0,1,1.11-.08,8.06,8.06,0,0,1,2,.52l3.54,1.4-1.59,1.15-2.7-1.08q-1.17-.46-1.86-.66a3.81,3.81,0,0,0-1.11-.18,2.34,2.34,0,0,0-.76.17,4.09,4.09,0,0,0-.73.46l-1.47,1.06,3.06,4.24Zm-2.58-6.25,2.72-2a5,5,0,0,0,1.23-1.16,1.76,1.76,0,0,0,.33-1.11,2,2,0,0,0-.37-1,1.77,1.77,0,0,0-1.29-.76,2.86,2.86,0,0,0-1.87.69l-3,2.18Z"/><path class="cls-2" d="M413.41,286.7l-.81-1.13,6.19-4.46.66.91a16,16,0,0,0,.05,3.89,19.07,19.07,0,0,0,1,4.31,15.09,15.09,0,0,0,1.44,2.95l-1.2.87a14,14,0,0,1-1.52-3,17.71,17.71,0,0,1-1-4,16.37,16.37,0,0,1-.11-3.72Z"/><line class="cls-5" x1="451.42" y1="279.09" x2="405.11" y2="310.22"/><polygon class="cls-2" points="447.44 277.59 460.65 273.06 451.48 283.59 447.44 277.59"/><path class="cls-2" d="M420,569.51l7.83-8.81,3.9,3.47a7,7,0,0,1,1.58,1.83,2.62,2.62,0,0,1,.24,1.71,3.39,3.39,0,0,1-.82,1.65,2.94,2.94,0,0,1-2,1,4.21,4.21,0,0,1-2.6-.85,3.75,3.75,0,0,1,.31,1.06,7.84,7.84,0,0,1-.07,2l-.6,3.76-1.46-1.3.46-2.87c.13-.83.21-1.49.24-2a3.67,3.67,0,0,0-.07-1.12,2.26,2.26,0,0,0-.33-.7,3.73,3.73,0,0,0-.61-.62l-1.35-1.2-3.48,3.91Zm5.54-3.88,2.5,2.22a5.07,5.07,0,0,0,1.4.95,1.77,1.77,0,0,0,1.15.08,1.88,1.88,0,0,0,.94-.58,1.78,1.78,0,0,0,.46-1.43,2.8,2.8,0,0,0-1.08-1.68l-2.78-2.48Z"/><path class="cls-2" d="M438.7,572.45l.93-1,5.7,5.07-.75.84a16.17,16.17,0,0,0-3.78.9,19.34,19.34,0,0,0-4,1.92,15.19,15.19,0,0,0-2.57,2.05l-1.11-1a14.69,14.69,0,0,1,2.64-2.15,17.59,17.59,0,0,1,3.65-1.84,15.64,15.64,0,0,1,3.6-.92Z"/><path class="cls-2" d="M373.32,633.76l-1.36.48-3.08-8.69a7.64,7.64,0,0,1-1,1.4,9.14,9.14,0,0,1-1.19,1.21l-.47-1.31a8.53,8.53,0,0,0,1.54-2,5.5,5.5,0,0,0,.69-1.91l.87-.31Z"/><path class="cls-2" d="M375.27,625.76l-.55-1.56,1.55-.55.55,1.55Zm2.3,6.49-.55-1.56,1.56-.55.55,1.56Z"/><path class="cls-2" d="M380.09,628.05l1.3-.66a3.25,3.25,0,0,0,1.39,1.38,2.1,2.1,0,0,0,1.56,0,2.38,2.38,0,0,0,1.39-1.25,2.42,2.42,0,0,0,.08-1.89,2.28,2.28,0,0,0-1.17-1.33,2.24,2.24,0,0,0-1.78-.05,3.92,3.92,0,0,0-.9.49l-.28-1.25.23-.06a3,3,0,0,0,1.4-1,1.63,1.63,0,0,0,.2-1.65,1.7,1.7,0,0,0-.95-1.06,1.89,1.89,0,0,0-1.48,0,2,2,0,0,0-1.15,1,2.73,2.73,0,0,0-.15,1.74l-1.45.24a3.79,3.79,0,0,1,.38-2.53,3.51,3.51,0,0,1,1.94-1.53,3.78,3.78,0,0,1,1.81-.21,3,3,0,0,1,2.47,1.94,2.48,2.48,0,0,1,.07,1.45,2.69,2.69,0,0,1-.81,1.34,2.8,2.8,0,0,1,1.87.4,3,3,0,0,1,1.18,1.6,3.48,3.48,0,0,1-.18,2.84,4,4,0,0,1-2.33,2,3.72,3.72,0,0,1-2.73,0A3.63,3.63,0,0,1,380.09,628.05Z"/><path class="cls-2" d="M446.13,642.74l-1.45.06-.39-9.21a7.81,7.81,0,0,1-1.33,1.06,10.84,10.84,0,0,1-1.49.81l-.06-1.4a8.79,8.79,0,0,0,2.06-1.47,5.52,5.52,0,0,0,1.22-1.63l.93,0Z"/><path class="cls-2" d="M450.34,635.66l-.07-1.64,1.64-.07.08,1.64Zm.3,6.89-.07-1.65,1.64-.07.07,1.64Z"/><path class="cls-2" d="M459.85,642.15l-1.45.06L458,633a6.91,6.91,0,0,1-1.32,1,10,10,0,0,1-1.49.82l-.06-1.4a9.09,9.09,0,0,0,2.06-1.47,5.52,5.52,0,0,0,1.22-1.63l.93,0Z"/><path class="cls-2" d="M463.3,636.19a10.77,10.77,0,0,1,.28-3.38,4.16,4.16,0,0,1,1.19-2,3.23,3.23,0,0,1,2.11-.78,3.51,3.51,0,0,1,1.68.3,3.31,3.31,0,0,1,1.22,1.05,6.1,6.1,0,0,1,.81,1.72,11.52,11.52,0,0,1,.38,2.77,10.74,10.74,0,0,1-.28,3.37,4.1,4.1,0,0,1-1.19,2,3.57,3.57,0,0,1-4.83-.32C463.85,640,463.39,638.4,463.3,636.19Zm1.48-.07a7.46,7.46,0,0,0,.85,3.83,1.94,1.94,0,0,0,3.35-.15,7.45,7.45,0,0,0,.51-3.88c-.09-1.94-.37-3.22-.85-3.83a2,2,0,0,0-1.73-.89,1.85,1.85,0,0,0-1.55.91A7.49,7.49,0,0,0,464.78,636.12Z"/><line class="cls-5" x1="448.87" y1="602.43" x2="414.63" y2="575.12"/><polygon class="cls-2" points="449.11 598.19 457.4 609.43 444.6 603.84 449.11 598.19"/><line class="cls-5" x1="364.51" y1="221.34" x2="402.13" y2="200.52"/><polygon class="cls-2" points="368.34 223.18 354.79 226.54 364.84 216.85 368.34 223.18"/><line class="cls-3" x1="205.85" y1="775.14" x2="792.72" y2="775.14"/><polygon class="cls-2" points="208.32 778.6 194.83 774.99 208.32 771.37 208.32 778.6"/><polygon class="cls-2" points="790.25 778.61 803.75 774.99 790.25 771.37 790.25 778.61"/><line class="cls-3" x1="907.61" y1="74.63" x2="907.61" y2="711.82"/><polygon class="cls-2" points="904.15 77.09 907.76 63.6 911.38 77.09 904.15 77.09"/><polygon class="cls-2" points="904.15 709.35 907.76 722.84 911.38 709.35 904.15 709.35"/><line class="cls-3" x1="873.22" y1="611.11" x2="873.22" y2="711.82"/><polygon class="cls-2" points="869.75 613.58 873.37 600.09 876.98 613.58 869.75 613.58"/><polygon class="cls-2" points="869.75 709.35 873.37 722.84 876.98 709.35 869.75 709.35"/><line class="cls-3" x1="837.91" y1="685.15" x2="837.91" y2="711.82"/><polygon class="cls-2" points="834.44 687.61 838.06 674.12 841.67 687.61 834.44 687.61"/><polygon class="cls-2" points="834.44 709.35 838.06 722.84 841.67 709.35 834.44 709.35"/><line class="cls-3" x1="873.22" y1="74.63" x2="873.22" y2="266.26"/><polygon class="cls-2" points="869.75 77.09 873.37 63.6 876.99 77.09 869.75 77.09"/><polygon class="cls-2" points="869.75 263.79 873.37 277.29 876.99 263.79 869.75 263.79"/><line class="cls-3" x1="837.91" y1="74.63" x2="837.91" y2="113.59"/><polygon class="cls-2" points="834.44 77.09 838.06 63.6 841.67 77.09 834.44 77.09"/><polygon class="cls-2" points="834.44 111.12 838.06 124.61 841.67 111.12 834.44 111.12"/><path class="cls-2" d="M263.33,598.52l8.73-7.92,3.51,3.87a6.82,6.82,0,0,1,1.37,2,2.62,2.62,0,0,1,.05,1.73,3.24,3.24,0,0,1-1,1.55,3,3,0,0,1-2.12.82,4.11,4.11,0,0,1-2.49-1.12,4,4,0,0,1,.2,1.09,8.4,8.4,0,0,1-.29,2l-1,3.67L269,604.76l.77-2.8c.22-.82.36-1.46.44-1.93a3.73,3.73,0,0,0,.06-1.11,2.39,2.39,0,0,0-.25-.74,4.5,4.5,0,0,0-.54-.68l-1.22-1.34-3.87,3.51Zm5.93-3.27,2.25,2.48a4.66,4.66,0,0,0,1.28,1.09,1.8,1.8,0,0,0,1.14.21,1.91,1.91,0,0,0,1-.48,1.77,1.77,0,0,0,.61-1.37,2.83,2.83,0,0,0-.89-1.78l-2.51-2.77Z"/><path class="cls-2" d="M280.11,615l-1,.94-5.23-5.78a2.5,2.5,0,0,1,.86-.54,5.29,5.29,0,0,1,1.8-.35,14.92,14.92,0,0,1,2.6.2,15.56,15.56,0,0,0,3.59.25,3,3,0,0,0,1.74-.67,1.88,1.88,0,0,0,.66-1.43,2.15,2.15,0,0,0-.64-1.58,2.22,2.22,0,0,0-1.58-.82,2.39,2.39,0,0,0-1.72.69l-.88-1.2a3.66,3.66,0,0,1,2.65-.85,3.85,3.85,0,0,1,2.44,1.4,3.73,3.73,0,0,1,1.11,2.62,3.08,3.08,0,0,1-1.06,2.29,3.44,3.44,0,0,1-1.23.72,5.3,5.3,0,0,1-1.71.26,22.71,22.71,0,0,1-3-.26,20.38,20.38,0,0,0-2.23-.24,4.53,4.53,0,0,0-1,.07Z"/><path class="cls-2" d="M284.43,613.14a11,11,0,0,1,2.78-1.94,4.19,4.19,0,0,1,2.32-.37,3.26,3.26,0,0,1,1.94,1.11,3.46,3.46,0,0,1,.84,1.49,3.29,3.29,0,0,1,0,1.62,6,6,0,0,1-.81,1.72,11.78,11.78,0,0,1-1.89,2.07,10.92,10.92,0,0,1-2.76,1.93,4.28,4.28,0,0,1-2.32.38,3.6,3.6,0,0,1-2.85-3.93Q282,615.38,284.43,613.14Zm1,1.1a7.48,7.48,0,0,0-2.41,3.1,1.94,1.94,0,0,0,2.26,2.48,7.39,7.39,0,0,0,3.31-2.09c1.44-1.3,2.24-2.33,2.41-3.1a2,2,0,0,0-.42-1.89,1.86,1.86,0,0,0-1.7-.61A7.37,7.37,0,0,0,285.43,614.24Z"/><line class="cls-5" x1="305.37" y1="653.93" x2="257.82" y2="600.84"/><polygon class="cls-2" points="306.3 649.78 312.61 662.24 300.92 654.6 306.3 649.78"/><path class="cls-2" d="M222.78,689l7.43-9.15,4,3.3a6.81,6.81,0,0,1,1.66,1.76,2.57,2.57,0,0,1,.31,1.69,3.27,3.27,0,0,1-.74,1.69,3,3,0,0,1-2,1.13,4.16,4.16,0,0,1-2.64-.73,3.68,3.68,0,0,1,.36,1,8.11,8.11,0,0,1,0,2l-.43,3.78-1.53-1.24.34-2.88c.09-.84.14-1.5.15-2a3.33,3.33,0,0,0-.12-1.11,2.19,2.19,0,0,0-.35-.7,5.14,5.14,0,0,0-.64-.59l-1.4-1.14L224,690Zm5.36-4.13,2.6,2.12a4.92,4.92,0,0,0,1.44.88,1.75,1.75,0,0,0,1.15,0,1.93,1.93,0,0,0,.91-.62,1.73,1.73,0,0,0,.4-1.45,2.83,2.83,0,0,0-1.15-1.63l-2.89-2.35Z"/><path class="cls-2" d="M237.06,696.56l1.24.77a3.19,3.19,0,0,0-.46,1.91,2.11,2.11,0,0,0,.79,1.34,2.34,2.34,0,0,0,1.79.54,2.39,2.39,0,0,0,1.65-.92,2.23,2.23,0,0,0,.53-1.69,2.27,2.27,0,0,0-.88-1.54,4.1,4.1,0,0,0-.89-.52l.92-.88.17.15a3,3,0,0,0,1.6.68,1.66,1.66,0,0,0,1.51-.69,1.77,1.77,0,0,0,.42-1.36,1.91,1.91,0,0,0-.75-1.28,2,2,0,0,0-1.43-.48,2.71,2.71,0,0,0-1.57.78l-1-1.11a3.75,3.75,0,0,1,2.36-1,3.51,3.51,0,0,1,2.32.85,3.92,3.92,0,0,1,1.12,1.45,3,3,0,0,1,.25,1.66,2.92,2.92,0,0,1-.63,1.45,2.59,2.59,0,0,1-1.19.82,2.79,2.79,0,0,1-1.57,0,2.75,2.75,0,0,1,.63,1.8,3,3,0,0,1-.75,1.84,3.51,3.51,0,0,1-2.53,1.33,3.94,3.94,0,0,1-2.88-1,3.7,3.7,0,0,1-1.42-2.34A3.57,3.57,0,0,1,237.06,696.56Z"/><line class="cls-5" x1="208.79" y1="684" x2="242.33" y2="712.59"/><polygon class="cls-2" points="208.42 688.23 200.5 676.73 213.12 682.73 208.42 688.23"/><line class="cls-5" x1="161.75" y1="425.34" x2="161.74" y2="711.81"/><polygon class="cls-2" points="158.28 427.81 161.9 414.31 165.51 427.81 158.28 427.81"/><polygon class="cls-2" points="158.28 709.35 161.9 722.84 165.51 709.35 158.28 709.35"/><line class="cls-3" x1="369.61" y1="20.64" x2="629.36" y2="20.64"/><polygon class="cls-2" points="372.08 24.11 358.59 20.49 372.08 16.87 372.08 24.11"/><polygon class="cls-2" points="626.89 24.11 640.39 20.49 626.89 16.87 626.89 24.11"/><line class="cls-5" x1="437.14" y1="79.23" x2="445.31" y2="195.09"/><polygon class="cls-2" points="433.86 81.94 436.52 68.22 441.07 81.43 433.86 81.94"/><line class="cls-5" x1="409.17" y1="80.22" x2="420.95" y2="146.55"/><polygon class="cls-2" points="406.19 83.25 407.39 69.34 413.31 81.99 406.19 83.25"/><line class="cls-5" x1="370.27" y1="124.07" x2="417.53" y2="127.56"/><polygon class="cls-2" points="372.48 127.71 359.29 123.11 373.01 120.5 372.48 127.71"/><line class="cls-3" x1="476.37" y1="489.97" x2="522.52" y2="489.97"/><polygon class="cls-2" points="478.84 493.44 465.34 489.82 478.84 486.2 478.84 493.44"/><polygon class="cls-2" points="520.05 493.44 533.54 489.82 520.05 486.2 520.05 493.44"/><path class="cls-2" d="M903,413.11v1.45h-9.22a7,7,0,0,1,1,1.37,8.46,8.46,0,0,1,.75,1.52h-1.4a8.62,8.62,0,0,0-1.38-2.12,5.34,5.34,0,0,0-1.58-1.29v-.93Z"/><path class="cls-2" d="M903,404.76h-2.82v5.12h-1.33l-7.64-5.38v-1.18h7.64v-1.59h1.33v1.59H903Zm-4.15,0h-5.31l5.31,3.69Z"/><path class="cls-2" d="M899.92,400.25l-.13-1.52a2.71,2.71,0,0,0,1.67-.79,2.13,2.13,0,0,0,.56-1.48,2.31,2.31,0,0,0-.79-1.77,3,3,0,0,0-2.09-.72,2.65,2.65,0,0,0-1.95.7,2.41,2.41,0,0,0-.72,1.82,2.56,2.56,0,0,0,.32,1.26,2.49,2.49,0,0,0,.82.88l-.17,1.36-6.06-1.14V393h1.39v4.7l3.16.64a3.87,3.87,0,0,1-.74-2.23,3.52,3.52,0,0,1,1.07-2.6,3.75,3.75,0,0,1,2.75-1.07,4.32,4.32,0,0,1,2.77.94,3.73,3.73,0,0,1,1.43,3.09,3.83,3.83,0,0,1-.9,2.63A3.57,3.57,0,0,1,899.92,400.25Z"/><path class="cls-2" d="M754.64,696.79l4.34-11,4.86,1.93a6.93,6.93,0,0,1,2.11,1.18,2.57,2.57,0,0,1,.8,1.52,3.34,3.34,0,0,1-.2,1.84A3,3,0,0,1,765,694a4.17,4.17,0,0,1-2.74.09,4.09,4.09,0,0,1,.66.89,8.34,8.34,0,0,1,.63,1.94l.72,3.74-1.82-.73-.55-2.85c-.16-.83-.31-1.47-.45-1.93a3.55,3.55,0,0,0-.44-1,2.05,2.05,0,0,0-.55-.55,4.72,4.72,0,0,0-.78-.38L758,692.5l-1.93,4.86Zm3.87-5.55,3.12,1.24a5.06,5.06,0,0,0,1.64.41,1.83,1.83,0,0,0,1.11-.32,1.94,1.94,0,0,0,.68-.87,1.75,1.75,0,0,0-.06-1.5,2.83,2.83,0,0,0-1.58-1.21L760,687.62Z"/><path class="cls-2" d="M777,704.14l-.51,1.3-7.24-2.88a2.43,2.43,0,0,1,.53-.87,5.23,5.23,0,0,1,1.46-1.1,15.25,15.25,0,0,1,2.42-1,15.34,15.34,0,0,0,3.33-1.36,2.93,2.93,0,0,0,1.27-1.37,2,2,0,0,0,0-1.57,2.2,2.2,0,0,0-1.28-1.14,2.25,2.25,0,0,0-1.78,0,2.42,2.42,0,0,0-1.23,1.38l-1.33-.69a3.7,3.7,0,0,1,2-1.93,3.86,3.86,0,0,1,2.81.18,3.7,3.7,0,0,1,2.15,1.86,3.06,3.06,0,0,1,.06,2.53,3.41,3.41,0,0,1-.78,1.19,5.42,5.42,0,0,1-1.42,1,25.73,25.73,0,0,1-2.84,1.11,22,22,0,0,0-2.1.76,5,5,0,0,0-.86.5Z"/><line class="cls-3" x1="791.28" y1="716.09" x2="749.91" y2="700.6"/><polygon class="cls-2" points="790.19 711.98 801.55 720.1 787.65 718.75 790.19 711.98"/><line class="cls-6" x1="500.03" y1="43.25" x2="500.03" y2="750.17"/></g><g id="Watermark"><rect class="cls-1" x="435.92" y="624.46" width="123.09" height="46.3"/><rect class="cls-7" x="442.33" y="632.3" width="62.89" height="30.62"/><rect class="cls-7" x="505.22" y="632.3" width="47.39" height="30.62"/><path class="cls-8" d="M464,638.4l-2.79,18.92h-2.74l-1.55-11-1.53,11H452.6l-2.79-18.92h2.5l1.79,14.18,1.79-14.18h2l1.79,14.18,1.79-14.18Z"/><path class="cls-8" d="M465.4,657.32V638.4h2.53v18.92Z"/><path class="cls-8" d="M470.3,638.4h5q2.89,0,2.9,3.24v4.67c0,1.65-.5,2.69-1.51,3.13l1.77,7.88H476l-1.66-7.64h-1.53v7.64H470.3Zm2.53,9.12h1.66c.76,0,1.14-.46,1.14-1.37v-4.09c0-.91-.38-1.37-1.14-1.37h-1.66Z"/><path class="cls-8" d="M484.29,640.69v16.63h-2.52V640.69h-2.43V638.4h7.38v2.29Z"/><path class="cls-8" d="M493.81,657.32v-8.59H490.7v8.59h-2.53V638.4h2.53v8h3.11v-8h2.53v18.92Z"/><path class="cls-8" d="M513.78,638.4h5q2.89,0,2.89,3.24v4.67c0,1.65-.5,2.69-1.5,3.13l1.77,7.88h-2.4l-1.66-7.64h-1.53v7.64h-2.53Zm2.53,9.12H518c.76,0,1.13-.46,1.13-1.37v-4.09c0-.91-.37-1.37-1.13-1.37h-1.66Z"/><path class="cls-8" d="M526.14,657.32h-2.53V641.64q0-3.24,3-3.24h1.9q3,0,3,3.24v15.68H529v-6.93h-2.9Zm2.9-9.22v-6.3a1,1,0,0,0-1.11-1.11h-.68a1,1,0,0,0-1.11,1.11v6.3Z"/><path class="cls-8" d="M533.81,657.32V638.4h2.53v18.92Z"/><path class="cls-8" d="M544.71,657.32h-6V638.4h2.53V655h3.47Z"/></g></svg>