<svg xmlns="http://www.w3.org/2000/svg" xmlns:xlink="http://www.w3.org/1999/xlink" viewBox="0 0 1000 800"><defs><style>.cls-1,.cls-11,.cls-12,.cls-13,.cls-14,.cls-3,.cls-4,.cls-5,.cls-6,.cls-7{fill:none;}.cls-15,.cls-2{fill:#f0f0f0;}.cls-11,.cls-13,.cls-14,.cls-3,.cls-4,.cls-5,.cls-6,.cls-7{stroke:#241f21;}.cls-11,.cls-12,.cls-13,.cls-14,.cls-3,.cls-5,.cls-7{stroke-width:0.98px;}.cls-4,.cls-5{stroke-linecap:round;stroke-linejoin:round;}.cls-4,.cls-6{stroke-width:0.98px;}.cls-7{stroke-miterlimit:1;}.cls-8{clip-path:url(#clip-path);}.cls-9{fill:#303030;}.cls-10{fill:#241f21;}.cls-11{stroke-dasharray:16.5 4.98;}.cls-12{stroke:#303030;}.cls-12,.cls-15{stroke-miterlimit:10;}.cls-13{stroke-dasharray:16.52 5.01;}.cls-14{stroke-dasharray:16.48 4.96;}.cls-15{stroke:#ccc;}.cls-16{fill:#ccc;}</style><clipPath id="clip-path"><polyline class="cls-1" points="138.44 791.65 901.5 791.65 901.5 2.79 138.44 2.79"/></clipPath></defs><g id="Flat"><path class="cls-2" d="M239.2,719.31H760.71a6.4,6.4,0,0,0,6.42-6.41V685.72A12.81,12.81,0,0,0,755.93,673l-52.08-6.67a170.89,170.89,0,0,1-32.36-7.39L560.06,621.79a29.91,29.91,0,0,1-19.86-22.42A512.83,512.83,0,0,1,529.88,497V368.79A341.5,341.5,0,0,1,535.51,307a29.93,29.93,0,0,1,20-23l87.89-29.29a8.56,8.56,0,0,0,5.83-8.61l-6-103.89a55.57,55.57,0,0,0-43.1-50.95,343,343,0,0,0-67.47-8.49q-16.3-.41-32.63-.41t-32.63.41a343.11,343.11,0,0,0-67.48,8.49,55.58,55.58,0,0,0-43.1,50.95l-6,103.89a8.54,8.54,0,0,0,5.83,8.61L444.44,284a30,30,0,0,1,20,23A342.41,342.41,0,0,1,470,368.79V497a512.83,512.83,0,0,1-10.32,102.35,29.93,29.93,0,0,1-19.85,22.42L328.42,658.94a170.79,170.79,0,0,1-32.35,7.39L244,673a12.81,12.81,0,0,0-11.19,12.72V712.9a6.4,6.4,0,0,0,6.41,6.41"/><path class="cls-3" d="M239.2,719.31H760.71a6.4,6.4,0,0,0,6.42-6.41V685.72A12.81,12.81,0,0,0,755.93,673l-52.08-6.67a170.89,170.89,0,0,1-32.36-7.39L560.06,621.79a29.91,29.91,0,0,1-19.86-22.42A512.83,512.83,0,0,1,529.88,497V368.79A341.5,341.5,0,0,1,535.51,307a29.93,29.93,0,0,1,20-23l87.89-29.29a8.56,8.56,0,0,0,5.83-8.61l-6-103.89a55.57,55.57,0,0,0-43.1-50.95,343,343,0,0,0-67.47-8.49q-16.3-.41-32.63-.41t-32.63.41a343.11,343.11,0,0,0-67.48,8.49,55.58,55.58,0,0,0-43.1,50.95l-6,103.89a8.54,8.54,0,0,0,5.83,8.61L444.44,284a30,30,0,0,1,20,23A342.41,342.41,0,0,1,470,368.79V497a512.83,512.83,0,0,1-10.32,102.35,29.93,29.93,0,0,1-19.85,22.42L328.42,658.94a170.79,170.79,0,0,1-32.35,7.39L244,673a12.81,12.81,0,0,0-11.19,12.72V712.9a6.4,6.4,0,0,0,6.41,6.41Z"/><path class="cls-4" d="M500,601.76l60.09,20m-120.18,0,60.09-20m0,38.46,203.89,26.11m-407.78,0L500,640.22"/><path class="cls-5" d="M500,302.53,555.48,284m-111,0L500,302.53"/><path class="cls-6" d="M230.36,368.79a4.27,4.27,0,1,0-4.27,4.27A4.28,4.28,0,0,0,230.36,368.79Zm0,128.24a4.27,4.27,0,1,0-4.27,4.27A4.27,4.27,0,0,0,230.36,497Z"/><line class="cls-7" x1="643.16" y1="142.23" x2="689.74" y2="142.23"/><line class="cls-5" x1="499.96" y1="302.53" x2="733.04" y2="302.53"/><path class="cls-7" d="M532.59,82.79V42.09m-65.26,40.7V42.09M643.16,142.23V15.49M356.75,142.23V15.49"/><g class="cls-8"><path class="cls-5" d="M767.13,712.9v79.44M232.79,712.9v79.44"/></g><line class="cls-7" x1="760.72" y1="674.43" x2="796.09" y2="674.43"/><path class="cls-5" d="M760.72,719.31H891.54M500,601.76H825.09"/><g class="cls-8"><line class="cls-7" x1="499.96" y1="82.38" x2="903.1" y2="82.38"/></g><line class="cls-4" x1="239.2" y1="719.31" x2="161.22" y2="719.31"/><path class="cls-9" d="M346.18,219.71l-.09,1.23-7.86-.57a6.23,6.23,0,0,1,.76,1.23,8.87,8.87,0,0,1,.55,1.34l-1.19-.08a7.7,7.7,0,0,0-1.05-1.9,4.73,4.73,0,0,0-1.26-1.19l0-.8Z"/><path class="cls-9" d="M340.59,215.44l-1.41-.11.1-1.4,1.41.1Zm5.87.42-1.41-.1.1-1.4,1.41.1Z"/><path class="cls-9" d="M347,208l-.09,1.23-7.86-.57a6.1,6.1,0,0,1,.77,1.23,8.72,8.72,0,0,1,.54,1.34l-1.19-.09a7.82,7.82,0,0,0-1.05-1.89,4.45,4.45,0,0,0-1.26-1.19l.06-.8Z"/><path class="cls-9" d="M338.54,204.13l-1.19-.09.47-6.5,1,.07a14,14,0,0,0,2.58,2.1,16.44,16.44,0,0,0,3.37,1.71,12.69,12.69,0,0,0,2.73.67l-.09,1.27a12.06,12.06,0,0,1-2.83-.67,15.23,15.23,0,0,1-3.15-1.52,13.85,13.85,0,0,1-2.5-2Z"/><path class="cls-9" d="M347.87,196.36l-1.4-.11.1-1.4,1.41.1Z"/><path class="cls-9" d="M347.4,186.58l1.19.09-.49,6.63a2.16,2.16,0,0,1-.84-.2,4.58,4.58,0,0,1-1.28-.91,12.54,12.54,0,0,1-1.4-1.72,13.5,13.5,0,0,0-2-2.37,2.62,2.62,0,0,0-1.44-.69,1.68,1.68,0,0,0-1.28.44,1.89,1.89,0,0,0-.6,1.33,1.94,1.94,0,0,0,.43,1.46,2,2,0,0,0,1.44.65l-.22,1.26a3.15,3.15,0,0,1-2.09-1.14,3.36,3.36,0,0,1-.58-2.33,3.2,3.2,0,0,1,1-2.23,2.62,2.62,0,0,1,2.05-.7,3.12,3.12,0,0,1,1.17.33,4.94,4.94,0,0,1,1.16.91,19.35,19.35,0,0,1,1.63,2c.57.79,1,1.29,1.16,1.52a5.41,5.41,0,0,0,.63.57Z"/><path class="cls-9" d="M477.2,5.43,476,5.52a2.38,2.38,0,0,0-.47-1.06,1.64,1.64,0,0,0-1.24-.52,1.69,1.69,0,0,0-1,.33,2.72,2.72,0,0,0-.92,1.24A6.37,6.37,0,0,0,472,7.84a2.76,2.76,0,0,1,1.09-1,2.93,2.93,0,0,1,1.35-.33,2.79,2.79,0,0,1,2.11.91,3.25,3.25,0,0,1,.87,2.35,3.89,3.89,0,0,1-.41,1.76,3,3,0,0,1-1.13,1.25,3,3,0,0,1-1.62.43,3.16,3.16,0,0,1-2.52-1.14,5.71,5.71,0,0,1-1-3.74,6.73,6.73,0,0,1,1.08-4.25,3.08,3.08,0,0,1,2.53-1.15,2.84,2.84,0,0,1,2,.67A2.82,2.82,0,0,1,477.2,5.43Zm-5.05,4.34a2.89,2.89,0,0,0,.27,1.22,2,2,0,0,0,.76.89,1.92,1.92,0,0,0,1,.3,1.75,1.75,0,0,0,1.35-.63,2.5,2.5,0,0,0,.56-1.71,2.33,2.33,0,0,0-.55-1.65,1.85,1.85,0,0,0-1.41-.6,1.92,1.92,0,0,0-1.42.6A2.17,2.17,0,0,0,472.15,9.77Z"/><path class="cls-9" d="M478.69,4.28V3.09h6.52v1a13.76,13.76,0,0,0-1.91,2.72,16.46,16.46,0,0,0-1.46,3.49,12.91,12.91,0,0,0-.47,2.77H480.1a12.49,12.49,0,0,1,.46-2.87,15.58,15.58,0,0,1,1.28-3.25,13.84,13.84,0,0,1,1.78-2.63Z"/><g class="cls-8"><path class="cls-9" d="M493,16a12.42,12.42,0,0,1-1.73-3,9.47,9.47,0,0,1-.18-6.72A13.11,13.11,0,0,1,493,2.79h.89a21.89,21.89,0,0,0-1.1,2,11,11,0,0,0-.66,2,11.23,11.23,0,0,0-.3,2.58,12.41,12.41,0,0,0,2.06,6.6Z"/></g><path class="cls-9" d="M501.51,11.84V13h-6.65a2.28,2.28,0,0,1,.14-.86,4.49,4.49,0,0,1,.82-1.34,12.25,12.25,0,0,1,1.61-1.52,13.15,13.15,0,0,0,2.22-2.14,2.51,2.51,0,0,0,.58-1.48,1.65,1.65,0,0,0-.53-1.24,1.87,1.87,0,0,0-1.37-.51,1.94,1.94,0,0,0-1.43.54A2.08,2.08,0,0,0,496.36,6l-1.27-.13a3.18,3.18,0,0,1,1-2.17,3.39,3.39,0,0,1,2.29-.74,3.19,3.19,0,0,1,2.29.8,2.62,2.62,0,0,1,.85,2,2.92,2.92,0,0,1-.25,1.19,4.53,4.53,0,0,1-.82,1.23,20.49,20.49,0,0,1-1.9,1.77c-.75.63-1.22,1-1.43,1.27a3.8,3.8,0,0,0-.52.67Z"/><path class="cls-9" d="M503.53,13V11.62h1.41V13Z"/><path class="cls-9" d="M513.87,5.43l-1.23.09a2.38,2.38,0,0,0-.47-1.06,1.64,1.64,0,0,0-1.24-.52,1.67,1.67,0,0,0-1,.33A2.72,2.72,0,0,0,509,5.51a6.37,6.37,0,0,0-.35,2.33,2.76,2.76,0,0,1,1.09-1,2.93,2.93,0,0,1,1.35-.33,2.79,2.79,0,0,1,2.11.91,3.25,3.25,0,0,1,.87,2.35,3.89,3.89,0,0,1-.41,1.76,3.05,3.05,0,0,1-1.13,1.25,3,3,0,0,1-1.62.43,3.16,3.16,0,0,1-2.52-1.14,5.71,5.71,0,0,1-1-3.74,6.73,6.73,0,0,1,1.08-4.25A3.08,3.08,0,0,1,511,2.92a2.84,2.84,0,0,1,2,.67A2.82,2.82,0,0,1,513.87,5.43Zm-5.05,4.34a2.89,2.89,0,0,0,.27,1.22,2,2,0,0,0,.76.89,1.89,1.89,0,0,0,1,.3,1.76,1.76,0,0,0,1.35-.63,2.5,2.5,0,0,0,.56-1.71,2.33,2.33,0,0,0-.55-1.65,1.85,1.85,0,0,0-1.41-.6,1.92,1.92,0,0,0-1.42.6A2.17,2.17,0,0,0,508.82,9.77Z"/><path class="cls-9" d="M515.28,10.37l1.24-.16a2.71,2.71,0,0,0,.72,1.51,1.79,1.79,0,0,0,1.25.46,2,2,0,0,0,1.47-.6,2,2,0,0,0,.6-1.5,1.9,1.9,0,0,0-.55-1.4,1.93,1.93,0,0,0-1.42-.55,3.59,3.59,0,0,0-.87.13l.14-1.08h.2a2.59,2.59,0,0,0,1.42-.41,1.42,1.42,0,0,0,.63-1.27,1.51,1.51,0,0,0-.46-1.13,1.62,1.62,0,0,0-1.19-.44,1.69,1.69,0,0,0-1.2.45,2.25,2.25,0,0,0-.62,1.36l-1.23-.22a3.17,3.17,0,0,1,1-1.93,3,3,0,0,1,2-.68,3.36,3.36,0,0,1,1.52.35,2.56,2.56,0,0,1,1.06,1,2.44,2.44,0,0,1,.37,1.3A2.12,2.12,0,0,1,521,6.72a2.36,2.36,0,0,1-1,.86,2.3,2.3,0,0,1,1.39.85,2.62,2.62,0,0,1,.5,1.63,3,3,0,0,1-1,2.23,3.38,3.38,0,0,1-2.43.92,3.14,3.14,0,0,1-2.2-.79A3.07,3.07,0,0,1,515.28,10.37Z"/><path class="cls-9" d="M525,7.57a2.42,2.42,0,0,1-1.14-.8,2.1,2.1,0,0,1-.37-1.25,2.43,2.43,0,0,1,.79-1.85,3.33,3.33,0,0,1,4.22,0,2.5,2.5,0,0,1,.81,1.87,2.1,2.1,0,0,1-.37,1.22,2.4,2.4,0,0,1-1.12.8,2.72,2.72,0,0,1,1.41,1,2.65,2.65,0,0,1,.49,1.61,2.91,2.91,0,0,1-.91,2.17,3.73,3.73,0,0,1-4.81,0,2.94,2.94,0,0,1-.92-2.2,2.68,2.68,0,0,1,.5-1.65A2.51,2.51,0,0,1,525,7.57Zm-.65,2.55a2.22,2.22,0,0,0,.26,1,1.7,1.7,0,0,0,.74.76,2.21,2.21,0,0,0,1.07.27,2,2,0,0,0,1.46-.57,2,2,0,0,0,.58-1.44,2,2,0,0,0-.6-1.48,2,2,0,0,0-1.49-.59,2,2,0,0,0-1.44.58A2,2,0,0,0,524.35,10.12Zm.4-4.65a1.59,1.59,0,0,0,.46,1.17,1.65,1.65,0,0,0,1.2.45,1.61,1.61,0,0,0,1.17-.44A1.52,1.52,0,0,0,528,5.54a1.55,1.55,0,0,0-.47-1.14,1.74,1.74,0,0,0-2.35,0A1.45,1.45,0,0,0,524.75,5.47Z"/><path class="cls-9" d="M531.33,6.53,531,4.61V3h1.41V4.61l-.31,1.92Zm2.27,0-.34-1.92V3h1.41V4.61l-.33,1.92Z"/><g class="cls-8"><path class="cls-9" d="M537,16h-.89a12.41,12.41,0,0,0,2.06-6.6,11.06,11.06,0,0,0-.3-2.56,10.93,10.93,0,0,0-.65-2c-.18-.41-.55-1.1-1.11-2.06H537A13.11,13.11,0,0,1,539,6.25a9.47,9.47,0,0,1-.18,6.72A12.76,12.76,0,0,1,537,16Z"/></g><path class="cls-9" d="M483.86,45.19h-1.24V37.31a6.23,6.23,0,0,1-1.17.86,8,8,0,0,1-1.3.63V37.61A7.54,7.54,0,0,0,482,36.43a4.45,4.45,0,0,0,1.1-1.35h.8Z"/><path class="cls-9" d="M487,42.55l1.29-.11a2.35,2.35,0,0,0,.67,1.43,1.83,1.83,0,0,0,1.27.48,2,2,0,0,0,1.51-.68,2.54,2.54,0,0,0,.62-1.78,2.31,2.31,0,0,0-.59-1.67,2.08,2.08,0,0,0-1.56-.61,2.16,2.16,0,0,0-1.08.27,2,2,0,0,0-.75.7l-1.16-.15,1-5.17h5v1.18h-4l-.54,2.71a3.27,3.27,0,0,1,1.9-.63,3,3,0,0,1,2.23.91,3.2,3.2,0,0,1,.9,2.35,3.66,3.66,0,0,1-.79,2.36,3.55,3.55,0,0,1-4.89.45A3,3,0,0,1,487,42.55Z"/><path class="cls-9" d="M495.54,45.19V43.78H497v1.41Z"/><path class="cls-9" d="M505.25,44v1.19H498.6a2.28,2.28,0,0,1,.14-.86,4.49,4.49,0,0,1,.82-1.34,13,13,0,0,1,1.61-1.52,13.6,13.6,0,0,0,2.22-2.13,2.54,2.54,0,0,0,.58-1.49,1.63,1.63,0,0,0-.53-1.24,1.87,1.87,0,0,0-1.37-.51,1.9,1.9,0,0,0-1.42.54,2,2,0,0,0-.55,1.48L498.83,38a3.16,3.16,0,0,1,1-2.16,3.34,3.34,0,0,1,2.29-.75,3.23,3.23,0,0,1,2.3.8,2.66,2.66,0,0,1,.84,2,3,3,0,0,1-.25,1.19,4.42,4.42,0,0,1-.82,1.22,19.08,19.08,0,0,1-1.9,1.78c-.75.62-1.22,1-1.43,1.26a4.2,4.2,0,0,0-.52.67Z"/><path class="cls-9" d="M513,37.59l-1.23.09a2.34,2.34,0,0,0-.47-1,1.63,1.63,0,0,0-1.24-.53,1.72,1.72,0,0,0-1,.33,2.93,2.93,0,0,0-.92,1.24,6.64,6.64,0,0,0-.35,2.33,2.9,2.9,0,0,1,2.45-1.34,2.77,2.77,0,0,1,2.1.91,3.27,3.27,0,0,1,.87,2.35,3.89,3.89,0,0,1-.4,1.76A3,3,0,0,1,510,45.36a3.18,3.18,0,0,1-2.52-1.13,5.75,5.75,0,0,1-1-3.75,6.68,6.68,0,0,1,1.08-4.24,3.12,3.12,0,0,1,2.54-1.16,2.79,2.79,0,0,1,1.94.67A2.86,2.86,0,0,1,513,37.59ZM508,41.93a2.89,2.89,0,0,0,.27,1.22A2,2,0,0,0,509,44a1.9,1.9,0,0,0,1,.31,1.76,1.76,0,0,0,1.35-.63,2.54,2.54,0,0,0,.56-1.72,2.34,2.34,0,0,0-.56-1.65,1.82,1.82,0,0,0-1.4-.6,1.9,1.9,0,0,0-1.42.6A2.17,2.17,0,0,0,508,41.93Z"/><path class="cls-9" d="M514.45,36.44V35.25H521v1a14.07,14.07,0,0,0-1.91,2.72,17.23,17.23,0,0,0-1.46,3.49,13.68,13.68,0,0,0-.47,2.77h-1.27a12,12,0,0,1,.47-2.87,14.47,14.47,0,0,1,1.28-3.24,13.92,13.92,0,0,1,1.77-2.64Z"/><path class="cls-9" d="M332.7,491.14V481.08h4.46a6,6,0,0,1,2,.27,2.22,2.22,0,0,1,1.12,1,2.82,2.82,0,0,1,.42,1.51,2.54,2.54,0,0,1-.69,1.81,3.52,3.52,0,0,1-2.15.93,3.7,3.7,0,0,1,.81.5,7.23,7.23,0,0,1,1.1,1.34l1.75,2.74H339.9l-1.33-2.09c-.39-.6-.71-1.07-1-1.39a3,3,0,0,0-.67-.67,1.93,1.93,0,0,0-.61-.27,4.14,4.14,0,0,0-.74-.05H334v4.47Zm1.33-5.62h2.87a4.22,4.22,0,0,0,1.43-.19,1.59,1.59,0,0,0,.78-.6,1.64,1.64,0,0,0,.27-.91,1.52,1.52,0,0,0-.52-1.17,2.42,2.42,0,0,0-1.64-.46H334Z"/><path class="cls-9" d="M347,491.14h-1.23v-7.87a7.11,7.11,0,0,1-1.17.85,8.62,8.62,0,0,1-1.31.64v-1.2a7.32,7.32,0,0,0,1.82-1.18,4.77,4.77,0,0,0,1.1-1.35H347Z"/><path class="cls-9" d="M356.66,490v1.18H350a2.06,2.06,0,0,1,.15-.85A4.33,4.33,0,0,1,351,489a12.43,12.43,0,0,1,1.62-1.53,14.51,14.51,0,0,0,2.22-2.13,2.59,2.59,0,0,0,.57-1.49,1.65,1.65,0,0,0-.52-1.24,1.92,1.92,0,0,0-1.37-.5,2,2,0,0,0-1.43.53,2,2,0,0,0-.54,1.49l-1.28-.13a3.15,3.15,0,0,1,1-2.17,3.33,3.33,0,0,1,2.28-.75,3.18,3.18,0,0,1,2.3.81,2.64,2.64,0,0,1,.84,2,3.12,3.12,0,0,1-.24,1.19,4.78,4.78,0,0,1-.82,1.23,20.91,20.91,0,0,1-1.91,1.77,18.89,18.89,0,0,0-1.43,1.27,3.91,3.91,0,0,0-.52.67Z"/><path class="cls-9" d="M358,486.18a9.12,9.12,0,0,1,.37-2.88,3.61,3.61,0,0,1,1.09-1.67,2.78,2.78,0,0,1,1.83-.6,3,3,0,0,1,1.42.33,2.75,2.75,0,0,1,1,.94,5.17,5.17,0,0,1,.62,1.5,10,10,0,0,1,.23,2.38,9,9,0,0,1-.37,2.86,3.51,3.51,0,0,1-1.08,1.68,2.8,2.8,0,0,1-1.83.6,2.74,2.74,0,0,1-2.29-1.05A6.59,6.59,0,0,1,358,486.18Zm1.27,0a6.4,6.4,0,0,0,.58,3.3,1.67,1.67,0,0,0,2.87,0,9.68,9.68,0,0,0,0-6.6,1.72,1.72,0,0,0-1.45-.82,1.58,1.58,0,0,0-1.36.72A6.44,6.44,0,0,0,359.25,486.18Z"/><path class="cls-9" d="M342.07,364.7V354.63h4.46a6,6,0,0,1,2.05.27,2.27,2.27,0,0,1,1.12,1,2.88,2.88,0,0,1,.42,1.52,2.56,2.56,0,0,1-.69,1.81,3.52,3.52,0,0,1-2.15.93,4,4,0,0,1,.81.5,7.23,7.23,0,0,1,1.1,1.34l1.75,2.74h-1.67l-1.34-2.09a14.14,14.14,0,0,0-1-1.39,2.79,2.79,0,0,0-.67-.67,2,2,0,0,0-.61-.27,4.14,4.14,0,0,0-.74,0H343.4v4.47Zm1.33-5.62h2.87a4.42,4.42,0,0,0,1.42-.19,1.53,1.53,0,0,0,.79-.61,1.59,1.59,0,0,0,.27-.9,1.5,1.5,0,0,0-.52-1.17,2.43,2.43,0,0,0-1.64-.46H343.4Z"/><path class="cls-9" d="M353.61,359.24a2.3,2.3,0,0,1-1.14-.8,2.1,2.1,0,0,1-.37-1.25,2.44,2.44,0,0,1,.79-1.85,2.9,2.9,0,0,1,2.1-.75,2.94,2.94,0,0,1,2.12.77,2.45,2.45,0,0,1,.8,1.86,2.07,2.07,0,0,1-.36,1.22,2.34,2.34,0,0,1-1.12.8,2.59,2.59,0,0,1,1.9,2.58,2.89,2.89,0,0,1-.92,2.17,3.73,3.73,0,0,1-4.81,0,3,3,0,0,1-.91-2.2,2.7,2.7,0,0,1,.5-1.65A2.47,2.47,0,0,1,353.61,359.24ZM353,361.8a2.33,2.33,0,0,0,.25,1,1.85,1.85,0,0,0,.75.77,2.17,2.17,0,0,0,1.06.27,2,2,0,0,0,1.47-.57,2,2,0,0,0,.57-1.45,2,2,0,0,0-.59-1.48,2,2,0,0,0-1.49-.58,2,2,0,0,0-2,2Zm.4-4.65a1.54,1.54,0,0,0,.46,1.16,1.77,1.77,0,0,0,2.37,0,1.5,1.5,0,0,0,.45-1.1,1.52,1.52,0,0,0-.47-1.15,1.58,1.58,0,0,0-1.17-.46,1.61,1.61,0,0,0-1.17.45A1.48,1.48,0,0,0,353.36,357.15Z"/><path class="cls-9" d="M359.53,359.74a9.12,9.12,0,0,1,.37-2.88,3.55,3.55,0,0,1,1.09-1.68,2.8,2.8,0,0,1,1.82-.59,2.92,2.92,0,0,1,1.42.33,2.67,2.67,0,0,1,1,.94,4.91,4.91,0,0,1,.63,1.5,10,10,0,0,1,.22,2.38,9.36,9.36,0,0,1-.36,2.86,3.55,3.55,0,0,1-1.09,1.68,3.08,3.08,0,0,1-4.12-.45A6.66,6.66,0,0,1,359.53,359.74Zm1.27,0a6.3,6.3,0,0,0,.58,3.3,1.72,1.72,0,0,0,1.43.82,1.7,1.7,0,0,0,1.43-.83,9.68,9.68,0,0,0,0-6.6,1.73,1.73,0,0,0-1.44-.82,1.59,1.59,0,0,0-1.36.73A6.32,6.32,0,0,0,360.8,359.74Z"/><path class="cls-9" d="M414,268.22l-1.17-.4,2.52-7.46a6.26,6.26,0,0,1-1.38.43,7.72,7.72,0,0,1-1.44.19l.38-1.13a7.71,7.71,0,0,0,2.1-.54,4.59,4.59,0,0,0,1.47-.92l.75.25Z"/><path class="cls-9" d="M417.65,269.45l.45-1.33,1.33.45L419,269.9Zm1.88-5.57.45-1.34,1.34.45-.45,1.34Z"/><path class="cls-9" d="M421.57,268l1.23.24a2.74,2.74,0,0,0,.2,1.66,1.81,1.81,0,0,0,1,.84,2,2,0,0,0,1.59-.1,2,2,0,0,0,1.05-1.23,1.88,1.88,0,0,0-.08-1.51,1.92,1.92,0,0,0-1.16-1,3.11,3.11,0,0,0-.87-.15l.48-1,.18.08a2.5,2.5,0,0,0,1.48.06,1.39,1.39,0,0,0,1-1,1.49,1.49,0,0,0-.07-1.21,1.62,1.62,0,0,0-1-.8,1.69,1.69,0,0,0-1.29,0,2.27,2.27,0,0,0-1,1.09l-1.1-.6a3.19,3.19,0,0,1,1.59-1.5,3,3,0,0,1,2.12,0,3.32,3.32,0,0,1,1.32.82A2.69,2.69,0,0,1,429,264a2.48,2.48,0,0,1-.07,1.35,2.15,2.15,0,0,1-.71,1,2.43,2.43,0,0,1-1.26.47,2.31,2.31,0,0,1,1,1.26,2.56,2.56,0,0,1-.05,1.7,3,3,0,0,1-1.62,1.81,3.43,3.43,0,0,1-2.6.09,3.16,3.16,0,0,1-1.83-1.46A3,3,0,0,1,421.57,268Z"/><path class="cls-9" d="M312.57,326.53l-1.71-9.92,4.4-.76a6,6,0,0,1,2.06-.08,2.24,2.24,0,0,1,1.27.75,2.93,2.93,0,0,1,.67,1.42,2.55,2.55,0,0,1-.38,1.9,3.53,3.53,0,0,1-1.95,1.29,3.27,3.27,0,0,1,.88.35,7.07,7.07,0,0,1,1.31,1.14l2.2,2.4-1.65.28L318,323.47c-.49-.53-.89-.93-1.19-1.21a2.9,2.9,0,0,0-.78-.54,1.72,1.72,0,0,0-.64-.16,4.09,4.09,0,0,0-.74.07l-1.53.27.77,4.4Zm.36-5.77,2.82-.49a3.94,3.94,0,0,0,1.37-.43,1.48,1.48,0,0,0,.67-.73,1.57,1.57,0,0,0,.11-.93,1.5,1.5,0,0,0-.71-1.07,2.43,2.43,0,0,0-1.69-.17l-3.14.54Z"/><path class="cls-9" d="M323,319.19a2.33,2.33,0,0,1-1.26-.6,2,2,0,0,1-.58-1.17,2.43,2.43,0,0,1,.46-1.95,2.91,2.91,0,0,1,1.94-1.1,3,3,0,0,1,2.23.39,2.51,2.51,0,0,1,1.11,1.7,2.1,2.1,0,0,1-.16,1.27,2.36,2.36,0,0,1-1,1,2.56,2.56,0,0,1,2.31,2.22,2.91,2.91,0,0,1-.53,2.29,3.72,3.72,0,0,1-4.74.82,3,3,0,0,1-1.28-2,2.67,2.67,0,0,1,.21-1.7A2.53,2.53,0,0,1,323,319.19Zm-.6-2a1.56,1.56,0,0,0,.65,1.08,1.66,1.66,0,0,0,1.25.24,1.63,1.63,0,0,0,1.08-.64,1.47,1.47,0,0,0,.26-1.17,1.49,1.49,0,0,0-.66-1,1.56,1.56,0,0,0-1.23-.26,1.67,1.67,0,0,0-1.08.64A1.46,1.46,0,0,0,322.4,317.16Zm.4,4.65a2.27,2.27,0,0,0,.42,1,1.75,1.75,0,0,0,.86.63,2.16,2.16,0,0,0,1.1.08,2,2,0,0,0,1.34-.81,1.92,1.92,0,0,0,.32-1.52,2,2,0,0,0-.83-1.36,2.08,2.08,0,0,0-1.57-.32,1.93,1.93,0,0,0-1.32.82A1.9,1.9,0,0,0,322.8,321.81Z"/><path class="cls-9" d="M328.9,318.67a9.28,9.28,0,0,1-.13-2.9,3.57,3.57,0,0,1,.79-1.84,2.78,2.78,0,0,1,1.7-.89,2.91,2.91,0,0,1,1.45.08,2.65,2.65,0,0,1,1.16.75,5.2,5.2,0,0,1,.87,1.37,9.78,9.78,0,0,1,.63,2.31,9.45,9.45,0,0,1,.13,2.88,3.61,3.61,0,0,1-.79,1.84,2.82,2.82,0,0,1-1.7.9,2.74,2.74,0,0,1-2.43-.64A6.59,6.59,0,0,1,328.9,318.67Zm1.25-.22a6.2,6.2,0,0,0,1.14,3.15,1.65,1.65,0,0,0,2.82-.49,9.61,9.61,0,0,0-1.13-6.5,1.71,1.71,0,0,0-1.56-.56,1.59,1.59,0,0,0-1.22.94A6.46,6.46,0,0,0,330.15,318.45Z"/><path class="cls-9" d="M575.07,188.51l-10-1.27.56-4.43a5.78,5.78,0,0,1,.53-2,2.25,2.25,0,0,1,1.09-1,2.86,2.86,0,0,1,1.56-.23,2.53,2.53,0,0,1,1.7.92,3.5,3.5,0,0,1,.66,2.24,3.19,3.19,0,0,1,.6-.73,7,7,0,0,1,1.46-.93l2.94-1.39-.21,1.66-2.24,1.06q-1,.47-1.5.78a3,3,0,0,0-.75.58,1.91,1.91,0,0,0-.35.57,5,5,0,0,0-.14.73l-.19,1.53,4.44.57Zm-5.41-2,.36-2.84a4.5,4.5,0,0,0,0-1.44,1.56,1.56,0,0,0-.5-.86,1.66,1.66,0,0,0-.87-.37,1.51,1.51,0,0,0-1.23.36,2.47,2.47,0,0,0-.66,1.57l-.4,3.16Z"/><path class="cls-9" d="M571.09,176.36a2.32,2.32,0,0,1-.94,1,2.14,2.14,0,0,1-1.29.21,2.44,2.44,0,0,1-1.73-1,2.94,2.94,0,0,1-.48-2.18,2.9,2.9,0,0,1,1-2,2.47,2.47,0,0,1,2-.57,2.1,2.1,0,0,1,1.16.52,2.32,2.32,0,0,1,.65,1.21,2.58,2.58,0,0,1,2.8-1.56,2.91,2.91,0,0,1,2,1.18,3.72,3.72,0,0,1-.61,4.77,2.92,2.92,0,0,1-2.29.63,2.6,2.6,0,0,1-1.57-.7A2.45,2.45,0,0,1,571.09,176.36Zm-2.11,0a1.53,1.53,0,0,0,1.21-.31,1.65,1.65,0,0,0,.61-1.13,1.62,1.62,0,0,0-.3-1.21,1.53,1.53,0,0,0-1-.6,1.57,1.57,0,0,0-1.19.33,1.72,1.72,0,0,0-.31,2.32A1.44,1.44,0,0,0,569,176.34Zm4.56,1a2.11,2.11,0,0,0,1.05-.12,1.74,1.74,0,0,0,.85-.64,2.23,2.23,0,0,0,.41-1,2,2,0,0,0-.39-1.53,1.91,1.91,0,0,0-1.36-.75,2,2,0,0,0-1.54.4,2.06,2.06,0,0,0-.77,1.41,2,2,0,0,0,1.75,2.25Z"/><path class="cls-9" d="M572.32,170.55a9.34,9.34,0,0,1-2.8-.72,3.62,3.62,0,0,1-1.53-1.3,2.79,2.79,0,0,1-.36-1.88,3,3,0,0,1,.51-1.37,2.62,2.62,0,0,1,1.06-.88,4.94,4.94,0,0,1,1.56-.43,9.49,9.49,0,0,1,2.39.07,9.35,9.35,0,0,1,2.79.72,3.53,3.53,0,0,1,1.53,1.29,2.71,2.71,0,0,1,.36,1.89,2.74,2.74,0,0,1-1.32,2.14A6.65,6.65,0,0,1,572.32,170.55Zm.16-1.26a6.25,6.25,0,0,0,3.35-.16,1.66,1.66,0,0,0,.36-2.84,9.69,9.69,0,0,0-6.55-.83,1.72,1.72,0,0,0-1,1.33,1.58,1.58,0,0,0,.54,1.44A6.32,6.32,0,0,0,572.48,169.29Z"/><path class="cls-9" d="M292.37,609.09l9.07-4.38,1.94,4a5.9,5.9,0,0,1,.65,2,2.23,2.23,0,0,1-.38,1.42,2.84,2.84,0,0,1-1.18,1,2.56,2.56,0,0,1-1.93.16,3.53,3.53,0,0,1-1.77-1.53,3.49,3.49,0,0,1-.11,1,6.78,6.78,0,0,1-.72,1.57l-1.71,2.77-.73-1.51,1.31-2.11c.37-.61.65-1.1.83-1.47a2.67,2.67,0,0,0,.31-.9,1.8,1.8,0,0,0,0-.66,4.27,4.27,0,0,0-.28-.69l-.67-1.4-4,1.95Zm5.65-1.25,1.25,2.58a4.14,4.14,0,0,0,.79,1.21,1.51,1.51,0,0,0,.88.44,1.64,1.64,0,0,0,.93-.15,1.48,1.48,0,0,0,.83-1,2.41,2.41,0,0,0-.29-1.67L301,606.4Z"/><path class="cls-9" d="M298.28,621.34l2.17-1.05-1.89-3.94,1-.49,7.87,1.31.44.91L302,620.91l.59,1.23-1,.49L301,621.4l-2.17,1.05Zm3.19-1.54,4.09-2L300.1,617Z"/><path class="cls-9" d="M304.44,622.68a9.09,9.09,0,0,1,2.75-.92,3.58,3.58,0,0,1,2,.25,2.84,2.84,0,0,1,1.32,1.39,2.91,2.91,0,0,1,.33,1.42,2.79,2.79,0,0,1-.41,1.32,5,5,0,0,1-1.08,1.21,11.9,11.9,0,0,1-4.78,2.16,3.67,3.67,0,0,1-2-.25,2.86,2.86,0,0,1-1.33-1.39,2.77,2.77,0,0,1-.05-2.52A6.65,6.65,0,0,1,304.44,622.68Zm.56,1.14a6.37,6.37,0,0,0-2.73,2,1.67,1.67,0,0,0,1.25,2.58,9.71,9.71,0,0,0,6-2.87,1.74,1.74,0,0,0,.11-1.66,1.6,1.6,0,0,0-1.24-.91A6.31,6.31,0,0,0,305,623.82Z"/><path class="cls-9" d="M404.33,615.56l.17-10.07,4.46.08a5.88,5.88,0,0,1,2.05.3,2.27,2.27,0,0,1,1.1,1,2.85,2.85,0,0,1,.39,1.52,2.52,2.52,0,0,1-.72,1.8,3.54,3.54,0,0,1-2.16.9,3.26,3.26,0,0,1,.8.51,7.35,7.35,0,0,1,1.08,1.36l1.71,2.77-1.68,0-1.3-2.12c-.38-.61-.69-1.07-.93-1.4a3.07,3.07,0,0,0-.67-.68,2,2,0,0,0-.6-.28,3.22,3.22,0,0,0-.74-.06l-1.55,0-.07,4.47Zm1.43-5.6,2.86,0a4.35,4.35,0,0,0,1.44-.17,1.58,1.58,0,0,0,.79-.59,1.68,1.68,0,0,0,.28-.9,1.48,1.48,0,0,0-.5-1.18,2.42,2.42,0,0,0-1.63-.49l-3.19,0Z"/><path class="cls-9" d="M414.19,607l0-1.18,6.52.1,0,1a13.89,13.89,0,0,0-1.95,2.69,16.82,16.82,0,0,0-1.51,3.47,12.53,12.53,0,0,0-.52,2.76l-1.27,0a12.27,12.27,0,0,1,.51-2.87,15,15,0,0,1,1.34-3.22,14.52,14.52,0,0,1,1.81-2.61Z"/><path class="cls-9" d="M412.92,302.12l.17-10.07,4.46.07a6,6,0,0,1,2,.31,2.23,2.23,0,0,1,1.11,1,2.91,2.91,0,0,1,.39,1.53,2.52,2.52,0,0,1-.72,1.79,3.43,3.43,0,0,1-2.16.9,3.57,3.57,0,0,1,.8.52,6.94,6.94,0,0,1,1.08,1.35l1.71,2.77-1.68,0-1.3-2.12c-.38-.61-.69-1.08-.94-1.4a2.94,2.94,0,0,0-.66-.69,1.93,1.93,0,0,0-.61-.27,3.16,3.16,0,0,0-.74-.06l-1.54,0-.08,4.47Zm1.43-5.6,2.86,0a4.29,4.29,0,0,0,1.43-.16,1.57,1.57,0,0,0,.8-.59,1.73,1.73,0,0,0,.28-.9,1.52,1.52,0,0,0-.5-1.19,2.44,2.44,0,0,0-1.63-.48l-3.19-.05Z"/><path class="cls-9" d="M422.78,293.53l0-1.19,6.52.11,0,1a13.89,13.89,0,0,0-1.95,2.69,16.78,16.78,0,0,0-1.52,3.46,12.77,12.77,0,0,0-.51,2.76l-1.28,0a12.37,12.37,0,0,1,.52-2.86,14.78,14.78,0,0,1,1.33-3.22,13.85,13.85,0,0,1,1.82-2.61Z"/><path class="cls-9" d="M330.6,567.29l2.09-9.85,4.37.93a5.92,5.92,0,0,1,1.94.69,2.22,2.22,0,0,1,.9,1.17,2.79,2.79,0,0,1,.09,1.57,2.49,2.49,0,0,1-1.05,1.62,3.47,3.47,0,0,1-2.29.47,3.31,3.31,0,0,1,.68.66,6.74,6.74,0,0,1,.81,1.54l1.14,3-1.64-.34-.87-2.33c-.25-.67-.47-1.19-.65-1.56a3.15,3.15,0,0,0-.52-.8,2.13,2.13,0,0,0-.54-.38,3.36,3.36,0,0,0-.72-.2l-1.51-.32-.93,4.37Zm2.47-5.22,2.8.59a4.27,4.27,0,0,0,1.44.11,1.47,1.47,0,0,0,.89-.43,1.66,1.66,0,0,0,.45-.82,1.51,1.51,0,0,0-.26-1.26,2.44,2.44,0,0,0-1.51-.79l-3.12-.66Z"/><path class="cls-9" d="M344.58,570.26l-1.21-.26,1.63-7.71a5.84,5.84,0,0,1-1.32.59,8.27,8.27,0,0,1-1.4.36l.24-1.17a7.72,7.72,0,0,0,2-.78,4.66,4.66,0,0,0,1.36-1.09l.78.17Z"/><path class="cls-9" d="M354.28,571.1l-.25,1.16-6.51-1.38a2.18,2.18,0,0,1,.32-.81,4.56,4.56,0,0,1,1.07-1.14,13.32,13.32,0,0,1,1.9-1.16,14.05,14.05,0,0,0,2.62-1.62,2.62,2.62,0,0,0,.87-1.34,1.67,1.67,0,0,0-.26-1.32,1.9,1.9,0,0,0-1.23-.78,2,2,0,0,0-1.51.23,2,2,0,0,0-.84,1.34l-1.22-.39a3.13,3.13,0,0,1,1.41-1.92,3.33,3.33,0,0,1,2.39-.25,3.19,3.19,0,0,1,2.08,1.26,2.65,2.65,0,0,1,.42,2.12,3.07,3.07,0,0,1-.49,1.11,4.77,4.77,0,0,1-1.06,1,22,22,0,0,1-2.23,1.34,17.24,17.24,0,0,0-1.66.94,3.58,3.58,0,0,0-.65.54Z"/><path class="cls-9" d="M356.36,567.68a9,9,0,0,1,.95-2.74,3.49,3.49,0,0,1,1.42-1.41,2.72,2.72,0,0,1,1.91-.2,2.93,2.93,0,0,1,1.32.61,2.69,2.69,0,0,1,.79,1.13,4.79,4.79,0,0,1,.3,1.59,9.61,9.61,0,0,1-.27,2.38,9,9,0,0,1-.95,2.72,3.56,3.56,0,0,1-1.41,1.42,3.08,3.08,0,0,1-3.94-1.29A6.63,6.63,0,0,1,356.36,567.68Zm1.24.26a6.41,6.41,0,0,0-.12,3.35,1.66,1.66,0,0,0,2.81.59,9.61,9.61,0,0,0,1.36-6.46,1.72,1.72,0,0,0-1.24-1.1,1.6,1.6,0,0,0-1.48.43A6.36,6.36,0,0,0,357.6,567.94Z"/><path class="cls-9" d="M151.6,575.39h-1.19v-6.52h1a14.06,14.06,0,0,0,2.72,1.9,16.68,16.68,0,0,0,3.49,1.46,13,13,0,0,0,2.77.48V574a12,12,0,0,1-2.87-.47,15,15,0,0,1-3.24-1.28,14.41,14.41,0,0,1-2.64-1.77Z"/><path class="cls-9" d="M157.69,567.64l-.16-1.24a2.71,2.71,0,0,0,1.51-.72,1.8,1.8,0,0,0,.47-1.25,2,2,0,0,0-.61-1.47,2,2,0,0,0-1.5-.6,1.9,1.9,0,0,0-1.4.55,1.93,1.93,0,0,0-.55,1.42,3.59,3.59,0,0,0,.13.87l-1.08-.14a1.56,1.56,0,0,0,0-.2,2.51,2.51,0,0,0-.41-1.42,1.41,1.41,0,0,0-1.27-.63,1.51,1.51,0,0,0-1.13.46,1.66,1.66,0,0,0-.44,1.19,1.69,1.69,0,0,0,.45,1.2,2.28,2.28,0,0,0,1.36.62l-.22,1.24a3.27,3.27,0,0,1-1.93-1,3,3,0,0,1-.68-2,3.36,3.36,0,0,1,.35-1.52,2.56,2.56,0,0,1,1-1.06,2.44,2.44,0,0,1,1.3-.37,2.18,2.18,0,0,1,1.19.35,2.41,2.41,0,0,1,.85,1,2.35,2.35,0,0,1,.85-1.39,2.63,2.63,0,0,1,1.63-.49,3,3,0,0,1,2.23,1,3.38,3.38,0,0,1,.92,2.43,3.14,3.14,0,0,1-.79,2.2A3.07,3.07,0,0,1,157.69,567.64Z"/><path class="cls-9" d="M160.35,559.13h-1.41v-1.41h1.41Z"/><path class="cls-9" d="M160.35,552h-2.41v4.37h-1.13l-6.53-4.6v-1h6.53v-1.37h1.13v1.37h2.41Zm-3.54,0h-4.54l4.54,3.15Z"/><path class="cls-9" d="M160.35,543.43v1.24h-7.88a6.58,6.58,0,0,1,.86,1.17,8.87,8.87,0,0,1,.63,1.3h-1.19a7.75,7.75,0,0,0-1.18-1.81,4.73,4.73,0,0,0-1.35-1.1v-.8Z"/><path class="cls-9" d="M195.27,610.49l-.11-1.29a2.35,2.35,0,0,0,1.43-.67,1.83,1.83,0,0,0,.48-1.27,2,2,0,0,0-.68-1.51,2.54,2.54,0,0,0-1.78-.62,2.31,2.31,0,0,0-1.67.59,2.08,2.08,0,0,0-.61,1.56,2.16,2.16,0,0,0,.27,1.08,2,2,0,0,0,.7.75l-.15,1.16-5.17-1v-5h1.18v4l2.71.54a3.29,3.29,0,0,1-.64-1.9,3,3,0,0,1,.92-2.23,3.2,3.2,0,0,1,2.35-.9,3.61,3.61,0,0,1,2.36.8,3.16,3.16,0,0,1,1.22,2.64,3.21,3.21,0,0,1-.77,2.24A3,3,0,0,1,195.27,610.49Z"/><path class="cls-9" d="M196.72,596.17h1.19v6.66a2.11,2.11,0,0,1-.86-.15,4.44,4.44,0,0,1-1.34-.81,12.46,12.46,0,0,1-1.52-1.62,13.86,13.86,0,0,0-2.13-2.21,2.54,2.54,0,0,0-1.49-.58,1.65,1.65,0,0,0-1.24.52,2.13,2.13,0,0,0,0,2.8,2,2,0,0,0,1.48.55l-.13,1.27a3.12,3.12,0,0,1-2.16-1,3.32,3.32,0,0,1-.75-2.28,3.23,3.23,0,0,1,.8-2.3,2.66,2.66,0,0,1,2-.84,3,3,0,0,1,1.18.24,4.59,4.59,0,0,1,1.23.83,19.08,19.08,0,0,1,1.78,1.9c.62.74,1,1.22,1.26,1.43a4.88,4.88,0,0,0,.67.52Z"/><path class="cls-9" d="M193.65,445.5l-.17-1.23a2.81,2.81,0,0,0,1.52-.73,1.79,1.79,0,0,0,.46-1.25,2,2,0,0,0-.6-1.47,2,2,0,0,0-1.5-.6,1.88,1.88,0,0,0-1.4.56,1.91,1.91,0,0,0-.56,1.41,3.6,3.6,0,0,0,.14.87l-1.08-.13c0-.09,0-.15,0-.2a2.57,2.57,0,0,0-.41-1.42,1.41,1.41,0,0,0-1.27-.64,1.53,1.53,0,0,0-1.13.46,1.8,1.8,0,0,0,0,2.39,2.25,2.25,0,0,0,1.36.62l-.22,1.24a3.22,3.22,0,0,1-1.93-1,3,3,0,0,1-.68-2,3.24,3.24,0,0,1,.35-1.52,2.56,2.56,0,0,1,1-1.06,2.5,2.5,0,0,1,1.29-.37,2.15,2.15,0,0,1,1.19.35,2.4,2.4,0,0,1,.85,1,2.39,2.39,0,0,1,.86-1.39,2.58,2.58,0,0,1,1.62-.49,3,3,0,0,1,2.24,1,3.38,3.38,0,0,1,.92,2.43,3.19,3.19,0,0,1-.79,2.2A3,3,0,0,1,193.65,445.5Z"/><path class="cls-9" d="M191.34,437.69a9.3,9.3,0,0,1-2.87-.37,3.6,3.6,0,0,1-1.68-1.09,2.79,2.79,0,0,1-.59-1.83,3.06,3.06,0,0,1,.32-1.42,2.75,2.75,0,0,1,.94-1,5.17,5.17,0,0,1,1.5-.62,9.48,9.48,0,0,1,2.38-.23,9.31,9.31,0,0,1,2.86.36,3.6,3.6,0,0,1,1.68,1.09,3.05,3.05,0,0,1-.45,4.12A6.63,6.63,0,0,1,191.34,437.69Zm0-1.28a6.3,6.3,0,0,0,3.3-.58,1.66,1.66,0,0,0,0-2.86,9.68,9.68,0,0,0-6.6,0,1.72,1.72,0,0,0-.82,1.45,1.6,1.6,0,0,0,.72,1.36A6.48,6.48,0,0,0,191.34,436.41Z"/><path class="cls-9" d="M813,670.84h1.19v6.66a2.26,2.26,0,0,1-.86-.15,4.53,4.53,0,0,1-1.34-.81,13.12,13.12,0,0,1-1.53-1.62,14,14,0,0,0-2.13-2.22,2.58,2.58,0,0,0-1.49-.58,1.66,1.66,0,0,0-1.24.53,1.92,1.92,0,0,0-.5,1.37,2,2,0,0,0,.53,1.43,2,2,0,0,0,1.49.54l-.13,1.27a3.1,3.1,0,0,1-2.17-1,3.34,3.34,0,0,1-.75-2.29,3.17,3.17,0,0,1,.81-2.29,2.61,2.61,0,0,1,2-.85,3.14,3.14,0,0,1,1.19.25,4.78,4.78,0,0,1,1.23.82,19.63,19.63,0,0,1,1.77,1.91c.62.74,1,1.22,1.27,1.43a3.91,3.91,0,0,0,.67.52Z"/><path class="cls-9" d="M805.44,669.43h-1.18v-6.52h1a13.76,13.76,0,0,0,2.72,1.91,16.25,16.25,0,0,0,3.49,1.46,12.8,12.8,0,0,0,2.77.47V668a12.56,12.56,0,0,1-2.88-.46,15.49,15.49,0,0,1-3.24-1.28,14.27,14.27,0,0,1-2.64-1.78Z"/><path class="cls-9" d="M814.2,661h-1.41v-1.41h1.41Z"/><path class="cls-9" d="M811.56,657.78l-.11-1.3a2.22,2.22,0,0,0,1.42-.67,1.8,1.8,0,0,0,.48-1.26,2,2,0,0,0-.67-1.51,2.52,2.52,0,0,0-1.79-.62,2.33,2.33,0,0,0-1.67.59,2.08,2.08,0,0,0-.61,1.56,2.16,2.16,0,0,0,.27,1.08,2.05,2.05,0,0,0,.71.75l-.15,1.16-5.18-1v-5h1.18v4l2.71.54a3.27,3.27,0,0,1-.63-1.9,3,3,0,0,1,.91-2.23,3.2,3.2,0,0,1,2.35-.9,3.66,3.66,0,0,1,2.36.79,3.2,3.2,0,0,1,1.23,2.65,3.28,3.28,0,0,1-.77,2.24A3,3,0,0,1,811.56,657.78Z"/><path class="cls-9" d="M880.81,361.92a12.42,12.42,0,0,1-3,1.73,9.47,9.47,0,0,1-6.72.18,13.11,13.11,0,0,1-3.46-1.91V361a21.89,21.89,0,0,0,2,1.1,11,11,0,0,0,2,.66,11.23,11.23,0,0,0,2.58.3,12.41,12.41,0,0,0,6.6-2.06Z"/><path class="cls-9" d="M875.21,359.94l-.11-1.3a2.32,2.32,0,0,0,1.43-.67,1.85,1.85,0,0,0,.47-1.27,2,2,0,0,0-.67-1.51,2.54,2.54,0,0,0-1.79-.61,2.25,2.25,0,0,0-1.66.59,2.22,2.22,0,0,0,.36,3.39l-.15,1.16-5.17-1v-5h1.18v4l2.7.54a3.3,3.3,0,0,1-.63-1.9,3,3,0,0,1,.92-2.23,3.19,3.19,0,0,1,2.34-.91,3.69,3.69,0,0,1,2.37.8A3.21,3.21,0,0,1,878,356.7a3.28,3.28,0,0,1-.77,2.25A3,3,0,0,1,875.21,359.94Z"/><path class="cls-9" d="M877.85,388.54v1.23H870a6.33,6.33,0,0,1,.85,1.18,8.12,8.12,0,0,1,.64,1.3h-1.2a7,7,0,0,0-1.18-1.82,4.88,4.88,0,0,0-1.34-1.1v-.79Z"/><path class="cls-9" d="M877.85,381.41h-2.41v4.37H874.3l-6.52-4.6v-1h6.52v-1.36h1.14v1.36h2.41Zm-3.55,0h-4.54l4.54,3.15Z"/><path class="cls-9" d="M875.52,377.36l-.11-1.19a2.05,2.05,0,0,0,1.21-.57,1.56,1.56,0,0,0,.38-1.09,1.82,1.82,0,0,0-.26-1,2.07,2.07,0,0,0-.7-.71,4.38,4.38,0,0,0-1.17-.46,6.43,6.43,0,0,0-1.51-.18h-.25a2.94,2.94,0,0,1,1,1,2.77,2.77,0,0,1,.36,1.39,2.81,2.81,0,0,1-.9,2.11,3.31,3.31,0,0,1-2.39.87,3.38,3.38,0,0,1-2.47-.91,3,3,0,0,1-.93-2.26,3.16,3.16,0,0,1,.53-1.79,3.24,3.24,0,0,1,1.5-1.24,7.52,7.52,0,0,1,2.84-.42,9.14,9.14,0,0,1,3.07.42,3.56,3.56,0,0,1,1.74,1.24,3.22,3.22,0,0,1,.6,1.94,2.67,2.67,0,0,1-2.5,2.83Zm-4.44-5.06a2.4,2.4,0,0,0-1.69.57,1.75,1.75,0,0,0-.63,1.36,1.89,1.89,0,0,0,.67,1.44,2.54,2.54,0,0,0,1.75.61,2.18,2.18,0,0,0,1.56-.58,1.93,1.93,0,0,0,.6-1.44,1.84,1.84,0,0,0-.6-1.41A2.34,2.34,0,0,0,871.08,372.3Z"/><path class="cls-9" d="M877.85,350.72h-1.41v-1.4h1.41Z"/><path class="cls-9" d="M872.39,345.61a2.36,2.36,0,0,1-.81,1.14,2.12,2.12,0,0,1-1.25.37,2.46,2.46,0,0,1-1.84-.79,2.94,2.94,0,0,1-.75-2.1,3,3,0,0,1,.76-2.13,2.51,2.51,0,0,1,1.87-.8,2,2,0,0,1,1.22.37,2.32,2.32,0,0,1,.8,1.11,2.55,2.55,0,0,1,2.58-1.89,2.88,2.88,0,0,1,2.17.91,3.73,3.73,0,0,1,0,4.81,2.93,2.93,0,0,1-2.2.91,2.61,2.61,0,0,1-1.65-.5A2.48,2.48,0,0,1,872.39,345.61Zm-2.1.24a1.55,1.55,0,0,0,1.17-.46,1.61,1.61,0,0,0,.45-1.19,1.58,1.58,0,0,0-.45-1.17,1.46,1.46,0,0,0-1.1-.46,1.55,1.55,0,0,0-1.14.47,1.59,1.59,0,0,0-.47,1.17,1.66,1.66,0,0,0,.46,1.18A1.44,1.44,0,0,0,870.29,345.85Zm4.65.4a2.21,2.21,0,0,0,1-.25,1.75,1.75,0,0,0,.76-.74,2.21,2.21,0,0,0,.27-1.07,2,2,0,0,0-.57-1.46,1.93,1.93,0,0,0-1.45-.58,2,2,0,0,0-1.47.6,2,2,0,0,0-.59,1.48,2,2,0,0,0,2,2Z"/><path class="cls-9" d="M870.25,333.27l.09,1.23a2.38,2.38,0,0,0-1.06.47,1.63,1.63,0,0,0-.53,1.23,1.7,1.7,0,0,0,.33,1,2.81,2.81,0,0,0,1.25.92,6.6,6.6,0,0,0,2.33.35,2.83,2.83,0,0,1-1-1.09,2.93,2.93,0,0,1-.33-1.35,2.79,2.79,0,0,1,.91-2.11,3.25,3.25,0,0,1,2.35-.87,3.89,3.89,0,0,1,1.76.41,3,3,0,0,1,1.25,1.12,3.07,3.07,0,0,1,.43,1.62,3.16,3.16,0,0,1-1.14,2.52,5.65,5.65,0,0,1-3.74,1,6.73,6.73,0,0,1-4.25-1.08,3.09,3.09,0,0,1-1.15-2.53,2.88,2.88,0,0,1,.66-1.95A2.83,2.83,0,0,1,870.25,333.27Zm4.34,5.05a2.89,2.89,0,0,0,1.22-.27,2.08,2.08,0,0,0,.89-.76,2,2,0,0,0,.3-1,1.73,1.73,0,0,0-.63-1.34,2.46,2.46,0,0,0-1.72-.56,2.32,2.32,0,0,0-1.64.55,1.83,1.83,0,0,0-.6,1.4,1.89,1.89,0,0,0,.6,1.42A2.18,2.18,0,0,0,874.59,338.32Z"/><path class="cls-9" d="M870.25,325.45l.09,1.23a2.39,2.39,0,0,0-1.06.46,1.66,1.66,0,0,0-.53,1.24,1.72,1.72,0,0,0,.33,1,2.88,2.88,0,0,0,1.25.92,6.6,6.6,0,0,0,2.33.35,2.83,2.83,0,0,1-1-1.09,3,3,0,0,1-.33-1.36,2.79,2.79,0,0,1,.91-2.1,3.25,3.25,0,0,1,2.35-.87,3.77,3.77,0,0,1,1.76.41,3,3,0,0,1,1.25,1.12,3.07,3.07,0,0,1,.43,1.62,3.16,3.16,0,0,1-1.14,2.52,5.7,5.7,0,0,1-3.74,1,6.73,6.73,0,0,1-4.25-1.08,3.1,3.1,0,0,1-1.15-2.54,2.68,2.68,0,0,1,2.51-2.85Zm4.34,5.05a2.9,2.9,0,0,0,1.22-.28,2.06,2.06,0,0,0,.89-.75,2,2,0,0,0,.3-1,1.73,1.73,0,0,0-.63-1.34,2.46,2.46,0,0,0-1.72-.57,2.33,2.33,0,0,0-1.64.56,1.83,1.83,0,0,0-.6,1.4,1.9,1.9,0,0,0,.6,1.42A2.18,2.18,0,0,0,874.59,330.5Z"/><path class="cls-9" d="M871.34,321.36l-1.91.34h-1.65v-1.41h1.65l1.91.33Zm0,2.27-1.91.35h-1.65v-1.41h1.65l1.91.31Z"/><path class="cls-9" d="M880.81,317.92v.89a12.39,12.39,0,0,0-6.6-2.05,11,11,0,0,0-2.56.29,10.93,10.93,0,0,0-2,.65c-.41.18-1.1.55-2.06,1.11v-.89a13.4,13.4,0,0,1,3.46-1.91,9.39,9.39,0,0,1,3.13-.52,9.27,9.27,0,0,1,3.59.71A12.73,12.73,0,0,1,880.81,317.92Z"/><path class="cls-9" d="M526,183.81l-9.94-1.6.7-4.41a6.14,6.14,0,0,1,.6-2,2.3,2.3,0,0,1,1.12-1,2.89,2.89,0,0,1,1.57-.17,2.58,2.58,0,0,1,1.67,1,3.55,3.55,0,0,1,.58,2.27,4,4,0,0,1,.62-.72,7.13,7.13,0,0,1,1.5-.87l3-1.3-.27,1.66-2.28,1c-.66.29-1.17.53-1.52.73a2.78,2.78,0,0,0-.77.56,2,2,0,0,0-.37.56,4,4,0,0,0-.16.72l-.25,1.53,4.42.71Zm-5.35-2.21.46-2.82a4.2,4.2,0,0,0,0-1.44,1.55,1.55,0,0,0-.47-.87,1.65,1.65,0,0,0-.85-.41,1.49,1.49,0,0,0-1.24.32,2.45,2.45,0,0,0-.72,1.55l-.5,3.14Z"/><path class="cls-9" d="M524.93,173.87l0-1.25a2.73,2.73,0,0,0,1.61-.47,1.81,1.81,0,0,0,.65-1.16,2.05,2.05,0,0,0-1.74-2.38,1.91,1.91,0,0,0-2.25,1.63,3.28,3.28,0,0,0,0,.89l-1-.31a.88.88,0,0,0,0-.2,2.42,2.42,0,0,0-.18-1.46,1.41,1.41,0,0,0-1.15-.83,1.51,1.51,0,0,0-1.19.28,1.64,1.64,0,0,0-.63,1.1,1.72,1.72,0,0,0,.26,1.26,2.26,2.26,0,0,0,1.24.82l-.41,1.19a3.18,3.18,0,0,1-1.74-1.33,3,3,0,0,1-.35-2.08,3.17,3.17,0,0,1,.59-1.44,2.55,2.55,0,0,1,2.46-1,2.2,2.2,0,0,1,1.12.53,2.43,2.43,0,0,1,.67,1.16,2.37,2.37,0,0,1,1.07-1.23,2.6,2.6,0,0,1,1.68-.23,3,3,0,0,1,2.05,1.3,3.33,3.33,0,0,1,.52,2.55,3.14,3.14,0,0,1-1.13,2.05A3.07,3.07,0,0,1,524.93,173.87Z"/><path class="cls-9" d="M523.9,165.79a9.05,9.05,0,0,1-2.78-.82,3.57,3.57,0,0,1-1.49-1.34,2.79,2.79,0,0,1-.29-1.9,3,3,0,0,1,.55-1.35,2.71,2.71,0,0,1,1.09-.85,5.31,5.31,0,0,1,1.58-.38,10.18,10.18,0,0,1,2.38.16,9.48,9.48,0,0,1,2.77.81,3.7,3.7,0,0,1,1.49,1.34,2.82,2.82,0,0,1,.29,1.91,2.78,2.78,0,0,1-1.39,2.09A6.67,6.67,0,0,1,523.9,165.79Zm.2-1.25a6.39,6.39,0,0,0,3.35,0,1.66,1.66,0,0,0,.45-2.83,6.26,6.26,0,0,0-3.16-1.1,6.42,6.42,0,0,0-3.36.05,1.74,1.74,0,0,0-1,1.3,1.6,1.6,0,0,0,.49,1.46A6.57,6.57,0,0,0,524.1,164.54Z"/><path class="cls-9" d="M525.14,158.07a9.14,9.14,0,0,1-2.78-.82,3.65,3.65,0,0,1-1.49-1.35,2.77,2.77,0,0,1-.29-1.89,3,3,0,0,1,.55-1.35,2.71,2.71,0,0,1,1.09-.85,5.09,5.09,0,0,1,1.58-.38,10.18,10.18,0,0,1,2.38.16,8.9,8.9,0,0,1,2.77.81,3.57,3.57,0,0,1,1.49,1.34,3.09,3.09,0,0,1-1.1,4A6.66,6.66,0,0,1,525.14,158.07Zm.2-1.26a6.31,6.31,0,0,0,3.35,0,1.73,1.73,0,0,0,1-1.29,1.71,1.71,0,0,0-.59-1.54,9.62,9.62,0,0,0-6.51-1.05,1.72,1.72,0,0,0-1,1.3,1.57,1.57,0,0,0,.49,1.45A6.38,6.38,0,0,0,525.34,156.81Z"/><path class="cls-9" d="M712.89,211.33l-.11-1.3a2.29,2.29,0,0,0,1.42-.67,1.81,1.81,0,0,0,.48-1.27,2,2,0,0,0-.68-1.51,2.52,2.52,0,0,0-1.78-.61,2.27,2.27,0,0,0-1.67.59,2.06,2.06,0,0,0-.61,1.56,2.17,2.17,0,0,0,1,1.83l-.15,1.16-5.17-1v-5h1.18v4l2.71.54a3.3,3.3,0,0,1-.63-1.9,3,3,0,0,1,.91-2.23,3.21,3.21,0,0,1,2.35-.91,3.66,3.66,0,0,1,2.36.8,3.18,3.18,0,0,1,1.22,2.64,3.28,3.28,0,0,1-.76,2.25A3,3,0,0,1,712.89,211.33Z"/><path class="cls-9" d="M715.52,198.85v1.24h-7.88a5.91,5.91,0,0,1,.86,1.17,9.07,9.07,0,0,1,.64,1.3h-1.2a7.25,7.25,0,0,0-1.18-1.81,4.45,4.45,0,0,0-1.35-1.1v-.8Z"/><path class="cls-9" d="M715.52,195h-1.41v-1.41h1.41Z"/><path class="cls-9" d="M712.89,191.78l-.11-1.3a2.35,2.35,0,0,0,1.42-.67,1.83,1.83,0,0,0,.48-1.27A2,2,0,0,0,714,187a2.52,2.52,0,0,0-1.78-.62,2.28,2.28,0,0,0-1.67.6,2,2,0,0,0-.61,1.55,2.16,2.16,0,0,0,.27,1.08,2.11,2.11,0,0,0,.7.75l-.15,1.17-5.17-1v-5h1.18v4l2.71.54a3.25,3.25,0,0,1-.63-1.9,3,3,0,0,1,.91-2.22,3.17,3.17,0,0,1,2.35-.91,3.61,3.61,0,0,1,2.36.8,3.16,3.16,0,0,1,1.22,2.64,3.25,3.25,0,0,1-.76,2.24A3.07,3.07,0,0,1,712.89,191.78Z"/><path class="cls-9" d="M427.35,645.42l-1.23.16-1-7.82a6.5,6.5,0,0,1-1.06,1,7.94,7.94,0,0,1-1.21.79l-.15-1.18a7.35,7.35,0,0,0,1.65-1.4,4.47,4.47,0,0,0,.92-1.48l.79-.1Z"/><path class="cls-9" d="M430.43,639.11l-.18-1.4,1.4-.17.18,1.39Zm.74,5.84-.18-1.4,1.4-.18.18,1.4Z"/><path class="cls-9" d="M433.35,635.85l-.15-1.18,6.46-.82.12.95a13.76,13.76,0,0,0-1.54,2.94,16.14,16.14,0,0,0-1,3.65,12.74,12.74,0,0,0-.12,2.8l-1.26.16a11.77,11.77,0,0,1,.1-2.9,14.85,14.85,0,0,1,.86-3.38,13.92,13.92,0,0,1,1.43-2.84Z"/><path class="cls-9" d="M442.82,643.48l-.18-1.39,1.4-.18.17,1.4Z"/><path class="cls-9" d="M447.21,637.42a2.34,2.34,0,0,1-1.24-.65,2.13,2.13,0,0,1-.52-1.19,2.47,2.47,0,0,1,.55-1.94,3.34,3.34,0,0,1,4.19-.51,2.45,2.45,0,0,1,1,1.75,2,2,0,0,1-.21,1.25,2.29,2.29,0,0,1-1,.94,2.66,2.66,0,0,1,1.52.79,2.57,2.57,0,0,1,.68,1.53,2.9,2.9,0,0,1-.63,2.27,3.73,3.73,0,0,1-4.77.6,2.94,2.94,0,0,1-1.18-2.07,2.62,2.62,0,0,1,.28-1.69A2.56,2.56,0,0,1,447.21,637.42Zm-.51-2a1.57,1.57,0,0,0,.6,1.1,1.64,1.64,0,0,0,1.24.3,1.6,1.6,0,0,0,1.11-.6A1.47,1.47,0,0,0,450,635a1.49,1.49,0,0,0-.61-1.07,1.58,1.58,0,0,0-1.22-.32,1.62,1.62,0,0,0-1.11.6A1.44,1.44,0,0,0,446.7,635.38Zm.19,4.66a2.12,2.12,0,0,0,.38,1,1.72,1.72,0,0,0,.83.67,2.13,2.13,0,0,0,1.09.13,2,2,0,0,0,1.38-.75,1.9,1.9,0,0,0,.39-1.51,2,2,0,0,0-.77-1.39,2.1,2.1,0,0,0-1.55-.39,2,2,0,0,0-1.75,2.26Z"/><path class="cls-9" d="M458.39,641.52l-1.23.16-1-7.82a6.08,6.08,0,0,1-1.06,1,7.37,7.37,0,0,1-1.21.8l-.15-1.18a7.35,7.35,0,0,0,1.65-1.4,4.65,4.65,0,0,0,.92-1.48l.79-.1Z"/><path class="cls-9" d="M611.25,633.1l-1.16-.42,2.64-7.42a6.43,6.43,0,0,1-1.39.41,8.3,8.3,0,0,1-1.44.16l.4-1.12a7.41,7.41,0,0,0,2.11-.51,4.46,4.46,0,0,0,1.48-.9l.75.27Z"/><path class="cls-9" d="M614.88,634.39l.47-1.33,1.33.48-.47,1.32Zm2-5.55.47-1.32,1.33.47-.48,1.33Z"/><path class="cls-9" d="M618.82,633l1.22.26a2.65,2.65,0,0,0,.17,1.67,1.8,1.8,0,0,0,1,.85,2,2,0,0,0,1.59-.07,2.07,2.07,0,0,0,1.07-1.21,1.92,1.92,0,0,0,0-1.51,2,2,0,0,0-1.15-1,4,4,0,0,0-.87-.16l.49-1a.87.87,0,0,0,.19.08A2.48,2.48,0,0,0,624,631a1.41,1.41,0,0,0,1-1,1.52,1.52,0,0,0-.06-1.22,1.8,1.8,0,0,0-2.25-.79,2.21,2.21,0,0,0-1,1.07l-1.09-.62a3.2,3.2,0,0,1,1.61-1.47,3,3,0,0,1,2.12,0,3.28,3.28,0,0,1,1.31.84,2.58,2.58,0,0,1,.67,1.27,2.35,2.35,0,0,1-.09,1.34,2.09,2.09,0,0,1-.72,1,2.46,2.46,0,0,1-1.27.46,2.29,2.29,0,0,1,1,1.27,2.54,2.54,0,0,1-.08,1.69,3,3,0,0,1-1.65,1.79,3.43,3.43,0,0,1-2.6.05,3.16,3.16,0,0,1-1.81-1.49A3,3,0,0,1,618.82,633Z"/><path class="cls-9" d="M472.5,777.67h-1.23v-7.88a7.11,7.11,0,0,1-1.17.85,9,9,0,0,1-1.3.64v-1.2a7.44,7.44,0,0,0,1.81-1.18,4.6,4.6,0,0,0,1.1-1.35h.79Z"/><path class="cls-9" d="M482.17,776.48v1.19h-6.66a2.08,2.08,0,0,1,.15-.86,4.53,4.53,0,0,1,.81-1.34,12.43,12.43,0,0,1,1.62-1.53,14,14,0,0,0,2.22-2.13,2.56,2.56,0,0,0,.57-1.49,1.65,1.65,0,0,0-.52-1.24,1.92,1.92,0,0,0-1.37-.5,2,2,0,0,0-1.43.53,2,2,0,0,0-.54,1.49l-1.27-.13a3.1,3.1,0,0,1,1-2.17,3.34,3.34,0,0,1,2.29-.75,3.17,3.17,0,0,1,2.29.81,2.64,2.64,0,0,1,.85,2,3.14,3.14,0,0,1-.25,1.19,4.78,4.78,0,0,1-.82,1.23,20.91,20.91,0,0,1-1.91,1.77c-.74.62-1.22,1.05-1.43,1.27a3.91,3.91,0,0,0-.52.67Z"/><path class="cls-9" d="M483.49,775l1.3-.11a2.35,2.35,0,0,0,.67,1.42,1.81,1.81,0,0,0,1.27.48,2,2,0,0,0,1.51-.67,2.56,2.56,0,0,0,.62-1.79,2.29,2.29,0,0,0-.6-1.67,2.08,2.08,0,0,0-1.55-.61,2.15,2.15,0,0,0-1.84,1l-1.16-.15,1-5.18h5v1.19h-4l-.54,2.7A3.25,3.25,0,0,1,487,771a3,3,0,0,1,2.22.91,3.19,3.19,0,0,1,.91,2.35,3.66,3.66,0,0,1-.8,2.36,3.16,3.16,0,0,1-2.64,1.23,3.26,3.26,0,0,1-2.24-.77A3,3,0,0,1,483.49,775Z"/><path class="cls-9" d="M497.93,780.63a12.49,12.49,0,0,1-1.73-3,9.44,9.44,0,0,1-.18-6.71,13.16,13.16,0,0,1,1.91-3.47h.89c-.56,1-.92,1.64-1.1,2a11.5,11.5,0,0,0-.66,2,11.36,11.36,0,0,0-.3,2.58,12.41,12.41,0,0,0,2.06,6.61Z"/><path class="cls-9" d="M503.87,777.67v-2.42H499.5v-1.13l4.6-6.52h1v6.52h1.36v1.13h-1.36v2.42Zm0-3.55v-4.54l-3.15,4.54Z"/><path class="cls-9" d="M508.43,777.67v-1.41h1.4v1.41Z"/><path class="cls-9" d="M511.83,775.34l1.19-.11a2.05,2.05,0,0,0,.57,1.21,1.61,1.61,0,0,0,1.09.38,1.91,1.91,0,0,0,1-.26,2.26,2.26,0,0,0,.71-.7,4.33,4.33,0,0,0,.46-1.18,6.3,6.3,0,0,0,.18-1.51v-.24a2.83,2.83,0,0,1-1,1,2.71,2.71,0,0,1-1.39.37,2.78,2.78,0,0,1-2.11-.91,3.3,3.3,0,0,1-.87-2.39,3.39,3.39,0,0,1,.9-2.46,3.05,3.05,0,0,1,2.27-.94,3.24,3.24,0,0,1,1.79.53,3.31,3.31,0,0,1,1.24,1.51,7.48,7.48,0,0,1,.42,2.84,9.14,9.14,0,0,1-.42,3.07,3.62,3.62,0,0,1-1.24,1.74,3.22,3.22,0,0,1-1.94.6,2.67,2.67,0,0,1-2.83-2.5Zm5.06-4.45a2.42,2.42,0,0,0-.57-1.69,1.79,1.79,0,0,0-1.36-.62,1.89,1.89,0,0,0-1.44.67,2.54,2.54,0,0,0-.61,1.75,2.18,2.18,0,0,0,.58,1.56,1.93,1.93,0,0,0,1.43.6,1.84,1.84,0,0,0,1.42-.6A2.42,2.42,0,0,0,516.89,770.89Z"/><path class="cls-9" d="M526,776.48v1.19h-6.65a2.25,2.25,0,0,1,.14-.86,4.53,4.53,0,0,1,.81-1.34,13.88,13.88,0,0,1,1.62-1.53,13.19,13.19,0,0,0,2.22-2.13,2.58,2.58,0,0,0,.58-1.49,1.66,1.66,0,0,0-.53-1.24,1.92,1.92,0,0,0-1.37-.5,2,2,0,0,0-1.43.53,2.06,2.06,0,0,0-.54,1.49l-1.27-.13a3.14,3.14,0,0,1,1-2.17,3.34,3.34,0,0,1,2.29-.75,3.16,3.16,0,0,1,2.29.81,2.61,2.61,0,0,1,.85,2,3,3,0,0,1-.25,1.19,4.53,4.53,0,0,1-.82,1.23,19.63,19.63,0,0,1-1.91,1.77c-.74.62-1.21,1.05-1.42,1.27a3.54,3.54,0,0,0-.53.67Z"/><path class="cls-9" d="M531.94,777.67h-1.23v-7.88a7.11,7.11,0,0,1-1.17.85,9,9,0,0,1-1.3.64v-1.2a7.44,7.44,0,0,0,1.81-1.18,4.6,4.6,0,0,0,1.1-1.35h.79Z"/><path class="cls-9" d="M535.52,771.16l-.35-1.92V767.6h1.41v1.64l-.31,1.92Zm2.27,0-.34-1.92V767.6h1.41v1.64l-.33,1.92Z"/><path class="cls-9" d="M541.26,780.63h-.89a12.41,12.41,0,0,0,2.06-6.61,11.12,11.12,0,0,0-.3-2.56,11.47,11.47,0,0,0-.65-2c-.18-.41-.55-1.09-1.11-2.06h.89a13.45,13.45,0,0,1,1.91,3.47,9.44,9.44,0,0,1-.18,6.71A12.83,12.83,0,0,1,541.26,780.63Z"/><line class="cls-3" x1="755.91" y1="782.95" x2="243.18" y2="782.95"/><polygon class="cls-10" points="753.58 779.54 766.3 782.95 753.58 786.36 753.58 779.54"/><polygon class="cls-10" points="245.51 779.54 232.78 782.95 245.51 786.36 245.51 779.54"/><path class="cls-10" d="M511.79,744.79V739.5L507,732.29h2l2.47,3.78c.45.71.88,1.41,1.28,2.11.38-.66.85-1.39,1.39-2.21l2.42-3.68h1.93l-5,7.21v5.29Z"/><line class="cls-11" x1="499.93" y1="744.84" x2="499.2" y2="62.45"/><path class="cls-10" d="M511.79,78.16V72.87L507,65.67h2l2.47,3.77c.45.71.88,1.41,1.28,2.11.38-.66.85-1.39,1.39-2.2l2.42-3.68h1.93l-5,7.2v5.29Z"/><path class="cls-9" d="M602.74,166.6l-1.81-9.9,4.39-.81a6.06,6.06,0,0,1,2.06-.1,2.22,2.22,0,0,1,1.28.74,2.82,2.82,0,0,1,.68,1.42,2.55,2.55,0,0,1-.35,1.9,3.56,3.56,0,0,1-1.94,1.31,3.44,3.44,0,0,1,.88.34,7.76,7.76,0,0,1,1.33,1.12l2.21,2.38-1.65.3-1.68-1.82c-.5-.52-.89-.92-1.2-1.19a2.92,2.92,0,0,0-.79-.54,1.92,1.92,0,0,0-.64-.15,3.56,3.56,0,0,0-.74.08l-1.52.28.8,4.4Zm.3-5.77,2.82-.52a4.49,4.49,0,0,0,1.37-.44,1.47,1.47,0,0,0,.66-.74,1.56,1.56,0,0,0,.1-.93,1.48,1.48,0,0,0-.72-1.07,2.44,2.44,0,0,0-1.69-.15l-3.14.57Z"/><path class="cls-9" d="M616.8,164l-1.21.22-1.42-7.75a6.8,6.8,0,0,1-1,1.05,8.21,8.21,0,0,1-1.17.86l-.21-1.17a8,8,0,0,0,1.57-1.49,4.59,4.59,0,0,0,.84-1.52l.78-.15Z"/><path class="cls-9" d="M619.46,160.84l1.18-.39a2.72,2.72,0,0,0,1,1.36,1.8,1.8,0,0,0,1.31.24,2.06,2.06,0,0,0,1.66-2.44,1.92,1.92,0,0,0-.8-1.29,2,2,0,0,0-1.49-.29,3.76,3.76,0,0,0-.84.3l-.06-1.1.2,0a2.51,2.51,0,0,0,1.33-.66,1.43,1.43,0,0,0,.39-1.36,1.49,1.49,0,0,0-.66-1,1.61,1.61,0,0,0-1.25-.22,1.64,1.64,0,0,0-1.1.66,2.27,2.27,0,0,0-.36,1.45H618.7a3.22,3.22,0,0,1,.67-2.08,3,3,0,0,1,1.84-1,3.27,3.27,0,0,1,1.56.08,2.63,2.63,0,0,1,1.22.75,2.49,2.49,0,0,1,.59,1.22,2.08,2.08,0,0,1-.13,1.23,2.36,2.36,0,0,1-.86,1,2.35,2.35,0,0,1,1.51.59,2.53,2.53,0,0,1,.78,1.51,3,3,0,0,1-.54,2.37,3.34,3.34,0,0,1-2.23,1.34,3.11,3.11,0,0,1-2.3-.38A3,3,0,0,1,619.46,160.84Z"/><line class="cls-12" x1="632.81" y1="143.97" x2="583.37" y2="151.85"/><polygon class="cls-9" points="629.98 140.97 643.08 142.34 631.05 147.71 629.98 140.97"/><line class="cls-12" x1="590.83" y1="99.51" x2="579.19" y2="189.21"/><polygon class="cls-9" points="587.14 101.38 592.16 89.2 593.91 102.26 587.14 101.38"/><line class="cls-12" x1="542.48" y1="94.74" x2="530.84" y2="184.44"/><polygon class="cls-9" points="538.8 96.61 543.82 84.43 545.56 97.49 538.8 96.61"/><line class="cls-7" x1="720.96" y1="292.13" x2="720.96" y2="92.7"/><polygon class="cls-10" points="724.37 289.81 720.96 302.53 717.55 289.81 724.37 289.81"/><polygon class="cls-10" points="724.23 95.02 720.82 82.3 717.41 95.02 724.23 95.02"/><line class="cls-7" x1="883.67" y1="708.31" x2="883.67" y2="93.25"/><polygon class="cls-10" points="887.08 705.99 883.67 718.71 880.26 705.99 887.08 705.99"/><polygon class="cls-10" points="886.93 95.58 883.52 82.85 880.11 95.58 886.93 95.58"/><line class="cls-7" x1="684.46" y1="131.94" x2="684.46" y2="92.7"/><polygon class="cls-10" points="687.73 129.61 684.32 142.34 680.91 129.61 687.73 129.61"/><polygon class="cls-10" points="687.73 95.02 684.32 82.3 680.91 95.02 687.73 95.02"/><path class="cls-9" d="M678.58,116.16v1.24H670.7a6.58,6.58,0,0,1,.86,1.17,8.41,8.41,0,0,1,.63,1.3H671a7.75,7.75,0,0,0-1.18-1.81,4.6,4.6,0,0,0-1.35-1.1v-.8Z"/><path class="cls-9" d="M678.58,109h-2.41v4.37H675l-6.53-4.59v-1H675v-1.36h1.13v1.36h2.41ZM675,109H670.5l4.54,3.16Z"/><line class="cls-13" x1="153.49" y1="405.08" x2="686.86" y2="405.08"/><g class="cls-8"><path class="cls-9" d="M138.44,409.93l3.89-5.24-3.43-4.83h1.59l1.82,2.59c.38.53.65.95.81,1.23.23-.36.49-.74.8-1.14l2-2.68h1.45l-3.54,4.75,3.81,5.32H146l-2.53-3.59c-.14-.2-.29-.43-.44-.67q-.35.56-.48.75L140,409.93Z"/></g><path class="cls-9" d="M687.2,409.93l3.89-5.24-3.43-4.83h1.59l1.82,2.59c.38.53.65.95.81,1.23.23-.36.49-.74.8-1.14l2-2.68h1.45l-3.54,4.75,3.81,5.32h-1.65l-2.53-3.59c-.14-.2-.29-.43-.44-.67q-.34.56-.48.75l-2.53,3.51Z"/><line class="cls-7" x1="478.07" y1="51.41" x2="522.19" y2="51.41"/><polygon class="cls-10" points="480.39 54.68 467.67 51.27 480.39 47.86 480.39 54.68"/><polygon class="cls-10" points="519.87 54.68 532.59 51.27 519.87 47.86 519.87 54.68"/><line class="cls-7" x1="367.07" y1="24.44" x2="632.62" y2="24.44"/><polygon class="cls-10" points="369.4 27.71 356.68 24.3 369.4 20.89 369.4 27.71"/><polygon class="cls-10" points="630.3 27.71 643.02 24.3 630.3 20.89 630.3 27.71"/><path class="cls-9" d="M272.28,696.13l5.13-8.66,3.85,2.27a5.89,5.89,0,0,1,1.62,1.28,2.18,2.18,0,0,1,.47,1.39,2.85,2.85,0,0,1-.41,1.52,2.48,2.48,0,0,1-1.52,1.2,3.48,3.48,0,0,1-2.32-.29,3.3,3.3,0,0,1,.44.85,7.12,7.12,0,0,1,.27,1.71l.11,3.25-1.44-.85-.08-2.48c0-.72-.07-1.28-.12-1.69a3.43,3.43,0,0,0-.24-.92,2.2,2.2,0,0,0-.39-.54,3.36,3.36,0,0,0-.61-.42l-1.33-.79-2.28,3.85Zm4-4.16,2.46,1.46a4.09,4.09,0,0,0,1.33.56,1.48,1.48,0,0,0,1-.12,1.7,1.7,0,0,0,.69-.64,1.5,1.5,0,0,0,.15-1.27,2.42,2.42,0,0,0-1.17-1.23L278,689.1Z"/><path class="cls-9" d="M282,698.75l1.14.49a2.71,2.71,0,0,0-.14,1.67,1.77,1.77,0,0,0,.83,1,2,2,0,0,0,1.58.23,2.07,2.07,0,0,0,1.28-1,1.84,1.84,0,0,0,.23-1.49,1.92,1.92,0,0,0-.93-1.19,3.65,3.65,0,0,0-.82-.33l.67-.86.16.11a2.57,2.57,0,0,0,1.44.37,1.41,1.41,0,0,0,1.19-.77,1.53,1.53,0,0,0,.18-1.21,1.82,1.82,0,0,0-2.06-1.21,2.29,2.29,0,0,0-1.23.86l-1-.82a3.15,3.15,0,0,1,1.87-1.14,3,3,0,0,1,2.06.44,3.32,3.32,0,0,1,1.13,1.07,2.53,2.53,0,0,1,.42,1.37,2.47,2.47,0,0,1-.34,1.31,2.23,2.23,0,0,1-.91.84,2.39,2.39,0,0,1-1.33.21,2.28,2.28,0,0,1,.76,1.44,2.57,2.57,0,0,1-.4,1.65,3,3,0,0,1-2,1.43,3.38,3.38,0,0,1-2.56-.45,3.18,3.18,0,0,1-1.49-1.8A3.06,3.06,0,0,1,282,698.75Z"/><line class="cls-12" x1="244.4" y1="684.24" x2="284.68" y2="708.53"/><polygon class="cls-9" points="244.63 688.36 235.5 678.87 248.16 682.52 244.63 688.36"/><path class="cls-9" d="M723.51,683.43,729,675l3.75,2.43a5.72,5.72,0,0,1,1.57,1.34,2.2,2.2,0,0,1,.42,1.41,2.82,2.82,0,0,1-.47,1.5,2.53,2.53,0,0,1-1.57,1.14,3.52,3.52,0,0,1-2.3-.38,3.72,3.72,0,0,1,.4.86A6.94,6.94,0,0,1,731,685l0,3.25-1.41-.91,0-2.48c0-.72,0-1.28-.05-1.69a3.44,3.44,0,0,0-.2-.93,2,2,0,0,0-.37-.56,4.65,4.65,0,0,0-.59-.44l-1.3-.84-2.43,3.75Zm4.18-4,2.4,1.56a4.37,4.37,0,0,0,1.3.62,1.55,1.55,0,0,0,1.7-.7,1.5,1.5,0,0,0,.21-1.26,2.42,2.42,0,0,0-1.13-1.28l-2.67-1.73Z"/><path class="cls-9" d="M735.51,691.19l-1-.68,4.29-6.61a5.94,5.94,0,0,1-1.45.08,7.91,7.91,0,0,1-1.44-.17l.65-1a7.43,7.43,0,0,0,2.16,0,4.7,4.7,0,0,0,1.66-.53l.67.43Z"/><path class="cls-9" d="M738.75,693.27l.77-1.18,1.18.77-.76,1.18Z"/><path class="cls-9" d="M742.89,692.81l1.15.61a2.31,2.31,0,0,0-.22,1.56,1.84,1.84,0,0,0,.81,1.09,2,2,0,0,0,1.63.26,2.52,2.52,0,0,0,1.49-1.16,2.28,2.28,0,0,0,.41-1.73,2,2,0,0,0-1-1.35,2.13,2.13,0,0,0-1.05-.36,1.94,1.94,0,0,0-1,.18l-.89-.76,3.63-3.81,4.2,2.72-.64,1L748,688.87l-1.92,2a3.34,3.34,0,0,1,1.94.51,3,3,0,0,1,1.37,2,3.21,3.21,0,0,1-.52,2.46,3.66,3.66,0,0,1-1.95,1.55,3.18,3.18,0,0,1-2.88-.41,3.28,3.28,0,0,1-1.47-1.87A3,3,0,0,1,742.89,692.81Z"/><line class="cls-12" x1="757.01" y1="711.34" x2="717.74" y2="685.44"/><polygon class="cls-9" points="756.95 707.21 765.69 717.06 753.19 712.9 756.95 707.21"/><line class="cls-7" x1="791.38" y1="708.96" x2="791.38" y2="684.83"/><polygon class="cls-10" points="794.79 706.63 791.38 719.36 787.97 706.63 794.79 706.63"/><polygon class="cls-10" points="794.65 687.15 791.24 674.43 787.83 687.15 794.65 687.15"/><path class="cls-9" d="M785.55,706.2v1.24h-7.87a6.7,6.7,0,0,1,.85,1.17,9.62,9.62,0,0,1,.64,1.3H778a7.25,7.25,0,0,0-1.18-1.81,4.45,4.45,0,0,0-1.35-1.1v-.8Z"/><path class="cls-9" d="M780.59,703a9.45,9.45,0,0,1-2.88-.36,3.7,3.7,0,0,1-1.68-1.09,2.85,2.85,0,0,1-.59-1.83,3,3,0,0,1,.33-1.42,2.75,2.75,0,0,1,.94-1,5.17,5.17,0,0,1,1.5-.63,10.06,10.06,0,0,1,2.38-.22,9.36,9.36,0,0,1,2.86.36,3.65,3.65,0,0,1,1.68,1.09,3.05,3.05,0,0,1-.45,4.12A6.66,6.66,0,0,1,780.59,703Zm0-1.27a6.3,6.3,0,0,0,3.3-.58,1.69,1.69,0,0,0,.82-1.43,1.72,1.72,0,0,0-.82-1.43,9.71,9.71,0,0,0-6.61,0,1.73,1.73,0,0,0-.81,1.44,1.6,1.6,0,0,0,.72,1.37A6.46,6.46,0,0,0,780.59,701.76Z"/><path class="cls-9" d="M785.55,694.52h-1.4v-1.41h1.4Z"/><path class="cls-9" d="M782.92,691.3l-.11-1.29a2.35,2.35,0,0,0,1.42-.67,1.84,1.84,0,0,0,.48-1.27,2,2,0,0,0-.67-1.51,2.52,2.52,0,0,0-1.79-.62,2.33,2.33,0,0,0-1.67.59,2.08,2.08,0,0,0-.61,1.56,2.16,2.16,0,0,0,.27,1.08,2.05,2.05,0,0,0,.71.75l-.16,1.16-5.17-1v-5h1.18v4l2.71.54a3.27,3.27,0,0,1-.63-1.9,3,3,0,0,1,.91-2.23,3.2,3.2,0,0,1,2.35-.9,3.66,3.66,0,0,1,2.36.79,3.2,3.2,0,0,1,1.23,2.65,3.28,3.28,0,0,1-.77,2.24A3,3,0,0,1,782.92,691.3Z"/><line class="cls-7" x1="820.26" y1="708.96" x2="820.26" y2="612.15"/><polygon class="cls-10" points="823.67 706.63 820.26 719.36 816.85 706.63 823.67 706.63"/><polygon class="cls-10" points="823.53 614.48 820.12 601.76 816.71 614.48 823.53 614.48"/><path class="cls-9" d="M839.45,576.33l.1,1.23a2.33,2.33,0,0,0-1.06.46,1.66,1.66,0,0,0-.53,1.24,1.72,1.72,0,0,0,.33,1,2.91,2.91,0,0,0,1.24.92,6.68,6.68,0,0,0,2.33.35,2.86,2.86,0,0,1-1-1.1,2.9,2.9,0,0,1-.33-1.35,2.82,2.82,0,0,1,.91-2.1,3.27,3.27,0,0,1,2.36-.87,3.8,3.8,0,0,1,1.76.41,2.88,2.88,0,0,1,1.24,1.12,3.07,3.07,0,0,1,.44,1.62,3.16,3.16,0,0,1-1.14,2.52,5.75,5.75,0,0,1-3.75,1,6.7,6.7,0,0,1-4.24-1.08,3.11,3.11,0,0,1-1.16-2.54,2.7,2.7,0,0,1,2.51-2.85Zm4.34,5a2.91,2.91,0,0,0,1.23-.28,2,2,0,0,0,.88-.76,1.82,1.82,0,0,0,.31-1,1.76,1.76,0,0,0-.63-1.35,2.52,2.52,0,0,0-1.72-.56,2.33,2.33,0,0,0-1.64.56,1.83,1.83,0,0,0-.6,1.4,1.9,1.9,0,0,0,.6,1.42A2.15,2.15,0,0,0,843.79,581.38Z"/><path class="cls-9" d="M845.87,568.42h1.19v6.66a2.08,2.08,0,0,1-.86-.15,4.53,4.53,0,0,1-1.34-.81,12.43,12.43,0,0,1-1.53-1.62,14.51,14.51,0,0,0-2.13-2.22,2.56,2.56,0,0,0-1.49-.57,1.65,1.65,0,0,0-1.24.52,1.92,1.92,0,0,0-.5,1.37,2,2,0,0,0,.53,1.43,2,2,0,0,0,1.49.54l-.13,1.27a3.1,3.1,0,0,1-2.17-1,3.34,3.34,0,0,1-.75-2.29,3.17,3.17,0,0,1,.81-2.29,2.64,2.64,0,0,1,2-.85,3.14,3.14,0,0,1,1.19.25,4.78,4.78,0,0,1,1.23.82,19.63,19.63,0,0,1,1.77,1.91c.62.74,1.05,1.22,1.27,1.43a3.91,3.91,0,0,0,.67.52Z"/><path class="cls-9" d="M847.06,566.4h-1.41V565h1.41Z"/><path class="cls-9" d="M844.42,563.2l-.11-1.3a2.35,2.35,0,0,0,1.42-.67,1.81,1.81,0,0,0,.48-1.27,2,2,0,0,0-.67-1.51,2.56,2.56,0,0,0-1.79-.61,2.27,2.27,0,0,0-1.67.59,2.06,2.06,0,0,0-.61,1.56,2.17,2.17,0,0,0,1,1.83l-.15,1.16-5.17-1v-5h1.18v4l2.71.54a3.3,3.3,0,0,1-.63-1.9,3,3,0,0,1,.91-2.23,3.21,3.21,0,0,1,2.35-.91,3.66,3.66,0,0,1,2.36.8,3.19,3.19,0,0,1,1.23,2.64,3.28,3.28,0,0,1-.77,2.25A3,3,0,0,1,844.42,563.2Z"/><line class="cls-7" x1="853.13" y1="708.96" x2="853.13" y2="438.39"/><polygon class="cls-10" points="856.54 706.63 853.13 719.36 849.72 706.63 856.54 706.63"/><polygon class="cls-10" points="856.39 440.94 852.99 428.22 849.57 440.94 856.39 440.94"/><line class="cls-12" x1="430.81" y1="614.03" x2="422.07" y2="591.08"/><polygon class="cls-9" points="433.17 610.64 434.51 623.74 426.8 613.07 433.17 610.64"/><path class="cls-9" d="M389.94,235l-3-9.61,4.26-1.34a6,6,0,0,1,2-.35,2.22,2.22,0,0,1,1.35.58,2.82,2.82,0,0,1,.86,1.32,2.57,2.57,0,0,1-.12,1.93,3.57,3.57,0,0,1-1.77,1.54,3.41,3.41,0,0,1,.92.23,6.92,6.92,0,0,1,1.45,1l2.5,2.09-1.6.5-1.9-1.6c-.55-.46-1-.8-1.33-1a3,3,0,0,0-.85-.44,1.93,1.93,0,0,0-.66-.08,4.59,4.59,0,0,0-.72.18l-1.48.46,1.34,4.27Zm-.41-5.77,2.73-.86a4.29,4.29,0,0,0,1.3-.6,1.6,1.6,0,0,0,.57-.81,1.7,1.7,0,0,0,0-.95,1.53,1.53,0,0,0-.85-1,2.44,2.44,0,0,0-1.7.05l-3,.95Z"/><path class="cls-9" d="M405,229.05l.35,1.14-6.35,2a2.11,2.11,0,0,1-.12-.86,4.58,4.58,0,0,1,.38-1.53,12.39,12.39,0,0,1,1.09-1.93,14.2,14.2,0,0,0,1.47-2.7,2.58,2.58,0,0,0,.11-1.6,1.67,1.67,0,0,0-.87-1,1.88,1.88,0,0,0-1.46-.07,2,2,0,0,0-1.21.94,2.07,2.07,0,0,0-.07,1.58l-1.25.25a3.14,3.14,0,0,1,.29-2.36,3.32,3.32,0,0,1,2-1.4,3.2,3.2,0,0,1,2.43.08,2.65,2.65,0,0,1,1.4,1.65,3.05,3.05,0,0,1,.12,1.21,4.55,4.55,0,0,1-.42,1.42,19.4,19.4,0,0,1-1.28,2.26c-.52.82-.85,1.36-1,1.63a4.34,4.34,0,0,0-.29.8Z"/><line class="cls-12" x1="362.31" y1="247.86" x2="407.3" y2="234.14"/><polygon class="cls-9" points="365.53 250.45 352.37 250.9 363.54 243.92 365.53 250.45"/><line class="cls-12" x1="308.08" y1="653.65" x2="288.08" y2="611.08"/><polygon class="cls-9" points="310.18 650.09 312.5 663.06 304.01 652.99 310.18 650.09"/><polyline class="cls-12" points="449.18 596.78 269.82 560.71 300.51 519.07 227.09 497.03"/><polygon class="cls-9" points="447.57 592.98 459.38 598.83 446.23 599.66 447.57 592.98"/><line class="cls-12" x1="436.49" y1="292.54" x2="426.11" y2="313.03"/><polygon class="cls-9" points="432.39 293.08 441.18 283.27 438.48 296.16 432.39 293.08"/><polyline class="cls-12" points="454.13 308.62 268.08 337.89 298.42 353.67 226.09 368.78"/><polygon class="cls-9" points="451.31 305.61 464.4 307 452.37 312.35 451.31 305.61"/><line class="cls-12" x1="459.24" y1="368.92" x2="195.48" y2="368.92"/><polygon class="cls-9" points="456.91 365.5 469.64 368.92 456.91 372.32 456.91 365.5"/><line class="cls-12" x1="459.24" y1="497.03" x2="195.48" y2="497.03"/><polygon class="cls-9" points="456.91 493.62 469.64 497.03 456.91 500.44 456.91 493.62"/><line class="cls-7" x1="165.7" y1="708.92" x2="165.7" y2="415.48"/><polygon class="cls-10" points="168.97 706.59 165.56 719.32 162.15 706.59 168.97 706.59"/><polygon class="cls-10" points="168.97 417.8 165.56 405.08 162.15 417.8 168.97 417.8"/><line class="cls-7" x1="202.41" y1="708.92" x2="202.41" y2="507.42"/><polygon class="cls-10" points="205.68 706.59 202.27 719.32 198.86 706.59 205.68 706.59"/><polygon class="cls-10" points="205.68 509.75 202.27 497.02 198.86 509.75 205.68 509.75"/><line class="cls-7" x1="202.41" y1="486.63" x2="202.41" y2="379.31"/><polygon class="cls-10" points="205.68 484.3 202.27 497.02 198.86 484.3 205.68 484.3"/><polygon class="cls-10" points="205.68 381.64 202.27 368.92 198.86 381.64 205.68 381.64"/><line class="cls-7" x1="480.33" y1="368.78" x2="519.41" y2="368.78"/><polygon class="cls-10" points="482.65 372.19 469.93 368.78 482.65 365.37 482.65 372.19"/><polygon class="cls-10" points="517.08 372.04 529.81 368.63 517.08 365.22 517.08 372.04"/><line class="cls-14" x1="372.05" y1="428.13" x2="860.23" y2="428.13"/><path class="cls-9" d="M365.68,432.07h-1.24v-7.88a5.91,5.91,0,0,1-1.17.85,7.36,7.36,0,0,1-1.3.64v-1.19a7.28,7.28,0,0,0,1.81-1.19,4.54,4.54,0,0,0,1.1-1.34h.8Z"/><rect class="cls-2" x="498.62" y="351.14" width="2.18" height="14.36"/><path class="cls-9" d="M497.5,363.38h-1.24V355.5a5.91,5.91,0,0,1-1.17.85,7.36,7.36,0,0,1-1.3.64V355.8a7.28,7.28,0,0,0,1.81-1.19,4.54,4.54,0,0,0,1.1-1.34h.8Z"/><path class="cls-9" d="M504.63,363.38V361h-4.37v-1.14l4.6-6.52h1v6.52h1.36V361h-1.36v2.41Zm0-3.55v-4.54l-3.15,4.54Z"/></g><g id="Watermark"><rect class="cls-2" x="438.45" y="662.28" width="123.09" height="46.3"/><rect class="cls-15" x="444.86" y="670.12" width="62.89" height="30.62"/><rect class="cls-15" x="507.75" y="670.12" width="47.39" height="30.62"/><path class="cls-16" d="M466.48,676.22l-2.79,18.92H461l-1.55-11-1.53,11h-2.74l-2.8-18.92h2.51l1.79,14.18,1.79-14.18h2l1.79,14.18L464,676.22Z"/><path class="cls-16" d="M467.93,695.14V676.22h2.53v18.92Z"/><path class="cls-16" d="M472.83,676.22h5q2.9,0,2.9,3.24v4.67c0,1.65-.51,2.69-1.51,3.13l1.77,7.88h-2.4l-1.66-7.64h-1.53v7.64h-2.53Zm2.53,9.12H477c.76,0,1.14-.46,1.14-1.37v-4.09c0-.91-.38-1.36-1.14-1.36h-1.66Z"/><path class="cls-16" d="M486.82,678.52v16.62h-2.53V678.52h-2.42v-2.3h7.38v2.3Z"/><path class="cls-16" d="M496.34,695.14v-8.59h-3.11v8.59H490.7V676.22h2.53v8h3.11v-8h2.53v18.92Z"/><path class="cls-16" d="M516.31,676.22h5q2.9,0,2.89,3.24v4.67c0,1.65-.5,2.69-1.5,3.13l1.77,7.88H522l-1.66-7.64h-1.53v7.64h-2.53Zm2.53,9.12h1.66c.76,0,1.13-.46,1.13-1.37v-4.09c0-.91-.37-1.36-1.13-1.36h-1.66Z"/><path class="cls-16" d="M528.67,695.14h-2.53V679.46q0-3.24,3-3.24h1.9q3,0,3,3.24v15.68h-2.53v-6.93h-2.9Zm2.9-9.22v-6.3a1,1,0,0,0-1.11-1.1h-.68a1,1,0,0,0-1.11,1.1v6.3Z"/><path class="cls-16" d="M536.34,695.14V676.22h2.53v18.92Z"/><path class="cls-16" d="M547.24,695.14h-6V676.22h2.53v16.63h3.47Z"/></g></svg>