<svg xmlns="http://www.w3.org/2000/svg" xmlns:xlink="http://www.w3.org/1999/xlink" viewBox="0 0 1000 800"><defs><style>.cls-1,.cls-11,.cls-12,.cls-3,.cls-4,.cls-5,.cls-6,.cls-7{fill:none;}.cls-13,.cls-2{fill:#f0f0f0;}.cls-11,.cls-3,.cls-4,.cls-5,.cls-6,.cls-7{stroke:#221e1f;}.cls-11,.cls-12,.cls-3,.cls-4,.cls-5,.cls-7{stroke-width:0.89px;}.cls-4{stroke-dasharray:18.71 5.64;}.cls-5{stroke-miterlimit:1;}.cls-6{stroke-linecap:round;stroke-linejoin:round;stroke-width:1.09px;}.cls-7{stroke-dasharray:18.7 5.63;}.cls-8{clip-path:url(#clip-path);}.cls-9{fill:#303030;}.cls-10{fill:#221e1f;}.cls-11{stroke-dasharray:18.73 5.65;}.cls-12{stroke:#303030;}.cls-12,.cls-13{stroke-miterlimit:10;}.cls-13{stroke:#ccc;}.cls-14{fill:#ccc;}</style><clipPath id="clip-path"><rect class="cls-1" x="126.06" y="6.01" width="760.42" height="777.9"/></clipPath></defs><g id="Flat"><path class="cls-2" d="M220.12,722.65a7.94,7.94,0,0,0,2.34,5.63,8,8,0,0,0,5.66,2.34H772a8,8,0,0,0,8-8v-25a12,12,0,0,0-10.81-11.89l-74.11-7.38a80.47,80.47,0,0,1-19.38-4.4L575.63,639.33c-23.58-8.54-46.46-11.53-46.46-47.74,0-91.32-3.45-182.55,1.16-270.2.61-11.53,3.5-16.05,8.51-26.47,3.62-7.52,14.58-13.33,22.45-16.18l70.36-22.59a11.94,11.94,0,0,0,7.87-11.83l-4-79.48c-1.16-23.23-13.21-54.16-36-59.25A321,321,0,0,0,540.12,98q-20-.66-40-.66T460,98a321.14,321.14,0,0,0-59.4,7.56c-22.79,5.09-34.85,36-36,59.25l-4,79.48a12,12,0,0,0,7.88,11.83l70.36,22.59c7.87,2.85,18.83,8.66,22.45,16.18,5,10.42,7.9,14.94,8.51,26.47,4.6,87.65,4.26,172.89,2.75,273.22-.38,25-14.33,37.72-48,44.72L324.42,674a80.47,80.47,0,0,1-19.38,4.4l-74.12,7.38a12,12,0,0,0-10.8,11.89Z"/><path class="cls-3" d="M220.12,722.65a7.94,7.94,0,0,0,2.34,5.63,8,8,0,0,0,5.66,2.34H772a8,8,0,0,0,8-8v-25a12,12,0,0,0-10.81-11.89l-74.11-7.38a80.47,80.47,0,0,1-19.38-4.4L575.63,639.33c-23.58-8.54-46.46-11.53-46.46-47.74,0-91.32-3.45-182.55,1.16-270.2.61-11.53,3.5-16.05,8.51-26.47,3.62-7.52,14.58-13.33,22.45-16.18l70.36-22.59a11.94,11.94,0,0,0,7.87-11.83l-4-79.48c-1.16-23.23-13.21-54.16-36-59.25A321,321,0,0,0,540.12,98q-20-.66-40-.66T460,98a321.14,321.14,0,0,0-59.4,7.56c-22.79,5.09-34.85,36-36,59.25l-4,79.48a12,12,0,0,0,7.88,11.83l70.36,22.59c7.87,2.85,18.83,8.66,22.45,16.18,5,10.42,7.9,14.94,8.51,26.47,4.6,87.65,4.26,172.89,2.75,273.22-.38,25-14.33,37.72-48,44.72L324.42,674a80.47,80.47,0,0,1-19.38,4.4l-74.12,7.38a12,12,0,0,0-10.8,11.89Z"/><line class="cls-4" x1="139.74" y1="435.84" x2="718.63" y2="435.84"/><path class="cls-5" d="M330.65,671.79l169.51-15.07,170.17,15.36M457,627l43.46-15,44,14.48"/><polyline class="cls-6" points="455.63 287.85 500.08 305.65 544.54 287.85"/><path class="cls-5" d="M635.76,169.2h44.39M499.33,305.65h219.3M500.16,612H845.6m-78.11,73.44h45.17"/><line class="cls-7" x1="188.91" y1="456.21" x2="718.63" y2="456.21"/><g class="cls-8"><path class="cls-5" d="M780.66,734.54v49.37m-560.4-61.26v60.13M636.6,187.3V12.81m-274.54,201V15.32"/></g><path class="cls-9" d="M727.9,459.79h-1.13v-7.16a5.71,5.71,0,0,1-1.06.78,7.46,7.46,0,0,1-1.18.58V452.9a6.61,6.61,0,0,0,1.65-1.07,4.15,4.15,0,0,0,1-1.22h.73Z"/><path class="cls-5" d="M417.38,102.31V39.9m33.94,58.34v-37m97.31,37v-37M580.32,102V39.9"/><path class="cls-9" d="M354.59,199.18l-.09,1.12-7.13-.53a6.44,6.44,0,0,1,.69,1.12,7.38,7.38,0,0,1,.49,1.22l-1.08-.08a7,7,0,0,0-1-1.73,4.22,4.22,0,0,0-1.15-1.08l.06-.72Z"/><path class="cls-9" d="M349.51,195.29l-1.27-.09.09-1.28,1.28.1Zm5.34.4-1.28-.1.1-1.27,1.27.09Z"/><path class="cls-9" d="M354.43,186.81l1.07.08-.45,6a2,2,0,0,1-.76-.18,4.16,4.16,0,0,1-1.16-.83,10.77,10.77,0,0,1-1.27-1.57,12.27,12.27,0,0,0-1.79-2.15,2.34,2.34,0,0,0-1.3-.63,1.5,1.5,0,0,0-1.16.4,1.7,1.7,0,0,0-.55,1.2,1.74,1.74,0,0,0,.39,1.33,1.79,1.79,0,0,0,1.3.59l-.2,1.15a2.88,2.88,0,0,1-1.9-1,3.07,3.07,0,0,1-.52-2.12,3,3,0,0,1,.88-2,2.45,2.45,0,0,1,1.87-.63,2.8,2.8,0,0,1,1.06.31,4.07,4.07,0,0,1,1.05.82,18.51,18.51,0,0,1,1.48,1.85c.51.71.87,1.18,1,1.38a3.84,3.84,0,0,0,.57.52Z"/><path class="cls-9" d="M351.1,185.35a8.37,8.37,0,0,1-2.58-.53,3.2,3.2,0,0,1-1.45-1.1,2.55,2.55,0,0,1-.41-1.69,2.6,2.6,0,0,1,.39-1.27,2.44,2.44,0,0,1,.92-.85,4.43,4.43,0,0,1,1.4-.46,8.69,8.69,0,0,1,2.17,0,8.43,8.43,0,0,1,2.57.53,3.23,3.23,0,0,1,1.45,1.09,2.58,2.58,0,0,1,.41,1.7,2.48,2.48,0,0,1-1.1,2A6,6,0,0,1,351.1,185.35Zm.08-1.15a5.8,5.8,0,0,0,3-.3,1.57,1.57,0,0,0,.84-1.25,1.55,1.55,0,0,0-.65-1.35,8.72,8.72,0,0,0-6-.44,1.56,1.56,0,0,0-.84,1.25,1.44,1.44,0,0,0,.56,1.28A5.77,5.77,0,0,0,351.18,184.2Z"/><path class="cls-9" d="M387.58,156.61l1.31-9.05,4,.58a5.26,5.26,0,0,1,1.8.52,2,2,0,0,1,.88,1,2.63,2.63,0,0,1,.18,1.42,2.31,2.31,0,0,1-.86,1.54,3.23,3.23,0,0,1-2.05.56,2.8,2.8,0,0,1,.66.55,6.62,6.62,0,0,1,.82,1.35l1.21,2.69-1.5-.22-.93-2.05c-.27-.6-.5-1.06-.68-1.38a2.66,2.66,0,0,0-.52-.69,1.74,1.74,0,0,0-.51-.32,3.11,3.11,0,0,0-.66-.14l-1.39-.2-.59,4Zm1.93-4.88,2.57.37a3.87,3.87,0,0,0,1.31,0,1.38,1.38,0,0,0,.79-.44,1.64,1.64,0,0,0,.36-.78,1.37,1.37,0,0,0-.32-1.12,2.22,2.22,0,0,0-1.41-.63l-2.86-.42Z"/><path class="cls-9" d="M400.43,158.48l-1.12-.16,1-7.08a5.89,5.89,0,0,1-1.16.61,7.08,7.08,0,0,1-1.25.4l.15-1.07a6.69,6.69,0,0,0,1.79-.83,4.18,4.18,0,0,0,1.16-1.06l.72.1Z"/><path class="cls-9" d="M403.61,156.5l1.13,0a2.52,2.52,0,0,0,.45,1.45,1.59,1.59,0,0,0,1.06.58,1.81,1.81,0,0,0,1.41-.35,1.86,1.86,0,0,0,.73-1.26,1.73,1.73,0,0,0-.31-1.34,1.75,1.75,0,0,0-1.2-.68,3.09,3.09,0,0,0-.8,0l.26-1,.18,0a2.23,2.23,0,0,0,1.33-.19,1.27,1.27,0,0,0,.73-1.06,1.39,1.39,0,0,0-.26-1.07,1.5,1.5,0,0,0-1-.56,1.55,1.55,0,0,0-1.14.26,2.11,2.11,0,0,0-.74,1.14l-1.08-.36a2.91,2.91,0,0,1,1.18-1.6,2.68,2.68,0,0,1,1.89-.35,3,3,0,0,1,1.31.51,2.29,2.29,0,0,1,.83,1,2.23,2.23,0,0,1,.16,1.22,1.85,1.85,0,0,1-.47,1,2.13,2.13,0,0,1-1,.63,2.1,2.1,0,0,1,1.13.95,2.38,2.38,0,0,1,.24,1.52,2.73,2.73,0,0,1-1.16,1.89,3.1,3.1,0,0,1-2.31.5,2.83,2.83,0,0,1-1.87-1A2.71,2.71,0,0,1,403.61,156.5Z"/><path class="cls-9" d="M476.2,8.41l-1.12.09a2.15,2.15,0,0,0-.42-1,1.5,1.5,0,0,0-1.13-.48,1.55,1.55,0,0,0-.94.3,2.48,2.48,0,0,0-.83,1.13,5.77,5.77,0,0,0-.32,2.11,2.63,2.63,0,0,1,1-.92,2.66,2.66,0,0,1,1.23-.3,2.54,2.54,0,0,1,1.91.83,3,3,0,0,1,.79,2.14A3.49,3.49,0,0,1,476,14a2.74,2.74,0,0,1-1,1.13,2.78,2.78,0,0,1-1.47.39,2.86,2.86,0,0,1-2.29-1,5.21,5.21,0,0,1-.89-3.4,6.14,6.14,0,0,1,1-3.86,2.82,2.82,0,0,1,2.3-1,2.61,2.61,0,0,1,1.77.61A2.55,2.55,0,0,1,476.2,8.41Zm-4.59,3.94a2.58,2.58,0,0,0,.25,1.12,1.75,1.75,0,0,0,.69.8,1.66,1.66,0,0,0,.93.28A1.59,1.59,0,0,0,474.7,14a2.29,2.29,0,0,0,.51-1.56,2.16,2.16,0,0,0-.5-1.5,1.68,1.68,0,0,0-1.28-.54,1.76,1.76,0,0,0-1.29.54A2,2,0,0,0,471.61,12.35Z"/><path class="cls-9" d="M477.48,12.92l1.18-.1a2.07,2.07,0,0,0,.61,1.3,1.63,1.63,0,0,0,1.15.43,1.79,1.79,0,0,0,1.37-.61,2.33,2.33,0,0,0,.56-1.62,2.09,2.09,0,0,0-.54-1.52,1.88,1.88,0,0,0-1.41-.55,2,2,0,0,0-1,.24,2,2,0,0,0-.69.64L477.68,11l.88-4.69h4.55V7.37h-3.65L479,9.83a3,3,0,0,1,1.73-.58,2.75,2.75,0,0,1,2,.83,2.92,2.92,0,0,1,.82,2.14,3.31,3.31,0,0,1-.72,2.14,2.91,2.91,0,0,1-2.4,1.11,3,3,0,0,1-2-.69A2.71,2.71,0,0,1,477.48,12.92Z"/><g class="cls-8"><path class="cls-9" d="M490.59,18A11.23,11.23,0,0,1,489,15.26a8.56,8.56,0,0,1-.17-6.1A12.16,12.16,0,0,1,490.59,6h.8a20.45,20.45,0,0,0-1,1.85,9.06,9.06,0,0,0-.6,1.8,10.31,10.31,0,0,0-.27,2.34,11.31,11.31,0,0,0,1.86,6Z"/></g><path class="cls-9" d="M498.29,14.24v1.08h-6.05a2.06,2.06,0,0,1,.13-.78,4.29,4.29,0,0,1,.74-1.22,11.38,11.38,0,0,1,1.47-1.38,12.78,12.78,0,0,0,2-1.94,2.32,2.32,0,0,0,.52-1.35,1.5,1.5,0,0,0-.48-1.13,1.74,1.74,0,0,0-1.24-.46,1.77,1.77,0,0,0-1.3.49,1.83,1.83,0,0,0-.49,1.35l-1.16-.12a2.84,2.84,0,0,1,.9-2,3,3,0,0,1,2.07-.68,2.94,2.94,0,0,1,2.09.73,2.4,2.4,0,0,1,.76,1.81,2.71,2.71,0,0,1-.22,1.08,4.06,4.06,0,0,1-.75,1.12,16.77,16.77,0,0,1-1.73,1.61c-.67.57-1.1.95-1.3,1.15a3.69,3.69,0,0,0-.47.61Z"/><path class="cls-9" d="M500.12,15.32V14h1.28v1.28Z"/><path class="cls-9" d="M503.68,12.92l1.18-.1a2.12,2.12,0,0,0,.61,1.3,1.63,1.63,0,0,0,1.15.43,1.77,1.77,0,0,0,1.37-.61,2.33,2.33,0,0,0,.56-1.62A2.09,2.09,0,0,0,508,10.8a1.88,1.88,0,0,0-1.41-.55,2,2,0,0,0-1,.24,2,2,0,0,0-.69.64L503.88,11l.88-4.69h4.55V7.37h-3.65l-.49,2.46a3,3,0,0,1,1.73-.58,2.75,2.75,0,0,1,2,.83,2.92,2.92,0,0,1,.82,2.14,3.31,3.31,0,0,1-.72,2.14,2.91,2.91,0,0,1-2.4,1.11,3,3,0,0,1-2-.69A2.71,2.71,0,0,1,503.68,12.92Z"/><path class="cls-9" d="M510.79,12.92l1.17-.1a2.12,2.12,0,0,0,.61,1.3,1.64,1.64,0,0,0,1.15.43,1.81,1.81,0,0,0,1.38-.61,2.33,2.33,0,0,0,.56-1.62,2.09,2.09,0,0,0-.54-1.52,1.88,1.88,0,0,0-1.41-.55,2,2,0,0,0-1,.24,1.94,1.94,0,0,0-.69.64L511,11l.89-4.69h4.55V7.37h-3.65l-.49,2.46A3,3,0,0,1,514,9.25a2.77,2.77,0,0,1,2,.83,2.92,2.92,0,0,1,.82,2.14,3.31,3.31,0,0,1-.72,2.14,2.91,2.91,0,0,1-2.41,1.11,3,3,0,0,1-2-.69A2.71,2.71,0,0,1,510.79,12.92Z"/><path class="cls-9" d="M518.06,13.2l1.08-.1a1.93,1.93,0,0,0,.52,1.11,1.44,1.44,0,0,0,1,.34,1.68,1.68,0,0,0,.9-.24,1.84,1.84,0,0,0,.64-.63,3.5,3.5,0,0,0,.42-1.07,5.78,5.78,0,0,0,.17-1.37,2.2,2.2,0,0,0,0-.23,2.49,2.49,0,0,1-.92.87,2.43,2.43,0,0,1-1.26.34,2.54,2.54,0,0,1-1.92-.83,3,3,0,0,1-.79-2.17A3.09,3.09,0,0,1,518.71,7a2.77,2.77,0,0,1,2.06-.85,2.93,2.93,0,0,1,1.63.48A3,3,0,0,1,523.52,8a6.68,6.68,0,0,1,.39,2.58,8.4,8.4,0,0,1-.38,2.79,3.33,3.33,0,0,1-1.14,1.58,2.94,2.94,0,0,1-1.76.54,2.41,2.41,0,0,1-2.57-2.27Zm4.6-4a2.18,2.18,0,0,0-.52-1.54,1.59,1.59,0,0,0-1.23-.57,1.72,1.72,0,0,0-1.31.62,2.24,2.24,0,0,0-.55,1.58,2,2,0,0,0,.52,1.42,1.76,1.76,0,0,0,1.3.55,1.71,1.71,0,0,0,1.29-.55A2.17,2.17,0,0,0,522.66,9.17Z"/><path class="cls-9" d="M525.37,9.41l-.32-1.74V6.17h1.28v1.5l-.28,1.74Zm2.06,0-.31-1.74V6.17h1.28v1.5l-.3,1.74Z"/><g class="cls-8"><path class="cls-9" d="M530.57,18h-.81a11.32,11.32,0,0,0,1.87-6,10.22,10.22,0,0,0-.27-2.33,9.88,9.88,0,0,0-.59-1.79c-.17-.38-.5-1-1-1.87h.81a11.82,11.82,0,0,1,1.73,3.14,8.56,8.56,0,0,1-.17,6.1A11.54,11.54,0,0,1,530.57,18Z"/></g><path class="cls-9" d="M480.7,60.09l1.13-.15a2.48,2.48,0,0,0,.65,1.38,1.64,1.64,0,0,0,1.14.42,1.81,1.81,0,0,0,1.34-.55,1.87,1.87,0,0,0,.54-1.36,1.76,1.76,0,0,0-.5-1.28,1.78,1.78,0,0,0-1.29-.5,2.93,2.93,0,0,0-.79.13l.12-1h.18a2.35,2.35,0,0,0,1.3-.37,1.28,1.28,0,0,0,.57-1.15,1.36,1.36,0,0,0-.42-1,1.49,1.49,0,0,0-1.08-.4,1.51,1.51,0,0,0-1.09.41,2,2,0,0,0-.56,1.23l-1.12-.2a2.9,2.9,0,0,1,.93-1.75,2.73,2.73,0,0,1,1.82-.62,3,3,0,0,1,1.38.32,2.35,2.35,0,0,1,1,.88,2.26,2.26,0,0,1,.33,1.18,1.92,1.92,0,0,1-.31,1.08,2.23,2.23,0,0,1-.95.77,2.17,2.17,0,0,1,1.26.78,2.37,2.37,0,0,1,.45,1.48,2.72,2.72,0,0,1-.87,2,3.09,3.09,0,0,1-2.21.83,2.87,2.87,0,0,1-2-.72A2.81,2.81,0,0,1,480.7,60.09Z"/><path class="cls-9" d="M487.8,58a8.16,8.16,0,0,1,.34-2.62,3.26,3.26,0,0,1,1-1.52,2.53,2.53,0,0,1,1.66-.54,2.67,2.67,0,0,1,1.29.3,2.47,2.47,0,0,1,.91.85,4.32,4.32,0,0,1,.57,1.36,9,9,0,0,1,.21,2.17,8.32,8.32,0,0,1-.33,2.59,3.24,3.24,0,0,1-1,1.53,2.53,2.53,0,0,1-1.66.54,2.48,2.48,0,0,1-2.08-.95A6,6,0,0,1,487.8,58ZM489,58a5.59,5.59,0,0,0,.53,3,1.5,1.5,0,0,0,2.6,0,5.77,5.77,0,0,0,.52-3,5.74,5.74,0,0,0-.52-3,1.56,1.56,0,0,0-1.32-.75,1.44,1.44,0,0,0-1.23.66A5.76,5.76,0,0,0,489,58Z"/><path class="cls-9" d="M495.54,62.51V61.23h1.28v1.28Z"/><path class="cls-9" d="M498.63,60.39l1.08-.1a1.87,1.87,0,0,0,.52,1.11,1.44,1.44,0,0,0,1,.34,1.69,1.69,0,0,0,.91-.24,2,2,0,0,0,.64-.63,3.5,3.5,0,0,0,.42-1.07,5.78,5.78,0,0,0,.17-1.37,2.2,2.2,0,0,0,0-.23,2.49,2.49,0,0,1-.92.87,2.43,2.43,0,0,1-1.26.34,2.54,2.54,0,0,1-1.92-.83,3,3,0,0,1-.79-2.17,3.08,3.08,0,0,1,.82-2.24,2.77,2.77,0,0,1,2.06-.85,2.93,2.93,0,0,1,1.63.48,3.05,3.05,0,0,1,1.12,1.37,6.71,6.71,0,0,1,.38,2.58,8.15,8.15,0,0,1-.38,2.79A3.25,3.25,0,0,1,503,62.12a2.94,2.94,0,0,1-1.76.54,2.57,2.57,0,0,1-1.75-.59A2.55,2.55,0,0,1,498.63,60.39Zm4.6-4a2.18,2.18,0,0,0-.52-1.54,1.6,1.6,0,0,0-1.24-.57,1.72,1.72,0,0,0-1.3.61,2.29,2.29,0,0,0-.56,1.59,2,2,0,0,0,.53,1.42,1.75,1.75,0,0,0,1.3.54,1.66,1.66,0,0,0,1.28-.54A2.14,2.14,0,0,0,503.23,56.36Z"/><path class="cls-9" d="M509.17,62.51V60.32h-4v-1l4.17-5.93h.92v5.93h1.23v1h-1.23v2.19Zm0-3.22V55.16l-2.87,4.13Z"/><path class="cls-9" d="M518.54,61.43v1.08h-6a1.89,1.89,0,0,1,.13-.78,4.07,4.07,0,0,1,.74-1.22,11.38,11.38,0,0,1,1.47-1.38,13.06,13.06,0,0,0,2-1.94,2.34,2.34,0,0,0,.53-1.35,1.5,1.5,0,0,0-.48-1.13,1.75,1.75,0,0,0-1.25-.46,1.71,1.71,0,0,0-1.29.49,1.84,1.84,0,0,0-.5,1.35L512.71,56a2.87,2.87,0,0,1,.89-2,3.06,3.06,0,0,1,2.08-.68,2.91,2.91,0,0,1,2.08.73,2.41,2.41,0,0,1,.77,1.81,2.71,2.71,0,0,1-.22,1.08,4.06,4.06,0,0,1-.75,1.12,17.91,17.91,0,0,1-1.73,1.61c-.67.56-1.11.95-1.3,1.15a3.22,3.22,0,0,0-.47.61Z"/><path class="cls-9" d="M484.3,40.7V38.51h-4v-1l4.17-5.92h.92v5.92h1.24v1h-1.24V40.7Zm0-3.22V33.36l-2.87,4.12Z"/><path class="cls-9" d="M487.81,38.29l1.12-.15a2.52,2.52,0,0,0,.66,1.38,1.63,1.63,0,0,0,1.13.42A1.88,1.88,0,0,0,492.61,38a1.73,1.73,0,0,0-1.79-1.78,3.37,3.37,0,0,0-.8.12l.13-1h.18a2.29,2.29,0,0,0,1.29-.37,1.3,1.3,0,0,0,.58-1.16,1.36,1.36,0,0,0-.42-1,1.63,1.63,0,0,0-2.17,0,2,2,0,0,0-.56,1.23l-1.13-.2a2.88,2.88,0,0,1,.94-1.75,2.7,2.7,0,0,1,1.81-.62,3,3,0,0,1,1.38.32,2.44,2.44,0,0,1,1,.88,2.26,2.26,0,0,1,.33,1.18A2,2,0,0,1,493,35a2.15,2.15,0,0,1-.94.77,2.08,2.08,0,0,1,1.26.78A2.34,2.34,0,0,1,493.8,38a2.69,2.69,0,0,1-.87,2,3.07,3.07,0,0,1-2.21.84,2.86,2.86,0,0,1-2-.72A2.76,2.76,0,0,1,487.81,38.29Z"/><path class="cls-9" d="M495.54,40.7V39.43h1.28V40.7Z"/><path class="cls-9" d="M500.19,35.74a2.11,2.11,0,0,1-1-.73,1.91,1.91,0,0,1-.33-1.13,2.2,2.2,0,0,1,.71-1.68,3,3,0,0,1,3.84,0,2.22,2.22,0,0,1,.73,1.69,1.91,1.91,0,0,1-.33,1.11,2.14,2.14,0,0,1-1,.72,2.48,2.48,0,0,1,1.28.89,2.38,2.38,0,0,1,.44,1.46,2.6,2.6,0,0,1-.83,2,3.37,3.37,0,0,1-4.36,0,2.65,2.65,0,0,1-.83-2,2.45,2.45,0,0,1,.45-1.5A2.28,2.28,0,0,1,500.19,35.74Zm-.59,2.32a2,2,0,0,0,.23.93,1.59,1.59,0,0,0,.68.7,2,2,0,0,0,1,.25,1.83,1.83,0,0,0,1.33-.52,1.92,1.92,0,0,0,0-2.66,1.86,1.86,0,0,0-1.35-.53,1.79,1.79,0,0,0-1.32.52A1.82,1.82,0,0,0,499.6,38.06Zm.36-4.22a1.42,1.42,0,0,0,.42,1.06,1.46,1.46,0,0,0,1.09.41,1.42,1.42,0,0,0,1.06-.41,1.33,1.33,0,0,0,.42-1,1.44,1.44,0,0,0-.43-1,1.47,1.47,0,0,0-1.07-.42,1.45,1.45,0,0,0-1.06.42A1.29,1.29,0,0,0,500,33.84Z"/><path class="cls-9" d="M505.57,38.29l1.13-.15a2.45,2.45,0,0,0,.65,1.38,1.64,1.64,0,0,0,1.14.42A1.88,1.88,0,0,0,510.37,38a1.76,1.76,0,0,0-.5-1.28,1.78,1.78,0,0,0-1.29-.5,3.3,3.3,0,0,0-.79.12l.12-1h.18a2.29,2.29,0,0,0,1.29-.37,1.28,1.28,0,0,0,.58-1.16,1.36,1.36,0,0,0-.42-1,1.63,1.63,0,0,0-2.17,0,2,2,0,0,0-.56,1.23l-1.13-.2a2.88,2.88,0,0,1,.94-1.75,2.73,2.73,0,0,1,1.82-.62,3.08,3.08,0,0,1,1.38.32,2.35,2.35,0,0,1,1,.88,2.26,2.26,0,0,1,.33,1.18,1.9,1.9,0,0,1-.32,1.08,2.15,2.15,0,0,1-.94.77,2.08,2.08,0,0,1,1.26.78,2.34,2.34,0,0,1,.45,1.47,2.69,2.69,0,0,1-.87,2,3.06,3.06,0,0,1-2.21.84,2.87,2.87,0,0,1-2-.72A2.81,2.81,0,0,1,505.57,38.29Z"/><path class="cls-9" d="M514.37,35.74a2.11,2.11,0,0,1-1-.73,1.91,1.91,0,0,1-.33-1.13,2.24,2.24,0,0,1,.71-1.68,3,3,0,0,1,3.84,0,2.22,2.22,0,0,1,.73,1.69A1.91,1.91,0,0,1,518,35a2.14,2.14,0,0,1-1,.72,2.55,2.55,0,0,1,1.29.89,2.45,2.45,0,0,1,.44,1.46,2.64,2.64,0,0,1-.83,2,3.06,3.06,0,0,1-2.19.8,3,3,0,0,1-2.18-.8,2.65,2.65,0,0,1-.83-2,2.45,2.45,0,0,1,.45-1.5A2.28,2.28,0,0,1,514.37,35.74Zm-.59,2.32A2,2,0,0,0,514,39a1.59,1.59,0,0,0,.68.7,2,2,0,0,0,1,.25,1.83,1.83,0,0,0,1.33-.52,1.92,1.92,0,0,0,0-2.66,1.86,1.86,0,0,0-1.35-.53,1.79,1.79,0,0,0-1.32.52A1.82,1.82,0,0,0,513.78,38.06Zm.36-4.22a1.42,1.42,0,0,0,.42,1.06,1.46,1.46,0,0,0,1.09.41,1.42,1.42,0,0,0,1.06-.41,1.33,1.33,0,0,0,.42-1,1.44,1.44,0,0,0-.43-1,1.56,1.56,0,0,0-2.13,0A1.33,1.33,0,0,0,514.14,33.84Z"/><path class="cls-9" d="M668,145.06v1.12h-7.16a5.82,5.82,0,0,1,.77,1.07,7.06,7.06,0,0,1,.58,1.18h-1.08a6.92,6.92,0,0,0-1.08-1.65,4.23,4.23,0,0,0-1.22-1v-.72Z"/><path class="cls-9" d="M665.55,142.18l-.15-1.13a2.48,2.48,0,0,0,1.38-.65,1.64,1.64,0,0,0,.42-1.14,1.81,1.81,0,0,0-.55-1.34,1.87,1.87,0,0,0-1.36-.54,1.76,1.76,0,0,0-1.28.5,1.78,1.78,0,0,0-.5,1.29,2.93,2.93,0,0,0,.13.79l-1-.12a1.36,1.36,0,0,0,0-.18,2.35,2.35,0,0,0-.37-1.3,1.29,1.29,0,0,0-1.16-.57,1.36,1.36,0,0,0-1,.42,1.49,1.49,0,0,0-.41,1.08,1.52,1.52,0,0,0,.42,1.09,2,2,0,0,0,1.23.56l-.2,1.12a2.9,2.9,0,0,1-1.75-.93,2.73,2.73,0,0,1-.62-1.82,3,3,0,0,1,.32-1.38,2.35,2.35,0,0,1,.88-1,2.26,2.26,0,0,1,1.18-.33,2,2,0,0,1,1.08.31,2.23,2.23,0,0,1,.77,1,2.12,2.12,0,0,1,.78-1.26,2.34,2.34,0,0,1,1.47-.45,2.69,2.69,0,0,1,2,.87,3.06,3.06,0,0,1,.84,2.21,2.87,2.87,0,0,1-.72,2A2.81,2.81,0,0,1,665.55,142.18Z"/><path class="cls-9" d="M668,134.45h-1.28v-1.28H668Z"/><path class="cls-9" d="M665.57,131.53l-.1-1.18a2.09,2.09,0,0,0,1.29-.61,1.65,1.65,0,0,0,.44-1.15,1.81,1.81,0,0,0-.61-1.37,2.3,2.3,0,0,0-1.63-.57,2.07,2.07,0,0,0-1.51.54,1.89,1.89,0,0,0-.56,1.42,2,2,0,0,0,.25,1,1.82,1.82,0,0,0,.64.68l-.14,1.06-4.7-.89v-4.55H660v3.65l2.46.5a3,3,0,0,1-.58-1.73,2.73,2.73,0,0,1,.83-2,2.9,2.9,0,0,1,2.13-.83,3.29,3.29,0,0,1,2.15.73,2.88,2.88,0,0,1,1.11,2.4,3,3,0,0,1-.7,2A2.75,2.75,0,0,1,665.57,131.53Z"/><path class="cls-9" d="M663,122.71a2,2,0,0,1-.73,1,1.85,1.85,0,0,1-1.13.34,2.21,2.21,0,0,1-1.68-.72,3,3,0,0,1,0-3.83,2.22,2.22,0,0,1,1.69-.73,1.91,1.91,0,0,1,1.11.33,2.11,2.11,0,0,1,.72,1,2.52,2.52,0,0,1,.89-1.28,2.45,2.45,0,0,1,1.46-.44,2.64,2.64,0,0,1,2,.83,3.38,3.38,0,0,1,0,4.37,2.69,2.69,0,0,1-2,.83,2.45,2.45,0,0,1-1.5-.45A2.28,2.28,0,0,1,663,122.71Zm-1.9.22a1.45,1.45,0,0,0,1.06-.41,1.46,1.46,0,0,0,.41-1.09,1.41,1.41,0,0,0-.41-1.06,1.33,1.33,0,0,0-1-.42,1.4,1.4,0,0,0-1,.43,1.56,1.56,0,0,0,0,2.13A1.32,1.32,0,0,0,661.1,122.93Zm4.22.37a2,2,0,0,0,.93-.23,1.59,1.59,0,0,0,.7-.68,2,2,0,0,0,.25-1,1.85,1.85,0,0,0-.52-1.33,1.83,1.83,0,0,0-1.32-.52,1.79,1.79,0,0,0-1.34.54,1.86,1.86,0,0,0-.53,1.35,1.75,1.75,0,0,0,.52,1.31A1.79,1.79,0,0,0,665.32,123.3Z"/><path class="cls-9" d="M701.72,208.8h-2.19v4h-1l-5.92-4.18v-.91h5.92v-1.24h1v1.24h2.19Zm-3.22,0h-4.12l4.12,2.86Z"/><path class="cls-9" d="M699.61,205.13l-.1-1.08a1.93,1.93,0,0,0,1.1-.53,1.44,1.44,0,0,0,.34-1,1.69,1.69,0,0,0-.23-.91,2,2,0,0,0-.64-.64,4.1,4.1,0,0,0-1.07-.42,5.7,5.7,0,0,0-1.37-.16h-.22a2.75,2.75,0,0,1,.87.92,2.53,2.53,0,0,1,.33,1.27,2.56,2.56,0,0,1-.82,1.92,3.44,3.44,0,0,1-4.41,0,2.71,2.71,0,0,1-.85-2.05,2.91,2.91,0,0,1,.48-1.63,3,3,0,0,1,1.37-1.13,6.85,6.85,0,0,1,2.57-.38,8.4,8.4,0,0,1,2.79.38,3.28,3.28,0,0,1,1.59,1.13,2.94,2.94,0,0,1,.54,1.76,2.43,2.43,0,0,1-2.27,2.58Zm-4-4.6A2.19,2.19,0,0,0,694,201a1.61,1.61,0,0,0-.57,1.24,1.69,1.69,0,0,0,.61,1.3,2.28,2.28,0,0,0,1.58.56,2,2,0,0,0,1.42-.53,1.71,1.71,0,0,0,.55-1.3,1.64,1.64,0,0,0-.55-1.28A2.1,2.1,0,0,0,695.57,200.53Z"/><path class="cls-9" d="M874.28,410.47v1.12h-7.15a6.07,6.07,0,0,1,.77,1.06,7.51,7.51,0,0,1,.58,1.19H867.4a6.92,6.92,0,0,0-1.08-1.65,4.23,4.23,0,0,0-1.22-1v-.72Z"/><path class="cls-9" d="M871.89,407.59l-.1-1.18a2.12,2.12,0,0,0,1.29-.61,1.63,1.63,0,0,0,.44-1.15,1.81,1.81,0,0,0-.61-1.37,2.34,2.34,0,0,0-1.63-.56,2.07,2.07,0,0,0-1.51.54,1.88,1.88,0,0,0-.56,1.41,1.91,1.91,0,0,0,.25,1,1.93,1.93,0,0,0,.64.69l-.14,1.05-4.7-.88V402h1.08v3.65l2.45.49a3,3,0,0,1-.57-1.73,2.75,2.75,0,0,1,.83-2,2.88,2.88,0,0,1,2.13-.82,3.34,3.34,0,0,1,2.15.72,2.91,2.91,0,0,1,1.11,2.4,3,3,0,0,1-.7,2A2.67,2.67,0,0,1,871.89,407.59Z"/><path class="cls-9" d="M871.87,400.48l-.15-1.12a2.52,2.52,0,0,0,1.38-.66,1.63,1.63,0,0,0,.42-1.13,1.88,1.88,0,0,0-1.91-1.89,1.73,1.73,0,0,0-1.78,1.79,3.3,3.3,0,0,0,.12.79l-1-.12a1.36,1.36,0,0,0,0-.18,2.29,2.29,0,0,0-.37-1.29,1.28,1.28,0,0,0-1.16-.58,1.36,1.36,0,0,0-1,.42,1.63,1.63,0,0,0,0,2.17,2,2,0,0,0,1.23.56l-.2,1.13a2.88,2.88,0,0,1-1.75-.94,2.73,2.73,0,0,1-.62-1.82,3,3,0,0,1,.32-1.37,2.37,2.37,0,0,1,.88-1,2.26,2.26,0,0,1,1.18-.33,1.9,1.9,0,0,1,1.08.32,2.15,2.15,0,0,1,.77.94,2.12,2.12,0,0,1,.78-1.26,2.34,2.34,0,0,1,1.47-.45,2.69,2.69,0,0,1,2,.87,3.07,3.07,0,0,1,.84,2.21,2.87,2.87,0,0,1-.72,2A2.81,2.81,0,0,1,871.87,400.48Z"/><path class="cls-9" d="M877,387.37a11.16,11.16,0,0,1-2.74,1.57,8.54,8.54,0,0,1-3.26.65,8.43,8.43,0,0,1-2.84-.48,12.21,12.21,0,0,1-3.15-1.74v-.8c.87.5,1.48.83,1.85,1a9.51,9.51,0,0,0,1.8.6,10.4,10.4,0,0,0,2.35.27,11.25,11.25,0,0,0,6-1.86Z"/><path class="cls-9" d="M867.38,379.75l.08,1.12a2.15,2.15,0,0,0-1,.42,1.5,1.5,0,0,0-.48,1.12,1.56,1.56,0,0,0,.3.95,2.59,2.59,0,0,0,1.13.83,5.83,5.83,0,0,0,2.12.32,2.63,2.63,0,0,1-.92-1,2.66,2.66,0,0,1-.3-1.23,2.54,2.54,0,0,1,.83-1.91,2.94,2.94,0,0,1,2.13-.79,3.46,3.46,0,0,1,1.6.37,2.7,2.7,0,0,1,1.14,1,2.78,2.78,0,0,1,.39,1.47,2.86,2.86,0,0,1-1,2.29,5.24,5.24,0,0,1-3.41.89,6.11,6.11,0,0,1-3.85-1,2.82,2.82,0,0,1-1-2.3,2.46,2.46,0,0,1,2.28-2.6Zm3.94,4.59a2.65,2.65,0,0,0,1.11-.25,1.83,1.83,0,0,0,.81-.69,1.74,1.74,0,0,0,.28-.93,1.57,1.57,0,0,0-.58-1.22,2.26,2.26,0,0,0-1.56-.51,2.08,2.08,0,0,0-1.49.5,1.64,1.64,0,0,0-.55,1.27,1.74,1.74,0,0,0,.55,1.3A2,2,0,0,0,871.32,384.34Z"/><path class="cls-9" d="M874.28,377.84H873v-1.28h1.27Z"/><path class="cls-9" d="M869.77,374.28a8.46,8.46,0,0,1-2.61-.33,3.16,3.16,0,0,1-1.52-1,2.53,2.53,0,0,1-.54-1.66,2.67,2.67,0,0,1,.3-1.29,2.41,2.41,0,0,1,.85-.92,4.45,4.45,0,0,1,1.36-.56,8.92,8.92,0,0,1,2.16-.21,8.39,8.39,0,0,1,2.6.33,3.24,3.24,0,0,1,1.53,1,2.78,2.78,0,0,1-.41,3.74A6,6,0,0,1,869.77,374.28Zm0-1.15a5.76,5.76,0,0,0,3-.53,1.5,1.5,0,0,0,0-2.6,8.76,8.76,0,0,0-6,0,1.57,1.57,0,0,0-.74,1.31,1.46,1.46,0,0,0,.65,1.24A5.79,5.79,0,0,0,869.77,373.13Z"/><path class="cls-9" d="M873.2,361.28h1.08v6a1.89,1.89,0,0,1-.78-.13,4,4,0,0,1-1.21-.74A12.08,12.08,0,0,1,870.9,365a12.65,12.65,0,0,0-1.93-2,2.35,2.35,0,0,0-1.36-.53,1.48,1.48,0,0,0-1.12.48,1.7,1.7,0,0,0-.46,1.24,1.73,1.73,0,0,0,.49,1.3,1.78,1.78,0,0,0,1.34.49l-.11,1.16a2.85,2.85,0,0,1-2-.89,3.06,3.06,0,0,1-.68-2.08,2.91,2.91,0,0,1,.73-2.09,2.4,2.4,0,0,1,1.81-.76,2.71,2.71,0,0,1,1.08.22,4.37,4.37,0,0,1,1.12.75,19.29,19.29,0,0,1,1.61,1.73,16.81,16.81,0,0,0,1.15,1.3,3.52,3.52,0,0,0,.6.47Z"/><path class="cls-9" d="M874.28,356.47h-2.19v4h-1l-5.92-4.17v-.92h5.92v-1.24h1v1.24h2.19Zm-3.22,0h-4.12l4.12,2.86Z"/><path class="cls-9" d="M868.38,350.53l-1.74.31h-1.5v-1.28h1.5l1.74.3Zm0,2.07-1.74.31h-1.5v-1.28h1.5l1.74.28Z"/><path class="cls-9" d="M877,347.41v.81a11.24,11.24,0,0,0-6-1.87,10.22,10.22,0,0,0-2.33.27,9.88,9.88,0,0,0-1.79.59,20.23,20.23,0,0,0-1.88,1v-.81a12,12,0,0,1,3.15-1.73,8.63,8.63,0,0,1,6.1.16A11.76,11.76,0,0,1,877,347.41Z"/><path class="cls-9" d="M414.6,660.85l-1.12.13-.81-7.11a6.17,6.17,0,0,1-1,.89,8.67,8.67,0,0,1-1.11.71l-.12-1.08a6.66,6.66,0,0,0,1.51-1.25,4.25,4.25,0,0,0,.85-1.33l.72-.08Z"/><path class="cls-9" d="M417.47,655.14l-.15-1.27,1.27-.15.15,1.27Zm.61,5.31-.15-1.27,1.27-.15.15,1.27Z"/><path class="cls-9" d="M425.19,659.63l-1.12.13-.82-7.11a5.27,5.27,0,0,1-1,.89,6.92,6.92,0,0,1-1.11.71l-.13-1.07a7,7,0,0,0,1.52-1.26,4.15,4.15,0,0,0,.85-1.33l.72-.08Z"/><path class="cls-9" d="M427.53,654.82a8.66,8.66,0,0,1,0-2.63,3.35,3.35,0,0,1,.81-1.63,2.62,2.62,0,0,1,1.59-.72,2.84,2.84,0,0,1,1.32.15,2.4,2.4,0,0,1,1,.74A4.3,4.3,0,0,1,433,652a9.08,9.08,0,0,1,.46,2.12,8.25,8.25,0,0,1,0,2.62,3.15,3.15,0,0,1-.81,1.63,2.78,2.78,0,0,1-3.76,0A6.12,6.12,0,0,1,427.53,654.82Zm1.15-.13a5.79,5.79,0,0,0,.86,2.92,1.51,1.51,0,0,0,2.59-.3,8.8,8.8,0,0,0-.69-6,1.56,1.56,0,0,0-1.39-.58,1.44,1.44,0,0,0-1.15.79A5.72,5.72,0,0,0,428.68,654.69Z"/><path class="cls-9" d="M376.94,650.67l-1.06.39-2.48-6.71a5.78,5.78,0,0,1-.73,1.1,7,7,0,0,1-.91.95l-.37-1a7,7,0,0,0,1.17-1.58,3.94,3.94,0,0,0,.51-1.49l.68-.25Z"/><path class="cls-9" d="M378.37,644.45l-.45-1.2,1.2-.45.44,1.2Zm1.85,5-.44-1.2,1.2-.44.44,1.2Z"/><path class="cls-9" d="M382.13,646.18l1-.53a2.49,2.49,0,0,0,1.1,1.06,1.58,1.58,0,0,0,1.21,0,1.77,1.77,0,0,0,1.06-1,1.81,1.81,0,0,0,0-1.46,1.72,1.72,0,0,0-2.29-1,3.66,3.66,0,0,0-.7.39l-.23-1,.18-.06a2.38,2.38,0,0,0,1.08-.79,1.28,1.28,0,0,0,.13-1.29,1.38,1.38,0,0,0-.74-.81,1.48,1.48,0,0,0-1.15,0,1.59,1.59,0,0,0-.89.77,2.07,2.07,0,0,0-.09,1.35l-1.13.2a2.91,2.91,0,0,1,.27-2,2.71,2.71,0,0,1,1.49-1.21,2.87,2.87,0,0,1,1.41-.18,2.34,2.34,0,0,1,1.2.49,2.29,2.29,0,0,1,.73,1,2,2,0,0,1,.07,1.12.84.84,0,1,0,.84,1.35,2.3,2.3,0,0,1,.93,1.22,2.71,2.71,0,0,1-.11,2.21,3.11,3.11,0,0,1-1.79,1.55,2.88,2.88,0,0,1-2.12,0A2.83,2.83,0,0,1,382.13,646.18Z"/><path class="cls-9" d="M400.54,261l-1.06-.36,2.29-6.78a5.53,5.53,0,0,1-1.26.39,7.85,7.85,0,0,1-1.31.17l.35-1a6.63,6.63,0,0,0,1.9-.49,3.86,3.86,0,0,0,1.34-.84l.69.24Z"/><path class="cls-9" d="M403.86,262.14l.41-1.21,1.21.4-.41,1.22Zm1.71-5.07.41-1.21,1.21.41-.41,1.21Z"/><path class="cls-9" d="M407.42,260.79l1.11.22a2.5,2.5,0,0,0,.18,1.51,1.62,1.62,0,0,0,.94.76,1.87,1.87,0,0,0,2.4-1.2,1.73,1.73,0,0,0-1.13-2.26,3.42,3.42,0,0,0-.79-.14l.43-.89.17.07a2.4,2.4,0,0,0,1.35.06A1.3,1.3,0,0,0,413,258a1.35,1.35,0,0,0-.07-1.1,1.49,1.49,0,0,0-.89-.73,1.52,1.52,0,0,0-1.17,0,2.05,2.05,0,0,0-.93,1l-1-.55a2.92,2.92,0,0,1,1.45-1.36,2.7,2.7,0,0,1,1.92,0,3,3,0,0,1,1.2.75,2.42,2.42,0,0,1,.64,1.14,2.19,2.19,0,0,1-.07,1.22,1.88,1.88,0,0,1-.64.92,2.13,2.13,0,0,1-1.14.43,2.16,2.16,0,0,1,.94,1.14,2.34,2.34,0,0,1,0,1.54,2.72,2.72,0,0,1-1.48,1.65,3.05,3.05,0,0,1-2.36.08,2.87,2.87,0,0,1-1.67-1.32A2.82,2.82,0,0,1,407.42,260.79Z"/><path class="cls-9" d="M429.28,170l9.05-1.32.59,4a5.37,5.37,0,0,1,0,1.87,2,2,0,0,1-.72,1.14,2.55,2.55,0,0,1-1.31.57,2.27,2.27,0,0,1-1.71-.38,3.18,3.18,0,0,1-1.12-1.81,3,3,0,0,1-.35.79,6,6,0,0,1-1.06,1.17L430.45,178l-.22-1.51,1.71-1.47c.49-.43.86-.78,1.12-1a2.57,2.57,0,0,0,.51-.7,1.82,1.82,0,0,0,.17-.58,4.2,4.2,0,0,0-.06-.67l-.2-1.39-4,.59Zm5.23.46.38,2.57a3.82,3.82,0,0,0,.36,1.26,1.41,1.41,0,0,0,.65.63,1.52,1.52,0,0,0,.84.12,1.36,1.36,0,0,0,1-.62,2.2,2.2,0,0,0,.2-1.54l-.42-2.86Z"/><path class="cls-9" d="M438.23,183.47l-.25-1.09a2.2,2.2,0,0,0,.89-.56,1.48,1.48,0,0,0,.31-1.18,1.5,1.5,0,0,0-.43-.89,2.52,2.52,0,0,0-1.24-.67,6,6,0,0,0-2.14,0,2.63,2.63,0,0,1,1.05.85,2.6,2.6,0,0,1,.48,1.18,2.53,2.53,0,0,1-.54,2,3,3,0,0,1-2,1.09,3.48,3.48,0,0,1-1.64-.14,2.68,2.68,0,0,1-1.27-.84,2.82,2.82,0,0,1-.6-1.4,2.86,2.86,0,0,1,.69-2.42,5.24,5.24,0,0,1,3.24-1.37,6.15,6.15,0,0,1,4,.41,2.82,2.82,0,0,1,1.37,2.13,2.46,2.46,0,0,1-1.88,2.9Zm-4.57-4a2.61,2.61,0,0,0-1.06.41,1.79,1.79,0,0,0-.7.8,1.68,1.68,0,0,0-.14,1,1.59,1.59,0,0,0,.75,1.12,2.22,2.22,0,0,0,1.61.28,2.13,2.13,0,0,0,1.41-.71,1.65,1.65,0,0,0,.35-1.34,1.71,1.71,0,0,0-.72-1.2A2,2,0,0,0,433.66,179.5Z"/><path class="cls-9" d="M436,185.06a8.36,8.36,0,0,1,2.63,0,3.16,3.16,0,0,1,1.66.76,2.58,2.58,0,0,1,.77,1.56,2.75,2.75,0,0,1-.11,1.32,2.49,2.49,0,0,1-.71,1,4.8,4.8,0,0,1-1.27.76,9.53,9.53,0,0,1-2.1.52,8.3,8.3,0,0,1-2.62,0,3.23,3.23,0,0,1-1.66-.75,2.8,2.8,0,0,1-.14-3.76A6,6,0,0,1,436,185.06Zm.17,1.15a5.65,5.65,0,0,0-2.89.95,1.51,1.51,0,0,0,.38,2.58,5.78,5.78,0,0,0,3,.08,5.65,5.65,0,0,0,2.89-.95,1.59,1.59,0,0,0,.55-1.41,1.45,1.45,0,0,0-.83-1.13A5.82,5.82,0,0,0,436.21,186.21Z"/><path class="cls-9" d="M461.92,159l9.05-1.32.59,4a5.09,5.09,0,0,1,0,1.87,2.07,2.07,0,0,1-.71,1.14,2.55,2.55,0,0,1-1.31.57,2.23,2.23,0,0,1-1.71-.39,3.15,3.15,0,0,1-1.12-1.8,3.53,3.53,0,0,1-.35.79,6,6,0,0,1-1.06,1.17l-2.23,1.94-.22-1.51,1.71-1.47c.49-.43.86-.78,1.12-1a2.81,2.81,0,0,0,.51-.7,1.8,1.8,0,0,0,.16-.58,3.9,3.9,0,0,0-.05-.67l-.2-1.39-4,.59Zm5.23.46.38,2.57a3.82,3.82,0,0,0,.36,1.26,1.32,1.32,0,0,0,.64.62,1.49,1.49,0,0,0,.85.13,1.39,1.39,0,0,0,1-.62,2.27,2.27,0,0,0,.2-1.54l-.42-2.86Z"/><path class="cls-9" d="M465.11,173.29l-1.07.16-.87-6a2.1,2.1,0,0,1,.79,0,4.21,4.21,0,0,1,1.31.56,12.59,12.59,0,0,1,1.58,1.25,12.56,12.56,0,0,0,2.21,1.72,2.36,2.36,0,0,0,1.41.32,1.51,1.51,0,0,0,1-.64,1.66,1.66,0,0,0,.27-1.29,1.77,1.77,0,0,0-.67-1.22,1.83,1.83,0,0,0-1.4-.29l-.05-1.16a2.83,2.83,0,0,1,2.08.6,3.06,3.06,0,0,1,1,2,3,3,0,0,1-.42,2.16,2.43,2.43,0,0,1-1.68,1,2.73,2.73,0,0,1-1.1-.07,4.17,4.17,0,0,1-1.22-.58,17.76,17.76,0,0,1-1.84-1.48c-.66-.58-1.1-.95-1.33-1.11a3.26,3.26,0,0,0-.67-.38Z"/><path class="cls-9" d="M468.68,174a8.41,8.41,0,0,1,2.63-.05,3.32,3.32,0,0,1,1.66.76,2.58,2.58,0,0,1,.77,1.56,2.72,2.72,0,0,1-.11,1.32,2.42,2.42,0,0,1-.71,1,4.54,4.54,0,0,1-1.26.76,8.74,8.74,0,0,1-2.11.52,8.34,8.34,0,0,1-2.62.05,3.24,3.24,0,0,1-1.66-.76,2.48,2.48,0,0,1-.77-1.56,2.52,2.52,0,0,1,.63-2.2A6.1,6.1,0,0,1,468.68,174Zm.17,1.14a5.73,5.73,0,0,0-2.89,1,1.5,1.5,0,0,0,.38,2.57,5.65,5.65,0,0,0,3,.09,5.73,5.73,0,0,0,2.89-1,1.59,1.59,0,0,0,.55-1.41,1.43,1.43,0,0,0-.83-1.12A5.8,5.8,0,0,0,468.85,175.13Z"/><path class="cls-9" d="M469.71,181a8.41,8.41,0,0,1,2.63-.05,3.32,3.32,0,0,1,1.66.76,2.64,2.64,0,0,1,.77,1.56,2.72,2.72,0,0,1-.11,1.32,2.52,2.52,0,0,1-.71,1,4.68,4.68,0,0,1-1.27.75,8.49,8.49,0,0,1-2.11.52A8.28,8.28,0,0,1,468,187a3.16,3.16,0,0,1-1.66-.76,2.48,2.48,0,0,1-.77-1.56,2.52,2.52,0,0,1,.63-2.2A6.1,6.1,0,0,1,469.71,181Zm.17,1.14a5.73,5.73,0,0,0-2.89,1,1.5,1.5,0,0,0,.38,2.57,5.65,5.65,0,0,0,3,.09,5.73,5.73,0,0,0,2.89-1,1.57,1.57,0,0,0,.55-1.4,1.45,1.45,0,0,0-.83-1.13A5.8,5.8,0,0,0,469.88,182.16Z"/><path class="cls-9" d="M475.58,767.81h-1.12v-7.15a5.82,5.82,0,0,1-1.07.77,7.06,7.06,0,0,1-1.18.58v-1.08a6.92,6.92,0,0,0,1.65-1.08,4.37,4.37,0,0,0,1-1.22h.72Z"/><path class="cls-9" d="M482.06,767.81v-2.19h-4v-1l4.17-5.92h.92v5.92h1.24v1h-1.24v2.19Zm0-3.22v-4.12l-2.87,4.12Z"/><path class="cls-9" d="M485.56,763.3a8.13,8.13,0,0,1,.34-2.61,3.16,3.16,0,0,1,1-1.52,2.53,2.53,0,0,1,1.66-.54,2.67,2.67,0,0,1,1.29.3,2.39,2.39,0,0,1,.91.85,4.46,4.46,0,0,1,.57,1.36,8.92,8.92,0,0,1,.21,2.16,8.39,8.39,0,0,1-.33,2.6,3.24,3.24,0,0,1-1,1.53,2.78,2.78,0,0,1-3.74-.41A6,6,0,0,1,485.56,763.3Zm1.16,0a5.66,5.66,0,0,0,.53,3,1.5,1.5,0,0,0,2.6,0,8.91,8.91,0,0,0,0-6,1.58,1.58,0,0,0-1.32-.74,1.45,1.45,0,0,0-1.23.65A5.79,5.79,0,0,0,486.72,763.3Z"/><path class="cls-9" d="M498.68,770.5a10.85,10.85,0,0,1-1.57-2.74,8.54,8.54,0,0,1-.65-3.26,8.43,8.43,0,0,1,.48-2.84,12,12,0,0,1,1.74-3.15h.8c-.5.87-.83,1.48-1,1.85a10.25,10.25,0,0,0-.59,1.8,10.4,10.4,0,0,0-.27,2.35,11.25,11.25,0,0,0,1.86,6Z"/><path class="cls-9" d="M500.47,765.42l1.18-.1a2.12,2.12,0,0,0,.61,1.29,1.65,1.65,0,0,0,1.15.44,1.82,1.82,0,0,0,1.38-.62,2.29,2.29,0,0,0,.56-1.62,2.07,2.07,0,0,0-.54-1.51,1.89,1.89,0,0,0-1.42-.56,1.93,1.93,0,0,0-1,.25,1.82,1.82,0,0,0-.68.64l-1.06-.14.89-4.7h4.55v1.08h-3.65l-.49,2.45a3,3,0,0,1,1.72-.57,2.77,2.77,0,0,1,2,.83,2.92,2.92,0,0,1,.82,2.13,3.34,3.34,0,0,1-.72,2.15,3.22,3.22,0,0,1-4.44.41A2.74,2.74,0,0,1,500.47,765.42Z"/><path class="cls-9" d="M508.21,767.81v-1.28h1.28v1.28Z"/><path class="cls-9" d="M511.13,765.42l1.18-.1a2.12,2.12,0,0,0,.61,1.29,1.65,1.65,0,0,0,1.15.44,1.78,1.78,0,0,0,1.37-.62,2.25,2.25,0,0,0,.56-1.62,2.07,2.07,0,0,0-.54-1.51,1.88,1.88,0,0,0-1.41-.56,1.91,1.91,0,0,0-1,.25,1.93,1.93,0,0,0-.69.64l-1.05-.14.89-4.7h4.54v1.08h-3.65l-.49,2.45a3,3,0,0,1,1.73-.57,2.75,2.75,0,0,1,2,.83,2.89,2.89,0,0,1,.83,2.13,3.35,3.35,0,0,1-.73,2.15,2.89,2.89,0,0,1-2.4,1.11,3,3,0,0,1-2-.7A2.77,2.77,0,0,1,511.13,765.42Z"/><path class="cls-9" d="M522.47,767.81h-1.13v-7.15a5.71,5.71,0,0,1-1.06.77,7.46,7.46,0,0,1-1.18.58v-1.08a6.92,6.92,0,0,0,1.65-1.08,4.15,4.15,0,0,0,1-1.22h.73Z"/><path class="cls-9" d="M531.25,766.73v1.08h-6a2.06,2.06,0,0,1,.13-.78,4.24,4.24,0,0,1,.74-1.21,12.08,12.08,0,0,1,1.47-1.39,12.83,12.83,0,0,0,2-1.93,2.4,2.4,0,0,0,.52-1.36,1.48,1.48,0,0,0-.48-1.12,1.7,1.7,0,0,0-1.24-.46,1.73,1.73,0,0,0-1.3.49,1.82,1.82,0,0,0-.49,1.34l-1.16-.12a2.85,2.85,0,0,1,.89-2,3.06,3.06,0,0,1,2.08-.68,2.91,2.91,0,0,1,2.09.73,2.4,2.4,0,0,1,.76,1.81,2.75,2.75,0,0,1-.22,1.08,4.37,4.37,0,0,1-.75,1.12,16.93,16.93,0,0,1-1.73,1.6c-.67.57-1.1.95-1.3,1.16a3.52,3.52,0,0,0-.47.6Z"/><path class="cls-9" d="M532.82,761.91l-.31-1.75v-1.49h1.28v1.49l-.29,1.75Zm2.06,0-.3-1.75v-1.49h1.28v1.49l-.3,1.75Z"/><path class="cls-9" d="M538,770.5h-.81a11.26,11.26,0,0,0,1.87-6,10.55,10.55,0,0,0-.86-4.13c-.17-.37-.5-1-1-1.87H538a11.72,11.72,0,0,1,1.73,3.15,8.43,8.43,0,0,1,.48,2.84,8.53,8.53,0,0,1-.64,3.26A11.84,11.84,0,0,1,538,770.5Z"/><line class="cls-3" x1="771.21" y1="772.61" x2="229.71" y2="772.61"/><polygon class="cls-10" points="769.1 769.52 780.66 772.61 769.1 775.71 769.1 769.52"/><polygon class="cls-10" points="231.82 769.52 220.26 772.61 231.82 775.71 231.82 769.52"/><path class="cls-10" d="M511.27,753.72v-4.81l-4.39-6.54h1.81l2.25,3.43c.41.64.79,1.28,1.16,1.91.35-.6.77-1.26,1.26-2l2.2-3.34h1.75l-4.53,6.54v4.81Z"/><path class="cls-10" d="M511.27,90.4V85.59l-4.39-6.54h1.81l2.25,3.43c.41.65.79,1.28,1.16,1.92.35-.6.77-1.27,1.26-2l2.2-3.35h1.75l-4.53,6.54V90.4Z"/><g class="cls-8"><line class="cls-5" x1="139.51" y1="730.62" x2="886.49" y2="730.62"/></g><line class="cls-11" x1="500.49" y1="753.77" x2="499.83" y2="76.82"/><path class="cls-9" d="M180.07,759.08l-6-6.94,3.08-2.64a5.3,5.3,0,0,1,1.57-1,2,2,0,0,1,1.33,0,2.6,2.6,0,0,1,1.19.8,2.25,2.25,0,0,1,.59,1.65,3.15,3.15,0,0,1-.92,1.92,3.1,3.1,0,0,1,.85-.14,6.73,6.73,0,0,1,1.56.27l2.82.85-1.15,1-2.16-.65c-.62-.19-1.12-.31-1.48-.39a2.79,2.79,0,0,0-.87-.06,1.73,1.73,0,0,0-.57.18,3.25,3.25,0,0,0-.54.4l-1.07.92,2.65,3.08Zm-2.41-4.67,2-1.69a3.83,3.83,0,0,0,.87-1,1.34,1.34,0,0,0,.19-.88,1.55,1.55,0,0,0-.35-.78,1.39,1.39,0,0,0-1.06-.5,2.2,2.2,0,0,0-1.4.65l-2.19,1.89Z"/><path class="cls-9" d="M190.47,748.72l.7.81-4.58,3.94a1.92,1.92,0,0,1-.41-.67,4.09,4.09,0,0,1-.23-1.41,11.4,11.4,0,0,1,.21-2,12.19,12.19,0,0,0,.26-2.78,2.23,2.23,0,0,0-.48-1.36,1.51,1.51,0,0,0-1.09-.55,1.95,1.95,0,0,0-1.91,1.68,1.83,1.83,0,0,0,.5,1.35l-.95.66a2.86,2.86,0,0,1-.61-2.08,3.05,3.05,0,0,1,1.14-1.86,2.88,2.88,0,0,1,2-.81,2.42,2.42,0,0,1,1.76.87,2.79,2.79,0,0,1,.54,1,4.32,4.32,0,0,1,.16,1.33,19.71,19.71,0,0,1-.26,2.35c-.15.87-.22,1.44-.24,1.72a3.82,3.82,0,0,0,0,.77Z"/><line class="cls-12" x1="213" y1="737.09" x2="180.38" y2="764.68"/><polygon class="cls-9" points="209.39 736.09 220.22 730.99 213.39 740.82 209.39 736.09"/><path class="cls-9" d="M257.24,704.85,261.9,697l3.49,2.07a5.22,5.22,0,0,1,1.47,1.16,2,2,0,0,1,.44,1.26,2.61,2.61,0,0,1-.38,1.38,2.31,2.31,0,0,1-1.38,1.1,3.19,3.19,0,0,1-2.1-.27,3.47,3.47,0,0,1,.39.77,6.53,6.53,0,0,1,.25,1.56l.1,3-1.31-.78-.08-2.25c0-.65-.06-1.16-.11-1.53a2.68,2.68,0,0,0-.21-.84,2,2,0,0,0-.35-.49,3.68,3.68,0,0,0-.56-.38l-1.21-.72-2.07,3.5Zm3.65-3.78,2.23,1.33a3.94,3.94,0,0,0,1.21.51,1.4,1.4,0,0,0,.89-.11,1.47,1.47,0,0,0,.63-.58,1.36,1.36,0,0,0,.13-1.16,2.18,2.18,0,0,0-1.06-1.12l-2.49-1.47Z"/><path class="cls-9" d="M266,707.23l1.05.45a2.46,2.46,0,0,0-.14,1.52,1.65,1.65,0,0,0,.76.93,1.88,1.88,0,0,0,2.6-.68,1.71,1.71,0,0,0,.21-1.35,1.73,1.73,0,0,0-.85-1.09,3.13,3.13,0,0,0-.74-.3l.61-.78.15.1a2.25,2.25,0,0,0,1.3.34,1.31,1.31,0,0,0,1.08-.7,1.39,1.39,0,0,0,.16-1.1,1.5,1.5,0,0,0-.72-.9,1.54,1.54,0,0,0-1.15-.2,2.08,2.08,0,0,0-1.11.78l-.87-.75a2.87,2.87,0,0,1,1.7-1,2.69,2.69,0,0,1,1.88.39,2.91,2.91,0,0,1,1,1,2.28,2.28,0,0,1,.38,1.24,2.23,2.23,0,0,1-.31,1.19,1.94,1.94,0,0,1-.82.76,2.17,2.17,0,0,1-1.21.19,2.14,2.14,0,0,1,.69,1.31,2.36,2.36,0,0,1-.36,1.5,2.74,2.74,0,0,1-1.79,1.3,3.1,3.1,0,0,1-2.33-.41,2.85,2.85,0,0,1-1.35-1.63A2.82,2.82,0,0,1,266,707.23Z"/><line class="cls-12" x1="231.92" y1="694.05" x2="268.5" y2="716.12"/><polygon class="cls-9" points="232.13 697.8 223.83 689.17 235.32 692.49 232.13 697.8"/><path class="cls-9" d="M723.19,440.25l3.54-4.77-3.12-4.38h1.44l1.66,2.35c.35.49.59.86.74,1.12a10.94,10.94,0,0,1,.72-1L730,431.1h1.32l-3.21,4.32,3.46,4.83h-1.5l-2.3-3.26-.4-.61c-.2.33-.35.56-.44.68l-2.29,3.19Z"/><g class="cls-8"><path class="cls-9" d="M126.07,440.25l3.54-4.77-3.12-4.38h1.44l1.66,2.35c.34.49.59.86.73,1.12.21-.33.45-.68.73-1l1.84-2.43h1.31L131,435.42l3.46,4.83H133L130.65,437l-.4-.61c-.2.33-.35.56-.43.68l-2.3,3.19Z"/></g><line class="cls-5" x1="460.77" y1="67.98" x2="539.19" y2="67.98"/><polygon class="cls-10" points="462.88 70.95 451.32 67.85 462.88 64.75 462.88 70.95"/><polygon class="cls-10" points="537.08 70.95 548.63 67.85 537.08 64.75 537.08 70.95"/><line class="cls-5" x1="371.91" y1="23.29" x2="627.15" y2="23.29"/><polygon class="cls-10" points="374.02 26.25 362.46 23.16 374.02 20.06 374.02 26.25"/><polygon class="cls-10" points="625.04 26.25 636.6 23.16 625.04 20.06 625.04 26.25"/><line class="cls-5" x1="426.82" y1="46.73" x2="570.87" y2="46.73"/><polygon class="cls-10" points="428.94 49.7 417.38 46.6 428.94 43.5 428.94 49.7"/><polygon class="cls-10" points="568.76 49.7 580.32 46.6 568.76 43.5 568.76 49.7"/><line class="cls-5" x1="499.53" y1="97.37" x2="885.24" y2="97.37"/><path class="cls-9" d="M319.42,281.91l-6-6.93,3.08-2.65a5.36,5.36,0,0,1,1.57-1,2.05,2.05,0,0,1,1.34,0,2.55,2.55,0,0,1,1.18.79,2.32,2.32,0,0,1,.6,1.66,3.18,3.18,0,0,1-.93,1.91,3.08,3.08,0,0,1,.85-.13,5.81,5.81,0,0,1,1.56.27l2.83.85-1.16,1-2.16-.65c-.62-.19-1.12-.32-1.48-.39a2.74,2.74,0,0,0-.86-.06,2,2,0,0,0-.58.17,4.77,4.77,0,0,0-.54.41l-1.07.91,2.65,3.08ZM317,277.25l2-1.7a4.1,4.1,0,0,0,.88-1,1.41,1.41,0,0,0,.18-.88,1.47,1.47,0,0,0-.35-.78,1.39,1.39,0,0,0-1.06-.51,2.3,2.3,0,0,0-1.4.66L315,275Z"/><path class="cls-9" d="M329.83,271.54l.71.82L326,276.3a2,2,0,0,1-.41-.68,4.07,4.07,0,0,1-.23-1.4,12.45,12.45,0,0,1,.21-2,12.39,12.39,0,0,0,.27-2.78,2.4,2.4,0,0,0-.48-1.37,1.48,1.48,0,0,0-1.1-.54A1.69,1.69,0,0,0,323,268a1.76,1.76,0,0,0-.67,1.22,1.85,1.85,0,0,0,.5,1.34l-.95.66a2.81,2.81,0,0,1-.6-2.07,3,3,0,0,1,1.13-1.87,2.89,2.89,0,0,1,2.06-.8,2.37,2.37,0,0,1,1.76.87,2.82,2.82,0,0,1,.53,1,4.1,4.1,0,0,1,.16,1.34,18,18,0,0,1-.26,2.35c-.14.86-.22,1.44-.23,1.71a3.31,3.31,0,0,0,0,.78Z"/><line class="cls-12" x1="354.85" y1="257.44" x2="322.23" y2="285.03"/><polygon class="cls-9" points="351.24 256.44 362.06 251.34 355.24 261.17 351.24 256.44"/><path class="cls-9" d="M410.54,316.76l-6-6.94,3.08-2.64a5.36,5.36,0,0,1,1.57-1,2,2,0,0,1,1.34,0,2.65,2.65,0,0,1,1.19.8,2.3,2.3,0,0,1,.59,1.66,3.25,3.25,0,0,1-.92,1.91,3,3,0,0,1,.85-.13,6.12,6.12,0,0,1,1.55.26l2.83.86-1.15,1-2.16-.66c-.63-.18-1.12-.31-1.49-.38a2.8,2.8,0,0,0-.86-.07,1.79,1.79,0,0,0-.58.18,3.79,3.79,0,0,0-.54.41l-1.06.91,2.65,3.08Zm-2.42-4.66,2-1.7a3.83,3.83,0,0,0,.87-1,1.39,1.39,0,0,0,.18-.88,1.54,1.54,0,0,0-.35-.78,1.39,1.39,0,0,0-1.05-.5,2.23,2.23,0,0,0-1.4.65l-2.2,1.89Z"/><path class="cls-9" d="M420.38,308.3l-.85.73-4.66-5.43a5.74,5.74,0,0,1-.31,1.28,6.35,6.35,0,0,1-.52,1.21l-.7-.82a7.11,7.11,0,0,0,.55-1.89,4.28,4.28,0,0,0,0-1.58l.55-.47Z"/><path class="cls-9" d="M426.31,301.77l.71.82-4.59,3.94a2.2,2.2,0,0,1-.41-.67,4.38,4.38,0,0,1-.23-1.41,12.45,12.45,0,0,1,.21-2,12.35,12.35,0,0,0,.27-2.78,2.43,2.43,0,0,0-.48-1.37,1.56,1.56,0,0,0-1.1-.54,1.7,1.7,0,0,0-1.24.47,1.72,1.72,0,0,0-.67,1.21,1.81,1.81,0,0,0,.51,1.34l-1,.67a2.84,2.84,0,0,1-.6-2.08,3,3,0,0,1,1.13-1.87,2.89,2.89,0,0,1,2.06-.8,2.4,2.4,0,0,1,1.76.87,2.77,2.77,0,0,1,.53,1,4,4,0,0,1,.16,1.33,16.21,16.21,0,0,1-.26,2.35c-.14.87-.22,1.44-.23,1.72a3.25,3.25,0,0,0,0,.77Z"/><line class="cls-12" x1="445.96" y1="292.29" x2="413.34" y2="319.87"/><polygon class="cls-9" points="442.35 291.29 453.17 286.19 446.35 296.01 442.35 291.29"/><line class="cls-5" x1="483.22" y1="490.86" x2="518.72" y2="490.86"/><polygon class="cls-10" points="485.34 493.95 473.78 490.86 485.34 487.76 485.34 493.95"/><polygon class="cls-10" points="516.61 493.82 528.17 490.73 516.61 487.63 516.61 493.82"/><path class="cls-9" d="M490.64,486h-1.12V478.8a5.59,5.59,0,0,1-1.06.77,6.73,6.73,0,0,1-1.19.58v-1.08a6.9,6.9,0,0,0,1.65-1.07,4.26,4.26,0,0,0,1-1.23h.72Z"/><path class="cls-9" d="M493.52,483.56l1.18-.1a2.12,2.12,0,0,0,.61,1.3,1.63,1.63,0,0,0,1.15.43,1.77,1.77,0,0,0,1.37-.61,2.33,2.33,0,0,0,.56-1.62,2.09,2.09,0,0,0-.54-1.52,1.88,1.88,0,0,0-1.41-.56,2,2,0,0,0-1.67.89l-1-.14.88-4.69h4.55V478H495.5l-.49,2.46a2.92,2.92,0,0,1,1.73-.58,2.75,2.75,0,0,1,2,.83,2.92,2.92,0,0,1,.82,2.14,3.33,3.33,0,0,1-.72,2.14,2.91,2.91,0,0,1-2.4,1.11,3,3,0,0,1-2-.7A2.67,2.67,0,0,1,493.52,483.56Z"/><path class="cls-9" d="M501.26,486v-1.28h1.27V486Z"/><path class="cls-9" d="M504.17,483.56l1.18-.1a2.12,2.12,0,0,0,.61,1.3,1.64,1.64,0,0,0,1.15.43,1.81,1.81,0,0,0,1.38-.61,2.33,2.33,0,0,0,.56-1.62,2.09,2.09,0,0,0-.54-1.52,1.89,1.89,0,0,0-1.42-.56,2,2,0,0,0-1,.25,1.94,1.94,0,0,0-.69.64l-1.06-.14.89-4.69h4.55V478h-3.65l-.49,2.46a2.9,2.9,0,0,1,1.72-.58,2.77,2.77,0,0,1,2,.83,3,3,0,0,1,.82,2.14,3.33,3.33,0,0,1-.72,2.14,3.22,3.22,0,0,1-4.44.41A2.72,2.72,0,0,1,504.17,483.56Z"/><path class="cls-9" d="M438.12,579.11l8.44-3.52,1.56,3.74a5.53,5.53,0,0,1,.49,1.81,2.1,2.1,0,0,1-.41,1.28,2.66,2.66,0,0,1-1.13.88,2.29,2.29,0,0,1-1.76.05,3.23,3.23,0,0,1-1.53-1.47,3.32,3.32,0,0,1-.14.85,6.5,6.5,0,0,1-.73,1.4l-1.69,2.42-.59-1.4,1.29-1.85c.37-.54.65-1,.83-1.29a2.86,2.86,0,0,0,.33-.81,1.74,1.74,0,0,0,0-.6,4.06,4.06,0,0,0-.22-.64l-.54-1.29-3.75,1.56Zm5.18-.85,1,2.4a3.76,3.76,0,0,0,.66,1.14,1.34,1.34,0,0,0,.78.44,1.54,1.54,0,0,0,.85-.09,1.35,1.35,0,0,0,.8-.85,2.13,2.13,0,0,0-.19-1.53l-1.11-2.67Z"/><path class="cls-9" d="M443.12,591.09l-.43-1,6.61-2.75a6,6,0,0,1-1.13-.69,8.26,8.26,0,0,1-1-.87l1-.41a7,7,0,0,0,1.63,1.1,4.29,4.29,0,0,0,1.51.45l.28.67Z"/><path class="cls-9" d="M447.5,598.77l-1,.42-2.33-5.58a2,2,0,0,1,.77-.18,4,4,0,0,1,1.41.21,12.09,12.09,0,0,1,1.84.83,12.61,12.61,0,0,0,2.56,1.11,2.27,2.27,0,0,0,1.45,0,1.5,1.5,0,0,0,.86-.87,1.72,1.72,0,0,0-.06-1.33,1.76,1.76,0,0,0-.95-1,1.84,1.84,0,0,0-1.43.07l-.34-1.11a2.84,2.84,0,0,1,2.16.06,3.06,3.06,0,0,1,1.43,1.66,2.89,2.89,0,0,1,.13,2.2,2.4,2.4,0,0,1-1.38,1.41,2.77,2.77,0,0,1-1.08.21,4.5,4.5,0,0,1-1.32-.26,19,19,0,0,1-2.15-1q-1.17-.6-1.56-.75a3.87,3.87,0,0,0-.75-.21Z"/><line class="cls-12" x1="450.49" y1="620.27" x2="434.35" y2="580.71"/><polygon class="cls-9" points="452.56 617.14 454.06 629.01 446.83 619.48 452.56 617.14"/><path class="cls-9" d="M301,626.61l8.44-3.52,1.56,3.74a5.41,5.41,0,0,1,.49,1.81,2.07,2.07,0,0,1-.41,1.27,2.53,2.53,0,0,1-1.13.88,2.27,2.27,0,0,1-1.75.05,3.13,3.13,0,0,1-1.54-1.46,2.92,2.92,0,0,1-.14.84,6.28,6.28,0,0,1-.73,1.4l-1.69,2.43-.58-1.41,1.29-1.85c.37-.53.64-1,.82-1.29a2.82,2.82,0,0,0,.33-.8,1.74,1.74,0,0,0,0-.6,3,3,0,0,0-.22-.64l-.54-1.3-3.75,1.56Zm5.18-.85,1,2.4a3.69,3.69,0,0,0,.66,1.13,1.41,1.41,0,0,0,.78.44,1.37,1.37,0,0,0,.85-.09,1.33,1.33,0,0,0,.8-.84,2.2,2.2,0,0,0-.18-1.54l-1.12-2.67Z"/><path class="cls-9" d="M307.6,639.71l-1,.42-2.33-5.58a1.89,1.89,0,0,1,.77-.18,4,4,0,0,1,1.41.21,11.49,11.49,0,0,1,1.84.82,12.24,12.24,0,0,0,2.57,1.12,2.34,2.34,0,0,0,1.45,0,1.49,1.49,0,0,0,.85-.87,2,2,0,0,0-1-2.34,1.91,1.91,0,0,0-1.44.06l-.33-1.11a2.89,2.89,0,0,1,2.16.07,3,3,0,0,1,1.42,1.65,2.92,2.92,0,0,1,.13,2.21,2.37,2.37,0,0,1-1.37,1.4,2.65,2.65,0,0,1-1.09.21,4.05,4.05,0,0,1-1.31-.25,18.16,18.16,0,0,1-2.16-1c-.78-.41-1.3-.66-1.56-.76a4.84,4.84,0,0,0-.74-.2Z"/><path class="cls-9" d="M311.23,639.5a8.23,8.23,0,0,1,2.54-.7,3.17,3.17,0,0,1,1.78.33,2.58,2.58,0,0,1,1.14,1.32,2.69,2.69,0,0,1,.22,1.31,2.42,2.42,0,0,1-.43,1.17,4.48,4.48,0,0,1-1,1.05,9.16,9.16,0,0,1-1.92,1,8.21,8.21,0,0,1-2.52.7,3.31,3.31,0,0,1-1.79-.32,2.57,2.57,0,0,1-1.14-1.33,2.5,2.5,0,0,1,.07-2.28A6,6,0,0,1,311.23,639.5Zm.44,1.06a5.71,5.71,0,0,0-2.56,1.65,1.52,1.52,0,0,0-.19,1.48,1.58,1.58,0,0,0,1.19.92,8.85,8.85,0,0,0,5.54-2.31,1.58,1.58,0,0,0,.18-1.5,1.45,1.45,0,0,0-1.08-.89A5.91,5.91,0,0,0,311.67,640.56Z"/><line class="cls-12" x1="313.32" y1="667.76" x2="297.18" y2="628.2"/><polygon class="cls-9" points="315.39 664.63 316.89 676.51 309.66 666.98 315.39 664.63"/><line class="cls-5" x1="153.41" y1="721.13" x2="153.41" y2="445.29"/><polygon class="cls-10" points="156.38 719.02 153.28 730.58 150.18 719.02 156.38 719.02"/><polygon class="cls-10" points="156.38 447.4 153.28 435.84 150.18 447.4 156.38 447.4"/><line class="cls-5" x1="200.3" y1="721.13" x2="200.3" y2="465.65"/><polygon class="cls-10" points="203.27 719.02 200.17 730.58 197.07 719.02 203.27 719.02"/><polygon class="cls-10" points="203.27 467.77 200.17 456.21 197.07 467.77 203.27 467.77"/><path class="cls-9" d="M189,591.29l.09,1.12a2.15,2.15,0,0,0-1,.42,1.5,1.5,0,0,0-.48,1.13,1.55,1.55,0,0,0,.3.94,2.48,2.48,0,0,0,1.13.83,5.77,5.77,0,0,0,2.11.32,2.63,2.63,0,0,1-.92-1,2.66,2.66,0,0,1-.3-1.23,2.54,2.54,0,0,1,.83-1.91,3,3,0,0,1,2.14-.79,3.49,3.49,0,0,1,1.6.37,2.74,2.74,0,0,1,1.13,1A2.78,2.78,0,0,1,196,594a2.86,2.86,0,0,1-1,2.29,5.21,5.21,0,0,1-3.4.89,6.14,6.14,0,0,1-3.86-1,2.82,2.82,0,0,1-1.05-2.3,2.61,2.61,0,0,1,.61-1.77A2.55,2.55,0,0,1,189,591.29Zm3.94,4.59a2.58,2.58,0,0,0,1.12-.25,1.75,1.75,0,0,0,.8-.69,1.66,1.66,0,0,0,.28-.93,1.59,1.59,0,0,0-.57-1.22,2.29,2.29,0,0,0-1.56-.51,2.16,2.16,0,0,0-1.5.5,1.67,1.67,0,0,0-.54,1.27,1.77,1.77,0,0,0,.54,1.3A2,2,0,0,0,192.92,595.88Z"/><path class="cls-9" d="M189,584.18l.09,1.12a2,2,0,0,0-1,.43,1.47,1.47,0,0,0-.48,1.12,1.53,1.53,0,0,0,.3.94,2.57,2.57,0,0,0,1.13.84,5.8,5.8,0,0,0,2.11.31,2.56,2.56,0,0,1-.92-1,2.66,2.66,0,0,1-.3-1.23,2.55,2.55,0,0,1,.83-1.91,3,3,0,0,1,2.14-.79,3.62,3.62,0,0,1,1.6.37,2.74,2.74,0,0,1,1.13,1,2.85,2.85,0,0,1,.39,1.48,2.88,2.88,0,0,1-1,2.29,5.21,5.21,0,0,1-3.4.88,6.08,6.08,0,0,1-3.86-1,2.8,2.8,0,0,1-1.05-2.3,2.46,2.46,0,0,1,2.28-2.6Zm3.94,4.59a2.58,2.58,0,0,0,1.12-.25,1.75,1.75,0,0,0,.8-.69,1.66,1.66,0,0,0,.28-.93,1.59,1.59,0,0,0-.57-1.22,2.29,2.29,0,0,0-1.56-.51,2.11,2.11,0,0,0-1.5.51A1.66,1.66,0,0,0,191,587a1.73,1.73,0,0,0,.54,1.29A2,2,0,0,0,192.92,588.77Z"/><path class="cls-9" d="M141,599.51H140v-5.92h.87a12.42,12.42,0,0,0,2.47,1.73,15.57,15.57,0,0,0,3.17,1.33,12.5,12.5,0,0,0,2.51.43v1.15a10.93,10.93,0,0,1-2.6-.42,13.34,13.34,0,0,1-2.95-1.17A12.36,12.36,0,0,1,141,595Z"/><path class="cls-9" d="M149,588.25v1.12h-7.15a6.63,6.63,0,0,1,.77,1.06,7.51,7.51,0,0,1,.58,1.19H142.1A6.61,6.61,0,0,0,141,590a4.37,4.37,0,0,0-1.22-1v-.72Z"/><path class="cls-9" d="M149,584.74h-1.28v-1.28H149Z"/><path class="cls-9" d="M141,581.75H140v-5.92h.87a12.42,12.42,0,0,0,2.47,1.73,15,15,0,0,0,3.17,1.32,11.23,11.23,0,0,0,2.51.43v1.16a11,11,0,0,1-2.6-.43,13.81,13.81,0,0,1-2.95-1.16,12.83,12.83,0,0,1-2.4-1.61Z"/><path class="cls-9" d="M149,571.13H146.8v4h-1l-5.93-4.17V570h5.93v-1.24h1V570H149Zm-3.21,0h-4.13l4.13,2.86Z"/><line class="cls-5" x1="806.13" y1="721.17" x2="806.13" y2="694.88"/><polygon class="cls-10" points="809.23 719.06 806.13 730.62 803.03 719.06 809.23 719.06"/><polygon class="cls-10" points="809.1 696.99 806 685.43 802.9 696.99 809.1 696.99"/><path class="cls-9" d="M800.17,716v1.12H793a6.76,6.76,0,0,1,.77,1.07,7.46,7.46,0,0,1,.58,1.18h-1.08a6.92,6.92,0,0,0-1.08-1.65,4.15,4.15,0,0,0-1.22-1V716Z"/><path class="cls-9" d="M800.17,708.91V710H793a6.21,6.21,0,0,1,.77,1.06,7.9,7.9,0,0,1,.58,1.18h-1.08a7.07,7.07,0,0,0-1.08-1.64,4.37,4.37,0,0,0-1.22-1v-.72Z"/><path class="cls-9" d="M800.17,706.35h-1.28v-1.28h1.28Z"/><path class="cls-9" d="M799.09,697.53h1.08v6.05a2.28,2.28,0,0,1-.78-.13,4.24,4.24,0,0,1-1.21-.74,12.08,12.08,0,0,1-1.39-1.47,11.93,11.93,0,0,0-1.94-2,2.28,2.28,0,0,0-1.35-.52,1.48,1.48,0,0,0-1.12.48,1.68,1.68,0,0,0-.46,1.24,1.75,1.75,0,0,0,.49,1.3,1.82,1.82,0,0,0,1.34.49l-.12,1.15a2.76,2.76,0,0,1-2-.89,3,3,0,0,1-.68-2.08,2.88,2.88,0,0,1,.73-2.08,2.41,2.41,0,0,1,1.81-.77,2.8,2.8,0,0,1,1.08.23,4.58,4.58,0,0,1,1.12.74,19.44,19.44,0,0,1,1.6,1.73,16.38,16.38,0,0,0,1.16,1.3,4.2,4.2,0,0,0,.6.48Z"/><line class="cls-5" x1="879.04" y1="721.17" x2="879.04" y2="106.91"/><polygon class="cls-10" points="882.14 719.06 879.04 730.62 875.95 719.06 882.14 719.06"/><polygon class="cls-10" points="882.01 109.02 878.91 97.47 875.82 109.02 882.01 109.02"/><line class="cls-5" x1="706.35" y1="296.21" x2="706.35" y2="106.91"/><polygon class="cls-10" points="709.45 294.1 706.36 305.65 703.26 294.1 709.45 294.1"/><polygon class="cls-10" points="709.32 109.03 706.23 97.47 703.13 109.03 709.32 109.03"/><line class="cls-5" x1="840.09" y1="721.17" x2="840.09" y2="621.44"/><polygon class="cls-10" points="843.18 719.06 840.09 730.62 836.99 719.06 843.18 719.06"/><polygon class="cls-10" points="843.05 623.55 839.96 611.99 836.86 623.55 843.05 623.55"/><path class="cls-9" d="M833.05,670h1.08v6a1.89,1.89,0,0,1-.78-.13,4.07,4.07,0,0,1-1.22-.74,10.19,10.19,0,0,1-1.38-1.47,12.6,12.6,0,0,0-1.94-2,2.28,2.28,0,0,0-1.35-.52,1.51,1.51,0,0,0-1.13.47,1.76,1.76,0,0,0-.45,1.25,1.78,1.78,0,0,0,.48,1.3,1.91,1.91,0,0,0,1.35.49l-.12,1.15a2.85,2.85,0,0,1-2-.89,3.06,3.06,0,0,1-.67-2.08,2.87,2.87,0,0,1,.73-2.08,2.4,2.4,0,0,1,1.81-.77,2.8,2.8,0,0,1,1.08.23,4.11,4.11,0,0,1,1.11.74,19.21,19.21,0,0,1,1.61,1.73c.57.68,1,1.11,1.15,1.3a3.57,3.57,0,0,0,.61.47Z"/><path class="cls-9" d="M829.17,667.06a2.08,2.08,0,0,1-.73,1,1.87,1.87,0,0,1-1.13.34,2.21,2.21,0,0,1-1.68-.72,2.63,2.63,0,0,1-.68-1.91,2.7,2.7,0,0,1,.69-1.93,2.29,2.29,0,0,1,1.7-.73,1.87,1.87,0,0,1,1.1.34,2.06,2.06,0,0,1,.73,1,2.34,2.34,0,0,1,2.35-1.72,2.64,2.64,0,0,1,2,.83,3.38,3.38,0,0,1,0,4.37,2.7,2.7,0,0,1-2,.83,2.37,2.37,0,0,1-1.5-.46A2.29,2.29,0,0,1,829.17,667.06Zm-1.9.22a1.43,1.43,0,0,0,1.06-.42,1.49,1.49,0,0,0,.41-1.08,1.47,1.47,0,0,0-.41-1.07,1.36,1.36,0,0,0-1-.41,1.39,1.39,0,0,0-1,.43,1.45,1.45,0,0,0-.42,1.06,1.5,1.5,0,0,0,.41,1.07A1.35,1.35,0,0,0,827.27,667.28Zm4.22.36a2,2,0,0,0,.93-.22,1.7,1.7,0,0,0,.7-.68,2,2,0,0,0,.24-1,1.83,1.83,0,0,0-.51-1.33,1.93,1.93,0,0,0-2.66,0,1.82,1.82,0,0,0-.53,1.35,1.78,1.78,0,0,0,1.83,1.83Z"/><line class="cls-5" x1="673.2" y1="159.76" x2="673.2" y2="106.91"/><polygon class="cls-10" points="676.16 157.64 673.07 169.2 669.97 157.64 676.16 157.64"/><polygon class="cls-10" points="676.16 109.03 673.07 97.47 669.97 109.03 676.16 109.03"/><line class="cls-12" x1="378.58" y1="142.27" x2="423.49" y2="149.42"/><polygon class="cls-9" points="380.18 145.66 369.25 140.78 381.15 139.54 380.18 145.66"/><line class="cls-12" x1="418.59" y1="111.68" x2="429.17" y2="193.15"/><polygon class="cls-9" points="415.79 114.17 417.38 102.31 421.94 113.37 415.79 114.17"/><line class="cls-12" x1="452.46" y1="107.6" x2="463.03" y2="189.08"/><polygon class="cls-9" points="449.66 110.1 451.24 98.24 455.8 109.3 449.66 110.1"/><rect class="cls-2" x="499.74" y="473.37" width="1.23" height="15.34"/></g><g id="Watermark"><rect class="cls-2" x="438.45" y="669.43" width="123.09" height="46.3"/><rect class="cls-13" x="444.86" y="677.27" width="62.89" height="30.62"/><rect class="cls-13" x="507.75" y="677.27" width="47.39" height="30.62"/><path class="cls-14" d="M466.48,683.37l-2.79,18.92H461l-1.55-11-1.53,11h-2.74l-2.8-18.92h2.51l1.79,14.17,1.79-14.17h2l1.79,14.17L464,683.37Z"/><path class="cls-14" d="M467.93,702.29V683.37h2.53v18.92Z"/><path class="cls-14" d="M472.83,683.37h5q2.9,0,2.9,3.24v4.66c0,1.65-.51,2.7-1.51,3.14l1.77,7.88h-2.4l-1.66-7.65h-1.53v7.65h-2.53Zm2.53,9.11H477c.76,0,1.14-.45,1.14-1.37V687c0-.91-.38-1.37-1.14-1.37h-1.66Z"/><path class="cls-14" d="M486.82,685.66v16.63h-2.53V685.66h-2.42v-2.29h7.38v2.29Z"/><path class="cls-14" d="M496.34,702.29V693.7h-3.11v8.59H490.7V683.37h2.53v8h3.11v-8h2.53v18.92Z"/><path class="cls-14" d="M516.31,683.37h5q2.9,0,2.89,3.24v4.66c0,1.65-.5,2.7-1.5,3.14l1.77,7.88H522l-1.66-7.65h-1.53v7.65h-2.53Zm2.53,9.11h1.66c.76,0,1.13-.45,1.13-1.37V687c0-.91-.37-1.37-1.13-1.37h-1.66Z"/><path class="cls-14" d="M528.67,702.29h-2.53V686.61q0-3.24,3-3.24h1.9q3,0,3,3.24v15.68h-2.53v-6.93h-2.9Zm2.9-9.23v-6.29a1,1,0,0,0-1.11-1.11h-.68a1,1,0,0,0-1.11,1.11v6.29Z"/><path class="cls-14" d="M536.34,702.29V683.37h2.53v18.92Z"/><path class="cls-14" d="M547.24,702.29h-6V683.37h2.53V700h3.47Z"/></g></svg>