<svg xmlns="http://www.w3.org/2000/svg" xmlns:xlink="http://www.w3.org/1999/xlink" viewBox="0 0 1000 800"><defs><style>.cls-1,.cls-10,.cls-11,.cls-12,.cls-13,.cls-3,.cls-4,.cls-7,.cls-8,.cls-9{fill:none;}.cls-14,.cls-2{fill:#f0f0f0;}.cls-10,.cls-11,.cls-12,.cls-13,.cls-3,.cls-4,.cls-7,.cls-8,.cls-9{stroke:#241f21;}.cls-3{stroke-width:1.14px;}.cls-10,.cls-11,.cls-12,.cls-13,.cls-4,.cls-7,.cls-8{stroke-width:1.11px;}.cls-5{fill:#241f21;}.cls-6{clip-path:url(#clip-path);}.cls-14,.cls-7{stroke-miterlimit:10;}.cls-8{stroke-dasharray:14.14 7.1;}.cls-9{stroke-width:0.96px;}.cls-10{stroke-miterlimit:1;}.cls-11{stroke-dasharray:23.49 7.21;}.cls-12{stroke-dasharray:22.79 6.51;}.cls-13{stroke-dasharray:23.21 6.93;}.cls-14{stroke:#ccc;}.cls-15{fill:#ccc;}</style><clipPath id="clip-path"><rect class="cls-1" x="67.98" y="4.41" width="852.18" height="789.61"/></clipPath></defs><g id="Flat"><path class="cls-2" d="M474.28,698.4s-301,.31-311.75.31c-4,0-10.82-7.16-10.82-12.15V667.87c0-4.65,5-11.12,8.67-11.6,0,0,234.43-23.41,251.27-25.61s36.08-15.95,36.15-46.86c.41-169.9-1.27-242.59-1.27-242.59-2.83-31.45-33.16-36-50.62-39s-17.11-3.06-50.14-10.61c-25.88-5.92-47.6-34.21-47.72-58.87l-.2-70.75c0-9.25,10-19.2,17.32-20,47.27-5.23,141.79-1.25,161.55,3,24,5.12,34,7.84,47.7,20.47,13,12,15.3,34.23,20.57,63.58,5.41,30.16,5.11,39.94,10.89,65.4,6.3,27.68,26.89,47.17,62,46.87,33.66-.28,69.23-26.7,81.17-49.36,15.41-29.25,22.59-102.22,23.74-110.71s5.57-16.46,14.31-16.46,19.66.57,27.07.36,20.78,6.66,20.44,18.88-11.22,80.93-15.8,104.81c-4.64,24.2-25.26,54.82-38.62,68.84-16,16.77-38.07,33.07-67,40.93-24.89,6.77-116.12,22.27-129.3,26.41s-34.29,9.44-33.83,54c.18,16.77-.49,96,.17,104.91s1.17,41.45,34.67,46.27c36.8,5.31,230.88,23.06,250.25,26.35,6.1,1,10.84,4.93,11,12.22.16,6,.33,12,.33,16.51,0,5.8-2.64,12-9.23,13.25-10.29,1.94-313,0-313,0"/><path class="cls-3" d="M474.28,698.4s-301,.31-311.75.31c-4,0-10.82-7.16-10.82-12.15V667.87c0-4.65,5-11.12,8.67-11.6,0,0,234.43-23.41,251.27-25.61s36.08-15.95,36.15-46.86c.41-169.9-1.27-242.59-1.27-242.59-2.83-31.45-33.16-36-50.62-39s-17.11-3.06-50.14-10.61c-25.88-5.92-47.6-34.21-47.72-58.87l-.2-70.75c0-9.25,10-19.2,17.32-20,47.27-5.23,141.79-1.25,161.55,3,24,5.12,34,7.84,47.7,20.47,13,12,15.3,34.23,20.57,63.58,5.41,30.16,5.11,39.94,10.89,65.4,6.3,27.68,26.89,47.17,62,46.87,33.66-.28,69.23-26.7,81.17-49.36,15.41-29.25,22.59-102.22,23.74-110.71s5.57-16.46,14.31-16.46,19.66.57,27.07.36,20.78,6.66,20.44,18.88-11.22,80.93-15.8,104.81c-4.64,24.2-25.26,54.82-38.62,68.84-16,16.77-38.07,33.07-67,40.93-24.89,6.77-116.12,22.27-129.3,26.41s-34.29,9.44-33.83,54c.18,16.77-.49,96,.17,104.91s1.17,41.45,34.67,46.27c36.8,5.31,230.88,23.06,250.25,26.35,6.1,1,10.84,4.93,11,12.22.16,6,.33,12,.33,16.51,0,5.8-2.64,12-9.23,13.25C777,700.34,474.28,698.4,474.28,698.4Z"/><path class="cls-4" d="M786.7,162l52.2-59.55h53.68M538.83,40.77V195M721.32,42.36V196.53"/><polygon class="cls-5" points="791.24 162.49 778.79 170.82 785.4 157.38 791.24 162.49"/><polyline class="cls-4" points="718.24 160.42 681.41 122.46 637.67 122.46"/><polygon class="cls-5" points="719.06 155.93 726.36 169.02 713.5 161.34 719.06 155.93"/><polyline class="cls-4" points="740.87 365.81 783.54 406.11 838.74 406.11"/><polygon class="cls-5" points="740.24 370.32 732.38 357.57 745.56 364.68 740.24 370.32"/><line class="cls-4" x1="873.88" y1="330.49" x2="873.88" y2="152.25"/><polygon class="cls-5" points="877.6 327.84 873.72 342.32 869.84 327.84 877.6 327.84"/><polygon class="cls-5" points="877.6 154.89 873.72 140.42 869.84 154.89 877.6 154.89"/><line class="cls-4" x1="912.72" y1="423.93" x2="912.72" y2="151.7"/><polygon class="cls-5" points="916.43 421.28 912.56 435.75 908.68 421.28 916.43 421.28"/><polygon class="cls-5" points="916.43 154.35 912.56 139.88 908.68 154.35 916.43 154.35"/><g class="cls-6"><path class="cls-4" d="M837.09,214.75V177.12M297.88,8v155.9M784.74,8V184.89m-633,500.89V796.12m644.71-1V657.83L775,655.19M73,139.27H920.69M76.41,699.2h841M865,164.73H735.6M920.69,436.59H473.11M110,625.68H473.46M626.2,341.83H883.05M159.31,316.77h314"/></g><polygon class="cls-5" points="840.81 179.76 836.93 165.29 833.05 179.76 840.81 179.76"/><line class="cls-4" x1="837.09" y1="110.13" x2="837.09" y2="127.29"/><polygon class="cls-5" points="833.38 124.65 837.25 139.12 841.13 124.65 833.38 124.65"/><line class="cls-4" x1="601.7" y1="233.94" x2="569.64" y2="303.29"/><polygon class="cls-5" points="567.38 299.33 564.82 314.1 574.42 302.59 567.38 299.33"/><line class="cls-4" x1="644.07" y1="243.02" x2="680.92" y2="296.16"/><polygon class="cls-5" points="676.36 296.11 687.79 305.79 682.73 291.68 676.36 296.11"/><line class="cls-4" x1="837.09" y1="138.87" x2="837.09" y2="165.29"/><path class="cls-7" d="M543,195.54a5.19,5.19,0,1,1-5.19-5.19A5.19,5.19,0,0,1,543,195.54Zm246.33-8.95a5.2,5.2,0,1,1-5.19-5.19A5.19,5.19,0,0,1,789.29,186.59Zm-62.89,8.95a5.2,5.2,0,1,1-5.19-5.19A5.2,5.2,0,0,1,726.4,195.54Z"/><line class="cls-8" x1="721.36" y1="195.54" x2="537.32" y2="195.54"/><path d="M867.76,96.4V85h5.07a6.62,6.62,0,0,1,2.33.31,2.5,2.5,0,0,1,1.28,1.09,3.29,3.29,0,0,1,.47,1.72,2.89,2.89,0,0,1-.79,2.06,4,4,0,0,1-2.43,1.06,3.78,3.78,0,0,1,.91.57,8.21,8.21,0,0,1,1.26,1.52l2,3.12h-1.91L874.43,94a18.53,18.53,0,0,0-1.1-1.58,3.68,3.68,0,0,0-.76-.77,2.51,2.51,0,0,0-.7-.3,4.11,4.11,0,0,0-.84-.06h-1.76V96.4Zm1.51-6.4h3.26a5.07,5.07,0,0,0,1.63-.21,1.77,1.77,0,0,0,.89-.69,1.9,1.9,0,0,0,.3-1,1.71,1.71,0,0,0-.59-1.33,2.74,2.74,0,0,0-1.86-.53h-3.63Z"/><path d="M878.72,93.4l1.47-.12A2.66,2.66,0,0,0,881,94.9a2,2,0,0,0,1.44.54,2.27,2.27,0,0,0,1.72-.77,2.86,2.86,0,0,0,.7-2,2.63,2.63,0,0,0-.68-1.9,2.59,2.59,0,0,0-3-.38,2.29,2.29,0,0,0-.86.8L879,91l1.11-5.89h5.69v1.35H881.2l-.62,3.08a3.74,3.74,0,0,1,2.17-.72,3.4,3.4,0,0,1,2.53,1,3.61,3.61,0,0,1,1,2.67,4.22,4.22,0,0,1-.9,2.69,3.66,3.66,0,0,1-3,1.39,3.73,3.73,0,0,1-2.55-.88A3.4,3.4,0,0,1,878.72,93.4Z"/><path d="M640.83,117.64V106.18h5.08a7,7,0,0,1,2.33.31,2.58,2.58,0,0,1,1.27,1.09,3.24,3.24,0,0,1,.48,1.73,2.89,2.89,0,0,1-.79,2,4,4,0,0,1-2.44,1.07,3.78,3.78,0,0,1,.91.57,7.23,7.23,0,0,1,1.26,1.52l2,3.12H649l-1.52-2.39c-.44-.68-.81-1.21-1.09-1.57a3.67,3.67,0,0,0-.77-.77,2.34,2.34,0,0,0-.69-.31,5.53,5.53,0,0,0-.85,0h-1.76v5.09Zm1.51-6.4h3.26a4.7,4.7,0,0,0,1.63-.22,1.72,1.72,0,0,0,.89-.68,1.9,1.9,0,0,0,.3-1,1.7,1.7,0,0,0-.59-1.34,2.74,2.74,0,0,0-1.86-.52h-3.63Z"/><path d="M651.8,114.61l1.4-.18a3.15,3.15,0,0,0,.83,1.72,2,2,0,0,0,1.42.53,2.25,2.25,0,0,0,1.67-.69,2.32,2.32,0,0,0,.69-1.71,2.13,2.13,0,0,0-.64-1.59,2.17,2.17,0,0,0-1.61-.63,4.25,4.25,0,0,0-1,.15l.16-1.23.22,0a2.93,2.93,0,0,0,1.62-.47,1.62,1.62,0,0,0,.72-1.45,1.71,1.71,0,0,0-.52-1.28,1.86,1.86,0,0,0-1.35-.51,1.89,1.89,0,0,0-1.37.52,2.52,2.52,0,0,0-.7,1.54l-1.41-.25a3.61,3.61,0,0,1,1.17-2.19,3.38,3.38,0,0,1,2.27-.77,3.73,3.73,0,0,1,1.73.4,2.88,2.88,0,0,1,1.21,1.1,2.78,2.78,0,0,1,.42,1.47,2.43,2.43,0,0,1-.4,1.35,2.73,2.73,0,0,1-1.18,1,2.69,2.69,0,0,1,1.58,1,3,3,0,0,1,.56,1.84,3.43,3.43,0,0,1-1.09,2.55,3.89,3.89,0,0,1-2.77,1,3.61,3.61,0,0,1-2.51-.9A3.46,3.46,0,0,1,651.8,114.61Z"/><path d="M649.27,240.42l9.58-6.28,2.78,4.25a6.83,6.83,0,0,1,1,2.12,2.61,2.61,0,0,1-.22,1.66,3.26,3.26,0,0,1-1.18,1.35,2.88,2.88,0,0,1-2.15.46,4,4,0,0,1-2.23-1.46,4,4,0,0,1,0,1.08,8.3,8.3,0,0,1-.59,1.89l-1.52,3.37-1-1.59,1.16-2.58a16.55,16.55,0,0,0,.72-1.78,3.44,3.44,0,0,0,.22-1.06,2.17,2.17,0,0,0-.12-.74,3.87,3.87,0,0,0-.42-.74l-1-1.47-4.26,2.78Zm6.18-2.24,1.78,2.73a5,5,0,0,0,1.07,1.24,1.76,1.76,0,0,0,1.07.37,1.94,1.94,0,0,0,1-.31,1.72,1.72,0,0,0,.8-1.23,2.77,2.77,0,0,0-.59-1.84l-2-3Z"/><path d="M660.44,255l-1.13.74-4.15-6.34a2.56,2.56,0,0,1,.91-.4,5.22,5.22,0,0,1,1.78-.06,15.67,15.67,0,0,1,2.46.59,15.33,15.33,0,0,0,3.41.79,2.93,2.93,0,0,0,1.78-.38,1.9,1.9,0,0,0,.85-1.27,2.17,2.17,0,0,0-.37-1.62,2.23,2.23,0,0,0-1.4-1,2.33,2.33,0,0,0-1.75.41l-.67-1.29a3.54,3.54,0,0,1,2.67-.42,3.88,3.88,0,0,1,2.14,1.72,3.62,3.62,0,0,1,.66,2.68,3,3,0,0,1-1.37,2.05,3.33,3.33,0,0,1-1.28.5,5.32,5.32,0,0,1-1.69,0,25.54,25.54,0,0,1-2.87-.71q-1.57-.48-2.1-.57a4.06,4.06,0,0,0-1-.08Z"/><path d="M662.66,255.35l.92,1.08a3.19,3.19,0,0,0-1,1.63,2,2,0,0,0,.34,1.47,2.25,2.25,0,0,0,1.49,1,2.33,2.33,0,0,0,1.8-.36,2.15,2.15,0,0,0,1-1.4,2.23,2.23,0,0,0-.35-1.7,4,4,0,0,0-.68-.74l1.12-.55a1.63,1.63,0,0,0,.11.2,3,3,0,0,0,1.28,1.1,1.59,1.59,0,0,0,1.6-.19,1.7,1.7,0,0,0,.79-1.14,1.84,1.84,0,0,0-.32-1.41,1.91,1.91,0,0,0-1.18-.86,2.58,2.58,0,0,0-1.68.26l-.56-1.32a3.68,3.68,0,0,1,2.48-.22,3.36,3.36,0,0,1,1.89,1.48,3.61,3.61,0,0,1,.61,1.67,2.9,2.9,0,0,1-1.26,2.77,2.45,2.45,0,0,1-1.35.4,2.76,2.76,0,0,1-1.46-.45,2.63,2.63,0,0,1,0,1.85,2.92,2.92,0,0,1-1.24,1.48,3.35,3.35,0,0,1-2.72.48,3.86,3.86,0,0,1-2.39-1.74,3.6,3.6,0,0,1-.62-2.59A3.49,3.49,0,0,1,662.66,255.35Z"/><path d="M580.59,267.92,570,263.58l1.93-4.7a6.36,6.36,0,0,1,1.17-2,2.56,2.56,0,0,1,1.49-.77,3.28,3.28,0,0,1,1.77.22A2.88,2.88,0,0,1,578,257.8a4,4,0,0,1,0,2.66,4.11,4.11,0,0,1,.88-.63,7.78,7.78,0,0,1,1.89-.59l3.64-.66-.73,1.77-2.78.49c-.8.15-1.43.29-1.87.42a3.08,3.08,0,0,0-1,.42,2.49,2.49,0,0,0-.55.52,4.9,4.9,0,0,0-.37.76l-.66,1.63,4.7,1.93Zm-5.35-3.83,1.24-3a4.76,4.76,0,0,0,.41-1.59,1.71,1.71,0,0,0-.29-1.08,2,2,0,0,0-.84-.68,1.73,1.73,0,0,0-1.46,0,2.79,2.79,0,0,0-1.19,1.53l-1.38,3.35Z"/><path d="M586.76,252.88l-.54,1.3-8.29-3.4a7.35,7.35,0,0,1,.39,1.6,9.16,9.16,0,0,1,.11,1.65l-1.26-.52a8.19,8.19,0,0,0-.46-2.42,5.09,5.09,0,0,0-.94-1.73l.35-.84Z"/><path d="M585.33,248.4l.36-1.38a3,3,0,0,0,1.9-.11,2,2,0,0,0,1-1.11,2.28,2.28,0,0,0,0-1.81,2.34,2.34,0,0,0-1.32-1.28,2.16,2.16,0,0,0-1.71,0,2.2,2.2,0,0,0-1.2,1.25,3.93,3.93,0,0,0-.23,1l-1.08-.61c0-.09.08-.15.1-.21a2.84,2.84,0,0,0,.18-1.67,1.59,1.59,0,0,0-1.07-1.21,1.7,1.7,0,0,0-1.38,0,1.87,1.87,0,0,0-1,1.06,1.9,1.9,0,0,0,0,1.46,2.57,2.57,0,0,0,1.16,1.24l-.76,1.21a3.65,3.65,0,0,1-1.59-1.92,3.35,3.35,0,0,1,.15-2.4,3.67,3.67,0,0,1,1-1.44,2.86,2.86,0,0,1,1.48-.7,2.71,2.71,0,0,1,1.52.17,2.39,2.39,0,0,1,1.1.88,1,1,0,1,0,1.95.37,3,3,0,0,1,1.92.18,3.38,3.38,0,0,1,1.94,2,3.79,3.79,0,0,1-.09,2.95,3.6,3.6,0,0,1-1.78,2A3.52,3.52,0,0,1,585.33,248.4Z"/><path d="M591.8,240.59l-1.48-.61.6-1.48,1.49.61Z"/><path d="M588.24,232.84a2.63,2.63,0,0,1-1.33.85,2.4,2.4,0,0,1-1.48-.15,2.77,2.77,0,0,1-1.6-1.63,3.3,3.3,0,0,1,.12-2.53,3.37,3.37,0,0,1,1.72-1.91,2.86,2.86,0,0,1,2.31,0,2.33,2.33,0,0,1,1.12.92,2.58,2.58,0,0,1,.36,1.52A2.91,2.91,0,0,1,593,229a3.32,3.32,0,0,1,1.89,1.89,3.84,3.84,0,0,1-.11,2.91,3.78,3.78,0,0,1-2,2.15,3.32,3.32,0,0,1-2.71,0,3,3,0,0,1-1.52-1.23A2.88,2.88,0,0,1,588.24,232.84Zm-2.31-.65a1.78,1.78,0,0,0,1.43,0,1.82,1.82,0,0,0,1-1.06,1.78,1.78,0,0,0,0-1.43,1.64,1.64,0,0,0-1-.95,1.73,1.73,0,0,0-1.41,0,1.82,1.82,0,0,0-1,1,1.87,1.87,0,0,0,0,1.43A1.65,1.65,0,0,0,585.93,232.19Zm4.72,2.43a2.64,2.64,0,0,0,1.19.18,2.09,2.09,0,0,0,1.13-.46,2.45,2.45,0,0,0,.74-1,2.23,2.23,0,0,0,0-1.79,2.2,2.2,0,0,0-1.27-1.23,2.24,2.24,0,0,0-1.81,0,2.35,2.35,0,0,0-1.26,1.31,2.22,2.22,0,0,0,0,1.77A2.26,2.26,0,0,0,590.65,234.62Z"/><path d="M807.87,399.18V387.72H813a6.66,6.66,0,0,1,2.33.31,2.58,2.58,0,0,1,1.27,1.09,3.24,3.24,0,0,1,.48,1.73,2.9,2.9,0,0,1-.79,2A4,4,0,0,1,813.8,394a4.26,4.26,0,0,1,.91.57,7.57,7.57,0,0,1,1.26,1.53l2,3.12h-1.9l-1.52-2.39c-.44-.68-.81-1.21-1.09-1.58a3.37,3.37,0,0,0-.77-.76,2.34,2.34,0,0,0-.69-.31,5.44,5.44,0,0,0-.85-.05h-1.75v5.09Zm1.52-6.4h3.25a4.7,4.7,0,0,0,1.63-.22,1.68,1.68,0,0,0,.89-.69,1.84,1.84,0,0,0,.3-1,1.7,1.7,0,0,0-.59-1.34A2.74,2.74,0,0,0,813,389h-3.62Z"/><path d="M823.29,396.15l1.4-.19a3.09,3.09,0,0,0,.83,1.73,2,2,0,0,0,1.41.52,2.26,2.26,0,0,0,1.68-.68,2.31,2.31,0,0,0,.68-1.71,2.16,2.16,0,0,0-.63-1.59,2.19,2.19,0,0,0-1.61-.63,4.18,4.18,0,0,0-1,.15l.15-1.23h.23a2.92,2.92,0,0,0,1.62-.46,1.62,1.62,0,0,0,.72-1.45,1.7,1.7,0,0,0-.53-1.28,1.84,1.84,0,0,0-1.35-.51,1.88,1.88,0,0,0-1.36.52,2.59,2.59,0,0,0-.71,1.54l-1.4-.25a3.61,3.61,0,0,1,1.17-2.19,3.36,3.36,0,0,1,2.27-.77,3.73,3.73,0,0,1,1.73.4,2.94,2.94,0,0,1,1.21,1.1,2.86,2.86,0,0,1,.41,1.47,2.35,2.35,0,0,1-.4,1.35,2.62,2.62,0,0,1-1.18,1,2.66,2.66,0,0,1,1.58,1,3,3,0,0,1,.57,1.85,3.41,3.41,0,0,1-1.1,2.55,3.86,3.86,0,0,1-2.76,1,3.61,3.61,0,0,1-2.51-.9A3.46,3.46,0,0,1,823.29,396.15Z"/><path d="M832.18,396.18l1.47-.13a2.68,2.68,0,0,0,.76,1.62,2.09,2.09,0,0,0,1.45.54,2.26,2.26,0,0,0,1.72-.76,2.93,2.93,0,0,0,.7-2,2.61,2.61,0,0,0-.68-1.9,2.37,2.37,0,0,0-1.77-.7,2.48,2.48,0,0,0-1.22.31,2.37,2.37,0,0,0-.86.8l-1.32-.17,1.11-5.88h5.69v1.34h-4.57L834,392.3a3.74,3.74,0,0,1,2.17-.72,3.44,3.44,0,0,1,2.53,1,3.61,3.61,0,0,1,1,2.67,4.15,4.15,0,0,1-.91,2.69,3.6,3.6,0,0,1-3,1.39,3.69,3.69,0,0,1-2.55-.87A3.42,3.42,0,0,1,832.18,396.18Z"/><path d="M617.33,634.23l-1.41-.13.79-8.92a7.81,7.81,0,0,1-1.42.85,9.23,9.23,0,0,1-1.53.59l.11-1.35a8.7,8.7,0,0,0,2.18-1.16,5.16,5.16,0,0,0,1.37-1.42l.91.08Z"/><path d="M621.69,634.61l.14-1.6,1.6.14-.14,1.6Zm.59-6.67.13-1.6,1.6.14-.14,1.6Z"/><path d="M630.62,635.39l-1.4-.12.78-8.93a7.49,7.49,0,0,1-1.41.85,9.65,9.65,0,0,1-1.54.59l.12-1.35a8.64,8.64,0,0,0,2.17-1.16,5.22,5.22,0,0,0,1.38-1.42l.9.08Z"/><path d="M634.7,630.08a10.46,10.46,0,0,1,.7-3.22,4.13,4.13,0,0,1,1.4-1.8,3.2,3.2,0,0,1,2.13-.49,3.56,3.56,0,0,1,1.58.51,3.13,3.13,0,0,1,1,1.17,5.69,5.69,0,0,1,.56,1.76,11.43,11.43,0,0,1,0,2.72,10.46,10.46,0,0,1-.7,3.2,4,4,0,0,1-1.4,1.8,3.49,3.49,0,0,1-4.62-.92A7.5,7.5,0,0,1,634.7,630.08Zm1.44.12a7.27,7.27,0,0,0,.33,3.8,1.92,1.92,0,0,0,1.54,1.07,2,2,0,0,0,1.71-.79,7.17,7.17,0,0,0,1-3.68,7.27,7.27,0,0,0-.33-3.8,2,2,0,0,0-1.56-1.07,1.82,1.82,0,0,0-1.61.68A7.3,7.3,0,0,0,636.14,630.2Z"/><path class="cls-5" d="M583.71,408.14l-1.64.29L580.24,398a8.67,8.67,0,0,1-1.35,1.4,12,12,0,0,1-1.57,1.15L577,399a10.1,10.1,0,0,0,2.12-2,6.51,6.51,0,0,0,1.14-2l1.05-.19Z"/><path class="cls-5" d="M587.44,399.47l-.33-1.87,1.86-.32.33,1.86Zm1.37,7.77-.33-1.86,1.87-.33.32,1.87Z"/><path class="cls-5" d="M592.46,403l1.69-.45a3.15,3.15,0,0,0,1.21,1.73,2.48,2.48,0,0,0,1.79.34,2.65,2.65,0,0,0,1.84-1.25,3.4,3.4,0,0,0,.4-2.5,3.07,3.07,0,0,0-1.17-2.07,3.07,3.07,0,0,0-3.56.17,2.87,2.87,0,0,0-.84,1.1l-1.57.07.09-7.06,6.61-1.16.28,1.56-5.31.93-.09,3.71a4.35,4.35,0,0,1,2.37-1.28,4,4,0,0,1,3.15.68,4.3,4.3,0,0,1,1.75,2.9,5,5,0,0,1-.5,3.31,4.32,4.32,0,0,1-3.21,2.23,4.38,4.38,0,0,1-3.15-.5A4,4,0,0,1,592.46,403Z"/><path class="cls-5" d="M377.78,289.18l-1.63-.29L378,278.48a8.82,8.82,0,0,1-1.74.85,11.8,11.8,0,0,1-1.87.54l.28-1.58a10,10,0,0,0,2.67-1.14,6.2,6.2,0,0,0,1.76-1.52l1.06.18Z"/><path class="cls-5" d="M382.89,290.08l.33-1.86,1.86.33-.33,1.86Zm1.37-7.78.33-1.86,1.86.33-.33,1.86Z"/><path class="cls-5" d="M387.76,287.34l1.74.16a3.11,3.11,0,0,0,.56,2,2.42,2.42,0,0,0,1.56.92,2.65,2.65,0,0,0,2.15-.53,3.46,3.46,0,0,0,1.24-2.22,3.08,3.08,0,0,0-.4-2.34,2.8,2.8,0,0,0-1.91-1.17,2.87,2.87,0,0,0-1.49.1,2.83,2.83,0,0,0-1.16.76l-1.5-.47L391,278l6.62,1.17-.28,1.56-5.31-.94-1.34,3.45a4.46,4.46,0,0,1,2.66-.39,4,4,0,0,1,2.73,1.73,4.31,4.31,0,0,1,.65,3.31,5,5,0,0,1-1.61,2.94,4.27,4.27,0,0,1-3.78,1,4.41,4.41,0,0,1-2.78-1.54A4,4,0,0,1,387.76,287.34Z"/><path class="cls-5" d="M516.85,131v-5.73l-5.21-7.78h2.18l2.66,4.07c.49.76.95,1.52,1.37,2.29.41-.71.9-1.51,1.48-2.39l2.62-4H524l-5.39,7.78V131Z"/><line class="cls-9" x1="368.62" y1="554.26" x2="465.05" y2="554.26"/><polygon class="cls-5" points="370.9 557.46 358.42 554.12 370.9 550.77 370.9 557.46"/><polygon class="cls-5" points="462.77 557.46 475.25 554.12 462.77 550.77 462.77 557.46"/><line class="cls-9" x1="374.7" y1="522.77" x2="464.09" y2="522.77"/><polygon class="cls-5" points="376.98 525.97 364.5 522.63 376.98 519.28 376.98 525.97"/><polygon class="cls-5" points="461.81 525.97 474.29 522.63 461.81 519.28 461.81 525.97"/><path class="cls-7" d="M369.69,542a5.28,5.28,0,1,1-5.27-5.27A5.27,5.27,0,0,1,369.69,542Zm-6.07-59.68a5.28,5.28,0,1,1-5.28-5.27A5.28,5.28,0,0,1,363.62,482.3Zm59.5,1.6a5.28,5.28,0,1,1-5.28-5.28A5.27,5.27,0,0,1,423.12,483.9Z"/><line class="cls-4" x1="358.18" y1="559" x2="354.97" y2="151.46"/><polygon class="cls-5" points="358.7 154.08 354.71 139.64 350.94 154.14 358.7 154.08"/><line class="cls-4" x1="492.77" y1="160.82" x2="417.84" y2="478.37"/><polygon class="cls-5" points="488.54 162.54 495.64 149.35 496.09 164.33 488.54 162.54"/><polyline class="cls-4" points="435.43 152.86 416.23 496.63 366.81 494.71 363.46 541.73 363.13 495.46 359.3 495.46 318.43 153.47"/><polygon class="cls-5" points="431.58 155.3 436.25 141.06 439.32 155.73 431.58 155.3"/><polygon class="cls-5" points="322.43 155.65 316.87 141.74 314.73 156.57 322.43 155.65"/><path d="M407.33,546.81v1.35h-7.57a2.49,2.49,0,0,1,.16-1,5.28,5.28,0,0,1,.93-1.52,14.59,14.59,0,0,1,1.84-1.74,16.14,16.14,0,0,0,2.52-2.42,2.9,2.9,0,0,0,.66-1.69,1.87,1.87,0,0,0-.6-1.41,2.42,2.42,0,0,0-3.18,0,2.28,2.28,0,0,0-.62,1.69L400,540a3.56,3.56,0,0,1,1.12-2.46,3.79,3.79,0,0,1,2.6-.85,3.62,3.62,0,0,1,2.61.91,3,3,0,0,1,1,2.27,3.37,3.37,0,0,1-.28,1.35,5.47,5.47,0,0,1-.93,1.4,23,23,0,0,1-2.17,2,20.55,20.55,0,0,0-1.62,1.45,4.54,4.54,0,0,0-.6.76Z"/><path d="M416.13,539.51l-1.39.11a2.69,2.69,0,0,0-.54-1.2,1.82,1.82,0,0,0-1.4-.61,1.94,1.94,0,0,0-1.18.38,3.23,3.23,0,0,0-1.05,1.41,7.53,7.53,0,0,0-.4,2.65,3.23,3.23,0,0,1,2.78-1.52,3.19,3.19,0,0,1,2.4,1,3.73,3.73,0,0,1,1,2.68,4.36,4.36,0,0,1-.47,2,3.38,3.38,0,0,1-1.27,1.42,3.51,3.51,0,0,1-1.85.49,3.62,3.62,0,0,1-2.87-1.29,6.51,6.51,0,0,1-1.11-4.26A7.65,7.65,0,0,1,410,538a3.51,3.51,0,0,1,2.88-1.31,3.06,3.06,0,0,1,3.25,2.85Zm-5.74,4.94a3.2,3.2,0,0,0,.31,1.39,2.32,2.32,0,0,0,.86,1,2.19,2.19,0,0,0,1.17.35,2,2,0,0,0,1.53-.72,2.81,2.81,0,0,0,.64-2,2.67,2.67,0,0,0-.63-1.88,2.11,2.11,0,0,0-1.6-.68,2.18,2.18,0,0,0-1.61.68A2.46,2.46,0,0,0,410.39,544.45Z"/><path d="M418.52,548.16v-1.6h1.61v1.6Z"/><path d="M429.48,539.51l-1.4.11a2.58,2.58,0,0,0-.53-1.2,1.84,1.84,0,0,0-1.41-.61,1.94,1.94,0,0,0-1.18.38,3.14,3.14,0,0,0-1,1.41,7.3,7.3,0,0,0-.4,2.65,3.23,3.23,0,0,1,2.78-1.52,3.17,3.17,0,0,1,2.39,1,3.73,3.73,0,0,1,1,2.68,4.36,4.36,0,0,1-.46,2,3.4,3.4,0,0,1-1.28,1.42,3.47,3.47,0,0,1-1.84.49,3.6,3.6,0,0,1-2.87-1.29,6.51,6.51,0,0,1-1.11-4.26,7.65,7.65,0,0,1,1.23-4.83,3.5,3.5,0,0,1,2.88-1.31,3.08,3.08,0,0,1,3.25,2.85Zm-5.74,4.94a3.34,3.34,0,0,0,.3,1.39,2.34,2.34,0,0,0,.87,1,2.18,2.18,0,0,0,1.16.35,2,2,0,0,0,1.53-.72,2.81,2.81,0,0,0,.64-2,2.67,2.67,0,0,0-.63-1.88A2.09,2.09,0,0,0,426,542a2.18,2.18,0,0,0-1.62.68A2.5,2.5,0,0,0,423.74,544.45Z"/><path d="M431.27,545.51l1.35-.13a2.42,2.42,0,0,0,.66,1.39,1.83,1.83,0,0,0,1.24.43,2.16,2.16,0,0,0,1.14-.3,2.51,2.51,0,0,0,.8-.79,4.62,4.62,0,0,0,.52-1.34,7.1,7.1,0,0,0,.21-1.72v-.28a3.2,3.2,0,0,1-1.16,1.09,3.09,3.09,0,0,1-1.58.42,3.17,3.17,0,0,1-2.4-1,3.74,3.74,0,0,1-1-2.71,3.85,3.85,0,0,1,1-2.81,3.41,3.41,0,0,1,2.57-1.06,3.7,3.7,0,0,1,2,.6,3.78,3.78,0,0,1,1.4,1.71,8.51,8.51,0,0,1,.48,3.23,10.6,10.6,0,0,1-.47,3.49,4.07,4.07,0,0,1-1.42,2,3.65,3.65,0,0,1-2.21.68,3,3,0,0,1-3.22-2.84Zm5.76-5a2.78,2.78,0,0,0-.64-1.93,2,2,0,0,0-1.56-.71,2.16,2.16,0,0,0-1.63.77,2.84,2.84,0,0,0-.69,2,2.46,2.46,0,0,0,.66,1.78,2.19,2.19,0,0,0,1.63.68,2.09,2.09,0,0,0,1.6-.68A2.7,2.7,0,0,0,437,540.46Z"/><path d="M408.9,515.73v1.36h-7.57a2.49,2.49,0,0,1,.16-1,5.15,5.15,0,0,1,.93-1.52,14.59,14.59,0,0,1,1.84-1.74,16.14,16.14,0,0,0,2.52-2.42,2.91,2.91,0,0,0,.66-1.7,1.9,1.9,0,0,0-.6-1.41,2.44,2.44,0,0,0-3.18,0,2.27,2.27,0,0,0-.62,1.69l-1.45-.15a3.61,3.61,0,0,1,1.12-2.47,3.83,3.83,0,0,1,2.6-.84,3.62,3.62,0,0,1,2.61.91,3,3,0,0,1,1,2.26,3.45,3.45,0,0,1-.28,1.36,5.47,5.47,0,0,1-.93,1.4,23,23,0,0,1-2.17,2q-1.26,1.07-1.62,1.44a5.52,5.52,0,0,0-.6.76Z"/><path d="M410.41,514.09l1.47-.13a2.64,2.64,0,0,0,.77,1.62,2.05,2.05,0,0,0,1.44.55,2.27,2.27,0,0,0,1.72-.77,2.93,2.93,0,0,0,.7-2,2.61,2.61,0,0,0-.68-1.9,2.37,2.37,0,0,0-1.77-.7,2.46,2.46,0,0,0-2.08,1.11l-1.32-.17,1.11-5.88h5.69v1.34h-4.57l-.62,3.08a3.74,3.74,0,0,1,2.17-.72,3.44,3.44,0,0,1,2.53,1,3.61,3.61,0,0,1,1,2.67,4.18,4.18,0,0,1-.9,2.69,3.63,3.63,0,0,1-3,1.39,3.72,3.72,0,0,1-2.55-.87A3.42,3.42,0,0,1,410.41,514.09Z"/><path d="M420.1,517.09v-1.61h1.6v1.61Z"/><path d="M431.14,515.73v1.36h-7.57a2.5,2.5,0,0,1,.17-1,5.11,5.11,0,0,1,.92-1.52,15.33,15.33,0,0,1,1.84-1.74,15.86,15.86,0,0,0,2.53-2.42,3,3,0,0,0,.65-1.7,1.9,1.9,0,0,0-.6-1.41,2.13,2.13,0,0,0-1.55-.57,2.19,2.19,0,0,0-1.63.61,2.31,2.31,0,0,0-.62,1.69l-1.44-.15a3.57,3.57,0,0,1,1.12-2.47,3.82,3.82,0,0,1,2.6-.84,3.62,3.62,0,0,1,2.61.91,3,3,0,0,1,1,2.26,3.64,3.64,0,0,1-.28,1.36,5.28,5.28,0,0,1-.94,1.4,21.81,21.81,0,0,1-2.17,2q-1.26,1.07-1.62,1.44a4.75,4.75,0,0,0-.59.76Z"/><path d="M440,515.73v1.36h-7.57a2.49,2.49,0,0,1,.16-1,5.15,5.15,0,0,1,.93-1.52,14.59,14.59,0,0,1,1.84-1.74,15.69,15.69,0,0,0,2.52-2.42,2.91,2.91,0,0,0,.66-1.7,1.9,1.9,0,0,0-.6-1.41,2.44,2.44,0,0,0-3.18,0,2.31,2.31,0,0,0-.62,1.69l-1.45-.15a3.61,3.61,0,0,1,1.12-2.47,3.85,3.85,0,0,1,2.6-.84,3.62,3.62,0,0,1,2.61.91,3,3,0,0,1,1,2.26,3.45,3.45,0,0,1-.28,1.36,5.22,5.22,0,0,1-.93,1.4,23,23,0,0,1-2.17,2Q435.36,514.6,435,515a5.52,5.52,0,0,0-.6.76Z"/><polyline class="cls-4" points="424.46 323.44 344.88 387.72 282.69 387.72"/><polygon class="cls-5" points="420.07 322.21 433.76 316.13 424.94 328.24 420.07 322.21"/><path d="M284.33,381.66V370.21h5.08a7,7,0,0,1,2.33.3A2.54,2.54,0,0,1,293,371.6a3.27,3.27,0,0,1,.48,1.73,2.89,2.89,0,0,1-.79,2.06,4,4,0,0,1-2.44,1.06,3.87,3.87,0,0,1,.92.57,7.81,7.81,0,0,1,1.25,1.52l2,3.12h-1.91L291,379.28c-.45-.69-.81-1.22-1.1-1.58a3.45,3.45,0,0,0-.77-.77,2.45,2.45,0,0,0-.69-.3,4.11,4.11,0,0,0-.84-.06h-1.76v5.09Zm1.52-6.4h3.26a5,5,0,0,0,1.62-.21,1.78,1.78,0,0,0,.89-.69,1.83,1.83,0,0,0,.31-1,1.69,1.69,0,0,0-.59-1.33,2.78,2.78,0,0,0-1.87-.53h-3.62Z"/><path d="M300.59,381.66h-1.4v-9a7.9,7.9,0,0,1-1.34,1,9.39,9.39,0,0,1-1.48.72V373a8.14,8.14,0,0,0,2.06-1.34,5.52,5.52,0,0,0,1.26-1.53h.9Z"/><path d="M304.19,376a10.47,10.47,0,0,1,.42-3.27,4.11,4.11,0,0,1,1.24-1.91,3.19,3.19,0,0,1,2.08-.67,3.4,3.4,0,0,1,1.62.37,3.07,3.07,0,0,1,1.14,1.07,5.77,5.77,0,0,1,.72,1.7,11.54,11.54,0,0,1,.25,2.71,10.79,10.79,0,0,1-.41,3.26,4.11,4.11,0,0,1-1.24,1.91,3.17,3.17,0,0,1-2.08.68,3.14,3.14,0,0,1-2.6-1.19A7.54,7.54,0,0,1,304.19,376Zm1.45,0a7.23,7.23,0,0,0,.66,3.76,1.89,1.89,0,0,0,3.26,0,11,11,0,0,0,0-7.51,2,2,0,0,0-1.65-.93,1.81,1.81,0,0,0-1.54.82A7.22,7.22,0,0,0,305.64,376Z"/><polyline class="cls-4" points="298.96 272 204.04 352.02 148.54 352.02"/><polygon class="cls-5" points="294.54 270.86 308.1 264.5 299.54 276.79 294.54 270.86"/><path d="M149.8,346.42V335h5.08a6.7,6.7,0,0,1,2.33.31,2.53,2.53,0,0,1,1.27,1.09,3.21,3.21,0,0,1,.48,1.72,2.91,2.91,0,0,1-.79,2.06,4,4,0,0,1-2.44,1.06,3.78,3.78,0,0,1,.91.57,7.57,7.57,0,0,1,1.26,1.53l2,3.11H158L156.47,344c-.44-.69-.81-1.21-1.09-1.58a3.58,3.58,0,0,0-.77-.76,2.34,2.34,0,0,0-.69-.31,4.42,4.42,0,0,0-.85-.05h-1.76v5.08Zm1.51-6.4h3.26a5,5,0,0,0,1.63-.21,1.68,1.68,0,0,0,.89-.69,1.88,1.88,0,0,0,.3-1,1.68,1.68,0,0,0-.59-1.33,2.74,2.74,0,0,0-1.86-.53h-3.63Z"/><path d="M166.06,346.42h-1.41v-9a7.28,7.28,0,0,1-1.33,1,9.53,9.53,0,0,1-1.48.73V337.8a8.35,8.35,0,0,0,2.06-1.35,5,5,0,0,0,1.25-1.53h.91Z"/><path d="M169.64,343.42l1.48-.12a2.63,2.63,0,0,0,.76,1.62,2.08,2.08,0,0,0,1.44.54,2.24,2.24,0,0,0,1.72-.76,2.89,2.89,0,0,0,.7-2,2.58,2.58,0,0,0-.67-1.89,2.34,2.34,0,0,0-1.77-.7,2.39,2.39,0,0,0-1.23.31,2.45,2.45,0,0,0-.86.8l-1.32-.17,1.11-5.88h5.69v1.34h-4.57l-.61,3.08a3.71,3.71,0,0,1,2.16-.72,3.42,3.42,0,0,1,2.53,1,3.61,3.61,0,0,1,1,2.67,4.2,4.2,0,0,1-.9,2.69,4,4,0,0,1-5.56.51A3.37,3.37,0,0,1,169.64,343.42Z"/><line class="cls-4" x1="220.94" y1="304.94" x2="220.94" y2="151.47"/><polygon class="cls-5" points="224.65 302.3 220.78 316.77 216.9 302.3 224.65 302.3"/><polygon class="cls-5" points="224.65 154.11 220.78 139.64 216.9 154.11 224.65 154.11"/><path d="M215.08,245.17h-2.74v5h-1.29l-7.42-5.22v-1.15h7.42v-1.55h1.29v1.55h2.74Zm-4,0h-5.16l5.16,3.58Z"/><path d="M215.08,235.48v1.4h-9a6.94,6.94,0,0,1,1,1.34,9.53,9.53,0,0,1,.73,1.48h-1.36a8.41,8.41,0,0,0-1.35-2.07,5.36,5.36,0,0,0-1.53-1.25v-.9Z"/><path d="M215.08,231.09h-1.6v-1.6h1.6Z"/><path d="M215.08,222.13v1.41h-9a6.84,6.84,0,0,1,1,1.33,9.53,9.53,0,0,1,.73,1.48h-1.36a8.54,8.54,0,0,0-1.35-2.06,5,5,0,0,0-1.53-1.25v-.91Z"/><path d="M212.08,218.55l-.12-1.47a2.64,2.64,0,0,0,1.62-.77,2,2,0,0,0,.54-1.44,2.26,2.26,0,0,0-.76-1.72,2.88,2.88,0,0,0-2-.7,2.6,2.6,0,0,0-1.9.68,2.34,2.34,0,0,0-.7,1.77,2.46,2.46,0,0,0,1.11,2.08l-.17,1.32-5.88-1.11V211.5h1.34v4.57l3.08.62a3.74,3.74,0,0,1-.72-2.17,3.44,3.44,0,0,1,1-2.53,3.61,3.61,0,0,1,2.67-1,4.2,4.2,0,0,1,2.69.9,3.63,3.63,0,0,1,1.39,3,3.68,3.68,0,0,1-.88,2.55A3.37,3.37,0,0,1,212.08,218.55Z"/><line class="cls-4" x1="84.91" y1="687.37" x2="84.91" y2="151.25"/><polygon class="cls-5" points="88.63 684.73 84.75 699.2 80.87 684.73 88.63 684.73"/><polygon class="cls-5" points="88.63 153.9 84.75 139.42 80.87 153.9 88.63 153.9"/><g class="cls-6"><path d="M79.23,417.38v1.41h-9a7.4,7.4,0,0,1,1,1.33A9.39,9.39,0,0,1,72,421.6H70.6a8.42,8.42,0,0,0-1.34-2.06,5.29,5.29,0,0,0-1.53-1.25v-.91Z"/><path d="M76.2,413.77,76,412.36a3.08,3.08,0,0,0,1.72-.82,2,2,0,0,0,.53-1.42,2.25,2.25,0,0,0-.69-1.67,2.32,2.32,0,0,0-1.7-.69,2.16,2.16,0,0,0-1.6.63,2.2,2.2,0,0,0-.63,1.61,3.85,3.85,0,0,0,.16,1l-1.24-.16c0-.09,0-.17,0-.23a2.89,2.89,0,0,0-.47-1.61,1.61,1.61,0,0,0-1.45-.72,1.71,1.71,0,0,0-1.28.52,1.86,1.86,0,0,0-.51,1.35,2,2,0,0,0,.52,1.37,2.58,2.58,0,0,0,1.55.7l-.25,1.41a3.61,3.61,0,0,1-2.2-1.17,3.44,3.44,0,0,1-.77-2.28,3.69,3.69,0,0,1,.4-1.72,2.88,2.88,0,0,1,1.1-1.21,2.78,2.78,0,0,1,1.47-.42,2.41,2.41,0,0,1,1.36.4,2.71,2.71,0,0,1,1,1.18,2.66,2.66,0,0,1,1-1.58,3,3,0,0,1,1.85-.56,3.37,3.37,0,0,1,2.54,1.09,3.87,3.87,0,0,1,1,2.77,3.59,3.59,0,0,1-.9,2.5A3.43,3.43,0,0,1,76.2,413.77Z"/><path d="M73.58,404.9a10.47,10.47,0,0,1-3.27-.42,4.06,4.06,0,0,1-1.91-1.24,3.16,3.16,0,0,1-.67-2.07,3.34,3.34,0,0,1,.37-1.62,3.1,3.1,0,0,1,1.07-1.15,5.76,5.76,0,0,1,1.7-.71,11.4,11.4,0,0,1,2.71-.26,10.34,10.34,0,0,1,3.25.42,4,4,0,0,1,1.92,1.23,3.2,3.2,0,0,1,.67,2.09,3.14,3.14,0,0,1-1.18,2.6A7.61,7.61,0,0,1,73.58,404.9Zm0-1.44a7.16,7.16,0,0,0,3.75-.66,1.88,1.88,0,0,0,0-3.26,7.21,7.21,0,0,0-3.75-.66,7.18,7.18,0,0,0-3.76.66,2,2,0,0,0-.93,1.64,1.8,1.8,0,0,0,.82,1.55A7.32,7.32,0,0,0,73.58,403.46Z"/></g><g class="cls-6"><path d="M82.6,388.48a14.13,14.13,0,0,1-3.44,2,10.83,10.83,0,0,1-7.64.2,15,15,0,0,1-3.94-2.17v-1a26.18,26.18,0,0,0,2.32,1.25,12.38,12.38,0,0,0,2.25.75,12.7,12.7,0,0,0,2.94.34,14.1,14.1,0,0,0,7.51-2.34Z"/><path d="M76.23,386.23l-.13-1.48a2.63,2.63,0,0,0,1.62-.76,2,2,0,0,0,.55-1.44,2.25,2.25,0,0,0-.77-1.72,2.88,2.88,0,0,0-2-.7,2.62,2.62,0,0,0-1.9.67,2.38,2.38,0,0,0-.69,1.77,2.49,2.49,0,0,0,.3,1.23,2.4,2.4,0,0,0,.81.86L73.81,386l-5.88-1.11v-5.69h1.34v4.57l3.08.61a3.71,3.71,0,0,1-.72-2.16,3.44,3.44,0,0,1,1-2.53,3.65,3.65,0,0,1,2.68-1,4.17,4.17,0,0,1,2.68.9,3.63,3.63,0,0,1,1.39,3,3.72,3.72,0,0,1-.87,2.55A3.42,3.42,0,0,1,76.23,386.23Z"/></g><path d="M79.23,376.56h-1.6V375h1.6Z"/><g class="cls-6"><path d="M79.23,367.61V369h-9a7.9,7.9,0,0,1,1,1.34,9,9,0,0,1,.72,1.48H70.6a8.68,8.68,0,0,0-1.34-2.07,5.46,5.46,0,0,0-1.53-1.25v-.9Z"/><path d="M79.23,358.71v1.4h-9a7.9,7.9,0,0,1,1,1.34,9.39,9.39,0,0,1,.72,1.48H70.6a8.68,8.68,0,0,0-1.34-2.07,5.65,5.65,0,0,0-1.53-1.25v-.9Z"/><path d="M73,354.1a2.67,2.67,0,0,1-.92,1.3,2.36,2.36,0,0,1-1.42.42,2.78,2.78,0,0,1-2.1-.9,3.33,3.33,0,0,1-.85-2.39,3.37,3.37,0,0,1,.87-2.42,2.82,2.82,0,0,1,2.12-.91,2.33,2.33,0,0,1,1.39.42,2.63,2.63,0,0,1,.91,1.27,3.08,3.08,0,0,1,1.11-1.61,3,3,0,0,1,1.83-.55,3.31,3.31,0,0,1,2.47,1,4.22,4.22,0,0,1,0,5.47,3.34,3.34,0,0,1-2.5,1,3,3,0,0,1-1.87-.57A2.78,2.78,0,0,1,73,354.1Zm-2.38.28a1.79,1.79,0,0,0,1.32-.52,2,2,0,0,0,0-2.7,1.72,1.72,0,0,0-1.26-.52,1.77,1.77,0,0,0-1.3.54,1.82,1.82,0,0,0-.52,1.33,1.87,1.87,0,0,0,.51,1.34A1.7,1.7,0,0,0,70.64,354.38Zm5.29.45a2.54,2.54,0,0,0,1.16-.28,2,2,0,0,0,.87-.85,2.45,2.45,0,0,0,.31-1.21,2.3,2.3,0,0,0-.65-1.67,2.24,2.24,0,0,0-1.65-.65,2.28,2.28,0,0,0-1.68.67,2.34,2.34,0,0,0-.66,1.7,2.23,2.23,0,0,0,.65,1.64A2.27,2.27,0,0,0,75.93,354.83Z"/><path d="M71.83,344.32l-2.18.38H67.78v-1.6h1.87l2.18.37Zm0,2.58-2.18.39H67.78v-1.6h1.87l2.18.35Z"/><path d="M82.6,340.39v1a14.1,14.1,0,0,0-7.51-2.34,12.59,12.59,0,0,0-2.92.34,11.63,11.63,0,0,0-2.25.74,24.07,24.07,0,0,0-2.34,1.26v-1a15,15,0,0,1,3.94-2.17,10.69,10.69,0,0,1,7.64.2A14.46,14.46,0,0,1,82.6,340.39Z"/></g><line class="cls-4" x1="121.86" y1="687.44" x2="121.86" y2="637.68"/><polygon class="cls-5" points="125.57 684.79 121.7 699.27 117.82 684.79 125.57 684.79"/><polygon class="cls-5" points="125.57 640.33 121.7 625.86 117.82 640.33 125.57 640.33"/><path d="M116.88,666.18v1.41h-9a7.4,7.4,0,0,1,1,1.33,9.39,9.39,0,0,1,.72,1.48h-1.36a8.61,8.61,0,0,0-1.34-2.06,5.29,5.29,0,0,0-1.53-1.25v-.91Z"/><path d="M106.92,662.5h-1.35v-7.41h1.1a15.43,15.43,0,0,0,3.09,2.16,18.68,18.68,0,0,0,4,1.66,13.8,13.8,0,0,0,3.15.54v1.45a14.26,14.26,0,0,1-3.27-.53,17.61,17.61,0,0,1-3.69-1.46,16.31,16.31,0,0,1-3-2Z"/><line class="cls-10" x1="511.26" y1="744.67" x2="525.77" y2="744.67"/><polygon class="cls-5" points="513.91 748.55 499.44 744.67 513.91 740.79 513.91 748.55"/><path class="cls-10" d="M413.57,744.67h41.14m11.82,0H499"/><polygon class="cls-5" points="452.06 748.55 466.53 744.67 452.06 740.79 452.06 748.55"/><path class="cls-5" d="M512.92,730.33v-6l-5.49-8.19h2.27l2.81,4.3c.51.8,1,1.6,1.46,2.39.43-.74,1-1.58,1.58-2.5l2.75-4.19h2.2l-5.68,8.19v6Z"/><path d="M421.53,729.88l-1.4.11a2.58,2.58,0,0,0-.53-1.2,1.88,1.88,0,0,0-1.41-.61,1.94,1.94,0,0,0-1.18.38,3.14,3.14,0,0,0-1,1.41,7.3,7.3,0,0,0-.4,2.65,3.23,3.23,0,0,1,2.78-1.52,3.17,3.17,0,0,1,2.39,1,3.73,3.73,0,0,1,1,2.68,4.36,4.36,0,0,1-.46,2,3.4,3.4,0,0,1-1.28,1.42,3.47,3.47,0,0,1-1.84.49,3.6,3.6,0,0,1-2.87-1.29,6.51,6.51,0,0,1-1.11-4.26,7.65,7.65,0,0,1,1.23-4.83,3.53,3.53,0,0,1,2.88-1.31,3.08,3.08,0,0,1,3.25,2.85Zm-5.74,4.94a3.34,3.34,0,0,0,.3,1.39,2.34,2.34,0,0,0,.87,1,2.18,2.18,0,0,0,1.16.35,2,2,0,0,0,1.53-.72,2.81,2.81,0,0,0,.64-2,2.63,2.63,0,0,0-.63-1.87,2.06,2.06,0,0,0-1.59-.69,2.15,2.15,0,0,0-1.62.69A2.46,2.46,0,0,0,415.79,734.82Z"/><path d="M423.92,738.53v-1.6h1.6v1.6Z"/><path d="M435,737.18v1.35H427.4a2.52,2.52,0,0,1,.16-1,5.07,5.07,0,0,1,.93-1.52,13.32,13.32,0,0,1,1.84-1.73,16.09,16.09,0,0,0,2.52-2.43,2.9,2.9,0,0,0,.66-1.69,1.87,1.87,0,0,0-.6-1.41,2.14,2.14,0,0,0-1.56-.58,2.23,2.23,0,0,0-1.63.61,2.32,2.32,0,0,0-.61,1.69l-1.45-.15a3.52,3.52,0,0,1,1.12-2.46,3.79,3.79,0,0,1,2.6-.85,3.62,3.62,0,0,1,2.61.91,3,3,0,0,1,1,2.27,3.37,3.37,0,0,1-.28,1.35,5.47,5.47,0,0,1-.93,1.4,23,23,0,0,1-2.17,2,21.39,21.39,0,0,0-1.63,1.45,4.46,4.46,0,0,0-.59.76Z"/><path d="M436.48,732.88a10.51,10.51,0,0,1,.41-3.27,4.12,4.12,0,0,1,1.25-1.91,3.14,3.14,0,0,1,2.07-.67,3.4,3.4,0,0,1,1.62.37,3.17,3.17,0,0,1,1.15,1.07,6,6,0,0,1,.71,1.7,11.54,11.54,0,0,1,.25,2.71,10.37,10.37,0,0,1-.41,3.25,4.09,4.09,0,0,1-1.24,1.92,3.5,3.5,0,0,1-4.68-.51C436.85,736.58,436.48,735,436.48,732.88Zm1.44,0a7.16,7.16,0,0,0,.66,3.75,1.88,1.88,0,0,0,3.26,0,11,11,0,0,0,0-7.51,2,2,0,0,0-1.65-.93,1.81,1.81,0,0,0-1.54.82A7.22,7.22,0,0,0,437.92,732.88Z"/><line class="cls-11" x1="500.46" y1="749.07" x2="499.63" y2="111.59"/><line class="cls-12" x1="473.46" y1="82.68" x2="473.46" y2="750.04"/><path d="M442.05,779.12h-1.4v-9a6.84,6.84,0,0,1-1.33,1,8.77,8.77,0,0,1-1.49.73v-1.36a8.68,8.68,0,0,0,2.07-1.34,5.35,5.35,0,0,0,1.25-1.54h.9Z"/><path d="M445.66,776.12l1.47-.13a2.68,2.68,0,0,0,.76,1.62,2.09,2.09,0,0,0,1.45.54,2.22,2.22,0,0,0,1.71-.76,2.89,2.89,0,0,0,.71-2,2.6,2.6,0,0,0-.68-1.9,2.37,2.37,0,0,0-1.77-.7,2.48,2.48,0,0,0-1.22.31,2.38,2.38,0,0,0-.86.8l-1.32-.17,1.11-5.88h5.69v1.34h-4.57l-.62,3.08a3.74,3.74,0,0,1,2.17-.72,3.44,3.44,0,0,1,2.53,1,3.61,3.61,0,0,1,1,2.67,4.13,4.13,0,0,1-.91,2.69,3.6,3.6,0,0,1-3,1.39,3.73,3.73,0,0,1-2.56-.87A3.45,3.45,0,0,1,445.66,776.12Z"/><path d="M454.55,773.47a10.39,10.39,0,0,1,.42-3.27,4.08,4.08,0,0,1,1.24-1.91,3.19,3.19,0,0,1,2.08-.68,3.4,3.4,0,0,1,1.62.38,3.09,3.09,0,0,1,1.15,1.07,5.92,5.92,0,0,1,.71,1.7,11.48,11.48,0,0,1,.25,2.71,10.37,10.37,0,0,1-.41,3.25,4.06,4.06,0,0,1-1.24,1.91,3.47,3.47,0,0,1-4.68-.51A7.49,7.49,0,0,1,454.55,773.47Zm1.45,0a7.16,7.16,0,0,0,.66,3.75,1.89,1.89,0,0,0,3.26,0,11,11,0,0,0,0-7.51,2,2,0,0,0-1.65-.93,1.78,1.78,0,0,0-1.54.82A7.22,7.22,0,0,0,456,773.47Z"/><path d="M471,782.48a14.06,14.06,0,0,1-2-3.43,10.68,10.68,0,0,1-.81-4.08,10.46,10.46,0,0,1,.61-3.57,14.67,14.67,0,0,1,2.17-3.93h1a24.81,24.81,0,0,0-1.25,2.32A12.38,12.38,0,0,0,470,772a12.67,12.67,0,0,0-.34,2.93,14.08,14.08,0,0,0,2.34,7.51Z"/><path d="M473.23,776.12l1.47-.13a2.64,2.64,0,0,0,.77,1.62,2,2,0,0,0,1.44.54,2.26,2.26,0,0,0,1.72-.76,2.88,2.88,0,0,0,.7-2,2.6,2.6,0,0,0-.68-1.9,2.37,2.37,0,0,0-1.77-.7,2.46,2.46,0,0,0-2.08,1.11l-1.32-.17,1.11-5.88h5.69v1.34h-4.57l-.62,3.08a3.74,3.74,0,0,1,2.17-.72,3.44,3.44,0,0,1,2.53,1,3.61,3.61,0,0,1,1,2.67,4.18,4.18,0,0,1-.9,2.69,3.63,3.63,0,0,1-3,1.39,3.72,3.72,0,0,1-2.55-.87A3.42,3.42,0,0,1,473.23,776.12Z"/><path d="M482.92,779.12v-1.61h1.6v1.61Z"/><path d="M486.78,776.47l1.35-.13a2.36,2.36,0,0,0,.66,1.38,1.78,1.78,0,0,0,1.24.43,2.13,2.13,0,0,0,1.14-.29,2.36,2.36,0,0,0,.8-.8,4.51,4.51,0,0,0,.52-1.34,6.58,6.58,0,0,0,.22-1.71c0-.07,0-.16,0-.29a3.27,3.27,0,0,1-5.14.48,3.76,3.76,0,0,1-1-2.72,3.84,3.84,0,0,1,1-2.8,3.42,3.42,0,0,1,2.57-1.07,3.71,3.71,0,0,1,2.05.61,3.78,3.78,0,0,1,1.4,1.71,8.45,8.45,0,0,1,.48,3.22,10.67,10.67,0,0,1-.47,3.5,4.07,4.07,0,0,1-1.42,2,3.69,3.69,0,0,1-2.21.68,3,3,0,0,1-3.22-2.84Zm5.76-5.06a2.73,2.73,0,0,0-.64-1.92,2,2,0,0,0-1.55-.71,2.15,2.15,0,0,0-1.64.76,2.87,2.87,0,0,0-.69,2,2.46,2.46,0,0,0,.66,1.78,2.19,2.19,0,0,0,1.63.68,2.09,2.09,0,0,0,1.6-.68A2.71,2.71,0,0,0,492.54,771.41Z"/><path d="M495.47,773.47a10.39,10.39,0,0,1,.42-3.27,4,4,0,0,1,1.24-1.91,3.17,3.17,0,0,1,2.08-.68,3.33,3.33,0,0,1,1.61.38,3,3,0,0,1,1.15,1.07,5.65,5.65,0,0,1,.71,1.7,11.4,11.4,0,0,1,.26,2.71,10.68,10.68,0,0,1-.41,3.25,4.06,4.06,0,0,1-1.24,1.91,3.48,3.48,0,0,1-4.69-.51A7.56,7.56,0,0,1,495.47,773.47Zm1.45,0a7.16,7.16,0,0,0,.66,3.75,1.88,1.88,0,0,0,3.25,0,10.86,10.86,0,0,0,0-7.51,2,2,0,0,0-1.64-.93,1.8,1.8,0,0,0-1.55.82A7.34,7.34,0,0,0,496.92,773.47Z"/><path d="M511.67,770.47l-1.4.11a2.68,2.68,0,0,0-.53-1.21,1.87,1.87,0,0,0-1.41-.6,1.94,1.94,0,0,0-1.18.38,3.23,3.23,0,0,0-1,1.41,7.52,7.52,0,0,0-.39,2.65,3.16,3.16,0,0,1,1.24-1.15,3.33,3.33,0,0,1,1.54-.37,3.17,3.17,0,0,1,2.39,1,3.71,3.71,0,0,1,1,2.68,4.39,4.39,0,0,1-.46,2,3.4,3.4,0,0,1-1.28,1.42,3.48,3.48,0,0,1-1.85.49,3.6,3.6,0,0,1-2.86-1.29,6.51,6.51,0,0,1-1.11-4.26q0-3.33,1.22-4.83a3.54,3.54,0,0,1,2.89-1.32,3.08,3.08,0,0,1,3.25,2.86Zm-5.75,4.93a3.4,3.4,0,0,0,.31,1.4,2.34,2.34,0,0,0,.87,1,2.14,2.14,0,0,0,1.16.34,2,2,0,0,0,1.53-.71,2.82,2.82,0,0,0,.64-2,2.66,2.66,0,0,0-.63-1.87,2.09,2.09,0,0,0-1.59-.68,2.18,2.18,0,0,0-1.62.68A2.48,2.48,0,0,0,505.92,775.4Z"/><path d="M513.73,771.72l-.39-2.18v-1.88h1.6v1.88l-.35,2.18Zm2.59,0-.39-2.18v-1.88h1.61v1.88l-.38,2.18Z"/><path d="M520.2,782.48h-1a14.08,14.08,0,0,0,2.34-7.51,12.5,12.5,0,0,0-.34-2.91,11.63,11.63,0,0,0-.74-2.25,24.07,24.07,0,0,0-1.26-2.34h1a15,15,0,0,1,2.17,3.93,10.86,10.86,0,0,1-.2,7.65A14.39,14.39,0,0,1,520.2,782.48Z"/><line class="cls-4" x1="784.6" y1="785.13" x2="163.54" y2="785.13"/><polygon class="cls-5" points="781.95 781.25 796.42 785.13 781.95 789.01 781.95 781.25"/><polygon class="cls-5" points="166.19 781.25 151.71 785.13 166.19 789.01 166.19 781.25"/><polyline class="cls-4" points="521.71 441.97 652.86 488.22 707.43 488.22"/><polygon class="cls-5" points="522.97 446.35 510.6 437.88 525.55 439.03 522.97 446.35"/><path d="M674.84,482V470.54h5.08a6.66,6.66,0,0,1,2.33.31,2.58,2.58,0,0,1,1.27,1.09,3.24,3.24,0,0,1,.48,1.73,2.9,2.9,0,0,1-.79,2.05,4,4,0,0,1-2.44,1.06,4.26,4.26,0,0,1,.91.57,7.57,7.57,0,0,1,1.26,1.53l2,3.12H683l-1.52-2.39c-.44-.68-.8-1.21-1.09-1.58a3.37,3.37,0,0,0-.77-.76A2.34,2.34,0,0,0,679,477a5.44,5.44,0,0,0-.85,0h-1.75V482Zm1.52-6.4h3.25a4.7,4.7,0,0,0,1.63-.22,1.68,1.68,0,0,0,.89-.69,1.84,1.84,0,0,0,.3-1,1.7,1.7,0,0,0-.59-1.34,2.74,2.74,0,0,0-1.86-.52h-3.62Z"/><path d="M691.1,482h-1.41v-9a6.84,6.84,0,0,1-1.33,1,8.71,8.71,0,0,1-1.48.73v-1.36a8.61,8.61,0,0,0,2.06-1.34,5.29,5.29,0,0,0,1.25-1.53h.91Z"/><path d="M694.68,476.35a10.39,10.39,0,0,1,.42-3.27,4,4,0,0,1,1.24-1.91,3.17,3.17,0,0,1,2.08-.67,3.33,3.33,0,0,1,1.61.37,3,3,0,0,1,1.15,1.07,5.65,5.65,0,0,1,.71,1.7,11.4,11.4,0,0,1,.26,2.71,10.68,10.68,0,0,1-.41,3.25,4.14,4.14,0,0,1-1.24,1.92,3.19,3.19,0,0,1-2.08.67,3.13,3.13,0,0,1-2.61-1.19A7.56,7.56,0,0,1,694.68,476.35Zm1.45,0a7.16,7.16,0,0,0,.66,3.75,1.88,1.88,0,0,0,3.25,0,11,11,0,0,0,0-7.51,2,2,0,0,0-1.64-.93,1.8,1.8,0,0,0-1.55.82A7.34,7.34,0,0,0,696.13,476.35Z"/><polyline class="cls-4" points="526.62 617.4 641.53 563.09 696.1 563.09"/><polygon class="cls-5" points="530.6 619.63 515.86 622.31 527.29 612.62 530.6 619.63"/><path d="M667.51,555.36V543.91h5.08a6.66,6.66,0,0,1,2.33.31,2.53,2.53,0,0,1,1.27,1.09,3.21,3.21,0,0,1,.48,1.72,2.91,2.91,0,0,1-.79,2.06,4,4,0,0,1-2.44,1.06,3.89,3.89,0,0,1,.91.57,7.57,7.57,0,0,1,1.26,1.53l2,3.11h-1.9L674.18,553c-.44-.69-.81-1.21-1.09-1.58a3.37,3.37,0,0,0-.77-.76,2.34,2.34,0,0,0-.69-.31,5.44,5.44,0,0,0-.85-.05H669v5.08ZM669,549h3.25a5,5,0,0,0,1.63-.22,1.68,1.68,0,0,0,.89-.69,1.88,1.88,0,0,0,.3-1,1.68,1.68,0,0,0-.59-1.33,2.74,2.74,0,0,0-1.86-.52H669Z"/><path d="M683.77,555.36h-1.41v-9a7.28,7.28,0,0,1-1.33,1,9.53,9.53,0,0,1-1.48.73v-1.36a8.35,8.35,0,0,0,2.06-1.35,5,5,0,0,0,1.25-1.53h.91Z"/><path d="M687.35,549.72a10.5,10.5,0,0,1,.42-3.28,4,4,0,0,1,1.24-1.91,3.21,3.21,0,0,1,2.07-.67,3.46,3.46,0,0,1,1.62.37,3.18,3.18,0,0,1,1.15,1.07,5.83,5.83,0,0,1,.71,1.71,11.4,11.4,0,0,1,.26,2.71,10.38,10.38,0,0,1-.42,3.25,4,4,0,0,1-1.24,1.91,3.47,3.47,0,0,1-4.68-.51A7.56,7.56,0,0,1,687.35,549.72Zm1.44,0a7.19,7.19,0,0,0,.66,3.75,1.89,1.89,0,0,0,3.26,0,11,11,0,0,0,0-7.51,2,2,0,0,0-1.64-.93,1.8,1.8,0,0,0-1.55.82A7.29,7.29,0,0,0,688.79,549.72Z"/><line class="cls-9" x1="448.05" y1="473.2" x2="500.27" y2="473.2"/><line class="cls-4" x1="396.12" y1="473.2" x2="436.51" y2="473.2"/><polygon class="cls-5" points="433.86 476.91 448.33 473.04 433.86 469.16 433.86 476.91"/><line class="cls-4" x1="512.09" y1="473.2" x2="552.49" y2="473.2"/><polygon class="cls-5" points="514.74 476.91 500.27 473.04 514.74 469.16 514.74 476.91"/><path d="M541.32,467.53h-1.41v-9a7,7,0,0,1-1.33,1,9.53,9.53,0,0,1-1.48.73v-1.36a8.16,8.16,0,0,0,2.06-1.35,5,5,0,0,0,1.25-1.53h.91Z"/><path d="M552.31,466.18v1.35h-7.57a2.45,2.45,0,0,1,.17-1,5.15,5.15,0,0,1,.92-1.53,14.6,14.6,0,0,1,1.84-1.73,15.38,15.38,0,0,0,2.53-2.43,2.93,2.93,0,0,0,.65-1.69,1.87,1.87,0,0,0-.6-1.41,2.13,2.13,0,0,0-1.55-.57,2.19,2.19,0,0,0-1.63.61,2.28,2.28,0,0,0-.62,1.68l-1.44-.15a3.56,3.56,0,0,1,1.12-2.46,3.77,3.77,0,0,1,2.6-.85,3.63,3.63,0,0,1,2.61.92,3,3,0,0,1,1,2.26,3.55,3.55,0,0,1-.28,1.35,5.12,5.12,0,0,1-.94,1.4,21.69,21.69,0,0,1-2.17,2q-1.26,1.06-1.62,1.44a4.35,4.35,0,0,0-.59.76Z"/><line class="cls-13" x1="186.5" y1="418.53" x2="842.61" y2="418.53"/><path d="M169.72,424.12l4.43-6-3.9-5.48h1.8l2.08,2.94c.43.61.74,1.08.92,1.4.26-.41.56-.85.91-1.3l2.3-3h1.65l-4,5.4,4.34,6.05h-1.88L175.47,420c-.16-.24-.33-.49-.5-.77-.26.42-.44.7-.55.86l-2.88,4Z"/><path d="M844.31,424.12l4.43-6-3.91-5.48h1.81l2.08,2.94c.43.61.74,1.08.92,1.4.25-.41.56-.85.9-1.3l2.31-3h1.65l-4,5.4,4.34,6.05h-1.88L850.05,420c-.16-.24-.33-.49-.5-.77-.25.42-.44.7-.54.86l-2.88,4Z"/><line class="cls-4" x1="828.37" y1="688.72" x2="828.37" y2="430.36"/><polygon class="cls-5" points="832.08 686.08 828.21 700.55 824.33 686.08 832.08 686.08"/><polygon class="cls-5" points="832.08 433 828.21 418.53 824.33 433 832.08 433"/><polyline class="cls-4" points="781.99 665.19 748.93 681.63 682.91 681.63"/><polygon class="cls-5" points="777.96 663.04 792.65 660.07 781.42 669.99 777.96 663.04"/><line class="cls-4" x1="781.33" y1="692.24" x2="748.93" y2="681.63"/><polygon class="cls-5" points="779.98 687.88 792.53 696.07 777.57 695.26 779.98 687.88"/><path d="M683.5,676.61V665.16h5.08a6.66,6.66,0,0,1,2.33.31,2.53,2.53,0,0,1,1.27,1.09,3.21,3.21,0,0,1,.48,1.72,2.87,2.87,0,0,1-.79,2.06,4,4,0,0,1-2.44,1.06,4.22,4.22,0,0,1,.92.57,7.89,7.89,0,0,1,1.25,1.53l2,3.11h-1.91l-1.52-2.38c-.44-.69-.8-1.21-1.09-1.58a3.37,3.37,0,0,0-.77-.76,2.34,2.34,0,0,0-.69-.31,5.29,5.29,0,0,0-.84-.05H685v5.08Zm1.52-6.39h3.26a4.93,4.93,0,0,0,1.62-.22,1.68,1.68,0,0,0,.89-.69,1.89,1.89,0,0,0,.31-1,1.71,1.71,0,0,0-.59-1.33,2.78,2.78,0,0,0-1.87-.52H685Z"/><path d="M694.47,673.59l1.41-.19a3.12,3.12,0,0,0,.82,1.73,2,2,0,0,0,1.42.52,2.32,2.32,0,0,0,1.68-.68,2.35,2.35,0,0,0,.68-1.71,2.14,2.14,0,0,0-2.24-2.22,4.25,4.25,0,0,0-1,.15l.16-1.23h.23a2.85,2.85,0,0,0,1.62-.47,1.61,1.61,0,0,0,.71-1.44,1.7,1.7,0,0,0-.52-1.28,1.86,1.86,0,0,0-1.35-.51,1.94,1.94,0,0,0-1.37.51,2.61,2.61,0,0,0-.7,1.55l-1.41-.25a3.61,3.61,0,0,1,1.17-2.19,3.39,3.39,0,0,1,2.28-.78,3.82,3.82,0,0,1,1.72.4,2.94,2.94,0,0,1,1.21,1.1,2.84,2.84,0,0,1,.42,1.48,2.38,2.38,0,0,1-.4,1.35,1,1,0,1,0,.4,1.94,3,3,0,0,1,.56,1.85,3.36,3.36,0,0,1-1.09,2.54,3.84,3.84,0,0,1-2.77,1.05,3.59,3.59,0,0,1-2.5-.9A3.45,3.45,0,0,1,694.47,673.59Z"/><path d="M812.08,568.79l.11,1.4a2.58,2.58,0,0,0-1.2.53,1.84,1.84,0,0,0-.61,1.41,2,2,0,0,0,.38,1.18,3.14,3.14,0,0,0,1.41,1,7.3,7.3,0,0,0,2.65.4A3.23,3.23,0,0,1,813.3,572a3.16,3.16,0,0,1,1-2.39,3.73,3.73,0,0,1,2.68-1,4.36,4.36,0,0,1,2,.46,3.4,3.4,0,0,1,1.42,1.28,3.47,3.47,0,0,1,.49,1.84,3.6,3.6,0,0,1-1.29,2.87,6.51,6.51,0,0,1-4.26,1.11,7.65,7.65,0,0,1-4.83-1.23,3.53,3.53,0,0,1-1.31-2.88,3.08,3.08,0,0,1,2.85-3.25Zm4.94,5.74a3.2,3.2,0,0,0,1.39-.31,2.26,2.26,0,0,0,1-.86,2.18,2.18,0,0,0,.35-1.16,2,2,0,0,0-.72-1.53,2.81,2.81,0,0,0-1.95-.64,2.67,2.67,0,0,0-1.88.63,2.09,2.09,0,0,0-.68,1.59,2.18,2.18,0,0,0,.68,1.62A2.5,2.5,0,0,0,817,574.53Z"/><path d="M817.73,567.19l-.13-1.48a2.63,2.63,0,0,0,1.62-.76,2,2,0,0,0,.55-1.44,2.25,2.25,0,0,0-.77-1.72,2.88,2.88,0,0,0-2-.7,2.62,2.62,0,0,0-1.9.67,2.37,2.37,0,0,0-.69,1.77,2.52,2.52,0,0,0,.3,1.23,2.48,2.48,0,0,0,.81.86l-.18,1.32-5.88-1.11v-5.7h1.34v4.57l3.08.62a3.73,3.73,0,0,1-.72-2.16,3.42,3.42,0,0,1,1-2.53,3.66,3.66,0,0,1,2.68-1,4.18,4.18,0,0,1,2.68.91,3.63,3.63,0,0,1,1.39,3,3.72,3.72,0,0,1-.87,2.55A3.44,3.44,0,0,1,817.73,567.19Z"/><path d="M820.73,557.5h-1.6v-1.6h1.6Z"/><path d="M815.08,553.84a10.51,10.51,0,0,1-3.27-.41,4.07,4.07,0,0,1-1.91-1.25,3.16,3.16,0,0,1-.67-2.07,3.4,3.4,0,0,1,.37-1.62,3.17,3.17,0,0,1,1.07-1.15,6,6,0,0,1,1.7-.71,11.48,11.48,0,0,1,2.71-.25,10.37,10.37,0,0,1,3.25.41,4.09,4.09,0,0,1,1.92,1.24,3.17,3.17,0,0,1,.67,2.08,3.13,3.13,0,0,1-1.18,2.6C818.78,553.47,817.23,553.84,815.08,553.84Zm0-1.44a7.16,7.16,0,0,0,3.75-.66,1.88,1.88,0,0,0,0-3.26,11,11,0,0,0-7.51,0,2,2,0,0,0-.93,1.65,1.81,1.81,0,0,0,.82,1.54A7.22,7.22,0,0,0,815.08,552.4Z"/><path d="M817.73,545l-.13-1.47a2.64,2.64,0,0,0,1.62-.77,2.05,2.05,0,0,0,.55-1.44,2.27,2.27,0,0,0-.77-1.72,2.93,2.93,0,0,0-2-.7,2.61,2.61,0,0,0-1.9.68,2.37,2.37,0,0,0-.7,1.77,2.46,2.46,0,0,0,1.11,2.08l-.17,1.32-5.88-1.11v-5.69h1.34v4.57l3.08.62a3.74,3.74,0,0,1-.72-2.17,3.44,3.44,0,0,1,1-2.53,3.61,3.61,0,0,1,2.67-1,4.13,4.13,0,0,1,2.69.91,3.6,3.6,0,0,1,1.39,3,3.69,3.69,0,0,1-.87,2.55A3.42,3.42,0,0,1,817.73,545Z"/><path d="M772.86,246.82l-.18,1.39-8.89-1.13a7.87,7.87,0,0,1,.8,1.44,10.29,10.29,0,0,1,.53,1.56l-1.35-.17a8.55,8.55,0,0,0-1.07-2.21,5.43,5.43,0,0,0-1.36-1.44l.11-.9Z"/><path d="M766.78,241.61l-1.59-.2.2-1.59L767,240Zm6.64.85-1.59-.2.2-1.59,1.59.2Z"/><path d="M766.23,230.49l-.07,1.4a2.69,2.69,0,0,0-1.26.37,1.9,1.9,0,0,0-.78,1.32,2,2,0,0,0,.23,1.22,3.12,3.12,0,0,0,1.27,1.22,7.5,7.5,0,0,0,2.57.73A3.24,3.24,0,0,1,767,233.8a3.17,3.17,0,0,1,1.33-2.25,3.71,3.71,0,0,1,2.77-.64,4.3,4.3,0,0,1,1.93.72,3.32,3.32,0,0,1,1.25,1.44,3.43,3.43,0,0,1,.25,1.89,3.58,3.58,0,0,1-1.64,2.68,6.5,6.5,0,0,1-4.37.57c-2.2-.29-3.74-.89-4.63-1.83a3.54,3.54,0,0,1-.94-3,3.25,3.25,0,0,1,1-2.1A3.19,3.19,0,0,1,766.23,230.49Zm4.17,6.32a3.27,3.27,0,0,0,1.42-.13,2.33,2.33,0,0,0,1.11-.73,2.13,2.13,0,0,0,.49-1.11,1.93,1.93,0,0,0-.52-1.61,2.82,2.82,0,0,0-1.85-.88,2.66,2.66,0,0,0-1.94.39,2.09,2.09,0,0,0-.88,1.49,2.18,2.18,0,0,0,.47,1.69A2.47,2.47,0,0,0,770.4,236.81Z"/><polyline class="cls-4" points="526.91 197.31 474.26 206.15 436.71 206.15"/><polygon class="cls-5" points="523.68 194.08 538.6 195.51 524.97 201.73 523.68 194.08"/><line class="cls-4" x1="579.91" y1="183.56" x2="579.91" y2="150.25"/><polygon class="cls-5" points="583.63 180.92 579.75 195.39 575.87 180.92 583.63 180.92"/><polygon class="cls-5" points="583.63 152.9 579.75 138.42 575.87 152.9 583.63 152.9"/><path d="M439,201.8V190.35h5.08a6.6,6.6,0,0,1,2.32.31,2.55,2.55,0,0,1,1.28,1.09,3.33,3.33,0,0,1,.47,1.73,2.86,2.86,0,0,1-.79,2.05,3.93,3.93,0,0,1-2.43,1.06,4.53,4.53,0,0,1,.91.57,8.3,8.3,0,0,1,1.26,1.53l2,3.11h-1.91l-1.51-2.38c-.44-.69-.81-1.21-1.09-1.58a3.58,3.58,0,0,0-.77-.76,2.28,2.28,0,0,0-.7-.31,5.29,5.29,0,0,0-.84-.05h-1.76v5.08Zm1.51-6.39h3.26a5,5,0,0,0,1.63-.22,1.72,1.72,0,0,0,.89-.69,1.84,1.84,0,0,0,.3-1,1.71,1.71,0,0,0-.59-1.34,2.74,2.74,0,0,0-1.86-.52h-3.63Z"/><path d="M455.23,201.8h-1.41v-9a6.84,6.84,0,0,1-1.33,1,10,10,0,0,1-1.48.73v-1.36a8.82,8.82,0,0,0,2.06-1.34,5.35,5.35,0,0,0,1.25-1.54h.91Z"/><path d="M458.81,198.78l1.41-.19a3.19,3.19,0,0,0,.82,1.73,2,2,0,0,0,1.42.52,2.32,2.32,0,0,0,1.68-.68,2.35,2.35,0,0,0,.68-1.71,2.18,2.18,0,0,0-.63-1.6,2.22,2.22,0,0,0-1.61-.62,4.11,4.11,0,0,0-1,.15l.15-1.23H462a2.85,2.85,0,0,0,1.62-.47,1.59,1.59,0,0,0,.72-1.44,1.7,1.7,0,0,0-.53-1.28,1.86,1.86,0,0,0-1.35-.51,1.9,1.9,0,0,0-1.37.52,2.58,2.58,0,0,0-.7,1.54l-1.41-.25a3.66,3.66,0,0,1,1.17-2.19,3.39,3.39,0,0,1,2.28-.78,3.77,3.77,0,0,1,1.73.41,2.89,2.89,0,0,1,1.2,1.09,2.84,2.84,0,0,1,.42,1.48,2.35,2.35,0,0,1-.4,1.35,2.67,2.67,0,0,1-1.18,1,2.66,2.66,0,0,1,1.58,1,3,3,0,0,1,.56,1.85,3.36,3.36,0,0,1-1.09,2.54,3.84,3.84,0,0,1-2.77,1,3.59,3.59,0,0,1-2.5-.9A3.54,3.54,0,0,1,458.81,198.78Z"/><path d="M590.25,150V148.6h9a6.84,6.84,0,0,1-1-1.33,8.71,8.71,0,0,1-.73-1.48h1.36a8.61,8.61,0,0,0,1.34,2.06,5.19,5.19,0,0,0,1.54,1.25V150Z"/><path d="M591.6,161h-1.35v-7.57a2.48,2.48,0,0,1,1,.17,5.15,5.15,0,0,1,1.53.92,15.36,15.36,0,0,1,1.73,1.84,15.38,15.38,0,0,0,2.43,2.53,2.93,2.93,0,0,0,1.69.65,1.9,1.9,0,0,0,1.41-.6,2.13,2.13,0,0,0,.57-1.55,2.19,2.19,0,0,0-.61-1.63,2.3,2.3,0,0,0-1.68-.62l.14-1.44a3.6,3.6,0,0,1,2.47,1.11,3.87,3.87,0,0,1,.85,2.61,3.63,3.63,0,0,1-.92,2.61,3,3,0,0,1-2.26,1,3.64,3.64,0,0,1-1.36-.28,5.24,5.24,0,0,1-1.39-.94,21.64,21.64,0,0,1-2-2.17q-1.06-1.26-1.44-1.62a5,5,0,0,0-.76-.6Z"/><path d="M590.25,163.3h1.6v1.6h-1.6Z"/><path d="M592.89,167.15l.13,1.35a2.3,2.3,0,0,0-1.38.66,1.77,1.77,0,0,0-.43,1.24,2.25,2.25,0,0,0,.29,1.14,2.55,2.55,0,0,0,.8.8,4.51,4.51,0,0,0,1.34.52,7,7,0,0,0,1.72.21h.28a3.17,3.17,0,0,1-1.09-1.15,3.11,3.11,0,0,1-.42-1.58,3.2,3.2,0,0,1,1-2.41,4.29,4.29,0,0,1,5.52.05,3.42,3.42,0,0,1,1.07,2.57,3.59,3.59,0,0,1-.61,2,3.74,3.74,0,0,1-1.71,1.41,8.45,8.45,0,0,1-3.22.48,10.37,10.37,0,0,1-3.5-.48,4.05,4.05,0,0,1-2-1.41,3.71,3.71,0,0,1-.68-2.21,3.21,3.21,0,0,1,.75-2.2A3.14,3.14,0,0,1,592.89,167.15Zm5.06,5.76a2.74,2.74,0,0,0,1.92-.65,2,2,0,0,0,.71-1.55,2.13,2.13,0,0,0-.76-1.63,2.87,2.87,0,0,0-2-.7,2.46,2.46,0,0,0-1.78.66,2.2,2.2,0,0,0-.68,1.63,2.11,2.11,0,0,0,.68,1.61A2.71,2.71,0,0,0,598,172.91Z"/><path d="M598.89,183.13l-.1-1.4a2.58,2.58,0,0,0,1.2-.53,1.86,1.86,0,0,0,.6-1.4,1.94,1.94,0,0,0-.38-1.18,3.16,3.16,0,0,0-1.41-1.05,7.49,7.49,0,0,0-2.65-.4,3.23,3.23,0,0,1,1.15,1.24,3.37,3.37,0,0,1,.38,1.54,3.2,3.2,0,0,1-1,2.4,3.71,3.71,0,0,1-2.68,1,4.42,4.42,0,0,1-2-.47,3.34,3.34,0,0,1-1.42-1.28,3.45,3.45,0,0,1-.49-1.84,3.62,3.62,0,0,1,1.29-2.87,6.56,6.56,0,0,1,4.27-1.11q3.32,0,4.82,1.23a3.51,3.51,0,0,1,1.32,2.88,3.28,3.28,0,0,1-.76,2.22A3.22,3.22,0,0,1,598.89,183.13ZM594,177.39a3.17,3.17,0,0,0-1.39.31,2.28,2.28,0,0,0-1,.86,2.18,2.18,0,0,0-.34,1.17,2,2,0,0,0,.72,1.53,2.84,2.84,0,0,0,2,.64,2.66,2.66,0,0,0,1.87-.63,2.09,2.09,0,0,0,.68-1.6,2.18,2.18,0,0,0-.68-1.62A2.47,2.47,0,0,0,594,177.39Z"/><polyline class="cls-4" points="295.7 139.97 250.78 100.43 196.2 100.43"/><polygon class="cls-5" points="296.17 135.44 304.47 147.91 291.04 141.26 296.17 135.44"/><path d="M197.45,94.25V82.8h5.08a6.66,6.66,0,0,1,2.33.31,2.49,2.49,0,0,1,1.27,1.09,3.21,3.21,0,0,1,.48,1.72,2.87,2.87,0,0,1-.79,2.06A4,4,0,0,1,203.38,89a3.87,3.87,0,0,1,.92.57,8.56,8.56,0,0,1,1.26,1.52l2,3.12h-1.91l-1.51-2.38c-.45-.69-.81-1.22-1.1-1.58a3.46,3.46,0,0,0-.77-.77,2.33,2.33,0,0,0-.69-.3,4.3,4.3,0,0,0-.84,0H199v5.08Zm1.52-6.4h3.26a5,5,0,0,0,1.62-.21,1.73,1.73,0,0,0,.89-.69,1.81,1.81,0,0,0,.31-1,1.71,1.71,0,0,0-.59-1.33,2.78,2.78,0,0,0-1.87-.53H199Z"/><path d="M208.41,91.25l1.48-.12a2.63,2.63,0,0,0,.76,1.62,2.09,2.09,0,0,0,1.45.54,2.22,2.22,0,0,0,1.71-.76,2.91,2.91,0,0,0,.71-2,2.63,2.63,0,0,0-.68-1.9,2.37,2.37,0,0,0-1.77-.69,2.44,2.44,0,0,0-1.23.31,2.26,2.26,0,0,0-.85.8l-1.33-.17L209.77,83h5.7V84.3H210.9l-.62,3.08a3.74,3.74,0,0,1,2.17-.72,3.4,3.4,0,0,1,2.53,1,3.61,3.61,0,0,1,1,2.67,4.17,4.17,0,0,1-.91,2.69,3.63,3.63,0,0,1-3,1.39,3.69,3.69,0,0,1-2.56-.88A3.46,3.46,0,0,1,208.41,91.25Z"/><line class="cls-4" x1="486.09" y1="94.25" x2="526.22" y2="94.25"/><polygon class="cls-5" points="488.73 97.97 474.26 94.09 488.73 90.21 488.73 97.97"/><polygon class="cls-5" points="523.58 97.97 538.05 94.09 523.58 90.21 523.58 97.97"/><path d="M491.21,87.42h-1.4v-9a6.94,6.94,0,0,1-1.34,1,8.71,8.71,0,0,1-1.48.73V78.8a8.68,8.68,0,0,0,2.07-1.34,5.53,5.53,0,0,0,1.25-1.54h.9Z"/><path d="M494.81,84.42l1.48-.12a2.63,2.63,0,0,0,.76,1.62,2.08,2.08,0,0,0,1.44.54,2.24,2.24,0,0,0,1.72-.76,2.89,2.89,0,0,0,.71-2,2.6,2.6,0,0,0-.68-1.9,2.34,2.34,0,0,0-1.77-.7,2.55,2.55,0,0,0-1.23.31,2.45,2.45,0,0,0-.86.8L495.06,82l1.11-5.88h5.7v1.34H497.3l-.62,3.08a3.74,3.74,0,0,1,2.17-.72,3.44,3.44,0,0,1,2.53,1,3.65,3.65,0,0,1,1,2.67,4.15,4.15,0,0,1-.91,2.69,3.62,3.62,0,0,1-3,1.39,3.68,3.68,0,0,1-2.55-.88A3.42,3.42,0,0,1,494.81,84.42Z"/><path d="M504.5,87.42v-1.6h1.6v1.6Z"/><path d="M508.16,81.78a10.39,10.39,0,0,1,.42-3.27,4,4,0,0,1,1.24-1.91,3.16,3.16,0,0,1,2.07-.68,3.34,3.34,0,0,1,1.62.38,3,3,0,0,1,1.15,1.07,5.65,5.65,0,0,1,.71,1.7,11.4,11.4,0,0,1,.26,2.71,10.38,10.38,0,0,1-.42,3.25A4,4,0,0,1,514,86.94a3.2,3.2,0,0,1-2.09.68,3.15,3.15,0,0,1-2.6-1.19A7.56,7.56,0,0,1,508.16,81.78Zm1.44,0a7.16,7.16,0,0,0,.66,3.75,1.89,1.89,0,0,0,3.26,0,7.21,7.21,0,0,0,.66-3.75,7.18,7.18,0,0,0-.66-3.76,2,2,0,0,0-1.64-.93,1.8,1.8,0,0,0-1.55.82A7.32,7.32,0,0,0,509.6,81.78Z"/><path d="M519.22,81.21a2.66,2.66,0,0,1-1.3-.91,2.41,2.41,0,0,1-.42-1.42,2.75,2.75,0,0,1,.9-2.1,3.76,3.76,0,0,1,4.81,0,2.8,2.8,0,0,1,.91,2.12,2.3,2.3,0,0,1-.42,1.38,2.57,2.57,0,0,1-1.27.91A3.08,3.08,0,0,1,524,82.32a3,3,0,0,1,.55,1.83,3.31,3.31,0,0,1-1,2.47,4.24,4.24,0,0,1-5.47,0,3.36,3.36,0,0,1-1-2.51,3,3,0,0,1,.57-1.87A2.89,2.89,0,0,1,519.22,81.21Zm-.73,2.91a2.51,2.51,0,0,0,.28,1.16,2,2,0,0,0,.85.87,2.45,2.45,0,0,0,1.21.31,2.29,2.29,0,0,0,1.67-.64,2.27,2.27,0,0,0,.65-1.65,2.25,2.25,0,0,0-.67-1.68,2.31,2.31,0,0,0-1.7-.67,2.2,2.2,0,0,0-1.64.66A2.25,2.25,0,0,0,518.49,84.12Zm.45-5.29a1.83,1.83,0,0,0,.52,1.33,1.88,1.88,0,0,0,1.36.51,1.83,1.83,0,0,0,1.34-.51,1.71,1.71,0,0,0,.52-1.25,1.74,1.74,0,0,0-.54-1.3,2,2,0,0,0-2.67,0A1.66,1.66,0,0,0,518.94,78.83Z"/><line class="cls-4" x1="310.31" y1="23.79" x2="772.27" y2="23.79"/><polygon class="cls-5" points="312.96 27.5 298.48 23.63 312.96 19.75 312.96 27.5"/><polygon class="cls-5" points="769.63 27.5 784.1 23.63 769.63 19.75 769.63 27.5"/><line class="cls-4" x1="310.31" y1="57.92" x2="527.38" y2="57.92"/><polygon class="cls-5" points="312.96 61.64 298.48 57.76 312.96 53.88 312.96 61.64"/><polygon class="cls-5" points="524.73 61.64 539.21 57.76 524.73 53.88 524.73 61.64"/><line class="cls-4" x1="551.03" y1="57.92" x2="709.53" y2="57.92"/><polygon class="cls-5" points="553.68 61.63 539.21 57.76 553.68 53.88 553.68 61.63"/><polygon class="cls-5" points="706.89 61.63 721.36 57.76 706.89 53.88 706.89 61.63"/><path d="M509.09,16.06h-1.4v-9a7.38,7.38,0,0,1-1.34,1,8.36,8.36,0,0,1-1.48.73V7.43a8.68,8.68,0,0,0,2.07-1.34,5.46,5.46,0,0,0,1.25-1.53h.9Z"/><path d="M518,16.06h-1.4v-9a7.38,7.38,0,0,1-1.34,1,8.71,8.71,0,0,1-1.48.73V7.43a8.68,8.68,0,0,0,2.07-1.34,5.65,5.65,0,0,0,1.25-1.53h.9Z"/><path d="M520.41,13l1.41-.18a3.15,3.15,0,0,0,.82,1.72,2,2,0,0,0,1.42.53,2.29,2.29,0,0,0,1.68-.69,2.35,2.35,0,0,0,.68-1.7,2.16,2.16,0,0,0-.63-1.6,2.19,2.19,0,0,0-1.61-.63,4.11,4.11,0,0,0-1,.15l.15-1.23.23,0A2.93,2.93,0,0,0,525.19,9a1.62,1.62,0,0,0,.72-1.45,1.72,1.72,0,0,0-.53-1.28A1.86,1.86,0,0,0,524,5.71a1.9,1.9,0,0,0-1.37.52,2.58,2.58,0,0,0-.7,1.55l-1.41-.25a3.67,3.67,0,0,1,1.18-2.2A3.41,3.41,0,0,1,524,4.56a3.76,3.76,0,0,1,1.73.4,2.91,2.91,0,0,1,1.2,1.1,2.78,2.78,0,0,1,.42,1.47,2.35,2.35,0,0,1-.4,1.35,2.67,2.67,0,0,1-1.18,1,2.63,2.63,0,0,1,1.58,1,2.9,2.9,0,0,1,.56,1.84,3.4,3.4,0,0,1-1.09,2.55,3.87,3.87,0,0,1-2.77,1,3.59,3.59,0,0,1-2.5-.9A3.51,3.51,0,0,1,520.41,13Z"/><g class="cls-6"><path d="M536.82,19.42a13.57,13.57,0,0,1-2-3.43,10.76,10.76,0,0,1-.21-7.64,15,15,0,0,1,2.18-3.94h1c-.63,1.08-1,1.86-1.25,2.32A14.14,14.14,0,0,0,535.82,9a13.25,13.25,0,0,0-.33,2.94,14.14,14.14,0,0,0,2.33,7.5Z"/></g><path d="M543.57,16.06V13.32h-5V12l5.23-7.43H545V12h1.54v1.29H545v2.74Zm0-4V6.86L540,12Z"/><path d="M548.75,16.06v-1.6h1.6v1.6Z"/><path d="M556.92,16.06V13.32h-5V12l5.22-7.43h1.15V12h1.55v1.29h-1.55v2.74Zm0-4V6.86L553.33,12Z"/><path d="M565.81,16.06V13.32h-5V12l5.22-7.43h1.15V12h1.55v1.29h-1.55v2.74Zm0-4V6.86L562.23,12Z"/><path d="M570.42,13.41l1.35-.13a2.35,2.35,0,0,0,.65,1.39,1.86,1.86,0,0,0,1.25.43,2.1,2.1,0,0,0,1.13-.3,2.33,2.33,0,0,0,.8-.79,4.61,4.61,0,0,0,.53-1.34,7.17,7.17,0,0,0,.21-1.72c0-.07,0-.16,0-.28a3.22,3.22,0,0,1-2.73,1.5,3.2,3.2,0,0,1-2.41-1,3.74,3.74,0,0,1-1-2.72,3.87,3.87,0,0,1,1-2.8,3.45,3.45,0,0,1,2.58-1.06,3.69,3.69,0,0,1,2,.6,3.74,3.74,0,0,1,1.41,1.71,8.51,8.51,0,0,1,.48,3.23,10.31,10.31,0,0,1-.48,3.49,4.07,4.07,0,0,1-1.42,2,3.62,3.62,0,0,1-2.2.68,3.25,3.25,0,0,1-2.2-.74A3.19,3.19,0,0,1,570.42,13.41Zm5.75-5.06a2.77,2.77,0,0,0-.64-1.92A2,2,0,0,0,574,5.72a2.13,2.13,0,0,0-1.63.77,2.8,2.8,0,0,0-.7,2,2.46,2.46,0,0,0,.66,1.78,2.19,2.19,0,0,0,1.63.68,2.11,2.11,0,0,0,1.61-.68A2.75,2.75,0,0,0,576.17,8.35Z"/><path d="M579.53,8.66l-.39-2.18V4.6h1.6V6.48l-.35,2.18Zm2.58,0-.38-2.18V4.6h1.6V6.48L583,8.66Z"/><g class="cls-6"><path d="M586.06,19.42h-1a14.07,14.07,0,0,0,2.34-7.5A12.59,12.59,0,0,0,587.05,9a11.63,11.63,0,0,0-.74-2.25,24.07,24.07,0,0,0-1.26-2.34h1a15,15,0,0,1,2.17,3.94,10.6,10.6,0,0,1,.6,3.56A10.82,10.82,0,0,1,588,16,14.19,14.19,0,0,1,586.06,19.42Z"/></g><path d="M611.12,50.09V47.34h-5V46.06l5.22-7.43h1.15v7.43h1.55v1.28h-1.55v2.75Zm0-4V40.89l-3.58,5.17Z"/><path d="M622.91,48.74v1.35h-7.57a2.49,2.49,0,0,1,.16-1,5,5,0,0,1,.93-1.52,13.93,13.93,0,0,1,1.84-1.74,16.14,16.14,0,0,0,2.52-2.42,2.91,2.91,0,0,0,.66-1.7,1.9,1.9,0,0,0-.6-1.41,2.17,2.17,0,0,0-1.56-.57,2.19,2.19,0,0,0-1.63.61,2.32,2.32,0,0,0-.61,1.69l-1.45-.15a3.57,3.57,0,0,1,1.12-2.47,3.82,3.82,0,0,1,2.6-.84,3.62,3.62,0,0,1,2.61.91,3,3,0,0,1,1,2.27,3.4,3.4,0,0,1-.28,1.35,5.47,5.47,0,0,1-.93,1.4,23,23,0,0,1-2.17,2c-.85.71-1.39,1.19-1.63,1.44a4.94,4.94,0,0,0-.59.77Z"/><path d="M625.2,50.09v-1.6h1.61v1.6Z"/><path d="M628.86,47.09l1.48-.13a2.63,2.63,0,0,0,.76,1.62,2.09,2.09,0,0,0,1.44.55,2.25,2.25,0,0,0,1.72-.77,2.88,2.88,0,0,0,.7-2,2.61,2.61,0,0,0-.67-1.9,2.37,2.37,0,0,0-1.77-.7,2.5,2.5,0,0,0-1.23.31,2.55,2.55,0,0,0-.86.8l-1.32-.17,1.11-5.88h5.7v1.34h-4.58l-.61,3.08a3.71,3.71,0,0,1,2.16-.72,3.42,3.42,0,0,1,2.53,1,3.61,3.61,0,0,1,1,2.67,4.18,4.18,0,0,1-.9,2.69,3.63,3.63,0,0,1-3,1.39,3.72,3.72,0,0,1-2.55-.87A3.42,3.42,0,0,1,628.86,47.09Z"/><path d="M645.15,48.74v1.35h-7.57a2.49,2.49,0,0,1,.16-1,5.37,5.37,0,0,1,.93-1.52,14.59,14.59,0,0,1,1.84-1.74A15.69,15.69,0,0,0,643,43.43a2.91,2.91,0,0,0,.66-1.7,1.9,1.9,0,0,0-.6-1.41,2.44,2.44,0,0,0-3.18,0,2.32,2.32,0,0,0-.62,1.69l-1.44-.15A3.56,3.56,0,0,1,639,39.43a3.85,3.85,0,0,1,2.6-.84,3.62,3.62,0,0,1,2.61.91,3,3,0,0,1,1,2.27,3.4,3.4,0,0,1-.28,1.35,5.22,5.22,0,0,1-.93,1.4,23,23,0,0,1-2.17,2q-1.26,1.06-1.62,1.44a5,5,0,0,0-.6.77Z"/><path d="M404,47.56l1.47-.12a2.64,2.64,0,0,0,.77,1.62,2,2,0,0,0,1.44.54,2.26,2.26,0,0,0,1.72-.76,2.93,2.93,0,0,0,.7-2,2.6,2.6,0,0,0-.68-1.9,2.34,2.34,0,0,0-1.77-.7,2.48,2.48,0,0,0-1.22.31,2.37,2.37,0,0,0-.86.8l-1.32-.17,1.11-5.88h5.69v1.34h-4.57l-.62,3.08A3.74,3.74,0,0,1,408,43a3.44,3.44,0,0,1,2.53,1,3.61,3.61,0,0,1,1,2.67,4.15,4.15,0,0,1-.91,2.69,3.6,3.6,0,0,1-3,1.39,3.68,3.68,0,0,1-2.55-.88A3.37,3.37,0,0,1,404,47.56Z"/><path d="M412.9,47.56l1.47-.12a2.68,2.68,0,0,0,.76,1.62,2.09,2.09,0,0,0,1.45.54,2.22,2.22,0,0,0,1.71-.76,2.89,2.89,0,0,0,.71-2,2.6,2.6,0,0,0-.68-1.9,2.34,2.34,0,0,0-1.77-.7,2.48,2.48,0,0,0-1.22.31,2.29,2.29,0,0,0-.86.8l-1.32-.17,1.11-5.88H420v1.34h-4.57l-.62,3.08a3.74,3.74,0,0,1,2.17-.72,3.44,3.44,0,0,1,2.53,1,3.61,3.61,0,0,1,1,2.67,4.15,4.15,0,0,1-.91,2.69,3.6,3.6,0,0,1-3,1.39,3.69,3.69,0,0,1-2.56-.88A3.41,3.41,0,0,1,412.9,47.56Z"/><path d="M422.58,50.56V49h1.61v1.6Z"/><path d="M428.4,44.35a2.64,2.64,0,0,1-1.29-.91,2.41,2.41,0,0,1-.42-1.42,2.78,2.78,0,0,1,.89-2.1,3.78,3.78,0,0,1,4.81,0,2.84,2.84,0,0,1,.91,2.13,2.37,2.37,0,0,1-.41,1.38,2.61,2.61,0,0,1-1.27.91,3.1,3.1,0,0,1,1.6,1.11,3,3,0,0,1,.55,1.83,3.27,3.27,0,0,1-1,2.47,3.75,3.75,0,0,1-2.73,1,3.79,3.79,0,0,1-2.74-1,3.36,3.36,0,0,1-1-2.51,3,3,0,0,1,.56-1.87A2.92,2.92,0,0,1,428.4,44.35Zm-.73,2.91a2.52,2.52,0,0,0,.29,1.16,2,2,0,0,0,.84.87,2.45,2.45,0,0,0,1.21.31,2.25,2.25,0,0,0,1.67-.65,2.19,2.19,0,0,0,.65-1.64,2.25,2.25,0,0,0-.67-1.68A2.3,2.3,0,0,0,430,45a2.24,2.24,0,0,0-2.3,2.3Zm.45-5.29a1.8,1.8,0,0,0,.53,1.33,1.86,1.86,0,0,0,1.36.51,1.83,1.83,0,0,0,1.33-.51,1.71,1.71,0,0,0,.52-1.25,1.74,1.74,0,0,0-.54-1.3,2,2,0,0,0-2.67,0A1.66,1.66,0,0,0,428.12,42Z"/><path d="M435.13,47.54l1.4-.19a3.12,3.12,0,0,0,.83,1.73,2,2,0,0,0,1.41.52,2.32,2.32,0,0,0,2.36-2.39,2.18,2.18,0,0,0-.63-1.6,2.22,2.22,0,0,0-1.61-.62,4.18,4.18,0,0,0-1,.15l.16-1.23h.22a2.85,2.85,0,0,0,1.62-.47,1.59,1.59,0,0,0,.72-1.44,1.7,1.7,0,0,0-.53-1.28,1.84,1.84,0,0,0-1.35-.51,1.88,1.88,0,0,0-1.36.52,2.56,2.56,0,0,0-.71,1.54l-1.4-.25a3.61,3.61,0,0,1,1.17-2.19,3.38,3.38,0,0,1,2.27-.78,3.74,3.74,0,0,1,1.73.41A2.83,2.83,0,0,1,442.06,42a2.35,2.35,0,0,1-.4,1.35,2.64,2.64,0,0,1-1.17,1,2.67,2.67,0,0,1,1.57,1,3,3,0,0,1,.57,1.85,3.37,3.37,0,0,1-1.1,2.54,3.83,3.83,0,0,1-2.76,1.05,3.61,3.61,0,0,1-2.51-.9A3.48,3.48,0,0,1,435.13,47.54Z"/><path d="M543.48,256.42l.19,1.4L534.79,259a7.28,7.28,0,0,1,1.13,1.19,9.11,9.11,0,0,1,.92,1.37l-1.35.18a8.62,8.62,0,0,0-1.6-1.87,5.33,5.33,0,0,0-1.69-1l-.12-.9Z"/><path d="M536.25,253l-1.59.22-.21-1.59,1.58-.22Zm6.63-.89-1.58.22-.22-1.59,1.59-.21Z"/><path d="M532.86,242.37l.29,1.37a2.6,2.6,0,0,0-1.12.69,1.81,1.81,0,0,0-.41,1.47,1.9,1.9,0,0,0,.53,1.12,3.2,3.2,0,0,0,1.54.85,7.41,7.41,0,0,0,2.67,0,3.25,3.25,0,0,1-1.87-2.55,3.18,3.18,0,0,1,.7-2.51,3.73,3.73,0,0,1,2.52-1.34,4.41,4.41,0,0,1,2,.2,3.35,3.35,0,0,1,1.58,1.07,3.8,3.8,0,0,1-.17,4.78,6.52,6.52,0,0,1-4.08,1.66q-3.29.45-5-.57a3.53,3.53,0,0,1-1.68-2.68,3.07,3.07,0,0,1,2.4-3.6Zm5.65,5a3.11,3.11,0,0,0,1.34-.49,2.28,2.28,0,0,0,.89-1,2.18,2.18,0,0,0,.19-1.2,2,2,0,0,0-.92-1.42,2.81,2.81,0,0,0-2-.37,2.63,2.63,0,0,0-1.77.87,2.09,2.09,0,0,0-.47,1.67,2.2,2.2,0,0,0,.9,1.51A2.44,2.44,0,0,0,538.51,247.4Z"/><path d="M868.73,246.07H866v5H864.7l-7.42-5.23v-1.14h7.42v-1.55H866v1.55h2.74Zm-4,0h-5.16l5.16,3.59Z"/><path d="M858.78,241.59h-1.35v-7.42h1.09a15.41,15.41,0,0,0,3.1,2.17,18.47,18.47,0,0,0,4,1.66,14.78,14.78,0,0,0,3.14.54V240a14.66,14.66,0,0,1-3.26-.53,17.19,17.19,0,0,1-3.69-1.46,16.13,16.13,0,0,1-3-2Z"/><path d="M823.7,202.34l.11,1.4a2.63,2.63,0,0,0-1.21.53,1.87,1.87,0,0,0-.6,1.41,2,2,0,0,0,.38,1.18,3.14,3.14,0,0,0,1.41,1,7.26,7.26,0,0,0,2.65.4,3.23,3.23,0,0,1-1.15-1.24,3.33,3.33,0,0,1-.37-1.54,3.19,3.19,0,0,1,1-2.4,3.75,3.75,0,0,1,2.68-1,4.36,4.36,0,0,1,2,.46,3.4,3.4,0,0,1,1.42,1.28,3.45,3.45,0,0,1,.49,1.84,3.62,3.62,0,0,1-1.29,2.87A6.51,6.51,0,0,1,827,209.7q-3.33,0-4.83-1.23a3.5,3.5,0,0,1-1.31-2.88,3.28,3.28,0,0,1,.75-2.22A3.25,3.25,0,0,1,823.7,202.34Zm4.94,5.74a3.24,3.24,0,0,0,1.39-.31,2.26,2.26,0,0,0,1-.86,2.18,2.18,0,0,0,.35-1.16,2,2,0,0,0-.72-1.54,2.87,2.87,0,0,0-2-.64,2.62,2.62,0,0,0-1.87.64,2.09,2.09,0,0,0-.68,1.59,2.18,2.18,0,0,0,.68,1.62A2.5,2.5,0,0,0,828.64,208.08Z"/><path d="M896.84,291.88l.11,1.4a2.69,2.69,0,0,0-1.2.53,1.84,1.84,0,0,0-.61,1.41,1.94,1.94,0,0,0,.38,1.18,3.23,3.23,0,0,0,1.41,1.05,7.56,7.56,0,0,0,2.65.39,3.24,3.24,0,0,1-1.15-1.24,3.33,3.33,0,0,1-.37-1.54,3.19,3.19,0,0,1,1-2.39,3.73,3.73,0,0,1,2.68-1,4.49,4.49,0,0,1,2,.46,3.4,3.4,0,0,1,1.42,1.28,3.48,3.48,0,0,1,.49,1.85,3.6,3.6,0,0,1-1.29,2.86,6.51,6.51,0,0,1-4.26,1.11A7.71,7.71,0,0,1,895.3,298a3.56,3.56,0,0,1-1.31-2.89,3.08,3.08,0,0,1,2.85-3.25Zm4.94,5.75a3.35,3.35,0,0,0,1.39-.31,2.34,2.34,0,0,0,1-.87,2.15,2.15,0,0,0,.35-1.16,2,2,0,0,0-.72-1.53,2.81,2.81,0,0,0-1.95-.64,2.67,2.67,0,0,0-1.88.63,2.09,2.09,0,0,0-.68,1.59A2.18,2.18,0,0,0,900,297,2.5,2.5,0,0,0,901.78,297.63Z"/><path d="M902.84,290.07l-.12-1.35a2.36,2.36,0,0,0,1.38-.66,1.81,1.81,0,0,0,.43-1.24,2.16,2.16,0,0,0-.3-1.14,2.51,2.51,0,0,0-.79-.8,4.62,4.62,0,0,0-1.34-.52,7.1,7.1,0,0,0-1.72-.21h-.28a3.17,3.17,0,0,1,1.09,1.15,3.11,3.11,0,0,1,.42,1.58,3.21,3.21,0,0,1-1,2.41,3.77,3.77,0,0,1-2.71,1,3.85,3.85,0,0,1-2.81-1,3.41,3.41,0,0,1-1.06-2.57,3.64,3.64,0,0,1,.6-2,3.74,3.74,0,0,1,1.71-1.41,8.51,8.51,0,0,1,3.23-.48,10.31,10.31,0,0,1,3.49.48,4.05,4.05,0,0,1,2,1.41,3.65,3.65,0,0,1,.68,2.21,3.2,3.2,0,0,1-.74,2.2A3.24,3.24,0,0,1,902.84,290.07Zm-5.05-5.76a2.78,2.78,0,0,0-1.93.65,2,2,0,0,0-.71,1.55,2.14,2.14,0,0,0,.77,1.63,2.85,2.85,0,0,0,2,.7,2.46,2.46,0,0,0,1.78-.66,2.17,2.17,0,0,0,.68-1.63,2.08,2.08,0,0,0-.68-1.61A2.7,2.7,0,0,0,897.79,284.31Z"/><path d="M905.49,280.59h-1.6V279h1.6Z"/><path d="M899.84,276.94a10.47,10.47,0,0,1-3.27-.42,4.06,4.06,0,0,1-1.91-1.24,3.17,3.17,0,0,1-.67-2.08,3.4,3.4,0,0,1,.37-1.62,3.07,3.07,0,0,1,1.07-1.14,5.51,5.51,0,0,1,1.7-.71,10.9,10.9,0,0,1,2.71-.26,10.68,10.68,0,0,1,3.25.41,4.09,4.09,0,0,1,1.92,1.24,3.17,3.17,0,0,1,.67,2.08,3.13,3.13,0,0,1-1.18,2.6A7.54,7.54,0,0,1,899.84,276.94Zm0-1.45a7.16,7.16,0,0,0,3.75-.66,1.88,1.88,0,0,0,0-3.26,11,11,0,0,0-7.51,0,2,2,0,0,0-.93,1.65,1.81,1.81,0,0,0,.82,1.54A7.22,7.22,0,0,0,899.84,275.49Z"/><path d="M902.49,268.05l-.13-1.47a2.68,2.68,0,0,0,1.62-.76,2,2,0,0,0,.55-1.45,2.27,2.27,0,0,0-.77-1.72,2.93,2.93,0,0,0-2-.7,2.63,2.63,0,0,0-1.9.68,2.59,2.59,0,0,0-.38,3,2.29,2.29,0,0,0,.8.86l-.18,1.32-5.88-1.11V261h1.35v4.57l3.07.62a3.74,3.74,0,0,1-.72-2.17,3.44,3.44,0,0,1,1-2.53,3.65,3.65,0,0,1,2.68-1,4.12,4.12,0,0,1,2.68.91,3.6,3.6,0,0,1,1.39,3,3.69,3.69,0,0,1-.87,2.55A3.4,3.4,0,0,1,902.49,268.05Z"/></g><g id="Watermark"><rect class="cls-14" x="442.33" y="646.31" width="62.89" height="30.62"/><rect class="cls-14" x="505.22" y="646.31" width="47.39" height="30.62"/><path class="cls-15" d="M464,652.41l-2.79,18.92h-2.74l-1.55-11-1.53,11H452.6l-2.79-18.92h2.5l1.79,14.18,1.79-14.18h2l1.79,14.18,1.79-14.18Z"/><path class="cls-15" d="M465.4,671.33V652.41h2.53v18.92Z"/><path class="cls-15" d="M470.3,652.41h5q2.89,0,2.9,3.24v4.67c0,1.65-.5,2.69-1.51,3.13l1.77,7.88H476l-1.66-7.64h-1.53v7.64H470.3Zm2.53,9.12h1.66c.76,0,1.14-.46,1.14-1.37v-4.09c0-.91-.38-1.37-1.14-1.37h-1.66Z"/><path class="cls-15" d="M484.29,654.7v16.63h-2.52V654.7h-2.43v-2.29h7.38v2.29Z"/><path class="cls-15" d="M493.81,671.33v-8.59H490.7v8.59h-2.53V652.41h2.53v8h3.11v-8h2.53v18.92Z"/><path class="cls-15" d="M513.78,652.41h5q2.89,0,2.89,3.24v4.67c0,1.65-.5,2.69-1.5,3.13l1.77,7.88h-2.4l-1.66-7.64h-1.53v7.64h-2.53Zm2.53,9.12H518c.76,0,1.13-.46,1.13-1.37v-4.09c0-.91-.37-1.37-1.13-1.37h-1.66Z"/><path class="cls-15" d="M526.14,671.33h-2.53V655.65q0-3.24,3-3.24h1.9q3,0,3,3.24v15.68H529V664.4h-2.9Zm2.9-9.22v-6.3a1,1,0,0,0-1.11-1.11h-.68a1,1,0,0,0-1.11,1.11v6.3Z"/><path class="cls-15" d="M533.81,671.33V652.41h2.53v18.92Z"/><path class="cls-15" d="M544.71,671.33h-6V652.41h2.53V669h3.47Z"/></g></svg>