<svg xmlns="http://www.w3.org/2000/svg" xmlns:xlink="http://www.w3.org/1999/xlink" viewBox="0 0 1000 800"><defs><style>.cls-1,.cls-11,.cls-12,.cls-13,.cls-3,.cls-5,.cls-7,.cls-8,.cls-9{fill:none;}.cls-14,.cls-2{fill:#f0f0f0;}.cls-11,.cls-12,.cls-13,.cls-3,.cls-5,.cls-7,.cls-8,.cls-9{stroke:#221e1f;}.cls-11,.cls-12,.cls-13,.cls-3,.cls-7,.cls-8,.cls-9{stroke-width:1.1px;}.cls-4{fill:#221e1f;}.cls-5{stroke-width:0.95px;}.cls-6{clip-path:url(#clip-path);}.cls-7{stroke-dasharray:23.49 7.33;}.cls-14,.cls-8{stroke-miterlimit:10;}.cls-9{stroke-dasharray:21.63 5.47;}.cls-10{fill:#303030;}.cls-11{stroke-miterlimit:1;}.cls-12{stroke-dasharray:23.24 7.07;}.cls-13{stroke-dasharray:23.22 7.05;}.cls-14{stroke:#ccc;}.cls-15{fill:#ccc;}</style><clipPath id="clip-path"><rect class="cls-1" x="58.06" y="5.72" width="874.93" height="785.9"/></clipPath></defs><g id="Flat"><path class="cls-2" d="M468.06,699.07s-302.15.32-312.93.32c-4,0-10.87-7.19-10.87-12.21V668.42c0-4.66,5-11.16,8.71-11.64,0,0,235.31-23.5,252.22-25.71s37-16,37.11-47c.41-170.53-1.28-243.5-1.28-243.5-2.84-31.58-34.42-37.38-51.95-40.46S371.9,297,338.74,289.42c-26-5.94-46.42-34.34-46.54-59.09l.12-69.75c0-9.29,8.67-19.28,16-20.09,47.45-5.25,142.34-1.26,162.16,3,24.1,5.14,34.15,7.87,47.89,20.54,13.09,12.07,15.36,34.37,20.65,63.83,5.43,30.28,5.13,40.1,10.93,65.65,6.32,27.79,27,47.48,62.21,47.05,25.79-.31,55.58-13.26,61.58-50.53,3-18.59,17.53-103.81,18.68-112.33s4-14.35,12.73-14.35,46.42.57,53.85.36,20.87,6.69,20.53,18.95-12.06,81.11-15.87,105.22-25.35,55-38.76,69.1c-16,16.84-43.1,34.33-68.06,41.19s-115.77,22.23-129,26.39-34.42,9.48-33.95,54.18c.18,16.84-.5,96.39.17,105.32s1.17,41.6,34.79,46.45c37,5.32,231.76,23.14,251.21,26.44,6.12,1,10.88,5,11.08,12.27.16,6,.33,12,.33,16.57,0,5.83-2.64,12.06-9.26,13.3-10.33,1.95-314.17,0-314.17,0"/><path class="cls-3" d="M691.14,56.88V183.37M532.37,55.84V183.37M304,30.66H768.09m-300,668.41s-302.15.32-312.93.32c-4,0-10.87-7.19-10.87-12.21V668.42c0-4.66,5-11.16,8.71-11.64,0,0,235.31-23.5,252.22-25.71s37-16,37.11-47c.41-170.53-1.28-243.5-1.28-243.5-2.84-31.58-34.42-37.38-51.95-40.46S371.9,297,338.74,289.42c-26-5.94-46.42-34.34-46.54-59.09l.12-69.75c0-9.29,8.67-19.28,16-20.09,47.45-5.25,142.34-1.26,162.16,3,24.1,5.14,34.15,7.87,47.89,20.54,13.09,12.07,15.36,34.37,20.65,63.83,5.43,30.28,5.13,40.1,10.93,65.65,6.32,27.79,27,47.48,62.21,47.05,25.79-.31,55.58-13.26,61.58-50.53,3-18.59,17.53-103.81,18.68-112.33s4-14.35,12.73-14.35,46.42.57,53.85.36,20.87,6.69,20.53,18.95-12.06,81.11-15.87,105.22-25.35,55-38.76,69.1c-16,16.84-43.1,34.33-68.06,41.19s-115.77,22.23-129,26.39-34.42,9.48-33.95,54.18c.18,16.84-.5,96.39.17,105.32s1.17,41.6,34.79,46.45c37,5.32,231.76,23.14,251.21,26.44,6.12,1,10.88,5,11.08,12.27.16,6,.33,12,.33,16.57,0,5.83-2.64,12.06-9.26,13.3C771.9,701,468.06,699.07,468.06,699.07Z"/><polygon class="cls-4" points="306.61 34.33 292.32 30.5 306.61 26.67 306.61 34.33"/><polygon class="cls-4" points="765.48 34.33 779.77 30.5 765.48 26.67 765.48 34.33"/><line class="cls-3" x1="304" y1="64.35" x2="520.78" y2="64.35"/><polygon class="cls-4" points="306.61 68.02 292.32 64.19 306.61 60.37 306.61 68.02"/><polygon class="cls-4" points="518.17 68.02 532.46 64.19 518.17 60.37 518.17 68.02"/><line class="cls-3" x1="544.14" y1="64.35" x2="679.46" y2="64.35"/><polygon class="cls-4" points="546.75 68.02 532.46 64.19 546.75 60.36 546.75 68.02"/><polygon class="cls-4" points="676.85 68.02 691.14 64.19 676.85 60.36 676.85 68.02"/><line class="cls-3" x1="480.81" y1="95.54" x2="520.43" y2="95.54"/><polygon class="cls-4" points="483.42 99.21 469.13 95.38 483.42 91.55 483.42 99.21"/><polygon class="cls-4" points="517.82 99.21 532.11 95.38 517.82 91.55 517.82 99.21"/><polyline class="cls-3" points="780.68 160.66 816.47 101.22 870.36 101.22"/><polygon class="cls-4" points="785.17 160.32 774.52 170.58 778.61 156.37 785.17 160.32"/><polyline class="cls-3" points="288.81 140.52 244.46 101.48 190.57 101.48"/><polygon class="cls-4" points="289.27 136.04 297.47 148.35 284.21 141.79 289.27 136.04"/><polyline class="cls-3" points="695.57 153.44 674.89 101.22 630.99 101.22"/><polygon class="cls-4" points="698.02 149.66 699.73 164.35 690.9 152.48 698.02 149.66"/><polyline class="cls-3" points="421.4 609.42 410.19 598.55 341.95 598.55"/><polygon class="cls-4" points="422.08 604.97 429.68 617.66 416.75 610.47 422.08 604.97"/><polyline class="cls-3" points="736.61 360.19 779.59 400.78 834.99 400.78"/><polygon class="cls-4" points="735.99 364.65 728.23 352.06 741.25 359.08 735.99 364.65"/><polyline class="cls-3" points="514.49 443.52 606.79 465.5 660.66 465.5"/><polygon class="cls-4" points="515.74 447.85 503.53 439.49 518.28 440.63 515.74 447.85"/><polyline class="cls-3" points="520.64 196.64 468.67 205.37 431.59 205.37"/><polygon class="cls-4" points="517.46 193.45 532.18 194.86 518.72 201 517.46 193.45"/><polyline class="cls-3" points="422.17 326.5 343.6 389.96 282.2 389.96"/><polygon class="cls-4" points="417.83 325.29 431.35 319.28 422.64 331.25 417.83 325.29"/><line class="cls-3" x1="110.48" y1="688.21" x2="110.48" y2="639.08"/><polygon class="cls-4" points="114.15 685.6 110.32 699.88 106.49 685.6 114.15 685.6"/><polygon class="cls-4" points="114.15 641.7 110.32 627.41 106.49 641.7 114.15 641.7"/><line class="cls-3" x1="364.99" y1="554.38" x2="456.98" y2="554.38"/><polygon class="cls-4" points="367.6 558.05 353.31 554.22 367.6 550.39 367.6 558.05"/><polygon class="cls-4" points="454.37 558.05 468.66 554.22 454.37 550.39 454.37 558.05"/><line class="cls-3" x1="370.99" y1="523.3" x2="456.03" y2="523.3"/><polygon class="cls-4" points="373.6 526.96 359.31 523.14 373.6 519.31 373.6 526.96"/><polygon class="cls-4" points="453.42 526.96 467.71 523.14 453.42 519.31 453.42 526.96"/><line class="cls-5" x1="442.68" y1="465.51" x2="494.24" y2="465.51"/><line class="cls-3" x1="391.41" y1="465.51" x2="431.29" y2="465.51"/><polygon class="cls-4" points="428.68 469.17 442.97 465.35 428.68 461.52 428.68 469.17"/><line class="cls-3" x1="505.91" y1="465.51" x2="534.58" y2="465.51"/><polygon class="cls-4" points="508.53 469.17 494.24 465.35 508.53 461.52 508.53 469.17"/><line class="cls-3" x1="225.74" y1="303.92" x2="225.74" y2="150.11"/><polygon class="cls-4" points="229.41 301.3 225.58 315.59 221.75 301.3 229.41 301.3"/><polygon class="cls-4" points="229.41 152.72 225.58 138.43 221.75 152.72 229.41 152.72"/><line class="cls-3" x1="75.17" y1="687.98" x2="75.17" y2="149.64"/><polygon class="cls-4" points="78.84 685.37 75.01 699.66 71.18 685.37 78.84 685.37"/><polygon class="cls-4" points="78.84 152.25 75.01 137.96 71.18 152.25 78.84 152.25"/><line class="cls-3" x1="875.36" y1="329.97" x2="875.36" y2="150.66"/><polygon class="cls-4" points="879.03 327.36 875.2 341.65 871.37 327.36 879.03 327.36"/><polygon class="cls-4" points="879.03 153.27 875.2 138.98 871.37 153.27 879.03 153.27"/><line class="cls-3" x1="571.1" y1="182.18" x2="571.1" y2="149.29"/><polygon class="cls-4" points="574.76 179.56 570.94 193.85 567.11 179.56 574.76 179.56"/><polygon class="cls-4" points="574.76 151.9 570.94 137.61 567.11 151.9 574.76 151.9"/><line class="cls-3" x1="924.43" y1="423.76" x2="924.43" y2="150.11"/><polygon class="cls-4" points="928.09 421.15 924.27 435.44 920.44 421.15 928.09 421.15"/><polygon class="cls-4" points="928.09 152.72 924.27 138.44 920.44 152.72 928.09 152.72"/><line class="cls-3" x1="857.01" y1="688.08" x2="857.01" y2="424.75"/><polygon class="cls-4" points="860.67 685.47 856.85 699.76 853.01 685.47 860.67 685.47"/><polygon class="cls-4" points="860.67 427.36 856.85 413.07 853.01 427.36 860.67 427.36"/><g class="cls-6"><path class="cls-3" d="M217.44,316H467.89m153.48,25.15H882.84m-779,284.93H468m465-189.8H467.71M845.28,163.39H731.19"/></g><line class="cls-7" x1="201.71" y1="412.43" x2="872.35" y2="412.43"/><g class="cls-6"><path class="cls-3" d="M65.21,699.88H868.38M66,137.82h866.2m-140,652.09V658.35l-21.53-2.64M144.34,674.85V791.62M778.94,22.41V176.19M292.32,19.58v141m5.18,115.14-93.71,79H149"/></g><polygon class="cls-4" points="293.14 274.59 306.53 268.3 298.07 280.44 293.14 274.59"/><line class="cls-3" x1="836.67" y1="204.28" x2="836.67" y2="175.97"/><polygon class="cls-4" points="840.34 178.58 836.51 164.29 832.68 178.58 840.34 178.58"/><line class="cls-3" x1="836.67" y1="109.48" x2="836.67" y2="126.9"/><polygon class="cls-4" points="833 124.29 836.83 138.58 840.66 124.29 833 124.29"/><line class="cls-5" x1="836.67" y1="137.43" x2="836.67" y2="164.29"/><path class="cls-8" d="M694.48,194.31a5.22,5.22,0,1,1-5.22-5.21A5.22,5.22,0,0,1,694.48,194.31Zm90.6-9a5.21,5.21,0,1,1-5.21-5.21A5.21,5.21,0,0,1,785.08,185.33Zm-247.27,9a5.21,5.21,0,1,1-5.21-5.21A5.21,5.21,0,0,1,537.81,194.31ZM417.19,484.92a5.22,5.22,0,1,1-5.22-5.21A5.22,5.22,0,0,1,417.19,484.92Zm-58.75-1.58a5.21,5.21,0,1,1-5.21-5.21A5.22,5.22,0,0,1,358.44,483.34Zm6,58.93a5.21,5.21,0,1,1-5.21-5.22A5.21,5.21,0,0,1,364.44,542.27Z"/><polyline class="cls-3" points="594.42 324.84 612.66 267.75 623.72 325.44"/><polygon class="cls-4" points="598.71 323.47 590.72 335.91 591.41 321.14 598.71 323.47"/><polygon class="cls-4" points="619.62 323.57 626.07 336.88 627.14 322.12 619.62 323.57"/><line class="cls-3" x1="353.07" y1="559.07" x2="349.85" y2="150.11"/><polygon class="cls-4" points="353.54 152.69 349.6 138.44 345.88 152.75 353.54 152.69"/><line class="cls-9" x1="689.27" y1="194.31" x2="532.16" y2="194.31"/><line class="cls-3" x1="487.29" y1="160.22" x2="411.98" y2="479.46"/><polygon class="cls-4" points="483.12 161.92 490.12 148.89 490.57 163.68 483.12 161.92"/><polyline class="cls-3" points="429.63 152.93 410.39 497.49 361.6 495.59 358.28 542.02 357.97 496.33 354.18 496.33 313.25 153.82"/><polygon class="cls-4" points="425.82 155.34 430.44 141.28 433.47 155.76 425.82 155.34"/><polygon class="cls-4" points="317.2 155.97 311.7 142.24 309.59 156.88 317.2 155.97"/><path class="cls-10" d="M500.25,17.22h-1.38V8.37a7.53,7.53,0,0,1-1.32,1,9.27,9.27,0,0,1-1.46.72V8.71a8.59,8.59,0,0,0,2-1.33,5.06,5.06,0,0,0,1.24-1.51h.89Z"/><path class="cls-10" d="M507.87,17.22h-1.39V8.37a7.17,7.17,0,0,1-1.32,1,9.27,9.27,0,0,1-1.46.72V8.71a8.45,8.45,0,0,0,2-1.33A5.17,5.17,0,0,0,507,5.87h.9Z"/><path class="cls-10" d="M511.43,14.24l1.39-.19a3.08,3.08,0,0,0,.81,1.7,2,2,0,0,0,1.4.52,2.23,2.23,0,0,0,1.66-.68,2.28,2.28,0,0,0,.67-1.68,2.16,2.16,0,0,0-.62-1.58,2.19,2.19,0,0,0-1.59-.62,4.19,4.19,0,0,0-1,.16l.15-1.22h.23a2.82,2.82,0,0,0,1.59-.46,1.56,1.56,0,0,0,.71-1.42,1.7,1.7,0,0,0-.51-1.27A1.87,1.87,0,0,0,515,7a1.89,1.89,0,0,0-1.35.51A2.54,2.54,0,0,0,513,9.05l-1.39-.25a3.57,3.57,0,0,1,1.16-2.17A3.34,3.34,0,0,1,515,5.87a3.77,3.77,0,0,1,1.71.39,3,3,0,0,1,1.19,1.09,2.83,2.83,0,0,1,.41,1.46,2.41,2.41,0,0,1-.39,1.33,2.75,2.75,0,0,1-1.17,1,2.58,2.58,0,0,1,1.56,1,2.9,2.9,0,0,1,.55,1.82,3.31,3.31,0,0,1-1.07,2.51,3.81,3.81,0,0,1-2.74,1,3.52,3.52,0,0,1-2.47-.89A3.42,3.42,0,0,1,511.43,14.24Z"/><g class="cls-6"><path class="cls-10" d="M527.62,20.55a13.79,13.79,0,0,1-1.94-3.4,10.52,10.52,0,0,1-.8-4,10.37,10.37,0,0,1,.6-3.52,14.61,14.61,0,0,1,2.14-3.89h1c-.62,1.07-1,1.83-1.23,2.29a12.64,12.64,0,0,0-1.07,5.12,14,14,0,0,0,2.3,7.42Z"/></g><path class="cls-10" d="M534.29,17.22V14.51h-4.91V13.24l5.16-7.33h1.14v7.33h1.52v1.27h-1.52v2.71Zm0-4V8.14l-3.54,5.1Z"/><path class="cls-10" d="M539.4,17.22V15.64H541v1.58Z"/><path class="cls-10" d="M547.46,17.22V14.51h-4.9V13.24l5.16-7.33h1.13v7.33h1.53v1.27h-1.53v2.71Zm0-4V8.14l-3.54,5.1Z"/><path class="cls-10" d="M556.25,17.22V14.51h-4.91V13.24l5.16-7.33h1.14v7.33h1.52v1.27h-1.52v2.71Zm0-4V8.14l-3.54,5.1Z"/><path class="cls-10" d="M560.79,14.61l1.34-.13a2.35,2.35,0,0,0,.64,1.37,1.8,1.8,0,0,0,1.23.42,2.06,2.06,0,0,0,1.12-.29,2.36,2.36,0,0,0,.79-.78,4.55,4.55,0,0,0,.52-1.33,6.86,6.86,0,0,0,.21-1.69c0-.07,0-.16,0-.28A3.17,3.17,0,0,1,565.49,13a3,3,0,0,1-1.56.42,3.14,3.14,0,0,1-2.37-1,3.71,3.71,0,0,1-1-2.68,3.8,3.8,0,0,1,1-2.77,3.37,3.37,0,0,1,2.54-1,3.67,3.67,0,0,1,2,.59,3.76,3.76,0,0,1,1.39,1.69,8.54,8.54,0,0,1,.47,3.19,10.42,10.42,0,0,1-.47,3.45,4,4,0,0,1-1.4,1.95,3.62,3.62,0,0,1-2.18.67,3,3,0,0,1-3.18-2.8Zm5.69-5a2.7,2.7,0,0,0-.64-1.9,2,2,0,0,0-1.53-.7,2.12,2.12,0,0,0-1.61.75,2.81,2.81,0,0,0-.69,2,2.45,2.45,0,0,0,.65,1.76,2.15,2.15,0,0,0,1.61.67,2.08,2.08,0,0,0,1.59-.67A2.69,2.69,0,0,0,566.48,9.62Z"/><path class="cls-10" d="M569.79,9.92l-.39-2.16V5.91H571V7.76l-.34,2.16Zm2.55,0L572,7.76V5.91h1.58V7.76l-.37,2.16Z"/><g class="cls-6"><path class="cls-10" d="M576.24,20.55h-1a13.91,13.91,0,0,0,2.31-7.42,12.7,12.7,0,0,0-.33-2.87A11.91,11.91,0,0,0,576.48,8a25.54,25.54,0,0,0-1.24-2.31h1a14.9,14.9,0,0,1,2.14,3.89,10.37,10.37,0,0,1,.59,3.52,10.51,10.51,0,0,1-.79,4A14.45,14.45,0,0,1,576.24,20.55Z"/></g><path class="cls-10" d="M596.54,50.29l1.39-.18a3.05,3.05,0,0,0,.82,1.7,2,2,0,0,0,1.4.52,2.25,2.25,0,0,0,1.65-.68,2.28,2.28,0,0,0,.68-1.68,2.12,2.12,0,0,0-.63-1.58,2.19,2.19,0,0,0-1.59-.62,4.1,4.1,0,0,0-1,.15l.16-1.22a.94.94,0,0,0,.22,0,2.88,2.88,0,0,0,1.6-.46,1.6,1.6,0,0,0,.71-1.43,1.69,1.69,0,0,0-.52-1.26,1.83,1.83,0,0,0-1.33-.51,1.87,1.87,0,0,0-1.35.51,2.55,2.55,0,0,0-.7,1.53l-1.39-.25a3.57,3.57,0,0,1,1.16-2.16,3.35,3.35,0,0,1,2.24-.77,3.65,3.65,0,0,1,1.71.4A2.84,2.84,0,0,1,603,43.4a2.76,2.76,0,0,1,.41,1.46A2.44,2.44,0,0,1,603,46.2a2.63,2.63,0,0,1-1.16.95,2.69,2.69,0,0,1,1.55,1,3,3,0,0,1,.56,1.83,3.35,3.35,0,0,1-1.08,2.51,3.83,3.83,0,0,1-2.73,1,3.55,3.55,0,0,1-2.47-.89A3.45,3.45,0,0,1,596.54,50.29Z"/><path class="cls-10" d="M612.53,44.74l-1.38.11a2.59,2.59,0,0,0-.53-1.19,1.82,1.82,0,0,0-1.39-.6,1.93,1.93,0,0,0-1.16.37,3.24,3.24,0,0,0-1,1.4,7.33,7.33,0,0,0-.39,2.62,3.22,3.22,0,0,1,2.75-1.51,3.15,3.15,0,0,1,2.36,1,3.68,3.68,0,0,1,1,2.64,4.43,4.43,0,0,1-.46,2A3.37,3.37,0,0,1,611,53a3.43,3.43,0,0,1-1.82.49,3.56,3.56,0,0,1-2.83-1.28,6.37,6.37,0,0,1-1.1-4.2c0-2.19.4-3.78,1.21-4.77a3.47,3.47,0,0,1,2.85-1.3,3.16,3.16,0,0,1,2.18.75A3.22,3.22,0,0,1,612.53,44.74Zm-5.67,4.87a3.3,3.3,0,0,0,.3,1.38,2.24,2.24,0,0,0,.85,1,2.15,2.15,0,0,0,1.15.35,2,2,0,0,0,1.51-.71,2.76,2.76,0,0,0,.64-1.93,2.61,2.61,0,0,0-.63-1.85,2,2,0,0,0-1.57-.67,2.14,2.14,0,0,0-1.6.67A2.46,2.46,0,0,0,606.86,49.61Z"/><path class="cls-10" d="M614.89,53.28V51.7h1.58v1.58Z"/><path class="cls-10" d="M618.5,50.29l1.39-.18a3.05,3.05,0,0,0,.82,1.7,2,2,0,0,0,1.4.52,2.25,2.25,0,0,0,1.65-.68,2.28,2.28,0,0,0,.68-1.68,2.12,2.12,0,0,0-.63-1.58,2.19,2.19,0,0,0-1.59-.62,4.1,4.1,0,0,0-1,.15l.16-1.22a.94.94,0,0,0,.22,0,2.88,2.88,0,0,0,1.6-.46,1.6,1.6,0,0,0,.71-1.43,1.69,1.69,0,0,0-.52-1.26,1.81,1.81,0,0,0-1.33-.51,1.89,1.89,0,0,0-1.35.51,2.55,2.55,0,0,0-.7,1.53l-1.39-.25a3.57,3.57,0,0,1,1.16-2.16,3.35,3.35,0,0,1,2.24-.77,3.65,3.65,0,0,1,1.71.4,2.84,2.84,0,0,1,1.19,1.08,2.76,2.76,0,0,1,.41,1.46A2.44,2.44,0,0,1,625,46.2a2.63,2.63,0,0,1-1.16.95,2.69,2.69,0,0,1,1.55,1,3,3,0,0,1,.56,1.83,3.35,3.35,0,0,1-1.08,2.51,3.83,3.83,0,0,1-2.73,1,3.55,3.55,0,0,1-2.47-.89A3.45,3.45,0,0,1,618.5,50.29Z"/><path class="cls-10" d="M627.28,50.31l1.46-.12a2.65,2.65,0,0,0,.75,1.6,2.05,2.05,0,0,0,1.43.54,2.19,2.19,0,0,0,1.69-.76,2.8,2.8,0,0,0,.7-2,2.6,2.6,0,0,0-.67-1.88,2.33,2.33,0,0,0-1.75-.68,2.47,2.47,0,0,0-1.21.3,2.4,2.4,0,0,0-.85.79l-1.3-.17,1.09-5.81h5.63v1.33h-4.51l-.61,3a3.7,3.7,0,0,1,2.13-.71,3.39,3.39,0,0,1,2.5,1,3.6,3.6,0,0,1,1,2.64,4.16,4.16,0,0,1-.89,2.66,3.61,3.61,0,0,1-3,1.37,3.69,3.69,0,0,1-2.52-.86A3.38,3.38,0,0,1,627.28,50.31Z"/><path class="cls-10" d="M396.49,50.79l1.46-.12a2.65,2.65,0,0,0,.75,1.6,2.09,2.09,0,0,0,1.43.53,2.22,2.22,0,0,0,1.69-.75,2.85,2.85,0,0,0,.7-2,2.58,2.58,0,0,0-.67-1.87,2.33,2.33,0,0,0-1.75-.69,2.47,2.47,0,0,0-1.21.3,2.42,2.42,0,0,0-.85.8l-1.3-.17,1.09-5.81h5.63v1.32H399l-.61,3a3.7,3.7,0,0,1,2.13-.71,3.4,3.4,0,0,1,2.5,1,3.57,3.57,0,0,1,1,2.64,4.14,4.14,0,0,1-.89,2.65,3.58,3.58,0,0,1-3,1.37,3.64,3.64,0,0,1-2.52-.86A3.38,3.38,0,0,1,396.49,50.79Z"/><path class="cls-10" d="M405.28,50.79l1.46-.12a2.54,2.54,0,0,0,.75,1.6,2.07,2.07,0,0,0,1.42.53,2.22,2.22,0,0,0,1.7-.75,2.89,2.89,0,0,0,.69-2,2.57,2.57,0,0,0-.66-1.87,2.33,2.33,0,0,0-1.75-.69,2.44,2.44,0,0,0-1.21.3,2.34,2.34,0,0,0-.85.8l-1.31-.17,1.1-5.81h5.62v1.32h-4.51l-.61,3a3.71,3.71,0,0,1,2.14-.71,3.4,3.4,0,0,1,2.5,1,3.57,3.57,0,0,1,1,2.64,4.09,4.09,0,0,1-.9,2.65,3.56,3.56,0,0,1-3,1.37,3.64,3.64,0,0,1-2.52-.86A3.37,3.37,0,0,1,405.28,50.79Z"/><path class="cls-10" d="M414.84,53.75V52.17h1.58v1.58Z"/><path class="cls-10" d="M420.59,47.62a2.6,2.6,0,0,1-1.28-.9,2.35,2.35,0,0,1-.42-1.41,2.75,2.75,0,0,1,.89-2.07,3.73,3.73,0,0,1,4.74,0,2.75,2.75,0,0,1,.91,2.09,2.27,2.27,0,0,1-.42,1.37,2.56,2.56,0,0,1-1.25.9,3.14,3.14,0,0,1,1.59,1.09,3.05,3.05,0,0,1,.54,1.81,3.23,3.23,0,0,1-1,2.44,4.19,4.19,0,0,1-5.4,0,3.3,3.3,0,0,1-1-2.47,3,3,0,0,1,.56-1.85A2.81,2.81,0,0,1,420.59,47.62Zm-.73,2.87a2.51,2.51,0,0,0,.29,1.15,2,2,0,0,0,.83.86,2.48,2.48,0,0,0,1.2.3,2.22,2.22,0,0,0,1.64-.64,2.37,2.37,0,0,0,0-3.28,2.27,2.27,0,0,0-1.67-.66,2.22,2.22,0,0,0-2.27,2.27Zm.45-5.22a1.75,1.75,0,0,0,.52,1.31,2,2,0,0,0,2.66,0,1.68,1.68,0,0,0,.51-1.24,1.74,1.74,0,0,0-.53-1.28,1.78,1.78,0,0,0-1.31-.52,1.82,1.82,0,0,0-1.32.51A1.64,1.64,0,0,0,420.31,45.27Z"/><path class="cls-10" d="M427.23,50.77l1.39-.19a3,3,0,0,0,.81,1.7,2,2,0,0,0,1.4.52,2.21,2.21,0,0,0,1.65-.68,2.28,2.28,0,0,0,.68-1.68,2.13,2.13,0,0,0-.63-1.58,2.16,2.16,0,0,0-1.59-.62,4.12,4.12,0,0,0-1,.16l.15-1.22h.22a2.85,2.85,0,0,0,1.6-.46,1.59,1.59,0,0,0,.71-1.43,1.67,1.67,0,0,0-.52-1.26,1.84,1.84,0,0,0-1.33-.5,1.89,1.89,0,0,0-1.35.51,2.61,2.61,0,0,0-.7,1.52l-1.38-.24a3.61,3.61,0,0,1,1.15-2.17,3.35,3.35,0,0,1,2.25-.76,3.76,3.76,0,0,1,1.7.39,2.87,2.87,0,0,1,1.19,1.09,2.75,2.75,0,0,1,.42,1.46,2.34,2.34,0,0,1-.4,1.33,2.72,2.72,0,0,1-1.16,1,2.58,2.58,0,0,1,1.56,1,2.9,2.9,0,0,1,.55,1.82,3.32,3.32,0,0,1-1.08,2.51,3.78,3.78,0,0,1-2.73,1,3.5,3.5,0,0,1-2.47-.89A3.38,3.38,0,0,1,427.23,50.77Z"/><path class="cls-10" d="M485.86,88.79h-1.39V79.94a7.06,7.06,0,0,1-1.31,1,8.41,8.41,0,0,1-1.47.71V80.27a8.14,8.14,0,0,0,2-1.32A5.2,5.2,0,0,0,485,77.43h.9Z"/><path class="cls-10" d="M489.42,85.83l1.45-.13a2.57,2.57,0,0,0,.76,1.6,2,2,0,0,0,1.42.54,2.21,2.21,0,0,0,1.7-.76,2.84,2.84,0,0,0,.69-2,2.58,2.58,0,0,0-.67-1.88,2.33,2.33,0,0,0-1.74-.68,2.48,2.48,0,0,0-1.22.3,2.37,2.37,0,0,0-.84.79l-1.31-.17,1.1-5.81h5.62V79h-4.51l-.61,3a3.71,3.71,0,0,1,2.14-.71,3.34,3.34,0,0,1,2.49,1,3.56,3.56,0,0,1,1,2.63,4.16,4.16,0,0,1-.89,2.66,3.61,3.61,0,0,1-3,1.37,3.69,3.69,0,0,1-2.52-.86A3.37,3.37,0,0,1,489.42,85.83Z"/><path class="cls-10" d="M499,88.79V87.21h1.58v1.58Z"/><path class="cls-10" d="M502.59,83.21A10.53,10.53,0,0,1,503,80a4.07,4.07,0,0,1,1.23-1.88,3.09,3.09,0,0,1,2-.67,3.36,3.36,0,0,1,1.59.37A3,3,0,0,1,509,78.86a5.63,5.63,0,0,1,.7,1.68,11.17,11.17,0,0,1,.25,2.67,10.43,10.43,0,0,1-.4,3.21,4,4,0,0,1-1.23,1.89,3.43,3.43,0,0,1-4.62-.5A7.42,7.42,0,0,1,502.59,83.21Zm1.43,0a7.06,7.06,0,0,0,.65,3.71,1.86,1.86,0,0,0,3.22,0,7.12,7.12,0,0,0,.65-3.7,7.14,7.14,0,0,0-.65-3.71,2,2,0,0,0-1.63-.92,1.79,1.79,0,0,0-1.53.81A7.29,7.29,0,0,0,504,83.21Z"/><path class="cls-10" d="M513.51,82.66a2.66,2.66,0,0,1-1.28-.91,2.41,2.41,0,0,1-.41-1.4,2.77,2.77,0,0,1,.88-2.08,3.29,3.29,0,0,1,2.36-.84,3.34,3.34,0,0,1,2.39.86,2.81,2.81,0,0,1,.9,2.1,2.36,2.36,0,0,1-.41,1.37,2.63,2.63,0,0,1-1.26.9,3,3,0,0,1,1.59,1.09,3.05,3.05,0,0,1,.54,1.81,3.24,3.24,0,0,1-1,2.43,4.18,4.18,0,0,1-5.4,0,3.27,3.27,0,0,1-1-2.47,3,3,0,0,1,.56-1.85A2.76,2.76,0,0,1,513.51,82.66Zm-.72,2.87a2.46,2.46,0,0,0,.28,1.14,1.94,1.94,0,0,0,.84.86,2.38,2.38,0,0,0,1.19.31,2.25,2.25,0,0,0,1.65-.64,2.2,2.2,0,0,0,.64-1.63,2.25,2.25,0,0,0-.66-1.66,2.33,2.33,0,0,0-1.67-.65,2.17,2.17,0,0,0-1.63.65A2.19,2.19,0,0,0,512.79,85.53Zm.45-5.23a1.75,1.75,0,0,0,.51,1.31,1.83,1.83,0,0,0,1.34.51,1.78,1.78,0,0,0,1.32-.5,1.79,1.79,0,0,0,0-2.52,1.78,1.78,0,0,0-1.31-.52,1.85,1.85,0,0,0-1.32.5A1.64,1.64,0,0,0,513.24,80.3Z"/><path class="cls-10" d="M633.12,459.41v-11.3h5a6.79,6.79,0,0,1,2.3.3,2.47,2.47,0,0,1,1.25,1.08,3.13,3.13,0,0,1,.47,1.7,2.84,2.84,0,0,1-.77,2,4,4,0,0,1-2.41,1,3.81,3.81,0,0,1,.9.56,7.7,7.7,0,0,1,1.24,1.51l2,3.07h-1.88l-1.5-2.35q-.66-1-1.08-1.56a3.1,3.1,0,0,0-.76-.75,1.94,1.94,0,0,0-.68-.3,4.06,4.06,0,0,0-.83-.06h-1.74v5Zm1.5-6.31h3.22a4.55,4.55,0,0,0,1.6-.22,1.67,1.67,0,0,0,.88-.67,1.84,1.84,0,0,0,.3-1,1.69,1.69,0,0,0-.58-1.32,2.75,2.75,0,0,0-1.84-.51h-3.58Z"/><path class="cls-10" d="M649.18,459.41h-1.39v-8.84a7.17,7.17,0,0,1-1.32.95,9.27,9.27,0,0,1-1.46.72V450.9a8.45,8.45,0,0,0,2-1.33,5.17,5.17,0,0,0,1.23-1.51h.9Z"/><path class="cls-10" d="M652.73,453.84a10.2,10.2,0,0,1,.42-3.23,4,4,0,0,1,1.22-1.89,3.15,3.15,0,0,1,2-.66,3.29,3.29,0,0,1,1.6.37,3.06,3.06,0,0,1,1.13,1.05,5.58,5.58,0,0,1,.7,1.69,11.09,11.09,0,0,1,.26,2.67,10.44,10.44,0,0,1-.41,3.21,4,4,0,0,1-1.22,1.89,3.45,3.45,0,0,1-4.63-.5A7.52,7.52,0,0,1,652.73,453.84Zm1.43,0a7.12,7.12,0,0,0,.65,3.7,1.86,1.86,0,0,0,3.22,0,10.88,10.88,0,0,0,0-7.41,2,2,0,0,0-1.63-.92,1.78,1.78,0,0,0-1.52.81A7.15,7.15,0,0,0,654.16,453.84Z"/><path class="cls-10" d="M602,261.61v-11.3h5a6.75,6.75,0,0,1,2.3.3,2.53,2.53,0,0,1,1.26,1.08,3.22,3.22,0,0,1,.47,1.7,2.85,2.85,0,0,1-.78,2,4,4,0,0,1-2.41,1.05,3.81,3.81,0,0,1,.9.56,7.44,7.44,0,0,1,1.25,1.51l2,3.07H610.1l-1.5-2.35c-.43-.68-.79-1.2-1.07-1.56a3.49,3.49,0,0,0-.76-.75,2.07,2.07,0,0,0-.69-.3,4,4,0,0,0-.83-.06h-1.74v5Zm1.49-6.31h3.22a4.65,4.65,0,0,0,1.61-.22,1.69,1.69,0,0,0,.87-.67,1.88,1.88,0,0,0,.31-1,1.7,1.7,0,0,0-.59-1.32,2.75,2.75,0,0,0-1.84-.51h-3.58Z"/><path class="cls-10" d="M618.07,261.61h-1.39v-8.84a7.06,7.06,0,0,1-1.31.95,9.33,9.33,0,0,1-1.47.72V253.1a8.45,8.45,0,0,0,2-1.33,5.17,5.17,0,0,0,1.23-1.51h.9Z"/><path class="cls-10" d="M621.63,258.63l1.39-.19a3,3,0,0,0,.82,1.7,2,2,0,0,0,1.4.53,2.25,2.25,0,0,0,1.65-.68,2.32,2.32,0,0,0,.68-1.69,2.11,2.11,0,0,0-.63-1.57,2.15,2.15,0,0,0-1.59-.62,4.1,4.1,0,0,0-1,.15l.16-1.22.22,0a2.88,2.88,0,0,0,1.6-.47,1.57,1.57,0,0,0,.71-1.42,1.73,1.73,0,0,0-.52-1.27,1.86,1.86,0,0,0-1.33-.5,1.9,1.9,0,0,0-1.36.51,2.6,2.6,0,0,0-.69,1.53l-1.39-.25a3.57,3.57,0,0,1,1.16-2.16,3.35,3.35,0,0,1,2.24-.77,3.65,3.65,0,0,1,1.71.4,2.78,2.78,0,0,1,1.19,1.08,2.74,2.74,0,0,1,.41,1.46,2.38,2.38,0,0,1-.39,1.33,2.72,2.72,0,0,1-1.16,1,2.59,2.59,0,0,1,1.55,1,2.92,2.92,0,0,1,.56,1.82,3.32,3.32,0,0,1-1.08,2.51,3.78,3.78,0,0,1-2.73,1,3.54,3.54,0,0,1-2.47-.88A3.45,3.45,0,0,1,621.63,258.63Z"/><path class="cls-10" d="M631.19,261.61V260h1.58v1.58Z"/><path class="cls-10" d="M636.92,255.48a2.6,2.6,0,0,1-1.28-.9,2.34,2.34,0,0,1-.42-1.4,2.75,2.75,0,0,1,.89-2.08,3.73,3.73,0,0,1,4.74,0,2.78,2.78,0,0,1,.9,2.09,2.25,2.25,0,0,1-.41,1.37,2.56,2.56,0,0,1-1.25.9,3,3,0,0,1,1.58,1.1,2.94,2.94,0,0,1,.55,1.8,3.23,3.23,0,0,1-1,2.44,4.18,4.18,0,0,1-5.4,0,3.33,3.33,0,0,1-1-2.48,2.92,2.92,0,0,1,.56-1.84A2.77,2.77,0,0,1,636.92,255.48Zm-.73,2.87a2.6,2.6,0,0,0,.28,1.15,2,2,0,0,0,.84.86,2.49,2.49,0,0,0,1.2.31,2.26,2.26,0,0,0,1.64-.64,2.38,2.38,0,0,0,0-3.29,2.27,2.27,0,0,0-1.67-.66,2.22,2.22,0,0,0-2.27,2.27Zm.45-5.22a1.75,1.75,0,0,0,.52,1.31,1.82,1.82,0,0,0,1.34.51,1.78,1.78,0,0,0,1.31-.51,1.63,1.63,0,0,0,.52-1.23,1.76,1.76,0,0,0-.53-1.29,1.79,1.79,0,0,0-1.32-.52,1.82,1.82,0,0,0-1.32.51A1.68,1.68,0,0,0,636.64,253.13Z"/><path class="cls-10" d="M434.83,201.84V190.53h5a6.79,6.79,0,0,1,2.3.3,2.51,2.51,0,0,1,1.25,1.08,3.13,3.13,0,0,1,.47,1.7,2.83,2.83,0,0,1-.78,2,3.92,3.92,0,0,1-2.4,1.05,4,4,0,0,1,.9.56,7.7,7.7,0,0,1,1.24,1.51l2,3.08h-1.88l-1.5-2.36c-.44-.68-.8-1.2-1.08-1.55a3.17,3.17,0,0,0-.76-.76,2.15,2.15,0,0,0-.68-.3,4.06,4.06,0,0,0-.83-.06h-1.74v5Zm1.5-6.32h3.22a4.83,4.83,0,0,0,1.6-.21,1.74,1.74,0,0,0,.88-.68,1.84,1.84,0,0,0,.3-1,1.69,1.69,0,0,0-.58-1.32,2.75,2.75,0,0,0-1.84-.51h-3.58Z"/><path class="cls-10" d="M450.89,201.84H449.5V193a7,7,0,0,1-1.32.95,9.27,9.27,0,0,1-1.46.72v-1.34a8.45,8.45,0,0,0,2-1.33,5.17,5.17,0,0,0,1.23-1.51h.9Z"/><path class="cls-10" d="M454.43,198.85l1.39-.18a3.11,3.11,0,0,0,.81,1.7,2.06,2.06,0,0,0,1.4.52,2.31,2.31,0,0,0,2.33-2.36,2.15,2.15,0,0,0-.62-1.58,2.19,2.19,0,0,0-1.59-.62,4.1,4.1,0,0,0-1,.15l.15-1.22.23,0a2.9,2.9,0,0,0,1.59-.46,1.58,1.58,0,0,0,.71-1.43,1.72,1.72,0,0,0-.51-1.27,1.87,1.87,0,0,0-1.34-.5,1.89,1.89,0,0,0-1.35.51,2.54,2.54,0,0,0-.69,1.53l-1.39-.25a3.52,3.52,0,0,1,1.16-2.16,3.35,3.35,0,0,1,2.24-.77,3.65,3.65,0,0,1,1.71.4,2.9,2.9,0,0,1,1.19,1.08,2.85,2.85,0,0,1,.41,1.46,2.38,2.38,0,0,1-.39,1.33,2.68,2.68,0,0,1-1.17,1,2.68,2.68,0,0,1,1.56,1,3,3,0,0,1,.55,1.83,3.34,3.34,0,0,1-1.07,2.51,3.85,3.85,0,0,1-2.74,1,3.57,3.57,0,0,1-2.47-.89A3.44,3.44,0,0,1,454.43,198.85Z"/><path class="cls-10" d="M283.81,384V372.66h5a6.75,6.75,0,0,1,2.3.3,2.54,2.54,0,0,1,1.26,1.08,3.22,3.22,0,0,1,.47,1.7,2.83,2.83,0,0,1-.78,2,4,4,0,0,1-2.41,1.05,4.14,4.14,0,0,1,.91.56,8.41,8.41,0,0,1,1.24,1.51l2,3.08h-1.89l-1.49-2.36c-.44-.67-.8-1.19-1.08-1.55a3.58,3.58,0,0,0-.76-.76,2.53,2.53,0,0,0-.68-.3A4.3,4.3,0,0,0,287,379h-1.73v5Zm1.5-6.32h3.21a4.9,4.9,0,0,0,1.61-.21,1.73,1.73,0,0,0,.88-.68,1.84,1.84,0,0,0,.3-1,1.69,1.69,0,0,0-.58-1.31,2.71,2.71,0,0,0-1.84-.52h-3.58Z"/><path class="cls-10" d="M299.86,384h-1.39v-8.85a7.06,7.06,0,0,1-1.31,1,10.08,10.08,0,0,1-1.46.71v-1.34a8.29,8.29,0,0,0,2-1.33,5.22,5.22,0,0,0,1.24-1.51h.89Z"/><path class="cls-10" d="M303.42,378.39a10.53,10.53,0,0,1,.41-3.23,4,4,0,0,1,1.23-1.88,3.09,3.09,0,0,1,2.05-.67,3.28,3.28,0,0,1,1.59.37,3,3,0,0,1,1.14,1.06,5.9,5.9,0,0,1,.7,1.68,11.17,11.17,0,0,1,.25,2.67,10.1,10.1,0,0,1-.41,3.21,4,4,0,0,1-1.22,1.89,3.43,3.43,0,0,1-4.62-.5A7.44,7.44,0,0,1,303.42,378.39Zm1.43,0a7.06,7.06,0,0,0,.65,3.71,1.85,1.85,0,0,0,3.21,0,10.73,10.73,0,0,0,0-7.41,1.93,1.93,0,0,0-1.62-.92,1.78,1.78,0,0,0-1.53.81A7.17,7.17,0,0,0,304.85,378.39Z"/><path class="cls-10" d="M401.58,547v1.33H394.1a2.62,2.62,0,0,1,.16-1,5.42,5.42,0,0,1,.92-1.51,14.31,14.31,0,0,1,1.82-1.71,16.22,16.22,0,0,0,2.49-2.39,2.88,2.88,0,0,0,.64-1.67,1.82,1.82,0,0,0-.59-1.39,2.1,2.1,0,0,0-1.53-.57,2.18,2.18,0,0,0-1.61.6,2.31,2.31,0,0,0-.61,1.67l-1.42-.15a3.43,3.43,0,0,1,1.1-2.43A3.75,3.75,0,0,1,398,537a3.58,3.58,0,0,1,2.57.9,2.94,2.94,0,0,1,.95,2.24,3.28,3.28,0,0,1-.28,1.33,4.94,4.94,0,0,1-.92,1.38,21,21,0,0,1-2.14,2c-.83.7-1.37,1.18-1.6,1.43a4.83,4.83,0,0,0-.59.75Z"/><path class="cls-10" d="M410.27,539.81l-1.38.11a2.7,2.7,0,0,0-.52-1.19,1.87,1.87,0,0,0-1.39-.59,1.9,1.9,0,0,0-1.17.37,3.1,3.1,0,0,0-1,1.4,7.28,7.28,0,0,0-.4,2.61,3.24,3.24,0,0,1,2.75-1.5,3.17,3.17,0,0,1,2.37,1,3.66,3.66,0,0,1,1,2.64,4.3,4.3,0,0,1-.46,2,3.24,3.24,0,0,1-1.26,1.4,3.47,3.47,0,0,1-1.82.49,3.56,3.56,0,0,1-2.83-1.28,6.44,6.44,0,0,1-1.1-4.21,7.56,7.56,0,0,1,1.22-4.77,3.47,3.47,0,0,1,2.84-1.29,3.2,3.2,0,0,1,2.19.75A3.14,3.14,0,0,1,410.27,539.81Zm-5.67,4.88a3.09,3.09,0,0,0,.31,1.37,2.21,2.21,0,0,0,.85,1,2.11,2.11,0,0,0,1.15.34,1.94,1.94,0,0,0,1.51-.71,2.78,2.78,0,0,0,.63-1.92,2.63,2.63,0,0,0-.62-1.85,2.06,2.06,0,0,0-1.58-.68,2.13,2.13,0,0,0-1.59.68A2.42,2.42,0,0,0,404.6,544.69Z"/><path class="cls-10" d="M412.63,548.35v-1.58h1.58v1.58Z"/><path class="cls-10" d="M423.45,539.81l-1.39.11a2.59,2.59,0,0,0-.52-1.19,2,2,0,0,0-2.55-.22,3.19,3.19,0,0,0-1,1.4,7.31,7.31,0,0,0-.39,2.61,3.08,3.08,0,0,1,1.23-1.13,3.25,3.25,0,0,1,1.52-.37,3.15,3.15,0,0,1,2.36,1,3.67,3.67,0,0,1,1,2.64,4.43,4.43,0,0,1-.46,2,3.37,3.37,0,0,1-1.26,1.4,3.53,3.53,0,0,1-1.83.49,3.57,3.57,0,0,1-2.83-1.28,6.44,6.44,0,0,1-1.09-4.21,7.56,7.56,0,0,1,1.21-4.77,3.48,3.48,0,0,1,2.85-1.29,3,3,0,0,1,3.21,2.81Zm-5.67,4.88a3.22,3.22,0,0,0,.3,1.37,2.27,2.27,0,0,0,.85,1,2.13,2.13,0,0,0,1.15.34,1.93,1.93,0,0,0,1.51-.71,2.73,2.73,0,0,0,.64-1.92,2.59,2.59,0,0,0-.63-1.85,2.06,2.06,0,0,0-1.57-.68,2.15,2.15,0,0,0-1.6.68A2.42,2.42,0,0,0,417.78,544.69Z"/><path class="cls-10" d="M425.21,545.74l1.34-.13a2.29,2.29,0,0,0,.65,1.37,1.77,1.77,0,0,0,1.22.42,2.11,2.11,0,0,0,1.13-.29,2.45,2.45,0,0,0,.79-.78,4.91,4.91,0,0,0,.51-1.32,7,7,0,0,0,.21-1.7c0-.06,0-.16,0-.28a3.22,3.22,0,0,1-5.07.47,3.71,3.71,0,0,1-1-2.68,3.79,3.79,0,0,1,1-2.77,3.39,3.39,0,0,1,2.54-1,3.67,3.67,0,0,1,2,.59,3.74,3.74,0,0,1,1.39,1.7,8.45,8.45,0,0,1,.47,3.18,10.16,10.16,0,0,1-.47,3.45,4,4,0,0,1-1.4,2,3.6,3.6,0,0,1-2.18.68,3,3,0,0,1-3.18-2.81Zm5.69-5a2.7,2.7,0,0,0-.64-1.9,2,2,0,0,0-1.53-.7,2.13,2.13,0,0,0-1.61.75,2.81,2.81,0,0,0-.69,2,2.42,2.42,0,0,0,.66,1.76,2.13,2.13,0,0,0,1.6.67,2.06,2.06,0,0,0,1.59-.67A2.69,2.69,0,0,0,430.9,540.75Z"/><path class="cls-10" d="M403.12,516.34v1.34h-7.47a2.44,2.44,0,0,1,.16-1,5,5,0,0,1,.92-1.5,14.07,14.07,0,0,1,1.81-1.72A14.89,14.89,0,0,0,401,511.1a2.83,2.83,0,0,0,.65-1.67,1.83,1.83,0,0,0-.59-1.39,2.11,2.11,0,0,0-1.54-.57,2.17,2.17,0,0,0-1.6.6,2.27,2.27,0,0,0-.61,1.67l-1.43-.15a3.52,3.52,0,0,1,1.11-2.43,3.73,3.73,0,0,1,2.56-.84,3.59,3.59,0,0,1,2.58.9,3,3,0,0,1,.95,2.24,3.28,3.28,0,0,1-.28,1.33,5.12,5.12,0,0,1-.92,1.39,23.59,23.59,0,0,1-2.14,2c-.83.69-1.37,1.17-1.61,1.42a4.74,4.74,0,0,0-.58.75Z"/><path class="cls-10" d="M404.61,514.71l1.46-.12a2.65,2.65,0,0,0,.75,1.6,2.05,2.05,0,0,0,1.43.54,2.23,2.23,0,0,0,1.69-.76,2.8,2.8,0,0,0,.7-2,2.56,2.56,0,0,0-.67-1.88,2.32,2.32,0,0,0-1.75-.69,2.47,2.47,0,0,0-1.21.31,2.4,2.4,0,0,0-.85.79l-1.3-.17,1.1-5.81h5.62v1.33h-4.51l-.61,3a3.63,3.63,0,0,1,2.13-.71,3.39,3.39,0,0,1,2.5,1,3.6,3.6,0,0,1,1,2.64,4.14,4.14,0,0,1-.89,2.65,3.59,3.59,0,0,1-3,1.38,3.64,3.64,0,0,1-2.52-.87A3.4,3.4,0,0,1,404.61,514.71Z"/><path class="cls-10" d="M414.18,517.68v-1.59h1.58v1.59Z"/><path class="cls-10" d="M425.09,516.34v1.34h-7.48a2.44,2.44,0,0,1,.16-1,5,5,0,0,1,.92-1.5,14.07,14.07,0,0,1,1.81-1.72,15.48,15.48,0,0,0,2.5-2.39,2.88,2.88,0,0,0,.64-1.67,1.83,1.83,0,0,0-.59-1.39,2.11,2.11,0,0,0-1.54-.57,2.17,2.17,0,0,0-1.6.6,2.31,2.31,0,0,0-.61,1.67l-1.43-.15a3.52,3.52,0,0,1,1.11-2.43,3.73,3.73,0,0,1,2.56-.84,3.59,3.59,0,0,1,2.58.9,3,3,0,0,1,.95,2.24,3.28,3.28,0,0,1-.28,1.33,5.12,5.12,0,0,1-.92,1.39,23.59,23.59,0,0,1-2.14,2,20.58,20.58,0,0,0-1.6,1.42,4.3,4.3,0,0,0-.59.75Z"/><path class="cls-10" d="M433.85,516.34v1.34h-7.47a2.44,2.44,0,0,1,.16-1,5,5,0,0,1,.91-1.5,14.25,14.25,0,0,1,1.82-1.72,14.89,14.89,0,0,0,2.49-2.39,2.9,2.9,0,0,0,.65-1.67,1.87,1.87,0,0,0-.59-1.39,2.12,2.12,0,0,0-1.54-.57,2.16,2.16,0,0,0-1.6.6,2.23,2.23,0,0,0-.61,1.67l-1.43-.15a3.51,3.51,0,0,1,1.1-2.43,3.77,3.77,0,0,1,2.57-.84,3.6,3.6,0,0,1,2.58.9,3,3,0,0,1,.95,2.24,3.45,3.45,0,0,1-.28,1.33,5.37,5.37,0,0,1-.92,1.39,25.06,25.06,0,0,1-2.14,2,21.44,21.44,0,0,0-1.61,1.42,4.74,4.74,0,0,0-.58.75Z"/><path class="cls-10" d="M522.3,461.94h-1.39v-8.85a7.06,7.06,0,0,1-1.31,1,9.27,9.27,0,0,1-1.46.72v-1.34a8.59,8.59,0,0,0,2-1.33,5.06,5.06,0,0,0,1.24-1.51h.89Z"/><path class="cls-10" d="M533.16,460.61v1.33h-7.48a2.62,2.62,0,0,1,.16-1,5.2,5.2,0,0,1,.92-1.51,14.83,14.83,0,0,1,1.81-1.71,15.93,15.93,0,0,0,2.5-2.39,2.88,2.88,0,0,0,.64-1.67,1.85,1.85,0,0,0-.59-1.4,2.14,2.14,0,0,0-1.54-.56,2.17,2.17,0,0,0-1.6.6,2.3,2.3,0,0,0-.61,1.66l-1.43-.14a3.53,3.53,0,0,1,1.11-2.44,3.78,3.78,0,0,1,2.57-.83,3.58,3.58,0,0,1,2.57.9,3,3,0,0,1,.95,2.24,3.31,3.31,0,0,1-.28,1.33,4.94,4.94,0,0,1-.92,1.38,21,21,0,0,1-2.14,2c-.83.7-1.37,1.18-1.6,1.43a4.3,4.3,0,0,0-.59.75Z"/><path class="cls-10" d="M343.18,592.05V580.74h5a6.79,6.79,0,0,1,2.3.3,2.63,2.63,0,0,1,1.26,1.08,3.23,3.23,0,0,1,.47,1.71,2.82,2.82,0,0,1-.78,2,4,4,0,0,1-2.41,1,3.51,3.51,0,0,1,.9.57,7.62,7.62,0,0,1,1.24,1.5l2,3.08h-1.88l-1.5-2.35a17.58,17.58,0,0,0-1.08-1.56,3.37,3.37,0,0,0-.76-.76,2.4,2.4,0,0,0-.68-.3,4.24,4.24,0,0,0-.83-.05h-1.74v5Zm1.49-6.32h3.22a4.83,4.83,0,0,0,1.6-.21,1.69,1.69,0,0,0,.88-.68,1.84,1.84,0,0,0,.3-1,1.67,1.67,0,0,0-.58-1.32,2.7,2.7,0,0,0-1.84-.52h-3.58Z"/><path class="cls-10" d="M359.23,592.05h-1.39V583.2a7.17,7.17,0,0,1-1.32,1,8.35,8.35,0,0,1-1.46.71v-1.34a8.43,8.43,0,0,0,2-1.32,5.2,5.2,0,0,0,1.23-1.52h.9Z"/><path class="cls-10" d="M362.78,586.47a10.2,10.2,0,0,1,.42-3.23,4,4,0,0,1,1.22-1.88,3.18,3.18,0,0,1,2.05-.67,3.4,3.4,0,0,1,1.6.37,3.09,3.09,0,0,1,1.13,1.06,5.63,5.63,0,0,1,.7,1.68,11.09,11.09,0,0,1,.26,2.67,10.39,10.39,0,0,1-.41,3.21,4,4,0,0,1-1.22,1.89,3.45,3.45,0,0,1-4.63-.5A7.5,7.5,0,0,1,362.78,586.47Zm1.43,0a7.16,7.16,0,0,0,.65,3.71,1.86,1.86,0,0,0,3.22,0,10.88,10.88,0,0,0,0-7.41,2,2,0,0,0-1.62-.92,1.78,1.78,0,0,0-1.53.81A7.15,7.15,0,0,0,364.21,586.47Z"/><path class="cls-10" d="M185.12,418l4.37-5.9-3.85-5.41h1.78l2.05,2.9a14.62,14.62,0,0,1,.91,1.39c.25-.41.55-.84.89-1.29l2.28-3h1.63l-4,5.33,4.28,6h-1.85l-2.85-4c-.16-.23-.33-.48-.5-.75q-.37.61-.54.84L186.92,418Z"/><path class="cls-10" d="M872.39,418l4.37-5.9-3.85-5.41h1.78l2,2.9a14.62,14.62,0,0,1,.91,1.39c.25-.41.55-.84.89-1.29l2.28-3h1.63l-4,5.33,4.29,6H880.9l-2.84-4c-.16-.23-.33-.48-.5-.75q-.37.61-.54.84L874.19,418Z"/><path class="cls-10" d="M150.21,349.18V337.87h5a6.45,6.45,0,0,1,2.29.31,2.48,2.48,0,0,1,1.26,1.07,3.17,3.17,0,0,1,.47,1.71,2.82,2.82,0,0,1-.78,2,3.94,3.94,0,0,1-2.4,1,3.9,3.9,0,0,1,.9.57,7.62,7.62,0,0,1,1.24,1.5l2,3.08H158.3l-1.5-2.35q-.66-1-1.08-1.56a3.59,3.59,0,0,0-.76-.76,2.4,2.4,0,0,0-.68-.3,5.29,5.29,0,0,0-.84,0h-1.73v5Zm1.5-6.32h3.21a4.9,4.9,0,0,0,1.61-.21,1.73,1.73,0,0,0,.88-.68,1.84,1.84,0,0,0,.3-1,1.67,1.67,0,0,0-.58-1.32,2.7,2.7,0,0,0-1.84-.52h-3.58Z"/><path class="cls-10" d="M166.26,349.18h-1.39v-8.85a7.06,7.06,0,0,1-1.31,1,8.35,8.35,0,0,1-1.46.71v-1.34a8.26,8.26,0,0,0,2-1.32,5.09,5.09,0,0,0,1.24-1.52h.89Z"/><path class="cls-10" d="M169.82,346.22l1.46-.13a2.62,2.62,0,0,0,.75,1.6,2,2,0,0,0,1.42.54,2.2,2.2,0,0,0,1.7-.76,2.84,2.84,0,0,0,.69-2,2.61,2.61,0,0,0-.66-1.88,2.37,2.37,0,0,0-1.75-.68,2.44,2.44,0,0,0-1.21.3,2.49,2.49,0,0,0-.85.79l-1.3-.17,1.09-5.81h5.63v1.33h-4.52l-.61,3a3.71,3.71,0,0,1,2.14-.71,3.36,3.36,0,0,1,2.5,1,3.56,3.56,0,0,1,1,2.63,4.12,4.12,0,0,1-.9,2.66,3.58,3.58,0,0,1-3,1.37,3.69,3.69,0,0,1-2.52-.86A3.37,3.37,0,0,1,169.82,346.22Z"/><path class="cls-10" d="M191.77,95.38V84.07h5a6.79,6.79,0,0,1,2.3.3,2.56,2.56,0,0,1,1.25,1.08,3.13,3.13,0,0,1,.47,1.7,2.87,2.87,0,0,1-.77,2,4,4,0,0,1-2.41,1,3.69,3.69,0,0,1,.9.57,7.62,7.62,0,0,1,1.24,1.5l2,3.08h-1.88L198.36,93c-.44-.67-.8-1.19-1.08-1.55a3.17,3.17,0,0,0-.76-.76,2.4,2.4,0,0,0-.68-.3,4.24,4.24,0,0,0-.83,0h-1.74v5Zm1.5-6.32h3.22a4.83,4.83,0,0,0,1.6-.21,1.69,1.69,0,0,0,.88-.68,1.84,1.84,0,0,0,.3-1,1.66,1.66,0,0,0-.58-1.31,2.7,2.7,0,0,0-1.84-.52h-3.58Z"/><path class="cls-10" d="M207,92.42l1.46-.13a2.65,2.65,0,0,0,.75,1.6,2,2,0,0,0,1.42.54,2.2,2.2,0,0,0,1.7-.76,2.84,2.84,0,0,0,.69-2,2.61,2.61,0,0,0-.66-1.88,2.33,2.33,0,0,0-1.75-.68,2.44,2.44,0,0,0-1.21.3,2.4,2.4,0,0,0-.85.79l-1.3-.17,1.09-5.81h5.63v1.33h-4.52l-.61,3a3.71,3.71,0,0,1,2.14-.71,3.36,3.36,0,0,1,2.5,1,3.56,3.56,0,0,1,1,2.63,4.12,4.12,0,0,1-.9,2.66,3.58,3.58,0,0,1-3,1.37,3.7,3.7,0,0,1-2.52-.86A3.37,3.37,0,0,1,207,92.42Z"/><path class="cls-10" d="M852,95.38V84.07h5a6.79,6.79,0,0,1,2.3.3,2.56,2.56,0,0,1,1.25,1.08,3.13,3.13,0,0,1,.47,1.7,2.83,2.83,0,0,1-.78,2,3.92,3.92,0,0,1-2.4,1,3.69,3.69,0,0,1,.9.57A7.62,7.62,0,0,1,860,92.3l2,3.08H860.1L858.6,93c-.44-.67-.8-1.19-1.08-1.55a3.17,3.17,0,0,0-.76-.76,2.4,2.4,0,0,0-.68-.3,4.24,4.24,0,0,0-.83,0h-1.74v5Zm1.5-6.32h3.22a4.83,4.83,0,0,0,1.6-.21,1.69,1.69,0,0,0,.88-.68,1.84,1.84,0,0,0,.3-1,1.66,1.66,0,0,0-.58-1.31,2.7,2.7,0,0,0-1.84-.52h-3.58Z"/><path class="cls-10" d="M862.84,92.42l1.45-.13a2.6,2.6,0,0,0,.76,1.6,2,2,0,0,0,1.42.54,2.21,2.21,0,0,0,1.7-.76,2.84,2.84,0,0,0,.69-2,2.58,2.58,0,0,0-.67-1.88,2.29,2.29,0,0,0-1.74-.68,2.48,2.48,0,0,0-1.22.3,2.29,2.29,0,0,0-.84.79L863.08,90l1.1-5.81h5.62v1.33h-4.51l-.61,3a3.71,3.71,0,0,1,2.14-.71,3.38,3.38,0,0,1,2.5,1,3.6,3.6,0,0,1,1,2.63,4.11,4.11,0,0,1-.89,2.66,3.61,3.61,0,0,1-3,1.37,3.69,3.69,0,0,1-2.52-.86A3.37,3.37,0,0,1,862.84,92.42Z"/><path class="cls-10" d="M632.19,95.38V84.07h5a6.73,6.73,0,0,1,2.29.3,2.54,2.54,0,0,1,1.26,1.08,3.13,3.13,0,0,1,.47,1.7,2.83,2.83,0,0,1-.78,2,3.94,3.94,0,0,1-2.4,1,3.9,3.9,0,0,1,.9.57,7.62,7.62,0,0,1,1.24,1.5l2,3.08h-1.88L638.78,93c-.44-.67-.8-1.19-1.08-1.55a3.36,3.36,0,0,0-.76-.76,2.4,2.4,0,0,0-.68-.3,4.3,4.3,0,0,0-.84,0h-1.73v5Zm1.5-6.32h3.22a4.87,4.87,0,0,0,1.6-.21,1.73,1.73,0,0,0,.88-.68,1.84,1.84,0,0,0,.3-1,1.66,1.66,0,0,0-.58-1.31,2.7,2.7,0,0,0-1.84-.52h-3.58Z"/><path class="cls-10" d="M643,92.39l1.39-.18a3.11,3.11,0,0,0,.81,1.7,2.06,2.06,0,0,0,1.4.52A2.31,2.31,0,0,0,649,92.07a2.11,2.11,0,0,0-.62-1.58,2.19,2.19,0,0,0-1.59-.62,4.1,4.1,0,0,0-1,.15l.15-1.21h.23a2.82,2.82,0,0,0,1.59-.46,1.58,1.58,0,0,0,.71-1.43,1.68,1.68,0,0,0-.51-1.26,1.83,1.83,0,0,0-1.34-.51,1.89,1.89,0,0,0-1.35.51,2.54,2.54,0,0,0-.69,1.53L643.16,87a3.57,3.57,0,0,1,1.16-2.16,3.35,3.35,0,0,1,2.24-.77,3.65,3.65,0,0,1,1.71.4,2.91,2.91,0,0,1,1.19,1.08,2.85,2.85,0,0,1,.41,1.46,2.44,2.44,0,0,1-.39,1.34,2.61,2.61,0,0,1-1.17,1,2.68,2.68,0,0,1,1.56,1,3,3,0,0,1,.56,1.83,3.35,3.35,0,0,1-1.08,2.51,3.83,3.83,0,0,1-2.73,1,3.57,3.57,0,0,1-2.48-.89A3.44,3.44,0,0,1,643,92.39Z"/><path class="cls-10" d="M800.44,395.45V384.14h5a6.51,6.51,0,0,1,2.3.31,2.56,2.56,0,0,1,1.26,1.07,3.28,3.28,0,0,1,.47,1.71,2.85,2.85,0,0,1-.78,2,3.89,3.89,0,0,1-2.41,1,3.8,3.8,0,0,1,.9.57,7.62,7.62,0,0,1,1.24,1.5l2,3.08h-1.88L807,393.1a17.58,17.58,0,0,0-1.08-1.56,3.37,3.37,0,0,0-.76-.76,2.4,2.4,0,0,0-.68-.3,5.23,5.23,0,0,0-.83-.05h-1.74v5Zm1.49-6.32h3.22a4.83,4.83,0,0,0,1.6-.21,1.69,1.69,0,0,0,.88-.68,1.84,1.84,0,0,0,.3-1,1.67,1.67,0,0,0-.58-1.32,2.7,2.7,0,0,0-1.84-.52h-3.58Z"/><path class="cls-10" d="M811.27,392.46l1.38-.18a3,3,0,0,0,.82,1.7,2,2,0,0,0,1.4.52,2.21,2.21,0,0,0,1.65-.68,2.28,2.28,0,0,0,.68-1.68,2.13,2.13,0,0,0-.63-1.58,2.16,2.16,0,0,0-1.59-.62,3.72,3.72,0,0,0-1,.16l.16-1.22h.22a2.85,2.85,0,0,0,1.6-.46,1.59,1.59,0,0,0,.71-1.43,1.65,1.65,0,0,0-.52-1.26,1.8,1.8,0,0,0-1.33-.5,1.89,1.89,0,0,0-1.35.51,2.58,2.58,0,0,0-.7,1.52L811.4,387a3.6,3.6,0,0,1,1.16-2.17,3.35,3.35,0,0,1,2.25-.76,3.76,3.76,0,0,1,1.7.39,2.87,2.87,0,0,1,1.19,1.09,2.71,2.71,0,0,1,.42,1.45,2.42,2.42,0,0,1-.4,1.34,2.72,2.72,0,0,1-1.16,1,2.61,2.61,0,0,1,1.56,1,2.9,2.9,0,0,1,.55,1.82,3.34,3.34,0,0,1-1.08,2.51,3.78,3.78,0,0,1-2.73,1,3.55,3.55,0,0,1-2.47-.89A3.38,3.38,0,0,1,811.27,392.46Z"/><path class="cls-10" d="M820,392.49l1.46-.13a2.68,2.68,0,0,0,.75,1.61,2.09,2.09,0,0,0,1.43.53,2.2,2.2,0,0,0,1.69-.75,2.85,2.85,0,0,0,.7-2,2.54,2.54,0,0,0-.67-1.87,2.32,2.32,0,0,0-1.75-.69,2.41,2.41,0,0,0-2.06,1.09l-1.3-.17,1.1-5.8H827v1.32H822.5l-.61,3A3.7,3.7,0,0,1,824,388a3.36,3.36,0,0,1,2.5,1,3.57,3.57,0,0,1,1,2.64,4.16,4.16,0,0,1-.89,2.65,3.58,3.58,0,0,1-3,1.37,3.69,3.69,0,0,1-2.52-.86A3.42,3.42,0,0,1,820,392.49Z"/><path class="cls-10" d="M613.75,631.71l-1.38-.12.77-8.82a7.28,7.28,0,0,1-1.39.84,9.51,9.51,0,0,1-1.52.59l.11-1.34a8.46,8.46,0,0,0,2.15-1.14,5.21,5.21,0,0,0,1.36-1.4l.89.08Z"/><path class="cls-10" d="M618.06,632.09l.14-1.58,1.58.14-.14,1.57Zm.58-6.59.14-1.57,1.57.13-.14,1.58Z"/><path class="cls-10" d="M626.88,632.86l-1.39-.12.77-8.82a7,7,0,0,1-1.39.84,9.16,9.16,0,0,1-1.52.59l.12-1.34a8.39,8.39,0,0,0,2.14-1.14,5.2,5.2,0,0,0,1.36-1.4l.9.08Z"/><path class="cls-10" d="M630.9,627.61a10.31,10.31,0,0,1,.7-3.18,3.93,3.93,0,0,1,1.38-1.77,3.17,3.17,0,0,1,2.1-.48,3.31,3.31,0,0,1,1.56.5,3.21,3.21,0,0,1,1,1.15,5.93,5.93,0,0,1,.55,1.74,11.1,11.1,0,0,1,0,2.68,10.27,10.27,0,0,1-.69,3.17,3.93,3.93,0,0,1-1.38,1.77,3.13,3.13,0,0,1-2.11.49,3.09,3.09,0,0,1-2.45-1.39A7.49,7.49,0,0,1,630.9,627.61Zm1.43.13a7,7,0,0,0,.32,3.74,1.87,1.87,0,0,0,3.21.28,7.17,7.17,0,0,0,1-3.63,7.08,7.08,0,0,0-.33-3.75,1.94,1.94,0,0,0-1.53-1.06,1.81,1.81,0,0,0-1.6.67A7.28,7.28,0,0,0,632.33,627.74Z"/><path class="cls-10" d="M626,399.88l-1.37.25-1.53-8.72a7.15,7.15,0,0,1-1.13,1.17,9,9,0,0,1-1.32,1l-.23-1.32a8.29,8.29,0,0,0,1.77-1.66,5,5,0,0,0,1-1.7l.88-.16Z"/><path class="cls-10" d="M629.1,392.62l-.28-1.55,1.56-.28.27,1.56Zm1.14,6.51-.27-1.55,1.56-.28.27,1.56Z"/><path class="cls-10" d="M633.29,395.59l1.42-.38a2.61,2.61,0,0,0,1,1.45,2,2,0,0,0,1.49.28,2.22,2.22,0,0,0,1.54-1,2.85,2.85,0,0,0,.34-2.09,2.62,2.62,0,0,0-1-1.74,2.35,2.35,0,0,0-1.84-.37,2.48,2.48,0,0,0-1.14.51,2.34,2.34,0,0,0-.7.93l-1.31.06.07-5.91,5.54-1,.23,1.31-4.44.78-.08,3.1a3.73,3.73,0,0,1,2-1.07,3.36,3.36,0,0,1,2.64.58,3.53,3.53,0,0,1,1.46,2.42,4.1,4.1,0,0,1-.42,2.77,3.56,3.56,0,0,1-2.68,1.86,3.67,3.67,0,0,1-2.63-.41A3.38,3.38,0,0,1,633.29,395.59Z"/><path class="cls-10" d="M367.15,290.72l-1.37-.24,1.54-8.72a7.09,7.09,0,0,1-1.46.72,9,9,0,0,1-1.57.45l.24-1.32a8.3,8.3,0,0,0,2.23-1,5.19,5.19,0,0,0,1.48-1.27l.88.16Z"/><path class="cls-10" d="M371.41,291.47l.28-1.56,1.55.28-.27,1.55Zm1.15-6.51.27-1.56,1.56.28-.27,1.55Z"/><path class="cls-10" d="M375.49,289.18l1.46.13a2.57,2.57,0,0,0,.46,1.71,2,2,0,0,0,1.31.77,2.18,2.18,0,0,0,1.8-.45,2.82,2.82,0,0,0,1-1.85,2.55,2.55,0,0,0-.33-2,2.3,2.3,0,0,0-1.6-1,2.42,2.42,0,0,0-2.22.72l-1.25-.39,2.08-5.53,5.54,1-.23,1.31-4.44-.78L378,285.73a3.74,3.74,0,0,1,2.23-.33,3.43,3.43,0,0,1,2.28,1.45,3.56,3.56,0,0,1,.54,2.77,4.06,4.06,0,0,1-1.34,2.46,3.56,3.56,0,0,1-3.16.84,3.67,3.67,0,0,1-2.33-1.29A3.35,3.35,0,0,1,375.49,289.18Z"/><path class="cls-10" d="M870.36,235.16h-2.71v4.91h-1.27l-7.33-5.16v-1.14h7.33v-1.52h1.27v1.52h2.71Zm-4,0h-5.1l5.1,3.54Z"/><path class="cls-10" d="M860.53,230.74h-1.34v-7.32h1.08a16.16,16.16,0,0,0,3.06,2.14,19.29,19.29,0,0,0,3.92,1.64,15.15,15.15,0,0,0,3.11.53v1.42a13.8,13.8,0,0,1-3.23-.52,16.43,16.43,0,0,1-3.64-1.44,15.55,15.55,0,0,1-3-2Z"/><path class="cls-10" d="M823.11,192l.11,1.38a2.65,2.65,0,0,0-1.19.52,1.87,1.87,0,0,0-.59,1.39,1.9,1.9,0,0,0,.37,1.17,3.12,3.12,0,0,0,1.39,1,7.62,7.62,0,0,0,2.62.4,3.33,3.33,0,0,1-1.14-1.23,3.38,3.38,0,0,1-.37-1.52,3.18,3.18,0,0,1,1-2.37,3.66,3.66,0,0,1,2.64-1,4.3,4.3,0,0,1,2,.46,3.3,3.3,0,0,1,1.4,1.26,3.46,3.46,0,0,1,.48,1.82,3.55,3.55,0,0,1-1.27,2.83,6.46,6.46,0,0,1-4.21,1.1,7.52,7.52,0,0,1-4.77-1.22,3.47,3.47,0,0,1-1.29-2.84A3.24,3.24,0,0,1,821,193,3.16,3.16,0,0,1,823.11,192Zm4.88,5.67a3.15,3.15,0,0,0,1.37-.31,2.21,2.21,0,0,0,1-.85,2.11,2.11,0,0,0,.34-1.15,1.94,1.94,0,0,0-.71-1.51,2.79,2.79,0,0,0-1.93-.63,2.63,2.63,0,0,0-1.84.62,2.06,2.06,0,0,0-.68,1.58,2.13,2.13,0,0,0,.68,1.59A2.42,2.42,0,0,0,828,197.66Z"/><path class="cls-10" d="M909.44,280.39l.11,1.38a2.59,2.59,0,0,0-1.19.53,1.83,1.83,0,0,0-.59,1.38,1.9,1.9,0,0,0,.37,1.17,3.15,3.15,0,0,0,1.4,1,7.28,7.28,0,0,0,2.61.4,3.24,3.24,0,0,1-1.5-2.75,3.13,3.13,0,0,1,1-2.36,3.67,3.67,0,0,1,2.64-1,4.3,4.3,0,0,1,2,.46,3.31,3.31,0,0,1,1.4,1.26,3.49,3.49,0,0,1,.49,1.82,3.56,3.56,0,0,1-1.28,2.83,6.44,6.44,0,0,1-4.21,1.1,7.63,7.63,0,0,1-4.77-1.21,3.51,3.51,0,0,1-1.29-2.85,3.2,3.2,0,0,1,.75-2.19A3.14,3.14,0,0,1,909.44,280.39Zm4.88,5.67a3.22,3.22,0,0,0,1.37-.3,2.29,2.29,0,0,0,1-.86,2.11,2.11,0,0,0,.34-1.15,2,2,0,0,0-.7-1.51,2.82,2.82,0,0,0-1.93-.63,2.63,2.63,0,0,0-1.85.62,2.08,2.08,0,0,0-.68,1.58,2.12,2.12,0,0,0,.68,1.59A2.42,2.42,0,0,0,914.32,286.06Z"/><path class="cls-10" d="M915.37,278.6l-.12-1.33a2.35,2.35,0,0,0,1.36-.65,1.8,1.8,0,0,0,.42-1.23,2.08,2.08,0,0,0-.29-1.12,2.36,2.36,0,0,0-.78-.79,4.59,4.59,0,0,0-1.32-.52,7,7,0,0,0-1.7-.21h-.28a3.29,3.29,0,0,1,1.08,1.14,3.24,3.24,0,0,1-.61,3.94,3.71,3.71,0,0,1-2.68,1,3.84,3.84,0,0,1-2.77-1,3.41,3.41,0,0,1-1-2.55,3.63,3.63,0,0,1,2.29-3.4,8.22,8.22,0,0,1,3.18-.48,10.42,10.42,0,0,1,3.45.47,4.09,4.09,0,0,1,2,1.4,3.68,3.68,0,0,1,.67,2.18,3,3,0,0,1-2.81,3.18Zm-5-5.68a2.74,2.74,0,0,0-1.9.63,2,2,0,0,0-.7,1.53,2.14,2.14,0,0,0,.75,1.62,2.85,2.85,0,0,0,2,.68,2.41,2.41,0,0,0,1.76-.65,2.14,2.14,0,0,0,.67-1.61,2,2,0,0,0-.67-1.58A2.64,2.64,0,0,0,910.38,272.92Z"/><path class="cls-10" d="M918,269.24H916.4v-1.58H918Z"/><path class="cls-10" d="M912.41,265.63a10.19,10.19,0,0,1-3.23-.41,4,4,0,0,1-1.89-1.22,3.17,3.17,0,0,1-.66-2.05,3.29,3.29,0,0,1,.37-1.6,3,3,0,0,1,1-1.13,5.63,5.63,0,0,1,1.68-.71,11.81,11.81,0,0,1,2.68-.25,10.48,10.48,0,0,1,3.21.41,4.07,4.07,0,0,1,1.89,1.22,3.17,3.17,0,0,1,.67,2.06,3.1,3.1,0,0,1-1.18,2.57A7.48,7.48,0,0,1,912.41,265.63Zm0-1.42a7.12,7.12,0,0,0,3.7-.65,1.87,1.87,0,0,0,0-3.22,7,7,0,0,0-3.7-.65c-1.87,0-3.1.21-3.71.65a1.92,1.92,0,0,0-.92,1.62,1.78,1.78,0,0,0,.81,1.53A7.15,7.15,0,0,0,912.41,264.21Z"/><path class="cls-10" d="M915,256.87l-.12-1.46a2.65,2.65,0,0,0,1.6-.75,2,2,0,0,0,.54-1.42,2.23,2.23,0,0,0-.76-1.7,2.86,2.86,0,0,0-2-.7,2.59,2.59,0,0,0-1.87.67,2.33,2.33,0,0,0-.69,1.75,2.45,2.45,0,0,0,.31,1.21,2.4,2.4,0,0,0,.79.85l-.17,1.3-5.81-1.09V249.9h1.33v4.52l3,.61a3.66,3.66,0,0,1-.71-2.14,3.39,3.39,0,0,1,1-2.5,3.6,3.6,0,0,1,2.64-1,4.12,4.12,0,0,1,2.66.9,3.58,3.58,0,0,1,1.37,3,3.63,3.63,0,0,1-.87,2.51A3.36,3.36,0,0,1,915,256.87Z"/><path class="cls-10" d="M581.3,149.05v-1.39h8.85a7.06,7.06,0,0,1-1-1.31,9.19,9.19,0,0,1-.71-1.47h1.34a8.43,8.43,0,0,0,1.32,2,5.42,5.42,0,0,0,1.52,1.24v.89Z"/><path class="cls-10" d="M582.64,159.9H581.3v-7.47a2.44,2.44,0,0,1,1,.16,5.2,5.2,0,0,1,1.5.91,15,15,0,0,1,1.71,1.82,15.26,15.26,0,0,0,2.4,2.49,2.87,2.87,0,0,0,1.67.65,1.87,1.87,0,0,0,1.39-.59,2.12,2.12,0,0,0,.57-1.54,2.16,2.16,0,0,0-.6-1.6,2.28,2.28,0,0,0-1.67-.61l.15-1.43a3.56,3.56,0,0,1,2.43,1.1,3.77,3.77,0,0,1,.84,2.57,3.55,3.55,0,0,1-.91,2.58,3,3,0,0,1-2.23.95,3.32,3.32,0,0,1-1.34-.28,5.24,5.24,0,0,1-1.38-.92,23.59,23.59,0,0,1-2-2.14c-.7-.84-1.17-1.37-1.42-1.61a4.74,4.74,0,0,0-.75-.58Z"/><path class="cls-10" d="M581.3,162.17h1.58v1.58H581.3Z"/><path class="cls-10" d="M583.92,166l.12,1.33a2.32,2.32,0,0,0-1.36.65,1.76,1.76,0,0,0-.43,1.23,2.17,2.17,0,0,0,.29,1.12,2.48,2.48,0,0,0,.79.79,4.36,4.36,0,0,0,1.32.52,6.94,6.94,0,0,0,1.7.21h.27a3.17,3.17,0,0,1-1.07-1.14,3,3,0,0,1-.41-1.56,3.19,3.19,0,0,1,1-2.38,3.73,3.73,0,0,1,2.69-1,3.8,3.8,0,0,1,2.77,1,3.37,3.37,0,0,1,1,2.54,3.59,3.59,0,0,1-.6,2,3.65,3.65,0,0,1-1.69,1.39,8.22,8.22,0,0,1-3.18.48,10.34,10.34,0,0,1-3.45-.47,4.09,4.09,0,0,1-2-1.4,3.62,3.62,0,0,1-.67-2.18,3,3,0,0,1,2.81-3.18Zm5,5.68a2.74,2.74,0,0,0,1.9-.63,2,2,0,0,0,.7-1.53,2.11,2.11,0,0,0-.76-1.62,2.83,2.83,0,0,0-2-.68,2.43,2.43,0,0,0-1.75.65,2.14,2.14,0,0,0-.68,1.61,2.05,2.05,0,0,0,.68,1.58A2.62,2.62,0,0,0,588.91,171.67Z"/><path class="cls-10" d="M589.84,181.75l-.11-1.38a2.6,2.6,0,0,0,1.18-.52,1.84,1.84,0,0,0,.6-1.39,1.9,1.9,0,0,0-.37-1.17,3.15,3.15,0,0,0-1.4-1,7.51,7.51,0,0,0-2.61-.4,3.24,3.24,0,0,1,1.5,2.75,3.17,3.17,0,0,1-1,2.37,3.66,3.66,0,0,1-2.64,1,4.3,4.3,0,0,1-2-.46,3.24,3.24,0,0,1-1.4-1.26,3.47,3.47,0,0,1-.49-1.82,3.56,3.56,0,0,1,1.28-2.83,6.44,6.44,0,0,1,4.21-1.1,7.51,7.51,0,0,1,4.76,1.22,3.45,3.45,0,0,1,1.3,2.84,3.2,3.2,0,0,1-.75,2.19A3.16,3.16,0,0,1,589.84,181.75ZM585,176.08a3.09,3.09,0,0,0-1.37.31,2.21,2.21,0,0,0-1,.85,2.11,2.11,0,0,0-.34,1.15,2,2,0,0,0,.7,1.51,2.82,2.82,0,0,0,1.93.63,2.65,2.65,0,0,0,1.85-.62,2.06,2.06,0,0,0,.68-1.58,2.13,2.13,0,0,0-.68-1.59A2.42,2.42,0,0,0,585,176.08Z"/><path class="cls-10" d="M840.92,581l.11,1.39a2.54,2.54,0,0,0-1.19.52,1.83,1.83,0,0,0-.59,1.39,1.87,1.87,0,0,0,.37,1.16,3.21,3.21,0,0,0,1.39,1,7.37,7.37,0,0,0,2.62.39,3.18,3.18,0,0,1-1.14-1.23,3.38,3.38,0,0,1-.37-1.52,3.12,3.12,0,0,1,1-2.36,3.67,3.67,0,0,1,2.64-1,4.43,4.43,0,0,1,2,.46,3.29,3.29,0,0,1,1.88,3.08,3.55,3.55,0,0,1-1.28,2.84,6.43,6.43,0,0,1-4.2,1.09c-2.19,0-3.78-.4-4.77-1.21a3.49,3.49,0,0,1-1.3-2.85,3.17,3.17,0,0,1,.75-2.18A3.22,3.22,0,0,1,840.92,581Zm4.87,5.67a3.3,3.3,0,0,0,1.38-.3,2.33,2.33,0,0,0,1-.85,2.13,2.13,0,0,0,.34-1.15,2,2,0,0,0-.71-1.51,2.76,2.76,0,0,0-1.93-.64,2.61,2.61,0,0,0-1.85.63,2,2,0,0,0-.67,1.57A2.14,2.14,0,0,0,844,586,2.42,2.42,0,0,0,845.79,586.65Z"/><path class="cls-10" d="M840.92,572.2l.11,1.38a2.65,2.65,0,0,0-1.19.52,1.83,1.83,0,0,0-.59,1.39,1.92,1.92,0,0,0,.37,1.17,3.19,3.19,0,0,0,1.39,1,7.37,7.37,0,0,0,2.62.39,3.23,3.23,0,0,1-1.14-1.22,3.41,3.41,0,0,1-.37-1.52,3.13,3.13,0,0,1,1-2.37,3.66,3.66,0,0,1,2.64-1,4.3,4.3,0,0,1,2,.46,3.36,3.36,0,0,1,1.4,1.26,3.46,3.46,0,0,1,.48,1.82,3.53,3.53,0,0,1-1.28,2.83,6.43,6.43,0,0,1-4.2,1.1,7.52,7.52,0,0,1-4.77-1.22,3.48,3.48,0,0,1-1.3-2.84,3.2,3.2,0,0,1,.75-2.19A3.16,3.16,0,0,1,840.92,572.2Zm4.87,5.67a3.16,3.16,0,0,0,1.38-.31,2.26,2.26,0,0,0,1-.85,2.11,2.11,0,0,0,.34-1.15,2,2,0,0,0-.71-1.51,2.8,2.8,0,0,0-1.93-.63A2.65,2.65,0,0,0,844,574a2.06,2.06,0,0,0-.67,1.58,2.12,2.12,0,0,0,.67,1.59A2.42,2.42,0,0,0,845.79,577.87Z"/><path class="cls-10" d="M849.46,569.84h-1.58v-1.58h1.58Z"/><path class="cls-10" d="M846.47,566.22l-.18-1.39A3.08,3.08,0,0,0,848,564a2,2,0,0,0,.52-1.4,2.31,2.31,0,0,0-2.36-2.33,2.16,2.16,0,0,0-1.58.62,2.19,2.19,0,0,0-.62,1.59,3.72,3.72,0,0,0,.16,1l-1.22-.15a2,2,0,0,0,0-.23,2.82,2.82,0,0,0-.46-1.59,1.57,1.57,0,0,0-1.43-.71,1.68,1.68,0,0,0-1.26.51,1.83,1.83,0,0,0-.5,1.34,1.89,1.89,0,0,0,.51,1.35,2.49,2.49,0,0,0,1.52.69l-.24,1.39a3.56,3.56,0,0,1-2.17-1.15,3.39,3.39,0,0,1-.77-2.25,3.73,3.73,0,0,1,.4-1.7,3,3,0,0,1,1.09-1.2,2.79,2.79,0,0,1,1.45-.41,2.41,2.41,0,0,1,1.34.39,2.72,2.72,0,0,1,1,1.17,2.68,2.68,0,0,1,1-1.56,3,3,0,0,1,1.83-.55,3.34,3.34,0,0,1,2.51,1.08,3.78,3.78,0,0,1,1,2.73,3.57,3.57,0,0,1-.89,2.47A3.44,3.44,0,0,1,846.47,566.22Z"/><path class="cls-10" d="M846.48,557.46l-.19-1.39a3.08,3.08,0,0,0,1.7-.81,2,2,0,0,0,.52-1.4,2.22,2.22,0,0,0-.68-1.66,2.28,2.28,0,0,0-1.68-.67,2.12,2.12,0,0,0-1.58.62,2.19,2.19,0,0,0-.62,1.59,4.19,4.19,0,0,0,.16,1l-1.22-.15a2.11,2.11,0,0,0,0-.23,2.82,2.82,0,0,0-.46-1.59A1.56,1.56,0,0,0,841,552a1.7,1.7,0,0,0-1.27.51,1.87,1.87,0,0,0-.5,1.34,1.89,1.89,0,0,0,.51,1.35,2.54,2.54,0,0,0,1.53.69l-.25,1.39a3.62,3.62,0,0,1-2.17-1.16,3.34,3.34,0,0,1-.76-2.24,3.77,3.77,0,0,1,.39-1.71,2.93,2.93,0,0,1,1.09-1.19,2.83,2.83,0,0,1,1.46-.41,2.41,2.41,0,0,1,1.33.39,2.69,2.69,0,0,1,1,1.17,2.58,2.58,0,0,1,1-1.56,2.9,2.9,0,0,1,1.82-.56,3.32,3.32,0,0,1,2.51,1.08,3.78,3.78,0,0,1,1,2.73,3.53,3.53,0,0,1-.89,2.48A3.42,3.42,0,0,1,846.48,557.46Z"/><path class="cls-10" d="M105.56,670.76v1.39H96.71a7.53,7.53,0,0,1,1,1.32,8.35,8.35,0,0,1,.71,1.46H97a8.14,8.14,0,0,0-1.32-2,5.2,5.2,0,0,0-1.52-1.23v-.9Z"/><path class="cls-10" d="M95.73,667.13H94.4v-7.32h1.08a15.32,15.32,0,0,0,3,2.14,18.74,18.74,0,0,0,3.92,1.64,14.62,14.62,0,0,0,3.11.53v1.43a13.88,13.88,0,0,1-3.23-.53,16.89,16.89,0,0,1-3.64-1.43,15.56,15.56,0,0,1-3-2Z"/><path class="cls-10" d="M69.56,419.3v1.38H60.71a7.53,7.53,0,0,1,1,1.32,10.08,10.08,0,0,1,.71,1.46H61a8.11,8.11,0,0,0-1.33-2,5.06,5.06,0,0,0-1.51-1.24v-.89Z"/><path class="cls-10" d="M66.57,415.73l-.18-1.39a3.11,3.11,0,0,0,1.7-.81,2,2,0,0,0,.52-1.4,2.25,2.25,0,0,0-.68-1.65,2.28,2.28,0,0,0-1.68-.68,2.12,2.12,0,0,0-1.58.63,2.15,2.15,0,0,0-.62,1.58,4,4,0,0,0,.15,1L63,412.84a1,1,0,0,0,0-.22,2.83,2.83,0,0,0-.46-1.6,1.6,1.6,0,0,0-1.43-.71,1.65,1.65,0,0,0-1.26.52,1.81,1.81,0,0,0-.51,1.33,1.89,1.89,0,0,0,.51,1.35,2.61,2.61,0,0,0,1.53.7l-.25,1.38A3.56,3.56,0,0,1,59,414.44a3.37,3.37,0,0,1-.77-2.25,3.61,3.61,0,0,1,.4-1.7,2.84,2.84,0,0,1,1.08-1.19,2.77,2.77,0,0,1,1.46-.42,2.37,2.37,0,0,1,1.34.4,2.63,2.63,0,0,1,1,1.16,2.68,2.68,0,0,1,1-1.56,3,3,0,0,1,1.83-.55,3.35,3.35,0,0,1,2.51,1.08,3.83,3.83,0,0,1,1,2.73,3.57,3.57,0,0,1-.89,2.47A3.4,3.4,0,0,1,66.57,415.73Z"/><path class="cls-10" d="M64,407a10.23,10.23,0,0,1-3.23-.41,3.92,3.92,0,0,1-1.88-1.23,3.08,3.08,0,0,1-.67-2,3.29,3.29,0,0,1,.37-1.6,2.87,2.87,0,0,1,1.06-1.13,5.63,5.63,0,0,1,1.68-.71,11.17,11.17,0,0,1,2.67-.25,10.39,10.39,0,0,1,3.21.41,4,4,0,0,1,1.89,1.22,3.45,3.45,0,0,1-.5,4.63A7.51,7.51,0,0,1,64,407Zm0-1.42a7.16,7.16,0,0,0,3.71-.65,2,2,0,0,0,.92-1.61,1.91,1.91,0,0,0-.93-1.61A7,7,0,0,0,64,401a7,7,0,0,0-3.71.65,1.93,1.93,0,0,0-.92,1.62,1.78,1.78,0,0,0,.81,1.53A7.15,7.15,0,0,0,64,405.53Z"/><g class="cls-6"><path class="cls-10" d="M72.88,390.76a13.93,13.93,0,0,1-3.39,1.95,10.73,10.73,0,0,1-7.55.2,14.61,14.61,0,0,1-3.88-2.15v-1c1.07.62,1.83,1,2.29,1.23a12.05,12.05,0,0,0,2.22.74,13,13,0,0,0,2.9.34,13.91,13.91,0,0,0,7.41-2.31Z"/></g><path class="cls-10" d="M66.6,388.55l-.13-1.46a2.62,2.62,0,0,0,1.6-.75,2.05,2.05,0,0,0,.54-1.43,2.19,2.19,0,0,0-.76-1.69,2.8,2.8,0,0,0-2-.7,2.62,2.62,0,0,0-1.88.67,2.35,2.35,0,0,0-.68,1.75A2.41,2.41,0,0,0,64.38,387l-.17,1.3-5.81-1.1v-5.62h1.33v4.51l3,.61a3.7,3.7,0,0,1-.71-2.13,3.36,3.36,0,0,1,1-2.5,3.57,3.57,0,0,1,2.64-1,4.16,4.16,0,0,1,2.65.89,3.61,3.61,0,0,1,1.37,3,3.69,3.69,0,0,1-.86,2.52A3.42,3.42,0,0,1,66.6,388.55Z"/><path class="cls-10" d="M69.56,379H68V377.4h1.58Z"/><path class="cls-10" d="M69.56,370.15v1.39H60.71a7.53,7.53,0,0,1,1,1.32,9.27,9.27,0,0,1,.72,1.46H61a8.14,8.14,0,0,0-1.32-2,5.3,5.3,0,0,0-1.51-1.23v-.9Z"/><path class="cls-10" d="M69.56,361.37v1.39H60.71a7.06,7.06,0,0,1,1,1.31,9.27,9.27,0,0,1,.72,1.46H61a8.26,8.26,0,0,0-1.32-2,5.54,5.54,0,0,0-1.51-1.24v-.89Z"/><path class="cls-10" d="M63.43,356.82a2.6,2.6,0,0,1-.9,1.28,2.37,2.37,0,0,1-1.41.42,2.75,2.75,0,0,1-2.07-.89,3.73,3.73,0,0,1,0-4.74,2.78,2.78,0,0,1,2.09-.9,2.29,2.29,0,0,1,1.37.41,2.56,2.56,0,0,1,.9,1.25,2.89,2.89,0,0,1,2.9-2.13,3.23,3.23,0,0,1,2.44,1,4.19,4.19,0,0,1,0,5.4,3.3,3.3,0,0,1-2.47,1,3,3,0,0,1-1.85-.56A2.81,2.81,0,0,1,63.43,356.82Zm-2.35.28a1.75,1.75,0,0,0,1.31-.52,1.82,1.82,0,0,0,.51-1.34,1.78,1.78,0,0,0-.51-1.31,1.65,1.65,0,0,0-1.24-.52,1.74,1.74,0,0,0-1.28.53,1.94,1.94,0,0,0,0,2.63A1.64,1.64,0,0,0,61.08,357.1Zm5.22.45a2.63,2.63,0,0,0,1.15-.28,2,2,0,0,0,.86-.84,2.48,2.48,0,0,0,.3-1.2,2.21,2.21,0,0,0-2.27-2.29,2.19,2.19,0,0,0-1.65.67,2.27,2.27,0,0,0-.66,1.67,2.22,2.22,0,0,0,2.27,2.27Z"/><path class="cls-10" d="M62.26,347.16l-2.16.38H58.25V346H60.1l2.16.37Zm0,2.56-2.16.38H58.25v-1.58H60.1l2.16.35Z"/><g class="cls-6"><path class="cls-10" d="M72.88,343.27v1A13.91,13.91,0,0,0,65.47,342a12.72,12.72,0,0,0-2.88.33,12.05,12.05,0,0,0-2.22.74,25.54,25.54,0,0,0-2.31,1.24v-1a14.85,14.85,0,0,1,3.88-2.14,10.41,10.41,0,0,1,3.52-.59,10.56,10.56,0,0,1,4,.79A14.58,14.58,0,0,1,72.88,343.27Z"/></g><path class="cls-10" d="M220,245h-2.71v4.91H216l-7.33-5.16v-1.14H216V242h1.27v1.53H220Zm-4,0h-5.1l5.1,3.54Z"/><path class="cls-10" d="M220,235.39v1.38h-8.85a7.53,7.53,0,0,1,1,1.32,9.27,9.27,0,0,1,.72,1.46h-1.34a8.65,8.65,0,0,0-1.33-2,5.17,5.17,0,0,0-1.51-1.23v-.89Z"/><path class="cls-10" d="M220,231.05h-1.58v-1.58H220Z"/><path class="cls-10" d="M220,222.21v1.39h-8.85a7.06,7.06,0,0,1,1,1.31,9.33,9.33,0,0,1,.72,1.47h-1.34a8.45,8.45,0,0,0-1.33-2,5.17,5.17,0,0,0-1.51-1.23v-.9Z"/><path class="cls-10" d="M217,218.65l-.12-1.45a2.6,2.6,0,0,0,1.6-.76A2,2,0,0,0,219,215a2.24,2.24,0,0,0-.75-1.7,2.87,2.87,0,0,0-2-.69,2.55,2.55,0,0,0-1.87.67,2.3,2.3,0,0,0-.69,1.74,2.38,2.38,0,0,0,.31,1.22,2.21,2.21,0,0,0,.79.84l-.17,1.31-5.81-1.1v-5.62h1.33v4.51l3,.61a3.71,3.71,0,0,1-.71-2.14,3.42,3.42,0,0,1,1-2.5,3.6,3.6,0,0,1,2.64-1,4.08,4.08,0,0,1,2.65.89,3.59,3.59,0,0,1,1.38,3,3.64,3.64,0,0,1-.87,2.52A3.35,3.35,0,0,1,217,218.65Z"/><path class="cls-10" d="M317.35,222.35l-11.23,1.29-.57-5a6.38,6.38,0,0,1,0-2.32,2.53,2.53,0,0,1,.92-1.37,3.21,3.21,0,0,1,1.64-.66,2.88,2.88,0,0,1,2.11.54,4,4,0,0,1,1.31,2.27,4.31,4.31,0,0,1,.46-1,8,8,0,0,1,1.35-1.41l2.84-2.3.21,1.87-2.17,1.75c-.62.52-1.1.93-1.42,1.25a3.21,3.21,0,0,0-.66.85,2.11,2.11,0,0,0-.23.71,4.71,4.71,0,0,0,.05.83l.19,1.73,5-.58Zm-6.44-.76-.37-3.2a4.74,4.74,0,0,0-.4-1.57,1.71,1.71,0,0,0-.77-.8,1.87,1.87,0,0,0-1-.18,1.69,1.69,0,0,0-1.25.73,2.8,2.8,0,0,0-.3,1.89l.41,3.55Z"/><path class="cls-10" d="M309.78,210.18a2.57,2.57,0,0,1-.75,1.37,2.31,2.31,0,0,1-1.35.57,2.7,2.7,0,0,1-2.16-.64,3.74,3.74,0,0,1-.52-4.71,2.75,2.75,0,0,1,2-1.14,2.27,2.27,0,0,1,1.4.25,2.56,2.56,0,0,1,1,1.15,3,3,0,0,1,.91-1.7,3,3,0,0,1,1.73-.75,3.27,3.27,0,0,1,2.54.74,4.18,4.18,0,0,1,.61,5.37,3.35,3.35,0,0,1-2.34,1.3,3,3,0,0,1-1.9-.35A2.82,2.82,0,0,1,309.78,210.18Zm-2.3.54a1.76,1.76,0,0,0,1.24-.66,2,2,0,0,0-.3-2.64,1.65,1.65,0,0,0-1.29-.37,1.73,1.73,0,0,0-1.21.67,1.78,1.78,0,0,0-.37,1.37,1.82,1.82,0,0,0,.66,1.25A1.64,1.64,0,0,0,307.48,210.72Zm5.24-.15a2.59,2.59,0,0,0,1.11-.41,2,2,0,0,0,.75-.93,2.42,2.42,0,0,0,.17-1.22,2.26,2.26,0,0,0-.82-1.56,2.18,2.18,0,0,0-1.69-.46,2.26,2.26,0,0,0-1.58.85,2.33,2.33,0,0,0-.46,1.74,2.22,2.22,0,0,0,2.52,2Z"/><path class="cls-10" d="M309.57,203.51a10.42,10.42,0,0,1-3.25,0,4.08,4.08,0,0,1-2-1,3.18,3.18,0,0,1-.9-2,3.48,3.48,0,0,1,.19-1.63,3,3,0,0,1,.92-1.24,5.46,5.46,0,0,1,1.59-.89,10.86,10.86,0,0,1,2.62-.56,10.36,10.36,0,0,1,3.24,0,4,4,0,0,1,2,1,3.18,3.18,0,0,1,.9,2,3.14,3.14,0,0,1-.87,2.69A7.55,7.55,0,0,1,309.57,203.51Zm-.16-1.42A7.08,7.08,0,0,0,313,201a1.87,1.87,0,0,0-.37-3.2,10.94,10.94,0,0,0-7.37.85,1.93,1.93,0,0,0-.72,1.72,1.76,1.76,0,0,0,1,1.42A7.13,7.13,0,0,0,309.41,202.09Z"/><polyline class="cls-3" points="778.05 666.56 747.14 681.08 681.96 681.08"/><polygon class="cls-4" points="774.12 664.35 788.68 661.74 777.38 671.28 774.12 664.35"/><line class="cls-3" x1="777.56" y1="691.43" x2="747.14" y2="681.08"/><polygon class="cls-4" points="776.27 687.11 788.56 695.33 773.8 694.36 776.27 687.11"/><path class="cls-10" d="M682.54,676.13V664.82h5a6.73,6.73,0,0,1,2.29.3,2.54,2.54,0,0,1,1.26,1.08,3.13,3.13,0,0,1,.47,1.7,2.83,2.83,0,0,1-.78,2,3.94,3.94,0,0,1-2.4,1.05,3.9,3.9,0,0,1,.9.57,7.62,7.62,0,0,1,1.24,1.5l2,3.08h-1.88l-1.5-2.36c-.44-.67-.8-1.19-1.08-1.55a3.36,3.36,0,0,0-.76-.76,2.4,2.4,0,0,0-.68-.3,4.3,4.3,0,0,0-.84,0H684v5Zm1.5-6.32h3.21a4.9,4.9,0,0,0,1.61-.21,1.73,1.73,0,0,0,.88-.68,1.84,1.84,0,0,0,.3-1,1.66,1.66,0,0,0-.58-1.31,2.7,2.7,0,0,0-1.84-.52H684Z"/><path class="cls-10" d="M693.37,673.14l1.39-.18a3.11,3.11,0,0,0,.81,1.7,2,2,0,0,0,1.4.52,2.31,2.31,0,0,0,2.33-2.36,2.15,2.15,0,0,0-.62-1.58,2.19,2.19,0,0,0-1.59-.62,4.1,4.1,0,0,0-1,.15l.15-1.22a1.06,1.06,0,0,0,.23,0,2.82,2.82,0,0,0,1.59-.46,1.58,1.58,0,0,0,.71-1.43,1.68,1.68,0,0,0-.51-1.26,1.83,1.83,0,0,0-1.34-.51,1.89,1.89,0,0,0-1.35.51,2.54,2.54,0,0,0-.69,1.53l-1.39-.25a3.57,3.57,0,0,1,1.16-2.16,3.35,3.35,0,0,1,2.24-.77,3.78,3.78,0,0,1,1.71.4,2.91,2.91,0,0,1,1.19,1.08,2.85,2.85,0,0,1,.41,1.46,2.44,2.44,0,0,1-.39,1.34,2.61,2.61,0,0,1-1.17,1,2.68,2.68,0,0,1,1.56,1,3,3,0,0,1,.56,1.83,3.35,3.35,0,0,1-1.08,2.51,3.83,3.83,0,0,1-2.73,1,3.57,3.57,0,0,1-2.48-.89A3.44,3.44,0,0,1,693.37,673.14Z"/><path class="cls-10" d="M784.86,251l-.17,1.37-8.78-1.12a7,7,0,0,1,.78,1.43,8.85,8.85,0,0,1,.53,1.54l-1.33-.17a8.56,8.56,0,0,0-1.06-2.19,5.22,5.22,0,0,0-1.34-1.41l.11-.89Z"/><path class="cls-10" d="M778.85,245.84l-1.57-.2.2-1.57,1.57.2Zm6.56.83-1.57-.2.2-1.57,1.57.2Z"/><path class="cls-10" d="M778.31,234.84l-.07,1.39a2.49,2.49,0,0,0-1.24.37,1.83,1.83,0,0,0-.77,1.3,2,2,0,0,0,.22,1.2,3.05,3.05,0,0,0,1.26,1.2,7.31,7.31,0,0,0,2.54.73,3.23,3.23,0,0,1-1.14-2.92,3.12,3.12,0,0,1,1.31-2.22,3.69,3.69,0,0,1,2.74-.63,4.38,4.38,0,0,1,1.91.71,3.38,3.38,0,0,1,1.23,1.43,3.42,3.42,0,0,1,.25,1.86,3.57,3.57,0,0,1-1.63,2.65,6.4,6.4,0,0,1-4.31.55,7.51,7.51,0,0,1-4.57-1.8,3.49,3.49,0,0,1-.93-3,3,3,0,0,1,3.2-2.83Zm4.12,6.25a3.33,3.33,0,0,0,1.4-.13,2.36,2.36,0,0,0,1.1-.72,2.17,2.17,0,0,0,.48-1.1,1.93,1.93,0,0,0-.51-1.59,2.76,2.76,0,0,0-1.83-.87,2.58,2.58,0,0,0-1.91.39,2,2,0,0,0-.87,1.47,2.11,2.11,0,0,0,.47,1.67A2.45,2.45,0,0,0,782.43,241.09Z"/><path class="cls-10" d="M678.38,244.24l-.18,1.37-8.77-1.12a7.46,7.46,0,0,1,.78,1.43,9.77,9.77,0,0,1,.53,1.54l-1.33-.17a8.56,8.56,0,0,0-1.06-2.19,5.1,5.1,0,0,0-1.35-1.41l.12-.89Z"/><path class="cls-10" d="M672.37,239.11l-1.57-.2.2-1.57,1.57.2Zm6.56.83-1.57-.2.2-1.57,1.57.2Z"/><path class="cls-10" d="M671.83,228.11l-.06,1.38a2.72,2.72,0,0,0-1.25.37,1.86,1.86,0,0,0-.76,1.3,1.92,1.92,0,0,0,.21,1.21,3.25,3.25,0,0,0,1.26,1.2,7.12,7.12,0,0,0,2.54.72,3.33,3.33,0,0,1-1-1.36,3.29,3.29,0,0,1-.17-1.55,3.15,3.15,0,0,1,1.31-2.22,3.67,3.67,0,0,1,2.75-.63,4.37,4.37,0,0,1,1.9.7,3.3,3.3,0,0,1,1.23,1.43,3.45,3.45,0,0,1,.25,1.87,3.59,3.59,0,0,1-1.62,2.65,6.5,6.5,0,0,1-4.32.55,7.54,7.54,0,0,1-4.57-1.81,3.46,3.46,0,0,1-.93-3,3.26,3.26,0,0,1,1-2.08A3.19,3.19,0,0,1,671.83,228.11Zm4.12,6.24a3.16,3.16,0,0,0,1.4-.13,2.24,2.24,0,0,0,1.59-1.81,2,2,0,0,0-.52-1.59,2.74,2.74,0,0,0-1.83-.87,2.63,2.63,0,0,0-1.91.38,2.06,2.06,0,0,0-.87,1.48,2.15,2.15,0,0,0,.47,1.67A2.42,2.42,0,0,0,676,234.35Z"/><path class="cls-10" d="M538.59,255.25l.16,1.38-8.78,1a7.67,7.67,0,0,1,1.1,1.19,9.47,9.47,0,0,1,.89,1.37l-1.33.16a8.76,8.76,0,0,0-1.56-1.87,5.36,5.36,0,0,0-1.65-1l-.1-.89Z"/><path class="cls-10" d="M531.52,251.73l-1.57.19-.19-1.57,1.57-.19Zm6.56-.78-1.57.19-.19-1.57,1.57-.19Z"/><path class="cls-10" d="M528.32,241.21l.27,1.36a2.64,2.64,0,0,0-1.11.66,1.86,1.86,0,0,0-.43,1.45,1.9,1.9,0,0,0,.51,1.12,3.2,3.2,0,0,0,1.5.86,7.61,7.61,0,0,0,2.65.08,3.1,3.1,0,0,1-1.27-1.09,3.26,3.26,0,0,1,.18-3.93,3.67,3.67,0,0,1,2.51-1.28,4.42,4.42,0,0,1,2,.22,3.34,3.34,0,0,1,1.54,1.09,3.4,3.4,0,0,1,.7,1.75,3.57,3.57,0,0,1-.94,3,6.37,6.37,0,0,1-4,1.59,7.64,7.64,0,0,1-4.88-.64,3.49,3.49,0,0,1-1.62-2.68,3.17,3.17,0,0,1,.48-2.26A3.21,3.21,0,0,1,528.32,241.21Zm5.51,5.06a3.17,3.17,0,0,0,1.33-.47,2.21,2.21,0,0,0,.89-1,2.14,2.14,0,0,0,.21-1.18,2,2,0,0,0-.89-1.42,2.79,2.79,0,0,0-2-.4,2.61,2.61,0,0,0-1.76.84,2.06,2.06,0,0,0-.48,1.64,2.14,2.14,0,0,0,.86,1.51A2.41,2.41,0,0,0,533.83,246.27Z"/><path class="cls-10" d="M450.9,776.39h-1.39v-8.85a6.84,6.84,0,0,1-1.32,1,10.08,10.08,0,0,1-1.46.71v-1.34a8.17,8.17,0,0,0,2-1.33A5.17,5.17,0,0,0,450,765h.9Z"/><path class="cls-10" d="M454.45,773.42l1.46-.12a2.65,2.65,0,0,0,.75,1.6,2.05,2.05,0,0,0,1.43.54,2.18,2.18,0,0,0,1.69-.76,2.8,2.8,0,0,0,.7-2,2.56,2.56,0,0,0-.67-1.88,2.32,2.32,0,0,0-1.75-.69,2.47,2.47,0,0,0-1.21.31,2.4,2.4,0,0,0-.85.79l-1.3-.17,1.1-5.81h5.62v1.33h-4.51l-.61,3a3.7,3.7,0,0,1,2.13-.71,3.39,3.39,0,0,1,2.5,1,3.6,3.6,0,0,1,1,2.64,4.16,4.16,0,0,1-.89,2.66,3.61,3.61,0,0,1-3,1.37,3.69,3.69,0,0,1-2.52-.86A3.42,3.42,0,0,1,454.45,773.42Z"/><path class="cls-10" d="M463.24,770.81a10.53,10.53,0,0,1,.41-3.23,4.16,4.16,0,0,1,1.23-1.89,3.13,3.13,0,0,1,2.05-.66,3.25,3.25,0,0,1,1.59.37,3,3,0,0,1,1.14,1.05,5.81,5.81,0,0,1,.7,1.69,11.17,11.17,0,0,1,.25,2.67,10.43,10.43,0,0,1-.4,3.21,4,4,0,0,1-1.23,1.89,3.43,3.43,0,0,1-4.62-.5A7.44,7.44,0,0,1,463.24,770.81Zm1.43,0a7.06,7.06,0,0,0,.65,3.71,1.86,1.86,0,0,0,3.22,0,10.88,10.88,0,0,0,0-7.41,2,2,0,0,0-1.63-.92,1.79,1.79,0,0,0-1.53.81A7.27,7.27,0,0,0,464.67,770.81Z"/><path class="cls-10" d="M479.45,779.71a14.24,14.24,0,0,1-1.94-3.39,10.56,10.56,0,0,1-.79-4,10.41,10.41,0,0,1,.59-3.52,15.06,15.06,0,0,1,2.14-3.89h1c-.62,1.07-1,1.84-1.24,2.3a12.64,12.64,0,0,0-1.07,5.12,13.91,13.91,0,0,0,2.31,7.41Z"/><path class="cls-10" d="M481.68,773.42l1.45-.12a2.6,2.6,0,0,0,.76,1.6,2,2,0,0,0,1.42.54,2.21,2.21,0,0,0,1.7-.76,2.84,2.84,0,0,0,.69-2,2.56,2.56,0,0,0-.67-1.88,2.3,2.3,0,0,0-1.74-.69,2.48,2.48,0,0,0-1.22.31,2.29,2.29,0,0,0-.84.79l-1.31-.17,1.1-5.81h5.62v1.33h-4.51l-.61,3a3.71,3.71,0,0,1,2.14-.71,3.41,3.41,0,0,1,2.5,1,3.64,3.64,0,0,1,1,2.64,4.16,4.16,0,0,1-.89,2.66,3.61,3.61,0,0,1-3,1.37,3.69,3.69,0,0,1-2.52-.86A3.37,3.37,0,0,1,481.68,773.42Z"/><path class="cls-10" d="M491.24,776.39V774.8h1.58v1.59Z"/><path class="cls-10" d="M495.06,773.77l1.33-.12A2.35,2.35,0,0,0,497,775a1.76,1.76,0,0,0,1.23.43,2.09,2.09,0,0,0,1.12-.3,2.36,2.36,0,0,0,.79-.78,4.59,4.59,0,0,0,.52-1.32,6.94,6.94,0,0,0,.21-1.7c0-.06,0-.15,0-.28a3.2,3.2,0,0,1-1.14,1.08,3,3,0,0,1-1.56.41,3.16,3.16,0,0,1-2.38-1,3.69,3.69,0,0,1-1-2.68,3.84,3.84,0,0,1,1-2.77,3.41,3.41,0,0,1,2.55-1.05,3.59,3.59,0,0,1,2,.6,3.65,3.65,0,0,1,1.39,1.69,8.22,8.22,0,0,1,.48,3.18,10.34,10.34,0,0,1-.47,3.45,4.09,4.09,0,0,1-1.4,2,3.68,3.68,0,0,1-2.18.67,3,3,0,0,1-3.18-2.81Zm5.68-5a2.74,2.74,0,0,0-.63-1.9,2,2,0,0,0-1.53-.7,2.11,2.11,0,0,0-1.62.76,2.82,2.82,0,0,0-.68,2,2.39,2.39,0,0,0,.65,1.75,2.14,2.14,0,0,0,1.61.68,2.05,2.05,0,0,0,1.58-.68A2.62,2.62,0,0,0,500.74,768.78Z"/><path class="cls-10" d="M503.64,770.81a10.23,10.23,0,0,1,.41-3.23,4,4,0,0,1,1.23-1.89,3.12,3.12,0,0,1,2-.66,3.29,3.29,0,0,1,1.6.37,2.92,2.92,0,0,1,1.13,1.05,5.81,5.81,0,0,1,.71,1.69,11.17,11.17,0,0,1,.25,2.67,10.39,10.39,0,0,1-.41,3.21,4,4,0,0,1-1.22,1.89,3.45,3.45,0,0,1-4.63-.5A7.51,7.51,0,0,1,503.64,770.81Zm1.42,0a7.16,7.16,0,0,0,.65,3.71,2,2,0,0,0,1.61.92,1.91,1.91,0,0,0,1.61-.93,10.88,10.88,0,0,0,0-7.41,1.93,1.93,0,0,0-1.62-.92,1.78,1.78,0,0,0-1.53.81A7.15,7.15,0,0,0,505.06,770.81Z"/><path class="cls-10" d="M519.63,767.85l-1.38.11a2.59,2.59,0,0,0-.53-1.19,1.82,1.82,0,0,0-1.39-.6,1.93,1.93,0,0,0-1.16.37,3.24,3.24,0,0,0-1,1.4,7.31,7.31,0,0,0-.39,2.61,3.31,3.31,0,0,1,1.23-1.13,3.25,3.25,0,0,1,1.52-.37,3.15,3.15,0,0,1,2.36,1,3.67,3.67,0,0,1,1,2.64,4.43,4.43,0,0,1-.46,2,3.37,3.37,0,0,1-1.26,1.4,3.43,3.43,0,0,1-1.82.49,3.56,3.56,0,0,1-2.83-1.28,6.44,6.44,0,0,1-1.1-4.21c0-2.18.4-3.77,1.21-4.76a3.47,3.47,0,0,1,2.85-1.3,3.16,3.16,0,0,1,2.18.75A3.22,3.22,0,0,1,519.63,767.85ZM514,772.72a3.22,3.22,0,0,0,.3,1.37,2.22,2.22,0,0,0,.85,1,2.15,2.15,0,0,0,1.15.35,2,2,0,0,0,1.51-.71,2.78,2.78,0,0,0,.64-1.93,2.61,2.61,0,0,0-.63-1.85,2,2,0,0,0-1.57-.67,2.14,2.14,0,0,0-1.6.67A2.46,2.46,0,0,0,514,772.72Z"/><path class="cls-10" d="M521.66,769.08l-.38-2.15v-1.85h1.58v1.85l-.35,2.15Zm2.56,0-.38-2.15v-1.85h1.58v1.85l-.37,2.15Z"/><path class="cls-10" d="M528.11,779.71h-1a14,14,0,0,0,2.3-7.41,12.72,12.72,0,0,0-.33-2.88,12,12,0,0,0-.73-2.22c-.2-.46-.62-1.23-1.24-2.32h1a15.1,15.1,0,0,1,2.15,3.89,10.66,10.66,0,0,1-.21,7.55A14.24,14.24,0,0,1,528.11,779.71Z"/><line class="cls-3" x1="780.57" y1="782.32" x2="155.94" y2="782.32"/><polygon class="cls-4" points="777.96 778.49 792.25 782.32 777.96 786.15 777.96 778.49"/><polygon class="cls-4" points="158.55 778.49 144.26 782.32 158.55 786.15 158.55 778.49"/><line class="cls-11" x1="512.11" y1="742.38" x2="526.43" y2="742.38"/><polygon class="cls-4" points="514.72 746.21 500.43 742.38 514.72 738.55 514.72 746.21"/><path class="cls-11" d="M468,742.38H500m-84.36,0h40.61"/><polygon class="cls-4" points="453.66 746.21 467.95 742.38 453.66 738.55 453.66 746.21"/><path class="cls-4" d="M513.75,728.22v-5.94l-5.42-8.09h2.24l2.78,4.24c.5.8,1,1.59,1.43,2.37.43-.74,1-1.56,1.56-2.48l2.72-4.13h2.17l-5.61,8.09v5.94Z"/><path class="cls-4" d="M513.75,131.05v-6L508.33,117h2.24l2.78,4.24c.5.8,1,1.59,1.43,2.37.43-.74,1-1.56,1.56-2.47l2.72-4.14h2.17l-5.61,8.09v6Z"/><path class="cls-10" d="M416.4,726.49v-1.33h7.32v1.08a15.32,15.32,0,0,0-2.14,3,18.74,18.74,0,0,0-1.64,3.92,15.27,15.27,0,0,0-.53,3.11H418a13.88,13.88,0,0,1,.53-3.23,16.43,16.43,0,0,1,1.44-3.64,15.55,15.55,0,0,1,2-3Z"/><path class="cls-10" d="M425.87,736.32v-1.58h1.59v1.58Z"/><path class="cls-10" d="M436.69,727.78l-1.38.11a2.64,2.64,0,0,0-.53-1.19,1.79,1.79,0,0,0-1.38-.59,1.88,1.88,0,0,0-1.17.37,3.12,3.12,0,0,0-1,1.39,7.34,7.34,0,0,0-.4,2.62,3.33,3.33,0,0,1,1.23-1.14,3.38,3.38,0,0,1,1.52-.37,3.11,3.11,0,0,1,2.36,1,3.67,3.67,0,0,1,1,2.64,4.3,4.3,0,0,1-.46,2,3.59,3.59,0,0,1-5.91.6,6.43,6.43,0,0,1-1.1-4.2,7.59,7.59,0,0,1,1.21-4.77,3.51,3.51,0,0,1,2.85-1.3,3.2,3.2,0,0,1,2.19.75A3.16,3.16,0,0,1,436.69,727.78ZM431,732.65a3.3,3.3,0,0,0,.3,1.38,2.29,2.29,0,0,0,.86,1,2.09,2.09,0,0,0,1.15.34,2,2,0,0,0,1.51-.71,2.8,2.8,0,0,0,.63-1.93,2.65,2.65,0,0,0-.62-1.85,2.07,2.07,0,0,0-1.58-.67,2.11,2.11,0,0,0-1.59.67A2.42,2.42,0,0,0,431,732.65Z"/><path class="cls-10" d="M438.27,730.74a10.53,10.53,0,0,1,.41-3.23,4.07,4.07,0,0,1,1.23-1.88,3.14,3.14,0,0,1,2-.67,3.36,3.36,0,0,1,1.59.37,3,3,0,0,1,1.14,1.06,5.63,5.63,0,0,1,.7,1.68,11.17,11.17,0,0,1,.25,2.67,10.43,10.43,0,0,1-.4,3.21,4,4,0,0,1-1.23,1.89,3.43,3.43,0,0,1-4.62-.5A7.42,7.42,0,0,1,438.27,730.74Zm1.43,0a7.06,7.06,0,0,0,.65,3.71,1.86,1.86,0,0,0,3.22,0,10.88,10.88,0,0,0,0-7.41,2,2,0,0,0-1.63-.92,1.79,1.79,0,0,0-1.53.81A7.27,7.27,0,0,0,439.7,730.74Z"/><line class="cls-12" x1="500.43" y1="746.39" x2="499.61" y2="117.01"/><line class="cls-13" x1="468.07" y1="88.8" x2="468.07" y2="747.68"/><path class="cls-10" d="M450.39,297.2l-11-2.7,1.2-4.87a6.81,6.81,0,0,1,.84-2.16,2.56,2.56,0,0,1,1.35-1,3.22,3.22,0,0,1,1.77-.05,2.85,2.85,0,0,1,1.78,1.24,3.92,3.92,0,0,1,.44,2.59,3.68,3.68,0,0,1,.77-.74,7.92,7.92,0,0,1,1.75-.85l3.46-1.17-.45,1.82-2.64.9c-.76.26-1.35.48-1.77.67a3.61,3.61,0,0,0-.92.56,2.26,2.26,0,0,0-.45.59,4,4,0,0,0-.25.8l-.42,1.68,4.88,1.2Zm-5.78-3,.77-3.12a4.82,4.82,0,0,0,.18-1.61,1.65,1.65,0,0,0-.45-1,1.83,1.83,0,0,0-.91-.53,1.66,1.66,0,0,0-1.42.25,2.7,2.7,0,0,0-.94,1.66l-.86,3.48Z"/><path class="cls-10" d="M447.53,283.15a2.54,2.54,0,0,1-1.18,1,2.33,2.33,0,0,1-1.46.07,2.75,2.75,0,0,1-1.81-1.36,3.73,3.73,0,0,1,1.16-4.6,2.8,2.8,0,0,1,2.25-.37,2.25,2.25,0,0,1,1.23.72,2.61,2.61,0,0,1,.57,1.44,3.08,3.08,0,0,1,1.44-1.28,3,3,0,0,1,1.89-.1,3.28,3.28,0,0,1,2.12,1.58,3.74,3.74,0,0,1,.31,2.86,3.7,3.7,0,0,1-1.61,2.38,3.29,3.29,0,0,1-2.64.41,3,3,0,0,1-1.66-1A2.75,2.75,0,0,1,447.53,283.15Zm-2.35-.29a1.73,1.73,0,0,0,1.4-.19,2,2,0,0,0,.64-2.58,1.71,1.71,0,0,0-1.08-.79,1.75,1.75,0,0,0-1.38.21,1.82,1.82,0,0,0-.82,1.15,1.87,1.87,0,0,0,.18,1.4A1.64,1.64,0,0,0,445.18,282.86Zm5,1.68a2.47,2.47,0,0,0,1.18,0,2,2,0,0,0,1-.61,2.47,2.47,0,0,0,.59-1.09,2.29,2.29,0,0,0-.23-1.75,2.37,2.37,0,0,0-3.2-.76,2.25,2.25,0,0,0-1,1.46,2.2,2.2,0,0,0,1.66,2.74Z"/><path class="cls-10" d="M449.67,276.8a10.2,10.2,0,0,1-3-1.17,4.06,4.06,0,0,1-1.54-1.64,3.12,3.12,0,0,1-.15-2.15,3.26,3.26,0,0,1,.74-1.46,3,3,0,0,1,1.29-.85,5.76,5.76,0,0,1,1.8-.28,12,12,0,0,1,2.66.39,10.33,10.33,0,0,1,3,1.17,3.93,3.93,0,0,1,1.54,1.64,3.06,3.06,0,0,1,.16,2.15,3.11,3.11,0,0,1-1.75,2.22A7.43,7.43,0,0,1,449.67,276.8Zm.34-1.38a7,7,0,0,0,3.75.25,1.91,1.91,0,0,0,1.28-1.34,1.93,1.93,0,0,0-.51-1.78,7.08,7.08,0,0,0-3.44-1.52,7,7,0,0,0-3.76-.25,1.92,1.92,0,0,0-1.28,1.35,1.8,1.8,0,0,0,.42,1.68A7.18,7.18,0,0,0,450,275.42Z"/><path class="cls-10" d="M345.57,232.2l-11.3.29-.13-5a6.47,6.47,0,0,1,.25-2.3,2.47,2.47,0,0,1,1-1.29,3.14,3.14,0,0,1,1.69-.51,2.87,2.87,0,0,1,2.05.72,4,4,0,0,1,1.11,2.38,3.82,3.82,0,0,1,.54-.91,7.51,7.51,0,0,1,1.47-1.28l3-2,.05,1.88-2.32,1.56c-.67.45-1.18.83-1.53,1.12a3.14,3.14,0,0,0-.73.78,2.07,2.07,0,0,0-.29.69,4.67,4.67,0,0,0,0,.83l0,1.74,5-.13Zm-6.35-1.33-.08-3.22a4.71,4.71,0,0,0-.26-1.6,1.71,1.71,0,0,0-.7-.86,1.82,1.82,0,0,0-1-.27,1.68,1.68,0,0,0-1.3.61,2.73,2.73,0,0,0-.47,1.86l.09,3.57Z"/><path class="cls-10" d="M342.31,221.45l-.22-1.38a3,3,0,0,0,1.68-.86,2,2,0,0,0,.49-1.41,2.26,2.26,0,0,0-.73-1.64,2.3,2.3,0,0,0-1.69-.63,2.13,2.13,0,0,0-1.56.67,2.1,2.1,0,0,0-.58,1.6,3.8,3.8,0,0,0,.17,1l-1.22-.13a1.86,1.86,0,0,0,0-.22,2.85,2.85,0,0,0-.5-1.59,1.61,1.61,0,0,0-1.45-.67,1.73,1.73,0,0,0-1.25.55,1.82,1.82,0,0,0-.46,1.35,1.85,1.85,0,0,0,.54,1.33,2.53,2.53,0,0,0,1.54.66l-.21,1.39a3.54,3.54,0,0,1-2.19-1.1,3.37,3.37,0,0,1-.83-2.22,3.82,3.82,0,0,1,.36-1.72,2.83,2.83,0,0,1,2.5-1.67,2.41,2.41,0,0,1,1.34.36,2.78,2.78,0,0,1,1,1.14,2.61,2.61,0,0,1,.92-1.58,2.93,2.93,0,0,1,1.81-.6,3.32,3.32,0,0,1,2.54,1,3.77,3.77,0,0,1,1.09,2.7,3.5,3.5,0,0,1-.82,2.49A3.39,3.39,0,0,1,342.31,221.45Z"/><path class="cls-10" d="M339.5,212.74a10,10,0,0,1-3.24-.33,4,4,0,0,1-1.92-1.17,3.16,3.16,0,0,1-.71-2,3.32,3.32,0,0,1,.32-1.61,3.09,3.09,0,0,1,1-1.16,5.52,5.52,0,0,1,1.66-.74,11.09,11.09,0,0,1,2.67-.33,10.54,10.54,0,0,1,3.22.33,4,4,0,0,1,1.92,1.17,3.12,3.12,0,0,1,.72,2,3.09,3.09,0,0,1-1.11,2.6A7.4,7.4,0,0,1,339.5,212.74Zm0-1.42a7.1,7.1,0,0,0,3.69-.75,1.86,1.86,0,0,0-.09-3.21,10.81,10.81,0,0,0-7.41.19,1.91,1.91,0,0,0-.87,1.64,1.79,1.79,0,0,0,.84,1.51A7.18,7.18,0,0,0,339.46,211.32Z"/><path class="cls-10" d="M339.27,204a10,10,0,0,1-3.24-.33,3.88,3.88,0,0,1-1.91-1.18,3.09,3.09,0,0,1-.72-2,3.42,3.42,0,0,1,.33-1.6,2.93,2.93,0,0,1,1-1.16,5.67,5.67,0,0,1,1.66-.75,11.52,11.52,0,0,1,2.66-.32,10.3,10.3,0,0,1,3.23.33,4,4,0,0,1,1.92,1.17,3.23,3.23,0,0,1,.72,2,3.16,3.16,0,0,1-1.11,2.6A7.44,7.44,0,0,1,339.27,204Zm0-1.42a7.08,7.08,0,0,0,3.68-.75,1.87,1.87,0,0,0-.08-3.22,11,11,0,0,0-7.41.19,1.93,1.93,0,0,0-.88,1.65,1.8,1.8,0,0,0,.85,1.51A7.26,7.26,0,0,0,339.24,202.54Z"/><path class="cls-10" d="M419.68,251.73l-11.29-.64.28-5a6.53,6.53,0,0,1,.44-2.28,2.54,2.54,0,0,1,1.14-1.2,3.3,3.3,0,0,1,1.73-.37,2.9,2.9,0,0,1,2,.89,4,4,0,0,1,.91,2.47,3.78,3.78,0,0,1,.61-.87,7.69,7.69,0,0,1,1.58-1.16l3.18-1.79-.1,1.88L417.7,245q-1.05.6-1.62,1a3.38,3.38,0,0,0-.79.72,2.19,2.19,0,0,0-.34.66,4.11,4.11,0,0,0-.1.83l-.1,1.74,5,.28Zm-6.23-1.85.19-3.21a4.75,4.75,0,0,0-.12-1.61,1.7,1.7,0,0,0-.63-.92,1.82,1.82,0,0,0-1-.36,1.69,1.69,0,0,0-1.35.51,2.78,2.78,0,0,0-.62,1.81l-.2,3.57Z"/><path class="cls-10" d="M417.31,240.75l-.11-1.39a3.12,3.12,0,0,0,1.75-.72,2,2,0,0,0,.6-1.37,2.27,2.27,0,0,0-.59-1.69,2.3,2.3,0,0,0-1.64-.77,2.14,2.14,0,0,0-1.61.54,2.2,2.2,0,0,0-.71,1.55,4.2,4.2,0,0,0,.1,1l-1.21-.22a1,1,0,0,0,0-.22,2.9,2.9,0,0,0-.37-1.62,1.58,1.58,0,0,0-1.38-.79,1.72,1.72,0,0,0-1.3.44,2,2,0,0,0-.14,2.68,2.54,2.54,0,0,0,1.48.78l-.32,1.38a3.63,3.63,0,0,1-2.1-1.28,3.33,3.33,0,0,1-.63-2.29,3.73,3.73,0,0,1,.49-1.68,2.81,2.81,0,0,1,1.15-1.12,2.75,2.75,0,0,1,1.48-.33,2.36,2.36,0,0,1,1.31.46,2.77,2.77,0,0,1,.89,1.22,2.62,2.62,0,0,1,1-1.5,3,3,0,0,1,1.86-.45,3.33,3.33,0,0,1,2.44,1.22,3.75,3.75,0,0,1,.87,2.78,3.49,3.49,0,0,1-1,2.42A3.44,3.44,0,0,1,417.31,240.75Z"/><path class="cls-10" d="M415.22,231.84a10.26,10.26,0,0,1-3.2-.59,4,4,0,0,1-1.81-1.33,3.15,3.15,0,0,1-.55-2.09,3.4,3.4,0,0,1,.46-1.57,3,3,0,0,1,1.12-1.07,5.6,5.6,0,0,1,1.72-.61,11.46,11.46,0,0,1,2.68-.1,10.18,10.18,0,0,1,3.18.59,4,4,0,0,1,1.82,1.33,3.44,3.44,0,0,1-.77,4.59A7.45,7.45,0,0,1,415.22,231.84Zm.08-1.42A7.16,7.16,0,0,0,419,230a1.87,1.87,0,0,0,.18-3.22,10.87,10.87,0,0,0-7.4-.42,1.92,1.92,0,0,0-1,1.57,1.76,1.76,0,0,0,.72,1.57A7.17,7.17,0,0,0,415.3,230.42Z"/><path class="cls-10" d="M415.72,223.07a10.17,10.17,0,0,1-3.2-.6,4,4,0,0,1-1.81-1.33,3.11,3.11,0,0,1-.55-2.08,3.29,3.29,0,0,1,.46-1.57,3,3,0,0,1,1.12-1.07,5.35,5.35,0,0,1,1.72-.61,10.91,10.91,0,0,1,2.68-.1,10.18,10.18,0,0,1,3.18.59,4,4,0,0,1,1.82,1.33,3.12,3.12,0,0,1,.55,2.09,3.08,3.08,0,0,1-1.32,2.49C419.39,222.91,417.84,223.19,415.72,223.07Zm.08-1.42a7.13,7.13,0,0,0,3.74-.45,1.86,1.86,0,0,0,.18-3.21,10.87,10.87,0,0,0-7.4-.42,1.91,1.91,0,0,0-1,1.57,1.76,1.76,0,0,0,.72,1.57A7.17,7.17,0,0,0,415.8,221.65Z"/></g><g id="Watermark"><rect class="cls-14" x="444.86" y="647.95" width="62.89" height="30.62"/><rect class="cls-14" x="507.75" y="647.95" width="47.39" height="30.62"/><path class="cls-15" d="M466.48,654.05,463.69,673H461l-1.55-11-1.53,11h-2.74l-2.8-18.92h2.51l1.79,14.17,1.79-14.17h2l1.79,14.17L464,654.05Z"/><path class="cls-15" d="M467.93,673V654.05h2.53V673Z"/><path class="cls-15" d="M472.83,654.05h5q2.9,0,2.9,3.24V662c0,1.65-.51,2.7-1.51,3.14L481,673h-2.4l-1.66-7.65h-1.53V673h-2.53Zm2.53,9.11H477c.76,0,1.14-.45,1.14-1.37v-4.08c0-.91-.38-1.37-1.14-1.37h-1.66Z"/><path class="cls-15" d="M486.82,656.34V673h-2.53V656.34h-2.42v-2.29h7.38v2.29Z"/><path class="cls-15" d="M496.34,673v-8.59h-3.11V673H490.7V654.05h2.53v8h3.11v-8h2.53V673Z"/><path class="cls-15" d="M516.31,654.05h5q2.9,0,2.89,3.24V662c0,1.65-.5,2.7-1.5,3.14l1.77,7.88H522l-1.66-7.65h-1.53V673h-2.53Zm2.53,9.11h1.66c.76,0,1.13-.45,1.13-1.37v-4.08c0-.91-.37-1.37-1.13-1.37h-1.66Z"/><path class="cls-15" d="M528.67,673h-2.53V657.29q0-3.24,3-3.24h1.9q3,0,3,3.24V673h-2.53V666h-2.9Zm2.9-9.23v-6.29a1,1,0,0,0-1.11-1.11h-.68a1,1,0,0,0-1.11,1.11v6.29Z"/><path class="cls-15" d="M536.34,673V654.05h2.53V673Z"/><path class="cls-15" d="M547.24,673h-6V654.05h2.53v16.62h3.47Z"/></g></svg>