<svg xmlns="http://www.w3.org/2000/svg" xmlns:xlink="http://www.w3.org/1999/xlink" viewBox="0 0 1000 800"><defs><style>.cls-1,.cls-11,.cls-13,.cls-14,.cls-2,.cls-5,.cls-6,.cls-7,.cls-8,.cls-9{fill:none;}.cls-13,.cls-2,.cls-5,.cls-6,.cls-7,.cls-8{stroke:#221e1f;}.cls-11,.cls-2{stroke-miterlimit:1;}.cls-11,.cls-13,.cls-14,.cls-2,.cls-5,.cls-6,.cls-7{stroke-width:0.92px;}.cls-3{fill:#221e1f;}.cls-15,.cls-4{fill:#f0f0f0;}.cls-6{stroke-dasharray:19.42 5.83;}.cls-7,.cls-8,.cls-9{stroke-linecap:round;stroke-linejoin:round;}.cls-8,.cls-9{stroke-width:0.95px;}.cls-11,.cls-14,.cls-9{stroke:#303030;}.cls-10{clip-path:url(#clip-path);}.cls-12{fill:#303030;}.cls-13{stroke-dasharray:19.48 5.88;}.cls-14,.cls-15{stroke-miterlimit:10;}.cls-15{stroke:#ccc;}.cls-16{fill:#ccc;}</style><clipPath id="clip-path"><rect class="cls-1" x="134.36" y="5.61" width="737.69" height="791.25"/></clipPath></defs><g id="Flat"><line class="cls-2" x1="371.62" y1="317.7" x2="446.86" y2="283.63"/><polygon class="cls-3" points="446.19 287.47 455.81 279.57 443.53 281.6 446.19 287.47"/><path class="cls-4" d="M206.79,735.25a8.38,8.38,0,0,0,8.39,8.39H785.49a8.4,8.4,0,0,0,8.39-8.39V708.9a12.58,12.58,0,0,0-11.34-12.52l-77.7-7.77A83.82,83.82,0,0,1,684.52,684L584.29,647.52a67.08,67.08,0,0,1-44-57.84,2129,2129,0,0,1-3.54-276.92,92.37,92.37,0,0,1,8.92-35,33.56,33.56,0,0,1,18.8-17L643,232.14a12.56,12.56,0,0,0,8.27-12.44L647.1,136a54.52,54.52,0,0,0-42.5-50.47,335.88,335.88,0,0,0-62.28-8q-21-.7-42-.7t-42,.7a335.88,335.88,0,0,0-62.28,8A54.52,54.52,0,0,0,353.56,136l-4.18,83.7a12.56,12.56,0,0,0,8.27,12.44l78.51,28.56a33.51,33.51,0,0,1,18.79,17,92.2,92.2,0,0,1,8.93,35,2130.77,2130.77,0,0,1-3.54,276.92,67.11,67.11,0,0,1-44,57.84L316.15,684a83.92,83.92,0,0,1-20.32,4.64l-77.71,7.77a12.58,12.58,0,0,0-11.33,12.52Z"/><path class="cls-5" d="M206.79,735.25a8.38,8.38,0,0,0,8.39,8.39H785.49a8.4,8.4,0,0,0,8.39-8.39V708.9a12.58,12.58,0,0,0-11.34-12.52l-77.7-7.77A83.82,83.82,0,0,1,684.52,684L584.29,647.52a67.08,67.08,0,0,1-44-57.84,2129,2129,0,0,1-3.54-276.92,92.37,92.37,0,0,1,8.92-35,33.56,33.56,0,0,1,18.8-17L643,232.14a12.56,12.56,0,0,0,8.27-12.44L647.1,136a54.52,54.52,0,0,0-42.5-50.47,335.88,335.88,0,0,0-62.28-8q-21-.7-42-.7t-42,.7a335.88,335.88,0,0,0-62.28,8A54.52,54.52,0,0,0,353.56,136l-4.18,83.7a12.56,12.56,0,0,0,8.27,12.44l78.51,28.56a33.51,33.51,0,0,1,18.79,17,92.2,92.2,0,0,1,8.93,35,2130.77,2130.77,0,0,1-3.54,276.92,67.11,67.11,0,0,1-44,57.84L316.15,684a83.92,83.92,0,0,1-20.32,4.64l-77.71,7.77a12.58,12.58,0,0,0-11.33,12.52Z"/><line class="cls-6" x1="168.99" y1="430.55" x2="668.17" y2="430.55"/><path class="cls-7" d="M295.83,688.61l204.5-20.45,204.51,20.45M416.38,647.52,500.33,617l84,30.52M436.16,260.7,500.33,284l64.18-23.33"/><path class="cls-8" d="M651.3,136a4.2,4.2,0,1,0-4.2,4.2A4.2,4.2,0,0,0,651.3,136Zm-293.54,0a4.2,4.2,0,1,0-4.2,4.2A4.2,4.2,0,0,0,357.76,136ZM167.81,424.09a4.2,4.2,0,1,0-4.19,4.2A4.2,4.2,0,0,0,167.81,424.09ZM375.94,317.58a4.2,4.2,0,1,0-4.19,4.19A4.2,4.2,0,0,0,375.94,317.58Z"/><path class="cls-9" d="M542.32,77.58V41.21m-84,36.37V41.21"/><path class="cls-2" d="M647.1,136h43M500.33,76.88H869.5"/><line class="cls-7" x1="500.33" y1="284.03" x2="805.28" y2="284.03"/><g class="cls-10"><path class="cls-2" d="M773.11,743.64h98.94M500.33,617H845m-58.13,80.51h30.41"/></g><path class="cls-7" d="M466.79,424.1H141.18m74,319.54h-74"/><g class="cls-10"><line class="cls-11" x1="793.88" y1="735.25" x2="793.88" y2="796.39"/><line class="cls-7" x1="206.79" y1="735.25" x2="206.79" y2="796.39"/></g><line class="cls-2" x1="647.1" y1="136" x2="647.1" y2="14.22"/><line class="cls-7" x1="353.56" y1="136" x2="353.56" y2="14.22"/><path class="cls-12" d="M313.66,417.88v-9.51h4.22a5.58,5.58,0,0,1,1.93.26,2.11,2.11,0,0,1,1.06.9,2.76,2.76,0,0,1,.4,1.44,2.37,2.37,0,0,1-.66,1.7,3.31,3.31,0,0,1-2,.89,3,3,0,0,1,.76.47,6.52,6.52,0,0,1,1.05,1.27l1.65,2.58h-1.58l-1.26-2c-.37-.58-.67-1-.91-1.32a2.66,2.66,0,0,0-.64-.63,1.68,1.68,0,0,0-.57-.25,3.71,3.71,0,0,0-.7,0h-1.46v4.22Zm1.26-5.31h2.7a4,4,0,0,0,1.35-.18,1.39,1.39,0,0,0,.74-.57A1.54,1.54,0,0,0,320,411a1.44,1.44,0,0,0-.49-1.11,2.31,2.31,0,0,0-1.55-.44h-3Z"/><path class="cls-12" d="M322.76,415.39l1.23-.1a2.2,2.2,0,0,0,.63,1.35,1.72,1.72,0,0,0,1.2.45,1.89,1.89,0,0,0,1.43-.64,2.39,2.39,0,0,0,.58-1.69,2.13,2.13,0,0,0-.56-1.57,1.93,1.93,0,0,0-1.47-.58,2,2,0,0,0-1,.26,2,2,0,0,0-.71.66l-1.1-.14.92-4.89h4.73v1.12h-3.79l-.51,2.55a3.14,3.14,0,0,1,1.79-.59,2.86,2.86,0,0,1,2.11.86,3,3,0,0,1,.85,2.22,3.47,3.47,0,0,1-.75,2.23,3,3,0,0,1-2.5,1.16,3.12,3.12,0,0,1-2.12-.73A2.83,2.83,0,0,1,322.76,415.39Z"/><path class="cls-12" d="M330.16,413.19a8.73,8.73,0,0,1,.34-2.71,3.39,3.39,0,0,1,1-1.59,2.68,2.68,0,0,1,1.73-.56,2.85,2.85,0,0,1,1.34.31,2.53,2.53,0,0,1,.95.89,4.79,4.79,0,0,1,.6,1.41,9.63,9.63,0,0,1,.21,2.25,9.09,9.09,0,0,1-.34,2.71,3.5,3.5,0,0,1-1,1.59,2.68,2.68,0,0,1-1.73.56,2.6,2.6,0,0,1-2.16-1A6.25,6.25,0,0,1,330.16,413.19Zm1.2,0a6,6,0,0,0,.54,3.12,1.57,1.57,0,0,0,2.71,0,9.12,9.12,0,0,0,0-6.24,1.63,1.63,0,0,0-1.37-.77A1.5,1.5,0,0,0,332,410,6.06,6.06,0,0,0,331.36,413.19Z"/><path class="cls-12" d="M339.34,412.73a2.19,2.19,0,0,1-1.07-.76,2,2,0,0,1-.35-1.18,2.33,2.33,0,0,1,.74-1.75,2.78,2.78,0,0,1,2-.71,2.74,2.74,0,0,1,2,.73,2.32,2.32,0,0,1,.76,1.76,2,2,0,0,1-.34,1.15,2.26,2.26,0,0,1-1.06.76,2.4,2.4,0,0,1,1.79,2.44,2.73,2.73,0,0,1-.86,2.05,3.16,3.16,0,0,1-2.27.83,3.1,3.1,0,0,1-2.27-.84,2.75,2.75,0,0,1-.87-2.08,2.53,2.53,0,0,1,.47-1.55A2.38,2.38,0,0,1,339.34,412.73Zm-.61,2.41a2.11,2.11,0,0,0,.24,1,1.65,1.65,0,0,0,.71.72,2,2,0,0,0,1,.26,1.87,1.87,0,0,0,1.38-.54,1.83,1.83,0,0,0,.55-1.37,1.91,1.91,0,0,0-.56-1.4,2,2,0,0,0-1.41-.55,1.81,1.81,0,0,0-1.36.55A1.85,1.85,0,0,0,338.73,415.14Zm.38-4.39a1.48,1.48,0,0,0,.44,1.1,1.51,1.51,0,0,0,1.13.43,1.49,1.49,0,0,0,1.1-.43,1.39,1.39,0,0,0,.43-1,1.47,1.47,0,0,0-.44-1.08,1.54,1.54,0,0,0-1.11-.44,1.57,1.57,0,0,0-1.11.43A1.41,1.41,0,0,0,339.11,410.75Z"/><path class="cls-12" d="M190.47,445.78l3.68-5-3.25-4.55h1.5l1.73,2.44a11.25,11.25,0,0,1,.76,1.17,11.92,11.92,0,0,1,.75-1.09l1.92-2.52h1.37l-3.34,4.48,3.6,5h-1.56l-2.39-3.39c-.14-.2-.28-.41-.42-.64q-.31.53-.45.72L192,445.78Z"/><path class="cls-12" d="M649,445.78l3.68-5-3.25-4.55h1.5l1.73,2.44a13.84,13.84,0,0,1,.77,1.17,11.92,11.92,0,0,1,.75-1.09l1.91-2.52h1.37l-3.34,4.48,3.6,5h-1.56l-2.39-3.39-.42-.64q-.31.53-.45.72l-2.39,3.31Z"/><path class="cls-12" d="M282.24,319.43l-.67-9.49,4.2-.3a5.59,5.59,0,0,1,2,.12,2.08,2.08,0,0,1,1.12.83,2.75,2.75,0,0,1,.5,1.4,2.4,2.4,0,0,1-.54,1.75,3.3,3.3,0,0,1-2,1,3.62,3.62,0,0,1,.8.42,6.83,6.83,0,0,1,1.13,1.19l1.83,2.46L289,319l-1.39-1.89c-.41-.54-.74-1-1-1.24a2.78,2.78,0,0,0-.69-.59,1.67,1.67,0,0,0-.59-.21,3.92,3.92,0,0,0-.7,0l-1.46.1.3,4.22Zm.88-5.39,2.7-.19a4.3,4.3,0,0,0,1.33-.28,1.43,1.43,0,0,0,.7-.62,1.55,1.55,0,0,0,.19-.87,1.39,1.39,0,0,0-.57-1.07,2.25,2.25,0,0,0-1.57-.33l-3,.22Z"/><path class="cls-12" d="M291.14,316.3l1.22-.19a2.16,2.16,0,0,0,.73,1.3,1.75,1.75,0,0,0,1.22.36,1.87,1.87,0,0,0,1.38-.73,2.4,2.4,0,0,0,.46-1.73,2.14,2.14,0,0,0-.67-1.53,1.91,1.91,0,0,0-1.5-.47,2,2,0,0,0-1,.32,2.09,2.09,0,0,0-.67.72l-1.1-.07.57-4.94,4.72-.33.08,1.11-3.79.27-.33,2.59a3.14,3.14,0,0,1,1.75-.73,2.86,2.86,0,0,1,2.16.72,3,3,0,0,1,1,2.15,3.44,3.44,0,0,1-.59,2.28,3,3,0,0,1-2.41,1.33,3.08,3.08,0,0,1-2.17-.58A2.84,2.84,0,0,1,291.14,316.3Z"/><path class="cls-12" d="M298.36,313.58a8.43,8.43,0,0,1,.16-2.73,3.39,3.39,0,0,1,.91-1.66,2.67,2.67,0,0,1,1.68-.68,2.83,2.83,0,0,1,1.36.22,2.51,2.51,0,0,1,1,.82,4.62,4.62,0,0,1,.69,1.37,9.57,9.57,0,0,1,.37,2.22,8.69,8.69,0,0,1-.15,2.72,3.36,3.36,0,0,1-.92,1.66,2.9,2.9,0,0,1-3.91-.15A6.29,6.29,0,0,1,298.36,313.58Zm1.2-.08a5.89,5.89,0,0,0,.77,3.07,1.62,1.62,0,0,0,1.4.68,1.59,1.59,0,0,0,1.29-.88,9.1,9.1,0,0,0-.44-6.22,1.61,1.61,0,0,0-1.41-.67,1.5,1.5,0,0,0-1.24.77A6.07,6.07,0,0,0,299.56,313.5Z"/><path class="cls-12" d="M307.49,312.47a2.23,2.23,0,0,1-1.12-.68,2.06,2.06,0,0,1-.44-1.16,2.3,2.3,0,0,1,.62-1.79,2.78,2.78,0,0,1,1.94-.85,2.81,2.81,0,0,1,2.05.58,2.36,2.36,0,0,1,.88,1.71,1.92,1.92,0,0,1-.27,1.17,2.16,2.16,0,0,1-1,.83,2.4,2.4,0,0,1,2,2.31,2.72,2.72,0,0,1-.71,2.1,3.18,3.18,0,0,1-2.21,1,3.11,3.11,0,0,1-2.32-.67,2.76,2.76,0,0,1-1-2,2.45,2.45,0,0,1,.36-1.59A2.33,2.33,0,0,1,307.49,312.47Zm-.43,2.45a2.08,2.08,0,0,0,.3.95,1.74,1.74,0,0,0,.75.67,2,2,0,0,0,1,.18,1.91,1.91,0,0,0,1.34-.63,1.88,1.88,0,0,0,.44-1.41,1.9,1.9,0,0,0-.65-1.35,1.94,1.94,0,0,0-1.45-.45,1.84,1.84,0,0,0-1.32.64A1.86,1.86,0,0,0,307.06,314.92Zm.06-4.41a1.48,1.48,0,0,0,.51,1.07,1.58,1.58,0,0,0,1.16.35,1.5,1.5,0,0,0,1.07-.51,1.39,1.39,0,0,0,.36-1.07,1.44,1.44,0,0,0-.52-1,1.51,1.51,0,0,0-1.13-.36,1.53,1.53,0,0,0-1.08.5A1.4,1.4,0,0,0,307.12,310.51Z"/><path class="cls-12" d="M383.49,307.32l-4.13-8.58,3.8-1.83a5.58,5.58,0,0,1,1.86-.6,2.1,2.1,0,0,1,1.34.35,2.73,2.73,0,0,1,1,1.12,2.42,2.42,0,0,1,.15,1.82,3.29,3.29,0,0,1-1.44,1.68,3.53,3.53,0,0,1,.89.09,7,7,0,0,1,1.49.69l2.62,1.62-1.43.68-2-1.23c-.58-.36-1.05-.62-1.39-.79a3,3,0,0,0-.85-.3,1.87,1.87,0,0,0-.63,0,3.4,3.4,0,0,0-.65.26l-1.32.63,1.84,3.81ZM382.32,302l2.44-1.17a4.15,4.15,0,0,0,1.14-.75,1.39,1.39,0,0,0,.41-.84,1.48,1.48,0,0,0-.14-.88,1.41,1.41,0,0,0-.92-.78,2.26,2.26,0,0,0-1.58.28L381,299.15Z"/><path class="cls-12" d="M396.74,299.69l.49,1-5.67,2.73a2,2,0,0,1-.23-.79,4.55,4.55,0,0,1,.14-1.48,12.09,12.09,0,0,1,.76-2,13,13,0,0,0,1-2.72,2.46,2.46,0,0,0-.12-1.51,1.6,1.6,0,0,0-1-.84,2,2,0,0,0-2.37,1.18,2,2,0,0,0,.15,1.49l-1.13.4a2.91,2.91,0,0,1-.06-2.24,3.15,3.15,0,0,1,1.64-1.57,3,3,0,0,1,2.29-.26,2.44,2.44,0,0,1,1.53,1.35,2.76,2.76,0,0,1,.28,1.11,4.55,4.55,0,0,1-.19,1.38,18.31,18.31,0,0,1-.9,2.29c-.38.84-.61,1.39-.7,1.67a4.77,4.77,0,0,0-.17.78Z"/><path class="cls-12" d="M403.4,296.48l.48,1-5.66,2.73a2,2,0,0,1-.23-.79,4.47,4.47,0,0,1,.14-1.47,12.56,12.56,0,0,1,.75-2,12.57,12.57,0,0,0,1-2.72,2.43,2.43,0,0,0-.12-1.5,1.54,1.54,0,0,0-1-.84,1.76,1.76,0,0,0-1.37.13,1.82,1.82,0,0,0-1,1,2,2,0,0,0,.15,1.49l-1.13.41a2.94,2.94,0,0,1-.06-2.25,3.15,3.15,0,0,1,1.64-1.57,3,3,0,0,1,2.29-.26,2.46,2.46,0,0,1,1.53,1.35,2.76,2.76,0,0,1,.28,1.11,4.29,4.29,0,0,1-.2,1.38,16.5,16.5,0,0,1-.89,2.29c-.38.84-.61,1.39-.7,1.67a4.07,4.07,0,0,0-.17.78Z"/><path class="cls-12" d="M427.11,286.6,418,283.93l1.19-4.05a5.35,5.35,0,0,1,.79-1.78,2,2,0,0,1,1.16-.76,2.61,2.61,0,0,1,1.49,0,2.38,2.38,0,0,1,1.45,1.11,3.3,3.3,0,0,1,.28,2.19,3.41,3.41,0,0,1,.67-.6,6.59,6.59,0,0,1,1.51-.64l3-.86-.45,1.52-2.25.65c-.65.19-1.16.36-1.52.5a2.8,2.8,0,0,0-.79.44,1.83,1.83,0,0,0-.4.48,3.18,3.18,0,0,0-.24.66l-.41,1.4,4,1.18Zm-4.75-2.7.76-2.6a3.91,3.91,0,0,0,.21-1.34,1.36,1.36,0,0,0-.34-.87,1.52,1.52,0,0,0-.75-.49,1.44,1.44,0,0,0-1.2.16,2.33,2.33,0,0,0-.85,1.37l-.85,2.89Z"/><path class="cls-12" d="M425.24,274.7a2.33,2.33,0,0,1-1,.82,2,2,0,0,1-1.23,0,2.29,2.29,0,0,1-1.46-1.21,2.69,2.69,0,0,1-.12-2.1,2.77,2.77,0,0,1,1.25-1.72,2.34,2.34,0,0,1,1.91-.23,2,2,0,0,1,1,.65,2.29,2.29,0,0,1,.43,1.23,2.46,2.46,0,0,1,1.26-1,2.5,2.5,0,0,1,1.58,0,2.75,2.75,0,0,1,1.73,1.41,3.54,3.54,0,0,1-1.29,4.36,2.79,2.79,0,0,1-2.23.24,2.46,2.46,0,0,1-1.36-.89A2.34,2.34,0,0,1,425.24,274.7Zm-2-.34a1.45,1.45,0,0,0,1.18-.1,1.53,1.53,0,0,0,.73-1,1.5,1.5,0,0,0-.1-1.18,1.39,1.39,0,0,0-.87-.7,1.49,1.49,0,0,0-1.17.12,1.52,1.52,0,0,0-.73.94,1.55,1.55,0,0,0,.1,1.18A1.38,1.38,0,0,0,423.27,274.36Zm4.11,1.6a2.24,2.24,0,0,0,1,.05,1.73,1.73,0,0,0,.89-.48,2.08,2.08,0,0,0,.53-.89,1.93,1.93,0,0,0-.13-1.48,2,2,0,0,0-2.66-.76,1.89,1.89,0,0,0-.92,1.19,1.86,1.86,0,0,0,1.29,2.37Z"/><path class="cls-12" d="M345.17,193.67l-.09,1.17-7.42-.56a6.64,6.64,0,0,1,.72,1.17,8,8,0,0,1,.51,1.27l-1.13-.09a7.16,7.16,0,0,0-1-1.79,4.29,4.29,0,0,0-1.2-1.13l.06-.75Z"/><path class="cls-12" d="M339.89,189.63l-1.32-.1.09-1.33,1.33.1Zm5.55.41-1.33-.1.1-1.33,1.33.1Z"/><path class="cls-12" d="M345,180.8l1.12.08-.47,6.27a2,2,0,0,1-.8-.19,4.4,4.4,0,0,1-1.2-.86,12.37,12.37,0,0,1-1.32-1.63,12.27,12.27,0,0,0-1.86-2.24,2.37,2.37,0,0,0-1.36-.65,1.52,1.52,0,0,0-1.2.41,1.73,1.73,0,0,0-.57,1.25,1.79,1.79,0,0,0,.4,1.38,1.88,1.88,0,0,0,1.36.62l-.21,1.19a3,3,0,0,1-2-1.08,3.24,3.24,0,0,1-.54-2.21,3,3,0,0,1,.92-2.1,2.5,2.5,0,0,1,1.94-.66,2.9,2.9,0,0,1,1.1.32,4.42,4.42,0,0,1,1.1.86,19.2,19.2,0,0,1,1.54,1.92c.53.74.9,1.22,1.09,1.43a3.25,3.25,0,0,0,.59.54Z"/><path class="cls-12" d="M341.53,179.28a8.69,8.69,0,0,1-2.68-.54,3.44,3.44,0,0,1-1.5-1.15,2.63,2.63,0,0,1-.43-1.76,2.78,2.78,0,0,1,.41-1.32,2.52,2.52,0,0,1,.95-.88,5.11,5.11,0,0,1,1.46-.49,9.52,9.52,0,0,1,2.26,0,8.69,8.69,0,0,1,2.67.54,3.3,3.3,0,0,1,1.5,1.15,2.63,2.63,0,0,1,.44,1.76,2.59,2.59,0,0,1-1.15,2.08A6.19,6.19,0,0,1,341.53,179.28Zm.09-1.19a6,6,0,0,0,3.16-.32,1.6,1.6,0,0,0,.87-1.29,1.64,1.64,0,0,0-.68-1.41,9.24,9.24,0,0,0-6.22-.46,1.63,1.63,0,0,0-.87,1.31,1.51,1.51,0,0,0,.59,1.33A6.07,6.07,0,0,0,341.62,178.09Z"/><path class="cls-12" d="M386.12,237.2l-1.1-.4,2.58-7a6.45,6.45,0,0,1-1.32.37,8.14,8.14,0,0,1-1.36.14l.39-1.06a6.73,6.73,0,0,0,2-.46,4.23,4.23,0,0,0,1.41-.83l.71.26Z"/><path class="cls-12" d="M389.53,238.46l.46-1.24,1.25.46-.46,1.25Zm1.93-5.21.46-1.25,1.25.46-.46,1.25Z"/><path class="cls-12" d="M398.53,240.59l-.39,1.06-5.89-2.18a2,2,0,0,1,.41-.72,4.25,4.25,0,0,1,1.16-.92,12.65,12.65,0,0,1,1.93-.82,12.51,12.51,0,0,0,2.66-1.16,2.39,2.39,0,0,0,1-1.13,1.56,1.56,0,0,0-.06-1.27,2,2,0,0,0-2.49-.89,2,2,0,0,0-1,1.14l-1.08-.53a2.94,2.94,0,0,1,1.58-1.6,3.1,3.1,0,0,1,2.27.09,3,3,0,0,1,1.77,1.46,2.46,2.46,0,0,1,.1,2,2.84,2.84,0,0,1-.61,1,4.18,4.18,0,0,1-1.13.82,17.72,17.72,0,0,1-2.27,1c-.86.31-1.42.53-1.68.65a3.44,3.44,0,0,0-.68.43Z"/><path class="cls-12" d="M399.93,242.31l.47-1.25,1.24.46-.46,1.25Z"/><path class="cls-12" d="M405.72,235.63l.39-1,5.78,2.14-.32.85a13.07,13.07,0,0,0-2.58,1.78,15.78,15.78,0,0,0-2.43,2.62,11.77,11.77,0,0,0-1.33,2.3l-1.13-.42a12.21,12.21,0,0,1,1.36-2.39,13.84,13.84,0,0,1,2.2-2.46,13.11,13.11,0,0,1,2.43-1.75Z"/><path class="cls-12" d="M410.58,243.59l1.19.33a2.25,2.25,0,0,0,.12,1.48,1.79,1.79,0,0,0,1,.84,1.86,1.86,0,0,0,1.56-.11,2.37,2.37,0,0,0,1.13-1.38,2.15,2.15,0,0,0,0-1.67,1.94,1.94,0,0,0-1.18-1.05,2,2,0,0,0-1-.11,2,2,0,0,0-.9.37l-1-.51,2.56-4.27,4.44,1.64-.39,1-3.56-1.32-1.37,2.23a3,3,0,0,1,1.89.06,2.87,2.87,0,0,1,1.68,1.54,3.06,3.06,0,0,1,0,2.38,3.51,3.51,0,0,1-1.48,1.83,3,3,0,0,1-2.74.22,3.13,3.13,0,0,1-1.74-1.42A2.87,2.87,0,0,1,410.58,243.59Z"/><path class="cls-12" d="M376.92,206.66l-5-8.09,3.59-2.22a5.55,5.55,0,0,1,1.78-.8,2.11,2.11,0,0,1,1.38.22,2.64,2.64,0,0,1,1.09,1,2.39,2.39,0,0,1,.34,1.79,3.33,3.33,0,0,1-1.26,1.82,3.34,3.34,0,0,1,.9,0,6.33,6.33,0,0,1,1.55.53l2.77,1.33-1.35.83-2.11-1c-.61-.29-1.1-.5-1.46-.64a2.8,2.8,0,0,0-.88-.2,1.79,1.79,0,0,0-.62.09,3.55,3.55,0,0,0-.62.33l-1.24.77L378,206Zm-1.73-5.18,2.31-1.43a4.12,4.12,0,0,0,1.05-.86,1.47,1.47,0,0,0,.33-.87,1.53,1.53,0,0,0-.24-.86,1.43,1.43,0,0,0-1-.69,2.32,2.32,0,0,0-1.54.45l-2.56,1.58Z"/><path class="cls-12" d="M383.35,199.73l.91-.75a2.51,2.51,0,0,0,1.33.86,1.65,1.65,0,0,0,1.23-.25,1.88,1.88,0,0,0,.89-1.21,2,2,0,0,0-.26-1.51,1.8,1.8,0,0,0-2.56-.59,3.51,3.51,0,0,0-.63.54l-.43-.94.16-.08a2.41,2.41,0,0,0,.94-1,1.36,1.36,0,0,0-.12-1.34,1.43,1.43,0,0,0-.93-.67,1.54,1.54,0,0,0-1.18.23,1.63,1.63,0,0,0-.74,1,2.11,2.11,0,0,0,.18,1.4l-1.1.44a3,3,0,0,1-.13-2.06,2.77,2.77,0,0,1,1.26-1.54,3.21,3.21,0,0,1,1.4-.48,2.56,2.56,0,0,1,1.33.25,2.37,2.37,0,0,1,.94.86,2,2,0,0,1,.31,1.13,2.19,2.19,0,0,1-.41,1.2,2.26,2.26,0,0,1,1.54,0,2.49,2.49,0,0,1,1.21,1.06,2.83,2.83,0,0,1,.34,2.27,3.24,3.24,0,0,1-1.5,1.95,3,3,0,0,1-2.16.46A2.88,2.88,0,0,1,383.35,199.73Z"/><path class="cls-12" d="M301.26,570.5,302,561l4.21.31a5.67,5.67,0,0,1,1.91.4,2.12,2.12,0,0,1,1,1,2.62,2.62,0,0,1,.29,1.46,2.4,2.4,0,0,1-.78,1.66,3.27,3.27,0,0,1-2.08.72,3.73,3.73,0,0,1,.72.53,6.73,6.73,0,0,1,.94,1.34l1.46,2.71L308,571l-1.11-2.07c-.32-.59-.59-1.05-.8-1.37a2.83,2.83,0,0,0-.59-.68,1.8,1.8,0,0,0-.56-.3,4.38,4.38,0,0,0-.69-.1l-1.46-.11-.31,4.22Zm1.65-5.2,2.7.2a4,4,0,0,0,1.36-.08,1.41,1.41,0,0,0,.78-.51,1.61,1.61,0,0,0,.32-.83,1.43,1.43,0,0,0-.41-1.15,2.35,2.35,0,0,0-1.51-.55l-3-.22Z"/><path class="cls-12" d="M310.53,568.7h1.23a2.17,2.17,0,0,0,.53,1.39,1.76,1.76,0,0,0,1.16.54,1.89,1.89,0,0,0,1.47-.53,2.4,2.4,0,0,0,.71-1.64,2.16,2.16,0,0,0-.45-1.62,1.92,1.92,0,0,0-1.42-.68,2,2,0,0,0-1,.18,1.92,1.92,0,0,0-.76.61l-1.09-.23,1.29-4.8,4.71.35-.08,1.12-3.79-.29-.7,2.51a3.18,3.18,0,0,1,1.84-.46,2.85,2.85,0,0,1,2,1,3,3,0,0,1,.69,2.28,3.43,3.43,0,0,1-.92,2.17,3,3,0,0,1-2.57,1,3.06,3.06,0,0,1-2.06-.88A2.79,2.79,0,0,1,310.53,568.7Z"/><path class="cls-12" d="M318.06,567.06a8.67,8.67,0,0,1,.55-2.69,3.36,3.36,0,0,1,1.15-1.5,2.63,2.63,0,0,1,1.76-.43,2.85,2.85,0,0,1,1.31.41,2.5,2.5,0,0,1,.89,1,4.75,4.75,0,0,1,.48,1.45,9.46,9.46,0,0,1,.05,2.26,9,9,0,0,1-.55,2.67,3.39,3.39,0,0,1-1.14,1.51,2.64,2.64,0,0,1-1.77.43,2.61,2.61,0,0,1-2.08-1.15A6.24,6.24,0,0,1,318.06,567.06Zm1.2.09a6,6,0,0,0,.31,3.15,1.63,1.63,0,0,0,1.29.87,1.61,1.61,0,0,0,1.41-.67,6.07,6.07,0,0,0,.78-3.07,6,6,0,0,0-.31-3.15,1.66,1.66,0,0,0-1.31-.88,1.5,1.5,0,0,0-1.33.59A6,6,0,0,0,319.26,567.15Z"/><path class="cls-12" d="M327.26,567.28a2.29,2.29,0,0,1-1-.84,2,2,0,0,1-.26-1.21,2.28,2.28,0,0,1,.88-1.68,3.13,3.13,0,0,1,4,.31,2.36,2.36,0,0,1,.63,1.82,2,2,0,0,1-.43,1.12,2.29,2.29,0,0,1-1.11.68,2.4,2.4,0,0,1,1.6,2.56,2.75,2.75,0,0,1-1,2,3.51,3.51,0,0,1-4.53-.34,2.8,2.8,0,0,1-.71-2.14,2.56,2.56,0,0,1,.59-1.51A2.27,2.27,0,0,1,327.26,567.28Zm-.79,2.36a2.22,2.22,0,0,0,.16,1,1.74,1.74,0,0,0,.65.77,2,2,0,0,0,1,.33,1.84,1.84,0,0,0,2.06-1.75,1.89,1.89,0,0,0-1.81-2.09,1.85,1.85,0,0,0-2,1.76Zm.7-4.35a1.5,1.5,0,0,0,.36,1.13,1.56,1.56,0,0,0,1.09.51,1.5,1.5,0,0,0,1.13-.34,1.4,1.4,0,0,0,.51-1,1.47,1.47,0,0,0-.36-1.11,1.63,1.63,0,0,0-2.21-.17A1.39,1.39,0,0,0,327.17,565.29Z"/><path class="cls-12" d="M583.13,163l-9.44-1.16.51-4.18a5.49,5.49,0,0,1,.5-1.89,2.08,2.08,0,0,1,1-.94,2.76,2.76,0,0,1,1.48-.22,2.41,2.41,0,0,1,1.61.86,3.35,3.35,0,0,1,.63,2.12,3.15,3.15,0,0,1,.56-.7,6.55,6.55,0,0,1,1.38-.88l2.78-1.33-.2,1.58-2.12,1c-.61.3-1.08.54-1.41.74a3.06,3.06,0,0,0-.71.56,1.88,1.88,0,0,0-.32.54,3.68,3.68,0,0,0-.13.69l-.18,1.45,4.19.52ZM578,161.09l.33-2.69a4,4,0,0,0,0-1.36,1.45,1.45,0,0,0-.48-.81,1.64,1.64,0,0,0-.81-.35,1.38,1.38,0,0,0-1.16.35,2.3,2.3,0,0,0-.63,1.48l-.36,3Z"/><path class="cls-12" d="M579.36,151.53a2.2,2.2,0,0,1-.89,1,2,2,0,0,1-1.21.2,2.27,2.27,0,0,1-1.64-1,3.14,3.14,0,0,1,.5-4,2.37,2.37,0,0,1,1.84-.54,2,2,0,0,1,1.1.49,2.17,2.17,0,0,1,.62,1.14,2.43,2.43,0,0,1,2.64-1.48,2.75,2.75,0,0,1,1.93,1.1,3.13,3.13,0,0,1,.55,2.36,3.08,3.08,0,0,1-1.11,2.15,2.75,2.75,0,0,1-2.17.61A2.57,2.57,0,0,1,580,153,2.33,2.33,0,0,1,579.36,151.53Zm-2,0a1.47,1.47,0,0,0,1.15-.29,1.57,1.57,0,0,0,.57-1.07,1.56,1.56,0,0,0-.29-1.15,1.41,1.41,0,0,0-1-.56,1.47,1.47,0,0,0-1.13.31,1.64,1.64,0,0,0-.28,2.2A1.38,1.38,0,0,0,577.36,151.52Zm4.32.91a2.11,2.11,0,0,0,1-.11,1.66,1.66,0,0,0,.8-.61,2,2,0,0,0,.38-1,1.86,1.86,0,0,0-1.66-2.15,1.89,1.89,0,0,0-1.45.39,1.94,1.94,0,0,0-.72,1.33,1.84,1.84,0,0,0,1.66,2.12Z"/><path class="cls-12" d="M580.51,146a8.59,8.59,0,0,1-2.66-.68,3.4,3.4,0,0,1-1.45-1.22,2.66,2.66,0,0,1-.34-1.77,2.81,2.81,0,0,1,.47-1.3,2.49,2.49,0,0,1,1-.84,4.7,4.7,0,0,1,1.48-.41,9.81,9.81,0,0,1,2.25.06,8.84,8.84,0,0,1,2.64.67,3.29,3.29,0,0,1,1.45,1.22,2.58,2.58,0,0,1,.35,1.78,2.61,2.61,0,0,1-1.24,2A6.29,6.29,0,0,1,580.51,146Zm.14-1.19a5.93,5.93,0,0,0,3.16-.17,1.56,1.56,0,0,0,.33-2.68,9,9,0,0,0-6.19-.76,1.62,1.62,0,0,0-.93,1.26,1.5,1.5,0,0,0,.52,1.36A6,6,0,0,0,580.65,144.85Z"/><path class="cls-12" d="M414.8,672.16l-1.16.13-.85-7.39a6.72,6.72,0,0,1-1,.92,7.49,7.49,0,0,1-1.15.74l-.13-1.12a7,7,0,0,0,1.57-1.31,4.26,4.26,0,0,0,.89-1.38l.75-.08Z"/><path class="cls-12" d="M417.78,666.22l-.15-1.32,1.32-.16.15,1.32Zm.64,5.52-.16-1.32,1.33-.15.15,1.32Z"/><path class="cls-12" d="M425.81,670.89l-1.16.14-.85-7.4a5.84,5.84,0,0,1-1,.93,7.78,7.78,0,0,1-1.15.74l-.13-1.12a7.07,7.07,0,0,0,1.58-1.31,4.38,4.38,0,0,0,.88-1.38l.75-.09Z"/><path class="cls-12" d="M428.25,665.89a8.74,8.74,0,0,1,0-2.74,3.35,3.35,0,0,1,.85-1.69,2.65,2.65,0,0,1,1.64-.75,2.78,2.78,0,0,1,1.37.15,2.56,2.56,0,0,1,1.05.77,4.64,4.64,0,0,1,.75,1.34,9.29,9.29,0,0,1,.47,2.21,8.69,8.69,0,0,1,0,2.73,3.38,3.38,0,0,1-.84,1.69,2.89,2.89,0,0,1-3.92,0A6.25,6.25,0,0,1,428.25,665.89Zm1.19-.14a6,6,0,0,0,.9,3,1.59,1.59,0,0,0,1.43.61,1.61,1.61,0,0,0,1.26-.92,9.15,9.15,0,0,0-.71-6.2,1.65,1.65,0,0,0-1.45-.61,1.52,1.52,0,0,0-1.2.82A6.07,6.07,0,0,0,429.44,665.75Z"/><path class="cls-12" d="M604.32,649.26l-1.1-.38,2.38-7a5.8,5.8,0,0,1-1.31.41,7.5,7.5,0,0,1-1.36.18l.37-1.07a7,7,0,0,0,2-.51,4.62,4.62,0,0,0,1.39-.87l.71.24Z"/><path class="cls-12" d="M607.77,650.42l.43-1.26,1.26.43-.43,1.26Zm1.78-5.27.43-1.26,1.26.43-.43,1.26Z"/><path class="cls-12" d="M616.83,652.3l-.36,1.06-6-2a2.07,2.07,0,0,1,.38-.72,4.21,4.21,0,0,1,1.14-1,11.44,11.44,0,0,1,1.91-.87,13.78,13.78,0,0,0,2.63-1.24,2.43,2.43,0,0,0,1-1.16,1.56,1.56,0,0,0-.09-1.27,1.79,1.79,0,0,0-1.08-.86,1.83,1.83,0,0,0-1.44,0,1.94,1.94,0,0,0-.93,1.17l-1.1-.5a3,3,0,0,1,1.53-1.65,3.2,3.2,0,0,1,2.28,0,3,3,0,0,1,1.81,1.41,2.5,2.5,0,0,1,.15,2,2.78,2.78,0,0,1-.58,1,4.14,4.14,0,0,1-1.11.85,17.51,17.51,0,0,1-2.24,1c-.85.33-1.4.57-1.66.7a5.19,5.19,0,0,0-.67.44Z"/><path class="cls-12" d="M618.28,654l.43-1.26,1.26.43-.43,1.26Z"/><path class="cls-12" d="M623.88,647.14l.36-1.07,5.83,2-.29.86a13.36,13.36,0,0,0-2.53,1.86,16.08,16.08,0,0,0-2.36,2.68,11.77,11.77,0,0,0-1.26,2.34l-1.14-.39a11.39,11.39,0,0,1,1.29-2.42,13.43,13.43,0,0,1,2.13-2.52,12.69,12.69,0,0,1,2.38-1.82Z"/><path class="cls-12" d="M629,655l1.19.29a2.21,2.21,0,0,0,.17,1.48,1.74,1.74,0,0,0,1,.81,1.9,1.9,0,0,0,1.56-.14A2.4,2.4,0,0,0,634,656a2.13,2.13,0,0,0,0-1.67,2.13,2.13,0,0,0-2.25-1.1,2,2,0,0,0-.89.4l-1-.48,2.43-4.34,4.49,1.51-.36,1.06-3.6-1.21-1.3,2.25a3,3,0,0,1,1.89,0,2.85,2.85,0,0,1,1.72,1.48,3,3,0,0,1,.1,2.38,3.49,3.49,0,0,1-1.43,1.88,3,3,0,0,1-2.73.29,3,3,0,0,1-1.78-1.37A2.85,2.85,0,0,1,629,655Z"/><line class="cls-5" x1="862.16" y1="733.14" x2="862.16" y2="86.67"/><polygon class="cls-3" points="865.25 730.95 862.03 742.97 858.81 730.95 865.25 730.95"/><polygon class="cls-3" points="865.25 88.87 862.03 76.85 858.81 88.87 865.25 88.87"/><path class="cls-12" d="M856.28,444.31v1.17h-7.45a5.91,5.91,0,0,1,.81,1.11,7.58,7.58,0,0,1,.6,1.23h-1.13a6.91,6.91,0,0,0-1.11-1.71,4.27,4.27,0,0,0-1.28-1v-.76Z"/><path class="cls-12" d="M853.78,441.32l-.1-1.22a2.2,2.2,0,0,0,1.35-.64,1.71,1.71,0,0,0,.45-1.19,1.84,1.84,0,0,0-.64-1.43,2.37,2.37,0,0,0-1.68-.59,2.14,2.14,0,0,0-1.58.57,1.93,1.93,0,0,0-.58,1.47,2,2,0,0,0,.26,1,1.92,1.92,0,0,0,.66.72l-.14,1.09-4.89-.92v-4.73H848v3.8l2.56.51a3.08,3.08,0,0,1-.6-1.8,2.86,2.86,0,0,1,.86-2.1,3,3,0,0,1,2.22-.86,3.46,3.46,0,0,1,2.23.76,3.33,3.33,0,0,1,.43,4.61A2.81,2.81,0,0,1,853.78,441.32Z"/><path class="cls-12" d="M854.08,433.76l-.11-1.13a1.91,1.91,0,0,0,1.15-.54,1.49,1.49,0,0,0,.36-1,1.75,1.75,0,0,0-.25-.95,1.9,1.9,0,0,0-.66-.66,3.66,3.66,0,0,0-1.11-.44,6.22,6.22,0,0,0-1.43-.17h-.23a2.77,2.77,0,0,1,.9,1,2.52,2.52,0,0,1,.35,1.31,2.62,2.62,0,0,1-.86,2,3.1,3.1,0,0,1-2.25.82,3.2,3.2,0,0,1-2.33-.85,2.85,2.85,0,0,1-.89-2.14,3.1,3.1,0,0,1,.5-1.7,3.2,3.2,0,0,1,1.43-1.17,7.19,7.19,0,0,1,2.68-.39,8.78,8.78,0,0,1,2.9.39,3.41,3.41,0,0,1,1.64,1.18,3,3,0,0,1,.57,1.83,2.51,2.51,0,0,1-2.36,2.68Zm-4.2-4.79a2.3,2.3,0,0,0-1.6.54,1.69,1.69,0,0,0-.59,1.29,1.74,1.74,0,0,0,.64,1.35,2.33,2.33,0,0,0,1.65.58,2,2,0,0,0,1.47-.55,1.78,1.78,0,0,0,.57-1.35,1.71,1.71,0,0,0-.57-1.33A2.23,2.23,0,0,0,849.88,429Z"/><path class="cls-12" d="M859.07,420.29a11.89,11.89,0,0,1-2.85,1.64,9,9,0,0,1-3.39.66,8.64,8.64,0,0,1-3-.5,12.67,12.67,0,0,1-3.27-1.8v-.84a20.42,20.42,0,0,0,1.93,1,10,10,0,0,0,1.87.62,10.62,10.62,0,0,0,2.44.28,11.62,11.62,0,0,0,6.23-1.94Z"/><path class="cls-12" d="M849.09,412.36l.09,1.16a2.34,2.34,0,0,0-1,.44,1.57,1.57,0,0,0-.5,1.17,1.6,1.6,0,0,0,.32,1,2.6,2.6,0,0,0,1.17.87,6.25,6.25,0,0,0,2.2.33,2.59,2.59,0,0,1-1-1,2.76,2.76,0,0,1-.32-1.28,2.64,2.64,0,0,1,.87-2,3.1,3.1,0,0,1,2.22-.82,3.62,3.62,0,0,1,1.66.39,2.83,2.83,0,0,1,1.18,1.06,2.92,2.92,0,0,1,.41,1.53,3,3,0,0,1-1.08,2.38,5.37,5.37,0,0,1-3.54.92,6.37,6.37,0,0,1-4-1,2.94,2.94,0,0,1-1.09-2.39,2.55,2.55,0,0,1,2.37-2.7Zm4.1,4.77a2.73,2.73,0,0,0,1.16-.26,1.91,1.91,0,0,0,.84-.71,1.83,1.83,0,0,0,.29-1,1.64,1.64,0,0,0-.6-1.27,2.33,2.33,0,0,0-1.62-.53,2.21,2.21,0,0,0-1.56.52,1.75,1.75,0,0,0-.56,1.33,1.84,1.84,0,0,0,.56,1.34A2,2,0,0,0,853.19,417.13Z"/><path class="cls-12" d="M856.28,410.37H855V409h1.33Z"/><path class="cls-12" d="M855.15,401.2h1.13v6.29a2,2,0,0,1-.81-.14,4.41,4.41,0,0,1-1.27-.77,11,11,0,0,1-1.44-1.53,12.74,12.74,0,0,0-2-2.09,2.36,2.36,0,0,0-1.4-.55,1.57,1.57,0,0,0-1.17.5,1.77,1.77,0,0,0-.48,1.29,1.79,1.79,0,0,0,.51,1.35,1.91,1.91,0,0,0,1.4.52l-.12,1.2a3,3,0,0,1-2.05-.93,3.18,3.18,0,0,1-.71-2.16,3,3,0,0,1,.76-2.17,2.52,2.52,0,0,1,1.89-.8,2.79,2.79,0,0,1,1.12.24,4.23,4.23,0,0,1,1.16.77,18.34,18.34,0,0,1,1.67,1.8q.88,1.05,1.2,1.35a3.85,3.85,0,0,0,.63.49Z"/><path class="cls-12" d="M849.09,393.88l.09,1.17a2.22,2.22,0,0,0-1,.44,1.54,1.54,0,0,0-.5,1.17,1.62,1.62,0,0,0,.32,1,2.75,2.75,0,0,0,1.17.87,6.25,6.25,0,0,0,2.2.33,2.61,2.61,0,0,1-1-1,2.72,2.72,0,0,1-.32-1.27,2.62,2.62,0,0,1,.87-2,3.06,3.06,0,0,1,2.22-.82,3.61,3.61,0,0,1,1.66.38,2.83,2.83,0,0,1,1.18,1.06,2.93,2.93,0,0,1,.41,1.54,3,3,0,0,1-1.08,2.38,5.43,5.43,0,0,1-3.54.92,6.37,6.37,0,0,1-4-1,3,3,0,0,1-1.09-2.4,2.7,2.7,0,0,1,.63-1.84A2.74,2.74,0,0,1,849.09,393.88Zm4.1,4.77a2.72,2.72,0,0,0,1.16-.25,1.87,1.87,0,0,0,.84-.72,1.83,1.83,0,0,0,.29-1,1.65,1.65,0,0,0-.6-1.27,2.38,2.38,0,0,0-1.62-.53,2.22,2.22,0,0,0-1.56.53,1.74,1.74,0,0,0-.56,1.32,1.8,1.8,0,0,0,.56,1.34A2,2,0,0,0,853.19,398.65Z"/><path class="cls-12" d="M850.13,390l-1.81.32h-1.56V389h1.56l1.81.31Zm0,2.15-1.81.33h-1.56v-1.33h1.56l1.81.29Z"/><path class="cls-12" d="M859.07,386.79v.84a11.71,11.71,0,0,0-6.23-1.94,10.39,10.39,0,0,0-2.42.28,9.77,9.77,0,0,0-1.87.62,21.32,21.32,0,0,0-1.95,1v-.84a12.67,12.67,0,0,1,3.27-1.8,8.89,8.89,0,0,1,3-.5,8.8,8.8,0,0,1,3.39.67A11.87,11.87,0,0,1,859.07,386.79Z"/><line class="cls-5" x1="798.62" y1="274.21" x2="798.62" y2="86.67"/><polygon class="cls-3" points="801.7 272.01 798.48 284.03 795.26 272.01 801.7 272.01"/><polygon class="cls-3" points="801.7 88.87 798.48 76.85 795.26 88.87 801.7 88.87"/><path class="cls-12" d="M792.6,178.87h-2.28V183h-1.07l-6.17-4.34v-1h6.17v-1.29h1.07v1.29h2.28Zm-3.35,0H785l4.29,3Z"/><path class="cls-12" d="M790.39,175l-.1-1.12a1.91,1.91,0,0,0,1.15-.54,1.5,1.5,0,0,0,.36-1,1.75,1.75,0,0,0-.25-.95,1.9,1.9,0,0,0-.66-.66,3.66,3.66,0,0,0-1.11-.44,5.71,5.71,0,0,0-1.43-.17h-.23a2.77,2.77,0,0,1,.9,1,2.6,2.6,0,0,1,.35,1.31,2.66,2.66,0,0,1-.86,2,3.1,3.1,0,0,1-2.25.82,3.18,3.18,0,0,1-2.33-.85,2.85,2.85,0,0,1-.89-2.14,3.08,3.08,0,0,1,.5-1.7,3.2,3.2,0,0,1,1.43-1.17,7.1,7.1,0,0,1,2.67-.4,8.77,8.77,0,0,1,2.91.4,3.35,3.35,0,0,1,1.64,1.18,3,3,0,0,1,.57,1.83,2.66,2.66,0,0,1-.62,1.82A2.61,2.61,0,0,1,790.39,175Zm-4.19-4.78a2.28,2.28,0,0,0-1.6.54,1.67,1.67,0,0,0-.59,1.29,1.76,1.76,0,0,0,.64,1.35,2.32,2.32,0,0,0,1.64.58,2,2,0,0,0,1.48-.55,1.8,1.8,0,0,0,.57-1.35,1.75,1.75,0,0,0-.57-1.34A2.27,2.27,0,0,0,786.2,170.26Z"/><path class="cls-12" d="M792.6,167.17h-1.33v-1.33h1.33Z"/><path class="cls-12" d="M792.6,160.39h-2.28v4.13h-1.07l-6.17-4.34v-1h6.17v-1.28h1.07v1.28h2.28Zm-3.35,0H785l4.29,3Z"/><line class="cls-2" x1="683.46" y1="126.44" x2="683.46" y2="86.44"/><polygon class="cls-3" points="686.54 124.24 683.32 136.26 680.1 124.24 686.54 124.24"/><polygon class="cls-3" points="686.54 88.64 683.32 76.62 680.1 88.64 686.54 88.64"/><path class="cls-12" d="M677.44,115.3v1.17H670a6.4,6.4,0,0,1,.8,1.11,6.86,6.86,0,0,1,.6,1.23h-1.13a6.69,6.69,0,0,0-1.11-1.72,4.32,4.32,0,0,0-1.27-1v-.76Z"/><path class="cls-12" d="M677.44,108.57h-2.28v4.12h-1.07l-6.16-4.34v-.95h6.16v-1.29h1.07v1.29h2.28Zm-3.35,0H669.8l4.29,3Z"/><path class="cls-12" d="M677.44,104.26h-1.33v-1.33h1.33Z"/><path class="cls-12" d="M677.44,96.83V98H670a6.69,6.69,0,0,1,.8,1.1,7.58,7.58,0,0,1,.6,1.23h-1.13a6.81,6.81,0,0,0-1.11-1.71,4.37,4.37,0,0,0-1.27-1v-.75Z"/><line class="cls-5" x1="839.03" y1="733.14" x2="839.03" y2="626.82"/><polygon class="cls-3" points="842.12 730.95 838.9 742.96 835.67 730.95 842.12 730.95"/><polygon class="cls-3" points="842.12 629.02 838.9 617 835.67 629.02 842.12 629.02"/><line class="cls-2" x1="812.46" y1="733.67" x2="812.46" y2="707.33"/><polygon class="cls-3" points="815.54 731.47 812.32 743.49 809.1 731.47 815.54 731.47"/><polygon class="cls-3" points="815.54 709.53 812.32 697.51 809.1 709.53 815.54 709.53"/><path class="cls-12" d="M806.64,720.73v1.17H799.2A5.91,5.91,0,0,1,800,723a8.51,8.51,0,0,1,.6,1.23h-1.13a6.93,6.93,0,0,0-1.12-1.71,4.25,4.25,0,0,0-1.27-1v-.76Z"/><path class="cls-12" d="M806.64,713.34v1.17H799.2a5.91,5.91,0,0,1,.81,1.11,7.61,7.61,0,0,1,.6,1.23h-1.13a7,7,0,0,0-1.12-1.72,4.2,4.2,0,0,0-1.27-1v-.76Z"/><path class="cls-12" d="M831.16,693.46l-.15-1.17a2.56,2.56,0,0,0,1.43-.69,1.68,1.68,0,0,0,.44-1.17,1.91,1.91,0,0,0-.57-1.4,2,2,0,0,0-1.42-.56,1.81,1.81,0,0,0-1.33.52,1.86,1.86,0,0,0-.52,1.34,3.69,3.69,0,0,0,.13.82l-1-.13a1.28,1.28,0,0,0,0-.18,2.42,2.42,0,0,0-.39-1.35,1.33,1.33,0,0,0-1.2-.6,1.41,1.41,0,0,0-1.06.44,1.55,1.55,0,0,0-.43,1.12,1.61,1.61,0,0,0,.43,1.14,2.16,2.16,0,0,0,1.29.58l-.21,1.17a3,3,0,0,1-1.82-1,2.84,2.84,0,0,1-.65-1.89,3.06,3.06,0,0,1,.34-1.44,2.39,2.39,0,0,1,.91-1,2.34,2.34,0,0,1,1.23-.35,2,2,0,0,1,1.12.33,2.28,2.28,0,0,1,.8,1,2.23,2.23,0,0,1,.81-1.32,2.47,2.47,0,0,1,1.54-.46,2.82,2.82,0,0,1,2.11.9,3.21,3.21,0,0,1,.87,2.3,3,3,0,0,1-.75,2.08A2.91,2.91,0,0,1,831.16,693.46Z"/><path class="cls-12" d="M829,686.07a8.41,8.41,0,0,1-2.71-.35,3.32,3.32,0,0,1-1.59-1,2.63,2.63,0,0,1-.56-1.72,2.85,2.85,0,0,1,.31-1.34,2.56,2.56,0,0,1,.89-1,4.74,4.74,0,0,1,1.42-.59,9.48,9.48,0,0,1,2.24-.21,8.77,8.77,0,0,1,2.71.34,3.42,3.42,0,0,1,1.59,1,2.66,2.66,0,0,1,.56,1.73,2.6,2.6,0,0,1-1,2.16A6.25,6.25,0,0,1,829,686.07Zm0-1.2a5.89,5.89,0,0,0,3.12-.55,1.56,1.56,0,0,0,0-2.7,9.12,9.12,0,0,0-6.24,0,1.63,1.63,0,0,0-.77,1.36,1.51,1.51,0,0,0,.68,1.29A6.06,6.06,0,0,0,829,684.87Z"/><path class="cls-12" d="M833.68,678h-1.33v-1.33h1.33Z"/><path class="cls-12" d="M832.55,668.85h1.13v6.29a2.05,2.05,0,0,1-.82-.14,4.5,4.5,0,0,1-1.26-.77,11,11,0,0,1-1.44-1.53,12.74,12.74,0,0,0-2-2.09,2.36,2.36,0,0,0-1.4-.55,1.57,1.57,0,0,0-1.17.5,1.77,1.77,0,0,0-.48,1.29,1.79,1.79,0,0,0,.51,1.35,1.91,1.91,0,0,0,1.4.52l-.12,1.2a3,3,0,0,1-2-.93,3.18,3.18,0,0,1-.71-2.16,3,3,0,0,1,.76-2.17,2.52,2.52,0,0,1,1.89-.8,3,3,0,0,1,1.12.23,4.53,4.53,0,0,1,1.16.78,18.34,18.34,0,0,1,1.67,1.8q.88,1.05,1.2,1.35a3.85,3.85,0,0,0,.63.49Z"/><path class="cls-12" d="M474.4,784.59h-1.17v-7.45a6.16,6.16,0,0,1-1.1.81,7.58,7.58,0,0,1-1.23.6v-1.13a7.1,7.1,0,0,0,1.71-1.11,4.43,4.43,0,0,0,1-1.28h.75Z"/><path class="cls-12" d="M481.14,784.59v-2.28H477v-1.07l4.34-6.17h.95v6.17h1.29v1.07H482.3v2.28Zm0-3.35V777l-3,4.29Z"/><path class="cls-12" d="M484.78,779.9a8.76,8.76,0,0,1,.35-2.72,3.44,3.44,0,0,1,1-1.59,2.66,2.66,0,0,1,1.73-.56,2.88,2.88,0,0,1,1.34.31,2.61,2.61,0,0,1,.95.89,4.74,4.74,0,0,1,.59,1.42,8.94,8.94,0,0,1,.22,2.25,8.71,8.71,0,0,1-.35,2.7,3.42,3.42,0,0,1-1,1.59,2.89,2.89,0,0,1-3.89-.43A6.3,6.3,0,0,1,484.78,779.9Zm1.2,0a6,6,0,0,0,.55,3.11,1.57,1.57,0,0,0,2.71,0,9.12,9.12,0,0,0,0-6.24,1.64,1.64,0,0,0-1.37-.77,1.5,1.5,0,0,0-1.28.68A6,6,0,0,0,486,779.9Z"/><path class="cls-12" d="M498.42,787.38a11.54,11.54,0,0,1-1.63-2.85,8.8,8.8,0,0,1-.67-3.39,8.93,8.93,0,0,1,.5-3,12.67,12.67,0,0,1,1.8-3.27h.84c-.52.9-.87,1.54-1,1.93a10.79,10.79,0,0,0-.62,1.87,10.62,10.62,0,0,0-.28,2.44,11.71,11.71,0,0,0,1.94,6.23Z"/><path class="cls-12" d="M500.29,782.09l1.23-.1a2.2,2.2,0,0,0,.63,1.35,1.72,1.72,0,0,0,1.2.45,1.86,1.86,0,0,0,1.43-.64,2.37,2.37,0,0,0,.58-1.68,2.18,2.18,0,0,0-.56-1.58,1.93,1.93,0,0,0-1.47-.58,2,2,0,0,0-1,.26,2,2,0,0,0-.71.66l-1.1-.14.92-4.89h4.73v1.12h-3.79l-.52,2.56a3.11,3.11,0,0,1,1.8-.6,2.86,2.86,0,0,1,2.1.86,3,3,0,0,1,.86,2.22,3.45,3.45,0,0,1-.75,2.23,3,3,0,0,1-2.5,1.16,3.05,3.05,0,0,1-2.12-.73A2.81,2.81,0,0,1,500.29,782.09Z"/><path class="cls-12" d="M508.34,784.59v-1.33h1.33v1.33Z"/><path class="cls-12" d="M511.38,782.09l1.22-.1a2.2,2.2,0,0,0,.64,1.35,1.71,1.71,0,0,0,1.19.45,1.84,1.84,0,0,0,1.43-.64,2.37,2.37,0,0,0,.59-1.68,2.14,2.14,0,0,0-.57-1.58,1.93,1.93,0,0,0-1.47-.58,2,2,0,0,0-1,.26,1.92,1.92,0,0,0-.72.66l-1.1-.14.93-4.89h4.73v1.12h-3.8l-.51,2.56a3.08,3.08,0,0,1,1.8-.6,2.86,2.86,0,0,1,2.1.86,3,3,0,0,1,.85,2.22,3.45,3.45,0,0,1-.75,2.23,3,3,0,0,1-2.5,1.16,3.07,3.07,0,0,1-2.12-.73A2.85,2.85,0,0,1,511.38,782.09Z"/><path class="cls-12" d="M523.17,784.59H522v-7.45a5.91,5.91,0,0,1-1.11.81,6.86,6.86,0,0,1-1.23.6v-1.13a7,7,0,0,0,1.72-1.11,4.43,4.43,0,0,0,1-1.28h.75Z"/><path class="cls-12" d="M532.3,783.46v1.13H526a2,2,0,0,1,.14-.81,4.2,4.2,0,0,1,.77-1.27,11.47,11.47,0,0,1,1.52-1.44,12.5,12.5,0,0,0,2.1-2,2.42,2.42,0,0,0,.55-1.4,1.57,1.57,0,0,0-.5-1.17,1.78,1.78,0,0,0-1.3-.48,1.82,1.82,0,0,0-1.35.51,2,2,0,0,0-.51,1.4l-1.2-.12a2.93,2.93,0,0,1,.93-2,3.18,3.18,0,0,1,2.16-.71,3.05,3.05,0,0,1,2.17.76,2.52,2.52,0,0,1,.8,1.89,2.79,2.79,0,0,1-.24,1.12,4.23,4.23,0,0,1-.77,1.16,17.17,17.17,0,0,1-1.8,1.67q-1.05.89-1.35,1.2a3.94,3.94,0,0,0-.5.63Z"/><path class="cls-12" d="M533.93,778.44l-.32-1.81v-1.56h1.33v1.56l-.29,1.81Zm2.15,0-.32-1.81v-1.56h1.33v1.56l-.31,1.81Z"/><path class="cls-12" d="M539.31,787.38h-.84a11.62,11.62,0,0,0,1.94-6.23,10.39,10.39,0,0,0-.28-2.42,10,10,0,0,0-.61-1.87q-.25-.58-1-2h.84a12.38,12.38,0,0,1,1.8,3.27,8.68,8.68,0,0,1,.5,3,8.8,8.8,0,0,1-.67,3.39A11.87,11.87,0,0,1,539.31,787.38Z"/><line class="cls-5" x1="784.05" y1="789.58" x2="216.62" y2="789.58"/><polygon class="cls-3" points="781.86 786.36 793.88 789.58 781.86 792.8 781.86 786.36"/><polygon class="cls-3" points="218.81 786.36 206.79 789.58 218.81 792.8 218.81 786.36"/><line class="cls-2" x1="363.39" y1="22.67" x2="637.42" y2="22.67"/><polygon class="cls-3" points="365.58 25.76 353.56 22.54 365.58 19.31 365.58 25.76"/><polygon class="cls-3" points="635.22 25.76 647.24 22.54 635.22 19.31 635.22 25.76"/><path class="cls-12" d="M473.68,7V5.89h6.16V6.8A13.57,13.57,0,0,0,478,9.37a16.26,16.26,0,0,0-1.38,3.3,12.91,12.91,0,0,0-.45,2.61H475a11.69,11.69,0,0,1,.45-2.71,13.83,13.83,0,0,1,1.21-3.06A12.68,12.68,0,0,1,478.34,7Z"/><path class="cls-12" d="M481,10.59a8.73,8.73,0,0,1,.34-2.71,3.41,3.41,0,0,1,1-1.59,2.63,2.63,0,0,1,1.72-.56,2.85,2.85,0,0,1,1.34.31,2.56,2.56,0,0,1,1,.89A5.07,5.07,0,0,1,487,8.34a9.63,9.63,0,0,1,.21,2.25,8.77,8.77,0,0,1-.34,2.71,3.42,3.42,0,0,1-1,1.59,2.66,2.66,0,0,1-1.73.56,2.6,2.6,0,0,1-2.16-1A6.25,6.25,0,0,1,481,10.59Zm1.2,0a5.94,5.94,0,0,0,.55,3.12,1.56,1.56,0,0,0,2.7,0,5.94,5.94,0,0,0,.55-3.12,5.94,5.94,0,0,0-.55-3.12,1.63,1.63,0,0,0-1.36-.77,1.51,1.51,0,0,0-1.29.68A6.06,6.06,0,0,0,482.2,10.59Z"/><path class="cls-12" d="M494.64,18.08A11.56,11.56,0,0,1,493,15.23a9,9,0,0,1-.67-3.39,8.89,8.89,0,0,1,.5-3,12.43,12.43,0,0,1,1.81-3.27h.84a20.42,20.42,0,0,0-1,1.93,10.54,10.54,0,0,0-.63,1.87,11.14,11.14,0,0,0-.28,2.44,11.63,11.63,0,0,0,2,6.23Z"/><path class="cls-12" d="M502.65,14.16v1.12h-6.29a2,2,0,0,1,.13-.81,4.37,4.37,0,0,1,.77-1.26,12.33,12.33,0,0,1,1.53-1.44,12.91,12.91,0,0,0,2.1-2,2.4,2.4,0,0,0,.54-1.4,1.53,1.53,0,0,0-.49-1.17,2,2,0,0,0-2.65,0,1.87,1.87,0,0,0-.51,1.4l-1.2-.13a2.93,2.93,0,0,1,.93-2,3.14,3.14,0,0,1,2.16-.71,3.07,3.07,0,0,1,2.17.76,2.51,2.51,0,0,1,.79,1.88,2.82,2.82,0,0,1-.23,1.13,4.71,4.71,0,0,1-.78,1.16,19.68,19.68,0,0,1-1.8,1.67q-1.05.88-1.35,1.2a3.85,3.85,0,0,0-.49.63Z"/><path class="cls-12" d="M505.21,15.28V14h1.33v1.33Z"/><path class="cls-12" d="M508.33,7V5.89h6.16V6.8a12.72,12.72,0,0,0-1.8,2.57,15.2,15.2,0,0,0-1.38,3.3,12.25,12.25,0,0,0-.45,2.61h-1.2a11.6,11.6,0,0,1,.44-2.71,14.34,14.34,0,0,1,1.21-3.06A13.15,13.15,0,0,1,513,7Z"/><path class="cls-12" d="M515.64,12.79l1.23-.1A2.2,2.2,0,0,0,517.5,14a1.72,1.72,0,0,0,1.2.45,1.89,1.89,0,0,0,1.43-.64,2.39,2.39,0,0,0,.58-1.69,2.17,2.17,0,0,0-.56-1.57,2.14,2.14,0,0,0-2.49-.32,2,2,0,0,0-.71.66l-1.1-.14.92-4.89h4.73V7h-3.79l-.52,2.55A3.17,3.17,0,0,1,519,9a2.82,2.82,0,0,1,2.1.86,3,3,0,0,1,.86,2.22,3.47,3.47,0,0,1-.75,2.23,3,3,0,0,1-2.5,1.16,3.1,3.1,0,0,1-2.12-.73A2.83,2.83,0,0,1,515.64,12.79Z"/><path class="cls-12" d="M529.1,8.1l-1.17.09a2.17,2.17,0,0,0-.44-1,1.54,1.54,0,0,0-1.17-.5,1.63,1.63,0,0,0-1,.31,2.63,2.63,0,0,0-.87,1.18,6,6,0,0,0-.34,2.2,2.68,2.68,0,0,1,1-1,2.72,2.72,0,0,1,1.27-.32,2.65,2.65,0,0,1,2,.86,3.1,3.1,0,0,1,.82,2.23,3.61,3.61,0,0,1-.38,1.66A2.83,2.83,0,0,1,527.82,15a2.92,2.92,0,0,1-1.53.41,3,3,0,0,1-2.39-1.08,5.43,5.43,0,0,1-.92-3.54,6.35,6.35,0,0,1,1-4,3,3,0,0,1,2.4-1.09,2.7,2.7,0,0,1,1.84.63A2.74,2.74,0,0,1,529.1,8.1Zm-4.77,4.1a2.75,2.75,0,0,0,.25,1.16,1.87,1.87,0,0,0,.72.84,1.83,1.83,0,0,0,1,.29,1.65,1.65,0,0,0,1.27-.6,2.38,2.38,0,0,0,.53-1.62,2.22,2.22,0,0,0-.53-1.56,1.71,1.71,0,0,0-1.32-.56,1.78,1.78,0,0,0-1.34.56A2,2,0,0,0,524.33,12.2Z"/><path class="cls-12" d="M530.81,9.14l-.33-1.81V5.77h1.33V7.33l-.29,1.81Zm2.15,0-.32-1.81V5.77H534V7.33l-.31,1.81Z"/><path class="cls-12" d="M536.23,18.08h-.83a11.71,11.71,0,0,0,1.94-6.23,11,11,0,0,0-.28-2.42,9.77,9.77,0,0,0-.62-1.87c-.17-.39-.52-1-1-1.95h.83A12.43,12.43,0,0,1,538,8.88a8.89,8.89,0,0,1,.5,3,9,9,0,0,1-.67,3.39A11.89,11.89,0,0,1,536.23,18.08Z"/><line class="cls-2" x1="468.17" y1="49.66" x2="532.49" y2="49.66"/><polygon class="cls-3" points="470.37 52.75 458.35 49.53 470.37 46.31 470.37 52.75"/><polygon class="cls-3" points="530.3 52.75 542.32 49.53 530.3 46.31 530.3 52.75"/><path class="cls-12" d="M486.23,41.16v1.12H480a2,2,0,0,1,.13-.81,4.41,4.41,0,0,1,.77-1.27,12.39,12.39,0,0,1,1.53-1.44,13.89,13.89,0,0,0,2.1-2,2.45,2.45,0,0,0,.54-1.41,1.57,1.57,0,0,0-.5-1.17,1.77,1.77,0,0,0-1.29-.48,1.82,1.82,0,0,0-1.35.51,1.9,1.9,0,0,0-.51,1.4l-1.2-.12a3,3,0,0,1,.92-2,3.18,3.18,0,0,1,2.17-.7,3,3,0,0,1,2.16.76,2.49,2.49,0,0,1,.8,1.88,3,3,0,0,1-.23,1.12,4.37,4.37,0,0,1-.78,1.16,18.16,18.16,0,0,1-1.8,1.68c-.7.59-1.15,1-1.35,1.19a3.9,3.9,0,0,0-.49.64Z"/><path class="cls-12" d="M487.49,37.59a8.8,8.8,0,0,1,.34-2.72,3.35,3.35,0,0,1,1-1.58,2.58,2.58,0,0,1,1.72-.56,2.73,2.73,0,0,1,1.34.31,2.48,2.48,0,0,1,1,.89,4.83,4.83,0,0,1,.59,1.41,9.63,9.63,0,0,1,.21,2.25,8.7,8.7,0,0,1-.34,2.7,3.39,3.39,0,0,1-1,1.59,2.9,2.9,0,0,1-3.89-.42A6.29,6.29,0,0,1,487.49,37.59Zm1.2,0a5.94,5.94,0,0,0,.55,3.12,1.56,1.56,0,0,0,2.7,0,5.89,5.89,0,0,0,.55-3.11,5.89,5.89,0,0,0-.55-3.12,1.61,1.61,0,0,0-1.36-.78,1.5,1.5,0,0,0-1.29.69A6.06,6.06,0,0,0,488.69,37.59Z"/><path class="cls-12" d="M495.53,42.28V41h1.33v1.33Z"/><path class="cls-12" d="M498.57,37.59a8.76,8.76,0,0,1,.35-2.72,3.33,3.33,0,0,1,1-1.58,2.6,2.6,0,0,1,1.72-.56A2.8,2.8,0,0,1,503,33a2.52,2.52,0,0,1,1,.89,4.57,4.57,0,0,1,.59,1.41,9.63,9.63,0,0,1,.21,2.25,8.7,8.7,0,0,1-.34,2.7,3.32,3.32,0,0,1-1,1.59,2.59,2.59,0,0,1-1.73.56,2.63,2.63,0,0,1-2.16-1A6.29,6.29,0,0,1,498.57,37.59Zm1.2,0a5.94,5.94,0,0,0,.55,3.12,1.57,1.57,0,0,0,2.71,0,6,6,0,0,0,.54-3.11,6,6,0,0,0-.54-3.12,1.64,1.64,0,0,0-1.37-.78,1.5,1.5,0,0,0-1.29.69A6.06,6.06,0,0,0,499.77,37.59Z"/><path class="cls-12" d="M512.1,41.16v1.12h-6.29a2,2,0,0,1,.14-.81,4.41,4.41,0,0,1,.77-1.27,12.39,12.39,0,0,1,1.53-1.44,13.23,13.23,0,0,0,2.09-2,2.41,2.41,0,0,0,.55-1.41,1.57,1.57,0,0,0-.5-1.17,1.77,1.77,0,0,0-1.29-.48,1.79,1.79,0,0,0-1.35.51,1.94,1.94,0,0,0-.52,1.4l-1.2-.12a3,3,0,0,1,.93-2,3.17,3.17,0,0,1,2.16-.7,3,3,0,0,1,2.17.76,2.49,2.49,0,0,1,.8,1.88,2.79,2.79,0,0,1-.24,1.12,4.09,4.09,0,0,1-.77,1.16,18.16,18.16,0,0,1-1.8,1.68c-.7.59-1.15,1-1.35,1.19a4,4,0,0,0-.5.64Z"/><path class="cls-12" d="M517.1,42.28V40H513V38.93l4.34-6.16h1v6.16h1.28V40h-1.28v2.28Zm0-3.35V34.64l-3,4.29Z"/><line class="cls-2" x1="394.44" y1="414.14" x2="394.44" y2="329.34"/><polygon class="cls-3" points="397.52 411.94 394.3 423.96 391.08 411.94 397.52 411.94"/><polygon class="cls-3" points="397.52 331.54 394.3 319.52 391.08 331.54 397.52 331.54"/><path class="cls-12" d="M387.29,375.55h1.13v6.29a2,2,0,0,1-.81-.13,4.41,4.41,0,0,1-1.27-.77,12.39,12.39,0,0,1-1.44-1.53,13.89,13.89,0,0,0-2-2.1,2.45,2.45,0,0,0-1.41-.54,1.56,1.56,0,0,0-1.17.49,2,2,0,0,0,0,2.65,1.88,1.88,0,0,0,1.4.51l-.12,1.2a2.93,2.93,0,0,1-2.05-.93,3.14,3.14,0,0,1-.7-2.16,3,3,0,0,1,.75-2.16,2.49,2.49,0,0,1,1.89-.8,3,3,0,0,1,1.12.23,4.53,4.53,0,0,1,1.16.78,17.17,17.17,0,0,1,1.67,1.8q.89,1,1.2,1.35a3.85,3.85,0,0,0,.63.49Z"/><path class="cls-12" d="M385.93,374.3l-.11-1.22a2.26,2.26,0,0,0,1.35-.64,1.71,1.71,0,0,0,.45-1.19,1.84,1.84,0,0,0-.64-1.43,2.37,2.37,0,0,0-1.68-.59,2.14,2.14,0,0,0-1.58.57,1.92,1.92,0,0,0-.58,1.46,2,2,0,0,0,.26,1,2,2,0,0,0,.66.72l-.14,1.09-4.89-.92v-4.73h1.12v3.8l2.56.51a3.08,3.08,0,0,1-.6-1.8,2.86,2.86,0,0,1,.86-2.1,3,3,0,0,1,2.22-.86,3.46,3.46,0,0,1,2.23.76,3.33,3.33,0,0,1,.43,4.61A2.81,2.81,0,0,1,385.93,374.3Z"/><path class="cls-12" d="M388.42,366.26h-1.33v-1.34h1.33Z"/><path class="cls-12" d="M388.42,359.47h-2.28v4.13h-1.07l-6.17-4.34v-.95h6.17V357h1.07v1.29h2.28Zm-3.35,0h-4.29l4.29,3Z"/><polyline class="cls-2" points="454.07 313.28 244.61 324.5 280.19 416.56 162.13 423.96"/><polygon class="cls-3" points="451.7 310.18 463.87 312.76 452.04 316.62 451.7 310.18"/><line class="cls-2" x1="430.88" y1="290.86" x2="437.27" y2="271.9"/><polygon class="cls-3" points="439.62 275.01 440.41 262.58 433.52 272.95 439.62 275.01"/><line class="cls-2" x1="391.94" y1="202.5" x2="360.19" y2="221.76"/><polygon class="cls-3" points="360.4 217.87 351.79 226.86 363.74 223.38 360.4 217.87"/><path class="cls-12" d="M600.4,133.91l-.57-9.5,4.21-.25a5.69,5.69,0,0,1,1.94.14,2.06,2.06,0,0,1,1.12.84,2.77,2.77,0,0,1,.48,1.41,2.43,2.43,0,0,1-.55,1.74,3.33,3.33,0,0,1-2,1,3.05,3.05,0,0,1,.78.43,6.22,6.22,0,0,1,1.12,1.2l1.81,2.48-1.58.1-1.38-1.9c-.4-.55-.73-1-1-1.25a2.84,2.84,0,0,0-.68-.6,1.93,1.93,0,0,0-.59-.22,3.92,3.92,0,0,0-.7,0l-1.46.09.26,4.21Zm.94-5.38,2.7-.16a4.22,4.22,0,0,0,1.34-.26,1.47,1.47,0,0,0,.7-.62,1.55,1.55,0,0,0,.2-.87,1.43,1.43,0,0,0-.55-1.07,2.28,2.28,0,0,0-1.58-.34l-3,.18Z"/><path class="cls-12" d="M613.87,133.11l-1.17.07-.45-7.43a6.21,6.21,0,0,1-1,.87,8,8,0,0,1-1.19.67l-.07-1.12a7.08,7.08,0,0,0,1.64-1.22,4.53,4.53,0,0,0,1-1.33l.75-.05Z"/><path class="cls-12" d="M616.71,130.42l1.16-.23a2.52,2.52,0,0,0,.77,1.39,1.68,1.68,0,0,0,1.2.37,2,2,0,0,0,1.83-2.1,1.8,1.8,0,0,0-.6-1.3,1.86,1.86,0,0,0-1.37-.44,4,4,0,0,0-.81.18l.07-1h.18a2.35,2.35,0,0,0,1.32-.47,1.34,1.34,0,0,0,.53-1.23,1.48,1.48,0,0,0-.5-1,1.56,1.56,0,0,0-1.15-.35,1.63,1.63,0,0,0-1.11.49,2.2,2.2,0,0,0-.5,1.32l-1.18-.13a3,3,0,0,1,.86-1.88,2.85,2.85,0,0,1,1.85-.76,3.07,3.07,0,0,1,1.45.25,2.49,2.49,0,0,1,1.06.85,2.41,2.41,0,0,1,.42,1.2,2.05,2.05,0,0,1-.27,1.14,2.31,2.31,0,0,1-.93.87,2.16,2.16,0,0,1,1.36.72,2.45,2.45,0,0,1,.56,1.51,2.81,2.81,0,0,1-.78,2.16,3.19,3.19,0,0,1-2.24,1,3,3,0,0,1-2.12-.62A2.86,2.86,0,0,1,616.71,130.42Z"/><line class="cls-2" x1="590.05" y1="140.2" x2="638.65" y2="136.82"/><polygon class="cls-3" points="636.68 140.18 648.45 136.13 636.24 133.75 636.68 140.18"/><line class="cls-2" x1="596.4" y1="93.8" x2="586.59" y2="164.14"/><polygon class="cls-3" points="592.9 95.54 597.76 84.08 599.28 96.43 592.9 95.54"/><path class="cls-12" d="M525.2,155.78l-9.44-1.16.51-4.19a5.52,5.52,0,0,1,.49-1.88,2.15,2.15,0,0,1,1-.94,2.63,2.63,0,0,1,1.47-.22,2.41,2.41,0,0,1,1.62.86,3.33,3.33,0,0,1,.62,2.12,2.93,2.93,0,0,1,.57-.7,6.55,6.55,0,0,1,1.38-.88l2.77-1.33L526,149l-2.12,1c-.61.3-1.08.54-1.41.74a2.86,2.86,0,0,0-.71.56,1.88,1.88,0,0,0-.32.54,3.68,3.68,0,0,0-.13.69l-.18,1.45,4.19.51Zm-5.12-1.9.33-2.68a4,4,0,0,0,0-1.36,1.38,1.38,0,0,0-.47-.81,1.48,1.48,0,0,0-.82-.35,1.4,1.4,0,0,0-1.16.35,2.29,2.29,0,0,0-.62,1.48l-.37,3Z"/><path class="cls-12" d="M523.83,146.44v-1.18a2.59,2.59,0,0,0,1.5-.5,1.73,1.73,0,0,0,.58-1.12,1.85,1.85,0,0,0-.4-1.45,1.93,1.93,0,0,0-1.33-.74,1.81,1.81,0,0,0-2.07,1.63,4.11,4.11,0,0,0,0,.83l-1-.26c0-.07,0-.13,0-.18a2.49,2.49,0,0,0-.22-1.38,1.35,1.35,0,0,0-1.12-.74,1.43,1.43,0,0,0-1.11.3,1.54,1.54,0,0,0-.56,1.06,1.6,1.6,0,0,0,.29,1.18,2.14,2.14,0,0,0,1.2.74l-.35,1.13a2.94,2.94,0,0,1-1.68-1.18,2.82,2.82,0,0,1-.42-2,3.29,3.29,0,0,1,.51-1.38,2.41,2.41,0,0,1,1-.88,2.3,2.3,0,0,1,1.26-.2,2,2,0,0,1,1.07.47,2.18,2.18,0,0,1,.68,1.07,2.24,2.24,0,0,1,1-1.2,2.43,2.43,0,0,1,1.58-.28,2.81,2.81,0,0,1,2,1.16,3.21,3.21,0,0,1,.58,2.39,3,3,0,0,1-1,2A2.86,2.86,0,0,1,523.83,146.44Z"/><path class="cls-12" d="M522.57,138.84a8.54,8.54,0,0,1-2.65-.67,3.35,3.35,0,0,1-1.45-1.22,2.63,2.63,0,0,1-.35-1.78,2.81,2.81,0,0,1,.47-1.3,2.63,2.63,0,0,1,1-.83,4.77,4.77,0,0,1,1.48-.42,9.44,9.44,0,0,1,2.26.07,8.7,8.7,0,0,1,2.64.67,3.39,3.39,0,0,1,1.45,1.21,2.91,2.91,0,0,1-.9,3.81A6.22,6.22,0,0,1,522.57,138.84Zm.15-1.19a6,6,0,0,0,3.16-.16,1.62,1.62,0,0,0,.93-1.25,1.59,1.59,0,0,0-.61-1.44A9.17,9.17,0,0,0,520,134a1.63,1.63,0,0,0-.94,1.26,1.52,1.52,0,0,0,.52,1.36A6,6,0,0,0,522.72,137.65Z"/><path class="cls-12" d="M523.47,131.51a8.92,8.92,0,0,1-2.65-.67,3.41,3.41,0,0,1-1.45-1.22,2.63,2.63,0,0,1-.34-1.78,2.81,2.81,0,0,1,.47-1.3,2.55,2.55,0,0,1,1-.83,4.63,4.63,0,0,1,1.47-.42,9.89,9.89,0,0,1,2.26.06,8.81,8.81,0,0,1,2.64.68,3.33,3.33,0,0,1,1.45,1.21,2.66,2.66,0,0,1,.35,1.79,2.61,2.61,0,0,1-1.24,2A6.25,6.25,0,0,1,523.47,131.51Zm.15-1.19a6,6,0,0,0,3.16-.16,1.57,1.57,0,0,0,.33-2.69,6,6,0,0,0-3-.92,5.86,5.86,0,0,0-3.16.16A1.63,1.63,0,0,0,520,128a1.52,1.52,0,0,0,.52,1.36A6.07,6.07,0,0,0,523.62,130.32Z"/><line class="cls-2" x1="538.47" y1="86.61" x2="528.66" y2="156.94"/><polygon class="cls-3" points="534.97 88.34 539.82 76.88 541.35 89.23 534.97 88.34"/><line class="cls-13" x1="500.31" y1="763.51" x2="499.62" y2="59.4"/><path class="cls-3" d="M511.52,763.51v-5l-4.56-6.8h1.88l2.34,3.57c.42.67.83,1.33,1.2,2,.36-.62.81-1.32,1.32-2.08l2.29-3.48h1.82l-4.72,6.8v5Z"/><path class="cls-3" d="M511.52,73.32v-5L507,61.51h1.88l2.34,3.57c.42.67.83,1.33,1.2,2,.36-.62.81-1.31,1.32-2.08L516,61.51h1.82l-4.72,6.81v5Z"/><path class="cls-12" d="M246.25,710.76l3.59-8.81,3.91,1.6a5.71,5.71,0,0,1,1.69,1,2.1,2.1,0,0,1,.64,1.24,2.71,2.71,0,0,1-.18,1.48,2.37,2.37,0,0,1-1.25,1.33,3.27,3.27,0,0,1-2.21.05,3.35,3.35,0,0,1,.53.73,6.91,6.91,0,0,1,.49,1.57l.55,3-1.47-.6-.41-2.31c-.13-.67-.24-1.18-.35-1.55a2.71,2.71,0,0,0-.35-.84,1.88,1.88,0,0,0-.44-.45,3.79,3.79,0,0,0-.63-.3l-1.35-.56-1.6,3.92Zm3.17-4.45,2.51,1a4.14,4.14,0,0,0,1.31.34,1.36,1.36,0,0,0,.9-.25,1.45,1.45,0,0,0,.56-.69,1.42,1.42,0,0,0,0-1.21,2.24,2.24,0,0,0-1.27-1l-2.79-1.14Z"/><path class="cls-12" d="M255.63,711.88l1.14.3a2.59,2.59,0,0,0,.1,1.58,1.67,1.67,0,0,0,.92.85,1.86,1.86,0,0,0,1.5,0,2,2,0,0,0,1.07-1.1,1.82,1.82,0,0,0,0-1.43,1.84,1.84,0,0,0-1-1,3.88,3.88,0,0,0-.81-.19l.5-.9.17.09a2.42,2.42,0,0,0,1.4.14,1.32,1.32,0,0,0,1-.88,1.44,1.44,0,0,0,0-1.15,1.55,1.55,0,0,0-.88-.82,1.59,1.59,0,0,0-1.21,0,2.15,2.15,0,0,0-1,1l-1-.63a3,3,0,0,1,1.59-1.32,2.82,2.82,0,0,1,2,.11,3.08,3.08,0,0,1,1.2.86,2.35,2.35,0,0,1,.44,2.49,1.92,1.92,0,0,1-.73.91.87.87,0,1,0-.3,1.62,2.45,2.45,0,0,1-.15,1.6,2.83,2.83,0,0,1-1.64,1.61,3.21,3.21,0,0,1-2.45-.07,3,3,0,0,1-1.65-1.47A2.89,2.89,0,0,1,255.63,711.88Z"/><line class="cls-14" x1="219.1" y1="704.85" x2="260.11" y2="721.98"/><polygon class="cls-12" points="219.89 708.67 210.03 701.06 222.37 702.72 219.89 708.67"/><path class="cls-12" d="M745.67,718.45l3.34-8.91,4,1.47a5.91,5.91,0,0,1,1.72.92,2.11,2.11,0,0,1,.67,1.22,2.68,2.68,0,0,1-.13,1.48A2.41,2.41,0,0,1,754,716a3.34,3.34,0,0,1-2.21.12,3,3,0,0,1,.55.71,6.7,6.7,0,0,1,.53,1.55l.65,3-1.49-.55-.48-2.29c-.15-.67-.28-1.18-.39-1.55a3,3,0,0,0-.38-.82,1.71,1.71,0,0,0-.45-.44,4.19,4.19,0,0,0-.64-.29l-1.37-.51-1.48,4Zm3-4.54,2.54,1a4,4,0,0,0,1.32.3,1.43,1.43,0,0,0,.9-.27,1.49,1.49,0,0,0,.53-.71,1.39,1.39,0,0,0-.07-1.21,2.21,2.21,0,0,0-1.29-1L749.82,711Z"/><path class="cls-12" d="M760.34,722.74l-.39,1-5.89-2.2a2.14,2.14,0,0,1,.41-.72,4.24,4.24,0,0,1,1.17-.91,11.72,11.72,0,0,1,1.93-.82,12.5,12.5,0,0,0,2.67-1.15,2.37,2.37,0,0,0,1-1.12,1.55,1.55,0,0,0,0-1.28,1.82,1.82,0,0,0-1.05-.9,1.89,1.89,0,0,0-1.44,0,1.93,1.93,0,0,0-1,1.14l-1.08-.54a2.94,2.94,0,0,1,1.59-1.59,3.16,3.16,0,0,1,2.27.1,3,3,0,0,1,1.76,1.47,2.5,2.5,0,0,1,.09,2,2.84,2.84,0,0,1-.61,1,4.47,4.47,0,0,1-1.14.82,19.24,19.24,0,0,1-2.27.93c-.86.31-1.42.52-1.68.65a4.51,4.51,0,0,0-.69.42Z"/><line class="cls-14" x1="782.23" y1="737.38" x2="740.73" y2="721.48"/><polygon class="cls-12" points="781.33 733.58 791.4 740.89 779.02 739.6 781.33 733.58"/><line class="cls-2" x1="394.44" y1="582.13" x2="415.44" y2="637.59"/><polygon class="cls-3" points="411.65 636.68 418.92 646.78 417.67 634.39 411.65 636.68"/><path class="cls-12" d="M403.39,595.08l8.81-3.6,1.59,3.91a5.64,5.64,0,0,1,.49,1.89,2.06,2.06,0,0,1-.44,1.32,2.7,2.7,0,0,1-1.17.91,2.47,2.47,0,0,1-1.83,0,3.34,3.34,0,0,1-1.58-1.55,3.39,3.39,0,0,1-.16.88,6.61,6.61,0,0,1-.77,1.45l-1.78,2.51-.59-1.47,1.35-1.91c.39-.56.68-1,.87-1.33a3,3,0,0,0,.35-.84,1.87,1.87,0,0,0,0-.62,4.15,4.15,0,0,0-.22-.67l-.55-1.35-3.92,1.59Zm5.4-.84,1,2.5a3.91,3.91,0,0,0,.67,1.18,1.36,1.36,0,0,0,.81.47,1.59,1.59,0,0,0,.89-.08,1.46,1.46,0,0,0,.84-.88,2.34,2.34,0,0,0-.18-1.59l-1.14-2.79Z"/><path class="cls-12" d="M408.49,607.58l-.44-1.08,6.89-2.81a5.94,5.94,0,0,1-1.16-.72,7.59,7.59,0,0,1-1-.91l1.05-.43a7.07,7.07,0,0,0,1.68,1.17,4.69,4.69,0,0,0,1.57.48l.28.69Z"/><path class="cls-12" d="M418.55,613.23l-.52-1a2.29,2.29,0,0,0,.76-.78,1.65,1.65,0,0,0-.64-2.06,2.75,2.75,0,0,0-1.42-.37,6.3,6.3,0,0,0-2.16.53,2.71,2.71,0,0,1,1.28.59,2.9,2.9,0,0,1,.77,1.07,2.69,2.69,0,0,1-.05,2.17,3.07,3.07,0,0,1-1.75,1.59,3.64,3.64,0,0,1-1.68.28,2.92,2.92,0,0,1-1.5-.54,2.85,2.85,0,0,1-.95-1.27,3,3,0,0,1,.09-2.61,5.42,5.42,0,0,1,2.93-2.19,6.41,6.41,0,0,1,4.1-.57,3,3,0,0,1,1.92,1.81,2.69,2.69,0,0,1,.11,1.94A2.66,2.66,0,0,1,418.55,613.23Zm-5.6-2.86a2.69,2.69,0,0,0-1,.67,1.87,1.87,0,0,0-.51,1,1.77,1.77,0,0,0,.1,1,1.67,1.67,0,0,0,1,1,2.4,2.4,0,0,0,1.71-.12,2.21,2.21,0,0,0,1.24-1.08,1.72,1.72,0,0,0,0-1.44,1.8,1.8,0,0,0-1-1A2.05,2.05,0,0,0,413,610.37Z"/><polyline class="cls-2" points="450.59 586.31 256.78 571.87 299.39 435.98 163.74 424.1"/><polygon class="cls-3" points="448.64 582.94 460.39 587.04 448.16 589.36 448.64 582.94"/><polygon class="cls-3" points="479.18 427.33 467.16 424.11 479.18 420.88 479.18 427.33"/><path class="cls-12" d="M498.19,418.76H497v-7.44a6.4,6.4,0,0,1-1.11.8,7.58,7.58,0,0,1-1.23.6V411.6a6.93,6.93,0,0,0,1.71-1.12,4.37,4.37,0,0,0,1-1.27h.75Z"/><path class="cls-12" d="M507.25,411.58l-1.16.09a2.17,2.17,0,0,0-.45-1,1.5,1.5,0,0,0-1.16-.5,1.57,1.57,0,0,0-1,.31,2.65,2.65,0,0,0-.87,1.17,6.25,6.25,0,0,0-.33,2.2,2.71,2.71,0,0,1,2.31-1.26,2.66,2.66,0,0,1,2,.86,3.1,3.1,0,0,1,.82,2.22,3.66,3.66,0,0,1-.39,1.67,2.8,2.8,0,0,1-2.59,1.58,3,3,0,0,1-2.38-1.07,5.4,5.4,0,0,1-.92-3.54,6.33,6.33,0,0,1,1-4,2.93,2.93,0,0,1,2.4-1.09,2.55,2.55,0,0,1,2.7,2.37Zm-4.77,4.1a2.68,2.68,0,0,0,.25,1.15,1.93,1.93,0,0,0,.72.84,1.74,1.74,0,0,0,1,.29,1.64,1.64,0,0,0,1.27-.6,2.29,2.29,0,0,0,.53-1.62,2.19,2.19,0,0,0-.52-1.55,1.72,1.72,0,0,0-1.33-.57,1.81,1.81,0,0,0-1.34.57A2,2,0,0,0,502.48,415.68Z"/><line class="cls-2" x1="148.5" y1="733.76" x2="148.5" y2="433.93"/><polygon class="cls-3" points="151.59 731.56 148.37 743.58 145.15 731.56 151.59 731.56"/><polygon class="cls-3" points="151.59 436.13 148.37 424.1 145.15 436.13 151.59 436.13"/><path class="cls-12" d="M135.65,589.14h-1.12V583h.9a12.72,12.72,0,0,0,2.57,1.8,15.2,15.2,0,0,0,3.3,1.38,12.89,12.89,0,0,0,2.62.45v1.2a11.6,11.6,0,0,1-2.72-.44,14.34,14.34,0,0,1-3.06-1.21,13.15,13.15,0,0,1-2.49-1.68Z"/><path class="cls-12" d="M136.73,575.76l.09,1.17a2.17,2.17,0,0,0-1,.44,1.54,1.54,0,0,0-.5,1.17,1.63,1.63,0,0,0,.31,1,2.63,2.63,0,0,0,1.18.87,6,6,0,0,0,2.2.34,2.68,2.68,0,0,1-.95-1,2.72,2.72,0,0,1-.32-1.27,2.65,2.65,0,0,1,.86-2,3.1,3.1,0,0,1,2.23-.82,3.61,3.61,0,0,1,1.66.38,2.83,2.83,0,0,1,1.18,1.06,2.92,2.92,0,0,1,.41,1.53A3,3,0,0,1,143,581a5.43,5.43,0,0,1-3.54.92,6.35,6.35,0,0,1-4-1,3,3,0,0,1-1.09-2.4,2.7,2.7,0,0,1,.63-1.84A2.74,2.74,0,0,1,136.73,575.76Zm4.1,4.77a2.72,2.72,0,0,0,1.16-.25,1.87,1.87,0,0,0,.84-.72,1.83,1.83,0,0,0,.29-1,1.65,1.65,0,0,0-.6-1.27,2.38,2.38,0,0,0-1.62-.53,2.22,2.22,0,0,0-1.56.53,1.74,1.74,0,0,0-.56,1.32,1.82,1.82,0,0,0,.56,1.34A2,2,0,0,0,140.83,580.53Z"/><path class="cls-12" d="M143.92,573.78h-1.34v-1.33h1.34Z"/><path class="cls-12" d="M142.79,564.6h1.13v6.29a2.05,2.05,0,0,1-.82-.14,4.32,4.32,0,0,1-1.26-.76,12.33,12.33,0,0,1-1.44-1.53,12.5,12.5,0,0,0-2-2.1,2.4,2.4,0,0,0-1.4-.54,1.55,1.55,0,0,0-1.17.49,1.8,1.8,0,0,0-.48,1.3,1.82,1.82,0,0,0,.51,1.35,1.91,1.91,0,0,0,1.4.51l-.13,1.2a2.93,2.93,0,0,1-2-.93,3.14,3.14,0,0,1-.71-2.16,3.07,3.07,0,0,1,.76-2.17,2.51,2.51,0,0,1,1.88-.79,2.82,2.82,0,0,1,1.13.23,4.64,4.64,0,0,1,1.16.77,20,20,0,0,1,1.67,1.81q.89,1.05,1.2,1.35a4.49,4.49,0,0,0,.63.49Z"/><line class="cls-2" x1="177.55" y1="733.76" x2="177.55" y2="440.37"/><polygon class="cls-3" points="180.63 731.56 177.41 743.58 174.19 731.56 180.63 731.56"/><polygon class="cls-3" points="180.63 442.57 177.41 430.55 174.19 442.57 180.63 442.57"/><path class="cls-12" d="M164.69,599.19h-1.12V593h.91a12.44,12.44,0,0,0,2.57,1.8,15.2,15.2,0,0,0,3.3,1.38,11.45,11.45,0,0,0,2.61.45v1.2a11.52,11.52,0,0,1-2.71-.44,14.1,14.1,0,0,1-3.07-1.21,13.32,13.32,0,0,1-2.49-1.68Z"/><path class="cls-12" d="M170.47,591.88l-.11-1.23a2.2,2.2,0,0,0,1.35-.63,1.72,1.72,0,0,0,.45-1.2,1.88,1.88,0,0,0-.63-1.43,2.46,2.46,0,0,0-1.69-.58,2.19,2.19,0,0,0-1.58.56,2,2,0,0,0-.58,1.47,2,2,0,0,0,.26,1,1.91,1.91,0,0,0,.67.71l-.15,1.1-4.88-.92V586h1.11v3.79l2.56.52a3.08,3.08,0,0,1-.6-1.8,2.83,2.83,0,0,1,.87-2.1,3,3,0,0,1,2.22-.86,3.47,3.47,0,0,1,2.23.75,3,3,0,0,1,1.15,2.5,3.1,3.1,0,0,1-.72,2.12A2.85,2.85,0,0,1,170.47,591.88Z"/><path class="cls-12" d="M173,583.83h-1.33V582.5H173Z"/><path class="cls-12" d="M173,576.39v1.17h-7.44a5.91,5.91,0,0,1,.8,1.11,8.68,8.68,0,0,1,.61,1.23H165.8a6.93,6.93,0,0,0-1.12-1.71,4.37,4.37,0,0,0-1.27-1v-.76Z"/><path class="cls-12" d="M170.45,573.4l-.16-1.17a2.53,2.53,0,0,0,1.43-.69,1.64,1.64,0,0,0,.44-1.17,1.93,1.93,0,0,0-2-2,1.79,1.79,0,0,0-1.33.52,1.82,1.82,0,0,0-.52,1.34,3.18,3.18,0,0,0,.13.82l-1-.13a1.42,1.42,0,0,0,0-.19,2.49,2.49,0,0,0-.38-1.34,1.34,1.34,0,0,0-1.21-.6,1.43,1.43,0,0,0-1.06.44,1.54,1.54,0,0,0-.42,1.12,1.59,1.59,0,0,0,.43,1.14,2.16,2.16,0,0,0,1.28.58l-.21,1.17a3,3,0,0,1-1.82-1,2.83,2.83,0,0,1-.64-1.89,3.17,3.17,0,0,1,.33-1.44,2.46,2.46,0,0,1,.91-1,2.39,2.39,0,0,1,1.23-.35A2,2,0,0,1,167,568a2.27,2.27,0,0,1,.81,1,2.24,2.24,0,0,1,.81-1.31,2.44,2.44,0,0,1,1.53-.46,2.82,2.82,0,0,1,2.11.9,3.21,3.21,0,0,1,.87,2.3,3,3,0,0,1-.75,2.08A2.89,2.89,0,0,1,170.45,573.4Z"/><rect class="cls-4" x="499.11" y="403" width="1.45" height="23.64"/><polygon class="cls-3" points="521.86 427.19 533.88 423.97 521.86 420.75 521.86 427.19"/><line class="cls-2" x1="476.98" y1="424.1" x2="524.06" y2="424.1"/></g><g id="Watermark"><rect class="cls-4" x="438.45" y="690.37" width="123.09" height="46.3"/><rect class="cls-15" x="444.86" y="698.21" width="62.89" height="30.62"/><rect class="cls-15" x="507.75" y="698.21" width="47.39" height="30.62"/><path class="cls-16" d="M466.48,704.31l-2.79,18.92H461l-1.55-11-1.53,11h-2.74l-2.8-18.92h2.51l1.79,14.18,1.79-14.18h2l1.79,14.18L464,704.31Z"/><path class="cls-16" d="M467.93,723.23V704.31h2.53v18.92Z"/><path class="cls-16" d="M472.83,704.31h5q2.9,0,2.9,3.24v4.66c0,1.66-.51,2.7-1.51,3.14l1.77,7.88h-2.4l-1.66-7.64h-1.53v7.64h-2.53Zm2.53,9.12H477c.76,0,1.14-.46,1.14-1.37V708c0-.91-.38-1.37-1.14-1.37h-1.66Z"/><path class="cls-16" d="M486.82,706.6v16.63h-2.53V706.6h-2.42v-2.29h7.38v2.29Z"/><path class="cls-16" d="M496.34,723.23v-8.59h-3.11v8.59H490.7V704.31h2.53v8h3.11v-8h2.53v18.92Z"/><path class="cls-16" d="M516.31,704.31h5q2.9,0,2.89,3.24v4.66c0,1.66-.5,2.7-1.5,3.14l1.77,7.88H522l-1.66-7.64h-1.53v7.64h-2.53Zm2.53,9.12h1.66c.76,0,1.13-.46,1.13-1.37V708c0-.91-.37-1.37-1.13-1.37h-1.66Z"/><path class="cls-16" d="M528.67,723.23h-2.53V707.55q0-3.24,3-3.24h1.9q3,0,3,3.24v15.68h-2.53V716.3h-2.9Zm2.9-9.22v-6.3a1,1,0,0,0-1.11-1.11h-.68a1,1,0,0,0-1.11,1.11V714Z"/><path class="cls-16" d="M536.34,723.23V704.31h2.53v18.92Z"/><path class="cls-16" d="M547.24,723.23h-6V704.31h2.53v16.63h3.47Z"/></g></svg>