<svg xmlns="http://www.w3.org/2000/svg" viewBox="0 0 1000 800"><defs><style>.cls-1,.cls-9{fill:#f0f0f0;}.cls-2,.cls-3,.cls-5,.cls-6,.cls-7,.cls-8{fill:none;stroke:#221e1f;}.cls-2{stroke-width:1.33px;}.cls-3,.cls-6,.cls-9{stroke-miterlimit:10;}.cls-3,.cls-5,.cls-7,.cls-8{stroke-width:0.93px;}.cls-4{fill:#221e1f;}.cls-6{stroke-width:0.94px;}.cls-7,.cls-8{stroke-linecap:round;stroke-linejoin:round;}.cls-7{stroke-dashoffset:77.44px;stroke-dasharray:62.78 14.66 1.3 14.66;}.cls-8{stroke-dashoffset:78.68px;stroke-dasharray:63.4 15.28 1.92 15.28;}.cls-9{stroke:#ccc;}.cls-10{fill:#ccc;}</style></defs><g id="Flat"><path class="cls-1" d="M198.55,716.64a8.82,8.82,0,0,0,3,6.74,7.51,7.51,0,0,0,5,1.77H796.78a7.55,7.55,0,0,0,5-1.77,8.84,8.84,0,0,0,3-6.74V690c0-1.92-1.2-8.33-4.17-12.05a16.41,16.41,0,0,0-10.73-5.58l-69.19-8.59c-15.82-1.54-40.38-9.66-56-14.8,0,0-63-16.93-75.31-22.82s-25.41-16.58-30.54-25a94.28,94.28,0,0,1-8.28-17.33c-11.13-34-14.76-235.25-5.24-266.49,5.63-18.47,29.14-34.28,39.8-38.85l72.37-21.9c9.33-4,13.33-11.5,13.33-16.38l-5.28-97.65c-1.19-15.08-.56-24.09-9.76-39.08-7.2-11.71-23.35-22.84-42.92-27.08-39.84-8.65-71-9.08-111.59-9.08-66.15,0-98.41,6.24-115.76,10.58-12.13,3-24.89,9-33.3,19.11a57.54,57.54,0,0,0-13.52,36.94L332.4,238.11c0,8.57,5.52,14.47,13,18.28l69.88,21.42c7.23,2.67,34.86,12.29,45,48.28,5.9,21.06,2.09,207-6.64,255.34-1.26,7-6.24,16-10.41,21.36s-7.78,9.66-22.2,19.11c-14.77,9.68-123.8,39.26-133.52,41.19-14.55,2.89-75.55,9.07-75.55,9.07-3.81.39-8.11,2.09-10.7,5.22s-2.73,9-2.73,13.26Z"/><path class="cls-2" d="M198.55,716.64a8.82,8.82,0,0,0,3,6.74,7.51,7.51,0,0,0,5,1.77H796.78a7.55,7.55,0,0,0,5-1.77,8.84,8.84,0,0,0,3-6.74V690c0-1.92-1.2-8.33-4.17-12.05a16.41,16.41,0,0,0-10.73-5.58l-69.19-8.59c-15.82-1.54-40.38-9.66-56-14.8,0,0-63-16.93-75.31-22.82s-25.41-16.58-30.54-25a94.28,94.28,0,0,1-8.28-17.33c-11.13-34-14.76-235.25-5.24-266.49,5.63-18.47,29.14-34.28,39.8-38.85l72.37-21.9c9.33-4,13.33-11.5,13.33-16.38l-5.28-97.65c-1.19-15.08-.56-24.09-9.76-39.08-7.2-11.71-23.35-22.84-42.92-27.08-39.84-8.65-71-9.08-111.59-9.08-66.15,0-98.41,6.24-115.76,10.58-12.13,3-24.89,9-33.3,19.11a57.54,57.54,0,0,0-13.52,36.94L332.4,238.11c0,8.57,5.52,14.47,13,18.28l69.88,21.42c7.23,2.67,34.86,12.29,45,48.28,5.9,21.06,2.09,207-6.64,255.34-1.26,7-6.24,16-10.41,21.36s-7.78,9.66-22.2,19.11c-14.77,9.68-123.8,39.26-133.52,41.19-14.55,2.89-75.55,9.07-75.55,9.07-3.81.39-8.11,2.09-10.7,5.22s-2.73,9-2.73,13.26Z"/><line class="cls-3" x1="211.96" y1="778" x2="787.51" y2="778"/><polygon class="cls-4" points="214.72 781.89 199.58 777.83 214.72 773.77 214.72 781.89"/><polygon class="cls-4" points="784.75 781.89 799.89 777.83 784.75 773.77 784.75 781.89"/><line class="cls-3" x1="198.36" y1="713.52" x2="198.36" y2="790.06"/><line class="cls-3" x1="804.74" y1="713.52" x2="804.74" y2="790.06"/><path class="cls-3" d="M788.46,724.77H986.2m-903.13,0H240.51M129.92,454.28h28.74M351.39,27.17H651.7"/><polygon class="cls-4" points="354.16 31.06 339.02 27 354.16 22.94 354.16 31.06"/><polygon class="cls-4" points="648.94 31.06 664.08 27 648.94 22.94 648.94 31.06"/><path class="cls-4" d="M519.36,749.49v-5.6l-5.1-7.62h2.13l2.61,4c.48.75.93,1.5,1.34,2.24q.6-1,1.44-2.34l2.57-3.88h2l-5.28,7.62v5.6Z"/><path class="cls-4" d="M519.36,51.12v-5.6l-5.1-7.63h2.13l2.61,4c.48.75.93,1.49,1.34,2.24q.6-1,1.44-2.34l2.57-3.89h2l-5.28,7.63v5.6Z"/><path class="cls-4" d="M769.51,396.82l5.12-6.9-4.52-6.33h2.09l2.4,3.39a19.39,19.39,0,0,1,1.06,1.63,17.35,17.35,0,0,1,1.05-1.51l2.66-3.51h1.91l-4.65,6.23,5,7h-2.17l-3.33-4.72c-.18-.27-.38-.57-.58-.89-.29.49-.5.82-.63,1l-3.32,4.61Z"/><path class="cls-4" d="M110.11,396.82l5.11-6.9-4.51-6.33h2.09l2.4,3.39a19.39,19.39,0,0,1,1.06,1.63,15.4,15.4,0,0,1,1-1.51l2.66-3.51h1.9l-4.64,6.23,5,7h-2.16l-3.33-4.72c-.19-.27-.38-.57-.58-.89-.29.49-.5.82-.63,1l-3.32,4.61Z"/><path class="cls-4" d="M268.71,118.64V105.42h5.87a7.8,7.8,0,0,1,2.69.35,3,3,0,0,1,1.47,1.26,3.82,3.82,0,0,1,.55,2,3.38,3.38,0,0,1-.91,2.38,4.62,4.62,0,0,1-2.82,1.22,5.18,5.18,0,0,1,1.06.66,9.39,9.39,0,0,1,1.45,1.76l2.3,3.6h-2.2l-1.75-2.75c-.51-.79-.94-1.4-1.27-1.82a4.09,4.09,0,0,0-.88-.89,3.1,3.1,0,0,0-.8-.35,5.62,5.62,0,0,0-1-.06h-2v5.87Zm1.75-7.39h3.77a5.81,5.81,0,0,0,1.87-.24,2.08,2.08,0,0,0,1-.8,2.18,2.18,0,0,0,.35-1.19,2,2,0,0,0-.68-1.54,3.19,3.19,0,0,0-2.15-.6h-4.19Z"/><path class="cls-4" d="M292.62,118.64H291V108.29a8.08,8.08,0,0,1-1.54,1.12,9.86,9.86,0,0,1-1.71.84v-1.57a9.78,9.78,0,0,0,2.38-1.55,6.32,6.32,0,0,0,1.45-1.77h1Z"/><path class="cls-4" d="M296.79,115.15l1.62-.22a3.57,3.57,0,0,0,1,2,2.31,2.31,0,0,0,1.63.61,2.62,2.62,0,0,0,1.94-.79,2.68,2.68,0,0,0,.79-2,2.5,2.5,0,0,0-2.59-2.57,4.7,4.7,0,0,0-1.15.18l.18-1.42h.26a3.33,3.33,0,0,0,1.87-.54,1.84,1.84,0,0,0,.83-1.67,2,2,0,0,0-.6-1.48,2.15,2.15,0,0,0-1.56-.58,2.24,2.24,0,0,0-1.58.59,3,3,0,0,0-.81,1.79l-1.63-.29a4.16,4.16,0,0,1,1.36-2.53,3.9,3.9,0,0,1,2.62-.9,4.36,4.36,0,0,1,2,.47,3.41,3.41,0,0,1,1.39,1.26,3.3,3.3,0,0,1,.48,1.71,2.77,2.77,0,0,1-.46,1.56,3.12,3.12,0,0,1-1.36,1.12,3,3,0,0,1,1.82,1.12,3.45,3.45,0,0,1,.65,2.14,3.9,3.9,0,0,1-1.26,2.93,4.42,4.42,0,0,1-3.2,1.21,4.17,4.17,0,0,1-2.89-1A4,4,0,0,1,296.79,115.15Z"/><path class="cls-4" d="M275.62,336.82l-.73-13.21,5.85-.33a8,8,0,0,1,2.71.21,2.9,2.9,0,0,1,1.53,1.18,3.65,3.65,0,0,1,.66,2,3.31,3.31,0,0,1-.77,2.42,4.69,4.69,0,0,1-2.75,1.38,4.23,4.23,0,0,1,1.1.6,9.3,9.3,0,0,1,1.54,1.67l2.5,3.47-2.2.12-1.9-2.65c-.55-.76-1-1.35-1.36-1.75a3.85,3.85,0,0,0-.94-.83,2.46,2.46,0,0,0-.81-.31,5.88,5.88,0,0,0-1,0l-2,.12.33,5.86Zm1.34-7.48,3.76-.21a5.52,5.52,0,0,0,1.85-.35,2,2,0,0,0,1-.85,2.13,2.13,0,0,0,.28-1.2,2,2,0,0,0-.76-1.51,3.27,3.27,0,0,0-2.18-.48l-4.18.23Z"/><path class="cls-4" d="M293.19,332.37l1.7-.24a3.06,3.06,0,0,0,1,1.82,2.38,2.38,0,0,0,1.7.53,2.57,2.57,0,0,0,1.93-1,3.29,3.29,0,0,0,.68-2.39,3,3,0,0,0-.9-2.14,2.69,2.69,0,0,0-2.09-.69,2.84,2.84,0,0,0-1.39.43,2.75,2.75,0,0,0-.94,1l-1.53-.11.9-6.86,6.57-.36.08,1.55-5.27.29-.51,3.59a4.29,4.29,0,0,1,2.45-1,3.94,3.94,0,0,1,3,1,4.17,4.17,0,0,1,1.36,3A4.79,4.79,0,0,1,301,334a4.19,4.19,0,0,1-3.38,1.8,4.29,4.29,0,0,1-3-.85A4,4,0,0,1,293.19,332.37Z"/><path class="cls-4" d="M303.29,328.74a11.93,11.93,0,0,1,.27-3.79,4.61,4.61,0,0,1,1.31-2.29,3.69,3.69,0,0,1,2.35-.91,4,4,0,0,1,1.88.33,3.54,3.54,0,0,1,1.4,1.16,6.87,6.87,0,0,1,.93,1.92,13.45,13.45,0,0,1,.47,3.1,12.5,12.5,0,0,1-.27,3.78,4.73,4.73,0,0,1-1.31,2.29,4,4,0,0,1-5.43-.29C304,333,303.42,331.22,303.29,328.74Zm1.66-.09c.12,2.17.46,3.6,1,4.29a2.18,2.18,0,0,0,3.76-.22c.47-.75.64-2.2.52-4.36s-.46-3.61-1-4.29a2.27,2.27,0,0,0-2-1,2.09,2.09,0,0,0-1.73,1C305,325,304.83,326.48,305,328.65Z"/><path class="cls-4" d="M313.55,328.17a12,12,0,0,1,.27-3.8,4.65,4.65,0,0,1,1.31-2.28,3.71,3.71,0,0,1,2.35-.91,3.89,3.89,0,0,1,1.89.33,3.51,3.51,0,0,1,1.39,1.16,6.6,6.6,0,0,1,.93,1.92,12.93,12.93,0,0,1,.47,3.1,11.89,11.89,0,0,1-.27,3.78,4.72,4.72,0,0,1-1.3,2.29,3.7,3.7,0,0,1-2.36.91,3.65,3.65,0,0,1-3.08-1.2C314.22,332.42,313.68,330.65,313.55,328.17Zm1.66-.09c.12,2.17.46,3.6,1,4.28a2.17,2.17,0,0,0,3.75-.21c.47-.75.64-2.2.52-4.37s-.45-3.6-1-4.29a2.26,2.26,0,0,0-2-1,2.09,2.09,0,0,0-1.73,1C315.29,324.41,315.09,325.91,315.21,328.08Z"/><path class="cls-4" d="M389.14,383.9l-.42-13.22,5.86-.18a7.7,7.7,0,0,1,2.7.27,2.93,2.93,0,0,1,1.51,1.21,3.7,3.7,0,0,1,.61,2,3.37,3.37,0,0,1-.83,2.4,4.6,4.6,0,0,1-2.78,1.31,4.66,4.66,0,0,1,1.08.63,9.2,9.2,0,0,1,1.51,1.71l2.41,3.53-2.2.06-1.84-2.69a21.2,21.2,0,0,0-1.32-1.78,4.07,4.07,0,0,0-.91-.86,2.77,2.77,0,0,0-.81-.33,6.49,6.49,0,0,0-1,0l-2,.07.19,5.87Zm1.51-7.44,3.77-.12a5.46,5.46,0,0,0,1.86-.31,2,2,0,0,0,1-.82,2.2,2.2,0,0,0,.31-1.2,2,2,0,0,0-.73-1.52,3.14,3.14,0,0,0-2.17-.53l-4.18.13Z"/><path class="cls-4" d="M406.81,379.86l1.7-.2a3.08,3.08,0,0,0,.93,1.85,2.43,2.43,0,0,0,1.69.57,2.61,2.61,0,0,0,2-.94,3.35,3.35,0,0,0,.73-2.37,3,3,0,0,0-.84-2.17,2.72,2.72,0,0,0-2.07-.74,2.9,2.9,0,0,0-1.41.4,2.76,2.76,0,0,0-1,1l-1.53-.15,1.07-6.84,6.57-.2.05,1.55-5.28.16-.6,3.58a4.32,4.32,0,0,1,2.48-.91,4,4,0,0,1,2.95,1.11,4.2,4.2,0,0,1,1.29,3.05,4.79,4.79,0,0,1-1,3.13,4.19,4.19,0,0,1-3.42,1.72,4.34,4.34,0,0,1-3-.92A3.93,3.93,0,0,1,406.81,379.86Z"/><path class="cls-4" d="M417,376.48a12.11,12.11,0,0,1,.37-3.79,4.77,4.77,0,0,1,1.36-2.25,3.71,3.71,0,0,1,2.37-.85A3.91,3.91,0,0,1,423,370a3.58,3.58,0,0,1,1.37,1.2,6.58,6.58,0,0,1,.88,1.94,13.56,13.56,0,0,1,.4,3.11,12.31,12.31,0,0,1-.37,3.77,4.67,4.67,0,0,1-1.35,2.26,3.69,3.69,0,0,1-2.38.85,3.63,3.63,0,0,1-3.05-1.27C417.55,380.74,417.06,379,417,376.48Zm1.67-.05c.07,2.17.37,3.61.9,4.31a2.18,2.18,0,0,0,3.76-.12c.49-.74.7-2.19.63-4.36s-.37-3.61-.9-4.31a2.25,2.25,0,0,0-1.93-1,2.07,2.07,0,0,0-1.76,1C418.82,372.76,418.59,374.26,418.65,376.43Z"/><path class="cls-4" d="M427.26,376.16a12.15,12.15,0,0,1,.36-3.79,4.77,4.77,0,0,1,1.36-2.25,3.66,3.66,0,0,1,2.37-.85,3.91,3.91,0,0,1,1.88.37,3.64,3.64,0,0,1,1.37,1.19,6.56,6.56,0,0,1,.88,1.94,13.19,13.19,0,0,1,.4,3.12,12,12,0,0,1-.36,3.77,4.69,4.69,0,0,1-1.36,2.25,4,4,0,0,1-5.43-.42C427.83,380.42,427.33,378.64,427.26,376.16Zm1.66-.05c.07,2.17.37,3.6.9,4.31a2.17,2.17,0,0,0,3.76-.13q.74-1.1.63-4.35c-.07-2.18-.37-3.61-.9-4.31a2.27,2.27,0,0,0-1.93-1,2.1,2.1,0,0,0-1.76,1C429.09,372.44,428.86,373.94,428.92,376.11Z"/><path class="cls-4" d="M287.93,552.38l1.12-13.18,5.84.5a7.82,7.82,0,0,1,2.65.58,3,3,0,0,1,1.36,1.38,3.81,3.81,0,0,1,.38,2,3.33,3.33,0,0,1-1.11,2.29,4.64,4.64,0,0,1-2.91,1,4.7,4.7,0,0,1,1,.74,9.26,9.26,0,0,1,1.3,1.88l2,3.78-2.19-.19-1.51-2.89c-.45-.83-.81-1.47-1.11-1.92a3.79,3.79,0,0,0-.81-1,2.36,2.36,0,0,0-.76-.41,5.36,5.36,0,0,0-1-.15l-2-.17-.5,5.85Zm2.37-7.21,3.75.32a6.06,6.06,0,0,0,1.89-.09,2,2,0,0,0,1.09-.71,2.18,2.18,0,0,0,.45-1.15,2,2,0,0,0-.55-1.59,3.18,3.18,0,0,0-2.09-.79l-4.17-.35Z"/><path class="cls-4" d="M306,550.43h1.71a3.08,3.08,0,0,0,.72,1.94,2.39,2.39,0,0,0,1.6.77,2.6,2.6,0,0,0,2.06-.71,3.34,3.34,0,0,0,1-2.27,3,3,0,0,0-.59-2.25,2.75,2.75,0,0,0-2-1,2.89,2.89,0,0,0-1.44.24A2.68,2.68,0,0,0,308,548l-1.51-.33,1.85-6.66,6.56.55-.13,1.55-5.26-.44-1,3.48a4.28,4.28,0,0,1,2.56-.62,4,4,0,0,1,2.81,1.44,4.21,4.21,0,0,1,.92,3.18,4.79,4.79,0,0,1-1.3,3,4.21,4.21,0,0,1-3.6,1.31,4.25,4.25,0,0,1-2.85-1.26A3.92,3.92,0,0,1,306,550.43Z"/><path class="cls-4" d="M316.45,548.25a12.17,12.17,0,0,1,.8-3.72,4.7,4.7,0,0,1,1.61-2.07,3.66,3.66,0,0,1,2.46-.58,3.92,3.92,0,0,1,1.82.59,3.59,3.59,0,0,1,1.22,1.34,6.73,6.73,0,0,1,.65,2,13.27,13.27,0,0,1,0,3.14,12.13,12.13,0,0,1-.79,3.71,4.79,4.79,0,0,1-1.61,2.08,3.67,3.67,0,0,1-2.47.57,3.56,3.56,0,0,1-2.87-1.62Q316.13,552,316.45,548.25Zm1.66.14c-.18,2.17-.05,3.63.39,4.39a2.24,2.24,0,0,0,1.79,1.23,2.21,2.21,0,0,0,2-.92c.57-.67.95-2.09,1.13-4.25s.05-3.63-.39-4.39a2.3,2.3,0,0,0-1.81-1.23,2.08,2.08,0,0,0-1.86.8C318.7,544.77,318.29,546.23,318.11,548.39Z"/><path class="cls-4" d="M326.69,549.12a12,12,0,0,1,.8-3.72,4.79,4.79,0,0,1,1.61-2.08,3.71,3.71,0,0,1,2.46-.57,3.92,3.92,0,0,1,1.82.59,3.59,3.59,0,0,1,1.22,1.34,6.64,6.64,0,0,1,.65,2,13.27,13.27,0,0,1,0,3.14,12,12,0,0,1-.79,3.7,4.77,4.77,0,0,1-1.61,2.09,3.71,3.71,0,0,1-2.46.57,3.62,3.62,0,0,1-2.88-1.62Q326.37,552.83,326.69,549.12Zm1.66.14c-.18,2.17-.05,3.63.39,4.39a2.18,2.18,0,0,0,3.75.31c.57-.68.95-2.09,1.13-4.25s.05-3.63-.39-4.39a2.28,2.28,0,0,0-1.8-1.23,2.1,2.1,0,0,0-1.87.79C328.94,545.64,328.53,547.1,328.35,549.26Z"/><path class="cls-4" d="M354.34,230.61l-6.91-11.28,5-3.06a7.87,7.87,0,0,1,2.48-1.1,2.92,2.92,0,0,1,1.91.3,3.84,3.84,0,0,1,1.52,1.42,3.33,3.33,0,0,1,.46,2.5A4.61,4.61,0,0,1,357,221.9a4.56,4.56,0,0,1,1.24,0,9.55,9.55,0,0,1,2.16.74l3.84,1.87-1.87,1.15-2.93-1.43c-.86-.41-1.53-.71-2-.89a3.73,3.73,0,0,0-1.22-.29,2.73,2.73,0,0,0-.87.11,5.08,5.08,0,0,0-.86.46l-1.73,1.06,3.07,5ZM352,223.4l3.2-2a5.71,5.71,0,0,0,1.47-1.19,2,2,0,0,0,.47-1.22,2.15,2.15,0,0,0-.32-1.19,2,2,0,0,0-1.39-1,3.18,3.18,0,0,0-2.15.61l-3.57,2.18Z"/><path class="cls-4" d="M367.7,218.36l1.38-1a3,3,0,0,0,1.73,1.13,2.37,2.37,0,0,0,1.75-.33,2.58,2.58,0,0,0,1.23-1.79,3.36,3.36,0,0,0-.53-2.43,3.05,3.05,0,0,0-1.81-1.46,2.76,2.76,0,0,0-2.17.39,2.9,2.9,0,0,0-1,1,2.84,2.84,0,0,0-.36,1.31l-1.41.62L364,209.37l5.61-3.43.81,1.32L366,210l1.25,3.4a4.22,4.22,0,0,1,1.69-2,3.93,3.93,0,0,1,3.12-.51,4.21,4.21,0,0,1,2.63,2,4.79,4.79,0,0,1,.73,3.19,4.19,4.19,0,0,1-2.12,3.19,4.31,4.31,0,0,1-3,.68A4,4,0,0,1,367.7,218.36Z"/><path class="cls-4" d="M380.66,260.88l-1.53-.55,3.49-9.74a8,8,0,0,1-1.83.53,11.1,11.1,0,0,1-1.89.22l.53-1.48a10,10,0,0,0,2.76-.66,5.91,5.91,0,0,0,2-1.18l1,.36Z"/><path class="cls-4" d="M385.43,262.58l.62-1.74,1.74.63-.62,1.74Zm2.6-7.28.62-1.74,1.74.62-.62,1.75Z"/><path class="cls-4" d="M390.6,260.72l1.6.35a3.56,3.56,0,0,0,.22,2.19,2.39,2.39,0,0,0,1.34,1.13,2.66,2.66,0,0,0,2.09-.1,2.72,2.72,0,0,0,1.41-1.58,2.5,2.5,0,0,0-1.58-3.3,4.65,4.65,0,0,0-1.14-.21l.65-1.29.24.11a3.43,3.43,0,0,0,1.95.12,1.85,1.85,0,0,0,1.34-1.29,2,2,0,0,0-.07-1.6,2.18,2.18,0,0,0-1.27-1.08,2.24,2.24,0,0,0-1.69,0,3,3,0,0,0-1.37,1.41l-1.43-.82a4.16,4.16,0,0,1,2.13-1.93,4,4,0,0,1,2.77,0,4.3,4.3,0,0,1,1.72,1.11,3.33,3.33,0,0,1,.89,1.67,3.27,3.27,0,0,1-.12,1.76,2.77,2.77,0,0,1-1,1.32,3.15,3.15,0,0,1-1.66.59A3.09,3.09,0,0,1,399,261a3.45,3.45,0,0,1-.11,2.23,3.88,3.88,0,0,1-2.18,2.34,4.46,4.46,0,0,1-3.41.06,4.12,4.12,0,0,1-2.37-1.95A4,4,0,0,1,390.6,260.72Z"/><path class="cls-4" d="M359.62,634l-1.56.44-2.84-10a7.9,7.9,0,0,1-1.17,1.5,11.83,11.83,0,0,1-1.41,1.28l-.44-1.51a9.85,9.85,0,0,0,1.87-2.15,5.92,5.92,0,0,0,.9-2.1l1-.28Z"/><path class="cls-4" d="M362.37,625.19l-.51-1.78,1.78-.5.51,1.78Zm2.12,7.44-.51-1.78,1.78-.51.51,1.78Z"/><path class="cls-4" d="M367.61,628.11l1.5-.66a3.5,3.5,0,0,0,1.46,1.65,2.35,2.35,0,0,0,1.75.14A2.63,2.63,0,0,0,374,628a2.71,2.71,0,0,0,.22-2.11,2.48,2.48,0,0,0-3.2-1.76,4.6,4.6,0,0,0-1.05.48l-.22-1.42a1.33,1.33,0,0,0,.26,0,3.47,3.47,0,0,0,1.65-1,1.89,1.89,0,0,0,.34-1.84,2,2,0,0,0-1-1.25,2.15,2.15,0,0,0-1.66-.14,2.21,2.21,0,0,0-1.36,1,3,3,0,0,0-.29,1.94L366,622a4.13,4.13,0,0,1,.61-2.81,3.86,3.86,0,0,1,2.28-1.58,4.29,4.29,0,0,1,2-.1,3.41,3.41,0,0,1,1.69.83,3.2,3.2,0,0,1,.93,1.51,2.83,2.83,0,0,1,0,1.63,3.15,3.15,0,0,1-1,1.45,3.06,3.06,0,0,1,2.06.58,3.32,3.32,0,0,1,1.21,1.87,3.88,3.88,0,0,1-.4,3.17,4.51,4.51,0,0,1-2.74,2,4.18,4.18,0,0,1-3.07-.21A4,4,0,0,1,367.61,628.11Z"/><path class="cls-4" d="M435.4,640.23l-1.62.13-.85-10.31a9,9,0,0,1-1.44,1.24,10.38,10.38,0,0,1-1.64,1l-.12-1.56A9.63,9.63,0,0,0,432,629a6.2,6.2,0,0,0,1.3-1.88l1-.09Z"/><path class="cls-4" d="M439.81,632.11l-.15-1.85,1.84-.15.15,1.85Zm.63,7.7-.15-1.84,1.85-.15.15,1.84Z"/><path class="cls-4" d="M443.83,628l-.13-1.55,8.53-.7.11,1.26a18,18,0,0,0-2.21,3.76,21.75,21.75,0,0,0-1.53,4.73,17.06,17.06,0,0,0-.32,3.67l-1.67.14a16.61,16.61,0,0,1,.31-3.81,19.78,19.78,0,0,1,1.32-4.39,18.72,18.72,0,0,1,2-3.64Z"/><path class="cls-4" d="M455.81,638.55l-.15-1.84,1.84-.15.16,1.84Z"/><path class="cls-4" d="M461.92,630.85a3.09,3.09,0,0,1-1.58-.93,2.82,2.82,0,0,1-.62-1.59,3.21,3.21,0,0,1,.84-2.51,4.38,4.38,0,0,1,5.53-.43,3.22,3.22,0,0,1,1.25,2.35,2.66,2.66,0,0,1-.35,1.64,3,3,0,0,1-1.37,1.17,3.37,3.37,0,0,1,2.76,3.18,3.84,3.84,0,0,1-1,2.94,4.89,4.89,0,0,1-6.3.51,3.85,3.85,0,0,1-1.43-2.79,3.53,3.53,0,0,1,.47-2.2A3.31,3.31,0,0,1,461.92,630.85Zm-.57,3.42a3,3,0,0,0,.44,1.31,2.37,2.37,0,0,0,1.06.92,2.87,2.87,0,0,0,1.42.24,2.61,2.61,0,0,0,1.86-.9,2.59,2.59,0,0,0,.6-2,2.64,2.64,0,0,0-3-2.47,2.54,2.54,0,0,0-1.83.91A2.57,2.57,0,0,0,461.35,634.27Zm0-6.13a2.09,2.09,0,0,0,.73,1.47,2.14,2.14,0,0,0,1.62.47,2.11,2.11,0,0,0,1.48-.71,2,2,0,0,0,.48-1.5,2,2,0,0,0-.74-1.44,2.1,2.1,0,0,0-1.58-.49,2.16,2.16,0,0,0-1.49.73A1.9,1.9,0,0,0,461.37,628.14Z"/><path class="cls-4" d="M476.36,636.86l-1.62.14-.85-10.32a8.06,8.06,0,0,1-1.44,1.24,10.47,10.47,0,0,1-1.63,1l-.13-1.56a9.4,9.4,0,0,0,2.24-1.75,6.2,6.2,0,0,0,1.3-1.88l1-.08Z"/><path class="cls-4" d="M323.77,204.86l-.15,1.61-10.3-1a8.66,8.66,0,0,1,1,1.64,10.94,10.94,0,0,1,.67,1.78l-1.56-.15a10,10,0,0,0-1.32-2.52,6.25,6.25,0,0,0-1.63-1.6l.1-1Z"/><path class="cls-4" d="M316.55,199.09l-1.84-.17.17-1.85,1.85.18Zm7.7.73-1.84-.18.17-1.84,1.84.18Z"/><path class="cls-4" d="M325.22,189.51l-.15,1.62-10.3-1a8.87,8.87,0,0,1,1,1.64,10.94,10.94,0,0,1,.67,1.78l-1.56-.15a9.87,9.87,0,0,0-1.32-2.52,6.09,6.09,0,0,0-1.63-1.6l.1-1Z"/><path class="cls-4" d="M314.18,184.18l-1.55-.14.8-8.53,1.26.12a18,18,0,0,0,3.32,2.83,22,22,0,0,0,4.38,2.34,16.77,16.77,0,0,0,3.57,1l-.16,1.67a16.29,16.29,0,0,1-3.7-1,19.62,19.62,0,0,1-4.08-2.08,18.29,18.29,0,0,1-3.23-2.64Z"/><path class="cls-4" d="M326.67,174.24l-1.84-.18.17-1.84,1.84.17Z"/><path class="cls-4" d="M326.31,161.39l1.56.14-.82,8.71a2.82,2.82,0,0,1-1.11-.3,5.72,5.72,0,0,1-1.65-1.23,16.83,16.83,0,0,1-1.8-2.3,17.81,17.81,0,0,0-2.51-3.17,3.34,3.34,0,0,0-1.87-.93,2.16,2.16,0,0,0-1.69.53,2.51,2.51,0,0,0-.83,1.73,2.58,2.58,0,0,0,.52,1.94,2.71,2.71,0,0,0,1.88.89l-.33,1.64a4.07,4.07,0,0,1-2.71-1.55,4.38,4.38,0,0,1-.69-3.08,4.18,4.18,0,0,1,1.33-2.9,3.46,3.46,0,0,1,2.71-.86,3.84,3.84,0,0,1,1.52.47,6.08,6.08,0,0,1,1.51,1.22,27.29,27.29,0,0,1,2.08,2.72c.72,1,1.22,1.72,1.48,2a6.38,6.38,0,0,0,.81.77Z"/><path class="cls-4" d="M495.66,9.53l-1.61.13a3.06,3.06,0,0,0-.62-1.39,2.14,2.14,0,0,0-1.62-.69,2.21,2.21,0,0,0-1.36.43,3.68,3.68,0,0,0-1.21,1.63,8.41,8.41,0,0,0-.46,3.06,3.85,3.85,0,0,1,1.43-1.33,4,4,0,0,1,1.78-.43,3.69,3.69,0,0,1,2.77,1.2,4.27,4.27,0,0,1,1.14,3.09,5,5,0,0,1-.54,2.31,4,4,0,0,1-1.47,1.64,4,4,0,0,1-2.13.57,4.17,4.17,0,0,1-3.32-1.5q-1.28-1.48-1.28-4.92c0-2.55.48-4.41,1.42-5.57a4.07,4.07,0,0,1,3.33-1.52,3.72,3.72,0,0,1,2.56.88A3.71,3.71,0,0,1,495.66,9.53ZM489,15.24a3.7,3.7,0,0,0,.36,1.6,2.68,2.68,0,0,0,1,1.17,2.44,2.44,0,0,0,1.34.4,2.28,2.28,0,0,0,1.77-.83,3.26,3.26,0,0,0,.74-2.25,3.07,3.07,0,0,0-.73-2.16,2.39,2.39,0,0,0-1.84-.79,2.49,2.49,0,0,0-1.87.79A2.83,2.83,0,0,0,489,15.24Z"/><path class="cls-4" d="M497.62,8V6.47h8.56V7.73a18.52,18.52,0,0,0-2.5,3.57,21.7,21.7,0,0,0-1.92,4.59,17.17,17.17,0,0,0-.62,3.63h-1.67a16.3,16.3,0,0,1,.61-3.77,20.44,20.44,0,0,1,1.69-4.26A18,18,0,0,1,504.1,8Z"/><path class="cls-4" d="M488.22,772h-1.63V761.68a8.2,8.2,0,0,1-1.54,1.12,11.1,11.1,0,0,1-1.71.84v-1.57a10.14,10.14,0,0,0,2.39-1.55,6.09,6.09,0,0,0,1.44-1.77h1.05Z"/><path class="cls-4" d="M500.91,770.47V772h-8.74a2.89,2.89,0,0,1,.19-1.13,6,6,0,0,1,1.07-1.76,17.06,17.06,0,0,1,2.12-2,18.21,18.21,0,0,0,2.92-2.8,3.38,3.38,0,0,0,.75-2,2.15,2.15,0,0,0-.69-1.62,2.46,2.46,0,0,0-1.8-.67,2.53,2.53,0,0,0-1.87.71,2.68,2.68,0,0,0-.72,2l-1.66-.18a4.06,4.06,0,0,1,1.29-2.84,4.34,4.34,0,0,1,3-1,4.2,4.2,0,0,1,3,1,3.48,3.48,0,0,1,1.11,2.62,4.07,4.07,0,0,1-.32,1.56,6.33,6.33,0,0,1-1.08,1.62,26.72,26.72,0,0,1-2.5,2.32c-1,.82-1.6,1.38-1.88,1.67a4.92,4.92,0,0,0-.69.88Z"/><path class="cls-4" d="M502.65,768.56l1.71-.14a3,3,0,0,0,.88,1.87,2.37,2.37,0,0,0,1.66.63,2.6,2.6,0,0,0,2-.88,3.36,3.36,0,0,0,.81-2.35,3,3,0,0,0-.78-2.19,2.7,2.7,0,0,0-2-.81,2.8,2.8,0,0,0-1.42.36,2.77,2.77,0,0,0-1,.93l-1.53-.2,1.28-6.8h6.58v1.55h-5.28l-.71,3.56a4.33,4.33,0,0,1,2.5-.83,4,4,0,0,1,2.92,1.2,4.18,4.18,0,0,1,1.19,3.09,4.85,4.85,0,0,1-1,3.1,4.64,4.64,0,0,1-6.42.59A3.94,3.94,0,0,1,502.65,768.56Z"/><path class="cls-4" d="M511.32,400.07h-1.63V389.72a8.2,8.2,0,0,1-1.54,1.12,11.1,11.1,0,0,1-1.71.84v-1.57a9.78,9.78,0,0,0,2.38-1.55,6.14,6.14,0,0,0,1.45-1.77h1.05Z"/><path class="cls-4" d="M523.9,390.08l-1.61.13a3.06,3.06,0,0,0-.62-1.39,2.16,2.16,0,0,0-1.62-.7,2.21,2.21,0,0,0-1.36.44,3.63,3.63,0,0,0-1.21,1.63,8.41,8.41,0,0,0-.46,3.06,3.77,3.77,0,0,1,1.43-1.33,3.86,3.86,0,0,1,1.78-.43,3.67,3.67,0,0,1,2.76,1.2,4.24,4.24,0,0,1,1.15,3.09,5,5,0,0,1-.54,2.31,3.94,3.94,0,0,1-1.48,1.64,4,4,0,0,1-2.13.57,4.16,4.16,0,0,1-3.31-1.5q-1.27-1.49-1.28-4.92c0-2.56.47-4.41,1.42-5.58a4.06,4.06,0,0,1,3.33-1.51,3.52,3.52,0,0,1,3.75,3.29Zm-6.63,5.7a3.75,3.75,0,0,0,.36,1.61,2.66,2.66,0,0,0,1,1.17,2.5,2.5,0,0,0,1.35.4,2.32,2.32,0,0,0,1.77-.83,3.26,3.26,0,0,0,.74-2.25,3.11,3.11,0,0,0-.73-2.17,2.45,2.45,0,0,0-1.85-.79,2.52,2.52,0,0,0-1.86.79A2.86,2.86,0,0,0,517.27,395.78Z"/><path class="cls-4" d="M470.85,113.67h13.23v5.86a8,8,0,0,1-.35,2.69,2.91,2.91,0,0,1-1.26,1.47,3.74,3.74,0,0,1-2,.55,3.3,3.3,0,0,1-2.37-.91,4.65,4.65,0,0,1-1.23-2.81,4.35,4.35,0,0,1-.66,1,8.81,8.81,0,0,1-1.76,1.46l-3.6,2.3v-2.21l2.76-1.75c.79-.51,1.4-.93,1.82-1.26a4,4,0,0,0,.88-.89,2.71,2.71,0,0,0,.36-.8,5.41,5.41,0,0,0,.06-1v-2h-5.88Zm7.39,1.75v3.76a5.8,5.8,0,0,0,.25,1.88,2,2,0,0,0,.8,1,2.17,2.17,0,0,0,1.18.35,2,2,0,0,0,1.55-.68,3.21,3.21,0,0,0,.6-2.15v-4.19Z"/><path class="cls-4" d="M474.35,131.47l.21,1.62a3.61,3.61,0,0,0-2,1,2.35,2.35,0,0,0-.61,1.63,2.63,2.63,0,0,0,.8,1.94,2.66,2.66,0,0,0,2,.79,2.47,2.47,0,0,0,1.84-.73,2.52,2.52,0,0,0,.73-1.86,4.7,4.7,0,0,0-.18-1.15l1.42.18c0,.11,0,.2,0,.27a3.25,3.25,0,0,0,.55,1.86,1.82,1.82,0,0,0,1.66.83,2,2,0,0,0,1.48-.6,2.14,2.14,0,0,0,.59-1.56,2.24,2.24,0,0,0-.59-1.58,3,3,0,0,0-1.79-.81l.29-1.63a4.16,4.16,0,0,1,2.53,1.36,3.9,3.9,0,0,1,.9,2.62,4.36,4.36,0,0,1-.47,2A3.36,3.36,0,0,1,482.4,139a3.24,3.24,0,0,1-1.7.48,2.77,2.77,0,0,1-1.56-.46,3.12,3.12,0,0,1-1.12-1.36,3.09,3.09,0,0,1-1.12,1.82,3.39,3.39,0,0,1-2.14.65,3.93,3.93,0,0,1-2.94-1.26,4.45,4.45,0,0,1-1.2-3.19,4.18,4.18,0,0,1,1-2.9A4,4,0,0,1,474.35,131.47Z"/><path class="cls-4" d="M477.38,141.74a12.13,12.13,0,0,1,3.77.48,4.64,4.64,0,0,1,2.21,1.44,3.64,3.64,0,0,1,.78,2.39,4,4,0,0,1-.43,1.87,3.66,3.66,0,0,1-1.24,1.33,6.87,6.87,0,0,1-2,.82,13,13,0,0,1-3.12.29,12.45,12.45,0,0,1-3.76-.47,4.76,4.76,0,0,1-2.21-1.43,3.69,3.69,0,0,1-.78-2.41,3.63,3.63,0,0,1,1.37-3Q473.65,141.75,477.38,141.74Zm0,1.67c-2.17,0-3.62.25-4.34.76a2.17,2.17,0,0,0,0,3.76c.72.51,2.16.77,4.33.77s3.62-.26,4.34-.77a2.27,2.27,0,0,0,1.07-1.9,2.05,2.05,0,0,0-1-1.78C481,143.69,479.55,143.41,477.38,143.41Z"/><path class="cls-4" d="M477.38,152a12.13,12.13,0,0,1,3.77.48,4.7,4.7,0,0,1,2.21,1.43,3.68,3.68,0,0,1,.78,2.4,4,4,0,0,1-.43,1.87,3.64,3.64,0,0,1-1.24,1.32,6.6,6.6,0,0,1-2,.82,12.91,12.91,0,0,1-3.12.3,12.1,12.1,0,0,1-3.76-.48,4.68,4.68,0,0,1-2.21-1.43,4,4,0,0,1,.59-5.41Q473.65,152,477.38,152Zm0,1.66c-2.17,0-3.62.26-4.34.77a2.23,2.23,0,0,0-1.08,1.88,2.26,2.26,0,0,0,1.09,1.88c.72.51,2.16.76,4.33.76s3.62-.25,4.34-.76a2.27,2.27,0,0,0,1.07-1.9,2.07,2.07,0,0,0-1-1.79C481,154,479.55,153.68,477.38,153.68Z"/><path class="cls-4" d="M400.8,109.15l12.54-4.2,1.87,5.56a7.83,7.83,0,0,1,.51,2.66A2.91,2.91,0,0,1,415,115a3.79,3.79,0,0,1-1.72,1.16,3.33,3.33,0,0,1-2.54-.11,4.62,4.62,0,0,1-2.06-2.28,4.82,4.82,0,0,1-.28,1.21,9.46,9.46,0,0,1-1.21,1.94l-2.68,3.32-.7-2.08,2.05-2.54c.59-.74,1-1.33,1.33-1.78a3.78,3.78,0,0,0,.55-1.12,2.38,2.38,0,0,0,.08-.87,4.57,4.57,0,0,0-.25-.94l-.64-1.93-5.57,1.87Zm7.56-.69,1.2,3.57a5.59,5.59,0,0,0,.83,1.7,2,2,0,0,0,1.08.72,2.18,2.18,0,0,0,1.24,0,2,2,0,0,0,1.25-1.14,3.19,3.19,0,0,0-.12-2.23l-1.33-4Z"/><path class="cls-4" d="M414.05,126.11a3.09,3.09,0,0,1,.53-1.76,2.77,2.77,0,0,1,1.4-1,3.18,3.18,0,0,1,2.63.21,4.37,4.37,0,0,1,1.74,5.27,3.26,3.26,0,0,1-2,1.78,2.76,2.76,0,0,1-1.68.05,3,3,0,0,1-1.46-1.05,3.56,3.56,0,0,1-.62,2.16,3.63,3.63,0,0,1-1.8,1.28,3.83,3.83,0,0,1-3.09-.24,4.87,4.87,0,0,1-2-6,3.83,3.83,0,0,1,2.36-2,3.46,3.46,0,0,1,2.26-.07A3.27,3.27,0,0,1,414.05,126.11Zm-3.45.26a2.91,2.91,0,0,0-1.17.74,2.35,2.35,0,0,0-.64,1.25,2.83,2.83,0,0,0,.11,1.44,2.69,2.69,0,0,0,5,.34A2.68,2.68,0,0,0,414,128a2.57,2.57,0,0,0-1.32-1.56A2.62,2.62,0,0,0,410.6,126.37Zm6-1.44A2.07,2.07,0,0,0,415.3,126a2.16,2.16,0,0,0-.07,1.68,2.13,2.13,0,0,0,1,1.27,2,2,0,0,0,1.57.1,2,2,0,0,0,1.22-1.06,2.05,2.05,0,0,0,.09-1.65,2.18,2.18,0,0,0-1.05-1.28A1.92,1.92,0,0,0,416.56,124.93Z"/><path class="cls-4" d="M415.91,133.67a12,12,0,0,1,3.73-.74,4.67,4.67,0,0,1,2.55.66,3.61,3.61,0,0,1,1.49,2,3.87,3.87,0,0,1,.19,1.91,3.54,3.54,0,0,1-.75,1.65,6.56,6.56,0,0,1-1.6,1.4,13,13,0,0,1-2.87,1.28,12.2,12.2,0,0,1-3.72.74,4.78,4.78,0,0,1-2.55-.65,3.69,3.69,0,0,1-1.5-2,3.64,3.64,0,0,1,.34-3.29Q412.38,134.85,415.91,133.67Zm.53,1.58q-3.09,1-3.87,2.1a2.27,2.27,0,0,0-.43,2.13,2.24,2.24,0,0,0,1.63,1.44c.84.25,2.29,0,4.35-.65s3.35-1.4,3.87-2.11a2.25,2.25,0,0,0,.41-2.14,2,2,0,0,0-1.46-1.39C420,134.35,418.49,134.56,416.44,135.25Z"/><path class="cls-3" d="M339,15.8V125.54M664.08,15.8V125.54m312-57.13H550.39"/><line class="cls-5" x1="924.1" y1="303.3" x2="499.96" y2="303.3"/><line class="cls-3" x1="930.31" y1="602.16" x2="499.96" y2="602.16"/><line class="cls-6" x1="880.63" y1="129.81" x2="664.08" y2="129.81"/><line class="cls-7" x1="499.96" y1="754.85" x2="499.96" y2="38.32"/><line class="cls-3" x1="861.02" y1="80.79" x2="861.02" y2="117.44"/><polygon class="cls-4" points="857.14 83.56 861.19 68.41 865.25 83.56 857.14 83.56"/><polygon class="cls-4" points="857.14 114.67 861.19 129.81 865.25 114.67 857.14 114.67"/><line class="cls-3" x1="909.21" y1="80.79" x2="909.21" y2="290.92"/><polygon class="cls-4" points="905.32 83.55 909.38 68.41 913.44 83.55 905.32 83.55"/><polygon class="cls-4" points="905.32 288.15 909.38 303.3 913.44 288.15 905.32 288.15"/><line class="cls-3" x1="909.21" y1="614.53" x2="909.21" y2="712.39"/><polygon class="cls-4" points="905.32 617.3 909.38 602.16 913.44 617.3 905.32 617.3"/><polygon class="cls-4" points="905.32 709.62 909.38 724.77 913.44 709.62 905.32 709.62"/><line class="cls-5" x1="139.12" y1="466.65" x2="139.12" y2="712.39"/><polygon class="cls-4" points="135.23 469.42 139.29 454.27 143.35 469.42 135.23 469.42"/><polygon class="cls-4" points="135.23 709.62 139.29 724.77 143.35 709.62 135.23 709.62"/><line class="cls-5" x1="91.92" y1="419.79" x2="91.92" y2="712.39"/><polygon class="cls-4" points="88.03 422.56 92.08 407.42 96.15 422.56 88.03 422.56"/><polygon class="cls-4" points="88.03 709.62 92.08 724.77 96.15 709.62 88.03 709.62"/><line class="cls-3" x1="861.06" y1="687.12" x2="861.06" y2="712.39"/><polygon class="cls-4" points="857.17 689.89 861.23 674.74 865.29 689.89 857.17 689.89"/><polygon class="cls-4" points="857.17 709.62 861.23 724.77 865.29 709.62 857.17 709.62"/><line class="cls-3" x1="957.39" y1="80.78" x2="957.39" y2="712.39"/><polygon class="cls-4" points="953.5 83.55 957.56 68.41 961.62 83.55 953.5 83.55"/><polygon class="cls-4" points="953.5 709.62 957.56 724.77 961.62 709.62 953.5 709.62"/><path class="cls-4" d="M71,575.42H69.46v-8.57h1.26a18.31,18.31,0,0,0,3.58,2.51,21.89,21.89,0,0,0,4.58,1.91,16.74,16.74,0,0,0,3.64.63v1.67a16.46,16.46,0,0,1-3.78-.62,19.87,19.87,0,0,1-4.26-1.68A18.43,18.43,0,0,1,71,568.94Z"/><path class="cls-4" d="M79.05,565.25l-.14-1.71a3,3,0,0,0,1.87-.88,2.37,2.37,0,0,0,.63-1.66,2.61,2.61,0,0,0-.89-2,3.33,3.33,0,0,0-2.34-.81A3,3,0,0,0,76,559a2.73,2.73,0,0,0-.8,2,2.8,2.8,0,0,0,.36,1.42,2.66,2.66,0,0,0,.92,1l-.2,1.53-6.79-1.28V557.1H71v5.28l3.56.71a4.26,4.26,0,0,1-.83-2.5,3.94,3.94,0,0,1,1.19-2.92A4.19,4.19,0,0,1,78,556.48a4.83,4.83,0,0,1,3.1,1A4.18,4.18,0,0,1,82.74,561a4.28,4.28,0,0,1-1,2.94A4,4,0,0,1,79.05,565.25Z"/><path class="cls-4" d="M947.67,408.31v1.62H937.32a8.08,8.08,0,0,1,1.12,1.54,11.06,11.06,0,0,1,.84,1.71h-1.57a9.78,9.78,0,0,0-1.55-2.38,6.09,6.09,0,0,0-1.77-1.44v-1.05Z"/><path class="cls-4" d="M944.21,404.15l-.15-1.71a3,3,0,0,0,1.87-.88,2.37,2.37,0,0,0,.63-1.66,2.58,2.58,0,0,0-.88-2,3.3,3.3,0,0,0-2.35-.82,3,3,0,0,0-2.19.78,2.72,2.72,0,0,0-.8,2.05,2.89,2.89,0,0,0,.35,1.41,2.8,2.8,0,0,0,.93,1l-.2,1.52-6.79-1.28V396h1.55v5.28l3.55.71a4.3,4.3,0,0,1-.83-2.5,4,4,0,0,1,1.2-2.92,4.21,4.21,0,0,1,3.09-1.19,4.79,4.79,0,0,1,3.1,1.05,4.18,4.18,0,0,1,1.61,3.47,4.31,4.31,0,0,1-1,3A4,4,0,0,1,944.21,404.15Z"/><path class="cls-4" d="M947.67,388.67h-3.16v5.74H943l-8.58-6V387H943v-1.78h1.49V387h3.16Zm-4.65,0h-6l6,4.14Z"/><path class="cls-4" d="M897.77,197.23l-.14-1.7a3.08,3.08,0,0,0,1.87-.88,2.39,2.39,0,0,0,.63-1.67,2.59,2.59,0,0,0-.89-2,3.34,3.34,0,0,0-2.35-.81,3,3,0,0,0-2.19.78,2.73,2.73,0,0,0-.8,2,2.83,2.83,0,0,0,.36,1.42,2.66,2.66,0,0,0,.92,1l-.2,1.52-6.79-1.28v-6.57h1.55v5.27l3.56.72a4.28,4.28,0,0,1-.83-2.5,4,4,0,0,1,1.19-2.93,4.23,4.23,0,0,1,3.09-1.19,4.79,4.79,0,0,1,3.1,1,4.18,4.18,0,0,1,1.61,3.47,4.29,4.29,0,0,1-1,3A3.91,3.91,0,0,1,897.77,197.23Z"/><path class="cls-4" d="M897.77,187l-.14-1.71a3.08,3.08,0,0,0,1.87-.88,2.37,2.37,0,0,0,.63-1.66,2.61,2.61,0,0,0-.89-2,3.34,3.34,0,0,0-2.35-.81,3,3,0,0,0-2.19.78,2.73,2.73,0,0,0-.8,2,2.8,2.8,0,0,0,.36,1.42,2.66,2.66,0,0,0,.92,1l-.2,1.53-6.79-1.28v-6.58h1.55v5.28l3.56.71a4.26,4.26,0,0,1-.83-2.5,3.94,3.94,0,0,1,1.19-2.92,4.19,4.19,0,0,1,3.09-1.19,4.83,4.83,0,0,1,3.1,1,4.18,4.18,0,0,1,1.61,3.48,4.28,4.28,0,0,1-1,2.94A4,4,0,0,1,897.77,187Z"/><path class="cls-4" d="M853.34,105.89v1.63H843a8,8,0,0,1,1.12,1.53,12.06,12.06,0,0,1,.84,1.71h-1.57a10,10,0,0,0-1.55-2.38,6.09,6.09,0,0,0-1.77-1.44v-1Z"/><path class="cls-4" d="M853.34,96.53h-3.17v5.73h-1.48l-8.58-6V94.9h8.58V93.11h1.48V94.9h3.17Zm-4.65,0h-6l6,4.14Z"/><path class="cls-4" d="M119.92,567.09l.13,1.62a3.06,3.06,0,0,0-1.39.61,2.15,2.15,0,0,0-.69,1.62,2.24,2.24,0,0,0,.43,1.37,3.76,3.76,0,0,0,1.63,1.21,8.87,8.87,0,0,0,3.06.46,3.7,3.7,0,0,1-1.32-1.44,3.84,3.84,0,0,1-.44-1.78,3.67,3.67,0,0,1,1.2-2.76,4.27,4.27,0,0,1,3.09-1.14,5.16,5.16,0,0,1,2.31.53,3.94,3.94,0,0,1,1.64,1.48,4,4,0,0,1,.57,2.13,4.15,4.15,0,0,1-1.5,3.31q-1.48,1.28-4.92,1.28-3.82,0-5.57-1.41a4.09,4.09,0,0,1-1.52-3.33,3.56,3.56,0,0,1,3.29-3.76Zm5.71,6.63a3.69,3.69,0,0,0,1.6-.35,2.68,2.68,0,0,0,1.17-1,2.46,2.46,0,0,0,.4-1.34,2.26,2.26,0,0,0-.83-1.77,3.21,3.21,0,0,0-2.25-.74,3,3,0,0,0-2.16.73,2.39,2.39,0,0,0-.79,1.84,2.5,2.5,0,0,0,.79,1.87A2.83,2.83,0,0,0,125.63,573.72Z"/><path class="cls-4" d="M129.91,560h-3.16v5.74h-1.49l-8.58-6v-1.33h8.58v-1.78h1.49v1.78h3.16Zm-4.65,0h-6l6,4.14Z"/><path class="cls-4" d="M220.81,700.62l-7.47-10.92,4.84-3.31a7.72,7.72,0,0,1,2.42-1.23,2.92,2.92,0,0,1,1.92.21,3.79,3.79,0,0,1,1.58,1.34,3.31,3.31,0,0,1,.59,2.47,4.62,4.62,0,0,1-1.63,2.6,4.53,4.53,0,0,1,1.24,0,9.16,9.16,0,0,1,2.19.63l3.94,1.67-1.82,1.25-3-1.29c-.87-.36-1.56-.63-2.07-.79a4.27,4.27,0,0,0-1.23-.23,2.63,2.63,0,0,0-.86.17,4.7,4.7,0,0,0-.84.49l-1.68,1.15,3.32,4.85Zm-2.73-7.09,3.1-2.13a5.66,5.66,0,0,0,1.41-1.26,2,2,0,0,0,.4-1.24,2.12,2.12,0,0,0-.38-1.17,1.94,1.94,0,0,0-1.43-.89,3.19,3.19,0,0,0-2.12.71l-3.45,2.37Z"/><path class="cls-4" d="M237.42,687.36l.88,1.29-7.22,4.94a3,3,0,0,1-.48-1,6,6,0,0,1-.11-2.06,17.6,17.6,0,0,1,.62-2.85,17.64,17.64,0,0,0,.82-4,3.4,3.4,0,0,0-.47-2,2.17,2.17,0,0,0-1.49-.95,2.46,2.46,0,0,0-1.86.47A2.49,2.49,0,0,0,227,682.8a2.69,2.69,0,0,0,.51,2l-1.47.8a4.15,4.15,0,0,1-.55-3.08,4.4,4.4,0,0,1,1.93-2.5,4.19,4.19,0,0,1,3.08-.84,3.47,3.47,0,0,1,2.39,1.54,3.94,3.94,0,0,1,.62,1.47,5.92,5.92,0,0,1,0,1.94,24.93,24.93,0,0,1-.75,3.34c-.34,1.22-.55,2-.61,2.43a5.42,5.42,0,0,0-.07,1.11Z"/><line class="cls-5" x1="211.46" y1="715.11" x2="253.93" y2="687.48"/><polygon class="cls-4" points="215.9 716.86 201 721.72 211.48 710.06 215.9 716.86"/><path class="cls-4" d="M747.29,700.16l-6.57-11.49,5.09-2.91a7.67,7.67,0,0,1,2.51-1,2.93,2.93,0,0,1,1.9.36,3.69,3.69,0,0,1,1.47,1.46,3.38,3.38,0,0,1,.39,2.51,4.6,4.6,0,0,1-1.84,2.46,4.39,4.39,0,0,1,1.25.05,9.23,9.23,0,0,1,2.13.8l3.78,2-1.91,1.09-2.88-1.52c-.84-.43-1.51-.75-2-1a3.88,3.88,0,0,0-1.21-.33,2.48,2.48,0,0,0-.87.09,5.52,5.52,0,0,0-.88.43l-1.76,1,2.92,5.1Zm-2.15-7.29L748.4,691a5.6,5.6,0,0,0,1.51-1.14,2.05,2.05,0,0,0,.5-1.2,2.2,2.2,0,0,0-.29-1.21,2,2,0,0,0-1.35-1,3.24,3.24,0,0,0-2.17.54L743,689.07Z"/><path class="cls-4" d="M764.91,688.29l.78,1.36L758.1,694a2.94,2.94,0,0,1-.39-1.07,5.76,5.76,0,0,1,0-2.06,16.61,16.61,0,0,1,.85-2.8,18.38,18.38,0,0,0,1.14-3.87,3.39,3.39,0,0,0-.32-2.08A2.16,2.16,0,0,0,758,681a2.82,2.82,0,0,0-3.17,1.86,2.63,2.63,0,0,0,.35,2.05l-1.54.68a4.07,4.07,0,0,1-.29-3.11,4.36,4.36,0,0,1,2.12-2.34,4.16,4.16,0,0,1,3.14-.58,3.43,3.43,0,0,1,2.26,1.71,4,4,0,0,1,.49,1.52,5.82,5.82,0,0,1-.13,1.94,24.15,24.15,0,0,1-1,3.26c-.43,1.2-.7,2-.8,2.38a5.73,5.73,0,0,0-.16,1.1Z"/><line class="cls-5" x1="791.1" y1="684.13" x2="745.56" y2="711.56"/><polygon class="cls-4" points="786.72 682.23 801.78 677.89 790.91 689.18 786.72 682.23"/><path class="cls-4" d="M853.34,704.24v1.63H843a7.77,7.77,0,0,1,1.12,1.54,11.1,11.1,0,0,1,.84,1.71h-1.57a9.84,9.84,0,0,0-1.55-2.39,6.09,6.09,0,0,0-1.77-1.44v-1Z"/><path class="cls-4" d="M851.78,691.55h1.56v8.74a2.89,2.89,0,0,1-1.13-.19,6,6,0,0,1-1.76-1.07,17.09,17.09,0,0,1-2-2.12,18.21,18.21,0,0,0-2.8-2.92,3.38,3.38,0,0,0-1.95-.75,2.16,2.16,0,0,0-1.63.69,2.79,2.79,0,0,0,0,3.67,2.68,2.68,0,0,0,1.95.72l-.17,1.67A4.15,4.15,0,0,1,841,698.7a4.43,4.43,0,0,1-1-3,4.16,4.16,0,0,1,1.06-3,3.45,3.45,0,0,1,2.61-1.11,4.07,4.07,0,0,1,1.56.32,6.33,6.33,0,0,1,1.62,1.08,27.94,27.94,0,0,1,2.33,2.5c.81,1,1.37,1.6,1.66,1.88a5.3,5.3,0,0,0,.88.69Z"/><path class="cls-4" d="M899.68,664h1.56v8.74a2.89,2.89,0,0,1-1.13-.19,5.9,5.9,0,0,1-1.76-1.07,15.89,15.89,0,0,1-2-2.13,18.43,18.43,0,0,0-2.81-2.91,3.4,3.4,0,0,0-1.95-.76,2.18,2.18,0,0,0-1.63.69,2.5,2.5,0,0,0-.66,1.8A2.53,2.53,0,0,0,890,670a2.64,2.64,0,0,0,2,.71l-.17,1.67a4.09,4.09,0,0,1-2.85-1.29,4.4,4.4,0,0,1-1-3,4.23,4.23,0,0,1,1.06-3,3.47,3.47,0,0,1,2.62-1.11,3.9,3.9,0,0,1,1.56.33,5.89,5.89,0,0,1,1.61,1.08,25.3,25.3,0,0,1,2.33,2.5c.82,1,1.37,1.6,1.67,1.88a5.34,5.34,0,0,0,.88.68Z"/><path class="cls-4" d="M898.18,662,898,660.4a2.65,2.65,0,0,0,1.6-.76,2.08,2.08,0,0,0,.5-1.43,2.5,2.5,0,0,0-.35-1.32,2.86,2.86,0,0,0-.91-.92,5.33,5.33,0,0,0-1.55-.6,7.79,7.79,0,0,0-2-.25H895a3.74,3.74,0,0,1,1.26,1.33,3.63,3.63,0,0,1,.48,1.83,3.72,3.72,0,0,1-1.19,2.78,4.34,4.34,0,0,1-3.14,1.14,4.48,4.48,0,0,1-3.24-1.19,4,4,0,0,1-1.23-3,4.3,4.3,0,0,1,2.68-4,9.78,9.78,0,0,1,3.72-.55,12,12,0,0,1,4,.55,4.7,4.7,0,0,1,2.29,1.64,4.23,4.23,0,0,1,.78,2.54,3.49,3.49,0,0,1-3.28,3.72Zm-5.84-6.65a3.17,3.17,0,0,0-2.22.75,2.31,2.31,0,0,0-.82,1.79,2.45,2.45,0,0,0,.88,1.88,3.28,3.28,0,0,0,2.3.81,2.83,2.83,0,0,0,2-.77,2.53,2.53,0,0,0,.79-1.88,2.42,2.42,0,0,0-.79-1.85A3.1,3.1,0,0,0,892.34,655.31Z"/><line class="cls-3" x1="799.03" y1="674.74" x2="869.02" y2="674.74"/><line class="cls-5" x1="389.91" y1="89.89" x2="412.96" y2="176.43"/><polygon class="cls-4" points="386.87 93.57 386.89 77.89 394.71 91.48 386.87 93.57"/><line class="cls-5" x1="463.03" y1="80.58" x2="463.03" y2="178.57"/><polygon class="cls-4" points="459.14 83.35 463.2 68.2 467.26 83.35 459.14 83.35"/><line class="cls-5" x1="352.09" y1="129.55" x2="401.29" y2="132.61"/><polygon class="cls-4" points="354.61 133.61 339.75 128.62 355.11 125.51 354.61 133.61"/><line class="cls-5" x1="326.65" y1="128.28" x2="260.11" y2="125.54"/><polygon class="cls-4" points="324.04 124.28 339.01 128.96 323.71 132.39 324.04 124.28"/><line class="cls-5" x1="347.85" y1="244.11" x2="389.3" y2="218.74"/><polygon class="cls-4" points="352.24 245.98 337.2 250.42 348 239.05 352.24 245.98"/><path class="cls-4" d="M392.68,326.27,385.77,315l5-3.06a7.47,7.47,0,0,1,2.48-1.1,2.94,2.94,0,0,1,1.91.3,3.72,3.72,0,0,1,1.51,1.41,3.34,3.34,0,0,1,.46,2.5,4.6,4.6,0,0,1-1.76,2.52,4.63,4.63,0,0,1,1.25,0,9.08,9.08,0,0,1,2.16.74l3.84,1.87-1.88,1.15-2.93-1.43c-.85-.41-1.53-.71-2-.9a4.26,4.26,0,0,0-1.22-.29,2.93,2.93,0,0,0-.86.12,6.14,6.14,0,0,0-.87.45l-1.73,1.06,3.07,5Zm-2.37-7.22,3.21-2A5.89,5.89,0,0,0,395,315.9a2,2,0,0,0,.46-1.22,2.15,2.15,0,0,0-.32-1.19,1.94,1.94,0,0,0-1.39-1,3.18,3.18,0,0,0-2.15.6L388,315.32Z"/><path class="cls-4" d="M406,314l1.38-1a3,3,0,0,0,1.73,1.14,2.38,2.38,0,0,0,1.75-.33,2.65,2.65,0,0,0,1.23-1.79,3.36,3.36,0,0,0-.54-2.43,3,3,0,0,0-1.81-1.46,2.93,2.93,0,0,0-3.55,2.73l-1.4.63L402.37,305l5.61-3.44.81,1.32-4.5,2.76,1.25,3.41a4.36,4.36,0,0,1,1.7-2,4,4,0,0,1,3.12-.5,4.24,4.24,0,0,1,2.63,2,4.89,4.89,0,0,1,.73,3.19,4.2,4.2,0,0,1-2.13,3.18,4.25,4.25,0,0,1-3,.68A4,4,0,0,1,406,314Z"/><path class="cls-4" d="M279.71,600.2l12.59-4,1.79,5.58a8.14,8.14,0,0,1,.49,2.67,3,3,0,0,1-.75,1.79,3.77,3.77,0,0,1-1.73,1.13,3.32,3.32,0,0,1-2.54-.14,4.57,4.57,0,0,1-2-2.31,4.21,4.21,0,0,1-.31,1.21A9.07,9.07,0,0,1,286,608l-2.72,3.29-.67-2.09,2.08-2.51c.6-.73,1.05-1.32,1.35-1.76a4.06,4.06,0,0,0,.57-1.12,2.6,2.6,0,0,0,.09-.86,5,5,0,0,0-.24-1l-.62-1.94-5.59,1.8Zm7.57-.59,1.15,3.58a5.24,5.24,0,0,0,.81,1.71,2,2,0,0,0,1.07.74,2.14,2.14,0,0,0,1.23,0,2,2,0,0,0,1.27-1.12,3.21,3.21,0,0,0-.09-2.23l-1.28-4Z"/><path class="cls-4" d="M286.74,622.1l3-1L288,615.67l1.41-.46,10,3.13.41,1.26-8.16,2.62.54,1.71-1.42.45-.54-1.7-3,1Zm4.43-1.42,5.68-1.83-7-2.12Z"/><path class="cls-4" d="M294.49,624.93a12.19,12.19,0,0,1,3.75-.69,4.67,4.67,0,0,1,2.53.69,3.71,3.71,0,0,1,1.48,2.05,3.93,3.93,0,0,1,.16,1.9,3.6,3.6,0,0,1-.77,1.64,6.85,6.85,0,0,1-1.62,1.39,13.4,13.4,0,0,1-2.89,1.24,12.33,12.33,0,0,1-3.72.69,4.66,4.66,0,0,1-2.55-.69,3.58,3.58,0,0,1-1.47-2,3.63,3.63,0,0,1,.38-3.28C290.55,626.66,292.13,625.69,294.49,624.93Zm.51,1.59c-2.06.67-3.36,1.35-3.89,2.05a2.19,2.19,0,0,0,1.15,3.59c.84.26,2.3.06,4.36-.6s3.37-1.35,3.9-2.06a2.27,2.27,0,0,0,.44-2.13,2.08,2.08,0,0,0-1.45-1.41C298.57,625.67,297.07,625.86,295,626.52Z"/><path class="cls-4" d="M345.37,522.57l9.84-8.83,3.92,4.36a7.79,7.79,0,0,1,1.53,2.24,2.93,2.93,0,0,1,0,1.94,3.68,3.68,0,0,1-1.11,1.74,3.33,3.33,0,0,1-2.38.91,4.64,4.64,0,0,1-2.79-1.28,4.64,4.64,0,0,1,.21,1.23,9.11,9.11,0,0,1-.34,2.25l-1.14,4.12-1.47-1.64.88-3.14q.38-1.37.51-2.16a4,4,0,0,0,.07-1.25,2.7,2.7,0,0,0-.27-.83,5.41,5.41,0,0,0-.61-.77L350.91,520l-4.38,3.92Zm6.67-3.63,2.51,2.8A5.43,5.43,0,0,0,356,523a2,2,0,0,0,1.28.24,2.2,2.2,0,0,0,1.12-.53,2,2,0,0,0,.7-1.54,3.26,3.26,0,0,0-1-2l-2.8-3.11Z"/><path class="cls-4" d="M361.33,540.37l-1.09-1.21,7.71-6.91a7.91,7.91,0,0,1-1.86-.4,11,11,0,0,1-1.77-.71l1.17-1a9.47,9.47,0,0,0,2.75.74,6.16,6.16,0,0,0,2.28-.1l.7.78Z"/><path class="cls-4" d="M377.17,543.07,376,542a3.12,3.12,0,0,0,.63-1.39,2.16,2.16,0,0,0-.57-1.67,2.19,2.19,0,0,0-1.23-.73,3.69,3.69,0,0,0-2,.19,8.75,8.75,0,0,0-2.59,1.7,3.82,3.82,0,0,1,3.46,1.22,3.68,3.68,0,0,1,.95,2.86,4.28,4.28,0,0,1-1.54,2.91,5,5,0,0,1-2.08,1.14,3.92,3.92,0,0,1-2.2,0A4,4,0,0,1,367,547a4.17,4.17,0,0,1-1.1-3.46c.18-1.3,1.11-2.71,2.81-4.24,1.91-1.71,3.61-2.59,5.1-2.67a4.07,4.07,0,0,1,3.35,1.47,3.54,3.54,0,0,1,.06,5Zm-8.68-1.13a3.86,3.86,0,0,0-.95,1.34,2.58,2.58,0,0,0,.39,2.79,2.27,2.27,0,0,0,1.8.76,3.27,3.27,0,0,0,2.17-1,3,3,0,0,0,1.12-2,2.39,2.39,0,0,0-.64-1.9,2.52,2.52,0,0,0-1.83-.86A2.85,2.85,0,0,0,368.49,541.94Z"/><line class="cls-5" x1="435.13" y1="305.5" x2="383.15" y2="340.45"/><polygon class="cls-4" points="430.66 303.82 445.5 298.73 435.19 310.55 430.66 303.82"/><polyline class="cls-5" points="449.17 338.29 187.97 346.82 255.8 402.9 155.02 407.42"/><polygon class="cls-4" points="446.28 334.49 461.55 338.05 446.54 342.61 446.28 334.49"/><line class="cls-8" x1="83.07" y1="407.42" x2="817.56" y2="407.42"/><polyline class="cls-5" points="576.82 282.82 499.95 303.3 427.18 283.35"/><polyline class="cls-5" points="419.04 623.3 499.96 602.15 587.79 625.21"/><polyline class="cls-3" points="292.22 661.89 499.74 638.68 710.87 661.89"/><line class="cls-5" x1="286.49" y1="650.76" x2="271.21" y2="602.45"/><polygon class="cls-4" points="289.37 646.95 290.07 662.61 281.63 649.39 289.37 646.95"/><line class="cls-5" x1="415.5" y1="611.26" x2="334.51" y2="520.67"/><polygon class="cls-4" points="416.56 606.61 423.63 620.6 410.5 612.02 416.56 606.61"/><polyline class="cls-5" points="443.05 571.61 183.63 554.22 354.6 425.8 153.98 407.42"/><polygon class="cls-4" points="440.55 567.54 455.39 572.6 440.01 575.64 440.55 567.54"/><line class="cls-5" x1="448.89" y1="364.73" x2="386.27" y2="366.43"/><polygon class="cls-4" points="446.01 360.92 461.26 364.56 446.23 369.04 446.01 360.92"/></g><g id="Watermark"><rect class="cls-1" x="438.45" y="656.22" width="123.09" height="46.3"/><rect class="cls-9" x="444.86" y="664.06" width="62.89" height="30.62"/><rect class="cls-9" x="507.75" y="664.06" width="47.39" height="30.62"/><path class="cls-10" d="M466.48,670.16l-2.79,18.92H461l-1.55-11-1.53,11h-2.74l-2.8-18.92h2.51l1.79,14.18,1.79-14.18h2l1.79,14.18L464,670.16Z"/><path class="cls-10" d="M467.93,689.08V670.16h2.53v18.92Z"/><path class="cls-10" d="M472.83,670.16h5q2.9,0,2.9,3.24v4.67c0,1.65-.51,2.69-1.51,3.13l1.77,7.88h-2.4l-1.66-7.64h-1.53v7.64h-2.53Zm2.53,9.12H477c.76,0,1.14-.46,1.14-1.37v-4.09c0-.91-.38-1.37-1.14-1.37h-1.66Z"/><path class="cls-10" d="M486.82,672.45v16.63h-2.53V672.45h-2.42v-2.29h7.38v2.29Z"/><path class="cls-10" d="M496.34,689.08v-8.59h-3.11v8.59H490.7V670.16h2.53v8h3.11v-8h2.53v18.92Z"/><path class="cls-10" d="M516.31,670.16h5q2.9,0,2.89,3.24v4.67c0,1.65-.5,2.69-1.5,3.13l1.77,7.88H522l-1.66-7.64h-1.53v7.64h-2.53Zm2.53,9.12h1.66c.76,0,1.13-.46,1.13-1.37v-4.09c0-.91-.37-1.37-1.13-1.37h-1.66Z"/><path class="cls-10" d="M528.67,689.08h-2.53V673.4q0-3.24,3-3.24h1.9q3,0,3,3.24v15.68h-2.53v-6.93h-2.9Zm2.9-9.22v-6.3a1,1,0,0,0-1.11-1.11h-.68a1,1,0,0,0-1.11,1.11v6.3Z"/><path class="cls-10" d="M536.34,689.08V670.16h2.53v18.92Z"/><path class="cls-10" d="M547.24,689.08h-6V670.16h2.53v16.63h3.47Z"/></g></svg>