<svg xmlns="http://www.w3.org/2000/svg" viewBox="0 0 1000 800"><defs><style>.cls-1,.cls-7{fill:#f0f0f0;}.cls-2,.cls-3,.cls-4,.cls-5,.cls-6{fill:none;stroke:#000;}.cls-2,.cls-7{stroke-miterlimit:10;}.cls-2{stroke-width:1.39px;}.cls-3,.cls-4,.cls-5{stroke-linecap:round;stroke-linejoin:round;}.cls-3,.cls-6{stroke-width:0.98px;}.cls-4{stroke-width:0.23px;}.cls-5{stroke-width:0.99px;}.cls-7{stroke:#ccc;}.cls-8{fill:#ccc;}</style></defs><g id="Flat"><path class="cls-1" d="M23,622.89c-6.72-5.07-8.71-9.49-8.71-15.07s-.1-23.38.73-25.61,3.81-7.73,6.87-9.4,8.89-3.21,19.54-5.39,40.06-6.4,51.48-13.14,21.15-16.94,24.56-25.74,5.3-9.93,6-29.26,7.66-226.84,7.66-226.84L132.18,240s1.43-22.28,22.91-26.52,55.74-5.44,60.34-5.54,68.36-.95,93.56-.14,49.94,2.43,71.86,5.94,39.53,6,59,27.13,19.77,49,23.37,70.87,12.34,75.09,12.34,75.09.46,57.43,36.89,80.2,73.29,9,78.1,6.64,31.28-16.65,38.65-39a245.58,245.58,0,0,0,9.77-45l24.11-143.55s5.69-25.17,28.73-26.83,91.39-.4,91.39-.4,17.6-1.69,18.28,17.86,2.27,64.82,2.27,64.82l7,200.34s.6,25.84,13.6,38.55,23.73,18.36,39.46,21,43.86,9.11,43.86,9.11,12.18,3.37,12.18,16.6-.15,22.88-.15,22.88-2.15,15.16-15.28,15.16H32.28s-5.84.24-9.25-2.34"/><path class="cls-2" d="M23,622.89c-6.72-5.07-8.71-9.49-8.71-15.07s-.1-23.38.73-25.61,3.81-7.73,6.87-9.4,8.89-3.21,19.54-5.39,40.06-6.4,51.48-13.14,21.15-16.94,24.56-25.74,5.3-9.93,6-29.26,7.66-226.84,7.66-226.84L132.18,240s1.43-22.28,22.91-26.52,55.74-5.44,60.34-5.54,68.36-.95,93.56-.14,49.94,2.43,71.86,5.94,39.53,6,59,27.13,19.77,49,23.37,70.87,12.34,75.09,12.34,75.09.46,57.43,36.89,80.2,73.29,9,78.1,6.64,31.28-16.65,38.65-39a245.58,245.58,0,0,0,9.77-45l24.11-143.55s5.69-25.17,28.73-26.83,91.39-.4,91.39-.4,17.6-1.69,18.28,17.86,2.27,64.82,2.27,64.82l7,200.34s.6,25.84,13.6,38.55,23.73,18.36,39.46,21,43.86,9.11,43.86,9.11,12.18,3.37,12.18,16.6-.15,22.88-.15,22.88-2.15,15.16-15.28,15.16H32.28S26.44,625.47,23,622.89Z"/><line class="cls-3" x1="14.07" y1="611.44" x2="14.07" y2="775.28"/><line class="cls-3" x1="919.57" y1="611.44" x2="919.57" y2="775.28"/><line class="cls-3" x1="27.85" y1="625.23" x2="6.73" y2="625.23"/><line class="cls-3" x1="263.11" y1="207.31" x2="6.74" y2="207.31"/><path d="M56.57,582.68a18.49,18.49,0,0,1,2.89,1.48,5.4,5.4,0,0,1,2.64,2.9,3.28,3.28,0,0,1-.44,2.65,3.43,3.43,0,0,1-3.85,1.52l0,0a3.26,3.26,0,0,1,.24,3.25,20.3,20.3,0,0,0-1,3.57l-1.48-.92a16.45,16.45,0,0,1,.91-3.11c.62-1.73.39-2.67-.88-3.53l-1.35-.84-3,4.8-1.43-.89Zm-1.71,5.94,1.46.91c1.53,1,3,.71,3.81-.55.89-1.43.24-2.7-1.26-3.65a6.61,6.61,0,0,0-1.49-.75Z"/><path d="M63,599.52a5.69,5.69,0,0,0,2,2.14c1.85,1.16,3.16.33,3.7-.56.91-1.51,0-3-1.43-3.86l-.8-.5.67-1.08.81.5c1.05.65,2.71.94,3.5-.32.53-.86.46-2-.87-2.78a4.63,4.63,0,0,0-2.57-.62l.27-1.29a6,6,0,0,1,3.31.92c2.1,1.31,2.28,3.15,1.47,4.45a3.13,3.13,0,0,1-3.54,1.28l0,0a3.27,3.27,0,0,1,.67,4.22c-1.06,1.71-3.32,2.37-5.88.78a6.43,6.43,0,0,1-2.33-2.45Z"/><path d="M878.71,571.05a17.48,17.48,0,0,1,2.8,1.64,5.4,5.4,0,0,1,2.48,3,3.27,3.27,0,0,1-.59,2.62,3.42,3.42,0,0,1-3.92,1.31l0,0a3.26,3.26,0,0,1,0,3.26,20.7,20.7,0,0,0-1.23,3.5l-1.43-1a17.57,17.57,0,0,1,1.08-3.05c.72-1.69.54-2.65-.67-3.57l-1.3-.92-3.25,4.62-1.38-1Zm-2,5.83,1.41,1c1.47,1,3,.89,3.83-.33,1-1.38.4-2.68-1-3.72a6.48,6.48,0,0,0-1.45-.83Z"/><path d="M880.79,585.85a5.63,5.63,0,0,0,1.82,2.26c1.79,1.25,3.14.51,3.73-.36,1-1.45.13-3-1.21-3.93l-.78-.54.74-1,.77.55c1,.71,2.66,1.09,3.52-.13.58-.82.57-1.92-.71-2.82a4.65,4.65,0,0,0-2.54-.77l.35-1.26a6,6,0,0,1,3.25,1.1c2,1.42,2.1,3.27,1.22,4.52a3.14,3.14,0,0,1-3.61,1.09l0,0a3.27,3.27,0,0,1,.44,4.25c-1.16,1.65-3.46,2.19-5.92.45a6.33,6.33,0,0,1-2.19-2.58Z"/><path d="M71.94,484.38a17.52,17.52,0,0,1,2.49,2.06,5.29,5.29,0,0,1,1.95,3.41,3.2,3.2,0,0,1-1,2.48,3.42,3.42,0,0,1-4.08.66l0,0a3.26,3.26,0,0,1-.48,3.22A21,21,0,0,0,69,499.51l-1.24-1.22a16,16,0,0,1,1.56-2.83c1-1.56,1-2.53-.09-3.64l-1.13-1.11-4,4-1.2-1.18Zm-3,5.42,1.23,1.2c1.28,1.26,2.79,1.36,3.83.29s.83-2.58-.43-3.84a6.53,6.53,0,0,0-1.3-1.05Z"/><path d="M83.19,498l0,0-2.39-.68.68-1.16,3,.88,1,1-8.8,9-1.18-1.15Z"/><path d="M90.41,511.51c-3,3.06-5.78,3.63-7.77,1.68-1.75-1.72-1.33-4.53,1.55-7.52s5.88-3.4,7.71-1.61S93.21,508.66,90.41,511.51Zm-5-4.64c-2.29,2.34-2.87,4.37-1.77,5.45s3.26.35,5.51-1.94,3-4.22,1.77-5.45C89.84,503.89,87.79,504.43,85.4,506.87Z"/><path d="M178.68,232.47a17.58,17.58,0,0,1,2.54,2,5.32,5.32,0,0,1,2,3.36,3.26,3.26,0,0,1-.94,2.5,3.42,3.42,0,0,1-4.07.75l0,0a3.27,3.27,0,0,1-.41,3.23,21.43,21.43,0,0,0-1.71,3.3l-1.27-1.19a16.31,16.31,0,0,1,1.5-2.87c.94-1.57.9-2.55-.18-3.63L175,238.88,171.1,243l-1.23-1.15ZM175.84,238l1.26,1.18c1.31,1.23,2.82,1.29,3.84.2s.76-2.59-.52-3.83a7.41,7.41,0,0,0-1.32-1Z"/><path d="M193.12,248.37l-3.5-3.28-2.57,2a5.67,5.67,0,0,1,.8.64,5.31,5.31,0,0,1,1.52,2.35,3.62,3.62,0,0,1-.9,3.59,4.38,4.38,0,0,1-6.36-.07,6.14,6.14,0,0,1-1.75-2.71l1.2-.66a5.6,5.6,0,0,0,1.48,2.35,2.77,2.77,0,0,0,4,0c1.1-1.2,1.1-2.79-.73-4.51a13.11,13.11,0,0,0-1.37-1.09l4.73-3.85,4.39,4.12Z"/><path d="M382.62,270.69a18.52,18.52,0,0,1,2.2-2.38,5.38,5.38,0,0,1,3.51-1.76,3.26,3.26,0,0,1,2.42,1.14,3.41,3.41,0,0,1,.44,4.11l0,.05a3.26,3.26,0,0,1,3.19.65,21.1,21.1,0,0,0,3.16,2l-1.29,1.18a17.89,17.89,0,0,1-2.74-1.72c-1.5-1.06-2.47-1.09-3.64-.11l-1.17,1.07,3.81,4.18-1.24,1.13Zm5.25,3.25,1.27-1.16c1.33-1.21,1.51-2.71.5-3.81-1.13-1.25-2.53-1-3.86.22a7,7,0,0,0-1.12,1.24Z"/><path d="M396.88,260.21l0,0-.82,2.35-1.12-.74,1-2.94,1.07-1,8.48,9.29-1.21,1.11Z"/><path d="M407.87,262.4a5.76,5.76,0,0,0,2.6-1.29c1.61-1.48,1.17-3,.45-3.72-1.2-1.29-2.88-.77-4.09.33l-.7.64-.87-.94.7-.64c.92-.83,1.64-2.36.64-3.46-.68-.74-1.75-1-2.91.09a4.64,4.64,0,0,0-1.29,2.31l-1.17-.62a6,6,0,0,1,1.78-2.93c1.83-1.67,3.65-1.34,4.68-.21a3.12,3.12,0,0,1,.28,3.75l0,0a3.27,3.27,0,0,1,4.25.49c1.35,1.49,1.39,3.84-.84,5.88a6.49,6.49,0,0,1-3,1.58Z"/><path d="M231.48,426.67a18,18,0,0,1,.46,3.21,5.27,5.27,0,0,1-.84,3.82,3.26,3.26,0,0,1-2.41,1.17,3.43,3.43,0,0,1-3.47-2.25h-.06a3.27,3.27,0,0,1-2.51,2.07,21,21,0,0,0-3.52,1.21l-.1-1.74a17.33,17.33,0,0,1,3.06-1.05c1.77-.49,2.41-1.23,2.38-2.76l-.1-1.58-5.64.33-.09-1.68Zm-5.83,2,.1,1.72c.11,1.8,1.16,2.88,2.64,2.79,1.69-.09,2.35-1.35,2.26-3.13a7.42,7.42,0,0,0-.25-1.66Z"/><path d="M222.63,441a3.61,3.61,0,0,1,3.51,2.3l.05,0a3.12,3.12,0,0,1,2.71-2.15c2-.12,3.44,1.48,3.57,3.68.14,2.44-1.31,3.75-2.88,3.84a3.2,3.2,0,0,1-3.06-1.9h-.05a3.49,3.49,0,0,1-3.1,2.72c-2.18.13-3.76-1.66-3.9-4.06C219.32,442.75,220.79,441.07,222.63,441Zm.47,6.76c1.53-.09,2.2-1.2,2.58-2.92a2.72,2.72,0,0,0-2.72-2.11,2.31,2.31,0,0,0-2.24,2.65A2.27,2.27,0,0,0,223.1,447.72Zm6-5c-1.26.07-1.88,1.06-2.18,2.53a2.49,2.49,0,0,0,2.39,1.78,2,2,0,0,0,1.92-2.25A2,2,0,0,0,229.11,442.68Z"/><path d="M226.94,459.18c-4.27.25-6.72-1.2-6.88-4-.15-2.45,2.05-4.25,6.2-4.53s6.64,1.43,6.79,4S230.94,458.94,226.94,459.18Zm-.6-6.81c-3.26.19-5.06,1.31-5,2.85.11,1.74,2.18,2.45,5.39,2.26s5.07-1.09,5-2.85C231.64,453.14,229.76,452.17,226.34,452.37Z"/><path d="M311.72,459.73a17.29,17.29,0,0,1,.09-3.24,5.37,5.37,0,0,1,1.48-3.64,3.28,3.28,0,0,1,2.57-.74,3.43,3.43,0,0,1,3,2.81H319a3.23,3.23,0,0,1,2.82-1.61,21,21,0,0,0,3.67-.6l-.19,1.73a17.48,17.48,0,0,1-3.19.52c-1.83.18-2.58.8-2.81,2.31l-.18,1.58,5.62.63-.19,1.67Zm6.09-1L318,457c.2-1.78-.65-3-2.13-3.19-1.67-.19-2.54.94-2.76,2.7a7.39,7.39,0,0,0,0,1.68Z"/><path d="M322.87,447.14a3.6,3.6,0,0,1-3.07-2.86h-.06a3.1,3.1,0,0,1-3,1.67c-2-.22-3.14-2-2.9-4.24.28-2.42,1.93-3.46,3.49-3.29a3.21,3.21,0,0,1,2.69,2.39h.06a3.49,3.49,0,0,1,3.51-2.15c2.17.24,3.43,2.27,3.16,4.65C326.43,445.94,324.69,447.34,322.87,447.14Zm-6.1-2.79c1.25.14,2-.73,2.58-2.12a2.49,2.49,0,0,0-2.06-2.16A2,2,0,0,0,315,442,2,2,0,0,0,316.77,444.35Zm6.77-4c-1.52-.17-2.37.8-3,2.44a2.74,2.74,0,0,0,2.33,2.54,2.33,2.33,0,0,0,2.66-2.23A2.27,2.27,0,0,0,323.54,440.4Z"/><path d="M321.7,428.45c4.25.48,6.42,2.32,6.11,5.09-.27,2.44-2.74,3.84-6.88,3.41s-6.3-2.53-6-5.07S317.72,428,321.7,428.45Zm-.56,6.81c3.25.37,5.2-.43,5.38-2,.19-1.74-1.74-2.79-4.93-3.15s-5.18.22-5.38,2C316.05,433.6,317.73,434.88,321.14,435.26Z"/><path class="cls-3" d="M266.74,207.31H530.81m-72.67,75.22h72.67"/><path d="M506.34,263.46v0l1.18,2.19-1.29.33-1.47-2.75v-1.45h12.57v1.64Z"/><path d="M517.33,257.24h-1L515,255.9c-3.06-3.21-4.68-4.66-6.58-4.68a2.24,2.24,0,0,0-2.45,2.49,4.28,4.28,0,0,0,1.06,2.67l-1.2.55a5.52,5.52,0,0,1-1.28-3.56,3.54,3.54,0,0,1,3.66-3.85c2.32,0,4.2,1.68,6.75,4.33l.93,1h0v-5.65h1.41Z"/><path d="M516.33,247.18a1.15,1.15,0,0,1-1.22-1.16,1.22,1.22,0,1,1,1.22,1.16Z"/><path d="M516.13,242.32a6.83,6.83,0,0,0-.06-1.37,4.71,4.71,0,0,0-1.21-2.63,5.49,5.49,0,0,0-3.35-1.67v.06a3.69,3.69,0,0,1,1.35,3,3.65,3.65,0,0,1-3.85,3.72,4.32,4.32,0,0,1-4.47-4.3c0-2.57,2.09-4.16,5.3-4.16a8,8,0,0,1,5.91,2.17,6.37,6.37,0,0,1,1.68,3.65,8.53,8.53,0,0,1,.1,1.57Zm-7.23-.62a2.42,2.42,0,0,0,2.67-2.42,2.79,2.79,0,0,0-1.32-2.47,1.09,1.09,0,0,0-.62-.16c-2.15,0-3.79.8-3.79,2.58C505.84,240.68,507.12,241.7,508.9,241.7Z"/><path d="M506,226.21a6.53,6.53,0,0,0,.07,1.27,5.12,5.12,0,0,0,4.47,4.38v-.06a3.83,3.83,0,0,1,2.61-6.83,4.2,4.2,0,0,1,4.43,4.18c0,2.69-2.08,4.45-5.35,4.45a7.88,7.88,0,0,1-5.67-2.13,6.82,6.82,0,0,1-1.86-4,8,8,0,0,1-.1-1.24Zm7.25.48c-1.8,0-2.88,1-2.88,2.59a2.8,2.8,0,0,0,1.55,2.44,1.39,1.39,0,0,0,.75.19c2.07,0,3.6-1,3.6-2.76C516.23,227.68,515,226.69,513.21,226.69Z"/><path class="cls-3" d="M121.45,547.31V52.13m11.61,151.55V52.13"/><line class="cls-3" x1="121.45" y1="59.39" x2="133.06" y2="59.39"/><path d="M164.51,55.76v-1l1.33-1.29c3.21-3.06,4.67-4.68,4.68-6.58A2.24,2.24,0,0,0,168,44.38a4.25,4.25,0,0,0-2.67,1.07l-.54-1.2A5.49,5.49,0,0,1,168.38,43a3.54,3.54,0,0,1,3.85,3.66c0,2.32-1.69,4.19-4.34,6.75l-1,.93v0h5.65v1.41Z"/><line class="cls-4" x1="133.06" y1="203.68" x2="133.06" y2="145.54"/><line class="cls-3" x1="266.74" y1="203.68" x2="266.74" y2="145.54"/><path d="M169.67,146.58v-1.05l1.34-1.29c3.21-3.06,4.66-4.69,4.68-6.58a2.24,2.24,0,0,0-2.49-2.46,4.23,4.23,0,0,0-2.67,1.07l-.55-1.2a5.49,5.49,0,0,1,3.56-1.28,3.54,3.54,0,0,1,3.85,3.66c0,2.32-1.68,4.19-4.33,6.75l-1,.93v0h5.65v1.41Z"/><path d="M180,144.62a5.72,5.72,0,0,0,2.79.8c2.19,0,2.86-1.4,2.84-2.44,0-1.76-1.6-2.52-3.25-2.52h-.95v-1.27h.95c1.24,0,2.81-.64,2.81-2.13,0-1-.64-1.9-2.21-1.9a4.67,4.67,0,0,0-2.51.83l-.45-1.23a6,6,0,0,1,3.29-1c2.48,0,3.6,1.47,3.6,3a3.12,3.12,0,0,1-2.32,3v0a3.27,3.27,0,0,1,2.8,3.23c0,2-1.56,3.77-4.58,3.77a6.37,6.37,0,0,1-3.27-.85Z"/><path d="M189.66,145.57a1.15,1.15,0,1,1,1.14,1.22A1.15,1.15,0,0,1,189.66,145.57Z"/><path d="M201.88,140.15c0,4.28-1.58,6.64-4.37,6.64-2.46,0-4.12-2.3-4.16-6.46s1.82-6.54,4.37-6.54S201.88,136.15,201.88,140.15Zm-6.83.2c0,3.27,1,5.12,2.56,5.12,1.74,0,2.57-2,2.57-5.24s-.79-5.13-2.55-5.13C196.14,135.1,195.05,136.92,195.05,140.35Z"/><path d="M203.85,144.62a5.72,5.72,0,0,0,2.79.8c2.19,0,2.86-1.4,2.84-2.44,0-1.76-1.6-2.52-3.25-2.52h-.94v-1.27h.94c1.24,0,2.81-.64,2.81-2.13,0-1-.64-1.9-2.21-1.9a4.67,4.67,0,0,0-2.51.83l-.45-1.23a6,6,0,0,1,3.29-1c2.48,0,3.6,1.47,3.6,3a3.12,3.12,0,0,1-2.32,3v0a3.27,3.27,0,0,1,2.8,3.23c0,2-1.56,3.77-4.58,3.77a6.37,6.37,0,0,1-3.27-.85Z"/><line class="cls-3" x1="266.74" y1="203.68" x2="266.74" y2="145.54"/><line class="cls-3" x1="458.14" y1="278.91" x2="458.14" y2="145.54"/><path d="M332.62,144.62a5.68,5.68,0,0,0,2.79.8c2.18,0,2.86-1.4,2.84-2.44,0-1.76-1.61-2.52-3.25-2.52h-.95v-1.27H335c1.24,0,2.81-.64,2.81-2.13,0-1-.64-1.9-2.21-1.9a4.71,4.71,0,0,0-2.52.83l-.44-1.23a5.92,5.92,0,0,1,3.29-1c2.48,0,3.6,1.47,3.6,3a3.14,3.14,0,0,1-2.32,3v0A3.28,3.28,0,0,1,340,143c0,2-1.57,3.77-4.58,3.77a6.34,6.34,0,0,1-3.27-.85Z"/><path d="M342.14,146.58v-1.05l1.33-1.29c3.21-3.06,4.67-4.69,4.68-6.58a2.24,2.24,0,0,0-2.49-2.46,4.25,4.25,0,0,0-2.67,1.07l-.54-1.2a5.49,5.49,0,0,1,3.56-1.28,3.54,3.54,0,0,1,3.85,3.66c0,2.32-1.69,4.19-4.34,6.75l-1,.93v0h5.65v1.41Z"/><path d="M352.2,145.57a1.15,1.15,0,1,1,1.14,1.22A1.15,1.15,0,0,1,352.2,145.57Z"/><path d="M357.05,145.38a6.83,6.83,0,0,0,1.37-.06,4.79,4.79,0,0,0,2.64-1.22,5.51,5.51,0,0,0,1.66-3.35h-.06a3.77,3.77,0,0,1-6.67-2.49,4.31,4.31,0,0,1,4.29-4.47c2.58,0,4.16,2.09,4.16,5.3a8,8,0,0,1-2.16,5.9,6.27,6.27,0,0,1-3.66,1.68,7.69,7.69,0,0,1-1.57.1Zm.62-7.24a2.42,2.42,0,0,0,2.42,2.67,2.83,2.83,0,0,0,2.48-1.31,1.21,1.21,0,0,0,.15-.62c0-2.15-.79-3.79-2.57-3.79C358.7,135.09,357.67,136.36,357.67,138.14Z"/><path d="M365.83,143.39a3.6,3.6,0,0,1,2.5-3.37l0-.06a3.12,3.12,0,0,1-2-2.82c0-2,1.68-3.35,3.89-3.35,2.43,0,3.65,1.53,3.65,3.09a3.2,3.2,0,0,1-2.07,3v0a3.5,3.5,0,0,1,2.54,3.25c0,2.19-1.88,3.66-4.28,3.66C367.42,146.79,365.83,145.22,365.83,143.39Zm6.77-.08c0-1.53-1.06-2.27-2.76-2.75a2.74,2.74,0,0,0-2.27,2.59,2.33,2.33,0,0,0,2.52,2.4A2.27,2.27,0,0,0,372.6,143.31ZM367.92,137c0,1.26.95,1.93,2.4,2.32a2.48,2.48,0,0,0,1.92-2.28,2,2,0,0,0-2.13-2.05A2,2,0,0,0,367.92,137Z"/><line class="cls-5" x1="133.06" y1="233.73" x2="133.06" y2="95.38"/><path class="cls-3" d="M458.14,203.68V95.38M667.31,215.29V95.38M458.14,203.68V95.38"/><path class="cls-4" d="M667.31,99V95.38M800.57,215.29V95.38"/><path d="M721,99V98l1.34-1.3C725.54,93.61,727,92,727,90.09a2.25,2.25,0,0,0-2.5-2.46,4.25,4.25,0,0,0-2.67,1.07l-.54-1.2a5.49,5.49,0,0,1,3.56-1.28,3.54,3.54,0,0,1,3.85,3.66c0,2.32-1.68,4.2-4.33,6.75l-1,.93v0H729V99Z"/><path d="M731.32,97.06a5.73,5.73,0,0,0,2.79.79c2.18,0,2.86-1.39,2.84-2.44,0-1.76-1.6-2.51-3.25-2.51h-1V91.62h1c1.24,0,2.81-.64,2.81-2.13,0-1-.64-1.9-2.21-1.9a4.59,4.59,0,0,0-2.51.84l-.45-1.24a6,6,0,0,1,3.29-1c2.48,0,3.6,1.47,3.6,3a3.11,3.11,0,0,1-2.32,3v0a3.27,3.27,0,0,1,2.8,3.23c0,2-1.56,3.77-4.58,3.77a6.37,6.37,0,0,1-3.27-.85Z"/><path class="cls-3" d="M800.57,231.48V52.13M812.18,547.3V52.13m14.51,7.26h31.44m-57.56,0h11.61"/><polygon points="826.69 56.97 812.18 59.39 826.69 61.81 826.69 56.97"/><path d="M843.63,55.76v-1L845,53.42c3.22-3.06,4.67-4.68,4.69-6.58a2.25,2.25,0,0,0-2.5-2.46,4.25,4.25,0,0,0-2.67,1.07l-.54-1.2A5.49,5.49,0,0,1,847.5,43a3.54,3.54,0,0,1,3.85,3.66c0,2.32-1.68,4.19-4.33,6.75l-1,.93v0h5.65v1.41Z"/><path class="cls-4" d="M133.06,55.76V52.13m667.51,3.63V52.13"/><path d="M448.19,45h0L446,46.16l-.33-1.3,2.75-1.47h1.45V56h-1.65Z"/><path d="M458.12,45h0l-2.19,1.18-.33-1.3,2.75-1.47h1.45V56h-1.64Z"/><path d="M471.85,44.82h-4.8l-.48,3.23a6.71,6.71,0,0,1,1-.07,5.33,5.33,0,0,1,2.7.67,3.58,3.58,0,0,1,1.8,3.23,4.36,4.36,0,0,1-4.68,4.3,6.23,6.23,0,0,1-3.13-.77l.42-1.3a5.62,5.62,0,0,0,2.69.7,2.78,2.78,0,0,0,3-2.73c0-1.63-1.1-2.79-3.62-2.79a12.73,12.73,0,0,0-1.74.14l.81-6h6Z"/><path class="cls-3" d="M530.8,207.31H897.49m-7.25,0v11.61"/><path d="M886.61,255.07h-1l-1.3-1.33c-3.06-3.21-4.68-4.66-6.58-4.68a2.24,2.24,0,0,0-2.45,2.49,4.3,4.3,0,0,0,1.06,2.67l-1.2.54a5.53,5.53,0,0,1-1.28-3.56,3.55,3.55,0,0,1,3.66-3.85c2.32,0,4.2,1.69,6.75,4.34l.93,1h0V247h1.41Z"/><path d="M712.84,246.54a17.88,17.88,0,0,1,2,2.53,5.34,5.34,0,0,1,1.24,3.72,3.28,3.28,0,0,1-1.48,2.24,3.44,3.44,0,0,1-4.13-.17l0,0a3.25,3.25,0,0,1-1.1,3.06,19.86,19.86,0,0,0-2.4,2.84l-1-1.44a16.82,16.82,0,0,1,2.09-2.47c1.27-1.33,1.44-2.28.64-3.58l-.89-1.32-4.68,3.17-1-1.39Zm-4,4.73,1,1.42c1,1.49,2.46,1.89,3.7,1.05s1.32-2.36.33-3.85a6.61,6.61,0,0,0-1.06-1.29Z"/><path d="M723.43,264.84a6.62,6.62,0,0,0-.78-1,5.11,5.11,0,0,0-6.15-1.11l0,.05a3.84,3.84,0,0,1,1.67,7.12,4.22,4.22,0,0,1-6-1c-1.5-2.22-.76-4.85,2-6.69A7.88,7.88,0,0,1,720,260.8a6.81,6.81,0,0,1,3.8,2.29,7.8,7.8,0,0,1,.77,1Zm-6.28,3.67c1.49-1,1.81-2.47.93-3.77a2.8,2.8,0,0,0-2.65-1.15,1.5,1.5,0,0,0-.73.27c-1.69,1.19-2.42,2.83-1.43,4.3C714.1,269.38,715.66,269.52,717.15,268.51Z"/><path d="M506.89,414.18a17,17,0,0,1,2.62-1.9,5.36,5.36,0,0,1,3.79-1,3.25,3.25,0,0,1,2.15,1.59,3.44,3.44,0,0,1-.38,4.12l0,.05a3.23,3.23,0,0,1,3,1.26,21.2,21.2,0,0,0,2.71,2.55l-1.49.9a17.39,17.39,0,0,1-2.35-2.22c-1.26-1.34-2.21-1.56-3.55-.82l-1.36.82,2.92,4.84-1.44.87Zm4.5,4.21,1.48-.89c1.54-.92,2-2.36,1.24-3.63-.87-1.45-2.29-1.45-3.83-.54a6.45,6.45,0,0,0-1.34,1Z"/><path d="M522.93,406.69l0,0-1.26,2.14-.95-.94,1.59-2.67,1.24-.75,6.5,10.77-1.41.85Z"/><path d="M533.28,411a5.74,5.74,0,0,0,2.79-.76c1.88-1.13,1.74-2.67,1.18-3.56-.92-1.5-2.67-1.32-4.08-.47l-.81.49-.66-1.1.81-.49c1.06-.64,2.07-2,1.3-3.27-.51-.86-1.52-1.29-2.86-.48a4.69,4.69,0,0,0-1.73,2l-1-.83a6,6,0,0,1,2.32-2.53c2.12-1.28,3.84-.6,4.63.71a3.11,3.11,0,0,1-.46,3.73l0,0a3.27,3.27,0,0,1,4.07,1.32c1,1.72.61,4-2,5.59a6.37,6.37,0,0,1-3.24,1Z"/><path d="M583.88,402.56a17.68,17.68,0,0,1,2.5,2.07,5.32,5.32,0,0,1,2,3.39,3.23,3.23,0,0,1-1,2.49,3.45,3.45,0,0,1-4.09.67l0,0a3.25,3.25,0,0,1-.46,3.22A20.22,20.22,0,0,0,581,417.7l-1.25-1.21a16.67,16.67,0,0,1,1.55-2.84c1-1.56,1-2.53-.1-3.64l-1.13-1.11L576.1,413l-1.2-1.18ZM580.94,408l1.23,1.2c1.29,1.26,2.79,1.35,3.83.28s.82-2.58-.44-3.84a7.4,7.4,0,0,0-1.3-1.05Z"/><path d="M595.17,416.2l0,0-2.39-.68.67-1.16,3,.87,1,1-8.78,9-1.18-1.14Z"/><path d="M593.61,427.3a5.7,5.7,0,0,0,1.44,2.51c1.57,1.53,3,1,3.74.24,1.22-1.27.61-2.92-.57-4.07l-.68-.66.89-.91.68.66c.89.86,2.46,1.5,3.5.43.7-.72.86-1.8-.26-2.89a4.64,4.64,0,0,0-2.38-1.17l.55-1.19a6,6,0,0,1,3,1.6c1.77,1.73,1.55,3.57.48,4.66a3.12,3.12,0,0,1-3.73.5l0,0a3.28,3.28,0,0,1-.25,4.27c-1.4,1.44-3.75,1.61-5.91-.5a6.45,6.45,0,0,1-1.75-2.89Z"/><line class="cls-3" x1="458.14" y1="286.16" x2="458.14" y2="546.51"/><path class="cls-3" d="M490.62,483.75v62.76m-32.48-7.25h32.48"/><path d="M535.2,521.74h-4.8l-.48,3.23a6.48,6.48,0,0,1,1-.08,5.35,5.35,0,0,1,2.71.68,3.58,3.58,0,0,1,1.8,3.23,4.36,4.36,0,0,1-4.68,4.3,6.11,6.11,0,0,1-3.13-.78l.42-1.29a5.63,5.63,0,0,0,2.69.69,2.77,2.77,0,0,0,3-2.72c0-1.63-1.1-2.79-3.62-2.79a14.84,14.84,0,0,0-1.74.13l.81-6h6Z"/><path d="M537.75,531.88a1.15,1.15,0,0,1,1.16-1.22,1.22,1.22,0,1,1-1.16,1.22Z"/><path d="M548.8,521.51a6,6,0,0,0-1.28.08,5.09,5.09,0,0,0-4.37,4.46h.06a3.83,3.83,0,0,1,6.83,2.62,4.21,4.21,0,0,1-4.18,4.43c-2.69,0-4.45-2.09-4.45-5.36a7.9,7.9,0,0,1,2.13-5.67,6.85,6.85,0,0,1,4-1.86,7.71,7.71,0,0,1,1.24-.09Zm-.48,7.25c0-1.8-1-2.88-2.6-2.88a2.79,2.79,0,0,0-2.43,1.55,1.39,1.39,0,0,0-.2.75c0,2.07,1,3.6,2.77,3.6C547.33,531.78,548.32,530.56,548.32,528.76Z"/><line class="cls-3" x1="667.31" y1="222.55" x2="667.31" y2="546.51"/><line class="cls-3" x1="623.54" y1="483.75" x2="623.54" y2="546.51"/><path d="M643.13,517v1.12l-5.48,11.45h-1.76l5.46-11.12v0H635.2V517Z"/><path d="M645,528.55a1.15,1.15,0,0,1,1.16-1.22,1.22,1.22,0,0,1,0,2.43A1.14,1.14,0,0,1,645,528.55Z"/><path d="M656.4,518.41h-4.8l-.48,3.23a6.48,6.48,0,0,1,1-.08,5.25,5.25,0,0,1,2.71.68,3.57,3.57,0,0,1,1.8,3.23,4.35,4.35,0,0,1-4.68,4.29,6.14,6.14,0,0,1-3.14-.77l.43-1.3a5.62,5.62,0,0,0,2.69.7,2.78,2.78,0,0,0,3-2.73c0-1.62-1.11-2.78-3.62-2.78a12.67,12.67,0,0,0-1.74.13l.81-6h6Z"/><path class="cls-3" d="M923.19,573h46M781.43,218.92h210.1M905.78,625.23h85.75"/><path d="M957.16,603.82a6.83,6.83,0,0,0-.06-1.37,4.71,4.71,0,0,0-1.21-2.63,5.49,5.49,0,0,0-3.35-1.67v.06a3.69,3.69,0,0,1,1.35,3,3.64,3.64,0,0,1-3.85,3.71,4.31,4.31,0,0,1-4.47-4.29c0-2.57,2.09-4.16,5.3-4.16a8,8,0,0,1,5.91,2.17,6.34,6.34,0,0,1,1.68,3.65,7.69,7.69,0,0,1,.1,1.57Zm-7.23-.62a2.42,2.42,0,0,0,2.67-2.42,2.79,2.79,0,0,0-1.32-2.47,1.09,1.09,0,0,0-.62-.16c-2.15,0-3.79.79-3.79,2.57C946.87,602.18,948.15,603.2,949.93,603.2Z"/><line class="cls-3" x1="808.55" y1="550.93" x2="758.4" y2="550.93"/><line class="cls-4" x1="808.55" y1="625.23" x2="758.4" y2="625.23"/><path d="M748.45,601.11v0l1.18,2.18-1.3.33-1.47-2.74v-1.46h12.58v1.65Z"/><path d="M759.44,594.88h-1l-1.3-1.33c-3.06-3.21-4.68-4.67-6.58-4.69a2.25,2.25,0,0,0-2.46,2.5,4.25,4.25,0,0,0,1.07,2.67l-1.2.54a5.49,5.49,0,0,1-1.28-3.56,3.54,3.54,0,0,1,3.66-3.85c2.32,0,4.2,1.68,6.75,4.34l.93,1h0v-5.65h1.41Z"/><path d="M758.43,584.82a1.14,1.14,0,0,1-1.21-1.16,1.12,1.12,0,0,1,1.21-1.14,1.15,1.15,0,1,1,0,2.3Z"/><path d="M756.25,581.13a3.6,3.6,0,0,1-3.37-2.5l0,0a3.13,3.13,0,0,1-2.83,2c-2,0-3.35-1.68-3.35-3.89,0-2.43,1.53-3.65,3.1-3.65a3.2,3.2,0,0,1,2.94,2.07h.06a3.49,3.49,0,0,1,3.25-2.54c2.18,0,3.66,1.88,3.66,4.28C759.66,579.54,758.09,581.13,756.25,581.13ZM749.88,579c1.26,0,1.94-.95,2.33-2.4a2.49,2.49,0,0,0-2.29-1.92,2,2,0,0,0-2,2.13A2,2,0,0,0,749.88,579Zm6.29-4.69c-1.53,0-2.26,1.07-2.74,2.77a2.72,2.72,0,0,0,2.59,2.26,2.32,2.32,0,0,0,2.4-2.51A2.28,2.28,0,0,0,756.17,574.35Z"/><line class="cls-3" x1="812.18" y1="554.56" x2="812.18" y2="737.08"/><line class="cls-3" x1="919.57" y1="628.86" x2="919.57" y2="737.08"/><path d="M845.27,712.61h0l-2.18,1.18-.33-1.29,2.74-1.47h1.46V723.6h-1.65Z"/><path d="M851.34,720.41a3.58,3.58,0,0,1,2.5-3.36l0-.06a3.12,3.12,0,0,1-2-2.83c0-2,1.68-3.35,3.89-3.35,2.43,0,3.65,1.53,3.65,3.1a3.19,3.19,0,0,1-2.07,2.94v.06a3.49,3.49,0,0,1,2.54,3.25c0,2.19-1.88,3.66-4.28,3.66C852.93,723.82,851.34,722.25,851.34,720.41Zm6.78-.08c0-1.52-1.07-2.26-2.77-2.74a2.72,2.72,0,0,0-2.26,2.59,2.32,2.32,0,0,0,2.51,2.4A2.28,2.28,0,0,0,858.12,720.33Zm-4.69-6.28c0,1.25,1,1.93,2.4,2.32a2.48,2.48,0,0,0,1.92-2.29,2,2,0,0,0-2.13-2.05A2,2,0,0,0,853.43,714.05Z"/><path d="M861.56,722.6a1.14,1.14,0,0,1,1.16-1.22,1.13,1.13,0,0,1,1.14,1.22,1.15,1.15,0,1,1-2.3,0Z"/><path d="M872.92,712.46h-4.8l-.49,3.23a6.51,6.51,0,0,1,1-.08,5.37,5.37,0,0,1,2.71.68,3.59,3.59,0,0,1,1.8,3.23,4.37,4.37,0,0,1-4.69,4.3,6.11,6.11,0,0,1-3.13-.78l.43-1.29a5.6,5.6,0,0,0,2.69.69,2.77,2.77,0,0,0,3-2.72c0-1.63-1.1-2.79-3.61-2.79a14.49,14.49,0,0,0-1.74.13l.81-6h6Z"/><path class="cls-3" d="M121.45,554.56V737.08M14.07,628.86V737.08"/><path d="M53.09,712.61h0l-2.19,1.18-.33-1.29L53.28,711h1.45V723.6H53.09Z"/><path d="M59.16,720.41a3.58,3.58,0,0,1,2.5-3.36l0-.06a3.11,3.11,0,0,1-2-2.83c0-2,1.69-3.35,3.89-3.35,2.44,0,3.66,1.53,3.66,3.1a3.19,3.19,0,0,1-2.07,2.94v.06a3.48,3.48,0,0,1,2.53,3.25c0,2.19-1.87,3.66-4.27,3.66C60.75,723.82,59.16,722.25,59.16,720.41Zm6.77-.08c0-1.52-1.06-2.26-2.77-2.74a2.72,2.72,0,0,0-2.26,2.59,2.33,2.33,0,0,0,2.52,2.4A2.28,2.28,0,0,0,65.93,720.33Zm-4.68-6.28c0,1.25,1,1.93,2.4,2.32a2.48,2.48,0,0,0,1.91-2.29A2,2,0,0,0,63.44,712,2,2,0,0,0,61.25,714.05Z"/><path d="M69.37,722.6a1.15,1.15,0,0,1,1.16-1.22,1.22,1.22,0,0,1,0,2.44A1.15,1.15,0,0,1,69.37,722.6Z"/><path d="M80.73,712.46h-4.8l-.48,3.23a6.48,6.48,0,0,1,1-.08,5.35,5.35,0,0,1,2.71.68,3.57,3.57,0,0,1,1.8,3.23,4.36,4.36,0,0,1-4.68,4.3,6.11,6.11,0,0,1-3.13-.78l.42-1.29a5.63,5.63,0,0,0,2.69.69,2.77,2.77,0,0,0,3-2.72c0-1.63-1.1-2.79-3.62-2.79a14.84,14.84,0,0,0-1.74.13l.81-6h6Z"/><path class="cls-3" d="M227,675.75v42.37m79.52-42.37v42.37"/><path d="M254.21,693.65h0L252,694.83l-.33-1.29,2.74-1.47h1.46v12.57h-1.65Z"/><path d="M260.85,702.69a5.65,5.65,0,0,0,2.78.79c2.19,0,2.87-1.39,2.85-2.43,0-1.77-1.61-2.52-3.25-2.52h-1v-1.28h1c1.23,0,2.8-.64,2.8-2.13,0-1-.64-1.89-2.21-1.89a4.59,4.59,0,0,0-2.51.83l-.45-1.24a6,6,0,0,1,3.29-1c2.48,0,3.6,1.48,3.6,3a3.11,3.11,0,0,1-2.32,3v0a3.28,3.28,0,0,1,2.81,3.23c0,2-1.57,3.78-4.59,3.78a6.47,6.47,0,0,1-3.27-.85Z"/><path d="M270.5,703.64a1.14,1.14,0,0,1,1.16-1.22,1.13,1.13,0,0,1,1.14,1.22,1.15,1.15,0,1,1-2.3,0Z"/><path d="M282.52,692.07v1.12L277,704.64h-1.76l5.45-11.12v0h-6.15v-1.41Z"/><path d="M259.53,586.85a5.73,5.73,0,0,0,.79-2.79c0-2.18-1.39-2.86-2.43-2.84-1.76,0-2.52,1.6-2.52,3.25v.95h-1.28v-.95c0-1.24-.63-2.81-2.12-2.81-1,0-1.9.64-1.9,2.21a4.59,4.59,0,0,0,.83,2.51l-1.24.45a6,6,0,0,1-1-3.29c0-2.48,1.47-3.6,3-3.6a3.11,3.11,0,0,1,3,2.32h0a3.27,3.27,0,0,1,3.24-2.8c2,0,3.77,1.57,3.77,4.58a6.44,6.44,0,0,1-.85,3.27Z"/><path d="M248.61,597.06a17.89,17.89,0,0,1-.27-3.23,5.3,5.3,0,0,1,1.07-3.77,3.24,3.24,0,0,1,2.47-1,3.42,3.42,0,0,1,3.33,2.46h.06a3.25,3.25,0,0,1,2.63-1.92,20.38,20.38,0,0,0,3.58-1v1.74a17.48,17.48,0,0,1-3.11.87c-1.8.39-2.48,1.08-2.54,2.61v1.59h5.65v1.68Zm5.94-1.68v-1.72c0-1.8-1-2.94-2.47-2.94-1.69,0-2.42,1.21-2.44,3a7.44,7.44,0,0,0,.15,1.67Z"/><path d="M255.06,574.79c4.28,0,6.64,1.59,6.64,4.38,0,2.46-2.31,4.12-6.47,4.16s-6.54-1.82-6.54-4.38S251.06,574.79,255.06,574.79Zm.19,6.83c3.27,0,5.13-1,5.13-2.55,0-1.74-2-2.57-5.24-2.57s-5.13.79-5.13,2.55C250,580.54,251.83,581.62,255.25,581.62Z"/><path d="M255.06,555c4.28,0,6.64,1.58,6.64,4.37,0,2.46-2.3,4.12-6.46,4.16s-6.54-1.82-6.54-4.38S251.06,554.94,255.06,555Zm.2,6.83c3.27,0,5.12-1,5.12-2.56,0-1.74-2-2.57-5.24-2.57s-5.13.79-5.13,2.55C250,560.69,251.83,561.78,255.26,561.78Z"/><line class="cls-3" x1="27.53" y1="768.02" x2="906.61" y2="768.02"/><polygon points="30.42 772.1 14.57 767.85 30.42 763.6 30.42 772.1"/><polygon points="903.71 772.1 919.57 767.85 903.71 763.6 903.71 772.1"/><line class="cls-3" x1="27.53" y1="729.83" x2="108.5" y2="729.83"/><polygon points="30.42 733.89 14.57 729.65 30.42 725.4 30.42 733.89"/><polygon points="105.6 733.89 121.45 729.65 105.6 725.4 105.6 733.89"/><path d="M448.19,753.61h0L446,754.8l-.33-1.3,2.75-1.47h1.45V764.6h-1.65Z"/><path d="M461.93,753.46h-4.8l-.48,3.23a6.48,6.48,0,0,1,1-.08,5.35,5.35,0,0,1,2.71.68,3.58,3.58,0,0,1,1.8,3.23,4.36,4.36,0,0,1-4.68,4.3,6.12,6.12,0,0,1-3.14-.78l.43-1.29a5.63,5.63,0,0,0,2.69.69,2.77,2.77,0,0,0,3-2.72c0-1.63-1.1-2.79-3.62-2.79a14.49,14.49,0,0,0-1.74.13l.81-6h6Z"/><path d="M471.52,753.23a5.87,5.87,0,0,0-1.27.08,5.11,5.11,0,0,0-4.38,4.46h.06a3.83,3.83,0,0,1,6.83,2.62,4.21,4.21,0,0,1-4.18,4.43c-2.69,0-4.45-2.09-4.45-5.36a7.9,7.9,0,0,1,2.13-5.67,6.88,6.88,0,0,1,4-1.86,7.78,7.78,0,0,1,1.24-.09Zm-.48,7.25c0-1.8-1-2.88-2.59-2.88a2.8,2.8,0,0,0-2.44,1.55,1.39,1.39,0,0,0-.19.75c0,2.07,1,3.6,2.76,3.6C470.05,763.5,471,762.28,471,760.48Z"/><path d="M965.77,407.86h1.13l11.45,5.48v1.76l-11.13-5.46h0v6.15h-1.42Z"/><path d="M971.93,397.74c4.27,0,6.63,1.59,6.63,4.38,0,2.45-2.3,4.12-6.46,4.16s-6.54-1.82-6.54-4.38S967.92,397.74,971.93,397.74Zm.19,6.83c3.27,0,5.13-1,5.13-2.55,0-1.74-2-2.57-5.25-2.57s-5.12.79-5.12,2.55C966.88,403.49,968.69,404.57,972.12,404.57Z"/><path d="M282.37,86.25h-4.8l-.48,3.23a6.48,6.48,0,0,1,1-.08,5.25,5.25,0,0,1,2.71.68,3.57,3.57,0,0,1,1.8,3.23,4.36,4.36,0,0,1-4.68,4.3,6.15,6.15,0,0,1-3.14-.78l.43-1.29a5.75,5.75,0,0,0,2.69.69,2.77,2.77,0,0,0,3-2.73c0-1.62-1.1-2.78-3.62-2.78a14.67,14.67,0,0,0-1.74.13l.81-6h6Z"/><path d="M292,86a6.53,6.53,0,0,0-1.27.07,5.12,5.12,0,0,0-4.38,4.47h.06a3.83,3.83,0,0,1,6.83,2.62A4.2,4.2,0,0,1,289,97.61c-2.69,0-4.45-2.09-4.45-5.36a7.9,7.9,0,0,1,2.13-5.67,6.82,6.82,0,0,1,4-1.86,7.79,7.79,0,0,1,1.23-.1Zm-.48,7.25c0-1.8-1-2.88-2.59-2.88a2.8,2.8,0,0,0-2.44,1.55,1.39,1.39,0,0,0-.19.75c0,2.07,1,3.6,2.76,3.6C290.49,96.29,291.48,95.07,291.48,93.27Z"/><path d="M541.48,95.44a5.69,5.69,0,0,0,2.79.79c2.18,0,2.86-1.39,2.84-2.44,0-1.76-1.61-2.51-3.25-2.51h-1V90h1c1.24,0,2.8-.64,2.8-2.13,0-1-.63-1.89-2.2-1.89a4.62,4.62,0,0,0-2.52.83l-.44-1.24a6,6,0,0,1,3.29-1c2.47,0,3.6,1.47,3.6,3a3.12,3.12,0,0,1-2.33,3v0a3.28,3.28,0,0,1,2.81,3.23c0,2-1.57,3.78-4.58,3.78a6.3,6.3,0,0,1-3.27-.86Z"/><path d="M558.17,86a6.53,6.53,0,0,0-1.27.07,5.14,5.14,0,0,0-4.38,4.47h.06a3.83,3.83,0,0,1,6.83,2.62,4.2,4.2,0,0,1-4.18,4.43c-2.69,0-4.45-2.09-4.45-5.36a7.9,7.9,0,0,1,2.13-5.67,6.82,6.82,0,0,1,4-1.86,7.88,7.88,0,0,1,1.23-.1Zm-.48,7.25c0-1.8-1-2.88-2.59-2.88a2.8,2.8,0,0,0-2.44,1.55,1.39,1.39,0,0,0-.19.75c0,2.07,1,3.6,2.76,3.6C556.7,96.29,557.69,95.07,557.69,93.27Z"/><line class="cls-3" x1="239.93" y1="710.86" x2="293.54" y2="710.86"/><polygon points="242.83 714.93 226.98 710.69 242.83 706.44 242.83 714.93"/><polygon points="290.64 714.93 306.5 710.69 290.64 706.44 290.64 714.93"/><line class="cls-3" x1="636.49" y1="539.26" x2="654.35" y2="539.26"/><polygon points="639.39 543.33 623.54 539.08 639.39 534.83 639.39 543.33"/><polygon points="651.45 543.33 667.31 539.08 651.45 534.83 651.45 543.33"/><line class="cls-3" x1="961.99" y1="612.28" x2="961.99" y2="585.95"/><polygon points="966.06 609.38 961.81 625.23 957.56 609.38 966.06 609.38"/><polygon points="966.06 588.84 961.81 572.99 957.56 588.84 966.06 588.84"/><line class="cls-3" x1="765.66" y1="610.99" x2="765.66" y2="563.89"/><polygon points="769.73 608.09 765.48 623.95 761.23 608.09 769.73 608.09"/><polygon points="769.73 566.79 765.48 550.93 761.23 566.79 769.73 566.79"/><line class="cls-3" x1="824.82" y1="729.83" x2="906.61" y2="729.83"/><polygon points="827.72 733.9 811.87 729.65 827.72 725.4 827.72 733.9"/><polygon points="903.71 733.9 919.57 729.65 903.71 725.4 903.71 733.9"/><line class="cls-3" x1="471.09" y1="102.64" x2="654.35" y2="102.64"/><polygon points="473.99 106.71 458.14 102.47 473.99 98.21 473.99 106.71"/><polygon points="651.45 106.71 667.3 102.47 651.45 98.21 651.45 106.71"/><line class="cls-3" x1="679.92" y1="102.64" x2="787.62" y2="102.64"/><polygon points="682.82 106.71 666.97 102.46 682.82 98.21 682.82 106.71"/><polygon points="784.72 106.71 800.57 102.46 784.72 98.21 784.72 106.71"/><line class="cls-3" x1="984.28" y1="612.27" x2="984.28" y2="231.87"/><polygon points="988.35 609.38 984.1 625.23 979.85 609.38 988.35 609.38"/><polygon points="988.35 234.77 984.1 218.92 979.85 234.77 988.35 234.77"/><line class="cls-3" x1="146.02" y1="102.64" x2="443.82" y2="102.64"/><polygon points="148.91 106.71 133.06 102.47 148.91 98.21 148.91 106.71"/><polygon points="440.92 106.71 456.77 102.47 440.92 98.21 440.92 106.71"/><line class="cls-3" x1="146.02" y1="152.8" x2="254.05" y2="152.8"/><polygon points="148.91 156.87 133.06 152.62 148.91 148.37 148.91 156.87"/><polygon points="251.16 156.87 267.01 152.62 251.16 148.37 251.16 156.87"/><line class="cls-3" x1="279.97" y1="152.8" x2="443.82" y2="152.8"/><polygon points="282.86 156.87 267.01 152.62 282.86 148.37 282.86 156.87"/><polygon points="440.92 156.87 456.77 152.62 440.92 148.37 440.92 156.87"/><line class="cls-3" x1="146.02" y1="59.39" x2="787.62" y2="59.39"/><polygon points="148.91 63.46 133.06 59.21 148.91 54.96 148.91 63.46"/><polygon points="784.72 63.46 800.57 59.21 784.72 54.96 784.72 63.46"/><line class="cls-3" x1="523.55" y1="269.58" x2="523.55" y2="220.27"/><polygon points="527.62 266.68 523.37 282.54 519.12 266.68 527.62 266.68"/><polygon points="527.62 223.16 523.37 207.31 519.12 223.16 527.62 223.16"/><line class="cls-6" x1="430.62" y1="251.02" x2="392.49" y2="287.28"/><polygon points="425.72 250.06 440.13 242.22 431.57 256.22 425.72 250.06"/><line class="cls-6" x1="150.3" y1="231.84" x2="184.55" y2="261.69"/><polygon points="149.81 236.81 140.65 223.19 155.4 230.4 149.81 236.81"/><line class="cls-6" x1="200.49" y1="221.5" x2="214.66" y2="462.62"/><polygon points="196.59 224.63 199.9 208.55 205.08 224.13 196.59 224.63"/><line class="cls-6" x1="357.44" y1="223.51" x2="329.75" y2="464.27"/><polygon points="353.07 225.93 359.1 210.66 361.51 226.9 353.07 225.93"/><line class="cls-6" x1="267.08" y1="220.26" x2="267.01" y2="598.53"/><polygon points="263.01 223.16 267.26 207.31 271.51 223.16 263.01 223.16"/><line class="cls-6" x1="603.87" y1="448.26" x2="566.96" y2="411.94"/><polygon points="604.66 443.33 612.98 457.47 598.7 449.39 604.66 443.33"/><line class="cls-6" x1="503.84" y1="439.39" x2="546.98" y2="410.75"/><polygon points="508.5 441.17 492.95 446.4 503.81 434.1 508.5 441.17"/><path d="M843.79,512.94a17.14,17.14,0,0,1,2.62-1.9,5.32,5.32,0,0,1,3.78-1,3.22,3.22,0,0,1,2.16,1.59,3.42,3.42,0,0,1-.39,4.12l0,0a3.24,3.24,0,0,1,3,1.26,21.2,21.2,0,0,0,2.71,2.55l-1.49.9a17.39,17.39,0,0,1-2.35-2.22c-1.26-1.34-2.21-1.56-3.55-.82l-1.36.82,2.92,4.83-1.44.87Zm4.5,4.22,1.48-.89c1.54-.93,2-2.36,1.24-3.64-.87-1.44-2.29-1.44-3.83-.54a7.28,7.28,0,0,0-1.34,1Z"/><path d="M859.83,505.46l0,0-1.26,2.14-.95-.94,1.59-2.68,1.24-.75L866.91,514l-1.4.85Z"/><path d="M874.68,501.84c2.21,3.66,2.07,6.5-.32,7.94-2.1,1.27-4.71.16-6.89-3.38s-1.82-6.54.37-7.86S872.62,498.41,874.68,501.84Zm-5.75,3.69c1.69,2.8,3.51,3.88,4.84,3.08,1.49-.9,1.15-3.07-.5-5.82s-3.33-4-4.84-3.08C867.16,500.48,867.17,502.6,868.93,505.53Z"/><line class="cls-6" x1="840.74" y1="538.15" x2="883.89" y2="509.52"/><polygon points="845.41 539.94 829.85 545.17 840.71 532.87 845.41 539.94"/><line class="cls-6" x1="96.06" y1="535.08" x2="54.49" y2="496.33"/><polygon points="96.72 530.13 105.42 544.04 90.92 536.34 96.72 530.13"/><line class="cls-6" x1="28.33" y1="585.83" x2="67.88" y2="612.07"/><polygon points="28.49 590.82 17.63 578.51 33.19 583.74 28.49 590.82"/><line class="cls-6" x1="503.57" y1="539.26" x2="551.82" y2="539.26"/><polygon points="506.47 543.33 490.62 539.08 506.47 534.83 506.47 543.33"/><line class="cls-6" x1="445.18" y1="539.26" x2="430.27" y2="539.26"/><polygon points="442.29 535.18 458.14 539.43 442.29 543.68 442.29 535.18"/><line class="cls-6" x1="890.24" y1="194.83" x2="890.24" y2="175.76"/><polygon points="894.31 191.93 890.06 207.78 885.81 191.93 894.31 191.93"/><line class="cls-6" x1="890.24" y1="231.4" x2="890.24" y2="261.31"/><polygon points="886.17 234.3 890.41 218.45 894.66 234.3 886.17 234.3"/><path d="M738.3,254.21a16.68,16.68,0,0,1,2.2-2.38,5.29,5.29,0,0,1,3.5-1.76,3.24,3.24,0,0,1,2.43,1.13,3.44,3.44,0,0,1,.43,4.12l0,0a3.26,3.26,0,0,1,3.19.65,20.6,20.6,0,0,0,3.16,2L752,259.15a17,17,0,0,1-2.74-1.71c-1.5-1.07-2.47-1.1-3.64-.11l-1.17,1.07,3.81,4.17L747,263.7Zm5.25,3.25,1.27-1.17c1.33-1.21,1.5-2.71.5-3.81s-2.53-1-3.86.23a6.32,6.32,0,0,0-1.12,1.23Z"/><path d="M756.22,252.61a5.69,5.69,0,0,0,2.6-1.3c1.61-1.47,1.17-3,.45-3.71-1.2-1.29-2.88-.78-4.09.33l-.7.64-.87-.94.7-.64c.92-.84,1.65-2.37.64-3.47-.68-.74-1.75-1-2.91.09a4.64,4.64,0,0,0-1.29,2.31l-1.17-.61a6,6,0,0,1,1.78-2.93c1.83-1.67,3.65-1.35,4.68-.22a3.12,3.12,0,0,1,.28,3.75l0,0a3.28,3.28,0,0,1,4.25.5c1.36,1.48,1.39,3.84-.84,5.87a6.4,6.4,0,0,1-3,1.58Z"/><line class="cls-3" x1="786.3" y1="232.92" x2="748.16" y2="269.18"/><polygon points="781.39 231.97 795.81 224.12 787.25 238.13 781.39 231.97"/><line class="cls-3" x1="684.29" y1="234.88" x2="712.11" y2="277.9"/><polygon points="682.44 239.52 677.4 223.9 689.58 234.91 682.44 239.52"/><line class="cls-6" x1="904.76" y1="610.47" x2="864.96" y2="585.06"/><polygon points="904.51 605.48 915.58 617.6 899.93 612.64 904.51 605.48"/><line class="cls-6" x1="108.5" y1="59.39" x2="93.58" y2="59.39"/><polygon points="105.6 55.32 121.45 59.56 105.6 63.81 105.6 55.32"/></g><g id="Watermark"><rect class="cls-1" x="435.92" y="558.41" width="123.09" height="46.3"/><rect class="cls-7" x="442.33" y="566.25" width="62.89" height="30.62"/><rect class="cls-7" x="505.22" y="566.25" width="47.39" height="30.62"/><path class="cls-8" d="M464,572.35l-2.79,18.92h-2.74l-1.55-11-1.53,11H452.6l-2.79-18.92h2.5l1.79,14.17,1.79-14.17h2l1.79,14.17,1.79-14.17Z"/><path class="cls-8" d="M465.4,591.27V572.35h2.53v18.92Z"/><path class="cls-8" d="M470.3,572.35h5q2.89,0,2.9,3.24v4.66c0,1.65-.5,2.7-1.51,3.14l1.77,7.88H476l-1.66-7.64h-1.53v7.64H470.3Zm2.53,9.12h1.66q1.14,0,1.14-1.38V576c0-.91-.38-1.37-1.14-1.37h-1.66Z"/><path class="cls-8" d="M484.29,574.64v16.63h-2.52V574.64h-2.43v-2.29h7.38v2.29Z"/><path class="cls-8" d="M493.81,591.27v-8.59H490.7v8.59h-2.53V572.35h2.53v8h3.11v-8h2.53v18.92Z"/><path class="cls-8" d="M513.78,572.35h5q2.89,0,2.89,3.24v4.66c0,1.65-.5,2.7-1.5,3.14l1.77,7.88h-2.4l-1.66-7.64h-1.53v7.64h-2.53Zm2.53,9.12H518c.76,0,1.13-.46,1.13-1.38V576c0-.91-.37-1.37-1.13-1.37h-1.66Z"/><path class="cls-8" d="M526.14,591.27h-2.53V575.59q0-3.24,3-3.24h1.9q3,0,3,3.24v15.68H529v-6.93h-2.9ZM529,582v-6.29a1,1,0,0,0-1.11-1.11h-.68a1,1,0,0,0-1.11,1.11V582Z"/><path class="cls-8" d="M533.81,591.27V572.35h2.53v18.92Z"/><path class="cls-8" d="M544.71,591.27h-6V572.35h2.53V589h3.47Z"/></g></svg>