<svg xmlns="http://www.w3.org/2000/svg" viewBox="0 0 1000 800"><defs><style>.cls-1,.cls-10,.cls-3,.cls-4,.cls-6,.cls-7,.cls-8,.cls-9{fill:none;}.cls-1,.cls-10,.cls-3,.cls-6,.cls-7,.cls-9{stroke:#000100;}.cls-1,.cls-6{stroke-width:1.51px;}.cls-2{fill:#f1f1f1;}.cls-10,.cls-3,.cls-4,.cls-6,.cls-7,.cls-9{stroke-linecap:round;stroke-linejoin:round;}.cls-10,.cls-3,.cls-7,.cls-8,.cls-9{stroke-width:1.06px;}.cls-4{stroke:#8cc867;stroke-width:0.78px;}.cls-5{fill:#000100;}.cls-7{stroke-dasharray:29.02 29.02;}.cls-8{stroke:#221e1f;}.cls-12,.cls-8{stroke-miterlimit:10;}.cls-9{stroke-dasharray:27.59 27.59;}.cls-10{stroke-dasharray:31.34 31.34;}.cls-11,.cls-12{fill:#f0f0f0;}.cls-12{stroke:#ccc;}.cls-13{fill:#ccc;}</style></defs><g id="Flat"><line class="cls-1" x1="870" y1="597.21" x2="141.22" y2="597.21"/><path class="cls-2" d="M132.92,594.45c-5.67-4.33-7.34-8.1-7.34-12.86s-.09-20,.61-21.85,3.21-6.59,5.79-8,7.5-2.74,16.48-4.6,31.87-7.06,41-13.63c7.06-5.1,13.86-12,16.73-19.54s4.47-8.48,5-25,6.46-193.53,6.46-193.53l.9-27.7s1.21-19,19.31-22.63,53.39-4.65,57.26-4.73,57.63-.81,78.87-.12,42.1,2.07,60.57,5.07,33.32,5.12,49.71,23.15S500.92,310.3,504,329s11.7,84.78,11.7,84.78.41,34.63,25.56,48.65c31.74,17.69,61.16,6.76,75.65,1,8.86-3.51,33.39-17.59,47.2-36.28a126.4,126.4,0,0,0,21.23-48l17.58-115.92s4.8-21.47,24.22-22.89,44.06-1.41,44.06-1.41,20.7,5.75,21.9,27.6c.58,16.67,1.91,53.85,1.91,53.85l5.91,170.93s.5,22,11.46,32.89,16,15.66,29.3,17.9,37,7.77,37,7.77,6.84,2.88,6.84,14.17-.13,19.52-.13,19.52-1.8,12.93-12.88,12.93H140.71s-4.91.21-7.79-2"/><line class="cls-3" x1="132.28" y1="597.21" x2="71.21" y2="597.21"/><path class="cls-4" d="M879,597.21h71.2m-71.2,0H741.1"/><path class="cls-5" d="M921.44,578.52a8.08,8.08,0,0,0,1.49-.06,5.22,5.22,0,0,0,2.86-1.32,6,6,0,0,0,1.8-3.64h-.06a4.1,4.1,0,0,1-7.24-2.7,4.68,4.68,0,0,1,4.66-4.86c2.79,0,4.51,2.27,4.51,5.76a8.59,8.59,0,0,1-2.35,6.4,6.84,6.84,0,0,1-4,1.83,9,9,0,0,1-1.7.1Zm.67-7.85a2.63,2.63,0,0,0,2.63,2.9,3.07,3.07,0,0,0,2.69-1.43,1.27,1.27,0,0,0,.16-.67c0-2.33-.86-4.12-2.79-4.12C923.23,567.35,922.11,568.74,922.11,570.67Z"/><line class="cls-4" x1="884.92" y1="582.29" x2="884.92" y2="653.24"/><path class="cls-3" d="M696.8,302.13V191m105,293.64v49"/><path class="cls-5" d="M609.52,195.56v-3.72h-6.34v-1.22l6.09-8.71h2v8.48h1.91v1.45h-1.91v3.72Zm0-5.17v-4.55c0-.72,0-1.43.06-2.15h-.06c-.42.8-.76,1.39-1.14,2l-3.33,4.64v0Z"/><path class="cls-5" d="M618.59,183.63h-.05l-2.37,1.28-.35-1.41,3-1.59h1.57v13.65h-1.78Z"/><path class="cls-5" d="M625.49,194.46a1.25,1.25,0,0,1,1.26-1.32,1.33,1.33,0,0,1,0,2.65A1.24,1.24,0,0,1,625.49,194.46Z"/><path class="cls-5" d="M637.84,183.46h-5.21l-.52,3.51a7.26,7.26,0,0,1,1.11-.09,5.81,5.81,0,0,1,2.94.74,3.89,3.89,0,0,1,2,3.51c0,2.66-2.12,4.66-5.08,4.66a6.67,6.67,0,0,1-3.4-.84l.46-1.41a6.07,6.07,0,0,0,2.92.76,3,3,0,0,0,3.23-3c0-1.77-1.19-3-3.92-3a14.46,14.46,0,0,0-1.89.15l.88-6.55h6.53Z"/><path class="cls-5" d="M732.64,195.56v-1.14l1.45-1.4c3.49-3.32,5.06-5.09,5.08-7.14a2.44,2.44,0,0,0-2.71-2.67,4.62,4.62,0,0,0-2.89,1.16l-.59-1.31a6,6,0,0,1,3.86-1.38,3.84,3.84,0,0,1,4.18,4c0,2.52-1.83,4.55-4.7,7.32l-1.09,1v0h6.13v1.54Z"/><path class="cls-5" d="M743.41,195.56v-1.14l1.45-1.4c3.49-3.32,5.06-5.09,5.08-7.14a2.44,2.44,0,0,0-2.71-2.67,4.62,4.62,0,0,0-2.89,1.16l-.59-1.31a6,6,0,0,1,3.86-1.38,3.84,3.84,0,0,1,4.18,4c0,2.52-1.83,4.55-4.7,7.32L746,194v0h6.13v1.54Z"/><path class="cls-5" d="M754.33,194.46a1.25,1.25,0,1,1,1.24,1.33A1.24,1.24,0,0,1,754.33,194.46Z"/><path class="cls-5" d="M759,193.44a6.25,6.25,0,0,0,3,.86c2.38,0,3.11-1.52,3.09-2.65,0-1.91-1.74-2.73-3.53-2.73h-1v-1.38h1c1.35,0,3.05-.7,3.05-2.31,0-1.1-.7-2.06-2.4-2.06a5,5,0,0,0-2.73.9l-.48-1.34a6.46,6.46,0,0,1,3.57-1c2.69,0,3.91,1.59,3.91,3.25a3.38,3.38,0,0,1-2.52,3.21v.05a3.54,3.54,0,0,1,3,3.5c0,2.19-1.7,4.1-5,4.1a6.92,6.92,0,0,1-3.55-.93Z"/><path class="cls-5" d="M338.13,183.46h-5.2L332.4,187a7.5,7.5,0,0,1,1.11-.09,5.81,5.81,0,0,1,2.94.74,3.89,3.89,0,0,1,2,3.51c0,2.66-2.12,4.66-5.08,4.66a6.69,6.69,0,0,1-3.41-.84l.47-1.41a6,6,0,0,0,2.91.76,3,3,0,0,0,3.24-3c0-1.77-1.2-3-3.93-3a14.62,14.62,0,0,0-1.89.15l.88-6.55h6.53Z"/><path class="cls-5" d="M348.55,183.21a7,7,0,0,0-1.39.08,5.57,5.57,0,0,0-4.75,4.85h.07a4.05,4.05,0,0,1,3.29-1.57c2.42,0,4.12,1.74,4.12,4.41a4.56,4.56,0,0,1-4.54,4.81c-2.91,0-4.82-2.27-4.82-5.82a8.58,8.58,0,0,1,2.3-6.15,7.48,7.48,0,0,1,4.37-2,9.38,9.38,0,0,1,1.35-.1Zm-.53,7.87c0-2-1.11-3.12-2.81-3.12a3,3,0,0,0-2.65,1.68,1.61,1.61,0,0,0-.21.81c0,2.25,1.07,3.91,3,3.91C347,194.36,348,193,348,191.08Z"/><path class="cls-5" d="M351.67,194.46a1.25,1.25,0,0,1,1.26-1.32,1.33,1.33,0,0,1,0,2.65A1.24,1.24,0,0,1,351.67,194.46Z"/><path class="cls-5" d="M355.87,195.56v-1.14l1.45-1.4c3.49-3.32,5.06-5.09,5.08-7.14a2.44,2.44,0,0,0-2.71-2.67,4.6,4.6,0,0,0-2.89,1.16l-.59-1.31a6,6,0,0,1,3.86-1.38,3.84,3.84,0,0,1,4.18,4c0,2.52-1.83,4.55-4.7,7.32l-1.1,1v0h6.13v1.54Z"/><path class="cls-5" d="M270,225.91v-1.13l1.45-1.41c3.48-3.32,5.06-5.08,5.08-7.14a2.43,2.43,0,0,0-2.71-2.66,4.68,4.68,0,0,0-2.9,1.15l-.59-1.3a6,6,0,0,1,3.87-1.39,3.84,3.84,0,0,1,4.18,4c0,2.52-1.83,4.56-4.71,7.33l-1.09,1v0h6.13v1.53Z"/><path class="cls-5" d="M281.22,223.79a6.1,6.1,0,0,0,3,.86c2.37,0,3.11-1.51,3.09-2.64,0-1.91-1.74-2.73-3.53-2.73h-1v-1.39h1c1.34,0,3.05-.69,3.05-2.31,0-1.09-.7-2.06-2.4-2.06a5,5,0,0,0-2.73.91l-.48-1.35a6.52,6.52,0,0,1,3.57-1.05c2.69,0,3.9,1.6,3.9,3.26a3.39,3.39,0,0,1-2.52,3.21v0a3.57,3.57,0,0,1,3.05,3.51c0,2.18-1.7,4.09-5,4.09a7,7,0,0,1-3.55-.92Z"/><path class="cls-5" d="M290.94,228.49a30.05,30.05,0,0,0,1.26-5l2.06-.21a26.05,26.05,0,0,1-2,5.1Z"/><path class="cls-5" d="M304.75,212.26v1.22l-5.94,12.43H296.9l5.92-12.07v0h-6.68v-1.54Z"/><line class="cls-6" x1="732.51" y1="238.93" x2="760.2" y2="238.93"/><path class="cls-3" d="M777.73,238.93h213.6M879,597.21H991.33m-160.4-358.4H22.33m123.84,358.4H22.33M500.54,303.66V191M218.35,278.17V140.48M879,597.21H342.16"/><path class="cls-5" d="M12.33,427.2h1.22L26,433.14v1.91l-12.07-5.92h-.05v6.68H12.33Z"/><path class="cls-5" d="M26,425.29H24.84l-1.4-1.45c-3.32-3.48-5.08-5.06-7.14-5.08a2.44,2.44,0,0,0-2.67,2.71,4.63,4.63,0,0,0,1.16,2.9l-1.3.59a6,6,0,0,1-1.39-3.87,3.84,3.84,0,0,1,4-4.18c2.52,0,4.55,1.83,7.33,4.71l1,1.09h.05v-6.13H26Z"/><path class="cls-5" d="M958.45,427.2h1.22l12.43,5.94v1.91L960,429.13h0v6.68h-1.53Z"/><path class="cls-5" d="M972.1,425.29H971l-1.4-1.45c-3.32-3.48-5.09-5.06-7.14-5.08a2.44,2.44,0,0,0-2.67,2.71,4.68,4.68,0,0,0,1.15,2.9l-1.3.59a6,6,0,0,1-1.38-3.87,3.84,3.84,0,0,1,4-4.18c2.52,0,4.55,1.83,7.32,4.71l1,1.09h0v-6.13h1.54Z"/><path class="cls-5" d="M567.46,357.52h-3.71v6.34h-1.22l-8.71-6.09v-2h8.48v-1.91h1.45v1.91h3.71Zm-5.16,0h-4.56c-.71,0-1.42,0-2.14-.06v.06c.8.42,1.39.76,2,1.14l4.64,3.33h0Z"/><path class="cls-5" d="M555.37,344.32v5.2l3.51.53a7.5,7.5,0,0,1-.09-1.11,5.71,5.71,0,0,1,.74-2.94,3.89,3.89,0,0,1,3.5-2c2.67,0,4.67,2.12,4.67,5.08a6.69,6.69,0,0,1-.84,3.41l-1.41-.47a6,6,0,0,0,.76-2.91,3,3,0,0,0-3-3.24c-1.76,0-3,1.2-3,3.93a14.62,14.62,0,0,0,.15,1.89l-6.55-.88v-6.53Z"/><path class="cls-5" d="M570.05,342.3a30.43,30.43,0,0,0-5-1.26l-.21-2.05a25.48,25.48,0,0,1,5.1,2Z"/><path class="cls-5" d="M566.16,336.28a7.28,7.28,0,0,0-.06-1.49,5.22,5.22,0,0,0-1.32-2.86,6,6,0,0,0-3.64-1.8v.06a4.1,4.1,0,0,1-2.7,7.24,4.68,4.68,0,0,1-4.85-4.66c0-2.79,2.26-4.51,5.75-4.51a8.59,8.59,0,0,1,6.4,2.35,6.84,6.84,0,0,1,1.83,4,8.25,8.25,0,0,1,.1,1.7Zm-7.85-.67a2.63,2.63,0,0,0,2.9-2.63,3.07,3.07,0,0,0-1.43-2.69,1.27,1.27,0,0,0-.67-.16c-2.33,0-4.12.86-4.12,2.79C555,334.49,556.38,335.61,558.31,335.61Z"/><line class="cls-3" x1="126.3" y1="582.29" x2="126.3" y2="699.12"/><path class="cls-6" d="M777.73,238.93H732.51l-5.42.34c-19.42,1.41-24.22,22.89-24.22,22.89l-17.6,116.93"/><path class="cls-3" d="M884.92,582.29V748.94M126.3,582.29V748.94M793.07,265.71V140.48M800,450.88V140.48M211.84,532.9V140.48"/><path class="cls-5" d="M484.27,134.47h0l-2.37,1.28-.35-1.41,3-1.59h1.57v13.64h-1.78Z"/><path class="cls-5" d="M491,146.39v-1.13l1.44-1.41c3.49-3.31,5.06-5.08,5.09-7.13a2.44,2.44,0,0,0-2.71-2.67,4.68,4.68,0,0,0-2.9,1.15l-.59-1.3a6,6,0,0,1,3.87-1.38,3.83,3.83,0,0,1,4.17,4c0,2.52-1.82,4.56-4.7,7.33l-1.09,1v0h6.13v1.53Z"/><path class="cls-5" d="M510.87,139.42c0,4.64-1.73,7.21-4.75,7.21-2.67,0-4.47-2.5-4.51-7s2-7.09,4.74-7.09S510.87,135.08,510.87,139.42Zm-7.42.21c0,3.55,1.1,5.57,2.78,5.57,1.88,0,2.79-2.21,2.79-5.69s-.86-5.57-2.77-5.57C504.63,133.94,503.45,135.92,503.45,139.63Z"/><path class="cls-5" d="M154.44,146.39v-1.13l1.45-1.41c3.48-3.31,5.06-5.08,5.08-7.13a2.44,2.44,0,0,0-2.71-2.67,4.68,4.68,0,0,0-2.9,1.15l-.59-1.3a6,6,0,0,1,3.87-1.38,3.84,3.84,0,0,1,4.18,4c0,2.52-1.83,4.56-4.71,7.33l-1.09,1v0h6.13v1.53Z"/><path class="cls-5" d="M165.21,146.39v-1.13l1.45-1.41c3.48-3.31,5.06-5.08,5.08-7.13a2.44,2.44,0,0,0-2.71-2.67,4.68,4.68,0,0,0-2.9,1.15l-.59-1.3a6,6,0,0,1,3.87-1.38,3.83,3.83,0,0,1,4.17,4c0,2.52-1.82,4.56-4.7,7.33l-1.09,1v0h6.13v1.53Z"/><path class="cls-5" d="M484.27,719.77h0l-2.37,1.28-.35-1.41,3-1.59h1.57v13.64h-1.78Z"/><path class="cls-5" d="M499.17,719.6H494l-.53,3.51a7.5,7.5,0,0,1,1.11-.09,5.71,5.71,0,0,1,2.94.74,3.89,3.89,0,0,1,2,3.5c0,2.67-2.13,4.67-5.09,4.67a6.67,6.67,0,0,1-3.4-.84l.46-1.41a6.2,6.2,0,0,0,2.92.75,3,3,0,0,0,3.24-3c0-1.76-1.2-3-3.93-3a12.9,12.9,0,0,0-1.89.15l.88-6.55h6.53Z"/><path class="cls-5" d="M509.58,719.35a7,7,0,0,0-1.38.08,5.57,5.57,0,0,0-4.75,4.85h.07a4.05,4.05,0,0,1,3.29-1.57c2.42,0,4.12,1.74,4.12,4.41a4.56,4.56,0,0,1-4.54,4.81c-2.92,0-4.83-2.27-4.83-5.82a8.58,8.58,0,0,1,2.31-6.15,7.42,7.42,0,0,1,4.37-2,9.35,9.35,0,0,1,1.34-.1Zm-.52,7.87c0-2-1.11-3.13-2.81-3.13a3,3,0,0,0-2.65,1.68,1.55,1.55,0,0,0-.21.82c0,2.25,1.07,3.91,3,3.91C508,730.5,509.06,729.18,509.06,727.22Z"/><path class="cls-5" d="M645.35,637.81a3.89,3.89,0,0,1,2.71-3.65l0-.07a3.38,3.38,0,0,1-2.16-3.06c0-2.16,1.82-3.63,4.22-3.63,2.64,0,4,1.65,4,3.36a3.48,3.48,0,0,1-2.25,3.19V634a3.78,3.78,0,0,1,2.75,3.53c0,2.37-2,4-4.64,4C647.07,641.51,645.35,639.8,645.35,637.81Zm7.35-.08c0-1.66-1.15-2.46-3-3a3,3,0,0,0-2.46,2.81,2.53,2.53,0,0,0,2.73,2.6A2.47,2.47,0,0,0,652.7,637.73Zm-5.08-6.83c0,1.37,1,2.1,2.6,2.52a2.69,2.69,0,0,0,2.08-2.48,2.12,2.12,0,0,0-2.31-2.22A2.17,2.17,0,0,0,647.62,630.9Z"/><path class="cls-5" d="M660.3,629.35h0l-2.37,1.28-.36-1.41,3-1.59h1.57v13.64H660.3Z"/><path class="cls-5" d="M666.45,643.86a30.43,30.43,0,0,0,1.26-5l2.06-.21a26.05,26.05,0,0,1-2,5.1Z"/><path class="cls-5" d="M679.19,628.93a7,7,0,0,0-1.38.08,5.57,5.57,0,0,0-4.75,4.85h.07a4.05,4.05,0,0,1,3.29-1.57c2.42,0,4.12,1.74,4.12,4.41a4.56,4.56,0,0,1-4.54,4.81c-2.92,0-4.83-2.27-4.83-5.82a8.58,8.58,0,0,1,2.31-6.15,7.48,7.48,0,0,1,4.37-2,9.35,9.35,0,0,1,1.34-.1Zm-.52,7.87c0-1.95-1.11-3.13-2.81-3.13a3,3,0,0,0-2.65,1.68,1.55,1.55,0,0,0-.21.82c0,2.25,1.07,3.91,3,3.91C677.6,640.08,678.67,638.76,678.67,636.8Z"/><path class="cls-5" d="M863.81,477.65a19,19,0,0,1,3.51-.29c1.95,0,3.21.35,4.09,1.15a3.54,3.54,0,0,1,1.11,2.69,3.7,3.7,0,0,1-2.66,3.61v.06a3.52,3.52,0,0,1,2.07,2.86,22.31,22.31,0,0,0,1.1,3.88h-1.89a18.21,18.21,0,0,1-.95-3.38c-.42-2-1.17-2.69-2.83-2.75h-1.72v6.13h-1.83Zm1.83,6.45h1.86c2,0,3.2-1.07,3.2-2.69,0-1.83-1.33-2.63-3.26-2.65a7.63,7.63,0,0,0-1.8.17Z"/><path class="cls-5" d="M878.74,488.15a3.89,3.89,0,0,1,2.71-3.65l0-.07a3.38,3.38,0,0,1-2.16-3.06c0-2.17,1.83-3.64,4.22-3.64,2.65,0,4,1.66,4,3.36a3.46,3.46,0,0,1-2.25,3.19v.07a3.78,3.78,0,0,1,2.75,3.53c0,2.37-2,4-4.64,4C880.46,491.84,878.74,490.14,878.74,488.15Zm7.35-.09c0-1.65-1.16-2.45-3-3a3,3,0,0,0-2.45,2.82,2.52,2.52,0,0,0,2.73,2.6A2.48,2.48,0,0,0,886.09,488.06ZM881,481.24c0,1.37,1,2.1,2.61,2.52a2.7,2.7,0,0,0,2.08-2.48,2.12,2.12,0,0,0-2.31-2.22A2.17,2.17,0,0,0,881,481.24Z"/><path class="cls-5" d="M522.2,507.27a19.05,19.05,0,0,1,3.51-.29c1.95,0,3.21.35,4.09,1.15a3.52,3.52,0,0,1,1.12,2.69,3.71,3.71,0,0,1-2.67,3.61v.06a3.55,3.55,0,0,1,2.08,2.86,22.62,22.62,0,0,0,1.09,3.88h-1.89a18.24,18.24,0,0,1-.94-3.38c-.42-2-1.18-2.68-2.84-2.75H524v6.13H522.2Zm1.83,6.45h1.87c2,0,3.19-1.07,3.19-2.69,0-1.83-1.32-2.62-3.25-2.65a7.66,7.66,0,0,0-1.81.17Z"/><path class="cls-5" d="M541.31,509.31h0l-2.38,1.28-.35-1.41,3-1.59h1.57v13.64h-1.78Z"/><path class="cls-5" d="M548.07,521.23V520.1l1.45-1.41c3.48-3.31,5.06-5.08,5.08-7.14a2.43,2.43,0,0,0-2.71-2.66A4.68,4.68,0,0,0,549,510l-.59-1.3a6,6,0,0,1,3.87-1.39,3.84,3.84,0,0,1,4.17,4c0,2.52-1.82,4.56-4.7,7.33l-1.09,1v0h6.13v1.53Z"/><line class="cls-6" x1="884.92" y1="582.29" x2="884.92" y2="562.73"/><polygon class="cls-5" points="941.1 551.35 936.36 570.31 945.84 570.31 941.1 551.35"/><polygon class="cls-5" points="941.1 597.27 945.84 578.3 936.36 578.3 941.1 597.27"/><line class="cls-3" x1="82.24" y1="587.93" x2="82.24" y2="562.65"/><path class="cls-5" d="M63,578.52a8.18,8.18,0,0,0,1.5-.06,5.19,5.19,0,0,0,2.85-1.32,6.07,6.07,0,0,0,1.81-3.64h-.07a4.1,4.1,0,0,1-7.24-2.7,4.68,4.68,0,0,1,4.66-4.86c2.79,0,4.52,2.27,4.52,5.76a8.59,8.59,0,0,1-2.36,6.4,6.81,6.81,0,0,1-4,1.83A9.12,9.12,0,0,1,63,580Zm.68-7.85a2.63,2.63,0,0,0,2.62,2.9A3.05,3.05,0,0,0,69,572.14a1.27,1.27,0,0,0,.17-.67c0-2.33-.86-4.12-2.8-4.12C64.79,567.35,63.68,568.74,63.68,570.67Z"/><polygon class="cls-5" points="82.24 551.35 77.5 570.31 86.98 570.31 82.24 551.35"/><polygon class="cls-5" points="82.24 597.27 86.98 578.3 77.5 578.3 82.24 597.27"/><line class="cls-3" x1="271.06" y1="581.77" x2="271.06" y2="541.7"/><path class="cls-5" d="M279.21,561h0l-2.37,1.29-.36-1.41,3-1.6H281V573h-1.78Z"/><path class="cls-5" d="M286,573v-1.13l1.44-1.41c3.49-3.32,5.06-5.08,5.09-7.14a2.44,2.44,0,0,0-2.71-2.67,4.63,4.63,0,0,0-2.9,1.16l-.59-1.3a6,6,0,0,1,3.86-1.39,3.84,3.84,0,0,1,4.18,4c0,2.52-1.82,4.56-4.7,7.33l-1.09,1v0h6.13V573Z"/><path class="cls-5" d="M296.88,571.86a1.24,1.24,0,0,1,1.26-1.32,1.32,1.32,0,0,1,0,2.64A1.24,1.24,0,0,1,296.88,571.86Z"/><path class="cls-5" d="M300.91,569.49a3.91,3.91,0,0,1,2.71-3.66l0-.06a3.38,3.38,0,0,1-2.16-3.07c0-2.16,1.82-3.63,4.22-3.63,2.64,0,4,1.66,4,3.36a3.46,3.46,0,0,1-2.25,3.19v.07a3.77,3.77,0,0,1,2.75,3.52c0,2.38-2,4-4.64,4C302.63,573.18,300.91,571.48,300.91,569.49Zm7.35-.09c0-1.66-1.15-2.45-3-3a3,3,0,0,0-2.46,2.81,2.53,2.53,0,0,0,2.73,2.61A2.47,2.47,0,0,0,308.26,569.4Zm-5.08-6.82c0,1.36,1,2.1,2.6,2.52a2.69,2.69,0,0,0,2.08-2.48,2.12,2.12,0,0,0-2.31-2.23A2.17,2.17,0,0,0,303.18,562.58Z"/><polygon class="cls-5" points="271.06 534.1 266.32 553.07 275.8 553.07 271.06 534.1"/><polygon class="cls-5" points="271.06 597.27 275.8 578.3 266.32 578.3 271.06 597.27"/><line class="cls-3" x1="772.37" y1="581.77" x2="772.37" y2="541.7"/><path class="cls-5" d="M780.52,561h0l-2.37,1.29-.35-1.41,3-1.6h1.57V573h-1.78Z"/><path class="cls-5" d="M787.28,573v-1.13l1.44-1.41c3.49-3.32,5.06-5.08,5.09-7.14a2.44,2.44,0,0,0-2.71-2.67,4.63,4.63,0,0,0-2.9,1.16l-.59-1.3a6,6,0,0,1,3.87-1.39,3.84,3.84,0,0,1,4.17,4c0,2.52-1.82,4.56-4.7,7.33l-1.09,1v0H796V573Z"/><path class="cls-5" d="M798.19,571.86a1.24,1.24,0,0,1,1.26-1.32,1.32,1.32,0,0,1,0,2.64A1.24,1.24,0,0,1,798.19,571.86Z"/><path class="cls-5" d="M802.22,569.49a3.91,3.91,0,0,1,2.71-3.66l0-.06a3.38,3.38,0,0,1-2.16-3.07c0-2.16,1.82-3.63,4.22-3.63,2.64,0,4,1.66,4,3.36a3.46,3.46,0,0,1-2.25,3.19v.07a3.77,3.77,0,0,1,2.75,3.52c0,2.38-2,4-4.64,4C803.94,573.18,802.22,571.48,802.22,569.49Zm7.35-.09c0-1.66-1.15-2.45-3-3a3,3,0,0,0-2.46,2.81,2.53,2.53,0,0,0,2.73,2.61A2.47,2.47,0,0,0,809.57,569.4Zm-5.08-6.82c0,1.36,1,2.1,2.6,2.52a2.69,2.69,0,0,0,2.08-2.48,2.12,2.12,0,0,0-2.31-2.23A2.17,2.17,0,0,0,804.49,562.58Z"/><polygon class="cls-5" points="772.37 534.1 767.63 553.07 777.11 553.07 772.37 534.1"/><polygon class="cls-5" points="772.37 597.27 777.11 578.3 767.63 578.3 772.37 597.27"/><line class="cls-3" x1="528" y1="475.3" x2="508.94" y2="521.04"/><polygon class="cls-5" points="534.89 458.75 523.09 474.33 531.81 478.05 534.89 458.75"/><path class="cls-5" d="M693.09,480.61a18.79,18.79,0,0,1,3.5-.3c2,0,3.22.36,4.1,1.16a3.52,3.52,0,0,1,1.11,2.68,3.71,3.71,0,0,1-2.67,3.61v.07a3.5,3.5,0,0,1,2.08,2.85,22.83,22.83,0,0,0,1.09,3.89h-1.89a18.78,18.78,0,0,1-.94-3.38c-.42-2-1.18-2.69-2.83-2.75h-1.73v6.13h-1.82Zm1.82,6.44h1.87c2,0,3.19-1.07,3.19-2.69,0-1.82-1.32-2.62-3.25-2.64a7.27,7.27,0,0,0-1.81.17Z"/><path class="cls-5" d="M708.18,494.57v-1.14l1.45-1.4c3.48-3.32,5.06-5.08,5.08-7.14a2.44,2.44,0,0,0-2.71-2.67,4.63,4.63,0,0,0-2.9,1.16l-.58-1.3a6,6,0,0,1,3.86-1.39,3.84,3.84,0,0,1,4.18,4c0,2.52-1.83,4.55-4.71,7.33l-1.09,1v0h6.13v1.54Z"/><path class="cls-5" d="M724.66,494.57v-3.72h-6.34v-1.22l6.09-8.71h2v8.48h1.91v1.45H726.4v3.72Zm0-5.17v-4.55c0-.72,0-1.43.06-2.15h-.06c-.42.8-.75,1.39-1.13,2l-3.34,4.64v0Z"/><line class="cls-3" x1="688.17" y1="493.64" x2="669.1" y2="447.9"/><polygon class="cls-5" points="662.22 431.35 674.02 446.93 665.3 450.65 662.22 431.35"/><line class="cls-3" x1="152.65" y1="152.42" x2="855.37" y2="152.42"/><polygon class="cls-5" points="235.24 156.84 218.03 152.23 235.24 147.62 235.24 156.84"/><polygon class="cls-5" points="816.11 156.84 798.91 152.23 816.11 147.62 816.11 156.84"/><polygon class="cls-5" points="774.71 156.84 791.92 152.23 774.71 147.62 774.71 156.84"/><polygon class="cls-5" points="195.16 156.84 212.36 152.23 195.16 147.62 195.16 156.84"/><line class="cls-3" x1="140.36" y1="742.84" x2="870.86" y2="742.84"/><polygon class="cls-5" points="126.3 742.65 143.51 747.26 143.51 738.03 126.3 742.65"/><polygon class="cls-5" points="867.71 747.26 884.92 742.65 867.71 738.03 867.71 747.26"/><path class="cls-3" d="M230.92,228.44H339.25M230.92,203.26H486.48"/><polygon class="cls-5" points="235.38 207.68 218.17 203.07 235.38 198.46 235.38 207.68"/><polygon class="cls-5" points="235.38 233.6 218.17 228.99 235.38 224.38 235.38 233.6"/><polygon class="cls-5" points="335.17 224.38 352.37 228.98 335.17 233.6 335.17 224.38"/><polygon class="cls-5" points="483.34 207.68 500.54 203.07 483.34 198.46 483.34 207.68"/><path class="cls-3" d="M500.16,302.54H696.41M514.6,203.26H682.73"/><polygon class="cls-5" points="517.75 207.68 500.54 203.07 517.75 198.46 517.75 207.68"/><line class="cls-3" x1="711.1" y1="203.26" x2="784.28" y2="203.26"/><polygon class="cls-5" points="714.24 207.68 697.04 203.07 714.24 198.46 714.24 207.68"/><polygon class="cls-5" points="679.59 207.68 696.79 203.07 679.59 198.46 679.59 207.68"/><polygon class="cls-5" points="775.16 207.68 792.37 203.07 775.16 198.46 775.16 207.68"/><line class="cls-3" x1="488.89" y1="647.74" x2="871.91" y2="647.74"/><polygon class="cls-5" points="505.13 652.16 487.92 647.55 505.13 642.94 505.13 652.16"/><polygon class="cls-5" points="867.78 652.16 884.98 647.55 867.78 642.94 867.78 652.16"/><line class="cls-3" x1="32.1" y1="581.81" x2="32.1" y2="253.13"/><polygon class="cls-5" points="36.51 578.67 31.91 595.87 27.29 578.67 36.51 578.67"/><polygon class="cls-5" points="36.51 256.27 31.91 239.07 27.29 256.27 36.51 256.27"/><path class="cls-5" d="M122.41,354.16h-3.72v6.34h-1.22l-8.71-6.09v-2h8.48v-1.91h1.45v1.91h3.72Zm-5.17,0h-4.56c-.71,0-1.42,0-2.14-.06v.06c.8.42,1.39.76,2,1.13l4.64,3.34h0Z"/><path class="cls-5" d="M110.48,345.09v0l1.28,2.38-1.41.35-1.59-3v-1.57h13.65v1.78Z"/><path class="cls-5" d="M121.31,338.19a1.25,1.25,0,0,1-1.32-1.26,1.33,1.33,0,0,1,2.65,0A1.24,1.24,0,0,1,121.31,338.19Z"/><path class="cls-5" d="M108.76,325.12H110l12.43,5.95V333l-12.07-5.92h0v6.67h-1.53Z"/><line class="cls-3" x1="128.53" y1="447.82" x2="128.53" y2="253.13"/><polygon class="cls-5" points="132.94 431.05 128.34 448.25 123.72 431.05 132.94 431.05"/><polygon class="cls-5" points="132.94 256.27 128.34 239.07 123.72 256.27 132.94 256.27"/><line class="cls-3" x1="981.85" y1="584.11" x2="981.85" y2="252.99"/><polygon class="cls-5" points="986.27 580.97 981.66 598.17 977.05 580.97 986.27 580.97"/><polygon class="cls-5" points="986.27 256.13 981.66 238.93 977.05 256.13 986.27 256.13"/><polygon class="cls-5" points="579.13 455.56 574.53 472.76 569.91 455.56 579.13 455.56"/><polygon class="cls-5" points="579.13 255.23 574.53 238.02 569.91 255.23 579.13 255.23"/><line class="cls-3" x1="351.64" y1="612.13" x2="351.64" y2="598.17"/><line class="cls-7" x1="351.64" y1="570.41" x2="351.64" y2="251.22"/><line class="cls-3" x1="351.64" y1="237.34" x2="351.64" y2="223.38"/><polygon class="cls-5" points="819.44 528.04 836.2 517.98 829.5 511.28 819.44 528.04"/><line class="cls-8" x1="828.46" y1="518.09" x2="857.1" y2="489.46"/><path class="cls-5" d="M836.16,214a19,19,0,0,1,3.51-.29c2,0,3.21.35,4.09,1.15a3.51,3.51,0,0,1,1.11,2.69,3.7,3.7,0,0,1-2.66,3.61v.06a3.55,3.55,0,0,1,2.08,2.86,21.69,21.69,0,0,0,1.09,3.88h-1.89a18.21,18.21,0,0,1-1-3.38c-.42-2-1.17-2.69-2.83-2.75H838V228h-1.83Zm1.83,6.45h1.87c1.95,0,3.19-1.08,3.19-2.69,0-1.83-1.32-2.63-3.26-2.65a7.63,7.63,0,0,0-1.8.17Z"/><path class="cls-5" d="M859,215.65a7,7,0,0,0-1.38.08,5.55,5.55,0,0,0-4.75,4.85H853a4.16,4.16,0,0,1,7.41,2.83,4.56,4.56,0,0,1-4.54,4.81c-2.92,0-4.83-2.26-4.83-5.81a8.58,8.58,0,0,1,2.31-6.15,7.42,7.42,0,0,1,4.37-2,9.62,9.62,0,0,1,1.34-.11Zm-.52,7.87c0-2-1.11-3.13-2.81-3.13a3,3,0,0,0-2.65,1.68,1.53,1.53,0,0,0-.21.82c0,2.25,1.07,3.91,3,3.91C857.45,226.8,858.52,225.47,858.52,223.52Z"/><path class="cls-5" d="M635.74,214a18.86,18.86,0,0,1,3.5-.29c2,0,3.21.35,4.1,1.15a3.54,3.54,0,0,1,1.11,2.69,3.71,3.71,0,0,1-2.67,3.61v.06a3.55,3.55,0,0,1,2.08,2.86A22.62,22.62,0,0,0,645,228h-1.89a18.51,18.51,0,0,1-.94-3.38c-.42-2-1.18-2.69-2.84-2.75h-1.72V228h-1.82Zm1.82,6.45h1.87c2,0,3.19-1.08,3.19-2.69,0-1.83-1.32-2.63-3.25-2.65a7.8,7.8,0,0,0-1.81.17Z"/><path class="cls-5" d="M658.62,215.65a7.05,7.05,0,0,0-1.39.08,5.53,5.53,0,0,0-4.74,4.85h.06a4.06,4.06,0,0,1,3.3-1.57c2.41,0,4.11,1.74,4.11,4.4a4.56,4.56,0,0,1-4.53,4.81c-2.92,0-4.83-2.26-4.83-5.81a8.54,8.54,0,0,1,2.31-6.15,7.37,7.37,0,0,1,4.36-2,9.63,9.63,0,0,1,1.35-.11Zm-.53,7.87c0-2-1.11-3.13-2.81-3.13a3.05,3.05,0,0,0-2.65,1.68,1.62,1.62,0,0,0-.21.82c.05,2.25,1.08,3.91,3,3.91C657,226.8,658.09,225.47,658.09,223.52Z"/><polygon class="cls-5" points="791.79 260.48 808.56 250.42 801.85 243.72 791.79 260.48"/><line class="cls-8" x1="800.82" y1="250.53" x2="829.45" y2="221.9"/><path class="cls-5" d="M924.88,500.23a18.86,18.86,0,0,1,3.5-.29c2,0,3.22.36,4.1,1.15a3.54,3.54,0,0,1,1.11,2.69,3.7,3.7,0,0,1-2.67,3.61v.06a3.51,3.51,0,0,1,2.08,2.86,22.31,22.31,0,0,0,1.1,3.88h-1.89a17.17,17.17,0,0,1-1-3.38c-.42-1.95-1.18-2.68-2.83-2.75H926.7v6.13h-1.82Zm1.82,6.45h1.87c2,0,3.19-1.07,3.19-2.69,0-1.83-1.32-2.62-3.25-2.65a7.8,7.8,0,0,0-1.81.17Z"/><path class="cls-5" d="M940.41,512.07a6.15,6.15,0,0,0,3,.86c2.37,0,3.1-1.51,3.08-2.64,0-1.91-1.74-2.73-3.53-2.73h-1v-1.39h1c1.35,0,3-.69,3-2.31,0-1.09-.69-2.05-2.39-2.05a5,5,0,0,0-2.73.9l-.49-1.34a6.46,6.46,0,0,1,3.57-1.05c2.69,0,3.91,1.59,3.91,3.25a3.38,3.38,0,0,1-2.52,3.21v.05a3.54,3.54,0,0,1,3,3.5c0,2.18-1.7,4.1-5,4.1a6.92,6.92,0,0,1-3.55-.93Z"/><polygon class="cls-5" points="880.51 550.63 897.27 540.57 890.57 533.87 880.51 550.63"/><line class="cls-8" x1="889.54" y1="540.68" x2="918.17" y2="512.05"/><path class="cls-5" d="M156.34,213a19,19,0,0,1,3.51-.29c2,0,3.21.36,4.09,1.15a3.51,3.51,0,0,1,1.11,2.69,3.7,3.7,0,0,1-2.66,3.61v.07a3.52,3.52,0,0,1,2.08,2.85,22.17,22.17,0,0,0,1.09,3.89h-1.89a18.47,18.47,0,0,1-.95-3.38c-.42-2-1.17-2.69-2.83-2.76h-1.72V227h-1.83Zm1.83,6.45H160c2,0,3.19-1.07,3.19-2.69,0-1.83-1.33-2.62-3.26-2.64a7.8,7.8,0,0,0-1.8.16Z"/><path class="cls-5" d="M179.58,214.91h-5.2l-.53,3.51a7.5,7.5,0,0,1,1.11-.09,5.81,5.81,0,0,1,2.94.74,3.89,3.89,0,0,1,2,3.51c0,2.66-2.13,4.66-5.09,4.66a6.67,6.67,0,0,1-3.4-.84l.46-1.41a6.07,6.07,0,0,0,2.92.76,3,3,0,0,0,3.24-3c0-1.77-1.2-3-3.93-3a14.46,14.46,0,0,0-1.89.15l.88-6.55h6.53Z"/><polygon class="cls-5" points="220.23 263.44 203.47 253.38 210.17 246.68 220.23 263.44"/><line class="cls-8" x1="211.2" y1="253.49" x2="182.57" y2="224.86"/><polygon class="cls-5" points="703.22 263.44 686.45 253.38 693.16 246.68 703.22 263.44"/><line class="cls-8" x1="694.19" y1="253.49" x2="665.56" y2="224.86"/><path class="cls-5" d="M65.35,500.23a18.94,18.94,0,0,1,3.5-.29c2,0,3.22.36,4.1,1.15a3.54,3.54,0,0,1,1.11,2.69,3.7,3.7,0,0,1-2.66,3.61v.06a3.52,3.52,0,0,1,2.07,2.86,22.31,22.31,0,0,0,1.1,3.88H72.68a18,18,0,0,1-1-3.38c-.42-1.95-1.17-2.68-2.83-2.75H67.18v6.13H65.35Zm1.83,6.45H69c2,0,3.2-1.07,3.2-2.69,0-1.83-1.33-2.62-3.26-2.65a7.63,7.63,0,0,0-1.8.17Z"/><path class="cls-5" d="M80.88,512.07a6.18,6.18,0,0,0,3,.86c2.37,0,3.1-1.51,3.08-2.64,0-1.91-1.74-2.73-3.52-2.73h-1v-1.39h1c1.34,0,3-.69,3-2.31,0-1.09-.69-2.05-2.39-2.05a5,5,0,0,0-2.73.9l-.49-1.34a6.46,6.46,0,0,1,3.57-1.05c2.69,0,3.91,1.59,3.91,3.25a3.38,3.38,0,0,1-2.52,3.21v.05a3.54,3.54,0,0,1,3,3.5c0,2.18-1.7,4.1-5,4.1a6.92,6.92,0,0,1-3.55-.93Z"/><polygon class="cls-5" points="134.47 550.63 117.71 540.57 124.41 533.87 134.47 550.63"/><line class="cls-8" x1="125.45" y1="540.68" x2="96.82" y2="512.05"/><path class="cls-3" d="M574.52,471.24V250.4M802.63,533.89l67,13.49m-724.57,0,67-13.49m524.74-.35h65.24m-591.73,0h65.24m604.16,17H945m-3.87,39.58V564.74m-870-14.17h65.24"/><line class="cls-3" x1="884.25" y1="447.77" x2="870.28" y2="447.77"/><line class="cls-9" x1="843.24" y1="447.77" x2="153.48" y2="447.77"/><line class="cls-3" x1="139.95" y1="447.77" x2="125.99" y2="447.77"/><path class="cls-1" d="M685.89,374.88a113.65,113.65,0,0,1-112.48,97.45m0,0a56.85,56.85,0,0,1-54.36-40.24,64.52,64.52,0,0,1-2-8.93"/><line class="cls-3" x1="487.56" y1="274.22" x2="487.56" y2="288.19"/><line class="cls-10" x1="487.56" y1="318.16" x2="487.56" y2="662.91"/><line class="cls-3" x1="487.56" y1="677.9" x2="487.56" y2="691.86"/><path class="cls-1" d="M768.66,239.13c19.43,1.42,24.22,22.89,24.22,22.89l.45,1.78c.65,20.63,1.63,56.53,1.63,56.53l5.91,170.93s.5,22,11.46,32.89,16,15.66,29.3,17.9,37,7.77,37,7.77,6.84,2.88,6.84,14.17-.13,19.52-.13,19.52-1.8,12.93-12.88,12.93H140.71s-4.91.21-7.79-2c-5.67-4.33-7.34-8.1-7.34-12.86s-.09-20,.61-21.85,3.21-6.6,5.79-8,7.5-2.74,16.48-4.61,31.87-7.05,41-13.62c7.06-5.1,13.86-12,16.73-19.54s4.47-8.48,5-25,6.46-193.53,6.46-193.53l.9-27.7s1.21-19,19.31-22.63,53.39-4.65,57.26-4.73,57.63-.81,78.87-.12,42.1,2.07,60.57,5.07,33.32,5.12,49.71,23.15S500.92,310.3,504,329s13.19,95.11,13.19,95.11"/></g><g id="Watermark"><rect class="cls-11" x="438.45" y="537.19" width="123.09" height="46.3"/><rect class="cls-12" x="444.86" y="545.03" width="62.89" height="30.62"/><rect class="cls-12" x="507.75" y="545.03" width="47.39" height="30.62"/><path class="cls-13" d="M466.48,551.13l-2.79,18.92H461l-1.55-11-1.53,11h-2.74l-2.8-18.92h2.51l1.79,14.18,1.79-14.18h2l1.79,14.18L464,551.13Z"/><path class="cls-13" d="M467.93,570.05V551.13h2.53v18.92Z"/><path class="cls-13" d="M472.83,551.13h5q2.9,0,2.9,3.24V559c0,1.65-.51,2.69-1.51,3.13l1.77,7.88h-2.4l-1.66-7.64h-1.53v7.64h-2.53Zm2.53,9.12H477c.76,0,1.14-.46,1.14-1.37v-4.09c0-.91-.38-1.37-1.14-1.37h-1.66Z"/><path class="cls-13" d="M486.82,553.42v16.63h-2.53V553.42h-2.42v-2.29h7.38v2.29Z"/><path class="cls-13" d="M496.34,570.05v-8.59h-3.11v8.59H490.7V551.13h2.53v8h3.11v-8h2.53v18.92Z"/><path class="cls-13" d="M516.31,551.13h5q2.9,0,2.89,3.24V559c0,1.65-.5,2.69-1.5,3.13l1.77,7.88H522l-1.66-7.64h-1.53v7.64h-2.53Zm2.53,9.12h1.66c.76,0,1.13-.46,1.13-1.37v-4.09c0-.91-.37-1.37-1.13-1.37h-1.66Z"/><path class="cls-13" d="M528.67,570.05h-2.53V554.37q0-3.24,3-3.24h1.9q3,0,3,3.24v15.68h-2.53v-6.93h-2.9Zm2.9-9.22v-6.3a1,1,0,0,0-1.11-1.11h-.68a1,1,0,0,0-1.11,1.11v6.3Z"/><path class="cls-13" d="M536.34,570.05V551.13h2.53v18.92Z"/><path class="cls-13" d="M547.24,570.05h-6V551.13h2.53v16.63h3.47Z"/></g></svg>