<svg xmlns="http://www.w3.org/2000/svg" viewBox="0 0 1000 800"><defs><style>.cls-1,.cls-13{fill:#f0f0f0;}.cls-10,.cls-11,.cls-12,.cls-2,.cls-3,.cls-4,.cls-5,.cls-6,.cls-8{fill:none;stroke:#221e1f;}.cls-2{stroke-miterlimit:1;}.cls-11,.cls-12,.cls-2,.cls-4,.cls-5,.cls-8{stroke-width:1.05px;}.cls-3,.cls-4{stroke-linecap:round;stroke-linejoin:round;}.cls-3{stroke-width:0.93px;}.cls-5{stroke-dasharray:5.01 5.01;}.cls-6{stroke-width:0.96px;}.cls-7{fill:#221e1f;}.cls-9{fill:#303030;}.cls-10{stroke-width:1.4px;}.cls-11{stroke-dasharray:5 5;}.cls-12{stroke-dasharray:4.97 4.97;}.cls-13{stroke:#ccc;stroke-miterlimit:10;}.cls-14{fill:#ccc;}</style></defs><g id="Flat"><path class="cls-1" d="M347.57,195.8A49.1,49.1,0,0,0,387.05,244L435,253.54a32.62,32.62,0,0,1,26.25,32v348A32.63,32.63,0,0,1,431.81,666L195.38,689.69a9.85,9.85,0,0,0-8.88,9.81V707a9.9,9.9,0,0,0,2.88,7,10,10,0,0,0,3.2,2.14,9.8,9.8,0,0,0,3.78.75H765.43a9.84,9.84,0,0,0,3.78-.75,10,10,0,0,0,3.2-2.14,9.78,9.78,0,0,0,2.88-7V699.5a9.85,9.85,0,0,0-8.88-9.81L530,666a32.63,32.63,0,0,1-29.4-32.49V376.81a32.63,32.63,0,0,1,26.25-32l88-17.6a114.46,114.46,0,0,0,90.5-93.47L717,163.49a16.4,16.4,0,0,0-16.18-19.1h-22.1a9.88,9.88,0,0,0-9.73,8.24l-11.15,67a75.18,75.18,0,0,1-59.36,61.35,45.08,45.08,0,0,1-53.34-36.79l-14.34-86a32.75,32.75,0,0,0-29.43-27.25c-23-2-46.44-3-69.55-2.82s-46.51,1.41-69.52,3.75a16.4,16.4,0,0,0-14.74,16.32Z"/><path class="cls-2" d="M347.57,195.8A49.1,49.1,0,0,0,387.05,244L435,253.54a32.62,32.62,0,0,1,26.25,32v348A32.63,32.63,0,0,1,431.81,666L195.38,689.69a9.85,9.85,0,0,0-8.88,9.81V707a9.9,9.9,0,0,0,2.88,7,10,10,0,0,0,3.2,2.14,9.8,9.8,0,0,0,3.78.75H765.43a9.84,9.84,0,0,0,3.78-.75,10,10,0,0,0,3.2-2.14,9.78,9.78,0,0,0,2.88-7V699.5a9.85,9.85,0,0,0-8.88-9.81L530,666a32.63,32.63,0,0,1-29.4-32.49V376.81a32.63,32.63,0,0,1,26.25-32l88-17.6a114.46,114.46,0,0,0,90.5-93.47L717,163.49a16.4,16.4,0,0,0-16.18-19.1h-22.1a9.88,9.88,0,0,0-9.73,8.24l-11.15,67a75.18,75.18,0,0,1-59.36,61.35,45.08,45.08,0,0,1-53.34-36.79l-14.34-86a32.75,32.75,0,0,0-29.43-27.25c-23-2-46.44-3-69.55-2.82s-46.51,1.41-69.52,3.75a16.4,16.4,0,0,0-14.74,16.32Z"/><path class="cls-2" d="M480.9,661.19,530,666.1m-98.15,0,49.08-4.91"/><line class="cls-3" x1="434.98" y1="253.49" x2="480.9" y2="262.67"/><path class="cls-2" d="M397,472.66,374.72,254.09m152.09,90.65-45.91,9.18"/><path class="cls-3" d="M534,158.14a3.28,3.28,0,1,0-3.28,3.27A3.28,3.28,0,0,0,534,158.14Z"/><path class="cls-4" d="M671.41,158.14a3.27,3.27,0,1,0-3.27,3.27A3.27,3.27,0,0,0,671.41,158.14Z"/><path class="cls-2" d="M451.13,128.09H909.34M765.43,716.79H909.34M770.56,690.62h40.91M480.9,353.92h381M589.62,281.87H814.45M700.83,144.44h51.89m-84.58,13.7V28.06M530.76,158.14V47.76m186.42,113V18.33M347.62,148.13V18.33M775.24,707v85M186.55,707v86.19"/><line class="cls-3" x1="196.36" y1="716.79" x2="134.85" y2="716.79"/><line class="cls-5" x1="700.83" y1="413.94" x2="134.85" y2="413.94"/><line class="cls-3" x1="461.27" y1="571.43" x2="461.27" y2="500.64"/><path class="cls-2" d="M480.9,262.67H299M436.75,128.09H299"/><line class="cls-3" x1="454.73" y1="128.09" x2="588.14" y2="128.09"/><path class="cls-2" d="M420.83,420.66l-23.88,52m39.8,104.42L420.83,420.66M530.76,158.14h57.38"/><line class="cls-3" x1="480.9" y1="577.08" x2="480.9" y2="602.02"/><line class="cls-6" x1="448.8" y1="594.82" x2="468.65" y2="594.82"/><path class="cls-7" d="M472.81,593.09c-2.91-.84-4.8-1.61-7.13-2.5v8.48a68.46,68.46,0,0,1,7.13-2.51,55.51,55.51,0,0,1,7.76-1.74,52.5,52.5,0,0,1-7.76-1.73"/><path class="cls-7" d="M444.64,596.54c2.91.84,4.8,1.61,7.14,2.51v-8.48a70.41,70.41,0,0,1-7.14,2.5,54.1,54.1,0,0,1-7.76,1.74,53.83,53.83,0,0,1,7.76,1.73"/><path class="cls-4" d="M720.46,160.8a3.28,3.28,0,1,0-3.27,3.27A3.28,3.28,0,0,0,720.46,160.8Z"/><line class="cls-8" x1="197.66" y1="785.45" x2="764.13" y2="785.45"/><polygon class="cls-7" points="200.14 788.94 186.54 785.29 200.14 781.65 200.14 788.94"/><polygon class="cls-7" points="761.65 788.94 775.24 785.29 761.65 781.65 761.65 788.94"/><path class="cls-7" d="M507.84,731.87v-4.5l-4.09-6.13h1.71l2.09,3.2q.58.9,1.08,1.8c.32-.56.71-1.18,1.16-1.88l2.06-3.12h1.64l-4.24,6.13v4.5Z"/><line class="cls-8" x1="510.9" y1="755.06" x2="584.67" y2="755.06"/><polygon class="cls-7" points="513.39 758.7 499.79 755.06 513.39 751.41 513.39 758.7"/><line class="cls-8" x1="395.73" y1="755.06" x2="469.5" y2="755.06"/><polygon class="cls-7" points="467.01 758.7 480.61 755.06 467.01 751.41 467.01 758.7"/><line class="cls-8" x1="480.99" y1="755.06" x2="499.79" y2="755.06"/><path class="cls-9" d="M560.67,739.1h-4.32l-.44,2.91a5.47,5.47,0,0,1,.92-.07,4.73,4.73,0,0,1,2.44.61,3.22,3.22,0,0,1,1.62,2.91,3.93,3.93,0,0,1-4.21,3.87,5.55,5.55,0,0,1-2.83-.7l.39-1.17a5,5,0,0,0,2.42.63,2.49,2.49,0,0,0,2.68-2.46c0-1.46-1-2.51-3.25-2.51a10.4,10.4,0,0,0-1.57.13l.73-5.44h5.42Z"/><path class="cls-9" d="M563,748.23a1,1,0,1,1,1,1.1A1,1,0,0,1,563,748.23Z"/><path class="cls-9" d="M566.31,746.26a3.22,3.22,0,0,1,2.25-3l0-.05a2.82,2.82,0,0,1-1.79-2.55c0-1.79,1.51-3,3.5-3,2.19,0,3.29,1.37,3.29,2.79a2.87,2.87,0,0,1-1.86,2.64v.06A3.13,3.13,0,0,1,574,746c0,2-1.69,3.3-3.85,3.3C567.74,749.33,566.31,747.92,566.31,746.26Zm6.1-.07c0-1.38-1-2-2.49-2.47a2.45,2.45,0,0,0-2,2.33,2.09,2.09,0,0,0,2.26,2.16A2,2,0,0,0,572.41,746.19Zm-4.22-5.66c0,1.13.86,1.74,2.16,2.09a2.23,2.23,0,0,0,1.73-2.06,1.76,1.76,0,0,0-1.92-1.84A1.8,1.8,0,0,0,568.19,740.53Z"/><path class="cls-9" d="M582.74,737.81v1l-4.93,10.32h-1.59l4.92-10v0H575.6v-1.27Z"/><path class="cls-9" d="M456.93,769.78h0l-2,1.06-.29-1.17,2.47-1.32h1.31v11.33h-1.48Z"/><path class="cls-9" d="M462.4,776.8a3.23,3.23,0,0,1,2.24-3v0a2.81,2.81,0,0,1-1.8-2.55c0-1.79,1.52-3,3.5-3,2.2,0,3.3,1.37,3.3,2.78a2.87,2.87,0,0,1-1.87,2.65v.06a3.14,3.14,0,0,1,2.29,2.92c0,2-1.69,3.3-3.86,3.3C463.83,779.87,462.4,778.46,462.4,776.8Zm6.1-.07c0-1.38-1-2-2.5-2.47a2.46,2.46,0,0,0-2,2.33,2.1,2.1,0,0,0,2.27,2.16A2,2,0,0,0,468.5,776.73Zm-4.22-5.66c0,1.13.85,1.74,2.16,2.09a2.23,2.23,0,0,0,1.72-2.06,1.76,1.76,0,0,0-1.91-1.85A1.81,1.81,0,0,0,464.28,771.07Z"/><path class="cls-9" d="M479,773.89c0,3.85-1.43,6-3.94,6-2.21,0-3.71-2.08-3.74-5.82s1.63-5.89,3.93-5.89S479,770.28,479,773.89Zm-6.15.17c0,3,.9,4.62,2.3,4.62,1.57,0,2.32-1.83,2.32-4.72s-.72-4.62-2.3-4.62C473.82,769.34,472.85,771,472.85,774.06Z"/><path class="cls-9" d="M487.92,767.58a11.51,11.51,0,0,0-2.2,7.13,11.71,11.71,0,0,0,2.2,7.07h-1.2a11.21,11.21,0,0,1-2.29-7.07,11.53,11.53,0,0,1,2.29-7.13Z"/><path class="cls-9" d="M496.4,768.35v1l-4.93,10.32h-1.58l4.91-10v0h-5.54v-1.27Z"/><path class="cls-9" d="M498.11,778.77a1,1,0,1,1,1,1.1A1,1,0,0,1,498.11,778.77Z"/><path class="cls-9" d="M509.12,773.89c0,3.85-1.43,6-3.94,6-2.21,0-3.71-2.08-3.75-5.82s1.64-5.89,3.94-5.89S509.12,770.28,509.12,773.89Zm-6.15.17c0,3,.9,4.62,2.3,4.62,1.57,0,2.32-1.83,2.32-4.72s-.72-4.62-2.3-4.62C503.94,769.34,503,771,503,774.06Z"/><path class="cls-9" d="M510.39,776.8a3.22,3.22,0,0,1,2.25-3l0,0a2.81,2.81,0,0,1-1.8-2.55c0-1.79,1.52-3,3.51-3,2.19,0,3.29,1.37,3.29,2.78a2.88,2.88,0,0,1-1.86,2.65v.06a3.13,3.13,0,0,1,2.28,2.92c0,2-1.69,3.3-3.85,3.3C511.82,779.87,510.39,778.46,510.39,776.8Zm6.1-.07c0-1.38-1-2-2.49-2.47a2.45,2.45,0,0,0-2,2.33,2.09,2.09,0,0,0,2.26,2.16A2,2,0,0,0,516.49,776.73Zm-4.22-5.66c0,1.13.85,1.74,2.16,2.09a2.23,2.23,0,0,0,1.73-2.06,1.77,1.77,0,0,0-1.92-1.85A1.81,1.81,0,0,0,512.27,771.07Z"/><path class="cls-9" d="M526.82,768.35v1l-4.93,10.32H520.3l4.91-10v0h-5.54v-1.27Z"/><path class="cls-9" d="M530,767.74l-.29,4.18h-1l-.27-4.18Zm2.6,0-.3,4.18h-.92l-.3-4.18Z"/><path class="cls-9" d="M533.92,781.78a11.76,11.76,0,0,0,2.2-7.12,11.54,11.54,0,0,0-2.2-7.08h1.19a11.13,11.13,0,0,1,2.28,7.09,11.33,11.33,0,0,1-2.28,7.11Z"/><path class="cls-9" d="M791.25,658.68a3.23,3.23,0,0,1-3-2.24h-.05a2.8,2.8,0,0,1-2.55,1.8c-1.79,0-3-1.52-3-3.5,0-2.2,1.38-3.3,2.79-3.3a2.88,2.88,0,0,1,2.65,1.87h.05A3.15,3.15,0,0,1,791,651c2,0,3.29,1.69,3.29,3.85C794.32,657.26,792.91,658.68,791.25,658.68Zm-5.73-1.88c1.13,0,1.74-.85,2.09-2.16a2.23,2.23,0,0,0-2.06-1.72,1.76,1.76,0,0,0-1.84,1.91A1.8,1.8,0,0,0,785.52,656.8Zm5.66-4.22c-1.37,0-2,1-2.47,2.5a2.46,2.46,0,0,0,2.33,2,2.1,2.1,0,0,0,2.16-2.27A2,2,0,0,0,791.18,652.58Z"/><line class="cls-8" x1="798.66" y1="727.95" x2="798.66" y2="757.65"/><polygon class="cls-7" points="795.17 730.44 798.81 716.84 802.46 730.44 795.17 730.44"/><line class="cls-8" x1="798.66" y1="649.27" x2="798.66" y2="678.96"/><polygon class="cls-7" points="795.17 676.48 798.81 690.08 802.46 676.48 795.17 676.48"/><line class="cls-8" x1="798.66" y1="716.77" x2="798.66" y2="690.62"/><path class="cls-9" d="M594.23,588.27a15.68,15.68,0,0,1,2.91-.23,4.82,4.82,0,0,1,3.4,1,3,3,0,0,1,.92,2.23,3.09,3.09,0,0,1-2.22,3v0a2.93,2.93,0,0,1,1.72,2.37,19.22,19.22,0,0,0,.9,3.23h-1.57a15.83,15.83,0,0,1-.78-2.81c-.34-1.62-1-2.23-2.35-2.29h-1.43v5.09h-1.51Zm1.51,5.36h1.55c1.62,0,2.65-.88,2.65-2.22,0-1.52-1.09-2.19-2.7-2.21a6.11,6.11,0,0,0-1.49.14Z"/><path class="cls-9" d="M606.41,590h0l-2,1-.29-1.16,2.47-1.32h1.31l0,11.33h-1.48Z"/><path class="cls-9" d="M619.53,594.16c0,3.85-1.44,6-3.95,6-2.21,0-3.7-2.08-3.73-5.83s1.65-5.88,3.95-5.88S619.54,590.56,619.53,594.16Zm-6.15.17c0,2.94.9,4.62,2.29,4.62,1.57,0,2.32-1.83,2.33-4.72s-.71-4.62-2.29-4.62C614.37,589.61,613.39,591.24,613.38,594.33Z"/><path class="cls-9" d="M405.42,590h0l-2,1.06-.3-1.17,2.48-1.32h1.31l0,11.32H405.4Z"/><path class="cls-9" d="M411.38,598.15a5.14,5.14,0,0,0,2.51.72c2,0,2.58-1.25,2.57-2.19,0-1.59-1.45-2.27-2.93-2.27h-.85v-1.15h.85c1.12,0,2.53-.57,2.54-1.91,0-.91-.58-1.71-2-1.72a4.12,4.12,0,0,0-2.26.75l-.4-1.12a5.34,5.34,0,0,1,3-.86c2.23,0,3.24,1.33,3.24,2.7a2.85,2.85,0,0,1-2.1,2.67v0a3,3,0,0,1,2.52,2.92c0,1.81-1.42,3.39-4.14,3.39a5.8,5.8,0,0,1-2.94-.78Z"/><path class="cls-9" d="M420.09,599a1,1,0,0,1,1.05-1.1,1.1,1.1,0,0,1,0,2.2A1,1,0,0,1,420.09,599Z"/><path class="cls-9" d="M430.35,589.93H426l-.44,2.91a5.47,5.47,0,0,1,.92-.07,4.73,4.73,0,0,1,2.44.61,3.25,3.25,0,0,1,1.62,2.92,3.94,3.94,0,0,1-4.23,3.86,5.75,5.75,0,0,1-2.82-.7l.39-1.17a5,5,0,0,0,2.42.63,2.51,2.51,0,0,0,2.69-2.45c0-1.46-1-2.51-3.26-2.52a12.29,12.29,0,0,0-1.57.12l.75-5.43h5.42Z"/><polyline class="cls-8" points="618.8 605.21 553.25 605.21 522.17 651.37"/><polygon class="cls-7" points="520.66 647.36 516.09 660.67 526.71 651.43 520.66 647.36"/><path class="cls-9" d="M588.78,389.15a15.61,15.61,0,0,1,2.91-.24,4.77,4.77,0,0,1,3.4,1,2.92,2.92,0,0,1,.92,2.23,3.08,3.08,0,0,1-2.22,3v0a3,3,0,0,1,1.72,2.38,17.8,17.8,0,0,0,.9,3.22h-1.57a15.29,15.29,0,0,1-.78-2.81c-.34-1.62-1-2.23-2.35-2.29h-1.43v5.09h-1.51Zm1.51,5.35h1.55c1.62,0,2.65-.89,2.65-2.23,0-1.52-1.09-2.18-2.7-2.2a6.28,6.28,0,0,0-1.5.14Z"/><path class="cls-9" d="M601,390.88h0l-2,1.06-.3-1.17,2.48-1.32h1.31l0,11.32h-1.48Z"/><path class="cls-9" d="M614.08,395c0,3.85-1.44,6-4,6-2.21,0-3.7-2.09-3.73-5.83s1.65-5.89,4-5.88S614.09,391.43,614.08,395Zm-6.15.16c0,2.94.9,4.62,2.29,4.62,1.57,0,2.32-1.83,2.33-4.72s-.71-4.62-2.29-4.62C608.92,390.48,607.94,392.11,607.93,395.2Z"/><polyline class="cls-8" points="616.33 407.04 550.78 407.04 519.7 360.89"/><polygon class="cls-7" points="523.98 361 513.37 351.75 517.94 365.07 523.98 361"/><path class="cls-9" d="M343.57,294.87a16.51,16.51,0,0,1,2.91-.24,4.8,4.8,0,0,1,3.4,1,2.92,2.92,0,0,1,.92,2.23,3.07,3.07,0,0,1-2.22,3v.06a2.91,2.91,0,0,1,1.72,2.37,18.71,18.71,0,0,0,.9,3.22h-1.57a15.29,15.29,0,0,1-.78-2.81c-.34-1.62-1-2.23-2.34-2.28h-1.43v5.09h-1.52Zm1.51,5.35h1.55c1.62,0,2.65-.89,2.65-2.23,0-1.51-1.09-2.18-2.69-2.2a6.15,6.15,0,0,0-1.5.14Z"/><path class="cls-9" d="M355.75,296.6h0l-2,1.06-.29-1.17,2.48-1.32h1.3l0,11.32h-1.48Z"/><path class="cls-9" d="M368.88,300.76c0,3.85-1.44,6-3.95,6-2.22,0-3.71-2.08-3.74-5.83s1.65-5.89,3.95-5.88S368.88,297.15,368.88,300.76Zm-6.15.16c0,2.95.89,4.62,2.29,4.62,1.57,0,2.32-1.82,2.32-4.72s-.7-4.61-2.29-4.62C363.71,296.2,362.73,297.84,362.73,300.92Z"/><polyline class="cls-8" points="340.57 312.77 406.12 312.77 437.21 266.61"/><polygon class="cls-7" points="438.71 270.62 443.29 257.31 432.67 266.55 438.71 270.62"/><path class="cls-9" d="M645.18,663.5h0l-2,.89-.2-1.19,2.58-1.11,1.3.11-.95,11.29-1.48-.13Z"/><path class="cls-9" d="M650.16,672.94a1,1,0,1,1,.93,1.16A1,1,0,0,1,650.16,672.94Zm.51-6.13a1,1,0,1,1,2.07.18,1,1,0,0,1-1.13,1A1,1,0,0,1,650.67,666.81Z"/><path class="cls-9" d="M657.7,664.54h0l-2,.89-.19-1.19,2.57-1.11,1.3.11-.94,11.28-1.48-.12Z"/><path class="cls-9" d="M670.46,669.72c-.32,3.84-1.92,5.84-4.42,5.63-2.21-.19-3.53-2.38-3.25-6.12s2.13-5.73,4.42-5.54S670.77,666.13,670.46,669.72Zm-6.14-.34c-.25,2.93.51,4.68,1.9,4.79,1.57.13,2.47-1.63,2.71-4.51s-.33-4.66-1.91-4.79C665.69,664.75,664.58,666.3,664.32,669.38Z"/><path class="cls-9" d="M532.15,497.45a3.23,3.23,0,0,1,2.24-3v-.06a2.8,2.8,0,0,1-1.8-2.54c0-1.8,1.52-3,3.5-3,2.2,0,3.3,1.38,3.3,2.79a2.87,2.87,0,0,1-1.87,2.65v.05a3.15,3.15,0,0,1,2.29,2.93c0,2-1.69,3.29-3.86,3.29C533.57,500.51,532.15,499.1,532.15,497.45Zm6.09-.07c0-1.38-1-2-2.49-2.48a2.48,2.48,0,0,0-2,2.34A2.1,2.1,0,0,0,536,499.4,2,2,0,0,0,538.24,497.38ZM534,491.71c0,1.14.85,1.75,2.16,2.09a2.22,2.22,0,0,0,1.72-2.05A1.76,1.76,0,0,0,536,489.9,1.8,1.8,0,0,0,534,491.71Z"/><line class="cls-8" x1="450.53" y1="504.86" x2="420.83" y2="504.86"/><polygon class="cls-7" points="448.04 501.37 461.64 505.01 448.04 508.66 448.04 501.37"/><line class="cls-8" x1="541.57" y1="504.86" x2="511.87" y2="504.86"/><polygon class="cls-7" points="514.36 501.37 500.76 505.01 514.36 508.65 514.36 501.37"/><line class="cls-8" x1="460.78" y1="504.86" x2="500.76" y2="504.86"/><path class="cls-9" d="M660,685.51a16.55,16.55,0,0,1,2.92-.24,4.84,4.84,0,0,1,3.39,1,2.94,2.94,0,0,1,.92,2.23,3.09,3.09,0,0,1-2.22,3v0a2.89,2.89,0,0,1,1.72,2.37,19.22,19.22,0,0,0,.9,3.23H666a14.81,14.81,0,0,1-.77-2.8c-.35-1.63-1-2.24-2.35-2.29h-1.43v5.08H660Zm1.51,5.36H663c1.62,0,2.65-.88,2.65-2.23,0-1.51-1.09-2.18-2.69-2.2a6.21,6.21,0,0,0-1.5.14Z"/><path class="cls-9" d="M669.18,695.38a5.15,5.15,0,0,0,2.51.71c2,0,2.58-1.24,2.56-2.19,0-1.58-1.44-2.26-2.92-2.27h-.85v-1.15h.85c1.12,0,2.53-.57,2.53-1.91,0-.9-.57-1.71-2-1.71a4.27,4.27,0,0,0-2.27.74l-.39-1.11a5.33,5.33,0,0,1,3-.87c2.23,0,3.24,1.33,3.24,2.71a2.83,2.83,0,0,1-2.1,2.66v0a3,3,0,0,1,2.52,2.91c0,1.82-1.42,3.4-4.14,3.39a5.71,5.71,0,0,1-2.94-.77Z"/><polyline class="cls-10" points="758.4 695.76 743.85 702.38 658.7 702.38"/><polygon class="cls-7" points="754.19 693.2 769.7 690.62 757.56 700.61 754.19 693.2"/><line class="cls-10" x1="758.56" y1="710.15" x2="743.84" y2="702.38"/><polygon class="cls-7" points="758.01 705.26 769.53 715.95 754.21 712.46 758.01 705.26"/><path class="cls-9" d="M302.34,663.82h0L300.42,665,300,663.9l2.36-1.52,1.3-.1.89,11.29-1.48.12Z"/><path class="cls-9" d="M308.29,666.2a1,1,0,1,1,1.11,1A1,1,0,0,1,308.29,666.2Zm.48,6.14a1,1,0,1,1,1.11,1A1,1,0,0,1,308.77,672.34Z"/><path class="cls-9" d="M314.86,662.82h0L312.94,664l-.38-1.14,2.36-1.52,1.3-.1.89,11.29-1.48.12Z"/><path class="cls-9" d="M328.29,665.88c.3,3.83-1,6.07-3.46,6.26-2.2.17-3.86-1.78-4.19-5.51s1.17-6,3.47-6.18S328,662.28,328.29,665.88Zm-6.12.65c.23,2.94,1.27,4.53,2.66,4.42,1.56-.12,2.16-2,1.94-4.89s-1.08-4.54-2.66-4.42C322.78,661.75,321.93,663.46,322.17,666.53Z"/><line class="cls-8" x1="903.48" y1="705.55" x2="903.48" y2="139.08"/><polygon class="cls-7" points="906.97 703.07 903.33 716.66 899.68 703.07 906.97 703.07"/><polygon class="cls-7" points="906.97 141.56 903.33 127.97 899.68 141.56 906.97 141.56"/><path class="cls-9" d="M887.81,446.26v0l1.06,2-1.17.3-1.32-2.48v-1.3h11.33v1.48Z"/><path class="cls-9" d="M894.83,440.79a3.24,3.24,0,0,1-3-2.25l0,0a2.82,2.82,0,0,1-2.55,1.79c-1.79,0-3-1.51-3-3.5,0-2.2,1.37-3.29,2.79-3.29a2.87,2.87,0,0,1,2.64,1.86h.06a3.13,3.13,0,0,1,2.92-2.28c2,0,3.3,1.69,3.3,3.85C897.9,439.36,896.49,440.79,894.83,440.79Zm-5.73-1.88c1.13,0,1.74-.86,2.09-2.16a2.23,2.23,0,0,0-2.06-1.73,1.77,1.77,0,0,0-1.85,1.92A1.81,1.81,0,0,0,889.1,438.91Zm5.66-4.22c-1.38,0-2,1-2.47,2.49a2.45,2.45,0,0,0,2.33,2,2.1,2.1,0,0,0,2.16-2.27A2,2,0,0,0,894.76,434.69Z"/><path class="cls-9" d="M891.92,424.18c3.85,0,6,1.43,6,3.94,0,2.22-2.08,3.71-5.82,3.75s-5.89-1.64-5.89-3.94S888.31,424.18,891.92,424.18Zm.17,6.16c2.95,0,4.62-.91,4.62-2.3,0-1.57-1.83-2.32-4.72-2.32s-4.62.71-4.62,2.3C887.37,429.36,889,430.34,892.09,430.34Z"/><path class="cls-9" d="M885.61,415.27a11.51,11.51,0,0,0,7.13,2.19,11.77,11.77,0,0,0,7.07-2.19v1.2a11.22,11.22,0,0,1-7.07,2.28,11.54,11.54,0,0,1-7.13-2.28Z"/><path class="cls-9" d="M886.38,406.78h1l10.32,4.93v1.59l-10-4.92h0v5.55h-1.27Z"/><path class="cls-9" d="M896.8,405.08a1,1,0,0,1-1.1-1.05,1.1,1.1,0,0,1,2.2,0A1,1,0,0,1,896.8,405.08Z"/><path class="cls-9" d="M891.92,394.07c3.85,0,6,1.42,6,3.93,0,2.22-2.08,3.72-5.82,3.75s-5.89-1.64-5.89-3.94S888.31,394.07,891.92,394.07Zm.17,6.15c2.95,0,4.62-.91,4.62-2.3,0-1.57-1.83-2.32-4.72-2.32s-4.62.71-4.62,2.3C887.37,399.24,889,400.22,892.09,400.22Z"/><path class="cls-9" d="M894.83,392.8a3.24,3.24,0,0,1-3-2.25l0,0a2.82,2.82,0,0,1-2.55,1.79c-1.79,0-3-1.52-3-3.5,0-2.2,1.37-3.3,2.79-3.3a2.89,2.89,0,0,1,2.64,1.87h.06a3.13,3.13,0,0,1,2.92-2.28c2,0,3.3,1.69,3.3,3.85C897.9,391.37,896.49,392.8,894.83,392.8Zm-5.73-1.89c1.13,0,1.74-.85,2.09-2.16a2.23,2.23,0,0,0-2.06-1.72,1.77,1.77,0,0,0-1.85,1.92A1.8,1.8,0,0,0,889.1,390.91Zm5.66-4.21c-1.38,0-2,1-2.47,2.49a2.46,2.46,0,0,0,2.33,2,2.1,2.1,0,0,0,2.16-2.27A2,2,0,0,0,894.76,386.7Z"/><path class="cls-9" d="M886.38,376.37h1l10.32,4.93v1.58l-10-4.91h0v5.54h-1.27Z"/><path class="cls-9" d="M885.77,370.57l4.18.29v.93l-4.18.29Zm0,2.59,4.18.3v.94l-4.18.28Z"/><path class="cls-9" d="M899.81,369.26a11.76,11.76,0,0,0-7.12-2.2,11.54,11.54,0,0,0-7.08,2.2v-1.19a11.13,11.13,0,0,1,7.09-2.28,11.33,11.33,0,0,1,7.11,2.28Z"/><line class="cls-8" x1="158.85" y1="705.55" x2="158.85" y2="425.05"/><polygon class="cls-7" points="162.34 703.07 158.7 716.66 155.05 703.07 162.34 703.07"/><polygon class="cls-7" points="162.34 427.54 158.7 413.94 155.05 427.54 162.34 427.54"/><path class="cls-9" d="M152,575.42a6.29,6.29,0,0,0-.06-1.24,4.26,4.26,0,0,0-1.09-2.37,5,5,0,0,0-3-1.5v.05a3.33,3.33,0,0,1,1.22,2.67,3.28,3.28,0,0,1-3.47,3.35,3.89,3.89,0,0,1-4-3.87c0-2.32,1.88-3.75,4.77-3.75a7.19,7.19,0,0,1,5.32,2,5.7,5.7,0,0,1,1.51,3.3,6.72,6.72,0,0,1,.09,1.41Zm-6.52-.56a2.17,2.17,0,0,0,2.4-2.18,2.53,2.53,0,0,0-1.18-2.23,1,1,0,0,0-.56-.14c-1.93,0-3.41.72-3.41,2.32C142.73,573.94,143.88,574.86,145.48,574.86Z"/><path class="cls-9" d="M153.08,567.37h-.94l-1.17-1.2c-2.76-2.9-4.22-4.2-5.93-4.22a2,2,0,0,0-2.21,2.25,3.81,3.81,0,0,0,1,2.4l-1.08.49a5,5,0,0,1-1.15-3.21,3.18,3.18,0,0,1,3.29-3.46c2.09,0,3.78,1.51,6.08,3.9l.84.91h0v-5.09h1.28Z"/><path class="cls-9" d="M152.17,558.31a1,1,0,0,1-1.1-1,1.1,1.1,0,1,1,1.1,1Z"/><path class="cls-9" d="M142.83,548.34a5.34,5.34,0,0,0,.07,1.15,4.6,4.6,0,0,0,4,3.94v0a3.46,3.46,0,0,1,2.36-6.15,3.79,3.79,0,0,1,4,3.76c0,2.42-1.88,4-4.83,4a7.08,7.08,0,0,1-5.1-1.92,6.18,6.18,0,0,1-1.68-3.62,7.27,7.27,0,0,1-.08-1.12Zm6.53.44a2.29,2.29,0,0,0-2.59,2.33,2.52,2.52,0,0,0,1.39,2.2,1.37,1.37,0,0,0,.68.17c1.87,0,3.24-.89,3.24-2.49C152.08,549.67,151,548.78,149.36,548.78Z"/><line class="cls-8" x1="306.72" y1="252.45" x2="306.72" y2="139.07"/><polygon class="cls-7" points="310.21 249.97 306.56 263.57 302.92 249.97 310.21 249.97"/><polygon class="cls-7" points="310.21 141.55 306.56 127.95 302.92 141.55 310.21 141.55"/><path class="cls-9" d="M300.94,206.26h-3.08v5.27h-1l-7.23-5.06v-1.65h7v-1.59h1.2v1.59h3.08Zm-4.28,0h-3.79c-.59,0-1.18,0-1.77,0v0c.66.35,1.15.63,1.67,1l3.85,2.77h0Z"/><path class="cls-9" d="M291,198.74v0l1.07,2-1.17.3-1.32-2.47v-1.31h11.32v1.48Z"/><path class="cls-9" d="M300,193a1,1,0,0,1-1.1-1,1.1,1.1,0,0,1,2.19,0A1,1,0,0,1,300,193Z"/><path class="cls-9" d="M291,186.2v0l1.07,2-1.17.3L289.62,186v-1.3h11.32v1.48Z"/><path class="cls-9" d="M290.91,173.83v4.32l2.91.44a5.6,5.6,0,0,1-.07-.93,4.78,4.78,0,0,1,.61-2.44,3.22,3.22,0,0,1,2.91-1.62,3.93,3.93,0,0,1,3.86,4.22,5.52,5.52,0,0,1-.69,2.82l-1.17-.38a5.07,5.07,0,0,0,.63-2.42,2.5,2.5,0,0,0-2.46-2.69c-1.46,0-2.51,1-2.51,3.26a12.14,12.14,0,0,0,.12,1.57l-5.43-.73v-5.42Z"/><line class="cls-8" x1="358.73" y1="28.05" x2="706.07" y2="28.05"/><polygon class="cls-7" points="361.22 31.54 347.62 27.9 361.22 24.25 361.22 31.54"/><polygon class="cls-7" points="703.59 31.54 717.19 27.9 703.59 24.25 703.59 31.54"/><path class="cls-9" d="M521.48,12.35h0l-2,1.06-.3-1.16,2.48-1.33H523V22.25h-1.49Z"/><path class="cls-9" d="M530.42,12.35h0l-2,1.06-.3-1.16,2.48-1.33h1.3V22.25h-1.48Z"/><path class="cls-9" d="M536.4,20.49a5.07,5.07,0,0,0,2.5.71c2,0,2.58-1.25,2.57-2.19,0-1.59-1.45-2.27-2.93-2.27h-.86V15.59h.86c1.11,0,2.53-.57,2.53-1.92,0-.9-.58-1.7-2-1.7a4.16,4.16,0,0,0-2.27.75l-.4-1.12a5.48,5.48,0,0,1,3-.87c2.23,0,3.24,1.32,3.24,2.7a2.82,2.82,0,0,1-2.09,2.67v0A3,3,0,0,1,543.05,19c0,1.81-1.41,3.4-4.13,3.4a5.71,5.71,0,0,1-2.94-.77Z"/><line class="cls-8" x1="358.73" y1="59.74" x2="519.39" y2="59.74"/><polygon class="cls-7" points="361.22 63.23 347.62 59.59 361.22 55.95 361.22 63.23"/><polygon class="cls-7" points="516.9 63.23 530.5 59.59 516.9 55.95 516.9 63.23"/><path class="cls-9" d="M433.52,43.9H429.2l-.44,2.91a5.47,5.47,0,0,1,.92-.07,4.73,4.73,0,0,1,2.44.61,3.22,3.22,0,0,1,1.62,2.91,3.93,3.93,0,0,1-4.21,3.87,5.55,5.55,0,0,1-2.83-.7l.39-1.17a5,5,0,0,0,2.42.63,2.49,2.49,0,0,0,2.68-2.46c0-1.46-1-2.51-3.26-2.51a10.37,10.37,0,0,0-1.56.13l.73-5.44h5.42Z"/><path class="cls-9" d="M442.16,43.69a5.31,5.31,0,0,0-1.15.07,4.6,4.6,0,0,0-3.94,4h.05a3.46,3.46,0,0,1,6.15,2.36,3.79,3.79,0,0,1-3.76,4c-2.42,0-4-1.88-4-4.83a7.08,7.08,0,0,1,1.92-5.1A6.15,6.15,0,0,1,441,42.52a7.27,7.27,0,0,1,1.12-.08Zm-.44,6.53a2.29,2.29,0,0,0-2.33-2.59,2.52,2.52,0,0,0-2.2,1.39,1.37,1.37,0,0,0-.17.68c0,1.87.89,3.24,2.49,3.24C440.83,52.94,441.72,51.84,441.72,50.22Z"/><line class="cls-8" x1="541.43" y1="59.74" x2="657.03" y2="59.74"/><polygon class="cls-7" points="543.92 63.23 530.32 59.59 543.92 55.95 543.92 63.23"/><polygon class="cls-7" points="654.54 63.23 668.14 59.59 654.54 55.95 654.54 63.23"/><path class="cls-9" d="M596,53.94V50.85h-5.26v-1l5-7.23h1.65v7H599v1.2h-1.59v3.09Zm0-4.29V45.87c0-.59,0-1.19,0-1.78h0c-.35.66-.63,1.15-.94,1.67l-2.77,3.85v0Z"/><path class="cls-9" d="M600.17,53.94V53l1.21-1.17c2.89-2.76,4.2-4.22,4.21-5.93a2,2,0,0,0-2.24-2.21,3.84,3.84,0,0,0-2.41,1l-.49-1.08a5,5,0,0,1,3.21-1.15,3.19,3.19,0,0,1,3.47,3.29c0,2.09-1.52,3.78-3.91,6.08l-.9.84v0h5.09v1.28Z"/><path class="cls-9" d="M736.18,96.63a3.22,3.22,0,0,1-3-2.25l-.06,0a2.8,2.8,0,0,1-2.54,1.79c-1.79,0-3-1.51-3-3.5,0-2.19,1.37-3.29,2.78-3.29A2.88,2.88,0,0,1,733,91.26h0A3.15,3.15,0,0,1,736,89c2,0,3.3,1.69,3.3,3.85C739.25,95.2,737.83,96.63,736.18,96.63Zm-5.73-1.88c1.13,0,1.74-.86,2.09-2.16a2.23,2.23,0,0,0-2.06-1.73,1.76,1.76,0,0,0-1.85,1.92A1.81,1.81,0,0,0,730.45,94.75Zm5.66-4.22c-1.38,0-2,1-2.48,2.49a2.47,2.47,0,0,0,2.34,2,2.09,2.09,0,0,0,2.16-2.26A2,2,0,0,0,736.11,90.53Z"/><line class="cls-8" x1="743.88" y1="155.76" x2="743.88" y2="165.05"/><polygon class="cls-7" points="740.39 158.24 744.03 144.65 747.68 158.24 740.39 158.24"/><line class="cls-8" x1="743.88" y1="87.15" x2="743.88" y2="116.84"/><polygon class="cls-7" points="740.39 114.36 744.03 127.95 747.68 114.36 740.39 114.36"/><line class="cls-8" x1="743.88" y1="144.44" x2="743.88" y2="128.5"/><path class="cls-7" d="M507.84,123.84v-4.5l-4.09-6.13h1.71l2.09,3.2c.39.61.75,1.2,1.08,1.8.32-.55.71-1.18,1.16-1.88l2.06-3.12h1.64l-4.24,6.13v4.5Z"/><line class="cls-8" x1="500.09" y1="113.21" x2="500.09" y2="117.13"/><line class="cls-11" x1="500.09" y1="124.99" x2="500.09" y2="749.69"/><path class="cls-8" d="M480.9,87.1V91m19.19,662.6v3.91"/><line class="cls-12" x1="480.9" y1="98.82" x2="480.9" y2="749.72"/><line class="cls-8" x1="480.9" y1="753.62" x2="480.9" y2="757.53"/><path class="cls-9" d="M489.72,79.6h0l-2,1.06-.3-1.17,2.48-1.32h1.31V89.49h-1.49Z"/><path class="cls-9" d="M502.09,79.46h-4.32l-.43,2.91a5.38,5.38,0,0,1,.92-.07,4.78,4.78,0,0,1,2.44.61,3.22,3.22,0,0,1,1.62,2.91,3.93,3.93,0,0,1-4.22,3.87,5.53,5.53,0,0,1-2.82-.7l.38-1.17a5.08,5.08,0,0,0,2.43.63A2.5,2.5,0,0,0,500.77,86c0-1.46-1-2.51-3.26-2.51a10.52,10.52,0,0,0-1.57.13l.73-5.44h5.42Z"/><path class="cls-9" d="M504.39,88.59a1,1,0,0,1,1.05-1.1,1.1,1.1,0,0,1,0,2.2A1,1,0,0,1,504.39,88.59Z"/><path class="cls-9" d="M507.87,89.49v-.94l1.21-1.16c2.89-2.76,4.2-4.22,4.21-5.93a2,2,0,0,0-2.24-2.21,3.84,3.84,0,0,0-2.41,1l-.49-1.08A4.94,4.94,0,0,1,511.36,78a3.19,3.19,0,0,1,3.47,3.29c0,2.09-1.52,3.78-3.91,6.08l-.9.84v0h5.09v1.27Z"/><path class="cls-9" d="M523.57,79.46h-4.32l-.44,2.91a5.6,5.6,0,0,1,.93-.07,4.78,4.78,0,0,1,2.44.61,3.22,3.22,0,0,1,1.62,2.91,3.93,3.93,0,0,1-4.22,3.87,5.51,5.51,0,0,1-2.82-.7l.38-1.17a5.07,5.07,0,0,0,2.42.63A2.5,2.5,0,0,0,522.25,86c0-1.46-1-2.51-3.26-2.51a10.4,10.4,0,0,0-1.57.13l.73-5.44h5.42Z"/><path class="cls-9" d="M503.63,168.45a16.25,16.25,0,0,1,2.84-.68,4.87,4.87,0,0,1,3.51.44,2.91,2.91,0,0,1,1.24,2.07,3.08,3.08,0,0,1-1.74,3.29v.06a2.93,2.93,0,0,1,2.06,2.08,18.44,18.44,0,0,0,1.37,3l-1.55.24a14.82,14.82,0,0,1-1.19-2.66c-.59-1.55-1.3-2.06-2.67-1.91l-1.41.22.76,5-1.5.22Zm2.3,5.06,1.53-.23c1.6-.24,2.49-1.27,2.29-2.6-.23-1.5-1.41-2-3-1.77a6.63,6.63,0,0,0-1.46.36Z"/><path class="cls-9" d="M515.91,168.31h0l-1.79,1.34-.46-1.1,2.25-1.68,1.29-.2,1.69,11.2-1.47.22Z"/><path class="cls-9" d="M529.51,170.41c.57,3.81-.52,6.12-3,6.5-2.19.33-4-1.5-4.58-5.2s.74-6.07,3-6.41S529,166.84,529.51,170.41Zm-6.06,1.09c.44,2.91,1.59,4.43,3,4.22,1.56-.23,2-2.15,1.59-5s-1.39-4.46-3-4.22C523.71,166.68,523,168.45,523.45,171.5Z"/><path class="cls-9" d="M528.23,225.71v0l1.44,1.72-1.09.52-1.79-2.16-.26-1.28,11.1-2.27.29,1.45Z"/><path class="cls-9" d="M529.86,219.52a1,1,0,1,1,.85-1.22A1,1,0,0,1,529.86,219.52Zm6-1.23a1,1,0,1,1-.42-2,1,1,0,1,1,.42,2Z"/><path class="cls-9" d="M524.73,210.42a5.48,5.48,0,0,0,.3,1.11,4.59,4.59,0,0,0,4.73,3.05v-.05a3.45,3.45,0,0,1,1.07-6.49,3.79,3.79,0,0,1,4.67,2.88c.48,2.38-1,4.31-3.93,4.9a7.16,7.16,0,0,1-5.39-.86,6.17,6.17,0,0,1-2.36-3.21,8,8,0,0,1-.31-1.08Zm6.49-.88a2.3,2.3,0,0,0-2.08,2.81,2.54,2.54,0,0,0,1.81,1.87,1.25,1.25,0,0,0,.7,0c1.82-.41,3-1.52,2.68-3.09C534.06,209.86,532.81,209.21,531.22,209.54Z"/><line class="cls-8" x1="519.65" y1="95.41" x2="492.01" y2="95.41"/><polygon class="cls-7" points="517.16 91.92 530.76 95.57 517.16 99.21 517.16 91.92"/><polygon class="cls-7" points="494.49 91.92 480.9 95.57 494.49 99.21 494.49 91.92"/><path class="cls-9" d="M555.51,110.53a6.19,6.19,0,0,0,0-1.24,4.27,4.27,0,0,0-1.1-2.37,5,5,0,0,0-3-1.5v.06a3.4,3.4,0,0,1-2.25,6,3.88,3.88,0,0,1-4-3.87c0-2.32,1.88-3.75,4.77-3.75a7.17,7.17,0,0,1,5.31,1.95,5.68,5.68,0,0,1,1.52,3.3,6.76,6.76,0,0,1,.09,1.41ZM549,110a2.17,2.17,0,0,0,2.4-2.18,2.54,2.54,0,0,0-1.18-2.23,1.1,1.1,0,0,0-.56-.14c-1.94,0-3.42.72-3.42,2.32C546.24,109.05,547.39,110,549,110Z"/><path class="cls-9" d="M555.69,102.36a1,1,0,0,1-1.1-1,1,1,0,0,1,1.1-1,1,1,0,1,1,0,2.07Z"/><path class="cls-9" d="M546.7,95.55v0l1.06,2-1.17.3-1.32-2.48v-1.3h11.32v1.48Z"/><path class="cls-9" d="M555.51,89.05a6.19,6.19,0,0,0,0-1.24,4.31,4.31,0,0,0-1.1-2.37,4.91,4.91,0,0,0-3-1.49v0a3.4,3.4,0,0,1-2.25,6,3.88,3.88,0,0,1-4-3.87c0-2.32,1.88-3.75,4.77-3.75a7.13,7.13,0,0,1,5.31,2,5.62,5.62,0,0,1,1.52,3.29,6.79,6.79,0,0,1,.09,1.41ZM549,88.49a2.17,2.17,0,0,0,2.4-2.17,2.56,2.56,0,0,0-1.18-2.24,1.1,1.1,0,0,0-.56-.13c-1.94,0-3.42.71-3.42,2.31C546.24,87.57,547.39,88.49,549,88.49Z"/><line class="cls-8" x1="561.72" y1="168.75" x2="561.72" y2="178.04"/><polygon class="cls-7" points="558.23 171.24 561.87 157.64 565.51 171.24 558.23 171.24"/><line class="cls-8" x1="520.49" y1="160.23" x2="499.36" y2="164.13"/><polygon class="cls-7" points="517.41 157.25 531.44 158.36 518.73 164.42 517.41 157.25"/><line class="cls-8" x1="561.72" y1="82.96" x2="561.72" y2="116.84"/><polygon class="cls-7" points="558.23 114.36 561.87 127.95 565.51 114.36 558.23 114.36"/><line class="cls-8" x1="561.72" y1="158.26" x2="561.72" y2="128.5"/><path class="cls-9" d="M663,215.86v0l.66,2.13-1.2.07-.82-2.68.25-1.29L673,216.31l-.28,1.46Z"/><path class="cls-9" d="M666.89,210.77a1,1,0,1,1,.4-2,1,1,0,0,1,.86,1.23A1,1,0,0,1,666.89,210.77Zm6,1.18a1,1,0,1,1,.4-2,1,1,0,1,1-.4,2Z"/><path class="cls-9" d="M665.66,200.39a5.09,5.09,0,0,0-.15,1.14,4.59,4.59,0,0,0,3.19,4.64v0a3.45,3.45,0,0,1,3.49-5.58,3.78,3.78,0,0,1,3.19,4.46c-.46,2.38-2.61,3.57-5.5,3a7.14,7.14,0,0,1-4.65-2.87,6.22,6.22,0,0,1-.94-3.88,7.91,7.91,0,0,1,.13-1.11Zm6.33,1.69a2.3,2.3,0,0,0-3,1.79,2.5,2.5,0,0,0,1,2.42,1.24,1.24,0,0,0,.63.3c1.84.33,3.35-.24,3.66-1.82C674.49,203.47,673.58,202.39,672,202.08Z"/><path class="cls-9" d="M695.93,171.77a16.52,16.52,0,0,1,2.27-1.84,4.84,4.84,0,0,1,3.35-1.12,3,3,0,0,1,2,1.32,3.11,3.11,0,0,1-.14,3.73l0,0a2.94,2.94,0,0,1,2.76,1,19.16,19.16,0,0,0,2.56,2.15l-1.29.89a15.66,15.66,0,0,1-2.23-1.88c-1.2-1.14-2.06-1.3-3.23-.56l-1.18.8,2.86,4.21-1.25.85Zm4.27,3.57,1.28-.87c1.34-.92,1.69-2.23.93-3.34s-2.13-1.18-3.46-.29a5.72,5.72,0,0,0-1.16,1Z"/><path class="cls-9" d="M709.08,174.71a5.2,5.2,0,0,0,2.48-.83c1.63-1.11,1.42-2.48.88-3.25-.91-1.3-2.47-1.06-3.69-.23l-.71.48-.65-.95.71-.48c.92-.63,1.76-1.89,1-3a1.72,1.72,0,0,0-2.61-.3,4.2,4.2,0,0,0-1.45,1.9l-1-.7a5.46,5.46,0,0,1,2-2.39c1.84-1.25,3.43-.73,4.2.41a2.8,2.8,0,0,1-.23,3.38l0,0a3,3,0,0,1,3.73,1c1,1.5.75,3.61-1.5,5.14a5.79,5.79,0,0,1-2.86,1Z"/><path class="cls-9" d="M683.86,153.75a16.52,16.52,0,0,1,2.27-1.84,4.84,4.84,0,0,1,3.35-1.12,3,3,0,0,1,2,1.33,3.08,3.08,0,0,1-.14,3.72l0,0a2.94,2.94,0,0,1,2.76,1,18.37,18.37,0,0,0,2.56,2.15l-1.29.89a15.66,15.66,0,0,1-2.23-1.88c-1.2-1.14-2.06-1.29-3.23-.56l-1.18.8,2.86,4.21-1.25.85Zm4.27,3.57,1.28-.87c1.34-.91,1.69-2.23.93-3.34s-2.13-1.18-3.46-.29a5.72,5.72,0,0,0-1.16,1Z"/><path class="cls-9" d="M697.64,146.24l-3.57,2.44,1.28,2.65a5.1,5.1,0,0,1,.72-.58,4.83,4.83,0,0,1,2.36-.87,3.24,3.24,0,0,1,3,1.49,3.93,3.93,0,0,1-1.31,5.57,5.56,5.56,0,0,1-2.72,1l-.34-1.18a5.15,5.15,0,0,0,2.35-.85,2.5,2.5,0,0,0,.84-3.54c-.84-1.2-2.24-1.51-4.11-.24a13.49,13.49,0,0,0-1.23,1l-2.45-4.9,4.47-3Z"/><path class="cls-9" d="M692.42,229v0l.67,2.14-1.21.06-.82-2.68.25-1.28,11.12,2.18-.29,1.45Z"/><path class="cls-9" d="M696.33,223.87a1,1,0,0,1-.87-1.24,1.09,1.09,0,0,1,2.13.44A1,1,0,0,1,696.33,223.87Zm6,1.18a1,1,0,1,1,.4-2,1,1,0,1,1-.4,2Z"/><path class="cls-9" d="M695.1,213.48a5.09,5.09,0,0,0-.15,1.14,4.59,4.59,0,0,0,3.19,4.64v0a3.45,3.45,0,0,1,3.49-5.58,3.78,3.78,0,0,1,3.19,4.46c-.46,2.38-2.62,3.57-5.51,3a7.15,7.15,0,0,1-4.64-2.87,6.22,6.22,0,0,1-.94-3.88,7.91,7.91,0,0,1,.13-1.11Zm6.33,1.69a2.3,2.3,0,0,0-3,1.79,2.5,2.5,0,0,0,1,2.42,1.24,1.24,0,0,0,.63.3c1.84.33,3.35-.24,3.66-1.82C703.93,216.56,703,215.48,701.43,215.17Z"/><path class="cls-9" d="M407.11,233.89h0l-2.13.69-.08-1.2,2.67-.85,1.29.24-2.08,11.13-1.45-.27Z"/><path class="cls-9" d="M411.09,243.8a1,1,0,1,1,.82,1.25A1,1,0,0,1,411.09,243.8Zm1.13-6.05a1,1,0,1,1,2,.38,1,1,0,1,1-2-.38Z"/><path class="cls-9" d="M422.84,236.68l-4.25-.8-1,2.79a5.27,5.27,0,0,1,.92.1,4.77,4.77,0,0,1,2.29,1A3.24,3.24,0,0,1,421.9,243a3.93,3.93,0,0,1-4.86,3,5.56,5.56,0,0,1-2.64-1.2l.59-1.08a5.06,5.06,0,0,0,2.26,1.06,2.49,2.49,0,0,0,3.09-1.92c.25-1.45-.51-2.65-2.74-3.07a12,12,0,0,0-1.57-.16l1.72-5.21,5.33,1Z"/><path class="cls-9" d="M560.59,323.84h0l-1.7,1.46-.54-1.08,2.14-1.82,1.27-.28,2.42,11.07-1.45.31Z"/><path class="cls-9" d="M566.8,325.41a1,1,0,1,1,1.23.84A1,1,0,0,1,566.8,325.41Zm1.31,6a1,1,0,1,1,1.23.84A1,1,0,0,1,568.11,331.42Z"/><path class="cls-9" d="M576.17,320.3l-4.22.92.19,2.94a6.12,6.12,0,0,1,.89-.27,4.83,4.83,0,0,1,2.51.08,3.23,3.23,0,0,1,2.21,2.49,3.93,3.93,0,0,1-3.3,4.68,5.57,5.57,0,0,1-2.91-.07l.13-1.23a5.08,5.08,0,0,0,2.5.1,2.5,2.5,0,0,0,2.1-3c-.33-1.43-1.51-2.24-3.72-1.76a12.47,12.47,0,0,0-1.51.45l-.44-5.46,5.29-1.16Z"/><path class="cls-9" d="M374.85,206a15.46,15.46,0,0,1,2.34-1.74,4.86,4.86,0,0,1,3.39-1,2.9,2.9,0,0,1,2,1.41,3.08,3.08,0,0,1-.3,3.72l0,0a2.93,2.93,0,0,1,2.72,1.1,19,19,0,0,0,2.47,2.27l-1.34.82a15.47,15.47,0,0,1-2.14-2c-1.15-1.19-2-1.38-3.2-.7l-1.22.76,2.69,4.32-1.29.8Zm4.11,3.75,1.31-.82c1.38-.85,1.79-2.15,1.08-3.29s-2.08-1.27-3.45-.44a6.11,6.11,0,0,0-1.2.9Z"/><path class="cls-9" d="M386.06,201l0,0L384.92,203l-.87-.83,1.41-2.43,1.11-.69,6,9.62-1.26.78Z"/><path class="cls-9" d="M396.49,194.38l-3.67,2.28,1.16,2.7a6.71,6.71,0,0,1,.75-.55,4.86,4.86,0,0,1,2.4-.77,3.26,3.26,0,0,1,2.91,1.62,3.93,3.93,0,0,1-1.55,5.51,5.48,5.48,0,0,1-2.76.9l-.29-1.19a5.27,5.27,0,0,0,2.39-.75,2.49,2.49,0,0,0,1-3.5c-.78-1.24-2.16-1.61-4.09-.42a11,11,0,0,0-1.27.94l-2.24-5,4.6-2.86Z"/><line class="cls-8" x1="404.62" y1="207.09" x2="372.91" y2="226.5"/><polygon class="cls-7" points="373.2 222.23 363.51 232.43 377.01 228.44 373.2 222.23"/><path class="cls-9" d="M378.91,147.49a16.16,16.16,0,0,1,.55,2.86,4.8,4.8,0,0,1-.59,3.48,2.93,2.93,0,0,1-2.12,1.16,3.1,3.1,0,0,1-3.22-1.88h0a2.93,2.93,0,0,1-2.17,2,19.06,19.06,0,0,0-3.11,1.24l-.17-1.55a14.59,14.59,0,0,1,2.71-1.08c1.57-.52,2.11-1.21,2-2.58l-.16-1.43-5.06.55-.16-1.51Zm-5.16,2.07.16,1.54c.17,1.62,1.17,2.54,2.5,2.4,1.51-.16,2-1.32,1.9-2.92a5.93,5.93,0,0,0-.3-1.47Z"/><path class="cls-9" d="M368.33,157.5l.93-.1,1.29,1.07c3.05,2.58,4.64,3.73,6.34,3.56a2,2,0,0,0,2-2.46,3.82,3.82,0,0,0-1.21-2.29l1-.6a4.9,4.9,0,0,1,1.49,3.06,3.19,3.19,0,0,1-2.91,3.8c-2.08.22-3.92-1.11-6.46-3.24l-.93-.81h0l.54,5.06-1.27.13Z"/><path class="cls-9" d="M369.27,166.39l.94-.1,1.29,1.07c3,2.58,4.64,3.72,6.34,3.56a2,2,0,0,0,2-2.47,3.85,3.85,0,0,0-1.21-2.29l1-.6a5,5,0,0,1,1.49,3.07,3.18,3.18,0,0,1-2.91,3.79c-2.08.23-3.92-1.1-6.46-3.23l-.93-.81h0l.54,5.06-1.27.14Z"/><path class="cls-9" d="M380.92,180.93l-.45-4.3-3-.12a4.64,4.64,0,0,1,.17.91,4.72,4.72,0,0,1-.34,2.49,3.24,3.24,0,0,1-2.73,1.92,3.93,3.93,0,0,1-4.29-3.78,5.54,5.54,0,0,1,.39-2.88l1.2.25a5.19,5.19,0,0,0-.36,2.48,2.5,2.5,0,0,0,2.73,2.41c1.45-.18,2.39-1.26,2.14-3.51a11.63,11.63,0,0,0-.28-1.55l5.48.15.58,5.39Z"/><path class="cls-9" d="M479.35,214.55a16.34,16.34,0,0,1,0-2.92,4.77,4.77,0,0,1,1.19-3.32,2.92,2.92,0,0,1,2.29-.77,3.08,3.08,0,0,1,2.84,2.41h.05a3,3,0,0,1,2.48-1.56,19.08,19.08,0,0,0,3.28-.68l-.11,1.57a16.29,16.29,0,0,1-2.85.58c-1.64.24-2.29.82-2.44,2.19l-.1,1.43,5.08.35-.11,1.51Zm5.44-1.14.11-1.55c.11-1.62-.7-2.7-2-2.8-1.51-.1-2.25.95-2.38,2.55a5.79,5.79,0,0,0,0,1.5Z"/><path class="cls-9" d="M491.54,206.54l-.93-.07-1.09-1.27c-2.54-3.08-3.91-4.49-5.61-4.62a2,2,0,0,0-2.37,2.09,3.85,3.85,0,0,0,.79,2.46l-1.11.41a4.92,4.92,0,0,1-.92-3.27,3.18,3.18,0,0,1,3.52-3.24c2.09.15,3.67,1.78,5.8,4.32l.77,1h0l.36-5.07,1.27.09Z"/><path class="cls-9" d="M492.16,197.62l-.93-.06-1.09-1.28c-2.54-3.08-3.91-4.48-5.62-4.62a2,2,0,0,0-2.36,2.09,3.88,3.88,0,0,0,.79,2.47l-1.11.41a5,5,0,0,1-.93-3.28,3.19,3.19,0,0,1,3.53-3.23c2.09.14,3.67,1.77,5.8,4.31l.77,1h0l.35-5.08,1.27.09Z"/><path class="cls-9" d="M483.24,181.27l-.3,4.31,2.87.64a5.68,5.68,0,0,1,0-.93,4.84,4.84,0,0,1,.77-2.39,3.23,3.23,0,0,1,3-1.41,3.92,3.92,0,0,1,3.57,4.47,5.5,5.5,0,0,1-.9,2.77l-1.13-.46a5.08,5.08,0,0,0,.79-2.38,2.49,2.49,0,0,0-2.27-2.84c-1.46-.09-2.57.81-2.72,3.07a11.52,11.52,0,0,0,0,1.58l-5.37-1.11.37-5.41Z"/><line class="cls-8" x1="365.86" y1="185.44" x2="362.03" y2="143.51"/><polygon class="cls-7" points="365.74 145.66 360.87 132.45 358.48 146.33 365.74 145.66"/><polyline class="cls-2" points="501.62 141.82 472.11 463.02 451.78 420.66 436.74 577.08 436.74 602.01"/><polygon class="cls-7" points="497.77 143.96 502.64 130.75 505.03 144.62 497.77 143.96"/><line class="cls-8" x1="706.92" y1="158.92" x2="689.29" y2="171.2"/><polygon class="cls-7" points="702.89 157.48 716.13 152.7 707.05 163.46 702.89 157.48"/><line class="cls-8" x1="678.29" y1="156.89" x2="711.16" y2="198.61"/><polygon class="cls-7" points="677.08 161 671.53 148.06 682.81 156.49 677.08 161"/><path class="cls-9" d="M127.77,419.41l-1.5-2.6c-.61-1-1-1.64-1.36-2.32h0c-.33.68-.66,1.31-1.27,2.34l-1.41,2.58h-1.75l3.59-5.94-3.45-5.81h1.76l1.55,2.76c.44.76.77,1.36,1.08,2H125c.33-.69.62-1.23,1.06-2l1.6-2.76h1.74l-3.57,5.72,3.66,6Z"/><path class="cls-9" d="M714.52,419.41l-1.5-2.6c-.61-1-1-1.64-1.36-2.32h0c-.33.68-.66,1.31-1.27,2.34l-1.41,2.58H707.2l3.59-5.94-3.45-5.81h1.76l1.55,2.76c.43.76.76,1.36,1.08,2h0c.33-.69.63-1.23,1.06-2l1.61-2.76h1.74l-3.57,5.72,3.65,6Z"/><line class="cls-8" x1="793.9" y1="270.76" x2="793.9" y2="139.07"/><polygon class="cls-7" points="797.39 268.27 793.75 281.87 790.1 268.27 797.39 268.27"/><polygon class="cls-7" points="797.39 141.55 793.75 127.95 790.1 141.55 797.39 141.55"/><path class="cls-9" d="M788.12,204.85H785v5.26h-1l-7.23-5.05V203.4h7v-1.59H785v1.59h3.08Zm-4.28,0h-3.78c-.6,0-1.19,0-1.78-.06v.06c.66.35,1.15.62,1.67.94l3.85,2.77h0Z"/><path class="cls-9" d="M776.8,193.3h1l10.31,4.93v1.58l-10-4.91h0v5.54H776.8Z"/><line class="cls-8" x1="856.28" y1="342.81" x2="856.28" y2="139.07"/><polygon class="cls-7" points="859.77 340.32 856.13 353.92 852.48 340.32 859.77 340.32"/><polygon class="cls-7" points="859.77 141.55 856.13 127.95 852.48 141.55 859.77 141.55"/><path class="cls-9" d="M840.25,252.57a6.07,6.07,0,0,0,.07,1.15,4.6,4.6,0,0,0,4,3.94v-.05a3.45,3.45,0,0,1,2.35-6.15,3.79,3.79,0,0,1,4,3.76c0,2.42-1.88,4-4.83,4a7.08,7.08,0,0,1-5.1-1.92,6.08,6.08,0,0,1-1.67-3.62,7.5,7.5,0,0,1-.09-1.12Zm6.54.44a2.3,2.3,0,0,0-2.6,2.33,2.54,2.54,0,0,0,1.39,2.2,1.39,1.39,0,0,0,.68.17c1.87,0,3.25-.89,3.25-2.49C849.51,253.9,848.41,253,846.79,253Z"/><path class="cls-9" d="M849.42,249.21a7,7,0,0,0,0-1.24,4.38,4.38,0,0,0-1.1-2.37,4.91,4.91,0,0,0-3-1.49v0a3.4,3.4,0,0,1-2.24,6,3.88,3.88,0,0,1-4-3.87c0-2.32,1.88-3.75,4.78-3.75a7.13,7.13,0,0,1,5.31,2,5.68,5.68,0,0,1,1.52,3.29,7.44,7.44,0,0,1,.08,1.41Zm-6.52-.56a2.18,2.18,0,0,0,2.41-2.17,2.56,2.56,0,0,0-1.19-2.24,1.08,1.08,0,0,0-.56-.13c-1.93,0-3.41.71-3.41,2.31C840.15,247.73,841.3,248.65,842.9,248.65Z"/><path class="cls-9" d="M849.59,241a1,1,0,1,1,1.1-1A1,1,0,0,1,849.59,241Z"/><path class="cls-9" d="M844.71,230c3.85,0,6,1.43,6,3.94,0,2.21-2.07,3.71-5.82,3.74s-5.89-1.63-5.89-3.93S841.11,230,844.71,230Zm.18,6.15c2.94,0,4.62-.91,4.62-2.3,0-1.57-1.83-2.32-4.73-2.32s-4.61.72-4.61,2.3C840.17,235.2,841.8,236.18,844.89,236.18Z"/><path class="cls-9" d="M840.46,221.86v4.32l2.91.44a6.81,6.81,0,0,1-.07-.93,4.78,4.78,0,0,1,.61-2.44,3.25,3.25,0,0,1,2.91-1.62,3.93,3.93,0,0,1,3.87,4.22,5.51,5.51,0,0,1-.7,2.82l-1.16-.38a5.17,5.17,0,0,0,.62-2.42,2.5,2.5,0,0,0-2.45-2.69c-1.47,0-2.51,1-2.51,3.26a12.14,12.14,0,0,0,.12,1.57l-5.44-.73v-5.42Z"/><path class="cls-9" d="M627.1,201.2a17,17,0,0,1,2.42,1.64,4.85,4.85,0,0,1,2,2.88,3,3,0,0,1-.69,2.32,3.09,3.09,0,0,1-3.6.94l0,0a2.93,2.93,0,0,1-.15,2.93,18.88,18.88,0,0,0-1.32,3.08l-1.22-1a15.41,15.41,0,0,1,1.15-2.68c.75-1.48.64-2.34-.39-3.25l-1.11-.9-3.2,4-1.18-.95Zm-2.18,5.12,1.2,1c1.26,1,2.62,1,3.47-.07s.51-2.38-.73-3.4a6.55,6.55,0,0,0-1.25-.84Z"/><path class="cls-9" d="M626.69,215.77l.59-.73,1.67-.16c4-.32,5.92-.64,7-2a2,2,0,0,0-.36-3.13,3.76,3.76,0,0,0-2.47-.76l.3-1.15a5,5,0,0,1,3.22,1.12,3.2,3.2,0,0,1,.63,4.74c-1.32,1.63-3.56,2-6.86,2.28l-1.23.08,0,0,4,3.19-.8,1Z"/><path class="cls-9" d="M635,220.25a5.2,5.2,0,0,0,1.51,2.13c1.53,1.24,2.79.64,3.37-.1,1-1.25.3-2.67-.85-3.6l-.67-.54.72-.89.67.53c.86.7,2.32,1.14,3.17.1a1.72,1.72,0,0,0-.47-2.58,4.22,4.22,0,0,0-2.24-.84l.39-1.12a5.41,5.41,0,0,1,2.85,1.19c1.74,1.4,1.69,3.06.83,4.13a2.8,2.8,0,0,1-3.3.76l0,0a2.94,2.94,0,0,1,.14,3.85c-1.14,1.41-3.23,1.76-5.35,0A5.79,5.79,0,0,1,634,220.9Z"/><path class="cls-9" d="M552,235.87a15.21,15.21,0,0,1,1.54-2.48,4.73,4.73,0,0,1,2.79-2.16,2.9,2.9,0,0,1,2.34.58,3.08,3.08,0,0,1,1.09,3.56l0,0a3,3,0,0,1,2.94,0,19.81,19.81,0,0,0,3.13,1.19l-.94,1.26a15.31,15.31,0,0,1-2.72-1c-1.51-.68-2.37-.54-3.23.53l-.85,1.15,4.09,3-.91,1.22Zm5.2,2,.92-1.25c1-1.3.87-2.66-.21-3.46s-2.41-.41-3.37.87a6.33,6.33,0,0,0-.78,1.28Z"/><path class="cls-9" d="M560.63,227.1l0,0-.32,2.22-1.11-.46.41-2.78.78-1.05,9.1,6.74-.88,1.19Z"/><path class="cls-9" d="M570.73,227.14a5.1,5.1,0,0,0,2.07-1.59c1.17-1.58.52-2.82-.24-3.36-1.29-.93-2.68-.19-3.57,1l-.5.69-.93-.69.51-.68c.66-.9,1-2.37,0-3.17a1.7,1.7,0,0,0-2.55.58,4.14,4.14,0,0,0-.75,2.26l-1.13-.34a5.34,5.34,0,0,1,1.06-2.9c1.33-1.79,3-1.81,4.1-1a2.8,2.8,0,0,1,.9,3.26l0,0a3,3,0,0,1,3.84-.3c1.46,1.08,1.89,3.16.27,5.35a5.77,5.77,0,0,1-2.37,1.91Z"/><path class="cls-9" d="M576.59,220.67a1,1,0,0,1-.26-1.5,1.1,1.1,0,1,1,.26,1.5Z"/><path class="cls-9" d="M577,216.81a3.22,3.22,0,0,1-1.1-3.61l0,0a2.81,2.81,0,0,1-3.12-.07c-1.44-1.07-1.52-3-.34-4.61,1.31-1.76,3.07-1.83,4.2-1a2.86,2.86,0,0,1,1,3.08l0,0a3.14,3.14,0,0,1,3.71-.09c1.58,1.17,1.64,3.31.35,5.05C580.31,217.49,578.33,217.79,577,216.81Zm-3.49-4.93c.91.68,1.91.36,3-.49a2.23,2.23,0,0,0-.63-2.61,1.77,1.77,0,0,0-2.63.44A1.81,1.81,0,0,0,573.51,211.88Zm7.06,0c-1.11-.82-2.21-.45-3.47.53a2.45,2.45,0,0,0,.66,3,2.1,2.1,0,0,0,3.09-.53A2.05,2.05,0,0,0,580.57,211.87Z"/><line class="cls-8" x1="642.33" y1="234.29" x2="617.51" y2="215.51"/><polygon class="cls-7" points="642.46 230.01 651.1 241.12 638.06 235.82 642.46 230.01"/><line class="cls-8" x1="559.79" y1="253.35" x2="588.14" y2="215.51"/><polygon class="cls-7" points="564.07 253.45 553 262.15 558.24 249.08 564.07 253.45"/><path class="cls-9" d="M605.05,237.83a16.16,16.16,0,0,1,1.75,2.34,4.82,4.82,0,0,1,1,3.39,2.91,2.91,0,0,1-1.4,2,3.06,3.06,0,0,1-3.71-.28l0,0a2.9,2.9,0,0,1-1.09,2.72,19.65,19.65,0,0,0-2.25,2.48l-.83-1.33a15.67,15.67,0,0,1,2-2.15c1.19-1.16,1.37-2,.68-3.21l-.76-1.21-4.31,2.7-.8-1.28ZM601.32,242l.82,1.32c.86,1.37,2.16,1.77,3.3,1.05s1.26-2.08.42-3.45a6,6,0,0,0-.91-1.2Z"/><path class="cls-9" d="M601.6,250.85a5.24,5.24,0,0,0,.73,2.5c1,1.67,2.44,1.52,3.22,1,1.34-.86,1.15-2.43.37-3.69l-.46-.72,1-.61.45.72c.59.94,1.83,1.84,3,1.12a1.7,1.7,0,0,0,.39-2.59,4.19,4.19,0,0,0-1.84-1.52l.73-.93a5.34,5.34,0,0,1,2.32,2.05c1.18,1.89.6,3.45-.57,4.18a2.82,2.82,0,0,1-3.37-.36l0,0a3,3,0,0,1-1.12,3.69c-1.54,1-3.63.61-5.08-1.7a5.7,5.7,0,0,1-.91-2.9Z"/><path class="cls-9" d="M616.76,259.44l-2.29-3.66-2.7,1.17a5.88,5.88,0,0,1,.55.75,4.87,4.87,0,0,1,.78,2.39,3.23,3.23,0,0,1-1.61,2.92,3.92,3.92,0,0,1-5.51-1.52,5.51,5.51,0,0,1-.91-2.76l1.19-.3a5,5,0,0,0,.76,2.39,2.49,2.49,0,0,0,3.5,1c1.23-.79,1.6-2.18.4-4.1a11.75,11.75,0,0,0-.94-1.26l5-2.27,2.87,4.59Z"/><line class="cls-8" x1="632.51" y1="310.21" x2="590.45" y2="245.74"/><polygon class="cls-7" points="634.07 306.22 638.45 319.6 627.97 310.2 634.07 306.22"/><path class="cls-9" d="M305.17,60.13a15.63,15.63,0,0,1,2.16,2,4.87,4.87,0,0,1,1.61,3.14,3,3,0,0,1-1,2.2,3.08,3.08,0,0,1-3.7.41l0,0a2.93,2.93,0,0,1-.56,2.88,17.62,17.62,0,0,0-1.75,2.85l-1.07-1.15A15.91,15.91,0,0,1,302.33,70c1-1.36,1-2.23.08-3.28l-1-1-3.73,3.46-1-1.12Zm-2.89,4.75L303.33,66c1.11,1.19,2.46,1.34,3.44.42s.85-2.28-.23-3.47a5.65,5.65,0,0,0-1.12-1Z"/><path class="cls-9" d="M314.64,72.62l-2.94-3.17-2.43,1.66a6.79,6.79,0,0,1,.68.63A4.83,4.83,0,0,1,311.16,74a3.22,3.22,0,0,1-1,3.16,3.92,3.92,0,0,1-5.7-.46A5.43,5.43,0,0,1,303,74.11l1.11-.51a5.18,5.18,0,0,0,1.19,2.2,2.5,2.5,0,0,0,3.63.29c1.06-1,1.16-2.43-.38-4.09a11.35,11.35,0,0,0-1.16-1.07l4.49-3.16,3.68,4Z"/><line class="cls-8" x1="345.67" y1="126.11" x2="292.31" y2="70.63"/><polygon class="cls-7" points="346.46 121.9 353.26 134.22 341.21 126.95 346.46 121.9"/></g><g id="Watermark"><rect class="cls-13" x="444.86" y="677.27" width="62.89" height="30.62"/><rect class="cls-13" x="507.75" y="677.27" width="47.39" height="30.62"/><path class="cls-14" d="M466.48,683.37l-2.79,18.92H461l-1.55-11-1.53,11h-2.74l-2.8-18.92h2.51l1.79,14.17,1.79-14.17h2l1.79,14.17L464,683.37Z"/><path class="cls-14" d="M467.93,702.29V683.37h2.53v18.92Z"/><path class="cls-14" d="M472.83,683.37h5q2.9,0,2.9,3.24v4.66c0,1.65-.51,2.7-1.51,3.14l1.77,7.88h-2.4l-1.66-7.65h-1.53v7.65h-2.53Zm2.53,9.11H477c.76,0,1.14-.45,1.14-1.37V687c0-.91-.38-1.37-1.14-1.37h-1.66Z"/><path class="cls-14" d="M486.82,685.66v16.63h-2.53V685.66h-2.42v-2.29h7.38v2.29Z"/><path class="cls-14" d="M496.34,702.29V693.7h-3.11v8.59H490.7V683.37h2.53v8h3.11v-8h2.53v18.92Z"/><path class="cls-14" d="M516.31,683.37h5q2.9,0,2.89,3.24v4.66c0,1.65-.5,2.7-1.5,3.14l1.77,7.88H522l-1.66-7.65h-1.53v7.65h-2.53Zm2.53,9.11h1.66c.76,0,1.13-.45,1.13-1.37V687c0-.91-.37-1.37-1.13-1.37h-1.66Z"/><path class="cls-14" d="M528.67,702.29h-2.53V686.61q0-3.24,3-3.24h1.9q3,0,3,3.24v15.68h-2.53v-6.93h-2.9Zm2.9-9.23v-6.29a1,1,0,0,0-1.11-1.11h-.68a1,1,0,0,0-1.11,1.11v6.29Z"/><path class="cls-14" d="M536.34,702.29V683.37h2.53v18.92Z"/><path class="cls-14" d="M547.24,702.29h-6V683.37h2.53V700h3.47Z"/></g></svg>