<svg xmlns="http://www.w3.org/2000/svg" viewBox="0 0 1000 800"><defs><style>.cls-1,.cls-12{fill:#f0f0f0;}.cls-10,.cls-11,.cls-2,.cls-3,.cls-4,.cls-5,.cls-6,.cls-9{fill:none;stroke:#221e1f;}.cls-12,.cls-2{stroke-miterlimit:10;}.cls-10,.cls-2,.cls-3,.cls-4,.cls-5,.cls-6,.cls-9{stroke-width:1.03px;}.cls-3{stroke-dasharray:4.91 4.91;}.cls-5{stroke-dasharray:12.16 5.61;}.cls-6{stroke-dasharray:4.76 4.76;}.cls-7{fill:#303030;}.cls-8{fill:#221e1f;}.cls-9{stroke-dasharray:4.87 4.87;}.cls-10{stroke-dasharray:4.99 4.99;}.cls-11{stroke-width:1.38px;}.cls-12{stroke:#ccc;}.cls-13{fill:#ccc;}</style></defs><g id="Flat"><path class="cls-1" d="M481.44,719.73H197.12c-3.6,0-9.3-5.19-9.3-8.81V700.34c0-3.37,4.51-8.06,7.85-8.4L431.6,668.08c8.5-.79,29.75-9,29.82-31.4.36-123.1.11-349.37.11-349.37a33,33,0,0,0-26.46-32.41s-21-3.91-48.73-9.68c-23.24-4.84-38.53-28.69-38.08-48.16l.08-51.88c0-6.7,7.55-14.59,14.19-15.07,42.25-3,93.57-1.82,111.44,1.24,21.71,3.71,33.19,4.91,44.22,14.77,10.14,9.07,14,24.65,16.81,46.14,2.85,21.91,7.24,42,9.83,58,1.37,8.56,14.52,32.38,46.27,32.07,23.24-.22,48.38-14.53,58.09-33.44,13.42-26.11,12.52-32.41,21.3-90.15.94-6.16,3.58-10.35,11.47-10.35s12.82-.9,19.53-1,16.39,7.51,16.09,16.36-9.53,60.61-13,78S684.51,289,672.43,299.2c-14.46,12.15-29.51,23.7-52,28.66s-82.71,16.5-94.63,19.5-24,17.25-24,29.41-.44,256.39.15,262.84,5.22,24.42,27,27.87c22,3.49,219.25,21.29,236.2,23.59,5.51.76,9.8,3.57,10,8.86.15,4.35.3,6.9.3,10.2a9.3,9.3,0,0,1-8.34,9.6c-9.32,1.41-285.62,0-285.62,0"/><path class="cls-2" d="M481.44,719.73H197.12c-3.6,0-9.3-5.19-9.3-8.81V700.34c0-3.37,4.51-8.06,7.85-8.4L431.6,668.08c8.5-.79,29.75-9,29.82-31.4.36-123.1.11-349.37.11-349.37a33,33,0,0,0-26.46-32.41s-21-3.91-48.73-9.68c-23.24-4.84-38.53-28.69-38.08-48.16l.08-51.88c0-6.7,7.55-14.59,14.19-15.07,42.25-3,93.57-1.82,111.44,1.24,21.71,3.71,33.19,4.91,44.22,14.77,10.14,9.07,14,24.65,16.81,46.14,2.85,21.91,7.24,42,9.83,58,1.37,8.56,14.52,32.38,46.27,32.07,23.24-.22,48.38-14.53,58.09-33.44,13.42-26.11,12.52-32.41,21.3-90.15.94-6.16,3.58-10.35,11.47-10.35s12.82-.9,19.53-1,16.39,7.51,16.09,16.36-9.53,60.61-13,78S684.51,289,672.43,299.2c-14.46,12.15-29.51,23.7-52,28.66s-82.71,16.5-94.63,19.5-24,17.25-24,29.41-.44,256.39.15,262.84,5.22,24.42,27,27.87c22,3.49,219.25,21.29,236.2,23.59,5.51.76,9.8,3.57,10,8.86.15,4.35.3,6.9.3,10.2a9.3,9.3,0,0,1-8.34,9.6C757.74,721.14,481.44,719.73,481.44,719.73Z"/><line class="cls-3" x1="205.81" y1="418.45" x2="839.65" y2="418.45"/><line class="cls-4" x1="753.08" y1="127.97" x2="753.08" y2="147.55"/><path class="cls-2" d="M674.13,170.52c0,2.74-2.57,4.95-5.72,4.95s-5.72-2.21-5.72-4.95,2.56-4.94,5.72-4.94S674.13,167.79,674.13,170.52Zm48.35-6.59a4.91,4.91,0,1,1-4.91-4.94A4.93,4.93,0,0,1,722.48,163.93Zm-186.92,6.59a4.92,4.92,0,1,1-4.91-4.94A4.93,4.93,0,0,1,535.56,170.52ZM444.5,392.91a4.91,4.91,0,1,1-4.91-4.94A4.93,4.93,0,0,1,444.5,392.91Zm-44.63-.6a4.91,4.91,0,1,1-4.91-4.94A4.93,4.93,0,0,1,399.87,392.31Zm4.76,161.48a4.91,4.91,0,1,1-4.91-4.94A4.93,4.93,0,0,1,404.63,553.79Z"/><line class="cls-5" x1="423.97" y1="127.48" x2="421.29" y2="228.42"/><line class="cls-6" x1="668.74" y1="170.85" x2="530.7" y2="170.85"/><line class="cls-4" x1="501.69" y1="457.47" x2="599.58" y2="457.47"/><path class="cls-7" d="M584,441.84h0l-2,1.05-.29-1.15,2.45-1.31h1.29v11.19H584Z"/><path class="cls-7" d="M589.56,451.62v-.93l1.19-1.15c2.86-2.72,4.15-4.17,4.16-5.85a2,2,0,0,0-2.22-2.19,3.82,3.82,0,0,0-2.37.95l-.48-1.07a4.91,4.91,0,0,1,3.16-1.14,3.16,3.16,0,0,1,3.43,3.26c0,2.06-1.5,3.73-3.86,6l-.89.83v0h5v1.26Z"/><line class="cls-4" x1="490.72" y1="457.47" x2="472.36" y2="457.47"/><polygon class="cls-8" points="488.26 454.02 501.69 457.62 488.26 461.22 488.26 454.02"/><polygon class="cls-8" points="474.82 454.02 461.39 457.62 474.82 461.22 474.82 454.02"/><path class="cls-7" d="M523,8.82h0l-1.95,1-.29-1.15,2.45-1.31h1.29V18.6H523Z"/><path class="cls-7" d="M531.78,8.82h0l-1.94,1-.29-1.15L532,7.41h1.29V18.6h-1.46Z"/><path class="cls-7" d="M537.68,16.86a5.13,5.13,0,0,0,2.48.7c1.94,0,2.54-1.23,2.53-2.16,0-1.57-1.43-2.24-2.89-2.24H539V12h.85c1.1,0,2.49-.57,2.49-1.89,0-.9-.57-1.69-2-1.69a4.13,4.13,0,0,0-2.24.74l-.39-1.1a5.3,5.3,0,0,1,2.92-.86c2.2,0,3.2,1.31,3.2,2.67a2.78,2.78,0,0,1-2.06,2.63v0a2.9,2.9,0,0,1,2.49,2.87c0,1.79-1.39,3.36-4.08,3.36a5.68,5.68,0,0,1-2.9-.76Z"/><path class="cls-7" d="M585.43,50.6V47.55h-5.2v-1l5-7.14h1.64v7h1.56v1.19h-1.56V50.6Zm0-4.24V42.63c0-.58,0-1.17.05-1.76h-.05c-.35.66-.62,1.14-.93,1.66l-2.74,3.8v0Z"/><path class="cls-7" d="M589.57,50.6v-.93l1.19-1.15c2.86-2.72,4.15-4.17,4.16-5.86a2,2,0,0,0-2.22-2.18,3.76,3.76,0,0,0-2.37,1l-.48-1.07A4.85,4.85,0,0,1,593,39.22a3.15,3.15,0,0,1,3.43,3.26c0,2.06-1.5,3.73-3.86,6l-.89.83v0h5V50.6Z"/><path class="cls-7" d="M598.52,49.7a1,1,0,1,1,1,1.09A1,1,0,0,1,598.52,49.7Z"/><path class="cls-7" d="M602.32,48.86a5,5,0,0,0,2.48.71c1.94,0,2.55-1.24,2.53-2.17,0-1.57-1.43-2.24-2.89-2.24h-.85V44h.85c1.1,0,2.49-.56,2.49-1.89,0-.89-.57-1.69-2-1.69a4.19,4.19,0,0,0-2.24.74l-.39-1.1a5.3,5.3,0,0,1,2.92-.86c2.21,0,3.2,1.31,3.2,2.67a2.77,2.77,0,0,1-2.06,2.63v0a2.9,2.9,0,0,1,2.49,2.87c0,1.79-1.39,3.36-4.07,3.36a5.69,5.69,0,0,1-2.91-.76Z"/><path class="cls-7" d="M617.46,40.69h-4.27l-.43,2.87a6.65,6.65,0,0,1,.92-.07,4.76,4.76,0,0,1,2.41.6,3.22,3.22,0,0,1,1.6,2.88,3.89,3.89,0,0,1-4.17,3.82,5.55,5.55,0,0,1-2.79-.69l.38-1.15a5.1,5.1,0,0,0,2.39.62,2.47,2.47,0,0,0,2.65-2.43c0-1.45-1-2.48-3.21-2.48a11.79,11.79,0,0,0-1.55.12l.72-5.37h5.35Z"/><line class="cls-4" x1="363.42" y1="24.78" x2="703.72" y2="24.78"/><polygon class="cls-8" points="366.49 29.09 349.7 24.59 366.49 20.09 366.49 29.09"/><polygon class="cls-8" points="700.65 29.09 717.44 24.59 700.65 20.09 700.65 29.09"/><line class="cls-4" x1="114.37" y1="708.6" x2="114.37" y2="139.15"/><polygon class="cls-8" points="117.82 706.14 114.22 719.57 110.62 706.14 117.82 706.14"/><polygon class="cls-8" points="117.82 141.6 114.22 128.17 110.62 141.6 117.82 141.6"/><path class="cls-7" d="M98.88,464.24v0l1.05,2-1.15.29-1.31-2.45v-1.29h11.19v1.47Z"/><path class="cls-7" d="M105.82,458.84a3.2,3.2,0,0,1-3-2.22h-.06a2.76,2.76,0,0,1-2.51,1.78c-1.77,0-3-1.5-3-3.46,0-2.17,1.36-3.26,2.76-3.26a2.85,2.85,0,0,1,2.61,1.84h.06a3.1,3.1,0,0,1,2.89-2.25c1.94,0,3.25,1.67,3.25,3.8C108.85,457.42,107.46,458.84,105.82,458.84ZM100.16,457c1.12,0,1.72-.85,2.06-2.14a2.19,2.19,0,0,0-2-1.7A1.74,1.74,0,0,0,98.37,455,1.78,1.78,0,0,0,100.16,457Zm5.59-4.17c-1.36,0-2,.95-2.44,2.46a2.44,2.44,0,0,0,2.3,2,2.07,2.07,0,0,0,2.14-2.24A2,2,0,0,0,105.75,452.81Z"/><path class="cls-7" d="M103,442.44c3.8,0,5.9,1.41,5.9,3.89,0,2.18-2,3.66-5.75,3.7s-5.82-1.62-5.82-3.89S99.38,442.44,103,442.44Zm.17,6.07c2.91,0,4.56-.89,4.56-2.27,0-1.55-1.81-2.29-4.66-2.29s-4.57.71-4.57,2.27C98.45,447.55,100.07,448.51,103.12,448.51Z"/><path class="cls-7" d="M96.72,433.63a11.31,11.31,0,0,0,7,2.17,11.59,11.59,0,0,0,7-2.17v1.19a11.14,11.14,0,0,1-7,2.25,11.37,11.37,0,0,1-7-2.25Z"/><path class="cls-7" d="M97.47,425.25h1l10.19,4.87v1.57l-9.9-4.86h0v5.48H97.47Z"/><path class="cls-7" d="M107.77,423.57a1,1,0,0,1-1.09-1,1.09,1.09,0,0,1,2.17,0A1,1,0,0,1,107.77,423.57Z"/><path class="cls-7" d="M103,412.69c3.8,0,5.9,1.41,5.9,3.89,0,2.19-2,3.67-5.75,3.7s-5.82-1.62-5.82-3.89S99.38,412.69,103,412.69Zm.17,6.08c2.91,0,4.56-.9,4.56-2.28,0-1.54-1.81-2.29-4.66-2.29s-4.57.71-4.57,2.28C98.45,417.8,100.07,418.77,103.12,418.77Z"/><path class="cls-7" d="M105.82,411.44a3.2,3.2,0,0,1-3-2.22h-.06a2.76,2.76,0,0,1-2.51,1.78c-1.77,0-3-1.5-3-3.46,0-2.17,1.36-3.26,2.76-3.26a2.84,2.84,0,0,1,2.61,1.85h.06a3.1,3.1,0,0,1,2.89-2.26c1.94,0,3.25,1.67,3.25,3.81C108.85,410,107.46,411.44,105.82,411.44Zm-5.66-1.86c1.12,0,1.72-.84,2.06-2.14a2.19,2.19,0,0,0-2-1.7,1.74,1.74,0,0,0-1.82,1.89A1.78,1.78,0,0,0,100.16,409.58Zm5.59-4.17c-1.36,0-2,.95-2.44,2.46a2.44,2.44,0,0,0,2.3,2,2.07,2.07,0,0,0,2.14-2.24A2,2,0,0,0,105.75,405.41Z"/><path class="cls-7" d="M97.47,395.21h1l10.19,4.87v1.57l-9.9-4.86h0v5.48H97.47Z"/><path class="cls-7" d="M96.87,389.48l4.13.3v.91l-4.13.29Zm0,2.57,4.13.29v.93l-4.13.27Z"/><path class="cls-7" d="M110.75,388.19a11.67,11.67,0,0,0-7-2.16,11.47,11.47,0,0,0-7,2.16V387a11,11,0,0,1,7-2.25,11.21,11.21,0,0,1,7,2.25Z"/><path class="cls-7" d="M817.63,580.3a6.83,6.83,0,0,0,0-1.22,4.17,4.17,0,0,0-1.09-2.34,4.92,4.92,0,0,0-3-1.48v0a3.31,3.31,0,0,1,1.2,2.64,3.24,3.24,0,0,1-3.42,3.3,3.84,3.84,0,0,1-4-3.82c0-2.29,1.86-3.7,4.72-3.7a7,7,0,0,1,5.25,1.93,5.56,5.56,0,0,1,1.49,3.25,6.58,6.58,0,0,1,.09,1.39Zm-6.44-.55a2.15,2.15,0,0,0,2.38-2.15,2.5,2.5,0,0,0-1.17-2.2,1,1,0,0,0-.55-.14c-1.91,0-3.38.71-3.38,2.29C808.47,578.84,809.61,579.75,811.19,579.75Z"/><path class="cls-7" d="M808.92,569.07v0l1.05,1.95-1.15.29-1.31-2.44v-1.3H818.7v1.47Z"/><path class="cls-7" d="M817.8,563.41a1,1,0,0,1-1.08-1,1,1,0,0,1,1.08-1,1,1,0,1,1,0,2Z"/><path class="cls-7" d="M808.78,553.29v4.27l2.88.43a5.34,5.34,0,0,1-.07-.91,4.76,4.76,0,0,1,.6-2.41,3.18,3.18,0,0,1,2.88-1.6,3.88,3.88,0,0,1,3.82,4.16,5.52,5.52,0,0,1-.69,2.79l-1.15-.38a5.08,5.08,0,0,0,.61-2.39,2.46,2.46,0,0,0-2.42-2.65c-1.45,0-2.48,1-2.48,3.22a12.09,12.09,0,0,0,.12,1.55l-5.37-.73v-5.35Z"/><path class="cls-7" d="M817.63,550.26a6.83,6.83,0,0,0,0-1.22,4.21,4.21,0,0,0-1.09-2.34,4.92,4.92,0,0,0-3-1.48v0a3.31,3.31,0,0,1,1.2,2.64,3.24,3.24,0,0,1-3.42,3.3,3.84,3.84,0,0,1-4-3.82c0-2.29,1.86-3.7,4.72-3.7a7.08,7.08,0,0,1,5.25,1.93,5.56,5.56,0,0,1,1.49,3.25,6.58,6.58,0,0,1,.09,1.39Zm-6.44-.55a2.15,2.15,0,0,0,2.38-2.15,2.51,2.51,0,0,0-1.17-2.2,1,1,0,0,0-.55-.14c-1.91,0-3.38.71-3.38,2.29C808.47,548.8,809.61,549.71,811.19,549.71Z"/><path class="cls-7" d="M809.49,242.07a5.16,5.16,0,0,0,.07,1.13,4.52,4.52,0,0,0,4,3.89V247a3.41,3.41,0,0,1,2.33-6.07,3.74,3.74,0,0,1,3.94,3.72c0,2.39-1.86,3.95-4.77,3.95a7,7,0,0,1-5-1.89,6.09,6.09,0,0,1-1.65-3.58,7.26,7.26,0,0,1-.09-1.1Zm6.45.43a2.27,2.27,0,0,0-2.56,2.31,2.48,2.48,0,0,0,1.38,2.16,1.21,1.21,0,0,0,.67.18c1.84,0,3.2-.88,3.2-2.46C818.63,243.38,817.54,242.5,815.94,242.5Z"/><path class="cls-7" d="M818.54,238.75a6,6,0,0,0,0-1.22,4.2,4.2,0,0,0-1.08-2.34,4.89,4.89,0,0,0-3-1.48v0a3.36,3.36,0,0,1-2.22,5.94,3.84,3.84,0,0,1-4-3.82c0-2.29,1.86-3.7,4.72-3.7a7.08,7.08,0,0,1,5.25,1.92,5.63,5.63,0,0,1,1.5,3.26,7.2,7.2,0,0,1,.08,1.39Zm-6.43-.55a2.15,2.15,0,0,0,2.37-2.15,2.49,2.49,0,0,0-1.17-2.2,1,1,0,0,0-.55-.14c-1.91,0-3.37.7-3.37,2.29C809.39,237.29,810.52,238.2,812.11,238.2Z"/><path class="cls-7" d="M818.72,230.68a1,1,0,1,1,1.08-1A1,1,0,0,1,818.72,230.68Z"/><path class="cls-7" d="M813.89,219.81c3.81,0,5.91,1.41,5.91,3.89,0,2.18-2,3.66-5.75,3.7s-5.82-1.62-5.82-3.89S810.33,219.81,813.89,219.81Zm.18,6.07c2.91,0,4.56-.89,4.56-2.27,0-1.55-1.81-2.29-4.67-2.29s-4.56.71-4.56,2.27C809.4,224.92,811,225.88,814.07,225.88Z"/><path class="cls-7" d="M809.7,211.74V216l2.87.43a6.65,6.65,0,0,1-.07-.92,4.76,4.76,0,0,1,.6-2.41,3.22,3.22,0,0,1,2.88-1.6,3.89,3.89,0,0,1,3.82,4.17,5.55,5.55,0,0,1-.69,2.79l-1.15-.38a5.1,5.1,0,0,0,.62-2.39,2.47,2.47,0,0,0-2.43-2.65c-1.45,0-2.48,1-2.48,3.21a11.79,11.79,0,0,0,.12,1.55l-5.37-.72v-5.35Z"/><line class="cls-4" x1="198.92" y1="787.52" x2="764.56" y2="787.52"/><polygon class="cls-8" points="201.37 790.97 187.94 787.37 201.37 783.77 201.37 790.97"/><polygon class="cls-8" points="762.11 790.97 775.53 787.37 762.11 783.77 762.11 790.97"/><path class="cls-7" d="M457.7,772h0l-1.94,1.05-.3-1.15,2.45-1.31h1.29v11.19H457.7Z"/><path class="cls-7" d="M463.1,779a3.2,3.2,0,0,1,2.22-3l0-.05a2.77,2.77,0,0,1-1.77-2.51c0-1.78,1.49-3,3.46-3,2.17,0,3.25,1.36,3.25,2.75a2.83,2.83,0,0,1-1.84,2.62v.05a3.1,3.1,0,0,1,2.25,2.89c0,2-1.67,3.26-3.8,3.26C464.51,782,463.1,780.61,463.1,779Zm6-.07c0-1.36-.95-2-2.46-2.45a2.43,2.43,0,0,0-2,2.31,2.06,2.06,0,0,0,2.23,2.13A2,2,0,0,0,469.12,778.91Zm-4.16-5.6c0,1.12.84,1.73,2.13,2.07a2.21,2.21,0,0,0,1.7-2,1.74,1.74,0,0,0-1.89-1.83A1.78,1.78,0,0,0,465,773.31Z"/><path class="cls-7" d="M479.5,776.1c0,3.81-1.42,5.91-3.89,5.91-2.19,0-3.67-2-3.71-5.75s1.62-5.82,3.9-5.82S479.5,772.54,479.5,776.1Zm-6.08.17c0,2.91.89,4.57,2.27,4.57,1.55,0,2.29-1.81,2.29-4.67s-.7-4.56-2.27-4.56C474.38,771.61,473.42,773.23,473.42,776.27Z"/><path class="cls-7" d="M488.3,769.87a11.41,11.41,0,0,0-2.17,7,11.63,11.63,0,0,0,2.17,7h-1.18a11.09,11.09,0,0,1-2.26-7,11.35,11.35,0,0,1,2.26-7Z"/><path class="cls-7" d="M496.68,770.63v1l-4.87,10.19h-1.56l4.85-9.9v0h-5.47v-1.25Z"/><path class="cls-7" d="M498.37,780.92a1,1,0,0,1,1-1.08,1,1,0,0,1,1,1.08,1,1,0,1,1-2,0Z"/><path class="cls-7" d="M509.24,776.1c0,3.81-1.41,5.91-3.89,5.91-2.18,0-3.66-2-3.7-5.75s1.62-5.82,3.89-5.82S509.24,772.54,509.24,776.1Zm-6.07.17c0,2.91.89,4.57,2.27,4.57,1.55,0,2.29-1.81,2.29-4.67s-.71-4.56-2.27-4.56C504.13,771.61,503.17,773.23,503.17,776.27Z"/><path class="cls-7" d="M510.49,779a3.21,3.21,0,0,1,2.23-3l0-.05a2.77,2.77,0,0,1-1.77-2.51c0-1.78,1.49-3,3.45-3,2.17,0,3.26,1.36,3.26,2.75a2.85,2.85,0,0,1-1.84,2.62v.05a3.1,3.1,0,0,1,2.25,2.89c0,2-1.67,3.26-3.8,3.26C511.91,782,510.49,780.61,510.49,779Zm6-.07c0-1.36-.95-2-2.46-2.45a2.44,2.44,0,0,0-2,2.31,2.07,2.07,0,0,0,2.24,2.13A2,2,0,0,0,516.52,778.91Zm-4.17-5.6c0,1.12.85,1.73,2.14,2.07a2.21,2.21,0,0,0,1.7-2,1.74,1.74,0,0,0-1.89-1.83A1.78,1.78,0,0,0,512.35,773.31Z"/><path class="cls-7" d="M526.72,770.63v1l-4.87,10.19h-1.57l4.86-9.9v0h-5.47v-1.25Z"/><path class="cls-7" d="M529.89,770l-.3,4.13h-.93l-.27-4.13Zm2.56,0-.29,4.13h-.91L531,770Z"/><path class="cls-7" d="M533.74,783.9a11.65,11.65,0,0,0,2.17-7,11.43,11.43,0,0,0-2.17-7h1.17a11,11,0,0,1,2.25,7,11.18,11.18,0,0,1-2.25,7Z"/><line class="cls-4" x1="500.03" y1="113.08" x2="500.03" y2="116.95"/><line class="cls-9" x1="500.03" y1="124.65" x2="500.03" y2="752.24"/><line class="cls-4" x1="500.03" y1="756.09" x2="500.03" y2="759.96"/><path class="cls-8" d="M508,734.61v-4.45l-4.05-6h1.69l2.07,3.17c.38.59.74,1.18,1.07,1.77.31-.55.69-1.17,1.14-1.85l2-3.09h1.61l-4.19,6v4.45Z"/><path class="cls-8" d="M508,123.57v-4.44l-4.05-6h1.69l2.07,3.16c.38.6.74,1.19,1.07,1.78.31-.55.69-1.17,1.14-1.85l2-3.09h1.61l-4.19,6v4.44Z"/><line class="cls-4" x1="481.46" y1="86.98" x2="481.46" y2="90.85"/><line class="cls-10" x1="481.46" y1="98.67" x2="481.46" y2="752.17"/><line class="cls-4" x1="481.46" y1="756.09" x2="481.46" y2="759.96"/><polyline class="cls-4" points="530.79 47.71 530.79 170.85 461.24 204.73 419.95 204.73"/><line class="cls-4" x1="173.04" y1="708.53" x2="173.04" y2="675.19"/><polygon class="cls-8" points="176.49 706.08 172.89 719.51 169.29 706.08 176.49 706.08"/><polygon class="cls-8" points="176.49 677.64 172.89 664.21 169.29 677.64 176.49 677.64"/><path class="cls-7" d="M158.07,696.77v0l1.05,2L158,699l-1.31-2.45V695.3h11.19v1.47Z"/><path class="cls-7" d="M156.65,684h1l10.19,4.88v1.56L158,685.55h0V691h-1.26Z"/><line class="cls-4" x1="276.64" y1="253.58" x2="276.64" y2="139.09"/><polygon class="cls-8" points="280.09 251.13 276.49 264.56 272.89 251.13 280.09 251.13"/><polygon class="cls-8" points="280.09 141.54 276.49 128.11 272.89 141.54 280.09 141.54"/><path class="cls-7" d="M270.92,215.51h-3v5.2h-1l-7.15-5v-1.64h7v-1.57h1.19v1.57h3Zm-4.23,0H263c-.58,0-1.17,0-1.75,0v0c.65.34,1.13.62,1.65.93l3.8,2.73h0Z"/><path class="cls-7" d="M261.15,208.08v0l1.05,1.95-1.16.29-1.31-2.45v-1.29h11.19v1.47Z"/><path class="cls-7" d="M270,202.42a1,1,0,0,1-1.09-1,1.09,1.09,0,0,1,2.17,0A1,1,0,0,1,270,202.42Z"/><path class="cls-7" d="M261.15,195.69v0l1.05,1.95L261,198l-1.31-2.44v-1.29h11.19v1.46Z"/><path class="cls-7" d="M261,183.47v4.27l2.87.43a6.61,6.61,0,0,1-.07-.91,4.67,4.67,0,0,1,.61-2.41,3.18,3.18,0,0,1,2.87-1.6,3.88,3.88,0,0,1,3.82,4.16,5.39,5.39,0,0,1-.69,2.79l-1.15-.38a4.92,4.92,0,0,0,.62-2.39,2.47,2.47,0,0,0-2.43-2.65c-1.44,0-2.48,1-2.48,3.22a11.79,11.79,0,0,0,.12,1.55l-5.37-.72v-5.36Z"/><path class="cls-7" d="M607.43,375a15.27,15.27,0,0,1,2.88-.24,4.79,4.79,0,0,1,3.36.95,2.91,2.91,0,0,1,.9,2.21,3,3,0,0,1-2.19,2.95V381a2.87,2.87,0,0,1,1.7,2.34,19,19,0,0,0,.89,3.19h-1.55a15,15,0,0,1-.77-2.77c-.34-1.6-1-2.2-2.32-2.26h-1.41v5h-1.5Zm1.49,5.28h1.53c1.61,0,2.62-.88,2.63-2.2,0-1.5-1.09-2.16-2.67-2.18a6.07,6.07,0,0,0-1.48.14Z"/><path class="cls-7" d="M619.46,376.74h0l-1.94,1.05-.29-1.16,2.44-1.3h1.3l0,11.19h-1.46Z"/><path class="cls-7" d="M632.43,380.84c0,3.81-1.43,5.9-3.91,5.9-2.18,0-3.66-2.06-3.69-5.76s1.63-5.81,3.91-5.81S632.43,377.28,632.43,380.84Zm-6.08.16c0,2.91.88,4.57,2.26,4.57,1.55,0,2.29-1.8,2.3-4.66s-.7-4.56-2.26-4.57C627.32,376.34,626.35,378,626.35,381Z"/><polyline class="cls-4" points="632.44 392.94 567.7 392.94 518.31 365.23"/><polygon class="cls-8" points="522.14 363.42 508.67 359.99 518.62 369.7 522.14 363.42"/><path class="cls-7" d="M767.43,316.7a15.27,15.27,0,0,1,2.88-.23,4.69,4.69,0,0,1,3.35.95,2.91,2.91,0,0,1,.91,2.2,3.05,3.05,0,0,1-2.19,3v.05a2.89,2.89,0,0,1,1.69,2.35,18.47,18.47,0,0,0,.89,3.18h-1.54a15.27,15.27,0,0,1-.78-2.77c-.33-1.6-.95-2.21-2.31-2.26h-1.41v5h-1.5Zm1.49,5.29h1.53c1.6,0,2.62-.87,2.62-2.2,0-1.49-1.08-2.15-2.66-2.17a6,6,0,0,0-1.48.14Z"/><path class="cls-7" d="M776.51,326.45a5.23,5.23,0,0,0,2.48.71c1.94,0,2.55-1.24,2.53-2.17,0-1.56-1.42-2.24-2.88-2.24h-.85v-1.14h.84c1.1,0,2.5-.56,2.5-1.89,0-.89-.57-1.68-2-1.69a4.13,4.13,0,0,0-2.24.74l-.39-1.1a5.31,5.31,0,0,1,2.93-.86c2.2,0,3.19,1.32,3.19,2.68a2.78,2.78,0,0,1-2.07,2.63v0a2.91,2.91,0,0,1,2.49,2.88c0,1.79-1.4,3.35-4.08,3.35a5.58,5.58,0,0,1-2.91-.77Z"/><path class="cls-7" d="M791.67,318.32H787.4l-.43,2.87a6.61,6.61,0,0,1,.91-.07,4.88,4.88,0,0,1,2.41.61,3.17,3.17,0,0,1,1.59,2.88,3.87,3.87,0,0,1-4.17,3.81,5.55,5.55,0,0,1-2.79-.69l.38-1.15a5.11,5.11,0,0,0,2.4.62,2.47,2.47,0,0,0,2.65-2.42c0-1.45-1-2.48-3.21-2.49a11.79,11.79,0,0,0-1.55.12l.73-5.37h5.35Z"/><path class="cls-7" d="M846.14,424.32l-1.47-2.56c-.6-1-1-1.62-1.34-2.3h0c-.33.67-.66,1.29-1.26,2.31l-1.4,2.54h-1.72l3.55-5.86-3.39-5.74h1.73l1.53,2.72c.43.76.76,1.35,1.06,2h.06c.32-.69.62-1.22,1-2l1.59-2.72h1.72l-3.54,5.63,3.6,6Z"/><path class="cls-7" d="M200.75,424.33l-1.48-2.57c-.6-1-1-1.62-1.34-2.29h0c-.33.67-.66,1.29-1.26,2.3l-1.4,2.55h-1.72l3.55-5.86-3.39-5.74h1.73l1.53,2.72c.43.76.76,1.34,1.06,2h.06c.32-.69.62-1.22,1.05-2l1.59-2.71h1.72l-3.54,5.64,3.6,6Z"/><polyline class="cls-4" points="792.44 334.62 727.7 334.62 678.31 306.9"/><polygon class="cls-8" points="682.14 305.1 668.66 301.66 678.61 311.37 682.14 305.1"/><path class="cls-7" d="M248.32,276.49a15.34,15.34,0,0,1,2.88-.23,4.69,4.69,0,0,1,3.35.95,2.88,2.88,0,0,1,.91,2.2,3,3,0,0,1-2.19,3v.05a2.89,2.89,0,0,1,1.7,2.35,17.56,17.56,0,0,0,.89,3.18h-1.55a14.72,14.72,0,0,1-.77-2.77c-.34-1.6-1-2.21-2.32-2.26h-1.41v5h-1.5Zm1.49,5.29h1.53c1.6,0,2.62-.87,2.62-2.2,0-1.49-1.08-2.15-2.66-2.17a6.07,6.07,0,0,0-1.48.14Z"/><path class="cls-7" d="M260.35,278.2h0l-1.94,1-.29-1.15,2.44-1.3h1.29l0,11.19h-1.46Z"/><path class="cls-7" d="M272.58,278.1h-4.27l-.43,2.88a5.25,5.25,0,0,1,.91-.07,4.67,4.67,0,0,1,2.41.61,3.17,3.17,0,0,1,1.59,2.87,3.88,3.88,0,0,1-4.17,3.82,5.44,5.44,0,0,1-2.79-.7l.38-1.15a5.09,5.09,0,0,0,2.39.63,2.48,2.48,0,0,0,2.66-2.43c0-1.44-1-2.48-3.21-2.48a11.79,11.79,0,0,0-1.55.12l.73-5.37h5.35Z"/><path class="cls-7" d="M421.32,186.64a16.16,16.16,0,0,1,2.88-.24,4.74,4.74,0,0,1,3.35,1,2.86,2.86,0,0,1,.91,2.2,3.05,3.05,0,0,1-2.19,3v0a2.91,2.91,0,0,1,1.7,2.34,18,18,0,0,0,.89,3.19h-1.55a14.67,14.67,0,0,1-.77-2.78c-.34-1.6-1-2.2-2.32-2.26h-1.41v5h-1.5Zm1.49,5.29h1.53c1.6,0,2.62-.87,2.62-2.2,0-1.5-1.08-2.15-2.66-2.17a6.23,6.23,0,0,0-1.48.13Z"/><path class="cls-7" d="M433.35,188.35h0l-1.94,1.05-.29-1.16,2.44-1.3h1.29l0,11.19h-1.46Z"/><path class="cls-7" d="M439.25,196.41a5,5,0,0,0,2.47.71c1.95,0,2.55-1.23,2.54-2.16,0-1.57-1.43-2.24-2.89-2.24h-.84v-1.14h.84c1.11,0,2.5-.56,2.5-1.89,0-.89-.56-1.68-1.95-1.69a4.13,4.13,0,0,0-2.24.74l-.4-1.1a5.33,5.33,0,0,1,2.93-.86c2.2,0,3.2,1.32,3.2,2.68a2.78,2.78,0,0,1-2.08,2.62v0a2.92,2.92,0,0,1,2.5,2.88c0,1.79-1.41,3.35-4.09,3.35a5.68,5.68,0,0,1-2.91-.77Z"/><path class="cls-7" d="M380.39,185.06a15.22,15.22,0,0,1-.33-2.86,4.78,4.78,0,0,1,.83-3.39,2.91,2.91,0,0,1,2.18-1,3.05,3.05,0,0,1,3,2.09h0a2.91,2.91,0,0,1,2.28-1.78,18.57,18.57,0,0,0,3.15-1l.06,1.54a15.61,15.61,0,0,1-2.75.87c-1.59.4-2.17,1-2.18,2.4l.05,1.41,5-.17.05,1.5Zm5.24-1.67-.06-1.53c-.05-1.6-1-2.58-2.28-2.54-1.5.05-2.12,1.15-2.08,2.74a6.41,6.41,0,0,0,.18,1.47Z"/><path class="cls-7" d="M389.8,175.65a5.13,5.13,0,0,0,.62-2.5c-.06-2-1.32-2.51-2.25-2.46-1.57.07-2.19,1.5-2.14,3l0,.84-1.14,0,0-.84c0-1.1-.65-2.48-2-2.43-.9,0-1.67.62-1.62,2a4.15,4.15,0,0,0,.81,2.22l-1.09.43a5.31,5.31,0,0,1-.95-2.9c-.08-2.2,1.2-3.24,2.56-3.29a2.8,2.8,0,0,1,2.7,2h0a2.91,2.91,0,0,1,2.79-2.59c1.79-.06,3.4,1.28,3.49,4A5.73,5.73,0,0,1,391,176Z"/><path class="cls-7" d="M385.3,159.87c3.8-.12,5.94,1.22,6,3.7.07,2.18-1.93,3.73-5.63,3.88s-5.87-1.42-5.94-3.69S381.74,160,385.3,159.87Zm.37,6.07c2.91-.1,4.53-1,4.48-2.42,0-1.55-1.88-2.23-4.73-2.14s-4.54.86-4.49,2.43C381,165.13,382.62,166,385.67,165.94Z"/><path class="cls-7" d="M385,151c3.8-.12,5.95,1.22,6,3.7.07,2.18-1.93,3.73-5.63,3.88s-5.86-1.42-5.94-3.69S381.45,151.15,385,151Zm.37,6.07c2.91-.1,4.53-1,4.48-2.42-.05-1.55-1.88-2.23-4.73-2.14s-4.54.86-4.49,2.43C380.69,156.29,382.34,157.2,385.38,157.1Z"/><path class="cls-7" d="M434.52,174.83a16.48,16.48,0,0,1-.08-2.88,4.77,4.77,0,0,1,1.15-3.3,2.91,2.91,0,0,1,2.25-.78,3.06,3.06,0,0,1,2.83,2.36h.05a2.88,2.88,0,0,1,2.43-1.57,18.69,18.69,0,0,0,3.23-.7l-.09,1.54a14.76,14.76,0,0,1-2.81.61c-1.62.25-2.25.84-2.38,2.19l-.09,1.41,5,.3-.09,1.49Zm5.36-1.18.09-1.53c.09-1.6-.73-2.67-2.05-2.74-1.49-.09-2.21,1-2.32,2.53a6.64,6.64,0,0,0,0,1.49Z"/><path class="cls-7" d="M444.74,166.33a5.1,5.1,0,0,0,.85-2.44c.11-1.94-1.09-2.61-2-2.65-1.56-.07-2.31,1.3-2.4,2.76l-.05.84-1.13-.07,0-.84c.07-1.1-.42-2.52-1.74-2.6-.89-.05-1.72.47-1.8,1.86a4.13,4.13,0,0,0,.61,2.28l-1.12.33a5.29,5.29,0,0,1-.69-3c.13-2.2,1.49-3.12,2.85-3a2.77,2.77,0,0,1,2.51,2.21h0a2.92,2.92,0,0,1,3-2.32c1.78.1,3.27,1.59,3.11,4.27a5.61,5.61,0,0,1-.93,2.86Z"/><path class="cls-7" d="M441.7,150.22c3.79.22,5.81,1.76,5.66,4.23-.12,2.18-2.26,3.54-5.95,3.36s-5.72-2-5.58-4.22S438.14,150,441.7,150.22Zm-.19,6.08c2.91.17,4.61-.63,4.69-2,.09-1.55-1.67-2.4-4.52-2.56s-4.6.44-4.69,2C436.91,155.06,438.47,156.12,441.51,156.3Z"/><path class="cls-7" d="M442.21,141.41c3.8.23,5.82,1.76,5.67,4.23-.13,2.18-2.26,3.54-5.95,3.36s-5.72-1.95-5.58-4.22S438.66,141.21,442.21,141.41Zm-.18,6.08c2.91.17,4.61-.63,4.69-2,.09-1.55-1.67-2.39-4.53-2.56s-4.59.44-4.68,2C437.43,146.26,439,147.31,442,147.49Z"/><path class="cls-7" d="M357.7,206.06a14.65,14.65,0,0,1-.7-2.8,4.71,4.71,0,0,1,.39-3.46,2.85,2.85,0,0,1,2-1.26,3,3,0,0,1,3.27,1.68h.05a2.9,2.9,0,0,1,2-2.06,18.85,18.85,0,0,0,3-1.39l.25,1.52a15,15,0,0,1-2.61,1.21c-1.53.6-2,1.31-1.85,2.66l.22,1.4,5-.81.24,1.47Zm5-2.33-.24-1.51c-.26-1.58-1.29-2.44-2.6-2.23-1.48.24-1.95,1.42-1.71,3a6.78,6.78,0,0,0,.37,1.44Z"/><path class="cls-7" d="M364.81,196.21a3.18,3.18,0,0,1-3.31-1.71l-.05,0a2.75,2.75,0,0,1-2.2,2.15c-1.75.29-3.18-1-3.49-2.93-.35-2.14.82-3.43,2.19-3.65a2.83,2.83,0,0,1,2.88,1.39h.05a3.11,3.11,0,0,1,2.49-2.69c1.92-.31,3.48,1.12,3.83,3.23C367.57,194.33,366.42,196,364.81,196.21Zm-5.89-.92c1.11-.18,1.56-1.11,1.7-2.44a2.19,2.19,0,0,0-2.28-1.35,1.73,1.73,0,0,0-1.5,2.16A1.78,1.78,0,0,0,358.92,195.29Zm4.85-5c-1.34.22-1.83,1.26-2,2.82a2.43,2.43,0,0,0,2.6,1.62,2.08,2.08,0,0,0,1.74-2.56A2,2,0,0,0,363.77,190.28Z"/><path class="cls-7" d="M359.33,180.51c3.76-.61,6.06.44,6.46,2.89.35,2.15-1.44,3.95-5.08,4.58s-6-.66-6.37-2.91S355.81,181.08,359.33,180.51Zm1.15,6c2.87-.47,4.36-1.62,4.14-3-.25-1.53-2.16-2-5-1.51s-4.38,1.44-4.13,3C355.72,186.28,357.47,187,360.48,186.48Z"/><path class="cls-7" d="M459.26,231.87a16.24,16.24,0,0,1,.47-2.84,4.74,4.74,0,0,1,1.74-3,2.93,2.93,0,0,1,2.36-.35,3.05,3.05,0,0,1,2.33,2.85h0a2.89,2.89,0,0,1,2.69-1.08,18.8,18.8,0,0,0,3.31-.09l-.38,1.5a15.19,15.19,0,0,1-2.88.07c-1.63,0-2.37.4-2.75,1.71l-.35,1.37,4.88,1.22-.37,1.45Zm5.49-.16.38-1.49c.39-1.55-.22-2.75-1.5-3.07-1.45-.37-2.35.53-2.76,2.06a6.26,6.26,0,0,0-.22,1.47Z"/><path class="cls-7" d="M469.7,225.65a3.2,3.2,0,0,1-2.36-2.89h0a2.76,2.76,0,0,1-2.87,1.1c-1.72-.43-2.53-2.17-2.05-4.08.53-2.1,2.11-2.82,3.47-2.48a2.83,2.83,0,0,1,2.08,2.42l.06,0a3.1,3.1,0,0,1,3.35-1.49c1.88.48,2.75,2.42,2.23,4.49C473,225,471.29,226,469.7,225.65Zm-5-3.19c1.09.28,1.88-.4,2.53-1.56a2.2,2.2,0,0,0-1.56-2.15,1.74,1.74,0,0,0-2.23,1.39A1.78,1.78,0,0,0,464.66,222.46Zm6.45-2.67c-1.32-.34-2.19.42-3,1.79a2.42,2.42,0,0,0,1.74,2.51,2.07,2.07,0,0,0,2.62-1.65A2,2,0,0,0,471.11,219.79Z"/><path class="cls-7" d="M470.91,209c3.69.93,5.39,2.81,4.78,5.21-.53,2.12-2.88,3.06-6.48,2.19s-5.24-3-4.69-5.19S467.46,208.17,470.91,209ZM469.6,215c2.82.7,4.64.24,5-1.1.37-1.5-1.2-2.66-4-3.35s-4.59-.43-5,1.09C465.31,212.9,466.64,214.23,469.6,215Z"/><path class="cls-7" d="M613.54,222.09a15.59,15.59,0,0,1,1.67,2.35,4.81,4.81,0,0,1,.89,3.38,2.9,2.9,0,0,1-1.44,1.9,3,3,0,0,1-3.66-.38l0,0a2.89,2.89,0,0,1-1.15,2.66,18.9,18.9,0,0,0-2.29,2.39l-.78-1.34a14.21,14.21,0,0,1,2-2.07c1.2-1.11,1.41-1.95.76-3.15l-.72-1.21-4.33,2.55-.76-1.29Zm-3.79,4,.78,1.32c.81,1.37,2.08,1.8,3.23,1.13s1.3-2,.51-3.4a6.26,6.26,0,0,0-.88-1.21Z"/><path class="cls-7" d="M608.13,235.41l.8-.47,1.6.44c3.79,1.07,5.7,1.45,7.16.61a2,2,0,0,0,.75-3,3.86,3.86,0,0,0-2-1.56l.67-1a5,5,0,0,1,2.59,2.15,3.16,3.16,0,0,1-1.06,4.61c-1.78,1.05-4,.61-7.13-.27l-1.17-.35,0,0,2.56,4.33-1.08.63Z"/><path class="cls-7" d="M614.32,242.43a5,5,0,0,0,.65,2.5c1,1.67,2.36,1.56,3.15,1.07,1.34-.81,1.2-2.37.46-3.62l-.43-.73,1-.58.43.73c.56.95,1.76,1.86,2.9,1.18a1.68,1.68,0,0,0,.45-2.54,4.08,4.08,0,0,0-1.77-1.55l.74-.91a5.34,5.34,0,0,1,2.23,2.09c1.12,1.89.5,3.42-.67,4.11a2.76,2.76,0,0,1-3.31-.44l0,0a2.92,2.92,0,0,1-1.21,3.61c-1.54.91-3.6.51-5-1.81a5.69,5.69,0,0,1-.83-2.89Z"/><path class="cls-7" d="M559.71,252.33a15.24,15.24,0,0,1,1-2.71,4.74,4.74,0,0,1,2.25-2.66,2.9,2.9,0,0,1,2.39.08,3,3,0,0,1,1.78,3.22l0,0a2.93,2.93,0,0,1,2.84-.58,17.64,17.64,0,0,0,3.27.51l-.65,1.41a14.8,14.8,0,0,1-2.84-.44c-1.6-.36-2.4,0-3,1.17l-.58,1.29,4.57,2.08-.62,1.37Zm5.43.84.63-1.4c.67-1.45.29-2.74-.92-3.29-1.36-.62-2.4.09-3.08,1.52a6.34,6.34,0,0,0-.49,1.41Z"/><path class="cls-7" d="M566.21,242.1v0l.15,2.21-1.17-.22-.18-2.76.54-1.18,10.17,4.65-.6,1.33Z"/><path class="cls-7" d="M576,240.07a5.07,5.07,0,0,0,1.67-2c.8-1.77-.07-2.83-.93-3.2-1.43-.64-2.62.37-3.23,1.7l-.35.77-1-.48.35-.76c.46-1,.53-2.51-.68-3.06a1.69,1.69,0,0,0-2.35,1.09,4.14,4.14,0,0,0-.26,2.34l-1.16-.1a5.31,5.31,0,0,1,.43-3c.91-2,2.52-2.37,3.76-1.8a2.78,2.78,0,0,1,1.53,3h0a2.92,2.92,0,0,1,3.65-1.07c1.62.74,2.47,2.66,1.36,5.1a5.67,5.67,0,0,1-1.9,2.33Z"/><path class="cls-7" d="M580.31,232.61a1,1,0,1,1,1.41-.47A1,1,0,0,1,580.31,232.61Z"/><path class="cls-7" d="M579.9,228.81a3.19,3.19,0,0,1-1.8-3.26h-.05a2.77,2.77,0,0,1-3,.57c-1.61-.73-2.08-2.6-1.27-4.38.9-2,2.59-2.4,3.86-1.82a2.85,2.85,0,0,1,1.61,2.77l0,0a3.1,3.1,0,0,1,3.57-.85c1.77.8,2.26,2.87,1.38,4.81C583.24,228.79,581.39,229.49,579.9,228.81Zm-4.38-4c1,.47,1.92-.05,2.77-1.08a2.22,2.22,0,0,0-1.14-2.4,1.74,1.74,0,0,0-2.45,1A1.78,1.78,0,0,0,575.52,224.77Zm6.82-1.47c-1.24-.56-2.22,0-3.24,1.23a2.43,2.43,0,0,0,1.26,2.79,2.07,2.07,0,0,0,2.87-1.15A2,2,0,0,0,582.34,223.3Z"/><path class="cls-7" d="M529.06,237.13v0l1.42,1.7-1.08.52-1.76-2.14-.25-1.27,11-2.21.29,1.44Z"/><path class="cls-7" d="M530.69,231a1,1,0,1,1,.85-1.21A1,1,0,0,1,530.69,231Zm6-1.2a1,1,0,1,1,.85-1.21A1,1,0,0,1,536.65,229.83Z"/><path class="cls-7" d="M525.65,222a5.16,5.16,0,0,0,.29,1.1,4.55,4.55,0,0,0,4.66,3v-.05a3.41,3.41,0,0,1,1.08-6.41,3.74,3.74,0,0,1,4.6,2.86c.47,2.35-1,4.25-3.89,4.83a7,7,0,0,1-5.32-.87,6.08,6.08,0,0,1-2.33-3.18,8.73,8.73,0,0,1-.3-1.06Zm6.41-.85a2.28,2.28,0,0,0-2.06,2.77,2.48,2.48,0,0,0,1.78,1.85,1.3,1.3,0,0,0,.69,0c1.8-.4,3-1.49,2.65-3.05C534.86,221.5,533.63,220.86,532.06,221.17Z"/><path class="cls-7" d="M649.68,212.34v0l.76,2.07-1.18.13-1-2.6.18-1.28,11.07,1.57-.2,1.44Z"/><path class="cls-7" d="M653.26,207.15a1,1,0,1,1,.29-2,1,1,0,1,1-.29,2Zm6,.85a1,1,0,0,1-.93-1.18,1.08,1.08,0,1,1,.93,1.18Z"/><path class="cls-7" d="M651.5,197a5.43,5.43,0,0,0-.09,1.14,4.56,4.56,0,0,0,3.39,4.41v-.05a3.36,3.36,0,0,1-.9-2.86,3.32,3.32,0,0,1,4.05-2.83,3.74,3.74,0,0,1,3.39,4.23c-.34,2.37-2.4,3.66-5.28,3.25a7,7,0,0,1-4.73-2.58,6.09,6.09,0,0,1-1.13-3.78,6.52,6.52,0,0,1,.07-1.1Zm6.33,1.33a2.28,2.28,0,0,0-2.86,1.93,2.5,2.5,0,0,0,1.06,2.34,1.21,1.21,0,0,0,.64.26c1.83.23,3.29-.42,3.52-2C660.37,199.55,659.42,198.53,657.83,198.3Z"/><path class="cls-7" d="M578.7,320.52h0L577,321.92l-.5-1.08,2.16-1.74,1.26-.24,2.09,11-1.43.27Z"/><path class="cls-7" d="M584.78,322.24a1,1,0,1,1,2-.39,1,1,0,1,1-2,.39Zm1.14,6a1,1,0,1,1,1.2.86A1,1,0,0,1,585.92,328.21Z"/><path class="cls-7" d="M594.17,317.44l-4.19.8.11,2.9a6.7,6.7,0,0,1,.89-.24,4.82,4.82,0,0,1,2.48.14,3.22,3.22,0,0,1,2.11,2.53,3.88,3.88,0,0,1-3.38,4.53,5.57,5.57,0,0,1-2.87-.15l.16-1.21a4.91,4.91,0,0,0,2.46.16,2.46,2.46,0,0,0,2.15-2.88c-.28-1.41-1.42-2.25-3.62-1.83a11.35,11.35,0,0,0-1.5.41l-.29-5.41,5.25-1Z"/><path class="cls-7" d="M413.14,237.1h0l-2.1.69-.08-1.18,2.63-.86,1.27.23-2,11-1.44-.26Z"/><path class="cls-7" d="M417.14,246.86a1,1,0,1,1,2,.36,1,1,0,1,1-2-.36Zm1.08-6a1,1,0,1,1,.81,1.23A1,1,0,0,1,418.22,240.88Z"/><path class="cls-7" d="M428.72,239.76l-4.2-.76-.94,2.76a6,6,0,0,1,.91.09,4.72,4.72,0,0,1,2.27,1,3.2,3.2,0,0,1,1.06,3.11,3.88,3.88,0,0,1-4.77,3,5.43,5.43,0,0,1-2.62-1.18l.57-1.06a5.08,5.08,0,0,0,2.25,1,2.48,2.48,0,0,0,3-1.92c.23-1.43-.53-2.61-2.73-3a11.54,11.54,0,0,0-1.55-.15l1.66-5.16,5.27.95Z"/><path class="cls-7" d="M697,215.58v0l.77,2.07-1.18.13-1-2.6.18-1.28,11.08,1.57-.2,1.45Z"/><path class="cls-7" d="M700.6,210.38a1,1,0,1,1,1.2-.85A1,1,0,0,1,700.6,210.38Zm6,.85a1,1,0,1,1,1.19-.85A1,1,0,0,1,706.62,211.23Z"/><path class="cls-7" d="M698.84,200.21a5.33,5.33,0,0,0-.09,1.13,4.54,4.54,0,0,0,3.39,4.41v-.05A3.41,3.41,0,0,1,705.3,200a3.73,3.73,0,0,1,3.38,4.23c-.33,2.37-2.39,3.66-5.27,3.26a7,7,0,0,1-4.73-2.59,6.13,6.13,0,0,1-1.14-3.77,8.05,8.05,0,0,1,.07-1.11Zm6.33,1.33a2.26,2.26,0,0,0-2.86,1.92,2.47,2.47,0,0,0,1.06,2.34,1.22,1.22,0,0,0,.64.27c1.83.22,3.29-.42,3.51-2C707.7,202.78,706.75,201.76,705.17,201.54Z"/><polyline class="cls-4" points="240.83 294.41 305.57 294.41 350.46 233.4"/><polygon class="cls-8" points="351.78 237.42 356.84 224.47 345.98 233.15 351.78 237.42"/><path class="cls-7" d="M319.71,323.22a16,16,0,0,1,2.87-.23,4.74,4.74,0,0,1,3.36.95,2.88,2.88,0,0,1,.9,2.21,3,3,0,0,1-2.19,3v0a2.89,2.89,0,0,1,1.7,2.35,18.47,18.47,0,0,0,.89,3.18h-1.55a15.59,15.59,0,0,1-.77-2.77c-.34-1.6-1-2.21-2.32-2.26h-1.41v5h-1.5Zm1.48,5.29h1.54c1.6,0,2.61-.87,2.62-2.2,0-1.49-1.08-2.15-2.67-2.17a6.07,6.07,0,0,0-1.48.14Z"/><path class="cls-7" d="M331.73,324.94h0l-1.95,1-.29-1.15,2.45-1.31h1.29l0,11.18h-1.46Z"/><path class="cls-7" d="M344.7,329c0,3.8-1.43,5.9-3.91,5.89-2.18,0-3.66-2.05-3.69-5.75s1.63-5.82,3.91-5.81S344.7,325.48,344.7,329Zm-6.08.16c0,2.91.89,4.56,2.26,4.56,1.55,0,2.29-1.8,2.3-4.66s-.7-4.56-2.26-4.56C339.59,324.54,338.63,326.15,338.62,329.2Z"/><polyline class="cls-4" points="312.21 341.14 376.95 341.14 447.54 275.82"/><polygon class="cls-8" points="448.08 280.01 455.5 268.25 443.19 274.73 448.08 280.01"/><line class="cls-4" x1="359.26" y1="56.22" x2="519.81" y2="56.22"/><polygon class="cls-8" points="361.72 59.66 348.29 56.07 361.72 52.46 361.72 59.66"/><polygon class="cls-8" points="517.36 59.66 530.79 56.07 517.36 52.46 517.36 59.66"/><line class="cls-4" x1="541.76" y1="56.22" x2="659.26" y2="56.22"/><polygon class="cls-8" points="544.22 59.66 530.79 56.07 544.22 52.46 544.22 59.66"/><polygon class="cls-8" points="656.81 59.66 670.24 56.07 656.81 52.46 656.81 59.66"/><line class="cls-4" x1="493.38" y1="97.16" x2="519.73" y2="97.16"/><polygon class="cls-8" points="495.84 100.61 482.41 97.02 495.84 93.41 495.84 100.61"/><polygon class="cls-8" points="517.28 100.61 530.71 97.02 517.28 93.41 517.28 100.61"/><line class="cls-4" x1="563.36" y1="159.82" x2="563.36" y2="139.15"/><polygon class="cls-8" points="566.8 157.37 563.21 170.8 559.61 157.37 566.8 157.37"/><polygon class="cls-8" points="566.8 141.6 563.21 128.17 559.61 141.6 566.8 141.6"/><line class="cls-4" x1="753.08" y1="187.93" x2="753.08" y2="158.52"/><polygon class="cls-8" points="756.53 160.98 752.93 147.55 749.33 160.98 756.53 160.98"/><line class="cls-4" x1="753.08" y1="116.38" x2="753.08" y2="103.74"/><polygon class="cls-8" points="756.53 113.93 752.93 127.36 749.33 113.93 756.53 113.93"/><path class="cls-7" d="M789.68,80.53a15.2,15.2,0,0,1,2.88-.24,4.74,4.74,0,0,1,3.35.95,2.88,2.88,0,0,1,.91,2.21,3,3,0,0,1-2.19,3v.06a2.9,2.9,0,0,1,1.7,2.34,18,18,0,0,0,.89,3.19h-1.55a14.24,14.24,0,0,1-.77-2.77c-.34-1.6-1-2.2-2.32-2.26h-1.41v5h-1.5Zm1.49,5.28h1.53c1.6,0,2.62-.88,2.62-2.2,0-1.5-1.08-2.16-2.66-2.18a6,6,0,0,0-1.48.14Z"/><path class="cls-7" d="M805.1,82.1h-4.27L800.39,85a5.38,5.38,0,0,1,.92-.07,4.61,4.61,0,0,1,2.4.61,3.18,3.18,0,0,1,1.6,2.88,3.88,3.88,0,0,1-4.17,3.81,5.49,5.49,0,0,1-2.79-.69l.38-1.16a5.05,5.05,0,0,0,2.39.63,2.48,2.48,0,0,0,2.66-2.42c0-1.45-1-2.49-3.22-2.49a12.09,12.09,0,0,0-1.55.12l.74-5.37h5.35Z"/><path class="cls-7" d="M575.12,80.54A16,16,0,0,1,578,80.3a4.79,4.79,0,0,1,3.36,1,2.85,2.85,0,0,1,.9,2.2,3,3,0,0,1-2.19,3v0a2.87,2.87,0,0,1,1.7,2.34,19,19,0,0,0,.89,3.19H581.1a15.52,15.52,0,0,1-.77-2.78c-.34-1.6-1-2.2-2.32-2.26H576.6v5h-1.5Zm1.48,5.29h1.54c1.6,0,2.61-.87,2.62-2.2,0-1.5-1.08-2.15-2.67-2.17a6.23,6.23,0,0,0-1.48.13Z"/><path class="cls-7" d="M584.2,90.28a5,5,0,0,0,2.48.71c1.94,0,2.55-1.23,2.53-2.16,0-1.57-1.42-2.24-2.89-2.25h-.84V85.45h.85c1.1,0,2.49-.57,2.5-1.89,0-.9-.57-1.69-2-1.69a4.13,4.13,0,0,0-2.24.73l-.4-1.1a5.28,5.28,0,0,1,2.93-.85c2.2,0,3.2,1.31,3.2,2.67A2.8,2.8,0,0,1,588.29,86v0a2.93,2.93,0,0,1,2.49,2.88c0,1.79-1.4,3.36-4.09,3.35a5.69,5.69,0,0,1-2.91-.76Z"/><polyline class="cls-4" points="813.96 97.27 749.22 97.27 718.53 142.85"/><polygon class="cls-8" points="717.04 138.89 712.52 152.04 723.01 142.91 717.04 138.89"/><polyline class="cls-4" points="571.28 98.44 636.02 98.44 667.23 142.37"/><polygon class="cls-8" points="662.99 142.36 673.7 151.23 668.86 138.19 662.99 142.36"/><path class="cls-4" d="M589.76,282.35H814M640,147.55H776.11"/><line class="cls-11" x1="268.06" y1="264.56" x2="481.46" y2="264.56"/><line class="cls-4" x1="511" y1="757.51" x2="583.85" y2="757.51"/><polygon class="cls-8" points="513.46 761.11 500.02 757.51 513.46 753.91 513.46 761.11"/><line class="cls-4" x1="397.26" y1="757.51" x2="470.11" y2="757.51"/><polygon class="cls-8" points="467.65 761.11 481.08 757.51 467.65 753.91 467.65 761.11"/><line class="cls-4" x1="481.46" y1="757.51" x2="500.03" y2="757.51"/><path class="cls-7" d="M560.15,741.75h-4.27l-.43,2.87a6.87,6.87,0,0,1,.91-.06,4.74,4.74,0,0,1,2.41.6,3.18,3.18,0,0,1,1.6,2.87,3.87,3.87,0,0,1-4.16,3.82,5.53,5.53,0,0,1-2.79-.68l.38-1.16a5,5,0,0,0,2.39.62,2.47,2.47,0,0,0,2.65-2.43c0-1.44-1-2.47-3.22-2.47a12.09,12.09,0,0,0-1.55.12l.73-5.37h5.35Z"/><path class="cls-7" d="M562.42,750.77a1,1,0,1,1,2.05,0,1,1,0,1,1-2.05,0Z"/><path class="cls-7" d="M572.54,741.75h-4.27l-.43,2.87a6.87,6.87,0,0,1,.91-.06,4.76,4.76,0,0,1,2.41.6,3.18,3.18,0,0,1,1.6,2.87,3.88,3.88,0,0,1-4.16,3.82,5.5,5.5,0,0,1-2.79-.68l.38-1.16a4.92,4.92,0,0,0,2.39.62,2.47,2.47,0,0,0,2.65-2.43c0-1.44-1-2.47-3.22-2.47a11.79,11.79,0,0,0-1.55.12l.72-5.37h5.36Z"/><path class="cls-7" d="M574.68,751.66v-.93l1.19-1.15c2.86-2.72,4.15-4.16,4.17-5.85a2,2,0,0,0-2.22-2.19,3.83,3.83,0,0,0-2.38,1l-.48-1.07a4.93,4.93,0,0,1,3.17-1.13,3.14,3.14,0,0,1,3.42,3.25c0,2.07-1.49,3.74-3.85,6l-.9.82v0h5v1.25Z"/><path class="cls-7" d="M597.82,592.78a15.09,15.09,0,0,1,2.87-.24,4.79,4.79,0,0,1,3.36,1,2.88,2.88,0,0,1,.9,2.21,3,3,0,0,1-2.19,3v.05a2.87,2.87,0,0,1,1.7,2.34,19,19,0,0,0,.89,3.19H603.8a15,15,0,0,1-.77-2.77c-.34-1.6-1-2.2-2.32-2.26H599.3v5h-1.5Zm1.48,5.28h1.54c1.6,0,2.61-.88,2.62-2.2,0-1.5-1.08-2.15-2.67-2.18a6.07,6.07,0,0,0-1.48.14Z"/><path class="cls-7" d="M609.84,594.49h0l-1.95,1-.29-1.15,2.45-1.3h1.29l0,11.19h-1.47Z"/><path class="cls-7" d="M622.82,598.59c0,3.81-1.42,5.9-3.9,5.9-2.18,0-3.66-2.06-3.69-5.76s1.63-5.81,3.91-5.81S622.83,595,622.82,598.59Zm-6.07.16c0,2.91.88,4.56,2.26,4.57,1.55,0,2.29-1.81,2.3-4.66s-.7-4.57-2.26-4.57C617.72,594.09,616.75,595.71,616.75,598.75Z"/><path class="cls-7" d="M418.62,576.42v-.93l1.18-1.16c2.87-2.71,4.16-4.15,4.18-5.84a2,2,0,0,0-2.21-2.19,3.82,3.82,0,0,0-2.38.94l-.48-1.06a4.82,4.82,0,0,1,3.17-1.13,3.14,3.14,0,0,1,3.42,3.25c0,2.07-1.51,3.74-3.87,6l-.9.83v0h5v1.26Z"/><path class="cls-7" d="M433.87,566.34a5.25,5.25,0,0,0-1.14.07,4.53,4.53,0,0,0-3.89,4h.05a3.41,3.41,0,0,1,6.07,2.34,3.73,3.73,0,0,1-3.73,3.93c-2.39,0-4-1.86-4-4.77a7,7,0,0,1,1.91-5,6.09,6.09,0,0,1,3.58-1.65,8.54,8.54,0,0,1,1.1-.08Zm-.44,6.45a2.28,2.28,0,0,0-2.3-2.57A2.51,2.51,0,0,0,429,571.6a1.3,1.3,0,0,0-.17.67c0,1.84.87,3.2,2.46,3.2C432.55,575.48,433.42,574.39,433.43,572.79Z"/><path class="cls-7" d="M436.41,575.59a1,1,0,0,1,1-1.08,1.08,1.08,0,0,1,0,2.16A1,1,0,0,1,436.41,575.59Z"/><path class="cls-7" d="M446.26,566.38a6,6,0,0,0-1.14.07,4.54,4.54,0,0,0-3.89,4h0a3.41,3.41,0,0,1,6.07,2.33,3.75,3.75,0,0,1-3.73,3.94c-2.39,0-3.95-1.87-3.95-4.78a7,7,0,0,1,1.91-5,6.08,6.08,0,0,1,3.58-1.64,7.26,7.26,0,0,1,1.1-.09Zm-.44,6.46a2.28,2.28,0,0,0-2.3-2.57,2.5,2.5,0,0,0-2.18,1.37,1.33,1.33,0,0,0-.17.67c0,1.84.87,3.2,2.46,3.21C444.93,575.52,445.81,574.44,445.82,572.84Z"/><path class="cls-7" d="M449.56,575.46a6,6,0,0,0,1.22-.05,4.2,4.2,0,0,0,2.34-1.08,4.87,4.87,0,0,0,1.49-3h-.05a3.31,3.31,0,0,1-2.64,1.2,3.24,3.24,0,0,1-3.29-3.43,3.82,3.82,0,0,1,3.82-4c2.29,0,3.7,1.86,3.7,4.72a7.13,7.13,0,0,1-1.94,5.25,5.62,5.62,0,0,1-3.26,1.49,7.2,7.2,0,0,1-1.39.08Zm.56-6.43a2.15,2.15,0,0,0,2.15,2.37,2.49,2.49,0,0,0,2.21-1.16,1.06,1.06,0,0,0,.13-.55c0-1.91-.7-3.38-2.28-3.38C451,566.31,450.13,567.44,450.12,569Z"/><path class="cls-7" d="M418.61,527.53v-.93l1.19-1.15c2.86-2.71,4.15-4.15,4.17-5.84a2,2,0,0,0-2.21-2.19,3.82,3.82,0,0,0-2.38.94l-.48-1.07a4.93,4.93,0,0,1,3.17-1.13,3.15,3.15,0,0,1,3.42,3.26c0,2.07-1.51,3.74-3.87,6l-.9.83v0h5v1.26Z"/><path class="cls-7" d="M434.14,517.67h-4.27l-.44,2.87a6.91,6.91,0,0,1,.92-.06,4.76,4.76,0,0,1,2.41.6,3.21,3.21,0,0,1,1.59,2.88,3.87,3.87,0,0,1-4.17,3.81,5.52,5.52,0,0,1-2.79-.69l.38-1.15a5.1,5.1,0,0,0,2.39.62,2.47,2.47,0,0,0,2.66-2.42c0-1.45-1-2.48-3.22-2.49a11.76,11.76,0,0,0-1.54.12l.73-5.37h5.35Z"/><path class="cls-7" d="M436.41,526.71a1,1,0,0,1,1-1.09,1.09,1.09,0,1,1-1,1.09Z"/><path class="cls-7" d="M439.85,527.61v-.93l1.19-1.15c2.86-2.71,4.15-4.15,4.17-5.84A2,2,0,0,0,443,517.5a3.82,3.82,0,0,0-2.38.94l-.48-1.07a5,5,0,0,1,3.17-1.13,3.15,3.15,0,0,1,3.42,3.26c0,2.07-1.5,3.73-3.87,6l-.89.83v0h5v1.26Z"/><path class="cls-7" d="M448.67,527.65v-.93l1.19-1.16c2.86-2.71,4.16-4.15,4.18-5.84a2,2,0,0,0-2.22-2.19,3.79,3.79,0,0,0-2.37.94L449,517.4a4.9,4.9,0,0,1,3.16-1.13,3.15,3.15,0,0,1,3.42,3.26c0,2.07-1.5,3.74-3.86,6l-.9.83v0h5v1.26Z"/><path class="cls-7" d="M663.67,691.64a16.23,16.23,0,0,1,2.88-.23,4.74,4.74,0,0,1,3.35,1,2.88,2.88,0,0,1,.91,2.21,3,3,0,0,1-2.19,2.95v.06a2.91,2.91,0,0,1,1.7,2.34,18,18,0,0,0,.89,3.19h-1.55a14.24,14.24,0,0,1-.77-2.77c-.34-1.6-1-2.21-2.32-2.26h-1.41v5h-1.5Zm1.49,5.29h1.53c1.6,0,2.62-.87,2.62-2.19,0-1.5-1.08-2.16-2.66-2.18a6.07,6.07,0,0,0-1.48.14Z"/><path class="cls-7" d="M672.76,701.39a5.08,5.08,0,0,0,2.47.71c1.95,0,2.55-1.24,2.54-2.17,0-1.56-1.43-2.24-2.89-2.24H674v-1.14h.84c1.11,0,2.5-.56,2.5-1.88,0-.9-.56-1.69-2-1.69a4.11,4.11,0,0,0-2.25.73l-.39-1.1a5.26,5.26,0,0,1,2.93-.85c2.2,0,3.2,1.31,3.2,2.67a2.8,2.8,0,0,1-2.07,2.63v0a2.93,2.93,0,0,1,2.49,2.88c0,1.79-1.41,3.36-4.09,3.35a5.69,5.69,0,0,1-2.91-.76Z"/><polyline class="cls-4" points="622.1 609.52 557.36 609.52 526.66 655.11"/><polygon class="cls-8" points="525.17 651.14 520.65 664.29 531.14 655.16 525.17 651.14"/><path class="cls-4" d="M670.23,162.2V47.71M717.44,162.2V18.6M348.29,180.68V18.6M105.34,128.17H834.75M105.34,719.78H834.75M161.48,664.21h319.6"/><path class="cls-7" d="M255.37,62.82a16,16,0,0,1,2.87-.23,4.79,4.79,0,0,1,3.36.95,2.88,2.88,0,0,1,.9,2.21,3,3,0,0,1-2.19,3v0A2.89,2.89,0,0,1,262,71.1a18.47,18.47,0,0,0,.89,3.18h-1.55a15.31,15.31,0,0,1-.77-2.77c-.34-1.6-1-2.21-2.32-2.26h-1.41v5h-1.5Zm1.48,5.29h1.54c1.6,0,2.61-.87,2.62-2.19,0-1.5-1.08-2.16-2.67-2.18a6.07,6.07,0,0,0-1.48.14Z"/><path class="cls-7" d="M270.78,64.4h-4.27l-.43,2.87a6.61,6.61,0,0,1,.91-.07,4.77,4.77,0,0,1,2.41.61A3.17,3.17,0,0,1,271,70.69a3.87,3.87,0,0,1-4.17,3.81,5.55,5.55,0,0,1-2.79-.69l.38-1.16a5,5,0,0,0,2.4.63,2.47,2.47,0,0,0,2.65-2.42c0-1.45-1-2.48-3.21-2.49a11.79,11.79,0,0,0-1.55.12l.73-5.37h5.35Z"/><polyline class="cls-4" points="251.53 80.74 316.27 80.74 347.48 124.67"/><polygon class="cls-8" points="343.24 124.67 353.95 133.53 349.11 120.5 343.24 124.67"/><path class="cls-4" d="M825.37,708.53V429.43M775.1,702.94v93.53M187.82,702.94v93.53"/><polygon class="cls-8" points="828.82 706.08 825.22 719.51 821.62 706.08 828.82 706.08"/><polygon class="cls-8" points="828.82 431.88 825.22 418.45 821.62 431.88 828.82 431.88"/><line class="cls-4" x1="825.37" y1="345.67" x2="825.37" y2="138.94"/><polygon class="cls-8" points="828.82 343.21 825.22 356.64 821.62 343.21 828.82 343.21"/><polygon class="cls-8" points="828.82 141.39 825.22 127.97 821.62 141.39 828.82 141.39"/><path class="cls-7" d="M786.49,209.24h-3v5.2h-1l-7.14-5v-1.63h7v-1.57h1.19v1.57h3Zm-4.24,0h-3.73c-.59,0-1.17,0-1.76-.05v.05c.66.35,1.14.62,1.66.93l3.8,2.74h0Z"/><path class="cls-7" d="M775.3,197.82h1l10.19,4.87v1.57l-9.9-4.86h0v5.48H775.3Z"/><path class="cls-7" d="M737.31,180.55a5.16,5.16,0,0,0,.07,1.13,4.53,4.53,0,0,0,4,3.89v0a3.4,3.4,0,0,1,2.32-6.07,3.73,3.73,0,0,1,3.94,3.71c0,2.4-1.86,4-4.77,4a7,7,0,0,1-5-1.89,6.09,6.09,0,0,1-1.65-3.58,7.26,7.26,0,0,1-.09-1.1Zm6.46.43a2.28,2.28,0,0,0-2.57,2.3,2.48,2.48,0,0,0,1.38,2.17,1.21,1.21,0,0,0,.67.18c1.84,0,3.2-.88,3.2-2.47C746.45,181.86,745.37,181,743.77,181Z"/><line class="cls-4" x1="791.76" y1="271.37" x2="791.76" y2="138.94"/><polygon class="cls-8" points="795.21 268.92 791.61 282.35 788.01 268.92 795.21 268.92"/><polygon class="cls-8" points="795.21 141.39 791.61 127.97 788.01 141.39 795.21 141.39"/><line class="cls-4" x1="500.03" y1="356.64" x2="833.73" y2="356.64"/><path class="cls-7" d="M431.43,40.68h-4.27l-.43,2.88a5.34,5.34,0,0,1,.91-.07,4.76,4.76,0,0,1,2.41.6,3.18,3.18,0,0,1,1.6,2.87,3.88,3.88,0,0,1-4.16,3.82,5.5,5.5,0,0,1-2.79-.68l.38-1.16a4.92,4.92,0,0,0,2.39.62,2.47,2.47,0,0,0,2.65-2.42c0-1.45-1-2.48-3.22-2.48a11.94,11.94,0,0,0-1.55.12l.72-5.37h5.36Z"/><path class="cls-7" d="M440.25,40.68H436l-.43,2.88a5.16,5.16,0,0,1,.91-.07,4.76,4.76,0,0,1,2.41.6,3.2,3.2,0,0,1,1.6,2.87,3.88,3.88,0,0,1-4.17,3.82,5.56,5.56,0,0,1-2.79-.68l.38-1.16a5,5,0,0,0,2.4.62A2.47,2.47,0,0,0,439,47.14c0-1.45-1-2.48-3.22-2.48a11.79,11.79,0,0,0-1.55.12l.72-5.37h5.35Z"/><path class="cls-7" d="M442.52,49.7a1,1,0,0,1,1-1.08,1.08,1.08,0,0,1,0,2.16A1,1,0,0,1,442.52,49.7Z"/><path class="cls-7" d="M445.82,47.76a3.2,3.2,0,0,1,2.23-3l0,0a2.77,2.77,0,0,1-1.77-2.51c0-1.78,1.49-3,3.45-3,2.17,0,3.26,1.36,3.26,2.75a2.86,2.86,0,0,1-1.84,2.62v0a3.1,3.1,0,0,1,2.25,2.89c0,1.95-1.67,3.25-3.8,3.25C447.24,50.78,445.82,49.39,445.82,47.76Zm6-.07c0-1.36-1-2-2.46-2.45a2.44,2.44,0,0,0-2,2.31,2.07,2.07,0,0,0,2.24,2.13A2,2,0,0,0,451.85,47.69Zm-4.17-5.6c0,1.12.85,1.72,2.14,2.07a2.21,2.21,0,0,0,1.7-2,1.74,1.74,0,0,0-1.89-1.83A1.78,1.78,0,0,0,447.68,42.09Z"/><path class="cls-7" d="M455.15,48.86a5.13,5.13,0,0,0,2.48.7c1.94,0,2.55-1.24,2.53-2.17,0-1.56-1.43-2.23-2.89-2.23h-.85V44h.85c1.1,0,2.49-.57,2.49-1.89,0-.9-.57-1.69-2-1.69a4.19,4.19,0,0,0-2.24.74l-.39-1.1a5.3,5.3,0,0,1,2.92-.86c2.21,0,3.2,1.31,3.2,2.67a2.77,2.77,0,0,1-2.06,2.63v0a2.92,2.92,0,0,1,2.5,2.88c0,1.79-1.4,3.35-4.08,3.35a5.7,5.7,0,0,1-2.91-.75Z"/><path class="cls-7" d="M489.82,78.15h0l-2,1-.29-1.15L490,76.74h1.29V87.93h-1.46Z"/><path class="cls-7" d="M502,78h-4.27l-.43,2.87a6.61,6.61,0,0,1,.91-.07,4.76,4.76,0,0,1,2.41.6,3.2,3.2,0,0,1,1.6,2.88,3.88,3.88,0,0,1-4.16,3.82,5.49,5.49,0,0,1-2.79-.69l.38-1.15a5,5,0,0,0,2.39.62,2.47,2.47,0,0,0,2.65-2.43c0-1.45-1-2.48-3.22-2.48a11.79,11.79,0,0,0-1.55.12l.72-5.37H502Z"/><path class="cls-7" d="M504.31,87a1,1,0,1,1,1,1.09A1,1,0,0,1,504.31,87Z"/><path class="cls-7" d="M515.18,82.22c0,3.8-1.41,5.9-3.89,5.9-2.18,0-3.66-2.05-3.7-5.75s1.62-5.82,3.89-5.82S515.18,78.65,515.18,82.22Zm-6.07.17c0,2.91.89,4.56,2.27,4.56,1.55,0,2.29-1.81,2.29-4.67s-.71-4.56-2.28-4.56C510.07,77.72,509.11,79.34,509.11,82.39Z"/><path class="cls-7" d="M516.43,85.09a3.22,3.22,0,0,1,2.22-3v0a2.77,2.77,0,0,1-1.78-2.51c0-1.77,1.5-3,3.46-3,2.17,0,3.26,1.36,3.26,2.76a2.85,2.85,0,0,1-1.84,2.61v0a3.12,3.12,0,0,1,2.25,2.9c0,1.94-1.67,3.25-3.8,3.25C517.85,88.12,516.43,86.72,516.43,85.09Zm6-.07c0-1.36-1-2-2.46-2.44a2.44,2.44,0,0,0-2,2.3A2.07,2.07,0,0,0,520.22,87,2,2,0,0,0,522.46,85Zm-4.17-5.59c0,1.12.85,1.72,2.14,2.06a2.19,2.19,0,0,0,1.7-2,1.74,1.74,0,0,0-1.89-1.82A1.78,1.78,0,0,0,518.29,79.43Z"/><path class="cls-7" d="M548.13,166.08v0l1,1.94-1.15.3-1.31-2.45v-1.29h11.19v1.46Z"/><path class="cls-7" d="M557.91,160.55H557l-1.15-1.19c-2.72-2.86-4.17-4.15-5.85-4.17a2,2,0,0,0-2.19,2.22,3.83,3.83,0,0,0,1,2.38l-1.07.48a4.93,4.93,0,0,1-1.14-3.17,3.15,3.15,0,0,1,3.26-3.42c2.06,0,3.73,1.5,6,3.85l.83.9h0v-5h1.26Z"/><path class="cls-7" d="M557,151.6a1,1,0,0,1-1.09-1,1.09,1.09,0,1,1,1.09,1Z"/><path class="cls-7" d="M556.84,147.28a6,6,0,0,0-.05-1.22,4.23,4.23,0,0,0-1.08-2.34,4.87,4.87,0,0,0-3-1.48v0a3.36,3.36,0,0,1-2.22,5.94,3.84,3.84,0,0,1-4-3.82c0-2.29,1.86-3.7,4.72-3.7a7.08,7.08,0,0,1,5.25,1.92,5.63,5.63,0,0,1,1.5,3.26,7.2,7.2,0,0,1,.08,1.39Zm-6.43-.55a2.15,2.15,0,0,0,2.37-2.15,2.49,2.49,0,0,0-1.17-2.2,1,1,0,0,0-.55-.14c-1.91,0-3.37.7-3.37,2.29C547.69,145.82,548.82,146.73,550.41,146.73Z"/><path class="cls-7" d="M547.79,133a5.16,5.16,0,0,0,.07,1.13,4.53,4.53,0,0,0,4,3.89v-.05a3.41,3.41,0,0,1,2.33-6.07,3.73,3.73,0,0,1,3.94,3.71c0,2.4-1.86,4-4.77,4a7,7,0,0,1-5-1.89,6.09,6.09,0,0,1-1.65-3.58,7.26,7.26,0,0,1-.09-1.1Zm6.45.43a2.27,2.27,0,0,0-2.56,2.3,2.48,2.48,0,0,0,1.38,2.17,1.21,1.21,0,0,0,.67.17c1.84,0,3.2-.87,3.2-2.46C556.93,134.26,555.85,133.38,554.24,133.38Z"/><polyline class="cls-11" points="760.23 697.43 730.71 707.07 662.41 707.07"/><polygon class="cls-8" points="756.38 694.46 771.88 693.63 758.87 702.1 756.38 694.46"/><line class="cls-11" x1="760.02" y1="714.68" x2="730.71" y2="707.07"/><polygon class="cls-8" points="758.37 710.1 771.88 717.75 756.35 717.88 758.37 710.1"/><polyline class="cls-4" points="363.8 141.01 394.56 405.43 399.61 405.43 399.29 553.69 407.77 405.16 438.04 407.41 452.2 139.13"/><polygon class="cls-8" points="360.51 143.86 362.54 130.11 367.66 143.03 360.51 143.86"/><polygon class="cls-8" points="455.67 141.77 452.78 128.17 448.48 141.39 455.67 141.77"/><line class="cls-4" x1="394.64" y1="139.15" x2="394.64" y2="594.56"/><polygon class="cls-8" points="391.04 141.6 394.64 128.17 398.24 141.6 391.04 141.6"/><line class="cls-4" x1="471.47" y1="533.14" x2="411.43" y2="533.14"/><polygon class="cls-8" points="469.02 529.7 482.45 533.29 469.02 536.89 469.02 529.7"/><polygon class="cls-8" points="413.88 529.7 400.45 533.29 413.88 536.89 413.88 529.7"/><line class="cls-4" x1="471.47" y1="581.69" x2="405.62" y2="581.69"/><polygon class="cls-8" points="469.02 578.24 482.45 581.83 469.02 585.44 469.02 578.24"/><polygon class="cls-8" points="408.07 578.24 394.64 581.83 408.07 585.44 408.07 578.24"/><line class="cls-4" x1="493.71" y1="146.11" x2="439.17" y2="392.94"/><polygon class="cls-8" points="489.67 147.73 496.08 135.4 496.7 149.28 489.67 147.73"/><polyline class="cls-4" points="572.02 267.24 592.81 220.97 618.24 263.96"/><polygon class="cls-8" points="576.31 266.47 567.52 277.25 569.75 263.52 576.31 266.47"/><polygon class="cls-8" points="613.9 263.68 623.83 273.41 620.09 260.02 613.9 263.68"/><path class="cls-7" d="M642.71,664.84h0l-2,.89-.2-1.18,2.55-1.1,1.29.11-.94,11.15-1.46-.12Z"/><path class="cls-7" d="M647.62,674.16a1,1,0,1,1,2,.17,1,1,0,1,1-2-.17Zm.51-6a1,1,0,1,1,2,.17,1,1,0,1,1-2-.17Z"/><path class="cls-7" d="M655.07,665.86h0l-2,.88-.2-1.17,2.55-1.1,1.29.11-.94,11.14-1.46-.12Z"/><path class="cls-7" d="M667.68,671c-.32,3.79-1.91,5.76-4.37,5.56-2.18-.19-3.49-2.35-3.21-6s2.1-5.66,4.36-5.47S668,667.43,667.68,671Zm-6.07-.34c-.25,2.9.51,4.62,1.88,4.74,1.54.13,2.43-1.61,2.67-4.46s-.32-4.6-1.88-4.73C663,666.07,661.86,667.6,661.61,670.64Z"/></g><g id="Watermark"><rect class="cls-12" x="444.86" y="678.19" width="62.89" height="30.62"/><rect class="cls-12" x="507.75" y="678.19" width="47.39" height="30.62"/><path class="cls-13" d="M466.48,684.29l-2.79,18.92H461l-1.55-11-1.53,11h-2.74l-2.8-18.92h2.51l1.79,14.18,1.79-14.18h2l1.79,14.18L464,684.29Z"/><path class="cls-13" d="M467.93,703.21V684.29h2.53v18.92Z"/><path class="cls-13" d="M472.83,684.29h5q2.9,0,2.9,3.24v4.67c0,1.65-.51,2.69-1.51,3.13l1.77,7.88h-2.4l-1.66-7.64h-1.53v7.64h-2.53Zm2.53,9.12H477c.76,0,1.14-.46,1.14-1.37V688c0-.92-.38-1.37-1.14-1.37h-1.66Z"/><path class="cls-13" d="M486.82,686.59v16.62h-2.53V686.59h-2.42v-2.3h7.38v2.3Z"/><path class="cls-13" d="M496.34,703.21v-8.59h-3.11v8.59H490.7V684.29h2.53v8h3.11v-8h2.53v18.92Z"/><path class="cls-13" d="M516.31,684.29h5q2.9,0,2.89,3.24v4.67c0,1.65-.5,2.69-1.5,3.13l1.77,7.88H522l-1.66-7.64h-1.53v7.64h-2.53Zm2.53,9.12h1.66c.76,0,1.13-.46,1.13-1.37V688c0-.92-.37-1.37-1.13-1.37h-1.66Z"/><path class="cls-13" d="M528.67,703.21h-2.53V687.53q0-3.24,3-3.24h1.9q3,0,3,3.24v15.68h-2.53v-6.93h-2.9Zm2.9-9.22v-6.3a1,1,0,0,0-1.11-1.1h-.68a1,1,0,0,0-1.11,1.1V694Z"/><path class="cls-13" d="M536.34,703.21V684.29h2.53v18.92Z"/><path class="cls-13" d="M547.24,703.21h-6V684.29h2.53v16.63h3.47Z"/></g></svg>