<svg xmlns="http://www.w3.org/2000/svg" viewBox="0 0 1000 800"><defs><style>.cls-1,.cls-12{fill:#f0f0f0;}.cls-10,.cls-11,.cls-2,.cls-3,.cls-4,.cls-5,.cls-7,.cls-9{fill:none;}.cls-10,.cls-11,.cls-2,.cls-3,.cls-4,.cls-5,.cls-7{stroke:#221e1f;}.cls-10,.cls-2,.cls-3,.cls-4,.cls-7,.cls-9{stroke-width:0.81px;}.cls-11,.cls-3{stroke-miterlimit:1;}.cls-4,.cls-5{stroke-linecap:round;stroke-linejoin:round;}.cls-5{stroke-width:0.82px;}.cls-6{fill:#221e1f;}.cls-7{stroke-dasharray:17.17 5.22;}.cls-8{fill:#303030;}.cls-9{stroke:#303030;}.cls-12,.cls-9{stroke-miterlimit:10;}.cls-10{stroke-dasharray:17.37 5.23;}.cls-11{stroke-width:0.82px;}.cls-12{stroke:#ccc;}.cls-13{fill:#ccc;}</style></defs><g id="Flat"><path class="cls-1" d="M470.09,385.37V502.76a440.78,440.78,0,0,1-11.75,101c-.81,3.45-1.78,6.92-2.88,10.3a25.66,25.66,0,0,1-15.61,16.15L335.81,668a146.93,146.93,0,0,1-39.68,8.45l-57.23,4.09a14.74,14.74,0,0,0-13.69,14.69v21.19a7.41,7.41,0,0,0,7.4,7.4h535.6a7.41,7.41,0,0,0,7.39-7.4V695.25a14.74,14.74,0,0,0-13.68-14.69l-57.24-4.09A146.93,146.93,0,0,1,665,668L561,630.19A25.61,25.61,0,0,1,545.36,614c-1.1-3.38-2.07-6.84-2.89-10.3a440.84,440.84,0,0,1-11.74-101V385.37a440.77,440.77,0,0,1,11.74-101c.82-3.47,1.79-6.94,2.89-10.3A25.61,25.61,0,0,1,561,257.94l68.15-24.78a11,11,0,0,0,7.26-10.95l-3.84-76.94a47.72,47.72,0,0,0-36.67-44.07,293.14,293.14,0,0,0-57.93-7.8c-12.45-.43-25.08-.64-37.53-.64s-25.06.21-37.52.64A293.14,293.14,0,0,0,405,101.2a47.71,47.71,0,0,0-36.67,44.07l-3.84,76.94a11,11,0,0,0,7.26,10.95l68.15,24.78a25.66,25.66,0,0,1,15.61,16.15c1.1,3.37,2.07,6.84,2.88,10.3a440.72,440.72,0,0,1,11.75,101"/><path class="cls-2" d="M470.09,385.37V502.76a440.78,440.78,0,0,1-11.75,101c-.81,3.45-1.78,6.92-2.88,10.3a25.66,25.66,0,0,1-15.61,16.15L335.81,668a146.93,146.93,0,0,1-39.68,8.45l-57.23,4.09a14.74,14.74,0,0,0-13.69,14.69v21.19a7.41,7.41,0,0,0,7.4,7.4h535.6a7.41,7.41,0,0,0,7.39-7.4V695.25a14.74,14.74,0,0,0-13.68-14.69l-57.24-4.09A146.93,146.93,0,0,1,665,668L561,630.19A25.61,25.61,0,0,1,545.36,614c-1.1-3.38-2.07-6.84-2.89-10.3a440.84,440.84,0,0,1-11.74-101V385.37a440.77,440.77,0,0,1,11.74-101c.82-3.47,1.79-6.94,2.89-10.3A25.61,25.61,0,0,1,561,257.94l68.15-24.78a11,11,0,0,0,7.26-10.95l-3.84-76.94a47.72,47.72,0,0,0-36.67-44.07,293.14,293.14,0,0,0-57.93-7.8c-12.45-.43-25.08-.64-37.53-.64s-25.06.21-37.52.64A293.14,293.14,0,0,0,405,101.2a47.71,47.71,0,0,0-36.67,44.07l-3.84,76.94a11,11,0,0,0,7.26,10.95l68.15,24.78a25.66,25.66,0,0,1,15.61,16.15c1.1,3.37,2.07,6.84,2.88,10.3a440.72,440.72,0,0,1,11.75,101"/><path class="cls-3" d="M766.36,681.58H812.6M500.35,608.22H844.41M500.35,279.91H838.2"/><path class="cls-4" d="M632.4,145.28h63.16M500.4,661.85l204.29,14.69m-408.57,0L500.4,661.85"/><path class="cls-3" d="M333.41,313.84h16.12m-16,260.45h16.21"/><line class="cls-5" x1="345.62" y1="562.56" x2="345.62" y2="514.74"/><path class="cls-6" d="M344,510.65c-.79,2.9-1.52,4.79-2.37,7.11h8a74.73,74.73,0,0,1-2.38-7.11,56.91,56.91,0,0,1-1.64-7.74,55.41,55.41,0,0,1-1.64,7.74"/><path class="cls-6" d="M347.28,566.65c.79-2.9,1.52-4.79,2.37-7.11h-8a74.73,74.73,0,0,1,2.38,7.11,57,57,0,0,1,1.64,7.75,55.49,55.49,0,0,1,1.64-7.75"/><path class="cls-2" d="M337.11,574.31a3.67,3.67,0,1,0-3.68,3.67A3.67,3.67,0,0,0,337.11,574.31Zm.11-260.47a3.67,3.67,0,1,0-3.67,3.67A3.67,3.67,0,0,0,337.22,313.84ZM372,145.27a3.67,3.67,0,1,0-3.67,3.66A3.67,3.67,0,0,0,372,145.27Zm264.14,0a3.67,3.67,0,1,0-3.66,3.66A3.66,3.66,0,0,0,636.16,145.27ZM226.35,385.38a3.67,3.67,0,1,0-3.67,3.67A3.67,3.67,0,0,0,226.35,385.38Zm0,117.4c1-2.12-1.09-3.72-3.67-3.67a3.67,3.67,0,1,0,3.67,3.67Z"/><line class="cls-7" x1="500.41" y1="741.85" x2="499.8" y2="75.41"/><path class="cls-6" d="M510.26,741.85v-4.4l-4-6h1.66l2,3.14c.38.58.73,1.17,1.06,1.75.32-.55.71-1.16,1.16-1.83l2-3.06h1.61l-4.15,6v4.4Z"/><path class="cls-6" d="M510.26,87.28V82.89l-4-6h1.66L510,80c.38.59.73,1.17,1.06,1.75.32-.55.71-1.15,1.16-1.83l2-3.06h1.61l-4.15,6v4.39Z"/><path class="cls-8" d="M481.38,757.43h-1v-6.55a5.08,5.08,0,0,1-1,.71,6.63,6.63,0,0,1-1.08.53v-1a6.44,6.44,0,0,0,1.51-1,4,4,0,0,0,.91-1.12h.66Z"/><path class="cls-8" d="M484,755.24l1.08-.1a2,2,0,0,0,.56,1.19,1.53,1.53,0,0,0,1.05.4,1.66,1.66,0,0,0,1.26-.56,2.14,2.14,0,0,0,.51-1.49,1.88,1.88,0,0,0-.49-1.38,1.72,1.72,0,0,0-1.3-.51,1.75,1.75,0,0,0-.89.22,1.71,1.71,0,0,0-.63.59l-1-.13.81-4.29h4.16v1h-3.34l-.45,2.25a2.73,2.73,0,0,1,1.58-.53,2.49,2.49,0,0,1,1.85.76,2.67,2.67,0,0,1,.75,2,3,3,0,0,1-.66,2,2.94,2.94,0,0,1-4.06.38A2.49,2.49,0,0,1,484,755.24Z"/><path class="cls-8" d="M490.51,753.3a7.49,7.49,0,0,1,.31-2.39,2.85,2.85,0,0,1,.91-1.39,2.28,2.28,0,0,1,1.51-.49,2.48,2.48,0,0,1,1.18.27,2.24,2.24,0,0,1,.84.78,4.41,4.41,0,0,1,.52,1.24,8.06,8.06,0,0,1,.19,2,7.75,7.75,0,0,1-.3,2.38,3,3,0,0,1-.91,1.4,2.31,2.31,0,0,1-1.52.49,2.29,2.29,0,0,1-1.9-.87A5.51,5.51,0,0,1,490.51,753.3Zm1.06,0a5.23,5.23,0,0,0,.48,2.74,1.37,1.37,0,0,0,2.38,0,8.06,8.06,0,0,0,0-5.48,1.41,1.41,0,0,0-1.2-.68,1.32,1.32,0,0,0-1.13.6A5.33,5.33,0,0,0,491.57,753.3Z"/><path class="cls-8" d="M502.51,759.89a10.17,10.17,0,0,1-1.44-2.51,7.84,7.84,0,0,1-.59-3,7.76,7.76,0,0,1,.44-2.6,10.86,10.86,0,0,1,1.59-2.88h.74c-.46.79-.77,1.35-.92,1.69a10.3,10.3,0,0,0-.55,1.65,9.68,9.68,0,0,0-.24,2.14,10.31,10.31,0,0,0,1.71,5.49Z"/><path class="cls-8" d="M504.15,755.24l1.08-.1a2,2,0,0,0,.56,1.19,1.53,1.53,0,0,0,1,.4,1.66,1.66,0,0,0,1.26-.56,2.14,2.14,0,0,0,.51-1.49,1.88,1.88,0,0,0-.49-1.38,1.72,1.72,0,0,0-1.3-.51,1.75,1.75,0,0,0-.89.22,1.71,1.71,0,0,0-.63.59l-1-.13.81-4.29h4.16v1H506l-.45,2.25a2.73,2.73,0,0,1,1.58-.53,2.49,2.49,0,0,1,1.85.76,2.67,2.67,0,0,1,.75,2,3,3,0,0,1-.66,2,2.94,2.94,0,0,1-4.06.38A2.49,2.49,0,0,1,504.15,755.24Z"/><path class="cls-8" d="M511.23,757.43v-1.17h1.17v1.17Z"/><path class="cls-8" d="M514.06,755.49l1-.09a1.77,1.77,0,0,0,.48,1,1.33,1.33,0,0,0,.91.32,1.6,1.6,0,0,0,.83-.22,1.92,1.92,0,0,0,.59-.58,3.39,3.39,0,0,0,.38-1,5.28,5.28,0,0,0,.15-1.25v-.21a2.42,2.42,0,0,1-.85.8,2.3,2.3,0,0,1-1.15.3,2.35,2.35,0,0,1-1.76-.75,2.76,2.76,0,0,1-.72-2,2.83,2.83,0,0,1,.75-2.05,2.53,2.53,0,0,1,1.88-.77,2.6,2.6,0,0,1,1.49.44,2.66,2.66,0,0,1,1,1.25,6.05,6.05,0,0,1,.35,2.35,7.76,7.76,0,0,1-.34,2.56,3,3,0,0,1-1,1.44,2.63,2.63,0,0,1-1.61.5,2.19,2.19,0,0,1-2.35-2.08Zm4.2-3.69a2,2,0,0,0-.47-1.4,1.45,1.45,0,0,0-1.13-.52,1.52,1.52,0,0,0-1.19.56,2.05,2.05,0,0,0-.51,1.45,1.77,1.77,0,0,0,.48,1.29,1.56,1.56,0,0,0,1.19.5,1.49,1.49,0,0,0,1.17-.5A1.93,1.93,0,0,0,518.26,751.8Z"/><path class="cls-8" d="M520.4,753.3a7.49,7.49,0,0,1,.31-2.39,2.91,2.91,0,0,1,.9-1.39,2.33,2.33,0,0,1,1.52-.49,2.48,2.48,0,0,1,1.18.27,2.24,2.24,0,0,1,.84.78,4.41,4.41,0,0,1,.52,1.24,8.06,8.06,0,0,1,.19,2,7.75,7.75,0,0,1-.3,2.38,3.08,3.08,0,0,1-.91,1.4,2.31,2.31,0,0,1-1.52.49,2.29,2.29,0,0,1-1.9-.87A5.51,5.51,0,0,1,520.4,753.3Zm1.06,0a5.23,5.23,0,0,0,.48,2.74,1.37,1.37,0,0,0,2.38,0,8.06,8.06,0,0,0,0-5.48,1.41,1.41,0,0,0-1.2-.68,1.32,1.32,0,0,0-1.13.6A5.24,5.24,0,0,0,521.46,753.3Z"/><path class="cls-8" d="M532.23,751.11l-1,.08a1.9,1.9,0,0,0-.39-.88,1.35,1.35,0,0,0-1-.44,1.39,1.39,0,0,0-.87.28,2.36,2.36,0,0,0-.76,1,5.36,5.36,0,0,0-.29,1.93,2.51,2.51,0,0,1,.91-.84,2.43,2.43,0,0,1,1.12-.27,2.3,2.3,0,0,1,1.75.76,2.7,2.7,0,0,1,.72,2,3.21,3.21,0,0,1-.34,1.47,2.45,2.45,0,0,1-.93,1,2.57,2.57,0,0,1-1.35.36,2.63,2.63,0,0,1-2.09-.94,4.78,4.78,0,0,1-.81-3.12,5.61,5.61,0,0,1,.89-3.52,2.58,2.58,0,0,1,2.11-1,2.22,2.22,0,0,1,2.37,2.08ZM528,754.72a2.36,2.36,0,0,0,.22,1,1.65,1.65,0,0,0,.63.74,1.59,1.59,0,0,0,.85.26,1.45,1.45,0,0,0,1.12-.53,2,2,0,0,0,.47-1.43,1.92,1.92,0,0,0-.46-1.36,1.51,1.51,0,0,0-1.17-.5,1.57,1.57,0,0,0-1.18.5A1.81,1.81,0,0,0,528,754.72Z"/><path class="cls-8" d="M533.74,752l-.29-1.59v-1.37h1.17v1.37l-.25,1.59Zm1.89,0-.28-1.59v-1.37h1.17v1.37l-.27,1.59Z"/><path class="cls-8" d="M538.51,759.89h-.74a10.31,10.31,0,0,0,1.71-5.49,9.66,9.66,0,0,0-.24-2.13,8.55,8.55,0,0,0-.55-1.64,16.5,16.5,0,0,0-.92-1.71h.74a10.59,10.59,0,0,1,1.59,2.88,7.76,7.76,0,0,1,.44,2.6,7.84,7.84,0,0,1-.59,3A10.85,10.85,0,0,1,538.51,759.89Z"/><line class="cls-9" x1="768.34" y1="761.81" x2="232.71" y2="761.81"/><polygon class="cls-8" points="766.73 764.17 775.54 761.81 766.73 759.45 766.73 764.17"/><polygon class="cls-8" points="225.51 761.81 234.32 764.17 234.32 759.45 225.51 761.81"/><path class="cls-8" d="M488.56,53.39v1H483a1.69,1.69,0,0,1,.12-.71,3.82,3.82,0,0,1,.68-1.12,10.68,10.68,0,0,1,1.34-1.26A11.29,11.29,0,0,0,487,49.51a2.09,2.09,0,0,0,.48-1.23,1.37,1.37,0,0,0-.43-1,1.59,1.59,0,0,0-1.14-.42,1.63,1.63,0,0,0-1.19.44,1.67,1.67,0,0,0-.45,1.24l-1.06-.11a2.63,2.63,0,0,1,.82-1.8,2.74,2.74,0,0,1,1.9-.62,2.65,2.65,0,0,1,1.91.67,2.2,2.2,0,0,1,.7,1.65,2.45,2.45,0,0,1-.21,1,3.69,3.69,0,0,1-.68,1,17,17,0,0,1-1.58,1.47,14.92,14.92,0,0,0-1.19,1.06,3,3,0,0,0-.43.55Z"/><path class="cls-8" d="M489.66,50.25a7.49,7.49,0,0,1,.31-2.39,3,3,0,0,1,.9-1.39,2.33,2.33,0,0,1,1.52-.49,2.48,2.48,0,0,1,1.18.27,2.24,2.24,0,0,1,.84.78,4.35,4.35,0,0,1,.52,1.25,7.91,7.91,0,0,1,.19,2,7.42,7.42,0,0,1-.31,2.38,3,3,0,0,1-.9,1.4,2.31,2.31,0,0,1-1.52.49,2.29,2.29,0,0,1-1.9-.87A5.51,5.51,0,0,1,489.66,50.25Zm1.06,0A5.3,5.3,0,0,0,491.2,53a1.38,1.38,0,0,0,2.38,0,5.25,5.25,0,0,0,.48-2.74,5.25,5.25,0,0,0-.48-2.74,1.41,1.41,0,0,0-1.2-.68,1.32,1.32,0,0,0-1.13.6A5.24,5.24,0,0,0,490.72,50.25Z"/><path class="cls-8" d="M496.74,54.38V53.21h1.17v1.17Z"/><path class="cls-8" d="M502.7,54.38v-2h-3.63v-1L502.89,46h.84v5.42h1.13v1h-1.13v2Zm0-3V47.66l-2.62,3.77Z"/><path class="cls-8" d="M505.91,52.19,507,52.1a1.93,1.93,0,0,0,.55,1.18,1.52,1.52,0,0,0,1.06.4,1.64,1.64,0,0,0,1.25-.56,2.1,2.1,0,0,0,.52-1.49,1.9,1.9,0,0,0-.5-1.38,1.72,1.72,0,0,0-1.29-.51,1.82,1.82,0,0,0-.9.22,1.76,1.76,0,0,0-.62.59l-1-.13.81-4.29h4.16v1h-3.34l-.45,2.25a2.75,2.75,0,0,1,1.58-.53,2.49,2.49,0,0,1,1.85.76,2.64,2.64,0,0,1,.76,1.95,3,3,0,0,1-.67,2,2.64,2.64,0,0,1-2.19,1,2.72,2.72,0,0,1-1.87-.64A2.49,2.49,0,0,1,505.91,52.19Z"/><path class="cls-8" d="M517.71,48.06l-1,.08a1.9,1.9,0,0,0-.39-.88,1.44,1.44,0,0,0-1.89-.16,2.28,2.28,0,0,0-.76,1,5.15,5.15,0,0,0-.29,1.93,2.4,2.4,0,0,1,2-1.11,2.32,2.32,0,0,1,1.75.76,2.7,2.7,0,0,1,.72,1.95,3.18,3.18,0,0,1-.34,1.47,2.52,2.52,0,0,1-.93,1,2.57,2.57,0,0,1-1.35.36,2.61,2.61,0,0,1-2.09-.94,4.78,4.78,0,0,1-.81-3.12,5.55,5.55,0,0,1,.89-3.52,2.57,2.57,0,0,1,2.11-1,2.37,2.37,0,0,1,1.62.55A2.33,2.33,0,0,1,517.71,48.06Zm-4.19,3.61a2.36,2.36,0,0,0,.22,1,1.65,1.65,0,0,0,.63.74,1.59,1.59,0,0,0,.85.26,1.45,1.45,0,0,0,1.12-.53,2.06,2.06,0,0,0,.47-1.42,1.93,1.93,0,0,0-.46-1.37,1.54,1.54,0,0,0-1.17-.5,1.61,1.61,0,0,0-1.18.5A1.81,1.81,0,0,0,513.52,51.67Z"/><line class="cls-3" x1="471.48" y1="59.07" x2="529.4" y2="59.07"/><polygon class="cls-6" points="473.41 61.9 462.84 59.07 473.41 56.23 473.41 61.9"/><polygon class="cls-6" points="527.47 61.9 538.04 59.07 527.47 56.23 527.47 61.9"/><path class="cls-2" d="M368.08,30.37l.28,116.77M632.25,30.37l.3,116.77"/><line class="cls-3" x1="376.45" y1="37.82" x2="623.91" y2="37.82"/><polygon class="cls-6" points="378.38 40.54 367.81 37.71 378.38 34.87 378.38 40.54"/><polygon class="cls-6" points="621.97 40.54 632.55 37.71 621.97 34.87 621.97 40.54"/><path class="cls-8" d="M473.45,24.06v-1h5.42v.8a11.19,11.19,0,0,0-1.59,2.26,13.5,13.5,0,0,0-1.21,2.9,10,10,0,0,0-.39,2.3h-1.06A10.05,10.05,0,0,1,475,29a12.94,12.94,0,0,1,1.06-2.7,11.93,11.93,0,0,1,1.48-2.19Z"/><path class="cls-8" d="M485.28,30.35v1h-5.53a1.76,1.76,0,0,1,.12-.72,3.78,3.78,0,0,1,.68-1.11,10.62,10.62,0,0,1,1.34-1.27,10.92,10.92,0,0,0,1.84-1.77,2.14,2.14,0,0,0,.48-1.24,1.38,1.38,0,0,0-.43-1,1.57,1.57,0,0,0-1.14-.42,1.6,1.6,0,0,0-1.19.45,1.66,1.66,0,0,0-.45,1.23l-1.06-.11a2.67,2.67,0,0,1,.82-1.8,2.8,2.8,0,0,1,1.9-.62,2.69,2.69,0,0,1,1.91.67,2.2,2.2,0,0,1,.7,1.66,2.43,2.43,0,0,1-.21,1,3.58,3.58,0,0,1-.68,1,18.59,18.59,0,0,1-1.58,1.47c-.62.52-1,.87-1.19,1.05a3.5,3.5,0,0,0-.43.56Z"/><path class="cls-8" d="M491.88,33.8a10.24,10.24,0,0,1-1.44-2.52,7.86,7.86,0,0,1-.15-5.58,10.69,10.69,0,0,1,1.59-2.87h.73c-.46.79-.76,1.35-.91,1.69a10.19,10.19,0,0,0-.55,1.64,9.84,9.84,0,0,0-.24,2.15,10.38,10.38,0,0,0,1.7,5.49Z"/><path class="cls-8" d="M498.92,30.35v1h-5.53a1.76,1.76,0,0,1,.12-.72,3.74,3.74,0,0,1,.67-1.11,10.14,10.14,0,0,1,1.35-1.27,10.92,10.92,0,0,0,1.84-1.77,2.14,2.14,0,0,0,.48-1.24,1.36,1.36,0,0,0-.44-1,1.56,1.56,0,0,0-1.13-.42,1.6,1.6,0,0,0-1.19.45,1.66,1.66,0,0,0-.45,1.23l-1.06-.11a2.63,2.63,0,0,1,.82-1.8,2.79,2.79,0,0,1,1.9-.62,2.69,2.69,0,0,1,1.91.67,2.24,2.24,0,0,1,.7,1.66,2.43,2.43,0,0,1-.21,1,3.8,3.8,0,0,1-.68,1,20.31,20.31,0,0,1-1.58,1.47c-.62.52-1,.87-1.19,1.05a3.59,3.59,0,0,0-.44.56Z"/><path class="cls-8" d="M500.6,31.34V30.17h1.17v1.17Z"/><path class="cls-8" d="M505.43,26.8a2,2,0,0,1-.95-.67,1.77,1.77,0,0,1-.3-1,2,2,0,0,1,.65-1.53,2.42,2.42,0,0,1,1.75-.63,2.45,2.45,0,0,1,1.76.64,2.05,2.05,0,0,1,.67,1.55,1.7,1.7,0,0,1-.3,1,2,2,0,0,1-.93.67,2.29,2.29,0,0,1,1.17.81,2.21,2.21,0,0,1,.4,1.33,2.4,2.4,0,0,1-.76,1.81,3.08,3.08,0,0,1-4,0,2.39,2.39,0,0,1-.76-1.82,2.25,2.25,0,0,1,.41-1.37A2.06,2.06,0,0,1,505.43,26.8Zm-.53,2.12a2,2,0,0,0,.2.85,1.47,1.47,0,0,0,.62.64,1.83,1.83,0,0,0,.89.22,1.7,1.7,0,0,0,1.2-2.9,1.71,1.71,0,0,0-1.24-.49,1.63,1.63,0,0,0-1.2.48A1.66,1.66,0,0,0,504.9,28.92Zm.33-3.86a1.29,1.29,0,0,0,.38,1,1.5,1.5,0,0,0,2,0,1.24,1.24,0,0,0,.38-.92,1.31,1.31,0,0,0-.4-.95,1.34,1.34,0,0,0-1-.38,1.29,1.29,0,0,0-1,.38A1.2,1.2,0,0,0,505.23,25.06Z"/><path class="cls-8" d="M510.36,29.13l1-.14a2.19,2.19,0,0,0,.6,1.26,1.46,1.46,0,0,0,1,.38,1.65,1.65,0,0,0,1.23-.5,1.7,1.7,0,0,0,.5-1.24,1.59,1.59,0,0,0-.47-1.17,1.55,1.55,0,0,0-1.17-.46,3.31,3.31,0,0,0-.73.11l.12-.9h.16a2.12,2.12,0,0,0,1.19-.34,1.17,1.17,0,0,0,.52-1.05,1.27,1.27,0,0,0-.38-.94,1.51,1.51,0,0,0-2,0,1.87,1.87,0,0,0-.51,1.13l-1-.19a2.64,2.64,0,0,1,.86-1.6,2.46,2.46,0,0,1,1.66-.57,2.72,2.72,0,0,1,1.26.3,2.07,2.07,0,0,1,.88.8,2.11,2.11,0,0,1,.31,1.08,1.82,1.82,0,0,1-.29,1,2,2,0,0,1-.87.7,2,2,0,0,1,1.16.71,2.19,2.19,0,0,1,.41,1.35,2.49,2.49,0,0,1-.8,1.86,2.8,2.8,0,0,1-2,.76,2.6,2.6,0,0,1-1.83-.65A2.54,2.54,0,0,1,510.36,29.13Z"/><path class="cls-8" d="M516.85,29.14l1.08-.09a2,2,0,0,0,.56,1.19,1.52,1.52,0,0,0,1,.39,1.63,1.63,0,0,0,1.26-.56,2.1,2.1,0,0,0,.51-1.48,1.9,1.9,0,0,0-.49-1.39,1.72,1.72,0,0,0-1.3-.5,1.75,1.75,0,0,0-.89.22,1.71,1.71,0,0,0-.63.59l-1-.13.81-4.3H522v1h-3.34l-.45,2.25a2.71,2.71,0,0,1,1.58-.52,2.51,2.51,0,0,1,1.85.76,2.64,2.64,0,0,1,.75,1.95,3,3,0,0,1-.66,2,2.94,2.94,0,0,1-4.06.38A2.52,2.52,0,0,1,516.85,29.14Z"/><path class="cls-8" d="M523.69,25.93l-.29-1.59V23h1.17v1.37l-.25,1.59Zm1.89,0-.28-1.59V23h1.17v1.37l-.27,1.59Z"/><path class="cls-8" d="M528.45,33.8h-.74a10.31,10.31,0,0,0,1.71-5.49,9.68,9.68,0,0,0-.25-2.13,9,9,0,0,0-.54-1.64c-.15-.34-.46-.91-.92-1.71h.74A10.92,10.92,0,0,1,530,25.7a7.86,7.86,0,0,1-.15,5.58A10.55,10.55,0,0,1,528.45,33.8Z"/><path class="cls-2" d="M538,51.63V93.55m-75.2-41.92V93.55"/><path class="cls-8" d="M591.42,637l-1-.33,2.13-6.19a5.61,5.61,0,0,1-1.15.35,7.52,7.52,0,0,1-1.2.15l.32-.94a6.42,6.42,0,0,0,1.75-.44,3.76,3.76,0,0,0,1.22-.76l.63.22Z"/><path class="cls-8" d="M594.44,638.06l.39-1.1,1.1.38-.38,1.1Zm1.6-4.62.38-1.11,1.1.38-.38,1.11Z"/><path class="cls-8" d="M602.4,639.76l-.32.93-5.23-1.8a1.9,1.9,0,0,1,.35-.64,3.81,3.81,0,0,1,1-.83,10.63,10.63,0,0,1,1.68-.76,11.92,11.92,0,0,0,2.32-1.07,2.13,2.13,0,0,0,.86-1,1.38,1.38,0,0,0-.08-1.11,1.59,1.59,0,0,0-.94-.77,1.63,1.63,0,0,0-1.27,0,1.73,1.73,0,0,0-.83,1l-1-.44a2.64,2.64,0,0,1,1.36-1.44,2.76,2.76,0,0,1,2,0,2.62,2.62,0,0,1,1.58,1.25,2.22,2.22,0,0,1,.13,1.8,2.48,2.48,0,0,1-.52.86,4,4,0,0,1-1,.75,17.84,17.84,0,0,1-2,.88c-.75.29-1.24.49-1.47.61a3.15,3.15,0,0,0-.59.38Z"/><path class="cls-8" d="M603.67,641.23l.38-1.1,1.1.38-.38,1.1Z"/><path class="cls-8" d="M608.62,635.25l.32-.93,5.13,1.76-.26.75a11.69,11.69,0,0,0-2.24,1.63,14,14,0,0,0-2.09,2.34,11.35,11.35,0,0,0-1.12,2.05l-1-.34a10.37,10.37,0,0,1,1.15-2.13,12.72,12.72,0,0,1,1.88-2.21,11.32,11.32,0,0,1,2.11-1.59Z"/><path class="cls-8" d="M613.05,642.15l1.05.26a2,2,0,0,0,.14,1.3,1.52,1.52,0,0,0,.87.72,1.65,1.65,0,0,0,1.37-.12,2.1,2.1,0,0,0,1-1.24,1.91,1.91,0,0,0,0-1.47,1.7,1.7,0,0,0-1-.9,1.78,1.78,0,0,0-1.71.27l-.87-.43,2.16-3.8,3.94,1.35-.32.93-3.16-1.09-1.16,2a2.71,2.71,0,0,1,1.67,0,2.52,2.52,0,0,1,1.5,1.32,2.65,2.65,0,0,1,.08,2.09,3,3,0,0,1-1.27,1.64,2.63,2.63,0,0,1-2.4.25,2.74,2.74,0,0,1-1.56-1.21A2.55,2.55,0,0,1,613.05,642.15Z"/><path class="cls-8" d="M429.12,663.3l-1,.08-.52-6.53a4.9,4.9,0,0,1-.91.78,6.42,6.42,0,0,1-1,.62l-.08-1a6.16,6.16,0,0,0,1.43-1.1,3.69,3.69,0,0,0,.82-1.19l.66-.05Z"/><path class="cls-8" d="M431.93,658.17l-.09-1.17,1.16-.09.1,1.17Zm.38,4.88-.09-1.17,1.17-.09.09,1.17Z"/><path class="cls-8" d="M438.84,662.53l-1,.08-.51-6.52a5.79,5.79,0,0,1-.91.78,6.29,6.29,0,0,1-1,.61l-.08-1a6.35,6.35,0,0,0,1.43-1.09,3.92,3.92,0,0,0,.82-1.19l.66-.05Z"/><path class="cls-8" d="M444.75,662.07l-.16-2-3.62.29-.08-.94,3.39-5.71.83-.06.43,5.4,1.12-.09.08.94-1.13.09.16,2Zm-.24-2.94-.29-3.76-2.32,4Z"/><line class="cls-3" x1="183.38" y1="715.68" x2="183.38" y2="511.33"/><polygon class="cls-6" points="186.1 713.75 183.27 724.32 180.43 713.75 186.1 713.75"/><polygon class="cls-6" points="186.1 513.27 183.27 502.69 180.43 513.27 186.1 513.27"/><path class="cls-8" d="M171.77,626.63l.08,1a2,2,0,0,0-.88.39,1.37,1.37,0,0,0-.44,1,1.46,1.46,0,0,0,.28.87,2.28,2.28,0,0,0,1,.76,5.39,5.39,0,0,0,1.94.29,2.32,2.32,0,0,1-.84-.9,2.52,2.52,0,0,1-.28-1.13,2.35,2.35,0,0,1,.76-1.75,2.71,2.71,0,0,1,2-.72,3.18,3.18,0,0,1,1.47.34,2.52,2.52,0,0,1,1,.93,2.57,2.57,0,0,1,.36,1.35,2.61,2.61,0,0,1-.94,2.09,4.77,4.77,0,0,1-3.11.81,5.56,5.56,0,0,1-3.53-.89,2.58,2.58,0,0,1-1-2.11,2.22,2.22,0,0,1,2.08-2.37Zm3.61,4.19a2.43,2.43,0,0,0,1-.22,1.7,1.7,0,0,0,.74-.63,1.67,1.67,0,0,0,.25-.85,1.45,1.45,0,0,0-.53-1.12,2.06,2.06,0,0,0-1.42-.47,1.93,1.93,0,0,0-1.37.46,1.54,1.54,0,0,0-.5,1.17,1.61,1.61,0,0,0,.5,1.18A1.81,1.81,0,0,0,175.38,630.82Z"/><path class="cls-8" d="M174,625.46a7.45,7.45,0,0,1-2.39-.31,2.88,2.88,0,0,1-1.4-.91,2.28,2.28,0,0,1-.49-1.51,2.48,2.48,0,0,1,.27-1.18,2.24,2.24,0,0,1,.78-.84,4.35,4.35,0,0,1,1.25-.52,8.06,8.06,0,0,1,2-.19,7.68,7.68,0,0,1,2.37.3,3.08,3.08,0,0,1,1.4.91,2.56,2.56,0,0,1-.37,3.42A5.53,5.53,0,0,1,174,625.46Zm0-1.06a5.28,5.28,0,0,0,2.74-.48,1.38,1.38,0,0,0,0-2.38,8.06,8.06,0,0,0-5.48,0,1.43,1.43,0,0,0-.68,1.2,1.32,1.32,0,0,0,.6,1.13A5.35,5.35,0,0,0,174,624.4Z"/><path class="cls-8" d="M178.09,618.38h-1.17v-1.17h1.17Z"/><path class="cls-8" d="M177.1,610.31h1v5.53a1.71,1.71,0,0,1-.71-.12,3.66,3.66,0,0,1-1.11-.68A10,10,0,0,1,175,613.7a11.77,11.77,0,0,0-1.77-1.84,2.14,2.14,0,0,0-1.24-.48,1.37,1.37,0,0,0-1,.43,1.78,1.78,0,0,0,0,2.33,1.63,1.63,0,0,0,1.23.45l-.11,1.06a2.63,2.63,0,0,1-1.8-.82,2.8,2.8,0,0,1-.62-1.9,2.65,2.65,0,0,1,.67-1.91,2.2,2.2,0,0,1,1.65-.7,2.45,2.45,0,0,1,1,.21,3.69,3.69,0,0,1,1,.68,15.78,15.78,0,0,1,1.47,1.58c.52.62.87,1,1.06,1.19a3,3,0,0,0,.55.43Z"/><path class="cls-8" d="M175.9,609.22l-.09-1.07a1.93,1.93,0,0,0,1.18-.56,1.48,1.48,0,0,0,.4-1.05,1.65,1.65,0,0,0-.56-1.26,2.11,2.11,0,0,0-1.48-.51,1.9,1.9,0,0,0-1.39.49,1.72,1.72,0,0,0-.51,1.29,1.83,1.83,0,0,0,.23.9,1.68,1.68,0,0,0,.58.63l-.12,1-4.3-.81v-4.16h1v3.34l2.25.45a2.73,2.73,0,0,1-.53-1.58,2.53,2.53,0,0,1,.76-1.85,2.67,2.67,0,0,1,1.95-.75,3.06,3.06,0,0,1,2,.66,2.67,2.67,0,0,1,1,2.2,2.72,2.72,0,0,1-.63,1.86A2.49,2.49,0,0,1,175.9,609.22Z"/><path class="cls-8" d="M130.51,606a2,2,0,0,1-.67.95,1.73,1.73,0,0,1-1,.31,2,2,0,0,1-1.53-.66,2.42,2.42,0,0,1-.63-1.74,2.48,2.48,0,0,1,.64-1.77,2.07,2.07,0,0,1,1.55-.67,1.71,1.71,0,0,1,1,.31,1.91,1.91,0,0,1,.67.93,2.17,2.17,0,0,1,.81-1.18,2.27,2.27,0,0,1,1.33-.4,2.4,2.4,0,0,1,1.81.76,3.09,3.09,0,0,1,0,4,2.44,2.44,0,0,1-1.83.75,2.16,2.16,0,0,1-1.36-.41A2,2,0,0,1,130.51,606Zm-1.74.21a1.33,1.33,0,0,0,1-.38,1.37,1.37,0,0,0,.37-1,1.32,1.32,0,0,0-.37-1,1.26,1.26,0,0,0-.92-.38,1.3,1.3,0,0,0-.95.39,1.36,1.36,0,0,0-.38,1,1.34,1.34,0,0,0,.37,1A1.24,1.24,0,0,0,128.77,606.18Zm3.86.33a1.84,1.84,0,0,0,.85-.21,1.47,1.47,0,0,0,.64-.62,1.8,1.8,0,0,0,.22-.88,1.69,1.69,0,0,0-.47-1.22,1.64,1.64,0,0,0-1.21-.48,1.67,1.67,0,0,0-1.22.49,1.69,1.69,0,0,0-.49,1.24,1.64,1.64,0,0,0,1.68,1.68Z"/><path class="cls-8" d="M130.92,601.05a7.78,7.78,0,0,1-2.39-.3,3.08,3.08,0,0,1-1.4-.91,2.37,2.37,0,0,1-.49-1.52,2.5,2.5,0,0,1,.27-1.18,2.35,2.35,0,0,1,.79-.84,4.29,4.29,0,0,1,1.24-.52,8.66,8.66,0,0,1,2-.18,7.8,7.8,0,0,1,2.38.3,3,3,0,0,1,1.39.9,2.32,2.32,0,0,1,.5,1.52,2.29,2.29,0,0,1-.87,1.9A5.46,5.46,0,0,1,130.92,601.05Zm0-1a5.13,5.13,0,0,0,2.74-.49,1.42,1.42,0,0,0,.68-1.19,1.44,1.44,0,0,0-.68-1.19,8.09,8.09,0,0,0-5.49,0,1.46,1.46,0,0,0-.68,1.21,1.33,1.33,0,0,0,.6,1.13A5.35,5.35,0,0,0,130.92,600Z"/><path class="cls-8" d="M135,594h-1.17v-1.17H135Z"/><path class="cls-8" d="M133.11,591.15l-.09-1a1.69,1.69,0,0,0,1-.48,1.3,1.3,0,0,0,.31-.9,1.57,1.57,0,0,0-.21-.83,1.82,1.82,0,0,0-.58-.59,3.39,3.39,0,0,0-1-.38,5.31,5.31,0,0,0-1.26-.16h-.2a2.45,2.45,0,0,1,.79.84,2.24,2.24,0,0,1,.31,1.16,2.32,2.32,0,0,1-.76,1.76,2.78,2.78,0,0,1-2,.71,2.83,2.83,0,0,1-2-.75,2.49,2.49,0,0,1-.78-1.88,2.71,2.71,0,0,1,.44-1.49,2.81,2.81,0,0,1,1.26-1,6.21,6.21,0,0,1,2.35-.35,7.62,7.62,0,0,1,2.55.35,3,3,0,0,1,1.45,1,2.66,2.66,0,0,1,.5,1.61,2.22,2.22,0,0,1-2.08,2.35Zm-3.69-4.21a2.05,2.05,0,0,0-1.41.47,1.52,1.52,0,0,0-.52,1.14,1.58,1.58,0,0,0,.56,1.19,2.09,2.09,0,0,0,1.45.51,1.78,1.78,0,0,0,1.3-.48,1.62,1.62,0,0,0,.5-1.19,1.55,1.55,0,0,0-.5-1.18A2,2,0,0,0,129.42,586.94Z"/><path class="cls-8" d="M134.06,579.42h1V585a1.74,1.74,0,0,1-.71-.12,3.62,3.62,0,0,1-1.11-.67,10.14,10.14,0,0,1-1.27-1.35,11.77,11.77,0,0,0-1.77-1.84,2.14,2.14,0,0,0-1.24-.48,1.34,1.34,0,0,0-1,.44,1.56,1.56,0,0,0-.42,1.13,1.6,1.6,0,0,0,.45,1.19,1.63,1.63,0,0,0,1.23.45l-.11,1.06a2.59,2.59,0,0,1-1.8-.82,2.79,2.79,0,0,1-.62-1.9,2.65,2.65,0,0,1,.67-1.91,2.21,2.21,0,0,1,1.65-.7,2.45,2.45,0,0,1,1,.21,3.77,3.77,0,0,1,1,.68,18.26,18.26,0,0,1,1.48,1.58,13.56,13.56,0,0,0,1.05,1.19,3.18,3.18,0,0,0,.56.44Z"/><line class="cls-3" x1="139.08" y1="715.68" x2="139.08" y2="435.57"/><polygon class="cls-6" points="141.79 713.75 138.96 724.32 136.13 713.75 141.79 713.75"/><polygon class="cls-6" points="141.79 437.5 138.96 426.93 136.13 437.5 141.79 437.5"/><line class="cls-2" x1="875.92" y1="715.14" x2="875.92" y2="101.52"/><polygon class="cls-6" points="878.64 713.21 875.8 723.78 872.97 713.21 878.64 713.21"/><polygon class="cls-6" points="878.64 103.45 875.8 92.88 872.97 103.45 878.64 103.45"/><path class="cls-8" d="M870.74,437.57v1H864.2a5.18,5.18,0,0,1,.7,1,5.9,5.9,0,0,1,.53,1.08h-1a6.24,6.24,0,0,0-1-1.51,3.83,3.83,0,0,0-1.12-.91v-.66Z"/><path class="cls-8" d="M863.47,434.87h-1v-5.42h.8a11.48,11.48,0,0,0,2.26,1.58,13.76,13.76,0,0,0,2.9,1.22,11.37,11.37,0,0,0,2.3.39v1.06a10.52,10.52,0,0,1-2.38-.39,12.45,12.45,0,0,1-2.7-1.07,11.27,11.27,0,0,1-2.19-1.47Z"/><path class="cls-8" d="M869.76,423h1v5.54a2.16,2.16,0,0,1-.71-.12,3.87,3.87,0,0,1-1.11-.68,10.62,10.62,0,0,1-1.27-1.34,12,12,0,0,0-1.77-1.85,2.14,2.14,0,0,0-1.24-.48,1.38,1.38,0,0,0-1,.44,1.76,1.76,0,0,0,0,2.32,1.69,1.69,0,0,0,1.23.46l-.11,1.05a2.55,2.55,0,0,1-1.8-.82,2.79,2.79,0,0,1-.62-1.9,2.62,2.62,0,0,1,.67-1.9,2.18,2.18,0,0,1,1.65-.7,2.43,2.43,0,0,1,1,.2,3.85,3.85,0,0,1,1,.68,17.27,17.27,0,0,1,1.48,1.59,14.55,14.55,0,0,0,1.05,1.18,3.18,3.18,0,0,0,.56.44Z"/><path class="cls-8" d="M873.2,416.44a10.64,10.64,0,0,1-2.51,1.44,7.83,7.83,0,0,1-3,.58,7.6,7.6,0,0,1-2.6-.44,11.13,11.13,0,0,1-2.88-1.58v-.74a17,17,0,0,0,1.7.91,8.32,8.32,0,0,0,1.64.55,9.22,9.22,0,0,0,2.15.25,10.25,10.25,0,0,0,5.48-1.71Z"/><path class="cls-8" d="M864.42,409.46l.08,1a2.08,2.08,0,0,0-.87.39,1.34,1.34,0,0,0-.44,1,1.42,1.42,0,0,0,.27.86,2.36,2.36,0,0,0,1,.77,5.66,5.66,0,0,0,1.94.29,2.35,2.35,0,0,1-.84-.91,2.48,2.48,0,0,1-.28-1.12,2.34,2.34,0,0,1,.76-1.75,2.7,2.7,0,0,1,2-.73,3.3,3.3,0,0,1,1.46.34,2.47,2.47,0,0,1,1.4,2.28,2.64,2.64,0,0,1-.95,2.1,4.77,4.77,0,0,1-3.11.81,5.56,5.56,0,0,1-3.53-.9,2.57,2.57,0,0,1-1-2.1,2.24,2.24,0,0,1,2.08-2.38Zm3.61,4.2a2.41,2.41,0,0,0,1-.23,1.7,1.7,0,0,0,.74-.63A1.56,1.56,0,0,0,870,412a1.45,1.45,0,0,0-.52-1.12,2.09,2.09,0,0,0-1.43-.47,2,2,0,0,0-1.37.47,1.51,1.51,0,0,0-.5,1.16,1.58,1.58,0,0,0,.5,1.18A1.79,1.79,0,0,0,868,413.66Z"/><path class="cls-8" d="M870.74,407.72h-1.17v-1.17h1.17Z"/><path class="cls-8" d="M863.47,405h-1v-5.42h.8a11.48,11.48,0,0,0,2.26,1.58,13.76,13.76,0,0,0,2.9,1.22,11.37,11.37,0,0,0,2.3.39v1.06a10,10,0,0,1-2.38-.39,12.45,12.45,0,0,1-2.7-1.07,11.27,11.27,0,0,1-2.19-1.47Z"/><path class="cls-8" d="M863.47,398.48h-1v-5.42h.8a11.48,11.48,0,0,0,2.26,1.58,13.76,13.76,0,0,0,2.9,1.22,11.37,11.37,0,0,0,2.3.39v1.06a10,10,0,0,1-2.38-.39,12.45,12.45,0,0,1-2.7-1.07,11.27,11.27,0,0,1-2.19-1.47Z"/><path class="cls-8" d="M869.76,386.65h1v5.53a2.16,2.16,0,0,1-.71-.12,3.66,3.66,0,0,1-1.11-.68,10.62,10.62,0,0,1-1.27-1.34,12,12,0,0,0-1.77-1.85,2.14,2.14,0,0,0-1.24-.48,1.38,1.38,0,0,0-1,.44,1.76,1.76,0,0,0,0,2.32,1.69,1.69,0,0,0,1.23.46l-.11,1.05a2.58,2.58,0,0,1-1.8-.81,2.83,2.83,0,0,1-.62-1.91,2.62,2.62,0,0,1,.67-1.9,2.18,2.18,0,0,1,1.65-.7,2.61,2.61,0,0,1,1,.2,3.85,3.85,0,0,1,1,.68,17.27,17.27,0,0,1,1.48,1.59c.51.61.86,1,1.05,1.19a3.64,3.64,0,0,0,.56.43Z"/><path class="cls-8" d="M865.34,383.32l-1.59.28h-1.37v-1.17h1.37l1.59.27Zm0,1.89-1.59.28h-1.37v-1.17h1.37l1.59.26Z"/><path class="cls-8" d="M873.2,380.48v.73a10.24,10.24,0,0,0-5.48-1.7,9.53,9.53,0,0,0-2.13.24,9,9,0,0,0-1.64.54c-.35.15-.92.46-1.72.92v-.73a10.89,10.89,0,0,1,2.88-1.59,7.86,7.86,0,0,1,5.58.15A10,10,0,0,1,873.2,380.48Z"/><line class="cls-10" x1="688.27" y1="426.93" x2="128.62" y2="426.93"/><line class="cls-3" x1="183.36" y1="493.92" x2="183.36" y2="394.06"/><polygon class="cls-6" points="186.07 491.98 183.24 502.55 180.41 491.98 186.07 491.98"/><polygon class="cls-6" points="186.07 396 183.24 385.42 180.41 396 186.07 396"/><path class="cls-8" d="M175.86,461.29l-.14-1a2.32,2.32,0,0,0,1.26-.6,1.49,1.49,0,0,0,.38-1,1.67,1.67,0,0,0-.5-1.23,1.69,1.69,0,0,0-1.24-.49,1.57,1.57,0,0,0-1.63,1.63,3.23,3.23,0,0,0,.11.73l-.9-.12a1,1,0,0,0,0-.16,2.09,2.09,0,0,0-.34-1.18,1.17,1.17,0,0,0-1.05-.53,1.27,1.27,0,0,0-.94.38,1.37,1.37,0,0,0-.37,1,1.41,1.41,0,0,0,.38,1,1.81,1.81,0,0,0,1.13.51l-.19,1a2.63,2.63,0,0,1-1.6-.85,2.48,2.48,0,0,1-.57-1.66,2.73,2.73,0,0,1,.3-1.27,2.13,2.13,0,0,1,.8-.88,2.1,2.1,0,0,1,1.08-.3,1.74,1.74,0,0,1,1,.29,2,2,0,0,1,.7.86,2,2,0,0,1,.71-1.15,2.13,2.13,0,0,1,1.35-.41,2.46,2.46,0,0,1,1.86.79,2.82,2.82,0,0,1,.76,2,2.6,2.6,0,0,1-.65,1.83A2.5,2.5,0,0,1,175.86,461.29Z"/><path class="cls-8" d="M177.08,449.4h1v5.53a1.76,1.76,0,0,1-.72-.12,3.58,3.58,0,0,1-1.11-.68,10,10,0,0,1-1.27-1.34A10.92,10.92,0,0,0,173.2,451a2.11,2.11,0,0,0-1.24-.48,1.38,1.38,0,0,0-1,.43,1.81,1.81,0,0,0,0,2.33,1.66,1.66,0,0,0,1.23.45l-.11,1.06a2.67,2.67,0,0,1-1.8-.82,2.79,2.79,0,0,1-.62-1.9,2.69,2.69,0,0,1,.67-1.91,2.24,2.24,0,0,1,1.66-.7,2.52,2.52,0,0,1,1,.21,3.69,3.69,0,0,1,1,.68,18.5,18.5,0,0,1,1.47,1.58c.52.62.87,1,1.05,1.19a3,3,0,0,0,.56.43Z"/><path class="cls-8" d="M309.55,499v-8.36h3.71a4.91,4.91,0,0,1,1.7.22,1.85,1.85,0,0,1,.93.8,2.3,2.3,0,0,1,.35,1.26,2.13,2.13,0,0,1-.57,1.5,2.92,2.92,0,0,1-1.78.78,3,3,0,0,1,.66.41,5.56,5.56,0,0,1,.92,1.12l1.46,2.27h-1.4l-1.1-1.74c-.33-.5-.59-.88-.8-1.15a2.65,2.65,0,0,0-.56-.56,1.61,1.61,0,0,0-.51-.22,3.09,3.09,0,0,0-.62,0h-1.28V499Zm1.11-4.67H313a3.44,3.44,0,0,0,1.19-.16,1.26,1.26,0,0,0,.65-.5,1.34,1.34,0,0,0,.22-.75,1.25,1.25,0,0,0-.43-1,2,2,0,0,0-1.36-.38h-2.65Z"/><path class="cls-8" d="M321.43,499h-1v-6.54a5.55,5.55,0,0,1-1,.71,7.57,7.57,0,0,1-1.08.53v-1a5.89,5.89,0,0,0,1.5-1,3.88,3.88,0,0,0,.92-1.12h.66Z"/><path class="cls-8" d="M329.46,498v1h-5.53a1.74,1.74,0,0,1,.12-.71,3.66,3.66,0,0,1,.68-1.11,10,10,0,0,1,1.34-1.27,11.33,11.33,0,0,0,1.84-1.77,2.14,2.14,0,0,0,.48-1.24,1.38,1.38,0,0,0-.43-1,1.78,1.78,0,0,0-2.33,0,1.66,1.66,0,0,0-.45,1.23l-1.06-.11a2.65,2.65,0,0,1,.82-1.8,2.8,2.8,0,0,1,1.9-.62,2.69,2.69,0,0,1,1.91.67,2.24,2.24,0,0,1,.7,1.66,2.43,2.43,0,0,1-.21,1,3.42,3.42,0,0,1-.68,1,16.86,16.86,0,0,1-1.58,1.48c-.62.52-1,.87-1.19,1a2.7,2.7,0,0,0-.43.56Z"/><path class="cls-8" d="M330.56,494.88a7.45,7.45,0,0,1,.31-2.39,3,3,0,0,1,.9-1.4,2.39,2.39,0,0,1,1.52-.49,2.48,2.48,0,0,1,1.18.27,2.27,2.27,0,0,1,.84.79,4.29,4.29,0,0,1,.52,1.24,8.06,8.06,0,0,1,.19,2,7.8,7.8,0,0,1-.3,2.38,3,3,0,0,1-.91,1.39,2.32,2.32,0,0,1-1.52.5,2.29,2.29,0,0,1-1.9-.87A5.53,5.53,0,0,1,330.56,494.88Zm1.06,0a5.25,5.25,0,0,0,.48,2.74,1.38,1.38,0,0,0,2.38,0,8.09,8.09,0,0,0,0-5.49,1.43,1.43,0,0,0-1.2-.68,1.32,1.32,0,0,0-1.13.6A5.25,5.25,0,0,0,331.62,494.88Z"/><path class="cls-8" d="M340.89,548.89v1h-6.55a5.42,5.42,0,0,1,.71,1,6.63,6.63,0,0,1,.53,1.08h-1a6.37,6.37,0,0,0-1-1.5,4,4,0,0,0-1.12-.92v-.66Z"/><path class="cls-8" d="M339,546.11l-.09-1a1.66,1.66,0,0,0,1-.48,1.33,1.33,0,0,0,.32-.91,1.63,1.63,0,0,0-.22-.83,1.69,1.69,0,0,0-.58-.58,3.38,3.38,0,0,0-1-.39,5.28,5.28,0,0,0-1.25-.15H337a2.35,2.35,0,0,1,1.1,2,2.34,2.34,0,0,1-.75,1.76,2.75,2.75,0,0,1-2,.72,2.83,2.83,0,0,1-2.05-.75,2.53,2.53,0,0,1-.77-1.88,2.63,2.63,0,0,1,.44-1.49,2.72,2.72,0,0,1,1.25-1,6.25,6.25,0,0,1,2.35-.35,7.48,7.48,0,0,1,2.56.35,3,3,0,0,1,1.45,1,2.7,2.7,0,0,1,.49,1.62,2.37,2.37,0,0,1-.54,1.6A2.43,2.43,0,0,1,339,546.11Zm-3.69-4.21a2,2,0,0,0-1.4.47,1.45,1.45,0,0,0-.52,1.13,1.55,1.55,0,0,0,.56,1.2,2,2,0,0,0,1.45.5,1.82,1.82,0,0,0,1.3-.48,1.59,1.59,0,0,0,.49-1.19,1.53,1.53,0,0,0-.49-1.17A2,2,0,0,0,335.26,541.9Z"/><path class="cls-8" d="M340.89,539.18h-1.17V538h1.17Z"/><path class="cls-8" d="M338.7,536.51l-.09-1.08a1.93,1.93,0,0,0,1.18-.55,1.51,1.51,0,0,0,.4-1.06,1.64,1.64,0,0,0-.56-1.25,2.13,2.13,0,0,0-1.49-.52,1.9,1.9,0,0,0-1.38.5,1.72,1.72,0,0,0-.51,1.29,1.82,1.82,0,0,0,.22.9,1.88,1.88,0,0,0,.59.63l-.13,1-4.29-.81v-4.16h1v3.34l2.25.45a2.73,2.73,0,0,1-.53-1.58,2.53,2.53,0,0,1,.76-1.85,2.67,2.67,0,0,1,1.95-.75,3.08,3.08,0,0,1,2,.66,2.66,2.66,0,0,1,1,2.19,2.69,2.69,0,0,1-.64,1.87A2.49,2.49,0,0,1,338.7,536.51Z"/><line class="cls-11" x1="344.11" y1="374.64" x2="344.11" y2="324.97"/><polygon class="cls-6" points="347.53 372.21 343.96 385.51 340.4 372.21 347.53 372.21"/><polygon class="cls-6" points="347.53 327.4 343.96 314.1 340.4 327.4 347.53 327.4"/><path class="cls-8" d="M338.82,356.52v1h-6.54a5.42,5.42,0,0,1,.7,1,5.9,5.9,0,0,1,.53,1.08h-1a6.37,6.37,0,0,0-1-1.5,4,4,0,0,0-1.12-.92v-.66Z"/><path class="cls-8" d="M336.89,353.74l-.09-1a1.69,1.69,0,0,0,1-.48,1.32,1.32,0,0,0,.31-.91,1.54,1.54,0,0,0-.22-.83,1.69,1.69,0,0,0-.58-.58,3.31,3.31,0,0,0-1-.39,5.36,5.36,0,0,0-1.26-.15h-.21a2.23,2.23,0,0,1,.8.84,2.3,2.3,0,0,1,.3,1.15,2.34,2.34,0,0,1-.75,1.76,2.74,2.74,0,0,1-2,.72,2.81,2.81,0,0,1-2.05-.75,2.5,2.5,0,0,1-.78-1.88,2.71,2.71,0,0,1,1.69-2.52,6.27,6.27,0,0,1,2.36-.35,7.62,7.62,0,0,1,2.55.35,3,3,0,0,1,1.45,1,2.69,2.69,0,0,1,.49,1.61,2.21,2.21,0,0,1-2.07,2.36Zm-3.7-4.21a2,2,0,0,0-1.4.47,1.47,1.47,0,0,0-.52,1.13,1.59,1.59,0,0,0,.56,1.2,2.06,2.06,0,0,0,1.45.5,1.8,1.8,0,0,0,1.3-.48,1.6,1.6,0,0,0,.5-1.19,1.54,1.54,0,0,0-.5-1.17A2,2,0,0,0,333.19,349.53Z"/><path class="cls-8" d="M338.82,346.81h-1.17v-1.17h1.17Z"/><path class="cls-8" d="M336.63,344.14l-.09-1.08a1.93,1.93,0,0,0,1.18-.55,1.49,1.49,0,0,0,.4-1.06,1.64,1.64,0,0,0-.56-1.25,2.11,2.11,0,0,0-1.48-.51,1.9,1.9,0,0,0-1.39.49,1.72,1.72,0,0,0-.51,1.29,1.83,1.83,0,0,0,.23.9,1.85,1.85,0,0,0,.58.63l-.12,1-4.3-.81V339h1v3.34l2.25.45a2.73,2.73,0,0,1-.53-1.58,2.53,2.53,0,0,1,.76-1.85,2.68,2.68,0,0,1,2-.76,3.07,3.07,0,0,1,2,.67,2.63,2.63,0,0,1,1,2.19,2.73,2.73,0,0,1-.63,1.87A2.53,2.53,0,0,1,336.63,344.14Z"/><line class="cls-3" x1="689.72" y1="136.63" x2="689.72" y2="101.45"/><polygon class="cls-6" points="692.44 134.69 689.61 145.27 686.77 134.69 692.44 134.69"/><polygon class="cls-6" points="692.44 103.38 689.61 92.81 686.77 103.38 692.44 103.38"/><path class="cls-8" d="M684.43,126.89v1h-6.55a4.78,4.78,0,0,1,.71,1,6.63,6.63,0,0,1,.53,1.08h-1a6.24,6.24,0,0,0-1-1.51,4,4,0,0,0-1.12-.91v-.66Z"/><path class="cls-8" d="M684.43,121h-2v3.63h-.95l-5.42-3.82v-.84h5.42V118.8h.95v1.13h2Zm-2.95,0h-3.77l3.77,2.62Z"/><path class="cls-8" d="M684.43,117.18h-1.17V116h1.17Z"/><path class="cls-8" d="M682.22,114.52l-.13-1a2.25,2.25,0,0,0,1.25-.6,1.49,1.49,0,0,0,.39-1,1.71,1.71,0,0,0-1.75-1.72,1.54,1.54,0,0,0-1.16.46,1.58,1.58,0,0,0-.46,1.17,2.75,2.75,0,0,0,.11.73l-.9-.11a1.16,1.16,0,0,0,0-.17,2.09,2.09,0,0,0-.34-1.18,1.18,1.18,0,0,0-1.06-.53,1.22,1.22,0,0,0-.93.39,1.33,1.33,0,0,0-.38,1,1.4,1.4,0,0,0,.38,1,1.84,1.84,0,0,0,1.13.51l-.18,1a2.63,2.63,0,0,1-1.6-.85,2.48,2.48,0,0,1-.57-1.66,2.85,2.85,0,0,1,.29-1.27,2.23,2.23,0,0,1,.81-.88,2,2,0,0,1,1.07-.3,1.72,1.72,0,0,1,1,.29.77.77,0,1,0,1.42-.29A2.13,2.13,0,0,1,682,109a2.45,2.45,0,0,1,1.86.8,2.79,2.79,0,0,1,.76,2,2.6,2.6,0,0,1-.66,1.82A2.51,2.51,0,0,1,682.22,114.52Z"/><line class="cls-3" x1="805.92" y1="715.47" x2="805.92" y2="690.23"/><polygon class="cls-6" points="808.63 713.54 805.8 724.11 802.96 713.54 808.63 713.54"/><polygon class="cls-6" points="808.63 692.16 805.8 681.59 802.96 692.16 808.63 692.16"/><path class="cls-8" d="M800.62,711.44v1h-6.54a5.42,5.42,0,0,1,.7,1,6.76,6.76,0,0,1,.54,1.08h-1a6.08,6.08,0,0,0-1-1.5,3.88,3.88,0,0,0-1.12-.92v-.66Z"/><path class="cls-8" d="M800.62,704.94v1h-6.54a5.42,5.42,0,0,1,.7,1,6.76,6.76,0,0,1,.54,1.08h-1a6.08,6.08,0,0,0-1-1.5,3.88,3.88,0,0,0-1.12-.92v-.66Z"/><path class="cls-8" d="M800.62,702.6h-1.17v-1.17h1.17Z"/><path class="cls-8" d="M798.43,699.93l-.09-1.07a1.93,1.93,0,0,0,1.18-.56,1.48,1.48,0,0,0,.4-1,1.65,1.65,0,0,0-.56-1.26,2.11,2.11,0,0,0-1.48-.51,1.9,1.9,0,0,0-1.39.49,1.72,1.72,0,0,0-.51,1.29,1.83,1.83,0,0,0,.23.9,1.76,1.76,0,0,0,.58.63l-.12,1-4.3-.81v-4.16h1v3.34l2.25.45a2.73,2.73,0,0,1-.53-1.58,2.53,2.53,0,0,1,.76-1.85,2.68,2.68,0,0,1,2-.75,3.05,3.05,0,0,1,2,.66,2.66,2.66,0,0,1,1,2.2,2.73,2.73,0,0,1-.64,1.86A2.47,2.47,0,0,1,798.43,699.93Z"/><line class="cls-3" x1="838.56" y1="715.47" x2="838.56" y2="616.86"/><polygon class="cls-6" points="841.27 713.54 838.44 724.11 835.6 713.54 841.27 713.54"/><polygon class="cls-6" points="841.27 618.79 838.44 608.22 835.6 618.79 841.27 618.79"/><path class="cls-8" d="M831.05,676.05l-.13-1a2.19,2.19,0,0,0,1.26-.6,1.51,1.51,0,0,0,.38-1,1.69,1.69,0,0,0-.5-1.23,1.72,1.72,0,0,0-1.25-.5,1.59,1.59,0,0,0-1.62,1.64,3.23,3.23,0,0,0,.11.73l-.9-.12a1,1,0,0,0,0-.16,2.09,2.09,0,0,0-.34-1.18A1.18,1.18,0,0,0,827,672a1.25,1.25,0,0,0-.93.38,1.37,1.37,0,0,0-.37,1,1.41,1.41,0,0,0,.37,1,1.84,1.84,0,0,0,1.13.51l-.18,1a2.64,2.64,0,0,1-1.6-.86,2.46,2.46,0,0,1-.57-1.66,2.72,2.72,0,0,1,.3-1.26,2.07,2.07,0,0,1,.8-.88A2.11,2.11,0,0,1,827,671a1.69,1.69,0,0,1,1,.3,1.91,1.91,0,0,1,.71.86,2,2,0,0,1,.71-1.16,2.19,2.19,0,0,1,1.35-.41,2.49,2.49,0,0,1,1.86.8,2.82,2.82,0,0,1,.76,2,2.64,2.64,0,0,1-.65,1.83A2.54,2.54,0,0,1,831.05,676.05Z"/><path class="cls-8" d="M833.26,665.69v1h-6.54a5.08,5.08,0,0,1,.7,1,6.76,6.76,0,0,1,.54,1.08h-1a6.24,6.24,0,0,0-1-1.51,3.83,3.83,0,0,0-1.12-.91v-.66Z"/><path class="cls-8" d="M833.26,662.48h-1.17v-1.17h1.17Z"/><path class="cls-8" d="M831.07,659.82l-.09-1.08a1.88,1.88,0,0,0,1.18-.56,1.48,1.48,0,0,0,.4-1,1.64,1.64,0,0,0-.56-1.25,2.07,2.07,0,0,0-1.48-.52,1.91,1.91,0,0,0-1.39.5,1.7,1.7,0,0,0-.51,1.29,1.83,1.83,0,0,0,.23.9,1.73,1.73,0,0,0,.58.62l-.12,1-4.3-.81v-4.16h1V658l2.25.45a2.75,2.75,0,0,1-.53-1.58,2.51,2.51,0,0,1,.76-1.85,2.64,2.64,0,0,1,1.95-.76,3.06,3.06,0,0,1,2,.66,2.67,2.67,0,0,1,1,2.2,2.77,2.77,0,0,1-.63,1.87A2.53,2.53,0,0,1,831.07,659.82Z"/><path class="cls-8" d="M422.64,273.9l-8.26-1.31.58-3.66a5,5,0,0,1,.49-1.65,1.86,1.86,0,0,1,.93-.79,2.41,2.41,0,0,1,1.3-.15,2.14,2.14,0,0,1,1.4.81,2.9,2.9,0,0,1,.48,1.88,3,3,0,0,1,.52-.6,6.05,6.05,0,0,1,1.24-.73l2.48-1.08-.22,1.38-1.89.82q-.82.36-1.26.6a2.73,2.73,0,0,0-.65.47,1.46,1.46,0,0,0-.29.47,2.52,2.52,0,0,0-.14.6l-.2,1.27,3.67.58Zm-4.44-1.82.38-2.35a4.13,4.13,0,0,0,0-1.2,1.23,1.23,0,0,0-.4-.72,1.34,1.34,0,0,0-1.74-.07,2.08,2.08,0,0,0-.59,1.29l-.41,2.61Z"/><path class="cls-8" d="M416.73,264.79l-1-.16.85-5.35.79.13a11.88,11.88,0,0,0,2,1.92,13.74,13.74,0,0,0,2.67,1.65,11.24,11.24,0,0,0,2.21.75l-.16,1a10,10,0,0,1-2.3-.76,12.9,12.9,0,0,1-2.5-1.47,11.69,11.69,0,0,1-1.93-1.8Z"/><path class="cls-8" d="M425.63,622.72l-8.29,1.12-.5-3.68a4.8,4.8,0,0,1,0-1.71,1.88,1.88,0,0,1,.66-1,2.49,2.49,0,0,1,1.21-.52,2.11,2.11,0,0,1,1.56.37,2.92,2.92,0,0,1,1,1.66,3.21,3.21,0,0,1,.32-.71,5.63,5.63,0,0,1,1-1.06l2.06-1.75.19,1.38-1.58,1.33c-.45.39-.79.7-1,1a2.27,2.27,0,0,0-.48.63,1.76,1.76,0,0,0-.15.53,3.13,3.13,0,0,0,0,.62l.17,1.27,3.68-.5Zm-4.78-.47-.32-2.36a3.49,3.49,0,0,0-.31-1.16,1.27,1.27,0,0,0-.59-.58,1.44,1.44,0,0,0-.77-.12,1.28,1.28,0,0,0-.91.56,2.06,2.06,0,0,0-.2,1.4l.36,2.63Z"/><path class="cls-8" d="M417.35,615.69l-1,.13-.73-5.37.79-.1a11.43,11.43,0,0,0,2.46,1.26,13.37,13.37,0,0,0,3,.82,11.09,11.09,0,0,0,2.33.08l.14,1a10,10,0,0,1-2.41-.06,12.63,12.63,0,0,1-2.82-.69,12.07,12.07,0,0,1-2.36-1.17Z"/><path class="cls-8" d="M371.85,216.64l-2.12-8.09,3.59-1a4.8,4.8,0,0,1,1.7-.21,1.87,1.87,0,0,1,1.1.53,2.42,2.42,0,0,1,.66,1.14,2.08,2.08,0,0,1-.18,1.59,2.91,2.91,0,0,1-1.52,1.21,3,3,0,0,1,.75.23,5.69,5.69,0,0,1,1.17.84l2,1.84-1.34.35-1.51-1.4c-.45-.41-.8-.71-1.07-.91a2.34,2.34,0,0,0-.69-.4,1.7,1.7,0,0,0-.54-.09,3.13,3.13,0,0,0-.61.12l-1.24.32.94,3.6Zm-.11-4.8,2.3-.61a3.72,3.72,0,0,0,1.11-.45,1.31,1.31,0,0,0,.5-.65,1.38,1.38,0,0,0,0-.78,1.23,1.23,0,0,0-.66-.84,2,2,0,0,0-1.41,0l-2.57.67Z"/><path class="cls-8" d="M379,212.47l1-.4a2.25,2.25,0,0,0,.9,1.07,1.54,1.54,0,0,0,1.1.11,1.72,1.72,0,0,0,1.23-2.13,1.56,1.56,0,0,0-.75-1,1.58,1.58,0,0,0-1.25-.15,2.85,2.85,0,0,0-.67.3l-.12-.9.16,0a2.13,2.13,0,0,0,1.06-.63,1.17,1.17,0,0,0,.24-1.15,1.29,1.29,0,0,0-.61-.81,1.39,1.39,0,0,0-1.05-.11,1.38,1.38,0,0,0-.87.62,2,2,0,0,0-.21,1.23l-1,.08a2.7,2.7,0,0,1,.42-1.77,2.49,2.49,0,0,1,1.46-1,2.73,2.73,0,0,1,1.3,0,2.05,2.05,0,0,1,1.05.55,2,2,0,0,1,.57,1,1.65,1.65,0,0,1,0,1,2,2,0,0,1-.65.91,1.88,1.88,0,0,1,1.29.39,2.12,2.12,0,0,1,.74,1.2,2.44,2.44,0,0,1-.3,2,2.79,2.79,0,0,1-1.76,1.25,2.55,2.55,0,0,1-3.17-1.6Z"/><path class="cls-8" d="M593.11,141.4l.07-8.36,3.71,0a4.68,4.68,0,0,1,1.7.24,1.87,1.87,0,0,1,.92.8,2.38,2.38,0,0,1,.34,1.26,2.11,2.11,0,0,1-.59,1.5,2.92,2.92,0,0,1-1.79.76,3.28,3.28,0,0,1,.67.42,6.23,6.23,0,0,1,.91,1.12l1.43,2.29h-1.39L598,139.7c-.32-.5-.58-.89-.79-1.16a2.66,2.66,0,0,0-.56-.56,1.73,1.73,0,0,0-.5-.23,4.1,4.1,0,0,0-.62,0h-1.28l0,3.71Zm1.15-4.66,2.38,0a3.68,3.68,0,0,0,1.18-.15,1.25,1.25,0,0,0,.66-.5,1.44,1.44,0,0,0,.23-.75,1.26,1.26,0,0,0-.43-1,2,2,0,0,0-1.35-.39l-2.65,0Z"/><path class="cls-8" d="M605,141.5h-1l0-6.55a4.77,4.77,0,0,1-1,.7,6.63,6.63,0,0,1-1.08.53v-1a6.11,6.11,0,0,0,1.51-1,3.86,3.86,0,0,0,.92-1.11h.66Z"/><path class="cls-8" d="M607.64,139.31l1-.13a2.25,2.25,0,0,0,.59,1.26,1.5,1.5,0,0,0,1,.4,1.67,1.67,0,0,0,1.23-.5,1.73,1.73,0,0,0,.51-1.24,1.61,1.61,0,0,0-.45-1.17,1.64,1.64,0,0,0-1.18-.47,3.24,3.24,0,0,0-.72.11l.12-.9.16,0a2.12,2.12,0,0,0,1.19-.34,1.15,1.15,0,0,0,.53-1,1.27,1.27,0,0,0-.37-.94,1.51,1.51,0,0,0-2,0,1.9,1.9,0,0,0-.52,1.13l-1-.19a2.65,2.65,0,0,1,.87-1.6,2.48,2.48,0,0,1,1.67-.55,2.72,2.72,0,0,1,1.26.3,2.13,2.13,0,0,1,.87.81,2.1,2.1,0,0,1,.3,1.08,1.83,1.83,0,0,1-.3,1,2,2,0,0,1-.87.7,2,2,0,0,1,1.15.72,2.18,2.18,0,0,1,.4,1.35,2.5,2.5,0,0,1-.81,1.85,2.83,2.83,0,0,1-2,.75,2.63,2.63,0,0,1-1.82-.67A2.49,2.49,0,0,1,607.64,139.31Z"/><path class="cls-8" d="M567,183.2l-8-2.42,1.07-3.55a5.22,5.22,0,0,1,.71-1.56,1.85,1.85,0,0,1,1-.66,2.43,2.43,0,0,1,1.31,0,2.09,2.09,0,0,1,1.27,1,2.88,2.88,0,0,1,.23,1.93,2.83,2.83,0,0,1,.59-.52,5.6,5.6,0,0,1,1.33-.56l2.6-.73-.4,1.33-2,.56a12,12,0,0,0-1.34.43,2.59,2.59,0,0,0-.7.37,1.75,1.75,0,0,0-.36.42,3.43,3.43,0,0,0-.21.58l-.38,1.23,3.56,1.08Zm-4.15-2.41.69-2.28a3.61,3.61,0,0,0,.19-1.18,1.34,1.34,0,0,0-.29-.77,1.46,1.46,0,0,0-.66-.43,1.27,1.27,0,0,0-1.06.13,2.08,2.08,0,0,0-.76,1.2l-.76,2.53Z"/><path class="cls-8" d="M565.39,172.71a2,2,0,0,1-.91.72,1.77,1.77,0,0,1-1.09,0,2,2,0,0,1-1.28-1.07,2.44,2.44,0,0,1-.09-1.85,2.53,2.53,0,0,1,1.12-1.51,2.11,2.11,0,0,1,1.68-.19,1.73,1.73,0,0,1,.88.59,1.91,1.91,0,0,1,.37,1.08,2.29,2.29,0,0,1,1.11-.89,2.23,2.23,0,0,1,1.4,0,2.39,2.39,0,0,1,1.51,1.25,3.09,3.09,0,0,1-1.16,3.82,2.42,2.42,0,0,1-2,.2,2.23,2.23,0,0,1-1.19-.79A2.09,2.09,0,0,1,565.39,172.71Zm-1.73-.3a1.3,1.3,0,0,0,1.69-.93,1.33,1.33,0,0,0-.07-1,1.28,1.28,0,0,0-.77-.63,1.29,1.29,0,0,0-1,.1,1.34,1.34,0,0,0-.65.82,1.33,1.33,0,0,0,.07,1A1.21,1.21,0,0,0,563.66,172.41Zm3.61,1.43a1.82,1.82,0,0,0,.87,0,1.44,1.44,0,0,0,.79-.41,1.84,1.84,0,0,0,.47-.78,1.66,1.66,0,0,0-.1-1.3,1.62,1.62,0,0,0-1-.81,1.68,1.68,0,0,0-2.14,1.16,1.64,1.64,0,0,0,.11,1.29A1.61,1.61,0,0,0,567.27,173.84Z"/><path class="cls-8" d="M567.21,168.13a7.73,7.73,0,0,1-2.2-1,2.93,2.93,0,0,1-1.08-1.27,2.39,2.39,0,0,1,0-1.59,2.46,2.46,0,0,1,.6-1.05,2.34,2.34,0,0,1,1-.58,4.28,4.28,0,0,1,1.34-.14,8.24,8.24,0,0,1,1.94.4,7.81,7.81,0,0,1,2.19,1,3,3,0,0,1,1.08,1.27,2.56,2.56,0,0,1-1.35,3.17A5.5,5.5,0,0,1,567.21,168.13Zm.3-1a5.3,5.3,0,0,0,2.77.33,1.42,1.42,0,0,0,1-.94,1.4,1.4,0,0,0-.31-1.34,5.16,5.16,0,0,0-2.48-1.25,5.34,5.34,0,0,0-2.77-.34,1.44,1.44,0,0,0-1,1,1.33,1.33,0,0,0,.25,1.25A5.34,5.34,0,0,0,567.51,167.12Z"/><path class="cls-8" d="M407.63,239.76l-1-.33,2.13-6.19a5.42,5.42,0,0,1-1.15.35,7.52,7.52,0,0,1-1.2.15l.32-.94a6,6,0,0,0,1.75-.44,3.76,3.76,0,0,0,1.23-.76l.62.22Z"/><path class="cls-8" d="M410.66,240.8l.38-1.1,1.1.38-.38,1.1Zm1.59-4.62.38-1.11,1.1.38-.38,1.11Z"/><path class="cls-8" d="M418.61,242.5l-.32.93-5.23-1.8a1.86,1.86,0,0,1,.35-.63,3.84,3.84,0,0,1,1-.84,11.63,11.63,0,0,1,1.68-.76,11.63,11.63,0,0,0,2.32-1.07,2.13,2.13,0,0,0,.86-1,1.39,1.39,0,0,0-.08-1.11,1.56,1.56,0,0,0-.94-.77,1.59,1.59,0,0,0-1.27,0,1.66,1.66,0,0,0-.82,1l-1-.45a2.64,2.64,0,0,1,1.36-1.44,2.82,2.82,0,0,1,2,0,2.63,2.63,0,0,1,1.58,1.26,2.19,2.19,0,0,1,.13,1.79,2.43,2.43,0,0,1-.52.87,3.73,3.73,0,0,1-1,.74,16.13,16.13,0,0,1-2,.88c-.75.29-1.24.49-1.46.61a2.93,2.93,0,0,0-.6.38Z"/><path class="cls-8" d="M419.88,244l.38-1.11,1.11.38-.38,1.11Z"/><path class="cls-8" d="M424.84,238l.32-.93,5.12,1.76-.26.76a11.14,11.14,0,0,0-2.23,1.62,14.09,14.09,0,0,0-2.1,2.35,10.92,10.92,0,0,0-1.12,2l-1-.34a9.81,9.81,0,0,1,1.14-2.13,13.17,13.17,0,0,1,1.88-2.21,11.69,11.69,0,0,1,2.11-1.58Z"/><path class="cls-8" d="M429.27,244.89l1,.26a2,2,0,0,0,.15,1.3,1.44,1.44,0,0,0,.86.72,1.65,1.65,0,0,0,1.37-.12,2.07,2.07,0,0,0,1-1.24,1.86,1.86,0,0,0,0-1.47,1.7,1.7,0,0,0-1.05-.9,1.83,1.83,0,0,0-.92-.08,1.78,1.78,0,0,0-.79.35l-.87-.43,2.17-3.8,3.93,1.35-.32.93-3.16-1.09-1.15,2a2.76,2.76,0,0,1,1.66,0,2.52,2.52,0,0,1,1.5,1.32,2.65,2.65,0,0,1,.08,2.09,3.08,3.08,0,0,1-1.26,1.64,2.65,2.65,0,0,1-2.41.25,2.74,2.74,0,0,1-1.56-1.21A2.49,2.49,0,0,1,429.27,244.89Z"/><path class="cls-8" d="M361.21,195.34l0,1-6.54-.24a5.25,5.25,0,0,1,.67,1,6.25,6.25,0,0,1,.49,1.1l-1,0a6.19,6.19,0,0,0-.93-1.54,3.81,3.81,0,0,0-1.08-1l0-.67Z"/><path class="cls-8" d="M356.44,192l-1.17,0,0-1.17,1.17.05Zm4.89.18-1.17,0,0-1.17,1.17,0Z"/><path class="cls-8" d="M360.64,184l1,0-.2,5.53a1.74,1.74,0,0,1-.71-.15,3.66,3.66,0,0,1-1.08-.71,11,11,0,0,1-1.22-1.39,11.57,11.57,0,0,0-1.7-1.91,2.14,2.14,0,0,0-1.22-.52,1.36,1.36,0,0,0-1.05.39,1.6,1.6,0,0,0-.46,1.13,1.62,1.62,0,0,0,.4,1.2,1.71,1.71,0,0,0,1.22.5l-.15,1.05a2.61,2.61,0,0,1-1.77-.89,2.78,2.78,0,0,1-.55-1.92,2.67,2.67,0,0,1,.74-1.88,2.21,2.21,0,0,1,1.68-.64,2.44,2.44,0,0,1,1,.24,3.94,3.94,0,0,1,1,.72,18.21,18.21,0,0,1,1.41,1.64c.49.63.83,1,1,1.22a2.81,2.81,0,0,0,.54.46Z"/><path class="cls-8" d="M357.54,182.82a7.87,7.87,0,0,1-2.37-.39,3,3,0,0,1-1.36-1,2.28,2.28,0,0,1-.44-1.53,2.54,2.54,0,0,1,.31-1.17,2.36,2.36,0,0,1,.82-.81,4.24,4.24,0,0,1,1.26-.48,8.71,8.71,0,0,1,2-.11,7.68,7.68,0,0,1,2.37.39,3,3,0,0,1,1.36,1,2.32,2.32,0,0,1,.44,1.54,2.29,2.29,0,0,1-.94,1.87A5.46,5.46,0,0,1,357.54,182.82Zm0-1a5.19,5.19,0,0,0,2.76-.39,1.37,1.37,0,0,0,.08-2.37,5.19,5.19,0,0,0-2.72-.59,5.32,5.32,0,0,0-2.76.38,1.46,1.46,0,0,0-.72,1.18,1.3,1.3,0,0,0,.56,1.15A5.29,5.29,0,0,0,357.58,181.77Z"/><line class="cls-3" x1="829.61" y1="271.27" x2="829.61" y2="101.45"/><polygon class="cls-6" points="832.33 269.34 829.49 279.91 826.66 269.34 832.33 269.34"/><polygon class="cls-6" points="832.33 103.39 829.49 92.81 826.66 103.39 832.33 103.39"/><path class="cls-8" d="M822.13,192.13l-.1-1.08a2,2,0,0,0,1.19-.56,1.53,1.53,0,0,0,.4-1.05,1.66,1.66,0,0,0-.56-1.26,2.14,2.14,0,0,0-1.49-.51,1.88,1.88,0,0,0-1.38.49,1.72,1.72,0,0,0-.51,1.3,1.75,1.75,0,0,0,.22.89,1.71,1.71,0,0,0,.59.63l-.13,1-4.3-.81V187h1v3.34l2.25.45a2.73,2.73,0,0,1-.53-1.58,2.51,2.51,0,0,1,.76-1.85,2.67,2.67,0,0,1,2-.75,3,3,0,0,1,2,.66,2.94,2.94,0,0,1,.38,4.06A2.52,2.52,0,0,1,822.13,192.13Z"/><path class="cls-8" d="M824.32,181.76v1h-6.55a5.53,5.53,0,0,1,.71,1,6.63,6.63,0,0,1,.53,1.08h-1a6.24,6.24,0,0,0-1-1.51,4,4,0,0,0-1.12-.91v-.66Z"/><path class="cls-8" d="M353.38,593.25l3.1-7.78,3.44,1.37a5.09,5.09,0,0,1,1.5.84,1.79,1.79,0,0,1,.57,1.08,2.32,2.32,0,0,1-.14,1.3,2.1,2.1,0,0,1-1.09,1.19,3,3,0,0,1-1.94.06,2.89,2.89,0,0,1,.46.63,6.21,6.21,0,0,1,.45,1.38l.51,2.65-1.3-.51-.38-2c-.12-.59-.22-1-.32-1.37a2.79,2.79,0,0,0-.31-.72,2.12,2.12,0,0,0-.39-.4,3.06,3.06,0,0,0-.56-.26l-1.19-.48-1.38,3.46Zm2.76-3.94,2.21.88a3.3,3.3,0,0,0,1.16.29,1.23,1.23,0,0,0,.79-.22,1.35,1.35,0,0,0,.49-.62,1.27,1.27,0,0,0,0-1.06,2,2,0,0,0-1.13-.86l-2.46-1Z"/><path class="cls-8" d="M361.65,594.16l1,.25a2.28,2.28,0,0,0,.1,1.39,1.5,1.5,0,0,0,.82.74,1.64,1.64,0,0,0,1.32,0,1.66,1.66,0,0,0,.92-1,1.55,1.55,0,0,0,0-1.25,1.58,1.58,0,0,0-.93-.86,2.74,2.74,0,0,0-.71-.17l.44-.79.15.07a2.13,2.13,0,0,0,1.22.12,1.18,1.18,0,0,0,.88-.79,1.23,1.23,0,0,0,0-1,1.51,1.51,0,0,0-1.85-.73,1.87,1.87,0,0,0-.89.86l-.89-.55a2.64,2.64,0,0,1,1.39-1.17,2.43,2.43,0,0,1,1.75.09,2.68,2.68,0,0,1,1.06.74,2.12,2.12,0,0,1,.53,1.07,2.08,2.08,0,0,1-.12,1.11,1.69,1.69,0,0,1-.63.81,1.94,1.94,0,0,1-1.07.34,1.92,1.92,0,0,1,.81,1.09,2.22,2.22,0,0,1-.11,1.4,2.5,2.5,0,0,1-1.43,1.44,2.84,2.84,0,0,1-2.16,0,2.63,2.63,0,0,1-1.46-1.29A2.48,2.48,0,0,1,361.65,594.16Z"/><path class="cls-8" d="M367.68,596.57l1,.31a2,2,0,0,0,.08,1.31,1.51,1.51,0,0,0,.83.76,1.67,1.67,0,0,0,1.38-.06,2.1,2.1,0,0,0,1-1.19,1.89,1.89,0,0,0,.06-1.47,1.72,1.72,0,0,0-1-1,1.81,1.81,0,0,0-.91-.12,1.66,1.66,0,0,0-.8.31l-.85-.47,2.34-3.7,3.86,1.54-.36.91-3.1-1.23L370,594.44a2.66,2.66,0,0,1,1.66.1,2.5,2.5,0,0,1,1.44,1.39,2.66,2.66,0,0,1,0,2.09,3.08,3.08,0,0,1-1.34,1.58,2.95,2.95,0,0,1-3.91-1.15A2.48,2.48,0,0,1,367.68,596.57Z"/><path class="cls-8" d="M257.72,554l1.69-8.19,3.63.75a5.07,5.07,0,0,1,1.62.56,1.88,1.88,0,0,1,.75,1,2.42,2.42,0,0,1,.09,1.31,2.09,2.09,0,0,1-.87,1.35,3,3,0,0,1-1.9.4,3,3,0,0,1,.57.54A5.91,5.91,0,0,1,264,553l1,2.52-1.36-.28-.74-1.93c-.21-.55-.4-1-.55-1.29a2.59,2.59,0,0,0-.43-.66,1.69,1.69,0,0,0-.45-.32,3.93,3.93,0,0,0-.6-.16l-1.26-.26-.75,3.64Zm2-4.35,2.33.48a3.75,3.75,0,0,0,1.19.09,1.33,1.33,0,0,0,.74-.36,1.37,1.37,0,0,0,.37-.69,1.26,1.26,0,0,0-.22-1,2,2,0,0,0-1.26-.65l-2.59-.53Z"/><path class="cls-8" d="M269.35,556.41l-1-.21,1.32-6.41a5.43,5.43,0,0,1-1.1.5,6.73,6.73,0,0,1-1.17.3l.2-1a6.26,6.26,0,0,0,1.68-.66,3.84,3.84,0,0,0,1.12-.91l.65.13Z"/><path class="cls-8" d="M277.41,557.07l-.19,1-5.42-1.11a1.81,1.81,0,0,1,.26-.68,3.59,3.59,0,0,1,.89-1,9.75,9.75,0,0,1,1.57-1,11.66,11.66,0,0,0,2.16-1.36,2.19,2.19,0,0,0,.72-1.12,1.39,1.39,0,0,0-.22-1.1,1.77,1.77,0,0,0-2.28-.44,1.68,1.68,0,0,0-.69,1.12l-1-.32a2.58,2.58,0,0,1,1.16-1.6,2.79,2.79,0,0,1,2-.22,2.65,2.65,0,0,1,1.73,1,2.22,2.22,0,0,1,.35,1.77,2.44,2.44,0,0,1-.4.92,4,4,0,0,1-.87.87,18,18,0,0,1-1.85,1.12c-.71.38-1.17.64-1.38.79a3.61,3.61,0,0,0-.54.46Z"/><path class="cls-8" d="M279.13,554.21a7.74,7.74,0,0,1,.78-2.27,3,3,0,0,1,1.17-1.19,2.33,2.33,0,0,1,1.58-.17,2.58,2.58,0,0,1,1.11.5,2.36,2.36,0,0,1,.66.94,4.3,4.3,0,0,1,.26,1.32,8.46,8.46,0,0,1-.22,2,7.39,7.39,0,0,1-.78,2.26,2.9,2.9,0,0,1-1.16,1.19,2.54,2.54,0,0,1-3.28-1.06A5.5,5.5,0,0,1,279.13,554.21Zm1,.22a5.24,5.24,0,0,0-.08,2.78,1.38,1.38,0,0,0,2.33.48,8,8,0,0,0,1.11-5.37,1.43,1.43,0,0,0-1-.91,1.3,1.3,0,0,0-1.23.36A5.32,5.32,0,0,0,280.16,554.43Z"/><line class="cls-3" x1="175.41" y1="502.76" x2="461.44" y2="502.76"/><polygon class="cls-6" points="459.51 505.59 470.08 502.76 459.51 499.93 459.51 505.59"/><polyline class="cls-3" points="449.87 601.75 221.56 547.88 258.2 520.05 222.56 502.76"/><polygon class="cls-6" points="448.63 598.55 458.27 603.73 447.33 604.06 448.63 598.55"/><line class="cls-3" x1="334.17" y1="574.45" x2="445.11" y2="616.01"/><polygon class="cls-6" points="442.31 617.98 453.2 619.04 444.3 612.68 442.31 617.98"/><line class="cls-3" x1="427.25" y1="609.32" x2="429.98" y2="624.72"/><polygon class="cls-6" points="426.85 623.31 431.49 633.23 432.43 622.33 426.85 623.31"/><line class="cls-3" x1="175.41" y1="385.51" x2="461.44" y2="385.51"/><polygon class="cls-6" points="459.51 388.35 470.08 385.52 459.51 382.68 459.51 388.35"/><path class="cls-8" d="M286,382.45v-8.37h3.71a4.87,4.87,0,0,1,1.7.23,1.83,1.83,0,0,1,.93.79,2.3,2.3,0,0,1,.35,1.26,2.09,2.09,0,0,1-.57,1.5,2.92,2.92,0,0,1-1.78.78,2.69,2.69,0,0,1,.66.42,5.49,5.49,0,0,1,.92,1.11l1.46,2.28H292l-1.1-1.74c-.33-.51-.59-.89-.8-1.16a2.92,2.92,0,0,0-.56-.56,1.87,1.87,0,0,0-.51-.22,4,4,0,0,0-.62,0h-1.28v3.72Zm1.11-4.68h2.38a3.75,3.75,0,0,0,1.19-.15,1.32,1.32,0,0,0,.87-1.26,1.23,1.23,0,0,0-.43-1,2,2,0,0,0-1.36-.38h-2.65Z"/><path class="cls-8" d="M297.92,382.45h-1V375.9a5.08,5.08,0,0,1-1,.71,7.57,7.57,0,0,1-1.08.53v-1a6.17,6.17,0,0,0,1.51-1,4,4,0,0,0,.91-1.11h.66Z"/><path class="cls-8" d="M306,381.46v1h-5.53a1.76,1.76,0,0,1,.12-.72,3.91,3.91,0,0,1,.68-1.11,10.64,10.64,0,0,1,1.34-1.27,10.92,10.92,0,0,0,1.84-1.77,2.11,2.11,0,0,0,.48-1.23,1.37,1.37,0,0,0-.43-1,1.59,1.59,0,0,0-1.14-.42,1.63,1.63,0,0,0-1.19.44,1.66,1.66,0,0,0-.45,1.23l-1.06-.1a2.63,2.63,0,0,1,.82-1.8,2.75,2.75,0,0,1,1.9-.62,2.69,2.69,0,0,1,1.91.66,2.24,2.24,0,0,1,.7,1.66,2.52,2.52,0,0,1-.21,1,3.69,3.69,0,0,1-.68,1,15.78,15.78,0,0,1-1.58,1.47c-.62.52-1,.87-1.19,1a3,3,0,0,0-.43.56Z"/><path class="cls-8" d="M307.05,378.32a7.49,7.49,0,0,1,.31-2.39,2.85,2.85,0,0,1,.91-1.39,2.28,2.28,0,0,1,1.51-.49,2.48,2.48,0,0,1,1.18.27,2.24,2.24,0,0,1,.84.78,4.29,4.29,0,0,1,.52,1.24,8.06,8.06,0,0,1,.19,2,7.75,7.75,0,0,1-.3,2.38,3.08,3.08,0,0,1-.91,1.4,2.31,2.31,0,0,1-1.52.49,2.29,2.29,0,0,1-1.9-.87A5.51,5.51,0,0,1,307.05,378.32Zm1.06,0a5.25,5.25,0,0,0,.48,2.74,1.37,1.37,0,0,0,2.38,0,8.06,8.06,0,0,0,0-5.48,1.41,1.41,0,0,0-1.2-.68,1.32,1.32,0,0,0-1.13.6A5.24,5.24,0,0,0,308.11,378.32Z"/><path class="cls-8" d="M271.87,325.49l-2-8.11,3.6-.91a5,5,0,0,1,1.7-.2,1.84,1.84,0,0,1,1.1.55,2.41,2.41,0,0,1,.64,1.13,2.1,2.1,0,0,1-.19,1.6,3,3,0,0,1-1.54,1.19,2.54,2.54,0,0,1,.75.24,5.76,5.76,0,0,1,1.17.85l2,1.86-1.35.34-1.5-1.42a12.14,12.14,0,0,0-1.05-.92,2.41,2.41,0,0,0-.69-.41,1.7,1.7,0,0,0-.54-.09,2.92,2.92,0,0,0-.61.11l-1.24.31.91,3.61Zm-.07-4.8,2.31-.59a3.66,3.66,0,0,0,1.12-.44,1.22,1.22,0,0,0,.5-.65,1.38,1.38,0,0,0,0-.78,1.28,1.28,0,0,0-.66-.84,2.05,2.05,0,0,0-1.41,0l-2.57.65Z"/><path class="cls-8" d="M283.39,322.59l-1,.25-1.6-6.35a5,5,0,0,1-.77.92,6,6,0,0,1-.92.78l-.24-1a6,6,0,0,0,1.22-1.32,3.92,3.92,0,0,0,.62-1.31l.64-.16Z"/><path class="cls-8" d="M290.94,319.67l.24.95L285.81,322a1.92,1.92,0,0,1-.05-.72,3.67,3.67,0,0,1,.38-1.24,10.6,10.6,0,0,1,1-1.56,11.67,11.67,0,0,0,1.36-2.17,2.09,2.09,0,0,0,.16-1.31,1.4,1.4,0,0,0-.67-.9,1.61,1.61,0,0,0-1.21-.12,1.58,1.58,0,0,0-1,.72,1.67,1.67,0,0,0-.14,1.3l-1,.16a2.61,2.61,0,0,1,.35-1.95,2.79,2.79,0,0,1,1.69-1.06,2.65,2.65,0,0,1,2,.18,2.19,2.19,0,0,1,1.08,1.43,2.45,2.45,0,0,1,0,1,3.78,3.78,0,0,1-.41,1.16,15.66,15.66,0,0,1-1.18,1.81c-.47.65-.76,1.09-.89,1.31a3.27,3.27,0,0,0-.28.65Z"/><path class="cls-8" d="M291.24,316.35A7.41,7.41,0,0,1,291,314a3,3,0,0,1,.54-1.57,2.31,2.31,0,0,1,1.35-.85,2.49,2.49,0,0,1,1.21,0,2.27,2.27,0,0,1,1,.56,3.91,3.91,0,0,1,.81,1.08,8.48,8.48,0,0,1,.67,1.87,7.56,7.56,0,0,1,.28,2.38,2.92,2.92,0,0,1-.53,1.58,2.57,2.57,0,0,1-3.41.47A5.45,5.45,0,0,1,291.24,316.35Zm1-.26a5.35,5.35,0,0,0,1.14,2.55,1.38,1.38,0,0,0,2.31-.59,5.2,5.2,0,0,0-.21-2.77,5.12,5.12,0,0,0-1.14-2.55,1.42,1.42,0,0,0-1.33-.36,1.32,1.32,0,0,0-.95.86A5.33,5.33,0,0,0,292.26,316.09Z"/><path class="cls-8" d="M259.94,695.16l3.16-7.75,3.44,1.4a5.14,5.14,0,0,1,1.49.85,1.88,1.88,0,0,1,.56,1.09,2.33,2.33,0,0,1-.16,1.3,2.08,2.08,0,0,1-1.1,1.17,2.86,2.86,0,0,1-1.94,0,2.69,2.69,0,0,1,.46.64,5.47,5.47,0,0,1,.43,1.38l.49,2.65-1.29-.52-.37-2c-.11-.59-.21-1-.3-1.37a2.73,2.73,0,0,0-.31-.73,1.65,1.65,0,0,0-.39-.4,3.48,3.48,0,0,0-.55-.27l-1.19-.48-1.4,3.44Zm2.79-3.91,2.21.9a3.49,3.49,0,0,0,1.15.3,1.27,1.27,0,0,0,.8-.22,1.46,1.46,0,0,0,.49-.61,1.29,1.29,0,0,0,0-1.07,2,2,0,0,0-1.12-.86l-2.45-1Z"/><path class="cls-8" d="M270.4,699.43l.76-1.86-3.36-1.37.36-.87,5.58-3.58.78.32-2,5,1,.43-.35.87-1.05-.43-.76,1.86Zm1.12-2.73,1.42-3.49-3.85,2.5Z"/><line class="cls-9" x1="236.06" y1="689.95" x2="272.13" y2="705.01"/><polygon class="cls-8" points="236.76 693.31 228.09 686.62 238.94 688.08 236.76 693.31"/><path class="cls-8" d="M733.4,701.64l2.93-7.83,3.47,1.3a4.87,4.87,0,0,1,1.52.8,1.87,1.87,0,0,1,.59,1.07,2.36,2.36,0,0,1-.12,1.31,2.1,2.1,0,0,1-1.06,1.2,2.89,2.89,0,0,1-1.94.1,2.76,2.76,0,0,1,.48.63,5.85,5.85,0,0,1,.47,1.36l.57,2.65-1.31-.49-.43-2c-.12-.58-.24-1-.34-1.36a2.44,2.44,0,0,0-.33-.72,1.64,1.64,0,0,0-.4-.39,3.2,3.2,0,0,0-.56-.25l-1.2-.45-1.3,3.48Zm2.67-4,2.23.84a3.73,3.73,0,0,0,1.17.26,1.15,1.15,0,0,0,.78-.24,1.39,1.39,0,0,0,.48-.62,1.29,1.29,0,0,0-.07-1.07,2,2,0,0,0-1.14-.83l-2.48-.93Z"/><path class="cls-8" d="M746.3,705.41l-.34.93-5.18-1.94a1.68,1.68,0,0,1,.36-.62,3.51,3.51,0,0,1,1-.81,11.87,11.87,0,0,1,1.7-.72,11,11,0,0,0,2.35-1,2.13,2.13,0,0,0,.88-1,1.37,1.37,0,0,0,0-1.12,1.62,1.62,0,0,0-.92-.79,1.64,1.64,0,0,0-1.27,0,1.73,1.73,0,0,0-.86,1l-1-.47a2.58,2.58,0,0,1,1.4-1.4,2.76,2.76,0,0,1,2,.08,2.61,2.61,0,0,1,1.56,1.3,2.15,2.15,0,0,1,.07,1.79,2.3,2.3,0,0,1-.53.85,3.85,3.85,0,0,1-1,.72,15.92,15.92,0,0,1-2,.83c-.76.27-1.25.46-1.48.57a2.91,2.91,0,0,0-.6.37Z"/><line class="cls-9" x1="765.54" y1="718.28" x2="729.05" y2="704.3"/><polygon class="cls-8" points="764.75 714.95 773.61 721.37 762.73 720.24 764.75 714.95"/><path class="cls-8" d="M293.46,635.36l6.71-5,2.21,3a4.88,4.88,0,0,1,.84,1.5,1.9,1.9,0,0,1-.08,1.22,2.34,2.34,0,0,1-.81,1,2.11,2.11,0,0,1-1.55.44,2.87,2.87,0,0,1-1.68-1,2.91,2.91,0,0,1,.06.79,5.69,5.69,0,0,1-.34,1.4l-1,2.53-.83-1.12.73-1.93c.21-.56.36-1,.45-1.33a2.25,2.25,0,0,0,.11-.78,1.53,1.53,0,0,0-.12-.54,2.88,2.88,0,0,0-.33-.52l-.77-1-3,2.22Zm4.41-1.9,1.42,1.91a3.81,3.81,0,0,0,.83.86,1.3,1.3,0,0,0,.79.22,1.39,1.39,0,0,0,.74-.27,1.28,1.28,0,0,0,.53-.93,2.05,2.05,0,0,0-.51-1.32l-1.58-2.12Z"/><path class="cls-8" d="M300.2,644.43l1.61-1.2-2.17-2.91.76-.56,6.63-.17.5.67-4.35,3.23.67.91-.75.56-.68-.9-1.6,1.19Zm2.36-1.76,3-2.25-4.59.15Z"/><path class="cls-8" d="M305.43,644.53a7.75,7.75,0,0,1,2.09-1.18,3,3,0,0,1,1.67-.1,2.3,2.3,0,0,1,1.29.92,2.38,2.38,0,0,1,.49,1.11,2.24,2.24,0,0,1-.12,1.14,4.32,4.32,0,0,1-.69,1.16,8.18,8.18,0,0,1-1.48,1.33,7.57,7.57,0,0,1-2.08,1.18,3,3,0,0,1-1.67.11,2.38,2.38,0,0,1-1.3-.93,2.3,2.3,0,0,1-.44-2A5.55,5.55,0,0,1,305.43,644.53Zm.63.85a5.28,5.28,0,0,0-1.92,2,1.43,1.43,0,0,0,.17,1.36,1.4,1.4,0,0,0,1.26.54A8.13,8.13,0,0,0,310,646a1.45,1.45,0,0,0-.17-1.37,1.34,1.34,0,0,0-1.16-.55A5.28,5.28,0,0,0,306.06,645.38Z"/><line class="cls-9" x1="311.32" y1="666.77" x2="288.25" y2="635.23"/><polygon class="cls-8" points="312.47 663.54 316.42 673.75 307.89 666.89 312.47 663.54"/><line class="cls-3" x1="570.57" y1="186.32" x2="593.04" y2="110.08"/><polygon class="cls-6" points="595.21 112.73 595.48 101.79 589.77 111.13 595.21 112.73"/><line class="cls-3" x1="582.67" y1="145.27" x2="623.76" y2="145.28"/><polygon class="cls-6" points="621.83 148.11 632.4 145.28 621.83 142.45 621.83 148.11"/><path class="cls-8" d="M525.55,178.22l-8.32-.85.37-3.69A5,5,0,0,1,518,172a1.82,1.82,0,0,1,.89-.84,2.27,2.27,0,0,1,1.29-.22,2.09,2.09,0,0,1,1.43.72,2.86,2.86,0,0,1,.59,1.85,2.84,2.84,0,0,1,.49-.62,5.33,5.33,0,0,1,1.2-.8l2.41-1.22-.14,1.39-1.85.92c-.53.27-.94.5-1.22.68a2.71,2.71,0,0,0-.62.5,1.94,1.94,0,0,0-.27.48,3.62,3.62,0,0,0-.1.61l-.13,1.28,3.69.38ZM521,176.64l.25-2.36a3.73,3.73,0,0,0,0-1.2,1.25,1.25,0,0,0-.44-.7,1.36,1.36,0,0,0-.72-.3,1.24,1.24,0,0,0-1,.33,2,2,0,0,0-.52,1.32l-.27,2.63Z"/><path class="cls-8" d="M524.17,170l0-1a2.26,2.26,0,0,0,1.32-.48,1.46,1.46,0,0,0,.48-1,1.66,1.66,0,0,0-.37-1.27,1.72,1.72,0,0,0-1.19-.62,1.6,1.6,0,0,0-1.21.34,1.63,1.63,0,0,0-.57,1.13,2.76,2.76,0,0,0,0,.73l-.89-.21a.55.55,0,0,0,0-.16,2.17,2.17,0,0,0-.22-1.21,1.17,1.17,0,0,0-1-.63,1.24,1.24,0,0,0-1,.29,1.49,1.49,0,0,0-.19,2,1.91,1.91,0,0,0,1.07.63l-.29,1a2.61,2.61,0,0,1-1.5-1,2.47,2.47,0,0,1-.4-1.71,2.91,2.91,0,0,1,.42-1.23,2.11,2.11,0,0,1,.89-.79,2,2,0,0,1,1.1-.2,1.79,1.79,0,0,1,1,.39,2,2,0,0,1,.62.93,2,2,0,0,1,.82-1.07,2.19,2.19,0,0,1,1.39-.28,2.5,2.5,0,0,1,1.77,1,2.81,2.81,0,0,1,.55,2.08,2.61,2.61,0,0,1-.84,1.76A2.53,2.53,0,0,1,524.17,170Z"/><path class="cls-8" d="M522.92,163.37a7.74,7.74,0,0,1-2.35-.55,3,3,0,0,1-1.3-1,2.66,2.66,0,0,1,.06-2.71,2.16,2.16,0,0,1,.86-.75,3.91,3.91,0,0,1,1.29-.39,9.86,9.86,0,0,1,4.32.55,2.94,2.94,0,0,1,1.3,1,2.31,2.31,0,0,1,.34,1.56,2.28,2.28,0,0,1-1.06,1.81A5.46,5.46,0,0,1,522.92,163.37Zm.1-1.05a5.17,5.17,0,0,0,2.78-.21,1.42,1.42,0,0,0,.8-1.11,1.41,1.41,0,0,0-.56-1.25,8,8,0,0,0-5.46-.56,1.44,1.44,0,0,0-.8,1.13,1.33,1.33,0,0,0,.49,1.18A5.23,5.23,0,0,0,523,162.32Z"/><path class="cls-8" d="M523.57,156.9a7.45,7.45,0,0,1-2.34-.55,3,3,0,0,1-1.3-1,2.3,2.3,0,0,1-.33-1.56,2.39,2.39,0,0,1,.39-1.15,2.24,2.24,0,0,1,.86-.75,3.91,3.91,0,0,1,1.29-.39,8.24,8.24,0,0,1,2,0,7.77,7.77,0,0,1,2.33.54,3,3,0,0,1,1.3,1,2.34,2.34,0,0,1,.34,1.57,2.3,2.3,0,0,1-1.06,1.8A5.5,5.5,0,0,1,523.57,156.9Zm.11-1.05a5.3,5.3,0,0,0,2.78-.2,1.38,1.38,0,0,0,.24-2.37,8,8,0,0,0-5.46-.56,1.45,1.45,0,0,0-.8,1.13,1.31,1.31,0,0,0,.48,1.18A5.24,5.24,0,0,0,523.68,155.85Z"/><line class="cls-3" x1="529.72" y1="180.54" x2="537.23" y2="101.41"/><polygon class="cls-6" points="539.87 103.61 538.04 92.81 534.22 103.07 539.87 103.61"/><line class="cls-3" x1="478.73" y1="385.51" x2="522.09" y2="385.51"/><polygon class="cls-6" points="480.66 388.35 470.08 385.52 480.66 382.68 480.66 388.35"/><polygon class="cls-6" points="520.15 388.23 530.73 385.4 520.15 382.56 520.15 388.23"/><path class="cls-8" d="M504.6,379.19l1.08-.1a2,2,0,0,0,.55,1.19,1.55,1.55,0,0,0,1.06.4,1.64,1.64,0,0,0,1.25-.56,2.14,2.14,0,0,0,.52-1.49,1.88,1.88,0,0,0-.5-1.38,1.72,1.72,0,0,0-1.29-.51,1.82,1.82,0,0,0-.9.22,1.88,1.88,0,0,0-.63.59l-1-.13.81-4.3h4.16v1h-3.34l-.45,2.24a2.71,2.71,0,0,1,1.58-.52,2.49,2.49,0,0,1,1.85.76,2.65,2.65,0,0,1,.75,2,3,3,0,0,1-.66,2,2.64,2.64,0,0,1-2.19,1,2.69,2.69,0,0,1-1.87-.64A2.51,2.51,0,0,1,504.6,379.19Z"/><polyline class="cls-3" points="449.87 286.43 221.56 340.31 258.2 368.13 222.56 385.42"/><polygon class="cls-6" points="447.33 284.12 458.27 284.45 448.64 289.63 447.33 284.12"/><line class="cls-3" x1="334.17" y1="313.74" x2="445.11" y2="272.17"/><polygon class="cls-6" points="444.3 275.5 453.2 269.14 442.31 270.2 444.3 275.5"/><line class="cls-3" x1="427.25" y1="278.87" x2="429.98" y2="263.46"/><polygon class="cls-6" points="432.43 265.86 431.48 254.95 426.85 264.87 432.43 265.86"/><path class="cls-8" d="M696,431.12l3.23-4.36-2.85-4h1.32l1.52,2.14c.31.45.54.79.67,1,.19-.3.41-.62.66-.95l1.69-2.22h1.2l-2.94,3.94,3.17,4.42h-1.37l-2.11-3c-.12-.17-.24-.36-.36-.56l-.4.63-2.1,2.91Z"/><path class="cls-8" d="M114.38,431.12l3.24-4.36-2.86-4h1.32l1.52,2.14a10.92,10.92,0,0,1,.67,1c.19-.3.41-.62.66-.95l1.69-2.22h1.2l-2.94,3.94,3.17,4.42h-1.37l-2.1-3c-.12-.17-.24-.36-.37-.56l-.4.63-2.1,2.91Z"/><rect class="cls-1" x="499.4" y="374.3" width="2.01" height="7.82"/><path class="cls-8" d="M491.67,381.38h-1v-6.55a5.18,5.18,0,0,1-1,.71,7.57,7.57,0,0,1-1.08.53v-1a6,6,0,0,0,1.51-1A3.8,3.8,0,0,0,491,373h.66Z"/><path class="cls-8" d="M499.64,375.06l-1,.08a2,2,0,0,0-.38-.88,1.38,1.38,0,0,0-1-.44,1.42,1.42,0,0,0-.86.27,2.39,2.39,0,0,0-.77,1,5.59,5.59,0,0,0-.29,1.93,2.51,2.51,0,0,1,.91-.84,2.46,2.46,0,0,1,1.12-.27,2.3,2.3,0,0,1,1.75.76,2.7,2.7,0,0,1,.72,2,3.26,3.26,0,0,1-.33,1.46,2.44,2.44,0,0,1-.94,1,2.51,2.51,0,0,1-1.34.36,2.63,2.63,0,0,1-2.1-.94,4.78,4.78,0,0,1-.81-3.12,5.58,5.58,0,0,1,.9-3.53,2.59,2.59,0,0,1,2.1-.95,2.36,2.36,0,0,1,1.62.55A2.39,2.39,0,0,1,499.64,375.06Zm-4.2,3.61a2.37,2.37,0,0,0,.23,1,1.65,1.65,0,0,0,.63.74,1.57,1.57,0,0,0,.85.26,1.48,1.48,0,0,0,1.12-.53,2.08,2.08,0,0,0,.46-1.43,1.9,1.9,0,0,0-.46-1.36,1.49,1.49,0,0,0-1.16-.5,1.54,1.54,0,0,0-1.18.5A1.77,1.77,0,0,0,495.44,378.67Z"/><path class="cls-8" d="M501.37,381.38v-1.17h1.17v1.17Z"/></g><g id="Watermark"><rect class="cls-1" x="438.45" y="667.13" width="123.09" height="46.3"/><rect class="cls-12" x="444.86" y="674.96" width="62.89" height="30.62"/><rect class="cls-12" x="507.75" y="674.96" width="47.39" height="30.62"/><path class="cls-13" d="M466.48,681.06,463.69,700H461l-1.55-11-1.53,11h-2.74l-2.8-18.92h2.51l1.79,14.18,1.79-14.18h2l1.79,14.18L464,681.06Z"/><path class="cls-13" d="M467.93,700V681.06h2.53V700Z"/><path class="cls-13" d="M472.83,681.06h5q2.9,0,2.9,3.25V689c0,1.65-.51,2.7-1.51,3.13L481,700h-2.4l-1.66-7.64h-1.53V700h-2.53Zm2.53,9.12H477c.76,0,1.14-.46,1.14-1.37v-4.08c0-.92-.38-1.37-1.14-1.37h-1.66Z"/><path class="cls-13" d="M486.82,683.36V700h-2.53V683.36h-2.42v-2.3h7.38v2.3Z"/><path class="cls-13" d="M496.34,700v-8.59h-3.11V700H490.7V681.06h2.53v8h3.11v-8h2.53V700Z"/><path class="cls-13" d="M516.31,681.06h5q2.9,0,2.89,3.25V689c0,1.65-.5,2.7-1.5,3.13l1.77,7.88H522l-1.66-7.64h-1.53V700h-2.53Zm2.53,9.12h1.66c.76,0,1.13-.46,1.13-1.37v-4.08c0-.92-.37-1.37-1.13-1.37h-1.66Z"/><path class="cls-13" d="M528.67,700h-2.53V684.31q0-3.25,3-3.25h1.9q3,0,3,3.25V700h-2.53v-6.93h-2.9Zm2.9-9.22v-6.3a1,1,0,0,0-1.11-1.1h-.68a1,1,0,0,0-1.11,1.1v6.3Z"/><path class="cls-13" d="M536.34,700V681.06h2.53V700Z"/><path class="cls-13" d="M547.24,700h-6V681.06h2.53v16.63h3.47Z"/></g></svg>