<svg xmlns="http://www.w3.org/2000/svg" xmlns:xlink="http://www.w3.org/1999/xlink" viewBox="0 0 1000 800"><defs><style>.cls-1,.cls-10,.cls-11,.cls-12,.cls-13,.cls-14,.cls-15,.cls-3,.cls-4,.cls-5,.cls-8,.cls-9{fill:none;}.cls-16,.cls-2{fill:#f0f0f0;}.cls-10,.cls-11,.cls-12,.cls-13,.cls-14,.cls-15,.cls-3,.cls-4,.cls-5,.cls-8,.cls-9{stroke:#221e1f;}.cls-3,.cls-4,.cls-9{stroke-linecap:round;stroke-linejoin:round;}.cls-3{stroke-width:1.76px;}.cls-4{stroke-dashoffset:86.32px;stroke-dasharray:68.19 18.13 4.22 18.13;}.cls-10,.cls-11,.cls-12,.cls-13,.cls-4,.cls-5,.cls-9{stroke-width:1.1px;}.cls-6{fill:#221e1f;}.cls-7{clip-path:url(#clip-path);}.cls-16,.cls-8{stroke-miterlimit:10;}.cls-8{stroke-width:2.18px;}.cls-9{stroke-dashoffset:88.85px;stroke-dasharray:69.44 19.41 5.51 19.41;}.cls-10{stroke-dasharray:16.19 4.45;}.cls-11{stroke-dasharray:16.85 5.12;}.cls-12{stroke-dasharray:17.03 5.29;}.cls-13{stroke-dasharray:16.8 5.07;}.cls-14{stroke-width:1.23px;}.cls-15{stroke-width:1.05px;}.cls-16{stroke:#ccc;}.cls-17{fill:#ccc;}</style><clipPath id="clip-path"><rect class="cls-1" x="61.27" y="3.91" width="810.91" height="781.8"/></clipPath></defs><g id="Flat"><path class="cls-2" d="M645,107a31.43,31.43,0,0,0-2.47-10.76A64.23,64.23,0,0,0,598.5,59a284,284,0,0,0-50.65-7.59,813.48,813.48,0,0,0-95.75,0h0A285,285,0,0,0,401.45,59h0a64.23,64.23,0,0,0-44,37.18A31.68,31.68,0,0,0,355,107h0l-4.19,83.57a12,12,0,0,0,7.94,11.82h0l74.79,26.86h0a28,28,0,0,1,17.19,17.57q1.81,5.52,3.16,11.17h0a472.25,472.25,0,0,1,12.89,109.61V495a472.25,472.25,0,0,1-12.89,109.61q-1.35,5.68-3.18,11.23h0a28,28,0,0,1-17.17,17.55L319.69,674.31h0a162.87,162.87,0,0,1-43.54,9.19h0L212.82,688a16,16,0,0,0-14.95,15.89h0v23a8,8,0,0,0,8,8H794a8,8,0,0,0,8.06-8h0v-23a16,16,0,0,0-15-15.88L723.8,683.5h0a162.79,162.79,0,0,1-43.54-9.19L566.44,633.36a28,28,0,0,1-17.16-17.55q-1.83-5.55-3.18-11.23A472.25,472.25,0,0,1,533.21,495V367.56h0A472.26,472.26,0,0,1,546.1,258h0q1.35-5.64,3.16-11.17h0a28,28,0,0,1,17.18-17.57l74.8-26.86a12,12,0,0,0,7.94-11.82Z"/><path class="cls-3" d="M645,107a31.43,31.43,0,0,0-2.47-10.76A64.23,64.23,0,0,0,598.5,59a284,284,0,0,0-50.65-7.59,813.48,813.48,0,0,0-95.75,0h0A285,285,0,0,0,401.45,59h0a64.23,64.23,0,0,0-44,37.18A31.68,31.68,0,0,0,355,107h0l-4.19,83.57a12,12,0,0,0,7.94,11.82h0l74.79,26.86h0a28,28,0,0,1,17.19,17.57q1.81,5.52,3.16,11.17h0a472.25,472.25,0,0,1,12.89,109.61V495a472.25,472.25,0,0,1-12.89,109.61q-1.35,5.68-3.18,11.23h0a28,28,0,0,1-17.17,17.55L319.69,674.31h0a162.87,162.87,0,0,1-43.54,9.19h0L212.82,688a16,16,0,0,0-14.95,15.89h0v23a8,8,0,0,0,8,8H794a8,8,0,0,0,8.06-8h0v-23a16,16,0,0,0-15-15.88L723.8,683.5h0a162.79,162.79,0,0,1-43.54-9.19L566.44,633.36a28,28,0,0,1-17.16-17.55q-1.83-5.55-3.18-11.23A472.25,472.25,0,0,1,533.21,495V367.56h0A472.26,472.26,0,0,1,546.1,258h0q1.35-5.64,3.16-11.17h0a28,28,0,0,1,17.18-17.57l74.8-26.86a12,12,0,0,0,7.94-11.82Z"/><line class="cls-4" x1="499.97" y1="751.77" x2="499.97" y2="31.54"/><line class="cls-5" x1="791.54" y1="778.32" x2="207.96" y2="778.32"/><polygon class="cls-6" points="789.19 775.01 802.08 778.46 789.19 781.92 789.19 775.01"/><polygon class="cls-6" points="210.31 775.01 197.42 778.46 210.31 781.92 210.31 775.01"/><line class="cls-5" x1="634.68" y1="19.13" x2="366.58" y2="19.13"/><polygon class="cls-6" points="632.32 15.82 645.21 19.27 632.32 22.73 632.32 15.82"/><polygon class="cls-6" points="368.94 15.82 356.05 19.27 368.94 22.73 368.94 15.82"/><g class="cls-7"><path class="cls-5" d="M802.08,726.9v58.8M197.77,723.38v62.13M355,12.33v90.26M645.21,12.33V107"/></g><line class="cls-8" x1="649.19" y1="187.01" x2="649.19" y2="382.57"/><path class="cls-6" d="M508.36,749.91v-4.77L504,738.65h1.81l2.22,3.39c.41.64.8,1.27,1.15,1.91.34-.59.75-1.25,1.23-2l2.18-3.31h1.74l-4.5,6.49v4.77Z"/><line class="cls-5" x1="861.3" y1="724.33" x2="861.3" y2="424.9"/><polygon class="cls-6" points="864.62 721.97 861.16 734.86 857.7 721.97 864.62 721.97"/><polygon class="cls-6" points="864.62 427.26 861.16 414.37 857.7 427.26 864.62 427.26"/><line class="cls-5" x1="80.05" y1="724.33" x2="80.05" y2="61.26"/><polygon class="cls-6" points="83.36 721.97 79.91 734.86 76.45 721.97 83.36 721.97"/><polygon class="cls-6" points="83.36 63.62 79.91 50.73 76.45 63.62 83.36 63.62"/><line class="cls-5" x1="117.81" y1="724.33" x2="117.81" y2="502.37"/><polygon class="cls-6" points="121.11 721.97 117.66 734.86 114.2 721.97 121.11 721.97"/><polygon class="cls-6" points="121.11 504.73 117.66 491.84 114.2 504.73 121.11 504.73"/><line class="cls-5" x1="153.98" y1="724.33" x2="153.98" y2="615.12"/><polygon class="cls-6" points="157.29 721.97 153.84 734.86 150.38 721.97 157.29 721.97"/><polygon class="cls-6" points="157.29 617.47 153.84 604.58 150.38 617.47 157.29 617.47"/><line class="cls-5" x1="153.98" y1="558.97" x2="153.98" y2="501.11"/><polygon class="cls-6" points="157.29 556.61 153.84 569.51 150.38 556.61 157.29 556.61"/><polygon class="cls-6" points="157.29 503.46 153.84 490.57 150.38 503.46 157.29 503.46"/><line class="cls-5" x1="153.98" y1="355.64" x2="153.98" y2="298.27"/><polygon class="cls-6" points="157.29 353.28 153.84 366.18 150.38 353.28 157.29 353.28"/><polygon class="cls-6" points="157.29 300.62 153.84 287.73 150.38 300.62 157.29 300.62"/><line class="cls-5" x1="153.98" y1="481.3" x2="153.98" y2="377.2"/><polygon class="cls-6" points="157.29 478.94 153.84 491.84 150.38 478.94 157.29 478.94"/><polygon class="cls-6" points="157.29 379.56 153.84 366.67 150.38 379.56 157.29 379.56"/><line class="cls-9" x1="791.18" y1="414.37" x2="380.43" y2="414.37"/><g class="cls-7"><path class="cls-5" d="M872.18,414.37H811m58.6,320.49H795.5M853.31,688H787.12m58.13,46.85V688"/></g><path class="cls-6" d="M796.49,418.05l4.36-5.87L797,406.79h1.77l2,2.89a16.23,16.23,0,0,1,.91,1.38,14.26,14.26,0,0,1,.89-1.28l2.27-3h1.62l-4,5.31,4.26,5.95H805l-2.83-4c-.16-.23-.33-.48-.49-.75-.26.41-.43.69-.54.84l-2.83,3.93Z"/><path class="cls-6" d="M153.33,779.92,145,772.29l3.38-3.67a6.72,6.72,0,0,1,1.77-1.48,2.55,2.55,0,0,1,1.64-.2,3.18,3.18,0,0,1,1.56.81,2.85,2.85,0,0,1,1,1.94,3.92,3.92,0,0,1-.86,2.47,3.77,3.77,0,0,1,1-.28,7.68,7.68,0,0,1,1.94.1l3.59.63L158.78,774,156,773.5c-.79-.14-1.41-.22-1.87-.26a3.39,3.39,0,0,0-1.06,0,2.23,2.23,0,0,0-.68.3,4.61,4.61,0,0,0-.6.57l-1.17,1.27,3.68,3.39Zm-3.62-5.36,2.16-2.36a4.67,4.67,0,0,0,.93-1.32,1.69,1.69,0,0,0,.1-1.1,1.87,1.87,0,0,0-.55-.9,1.64,1.64,0,0,0-1.35-.46,2.65,2.65,0,0,0-1.62,1L147,772Z"/><path class="cls-6" d="M164.56,765.74l1,.9-5,5.47a2.46,2.46,0,0,1-.6-.76,5.31,5.31,0,0,1-.48-1.69,14,14,0,0,1,0-2.48,15.27,15.27,0,0,0-.08-3.44,2.79,2.79,0,0,0-.79-1.6,1.81,1.81,0,0,0-1.41-.51,2.11,2.11,0,0,0-1.46.75A2.16,2.16,0,0,0,155,764a2.34,2.34,0,0,0,.81,1.57l-1.06.94a3.43,3.43,0,0,1-1-2.45,3.75,3.75,0,0,1,1.11-2.44,3.55,3.55,0,0,1,2.4-1.28,2.94,2.94,0,0,1,2.28.81,3.51,3.51,0,0,1,.79,1.1,4.94,4.94,0,0,1,.39,1.61,22,22,0,0,1,0,2.91c-.05,1.08-.07,1.79,0,2.14a4.31,4.31,0,0,0,.15.93Z"/><path class="cls-6" d="M246,705.91l3.44-10.72,4.75,1.52a6.79,6.79,0,0,1,2.09,1,2.53,2.53,0,0,1,.87,1.4,3.2,3.2,0,0,1-.08,1.76,2.84,2.84,0,0,1-1.35,1.69,3.94,3.94,0,0,1-2.6.26,3.73,3.73,0,0,1,.68.81,7,7,0,0,1,.72,1.8l.94,3.52-1.79-.57-.7-2.69c-.21-.77-.4-1.38-.56-1.8a3.06,3.06,0,0,0-.49-1,2.11,2.11,0,0,0-.55-.49,4.39,4.39,0,0,0-.77-.31l-1.65-.52-1.53,4.76Zm3.34-5.53,3.05,1a4.71,4.71,0,0,0,1.59.29,1.69,1.69,0,0,0,1-.38,1.81,1.81,0,0,0,.59-.87,1.68,1.68,0,0,0-.15-1.42,2.65,2.65,0,0,0-1.59-1.05l-3.39-1.09Z"/><path class="cls-6" d="M260.44,710.55l.82-2.57-4.65-1.49.38-1.2,7.12-5.39,1.08.35-2.23,7,1.45.46-.38,1.21-1.45-.47-.82,2.57Zm1.21-3.77,1.54-4.84-4.9,3.76Z"/><line class="cls-5" x1="246.53" y1="241.83" x2="246.53" y2="60.56"/><polygon class="cls-6" points="249.84 239.47 246.39 252.37 242.93 239.47 249.84 239.47"/><polygon class="cls-6" points="249.84 62.91 246.39 50.02 242.93 62.91 249.84 62.91"/><line class="cls-5" x1="300.27" y1="94.61" x2="300.27" y2="60.56"/><polygon class="cls-6" points="303.58 92.25 300.13 105.14 296.67 92.25 303.58 92.25"/><polygon class="cls-6" points="303.58 62.91 300.13 50.02 296.67 62.91 303.58 62.91"/><path class="cls-5" d="M441.59,233.73l61.34,18.64M555,236.89l-52.08,15.48"/><line class="cls-10" x1="445.87" y1="624.58" x2="499.75" y2="604.58"/><line class="cls-11" x1="556.27" y1="626.98" x2="499.75" y2="604.58"/><line class="cls-12" x1="304.66" y1="678.91" x2="499.75" y2="665.62"/><line class="cls-13" x1="712.75" y1="682.34" x2="499.75" y2="665.61"/><path class="cls-5" d="M505.35,50A5.38,5.38,0,1,1,500,44.58,5.38,5.38,0,0,1,505.35,50ZM359.89,105.14a5.38,5.38,0,1,1-5.37-5.37A5.38,5.38,0,0,1,359.89,105.14Zm290.7,0a5.38,5.38,0,1,1-5.38-5.37A5.38,5.38,0,0,1,650.59,105.14ZM477.65,366.67h45.94"/><polygon class="cls-6" points="480.01 369.98 467.11 366.52 480.01 363.07 480.01 369.98"/><polygon class="cls-6" points="521.24 369.98 534.13 366.52 521.24 363.07 521.24 369.98"/><line class="cls-5" x1="543.76" y1="366.67" x2="638.66" y2="366.67"/><polygon class="cls-6" points="546.12 369.98 533.22 366.52 546.12 363.07 546.12 369.98"/><polygon class="cls-6" points="636.3 369.98 649.19 366.52 636.3 363.07 636.3 369.98"/><line class="cls-5" x1="476.73" y1="491.84" x2="522.67" y2="491.84"/><polygon class="cls-6" points="479.08 495.15 466.19 491.69 479.08 488.24 479.08 495.15"/><polygon class="cls-6" points="520.31 495.15 533.21 491.69 520.31 488.24 520.31 495.15"/><path class="cls-5" d="M502.93,252.36H237.39M324,289.45H141.14M502.93,50H65.37m289.14,55.12H284.15"/><line class="cls-5" x1="462.49" y1="230.92" x2="492.28" y2="209.12"/><polygon class="cls-6" points="466.35 232.2 453.91 237.03 462.27 226.63 466.35 232.2"/><line class="cls-5" x1="458.19" y1="61.99" x2="462.9" y2="174.33"/><polygon class="cls-6" points="454.98 64.48 457.89 51.46 461.88 64.19 454.98 64.48"/><line class="cls-5" x1="409.97" y1="67.64" x2="421.85" y2="119.14"/><polygon class="cls-6" points="407.28 70.68 407.74 57.34 414.01 69.12 407.28 70.68"/><line class="cls-5" x1="378.3" y1="84.2" x2="421.85" y2="119.14"/><polygon class="cls-6" points="378.07 88.26 370.18 77.5 382.39 82.87 378.07 88.26"/><line class="cls-14" x1="362.52" y1="191.09" x2="424.87" y2="152.21"/><polygon class="cls-6" points="366.72 192.84 352.44 197.19 362.63 186.28 366.72 192.84"/><line class="cls-5" x1="190.63" y1="742.92" x2="153.02" y2="787.56"/><polygon class="cls-6" points="186.58 742.59 197.53 734.96 191.87 747.04 186.58 742.59"/><line class="cls-5" x1="210.38" y1="699.57" x2="271.5" y2="721.95"/><polygon class="cls-6" points="211.45 703.49 200.53 695.82 213.83 697 211.45 703.49"/><line class="cls-5" x1="436.82" y1="644.16" x2="446.95" y2="674.04"/><polygon class="cls-6" points="434.44 647.45 433.58 634.14 440.99 645.24 434.44 647.45"/><line class="cls-5" x1="716.37" y1="672.44" x2="735" y2="562.73"/><polygon class="cls-6" points="720.03 670.67 714.47 682.8 713.22 669.51 720.03 670.67"/><line class="cls-5" x1="845.36" y1="677.48" x2="845.01" y2="648.74"/><polygon class="cls-6" points="848.64 675.08 845.34 688.01 841.73 675.16 848.64 675.08"/><line class="cls-5" x1="845.14" y1="743.83" x2="845.48" y2="772.56"/><polygon class="cls-6" points="841.86 746.22 845.16 733.29 848.77 746.14 841.86 746.22"/><polyline class="cls-5" points="440.7 612.38 316.53 569.7 149.31 569.7"/><polygon class="cls-6" points="439.55 608.49 450.62 615.94 437.31 615.02 439.55 608.49"/><line class="cls-5" x1="455.66" y1="366.43" x2="140.59" y2="366.18"/><polygon class="cls-6" points="453.3 363.12 466.19 366.58 453.3 370.03 453.3 363.12"/><line class="cls-5" x1="443.28" y1="261.55" x2="323.34" y2="289.44"/><polygon class="cls-6" points="440.24 258.86 453.58 259.3 441.8 265.59 440.24 258.86"/><line class="cls-5" x1="440.18" y1="249.65" x2="323.98" y2="289.45"/><polygon class="cls-6" points="436.88 247.28 450.19 246.37 439.11 253.82 436.88 247.28"/><line class="cls-5" x1="365.42" y1="107.31" x2="421.85" y2="119.14"/><polygon class="cls-6" points="367.05 111.03 355.14 105 368.47 104.27 367.05 111.03"/><path class="cls-6" d="M492.71,772.6h-1.38v-8.81a7.55,7.55,0,0,1-1.31,1,8.35,8.35,0,0,1-1.46.71v-1.33a8.67,8.67,0,0,0,2-1.32,5.17,5.17,0,0,0,1.23-1.51h.89Z"/><path class="cls-6" d="M496.25,769.65l1.45-.13a2.65,2.65,0,0,0,.75,1.6,2.08,2.08,0,0,0,1.42.53,2.2,2.2,0,0,0,1.69-.75,2.84,2.84,0,0,0,.69-2,2.55,2.55,0,0,0-.66-1.86,2.53,2.53,0,0,0-2.95-.38,2.26,2.26,0,0,0-.84.78l-1.3-.17,1.09-5.78h5.6v1.32H498.7l-.61,3a3.65,3.65,0,0,1,2.13-.71,3.35,3.35,0,0,1,2.48,1,3.56,3.56,0,0,1,1,2.63,4.11,4.11,0,0,1-.89,2.64,3.58,3.58,0,0,1-3,1.37,3.68,3.68,0,0,1-2.51-.86A3.43,3.43,0,0,1,496.25,769.65Z"/><path class="cls-6" d="M505,767a10.39,10.39,0,0,1,.41-3.21,4.06,4.06,0,0,1,1.22-1.88,3.12,3.12,0,0,1,2-.66,3.22,3.22,0,0,1,1.59.37,3,3,0,0,1,1.13,1.05,5.56,5.56,0,0,1,.7,1.67,11.13,11.13,0,0,1,.25,2.66,10.41,10.41,0,0,1-.4,3.2,4,4,0,0,1-1.22,1.88,3.42,3.42,0,0,1-4.61-.5A7.44,7.44,0,0,1,505,767Zm1.42,0a7.07,7.07,0,0,0,.65,3.69,1.85,1.85,0,0,0,3.2,0,10.8,10.8,0,0,0,0-7.38,1.91,1.91,0,0,0-1.61-.91,1.75,1.75,0,0,0-1.52.8A7.11,7.11,0,0,0,506.42,767Z"/><path class="cls-6" d="M362.36,418.05l4.35-5.86-3.84-5.39h1.78l2,2.88c.42.6.73,1.06.91,1.39a13.72,13.72,0,0,1,.89-1.29l2.26-3h1.62l-3.95,5.3,4.26,5.95h-1.84L368,414c-.16-.23-.32-.48-.49-.75q-.37.61-.54.84l-2.82,3.92Z"/><path class="cls-6" d="M497.6,5.44V4.11h7.29V5.19a16,16,0,0,0-2.13,3,18.76,18.76,0,0,0-1.63,3.9,14.52,14.52,0,0,0-.53,3.1h-1.42A13.57,13.57,0,0,1,499.7,12a16.61,16.61,0,0,1,1.43-3.63,15.93,15.93,0,0,1,2-2.95Z"/><g class="cls-7"><path class="cls-6" d="M513.53,13.9v1.33h-7.45a2.37,2.37,0,0,1,.17-1,4.79,4.79,0,0,1,.91-1.5,14.63,14.63,0,0,1,1.8-1.71,14.38,14.38,0,0,0,2.48-2.38A2.81,2.81,0,0,0,512.09,7a1.87,1.87,0,0,0-.59-1.39A2.09,2.09,0,0,0,510,5.07a2.17,2.17,0,0,0-1.6.59,2.25,2.25,0,0,0-.6,1.66l-1.42-.14a3.51,3.51,0,0,1,1.09-2.43A3.79,3.79,0,0,1,510,3.92a3.58,3.58,0,0,1,2.57.9,3,3,0,0,1,.94,2.23,3.31,3.31,0,0,1-.28,1.33,5.23,5.23,0,0,1-.91,1.37,23.31,23.31,0,0,1-2.13,2c-.83.7-1.37,1.17-1.6,1.42a4.83,4.83,0,0,0-.59.75Z"/></g><path class="cls-6" d="M324.58,566.93,328,556.21l4.76,1.52a6.91,6.91,0,0,1,2.09,1,2.52,2.52,0,0,1,.86,1.4,3.2,3.2,0,0,1-.07,1.76,2.87,2.87,0,0,1-1.35,1.69,4,4,0,0,1-2.61.26,3.81,3.81,0,0,1,.69.81,7.86,7.86,0,0,1,.72,1.8L334,570l-1.78-.57-.71-2.69c-.21-.77-.39-1.38-.55-1.8a3.29,3.29,0,0,0-.49-.95,2,2,0,0,0-.56-.49,4.08,4.08,0,0,0-.77-.31l-1.65-.52L326,567.39Zm3.34-5.53,3.05,1a4.7,4.7,0,0,0,1.58.29,1.67,1.67,0,0,0,1-.38,1.76,1.76,0,0,0,.6-.87A1.7,1.7,0,0,0,334,560a2.81,2.81,0,0,0-1.59-1.05l-3.4-1.08Z"/><path class="cls-6" d="M339.92,568.72l1.37.25a3.1,3.1,0,0,0,.26,1.86,2,2,0,0,0,1.17.92,2.32,2.32,0,0,0,2.92-1.53,2.1,2.1,0,0,0-.11-1.69,2.13,2.13,0,0,0-1.32-1.07,3.89,3.89,0,0,0-1-.15l.52-1.11.21.08a2.9,2.9,0,0,0,1.65.05,1.58,1.58,0,0,0,1.11-1.14,1.69,1.69,0,0,0-.11-1.36,1.82,1.82,0,0,0-1.11-.88,1.93,1.93,0,0,0-1.44.07,2.65,2.65,0,0,0-1.12,1.24l-1.24-.65a3.57,3.57,0,0,1,1.76-1.7,3.29,3.29,0,0,1,2.36,0,3.69,3.69,0,0,1,1.49.89,2.92,2.92,0,0,1,.81,1.39,2.76,2.76,0,0,1-.06,1.51,2.33,2.33,0,0,1-.77,1.15,2.74,2.74,0,0,1-1.4.55,2.64,2.64,0,0,1,1.19,1.38,3,3,0,0,1,0,1.9,3.36,3.36,0,0,1-1.79,2.06,3.76,3.76,0,0,1-2.9.14,3.51,3.51,0,0,1-2.07-1.59A3.37,3.37,0,0,1,339.92,568.72Z"/><path class="cls-6" d="M348.24,571.41l1.42.32a2.54,2.54,0,0,0,.23,1.75,2,2,0,0,0,1.18.94,2.21,2.21,0,0,0,1.84-.2,2.84,2.84,0,0,0,1.27-1.69,2.53,2.53,0,0,0-.07-2,2.27,2.27,0,0,0-1.44-1.18,2.42,2.42,0,0,0-2.29.41l-1.19-.56,2.81-5.17,5.33,1.7-.4,1.26-4.28-1.37-1.5,2.7a3.65,3.65,0,0,1,2.24,0,3.36,3.36,0,0,1,2.06,1.73,3.58,3.58,0,0,1,.16,2.81A4.07,4.07,0,0,1,354,575.1a3.56,3.56,0,0,1-3.23.4,3.63,3.63,0,0,1-2.13-1.58A3.37,3.37,0,0,1,348.24,571.41Z"/><path class="cls-6" d="M443,648.73l10.51-4.05,1.79,4.66a6.73,6.73,0,0,1,.54,2.25,2.47,2.47,0,0,1-.55,1.55,3.25,3.25,0,0,1-1.42,1.05,2.88,2.88,0,0,1-2.16,0,4,4,0,0,1-1.84-1.86,3.68,3.68,0,0,1-.2,1,7.45,7.45,0,0,1-1,1.69L446.55,658l-.67-1.75,1.65-2.23c.48-.65.83-1.17,1.06-1.56a3.2,3.2,0,0,0,.43-1,2.09,2.09,0,0,0,0-.74,4.68,4.68,0,0,0-.25-.8l-.62-1.61-4.67,1.8Zm6.4-.87,1.16,3a4.75,4.75,0,0,0,.77,1.41,1.72,1.72,0,0,0,.94.58,1.88,1.88,0,0,0,1.05-.09,1.67,1.67,0,0,0,1-1,2.71,2.71,0,0,0-.18-1.89l-1.28-3.33Z"/><path class="cls-6" d="M457.61,659.43l1.24-.48,2.62,6.8-1,.39a15,15,0,0,0-3.61-.9,18.71,18.71,0,0,0-4.22-.12,14.5,14.5,0,0,0-3.08.62l-.51-1.33a13.92,13.92,0,0,1,3.18-.67,17,17,0,0,1,3.9,0,16,16,0,0,1,3.47.79Z"/><path class="cls-6" d="M358.51,361V349.69h5a6.77,6.77,0,0,1,2.29.3,2.54,2.54,0,0,1,1.25,1.07,3.25,3.25,0,0,1,.47,1.7,2.82,2.82,0,0,1-.78,2,3.94,3.94,0,0,1-2.4,1.05,3.26,3.26,0,0,1,.9.56,7.54,7.54,0,0,1,1.24,1.49l2,3.07h-1.88l-1.49-2.34c-.43-.68-.79-1.2-1.07-1.56a3.75,3.75,0,0,0-.76-.75,2.4,2.4,0,0,0-.68-.3,5.14,5.14,0,0,0-.83-.05H360v5Zm1.49-6.29h3.21a4.87,4.87,0,0,0,1.6-.21,1.71,1.71,0,0,0,.87-.68,1.84,1.84,0,0,0,.3-1,1.66,1.66,0,0,0-.58-1.31,2.68,2.68,0,0,0-1.83-.52H360Z"/><path class="cls-6" d="M378.87,361h-1.39v-8.81a7,7,0,0,1-1.3.95,9.27,9.27,0,0,1-1.46.72v-1.34a8.26,8.26,0,0,0,2-1.32,5.17,5.17,0,0,0,1.23-1.51h.89Z"/><path class="cls-6" d="M389.68,359.62V361h-7.45a2.62,2.62,0,0,1,.16-1,5.2,5.2,0,0,1,.91-1.5,14.12,14.12,0,0,1,1.81-1.7,15.14,15.14,0,0,0,2.48-2.39,2.87,2.87,0,0,0,.65-1.66,1.87,1.87,0,0,0-.59-1.39,2.13,2.13,0,0,0-1.53-.56,2.16,2.16,0,0,0-1.6.6,2.28,2.28,0,0,0-.61,1.66l-1.42-.15a3.51,3.51,0,0,1,1.1-2.42,3.74,3.74,0,0,1,2.56-.84,3.58,3.58,0,0,1,2.57.9,3,3,0,0,1,.94,2.23,3.31,3.31,0,0,1-.28,1.33,5.23,5.23,0,0,1-.91,1.37,22.42,22.42,0,0,1-2.14,2c-.83.7-1.36,1.17-1.59,1.42a4.83,4.83,0,0,0-.59.75Z"/><path class="cls-6" d="M391.16,355.4a10.12,10.12,0,0,1,.41-3.22,4,4,0,0,1,1.22-1.88,3.12,3.12,0,0,1,2-.66,3.28,3.28,0,0,1,1.59.37,3.06,3.06,0,0,1,1.13,1.05,6,6,0,0,1,.7,1.67,11.17,11.17,0,0,1,.25,2.67,10.3,10.3,0,0,1-.41,3.19,4,4,0,0,1-1.21,1.89,3.15,3.15,0,0,1-2.05.66,3.09,3.09,0,0,1-2.56-1.17A7.41,7.41,0,0,1,391.16,355.4Zm1.42,0a7,7,0,0,0,.65,3.69,1.86,1.86,0,0,0,3.2,0,10.8,10.8,0,0,0,0-7.38,1.92,1.92,0,0,0-1.62-.91,1.79,1.79,0,0,0-1.52.8A7.25,7.25,0,0,0,392.58,355.4Z"/><path class="cls-6" d="M355.89,301.11l-2.16-11.05,4.9-1a6.69,6.69,0,0,1,2.31-.14,2.5,2.5,0,0,1,1.43.81,3.16,3.16,0,0,1,.79,1.58,2.82,2.82,0,0,1-.38,2.13,3.88,3.88,0,0,1-2.15,1.48,3.72,3.72,0,0,1,1,.38,7.51,7.51,0,0,1,1.5,1.23l2.51,2.64-1.84.36-1.91-2q-.84-.87-1.35-1.32a3.64,3.64,0,0,0-.89-.59,2.13,2.13,0,0,0-.72-.16,4.06,4.06,0,0,0-.83.1l-1.69.34,1,4.9Zm.26-6.46,3.14-.62a4.85,4.85,0,0,0,1.53-.51,1.72,1.72,0,0,0,.73-.83,1.8,1.8,0,0,0,.1-1.05,1.71,1.71,0,0,0-.82-1.18,2.74,2.74,0,0,0-1.9-.15l-3.49.68Z"/><path class="cls-6" d="M375.87,297.22l-1.36.27-1.69-8.65a6.87,6.87,0,0,1-1.1,1.19,10,10,0,0,1-1.29,1l-.26-1.31a8.49,8.49,0,0,0,1.74-1.69,5.36,5.36,0,0,0,.92-1.71l.87-.17Z"/><path class="cls-6" d="M386.22,293.85l.26,1.3-7.31,1.43a2.44,2.44,0,0,1,0-1,4.94,4.94,0,0,1,.6-1.65,15.21,15.21,0,0,1,1.45-2,15.62,15.62,0,0,0,2-2.81,2.87,2.87,0,0,0,.31-1.76,1.83,1.83,0,0,0-.84-1.25,2.14,2.14,0,0,0-1.61-.26,2.2,2.2,0,0,0-1.46.9,2.27,2.27,0,0,0-.27,1.74l-1.42.13a3.48,3.48,0,0,1,.61-2.59,3.77,3.77,0,0,1,2.35-1.31,3.63,3.63,0,0,1,2.69.39,3,3,0,0,1,1.35,2,3.24,3.24,0,0,1,0,1.35,5.06,5.06,0,0,1-.64,1.53,23.31,23.31,0,0,1-1.71,2.35c-.68.85-1.12,1.41-1.3,1.7a4.53,4.53,0,0,0-.43.85Z"/><path class="cls-6" d="M386.87,289.42a10.34,10.34,0,0,1-.22-3.24,4.09,4.09,0,0,1,.84-2.07,3.13,3.13,0,0,1,1.88-1,3.3,3.3,0,0,1,1.63.05,3.09,3.09,0,0,1,1.31.82,5.43,5.43,0,0,1,1,1.51,10.55,10.55,0,0,1,.76,2.56,10.2,10.2,0,0,1,.22,3.22,4,4,0,0,1-.84,2.08,3,3,0,0,1-1.88,1,3.09,3.09,0,0,1-2.73-.65A7.41,7.41,0,0,1,386.87,289.42Zm1.39-.27a7.09,7.09,0,0,0,1.34,3.49,1.86,1.86,0,0,0,3.15-.61,10.79,10.79,0,0,0-1.42-7.25,1.91,1.91,0,0,0-1.76-.58,1.77,1.77,0,0,0-1.34,1.08A7.25,7.25,0,0,0,388.26,289.15Z"/><path class="cls-6" d="M333.23,278.15l-2.57-11,4.86-1.14a6.59,6.59,0,0,1,2.3-.23,2.51,2.51,0,0,1,1.46.76,3.25,3.25,0,0,1,.85,1.54,2.86,2.86,0,0,1-.3,2.15,3.91,3.91,0,0,1-2.09,1.56,4.27,4.27,0,0,1,1,.34,7.28,7.28,0,0,1,1.54,1.18l2.61,2.53-1.82.43-2-1.94c-.58-.56-1-1-1.4-1.26a3.1,3.1,0,0,0-.91-.56,2.14,2.14,0,0,0-.73-.14,4.16,4.16,0,0,0-.82.14l-1.68.39,1.14,4.87Zm0-6.47,3.11-.73a4.5,4.5,0,0,0,1.51-.57,1.67,1.67,0,0,0,.7-.86,1.87,1.87,0,0,0,.06-1,1.68,1.68,0,0,0-.86-1.14,2.71,2.71,0,0,0-1.91-.09l-3.47.82Z"/><path class="cls-6" d="M347.3,271.78l1.3-.49a3.11,3.11,0,0,0,1.18,1.46,2,2,0,0,0,1.48.19,2.2,2.2,0,0,0,1.44-1,2.25,2.25,0,0,0,.28-1.78,2.15,2.15,0,0,0-1-1.39,2.19,2.19,0,0,0-1.68-.24,4.34,4.34,0,0,0-.91.37l-.13-1.21.22,0a2.8,2.8,0,0,0,1.44-.81,1.59,1.59,0,0,0,.37-1.54,1.67,1.67,0,0,0-.79-1.11,1.83,1.83,0,0,0-1.41-.19,1.91,1.91,0,0,0-1.19.8,2.61,2.61,0,0,0-.33,1.64l-1.4.08a3.52,3.52,0,0,1,.63-2.36,3.38,3.38,0,0,1,2-1.26,3.7,3.7,0,0,1,1.75,0,2.93,2.93,0,0,1,1.4.78,2.79,2.79,0,0,1,.73,1.32,2.39,2.39,0,0,1-.08,1.38,2.71,2.71,0,0,1-.91,1.2,2.67,2.67,0,0,1,1.73.57,3,3,0,0,1,.95,1.65,3.32,3.32,0,0,1-.48,2.68,3.78,3.78,0,0,1-2.41,1.61,3.54,3.54,0,0,1-2.6-.29A3.44,3.44,0,0,1,347.3,271.78Z"/><path class="cls-6" d="M355.82,269.81l1.38-.45a2.65,2.65,0,0,0,1.09,1.38,2.08,2.08,0,0,0,1.51.2,2.27,2.27,0,0,0,1.47-1.12,2.86,2.86,0,0,0,.22-2.1,2.55,2.55,0,0,0-1.08-1.67,2.34,2.34,0,0,0-1.85-.27,2.37,2.37,0,0,0-1.1.57,2.32,2.32,0,0,0-.64,1l-1.31.13-.25-5.88,5.45-1.27.3,1.28-4.38,1,.1,3.08a3.69,3.69,0,0,1,1.91-1.17,3.39,3.39,0,0,1,2.66.42,3.62,3.62,0,0,1,1.59,2.33,4.12,4.12,0,0,1-.27,2.78,3.55,3.55,0,0,1-2.56,2,3.62,3.62,0,0,1-2.64-.26A3.35,3.35,0,0,1,355.82,269.81Z"/><path class="cls-6" d="M488.53,486.12h-1.38v-8.81a6.63,6.63,0,0,1-1.31.95,9.27,9.27,0,0,1-1.46.72v-1.34a8.08,8.08,0,0,0,2-1.32,5.17,5.17,0,0,0,1.23-1.51h.89Z"/><path class="cls-6" d="M499.25,477.62l-1.38.11a2.65,2.65,0,0,0-.52-1.19A1.84,1.84,0,0,0,496,476a1.87,1.87,0,0,0-1.16.37,3.12,3.12,0,0,0-1,1.39,7.29,7.29,0,0,0-.39,2.6,3.28,3.28,0,0,1,1.22-1.13,3.32,3.32,0,0,1,1.51-.36,3.14,3.14,0,0,1,2.35,1,3.66,3.66,0,0,1,1,2.63,4.36,4.36,0,0,1-.46,2,3.31,3.31,0,0,1-1.26,1.4,3.42,3.42,0,0,1-1.81.48A3.54,3.54,0,0,1,493.1,485a6.4,6.4,0,0,1-1.09-4.19,7.5,7.5,0,0,1,1.21-4.75,3.45,3.45,0,0,1,2.83-1.29,3.17,3.17,0,0,1,2.18.75A3.23,3.23,0,0,1,499.25,477.62Zm-5.65,4.85a3.25,3.25,0,0,0,.3,1.37,2.31,2.31,0,0,0,.85,1,2.15,2.15,0,0,0,1.15.35,2,2,0,0,0,1.5-.71,2.78,2.78,0,0,0,.63-1.92,2.63,2.63,0,0,0-.62-1.84,2,2,0,0,0-1.57-.67,2.14,2.14,0,0,0-1.59.67A2.43,2.43,0,0,0,493.6,482.47Z"/><path class="cls-6" d="M501.6,486.12v-1.57h1.57v1.57Z"/><path class="cls-6" d="M505.19,483.17l1.45-.12a2.62,2.62,0,0,0,.75,1.59,2,2,0,0,0,1.42.54,2.19,2.19,0,0,0,1.69-.76,2.82,2.82,0,0,0,.69-2,2.55,2.55,0,0,0-.67-1.87,2.29,2.29,0,0,0-1.74-.68,2.43,2.43,0,0,0-1.2.3,2.31,2.31,0,0,0-.85.79l-1.3-.17,1.1-5.79h5.6v1.33h-4.5l-.61,3a3.7,3.7,0,0,1,2.13-.71,3.36,3.36,0,0,1,2.49,1,3.53,3.53,0,0,1,1,2.62,4.1,4.1,0,0,1-.89,2.65,3.55,3.55,0,0,1-2.95,1.36,3.61,3.61,0,0,1-2.51-.86A3.32,3.32,0,0,1,505.19,483.17Z"/><path class="cls-6" d="M146.34,682.19l-.18-1.39a3,3,0,0,0,1.69-.81,2,2,0,0,0,.52-1.39,2.31,2.31,0,0,0-2.35-2.32,2.12,2.12,0,0,0-1.57.62,2.16,2.16,0,0,0-.62,1.58,4,4,0,0,0,.15,1l-1.21-.15a2.11,2.11,0,0,0,0-.23,2.84,2.84,0,0,0-.46-1.59,1.57,1.57,0,0,0-1.42-.7,1.71,1.71,0,0,0-1.26.51,2,2,0,0,0,0,2.67,2.61,2.61,0,0,0,1.52.7l-.24,1.38a3.56,3.56,0,0,1-2.16-1.15,3.34,3.34,0,0,1-.76-2.24,3.76,3.76,0,0,1,.39-1.7,3,3,0,0,1,1.08-1.18,2.73,2.73,0,0,1,1.45-.41,2.38,2.38,0,0,1,1.33.39,2.63,2.63,0,0,1,1,1.16,2.62,2.62,0,0,1,1-1.55,2.9,2.9,0,0,1,1.82-.56,3.33,3.33,0,0,1,2.5,1.08,3.79,3.79,0,0,1,1,2.72,3.52,3.52,0,0,1-.88,2.46A3.46,3.46,0,0,1,146.34,682.19Z"/><path class="cls-6" d="M149.31,668.24v1.38H140.5a7.06,7.06,0,0,1,1,1.31,10.08,10.08,0,0,1,.71,1.46h-1.34a8.08,8.08,0,0,0-1.32-2,5.15,5.15,0,0,0-1.5-1.23v-.89Z"/><path class="cls-6" d="M149.31,663.92h-1.57v-1.57h1.57Z"/><path class="cls-6" d="M146.36,660.33l-.12-1.45a2.59,2.59,0,0,0,1.59-.75,2,2,0,0,0,.54-1.42,2.19,2.19,0,0,0-.76-1.69,2.82,2.82,0,0,0-2-.69,2.59,2.59,0,0,0-1.87.66,2.32,2.32,0,0,0-.68,1.74,2.44,2.44,0,0,0,.3,1.21,2.31,2.31,0,0,0,.79.85l-.17,1.29L138.2,659v-5.6h1.33v4.5l3,.6a3.63,3.63,0,0,1-.7-2.12,3.36,3.36,0,0,1,1-2.49,3.54,3.54,0,0,1,2.62-1,4.16,4.16,0,0,1,2.65.89,4,4,0,0,1,.5,5.47A3.32,3.32,0,0,1,146.36,660.33Z"/><path class="cls-6" d="M849,573.86a2.62,2.62,0,0,1-.9,1.27,2.32,2.32,0,0,1-1.4.42,2.71,2.71,0,0,1-2.06-.89,3.7,3.7,0,0,1,0-4.72,2.76,2.76,0,0,1,2.08-.9,2.3,2.3,0,0,1,1.36.41,2.6,2.6,0,0,1,.9,1.25,2.87,2.87,0,0,1,2.89-2.12,3.22,3.22,0,0,1,2.42,1,4.15,4.15,0,0,1,0,5.38,3.29,3.29,0,0,1-2.46,1,3,3,0,0,1-1.84-.56A2.81,2.81,0,0,1,849,573.86Zm-2.34.27a1.76,1.76,0,0,0,1.3-.51,2,2,0,0,0,0-2.65,1.68,1.68,0,0,0-1.24-.51,1.75,1.75,0,0,0-1.28.53,2,2,0,0,0,0,2.62A1.64,1.64,0,0,0,846.7,574.13Zm5.2.45a2.46,2.46,0,0,0,1.14-.28,2.08,2.08,0,0,0,.86-.83,2.48,2.48,0,0,0,.3-1.2,2.2,2.2,0,0,0-.64-1.63,2.17,2.17,0,0,0-1.62-.65,2.25,2.25,0,0,0-1.65.67,2.28,2.28,0,0,0-.65,1.66,2.19,2.19,0,0,0,.64,1.62A2.23,2.23,0,0,0,851.9,574.58Z"/><path class="cls-6" d="M849.59,567.24a10.39,10.39,0,0,1-3.21-.41,4.07,4.07,0,0,1-1.88-1.23,3.12,3.12,0,0,1-.66-2,3.39,3.39,0,0,1,.36-1.59,3.07,3.07,0,0,1,1.06-1.12,5.45,5.45,0,0,1,1.67-.7,11.06,11.06,0,0,1,2.66-.26,10.37,10.37,0,0,1,3.2.41,4,4,0,0,1,1.88,1.22,3.41,3.41,0,0,1-.5,4.6A7.44,7.44,0,0,1,849.59,567.24Zm0-1.43a7.1,7.1,0,0,0,3.69-.64,1.86,1.86,0,0,0,0-3.21,10.8,10.8,0,0,0-7.38,0,1.94,1.94,0,0,0-.92,1.62,1.76,1.76,0,0,0,.81,1.52A7.11,7.11,0,0,0,849.59,565.81Z"/><path class="cls-6" d="M855.14,557.71h-1.57v-1.57h1.57Z"/><path class="cls-6" d="M846.64,546.94l.11,1.38a2.6,2.6,0,0,0-1.18.52,1.82,1.82,0,0,0-.59,1.38,1.93,1.93,0,0,0,.36,1.16,3.18,3.18,0,0,0,1.39,1,7.31,7.31,0,0,0,2.61.39,3.21,3.21,0,0,1-1.5-2.73,3.11,3.11,0,0,1,1-2.35,3.64,3.64,0,0,1,2.63-1,4.39,4.39,0,0,1,2,.46,3.34,3.34,0,0,1,1.88,3.07,3.57,3.57,0,0,1-1.27,2.82,6.42,6.42,0,0,1-4.19,1.09c-2.18,0-3.76-.4-4.75-1.21a3.45,3.45,0,0,1-1.29-2.83,3.22,3.22,0,0,1,.74-2.18A3.25,3.25,0,0,1,846.64,546.94Zm4.86,5.65a3.21,3.21,0,0,0,1.36-.3,2.34,2.34,0,0,0,1-.85,2.13,2.13,0,0,0,.34-1.15,1.92,1.92,0,0,0-.71-1.5,2.78,2.78,0,0,0-1.92-.63,2.64,2.64,0,0,0-1.84.62,2.07,2.07,0,0,0-.67,1.57,2.18,2.18,0,0,0,.67,1.59A2.46,2.46,0,0,0,851.5,552.59Z"/><path class="cls-6" d="M845.36,545.28H844V538h1.08a15.22,15.22,0,0,0,3,2.13,18.32,18.32,0,0,0,3.9,1.63,14.42,14.42,0,0,0,3.09.53v1.42a13.73,13.73,0,0,1-3.21-.52,16.73,16.73,0,0,1-3.62-1.43,15.45,15.45,0,0,1-2.95-2Z"/><path class="cls-6" d="M724.6,594.51l-11-2.21,1-4.9a6.26,6.26,0,0,1,.75-2.18,2.54,2.54,0,0,1,1.29-1,3.27,3.27,0,0,1,1.76-.12,2.84,2.84,0,0,1,1.83,1.15,4,4,0,0,1,.55,2.56,3.65,3.65,0,0,1,.72-.77,7.52,7.52,0,0,1,1.72-.92l3.39-1.32-.37,1.84-2.59,1a17.66,17.66,0,0,0-1.73.75,3.39,3.39,0,0,0-.89.59,2.43,2.43,0,0,0-.43.61,4.14,4.14,0,0,0-.21.8l-.34,1.7,4.9,1Zm-5.88-2.7.63-3.13a4.74,4.74,0,0,0,.11-1.61,1.73,1.73,0,0,0-.49-1,1.91,1.91,0,0,0-.93-.49,1.72,1.72,0,0,0-1.41.31,2.74,2.74,0,0,0-.86,1.7l-.7,3.49Z"/><path class="cls-6" d="M728.44,575.32l-2.64-.53-1,4.79-1.24-.25-6.15-6.48.23-1.1,7.15,1.43.3-1.49,1.24.25-.3,1.49,2.65.53Zm-3.88-.78-5-1,4.28,4.45Z"/><path class="cls-6" d="M723.85,570a10.32,10.32,0,0,1-3.08-1,4,4,0,0,1-1.6-1.57,3.15,3.15,0,0,1-.24-2.13,3.35,3.35,0,0,1,.67-1.49,3.08,3.08,0,0,1,1.25-.89,5.26,5.26,0,0,1,1.78-.36,10.89,10.89,0,0,1,2.66.27,10.37,10.37,0,0,1,3.06,1,4.08,4.08,0,0,1,1.6,1.56,3.13,3.13,0,0,1,.25,2.14,3.07,3.07,0,0,1-1.65,2.28A7.4,7.4,0,0,1,723.85,570Zm.28-1.39a7.12,7.12,0,0,0,3.74.09,1.94,1.94,0,0,0,1.22-1.39,1.91,1.91,0,0,0-.59-1.75,10.84,10.84,0,0,0-7.24-1.45,1.9,1.9,0,0,0-1.21,1.4,1.76,1.76,0,0,0,.49,1.65A7.11,7.11,0,0,0,724.13,568.6Z"/><path class="cls-6" d="M839.85,720.31v1.39H831a7.06,7.06,0,0,1,1,1.31,10,10,0,0,1,.71,1.45h-1.34a8.26,8.26,0,0,0-1.32-2,5.31,5.31,0,0,0-1.5-1.23v-.89Z"/><path class="cls-6" d="M839.85,711.57V713H831a7.06,7.06,0,0,1,1,1.31,10,10,0,0,1,.71,1.45h-1.34a8,8,0,0,0-1.32-2,5.15,5.15,0,0,0-1.5-1.23v-.89Z"/><path class="cls-6" d="M839.85,708.42h-1.57v-1.58h1.57Z"/><path class="cls-6" d="M836.9,704.82l-.12-1.45a2.65,2.65,0,0,0,1.6-.75,2,2,0,0,0,.53-1.42,2.23,2.23,0,0,0-.75-1.69,2.86,2.86,0,0,0-2-.69,2.59,2.59,0,0,0-1.87.67,2.33,2.33,0,0,0-.68,1.74,2.4,2.4,0,0,0,.3,1.2,2.49,2.49,0,0,0,.79.85l-.17,1.3-5.78-1.09v-5.6h1.32v4.49l3,.61a3.63,3.63,0,0,1-.71-2.13,3.39,3.39,0,0,1,1-2.49,3.56,3.56,0,0,1,2.63-1,4.05,4.05,0,0,1,2.64.89,3.57,3.57,0,0,1,1.37,3,3.66,3.66,0,0,1-.86,2.51A3.37,3.37,0,0,1,836.9,704.82Z"/><path class="cls-6" d="M104.52,623.75l.11,1.37a2.65,2.65,0,0,0-1.19.52,1.87,1.87,0,0,0-.59,1.39,2,2,0,0,0,.37,1.16,3.19,3.19,0,0,0,1.39,1,7.31,7.31,0,0,0,2.61.39,3.19,3.19,0,0,1-1.13-1.22,3.28,3.28,0,0,1-.37-1.52,3.13,3.13,0,0,1,1-2.35,3.62,3.62,0,0,1,2.63-1,4.41,4.41,0,0,1,2,.45,3.41,3.41,0,0,1,1.39,1.26,3.45,3.45,0,0,1,.48,1.81,3.54,3.54,0,0,1-1.27,2.82,6.38,6.38,0,0,1-4.19,1.09,7.51,7.51,0,0,1-4.74-1.2,3.49,3.49,0,0,1-1.29-2.84,3,3,0,0,1,2.8-3.19Zm4.85,5.64a3.22,3.22,0,0,0,1.37-.3,2.27,2.27,0,0,0,1-.85,2.16,2.16,0,0,0,.34-1.14,2,2,0,0,0-.71-1.51,2.78,2.78,0,0,0-1.92-.63,2.63,2.63,0,0,0-1.84.62,2,2,0,0,0-.67,1.57,2.14,2.14,0,0,0,.67,1.59A2.41,2.41,0,0,0,109.37,629.39Z"/><path class="cls-6" d="M107.47,622.17a10.21,10.21,0,0,1-3.22-.41,4,4,0,0,1-1.87-1.22,3.12,3.12,0,0,1-.66-2,3.39,3.39,0,0,1,.36-1.59,3.15,3.15,0,0,1,1-1.13,5.9,5.9,0,0,1,1.68-.7,11.08,11.08,0,0,1,2.66-.25,10.37,10.37,0,0,1,3.2.41,4,4,0,0,1,1.88,1.21,3.15,3.15,0,0,1,.66,2,3.11,3.11,0,0,1-1.16,2.56A7.46,7.46,0,0,1,107.47,622.17Zm0-1.42a7,7,0,0,0,3.69-.65,1.85,1.85,0,0,0,0-3.2,7.12,7.12,0,0,0-3.69-.65,7.12,7.12,0,0,0-3.7.65,1.94,1.94,0,0,0-.91,1.62,1.78,1.78,0,0,0,.81,1.52A7.18,7.18,0,0,0,107.47,620.75Z"/><path class="cls-6" d="M113,612.65h-1.57v-1.58H113Z"/><path class="cls-6" d="M111.69,601.79H113v7.44a2.43,2.43,0,0,1-1-.16,5.24,5.24,0,0,1-1.5-.91,14.12,14.12,0,0,1-1.7-1.81,15.14,15.14,0,0,0-2.39-2.48,2.85,2.85,0,0,0-1.66-.65,1.83,1.83,0,0,0-1.38.59,2.12,2.12,0,0,0-.57,1.53,2.16,2.16,0,0,0,.6,1.6,2.28,2.28,0,0,0,1.66.61L105,609a3.47,3.47,0,0,1-2.42-1.1,3.72,3.72,0,0,1-.83-2.56,3.59,3.59,0,0,1,.89-2.56,3,3,0,0,1,2.23-1,3.45,3.45,0,0,1,1.33.28,5.09,5.09,0,0,1,1.38.92,23.31,23.31,0,0,1,2,2.13c.69.83,1.17,1.36,1.41,1.6a4.74,4.74,0,0,0,.75.58Z"/><path class="cls-6" d="M110.07,600.3l-.12-1.45a2.49,2.49,0,0,0,1.59-.75,2,2,0,0,0,.54-1.41,2.18,2.18,0,0,0-.76-1.69,2.82,2.82,0,0,0-2-.69,2.59,2.59,0,0,0-1.87.66,2.33,2.33,0,0,0-.68,1.74,2.44,2.44,0,0,0,.3,1.21,2.29,2.29,0,0,0,.79.84l-.17,1.3L101.92,599v-5.6h1.32v4.49l3,.61a3.69,3.69,0,0,1-.7-2.13,3.39,3.39,0,0,1,1-2.49,3.57,3.57,0,0,1,2.62-1,4.16,4.16,0,0,1,2.65.89,3.57,3.57,0,0,1,1.36,3,3.63,3.63,0,0,1-.86,2.51A3.36,3.36,0,0,1,110.07,600.3Z"/><path class="cls-6" d="M72.58,382.31v1.38H63.77a7.06,7.06,0,0,1,.95,1.31,9.27,9.27,0,0,1,.72,1.46H64.1a8.08,8.08,0,0,0-1.32-2,5.17,5.17,0,0,0-1.51-1.23v-.89Z"/><path class="cls-6" d="M62.79,378.68H61.47v-7.29h1.07a16,16,0,0,0,3,2.13,18.76,18.76,0,0,0,3.9,1.63,14.63,14.63,0,0,0,3.1.53v1.42a13.57,13.57,0,0,1-3.21-.52,16.61,16.61,0,0,1-3.63-1.43,15.93,15.93,0,0,1-2.95-2Z"/><path class="cls-6" d="M71.25,362.75h1.33v7.45a2.43,2.43,0,0,1-1-.17,5,5,0,0,1-1.5-.91,13.94,13.94,0,0,1-1.7-1.8A15.31,15.31,0,0,0,66,364.83a2.83,2.83,0,0,0-1.66-.64,1.83,1.83,0,0,0-1.39.59,2.13,2.13,0,0,0-.56,1.53,2.17,2.17,0,0,0,.6,1.6,2.24,2.24,0,0,0,1.66.6l-.15,1.42a3.46,3.46,0,0,1-2.42-1.09,3.74,3.74,0,0,1-.84-2.56,3.58,3.58,0,0,1,.9-2.57,3,3,0,0,1,2.23-.94,3.47,3.47,0,0,1,1.33.27,5.3,5.3,0,0,1,1.37.92,22,22,0,0,1,2,2.13c.7.83,1.17,1.37,1.42,1.6a4.83,4.83,0,0,0,.75.59Z"/><path class="cls-6" d="M148.21,541.56v1.38H139.4a7.06,7.06,0,0,1,.95,1.31,8.3,8.3,0,0,1,.71,1.45h-1.33a8.81,8.81,0,0,0-1.32-2,5.17,5.17,0,0,0-1.51-1.23v-.89Z"/><path class="cls-6" d="M145.6,537.81l-.12-1.33a2.32,2.32,0,0,0,1.36-.64,1.8,1.8,0,0,0,.42-1.23,2,2,0,0,0-.29-1.11,2.27,2.27,0,0,0-.78-.79,4.36,4.36,0,0,0-1.32-.52,7.3,7.3,0,0,0-1.69-.2h-.27a3.17,3.17,0,0,1,1.07,1.14,3.12,3.12,0,0,1,.41,1.55,3.18,3.18,0,0,1-1,2.37,4.22,4.22,0,0,1-5.43,0,3.38,3.38,0,0,1-1-2.53,3.61,3.61,0,0,1,.59-2,3.76,3.76,0,0,1,1.69-1.39,8.39,8.39,0,0,1,3.17-.47,10.25,10.25,0,0,1,3.43.47,4,4,0,0,1,1.95,1.39,3.59,3.59,0,0,1,.67,2.17,3.19,3.19,0,0,1-.73,2.16A3.15,3.15,0,0,1,145.6,537.81Zm-5-5.66a2.73,2.73,0,0,0-1.89.63,2,2,0,0,0-.69,1.53,2.1,2.1,0,0,0,.75,1.6,2.76,2.76,0,0,0,1.95.68,2.42,2.42,0,0,0,1.75-.64,2.19,2.19,0,0,0,.67-1.61,2.07,2.07,0,0,0-.67-1.57A2.62,2.62,0,0,0,140.63,532.15Z"/><path class="cls-6" d="M148.21,528.49h-1.58v-1.57h1.58Z"/><path class="cls-6" d="M145.26,524.9l-.12-1.45a2.65,2.65,0,0,0,1.59-.75,2.07,2.07,0,0,0,.53-1.42,2.22,2.22,0,0,0-.75-1.69,2.84,2.84,0,0,0-2-.69,2.56,2.56,0,0,0-1.86.66,2.53,2.53,0,0,0-.38,3,2.26,2.26,0,0,0,.78.84l-.16,1.3-5.79-1.09V518h1.32v4.5l3,.6a3.65,3.65,0,0,1-.71-2.13,3.35,3.35,0,0,1,1-2.48,3.56,3.56,0,0,1,2.63-1,4.11,4.11,0,0,1,2.64.89,3.59,3.59,0,0,1,1.37,3,3.68,3.68,0,0,1-.86,2.51A3.32,3.32,0,0,1,145.26,524.9Z"/><path class="cls-6" d="M145.23,516.14l-.18-1.38a3,3,0,0,0,1.69-.81,2,2,0,0,0,.52-1.4,2.22,2.22,0,0,0-.67-1.64,2.28,2.28,0,0,0-1.68-.68,2.11,2.11,0,0,0-1.57.63,2.15,2.15,0,0,0-.62,1.58,3.72,3.72,0,0,0,.16,1l-1.22-.16c0-.09,0-.17,0-.22a2.9,2.9,0,0,0-.46-1.59,1.58,1.58,0,0,0-1.42-.71,1.65,1.65,0,0,0-1.26.52,1.79,1.79,0,0,0-.5,1.33,1.88,1.88,0,0,0,.51,1.34,2.49,2.49,0,0,0,1.52.69l-.25,1.38a3.53,3.53,0,0,1-2.15-1.15,3.32,3.32,0,0,1-.77-2.23,3.61,3.61,0,0,1,.4-1.7,2.84,2.84,0,0,1,1.08-1.19,2.79,2.79,0,0,1,1.45-.41,2.41,2.41,0,0,1,1.33.39,2.7,2.7,0,0,1,1,1.16,2.62,2.62,0,0,1,.95-1.55,2.92,2.92,0,0,1,1.82-.55,3.34,3.34,0,0,1,2.5,1.07,3.82,3.82,0,0,1,1,2.72,3.52,3.52,0,0,1-.89,2.46A3.38,3.38,0,0,1,145.23,516.14Z"/><path class="cls-6" d="M146.88,423.38h1.33v7.44a2.37,2.37,0,0,1-1-.16,5,5,0,0,1-1.5-.91,14.83,14.83,0,0,1-1.71-1.81,15.18,15.18,0,0,0-2.38-2.48,2.85,2.85,0,0,0-1.66-.64,1.86,1.86,0,0,0-1.39.58,2.13,2.13,0,0,0-.56,1.54,2.18,2.18,0,0,0,.59,1.59,2.3,2.3,0,0,0,1.66.61l-.14,1.42a3.51,3.51,0,0,1-2.43-1.1,3.77,3.77,0,0,1-.83-2.56,3.55,3.55,0,0,1,.9-2.56,3,3,0,0,1,2.23-.95,3.49,3.49,0,0,1,1.33.28,5.3,5.3,0,0,1,1.37.92,23.31,23.31,0,0,1,2,2.13c.7.83,1.17,1.36,1.42,1.6a4.74,4.74,0,0,0,.75.58Z"/><path class="cls-6" d="M148.21,338.11v1.38H139.4a7.06,7.06,0,0,1,.95,1.31,8.3,8.3,0,0,1,.71,1.45h-1.33a8.6,8.6,0,0,0-1.32-2A5.17,5.17,0,0,0,136.9,339v-.89Z"/><path class="cls-6" d="M145.6,334.36l-.12-1.33a2.26,2.26,0,0,0,1.36-.65,1.76,1.76,0,0,0,.42-1.22,2,2,0,0,0-.29-1.11,2.27,2.27,0,0,0-.78-.79,4.36,4.36,0,0,0-1.32-.52,7.3,7.3,0,0,0-1.69-.2h-.27a3.17,3.17,0,0,1,1.07,1.14,3.1,3.1,0,0,1,.41,1.55,3.18,3.18,0,0,1-1,2.37,4.2,4.2,0,0,1-5.43-.05,3.35,3.35,0,0,1-1-2.53,3.6,3.6,0,0,1,.59-2,3.76,3.76,0,0,1,1.69-1.39,8.39,8.39,0,0,1,3.17-.47,10.25,10.25,0,0,1,3.43.47,4,4,0,0,1,1.95,1.39,3.59,3.59,0,0,1,.67,2.17,3.21,3.21,0,0,1-.73,2.16A3.15,3.15,0,0,1,145.6,334.36Zm-5-5.66a2.73,2.73,0,0,0-1.89.63,2,2,0,0,0-.69,1.53,2.1,2.1,0,0,0,.75,1.6,2.76,2.76,0,0,0,1.95.68,2.42,2.42,0,0,0,1.75-.64,2.19,2.19,0,0,0,.67-1.61,2.05,2.05,0,0,0-.67-1.57A2.62,2.62,0,0,0,140.63,328.7Z"/><path class="cls-6" d="M148.21,325h-1.58v-1.57h1.58Z"/><path class="cls-6" d="M145.26,321.45l-.12-1.45a2.65,2.65,0,0,0,1.59-.75,2.07,2.07,0,0,0,.53-1.42,2.22,2.22,0,0,0-.75-1.69,2.84,2.84,0,0,0-2-.69,2.56,2.56,0,0,0-1.86.66,2.53,2.53,0,0,0-.38,2.95,2.26,2.26,0,0,0,.78.84l-.16,1.3-5.79-1.09v-5.6h1.32V319l3,.6a3.65,3.65,0,0,1-.71-2.12,3.36,3.36,0,0,1,1-2.49,3.56,3.56,0,0,1,2.63-1,4.11,4.11,0,0,1,2.64.89,3.59,3.59,0,0,1,1.37,3,3.66,3.66,0,0,1-.86,2.51A3.32,3.32,0,0,1,145.26,321.45Z"/><path class="cls-6" d="M234.43,156.87l-.12-1.45a2.59,2.59,0,0,0,1.59-.75,2,2,0,0,0,.54-1.42,2.19,2.19,0,0,0-.76-1.69,2.82,2.82,0,0,0-2-.69,2.55,2.55,0,0,0-1.87.67,2.33,2.33,0,0,0-.68,1.74,2.43,2.43,0,0,0,.3,1.2,2.4,2.4,0,0,0,.79.85l-.17,1.29-5.78-1.09v-5.6h1.32v4.5l3,.6a3.63,3.63,0,0,1-.7-2.12,3.36,3.36,0,0,1,1-2.49,3.54,3.54,0,0,1,2.62-1,4.11,4.11,0,0,1,2.65.9,3.55,3.55,0,0,1,1.36,2.95,3.61,3.61,0,0,1-.86,2.51A3.32,3.32,0,0,1,234.43,156.87Z"/><path class="cls-6" d="M237.38,142.91v1.39h-8.81a6.63,6.63,0,0,1,1,1.31,9.22,9.22,0,0,1,.72,1.45H228.9a8.26,8.26,0,0,0-1.32-2,5.4,5.4,0,0,0-1.5-1.22v-.9Z"/><path class="cls-6" d="M287.53,85.86v1.39h-8.81a7.06,7.06,0,0,1,.95,1.31,9.22,9.22,0,0,1,.72,1.45h-1.34a8.26,8.26,0,0,0-1.32-2,5.29,5.29,0,0,0-1.51-1.22v-.9Z"/><path class="cls-6" d="M287.53,77.89h-2.7v4.89h-1.26l-7.3-5.14V76.51h7.3V75h1.26v1.52h2.7Zm-4,0h-5.08l5.08,3.53Z"/><path class="cls-6" d="M287.53,72.8H286V71.23h1.57Z"/><path class="cls-6" d="M284.56,69.2l-.19-1.38a3,3,0,0,0,1.69-.81,2,2,0,0,0,.52-1.4,2.24,2.24,0,0,0-.67-1.65,2.32,2.32,0,0,0-1.68-.67,2.14,2.14,0,0,0-1.57.62A2.19,2.19,0,0,0,282,65.5a4.12,4.12,0,0,0,.16,1L281,66.32c0-.09,0-.17,0-.22a2.82,2.82,0,0,0-.46-1.59,1.58,1.58,0,0,0-1.42-.71,1.68,1.68,0,0,0-1.26.51,1.82,1.82,0,0,0-.5,1.33,1.89,1.89,0,0,0,.51,1.35,2.49,2.49,0,0,0,1.52.69l-.25,1.38A3.53,3.53,0,0,1,277,67.91a3.35,3.35,0,0,1-.77-2.24,3.57,3.57,0,0,1,.4-1.69,2.83,2.83,0,0,1,2.53-1.6,2.38,2.38,0,0,1,1.33.39,2.7,2.7,0,0,1,.95,1.16,2.56,2.56,0,0,1,1-1.55,2.89,2.89,0,0,1,1.81-.55,3.31,3.31,0,0,1,2.5,1.07,3.76,3.76,0,0,1,1,2.72,3.52,3.52,0,0,1-.89,2.46A3.4,3.4,0,0,1,284.56,69.2Z"/><path class="cls-6" d="M345.45,162.53l-.09,1.38-8.79-.59a6.93,6.93,0,0,1,.86,1.37,9.42,9.42,0,0,1,.62,1.5l-1.34-.09a8.35,8.35,0,0,0-1.18-2.12,5.17,5.17,0,0,0-1.42-1.32l.06-.89Z"/><path class="cls-6" d="M339.17,157.79l-1.57-.11.11-1.57,1.57.11Zm6.57.44-1.57-.11.11-1.57,1.57.11Z"/><path class="cls-6" d="M343,154.43l-.09-1.4a3,3,0,0,0,1.74-.69,2,2,0,0,0,.61-1.36,2.19,2.19,0,0,0-.56-1.68,2.3,2.3,0,0,0-1.63-.79,2.13,2.13,0,0,0-1.61.52,2.16,2.16,0,0,0-.72,1.53,3.76,3.76,0,0,0,.09,1l-1.2-.24c0-.09,0-.16,0-.22a2.9,2.9,0,0,0-.35-1.62,1.61,1.61,0,0,0-1.37-.8,1.72,1.72,0,0,0-1.3.43,1.81,1.81,0,0,0-.58,1.29,1.88,1.88,0,0,0,.41,1.38,2.6,2.6,0,0,0,1.47.79l-.33,1.36a3.56,3.56,0,0,1-2.08-1.29,3.36,3.36,0,0,1-.61-2.28,3.67,3.67,0,0,1,.51-1.67,2.81,2.81,0,0,1,1.16-1.11,2.72,2.72,0,0,1,1.47-.31,2.32,2.32,0,0,1,1.3.48,2.67,2.67,0,0,1,.87,1.22,2.6,2.6,0,0,1,1.06-1.48,2.89,2.89,0,0,1,1.85-.43,3.3,3.3,0,0,1,2.42,1.24,3.73,3.73,0,0,1,.84,2.78,3.55,3.55,0,0,1-1,2.4A3.43,3.43,0,0,1,343,154.43Z"/><path class="cls-6" d="M341,145.53a10.56,10.56,0,0,1-3.18-.62,4,4,0,0,1-1.79-1.35,3.11,3.11,0,0,1-.52-2.08,3.25,3.25,0,0,1,.47-1.56,3,3,0,0,1,1.12-1,5.44,5.44,0,0,1,1.72-.59,11.12,11.12,0,0,1,2.67-.07,10.25,10.25,0,0,1,3.17.62,3.91,3.91,0,0,1,1.79,1.34,3.41,3.41,0,0,1-.81,4.56A7.41,7.41,0,0,1,341,145.53Zm.1-1.42a7,7,0,0,0,3.72-.39,2,2,0,0,0,1-1.54,1.91,1.91,0,0,0-.82-1.66,10.76,10.76,0,0,0-7.36-.5,1.91,1.91,0,0,0-1,1.56,1.79,1.79,0,0,0,.7,1.57A7.12,7.12,0,0,0,341.13,144.11Z"/><path class="cls-6" d="M374.72,228.7l-1.31-.44,2.75-8.36a7.18,7.18,0,0,1-1.54.49,8.9,8.9,0,0,1-1.6.23l.42-1.27a8.59,8.59,0,0,0,2.33-.62,5,5,0,0,0,1.64-1l.85.28Z"/><path class="cls-6" d="M378.81,230.05l.5-1.5,1.49.49-.49,1.5Zm2.06-6.26.5-1.49,1.49.49-.49,1.5Z"/><path class="cls-6" d="M389.55,232.18l-.41,1.27-7.07-2.33a2.29,2.29,0,0,1,.45-.86,5,5,0,0,1,1.33-1.14,13.46,13.46,0,0,1,2.25-1.05,15.39,15.39,0,0,0,3.11-1.49,2.86,2.86,0,0,0,1.13-1.38,1.87,1.87,0,0,0-.12-1.5,2.15,2.15,0,0,0-1.28-1,2.19,2.19,0,0,0-1.71.07,2.28,2.28,0,0,0-1.09,1.39l-1.31-.59a3.53,3.53,0,0,1,1.81-2,3.71,3.71,0,0,1,2.69,0,3.56,3.56,0,0,1,2.15,1.65,2.94,2.94,0,0,1,.2,2.41,3.43,3.43,0,0,1-.68,1.18,5.35,5.35,0,0,1-1.3,1,22.57,22.57,0,0,1-2.64,1.21c-1,.4-1.66.69-2,.85a4,4,0,0,0-.79.53Z"/><path class="cls-6" d="M391.28,234.15l.49-1.49,1.5.49-.49,1.5Z"/><path class="cls-6" d="M397.84,226l.42-1.26,6.92,2.28-.33,1a14.93,14.93,0,0,0-3,2.23,18.49,18.49,0,0,0-2.77,3.19,14.19,14.19,0,0,0-1.47,2.77l-1.35-.44a13.64,13.64,0,0,1,1.5-2.89,17.27,17.27,0,0,1,2.49-3,15.3,15.3,0,0,1,2.81-2.18Z"/><path class="cls-6" d="M403.92,235.22l1.42.33a2.6,2.6,0,0,0,.21,1.75,2,2,0,0,0,1.18.95,2.17,2.17,0,0,0,1.84-.19,2.8,2.8,0,0,0,1.28-1.68,2.59,2.59,0,0,0,0-2,2.31,2.31,0,0,0-1.44-1.19,2.41,2.41,0,0,0-1.24-.09,2.31,2.31,0,0,0-1.05.48L404.9,233l2.84-5.15,5.32,1.75-.41,1.25-4.27-1.4-1.52,2.68a3.57,3.57,0,0,1,2.24,0,3.36,3.36,0,0,1,2,1.74,3.56,3.56,0,0,1,.14,2.82,4.07,4.07,0,0,1-1.67,2.23,3.58,3.58,0,0,1-3.24.37,3.64,3.64,0,0,1-2.11-1.6A3.38,3.38,0,0,1,403.92,235.22Z"/><path class="cls-6" d="M381,670.47l-1.31.43-2.74-8.37a7.72,7.72,0,0,1-.95,1.31,9.23,9.23,0,0,1-1.16,1.13l-.42-1.27a8.31,8.31,0,0,0,1.52-1.88,5.26,5.26,0,0,0,.69-1.82l.85-.28Z"/><path class="cls-6" d="M383,662.87l-.49-1.5,1.49-.49.49,1.5Zm2.05,6.25-.49-1.49,1.49-.49.49,1.49Z"/><path class="cls-6" d="M393.42,666.38l-1.31.43-2.75-8.37a7.2,7.2,0,0,1-.95,1.31,8.6,8.6,0,0,1-1.16,1.13l-.41-1.27a8.26,8.26,0,0,0,1.51-1.88,5.3,5.3,0,0,0,.7-1.82l.85-.27Z"/><path class="cls-6" d="M401,663.89l-.84-2.56-4.64,1.52-.39-1.2,2.61-8.53,1.07-.36,2.27,6.94,1.45-.48.39,1.21-1.44.47.84,2.56Zm-1.23-3.76-1.58-4.83-1.77,5.93Z"/><path class="cls-6" d="M359.58,648.27l-1.31.44-2.75-8.37a7.1,7.1,0,0,1-.94,1.31,9.23,9.23,0,0,1-1.16,1.13l-.42-1.27a8.36,8.36,0,0,0,1.52-1.89,5.14,5.14,0,0,0,.69-1.81l.85-.28Z"/><path class="cls-6" d="M361.63,640.68l-.49-1.5,1.49-.49.49,1.5Zm2.05,6.25-.49-1.49,1.49-.49.49,1.49Z"/><path class="cls-6" d="M373.59,642.28l.41,1.26-7.07,2.32a2.41,2.41,0,0,1-.14-1,5.12,5.12,0,0,1,.39-1.71,15.17,15.17,0,0,1,1.19-2.18,15.56,15.56,0,0,0,1.62-3,2.91,2.91,0,0,0,.09-1.78,1.82,1.82,0,0,0-1-1.13,2.08,2.08,0,0,0-1.63-.06,2.16,2.16,0,0,0-1.33,1.06,2.24,2.24,0,0,0-.06,1.77l-1.4.3a3.48,3.48,0,0,1,.29-2.64,3.7,3.7,0,0,1,2.17-1.59,3.58,3.58,0,0,1,2.72.05,3,3,0,0,1,1.59,1.83,3.37,3.37,0,0,1,.15,1.35,5,5,0,0,1-.44,1.59,22.87,22.87,0,0,1-1.41,2.54c-.57.93-.93,1.54-1.08,1.85a5.35,5.35,0,0,0-.32.89Z"/><path class="cls-6" d="M376.15,642.84l-.49-1.5,1.5-.49.49,1.5Z"/><path class="cls-6" d="M376.6,632.39l-.41-1.26,6.92-2.27.34,1a15.78,15.78,0,0,0-1.08,3.55,19,19,0,0,0-.33,4.22,14.28,14.28,0,0,0,.46,3.11l-1.35.44a14.19,14.19,0,0,1-.51-3.21,17.05,17.05,0,0,1,.24-3.9,15.36,15.36,0,0,1,1-3.41Z"/><path class="cls-6" d="M387,636.19l1.34-.57a2.53,2.53,0,0,0,1.21,1.28A2,2,0,0,0,391,637a2.21,2.21,0,0,0,1.37-1.24,2.9,2.9,0,0,0,0-2.12,2.53,2.53,0,0,0-1.22-1.56,2.3,2.3,0,0,0-1.86-.11,2.36,2.36,0,0,0-1.05.66,2.29,2.29,0,0,0-.56,1l-1.29.24-.76-5.84,5.32-1.74.41,1.25-4.27,1.4.37,3.07a3.67,3.67,0,0,1,1.8-1.34,3.38,3.38,0,0,1,2.68.2,3.57,3.57,0,0,1,1.78,2.18,4.11,4.11,0,0,1,0,2.79,3.58,3.58,0,0,1-2.38,2.22,3.63,3.63,0,0,1-2.66,0A3.34,3.34,0,0,1,387,636.19Z"/><line class="cls-5" x1="499.75" y1="604.58" x2="148.22" y2="604.58"/><line class="cls-15" x1="466.19" y1="491.84" x2="109.7" y2="491.84"/><line class="cls-5" x1="208.38" y1="734.86" x2="72.58" y2="734.86"/><path class="cls-6" d="M462.48,220.53l-6-9.53,4.23-2.66a6.81,6.81,0,0,1,2.1-1,2.6,2.6,0,0,1,1.63.24,3.3,3.3,0,0,1,1.3,1.19,2.85,2.85,0,0,1,.41,2.13,3.84,3.84,0,0,1-1.47,2.15,4.13,4.13,0,0,1,1.06,0,7.92,7.92,0,0,1,1.84.61l3.29,1.56-1.59,1-2.5-1.19c-.73-.34-1.31-.59-1.74-.74a3.81,3.81,0,0,0-1-.24,2.55,2.55,0,0,0-.74.11,4.46,4.46,0,0,0-.73.4l-1.46.92,2.66,4.23Zm-2.09-6.12,2.72-1.7a4.74,4.74,0,0,0,1.24-1,1.67,1.67,0,0,0,.38-1,1.9,1.9,0,0,0-.28-1,1.67,1.67,0,0,0-1.19-.8,2.71,2.71,0,0,0-1.83.53l-3,1.9Z"/><path class="cls-6" d="M470.19,204.13l-.7-1.12,6.17-3.88.57.91a15.78,15.78,0,0,0-.19,3.71,18.36,18.36,0,0,0,.7,4.17,14.06,14.06,0,0,0,1.19,2.91l-1.2.75a13.87,13.87,0,0,1-1.27-3,17,17,0,0,1-.71-3.84,15.68,15.68,0,0,1,.11-3.55Z"/><path class="cls-6" d="M396.78,163.48l-6-9.54,4.23-2.65a6.36,6.36,0,0,1,2.1-1,2.47,2.47,0,0,1,1.63.24,3.23,3.23,0,0,1,1.3,1.19,2.82,2.82,0,0,1,.41,2.12A3.86,3.86,0,0,1,399,156a3.71,3.71,0,0,1,1.06,0,7.34,7.34,0,0,1,1.84.61l3.29,1.55-1.58,1L401.09,158q-1.09-.51-1.74-.75a3.34,3.34,0,0,0-1-.23,2.15,2.15,0,0,0-.73.11,4.2,4.2,0,0,0-.73.39l-1.47.92,2.66,4.24Zm-2.09-6.12,2.72-1.7a5.16,5.16,0,0,0,1.24-1,1.75,1.75,0,0,0,.38-1,1.85,1.85,0,0,0-.28-1,1.69,1.69,0,0,0-1.19-.81,2.78,2.78,0,0,0-1.83.54l-3,1.89Z"/><path class="cls-6" d="M408.05,152.89l1.07-.89a3.07,3.07,0,0,0,1.58,1,2,2,0,0,0,1.46-.31,2.21,2.21,0,0,0,1-1.44,2.31,2.31,0,0,0-.32-1.78,2.12,2.12,0,0,0-3-.68,3.7,3.7,0,0,0-.75.65l-.51-1.11.19-.11a2.77,2.77,0,0,0,1.1-1.23,1.57,1.57,0,0,0-.15-1.58,1.68,1.68,0,0,0-1.11-.79,1.81,1.81,0,0,0-1.39.28,1.88,1.88,0,0,0-.87,1.14,2.6,2.6,0,0,0,.22,1.66l-1.3.53a3.6,3.6,0,0,1-.17-2.44A3.4,3.4,0,0,1,406.6,144a3.73,3.73,0,0,1,1.65-.56,2.8,2.8,0,0,1,2.69,1.29,2.36,2.36,0,0,1,.38,1.33,2.79,2.79,0,0,1-.47,1.43,2.59,2.59,0,0,1,1.82,0,2.91,2.91,0,0,1,1.43,1.24,3.36,3.36,0,0,1,.42,2.69,3.8,3.8,0,0,1-1.76,2.32,3.55,3.55,0,0,1-2.55.56A3.36,3.36,0,0,1,408.05,152.89Z"/><path class="cls-6" d="M379.24,126,381.38,115l4.9,1a6.68,6.68,0,0,1,2.19.73,2.54,2.54,0,0,1,1,1.29,3.16,3.16,0,0,1,.14,1.75,2.82,2.82,0,0,1-1.14,1.84,3.91,3.91,0,0,1-2.55.57,3.65,3.65,0,0,1,.77.72,7.67,7.67,0,0,1,.93,1.71l1.35,3.38-1.84-.36-1-2.58c-.3-.75-.56-1.32-.76-1.73a3.48,3.48,0,0,0-.6-.88,2.43,2.43,0,0,0-.62-.42,3.94,3.94,0,0,0-.8-.21l-1.7-.33-.94,4.91Zm2.66-5.9,3.14.61a5,5,0,0,0,1.61.1,1.77,1.77,0,0,0,1-.5,1.81,1.81,0,0,0,.48-.94,1.63,1.63,0,0,0-.32-1.4,2.7,2.7,0,0,0-1.7-.85l-3.5-.67Z"/><path class="cls-6" d="M397.34,123.3a2.62,2.62,0,0,1-1.08-1.12,2.36,2.36,0,0,1-.14-1.45,2.78,2.78,0,0,1,1.26-1.87,3.72,3.72,0,0,1,4.63.92,2.75,2.75,0,0,1,.49,2.22,2.33,2.33,0,0,1-.66,1.26,2.57,2.57,0,0,1-1.4.64,2.86,2.86,0,0,1,1.54,3.24,3.26,3.26,0,0,1-1.46,2.19,3.75,3.75,0,0,1-2.83.45,3.67,3.67,0,0,1-2.45-1.48,3.28,3.28,0,0,1-.54-2.61,3,3,0,0,1,.9-1.7A2.81,2.81,0,0,1,397.34,123.3ZM396.1,126a2.49,2.49,0,0,0,0,1.18,2.1,2.1,0,0,0,.66,1,2.48,2.48,0,0,0,1.11.52,2.25,2.25,0,0,0,1.73-.32,2.19,2.19,0,0,0,.94-1.47,2.24,2.24,0,0,0-.34-1.74,2.31,2.31,0,0,0-1.51-1A2.2,2.2,0,0,0,396.1,126Zm1.42-5a1.73,1.73,0,0,0,.26,1.38,1.81,1.81,0,0,0,1.21.75,1.76,1.76,0,0,0,1.38-.25,1.63,1.63,0,0,0,.74-1.11,1.76,1.76,0,0,0-.28-1.36,1.93,1.93,0,0,0-2.57-.5A1.6,1.6,0,0,0,397.52,121Z"/><path class="cls-6" d="M384.18,83.83l7.05-8.78,3.83,3.07a6.35,6.35,0,0,1,1.56,1.65,2.43,2.43,0,0,1,.29,1.6,3.22,3.22,0,0,1-.7,1.62,2.86,2.86,0,0,1-1.86,1.09,3.81,3.81,0,0,1-2.49-.66,3.8,3.8,0,0,1,.33,1,7.71,7.71,0,0,1,0,1.93l-.42,3.6-1.44-1.16.33-2.74c.09-.8.13-1.42.14-1.87a3.09,3.09,0,0,0-.11-1.06,2.34,2.34,0,0,0-.33-.65,5.26,5.26,0,0,0-.6-.55l-1.32-1.06-3.14,3.9Zm5.08-4,2.46,2a4.7,4.7,0,0,0,1.35.82,1.66,1.66,0,0,0,1.1,0A1.87,1.87,0,0,0,395,82a1.72,1.72,0,0,0,.38-1.38,2.6,2.6,0,0,0-1.08-1.53l-2.73-2.19Z"/><path class="cls-6" d="M399.79,96.34l-1.06-.85,5.52-6.87a6.45,6.45,0,0,1-1.61-.06,9.7,9.7,0,0,1-1.56-.34l.84-1a8.52,8.52,0,0,0,2.38.22,5.18,5.18,0,0,0,1.88-.42l.69.55Z"/><path class="cls-6" d="M413.33,96.3l-1.12-.77a2.53,2.53,0,0,0,.34-1.24,1.78,1.78,0,0,0-.69-1.31,1.88,1.88,0,0,0-1.12-.43,3.18,3.18,0,0,0-1.66.45,7.58,7.58,0,0,0-1.93,1.79,3.13,3.13,0,0,1,3,.52,3,3,0,0,1,1.16,2.24,3.67,3.67,0,0,1-.9,2.65,4.32,4.32,0,0,1-1.58,1.25,3.22,3.22,0,0,1-3.53-.42A3.45,3.45,0,0,1,404,98.3a6.46,6.46,0,0,1,1.78-3.94,7.64,7.64,0,0,1,3.9-3,3.35,3.35,0,0,1,3,.74,3,3,0,0,1,1.2,1.92A3.16,3.16,0,0,1,413.33,96.3Zm-7.36.31a3.28,3.28,0,0,0-.63,1.25,2.29,2.29,0,0,0,0,1.3,2.16,2.16,0,0,0,.66,1,1.9,1.9,0,0,0,1.6.37,2.72,2.72,0,0,0,1.68-1.1,2.63,2.63,0,0,0,.68-1.82,2,2,0,0,0-.78-1.49,2.07,2.07,0,0,0-1.64-.46A2.47,2.47,0,0,0,406,96.61Z"/><path class="cls-6" d="M416.7,75.43l11-2.35,1,4.89a6.77,6.77,0,0,1,.17,2.3,2.51,2.51,0,0,1-.78,1.45,3.24,3.24,0,0,1-1.57.81,2.85,2.85,0,0,1-2.13-.34,3.88,3.88,0,0,1-1.52-2.13,4.48,4.48,0,0,1-.36,1,8.05,8.05,0,0,1-1.21,1.52l-2.59,2.55-.39-1.83,2-2c.57-.56,1-1,1.29-1.37a3.31,3.31,0,0,0,.58-.9,2,2,0,0,0,.15-.73,4.52,4.52,0,0,0-.12-.82l-.36-1.69-4.89,1Zm6.47.14.66,3.14a4.8,4.8,0,0,0,.54,1.52,1.72,1.72,0,0,0,.85.71,1.79,1.79,0,0,0,1,.08,1.7,1.7,0,0,0,1.16-.84,2.77,2.77,0,0,0,.12-1.9l-.74-3.48Z"/><path class="cls-6" d="M429.44,88.29l1.3-.27,1.52,7.13-1.05.22a15.4,15.4,0,0,0-3.42-1.45,18.41,18.41,0,0,0-4.15-.79,14.7,14.7,0,0,0-3.14.13l-.3-1.39a14,14,0,0,1,3.25-.16,17,17,0,0,1,3.85.65,15,15,0,0,1,3.29,1.33Z"/><path class="cls-6" d="M427.11,97.64a10.2,10.2,0,0,1,3.23-.27,4,4,0,0,1,2.09.81A3.1,3.1,0,0,1,433.5,100a3.42,3.42,0,0,1,0,1.63,3.09,3.09,0,0,1-.79,1.33,5.81,5.81,0,0,1-1.5,1,10.86,10.86,0,0,1-2.55.8,10.06,10.06,0,0,1-3.21.27,4,4,0,0,1-2.09-.8,3.42,3.42,0,0,1-.47-4.61A7.43,7.43,0,0,1,427.11,97.64ZM427.4,99a7.14,7.14,0,0,0-3.47,1.4,1.92,1.92,0,0,0-.57,1.76,2,2,0,0,0,1.24,1.38,10.91,10.91,0,0,0,7.22-1.54,2,2,0,0,0,.56-1.77,1.81,1.81,0,0,0-1.11-1.32A7.12,7.12,0,0,0,427.4,99Z"/><path class="cls-6" d="M463.72,76.66,475,76.14l.22,5a6.79,6.79,0,0,1-.19,2.3,2.53,2.53,0,0,1-1,1.3,3.22,3.22,0,0,1-1.67.54,2.81,2.81,0,0,1-2.05-.68,3.88,3.88,0,0,1-1.16-2.35,3.53,3.53,0,0,1-.52.93,7.1,7.1,0,0,1-1.44,1.3l-3,2.1-.08-1.87,2.27-1.6q1-.7,1.5-1.14a3.75,3.75,0,0,0,.72-.8,2,2,0,0,0,.26-.69,4,4,0,0,0,0-.83l-.08-1.72-5,.22Zm6.35,1.2.15,3.2a4.72,4.72,0,0,0,.28,1.58,1.73,1.73,0,0,0,.72.85,1.82,1.82,0,0,0,1,.25,1.69,1.69,0,0,0,1.28-.64,2.73,2.73,0,0,0,.44-1.86l-.17-3.56Z"/><path class="cls-6" d="M466.09,99l-1.33.07-.34-7.44a2.28,2.28,0,0,1,1,.12,5,5,0,0,1,1.54.84,14.51,14.51,0,0,1,1.78,1.73,15.84,15.84,0,0,0,2.5,2.37,2.81,2.81,0,0,0,1.69.56,1.83,1.83,0,0,0,1.36-.65,2.4,2.4,0,0,0-.18-3.12,2.27,2.27,0,0,0-1.69-.53l.08-1.43a3.48,3.48,0,0,1,2.47,1,3.68,3.68,0,0,1,.95,2.51,3.58,3.58,0,0,1-.78,2.61,2.9,2.9,0,0,1-2.18,1,3.48,3.48,0,0,1-1.34-.21,5.44,5.44,0,0,1-1.41-.85,23,23,0,0,1-2.08-2A20.87,20.87,0,0,0,466.61,94a4.43,4.43,0,0,0-.77-.55Z"/><path class="cls-6" d="M470.38,100.25a10.57,10.57,0,0,1,3.23.26,4.06,4.06,0,0,1,1.93,1.14,3.05,3.05,0,0,1,.75,2,3.34,3.34,0,0,1-.29,1.61,3,3,0,0,1-1,1.18,5.81,5.81,0,0,1-1.64.77,11.48,11.48,0,0,1-2.64.38,10.5,10.5,0,0,1-3.22-.26,4.09,4.09,0,0,1-1.94-1.13,3.17,3.17,0,0,1-.75-2,3.1,3.1,0,0,1,1.05-2.61A7.47,7.47,0,0,1,470.38,100.25Zm.06,1.42a7.1,7.1,0,0,0-3.65.82,1.9,1.9,0,0,0-.85,1.64,1.92,1.92,0,0,0,1,1.56,10.79,10.79,0,0,0,7.37-.34,1.92,1.92,0,0,0,.84-1.66,1.76,1.76,0,0,0-.88-1.48A7.11,7.11,0,0,0,470.44,101.67Z"/><path class="cls-6" d="M470.78,109a10.54,10.54,0,0,1,3.23.26,4,4,0,0,1,1.93,1.14,3,3,0,0,1,.75,2,3.23,3.23,0,0,1-.29,1.61,3,3,0,0,1-1,1.17,5.56,5.56,0,0,1-1.64.78,11,11,0,0,1-2.64.37,10.57,10.57,0,0,1-3.22-.25,4,4,0,0,1-1.93-1.14,3.42,3.42,0,0,1,.29-4.62A7.47,7.47,0,0,1,470.78,109Zm.07,1.42a7,7,0,0,0-3.66.82,1.85,1.85,0,0,0,.15,3.2,10.94,10.94,0,0,0,7.37-.34,1.93,1.93,0,0,0,.84-1.66,1.76,1.76,0,0,0-.88-1.48A7,7,0,0,0,470.85,110.41Z"/><path class="cls-6" d="M495.85,361h-1.39v-8.81a7.06,7.06,0,0,1-1.31.95,9.22,9.22,0,0,1-1.45.72v-1.34a8.26,8.26,0,0,0,2-1.32,5.34,5.34,0,0,0,1.23-1.51h.89Z"/><path class="cls-6" d="M506.56,352.45l-1.37.1a2.65,2.65,0,0,0-.53-1.18,1.83,1.83,0,0,0-1.38-.59,1.87,1.87,0,0,0-1.16.37,3.19,3.19,0,0,0-1,1.39,7.29,7.29,0,0,0-.39,2.6,3.2,3.2,0,0,1,1.22-1.13,3.37,3.37,0,0,1,1.51-.37,3.13,3.13,0,0,1,2.36,1,3.65,3.65,0,0,1,1,2.63,4.23,4.23,0,0,1-.46,2,3.34,3.34,0,0,1-1.25,1.4,3.46,3.46,0,0,1-1.82.48,3.51,3.51,0,0,1-2.81-1.27,6.4,6.4,0,0,1-1.09-4.19,7.55,7.55,0,0,1,1.2-4.75,3.47,3.47,0,0,1,2.84-1.29,3.15,3.15,0,0,1,2.17.75A3.11,3.11,0,0,1,506.56,352.45Zm-5.64,4.85a3.25,3.25,0,0,0,.3,1.37,2.24,2.24,0,0,0,.85,1,2.08,2.08,0,0,0,1.14.34,2,2,0,0,0,1.51-.7,2.78,2.78,0,0,0,.63-1.92,2.63,2.63,0,0,0-.62-1.84,2,2,0,0,0-1.57-.67,2.11,2.11,0,0,0-1.59.67A2.39,2.39,0,0,0,500.92,357.3Z"/><path class="cls-6" d="M508.91,361v-1.58h1.57V361Z"/><path class="cls-6" d="M512.5,358l1.46-.12a2.58,2.58,0,0,0,.74,1.59,2,2,0,0,0,1.42.53,2.2,2.2,0,0,0,1.69-.75,2.84,2.84,0,0,0,.69-2,2.56,2.56,0,0,0-.66-1.86,2.33,2.33,0,0,0-1.74-.69,2.45,2.45,0,0,0-1.21.31,2.26,2.26,0,0,0-.84.78l-1.3-.16,1.09-5.79h5.6v1.32H515l-.61,3a3.7,3.7,0,0,1,2.13-.71,3.39,3.39,0,0,1,2.49,1,3.61,3.61,0,0,1,1,2.63,4.11,4.11,0,0,1-.89,2.64,3.58,3.58,0,0,1-3,1.37,3.68,3.68,0,0,1-2.51-.86A3.41,3.41,0,0,1,512.5,358Z"/><path class="cls-6" d="M579.44,363.05a13.63,13.63,0,0,1-1.93-3.38,10.47,10.47,0,0,1-.8-4,10.26,10.26,0,0,1,.6-3.5,14.59,14.59,0,0,1,2.13-3.87h1a25.24,25.24,0,0,0-1.23,2.28,11.69,11.69,0,0,0-.73,2.21,12.88,12.88,0,0,0-.33,2.89,13.87,13.87,0,0,0,2.29,7.38Z"/><path class="cls-6" d="M588.92,358.41v1.33h-7.44a2.37,2.37,0,0,1,.16-1,5,5,0,0,1,.91-1.5,14.83,14.83,0,0,1,1.81-1.71,15.18,15.18,0,0,0,2.48-2.38,2.85,2.85,0,0,0,.64-1.66,1.83,1.83,0,0,0-.59-1.39,2.09,2.09,0,0,0-1.53-.56,2.13,2.13,0,0,0-1.59.6,2.22,2.22,0,0,0-.61,1.65l-1.42-.14a3.51,3.51,0,0,1,1.1-2.43,3.74,3.74,0,0,1,2.55-.83,3.58,3.58,0,0,1,2.57.9,3,3,0,0,1,.94,2.23,3.47,3.47,0,0,1-.27,1.33,5.3,5.3,0,0,1-.92,1.37,23.31,23.31,0,0,1-2.13,2c-.83.7-1.36,1.17-1.6,1.42a4.21,4.21,0,0,0-.58.75Z"/><path class="cls-6" d="M590.49,350v-1.33h7.29v1.08a15.52,15.52,0,0,0-2.13,3,18.76,18.76,0,0,0-1.63,3.9,14.52,14.52,0,0,0-.53,3.1h-1.42a13.57,13.57,0,0,1,.52-3.21A16.61,16.61,0,0,1,594,352.9a15.45,15.45,0,0,1,2-2.95Z"/><path class="cls-6" d="M599.93,359.74v-1.58h1.57v1.58Z"/><path class="cls-6" d="M603.61,350v-1.33h7.29v1.08a15.1,15.1,0,0,0-2.13,3,18.24,18.24,0,0,0-1.63,3.9,13.92,13.92,0,0,0-.53,3.1h-1.42a13.57,13.57,0,0,1,.52-3.21,16.61,16.61,0,0,1,1.43-3.63,15.45,15.45,0,0,1,2-2.95Z"/><path class="cls-6" d="M612.27,356.79l1.45-.12a2.65,2.65,0,0,0,.75,1.59,2,2,0,0,0,1.42.53,2.23,2.23,0,0,0,1.69-.75,2.84,2.84,0,0,0,.69-2,2.51,2.51,0,0,0-.67-1.86,2.3,2.3,0,0,0-1.74-.69,2.33,2.33,0,0,0-1.2.31,2.37,2.37,0,0,0-.85.78l-1.3-.17,1.09-5.78h5.6V350h-4.49l-.61,3a3.7,3.7,0,0,1,2.13-.71,3.37,3.37,0,0,1,2.49,1,3.56,3.56,0,0,1,1,2.63,4.05,4.05,0,0,1-.89,2.64,3.56,3.56,0,0,1-3,1.37,3.66,3.66,0,0,1-2.51-.86A3.32,3.32,0,0,1,612.27,356.79Z"/><path class="cls-6" d="M622.31,363.05h-1a13.87,13.87,0,0,0,2.29-7.38,12.64,12.64,0,0,0-.33-2.87,11.93,11.93,0,0,0-.73-2.21c-.2-.46-.61-1.23-1.23-2.3h1a14.59,14.59,0,0,1,2.13,3.87,10.25,10.25,0,0,1,.59,3.5,10.46,10.46,0,0,1-.79,4A14.29,14.29,0,0,1,622.31,363.05Z"/></g><g id="Watermark"><rect class="cls-2" x="438.45" y="642.83" width="123.09" height="46.3"/><rect class="cls-16" x="444.86" y="650.66" width="62.89" height="30.62"/><rect class="cls-16" x="507.75" y="650.66" width="47.39" height="30.62"/><path class="cls-17" d="M466.48,656.76l-2.79,18.92H461l-1.55-11-1.53,11h-2.74l-2.8-18.92h2.51l1.79,14.18,1.79-14.18h2l1.79,14.18L464,656.76Z"/><path class="cls-17" d="M467.93,675.68V656.76h2.53v18.92Z"/><path class="cls-17" d="M472.83,656.76h5q2.9,0,2.9,3.24v4.67c0,1.65-.51,2.69-1.51,3.13l1.77,7.88h-2.4L476.89,668h-1.53v7.64h-2.53Zm2.53,9.12H477c.76,0,1.14-.46,1.14-1.37v-4.08c0-.92-.38-1.37-1.14-1.37h-1.66Z"/><path class="cls-17" d="M486.82,659.06v16.62h-2.53V659.06h-2.42v-2.3h7.38v2.3Z"/><path class="cls-17" d="M496.34,675.68v-8.59h-3.11v8.59H490.7V656.76h2.53v8h3.11v-8h2.53v18.92Z"/><path class="cls-17" d="M516.31,656.76h5q2.9,0,2.89,3.24v4.67c0,1.65-.5,2.69-1.5,3.13l1.77,7.88H522L520.37,668h-1.53v7.64h-2.53Zm2.53,9.12h1.66c.76,0,1.13-.46,1.13-1.37v-4.08c0-.92-.37-1.37-1.13-1.37h-1.66Z"/><path class="cls-17" d="M528.67,675.68h-2.53V660q0-3.24,3-3.24h1.9q3,0,3,3.24v15.68h-2.53v-6.93h-2.9Zm2.9-9.22v-6.3a1,1,0,0,0-1.11-1.1h-.68a1,1,0,0,0-1.11,1.1v6.3Z"/><path class="cls-17" d="M536.34,675.68V656.76h2.53v18.92Z"/><path class="cls-17" d="M547.24,675.68h-6V656.76h2.53v16.63h3.47Z"/></g></svg>