<svg xmlns="http://www.w3.org/2000/svg" viewBox="0 0 1000 800"><defs><style>.cls-1,.cls-10,.cls-12,.cls-13,.cls-14,.cls-4,.cls-5,.cls-6,.cls-7,.cls-8,.cls-9{fill:none;stroke:#221e1f;}.cls-1,.cls-12,.cls-13,.cls-14,.cls-5,.cls-6,.cls-7{stroke-width:0.89px;}.cls-2{fill:#303030;}.cls-15,.cls-3{fill:#f0f0f0;}.cls-15,.cls-4,.cls-5{stroke-miterlimit:10;}.cls-10,.cls-4,.cls-9{stroke-width:0.79px;}.cls-6,.cls-8,.cls-9{stroke-linecap:round;stroke-linejoin:round;}.cls-7{stroke-miterlimit:1;}.cls-8{stroke-width:0.43px;}.cls-11{fill:#221e1f;}.cls-12{stroke-dasharray:18.92 5.77;}.cls-13{stroke-dasharray:18.98 5.83;}.cls-14{stroke-dasharray:18.85 5.7;}.cls-15{stroke:#ccc;}.cls-16{fill:#ccc;}</style></defs><g id="Flat"><line class="cls-1" x1="358.18" y1="595.91" x2="433.16" y2="595.91"/><path class="cls-2" d="M363,591.46h-1.12v-7.2a6.19,6.19,0,0,1-1.07.78,8,8,0,0,1-1.19.58v-1.09a6.92,6.92,0,0,0,1.65-1.08,4.15,4.15,0,0,0,1-1.23H363Z"/><path class="cls-2" d="M365.86,589l1.13-.15a2.48,2.48,0,0,0,.66,1.38,1.64,1.64,0,0,0,1.14.43,1.9,1.9,0,0,0,1.9-1.92,1.75,1.75,0,0,0-.51-1.29,1.78,1.78,0,0,0-1.29-.5,3.37,3.37,0,0,0-.8.12l.13-1,.18,0a2.36,2.36,0,0,0,1.3-.38,1.29,1.29,0,0,0,.57-1.16,1.36,1.36,0,0,0-.42-1,1.49,1.49,0,0,0-1.08-.41,1.56,1.56,0,0,0-1.1.41,2.11,2.11,0,0,0-.56,1.25l-1.13-.2a2.83,2.83,0,0,1,.94-1.76,2.7,2.7,0,0,1,1.82-.63,2.94,2.94,0,0,1,1.39.33,2.29,2.29,0,0,1,1.3,2.06,1.91,1.91,0,0,1-.32,1.09,2.23,2.23,0,0,1-.94.78,2.08,2.08,0,0,1,1.26.78,2.31,2.31,0,0,1,.46,1.48,2.74,2.74,0,0,1-.88,2,3.1,3.1,0,0,1-2.22.84,2.88,2.88,0,0,1-2-.72A2.78,2.78,0,0,1,365.86,589Z"/><path class="cls-2" d="M373.64,591.46v-1.29h1.28v1.29Z"/><path class="cls-2" d="M376.56,589.05l1.18-.1a2.13,2.13,0,0,0,.62,1.3,1.65,1.65,0,0,0,1.15.44,1.79,1.79,0,0,0,1.38-.62,2.3,2.3,0,0,0,.57-1.63,2.09,2.09,0,0,0-.54-1.52,1.89,1.89,0,0,0-1.43-.56,2,2,0,0,0-1,.24,2,2,0,0,0-.69.65l-1.06-.14.89-4.73h4.57v1.08h-3.67l-.49,2.48a3,3,0,0,1,1.74-.58,2.77,2.77,0,0,1,2,.83,3,3,0,0,1,.83,2.15,3.4,3.4,0,0,1-.73,2.16,3.22,3.22,0,0,1-4.46.41A2.72,2.72,0,0,1,376.56,589.05Z"/><path class="cls-3" d="M713,168.52a16.86,16.86,0,0,0-16.64-19.64H654.79a10.32,10.32,0,0,0-10.21,8.65l-15.18,91.1a44.42,44.42,0,0,1-87.62,0L527.51,163a33.14,33.14,0,0,0-29.79-27.57,734.83,734.83,0,0,0-138.65.9,16.82,16.82,0,0,0-15.16,16.78v47.49a49.56,49.56,0,0,0,39.75,48.49l47.74,9.55A32.09,32.09,0,0,1,457.13,290V636.71a31.92,31.92,0,0,1-28.82,31.85L192.76,692.11a10.31,10.31,0,0,0-9.31,10.3v7.44A10.35,10.35,0,0,0,193.8,720.2H760.71a10.35,10.35,0,0,0,10.35-10.35v-7.44a10.32,10.32,0,0,0-9.32-10.3L526.2,668.56a31.92,31.92,0,0,1-28.82-31.85V380.94a32.09,32.09,0,0,1,25.72-31.39L610.77,332a114.6,114.6,0,0,0,90.57-93.54Z"/><path class="cls-1" d="M713,168.52a16.86,16.86,0,0,0-16.64-19.64H654.79a10.32,10.32,0,0,0-10.21,8.65l-15.18,91.1a44.42,44.42,0,0,1-87.62,0L527.51,163a33.14,33.14,0,0,0-29.79-27.57,734.83,734.83,0,0,0-138.65.9,16.82,16.82,0,0,0-15.16,16.78v47.49a49.56,49.56,0,0,0,39.75,48.49l47.74,9.55A32.09,32.09,0,0,1,457.13,290V636.71a31.92,31.92,0,0,1-28.82,31.85L192.76,692.11a10.31,10.31,0,0,0-9.31,10.3v7.44A10.35,10.35,0,0,0,193.8,720.2H760.71a10.35,10.35,0,0,0,10.35-10.35v-7.44a10.32,10.32,0,0,0-9.32-10.3L526.2,668.56a31.92,31.92,0,0,1-28.82-31.85V380.94a32.09,32.09,0,0,1,25.72-31.39L610.77,332a114.6,114.6,0,0,0,90.57-93.54Z"/><path class="cls-2" d="M428,49.72l1.19-.1a2.12,2.12,0,0,0,.61,1.3,1.68,1.68,0,0,0,1.16.44,1.82,1.82,0,0,0,1.38-.62,2.34,2.34,0,0,0,.56-1.63,2.09,2.09,0,0,0-.54-1.52A1.91,1.91,0,0,0,430.9,47a2,2,0,0,0-1.68.89l-1.06-.14.89-4.72h4.58v1.08H430l-.5,2.47A3,3,0,0,1,431.2,46a2.74,2.74,0,0,1,2,.84,2.87,2.87,0,0,1,.83,2.14,3.34,3.34,0,0,1-.73,2.16,2.89,2.89,0,0,1-2.41,1.12,3,3,0,0,1-2.05-.7A2.77,2.77,0,0,1,428,49.72Z"/><path class="cls-2" d="M441,45.19l-1.12.08a2.15,2.15,0,0,0-.43-1,1.48,1.48,0,0,0-1.13-.49,1.56,1.56,0,0,0-1,.3,2.66,2.66,0,0,0-.84,1.14,6.11,6.11,0,0,0-.32,2.13,2.67,2.67,0,0,1,2.24-1.23,2.55,2.55,0,0,1,1.92.84,3,3,0,0,1,.79,2.14,3.5,3.5,0,0,1-.37,1.61,2.66,2.66,0,0,1-1,1.14,2.74,2.74,0,0,1-1.48.4,2.89,2.89,0,0,1-2.3-1,5.25,5.25,0,0,1-.89-3.42A6.19,6.19,0,0,1,436,44a2.86,2.86,0,0,1,2.32-1.05A2.45,2.45,0,0,1,441,45.19Zm-4.61,4a2.58,2.58,0,0,0,.25,1.12,1.83,1.83,0,0,0,.69.81,1.71,1.71,0,0,0,.93.28,1.57,1.57,0,0,0,1.23-.58,2.24,2.24,0,0,0,.52-1.57,2.13,2.13,0,0,0-.51-1.5,1.67,1.67,0,0,0-1.28-.55,1.74,1.74,0,0,0-1.3.55A2,2,0,0,0,436.36,49.15Z"/><path class="cls-2" d="M504.56,14.76h-1.13V7.57a5.1,5.1,0,0,1-1.07.77,7.6,7.6,0,0,1-1.18.59V7.84a6.92,6.92,0,0,0,1.65-1.08,4.45,4.45,0,0,0,1-1.23h.72Z"/><path class="cls-2" d="M510.76,14.76h-1.13V7.57a5.69,5.69,0,0,1-1.07.77,7.66,7.66,0,0,1-1.19.59V7.84A6.92,6.92,0,0,0,509,6.76a4.28,4.28,0,0,0,1-1.23h.73Z"/><path class="cls-2" d="M513.66,12.34l1.12-.16a2.52,2.52,0,0,0,.67,1.39,1.64,1.64,0,0,0,1.14.42,1.81,1.81,0,0,0,1.34-.55,1.85,1.85,0,0,0,.55-1.37,1.73,1.73,0,0,0-.51-1.28,1.75,1.75,0,0,0-1.29-.51,3.54,3.54,0,0,0-.8.13l.13-1h.18a2.36,2.36,0,0,0,1.3-.38,1.29,1.29,0,0,0,.58-1.16,1.4,1.4,0,0,0-.42-1,1.51,1.51,0,0,0-1.09-.4,1.53,1.53,0,0,0-1.1.41,2.08,2.08,0,0,0-.56,1.24l-1.13-.2a2.91,2.91,0,0,1,.94-1.76,2.76,2.76,0,0,1,1.83-.62,2.92,2.92,0,0,1,1.38.32,2.37,2.37,0,0,1,1,.88,2.31,2.31,0,0,1,.34,1.19A1.93,1.93,0,0,1,518.91,9a2.18,2.18,0,0,1-.95.78,2.2,2.2,0,0,1,1.27.78,2.4,2.4,0,0,1,.45,1.49,2.7,2.7,0,0,1-.88,2,3.1,3.1,0,0,1-2.22.84,2.84,2.84,0,0,1-2-.73A2.72,2.72,0,0,1,513.66,12.34Z"/><path class="cls-2" d="M526.84,17.47a11.18,11.18,0,0,1-1.58-2.76,8.45,8.45,0,0,1-.65-3.28,8.59,8.59,0,0,1,.48-2.86,12,12,0,0,1,1.75-3.16h.81c-.51.87-.84,1.49-1,1.86a11,11,0,0,0-.6,1.81,10.48,10.48,0,0,0-.27,2.36,11.35,11.35,0,0,0,1.88,6Z"/><path class="cls-2" d="M532.26,14.76v-2.2h-4v-1l4.2-6h.92v6h1.25v1h-1.25v2.2Zm0-3.23V7.38l-2.88,4.15Z"/><path class="cls-2" d="M537.06,14.76V13.48h1.29v1.28Z"/><path class="cls-2" d="M543.62,14.76v-2.2h-4v-1l4.2-6h.92v6H546v1h-1.24v2.2Zm0-3.23V7.38l-2.88,4.15Z"/><path class="cls-2" d="M550.77,14.76v-2.2h-4v-1l4.19-6h.93v6h1.24v1H551.9v2.2Zm0-3.23V7.38l-2.88,4.15Z"/><path class="cls-2" d="M554.46,12.64l1.09-.1a1.87,1.87,0,0,0,.53,1.11,1.42,1.42,0,0,0,1,.34,1.73,1.73,0,0,0,.92-.24,2,2,0,0,0,.64-.63,3.68,3.68,0,0,0,.42-1.08,5.79,5.79,0,0,0,.17-1.38,2.2,2.2,0,0,0,0-.23,2.51,2.51,0,0,1-.92.88,2.56,2.56,0,0,1-1.27.33,2.59,2.59,0,0,1-1.94-.82,3.08,3.08,0,0,1-.79-2.19,3.11,3.11,0,0,1,.83-2.25,2.75,2.75,0,0,1,2.07-.85,3,3,0,0,1,1.64.48A3,3,0,0,1,560,7.39a6.93,6.93,0,0,1,.38,2.59,8.47,8.47,0,0,1-.38,2.8,3.31,3.31,0,0,1-1.14,1.59,2.89,2.89,0,0,1-1.77.55,2.6,2.6,0,0,1-1.77-.6A2.64,2.64,0,0,1,554.46,12.64Zm4.63-4.06A2.25,2.25,0,0,0,558.57,7a1.63,1.63,0,0,0-1.25-.57,1.74,1.74,0,0,0-1.31.62,2.29,2.29,0,0,0-.56,1.59A2,2,0,0,0,556,10.1a1.78,1.78,0,0,0,1.31.55,1.68,1.68,0,0,0,1.29-.55A2.15,2.15,0,0,0,559.09,8.58Z"/><path class="cls-2" d="M561.81,8.82l-.31-1.75V5.57h1.28v1.5l-.28,1.75Zm2.08,0-.31-1.75V5.57h1.29v1.5l-.31,1.75Z"/><path class="cls-2" d="M567,17.47h-.81a11.35,11.35,0,0,0,1.88-6,10.25,10.25,0,0,0-.27-2.34,10.11,10.11,0,0,0-.6-1.81,20.23,20.23,0,0,0-1-1.88H567a11.69,11.69,0,0,1,1.74,3.16,8.35,8.35,0,0,1,.49,2.86,8.64,8.64,0,0,1-.65,3.28A11.85,11.85,0,0,1,567,17.47Z"/><path class="cls-2" d="M577.85,49.7l1.13-.15a2.55,2.55,0,0,0,.66,1.39,1.67,1.67,0,0,0,1.14.42,1.83,1.83,0,0,0,1.35-.55,1.9,1.9,0,0,0,.55-1.37,1.71,1.71,0,0,0-.51-1.28,1.75,1.75,0,0,0-1.29-.51,3,3,0,0,0-.8.13l.13-1h.18a2.36,2.36,0,0,0,1.3-.38,1.29,1.29,0,0,0,.57-1.16,1.38,1.38,0,0,0-.42-1,1.49,1.49,0,0,0-1.08-.41,1.52,1.52,0,0,0-1.1.42,2.05,2.05,0,0,0-.56,1.24l-1.13-.2a2.86,2.86,0,0,1,.94-1.76,2.68,2.68,0,0,1,1.82-.62,3,3,0,0,1,1.39.32,2.37,2.37,0,0,1,1,.88,2.3,2.3,0,0,1,.33,1.19,1.9,1.9,0,0,1-.32,1.08,2.15,2.15,0,0,1-.94.78,2.08,2.08,0,0,1,1.26.78,2.33,2.33,0,0,1,.46,1.48,2.75,2.75,0,0,1-.88,2.05,3.13,3.13,0,0,1-2.22.83,2.88,2.88,0,0,1-2-.72A2.78,2.78,0,0,1,577.85,49.7Z"/><path class="cls-2" d="M590.85,45.19l-1.12.08a2,2,0,0,0-.43-1,1.46,1.46,0,0,0-1.13-.49,1.53,1.53,0,0,0-.94.3,2.51,2.51,0,0,0-.84,1.14,5.68,5.68,0,0,0-.32,2.13,2.55,2.55,0,0,1,1-.92,2.62,2.62,0,0,1,1.24-.31,2.55,2.55,0,0,1,1.92.84,3,3,0,0,1,.8,2.14,3.5,3.5,0,0,1-.38,1.61,2.7,2.7,0,0,1-1,1.14,2.76,2.76,0,0,1-1.48.4,2.91,2.91,0,0,1-2.31-1,5.25,5.25,0,0,1-.89-3.42,6.12,6.12,0,0,1,1-3.88,2.82,2.82,0,0,1,2.31-1.05,2.45,2.45,0,0,1,2.61,2.29Zm-4.61,4a2.58,2.58,0,0,0,.25,1.12,1.9,1.9,0,0,0,.69.81,1.72,1.72,0,0,0,.94.28,1.6,1.6,0,0,0,1.23-.58,2.28,2.28,0,0,0,.51-1.57,2.13,2.13,0,0,0-.51-1.5,1.64,1.64,0,0,0-1.28-.55,1.74,1.74,0,0,0-1.3.55A2,2,0,0,0,586.24,49.15Z"/><path class="cls-2" d="M781.88,213.86h-2.2v4h-1l-6-4.2v-.92h6v-1.25h1v1.25h2.2Zm-3.24,0h-4.15l4.15,2.88Z"/><path class="cls-2" d="M773.88,210.25H772.8V204.3h.88a12.52,12.52,0,0,0,2.48,1.74,14.88,14.88,0,0,0,3.19,1.33,12,12,0,0,0,2.53.44V209a11.15,11.15,0,0,1-2.62-.43,13.49,13.49,0,0,1-3-1.17,13.29,13.29,0,0,1-2.41-1.62Z"/><path class="cls-2" d="M816.93,247.53l.09,1.12a2.14,2.14,0,0,0-1,.43,1.49,1.49,0,0,0-.48,1.13,1.58,1.58,0,0,0,.3.95A2.69,2.69,0,0,0,817,252a6.11,6.11,0,0,0,2.13.32,2.65,2.65,0,0,1-.92-1,2.7,2.7,0,0,1-.3-1.24,2.54,2.54,0,0,1,.83-1.92,3,3,0,0,1,2.15-.79,3.56,3.56,0,0,1,1.61.37,2.69,2.69,0,0,1,1.53,2.51,2.91,2.91,0,0,1-1,2.3,5.25,5.25,0,0,1-3.42.89,6.12,6.12,0,0,1-3.88-1,2.82,2.82,0,0,1-1.05-2.31,2.58,2.58,0,0,1,.61-1.78A2.56,2.56,0,0,1,816.93,247.53Zm4,4.61a2.58,2.58,0,0,0,1.12-.25,1.8,1.8,0,0,0,1.09-1.63,1.57,1.57,0,0,0-.58-1.22,2.21,2.21,0,0,0-1.56-.52,2.14,2.14,0,0,0-1.51.51,1.69,1.69,0,0,0-.55,1.28,1.78,1.78,0,0,0,.55,1.3A2,2,0,0,0,820.89,252.14Z"/><path class="cls-2" d="M821.75,246.07l-.1-1.08a1.87,1.87,0,0,0,1.11-.53,1.44,1.44,0,0,0,.34-1,1.72,1.72,0,0,0-.24-.91,1.93,1.93,0,0,0-.63-.64,3.68,3.68,0,0,0-1.08-.42,5.32,5.32,0,0,0-1.38-.17h-.23a2.62,2.62,0,0,1,.88.93,2.61,2.61,0,0,1-.49,3.2,3,3,0,0,1-2.19.79,3.1,3.1,0,0,1-2.25-.82,2.75,2.75,0,0,1-.85-2.07,3,3,0,0,1,1.86-2.77,6.7,6.7,0,0,1,2.59-.39,8.18,8.18,0,0,1,2.8.39,3.19,3.19,0,0,1,1.59,1.14,2.89,2.89,0,0,1,.55,1.77,2.43,2.43,0,0,1-2.28,2.58Zm-4.06-4.62a2.2,2.2,0,0,0-1.55.52,1.61,1.61,0,0,0-.57,1.24,1.72,1.72,0,0,0,.62,1.31,2.24,2.24,0,0,0,1.59.56,2,2,0,0,0,1.43-.53,1.77,1.77,0,0,0,.55-1.31,1.71,1.71,0,0,0-.55-1.29A2.19,2.19,0,0,0,817.69,241.45Z"/><path class="cls-2" d="M823.87,238.46h-1.28v-1.28h1.28Z"/><path class="cls-2" d="M819.34,235.53a8.52,8.52,0,0,1-2.63-.34,3.25,3.25,0,0,1-1.53-1,2.53,2.53,0,0,1-.54-1.66,2.68,2.68,0,0,1,.3-1.3,2.36,2.36,0,0,1,.86-.92,4.22,4.22,0,0,1,1.36-.57,9,9,0,0,1,2.18-.21,8.46,8.46,0,0,1,2.61.33,3.21,3.21,0,0,1,1.54,1,2.81,2.81,0,0,1-.41,3.76A6.13,6.13,0,0,1,819.34,235.53Zm0-1.16a5.78,5.78,0,0,0,3-.53,1.52,1.52,0,0,0,0-2.62,8.84,8.84,0,0,0-6,0,1.56,1.56,0,0,0-.75,1.32,1.44,1.44,0,0,0,.66,1.24A5.83,5.83,0,0,0,819.34,234.37Z"/><path class="cls-2" d="M821.47,228.4l-.1-1.19a2.15,2.15,0,0,0,1.3-.61,1.67,1.67,0,0,0,.43-1.16,1.81,1.81,0,0,0-.61-1.38,2.31,2.31,0,0,0-1.63-.56,2.12,2.12,0,0,0-1.53.54,1.91,1.91,0,0,0-.56,1.42,2.08,2.08,0,0,0,.25,1,2,2,0,0,0,.65.69l-.14,1.06-4.73-.89v-4.58h1.08v3.67l2.47.5a3,3,0,0,1-.57-1.74,2.77,2.77,0,0,1,.83-2,2.89,2.89,0,0,1,2.15-.83,3.34,3.34,0,0,1,2.16.73,2.91,2.91,0,0,1,1.11,2.41,3,3,0,0,1-.7,2.05A2.77,2.77,0,0,1,821.47,228.4Z"/><path class="cls-2" d="M680.11,175.32l-6.25-6.75,3-2.77a5.46,5.46,0,0,1,1.54-1.09,2.07,2.07,0,0,1,1.35-.05,2.63,2.63,0,0,1,1.22.76,2.31,2.31,0,0,1,.65,1.64,3.15,3.15,0,0,1-.86,2,3.41,3.41,0,0,1,.85-.17,6.18,6.18,0,0,1,1.58.22l2.87.75-1.12,1-2.2-.58a15,15,0,0,0-1.5-.33,3,3,0,0,0-.87,0,2,2,0,0,0-.58.2,3.21,3.21,0,0,0-.52.43l-1,1,2.77,3Zm-2.6-4.6,1.92-1.77a4.13,4.13,0,0,0,.85-1,1.4,1.4,0,0,0,.15-.89,1.52,1.52,0,0,0-.38-.77,1.42,1.42,0,0,0-1.08-.47,2.24,2.24,0,0,0-1.38.71l-2.14,2Z"/><path class="cls-2" d="M684.94,167.58l.8-.88a2.12,2.12,0,0,0,1.33.54,1.66,1.66,0,0,0,1.15-.46,1.82,1.82,0,0,0,.6-1.39,2.34,2.34,0,0,0-.7-1.58,2.06,2.06,0,0,0-1.43-.76,1.91,1.91,0,0,0-1.42.56,2,2,0,0,0-.56.85,2,2,0,0,0-.07.94l-.87.62L681.22,162l3.36-3.11.73.79-2.7,2.49,1.32,2.16a3,3,0,0,1,.88-1.61,2.8,2.8,0,0,1,2.06-.77,3,3,0,0,1,2.06,1,3.35,3.35,0,0,1,.94,2.08,3.24,3.24,0,0,1-3,3.33A2.7,2.7,0,0,1,684.94,167.58Z"/><path class="cls-2" d="M645.07,252.6l5.24-7.57,3.35,2.33a5.44,5.44,0,0,1,1.4,1.26,2.1,2.1,0,0,1,.34,1.31,2.6,2.6,0,0,1-.48,1.35,2.29,2.29,0,0,1-1.46,1,3.19,3.19,0,0,1-2.09-.41,2.92,2.92,0,0,1,.34.79,6.5,6.5,0,0,1,.14,1.58l-.11,3-1.26-.87.09-2.27a15,15,0,0,0,0-1.54,2.84,2.84,0,0,0-.15-.86,1.85,1.85,0,0,0-.32-.51,3.24,3.24,0,0,0-.53-.43l-1.16-.8-2.33,3.36Zm3.93-3.54,2.15,1.49a4.12,4.12,0,0,0,1.17.61,1.45,1.45,0,0,0,.9,0,1.55,1.55,0,0,0,.67-.54,1.33,1.33,0,0,0,.22-1.15,2.23,2.23,0,0,0-1-1.2l-2.39-1.66Z"/><path class="cls-2" d="M653.7,255.62l1,.51a2.45,2.45,0,0,0-.24,1.52,1.62,1.62,0,0,0,.69,1,1.85,1.85,0,0,0,1.42.31,1.91,1.91,0,0,0,1.23-.81,1.72,1.72,0,0,0-.46-2.5,3.11,3.11,0,0,0-.73-.35l.67-.74.14.11a2.37,2.37,0,0,0,1.29.43,1.29,1.29,0,0,0,1.13-.63,1.33,1.33,0,0,0,.24-1.08,1.45,1.45,0,0,0-.66-.95,1.54,1.54,0,0,0-1.14-.29,2.09,2.09,0,0,0-1.17.7l-.81-.81a2.93,2.93,0,0,1,1.77-.91,2.72,2.72,0,0,1,1.86.53,3.1,3.1,0,0,1,1,1.05,2.38,2.38,0,0,1,.29,1.28,2.31,2.31,0,0,1-.4,1.17,2,2,0,0,1-.88.71,2.24,2.24,0,0,1-1.22.1,2.18,2.18,0,0,1,.6,1.36,2.39,2.39,0,0,1-.48,1.48,2.71,2.71,0,0,1-1.88,1.18,3.14,3.14,0,0,1-2.31-.58,2.93,2.93,0,0,1-1.24-1.74A2.77,2.77,0,0,1,653.7,255.62Z"/><path class="cls-2" d="M659.53,259.68l1,.59a2.23,2.23,0,0,0-.24,1.42,1.7,1.7,0,0,0,.71,1,1.8,1.8,0,0,0,1.48.28,2.32,2.32,0,0,0,1.39-1,2.11,2.11,0,0,0,.43-1.56,1.89,1.89,0,0,0-.85-1.27,2,2,0,0,0-1.89-.22l-.79-.72,3.42-3.38,3.76,2.61-.61.88-3-2.09L662.53,258a3,3,0,0,1,1.76.52,2.77,2.77,0,0,1,1.2,1.84,3,3,0,0,1-.54,2.24,3.4,3.4,0,0,1-1.83,1.36,2.94,2.94,0,0,1-2.62-.46,3,3,0,0,1-1.29-1.74A2.78,2.78,0,0,1,659.53,259.68Z"/><path class="cls-2" d="M492.23,165.31l-1.48-9.07,4-.66a5.64,5.64,0,0,1,1.89-.06,2.12,2.12,0,0,1,1.15.7,2.59,2.59,0,0,1,.6,1.31,2.36,2.36,0,0,1-.36,1.73,3.25,3.25,0,0,1-1.8,1.16,3.11,3.11,0,0,1,.8.33,6.24,6.24,0,0,1,1.2,1l2,2.22-1.51.24-1.51-1.69c-.44-.49-.8-.86-1.07-1.11a3,3,0,0,0-.71-.51,2.23,2.23,0,0,0-.59-.15,4.55,4.55,0,0,0-.67.07l-1.4.23.66,4Zm.37-5.26,2.58-.43a3.77,3.77,0,0,0,1.26-.38,1.32,1.32,0,0,0,.62-.66,1.46,1.46,0,0,0,.11-.85,1.34,1.34,0,0,0-.64-1,2.18,2.18,0,0,0-1.54-.18l-2.88.47Z"/><path class="cls-2" d="M505.12,163.21l-1.12.18-1.16-7.1a5.82,5.82,0,0,1-.93.94,7.38,7.38,0,0,1-1.08.77l-.17-1.08a7.21,7.21,0,0,0,1.46-1.33,4.23,4.23,0,0,0,.79-1.38l.72-.12Z"/><path class="cls-2" d="M507.24,158.27a8.46,8.46,0,0,1-.1-2.65,3.34,3.34,0,0,1,.74-1.67,2.51,2.51,0,0,1,1.56-.8,2.79,2.79,0,0,1,1.33.08,2.53,2.53,0,0,1,1.05.7,4.51,4.51,0,0,1,.78,1.26,8.86,8.86,0,0,1,.56,2.11,8.6,8.6,0,0,1,.09,2.63,3.32,3.32,0,0,1-.73,1.68,2.57,2.57,0,0,1-1.57.81,2.51,2.51,0,0,1-2.21-.61A6.09,6.09,0,0,1,507.24,158.27Zm1.14-.19a5.84,5.84,0,0,0,1,2.89,1.56,1.56,0,0,0,1.41.53,1.53,1.53,0,0,0,1.17-.95,5.78,5.78,0,0,0,0-3.06,5.66,5.66,0,0,0-1-2.89,1.57,1.57,0,0,0-1.42-.53,1.46,1.46,0,0,0-1.12.85A5.8,5.8,0,0,0,508.38,158.08Z"/><path class="cls-4" d="M477.25,664.24l-49.07,4.27m97.89,0-48.82-4.27"/><path class="cls-2" d="M296.21,676.6l-1.13.12-.71-7.17a5.91,5.91,0,0,1-1,.88,6.83,6.83,0,0,1-1.12.7l-.11-1.08a6.81,6.81,0,0,0,1.54-1.24,4.07,4.07,0,0,0,.87-1.33l.73-.07Z"/><path class="cls-2" d="M299.18,670.9l-.13-1.28,1.28-.12.12,1.28Zm.53,5.35-.13-1.28,1.28-.12.13,1.28Z"/><path class="cls-2" d="M306.87,675.54l-1.12.11-.72-7.16a5.57,5.57,0,0,1-1,.88,7.92,7.92,0,0,1-1.12.7l-.11-1.09a6.81,6.81,0,0,0,1.54-1.24,4.26,4.26,0,0,0,.88-1.32l.72-.07Z"/><path class="cls-2" d="M309.3,670.73a8.24,8.24,0,0,1,.07-2.64,3.33,3.33,0,0,1,.84-1.63,2.57,2.57,0,0,1,1.6-.7,2.73,2.73,0,0,1,1.33.17,2.45,2.45,0,0,1,1,.76,4.56,4.56,0,0,1,.7,1.3,9.18,9.18,0,0,1,.43,2.15,8.44,8.44,0,0,1-.08,2.63,3.24,3.24,0,0,1-.83,1.63,2.58,2.58,0,0,1-1.61.71,2.52,2.52,0,0,1-2.18-.75A6,6,0,0,1,309.3,670.73Zm1.15-.11a5.82,5.82,0,0,0,.83,3,1.57,1.57,0,0,0,1.38.61,1.54,1.54,0,0,0,1.22-.88,8.8,8.8,0,0,0-.6-6,1.57,1.57,0,0,0-1.39-.61,1.46,1.46,0,0,0-1.17.78A5.87,5.87,0,0,0,310.45,670.62Z"/><path class="cls-2" d="M642.51,673.73l-1.12-.11.71-7.17a5.92,5.92,0,0,1-1.14.67,6.94,6.94,0,0,1-1.24.46l.11-1.08a7.06,7.06,0,0,0,1.75-.91,4.1,4.1,0,0,0,1.12-1.13l.73.08Z"/><path class="cls-2" d="M646,674.08l.13-1.28,1.28.13-.13,1.28Zm.54-5.35.12-1.28,1.28.12-.13,1.28Z"/><path class="cls-2" d="M653.17,674.79l-1.12-.11.71-7.16a5.82,5.82,0,0,1-1.14.67,7.47,7.47,0,0,1-1.24.46l.11-1.09a6.45,6.45,0,0,0,1.75-.91,4.14,4.14,0,0,0,1.13-1.12l.72.07Z"/><path class="cls-2" d="M656.5,670.57a8.46,8.46,0,0,1,.6-2.58,3.33,3.33,0,0,1,1.14-1.43,2.56,2.56,0,0,1,1.71-.37,2.74,2.74,0,0,1,1.27.43,2.52,2.52,0,0,1,.83.94,4.65,4.65,0,0,1,.43,1.42,9.38,9.38,0,0,1,0,2.19,8.34,8.34,0,0,1-.59,2.56,3.27,3.27,0,0,1-1.14,1.43,2.58,2.58,0,0,1-1.72.38,2.55,2.55,0,0,1-2-1.16A6.12,6.12,0,0,1,656.5,670.57Zm1.16.11a5.84,5.84,0,0,0,.22,3.06,1.57,1.57,0,0,0,1.23.87,1.53,1.53,0,0,0,1.38-.62,8.95,8.95,0,0,0,.6-6,1.58,1.58,0,0,0-1.24-.87,1.46,1.46,0,0,0-1.3.53A5.77,5.77,0,0,0,657.66,670.68Z"/><path class="cls-2" d="M410.33,249.5l-1.11-.22,1.41-7.05a6.17,6.17,0,0,1-1.2.55,7.46,7.46,0,0,1-1.28.34l.21-1.07a7,7,0,0,0,1.84-.74,4.18,4.18,0,0,0,1.23-1l.71.15Z"/><path class="cls-2" d="M413.78,250.19l.25-1.26,1.26.25-.25,1.26Zm1.06-5.27.25-1.26,1.26.25-.25,1.26Z"/><path class="cls-2" d="M417.14,248.41l1.18.13a2.09,2.09,0,0,0,.35,1.4,1.58,1.58,0,0,0,1.05.65,1.78,1.78,0,0,0,1.47-.33,2.29,2.29,0,0,0,.87-1.49,2.09,2.09,0,0,0-.23-1.6,1.89,1.89,0,0,0-1.28-.82,2,2,0,0,0-1,0,1.88,1.88,0,0,0-.8.5l-1-.34,1.8-4.46,4.48.9-.21,1-3.6-.72-1,2.33a3,3,0,0,1,1.82-.22,2.74,2.74,0,0,1,1.83,1.21,2.94,2.94,0,0,1,.39,2.27,3.29,3.29,0,0,1-1.14,2,2.9,2.9,0,0,1-2.59.62,2.93,2.93,0,0,1-1.87-1.09A2.75,2.75,0,0,1,417.14,248.41Z"/><path class="cls-2" d="M537.4,206.3l-.18-1.11,7.09-1.19a5.72,5.72,0,0,1-.94-.92,8,8,0,0,1-.77-1.08l1.08-.18a6.7,6.7,0,0,0,1.33,1.46,4.53,4.53,0,0,0,1.38.79l.12.71Z"/><path class="cls-2" d="M538,209.78l1.26-.22.21,1.27-1.26.21Zm5.3-.89,1.27-.21.21,1.27-1.27.21Z"/><path class="cls-2" d="M546.26,217.32l-.27-1.09a2.19,2.19,0,0,0,.88-.58,1.48,1.48,0,0,0,.29-1.2,1.56,1.56,0,0,0-.45-.88,2.53,2.53,0,0,0-1.26-.65,6.28,6.28,0,0,0-2.15,0,2.68,2.68,0,0,1,1.08.83,2.76,2.76,0,0,1,.5,1.17,2.57,2.57,0,0,1-.51,2,2.94,2.94,0,0,1-2,1.14,3.53,3.53,0,0,1-1.65-.1,2.73,2.73,0,0,1-1.29-.83,2.78,2.78,0,0,1-.63-1.39,2.91,2.91,0,0,1,.64-2.45,5.33,5.33,0,0,1,3.23-1.44,6.11,6.11,0,0,1,4,.34,2.82,2.82,0,0,1,1.42,2.11,2.47,2.47,0,0,1-1.83,2.95Zm-4.67-3.9a2.73,2.73,0,0,0-1.06.43,1.87,1.87,0,0,0-.69.82,1.8,1.8,0,0,0-.12,1,1.59,1.59,0,0,0,.77,1.11,2.26,2.26,0,0,0,1.64.25,2.1,2.1,0,0,0,1.39-.74,1.65,1.65,0,0,0,.33-1.36,1.73,1.73,0,0,0-.75-1.19A2,2,0,0,0,541.59,213.42Z"/><path class="cls-2" d="M631.2,213.24l-.18,1.11-7.1-1.18a6.15,6.15,0,0,1,.59,1.18,7.9,7.9,0,0,1,.38,1.27l-1.08-.18a6.75,6.75,0,0,0-.79-1.81,4.19,4.19,0,0,0-1-1.19l.12-.72Z"/><path class="cls-2" d="M626.46,208.88l-1.27-.21.22-1.27,1.27.21Zm5.31.89-1.27-.22.21-1.26,1.27.21Z"/><path class="cls-2" d="M626.36,199.94l-.1,1.12a2.29,2.29,0,0,0-1,.26,1.49,1.49,0,0,0-.66,1,1.56,1.56,0,0,0,.14,1,2.64,2.64,0,0,0,1,1,6.07,6.07,0,0,0,2,.66,2.58,2.58,0,0,1-.75-1.13,2.75,2.75,0,0,1-.09-1.27,2.56,2.56,0,0,1,1.13-1.76,3,3,0,0,1,2.26-.43,3.59,3.59,0,0,1,1.52.63,2.76,2.76,0,0,1,1,1.2,3.06,3.06,0,0,1-1.26,3.63,5.21,5.21,0,0,1-3.52.31,6.08,6.08,0,0,1-3.67-1.61,2.84,2.84,0,0,1-.66-2.45,2.59,2.59,0,0,1,.9-1.66A2.54,2.54,0,0,1,626.36,199.94Zm3.16,5.2a2.75,2.75,0,0,0,1.14-.06,1.8,1.8,0,0,0,.91-.55,1.62,1.62,0,0,0,.43-.88,1.61,1.61,0,0,0-.36-1.31,2.32,2.32,0,0,0-1.47-.76,2.15,2.15,0,0,0-1.56.25,1.71,1.71,0,0,0-.76,1.18,1.77,1.77,0,0,0,.33,1.37A2,2,0,0,0,629.52,205.14Z"/><path class="cls-2" d="M562.44,334.72l-1.11.22-1.41-7.06a5.24,5.24,0,0,1-.9,1,7,7,0,0,1-1,.8l-.21-1.07a6.85,6.85,0,0,0,1.41-1.38,4.19,4.19,0,0,0,.74-1.41l.72-.14Z"/><path class="cls-2" d="M564.84,328.76l-.26-1.26,1.27-.26.25,1.27Zm1,5.27-.25-1.26,1.26-.25.25,1.26Z"/><path class="cls-2" d="M568.31,331.09l1.14-.33a2.06,2.06,0,0,0,.86,1.15,1.61,1.61,0,0,0,1.22.21,1.81,1.81,0,0,0,1.23-.88,2.32,2.32,0,0,0,.23-1.71,2.08,2.08,0,0,0-.83-1.39,1.93,1.93,0,0,0-1.5-.27,2.08,2.08,0,0,0-.92.44,2,2,0,0,0-.55.77l-1.07.07,0-4.81,4.49-.9.21,1.06-3.6.72v2.52a3,3,0,0,1,1.59-.9,2.71,2.71,0,0,1,2.15.42,2.86,2.86,0,0,1,1.24,1.94,3.42,3.42,0,0,1-.29,2.26,2.93,2.93,0,0,1-2.15,1.57,3,3,0,0,1-2.15-.29A2.74,2.74,0,0,1,568.31,331.09Z"/><path class="cls-2" d="M699.17,225.6l-.19,1.11-7.1-1.18a5.88,5.88,0,0,1,.59,1.18,7,7,0,0,1,.38,1.27l-1.07-.18A6.91,6.91,0,0,0,691,226a4.18,4.18,0,0,0-1.05-1.19l.12-.72Z"/><path class="cls-2" d="M694.43,221.24l-1.27-.21.21-1.27,1.27.21Zm5.3.89-1.27-.22.21-1.27,1.27.22Z"/><path class="cls-2" d="M694.33,212.3l-.1,1.12a2.29,2.29,0,0,0-1,.26,1.6,1.6,0,0,0-.52,2,2.57,2.57,0,0,0,1,1,6.07,6.07,0,0,0,2.05.66,2.5,2.5,0,0,1-.75-1.13,2.75,2.75,0,0,1-.09-1.27,2.56,2.56,0,0,1,1.13-1.76,3,3,0,0,1,2.25-.43,3.58,3.58,0,0,1,1.53.63,2.74,2.74,0,0,1,1,1.2,2.8,2.8,0,0,1,.15,1.53,2.9,2.9,0,0,1-1.4,2.1,5.23,5.23,0,0,1-3.53.31A6.07,6.07,0,0,1,692.3,217a2.82,2.82,0,0,1-.66-2.45,2.63,2.63,0,0,1,.89-1.66A2.58,2.58,0,0,1,694.33,212.3Zm3.15,5.2a2.79,2.79,0,0,0,1.15-.06,1.84,1.84,0,0,0,.91-.55A1.7,1.7,0,0,0,700,216a1.55,1.55,0,0,0-.37-1.3,2.23,2.23,0,0,0-1.46-.77,2.13,2.13,0,0,0-1.57.25,1.73,1.73,0,0,0-.75,1.18,1.77,1.77,0,0,0,.33,1.37A2,2,0,0,0,697.48,217.5Z"/><path class="cls-2" d="M537.43,379.68l5.42-7.43,3.29,2.4a5.42,5.42,0,0,1,1.37,1.31,2,2,0,0,1,.31,1.31,2.58,2.58,0,0,1-.51,1.34,2.29,2.29,0,0,1-1.48,1,3.25,3.25,0,0,1-2.09-.46,2.81,2.81,0,0,1,.32.8,6.12,6.12,0,0,1,.1,1.58l-.19,3-1.23-.9.14-2.27c0-.65,0-1.17,0-1.54a2.6,2.6,0,0,0-.14-.86,1.83,1.83,0,0,0-.3-.53,4.47,4.47,0,0,0-.52-.43l-1.14-.83-2.41,3.3Zm4-3.43,2.11,1.54a3.86,3.86,0,0,0,1.16.63,1.45,1.45,0,0,0,.9,0,1.57,1.57,0,0,0,.69-.53,1.38,1.38,0,0,0,.25-1.14,2.22,2.22,0,0,0-1-1.22l-2.36-1.72Z"/><path class="cls-2" d="M548,387.38l-.91-.66,4.24-5.82a5.79,5.79,0,0,1-1.32,0,6.79,6.79,0,0,1-1.3-.23l.64-.88a7,7,0,0,0,2,.11,4.24,4.24,0,0,0,1.53-.41l.59.43Z"/><path class="cls-2" d="M553,385.43a8.59,8.59,0,0,1,1.82-1.93,3.28,3.28,0,0,1,1.71-.65,2.51,2.51,0,0,1,1.66.55,2.79,2.79,0,0,1,.88,1,2.44,2.44,0,0,1,.23,1.23,4.66,4.66,0,0,1-.34,1.45,9.2,9.2,0,0,1-1.12,1.87,8.28,8.28,0,0,1-1.81,1.92,3.28,3.28,0,0,1-1.71.65,2.77,2.77,0,0,1-2.79-2.55A6,6,0,0,1,553,385.43Zm.94.68a5.8,5.8,0,0,0-1.35,2.75,1.51,1.51,0,0,0,2.11,1.54,8.93,8.93,0,0,0,3.56-4.87,1.56,1.56,0,0,0-.63-1.38,1.41,1.41,0,0,0-1.39-.2A5.75,5.75,0,0,0,553.93,386.11Z"/><path class="cls-2" d="M648.49,175.15l6.33-6.68,3,2.81a5.42,5.42,0,0,1,1.19,1.46,2.11,2.11,0,0,1,.14,1.34,2.55,2.55,0,0,1-.68,1.27,2.32,2.32,0,0,1-1.59.77,3.24,3.24,0,0,1-2-.73,3.08,3.08,0,0,1,.22.84,6.28,6.28,0,0,1-.11,1.58l-.56,2.92-1.11-1.06.43-2.22c.12-.65.2-1.16.23-1.53a2.66,2.66,0,0,0,0-.87,1.67,1.67,0,0,0-.24-.56,4.12,4.12,0,0,0-.46-.5l-1-1-2.81,3Zm4.42-2.89,1.9,1.8a4,4,0,0,0,1.07.77,1.41,1.41,0,0,0,.9.09,1.43,1.43,0,0,0,.74-.43,1.38,1.38,0,0,0,.4-1.1,2.28,2.28,0,0,0-.8-1.34l-2.11-2Z"/><path class="cls-2" d="M656.56,179.44l.92.67a2.48,2.48,0,0,0-.47,1.46,1.64,1.64,0,0,0,.53,1.09,1.84,1.84,0,0,0,1.36.53,1.88,1.88,0,0,0,1.34-.62,1.68,1.68,0,0,0,.51-1.28,1.71,1.71,0,0,0-.59-1.25,3,3,0,0,0-.66-.46l.77-.63.12.13a2.31,2.31,0,0,0,1.21.62,1.29,1.29,0,0,0,1.21-.45,1.37,1.37,0,0,0,.41-1,1.67,1.67,0,0,0-1.59-1.5,2.12,2.12,0,0,0-1.27.51l-.68-.92a3,3,0,0,1,1.89-.63,2.75,2.75,0,0,1,1.76.8,3.16,3.16,0,0,1,.78,1.19,2.37,2.37,0,0,1,.1,1.31,2.21,2.21,0,0,1-.57,1.09,2,2,0,0,1-1,.57,2.16,2.16,0,0,1-1.22-.09,2.16,2.16,0,0,1,.38,1.44,2.42,2.42,0,0,1-.69,1.39,2.78,2.78,0,0,1-2,.88,3.1,3.1,0,0,1-2.18-.92,2.91,2.91,0,0,1-1-1.91A2.8,2.8,0,0,1,656.56,179.44Z"/><path class="cls-2" d="M317.49,89l7.36-5.52,2.44,3.26a5.5,5.5,0,0,1,.93,1.65,2.07,2.07,0,0,1-.09,1.34,2.71,2.71,0,0,1-.88,1.14,2.31,2.31,0,0,1-1.7.48,3.24,3.24,0,0,1-1.86-1,3.14,3.14,0,0,1,.08.86,6.06,6.06,0,0,1-.38,1.54l-1,2.78-.92-1.22.8-2.12c.23-.62.39-1.11.49-1.47a2.53,2.53,0,0,0,.12-.86,1.6,1.6,0,0,0-.14-.59,3.4,3.4,0,0,0-.37-.57l-.84-1.13L318.22,90Zm4.84-2.11L323.9,89a3.73,3.73,0,0,0,.92.94,1.41,1.41,0,0,0,.87.24,1.49,1.49,0,0,0,.81-.3,1.34,1.34,0,0,0,.57-1,2.19,2.19,0,0,0-.56-1.45l-1.75-2.33Z"/><path class="cls-2" d="M324.7,94.63l.79.89a2.14,2.14,0,0,0-.68,1.27,1.68,1.68,0,0,0,.35,1.19,1.77,1.77,0,0,0,1.32.73,2.31,2.31,0,0,0,1.64-.52,2.1,2.1,0,0,0,.9-1.35,1.88,1.88,0,0,0-.41-1.47,1.86,1.86,0,0,0-.79-.64,1.92,1.92,0,0,0-.93-.17l-.52-.93,4.31-2.12,2.75,3.66-.87.64-2.2-2.93L328.09,94a2.94,2.94,0,0,1,1.5,1.05,2.72,2.72,0,0,1,.55,2.12,2.92,2.92,0,0,1-1.22,2,3.4,3.4,0,0,1-2.16.71,3.26,3.26,0,0,1-3-3.33A2.75,2.75,0,0,1,324.7,94.63Z"/><path class="cls-2" d="M403.73,302.57,398,295.38l3.19-2.54a5.34,5.34,0,0,1,1.61-1,2.09,2.09,0,0,1,1.35,0,2.57,2.57,0,0,1,1.16.85,2.31,2.31,0,0,1,.54,1.69,3.23,3.23,0,0,1-1,1.88,2.87,2.87,0,0,1,.86-.09,6.37,6.37,0,0,1,1.56.32l2.81,1-1.2,1-2.14-.74c-.63-.21-1.12-.36-1.48-.45a3,3,0,0,0-.87-.09,1.77,1.77,0,0,0-.58.15,4.23,4.23,0,0,0-.56.39l-1.11.88,2.55,3.2Zm-2.25-4.77,2-1.63a4.18,4.18,0,0,0,.92-.95,1.42,1.42,0,0,0,.21-.88,1.48,1.48,0,0,0-.32-.8,1.36,1.36,0,0,0-1-.54,2.24,2.24,0,0,0-1.43.6l-2.28,1.82Z"/><path class="cls-2" d="M414,294.44l-.88.7-4.49-5.63a5.33,5.33,0,0,1-.35,1.27,7.58,7.58,0,0,1-.56,1.2l-.68-.85a6.91,6.91,0,0,0,.62-1.88,4.27,4.27,0,0,0,0-1.59l.57-.45Z"/><path class="cls-2" d="M413.4,289.08a8.56,8.56,0,0,1-1.38-2.26,3.37,3.37,0,0,1-.17-1.83,2.58,2.58,0,0,1,1-1.46A2.74,2.74,0,0,1,414,283a2.34,2.34,0,0,1,1.25.1,4.53,4.53,0,0,1,1.3.71,8.84,8.84,0,0,1,1.52,1.57,8.73,8.73,0,0,1,1.37,2.25,3.29,3.29,0,0,1,.18,1.83,2.6,2.6,0,0,1-1,1.46,2.55,2.55,0,0,1-2.23.56A6,6,0,0,1,413.4,289.08Zm.91-.72a5.71,5.71,0,0,0,2.29,2,1.51,1.51,0,0,0,2-1.63,5.65,5.65,0,0,0-1.46-2.68,5.79,5.79,0,0,0-2.29-2,1.59,1.59,0,0,0-1.5.24,1.45,1.45,0,0,0-.56,1.29A5.77,5.77,0,0,0,414.31,288.36Z"/><line class="cls-4" x1="433.27" y1="133.16" x2="256.03" y2="133.16"/><line class="cls-4" x1="477.25" y1="267.23" x2="256.03" y2="267.23"/><path class="cls-2" d="M259.16,214.67H257v4h-1l-6-4.2v-.92h6V212.3h1v1.24h2.2Zm-3.23,0h-4.15l4.15,2.88Z"/><path class="cls-2" d="M259.16,206.89V208H252a5.82,5.82,0,0,1,.77,1.07,7.66,7.66,0,0,1,.59,1.19h-1.09a7,7,0,0,0-1.08-1.66,4.36,4.36,0,0,0-1.23-1v-.73Z"/><path class="cls-2" d="M259.16,203.36h-1.28v-1.28h1.28Z"/><path class="cls-2" d="M259.16,196.17v1.13H252a5.82,5.82,0,0,1,.77,1.07,7.66,7.66,0,0,1,.59,1.19h-1.09a7.2,7.2,0,0,0-1.08-1.66,4.54,4.54,0,0,0-1.23-1v-.73Z"/><path class="cls-2" d="M256.75,193.28l-.1-1.19a2.07,2.07,0,0,0,1.3-.61,1.62,1.62,0,0,0,.44-1.16,1.81,1.81,0,0,0-.61-1.38,2.36,2.36,0,0,0-1.64-.56,2.09,2.09,0,0,0-1.52.54,2.08,2.08,0,0,0-.31,2.41,1.93,1.93,0,0,0,.64.69l-.14,1.06-4.72-.89v-4.58h1.08v3.67l2.47.5a3,3,0,0,1-.58-1.74,2.74,2.74,0,0,1,.84-2,2.91,2.91,0,0,1,2.14-.83,3.3,3.3,0,0,1,2.16.73,2.89,2.89,0,0,1,1.12,2.41,3,3,0,0,1-.7,2.05A2.77,2.77,0,0,1,256.75,193.28Z"/><line class="cls-5" x1="433.27" y1="133.16" x2="760.98" y2="133.16"/><line class="cls-5" x1="433.27" y1="133.16" x2="760.98" y2="133.16"/><path class="cls-2" d="M747.51,144.9l-.1-1.19a2.12,2.12,0,0,0,1.3-.61,1.63,1.63,0,0,0,.44-1.16,1.81,1.81,0,0,0-.61-1.38,2.32,2.32,0,0,0-1.64-.56,2.09,2.09,0,0,0-1.52.54,1.89,1.89,0,0,0-.56,1.42,2,2,0,0,0,.25,1,1.93,1.93,0,0,0,.64.69l-.14,1.06-4.72-.9v-4.57h1.08v3.67l2.47.5a3,3,0,0,1-.58-1.74,2.74,2.74,0,0,1,.84-2,2.87,2.87,0,0,1,2.14-.83,3.3,3.3,0,0,1,2.16.73,2.89,2.89,0,0,1,1.12,2.41,3,3,0,0,1-.7,2.05A2.77,2.77,0,0,1,747.51,144.9Z"/><path class="cls-5" d="M437,133.16H870.74m-433.72,0H870.74m-437.47,0H794m-360.68,0H794"/><path class="cls-2" d="M122.73,586.69l-.1-1.08a1.93,1.93,0,0,0,1.11-.53,1.44,1.44,0,0,0,.34-1,1.78,1.78,0,0,0-.23-.91,2.09,2.09,0,0,0-.64-.65,4.34,4.34,0,0,0-1.08-.42,5.79,5.79,0,0,0-1.38-.17h-.22a2.59,2.59,0,0,1,.87.93,2.54,2.54,0,0,1,.34,1.27,2.58,2.58,0,0,1-.83,1.93,3,3,0,0,1-2.18.79,3.11,3.11,0,0,1-2.26-.82,2.75,2.75,0,0,1-.85-2.07,2.94,2.94,0,0,1,.48-1.64,3,3,0,0,1,1.38-1.13,6.74,6.74,0,0,1,2.59-.39,8.57,8.57,0,0,1,2.81.38,3.41,3.41,0,0,1,1.59,1.14,3,3,0,0,1,.54,1.78,2.57,2.57,0,0,1-.6,1.76A2.55,2.55,0,0,1,122.73,586.69Zm-4.06-4.62a2.26,2.26,0,0,0-1.55.51,1.63,1.63,0,0,0-.57,1.25,1.72,1.72,0,0,0,.62,1.31,2.29,2.29,0,0,0,1.59.56,2,2,0,0,0,1.43-.53,1.73,1.73,0,0,0,.55-1.31,1.67,1.67,0,0,0-.55-1.29A2.19,2.19,0,0,0,118.67,582.07Z"/><path class="cls-2" d="M124.85,576.09h-2.2v4h-1l-6-4.19V575h6v-1.24h1V575h2.2Zm-3.23,0h-4.15l4.15,2.88Z"/><path class="cls-2" d="M124.85,571.93h-1.28v-1.28h1.28Z"/><path class="cls-2" d="M122.43,569l-.15-1.13a2.48,2.48,0,0,0,1.38-.66,1.64,1.64,0,0,0,.42-1.14,1.8,1.8,0,0,0-.55-1.34,1.85,1.85,0,0,0-1.37-.55,1.71,1.71,0,0,0-1.78,1.8,3.3,3.3,0,0,0,.12.79l-1-.12a1.36,1.36,0,0,0,0-.18,2.23,2.23,0,0,0-.38-1.3,1.27,1.27,0,0,0-1.16-.58,1.36,1.36,0,0,0-1,.42,1.46,1.46,0,0,0-.41,1.09,1.55,1.55,0,0,0,.41,1.09,2,2,0,0,0,1.24.57l-.2,1.13a2.94,2.94,0,0,1-1.76-.94,2.76,2.76,0,0,1-.62-1.83,3.12,3.12,0,0,1,.32-1.39,2.35,2.35,0,0,1,.88-1,2.24,2.24,0,0,1,1.19-.34,2,2,0,0,1,1.09.32,2.18,2.18,0,0,1,.77,1,2.16,2.16,0,0,1,.78-1.27,2.4,2.4,0,0,1,1.49-.45,2.7,2.7,0,0,1,2,.88,3.06,3.06,0,0,1,.84,2.22,2.92,2.92,0,0,1-.72,2A2.79,2.79,0,0,1,122.43,569Z"/><path class="cls-2" d="M124.85,558.25h-2.2v4h-1l-6-4.2v-.92h6v-1.24h1v1.24h2.2Zm-3.23,0h-4.15l4.15,2.88Z"/><path class="cls-2" d="M489.39,90.47h-1.13v-7.2a5.82,5.82,0,0,1-1.07.78,7.51,7.51,0,0,1-1.19.58V83.54a7.2,7.2,0,0,0,1.66-1.08,4.26,4.26,0,0,0,1-1.23h.73Z"/><path class="cls-2" d="M492.28,88.06l1.19-.1a2.1,2.1,0,0,0,.61,1.3,1.64,1.64,0,0,0,1.15.43,1.81,1.81,0,0,0,1.39-.61,2.34,2.34,0,0,0,.56-1.63,2.12,2.12,0,0,0-.54-1.53,1.9,1.9,0,0,0-1.42-.55,2,2,0,0,0-1,.24,2,2,0,0,0-.69.65l-1.06-.14.89-4.73H498v1.08h-3.68L493.78,85a3,3,0,0,1,1.74-.58,2.77,2.77,0,0,1,2,.83,2.93,2.93,0,0,1,.83,2.15,3.34,3.34,0,0,1-.73,2.16,2.92,2.92,0,0,1-2.42,1.11,3,3,0,0,1-2-.7A2.72,2.72,0,0,1,492.28,88.06Z"/><path class="cls-2" d="M500.06,90.47V89.18h1.29v1.29Z"/><path class="cls-2" d="M508.93,89.38v1.09h-6.08a2.08,2.08,0,0,1,.13-.79,4.33,4.33,0,0,1,.75-1.22,10.9,10.9,0,0,1,1.48-1.39,12.73,12.73,0,0,0,2-1.95,2.35,2.35,0,0,0,.53-1.36,1.49,1.49,0,0,0-.48-1.13,1.72,1.72,0,0,0-1.25-.46,1.79,1.79,0,0,0-1.31.48,1.87,1.87,0,0,0-.49,1.36l-1.16-.12a2.81,2.81,0,0,1,.89-2,3.09,3.09,0,0,1,2.09-.68,3,3,0,0,1,2.1.73,2.43,2.43,0,0,1,.77,1.82,2.81,2.81,0,0,1-.23,1.09,4.06,4.06,0,0,1-.75,1.12,15.89,15.89,0,0,1-1.74,1.62c-.68.57-1.11,1-1.3,1.16a4.26,4.26,0,0,0-.48.61Z"/><path class="cls-2" d="M510.14,88.06l1.19-.1a2.15,2.15,0,0,0,.61,1.3,1.67,1.67,0,0,0,1.16.43,1.81,1.81,0,0,0,1.38-.61,2.34,2.34,0,0,0,.56-1.63,2.12,2.12,0,0,0-.54-1.53,1.88,1.88,0,0,0-1.42-.55,2.07,2.07,0,0,0-1,.24,2,2,0,0,0-.69.65l-1.06-.14.89-4.73h4.58v1.08h-3.67l-.5,2.48a3,3,0,0,1,1.74-.58,2.77,2.77,0,0,1,2,.83,2.89,2.89,0,0,1,.83,2.15,3.34,3.34,0,0,1-.73,2.16,2.91,2.91,0,0,1-2.41,1.11,3,3,0,0,1-2.05-.7A2.77,2.77,0,0,1,510.14,88.06Z"/><line class="cls-5" x1="477.25" y1="146.35" x2="477.25" y2="86.47"/><path class="cls-2" d="M380.8,208.63l-4-8.28,3.67-1.78a5.73,5.73,0,0,1,1.79-.59,2.05,2.05,0,0,1,1.3.35,2.5,2.5,0,0,1,.95,1.08,2.31,2.31,0,0,1,.15,1.76,3.21,3.21,0,0,1-1.39,1.62,3.33,3.33,0,0,1,.86.09,6.14,6.14,0,0,1,1.44.67l2.53,1.55-1.38.67-1.93-1.19a13.69,13.69,0,0,0-1.34-.76,2.71,2.71,0,0,0-.82-.29,2,2,0,0,0-.61,0,3.84,3.84,0,0,0-.63.26l-1.27.61,1.78,3.68Zm-1.14-5.15,2.36-1.14a4.25,4.25,0,0,0,1.1-.73,1.42,1.42,0,0,0,.4-.81,1.48,1.48,0,0,0-.14-.85,1.36,1.36,0,0,0-.89-.75,2.16,2.16,0,0,0-1.53.27l-2.62,1.27Z"/><path class="cls-2" d="M392.56,203l-1,.49L388.41,197a5.7,5.7,0,0,1-.63,1.17,7.56,7.56,0,0,1-.81,1l-.48-1a6.85,6.85,0,0,0,1-1.7,4,4,0,0,0,.37-1.54l.66-.32Z"/><path class="cls-2" d="M394.1,199.53l1-.61a2.16,2.16,0,0,0,1.12.91,1.7,1.7,0,0,0,1.23-.11,1.86,1.86,0,0,0,1-1.16,2.29,2.29,0,0,0-.21-1.71,2.1,2.1,0,0,0-1.15-1.14,1.9,1.9,0,0,0-1.52.11,1.94,1.94,0,0,0-.78.66,1.84,1.84,0,0,0-.34.88l-1,.33-1.25-4.64,4.12-2,.47,1-3.31,1.6.63,2.44a3,3,0,0,1,1.32-1.27,2.75,2.75,0,0,1,2.19-.14,2.93,2.93,0,0,1,1.68,1.57,3.32,3.32,0,0,1,.28,2.26,2.89,2.89,0,0,1-1.69,2.06,3,3,0,0,1-2.15.26A2.72,2.72,0,0,1,394.1,199.53Z"/><path class="cls-4" d="M477.25,267.24H256M433.27,133.16H256"/><line class="cls-5" x1="712.65" y1="165.74" x2="712.64" y2="11.99"/><line class="cls-6" x1="713.25" y1="165.48" x2="713.25" y2="11.72"/><line class="cls-5" x1="644.24" y1="163.09" x2="644.24" y2="49"/><line class="cls-6" x1="644.24" y1="159.84" x2="644.24" y2="49"/><line class="cls-6" x1="481" y1="358.14" x2="834.39" y2="358.14"/><line class="cls-7" x1="183.61" y1="710.26" x2="183.61" y2="793.9"/><line class="cls-5" x1="770.49" y1="693.56" x2="835.04" y2="693.56"/><line class="cls-4" x1="827.32" y1="719.63" x2="827.32" y2="693.56"/><path class="cls-2" d="M818,708.46a2.14,2.14,0,0,1-.73,1,2,2,0,0,1-1.14.33,2.23,2.23,0,0,1-1.69-.72,2.66,2.66,0,0,1-.69-1.92,2.73,2.73,0,0,1,.7-1.94,2.28,2.28,0,0,1,1.71-.73,1.91,1.91,0,0,1,1.11.33,2.14,2.14,0,0,1,.73,1,2.55,2.55,0,0,1,.89-1.29,2.48,2.48,0,0,1,1.47-.44,2.61,2.61,0,0,1,2,.84,3.38,3.38,0,0,1,0,4.39,2.67,2.67,0,0,1-2,.83,2.43,2.43,0,0,1-1.5-.45A2.27,2.27,0,0,1,818,708.46Zm-1.91.23a1.42,1.42,0,0,0,1.06-.42,1.49,1.49,0,0,0,.42-1.09,1.46,1.46,0,0,0-.41-1.07,1.37,1.37,0,0,0-1-.42,1.39,1.39,0,0,0-1,.43,1.44,1.44,0,0,0-.43,1.07,1.45,1.45,0,0,0,.42,1.07A1.3,1.3,0,0,0,816.06,708.69Zm4.25.36a1.94,1.94,0,0,0,.93-.23,1.64,1.64,0,0,0,.7-.68,2,2,0,0,0,.25-1,1.87,1.87,0,0,0-.52-1.34,1.79,1.79,0,0,0-1.33-.52,1.83,1.83,0,0,0-1.35.54,1.87,1.87,0,0,0-.53,1.36,1.79,1.79,0,0,0,1.85,1.84Z"/><line class="cls-5" x1="696.35" y1="148.83" x2="760.98" y2="148.83"/><path class="cls-5" d="M477.25,358.14H834.39m-80.77-225v15.43"/><path class="cls-4" d="M436.42,558.24a3.26,3.26,0,1,0-3.26,3.26A3.26,3.26,0,0,0,436.42,558.24Z"/><line class="cls-5" x1="433.16" y1="558.24" x2="433.16" y2="603.16"/><line class="cls-5" x1="770.49" y1="713.23" x2="770.49" y2="793.49"/><line class="cls-7" x1="118.62" y1="720.2" x2="870.89" y2="720.2"/><line class="cls-8" x1="437.02" y1="133.16" x2="561.05" y2="133.16"/><line class="cls-4" x1="431.27" y1="258.61" x2="477.25" y2="267.23"/><line class="cls-4" x1="522.99" y1="348.99" x2="477.25" y2="358.14"/><line class="cls-9" x1="639.97" y1="255.44" x2="676.67" y2="280.86"/><polygon class="cls-8" points="672.55 275.36 670.07 278.93 682.03 284.57 672.55 275.36"/><line class="cls-5" x1="761.61" y1="692.07" x2="770.49" y2="693.56"/><line class="cls-5" x1="770.49" y1="693.56" x2="770.93" y2="700.15"/><path class="cls-10" d="M530.2,163.11a3.26,3.26,0,1,0-3.26,3.25A3.26,3.26,0,0,0,530.2,163.11Zm117.3,0a3.26,3.26,0,1,0-3.26,3.26A3.25,3.25,0,0,0,647.5,163.09Zm68.42,2.65a3.26,3.26,0,1,0-3.26,3.26A3.27,3.27,0,0,0,715.92,165.74Z"/><line class="cls-5" x1="753.44" y1="158.39" x2="753.44" y2="174.45"/><polygon class="cls-11" points="750.45 160.51 753.57 148.89 756.68 160.51 750.45 160.51"/><line class="cls-5" x1="517.92" y1="164.7" x2="482.06" y2="171.19"/><polygon class="cls-11" points="515.3 162.14 527.29 163.14 516.41 168.27 515.3 162.14"/><line class="cls-4" x1="343.78" y1="153.13" x2="343.78" y2="11.99"/><polygon class="cls-2" points="672.55 275.36 670.07 278.93 682.03 284.57 672.55 275.36"/><line class="cls-5" x1="263.52" y1="257.74" x2="263.52" y2="143.17"/><polygon class="cls-11" points="266.51 255.61 263.39 267.24 260.28 255.61 266.51 255.61"/><polygon class="cls-11" points="266.51 145.3 263.39 133.68 260.28 145.3 266.51 145.3"/><line class="cls-5" x1="788.64" y1="276.14" x2="788.64" y2="142"/><polygon class="cls-11" points="791.62 274.01 788.51 285.64 785.39 274.01 791.62 274.01"/><polygon class="cls-11" points="791.62 144.13 788.51 132.5 785.39 144.13 791.62 144.13"/><line class="cls-5" x1="827.32" y1="348.64" x2="827.32" y2="142.66"/><polygon class="cls-11" points="830.3 346.51 827.19 358.14 824.08 346.51 830.3 346.51"/><polygon class="cls-11" points="830.3 144.79 827.19 133.16 824.08 144.79 830.3 144.79"/><line class="cls-5" x1="753.72" y1="123.46" x2="753.72" y2="108.9"/><polygon class="cls-11" points="756.71 121.33 753.59 132.96 750.48 121.33 756.71 121.33"/><line class="cls-4" x1="512.59" y1="366.59" x2="554.27" y2="397.89"/><polygon class="cls-11" points="512.49 370.64 504.27 360.17 516.62 365.13 512.49 370.64"/><line class="cls-4" x1="700.87" y1="161.74" x2="681.6" y2="179.22"/><polygon class="cls-11" points="696.91 160.88 708.75 154.79 701.54 165.98 696.91 160.88"/><line class="cls-4" x1="654.34" y1="160.58" x2="675.31" y2="181.2"/><polygon class="cls-11" points="653.7 164.58 646.95 153.11 658.53 159.66 653.7 164.58"/><line class="cls-5" x1="441.78" y1="276.52" x2="405.64" y2="306.59"/><polygon class="cls-11" points="438.23 275.58 449.16 270.54 442.22 280.37 438.23 275.58"/><line class="cls-5" x1="360.68" y1="222.73" x2="402.67" y2="201.58"/><polygon class="cls-11" points="363.92 224.44 352.14 226.89 361.12 218.88 363.92 224.44"/><line class="cls-5" x1="342.16" y1="130.34" x2="312.68" y2="90.66"/><polygon class="cls-11" points="343.57 125.98 349.11 139.97 337.32 130.63 343.57 125.98"/><line class="cls-5" x1="353.95" y1="19.48" x2="703.75" y2="19.48"/><polygon class="cls-11" points="356.07 22.47 344.45 19.35 356.07 16.24 356.07 22.47"/><polygon class="cls-11" points="701.63 22.47 713.25 19.35 701.63 16.24 701.63 22.47"/><line class="cls-5" x1="353.95" y1="56.49" x2="517.21" y2="56.49"/><polygon class="cls-11" points="356.07 59.48 344.45 56.36 356.07 53.25 356.07 59.48"/><polygon class="cls-11" points="515.09 59.48 526.71 56.36 515.09 53.25 515.09 59.48"/><line class="cls-5" x1="536.73" y1="56.49" x2="703.75" y2="56.49"/><polygon class="cls-11" points="538.85 59.48 527.23 56.36 538.85 53.25 538.85 59.48"/><polygon class="cls-11" points="701.63 59.48 713.25 56.36 701.63 53.25 701.63 59.48"/><path class="cls-2" d="M716.27,701.93l1.63-9.06,4,.72a5.49,5.49,0,0,1,1.79.58,2,2,0,0,1,.85,1,2.67,2.67,0,0,1,.14,1.43,2.34,2.34,0,0,1-.92,1.51,3.24,3.24,0,0,1-2.08.5,3.14,3.14,0,0,1,.64.58,6,6,0,0,1,.78,1.38l1.13,2.75-1.5-.27-.86-2.1c-.26-.61-.47-1.08-.64-1.4a3.23,3.23,0,0,0-.5-.72,1.82,1.82,0,0,0-.51-.34,4.53,4.53,0,0,0-.66-.16l-1.39-.25-.72,4Zm2.11-4.85,2.58.47a4.36,4.36,0,0,0,1.31.06,1.38,1.38,0,0,0,.8-.42,1.46,1.46,0,0,0,.39-.77,1.36,1.36,0,0,0-.28-1.14,2.2,2.2,0,0,0-1.4-.68l-2.86-.51Z"/><path class="cls-2" d="M725.37,701.08l1.14,0a2.49,2.49,0,0,0,.41,1.48,1.65,1.65,0,0,0,1.05.62,1.83,1.83,0,0,0,1.42-.31,1.87,1.87,0,0,0,.78-1.25,1.72,1.72,0,0,0-1.46-2.07,2.92,2.92,0,0,0-.8,0l.3-1,.17,0a2.29,2.29,0,0,0,1.35-.14,1.29,1.29,0,0,0,.77-1,1.38,1.38,0,0,0-.23-1.09,1.49,1.49,0,0,0-1-.59,1.52,1.52,0,0,0-1.15.21,2.09,2.09,0,0,0-.78,1.12l-1.07-.39a2.92,2.92,0,0,1,1.23-1.57,2.75,2.75,0,0,1,1.91-.29,3.09,3.09,0,0,1,1.31.56,2.42,2.42,0,0,1,.8,1,2.37,2.37,0,0,1,.12,1.23,1.91,1.91,0,0,1-.51,1,2.24,2.24,0,0,1-1.07.6,2.17,2.17,0,0,1,1.11,1,2.33,2.33,0,0,1,.18,1.54,2.74,2.74,0,0,1-1.22,1.86,3.13,3.13,0,0,1-2.34.43,2.88,2.88,0,0,1-1.85-1.07A2.79,2.79,0,0,1,725.37,701.08Z"/><path class="cls-2" d="M221.91,706.92l2.92-8.73,3.87,1.29a5.5,5.5,0,0,1,1.69.83,2.06,2.06,0,0,1,.69,1.15,2.62,2.62,0,0,1-.07,1.44,2.29,2.29,0,0,1-1.13,1.36,3.1,3.1,0,0,1-2.12.19,3.54,3.54,0,0,1,.55.67,6.72,6.72,0,0,1,.57,1.48l.72,2.88-1.45-.48-.55-2.2a14.91,14.91,0,0,0-.43-1.48,3.1,3.1,0,0,0-.39-.78,1.9,1.9,0,0,0-.45-.41,3.65,3.65,0,0,0-.63-.26l-1.34-.44-1.29,3.87Zm2.79-4.49,2.48.83a4.42,4.42,0,0,0,1.29.25,1.35,1.35,0,0,0,.85-.3,1.54,1.54,0,0,0,.5-.71,1.35,1.35,0,0,0-.11-1.16,2.22,2.22,0,0,0-1.29-.88l-2.76-.92Z"/><path class="cls-2" d="M231,707.4l1.11.22a2.54,2.54,0,0,0,.19,1.52,1.65,1.65,0,0,0,.95.76,1.88,1.88,0,0,0,2.4-1.22,1.73,1.73,0,0,0-.07-1.38,1.78,1.78,0,0,0-1.07-.89,3.49,3.49,0,0,0-.79-.13l.43-.9.17.07a2.31,2.31,0,0,0,1.35,0,1.28,1.28,0,0,0,.92-.91,1.37,1.37,0,0,0-.08-1.11,1.48,1.48,0,0,0-.9-.73,1.53,1.53,0,0,0-1.17,0,2.12,2.12,0,0,0-.93,1l-1-.55a3,3,0,0,1,1.45-1.37,2.75,2.75,0,0,1,1.94,0,3,3,0,0,1,1.21.74,2.4,2.4,0,0,1,.64,1.15,2.33,2.33,0,0,1-.06,1.23,2,2,0,0,1-.65.93.84.84,0,1,0-.19,1.58,2.37,2.37,0,0,1,0,1.55,2.73,2.73,0,0,1-1.48,1.66,3.12,3.12,0,0,1-2.37.09,2.9,2.9,0,0,1-1.68-1.32A2.79,2.79,0,0,1,231,707.4Z"/><line class="cls-10" x1="194.17" y1="702.33" x2="235.25" y2="715.08"/><polygon class="cls-11" points="195.43 706.17 184.17 699.08 197.47 699.6 195.43 706.17"/><line class="cls-10" x1="758.3" y1="713.99" x2="713.57" y2="706.59"/><polygon class="cls-11" points="756.52 710.35 768.64 715.85 755.4 717.15 756.52 710.35"/><line class="cls-4" x1="827.25" y1="728.03" x2="827.32" y2="748.67"/><polygon class="cls-11" points="824.61 729.92 827.33 719.63 830.13 729.9 824.61 729.92"/><line class="cls-4" x1="827.62" y1="684.99" x2="827.77" y2="669.37"/><polygon class="cls-11" points="830.28 683.13 827.43 693.39 824.77 683.08 830.28 683.13"/><polyline class="cls-1" points="434.52 654.85 416.63 637.94 339.42 637.94"/><polygon class="cls-11" points="435.15 650.32 443.04 663.12 429.81 655.98 435.15 650.32"/><path class="cls-2" d="M340.42,633.11v-9.19h4.08a5.57,5.57,0,0,1,1.87.24,2.09,2.09,0,0,1,1,.88,2.66,2.66,0,0,1,.38,1.39,2.29,2.29,0,0,1-.64,1.65,3.22,3.22,0,0,1-1.95.85,3.08,3.08,0,0,1,.73.46,6,6,0,0,1,1,1.22l1.6,2.5H347l-1.22-1.91c-.35-.55-.65-1-.88-1.27a2.89,2.89,0,0,0-.61-.61,2,2,0,0,0-.56-.25,3.68,3.68,0,0,0-.68,0h-1.41v4.08Zm1.22-5.13h2.62a3.75,3.75,0,0,0,1.3-.18,1.35,1.35,0,0,0,.72-.55,1.51,1.51,0,0,0,.24-.82,1.36,1.36,0,0,0-.47-1.08,2.24,2.24,0,0,0-1.5-.42h-2.91Z"/><path class="cls-2" d="M353.48,633.11h-1.13v-7.19a5.82,5.82,0,0,1-1.07.78,7.12,7.12,0,0,1-1.19.58v-1.09a6.79,6.79,0,0,0,1.66-1.08,4.1,4.1,0,0,0,1-1.23h.73Z"/><path class="cls-2" d="M356.36,628.58a8.6,8.6,0,0,1,.33-2.63,3.33,3.33,0,0,1,1-1.53,2.56,2.56,0,0,1,1.67-.54,2.67,2.67,0,0,1,1.29.3,2.47,2.47,0,0,1,.93.86,4.72,4.72,0,0,1,.57,1.36,9.12,9.12,0,0,1,.2,2.18,8.46,8.46,0,0,1-.33,2.61,3.27,3.27,0,0,1-1,1.54,2.56,2.56,0,0,1-1.67.54,2.53,2.53,0,0,1-2.09-.95A6,6,0,0,1,356.36,628.58Zm1.16,0a5.68,5.68,0,0,0,.53,3,1.51,1.51,0,0,0,2.61,0,8.84,8.84,0,0,0,0-6,1.56,1.56,0,0,0-1.32-.75,1.44,1.44,0,0,0-1.24.66A5.85,5.85,0,0,0,357.52,628.58Z"/><line class="cls-1" x1="442.73" y1="595.91" x2="467.51" y2="595.91"/><polygon class="cls-11" points="444.85 598.9 433.23 595.78 444.85 592.67 444.85 598.9"/><polygon class="cls-11" points="465.38 598.9 477.01 595.78 465.38 592.67 465.38 598.9"/><path class="cls-2" d="M460.15,782.61H459v-7.2a6.19,6.19,0,0,1-1.07.78,8.12,8.12,0,0,1-1.19.59v-1.1a6.61,6.61,0,0,0,1.65-1.07,4.41,4.41,0,0,0,1-1.23h.72Z"/><path class="cls-2" d="M464.79,777.62a2.14,2.14,0,0,1-1.05-.73,2,2,0,0,1-.34-1.14,2.25,2.25,0,0,1,.73-1.69,2.65,2.65,0,0,1,1.92-.68,2.69,2.69,0,0,1,1.94.7,2.24,2.24,0,0,1,.73,1.7,1.81,1.81,0,0,1-.34,1.11,2,2,0,0,1-1,.73,2.47,2.47,0,0,1,1.29.89,2.42,2.42,0,0,1,.45,1.47,2.65,2.65,0,0,1-.84,2,3.4,3.4,0,0,1-4.39,0,2.66,2.66,0,0,1-.84-2,2.43,2.43,0,0,1,.46-1.5A2.32,2.32,0,0,1,464.79,777.62ZM464.2,780a2,2,0,0,0,.22.93,1.61,1.61,0,0,0,.69.7,1.92,1.92,0,0,0,1,.25,1.79,1.79,0,0,0,1.33-.52,1.76,1.76,0,0,0,.53-1.32,1.8,1.8,0,0,0-.54-1.35,1.85,1.85,0,0,0-1.36-.54A1.79,1.79,0,0,0,464.2,780Zm.36-4.25a1.45,1.45,0,0,0,.42,1.07,1.5,1.5,0,0,0,1.09.41,1.47,1.47,0,0,0,1.07-.41,1.35,1.35,0,0,0,.42-1,1.39,1.39,0,0,0-.43-1,1.48,1.48,0,0,0-1.07-.43,1.45,1.45,0,0,0-1.07.42A1.3,1.3,0,0,0,464.56,775.71Z"/><path class="cls-2" d="M470.19,778.08a8.52,8.52,0,0,1,.34-2.63,3.2,3.2,0,0,1,1-1.53,2.53,2.53,0,0,1,1.66-.54,2.68,2.68,0,0,1,1.3.29,2.52,2.52,0,0,1,.92.86,4.28,4.28,0,0,1,.57,1.37,9,9,0,0,1,.21,2.18,8.51,8.51,0,0,1-.33,2.61,3.32,3.32,0,0,1-1,1.54,2.59,2.59,0,0,1-1.68.54,2.53,2.53,0,0,1-2.09-1A6.08,6.08,0,0,1,470.19,778.08Zm1.16,0a5.66,5.66,0,0,0,.54,3,1.54,1.54,0,0,0,1.3.75,1.56,1.56,0,0,0,1.31-.75,8.84,8.84,0,0,0,0-6,1.56,1.56,0,0,0-1.32-.75,1.44,1.44,0,0,0-1.24.66A5.8,5.8,0,0,0,471.35,778.08Z"/><path class="cls-2" d="M483.38,785.32a11.39,11.39,0,0,1-1.58-2.77,8.71,8.71,0,0,1-.16-6.13,12.26,12.26,0,0,1,1.74-3.16h.81c-.5.87-.84,1.49-1,1.86a9.37,9.37,0,0,0-.6,1.81,10.48,10.48,0,0,0-.27,2.36,11.33,11.33,0,0,0,1.87,6Z"/><path class="cls-2" d="M485.27,774.62v-1.09h6v.88a11.94,11.94,0,0,0-1.74,2.49,15.15,15.15,0,0,0-1.34,3.18,12.14,12.14,0,0,0-.43,2.53h-1.16A11.23,11.23,0,0,1,487,780a13.69,13.69,0,0,1,1.17-3,12.85,12.85,0,0,1,1.62-2.4Z"/><path class="cls-2" d="M493,782.61v-1.28h1.29v1.28Z"/><path class="cls-2" d="M495.91,778.08a8.56,8.56,0,0,1,.33-2.63,3.28,3.28,0,0,1,1-1.53,2.56,2.56,0,0,1,1.67-.54,2.67,2.67,0,0,1,1.29.29,2.55,2.55,0,0,1,.93.86,4.79,4.79,0,0,1,.57,1.37,9.06,9.06,0,0,1,.2,2.18,8.51,8.51,0,0,1-.33,2.61,3.32,3.32,0,0,1-1,1.54,2.56,2.56,0,0,1-1.67.54,2.51,2.51,0,0,1-2.09-1A6,6,0,0,1,495.91,778.08Zm1.16,0a5.68,5.68,0,0,0,.53,3,1.51,1.51,0,0,0,2.61,0,8.84,8.84,0,0,0,0-6,1.56,1.56,0,0,0-1.32-.75,1.44,1.44,0,0,0-1.24.66A5.82,5.82,0,0,0,497.07,778.08Z"/><path class="cls-2" d="M504.79,777.62a2.11,2.11,0,0,1-1-.73,1.9,1.9,0,0,1-.34-1.14,2.25,2.25,0,0,1,.72-1.69,3,3,0,0,1,3.86,0,2.25,2.25,0,0,1,.74,1.7,1.87,1.87,0,0,1-.34,1.11,2,2,0,0,1-1,.73,2.55,2.55,0,0,1,1.29.89,2.48,2.48,0,0,1,.44,1.47,2.68,2.68,0,0,1-.83,2,3.07,3.07,0,0,1-2.2.8,3,3,0,0,1-2.19-.81,2.66,2.66,0,0,1-.84-2,2.37,2.37,0,0,1,.46-1.5A2.3,2.3,0,0,1,504.79,777.62ZM504.2,780a2.06,2.06,0,0,0,.23.93,1.59,1.59,0,0,0,.68.7,2,2,0,0,0,1,.25,1.82,1.82,0,0,0,1.34-.52A1.79,1.79,0,0,0,508,780a1.77,1.77,0,0,0-.55-1.35,1.83,1.83,0,0,0-1.35-.54A1.81,1.81,0,0,0,504.2,780Zm.37-4.25a1.45,1.45,0,0,0,.42,1.07,1.5,1.5,0,0,0,1.09.41,1.49,1.49,0,0,0,1.07-.41,1.34,1.34,0,0,0,.41-1,1.42,1.42,0,0,0-.42-1,1.5,1.5,0,0,0-1.08-.43,1.47,1.47,0,0,0-1.07.42A1.32,1.32,0,0,0,504.57,775.71Z"/><path class="cls-2" d="M510.27,774.62v-1.09h6v.88a11.94,11.94,0,0,0-1.74,2.49,15.15,15.15,0,0,0-1.34,3.18,12.14,12.14,0,0,0-.43,2.53h-1.16A11.23,11.23,0,0,1,512,780a13.69,13.69,0,0,1,1.17-3,12.85,12.85,0,0,1,1.62-2.4Z"/><path class="cls-2" d="M517.72,776.67l-.32-1.75v-1.51h1.29v1.51l-.28,1.75Zm2.07,0-.3-1.75v-1.51h1.28v1.51l-.3,1.75Z"/><path class="cls-2" d="M522.91,785.32h-.81a11.35,11.35,0,0,0,1.88-6,10.25,10.25,0,0,0-.27-2.34,9.37,9.37,0,0,0-.6-1.81,19,19,0,0,0-1-1.88h.81a12,12,0,0,1,1.75,3.16,8.54,8.54,0,0,1,.48,2.86,8.37,8.37,0,0,1-.65,3.27A11.39,11.39,0,0,1,522.91,785.32Z"/><line class="cls-1" x1="758.85" y1="787.44" x2="193.52" y2="787.44"/><polygon class="cls-11" points="756.73 784.32 768.35 787.44 756.73 790.55 756.73 784.32"/><polygon class="cls-11" points="195.65 784.32 184.02 787.44 195.65 790.55 195.65 784.32"/><line class="cls-7" x1="509.95" y1="756.55" x2="521.6" y2="756.55"/><polygon class="cls-11" points="512.07 759.67 500.45 756.55 512.07 753.44 512.07 759.67"/><path class="cls-7" d="M434.72,756.55h33m9.49,0h23.2"/><polygon class="cls-11" points="465.63 759.67 477.26 756.55 465.63 753.44 465.63 759.67"/><line class="cls-12" x1="477.26" y1="98.58" x2="477.26" y2="759.26"/><path class="cls-11" d="M511.28,743.43V738.6L506.87,732h1.82l2.26,3.45c.41.65.8,1.29,1.17,1.93.35-.61.77-1.28,1.27-2L515.6,732h1.76l-4.56,6.58v4.83Z"/><line class="cls-13" x1="500.45" y1="759.26" x2="499.78" y2="120.1"/><path class="cls-2" d="M437.43,743.63v-1.08h6v.87a12.93,12.93,0,0,0-1.75,2.49,15.5,15.5,0,0,0-1.33,3.19,12,12,0,0,0-.43,2.52h-1.16a11.23,11.23,0,0,1,.42-2.62,14.7,14.7,0,0,1,1.17-3,12.49,12.49,0,0,1,1.63-2.41Z"/><path class="cls-2" d="M445.14,751.62v-1.28h1.28v1.28Z"/><path class="cls-2" d="M448.07,747.09a8.27,8.27,0,0,1,.34-2.63,3.18,3.18,0,0,1,1-1.53,2.53,2.53,0,0,1,1.66-.54,2.68,2.68,0,0,1,1.3.3,2.36,2.36,0,0,1,.92.86,4.22,4.22,0,0,1,.57,1.36,9,9,0,0,1,.21,2.18,8.46,8.46,0,0,1-.33,2.61,3.29,3.29,0,0,1-1,1.54,2.81,2.81,0,0,1-3.76-.41A6.11,6.11,0,0,1,448.07,747.09Zm1.16,0a5.78,5.78,0,0,0,.53,3,1.52,1.52,0,0,0,2.62,0,8.84,8.84,0,0,0,0-6,1.56,1.56,0,0,0-1.32-.75,1.44,1.44,0,0,0-1.24.66A5.83,5.83,0,0,0,449.23,747.09Z"/><path class="cls-2" d="M455.39,749.5l1.08-.1a1.93,1.93,0,0,0,.53,1.11,1.44,1.44,0,0,0,1,.34,1.69,1.69,0,0,0,.91-.24,2,2,0,0,0,.65-.63,4.34,4.34,0,0,0,.42-1.08,5.79,5.79,0,0,0,.16-1.38v-.22a2.68,2.68,0,0,1-.93.87,2.54,2.54,0,0,1-1.27.34,2.58,2.58,0,0,1-1.93-.83,3,3,0,0,1-.79-2.19,3.1,3.1,0,0,1,.82-2.25,2.75,2.75,0,0,1,2.07-.85,2.94,2.94,0,0,1,1.64.48,3,3,0,0,1,1.13,1.38,6.7,6.7,0,0,1,.39,2.59,8.47,8.47,0,0,1-.38,2.8,3.39,3.39,0,0,1-1.14,1.6,3,3,0,0,1-1.78.54,2.57,2.57,0,0,1-1.76-.6A2.55,2.55,0,0,1,455.39,749.5Zm4.62-4.06a2.25,2.25,0,0,0-.51-1.55,1.65,1.65,0,0,0-1.25-.57,1.72,1.72,0,0,0-1.31.62,2.29,2.29,0,0,0-.56,1.59,2,2,0,0,0,.53,1.43,1.73,1.73,0,0,0,1.31.55,1.67,1.67,0,0,0,1.29-.55A2.19,2.19,0,0,0,460,745.44Z"/><line class="cls-1" x1="863.48" y1="710.7" x2="863.48" y2="143.12"/><polygon class="cls-11" points="866.46 708.58 863.35 720.2 860.23 708.58 866.46 708.58"/><polygon class="cls-11" points="866.46 145.24 863.35 133.62 860.23 145.24 866.46 145.24"/><path class="cls-2" d="M857.69,482v1.13H850.5a5.38,5.38,0,0,1,.77,1.07,7.24,7.24,0,0,1,.59,1.19h-1.09a6.79,6.79,0,0,0-1.08-1.66,4.22,4.22,0,0,0-1.23-1V482Z"/><path class="cls-2" d="M852.71,477.35a2.18,2.18,0,0,1-.74,1,2,2,0,0,1-1.14.34,2.25,2.25,0,0,1-1.69-.72,3,3,0,0,1,0-3.86,2.25,2.25,0,0,1,1.7-.74,1.93,1.93,0,0,1,1.12.34,2.17,2.17,0,0,1,.73,1,2.34,2.34,0,0,1,2.35-1.73,2.68,2.68,0,0,1,2,.83,3.07,3.07,0,0,1,.8,2.2,3,3,0,0,1-.81,2.19,2.65,2.65,0,0,1-2,.84,2.37,2.37,0,0,1-1.5-.46A2.23,2.23,0,0,1,852.71,477.35Zm-1.92.22a1.44,1.44,0,0,0,1.07-.42,1.5,1.5,0,0,0,.41-1.09,1.45,1.45,0,0,0-.41-1.07,1.35,1.35,0,0,0-1-.42,1.43,1.43,0,0,0-1,.43,1.6,1.6,0,0,0,0,2.15A1.35,1.35,0,0,0,850.79,477.57Zm4.25.37a2.14,2.14,0,0,0,.94-.23,1.56,1.56,0,0,0,.69-.68,2,2,0,0,0,.25-1,1.87,1.87,0,0,0-3.19-1.32,1.87,1.87,0,0,0-.54,1.36,1.81,1.81,0,0,0,1.85,1.85Z"/><path class="cls-2" d="M853.16,471.94a8.23,8.23,0,0,1-2.63-.34,3.24,3.24,0,0,1-1.53-1,2.58,2.58,0,0,1-.54-1.67,2.71,2.71,0,0,1,.3-1.3,2.36,2.36,0,0,1,.86-.92,4.72,4.72,0,0,1,1.36-.57,9,9,0,0,1,2.18-.21,8.46,8.46,0,0,1,2.61.33,3.29,3.29,0,0,1,1.54,1,2.81,2.81,0,0,1-.41,3.76A6,6,0,0,1,853.16,471.94Zm0-1.16a5.78,5.78,0,0,0,3-.53,1.52,1.52,0,0,0,0-2.62,8.84,8.84,0,0,0-6,0,1.58,1.58,0,0,0-.75,1.32,1.44,1.44,0,0,0,.66,1.24A5.83,5.83,0,0,0,853.16,470.78Z"/><path class="cls-2" d="M860.4,455.18a11.51,11.51,0,0,1-2.76,1.58,8.64,8.64,0,0,1-3.28.65,8.35,8.35,0,0,1-2.86-.49,11.69,11.69,0,0,1-3.16-1.74v-.81a19.84,19.84,0,0,0,1.86,1A10.14,10.14,0,0,0,852,456a10.48,10.48,0,0,0,2.36.27,11.35,11.35,0,0,0,6-1.88Z"/><path class="cls-2" d="M849.7,452.66h-1.08v-6h.87a12.5,12.5,0,0,0,2.49,1.74,15,15,0,0,0,3.19,1.34,12,12,0,0,0,2.52.43v1.16a11.32,11.32,0,0,1-2.62-.43,13.61,13.61,0,0,1-3-1.17,12.94,12.94,0,0,1-2.41-1.62Z"/><path class="cls-2" d="M857.69,445h-1.28v-1.29h1.28Z"/><path class="cls-2" d="M853.16,442a8.6,8.6,0,0,1-2.63-.33,3.33,3.33,0,0,1-1.53-1,2.56,2.56,0,0,1-.54-1.67,2.67,2.67,0,0,1,.3-1.29,2.47,2.47,0,0,1,.86-.93,4.72,4.72,0,0,1,1.36-.57,9.12,9.12,0,0,1,2.18-.2,8.46,8.46,0,0,1,2.61.33,3.27,3.27,0,0,1,1.54,1,2.56,2.56,0,0,1,.54,1.67,2.53,2.53,0,0,1-1,2.09A6,6,0,0,1,853.16,442Zm0-1.16a5.68,5.68,0,0,0,3-.53,1.51,1.51,0,0,0,0-2.61,8.84,8.84,0,0,0-6,0,1.56,1.56,0,0,0-.75,1.32,1.44,1.44,0,0,0,.66,1.24A5.85,5.85,0,0,0,853.16,440.85Z"/><path class="cls-2" d="M852.71,433.13a2.13,2.13,0,0,1-.74,1,1.9,1.9,0,0,1-1.14.34,2.25,2.25,0,0,1-1.69-.72,3,3,0,0,1,0-3.86,2.24,2.24,0,0,1,1.7-.73,1.92,1.92,0,0,1,1.12.33,2.17,2.17,0,0,1,.73,1,2.34,2.34,0,0,1,2.36-1.73,2.67,2.67,0,0,1,2,.83,3.42,3.42,0,0,1,0,4.4,2.71,2.71,0,0,1-2,.83,2.45,2.45,0,0,1-1.5-.45A2.29,2.29,0,0,1,852.71,433.13Zm-1.92.23a1.41,1.41,0,0,0,1.07-.43,1.46,1.46,0,0,0,.41-1.09,1.45,1.45,0,0,0-.41-1.07,1.34,1.34,0,0,0-1-.41,1.4,1.4,0,0,0-1.05.43,1.45,1.45,0,0,0-.42,1.07,1.5,1.5,0,0,0,.41,1.07A1.36,1.36,0,0,0,850.79,433.36Zm4.25.36a2.14,2.14,0,0,0,.94-.23,1.64,1.64,0,0,0,.7-.68,2,2,0,0,0,.24-1,1.82,1.82,0,0,0-.52-1.34,1.92,1.92,0,0,0-2.67,0,1.82,1.82,0,0,0-.53,1.35,1.79,1.79,0,0,0,.52,1.33A1.83,1.83,0,0,0,855,433.72Z"/><path class="cls-2" d="M849.7,427.65h-1.08v-6h.87a12.5,12.5,0,0,0,2.49,1.74,14.47,14.47,0,0,0,3.19,1.33,12,12,0,0,0,2.52.44v1.16a11.32,11.32,0,0,1-2.62-.43,13.61,13.61,0,0,1-3-1.17,12.94,12.94,0,0,1-2.41-1.62Z"/><path class="cls-2" d="M851.75,418.13l-1.75.3h-1.5v-1.28H850l1.75.3Zm0,2.07-1.75.32h-1.5v-1.29H850l1.75.28Z"/><path class="cls-2" d="M860.4,415v.81a11.33,11.33,0,0,0-6-1.87,10.25,10.25,0,0,0-2.34.27,10.08,10.08,0,0,0-1.81.59c-.37.17-1,.5-1.88,1V415a12,12,0,0,1,3.16-1.74,8.74,8.74,0,0,1,6.14.16A11.85,11.85,0,0,1,860.4,415Z"/><line class="cls-7" x1="556.02" y1="153.69" x2="556.02" y2="142.18"/><polygon class="cls-11" points="559.14 151.57 556.02 163.19 552.91 151.57 559.14 151.57"/><polygon class="cls-11" points="559.01 144.3 555.89 132.68 552.78 144.3 559.01 144.3"/><line class="cls-7" x1="556.02" y1="132.97" x2="556.02" y2="84.82"/><path class="cls-2" d="M549,109.51l-.1-1.08a1.87,1.87,0,0,0,1.11-.53,1.44,1.44,0,0,0,.34-1,1.81,1.81,0,0,0-.23-.91,2,2,0,0,0-.64-.64,3.68,3.68,0,0,0-1.08-.42,5.32,5.32,0,0,0-1.38-.17h-.22a2.59,2.59,0,0,1,.87.93A2.54,2.54,0,0,1,548,107a2.58,2.58,0,0,1-.83,1.93,3,3,0,0,1-2.18.79,3.11,3.11,0,0,1-2.26-.82,2.75,2.75,0,0,1-.85-2.07,3,3,0,0,1,1.86-2.77,6.74,6.74,0,0,1,2.59-.39,8.28,8.28,0,0,1,2.81.39,3.28,3.28,0,0,1,1.59,1.14,3,3,0,0,1,.54,1.77,2.43,2.43,0,0,1-2.28,2.58Zm-4.06-4.62a2.22,2.22,0,0,0-1.55.52,1.61,1.61,0,0,0-.57,1.24,1.72,1.72,0,0,0,.62,1.31,2.24,2.24,0,0,0,1.59.56,2,2,0,0,0,1.43-.53,1.73,1.73,0,0,0,.55-1.31,1.67,1.67,0,0,0-.55-1.29A2.19,2.19,0,0,0,544.91,104.89Z"/><path class="cls-2" d="M551.1,101.9h-1.29v-1.28h1.29Z"/><path class="cls-2" d="M551.1,94.71v1.13h-7.2a5.82,5.82,0,0,1,.78,1.07,7.51,7.51,0,0,1,.58,1.19h-1.09a7.2,7.2,0,0,0-1.08-1.66,4.26,4.26,0,0,0-1.23-1v-.73Z"/><path class="cls-2" d="M549,91.65l-.1-1.09A1.87,1.87,0,0,0,550,90a1.44,1.44,0,0,0,.34-1,1.78,1.78,0,0,0-.23-.91,2.09,2.09,0,0,0-.64-.65,4.34,4.34,0,0,0-1.08-.42,5.79,5.79,0,0,0-1.38-.17h-.22a2.52,2.52,0,0,1,.87.93A2.54,2.54,0,0,1,548,89.1a2.58,2.58,0,0,1-.83,1.93,3,3,0,0,1-2.18.79,3.12,3.12,0,0,1-2.26-.83,2.73,2.73,0,0,1-.85-2.06,3,3,0,0,1,1.86-2.77,6.74,6.74,0,0,1,2.59-.39,8.57,8.57,0,0,1,2.81.38,3.41,3.41,0,0,1,1.59,1.14,3,3,0,0,1,.54,1.78A2.43,2.43,0,0,1,549,91.65ZM544.91,87a2.26,2.26,0,0,0-1.55.51,1.63,1.63,0,0,0-.57,1.25,1.72,1.72,0,0,0,.62,1.31,2.29,2.29,0,0,0,1.59.56,2,2,0,0,0,1.43-.53,1.73,1.73,0,0,0,.55-1.31,1.67,1.67,0,0,0-.55-1.29A2.15,2.15,0,0,0,544.91,87Z"/><line class="cls-7" x1="486.76" y1="96.54" x2="517.21" y2="96.54"/><polygon class="cls-11" points="488.88 99.66 477.26 96.54 488.88 93.43 488.88 99.66"/><polygon class="cls-11" points="515.09 99.53 526.71 96.41 515.09 93.3 515.09 99.53"/><path class="cls-11" d="M511.28,131.37v-4.84L506.87,120h1.82L511,123.4c.41.65.8,1.29,1.17,1.93.35-.6.77-1.27,1.27-2L515.6,120h1.76l-4.56,6.58v4.84Z"/><polyline class="cls-1" points="354.29 148.13 376.09 350.07 409.14 345.61 433.16 558.5 452.03 348.29 476.15 350.97 490.57 144.67"/><polygon class="cls-11" points="351.42 150.58 353.27 138.69 357.61 149.91 351.42 150.58"/><polygon class="cls-11" points="493.53 147.01 491.23 135.19 487.31 146.57 493.53 147.01"/><path class="cls-2" d="M372.2,187.77l-9.15.9-.4-4.06a5.5,5.5,0,0,1,.06-1.88,2.07,2.07,0,0,1,.77-1.11,2.56,2.56,0,0,1,1.34-.51,2.33,2.33,0,0,1,1.71.46,3.22,3.22,0,0,1,1,1.87,3.14,3.14,0,0,1,.38-.78,6.23,6.23,0,0,1,1.12-1.12l2.33-1.84.16,1.52-1.79,1.4c-.51.41-.91.74-1.17,1a2.47,2.47,0,0,0-.55.68,1.6,1.6,0,0,0-.19.57,3.32,3.32,0,0,0,0,.68L368,187l4.06-.41Zm-5.23-.71-.26-2.6a3.77,3.77,0,0,0-.3-1.29,1.31,1.31,0,0,0-.62-.65,1.55,1.55,0,0,0-.84-.17,1.37,1.37,0,0,0-1,.58,2.23,2.23,0,0,0-.28,1.53l.29,2.9Z"/><path class="cls-2" d="M369.67,173.21l1.08-.11.6,6.06a2.1,2.1,0,0,1-.79-.06,4,4,0,0,1-1.29-.62,10.68,10.68,0,0,1-1.53-1.33,13,13,0,0,0-2.14-1.83,2.37,2.37,0,0,0-1.41-.39,1.55,1.55,0,0,0-1.08.59,2,2,0,0,0,.28,2.54,1.89,1.89,0,0,0,1.4.36v1.17a2.85,2.85,0,0,1-2.06-.7,3,3,0,0,1-.88-2,2.89,2.89,0,0,1,.52-2.16,2.41,2.41,0,0,1,1.73-.95,3,3,0,0,1,1.11.12,4.38,4.38,0,0,1,1.19.64,18.7,18.7,0,0,1,1.78,1.57c.63.62,1.06,1,1.28,1.19a3.39,3.39,0,0,0,.66.41Z"/><path class="cls-2" d="M369,166.1l1.08-.11.6,6a2,2,0,0,1-.8,0,4.46,4.46,0,0,1-1.29-.62A12.09,12.09,0,0,1,367,170a12,12,0,0,0-2.14-1.82,2.34,2.34,0,0,0-1.4-.39,1.51,1.51,0,0,0-1.08.59,1.71,1.71,0,0,0-.33,1.29,1.73,1.73,0,0,0,.61,1.25,1.88,1.88,0,0,0,1.4.36v1.17a2.91,2.91,0,0,1-2.06-.7,3.1,3.1,0,0,1-.88-2,2.94,2.94,0,0,1,.53-2.16,2.39,2.39,0,0,1,1.73-1,2.75,2.75,0,0,1,1.1.12,4.16,4.16,0,0,1,1.2.64,17.36,17.36,0,0,1,1.78,1.57c.63.62,1.06,1,1.28,1.18a3.74,3.74,0,0,0,.65.42Z"/><path class="cls-2" d="M367.53,165l-.21-1.17a2.12,2.12,0,0,0,1.23-.74,1.63,1.63,0,0,0,.32-1.19,1.81,1.81,0,0,0-.74-1.32,2.34,2.34,0,0,0-1.68-.4,2.09,2.09,0,0,0-1.47.69,1.91,1.91,0,0,0-.41,1.47,2,2,0,0,0,.34,1,1.91,1.91,0,0,0,.71.62l0,1.07-4.78-.42-.45-4.56,1.07-.1.36,3.65,2.51.25a2.9,2.9,0,0,1-.74-1.67,2.76,2.76,0,0,1,.63-2.11,2.9,2.9,0,0,1,2.05-1,3.38,3.38,0,0,1,2.22.51,2.91,2.91,0,0,1,1.35,2.29,3,3,0,0,1-.5,2.11A2.74,2.74,0,0,1,367.53,165Z"/><path class="cls-2" d="M481.58,208.72l-9.18-.65.29-4.07a5.64,5.64,0,0,1,.38-1.85,2,2,0,0,1,.95-1,2.6,2.6,0,0,1,1.41-.29,2.35,2.35,0,0,1,1.6.75,3.23,3.23,0,0,1,.71,2,3.43,3.43,0,0,1,.51-.7,6.68,6.68,0,0,1,1.29-.92l2.61-1.42-.11,1.53-2,1.08a15.09,15.09,0,0,0-1.33.79,2.64,2.64,0,0,0-.66.57,1.74,1.74,0,0,0-.28.54,3.36,3.36,0,0,0-.09.67l-.1,1.41,4.07.29Zm-5-1.58.18-2.61a3.7,3.7,0,0,0-.08-1.31,1.37,1.37,0,0,0-.5-.75,1.5,1.5,0,0,0-.8-.31,1.36,1.36,0,0,0-1.11.4,2.24,2.24,0,0,0-.52,1.46l-.21,2.91Z"/><path class="cls-2" d="M481.53,194l1.09.07-.43,6.07a2.13,2.13,0,0,1-.78-.19,4,4,0,0,1-1.16-.83A11.39,11.39,0,0,1,479,197.5a12.44,12.44,0,0,0-1.8-2.16,2.34,2.34,0,0,0-1.32-.62,1.51,1.51,0,0,0-1.16.4,1.74,1.74,0,0,0-.55,1.21,1.77,1.77,0,0,0,.4,1.34,1.82,1.82,0,0,0,1.32.59l-.21,1.15a2.88,2.88,0,0,1-1.91-1,3.08,3.08,0,0,1-.53-2.13,2.93,2.93,0,0,1,.88-2,2.42,2.42,0,0,1,1.87-.64,3,3,0,0,1,1.07.3,4.64,4.64,0,0,1,1.07.83,20.12,20.12,0,0,1,1.49,1.85c.52.72.87,1.18,1.06,1.39a3.94,3.94,0,0,0,.58.52Z"/><path class="cls-2" d="M482,186.82l1.08.07-.43,6.07a1.86,1.86,0,0,1-.77-.19,4.14,4.14,0,0,1-1.17-.83,11.56,11.56,0,0,1-1.28-1.57,13.28,13.28,0,0,0-1.8-2.16,2.4,2.4,0,0,0-1.32-.62,1.5,1.5,0,0,0-1.16.4,1.71,1.71,0,0,0-.55,1.22,1.75,1.75,0,0,0,.39,1.33,1.84,1.84,0,0,0,1.32.59l-.2,1.15a2.83,2.83,0,0,1-1.91-1,3,3,0,0,1-.53-2.14,2.85,2.85,0,0,1,.88-2,2.4,2.4,0,0,1,1.87-.65,2.75,2.75,0,0,1,1.06.31,4.14,4.14,0,0,1,1.07.82,18.3,18.3,0,0,1,1.49,1.85c.52.72.88,1.18,1.06,1.39a4.53,4.53,0,0,0,.58.52Z"/><path class="cls-2" d="M480.8,185.52v-1.19a2.13,2.13,0,0,0,1.34-.52,1.71,1.71,0,0,0,.52-1.12,1.83,1.83,0,0,0-.52-1.42,2.3,2.3,0,0,0-1.59-.68A2.1,2.1,0,0,0,479,181a1.93,1.93,0,0,0-.65,1.38,1.91,1.91,0,0,0,.77,1.73l-.22,1.05L474.23,184l.33-4.56,1.08.07-.26,3.66,2.43.67a3,3,0,0,1-.46-1.77,2.75,2.75,0,0,1,1-2,2.93,2.93,0,0,1,2.2-.68,3.39,3.39,0,0,1,2.1.88,2.92,2.92,0,0,1,.94,2.49,3,3,0,0,1-.84,2A2.78,2.78,0,0,1,480.8,185.52Z"/><polyline class="cls-1" points="567.42 271.03 586.54 217.94 599.69 273.42"/><polygon class="cls-11" points="570.95 270.04 564.08 279.92 565.09 267.93 570.95 270.04"/><polygon class="cls-11" points="596.3 272.04 602 282.63 602.36 270.61 596.3 272.04"/><path class="cls-2" d="M575.85,211.5v-9.2h4.08a5.28,5.28,0,0,1,1.87.25,2,2,0,0,1,1,.87,2.66,2.66,0,0,1,.38,1.39,2.33,2.33,0,0,1-.63,1.65,3.22,3.22,0,0,1-2,.85,3.44,3.44,0,0,1,.73.46,6.31,6.31,0,0,1,1,1.22l1.6,2.51h-1.53l-1.22-1.92c-.35-.55-.65-1-.87-1.26a3,3,0,0,0-.62-.62,1.61,1.61,0,0,0-.56-.24,3.47,3.47,0,0,0-.68-.05h-1.41v4.09Zm1.22-5.14h2.62a4,4,0,0,0,1.3-.17,1.37,1.37,0,0,0,.72-.56,1.48,1.48,0,0,0,.24-.82,1.34,1.34,0,0,0-.47-1.07,2.22,2.22,0,0,0-1.5-.42h-2.91Z"/><path class="cls-2" d="M588.91,211.5h-1.13v-7.2a5.82,5.82,0,0,1-1.07.78,7.12,7.12,0,0,1-1.19.58v-1.09a6.79,6.79,0,0,0,1.66-1.08,4.1,4.1,0,0,0,1-1.23h.73Z"/><path class="cls-2" d="M591.81,209.07l1.13-.15a2.48,2.48,0,0,0,.66,1.38,1.65,1.65,0,0,0,1.14.43,1.84,1.84,0,0,0,1.35-.56,1.86,1.86,0,0,0,.55-1.36,1.75,1.75,0,0,0-.51-1.29,1.78,1.78,0,0,0-1.29-.5,3.37,3.37,0,0,0-.8.12l.12-1h.19a2.29,2.29,0,0,0,1.29-.37,1.28,1.28,0,0,0,.58-1.16,1.36,1.36,0,0,0-.42-1,1.49,1.49,0,0,0-1.08-.41,1.56,1.56,0,0,0-1.1.41,2.15,2.15,0,0,0-.57,1.25l-1.13-.2a2.89,2.89,0,0,1,1-1.76,2.67,2.67,0,0,1,1.82-.63,3.09,3.09,0,0,1,1.39.32,2.39,2.39,0,0,1,1,.89,2.26,2.26,0,0,1,.33,1.18,1.91,1.91,0,0,1-.32,1.09,2.3,2.3,0,0,1-.94.78,2.08,2.08,0,0,1,1.26.78,2.37,2.37,0,0,1,.46,1.48,2.74,2.74,0,0,1-.88,2,3.1,3.1,0,0,1-2.22.84,2.92,2.92,0,0,1-2-.72A2.83,2.83,0,0,1,591.81,209.07Z"/><path class="cls-2" d="M599.59,211.5v-1.29h1.28v1.29Z"/><path class="cls-2" d="M604.24,206.51a2.17,2.17,0,0,1-1-.73,2,2,0,0,1-.34-1.15,2.21,2.21,0,0,1,.72-1.68,3,3,0,0,1,3.86,0,2.28,2.28,0,0,1,.74,1.7,1.86,1.86,0,0,1-.34,1.12,2.11,2.11,0,0,1-1,.73,2.34,2.34,0,0,1,1.73,2.36,2.62,2.62,0,0,1-.83,2,3.41,3.41,0,0,1-4.39,0,2.68,2.68,0,0,1-.84-2,2.42,2.42,0,0,1,.46-1.51A2.28,2.28,0,0,1,604.24,206.51Zm-.59,2.33a2.07,2.07,0,0,0,.23.94,1.7,1.7,0,0,0,.68.7,2.07,2.07,0,0,0,1,.25,1.8,1.8,0,0,0,1.33-.53,1.76,1.76,0,0,0,.53-1.32,1.83,1.83,0,0,0-.54-1.35,1.9,1.9,0,0,0-1.36-.53,1.76,1.76,0,0,0-1.32.53A1.79,1.79,0,0,0,603.65,208.84Zm.37-4.24a1.42,1.42,0,0,0,.42,1.06,1.47,1.47,0,0,0,1.09.42,1.49,1.49,0,0,0,1.07-.41,1.37,1.37,0,0,0,.42-1,1.45,1.45,0,0,0-.43-1,1.49,1.49,0,0,0-1.07-.42,1.53,1.53,0,0,0-1.08.41A1.36,1.36,0,0,0,604,204.6Z"/><line class="cls-5" x1="585.91" y1="285.63" x2="794.29" y2="285.63"/><line class="cls-14" x1="117.04" y1="412.76" x2="749.59" y2="412.76"/><path class="cls-2" d="M105.33,416.92l3.55-4.8-3.13-4.4h1.44l1.67,2.36a11.9,11.9,0,0,1,.74,1.13,11.83,11.83,0,0,1,.73-1l1.85-2.44h1.33l-3.23,4.34,3.48,4.86h-1.51l-2.31-3.28c-.13-.19-.27-.4-.4-.62-.21.34-.36.57-.44.69l-2.31,3.21Z"/><path class="cls-2" d="M756.17,416.92l3.56-4.8-3.14-4.4H758l1.67,2.36c.35.49.59.87.74,1.13a10,10,0,0,1,.73-1l1.85-2.44h1.32l-3.23,4.34,3.48,4.86h-1.5l-2.32-3.28c-.13-.19-.26-.4-.4-.62-.21.34-.35.57-.44.69l-2.31,3.21Z"/><line class="cls-7" x1="466.14" y1="488.52" x2="487.88" y2="488.52"/><polygon class="cls-11" points="468.26 491.63 456.64 488.51 468.26 485.4 468.26 491.63"/><polygon class="cls-11" points="485.75 491.5 497.38 488.39 485.75 485.27 485.75 491.5"/><path class="cls-2" d="M534.09,483.59H533v-7.2a5.82,5.82,0,0,1-1.07.78,7.12,7.12,0,0,1-1.19.58v-1.09a6.79,6.79,0,0,0,1.66-1.08,4.1,4.1,0,0,0,1-1.23h.73Z"/><path class="cls-2" d="M542.92,482.5v1.09h-6.08a2.12,2.12,0,0,1,.13-.79,4.11,4.11,0,0,1,.75-1.22,11.35,11.35,0,0,1,1.47-1.39,12.47,12.47,0,0,0,2-1.95,2.35,2.35,0,0,0,.53-1.36,1.49,1.49,0,0,0-.48-1.13,1.73,1.73,0,0,0-1.26-.46,1.75,1.75,0,0,0-1.3.49,1.84,1.84,0,0,0-.5,1.35l-1.16-.12a2.88,2.88,0,0,1,.9-2,3.09,3.09,0,0,1,2.09-.68,2.94,2.94,0,0,1,2.1.74,2.4,2.4,0,0,1,.77,1.81,2.81,2.81,0,0,1-.23,1.09,4.06,4.06,0,0,1-.75,1.12,16.9,16.9,0,0,1-1.74,1.62c-.68.57-1.11,1-1.3,1.16a3.2,3.2,0,0,0-.48.61Z"/><line class="cls-7" x1="497.38" y1="488.52" x2="545.53" y2="488.52"/><line class="cls-5" x1="129.08" y1="422.25" x2="129.08" y2="710.7"/><polygon class="cls-11" points="126.09 424.38 129.21 412.75 132.32 424.38 126.09 424.38"/><polygon class="cls-11" points="126.09 708.58 129.21 720.2 132.32 708.58 126.09 708.58"/><line class="cls-7" x1="527.51" y1="163.01" x2="527.4" y2="49"/><line class="cls-7" x1="527.37" y1="163.09" x2="561.05" y2="163.09"/></g><g id="Watermark"><rect class="cls-15" x="444.86" y="680.07" width="62.89" height="30.62"/><rect class="cls-15" x="507.75" y="680.07" width="47.39" height="30.62"/><path class="cls-16" d="M466.48,686.17l-2.79,18.92H461l-1.55-11-1.53,11h-2.74l-2.8-18.92h2.51l1.79,14.18,1.79-14.18h2l1.79,14.18L464,686.17Z"/><path class="cls-16" d="M467.93,705.09V686.17h2.53v18.92Z"/><path class="cls-16" d="M472.83,686.17h5q2.9,0,2.9,3.24v4.67c0,1.65-.51,2.69-1.51,3.13l1.77,7.88h-2.4l-1.66-7.64h-1.53v7.64h-2.53Zm2.53,9.12H477c.76,0,1.14-.46,1.14-1.37v-4.08c0-.92-.38-1.37-1.14-1.37h-1.66Z"/><path class="cls-16" d="M486.82,688.47v16.62h-2.53V688.47h-2.42v-2.3h7.38v2.3Z"/><path class="cls-16" d="M496.34,705.09V696.5h-3.11v8.59H490.7V686.17h2.53v8h3.11v-8h2.53v18.92Z"/><path class="cls-16" d="M516.31,686.17h5q2.9,0,2.89,3.24v4.67c0,1.65-.5,2.69-1.5,3.13l1.77,7.88H522l-1.66-7.64h-1.53v7.64h-2.53Zm2.53,9.12h1.66c.76,0,1.13-.46,1.13-1.37v-4.08c0-.92-.37-1.37-1.13-1.37h-1.66Z"/><path class="cls-16" d="M528.67,705.09h-2.53V689.41q0-3.24,3-3.24h1.9q3,0,3,3.24v15.68h-2.53v-6.93h-2.9Zm2.9-9.22v-6.3a1,1,0,0,0-1.11-1.1h-.68a1,1,0,0,0-1.11,1.1v6.3Z"/><path class="cls-16" d="M536.34,705.09V686.17h2.53v18.92Z"/><path class="cls-16" d="M547.24,705.09h-6V686.17h2.53V702.8h3.47Z"/></g></svg>