<svg xmlns="http://www.w3.org/2000/svg" viewBox="0 0 1000 800"><defs><style>.cls-1,.cls-12{fill:#f0f0f0;}.cls-10,.cls-11,.cls-2,.cls-4,.cls-6,.cls-7,.cls-8,.cls-9{fill:none;}.cls-10,.cls-2,.cls-6,.cls-7,.cls-8,.cls-9{stroke:#221e1f;}.cls-10,.cls-11,.cls-2,.cls-6,.cls-7,.cls-8,.cls-9{stroke-width:0.89px;}.cls-3{fill:#221e1f;}.cls-11,.cls-4{stroke:#303030;}.cls-4{stroke-width:0.9px;}.cls-5{fill:#303030;}.cls-6{stroke-dasharray:18.74 5.67;}.cls-11,.cls-12,.cls-7{stroke-miterlimit:10;}.cls-8{stroke-miterlimit:1;}.cls-9{stroke-dasharray:18.87 5.8;}.cls-10{stroke-dasharray:18.81 5.74;}.cls-12{stroke:#ccc;}.cls-13{fill:#ccc;}</style></defs><g id="Flat"><path class="cls-1" d="M452.53,630.65a32.39,32.39,0,0,1-29.16,32.22l-237,23.69a6.49,6.49,0,0,0-5.84,6.45v13.57a6.48,6.48,0,0,0,6.48,6.48H756.91a6.48,6.48,0,0,0,6.48-6.48V693a6.5,6.5,0,0,0-5.83-6.45l-237-23.69a32.39,32.39,0,0,1-29.16-32.22V356.85a32.37,32.37,0,0,1,26-31.75l119.31-23.86A97.15,97.15,0,0,0,714.81,206V143.14a13,13,0,0,0-12.95-12.95H648.07A13,13,0,0,0,635.29,141l-14.91,89.47A38.85,38.85,0,0,1,582.05,263H570.71a38.86,38.86,0,0,1-38.33-32.47l-11.77-70.61a32.39,32.39,0,0,0-29.13-26.94,728.59,728.59,0,0,0-140.71,1.39,13,13,0,0,0-11.58,12.88v79.23a13,13,0,0,0,10.41,12.7l76.9,15.37a32.39,32.39,0,0,1,26,31.76Z"/><path class="cls-2" d="M452.53,630.65a32.39,32.39,0,0,1-29.16,32.22l-237,23.69a6.49,6.49,0,0,0-5.84,6.45v13.57a6.48,6.48,0,0,0,6.48,6.48H756.91a6.48,6.48,0,0,0,6.48-6.48V693a6.5,6.5,0,0,0-5.83-6.45l-237-23.69a32.39,32.39,0,0,1-29.16-32.22V356.85a32.37,32.37,0,0,1,26-31.75l119.31-23.86A97.15,97.15,0,0,0,714.81,206V143.14a13,13,0,0,0-12.95-12.95H648.07A13,13,0,0,0,635.29,141l-14.91,89.47A38.85,38.85,0,0,1,582.05,263H570.71a38.86,38.86,0,0,1-38.33-32.47l-11.77-70.61a32.39,32.39,0,0,0-29.13-26.94,728.59,728.59,0,0,0-140.71,1.39,13,13,0,0,0-11.58,12.88v79.23a13,13,0,0,0,10.41,12.7l76.9,15.37a32.39,32.39,0,0,1,26,31.76Z"/><path class="cls-2" d="M348.17,18h357m-186,31.27L519.42,155M631.06,49.29v111"/><polygon class="cls-3" points="350.28 20.98 338.72 17.89 350.28 14.79 350.28 20.98"/><polygon class="cls-3" points="703.02 20.98 714.58 17.89 703.02 14.79 703.02 20.98"/><line class="cls-2" x1="348.17" y1="57.11" x2="509.86" y2="57.11"/><polygon class="cls-3" points="350.28 60.08 338.72 56.98 350.28 53.88 350.28 60.08"/><polygon class="cls-3" points="507.75 60.08 519.31 56.98 507.75 53.88 507.75 60.08"/><line class="cls-2" x1="528.75" y1="57.11" x2="621.61" y2="57.11"/><polygon class="cls-3" points="530.87 60.08 519.31 56.98 530.87 53.88 530.87 60.08"/><polygon class="cls-3" points="619.49 60.08 631.05 56.98 619.49 53.88 619.49 60.08"/><line class="cls-2" x1="480.56" y1="98.87" x2="509.65" y2="98.87"/><polygon class="cls-3" points="482.67 101.84 471.11 98.75 482.67 95.65 482.67 101.84"/><polygon class="cls-3" points="507.53 101.84 519.09 98.75 507.53 95.65 507.53 101.84"/><polyline class="cls-2" points="337.21 127.69 298.33 86.22 218.81 86.22"/><polygon class="cls-3" points="338.11 123.23 345.17 136.42 332.46 128.53 338.11 123.23"/><polyline class="cls-2" points="717.69 126.38 758 85.68 823.89 85.68"/><polygon class="cls-3" points="721.29 126.96 710.96 133 716.89 122.61 721.29 126.96"/><polyline class="cls-2" points="631.18 128.67 611.06 107.64 572.44 107.64"/><polygon class="cls-3" points="631.87 125.09 637.62 135.59 627.39 129.38 631.87 125.09"/><polyline class="cls-2" points="509.44 649.25 572.3 593.28 649.09 593.28"/><polygon class="cls-3" points="512.99 650.06 502.3 655.43 508.87 645.43 512.99 650.06"/><polyline class="cls-2" points="432.97 649.88 413.46 631.45 336.67 631.45"/><polygon class="cls-3" points="433.47 646.27 439.75 656.46 429.22 650.78 433.47 646.27"/><polyline class="cls-2" points="693.86 279.78 735.26 318.89 792.35 318.89"/><polygon class="cls-3" points="693.36 283.39 687.08 273.2 697.61 278.89 693.36 283.39"/><polyline class="cls-4" points="509.22 341.2 554.06 371.66 619.32 371.66"/><polygon class="cls-5" points="509.23 344.98 501.35 335.85 512.74 339.81 509.23 344.98"/><polyline class="cls-2" points="505.27 163.24 455.73 169.23 402.5 169.23"/><polygon class="cls-3" points="502.82 160.55 514.66 162.23 503.56 166.7 502.82 160.55"/><polyline class="cls-4" points="438.98 273.29 354.71 337.15 289.45 337.15"/><polygon class="cls-5" points="435.4 272.09 446.57 267.54 439.17 277.07 435.4 272.09"/><line class="cls-2" x1="436.13" y1="589.64" x2="460.78" y2="589.64"/><polygon class="cls-3" points="438.25 592.61 426.69 589.52 438.25 586.42 438.25 592.61"/><polygon class="cls-3" points="458.67 592.61 470.23 589.52 458.67 586.42 458.67 592.61"/><line class="cls-2" x1="116.29" y1="703.81" x2="116.29" y2="139.32"/><polygon class="cls-3" points="119.26 701.69 116.16 713.25 113.06 701.69 119.26 701.69"/><polygon class="cls-3" points="119.26 141.44 116.16 129.88 113.06 141.44 119.26 141.44"/><line class="cls-2" x1="773.31" y1="253.82" x2="773.31" y2="139.8"/><polygon class="cls-3" points="776.28 251.71 773.18 263.27 770.09 251.71 776.28 251.71"/><polygon class="cls-3" points="776.28 141.91 773.18 130.35 770.09 141.91 776.28 141.91"/><line class="cls-2" x1="828.89" y1="324.81" x2="828.89" y2="140.23"/><polygon class="cls-3" points="831.86 322.7 828.77 334.26 825.67 322.7 831.86 322.7"/><polygon class="cls-3" points="831.86 142.34 828.77 130.78 825.67 142.34 831.86 142.34"/><line class="cls-2" x1="829.1" y1="702.67" x2="829.1" y2="407.91"/><polygon class="cls-3" points="832.07 700.55 828.97 712.12 825.88 700.55 832.07 700.55"/><polygon class="cls-3" points="832.07 410.02 828.97 398.46 825.88 410.02 832.07 410.02"/><line class="cls-4" x1="260.65" y1="264.92" x2="471.11" y2="264.92"/><path class="cls-2" d="M352.94,589.64H432M159.82,659h310M569.74,263h209.1M520,160.52h45.39"/><polyline class="cls-4" points="855.86 334.64 471.23 334.64 509.9 327.58"/><line class="cls-2" x1="584.04" y1="160.26" x2="633.33" y2="160.26"/><line class="cls-6" x1="211.77" y1="398.61" x2="840.86" y2="398.61"/><path class="cls-2" d="M339,10.12V146.38M715,10.64V146.9M180.52,706.58v84.77m582.87-84.77v84.18M107.07,129.88h750.6M106.26,713.1H857.67"/><polyline class="cls-4" points="335.95 242.01 272.83 303.54 203.52 303.54"/><polygon class="cls-5" points="332.25 241.26 342.77 235.36 336.61 245.73 332.25 241.26"/><path class="cls-7" d="M524,160.33a4.89,4.89,0,1,1-4.89-4.89A4.89,4.89,0,0,1,524,160.33Zm112,0a4.89,4.89,0,1,1-4.89-4.89A4.89,4.89,0,0,1,635.94,160.33ZM432.46,552.18a4.89,4.89,0,1,1-4.88-4.89A4.87,4.87,0,0,1,432.46,552.18Z"/><polyline class="cls-4" points="349.04 144.38 370.71 345.15 403.58 340.71 427.58 552.17 446.24 343.37 470.23 346.04 488.04 144.05"/><polygon class="cls-5" points="346.16 146.84 348.01 134.92 352.37 146.17 346.16 146.84"/><polygon class="cls-5" points="490.97 146.44 488.88 134.56 484.75 145.89 490.97 146.44"/><line class="cls-4" x1="471.11" y1="264.92" x2="431.46" y2="255.92"/><polyline class="cls-2" points="566.72 253.23 575.07 198.33 585.73 253.91"/><polygon class="cls-3" points="569.97 251.59 565.17 262.55 563.85 250.66 569.97 251.59"/><polygon class="cls-3" points="582.42 252.4 587.64 263.17 588.5 251.23 582.42 252.4"/><line class="cls-2" x1="427.58" y1="557.06" x2="427.58" y2="593.05"/><path class="cls-5" d="M519.14,12.41H518V5.25A5.71,5.71,0,0,1,517,6a7.9,7.9,0,0,1-1.18.58V5.52a7.07,7.07,0,0,0,1.64-1.08,4.07,4.07,0,0,0,1-1.22h.73Z"/><path class="cls-5" d="M525.3,12.41h-1.13V5.25a5.71,5.71,0,0,1-1.06.77,7.9,7.9,0,0,1-1.18.58V5.52a7.07,7.07,0,0,0,1.64-1.08,4.07,4.07,0,0,0,1-1.22h.73Z"/><path class="cls-5" d="M534,5.5l-1.12.09a2.15,2.15,0,0,0-.42-1,1.5,1.5,0,0,0-1.12-.48,1.56,1.56,0,0,0-1,.3,2.59,2.59,0,0,0-.83,1.13,5.83,5.83,0,0,0-.32,2.12,2.63,2.63,0,0,1,1-.92,2.66,2.66,0,0,1,1.23-.3,2.54,2.54,0,0,1,1.91.83,3,3,0,0,1,.79,2.14,3.51,3.51,0,0,1-.37,1.6,2.74,2.74,0,0,1-1,1.13,2.78,2.78,0,0,1-1.47.39,2.86,2.86,0,0,1-2.29-1,5.21,5.21,0,0,1-.89-3.4,6.12,6.12,0,0,1,1-3.86,2.82,2.82,0,0,1,2.3-1A2.46,2.46,0,0,1,534,5.5Zm-4.59,3.94a2.65,2.65,0,0,0,.25,1.11,1.73,1.73,0,0,0,.69.81,1.66,1.66,0,0,0,.93.28,1.57,1.57,0,0,0,1.22-.58A2.26,2.26,0,0,0,533,9.5a2.08,2.08,0,0,0-.5-1.49,1.68,1.68,0,0,0-1.27-.55,1.78,1.78,0,0,0-1.3.55A2,2,0,0,0,529.41,9.44Z"/><path class="cls-5" d="M544.84,15.1a11.09,11.09,0,0,1-1.57-2.75,8.57,8.57,0,0,1-.17-6.1,12.21,12.21,0,0,1,1.74-3.15h.8q-.75,1.31-1,1.86a9.19,9.19,0,0,0-.6,1.79,10.4,10.4,0,0,0-.27,2.35,11.31,11.31,0,0,0,1.86,6Z"/><path class="cls-5" d="M550.88,12.41V10.22h-4v-1l4.17-5.93H552V9.19h1.24v1H552v2.19Zm0-3.22V5.06L548,9.19Z"/><path class="cls-5" d="M555,12.41V11.13h1.28v1.28Z"/><path class="cls-5" d="M557.93,10l1.18-.1a2.09,2.09,0,0,0,.61,1.29,1.65,1.65,0,0,0,1.15.44,1.84,1.84,0,0,0,1.38-.61,2.34,2.34,0,0,0,.56-1.63,2.07,2.07,0,0,0-.54-1.51,1.89,1.89,0,0,0-1.42-.56,1.93,1.93,0,0,0-1,.25,1.82,1.82,0,0,0-.68.64l-1.06-.14.89-4.7h4.55V4.46h-3.65l-.49,2.45a3,3,0,0,1,1.72-.57,2.77,2.77,0,0,1,2,.83A2.89,2.89,0,0,1,564,9.3a3.34,3.34,0,0,1-.72,2.15,3.22,3.22,0,0,1-4.44.41A2.72,2.72,0,0,1,557.93,10Z"/><path class="cls-5" d="M570.87,5.5l-1.12.09a2.15,2.15,0,0,0-.42-1,1.5,1.5,0,0,0-1.12-.48,1.56,1.56,0,0,0-1,.3,2.59,2.59,0,0,0-.83,1.13,5.83,5.83,0,0,0-.32,2.12,2.63,2.63,0,0,1,1-.92,2.66,2.66,0,0,1,1.23-.3,2.54,2.54,0,0,1,1.91.83A3,3,0,0,1,571,9.44a3.51,3.51,0,0,1-.37,1.6,2.74,2.74,0,0,1-1,1.13,2.78,2.78,0,0,1-1.47.39,2.86,2.86,0,0,1-2.29-1,5.21,5.21,0,0,1-.89-3.4,6.12,6.12,0,0,1,1-3.86,2.82,2.82,0,0,1,2.3-1,2.46,2.46,0,0,1,2.6,2.28Zm-4.59,3.94a2.65,2.65,0,0,0,.25,1.11,1.73,1.73,0,0,0,.69.81,1.68,1.68,0,0,0,.93.28,1.57,1.57,0,0,0,1.22-.58,2.26,2.26,0,0,0,.51-1.56,2.08,2.08,0,0,0-.5-1.49,1.68,1.68,0,0,0-1.27-.55,1.78,1.78,0,0,0-1.3.55A2,2,0,0,0,566.28,9.44Z"/><path class="cls-5" d="M572.22,4.46V3.38h5.93v.87a12.42,12.42,0,0,0-1.74,2.47,15.21,15.21,0,0,0-1.32,3.17,11.32,11.32,0,0,0-.43,2.52H573.5a11.72,11.72,0,0,1,.43-2.61,14,14,0,0,1,1.16-3,12.74,12.74,0,0,1,1.61-2.39Z"/><path class="cls-5" d="M579.62,6.5l-.31-1.74V3.26h1.28v1.5l-.28,1.74Zm2.07,0-.31-1.74V3.26h1.28v1.5l-.3,1.74Z"/><path class="cls-5" d="M584.81,15.1H584a11.31,11.31,0,0,0,1.86-6,10.22,10.22,0,0,0-.27-2.33A9.48,9.48,0,0,0,585,5c-.16-.37-.5-1-1-1.87h.8a12.21,12.21,0,0,1,1.74,3.15,8.57,8.57,0,0,1-.17,6.1A11.42,11.42,0,0,1,584.81,15.1Z"/><path class="cls-5" d="M552.69,50l1.12-.15a2.48,2.48,0,0,0,.66,1.37,1.63,1.63,0,0,0,1.13.42,1.8,1.8,0,0,0,1.34-.55,1.82,1.82,0,0,0,.55-1.36,1.73,1.73,0,0,0-1.79-1.77,3.37,3.37,0,0,0-.8.12l.13-1,.18,0a2.3,2.3,0,0,0,1.29-.38,1.26,1.26,0,0,0,.58-1.15,1.38,1.38,0,0,0-.42-1,1.49,1.49,0,0,0-1.08-.4,1.54,1.54,0,0,0-1.09.41,2.05,2.05,0,0,0-.56,1.24l-1.13-.2a2.86,2.86,0,0,1,.94-1.75,2.65,2.65,0,0,1,1.81-.62,2.92,2.92,0,0,1,1.38.32,2.35,2.35,0,0,1,1,.87,2.29,2.29,0,0,1,.33,1.18,1.93,1.93,0,0,1-.32,1.08,2.16,2.16,0,0,1-.94.78,2.11,2.11,0,0,1,1.26.77,2.39,2.39,0,0,1,.45,1.48,2.71,2.71,0,0,1-.87,2,3.07,3.07,0,0,1-2.21.83,2.89,2.89,0,0,1-2-.71A2.76,2.76,0,0,1,552.69,50Z"/><path class="cls-5" d="M563.39,52.38V50.19h-4v-1l4.18-5.93h.91v5.93h1.24v1h-1.24v2.19Zm0-3.22V45l-2.86,4.12Z"/><path class="cls-5" d="M567.53,52.38V51.1h1.28v1.28Z"/><path class="cls-5" d="M574.05,52.38V50.19h-4v-1l4.18-5.93h.91v5.93h1.24v1h-1.24v2.19Zm0-3.22V45l-2.87,4.12Z"/><path class="cls-5" d="M581.16,52.38V50.19h-4v-1l4.17-5.93h.92v5.93h1.24v1h-1.24v2.19Zm0-3.22V45l-2.87,4.12Z"/><path class="cls-5" d="M406.52,50l1.18-.1a2.12,2.12,0,0,0,.61,1.29,1.65,1.65,0,0,0,1.15.44,1.78,1.78,0,0,0,1.37-.62,2.25,2.25,0,0,0,.56-1.62,2.11,2.11,0,0,0-.54-1.52,1.88,1.88,0,0,0-1.41-.55,1.91,1.91,0,0,0-1,.25,1.85,1.85,0,0,0-.69.64l-1-.14.88-4.7h4.55v1.07H408.5L408,46.94a3,3,0,0,1,1.73-.57,2.71,2.71,0,0,1,2,.83,2.88,2.88,0,0,1,.82,2.13,3.36,3.36,0,0,1-.72,2.15,2.91,2.91,0,0,1-2.4,1.11,3,3,0,0,1-2-.7A2.69,2.69,0,0,1,406.52,50Z"/><path class="cls-5" d="M419.45,45.53l-1.11.08a2,2,0,0,0-.43-1,1.47,1.47,0,0,0-1.12-.48,1.53,1.53,0,0,0-.94.3A2.55,2.55,0,0,0,415,45.6a6,6,0,0,0-.32,2.12,2.51,2.51,0,0,1,1-.92,2.66,2.66,0,0,1,1.23-.3,2.53,2.53,0,0,1,1.91.83,3,3,0,0,1,.79,2.13,3.58,3.58,0,0,1-.37,1.6,2.77,2.77,0,0,1-1,1.14,2.85,2.85,0,0,1-1.48.39,2.91,2.91,0,0,1-2.29-1,5.24,5.24,0,0,1-.88-3.41,6,6,0,0,1,1-3.85,2.8,2.8,0,0,1,2.3-1,2.6,2.6,0,0,1,1.77.6A2.57,2.57,0,0,1,419.45,45.53Zm-4.58,3.94a2.64,2.64,0,0,0,.24,1.11,2,2,0,0,0,.69.81,1.8,1.8,0,0,0,.93.28,1.6,1.6,0,0,0,1.23-.58,2.26,2.26,0,0,0,.51-1.56A2.09,2.09,0,0,0,418,48a1.63,1.63,0,0,0-1.27-.55,1.7,1.7,0,0,0-1.29.55A2,2,0,0,0,414.87,49.47Z"/><path class="cls-5" d="M421.36,52.43V51.15h1.28v1.28Z"/><path class="cls-5" d="M424.28,47.92a8.43,8.43,0,0,1,.34-2.61,3.24,3.24,0,0,1,1-1.53,2.58,2.58,0,0,1,1.66-.53,2.79,2.79,0,0,1,1.29.29,2.6,2.6,0,0,1,.92.86,4.35,4.35,0,0,1,.56,1.36,8.81,8.81,0,0,1,.21,2.16,8.44,8.44,0,0,1-.33,2.6,3.24,3.24,0,0,1-1,1.53,2.78,2.78,0,0,1-3.74-.41A6,6,0,0,1,424.28,47.92Zm1.16,0a5.66,5.66,0,0,0,.53,3,1.5,1.5,0,0,0,2.6,0,5.76,5.76,0,0,0,.53-3,5.74,5.74,0,0,0-.53-3,1.55,1.55,0,0,0-1.31-.74,1.46,1.46,0,0,0-1.24.65A5.79,5.79,0,0,0,425.44,47.92Z"/><path class="cls-5" d="M431.4,50l1.12-.15a2.48,2.48,0,0,0,.66,1.37,1.6,1.6,0,0,0,1.13.43,1.88,1.88,0,0,0,1.89-1.91A1.73,1.73,0,0,0,434.41,48a3.37,3.37,0,0,0-.8.12l.13-1h.18a2.3,2.3,0,0,0,1.29-.38,1.28,1.28,0,0,0,.58-1.15,1.36,1.36,0,0,0-.42-1,1.49,1.49,0,0,0-1.08-.41,1.54,1.54,0,0,0-1.09.41,2.09,2.09,0,0,0-.57,1.24l-1.12-.2a2.88,2.88,0,0,1,.94-1.75,2.65,2.65,0,0,1,1.81-.62,2.92,2.92,0,0,1,1.38.32,2.37,2.37,0,0,1,1,.88,2.25,2.25,0,0,1,.33,1.17,1.93,1.93,0,0,1-.32,1.08,2.1,2.1,0,0,1-.94.78,2.08,2.08,0,0,1,1.26.78,2.34,2.34,0,0,1,.45,1.47,2.69,2.69,0,0,1-.87,2,3.07,3.07,0,0,1-2.21.83,2.85,2.85,0,0,1-2-.71A2.76,2.76,0,0,1,431.4,50Z"/><path class="cls-5" d="M482.7,93h-1.12V85.85a5.38,5.38,0,0,1-1.07.77,7.6,7.6,0,0,1-1.18.59V86.12A6.9,6.9,0,0,0,481,85.05a4.26,4.26,0,0,0,1-1.23h.72Z"/><path class="cls-5" d="M485.58,90.61l1.18-.1a2.07,2.07,0,0,0,.61,1.3,1.63,1.63,0,0,0,1.15.43,1.77,1.77,0,0,0,1.37-.61,2.33,2.33,0,0,0,.56-1.62,2.09,2.09,0,0,0-.54-1.52,1.88,1.88,0,0,0-1.41-.55,2,2,0,0,0-1,.24,2,2,0,0,0-.69.64l-1.05-.14.88-4.69h4.55v1.07h-3.65l-.49,2.46a2.92,2.92,0,0,1,1.73-.58,2.75,2.75,0,0,1,2,.83,2.92,2.92,0,0,1,.82,2.14,3.31,3.31,0,0,1-.72,2.14,2.91,2.91,0,0,1-2.4,1.11,3,3,0,0,1-2-.69A2.71,2.71,0,0,1,485.58,90.61Z"/><path class="cls-5" d="M493.32,93V91.73h1.27V93Z"/><path class="cls-5" d="M496.24,88.5a8.42,8.42,0,0,1,.33-2.61,3.24,3.24,0,0,1,1-1.53,2.53,2.53,0,0,1,1.66-.54,2.67,2.67,0,0,1,1.29.3,2.49,2.49,0,0,1,.92.85,4.84,4.84,0,0,1,.57,1.36,9.57,9.57,0,0,1,.2,2.17,8.44,8.44,0,0,1-.33,2.6,3.21,3.21,0,0,1-1,1.52,2.79,2.79,0,0,1-3.74-.4A6.07,6.07,0,0,1,496.24,88.5Zm1.15,0a5.76,5.76,0,0,0,.53,3,1.51,1.51,0,0,0,2.6,0,5.75,5.75,0,0,0,.53-3,5.71,5.71,0,0,0-.53-3,1.56,1.56,0,0,0-1.31-.75,1.44,1.44,0,0,0-1.24.66A5.79,5.79,0,0,0,497.39,88.5Z"/><path class="cls-5" d="M503.35,90.59l1.12-.15a2.48,2.48,0,0,0,.66,1.38,1.63,1.63,0,0,0,1.13.42,1.8,1.8,0,0,0,1.34-.55,1.82,1.82,0,0,0,.55-1.36,1.74,1.74,0,0,0-1.79-1.78,3,3,0,0,0-.8.13l.13-1h.18a2.29,2.29,0,0,0,1.29-.37,1.26,1.26,0,0,0,.58-1.15,1.36,1.36,0,0,0-.42-1,1.66,1.66,0,0,0-2.17,0,2,2,0,0,0-.56,1.23l-1.13-.2a2.91,2.91,0,0,1,.94-1.75,2.7,2.7,0,0,1,1.81-.62,3,3,0,0,1,1.38.32,2.44,2.44,0,0,1,1,.88,2.26,2.26,0,0,1,.33,1.18,1.93,1.93,0,0,1-.32,1.08,2.15,2.15,0,0,1-.94.77,2.17,2.17,0,0,1,1.26.78,2.37,2.37,0,0,1,.45,1.48,2.71,2.71,0,0,1-.87,2,3.11,3.11,0,0,1-2.21.83,2.86,2.86,0,0,1-2-.72A2.76,2.76,0,0,1,503.35,90.59Z"/><path class="cls-5" d="M628.28,589v-9.15h4.05a5.22,5.22,0,0,1,1.86.25,2,2,0,0,1,1,.87,2.6,2.6,0,0,1,.38,1.38A2.3,2.3,0,0,1,635,584a3.22,3.22,0,0,1-2,.85,2.89,2.89,0,0,1,.73.45,6.31,6.31,0,0,1,1,1.22l1.59,2.49h-1.52l-1.21-1.9c-.36-.55-.65-1-.88-1.27a2.89,2.89,0,0,0-.61-.61,2.1,2.1,0,0,0-.56-.24,3.55,3.55,0,0,0-.67,0h-1.4V589Zm1.21-5.11h2.6a4,4,0,0,0,1.3-.17,1.42,1.42,0,0,0,.71-.55,1.51,1.51,0,0,0,.24-.82,1.37,1.37,0,0,0-.47-1.07,2.19,2.19,0,0,0-1.49-.42h-2.89Z"/><path class="cls-5" d="M641.26,589h-1.12v-7.16a6.07,6.07,0,0,1-1.06.78,8.5,8.5,0,0,1-1.19.58v-1.09a6.9,6.9,0,0,0,1.65-1.07,4.26,4.26,0,0,0,1-1.23h.72Z"/><path class="cls-5" d="M644.12,584.46a8.13,8.13,0,0,1,.34-2.61,3.24,3.24,0,0,1,1-1.53,2.53,2.53,0,0,1,1.66-.54,2.67,2.67,0,0,1,1.29.3,2.47,2.47,0,0,1,.91.85,4.52,4.52,0,0,1,.57,1.37,8.81,8.81,0,0,1,.21,2.16,8.44,8.44,0,0,1-.33,2.6,3.24,3.24,0,0,1-1,1.53,2.55,2.55,0,0,1-1.66.54,2.51,2.51,0,0,1-2.08-1A6,6,0,0,1,644.12,584.46Zm1.16,0a5.79,5.79,0,0,0,.52,3,1.58,1.58,0,0,0,1.31.74,1.56,1.56,0,0,0,1.3-.75,8.89,8.89,0,0,0,0-6,1.56,1.56,0,0,0-1.32-.75,1.44,1.44,0,0,0-1.23.66A5.79,5.79,0,0,0,645.28,584.46Z"/><path class="cls-5" d="M595.9,366.2v-9.14H600a5.5,5.5,0,0,1,1.86.24,2.14,2.14,0,0,1,1,.87,2.65,2.65,0,0,1,.38,1.38,2.29,2.29,0,0,1-.63,1.64,3.16,3.16,0,0,1-2,.85,3.44,3.44,0,0,1,.73.46,6.6,6.6,0,0,1,1,1.21L604,366.2h-1.53l-1.21-1.9q-.53-.82-.87-1.26a2.66,2.66,0,0,0-.61-.61,2,2,0,0,0-.56-.25,4.7,4.7,0,0,0-.67,0h-1.41v4.06Zm1.21-5.11h2.61a3.82,3.82,0,0,0,1.3-.17,1.41,1.41,0,0,0,.71-.55,1.48,1.48,0,0,0,.24-.82,1.39,1.39,0,0,0-.47-1.07,2.27,2.27,0,0,0-1.49-.41h-2.9Z"/><path class="cls-5" d="M608.89,366.2h-1.12v-7.15a6.33,6.33,0,0,1-1.07.77,7.46,7.46,0,0,1-1.18.58v-1.09a6.61,6.61,0,0,0,1.65-1.07,4.37,4.37,0,0,0,1-1.22h.72Z"/><path class="cls-5" d="M611.75,361.69a8.46,8.46,0,0,1,.33-2.61,3.33,3.33,0,0,1,1-1.53,2.57,2.57,0,0,1,1.65-.53,2.79,2.79,0,0,1,1.29.29,2.52,2.52,0,0,1,.92.86,4.6,4.6,0,0,1,.57,1.36,8.81,8.81,0,0,1,.21,2.16,8.44,8.44,0,0,1-.33,2.6,3.32,3.32,0,0,1-1,1.53,2.56,2.56,0,0,1-1.67.54,2.5,2.5,0,0,1-2.07-.95A6,6,0,0,1,611.75,361.69Zm1.15,0a5.76,5.76,0,0,0,.53,3,1.5,1.5,0,0,0,2.6,0,8.76,8.76,0,0,0,0-6,1.56,1.56,0,0,0-1.31-.74,1.43,1.43,0,0,0-1.23.65A5.77,5.77,0,0,0,612.9,361.69Z"/><path class="cls-5" d="M848.63,402.77l3.53-4.77L849,393.62h1.45l1.65,2.35a10.84,10.84,0,0,1,.74,1.12c.21-.33.45-.68.73-1l1.84-2.43h1.31l-3.21,4.31,3.46,4.84h-1.49l-2.31-3.27c-.13-.18-.26-.39-.4-.61-.2.34-.35.56-.43.69l-2.3,3.19Z"/><path class="cls-5" d="M200.11,402.77l3.54-4.77-3.12-4.38H202l1.66,2.35a12.23,12.23,0,0,1,.73,1.12c.21-.33.45-.68.73-1l1.84-2.43h1.32L205,397.93l3.47,4.84H207l-2.3-3.27c-.13-.18-.27-.39-.4-.61-.21.34-.35.56-.44.69l-2.3,3.19Z"/><path class="cls-5" d="M570.33,191.94v-9.15h4.06a5.29,5.29,0,0,1,1.86.25,2,2,0,0,1,1,.87,2.5,2.5,0,0,1,.38,1.37,2.33,2.33,0,0,1-.63,1.65,3.18,3.18,0,0,1-1.94.84,3.44,3.44,0,0,1,.73.46,6,6,0,0,1,1,1.22l1.59,2.49h-1.52L575.66,190q-.52-.83-.87-1.26a2.89,2.89,0,0,0-.62-.61,1.77,1.77,0,0,0-.55-.24,3.42,3.42,0,0,0-.67,0h-1.41v4.07Zm1.21-5.11h2.6a3.71,3.71,0,0,0,1.3-.18,1.35,1.35,0,0,0,.71-.54,1.47,1.47,0,0,0,.25-.83,1.37,1.37,0,0,0-.47-1.06,2.21,2.21,0,0,0-1.49-.42h-2.9Z"/><path class="cls-5" d="M583.32,191.94h-1.13v-7.16a5.29,5.29,0,0,1-1.06.77,7.46,7.46,0,0,1-1.18.58v-1.08A7.13,7.13,0,0,0,581.6,184a4.18,4.18,0,0,0,1-1.22h.73Z"/><path class="cls-5" d="M592.08,190.86v1.08H586a2.07,2.07,0,0,1,.14-.78,4,4,0,0,1,.74-1.22,11.19,11.19,0,0,1,1.46-1.39,12.39,12.39,0,0,0,2-1.93,2.32,2.32,0,0,0,.52-1.35,1.5,1.5,0,0,0-.47-1.13,1.72,1.72,0,0,0-1.25-.46,1.75,1.75,0,0,0-1.3.49,1.87,1.87,0,0,0-.49,1.35l-1.15-.12a2.83,2.83,0,0,1,.89-2,3,3,0,0,1,2.08-.68,2.87,2.87,0,0,1,2.08.73,2.41,2.41,0,0,1,.77,1.81,2.72,2.72,0,0,1-.23,1.08,4.15,4.15,0,0,1-.74,1.12,19.21,19.21,0,0,1-1.73,1.61,17,17,0,0,0-1.3,1.15,3.22,3.22,0,0,0-.47.61Z"/><path class="cls-5" d="M620.25,213.43l-.21,1.11-7-1.31a5.77,5.77,0,0,1,.56,1.19,7.63,7.63,0,0,1,.36,1.27l-1.07-.2a6.91,6.91,0,0,0-.76-1.82,4,4,0,0,0-1-1.2l.13-.71Z"/><path class="cls-5" d="M615.63,209l-1.26-.24.23-1.26,1.26.24Zm5.26,1-1.26-.23.23-1.26,1.26.23Z"/><path class="cls-5" d="M615.69,200.13l-.12,1.12a2.18,2.18,0,0,0-1,.24,1.49,1.49,0,0,0-.68,1,1.63,1.63,0,0,0,.12,1,2.6,2.6,0,0,0,1,1,6.08,6.08,0,0,0,2,.7,2.63,2.63,0,0,1-.79-2.41,2.58,2.58,0,0,1,1.16-1.73,3,3,0,0,1,2.25-.39,3.67,3.67,0,0,1,1.51.66,2.69,2.69,0,0,1,.92,1.21,2.77,2.77,0,0,1,.12,1.52,2.87,2.87,0,0,1-1.43,2.06,5.19,5.19,0,0,1-3.51.25,6.06,6.06,0,0,1-3.61-1.66,2.79,2.79,0,0,1-.61-2.46,2.57,2.57,0,0,1,.91-1.63A2.62,2.62,0,0,1,615.69,200.13Zm3,5.23a2.58,2.58,0,0,0,1.14,0,1.81,1.81,0,0,0,.92-.53,1.73,1.73,0,0,0,.44-.86,1.59,1.59,0,0,0-.34-1.31,2.31,2.31,0,0,0-1.44-.78,2.07,2.07,0,0,0-1.56.22,1.64,1.64,0,0,0-.77,1.15,1.71,1.71,0,0,0,.3,1.37A1.94,1.94,0,0,0,618.73,205.36Z"/><path class="cls-5" d="M405.37,164.43v-9.15h4.06a5.5,5.5,0,0,1,1.86.24,2.14,2.14,0,0,1,1,.87,2.65,2.65,0,0,1,.38,1.38,2.29,2.29,0,0,1-.63,1.64,3.16,3.16,0,0,1-1.95.85,3.44,3.44,0,0,1,.73.46,6.36,6.36,0,0,1,1,1.22l1.59,2.49h-1.53l-1.21-1.91q-.52-.83-.87-1.26a2.89,2.89,0,0,0-.61-.61,1.69,1.69,0,0,0-.56-.24,3.35,3.35,0,0,0-.67,0h-1.41v4.07Zm1.21-5.12h2.61a3.72,3.72,0,0,0,1.29-.17,1.34,1.34,0,0,0,.72-.55,1.48,1.48,0,0,0,.24-.82,1.35,1.35,0,0,0-.47-1.06,2.21,2.21,0,0,0-1.49-.42h-2.9Z"/><path class="cls-5" d="M418.36,164.43h-1.12v-7.16a5.82,5.82,0,0,1-1.07.77,7.46,7.46,0,0,1-1.18.58v-1.08a6.92,6.92,0,0,0,1.65-1.08,4.37,4.37,0,0,0,1-1.22h.72Z"/><path class="cls-5" d="M421.22,159.91a8.46,8.46,0,0,1,.33-2.61,3.23,3.23,0,0,1,1-1.52,2.55,2.55,0,0,1,1.66-.54,2.67,2.67,0,0,1,1.29.3,2.41,2.41,0,0,1,.92.85,4.72,4.72,0,0,1,.57,1.36,9,9,0,0,1,.2,2.16,8.39,8.39,0,0,1-.33,2.6,3.24,3.24,0,0,1-1,1.53,2.78,2.78,0,0,1-3.74-.41A6,6,0,0,1,421.22,159.91Zm1.15,0a5.74,5.74,0,0,0,.53,3,1.5,1.5,0,0,0,2.6,0,8.76,8.76,0,0,0,0-6,1.57,1.57,0,0,0-1.31-.74,1.46,1.46,0,0,0-1.24.65A5.89,5.89,0,0,0,422.37,159.91Z"/><path class="cls-5" d="M291.45,329.64v-9.15h4.06a5.54,5.54,0,0,1,1.86.25,2,2,0,0,1,1,.87,2.65,2.65,0,0,1,.38,1.38,2.29,2.29,0,0,1-.63,1.64,3.16,3.16,0,0,1-1.95.85,3.08,3.08,0,0,1,.73.46,6.2,6.2,0,0,1,1,1.21l1.6,2.49H298l-1.21-1.9q-.52-.83-.87-1.26a2.49,2.49,0,0,0-.62-.61,1.8,1.8,0,0,0-.55-.25,3.62,3.62,0,0,0-.67,0h-1.41v4.06Zm1.21-5.11h2.61a4,4,0,0,0,1.29-.17,1.39,1.39,0,0,0,.72-.55,1.48,1.48,0,0,0,.24-.82,1.39,1.39,0,0,0-.47-1.07,2.21,2.21,0,0,0-1.49-.42h-2.9Z"/><path class="cls-5" d="M304.44,329.64h-1.12v-7.16a5.82,5.82,0,0,1-1.07.78,7.46,7.46,0,0,1-1.18.58v-1.09a6.61,6.61,0,0,0,1.65-1.07,4.37,4.37,0,0,0,1-1.22h.72Z"/><path class="cls-5" d="M307.3,325.13a8.46,8.46,0,0,1,.33-2.61,3.33,3.33,0,0,1,1-1.53,2.5,2.5,0,0,1,1.65-.53,2.79,2.79,0,0,1,1.29.29,2.52,2.52,0,0,1,.92.86,4.6,4.6,0,0,1,.57,1.36,8.81,8.81,0,0,1,.21,2.16,8.4,8.4,0,0,1-.34,2.6,3.24,3.24,0,0,1-1,1.53,2.78,2.78,0,0,1-3.74-.41A6,6,0,0,1,307.3,325.13Zm1.15,0a5.76,5.76,0,0,0,.53,3,1.51,1.51,0,0,0,2.6,0,8.76,8.76,0,0,0,0-6,1.55,1.55,0,0,0-1.31-.74A1.43,1.43,0,0,0,309,322,5.89,5.89,0,0,0,308.45,325.13Z"/><path class="cls-5" d="M360.36,584.05h-1.12v-7.16a5.82,5.82,0,0,1-1.07.78,7.46,7.46,0,0,1-1.18.58v-1.09a6.61,6.61,0,0,0,1.65-1.07,4.37,4.37,0,0,0,1-1.22h.72Z"/><path class="cls-5" d="M363.24,581.64l1.13-.15a2.48,2.48,0,0,0,.66,1.37,1.61,1.61,0,0,0,1.13.42,1.81,1.81,0,0,0,1.34-.55,1.84,1.84,0,0,0,.54-1.36,1.71,1.71,0,0,0-1.79-1.77,3.37,3.37,0,0,0-.79.12l.12-1,.19,0a2.35,2.35,0,0,0,1.29-.38,1.28,1.28,0,0,0,.57-1.15,1.4,1.4,0,0,0-.42-1,1.49,1.49,0,0,0-1.08-.4,1.55,1.55,0,0,0-1.09.41,2.08,2.08,0,0,0-.56,1.24l-1.12-.2a2.85,2.85,0,0,1,.93-1.75,2.68,2.68,0,0,1,1.82-.62,2.92,2.92,0,0,1,1.38.32,2.26,2.26,0,0,1,1,.87,2.3,2.3,0,0,1,.34,1.18,1.93,1.93,0,0,1-.32,1.08,2.13,2.13,0,0,1-1,.78,2.1,2.1,0,0,1,1.27.77,2.38,2.38,0,0,1,.44,1.48,2.71,2.71,0,0,1-.87,2,3,3,0,0,1-2.21.83,2.91,2.91,0,0,1-2-.71A2.81,2.81,0,0,1,363.24,581.64Z"/><path class="cls-5" d="M371,584.05v-1.28h1.27v1.28Z"/><path class="cls-5" d="M373.88,581.65l1.18-.1a2.12,2.12,0,0,0,.61,1.3,1.64,1.64,0,0,0,1.15.43,1.77,1.77,0,0,0,1.37-.61,2.29,2.29,0,0,0,.57-1.62,2.14,2.14,0,0,0-.54-1.52,1.91,1.91,0,0,0-1.42-.55,2,2,0,0,0-1,.24,1.91,1.91,0,0,0-.68.64l-1.06-.13L375,575h4.55v1.07h-3.65l-.5,2.46a3,3,0,0,1,1.73-.57,2.71,2.71,0,0,1,2,.83A2.89,2.89,0,0,1,380,581a3.31,3.31,0,0,1-.73,2.15,2.88,2.88,0,0,1-2.4,1.11,3,3,0,0,1-2-.7A2.8,2.8,0,0,1,373.88,581.65Z"/><path class="cls-5" d="M337.66,624.88v-9.15h4.06a5.46,5.46,0,0,1,1.86.25,2.14,2.14,0,0,1,1,.87,2.65,2.65,0,0,1,.38,1.38,2.29,2.29,0,0,1-.63,1.64,3.16,3.16,0,0,1-2,.85,3.44,3.44,0,0,1,.73.46,6.6,6.6,0,0,1,1,1.21l1.59,2.49H344.2L343,623q-.53-.83-.87-1.26a2.66,2.66,0,0,0-.61-.61,2,2,0,0,0-.56-.25,4.7,4.7,0,0,0-.67,0h-1.41v4.06Zm1.21-5.11h2.61a3.72,3.72,0,0,0,1.29-.17,1.39,1.39,0,0,0,.72-.55,1.48,1.48,0,0,0,.24-.82,1.39,1.39,0,0,0-.47-1.07,2.21,2.21,0,0,0-1.49-.41h-2.9Z"/><path class="cls-5" d="M350.65,624.88h-1.12v-7.15a6.33,6.33,0,0,1-1.07.77,7.46,7.46,0,0,1-1.18.58V618a6.61,6.61,0,0,0,1.65-1.07,4.37,4.37,0,0,0,1-1.22h.72Z"/><path class="cls-5" d="M353.51,620.37a8.46,8.46,0,0,1,.33-2.61,3.33,3.33,0,0,1,1-1.53,2.55,2.55,0,0,1,1.65-.53,2.79,2.79,0,0,1,1.29.29,2.52,2.52,0,0,1,.92.86,4.72,4.72,0,0,1,.57,1.36,8.81,8.81,0,0,1,.21,2.16,8.11,8.11,0,0,1-.34,2.6,3.23,3.23,0,0,1-1,1.53,2.56,2.56,0,0,1-1.67.54,2.5,2.5,0,0,1-2.07-.95A6,6,0,0,1,353.51,620.37Zm1.15,0a5.76,5.76,0,0,0,.53,3,1.5,1.5,0,0,0,2.6,0,8.76,8.76,0,0,0,0-6,1.56,1.56,0,0,0-1.31-.74,1.43,1.43,0,0,0-1.23.65A5.77,5.77,0,0,0,354.66,620.37Z"/><path class="cls-5" d="M204.52,295.06v-9.15h4.06a5.26,5.26,0,0,1,1.86.25,2,2,0,0,1,1,.87,2.6,2.6,0,0,1,.38,1.38,2.32,2.32,0,0,1-.63,1.64,3.22,3.22,0,0,1-2,.85,3.09,3.09,0,0,1,.73.45,6.28,6.28,0,0,1,1,1.22l1.6,2.49h-1.53l-1.21-1.91q-.53-.81-.87-1.26a2.68,2.68,0,0,0-.62-.61,2,2,0,0,0-.55-.24,3.55,3.55,0,0,0-.67,0h-1.41v4.06Zm1.21-5.11h2.61a4,4,0,0,0,1.29-.17,1.44,1.44,0,0,0,.72-.55,1.53,1.53,0,0,0,.24-.82,1.37,1.37,0,0,0-.47-1.07,2.21,2.21,0,0,0-1.49-.42h-2.9Z"/><path class="cls-5" d="M216.88,295.06v-2.19h-4v-1l4.18-5.93H218v5.93h1.24v1H218v2.19Zm0-3.22v-4.13L214,291.84Z"/><path class="cls-5" d="M219.81,80.78V71.63h4.06a5.29,5.29,0,0,1,1.86.25,2,2,0,0,1,1,.87,2.52,2.52,0,0,1,.38,1.38,2.3,2.3,0,0,1-.63,1.64,3.22,3.22,0,0,1-1.94.85,3.09,3.09,0,0,1,.73.45,6.66,6.66,0,0,1,1,1.22l1.59,2.49h-1.52l-1.21-1.9c-.35-.55-.65-1-.87-1.27a2.89,2.89,0,0,0-.62-.61,2,2,0,0,0-.55-.24,3.68,3.68,0,0,0-.68,0H221v4.06ZM221,75.67h2.6a4,4,0,0,0,1.3-.17,1.42,1.42,0,0,0,.71-.55,1.52,1.52,0,0,0,.25-.82,1.35,1.35,0,0,0-.48-1.07,2.18,2.18,0,0,0-1.48-.42H221Z"/><path class="cls-5" d="M232.17,80.78V78.59h-4v-1l4.17-5.93h.92v5.93h1.23v1h-1.23v2.19Zm0-3.22V73.43l-2.87,4.13Z"/><path class="cls-5" d="M808.46,80.38V71.23h4.06a5.46,5.46,0,0,1,1.86.25,2.14,2.14,0,0,1,1,.87,2.65,2.65,0,0,1,.38,1.38,2.29,2.29,0,0,1-.63,1.64,3.16,3.16,0,0,1-1.95.85,3.08,3.08,0,0,1,.73.46,6.2,6.2,0,0,1,1,1.21l1.6,2.49H815l-1.21-1.9q-.52-.83-.87-1.26a2.66,2.66,0,0,0-.61-.61,2,2,0,0,0-.56-.25,3.55,3.55,0,0,0-.67,0h-1.41v4.06Zm1.21-5.11h2.61a4,4,0,0,0,1.29-.17,1.39,1.39,0,0,0,.72-.55,1.48,1.48,0,0,0,.24-.82,1.39,1.39,0,0,0-.47-1.07,2.21,2.21,0,0,0-1.49-.41h-2.9Z"/><path class="cls-5" d="M820.82,80.38V78.19h-4v-1L821,71.23h.91v5.93h1.24v1h-1.24v2.19Zm0-3.22V73L818,77.16Z"/><path class="cls-5" d="M575.56,103.8V94.65h4.06a5.58,5.58,0,0,1,1.86.24,2.08,2.08,0,0,1,1,.87,2.57,2.57,0,0,1,.39,1.38,2.25,2.25,0,0,1-.64,1.64,3.13,3.13,0,0,1-1.94.85,3.44,3.44,0,0,1,.73.46,6,6,0,0,1,1,1.22l1.59,2.49H582.1l-1.21-1.91q-.52-.83-.87-1.26a2.89,2.89,0,0,0-.62-.61,1.57,1.57,0,0,0-.55-.24,3.42,3.42,0,0,0-.67,0h-1.41v4.07Zm1.21-5.12h2.6a3.75,3.75,0,0,0,1.3-.17,1.32,1.32,0,0,0,.71-.55,1.42,1.42,0,0,0,.25-.82,1.37,1.37,0,0,0-.47-1.06,2.21,2.21,0,0,0-1.49-.42h-2.9Z"/><path class="cls-5" d="M587.92,103.8v-2.19h-4v-1l4.17-5.93H589v5.93h1.24v1H589v2.19Zm0-3.22V96.45l-2.87,4.13Z"/><path class="cls-5" d="M770.86,314.74v-9.15h4.06a5.46,5.46,0,0,1,1.86.25,2,2,0,0,1,1,.87,2.65,2.65,0,0,1,.38,1.38,2.29,2.29,0,0,1-.63,1.64,3.16,3.16,0,0,1-1.95.85,3.09,3.09,0,0,1,.73.45,6.69,6.69,0,0,1,1,1.22l1.59,2.49H777.4l-1.21-1.9q-.53-.82-.87-1.26a2.66,2.66,0,0,0-.61-.61,2,2,0,0,0-.56-.25,3.55,3.55,0,0,0-.67,0h-1.41v4.06Zm1.21-5.11h2.61a4.09,4.09,0,0,0,1.3-.17,1.46,1.46,0,0,0,.71-.55,1.51,1.51,0,0,0,.24-.82,1.39,1.39,0,0,0-.47-1.07,2.21,2.21,0,0,0-1.49-.42h-2.9Z"/><path class="cls-5" d="M779.63,312.33l1.12-.15a2.48,2.48,0,0,0,.66,1.37,1.63,1.63,0,0,0,1.13.42,1.81,1.81,0,0,0,1.34-.55,1.84,1.84,0,0,0,.54-1.36,1.7,1.7,0,0,0-.5-1.27,1.74,1.74,0,0,0-1.29-.5,3.37,3.37,0,0,0-.79.12l.13-1h.18a2.3,2.3,0,0,0,1.29-.38,1.28,1.28,0,0,0,.57-1.15,1.43,1.43,0,0,0-.41-1,1.49,1.49,0,0,0-1.08-.4,1.56,1.56,0,0,0-1.1.41,2.08,2.08,0,0,0-.56,1.24l-1.12-.2a2.9,2.9,0,0,1,.93-1.75,2.7,2.7,0,0,1,1.82-.62,2.92,2.92,0,0,1,1.38.32,2.26,2.26,0,0,1,1,.87,2.21,2.21,0,0,1,.34,1.18,1.93,1.93,0,0,1-.32,1.08,2.15,2.15,0,0,1-.94.78,2.11,2.11,0,0,1,1.26.77,2.39,2.39,0,0,1,.45,1.48,2.67,2.67,0,0,1-.88,2,3,3,0,0,1-2.21.83,2.91,2.91,0,0,1-2-.71A2.75,2.75,0,0,1,779.63,312.33Z"/><path class="cls-5" d="M786.71,310.23a8.46,8.46,0,0,1,.33-2.61,3.33,3.33,0,0,1,1-1.53,2.51,2.51,0,0,1,1.65-.53,2.67,2.67,0,0,1,1.29.29,2.52,2.52,0,0,1,.92.86,4.6,4.6,0,0,1,.57,1.36,8.81,8.81,0,0,1,.21,2.16,8.44,8.44,0,0,1-.33,2.6,3.32,3.32,0,0,1-1,1.53,2.56,2.56,0,0,1-1.67.54,2.5,2.5,0,0,1-2.07-.95A6,6,0,0,1,786.71,310.23Zm1.15,0a5.76,5.76,0,0,0,.53,3,1.51,1.51,0,0,0,2.6,0,8.73,8.73,0,0,0,0-6,1.54,1.54,0,0,0-1.31-.74,1.4,1.4,0,0,0-1.23.65A5.77,5.77,0,0,0,787.86,310.23Z"/><path class="cls-5" d="M678.45,700v-9.15h4.06a5.46,5.46,0,0,1,1.86.25,2,2,0,0,1,1,.87,2.65,2.65,0,0,1,.38,1.38,2.29,2.29,0,0,1-.63,1.64,3.16,3.16,0,0,1-1.95.85,3.08,3.08,0,0,1,.73.46,6.6,6.6,0,0,1,1,1.21l1.59,2.49H685l-1.21-1.9q-.53-.82-.87-1.26a2.66,2.66,0,0,0-.61-.61,2,2,0,0,0-.56-.25,3.55,3.55,0,0,0-.67,0h-1.41V700Zm1.21-5.11h2.61a4,4,0,0,0,1.29-.17,1.39,1.39,0,0,0,.72-.55,1.48,1.48,0,0,0,.24-.82,1.39,1.39,0,0,0-.47-1.07,2.21,2.21,0,0,0-1.49-.41h-2.9Z"/><path class="cls-5" d="M693.11,698.88V700h-6a1.89,1.89,0,0,1,.13-.78,3.91,3.91,0,0,1,.74-1.21,11.35,11.35,0,0,1,1.47-1.39,12.6,12.6,0,0,0,2-1.94,2.3,2.3,0,0,0,.53-1.35,1.48,1.48,0,0,0-.48-1.12,1.72,1.72,0,0,0-1.25-.46,1.74,1.74,0,0,0-1.29.48,1.87,1.87,0,0,0-.5,1.35l-1.15-.12a2.85,2.85,0,0,1,.89-2,3.06,3.06,0,0,1,2.08-.67,2.87,2.87,0,0,1,2.08.73,2.4,2.4,0,0,1,.77,1.81,2.78,2.78,0,0,1-.22,1.08,4.17,4.17,0,0,1-.75,1.11,17.91,17.91,0,0,1-1.73,1.61c-.68.57-1.11,1-1.3,1.15a4,4,0,0,0-.47.61Z"/><path class="cls-5" d="M245.88,701.8v-9.14h4.05a5.5,5.5,0,0,1,1.86.24,2.06,2.06,0,0,1,1,.87,2.56,2.56,0,0,1,.38,1.38,2.29,2.29,0,0,1-.63,1.64,3.16,3.16,0,0,1-1.94.85,3.44,3.44,0,0,1,.73.46,6.58,6.58,0,0,1,1,1.21l1.59,2.49h-1.52l-1.21-1.9c-.36-.55-.65-1-.88-1.26a2.67,2.67,0,0,0-.61-.61,1.65,1.65,0,0,0-.55-.24,3.47,3.47,0,0,0-.68,0h-1.4v4.06Zm1.21-5.11h2.6a3.75,3.75,0,0,0,1.3-.17,1.36,1.36,0,0,0,.71-.55,1.48,1.48,0,0,0,.24-.82,1.32,1.32,0,0,0-.47-1.06,2.19,2.19,0,0,0-1.49-.42h-2.89Z"/><path class="cls-5" d="M260.54,700.73v1.07h-6.05a2.06,2.06,0,0,1,.13-.78,4.24,4.24,0,0,1,.74-1.21,12.08,12.08,0,0,1,1.47-1.39,12.83,12.83,0,0,0,2-1.93,2.33,2.33,0,0,0,.52-1.36,1.48,1.48,0,0,0-.48-1.12,1.7,1.7,0,0,0-1.24-.46,1.75,1.75,0,0,0-1.3.49,1.82,1.82,0,0,0-.49,1.34l-1.16-.12a2.81,2.81,0,0,1,.9-2,3,3,0,0,1,2.07-.68,2.89,2.89,0,0,1,2.09.73,2.4,2.4,0,0,1,.76,1.81,2.75,2.75,0,0,1-.22,1.08,4.4,4.4,0,0,1-.74,1.12,19.74,19.74,0,0,1-1.74,1.61c-.67.56-1.1.95-1.3,1.15a3.69,3.69,0,0,0-.47.61Z"/><path class="cls-5" d="M574.33,664.53l-1.12-.1.63-7.13a6.35,6.35,0,0,1-1.13.68,7.53,7.53,0,0,1-1.23.47l.09-1.08a6.71,6.71,0,0,0,1.74-.93,4.14,4.14,0,0,0,1.1-1.13l.72.07Z"/><path class="cls-5" d="M577.83,664.83l.11-1.27,1.27.11-.11,1.27Zm.46-5.32.12-1.28,1.27.11-.11,1.28Z"/><path class="cls-5" d="M585,665.46l-1.12-.1.62-7.13a5.89,5.89,0,0,1-1.12.68,7.53,7.53,0,0,1-1.23.47l.09-1.08a6.88,6.88,0,0,0,1.74-.93,4.14,4.14,0,0,0,1.1-1.13l.72.07Z"/><path class="cls-5" d="M588.23,661.21a8.28,8.28,0,0,1,.56-2.57,3.23,3.23,0,0,1,1.12-1.43,2.53,2.53,0,0,1,1.7-.39,2.76,2.76,0,0,1,1.26.4,2.47,2.47,0,0,1,.84.94,4.52,4.52,0,0,1,.45,1.4,9,9,0,0,1,0,2.17,8.46,8.46,0,0,1-.55,2.56,3.26,3.26,0,0,1-1.12,1.44,2.54,2.54,0,0,1-1.71.39,2.49,2.49,0,0,1-2-1.12A6,6,0,0,1,588.23,661.21Zm1.15.1a5.86,5.86,0,0,0,.26,3,1.56,1.56,0,0,0,1.24.85,1.54,1.54,0,0,0,1.36-.63,5.81,5.81,0,0,0,.78-2.94,5.7,5.7,0,0,0-.26-3,1.57,1.57,0,0,0-1.24-.86,1.44,1.44,0,0,0-1.29.55A5.72,5.72,0,0,0,589.38,661.31Z"/><path class="cls-5" d="M228.14,677.43l-1.12.1-.63-7.13a5.87,5.87,0,0,1-1,.86,7.33,7.33,0,0,1-1.13.68l-.09-1.08a7,7,0,0,0,1.55-1.21,4.23,4.23,0,0,0,.88-1.31l.73-.06Z"/><path class="cls-5" d="M231.17,671.8l-.11-1.28,1.27-.11.11,1.27Zm.46,5.32-.11-1.27,1.28-.11.11,1.27Z"/><path class="cls-5" d="M238.77,676.5l-1.12.1-.63-7.13a5.87,5.87,0,0,1-1,.86,6.89,6.89,0,0,1-1.13.68l-.09-1.08a7,7,0,0,0,1.55-1.21,4.23,4.23,0,0,0,.88-1.31l.72-.06Z"/><path class="cls-5" d="M241.25,671.76a8.33,8.33,0,0,1,.1-2.63,3.24,3.24,0,0,1,.86-1.61,2.53,2.53,0,0,1,1.6-.68,2.83,2.83,0,0,1,1.32.18,2.51,2.51,0,0,1,1,.77,4.62,4.62,0,0,1,.69,1.31,9.25,9.25,0,0,1,.39,2.14,8.23,8.23,0,0,1-.1,2.61,3.23,3.23,0,0,1-.85,1.61,2.56,2.56,0,0,1-1.61.69,2.51,2.51,0,0,1-2.15-.77A6,6,0,0,1,241.25,671.76Zm1.15-.1a5.69,5.69,0,0,0,.79,2.94,1.57,1.57,0,0,0,1.36.63,1.59,1.59,0,0,0,1.23-.86,8.9,8.9,0,0,0-.52-6,1.57,1.57,0,0,0-1.38-.62,1.43,1.43,0,0,0-1.17.76A5.78,5.78,0,0,0,242.4,671.66Z"/><path class="cls-5" d="M562.67,311.37l-1.11.2-1.24-7.05a5.72,5.72,0,0,1-.92.94,7.45,7.45,0,0,1-1.06.78l-.19-1.07a6.87,6.87,0,0,0,1.44-1.34,4.13,4.13,0,0,0,.77-1.38l.71-.12Z"/><path class="cls-5" d="M565.18,305.5l-.22-1.26,1.26-.23.22,1.26Zm.93,5.26-.22-1.26,1.26-.22.22,1.26Z"/><path class="cls-5" d="M568.58,307.9l1.15-.31a2.1,2.1,0,0,0,.82,1.17,1.64,1.64,0,0,0,1.21.23,1.79,1.79,0,0,0,1.25-.84,2.39,2.39,0,0,0,.27-1.7,2.1,2.1,0,0,0-.8-1.4,1.89,1.89,0,0,0-1.49-.3,2,2,0,0,0-.92.42,1.89,1.89,0,0,0-.56.74l-1.07,0,.06-4.78,4.48-.79.19,1.06-3.6.63-.06,2.51a3.05,3.05,0,0,1,1.61-.87,2.73,2.73,0,0,1,2.13.47,2.88,2.88,0,0,1,1.18,2,3.31,3.31,0,0,1-.34,2.24,2.91,2.91,0,0,1-2.17,1.51,3,3,0,0,1-2.13-.33A2.76,2.76,0,0,1,568.58,307.9Z"/><path class="cls-5" d="M387.71,241l-1.11-.2,1.24-7a5.65,5.65,0,0,1-1.18.57,7.76,7.76,0,0,1-1.27.37l.19-1.07a6.72,6.72,0,0,0,1.81-.77,4.22,4.22,0,0,0,1.2-1l.71.12Z"/><path class="cls-5" d="M391.15,241.65l.22-1.26,1.26.22-.22,1.26Zm.93-5.27.22-1.26,1.26.22-.22,1.26Z"/><path class="cls-5" d="M394.45,239.8l1.18.1a2.1,2.1,0,0,0,.38,1.38,1.64,1.64,0,0,0,1.05.63,1.83,1.83,0,0,0,1.46-.36,2.34,2.34,0,0,0,.84-1.5,2.1,2.1,0,0,0-.27-1.59,2,2,0,0,0-3.09-.21l-1-.32,1.69-4.47,4.48.79L401,235.3l-3.6-.63-.91,2.34a3,3,0,0,1,1.8-.27,2.76,2.76,0,0,1,1.85,1.17,2.92,2.92,0,0,1,.44,2.24,3.36,3.36,0,0,1-1.09,2,2.88,2.88,0,0,1-2.56.68,3,3,0,0,1-1.88-1A2.71,2.71,0,0,1,394.45,239.8Z"/><path class="cls-5" d="M769.26,196.3h-2.19v4h-1l-5.93-4.17v-.92H766v-1.24h1v1.24h2.19Zm-3.22,0h-4.13l4.13,2.87Z"/><path class="cls-5" d="M769.26,188.56v1.13H762.1a5.71,5.71,0,0,1,.77,1.06,7.46,7.46,0,0,1,.58,1.18h-1.08a7.07,7.07,0,0,0-1.08-1.64,4.07,4.07,0,0,0-1.22-1v-.73Z"/><path class="cls-5" d="M817,236.6l.09,1.12a2.15,2.15,0,0,0-1,.42,1.5,1.5,0,0,0-.48,1.13,1.53,1.53,0,0,0,.3.94,2.57,2.57,0,0,0,1.13.84,5.8,5.8,0,0,0,2.11.31,2.63,2.63,0,0,1-.92-1,2.66,2.66,0,0,1-.3-1.23,2.55,2.55,0,0,1,.83-1.91,3,3,0,0,1,2.14-.79,3.49,3.49,0,0,1,1.6.37,2.74,2.74,0,0,1,1.13,1,2.81,2.81,0,0,1,.39,1.47,2.86,2.86,0,0,1-1,2.29,5.15,5.15,0,0,1-3.4.89,6.12,6.12,0,0,1-3.86-1,2.82,2.82,0,0,1-1-2.3,2.46,2.46,0,0,1,2.28-2.6Zm3.94,4.59a2.5,2.5,0,0,0,1.11-.25,1.73,1.73,0,0,0,.81-.69,1.66,1.66,0,0,0,.28-.93,1.59,1.59,0,0,0-.57-1.22,2.29,2.29,0,0,0-1.56-.51,2.16,2.16,0,0,0-1.5.5,1.69,1.69,0,0,0-.54,1.28,1.74,1.74,0,0,0,.54,1.29A2,2,0,0,0,820.92,241.19Z"/><path class="cls-5" d="M821.47,235.32l-.15-1.13a2.41,2.41,0,0,0,1.38-.65,1.64,1.64,0,0,0,.42-1.14,1.83,1.83,0,0,0-.55-1.34,1.85,1.85,0,0,0-1.36-.54,1.71,1.71,0,0,0-1.78,1.79,2.93,2.93,0,0,0,.13.79l-1-.12a1.36,1.36,0,0,0,0-.18,2.35,2.35,0,0,0-.37-1.3,1.28,1.28,0,0,0-1.15-.57,1.36,1.36,0,0,0-1,.42,1.49,1.49,0,0,0-.4,1.08,1.51,1.51,0,0,0,.41,1.09,2,2,0,0,0,1.23.56l-.2,1.13a2.91,2.91,0,0,1-1.75-.94,2.73,2.73,0,0,1-.62-1.82,3,3,0,0,1,.32-1.38,2.35,2.35,0,0,1,.88-1,2.26,2.26,0,0,1,1.18-.33,1.92,1.92,0,0,1,1.08.31,2.23,2.23,0,0,1,.77.95,2.17,2.17,0,0,1,.78-1.26,2.37,2.37,0,0,1,1.48-.45,2.72,2.72,0,0,1,2,.87,3.09,3.09,0,0,1,.83,2.21,2.87,2.87,0,0,1-.72,2A2.81,2.81,0,0,1,821.47,235.32Z"/><path class="cls-5" d="M821.77,576.18l-.1-1.08a1.87,1.87,0,0,0,1.11-.52,1.44,1.44,0,0,0,.34-1,1.69,1.69,0,0,0-.24-.91,1.84,1.84,0,0,0-.63-.64,3.5,3.5,0,0,0-1.07-.42,5.78,5.78,0,0,0-1.37-.17h-.23a2.49,2.49,0,0,1,.87.92,2.43,2.43,0,0,1,.34,1.26,2.58,2.58,0,0,1-.83,1.93,3,3,0,0,1-2.17.78,3.08,3.08,0,0,1-2.24-.82,2.76,2.76,0,0,1-.85-2,3,3,0,0,1,.48-1.64,3.05,3.05,0,0,1,1.37-1.12,6.91,6.91,0,0,1,2.58-.38,8.15,8.15,0,0,1,2.79.38,3.25,3.25,0,0,1,1.58,1.13,3,3,0,0,1,.55,1.76,2.41,2.41,0,0,1-2.28,2.57Zm-4-4.59a2.22,2.22,0,0,0-1.54.51,1.61,1.61,0,0,0-.57,1.24,1.72,1.72,0,0,0,.61,1.3,2.29,2.29,0,0,0,1.59.56,2,2,0,0,0,1.42-.53,1.74,1.74,0,0,0,.55-1.3,1.67,1.67,0,0,0-.55-1.28A2.12,2.12,0,0,0,817.74,571.59Z"/><path class="cls-5" d="M815.94,569.17h-1.08v-5.92h.87A12.72,12.72,0,0,0,818.2,565a15.81,15.81,0,0,0,3.17,1.33,12.73,12.73,0,0,0,2.52.43v1.15a11.08,11.08,0,0,1-2.61-.42,13.53,13.53,0,0,1-2.95-1.17,12.58,12.58,0,0,1-2.39-1.61Z"/><path class="cls-5" d="M823.89,561.51h-1.28v-1.28h1.28Z"/><path class="cls-5" d="M821.47,558.58l-.15-1.12a2.48,2.48,0,0,0,1.38-.66,1.63,1.63,0,0,0,.42-1.13,1.8,1.8,0,0,0-.55-1.34,1.82,1.82,0,0,0-1.36-.55,1.74,1.74,0,0,0-1.78,1.79,3.45,3.45,0,0,0,.13.8l-1-.13a1.41,1.41,0,0,0,0-.18,2.3,2.3,0,0,0-.38-1.29,1.26,1.26,0,0,0-1.15-.58,1.36,1.36,0,0,0-1,.42,1.66,1.66,0,0,0,0,2.17,2.05,2.05,0,0,0,1.23.56l-.2,1.13a2.91,2.91,0,0,1-1.75-.94,2.7,2.7,0,0,1-.62-1.81,3,3,0,0,1,.32-1.38,2.44,2.44,0,0,1,.88-1,2.29,2.29,0,0,1,1.18-.33,1.93,1.93,0,0,1,1.08.32,2.15,2.15,0,0,1,.77.94,2.17,2.17,0,0,1,.78-1.26,2.37,2.37,0,0,1,1.48-.45,2.71,2.71,0,0,1,2,.87,3.11,3.11,0,0,1,.83,2.21,2.86,2.86,0,0,1-.72,2A2.74,2.74,0,0,1,821.47,558.58Z"/><path class="cls-5" d="M823.89,547.25v1.12h-7.16a5.82,5.82,0,0,1,.78,1.07,8.44,8.44,0,0,1,.58,1.18H817a6.9,6.9,0,0,0-1.07-1.65,4.26,4.26,0,0,0-1.23-1v-.72Z"/><path class="cls-5" d="M104.39,476.32v1.13H97.24a5.71,5.71,0,0,1,.77,1.06,7.46,7.46,0,0,1,.58,1.18H97.51a7.07,7.07,0,0,0-1.08-1.64,4.2,4.2,0,0,0-1.22-1v-.73Z"/><path class="cls-5" d="M99.43,471.72a2.11,2.11,0,0,1-.73,1,1.91,1.91,0,0,1-1.13.33,2.21,2.21,0,0,1-1.68-.72,2.65,2.65,0,0,1-.68-1.9,2.68,2.68,0,0,1,.69-1.93,2.26,2.26,0,0,1,1.7-.73,1.91,1.91,0,0,1,1.11.33,2.11,2.11,0,0,1,.72,1,2.52,2.52,0,0,1,.89-1.28,2.45,2.45,0,0,1,1.46-.44,2.64,2.64,0,0,1,2,.83,3.38,3.38,0,0,1,0,4.37,2.69,2.69,0,0,1-2,.83,2.45,2.45,0,0,1-1.5-.45A2.28,2.28,0,0,1,99.43,471.72Zm-1.9.22a1.45,1.45,0,0,0,1.06-.41,1.46,1.46,0,0,0,.41-1.09,1.44,1.44,0,0,0-.4-1.06,1.37,1.37,0,0,0-1-.42,1.4,1.4,0,0,0-1,.43,1.45,1.45,0,0,0-.42,1.06,1.49,1.49,0,0,0,.41,1.07A1.35,1.35,0,0,0,97.53,471.94Zm4.23.37a2,2,0,0,0,.92-.23,1.59,1.59,0,0,0,.7-.68,1.92,1.92,0,0,0,.25-1,1.85,1.85,0,0,0-.52-1.33,1.93,1.93,0,0,0-2.66,0,1.86,1.86,0,0,0-.53,1.35,1.79,1.79,0,0,0,1.84,1.84Z"/><path class="cls-5" d="M99.88,466.34a8.46,8.46,0,0,1-2.61-.33,3.24,3.24,0,0,1-1.52-1,2.52,2.52,0,0,1-.54-1.65,2.67,2.67,0,0,1,.3-1.29,2.41,2.41,0,0,1,.85-.92,4.72,4.72,0,0,1,1.36-.57,8.92,8.92,0,0,1,2.16-.21,8.39,8.39,0,0,1,2.6.33,3.4,3.4,0,0,1,1.53,1,2.79,2.79,0,0,1-.41,3.75A6,6,0,0,1,99.88,466.34Zm0-1.15a5.74,5.74,0,0,0,3-.53,1.5,1.5,0,0,0,0-2.6,5.66,5.66,0,0,0-3-.53,5.66,5.66,0,0,0-3,.53,1.57,1.57,0,0,0-.74,1.31,1.46,1.46,0,0,0,.65,1.24A5.89,5.89,0,0,0,99.88,465.19Z"/><path class="cls-5" d="M107.08,449.67a11.18,11.18,0,0,1-2.74,1.58,8.72,8.72,0,0,1-3.26.64,8.43,8.43,0,0,1-2.84-.48,12.21,12.21,0,0,1-3.15-1.74v-.8c.87.5,1.48.83,1.85,1a11.18,11.18,0,0,0,1.8.6,11,11,0,0,0,2.35.26,11.25,11.25,0,0,0,6-1.86Z"/><path class="cls-5" d="M96.44,447.16H95.37v-5.92h.87A12.42,12.42,0,0,0,98.71,443a14.52,14.52,0,0,0,3.17,1.33,11.94,11.94,0,0,0,2.51.43v1.15a11.09,11.09,0,0,1-2.6-.42,13.81,13.81,0,0,1-3-1.16,12.85,12.85,0,0,1-2.4-1.62Z"/><path class="cls-5" d="M104.39,439.5h-1.27v-1.28h1.27Z"/><path class="cls-5" d="M99.88,436.58a8.46,8.46,0,0,1-2.61-.33,3.24,3.24,0,0,1-1.52-1,2.5,2.5,0,0,1-.54-1.65,2.67,2.67,0,0,1,.3-1.29,2.41,2.41,0,0,1,.85-.92,4.72,4.72,0,0,1,1.36-.57,8.92,8.92,0,0,1,2.16-.21,8.36,8.36,0,0,1,2.6.34,3.3,3.3,0,0,1,1.53,1,2.79,2.79,0,0,1-.41,3.75A6,6,0,0,1,99.88,436.58Zm0-1.15a5.74,5.74,0,0,0,3-.53,1.5,1.5,0,0,0,0-2.6,5.76,5.76,0,0,0-3-.53,5.76,5.76,0,0,0-3,.53,1.57,1.57,0,0,0-.74,1.31,1.46,1.46,0,0,0,.65,1.24A5.89,5.89,0,0,0,99.88,435.43Z"/><path class="cls-5" d="M99.43,427.74a2.06,2.06,0,0,1-.73,1,1.85,1.85,0,0,1-1.13.34,2.21,2.21,0,0,1-1.68-.72,3,3,0,0,1,0-3.84,2.29,2.29,0,0,1,1.7-.73,1.85,1.85,0,0,1,1.11.34,2.11,2.11,0,0,1,.72,1,2.48,2.48,0,0,1,.89-1.28,2.38,2.38,0,0,1,1.46-.44,2.6,2.6,0,0,1,2,.83,3,3,0,0,1,.8,2.18,3.06,3.06,0,0,1-.8,2.19,2.69,2.69,0,0,1-2,.83,2.39,2.39,0,0,1-1.5-.46A2.28,2.28,0,0,1,99.43,427.74Zm-1.9.23a1.42,1.42,0,0,0,1.06-.42,1.63,1.63,0,0,0,0-2.15,1.36,1.36,0,0,0-1-.41,1.43,1.43,0,0,0-1,.42,1.47,1.47,0,0,0-.42,1.07,1.5,1.5,0,0,0,.41,1.07A1.35,1.35,0,0,0,97.53,428Zm4.23.36a1.88,1.88,0,0,0,.92-.23,1.56,1.56,0,0,0,.7-.67,2,2,0,0,0,.25-1,1.83,1.83,0,0,0-.52-1.33,1.77,1.77,0,0,0-1.32-.52,1.81,1.81,0,0,0-1.34.54,1.86,1.86,0,0,0-.53,1.35,1.78,1.78,0,0,0,1.84,1.83Z"/><path class="cls-5" d="M96.44,422.29H95.37v-5.92h.87a12.42,12.42,0,0,0,2.47,1.73,15.57,15.57,0,0,0,3.17,1.33,12.62,12.62,0,0,0,2.51.43V421a11.09,11.09,0,0,1-2.6-.42,13.34,13.34,0,0,1-3-1.17,12.36,12.36,0,0,1-2.4-1.61Z"/><path class="cls-5" d="M98.49,412.82l-1.75.31H95.25v-1.28h1.49l1.75.3Zm0,2.07-1.75.31H95.25v-1.28h1.49l1.75.28Z"/><path class="cls-5" d="M107.08,409.71v.8a11.25,11.25,0,0,0-6-1.86,10.16,10.16,0,0,0-2.33.27,9.48,9.48,0,0,0-1.8.59c-.37.16-1,.5-1.87,1v-.8A12.16,12.16,0,0,1,98.23,408a8.59,8.59,0,0,1,6.11.17A11.16,11.16,0,0,1,107.08,409.71Z"/><path class="cls-5" d="M261.5,205.56h-2.19v4h-1l-5.93-4.17v-.92h5.93V203.2h1v1.24h2.19Zm-3.22,0h-4.13l4.13,2.87Z"/><path class="cls-5" d="M261.5,197.83V199h-7.16a5.29,5.29,0,0,1,.77,1.06,7.51,7.51,0,0,1,.58,1.19h-1.08a6.63,6.63,0,0,0-1.08-1.65,4.07,4.07,0,0,0-1.22-1v-.72Z"/><path class="cls-5" d="M261.5,194.32h-1.28V193h1.28Z"/><path class="cls-5" d="M260.42,185.51h1.08v6.05a2.06,2.06,0,0,1-.78-.13,4.29,4.29,0,0,1-1.22-.74,11.38,11.38,0,0,1-1.38-1.47,12.78,12.78,0,0,0-1.94-2,2.32,2.32,0,0,0-1.35-.52,1.5,1.5,0,0,0-1.13.48,1.68,1.68,0,0,0-.46,1.24,1.75,1.75,0,0,0,.49,1.3,1.83,1.83,0,0,0,1.35.49l-.12,1.16a2.84,2.84,0,0,1-2-.9,3,3,0,0,1-.68-2.07,2.94,2.94,0,0,1,.73-2.09,2.41,2.41,0,0,1,1.81-.77,2.72,2.72,0,0,1,1.08.23,4.4,4.4,0,0,1,1.12.74,18.3,18.3,0,0,1,1.61,1.74c.56.67.95,1.1,1.15,1.29a3.29,3.29,0,0,0,.61.48Z"/><line class="cls-8" x1="461.88" y1="453.54" x2="481.94" y2="453.54"/><polygon class="cls-3" points="463.99 456.64 452.43 453.54 463.99 450.45 463.99 456.64"/><polygon class="cls-3" points="479.82 456.51 491.38 453.42 479.82 450.32 479.82 456.51"/><path class="cls-5" d="M529.47,448.64h-1.13v-7.16a5.71,5.71,0,0,1-1.06.78,7.9,7.9,0,0,1-1.18.58v-1.09a6.73,6.73,0,0,0,1.64-1.07,4.2,4.2,0,0,0,1-1.22h.73Z"/><path class="cls-5" d="M538.24,447.56v1.08h-6a1.89,1.89,0,0,1,.13-.78,4.07,4.07,0,0,1,.74-1.22,12.12,12.12,0,0,1,1.47-1.38,12.6,12.6,0,0,0,2-1.94,2.3,2.3,0,0,0,.53-1.35,1.52,1.52,0,0,0-.48-1.13,2,2,0,0,0-2.54,0,1.87,1.87,0,0,0-.5,1.35l-1.15-.12a2.87,2.87,0,0,1,.89-2,3.06,3.06,0,0,1,2.08-.67,2.87,2.87,0,0,1,2.08.73,2.36,2.36,0,0,1,.77,1.81,2.78,2.78,0,0,1-.22,1.08,4.17,4.17,0,0,1-.75,1.11,17.91,17.91,0,0,1-1.73,1.61c-.67.57-1.11.95-1.3,1.15a4,4,0,0,0-.47.61Z"/><path class="cls-8" d="M166.44,703.9V668.4M491.69,453.54h47.88"/><polygon class="cls-3" points="169.53 701.79 166.44 713.35 163.34 701.79 169.53 701.79"/><polygon class="cls-3" points="169.4 670.51 166.31 658.95 163.21 670.51 169.4 670.51"/><path class="cls-5" d="M161.53,687.07v1.13h-7.16a5.71,5.71,0,0,1,.78,1.06,8.44,8.44,0,0,1,.58,1.18h-1.09a6.73,6.73,0,0,0-1.07-1.64,4.2,4.2,0,0,0-1.22-1v-.73Z"/><path class="cls-5" d="M153.58,684.12H152.5V678.2h.87a12.52,12.52,0,0,0,2.48,1.73,14.81,14.81,0,0,0,3.17,1.33,11.83,11.83,0,0,0,2.51.43v1.15a11.08,11.08,0,0,1-2.61-.42,14,14,0,0,1-2.95-1.16,13.09,13.09,0,0,1-2.39-1.62Z"/><path class="cls-5" d="M453.22,775.32h-1.13v-7.16a5.71,5.71,0,0,1-1.06.78,8.44,8.44,0,0,1-1.18.58v-1.09a6.79,6.79,0,0,0,1.65-1.07,4,4,0,0,0,1-1.23h.73Z"/><path class="cls-5" d="M457.82,770.36a2.08,2.08,0,0,1-1-.73,1.9,1.9,0,0,1-.34-1.14,2.2,2.2,0,0,1,.72-1.67,2.63,2.63,0,0,1,1.91-.69,2.71,2.71,0,0,1,1.93.7,2.29,2.29,0,0,1,.73,1.69,1.87,1.87,0,0,1-.34,1.11,2.06,2.06,0,0,1-1,.73,2.34,2.34,0,0,1,1.72,2.35,2.64,2.64,0,0,1-.83,2,3.38,3.38,0,0,1-4.37,0,2.7,2.7,0,0,1-.83-2,2.43,2.43,0,0,1,.45-1.5A2.35,2.35,0,0,1,457.82,770.36Zm-.58,2.32a2,2,0,0,0,.22.93,1.7,1.7,0,0,0,.68.7,2,2,0,0,0,1,.24,1.84,1.84,0,0,0,1.33-.51,1.93,1.93,0,0,0,0-2.66,1.82,1.82,0,0,0-1.35-.53,1.75,1.75,0,0,0-1.31.52A1.78,1.78,0,0,0,457.24,772.68Zm.36-4.22a1.43,1.43,0,0,0,.42,1.06,1.61,1.61,0,0,0,2.15,0,1.37,1.37,0,0,0,.41-1,1.39,1.39,0,0,0-.43-1,1.45,1.45,0,0,0-1.06-.42,1.5,1.5,0,0,0-1.07.41A1.34,1.34,0,0,0,457.6,768.46Z"/><path class="cls-5" d="M463.2,770.81a8.13,8.13,0,0,1,.34-2.61,3.24,3.24,0,0,1,1-1.53,2.52,2.52,0,0,1,1.65-.54,2.68,2.68,0,0,1,1.3.3,2.41,2.41,0,0,1,.91.86,4.35,4.35,0,0,1,.57,1.36,8.81,8.81,0,0,1,.21,2.16,8.44,8.44,0,0,1-.33,2.6,3.24,3.24,0,0,1-1,1.53,2.56,2.56,0,0,1-1.67.54,2.5,2.5,0,0,1-2.07-1A6,6,0,0,1,463.2,770.81Zm1.16,0a5.79,5.79,0,0,0,.52,3,1.52,1.52,0,0,0,2.61,0,8.89,8.89,0,0,0,0-6,1.58,1.58,0,0,0-1.32-.75,1.42,1.42,0,0,0-1.23.66A5.79,5.79,0,0,0,464.36,770.81Z"/><path class="cls-5" d="M476.32,778a10.91,10.91,0,0,1-1.57-2.75,8.56,8.56,0,0,1-.17-6.1,12.16,12.16,0,0,1,1.74-3.14h.8a20.45,20.45,0,0,0-1,1.85,9.06,9.06,0,0,0-.6,1.8,10.31,10.31,0,0,0-.27,2.34,11.31,11.31,0,0,0,1.86,6Z"/><path class="cls-5" d="M478.19,767.37v-1.08h5.92v.87a12.52,12.52,0,0,0-1.73,2.48,14.77,14.77,0,0,0-1.32,3.17,11.82,11.82,0,0,0-.44,2.51h-1.15a11.08,11.08,0,0,1,.42-2.61,13.53,13.53,0,0,1,1.17-3,12.58,12.58,0,0,1,1.61-2.39Z"/><path class="cls-5" d="M485.85,775.32V774h1.28v1.28Z"/><path class="cls-5" d="M488.77,770.81a8.43,8.43,0,0,1,.34-2.61,3.24,3.24,0,0,1,1-1.53,2.53,2.53,0,0,1,1.66-.54,2.67,2.67,0,0,1,1.29.3,2.52,2.52,0,0,1,.92.86,4.35,4.35,0,0,1,.56,1.36,8.81,8.81,0,0,1,.21,2.16,8.44,8.44,0,0,1-.33,2.6,3.24,3.24,0,0,1-1,1.53,2.78,2.78,0,0,1-3.74-.41A6,6,0,0,1,488.77,770.81Zm1.16,0a5.66,5.66,0,0,0,.53,3,1.51,1.51,0,0,0,2.6,0,8.73,8.73,0,0,0,0-6,1.56,1.56,0,0,0-1.32-.75,1.44,1.44,0,0,0-1.23.66A5.79,5.79,0,0,0,489.93,770.81Z"/><path class="cls-5" d="M497.61,770.36a2.11,2.11,0,0,1-1-.73,2,2,0,0,1-.33-1.14,2.23,2.23,0,0,1,.71-1.67,2.65,2.65,0,0,1,1.91-.69,2.69,2.69,0,0,1,1.93.7,2.25,2.25,0,0,1,.73,1.69,1.87,1.87,0,0,1-.33,1.11,2,2,0,0,1-1,.73,2.34,2.34,0,0,1,1.73,2.35,2.64,2.64,0,0,1-.83,2,3.38,3.38,0,0,1-4.37,0,2.7,2.7,0,0,1-.83-2,2.43,2.43,0,0,1,.45-1.5A2.28,2.28,0,0,1,497.61,770.36Zm-.59,2.32a2.06,2.06,0,0,0,.23.93,1.64,1.64,0,0,0,.68.7,2,2,0,0,0,1,.24,1.85,1.85,0,0,0,1.34-.51,1.83,1.83,0,0,0,.52-1.32,1.79,1.79,0,0,0-.54-1.34,1.82,1.82,0,0,0-1.35-.53,1.79,1.79,0,0,0-1.32.52A1.82,1.82,0,0,0,497,772.68Zm.37-4.22a1.42,1.42,0,0,0,.41,1.06,1.5,1.5,0,0,0,1.09.41,1.45,1.45,0,0,0,1.06-.41,1.34,1.34,0,0,0,.42-1,1.39,1.39,0,0,0-.43-1,1.45,1.45,0,0,0-1.06-.42,1.49,1.49,0,0,0-1.07.41A1.34,1.34,0,0,0,497.39,768.46Z"/><path class="cls-5" d="M503.06,767.37v-1.08H509v.87a12.52,12.52,0,0,0-1.74,2.48,14.77,14.77,0,0,0-1.32,3.17,11.23,11.23,0,0,0-.43,2.51h-1.16a11.72,11.72,0,0,1,.43-2.61,14,14,0,0,1,1.16-3,13.07,13.07,0,0,1,1.61-2.39Z"/><path class="cls-5" d="M510.47,769.41l-.32-1.74v-1.5h1.28v1.5l-.28,1.74Zm2.06,0-.3-1.74v-1.5h1.27v1.5l-.3,1.74Z"/><path class="cls-5" d="M515.63,778h-.8a11.31,11.31,0,0,0,1.86-6,10.71,10.71,0,0,0-.26-2.32,9.75,9.75,0,0,0-.6-1.8,18.48,18.48,0,0,0-1-1.87h.8a12.16,12.16,0,0,1,1.74,3.14,8.56,8.56,0,0,1-.17,6.1A11.23,11.23,0,0,1,515.63,778Z"/><line class="cls-2" x1="753.12" y1="780.12" x2="190.17" y2="780.12"/><polygon class="cls-3" points="751.01 777.02 762.57 780.12 751.01 783.22 751.01 777.02"/><polygon class="cls-3" points="192.28 777.02 180.72 780.12 192.28 783.22 192.28 777.02"/><path class="cls-3" d="M511.34,736.36v-4.81L507,725h1.81l2.25,3.43c.41.64.79,1.28,1.16,1.91.34-.6.76-1.26,1.26-2l2.2-3.34h1.75l-4.53,6.54v4.81Z"/><line class="cls-9" x1="500.57" y1="752.1" x2="499.91" y2="116.43"/><line class="cls-8" x1="479.67" y1="749.4" x2="491.12" y2="749.4"/><polygon class="cls-3" points="481.78 752.5 470.22 749.4 481.78 746.31 481.78 752.5"/><polygon class="cls-3" points="489.01 752.37 500.57 749.27 489.01 746.18 489.01 752.37"/><path class="cls-5" d="M525.89,739.54a2.08,2.08,0,0,1-1-.73,1.85,1.85,0,0,1-.34-1.13,2.21,2.21,0,0,1,.72-1.68,2.67,2.67,0,0,1,1.91-.68,2.7,2.7,0,0,1,1.93.69,2.29,2.29,0,0,1,.73,1.7,1.92,1.92,0,0,1-.34,1.11,2.11,2.11,0,0,1-1,.72,2.48,2.48,0,0,1,1.28.89,2.45,2.45,0,0,1,.44,1.46,2.64,2.64,0,0,1-.83,2,3.38,3.38,0,0,1-4.37,0,2.69,2.69,0,0,1-.83-2,2.43,2.43,0,0,1,.45-1.5A2.35,2.35,0,0,1,525.89,739.54Zm-.58,2.32a2,2,0,0,0,.22.93,1.64,1.64,0,0,0,.68.7,2,2,0,0,0,1,.25,1.83,1.83,0,0,0,1.33-.52,1.93,1.93,0,0,0,0-2.66,1.86,1.86,0,0,0-1.35-.53,1.78,1.78,0,0,0-1.83,1.83Zm.36-4.22a1.42,1.42,0,0,0,.42,1.06,1.61,1.61,0,0,0,2.15,0,1.36,1.36,0,0,0,.41-1,1.39,1.39,0,0,0-.43-1,1.45,1.45,0,0,0-1.06-.42,1.5,1.5,0,0,0-1.07.41A1.35,1.35,0,0,0,525.67,737.64Z"/><path class="cls-5" d="M531.9,744.5v-1.28h1.28v1.28Z"/><path class="cls-5" d="M535,742.39l1.08-.1a1.84,1.84,0,0,0,.53,1.1,1.41,1.41,0,0,0,1,.35,1.74,1.74,0,0,0,.91-.24,2,2,0,0,0,.64-.63,3.92,3.92,0,0,0,.41-1.07,5.32,5.32,0,0,0,.17-1.38v-.22a2.59,2.59,0,0,1-.93.87,2.5,2.5,0,0,1-1.26.33,2.53,2.53,0,0,1-1.92-.82,3,3,0,0,1-.79-2.17,3.1,3.1,0,0,1,.82-2.24,2.75,2.75,0,0,1,2.06-.85,2.93,2.93,0,0,1,1.63.48,3,3,0,0,1,1.12,1.37,6.63,6.63,0,0,1,.39,2.57,8.51,8.51,0,0,1-.38,2.8,3.26,3.26,0,0,1-1.14,1.58,2.92,2.92,0,0,1-1.76.54,2.55,2.55,0,0,1-1.75-.6A2.5,2.5,0,0,1,535,742.39Zm4.6-4a2.19,2.19,0,0,0-.51-1.53,1.63,1.63,0,0,0-1.24-.57,1.71,1.71,0,0,0-1.31.61,2.27,2.27,0,0,0-.55,1.58,1.94,1.94,0,0,0,.52,1.42,1.74,1.74,0,0,0,1.31.55,1.65,1.65,0,0,0,1.28-.55A2.15,2.15,0,0,0,539.59,738.35Z"/><path class="cls-5" d="M547.76,737.6l-1.12.08a2.15,2.15,0,0,0-.42-1,1.5,1.5,0,0,0-1.13-.48,1.55,1.55,0,0,0-.94.3,2.59,2.59,0,0,0-.83,1.13,5.83,5.83,0,0,0-.32,2.12,2.55,2.55,0,0,1,1-.92,2.66,2.66,0,0,1,1.23-.3,2.52,2.52,0,0,1,1.91.83,2.94,2.94,0,0,1,.79,2.13,3.46,3.46,0,0,1-.37,1.6,2.7,2.7,0,0,1-1,1.14,2.78,2.78,0,0,1-1.47.39,2.86,2.86,0,0,1-2.29-1,5.24,5.24,0,0,1-.89-3.41,6.11,6.11,0,0,1,1-3.85,2.82,2.82,0,0,1,2.3-1,2.45,2.45,0,0,1,2.6,2.28Zm-4.59,3.94a2.5,2.5,0,0,0,.25,1.11,1.83,1.83,0,0,0,.69.81,1.74,1.74,0,0,0,.93.28,1.57,1.57,0,0,0,1.22-.58,2.26,2.26,0,0,0,.51-1.56,2.13,2.13,0,0,0-.5-1.49,1.65,1.65,0,0,0-1.28-.55,1.73,1.73,0,0,0-1.29.55A2,2,0,0,0,543.17,741.54Z"/><line class="cls-8" x1="500.76" y1="749.4" x2="548.65" y2="749.4"/><path class="cls-3" d="M509.56,127.42v-4.81l-4.39-6.55H507l2.25,3.43c.41.65.79,1.29,1.16,1.92.34-.6.77-1.27,1.26-2l2.2-3.35h1.75l-4.53,6.55v4.81Z"/><line class="cls-10" x1="470.22" y1="95.03" x2="470.22" y2="752.1"/><polyline class="cls-11" points="752.35 691.84 724.2 704.48 678.23 704.48"/><polygon class="cls-5" points="749.15 689.88 760.96 687.97 751.69 695.53 749.15 689.88"/><polyline class="cls-11" points="190.64 693.72 218.79 706.36 264.76 706.36"/><polygon class="cls-5" points="191.3 697.41 182.03 689.85 193.84 691.76 191.3 697.41"/><path class="cls-5" d="M829.52,738v-9.15h4.06a5.29,5.29,0,0,1,1.86.25,2,2,0,0,1,1,.87,2.6,2.6,0,0,1,.38,1.38,2.3,2.3,0,0,1-.63,1.64,3.28,3.28,0,0,1-2,.85,3.09,3.09,0,0,1,.73.45,6.28,6.28,0,0,1,1,1.22l1.6,2.49h-1.53l-1.21-1.91q-.52-.81-.87-1.26a2.89,2.89,0,0,0-.62-.61,2,2,0,0,0-.55-.24,3.62,3.62,0,0,0-.67,0h-1.41V738Zm1.21-5.11h2.61a4,4,0,0,0,1.29-.17,1.44,1.44,0,0,0,.72-.55,1.53,1.53,0,0,0,.24-.82,1.37,1.37,0,0,0-.47-1.07,2.21,2.21,0,0,0-1.49-.42h-2.9Z"/><path class="cls-5" d="M844.18,736.89V738h-6a2.07,2.07,0,0,1,.14-.78A4.07,4.07,0,0,1,839,736a10.58,10.58,0,0,1,1.46-1.38,12.78,12.78,0,0,0,2-1.94,2.32,2.32,0,0,0,.52-1.35,1.53,1.53,0,0,0-.47-1.13,1.95,1.95,0,0,0-2.55,0,1.87,1.87,0,0,0-.49,1.35l-1.15-.12a2.83,2.83,0,0,1,.89-2,3,3,0,0,1,2.08-.68,2.93,2.93,0,0,1,2.08.73,2.41,2.41,0,0,1,.77,1.81,2.72,2.72,0,0,1-.23,1.08,4,4,0,0,1-.74,1.12,19.21,19.21,0,0,1-1.73,1.61,17,17,0,0,0-1.3,1.15,3.77,3.77,0,0,0-.48.61Z"/><polyline class="cls-11" points="770.26 718.93 799.62 742.23 845.59 742.23"/><polygon class="cls-5" points="769.99 722.67 762.86 713.06 773.84 717.82 769.99 722.67"/><line class="cls-2" x1="268.02" y1="255.48" x2="268.02" y2="139.33"/><polygon class="cls-3" points="270.98 253.36 267.89 264.92 264.79 253.36 270.98 253.36"/><polygon class="cls-3" points="270.98 141.44 267.89 129.88 264.79 141.44 270.98 141.44"/><path class="cls-5" d="M526.06,212l.23,1.1-7,1.43a6.34,6.34,0,0,1,1,.89,7.49,7.49,0,0,1,.8,1l-1.06.22a7.06,7.06,0,0,0-1.38-1.4,4.29,4.29,0,0,0-1.4-.73l-.15-.71Z"/><path class="cls-5" d="M520.12,209.6l-1.25.26-.26-1.26,1.25-.25Zm5.24-1.07-1.25.25-.26-1.25,1.25-.26Z"/><path class="cls-5" d="M516.83,201.33l.31,1.08a2.14,2.14,0,0,0-.85.61,1.45,1.45,0,0,0-.25,1.19,1.57,1.57,0,0,0,.48.87,2.62,2.62,0,0,0,1.28.59,6,6,0,0,0,2.13-.11,2.7,2.7,0,0,1-1.09-.79,2.65,2.65,0,0,1-.12-3.18,3,3,0,0,1,1.94-1.21,3.49,3.49,0,0,1,1.64.05,2.74,2.74,0,0,1,1.32.77,2.79,2.79,0,0,1,.68,1.36,2.88,2.88,0,0,1-.56,2.45,5.12,5.12,0,0,1-3.15,1.55,6.08,6.08,0,0,1-4-.18,2.83,2.83,0,0,1-1.49-2,2.61,2.61,0,0,1,.24-1.85A2.55,2.55,0,0,1,516.83,201.33Zm4.79,3.7a2.56,2.56,0,0,0,1-.46,1.82,1.82,0,0,0,.65-.84,1.68,1.68,0,0,0,.08-1,1.57,1.57,0,0,0-.8-1.09,2.31,2.31,0,0,0-1.63-.19,2.16,2.16,0,0,0-1.37.8,1.7,1.7,0,0,0-.28,1.36,1.76,1.76,0,0,0,.8,1.15A2,2,0,0,0,521.62,205Z"/><path class="cls-5" d="M366.94,197.78l-9.11.9-.4-4a5.43,5.43,0,0,1,.07-1.88,2,2,0,0,1,.76-1.1,2.65,2.65,0,0,1,1.34-.51,2.28,2.28,0,0,1,1.69.46,3.22,3.22,0,0,1,1,1.86,3.05,3.05,0,0,1,.38-.77,6.16,6.16,0,0,1,1.11-1.12l2.32-1.83.15,1.52-1.77,1.39q-.76.6-1.17,1a2.84,2.84,0,0,0-.55.67,1.8,1.8,0,0,0-.19.58,4.51,4.51,0,0,0,0,.67l.14,1.4,4-.4Zm-5.21-.7-.25-2.59a4.08,4.08,0,0,0-.3-1.27,1.42,1.42,0,0,0-.62-.66,1.51,1.51,0,0,0-.84-.16,1.33,1.33,0,0,0-1,.57,2.23,2.23,0,0,0-.28,1.53l.29,2.88Z"/><path class="cls-5" d="M364.42,183.3l1.08-.1.59,6a2.1,2.1,0,0,1-.79-.06,4.26,4.26,0,0,1-1.28-.61,11.89,11.89,0,0,1-1.53-1.33,12.07,12.07,0,0,0-2.12-1.82A2.27,2.27,0,0,0,359,185a1.46,1.46,0,0,0-1.07.58,1.7,1.7,0,0,0-.34,1.28,1.81,1.81,0,0,0,.61,1.25,1.88,1.88,0,0,0,1.4.36v1.16a2.88,2.88,0,0,1-2.05-.7,3,3,0,0,1-.87-2,2.84,2.84,0,0,1,.52-2.14,2.39,2.39,0,0,1,1.72-.95,3,3,0,0,1,1.1.12,4.41,4.41,0,0,1,1.18.63,17.53,17.53,0,0,1,1.78,1.57c.63.61,1.05,1,1.27,1.18a3.66,3.66,0,0,0,.65.41Z"/><path class="cls-5" d="M363.72,176.23l1.08-.1.59,6a2.1,2.1,0,0,1-.79-.06,4.07,4.07,0,0,1-1.28-.62,10.43,10.43,0,0,1-1.52-1.32,12.42,12.42,0,0,0-2.13-1.82,2.36,2.36,0,0,0-1.4-.39,1.51,1.51,0,0,0-1.07.59,1.73,1.73,0,0,0-.34,1.28,1.78,1.78,0,0,0,.62,1.25,1.84,1.84,0,0,0,1.39.36v1.16a2.88,2.88,0,0,1-2.05-.7,3,3,0,0,1-.87-2,2.87,2.87,0,0,1,.52-2.15,2.41,2.41,0,0,1,1.72-.94,3,3,0,0,1,1.1.12,4.32,4.32,0,0,1,1.19.63,18.87,18.87,0,0,1,1.77,1.57c.63.61,1.05,1,1.27,1.18a4.34,4.34,0,0,0,.65.41Z"/><path class="cls-5" d="M362.29,175.17l-.21-1.17a2.15,2.15,0,0,0,1.23-.73,1.71,1.71,0,0,0,.32-1.19,1.82,1.82,0,0,0-.75-1.31,2.29,2.29,0,0,0-1.67-.39,2.08,2.08,0,0,0-1.45.68,1.89,1.89,0,0,0-.42,1.46,2,2,0,0,0,.34.95,1.9,1.9,0,0,0,.71.62l0,1.07-4.77-.42-.44-4.53,1.06-.11.36,3.64,2.5.25a3,3,0,0,1-.74-1.67,2.75,2.75,0,0,1,.62-2.09,2.9,2.9,0,0,1,2.05-1,3.32,3.32,0,0,1,2.2.51,2.89,2.89,0,0,1,1.35,2.28,3,3,0,0,1-.5,2.1A2.73,2.73,0,0,1,362.29,175.17Z"/><path class="cls-5" d="M495.44,204l-9.12-.64.28-4a5.63,5.63,0,0,1,.38-1.84,2.06,2.06,0,0,1,.94-.95,2.58,2.58,0,0,1,1.4-.28,2.3,2.3,0,0,1,1.6.74,3.23,3.23,0,0,1,.71,2,2.88,2.88,0,0,1,.5-.7,6.27,6.27,0,0,1,1.29-.92L496,196l-.11,1.52-2,1.07c-.57.32-1,.58-1.32.79a2.38,2.38,0,0,0-.65.57,1.81,1.81,0,0,0-.28.53,3.36,3.36,0,0,0-.09.67l-.1,1.4,4,.29Zm-5-1.57.18-2.59a3.7,3.7,0,0,0-.08-1.31,1.36,1.36,0,0,0-.49-.75,1.49,1.49,0,0,0-.81-.3,1.33,1.33,0,0,0-1.09.4,2.16,2.16,0,0,0-.52,1.45l-.21,2.89Z"/><path class="cls-5" d="M495.4,189.34l1.08.07-.43,6a2,2,0,0,1-.77-.18,4.16,4.16,0,0,1-1.16-.83,11.37,11.37,0,0,1-1.28-1.56,12.27,12.27,0,0,0-1.79-2.15,2.32,2.32,0,0,0-1.31-.62,1.51,1.51,0,0,0-1.16.4,1.73,1.73,0,0,0-.54,1.21,1.75,1.75,0,0,0,.39,1.33,1.86,1.86,0,0,0,1.31.59l-.2,1.14a2.85,2.85,0,0,1-1.9-1,3.07,3.07,0,0,1-.53-2.12,3,3,0,0,1,.88-2,2.42,2.42,0,0,1,1.86-.64,2.91,2.91,0,0,1,1.06.3,4.17,4.17,0,0,1,1.06.83,18.16,18.16,0,0,1,1.49,1.84,16.47,16.47,0,0,0,1.05,1.37,3.84,3.84,0,0,0,.57.52Z"/><path class="cls-5" d="M495.9,182.25l1.08.08-.43,6a1.9,1.9,0,0,1-.77-.19,4.06,4.06,0,0,1-1.16-.82,12.75,12.75,0,0,1-1.28-1.56,12.27,12.27,0,0,0-1.79-2.15,2.32,2.32,0,0,0-1.31-.62,1.47,1.47,0,0,0-1.15.4,1.72,1.72,0,0,0-.55,1.21,1.75,1.75,0,0,0,.39,1.33,1.85,1.85,0,0,0,1.31.58l-.2,1.15a2.89,2.89,0,0,1-1.9-1,3.08,3.08,0,0,1-.53-2.12,3,3,0,0,1,.88-2,2.38,2.38,0,0,1,1.86-.64,2.91,2.91,0,0,1,1.06.3,4.34,4.34,0,0,1,1.06.82,18.55,18.55,0,0,1,1.49,1.85,16.47,16.47,0,0,0,1.05,1.37,3.45,3.45,0,0,0,.58.52Z"/><path class="cls-5" d="M494.67,181v-1.19a2.1,2.1,0,0,0,1.33-.51,1.71,1.71,0,0,0,.52-1.12,1.82,1.82,0,0,0-.52-1.41,2.32,2.32,0,0,0-1.58-.68,2.12,2.12,0,0,0-1.55.43,1.91,1.91,0,0,0-.65,1.38,1.83,1.83,0,0,0,.18,1,1.93,1.93,0,0,0,.59.73l-.22,1-4.62-1.21.32-4.54,1.07.07-.26,3.65,2.42.66a3,3,0,0,1-.45-1.76,2.75,2.75,0,0,1,1-2,2.9,2.9,0,0,1,2.19-.67,3.35,3.35,0,0,1,2.09.87,2.9,2.9,0,0,1,.94,2.48,3,3,0,0,1-.84,2A2.76,2.76,0,0,1,494.67,181Z"/><line class="cls-8" x1="552.35" y1="150.78" x2="552.35" y2="139.33"/><polygon class="cls-3" points="555.45 148.67 552.35 160.23 549.25 148.67 555.45 148.67"/><polygon class="cls-3" points="555.32 141.44 552.22 129.88 549.12 141.44 555.32 141.44"/><line class="cls-8" x1="552.35" y1="130.17" x2="552.35" y2="82.29"/><path class="cls-5" d="M545.33,106.84l-.1-1.08a1.87,1.87,0,0,0,1.11-.52,1.49,1.49,0,0,0,.34-1,1.69,1.69,0,0,0-.24-.91,2,2,0,0,0-.63-.64,3.61,3.61,0,0,0-1.07-.42,5.78,5.78,0,0,0-1.37-.17h-.23a2.49,2.49,0,0,1,.87.92,2.53,2.53,0,0,1,.34,1.26,2.58,2.58,0,0,1-.83,1.93,3,3,0,0,1-2.17.78,3.08,3.08,0,0,1-2.24-.82,2.73,2.73,0,0,1-.85-2.06,3,3,0,0,1,.48-1.63,3.05,3.05,0,0,1,1.37-1.12,6.65,6.65,0,0,1,2.57-.38,8.21,8.21,0,0,1,2.8.38,3.25,3.25,0,0,1,1.58,1.13,2.94,2.94,0,0,1,.54,1.76A2.62,2.62,0,0,1,547,106,2.58,2.58,0,0,1,545.33,106.84Zm-4-4.6a2.21,2.21,0,0,0-1.53.52,1.61,1.61,0,0,0-.57,1.24,1.69,1.69,0,0,0,.61,1.3,2.29,2.29,0,0,0,1.59.56,2,2,0,0,0,1.42-.53,1.75,1.75,0,0,0,.54-1.3,1.66,1.66,0,0,0-.54-1.28A2.15,2.15,0,0,0,541.29,102.24Z"/><path class="cls-5" d="M547.45,99.27h-1.28V98h1.28Z"/><path class="cls-5" d="M547.45,92.12v1.13h-7.16a5.29,5.29,0,0,1,.77,1.06,7.46,7.46,0,0,1,.58,1.18h-1.08a7.13,7.13,0,0,0-1.08-1.65,4.18,4.18,0,0,0-1.22-1v-.73Z"/><path class="cls-5" d="M539.5,89.17h-1.08V83.25h.87A12.42,12.42,0,0,0,541.76,85a15.81,15.81,0,0,0,3.17,1.33,12,12,0,0,0,2.52.43v1.15a11.08,11.08,0,0,1-2.61-.42,13.53,13.53,0,0,1-3-1.17,12.27,12.27,0,0,1-2.39-1.61Z"/></g><g id="Watermark"><rect class="cls-12" x="444.86" y="673.96" width="62.89" height="30.62"/><rect class="cls-12" x="507.75" y="673.96" width="47.39" height="30.62"/><path class="cls-13" d="M466.48,680.06,463.69,699H461l-1.55-11-1.53,11h-2.74l-2.8-18.92h2.51l1.79,14.18,1.79-14.18h2l1.79,14.18L464,680.06Z"/><path class="cls-13" d="M467.93,699V680.06h2.53V699Z"/><path class="cls-13" d="M472.83,680.06h5q2.9,0,2.9,3.24V688c0,1.65-.51,2.69-1.51,3.13L481,699h-2.4l-1.66-7.64h-1.53V699h-2.53Zm2.53,9.12H477c.76,0,1.14-.46,1.14-1.37v-4.08c0-.92-.38-1.37-1.14-1.37h-1.66Z"/><path class="cls-13" d="M486.82,682.36V699h-2.53V682.36h-2.42v-2.3h7.38v2.3Z"/><path class="cls-13" d="M496.34,699v-8.59h-3.11V699H490.7V680.06h2.53v8h3.11v-8h2.53V699Z"/><path class="cls-13" d="M516.31,680.06h5q2.9,0,2.89,3.24V688c0,1.65-.5,2.69-1.5,3.13l1.77,7.88H522l-1.66-7.64h-1.53V699h-2.53Zm2.53,9.12h1.66c.76,0,1.13-.46,1.13-1.37v-4.08c0-.92-.37-1.37-1.13-1.37h-1.66Z"/><path class="cls-13" d="M528.67,699h-2.53V683.3q0-3.24,3-3.24h1.9q3,0,3,3.24V699h-2.53v-6.93h-2.9Zm2.9-9.22v-6.3a1,1,0,0,0-1.11-1.1h-.68a1,1,0,0,0-1.11,1.1v6.3Z"/><path class="cls-13" d="M536.34,699V680.06h2.53V699Z"/><path class="cls-13" d="M547.24,699h-6V680.06h2.53v16.63h3.47Z"/></g></svg>