<?xml version="1.0" encoding="UTF-8"?><svg xmlns="http://www.w3.org/2000/svg" viewBox="0 0 1000 800"><defs><style>.c{font-size:17.63px;}.c,.d,.e,.f,.g,.h,.i,.j,.k{fill:#303030;}.c,.e,.f,.g,.h,.i,.j,.k{font-family:ArialMT, Arial;}.l,.m{fill:#f0f0f0;}.n{fill:#ccc;}.o{stroke-width:2px;}.o,.p,.q,.r,.s,.t,.u{fill:none;}.o,.p,.q,.s,.u{stroke:#000;}.e{font-size:19.06px;}.p{stroke-dasharray:0 0 17.86 4.54;}.q{stroke-dasharray:0 0 18.92 5.6;}.m{stroke:#ccc;}.m,.r,.t{stroke-miterlimit:10;}.r,.t{stroke:#303030;}.s{stroke-dasharray:0 0 18.17 5.42;stroke-width:.99px;}.f{font-size:19.58px;}.g{font-size:19.58px;}.h{font-size:19.58px;}.i{font-size:19.58px;}.j{font-size:19.58px;}.k{font-size:19.58px;}.t{stroke-width:.98px;}</style></defs><g id="a"><g><path class="l" d="M883.35,507.02s4.08-.68-203.78-16.3l-72.68-21.74s-22.42-7.47-23.1-29.21v-63.85s1.36-16.98,16.99-23.1c15.62-6.11,31.25-8.15,31.25-8.15,0,0,18.34-10.19,17.66-24.45s0-85.59,0-85.59c0,0,1.36-28.53-26.49-29.89-24.86-1.21-105.42-2.97-122.44-3.33v-.07s-.6,.01-1.61,.03c-1.02-.02-1.61-.03-1.61-.03v.07c-17.01,.36-97.57,2.11-122.44,3.33-27.85,1.36-26.49,29.89-26.49,29.89,0,0,.68,71.32,0,85.59-.68,14.27,17.66,24.45,17.66,24.45,0,0,15.62,2.04,31.25,8.15,15.62,6.11,16.98,23.1,16.98,23.1v63.85c-.68,21.74-23.09,29.21-23.09,29.21l-72.68,21.74c-207.86,15.62-203.78,16.3-203.78,16.3-11.06,.42-24.86,11.78-27.85,23.09v29.21H911.21v-29.21c-3-11.31-16.79-22.67-27.85-23.09"/><path class="o" d="M883.35,507.02s4.08-.68-203.78-16.3l-72.68-21.74s-22.42-7.47-23.1-29.21v-63.85s1.36-16.98,16.99-23.1c15.62-6.11,31.25-8.15,31.25-8.15,0,0,18.34-10.19,17.66-24.45s0-85.59,0-85.59c0,0,1.36-28.53-26.49-29.89-24.86-1.21-105.42-2.97-122.44-3.33v-.07s-.6,.01-1.61,.03c-1.02-.02-1.61-.03-1.61-.03v.07c-17.01,.36-97.57,2.11-122.44,3.33-27.85,1.36-26.49,29.89-26.49,29.89,0,0,.68,71.32,0,85.59-.68,14.27,17.66,24.45,17.66,24.45,0,0,15.62,2.04,31.25,8.15,15.62,6.11,16.98,23.1,16.98,23.1v63.85c-.68,21.74-23.09,29.21-23.09,29.21l-72.68,21.74c-207.86,15.62-203.78,16.3-203.78,16.3-11.06,.42-24.86,11.78-27.85,23.09v29.21H911.21v-29.21c-3-11.31-16.79-22.67-27.85-23.09Z"/><line class="u" x1="499.57" y1="200.94" x2="974.78" y2="200.89"/><line class="u" x1="619.52" y1="490.46" x2="680.75" y2="490.46"/><path class="u" d="M649.3,148.34v191.1m262.3,169.35v151.44m-21.14-151.63h56.35"/><line class="u" x1="584.36" y1="356.49" x2="584.61" y2="462.5"/><path class="u" d="M975.05,558.93l-923.1,.05m35.39-15.29v114.57"/><line class="s" x1="500.52" y1="602.33" x2="499.7" y2="183.05"/><line class="q" x1="817.51" y1="416.19" x2="133.65" y2="415.6"/><line class="p" x1="107.92" y1="415.78" x2="65.4" y2="416.38"/><path class="u" d="M63.13,416.41l-8.93,.13m76.65-.94h-9.46l-8.93,.12m720.12,.49h-9.46"/><path class="u" d="M649.89,338.86h37.14m-102.4,19.41h144.73m-48.62,122.24v121.07M348.61,148.01v104.31"/><line class="u" x1="649.89" y1="338.86" x2="584.6" y2="356.49"/><line class="u" x1="680.75" y1="490.46" x2="585.3" y2="462.58"/><line class="u" x1="558.43" y1="462.51" x2="585.3" y2="462.51"/><path d="M842.43,426.53l5.45-7.35-4.83-6.82h2.23l2.61,3.65c.54,.75,.91,1.31,1.13,1.69,.32-.51,.71-1.04,1.14-1.6l2.77-3.74h2.06l-4.9,6.74,5.3,7.43h-2.31l-3.56-5.03c-.2-.29-.4-.57-.6-.85-.29,.44-.51,.75-.65,.94l-3.59,4.94h-2.26Z"/><path d="M32.46,426.71l5.45-7.35-4.83-6.82h2.23l2.61,3.65c.54,.75,.91,1.31,1.13,1.69,.32-.51,.71-1.04,1.14-1.6l2.77-3.74h2.06l-4.9,6.74,5.3,7.43h-2.31l-3.56-5.03c-.2-.29-.41-.57-.6-.85-.29,.44-.51,.75-.65,.94l-3.59,4.94h-2.26Z"/><text class="c" transform="translate(584.36 587.94)"><tspan x="0" y="0">33</tspan></text><text class="e" transform="translate(448.81 645.19)"><tspan x="0" y="0">150 (5.906&quot;</tspan></text><text class="e" transform="translate(546.77 645.19)"><tspan x="0" y="0">)</tspan></text><text class="e" transform="translate(448.81 387.82)"><tspan x="0" y="0">31 (1.220&quot;</tspan></text><text class="e" transform="translate(536.15 387.82)"><tspan x="0" y="0">)</tspan></text><line class="r" x1="101.46" y1="651.67" x2="897" y2="651.67"/><polygon class="d" points="104.5 656.22 87.34 651.48 104.5 646.73 104.5 656.22"/><polygon class="d" points="895 656.22 912.17 651.48 895 646.73 895 656.22"/><text class="e" transform="translate(466.78 156.13)"><tspan x="0" y="0">55 (2.165&quot;</tspan></text><text class="e" transform="translate(554.12 156.13)"><tspan x="0" y="0">)</tspan></text><text class="e" transform="translate(961.13 409.49) rotate(-90)"><tspan x="0" y="0">65 (2.559&quot;</tspan></text><text class="e" transform="translate(961.13 322.15) rotate(-90)"><tspan x="0" y="0">)</tspan></text><line class="r" x1="362.32" y1="163.67" x2="634.24" y2="163.67"/><polygon class="d" points="365.44 168.21 348.27 163.47 365.44 158.73 365.44 168.21"/><polygon class="d" points="632.14 168.21 649.3 163.47 632.14 158.73 632.14 168.21"/><line class="r" x1="968.32" y1="217.15" x2="968.32" y2="544.99"/><polygon class="d" points="963.77 218.05 968.51 200.89 973.26 218.05 963.77 218.05"/><polygon class="d" points="963.77 542.16 968.51 559.32 973.26 542.16 963.77 542.16"/><path d="M513.34,579.54v-5.74l-5.24-7.81h2.17l2.68,4.1c.49,.77,.95,1.53,1.38,2.28,.41-.71,.92-1.51,1.51-2.39l2.62-3.99h2.09l-5.41,7.81v5.74h-1.81Z"/><path d="M513.34,196.44v-5.74l-5.24-7.81h2.17l2.68,4.1c.49,.77,.95,1.53,1.38,2.28,.41-.71,.92-1.51,1.51-2.39l2.62-3.99h2.09l-5.41,7.81v5.74h-1.81Z"/><line class="r" x1="511.72" y1="594.96" x2="666.13" y2="594.96"/><polygon class="d" points="517.69 599.5 500.52 594.76 517.69 590.02 517.69 599.5"/><polygon class="d" points="663.58 599.5 680.75 594.76 663.58 590.02 663.58 599.5"/><line class="r" x1="62.13" y1="542.82" x2="62.13" y2="430.63"/><polygon class="d" points="66.67 541.76 61.93 558.93 57.18 541.76 66.67 541.76"/><polygon class="d" points="66.67 433.23 61.93 416.06 57.18 433.23 66.67 433.23"/><line class="r" x1="626.82" y1="542.82" x2="626.82" y2="506.12"/><polygon class="d" points="631.37 541.76 626.62 558.93 621.88 541.76 631.37 541.76"/><polygon class="d" points="631.37 507.62 626.62 490.46 621.88 507.62 631.37 507.62"/><line class="r" x1="562.42" y1="542.82" x2="562.42" y2="478.85"/><polygon class="d" points="566.97 541.76 562.23 558.93 557.48 541.76 566.97 541.76"/><polygon class="d" points="566.97 479.85 562.23 462.68 557.48 479.85 566.97 479.85"/><line class="r" x1="568.25" y1="396.74" x2="429.96" y2="396.74"/><polygon class="d" points="567.19 392.2 584.36 396.94 567.19 401.68 567.19 392.2"/><polygon class="d" points="431.51 392.2 414.34 396.94 431.51 401.68 431.51 392.2"/><line class="r" x1="681.1" y1="322.03" x2="681.1" y2="216.45"/><polygon class="d" points="685.64 320.97 680.9 338.14 676.15 320.97 685.64 320.97"/><polygon class="d" points="685.64 218.29 680.9 201.12 676.15 218.29 685.64 218.29"/><line class="r" x1="723.46" y1="343.82" x2="723.46" y2="216.45"/><polygon class="d" points="728.01 341.1 723.27 358.27 718.52 341.1 728.01 341.1"/><polygon class="d" points="728.01 218.29 723.27 201.12 718.52 218.29 728.01 218.29"/><line class="r" x1="366.98" y1="329.82" x2="414.04" y2="299.83"/><polygon class="d" points="371.62 331.82 355.68 336.45 367.17 324.47 371.62 331.82"/><line class="r" x1="419.74" y1="353.82" x2="466.8" y2="323.84"/><polygon class="d" points="424.38 355.83 408.44 360.46 419.93 348.47 424.38 355.83"/><line class="r" x1="565.84" y1="217.18" x2="564.5" y2="276.33"/><polygon class="d" points="561.63 219.16 566.42 203.26 570.22 219.43 561.63 219.16"/><line class="t" x1="892.4" y1="523.29" x2="843.4" y2="549.97"/><polygon class="d" points="887.91 520.98 904.13 517.45 891.85 528.62 887.91 520.98"/><text class="k" transform="translate(51.95 500.09) rotate(-90)"><tspan x="0" y="0">26</tspan></text><line class="u" x1="938.55" y1="508.6" x2="938.6" y2="558.88"/><line class="u" x1="939.1" y1="437.37" x2="939.1" y2="492.02"/><line class="u" x1="939.1" y1="607.82" x2="939.1" y2="569.97"/><polygon class="d" points="933.68 491.38 938.55 509.02 943.43 491.38 933.68 491.38"/><polygon class="d" points="943.43 576.56 938.56 558.93 933.68 576.56 943.43 576.56"/><text class="k" transform="translate(932.14 539.37) rotate(-90)"><tspan x="0" y="0">9</tspan></text><text class="e" transform="translate(715.96 298.64) rotate(-90)"><tspan x="0" y="0">28.</tspan></text><text class="e" transform="translate(715.96 272.12) rotate(-90)"><tspan x="0" y="0">5</tspan></text><text class="e" transform="translate(673.74 285.26) rotate(-90)"><tspan x="0" y="0">25</tspan></text><text class="e" transform="translate(619.29 542.48) rotate(-90)"><tspan x="0" y="0">12.</tspan></text><text class="e" transform="translate(619.29 515.96) rotate(-90)"><tspan x="0" y="0">5</tspan></text><text class="e" transform="translate(554.9 528.62) rotate(-90)"><tspan x="0" y="0">17.</tspan></text><text class="e" transform="translate(554.9 502.1) rotate(-90)"><tspan x="0" y="0">5</tspan></text><text class="j" transform="translate(452.63 492.19) rotate(45.01)"><tspan x="0" y="0">R</tspan></text><text class="j" transform="translate(462.61 502.18) rotate(45.01)"><tspan x="0" y="0">6</tspan></text><line class="r" x1="415.42" y1="471.35" x2="473.66" y2="526.23"/><polygon class="d" points="413.9 476.32 404.4 460.68 420.58 469.23 413.9 476.32"/><text class="i" transform="translate(440.45 331.51) rotate(-32.14)"><tspan x="0" y="0">R</tspan></text><text class="i" transform="translate(452.43 323.98) rotate(-32.14)"><tspan x="0" y="0">5</tspan></text><text class="i" transform="translate(388.65 307.81) rotate(-32.14)"><tspan x="0" y="0">R</tspan></text><text class="i" transform="translate(400.62 300.28) rotate(-32.14)"><tspan x="0" y="0">5</tspan></text><text class="j" transform="translate(400 245.82) rotate(45.01)"><tspan x="0" y="0">R</tspan></text><text class="j" transform="translate(409.99 255.8) rotate(45.01)"><tspan x="0" y="0">5</tspan></text><line class="r" x1="366.02" y1="223.71" x2="414.39" y2="268.73"/><polygon class="d" points="364.49 228.69 355 213.05 371.17 221.59 364.49 228.69"/><text class="g" transform="translate(557.7 276.42) rotate(-88.42)"><tspan x="0" y="0">R400</tspan></text><text class="h" transform="translate(839.99 544.26) rotate(-27.79)"><tspan x="0" y="0">R</tspan></text><text class="h" transform="translate(852.5 537.67) rotate(-27.79)"><tspan x="0" y="0">5</tspan></text><line class="t" x1="77.9" y1="568.68" x2="40.28" y2="609.89"/><polygon class="d" points="72.9 567.95 87.08 559.32 79.11 573.89 72.9 567.95"/><text class="f" transform="translate(35.2 605.61) rotate(-46.83)"><tspan x="0" y="0">R</tspan></text><text class="f" transform="translate(44.86 595.28) rotate(-46.83)"><tspan x="0" y="0">1</tspan></text><text class="f" transform="translate(52.3 587.33) rotate(-46.83)"><tspan x="0" y="0">.</tspan></text><text class="f" transform="translate(56.03 583.36) rotate(-46.83)"><tspan x="0" y="0">5</tspan></text></g></g><g id="b"><g><rect class="l" x="438.45" y="417.72" width="123.09" height="46.3"/><g><rect class="m" x="444.86" y="425.56" width="62.89" height="30.62"/><rect class="m" x="507.75" y="425.56" width="47.39" height="30.62"/><g><path class="n" d="M466.48,431.66l-2.79,18.92h-2.74l-1.55-10.96-1.53,10.96h-2.74l-2.79-18.92h2.5l1.79,14.18,1.79-14.18h1.98l1.79,14.18,1.79-14.18h2.5Z"/><path class="n" d="M467.93,450.58v-18.92h2.53v18.92h-2.53Z"/><path class="n" d="M472.83,431.66h4.95c1.93,0,2.9,1.08,2.9,3.24v4.66c0,1.65-.5,2.7-1.5,3.13l1.77,7.88h-2.4l-1.66-7.64h-1.53v7.64h-2.53v-18.92Zm2.53,9.12h1.66c.75,0,1.13-.46,1.13-1.37v-4.08c0-.91-.38-1.37-1.13-1.37h-1.66v6.82Z"/><path class="n" d="M486.82,433.95v16.63h-2.53v-16.63h-2.42v-2.29h7.38v2.29h-2.42Z"/><path class="n" d="M496.34,450.58v-8.59h-3.11v8.59h-2.53v-18.92h2.53v8.04h3.11v-8.04h2.53v18.92h-2.53Z"/></g><g><path class="n" d="M516.31,431.66h4.95c1.93,0,2.9,1.08,2.9,3.24v4.66c0,1.65-.5,2.7-1.5,3.13l1.77,7.88h-2.4l-1.66-7.64h-1.53v7.64h-2.53v-18.92Zm2.53,9.12h1.66c.75,0,1.13-.46,1.13-1.37v-4.08c0-.91-.38-1.37-1.13-1.37h-1.66v6.82Z"/><path class="n" d="M528.67,450.58h-2.53v-15.68c0-2.16,1.01-3.24,3.03-3.24h1.9c2.02,0,3.03,1.08,3.03,3.24v15.68h-2.53v-6.93h-2.9v6.93Zm2.9-9.22v-6.3c0-.74-.37-1.11-1.11-1.11h-.69c-.74,0-1.11,.37-1.11,1.11v6.3h2.9Z"/><path class="n" d="M536.34,450.58v-18.92h2.53v18.92h-2.53Z"/><path class="n" d="M547.24,450.58h-6.01v-18.92h2.53v16.63h3.48v2.29Z"/></g></g></g></g></svg>