<?xml version="1.0" encoding="utf-8"?>
<!-- Generator: Adobe Illustrator 25.2.3, SVG Export Plug-In . SVG Version: 6.00 Build 0)  -->
<svg version="1.1" xmlns="http://www.w3.org/2000/svg" xmlns:xlink="http://www.w3.org/1999/xlink" x="0px" y="0px"
	 viewBox="0 0 1000 800" style="enable-background:new 0 0 1000 800;" xml:space="preserve">
<style type="text/css">
	.st0{fill:#F0F0F0;}
	.st1{fill:none;stroke:#221E1F;stroke-width:1.2032;}
	.st2{fill:none;stroke:#221E1F;stroke-width:1.0736;}
	.st3{fill:none;stroke:#221E1F;stroke-width:1.2032;stroke-miterlimit:10;}
	.st4{fill:none;stroke:#221E1F;stroke-width:1.0736;stroke-linecap:round;stroke-linejoin:round;stroke-miterlimit:10;}
	.st5{fill:none;stroke:#221E1F;stroke-width:1.0736;stroke-miterlimit:10;}
	.st6{fill:#303030;}
	.st7{fill:none;stroke:#221E1F;stroke-width:1.2032;stroke-linecap:round;stroke-linejoin:round;}
	.st8{fill:#221E1F;}
	.st9{fill:none;stroke:#221E1F;stroke-width:1.2032;stroke-dasharray:15.0983,4.5412;}
	.st10{fill:none;stroke:#221E1F;stroke-width:1.327;}
	.st11{fill:none;stroke:#221E1F;stroke-width:1.327;stroke-miterlimit:10;}
	.st12{fill:none;stroke:#221E1F;stroke-width:1.5312;stroke-miterlimit:10;}
	.st13{fill:none;stroke:#221E1F;stroke-width:1.327;stroke-linecap:round;stroke-linejoin:round;}
	.st14{fill:none;stroke:#221E1F;stroke-width:1.327;stroke-dasharray:16.5574,4.9134;}
	.st15{fill:none;stroke:#221E1F;stroke-width:1.1875;stroke-linecap:round;stroke-linejoin:round;}
	.st16{fill:none;stroke:#221E1F;stroke-width:1.1875;stroke-miterlimit:10;}
	.st17{fill:none;stroke:#221E1F;stroke-width:1.0882;}
	.st18{fill:none;stroke:#221E1F;stroke-width:1.0882;stroke-miterlimit:10;}
	.st19{fill:none;stroke:#221E1F;stroke-width:1.01;stroke-linecap:round;stroke-linejoin:round;stroke-miterlimit:10;}
	.st20{fill:none;stroke:#221E1F;stroke-width:1.0268;stroke-linecap:round;stroke-linejoin:round;stroke-miterlimit:10;}
	.st21{fill:none;stroke:#221E1F;stroke-width:1.0268;}
	.st22{fill:none;stroke:#221E1F;stroke-width:1.0882;stroke-linecap:round;stroke-linejoin:round;stroke-miterlimit:10;}
	.st23{fill:none;stroke:#221E1F;stroke-width:1.0882;stroke-linecap:round;stroke-linejoin:round;}
	.st24{fill:none;stroke:#221E1F;stroke-width:1.0882;stroke-dasharray:13.6188,4.0709;}
	.st25{fill:none;stroke:#303030;stroke-width:1.0882;stroke-miterlimit:10;}
	.st26{fill:none;stroke:#303030;stroke-width:0.9459;stroke-miterlimit:10;}
	.st27{fill:none;stroke:#303030;stroke-width:0.625;stroke-miterlimit:10;}
	.st28{fill:none;stroke:#221E1F;stroke-width:1.2065;}
	.st29{fill:none;stroke:#221E1F;stroke-width:1.058;stroke-miterlimit:10;}
	.st30{fill:none;stroke:#221E1F;stroke-width:1.2065;stroke-miterlimit:10;}
	.st31{fill:none;stroke:#221E1F;stroke-width:1.2065;stroke-dasharray:15.1403,4.5538;}
	.st32{fill:none;stroke:#221E1F;stroke-width:1.2065;stroke-linecap:round;stroke-linejoin:round;}
	.st33{fill:none;stroke:#221E1F;stroke-width:1.0363;}
	.st34{fill:none;stroke:#221E1F;stroke-width:1.0363;stroke-miterlimit:10;}
	.st35{fill:none;stroke:#221E1F;stroke-width:1.0536;stroke-linecap:round;stroke-linejoin:round;stroke-miterlimit:10;}
	.st36{fill:none;stroke:#221E1F;stroke-width:1.0536;stroke-miterlimit:10;}
	.st37{fill:none;stroke:#221E1F;stroke-width:1.0363;stroke-linecap:round;stroke-linejoin:round;}
	.st38{fill:none;stroke:#221E1F;stroke-width:1.0363;stroke-dasharray:14.1142,4.2633;}
	.st39{fill:none;stroke:#221E1F;stroke-width:1.0394;}
	.st40{fill:none;stroke:#221E1F;stroke-width:1.1318;stroke-linecap:round;stroke-linejoin:round;stroke-miterlimit:10;}
	.st41{fill:none;stroke:#221E1F;stroke-width:1.0394;stroke-miterlimit:10;}
	.st42{fill:none;stroke:#221E1F;stroke-width:1.1318;stroke-miterlimit:10;}
	.st43{fill:none;stroke:#221E1F;stroke-width:1.0394;stroke-dasharray:14.096,4.2184;}
	.st44{fill:none;stroke:#221E1F;stroke-width:0.9644;stroke-linecap:round;stroke-linejoin:round;}
	.st45{fill:none;stroke:#221E1F;stroke-width:1.0394;stroke-linecap:round;stroke-linejoin:round;}
	.st46{fill:none;stroke:#221E1F;stroke-width:1.0394;stroke-dasharray:28.8705,8.4195;}
	.st47{fill:none;stroke:#221E1F;stroke-width:1.0394;stroke-dasharray:30.1958,9.7419;}
	.st48{fill:none;stroke:#221E1F;stroke-width:1.1834;}
	.st49{fill:none;stroke:#221E1F;stroke-width:1.1834;stroke-dasharray:22.2172,9.0331;}
	.st50{fill:none;stroke:#221E1F;stroke-width:1.1834;stroke-dasharray:22.205,9.024;}
	.st51{fill:none;stroke:#221E1F;stroke-width:1.1834;stroke-dasharray:22.2172,9.0362;}
	.st52{fill:none;stroke:#221E1F;stroke-width:1.1834;stroke-dasharray:22.205,9.021;}
	.st53{fill:none;stroke:#221E1F;stroke-width:1.1834;stroke-dasharray:14.8529,4.4695;}
	.st54{fill:none;stroke:#221E1F;stroke-width:1.1834;stroke-linecap:round;stroke-linejoin:round;}
	.st55{fill:none;stroke:#221E1F;stroke-width:0.9791;}
	.st56{fill:none;stroke:#221E1F;stroke-width:1.2076;}
	.st57{fill:none;stroke:#221E1F;stroke-width:1.2076;stroke-dasharray:17.3391,6.3726;}
	.st58{fill:none;stroke:#221E1F;stroke-width:1.2076;stroke-dasharray:17.3363,6.3726;}
	.st59{fill:none;stroke:#221E1F;stroke-width:0.9791;stroke-dasharray:17.5349,5.1568;}
	.st60{fill:none;stroke:#303030;stroke-width:0.9791;}
	.st61{fill:none;stroke:#221E1F;stroke-width:0.8976;stroke-linecap:round;stroke-linejoin:round;}
	.st62{fill:none;stroke:#241F21;stroke-width:0.9771;}
	
		.st63{fill:none;stroke:#241F21;stroke-width:0.9771;stroke-linecap:round;stroke-linejoin:round;stroke-miterlimit:1;stroke-dasharray:16.5466,16.5466;}
	
		.st64{fill:none;stroke:#241F21;stroke-width:0.9771;stroke-linecap:round;stroke-linejoin:round;stroke-miterlimit:1;stroke-dasharray:17.1257,17.1257;}
	
		.st65{fill:none;stroke:#241F21;stroke-width:0.9771;stroke-linecap:round;stroke-linejoin:round;stroke-miterlimit:1;stroke-dasharray:16.5967,16.5967;}
	.st66{fill:none;stroke:#241F21;stroke-width:0.9771;stroke-linecap:round;stroke-linejoin:round;stroke-miterlimit:1;}
	.st67{fill:#241F21;}
	.st68{fill:none;stroke:#241F21;stroke-width:0.7626;stroke-linecap:round;stroke-linejoin:round;stroke-miterlimit:1;}
	.st69{fill:none;stroke:#221E1F;stroke-width:1.2516;}
	.st70{fill:none;stroke:#221E1F;stroke-width:1.2516;stroke-miterlimit:10;}
	.st71{fill:none;stroke:#221E1F;stroke-width:0.6258;}
	.st72{fill:none;stroke:#221E1F;stroke-width:0.6258;stroke-dasharray:18.3883,4.6234;}
	.st73{fill:none;stroke:#221E1F;stroke-width:0.6258;stroke-dasharray:21.5524,17.6199;}
	.st74{fill:none;stroke:#221E1F;stroke-width:0.6258;stroke-dasharray:20.1706,6.4056;}
	.st75{fill:none;stroke:#221E1F;stroke-width:0.9654;}
	.st76{fill:none;stroke:#303030;stroke-width:0.9654;}
	.st77{fill:none;stroke:#303030;stroke-width:0.9017;}
	.st78{fill:none;stroke:#303030;stroke-width:0.9654;stroke-dasharray:14.0607,4.2416;}
	.st79{fill:none;stroke:#303030;stroke-width:0.9654;stroke-dasharray:13.938,4.1189;}
	.st80{fill:none;stroke:#303030;stroke-width:0.9654;stroke-dasharray:14.3912,4.5697;}
	.st81{fill:none;stroke:#303030;stroke-width:0.9654;stroke-dasharray:14.7358,4.9143;}
	.st82{fill:none;stroke:#221E1F;stroke-width:0.9654;stroke-dasharray:15.4321,4.6901;}
	.st83{fill:none;stroke:#221E1F;stroke-width:0.9654;stroke-linecap:round;stroke-linejoin:round;}
	.st84{fill:none;stroke:#303030;stroke-width:0.8686;stroke-miterlimit:10;}
	.st85{fill:none;stroke:#303030;stroke-width:0.9654;stroke-miterlimit:10;}
	.st86{fill:none;stroke:#221E1F;stroke-width:2.6151;}
	.st87{fill:none;stroke:#221E1F;stroke-width:1.816;}
	.st88{fill:none;stroke:#221E1F;stroke-width:1.816;stroke-dasharray:21.5996,5.873;}
	.st89{fill:none;stroke:#221E1F;stroke-width:1.816;stroke-dasharray:21.596,5.8693;}
	.st90{fill:none;stroke:#221E1F;stroke-width:1.816;stroke-dasharray:45.6036,34.3698;}
	.st91{fill:none;stroke:#221E1F;stroke-width:1.816;stroke-dasharray:45.5927,34.3589;}
	.st92{fill:none;stroke:#221E1F;stroke-width:1.816;stroke-dasharray:21.596,5.873;}
	.st93{fill:none;stroke:#221E1F;stroke-width:2.158;}
	.st94{fill:none;stroke:#221E1F;stroke-width:1.4986;}
	.st95{fill:none;stroke:#221E1F;stroke-width:1.4986;stroke-dasharray:19.9046,5.413;}
	.st96{fill:none;stroke:#221E1F;stroke-width:1.4986;stroke-dasharray:19.9016,5.41;}
	.st97{fill:none;stroke:#221E1F;stroke-width:1.4986;stroke-dasharray:35.6909,25.3385;}
	.st98{fill:none;stroke:#221E1F;stroke-width:0.8673;}
	.st99{fill:none;stroke:#303030;stroke-width:0.9125;stroke-miterlimit:10;}
	.st100{fill:none;stroke:#303030;stroke-width:8.808669e-02;stroke-linecap:round;stroke-linejoin:round;stroke-miterlimit:10;}
	.st101{fill:none;stroke:#303030;stroke-width:0.8786;stroke-miterlimit:10;}
	.st102{fill:none;stroke:#303030;stroke-width:0.8786;}
	.st103{fill:none;stroke:#221E1F;stroke-width:0.9125;}
	.st104{fill:none;stroke:#221E1F;stroke-width:0.9125;stroke-dasharray:15.7291,4.7273;}
	.st105{fill:none;stroke:#221E1F;stroke-width:0.9125;stroke-linecap:round;stroke-linejoin:round;}
	.st106{fill:#F0F0F0;stroke:#CCCCCC;stroke-miterlimit:10;}
	.st107{fill:#CCCCCC;}
</style>
<g id="Flat">
	<g>
		<g>
			<path class="st69" d="M500.9,77c-17.4,0-73.9-0.2-90.5,5c-24.8,7.8-48.3,29.4-50.2,55.9l-6.3,72.7c-0.2,4.2,2,7.5,5.4,8.6
				c0,0,76.3,18.9,87.6,22.9c11.2,4,21.7,16.8,23.2,27c7.3,48.3,0.1,322.6-1.9,339.2c-1.2,10-11.5,26.2-23,30.3
				c-5.7,2.1-51.4,14.2-105.6,26.8c-47.6,4.3-99.4,7.7-99.4,7.7c-6.6,1.7-6.7,5.9-6.7,12l-0.4,29.6l267.9,0"/>
			<path class="st0" d="M768.7,714.7l-0.4-29.6c0-6.1-0.1-10.3-6.7-12c0,0-51.8-3.4-99.4-7.7c-54.2-12.6-100-24.7-105.6-26.8
				c-11.4-4.2-21.8-20.3-23-30.3c-2-16.6-9.2-290.9-1.9-339.2c1.5-10.2,12-23,23.2-27c11.2-4,87.6-22.9,87.6-22.9
				c3.4-1.2,5.6-4.5,5.4-8.6l-6.3-72.7c-1.9-26.5-25.4-48.1-50.2-55.9c-16.6-5.2-72.9-5-90.4-5v0c-17.4,0-73.9-0.2-90.5,5
				c-24.8,7.8-48.3,29.4-50.2,55.9l-6.3,72.7c-0.2,4.2,2,7.5,5.4,8.6c0,0,76.3,18.9,87.6,22.9c11.2,4,21.7,16.8,23.2,27
				c7.3,48.3,0.1,322.6-1.9,339.2c-1.2,10-11.5,26.2-23,30.3c-5.7,2.1-51.4,14.2-105.6,26.8c-47.6,4.3-99.4,7.7-99.4,7.7
				c-6.6,1.7-6.7,5.9-6.7,12l-0.4,29.6l267.8,0v0L768.7,714.7z"/>
			<path class="st70" d="M768.7,714.7l-0.4-29.6c0-6.1-0.1-10.3-6.7-12c0,0-51.8-3.4-99.4-7.7c-54.2-12.6-100-24.7-105.6-26.8
				c-11.4-4.2-21.8-20.3-23-30.3c-2-16.6-9.2-290.9-1.9-339.2c1.5-10.2,12-23,23.2-27c11.2-4,87.6-22.9,87.6-22.9
				c3.4-1.2,5.6-4.5,5.4-8.6l-6.3-72.7c-1.9-26.5-25.4-48.1-50.2-55.9c-16.6-5.2-72.9-5-90.4-5v0c-17.4,0-73.9-0.2-90.5,5
				c-24.8,7.8-48.3,29.4-50.2,55.9l-6.3,72.7c-0.2,4.2,2,7.5,5.4,8.6c0,0,76.3,18.9,87.6,22.9c11.2,4,21.7,16.8,23.2,27
				c7.3,48.3,0.1,322.6-1.9,339.2c-1.2,10-11.5,26.2-23,30.3c-5.7,2.1-51.4,14.2-105.6,26.8c-47.6,4.3-99.4,7.7-99.4,7.7
				c-6.6,1.7-6.7,5.9-6.7,12l-0.4,29.6l267.8,0v0L768.7,714.7z"/>
			<path class="st69" d="M500.9,714.7l267.9,0l-0.4-29.6c0-6.1-0.1-10.3-6.7-12c0,0-51.8-3.4-99.4-7.7
				c-54.2-12.6-100-24.7-105.6-26.8c-11.4-4.2-21.8-20.3-23-30.3c-2-16.6-9.2-290.9-1.9-339.2c1.5-10.2,12-23,23.2-27
				c11.2-4,87.6-22.9,87.6-22.9c3.4-1.2,5.6-4.5,5.4-8.6l-6.3-72.7c-1.9-26.5-25.4-48.1-50.2-55.9c-16.6-5.2-73.1-5-90.5-5"/>
		</g>
		<path class="st71" d="M649.8,26.6v192.3 M353.5,26.6v192.3 M366.5,78.8L351,218.3 M634.9,78.8l15.5,139.5 M353.5,221.9v28
			 M650.8,221.9v28 M369.9,33.8h262.3"/>
		<polygon class="st8" points="373.5,38.8 353.9,33.6 373.5,28.3 		"/>
		<polygon class="st8" points="628.6,38.8 648.3,33.6 628.6,28.3 		"/>
		<line class="st71" x1="249.9" y1="783.5" x2="751.4" y2="783.5"/>
		<polygon class="st8" points="233.8,783.3 253.4,788.6 253.4,778.1 		"/>
		<polygon class="st8" points="747.8,788.6 767.4,783.3 747.8,778.1 		"/>
		<polyline class="st71" points="610,113.7 589.2,136.2 524.7,136.2 		"/>
		<polygon class="st8" points="603.9,112.9 621.1,102.1 611.6,120.1 		"/>
		<polyline class="st71" points="452.1,97 454.1,153.3 380.4,153.5 		"/>
		<polygon class="st8" points="447.2,100.8 451.8,81 457.7,100.4 		"/>
		<polyline class="st71" points="387,634.1 362,596.5 287.8,596.5 		"/>
		<polygon class="st8" points="389.2,628.3 395.6,647.6 380.4,634.1 		"/>
		<polyline class="st71" points="276.4,664.1 251.3,653.2 325.6,653.2 		"/>
		<polygon class="st8" points="275.1,658 291,670.6 270.9,667.7 		"/>
		<polyline class="st71" points="659.6,181.3 691.7,211.6 786.3,211.6 		"/>
		<polygon class="st8" points="658.7,187.5 648.1,170.2 666,179.8 		"/>
		<polyline class="st71" points="615.9,243 644.4,272.7 718.7,272.7 		"/>
		<polygon class="st8" points="614.8,249.1 605,231.3 622.4,241.8 		"/>
		<polyline class="st71" points="633.2,208.8 595.2,182.2 544.5,182.2 		"/>
		<polygon class="st8" points="633.1,202.6 646.2,218.2 627.1,211.3 		"/>
		<polyline class="st71" points="553.4,264.7 607.6,312.4 681.9,312.4 		"/>
		<polygon class="st8" points="552.8,270.8 541.5,253.9 559.7,262.9 		"/>
		<polyline class="st71" points="749.8,683.4 713.4,702.1 649.9,701.6 		"/>
		<polygon class="st8" points="744.3,680.6 764.2,676.3 749.1,689.9 		"/>
		<line class="st71" x1="209.4" y1="200.9" x2="209.4" y2="94.5"/>
		<polygon class="st8" points="214.4,197.4 209.2,217 203.9,197.4 		"/>
		<polygon class="st8" points="214.4,98.1 209.2,78.5 203.9,98.1 		"/>
		<line class="st71" x1="627.5" y1="378.1" x2="546.8" y2="378.1"/>
		<polygon class="st8" points="550.4,373 530.8,378.3 550.4,383.6 		"/>
		<line class="st72" x1="545.4" y1="243.5" x2="505.2" y2="253.5"/>
		<line class="st72" x1="454.5" y1="243.5" x2="494.6" y2="253.5"/>
		<line class="st72" x1="545.4" y1="636.5" x2="505.2" y2="626.5"/>
		<line class="st72" x1="454.5" y1="636.5" x2="494.6" y2="626.5"/>
		<path class="st71" d="M638.6,76.7H113.8 M390.6,255h107.5 M202,255h178.6 M433.3,395.2h130.3 M535.8,439.3h79.5 M151.2,439.3
			l160.5-0.7"/>
		<line class="st73" x1="329.7" y1="439.3" x2="468.8" y2="439.3"/>
		<path class="st71" d="M184.9,625.1h314.2 M116.2,714.7H238 M184.9,673.4h46.4 M196.2,218.9h154.3 M769.6,717.1V791 M232.7,714.3
			V791 M126.1,697.3V94"/>
		<polygon class="st8" points="131.2,693.7 125.9,713.3 120.6,693.7 		"/>
		<polygon class="st8" points="131.2,97.6 125.9,78 120.6,97.6 		"/>
		<line class="st74" x1="500" y1="76.3" x2="500" y2="681.1"/>
		<line class="st71" x1="486.1" y1="439.9" x2="510.6" y2="439.9"/>
		<polygon class="st8" points="489.7,444.9 470,439.7 489.7,434.4 		"/>
		<polygon class="st8" points="507,444.9 526.6,439.7 507,434.4 		"/>
		<line class="st71" x1="210.9" y1="606.3" x2="210.9" y2="457.3"/>
		<polygon class="st8" points="215.9,602.7 210.7,622.3 205.4,602.7 		"/>
		<polygon class="st8" points="215.9,460.9 210.7,441.3 205.4,460.9 		"/>
		<line class="st71" x1="210.9" y1="421.7" x2="210.9" y2="272.7"/>
		<polygon class="st8" points="215.9,418.1 210.7,437.7 205.4,418.1 		"/>
		<polygon class="st8" points="215.9,276.3 210.7,256.7 205.4,276.3 		"/>
		<line class="st71" x1="209.2" y1="753.1" x2="209.2" y2="735"/>
		<polygon class="st8" points="214.3,738.6 209,719 203.7,738.6 		"/>
		<line class="st71" x1="209.2" y1="635.6" x2="209.2" y2="653.7"/>
		<polygon class="st8" points="204.2,650.1 209.4,669.7 214.7,650.1 		"/>
		<path class="st71" d="M210.1,674.9v37.9 M562.9,615.4L595,570h74.3"/>
		<polygon class="st8" points="569.1,615.4 553.5,628.4 560.5,609.3 		"/>
		<g>
			<path class="st8" d="M468.6,22l1.4-0.1c0.1,0.7,0.3,1.2,0.7,1.5s0.8,0.5,1.4,0.5c0.6,0,1.2-0.2,1.6-0.7c0.4-0.5,0.7-1.1,0.7-1.9
				c0-0.8-0.2-1.3-0.6-1.8s-1-0.7-1.7-0.7c-0.4,0-0.8,0.1-1.2,0.3c-0.3,0.2-0.6,0.4-0.8,0.8l-1.2-0.2l1-5.5h5.3v1.3h-4.3l-0.6,2.9
				c0.6-0.4,1.3-0.7,2-0.7c0.9,0,1.7,0.3,2.4,1s1,1.5,1,2.5c0,1-0.3,1.8-0.9,2.5c-0.7,0.9-1.6,1.3-2.8,1.3c-1,0-1.8-0.3-2.4-0.8
				C469.1,23.7,468.7,22.9,468.6,22z"/>
		</g>
		<g>
			<path class="st8" d="M479,19c-0.5-0.2-1-0.5-1.2-0.9s-0.4-0.8-0.4-1.3c0-0.8,0.3-1.4,0.8-2s1.3-0.8,2.2-0.8
				c0.9,0,1.7,0.3,2.3,0.8c0.6,0.5,0.9,1.2,0.9,2c0,0.5-0.1,0.9-0.4,1.3s-0.7,0.7-1.2,0.9c0.7,0.2,1.2,0.6,1.5,1
				c0.3,0.5,0.5,1.1,0.5,1.7c0,0.9-0.3,1.7-1,2.3c-0.7,0.6-1.5,0.9-2.6,0.9c-1.1,0-1.9-0.3-2.6-0.9c-0.7-0.6-1-1.4-1-2.4
				c0-0.7,0.2-1.3,0.5-1.8S478.3,19.2,479,19z M478.3,21.8c0,0.4,0.1,0.7,0.3,1.1c0.2,0.4,0.4,0.6,0.8,0.8c0.4,0.2,0.7,0.3,1.1,0.3
				c0.6,0,1.2-0.2,1.6-0.6c0.4-0.4,0.6-0.9,0.6-1.5c0-0.6-0.2-1.2-0.6-1.6s-1-0.6-1.6-0.6c-0.6,0-1.1,0.2-1.5,0.6
				S478.3,21.1,478.3,21.8z M478.7,16.8c0,0.5,0.2,0.9,0.5,1.2c0.3,0.3,0.8,0.5,1.3,0.5c0.5,0,0.9-0.2,1.2-0.5s0.5-0.7,0.5-1.2
				c0-0.5-0.2-0.9-0.5-1.2c-0.3-0.3-0.8-0.5-1.2-0.5c-0.5,0-0.9,0.2-1.3,0.5C478.9,16,478.7,16.3,478.7,16.8z"/>
		</g>
		<g>
			<path class="st8" d="M486.1,24.9v-1.5h1.5v1.5H486.1z"/>
		</g>
		<g>
			<path class="st8" d="M493.7,24.9v-2.6h-4.7v-1.2l4.9-7h1.1v7h1.5v1.2H495v2.6H493.7z M493.7,21.1v-4.8l-3.4,4.8H493.7z"/>
			<path class="st8" d="M504.8,23.6v1.3h-7.1c0-0.3,0-0.6,0.2-0.9c0.2-0.5,0.5-1,0.9-1.4s1-1,1.7-1.6c1.2-1,2-1.7,2.4-2.3
				c0.4-0.6,0.6-1.1,0.6-1.6c0-0.5-0.2-1-0.6-1.3c-0.4-0.4-0.9-0.5-1.5-0.5c-0.6,0-1.1,0.2-1.5,0.6c-0.4,0.4-0.6,0.9-0.6,1.6
				l-1.4-0.1c0.1-1,0.4-1.8,1-2.3c0.6-0.5,1.4-0.8,2.4-0.8c1,0,1.8,0.3,2.5,0.9c0.6,0.6,0.9,1.3,0.9,2.1c0,0.4-0.1,0.9-0.3,1.3
				s-0.5,0.9-0.9,1.3c-0.4,0.5-1.1,1.1-2,1.9c-0.8,0.7-1.3,1.1-1.5,1.4c-0.2,0.2-0.4,0.5-0.6,0.7H504.8z"/>
		</g>
		<g>
			<path class="st8" d="M709.8,202.6h-1.3v-8.4c-0.3,0.3-0.7,0.6-1.2,0.9c-0.5,0.3-1,0.5-1.4,0.7v-1.3c0.7-0.3,1.4-0.8,1.9-1.3
				c0.6-0.5,0.9-1,1.2-1.4h0.9V202.6z"/>
			<path class="st8" d="M713.9,196.3v-1.5h1.5v1.5H713.9z M713.9,202.6v-1.5h1.5v1.5H713.9z"/>
			<path class="st8" d="M722.3,202.6H721v-8.4c-0.3,0.3-0.7,0.6-1.2,0.9c-0.5,0.3-1,0.5-1.4,0.7v-1.3c0.7-0.3,1.4-0.8,1.9-1.3
				c0.6-0.5,0.9-1,1.2-1.4h0.9V202.6z"/>
			<path class="st8" d="M730.6,202.6h-1.3v-8.4c-0.3,0.3-0.7,0.6-1.2,0.9c-0.5,0.3-1,0.5-1.4,0.7v-1.3c0.7-0.3,1.4-0.8,1.9-1.3
				c0.6-0.5,0.9-1,1.2-1.4h0.9V202.6z"/>
		</g>
		<g>
			<path class="st8" d="M750.7,202.6v-1.5h1.5v1.5H750.7z"/>
			<path class="st8" d="M758.4,202.6V200h-4.7v-1.2l4.9-7h1.1v7h1.5v1.2h-1.5v2.6H758.4z M758.4,198.8V194l-3.4,4.8H758.4z"/>
		</g>
		<g>
			<path class="st8" d="M762.6,199.8l1.3-0.2c0.2,0.7,0.4,1.3,0.8,1.6s0.8,0.5,1.3,0.5c0.6,0,1.1-0.2,1.6-0.6c0.4-0.4,0.6-1,0.6-1.6
				c0-0.6-0.2-1.1-0.6-1.5c-0.4-0.4-0.9-0.6-1.5-0.6c-0.2,0-0.6,0-0.9,0.1l0.1-1.2c0.1,0,0.2,0,0.2,0c0.6,0,1.1-0.1,1.5-0.4
				c0.5-0.3,0.7-0.7,0.7-1.4c0-0.5-0.2-0.9-0.5-1.2c-0.3-0.3-0.8-0.5-1.3-0.5c-0.5,0-0.9,0.2-1.3,0.5c-0.3,0.3-0.6,0.8-0.7,1.5
				l-1.3-0.2c0.2-0.9,0.5-1.6,1.1-2.1c0.6-0.5,1.3-0.7,2.1-0.7c0.6,0,1.1,0.1,1.6,0.4c0.5,0.3,0.9,0.6,1.1,1
				c0.3,0.4,0.4,0.9,0.4,1.4c0,0.5-0.1,0.9-0.4,1.3c-0.2,0.4-0.6,0.7-1.1,0.9c0.6,0.1,1.1,0.5,1.5,0.9c0.4,0.5,0.5,1,0.5,1.7
				c0,0.9-0.3,1.7-1,2.4c-0.7,0.7-1.5,1-2.6,1c-0.9,0-1.7-0.3-2.4-0.8C763,201.4,762.7,200.7,762.6,199.8z"/>
		</g>
		<g>
			<path class="st8" d="M536.7,127.8v-10.8h4.8c1,0,1.7,0.1,2.2,0.3c0.5,0.2,0.9,0.5,1.2,1c0.3,0.5,0.4,1,0.4,1.6
				c0,0.8-0.2,1.4-0.7,1.9c-0.5,0.5-1.3,0.9-2.3,1c0.4,0.2,0.7,0.4,0.9,0.5c0.4,0.4,0.8,0.9,1.2,1.4l1.9,2.9h-1.8l-1.4-2.2
				c-0.4-0.6-0.8-1.1-1-1.5c-0.3-0.3-0.5-0.6-0.7-0.7c-0.2-0.1-0.4-0.2-0.6-0.3c-0.2,0-0.4-0.1-0.8-0.1h-1.7v4.8H536.7z
				 M538.1,121.8h3.1c0.7,0,1.2-0.1,1.5-0.2c0.4-0.1,0.6-0.3,0.8-0.6c0.2-0.3,0.3-0.6,0.3-1c0-0.5-0.2-0.9-0.6-1.3
				c-0.4-0.3-1-0.5-1.7-0.5h-3.4V121.8z"/>
			<path class="st8" d="M556.1,127.8h-1.3v-8.4c-0.3,0.3-0.7,0.6-1.2,0.9c-0.5,0.3-1,0.5-1.4,0.7v-1.3c0.7-0.3,1.4-0.8,1.9-1.3
				c0.6-0.5,0.9-1,1.2-1.4h0.9V127.8z"/>
			<path class="st8" d="M563.7,127.8v-2.6H559V124l4.9-7h1.1v7h1.5v1.2H565v2.6H563.7z M563.7,124v-4.8l-3.4,4.8H563.7z"/>
		</g>
		<g>
			<path class="st8" d="M549.5,174.4v-10.8h4.8c1,0,1.7,0.1,2.2,0.3c0.5,0.2,0.9,0.5,1.2,1c0.3,0.5,0.4,1,0.4,1.6
				c0,0.8-0.2,1.4-0.7,1.9c-0.5,0.5-1.3,0.9-2.3,1c0.4,0.2,0.7,0.4,0.9,0.5c0.4,0.4,0.8,0.9,1.2,1.4l1.9,2.9h-1.8l-1.4-2.2
				c-0.4-0.6-0.8-1.1-1-1.5c-0.3-0.3-0.5-0.6-0.7-0.7c-0.2-0.1-0.4-0.2-0.6-0.3c-0.2,0-0.4-0.1-0.8-0.1h-1.7v4.8H549.5z
				 M550.9,168.4h3.1c0.7,0,1.2-0.1,1.5-0.2c0.4-0.1,0.6-0.3,0.8-0.6c0.2-0.3,0.3-0.6,0.3-1c0-0.5-0.2-0.9-0.6-1.3
				c-0.4-0.3-1-0.5-1.7-0.5h-3.4V168.4z"/>
		</g>
		<g>
			<path class="st8" d="M580,173.1v1.3h-7.1c0-0.3,0-0.6,0.2-0.9c0.2-0.5,0.5-1,0.9-1.4s1-1,1.7-1.6c1.2-1,2-1.7,2.4-2.3
				c0.4-0.6,0.6-1.1,0.6-1.6c0-0.5-0.2-1-0.6-1.3s-0.9-0.5-1.5-0.5c-0.6,0-1.1,0.2-1.5,0.6c-0.4,0.4-0.6,0.9-0.6,1.6l-1.4-0.1
				c0.1-1,0.4-1.8,1-2.3c0.6-0.5,1.4-0.8,2.4-0.8c1,0,1.8,0.3,2.5,0.9c0.6,0.6,0.9,1.3,0.9,2.1c0,0.4-0.1,0.9-0.3,1.3
				s-0.5,0.9-0.9,1.3c-0.4,0.5-1.1,1.1-2,1.9c-0.8,0.7-1.3,1.1-1.5,1.4c-0.2,0.2-0.4,0.5-0.6,0.7H580z"/>
		</g>
		<g>
			<path class="st8" d="M666.1,692.4v-10.8h4.8c1,0,1.7,0.1,2.2,0.3c0.5,0.2,0.9,0.5,1.2,1c0.3,0.5,0.4,1,0.4,1.6
				c0,0.8-0.2,1.4-0.7,1.9c-0.5,0.5-1.3,0.9-2.3,1c0.4,0.2,0.7,0.4,0.9,0.5c0.4,0.4,0.8,0.9,1.2,1.4l1.9,2.9h-1.8l-1.4-2.2
				c-0.4-0.6-0.8-1.1-1-1.5c-0.3-0.3-0.5-0.6-0.7-0.7s-0.4-0.2-0.6-0.3c-0.2,0-0.4-0.1-0.8-0.1h-1.7v4.8H666.1z M667.6,686.4h3.1
				c0.7,0,1.2-0.1,1.5-0.2c0.4-0.1,0.6-0.3,0.8-0.6c0.2-0.3,0.3-0.6,0.3-1c0-0.5-0.2-0.9-0.6-1.3c-0.4-0.3-1-0.5-1.7-0.5h-3.4V686.4
				z"/>
		</g>
		<g>
			<path class="st8" d="M696.6,691.2v1.3h-7.1c0-0.3,0-0.6,0.2-0.9c0.2-0.5,0.5-1,0.9-1.4s1-1,1.7-1.6c1.2-1,2-1.7,2.4-2.3
				c0.4-0.6,0.6-1.1,0.6-1.6c0-0.5-0.2-1-0.6-1.3s-0.9-0.5-1.5-0.5c-0.6,0-1.1,0.2-1.5,0.6c-0.4,0.4-0.6,0.9-0.6,1.6l-1.4-0.1
				c0.1-1,0.4-1.8,1-2.3c0.6-0.5,1.4-0.8,2.4-0.8c1,0,1.8,0.3,2.5,0.9c0.6,0.6,0.9,1.3,0.9,2.1c0,0.4-0.1,0.9-0.3,1.3
				c-0.2,0.4-0.5,0.9-0.9,1.3c-0.4,0.5-1.1,1.1-2,1.9c-0.8,0.7-1.3,1.1-1.5,1.4c-0.2,0.2-0.4,0.5-0.6,0.7H696.6z"/>
		</g>
		<g>
			<path class="st8" d="M612.6,303.9v-10.8h4.8c1,0,1.7,0.1,2.2,0.3c0.5,0.2,0.9,0.5,1.2,1c0.3,0.5,0.4,1,0.4,1.6
				c0,0.8-0.2,1.4-0.7,1.9c-0.5,0.5-1.3,0.9-2.3,1c0.4,0.2,0.7,0.4,0.9,0.5c0.4,0.4,0.8,0.9,1.2,1.4l1.9,2.9h-1.8l-1.4-2.2
				c-0.4-0.6-0.8-1.1-1-1.5c-0.3-0.3-0.5-0.6-0.7-0.7c-0.2-0.1-0.4-0.2-0.6-0.3c-0.2,0-0.4-0.1-0.8-0.1H614v4.8H612.6z M614,297.9
				h3.1c0.7,0,1.2-0.1,1.5-0.2c0.4-0.1,0.6-0.3,0.8-0.6c0.2-0.3,0.3-0.6,0.3-1c0-0.5-0.2-0.9-0.6-1.3c-0.4-0.3-1-0.5-1.7-0.5H614
				V297.9z"/>
			<path class="st8" d="M627.2,294.6v-1.3h7v1c-0.7,0.7-1.4,1.7-2,2.9s-1.2,2.4-1.6,3.7c-0.3,0.9-0.4,1.9-0.5,3h-1.4
				c0-0.8,0.2-1.9,0.5-3.1c0.3-1.2,0.8-2.4,1.4-3.5c0.6-1.1,1.2-2,1.9-2.8H627.2z"/>
			<path class="st8" d="M636.2,303.9v-1.5h1.5v1.5H636.2z"/>
		</g>
		<g>
			<path class="st8" d="M641.6,298.1c-0.5-0.2-1-0.5-1.2-0.9s-0.4-0.8-0.4-1.3c0-0.8,0.3-1.4,0.8-2s1.3-0.8,2.2-0.8
				c0.9,0,1.7,0.3,2.3,0.8c0.6,0.5,0.9,1.2,0.9,2c0,0.5-0.1,0.9-0.4,1.3s-0.7,0.7-1.2,0.9c0.7,0.2,1.2,0.6,1.5,1
				c0.3,0.5,0.5,1.1,0.5,1.7c0,0.9-0.3,1.7-1,2.3c-0.7,0.6-1.5,0.9-2.6,0.9c-1.1,0-1.9-0.3-2.6-0.9c-0.7-0.6-1-1.4-1-2.4
				c0-0.7,0.2-1.3,0.5-1.8S641,298.3,641.6,298.1z M640.9,300.8c0,0.4,0.1,0.7,0.3,1.1c0.2,0.4,0.4,0.6,0.8,0.8
				c0.4,0.2,0.7,0.3,1.1,0.3c0.6,0,1.2-0.2,1.6-0.6c0.4-0.4,0.6-0.9,0.6-1.5c0-0.6-0.2-1.2-0.6-1.6s-1-0.6-1.6-0.6
				c-0.6,0-1.1,0.2-1.5,0.6S640.9,300.2,640.9,300.8z M641.4,295.9c0,0.5,0.2,0.9,0.5,1.2c0.3,0.3,0.8,0.5,1.3,0.5
				c0.5,0,0.9-0.2,1.2-0.5s0.5-0.7,0.5-1.2c0-0.5-0.2-0.9-0.5-1.2c-0.3-0.3-0.8-0.5-1.2-0.5c-0.5,0-0.9,0.2-1.3,0.5
				C641.5,295,641.4,295.4,641.4,295.9z"/>
		</g>
		<g>
			<path class="st8" d="M603.8,560.1v-10.8h4.8c1,0,1.7,0.1,2.2,0.3c0.5,0.2,0.9,0.5,1.2,1c0.3,0.5,0.4,1,0.4,1.6
				c0,0.8-0.2,1.4-0.7,1.9c-0.5,0.5-1.3,0.9-2.3,1c0.4,0.2,0.7,0.4,0.9,0.5c0.4,0.4,0.8,0.9,1.2,1.4l1.9,2.9h-1.8l-1.4-2.2
				c-0.4-0.6-0.8-1.1-1-1.5c-0.3-0.3-0.5-0.6-0.7-0.7s-0.4-0.2-0.6-0.3c-0.2,0-0.4-0.1-0.8-0.1h-1.7v4.8H603.8z M605.2,554.1h3.1
				c0.7,0,1.2-0.1,1.5-0.2c0.4-0.1,0.6-0.3,0.8-0.6c0.2-0.3,0.3-0.6,0.3-1c0-0.5-0.2-0.9-0.6-1.3c-0.4-0.3-1-0.5-1.7-0.5h-3.4V554.1
				z"/>
			<path class="st8" d="M618.3,550.8v-1.3h7v1c-0.7,0.7-1.4,1.7-2,2.9c-0.7,1.2-1.2,2.4-1.6,3.7c-0.3,0.9-0.4,1.9-0.5,3h-1.4
				c0-0.8,0.2-1.9,0.5-3.1c0.3-1.2,0.8-2.4,1.4-3.5s1.2-2,1.9-2.8H618.3z"/>
			<path class="st8" d="M627.3,560.1v-1.5h1.5v1.5H627.3z"/>
		</g>
		<g>
			<path class="st8" d="M634.5,554.3c-0.5-0.2-1-0.5-1.2-0.9c-0.3-0.4-0.4-0.8-0.4-1.3c0-0.8,0.3-1.4,0.8-2c0.6-0.5,1.3-0.8,2.2-0.8
				c0.9,0,1.7,0.3,2.3,0.8c0.6,0.5,0.9,1.2,0.9,2c0,0.5-0.1,0.9-0.4,1.3s-0.7,0.7-1.2,0.9c0.7,0.2,1.2,0.6,1.5,1
				c0.3,0.5,0.5,1.1,0.5,1.7c0,0.9-0.3,1.7-1,2.3c-0.7,0.6-1.5,0.9-2.6,0.9c-1.1,0-1.9-0.3-2.6-0.9s-1-1.4-1-2.4
				c0-0.7,0.2-1.3,0.5-1.8C633.3,554.8,633.8,554.5,634.5,554.3z M633.8,557c0,0.4,0.1,0.7,0.3,1.1c0.2,0.4,0.4,0.6,0.8,0.8
				c0.4,0.2,0.7,0.3,1.1,0.3c0.6,0,1.2-0.2,1.6-0.6c0.4-0.4,0.6-0.9,0.6-1.5c0-0.6-0.2-1.2-0.6-1.6c-0.4-0.4-1-0.6-1.6-0.6
				c-0.6,0-1.1,0.2-1.5,0.6C634,555.9,633.8,556.4,633.8,557z M634.2,552.1c0,0.5,0.2,0.9,0.5,1.2c0.3,0.3,0.8,0.5,1.3,0.5
				c0.5,0,0.9-0.2,1.2-0.5s0.5-0.7,0.5-1.2c0-0.5-0.2-0.9-0.5-1.2s-0.8-0.5-1.2-0.5c-0.5,0-0.9,0.2-1.3,0.5
				C634.4,551.2,634.2,551.6,634.2,552.1z"/>
		</g>
		<g>
			<path class="st8" d="M560.9,369.8V359h4.8c1,0,1.7,0.1,2.2,0.3c0.5,0.2,0.9,0.5,1.2,1c0.3,0.5,0.4,1,0.4,1.6
				c0,0.8-0.2,1.4-0.7,1.9c-0.5,0.5-1.3,0.9-2.3,1c0.4,0.2,0.7,0.4,0.9,0.5c0.4,0.4,0.8,0.9,1.2,1.4l1.9,2.9h-1.8l-1.4-2.2
				c-0.4-0.6-0.8-1.1-1-1.5c-0.3-0.3-0.5-0.6-0.7-0.7c-0.2-0.1-0.4-0.2-0.6-0.3c-0.2,0-0.4-0.1-0.8-0.1h-1.7v4.8H560.9z
				 M562.4,363.7h3.1c0.7,0,1.2-0.1,1.5-0.2c0.4-0.1,0.6-0.3,0.8-0.6c0.2-0.3,0.3-0.6,0.3-1c0-0.5-0.2-0.9-0.6-1.3
				c-0.4-0.3-1-0.5-1.7-0.5h-3.4V363.7z"/>
			<path class="st8" d="M575.5,360.4v-1.3h7v1c-0.7,0.7-1.4,1.7-2,2.9s-1.2,2.4-1.6,3.7c-0.3,0.9-0.4,1.9-0.5,3H577
				c0-0.8,0.2-1.9,0.5-3.1c0.3-1.2,0.8-2.4,1.4-3.5c0.6-1.1,1.2-2,1.9-2.8H575.5z"/>
			<path class="st8" d="M583.8,364.5c0-1.3,0.1-2.3,0.4-3.1s0.7-1.4,1.2-1.8s1.2-0.6,1.9-0.6c0.6,0,1.1,0.1,1.5,0.3
				c0.4,0.2,0.8,0.6,1.1,1c0.3,0.4,0.5,1,0.7,1.6c0.2,0.6,0.2,1.5,0.2,2.5c0,1.3-0.1,2.3-0.4,3.1c-0.3,0.8-0.6,1.4-1.2,1.8
				c-0.5,0.4-1.2,0.6-2,0.6c-1,0-1.9-0.4-2.4-1.1C584.1,367.9,583.8,366.5,583.8,364.5z M585.1,364.5c0,1.8,0.2,2.9,0.6,3.5
				s0.9,0.9,1.5,0.9s1.1-0.3,1.5-0.9c0.4-0.6,0.6-1.8,0.6-3.5c0-1.8-0.2-2.9-0.6-3.5c-0.4-0.6-0.9-0.9-1.5-0.9
				c-0.6,0-1.1,0.3-1.5,0.8C585.3,361.5,585.1,362.7,585.1,364.5z"/>
			<path class="st8" d="M599,361.6l-1.3,0.1c-0.1-0.5-0.3-0.9-0.5-1.1c-0.4-0.4-0.8-0.6-1.3-0.6c-0.4,0-0.8,0.1-1.1,0.4
				c-0.4,0.3-0.7,0.7-1,1.3c-0.2,0.6-0.4,1.4-0.4,2.5c0.3-0.5,0.7-0.8,1.2-1.1c0.5-0.2,0.9-0.4,1.4-0.4c0.9,0,1.6,0.3,2.2,1
				c0.6,0.6,0.9,1.5,0.9,2.5c0,0.7-0.1,1.3-0.4,1.9c-0.3,0.6-0.7,1-1.2,1.3c-0.5,0.3-1.1,0.5-1.7,0.5c-1.1,0-2-0.4-2.7-1.2
				c-0.7-0.8-1-2.1-1-4c0-2.1,0.4-3.6,1.2-4.5c0.7-0.8,1.6-1.2,2.7-1.2c0.8,0,1.5,0.2,2.1,0.7S598.8,360.8,599,361.6z M593.6,366.3
				c0,0.5,0.1,0.9,0.3,1.3c0.2,0.4,0.5,0.7,0.8,0.9c0.3,0.2,0.7,0.3,1.1,0.3c0.6,0,1-0.2,1.4-0.7c0.4-0.4,0.6-1.1,0.6-1.8
				c0-0.7-0.2-1.3-0.6-1.8c-0.4-0.4-0.9-0.6-1.5-0.6c-0.6,0-1.1,0.2-1.5,0.6C593.8,365,593.6,365.6,593.6,366.3z"/>
		</g>
		<g>
			<path class="st8" d="M385.1,144.8V134h4.8c1,0,1.7,0.1,2.2,0.3c0.5,0.2,0.9,0.5,1.2,1c0.3,0.5,0.4,1,0.4,1.6
				c0,0.8-0.2,1.4-0.7,1.9c-0.5,0.5-1.3,0.9-2.3,1c0.4,0.2,0.7,0.4,0.9,0.5c0.4,0.4,0.8,0.9,1.2,1.4l1.9,2.9h-1.8l-1.4-2.2
				c-0.4-0.6-0.8-1.1-1-1.5c-0.3-0.3-0.5-0.6-0.7-0.7c-0.2-0.1-0.4-0.2-0.6-0.3c-0.2,0-0.4-0.1-0.8-0.1h-1.7v4.8H385.1z
				 M386.5,138.7h3.1c0.7,0,1.2-0.1,1.5-0.2c0.4-0.1,0.6-0.3,0.8-0.6c0.2-0.3,0.3-0.6,0.3-1c0-0.5-0.2-0.9-0.6-1.3
				c-0.4-0.3-1-0.5-1.7-0.5h-3.4V138.7z"/>
			<path class="st8" d="M406.5,143.5v1.3h-7.1c0-0.3,0-0.6,0.2-0.9c0.2-0.5,0.5-1,0.9-1.4s1-1,1.7-1.6c1.2-1,2-1.7,2.4-2.3
				c0.4-0.6,0.6-1.1,0.6-1.6c0-0.5-0.2-1-0.6-1.3s-0.9-0.5-1.5-0.5c-0.6,0-1.1,0.2-1.5,0.6c-0.4,0.4-0.6,0.9-0.6,1.6l-1.4-0.1
				c0.1-1,0.4-1.8,1-2.3c0.6-0.5,1.4-0.8,2.4-0.8c1,0,1.8,0.3,2.5,0.9c0.6,0.6,0.9,1.3,0.9,2.1c0,0.4-0.1,0.9-0.3,1.3
				s-0.5,0.9-0.9,1.3c-0.4,0.5-1.1,1.1-2,1.9c-0.8,0.7-1.3,1.1-1.5,1.4c-0.2,0.2-0.4,0.5-0.6,0.7H406.5z"/>
			<path class="st8" d="M407.9,139.4c0-1.3,0.1-2.3,0.4-3.1s0.7-1.4,1.2-1.8s1.2-0.6,1.9-0.6c0.6,0,1.1,0.1,1.5,0.3
				c0.4,0.2,0.8,0.6,1.1,1c0.3,0.4,0.5,1,0.7,1.6c0.2,0.6,0.2,1.5,0.2,2.5c0,1.3-0.1,2.3-0.4,3.1c-0.3,0.8-0.6,1.4-1.2,1.8
				c-0.5,0.4-1.2,0.6-2,0.6c-1,0-1.9-0.4-2.4-1.1C408.3,142.9,407.9,141.5,407.9,139.4z M409.3,139.4c0,1.8,0.2,2.9,0.6,3.5
				s0.9,0.9,1.5,0.9s1.1-0.3,1.5-0.9c0.4-0.6,0.6-1.8,0.6-3.5c0-1.8-0.2-2.9-0.6-3.5c-0.4-0.6-0.9-0.9-1.5-0.9
				c-0.6,0-1.1,0.3-1.5,0.8C409.5,136.5,409.3,137.7,409.3,139.4z"/>
			<path class="st8" d="M416.3,139.4c0-1.3,0.1-2.3,0.4-3.1s0.7-1.4,1.2-1.8s1.2-0.6,1.9-0.6c0.6,0,1.1,0.1,1.5,0.3
				c0.4,0.2,0.8,0.6,1.1,1c0.3,0.4,0.5,1,0.7,1.6c0.2,0.6,0.2,1.5,0.2,2.5c0,1.3-0.1,2.3-0.4,3.1c-0.3,0.8-0.6,1.4-1.2,1.8
				c-0.5,0.4-1.2,0.6-2,0.6c-1,0-1.9-0.4-2.4-1.1C416.6,142.9,416.3,141.5,416.3,139.4z M417.6,139.4c0,1.8,0.2,2.9,0.6,3.5
				s0.9,0.9,1.5,0.9s1.1-0.3,1.5-0.9c0.4-0.6,0.6-1.8,0.6-3.5c0-1.8-0.2-2.9-0.6-3.5c-0.4-0.6-0.9-0.9-1.5-0.9
				c-0.6,0-1.1,0.3-1.5,0.8C417.9,136.5,417.6,137.7,417.6,139.4z"/>
		</g>
		<g>
			<path class="st8" d="M670.4,264.6h-1.3v-8.4c-0.3,0.3-0.7,0.6-1.2,0.9c-0.5,0.3-1,0.5-1.4,0.7v-1.3c0.7-0.3,1.4-0.8,1.9-1.3
				c0.6-0.5,0.9-1,1.2-1.4h0.9V264.6z"/>
			<path class="st8" d="M674.5,258.3v-1.5h1.5v1.5H674.5z M674.5,264.6v-1.5h1.5v1.5H674.5z"/>
		</g>
		<g>
			<path class="st8" d="M684.8,264.6V262h-4.7v-1.2l4.9-7h1.1v7h1.5v1.2h-1.5v2.6H684.8z M684.8,260.8V256l-3.4,4.8H684.8z"/>
		</g>
		<g>
			<path class="st8" d="M308.4,586.3h-1.3v-8.4c-0.3,0.3-0.7,0.6-1.2,0.9c-0.5,0.3-1,0.5-1.4,0.7v-1.3c0.7-0.3,1.4-0.8,1.9-1.3
				s0.9-1,1.2-1.4h0.9V586.3z"/>
			<path class="st8" d="M312.5,580v-1.5h1.5v1.5H312.5z M312.5,586.3v-1.5h1.5v1.5H312.5z"/>
		</g>
		<g>
			<path class="st8" d="M323.5,586.3v-2.6h-4.7v-1.2l4.9-7h1.1v7h1.5v1.2h-1.5v2.6H323.5z M323.5,582.5v-4.8l-3.4,4.8H323.5z"/>
		</g>
		<g>
			<path class="st8" d="M273.6,644.6h-1.3v-8.4c-0.3,0.3-0.7,0.6-1.2,0.9c-0.5,0.3-1,0.5-1.4,0.7v-1.3c0.7-0.3,1.4-0.8,1.9-1.3
				s0.9-1,1.2-1.4h0.9V644.6z"/>
			<path class="st8" d="M277.7,638.3v-1.5h1.5v1.5H277.7z M277.7,644.6v-1.5h1.5v1.5H277.7z"/>
			<path class="st8" d="M286.1,644.6h-1.3v-8.4c-0.3,0.3-0.7,0.6-1.2,0.9c-0.5,0.3-1,0.5-1.4,0.7v-1.3c0.7-0.3,1.4-0.8,1.9-1.3
				s0.9-1,1.2-1.4h0.9V644.6z"/>
			<path class="st8" d="M289.5,641.8l1.4-0.1c0.1,0.7,0.3,1.2,0.7,1.5c0.4,0.3,0.8,0.5,1.4,0.5c0.6,0,1.2-0.2,1.6-0.7
				c0.4-0.5,0.7-1.1,0.7-1.9c0-0.8-0.2-1.3-0.6-1.8c-0.4-0.4-1-0.7-1.7-0.7c-0.4,0-0.8,0.1-1.2,0.3c-0.3,0.2-0.6,0.4-0.8,0.8
				l-1.2-0.2l1-5.5h5.3v1.3h-4.3l-0.6,2.9c0.6-0.5,1.3-0.7,2-0.7c0.9,0,1.7,0.3,2.4,1c0.6,0.6,1,1.5,1,2.5c0,1-0.3,1.8-0.9,2.5
				c-0.7,0.9-1.6,1.3-2.8,1.3c-1,0-1.8-0.3-2.4-0.8C289.9,643.4,289.6,642.7,289.5,641.8z"/>
		</g>
		<g>
			<path class="st8" d="M117.1,410.4v1.3h-8.4c0.3,0.3,0.6,0.7,0.9,1.3c0.3,0.5,0.5,1,0.7,1.4H109c-0.3-0.7-0.8-1.4-1.3-1.9
				c-0.5-0.6-1-0.9-1.4-1.2v-0.9H117.1z"/>
			<path class="st8" d="M115.8,400.1h1.3v7.1c-0.3,0-0.6,0-0.9-0.2c-0.5-0.2-1-0.5-1.4-0.9s-1-1-1.6-1.7c-1-1.2-1.7-2-2.3-2.4
				c-0.6-0.4-1.1-0.6-1.6-0.6c-0.5,0-1,0.2-1.3,0.6s-0.5,0.9-0.5,1.5c0,0.6,0.2,1.1,0.6,1.5c0.4,0.4,0.9,0.6,1.6,0.6l-0.1,1.4
				c-1-0.1-1.8-0.4-2.3-1c-0.5-0.6-0.8-1.4-0.8-2.4c0-1,0.3-1.8,0.9-2.4c0.6-0.6,1.3-0.9,2.1-0.9c0.4,0,0.9,0.1,1.3,0.3
				c0.4,0.2,0.9,0.5,1.3,0.9c0.5,0.4,1.1,1.1,1.9,2c0.7,0.8,1.1,1.3,1.4,1.5c0.2,0.2,0.5,0.4,0.7,0.6V400.1z"/>
			<path class="st8" d="M114.2,398.7l-0.1-1.4c0.7-0.1,1.2-0.3,1.5-0.7c0.3-0.4,0.5-0.8,0.5-1.4c0-0.6-0.2-1.2-0.7-1.6
				c-0.5-0.4-1.1-0.7-1.9-0.7c-0.8,0-1.3,0.2-1.8,0.6c-0.4,0.4-0.7,1-0.7,1.7c0,0.4,0.1,0.8,0.3,1.2c0.2,0.3,0.4,0.6,0.8,0.8
				l-0.2,1.2l-5.5-1v-5.3h1.3v4.3l2.9,0.6c-0.5-0.6-0.7-1.3-0.7-2c0-0.9,0.3-1.7,1-2.4c0.6-0.6,1.5-1,2.5-1c1,0,1.8,0.3,2.5,0.9
				c0.9,0.7,1.3,1.6,1.3,2.8c0,1-0.3,1.8-0.8,2.4C115.9,398.3,115.2,398.6,114.2,398.7z"/>
			<path class="st8" d="M117.1,389.6h-1.5v-1.5h1.5V389.6z"/>
		</g>
		<g>
			<path class="st8" d="M114.2,386.2l-0.1-1.4c0.7-0.1,1.2-0.3,1.5-0.7c0.3-0.4,0.5-0.8,0.5-1.4c0-0.6-0.2-1.2-0.7-1.6
				c-0.5-0.4-1.1-0.7-1.9-0.7c-0.8,0-1.3,0.2-1.8,0.6c-0.4,0.4-0.7,1-0.7,1.7c0,0.4,0.1,0.8,0.3,1.2c0.2,0.3,0.4,0.6,0.8,0.8
				L112,386l-5.5-1v-5.3h1.3v4.3l2.9,0.6c-0.5-0.6-0.7-1.3-0.7-2c0-0.9,0.3-1.7,1-2.4c0.6-0.6,1.5-1,2.5-1c1,0,1.8,0.3,2.5,0.9
				c0.9,0.7,1.3,1.6,1.3,2.8c0,1-0.3,1.8-0.8,2.4C115.9,385.8,115.2,386.1,114.2,386.2z"/>
		</g>
		<g>
			<path class="st8" d="M199.8,152.1h1.3v7.1c-0.3,0-0.6,0-0.9-0.2c-0.5-0.2-1-0.5-1.4-0.9s-1-1-1.6-1.7c-1-1.2-1.7-2-2.3-2.4
				c-0.6-0.4-1.1-0.6-1.6-0.6c-0.5,0-1,0.2-1.3,0.6s-0.5,0.9-0.5,1.5c0,0.6,0.2,1.1,0.6,1.5c0.4,0.4,0.9,0.6,1.6,0.6l-0.1,1.4
				c-1-0.1-1.8-0.4-2.3-1c-0.5-0.6-0.8-1.4-0.8-2.4c0-1,0.3-1.8,0.9-2.4c0.6-0.6,1.3-0.9,2.1-0.9c0.4,0,0.9,0.1,1.3,0.3
				c0.4,0.2,0.9,0.5,1.3,0.9c0.5,0.4,1.1,1.1,1.9,2c0.7,0.8,1.1,1.3,1.4,1.5c0.2,0.2,0.5,0.4,0.7,0.6V152.1z"/>
			<path class="st8" d="M191.8,150.6h-1.3v-7h1c0.7,0.7,1.7,1.4,2.9,2c1.2,0.7,2.4,1.2,3.7,1.6c0.9,0.3,1.9,0.4,3,0.5v1.4
				c-0.8,0-1.9-0.2-3.1-0.5s-2.4-0.8-3.5-1.4c-1.1-0.6-2-1.2-2.8-1.9V150.6z"/>
			<path class="st8" d="M201.1,141.6h-1.5v-1.5h1.5V141.6z"/>
		</g>
		<g>
			<path class="st8" d="M191.8,138.1h-1.3v-7h1c0.7,0.7,1.7,1.4,2.9,2c1.2,0.7,2.4,1.2,3.7,1.6c0.9,0.3,1.9,0.4,3,0.5v1.4
				c-0.8,0-1.9-0.2-3.1-0.5s-2.4-0.8-3.5-1.4c-1.1-0.6-2-1.2-2.8-1.9V138.1z"/>
		</g>
		<g>
			<path class="st8" d="M197.5,387.5l-0.2-1.3c0.7-0.2,1.3-0.4,1.6-0.8c0.3-0.4,0.5-0.8,0.5-1.3c0-0.6-0.2-1.1-0.6-1.6
				c-0.4-0.4-1-0.6-1.6-0.6c-0.6,0-1.1,0.2-1.5,0.6s-0.6,0.9-0.6,1.5c0,0.2,0,0.6,0.1,0.9l-1.2-0.1c0-0.1,0-0.2,0-0.2
				c0-0.6-0.1-1.1-0.4-1.5c-0.3-0.4-0.7-0.7-1.4-0.7c-0.5,0-0.9,0.2-1.2,0.5c-0.3,0.3-0.5,0.8-0.5,1.3c0,0.5,0.2,0.9,0.5,1.3
				s0.8,0.6,1.5,0.7l-0.2,1.3c-0.9-0.2-1.6-0.5-2.1-1.1c-0.5-0.6-0.7-1.3-0.7-2.1c0-0.6,0.1-1.1,0.4-1.6c0.3-0.5,0.6-0.9,1-1.1
				c0.4-0.3,0.9-0.4,1.4-0.4c0.5,0,0.9,0.1,1.3,0.4c0.4,0.2,0.7,0.6,0.9,1.1c0.1-0.6,0.5-1.1,0.9-1.5c0.5-0.4,1-0.5,1.7-0.5
				c0.9,0,1.7,0.3,2.4,1c0.7,0.7,1,1.5,1,2.6c0,0.9-0.3,1.7-0.8,2.4C199.1,387.1,198.4,387.4,197.5,387.5z"/>
			<path class="st8" d="M192.2,372.3l0.1,1.3c-0.5,0.1-0.9,0.3-1.1,0.5c-0.4,0.4-0.6,0.8-0.6,1.3c0,0.4,0.1,0.8,0.4,1.1
				c0.3,0.4,0.7,0.7,1.3,1c0.6,0.2,1.4,0.4,2.5,0.4c-0.5-0.3-0.8-0.7-1.1-1.2s-0.4-0.9-0.4-1.4c0-0.9,0.3-1.6,1-2.2
				c0.6-0.6,1.5-0.9,2.5-0.9c0.7,0,1.3,0.1,1.9,0.4c0.6,0.3,1,0.7,1.3,1.2c0.3,0.5,0.5,1.1,0.5,1.7c0,1.1-0.4,2-1.2,2.7s-2.1,1-4,1
				c-2.1,0-3.6-0.4-4.5-1.2c-0.8-0.7-1.2-1.6-1.2-2.7c0-0.8,0.2-1.5,0.7-2.1C190.7,372.8,191.4,372.4,192.2,372.3z M196.8,377.7
				c0.5,0,0.9-0.1,1.3-0.3c0.4-0.2,0.7-0.5,0.9-0.8s0.3-0.7,0.3-1.1c0-0.6-0.2-1-0.7-1.4c-0.4-0.4-1.1-0.6-1.8-0.6
				c-0.7,0-1.3,0.2-1.8,0.6s-0.6,0.9-0.6,1.5c0,0.6,0.2,1.1,0.6,1.5S196.1,377.7,196.8,377.7z"/>
			<path class="st8" d="M200.3,370.1h-1.5v-1.5h1.5V370.1z"/>
			<path class="st8" d="M197.5,366.7l-0.2-1.3c0.7-0.2,1.3-0.4,1.6-0.8c0.3-0.4,0.5-0.8,0.5-1.3c0-0.6-0.2-1.1-0.6-1.6
				c-0.4-0.4-1-0.6-1.6-0.6c-0.6,0-1.1,0.2-1.5,0.6s-0.6,0.9-0.6,1.5c0,0.2,0,0.6,0.1,0.9l-1.2-0.1c0-0.1,0-0.2,0-0.2
				c0-0.6-0.1-1.1-0.4-1.5c-0.3-0.4-0.7-0.7-1.4-0.7c-0.5,0-0.9,0.2-1.2,0.5c-0.3,0.3-0.5,0.8-0.5,1.3c0,0.5,0.2,0.9,0.5,1.3
				s0.8,0.6,1.5,0.7l-0.2,1.3c-0.9-0.2-1.6-0.5-2.1-1.1c-0.5-0.6-0.7-1.3-0.7-2.1c0-0.6,0.1-1.1,0.4-1.6c0.3-0.5,0.6-0.9,1-1.1
				c0.4-0.3,0.9-0.4,1.4-0.4c0.5,0,0.9,0.1,1.3,0.4c0.4,0.2,0.7,0.6,0.9,1.1c0.1-0.6,0.5-1.1,0.9-1.5c0.5-0.4,1-0.5,1.7-0.5
				c0.9,0,1.7,0.3,2.4,1c0.7,0.7,1,1.5,1,2.6c0,0.9-0.3,1.7-0.8,2.4C199.1,366.2,198.4,366.6,197.5,366.7z"/>
			<path class="st8" d="M191,358.2h-1.3v-7h1c0.7,0.7,1.7,1.4,2.9,2c1.2,0.7,2.4,1.2,3.7,1.6c0.9,0.3,1.9,0.4,3,0.5v1.4
				c-0.8,0-1.9-0.2-3.1-0.5s-2.4-0.8-3.5-1.4c-1.1-0.6-2-1.2-2.8-1.9V358.2z"/>
			<path class="st8" d="M197.5,350l-0.1-1.4c0.7-0.1,1.2-0.3,1.5-0.7c0.3-0.4,0.5-0.8,0.5-1.4c0-0.6-0.2-1.2-0.7-1.6
				c-0.5-0.4-1.1-0.7-1.9-0.7c-0.8,0-1.3,0.2-1.8,0.6c-0.4,0.4-0.7,1-0.7,1.7c0,0.4,0.1,0.8,0.3,1.2c0.2,0.3,0.4,0.6,0.8,0.8
				l-0.2,1.2l-5.5-1v-5.3h1.3v4.3l2.9,0.6c-0.5-0.6-0.7-1.3-0.7-2c0-0.9,0.3-1.7,1-2.4c0.6-0.6,1.5-1,2.5-1c1,0,1.8,0.3,2.5,0.9
				c0.9,0.7,1.3,1.6,1.3,2.8c0,1-0.3,1.8-0.8,2.4C199.1,349.5,198.4,349.9,197.5,350z"/>
		</g>
		<g>
			<path class="st8" d="M197.5,570.1l-0.2-1.3c0.7-0.2,1.3-0.4,1.6-0.8c0.3-0.4,0.5-0.8,0.5-1.3c0-0.6-0.2-1.1-0.6-1.6
				c-0.4-0.4-1-0.6-1.6-0.6c-0.6,0-1.1,0.2-1.5,0.6c-0.4,0.4-0.6,0.9-0.6,1.5c0,0.2,0,0.6,0.1,0.9l-1.2-0.1c0-0.1,0-0.2,0-0.2
				c0-0.6-0.1-1.1-0.4-1.5c-0.3-0.5-0.7-0.7-1.4-0.7c-0.5,0-0.9,0.2-1.2,0.5c-0.3,0.3-0.5,0.8-0.5,1.3c0,0.5,0.2,0.9,0.5,1.3
				c0.3,0.3,0.8,0.6,1.5,0.7l-0.2,1.3c-0.9-0.2-1.6-0.5-2.1-1.1c-0.5-0.6-0.7-1.3-0.7-2.1c0-0.6,0.1-1.1,0.4-1.6
				c0.3-0.5,0.6-0.9,1-1.1c0.4-0.3,0.9-0.4,1.4-0.4c0.5,0,0.9,0.1,1.3,0.4c0.4,0.2,0.7,0.6,0.9,1.1c0.1-0.6,0.5-1.1,0.9-1.5
				c0.5-0.4,1-0.5,1.7-0.5c0.9,0,1.7,0.3,2.4,1c0.7,0.7,1,1.5,1,2.6c0,0.9-0.3,1.7-0.8,2.4C199.1,569.7,198.4,570,197.5,570.1z"/>
			<path class="st8" d="M192.2,554.9l0.1,1.3c-0.5,0.1-0.9,0.3-1.1,0.5c-0.4,0.4-0.6,0.8-0.6,1.3c0,0.4,0.1,0.8,0.4,1.1
				c0.3,0.4,0.7,0.7,1.3,1c0.6,0.2,1.4,0.4,2.5,0.4c-0.5-0.3-0.8-0.7-1.1-1.2c-0.2-0.5-0.4-0.9-0.4-1.4c0-0.9,0.3-1.6,1-2.2
				c0.6-0.6,1.5-0.9,2.5-0.9c0.7,0,1.3,0.1,1.9,0.4c0.6,0.3,1,0.7,1.3,1.2c0.3,0.5,0.5,1.1,0.5,1.7c0,1.1-0.4,2-1.2,2.7
				c-0.8,0.7-2.1,1-4,1c-2.1,0-3.6-0.4-4.5-1.2c-0.8-0.7-1.2-1.6-1.2-2.7c0-0.8,0.2-1.5,0.7-2.1C190.7,555.3,191.4,555,192.2,554.9z
				 M196.8,560.3c0.5,0,0.9-0.1,1.3-0.3c0.4-0.2,0.7-0.5,0.9-0.8c0.2-0.3,0.3-0.7,0.3-1.1c0-0.6-0.2-1-0.7-1.4
				c-0.4-0.4-1.1-0.6-1.8-0.6c-0.7,0-1.3,0.2-1.8,0.6c-0.4,0.4-0.6,0.9-0.6,1.5c0,0.6,0.2,1.1,0.6,1.5
				C195.6,560.1,196.1,560.3,196.8,560.3z"/>
			<path class="st8" d="M200.3,552.7h-1.5v-1.5h1.5V552.7z"/>
			<path class="st8" d="M192.2,542.4l0.1,1.3c-0.5,0.1-0.9,0.3-1.1,0.5c-0.4,0.4-0.6,0.8-0.6,1.3c0,0.4,0.1,0.8,0.4,1.1
				c0.3,0.4,0.7,0.7,1.3,1c0.6,0.2,1.4,0.4,2.5,0.4c-0.5-0.3-0.8-0.7-1.1-1.2c-0.2-0.5-0.4-0.9-0.4-1.4c0-0.9,0.3-1.6,1-2.2
				c0.6-0.6,1.5-0.9,2.5-0.9c0.7,0,1.3,0.1,1.9,0.4c0.6,0.3,1,0.7,1.3,1.2c0.3,0.5,0.5,1.1,0.5,1.7c0,1.1-0.4,2-1.2,2.7
				c-0.8,0.7-2.1,1-4,1c-2.1,0-3.6-0.4-4.5-1.2c-0.8-0.7-1.2-1.6-1.2-2.7c0-0.8,0.2-1.5,0.7-2.1
				C190.7,542.8,191.4,542.5,192.2,542.4z M196.8,547.8c0.5,0,0.9-0.1,1.3-0.3c0.4-0.2,0.7-0.5,0.9-0.8c0.2-0.3,0.3-0.7,0.3-1.1
				c0-0.6-0.2-1-0.7-1.4c-0.4-0.4-1.1-0.6-1.8-0.6c-0.7,0-1.3,0.2-1.8,0.6c-0.4,0.4-0.6,0.9-0.6,1.5c0,0.6,0.2,1.1,0.6,1.5
				C195.6,547.6,196.1,547.8,196.8,547.8z"/>
			<path class="st8" d="M199,533.9h1.3v7.1c-0.3,0-0.6,0-0.9-0.2c-0.5-0.2-1-0.5-1.4-0.9s-1-1-1.6-1.7c-1-1.2-1.7-2-2.3-2.4
				c-0.6-0.4-1.1-0.6-1.6-0.6c-0.5,0-1,0.2-1.3,0.6s-0.5,0.9-0.5,1.5c0,0.6,0.2,1.1,0.6,1.5c0.4,0.4,0.9,0.6,1.6,0.6l-0.1,1.4
				c-1-0.1-1.8-0.4-2.3-1c-0.5-0.6-0.8-1.4-0.8-2.4c0-1,0.3-1.8,0.9-2.5c0.6-0.6,1.3-0.9,2.1-0.9c0.4,0,0.9,0.1,1.3,0.3
				c0.4,0.2,0.9,0.5,1.3,0.9c0.5,0.4,1.1,1.1,1.9,2c0.7,0.8,1.1,1.3,1.4,1.5c0.2,0.2,0.5,0.4,0.7,0.6V533.9z"/>
			<path class="st8" d="M197.5,532.5l-0.1-1.4c0.7-0.1,1.2-0.3,1.5-0.7c0.3-0.4,0.5-0.8,0.5-1.4c0-0.6-0.2-1.2-0.7-1.6
				c-0.5-0.4-1.1-0.7-1.9-0.7c-0.8,0-1.3,0.2-1.8,0.6c-0.4,0.4-0.7,1-0.7,1.7c0,0.4,0.1,0.8,0.3,1.2c0.2,0.3,0.4,0.6,0.8,0.8
				l-0.2,1.2l-5.5-1v-5.3h1.3v4.3l2.9,0.6c-0.5-0.6-0.7-1.3-0.7-2c0-0.9,0.3-1.7,1-2.4c0.6-0.6,1.5-1,2.5-1c1,0,1.8,0.3,2.5,0.9
				c0.9,0.7,1.3,1.6,1.3,2.8c0,1-0.3,1.8-0.8,2.4C199.1,532.1,198.4,532.4,197.5,532.5z"/>
		</g>
		<g>
			<path class="st8" d="M194.5,701.4c-0.2,0.5-0.5,1-0.9,1.2c-0.4,0.3-0.8,0.4-1.3,0.4c-0.8,0-1.4-0.3-2-0.8
				c-0.5-0.6-0.8-1.3-0.8-2.2c0-0.9,0.3-1.7,0.8-2.3c0.5-0.6,1.2-0.9,2-0.9c0.5,0,0.9,0.1,1.3,0.4s0.7,0.7,0.9,1.2
				c0.2-0.7,0.6-1.2,1-1.5c0.5-0.3,1.1-0.5,1.7-0.5c0.9,0,1.7,0.3,2.3,1c0.6,0.7,0.9,1.5,0.9,2.6c0,1.1-0.3,1.9-0.9,2.6
				s-1.4,1-2.4,1c-0.7,0-1.3-0.2-1.8-0.5C195,702.6,194.7,702.1,194.5,701.4z M192.2,701.7c0.5,0,0.9-0.2,1.2-0.5
				c0.3-0.3,0.5-0.8,0.5-1.3c0-0.5-0.2-0.9-0.5-1.2s-0.7-0.5-1.2-0.5c-0.5,0-0.9,0.2-1.2,0.5s-0.5,0.8-0.5,1.2
				c0,0.5,0.2,0.9,0.5,1.3C191.4,701.5,191.8,701.7,192.2,701.7z M197.2,702.1c0.4,0,0.7-0.1,1.1-0.3c0.4-0.2,0.6-0.4,0.8-0.8
				c0.2-0.4,0.3-0.7,0.3-1.1c0-0.6-0.2-1.2-0.6-1.6c-0.4-0.4-0.9-0.6-1.5-0.6c-0.6,0-1.2,0.2-1.6,0.6c-0.4,0.4-0.6,1-0.6,1.6
				c0,0.6,0.2,1.1,0.6,1.5C196.1,701.9,196.6,702.1,197.2,702.1z"/>
			<path class="st8" d="M200.3,694.3h-1.5v-1.5h1.5V694.3z"/>
		</g>
		<g>
			<path class="st8" d="M200.3,688.4v1.3h-8.4c0.3,0.3,0.6,0.7,0.9,1.2c0.3,0.5,0.5,1,0.7,1.4h-1.3c-0.3-0.7-0.8-1.4-1.3-1.9
				s-1-0.9-1.4-1.2v-0.9H200.3z"/>
		</g>
		<g>
			<path class="st8" d="M486.1,773h-1.3v-8.4c-0.3,0.3-0.7,0.6-1.2,0.9c-0.5,0.3-1,0.5-1.4,0.7v-1.3c0.7-0.3,1.4-0.8,1.9-1.3
				s0.9-1,1.2-1.4h0.9V773z"/>
			<path class="st8" d="M489.5,767.7c0-1.3,0.1-2.3,0.4-3.1c0.3-0.8,0.7-1.4,1.2-1.8c0.5-0.4,1.2-0.6,1.9-0.6c0.6,0,1.1,0.1,1.5,0.3
				c0.4,0.2,0.8,0.6,1.1,1c0.3,0.4,0.5,1,0.7,1.6c0.2,0.6,0.2,1.5,0.2,2.5c0,1.3-0.1,2.3-0.4,3.1c-0.3,0.8-0.6,1.4-1.2,1.8
				s-1.2,0.6-2,0.6c-1,0-1.9-0.4-2.4-1.1C489.8,771.2,489.5,769.7,489.5,767.7z M490.8,767.7c0,1.8,0.2,2.9,0.6,3.5s0.9,0.9,1.5,0.9
				s1.1-0.3,1.5-0.9c0.4-0.6,0.6-1.8,0.6-3.5c0-1.8-0.2-2.9-0.6-3.5c-0.4-0.6-0.9-0.9-1.5-0.9c-0.6,0-1.1,0.3-1.5,0.8
				C491.1,764.7,490.8,765.9,490.8,767.7z"/>
			<path class="st8" d="M504.7,764.9l-1.3,0.1c-0.1-0.5-0.3-0.9-0.5-1.1c-0.4-0.4-0.8-0.6-1.3-0.6c-0.4,0-0.8,0.1-1.1,0.4
				c-0.4,0.3-0.7,0.7-1,1.3c-0.2,0.6-0.4,1.4-0.4,2.5c0.3-0.5,0.7-0.8,1.2-1.1c0.5-0.2,0.9-0.4,1.4-0.4c0.9,0,1.6,0.3,2.2,1
				c0.6,0.6,0.9,1.5,0.9,2.5c0,0.7-0.1,1.3-0.4,1.9c-0.3,0.6-0.7,1-1.2,1.3c-0.5,0.3-1.1,0.5-1.7,0.5c-1.1,0-2-0.4-2.7-1.2
				c-0.7-0.8-1-2.1-1-4c0-2.1,0.4-3.6,1.2-4.5c0.7-0.8,1.6-1.2,2.7-1.2c0.8,0,1.5,0.2,2.1,0.7C504.2,763.4,504.6,764.1,504.7,764.9z
				 M499.3,769.5c0,0.5,0.1,0.9,0.3,1.3c0.2,0.4,0.5,0.7,0.8,0.9c0.3,0.2,0.7,0.3,1.1,0.3c0.6,0,1-0.2,1.4-0.7
				c0.4-0.4,0.6-1.1,0.6-1.8c0-0.7-0.2-1.3-0.6-1.8c-0.4-0.4-0.9-0.6-1.5-0.6c-0.6,0-1.1,0.2-1.5,0.6
				C499.5,768.3,499.3,768.8,499.3,769.5z"/>
		</g>
		<g>
			<path class="st8" d="M568.8,429.6h-1.3v-8.4c-0.3,0.3-0.7,0.6-1.2,0.9c-0.5,0.3-1,0.5-1.4,0.7v-1.3c0.7-0.3,1.4-0.8,1.9-1.3
				c0.6-0.5,0.9-1,1.2-1.4h0.9V429.6z"/>
			<path class="st8" d="M577.2,429.6h-1.3v-8.4c-0.3,0.3-0.7,0.6-1.2,0.9c-0.5,0.3-1,0.5-1.4,0.7v-1.3c0.7-0.3,1.4-0.8,1.9-1.3
				c0.6-0.5,0.9-1,1.2-1.4h0.9V429.6z"/>
		</g>
	</g>
</g>
<g id="Watermark">
	<g>
		<rect x="438.5" y="652.8" class="st0" width="123.1" height="46.3"/>
		<g>
			<rect x="444.9" y="660.7" class="st106" width="62.9" height="30.6"/>
			<rect x="507.7" y="660.7" class="st106" width="47.4" height="30.6"/>
			<g>
				<path class="st107" d="M466.5,666.8l-2.8,18.9H461l-1.6-11l-1.5,11h-2.7l-2.8-18.9h2.5l1.8,14.2l1.8-14.2h2l1.8,14.2l1.8-14.2
					H466.5z"/>
				<path class="st107" d="M467.9,685.7v-18.9h2.5v18.9H467.9z"/>
				<path class="st107" d="M472.8,666.8h5c1.9,0,2.9,1.1,2.9,3.2v4.7c0,1.7-0.5,2.7-1.5,3.1l1.8,7.9h-2.4l-1.7-7.6h-1.5v7.6h-2.5
					V666.8z M475.4,675.9h1.7c0.8,0,1.1-0.5,1.1-1.4v-4.1c0-0.9-0.4-1.4-1.1-1.4h-1.7V675.9z"/>
				<path class="st107" d="M486.8,669.1v16.6h-2.5v-16.6h-2.4v-2.3h7.4v2.3H486.8z"/>
				<path class="st107" d="M496.3,685.7v-8.6h-3.1v8.6h-2.5v-18.9h2.5v8h3.1v-8h2.5v18.9H496.3z"/>
			</g>
			<g>
				<path class="st107" d="M516.3,666.8h5c1.9,0,2.9,1.1,2.9,3.2v4.7c0,1.7-0.5,2.7-1.5,3.1l1.8,7.9H522l-1.7-7.6h-1.5v7.6h-2.5
					V666.8z M518.8,675.9h1.7c0.8,0,1.1-0.5,1.1-1.4v-4.1c0-0.9-0.4-1.4-1.1-1.4h-1.7V675.9z"/>
				<path class="st107" d="M528.7,685.7h-2.5V670c0-2.2,1-3.2,3-3.2h1.9c2,0,3,1.1,3,3.2v15.7h-2.5v-6.9h-2.9V685.7z M531.6,676.5
					v-6.3c0-0.7-0.4-1.1-1.1-1.1h-0.7c-0.7,0-1.1,0.4-1.1,1.1v6.3H531.6z"/>
				<path class="st107" d="M536.3,685.7v-18.9h2.5v18.9H536.3z"/>
				<path class="st107" d="M547.2,685.7h-6v-18.9h2.5v16.6h3.5V685.7z"/>
			</g>
		</g>
	</g>
</g>
</svg>
