<?xml version="1.0" encoding="utf-8"?>
<!-- Generator: Adobe Illustrator 25.2.3, SVG Export Plug-In . SVG Version: 6.00 Build 0)  -->
<svg version="1.1" xmlns="http://www.w3.org/2000/svg" xmlns:xlink="http://www.w3.org/1999/xlink" x="0px" y="0px"
	 viewBox="0 0 1000 800" style="enable-background:new 0 0 1000 800;" xml:space="preserve">
<style type="text/css">
	.st0{fill:#F0F0F0;}
	.st1{fill:none;stroke:#221E1F;stroke-width:1.2032;}
	.st2{fill:none;stroke:#221E1F;stroke-width:1.0736;}
	.st3{fill:none;stroke:#221E1F;stroke-width:1.2032;stroke-miterlimit:10;}
	.st4{fill:none;stroke:#221E1F;stroke-width:1.0736;stroke-linecap:round;stroke-linejoin:round;stroke-miterlimit:10;}
	.st5{fill:none;stroke:#221E1F;stroke-width:1.0736;stroke-miterlimit:10;}
	.st6{fill:#303030;}
	.st7{fill:none;stroke:#221E1F;stroke-width:1.2032;stroke-linecap:round;stroke-linejoin:round;}
	.st8{fill:#221E1F;}
	.st9{fill:none;stroke:#221E1F;stroke-width:1.2032;stroke-dasharray:15.0983,4.5412;}
	.st10{fill:none;stroke:#221E1F;stroke-width:1.327;}
	.st11{fill:none;stroke:#221E1F;stroke-width:1.327;stroke-miterlimit:10;}
	.st12{fill:none;stroke:#221E1F;stroke-width:1.5312;stroke-miterlimit:10;}
	.st13{fill:none;stroke:#221E1F;stroke-width:1.327;stroke-linecap:round;stroke-linejoin:round;}
	.st14{fill:none;stroke:#221E1F;stroke-width:1.327;stroke-dasharray:16.5574,4.9134;}
	.st15{fill:none;stroke:#221E1F;stroke-width:1.1875;stroke-linecap:round;stroke-linejoin:round;}
	.st16{fill:none;stroke:#221E1F;stroke-width:1.1875;stroke-miterlimit:10;}
	.st17{fill:none;stroke:#221E1F;stroke-width:1.0882;}
	.st18{fill:none;stroke:#221E1F;stroke-width:1.0882;stroke-miterlimit:10;}
	.st19{fill:none;stroke:#221E1F;stroke-width:1.01;stroke-linecap:round;stroke-linejoin:round;stroke-miterlimit:10;}
	.st20{fill:none;stroke:#221E1F;stroke-width:1.0268;stroke-linecap:round;stroke-linejoin:round;stroke-miterlimit:10;}
	.st21{fill:none;stroke:#221E1F;stroke-width:1.0268;}
	.st22{fill:none;stroke:#221E1F;stroke-width:1.0882;stroke-linecap:round;stroke-linejoin:round;stroke-miterlimit:10;}
	.st23{fill:none;stroke:#221E1F;stroke-width:1.0882;stroke-linecap:round;stroke-linejoin:round;}
	.st24{fill:none;stroke:#221E1F;stroke-width:1.0882;stroke-dasharray:13.6188,4.0709;}
	.st25{fill:none;stroke:#303030;stroke-width:1.0882;stroke-miterlimit:10;}
	.st26{fill:none;stroke:#303030;stroke-width:0.9459;stroke-miterlimit:10;}
	.st27{fill:none;stroke:#303030;stroke-width:0.625;stroke-miterlimit:10;}
	.st28{fill:none;stroke:#221E1F;stroke-width:1.2065;}
	.st29{fill:none;stroke:#221E1F;stroke-width:1.058;stroke-miterlimit:10;}
	.st30{fill:none;stroke:#221E1F;stroke-width:1.2065;stroke-miterlimit:10;}
	.st31{fill:none;stroke:#221E1F;stroke-width:1.2065;stroke-dasharray:15.1403,4.5538;}
	.st32{fill:none;stroke:#221E1F;stroke-width:1.2065;stroke-linecap:round;stroke-linejoin:round;}
	.st33{fill:none;stroke:#221E1F;stroke-width:1.0363;}
	.st34{fill:none;stroke:#221E1F;stroke-width:1.0363;stroke-miterlimit:10;}
	.st35{fill:none;stroke:#221E1F;stroke-width:1.0536;stroke-linecap:round;stroke-linejoin:round;stroke-miterlimit:10;}
	.st36{fill:none;stroke:#221E1F;stroke-width:1.0536;stroke-miterlimit:10;}
	.st37{fill:none;stroke:#221E1F;stroke-width:1.0363;stroke-linecap:round;stroke-linejoin:round;}
	.st38{fill:none;stroke:#221E1F;stroke-width:1.0363;stroke-dasharray:14.1142,4.2633;}
	.st39{fill:none;stroke:#221E1F;stroke-width:1.0394;}
	.st40{fill:none;stroke:#221E1F;stroke-width:1.1318;stroke-linecap:round;stroke-linejoin:round;stroke-miterlimit:10;}
	.st41{fill:none;stroke:#221E1F;stroke-width:1.0394;stroke-miterlimit:10;}
	.st42{fill:none;stroke:#221E1F;stroke-width:1.1318;stroke-miterlimit:10;}
	.st43{fill:none;stroke:#221E1F;stroke-width:1.0394;stroke-dasharray:14.096,4.2184;}
	.st44{fill:none;stroke:#221E1F;stroke-width:0.9644;stroke-linecap:round;stroke-linejoin:round;}
	.st45{fill:none;stroke:#221E1F;stroke-width:1.0394;stroke-linecap:round;stroke-linejoin:round;}
	.st46{fill:none;stroke:#221E1F;stroke-width:1.0394;stroke-dasharray:28.8705,8.4195;}
	.st47{fill:none;stroke:#221E1F;stroke-width:1.0394;stroke-dasharray:30.1958,9.7419;}
	.st48{fill:none;stroke:#221E1F;stroke-width:1.1834;}
	.st49{fill:none;stroke:#221E1F;stroke-width:1.1834;stroke-dasharray:22.2172,9.0331;}
	.st50{fill:none;stroke:#221E1F;stroke-width:1.1834;stroke-dasharray:22.205,9.024;}
	.st51{fill:none;stroke:#221E1F;stroke-width:1.1834;stroke-dasharray:22.2172,9.0362;}
	.st52{fill:none;stroke:#221E1F;stroke-width:1.1834;stroke-dasharray:22.205,9.021;}
	.st53{fill:none;stroke:#221E1F;stroke-width:1.1834;stroke-dasharray:14.8529,4.4695;}
	.st54{fill:none;stroke:#221E1F;stroke-width:1.1834;stroke-linecap:round;stroke-linejoin:round;}
	.st55{fill:none;stroke:#221E1F;stroke-width:0.9791;}
	.st56{fill:none;stroke:#221E1F;stroke-width:1.2076;}
	.st57{fill:none;stroke:#221E1F;stroke-width:1.2076;stroke-dasharray:17.3391,6.3726;}
	.st58{fill:none;stroke:#221E1F;stroke-width:1.2076;stroke-dasharray:17.3363,6.3726;}
	.st59{fill:none;stroke:#221E1F;stroke-width:0.9791;stroke-dasharray:17.5349,5.1568;}
	.st60{fill:none;stroke:#303030;stroke-width:0.9791;}
	.st61{fill:none;stroke:#221E1F;stroke-width:0.8976;stroke-linecap:round;stroke-linejoin:round;}
	.st62{fill:none;stroke:#241F21;stroke-width:0.9771;}
	
		.st63{fill:none;stroke:#241F21;stroke-width:0.9771;stroke-linecap:round;stroke-linejoin:round;stroke-miterlimit:1;stroke-dasharray:16.5466,16.5466;}
	
		.st64{fill:none;stroke:#241F21;stroke-width:0.9771;stroke-linecap:round;stroke-linejoin:round;stroke-miterlimit:1;stroke-dasharray:17.1257,17.1257;}
	
		.st65{fill:none;stroke:#241F21;stroke-width:0.9771;stroke-linecap:round;stroke-linejoin:round;stroke-miterlimit:1;stroke-dasharray:16.5967,16.5967;}
	.st66{fill:none;stroke:#241F21;stroke-width:0.9771;stroke-linecap:round;stroke-linejoin:round;stroke-miterlimit:1;}
	.st67{fill:#241F21;}
	.st68{fill:none;stroke:#241F21;stroke-width:0.7626;stroke-linecap:round;stroke-linejoin:round;stroke-miterlimit:1;}
	.st69{fill:none;stroke:#221E1F;stroke-width:1.2516;}
	.st70{fill:none;stroke:#221E1F;stroke-width:1.2516;stroke-miterlimit:10;}
	.st71{fill:none;stroke:#221E1F;stroke-width:0.6258;}
	.st72{fill:none;stroke:#221E1F;stroke-width:0.6258;stroke-dasharray:18.3883,4.6234;}
	.st73{fill:none;stroke:#221E1F;stroke-width:0.6258;stroke-dasharray:21.5524,17.6199;}
	.st74{fill:none;stroke:#221E1F;stroke-width:0.6258;stroke-dasharray:20.1706,6.4056;}
	.st75{fill:none;stroke:#221E1F;stroke-width:0.9654;}
	.st76{fill:none;stroke:#303030;stroke-width:0.9654;}
	.st77{fill:none;stroke:#303030;stroke-width:0.9017;}
	.st78{fill:none;stroke:#303030;stroke-width:0.9654;stroke-dasharray:14.0607,4.2416;}
	.st79{fill:none;stroke:#303030;stroke-width:0.9654;stroke-dasharray:13.938,4.1189;}
	.st80{fill:none;stroke:#303030;stroke-width:0.9654;stroke-dasharray:14.3912,4.5697;}
	.st81{fill:none;stroke:#303030;stroke-width:0.9654;stroke-dasharray:14.7358,4.9143;}
	.st82{fill:none;stroke:#221E1F;stroke-width:0.9654;stroke-dasharray:15.4321,4.6901;}
	.st83{fill:none;stroke:#221E1F;stroke-width:0.9654;stroke-linecap:round;stroke-linejoin:round;}
	.st84{fill:none;stroke:#303030;stroke-width:0.8686;stroke-miterlimit:10;}
	.st85{fill:none;stroke:#303030;stroke-width:0.9654;stroke-miterlimit:10;}
	.st86{fill:none;stroke:#221E1F;stroke-width:2.6151;}
	.st87{fill:none;stroke:#221E1F;stroke-width:1.816;}
	.st88{fill:none;stroke:#221E1F;stroke-width:1.816;stroke-dasharray:21.5996,5.873;}
	.st89{fill:none;stroke:#221E1F;stroke-width:1.816;stroke-dasharray:21.596,5.8693;}
	.st90{fill:none;stroke:#221E1F;stroke-width:1.816;stroke-dasharray:45.6036,34.3698;}
	.st91{fill:none;stroke:#221E1F;stroke-width:1.816;stroke-dasharray:45.5927,34.3589;}
	.st92{fill:none;stroke:#221E1F;stroke-width:1.816;stroke-dasharray:21.596,5.873;}
	.st93{fill:none;stroke:#221E1F;stroke-width:2.158;}
	.st94{fill:none;stroke:#221E1F;stroke-width:1.4986;}
	.st95{fill:none;stroke:#221E1F;stroke-width:1.4986;stroke-dasharray:19.9046,5.413;}
	.st96{fill:none;stroke:#221E1F;stroke-width:1.4986;stroke-dasharray:19.9016,5.41;}
	.st97{fill:none;stroke:#221E1F;stroke-width:1.4986;stroke-dasharray:35.6909,25.3385;}
	.st98{fill:none;stroke:#221E1F;stroke-width:0.8673;}
	.st99{fill:none;stroke:#303030;stroke-width:0.9125;stroke-miterlimit:10;}
	.st100{fill:none;stroke:#303030;stroke-width:8.808669e-02;stroke-linecap:round;stroke-linejoin:round;stroke-miterlimit:10;}
	.st101{fill:none;stroke:#303030;stroke-width:0.8786;stroke-miterlimit:10;}
	.st102{fill:none;stroke:#303030;stroke-width:0.8786;}
	.st103{fill:none;stroke:#221E1F;stroke-width:0.9125;}
	.st104{fill:none;stroke:#221E1F;stroke-width:0.9125;stroke-dasharray:15.7291,4.7273;}
	.st105{fill:none;stroke:#221E1F;stroke-width:0.9125;stroke-linecap:round;stroke-linejoin:round;}
	.st106{fill:#F0F0F0;stroke:#CCCCCC;stroke-miterlimit:10;}
	.st107{fill:#CCCCCC;}
</style>
<g id="Flat">
	<g>
		<g>
			<path class="st0" d="M775.5,662.9c-0.5-13.3-5.7-13.8-10-15.3c-4.3-1.4-73.4-4.8-87.7-8.6c-14.3-3.8-78.2-26.2-110.6-36.7
				c-32.4-10.5-34.8-21.4-36.2-37.7c-1.4-16.2-0.5-144.4-0.5-223.5c0-51.1-2.3-73,15.2-80.5c51.5-22.3,97.7-26.5,96.7-38.6
				c-0.5-6.2-0.1-39.5-2.9-73.4c-4-49.6-45.2-58.8-50-60.5c-9.5-3.3-91.5-5.7-91.5-5.7s-82,2.4-91.5,5.7c-4.8,1.7-46,10.9-50,60.5
				c-2.7,33.9-2.4,67.2-2.9,73.4c-0.9,12.1,45.2,16.4,96.8,38.6c17.6,7.6,15.3,29.4,15.3,80.5c0,79.1,1,207.3-0.5,223.5
				c-1.4,16.2-3.8,27.2-36.2,37.7c-32.4,10.5-96.3,32.9-110.6,36.7c-14.3,3.8-83.4,7.1-87.7,8.6c-4.3,1.4-9.5,1.9-10,15.3
				c-0.5,13.3-3.3,35.3,11,34.8c14.3-0.5,266.4,0,266.4,0s252.1-0.5,266.4,0C778.8,698.1,776,676.2,775.5,662.9"/>
			<path class="st75" d="M775.5,662.9c-0.5-13.3-5.7-13.8-10-15.3c-4.3-1.4-73.4-4.8-87.7-8.6c-14.3-3.8-78.2-26.2-110.6-36.7
				c-32.4-10.5-34.8-21.4-36.2-37.7c-1.4-16.2-0.5-144.4-0.5-223.5c0-51.1-2.3-73,15.2-80.5c51.5-22.3,97.7-26.5,96.7-38.6
				c-0.5-6.2-0.1-39.5-2.9-73.4c-4-49.6-45.2-58.8-50-60.5c-9.5-3.3-91.5-5.7-91.5-5.7s-82,2.4-91.5,5.7c-4.8,1.7-46,10.9-50,60.5
				c-2.7,33.9-2.4,67.2-2.9,73.4c-0.9,12.1,45.2,16.4,96.8,38.6c17.6,7.6,15.3,29.4,15.3,80.5c0,79.1,1,207.3-0.5,223.5
				c-1.4,16.2-3.8,27.2-36.2,37.7c-32.4,10.5-96.3,32.9-110.6,36.7c-14.3,3.8-83.4,7.1-87.7,8.6c-4.3,1.4-9.5,1.9-10,15.3
				c-0.5,13.3-3.3,35.3,11,34.8c14.3-0.5,266.4,0,266.4,0s252.1-0.5,266.4,0C778.8,698.1,776,676.2,775.5,662.9z"/>
		</g>
		<line class="st76" x1="640.9" y1="13.2" x2="640.9" y2="133.8"/>
		<line class="st75" x1="359.5" y1="13.2" x2="359.5" y2="133.8"/>
		<path class="st76" d="M372.3,25.6h255.8 M588.6,45.8v38.2 M411.9,45.8v41.3"/>
		<polygon class="st6" points="375.2,29.6 359.5,25.4 375.2,21.2 		"/>
		<polygon class="st6" points="625.3,29.6 640.9,25.4 625.3,21.2 		"/>
		<line class="st76" x1="425.4" y1="54.6" x2="575.4" y2="54.6"/>
		<polygon class="st6" points="428.3,58.6 412.6,54.4 428.3,50.2 		"/>
		<polygon class="st6" points="572.5,58.6 588.2,54.4 572.5,50.2 		"/>
		<polyline class="st76" points="462.7,97.2 466.6,184.9 390.9,184.9 		"/>
		<polygon class="st6" points="458.8,100.2 462.3,84.3 467.2,99.8 		"/>
		<polyline class="st76" points="451.8,279 404.6,306.4 345.4,306.4 		"/>
		<polygon class="st6" points="447.3,277 463,272.7 451.6,284.2 		"/>
		<polyline class="st76" points="449.6,576.4 402.3,547 358.3,547 		"/>
		<polygon class="st6" points="449.3,571.5 460.4,583.3 444.9,578.6 		"/>
		<polyline class="st76" points="211.2,706.9 177.9,741.2 124,741.2 		"/>
		<polygon class="st6" points="206.3,706.1 220.2,697.8 212.3,712 		"/>
		<polyline class="st76" points="215.2,641.8 181,611.7 128.5,611.7 		"/>
		<polygon class="st6" points="215.7,636.9 224.7,650.4 210.2,643.2 		"/>
		<polyline class="st76" points="313,626.3 302.3,573.2 254.6,573.2 		"/>
		<polygon class="st6" points="316.3,622.7 315.3,638.9 308.1,624.3 		"/>
		<polyline class="st76" points="342.5,231.9 297.6,256.3 244.4,256.3 		"/>
		<polygon class="st6" points="338,229.8 353.8,226 342,237.2 		"/>
		<polyline class="st76" points="357.1,106.4 315.9,78.3 241,78.3 		"/>
		<polygon class="st6" points="357,101.4 367.6,113.7 352.3,108.4 		"/>
		<polyline class="st76" points="576.6,99.5 565,183 635.5,183 		"/>
		<polygon class="st6" points="572.3,101.8 578.6,86.8 580.6,102.9 		"/>
		<line class="st77" x1="162.2" y1="684.3" x2="162.2" y2="653.8"/>
		<polygon class="st6" points="166,681.6 162,696.2 158.1,681.6 		"/>
		<polygon class="st6" points="166,656.4 162,641.8 158.1,656.4 		"/>
		<line class="st76" x1="113.2" y1="684.7" x2="113.2" y2="421.1"/>
		<polygon class="st6" points="117.3,681.9 113.1,697.6 108.8,681.9 		"/>
		<polygon class="st6" points="117.3,424 113.1,408.3 108.8,424 		"/>
		<line class="st78" x1="547.9" y1="259.7" x2="499.6" y2="275.1"/>
		<line class="st79" x1="451.5" y1="261.1" x2="499.6" y2="275.1"/>
		<line class="st80" x1="550.6" y1="595.7" x2="500.5" y2="580.6"/>
		<line class="st81" x1="447.8" y1="594.5" x2="500.1" y2="580.6"/>
		<line class="st76" x1="500.5" y1="580.6" x2="880.7" y2="580.6"/>
		<path class="st75" d="M768.1,648.5h35.2 M500.5,622.4l344.4-0.2"/>
		<path class="st76" d="M155.2,641.1h151.3 M503.2,275.6h228 M466,408.9H107 M640.9,226.1h55.3 M539,84.1h374.1"/>
		<g>
			<path class="st75" d="M680.3,639.6v115.2 M775.8,682.5v106.9 M220.2,681.6v107.7 M105.3,697.5H914"/>
		</g>
		<path class="st76" d="M680.3,639.6l-179.8-17.2l-193,18.7 M319.6,640v114.9"/>
		<g>
			<path class="st8" d="M453.6,17l1.5-0.1c0.1,0.7,0.4,1.3,0.8,1.6s0.9,0.5,1.4,0.5c0.7,0,1.3-0.3,1.7-0.8s0.7-1.2,0.7-2
				c0-0.8-0.2-1.4-0.7-1.9s-1-0.7-1.8-0.7c-0.5,0-0.9,0.1-1.2,0.3c-0.4,0.2-0.7,0.5-0.9,0.8l-1.3-0.2l1.1-5.9h5.7V10h-4.6l-0.6,3.1
				c0.7-0.5,1.4-0.7,2.2-0.7c1,0,1.9,0.3,2.5,1c0.7,0.7,1,1.6,1,2.7c0,1-0.3,1.9-0.9,2.7c-0.7,0.9-1.7,1.4-3,1.4
				c-1,0-1.9-0.3-2.6-0.9C454,18.7,453.7,17.9,453.6,17z"/>
			<path class="st8" d="M464.7,13.7c-0.6-0.2-1-0.5-1.3-0.9c-0.3-0.4-0.4-0.9-0.4-1.4c0-0.8,0.3-1.5,0.9-2.1s1.4-0.9,2.4-0.9
				c1,0,1.8,0.3,2.4,0.9s0.9,1.3,0.9,2.1c0,0.5-0.1,1-0.4,1.4c-0.3,0.4-0.7,0.7-1.3,0.9c0.7,0.2,1.2,0.6,1.6,1.1
				c0.4,0.5,0.6,1.1,0.6,1.8c0,1-0.3,1.8-1,2.5c-0.7,0.7-1.6,1-2.7,1s-2.1-0.3-2.7-1c-0.7-0.7-1-1.5-1-2.5c0-0.7,0.2-1.4,0.6-1.9
				C463.4,14.3,464,13.9,464.7,13.7z M463.9,16.7c0,0.4,0.1,0.8,0.3,1.2c0.2,0.4,0.5,0.7,0.9,0.9c0.4,0.2,0.8,0.3,1.2,0.3
				c0.7,0,1.2-0.2,1.7-0.7c0.4-0.4,0.7-1,0.7-1.7c0-0.7-0.2-1.2-0.7-1.7s-1-0.7-1.7-0.7c-0.7,0-1.2,0.2-1.7,0.7
				C464.2,15.4,463.9,16,463.9,16.7z M464.4,11.3c0,0.5,0.2,1,0.5,1.3c0.4,0.3,0.8,0.5,1.4,0.5c0.5,0,1-0.2,1.3-0.5
				c0.3-0.3,0.5-0.8,0.5-1.3c0-0.5-0.2-1-0.5-1.3s-0.8-0.5-1.3-0.5c-0.5,0-1,0.2-1.3,0.5C464.6,10.4,464.4,10.9,464.4,11.3z"/>
			<path class="st8" d="M472.2,20v-1.6h1.6V20H472.2z"/>
			<path class="st8" d="M483.3,18.6V20h-7.6c0-0.3,0-0.7,0.2-1c0.2-0.5,0.5-1,0.9-1.5s1-1.1,1.8-1.7c1.3-1,2.1-1.8,2.5-2.4
				c0.4-0.6,0.7-1.2,0.7-1.7c0-0.6-0.2-1-0.6-1.4c-0.4-0.4-0.9-0.6-1.6-0.6c-0.7,0-1.2,0.2-1.6,0.6s-0.6,1-0.6,1.7l-1.5-0.1
				c0.1-1.1,0.5-1.9,1.1-2.5c0.6-0.6,1.5-0.9,2.6-0.9c1.1,0,2,0.3,2.6,0.9s1,1.4,1,2.3c0,0.5-0.1,0.9-0.3,1.4s-0.5,0.9-0.9,1.4
				c-0.4,0.5-1.2,1.2-2.2,2c-0.8,0.7-1.4,1.2-1.6,1.4c-0.2,0.3-0.4,0.5-0.6,0.8H483.3z"/>
			<path class="st8" d="M485,10V8.6h7.4v1.1c-0.7,0.8-1.5,1.8-2.2,3.1c-0.7,1.3-1.3,2.6-1.7,4c-0.3,1-0.5,2-0.5,3.2h-1.5
				c0-0.9,0.2-2,0.5-3.3c0.3-1.3,0.8-2.5,1.5-3.7c0.6-1.2,1.3-2.2,2-3H485z"/>
		</g>
		<g>
			<path class="st6" d="M501.8,8.8c-1.2,1.6-2,3.7-2,6.6c0,2.9,0.9,4.9,2,6.5h-1.1c-1-1.3-2.1-3.4-2.1-6.5c0-3.2,1.1-5.2,2.1-6.6
				H501.8z"/>
			<path class="st6" d="M502.9,20v-0.9L504,18c2.7-2.5,3.9-3.9,3.9-5.5c0-1.1-0.5-2-2.1-2c-0.9,0-1.7,0.5-2.2,0.9l-0.5-1
				c0.7-0.6,1.8-1.1,3-1.1c2.3,0,3.2,1.5,3.2,3c0,1.9-1.4,3.5-3.6,5.6l-0.8,0.8v0h4.7V20H502.9z"/>
			<path class="st6" d="M511.2,19.1c0-0.6,0.4-1,1-1c0.6,0,0.9,0.4,0.9,1c0,0.6-0.4,1-1,1C511.6,20.1,511.2,19.7,511.2,19.1z"/>
			<path class="st6" d="M514.5,20v-0.9l1.1-1.1c2.7-2.5,3.9-3.9,3.9-5.5c0-1.1-0.5-2-2.1-2c-0.9,0-1.7,0.5-2.2,0.9l-0.5-1
				c0.7-0.6,1.8-1.1,3-1.1c2.3,0,3.2,1.5,3.2,3c0,1.9-1.4,3.5-3.6,5.6l-0.8,0.8v0h4.7V20H514.5z"/>
			<path class="st6" d="M523.5,19c0.3,0,0.7,0,1.1,0c0.8-0.1,1.6-0.5,2.2-1c0.7-0.6,1.2-1.5,1.4-2.8h0c-0.6,0.7-1.4,1.1-2.5,1.1
				c-1.9,0-3.1-1.4-3.1-3.2c0-2,1.4-3.7,3.6-3.7c2.1,0,3.5,1.7,3.5,4.4c0,2.3-0.8,3.9-1.8,4.9c-0.8,0.8-1.9,1.3-3,1.4
				c-0.5,0.1-1,0.1-1.3,0.1V19z M524,13c0,1.3,0.8,2.2,2,2.2c0.9,0,1.7-0.5,2.1-1.1c0.1-0.1,0.1-0.3,0.1-0.5c0-1.8-0.7-3.2-2.1-3.2
				C524.9,10.4,524,11.5,524,13z"/>
			<path class="st6" d="M535.3,20v-2.8h-4.9v-0.9l4.7-6.7h1.5V16h1.5v1.1h-1.5V20H535.3z M535.3,16v-3.5c0-0.5,0-1.1,0-1.6h0
				c-0.3,0.6-0.6,1.1-0.9,1.5l-2.6,3.6v0H535.3z"/>
			<path class="st6" d="M540.7,9l-0.3,3.9h-0.9L539.3,9H540.7z M543.1,9l-0.3,3.9H542L541.7,9H543.1z"/>
		</g>
		<g>
			<path class="st6" d="M544.3,21.9c1.1-1.6,2-3.7,2-6.6c0-2.9-0.9-4.9-2-6.5h1.1c1,1.3,2.1,3.4,2.1,6.5c0,3.2-1.1,5.2-2.1,6.6
				H544.3z"/>
		</g>
		<g>
			<path class="st8" d="M472.3,45.7l1.4-0.2c0.2,0.8,0.4,1.4,0.8,1.7c0.4,0.4,0.9,0.5,1.4,0.5c0.7,0,1.2-0.2,1.7-0.7s0.7-1,0.7-1.7
				c0-0.6-0.2-1.2-0.6-1.6s-1-0.6-1.6-0.6c-0.3,0-0.6,0.1-1,0.2l0.2-1.2c0.1,0,0.2,0,0.2,0c0.6,0,1.1-0.2,1.6-0.5s0.7-0.8,0.7-1.5
				c0-0.5-0.2-0.9-0.5-1.3s-0.8-0.5-1.4-0.5c-0.5,0-1,0.2-1.4,0.5c-0.4,0.3-0.6,0.9-0.7,1.6l-1.4-0.3c0.2-0.9,0.6-1.7,1.2-2.2
				c0.6-0.5,1.4-0.8,2.3-0.8c0.6,0,1.2,0.1,1.7,0.4c0.5,0.3,0.9,0.6,1.2,1.1c0.3,0.5,0.4,1,0.4,1.5c0,0.5-0.1,0.9-0.4,1.4
				c-0.3,0.4-0.7,0.7-1.2,1c0.7,0.2,1.2,0.5,1.6,1c0.4,0.5,0.6,1.1,0.6,1.9c0,1-0.4,1.9-1.1,2.6s-1.7,1-2.8,1c-1,0-1.8-0.3-2.5-0.9
				C472.8,47.4,472.4,46.6,472.3,45.7z"/>
			<path class="st8" d="M488.6,40l-1.4,0.1c-0.1-0.6-0.3-1-0.5-1.2c-0.4-0.4-0.9-0.6-1.4-0.6c-0.5,0-0.8,0.1-1.2,0.4
				c-0.4,0.3-0.8,0.8-1.1,1.4c-0.3,0.6-0.4,1.5-0.4,2.7c0.3-0.5,0.8-0.9,1.2-1.2c0.5-0.3,1-0.4,1.5-0.4c0.9,0,1.7,0.3,2.4,1
				s1,1.6,1,2.7c0,0.7-0.2,1.4-0.5,2s-0.7,1.1-1.3,1.4c-0.5,0.3-1.2,0.5-1.9,0.5c-1.2,0-2.1-0.4-2.9-1.3s-1.1-2.3-1.1-4.3
				c0-2.2,0.4-3.8,1.2-4.9c0.7-0.9,1.7-1.3,2.9-1.3c0.9,0,1.6,0.3,2.2,0.8S488.5,39.1,488.6,40z M482.8,45c0,0.5,0.1,1,0.3,1.4
				c0.2,0.4,0.5,0.8,0.9,1c0.4,0.2,0.8,0.3,1.2,0.3c0.6,0,1.1-0.2,1.5-0.7c0.4-0.5,0.6-1.1,0.6-2c0-0.8-0.2-1.4-0.6-1.9
				s-1-0.7-1.6-0.7c-0.6,0-1.2,0.2-1.6,0.7C483,43.6,482.8,44.2,482.8,45z"/>
			<path class="st8" d="M491,48.7v-1.6h1.6v1.6H491z"/>
			<path class="st8" d="M502,40l-1.4,0.1c-0.1-0.6-0.3-1-0.5-1.2c-0.4-0.4-0.9-0.6-1.4-0.6c-0.5,0-0.8,0.1-1.2,0.4
				c-0.4,0.3-0.8,0.8-1.1,1.4c-0.3,0.6-0.4,1.5-0.4,2.7c0.3-0.5,0.8-0.9,1.2-1.2c0.5-0.3,1-0.4,1.5-0.4c0.9,0,1.7,0.3,2.4,1
				s1,1.6,1,2.7c0,0.7-0.2,1.4-0.5,2s-0.7,1.1-1.3,1.4c-0.5,0.3-1.2,0.5-1.9,0.5c-1.2,0-2.1-0.4-2.9-1.3s-1.1-2.3-1.1-4.3
				c0-2.2,0.4-3.8,1.2-4.9c0.7-0.9,1.7-1.3,2.9-1.3c0.9,0,1.6,0.3,2.2,0.8S501.9,39.1,502,40z M496.2,45c0,0.5,0.1,1,0.3,1.4
				c0.2,0.4,0.5,0.8,0.9,1c0.4,0.2,0.8,0.3,1.2,0.3c0.6,0,1.1-0.2,1.5-0.7c0.4-0.5,0.6-1.1,0.6-2c0-0.8-0.2-1.4-0.6-1.9
				s-1-0.7-1.6-0.7c-0.6,0-1.2,0.2-1.6,0.7C496.4,43.6,496.2,44.2,496.2,45z"/>
			<path class="st8" d="M503.6,43c0-1.4,0.1-2.5,0.4-3.3c0.3-0.8,0.7-1.5,1.2-1.9c0.6-0.5,1.2-0.7,2.1-0.7c0.6,0,1.2,0.1,1.6,0.4
				s0.9,0.6,1.2,1.1c0.3,0.5,0.5,1,0.7,1.7c0.2,0.7,0.3,1.6,0.3,2.7c0,1.4-0.1,2.4-0.4,3.3c-0.3,0.8-0.7,1.5-1.2,1.9
				s-1.2,0.7-2.1,0.7c-1.1,0-2-0.4-2.6-1.2C504,46.7,503.6,45.2,503.6,43z M505,43c0,1.9,0.2,3.1,0.7,3.8c0.4,0.6,1,0.9,1.6,0.9
				c0.6,0,1.2-0.3,1.6-0.9s0.7-1.9,0.7-3.8c0-1.9-0.2-3.2-0.7-3.8c-0.4-0.6-1-0.9-1.7-0.9c-0.6,0-1.2,0.3-1.6,0.8
				C505.3,39.8,505,41.1,505,43z"/>
			<path class="st8" d="M512.6,38.7v-1.4h7.4v1.1c-0.7,0.8-1.5,1.8-2.2,3.1c-0.7,1.3-1.3,2.6-1.7,4c-0.3,1-0.5,2-0.5,3.2h-1.5
				c0-0.9,0.2-2,0.5-3.3c0.3-1.3,0.8-2.5,1.5-3.7c0.6-1.2,1.3-2.2,2-3H512.6z"/>
			<path class="st8" d="M523.6,42.5c-0.6-0.2-1-0.5-1.3-0.9c-0.3-0.4-0.4-0.9-0.4-1.4c0-0.8,0.3-1.5,0.9-2.1s1.4-0.9,2.4-0.9
				c1,0,1.8,0.3,2.4,0.9s0.9,1.3,0.9,2.1c0,0.5-0.1,1-0.4,1.4c-0.3,0.4-0.7,0.7-1.3,0.9c0.7,0.2,1.2,0.6,1.6,1.1
				c0.4,0.5,0.6,1.1,0.6,1.8c0,1-0.3,1.8-1,2.5c-0.7,0.7-1.6,1-2.7,1s-2.1-0.3-2.7-1c-0.7-0.7-1-1.5-1-2.5c0-0.7,0.2-1.4,0.6-1.9
				C522.4,43,522.9,42.6,523.6,42.5z M522.9,45.4c0,0.4,0.1,0.8,0.3,1.2c0.2,0.4,0.5,0.7,0.9,0.9c0.4,0.2,0.8,0.3,1.2,0.3
				c0.7,0,1.2-0.2,1.7-0.7c0.4-0.4,0.7-1,0.7-1.7c0-0.7-0.2-1.2-0.7-1.7s-1-0.7-1.7-0.7c-0.7,0-1.2,0.2-1.7,0.7
				C523.1,44.2,522.9,44.7,522.9,45.4z M523.4,40.1c0,0.5,0.2,1,0.5,1.3c0.4,0.3,0.8,0.5,1.4,0.5c0.5,0,1-0.2,1.3-0.5
				c0.3-0.3,0.5-0.8,0.5-1.3c0-0.5-0.2-1-0.5-1.3s-0.8-0.5-1.3-0.5c-0.5,0-1,0.2-1.3,0.5C523.5,39.2,523.4,39.6,523.4,40.1z"/>
		</g>
		<g>
			<path class="st8" d="M241.1,71.2V59.7h5.1c1,0,1.8,0.1,2.3,0.3c0.5,0.2,1,0.6,1.3,1.1s0.5,1.1,0.5,1.7c0,0.8-0.3,1.5-0.8,2.1
				c-0.5,0.6-1.3,0.9-2.4,1.1c0.4,0.2,0.7,0.4,0.9,0.6c0.4,0.4,0.9,0.9,1.3,1.5l2,3.1h-1.9l-1.5-2.4c-0.4-0.7-0.8-1.2-1.1-1.6
				c-0.3-0.4-0.5-0.6-0.8-0.8s-0.5-0.2-0.7-0.3c-0.2,0-0.5-0.1-0.8-0.1h-1.8v5.1H241.1z M242.6,64.8h3.3c0.7,0,1.2-0.1,1.6-0.2
				s0.7-0.4,0.9-0.7c0.2-0.3,0.3-0.7,0.3-1c0-0.5-0.2-1-0.6-1.3c-0.4-0.4-1-0.5-1.9-0.5h-3.6V64.8z"/>
			<path class="st8" d="M257.5,71.2H256v-9c-0.3,0.3-0.8,0.6-1.3,1c-0.6,0.3-1,0.6-1.5,0.7v-1.4c0.8-0.4,1.5-0.8,2.1-1.4
				c0.6-0.5,1-1,1.3-1.5h0.9V71.2z"/>
		</g>
		<g>
			<path class="st8" d="M261.1,68.2l1.4-0.2c0.2,0.8,0.4,1.4,0.8,1.7c0.4,0.4,0.9,0.5,1.4,0.5c0.7,0,1.2-0.2,1.7-0.7s0.7-1,0.7-1.7
				c0-0.6-0.2-1.2-0.6-1.6s-1-0.6-1.6-0.6c-0.3,0-0.6,0.1-1,0.2l0.2-1.2c0.1,0,0.2,0,0.2,0c0.6,0,1.1-0.2,1.6-0.5
				c0.5-0.3,0.7-0.8,0.7-1.5c0-0.5-0.2-0.9-0.5-1.3s-0.8-0.5-1.4-0.5c-0.5,0-1,0.2-1.4,0.5c-0.4,0.3-0.6,0.9-0.7,1.6l-1.4-0.3
				c0.2-0.9,0.6-1.7,1.2-2.2c0.6-0.5,1.4-0.8,2.3-0.8c0.6,0,1.2,0.1,1.7,0.4c0.5,0.3,0.9,0.6,1.2,1.1c0.3,0.5,0.4,1,0.4,1.5
				c0,0.5-0.1,0.9-0.4,1.4c-0.3,0.4-0.7,0.7-1.2,1c0.7,0.2,1.2,0.5,1.6,1c0.4,0.5,0.6,1.1,0.6,1.9c0,1-0.4,1.9-1.1,2.6s-1.7,1-2.8,1
				c-1,0-1.8-0.3-2.5-0.9C261.6,69.9,261.2,69.1,261.1,68.2z"/>
		</g>
		<g>
			<path class="st8" d="M404.7,179v-11.5h5.1c1,0,1.8,0.1,2.3,0.3c0.5,0.2,1,0.6,1.3,1.1s0.5,1.1,0.5,1.7c0,0.8-0.3,1.5-0.8,2.1
				c-0.5,0.6-1.3,0.9-2.4,1.1c0.4,0.2,0.7,0.4,0.9,0.6c0.4,0.4,0.9,0.9,1.3,1.5l2,3.1h-1.9l-1.5-2.4c-0.4-0.7-0.8-1.2-1.1-1.6
				c-0.3-0.4-0.5-0.6-0.8-0.8s-0.5-0.2-0.7-0.3c-0.2,0-0.5-0.1-0.8-0.1h-1.8v5.1H404.7z M406.2,172.6h3.3c0.7,0,1.2-0.1,1.6-0.2
				s0.7-0.4,0.9-0.7c0.2-0.3,0.3-0.7,0.3-1c0-0.5-0.2-1-0.6-1.3c-0.4-0.4-1-0.5-1.9-0.5h-3.6V172.6z"/>
			<path class="st8" d="M423.2,177.7v1.4h-7.6c0-0.3,0-0.7,0.2-1c0.2-0.5,0.5-1,0.9-1.5s1-1.1,1.8-1.7c1.3-1,2.1-1.8,2.5-2.4
				c0.4-0.6,0.7-1.2,0.7-1.7c0-0.6-0.2-1-0.6-1.4c-0.4-0.4-0.9-0.6-1.6-0.6c-0.7,0-1.2,0.2-1.6,0.6s-0.6,1-0.6,1.7l-1.5-0.1
				c0.1-1.1,0.5-1.9,1.1-2.5c0.6-0.6,1.5-0.9,2.6-0.9c1.1,0,2,0.3,2.6,0.9s1,1.4,1,2.3c0,0.5-0.1,0.9-0.3,1.4s-0.5,0.9-0.9,1.4
				c-0.4,0.5-1.2,1.2-2.2,2c-0.8,0.7-1.4,1.2-1.6,1.4c-0.2,0.3-0.4,0.5-0.6,0.8H423.2z"/>
			<path class="st8" d="M424.7,173.3c0-1.4,0.1-2.5,0.4-3.3c0.3-0.8,0.7-1.5,1.2-1.9c0.6-0.5,1.2-0.7,2.1-0.7c0.6,0,1.2,0.1,1.6,0.4
				s0.9,0.6,1.2,1.1c0.3,0.5,0.5,1,0.7,1.7c0.2,0.7,0.3,1.6,0.3,2.7c0,1.4-0.1,2.4-0.4,3.3c-0.3,0.8-0.7,1.5-1.2,1.9
				s-1.2,0.7-2.1,0.7c-1.1,0-2-0.4-2.6-1.2C425,177.1,424.7,175.5,424.7,173.3z M426.1,173.3c0,1.9,0.2,3.1,0.7,3.8
				c0.4,0.6,1,0.9,1.6,0.9c0.6,0,1.2-0.3,1.6-0.9s0.7-1.9,0.7-3.8c0-1.9-0.2-3.2-0.7-3.8c-0.4-0.6-1-0.9-1.7-0.9
				c-0.6,0-1.2,0.3-1.6,0.8C426.4,170.1,426.1,171.4,426.1,173.3z"/>
			<path class="st8" d="M433.6,173.3c0-1.4,0.1-2.5,0.4-3.3c0.3-0.8,0.7-1.5,1.2-1.9c0.6-0.5,1.2-0.7,2.1-0.7c0.6,0,1.2,0.1,1.6,0.4
				s0.9,0.6,1.2,1.1c0.3,0.5,0.5,1,0.7,1.7c0.2,0.7,0.3,1.6,0.3,2.7c0,1.4-0.1,2.4-0.4,3.3c-0.3,0.8-0.7,1.5-1.2,1.9
				s-1.2,0.7-2.1,0.7c-1.1,0-2-0.4-2.6-1.2C434,177.1,433.6,175.5,433.6,173.3z M435.1,173.3c0,1.9,0.2,3.1,0.7,3.8
				c0.4,0.6,1,0.9,1.6,0.9c0.6,0,1.2-0.3,1.6-0.9s0.7-1.9,0.7-3.8c0-1.9-0.2-3.2-0.7-3.8c-0.4-0.6-1-0.9-1.7-0.9
				c-0.6,0-1.2,0.3-1.6,0.8C435.3,170.1,435.1,171.4,435.1,173.3z"/>
		</g>
		<g>
			<path class="st8" d="M597.5,178.9v-11.5h5.1c1,0,1.8,0.1,2.3,0.3c0.5,0.2,1,0.6,1.3,1.1s0.5,1.1,0.5,1.7c0,0.8-0.3,1.5-0.8,2.1
				c-0.5,0.6-1.3,0.9-2.4,1.1c0.4,0.2,0.7,0.4,0.9,0.6c0.4,0.4,0.9,0.9,1.3,1.5l2,3.1h-1.9l-1.5-2.4c-0.4-0.7-0.8-1.2-1.1-1.6
				c-0.3-0.4-0.5-0.6-0.8-0.8s-0.5-0.2-0.7-0.3c-0.2,0-0.5-0.1-0.8-0.1H599v5.1H597.5z M599,172.5h3.3c0.7,0,1.2-0.1,1.6-0.2
				s0.7-0.4,0.9-0.7c0.2-0.3,0.3-0.7,0.3-1c0-0.5-0.2-1-0.6-1.3c-0.4-0.4-1-0.5-1.9-0.5H599V172.5z"/>
			<path class="st8" d="M615.8,170.2l-1.4,0.1c-0.1-0.6-0.3-1-0.5-1.2c-0.4-0.4-0.9-0.6-1.4-0.6c-0.5,0-0.8,0.1-1.2,0.4
				c-0.4,0.3-0.8,0.8-1.1,1.4c-0.3,0.6-0.4,1.5-0.4,2.7c0.3-0.5,0.8-0.9,1.2-1.2c0.5-0.3,1-0.4,1.5-0.4c0.9,0,1.7,0.3,2.4,1
				s1,1.6,1,2.7c0,0.7-0.2,1.4-0.5,2s-0.7,1.1-1.3,1.4c-0.5,0.3-1.2,0.5-1.9,0.5c-1.2,0-2.1-0.4-2.9-1.3s-1.1-2.3-1.1-4.3
				c0-2.2,0.4-3.8,1.2-4.9c0.7-0.9,1.7-1.3,2.9-1.3c0.9,0,1.6,0.3,2.2,0.8S615.7,169.3,615.8,170.2z M610.1,175.2
				c0,0.5,0.1,1,0.3,1.4c0.2,0.4,0.5,0.8,0.9,1c0.4,0.2,0.8,0.3,1.2,0.3c0.6,0,1.1-0.2,1.5-0.7c0.4-0.5,0.6-1.1,0.6-2
				c0-0.8-0.2-1.4-0.6-1.9s-1-0.7-1.6-0.7c-0.6,0-1.2,0.2-1.6,0.7C610.3,173.9,610.1,174.5,610.1,175.2z"/>
		</g>
		<g>
			<path class="st8" d="M617.5,173.3c0-1.4,0.1-2.5,0.4-3.3c0.3-0.8,0.7-1.5,1.2-1.9c0.6-0.5,1.2-0.7,2.1-0.7c0.6,0,1.2,0.1,1.6,0.4
				s0.9,0.6,1.2,1.1c0.3,0.5,0.5,1,0.7,1.7c0.2,0.7,0.3,1.6,0.3,2.7c0,1.4-0.1,2.4-0.4,3.3c-0.3,0.8-0.7,1.5-1.2,1.9
				s-1.2,0.7-2.1,0.7c-1.1,0-2-0.4-2.6-1.2C617.8,177,617.5,175.4,617.5,173.3z M618.9,173.3c0,1.9,0.2,3.1,0.7,3.8
				c0.4,0.6,1,0.9,1.6,0.9c0.6,0,1.2-0.3,1.6-0.9s0.7-1.9,0.7-3.8c0-1.9-0.2-3.2-0.7-3.8c-0.4-0.6-1-0.9-1.7-0.9
				c-0.6,0-1.2,0.3-1.6,0.8C619.2,170.1,618.9,171.4,618.9,173.3z"/>
		</g>
		<g>
			<path class="st8" d="M252.4,250.3v-11.5h5.1c1,0,1.8,0.1,2.3,0.3c0.5,0.2,1,0.6,1.3,1.1s0.5,1.1,0.5,1.7c0,0.8-0.3,1.5-0.8,2.1
				c-0.5,0.6-1.3,0.9-2.4,1.1c0.4,0.2,0.7,0.4,0.9,0.6c0.4,0.4,0.9,0.9,1.3,1.5l2,3.1h-1.9l-1.5-2.4c-0.4-0.7-0.8-1.2-1.1-1.6
				c-0.3-0.4-0.5-0.6-0.8-0.8s-0.5-0.2-0.7-0.3c-0.2,0-0.5-0.1-0.8-0.1H254v5.1H252.4z M254,243.8h3.3c0.7,0,1.2-0.1,1.6-0.2
				s0.7-0.4,0.9-0.7c0.2-0.3,0.3-0.7,0.3-1c0-0.5-0.2-1-0.6-1.3c-0.4-0.4-1-0.5-1.9-0.5H254V243.8z"/>
			<path class="st8" d="M270.9,248.9v1.4h-7.6c0-0.3,0-0.7,0.2-1c0.2-0.5,0.5-1,0.9-1.5s1-1.1,1.8-1.7c1.3-1,2.1-1.8,2.5-2.4
				c0.4-0.6,0.7-1.2,0.7-1.7c0-0.6-0.2-1-0.6-1.4c-0.4-0.4-0.9-0.6-1.6-0.6c-0.7,0-1.2,0.2-1.6,0.6s-0.6,1-0.6,1.7l-1.5-0.1
				c0.1-1.1,0.5-1.9,1.1-2.5c0.6-0.6,1.5-0.9,2.6-0.9c1.1,0,2,0.3,2.6,0.9s1,1.4,1,2.3c0,0.5-0.1,0.9-0.3,1.4s-0.5,0.9-0.9,1.4
				c-0.4,0.5-1.2,1.2-2.2,2c-0.8,0.7-1.4,1.2-1.6,1.4c-0.2,0.3-0.4,0.5-0.6,0.8H270.9z"/>
		</g>
		<g>
			<path class="st8" d="M350.9,186v1.4h-9c0.3,0.3,0.6,0.8,1,1.3c0.3,0.6,0.6,1,0.7,1.5h-1.4c-0.4-0.8-0.8-1.5-1.3-2.1
				c-0.5-0.6-1-1-1.5-1.3V186H350.9z"/>
			<path class="st8" d="M344.2,181.6h-1.6V180h1.6V181.6z M350.9,181.6h-1.6V180h1.6V181.6z"/>
			<path class="st8" d="M349.5,170.5h1.4v7.6c-0.3,0-0.7,0-1-0.2c-0.5-0.2-1-0.5-1.5-0.9c-0.5-0.4-1.1-1-1.7-1.8
				c-1-1.3-1.8-2.1-2.4-2.5c-0.6-0.4-1.2-0.7-1.7-0.7c-0.6,0-1,0.2-1.4,0.6s-0.6,0.9-0.6,1.6c0,0.7,0.2,1.2,0.6,1.6s1,0.6,1.7,0.6
				l-0.1,1.5c-1.1-0.1-1.9-0.5-2.5-1.1c-0.6-0.6-0.9-1.5-0.9-2.6c0-1.1,0.3-2,0.9-2.6s1.4-1,2.3-1c0.5,0,0.9,0.1,1.4,0.3
				c0.4,0.2,0.9,0.5,1.4,0.9c0.5,0.4,1.2,1.2,2,2.2c0.7,0.8,1.2,1.4,1.4,1.6s0.5,0.4,0.8,0.6V170.5z"/>
			<path class="st8" d="M345.2,169c-1.4,0-2.5-0.1-3.3-0.4c-0.8-0.3-1.5-0.7-1.9-1.2c-0.4-0.6-0.7-1.2-0.7-2.1
				c0-0.6,0.1-1.2,0.4-1.6c0.2-0.5,0.6-0.9,1.1-1.2c0.5-0.3,1-0.5,1.7-0.7c0.7-0.2,1.6-0.3,2.7-0.3c1.4,0,2.4,0.1,3.3,0.4
				c0.8,0.3,1.5,0.7,1.9,1.2c0.5,0.6,0.7,1.2,0.7,2.1c0,1.1-0.4,2-1.2,2.6C349,168.6,347.4,169,345.2,169z M345.2,167.6
				c1.9,0,3.1-0.2,3.8-0.7c0.6-0.4,0.9-1,0.9-1.6s-0.3-1.2-0.9-1.6c-0.6-0.4-1.9-0.7-3.8-0.7c-1.9,0-3.2,0.2-3.8,0.7
				c-0.6,0.4-0.9,1-0.9,1.7c0,0.6,0.3,1.2,0.8,1.6C342,167.3,343.3,167.6,345.2,167.6z"/>
		</g>
		<g>
			<path class="st8" d="M131.4,604.1v-11.5h5.1c1,0,1.8,0.1,2.3,0.3c0.5,0.2,1,0.6,1.3,1.1s0.5,1.1,0.5,1.7c0,0.8-0.3,1.5-0.8,2.1
				c-0.5,0.6-1.3,0.9-2.4,1.1c0.4,0.2,0.7,0.4,0.9,0.6c0.4,0.4,0.9,0.9,1.3,1.5l2,3.1h-1.9l-1.5-2.4c-0.4-0.7-0.8-1.2-1.1-1.6
				c-0.3-0.4-0.5-0.6-0.8-0.8s-0.5-0.2-0.7-0.3c-0.2,0-0.5-0.1-0.8-0.1h-1.8v5.1H131.4z M132.9,597.7h3.3c0.7,0,1.2-0.1,1.6-0.2
				c0.4-0.1,0.7-0.4,0.9-0.7s0.3-0.7,0.3-1c0-0.5-0.2-1-0.6-1.3c-0.4-0.4-1-0.5-1.9-0.5h-3.6V597.7z"/>
			<path class="st8" d="M149.9,602.8v1.4h-7.6c0-0.3,0-0.7,0.2-1c0.2-0.5,0.5-1,0.9-1.5c0.4-0.5,1-1.1,1.8-1.7
				c1.3-1,2.1-1.8,2.5-2.4c0.4-0.6,0.7-1.2,0.7-1.7c0-0.6-0.2-1-0.6-1.4s-0.9-0.6-1.6-0.6c-0.7,0-1.2,0.2-1.6,0.6s-0.6,1-0.6,1.7
				l-1.5-0.1c0.1-1.1,0.5-1.9,1.1-2.5c0.6-0.6,1.5-0.9,2.6-0.9c1.1,0,2,0.3,2.6,0.9s1,1.4,1,2.3c0,0.5-0.1,0.9-0.3,1.4
				c-0.2,0.4-0.5,0.9-0.9,1.4c-0.4,0.5-1.2,1.2-2.2,2c-0.8,0.7-1.4,1.2-1.6,1.4c-0.2,0.3-0.4,0.5-0.6,0.8H149.9z"/>
		</g>
		<g>
			<path class="st8" d="M126.7,733.1v-11.5h5.1c1,0,1.8,0.1,2.3,0.3c0.5,0.2,1,0.6,1.3,1.1s0.5,1.1,0.5,1.7c0,0.8-0.3,1.5-0.8,2.1
				c-0.5,0.6-1.3,0.9-2.4,1.1c0.4,0.2,0.7,0.4,0.9,0.6c0.4,0.4,0.9,0.9,1.3,1.5l2,3.1H135l-1.5-2.4c-0.4-0.7-0.8-1.2-1.1-1.6
				c-0.3-0.4-0.5-0.6-0.8-0.8s-0.5-0.2-0.7-0.3c-0.2,0-0.5-0.1-0.8-0.1h-1.8v5.1H126.7z M128.3,726.7h3.3c0.7,0,1.2-0.1,1.6-0.2
				c0.4-0.1,0.7-0.4,0.9-0.7s0.3-0.7,0.3-1c0-0.5-0.2-1-0.6-1.3c-0.4-0.4-1-0.5-1.9-0.5h-3.6V726.7z"/>
			<path class="st8" d="M145.2,731.7v1.4h-7.6c0-0.3,0-0.7,0.2-1c0.2-0.5,0.5-1,0.9-1.5c0.4-0.5,1-1.1,1.8-1.7
				c1.3-1,2.1-1.8,2.5-2.4c0.4-0.6,0.7-1.2,0.7-1.7c0-0.6-0.2-1-0.6-1.4s-0.9-0.6-1.6-0.6c-0.7,0-1.2,0.2-1.6,0.6s-0.6,1-0.6,1.7
				l-1.5-0.1c0.1-1.1,0.5-1.9,1.1-2.5c0.6-0.6,1.5-0.9,2.6-0.9c1.1,0,2,0.3,2.6,0.9s1,1.4,1,2.3c0,0.5-0.1,0.9-0.3,1.4
				c-0.2,0.4-0.5,0.9-0.9,1.4c-0.4,0.5-1.2,1.2-2.2,2c-0.8,0.7-1.4,1.2-1.6,1.4c-0.2,0.3-0.4,0.5-0.6,0.8H145.2z"/>
		</g>
		<g>
			<path class="st8" d="M256.7,565.3v-11.5h5.1c1,0,1.8,0.1,2.3,0.3c0.5,0.2,1,0.6,1.3,1.1s0.5,1.1,0.5,1.7c0,0.8-0.3,1.5-0.8,2.1
				c-0.5,0.6-1.3,0.9-2.4,1.1c0.4,0.2,0.7,0.4,0.9,0.6c0.4,0.4,0.9,0.9,1.3,1.5l2,3.1H265l-1.5-2.4c-0.4-0.7-0.8-1.2-1.1-1.6
				c-0.3-0.4-0.5-0.6-0.8-0.8s-0.5-0.2-0.7-0.3c-0.2,0-0.5-0.1-0.8-0.1h-1.8v5.1H256.7z M258.3,558.8h3.3c0.7,0,1.2-0.1,1.6-0.2
				c0.4-0.1,0.7-0.4,0.9-0.7s0.3-0.7,0.3-1c0-0.5-0.2-1-0.6-1.3c-0.4-0.4-1-0.5-1.9-0.5h-3.6V558.8z"/>
			<path class="st8" d="M275.2,563.9v1.4h-7.6c0-0.3,0-0.7,0.2-1c0.2-0.5,0.5-1,0.9-1.5c0.4-0.5,1-1.1,1.8-1.7
				c1.3-1,2.1-1.8,2.5-2.4c0.4-0.6,0.7-1.2,0.7-1.7c0-0.6-0.2-1-0.6-1.4s-0.9-0.6-1.6-0.6c-0.7,0-1.2,0.2-1.6,0.6s-0.6,1-0.6,1.7
				l-1.5-0.1c0.1-1.1,0.5-1.9,1.1-2.5c0.6-0.6,1.5-0.9,2.6-0.9c1.1,0,2,0.3,2.6,0.9s1,1.4,1,2.3c0,0.5-0.1,0.9-0.3,1.4
				c-0.2,0.4-0.5,0.9-0.9,1.4c-0.4,0.5-1.2,1.2-2.2,2c-0.8,0.7-1.4,1.2-1.6,1.4c-0.2,0.3-0.4,0.5-0.6,0.8H275.2z"/>
		</g>
		<g>
			<path class="st8" d="M278.9,559c-0.6-0.2-1-0.5-1.3-0.9c-0.3-0.4-0.4-0.9-0.4-1.4c0-0.8,0.3-1.5,0.9-2.1c0.6-0.6,1.4-0.9,2.4-0.9
				c1,0,1.8,0.3,2.4,0.9c0.6,0.6,0.9,1.3,0.9,2.1c0,0.5-0.1,1-0.4,1.4s-0.7,0.7-1.3,0.9c0.7,0.2,1.2,0.6,1.6,1.1s0.6,1.1,0.6,1.8
				c0,1-0.3,1.8-1,2.5c-0.7,0.7-1.6,1-2.7,1s-2.1-0.3-2.7-1c-0.7-0.7-1-1.5-1-2.5c0-0.7,0.2-1.4,0.6-1.9
				C277.6,559.6,278.2,559.2,278.9,559z M278.1,561.9c0,0.4,0.1,0.8,0.3,1.2c0.2,0.4,0.5,0.7,0.9,0.9c0.4,0.2,0.8,0.3,1.2,0.3
				c0.7,0,1.2-0.2,1.7-0.7s0.7-1,0.7-1.7c0-0.7-0.2-1.2-0.7-1.7c-0.5-0.4-1-0.7-1.7-0.7c-0.7,0-1.2,0.2-1.7,0.7
				C278.4,560.7,278.1,561.3,278.1,561.9z M278.6,556.6c0,0.5,0.2,1,0.5,1.3s0.8,0.5,1.4,0.5c0.5,0,1-0.2,1.3-0.5
				c0.3-0.3,0.5-0.8,0.5-1.3c0-0.5-0.2-1-0.5-1.3c-0.4-0.4-0.8-0.5-1.3-0.5c-0.5,0-1,0.2-1.3,0.5
				C278.8,555.7,278.6,556.2,278.6,556.6z"/>
		</g>
		<g>
			<path class="st8" d="M357.9,299.2v-11.5h5.1c1,0,1.8,0.1,2.3,0.3c0.5,0.2,1,0.6,1.3,1.1s0.5,1.1,0.5,1.7c0,0.8-0.3,1.5-0.8,2.1
				c-0.5,0.6-1.3,0.9-2.4,1.1c0.4,0.2,0.7,0.4,0.9,0.6c0.4,0.4,0.9,0.9,1.3,1.5l2,3.1h-1.9l-1.5-2.4c-0.4-0.7-0.8-1.2-1.1-1.6
				c-0.3-0.4-0.5-0.6-0.8-0.8s-0.5-0.2-0.7-0.3c-0.2,0-0.5-0.1-0.8-0.1h-1.8v5.1H357.9z M359.4,292.7h3.3c0.7,0,1.2-0.1,1.6-0.2
				s0.7-0.4,0.9-0.7c0.2-0.3,0.3-0.7,0.3-1c0-0.5-0.2-1-0.6-1.3c-0.4-0.4-1-0.5-1.9-0.5h-3.6V292.7z"/>
			<path class="st8" d="M369,289.2v-1.4h7.4v1.1c-0.7,0.8-1.5,1.8-2.2,3.1c-0.7,1.3-1.3,2.6-1.7,4c-0.3,1-0.5,2-0.5,3.2h-1.5
				c0-0.9,0.2-2,0.5-3.3c0.3-1.3,0.8-2.5,1.5-3.7c0.6-1.2,1.3-2.2,2-3H369z"/>
		</g>
		<g>
			<path class="st8" d="M359.8,540.5V529h5.1c1,0,1.8,0.1,2.3,0.3c0.5,0.2,1,0.6,1.3,1.1s0.5,1.1,0.5,1.7c0,0.8-0.3,1.5-0.8,2.1
				c-0.5,0.6-1.3,0.9-2.4,1.1c0.4,0.2,0.7,0.4,0.9,0.6c0.4,0.4,0.9,0.9,1.3,1.5l2,3.1H368l-1.5-2.4c-0.4-0.7-0.8-1.2-1.1-1.6
				c-0.3-0.4-0.5-0.6-0.8-0.8s-0.5-0.2-0.7-0.3c-0.2,0-0.5-0.1-0.8-0.1h-1.8v5.1H359.8z M361.3,534.1h3.3c0.7,0,1.2-0.1,1.6-0.2
				c0.4-0.1,0.7-0.4,0.9-0.7s0.3-0.7,0.3-1c0-0.5-0.2-1-0.6-1.3c-0.4-0.4-1-0.5-1.9-0.5h-3.6V534.1z"/>
			<path class="st8" d="M370.9,530.5v-1.4h7.4v1.1c-0.7,0.8-1.5,1.8-2.2,3.1c-0.7,1.3-1.3,2.6-1.7,4c-0.3,1-0.5,2-0.5,3.2h-1.5
				c0-0.9,0.2-2,0.5-3.3c0.3-1.3,0.8-2.5,1.5-3.7c0.6-1.2,1.3-2.2,2-3H370.9z"/>
		</g>
		<g>
			<path class="st8" d="M154.4,675.1v1.4h-9c0.3,0.3,0.6,0.8,1,1.3c0.3,0.6,0.6,1,0.7,1.5h-1.4c-0.4-0.8-0.8-1.5-1.3-2.1
				c-0.5-0.6-1-1-1.5-1.3v-0.9H154.4z"/>
			<path class="st8" d="M153,664h1.4v7.6c-0.3,0-0.7,0-1-0.2c-0.5-0.2-1-0.5-1.5-0.9c-0.5-0.4-1.1-1-1.7-1.8c-1-1.3-1.8-2.1-2.4-2.5
				c-0.6-0.4-1.2-0.7-1.7-0.7c-0.6,0-1,0.2-1.4,0.6s-0.6,0.9-0.6,1.6c0,0.7,0.2,1.2,0.6,1.6s1,0.6,1.7,0.6l-0.1,1.5
				c-1.1-0.1-1.9-0.5-2.5-1.1c-0.6-0.6-0.9-1.5-0.9-2.6c0-1.1,0.3-2,0.9-2.6s1.4-1,2.3-1c0.5,0,0.9,0.1,1.4,0.3
				c0.4,0.2,0.9,0.5,1.4,0.9c0.5,0.4,1.2,1.2,2,2.2c0.7,0.8,1.2,1.4,1.4,1.6c0.3,0.2,0.5,0.4,0.8,0.6V664z"/>
		</g>
		<g>
			<path class="st8" d="M95.8,575.3l0.1,1.4c-0.6,0.1-1,0.3-1.2,0.5c-0.4,0.4-0.6,0.9-0.6,1.4c0,0.5,0.1,0.8,0.4,1.2
				c0.3,0.4,0.8,0.8,1.4,1.1c0.6,0.3,1.5,0.4,2.7,0.4c-0.5-0.3-0.9-0.8-1.2-1.2s-0.4-1-0.4-1.5c0-0.9,0.3-1.7,1-2.4
				c0.7-0.7,1.6-1,2.7-1c0.7,0,1.4,0.2,2,0.5c0.6,0.3,1.1,0.7,1.4,1.3c0.3,0.5,0.5,1.2,0.5,1.9c0,1.2-0.4,2.1-1.3,2.9
				s-2.3,1.1-4.3,1.1c-2.2,0-3.8-0.4-4.9-1.2c-0.9-0.7-1.3-1.7-1.3-2.9c0-0.9,0.3-1.6,0.8-2.2S94.9,575.4,95.8,575.3z M100.7,581
				c0.5,0,1-0.1,1.4-0.3c0.4-0.2,0.8-0.5,1-0.9c0.2-0.4,0.3-0.8,0.3-1.2c0-0.6-0.2-1.1-0.7-1.5s-1.1-0.6-2-0.6
				c-0.8,0-1.4,0.2-1.9,0.6s-0.7,1-0.7,1.6c0,0.6,0.2,1.2,0.7,1.6C99.4,580.8,100,581,100.7,581z"/>
			<path class="st8" d="M98.8,573.7c-1.4,0-2.5-0.1-3.3-0.4c-0.8-0.3-1.5-0.7-1.9-1.2c-0.4-0.6-0.7-1.2-0.7-2.1
				c0-0.6,0.1-1.2,0.4-1.6c0.2-0.5,0.6-0.9,1.1-1.2c0.5-0.3,1-0.5,1.7-0.7c0.7-0.2,1.6-0.3,2.7-0.3c1.4,0,2.4,0.1,3.3,0.4
				c0.8,0.3,1.5,0.7,1.9,1.2c0.5,0.6,0.7,1.2,0.7,2.1c0,1.1-0.4,2-1.2,2.6C102.5,573.3,100.9,573.7,98.8,573.7z M98.8,572.2
				c1.9,0,3.1-0.2,3.8-0.7c0.6-0.4,0.9-1,0.9-1.6c0-0.6-0.3-1.2-0.9-1.6s-1.9-0.7-3.8-0.7c-1.9,0-3.2,0.2-3.8,0.7
				c-0.6,0.4-0.9,1-0.9,1.7c0,0.6,0.3,1.2,0.8,1.6C95.6,572,96.9,572.2,98.8,572.2z"/>
			<path class="st8" d="M104.5,563.9h-1.6v-1.6h1.6V563.9z"/>
			<path class="st8" d="M104.5,554.9v1.4h-9c0.3,0.3,0.6,0.8,1,1.3c0.3,0.6,0.6,1,0.7,1.5h-1.4c-0.4-0.8-0.8-1.5-1.3-2.1
				c-0.5-0.6-1-1-1.5-1.3v-0.9H104.5z"/>
			<path class="st8" d="M95.8,544l0.1,1.4c-0.6,0.1-1,0.3-1.2,0.5c-0.4,0.4-0.6,0.9-0.6,1.4c0,0.5,0.1,0.8,0.4,1.2
				c0.3,0.4,0.8,0.8,1.4,1.1c0.6,0.3,1.5,0.4,2.7,0.4c-0.5-0.3-0.9-0.8-1.2-1.2s-0.4-1-0.4-1.5c0-0.9,0.3-1.7,1-2.4
				c0.7-0.7,1.6-1,2.7-1c0.7,0,1.4,0.2,2,0.5c0.6,0.3,1.1,0.7,1.4,1.3c0.3,0.5,0.5,1.2,0.5,1.9c0,1.2-0.4,2.1-1.3,2.9
				s-2.3,1.1-4.3,1.1c-2.2,0-3.8-0.4-4.9-1.2c-0.9-0.7-1.3-1.7-1.3-2.9c0-0.9,0.3-1.6,0.8-2.2S94.9,544.1,95.8,544z M100.7,549.8
				c0.5,0,1-0.1,1.4-0.3c0.4-0.2,0.8-0.5,1-0.9c0.2-0.4,0.3-0.8,0.3-1.2c0-0.6-0.2-1.1-0.7-1.5s-1.1-0.6-2-0.6
				c-0.8,0-1.4,0.2-1.9,0.6s-0.7,1-0.7,1.6c0,0.6,0.2,1.2,0.7,1.6C99.4,549.5,100,549.8,100.7,549.8z"/>
			<path class="st8" d="M101.4,542.4l-0.2-1.4c0.8-0.2,1.4-0.4,1.7-0.8c0.4-0.4,0.5-0.9,0.5-1.4c0-0.7-0.2-1.2-0.7-1.7
				c-0.5-0.5-1-0.7-1.7-0.7c-0.6,0-1.2,0.2-1.6,0.6c-0.4,0.4-0.6,1-0.6,1.6c0,0.3,0.1,0.6,0.2,1l-1.2-0.2c0-0.1,0-0.2,0-0.2
				c0-0.6-0.2-1.1-0.5-1.6c-0.3-0.5-0.8-0.7-1.5-0.7c-0.5,0-0.9,0.2-1.3,0.5c-0.3,0.4-0.5,0.8-0.5,1.4c0,0.5,0.2,1,0.5,1.4
				c0.3,0.4,0.9,0.6,1.6,0.7l-0.3,1.4c-0.9-0.2-1.7-0.6-2.2-1.2s-0.8-1.4-0.8-2.3c0-0.6,0.1-1.2,0.4-1.7c0.3-0.5,0.6-0.9,1.1-1.2
				c0.5-0.3,1-0.4,1.5-0.4c0.5,0,1,0.1,1.4,0.4c0.4,0.3,0.7,0.7,1,1.2c0.2-0.7,0.5-1.2,1-1.6c0.5-0.4,1.1-0.6,1.9-0.6
				c1,0,1.9,0.4,2.6,1.1c0.7,0.7,1,1.7,1,2.8c0,1-0.3,1.8-0.9,2.5C103.2,541.9,102.4,542.3,101.4,542.4z"/>
			<path class="st8" d="M95.8,526.1l0.1,1.4c-0.6,0.1-1,0.3-1.2,0.5c-0.4,0.4-0.6,0.9-0.6,1.4c0,0.5,0.1,0.8,0.4,1.2
				c0.3,0.4,0.8,0.8,1.4,1.1c0.6,0.3,1.5,0.4,2.7,0.4c-0.5-0.3-0.9-0.8-1.2-1.2s-0.4-1-0.4-1.5c0-0.9,0.3-1.7,1-2.4
				c0.7-0.7,1.6-1,2.7-1c0.7,0,1.4,0.2,2,0.5c0.6,0.3,1.1,0.7,1.4,1.3c0.3,0.5,0.5,1.2,0.5,1.9c0,1.2-0.4,2.1-1.3,2.9
				s-2.3,1.1-4.3,1.1c-2.2,0-3.8-0.4-4.9-1.2c-0.9-0.7-1.3-1.7-1.3-2.9c0-0.9,0.3-1.6,0.8-2.2S94.9,526.2,95.8,526.1z M100.7,531.9
				c0.5,0,1-0.1,1.4-0.3c0.4-0.2,0.8-0.5,1-0.9c0.2-0.4,0.3-0.8,0.3-1.2c0-0.6-0.2-1.1-0.7-1.5s-1.1-0.6-2-0.6
				c-0.8,0-1.4,0.2-1.9,0.6s-0.7,1-0.7,1.6c0,0.6,0.2,1.2,0.7,1.6C99.4,531.6,100,531.9,100.7,531.9z"/>
		</g>
		<g>
			<path class="st6" d="M515,723.9v-6.4l-5.8-8.7h2.4l3,4.5c0.5,0.8,1.1,1.7,1.5,2.5c0.5-0.8,1-1.7,1.6-2.7l2.9-4.4h2.3l-6,8.7v6.4
				H515z"/>
			<path class="st6" d="M515,79.6v-6.4l-5.8-8.7h2.4l3,4.5c0.5,0.8,1.1,1.7,1.5,2.5c0.5-0.8,1-1.7,1.6-2.7l2.9-4.4h2.3l-6,8.7v6.4
				H515z"/>
		</g>
		<line class="st82" x1="500.5" y1="723.9" x2="499.6" y2="64.5"/>
		<g>
			<path class="st6" d="M475.1,771.8h-1.4v-9c-0.3,0.3-0.8,0.6-1.3,1c-0.6,0.3-1,0.6-1.5,0.7v-1.4c0.8-0.4,1.5-0.8,2.1-1.3
				c0.6-0.5,1-1,1.3-1.5h0.9V771.8z"/>
		</g>
		<g>
			<path class="st6" d="M482.9,771.8h-1.4v-9c-0.3,0.3-0.8,0.6-1.3,1c-0.6,0.3-1,0.6-1.5,0.7v-1.4c0.8-0.4,1.5-0.8,2.1-1.3
				c0.6-0.5,1-1,1.3-1.5h0.9V771.8z"/>
			<path class="st6" d="M486.5,768.8l1.5-0.1c0.1,0.7,0.4,1.3,0.8,1.6c0.4,0.4,0.9,0.5,1.4,0.5c0.7,0,1.3-0.3,1.7-0.8
				c0.5-0.5,0.7-1.2,0.7-2c0-0.8-0.2-1.4-0.7-1.9s-1-0.7-1.8-0.7c-0.5,0-0.9,0.1-1.2,0.3s-0.7,0.5-0.9,0.8l-1.3-0.2l1.1-5.9h5.7v1.4
				H489l-0.6,3.1c0.7-0.5,1.4-0.7,2.2-0.7c1,0,1.9,0.3,2.5,1c0.7,0.7,1,1.6,1,2.7c0,1-0.3,1.9-0.9,2.7c-0.7,0.9-1.7,1.4-3,1.4
				c-1,0-1.9-0.3-2.6-0.9S486.6,769.8,486.5,768.8z"/>
			<path class="st6" d="M503,775.2c-0.8-1-1.4-2.1-2-3.5c-0.5-1.3-0.8-2.7-0.8-4.1c0-1.2,0.2-2.4,0.6-3.6c0.5-1.3,1.2-2.6,2.2-4h1
				c-0.6,1.1-1.1,1.9-1.3,2.3c-0.3,0.7-0.6,1.5-0.8,2.3c-0.2,1-0.3,2-0.3,3c0,2.5,0.8,5,2.3,7.5H503z"/>
			<path class="st6" d="M509.8,771.8v-2.8h-5v-1.3l5.3-7.5h1.2v7.5h1.6v1.3h-1.6v2.8H509.8z M509.8,767.8v-5.2l-3.6,5.2H509.8z"/>
			<path class="st6" d="M515,771.8v-1.6h1.6v1.6H515z"/>
			<path class="st6" d="M518.7,768.8l1.5-0.1c0.1,0.7,0.4,1.3,0.8,1.6c0.4,0.4,0.9,0.5,1.4,0.5c0.7,0,1.3-0.3,1.7-0.8
				c0.5-0.5,0.7-1.2,0.7-2c0-0.8-0.2-1.4-0.7-1.9s-1-0.7-1.8-0.7c-0.5,0-0.9,0.1-1.2,0.3s-0.7,0.5-0.9,0.8l-1.3-0.2l1.1-5.9h5.7v1.4
				h-4.6l-0.6,3.1c0.7-0.5,1.4-0.7,2.2-0.7c1,0,1.9,0.3,2.5,1c0.7,0.7,1,1.6,1,2.7c0,1-0.3,1.9-0.9,2.7c-0.7,0.9-1.7,1.4-3,1.4
				c-1,0-1.9-0.3-2.6-0.9S518.8,769.8,518.7,768.8z"/>
			<path class="st6" d="M535,770.5v1.4h-7.6c0-0.3,0-0.7,0.2-1c0.2-0.5,0.5-1,0.9-1.5c0.4-0.5,1-1.1,1.8-1.7c1.3-1,2.1-1.8,2.5-2.4
				c0.4-0.6,0.7-1.2,0.7-1.7c0-0.6-0.2-1-0.6-1.4s-0.9-0.6-1.6-0.6c-0.7,0-1.2,0.2-1.6,0.6s-0.6,1-0.6,1.7l-1.5-0.1
				c0.1-1.1,0.5-1.9,1.1-2.5c0.6-0.6,1.5-0.9,2.6-0.9c1.1,0,2,0.3,2.6,0.9s1,1.4,1,2.3c0,0.5-0.1,0.9-0.3,1.4
				c-0.2,0.4-0.5,0.9-0.9,1.4c-0.4,0.5-1.2,1.2-2.2,2c-0.8,0.7-1.4,1.2-1.6,1.4c-0.2,0.3-0.4,0.5-0.6,0.8H535z"/>
			<path class="st6" d="M538.7,765.6c-0.6-0.2-1-0.5-1.3-0.9c-0.3-0.4-0.4-0.9-0.4-1.4c0-0.8,0.3-1.5,0.9-2.1
				c0.6-0.6,1.4-0.9,2.4-0.9c1,0,1.8,0.3,2.4,0.9c0.6,0.6,0.9,1.3,0.9,2.1c0,0.5-0.1,1-0.4,1.4s-0.7,0.7-1.3,0.9
				c0.7,0.2,1.2,0.6,1.6,1.1s0.6,1.1,0.6,1.8c0,1-0.3,1.8-1,2.5c-0.7,0.7-1.6,1-2.7,1s-2.1-0.3-2.7-1c-0.7-0.7-1-1.5-1-2.5
				c0-0.7,0.2-1.4,0.6-1.9C537.5,766.1,538,765.8,538.7,765.6z M538,768.5c0,0.4,0.1,0.8,0.3,1.2c0.2,0.4,0.5,0.7,0.9,0.9
				c0.4,0.2,0.8,0.3,1.2,0.3c0.7,0,1.2-0.2,1.7-0.7s0.7-1,0.7-1.7c0-0.7-0.2-1.2-0.7-1.7c-0.5-0.4-1-0.7-1.7-0.7
				c-0.7,0-1.2,0.2-1.7,0.7C538.2,767.3,538,767.8,538,768.5z M538.5,763.2c0,0.5,0.2,1,0.5,1.3s0.8,0.5,1.4,0.5
				c0.5,0,1-0.2,1.3-0.5c0.3-0.3,0.5-0.8,0.5-1.3c0-0.5-0.2-1-0.5-1.3c-0.4-0.4-0.8-0.5-1.3-0.5c-0.5,0-1,0.2-1.3,0.5
				C538.6,762.3,538.5,762.7,538.5,763.2z"/>
			<path class="st6" d="M546,764.4l-0.4-2.2v-1.9h1.6v1.9l-0.4,2.2H546z M548.6,764.4l-0.4-2.2v-1.9h1.6v1.9l-0.4,2.2H548.6z"/>
		</g>
		<g>
			<path class="st6" d="M552.6,775.2h-1c1.6-2.5,2.3-5,2.3-7.5c0-1-0.1-2-0.3-2.9c-0.2-0.8-0.4-1.5-0.7-2.3
				c-0.2-0.5-0.6-1.3-1.3-2.4h1c1,1.3,1.7,2.6,2.2,4c0.4,1.1,0.6,2.3,0.6,3.6c0,1.4-0.3,2.8-0.8,4.1
				C554,773.1,553.4,774.2,552.6,775.2z"/>
		</g>
		<line class="st75" x1="232.9" y1="779" x2="763" y2="779"/>
		<polygon class="st8" points="235.8,783 220.1,778.8 235.8,774.6 		"/>
		<polygon class="st8" points="760.1,783 775.8,778.8 760.1,774.6 		"/>
		<g>
			<path class="st6" d="M494.6,730.9v-1.4h7.4v1.1c-0.7,0.8-1.5,1.8-2.2,3.1c-0.7,1.3-1.3,2.6-1.7,4c-0.3,1-0.5,2-0.5,3.2h-1.5
				c0-0.9,0.2-2,0.5-3.3c0.3-1.3,0.8-2.5,1.5-3.7c0.6-1.2,1.3-2.2,2-3H494.6z"/>
			<path class="st6" d="M503.5,737.8l1.5-0.1c0.1,0.7,0.4,1.3,0.8,1.6c0.4,0.4,0.9,0.5,1.4,0.5c0.7,0,1.3-0.3,1.7-0.8
				c0.5-0.5,0.7-1.2,0.7-2c0-0.8-0.2-1.4-0.7-1.9s-1-0.7-1.8-0.7c-0.5,0-0.9,0.1-1.2,0.3s-0.7,0.5-0.9,0.8l-1.3-0.2l1.1-5.9h5.7v1.4
				H506l-0.6,3.1c0.7-0.5,1.4-0.7,2.2-0.7c1,0,1.9,0.3,2.5,1c0.7,0.7,1,1.6,1,2.7c0,1-0.3,1.9-0.9,2.7c-0.7,0.9-1.7,1.4-3,1.4
				c-1,0-1.9-0.3-2.6-0.9S503.6,738.8,503.5,737.8z"/>
		</g>
		<line class="st75" x1="333.2" y1="748" x2="667.3" y2="748"/>
		<polygon class="st8" points="336.1,752 320.4,747.8 336.1,743.6 		"/>
		<polygon class="st8" points="664.4,752 680.1,747.8 664.4,743.6 		"/>
		<line class="st83" x1="479" y1="439" x2="517.5" y2="439"/>
		<polygon class="st8" points="481.9,443.1 466.2,438.9 481.9,434.7 		"/>
		<polygon class="st8" points="514.7,443.1 530.4,438.9 514.7,434.7 		"/>
		<line class="st75" x1="530.3" y1="439" x2="616.4" y2="439"/>
		<g>
			<path class="st6" d="M555.7,424.4L555.7,424.4l-1.9,1l-0.3-1.1l2.3-1.2l1.2,0l-0.1,10.5l-1.4,0L555.7,424.4z"/>
		</g>
		<g>
			<path class="st6" d="M561.2,431.9c0.4,0.3,1.3,0.7,2.3,0.7c1.8,0,2.4-1.1,2.4-2c0-1.5-1.3-2.1-2.7-2.1l-0.8,0l0-1.1l0.8,0
				c1,0,2.3-0.5,2.3-1.8c0-0.8-0.5-1.6-1.8-1.6c-0.8,0-1.6,0.4-2.1,0.7l-0.4-1c0.5-0.4,1.6-0.8,2.7-0.8c2.1,0,3,1.2,3,2.5
				c0,1.1-0.7,2-1.9,2.4v0c1.3,0.3,2.3,1.2,2.3,2.7c0,1.7-1.3,3.1-3.8,3.1c-1.2,0-2.2-0.4-2.7-0.7L561.2,431.9z"/>
		</g>
		<g>
			<path class="st6" d="M576.1,422.5c-1.2,1.6-2,3.7-2.1,6.6c0,2.9,0.9,4.9,2,6.5l-1.1,0c-1-1.3-2.1-3.4-2.1-6.5
				c0-3.2,1.1-5.2,2.1-6.6L576.1,422.5z"/>
		</g>
		<g>
			<path class="st6" d="M584.1,428.3c0,3.6-1.4,5.5-3.7,5.5c-2,0-3.4-1.9-3.4-5.4c0-3.5,1.5-5.4,3.7-5.4
				C582.9,423,584.1,425,584.1,428.3z M578.4,428.4c0,2.7,0.8,4.3,2.1,4.3c1.4,0,2.1-1.7,2.2-4.3c0-2.6-0.6-4.3-2.1-4.3
				C579.3,424.1,578.4,425.6,578.4,428.4z"/>
		</g>
		<g>
			<path class="st6" d="M585.5,432.8c0-0.6,0.4-1,1-1c0.6,0,0.9,0.4,0.9,1c0,0.6-0.4,1-1,1C585.9,433.8,585.5,433.4,585.5,432.8z"/>
			<path class="st6" d="M595,424.5l-4,0l-0.4,2.7c0.2,0,0.5-0.1,0.9-0.1c0.8,0,1.6,0.2,2.2,0.6c0.8,0.5,1.5,1.4,1.5,2.7
				c0,2-1.6,3.6-3.9,3.5c-1.1,0-2.1-0.3-2.6-0.7l0.4-1.1c0.4,0.3,1.3,0.6,2.2,0.6c1.3,0,2.5-0.9,2.5-2.3c0-1.4-0.9-2.3-3-2.3
				c-0.6,0-1.1,0.1-1.4,0.1l0.7-5l5,0L595,424.5z"/>
		</g>
		<g>
			<path class="st6" d="M600.1,424.6L600.1,424.6l-1.9,1l-0.3-1.1l2.3-1.2l1.2,0l-0.1,10.5l-1.4,0L600.1,424.6z"/>
		</g>
		<g>
			<path class="st6" d="M605.2,433.8l0-0.9l1.1-1.1c2.7-2.5,3.9-3.9,3.9-5.4c0-1.1-0.5-2-2.1-2.1c-0.9,0-1.7,0.5-2.2,0.9l-0.4-1
				c0.7-0.6,1.8-1.1,3-1c2.3,0,3.2,1.6,3.2,3.1c0,1.9-1.4,3.5-3.6,5.6l-0.8,0.8v0l4.7,0l0,1.2L605.2,433.8z"/>
		</g>
		<g>
			<path class="st6" d="M615,422.8l-0.3,3.9l-0.9,0l-0.2-3.9L615,422.8z M617.4,422.8l-0.3,3.9l-0.9,0l-0.3-3.9L617.4,422.8z"/>
			<path class="st6" d="M618.5,435.8c1.2-1.6,2-3.7,2.1-6.6c0-2.9-0.8-4.9-2-6.5l1.1,0c1,1.3,2.1,3.4,2.1,6.6c0,3.2-1.1,5.2-2.1,6.5
				L618.5,435.8z"/>
		</g>
		<g>
			<path class="st6" d="M833,675.8v1.4h-9c0.3,0.3,0.6,0.8,1,1.3c0.3,0.6,0.6,1,0.7,1.5h-1.4c-0.4-0.8-0.8-1.5-1.3-2.1
				c-0.5-0.6-1-1-1.5-1.3v-0.9H833z"/>
			<path class="st6" d="M830,672.2l-0.1-1.5c0.7-0.1,1.3-0.4,1.6-0.8c0.4-0.4,0.5-0.9,0.5-1.4c0-0.7-0.3-1.3-0.8-1.7
				c-0.5-0.5-1.2-0.7-2-0.7c-0.8,0-1.4,0.2-1.9,0.7s-0.7,1-0.7,1.8c0,0.5,0.1,0.9,0.3,1.2s0.5,0.7,0.8,0.9l-0.2,1.3l-5.9-1.1v-5.7
				h1.4v4.6l3.1,0.6c-0.5-0.7-0.7-1.4-0.7-2.2c0-1,0.3-1.9,1-2.5c0.7-0.7,1.6-1,2.7-1c1,0,1.9,0.3,2.7,0.9c0.9,0.7,1.4,1.7,1.4,3
				c0,1-0.3,1.9-0.9,2.6S831,672.1,830,672.2z"/>
			<path class="st6" d="M833,662.4h-1.6v-1.6h1.6V662.4z"/>
			<path class="st6" d="M826.8,656.6c-0.2,0.6-0.5,1-0.9,1.3c-0.4,0.3-0.9,0.4-1.4,0.4c-0.8,0-1.5-0.3-2.1-0.9
				c-0.6-0.6-0.9-1.4-0.9-2.4c0-1,0.3-1.8,0.9-2.4c0.6-0.6,1.3-0.9,2.1-0.9c0.5,0,1,0.1,1.4,0.4s0.7,0.7,0.9,1.3
				c0.2-0.7,0.6-1.2,1.1-1.6s1.1-0.6,1.8-0.6c1,0,1.8,0.3,2.5,1c0.7,0.7,1,1.6,1,2.7s-0.3,2.1-1,2.7c-0.7,0.7-1.5,1-2.5,1
				c-0.7,0-1.4-0.2-1.9-0.6C827.3,657.8,827,657.3,826.8,656.6z M824.4,656.9c0.5,0,1-0.2,1.3-0.5s0.5-0.8,0.5-1.4
				c0-0.5-0.2-1-0.5-1.3c-0.3-0.3-0.8-0.5-1.3-0.5c-0.5,0-1,0.2-1.3,0.5c-0.4,0.4-0.5,0.8-0.5,1.3c0,0.5,0.2,1,0.5,1.3
				C823.5,656.7,823.9,656.9,824.4,656.9z M829.7,657.3c0.4,0,0.8-0.1,1.2-0.3c0.4-0.2,0.7-0.5,0.9-0.9c0.2-0.4,0.3-0.8,0.3-1.2
				c0-0.7-0.2-1.2-0.7-1.7s-1-0.7-1.7-0.7c-0.7,0-1.2,0.2-1.7,0.7c-0.4,0.5-0.7,1-0.7,1.7c0,0.7,0.2,1.2,0.7,1.7
				C828.5,657.1,829.1,657.3,829.7,657.3z"/>
			<path class="st6" d="M827.4,649.8c-1.4,0-2.5-0.1-3.3-0.4c-0.8-0.3-1.5-0.7-1.9-1.2c-0.4-0.6-0.7-1.2-0.7-2.1
				c0-0.6,0.1-1.2,0.4-1.6c0.2-0.5,0.6-0.9,1.1-1.2c0.5-0.3,1-0.5,1.7-0.7c0.7-0.2,1.6-0.3,2.7-0.3c1.4,0,2.4,0.1,3.3,0.4
				c0.8,0.3,1.5,0.7,1.9,1.2c0.5,0.6,0.7,1.2,0.7,2.1c0,1.1-0.4,2-1.2,2.6C831.1,649.4,829.5,649.8,827.4,649.8z M827.4,648.4
				c1.9,0,3.1-0.2,3.8-0.7c0.6-0.4,0.9-1,0.9-1.6c0-0.6-0.3-1.2-0.9-1.6s-1.9-0.7-3.8-0.7c-1.9,0-3.2,0.2-3.8,0.7
				c-0.6,0.4-0.9,1-0.9,1.7c0,0.6,0.3,1.2,0.8,1.6C824.2,648.1,825.5,648.4,827.4,648.4z"/>
		</g>
		<line class="st84" x1="838.2" y1="686.1" x2="838.2" y2="634"/>
		<polygon class="st6" points="841.8,683.5 838,697.7 834.2,683.5 		"/>
		<polygon class="st6" points="841.8,636.5 838,622.4 834.2,636.5 		"/>
		<g>
			<path class="st6" d="M867.5,646.6h1.4v7.6c-0.3,0-0.7,0-1-0.2c-0.5-0.2-1-0.5-1.5-0.9c-0.5-0.4-1.1-1-1.7-1.8
				c-1-1.3-1.8-2.1-2.4-2.5c-0.6-0.4-1.2-0.7-1.7-0.7c-0.6,0-1,0.2-1.4,0.6s-0.6,0.9-0.6,1.6c0,0.7,0.2,1.2,0.6,1.6s1,0.6,1.7,0.6
				l-0.1,1.5c-1.1-0.1-1.9-0.5-2.5-1.1c-0.6-0.6-0.9-1.5-0.9-2.6c0-1.1,0.3-2,0.9-2.6s1.4-1,2.3-1c0.5,0,0.9,0.1,1.4,0.3
				c0.4,0.2,0.9,0.5,1.4,0.9c0.5,0.4,1.2,1.2,2,2.2c0.7,0.8,1.2,1.4,1.4,1.6c0.3,0.2,0.5,0.4,0.8,0.6V646.6z"/>
			<path class="st6" d="M868.9,640.6h-2.8v5h-1.3l-7.5-5.3v-1.2h7.5v-1.6h1.3v1.6h2.8V640.6z M864.8,640.6h-5.2l5.2,3.6V640.6z"/>
			<path class="st6" d="M868.9,635.4h-1.6v-1.6h1.6V635.4z"/>
			<path class="st6" d="M865.9,631.7l-0.1-1.5c0.7-0.1,1.3-0.4,1.6-0.8c0.4-0.4,0.5-0.9,0.5-1.4c0-0.7-0.3-1.3-0.8-1.7
				c-0.5-0.5-1.2-0.7-2-0.7c-0.8,0-1.4,0.2-1.9,0.7s-0.7,1-0.7,1.8c0,0.5,0.1,0.9,0.3,1.2s0.5,0.7,0.8,0.9l-0.2,1.3l-5.9-1.1v-5.7
				h1.4v4.6l3.1,0.6c-0.5-0.7-0.7-1.4-0.7-2.2c0-1,0.3-1.9,1-2.5c0.7-0.7,1.6-1,2.7-1c1,0,1.9,0.3,2.7,0.9c0.9,0.7,1.4,1.7,1.4,3
				c0,1-0.3,1.9-0.9,2.6S866.8,631.6,865.9,631.7z"/>
			<path class="st6" d="M863.2,622.8c-1.4,0-2.5-0.1-3.3-0.4c-0.8-0.3-1.5-0.7-1.9-1.2c-0.4-0.6-0.7-1.2-0.7-2.1
				c0-0.6,0.1-1.2,0.4-1.6c0.2-0.5,0.6-0.9,1.1-1.2c0.5-0.3,1-0.5,1.7-0.7c0.7-0.2,1.6-0.3,2.7-0.3c1.4,0,2.4,0.1,3.3,0.4
				c0.8,0.3,1.5,0.7,1.9,1.2c0.5,0.6,0.7,1.2,0.7,2.1c0,1.1-0.4,2-1.2,2.6C866.9,622.4,865.4,622.8,863.2,622.8z M863.2,621.3
				c1.9,0,3.1-0.2,3.8-0.7c0.6-0.4,0.9-1,0.9-1.6c0-0.6-0.3-1.2-0.9-1.6s-1.9-0.7-3.8-0.7c-1.9,0-3.2,0.2-3.8,0.7
				c-0.6,0.4-0.9,1-0.9,1.7c0,0.6,0.3,1.2,0.8,1.6C860,621.1,861.3,621.3,863.2,621.3z"/>
		</g>
		<g>
			<path class="st6" d="M902.7,390.4v1.4h-9c0.3,0.3,0.6,0.8,1,1.3c0.3,0.6,0.6,1,0.7,1.5H894c-0.4-0.8-0.8-1.5-1.3-2.1
				c-0.5-0.6-1-1-1.5-1.3v-0.9H902.7z"/>
			<path class="st6" d="M901.3,379.4h1.4v7.6c-0.3,0-0.7,0-1-0.2c-0.5-0.2-1-0.5-1.5-0.9c-0.5-0.4-1.1-1-1.7-1.8
				c-1-1.3-1.8-2.1-2.4-2.5c-0.6-0.4-1.2-0.7-1.7-0.7c-0.6,0-1,0.2-1.4,0.6s-0.6,0.9-0.6,1.6c0,0.7,0.2,1.2,0.6,1.6s1,0.6,1.7,0.6
				l-0.1,1.5c-1.1-0.1-1.9-0.5-2.5-1.1c-0.6-0.6-0.9-1.5-0.9-2.6c0-1.1,0.3-2,0.9-2.6s1.4-1,2.3-1c0.5,0,0.9,0.1,1.4,0.3
				c0.4,0.2,0.9,0.5,1.4,0.9c0.5,0.4,1.2,1.2,2,2.2c0.7,0.8,1.2,1.4,1.4,1.6s0.5,0.4,0.8,0.6V379.4z"/>
			<path class="st6" d="M896.4,375.7c-0.2,0.6-0.5,1-0.9,1.3s-0.9,0.4-1.4,0.4c-0.8,0-1.5-0.3-2.1-0.9c-0.6-0.6-0.9-1.4-0.9-2.4
				c0-1,0.3-1.8,0.9-2.4c0.6-0.6,1.3-0.9,2.1-0.9c0.5,0,1,0.1,1.4,0.4s0.7,0.7,0.9,1.3c0.2-0.7,0.6-1.2,1.1-1.6
				c0.5-0.4,1.1-0.6,1.8-0.6c1,0,1.8,0.3,2.5,1c0.7,0.7,1,1.6,1,2.7c0,1.1-0.3,2.1-1,2.7c-0.7,0.7-1.5,1-2.5,1
				c-0.7,0-1.4-0.2-1.9-0.6C897,376.9,896.6,376.4,896.4,375.7z M894,376c0.5,0,1-0.2,1.3-0.5s0.5-0.8,0.5-1.4c0-0.5-0.2-1-0.5-1.3
				s-0.8-0.5-1.3-0.5c-0.5,0-1,0.2-1.3,0.5c-0.4,0.4-0.5,0.8-0.5,1.3c0,0.5,0.2,1,0.5,1.3C893.1,375.8,893.6,376,894,376z
				 M899.4,376.4c0.4,0,0.8-0.1,1.2-0.3c0.4-0.2,0.7-0.5,0.9-0.9c0.2-0.4,0.3-0.8,0.3-1.2c0-0.7-0.2-1.2-0.7-1.7
				c-0.4-0.4-1-0.7-1.7-0.7c-0.7,0-1.2,0.2-1.7,0.7c-0.4,0.5-0.7,1-0.7,1.7c0,0.7,0.2,1.2,0.7,1.7
				C898.1,376.2,898.7,376.4,899.4,376.4z"/>
		</g>
		<g>
			<path class="st6" d="M891.5,360.9c1.6,1.2,3.7,2,6.6,2c2.9,0,4.9-0.9,6.5-2v1.1c-1.3,1-3.4,2.1-6.5,2.1c-3.2,0-5.2-1.1-6.6-2.1
				V360.9z"/>
			<path class="st6" d="M893.4,353.6v4l2.7,0.4c0-0.2-0.1-0.5-0.1-0.9c0-0.8,0.2-1.6,0.6-2.3c0.5-0.8,1.4-1.5,2.7-1.5
				c2,0,3.6,1.6,3.6,3.9c0,1.1-0.3,2.1-0.6,2.6l-1.1-0.4c0.3-0.4,0.6-1.3,0.6-2.2c0-1.3-0.9-2.5-2.3-2.5c-1.4,0-2.3,0.9-2.3,3
				c0,0.6,0.1,1.1,0.1,1.4l-5-0.7v-5H893.4z"/>
			<path class="st6" d="M901.8,351.5c-0.6,0-1-0.4-1-1s0.4-0.9,1-0.9c0.6,0,1,0.4,1,1C902.8,351.1,902.4,351.5,901.8,351.5z"/>
			<path class="st6" d="M897.3,341.3c3.6,0,5.5,1.3,5.5,3.6c0,2-1.9,3.4-5.4,3.5c-3.5,0-5.4-1.5-5.4-3.6
				C892,342.6,894,341.3,897.3,341.3z M897.5,347c2.7,0,4.3-0.8,4.3-2.1c0-1.4-1.7-2.1-4.4-2.1c-2.6,0-4.3,0.7-4.3,2.1
				C893.1,346.1,894.6,347,897.5,347z"/>
			<path class="st6" d="M901,339.7c0.3-0.4,0.7-1.3,0.7-2.3c0-1.8-1.2-2.4-2-2.4c-1.5,0-2.1,1.3-2.1,2.7v0.8h-1.1v-0.8
				c0-1-0.5-2.3-1.8-2.3c-0.8,0-1.6,0.5-1.6,1.8c0,0.8,0.4,1.6,0.7,2.1l-1,0.4c-0.4-0.5-0.8-1.6-0.8-2.7c0-2.1,1.2-3,2.5-3
				c1.1,0,2,0.6,2.5,1.9h0c0.3-1.3,1.2-2.3,2.7-2.3c1.7,0,3.1,1.3,3.1,3.8c0,1.2-0.4,2.2-0.7,2.7L901,339.7z"/>
			<path class="st6" d="M901.7,330.9c0-0.3,0-0.7,0-1.1c-0.1-0.8-0.5-1.6-1-2.2c-0.6-0.7-1.5-1.2-2.8-1.4v0c0.7,0.6,1.1,1.4,1.1,2.5
				c0,1.9-1.4,3.1-3.2,3.1c-2,0-3.7-1.4-3.7-3.6c0-2.1,1.7-3.5,4.4-3.5c2.3,0,3.9,0.8,4.9,1.8c0.8,0.8,1.3,1.9,1.4,3
				c0.1,0.5,0.1,1,0.1,1.3H901.7z M895.7,330.4c1.3,0,2.2-0.8,2.2-2c0-0.9-0.5-1.7-1.1-2.1c-0.1-0.1-0.3-0.1-0.5-0.1
				c-1.8,0-3.2,0.7-3.2,2.1C893.1,329.6,894.2,330.4,895.7,330.4z"/>
			<path class="st6" d="M891.7,319.6l3.9,0.3v0.9l-3.9,0.3V319.6z M891.7,322l3.9,0.3v0.9l-3.9,0.3V322z"/>
		</g>
		<g>
			<path class="st6" d="M904.6,318.4c-1.6-1.1-3.7-2-6.6-2c-2.9,0-4.9,0.9-6.5,2v-1.1c1.3-1,3.4-2.1,6.5-2.1c3.2,0,5.2,1.1,6.6,2.1
				V318.4z"/>
		</g>
		<line class="st84" x1="874" y1="686.1" x2="874" y2="592.6"/>
		<polygon class="st6" points="877.6,683.5 873.8,697.7 870.1,683.5 		"/>
		<polygon class="st6" points="877.6,595.2 873.8,581.1 870.1,595.2 		"/>
		<g>
			<path class="st6" d="M791.5,675.8v1.4h-9c0.3,0.3,0.6,0.8,1,1.3c0.3,0.6,0.6,1,0.7,1.5h-1.4c-0.4-0.8-0.8-1.5-1.3-2.1
				c-0.5-0.6-1-1-1.5-1.3v-0.9H791.5z"/>
			<path class="st6" d="M785.8,672.2c-1.4,0-2.5-0.1-3.3-0.4c-0.8-0.3-1.5-0.7-1.9-1.2c-0.4-0.6-0.7-1.2-0.7-2.1
				c0-0.6,0.1-1.2,0.4-1.6c0.2-0.5,0.6-0.9,1.1-1.2c0.5-0.3,1-0.5,1.7-0.7c0.7-0.2,1.6-0.3,2.7-0.3c1.4,0,2.4,0.1,3.3,0.4
				c0.8,0.3,1.5,0.7,1.9,1.2c0.5,0.6,0.7,1.2,0.7,2.1c0,1.1-0.4,2-1.2,2.6C789.6,671.8,788,672.2,785.8,672.2z M785.8,670.7
				c1.9,0,3.1-0.2,3.8-0.7c0.6-0.4,0.9-1,0.9-1.6c0-0.6-0.3-1.2-0.9-1.6s-1.9-0.7-3.8-0.7c-1.9,0-3.2,0.2-3.8,0.7
				c-0.6,0.4-0.9,1-0.9,1.7c0,0.6,0.3,1.2,0.8,1.6C782.7,670.5,784,670.7,785.8,670.7z"/>
		</g>
		<line class="st84" x1="796.6" y1="686.1" x2="796.6" y2="660"/>
		<polygon class="st6" points="800.3,683.5 796.5,697.7 792.7,683.5 		"/>
		<polygon class="st6" points="800.3,662.6 796.5,648.5 792.7,662.6 		"/>
		<line class="st85" x1="908.5" y1="684.8" x2="908.5" y2="96.9"/>
		<polygon class="st6" points="912.5,682 908.3,697.7 904.1,682 		"/>
		<polygon class="st6" points="912.5,99.7 908.3,84.1 904.1,99.7 		"/>
		<g>
			<path class="st6" d="M717.3,191.4h-2.8v5h-1.3l-7.5-5.3V190h7.5v-1.6h1.3v1.6h2.8V191.4z M713.3,191.4h-5.2l5.2,3.6V191.4z"/>
			<path class="st6" d="M711.7,187c-1.4,0-2.5-0.1-3.3-0.4c-0.8-0.3-1.5-0.7-1.9-1.2c-0.4-0.6-0.7-1.2-0.7-2.1
				c0-0.6,0.1-1.2,0.4-1.6c0.2-0.5,0.6-0.9,1.1-1.2c0.5-0.3,1-0.5,1.7-0.7c0.7-0.2,1.6-0.3,2.7-0.3c1.4,0,2.4,0.1,3.3,0.4
				c0.8,0.3,1.5,0.7,1.9,1.2c0.5,0.6,0.7,1.2,0.7,2.1c0,1.1-0.4,2-1.2,2.6C715.4,186.6,713.8,187,711.7,187z M711.7,185.6
				c1.9,0,3.1-0.2,3.8-0.7c0.6-0.4,0.9-1,0.9-1.6s-0.3-1.2-0.9-1.6c-0.6-0.4-1.9-0.7-3.8-0.7c-1.9,0-3.2,0.2-3.8,0.7
				c-0.6,0.4-0.9,1-0.9,1.7c0,0.6,0.3,1.2,0.8,1.6C708.5,185.3,709.8,185.6,711.7,185.6z"/>
			<path class="st6" d="M717.3,177.3h-1.6v-1.6h1.6V177.3z"/>
			<path class="st6" d="M711.7,173.6c-1.4,0-2.5-0.1-3.3-0.4c-0.8-0.3-1.5-0.7-1.9-1.2c-0.4-0.6-0.7-1.2-0.7-2.1
				c0-0.6,0.1-1.2,0.4-1.6c0.2-0.5,0.6-0.9,1.1-1.2c0.5-0.3,1-0.5,1.7-0.7c0.7-0.2,1.6-0.3,2.7-0.3c1.4,0,2.4,0.1,3.3,0.4
				c0.8,0.3,1.5,0.7,1.9,1.2c0.5,0.6,0.7,1.2,0.7,2.1c0,1.1-0.4,2-1.2,2.6C715.4,173.2,713.8,173.6,711.7,173.6z M711.7,172.2
				c1.9,0,3.1-0.2,3.8-0.7c0.6-0.4,0.9-1,0.9-1.6s-0.3-1.2-0.9-1.6c-0.6-0.4-1.9-0.7-3.8-0.7c-1.9,0-3.2,0.2-3.8,0.7
				c-0.6,0.4-0.9,1-0.9,1.7c0,0.6,0.3,1.2,0.8,1.6C708.5,171.9,709.8,172.2,711.7,172.2z"/>
			<path class="st6" d="M714.3,164.7l-0.1-1.5c0.7-0.1,1.3-0.4,1.6-0.8c0.4-0.4,0.5-0.9,0.5-1.4c0-0.7-0.3-1.3-0.8-1.7
				c-0.5-0.5-1.2-0.7-2-0.7c-0.8,0-1.4,0.2-1.9,0.7s-0.7,1-0.7,1.8c0,0.5,0.1,0.9,0.3,1.2c0.2,0.4,0.5,0.7,0.8,0.9l-0.2,1.3
				l-5.9-1.1v-5.7h1.4v4.6l3.1,0.6c-0.5-0.7-0.7-1.4-0.7-2.2c0-1,0.3-1.9,1-2.5c0.7-0.7,1.6-1,2.7-1c1,0,1.9,0.3,2.7,0.9
				c0.9,0.7,1.4,1.7,1.4,3c0,1-0.3,1.9-0.9,2.6C716.1,164.2,715.3,164.6,714.3,164.7z"/>
		</g>
		<line class="st85" x1="722.5" y1="262.8" x2="722.5" y2="96.9"/>
		<polygon class="st6" points="726.5,259.9 722.3,275.6 718.1,259.9 		"/>
		<polygon class="st6" points="726.5,99.7 722.3,84.1 718.1,99.7 		"/>
		<g>
			<path class="st6" d="M678.9,179.1l-0.2-1.4c0.8-0.2,1.4-0.4,1.7-0.8c0.4-0.4,0.5-0.9,0.5-1.4c0-0.7-0.2-1.2-0.7-1.7
				c-0.5-0.5-1-0.7-1.7-0.7c-0.6,0-1.2,0.2-1.6,0.6c-0.4,0.4-0.6,1-0.6,1.6c0,0.3,0.1,0.6,0.2,1l-1.2-0.2c0-0.1,0-0.2,0-0.2
				c0-0.6-0.2-1.1-0.5-1.6c-0.3-0.5-0.8-0.7-1.5-0.7c-0.5,0-0.9,0.2-1.3,0.5c-0.3,0.4-0.5,0.8-0.5,1.4c0,0.5,0.2,1,0.5,1.4
				c0.3,0.4,0.9,0.6,1.6,0.7l-0.3,1.4c-0.9-0.2-1.7-0.6-2.2-1.2s-0.8-1.4-0.8-2.3c0-0.6,0.1-1.2,0.4-1.7s0.6-0.9,1.1-1.2
				s1-0.4,1.5-0.4c0.5,0,1,0.1,1.4,0.4c0.4,0.3,0.7,0.7,1,1.2c0.2-0.7,0.5-1.2,1-1.6c0.5-0.4,1.1-0.6,1.9-0.6c1,0,1.9,0.4,2.6,1.1
				c0.7,0.7,1,1.7,1,2.8c0,1-0.3,1.8-0.9,2.5C680.6,178.7,679.9,179,678.9,179.1z"/>
			<path class="st6" d="M676.3,170.2c-1.4,0-2.5-0.1-3.3-0.4c-0.8-0.3-1.5-0.7-1.9-1.2c-0.4-0.6-0.7-1.2-0.7-2.1
				c0-0.6,0.1-1.2,0.4-1.6c0.2-0.5,0.6-0.9,1.1-1.2c0.5-0.3,1-0.5,1.7-0.7c0.7-0.2,1.6-0.3,2.7-0.3c1.4,0,2.4,0.1,3.3,0.4
				c0.8,0.3,1.5,0.7,1.9,1.2c0.5,0.6,0.7,1.2,0.7,2.1c0,1.1-0.4,2-1.2,2.6C680,169.8,678.4,170.2,676.3,170.2z M676.3,168.8
				c1.9,0,3.1-0.2,3.8-0.7c0.6-0.4,0.9-1,0.9-1.6s-0.3-1.2-0.9-1.6c-0.6-0.4-1.9-0.7-3.8-0.7c-1.9,0-3.2,0.2-3.8,0.7
				c-0.6,0.4-0.9,1-0.9,1.7c0,0.6,0.3,1.2,0.8,1.6C673.1,168.5,674.4,168.8,676.3,168.8z"/>
			<path class="st6" d="M681.9,160.5h-1.6v-1.6h1.6V160.5z"/>
			<path class="st6" d="M676.3,156.8c-1.4,0-2.5-0.1-3.3-0.4c-0.8-0.3-1.5-0.7-1.9-1.2c-0.4-0.6-0.7-1.2-0.7-2.1
				c0-0.6,0.1-1.2,0.4-1.6c0.2-0.5,0.6-0.9,1.1-1.2c0.5-0.3,1-0.5,1.7-0.7c0.7-0.2,1.6-0.3,2.7-0.3c1.4,0,2.4,0.1,3.3,0.4
				c0.8,0.3,1.5,0.7,1.9,1.2c0.5,0.6,0.7,1.2,0.7,2.1c0,1.1-0.4,2-1.2,2.6C680,156.4,678.4,156.8,676.3,156.8z M676.3,155.3
				c1.9,0,3.1-0.2,3.8-0.7c0.6-0.4,0.9-1,0.9-1.6s-0.3-1.2-0.9-1.6c-0.6-0.4-1.9-0.7-3.8-0.7c-1.9,0-3.2,0.2-3.8,0.7
				c-0.6,0.4-0.9,1-0.9,1.7c0,0.6,0.3,1.2,0.8,1.6C673.1,155.1,674.4,155.3,676.3,155.3z"/>
			<path class="st6" d="M678.9,147.9l-0.1-1.5c0.7-0.1,1.3-0.4,1.6-0.8c0.4-0.4,0.5-0.9,0.5-1.4c0-0.7-0.3-1.3-0.8-1.7
				c-0.5-0.5-1.2-0.7-2-0.7c-0.8,0-1.4,0.2-1.9,0.7s-0.7,1-0.7,1.8c0,0.5,0.1,0.9,0.3,1.2c0.2,0.4,0.5,0.7,0.8,0.9l-0.2,1.3
				l-5.9-1.1v-5.7h1.4v4.6l3.1,0.6c-0.5-0.7-0.7-1.4-0.7-2.2c0-1,0.3-1.9,1-2.5c0.7-0.7,1.6-1,2.7-1c1,0,1.9,0.3,2.7,0.9
				c0.9,0.7,1.4,1.7,1.4,3c0,1-0.3,1.9-0.9,2.6C680.7,147.4,679.9,147.8,678.9,147.9z"/>
			<path class="st6" d="M675.7,136.7c-0.2,0.6-0.5,1-0.9,1.3s-0.9,0.4-1.4,0.4c-0.8,0-1.5-0.3-2.1-0.9c-0.6-0.6-0.9-1.4-0.9-2.4
				c0-1,0.3-1.8,0.9-2.4c0.6-0.6,1.3-0.9,2.1-0.9c0.5,0,1,0.1,1.4,0.4s0.7,0.7,0.9,1.3c0.2-0.7,0.6-1.2,1.1-1.6
				c0.5-0.4,1.1-0.6,1.8-0.6c1,0,1.8,0.3,2.5,1c0.7,0.7,1,1.6,1,2.7c0,1.1-0.3,2.1-1,2.7c-0.7,0.7-1.5,1-2.5,1
				c-0.7,0-1.4-0.2-1.9-0.6C676.2,138,675.9,137.4,675.7,136.7z M673.3,137c0.5,0,1-0.2,1.3-0.5s0.5-0.8,0.5-1.4
				c0-0.5-0.2-1-0.5-1.3s-0.8-0.5-1.3-0.5c-0.5,0-1,0.2-1.3,0.5c-0.4,0.4-0.5,0.8-0.5,1.3c0,0.5,0.2,1,0.5,1.3
				C672.4,136.8,672.8,137,673.3,137z M678.6,137.5c0.4,0,0.8-0.1,1.2-0.3c0.4-0.2,0.7-0.5,0.9-0.9c0.2-0.4,0.3-0.8,0.3-1.2
				c0-0.7-0.2-1.2-0.7-1.7c-0.4-0.4-1-0.7-1.7-0.7c-0.7,0-1.2,0.2-1.7,0.7c-0.4,0.5-0.7,1-0.7,1.7c0,0.7,0.2,1.2,0.7,1.7
				C677.4,137.3,678,137.5,678.6,137.5z"/>
			<path class="st6" d="M680.6,122.5h1.4v7.6c-0.3,0-0.7,0-1-0.2c-0.5-0.2-1-0.5-1.5-0.9c-0.5-0.4-1.1-1-1.7-1.8
				c-1-1.3-1.8-2.1-2.4-2.5c-0.6-0.4-1.2-0.7-1.7-0.7c-0.6,0-1,0.2-1.4,0.6s-0.6,0.9-0.6,1.6c0,0.7,0.2,1.2,0.6,1.6
				c0.4,0.4,1,0.6,1.7,0.6l-0.1,1.5c-1.1-0.1-1.9-0.5-2.5-1.1c-0.6-0.6-0.9-1.5-0.9-2.6c0-1.1,0.3-2,0.9-2.6s1.4-1,2.3-1
				c0.5,0,0.9,0.1,1.4,0.3c0.4,0.2,0.9,0.5,1.4,0.9c0.5,0.4,1.2,1.2,2,2.2c0.7,0.8,1.2,1.4,1.4,1.6s0.5,0.4,0.8,0.6V122.5z"/>
		</g>
		<line class="st85" x1="687.1" y1="213.3" x2="687.1" y2="96.9"/>
		<polygon class="st6" points="691.1,210.4 686.9,226.1 682.7,210.4 		"/>
		<polygon class="st6" points="691.1,99.7 686.9,84.1 682.7,99.7 		"/>
	</g>
</g>
<g id="Watermark">
	<g>
		<rect x="428.3" y="642.8" class="st0" width="123.1" height="46.3"/>
		<g>
			<rect x="434.7" y="650.7" class="st106" width="62.9" height="30.6"/>
			<rect x="497.6" y="650.7" class="st106" width="47.4" height="30.6"/>
			<g>
				<path class="st107" d="M456.3,656.8l-2.8,18.9h-2.7l-1.6-11l-1.5,11H445l-2.8-18.9h2.5l1.8,14.2l1.8-14.2h2l1.8,14.2l1.8-14.2
					H456.3z"/>
				<path class="st107" d="M457.8,675.7v-18.9h2.5v18.9H457.8z"/>
				<path class="st107" d="M462.7,656.8h5c1.9,0,2.9,1.1,2.9,3.2v4.7c0,1.7-0.5,2.7-1.5,3.1l1.8,7.9h-2.4l-1.7-7.6h-1.5v7.6h-2.5
					V656.8z M465.2,665.9h1.7c0.8,0,1.1-0.5,1.1-1.4v-4.1c0-0.9-0.4-1.4-1.1-1.4h-1.7V665.9z"/>
				<path class="st107" d="M476.7,659.1v16.6h-2.5v-16.6h-2.4v-2.3h7.4v2.3H476.7z"/>
				<path class="st107" d="M486.2,675.7v-8.6h-3.1v8.6h-2.5v-18.9h2.5v8h3.1v-8h2.5v18.9H486.2z"/>
			</g>
			<g>
				<path class="st107" d="M506.1,656.8h5c1.9,0,2.9,1.1,2.9,3.2v4.7c0,1.7-0.5,2.7-1.5,3.1l1.8,7.9h-2.4l-1.7-7.6h-1.5v7.6h-2.5
					V656.8z M508.7,665.9h1.7c0.8,0,1.1-0.5,1.1-1.4v-4.1c0-0.9-0.4-1.4-1.1-1.4h-1.7V665.9z"/>
				<path class="st107" d="M518.5,675.7H516V660c0-2.2,1-3.2,3-3.2h1.9c2,0,3,1.1,3,3.2v15.7h-2.5v-6.9h-2.9V675.7z M521.4,666.5
					v-6.3c0-0.7-0.4-1.1-1.1-1.1h-0.7c-0.7,0-1.1,0.4-1.1,1.1v6.3H521.4z"/>
				<path class="st107" d="M526.2,675.7v-18.9h2.5v18.9H526.2z"/>
				<path class="st107" d="M537.1,675.7h-6v-18.9h2.5v16.6h3.5V675.7z"/>
			</g>
		</g>
	</g>
</g>
</svg>
