<?xml version="1.0" encoding="utf-8"?>
<!-- Generator: Adobe Illustrator 25.2.3, SVG Export Plug-In . SVG Version: 6.00 Build 0)  -->
<svg version="1.1" xmlns="http://www.w3.org/2000/svg" xmlns:xlink="http://www.w3.org/1999/xlink" x="0px" y="0px"
	 viewBox="0 0 1000 800" style="enable-background:new 0 0 1000 800;" xml:space="preserve">
<style type="text/css">
	.st0{display:none;}
	.st1{fill:#F0F0F0;}
	.st2{fill:none;stroke:#221E1F;stroke-width:1.0067;}
	.st3{fill:none;stroke:#221E1F;stroke-width:1.0815;}
	.st4{fill:#221E1F;}
	.st5{fill:none;stroke:#221E1F;stroke-width:1.0067;stroke-dasharray:25.4357,7.8961;}
	.st6{fill:#303030;}
	.st7{fill:none;stroke:#221E1F;stroke-width:0.9293;}
	.st8{fill:none;stroke:#303030;stroke-width:1.0067;stroke-miterlimit:10;}
	.st9{fill:none;stroke:#221E1F;stroke-width:1.2309;}
	.st10{fill:none;stroke:#221E1F;stroke-width:1.0036;stroke-linecap:round;stroke-linejoin:round;stroke-miterlimit:10;}
	.st11{fill:none;stroke:#221E1F;stroke-width:1.2309;stroke-linecap:round;stroke-linejoin:round;stroke-miterlimit:10;}
	.st12{fill:none;stroke:#221E1F;stroke-width:1.2309;stroke-miterlimit:10;}
	.st13{fill:none;stroke:#221E1F;stroke-width:1.2309;stroke-linecap:round;stroke-linejoin:round;}
	.st14{fill:none;stroke:#221E1F;stroke-width:1.2309;stroke-dasharray:6.9402,6.9402;}
	.st15{fill:none;stroke:#221E1F;stroke-width:1.148;}
	.st16{fill:none;stroke:#221E1F;stroke-width:1.148;stroke-dasharray:6.4521,6.4521;}
	.st17{fill:none;stroke:#221E1F;stroke-width:1.145;}
	.st18{fill:none;stroke:#221E1F;stroke-width:1.1283;}
	.st19{fill:none;stroke:#221E1F;stroke-width:1.1023;}
	.st20{fill:none;stroke:#221E1F;stroke-width:1.1283;stroke-dasharray:6.3679,6.3679;}
	.st21{fill:none;stroke:#221E1F;stroke-width:1.1486;}
	.st22{fill:none;stroke:#FFFFFF;stroke-width:5.4259;}
	.st23{fill:none;stroke:#221E1F;stroke-width:1.0581;}
	.st24{fill:none;stroke:#221E1F;stroke-width:1.0092;}
	.st25{fill:none;stroke:#221E1F;stroke-width:0.9007;}
	.st26{fill:none;stroke:#221E1F;stroke-width:0.9007;stroke-dasharray:6.2235,6.2235;}
	.st27{fill:none;stroke:#241F21;stroke-width:0.8703;}
	.st28{fill:none;stroke:#241F21;stroke-width:0.9357;}
	.st29{clip-path:url(#SVGID_2_);fill:none;stroke:#241F21;stroke-width:0.8703;}
	.st30{fill:none;stroke:#303030;stroke-width:0.8703;stroke-miterlimit:10;}
	.st31{fill:#241F21;}
	.st32{fill:none;stroke:#241F21;stroke-width:0.8703;stroke-dasharray:22.0524,6.4121;}
	.st33{clip-path:url(#SVGID_4_);}
	.st34{clip-path:url(#SVGID_6_);}
	.st35{clip-path:url(#SVGID_8_);}
	.st36{clip-path:url(#SVGID_10_);fill:#303030;}
	.st37{fill:none;stroke:#241F21;stroke-width:0.8703;stroke-dasharray:26.5684,7.9543;}
	.st38{clip-path:url(#SVGID_12_);}
	.st39{clip-path:url(#SVGID_14_);}
	.st40{clip-path:url(#SVGID_16_);}
	.st41{clip-path:url(#SVGID_18_);}
	.st42{fill:none;stroke:#241F21;stroke-width:0.8984;}
	.st43{fill:none;stroke:#303030;stroke-width:0.8984;stroke-miterlimit:10;}
	.st44{clip-path:url(#SVGID_20_);}
	.st45{clip-path:url(#SVGID_22_);}
	.st46{clip-path:url(#SVGID_24_);}
	.st47{clip-path:url(#SVGID_26_);}
	.st48{clip-path:url(#SVGID_28_);}
	.st49{clip-path:url(#SVGID_30_);}
	.st50{clip-path:url(#SVGID_32_);}
	.st51{clip-path:url(#SVGID_34_);fill:none;stroke:#241F21;stroke-width:0.8984;}
	.st52{clip-path:url(#SVGID_36_);fill:none;stroke:#241F21;stroke-width:0.8984;}
	.st53{clip-path:url(#SVGID_38_);fill:none;stroke:#241F21;stroke-width:0.8984;}
	.st54{clip-path:url(#SVGID_40_);fill:none;stroke:#241F21;stroke-width:0.8984;}
	.st55{fill:none;stroke:#241F21;stroke-width:0.8984;stroke-dasharray:22.7263,6.6621;}
	.st56{fill:none;stroke:#241F21;stroke-width:0.9362;}
	.st57{fill:none;stroke:#241F21;stroke-width:0.8984;stroke-dasharray:27.9392,8.7142;}
	.st58{clip-path:url(#SVGID_42_);}
	.st59{clip-path:url(#SVGID_44_);}
	.st60{clip-path:url(#SVGID_46_);}
	.st61{fill:none;stroke:#221E1F;stroke-width:0.765;}
	.st62{fill:none;stroke:#221E1F;stroke-width:0.8373;}
	.st63{fill:none;stroke:#221E1F;stroke-width:0.765;stroke-dasharray:21.1617,6.4071;}
	.st64{fill:none;stroke:#221E1F;stroke-width:0.765;stroke-dasharray:24.8189,7.2742;}
	.st65{fill:none;stroke:#303030;stroke-width:0.765;stroke-miterlimit:10;}
	.st66{fill:none;stroke:#221E1F;stroke-width:0.748;}
	.st67{fill:none;stroke:#241F21;stroke-width:1.3086;}
	.st68{fill:none;stroke:#241F21;stroke-width:1.5023;}
	.st69{fill:none;stroke:#241F21;stroke-width:1.1437;}
	.st70{fill:none;stroke:#241F21;stroke-width:1.5023;stroke-dasharray:23.5916,9.5345;}
	.st71{fill:none;stroke:#241F21;stroke-width:1.5023;stroke-dasharray:22.9216,8.8619;}
	.st72{fill:none;stroke:#241F21;stroke-width:1.5023;stroke-dasharray:21.3408,7.2811;}
	.st73{fill:none;stroke:#241F21;stroke-width:1.5023;stroke-dasharray:21.3303,7.2706;}
	.st74{fill:none;stroke:#241F21;stroke-width:1.5023;stroke-dasharray:20.027,5.9673;}
	.st75{fill:#F0F0F0;stroke:#CCCCCC;stroke-miterlimit:10;}
	.st76{fill:#CCCCCC;}
</style>
<g id="editable" class="st0">
</g>
<g id="Flat">
	<g>
		<g>
			<path class="st1" d="M817.5,682.4c0-5.8-3.1-8.7-8.8-10.4c-5.6-1.7-128.1-29.2-172.3-39.5c-60.5-14.2-91.6-13.2-95.6-50.8
				c-11-103.3-5.9-113.3-6.8-151.5c-1.2-48,3.7-117.4,4.3-137.1c0.6-22.4,6-43.1,30.3-48.8c24.9-5.9,78.3-18.3,91.1-20.6
				c9.1-1.6,14-6,13.7-10.9c-0.6-9.6,2-51.7-0.6-89.1c-1-14.3-12.9-32.6-30.6-40.8c-13-6.1-98.3-8.3-144-8.6
				C452.6,74.6,367,76.8,354,82.9c-17.7,8.3-29.6,26.6-30.6,40.8c-2.6,37.4,0,79.5-0.6,89.1c-0.3,4.9,4.6,9.2,13.7,10.9
				c12.9,2.3,66.2,14.7,91.1,20.6c24.3,5.7,29.7,26.5,30.3,48.8c0.5,19.7,5.5,89.1,4.3,137.1c-1,38.3,4.1,48.2-6.9,151.5
				c-4,37.5-35,36.6-95.6,50.8c-44.2,10.4-166.7,37.9-172.3,39.5c-5.6,1.7-8.8,4.6-8.8,10.4l0.2,22.2c-0.5,4.8,5.1,9.3,11,9.5
				c6.4,0.2,308.3,0,308.3,0c0.1,0,301.6,0.2,308,0c6-0.2,11.6-4.7,11-9.5L817.5,682.4z"/>
			<path class="st67" d="M817.5,682.4c0-5.8-3.1-8.7-8.8-10.4c-5.6-1.7-128.1-29.2-172.3-39.5c-60.5-14.2-91.6-13.2-95.6-50.8
				c-11-103.3-5.9-113.3-6.8-151.5c-1.2-48,3.7-117.4,4.3-137.1c0.6-22.4,6-43.1,30.3-48.8c24.9-5.9,78.3-18.3,91.1-20.6
				c9.1-1.6,14-6,13.7-10.9c-0.6-9.6,2-51.7-0.6-89.1c-1-14.3-12.9-32.6-30.6-40.8c-13-6.1-98.3-8.3-144-8.6
				C452.6,74.6,367,76.8,354,82.9c-17.7,8.3-29.6,26.6-30.6,40.8c-2.6,37.4,0,79.5-0.6,89.1c-0.3,4.9,4.6,9.2,13.7,10.9
				c12.9,2.3,66.2,14.7,91.1,20.6c24.3,5.7,29.7,26.5,30.3,48.8c0.5,19.7,5.5,89.1,4.3,137.1c-1,38.3,4.1,48.2-6.9,151.5
				c-4,37.5-35,36.6-95.6,50.8c-44.2,10.4-166.7,37.9-172.3,39.5c-5.6,1.7-8.8,4.6-8.8,10.4l0.2,22.2c-0.5,4.8,5.1,9.3,11,9.5
				c6.4,0.2,308.3,0,308.3,0c0.1,0,301.6,0.2,308,0c6-0.2,11.6-4.7,11-9.5L817.5,682.4z"/>
		</g>
		<path class="st68" d="M323.3,10.4v137 M673.2,10.4v125.2"/>
		<line class="st69" x1="518.7" y1="456.5" x2="477.4" y2="456.5"/>
		<polygon class="st31" points="515.3,451.8 533.9,456.7 515.3,461.7 		"/>
		<polygon class="st31" points="480.8,451.8 462.2,456.7 480.8,461.7 		"/>
		<line class="st69" x1="799.3" y1="783.5" x2="195.6" y2="783.5"/>
		<polygon class="st31" points="795.9,778.8 814.5,783.7 795.9,788.7 		"/>
		<polygon class="st31" points="199,778.8 180.4,783.7 199,788.7 		"/>
		<line class="st69" x1="656.8" y1="27.1" x2="338" y2="27.1"/>
		<polygon class="st31" points="653.4,22.3 672,27.3 653.4,32.3 		"/>
		<polygon class="st31" points="341.4,22.3 322.8,27.3 341.4,32.3 		"/>
		<line class="st69" x1="837.3" y1="242.5" x2="837.3" y2="89.1"/>
		<polygon class="st31" points="842,239.1 837,257.7 832.1,239.1 		"/>
		<polygon class="st31" points="842,92.5 837,73.9 832.1,92.5 		"/>
		<line class="st69" x1="71.1" y1="698" x2="71.1" y2="419.5"/>
		<polygon class="st31" points="75.9,694.6 70.9,713.2 65.9,694.6 		"/>
		<polygon class="st31" points="75.9,422.9 70.9,404.3 65.9,422.9 		"/>
		<line class="st69" x1="129.9" y1="698.7" x2="129.9" y2="614.9"/>
		<polygon class="st31" points="134.7,695.3 129.7,713.9 124.7,695.3 		"/>
		<polygon class="st31" points="134.7,618.3 129.7,599.7 124.7,618.3 		"/>
		<polyline class="st69" points="674.7,357.2 598.7,357.2 551.5,350.9 		"/>
		<polygon class="st31" points="555.5,346.6 536.4,349.1 554.2,356.5 		"/>
		<line class="st69" x1="880.3" y1="659.4" x2="880.3" y2="521.5"/>
		<polygon class="st31" points="885.1,656 880.1,674.6 875.2,656 		"/>
		<line class="st69" x1="880.3" y1="728.5" x2="880.3" y2="774.8"/>
		<polygon class="st31" points="875.5,731.9 880.5,713.3 885.5,731.9 		"/>
		<line class="st69" x1="964.5" y1="698.7" x2="964.5" y2="88.6"/>
		<polygon class="st31" points="969.3,695.3 964.3,713.9 959.3,695.3 		"/>
		<polygon class="st31" points="969.3,92 964.3,73.4 959.3,92 		"/>
		<line class="st70" x1="444.4" y1="246.6" x2="499.9" y2="258"/>
		<line class="st71" x1="554" y1="246.6" x2="500.5" y2="257.9"/>
		<line class="st72" x1="443.1" y1="611.5" x2="491.6" y2="599.5"/>
		<line class="st73" x1="552.7" y1="611.5" x2="504.2" y2="599.5"/>
		<path class="st67" d="M817.8,699.3v95.4 M687.9,456.6H534 M129.8,451.1v147.8 M566.1,420H429.4 M967.9,713.8H790.7 M499.7,599.1
			H118.4 M202.3,713.8H56.9"/>
		<line class="st69" x1="880.3" y1="674.5" x2="880.3" y2="713.6"/>
		<path class="st67" d="M552.3,74.3h439.2 M178.5,699.3v95.4 M813.3,674.3h75.6"/>
		<polyline class="st69" points="436.8,267.3 327.8,345.7 170.3,345.7 		"/>
		<polygon class="st31" points="431.2,265.4 449.2,258.6 437.1,273.5 		"/>
		<polyline class="st69" points="438.2,590.8 331.9,514.3 174.5,514.3 		"/>
		<polygon class="st31" points="438.2,584.9 450.4,599.8 432.4,593 		"/>
		<polyline class="st69" points="431.6,92 435.4,190.2 323.7,190.6 		"/>
		<polygon class="st31" points="427,95.6 431.2,76.8 436.9,95.2 		"/>
		<polyline class="st69" points="678.8,232.8 746.1,310 886.5,310 		"/>
		<polygon class="st31" points="677.5,238.5 669,221.2 685,231.9 		"/>
		<line class="st69" x1="644.8" y1="104.3" x2="553.8" y2="214.6"/>
		<polygon class="st31" points="639,103.9 654.7,92.7 646.7,110.2 		"/>
		<line class="st68" x1="846.3" y1="258.1" x2="500" y2="258.1"/>
		<line class="st74" x1="500.1" y1="48" x2="500.1" y2="743.9"/>
		<g>
			<path class="st31" d="M443.4,774.5l1.8-0.2c0.2,0.9,0.4,1.5,0.9,1.9s1,0.6,1.7,0.6c0.6,0,1.1-0.1,1.5-0.4
				c0.4-0.3,0.8-0.6,1.1-1.1c0.3-0.4,0.5-1,0.7-1.8s0.3-1.5,0.3-2.3c0-0.1,0-0.2,0-0.4c-0.4,0.6-0.9,1.1-1.5,1.5
				c-0.7,0.4-1.4,0.6-2.1,0.6c-1.3,0-2.3-0.5-3.2-1.4c-0.9-0.9-1.3-2.1-1.3-3.6c0-1.6,0.5-2.8,1.4-3.8c0.9-0.9,2.1-1.4,3.4-1.4
				c1,0,1.9,0.3,2.7,0.8c0.8,0.5,1.5,1.3,1.9,2.3c0.4,1,0.6,2.4,0.6,4.3c0,2-0.2,3.5-0.6,4.7s-1.1,2-1.9,2.7c-0.8,0.6-1.8,0.9-3,0.9
				c-1.2,0-2.2-0.3-2.9-1C444,776.6,443.6,775.7,443.4,774.5z M451.1,767.7c0-1.1-0.3-1.9-0.9-2.6c-0.6-0.6-1.3-1-2.1-1
				c-0.8,0-1.6,0.3-2.2,1c-0.6,0.7-0.9,1.6-0.9,2.7c0,1,0.3,1.8,0.9,2.4c0.6,0.6,1.3,0.9,2.2,0.9c0.9,0,1.6-0.3,2.2-0.9
				C450.8,769.6,451.1,768.8,451.1,767.7z"/>
			<path class="st31" d="M457.9,769.7c-0.8-0.3-1.4-0.7-1.7-1.2c-0.4-0.5-0.6-1.2-0.6-1.9c0-1.1,0.4-2.1,1.2-2.8
				c0.8-0.8,1.9-1.1,3.2-1.1c1.3,0,2.4,0.4,3.2,1.2s1.2,1.7,1.2,2.8c0,0.7-0.2,1.3-0.6,1.9c-0.4,0.5-0.9,0.9-1.7,1.2
				c0.9,0.3,1.7,0.8,2.2,1.5c0.5,0.7,0.7,1.5,0.7,2.4c0,1.3-0.5,2.4-1.4,3.3c-0.9,0.9-2.1,1.3-3.7,1.3c-1.5,0-2.7-0.4-3.7-1.3
				c-0.9-0.9-1.4-2-1.4-3.4c0-1,0.3-1.8,0.8-2.5C456.3,770.4,457,769.9,457.9,769.7z M457,773.6c0,0.5,0.1,1.1,0.4,1.6
				c0.3,0.5,0.6,0.9,1.1,1.2c0.5,0.3,1,0.4,1.6,0.4c0.9,0,1.6-0.3,2.2-0.9c0.6-0.6,0.9-1.3,0.9-2.2c0-0.9-0.3-1.7-0.9-2.2
				c-0.6-0.6-1.4-0.9-2.3-0.9c-0.9,0-1.6,0.3-2.2,0.9C457.2,772,457,772.7,457,773.6z M457.6,766.5c0,0.7,0.2,1.3,0.7,1.8
				c0.5,0.5,1.1,0.7,1.8,0.7c0.7,0,1.3-0.2,1.8-0.7s0.7-1,0.7-1.7c0-0.7-0.2-1.3-0.7-1.7c-0.5-0.5-1.1-0.7-1.8-0.7
				c-0.7,0-1.3,0.2-1.8,0.7C457.8,765.3,457.6,765.9,457.6,766.5z"/>
			<path class="st31" d="M468,778v-2.1h2.1v2.1H468z"/>
			<path class="st31" d="M479,778v-3.7h-6.7v-1.7l7-9.9h1.5v9.9h2.1v1.7h-2.1v3.7H479z M479,772.6v-6.9l-4.8,6.9H479z"/>
			<path class="st31" d="M494.9,782.5c-1-1.3-1.9-2.8-2.6-4.6c-0.7-1.8-1.1-3.6-1.1-5.5c0-1.7,0.3-3.3,0.8-4.8
				c0.6-1.8,1.6-3.5,2.9-5.3h1.4c-0.8,1.5-1.4,2.5-1.7,3.1c-0.4,1-0.8,2-1,3c-0.3,1.3-0.5,2.6-0.5,3.9c0,3.4,1,6.7,3.1,10.1H494.9z"
				/>
			<path class="st31" d="M497.9,774l1.9-0.3c0.2,1.1,0.6,1.8,1.1,2.3s1.2,0.7,1.9,0.7c0.9,0,1.6-0.3,2.2-0.9
				c0.6-0.6,0.9-1.4,0.9-2.3c0-0.9-0.3-1.6-0.8-2.1c-0.6-0.6-1.3-0.8-2.2-0.8c-0.4,0-0.8,0.1-1.3,0.2l0.2-1.7c0.1,0,0.2,0,0.3,0
				c0.8,0,1.5-0.2,2.2-0.6c0.6-0.4,1-1.1,1-1.9c0-0.7-0.2-1.3-0.7-1.7c-0.5-0.5-1.1-0.7-1.8-0.7c-0.7,0-1.3,0.2-1.8,0.7
				c-0.5,0.5-0.8,1.2-0.9,2.1l-1.9-0.3c0.2-1.3,0.8-2.2,1.6-2.9c0.8-0.7,1.8-1,3-1c0.8,0,1.6,0.2,2.3,0.5c0.7,0.4,1.2,0.8,1.6,1.5
				c0.4,0.6,0.6,1.3,0.6,2c0,0.7-0.2,1.3-0.5,1.8c-0.4,0.5-0.9,1-1.6,1.3c0.9,0.2,1.6,0.6,2.1,1.3c0.5,0.7,0.8,1.5,0.8,2.5
				c0,1.3-0.5,2.5-1.5,3.4c-1,0.9-2.2,1.4-3.7,1.4c-1.3,0-2.5-0.4-3.4-1.2C498.6,776.3,498.1,775.2,497.9,774z"/>
			<path class="st31" d="M515.9,764.7v-1.8h9.9v1.5c-1,1-1.9,2.4-2.9,4.1c-1,1.7-1.7,3.5-2.2,5.3c-0.4,1.3-0.6,2.7-0.7,4.2h-1.9
				c0-1.2,0.3-2.7,0.7-4.4c0.5-1.7,1.1-3.4,2-4.9s1.8-2.9,2.7-4H515.9z"/>
			<path class="st31" d="M526.8,778.3l4.4-15.9h1.5l-4.4,15.9H526.8z"/>
			<path class="st31" d="M536.6,769.7c-0.8-0.3-1.4-0.7-1.7-1.2c-0.4-0.5-0.6-1.2-0.6-1.9c0-1.1,0.4-2.1,1.2-2.8
				c0.8-0.8,1.9-1.1,3.2-1.1c1.3,0,2.4,0.4,3.2,1.2s1.2,1.7,1.2,2.8c0,0.7-0.2,1.3-0.6,1.9c-0.4,0.5-0.9,0.9-1.7,1.2
				c0.9,0.3,1.7,0.8,2.2,1.5c0.5,0.7,0.7,1.5,0.7,2.4c0,1.3-0.5,2.4-1.4,3.3c-0.9,0.9-2.1,1.3-3.7,1.3c-1.5,0-2.7-0.4-3.7-1.3
				c-0.9-0.9-1.4-2-1.4-3.4c0-1,0.3-1.8,0.8-2.5C534.9,770.4,535.7,769.9,536.6,769.7z M535.6,773.6c0,0.5,0.1,1.1,0.4,1.6
				c0.3,0.5,0.6,0.9,1.1,1.2c0.5,0.3,1,0.4,1.6,0.4c0.9,0,1.6-0.3,2.2-0.9c0.6-0.6,0.9-1.3,0.9-2.2c0-0.9-0.3-1.7-0.9-2.2
				c-0.6-0.6-1.4-0.9-2.3-0.9c-0.9,0-1.6,0.3-2.2,0.9C535.9,772,535.6,772.7,535.6,773.6z M536.2,766.5c0,0.7,0.2,1.3,0.7,1.8
				c0.5,0.5,1.1,0.7,1.8,0.7c0.7,0,1.3-0.2,1.8-0.7s0.7-1,0.7-1.7c0-0.7-0.2-1.3-0.7-1.7c-0.5-0.5-1.1-0.7-1.8-0.7
				c-0.7,0-1.3,0.2-1.8,0.7C536.5,765.3,536.2,765.9,536.2,766.5z"/>
			<path class="st31" d="M546.2,768.1l-0.5-2.9v-2.5h2.1v2.5l-0.5,2.9H546.2z M549.7,768.1l-0.5-2.9v-2.5h2.1v2.5l-0.5,2.9H549.7z"
				/>
			<path class="st31" d="M555,782.5h-1.4c2.1-3.3,3.1-6.7,3.1-10.1c0-1.3-0.2-2.6-0.5-3.9c-0.2-1-0.6-2.1-1-3
				c-0.3-0.6-0.8-1.7-1.7-3.1h1.4c1.3,1.8,2.3,3.5,2.9,5.3c0.5,1.5,0.8,3.1,0.8,4.8c0,1.9-0.4,3.7-1.1,5.5
				C556.9,779.7,556,781.2,555,782.5z"/>
		</g>
		<g>
			<path class="st31" d="M571.6,450.5h-1.9v-12c-0.5,0.4-1,0.9-1.8,1.3c-0.7,0.4-1.4,0.8-2,1V439c1.1-0.5,2-1.1,2.8-1.8
				c0.8-0.7,1.3-1.4,1.7-2.1h1.2V450.5z"/>
			<path class="st31" d="M583.5,450.5h-1.9v-12c-0.5,0.4-1,0.9-1.8,1.3c-0.7,0.4-1.4,0.8-2,1V439c1.1-0.5,2-1.1,2.8-1.8
				c0.8-0.7,1.3-1.4,1.7-2.1h1.2V450.5z"/>
			<path class="st31" d="M589.4,450.5v-2.1h2.1v2.1H589.4z"/>
			<path class="st31" d="M601.4,450.5h-1.9v-12c-0.5,0.4-1,0.9-1.8,1.3c-0.7,0.4-1.4,0.8-2,1V439c1.1-0.5,2-1.1,2.8-1.8
				c0.8-0.7,1.3-1.4,1.7-2.1h1.2V450.5z"/>
			<path class="st31" d="M613.3,450.5h-1.9v-12c-0.5,0.4-1,0.9-1.8,1.3c-0.7,0.4-1.4,0.8-2,1V439c1.1-0.5,2-1.1,2.8-1.8
				c0.8-0.7,1.3-1.4,1.7-2.1h1.2V450.5z"/>
			<path class="st31" d="M628.2,455c-1-1.3-1.9-2.8-2.6-4.6c-0.7-1.8-1.1-3.6-1.1-5.5c0-1.7,0.3-3.3,0.8-4.8
				c0.6-1.8,1.6-3.5,2.9-5.3h1.4c-0.8,1.5-1.4,2.5-1.7,3.1c-0.4,1-0.8,2-1,3c-0.3,1.3-0.5,2.6-0.5,3.9c0,3.4,1,6.7,3.1,10.1H628.2z"
				/>
			<path class="st31" d="M631.4,437.2v-1.8h9.9v1.5c-1,1-1.9,2.4-2.9,4.1c-1,1.7-1.7,3.5-2.2,5.3c-0.4,1.3-0.6,2.7-0.7,4.2h-1.9
				c0-1.2,0.3-2.7,0.7-4.4c0.5-1.7,1.1-3.4,2-4.9s1.8-2.9,2.7-4H631.4z"/>
		</g>
		<g>
			<path class="st31" d="M643.3,450.8l4.4-15.9h1.5l-4.4,15.9H643.3z"/>
			<path class="st31" d="M657.3,450.5h-1.9v-12c-0.5,0.4-1,0.9-1.8,1.3c-0.7,0.4-1.4,0.8-2,1V439c1.1-0.5,2-1.1,2.8-1.8
				c0.8-0.7,1.3-1.4,1.7-2.1h1.2V450.5z"/>
			<path class="st31" d="M671.9,438.9l-1.9,0.1c-0.2-0.7-0.4-1.3-0.7-1.6c-0.5-0.5-1.1-0.8-1.9-0.8c-0.6,0-1.1,0.2-1.6,0.5
				c-0.6,0.4-1.1,1.1-1.4,1.9c-0.3,0.8-0.5,2-0.5,3.5c0.5-0.7,1-1.2,1.7-1.5c0.7-0.3,1.3-0.5,2.1-0.5c1.3,0,2.3,0.5,3.2,1.4
				s1.3,2.1,1.3,3.6c0,1-0.2,1.9-0.6,2.7s-1,1.5-1.7,1.9c-0.7,0.4-1.5,0.7-2.5,0.7c-1.6,0-2.9-0.6-3.8-1.7c-1-1.2-1.5-3.1-1.5-5.7
				c0-3,0.5-5.1,1.6-6.5c1-1.2,2.2-1.8,3.9-1.8c1.2,0,2.2,0.3,3,1C671.3,436.8,671.7,437.7,671.9,438.9z M664.2,445.5
				c0,0.6,0.1,1.3,0.4,1.9c0.3,0.6,0.7,1,1.2,1.4c0.5,0.3,1,0.5,1.6,0.5c0.8,0,1.5-0.3,2.1-1c0.6-0.6,0.9-1.5,0.9-2.6
				c0-1.1-0.3-1.9-0.8-2.5c-0.6-0.6-1.3-0.9-2.1-0.9c-0.9,0-1.6,0.3-2.2,0.9C664.5,443.7,664.2,444.5,664.2,445.5z"/>
			<path class="st31" d="M674.6,440.6l-0.5-2.9v-2.5h2.1v2.5l-0.5,2.9H674.6z M678.1,440.6l-0.5-2.9v-2.5h2.1v2.5l-0.5,2.9H678.1z"
				/>
		</g>
		<g>
			<path class="st31" d="M683.4,455H682c2.1-3.3,3.1-6.7,3.1-10.1c0-1.3-0.2-2.6-0.5-3.9c-0.2-1-0.6-2.1-1-3
				c-0.3-0.6-0.8-1.7-1.7-3.1h1.4c1.3,1.8,2.3,3.5,2.9,5.3c0.5,1.5,0.8,3.1,0.8,4.8c0,1.9-0.4,3.7-1.1,5.5
				C685.3,452.2,684.4,453.7,683.4,455z"/>
		</g>
		<g>
			<path class="st31" d="M607.2,351.4V336h6.8c1.4,0,2.4,0.1,3.1,0.4c0.7,0.3,1.3,0.8,1.7,1.5s0.6,1.5,0.6,2.3c0,1.1-0.4,2-1.1,2.8
				c-0.7,0.7-1.8,1.2-3.3,1.4c0.5,0.3,0.9,0.5,1.2,0.8c0.6,0.5,1.2,1.2,1.7,2l2.7,4.2h-2.6l-2-3.2c-0.6-0.9-1.1-1.6-1.5-2.1
				c-0.4-0.5-0.7-0.8-1-1c-0.3-0.2-0.6-0.3-0.9-0.4c-0.2,0-0.6-0.1-1.1-0.1h-2.4v6.8H607.2z M609.2,342.8h4.4c0.9,0,1.7-0.1,2.2-0.3
				s0.9-0.5,1.2-0.9c0.3-0.4,0.4-0.9,0.4-1.4c0-0.7-0.3-1.3-0.8-1.8c-0.5-0.5-1.4-0.7-2.5-0.7h-4.9V342.8z"/>
			<path class="st31" d="M621.9,347.3l1.9-0.3c0.2,1.1,0.6,1.8,1.1,2.3s1.2,0.7,1.9,0.7c0.9,0,1.6-0.3,2.2-0.9
				c0.6-0.6,0.9-1.4,0.9-2.3c0-0.9-0.3-1.6-0.8-2.1c-0.6-0.6-1.3-0.8-2.2-0.8c-0.4,0-0.8,0.1-1.3,0.2l0.2-1.7c0.1,0,0.2,0,0.3,0
				c0.8,0,1.5-0.2,2.2-0.6c0.6-0.4,1-1.1,1-1.9c0-0.7-0.2-1.3-0.7-1.7s-1.1-0.7-1.8-0.7c-0.7,0-1.3,0.2-1.8,0.7
				c-0.5,0.5-0.8,1.2-0.9,2.1l-1.9-0.3c0.2-1.3,0.8-2.2,1.6-2.9s1.8-1,3-1c0.8,0,1.6,0.2,2.3,0.5c0.7,0.4,1.2,0.8,1.6,1.5
				c0.4,0.6,0.6,1.3,0.6,2c0,0.7-0.2,1.3-0.5,1.8c-0.4,0.5-0.9,1-1.6,1.3c0.9,0.2,1.6,0.6,2.1,1.3c0.5,0.7,0.8,1.5,0.8,2.5
				c0,1.3-0.5,2.5-1.5,3.4c-1,0.9-2.2,1.4-3.7,1.4c-1.3,0-2.5-0.4-3.4-1.2C622.5,349.6,622,348.6,621.9,347.3z"/>
			<path class="st31" d="M633.8,343.8c0-1.8,0.2-3.3,0.6-4.4c0.4-1.1,0.9-2,1.7-2.6c0.7-0.6,1.7-0.9,2.8-0.9c0.8,0,1.5,0.2,2.2,0.5
				s1.1,0.8,1.5,1.4c0.4,0.6,0.7,1.4,1,2.3c0.2,0.9,0.3,2.1,0.3,3.6c0,1.8-0.2,3.3-0.6,4.4c-0.4,1.1-0.9,2-1.7,2.6s-1.7,0.9-2.8,0.9
				c-1.5,0-2.6-0.5-3.5-1.6C634.3,348.8,633.8,346.7,633.8,343.8z M635.7,343.8c0,2.5,0.3,4.2,0.9,5c0.6,0.8,1.3,1.3,2.2,1.3
				s1.6-0.4,2.2-1.3c0.6-0.8,0.9-2.5,0.9-5c0-2.5-0.3-4.2-0.9-5c-0.6-0.8-1.3-1.2-2.2-1.2c-0.9,0-1.6,0.4-2.1,1.1
				C636,339.5,635.7,341.3,635.7,343.8z"/>
			<path class="st31" d="M651.7,351.4v-3.7h-6.7V346l7-9.9h1.5v9.9h2.1v1.7h-2.1v3.7H651.7z M651.7,346V339l-4.8,6.9H651.7z"/>
			<path class="st31" d="M658.7,351.4v-2.1h2.1v2.1H658.7z"/>
		</g>
		<g>
			<path class="st31" d="M666.5,343c-0.8-0.3-1.4-0.7-1.7-1.2s-0.6-1.2-0.6-1.9c0-1.1,0.4-2.1,1.2-2.8c0.8-0.8,1.9-1.1,3.2-1.1
				c1.3,0,2.4,0.4,3.2,1.2c0.8,0.8,1.2,1.7,1.2,2.8c0,0.7-0.2,1.3-0.6,1.9c-0.4,0.5-0.9,0.9-1.7,1.2c0.9,0.3,1.7,0.8,2.2,1.5
				c0.5,0.7,0.7,1.5,0.7,2.4c0,1.3-0.5,2.4-1.4,3.3c-0.9,0.9-2.1,1.3-3.7,1.3c-1.5,0-2.7-0.4-3.7-1.3c-0.9-0.9-1.4-2-1.4-3.4
				c0-1,0.3-1.8,0.8-2.5C664.8,343.7,665.5,343.3,666.5,343z M665.5,346.9c0,0.5,0.1,1.1,0.4,1.6s0.6,0.9,1.1,1.2
				c0.5,0.3,1,0.4,1.6,0.4c0.9,0,1.6-0.3,2.2-0.9c0.6-0.6,0.9-1.3,0.9-2.2c0-0.9-0.3-1.7-0.9-2.3c-0.6-0.6-1.4-0.9-2.3-0.9
				c-0.9,0-1.6,0.3-2.2,0.9C665.8,345.3,665.5,346.1,665.5,346.9z M666.1,339.8c0,0.7,0.2,1.3,0.7,1.8c0.5,0.5,1.1,0.7,1.8,0.7
				c0.7,0,1.3-0.2,1.8-0.7s0.7-1,0.7-1.7c0-0.7-0.2-1.3-0.7-1.7c-0.5-0.5-1.1-0.7-1.8-0.7c-0.7,0-1.3,0.2-1.8,0.7
				C666.3,338.7,666.1,339.2,666.1,339.8z"/>
		</g>
		<g>
			<path class="st31" d="M332.9,185.9v-15.3h6.8c1.4,0,2.4,0.1,3.1,0.4c0.7,0.3,1.3,0.8,1.7,1.5s0.6,1.5,0.6,2.3
				c0,1.1-0.4,2-1.1,2.8c-0.7,0.7-1.8,1.2-3.3,1.4c0.5,0.3,0.9,0.5,1.2,0.8c0.6,0.5,1.2,1.2,1.7,2l2.7,4.2h-2.6l-2-3.2
				c-0.6-0.9-1.1-1.6-1.5-2.1c-0.4-0.5-0.7-0.8-1-1c-0.3-0.2-0.6-0.3-0.9-0.4c-0.2,0-0.6-0.1-1.1-0.1h-2.4v6.8H332.9z M334.9,177.3
				h4.4c0.9,0,1.7-0.1,2.2-0.3s0.9-0.5,1.2-0.9c0.3-0.4,0.4-0.9,0.4-1.4c0-0.7-0.3-1.3-0.8-1.8c-0.5-0.5-1.4-0.7-2.5-0.7h-4.9V177.3
				z"/>
			<path class="st31" d="M347.6,181.9l1.9-0.3c0.2,1.1,0.6,1.8,1.1,2.3s1.2,0.7,1.9,0.7c0.9,0,1.6-0.3,2.2-0.9
				c0.6-0.6,0.9-1.4,0.9-2.3c0-0.9-0.3-1.6-0.8-2.1c-0.6-0.6-1.3-0.8-2.2-0.8c-0.4,0-0.8,0.1-1.3,0.2l0.2-1.7c0.1,0,0.2,0,0.3,0
				c0.8,0,1.5-0.2,2.2-0.6c0.6-0.4,1-1.1,1-1.9c0-0.7-0.2-1.3-0.7-1.7s-1.1-0.7-1.8-0.7c-0.7,0-1.3,0.2-1.8,0.7
				c-0.5,0.5-0.8,1.2-0.9,2.1l-1.9-0.3c0.2-1.3,0.8-2.2,1.6-2.9s1.8-1,3-1c0.8,0,1.6,0.2,2.3,0.5c0.7,0.4,1.2,0.8,1.6,1.5
				c0.4,0.6,0.6,1.3,0.6,2c0,0.7-0.2,1.3-0.5,1.8c-0.4,0.5-0.9,1-1.6,1.3c0.9,0.2,1.6,0.6,2.1,1.3c0.5,0.7,0.8,1.5,0.8,2.5
				c0,1.3-0.5,2.5-1.5,3.4c-1,0.9-2.2,1.4-3.7,1.4c-1.3,0-2.5-0.4-3.4-1.2C348.2,184.2,347.7,183.1,347.6,181.9z"/>
			<path class="st31" d="M359.5,178.3c0-1.8,0.2-3.3,0.6-4.4c0.4-1.1,0.9-2,1.7-2.6c0.7-0.6,1.7-0.9,2.8-0.9c0.8,0,1.5,0.2,2.2,0.5
				s1.1,0.8,1.5,1.4c0.4,0.6,0.7,1.4,1,2.3c0.2,0.9,0.3,2.1,0.3,3.6c0,1.8-0.2,3.3-0.6,4.4c-0.4,1.1-0.9,2-1.7,2.6s-1.7,0.9-2.8,0.9
				c-1.5,0-2.6-0.5-3.5-1.6C360,183.3,359.5,181.2,359.5,178.3z M361.5,178.3c0,2.5,0.3,4.2,0.9,5c0.6,0.8,1.3,1.3,2.2,1.3
				s1.6-0.4,2.2-1.3c0.6-0.8,0.9-2.5,0.9-5c0-2.5-0.3-4.2-0.9-5c-0.6-0.8-1.3-1.2-2.2-1.2c-0.9,0-1.6,0.4-2.1,1.1
				C361.8,174.1,361.5,175.8,361.5,178.3z"/>
			<path class="st31" d="M377.5,185.9v-3.7h-6.7v-1.7l7-9.9h1.5v9.9h2.1v1.7h-2.1v3.7H377.5z M377.5,180.5v-6.9l-4.8,6.9H377.5z"/>
			<path class="st31" d="M384.4,185.9v-2.1h2.1v2.1H384.4z"/>
		</g>
		<g>
			<path class="st31" d="M392.2,177.6c-0.8-0.3-1.4-0.7-1.7-1.2s-0.6-1.2-0.6-1.9c0-1.1,0.4-2.1,1.2-2.8c0.8-0.8,1.9-1.1,3.2-1.1
				c1.3,0,2.4,0.4,3.2,1.2c0.8,0.8,1.2,1.7,1.2,2.8c0,0.7-0.2,1.3-0.6,1.9c-0.4,0.5-0.9,0.9-1.7,1.2c0.9,0.3,1.7,0.8,2.2,1.5
				c0.5,0.7,0.7,1.5,0.7,2.4c0,1.3-0.5,2.4-1.4,3.3c-0.9,0.9-2.1,1.3-3.7,1.3c-1.5,0-2.7-0.4-3.7-1.3c-0.9-0.9-1.4-2-1.4-3.4
				c0-1,0.3-1.8,0.8-2.5C390.6,178.3,391.3,177.8,392.2,177.6z M391.2,181.5c0,0.5,0.1,1.1,0.4,1.6s0.6,0.9,1.1,1.2
				c0.5,0.3,1,0.4,1.6,0.4c0.9,0,1.6-0.3,2.2-0.9c0.6-0.6,0.9-1.3,0.9-2.2c0-0.9-0.3-1.7-0.9-2.3c-0.6-0.6-1.4-0.9-2.3-0.9
				c-0.9,0-1.6,0.3-2.2,0.9C391.5,179.9,391.2,180.6,391.2,181.5z M391.8,174.4c0,0.7,0.2,1.3,0.7,1.8c0.5,0.5,1.1,0.7,1.8,0.7
				c0.7,0,1.3-0.2,1.8-0.7s0.7-1,0.7-1.7c0-0.7-0.2-1.3-0.7-1.7c-0.5-0.5-1.1-0.7-1.8-0.7c-0.7,0-1.3,0.2-1.8,0.7
				C392.1,173.2,391.8,173.8,391.8,174.4z"/>
		</g>
		<g>
			<path class="st31" d="M757.8,303.9v-15.3h6.8c1.4,0,2.4,0.1,3.1,0.4c0.7,0.3,1.3,0.8,1.7,1.5s0.6,1.5,0.6,2.3
				c0,1.1-0.4,2-1.1,2.8c-0.7,0.7-1.8,1.2-3.3,1.4c0.5,0.3,0.9,0.5,1.2,0.8c0.6,0.5,1.2,1.2,1.7,2l2.7,4.2h-2.6l-2-3.2
				c-0.6-0.9-1.1-1.6-1.5-2.1c-0.4-0.5-0.7-0.8-1-1c-0.3-0.2-0.6-0.3-0.9-0.4c-0.2,0-0.6-0.1-1.1-0.1h-2.4v6.8H757.8z M759.9,295.4
				h4.4c0.9,0,1.7-0.1,2.2-0.3s0.9-0.5,1.2-0.9c0.3-0.4,0.4-0.9,0.4-1.4c0-0.7-0.3-1.3-0.8-1.8c-0.5-0.5-1.4-0.7-2.5-0.7h-4.9V295.4
				z"/>
			<path class="st31" d="M779.6,303.9h-1.9v-12c-0.5,0.4-1,0.9-1.8,1.3c-0.7,0.4-1.4,0.8-2,1v-1.8c1.1-0.5,2-1.1,2.8-1.8
				c0.8-0.7,1.3-1.4,1.7-2.1h1.2V303.9z"/>
			<path class="st31" d="M785.5,303.9v-2.1h2.1v2.1H785.5z"/>
			<path class="st31" d="M790.4,299.9l2-0.2c0.1,1,0.5,1.7,1,2.2c0.5,0.5,1.2,0.7,1.9,0.7c0.9,0,1.7-0.3,2.3-1
				c0.6-0.7,0.9-1.6,0.9-2.7c0-1.1-0.3-1.9-0.9-2.5s-1.4-0.9-2.4-0.9c-0.6,0-1.2,0.1-1.6,0.4c-0.5,0.3-0.9,0.6-1.2,1.1l-1.8-0.2
				l1.5-7.9h7.6v1.8h-6.1l-0.8,4.1c0.9-0.6,1.9-1,2.9-1c1.3,0,2.5,0.5,3.4,1.4s1.4,2.1,1.4,3.6c0,1.4-0.4,2.6-1.2,3.6
				c-1,1.2-2.3,1.9-4,1.9c-1.4,0-2.5-0.4-3.4-1.2S790.5,301.2,790.4,299.9z"/>
			<path class="st31" d="M802.6,300.4l1.8-0.2c0.2,0.9,0.4,1.5,0.9,1.9s1,0.6,1.7,0.6c0.6,0,1.1-0.1,1.5-0.4s0.8-0.6,1.1-1.1
				c0.3-0.4,0.5-1,0.7-1.8c0.2-0.8,0.3-1.5,0.3-2.3c0-0.1,0-0.2,0-0.4c-0.4,0.6-0.9,1.1-1.5,1.5c-0.7,0.4-1.4,0.6-2.1,0.6
				c-1.3,0-2.3-0.5-3.2-1.4c-0.9-0.9-1.3-2.1-1.3-3.6c0-1.6,0.5-2.8,1.4-3.8c0.9-0.9,2.1-1.4,3.4-1.4c1,0,1.9,0.3,2.7,0.8
				c0.8,0.5,1.5,1.3,1.9,2.3c0.4,1,0.6,2.4,0.6,4.3c0,2-0.2,3.5-0.6,4.7c-0.4,1.2-1.1,2-1.9,2.7c-0.8,0.6-1.8,0.9-3,0.9
				c-1.2,0-2.2-0.3-2.9-1C803.2,302.5,802.8,301.6,802.6,300.4z M810.3,293.6c0-1.1-0.3-1.9-0.9-2.6c-0.6-0.6-1.3-1-2.1-1
				c-0.8,0-1.6,0.3-2.2,1s-0.9,1.6-0.9,2.7c0,1,0.3,1.8,0.9,2.4c0.6,0.6,1.3,0.9,2.2,0.9c0.9,0,1.6-0.3,2.2-0.9
				C810,295.5,810.3,294.7,810.3,293.6z"/>
			<path class="st31" d="M824.3,308.5c-1-1.3-1.9-2.8-2.6-4.6c-0.7-1.8-1.1-3.6-1.1-5.5c0-1.7,0.3-3.3,0.8-4.8
				c0.6-1.8,1.6-3.5,2.9-5.3h1.4c-0.8,1.5-1.4,2.5-1.7,3.1c-0.4,1-0.8,2-1,3c-0.3,1.3-0.5,2.6-0.5,3.9c0,3.4,1,6.7,3.1,10.1H824.3z"
				/>
			<path class="st31" d="M834.4,303.9h-1.9v-12c-0.5,0.4-1,0.9-1.8,1.3c-0.7,0.4-1.4,0.8-2,1v-1.8c1.1-0.5,2-1.1,2.8-1.8
				c0.8-0.7,1.3-1.4,1.7-2.1h1.2V303.9z"/>
		</g>
		<g>
			<path class="st31" d="M839.4,304.2l4.4-15.9h1.5l-4.4,15.9H839.4z"/>
			<path class="st31" d="M853.4,303.9h-1.9v-12c-0.5,0.4-1,0.9-1.8,1.3c-0.7,0.4-1.4,0.8-2,1v-1.8c1.1-0.5,2-1.1,2.8-1.8
				c0.8-0.7,1.3-1.4,1.7-2.1h1.2V303.9z"/>
			<path class="st31" d="M868,292.4l-1.9,0.1c-0.2-0.7-0.4-1.3-0.7-1.6c-0.5-0.5-1.1-0.8-1.9-0.8c-0.6,0-1.1,0.2-1.6,0.5
				c-0.6,0.4-1.1,1.1-1.4,1.9c-0.3,0.8-0.5,2-0.5,3.5c0.5-0.7,1-1.2,1.7-1.5c0.7-0.3,1.3-0.5,2.1-0.5c1.3,0,2.3,0.5,3.2,1.4
				c0.9,0.9,1.3,2.1,1.3,3.6c0,1-0.2,1.9-0.6,2.7c-0.4,0.8-1,1.5-1.7,1.9c-0.7,0.4-1.5,0.7-2.5,0.7c-1.6,0-2.9-0.6-3.8-1.7
				c-1-1.2-1.5-3.1-1.5-5.7c0-3,0.5-5.1,1.6-6.5c1-1.2,2.2-1.8,3.9-1.8c1.2,0,2.2,0.3,3,1C867.4,290.2,867.8,291.2,868,292.4z
				 M860.3,299c0,0.6,0.1,1.3,0.4,1.9c0.3,0.6,0.7,1,1.2,1.4c0.5,0.3,1,0.5,1.6,0.5c0.8,0,1.5-0.3,2.1-1s0.9-1.5,0.9-2.6
				c0-1.1-0.3-1.9-0.8-2.5c-0.6-0.6-1.3-0.9-2.1-0.9c-0.9,0-1.6,0.3-2.2,0.9C860.6,297.2,860.3,298,860.3,299z"/>
			<path class="st31" d="M870.8,294l-0.5-2.9v-2.5h2.1v2.5l-0.5,2.9H870.8z M874.2,294l-0.5-2.9v-2.5h2.1v2.5l-0.5,2.9H874.2z"/>
			<path class="st31" d="M879.5,308.5h-1.4c2.1-3.3,3.1-6.7,3.1-10.1c0-1.3-0.2-2.6-0.5-3.9c-0.2-1-0.6-2.1-1-3
				c-0.3-0.6-0.8-1.7-1.7-3.1h1.4c1.3,1.8,2.3,3.5,2.9,5.3c0.5,1.5,0.8,3.1,0.8,4.8c0,1.9-0.4,3.7-1.1,5.5
				C881.4,305.6,880.5,307.1,879.5,308.5z"/>
		</g>
		<g>
			<path class="st31" d="M550.2,208.2l-11.9-9.7l4.3-5.3c0.9-1.1,1.6-1.8,2.3-2.2c0.7-0.4,1.4-0.5,2.2-0.4c0.8,0.1,1.5,0.4,2.2,1
				c0.8,0.7,1.3,1.5,1.5,2.6c0.1,1-0.2,2.2-1,3.4c0.5-0.3,1-0.4,1.4-0.5c0.8-0.1,1.7-0.1,2.6,0l4.9,0.6l-1.6,2l-3.8-0.5
				c-1.1-0.1-1.9-0.2-2.6-0.2c-0.6,0-1.1,0-1.4,0.1c-0.3,0.1-0.6,0.3-0.9,0.5c-0.2,0.1-0.4,0.4-0.8,0.8l-1.5,1.8l5.3,4.3
				L550.2,208.2z M544.8,201.2l2.8-3.4c0.6-0.7,1-1.3,1.2-1.9c0.2-0.5,0.2-1,0-1.5s-0.4-0.9-0.8-1.2c-0.6-0.5-1.2-0.6-1.9-0.5
				c-0.7,0.1-1.4,0.6-2.1,1.5l-3.1,3.8L544.8,201.2z"/>
			<path class="st31" d="M549.3,188.3l-1.4-1.1l6.3-7.7l1.1,0.9c0.2,1.4,0.6,3,1.4,4.9c0.7,1.8,1.6,3.5,2.7,5.1
				c0.8,1.1,1.7,2.2,2.8,3.2l-1.2,1.5c-0.9-0.8-1.9-1.9-2.9-3.3c-1-1.4-1.9-3-2.6-4.6c-0.7-1.7-1.2-3.2-1.4-4.6L549.3,188.3z"/>
			<path class="st31" d="M567.7,186.8l-1.7-1.4l1.4-1.7l1.7,1.4L567.7,186.8z"/>
			<path class="st31" d="M568.3,180.6l1-1.5c0.8,0.4,1.4,0.6,2,0.5c0.6-0.1,1.1-0.4,1.5-0.9c0.4-0.4,0.6-0.9,0.7-1.4
				c0.1-0.5,0-1-0.1-1.5c-0.2-0.5-0.5-1.1-0.9-1.7c-0.5-0.6-1-1.2-1.6-1.7c-0.1-0.1-0.2-0.1-0.3-0.2c0.2,0.7,0.3,1.4,0.2,2.1
				c-0.1,0.7-0.4,1.4-0.9,2c-0.8,1-1.8,1.5-3.1,1.6c-1.3,0.1-2.5-0.3-3.7-1.3c-1.2-1-1.9-2.1-2-3.4c-0.2-1.3,0.2-2.5,1.1-3.6
				c0.6-0.8,1.4-1.3,2.4-1.6c0.9-0.3,1.9-0.3,3,0c1,0.3,2.3,1,3.7,2.2c1.5,1.2,2.6,2.4,3.2,3.5c0.6,1.1,0.9,2.1,0.8,3.2
				c-0.1,1-0.5,2-1.2,2.9c-0.8,0.9-1.6,1.5-2.6,1.6C570.3,181.5,569.3,181.2,568.3,180.6z M567.9,170.3c-0.8-0.7-1.7-1-2.5-1
				c-0.9,0-1.5,0.4-2.1,1c-0.5,0.6-0.7,1.4-0.6,2.3c0.1,0.9,0.6,1.7,1.5,2.4c0.8,0.6,1.6,0.9,2.4,0.8c0.8-0.1,1.5-0.4,2.1-1.1
				c0.6-0.7,0.8-1.4,0.7-2.2C569.2,171.8,568.7,171,567.9,170.3z"/>
			<path class="st31" d="M582.2,169.1l-2.8-2.3l-4.2,5.1l-1.3-1.1l-3.3-11.7l1-1.2l7.7,6.3l1.3-1.6l1.3,1.1l-1.3,1.6l2.8,2.3
				L582.2,169.1z M578,165.7l-5.4-4.4l2.3,8.1L578,165.7z"/>
		</g>
		<g>
			<path class="st31" d="M595.8,159.7c-1.7,0-3.4-0.3-5.2-0.9c-1.8-0.6-3.5-1.4-4.9-2.6c-1.3-1.1-2.3-2.3-3.2-3.6
				c-1-1.6-1.7-3.5-2.2-5.6l0.9-1c0.6,1.6,1,2.7,1.3,3.3c0.5,0.9,1,1.8,1.7,2.7c0.8,1.1,1.7,2,2.8,2.8c2.6,2.1,5.9,3.4,9.8,4
				L595.8,159.7z"/>
			<path class="st31" d="M591.1,151.9l1.1-1.6c0.8,0.5,1.6,0.7,2.3,0.6c0.7-0.1,1.3-0.4,1.8-1c0.6-0.7,0.8-1.5,0.7-2.4
				c-0.1-0.9-0.6-1.7-1.5-2.5c-0.8-0.7-1.7-1-2.5-0.9c-0.9,0.1-1.6,0.5-2.2,1.2c-0.4,0.5-0.6,1-0.7,1.5s-0.1,1.1,0.1,1.6l-1.3,1.2
				l-5.2-6.1l4.8-5.9l1.4,1.1l-3.9,4.7l2.7,3.3c0.1-1.1,0.5-2.1,1.1-2.9c0.8-1,1.9-1.6,3.2-1.7c1.3-0.1,2.5,0.3,3.6,1.2
				c1.1,0.9,1.7,2,2,3.2c0.3,1.5,0,3-1.1,4.3c-0.9,1.1-1.9,1.7-3.1,1.9C593.3,152.9,592.2,152.6,591.1,151.9z"/>
		</g>
		<g>
			<path class="st31" d="M602.1,145.3l-9.5-13.5l1-1.2l9.5,13.5L602.1,145.3z"/>
			<path class="st31" d="M610.7,134.3l-1.2,1.5l-9.3-7.6c0,0.6,0,1.4-0.1,2.2c-0.1,0.8-0.3,1.6-0.5,2.2l-1.4-1.2
				c0.3-1.1,0.4-2.2,0.4-3.3c0-1.1-0.2-1.9-0.5-2.6l0.8-0.9L610.7,134.3z"/>
			<path class="st31" d="M611,115.7l-1.1,1.5c-0.7-0.3-1.2-0.5-1.7-0.5c-0.7,0.1-1.3,0.4-1.8,0.9c-0.4,0.5-0.6,1-0.6,1.5
				c0,0.7,0.1,1.5,0.6,2.3c0.4,0.8,1.2,1.7,2.4,2.7c-0.2-0.8-0.3-1.5-0.1-2.3c0.2-0.7,0.5-1.4,0.9-1.9c0.8-1,1.8-1.5,3.1-1.6
				c1.3-0.1,2.5,0.3,3.6,1.2c0.7,0.6,1.3,1.3,1.7,2.2c0.4,0.8,0.5,1.7,0.4,2.5c-0.1,0.8-0.5,1.6-1.1,2.3c-1,1.2-2.3,1.8-3.8,1.9
				c-1.5,0-3.3-0.8-5.4-2.5c-2.3-1.9-3.6-3.7-4-5.4c-0.3-1.5,0.1-2.9,1.1-4.1c0.8-0.9,1.7-1.5,2.7-1.7C609,114.8,610,115,611,115.7z
				 M611.3,125.8c0.5,0.4,1.1,0.7,1.7,0.9c0.6,0.2,1.2,0.2,1.8,0c0.6-0.2,1-0.5,1.3-0.9c0.5-0.6,0.7-1.3,0.6-2.2
				c-0.1-0.8-0.6-1.6-1.5-2.3c-0.8-0.7-1.6-1-2.5-0.9c-0.8,0-1.5,0.4-2.1,1.1c-0.5,0.7-0.8,1.4-0.7,2.3
				C610.1,124.5,610.5,125.2,611.3,125.8z"/>
			<path class="st31" d="M614.1,114.6l-2.6-1.4l-1.9-1.6l1.4-1.7l1.9,1.6l2,2.2L614.1,114.6z M616.3,111.9l-2.6-1.5l-1.9-1.6
				l1.4-1.7l1.9,1.6l1.9,2.2L616.3,111.9z"/>
			<path class="st31" d="M630.8,117l-0.9,1c-1.3-3.7-3.2-6.7-5.8-8.8c-1-0.8-2.1-1.5-3.3-2.1c-1-0.5-1.9-0.9-3-1.1
				c-0.7-0.2-1.8-0.4-3.5-0.7l0.9-1c2.2,0.1,4.2,0.5,5.9,1.1c1.5,0.5,2.9,1.3,4.2,2.4c1.5,1.2,2.6,2.6,3.5,4.3
				C629.8,113.7,630.4,115.3,630.8,117z"/>
		</g>
		<g>
			<path class="st31" d="M173.9,339.5v-15.3h6.8c1.4,0,2.4,0.1,3.1,0.4c0.7,0.3,1.3,0.8,1.7,1.5s0.6,1.5,0.6,2.3
				c0,1.1-0.4,2-1.1,2.8c-0.7,0.7-1.8,1.2-3.3,1.4c0.5,0.3,0.9,0.5,1.2,0.8c0.6,0.5,1.2,1.2,1.7,2l2.7,4.2h-2.6l-2-3.2
				c-0.6-0.9-1.1-1.6-1.5-2.1c-0.4-0.5-0.7-0.8-1-1c-0.3-0.2-0.6-0.3-0.9-0.4c-0.2,0-0.6-0.1-1.1-0.1h-2.4v6.8H173.9z M175.9,331
				h4.4c0.9,0,1.7-0.1,2.2-0.3s0.9-0.5,1.2-0.9c0.3-0.4,0.4-0.9,0.4-1.4c0-0.7-0.3-1.3-0.8-1.8c-0.5-0.5-1.4-0.7-2.5-0.7h-4.9V331z"
				/>
			<path class="st31" d="M198.4,328l-1.9,0.1c-0.2-0.7-0.4-1.3-0.7-1.6c-0.5-0.5-1.1-0.8-1.9-0.8c-0.6,0-1.1,0.2-1.6,0.5
				c-0.6,0.4-1.1,1.1-1.4,1.9c-0.3,0.8-0.5,2-0.5,3.5c0.5-0.7,1-1.2,1.7-1.5c0.7-0.3,1.3-0.5,2.1-0.5c1.3,0,2.3,0.5,3.2,1.4
				c0.9,0.9,1.3,2.1,1.3,3.6c0,1-0.2,1.9-0.6,2.7c-0.4,0.8-1,1.5-1.7,1.9c-0.7,0.4-1.5,0.7-2.5,0.7c-1.6,0-2.9-0.6-3.8-1.7
				c-1-1.2-1.5-3.1-1.5-5.7c0-3,0.5-5.1,1.6-6.5c1-1.2,2.2-1.8,3.9-1.8c1.2,0,2.2,0.3,3,1C197.7,325.8,198.2,326.8,198.4,328z
				 M190.7,334.6c0,0.6,0.1,1.3,0.4,1.9c0.3,0.6,0.7,1,1.2,1.4c0.5,0.3,1,0.5,1.6,0.5c0.8,0,1.5-0.3,2.1-1s0.9-1.5,0.9-2.6
				c0-1.1-0.3-1.9-0.8-2.5c-0.6-0.6-1.3-0.9-2.1-0.9c-0.9,0-1.6,0.3-2.2,0.9C191,332.8,190.7,333.6,190.7,334.6z"/>
			<path class="st31" d="M201.6,339.5v-2.1h2.1v2.1H201.6z"/>
			<path class="st31" d="M206.5,335.5l1.9-0.3c0.2,1.1,0.6,1.8,1.1,2.3s1.2,0.7,1.9,0.7c0.9,0,1.6-0.3,2.2-0.9
				c0.6-0.6,0.9-1.4,0.9-2.3c0-0.9-0.3-1.6-0.8-2.1c-0.6-0.6-1.3-0.8-2.2-0.8c-0.4,0-0.8,0.1-1.3,0.2l0.2-1.7c0.1,0,0.2,0,0.3,0
				c0.8,0,1.5-0.2,2.2-0.6c0.6-0.4,1-1.1,1-1.9c0-0.7-0.2-1.3-0.7-1.7s-1.1-0.7-1.8-0.7c-0.7,0-1.3,0.2-1.8,0.7
				c-0.5,0.5-0.8,1.2-0.9,2.1l-1.9-0.3c0.2-1.3,0.8-2.2,1.6-2.9s1.8-1,3-1c0.8,0,1.6,0.2,2.3,0.5c0.7,0.4,1.2,0.8,1.6,1.5
				c0.4,0.6,0.6,1.3,0.6,2c0,0.7-0.2,1.3-0.5,1.8c-0.4,0.5-0.9,1-1.6,1.3c0.9,0.2,1.6,0.6,2.1,1.3c0.5,0.7,0.8,1.5,0.8,2.5
				c0,1.3-0.5,2.5-1.5,3.4c-1,0.9-2.2,1.4-3.7,1.4c-1.3,0-2.5-0.4-3.4-1.2C207.1,337.8,206.6,336.8,206.5,335.5z"/>
			<path class="st31" d="M218.4,335.5l2-0.2c0.1,1,0.5,1.7,1,2.2c0.5,0.5,1.2,0.7,1.9,0.7c0.9,0,1.7-0.3,2.3-1
				c0.6-0.7,0.9-1.6,0.9-2.7c0-1.1-0.3-1.9-0.9-2.5s-1.4-0.9-2.4-0.9c-0.6,0-1.2,0.1-1.6,0.4c-0.5,0.3-0.9,0.6-1.2,1.1l-1.8-0.2
				l1.5-7.9h7.6v1.8h-6.1l-0.8,4.1c0.9-0.6,1.9-1,2.9-1c1.3,0,2.5,0.5,3.4,1.4s1.4,2.1,1.4,3.6c0,1.4-0.4,2.6-1.2,3.6
				c-1,1.2-2.3,1.9-4,1.9c-1.4,0-2.5-0.4-3.4-1.2S218.5,336.8,218.4,335.5z"/>
			<path class="st31" d="M240.4,344.1c-1-1.3-1.9-2.8-2.6-4.6c-0.7-1.8-1.1-3.6-1.1-5.5c0-1.7,0.3-3.3,0.8-4.8
				c0.6-1.8,1.6-3.5,2.9-5.3h1.4c-0.8,1.5-1.4,2.5-1.7,3.1c-0.4,1-0.8,2-1,3c-0.3,1.3-0.5,2.6-0.5,3.9c0,3.4,1,6.7,3.1,10.1H240.4z"
				/>
			<path class="st31" d="M250.5,339.5h-1.9v-12c-0.5,0.4-1,0.9-1.8,1.3c-0.7,0.4-1.4,0.8-2,1V328c1.1-0.5,2-1.1,2.8-1.8
				c0.8-0.7,1.3-1.4,1.7-2.1h1.2V339.5z"/>
		</g>
		<g>
			<path class="st31" d="M255.5,339.8l4.4-15.9h1.5l-4.4,15.9H255.5z"/>
			<path class="st31" d="M268.4,339.5v-3.7h-6.7v-1.7l7-9.9h1.5v9.9h2.1v1.7h-2.1v3.7H268.4z M268.4,334.1v-6.9l-4.8,6.9H268.4z"/>
			<path class="st31" d="M274.9,329.6l-0.5-2.9v-2.5h2.1v2.5l-0.5,2.9H274.9z M278.3,329.6l-0.5-2.9v-2.5h2.1v2.5l-0.5,2.9H278.3z"
				/>
			<path class="st31" d="M283.6,344.1h-1.4c2.1-3.3,3.1-6.7,3.1-10.1c0-1.3-0.2-2.6-0.5-3.9c-0.2-1-0.6-2.1-1-3
				c-0.3-0.6-0.8-1.7-1.7-3.1h1.4c1.3,1.8,2.3,3.5,2.9,5.3c0.5,1.5,0.8,3.1,0.8,4.8c0,1.9-0.4,3.7-1.1,5.5
				C285.5,341.2,284.7,342.7,283.6,344.1z"/>
		</g>
		<g>
			<path class="st31" d="M425.5,16.3l2-0.2c0.1,1,0.5,1.7,1,2.2c0.5,0.5,1.2,0.7,1.9,0.7c0.9,0,1.7-0.3,2.3-1
				c0.6-0.7,0.9-1.6,0.9-2.7c0-1.1-0.3-1.9-0.9-2.5s-1.4-0.9-2.4-0.9c-0.6,0-1.2,0.1-1.6,0.4c-0.5,0.3-0.9,0.6-1.2,1.1l-1.8-0.2
				l1.5-7.9h7.6V7h-6.1l-0.8,4.1c0.9-0.6,1.9-1,2.9-1c1.3,0,2.5,0.5,3.4,1.4s1.4,2.1,1.4,3.6c0,1.4-0.4,2.6-1.2,3.6
				c-1,1.2-2.3,1.9-4,1.9c-1.4,0-2.5-0.4-3.4-1.2S425.6,17.6,425.5,16.3z"/>
			<path class="st31" d="M437.4,16.2l1.9-0.3c0.2,1.1,0.6,1.8,1.1,2.3s1.2,0.7,1.9,0.7c0.9,0,1.6-0.3,2.2-0.9
				c0.6-0.6,0.9-1.4,0.9-2.3c0-0.9-0.3-1.6-0.8-2.1c-0.6-0.6-1.3-0.8-2.2-0.8c-0.4,0-0.8,0.1-1.3,0.2l0.2-1.7c0.1,0,0.2,0,0.3,0
				c0.8,0,1.5-0.2,2.2-0.6c0.6-0.4,1-1.1,1-1.9c0-0.7-0.2-1.3-0.7-1.7s-1.1-0.7-1.8-0.7c-0.7,0-1.3,0.2-1.8,0.7
				c-0.5,0.5-0.8,1.2-0.9,2.1l-1.9-0.3c0.2-1.3,0.8-2.2,1.6-2.9s1.8-1,3-1c0.8,0,1.6,0.2,2.3,0.5c0.7,0.4,1.2,0.8,1.6,1.5
				c0.4,0.6,0.6,1.3,0.6,2c0,0.7-0.2,1.3-0.5,1.8c-0.4,0.5-0.9,1-1.6,1.3c0.9,0.2,1.6,0.6,2.1,1.3c0.5,0.7,0.8,1.5,0.8,2.5
				c0,1.3-0.5,2.5-1.5,3.4c-1,0.9-2.2,1.4-3.7,1.4c-1.3,0-2.5-0.4-3.4-1.2C438.1,18.6,437.6,17.5,437.4,16.2z"/>
			<path class="st31" d="M450.4,20.3v-2.1h2.1v2.1H450.4z"/>
			<path class="st31" d="M455.6,16.7l1.8-0.2c0.2,0.9,0.4,1.5,0.9,1.9s1,0.6,1.7,0.6c0.6,0,1.1-0.1,1.5-0.4s0.8-0.6,1.1-1.1
				c0.3-0.4,0.5-1,0.7-1.8c0.2-0.8,0.3-1.5,0.3-2.3c0-0.1,0-0.2,0-0.4c-0.4,0.6-0.9,1.1-1.5,1.5c-0.7,0.4-1.4,0.6-2.1,0.6
				c-1.3,0-2.3-0.5-3.2-1.4c-0.9-0.9-1.3-2.1-1.3-3.6c0-1.6,0.5-2.8,1.4-3.8c0.9-0.9,2.1-1.4,3.4-1.4c1,0,1.9,0.3,2.7,0.8
				c0.8,0.5,1.5,1.3,1.9,2.3c0.4,1,0.6,2.4,0.6,4.3c0,2-0.2,3.5-0.6,4.7c-0.4,1.2-1.1,2-1.9,2.7c-0.8,0.6-1.8,0.9-3,0.9
				c-1.2,0-2.2-0.3-2.9-1C456.2,18.9,455.7,17.9,455.6,16.7z M463.3,10c0-1.1-0.3-1.9-0.9-2.6c-0.6-0.6-1.3-1-2.1-1
				c-0.8,0-1.6,0.3-2.2,1s-0.9,1.6-0.9,2.7c0,1,0.3,1.8,0.9,2.4c0.6,0.6,1.3,0.9,2.2,0.9c0.9,0,1.6-0.3,2.2-0.9
				C463,11.9,463.3,11,463.3,10z"/>
			<path class="st31" d="M470.1,12c-0.8-0.3-1.4-0.7-1.7-1.2s-0.6-1.2-0.6-1.9c0-1.1,0.4-2.1,1.2-2.8c0.8-0.8,1.9-1.1,3.2-1.1
				c1.3,0,2.4,0.4,3.2,1.2c0.8,0.8,1.2,1.7,1.2,2.8c0,0.7-0.2,1.3-0.6,1.9c-0.4,0.5-0.9,0.9-1.7,1.2c0.9,0.3,1.7,0.8,2.2,1.5
				c0.5,0.7,0.7,1.5,0.7,2.4c0,1.3-0.5,2.4-1.4,3.3c-0.9,0.9-2.1,1.3-3.7,1.3c-1.5,0-2.7-0.4-3.7-1.3c-0.9-0.9-1.4-2-1.4-3.4
				c0-1,0.3-1.8,0.8-2.5C468.5,12.7,469.2,12.2,470.1,12z M469.1,15.9c0,0.5,0.1,1.1,0.4,1.6s0.6,0.9,1.1,1.2c0.5,0.3,1,0.4,1.6,0.4
				c0.9,0,1.6-0.3,2.2-0.9c0.6-0.6,0.9-1.3,0.9-2.2c0-0.9-0.3-1.7-0.9-2.3c-0.6-0.6-1.4-0.9-2.3-0.9c-0.9,0-1.6,0.3-2.2,0.9
				C469.4,14.2,469.1,15,469.1,15.9z M469.7,8.8c0,0.7,0.2,1.3,0.7,1.8c0.5,0.5,1.1,0.7,1.8,0.7c0.7,0,1.3-0.2,1.8-0.7
				s0.7-1,0.7-1.7c0-0.7-0.2-1.3-0.7-1.7c-0.5-0.5-1.1-0.7-1.8-0.7c-0.7,0-1.3,0.2-1.8,0.7C470,7.6,469.7,8.1,469.7,8.8z"/>
			<path class="st31" d="M489.2,24.8c-1-1.3-1.9-2.8-2.6-4.6c-0.7-1.8-1.1-3.6-1.1-5.5c0-1.7,0.3-3.3,0.8-4.8
				c0.6-1.8,1.6-3.5,2.9-5.3h1.4c-0.8,1.5-1.4,2.5-1.7,3.1c-0.4,1-0.8,2-1,3c-0.3,1.3-0.5,2.6-0.5,3.9c0,3.4,1,6.7,3.1,10.1H489.2z"
				/>
			<path class="st31" d="M502.1,18.5v1.8H492c0-0.5,0.1-0.9,0.2-1.3c0.3-0.7,0.7-1.4,1.2-2c0.6-0.7,1.4-1.4,2.5-2.3
				c1.7-1.4,2.8-2.5,3.4-3.3c0.6-0.8,0.9-1.6,0.9-2.3c0-0.7-0.3-1.4-0.8-1.9c-0.5-0.5-1.2-0.8-2.1-0.8c-0.9,0-1.6,0.3-2.2,0.8
				c-0.5,0.5-0.8,1.3-0.8,2.3l-1.9-0.2c0.1-1.4,0.6-2.5,1.5-3.3s2-1.1,3.5-1.1c1.5,0,2.6,0.4,3.5,1.2s1.3,1.8,1.3,3
				c0,0.6-0.1,1.2-0.4,1.8s-0.7,1.2-1.3,1.9c-0.6,0.7-1.6,1.6-2.9,2.7c-1.1,0.9-1.9,1.6-2.2,1.9c-0.3,0.3-0.6,0.7-0.8,1H502.1z"/>
			<path class="st31" d="M517.2,20.3h-1.9v-12c-0.5,0.4-1,0.9-1.8,1.3c-0.7,0.4-1.4,0.8-2,1V8.7c1.1-0.5,2-1.1,2.8-1.8
				c0.8-0.7,1.3-1.4,1.7-2.1h1.2V20.3z"/>
			<path class="st31" d="M521.1,20.5l4.4-15.9h1.5l-4.4,15.9H521.1z"/>
			<path class="st31" d="M530.9,12c-0.8-0.3-1.4-0.7-1.7-1.2s-0.6-1.2-0.6-1.9c0-1.1,0.4-2.1,1.2-2.8c0.8-0.8,1.9-1.1,3.2-1.1
				c1.3,0,2.4,0.4,3.2,1.2c0.8,0.8,1.2,1.7,1.2,2.8c0,0.7-0.2,1.3-0.6,1.9c-0.4,0.5-0.9,0.9-1.7,1.2c0.9,0.3,1.7,0.8,2.2,1.5
				c0.5,0.7,0.7,1.5,0.7,2.4c0,1.3-0.5,2.4-1.4,3.3c-0.9,0.9-2.1,1.3-3.7,1.3c-1.5,0-2.7-0.4-3.7-1.3c-0.9-0.9-1.4-2-1.4-3.4
				c0-1,0.3-1.8,0.8-2.5C529.2,12.7,530,12.2,530.9,12z M529.9,15.9c0,0.5,0.1,1.1,0.4,1.6s0.6,0.9,1.1,1.2c0.5,0.3,1,0.4,1.6,0.4
				c0.9,0,1.6-0.3,2.2-0.9c0.6-0.6,0.9-1.3,0.9-2.2c0-0.9-0.3-1.7-0.9-2.3c-0.6-0.6-1.4-0.9-2.3-0.9c-0.9,0-1.6,0.3-2.2,0.9
				C530.2,14.2,529.9,15,529.9,15.9z M530.5,8.8c0,0.7,0.2,1.3,0.7,1.8c0.5,0.5,1.1,0.7,1.8,0.7c0.7,0,1.3-0.2,1.8-0.7
				s0.7-1,0.7-1.7c0-0.7-0.2-1.3-0.7-1.7c-0.5-0.5-1.1-0.7-1.8-0.7c-0.7,0-1.3,0.2-1.8,0.7C530.8,7.6,530.5,8.1,530.5,8.8z"/>
			<path class="st31" d="M540.5,10.4L540,7.5V4.9h2.1v2.5l-0.5,2.9H540.5z M544,10.4l-0.5-2.9V4.9h2.1v2.5l-0.5,2.9H544z"/>
			<path class="st31" d="M549.3,24.8h-1.4c2.1-3.3,3.1-6.7,3.1-10.1c0-1.3-0.2-2.6-0.5-3.9c-0.2-1-0.6-2.1-1-3
				c-0.3-0.6-0.8-1.7-1.7-3.1h1.4c1.3,1.8,2.3,3.5,2.9,5.3c0.5,1.5,0.8,3.1,0.8,4.8c0,1.9-0.4,3.7-1.1,5.5
				C551.2,22,550.3,23.5,549.3,24.8z"/>
		</g>
		<g>
			<path class="st31" d="M178.8,507.7v-15.3h6.8c1.4,0,2.4,0.1,3.1,0.4c0.7,0.3,1.3,0.8,1.7,1.5s0.6,1.5,0.6,2.3
				c0,1.1-0.4,2-1.1,2.8c-0.7,0.7-1.8,1.2-3.3,1.4c0.5,0.3,0.9,0.5,1.2,0.8c0.6,0.5,1.2,1.2,1.7,2l2.7,4.2h-2.6l-2-3.2
				c-0.6-0.9-1.1-1.6-1.5-2.1c-0.4-0.5-0.7-0.8-1-1s-0.6-0.3-0.9-0.4c-0.2,0-0.6-0.1-1.1-0.1h-2.4v6.8H178.8z M180.9,499.1h4.4
				c0.9,0,1.7-0.1,2.2-0.3c0.5-0.2,0.9-0.5,1.2-0.9c0.3-0.4,0.4-0.9,0.4-1.4c0-0.7-0.3-1.3-0.8-1.8c-0.5-0.5-1.4-0.7-2.5-0.7h-4.9
				V499.1z"/>
			<path class="st31" d="M203.3,496.1l-1.9,0.1c-0.2-0.7-0.4-1.3-0.7-1.6c-0.5-0.5-1.1-0.8-1.9-0.8c-0.6,0-1.1,0.2-1.6,0.5
				c-0.6,0.4-1.1,1.1-1.4,1.9c-0.3,0.8-0.5,2-0.5,3.5c0.5-0.7,1-1.2,1.7-1.5c0.7-0.3,1.3-0.5,2.1-0.5c1.3,0,2.3,0.5,3.2,1.4
				s1.3,2.1,1.3,3.6c0,1-0.2,1.9-0.6,2.7s-1,1.5-1.7,1.9c-0.7,0.4-1.5,0.7-2.5,0.7c-1.6,0-2.9-0.6-3.8-1.7c-1-1.2-1.5-3.1-1.5-5.7
				c0-3,0.5-5.1,1.6-6.5c1-1.2,2.2-1.8,3.9-1.8c1.2,0,2.2,0.3,3,1C202.7,494,203.1,494.9,203.3,496.1z M195.6,502.7
				c0,0.6,0.1,1.3,0.4,1.9c0.3,0.6,0.7,1,1.2,1.4c0.5,0.3,1,0.5,1.6,0.5c0.8,0,1.5-0.3,2.1-1c0.6-0.6,0.9-1.5,0.9-2.6
				c0-1.1-0.3-1.9-0.8-2.5c-0.6-0.6-1.3-0.9-2.1-0.9c-0.9,0-1.6,0.3-2.2,0.9C195.9,500.9,195.6,501.7,195.6,502.7z"/>
			<path class="st31" d="M206.5,507.7v-2.1h2.1v2.1H206.5z"/>
			<path class="st31" d="M211.4,503.6l1.9-0.3c0.2,1.1,0.6,1.8,1.1,2.3s1.2,0.7,1.9,0.7c0.9,0,1.6-0.3,2.2-0.9
				c0.6-0.6,0.9-1.4,0.9-2.3c0-0.9-0.3-1.6-0.8-2.1c-0.6-0.6-1.3-0.8-2.2-0.8c-0.4,0-0.8,0.1-1.3,0.2l0.2-1.7c0.1,0,0.2,0,0.3,0
				c0.8,0,1.5-0.2,2.2-0.6c0.6-0.4,1-1.1,1-1.9c0-0.7-0.2-1.3-0.7-1.7c-0.5-0.5-1.1-0.7-1.8-0.7c-0.7,0-1.3,0.2-1.8,0.7
				c-0.5,0.5-0.8,1.2-0.9,2.1l-1.9-0.3c0.2-1.3,0.8-2.2,1.6-2.9c0.8-0.7,1.8-1,3-1c0.8,0,1.6,0.2,2.3,0.5c0.7,0.4,1.2,0.8,1.6,1.5
				c0.4,0.6,0.6,1.3,0.6,2c0,0.7-0.2,1.3-0.5,1.8c-0.4,0.5-0.9,1-1.6,1.3c0.9,0.2,1.6,0.6,2.1,1.3c0.5,0.7,0.8,1.5,0.8,2.5
				c0,1.3-0.5,2.5-1.5,3.4c-1,0.9-2.2,1.4-3.7,1.4c-1.3,0-2.5-0.4-3.4-1.2C212,506,211.5,504.9,211.4,503.6z"/>
			<path class="st31" d="M223.3,503.7l2-0.2c0.1,1,0.5,1.7,1,2.2c0.5,0.5,1.2,0.7,1.9,0.7c0.9,0,1.7-0.3,2.3-1
				c0.6-0.7,0.9-1.6,0.9-2.7c0-1.1-0.3-1.9-0.9-2.5s-1.4-0.9-2.4-0.9c-0.6,0-1.2,0.1-1.6,0.4c-0.5,0.3-0.9,0.6-1.2,1.1l-1.8-0.2
				l1.5-7.9h7.6v1.8h-6.1l-0.8,4.1c0.9-0.6,1.9-1,2.9-1c1.3,0,2.5,0.5,3.4,1.4s1.4,2.1,1.4,3.6c0,1.4-0.4,2.6-1.2,3.6
				c-1,1.2-2.3,1.9-4,1.9c-1.4,0-2.5-0.4-3.4-1.2C223.9,506,223.4,505,223.3,503.7z"/>
			<path class="st31" d="M245.3,512.2c-1-1.3-1.9-2.8-2.6-4.6c-0.7-1.8-1.1-3.6-1.1-5.5c0-1.7,0.3-3.3,0.8-4.8
				c0.6-1.8,1.6-3.5,2.9-5.3h1.4c-0.8,1.5-1.4,2.5-1.7,3.1c-0.4,1-0.8,2-1,3c-0.3,1.3-0.5,2.6-0.5,3.9c0,3.4,1,6.7,3.1,10.1H245.3z"
				/>
			<path class="st31" d="M255.4,507.7h-1.9v-12c-0.5,0.4-1,0.9-1.8,1.3c-0.7,0.4-1.4,0.8-2,1v-1.8c1.1-0.5,2-1.1,2.8-1.8
				c0.8-0.7,1.3-1.4,1.7-2.1h1.2V507.7z"/>
		</g>
		<g>
			<path class="st31" d="M260.4,508l4.4-15.9h1.5l-4.4,15.9H260.4z"/>
			<path class="st31" d="M273.3,507.7V504h-6.7v-1.7l7-9.9h1.5v9.9h2.1v1.7h-2.1v3.7H273.3z M273.3,502.3v-6.9l-4.8,6.9H273.3z"/>
			<path class="st31" d="M279.8,497.8l-0.5-2.9v-2.5h2.1v2.5l-0.5,2.9H279.8z M283.3,497.8l-0.5-2.9v-2.5h2.1v2.5l-0.5,2.9H283.3z"
				/>
			<path class="st31" d="M288.6,512.2h-1.4c2.1-3.3,3.1-6.7,3.1-10.1c0-1.3-0.2-2.6-0.5-3.9c-0.2-1-0.6-2.1-1-3
				c-0.3-0.6-0.8-1.7-1.7-3.1h1.4c1.3,1.8,2.3,3.5,2.9,5.3c0.5,1.5,0.8,3.1,0.8,4.8c0,1.9-0.4,3.7-1.1,5.5
				C290.5,509.4,289.6,510.9,288.6,512.2z"/>
		</g>
		<g>
			<path class="st31" d="M822.3,218.4h1.8v10.1c-0.5,0-0.9-0.1-1.3-0.2c-0.7-0.3-1.4-0.7-2-1.2c-0.7-0.6-1.4-1.4-2.3-2.5
				c-1.4-1.7-2.5-2.8-3.2-3.4c-0.8-0.6-1.6-0.9-2.3-0.9c-0.7,0-1.4,0.3-1.9,0.8c-0.5,0.5-0.8,1.2-0.8,2.1c0,0.9,0.3,1.6,0.8,2.2
				c0.5,0.5,1.3,0.8,2.3,0.8l-0.2,1.9c-1.4-0.1-2.5-0.6-3.3-1.5c-0.8-0.9-1.1-2-1.1-3.5c0-1.5,0.4-2.6,1.2-3.5
				c0.8-0.9,1.8-1.3,3-1.3c0.6,0,1.2,0.1,1.8,0.4c0.6,0.3,1.2,0.7,1.9,1.3c0.7,0.6,1.6,1.6,2.7,2.9c0.9,1.1,1.6,1.9,1.9,2.2
				c0.3,0.3,0.7,0.6,1,0.8V218.4z"/>
			<path class="st31" d="M815.8,213.4c-0.3,0.8-0.7,1.4-1.2,1.7c-0.5,0.4-1.2,0.6-1.9,0.6c-1.1,0-2.1-0.4-2.8-1.2
				c-0.8-0.8-1.1-1.9-1.1-3.2c0-1.3,0.4-2.4,1.2-3.2c0.8-0.8,1.7-1.2,2.8-1.2c0.7,0,1.3,0.2,1.9,0.6c0.5,0.4,0.9,0.9,1.2,1.7
				c0.3-0.9,0.8-1.7,1.5-2.2c0.7-0.5,1.5-0.7,2.4-0.7c1.3,0,2.4,0.5,3.3,1.4c0.9,0.9,1.3,2.1,1.3,3.7c0,1.5-0.4,2.7-1.3,3.7
				c-0.9,0.9-2,1.4-3.4,1.4c-1,0-1.8-0.3-2.5-0.8C816.5,215.1,816,214.4,815.8,213.4z M812.6,213.8c0.7,0,1.3-0.2,1.8-0.7
				c0.5-0.5,0.7-1.1,0.7-1.8c0-0.7-0.2-1.3-0.7-1.8c-0.5-0.5-1-0.7-1.7-0.7c-0.7,0-1.3,0.2-1.7,0.7c-0.5,0.5-0.7,1.1-0.7,1.8
				c0,0.7,0.2,1.3,0.7,1.8C811.4,213.6,812,213.8,812.6,213.8z M819.7,214.4c0.5,0,1.1-0.1,1.6-0.4c0.5-0.3,0.9-0.6,1.2-1.1
				c0.3-0.5,0.4-1,0.4-1.6c0-0.9-0.3-1.6-0.9-2.2c-0.6-0.6-1.3-0.9-2.2-0.9c-0.9,0-1.7,0.3-2.2,0.9c-0.6,0.6-0.9,1.4-0.9,2.3
				c0,0.9,0.3,1.6,0.9,2.2S818.8,214.4,819.7,214.4z"/>
			<path class="st31" d="M824.1,203.4H822v-2.1h2.1V203.4z"/>
			<path class="st31" d="M820.1,198.5l-0.2-2c1-0.1,1.7-0.5,2.2-1c0.5-0.5,0.7-1.2,0.7-1.9c0-0.9-0.3-1.7-1-2.3
				c-0.7-0.6-1.6-0.9-2.7-0.9c-1.1,0-1.9,0.3-2.5,0.9c-0.6,0.6-0.9,1.4-0.9,2.4c0,0.6,0.1,1.2,0.4,1.6c0.3,0.5,0.6,0.9,1.1,1.2
				l-0.2,1.8l-7.9-1.5V189h1.8v6.1l4.1,0.8c-0.6-0.9-1-1.9-1-2.9c0-1.3,0.5-2.5,1.4-3.4c0.9-0.9,2.1-1.4,3.6-1.4
				c1.4,0,2.6,0.4,3.6,1.2c1.2,1,1.9,2.3,1.9,4c0,1.4-0.4,2.5-1.2,3.4C822.4,197.8,821.4,198.3,820.1,198.5z"/>
			<path class="st31" d="M810.8,186.4H809v-9.9h1.5c1,1,2.4,1.9,4.1,2.9s3.5,1.7,5.3,2.2c1.3,0.4,2.7,0.6,4.2,0.7v1.9
				c-1.2,0-2.7-0.3-4.4-0.7c-1.7-0.5-3.4-1.1-4.9-2s-2.9-1.7-4-2.7V186.4z"/>
			<path class="st31" d="M828.6,164.5c-1.3,1-2.8,1.9-4.6,2.6c-1.8,0.7-3.6,1.1-5.5,1.1c-1.7,0-3.3-0.3-4.8-0.8
				c-1.8-0.6-3.5-1.6-5.3-2.9v-1.4c1.5,0.8,2.5,1.4,3.1,1.7c1,0.4,2,0.8,3,1c1.3,0.3,2.6,0.5,3.9,0.5c3.4,0,6.7-1,10.1-3.1V164.5z"
				/>
			<path class="st31" d="M824.1,154.4v1.9h-12c0.4,0.5,0.9,1,1.3,1.8s0.8,1.4,1,2h-1.8c-0.5-1.1-1.1-2-1.8-2.8s-1.4-1.3-2.1-1.7
				v-1.2H824.1z"/>
		</g>
		<g>
			<path class="st31" d="M824.1,135.5v1.9h-12c0.4,0.5,0.9,1,1.3,1.8s0.8,1.4,1,2h-1.8c-0.5-1.1-1.1-2-1.8-2.8s-1.4-1.3-2.1-1.7
				v-1.2H824.1z"/>
			<path class="st31" d="M824.4,131.5l-15.9-4.4v-1.5l15.9,4.4V131.5z"/>
			<path class="st31" d="M815.8,121.8c-0.3,0.8-0.7,1.4-1.2,1.7c-0.5,0.4-1.2,0.6-1.9,0.6c-1.1,0-2.1-0.4-2.8-1.2
				c-0.8-0.8-1.1-1.9-1.1-3.2c0-1.3,0.4-2.4,1.2-3.2c0.8-0.8,1.7-1.2,2.8-1.2c0.7,0,1.3,0.2,1.9,0.6c0.5,0.4,0.9,0.9,1.2,1.7
				c0.3-0.9,0.8-1.7,1.5-2.2c0.7-0.5,1.5-0.7,2.4-0.7c1.3,0,2.4,0.5,3.3,1.4c0.9,0.9,1.3,2.1,1.3,3.7c0,1.5-0.4,2.7-1.3,3.7
				c-0.9,0.9-2,1.4-3.4,1.4c-1,0-1.8-0.3-2.5-0.8C816.5,123.5,816,122.7,815.8,121.8z M812.6,122.2c0.7,0,1.3-0.2,1.8-0.7
				c0.5-0.5,0.7-1.1,0.7-1.8c0-0.7-0.2-1.3-0.7-1.8c-0.5-0.5-1-0.7-1.7-0.7c-0.7,0-1.3,0.2-1.7,0.7c-0.5,0.5-0.7,1.1-0.7,1.8
				c0,0.7,0.2,1.3,0.7,1.8C811.4,121.9,812,122.2,812.6,122.2z M819.7,122.8c0.5,0,1.1-0.1,1.6-0.4c0.5-0.3,0.9-0.6,1.2-1.1
				c0.3-0.5,0.4-1,0.4-1.6c0-0.9-0.3-1.6-0.9-2.2c-0.6-0.6-1.3-0.9-2.2-0.9c-0.9,0-1.7,0.3-2.2,0.9c-0.6,0.6-0.9,1.4-0.9,2.3
				c0,0.9,0.3,1.6,0.9,2.2S818.8,122.8,819.7,122.8z"/>
			<path class="st31" d="M814.2,108.7l-2.9,0.5h-2.5v-2.1h2.5l2.9,0.5V108.7z M814.2,112.2l-2.9,0.5h-2.5v-2.1h2.5l2.9,0.5V112.2z"
				/>
			<path class="st31" d="M828.6,103.4v1.4c-3.3-2.1-6.7-3.1-10.1-3.1c-1.3,0-2.6,0.1-3.9,0.5c-1,0.2-2.1,0.6-3,1
				c-0.6,0.3-1.7,0.8-3.1,1.7v-1.4c1.8-1.3,3.5-2.3,5.3-2.9c1.5-0.5,3.1-0.8,4.8-0.8c1.9,0,3.7,0.4,5.5,1.1
				C825.8,101.5,827.3,102.4,828.6,103.4z"/>
		</g>
		<g>
			<path class="st31" d="M954.2,446.1l-0.2-1.8c0.9-0.2,1.5-0.4,1.9-0.9s0.6-1,0.6-1.7c0-0.6-0.1-1.1-0.4-1.5
				c-0.3-0.4-0.6-0.8-1.1-1.1c-0.4-0.3-1-0.5-1.8-0.7s-1.5-0.3-2.3-0.3c-0.1,0-0.2,0-0.4,0c0.6,0.4,1.1,0.9,1.5,1.5
				c0.4,0.7,0.6,1.4,0.6,2.1c0,1.3-0.5,2.3-1.4,3.2c-0.9,0.9-2.1,1.3-3.6,1.3c-1.6,0-2.8-0.5-3.8-1.4c-0.9-0.9-1.4-2.1-1.4-3.4
				c0-1,0.3-1.9,0.8-2.7c0.5-0.8,1.3-1.5,2.3-1.9c1-0.4,2.4-0.6,4.3-0.6c2,0,3.5,0.2,4.7,0.6s2,1.1,2.7,1.9c0.6,0.8,0.9,1.8,0.9,3
				c0,1.2-0.3,2.2-1,2.9C956.3,445.5,955.4,445.9,954.2,446.1z M947.4,438.4c-1.1,0-1.9,0.3-2.6,0.9c-0.6,0.6-1,1.3-1,2.1
				c0,0.8,0.3,1.6,1,2.2c0.7,0.6,1.6,0.9,2.7,0.9c1,0,1.8-0.3,2.4-0.9c0.6-0.6,0.9-1.3,0.9-2.2c0-0.9-0.3-1.6-0.9-2.2
				C949.4,438.6,948.5,438.4,947.4,438.4z"/>
			<path class="st31" d="M949.4,431.5c-0.3,0.8-0.7,1.4-1.2,1.7c-0.5,0.4-1.2,0.6-1.9,0.6c-1.1,0-2.1-0.4-2.8-1.2
				c-0.8-0.8-1.1-1.9-1.1-3.2c0-1.3,0.4-2.4,1.2-3.2s1.7-1.2,2.8-1.2c0.7,0,1.3,0.2,1.9,0.6c0.5,0.4,0.9,0.9,1.2,1.7
				c0.3-0.9,0.8-1.7,1.5-2.2c0.7-0.5,1.5-0.7,2.4-0.7c1.3,0,2.4,0.5,3.3,1.4c0.9,0.9,1.3,2.1,1.3,3.7c0,1.5-0.4,2.7-1.3,3.7
				c-0.9,0.9-2,1.4-3.4,1.4c-1,0-1.8-0.3-2.5-0.8C950.1,433.2,949.7,432.5,949.4,431.5z M946.2,431.9c0.7,0,1.3-0.2,1.8-0.7
				c0.5-0.5,0.7-1.1,0.7-1.8c0-0.7-0.2-1.3-0.7-1.8s-1-0.7-1.7-0.7c-0.7,0-1.3,0.2-1.7,0.7c-0.5,0.5-0.7,1.1-0.7,1.8
				c0,0.7,0.2,1.3,0.7,1.8C945,431.7,945.6,431.9,946.2,431.9z M953.3,432.5c0.5,0,1.1-0.1,1.6-0.4c0.5-0.3,0.9-0.6,1.2-1.1
				c0.3-0.5,0.4-1,0.4-1.6c0-0.9-0.3-1.6-0.9-2.2c-0.6-0.6-1.3-0.9-2.2-0.9c-0.9,0-1.7,0.3-2.2,0.9c-0.6,0.6-0.9,1.4-0.9,2.3
				c0,0.9,0.3,1.6,0.9,2.2C951.7,432.2,952.4,432.5,953.3,432.5z"/>
			<path class="st31" d="M957.8,421.5h-2.1v-2.1h2.1V421.5z"/>
			<path class="st31" d="M957.8,410.5h-3.7v6.7h-1.7l-9.9-7v-1.5h9.9v-2.1h1.7v2.1h3.7V410.5z M952.3,410.5h-6.9l6.9,4.8V410.5z"/>
			<path class="st31" d="M962.3,394.6c-1.3,1-2.8,1.9-4.6,2.6c-1.8,0.7-3.6,1.1-5.5,1.1c-1.7,0-3.3-0.3-4.8-0.8
				c-1.8-0.6-3.5-1.6-5.3-2.9v-1.4c1.5,0.8,2.5,1.4,3.1,1.7c1,0.4,2,0.8,3,1c1.3,0.3,2.6,0.5,3.9,0.5c3.4,0,6.7-1,10.1-3.1V394.6z"
				/>
		</g>
		<g>
			<path class="st31" d="M953.7,391.5l-0.3-1.9c1.1-0.2,1.8-0.6,2.3-1.1s0.7-1.2,0.7-1.9c0-0.9-0.3-1.6-0.9-2.2
				c-0.6-0.6-1.4-0.9-2.3-0.9c-0.9,0-1.6,0.3-2.1,0.8c-0.6,0.6-0.8,1.3-0.8,2.2c0,0.4,0.1,0.8,0.2,1.3l-1.7-0.2c0-0.1,0-0.2,0-0.3
				c0-0.8-0.2-1.5-0.6-2.2s-1.1-1-1.9-1c-0.7,0-1.3,0.2-1.7,0.7c-0.5,0.5-0.7,1.1-0.7,1.8c0,0.7,0.2,1.3,0.7,1.8
				c0.5,0.5,1.2,0.8,2.1,0.9l-0.3,1.9c-1.3-0.2-2.2-0.8-2.9-1.6c-0.7-0.8-1-1.8-1-3c0-0.8,0.2-1.6,0.5-2.3c0.4-0.7,0.8-1.2,1.5-1.6
				c0.6-0.4,1.3-0.6,2-0.6c0.7,0,1.3,0.2,1.8,0.5c0.5,0.4,1,0.9,1.3,1.6c0.2-0.9,0.6-1.6,1.3-2.1c0.7-0.5,1.5-0.8,2.5-0.8
				c1.3,0,2.5,0.5,3.4,1.5c0.9,1,1.4,2.2,1.4,3.7c0,1.3-0.4,2.5-1.2,3.4S955,391.4,953.7,391.5z"/>
		</g>
		<g>
			<path class="st31" d="M944.4,372.5h-1.8v-9.9h1.5c1,1,2.4,1.9,4.1,2.9s3.5,1.7,5.3,2.2c1.3,0.4,2.7,0.6,4.2,0.7v1.9
				c-1.2,0-2.7-0.3-4.4-0.7c-1.7-0.5-3.4-1.1-4.9-2s-2.9-1.7-4-2.7V372.5z"/>
			<path class="st31" d="M958,361.5l-15.9-4.4v-1.5L958,360V361.5z"/>
			<path class="st31" d="M949.4,351.8c-0.3,0.8-0.7,1.4-1.2,1.7c-0.5,0.4-1.2,0.6-1.9,0.6c-1.1,0-2.1-0.4-2.8-1.2
				c-0.8-0.8-1.1-1.9-1.1-3.2c0-1.3,0.4-2.4,1.2-3.2c0.8-0.8,1.7-1.2,2.8-1.2c0.7,0,1.3,0.2,1.9,0.6c0.5,0.4,0.9,0.9,1.2,1.7
				c0.3-0.9,0.8-1.7,1.5-2.2c0.7-0.5,1.5-0.7,2.4-0.7c1.3,0,2.4,0.5,3.3,1.4c0.9,0.9,1.3,2.1,1.3,3.7c0,1.5-0.4,2.7-1.3,3.7
				c-0.9,0.9-2,1.4-3.4,1.4c-1,0-1.8-0.3-2.5-0.8C950.1,353.5,949.7,352.7,949.4,351.8z M946.2,352.2c0.7,0,1.3-0.2,1.8-0.7
				c0.5-0.5,0.7-1.1,0.7-1.8c0-0.7-0.2-1.3-0.7-1.8c-0.5-0.5-1-0.7-1.7-0.7c-0.7,0-1.3,0.2-1.7,0.7c-0.5,0.5-0.7,1.1-0.7,1.8
				c0,0.7,0.2,1.3,0.7,1.8C945,351.9,945.6,352.2,946.2,352.2z M953.3,352.8c0.5,0,1.1-0.1,1.6-0.4c0.5-0.3,0.9-0.6,1.2-1.1
				c0.3-0.5,0.4-1,0.4-1.6c0-0.9-0.3-1.6-0.9-2.2c-0.6-0.6-1.3-0.9-2.2-0.9c-0.9,0-1.7,0.3-2.2,0.9c-0.6,0.6-0.9,1.4-0.9,2.3
				c0,0.9,0.3,1.6,0.9,2.2S952.4,352.8,953.3,352.8z"/>
			<path class="st31" d="M947.8,338.7l-2.9,0.5h-2.5v-2.1h2.5l2.9,0.5V338.7z M947.8,342.2l-2.9,0.5h-2.5v-2.1h2.5l2.9,0.5V342.2z"
				/>
			<path class="st31" d="M962.3,333.4v1.4c-3.3-2.1-6.7-3.1-10.1-3.1c-1.3,0-2.6,0.1-3.9,0.5c-1,0.2-2.1,0.6-3,1
				c-0.6,0.3-1.7,0.8-3.1,1.7v-1.4c1.8-1.3,3.5-2.3,5.3-2.9c1.5-0.5,3.1-0.8,4.8-0.8c1.9,0,3.7,0.4,5.5,1.1
				C959.4,331.5,961,332.4,962.3,333.4z"/>
		</g>
		<g>
			<path class="st31" d="M861.7,634.7l0.1,1.9c-0.7,0.2-1.3,0.4-1.6,0.7c-0.5,0.5-0.8,1.1-0.8,1.9c0,0.6,0.2,1.1,0.5,1.6
				c0.4,0.6,1.1,1.1,1.9,1.4c0.8,0.3,2,0.5,3.5,0.5c-0.7-0.5-1.2-1-1.5-1.7c-0.3-0.7-0.5-1.3-0.5-2.1c0-1.3,0.5-2.3,1.4-3.2
				s2.1-1.3,3.6-1.3c1,0,1.9,0.2,2.7,0.6s1.5,1,1.9,1.7c0.4,0.7,0.7,1.5,0.7,2.5c0,1.6-0.6,2.9-1.7,3.8c-1.2,1-3.1,1.5-5.7,1.5
				c-3,0-5.1-0.5-6.5-1.6c-1.2-1-1.8-2.2-1.8-3.9c0-1.2,0.3-2.2,1-3C859.5,635.3,860.5,634.8,861.7,634.7z M868.3,642.4
				c0.6,0,1.3-0.1,1.9-0.4c0.6-0.3,1-0.7,1.4-1.2c0.3-0.5,0.5-1,0.5-1.6c0-0.8-0.3-1.5-1-2.1c-0.6-0.6-1.5-0.9-2.6-0.9
				c-1.1,0-1.9,0.3-2.5,0.8c-0.6,0.6-0.9,1.3-0.9,2.1c0,0.9,0.3,1.6,0.9,2.2C866.5,642.1,867.3,642.4,868.3,642.4z"/>
			<path class="st31" d="M873.2,631.5h-2.1v-2.1h2.1V631.5z"/>
			<path class="st31" d="M873.2,619.5v1.9h-12c0.4,0.5,0.9,1,1.3,1.8c0.4,0.7,0.8,1.4,1,2h-1.8c-0.5-1.1-1.1-2-1.8-2.8
				c-0.7-0.8-1.4-1.3-2.1-1.7v-1.2H873.2z"/>
			<path class="st31" d="M877.8,604.6c-1.3,1-2.8,1.9-4.6,2.6c-1.8,0.7-3.6,1.1-5.5,1.1c-1.7,0-3.3-0.3-4.8-0.8
				c-1.8-0.6-3.5-1.6-5.3-2.9v-1.4c1.5,0.8,2.5,1.4,3.1,1.7c1,0.4,2,0.8,3,1c1.3,0.3,2.6,0.5,3.9,0.5c3.4,0,6.7-1,10.1-3.1V604.6z"
				/>
		</g>
		<g>
			<path class="st31" d="M869.2,600.5l-0.3-1.9c1.1-0.2,1.8-0.6,2.3-1.1s0.7-1.2,0.7-1.9c0-0.9-0.3-1.6-0.9-2.2
				c-0.6-0.6-1.4-0.9-2.3-0.9c-0.9,0-1.6,0.3-2.1,0.8c-0.6,0.6-0.8,1.3-0.8,2.2c0,0.4,0.1,0.8,0.2,1.3l-1.7-0.2c0-0.1,0-0.2,0-0.3
				c0-0.8-0.2-1.5-0.6-2.2c-0.4-0.6-1.1-1-1.9-1c-0.7,0-1.3,0.2-1.7,0.7c-0.5,0.5-0.7,1.1-0.7,1.8c0,0.7,0.2,1.3,0.7,1.8
				c0.5,0.5,1.2,0.8,2.1,0.9l-0.3,1.9c-1.3-0.2-2.2-0.8-2.9-1.6c-0.7-0.8-1-1.8-1-3c0-0.8,0.2-1.6,0.5-2.3c0.4-0.7,0.8-1.2,1.5-1.6
				c0.6-0.4,1.3-0.6,2-0.6c0.7,0,1.3,0.2,1.8,0.5c0.5,0.4,1,0.9,1.3,1.6c0.2-0.9,0.6-1.6,1.3-2.1c0.7-0.5,1.5-0.8,2.5-0.8
				c1.3,0,2.5,0.5,3.4,1.5c0.9,1,1.4,2.2,1.4,3.7c0,1.3-0.4,2.5-1.2,3.4C871.5,599.9,870.5,600.4,869.2,600.5z"/>
			<path class="st31" d="M873.2,581.5v1.9h-12c0.4,0.5,0.9,1,1.3,1.8c0.4,0.7,0.8,1.4,1,2h-1.8c-0.5-1.1-1.1-2-1.8-2.8
				c-0.7-0.8-1.4-1.3-2.1-1.7v-1.2H873.2z"/>
			<path class="st31" d="M873.5,577.5l-15.9-4.4v-1.5l15.9,4.4V577.5z"/>
			<path class="st31" d="M873.2,563.6v1.9h-12c0.4,0.5,0.9,1,1.3,1.8c0.4,0.7,0.8,1.4,1,2h-1.8c-0.5-1.1-1.1-2-1.8-2.8
				c-0.7-0.8-1.4-1.3-2.1-1.7v-1.2H873.2z"/>
			<path class="st31" d="M871.4,548.9h1.8V559c-0.5,0-0.9-0.1-1.3-0.2c-0.7-0.3-1.4-0.7-2-1.2c-0.7-0.6-1.4-1.4-2.3-2.5
				c-1.4-1.7-2.5-2.8-3.2-3.4c-0.8-0.6-1.6-0.9-2.3-0.9c-0.7,0-1.4,0.3-1.9,0.8c-0.5,0.5-0.8,1.2-0.8,2.1c0,0.9,0.3,1.6,0.8,2.2
				c0.5,0.5,1.3,0.8,2.3,0.8l-0.2,1.9c-1.4-0.1-2.5-0.6-3.3-1.5s-1.1-2-1.1-3.5c0-1.5,0.4-2.6,1.2-3.5s1.8-1.3,3-1.3
				c0.6,0,1.2,0.1,1.8,0.4s1.2,0.7,1.9,1.3c0.7,0.6,1.6,1.6,2.7,2.9c0.9,1.1,1.6,1.9,1.9,2.2c0.3,0.3,0.7,0.6,1,0.8V548.9z"/>
			<path class="st31" d="M864.9,544c-0.3,0.8-0.7,1.4-1.2,1.7c-0.5,0.4-1.2,0.6-1.9,0.6c-1.1,0-2.1-0.4-2.8-1.2
				c-0.8-0.8-1.1-1.9-1.1-3.2c0-1.3,0.4-2.4,1.2-3.2s1.7-1.2,2.8-1.2c0.7,0,1.3,0.2,1.9,0.6c0.5,0.4,0.9,0.9,1.2,1.7
				c0.3-0.9,0.8-1.7,1.5-2.2c0.7-0.5,1.5-0.7,2.4-0.7c1.3,0,2.4,0.5,3.3,1.4c0.9,0.9,1.3,2.1,1.3,3.7c0,1.5-0.4,2.7-1.3,3.7
				c-0.9,0.9-2,1.4-3.4,1.4c-1,0-1.8-0.3-2.5-0.8C865.6,545.6,865.2,544.9,864.9,544z M861.7,544.3c0.7,0,1.3-0.2,1.8-0.7
				c0.5-0.5,0.7-1.1,0.7-1.8c0-0.7-0.2-1.3-0.7-1.8s-1-0.7-1.7-0.7c-0.7,0-1.3,0.2-1.7,0.7c-0.5,0.5-0.7,1.1-0.7,1.8
				c0,0.7,0.2,1.3,0.7,1.8C860.5,544.1,861.1,544.3,861.7,544.3z M868.8,544.9c0.5,0,1.1-0.1,1.6-0.4c0.5-0.3,0.9-0.6,1.2-1.1
				c0.3-0.5,0.4-1,0.4-1.6c0-0.9-0.3-1.6-0.9-2.2c-0.6-0.6-1.3-0.9-2.2-0.9c-0.9,0-1.7,0.3-2.2,0.9c-0.6,0.6-0.9,1.4-0.9,2.3
				c0,0.9,0.3,1.6,0.9,2.2C867.2,544.7,867.9,544.9,868.8,544.9z"/>
			<path class="st31" d="M863.3,530.9l-2.9,0.5h-2.5v-2.1h2.5l2.9,0.5V530.9z M863.3,534.3l-2.9,0.5h-2.5v-2.1h2.5l2.9,0.5V534.3z"
				/>
			<path class="st31" d="M877.8,525.6v1.4c-3.3-2.1-6.7-3.1-10.1-3.1c-1.3,0-2.6,0.2-3.9,0.5c-1,0.2-2.1,0.6-3,1
				c-0.6,0.3-1.7,0.8-3.1,1.7v-1.4c1.8-1.3,3.5-2.3,5.3-2.9c1.5-0.5,3.1-0.8,4.8-0.8c1.9,0,3.7,0.4,5.5,1.1
				C874.9,523.7,876.4,524.5,877.8,525.6z"/>
		</g>
		<g>
			<path class="st31" d="M122.5,579.6v1.9h-12c0.4,0.5,0.9,1,1.3,1.8c0.4,0.7,0.8,1.4,1,2h-1.8c-0.5-1.1-1.1-2-1.8-2.8
				c-0.7-0.8-1.4-1.3-2.1-1.7v-1.2H122.5z"/>
			<path class="st31" d="M109.2,574.7h-1.8v-9.9h1.5c1,1,2.4,1.9,4.1,2.9c1.7,1,3.5,1.7,5.3,2.2c1.3,0.4,2.7,0.6,4.2,0.7v1.9
				c-1.2,0-2.7-0.3-4.4-0.7c-1.7-0.5-3.4-1.1-4.9-2s-2.9-1.8-4-2.7V574.7z"/>
			<path class="st31" d="M122.5,561.8h-2.1v-2.1h2.1V561.8z"/>
			<path class="st31" d="M122.5,550.9h-3.7v6.7h-1.7l-9.9-7V549h9.9v-2.1h1.7v2.1h3.7V550.9z M117.1,550.9h-6.9l6.9,4.8V550.9z"/>
			<path class="st31" d="M110.9,535.2l0.1,1.9c-0.7,0.2-1.3,0.4-1.6,0.7c-0.5,0.5-0.8,1.1-0.8,1.9c0,0.6,0.2,1.1,0.5,1.6
				c0.4,0.6,1.1,1.1,1.9,1.4c0.8,0.3,2,0.5,3.5,0.5c-0.7-0.5-1.2-1-1.5-1.7c-0.3-0.7-0.5-1.3-0.5-2.1c0-1.3,0.5-2.3,1.4-3.2
				s2.1-1.3,3.6-1.3c1,0,1.9,0.2,2.7,0.6s1.5,1,1.9,1.7c0.4,0.7,0.7,1.5,0.7,2.5c0,1.6-0.6,2.9-1.7,3.8c-1.2,1-3.1,1.5-5.7,1.5
				c-3,0-5.1-0.5-6.5-1.6c-1.2-1-1.8-2.2-1.8-3.9c0-1.2,0.3-2.2,1-3C108.8,535.9,109.7,535.4,110.9,535.2z M117.5,542.9
				c0.6,0,1.3-0.1,1.9-0.4c0.6-0.3,1-0.7,1.4-1.2c0.3-0.5,0.5-1,0.5-1.6c0-0.8-0.3-1.5-1-2.1c-0.6-0.6-1.5-0.9-2.6-0.9
				c-1.1,0-1.9,0.3-2.5,0.8c-0.6,0.6-0.9,1.3-0.9,2.1c0,0.9,0.3,1.6,0.9,2.2C115.7,542.6,116.5,542.9,117.5,542.9z"/>
			<path class="st31" d="M127,523c-1.3,1-2.8,1.9-4.6,2.6c-1.8,0.7-3.6,1.1-5.5,1.1c-1.7,0-3.3-0.3-4.8-0.8
				c-1.8-0.6-3.5-1.6-5.3-2.9v-1.4c1.5,0.8,2.5,1.4,3.1,1.7c1,0.4,2,0.8,3,1c1.3,0.3,2.6,0.5,3.9,0.5c3.4,0,6.7-1,10.1-3.1V523z"/>
			<path class="st31" d="M122.5,512.9v1.9h-12c0.4,0.5,0.9,1,1.3,1.8c0.4,0.7,0.8,1.4,1,2h-1.8c-0.5-1.1-1.1-2-1.8-2.8
				c-0.7-0.8-1.4-1.3-2.1-1.7v-1.2H122.5z"/>
			<path class="st31" d="M122.5,501v1.9h-12c0.4,0.5,0.9,1,1.3,1.8c0.4,0.7,0.8,1.4,1,2h-1.8c-0.5-1.1-1.1-2-1.8-2.8
				c-0.7-0.8-1.4-1.3-2.1-1.7V501H122.5z"/>
			<path class="st31" d="M122.8,497l-15.9-4.4v-1.5l15.9,4.4V497z"/>
			<path class="st31" d="M122.5,483.1v1.9h-12c0.4,0.5,0.9,1,1.3,1.8c0.4,0.7,0.8,1.4,1,2h-1.8c-0.5-1.1-1.1-2-1.8-2.8
				c-0.7-0.8-1.4-1.3-2.1-1.7v-1.2H122.5z"/>
			<path class="st31" d="M110.9,468.5l0.1,1.9c-0.7,0.2-1.3,0.4-1.6,0.7c-0.5,0.5-0.8,1.1-0.8,1.9c0,0.6,0.2,1.1,0.5,1.6
				c0.4,0.6,1.1,1.1,1.9,1.4c0.8,0.3,2,0.5,3.5,0.5c-0.7-0.5-1.2-1-1.5-1.7c-0.3-0.7-0.5-1.3-0.5-2.1c0-1.3,0.5-2.3,1.4-3.2
				s2.1-1.3,3.6-1.3c1,0,1.9,0.2,2.7,0.6s1.5,1,1.9,1.7c0.4,0.7,0.7,1.5,0.7,2.5c0,1.6-0.6,2.9-1.7,3.8c-1.2,1-3.1,1.5-5.7,1.5
				c-3,0-5.1-0.5-6.5-1.6c-1.2-1-1.8-2.2-1.8-3.9c0-1.2,0.3-2.2,1-3C108.8,469.1,109.7,468.7,110.9,468.5z M117.5,476.2
				c0.6,0,1.3-0.1,1.9-0.4c0.6-0.3,1-0.7,1.4-1.2c0.3-0.5,0.5-1,0.5-1.6c0-0.8-0.3-1.5-1-2.1c-0.6-0.6-1.5-0.9-2.6-0.9
				c-1.1,0-1.9,0.3-2.5,0.8c-0.6,0.6-0.9,1.3-0.9,2.1c0,0.9,0.3,1.6,0.9,2.2C115.7,475.9,116.5,476.2,117.5,476.2z"/>
			<path class="st31" d="M112.6,462.3l-2.9,0.5h-2.5v-2.1h2.5l2.9,0.5V462.3z M112.6,465.7l-2.9,0.5h-2.5v-2.1h2.5l2.9,0.5V465.7z"
				/>
			<path class="st31" d="M127,457v1.4c-3.3-2.1-6.7-3.1-10.1-3.1c-1.3,0-2.6,0.2-3.9,0.5c-1,0.2-2.1,0.6-3,1
				c-0.6,0.3-1.7,0.8-3.1,1.7V457c1.8-1.3,3.5-2.3,5.3-2.9c1.5-0.5,3.1-0.8,4.8-0.8c1.9,0,3.7,0.4,5.5,1.1
				C124.2,455.1,125.7,456,127,457z"/>
		</g>
		<g>
			<path class="st31" d="M514,742.8v-8.4l-7.6-11.4h3.2l3.9,6c0.7,1.1,1.4,2.2,2,3.3c0.6-1,1.3-2.2,2.2-3.5l3.8-5.8h3l-7.9,11.4v8.4
				H514z"/>
			<path class="st31" d="M514,69.1v-8.4l-7.6-11.4h3.2l3.9,6c0.7,1.1,1.4,2.2,2,3.3c0.6-1,1.3-2.2,2.2-3.5l3.8-5.8h3l-7.9,11.4v8.4
				H514z"/>
		</g>
		<line class="st67" x1="566.1" y1="403.9" x2="56.2" y2="403.9"/>
		<g>
			<path class="st31" d="M51.7,619.5v1.9h-12c0.4,0.5,0.9,1,1.3,1.8c0.4,0.7,0.8,1.4,1,2h-1.8c-0.5-1.1-1.1-2-1.8-2.8
				c-0.7-0.8-1.4-1.3-2.1-1.7v-1.2H51.7z"/>
			<path class="st31" d="M38.4,614.5h-1.8v-9.9h1.5c1,1,2.4,1.9,4.1,2.9c1.7,1,3.5,1.7,5.3,2.2c1.3,0.4,2.7,0.6,4.2,0.7v1.9
				c-1.2,0-2.7-0.3-4.4-0.7c-1.7-0.5-3.4-1.1-4.9-2s-2.9-1.8-4-2.7V614.5z"/>
			<path class="st31" d="M51.7,601.7h-2.1v-2.1h2.1V601.7z"/>
			<path class="st31" d="M51.7,590.7h-3.7v6.7h-1.7l-9.9-7v-1.5h9.9v-2.1h1.7v2.1h3.7V590.7z M46.3,590.7h-6.9l6.9,4.8V590.7z"/>
			<path class="st31" d="M40.2,575.1l0.1,1.9c-0.7,0.2-1.3,0.4-1.6,0.7c-0.5,0.5-0.8,1.1-0.8,1.9c0,0.6,0.2,1.1,0.5,1.6
				c0.4,0.6,1.1,1.1,1.9,1.4c0.8,0.3,2,0.5,3.5,0.5c-0.7-0.5-1.2-1-1.5-1.7c-0.3-0.7-0.5-1.3-0.5-2.1c0-1.3,0.5-2.3,1.4-3.2
				s2.1-1.3,3.6-1.3c1,0,1.9,0.2,2.7,0.6s1.5,1,1.9,1.7c0.4,0.7,0.7,1.5,0.7,2.5c0,1.6-0.6,2.9-1.7,3.8c-1.2,1-3.1,1.5-5.7,1.5
				c-3,0-5.1-0.5-6.5-1.6c-1.2-1-1.8-2.2-1.8-3.9c0-1.2,0.3-2.2,1-3C38,575.7,39,575.2,40.2,575.1z M46.8,582.8
				c0.6,0,1.3-0.1,1.9-0.4c0.6-0.3,1-0.7,1.4-1.2c0.3-0.5,0.5-1,0.5-1.6c0-0.8-0.3-1.5-1-2.1c-0.6-0.6-1.5-0.9-2.6-0.9
				c-1.1,0-1.9,0.3-2.5,0.8c-0.6,0.6-0.9,1.3-0.9,2.1c0,0.9,0.3,1.6,0.9,2.2C45,582.5,45.8,582.8,46.8,582.8z"/>
			<path class="st31" d="M56.3,562.8c-1.3,1-2.8,1.9-4.6,2.6c-1.8,0.7-3.6,1.1-5.5,1.1c-1.7,0-3.3-0.3-4.8-0.8
				c-1.8-0.6-3.5-1.6-5.3-2.9v-1.4c1.5,0.8,2.5,1.4,3.1,1.7c1,0.4,2,0.8,3,1c1.3,0.3,2.6,0.5,3.9,0.5c3.4,0,6.7-1,10.1-3.1V562.8z"
				/>
			<path class="st31" d="M51.7,552.7v1.9h-12c0.4,0.5,0.9,1,1.3,1.8c0.4,0.7,0.8,1.4,1,2h-1.8c-0.5-1.1-1.1-2-1.8-2.8
				c-0.7-0.8-1.4-1.3-2.1-1.7v-1.2H51.7z"/>
			<path class="st31" d="M51.7,540.8v1.9h-12c0.4,0.5,0.9,1,1.3,1.8c0.4,0.7,0.8,1.4,1,2h-1.8c-0.5-1.1-1.1-2-1.8-2.8
				c-0.7-0.8-1.4-1.3-2.1-1.7v-1.2H51.7z"/>
			<path class="st31" d="M52,536.9l-15.9-4.4v-1.5l15.9,4.4V536.9z"/>
			<path class="st31" d="M51.7,522.9v1.9h-12c0.4,0.5,0.9,1,1.3,1.8c0.4,0.7,0.8,1.4,1,2h-1.8c-0.5-1.1-1.1-2-1.8-2.8
				c-0.7-0.8-1.4-1.3-2.1-1.7v-1.2H51.7z"/>
			<path class="st31" d="M40.2,508.3l0.1,1.9c-0.7,0.2-1.3,0.4-1.6,0.7c-0.5,0.5-0.8,1.1-0.8,1.9c0,0.6,0.2,1.1,0.5,1.6
				c0.4,0.6,1.1,1.1,1.9,1.4c0.8,0.3,2,0.5,3.5,0.5c-0.7-0.5-1.2-1-1.5-1.7c-0.3-0.7-0.5-1.3-0.5-2.1c0-1.3,0.5-2.3,1.4-3.2
				s2.1-1.3,3.6-1.3c1,0,1.9,0.2,2.7,0.6s1.5,1,1.9,1.7c0.4,0.7,0.7,1.5,0.7,2.5c0,1.6-0.6,2.9-1.7,3.8c-1.2,1-3.1,1.5-5.7,1.5
				c-3,0-5.1-0.5-6.5-1.6c-1.2-1-1.8-2.2-1.8-3.9c0-1.2,0.3-2.2,1-3C38,508.9,39,508.5,40.2,508.3z M46.8,516c0.6,0,1.3-0.1,1.9-0.4
				c0.6-0.3,1-0.7,1.4-1.2c0.3-0.5,0.5-1,0.5-1.6c0-0.8-0.3-1.5-1-2.1c-0.6-0.6-1.5-0.9-2.6-0.9c-1.1,0-1.9,0.3-2.5,0.8
				c-0.6,0.6-0.9,1.3-0.9,2.1c0,0.9,0.3,1.6,0.9,2.2C45,515.7,45.8,516,46.8,516z"/>
			<path class="st31" d="M39.3,502.8l-2.9-1.3v-2.4l2.9,2.2V502.8z M39.3,506.5l-2.9-1.3v-2.4l2.9,2.2V506.5z"/>
		</g>
		<g>
			<path class="st31" d="M56.3,497.2v1.4c-3.3-2.1-6.7-3.1-10.1-3.1c-1.3,0-2.6,0.2-3.9,0.5c-1,0.2-2.1,0.6-3,1
				c-0.6,0.3-1.7,0.8-3.1,1.7v-1.4c1.8-1.3,3.5-2.3,5.3-2.9c1.5-0.5,3.1-0.8,4.8-0.8c1.9,0,3.7,0.4,5.5,1.1
				C53.4,495.3,54.9,496.2,56.3,497.2z"/>
		</g>
	</g>
</g>
<g id="Watermark">
	<g>
		<rect x="438.5" y="662.8" class="st1" width="123.1" height="46.3"/>
		<g>
			<rect x="444.9" y="670.7" class="st75" width="62.9" height="30.6"/>
			<rect x="507.7" y="670.7" class="st75" width="47.4" height="30.6"/>
			<g>
				<path class="st76" d="M466.5,676.8l-2.8,18.9H461l-1.6-11l-1.5,11h-2.7l-2.8-18.9h2.5l1.8,14.2l1.8-14.2h2l1.8,14.2l1.8-14.2
					H466.5z"/>
				<path class="st76" d="M467.9,695.7v-18.9h2.5v18.9H467.9z"/>
				<path class="st76" d="M472.8,676.8h5c1.9,0,2.9,1.1,2.9,3.2v4.7c0,1.7-0.5,2.7-1.5,3.1l1.8,7.9h-2.4l-1.7-7.6h-1.5v7.6h-2.5
					V676.8z M475.4,685.9h1.7c0.8,0,1.1-0.5,1.1-1.4v-4.1c0-0.9-0.4-1.4-1.1-1.4h-1.7V685.9z"/>
				<path class="st76" d="M486.8,679.1v16.6h-2.5v-16.6h-2.4v-2.3h7.4v2.3H486.8z"/>
				<path class="st76" d="M496.3,695.7v-8.6h-3.1v8.6h-2.5v-18.9h2.5v8h3.1v-8h2.5v18.9H496.3z"/>
			</g>
			<g>
				<path class="st76" d="M516.3,676.8h5c1.9,0,2.9,1.1,2.9,3.2v4.7c0,1.7-0.5,2.7-1.5,3.1l1.8,7.9H522l-1.7-7.6h-1.5v7.6h-2.5
					V676.8z M518.8,685.9h1.7c0.8,0,1.1-0.5,1.1-1.4v-4.1c0-0.9-0.4-1.4-1.1-1.4h-1.7V685.9z"/>
				<path class="st76" d="M528.7,695.7h-2.5V680c0-2.2,1-3.2,3-3.2h1.9c2,0,3,1.1,3,3.2v15.7h-2.5v-6.9h-2.9V695.7z M531.6,686.5
					v-6.3c0-0.7-0.4-1.1-1.1-1.1h-0.7c-0.7,0-1.1,0.4-1.1,1.1v6.3H531.6z"/>
				<path class="st76" d="M536.3,695.7v-18.9h2.5v18.9H536.3z"/>
				<path class="st76" d="M547.2,695.7h-6v-18.9h2.5v16.6h3.5V695.7z"/>
			</g>
		</g>
	</g>
</g>
</svg>
