<?xml version="1.0" encoding="utf-8"?>
<!-- Generator: Adobe Illustrator 25.2.3, SVG Export Plug-In . SVG Version: 6.00 Build 0)  -->
<svg version="1.1" xmlns="http://www.w3.org/2000/svg" xmlns:xlink="http://www.w3.org/1999/xlink" x="0px" y="0px"
	 viewBox="0 0 1000 800" style="enable-background:new 0 0 1000 800;" xml:space="preserve">
<style type="text/css">
	.st0{display:none;}
	.st1{fill:#F0F0F0;}
	.st2{fill:none;stroke:#221E1F;stroke-width:1.0067;}
	.st3{fill:none;stroke:#221E1F;stroke-width:1.0815;}
	.st4{fill:#221E1F;}
	.st5{fill:none;stroke:#221E1F;stroke-width:1.0067;stroke-dasharray:25.4357,7.8961;}
	.st6{fill:#303030;}
	.st7{fill:none;stroke:#221E1F;stroke-width:0.9293;}
	.st8{fill:none;stroke:#303030;stroke-width:1.0067;stroke-miterlimit:10;}
	.st9{fill:none;stroke:#221E1F;stroke-width:1.2309;}
	.st10{fill:none;stroke:#221E1F;stroke-width:1.0036;stroke-linecap:round;stroke-linejoin:round;stroke-miterlimit:10;}
	.st11{fill:none;stroke:#221E1F;stroke-width:1.2309;stroke-linecap:round;stroke-linejoin:round;stroke-miterlimit:10;}
	.st12{fill:none;stroke:#221E1F;stroke-width:1.2309;stroke-miterlimit:10;}
	.st13{fill:none;stroke:#221E1F;stroke-width:1.2309;stroke-linecap:round;stroke-linejoin:round;}
	.st14{fill:none;stroke:#221E1F;stroke-width:1.2309;stroke-dasharray:6.9402,6.9402;}
	.st15{fill:none;stroke:#221E1F;stroke-width:1.148;}
	.st16{fill:none;stroke:#221E1F;stroke-width:1.148;stroke-dasharray:6.4521,6.4521;}
	.st17{fill:none;stroke:#221E1F;stroke-width:1.145;}
	.st18{fill:none;stroke:#221E1F;stroke-width:1.1283;}
	.st19{fill:none;stroke:#221E1F;stroke-width:1.1023;}
	.st20{fill:none;stroke:#221E1F;stroke-width:1.1283;stroke-dasharray:6.3679,6.3679;}
	.st21{fill:none;stroke:#221E1F;stroke-width:1.1486;}
	.st22{fill:none;stroke:#FFFFFF;stroke-width:5.4259;}
	.st23{fill:none;stroke:#221E1F;stroke-width:1.0581;}
	.st24{fill:none;stroke:#221E1F;stroke-width:1.0092;}
	.st25{fill:none;stroke:#221E1F;stroke-width:0.9007;}
	.st26{fill:none;stroke:#221E1F;stroke-width:0.9007;stroke-dasharray:6.2235,6.2235;}
	.st27{fill:none;stroke:#241F21;stroke-width:0.8703;}
	.st28{fill:none;stroke:#241F21;stroke-width:0.9357;}
	.st29{clip-path:url(#SVGID_2_);fill:none;stroke:#241F21;stroke-width:0.8703;}
	.st30{fill:none;stroke:#303030;stroke-width:0.8703;stroke-miterlimit:10;}
	.st31{fill:#241F21;}
	.st32{fill:none;stroke:#241F21;stroke-width:0.8703;stroke-dasharray:22.0524,6.4121;}
	.st33{clip-path:url(#SVGID_4_);}
	.st34{clip-path:url(#SVGID_6_);}
	.st35{clip-path:url(#SVGID_8_);}
	.st36{clip-path:url(#SVGID_10_);fill:#303030;}
	.st37{fill:none;stroke:#241F21;stroke-width:0.8703;stroke-dasharray:26.5684,7.9543;}
	.st38{clip-path:url(#SVGID_12_);}
	.st39{clip-path:url(#SVGID_14_);}
	.st40{clip-path:url(#SVGID_16_);}
	.st41{clip-path:url(#SVGID_18_);}
	.st42{fill:none;stroke:#241F21;stroke-width:0.8984;}
	.st43{fill:none;stroke:#303030;stroke-width:0.8984;stroke-miterlimit:10;}
	.st44{clip-path:url(#SVGID_20_);}
	.st45{clip-path:url(#SVGID_22_);}
	.st46{clip-path:url(#SVGID_24_);}
	.st47{clip-path:url(#SVGID_26_);}
	.st48{clip-path:url(#SVGID_28_);}
	.st49{clip-path:url(#SVGID_30_);}
	.st50{clip-path:url(#SVGID_32_);}
	.st51{clip-path:url(#SVGID_34_);fill:none;stroke:#241F21;stroke-width:0.8984;}
	.st52{clip-path:url(#SVGID_36_);fill:none;stroke:#241F21;stroke-width:0.8984;}
	.st53{clip-path:url(#SVGID_38_);fill:none;stroke:#241F21;stroke-width:0.8984;}
	.st54{clip-path:url(#SVGID_40_);fill:none;stroke:#241F21;stroke-width:0.8984;}
	.st55{fill:none;stroke:#241F21;stroke-width:0.8984;stroke-dasharray:22.7263,6.6621;}
	.st56{fill:none;stroke:#241F21;stroke-width:0.9362;}
	.st57{fill:none;stroke:#241F21;stroke-width:0.8984;stroke-dasharray:27.9392,8.7142;}
	.st58{clip-path:url(#SVGID_42_);}
	.st59{clip-path:url(#SVGID_44_);}
	.st60{clip-path:url(#SVGID_46_);}
	.st61{fill:none;stroke:#221E1F;stroke-width:0.765;}
	.st62{fill:none;stroke:#221E1F;stroke-width:0.8373;}
	.st63{fill:none;stroke:#221E1F;stroke-width:0.765;stroke-dasharray:21.1617,6.4071;}
	.st64{fill:none;stroke:#221E1F;stroke-width:0.765;stroke-dasharray:24.8189,7.2742;}
	.st65{fill:none;stroke:#303030;stroke-width:0.765;stroke-miterlimit:10;}
	.st66{fill:none;stroke:#221E1F;stroke-width:0.748;}
	.st67{fill:none;stroke:#241F21;stroke-width:1.3086;}
	.st68{fill:none;stroke:#241F21;stroke-width:1.5023;}
	.st69{fill:none;stroke:#241F21;stroke-width:1.1437;}
	.st70{fill:none;stroke:#241F21;stroke-width:1.5023;stroke-dasharray:23.5916,9.5345;}
	.st71{fill:none;stroke:#241F21;stroke-width:1.5023;stroke-dasharray:22.9216,8.8619;}
	.st72{fill:none;stroke:#241F21;stroke-width:1.5023;stroke-dasharray:21.3408,7.2811;}
	.st73{fill:none;stroke:#241F21;stroke-width:1.5023;stroke-dasharray:21.3303,7.2706;}
	.st74{fill:none;stroke:#241F21;stroke-width:1.5023;stroke-dasharray:20.027,5.9673;}
	.st75{fill:#F0F0F0;stroke:#CCCCCC;stroke-miterlimit:10;}
	.st76{fill:#CCCCCC;}
</style>
<g id="editable" class="st0">
</g>
<g id="Flat">
	<g>
		<g>
			<path class="st1" d="M823.7,674.6c-4.6-1-242.3-55.5-242.3-55.5s-32.2-6.1-39.4-43.9c0,0-5.1-57.4-5.1-143.2
				c0-85.8,7.5-158.4,7.5-158.4s-0.8-32,29.7-38.9l87.9-20.9c0,0,7.3-1.4,6.5-15.8v-85.1c0,0,7-57.4-51-58.2l-115.2-4.2v0l-0.9,0
				l-0.9,0v0l-117,5c-55.7,0.8-49.1,57.4-49.1,57.4l-0.2,90.8c0.2,9.4,9.6,10.8,9.6,10.8l81.7,18.6c34.9,9.1,32,40.4,32,40.4
				s8.6,72.6,8.6,158.4c0,85.8-5.1,143.2-5.1,143.2c-7.2,37.9-39.4,43.9-39.4,43.9s-237.7,54.5-242.3,55.5c-4.6,1-10.2,3-11.3,10.6
				v19.9c1,8.6,11.8,11.6,11.8,11.6H498h7h318.2c0,0,10.7-3,11.8-11.6v-19.9C834,677.6,828.3,675.6,823.7,674.6"/>
			<path class="st27" d="M823.7,674.6c-4.6-1-242.3-55.5-242.3-55.5s-32.2-6.1-39.4-43.9c0,0-5.1-57.4-5.1-143.2
				c0-85.8,7.5-158.4,7.5-158.4s-0.8-32,29.7-38.9l87.9-20.9c0,0,7.3-1.4,6.5-15.8v-85.1c0,0,7-57.4-51-58.2l-115.2-4.2v0l-0.9,0
				l-0.9,0v0l-117,5c-55.7,0.8-49.1,57.4-49.1,57.4l-0.2,90.8c0.2,9.4,9.6,10.8,9.6,10.8l81.7,18.6c34.9,9.1,32,40.4,32,40.4
				s8.6,72.6,8.6,158.4c0,85.8-5.1,143.2-5.1,143.2c-7.2,37.9-39.4,43.9-39.4,43.9s-237.7,54.5-242.3,55.5c-4.6,1-10.2,3-11.3,10.6
				v19.9c1,8.6,11.8,11.6,11.8,11.6H498h7h318.2c0,0,10.7-3,11.8-11.6v-19.9C834,677.6,828.3,675.6,823.7,674.6z"/>
		</g>
		<path class="st28" d="M500.1,250.9l226.3-52.3 M503.6,600.9l87.6,20.4 M499.6,250.9l-145.9-34 M504.2,600.9l-136,30.4"/>
		<g>
			<defs>
				<rect id="SVGID_1_" x="98.1" y="5.6" width="825.2" height="771.1"/>
			</defs>
			<clipPath id="SVGID_2_">
				<use xlink:href="#SVGID_1_"  style="overflow:visible;"/>
			</clipPath>
			<path class="st29" d="M142.4,250.8h584.4 M668.7,108.2V9.5 M334.4,115.3V9.5 M101.2,50.9h801.6 M102.5,716.7h801.7 M168,704.1
				v72.8 M835,703.7v68.9 M778.9,601.1H141.3"/>
		</g>
		<g>
			<path class="st6" d="M271.9,685.9l1.2-8.9l3.9,0.5c0.8,0.1,1.4,0.3,1.8,0.5c0.4,0.2,0.7,0.5,0.9,1c0.2,0.4,0.3,0.9,0.2,1.4
				c-0.1,0.6-0.4,1.1-0.8,1.5c-0.5,0.4-1.1,0.6-2,0.6c0.3,0.2,0.5,0.4,0.6,0.5c0.3,0.4,0.6,0.8,0.8,1.3l1.2,2.6l-1.5-0.2l-0.9-2
				c-0.3-0.6-0.5-1-0.7-1.3c-0.2-0.3-0.4-0.5-0.5-0.7c-0.2-0.1-0.3-0.2-0.5-0.3c-0.1,0-0.3-0.1-0.6-0.1l-1.4-0.2l-0.5,3.9
				L271.9,685.9z M273.7,681.1l2.5,0.3c0.5,0.1,1,0.1,1.3,0c0.3-0.1,0.6-0.2,0.8-0.4c0.2-0.2,0.3-0.5,0.3-0.8c0.1-0.4,0-0.8-0.3-1.1
				c-0.3-0.3-0.7-0.5-1.4-0.6l-2.8-0.4L273.7,681.1z"/>
		</g>
		<g>
			<path class="st6" d="M284.5,687.7l-1.1-0.2l1-7c-0.3,0.2-0.7,0.4-1.1,0.6s-0.9,0.3-1.2,0.4l0.1-1.1c0.6-0.2,1.2-0.5,1.7-0.8
				c0.5-0.3,0.9-0.7,1.1-1.1l0.7,0.1L284.5,687.7z"/>
		</g>
		<g>
			<path class="st6" d="M287.9,688.2l0.2-1.2l1.2,0.2l-0.2,1.2L287.9,688.2z"/>
			<path class="st6" d="M291,686.2l1.2,0.1c0,0.6,0.1,1,0.4,1.3c0.3,0.3,0.6,0.5,1.1,0.6c0.5,0.1,1-0.1,1.4-0.4
				c0.4-0.3,0.7-0.8,0.8-1.5c0.1-0.6,0-1.1-0.3-1.5c-0.3-0.4-0.7-0.7-1.3-0.7c-0.4,0-0.7,0-1,0.1c-0.3,0.1-0.6,0.3-0.8,0.5l-1-0.3
				l1.5-4.4l4.4,0.6l-0.1,1l-3.5-0.5l-0.8,2.3c0.6-0.3,1.2-0.4,1.8-0.3c0.8,0.1,1.4,0.5,1.9,1.1c0.5,0.6,0.6,1.3,0.5,2.2
				c-0.1,0.8-0.4,1.5-1,2c-0.7,0.6-1.5,0.9-2.5,0.8c-0.8-0.1-1.4-0.4-1.9-1C291.2,687.6,291,687,291,686.2z"/>
			<path class="st6" d="M298.1,687.5l1.1,0c0,0.5,0.1,0.9,0.4,1.1c0.2,0.3,0.5,0.4,0.9,0.5c0.3,0,0.6,0,0.9-0.1
				c0.3-0.1,0.5-0.3,0.7-0.5c0.2-0.2,0.4-0.6,0.6-1c0.2-0.4,0.3-0.9,0.3-1.3c0,0,0-0.1,0-0.2c-0.3,0.3-0.6,0.6-1,0.7
				c-0.4,0.2-0.8,0.2-1.3,0.2c-0.7-0.1-1.3-0.5-1.8-1.1s-0.6-1.3-0.5-2.2c0.1-0.9,0.5-1.6,1.1-2.1c0.6-0.5,1.3-0.7,2.1-0.5
				c0.6,0.1,1.1,0.3,1.5,0.7c0.4,0.4,0.7,0.9,0.9,1.5c0.2,0.6,0.2,1.5,0,2.6c-0.2,1.1-0.4,2-0.7,2.7c-0.3,0.6-0.8,1.1-1.3,1.4
				c-0.5,0.3-1.1,0.4-1.8,0.3c-0.7-0.1-1.2-0.4-1.6-0.8C298.3,688.8,298.1,688.2,298.1,687.5z M303.1,684.2c0.1-0.6,0-1.1-0.3-1.6
				c-0.3-0.4-0.7-0.7-1.1-0.7c-0.5-0.1-0.9,0.1-1.3,0.4c-0.4,0.3-0.7,0.8-0.8,1.5c-0.1,0.6,0,1,0.3,1.4c0.3,0.4,0.7,0.6,1.2,0.7
				c0.5,0.1,0.9,0,1.3-0.4C302.8,685.3,303,684.8,303.1,684.2z"/>
		</g>
		<g>
			<path class="st6" d="M310,693.9c-0.5-0.8-0.9-1.8-1.2-2.9c-0.3-1.1-0.3-2.2-0.2-3.2c0.1-1,0.4-1.9,0.8-2.7c0.5-1,1.2-1.9,2.1-2.8
				l0.8,0.1c-0.6,0.8-1,1.3-1.2,1.7c-0.3,0.5-0.6,1.1-0.8,1.7c-0.3,0.7-0.5,1.5-0.6,2.2c-0.3,1.9,0.1,4,1,6.1L310,693.9z"/>
		</g>
		<g>
			<path class="st6" d="M316.2,692.1l-1.1-0.2l1-7c-0.3,0.2-0.7,0.4-1.1,0.6c-0.5,0.2-0.9,0.3-1.2,0.4l0.1-1.1
				c0.6-0.2,1.2-0.5,1.7-0.8c0.5-0.3,0.9-0.7,1.1-1.1l0.7,0.1L316.2,692.1z"/>
		</g>
		<g>
			<path class="st6" d="M318.5,692.6l3.8-8.8l0.9,0.1l-3.8,8.8L318.5,692.6z"/>
			<path class="st6" d="M326.6,693.5l-1.1-0.2l1-7c-0.3,0.2-0.7,0.4-1.1,0.6s-0.9,0.3-1.2,0.4l0.1-1.1c0.7-0.2,1.2-0.5,1.7-0.8
				s0.9-0.7,1.1-1.1l0.7,0.1L326.6,693.5z"/>
		</g>
		<g>
			<path class="st6" d="M335.9,688l-1.1-0.1c0-0.4-0.1-0.8-0.3-1c-0.3-0.4-0.6-0.6-1-0.6c-0.3,0-0.7,0-1,0.2c-0.4,0.2-0.7,0.5-1,1
				c-0.3,0.5-0.5,1.1-0.6,2c0.3-0.4,0.7-0.6,1.1-0.8c0.4-0.1,0.8-0.2,1.2-0.1c0.7,0.1,1.3,0.5,1.7,1.1s0.6,1.3,0.5,2.2
				c-0.1,0.6-0.3,1.1-0.6,1.5c-0.3,0.4-0.7,0.8-1.1,1c-0.5,0.2-0.9,0.3-1.5,0.2c-0.9-0.1-1.6-0.6-2.1-1.3s-0.6-1.9-0.4-3.4
				c0.2-1.7,0.7-2.9,1.5-3.6c0.6-0.6,1.4-0.8,2.4-0.7c0.7,0.1,1.2,0.4,1.6,0.8C335.8,686.7,336,687.3,335.9,688z M331,691.2
				c-0.1,0.4,0,0.7,0.1,1.1c0.1,0.4,0.3,0.7,0.6,0.9c0.3,0.2,0.5,0.4,0.9,0.4c0.5,0.1,0.9-0.1,1.3-0.4c0.4-0.3,0.6-0.8,0.7-1.4
				c0.1-0.6,0-1.1-0.3-1.5c-0.3-0.4-0.7-0.6-1.2-0.7c-0.5-0.1-0.9,0.1-1.3,0.4C331.3,690.2,331,690.7,331,691.2z"/>
			<path class="st6" d="M337.4,689.2l-0.1-1.7l0.2-1.5l1.2,0.2l-0.2,1.5l-0.5,1.7L337.4,689.2z M339.4,689.5l-0.1-1.7l0.2-1.5
				l1.2,0.2l-0.2,1.5l-0.5,1.7L339.4,689.5z"/>
			<path class="st6" d="M341.3,698.3l-0.8-0.1c1.5-1.8,2.3-3.6,2.6-5.6c0.1-0.8,0.1-1.5,0.1-2.3c-0.1-0.6-0.2-1.2-0.3-1.8
				c-0.1-0.4-0.3-1-0.7-2l0.8,0.1c0.6,1.1,1,2.2,1.3,3.3c0.2,0.9,0.2,1.9,0.1,2.8c-0.2,1.1-0.5,2.1-1.1,3.1S342,697.6,341.3,698.3z"
				/>
		</g>
		<line class="st30" x1="185.4" y1="706" x2="223.3" y2="684.9"/>
		<polygon class="st6" points="190.3,708.1 173.4,713 185.6,700.4 		"/>
		<line class="st30" x1="185.5" y1="679.8" x2="343.3" y2="702"/>
		<polygon class="st6" points="188.2,684.4 171.8,678.1 189.1,675.4 		"/>
		<g>
			<path class="st27" d="M761.1,654.5c0,0,10.4-11.3,10.4-23.4c0-14.6-6.8-23.7-6.8-23.7"/>
		</g>
		<polygon class="st6" points="770.3,648.9 757.9,659 763.3,644 		"/>
		<polygon class="st6" points="765.1,615.6 758.3,601.2 771.5,610 		"/>
		<g>
			<path class="st6" d="M783.6,634.1h-1.1v-7c-0.3,0.3-0.6,0.5-1,0.8c-0.4,0.3-0.8,0.4-1.2,0.6v-1.1c0.6-0.3,1.2-0.6,1.6-1.1
				c0.5-0.4,0.8-0.8,1-1.2h0.7V634.1z"/>
			<path class="st6" d="M786.4,631.7l1.1-0.1c0.1,0.6,0.3,1.1,0.6,1.3s0.7,0.4,1.1,0.4c0.5,0,1-0.2,1.3-0.5c0.4-0.4,0.5-0.8,0.5-1.3
				c0-0.5-0.2-0.9-0.5-1.3c-0.3-0.3-0.8-0.5-1.3-0.5c-0.2,0-0.5,0-0.8,0.1l0.1-1c0.1,0,0.1,0,0.2,0c0.5,0,0.9-0.1,1.3-0.4
				c0.4-0.2,0.6-0.6,0.6-1.1c0-0.4-0.1-0.7-0.4-1c-0.3-0.3-0.6-0.4-1.1-0.4c-0.4,0-0.8,0.1-1.1,0.4c-0.3,0.3-0.5,0.7-0.6,1.2
				l-1.1-0.2c0.1-0.7,0.4-1.3,0.9-1.7c0.5-0.4,1.1-0.6,1.8-0.6c0.5,0,0.9,0.1,1.4,0.3c0.4,0.2,0.7,0.5,0.9,0.9
				c0.2,0.4,0.3,0.7,0.3,1.2c0,0.4-0.1,0.7-0.3,1.1s-0.5,0.6-0.9,0.8c0.5,0.1,0.9,0.4,1.2,0.8c0.3,0.4,0.4,0.9,0.4,1.4
				c0,0.8-0.3,1.4-0.9,2c-0.6,0.5-1.3,0.8-2.2,0.8c-0.8,0-1.4-0.2-2-0.7C786.8,633.1,786.5,632.5,786.4,631.7z"/>
			<path class="st6" d="M793.6,626.7c0-0.5,0.2-0.9,0.5-1.2c0.3-0.3,0.7-0.5,1.2-0.5c0.5,0,0.9,0.2,1.2,0.5s0.5,0.7,0.5,1.2
				s-0.2,0.9-0.5,1.2s-0.7,0.5-1.2,0.5c-0.5,0-0.9-0.2-1.2-0.5C793.8,627.6,793.6,627.2,793.6,626.7z M794.3,626.7
				c0,0.3,0.1,0.5,0.3,0.7c0.2,0.2,0.4,0.3,0.7,0.3c0.3,0,0.5-0.1,0.7-0.3c0.2-0.2,0.3-0.4,0.3-0.7s-0.1-0.5-0.3-0.7
				c-0.2-0.2-0.4-0.3-0.7-0.3c-0.3,0-0.5,0.1-0.7,0.3C794.4,626.2,794.3,626.4,794.3,626.7z"/>
		</g>
		<g>
			<path class="st6" d="M734.2,229.7h-1.1v-7c-0.3,0.3-0.6,0.5-1,0.8s-0.8,0.4-1.2,0.6v-1.1c0.6-0.3,1.2-0.6,1.6-1.1
				c0.5-0.4,0.8-0.8,1-1.2h0.7V229.7z"/>
			<path class="st6" d="M737,227.3l1.1-0.1c0.1,0.6,0.3,1.1,0.6,1.3s0.7,0.4,1.1,0.4c0.5,0,1-0.2,1.3-0.5c0.4-0.4,0.5-0.8,0.5-1.3
				c0-0.5-0.2-0.9-0.5-1.3c-0.3-0.3-0.8-0.5-1.3-0.5c-0.2,0-0.5,0-0.8,0.1l0.1-1c0.1,0,0.1,0,0.2,0c0.5,0,0.9-0.1,1.3-0.4
				c0.4-0.2,0.6-0.6,0.6-1.1c0-0.4-0.1-0.7-0.4-1s-0.6-0.4-1.1-0.4c-0.4,0-0.8,0.1-1.1,0.4c-0.3,0.3-0.5,0.7-0.6,1.2l-1.1-0.2
				c0.1-0.7,0.4-1.3,0.9-1.7c0.5-0.4,1.1-0.6,1.8-0.6c0.5,0,0.9,0.1,1.4,0.3c0.4,0.2,0.7,0.5,0.9,0.9c0.2,0.4,0.3,0.7,0.3,1.2
				c0,0.4-0.1,0.7-0.3,1.1c-0.2,0.3-0.5,0.6-0.9,0.8c0.5,0.1,0.9,0.4,1.2,0.8c0.3,0.4,0.4,0.9,0.4,1.4c0,0.8-0.3,1.4-0.9,2
				c-0.6,0.5-1.3,0.8-2.2,0.8c-0.8,0-1.4-0.2-2-0.7C737.4,228.7,737.1,228.1,737,227.3z"/>
			<path class="st6" d="M744.2,222.3c0-0.5,0.2-0.9,0.5-1.2c0.3-0.3,0.7-0.5,1.2-0.5c0.5,0,0.9,0.2,1.2,0.5c0.3,0.3,0.5,0.7,0.5,1.2
				s-0.2,0.9-0.5,1.2s-0.7,0.5-1.2,0.5c-0.5,0-0.9-0.2-1.2-0.5C744.4,223.1,744.2,222.7,744.2,222.3z M744.9,222.3
				c0,0.3,0.1,0.5,0.3,0.7c0.2,0.2,0.4,0.3,0.7,0.3c0.3,0,0.5-0.1,0.7-0.3c0.2-0.2,0.3-0.4,0.3-0.7s-0.1-0.5-0.3-0.7
				c-0.2-0.2-0.4-0.3-0.7-0.3c-0.3,0-0.5,0.1-0.7,0.3C745,221.7,744.9,222,744.9,222.3z"/>
		</g>
		<g>
			<path class="st27" d="M714.2,249.4c0,0,9.4-10.1,9.4-21c0-13.2-6.1-21.3-6.1-21.3"/>
		</g>
		<polygon class="st6" points="724.3,241.8 713.1,250.8 718.1,237.3 		"/>
		<polygon class="st6" points="718.2,215.5 713.4,202 724.5,211.1 		"/>
		<g>
			<path class="st6" d="M474.2,757.9h-1.1v-7c-0.3,0.3-0.6,0.5-1,0.8c-0.4,0.3-0.8,0.4-1.2,0.6v-1.1c0.6-0.3,1.2-0.6,1.6-1.1
				c0.5-0.4,0.8-0.8,1-1.2h0.7V757.9z"/>
			<path class="st6" d="M482.8,756.8v1.1h-5.9c0-0.3,0-0.5,0.1-0.8c0.2-0.4,0.4-0.8,0.7-1.2c0.3-0.4,0.8-0.8,1.4-1.4
				c1-0.8,1.6-1.4,2-1.9c0.3-0.5,0.5-0.9,0.5-1.3c0-0.4-0.2-0.8-0.5-1.1c-0.3-0.3-0.7-0.5-1.2-0.5c-0.5,0-1,0.2-1.3,0.5
				c-0.3,0.3-0.5,0.8-0.5,1.3l-1.1-0.1c0.1-0.8,0.4-1.5,0.9-1.9c0.5-0.4,1.2-0.7,2-0.7c0.9,0,1.5,0.2,2,0.7c0.5,0.5,0.8,1.1,0.8,1.8
				c0,0.4-0.1,0.7-0.2,1.1c-0.1,0.3-0.4,0.7-0.7,1.1c-0.3,0.4-0.9,0.9-1.7,1.6c-0.7,0.6-1.1,0.9-1.3,1.1c-0.2,0.2-0.3,0.4-0.5,0.6
				H482.8z"/>
			<path class="st6" d="M484.1,750.1V749h5.8v0.9c-0.6,0.6-1.1,1.4-1.7,2.4c-0.6,1-1,2-1.3,3.1c-0.2,0.8-0.4,1.6-0.4,2.5h-1.1
				c0-0.7,0.2-1.6,0.4-2.6c0.3-1,0.6-2,1.1-2.9c0.5-0.9,1-1.7,1.6-2.3H484.1z"/>
			<path class="st6" d="M496.9,760.5c-0.6-0.8-1.1-1.7-1.5-2.7c-0.4-1-0.6-2.1-0.6-3.2c0-1,0.2-1.9,0.5-2.8c0.4-1,0.9-2.1,1.7-3.1
				h0.8c-0.5,0.8-0.8,1.5-1,1.8c-0.2,0.6-0.4,1.2-0.6,1.8c-0.2,0.8-0.3,1.5-0.3,2.3c0,2,0.6,3.9,1.8,5.9H496.9z"/>
			<path class="st6" d="M498.6,755.5l1.2-0.1c0.1,0.6,0.3,1,0.6,1.3c0.3,0.3,0.7,0.4,1.1,0.4c0.5,0,1-0.2,1.3-0.6
				c0.4-0.4,0.6-0.9,0.6-1.6c0-0.6-0.2-1.1-0.5-1.5c-0.4-0.4-0.8-0.5-1.4-0.5c-0.4,0-0.7,0.1-1,0.2c-0.3,0.2-0.5,0.4-0.7,0.6l-1-0.1
				l0.9-4.6h4.5v1.1h-3.6l-0.5,2.4c0.5-0.4,1.1-0.6,1.7-0.6c0.8,0,1.4,0.3,2,0.8c0.5,0.5,0.8,1.2,0.8,2.1c0,0.8-0.2,1.5-0.7,2.1
				c-0.6,0.7-1.4,1.1-2.4,1.1c-0.8,0-1.5-0.2-2-0.7C499,756.9,498.7,756.3,498.6,755.5z"/>
			<path class="st6" d="M506,752.1l-0.3-1.7v-1.5h1.3v1.5l-0.3,1.7H506z M508,752.1l-0.3-1.7v-1.5h1.3v1.5l-0.3,1.7H508z"/>
			<path class="st6" d="M511.1,760.5h-0.8c1.2-2,1.8-3.9,1.8-5.9c0-0.8-0.1-1.5-0.3-2.3c-0.1-0.6-0.3-1.2-0.6-1.8
				c-0.2-0.4-0.5-1-1-1.8h0.8c0.8,1,1.3,2.1,1.7,3.1c0.3,0.9,0.5,1.8,0.5,2.8c0,1.1-0.2,2.2-0.6,3.2
				C512.2,758.8,511.7,759.7,511.1,760.5z"/>
		</g>
		<line class="st27" x1="179.6" y1="764.7" x2="823.8" y2="764.7"/>
		<polygon class="st31" points="182.1,768.4 168,764.6 182.1,760.8 		"/>
		<polygon class="st31" points="821.2,768.4 835.3,764.6 821.2,760.8 		"/>
		<line class="st32" x1="500.4" y1="735.7" x2="499.6" y2="30.5"/>
		<g>
			<path class="st31" d="M512,734.7v-5.3l-4.9-7.3h2l2.5,3.8c0.5,0.7,0.9,1.4,1.3,2.1c0.4-0.7,0.9-1.4,1.4-2.2l2.4-3.7h1.9l-5,7.3
				v5.3H512z"/>
			<path class="st31" d="M512,47v-5.3l-4.9-7.3h2l2.5,3.8c0.5,0.7,0.9,1.4,1.3,2.1c0.4-0.7,0.9-1.4,1.4-2.2l2.4-3.7h1.9l-5,7.3V47
				H512z"/>
		</g>
		<line class="st27" x1="111.7" y1="704.7" x2="111.7" y2="62.5"/>
		<polygon class="st31" points="115.3,702.2 111.5,716.3 107.7,702.2 		"/>
		<polygon class="st31" points="115.3,65.1 111.5,50.9 107.7,65.1 		"/>
		<line class="st27" x1="150.4" y1="705.1" x2="150.4" y2="612.6"/>
		<polygon class="st31" points="154,702.5 150.2,716.7 146.4,702.5 		"/>
		<polygon class="st31" points="154,615.2 150.2,601.1 146.4,615.2 		"/>
		<line class="st27" x1="150.4" y1="589.5" x2="150.4" y2="262.4"/>
		<polygon class="st31" points="154,586.9 150.2,601.1 146.4,586.9 		"/>
		<polygon class="st31" points="154,264.9 150.2,250.8 146.4,264.9 		"/>
		<line class="st27" x1="150.4" y1="239.2" x2="150.4" y2="62.1"/>
		<polygon class="st31" points="154,236.6 150.2,250.8 146.4,236.6 		"/>
		<polygon class="st31" points="154,64.7 150.2,50.5 146.4,64.7 		"/>
		<g>
			<path class="st6" d="M138.5,456.5l0.1,1.1c-0.4,0.1-0.7,0.2-0.9,0.4c-0.3,0.3-0.5,0.7-0.5,1.1c0,0.4,0.1,0.7,0.3,0.9
				c0.3,0.3,0.6,0.6,1.1,0.8c0.5,0.2,1.2,0.3,2.1,0.3c-0.4-0.3-0.7-0.6-0.9-1c-0.2-0.4-0.3-0.8-0.3-1.2c0-0.7,0.3-1.4,0.8-1.9
				c0.5-0.5,1.2-0.8,2.1-0.8c0.6,0,1.1,0.1,1.6,0.4c0.5,0.2,0.9,0.6,1.1,1c0.3,0.4,0.4,0.9,0.4,1.4c0,0.9-0.3,1.7-1,2.2
				s-1.8,0.9-3.3,0.9c-1.7,0-3-0.3-3.8-1c-0.7-0.6-1-1.3-1-2.3c0-0.7,0.2-1.3,0.6-1.7C137.3,456.8,137.8,456.5,138.5,456.5z
				 M142.4,461c0.4,0,0.7-0.1,1.1-0.2c0.3-0.2,0.6-0.4,0.8-0.7c0.2-0.3,0.3-0.6,0.3-0.9c0-0.5-0.2-0.9-0.6-1.2s-0.9-0.5-1.5-0.5
				c-0.6,0-1.1,0.2-1.5,0.5c-0.4,0.3-0.5,0.7-0.5,1.2c0,0.5,0.2,0.9,0.5,1.3C141.3,460.8,141.8,461,142.4,461z"/>
			<path class="st6" d="M138.5,449.5l0.1,1.1c-0.4,0.1-0.7,0.2-0.9,0.4c-0.3,0.3-0.5,0.7-0.5,1.1c0,0.4,0.1,0.7,0.3,0.9
				c0.3,0.3,0.6,0.6,1.1,0.8c0.5,0.2,1.2,0.3,2.1,0.3c-0.4-0.3-0.7-0.6-0.9-1c-0.2-0.4-0.3-0.8-0.3-1.2c0-0.7,0.3-1.4,0.8-1.9
				c0.5-0.5,1.2-0.8,2.1-0.8c0.6,0,1.1,0.1,1.6,0.4c0.5,0.2,0.9,0.6,1.1,1c0.3,0.4,0.4,0.9,0.4,1.4c0,0.9-0.3,1.7-1,2.2
				s-1.8,0.9-3.3,0.9c-1.7,0-3-0.3-3.8-1c-0.7-0.6-1-1.3-1-2.3c0-0.7,0.2-1.3,0.6-1.7C137.3,449.8,137.8,449.6,138.5,449.5z
				 M142.4,454c0.4,0,0.7-0.1,1.1-0.2c0.3-0.2,0.6-0.4,0.8-0.7c0.2-0.3,0.3-0.6,0.3-0.9c0-0.5-0.2-0.9-0.6-1.2s-0.9-0.5-1.5-0.5
				c-0.6,0-1.1,0.2-1.5,0.5c-0.4,0.3-0.5,0.7-0.5,1.2c0,0.5,0.2,0.9,0.5,1.3C141.3,453.8,141.8,454,142.4,454z"/>
			<path class="st6" d="M145.3,447.6H144v-1.3h1.3V447.6z"/>
			<path class="st6" d="M138.5,439l0.1,1.1c-0.4,0.1-0.7,0.2-0.9,0.4c-0.3,0.3-0.5,0.7-0.5,1.1c0,0.4,0.1,0.7,0.3,0.9
				c0.3,0.3,0.6,0.6,1.1,0.8c0.5,0.2,1.2,0.3,2.1,0.3c-0.4-0.3-0.7-0.6-0.9-1c-0.2-0.4-0.3-0.8-0.3-1.2c0-0.7,0.3-1.4,0.8-1.9
				c0.5-0.5,1.2-0.8,2.1-0.8c0.6,0,1.1,0.1,1.6,0.4c0.5,0.2,0.9,0.6,1.1,1c0.3,0.4,0.4,0.9,0.4,1.4c0,0.9-0.3,1.7-1,2.2
				s-1.8,0.9-3.3,0.9c-1.7,0-3-0.3-3.8-1c-0.7-0.6-1-1.3-1-2.3c0-0.7,0.2-1.3,0.6-1.7C137.3,439.4,137.8,439.1,138.5,439z
				 M142.4,443.5c0.4,0,0.7-0.1,1.1-0.2c0.3-0.2,0.6-0.4,0.8-0.7c0.2-0.3,0.3-0.6,0.3-0.9c0-0.5-0.2-0.9-0.6-1.2s-0.9-0.5-1.5-0.5
				c-0.6,0-1.1,0.2-1.5,0.5c-0.4,0.3-0.5,0.7-0.5,1.2c0,0.5,0.2,0.9,0.5,1.3C141.3,443.4,141.8,443.5,142.4,443.5z"/>
			<path class="st6" d="M140.4,436.1c-0.2,0.5-0.4,0.8-0.7,1c-0.3,0.2-0.7,0.3-1.1,0.3c-0.7,0-1.2-0.2-1.6-0.7
				c-0.4-0.5-0.7-1.1-0.7-1.9c0-0.8,0.2-1.4,0.7-1.9c0.5-0.5,1-0.7,1.7-0.7c0.4,0,0.8,0.1,1.1,0.3c0.3,0.2,0.5,0.5,0.7,1
				c0.2-0.6,0.5-1,0.9-1.3c0.4-0.3,0.9-0.4,1.4-0.4c0.8,0,1.4,0.3,1.9,0.8c0.5,0.5,0.8,1.3,0.8,2.1c0,0.9-0.3,1.6-0.8,2.1
				c-0.5,0.5-1.2,0.8-2,0.8c-0.6,0-1.1-0.1-1.5-0.4S140.6,436.6,140.4,436.1z M138.5,436.3c0.4,0,0.8-0.1,1-0.4s0.4-0.6,0.4-1.1
				c0-0.4-0.1-0.8-0.4-1c-0.3-0.3-0.6-0.4-1-0.4c-0.4,0-0.7,0.1-1,0.4c-0.3,0.3-0.4,0.6-0.4,1c0,0.4,0.1,0.8,0.4,1
				C137.8,436.2,138.2,436.3,138.5,436.3z M142.7,436.7c0.3,0,0.6-0.1,0.9-0.2c0.3-0.1,0.5-0.4,0.7-0.7c0.2-0.3,0.2-0.6,0.2-0.9
				c0-0.5-0.2-1-0.5-1.3c-0.3-0.3-0.8-0.5-1.3-0.5c-0.5,0-1,0.2-1.3,0.5s-0.5,0.8-0.5,1.3c0,0.5,0.2,0.9,0.5,1.3
				C141.7,436.5,142.2,436.7,142.7,436.7z"/>
			<path class="st6" d="M147.9,424.9c-0.8,0.6-1.7,1.1-2.7,1.5c-1,0.4-2.1,0.6-3.2,0.6c-1,0-1.9-0.2-2.8-0.5c-1-0.4-2.1-0.9-3.1-1.7
				v-0.8c0.8,0.5,1.5,0.8,1.8,1c0.6,0.2,1.2,0.4,1.8,0.6c0.8,0.2,1.5,0.3,2.3,0.3c2,0,3.9-0.6,5.9-1.8V424.9z"/>
			<path class="st6" d="M144.2,417.4h1.1v5.9c-0.3,0-0.5,0-0.8-0.1c-0.4-0.2-0.8-0.4-1.2-0.7c-0.4-0.3-0.8-0.8-1.4-1.4
				c-0.8-1-1.4-1.6-1.9-2c-0.5-0.3-0.9-0.5-1.3-0.5c-0.4,0-0.8,0.2-1.1,0.5c-0.3,0.3-0.5,0.7-0.5,1.2c0,0.5,0.2,1,0.5,1.3
				c0.3,0.3,0.8,0.5,1.3,0.5l-0.1,1.1c-0.8-0.1-1.5-0.4-1.9-0.9c-0.4-0.5-0.7-1.2-0.7-2c0-0.9,0.2-1.5,0.7-2
				c0.5-0.5,1.1-0.8,1.8-0.8c0.4,0,0.7,0.1,1.1,0.2c0.3,0.1,0.7,0.4,1.1,0.7c0.4,0.3,0.9,0.9,1.6,1.7c0.6,0.7,0.9,1.1,1.1,1.3
				c0.2,0.2,0.4,0.3,0.6,0.5V417.4z"/>
			<path class="st6" d="M142.9,412.7l-0.1-1.2c0.6-0.1,1-0.3,1.3-0.6c0.3-0.3,0.4-0.7,0.4-1.1c0-0.5-0.2-1-0.6-1.3
				c-0.4-0.4-0.9-0.6-1.6-0.6c-0.6,0-1.1,0.2-1.5,0.5c-0.4,0.4-0.5,0.8-0.5,1.4c0,0.4,0.1,0.7,0.2,1c0.2,0.3,0.4,0.5,0.6,0.7l-0.1,1
				l-4.6-0.9v-4.5h1.1v3.6l2.4,0.5c-0.4-0.5-0.6-1.1-0.6-1.7c0-0.8,0.3-1.4,0.8-2c0.5-0.5,1.2-0.8,2.1-0.8c0.8,0,1.5,0.2,2.1,0.7
				c0.7,0.6,1.1,1.4,1.1,2.4c0,0.8-0.2,1.5-0.7,2C144.3,412.3,143.7,412.6,142.9,412.7z"/>
			<path class="st6" d="M145.4,406.3l-9.3-2.6v-0.9l9.3,2.6V406.3z"/>
			<path class="st6" d="M140.4,400.6c-0.2,0.5-0.4,0.8-0.7,1c-0.3,0.2-0.7,0.3-1.1,0.3c-0.7,0-1.2-0.2-1.6-0.7
				c-0.4-0.5-0.7-1.1-0.7-1.9c0-0.8,0.2-1.4,0.7-1.9c0.5-0.5,1-0.7,1.7-0.7c0.4,0,0.8,0.1,1.1,0.3s0.5,0.5,0.7,1
				c0.2-0.6,0.5-1,0.9-1.3c0.4-0.3,0.9-0.4,1.4-0.4c0.8,0,1.4,0.3,1.9,0.8c0.5,0.5,0.8,1.3,0.8,2.1c0,0.9-0.3,1.6-0.8,2.1
				c-0.5,0.5-1.2,0.8-2,0.8c-0.6,0-1.1-0.1-1.5-0.4S140.6,401.1,140.4,400.6z M138.5,400.8c0.4,0,0.8-0.1,1-0.4s0.4-0.6,0.4-1.1
				c0-0.4-0.1-0.8-0.4-1c-0.3-0.3-0.6-0.4-1-0.4c-0.4,0-0.7,0.1-1,0.4c-0.3,0.3-0.4,0.6-0.4,1c0,0.4,0.1,0.8,0.4,1
				C137.8,400.7,138.2,400.8,138.5,400.8z M142.7,401.1c0.3,0,0.6-0.1,0.9-0.2c0.3-0.1,0.5-0.4,0.7-0.7c0.2-0.3,0.2-0.6,0.2-0.9
				c0-0.5-0.2-1-0.5-1.3c-0.3-0.3-0.8-0.5-1.3-0.5c-0.5,0-1,0.2-1.3,0.5s-0.5,0.8-0.5,1.3c0,0.5,0.2,0.9,0.5,1.3
				C141.7,401,142.2,401.1,142.7,401.1z"/>
			<path class="st6" d="M139.5,392.9l-1.7,0.3h-1.5V392h1.5l1.7,0.3V392.9z M139.5,394.9l-1.7,0.3h-1.5V394h1.5l1.7,0.3V394.9z"/>
			<path class="st6" d="M147.9,389.8v0.8c-2-1.2-3.9-1.8-5.9-1.8c-0.8,0-1.5,0.1-2.3,0.3c-0.6,0.1-1.2,0.3-1.8,0.6
				c-0.4,0.2-1,0.5-1.8,1v-0.8c1-0.8,2.1-1.3,3.1-1.7c0.9-0.3,1.8-0.5,2.8-0.5c1.1,0,2.2,0.2,3.2,0.6
				C146.2,388.7,147.1,389.2,147.9,389.8z"/>
		</g>
		<g>
			<path class="st6" d="M144.2,684.5h1.1v5.9c-0.3,0-0.5,0-0.8-0.1c-0.4-0.2-0.8-0.4-1.2-0.7c-0.4-0.3-0.8-0.8-1.4-1.4
				c-0.8-1-1.4-1.6-1.9-2c-0.5-0.3-0.9-0.5-1.3-0.5c-0.4,0-0.8,0.2-1.1,0.5c-0.3,0.3-0.5,0.7-0.5,1.2c0,0.5,0.2,1,0.5,1.3
				c0.3,0.3,0.8,0.5,1.3,0.5l-0.1,1.1c-0.8-0.1-1.5-0.4-1.9-0.9c-0.4-0.5-0.7-1.2-0.7-2c0-0.9,0.2-1.5,0.7-2
				c0.5-0.5,1.1-0.8,1.8-0.8c0.4,0,0.7,0.1,1.1,0.2c0.3,0.1,0.7,0.4,1.1,0.7c0.4,0.3,0.9,0.9,1.6,1.7c0.6,0.7,0.9,1.1,1.1,1.3
				c0.2,0.2,0.4,0.3,0.6,0.5V684.5z"/>
			<path class="st6" d="M144.2,677.6h1.1v5.9c-0.3,0-0.5,0-0.8-0.1c-0.4-0.2-0.8-0.4-1.2-0.7c-0.4-0.3-0.8-0.8-1.4-1.4
				c-0.8-1-1.4-1.6-1.9-2c-0.5-0.3-0.9-0.5-1.3-0.5c-0.4,0-0.8,0.2-1.1,0.5c-0.3,0.3-0.5,0.7-0.5,1.2c0,0.5,0.2,1,0.5,1.3
				c0.3,0.3,0.8,0.5,1.3,0.5l-0.1,1.1c-0.8-0.1-1.5-0.4-1.9-0.9c-0.4-0.5-0.7-1.2-0.7-2c0-0.9,0.2-1.5,0.7-2
				c0.5-0.5,1.1-0.8,1.8-0.8c0.4,0,0.7,0.1,1.1,0.2c0.3,0.1,0.7,0.4,1.1,0.7c0.4,0.3,0.9,0.9,1.6,1.7c0.6,0.7,0.9,1.1,1.1,1.3
				c0.2,0.2,0.4,0.3,0.6,0.5V677.6z"/>
			<path class="st6" d="M145.3,675.8H144v-1.3h1.3V675.8z"/>
			<path class="st6" d="M144.2,667.1h1.1v5.9c-0.3,0-0.5,0-0.8-0.1c-0.4-0.2-0.8-0.4-1.2-0.7c-0.4-0.3-0.8-0.8-1.4-1.4
				c-0.8-1-1.4-1.6-1.9-2c-0.5-0.3-0.9-0.5-1.3-0.5c-0.4,0-0.8,0.2-1.1,0.5c-0.3,0.3-0.5,0.7-0.5,1.2c0,0.5,0.2,1,0.5,1.3
				c0.3,0.3,0.8,0.5,1.3,0.5l-0.1,1.1c-0.8-0.1-1.5-0.4-1.9-0.9c-0.4-0.5-0.7-1.2-0.7-2c0-0.9,0.2-1.5,0.7-2
				c0.5-0.5,1.1-0.8,1.8-0.8c0.4,0,0.7,0.1,1.1,0.2c0.3,0.1,0.7,0.4,1.1,0.7c0.4,0.3,0.9,0.9,1.6,1.7c0.6,0.7,0.9,1.1,1.1,1.3
				c0.2,0.2,0.4,0.3,0.6,0.5V667.1z"/>
			<path class="st6" d="M142.9,665.9l-0.1-1.1c0.6-0.1,1.1-0.3,1.3-0.6s0.4-0.7,0.4-1.1c0-0.5-0.2-1-0.5-1.3
				c-0.4-0.4-0.8-0.5-1.3-0.5c-0.5,0-0.9,0.2-1.3,0.5c-0.3,0.3-0.5,0.8-0.5,1.3c0,0.2,0,0.5,0.1,0.8l-1-0.1c0-0.1,0-0.1,0-0.2
				c0-0.5-0.1-0.9-0.4-1.3c-0.2-0.4-0.6-0.6-1.1-0.6c-0.4,0-0.7,0.1-1,0.4c-0.3,0.3-0.4,0.6-0.4,1.1c0,0.4,0.1,0.8,0.4,1.1
				c0.3,0.3,0.7,0.5,1.2,0.6l-0.2,1.1c-0.7-0.1-1.3-0.4-1.7-0.9c-0.4-0.5-0.6-1.1-0.6-1.8c0-0.5,0.1-0.9,0.3-1.4
				c0.2-0.4,0.5-0.7,0.9-0.9c0.4-0.2,0.7-0.3,1.2-0.3c0.4,0,0.7,0.1,1.1,0.3s0.6,0.5,0.8,0.9c0.1-0.5,0.4-0.9,0.8-1.2
				c0.4-0.3,0.9-0.4,1.4-0.4c0.8,0,1.4,0.3,2,0.9c0.5,0.6,0.8,1.3,0.8,2.2c0,0.8-0.2,1.4-0.7,2C144.3,665.6,143.7,665.9,142.9,665.9
				z"/>
			<path class="st6" d="M147.9,653.1c-0.8,0.6-1.7,1.1-2.7,1.5c-1,0.4-2.1,0.6-3.2,0.6c-1,0-1.9-0.2-2.8-0.5c-1-0.4-2.1-0.9-3.1-1.7
				v-0.8c0.8,0.5,1.5,0.8,1.8,1c0.6,0.2,1.2,0.4,1.8,0.6c0.8,0.2,1.5,0.3,2.3,0.3c2,0,3.9-0.6,5.9-1.8V653.1z"/>
			<path class="st6" d="M137.5,651.2h-1.1v-5.8h0.9c0.6,0.6,1.4,1.1,2.4,1.7c1,0.6,2,1,3.1,1.3c0.8,0.2,1.6,0.4,2.5,0.4v1.1
				c-0.7,0-1.6-0.2-2.6-0.4c-1-0.3-2-0.6-2.9-1.1c-0.9-0.5-1.7-1-2.3-1.6V651.2z"/>
			<path class="st6" d="M145.4,644.9l-9.3-2.6v-0.9l9.3,2.6V644.9z"/>
			<path class="st6" d="M140.4,639.2c-0.2,0.5-0.4,0.8-0.7,1c-0.3,0.2-0.7,0.3-1.1,0.3c-0.7,0-1.2-0.2-1.6-0.7
				c-0.4-0.5-0.7-1.1-0.7-1.9c0-0.8,0.2-1.4,0.7-1.9c0.5-0.5,1-0.7,1.7-0.7c0.4,0,0.8,0.1,1.1,0.3c0.3,0.2,0.5,0.5,0.7,1
				c0.2-0.6,0.5-1,0.9-1.3c0.4-0.3,0.9-0.4,1.4-0.4c0.8,0,1.4,0.3,1.9,0.8c0.5,0.5,0.8,1.3,0.8,2.1c0,0.9-0.3,1.6-0.8,2.1
				c-0.5,0.5-1.2,0.8-2,0.8c-0.6,0-1.1-0.1-1.5-0.4S140.6,639.7,140.4,639.2z M138.5,639.4c0.4,0,0.8-0.1,1-0.4s0.4-0.6,0.4-1.1
				c0-0.4-0.1-0.8-0.4-1c-0.3-0.3-0.6-0.4-1-0.4c-0.4,0-0.7,0.1-1,0.4c-0.3,0.3-0.4,0.6-0.4,1c0,0.4,0.1,0.8,0.4,1
				C137.8,639.3,138.2,639.4,138.5,639.4z M142.7,639.8c0.3,0,0.6-0.1,0.9-0.2c0.3-0.1,0.5-0.4,0.7-0.7c0.2-0.3,0.2-0.6,0.2-0.9
				c0-0.5-0.2-1-0.5-1.3c-0.3-0.3-0.8-0.5-1.3-0.5c-0.5,0-1,0.2-1.3,0.5s-0.5,0.8-0.5,1.3c0,0.5,0.2,0.9,0.5,1.3
				C141.7,639.6,142.2,639.8,142.7,639.8z"/>
			<path class="st6" d="M139.5,631.5l-1.7,0.3h-1.5v-1.3h1.5l1.7,0.3V631.5z M139.5,633.5l-1.7,0.3h-1.5v-1.3h1.5l1.7,0.3V633.5z"/>
			<path class="st6" d="M147.9,628.4v0.8c-2-1.2-3.9-1.8-5.9-1.8c-0.8,0-1.5,0.1-2.3,0.3c-0.6,0.1-1.2,0.3-1.8,0.6
				c-0.4,0.2-1,0.5-1.8,1v-0.8c1-0.8,2.1-1.3,3.1-1.7c0.9-0.3,1.8-0.5,2.8-0.5c1.1,0,2.2,0.2,3.2,0.6
				C146.2,627.3,147.1,627.8,147.9,628.4z"/>
		</g>
		<g>
			<defs>
				<rect id="SVGID_3_" x="98.1" y="5.6" width="825.2" height="771.1"/>
			</defs>
			<clipPath id="SVGID_4_">
				<use xlink:href="#SVGID_3_"  style="overflow:visible;"/>
			</clipPath>
			<g class="st33">
				<path class="st6" d="M107.1,425.3v1.1h-7c0.3,0.3,0.5,0.6,0.8,1c0.3,0.4,0.4,0.8,0.6,1.2h-1.1c-0.3-0.6-0.6-1.2-1.1-1.6
					c-0.4-0.5-0.8-0.8-1.2-1v-0.7H107.1z"/>
				<path class="st6" d="M106.1,416.7h1.1v5.9c-0.3,0-0.5,0-0.8-0.1c-0.4-0.2-0.8-0.4-1.2-0.7c-0.4-0.3-0.8-0.8-1.4-1.4
					c-0.8-1-1.4-1.6-1.9-2c-0.5-0.3-0.9-0.5-1.3-0.5c-0.4,0-0.8,0.2-1.1,0.5c-0.3,0.3-0.5,0.7-0.5,1.2c0,0.5,0.2,1,0.5,1.3
					c0.3,0.3,0.8,0.5,1.3,0.5l-0.1,1.1c-0.8-0.1-1.5-0.4-1.9-0.9c-0.4-0.5-0.7-1.2-0.7-2c0-0.9,0.2-1.5,0.7-2
					c0.5-0.5,1.1-0.8,1.8-0.8c0.4,0,0.7,0.1,1.1,0.2c0.3,0.1,0.7,0.4,1.1,0.7c0.4,0.3,0.9,0.9,1.6,1.7c0.6,0.7,0.9,1.1,1.1,1.3
					c0.2,0.2,0.4,0.3,0.6,0.5V416.7z"/>
			</g>
		</g>
		<g>
			<path class="st6" d="M99.3,415.5h-1.1v-5.8h0.9c0.6,0.6,1.4,1.1,2.4,1.7c1,0.6,2,1,3.1,1.3c0.8,0.2,1.6,0.4,2.5,0.4v1.1
				c-0.7,0-1.6-0.2-2.6-0.4c-1-0.3-2-0.6-2.9-1.1c-0.9-0.5-1.7-1-2.3-1.6V415.5z"/>
		</g>
		<g>
			<defs>
				<rect id="SVGID_5_" x="98.1" y="5.6" width="825.2" height="771.1"/>
			</defs>
			<clipPath id="SVGID_6_">
				<use xlink:href="#SVGID_5_"  style="overflow:visible;"/>
			</clipPath>
			<g class="st34">
				<path class="st6" d="M109.7,402.7c-0.8,0.6-1.7,1.1-2.7,1.5c-1,0.4-2.1,0.6-3.2,0.6c-1,0-1.9-0.2-2.8-0.5
					c-1-0.4-2.1-0.9-3.1-1.7v-0.8c0.8,0.5,1.5,0.8,1.8,1c0.6,0.2,1.2,0.4,1.8,0.6c0.8,0.2,1.5,0.3,2.3,0.3c2,0,3.9-0.6,5.9-1.8
					V402.7z"/>
			</g>
		</g>
		<g>
			<path class="st6" d="M104.8,401l-0.1-1.2c0.6-0.1,1-0.3,1.3-0.6c0.3-0.3,0.4-0.7,0.4-1.1c0-0.5-0.2-1-0.6-1.3
				c-0.4-0.4-0.9-0.6-1.6-0.6c-0.6,0-1.1,0.2-1.5,0.5c-0.4,0.4-0.5,0.8-0.5,1.4c0,0.4,0.1,0.7,0.2,1c0.2,0.3,0.4,0.5,0.6,0.7l-0.1,1
				l-4.6-0.9v-4.5h1.1v3.6l2.4,0.5c-0.4-0.5-0.6-1.1-0.6-1.7c0-0.8,0.3-1.4,0.8-2c0.5-0.5,1.2-0.8,2.1-0.8c0.8,0,1.5,0.2,2.1,0.7
				c0.7,0.6,1.1,1.4,1.1,2.4c0,0.8-0.2,1.5-0.7,2C106.1,400.6,105.5,400.9,104.8,401z"/>
			<path class="st6" d="M101.3,391.6l-1.7,0.3h-1.5v-1.3h1.5l1.7,0.3V391.6z M101.3,393.6l-1.7,0.3h-1.5v-1.3h1.5l1.7,0.3V393.6z"/>
		</g>
		<g>
			<defs>
				<rect id="SVGID_7_" x="98.1" y="5.6" width="825.2" height="771.1"/>
			</defs>
			<clipPath id="SVGID_8_">
				<use xlink:href="#SVGID_7_"  style="overflow:visible;"/>
			</clipPath>
			<g class="st35">
				<path class="st6" d="M109.7,388.5v0.8c-2-1.2-3.9-1.8-5.9-1.8c-0.8,0-1.5,0.1-2.3,0.3c-0.6,0.1-1.2,0.3-1.8,0.6
					c-0.4,0.2-1,0.5-1.8,1v-0.8c1-0.8,2.1-1.3,3.1-1.7c0.9-0.3,1.8-0.5,2.8-0.5c1.1,0,2.2,0.2,3.2,0.6
					C108.1,387.4,109,387.9,109.7,388.5z"/>
			</g>
		</g>
		<g>
			<path class="st6" d="M142.9,191l-0.1-1.1c0.6-0.1,1.1-0.3,1.3-0.6c0.3-0.3,0.4-0.7,0.4-1.1c0-0.5-0.2-1-0.5-1.3
				c-0.4-0.4-0.8-0.5-1.3-0.5c-0.5,0-0.9,0.2-1.3,0.5c-0.3,0.3-0.5,0.8-0.5,1.3c0,0.2,0,0.5,0.1,0.8l-1-0.1c0-0.1,0-0.1,0-0.2
				c0-0.5-0.1-0.9-0.4-1.3c-0.2-0.4-0.6-0.6-1.1-0.6c-0.4,0-0.7,0.1-1,0.4c-0.3,0.3-0.4,0.6-0.4,1.1c0,0.4,0.1,0.8,0.4,1.1
				c0.3,0.3,0.7,0.5,1.2,0.6l-0.2,1.1c-0.7-0.1-1.3-0.4-1.7-0.9c-0.4-0.5-0.6-1.1-0.6-1.8c0-0.5,0.1-0.9,0.3-1.4s0.5-0.7,0.9-0.9
				c0.4-0.2,0.7-0.3,1.2-0.3c0.4,0,0.7,0.1,1.1,0.3s0.6,0.5,0.8,0.9c0.1-0.5,0.4-0.9,0.8-1.2c0.4-0.3,0.9-0.4,1.4-0.4
				c0.8,0,1.4,0.3,2,0.9c0.5,0.6,0.8,1.3,0.8,2.2c0,0.8-0.2,1.4-0.7,2C144.3,190.6,143.7,190.9,142.9,191z"/>
			<path class="st6" d="M140.4,182.4c-0.2,0.5-0.4,0.8-0.7,1c-0.3,0.2-0.7,0.3-1.1,0.3c-0.7,0-1.2-0.2-1.6-0.7
				c-0.4-0.5-0.7-1.1-0.7-1.9c0-0.8,0.2-1.4,0.7-1.9c0.5-0.5,1-0.7,1.7-0.7c0.4,0,0.8,0.1,1.1,0.3s0.5,0.5,0.7,1
				c0.2-0.6,0.5-1,0.9-1.3c0.4-0.3,0.9-0.4,1.4-0.4c0.8,0,1.4,0.3,1.9,0.8c0.5,0.5,0.8,1.3,0.8,2.1c0,0.9-0.3,1.6-0.8,2.1
				c-0.5,0.5-1.2,0.8-2,0.8c-0.6,0-1.1-0.1-1.5-0.4C140.8,183.3,140.6,182.9,140.4,182.4z M138.5,182.6c0.4,0,0.8-0.1,1-0.4
				c0.3-0.3,0.4-0.6,0.4-1.1c0-0.4-0.1-0.8-0.4-1c-0.3-0.3-0.6-0.4-1-0.4c-0.4,0-0.7,0.1-1,0.4s-0.4,0.6-0.4,1c0,0.4,0.1,0.8,0.4,1
				C137.8,182.4,138.2,182.6,138.5,182.6z M142.7,182.9c0.3,0,0.6-0.1,0.9-0.2c0.3-0.1,0.5-0.4,0.7-0.7c0.2-0.3,0.2-0.6,0.2-0.9
				c0-0.5-0.2-1-0.5-1.3c-0.3-0.3-0.8-0.5-1.3-0.5c-0.5,0-1,0.2-1.3,0.5c-0.3,0.4-0.5,0.8-0.5,1.3c0,0.5,0.2,0.9,0.5,1.3
				C141.7,182.8,142.2,182.9,142.7,182.9z"/>
			<path class="st6" d="M145.3,176.5H144v-1.3h1.3V176.5z"/>
			<path class="st6" d="M145.3,169.5v1.1h-7c0.3,0.3,0.5,0.6,0.8,1c0.3,0.4,0.4,0.8,0.6,1.2h-1.1c-0.3-0.6-0.6-1.2-1.1-1.6
				c-0.4-0.5-0.8-0.8-1.2-1v-0.7H145.3z"/>
			<path class="st6" d="M140.9,166.6c-1.1,0-1.9-0.1-2.6-0.3s-1.1-0.5-1.5-1c-0.4-0.4-0.5-1-0.5-1.6c0-0.5,0.1-0.9,0.3-1.3
				c0.2-0.4,0.5-0.7,0.8-0.9c0.4-0.2,0.8-0.4,1.3-0.6c0.5-0.1,1.2-0.2,2.1-0.2c1.1,0,1.9,0.1,2.5,0.3c0.6,0.2,1.1,0.5,1.5,1
				c0.4,0.4,0.5,1,0.5,1.6c0,0.9-0.3,1.5-0.9,2C143.8,166.3,142.5,166.6,140.9,166.6z M140.9,165.5c1.5,0,2.5-0.2,2.9-0.5
				c0.5-0.3,0.7-0.8,0.7-1.3c0-0.5-0.2-0.9-0.7-1.3s-1.5-0.5-2.9-0.5c-1.5,0-2.5,0.2-2.9,0.5s-0.7,0.8-0.7,1.3
				c0,0.5,0.2,0.9,0.6,1.2C138.4,165.3,139.4,165.5,140.9,165.5z"/>
			<path class="st6" d="M147.9,153.8c-0.8,0.6-1.7,1.1-2.7,1.5c-1,0.4-2.1,0.6-3.2,0.6c-1,0-1.9-0.2-2.8-0.5c-1-0.4-2.1-0.9-3.1-1.7
				V153c0.8,0.5,1.5,0.8,1.8,1c0.6,0.2,1.2,0.4,1.8,0.6c0.8,0.2,1.5,0.3,2.3,0.3c2,0,3.9-0.6,5.9-1.8V153.8z"/>
			<path class="st6" d="M145.3,147.9v1.1h-7c0.3,0.3,0.5,0.6,0.8,1c0.3,0.4,0.4,0.8,0.6,1.2h-1.1c-0.3-0.6-0.6-1.2-1.1-1.6
				c-0.4-0.5-0.8-0.8-1.2-1v-0.7H145.3z"/>
			<path class="st6" d="M145.3,137.4v1.1h-7c0.3,0.3,0.5,0.6,0.8,1c0.3,0.4,0.4,0.8,0.6,1.2h-1.1c-0.3-0.6-0.6-1.2-1.1-1.6
				c-0.4-0.5-0.8-0.8-1.2-1v-0.7H145.3z"/>
			<path class="st6" d="M145.4,135.1l-9.3-2.6v-0.9l9.3,2.6V135.1z"/>
			<path class="st6" d="M144.2,125.3h1.1v5.9c-0.3,0-0.5,0-0.8-0.1c-0.4-0.2-0.8-0.4-1.2-0.7c-0.4-0.3-0.8-0.8-1.4-1.4
				c-0.8-1-1.4-1.6-1.9-2c-0.5-0.3-0.9-0.5-1.3-0.5c-0.4,0-0.8,0.2-1.1,0.5s-0.5,0.7-0.5,1.2c0,0.5,0.2,1,0.5,1.3
				c0.3,0.3,0.8,0.5,1.3,0.5l-0.1,1.1c-0.8-0.1-1.5-0.4-1.9-0.9c-0.4-0.5-0.7-1.2-0.7-2c0-0.9,0.2-1.5,0.7-2
				c0.5-0.5,1.1-0.8,1.8-0.8c0.4,0,0.7,0.1,1.1,0.2c0.3,0.1,0.7,0.4,1.1,0.7c0.4,0.3,0.9,0.9,1.6,1.7c0.6,0.7,0.9,1.1,1.1,1.3
				c0.2,0.2,0.4,0.3,0.6,0.5V125.3z"/>
			<path class="st6" d="M139.5,121.8l-1.7,0.3h-1.5v-1.3h1.5l1.7,0.3V121.8z M139.5,123.8l-1.7,0.3h-1.5v-1.3h1.5l1.7,0.3V123.8z"/>
			<path class="st6" d="M147.9,118.7v0.8c-2-1.2-3.9-1.8-5.9-1.8c-0.8,0-1.5,0.1-2.3,0.3c-0.6,0.1-1.2,0.3-1.8,0.6
				c-0.4,0.2-1,0.5-1.8,1v-0.8c1-0.8,2.1-1.3,3.1-1.7c0.9-0.3,1.8-0.5,2.8-0.5c1.1,0,2.2,0.2,3.2,0.6
				C146.2,117.6,147.1,118.1,147.9,118.7z"/>
		</g>
		<g>
			<path class="st6" d="M573.2,575.8l-5.6-7l3.1-2.5c0.6-0.5,1.1-0.8,1.6-1c0.4-0.1,0.9-0.1,1.3,0s0.8,0.4,1.1,0.8
				c0.4,0.5,0.6,1,0.5,1.6c0,0.6-0.4,1.2-1,1.8c0.3-0.1,0.6-0.1,0.8-0.1c0.5,0,1,0.1,1.5,0.3l2.7,0.9l-1.2,0.9l-2.1-0.7
				c-0.6-0.2-1.1-0.3-1.4-0.4c-0.4-0.1-0.6-0.1-0.8-0.1c-0.2,0-0.4,0.1-0.6,0.2c-0.1,0.1-0.3,0.2-0.5,0.4l-1.1,0.9l2.5,3.1
				L573.2,575.8z M571,571.1l2-1.6c0.4-0.3,0.7-0.7,0.9-0.9c0.2-0.3,0.2-0.6,0.2-0.9c0-0.3-0.1-0.6-0.3-0.8c-0.3-0.3-0.6-0.5-1-0.5
				c-0.4,0-0.9,0.2-1.4,0.6l-2.2,1.8L571,571.1z"/>
			<path class="st6" d="M580.1,561.5l-0.8,0.8c-0.3-0.3-0.7-0.4-0.9-0.5c-0.4-0.1-0.8,0.1-1.2,0.3c-0.3,0.2-0.5,0.5-0.5,0.8
				c-0.1,0.4-0.1,0.9,0.1,1.4c0.1,0.5,0.5,1.1,1.1,1.8c0-0.5,0-0.9,0.2-1.3c0.2-0.4,0.4-0.7,0.8-1c0.6-0.5,1.2-0.6,2-0.5
				c0.7,0.1,1.4,0.5,1.9,1.1c0.4,0.4,0.6,0.9,0.7,1.5c0.1,0.5,0.1,1-0.1,1.5c-0.2,0.5-0.5,0.9-0.9,1.2c-0.7,0.6-1.5,0.8-2.4,0.6
				c-0.9-0.2-1.8-0.8-2.8-2.1c-1.1-1.3-1.6-2.5-1.6-3.5c0-0.9,0.4-1.6,1.1-2.2c0.5-0.4,1.1-0.7,1.7-0.6
				C579.1,560.8,579.6,561,580.1,561.5z M579,567.3c0.2,0.3,0.5,0.5,0.9,0.7c0.3,0.2,0.7,0.2,1,0.2c0.3,0,0.6-0.2,0.9-0.4
				c0.4-0.3,0.6-0.7,0.6-1.2c0-0.5-0.2-1-0.6-1.5c-0.4-0.5-0.8-0.8-1.3-0.8c-0.5-0.1-0.9,0.1-1.3,0.4c-0.4,0.3-0.6,0.7-0.7,1.2
				C578.5,566.4,578.7,566.9,579,567.3z"/>
			<path class="st6" d="M585.8,565.6l-0.8-1l1-0.8l0.8,1L585.8,565.6z"/>
			<path class="st6" d="M586.6,562l0.8-0.8c0.5,0.4,0.9,0.6,1.3,0.6c0.4,0,0.8-0.1,1.1-0.4c0.4-0.3,0.6-0.7,0.7-1.2
				c0.1-0.5-0.1-1-0.4-1.4c-0.3-0.4-0.7-0.6-1.2-0.7c-0.5,0-0.9,0.1-1.3,0.4c-0.2,0.1-0.3,0.3-0.5,0.6l-0.5-0.8
				c0.1,0,0.1-0.1,0.1-0.1c0.4-0.3,0.6-0.7,0.8-1.1c0.1-0.4,0-0.8-0.3-1.2c-0.3-0.3-0.6-0.5-1-0.5c-0.4,0-0.7,0.1-1.1,0.4
				c-0.3,0.3-0.5,0.6-0.6,1c-0.1,0.4,0.1,0.8,0.3,1.3l-1,0.5c-0.4-0.7-0.5-1.3-0.4-1.9c0.1-0.6,0.5-1.1,1-1.6
				c0.4-0.3,0.8-0.5,1.2-0.6s0.9-0.1,1.3,0.1c0.4,0.1,0.7,0.4,1,0.7c0.2,0.3,0.4,0.6,0.4,1c0,0.4,0,0.8-0.2,1.2
				c0.5-0.2,1-0.3,1.4-0.2c0.5,0.1,0.9,0.4,1.3,0.8c0.5,0.6,0.7,1.3,0.6,2.1c-0.1,0.8-0.5,1.4-1.2,2c-0.6,0.5-1.3,0.7-2,0.7
				C587.7,562.8,587.1,562.5,586.6,562z"/>
			<path class="st6" d="M592,557.6l0.8-0.8c0.4,0.4,0.8,0.6,1.3,0.6c0.4,0,0.8-0.1,1.1-0.4c0.4-0.3,0.6-0.8,0.7-1.3
				c0-0.5-0.2-1.1-0.6-1.6c-0.4-0.5-0.8-0.8-1.3-0.8s-1,0.1-1.4,0.4c-0.3,0.2-0.5,0.5-0.6,0.8c-0.1,0.3-0.2,0.6-0.1,0.9L591,556
				l-2.2-4.1l3.5-2.8l0.7,0.8l-2.8,2.2l1.1,2.2c0.2-0.6,0.5-1.1,1-1.5c0.6-0.5,1.3-0.7,2.1-0.6c0.8,0.1,1.4,0.5,1.9,1.1
				c0.5,0.6,0.8,1.3,0.8,2.1c0,0.9-0.4,1.7-1.1,2.3c-0.6,0.5-1.3,0.8-2,0.7C593.1,558.4,592.5,558.1,592,557.6z"/>
			<path class="st6" d="M605.1,553.4c-1-0.2-1.9-0.6-2.9-1.1c-1-0.5-1.8-1.2-2.5-2.1c-0.6-0.8-1.1-1.6-1.4-2.5
				c-0.4-1-0.6-2.2-0.6-3.5l0.6-0.5c0.1,1,0.3,1.6,0.4,2c0.2,0.6,0.4,1.2,0.6,1.7c0.3,0.7,0.8,1.4,1.2,2c1.2,1.5,2.9,2.7,5.1,3.4
				L605.1,553.4z"/>
			<path class="st6" d="M608.1,547.6l-0.9,0.7l-4.4-5.5c0,0.4-0.2,0.8-0.3,1.2c-0.2,0.5-0.4,0.9-0.5,1.2l-0.7-0.8
				c0.3-0.6,0.5-1.2,0.6-1.8c0.1-0.6,0.1-1.1,0-1.5l0.6-0.4L608.1,547.6z"/>
			<path class="st6" d="M610,546.3l-3.8-8.8l0.7-0.6l3.8,8.8L610,546.3z"/>
			<path class="st6" d="M615.7,541.5l-1.3-1.7l-3,2.4l-0.6-0.8l-0.5-7.1l0.7-0.6l3.7,4.5l0.9-0.8l0.6,0.8l-0.9,0.8l1.3,1.7
				L615.7,541.5z M613.7,539l-2.5-3.1l0.4,4.9L613.7,539z"/>
			<path class="st6" d="M615,534.6l-1.3-1.1l-0.9-1.1l1-0.8l0.9,1.1l0.9,1.5L615,534.6z M616.6,533.3l-1.3-1.1l-0.9-1.1l1-0.8
				l0.9,1.1l0.8,1.5L616.6,533.3z"/>
			<path class="st6" d="M624.3,537.9l-0.6,0.5c-0.3-2.3-1-4.2-2.3-5.7c-0.5-0.6-1-1.1-1.6-1.6c-0.5-0.4-1-0.7-1.6-1
				c-0.4-0.2-1-0.5-1.9-0.8l0.6-0.5c1.2,0.3,2.3,0.8,3.3,1.3c0.8,0.5,1.5,1.1,2.1,1.9c0.7,0.9,1.2,1.8,1.5,2.9
				C624.1,535.9,624.3,536.9,624.3,537.9z"/>
		</g>
		<line class="st30" x1="564.3" y1="591.2" x2="627.9" y2="539.8"/>
		<polygon class="st31" points="569.4,592.6 553.4,599.7 563.7,585.6 		"/>
		<path class="st27" d="M478.6,425.4h46.8 M536.9,425.4h115.9"/>
		<polygon class="st31" points="481.1,429 467,425.2 481.1,421.4 		"/>
		<polygon class="st31" points="522.7,429 536.9,425.2 522.7,421.4 		"/>
		<g>
			<path class="st6" d="M579.9,421h-1.1v-7c-0.3,0.3-0.6,0.5-1,0.8c-0.4,0.3-0.8,0.4-1.2,0.6v-1.1c0.6-0.3,1.2-0.6,1.6-1.1
				c0.5-0.4,0.8-0.8,1-1.2h0.7V421z"/>
			<path class="st6" d="M582.7,418.7l1.1-0.1c0.1,0.6,0.3,1.1,0.6,1.3s0.7,0.4,1.1,0.4c0.5,0,1-0.2,1.3-0.5c0.4-0.4,0.5-0.8,0.5-1.3
				c0-0.5-0.2-0.9-0.5-1.3c-0.3-0.3-0.8-0.5-1.3-0.5c-0.2,0-0.5,0-0.8,0.1l0.1-1c0.1,0,0.1,0,0.2,0c0.5,0,0.9-0.1,1.3-0.4
				c0.4-0.2,0.6-0.6,0.6-1.1c0-0.4-0.1-0.7-0.4-1c-0.3-0.3-0.6-0.4-1.1-0.4c-0.4,0-0.8,0.1-1.1,0.4c-0.3,0.3-0.5,0.7-0.6,1.2
				l-1.1-0.2c0.1-0.7,0.4-1.3,0.9-1.7c0.5-0.4,1.1-0.6,1.8-0.6c0.5,0,0.9,0.1,1.4,0.3c0.4,0.2,0.7,0.5,0.9,0.9
				c0.2,0.4,0.3,0.7,0.3,1.2c0,0.4-0.1,0.7-0.3,1.1s-0.5,0.6-0.9,0.8c0.5,0.1,0.9,0.4,1.2,0.8c0.3,0.4,0.4,0.9,0.4,1.4
				c0,0.8-0.3,1.4-0.9,2c-0.6,0.5-1.3,0.8-2.2,0.8c-0.8,0-1.4-0.2-2-0.7C583.1,420,582.8,419.4,582.7,418.7z"/>
			<path class="st6" d="M590.3,421v-1.3h1.3v1.3H590.3z"/>
			<path class="st6" d="M593.1,418.7l1.2-0.1c0.1,0.6,0.3,1,0.6,1.3c0.3,0.3,0.7,0.4,1.1,0.4c0.5,0,1-0.2,1.3-0.6
				c0.4-0.4,0.6-0.9,0.6-1.6c0-0.6-0.2-1.1-0.5-1.5c-0.4-0.4-0.8-0.5-1.4-0.5c-0.4,0-0.7,0.1-1,0.2c-0.3,0.2-0.5,0.4-0.7,0.6l-1-0.1
				l0.9-4.6h4.5v1.1h-3.6l-0.5,2.4c0.5-0.4,1.1-0.6,1.7-0.6c0.8,0,1.4,0.3,2,0.8c0.5,0.5,0.8,1.2,0.8,2.1c0,0.8-0.2,1.5-0.7,2.1
				c-0.6,0.7-1.4,1.1-2.4,1.1c-0.8,0-1.5-0.2-2-0.7C593.5,420.1,593.2,419.5,593.1,418.7z"/>
			<path class="st6" d="M600.1,416.6c0-1.1,0.1-1.9,0.3-2.6c0.2-0.6,0.5-1.1,1-1.5c0.4-0.4,1-0.5,1.6-0.5c0.5,0,0.9,0.1,1.3,0.3
				c0.4,0.2,0.7,0.5,0.9,0.8c0.2,0.4,0.4,0.8,0.6,1.3c0.1,0.5,0.2,1.2,0.2,2.1c0,1.1-0.1,1.9-0.3,2.5c-0.2,0.6-0.5,1.1-1,1.5
				c-0.4,0.4-1,0.5-1.6,0.5c-0.9,0-1.5-0.3-2-0.9C600.4,419.5,600.1,418.3,600.1,416.6z M601.2,416.6c0,1.5,0.2,2.5,0.5,2.9
				s0.8,0.7,1.3,0.7s0.9-0.2,1.3-0.7s0.5-1.5,0.5-2.9c0-1.5-0.2-2.5-0.5-2.9s-0.8-0.7-1.3-0.7c-0.5,0-0.9,0.2-1.2,0.6
				C601.4,414.1,601.2,415.2,601.2,416.6z"/>
			<path class="st6" d="M613,423.7c-0.6-0.8-1.1-1.7-1.5-2.7c-0.4-1-0.6-2.1-0.6-3.2c0-1,0.2-1.9,0.5-2.8c0.4-1,0.9-2.1,1.7-3.1h0.8
				c-0.5,0.8-0.8,1.5-1,1.8c-0.2,0.6-0.4,1.2-0.6,1.8c-0.2,0.8-0.3,1.5-0.3,2.3c0,2,0.6,3.9,1.8,5.9H613z"/>
			<path class="st6" d="M618.9,421h-1.1v-7c-0.3,0.3-0.6,0.5-1,0.8c-0.4,0.3-0.8,0.4-1.2,0.6v-1.1c0.6-0.3,1.2-0.6,1.6-1.1
				c0.5-0.4,0.8-0.8,1-1.2h0.7V421z"/>
			<path class="st6" d="M621.8,413.3v-1.1h5.8v0.9c-0.6,0.6-1.1,1.4-1.7,2.4c-0.6,1-1,2-1.3,3.1c-0.2,0.8-0.4,1.6-0.4,2.5H623
				c0-0.7,0.2-1.6,0.4-2.6c0.3-1,0.6-2,1.1-2.9c0.5-0.9,1-1.7,1.6-2.3H621.8z"/>
			<path class="st6" d="M628.2,421.2l2.6-9.3h0.9l-2.6,9.3H628.2z"/>
			<path class="st6" d="M632.2,418.7l1.1-0.1c0.1,0.6,0.3,1.1,0.6,1.3s0.7,0.4,1.1,0.4c0.5,0,1-0.2,1.3-0.5c0.4-0.4,0.5-0.8,0.5-1.3
				c0-0.5-0.2-0.9-0.5-1.3c-0.3-0.3-0.8-0.5-1.3-0.5c-0.2,0-0.5,0-0.8,0.1l0.1-1c0.1,0,0.1,0,0.2,0c0.5,0,0.9-0.1,1.3-0.4
				c0.4-0.2,0.6-0.6,0.6-1.1c0-0.4-0.1-0.7-0.4-1c-0.3-0.3-0.6-0.4-1.1-0.4c-0.4,0-0.8,0.1-1.1,0.4c-0.3,0.3-0.5,0.7-0.6,1.2
				l-1.1-0.2c0.1-0.7,0.4-1.3,0.9-1.7c0.5-0.4,1.1-0.6,1.8-0.6c0.5,0,0.9,0.1,1.4,0.3c0.4,0.2,0.7,0.5,0.9,0.9
				c0.2,0.4,0.3,0.7,0.3,1.2c0,0.4-0.1,0.7-0.3,1.1s-0.5,0.6-0.9,0.8c0.5,0.1,0.9,0.4,1.2,0.8c0.3,0.4,0.4,0.9,0.4,1.4
				c0,0.8-0.3,1.4-0.9,2c-0.6,0.5-1.3,0.8-2.2,0.8c-0.8,0-1.4-0.2-2-0.7C632.5,420,632.2,419.4,632.2,418.7z"/>
			<path class="st6" d="M644.9,420v1.1H639c0-0.3,0-0.5,0.1-0.8c0.2-0.4,0.4-0.8,0.7-1.2c0.3-0.4,0.8-0.8,1.4-1.4
				c1-0.8,1.6-1.4,2-1.9c0.3-0.5,0.5-0.9,0.5-1.3c0-0.4-0.2-0.8-0.5-1.1c-0.3-0.3-0.7-0.5-1.2-0.5c-0.5,0-1,0.2-1.3,0.5
				c-0.3,0.3-0.5,0.8-0.5,1.3l-1.1-0.1c0.1-0.8,0.4-1.5,0.9-1.9c0.5-0.4,1.2-0.7,2-0.7c0.9,0,1.5,0.2,2,0.7c0.5,0.5,0.8,1.1,0.8,1.8
				c0,0.4-0.1,0.7-0.2,1.1c-0.1,0.3-0.4,0.7-0.7,1.1c-0.3,0.4-0.9,0.9-1.7,1.6c-0.7,0.6-1.1,0.9-1.3,1.1c-0.2,0.2-0.3,0.4-0.5,0.6
				H644.9z"/>
			<path class="st6" d="M646.4,415.3l-0.3-1.7v-1.5h1.3v1.5l-0.3,1.7H646.4z M648.5,415.3l-0.3-1.7v-1.5h1.3v1.5l-0.3,1.7H648.5z"/>
		</g>
		<g>
			<path class="st6" d="M651.5,423.7h-0.8c1.2-2,1.8-3.9,1.8-5.9c0-0.8-0.1-1.5-0.3-2.3c-0.1-0.6-0.3-1.2-0.6-1.8
				c-0.2-0.4-0.5-1-1-1.8h0.8c0.8,1,1.3,2.1,1.7,3.1c0.3,0.9,0.5,1.8,0.5,2.8c0,1.1-0.2,2.2-0.6,3.2
				C652.6,422,652.1,422.9,651.5,423.7z"/>
		</g>
		<line class="st27" x1="893.7" y1="705.1" x2="893.7" y2="411.5"/>
		<polygon class="st31" points="897.4,702.5 893.6,716.7 889.8,702.5 		"/>
		<polygon class="st31" points="897.4,414.1 893.6,399.9 889.8,414.1 		"/>
		<g>
			<path class="st6" d="M881.9,599.2l0.1,1.1c-0.4,0.1-0.7,0.2-0.9,0.4c-0.3,0.3-0.5,0.7-0.5,1.1c0,0.4,0.1,0.7,0.3,0.9
				c0.3,0.3,0.6,0.6,1.1,0.8c0.5,0.2,1.2,0.3,2.1,0.3c-0.4-0.3-0.7-0.6-0.9-1c-0.2-0.4-0.3-0.8-0.3-1.2c0-0.7,0.3-1.4,0.8-1.9
				c0.5-0.5,1.2-0.8,2.1-0.8c0.6,0,1.1,0.1,1.6,0.4c0.5,0.2,0.9,0.6,1.1,1c0.3,0.4,0.4,0.9,0.4,1.4c0,0.9-0.3,1.7-1,2.2
				s-1.8,0.9-3.3,0.9c-1.7,0-3-0.3-3.8-1c-0.7-0.6-1-1.3-1-2.3c0-0.7,0.2-1.3,0.6-1.7C880.6,599.6,881.2,599.3,881.9,599.2z
				 M885.8,603.7c0.4,0,0.7-0.1,1.1-0.2c0.3-0.2,0.6-0.4,0.8-0.7c0.2-0.3,0.3-0.6,0.3-0.9c0-0.5-0.2-0.9-0.6-1.2s-0.9-0.5-1.5-0.5
				c-0.6,0-1.1,0.2-1.5,0.5c-0.4,0.3-0.5,0.7-0.5,1.2c0,0.5,0.2,0.9,0.5,1.3C884.7,603.6,885.2,603.7,885.8,603.7z"/>
			<path class="st6" d="M884.2,598c-1.1,0-1.9-0.1-2.6-0.3c-0.6-0.2-1.1-0.5-1.5-1c-0.4-0.4-0.5-1-0.5-1.6c0-0.5,0.1-0.9,0.3-1.3
				c0.2-0.4,0.5-0.7,0.8-0.9c0.4-0.2,0.8-0.4,1.3-0.6c0.5-0.1,1.2-0.2,2.1-0.2c1.1,0,1.9,0.1,2.5,0.3c0.6,0.2,1.1,0.5,1.5,1
				c0.4,0.4,0.5,1,0.5,1.6c0,0.9-0.3,1.5-0.9,2C887.1,597.7,885.9,598,884.2,598z M884.2,596.8c1.5,0,2.5-0.2,2.9-0.5
				s0.7-0.8,0.7-1.3s-0.2-0.9-0.7-1.3s-1.5-0.5-2.9-0.5c-1.5,0-2.5,0.2-2.9,0.5s-0.7,0.8-0.7,1.3c0,0.5,0.2,0.9,0.6,1.2
				C881.8,596.7,882.8,596.8,884.2,596.8z"/>
			<path class="st6" d="M888.7,590.4h-1.3v-1.3h1.3V590.4z"/>
			<path class="st6" d="M888.7,584h-2.1v3.9h-1l-5.8-4.1v-0.9h5.8v-1.2h1v1.2h2.1V584z M885.5,584h-4l4,2.8V584z"/>
			<path class="st6" d="M886.3,580.6l-0.1-1.2c0.6-0.1,1-0.3,1.3-0.6c0.3-0.3,0.4-0.7,0.4-1.1c0-0.5-0.2-1-0.6-1.3
				c-0.4-0.4-0.9-0.6-1.6-0.6c-0.6,0-1.1,0.2-1.5,0.5c-0.4,0.4-0.5,0.8-0.5,1.4c0,0.4,0.1,0.7,0.2,1c0.2,0.3,0.4,0.5,0.6,0.7l-0.1,1
				l-4.6-0.9V575h1.1v3.6l2.4,0.5c-0.4-0.5-0.6-1.1-0.6-1.7c0-0.8,0.3-1.4,0.8-2c0.5-0.5,1.2-0.8,2.1-0.8c0.8,0,1.5,0.2,2.1,0.7
				c0.7,0.6,1.1,1.4,1.1,2.4c0,0.8-0.2,1.5-0.7,2C887.7,580.2,887.1,580.5,886.3,580.6z"/>
			<path class="st6" d="M891.3,567.7c-0.8,0.6-1.7,1.1-2.7,1.5c-1,0.4-2.1,0.6-3.2,0.6c-1,0-1.9-0.2-2.8-0.5c-1-0.4-2.1-0.9-3.1-1.7
				v-0.8c0.8,0.5,1.5,0.8,1.8,1c0.6,0.2,1.2,0.4,1.8,0.6c0.8,0.2,1.5,0.3,2.3,0.3c2,0,3.9-0.6,5.9-1.8V567.7z"/>
			<path class="st6" d="M887.6,560.1h1.1v5.9c-0.3,0-0.5,0-0.8-0.1c-0.4-0.2-0.8-0.4-1.2-0.7c-0.4-0.3-0.8-0.8-1.4-1.4
				c-0.8-1-1.4-1.6-1.9-2c-0.5-0.3-0.9-0.5-1.3-0.5c-0.4,0-0.8,0.2-1.1,0.5c-0.3,0.3-0.5,0.7-0.5,1.2c0,0.5,0.2,1,0.5,1.3
				c0.3,0.3,0.8,0.5,1.3,0.5l-0.1,1.1c-0.8-0.1-1.5-0.4-1.9-0.9c-0.4-0.5-0.7-1.2-0.7-2c0-0.9,0.2-1.5,0.7-2
				c0.5-0.5,1.1-0.8,1.8-0.8c0.4,0,0.7,0.1,1.1,0.2c0.3,0.1,0.7,0.4,1.1,0.7c0.4,0.3,0.9,0.9,1.6,1.7c0.6,0.7,0.9,1.1,1.1,1.3
				c0.2,0.2,0.4,0.3,0.6,0.5V560.1z"/>
			<path class="st6" d="M888.7,558.4h-1.3v-1.3h1.3V558.4z"/>
			<path class="st6" d="M886.3,555.5l-0.1-1.1c0.6-0.1,1.1-0.3,1.3-0.6s0.4-0.7,0.4-1.1c0-0.5-0.2-1-0.5-1.3
				c-0.4-0.4-0.8-0.5-1.3-0.5c-0.5,0-0.9,0.2-1.3,0.5c-0.3,0.3-0.5,0.8-0.5,1.3c0,0.2,0,0.5,0.1,0.8l-1-0.1c0-0.1,0-0.1,0-0.2
				c0-0.5-0.1-0.9-0.4-1.3c-0.2-0.4-0.6-0.6-1.1-0.6c-0.4,0-0.7,0.1-1,0.4c-0.3,0.3-0.4,0.6-0.4,1.1c0,0.4,0.1,0.8,0.4,1.1
				c0.3,0.3,0.7,0.5,1.2,0.6l-0.2,1.1c-0.7-0.1-1.3-0.4-1.7-0.9c-0.4-0.5-0.6-1.1-0.6-1.8c0-0.5,0.1-0.9,0.3-1.4
				c0.2-0.4,0.5-0.7,0.9-0.9c0.4-0.2,0.7-0.3,1.2-0.3c0.4,0,0.7,0.1,1.1,0.3s0.6,0.5,0.8,0.9c0.1-0.5,0.4-0.9,0.8-1.2
				c0.4-0.3,0.9-0.4,1.4-0.4c0.8,0,1.4,0.3,2,0.9c0.5,0.6,0.8,1.3,0.8,2.2c0,0.8-0.2,1.4-0.7,2C887.6,555.1,887,555.4,886.3,555.5z"
				/>
			<path class="st6" d="M883.8,546.8c-0.2,0.5-0.4,0.8-0.7,1c-0.3,0.2-0.7,0.3-1.1,0.3c-0.7,0-1.2-0.2-1.6-0.7
				c-0.4-0.5-0.7-1.1-0.7-1.9c0-0.8,0.2-1.4,0.7-1.9c0.5-0.5,1-0.7,1.7-0.7c0.4,0,0.8,0.1,1.1,0.3c0.3,0.2,0.5,0.5,0.7,1
				c0.2-0.6,0.5-1,0.9-1.3c0.4-0.3,0.9-0.4,1.4-0.4c0.8,0,1.4,0.3,1.9,0.8c0.5,0.5,0.8,1.3,0.8,2.1c0,0.9-0.3,1.6-0.8,2.1
				c-0.5,0.5-1.2,0.8-2,0.8c-0.6,0-1.1-0.1-1.5-0.4S883.9,547.4,883.8,546.8z M881.9,547c0.4,0,0.8-0.1,1-0.4s0.4-0.6,0.4-1.1
				c0-0.4-0.1-0.8-0.4-1c-0.3-0.3-0.6-0.4-1-0.4c-0.4,0-0.7,0.1-1,0.4c-0.3,0.3-0.4,0.6-0.4,1c0,0.4,0.1,0.8,0.4,1
				C881.2,546.9,881.6,547,881.9,547z M886.1,547.4c0.3,0,0.6-0.1,0.9-0.2c0.3-0.1,0.5-0.4,0.7-0.7c0.2-0.3,0.2-0.6,0.2-0.9
				c0-0.5-0.2-1-0.5-1.3c-0.3-0.3-0.8-0.5-1.3-0.5c-0.5,0-1,0.2-1.3,0.5s-0.5,0.8-0.5,1.3c0,0.5,0.2,0.9,0.5,1.3
				C885.1,547.2,885.6,547.4,886.1,547.4z"/>
			<path class="st6" d="M882.9,539.2l-1.7,0.3h-1.5v-1.3h1.5l1.7,0.3V539.2z M882.9,541.2l-1.7,0.3h-1.5v-1.3h1.5l1.7,0.3V541.2z"/>
		</g>
		<g>
			<path class="st6" d="M891.3,536.1v0.8c-2-1.2-3.9-1.8-5.9-1.8c-0.8,0-1.5,0.1-2.3,0.3c-0.6,0.1-1.2,0.3-1.8,0.6
				c-0.4,0.2-1,0.5-1.8,1v-0.8c1-0.8,2.1-1.3,3.1-1.7c0.9-0.3,1.8-0.5,2.8-0.5c1.1,0,2.2,0.2,3.2,0.6
				C889.6,535,890.5,535.5,891.3,536.1z"/>
		</g>
		<line class="st27" x1="893.7" y1="388.4" x2="893.7" y2="62"/>
		<polygon class="st31" points="897.4,385.8 893.6,399.9 889.8,385.8 		"/>
		<polygon class="st31" points="897.4,64.6 893.6,50.4 889.8,64.6 		"/>
		<g>
			<path class="st6" d="M881.9,249.7l0.1,1.1c-0.4,0.1-0.7,0.2-0.9,0.4c-0.3,0.3-0.5,0.7-0.5,1.1c0,0.4,0.1,0.7,0.3,0.9
				c0.3,0.3,0.6,0.6,1.1,0.8c0.5,0.2,1.2,0.3,2.1,0.3c-0.4-0.3-0.7-0.6-0.9-1c-0.2-0.4-0.3-0.8-0.3-1.2c0-0.7,0.3-1.4,0.8-1.9
				c0.5-0.5,1.2-0.8,2.1-0.8c0.6,0,1.1,0.1,1.6,0.4s0.9,0.6,1.1,1c0.3,0.4,0.4,0.9,0.4,1.4c0,0.9-0.3,1.7-1,2.2s-1.8,0.9-3.3,0.9
				c-1.7,0-3-0.3-3.8-1c-0.7-0.6-1-1.3-1-2.3c0-0.7,0.2-1.3,0.6-1.7S881.2,249.8,881.9,249.7z M885.8,254.2c0.4,0,0.7-0.1,1.1-0.2
				c0.3-0.2,0.6-0.4,0.8-0.7c0.2-0.3,0.3-0.6,0.3-0.9c0-0.5-0.2-0.9-0.6-1.2s-0.9-0.5-1.5-0.5c-0.6,0-1.1,0.2-1.5,0.5
				c-0.4,0.3-0.5,0.7-0.5,1.2c0,0.5,0.2,0.9,0.5,1.3C884.7,254,885.2,254.2,885.8,254.2z"/>
			<path class="st6" d="M881.9,242.7l0.1,1.1c-0.4,0.1-0.7,0.2-0.9,0.4c-0.3,0.3-0.5,0.7-0.5,1.1c0,0.4,0.1,0.7,0.3,0.9
				c0.3,0.3,0.6,0.6,1.1,0.8c0.5,0.2,1.2,0.3,2.1,0.3c-0.4-0.3-0.7-0.6-0.9-1c-0.2-0.4-0.3-0.8-0.3-1.2c0-0.7,0.3-1.4,0.8-1.9
				c0.5-0.5,1.2-0.8,2.1-0.8c0.6,0,1.1,0.1,1.6,0.4s0.9,0.6,1.1,1c0.3,0.4,0.4,0.9,0.4,1.4c0,0.9-0.3,1.7-1,2.2s-1.8,0.9-3.3,0.9
				c-1.7,0-3-0.3-3.8-1c-0.7-0.6-1-1.3-1-2.3c0-0.7,0.2-1.3,0.6-1.7S881.2,242.8,881.9,242.7z M885.8,247.2c0.4,0,0.7-0.1,1.1-0.2
				c0.3-0.2,0.6-0.4,0.8-0.7c0.2-0.3,0.3-0.6,0.3-0.9c0-0.5-0.2-0.9-0.6-1.2s-0.9-0.5-1.5-0.5c-0.6,0-1.1,0.2-1.5,0.5
				c-0.4,0.3-0.5,0.7-0.5,1.2c0,0.5,0.2,0.9,0.5,1.3C884.7,247,885.2,247.2,885.8,247.2z"/>
			<path class="st6" d="M888.7,240.9h-1.3v-1.3h1.3V240.9z"/>
			<path class="st6" d="M886.3,238l-0.1-1.2c0.6-0.1,1-0.3,1.3-0.6c0.3-0.3,0.4-0.7,0.4-1.1c0-0.5-0.2-1-0.6-1.3
				c-0.4-0.4-0.9-0.6-1.6-0.6c-0.6,0-1.1,0.2-1.5,0.5c-0.4,0.4-0.5,0.8-0.5,1.4c0,0.4,0.1,0.7,0.2,1c0.2,0.3,0.4,0.5,0.6,0.7l-0.1,1
				l-4.6-0.9v-4.5h1.1v3.6l2.4,0.5c-0.4-0.5-0.6-1.1-0.6-1.7c0-0.8,0.3-1.4,0.8-2c0.5-0.5,1.2-0.8,2.1-0.8c0.8,0,1.5,0.2,2.1,0.7
				c0.7,0.6,1.1,1.4,1.1,2.4c0,0.8-0.2,1.5-0.7,2C887.7,237.6,887.1,237.9,886.3,238z"/>
			<path class="st6" d="M886.3,231l-0.1-1.2c0.6-0.1,1-0.3,1.3-0.6c0.3-0.3,0.4-0.7,0.4-1.1c0-0.5-0.2-1-0.6-1.3
				c-0.4-0.4-0.9-0.6-1.6-0.6c-0.6,0-1.1,0.2-1.5,0.5c-0.4,0.4-0.5,0.8-0.5,1.4c0,0.4,0.1,0.7,0.2,1c0.2,0.3,0.4,0.5,0.6,0.7l-0.1,1
				l-4.6-0.9v-4.5h1.1v3.6l2.4,0.5c-0.4-0.5-0.6-1.1-0.6-1.7c0-0.8,0.3-1.4,0.8-2c0.5-0.5,1.2-0.8,2.1-0.8c0.8,0,1.5,0.2,2.1,0.7
				c0.7,0.6,1.1,1.4,1.1,2.4c0,0.8-0.2,1.5-0.7,2C887.7,230.7,887.1,231,886.3,231z"/>
			<path class="st6" d="M891.3,218.2c-0.8,0.6-1.7,1.1-2.7,1.5c-1,0.4-2.1,0.6-3.2,0.6c-1,0-1.9-0.2-2.8-0.5c-1-0.4-2.1-0.9-3.1-1.7
				v-0.8c0.8,0.5,1.5,0.8,1.8,1c0.6,0.2,1.2,0.4,1.8,0.6c0.8,0.2,1.5,0.3,2.3,0.3c2,0,3.9-0.6,5.9-1.8V218.2z"/>
			<path class="st6" d="M887.6,210.6h1.1v5.9c-0.3,0-0.5,0-0.8-0.1c-0.4-0.2-0.8-0.4-1.2-0.7c-0.4-0.3-0.8-0.8-1.4-1.4
				c-0.8-1-1.4-1.6-1.9-2c-0.5-0.3-0.9-0.5-1.3-0.5c-0.4,0-0.8,0.2-1.1,0.5s-0.5,0.7-0.5,1.2c0,0.5,0.2,1,0.5,1.3
				c0.3,0.3,0.8,0.5,1.3,0.5l-0.1,1.1c-0.8-0.1-1.5-0.4-1.9-0.9c-0.4-0.5-0.7-1.2-0.7-2c0-0.9,0.2-1.5,0.7-2
				c0.5-0.5,1.1-0.8,1.8-0.8c0.4,0,0.7,0.1,1.1,0.2c0.3,0.1,0.7,0.4,1.1,0.7c0.4,0.3,0.9,0.9,1.6,1.7c0.6,0.7,0.9,1.1,1.1,1.3
				c0.2,0.2,0.4,0.3,0.6,0.5V210.6z"/>
			<path class="st6" d="M888.7,208.8h-1.3v-1.3h1.3V208.8z"/>
			<path class="st6" d="M881.9,200.2l0.1,1.1c-0.4,0.1-0.7,0.2-0.9,0.4c-0.3,0.3-0.5,0.7-0.5,1.1c0,0.4,0.1,0.7,0.3,0.9
				c0.3,0.3,0.6,0.6,1.1,0.8c0.5,0.2,1.2,0.3,2.1,0.3c-0.4-0.3-0.7-0.6-0.9-1c-0.2-0.4-0.3-0.8-0.3-1.2c0-0.7,0.3-1.4,0.8-1.9
				c0.5-0.5,1.2-0.8,2.1-0.8c0.6,0,1.1,0.1,1.6,0.4s0.9,0.6,1.1,1c0.3,0.4,0.4,0.9,0.4,1.4c0,0.9-0.3,1.7-1,2.2s-1.8,0.9-3.3,0.9
				c-1.7,0-3-0.3-3.8-1c-0.7-0.6-1-1.3-1-2.3c0-0.7,0.2-1.3,0.6-1.7S881.2,200.3,881.9,200.2z M885.8,204.7c0.4,0,0.7-0.1,1.1-0.2
				c0.3-0.2,0.6-0.4,0.8-0.7c0.2-0.3,0.3-0.6,0.3-0.9c0-0.5-0.2-0.9-0.6-1.2s-0.9-0.5-1.5-0.5c-0.6,0-1.1,0.2-1.5,0.5
				c-0.4,0.3-0.5,0.7-0.5,1.2c0,0.5,0.2,0.9,0.5,1.3C884.7,204.6,885.2,204.7,885.8,204.7z"/>
			<path class="st6" d="M887.6,193.2h1.1v5.9c-0.3,0-0.5,0-0.8-0.1c-0.4-0.2-0.8-0.4-1.2-0.7c-0.4-0.3-0.8-0.8-1.4-1.4
				c-0.8-1-1.4-1.6-1.9-2c-0.5-0.3-0.9-0.5-1.3-0.5c-0.4,0-0.8,0.2-1.1,0.5s-0.5,0.7-0.5,1.2c0,0.5,0.2,1,0.5,1.3
				c0.3,0.3,0.8,0.5,1.3,0.5l-0.1,1.1c-0.8-0.1-1.5-0.4-1.9-0.9c-0.4-0.5-0.7-1.2-0.7-2c0-0.9,0.2-1.5,0.7-2
				c0.5-0.5,1.1-0.8,1.8-0.8c0.4,0,0.7,0.1,1.1,0.2c0.3,0.1,0.7,0.4,1.1,0.7c0.4,0.3,0.9,0.9,1.6,1.7c0.6,0.7,0.9,1.1,1.1,1.3
				c0.2,0.2,0.4,0.3,0.6,0.5V193.2z"/>
			<path class="st6" d="M882.9,189.6l-1.7,0.3h-1.5v-1.3h1.5l1.7,0.3V189.6z M882.9,191.7l-1.7,0.3h-1.5v-1.3h1.5l1.7,0.3V191.7z"/>
		</g>
		<g>
			<path class="st6" d="M891.3,186.6v0.8c-2-1.2-3.9-1.8-5.9-1.8c-0.8,0-1.5,0.1-2.3,0.3c-0.6,0.1-1.2,0.3-1.8,0.6
				c-0.4,0.2-1,0.5-1.8,1v-0.8c1-0.8,2.1-1.3,3.1-1.7c0.9-0.3,1.8-0.5,2.8-0.5c1.1,0,2.2,0.2,3.2,0.6
				C889.6,185.5,890.5,186,891.3,186.6z"/>
		</g>
		<g>
			<defs>
				<rect id="SVGID_9_" x="98.1" y="5.6" width="825.2" height="771.1"/>
			</defs>
			<clipPath id="SVGID_10_">
				<use xlink:href="#SVGID_9_"  style="overflow:visible;"/>
			</clipPath>
			<path class="st36" d="M913.6,406.2l4.8-6.5l-4.3-6h2l2.3,3.2c0.5,0.7,0.8,1.2,1,1.5c0.3-0.5,0.6-0.9,1-1.4l2.5-3.3h1.8l-4.4,5.9
				l4.7,6.6h-2l-3.1-4.4c-0.2-0.3-0.4-0.5-0.5-0.8c-0.3,0.5-0.5,0.8-0.6,0.9l-3.1,4.3H913.6z"/>
		</g>
		<g>
			<path class="st6" d="M266.3,408.4l4.8-6.5l-4.3-6h2l2.3,3.2c0.5,0.7,0.8,1.2,1,1.5c0.3-0.5,0.6-0.9,1-1.4l2.5-3.3h1.8l-4.4,5.9
				l4.7,6.6h-2l-3.1-4.4c-0.2-0.3-0.4-0.5-0.5-0.8c-0.3,0.5-0.5,0.8-0.6,0.9l-3.1,4.3H266.3z"/>
		</g>
		<line class="st37" x1="904.8" y1="399.9" x2="291.3" y2="399.9"/>
		<g>
			<path class="st6" d="M363.9,88.7l7-5.6l2.5,3.1c0.5,0.6,0.8,1.1,1,1.6c0.1,0.4,0.1,0.9,0,1.3c-0.2,0.5-0.4,0.8-0.8,1.1
				c-0.5,0.4-1,0.6-1.6,0.5s-1.2-0.4-1.8-1c0.1,0.3,0.1,0.6,0.1,0.8c0,0.5-0.1,1-0.3,1.5l-0.9,2.7l-0.9-1.2l0.7-2.1
				c0.2-0.6,0.3-1.1,0.4-1.4c0.1-0.4,0.1-0.6,0.1-0.8c0-0.2-0.1-0.4-0.2-0.6c-0.1-0.1-0.2-0.3-0.4-0.5l-0.9-1.1l-3.1,2.5L363.9,88.7
				z M368.5,86.5l1.6,2c0.3,0.4,0.7,0.7,0.9,0.9c0.3,0.2,0.6,0.2,0.9,0.2c0.3,0,0.6-0.1,0.8-0.3c0.3-0.3,0.5-0.6,0.5-1
				c0-0.4-0.2-0.9-0.6-1.4l-1.8-2.2L368.5,86.5z"/>
			<path class="st6" d="M375.4,90.5l0.8-0.7l3.6,4.5l-0.7,0.5c-0.8-0.1-1.8,0-3,0.2c-1.1,0.2-2.2,0.5-3.2,0.9
				c-0.7,0.3-1.5,0.7-2.2,1.2l-0.7-0.9c0.6-0.4,1.3-0.9,2.3-1.3c0.9-0.4,1.9-0.7,3-0.9c1-0.2,2-0.3,2.8-0.2L375.4,90.5z"/>
			<path class="st6" d="M374,101.3l1-0.8l0.8,1l-1,0.8L374,101.3z"/>
			<path class="st6" d="M377.5,102.3l0.7,0.8c-0.3,0.4-0.5,0.7-0.5,1.1c0,0.3,0.1,0.7,0.3,1c0.2,0.3,0.5,0.4,0.7,0.5
				c0.3,0.1,0.6,0.1,0.9,0.1c0.3,0,0.7-0.1,1.1-0.3s0.8-0.4,1.2-0.7c0,0,0.1-0.1,0.2-0.1c-0.4,0-0.8,0-1.2-0.2
				c-0.4-0.2-0.8-0.4-1-0.8c-0.5-0.6-0.7-1.2-0.6-2c0.1-0.7,0.5-1.4,1.2-1.9c0.7-0.6,1.4-0.8,2.2-0.8c0.8,0.1,1.4,0.4,1.9,1
				c0.4,0.5,0.6,1,0.6,1.5c0.1,0.6-0.1,1.1-0.4,1.7c-0.3,0.6-0.9,1.2-1.7,1.9c-0.9,0.7-1.7,1.2-2.4,1.4c-0.7,0.2-1.3,0.3-1.9,0.1
				c-0.6-0.2-1.1-0.5-1.5-1c-0.4-0.5-0.7-1.1-0.6-1.7C376.8,103.4,377,102.8,377.5,102.3z M383.5,103.3c0.5-0.4,0.8-0.8,0.9-1.3
				c0.1-0.5,0-0.9-0.3-1.3c-0.3-0.4-0.7-0.6-1.3-0.6c-0.5,0-1.1,0.2-1.6,0.6c-0.4,0.4-0.7,0.8-0.8,1.3s0.1,0.9,0.4,1.3
				c0.3,0.4,0.7,0.6,1.2,0.6C382.5,103.9,383,103.7,383.5,103.3z"/>
			<path class="st6" d="M382.4,111.7l1.7-1.3l-2.4-3l0.8-0.6l7.1-0.5l0.6,0.7l-4.5,3.7l0.8,0.9l-0.8,0.6l-0.8-0.9l-1.7,1.3
				L382.4,111.7z M384.9,109.7l3.1-2.5l-4.9,0.4L384.9,109.7z"/>
		</g>
		<g>
			<path class="st6" d="M386.2,120.6c0.2-1,0.6-1.9,1.1-2.9c0.5-1,1.2-1.8,2.1-2.5c0.8-0.6,1.6-1.1,2.5-1.4c1-0.4,2.2-0.6,3.5-0.6
				l0.5,0.6c-1,0.1-1.6,0.3-2,0.4c-0.6,0.2-1.2,0.4-1.7,0.7c-0.7,0.3-1.4,0.8-2,1.2c-1.5,1.2-2.7,2.9-3.4,5.1L386.2,120.6z"/>
		</g>
		<g>
			<path class="st6" d="M391.2,118.8l0.8,0.8c-0.4,0.4-0.6,0.8-0.6,1.3c0,0.4,0.1,0.8,0.4,1.1c0.3,0.4,0.8,0.6,1.3,0.7
				c0.5,0,1.1-0.2,1.6-0.6c0.5-0.4,0.8-0.8,0.8-1.3c0.1-0.5-0.1-1-0.4-1.4c-0.2-0.3-0.5-0.5-0.8-0.6c-0.3-0.1-0.6-0.2-0.9-0.1
				l-0.5-0.9l4.1-2.2l2.8,3.5l-0.8,0.7l-2.2-2.8l-2.2,1.1c0.6,0.2,1.1,0.5,1.5,1c0.5,0.6,0.7,1.3,0.6,2.1c-0.1,0.8-0.5,1.4-1.1,1.9
				c-0.6,0.5-1.3,0.8-2.1,0.8c-0.9,0-1.7-0.4-2.3-1.1c-0.5-0.6-0.8-1.3-0.7-2C390.4,119.9,390.7,119.3,391.2,118.8z"/>
			<path class="st6" d="M393.3,125.4l8.8-3.8l0.6,0.7l-8.8,3.8L393.3,125.4z"/>
			<path class="st6" d="M398.6,131.6l-0.7-0.9l5.5-4.4c-0.4,0-0.8-0.2-1.2-0.3c-0.5-0.2-0.9-0.4-1.2-0.5l0.8-0.7
				c0.6,0.3,1.2,0.5,1.8,0.6s1.1,0.1,1.5,0l0.4,0.6L398.6,131.6z"/>
			<path class="st6" d="M409.2,134l-0.8-0.8c0.3-0.3,0.4-0.7,0.5-0.9c0.1-0.4-0.1-0.8-0.3-1.2c-0.2-0.3-0.5-0.5-0.8-0.5
				c-0.4-0.1-0.9-0.1-1.4,0.1c-0.5,0.2-1.1,0.5-1.8,1.1c0.5,0,0.9,0,1.3,0.2c0.4,0.2,0.7,0.4,1,0.8c0.5,0.6,0.6,1.2,0.5,2
				s-0.5,1.4-1.1,1.9c-0.4,0.4-0.9,0.6-1.5,0.7c-0.5,0.1-1,0.1-1.5-0.1c-0.5-0.2-0.9-0.5-1.2-0.9c-0.6-0.7-0.8-1.5-0.6-2.4
				c0.2-0.9,0.8-1.8,2.1-2.8c1.3-1.1,2.5-1.6,3.5-1.6c0.9,0,1.6,0.4,2.2,1.1c0.4,0.5,0.7,1.1,0.6,1.7
				C409.9,133,409.7,133.5,409.2,134z M403.3,133c-0.3,0.2-0.5,0.5-0.7,0.9c-0.2,0.3-0.2,0.7-0.2,1c0,0.3,0.2,0.6,0.4,0.9
				c0.3,0.4,0.7,0.6,1.2,0.6c0.5,0,1-0.2,1.5-0.6c0.5-0.4,0.8-0.8,0.8-1.3c0.1-0.5-0.1-0.9-0.4-1.3c-0.3-0.4-0.7-0.6-1.2-0.6
				C404.3,132.4,403.8,132.6,403.3,133z"/>
			<path class="st6" d="M409.4,135.9l1.1-1.3l1.1-0.9l0.8,1l-1.1,0.9l-1.5,0.9L409.4,135.9z M410.7,137.5l1.1-1.3l1.1-0.9l0.8,1
				l-1.1,0.9l-1.5,0.8L410.7,137.5z"/>
		</g>
		<g>
			<path class="st6" d="M406.1,145.2l-0.5-0.6c2.3-0.3,4.2-1,5.7-2.3c0.6-0.5,1.1-1,1.6-1.6c0.4-0.5,0.7-1,1-1.6
				c0.2-0.4,0.5-1,0.8-1.9l0.5,0.6c-0.3,1.2-0.8,2.3-1.3,3.3c-0.5,0.8-1.1,1.5-1.9,2.1c-0.9,0.7-1.8,1.2-2.9,1.5
				C408.1,145,407.1,145.2,406.1,145.2z"/>
		</g>
		<line class="st30" x1="352.9" y1="83.1" x2="404.8" y2="147.4"/>
		<polygon class="st6" points="351.4,88.3 344.3,72.3 358.5,82.6 		"/>
		<line class="st30" x1="345.3" y1="19.6" x2="657.2" y2="19.6"/>
		<polygon class="st6" points="347.9,23.2 333.8,19.4 347.9,15.6 		"/>
		<polygon class="st6" points="654.6,23.2 668.7,19.4 654.6,15.6 		"/>
		<g>
			<defs>
				<rect id="SVGID_11_" x="98.1" y="5.6" width="825.2" height="771.1"/>
			</defs>
			<clipPath id="SVGID_12_">
				<use xlink:href="#SVGID_11_"  style="overflow:visible;"/>
			</clipPath>
			<g class="st38">
				<path class="st6" d="M474.1,7.7L473,7.8c-0.1-0.4-0.2-0.7-0.4-0.9c-0.3-0.3-0.7-0.5-1.1-0.5c-0.4,0-0.7,0.1-0.9,0.3
					c-0.3,0.3-0.6,0.6-0.8,1.1c-0.2,0.5-0.3,1.2-0.3,2.1c0.3-0.4,0.6-0.7,1-0.9c0.4-0.2,0.8-0.3,1.2-0.3c0.7,0,1.4,0.3,1.9,0.8
					s0.8,1.2,0.8,2.1c0,0.6-0.1,1.1-0.4,1.6c-0.2,0.5-0.6,0.9-1,1.1c-0.4,0.3-0.9,0.4-1.4,0.4c-0.9,0-1.7-0.3-2.2-1
					c-0.6-0.7-0.9-1.8-0.9-3.3c0-1.7,0.3-3,1-3.8c0.6-0.7,1.3-1,2.3-1c0.7,0,1.3,0.2,1.7,0.6C473.7,6.5,474,7,474.1,7.7z
					 M469.6,11.6c0,0.4,0.1,0.7,0.2,1.1c0.2,0.3,0.4,0.6,0.7,0.8c0.3,0.2,0.6,0.3,0.9,0.3c0.5,0,0.9-0.2,1.2-0.6
					c0.3-0.4,0.5-0.9,0.5-1.5c0-0.6-0.2-1.1-0.5-1.5c-0.3-0.4-0.7-0.5-1.2-0.5c-0.5,0-0.9,0.2-1.3,0.5
					C469.7,10.6,469.6,11,469.6,11.6z"/>
				<path class="st6" d="M475.3,12.1l1.1-0.1c0.1,0.6,0.3,1.1,0.6,1.3s0.7,0.4,1.1,0.4c0.5,0,1-0.2,1.3-0.5c0.4-0.4,0.5-0.8,0.5-1.3
					c0-0.5-0.2-0.9-0.5-1.3c-0.3-0.3-0.8-0.5-1.3-0.5c-0.2,0-0.5,0-0.8,0.1l0.1-1c0.1,0,0.1,0,0.2,0c0.5,0,0.9-0.1,1.3-0.4
					c0.4-0.2,0.6-0.6,0.6-1.1c0-0.4-0.1-0.7-0.4-1s-0.6-0.4-1.1-0.4c-0.4,0-0.8,0.1-1.1,0.4c-0.3,0.3-0.5,0.7-0.6,1.2l-1.1-0.2
					c0.1-0.7,0.4-1.3,0.9-1.7c0.5-0.4,1.1-0.6,1.8-0.6c0.5,0,0.9,0.1,1.4,0.3c0.4,0.2,0.7,0.5,0.9,0.9c0.2,0.4,0.3,0.7,0.3,1.2
					c0,0.4-0.1,0.7-0.3,1.1c-0.2,0.3-0.5,0.6-0.9,0.8c0.5,0.1,0.9,0.4,1.2,0.8c0.3,0.4,0.4,0.9,0.4,1.4c0,0.8-0.3,1.4-0.9,2
					c-0.6,0.5-1.3,0.8-2.2,0.8c-0.8,0-1.4-0.2-2-0.7C475.7,13.5,475.4,12.9,475.3,12.1z"/>
			</g>
		</g>
		<g>
			<path class="st6" d="M482.9,14.5v-1.3h1.3v1.3H482.9z"/>
			<path class="st6" d="M485.8,12.2l1.2-0.1c0.1,0.6,0.3,1,0.6,1.3c0.3,0.3,0.7,0.4,1.1,0.4c0.5,0,1-0.2,1.3-0.6
				c0.4-0.4,0.6-0.9,0.6-1.6c0-0.6-0.2-1.1-0.5-1.5c-0.4-0.4-0.8-0.5-1.4-0.5c-0.4,0-0.7,0.1-1,0.2c-0.3,0.2-0.5,0.4-0.7,0.6l-1-0.1
				l0.9-4.6h4.5v1.1h-3.6l-0.5,2.4c0.5-0.4,1.1-0.6,1.7-0.6c0.8,0,1.4,0.3,2,0.8c0.5,0.5,0.8,1.2,0.8,2.1c0,0.8-0.2,1.5-0.7,2.1
				c-0.6,0.7-1.4,1.1-2.4,1.1c-0.8,0-1.5-0.2-2-0.7C486.1,13.5,485.8,12.9,485.8,12.2z"/>
		</g>
		<g>
			<defs>
				<rect id="SVGID_13_" x="98.1" y="5.6" width="825.2" height="771.1"/>
			</defs>
			<clipPath id="SVGID_14_">
				<use xlink:href="#SVGID_13_"  style="overflow:visible;"/>
			</clipPath>
			<g class="st39">
				<path class="st6" d="M492.7,10.1c0-1.1,0.1-1.9,0.3-2.6c0.2-0.6,0.5-1.1,1-1.5c0.4-0.4,1-0.5,1.6-0.5c0.5,0,0.9,0.1,1.3,0.3
					c0.4,0.2,0.7,0.5,0.9,0.8c0.2,0.4,0.4,0.8,0.6,1.3c0.1,0.5,0.2,1.2,0.2,2.1c0,1.1-0.1,1.9-0.3,2.5c-0.2,0.6-0.5,1.1-1,1.5
					c-0.4,0.4-1,0.5-1.6,0.5c-0.9,0-1.5-0.3-2-0.9C493,13,492.7,11.8,492.7,10.1z M493.8,10.1c0,1.5,0.2,2.5,0.5,2.9
					s0.8,0.7,1.3,0.7s0.9-0.2,1.3-0.7c0.3-0.5,0.5-1.5,0.5-2.9c0-1.5-0.2-2.5-0.5-2.9s-0.8-0.7-1.3-0.7c-0.5,0-0.9,0.2-1.2,0.6
					C494,7.6,493.8,8.6,493.8,10.1z"/>
			</g>
		</g>
		<g>
			<defs>
				<rect id="SVGID_15_" x="98.1" y="5.6" width="825.2" height="771.1"/>
			</defs>
			<clipPath id="SVGID_16_">
				<use xlink:href="#SVGID_15_"  style="overflow:visible;"/>
			</clipPath>
			<g class="st40">
				<path class="st6" d="M505.6,17.2c-0.6-0.8-1.1-1.7-1.5-2.7s-0.6-2.1-0.6-3.2c0-1,0.2-1.9,0.5-2.8c0.4-1,0.9-2.1,1.7-3.1h0.8
					c-0.5,0.8-0.8,1.5-1,1.8c-0.2,0.6-0.4,1.2-0.6,1.8c-0.2,0.8-0.3,1.5-0.3,2.3c0,2,0.6,3.9,1.8,5.9H505.6z"/>
				<path class="st6" d="M513.1,13.5v1.1h-5.9c0-0.3,0-0.5,0.1-0.8c0.2-0.4,0.4-0.8,0.7-1.2c0.3-0.4,0.8-0.8,1.4-1.4
					c1-0.8,1.6-1.4,2-1.9c0.3-0.5,0.5-0.9,0.5-1.3c0-0.4-0.2-0.8-0.5-1.1c-0.3-0.3-0.7-0.4-1.2-0.4c-0.5,0-1,0.2-1.3,0.5
					c-0.3,0.3-0.5,0.8-0.5,1.3l-1.1-0.1c0.1-0.8,0.4-1.5,0.9-1.9s1.2-0.7,2-0.7c0.9,0,1.5,0.2,2,0.7c0.5,0.5,0.8,1.1,0.8,1.8
					c0,0.4-0.1,0.7-0.2,1.1c-0.1,0.3-0.4,0.7-0.7,1.1s-0.9,0.9-1.7,1.6c-0.7,0.6-1.1,0.9-1.3,1.1c-0.2,0.2-0.3,0.4-0.5,0.6H513.1z"
					/>
			</g>
		</g>
		<g>
			<defs>
				<rect id="SVGID_17_" x="98.1" y="5.6" width="825.2" height="771.1"/>
			</defs>
			<clipPath id="SVGID_18_">
				<use xlink:href="#SVGID_17_"  style="overflow:visible;"/>
			</clipPath>
			<g class="st41">
				<path class="st6" d="M521.9,14.5h-1.1v-7c-0.3,0.3-0.6,0.5-1,0.8s-0.8,0.4-1.2,0.6V7.8c0.6-0.3,1.2-0.6,1.6-1.1
					c0.5-0.4,0.8-0.8,1-1.2h0.7V14.5z"/>
				<path class="st6" d="M524.2,14.7l2.6-9.3h0.9l-2.6,9.3H524.2z"/>
				<path class="st6" d="M534,13.5v1.1h-5.9c0-0.3,0-0.5,0.1-0.8c0.2-0.4,0.4-0.8,0.7-1.2c0.3-0.4,0.8-0.8,1.4-1.4
					c1-0.8,1.6-1.4,2-1.9c0.3-0.5,0.5-0.9,0.5-1.3c0-0.4-0.2-0.8-0.5-1.1c-0.3-0.3-0.7-0.4-1.2-0.4c-0.5,0-1,0.2-1.3,0.5
					c-0.3,0.3-0.5,0.8-0.5,1.3l-1.1-0.1c0.1-0.8,0.4-1.5,0.9-1.9s1.2-0.7,2-0.7c0.9,0,1.5,0.2,2,0.7c0.5,0.5,0.8,1.1,0.8,1.8
					c0,0.4-0.1,0.7-0.2,1.1c-0.1,0.3-0.4,0.7-0.7,1.1s-0.9,0.9-1.7,1.6c-0.7,0.6-1.1,0.9-1.3,1.1c-0.2,0.2-0.3,0.4-0.5,0.6H534z"/>
				<path class="st6" d="M535.6,8.7L535.2,7V5.5h1.3V7l-0.3,1.7H535.6z M537.6,8.7L537.3,7V5.5h1.3V7l-0.3,1.7H537.6z"/>
			</g>
			<g class="st41">
				<path class="st6" d="M540.7,17.2h-0.8c1.2-2,1.8-3.9,1.8-5.9c0-0.8-0.1-1.5-0.3-2.3c-0.1-0.6-0.3-1.2-0.6-1.8
					c-0.2-0.4-0.5-1-1-1.8h0.8c0.8,1,1.3,2.1,1.7,3.1c0.3,0.9,0.5,1.8,0.5,2.8c0,1.1-0.2,2.2-0.6,3.2
					C541.8,15.5,541.3,16.4,540.7,17.2z"/>
			</g>
		</g>
		<g>
			<path class="st6" d="M459.5,80.5l8.8-1.7l0.8,3.9c0.2,0.8,0.2,1.4,0.1,1.8c-0.1,0.4-0.3,0.8-0.6,1.1c-0.4,0.3-0.8,0.5-1.3,0.6
				c-0.6,0.1-1.2,0-1.7-0.3c-0.5-0.3-0.9-0.9-1.2-1.7c-0.1,0.3-0.2,0.6-0.3,0.8c-0.2,0.4-0.6,0.8-1,1.2l-2.1,2l-0.3-1.5l1.6-1.5
				c0.5-0.4,0.8-0.8,1-1.1s0.4-0.5,0.5-0.7c0.1-0.2,0.1-0.4,0.1-0.6c0-0.1,0-0.4-0.1-0.7l-0.3-1.4l-3.9,0.8L459.5,80.5z M464.6,80.7
				l0.5,2.5c0.1,0.5,0.2,0.9,0.4,1.2c0.2,0.3,0.4,0.5,0.7,0.6c0.3,0.1,0.6,0.1,0.8,0.1c0.4-0.1,0.7-0.3,0.9-0.7
				c0.2-0.4,0.3-0.9,0.1-1.5l-0.5-2.8L464.6,80.7z"/>
			<path class="st6" d="M463.5,88.5l0.4,1.1c-0.6,0.2-1,0.5-1.2,0.9c-0.2,0.4-0.3,0.7-0.2,1.2c0.1,0.5,0.4,0.9,0.8,1.2
				s0.9,0.4,1.4,0.3c0.5-0.1,0.9-0.3,1.1-0.7c0.3-0.4,0.3-0.8,0.2-1.3c0-0.2-0.1-0.5-0.3-0.7l1-0.1c0,0.1,0,0.1,0,0.2
				c0.1,0.5,0.3,0.9,0.6,1.2c0.3,0.3,0.7,0.4,1.2,0.3c0.4-0.1,0.7-0.3,0.9-0.6c0.2-0.3,0.3-0.7,0.2-1.1c-0.1-0.4-0.3-0.7-0.6-1
				s-0.7-0.3-1.3-0.3l0-1.1c0.8,0,1.4,0.2,1.9,0.6c0.5,0.4,0.8,0.9,0.9,1.6c0.1,0.5,0.1,0.9-0.1,1.4c-0.1,0.4-0.3,0.8-0.7,1.1
				c-0.3,0.3-0.7,0.5-1.1,0.5c-0.4,0.1-0.7,0-1.1-0.1c-0.4-0.1-0.7-0.4-0.9-0.8c0,0.5-0.2,1-0.5,1.4c-0.3,0.4-0.8,0.6-1.3,0.7
				c-0.8,0.1-1.5,0-2.1-0.5c-0.6-0.5-1-1.1-1.2-2c-0.1-0.8,0-1.5,0.3-2.1C462.2,89.1,462.7,88.7,463.5,88.5z"/>
			<path class="st6" d="M466.8,95c1-0.2,1.9-0.3,2.6-0.2c0.7,0.1,1.2,0.3,1.7,0.7c0.4,0.4,0.7,0.9,0.8,1.5c0.1,0.5,0.1,0.9,0,1.3
				c-0.1,0.4-0.3,0.7-0.7,1c-0.3,0.3-0.7,0.6-1.2,0.8c-0.5,0.2-1.2,0.4-2,0.6c-1,0.2-1.9,0.3-2.6,0.2c-0.7-0.1-1.2-0.3-1.7-0.7
				c-0.4-0.4-0.7-0.9-0.8-1.5c-0.2-0.8,0-1.6,0.5-2.2C464,95.8,465.1,95.3,466.8,95z M467,96.1c-1.4,0.3-2.4,0.6-2.8,1.1
				c-0.4,0.4-0.6,0.9-0.5,1.4c0.1,0.5,0.4,0.9,1,1.1s1.5,0.2,3-0.1c1.5-0.3,2.4-0.6,2.8-1.1c0.4-0.4,0.6-0.9,0.5-1.4
				c-0.1-0.5-0.4-0.9-0.9-1.1C469.5,95.8,468.5,95.8,467,96.1z"/>
			<path class="st6" d="M464.4,106.1l2.1-0.4l-0.7-3.8l1-0.2l6.5,2.9l0.2,0.9l-5.7,1.1l0.2,1.2l-1,0.2l-0.2-1.2l-2.1,0.4
				L464.4,106.1z M467.5,105.5l4-0.8l-4.5-2L467.5,105.5z"/>
		</g>
		<g>
			<path class="st6" d="M465.2,110.1l1.2-0.2l0.2,1.2l-1.2,0.2L465.2,110.1z"/>
			<path class="st6" d="M470.9,113.6c0.1-0.5,0.2-0.9,0.5-1.1c0.3-0.3,0.6-0.5,1-0.5c0.6-0.1,1.2,0,1.8,0.4c0.5,0.4,0.9,0.9,1,1.7
				c0.1,0.8,0,1.4-0.3,2c-0.4,0.6-0.9,0.9-1.5,1c-0.4,0.1-0.8,0-1.1-0.1c-0.3-0.2-0.6-0.4-0.9-0.8c-0.1,0.6-0.3,1-0.6,1.4
				c-0.3,0.4-0.8,0.6-1.3,0.7c-0.8,0.1-1.4,0-2.1-0.4c-0.6-0.4-1-1.1-1.2-2c-0.2-0.9,0-1.6,0.4-2.3c0.4-0.6,1-1,1.8-1.2
				c0.6-0.1,1.1-0.1,1.5,0.2C470.3,112.8,470.6,113.1,470.9,113.6z M468.5,113.5c-0.3,0.1-0.6,0.2-0.9,0.4s-0.4,0.5-0.5,0.8
				c-0.1,0.3-0.1,0.6-0.1,1c0.1,0.5,0.3,0.9,0.7,1.2c0.4,0.3,0.9,0.4,1.4,0.3c0.5-0.1,0.9-0.4,1.2-0.8c0.3-0.4,0.4-0.9,0.3-1.4
				c-0.1-0.5-0.3-0.9-0.8-1.2C469.5,113.5,469,113.4,468.5,113.5z M472.7,113.1c-0.4,0.1-0.7,0.3-0.9,0.6c-0.2,0.3-0.3,0.7-0.2,1.1
				c0.1,0.4,0.3,0.7,0.6,0.9c0.3,0.2,0.7,0.3,1,0.2c0.4-0.1,0.7-0.3,0.9-0.6c0.2-0.3,0.3-0.7,0.2-1.1c-0.1-0.4-0.3-0.7-0.6-1
				C473.4,113.1,473,113,472.7,113.1z"/>
		</g>
		<g>
			<path class="st6" d="M471.4,118.9c1-0.2,1.9-0.3,2.6-0.2c0.7,0.1,1.2,0.3,1.7,0.7c0.4,0.4,0.7,0.9,0.8,1.5c0.1,0.5,0.1,0.9,0,1.3
				c-0.1,0.4-0.3,0.7-0.7,1c-0.3,0.3-0.7,0.6-1.2,0.8c-0.5,0.2-1.2,0.4-2,0.6c-1,0.2-1.9,0.3-2.6,0.2c-0.7-0.1-1.2-0.3-1.7-0.7
				c-0.4-0.4-0.7-0.9-0.8-1.5c-0.2-0.8,0-1.6,0.5-2.2C468.6,119.7,469.8,119.2,471.4,118.9z M471.7,120c-1.4,0.3-2.4,0.6-2.8,1.1
				c-0.4,0.4-0.6,0.9-0.5,1.4c0.1,0.5,0.4,0.9,1,1.1c0.5,0.2,1.5,0.2,3-0.1c1.5-0.3,2.4-0.6,2.8-1.1c0.4-0.4,0.6-0.9,0.5-1.4
				c-0.1-0.5-0.4-0.9-0.9-1.1C474.1,119.7,473.1,119.7,471.7,120z"/>
		</g>
		<g>
			<path class="st6" d="M466.9,132.9c0.6-0.7,1.4-1.4,2.3-2c0.9-0.6,1.9-1,3-1.2c1-0.2,1.9-0.2,2.8-0.1c1.1,0.2,2.2,0.5,3.4,1.1
				l0.1,0.8c-0.9-0.3-1.6-0.5-2-0.6c-0.6-0.1-1.2-0.2-1.8-0.2c-0.8,0-1.6,0-2.3,0.2c-1.9,0.4-3.7,1.3-5.4,2.9L466.9,132.9z"/>
			<path class="st6" d="M470.7,138.2l-0.2-1.1l6.9-1.3c-0.3-0.2-0.6-0.5-0.9-0.9c-0.3-0.4-0.6-0.7-0.8-1l1-0.2
				c0.4,0.5,0.8,1,1.3,1.4c0.5,0.4,0.9,0.6,1.4,0.7l0.1,0.7L470.7,138.2z"/>
		</g>
		<g>
			<path class="st6" d="M473.3,146.4l-1,0.2l-1.1-5.8c0.3-0.1,0.5-0.1,0.8,0c0.4,0.1,0.9,0.2,1.3,0.5c0.4,0.3,1,0.6,1.6,1.2
				c1,0.8,1.7,1.3,2.2,1.6c0.5,0.2,1,0.3,1.4,0.3c0.4-0.1,0.8-0.3,1-0.7c0.2-0.4,0.3-0.8,0.2-1.3c-0.1-0.5-0.3-0.9-0.7-1.2
				s-0.8-0.3-1.4-0.2l-0.1-1.1c0.8-0.1,1.5,0.1,2.1,0.5c0.5,0.4,0.9,1,1,1.9c0.2,0.8,0.1,1.6-0.3,2.1c-0.4,0.6-0.9,0.9-1.6,1.1
				c-0.4,0.1-0.7,0.1-1.1,0c-0.4-0.1-0.8-0.2-1.2-0.5c-0.4-0.3-1.1-0.7-1.9-1.4c-0.7-0.5-1.1-0.9-1.3-1c-0.2-0.1-0.5-0.3-0.7-0.3
				L473.3,146.4z"/>
			<path class="st6" d="M478.3,147l1.6-0.6l1.4-0.3l0.2,1.2l-1.4,0.3l-1.7,0.1L478.3,147z M478.7,149l1.6-0.6l1.4-0.3l0.2,1.2
				l-1.4,0.3l-1.7,0L478.7,149z"/>
		</g>
		<g>
			<path class="st6" d="M471,153.7l-0.2-0.8c2.2,0.8,4.2,1,6.1,0.7c0.8-0.1,1.5-0.4,2.2-0.7c0.6-0.3,1.1-0.6,1.6-0.9
				c0.3-0.2,0.9-0.7,1.6-1.3l0.2,0.8c-0.9,0.9-1.8,1.7-2.7,2.3c-0.8,0.5-1.7,0.8-2.6,1c-1.1,0.2-2.2,0.2-3.3,0
				C472.8,154.4,471.8,154.1,471,153.7z"/>
		</g>
		<line class="st30" x1="450" y1="66.4" x2="467.8" y2="157.4"/>
		<polygon class="st6" points="446.3,70.3 447.5,52.8 455.2,68.5 		"/>
		<g>
			<path class="st6" d="M581.3,165.3l3.8-8.1l3.6,1.7c0.7,0.3,1.2,0.7,1.6,1c0.3,0.3,0.5,0.7,0.5,1.2c0.1,0.5,0,0.9-0.2,1.4
				c-0.3,0.6-0.7,1-1.2,1.2c-0.6,0.2-1.3,0.2-2.1-0.1c0.2,0.3,0.4,0.5,0.5,0.7c0.2,0.4,0.3,0.9,0.4,1.5l0.4,2.9l-1.4-0.6l-0.3-2.2
				c-0.1-0.6-0.2-1.1-0.3-1.5s-0.2-0.6-0.3-0.8c-0.1-0.2-0.2-0.3-0.4-0.4c-0.1-0.1-0.3-0.2-0.6-0.3l-1.2-0.6l-1.7,3.6L581.3,165.3z
				 M584.4,161.2l2.3,1.1c0.5,0.2,0.9,0.4,1.2,0.4c0.3,0,0.6,0,0.9-0.2c0.2-0.2,0.4-0.4,0.6-0.6c0.2-0.4,0.2-0.8,0-1.1
				c-0.2-0.4-0.5-0.7-1.2-1l-2.6-1.2L584.4,161.2z"/>
		</g>
		<g>
			<path class="st6" d="M592.8,170.6l-1-0.5l3-6.4c-0.3,0.1-0.8,0.2-1.3,0.2c-0.5,0-0.9,0.1-1.3,0l0.4-1c0.7,0,1.3-0.1,1.9-0.3
				c0.6-0.2,1.1-0.4,1.4-0.7l0.6,0.3L592.8,170.6z"/>
			<path class="st6" d="M595.9,172.1l0.5-1.1l1.1,0.5l-0.5,1.1L595.9,172.1z"/>
			<path class="st6" d="M599.5,171.2l1.1,0.4c-0.2,0.5-0.2,1,0,1.4c0.2,0.4,0.4,0.7,0.8,0.9c0.5,0.2,1,0.2,1.5,0
				c0.5-0.2,0.9-0.6,1.2-1.2c0.3-0.6,0.3-1.1,0.1-1.6c-0.2-0.5-0.5-0.8-1-1.1c-0.3-0.1-0.6-0.2-1-0.2c-0.3,0-0.6,0.1-0.9,0.3
				l-0.9-0.6l2.7-3.8l4,1.9l-0.4,1l-3.2-1.5l-1.5,2c0.6-0.1,1.2,0,1.8,0.2c0.7,0.3,1.2,0.9,1.5,1.6c0.3,0.7,0.2,1.5-0.1,2.2
				c-0.3,0.7-0.9,1.3-1.5,1.6c-0.8,0.4-1.7,0.4-2.6,0c-0.7-0.3-1.2-0.8-1.5-1.5S599.2,171.9,599.5,171.2z"/>
			<path class="st6" d="M605.8,174.4l1,0.4c-0.1,0.5-0.1,0.9,0,1.2c0.1,0.3,0.4,0.5,0.7,0.7c0.3,0.1,0.6,0.2,0.9,0.2
				c0.3,0,0.6-0.1,0.8-0.3c0.3-0.2,0.5-0.4,0.8-0.8c0.3-0.4,0.5-0.7,0.7-1.2c0,0,0-0.1,0.1-0.2c-0.3,0.2-0.7,0.4-1.2,0.4
				c-0.4,0-0.9,0-1.3-0.2c-0.7-0.3-1.1-0.8-1.4-1.5c-0.2-0.7-0.2-1.5,0.2-2.3c0.4-0.8,0.9-1.4,1.7-1.7c0.7-0.3,1.4-0.2,2.2,0.1
				c0.5,0.2,0.9,0.6,1.3,1.1c0.3,0.5,0.5,1,0.4,1.7s-0.3,1.4-0.7,2.4c-0.5,1-1,1.8-1.5,2.3c-0.5,0.5-1.1,0.8-1.7,0.9
				c-0.6,0.1-1.2,0-1.8-0.2c-0.6-0.3-1.1-0.7-1.3-1.3C605.6,175.7,605.6,175.1,605.8,174.4z M611.6,172.7c0.3-0.6,0.3-1.1,0.2-1.6
				c-0.1-0.5-0.4-0.8-0.9-1c-0.4-0.2-0.9-0.2-1.4,0c-0.5,0.2-0.9,0.6-1.1,1.2c-0.2,0.5-0.3,1-0.1,1.5c0.2,0.5,0.5,0.8,0.9,1
				c0.5,0.2,0.9,0.2,1.4,0C611,173.7,611.3,173.3,611.6,172.7z"/>
			<path class="st6" d="M615.4,184.1c-0.2-1-0.3-2-0.3-3.1c0.1-1.1,0.3-2.2,0.8-3.2c0.4-0.9,0.9-1.7,1.6-2.3
				c0.8-0.8,1.7-1.5,2.8-2.1l0.7,0.3c-0.8,0.6-1.4,1-1.7,1.2c-0.5,0.4-0.9,0.9-1.3,1.4c-0.5,0.6-0.9,1.3-1.2,2
				c-0.8,1.8-1.1,3.8-0.8,6.1L615.4,184.1z"/>
			<path class="st6" d="M621.8,184.2l-1-0.5l3-6.4c-0.3,0.1-0.8,0.2-1.3,0.2c-0.5,0-0.9,0.1-1.3,0l0.4-1c0.7,0,1.3-0.1,1.9-0.3
				c0.6-0.2,1.1-0.4,1.4-0.7l0.6,0.3L621.8,184.2z"/>
			<path class="st6" d="M623.9,185.3l6.3-7.3l0.8,0.4l-6.3,7.3L623.9,185.3z"/>
			<path class="st6" d="M631.3,188.6l-1-0.5l3-6.4c-0.3,0.1-0.8,0.2-1.3,0.2c-0.5,0-0.9,0.1-1.3,0l0.4-1c0.7,0,1.3-0.1,1.9-0.3
				c0.6-0.2,1.1-0.4,1.4-0.7l0.6,0.3L631.3,188.6z"/>
			<path class="st6" d="M641.9,186l-1-0.4c0.1-0.4,0.1-0.8,0-1c-0.1-0.4-0.4-0.7-0.8-0.9c-0.3-0.1-0.6-0.2-1-0.1
				c-0.4,0.1-0.8,0.3-1.2,0.7c-0.4,0.4-0.8,0.9-1.2,1.7c0.4-0.3,0.8-0.4,1.3-0.4c0.4,0,0.8,0.1,1.2,0.2c0.7,0.3,1.1,0.8,1.4,1.5
				c0.2,0.7,0.2,1.4-0.2,2.2c-0.2,0.5-0.6,0.9-1,1.3c-0.4,0.3-0.9,0.5-1.4,0.6c-0.5,0.1-1,0-1.5-0.3c-0.8-0.4-1.4-1-1.6-1.9
				c-0.2-0.9,0-2,0.6-3.4c0.7-1.6,1.6-2.6,2.5-3c0.8-0.4,1.6-0.4,2.5,0c0.6,0.3,1.1,0.7,1.3,1.3C642.1,184.7,642.1,185.4,641.9,186z
				 M636.2,187.6c-0.2,0.3-0.2,0.7-0.2,1.1c0,0.4,0.1,0.7,0.3,1c0.2,0.3,0.4,0.5,0.7,0.6c0.4,0.2,0.9,0.2,1.3,0s0.8-0.6,1.1-1.2
				c0.3-0.6,0.3-1.1,0.2-1.5s-0.5-0.8-0.9-1c-0.5-0.2-0.9-0.2-1.4,0C636.8,186.8,636.4,187.1,636.2,187.6z"/>
			<path class="st6" d="M643,187.6l0.4-1.7l0.6-1.3l1.1,0.5l-0.6,1.3l-1,1.4L643,187.6z M644.8,188.4l0.4-1.7l0.6-1.3l1.1,0.5
				l-0.6,1.3l-1,1.4L644.8,188.4z"/>
			<path class="st6" d="M644,197.4l-0.7-0.3c1.9-1.3,3.3-2.8,4.1-4.6c0.3-0.7,0.6-1.4,0.7-2.2c0.1-0.6,0.2-1.2,0.2-1.8
				c0-0.4,0-1.1-0.1-2.1l0.7,0.3c0.3,1.3,0.3,2.4,0.2,3.5c-0.1,0.9-0.3,1.8-0.8,2.7c-0.5,1-1.1,1.9-1.9,2.6
				C645.8,196.4,644.9,196.9,644,197.4z"/>
		</g>
		<line class="st30" x1="652.6" y1="205.8" x2="577.6" y2="170.9"/>
		<polygon class="st6" points="651.6,200.5 665,211.8 647.8,208.8 		"/>
	</g>
</g>
<g id="Watermark">
	<g>
		<rect x="438.5" y="642.8" class="st1" width="123.1" height="46.3"/>
		<g>
			<rect x="444.9" y="650.7" class="st75" width="62.9" height="30.6"/>
			<rect x="507.7" y="650.7" class="st75" width="47.4" height="30.6"/>
			<g>
				<path class="st76" d="M466.5,656.8l-2.8,18.9H461l-1.6-11l-1.5,11h-2.7l-2.8-18.9h2.5l1.8,14.2l1.8-14.2h2l1.8,14.2l1.8-14.2
					H466.5z"/>
				<path class="st76" d="M467.9,675.7v-18.9h2.5v18.9H467.9z"/>
				<path class="st76" d="M472.8,656.8h5c1.9,0,2.9,1.1,2.9,3.2v4.7c0,1.7-0.5,2.7-1.5,3.1l1.8,7.9h-2.4l-1.7-7.6h-1.5v7.6h-2.5
					V656.8z M475.4,665.9h1.7c0.8,0,1.1-0.5,1.1-1.4v-4.1c0-0.9-0.4-1.4-1.1-1.4h-1.7V665.9z"/>
				<path class="st76" d="M486.8,659.1v16.6h-2.5v-16.6h-2.4v-2.3h7.4v2.3H486.8z"/>
				<path class="st76" d="M496.3,675.7v-8.6h-3.1v8.6h-2.5v-18.9h2.5v8h3.1v-8h2.5v18.9H496.3z"/>
			</g>
			<g>
				<path class="st76" d="M516.3,656.8h5c1.9,0,2.9,1.1,2.9,3.2v4.7c0,1.7-0.5,2.7-1.5,3.1l1.8,7.9H522l-1.7-7.6h-1.5v7.6h-2.5
					V656.8z M518.8,665.9h1.7c0.8,0,1.1-0.5,1.1-1.4v-4.1c0-0.9-0.4-1.4-1.1-1.4h-1.7V665.9z"/>
				<path class="st76" d="M528.7,675.7h-2.5V660c0-2.2,1-3.2,3-3.2h1.9c2,0,3,1.1,3,3.2v15.7h-2.5v-6.9h-2.9V675.7z M531.6,666.5
					v-6.3c0-0.7-0.4-1.1-1.1-1.1h-0.7c-0.7,0-1.1,0.4-1.1,1.1v6.3H531.6z"/>
				<path class="st76" d="M536.3,675.7v-18.9h2.5v18.9H536.3z"/>
				<path class="st76" d="M547.2,675.7h-6v-18.9h2.5v16.6h3.5V675.7z"/>
			</g>
		</g>
	</g>
</g>
</svg>
