<?xml version="1.0" encoding="utf-8"?>
<!-- Generator: Adobe Illustrator 25.2.3, SVG Export Plug-In . SVG Version: 6.00 Build 0)  -->
<svg version="1.1" xmlns="http://www.w3.org/2000/svg" xmlns:xlink="http://www.w3.org/1999/xlink" x="0px" y="0px"
	 viewBox="0 0 1000 800" style="enable-background:new 0 0 1000 800;" xml:space="preserve">
<style type="text/css">
	.st0{display:none;}
	.st1{fill:#F0F0F0;}
	.st2{fill:none;stroke:#221E1F;stroke-width:1.0067;}
	.st3{fill:none;stroke:#221E1F;stroke-width:1.0815;}
	.st4{fill:#221E1F;}
	.st5{fill:none;stroke:#221E1F;stroke-width:1.0067;stroke-dasharray:25.4357,7.8961;}
	.st6{fill:#303030;}
	.st7{fill:none;stroke:#221E1F;stroke-width:0.9293;}
	.st8{fill:none;stroke:#303030;stroke-width:1.0067;stroke-miterlimit:10;}
	.st9{fill:none;stroke:#221E1F;stroke-width:1.2309;}
	.st10{fill:none;stroke:#221E1F;stroke-width:1.0036;stroke-linecap:round;stroke-linejoin:round;stroke-miterlimit:10;}
	.st11{fill:none;stroke:#221E1F;stroke-width:1.2309;stroke-linecap:round;stroke-linejoin:round;stroke-miterlimit:10;}
	.st12{fill:none;stroke:#221E1F;stroke-width:1.2309;stroke-miterlimit:10;}
	.st13{fill:none;stroke:#221E1F;stroke-width:1.2309;stroke-linecap:round;stroke-linejoin:round;}
	.st14{fill:none;stroke:#221E1F;stroke-width:1.2309;stroke-dasharray:6.9402,6.9402;}
	.st15{fill:none;stroke:#221E1F;stroke-width:1.148;}
	.st16{fill:none;stroke:#221E1F;stroke-width:1.148;stroke-dasharray:6.4521,6.4521;}
	.st17{fill:none;stroke:#221E1F;stroke-width:1.145;}
	.st18{fill:none;stroke:#221E1F;stroke-width:1.1283;}
	.st19{fill:none;stroke:#221E1F;stroke-width:1.1023;}
	.st20{fill:none;stroke:#221E1F;stroke-width:1.1283;stroke-dasharray:6.3679,6.3679;}
	.st21{fill:none;stroke:#221E1F;stroke-width:1.1486;}
	.st22{fill:none;stroke:#FFFFFF;stroke-width:5.4259;}
	.st23{fill:none;stroke:#221E1F;stroke-width:1.0581;}
	.st24{fill:none;stroke:#221E1F;stroke-width:1.0092;}
	.st25{fill:none;stroke:#221E1F;stroke-width:0.9007;}
	.st26{fill:none;stroke:#221E1F;stroke-width:0.9007;stroke-dasharray:6.2235,6.2235;}
	.st27{fill:none;stroke:#241F21;stroke-width:0.8703;}
	.st28{fill:none;stroke:#241F21;stroke-width:0.9357;}
	.st29{clip-path:url(#SVGID_2_);fill:none;stroke:#241F21;stroke-width:0.8703;}
	.st30{fill:none;stroke:#303030;stroke-width:0.8703;stroke-miterlimit:10;}
	.st31{fill:#241F21;}
	.st32{fill:none;stroke:#241F21;stroke-width:0.8703;stroke-dasharray:22.0524,6.4121;}
	.st33{clip-path:url(#SVGID_4_);}
	.st34{clip-path:url(#SVGID_6_);}
	.st35{clip-path:url(#SVGID_8_);}
	.st36{clip-path:url(#SVGID_10_);fill:#303030;}
	.st37{fill:none;stroke:#241F21;stroke-width:0.8703;stroke-dasharray:26.5684,7.9543;}
	.st38{clip-path:url(#SVGID_12_);}
	.st39{clip-path:url(#SVGID_14_);}
	.st40{clip-path:url(#SVGID_16_);}
	.st41{clip-path:url(#SVGID_18_);}
	.st42{fill:none;stroke:#241F21;stroke-width:0.8984;}
	.st43{fill:none;stroke:#303030;stroke-width:0.8984;stroke-miterlimit:10;}
	.st44{clip-path:url(#SVGID_20_);}
	.st45{clip-path:url(#SVGID_22_);}
	.st46{clip-path:url(#SVGID_24_);}
	.st47{clip-path:url(#SVGID_26_);}
	.st48{clip-path:url(#SVGID_28_);}
	.st49{clip-path:url(#SVGID_30_);}
	.st50{clip-path:url(#SVGID_32_);}
	.st51{clip-path:url(#SVGID_34_);fill:none;stroke:#241F21;stroke-width:0.8984;}
	.st52{clip-path:url(#SVGID_36_);fill:none;stroke:#241F21;stroke-width:0.8984;}
	.st53{clip-path:url(#SVGID_38_);fill:none;stroke:#241F21;stroke-width:0.8984;}
	.st54{clip-path:url(#SVGID_40_);fill:none;stroke:#241F21;stroke-width:0.8984;}
	.st55{fill:none;stroke:#241F21;stroke-width:0.8984;stroke-dasharray:22.7263,6.6621;}
	.st56{fill:none;stroke:#241F21;stroke-width:0.9362;}
	.st57{fill:none;stroke:#241F21;stroke-width:0.8984;stroke-dasharray:27.9392,8.7142;}
	.st58{clip-path:url(#SVGID_42_);}
	.st59{clip-path:url(#SVGID_44_);}
	.st60{clip-path:url(#SVGID_46_);}
	.st61{fill:none;stroke:#221E1F;stroke-width:0.765;}
	.st62{fill:none;stroke:#221E1F;stroke-width:0.8373;}
	.st63{fill:none;stroke:#221E1F;stroke-width:0.765;stroke-dasharray:21.1617,6.4071;}
	.st64{fill:none;stroke:#221E1F;stroke-width:0.765;stroke-dasharray:24.8189,7.2742;}
	.st65{fill:none;stroke:#303030;stroke-width:0.765;stroke-miterlimit:10;}
	.st66{fill:none;stroke:#221E1F;stroke-width:0.748;}
	.st67{fill:none;stroke:#241F21;stroke-width:1.3086;}
	.st68{fill:none;stroke:#241F21;stroke-width:1.5023;}
	.st69{fill:none;stroke:#241F21;stroke-width:1.1437;}
	.st70{fill:none;stroke:#241F21;stroke-width:1.5023;stroke-dasharray:23.5916,9.5345;}
	.st71{fill:none;stroke:#241F21;stroke-width:1.5023;stroke-dasharray:22.9216,8.8619;}
	.st72{fill:none;stroke:#241F21;stroke-width:1.5023;stroke-dasharray:21.3408,7.2811;}
	.st73{fill:none;stroke:#241F21;stroke-width:1.5023;stroke-dasharray:21.3303,7.2706;}
	.st74{fill:none;stroke:#241F21;stroke-width:1.5023;stroke-dasharray:20.027,5.9673;}
	.st75{fill:#F0F0F0;stroke:#CCCCCC;stroke-miterlimit:10;}
	.st76{fill:#CCCCCC;}
</style>
<g id="editable" class="st0">
</g>
<g id="Flat">
	<g>
		<line class="st22" x1="512.7" y1="452.8" x2="512.7" y2="311.2"/>
		<line class="st22" x1="512.7" y1="452.8" x2="512.7" y2="311.2"/>
		<line class="st22" x1="512.7" y1="452.8" x2="512.7" y2="311.2"/>
		<line class="st22" x1="512.7" y1="452.8" x2="512.7" y2="311.2"/>
		<g>
			<path class="st1" d="M813.7,685.4c-4.4-1-235.7-53.6-235.7-53.6s-30.7-5.8-37.5-42.4c0,0-4.9-52.7-4.9-135.5s5.4-162.8,5.4-162.8
				s3.4-28.7,37.5-39.4l82.6-20c0,0,12.2-1,12.7-16.6v-69c0,0-3.9-51.6-61.8-60.4l-109.1-2.4v0l-0.9,0l-0.9,0v0l-114.3,2.4
				c-57.9,8.8-61.8,60.4-61.8,60.4v69c0.5,15.6,12.7,16.6,12.7,16.6l85.2,20c34.1,10.7,37.5,39.4,37.5,39.4s5.4,80,5.4,162.8
				s-4.9,135.5-4.9,135.5c-6.8,36.5-37.5,42.4-37.5,42.4S192,684.4,187.7,685.4c-4.4,1-9.7,2.9-10.7,10.2v21.8
				c1,8.3,11.2,11.2,11.2,11.2h310.5h6.7h307.9c0,0,10.2-2.9,11.2-11.2v-21.8C823.5,688.3,818.1,686.3,813.7,685.4"/>
			<path class="st23" d="M813.7,685.4c-4.4-1-235.7-53.6-235.7-53.6s-30.7-5.8-37.5-42.4c0,0-4.9-52.7-4.9-135.5
				s5.4-162.8,5.4-162.8s3.4-28.7,37.5-39.4l82.6-20c0,0,12.2-1,12.7-16.6v-69c0,0-3.9-51.6-61.8-60.4l-109.1-2.4v0l-0.9,0l-0.9,0v0
				l-114.3,2.4c-57.9,8.8-61.8,60.4-61.8,60.4v69c0.5,15.6,12.7,16.6,12.7,16.6l85.2,20c34.1,10.7,37.5,39.4,37.5,39.4
				s5.4,80,5.4,162.8s-4.9,135.5-4.9,135.5c-6.8,36.5-37.5,42.4-37.5,42.4S192,684.4,187.7,685.4c-4.4,1-9.7,2.9-10.7,10.2v21.8
				c1,8.3,11.2,11.2,11.2,11.2h310.5h6.7h307.9c0,0,10.2-2.9,11.2-11.2v-21.8C823.5,688.3,818.1,686.3,813.7,685.4z"/>
		</g>
		<line class="st23" x1="152.5" y1="271.2" x2="498.8" y2="271.2"/>
		<line class="st23" x1="674" y1="148.6" x2="674" y2="9.2"/>
		<line class="st23" x1="325" y1="146.1" x2="325" y2="7.4"/>
		<line class="st23" x1="73.2" y1="83.4" x2="498.8" y2="83.4"/>
		<line class="st23" x1="290.6" y1="437.5" x2="466" y2="437.5"/>
		<line class="st23" x1="278.2" y1="232.2" x2="338.4" y2="232.2"/>
		<line class="st23" x1="70.5" y1="728.5" x2="198.9" y2="728.5"/>
		<g>
			<line class="st23" x1="824" y1="717.6" x2="824" y2="789.5"/>
		</g>
		<line class="st23" x1="176.9" y1="718.7" x2="176.9" y2="786.1"/>
		<line class="st24" x1="499.7" y1="612.4" x2="125.5" y2="612.4"/>
		<line class="st23" x1="191.5" y1="773.1" x2="810.5" y2="773.1"/>
		<polygon class="st4" points="194.6,777.5 177.4,772.9 194.6,768.3 		"/>
		<polygon class="st4" points="807.4,777.5 824.6,772.9 807.4,768.3 		"/>
		<g>
			<path class="st6" d="M461.8,764.4c0-1.4,0.9-2.5,2.3-3.1l0-0.1c-1.3-0.6-1.8-1.6-1.8-2.6c0-1.8,1.5-3.1,3.5-3.1
				c2.2,0,3.3,1.4,3.3,2.8c0,1-0.5,2-1.9,2.7v0.1c1.4,0.6,2.3,1.6,2.3,3c0,2-1.7,3.3-3.9,3.3C463.2,767.5,461.8,766.1,461.8,764.4z
				 M468,764.3c0-1.4-1-2.1-2.5-2.5c-1.3,0.4-2.1,1.3-2.1,2.4c-0.1,1.2,0.8,2.2,2.3,2.2C467.1,766.4,468,765.5,468,764.3z
				 M463.7,758.6c0,1.1,0.9,1.8,2.2,2.1c1-0.3,1.7-1,1.7-2.1c0-0.9-0.5-1.9-1.9-1.9C464.4,756.8,463.7,757.6,463.7,758.6z"/>
			<path class="st6" d="M470.8,764.4c0-1.4,0.9-2.5,2.3-3.1l0-0.1c-1.3-0.6-1.8-1.6-1.8-2.6c0-1.8,1.5-3.1,3.5-3.1
				c2.2,0,3.3,1.4,3.3,2.8c0,1-0.5,2-1.9,2.7v0.1c1.4,0.6,2.3,1.6,2.3,3c0,2-1.7,3.3-3.9,3.3C472.3,767.5,470.8,766.1,470.8,764.4z
				 M477,764.3c0-1.4-1-2.1-2.5-2.5c-1.3,0.4-2.1,1.3-2.1,2.4c-0.1,1.2,0.8,2.2,2.3,2.2C476.1,766.4,477,765.5,477,764.3z
				 M472.8,758.6c0,1.1,0.9,1.8,2.2,2.1c1-0.3,1.7-1,1.7-2.1c0-0.9-0.5-1.9-1.9-1.9C473.5,756.8,472.8,757.6,472.8,758.6z"/>
			<path class="st6" d="M480.2,766.4c0-0.7,0.4-1.1,1.1-1.1s1,0.5,1,1.1c0,0.6-0.4,1.1-1.1,1.1C480.6,767.5,480.2,767,480.2,766.4z"
				/>
			<path class="st6" d="M484.6,766.2c0.3,0,0.7,0,1.3-0.1c0.9-0.1,1.7-0.5,2.4-1.1c0.8-0.7,1.3-1.7,1.5-3.1h-0.1
				c-0.6,0.8-1.6,1.2-2.7,1.2c-2.1,0-3.4-1.6-3.4-3.5c0-2.2,1.6-4.1,3.9-4.1c2.3,0,3.8,1.9,3.8,4.8c0,2.5-0.8,4.3-2,5.4
				c-0.9,0.9-2.1,1.4-3.3,1.5c-0.6,0.1-1.1,0.1-1.4,0.1V766.2z M485.1,759.6c0,1.4,0.9,2.4,2.2,2.4c1,0,1.9-0.5,2.3-1.2
				c0.1-0.1,0.1-0.3,0.1-0.6c0-2-0.7-3.5-2.3-3.5C486.1,756.8,485.1,758,485.1,759.6z"/>
			<path class="st6" d="M500.4,761.5c0,3.9-1.4,6.1-4,6.1c-2.2,0-3.8-2.1-3.8-5.9c0-3.8,1.7-6,4-6
				C499,755.7,500.4,757.8,500.4,761.5z M494.1,761.6c0,3,0.9,4.7,2.3,4.7c1.6,0,2.3-1.9,2.3-4.8c0-2.8-0.7-4.7-2.3-4.7
				C495.1,756.8,494.1,758.5,494.1,761.6z"/>
			<path class="st6" d="M509.4,755.1c-1.3,1.7-2.2,4-2.2,7.2c0,3.1,1,5.4,2.2,7.2h-1.2c-1.1-1.5-2.3-3.7-2.3-7.2
				c0-3.5,1.2-5.7,2.3-7.2H509.4z"/>
			<path class="st6" d="M510.9,765.5c0.4,0.3,1.5,0.7,2.5,0.7c2,0,2.6-1.3,2.6-2.2c0-1.6-1.5-2.3-3-2.3h-0.9v-1.2h0.9
				c1.1,0,2.6-0.6,2.6-1.9c0-0.9-0.6-1.7-2-1.7c-0.9,0-1.8,0.4-2.3,0.8l-0.4-1.1c0.6-0.4,1.8-0.9,3-0.9c2.3,0,3.3,1.3,3.3,2.7
				c0,1.2-0.7,2.2-2.1,2.7v0c1.4,0.3,2.6,1.3,2.6,2.9c0,1.8-1.4,3.4-4.2,3.4c-1.3,0-2.4-0.4-3-0.8L510.9,765.5z"/>
			<path class="st6" d="M526.7,757.3L526.7,757.3l-2,1.1l-0.3-1.2l2.5-1.3h1.3v11.5h-1.5V757.3z"/>
			<path class="st6" d="M531.5,768l4.9-12.8h1.2l-4.9,12.8H531.5z"/>
			<path class="st6" d="M538.4,767.3v-1l1.2-1.2c2.9-2.8,4.3-4.3,4.3-6c0-1.2-0.6-2.2-2.3-2.2c-1,0-1.9,0.5-2.4,1l-0.5-1.1
				c0.8-0.7,1.9-1.2,3.2-1.2c2.5,0,3.5,1.7,3.5,3.3c0,2.1-1.5,3.8-4,6.2l-0.9,0.8v0h5.2v1.3H538.4z"/>
			<path class="st6" d="M549.1,755.2l-0.3,4.2h-1l-0.3-4.2H549.1z M551.7,755.2l-0.3,4.2h-0.9l-0.3-4.2H551.7z"/>
			<path class="st6" d="M553,769.4c1.3-1.7,2.2-4,2.2-7.2c0-3.2-1-5.4-2.2-7.2h1.2c1.1,1.4,2.3,3.7,2.3,7.2c0,3.5-1.2,5.7-2.3,7.2
				H553z"/>
		</g>
		<line class="st25" x1="499.5" y1="69.6" x2="499.5" y2="73.5"/>
		<line class="st26" x1="499.5" y1="81.6" x2="499.5" y2="735.1"/>
		<line class="st25" x1="499.5" y1="739.1" x2="499.5" y2="743"/>
		<g>
			<path class="st4" d="M507.7,80.4v-4.6l-4.1-6.2h1.7l2.1,3.2c0.4,0.6,0.8,1.2,1.1,1.8c0.3-0.6,0.7-1.2,1.2-1.9l2.1-3.2h1.7
				l-4.3,6.2v4.6H507.7z"/>
			<path class="st4" d="M507.7,743v-4.6l-4.1-6.2h1.7l2.1,3.2c0.4,0.6,0.8,1.2,1.1,1.8c0.3-0.6,0.7-1.2,1.2-1.9l2.1-3.2h1.7
				l-4.3,6.2v4.6H507.7z"/>
		</g>
		<g>
			<path class="st6" d="M292.3,430.4c0.3,0,0.7,0,1.3-0.1c0.9-0.1,1.7-0.5,2.4-1.1c0.8-0.7,1.3-1.7,1.5-3.1h-0.1
				c-0.6,0.8-1.6,1.2-2.7,1.2c-2.1,0-3.4-1.6-3.4-3.5c0-2.2,1.6-4.1,3.9-4.1c2.3,0,3.8,1.9,3.8,4.8c0,2.5-0.8,4.3-2,5.4
				c-0.9,0.9-2.1,1.4-3.3,1.5c-0.6,0.1-1.1,0.1-1.4,0.1V430.4z M292.8,423.8c0,1.4,0.9,2.4,2.2,2.4c1,0,1.9-0.5,2.3-1.2
				c0.1-0.1,0.1-0.3,0.1-0.6c0-2-0.7-3.5-2.3-3.5C293.8,421,292.8,422.2,292.8,423.8z"/>
			<path class="st6" d="M300.5,430.6c0-0.7,0.4-1.1,1.1-1.1s1,0.5,1,1.1c0,0.6-0.4,1.1-1.1,1.1C301,431.7,300.5,431.2,300.5,430.6z"
				/>
			<path class="st6" d="M305,430.4c0.3,0,0.7,0,1.3-0.1c0.9-0.1,1.7-0.5,2.4-1.1c0.8-0.7,1.3-1.7,1.5-3.1h-0.1
				c-0.6,0.8-1.6,1.2-2.7,1.2c-2.1,0-3.4-1.6-3.4-3.5c0-2.2,1.6-4.1,3.9-4.1c2.3,0,3.8,1.9,3.8,4.8c0,2.5-0.8,4.3-2,5.4
				c-0.9,0.9-2.1,1.4-3.3,1.5c-0.6,0.1-1.1,0.1-1.4,0.1V430.4z M305.5,423.8c0,1.4,0.9,2.4,2.2,2.4c1,0,1.9-0.5,2.3-1.2
				c0.1-0.1,0.1-0.3,0.1-0.6c0-2-0.7-3.5-2.3-3.5C306.5,421,305.5,422.2,305.5,423.8z"/>
			<path class="st6" d="M313.1,431.5v-1l1.2-1.2c2.9-2.8,4.3-4.3,4.3-6c0-1.2-0.6-2.2-2.3-2.2c-1,0-1.9,0.5-2.4,1l-0.5-1.1
				c0.8-0.7,1.9-1.2,3.2-1.2c2.5,0,3.5,1.7,3.5,3.3c0,2.1-1.5,3.8-4,6.2l-0.9,0.8v0h5.2v1.3H313.1z"/>
			<path class="st6" d="M329.8,419.3c-1.3,1.7-2.2,4-2.2,7.2c0,3.1,1,5.4,2.2,7.2h-1.2c-1.1-1.5-2.3-3.7-2.3-7.2
				c0-3.5,1.2-5.7,2.3-7.2H329.8z"/>
			<path class="st6" d="M330.9,431.5v-1l1.2-1.2c2.9-2.8,4.3-4.3,4.3-6c0-1.2-0.6-2.2-2.3-2.2c-1,0-1.9,0.5-2.4,1l-0.5-1.1
				c0.8-0.7,1.9-1.2,3.2-1.2c2.5,0,3.5,1.7,3.5,3.3c0,2.1-1.5,3.8-4,6.2l-0.9,0.8v0h5.2v1.3H330.9z"/>
			<path class="st6" d="M346.8,421.4h-4.4l-0.4,2.9c0.3,0,0.5-0.1,0.9-0.1c0.9,0,1.8,0.2,2.5,0.6c0.9,0.5,1.6,1.5,1.6,2.9
				c0,2.2-1.8,3.9-4.3,3.9c-1.3,0-2.3-0.4-2.9-0.7l0.4-1.2c0.5,0.3,1.4,0.6,2.5,0.6c1.5,0,2.7-1,2.7-2.5c0-1.5-1-2.5-3.3-2.5
				c-0.7,0-1.2,0.1-1.6,0.1l0.7-5.5h5.5V421.4z"/>
			<path class="st6" d="M348.2,432.2l4.9-12.8h1.2l-4.9,12.8H348.2z"/>
			<path class="st6" d="M361.6,421.2c-0.3,0-0.7,0-1.2,0.1c-2.4,0.4-3.7,2.2-4,4.1h0.1c0.5-0.7,1.5-1.3,2.8-1.3c2,0,3.5,1.5,3.5,3.7
				c0,2.1-1.4,4-3.8,4c-2.5,0-4.1-1.9-4.1-4.9c0-2.3,0.8-4,1.9-5.2c1-0.9,2.2-1.5,3.7-1.7c0.5-0.1,0.8-0.1,1.1-0.1V421.2z
				 M361.2,427.8c0-1.6-0.9-2.6-2.4-2.6c-0.9,0-1.8,0.6-2.2,1.4c-0.1,0.2-0.2,0.4-0.2,0.7c0,1.9,0.9,3.3,2.5,3.3
				C360.3,430.5,361.2,429.4,361.2,427.8z"/>
			<path class="st6" d="M368.9,431.5v-3.1h-5.3v-1l5.1-7.3h1.7v7.1h1.6v1.2h-1.6v3.1H368.9z M368.9,427.2v-3.8c0-0.6,0-1.2,0.1-1.8
				h-0.1c-0.4,0.7-0.6,1.2-1,1.7l-2.8,3.9v0H368.9z"/>
			<path class="st6" d="M374.8,419.4l-0.3,4.2h-1l-0.3-4.2H374.8z M377.4,419.4l-0.3,4.2h-0.9l-0.3-4.2H377.4z"/>
		</g>
		<g>
			<path class="st6" d="M378.7,433.7c1.3-1.7,2.2-4,2.2-7.2c0-3.2-1-5.4-2.2-7.2h1.2c1.1,1.4,2.3,3.7,2.3,7.2c0,3.5-1.2,5.7-2.3,7.2
				H378.7z"/>
		</g>
		<g>
			<path class="st6" d="M394.8,545.1c0.6,0.5,1.4,1.3,2.1,2.1c1.1,1.3,1.5,2.3,1.5,3.2c0,0.8-0.4,1.6-1.1,2.2
				c-1.2,1-2.6,0.9-3.8,0.3l0,0c0.4,0.9,0.1,1.9-0.7,2.9c-1,1.4-1.7,2.3-1.9,2.8l-1-1.2c0.1-0.4,0.7-1.2,1.7-2.4
				c1-1.3,1.1-2.2,0.2-3.3l-0.9-1.1l-3.9,3.3l-1-1.2L394.8,545.1z M391.7,549.8l1,1.2c1.1,1.2,2.4,1.5,3.5,0.6c1.2-1,1-2.3-0.1-3.5
				c-0.5-0.6-0.9-0.9-1.1-1.1L391.7,549.8z"/>
		</g>
		<g>
			<path class="st6" d="M403.8,557.8c-0.2-0.3-0.5-0.6-0.8-0.8c-1.9-1.6-4.1-1.4-5.7-0.4l0,0c0.9-0.1,2,0.3,2.8,1.3
				c1.3,1.5,1.1,3.6-0.6,5c-1.6,1.4-4,1.5-5.5-0.3c-1.6-1.9-1.2-4.3,1.1-6.3c1.7-1.5,3.6-2,5.2-1.9c1.3,0.1,2.6,0.7,3.7,1.7
				c0.4,0.3,0.6,0.6,0.8,0.8L403.8,557.8z M398.5,561.8c1.2-1.1,1.4-2.4,0.5-3.5c-0.6-0.7-1.6-1-2.5-0.8c-0.2,0-0.4,0.1-0.6,0.3
				c-1.4,1.2-1.9,2.8-0.9,4C395.8,562.9,397.2,562.8,398.5,561.8z"/>
		</g>
		<g>
			<path class="st6" d="M398.3,565.9c0.5-0.4,1.1-0.4,1.5,0.1c0.4,0.5,0.3,1.1-0.2,1.5c-0.5,0.4-1.1,0.4-1.5-0.1
				C397.7,567,397.8,566.4,398.3,565.9z"/>
		</g>
		<g>
			<path class="st6" d="M401.5,568.4c0.1,0.5,0.4,1.6,1.1,2.4c1.3,1.5,2.7,1.2,3.4,0.5c1.2-1.1,0.8-2.6-0.2-3.7l-0.6-0.7l0.9-0.8
				l0.6,0.7c0.7,0.9,2.1,1.6,3.1,0.7c0.7-0.6,0.9-1.6,0-2.7c-0.6-0.7-1.5-1.1-2.1-1.3l0.6-1c0.7,0.2,1.8,0.8,2.6,1.7
				c1.5,1.7,1.1,3.4,0,4.3c-0.9,0.8-2.1,0.9-3.4,0.1l0,0c0.7,1.3,0.6,2.8-0.6,3.9c-1.4,1.2-3.5,1.1-5.3-1c-0.8-1-1.3-2.1-1.3-2.8
				L401.5,568.4z"/>
		</g>
		<g>
			<path class="st6" d="M420,574c-2.2,0.1-4.5,0.9-6.9,3c-2.4,2-3.5,4.2-4,6.3l-0.8-0.9c0.4-1.8,1.3-4.2,4-6.4
				c2.7-2.2,5.1-2.8,7-2.9L420,574z"/>
		</g>
		<g>
			<path class="st6" d="M421.2,578.9L421.2,578.9l-2.1-0.8l0.7-1l2.6,1l0.9,1l-8.7,7.4l-1-1.1L421.2,578.9z"/>
		</g>
		<g>
			<path class="st6" d="M416.2,589.5l12.9-4.5l0.8,0.9l-12.9,4.5L416.2,589.5z"/>
		</g>
		<g>
			<path class="st6" d="M424.3,597.9l2.4-2l-3.4-4.1l0.8-0.7l8.9-0.8l1.1,1.3l-5.4,4.6l1,1.2l-0.9,0.8l-1-1.2l-2.4,2L424.3,597.9z
				 M427.6,595.1l2.9-2.5c0.5-0.4,0.9-0.8,1.4-1.1l0,0c-0.7,0.2-1.3,0.3-1.9,0.4l-4.8,0.4l0,0L427.6,595.1z"/>
		</g>
		<g>
			<path class="st6" d="M437.3,594.6l-3.4,2.5l-0.6-0.7l3-3L437.3,594.6z M439,596.6l-3.4,2.5l-0.6-0.7l3-3L439,596.6z"/>
		</g>
		<g>
			<path class="st6" d="M429,606.8c2.1-0.2,4.5-0.9,6.9-3c2.4-2,3.5-4.2,4-6.3l0.8,0.9c-0.4,1.8-1.3,4.2-4,6.4
				c-2.6,2.2-5.1,2.8-7,2.9L429,606.8z"/>
		</g>
		<line class="st23" x1="524.2" y1="437.2" x2="477.2" y2="437.2"/>
		<polygon class="st4" points="521.6,433.7 535.4,437.4 521.6,441.1 		"/>
		<polygon class="st4" points="479.7,433.7 466,437.4 479.7,441.1 		"/>
		<line class="st23" x1="90.2" y1="717.5" x2="90.2" y2="94.4"/>
		<polygon class="st4" points="93.7,715 90,728.8 86.3,715 		"/>
		<polygon class="st4" points="93.7,96.9 90,83.2 86.3,96.9 		"/>
		<g>
			<path class="st6" d="M81.4,466.8c-1.4,0-2.5-0.9-3.1-2.3l-0.1,0c-0.6,1.3-1.6,1.8-2.6,1.8c-1.8,0-3.1-1.5-3.1-3.5
				c0-2.2,1.4-3.3,2.8-3.3c1,0,2,0.5,2.7,1.9h0.1c0.6-1.4,1.6-2.3,3-2.3c2,0,3.3,1.7,3.3,3.9C84.5,465.4,83.1,466.8,81.4,466.8z
				 M75.6,464.9c1.1,0,1.8-0.9,2.1-2.2c-0.3-1-1-1.7-2.1-1.7c-0.9,0-1.9,0.5-1.9,1.9C73.8,464.2,74.6,464.9,75.6,464.9z M81.3,460.6
				c-1.4,0-2.1,1-2.5,2.5c0.4,1.3,1.3,2.1,2.4,2.1c1.2,0.1,2.2-0.8,2.2-2.3C83.4,461.5,82.5,460.6,81.3,460.6z"/>
			<path class="st6" d="M81.4,457.8c-1.4,0-2.5-0.9-3.1-2.3l-0.1,0c-0.6,1.3-1.6,1.8-2.6,1.8c-1.8,0-3.1-1.5-3.1-3.5
				c0-2.2,1.4-3.3,2.8-3.3c1,0,2,0.5,2.7,1.9h0.1c0.6-1.4,1.6-2.3,3-2.3c2,0,3.3,1.7,3.3,3.9C84.5,456.3,83.1,457.8,81.4,457.8z
				 M75.6,455.9c1.1,0,1.8-0.9,2.1-2.2c-0.3-1-1-1.7-2.1-1.7c-0.9,0-1.9,0.5-1.9,1.9C73.8,455.2,74.6,455.9,75.6,455.9z M81.3,451.6
				c-1.4,0-2.1,1-2.5,2.5c0.4,1.3,1.3,2.1,2.4,2.1c1.2,0.1,2.2-0.8,2.2-2.3C83.4,452.5,82.5,451.6,81.3,451.6z"/>
			<path class="st6" d="M83.4,448.5c-0.7,0-1.1-0.4-1.1-1.1s0.5-1,1.1-1c0.6,0,1.1,0.4,1.1,1.1C84.5,448,84,448.5,83.4,448.5z"/>
			<path class="st6" d="M83.2,444c0-0.3,0-0.7-0.1-1.3c-0.1-0.9-0.5-1.7-1.1-2.4c-0.7-0.8-1.7-1.3-3.1-1.5v0.1
				c0.8,0.6,1.2,1.6,1.2,2.7c0,2.1-1.6,3.4-3.5,3.4c-2.2,0-4.1-1.6-4.1-3.9c0-2.3,1.9-3.8,4.8-3.8c2.5,0,4.3,0.8,5.4,2
				c0.9,0.9,1.4,2.1,1.5,3.3c0.1,0.6,0.1,1.1,0.1,1.4H83.2z M76.6,443.5c1.4,0,2.4-0.9,2.4-2.2c0-1-0.5-1.9-1.2-2.3
				c-0.1-0.1-0.3-0.1-0.6-0.1c-2,0-3.5,0.7-3.5,2.3C73.8,442.5,75,443.5,76.6,443.5z"/>
			<path class="st6" d="M72.1,428.3c1.7,1.3,4,2.2,7.2,2.2c3.1,0,5.4-1,7.2-2.2v1.2c-1.5,1.1-3.7,2.3-7.2,2.3
				c-3.5,0-5.7-1.2-7.2-2.3V428.3z"/>
			<path class="st6" d="M82.5,426.8c0.3-0.4,0.7-1.5,0.7-2.5c0-2-1.3-2.6-2.2-2.6c-1.6,0-2.3,1.5-2.3,3v0.9h-1.2v-0.9
				c0-1.1-0.6-2.6-1.9-2.6c-0.9,0-1.7,0.6-1.7,2c0,0.9,0.4,1.8,0.8,2.3l-1.1,0.4c-0.4-0.6-0.9-1.8-0.9-3c0-2.3,1.3-3.3,2.7-3.3
				c1.2,0,2.2,0.7,2.7,2.1h0c0.3-1.4,1.3-2.6,2.9-2.6c1.8,0,3.4,1.4,3.4,4.2c0,1.3-0.4,2.4-0.8,3L82.5,426.8z"/>
			<path class="st6" d="M74.3,411L74.3,411l1.1,2l-1.2,0.3l-1.3-2.5v-1.3h11.5v1.5H74.3z"/>
			<path class="st6" d="M85,406.1l-12.8-4.9V400l12.8,4.9V406.1z"/>
			<path class="st6" d="M84.3,399.3h-1l-1.2-1.2c-2.8-2.9-4.3-4.3-6-4.3c-1.2,0-2.2,0.6-2.2,2.3c0,1,0.5,1.9,1,2.4l-1.1,0.5
				c-0.7-0.8-1.2-1.9-1.2-3.2c0-2.5,1.7-3.5,3.3-3.5c2.1,0,3.8,1.5,6.2,4l0.8,0.9h0v-5.2h1.3V399.3z"/>
			<path class="st6" d="M72.2,386l4.2,0.3v0.9l-4.2,0.3V386z M72.2,388.6l4.2,0.3v1l-4.2,0.3V388.6z"/>
			<path class="st6" d="M86.4,384.7c-1.7-1.3-4-2.2-7.2-2.2c-3.2,0-5.4,1-7.2,2.2v-1.2c1.4-1.1,3.7-2.3,7.2-2.3
				c3.5,0,5.7,1.2,7.2,2.3V384.7z"/>
		</g>
		<line class="st23" x1="136.9" y1="716.9" x2="136.9" y2="623.6"/>
		<polygon class="st4" points="140.4,714.4 136.7,728.2 133,714.4 		"/>
		<polygon class="st4" points="140.4,626.1 136.7,612.4 133,626.1 		"/>
		<line class="st23" x1="381.6" y1="556.9" x2="433.4" y2="615.5"/>
		<polygon class="st4" points="429.1,616 441,623.9 434.6,611.1 		"/>
		<g>
			<path class="st6" d="M458.7,22.6v-3.1h-5.3v-1l5.1-7.3h1.7v7.1h1.6v1.2h-1.6v3.1H458.7z M458.7,18.2v-3.8c0-0.6,0-1.2,0.1-1.8
				h-0.1c-0.4,0.7-0.6,1.2-1,1.7l-2.8,3.9v0H458.7z"/>
			<path class="st6" d="M470.4,11.1v1l-5,10.4h-1.6l5-10.1v0h-5.6v-1.3H470.4z"/>
			<path class="st6" d="M472.1,21.7c0-0.7,0.4-1.1,1.1-1.1s1,0.5,1,1.1c0,0.6-0.4,1.1-1.1,1.1C472.5,22.8,472.1,22.3,472.1,21.7z"/>
			<path class="st6" d="M482.2,12.2c-0.3,0-0.7,0-1.2,0.1c-2.4,0.4-3.7,2.2-4,4.1h0.1c0.5-0.7,1.5-1.3,2.8-1.3c2,0,3.5,1.5,3.5,3.7
				c0,2.1-1.4,4-3.8,4c-2.5,0-4.1-1.9-4.1-4.9c0-2.3,0.8-4,1.9-5.2c1-0.9,2.2-1.5,3.7-1.7c0.5-0.1,0.8-0.1,1.1-0.1V12.2z
				 M481.7,18.8c0-1.6-0.9-2.6-2.4-2.6c-0.9,0-1.8,0.6-2.2,1.4c-0.1,0.2-0.2,0.4-0.2,0.7c0,1.9,0.9,3.3,2.5,3.3
				C480.8,21.6,481.7,20.5,481.7,18.8z"/>
			<path class="st6" d="M484.7,22.6v-1l1.2-1.2c2.9-2.8,4.3-4.3,4.3-6c0-1.2-0.6-2.2-2.3-2.2c-1,0-1.9,0.5-2.4,1l-0.5-1.1
				c0.8-0.7,1.9-1.2,3.2-1.2c2.5,0,3.5,1.7,3.5,3.3c0,2.1-1.5,3.8-4,6.2l-0.9,0.8v0h5.2v1.3H484.7z"/>
			<path class="st6" d="M501.3,10.3c-1.3,1.7-2.2,4-2.2,7.2c0,3.1,1,5.4,2.2,7.2h-1.2c-1.1-1.5-2.3-3.7-2.3-7.2
				c0-3.5,1.2-5.7,2.3-7.2H501.3z"/>
			<path class="st6" d="M505.8,12.5L505.8,12.5l-2,1.1l-0.3-1.2l2.5-1.3h1.3v11.5h-1.5V12.5z"/>
			<path class="st6" d="M522.7,11.1v1l-5,10.4h-1.6l5-10.1v0h-5.6v-1.3H522.7z"/>
			<path class="st6" d="M523.5,23.3l4.9-12.8h1.2l-4.9,12.8H523.5z"/>
			<path class="st6" d="M530.2,19.7c0-1.4,0.9-2.5,2.3-3.1l0-0.1c-1.3-0.6-1.8-1.6-1.8-2.6c0-1.8,1.5-3.1,3.5-3.1
				c2.2,0,3.3,1.4,3.3,2.8c0,1-0.5,2-1.9,2.7v0.1c1.4,0.6,2.3,1.6,2.3,3c0,2-1.7,3.3-3.9,3.3C531.6,22.8,530.2,21.3,530.2,19.7z
				 M536.4,19.6c0-1.4-1-2.1-2.5-2.5c-1.3,0.4-2.1,1.3-2.1,2.4c-0.1,1.2,0.8,2.2,2.3,2.2C535.5,21.6,536.4,20.8,536.4,19.6z
				 M532.1,13.9c0,1.1,0.9,1.8,2.2,2.1c1-0.3,1.7-1,1.7-2.1c0-0.9-0.5-1.9-1.9-1.9C532.8,12,532.1,12.9,532.1,13.9z"/>
			<path class="st6" d="M541,10.5l-0.3,4.2h-1l-0.3-4.2H541z M543.6,10.5l-0.3,4.2h-0.9l-0.3-4.2H543.6z"/>
			<path class="st6" d="M544.9,24.7c1.3-1.7,2.2-4,2.2-7.2c0-3.2-1-5.4-2.2-7.2h1.2c1.1,1.4,2.3,3.7,2.3,7.2c0,3.5-1.2,5.7-2.3,7.2
				H544.9z"/>
		</g>
		<line class="st23" x1="292.4" y1="220.4" x2="292.4" y2="94.6"/>
		<polygon class="st4" points="295.9,217.9 292.2,231.6 288.5,217.9 		"/>
		<polygon class="st4" points="295.9,97.1 292.2,83.4 288.5,97.1 		"/>
		<line class="st23" x1="168.6" y1="260" x2="168.6" y2="94.6"/>
		<polygon class="st4" points="172.1,257.5 168.4,271.2 164.7,257.5 		"/>
		<polygon class="st4" points="172.1,97.1 168.4,83.4 164.7,97.1 		"/>
		<g>
			<path class="st6" d="M162.7,227.3h-1l-1.2-1.2c-2.8-2.9-4.3-4.3-6-4.3c-1.2,0-2.2,0.6-2.2,2.3c0,1,0.5,1.9,1,2.4l-1.1,0.5
				c-0.7-0.8-1.2-1.9-1.2-3.2c0-2.5,1.7-3.5,3.3-3.5c2.1,0,3.8,1.5,6.2,4l0.8,0.9h0V220h1.3V227.3z"/>
			<path class="st6" d="M152.6,211.4v4.4l2.9,0.4c0-0.3-0.1-0.5-0.1-0.9c0-0.9,0.2-1.8,0.6-2.5c0.5-0.9,1.5-1.6,2.9-1.6
				c2.2,0,3.9,1.8,3.9,4.3c0,1.3-0.4,2.3-0.7,2.9l-1.2-0.4c0.3-0.5,0.6-1.4,0.6-2.5c0-1.5-1-2.7-2.5-2.7c-1.5,0-2.5,1-2.5,3.3
				c0,0.7,0.1,1.2,0.1,1.6l-5.5-0.7v-5.5H152.6z"/>
			<path class="st6" d="M161.8,209.1c-0.7,0-1.1-0.4-1.1-1.1s0.5-1,1.1-1c0.6,0,1.1,0.4,1.1,1.1
				C162.9,208.6,162.4,209.1,161.8,209.1z"/>
			<path class="st6" d="M159.8,205.7c-1.4,0-2.5-0.9-3.1-2.3l-0.1,0c-0.6,1.3-1.6,1.8-2.6,1.8c-1.8,0-3.1-1.5-3.1-3.5
				c0-2.2,1.4-3.3,2.8-3.3c1,0,2,0.5,2.7,1.9h0.1c0.6-1.4,1.6-2.3,3-2.3c2,0,3.3,1.7,3.3,3.9C162.9,204.2,161.5,205.7,159.8,205.7z
				 M154,203.8c1.1,0,1.8-0.9,2.1-2.2c-0.3-1-1-1.7-2.1-1.7c-0.9,0-1.9,0.5-1.9,1.9C152.2,203.1,153,203.8,154,203.8z M159.7,199.5
				c-1.4,0-2.1,1-2.5,2.5c0.4,1.3,1.3,2.1,2.4,2.1c1.2,0.1,2.2-0.8,2.2-2.3C161.8,200.4,160.9,199.5,159.7,199.5z"/>
			<path class="st6" d="M156.9,188.9c3.9,0,6.1,1.4,6.1,4c0,2.2-2.1,3.8-5.9,3.8c-3.8,0-6-1.7-6-4
				C151.1,190.2,153.2,188.9,156.9,188.9z M157.1,195.1c3,0,4.7-0.9,4.7-2.3c0-1.6-1.9-2.3-4.8-2.3c-2.8,0-4.7,0.7-4.7,2.3
				C152.3,194.1,153.9,195.1,157.1,195.1z"/>
			<path class="st6" d="M150.5,179.8c1.7,1.3,4,2.2,7.2,2.2c3.1,0,5.4-1,7.2-2.2v1.2c-1.5,1.1-3.7,2.3-7.2,2.3
				c-3.5,0-5.7-1.2-7.2-2.3V179.8z"/>
			<path class="st6" d="M152.7,175.3L152.7,175.3l1.1,2l-1.2,0.3l-1.3-2.5v-1.3h11.5v1.5H152.7z"/>
			<path class="st6" d="M152.7,162.5L152.7,162.5l1.1,2l-1.2,0.3l-1.3-2.5V161h11.5v1.5H152.7z"/>
			<path class="st6" d="M163.4,157.7l-12.8-4.9v-1.2l12.8,4.9V157.7z"/>
			<path class="st6" d="M152.4,144.3c0,0.3,0,0.7,0.1,1.2c0.4,2.4,2.2,3.7,4.1,4v-0.1c-0.7-0.5-1.3-1.5-1.3-2.8c0-2,1.5-3.5,3.7-3.5
				c2.1,0,4,1.4,4,3.8c0,2.5-1.9,4.1-4.9,4.1c-2.3,0-4-0.8-5.2-1.9c-0.9-1-1.5-2.2-1.7-3.7c-0.1-0.5-0.1-0.8-0.1-1.1H152.4z
				 M159,144.7c-1.6,0-2.6,0.9-2.6,2.4c0,0.9,0.6,1.8,1.4,2.2c0.2,0.1,0.4,0.2,0.7,0.2c1.9,0,3.3-0.9,3.3-2.5
				C161.7,145.6,160.6,144.7,159,144.7z"/>
			<path class="st6" d="M162.7,137h-3.1v5.3h-1l-7.3-5.1v-1.7h7.1v-1.6h1.2v1.6h3.1V137z M158.4,137h-3.8c-0.6,0-1.2,0-1.8-0.1v0.1
				c0.7,0.4,1.2,0.6,1.7,1l3.9,2.8h0V137z"/>
			<path class="st6" d="M150.6,128.5l4.2,0.3v0.9l-4.2,0.3V128.5z M150.6,131.1l4.2,0.3v1l-4.2,0.3V131.1z"/>
		</g>
		<g>
			<path class="st6" d="M164.9,127.1c-1.7-1.3-4-2.2-7.2-2.2c-3.2,0-5.4,1-7.2,2.2v-1.2c1.4-1.1,3.7-2.3,7.2-2.3
				c3.5,0,5.7,1.2,7.2,2.3V127.1z"/>
		</g>
		<g>
			<path class="st6" d="M730.4,229.1c0.8,0.2,1.8,0.5,2.8,0.9c1.5,0.6,2.4,1.3,2.8,2.2c0.3,0.7,0.3,1.6,0,2.4
				c-0.6,1.4-1.9,2-3.2,1.9l0,0c0.7,0.6,0.9,1.6,0.7,2.9c-0.3,1.7-0.5,2.8-0.4,3.4l-1.5-0.6c0-0.4,0.1-1.4,0.4-2.9
				c0.3-1.6,0-2.5-1.3-3.1l-1.3-0.6l-2,4.7l-1.4-0.6L730.4,229.1z M729.8,234.7l1.4,0.6c1.5,0.6,2.8,0.2,3.3-1
				c0.6-1.4-0.2-2.5-1.7-3.1c-0.7-0.3-1.2-0.4-1.5-0.5L729.8,234.7z"/>
			<path class="st6" d="M741.1,235.5L741.1,235.5l-2.3,0.2l0.2-1.2l2.8-0.3l1.2,0.5l-4.4,10.6l-1.4-0.6L741.1,235.5z"/>
			<path class="st6" d="M742.9,246.1c0.3-0.6,0.8-0.9,1.4-0.6c0.6,0.2,0.8,0.8,0.5,1.4c-0.2,0.6-0.8,0.9-1.4,0.6
				C742.9,247.3,742.7,246.7,742.9,246.1z"/>
			<path class="st6" d="M755.9,241.3c-0.3-0.1-0.7-0.3-1.1-0.4c-2.4-0.6-4.3,0.6-5.3,2.2l0,0c0.8-0.5,1.9-0.6,3.1-0.1
				c1.9,0.8,2.6,2.7,1.8,4.8c-0.8,1.9-2.9,3.2-5.1,2.2c-2.3-1-3-3.3-1.8-6.1c0.9-2.1,2.3-3.4,3.8-4c1.2-0.5,2.6-0.5,4-0.1
				c0.5,0.1,0.8,0.2,1.1,0.4L755.9,241.3z M752.9,247.2c0.6-1.5,0.2-2.8-1.2-3.3c-0.9-0.4-1.9-0.2-2.6,0.4c-0.2,0.1-0.3,0.3-0.4,0.6
				c-0.7,1.8-0.4,3.4,1.1,4C751,249.4,752.3,248.8,752.9,247.2z"/>
			<path class="st6" d="M765.9,243.5c-1.9,1.1-3.6,2.8-4.8,5.8c-1.2,2.9-1.2,5.4-0.7,7.5l-1.1-0.5c-0.5-1.8-0.7-4.3,0.6-7.5
				c1.4-3.2,3.3-4.8,4.9-5.8L765.9,243.5z"/>
			<path class="st6" d="M769.2,247.3L769.2,247.3l-2.3,0.2l0.2-1.2l2.8-0.3l1.2,0.5l-4.4,10.6l-1.4-0.6L769.2,247.3z"/>
			<path class="st6" d="M769.6,259.1l9.5-9.9l1.1,0.5l-9.5,9.9L769.6,259.1z"/>
			<path class="st6" d="M783.1,253.2L783.1,253.2l-2.3,0.2l0.2-1.2l2.8-0.3l1.2,0.5l-4.4,10.6l-1.4-0.6L783.1,253.2z"/>
			<path class="st6" d="M794.6,257.6c-0.3-0.1-0.7-0.3-1.1-0.4c-2.4-0.6-4.3,0.6-5.3,2.2l0,0c0.8-0.5,1.9-0.6,3.1-0.1
				c1.9,0.8,2.6,2.7,1.8,4.8c-0.8,1.9-2.9,3.2-5.1,2.2c-2.3-1-3-3.3-1.8-6.1c0.9-2.1,2.3-3.4,3.8-4c1.2-0.5,2.6-0.5,4-0.1
				c0.5,0.1,0.8,0.2,1.1,0.4L794.6,257.6z M791.6,263.5c0.6-1.5,0.2-2.8-1.2-3.3c-0.9-0.4-1.9-0.2-2.6,0.4c-0.2,0.1-0.3,0.3-0.4,0.6
				c-0.7,1.8-0.4,3.4,1.1,4C789.7,265.7,790.9,265,791.6,263.5z"/>
			<path class="st6" d="M799,257.6l-1.9,3.8l-0.9-0.4l1.4-4L799,257.6z M801.5,258.6l-1.9,3.8l-0.9-0.4l1.4-4L801.5,258.6z"/>
			<path class="st6" d="M797.1,272.2c1.8-1.1,3.6-2.9,4.8-5.8c1.2-2.9,1.2-5.4,0.7-7.5l1.1,0.5c0.5,1.8,0.7,4.3-0.7,7.5
				c-1.3,3.2-3.3,4.8-4.9,5.7L797.1,272.2z"/>
		</g>
		<line class="st23" x1="797.8" y1="278" x2="681.5" y2="229.6"/>
		<polygon class="st4" points="685.2,227.3 671.1,225.4 682.4,234.1 		"/>
		<g>
			<path class="st6" d="M879.4,728.1c0.8,0.2,1.8,0.5,2.8,0.9c1.5,0.6,2.4,1.3,2.8,2.2c0.3,0.7,0.3,1.6,0,2.4
				c-0.6,1.4-1.9,2-3.2,1.9l0,0c0.7,0.6,0.9,1.6,0.7,2.9c-0.3,1.7-0.5,2.8-0.4,3.4l-1.5-0.6c0-0.4,0.1-1.4,0.4-2.9
				c0.3-1.6,0-2.5-1.3-3.1l-1.3-0.6l-2,4.7l-1.4-0.6L879.4,728.1z M878.8,733.7l1.4,0.6c1.5,0.6,2.8,0.2,3.3-1
				c0.6-1.4-0.2-2.5-1.7-3.1c-0.7-0.3-1.2-0.4-1.5-0.5L878.8,733.7z"/>
			<path class="st6" d="M890.1,734.4L890.1,734.4l-2.3,0.2l0.2-1.2l2.8-0.3l1.2,0.5l-4.4,10.6l-1.4-0.6L890.1,734.4z"/>
			<path class="st6" d="M891.9,745.1c0.3-0.6,0.8-0.9,1.4-0.6c0.6,0.2,0.8,0.8,0.5,1.4c-0.2,0.6-0.8,0.9-1.4,0.6
				C891.9,746.3,891.7,745.7,891.9,745.1z"/>
			<path class="st6" d="M904.9,740.3c-0.3-0.1-0.7-0.3-1.1-0.4c-2.4-0.6-4.3,0.6-5.3,2.2l0,0c0.8-0.5,1.9-0.6,3.1-0.1
				c1.9,0.8,2.6,2.7,1.8,4.8c-0.8,1.9-2.9,3.2-5.1,2.2c-2.3-1-3-3.3-1.8-6.1c0.9-2.1,2.3-3.4,3.8-4c1.2-0.5,2.6-0.5,4-0.1
				c0.5,0.1,0.8,0.2,1.1,0.4L904.9,740.3z M901.9,746.2c0.6-1.5,0.2-2.8-1.2-3.3c-0.9-0.4-1.9-0.2-2.6,0.4c-0.2,0.1-0.3,0.3-0.4,0.6
				c-0.7,1.8-0.4,3.4,1.1,4C900,748.4,901.3,747.7,901.9,746.2z"/>
			<path class="st6" d="M914.9,742.5c-1.9,1.1-3.6,2.8-4.8,5.8c-1.2,2.9-1.2,5.4-0.7,7.5l-1.1-0.5c-0.5-1.8-0.7-4.3,0.6-7.5
				c1.4-3.2,3.3-4.8,4.9-5.8L914.9,742.5z"/>
			<path class="st6" d="M918.2,746.3L918.2,746.3l-2.3,0.2l0.2-1.2l2.8-0.3l1.2,0.5l-4.4,10.6l-1.4-0.6L918.2,746.3z"/>
			<path class="st6" d="M918.6,758l9.5-9.9l1.1,0.5l-9.5,9.9L918.6,758z"/>
			<path class="st6" d="M932.1,752.1L932.1,752.1l-2.3,0.2l0.2-1.2l2.8-0.3l1.2,0.5l-4.4,10.6l-1.4-0.6L932.1,752.1z"/>
			<path class="st6" d="M943.5,756.5c-0.3-0.1-0.7-0.3-1.1-0.4c-2.4-0.6-4.3,0.6-5.3,2.2l0,0c0.8-0.5,1.9-0.6,3.1-0.1
				c1.9,0.8,2.6,2.7,1.8,4.8c-0.8,1.9-2.9,3.2-5.1,2.2c-2.3-1-3-3.3-1.8-6.1c0.9-2.1,2.3-3.4,3.8-4c1.2-0.5,2.6-0.5,4-0.1
				c0.5,0.1,0.8,0.2,1.1,0.4L943.5,756.5z M940.6,762.5c0.6-1.5,0.2-2.8-1.2-3.3c-0.9-0.4-1.9-0.2-2.6,0.4c-0.2,0.1-0.3,0.3-0.4,0.6
				c-0.7,1.8-0.4,3.4,1.1,4C938.7,764.6,939.9,764,940.6,762.5z"/>
			<path class="st6" d="M948,756.6l-1.9,3.8l-0.9-0.4l1.4-4L948,756.6z M950.4,757.6l-1.9,3.8l-0.9-0.4l1.4-4L950.4,757.6z"/>
			<path class="st6" d="M946.1,771.2c1.8-1.1,3.6-2.9,4.8-5.8c1.2-2.9,1.2-5.4,0.7-7.5l1.1,0.5c0.5,1.8,0.7,4.3-0.7,7.5
				c-1.3,3.2-3.3,4.8-4.9,5.7L946.1,771.2z"/>
		</g>
		<line class="st23" x1="946.8" y1="776.9" x2="830.5" y2="728.5"/>
		<polygon class="st4" points="834.2,726.3 820.1,724.4 831.3,733.1 		"/>
		<line class="st23" x1="338.6" y1="31.5" x2="660" y2="31.5"/>
		<polygon class="st4" points="341.8,35.9 324.6,31.3 341.8,26.7 		"/>
		<polygon class="st4" points="656.8,35.9 674,31.3 656.8,26.7 		"/>
		<g>
			<path class="st6" d="M691.6,60c0.6-0.6,1.4-1.2,2.3-1.8c1.4-0.9,2.4-1.2,3.4-1.1c0.8,0.1,1.5,0.6,2,1.4c0.9,1.3,0.6,2.7-0.2,3.8
				l0,0c0.9-0.2,1.9,0.2,2.8,1.1c1.2,1.2,2.1,2,2.6,2.2l-1.3,0.9c-0.3-0.2-1.1-0.9-2.2-1.9c-1.2-1.2-2.1-1.4-3.3-0.6l-1.2,0.8
				l2.8,4.3l-1.3,0.8L691.6,60z M695.9,63.7l1.3-0.9c1.4-0.9,1.8-2.2,1-3.4c-0.8-1.3-2.1-1.2-3.5-0.4c-0.6,0.4-1,0.8-1.2,0.9
				L695.9,63.7z"/>
		</g>
		<g>
			<path class="st6" d="M705.5,51.3l0.6,0.9l1.5,11.5l-1.3,0.9l-1.4-11.2l0,0l-4.7,3.1l-0.7-1.1L705.5,51.3z"/>
		</g>
		<g>
			<path class="st6" d="M712.7,59.2c-0.4-0.5-0.2-1.2,0.3-1.5c0.5-0.3,1.1-0.2,1.5,0.4c0.3,0.5,0.3,1.2-0.3,1.5
				C713.7,59.9,713.1,59.7,712.7,59.2z"/>
		</g>
		<g>
			<path class="st6" d="M716.3,56.6c0.3-0.2,0.6-0.4,1-0.7c0.7-0.6,1.2-1.4,1.4-2.2c0.3-1,0.2-2.1-0.4-3.4l0,0
				c-0.1,1-0.6,1.9-1.6,2.5c-1.7,1.1-3.7,0.5-4.8-1.1c-1.2-1.8-0.9-4.3,1.1-5.6c2-1.3,4.2-0.5,5.8,2c1.4,2.1,1.6,4.1,1.3,5.6
				c-0.3,1.2-1,2.3-2,3.1c-0.4,0.4-0.8,0.7-1.1,0.9L716.3,56.6z M713.2,50.8c0.8,1.2,2.1,1.6,3.2,0.8c0.9-0.6,1.3-1.4,1.2-2.2
				c0-0.2-0.1-0.3-0.2-0.5c-1.1-1.6-2.5-2.5-3.9-1.6C712.5,47.9,712.3,49.4,713.2,50.8z"/>
		</g>
		<g>
			<path class="st6" d="M723.5,38.7c-0.1,2.2,0.3,4.6,2.1,7.3c1.7,2.6,3.8,4,5.8,4.8l-1,0.7c-1.7-0.6-4-1.9-5.8-4.7
				c-1.9-2.9-2.1-5.5-2-7.3L723.5,38.7z"/>
		</g>
		<g>
			<path class="st6" d="M731.3,36.1l-3.7,2.4l1.2,2.7c0.2-0.2,0.4-0.3,0.7-0.6c0.7-0.5,1.6-0.8,2.4-0.8c1-0.1,2.2,0.4,3,1.6
				c1.2,1.9,0.6,4.3-1.4,5.6c-1,0.7-2.1,1-2.8,1l-0.3-1.2c0.6,0,1.5-0.2,2.4-0.8c1.2-0.8,1.8-2.3,0.9-3.6c-0.8-1.2-2.2-1.6-4.2-0.3
				c-0.5,0.4-0.9,0.7-1.3,1l-2.4-5l4.6-3L731.3,36.1z"/>
		</g>
		<g>
			<path class="st6" d="M738.4,44.4L735.5,31l1-0.7l2.8,13.4L738.4,44.4z"/>
		</g>
		<g>
			<path class="st6" d="M741.1,29.8L741.1,29.8l-1.1,2l-0.9-0.8l1.4-2.5l1.1-0.7l6.3,9.6l-1.3,0.8L741.1,29.8z"/>
		</g>
		<g>
			<path class="st6" d="M751.2,22.8c-0.3,0.2-0.6,0.4-0.9,0.7c-1.8,1.7-1.9,3.9-1.1,5.6l0,0c0.1-0.9,0.5-1.9,1.6-2.6
				c1.7-1.1,3.7-0.7,4.9,1.2c1.1,1.8,1,4.2-1,5.5c-2.1,1.3-4.4,0.6-6.1-1.9c-1.2-1.9-1.5-3.8-1.2-5.4c0.3-1.3,1-2.5,2.1-3.4
				c0.3-0.3,0.7-0.5,0.9-0.7L751.2,22.8z M754.4,28.6c-0.9-1.4-2.2-1.7-3.4-0.9c-0.8,0.5-1.2,1.5-1.1,2.4c0,0.2,0.1,0.4,0.2,0.7
				c1.1,1.6,2.5,2.3,3.9,1.4C755.2,31.4,755.3,30,754.4,28.6z"/>
		</g>
		<g>
			<path class="st6" d="M753.7,19.1l2.1,3.7l-0.8,0.5l-2.5-3.4L753.7,19.1z M755.9,17.7l2.1,3.7l-0.8,0.5l-2.6-3.4L755.9,17.7z"/>
		</g>
		<g>
			<path class="st6" d="M764.7,28.9c0.1-2.1-0.3-4.6-2.1-7.3c-1.7-2.6-3.8-4-5.8-4.8l1-0.7c1.7,0.6,4,1.8,5.9,4.8
				c1.9,2.9,2.1,5.4,2,7.3L764.7,28.9z"/>
		</g>
		<line class="st23" x1="769.2" y1="30.2" x2="664" y2="99.4"/>
		<polygon class="st4" points="664.1,95 654.6,105.7 668.2,101.2 		"/>
		<g>
			<path class="st4" d="M284.2,196.9h-0.8l-0.9-1c-2.2-2.3-3.4-3.4-4.7-3.4c-0.9,0-1.8,0.4-1.8,1.8c0,0.8,0.4,1.5,0.8,1.9l-0.9,0.4
				c-0.5-0.6-0.9-1.5-0.9-2.6c0-2,1.3-2.8,2.6-2.8c1.7,0,3,1.2,4.9,3.1l0.7,0.7h0v-4.1h1V196.9z"/>
			<path class="st4" d="M279.6,183.7c3.1,0,4.8,1.1,4.8,3.2c0,1.8-1.7,3-4.7,3c-3,0-4.7-1.3-4.7-3.2
				C275,184.8,276.7,183.7,279.6,183.7z M279.7,188.7c2.4,0,3.7-0.7,3.7-1.8c0-1.3-1.5-1.9-3.8-1.9c-2.2,0-3.7,0.6-3.7,1.8
				C275.9,187.9,277.2,188.7,279.7,188.7z"/>
			<path class="st4" d="M283.5,182.5c-0.5,0-0.9-0.3-0.9-0.8s0.4-0.8,0.9-0.8c0.5,0,0.9,0.3,0.9,0.8
				C284.3,182.2,284,182.5,283.5,182.5z"/>
			<path class="st4" d="M284.2,179.3h-0.8l-0.9-1c-2.2-2.3-3.4-3.4-4.7-3.4c-0.9,0-1.8,0.4-1.8,1.8c0,0.8,0.4,1.5,0.8,1.9l-0.9,0.4
				c-0.5-0.6-0.9-1.5-0.9-2.6c0-2,1.3-2.8,2.6-2.8c1.7,0,3,1.2,4.9,3.1l0.7,0.7h0v-4.1h1V179.3z"/>
			<path class="st4" d="M284.2,168.6h-2.5v4.2h-0.8l-5.8-4v-1.3h5.6v-1.3h1v1.3h2.5V168.6z M280.8,168.6h-3c-0.5,0-0.9,0-1.4,0v0
				c0.5,0.3,0.9,0.5,1.3,0.8l3.1,2.2h0V168.6z"/>
			<path class="st4" d="M274.5,159.5c1.4,1,3.2,1.8,5.7,1.8c2.5,0,4.3-0.8,5.7-1.8v1c-1.2,0.9-2.9,1.8-5.7,1.8
				c-2.7,0-4.5-0.9-5.7-1.8V159.5z"/>
			<path class="st4" d="M276.2,153.4v3.5l2.3,0.3c0-0.2-0.1-0.4-0.1-0.7c0-0.7,0.2-1.4,0.5-2c0.4-0.7,1.2-1.3,2.3-1.3
				c1.8,0,3.1,1.4,3.1,3.4c0,1-0.3,1.8-0.6,2.3l-0.9-0.3c0.2-0.4,0.5-1.1,0.5-1.9c0-1.2-0.8-2.1-2-2.1c-1.2,0-2,0.8-2,2.6
				c0,0.5,0.1,0.9,0.1,1.3l-4.4-0.6v-4.3H276.2z"/>
			<path class="st4" d="M276.3,149.5L276.3,149.5l0.9,1.6l-0.9,0.2l-1.1-2v-1h9.1v1.2H276.3z"/>
			<path class="st4" d="M284.8,146.3l-10.1-3.9v-0.9l10.1,3.9V146.3z"/>
			<path class="st4" d="M276,135.9c0,0.3,0,0.6,0.1,0.9c0.3,1.9,1.7,2.9,3.2,3.2v0c-0.6-0.4-1-1.2-1-2.2c0-1.6,1.2-2.7,2.9-2.7
				c1.7,0,3.2,1.1,3.2,3c0,1.9-1.5,3.2-3.9,3.2c-1.8,0-3.2-0.6-4.1-1.5c-0.7-0.8-1.2-1.8-1.3-2.9c-0.1-0.4-0.1-0.7-0.1-0.9H276z
				 M281.2,136.2c-1.3,0-2.1,0.7-2.1,1.9c0,0.7,0.5,1.4,1.1,1.8c0.1,0.1,0.3,0.1,0.5,0.1c1.5,0,2.6-0.7,2.6-2
				C283.4,136.9,282.5,136.2,281.2,136.2z"/>
			<path class="st4" d="M284.2,129.7h-2.5v4.2h-0.8l-5.8-4v-1.3h5.6v-1.3h1v1.3h2.5V129.7z M280.8,129.7h-3c-0.5,0-0.9,0-1.4,0v0
				c0.5,0.3,0.9,0.5,1.3,0.8l3.1,2.2h0V129.7z"/>
			<path class="st4" d="M274.6,123l3.3,0.2v0.7l-3.3,0.2V123z M274.6,125.1l3.3,0.2v0.8l-3.3,0.2V125.1z"/>
			<path class="st4" d="M285.9,121.9c-1.4-1-3.2-1.8-5.7-1.8c-2.5,0-4.3,0.8-5.7,1.8v-0.9c1.1-0.9,2.9-1.8,5.7-1.8
				c2.7,0,4.5,0.9,5.7,1.8V121.9z"/>
		</g>
		<g>
			<path class="st4" d="M210.6,633.1L210.6,633.1l0.9,1.6l-0.9,0.2l-1.1-2v-1h9.1v1.2H210.6z"/>
			<path class="st4" d="M210.5,624v3.5l2.3,0.3c0-0.2-0.1-0.4-0.1-0.7c0-0.7,0.2-1.4,0.5-2c0.4-0.7,1.2-1.3,2.3-1.3
				c1.8,0,3.1,1.4,3.1,3.4c0,1-0.3,1.8-0.6,2.3l-0.9-0.3c0.2-0.4,0.5-1.1,0.5-1.9c0-1.2-0.8-2.1-2-2.1c-1.2,0-2,0.8-2,2.6
				c0,0.5,0.1,0.9,0.1,1.3l-4.4-0.6V624H210.5z"/>
			<path class="st4" d="M217.8,622.2c-0.5,0-0.9-0.3-0.9-0.8c0-0.5,0.4-0.8,0.9-0.8c0.5,0,0.9,0.3,0.9,0.8
				C218.7,621.8,218.3,622.2,217.8,622.2z"/>
			<path class="st4" d="M216.2,619.2c-1.1,0-2-0.7-2.4-1.8l0,0c-0.5,1-1.3,1.4-2,1.4c-1.4,0-2.4-1.2-2.4-2.8c0-1.8,1.1-2.6,2.2-2.6
				c0.8,0,1.6,0.4,2.1,1.5h0c0.4-1.1,1.2-1.8,2.3-1.8c1.6,0,2.6,1.4,2.6,3.1C218.7,618.1,217.6,619.2,216.2,619.2z M211.6,617.7
				c0.9,0,1.4-0.7,1.7-1.7c-0.3-0.8-0.8-1.4-1.6-1.4c-0.7,0-1.5,0.4-1.5,1.5C210.2,617.1,210.9,617.7,211.6,617.7z M216.2,614.3
				c-1.1,0-1.6,0.8-2,2c0.3,1.1,1,1.6,1.9,1.6c0.9,0,1.7-0.7,1.7-1.8C217.8,615,217.1,614.3,216.2,614.3z"/>
			<path class="st4" d="M216.2,611.9c-1.1,0-2-0.7-2.4-1.8l0,0c-0.5,1-1.3,1.4-2,1.4c-1.4,0-2.4-1.2-2.4-2.8c0-1.8,1.1-2.6,2.2-2.6
				c0.8,0,1.6,0.4,2.1,1.5h0c0.4-1.1,1.2-1.8,2.3-1.8c1.6,0,2.6,1.4,2.6,3.1C218.7,610.7,217.6,611.9,216.2,611.9z M211.6,610.4
				c0.9,0,1.4-0.7,1.7-1.7c-0.3-0.8-0.8-1.4-1.6-1.4c-0.7,0-1.5,0.4-1.5,1.5C210.2,609.8,210.9,610.4,211.6,610.4z M216.2,607
				c-1.1,0-1.6,0.8-2,2c0.3,1.1,1,1.6,1.9,1.6c0.9,0,1.7-0.7,1.7-1.8C217.8,607.7,217.1,607,216.2,607z"/>
			<path class="st4" d="M208.8,598.8c1.4,1,3.2,1.8,5.7,1.8c2.5,0,4.3-0.8,5.7-1.8v1c-1.2,0.9-2.9,1.8-5.7,1.8
				c-2.7,0-4.5-0.9-5.7-1.8V598.8z"/>
			<path class="st4" d="M210.5,592.7v3.5l2.3,0.3c0-0.2-0.1-0.4-0.1-0.7c0-0.7,0.2-1.4,0.5-2c0.4-0.7,1.2-1.3,2.3-1.3
				c1.8,0,3.1,1.4,3.1,3.4c0,1-0.3,1.8-0.6,2.3l-0.9-0.3c0.2-0.4,0.5-1.1,0.5-1.9c0-1.2-0.8-2.1-2-2.1c-1.2,0-2,0.8-2,2.6
				c0,0.5,0.1,0.9,0.1,1.3l-4.4-0.6v-4.3H210.5z"/>
			<path class="st4" d="M219.1,591.8L209,588V587l10.1,3.9V591.8z"/>
			<path class="st4" d="M216.2,586.6c-1.1,0-2-0.7-2.4-1.8l0,0c-0.5,1-1.3,1.4-2,1.4c-1.4,0-2.4-1.2-2.4-2.8c0-1.8,1.1-2.6,2.2-2.6
				c0.8,0,1.6,0.4,2.1,1.5h0c0.4-1.1,1.2-1.8,2.3-1.8c1.6,0,2.6,1.4,2.6,3.1C218.7,585.5,217.6,586.6,216.2,586.6z M211.6,585.1
				c0.9,0,1.4-0.7,1.7-1.7c-0.3-0.8-0.8-1.4-1.6-1.4c-0.7,0-1.5,0.4-1.5,1.5C210.2,584.5,210.9,585.1,211.6,585.1z M216.2,581.7
				c-1.1,0-1.6,0.8-2,2c0.3,1.1,1,1.6,1.9,1.6c0.9,0,1.7-0.7,1.7-1.8C217.8,582.4,217.1,581.7,216.2,581.7z"/>
			<path class="st4" d="M209,575.8l3.3,0.2v0.7L209,577V575.8z M209,577.8l3.3,0.2v0.8l-3.3,0.2V577.8z"/>
			<path class="st4" d="M220.2,574.6c-1.4-1-3.2-1.8-5.7-1.8c-2.5,0-4.3,0.8-5.7,1.8v-0.9c1.1-0.9,2.9-1.8,5.7-1.8
				c2.7,0,4.5,0.9,5.7,1.8V574.6z"/>
		</g>
	</g>
</g>
<g id="Watermark">
	<g>
		<rect x="438.5" y="662.8" class="st1" width="123.1" height="46.3"/>
		<g>
			<rect x="444.9" y="670.7" class="st75" width="62.9" height="30.6"/>
			<rect x="507.7" y="670.7" class="st75" width="47.4" height="30.6"/>
			<g>
				<path class="st76" d="M466.5,676.8l-2.8,18.9H461l-1.6-11l-1.5,11h-2.7l-2.8-18.9h2.5l1.8,14.2l1.8-14.2h2l1.8,14.2l1.8-14.2
					H466.5z"/>
				<path class="st76" d="M467.9,695.7v-18.9h2.5v18.9H467.9z"/>
				<path class="st76" d="M472.8,676.8h5c1.9,0,2.9,1.1,2.9,3.2v4.7c0,1.7-0.5,2.7-1.5,3.1l1.8,7.9h-2.4l-1.7-7.6h-1.5v7.6h-2.5
					V676.8z M475.4,685.9h1.7c0.8,0,1.1-0.5,1.1-1.4v-4.1c0-0.9-0.4-1.4-1.1-1.4h-1.7V685.9z"/>
				<path class="st76" d="M486.8,679.1v16.6h-2.5v-16.6h-2.4v-2.3h7.4v2.3H486.8z"/>
				<path class="st76" d="M496.3,695.7v-8.6h-3.1v8.6h-2.5v-18.9h2.5v8h3.1v-8h2.5v18.9H496.3z"/>
			</g>
			<g>
				<path class="st76" d="M516.3,676.8h5c1.9,0,2.9,1.1,2.9,3.2v4.7c0,1.7-0.5,2.7-1.5,3.1l1.8,7.9H522l-1.7-7.6h-1.5v7.6h-2.5
					V676.8z M518.8,685.9h1.7c0.8,0,1.1-0.5,1.1-1.4v-4.1c0-0.9-0.4-1.4-1.1-1.4h-1.7V685.9z"/>
				<path class="st76" d="M528.7,695.7h-2.5V680c0-2.2,1-3.2,3-3.2h1.9c2,0,3,1.1,3,3.2v15.7h-2.5v-6.9h-2.9V695.7z M531.6,686.5
					v-6.3c0-0.7-0.4-1.1-1.1-1.1h-0.7c-0.7,0-1.1,0.4-1.1,1.1v6.3H531.6z"/>
				<path class="st76" d="M536.3,695.7v-18.9h2.5v18.9H536.3z"/>
				<path class="st76" d="M547.2,695.7h-6v-18.9h2.5v16.6h3.5V695.7z"/>
			</g>
		</g>
	</g>
</g>
</svg>
