<?xml version="1.0" encoding="utf-8"?>
<!-- Generator: Adobe Illustrator 25.2.3, SVG Export Plug-In . SVG Version: 6.00 Build 0)  -->
<svg version="1.1" xmlns="http://www.w3.org/2000/svg" xmlns:xlink="http://www.w3.org/1999/xlink" x="0px" y="0px"
	 viewBox="0 0 1000 800" style="enable-background:new 0 0 1000 800;" xml:space="preserve">
<style type="text/css">
	.st0{display:none;}
	.st1{fill:#F0F0F0;}
	.st2{fill:none;stroke:#221E1F;stroke-width:1.0067;}
	.st3{fill:none;stroke:#221E1F;stroke-width:1.0815;}
	.st4{fill:#221E1F;}
	.st5{fill:none;stroke:#221E1F;stroke-width:1.0067;stroke-dasharray:25.4357,7.8961;}
	.st6{fill:#303030;}
	.st7{fill:none;stroke:#221E1F;stroke-width:0.9293;}
	.st8{fill:none;stroke:#303030;stroke-width:1.0067;stroke-miterlimit:10;}
	.st9{fill:none;stroke:#221E1F;stroke-width:1.2309;}
	.st10{fill:none;stroke:#221E1F;stroke-width:1.0036;stroke-linecap:round;stroke-linejoin:round;stroke-miterlimit:10;}
	.st11{fill:none;stroke:#221E1F;stroke-width:1.2309;stroke-linecap:round;stroke-linejoin:round;stroke-miterlimit:10;}
	.st12{fill:none;stroke:#221E1F;stroke-width:1.2309;stroke-miterlimit:10;}
	.st13{fill:none;stroke:#221E1F;stroke-width:1.2309;stroke-linecap:round;stroke-linejoin:round;}
	.st14{fill:none;stroke:#221E1F;stroke-width:1.2309;stroke-dasharray:6.9402,6.9402;}
	.st15{fill:none;stroke:#221E1F;stroke-width:1.148;}
	.st16{fill:none;stroke:#221E1F;stroke-width:1.148;stroke-dasharray:6.4521,6.4521;}
	.st17{fill:none;stroke:#221E1F;stroke-width:1.145;}
	.st18{fill:none;stroke:#221E1F;stroke-width:1.1283;}
	.st19{fill:none;stroke:#221E1F;stroke-width:1.1023;}
	.st20{fill:none;stroke:#221E1F;stroke-width:1.1283;stroke-dasharray:6.3679,6.3679;}
	.st21{fill:none;stroke:#221E1F;stroke-width:1.1486;}
	.st22{fill:none;stroke:#FFFFFF;stroke-width:5.4259;}
	.st23{fill:none;stroke:#221E1F;stroke-width:1.0581;}
	.st24{fill:none;stroke:#221E1F;stroke-width:1.0092;}
	.st25{fill:none;stroke:#221E1F;stroke-width:0.9007;}
	.st26{fill:none;stroke:#221E1F;stroke-width:0.9007;stroke-dasharray:6.2235,6.2235;}
	.st27{fill:none;stroke:#241F21;stroke-width:0.8703;}
	.st28{fill:none;stroke:#241F21;stroke-width:0.9357;}
	.st29{clip-path:url(#SVGID_2_);fill:none;stroke:#241F21;stroke-width:0.8703;}
	.st30{fill:none;stroke:#303030;stroke-width:0.8703;stroke-miterlimit:10;}
	.st31{fill:#241F21;}
	.st32{fill:none;stroke:#241F21;stroke-width:0.8703;stroke-dasharray:22.0524,6.4121;}
	.st33{clip-path:url(#SVGID_4_);}
	.st34{clip-path:url(#SVGID_6_);}
	.st35{clip-path:url(#SVGID_8_);}
	.st36{clip-path:url(#SVGID_10_);fill:#303030;}
	.st37{fill:none;stroke:#241F21;stroke-width:0.8703;stroke-dasharray:26.5684,7.9543;}
	.st38{clip-path:url(#SVGID_12_);}
	.st39{clip-path:url(#SVGID_14_);}
	.st40{clip-path:url(#SVGID_16_);}
	.st41{clip-path:url(#SVGID_18_);}
	.st42{fill:none;stroke:#241F21;stroke-width:0.8984;}
	.st43{fill:none;stroke:#303030;stroke-width:0.8984;stroke-miterlimit:10;}
	.st44{clip-path:url(#SVGID_20_);}
	.st45{clip-path:url(#SVGID_22_);}
	.st46{clip-path:url(#SVGID_24_);}
	.st47{clip-path:url(#SVGID_26_);}
	.st48{clip-path:url(#SVGID_28_);}
	.st49{clip-path:url(#SVGID_30_);}
	.st50{clip-path:url(#SVGID_32_);}
	.st51{clip-path:url(#SVGID_34_);fill:none;stroke:#241F21;stroke-width:0.8984;}
	.st52{clip-path:url(#SVGID_36_);fill:none;stroke:#241F21;stroke-width:0.8984;}
	.st53{clip-path:url(#SVGID_38_);fill:none;stroke:#241F21;stroke-width:0.8984;}
	.st54{clip-path:url(#SVGID_40_);fill:none;stroke:#241F21;stroke-width:0.8984;}
	.st55{fill:none;stroke:#241F21;stroke-width:0.8984;stroke-dasharray:22.7263,6.6621;}
	.st56{fill:none;stroke:#241F21;stroke-width:0.9362;}
	.st57{fill:none;stroke:#241F21;stroke-width:0.8984;stroke-dasharray:27.9392,8.7142;}
	.st58{clip-path:url(#SVGID_42_);}
	.st59{clip-path:url(#SVGID_44_);}
	.st60{clip-path:url(#SVGID_46_);}
	.st61{fill:none;stroke:#221E1F;stroke-width:0.765;}
	.st62{fill:none;stroke:#221E1F;stroke-width:0.8373;}
	.st63{fill:none;stroke:#221E1F;stroke-width:0.765;stroke-dasharray:21.1617,6.4071;}
	.st64{fill:none;stroke:#221E1F;stroke-width:0.765;stroke-dasharray:24.8189,7.2742;}
	.st65{fill:none;stroke:#303030;stroke-width:0.765;stroke-miterlimit:10;}
	.st66{fill:none;stroke:#221E1F;stroke-width:0.748;}
	.st67{fill:none;stroke:#241F21;stroke-width:1.3086;}
	.st68{fill:none;stroke:#241F21;stroke-width:1.5023;}
	.st69{fill:none;stroke:#241F21;stroke-width:1.1437;}
	.st70{fill:none;stroke:#241F21;stroke-width:1.5023;stroke-dasharray:23.5916,9.5345;}
	.st71{fill:none;stroke:#241F21;stroke-width:1.5023;stroke-dasharray:22.9216,8.8619;}
	.st72{fill:none;stroke:#241F21;stroke-width:1.5023;stroke-dasharray:21.3408,7.2811;}
	.st73{fill:none;stroke:#241F21;stroke-width:1.5023;stroke-dasharray:21.3303,7.2706;}
	.st74{fill:none;stroke:#241F21;stroke-width:1.5023;stroke-dasharray:20.027,5.9673;}
	.st75{fill:#F0F0F0;stroke:#CCCCCC;stroke-miterlimit:10;}
	.st76{fill:#CCCCCC;}
</style>
<g id="editable" class="st0">
</g>
<g id="Flat">
	<g>
		<g>
			<path class="st1" d="M814.9,668.6c-4.7-1-233.3-53.4-233.3-53.4c-9.1-1.9-30.8-1.5-37.7-38.6c0,0-5.2-33.5-5.2-121.6
				c0-88.1,5.7-187.4,5.7-187.4s-2.9-24.1,33.4-35.5l90.7-21.2c0,0,13,1.1,13.5-15.5v-83c0,0-4.3-45.1-57.1-44.8L501.7,63v0l-0.9,0
				l-0.9,0v0L373,68.1c-51.5,2.8-53.5,44.4-53.5,44.4v83c0.5,16.6,9.1,15.5,9.1,15.5l95,21.2c36.3,11.4,33.4,35.5,33.4,35.5
				s5.7,99.3,5.7,187.4c0,88.1-5.2,121.6-5.2,121.6c-7.3,38.9-37.7,38.6-37.7,38.6s-228.6,52.3-233.3,53.4
				c-4.7,1-10.4,3.1-11.4,10.9v23.4c1,8.8,11.9,11.9,11.9,11.9h310.1h7.1h310.1c0,0,10.9-3.1,11.9-11.9v-23.4
				C825.3,671.7,819.6,669.6,814.9,668.6"/>
			<path class="st2" d="M814.9,668.6c-4.7-1-233.3-53.4-233.3-53.4c-9.1-1.9-30.8-1.5-37.7-38.6c0,0-5.2-33.5-5.2-121.6
				c0-88.1,5.7-187.4,5.7-187.4s-2.9-24.1,33.4-35.5l90.7-21.2c0,0,13,1.1,13.5-15.5v-83c0,0-4.3-45.1-57.1-44.8L501.7,63v0l-0.9,0
				l-0.9,0v0L373,68.1c-51.5,2.8-53.5,44.4-53.5,44.4v83c0.5,16.6,9.1,15.5,9.1,15.5l95,21.2c36.3,11.4,33.4,35.5,33.4,35.5
				s5.7,99.3,5.7,187.4c0,88.1-5.2,121.6-5.2,121.6c-7.3,38.9-37.7,38.6-37.7,38.6s-228.6,52.3-233.3,53.4
				c-4.7,1-10.4,3.1-11.4,10.9v23.4c1,8.8,11.9,11.9,11.9,11.9h310.1h7.1h310.1c0,0,10.9-3.1,11.9-11.9v-23.4
				C825.3,671.7,819.6,669.6,814.9,668.6z"/>
		</g>
		<line class="st3" x1="499.9" y1="597.6" x2="818.1" y2="668.9"/>
		<line class="st2" x1="319" y1="116.9" x2="319" y2="13.3"/>
		<line class="st2" x1="682.1" y1="112.6" x2="682.1" y2="14.2"/>
		<line class="st2" x1="94.9" y1="64.2" x2="758.3" y2="64.2"/>
		<line class="st2" x1="95.1" y1="714.9" x2="187.1" y2="714.9"/>
		<line class="st2" x1="677.3" y1="208.1" x2="761.4" y2="208.1"/>
		<line class="st2" x1="175.6" y1="675.9" x2="175.6" y2="777.4"/>
		<line class="st2" x1="826.3" y1="675.9" x2="826.3" y2="777.4"/>
		<line class="st2" x1="287.3" y1="645.8" x2="164.5" y2="673.7"/>
		<line class="st2" x1="135.2" y1="597.6" x2="499.9" y2="597.6"/>
		<line class="st2" x1="498.2" y1="251.1" x2="670.1" y2="210.8"/>
		<line class="st2" x1="426" y1="232.8" x2="201.9" y2="182.6"/>
		<line class="st2" x1="137.1" y1="250.3" x2="499.9" y2="250.3"/>
		<line class="st2" x1="188.6" y1="769.2" x2="812.9" y2="769.2"/>
		<polygon class="st4" points="191.6,773.4 175.2,769.1 191.6,764.7 		"/>
		<polygon class="st4" points="809.9,773.4 826.3,769.1 809.9,764.7 		"/>
		<line class="st5" x1="500.5" y1="735.7" x2="499.6" y2="43.5"/>
		<g>
			<path class="st4" d="M513.9,734.6v-6.2l-5.6-8.4h2.3l2.9,4.4c0.5,0.8,1,1.6,1.5,2.5c0.4-0.8,1-1.6,1.6-2.6l2.8-4.3h2.2l-5.8,8.4
				v6.2H513.9z"/>
			<path class="st2" d="M213.6,600.4c0,0-12.1,13-12.1,27c0,16.9,7.8,27.4,7.8,27.4"/>
		</g>
		<polygon class="st6" points="201.6,609.2 215.9,597.6 209.6,614.9 		"/>
		<polygon class="st6" points="209,645.4 216.9,662 201.6,651.8 		"/>
		<g>
			<path class="st6" d="M180.5,633.3h-1.3v-8.1c-0.3,0.3-0.7,0.6-1.2,0.9s-0.9,0.5-1.3,0.7v-1.2c0.7-0.3,1.3-0.7,1.9-1.2
				c0.5-0.5,0.9-0.9,1.1-1.4h0.8V633.3z"/>
			<path class="st6" d="M183.8,630.6l1.3-0.2c0.1,0.7,0.4,1.2,0.7,1.6c0.4,0.3,0.8,0.5,1.3,0.5c0.6,0,1.1-0.2,1.5-0.6
				c0.4-0.4,0.6-0.9,0.6-1.5c0-0.6-0.2-1.1-0.6-1.4c-0.4-0.4-0.9-0.6-1.5-0.6c-0.2,0-0.5,0-0.9,0.1l0.1-1.1c0.1,0,0.2,0,0.2,0
				c0.5,0,1-0.1,1.5-0.4s0.7-0.7,0.7-1.3c0-0.5-0.2-0.9-0.5-1.2c-0.3-0.3-0.7-0.5-1.2-0.5c-0.5,0-0.9,0.2-1.2,0.5
				c-0.3,0.3-0.5,0.8-0.6,1.4l-1.3-0.2c0.2-0.9,0.5-1.5,1.1-2s1.2-0.7,2.1-0.7c0.6,0,1.1,0.1,1.6,0.4c0.5,0.2,0.8,0.6,1.1,1
				c0.3,0.4,0.4,0.9,0.4,1.3c0,0.4-0.1,0.9-0.4,1.2c-0.2,0.4-0.6,0.7-1.1,0.9c0.6,0.1,1.1,0.4,1.4,0.9c0.3,0.4,0.5,1,0.5,1.7
				c0,0.9-0.3,1.7-1,2.3c-0.7,0.6-1.5,0.9-2.5,0.9c-0.9,0-1.7-0.3-2.3-0.8S183.9,631.5,183.8,630.6z"/>
			<path class="st6" d="M192.2,624.7c0-0.5,0.2-1,0.6-1.4c0.4-0.4,0.8-0.6,1.4-0.6c0.5,0,1,0.2,1.4,0.6s0.6,0.8,0.6,1.4
				s-0.2,1-0.6,1.4c-0.4,0.4-0.8,0.6-1.4,0.6c-0.5,0-1-0.2-1.4-0.6C192.3,625.8,192.2,625.3,192.2,624.7z M192.9,624.7
				c0,0.3,0.1,0.6,0.3,0.8s0.5,0.4,0.8,0.4c0.3,0,0.6-0.1,0.8-0.4s0.3-0.5,0.3-0.8s-0.1-0.6-0.3-0.8s-0.5-0.3-0.8-0.3
				c-0.3,0-0.6,0.1-0.8,0.3S192.9,624.4,192.9,624.7z"/>
		</g>
		<line class="st2" x1="539.8" y1="386.6" x2="673.7" y2="386.6"/>
		<line class="st2" x1="475.2" y1="386.6" x2="526.4" y2="386.6"/>
		<polygon class="st4" points="478.2,390.8 461.8,386.4 478.2,382 		"/>
		<polygon class="st4" points="523.4,390.8 539.8,386.4 523.4,382 		"/>
		<g>
			<path class="st6" d="M589.4,381.6h-1.3v-8.1c-0.3,0.3-0.7,0.6-1.2,0.9c-0.5,0.3-0.9,0.5-1.3,0.7v-1.2c0.7-0.3,1.3-0.7,1.9-1.2
				c0.5-0.5,0.9-0.9,1.1-1.4h0.8V381.6z"/>
			<path class="st6" d="M599.4,380.4v1.2h-6.9c0-0.3,0-0.6,0.1-0.9c0.2-0.5,0.5-0.9,0.8-1.4c0.4-0.5,0.9-1,1.7-1.6
				c1.1-0.9,1.9-1.7,2.3-2.2c0.4-0.5,0.6-1.1,0.6-1.5c0-0.5-0.2-0.9-0.5-1.3c-0.4-0.3-0.8-0.5-1.4-0.5c-0.6,0-1.1,0.2-1.5,0.6
				c-0.4,0.4-0.6,0.9-0.6,1.5l-1.3-0.1c0.1-1,0.4-1.7,1-2.2c0.6-0.5,1.4-0.8,2.4-0.8c1,0,1.8,0.3,2.4,0.8s0.9,1.2,0.9,2.1
				c0,0.4-0.1,0.8-0.3,1.2c-0.2,0.4-0.5,0.8-0.8,1.3c-0.4,0.4-1,1.1-2,1.8c-0.8,0.6-1.3,1.1-1.5,1.3c-0.2,0.2-0.4,0.5-0.5,0.7H599.4
				z"/>
			<path class="st6" d="M601.5,381.6v-1.4h1.4v1.4H601.5z"/>
			<path class="st6" d="M604.8,378.9l1.3-0.2c0.1,0.7,0.4,1.2,0.7,1.6c0.4,0.3,0.8,0.5,1.3,0.5c0.6,0,1.1-0.2,1.5-0.6
				c0.4-0.4,0.6-0.9,0.6-1.5c0-0.6-0.2-1.1-0.6-1.4s-0.9-0.6-1.5-0.6c-0.2,0-0.5,0-0.9,0.1l0.1-1.1c0.1,0,0.2,0,0.2,0
				c0.5,0,1-0.1,1.5-0.4s0.7-0.7,0.7-1.3c0-0.5-0.2-0.9-0.5-1.2s-0.7-0.5-1.2-0.5c-0.5,0-0.9,0.2-1.2,0.5c-0.3,0.3-0.5,0.8-0.6,1.4
				l-1.3-0.2c0.2-0.9,0.5-1.5,1.1-2c0.6-0.5,1.2-0.7,2.1-0.7c0.6,0,1.1,0.1,1.6,0.4c0.5,0.2,0.8,0.6,1.1,1s0.4,0.9,0.4,1.3
				c0,0.4-0.1,0.9-0.4,1.2s-0.6,0.7-1.1,0.9c0.6,0.1,1.1,0.4,1.4,0.9c0.3,0.4,0.5,1,0.5,1.7c0,0.9-0.3,1.7-1,2.3
				c-0.7,0.6-1.5,0.9-2.5,0.9c-0.9,0-1.7-0.3-2.3-0.8C605.2,380.4,604.9,379.7,604.8,378.9z"/>
			<path class="st6" d="M619.6,384.6c-0.7-0.9-1.3-1.9-1.8-3.1c-0.5-1.2-0.7-2.4-0.7-3.7c0-1.1,0.2-2.2,0.5-3.2
				c0.4-1.2,1.1-2.4,2-3.6h0.9c-0.6,1-0.9,1.7-1.1,2.1c-0.3,0.7-0.5,1.3-0.7,2c-0.2,0.9-0.3,1.8-0.3,2.7c0,2.3,0.7,4.5,2.1,6.8
				H619.6z"/>
			<path class="st6" d="M621.7,378.9l1.3-0.2c0.1,0.7,0.4,1.2,0.7,1.6c0.4,0.3,0.8,0.5,1.3,0.5c0.6,0,1.1-0.2,1.5-0.6
				c0.4-0.4,0.6-0.9,0.6-1.5c0-0.6-0.2-1.1-0.6-1.4s-0.9-0.6-1.5-0.6c-0.2,0-0.5,0-0.9,0.1l0.1-1.1c0.1,0,0.2,0,0.2,0
				c0.5,0,1-0.1,1.5-0.4s0.7-0.7,0.7-1.3c0-0.5-0.2-0.9-0.5-1.2s-0.7-0.5-1.2-0.5c-0.5,0-0.9,0.2-1.2,0.5c-0.3,0.3-0.5,0.8-0.6,1.4
				l-1.3-0.2c0.2-0.9,0.5-1.5,1.1-2c0.6-0.5,1.2-0.7,2.1-0.7c0.6,0,1.1,0.1,1.6,0.4c0.5,0.2,0.8,0.6,1.1,1s0.4,0.9,0.4,1.3
				c0,0.4-0.1,0.9-0.4,1.2s-0.6,0.7-1.1,0.9c0.6,0.1,1.1,0.4,1.4,0.9c0.3,0.4,0.5,1,0.5,1.7c0,0.9-0.3,1.7-1,2.3
				c-0.7,0.6-1.5,0.9-2.5,0.9c-0.9,0-1.7-0.3-2.3-0.8C622.1,380.4,621.8,379.7,621.7,378.9z"/>
			<path class="st6" d="M634.5,381.6h-1.3v-8.1c-0.3,0.3-0.7,0.6-1.2,0.9c-0.5,0.3-0.9,0.5-1.3,0.7v-1.2c0.7-0.3,1.3-0.7,1.9-1.2
				c0.5-0.5,0.9-0.9,1.1-1.4h0.8V381.6z"/>
			<path class="st6" d="M637.2,381.8l3-10.7h1l-3,10.7H637.2z"/>
			<path class="st6" d="M648.4,373.8l-1.3,0.1c-0.1-0.5-0.3-0.9-0.5-1.1c-0.3-0.4-0.8-0.5-1.3-0.5c-0.4,0-0.8,0.1-1.1,0.3
				c-0.4,0.3-0.7,0.7-0.9,1.3c-0.2,0.6-0.4,1.4-0.4,2.4c0.3-0.5,0.7-0.8,1.1-1c0.4-0.2,0.9-0.3,1.4-0.3c0.8,0,1.6,0.3,2.2,0.9
				c0.6,0.6,0.9,1.4,0.9,2.4c0,0.7-0.1,1.3-0.4,1.8c-0.3,0.6-0.7,1-1.2,1.3s-1,0.4-1.7,0.4c-1.1,0-1.9-0.4-2.6-1.2
				c-0.7-0.8-1-2.1-1-3.9c0-2,0.4-3.5,1.1-4.4c0.6-0.8,1.5-1.2,2.6-1.2c0.8,0,1.5,0.2,2,0.7C648,372.3,648.3,373,648.4,373.8z
				 M643.2,378.2c0,0.4,0.1,0.9,0.3,1.3c0.2,0.4,0.4,0.7,0.8,0.9c0.3,0.2,0.7,0.3,1.1,0.3c0.5,0,1-0.2,1.4-0.7
				c0.4-0.4,0.6-1,0.6-1.8c0-0.7-0.2-1.3-0.6-1.7c-0.4-0.4-0.9-0.6-1.4-0.6c-0.6,0-1.1,0.2-1.5,0.6
				C643.4,377,643.2,377.6,643.2,378.2z"/>
			<path class="st6" d="M653.9,381.6v-2.5h-4.5v-1.2l4.7-6.7h1v6.7h1.4v1.2h-1.4v2.5H653.9z M653.9,377.9v-4.7l-3.2,4.7H653.9z"/>
			<path class="st6" d="M658.3,374.9l-0.4-2v-1.7h1.4v1.7l-0.3,2H658.3z M660.7,374.9l-0.3-2v-1.7h1.4v1.7l-0.3,2H660.7z"/>
		</g>
		<g>
			<path class="st6" d="M664.2,384.6h-0.9c1.4-2.3,2.1-4.5,2.1-6.8c0-0.9-0.1-1.8-0.3-2.6c-0.2-0.7-0.4-1.4-0.7-2
				c-0.2-0.4-0.6-1.1-1.1-2.1h0.9c0.9,1.2,1.5,2.4,2,3.6c0.4,1,0.5,2.1,0.5,3.2c0,1.3-0.2,2.5-0.7,3.7
				C665.5,382.7,664.9,383.8,664.2,384.6z"/>
		</g>
		<line class="st2" x1="744.6" y1="194.9" x2="744.6" y2="77.6"/>
		<polygon class="st4" points="748.8,191.9 744.4,208.3 740.1,191.9 		"/>
		<polygon class="st4" points="748.8,80.6 744.4,64.2 740.1,80.6 		"/>
		<g>
			<path class="st6" d="M737.5,175.3h1.2v6.9c-0.3,0-0.6,0-0.9-0.1c-0.5-0.2-0.9-0.5-1.4-0.8c-0.5-0.4-1-0.9-1.6-1.7
				c-0.9-1.1-1.7-1.9-2.2-2.3c-0.5-0.4-1-0.6-1.5-0.6c-0.5,0-0.9,0.2-1.3,0.5c-0.3,0.4-0.5,0.8-0.5,1.4c0,0.6,0.2,1.1,0.6,1.5
				s0.9,0.6,1.5,0.6l-0.1,1.3c-1-0.1-1.7-0.4-2.2-1s-0.8-1.4-0.8-2.4c0-1,0.3-1.8,0.8-2.4c0.6-0.6,1.2-0.9,2-0.9
				c0.4,0,0.8,0.1,1.2,0.3c0.4,0.2,0.8,0.5,1.3,0.8c0.4,0.4,1.1,1,1.8,2c0.6,0.8,1.1,1.3,1.3,1.5s0.5,0.4,0.7,0.5V175.3z"/>
			<path class="st6" d="M738.8,169.8h-2.5v4.5h-1.2l-6.7-4.7v-1h6.7v-1.4h1.2v1.4h2.5V169.8z M735.1,169.8h-4.7l4.7,3.2V169.8z"/>
			<path class="st6" d="M738.8,165.1h-1.4v-1.4h1.4V165.1z"/>
			<path class="st6" d="M733.6,161.8c-1.2,0-2.2-0.1-3-0.4c-0.7-0.3-1.3-0.6-1.7-1.1c-0.4-0.5-0.6-1.1-0.6-1.9c0-0.6,0.1-1,0.3-1.5
				c0.2-0.4,0.5-0.8,1-1s0.9-0.5,1.5-0.6c0.6-0.2,1.4-0.2,2.5-0.2c1.2,0,2.2,0.1,2.9,0.4s1.3,0.6,1.7,1.1c0.4,0.5,0.6,1.1,0.6,1.9
				c0,1-0.4,1.8-1.1,2.4C737,161.5,735.6,161.8,733.6,161.8z M733.6,160.5c1.7,0,2.8-0.2,3.4-0.6c0.6-0.4,0.8-0.9,0.8-1.5
				c0-0.6-0.3-1.1-0.8-1.5c-0.6-0.4-1.7-0.6-3.4-0.6c-1.7,0-2.8,0.2-3.4,0.6c-0.6,0.4-0.8,0.9-0.8,1.5c0,0.6,0.2,1.1,0.7,1.4
				C730.8,160.3,731.9,160.5,733.6,160.5z"/>
			<path class="st6" d="M736,153.8l-0.2-1.3c0.7-0.1,1.2-0.4,1.6-0.7s0.5-0.8,0.5-1.3c0-0.6-0.2-1.1-0.6-1.5
				c-0.4-0.4-0.9-0.6-1.5-0.6c-0.6,0-1.1,0.2-1.4,0.6c-0.4,0.4-0.6,0.9-0.6,1.5c0,0.2,0,0.5,0.1,0.9l-1.1-0.1c0-0.1,0-0.2,0-0.2
				c0-0.5-0.1-1-0.4-1.5c-0.3-0.4-0.7-0.7-1.3-0.7c-0.5,0-0.9,0.2-1.2,0.5c-0.3,0.3-0.5,0.7-0.5,1.2c0,0.5,0.2,0.9,0.5,1.2
				c0.3,0.3,0.8,0.5,1.4,0.6l-0.2,1.3c-0.9-0.2-1.5-0.5-2-1.1c-0.5-0.6-0.7-1.2-0.7-2.1c0-0.6,0.1-1.1,0.4-1.6
				c0.2-0.5,0.6-0.8,1-1.1c0.4-0.3,0.9-0.4,1.3-0.4c0.4,0,0.9,0.1,1.2,0.4c0.4,0.2,0.7,0.6,0.9,1.1c0.1-0.6,0.4-1.1,0.9-1.4
				s1-0.5,1.7-0.5c0.9,0,1.7,0.3,2.3,1c0.6,0.7,0.9,1.5,0.9,2.5c0,0.9-0.3,1.7-0.8,2.3S736.9,153.7,736,153.8z"/>
			<path class="st6" d="M729.7,145.6h-1.2v-6.7h1c0.7,0.7,1.6,1.3,2.8,2s2.4,1.1,3.6,1.5c0.9,0.3,1.8,0.4,2.8,0.5v1.3
				c-0.8,0-1.8-0.2-3-0.5s-2.3-0.7-3.3-1.3c-1.1-0.6-2-1.2-2.7-1.8V145.6z"/>
			<path class="st6" d="M741.8,130.9c-0.9,0.7-1.9,1.3-3.1,1.8c-1.2,0.5-2.4,0.7-3.7,0.7c-1.1,0-2.2-0.2-3.2-0.5
				c-1.2-0.4-2.4-1.1-3.6-2v-0.9c1,0.6,1.7,0.9,2.1,1.1c0.7,0.3,1.3,0.5,2,0.7c0.9,0.2,1.8,0.3,2.7,0.3c2.3,0,4.5-0.7,6.8-2.1V130.9
				z"/>
			<path class="st6" d="M730.9,122.2l0.1,1.3c-0.5,0.1-0.9,0.3-1.1,0.5c-0.4,0.3-0.5,0.8-0.5,1.3c0,0.4,0.1,0.8,0.3,1.1
				c0.3,0.4,0.7,0.7,1.3,0.9s1.4,0.4,2.4,0.4c-0.5-0.3-0.8-0.7-1-1.1c-0.2-0.4-0.3-0.9-0.3-1.4c0-0.8,0.3-1.6,0.9-2.2
				c0.6-0.6,1.4-0.9,2.4-0.9c0.7,0,1.3,0.1,1.8,0.4c0.6,0.3,1,0.7,1.3,1.2c0.3,0.5,0.4,1,0.4,1.7c0,1.1-0.4,1.9-1.2,2.6
				c-0.8,0.7-2.1,1-3.9,1c-2,0-3.5-0.4-4.4-1.1c-0.8-0.6-1.2-1.5-1.2-2.6c0-0.8,0.2-1.5,0.7-2C729.5,122.6,730.1,122.3,730.9,122.2z
				 M735.4,127.4c0.4,0,0.9-0.1,1.3-0.3c0.4-0.2,0.7-0.4,0.9-0.8c0.2-0.3,0.3-0.7,0.3-1.1c0-0.5-0.2-1-0.7-1.4
				c-0.4-0.4-1-0.6-1.8-0.6c-0.7,0-1.3,0.2-1.7,0.6c-0.4,0.4-0.6,0.9-0.6,1.4c0,0.6,0.2,1.1,0.6,1.5
				C734.2,127.2,734.7,127.4,735.4,127.4z"/>
			<path class="st6" d="M738.8,116v1.3h-8.1c0.3,0.3,0.6,0.7,0.9,1.2c0.3,0.5,0.5,0.9,0.7,1.3H731c-0.3-0.7-0.7-1.3-1.2-1.9
				c-0.5-0.5-0.9-0.9-1.4-1.1V116H738.8z"/>
			<path class="st6" d="M738.9,113.3l-10.7-3v-1l10.7,3V113.3z"/>
			<path class="st6" d="M730.9,102.1l0.1,1.3c-0.5,0.1-0.9,0.3-1.1,0.5c-0.4,0.3-0.5,0.8-0.5,1.3c0,0.4,0.1,0.8,0.3,1.1
				c0.3,0.4,0.7,0.7,1.3,0.9s1.4,0.4,2.4,0.4c-0.5-0.3-0.8-0.7-1-1.1c-0.2-0.4-0.3-0.9-0.3-1.4c0-0.8,0.3-1.6,0.9-2.2
				c0.6-0.6,1.4-0.9,2.4-0.9c0.7,0,1.3,0.1,1.8,0.4c0.6,0.3,1,0.7,1.3,1.2c0.3,0.5,0.4,1,0.4,1.7c0,1.1-0.4,1.9-1.2,2.6
				c-0.8,0.7-2.1,1-3.9,1c-2,0-3.5-0.4-4.4-1.1c-0.8-0.6-1.2-1.5-1.2-2.6c0-0.8,0.2-1.5,0.7-2C729.5,102.5,730.1,102.2,730.9,102.1z
				 M735.4,107.3c0.4,0,0.9-0.1,1.3-0.3c0.4-0.2,0.7-0.4,0.9-0.8c0.2-0.3,0.3-0.7,0.3-1.1c0-0.5-0.2-1-0.7-1.4
				c-0.4-0.4-1-0.6-1.8-0.6c-0.7,0-1.3,0.2-1.7,0.6c-0.4,0.4-0.6,0.9-0.6,1.4c0,0.6,0.2,1.1,0.6,1.5
				C734.2,107.1,734.7,107.3,735.4,107.3z"/>
			<path class="st6" d="M738.8,96.6h-2.5v4.5h-1.2l-6.7-4.7v-1h6.7v-1.4h1.2v1.4h2.5V96.6z M735.1,96.6h-4.7l4.7,3.2V96.6z"/>
			<path class="st6" d="M732.1,89.8l-2,0.3h-1.7v-1.4h1.7l2,0.3V89.8z M732.1,92.2l-2,0.4h-1.7v-1.4h1.7l2,0.3V92.2z"/>
		</g>
		<g>
			<path class="st6" d="M741.8,86.3v0.9c-2.3-1.4-4.5-2.1-6.8-2.1c-0.9,0-1.8,0.1-2.6,0.3c-0.7,0.2-1.4,0.4-2,0.7
				c-0.4,0.2-1.1,0.6-2.1,1.1v-0.9c1.2-0.9,2.4-1.5,3.6-2c1-0.4,2.1-0.5,3.2-0.5c1.3,0,2.5,0.2,3.7,0.7S740.9,85.6,741.8,86.3z"/>
		</g>
		<g>
			<path class="st2" d="M215.1,188.7c0,0-12.1,13-12.1,27c0,16.9,7.8,27.4,7.8,27.4"/>
		</g>
		<polygon class="st6" points="203.1,197.5 217.4,185.9 211.1,203.2 		"/>
		<polygon class="st6" points="210.5,233.7 218.4,250.3 203.1,240.1 		"/>
		<g>
			<path class="st6" d="M180.6,221.6h-1.3v-8.1c-0.3,0.3-0.7,0.6-1.2,0.9c-0.5,0.3-0.9,0.5-1.3,0.7v-1.2c0.7-0.3,1.3-0.7,1.9-1.2
				c0.5-0.5,0.9-0.9,1.1-1.4h0.8V221.6z"/>
			<path class="st6" d="M183.8,218.9l1.3-0.2c0.1,0.7,0.4,1.2,0.7,1.6c0.4,0.3,0.8,0.5,1.3,0.5c0.6,0,1.1-0.2,1.5-0.6
				c0.4-0.4,0.6-0.9,0.6-1.5c0-0.6-0.2-1.1-0.6-1.4s-0.9-0.6-1.5-0.6c-0.2,0-0.5,0-0.9,0.1l0.1-1.1c0.1,0,0.2,0,0.2,0
				c0.5,0,1-0.1,1.5-0.4s0.7-0.7,0.7-1.3c0-0.5-0.2-0.9-0.5-1.2s-0.7-0.5-1.2-0.5c-0.5,0-0.9,0.2-1.2,0.5c-0.3,0.3-0.5,0.8-0.6,1.4
				l-1.3-0.2c0.2-0.9,0.5-1.5,1.1-2c0.6-0.5,1.2-0.7,2.1-0.7c0.6,0,1.1,0.1,1.6,0.4c0.5,0.2,0.8,0.6,1.1,1s0.4,0.9,0.4,1.3
				c0,0.4-0.1,0.9-0.4,1.2s-0.6,0.7-1.1,0.9c0.6,0.1,1.1,0.4,1.4,0.9c0.3,0.4,0.5,1,0.5,1.7c0,0.9-0.3,1.7-1,2.3
				c-0.7,0.6-1.5,0.9-2.5,0.9c-0.9,0-1.7-0.3-2.3-0.8C184.3,220.4,183.9,219.7,183.8,218.9z"/>
			<path class="st6" d="M192.2,213c0-0.5,0.2-1,0.6-1.4c0.4-0.4,0.8-0.6,1.4-0.6c0.5,0,1,0.2,1.4,0.6c0.4,0.4,0.6,0.8,0.6,1.4
				c0,0.5-0.2,1-0.6,1.4c-0.4,0.4-0.8,0.6-1.4,0.6c-0.5,0-1-0.2-1.4-0.6C192.4,214,192.2,213.6,192.2,213z M193,213
				c0,0.3,0.1,0.6,0.3,0.8c0.2,0.2,0.5,0.3,0.8,0.3c0.3,0,0.6-0.1,0.8-0.3c0.2-0.2,0.3-0.5,0.3-0.8c0-0.3-0.1-0.6-0.3-0.8
				s-0.5-0.4-0.8-0.4c-0.3,0-0.6,0.1-0.8,0.4S193,212.7,193,213z"/>
		</g>
		<line class="st7" x1="148.8" y1="238" x2="148.8" y2="76.3"/>
		<polygon class="st4" points="152.7,235.2 148.6,250.3 144.6,235.2 		"/>
		<polygon class="st4" points="152.7,79.1 148.6,64 144.6,79.1 		"/>
		<g>
			<path class="st6" d="M140.2,190.1l-0.2-1.3c0.7-0.1,1.2-0.4,1.6-0.7s0.5-0.8,0.5-1.3c0-0.6-0.2-1.1-0.6-1.5
				c-0.4-0.4-0.9-0.6-1.5-0.6c-0.6,0-1.1,0.2-1.4,0.6c-0.4,0.4-0.6,0.9-0.6,1.5c0,0.2,0,0.5,0.1,0.9l-1.1-0.1c0-0.1,0-0.2,0-0.2
				c0-0.5-0.1-1-0.4-1.5c-0.3-0.4-0.7-0.7-1.3-0.7c-0.5,0-0.9,0.2-1.2,0.5c-0.3,0.3-0.5,0.7-0.5,1.2c0,0.5,0.2,0.9,0.5,1.2
				c0.3,0.3,0.8,0.5,1.4,0.6l-0.2,1.3c-0.9-0.2-1.5-0.5-2-1.1c-0.5-0.6-0.7-1.2-0.7-2.1c0-0.6,0.1-1.1,0.4-1.6
				c0.2-0.5,0.6-0.8,1-1.1c0.4-0.3,0.9-0.4,1.3-0.4c0.4,0,0.9,0.1,1.2,0.4c0.4,0.2,0.7,0.6,0.9,1.1c0.1-0.6,0.4-1.1,0.9-1.4
				s1-0.5,1.7-0.5c0.9,0,1.7,0.3,2.3,1c0.6,0.7,0.9,1.5,0.9,2.5c0,0.9-0.3,1.7-0.8,2.3S141.1,190,140.2,190.1z"/>
			<path class="st6" d="M142.9,177.3v1.3h-8.1c0.3,0.3,0.6,0.7,0.9,1.2c0.3,0.5,0.5,0.9,0.7,1.3h-1.2c-0.3-0.7-0.7-1.3-1.2-1.9
				c-0.5-0.5-0.9-0.9-1.4-1.1v-0.8H142.9z"/>
			<path class="st6" d="M146,167.2c-0.9,0.7-1.9,1.3-3.1,1.8c-1.2,0.5-2.4,0.7-3.7,0.7c-1.1,0-2.2-0.2-3.2-0.5
				c-1.2-0.4-2.4-1.1-3.6-2v-0.9c1,0.6,1.7,0.9,2.1,1.1c0.7,0.3,1.3,0.5,2,0.7c0.9,0.2,1.8,0.3,2.7,0.3c2.3,0,4.5-0.7,6.8-2.1V167.2
				z"/>
			<path class="st6" d="M142.9,160.4v1.3h-8.1c0.3,0.3,0.6,0.7,0.9,1.2c0.3,0.5,0.5,0.9,0.7,1.3h-1.2c-0.3-0.7-0.7-1.3-1.2-1.9
				c-0.5-0.5-0.9-0.9-1.4-1.1v-0.8H142.9z"/>
			<path class="st6" d="M133.9,153h-1.2v-6.7h1c0.7,0.7,1.6,1.3,2.8,2s2.4,1.1,3.6,1.5c0.9,0.3,1.8,0.4,2.8,0.5v1.3
				c-0.8,0-1.8-0.2-3-0.5s-2.3-0.7-3.3-1.3c-1.1-0.6-2-1.2-2.7-1.8V153z"/>
			<path class="st6" d="M143.1,145.7l-10.7-3v-1l10.7,3V145.7z"/>
			<path class="st6" d="M140.2,141l-0.2-1.3c0.7-0.1,1.2-0.4,1.6-0.7s0.5-0.8,0.5-1.3c0-0.6-0.2-1.1-0.6-1.5
				c-0.4-0.4-0.9-0.6-1.5-0.6c-0.6,0-1.1,0.2-1.4,0.6c-0.4,0.4-0.6,0.9-0.6,1.5c0,0.2,0,0.5,0.1,0.9l-1.1-0.1c0-0.1,0-0.2,0-0.2
				c0-0.5-0.1-1-0.4-1.5c-0.3-0.4-0.7-0.7-1.3-0.7c-0.5,0-0.9,0.2-1.2,0.5c-0.3,0.3-0.5,0.7-0.5,1.2c0,0.5,0.2,0.9,0.5,1.2
				c0.3,0.3,0.8,0.5,1.4,0.6l-0.2,1.3c-0.9-0.2-1.5-0.5-2-1.1c-0.5-0.6-0.7-1.2-0.7-2.1c0-0.6,0.1-1.1,0.4-1.6
				c0.2-0.5,0.6-0.8,1-1.1c0.4-0.3,0.9-0.4,1.3-0.4c0.4,0,0.9,0.1,1.2,0.4c0.4,0.2,0.7,0.6,0.9,1.1c0.1-0.6,0.4-1.1,0.9-1.4
				s1-0.5,1.7-0.5c0.9,0,1.7,0.3,2.3,1c0.6,0.7,0.9,1.5,0.9,2.5c0,0.9-0.3,1.7-0.8,2.3S141.1,140.9,140.2,141z"/>
			<path class="st6" d="M141.7,126.3h1.2v6.9c-0.3,0-0.6,0-0.9-0.1c-0.5-0.2-0.9-0.5-1.4-0.8c-0.5-0.4-1-0.9-1.6-1.7
				c-0.9-1.1-1.7-1.9-2.2-2.3c-0.5-0.4-1-0.6-1.5-0.6c-0.5,0-0.9,0.2-1.3,0.5c-0.3,0.4-0.5,0.8-0.5,1.4c0,0.6,0.2,1.1,0.6,1.5
				s0.9,0.6,1.5,0.6l-0.1,1.3c-1-0.1-1.7-0.4-2.2-1s-0.8-1.4-0.8-2.4c0-1,0.3-1.8,0.8-2.4c0.6-0.6,1.2-0.9,2-0.9
				c0.4,0,0.8,0.1,1.2,0.3c0.4,0.2,0.8,0.5,1.3,0.8c0.4,0.4,1.1,1,1.8,2c0.6,0.8,1.1,1.3,1.3,1.5s0.5,0.4,0.7,0.5V126.3z"/>
			<path class="st6" d="M136.2,122.2l-2,0.3h-1.7v-1.4h1.7l2,0.3V122.2z M136.2,124.5l-2,0.4h-1.7v-1.4h1.7l2,0.3V124.5z"/>
		</g>
		<g>
			<path class="st6" d="M146,118.7v0.9c-2.3-1.4-4.5-2.1-6.8-2.1c-0.9,0-1.8,0.1-2.6,0.3c-0.7,0.2-1.4,0.4-2,0.7
				c-0.4,0.2-1.1,0.6-2.1,1.1v-0.9c1.2-0.9,2.4-1.5,3.6-2c1-0.4,2.1-0.5,3.2-0.5c1.3,0,2.5,0.2,3.7,0.7S145.1,118,146,118.7z"/>
		</g>
		<line class="st2" x1="106.3" y1="701.5" x2="106.3" y2="77.3"/>
		<polygon class="st4" points="110.5,698.5 106.1,714.9 101.7,698.5 		"/>
		<polygon class="st4" points="110.5,80.3 106.1,64 101.7,80.3 		"/>
		<line class="st2" x1="148.2" y1="701.4" x2="148.2" y2="611"/>
		<polygon class="st4" points="152.4,698.4 148,714.7 143.6,698.4 		"/>
		<polygon class="st4" points="152.4,614 148,597.6 143.6,614 		"/>
		<g>
			<path class="st6" d="M142.3,691.9v1.3h-8.1c0.3,0.3,0.6,0.7,0.9,1.2s0.5,0.9,0.7,1.3h-1.2c-0.3-0.7-0.7-1.3-1.2-1.9
				c-0.5-0.5-0.9-0.9-1.4-1.1v-0.8H142.3z"/>
			<path class="st6" d="M139.9,688.4l-0.1-1.2c0.6-0.1,1-0.3,1.3-0.6c0.3-0.3,0.4-0.7,0.4-1.1c0-0.4-0.1-0.7-0.3-1
				c-0.2-0.3-0.4-0.5-0.7-0.7c-0.3-0.2-0.7-0.3-1.2-0.5c-0.5-0.1-1-0.2-1.6-0.2c-0.1,0-0.1,0-0.3,0c0.4,0.3,0.7,0.6,1,1
				s0.4,0.9,0.4,1.4c0,0.9-0.3,1.6-0.9,2.2c-0.6,0.6-1.4,0.9-2.5,0.9c-1.1,0-1.9-0.3-2.5-0.9c-0.6-0.6-1-1.4-1-2.3
				c0-0.7,0.2-1.3,0.5-1.8s0.9-1,1.6-1.3s1.6-0.4,2.9-0.4c1.3,0,2.4,0.1,3.2,0.4c0.8,0.3,1.4,0.7,1.8,1.3c0.4,0.6,0.6,1.2,0.6,2
				c0,0.8-0.2,1.5-0.7,2S140.8,688.3,139.9,688.4z M135.4,683.2c-0.7,0-1.3,0.2-1.7,0.6s-0.6,0.9-0.6,1.4c0,0.6,0.2,1.1,0.7,1.5
				c0.5,0.4,1.1,0.6,1.8,0.6c0.7,0,1.2-0.2,1.6-0.6c0.4-0.4,0.6-0.9,0.6-1.5c0-0.6-0.2-1.1-0.6-1.5
				C136.7,683.4,136.1,683.2,135.4,683.2z"/>
			<path class="st6" d="M142.3,679.8h-1.4v-1.4h1.4V679.8z"/>
			<path class="st6" d="M139.6,676.5l-0.1-1.3c0.7-0.1,1.1-0.3,1.5-0.7c0.3-0.4,0.5-0.8,0.5-1.3c0-0.6-0.2-1.1-0.7-1.6
				c-0.5-0.4-1.1-0.6-1.8-0.6c-0.7,0-1.3,0.2-1.7,0.6c-0.4,0.4-0.6,0.9-0.6,1.6c0,0.4,0.1,0.8,0.3,1.1c0.2,0.3,0.4,0.6,0.7,0.8
				l-0.2,1.2l-5.3-1v-5.2h1.2v4.1l2.8,0.6c-0.4-0.6-0.7-1.3-0.7-2c0-0.9,0.3-1.7,0.9-2.3c0.6-0.6,1.4-0.9,2.4-0.9
				c0.9,0,1.7,0.3,2.4,0.8c0.8,0.7,1.3,1.6,1.3,2.7c0,0.9-0.3,1.7-0.8,2.3C141.2,676.1,140.5,676.5,139.6,676.5z"/>
			<path class="st6" d="M145.4,661.7c-0.9,0.7-1.9,1.3-3.1,1.8s-2.4,0.7-3.7,0.7c-1.1,0-2.2-0.2-3.2-0.5c-1.2-0.4-2.4-1.1-3.6-2
				v-0.9c1,0.6,1.7,0.9,2.1,1.1c0.7,0.3,1.3,0.5,2,0.7c0.9,0.2,1.8,0.3,2.7,0.3c2.3,0,4.5-0.7,6.8-2.1V661.7z"/>
			<path class="st6" d="M142.3,655.6h-2.5v4.5h-1.2l-6.7-4.7v-1h6.7v-1.4h1.2v1.4h2.5V655.6z M138.7,655.6H134l4.7,3.2V655.6z"/>
			<path class="st6" d="M139.9,651.4l-0.1-1.2c0.6-0.1,1-0.3,1.3-0.6c0.3-0.3,0.4-0.7,0.4-1.1c0-0.4-0.1-0.7-0.3-1
				c-0.2-0.3-0.4-0.5-0.7-0.7c-0.3-0.2-0.7-0.3-1.2-0.5c-0.5-0.1-1-0.2-1.6-0.2c-0.1,0-0.1,0-0.3,0c0.4,0.3,0.7,0.6,1,1
				s0.4,0.9,0.4,1.4c0,0.9-0.3,1.6-0.9,2.2c-0.6,0.6-1.4,0.9-2.5,0.9c-1.1,0-1.9-0.3-2.5-0.9c-0.6-0.6-1-1.4-1-2.3
				c0-0.7,0.2-1.3,0.5-1.8s0.9-1,1.6-1.3s1.6-0.4,2.9-0.4c1.3,0,2.4,0.1,3.2,0.4c0.8,0.3,1.4,0.7,1.8,1.3c0.4,0.6,0.6,1.2,0.6,2
				c0,0.8-0.2,1.5-0.7,2S140.8,651.3,139.9,651.4z M135.4,646.2c-0.7,0-1.3,0.2-1.7,0.6s-0.6,0.9-0.6,1.4c0,0.6,0.2,1.1,0.7,1.5
				c0.5,0.4,1.1,0.6,1.8,0.6c0.7,0,1.2-0.2,1.6-0.6c0.4-0.4,0.6-0.9,0.6-1.5c0-0.6-0.2-1.1-0.6-1.5
				C136.7,646.4,136.1,646.2,135.4,646.2z"/>
			<path class="st6" d="M142.5,644.1l-10.7-3v-1l10.7,3V644.1z"/>
			<path class="st6" d="M134.5,632.9l0.1,1.3c-0.5,0.1-0.9,0.3-1.1,0.5c-0.4,0.3-0.5,0.8-0.5,1.3c0,0.4,0.1,0.8,0.3,1.1
				c0.3,0.4,0.7,0.7,1.3,0.9c0.6,0.2,1.4,0.4,2.4,0.4c-0.5-0.3-0.8-0.7-1-1.1c-0.2-0.4-0.3-0.9-0.3-1.4c0-0.8,0.3-1.6,0.9-2.2
				c0.6-0.6,1.4-0.9,2.4-0.9c0.7,0,1.3,0.1,1.8,0.4c0.6,0.3,1,0.7,1.3,1.2s0.4,1,0.4,1.7c0,1.1-0.4,1.9-1.2,2.6
				c-0.8,0.7-2.1,1-3.9,1c-2,0-3.5-0.4-4.4-1.1c-0.8-0.6-1.2-1.5-1.2-2.6c0-0.8,0.2-1.5,0.7-2C133.1,633.3,133.7,633,134.5,632.9z
				 M139,638.1c0.4,0,0.9-0.1,1.3-0.3s0.7-0.4,0.9-0.8c0.2-0.3,0.3-0.7,0.3-1.1c0-0.5-0.2-1-0.7-1.4c-0.4-0.4-1-0.6-1.8-0.6
				c-0.7,0-1.3,0.2-1.7,0.6s-0.6,0.9-0.6,1.4c0,0.6,0.2,1.1,0.6,1.5S138.3,638.1,139,638.1z"/>
			<path class="st6" d="M142.3,627.4h-2.5v4.5h-1.2l-6.7-4.7v-1h6.7v-1.4h1.2v1.4h2.5V627.4z M138.7,627.4H134l4.7,3.2V627.4z"/>
			<path class="st6" d="M135.6,620.6l-2,0.3H132v-1.4h1.7l2,0.3V620.6z M135.6,623l-2,0.4H132v-1.4h1.7l2,0.3V623z"/>
		</g>
		<g>
			<path class="st6" d="M145.4,617.1v0.9c-2.3-1.4-4.5-2.1-6.8-2.1c-0.9,0-1.8,0.1-2.6,0.3c-0.7,0.2-1.4,0.4-2,0.7
				c-0.4,0.2-1.1,0.6-2.1,1.1v-0.9c1.2-0.9,2.4-1.5,3.6-2c1-0.4,2.1-0.5,3.2-0.5c1.3,0,2.5,0.2,3.7,0.7
				C143.5,615.8,144.5,616.4,145.4,617.1z"/>
		</g>
		<g>
			<path class="st4" d="M513.9,58.1V52l-5.6-8.4h2.3l2.9,4.4c0.5,0.8,1,1.6,1.5,2.5c0.4-0.8,1-1.6,1.6-2.6l2.8-4.3h2.2l-5.8,8.4v6.2
				H513.9z"/>
		</g>
		<g>
			<path class="st6" d="M357,100.8l8.1-6.5l2.9,3.6c0.6,0.7,0.9,1.3,1.1,1.8c0.2,0.5,0.1,1,0,1.5c-0.2,0.5-0.5,1-0.9,1.3
				c-0.6,0.5-1.2,0.7-1.9,0.6c-0.7-0.1-1.4-0.4-2.1-1.1c0.1,0.4,0.1,0.7,0.1,1c0,0.5-0.2,1.1-0.4,1.8l-1.1,3.2l-1.1-1.3l0.8-2.4
				c0.2-0.7,0.4-1.3,0.5-1.7c0.1-0.4,0.1-0.7,0.1-1c0-0.2-0.1-0.5-0.2-0.7c-0.1-0.1-0.2-0.4-0.4-0.6l-1-1.2l-3.6,2.9L357,100.8z
				 M362.3,98.3l1.9,2.3c0.4,0.5,0.8,0.8,1.1,1c0.3,0.2,0.7,0.3,1,0.2c0.3,0,0.6-0.2,0.9-0.4c0.4-0.3,0.6-0.7,0.6-1.2
				c0-0.5-0.2-1-0.7-1.6l-2.1-2.6L362.3,98.3z"/>
		</g>
		<g>
			<path class="st6" d="M368.8,106.5c-0.2-0.5-0.2-1-0.1-1.4c0.1-0.4,0.4-0.8,0.8-1.1c0.6-0.5,1.2-0.7,2-0.6c0.7,0.1,1.4,0.5,2,1.2
				c0.6,0.7,0.8,1.4,0.8,2.2c-0.1,0.8-0.4,1.4-1,1.8c-0.4,0.3-0.8,0.5-1.2,0.5c-0.4,0-0.9-0.1-1.4-0.4c0.2,0.6,0.3,1.2,0.1,1.8
				c-0.2,0.5-0.5,1-1,1.4c-0.7,0.6-1.5,0.8-2.3,0.7c-0.9-0.1-1.6-0.6-2.3-1.4c-0.6-0.8-0.9-1.6-0.8-2.5c0.1-0.9,0.5-1.6,1.2-2.2
				c0.5-0.4,1.1-0.6,1.6-0.7C367.7,106,368.3,106.2,368.8,106.5z M366.4,107.7c-0.3,0.2-0.5,0.5-0.7,0.9c-0.2,0.3-0.2,0.7-0.1,1.1
				c0.1,0.4,0.2,0.7,0.5,1c0.4,0.5,0.8,0.7,1.4,0.8c0.6,0.1,1.1-0.1,1.5-0.5c0.5-0.4,0.7-0.9,0.8-1.4c0.1-0.6-0.1-1.1-0.5-1.6
				c-0.4-0.5-0.8-0.7-1.4-0.8C367.3,107.2,366.8,107.3,366.4,107.7z M370.3,105c-0.4,0.3-0.6,0.7-0.6,1.1c0,0.4,0.1,0.9,0.4,1.3
				c0.3,0.4,0.7,0.6,1.1,0.6c0.4,0,0.8-0.1,1.2-0.3c0.4-0.3,0.6-0.7,0.6-1.1c0-0.5-0.1-0.9-0.4-1.2c-0.3-0.4-0.7-0.6-1.1-0.6
				C371.1,104.6,370.7,104.7,370.3,105z"/>
		</g>
		<g>
			<path class="st6" d="M370.2,122c0.2-1.1,0.7-2.2,1.3-3.3c0.6-1.1,1.4-2.1,2.4-2.9c0.9-0.7,1.8-1.2,2.8-1.6c1.2-0.4,2.5-0.7,4-0.7
				l0.6,0.7c-1.1,0.2-1.9,0.3-2.3,0.4c-0.7,0.2-1.4,0.4-2,0.8c-0.8,0.4-1.6,0.9-2.3,1.4c-1.8,1.4-3.1,3.4-4,5.9L370.2,122z"/>
		</g>
		<g>
			<path class="st6" d="M375.9,120l0.9,1c-0.4,0.5-0.7,1-0.7,1.5c0,0.5,0.1,0.9,0.4,1.3c0.4,0.5,0.9,0.7,1.5,0.8
				c0.6,0,1.2-0.2,1.8-0.7c0.6-0.5,0.9-1,1-1.6c0.1-0.6-0.1-1.1-0.5-1.6c-0.3-0.3-0.6-0.5-0.9-0.7c-0.4-0.1-0.7-0.2-1.1-0.2l-0.6-1
				l4.8-2.6l3.2,4l-0.9,0.8l-2.6-3.2l-2.5,1.3c0.7,0.2,1.3,0.6,1.7,1.1c0.6,0.7,0.8,1.5,0.7,2.4s-0.5,1.6-1.3,2.2
				c-0.7,0.6-1.5,0.9-2.4,0.9c-1.1,0-2-0.4-2.7-1.3c-0.6-0.7-0.9-1.5-0.8-2.3C375,121.3,375.3,120.6,375.9,120z"/>
		</g>
		<g>
			<path class="st6" d="M378.4,127.6l10.2-4.4l0.6,0.8l-10.2,4.4L378.4,127.6z"/>
		</g>
		<g>
			<path class="st6" d="M384.4,134.8l-0.8-1l6.3-5.1c-0.4-0.1-0.9-0.2-1.4-0.4c-0.5-0.2-1-0.4-1.4-0.6l1-0.8
				c0.7,0.3,1.4,0.6,2.1,0.7c0.7,0.1,1.3,0.1,1.8,0l0.5,0.6L384.4,134.8z"/>
		</g>
		<g>
			<path class="st6" d="M396.7,137.6l-0.9-0.9c0.3-0.4,0.5-0.8,0.5-1.1c0.1-0.5-0.1-0.9-0.4-1.3c-0.3-0.3-0.6-0.5-0.9-0.6
				c-0.5-0.1-1-0.1-1.6,0.1c-0.6,0.2-1.3,0.6-2.1,1.2c0.6-0.1,1.1,0,1.5,0.2c0.5,0.2,0.8,0.5,1.1,0.9c0.5,0.7,0.7,1.4,0.6,2.3
				s-0.6,1.6-1.3,2.2c-0.5,0.4-1.1,0.7-1.7,0.8c-0.6,0.1-1.2,0.1-1.7-0.1c-0.5-0.2-1-0.5-1.4-1c-0.7-0.8-0.9-1.7-0.7-2.8
				c0.2-1,1-2.1,2.4-3.2c1.6-1.3,2.9-1.9,4.1-1.9c1,0,1.9,0.4,2.6,1.3c0.5,0.6,0.8,1.3,0.7,2C397.6,136.4,397.3,137,396.7,137.6z
				 M390,136.3c-0.3,0.3-0.6,0.6-0.8,1c-0.2,0.4-0.3,0.8-0.2,1.2c0,0.4,0.2,0.7,0.4,1c0.3,0.4,0.8,0.6,1.4,0.7
				c0.6,0,1.2-0.2,1.7-0.7c0.6-0.5,0.9-1,1-1.5c0.1-0.6-0.1-1.1-0.4-1.5c-0.4-0.4-0.8-0.7-1.4-0.8S390.5,135.9,390,136.3z"/>
		</g>
		<g>
			<path class="st6" d="M397,139.7l1.3-1.5l1.3-1.1l0.9,1.1l-1.3,1.1l-1.7,1L397,139.7z M398.5,141.6l1.3-1.5l1.3-1.1l0.9,1.1
				l-1.3,1.1l-1.7,1L398.5,141.6z"/>
		</g>
		<g>
			<path class="st6" d="M393.1,150.5l-0.6-0.7c2.6-0.3,4.9-1.2,6.6-2.6c0.7-0.6,1.3-1.2,1.9-1.9c0.4-0.6,0.8-1.2,1.2-1.8
				c0.2-0.4,0.5-1.1,0.9-2.2l0.6,0.7c-0.4,1.4-0.9,2.7-1.5,3.8c-0.6,0.9-1.3,1.7-2.2,2.4c-1,0.8-2.1,1.4-3.3,1.7
				C395.4,150.3,394.3,150.4,393.1,150.5z"/>
		</g>
		<line class="st8" x1="344.2" y1="94.5" x2="391.4" y2="152.9"/>
		<polygon class="st6" points="342.5,100.4 334.3,81.9 350.7,93.8 		"/>
		<line class="st2" x1="331.9" y1="27.2" x2="668.8" y2="27.2"/>
		<polygon class="st4" points="334.9,31.4 318.5,27 334.9,22.6 		"/>
		<polygon class="st4" points="665.8,31.4 682.1,27 665.8,22.6 		"/>
		<g>
			<path class="st6" d="M479.2,13.5l-1.3,0.1c-0.1-0.5-0.3-0.9-0.5-1.1c-0.3-0.4-0.8-0.5-1.3-0.5c-0.4,0-0.8,0.1-1.1,0.3
				c-0.4,0.3-0.7,0.7-0.9,1.3c-0.2,0.6-0.4,1.4-0.4,2.4c0.3-0.5,0.7-0.8,1.1-1c0.4-0.2,0.9-0.3,1.4-0.3c0.8,0,1.6,0.3,2.2,0.9
				c0.6,0.6,0.9,1.4,0.9,2.4c0,0.7-0.1,1.3-0.4,1.8c-0.3,0.6-0.7,1-1.2,1.3s-1,0.4-1.7,0.4c-1.1,0-1.9-0.4-2.6-1.2
				c-0.7-0.8-1-2.1-1-3.9c0-2,0.4-3.5,1.1-4.4c0.6-0.8,1.5-1.2,2.6-1.2c0.8,0,1.5,0.2,2,0.7C478.8,12.1,479.1,12.7,479.2,13.5z
				 M474,18c0,0.4,0.1,0.9,0.3,1.3c0.2,0.4,0.4,0.7,0.8,0.9c0.3,0.2,0.7,0.3,1.1,0.3c0.5,0,1-0.2,1.4-0.7c0.4-0.4,0.6-1,0.6-1.8
				c0-0.7-0.2-1.3-0.6-1.7c-0.4-0.4-0.9-0.6-1.4-0.6c-0.6,0-1.1,0.2-1.5,0.6C474.2,16.8,474,17.3,474,18z"/>
			<path class="st6" d="M480.6,16.2c0-1.2,0.1-2.2,0.4-3c0.3-0.7,0.6-1.3,1.1-1.7c0.5-0.4,1.1-0.6,1.9-0.6c0.6,0,1,0.1,1.5,0.3
				c0.4,0.2,0.8,0.5,1,1c0.3,0.4,0.5,0.9,0.6,1.5c0.2,0.6,0.2,1.4,0.2,2.4c0,1.2-0.1,2.2-0.4,2.9c-0.2,0.7-0.6,1.3-1.1,1.7
				s-1.1,0.6-1.9,0.6c-1,0-1.8-0.4-2.4-1.1C481,19.6,480.6,18.2,480.6,16.2z M482,16.2c0,1.7,0.2,2.8,0.6,3.4s0.9,0.8,1.5,0.8
				c0.6,0,1.1-0.3,1.5-0.8c0.4-0.6,0.6-1.7,0.6-3.4c0-1.7-0.2-2.8-0.6-3.4c-0.4-0.6-0.9-0.8-1.5-0.8c-0.6,0-1.1,0.2-1.4,0.7
				C482.2,13.4,482,14.5,482,16.2z"/>
			<path class="st6" d="M489.4,21.3v-1.4h1.4v1.4H489.4z"/>
			<path class="st6" d="M492.7,18.6l1.3-0.2c0.1,0.7,0.4,1.2,0.7,1.6c0.4,0.3,0.8,0.5,1.3,0.5c0.6,0,1.1-0.2,1.5-0.6
				s0.6-0.9,0.6-1.5c0-0.6-0.2-1.1-0.6-1.4s-0.9-0.6-1.5-0.6c-0.2,0-0.5,0-0.9,0.1l0.1-1.1c0.1,0,0.2,0,0.2,0c0.5,0,1-0.1,1.5-0.4
				s0.7-0.7,0.7-1.3c0-0.5-0.2-0.9-0.5-1.2c-0.3-0.3-0.7-0.5-1.2-0.5c-0.5,0-0.9,0.2-1.2,0.5c-0.3,0.3-0.5,0.8-0.6,1.4l-1.3-0.2
				c0.2-0.9,0.5-1.5,1.1-2c0.6-0.5,1.2-0.7,2.1-0.7c0.6,0,1.1,0.1,1.6,0.4c0.5,0.2,0.8,0.6,1.1,1s0.4,0.9,0.4,1.3
				c0,0.4-0.1,0.9-0.4,1.2c-0.2,0.4-0.6,0.7-1.1,0.9c0.6,0.1,1.1,0.4,1.4,0.9c0.3,0.4,0.5,1,0.5,1.7c0,0.9-0.3,1.7-1,2.3
				c-0.7,0.6-1.5,0.9-2.5,0.9c-0.9,0-1.7-0.3-2.3-0.8C493.2,20.2,492.8,19.5,492.7,18.6z"/>
			<path class="st6" d="M507.6,24.4c-0.7-0.9-1.3-1.9-1.8-3.1c-0.5-1.2-0.7-2.4-0.7-3.7c0-1.1,0.2-2.2,0.5-3.2
				c0.4-1.2,1.1-2.4,2-3.6h0.9c-0.6,1-0.9,1.7-1.1,2.1c-0.3,0.7-0.5,1.3-0.7,2c-0.2,0.9-0.3,1.8-0.3,2.7c0,2.3,0.7,4.5,2.1,6.8
				H507.6z"/>
			<path class="st6" d="M516.3,20.1v1.2h-6.9c0-0.3,0-0.6,0.1-0.9c0.2-0.5,0.5-0.9,0.8-1.4c0.4-0.5,0.9-1,1.7-1.6
				c1.1-0.9,1.9-1.7,2.3-2.2s0.6-1,0.6-1.5c0-0.5-0.2-0.9-0.5-1.3c-0.4-0.3-0.8-0.5-1.4-0.5c-0.6,0-1.1,0.2-1.5,0.6
				c-0.4,0.4-0.6,0.9-0.6,1.5l-1.3-0.1c0.1-1,0.4-1.7,1-2.2c0.6-0.5,1.4-0.8,2.4-0.8c1,0,1.8,0.3,2.4,0.8c0.6,0.6,0.9,1.2,0.9,2.1
				c0,0.4-0.1,0.8-0.3,1.2c-0.2,0.4-0.5,0.8-0.8,1.3c-0.4,0.4-1,1.1-2,1.8c-0.8,0.6-1.3,1.1-1.5,1.3c-0.2,0.2-0.4,0.5-0.5,0.7H516.3
				z"/>
			<path class="st6" d="M521.7,18.6l1.3-0.2c0.1,0.7,0.4,1.2,0.7,1.6c0.4,0.3,0.8,0.5,1.3,0.5c0.6,0,1.1-0.2,1.5-0.6
				s0.6-0.9,0.6-1.5c0-0.6-0.2-1.1-0.6-1.4s-0.9-0.6-1.5-0.6c-0.2,0-0.5,0-0.9,0.1l0.1-1.1c0.1,0,0.2,0,0.2,0c0.5,0,1-0.1,1.5-0.4
				s0.7-0.7,0.7-1.3c0-0.5-0.2-0.9-0.5-1.2c-0.3-0.3-0.7-0.5-1.2-0.5c-0.5,0-0.9,0.2-1.2,0.5c-0.3,0.3-0.5,0.8-0.6,1.4l-1.3-0.2
				c0.2-0.9,0.5-1.5,1.1-2c0.6-0.5,1.2-0.7,2.1-0.7c0.6,0,1.1,0.1,1.6,0.4c0.5,0.2,0.8,0.6,1.1,1s0.4,0.9,0.4,1.3
				c0,0.4-0.1,0.9-0.4,1.2c-0.2,0.4-0.6,0.7-1.1,0.9c0.6,0.1,1.1,0.4,1.4,0.9c0.3,0.4,0.5,1,0.5,1.7c0,0.9-0.3,1.7-1,2.3
				c-0.7,0.6-1.5,0.9-2.5,0.9c-0.9,0-1.7-0.3-2.3-0.8C522.1,20.2,521.8,19.5,521.7,18.6z"/>
			<path class="st6" d="M529.1,21.5l3-10.7h1l-3,10.7H529.1z"/>
			<path class="st6" d="M535.7,15.7c-0.5-0.2-0.9-0.5-1.2-0.8c-0.3-0.4-0.4-0.8-0.4-1.3c0-0.8,0.3-1.4,0.8-1.9
				c0.5-0.5,1.3-0.8,2.2-0.8c0.9,0,1.6,0.3,2.2,0.8c0.6,0.5,0.8,1.2,0.8,1.9c0,0.5-0.1,0.9-0.4,1.3c-0.3,0.4-0.6,0.6-1.1,0.8
				c0.6,0.2,1.1,0.5,1.5,1c0.3,0.5,0.5,1,0.5,1.7c0,0.9-0.3,1.6-0.9,2.2c-0.6,0.6-1.5,0.9-2.5,0.9c-1,0-1.8-0.3-2.5-0.9
				c-0.6-0.6-0.9-1.4-0.9-2.3c0-0.7,0.2-1.2,0.5-1.7C534.6,16.2,535.1,15.9,535.7,15.7z M535.1,18.3c0,0.4,0.1,0.7,0.3,1.1
				c0.2,0.3,0.4,0.6,0.8,0.8c0.3,0.2,0.7,0.3,1.1,0.3c0.6,0,1.1-0.2,1.5-0.6c0.4-0.4,0.6-0.9,0.6-1.5c0-0.6-0.2-1.1-0.6-1.5
				c-0.4-0.4-0.9-0.6-1.5-0.6c-0.6,0-1.1,0.2-1.5,0.6S535.1,17.7,535.1,18.3z M535.5,13.6c0,0.5,0.2,0.9,0.5,1.2s0.7,0.5,1.2,0.5
				c0.5,0,0.9-0.2,1.2-0.5s0.5-0.7,0.5-1.1c0-0.5-0.2-0.9-0.5-1.2c-0.3-0.3-0.7-0.5-1.2-0.5c-0.5,0-0.9,0.2-1.2,0.5
				S535.5,13.1,535.5,13.6z"/>
			<path class="st6" d="M542.2,14.6l-0.4-2V11h1.4v1.7l-0.3,2H542.2z M544.6,14.6l-0.3-2V11h1.4v1.7l-0.3,2H544.6z"/>
			<path class="st6" d="M548.1,24.4h-0.9c1.4-2.3,2.1-4.5,2.1-6.8c0-0.9-0.1-1.8-0.3-2.6c-0.2-0.7-0.4-1.4-0.7-2
				c-0.2-0.4-0.6-1.1-1.1-2.1h0.9c0.9,1.2,1.5,2.4,2,3.6c0.4,1,0.5,2.1,0.5,3.2c0,1.3-0.2,2.5-0.7,3.7
				C549.4,22.5,548.8,23.5,548.1,24.4z"/>
		</g>
		<g>
			<path class="st4" d="M86.3,433.2L86.3,433.2l1,1.8l-1.1,0.3L85,433v-1.2h10.4v1.4H86.3z"/>
			<path class="st4" d="M90.1,421.7c3.5,0,5.5,1.3,5.5,3.6c0,2-1.9,3.4-5.4,3.4c-3.5,0-5.4-1.5-5.4-3.6
				C84.8,422.9,86.7,421.7,90.1,421.7z M90.2,427.4c2.7,0,4.2-0.8,4.2-2.1c0-1.4-1.7-2.1-4.3-2.1c-2.6,0-4.2,0.7-4.2,2.1
				C85.9,426.5,87.4,427.4,90.2,427.4z"/>
			<path class="st4" d="M85,413.9h0.9l9.5,4.5v1.5l-9.2-4.5h0v5.1H85V413.9z"/>
			<path class="st4" d="M94.6,413.7c-0.6,0-1-0.4-1-1s0.4-0.9,1-0.9c0.6,0,1,0.4,1,1C95.6,413.3,95.1,413.7,94.6,413.7z"/>
			<path class="st4" d="M94.4,409.9c0-0.3,0-0.7,0-1.1c-0.1-0.8-0.4-1.6-1-2.2c-0.6-0.7-1.5-1.2-2.8-1.4v0c0.7,0.6,1.1,1.4,1.1,2.5
				c0,1.9-1.4,3.1-3.2,3.1c-2,0-3.7-1.4-3.7-3.6s1.7-3.4,4.4-3.4c2.3,0,3.9,0.8,4.9,1.8c0.8,0.8,1.3,1.9,1.4,3
				c0.1,0.5,0.1,1,0.1,1.3H94.4z M88.4,409.4c1.3,0,2.2-0.8,2.2-2c0-0.9-0.5-1.7-1.1-2.1c-0.1-0.1-0.3-0.1-0.5-0.1
				c-1.8,0-3.1,0.7-3.1,2.1C85.9,408.5,86.9,409.4,88.4,409.4z"/>
			<path class="st4" d="M86.2,396.4v4l2.7,0.4c0-0.2-0.1-0.5-0.1-0.9c0-0.8,0.2-1.6,0.6-2.2c0.5-0.8,1.4-1.5,2.7-1.5
				c2,0,3.6,1.6,3.6,3.9c0,1.1-0.3,2.1-0.6,2.6l-1.1-0.4c0.3-0.4,0.6-1.3,0.6-2.2c0-1.3-0.9-2.5-2.3-2.5c-1.3,0-2.3,0.9-2.3,3
				c0,0.6,0.1,1.1,0.1,1.4l-5-0.7v-5H86.2z"/>
			<path class="st4" d="M84.3,387.7c1.6,1.2,3.7,2,6.6,2c2.9,0,4.9-0.9,6.5-2v1.1c-1.3,1-3.4,2.1-6.5,2.1c-3.2,0-5.2-1.1-6.6-2.1
				V387.7z"/>
			<path class="st4" d="M95.4,382.7h-2.8v4.8h-0.9l-6.7-4.7v-1.5h6.5v-1.5h1.1v1.5h2.8V382.7z M91.4,382.7H88c-0.5,0-1.1,0-1.6,0v0
				c0.6,0.3,1.1,0.6,1.5,0.9l3.5,2.5h0V382.7z"/>
			<path class="st4" d="M86.3,372.7L86.3,372.7l1,1.8l-1.1,0.3l-1.2-2.3v-1.2h10.4v1.4H86.3z"/>
			<path class="st4" d="M96,369l-11.6-4.5v-1.1l11.6,4.5V369z"/>
			<path class="st4" d="M95.4,358.9h-2.8v4.8h-0.9l-6.7-4.7v-1.5h6.5v-1.5h1.1v1.5h2.8V358.9z M91.4,358.9H88c-0.5,0-1.1,0-1.6,0v0
				c0.6,0.3,1.1,0.6,1.5,0.9l3.5,2.5h0V358.9z"/>
			<path class="st4" d="M84.4,351.2l3.8,0.3v0.9l-3.8,0.3V351.2z M84.4,353.6l3.8,0.3v0.9l-3.8,0.3V353.6z"/>
			<path class="st4" d="M97.3,349.9c-1.6-1.1-3.7-2-6.6-2c-2.9,0-4.9,0.9-6.5,2v-1.1c1.3-1,3.4-2.1,6.5-2.1c3.1,0,5.2,1.1,6.5,2.1
				V349.9z"/>
		</g>
		<g>
			<path class="st4" d="M443.8,782.4L443.8,782.4l-1.8,1l-0.3-1.1l2.3-1.2h1.2v10.4h-1.4V782.4z"/>
			<path class="st4" d="M455.3,786.2c0,3.5-1.3,5.5-3.6,5.5c-2,0-3.4-1.9-3.4-5.4c0-3.5,1.5-5.4,3.6-5.4
				C454,780.9,455.3,782.9,455.3,786.2z M449.6,786.4c0,2.7,0.8,4.2,2.1,4.2c1.4,0,2.1-1.7,2.1-4.3c0-2.6-0.7-4.2-2.1-4.2
				C450.5,782,449.6,783.5,449.6,786.4z"/>
			<path class="st4" d="M463,781.1v0.9l-4.5,9.5H457l4.5-9.2v0h-5.1v-1.2H463z"/>
			<path class="st4" d="M463.3,790.7c0-0.6,0.4-1,1-1s0.9,0.4,0.9,1c0,0.6-0.4,1-1,1C463.6,791.7,463.3,791.3,463.3,790.7z"/>
			<path class="st4" d="M467.1,790.5c0.3,0,0.7,0,1.1,0c0.8-0.1,1.6-0.4,2.2-1c0.7-0.6,1.2-1.5,1.4-2.8h0c-0.6,0.7-1.4,1.1-2.5,1.1
				c-1.9,0-3.1-1.4-3.1-3.2c0-2,1.4-3.7,3.6-3.7s3.4,1.7,3.4,4.4c0,2.3-0.8,3.9-1.8,4.9c-0.8,0.8-1.9,1.3-3,1.4
				c-0.5,0.1-1,0.1-1.3,0.1V790.5z M467.6,784.5c0,1.3,0.8,2.2,2,2.2c0.9,0,1.7-0.5,2.1-1.1c0.1-0.1,0.1-0.3,0.1-0.5
				c0-1.8-0.7-3.1-2.1-3.1C468.5,782,467.6,783.1,467.6,784.5z"/>
			<path class="st4" d="M480.6,782.3h-4l-0.4,2.7c0.2,0,0.5-0.1,0.9-0.1c0.8,0,1.6,0.2,2.2,0.6c0.8,0.5,1.5,1.4,1.5,2.7
				c0,2-1.6,3.6-3.9,3.6c-1.1,0-2.1-0.3-2.6-0.6l0.4-1.1c0.4,0.3,1.3,0.6,2.2,0.6c1.3,0,2.5-0.9,2.5-2.3c0-1.3-0.9-2.3-3-2.3
				c-0.6,0-1.1,0.1-1.4,0.1l0.7-5h5V782.3z"/>
			<path class="st4" d="M489.3,780.4c-1.2,1.6-2,3.7-2,6.6c0,2.9,0.9,4.9,2,6.5h-1.1c-1-1.3-2.1-3.4-2.1-6.5c0-3.2,1.1-5.2,2.1-6.6
				H489.3z"/>
			<path class="st4" d="M494.3,791.5v-2.8h-4.8v-0.9l4.7-6.7h1.5v6.5h1.5v1.1h-1.5v2.8H494.3z M494.3,787.6v-3.5c0-0.5,0-1.1,0-1.6
				h0c-0.3,0.6-0.6,1.1-0.9,1.5l-2.5,3.5v0H494.3z"/>
			<path class="st4" d="M504.3,782.4L504.3,782.4l-1.8,1l-0.3-1.1l2.3-1.2h1.2v10.4h-1.4V782.4z"/>
			<path class="st4" d="M508,792.2l4.5-11.6h1.1l-4.5,11.6H508z"/>
			<path class="st4" d="M518.1,791.5v-2.8h-4.8v-0.9l4.7-6.7h1.5v6.5h1.5v1.1h-1.5v2.8H518.1z M518.1,787.6v-3.5c0-0.5,0-1.1,0-1.6
				h0c-0.3,0.6-0.6,1.1-0.9,1.5l-2.5,3.5v0H518.1z"/>
			<path class="st4" d="M523.4,780.6l-0.3,3.8h-0.9l-0.3-3.8H523.4z M525.8,780.6l-0.3,3.8h-0.8l-0.3-3.8H525.8z"/>
			<path class="st4" d="M527.1,793.5c1.1-1.6,2-3.7,2-6.6c0-2.9-0.9-4.9-2-6.5h1.1c1,1.3,2.1,3.4,2.1,6.5c0,3.1-1.1,5.2-2.1,6.5
				H527.1z"/>
		</g>
	</g>
</g>
<g id="Watermark">
	<g>
		<rect x="438.5" y="647.1" class="st1" width="123.1" height="46.3"/>
		<g>
			<rect x="444.9" y="654.9" class="st75" width="62.9" height="30.6"/>
			<rect x="507.7" y="654.9" class="st75" width="47.4" height="30.6"/>
			<g>
				<path class="st76" d="M466.5,661l-2.8,18.9H461l-1.6-11l-1.5,11h-2.7l-2.8-18.9h2.5l1.8,14.2l1.8-14.2h2l1.8,14.2L464,661H466.5
					z"/>
				<path class="st76" d="M467.9,680V661h2.5V680H467.9z"/>
				<path class="st76" d="M472.8,661h5c1.9,0,2.9,1.1,2.9,3.2v4.7c0,1.7-0.5,2.7-1.5,3.1l1.8,7.9h-2.4l-1.7-7.6h-1.5v7.6h-2.5V661z
					 M475.4,670.2h1.7c0.8,0,1.1-0.5,1.1-1.4v-4.1c0-0.9-0.4-1.4-1.1-1.4h-1.7V670.2z"/>
				<path class="st76" d="M486.8,663.3V680h-2.5v-16.6h-2.4V661h7.4v2.3H486.8z"/>
				<path class="st76" d="M496.3,680v-8.6h-3.1v8.6h-2.5V661h2.5v8h3.1v-8h2.5V680H496.3z"/>
			</g>
			<g>
				<path class="st76" d="M516.3,661h5c1.9,0,2.9,1.1,2.9,3.2v4.7c0,1.7-0.5,2.7-1.5,3.1l1.8,7.9H522l-1.7-7.6h-1.5v7.6h-2.5V661z
					 M518.8,670.2h1.7c0.8,0,1.1-0.5,1.1-1.4v-4.1c0-0.9-0.4-1.4-1.1-1.4h-1.7V670.2z"/>
				<path class="st76" d="M528.7,680h-2.5v-15.7c0-2.2,1-3.2,3-3.2h1.9c2,0,3,1.1,3,3.2V680h-2.5V673h-2.9V680z M531.6,670.7v-6.3
					c0-0.7-0.4-1.1-1.1-1.1h-0.7c-0.7,0-1.1,0.4-1.1,1.1v6.3H531.6z"/>
				<path class="st76" d="M536.3,680V661h2.5V680H536.3z"/>
				<path class="st76" d="M547.2,680h-6V661h2.5v16.6h3.5V680z"/>
			</g>
		</g>
	</g>
</g>
</svg>
