<?xml version="1.0" encoding="utf-8"?>
<!-- Generator: Adobe Illustrator 25.2.3, SVG Export Plug-In . SVG Version: 6.00 Build 0)  -->
<svg version="1.1" xmlns="http://www.w3.org/2000/svg" xmlns:xlink="http://www.w3.org/1999/xlink" x="0px" y="0px"
	 viewBox="0 0 1000 800" style="enable-background:new 0 0 1000 800;" xml:space="preserve">
<style type="text/css">
	.st0{display:none;}
	.st1{fill:#F0F0F0;}
	.st2{fill:none;stroke:#221E1F;stroke-width:1.0067;}
	.st3{fill:none;stroke:#221E1F;stroke-width:1.0815;}
	.st4{fill:#221E1F;}
	.st5{fill:none;stroke:#221E1F;stroke-width:1.0067;stroke-dasharray:25.4357,7.8961;}
	.st6{fill:#303030;}
	.st7{fill:none;stroke:#221E1F;stroke-width:0.9293;}
	.st8{fill:none;stroke:#303030;stroke-width:1.0067;stroke-miterlimit:10;}
	.st9{fill:none;stroke:#221E1F;stroke-width:1.2309;}
	.st10{fill:none;stroke:#221E1F;stroke-width:1.0036;stroke-linecap:round;stroke-linejoin:round;stroke-miterlimit:10;}
	.st11{fill:none;stroke:#221E1F;stroke-width:1.2309;stroke-linecap:round;stroke-linejoin:round;stroke-miterlimit:10;}
	.st12{fill:none;stroke:#221E1F;stroke-width:1.2309;stroke-miterlimit:10;}
	.st13{fill:none;stroke:#221E1F;stroke-width:1.2309;stroke-linecap:round;stroke-linejoin:round;}
	.st14{fill:none;stroke:#221E1F;stroke-width:1.2309;stroke-dasharray:6.9402,6.9402;}
	.st15{fill:none;stroke:#221E1F;stroke-width:1.148;}
	.st16{fill:none;stroke:#221E1F;stroke-width:1.148;stroke-dasharray:6.4521,6.4521;}
	.st17{fill:none;stroke:#221E1F;stroke-width:1.145;}
	.st18{fill:none;stroke:#221E1F;stroke-width:1.1283;}
	.st19{fill:none;stroke:#221E1F;stroke-width:1.1023;}
	.st20{fill:none;stroke:#221E1F;stroke-width:1.1283;stroke-dasharray:6.3679,6.3679;}
	.st21{fill:none;stroke:#221E1F;stroke-width:1.1486;}
	.st22{fill:none;stroke:#FFFFFF;stroke-width:5.4259;}
	.st23{fill:none;stroke:#221E1F;stroke-width:1.0581;}
	.st24{fill:none;stroke:#221E1F;stroke-width:1.0092;}
	.st25{fill:none;stroke:#221E1F;stroke-width:0.9007;}
	.st26{fill:none;stroke:#221E1F;stroke-width:0.9007;stroke-dasharray:6.2235,6.2235;}
	.st27{fill:none;stroke:#241F21;stroke-width:0.8703;}
	.st28{fill:none;stroke:#241F21;stroke-width:0.9357;}
	.st29{clip-path:url(#SVGID_2_);fill:none;stroke:#241F21;stroke-width:0.8703;}
	.st30{fill:none;stroke:#303030;stroke-width:0.8703;stroke-miterlimit:10;}
	.st31{fill:#241F21;}
	.st32{fill:none;stroke:#241F21;stroke-width:0.8703;stroke-dasharray:22.0524,6.4121;}
	.st33{clip-path:url(#SVGID_4_);}
	.st34{clip-path:url(#SVGID_6_);}
	.st35{clip-path:url(#SVGID_8_);}
	.st36{clip-path:url(#SVGID_10_);fill:#303030;}
	.st37{fill:none;stroke:#241F21;stroke-width:0.8703;stroke-dasharray:26.5684,7.9543;}
	.st38{clip-path:url(#SVGID_12_);}
	.st39{clip-path:url(#SVGID_14_);}
	.st40{clip-path:url(#SVGID_16_);}
	.st41{clip-path:url(#SVGID_18_);}
	.st42{fill:none;stroke:#241F21;stroke-width:0.8984;}
	.st43{fill:none;stroke:#303030;stroke-width:0.8984;stroke-miterlimit:10;}
	.st44{clip-path:url(#SVGID_20_);}
	.st45{clip-path:url(#SVGID_22_);}
	.st46{clip-path:url(#SVGID_24_);}
	.st47{clip-path:url(#SVGID_26_);}
	.st48{clip-path:url(#SVGID_28_);}
	.st49{clip-path:url(#SVGID_30_);}
	.st50{clip-path:url(#SVGID_32_);}
	.st51{clip-path:url(#SVGID_34_);fill:none;stroke:#241F21;stroke-width:0.8984;}
	.st52{clip-path:url(#SVGID_36_);fill:none;stroke:#241F21;stroke-width:0.8984;}
	.st53{clip-path:url(#SVGID_38_);fill:none;stroke:#241F21;stroke-width:0.8984;}
	.st54{clip-path:url(#SVGID_40_);fill:none;stroke:#241F21;stroke-width:0.8984;}
	.st55{fill:none;stroke:#241F21;stroke-width:0.8984;stroke-dasharray:22.7263,6.6621;}
	.st56{fill:none;stroke:#241F21;stroke-width:0.9362;}
	.st57{fill:none;stroke:#241F21;stroke-width:0.8984;stroke-dasharray:27.9392,8.7142;}
	.st58{clip-path:url(#SVGID_42_);}
	.st59{clip-path:url(#SVGID_44_);}
	.st60{clip-path:url(#SVGID_46_);}
	.st61{fill:none;stroke:#221E1F;stroke-width:0.765;}
	.st62{fill:none;stroke:#221E1F;stroke-width:0.8373;}
	.st63{fill:none;stroke:#221E1F;stroke-width:0.765;stroke-dasharray:21.1617,6.4071;}
	.st64{fill:none;stroke:#221E1F;stroke-width:0.765;stroke-dasharray:24.8189,7.2742;}
	.st65{fill:none;stroke:#303030;stroke-width:0.765;stroke-miterlimit:10;}
	.st66{fill:none;stroke:#221E1F;stroke-width:0.748;}
	.st67{fill:none;stroke:#241F21;stroke-width:1.3086;}
	.st68{fill:none;stroke:#241F21;stroke-width:1.5023;}
	.st69{fill:none;stroke:#241F21;stroke-width:1.1437;}
	.st70{fill:none;stroke:#241F21;stroke-width:1.5023;stroke-dasharray:23.5916,9.5345;}
	.st71{fill:none;stroke:#241F21;stroke-width:1.5023;stroke-dasharray:22.9216,8.8619;}
	.st72{fill:none;stroke:#241F21;stroke-width:1.5023;stroke-dasharray:21.3408,7.2811;}
	.st73{fill:none;stroke:#241F21;stroke-width:1.5023;stroke-dasharray:21.3303,7.2706;}
	.st74{fill:none;stroke:#241F21;stroke-width:1.5023;stroke-dasharray:20.027,5.9673;}
	.st75{fill:#F0F0F0;stroke:#CCCCCC;stroke-miterlimit:10;}
	.st76{fill:#CCCCCC;}
</style>
<g id="editable" class="st0">
</g>
<g id="Flat">
	<g>
		<g>
			<path class="st6" d="M471.3,743.9h-1v-6.2c-0.2,0.2-0.5,0.4-0.9,0.7c-0.4,0.2-0.7,0.4-1,0.5V738c0.5-0.3,1-0.6,1.4-0.9
				c0.4-0.4,0.7-0.7,0.9-1.1h0.6V743.9z"/>
			<path class="st6" d="M473.8,741.8l1-0.1c0.1,0.5,0.3,0.9,0.6,1.2c0.3,0.2,0.6,0.4,1,0.4c0.5,0,0.8-0.2,1.2-0.5
				c0.3-0.3,0.5-0.7,0.5-1.2c0-0.4-0.1-0.8-0.4-1.1s-0.7-0.4-1.1-0.4c-0.2,0-0.4,0-0.7,0.1l0.1-0.8c0.1,0,0.1,0,0.2,0
				c0.4,0,0.8-0.1,1.1-0.3c0.3-0.2,0.5-0.5,0.5-1c0-0.4-0.1-0.6-0.4-0.9c-0.2-0.2-0.5-0.3-0.9-0.3c-0.4,0-0.7,0.1-0.9,0.4
				c-0.3,0.2-0.4,0.6-0.5,1.1l-1-0.2c0.1-0.6,0.4-1.1,0.8-1.5c0.4-0.4,0.9-0.5,1.6-0.5c0.4,0,0.8,0.1,1.2,0.3
				c0.4,0.2,0.6,0.4,0.8,0.8c0.2,0.3,0.3,0.7,0.3,1c0,0.3-0.1,0.6-0.3,0.9c-0.2,0.3-0.5,0.5-0.8,0.7c0.5,0.1,0.8,0.3,1.1,0.7
				c0.3,0.3,0.4,0.8,0.4,1.3c0,0.7-0.3,1.3-0.8,1.7s-1.1,0.7-1.9,0.7c-0.7,0-1.3-0.2-1.7-0.6C474.1,743,473.9,742.5,473.8,741.8z"/>
			<path class="st6" d="M483.5,743.9h-1v-6.2c-0.2,0.2-0.5,0.4-0.9,0.7c-0.4,0.2-0.7,0.4-1,0.5V738c0.5-0.3,1-0.6,1.4-0.9
				c0.4-0.4,0.7-0.7,0.9-1.1h0.6V743.9z"/>
			<path class="st6" d="M486.6,743.9v-1.1h1.1v1.1H486.6z"/>
			<path class="st6" d="M489.1,737.1v-0.9h5.1v0.8c-0.5,0.5-1,1.2-1.5,2.1c-0.5,0.9-0.9,1.8-1.1,2.7c-0.2,0.7-0.3,1.4-0.4,2.2h-1
				c0-0.6,0.1-1.4,0.4-2.2s0.6-1.7,1-2.5s0.9-1.5,1.4-2.1H489.1z"/>
			<path class="st6" d="M500.2,738l-1,0.1c-0.1-0.4-0.2-0.7-0.4-0.8c-0.3-0.3-0.6-0.4-1-0.4c-0.3,0-0.6,0.1-0.8,0.3
				c-0.3,0.2-0.5,0.5-0.7,1c-0.2,0.4-0.3,1-0.3,1.8c0.2-0.4,0.5-0.6,0.9-0.8c0.3-0.2,0.7-0.3,1.1-0.3c0.6,0,1.2,0.2,1.6,0.7
				c0.5,0.5,0.7,1.1,0.7,1.8c0,0.5-0.1,1-0.3,1.4c-0.2,0.4-0.5,0.7-0.9,1c-0.4,0.2-0.8,0.3-1.3,0.3c-0.8,0-1.5-0.3-2-0.9
				c-0.5-0.6-0.8-1.6-0.8-2.9c0-1.5,0.3-2.6,0.8-3.3c0.5-0.6,1.2-0.9,2-0.9c0.6,0,1.1,0.2,1.5,0.5
				C499.9,736.9,500.1,737.4,500.2,738z M496.3,741.4c0,0.3,0.1,0.7,0.2,1c0.1,0.3,0.3,0.5,0.6,0.7s0.5,0.2,0.8,0.2
				c0.4,0,0.8-0.2,1.1-0.5c0.3-0.3,0.4-0.8,0.4-1.3c0-0.5-0.1-1-0.4-1.3c-0.3-0.3-0.7-0.5-1.1-0.5c-0.4,0-0.8,0.2-1.1,0.5
				C496.4,740.4,496.3,740.9,496.3,741.4z"/>
			<path class="st6" d="M506.5,746.2c-0.5-0.7-1-1.5-1.4-2.4c-0.4-0.9-0.6-1.8-0.6-2.8c0-0.9,0.1-1.7,0.4-2.4
				c0.3-0.9,0.8-1.8,1.5-2.7h0.7c-0.4,0.7-0.7,1.3-0.9,1.6c-0.2,0.5-0.4,1-0.5,1.5c-0.2,0.7-0.2,1.3-0.2,2c0,1.7,0.5,3.4,1.6,5.2
				H506.5z"/>
			<path class="st6" d="M508,741.9l1-0.1c0.1,0.5,0.2,0.9,0.5,1.1c0.3,0.2,0.6,0.4,1,0.4c0.5,0,0.9-0.2,1.2-0.5s0.5-0.8,0.5-1.4
				c0-0.6-0.2-1-0.5-1.3s-0.7-0.5-1.2-0.5c-0.3,0-0.6,0.1-0.8,0.2c-0.3,0.1-0.4,0.3-0.6,0.5l-0.9-0.1l0.8-4h3.9v0.9h-3.1l-0.4,2.1
				c0.5-0.3,1-0.5,1.5-0.5c0.7,0,1.3,0.2,1.7,0.7s0.7,1.1,0.7,1.8c0,0.7-0.2,1.3-0.6,1.8c-0.5,0.6-1.2,1-2.1,1
				c-0.7,0-1.3-0.2-1.8-0.6C508.3,743,508.1,742.5,508,741.9z"/>
			<path class="st6" d="M517.2,741.8l1-0.1c0.1,0.5,0.3,0.9,0.6,1.2c0.3,0.2,0.6,0.4,1,0.4c0.5,0,0.8-0.2,1.2-0.5
				c0.3-0.3,0.5-0.7,0.5-1.2c0-0.4-0.1-0.8-0.4-1.1s-0.7-0.4-1.1-0.4c-0.2,0-0.4,0-0.7,0.1l0.1-0.8c0.1,0,0.1,0,0.2,0
				c0.4,0,0.8-0.1,1.1-0.3c0.3-0.2,0.5-0.5,0.5-1c0-0.4-0.1-0.6-0.4-0.9c-0.2-0.2-0.5-0.3-0.9-0.3c-0.4,0-0.7,0.1-0.9,0.4
				c-0.3,0.2-0.4,0.6-0.5,1.1l-1-0.2c0.1-0.6,0.4-1.1,0.8-1.5c0.4-0.4,0.9-0.5,1.6-0.5c0.4,0,0.8,0.1,1.2,0.3
				c0.4,0.2,0.6,0.4,0.8,0.8c0.2,0.3,0.3,0.7,0.3,1c0,0.3-0.1,0.6-0.3,0.9c-0.2,0.3-0.5,0.5-0.8,0.7c0.5,0.1,0.8,0.3,1.1,0.7
				c0.3,0.3,0.4,0.8,0.4,1.3c0,0.7-0.3,1.3-0.8,1.7s-1.1,0.7-1.9,0.7c-0.7,0-1.3-0.2-1.7-0.6C517.5,743,517.3,742.5,517.2,741.8z"/>
			<path class="st6" d="M522.8,744l2.3-8.1h0.8l-2.3,8.1H522.8z"/>
			<path class="st6" d="M530,743.9h-1v-6.2c-0.2,0.2-0.5,0.4-0.9,0.7c-0.4,0.2-0.7,0.4-1,0.5V738c0.5-0.3,1-0.6,1.4-0.9
				c0.4-0.4,0.7-0.7,0.9-1.1h0.6V743.9z"/>
			<path class="st6" d="M537.5,738l-1,0.1c-0.1-0.4-0.2-0.7-0.4-0.8c-0.3-0.3-0.6-0.4-1-0.4c-0.3,0-0.6,0.1-0.8,0.3
				c-0.3,0.2-0.5,0.5-0.7,1c-0.2,0.4-0.3,1-0.3,1.8c0.2-0.4,0.5-0.6,0.9-0.8c0.3-0.2,0.7-0.3,1.1-0.3c0.6,0,1.2,0.2,1.6,0.7
				c0.5,0.5,0.7,1.1,0.7,1.8c0,0.5-0.1,1-0.3,1.4c-0.2,0.4-0.5,0.7-0.9,1c-0.4,0.2-0.8,0.3-1.3,0.3c-0.8,0-1.5-0.3-2-0.9
				c-0.5-0.6-0.8-1.6-0.8-2.9c0-1.5,0.3-2.6,0.8-3.3c0.5-0.6,1.2-0.9,2-0.9c0.6,0,1.1,0.2,1.5,0.5
				C537.2,736.9,537.4,737.4,537.5,738z M533.5,741.4c0,0.3,0.1,0.7,0.2,1c0.1,0.3,0.3,0.5,0.6,0.7s0.5,0.2,0.8,0.2
				c0.4,0,0.8-0.2,1.1-0.5c0.3-0.3,0.4-0.8,0.4-1.3c0-0.5-0.1-1-0.4-1.3c-0.3-0.3-0.7-0.5-1.1-0.5c-0.4,0-0.8,0.2-1.1,0.5
				C533.7,740.4,533.5,740.9,533.5,741.4z"/>
			<path class="st6" d="M538.9,738.8l-0.3-1.5V736h1.1v1.3l-0.2,1.5H538.9z M540.7,738.8l-0.3-1.5V736h1.1v1.3l-0.3,1.5H540.7z"/>
		</g>
		<g>
			<path class="st6" d="M543.3,746.2h-0.7c1.1-1.7,1.6-3.4,1.6-5.2c0-0.7-0.1-1.3-0.2-2c-0.1-0.5-0.3-1.1-0.5-1.5
				c-0.1-0.3-0.4-0.9-0.9-1.6h0.7c0.7,0.9,1.2,1.8,1.5,2.7c0.3,0.8,0.4,1.6,0.4,2.4c0,1-0.2,1.9-0.6,2.8
				C544.3,744.8,543.9,745.6,543.3,746.2z"/>
		</g>
		<line class="st61" x1="185.4" y1="750" x2="818.4" y2="750"/>
		<polygon class="st4" points="187.7,753.1 175.2,749.8 187.7,746.5 		"/>
		<polygon class="st4" points="816.1,753.1 828.6,749.8 816.1,746.5 		"/>
		<g>
			<path class="st1" d="M818.1,669.6C813.6,668.6,580,615,580,615s-31.7-6-38.7-43.2c0,0-5-56.4-5-140.7c0-84.3,7.4-155.7,7.4-155.7
				s-0.7-31.5,29.2-38.2l86.4-20.5c0,0,7.1-1.4,6.4-15.5v-83.6c0,0,6.9-56.4-50.1-57.2l-113.2-4.1v0l-0.9,0l-0.9,0v0l-115,4.9
				c-54.7,0.8-48.3,56.4-48.3,56.4l-0.2,89.2c0.2,9.2,9.4,10.6,9.4,10.6l80.3,18.3c34.3,9,31.5,39.7,31.5,39.7s8.4,71.3,8.4,155.7
				c0,84.3-5,140.7-5,140.7c-7,37.2-38.7,43.2-38.7,43.2s-233.6,53.6-238.1,54.6c-4.5,1-10.1,3-11.1,10.4v19.5
				c1,8.4,11.6,11.4,11.6,11.4H498h6.9h312.7c0,0,10.6-3,11.6-11.4V680C828.2,672.6,822.6,670.6,818.1,669.6"/>
			<path class="st61" d="M818.1,669.6C813.6,668.6,580,615,580,615s-31.7-6-38.7-43.2c0,0-5-56.4-5-140.7
				c0-84.3,7.4-155.7,7.4-155.7s-0.7-31.5,29.2-38.2l86.4-20.5c0,0,7.1-1.4,6.4-15.5v-83.6c0,0,6.9-56.4-50.1-57.2l-113.2-4.1v0
				l-0.9,0l-0.9,0v0l-115,4.9c-54.7,0.8-48.3,56.4-48.3,56.4l-0.2,89.2c0.2,9.2,9.4,10.6,9.4,10.6l80.3,18.3
				c34.3,9,31.5,39.7,31.5,39.7s8.4,71.3,8.4,155.7c0,84.3-5,140.7-5,140.7c-7,37.2-38.7,43.2-38.7,43.2s-233.6,53.6-238.1,54.6
				c-4.5,1-10.1,3-11.1,10.4v19.5c1,8.4,11.6,11.4,11.6,11.4H498h6.9h312.7c0,0,10.6-3,11.6-11.4V680
				C828.2,672.6,822.6,670.6,818.1,669.6z"/>
		</g>
		<line class="st61" x1="500.3" y1="253.1" x2="722.9" y2="202.6"/>
		<path class="st62" d="M504.1,597.2l-88.6,19.5 M500.3,253.1l-144.1-33.3 M503.5,597.2l71.2,16.2"/>
		<line class="st61" x1="149.5" y1="253.1" x2="727.6" y2="253.1"/>
		<path class="st61" d="M337.1,183.7l-0.6-172.3 M665.8,183.5V11.4"/>
		<line class="st61" x1="114.6" y1="56.7" x2="858.1" y2="56.7"/>
		<line class="st61" x1="536.2" y1="423.7" x2="638" y2="423.7"/>
		<g>
			<path class="st61" d="M175.2,710.4v48.9 M114.6,710.7h743.5"/>
			<line class="st61" x1="828.6" y1="710.4" x2="828.6" y2="759.2"/>
		</g>
		<line class="st61" x1="741.6" y1="597.3" x2="149.5" y2="597.3"/>
		<line class="st63" x1="500.3" y1="725.7" x2="499.6" y2="42.9"/>
		<g>
			<path class="st4" d="M510.4,725.7V721l-4.3-6.4h1.8l2.2,3.3c0.4,0.6,0.8,1.2,1.1,1.9c0.3-0.6,0.8-1.2,1.2-2l2.1-3.3h1.7l-4.4,6.4
				v4.7H510.4z"/>
			<path class="st4" d="M510.4,54v-4.7l-4.3-6.4h1.8l2.2,3.3c0.4,0.6,0.8,1.2,1.1,1.9c0.3-0.6,0.8-1.2,1.2-2l2.1-3.3h1.7l-4.4,6.4
				V54H510.4z"/>
		</g>
		<line class="st61" x1="127" y1="700.5" x2="127" y2="67.4"/>
		<polygon class="st4" points="130.2,698.2 126.9,710.7 123.5,698.2 		"/>
		<polygon class="st4" points="130.2,69.7 126.9,57.2 123.5,69.7 		"/>
		<line class="st61" x1="161" y1="700.8" x2="161" y2="607.5"/>
		<polygon class="st4" points="164.2,698.5 160.8,711 157.5,698.5 		"/>
		<polygon class="st4" points="164.2,609.8 160.8,597.3 157.5,609.8 		"/>
		<line class="st61" x1="161" y1="587.2" x2="161" y2="263.3"/>
		<polygon class="st4" points="164.2,584.9 160.8,597.3 157.5,584.9 		"/>
		<polygon class="st4" points="164.2,265.5 160.8,253.1 157.5,265.5 		"/>
		<line class="st61" x1="161" y1="242.9" x2="161" y2="67.3"/>
		<polygon class="st4" points="164.2,240.7 160.8,253.1 157.5,240.7 		"/>
		<polygon class="st4" points="164.2,69.6 160.8,57.2 157.5,69.6 		"/>
		<g>
			<path class="st6" d="M150.6,449.3l0.1,1c-0.4,0.1-0.7,0.2-0.8,0.4c-0.3,0.3-0.4,0.6-0.4,1c0,0.3,0.1,0.6,0.3,0.8
				c0.2,0.3,0.5,0.5,1,0.7c0.4,0.2,1,0.3,1.8,0.3c-0.4-0.2-0.6-0.5-0.8-0.9c-0.2-0.3-0.3-0.7-0.3-1.1c0-0.6,0.2-1.2,0.7-1.6
				c0.5-0.5,1.1-0.7,1.8-0.7c0.5,0,1,0.1,1.4,0.3c0.4,0.2,0.7,0.5,1,0.9c0.2,0.4,0.3,0.8,0.3,1.3c0,0.8-0.3,1.5-0.9,2
				c-0.6,0.5-1.6,0.8-2.9,0.8c-1.5,0-2.6-0.3-3.3-0.8c-0.6-0.5-0.9-1.2-0.9-2c0-0.6,0.2-1.1,0.5-1.5
				C149.5,449.6,150,449.3,150.6,449.3z M154,453.2c0.3,0,0.7-0.1,1-0.2c0.3-0.1,0.5-0.3,0.7-0.6c0.2-0.3,0.2-0.5,0.2-0.8
				c0-0.4-0.2-0.8-0.5-1.1c-0.3-0.3-0.8-0.4-1.3-0.4c-0.5,0-1,0.1-1.3,0.4c-0.3,0.3-0.5,0.7-0.5,1.1c0,0.4,0.2,0.8,0.5,1.1
				C153,453.1,153.5,453.2,154,453.2z"/>
			<path class="st6" d="M154.7,448l-0.1-0.9c0.4-0.1,0.8-0.2,1-0.5c0.2-0.2,0.3-0.5,0.3-0.9c0-0.3-0.1-0.6-0.2-0.8s-0.3-0.4-0.5-0.6
				c-0.2-0.1-0.5-0.3-0.9-0.4s-0.8-0.1-1.2-0.1c0,0-0.1,0-0.2,0c0.3,0.2,0.6,0.5,0.7,0.8s0.3,0.7,0.3,1.1c0,0.7-0.2,1.2-0.7,1.7
				c-0.5,0.5-1.1,0.7-1.9,0.7c-0.8,0-1.4-0.2-1.9-0.7s-0.7-1.1-0.7-1.8c0-0.5,0.1-1,0.4-1.4c0.3-0.4,0.7-0.7,1.2-1
				c0.5-0.2,1.2-0.3,2.2-0.3c1,0,1.8,0.1,2.4,0.3c0.6,0.2,1,0.5,1.4,1c0.3,0.4,0.5,0.9,0.5,1.5c0,0.6-0.2,1.1-0.5,1.5
				C155.8,447.7,155.3,447.9,154.7,448z M151.2,444.1c-0.6,0-1,0.1-1.3,0.4c-0.3,0.3-0.5,0.7-0.5,1.1c0,0.4,0.2,0.8,0.5,1.1
				c0.4,0.3,0.8,0.5,1.4,0.5c0.5,0,0.9-0.2,1.2-0.5c0.3-0.3,0.5-0.7,0.5-1.1c0-0.4-0.2-0.8-0.5-1.1
				C152.2,444.2,151.8,444.1,151.2,444.1z"/>
			<path class="st6" d="M156.5,441.5h-1.1v-1.1h1.1V441.5z"/>
			<path class="st6" d="M152.2,437.5c-0.1,0.4-0.4,0.7-0.6,0.9c-0.3,0.2-0.6,0.3-1,0.3c-0.6,0-1.1-0.2-1.4-0.6
				c-0.4-0.4-0.6-1-0.6-1.6c0-0.7,0.2-1.2,0.6-1.7c0.4-0.4,0.9-0.6,1.5-0.6c0.4,0,0.7,0.1,1,0.3c0.3,0.2,0.5,0.5,0.6,0.9
				c0.2-0.5,0.4-0.9,0.8-1.1c0.4-0.3,0.8-0.4,1.3-0.4c0.7,0,1.2,0.2,1.7,0.7c0.5,0.5,0.7,1.1,0.7,1.9c0,0.8-0.2,1.4-0.7,1.9
				c-0.5,0.5-1,0.7-1.7,0.7c-0.5,0-0.9-0.1-1.3-0.4C152.6,438.4,152.4,438,152.2,437.5z M150.6,437.7c0.4,0,0.7-0.1,0.9-0.4
				c0.2-0.2,0.4-0.6,0.4-0.9c0-0.4-0.1-0.7-0.4-0.9c-0.2-0.2-0.5-0.4-0.9-0.4c-0.4,0-0.7,0.1-0.9,0.4s-0.4,0.5-0.4,0.9
				c0,0.4,0.1,0.7,0.4,0.9S150.3,437.7,150.6,437.7z M154.2,438c0.3,0,0.5-0.1,0.8-0.2s0.5-0.3,0.6-0.6s0.2-0.5,0.2-0.8
				c0-0.5-0.1-0.8-0.4-1.1c-0.3-0.3-0.7-0.5-1.1-0.5c-0.5,0-0.9,0.2-1.2,0.5c-0.3,0.3-0.5,0.7-0.5,1.2c0,0.5,0.2,0.8,0.5,1.1
				C153.4,437.9,153.8,438,154.2,438z"/>
			<path class="st6" d="M154.4,432.9l-0.1-1c0.5-0.1,0.9-0.2,1.1-0.5c0.2-0.3,0.4-0.6,0.4-1c0-0.5-0.2-0.9-0.5-1.2s-0.8-0.5-1.4-0.5
				c-0.6,0-1,0.2-1.3,0.5s-0.5,0.7-0.5,1.2c0,0.3,0.1,0.6,0.2,0.8c0.1,0.3,0.3,0.4,0.5,0.6l-0.1,0.9l-4-0.8V428h0.9v3.1l2.1,0.4
				c-0.3-0.5-0.5-1-0.5-1.5c0-0.7,0.2-1.3,0.7-1.7s1.1-0.7,1.8-0.7c0.7,0,1.3,0.2,1.8,0.6c0.6,0.5,1,1.2,1,2.1
				c0,0.7-0.2,1.3-0.6,1.8C155.6,432.6,155.1,432.8,154.4,432.9z"/>
			<path class="st6" d="M158.8,421.6c-0.7,0.5-1.5,1-2.4,1.4c-0.9,0.4-1.8,0.6-2.8,0.6c-0.9,0-1.7-0.1-2.4-0.4
				c-0.9-0.3-1.8-0.8-2.7-1.5v-0.7c0.7,0.4,1.3,0.7,1.6,0.9c0.5,0.2,1,0.4,1.5,0.5c0.7,0.2,1.3,0.2,2,0.2c1.7,0,3.4-0.5,5.2-1.6
				V421.6z"/>
			<path class="st6" d="M155.6,415h0.9v5.2c-0.2,0-0.5,0-0.7-0.1c-0.4-0.1-0.7-0.3-1-0.6c-0.3-0.3-0.7-0.7-1.2-1.3
				c-0.7-0.9-1.3-1.4-1.7-1.7c-0.4-0.3-0.8-0.5-1.2-0.5c-0.4,0-0.7,0.1-1,0.4c-0.3,0.3-0.4,0.6-0.4,1.1c0,0.5,0.1,0.8,0.4,1.1
				s0.7,0.4,1.2,0.4l-0.1,1c-0.7-0.1-1.3-0.3-1.7-0.8c-0.4-0.4-0.6-1-0.6-1.8c0-0.8,0.2-1.4,0.6-1.8c0.4-0.4,0.9-0.7,1.6-0.7
				c0.3,0,0.6,0.1,0.9,0.2c0.3,0.1,0.6,0.3,1,0.6c0.3,0.3,0.8,0.8,1.4,1.5c0.5,0.6,0.8,1,1,1.1c0.2,0.2,0.3,0.3,0.5,0.4V415z"/>
			<path class="st6" d="M154.4,410.9l-0.1-1c0.5-0.1,0.9-0.3,1.2-0.6c0.2-0.3,0.4-0.6,0.4-1c0-0.5-0.2-0.8-0.5-1.2
				c-0.3-0.3-0.7-0.5-1.2-0.5c-0.4,0-0.8,0.1-1.1,0.4s-0.4,0.7-0.4,1.1c0,0.2,0,0.4,0.1,0.7l-0.8-0.1c0-0.1,0-0.1,0-0.2
				c0-0.4-0.1-0.8-0.3-1.1c-0.2-0.3-0.5-0.5-1-0.5c-0.4,0-0.6,0.1-0.9,0.4c-0.2,0.2-0.3,0.5-0.3,0.9c0,0.4,0.1,0.7,0.4,0.9
				c0.2,0.3,0.6,0.4,1.1,0.5l-0.2,1c-0.6-0.1-1.1-0.4-1.5-0.8c-0.4-0.4-0.5-0.9-0.5-1.6c0-0.4,0.1-0.8,0.3-1.2
				c0.2-0.4,0.4-0.6,0.8-0.8s0.7-0.3,1-0.3c0.3,0,0.6,0.1,0.9,0.3s0.5,0.5,0.7,0.8c0.1-0.5,0.3-0.8,0.7-1.1c0.3-0.3,0.8-0.4,1.3-0.4
				c0.7,0,1.3,0.3,1.7,0.8s0.7,1.1,0.7,1.9c0,0.7-0.2,1.3-0.6,1.7C155.6,410.6,155.1,410.8,154.4,410.9z"/>
			<path class="st6" d="M156.6,405.2l-8.1-2.3v-0.8l8.1,2.3V405.2z"/>
			<path class="st6" d="M156.5,398.6h-1.9v3.4h-0.9l-5.1-3.6v-0.8h5.1v-1.1h0.9v1.1h1.9V398.6z M153.7,398.6h-3.5l3.5,2.5V398.6z"/>
			<path class="st6" d="M151.4,393.5l-1.5,0.3h-1.3v-1.1h1.3l1.5,0.3V393.5z M151.4,395.3l-1.5,0.3h-1.3v-1.1h1.3l1.5,0.2V395.3z"/>
			<path class="st6" d="M158.8,390.8v0.7c-1.7-1.1-3.4-1.6-5.2-1.6c-0.7,0-1.3,0.1-2,0.2c-0.5,0.1-1.1,0.3-1.5,0.5
				c-0.3,0.1-0.9,0.4-1.6,0.9v-0.7c0.9-0.7,1.8-1.2,2.7-1.5c0.8-0.3,1.6-0.4,2.4-0.4c1,0,1.9,0.2,2.8,0.6
				C157.4,389.8,158.1,390.3,158.8,390.8z"/>
		</g>
		<g>
			<path class="st6" d="M155.6,681.2h0.9v5.2c-0.2,0-0.5,0-0.7-0.1c-0.4-0.1-0.7-0.3-1-0.6c-0.3-0.3-0.7-0.7-1.2-1.3
				c-0.7-0.9-1.3-1.4-1.7-1.7c-0.4-0.3-0.8-0.5-1.2-0.5c-0.4,0-0.7,0.1-1,0.4c-0.3,0.3-0.4,0.6-0.4,1.1c0,0.5,0.1,0.8,0.4,1.1
				s0.7,0.4,1.2,0.4l-0.1,1c-0.7-0.1-1.3-0.3-1.7-0.8c-0.4-0.4-0.6-1-0.6-1.8c0-0.8,0.2-1.4,0.6-1.8c0.4-0.4,0.9-0.7,1.6-0.7
				c0.3,0,0.6,0.1,0.9,0.2c0.3,0.1,0.6,0.3,1,0.6c0.3,0.3,0.8,0.8,1.4,1.5c0.5,0.6,0.8,1,1,1.1c0.2,0.2,0.3,0.3,0.5,0.4V681.2z"/>
			<path class="st6" d="M155.6,675.1h0.9v5.2c-0.2,0-0.5,0-0.7-0.1c-0.4-0.1-0.7-0.3-1-0.6c-0.3-0.3-0.7-0.7-1.2-1.3
				c-0.7-0.9-1.3-1.4-1.7-1.7c-0.4-0.3-0.8-0.5-1.2-0.5c-0.4,0-0.7,0.1-1,0.4c-0.3,0.3-0.4,0.6-0.4,1.1c0,0.5,0.1,0.8,0.4,1.1
				s0.7,0.4,1.2,0.4l-0.1,1c-0.7-0.1-1.3-0.3-1.7-0.8c-0.4-0.4-0.6-1-0.6-1.8c0-0.8,0.2-1.4,0.6-1.8c0.4-0.4,0.9-0.7,1.6-0.7
				c0.3,0,0.6,0.1,0.9,0.2c0.3,0.1,0.6,0.3,1,0.6c0.3,0.3,0.8,0.8,1.4,1.5c0.5,0.6,0.8,1,1,1.1c0.2,0.2,0.3,0.3,0.5,0.4V675.1z"/>
			<path class="st6" d="M156.5,673.5h-1.1v-1.1h1.1V673.5z"/>
			<path class="st6" d="M150.6,666l0.1,1c-0.4,0.1-0.7,0.2-0.8,0.4c-0.3,0.3-0.4,0.6-0.4,1c0,0.3,0.1,0.6,0.3,0.8
				c0.2,0.3,0.5,0.5,1,0.7c0.4,0.2,1,0.3,1.8,0.3c-0.4-0.2-0.6-0.5-0.8-0.9c-0.2-0.3-0.3-0.7-0.3-1.1c0-0.6,0.2-1.2,0.7-1.6
				c0.5-0.5,1.1-0.7,1.8-0.7c0.5,0,1,0.1,1.4,0.3c0.4,0.2,0.7,0.5,1,0.9c0.2,0.4,0.3,0.8,0.3,1.3c0,0.8-0.3,1.5-0.9,2
				c-0.6,0.5-1.6,0.8-2.9,0.8c-1.5,0-2.6-0.3-3.3-0.8c-0.6-0.5-0.9-1.2-0.9-2c0-0.6,0.2-1.1,0.5-1.5
				C149.5,666.3,150,666.1,150.6,666z M154,670c0.3,0,0.7-0.1,1-0.2c0.3-0.1,0.5-0.3,0.7-0.6c0.2-0.3,0.2-0.5,0.2-0.8
				c0-0.4-0.2-0.8-0.5-1.1c-0.3-0.3-0.8-0.4-1.3-0.4c-0.5,0-1,0.1-1.3,0.4c-0.3,0.3-0.5,0.7-0.5,1.1c0,0.4,0.2,0.8,0.5,1.1
				C153,669.8,153.5,670,154,670z"/>
			<path class="st6" d="M155.6,659.8h0.9v5.2c-0.2,0-0.5,0-0.7-0.1c-0.4-0.1-0.7-0.3-1-0.6c-0.3-0.3-0.7-0.7-1.2-1.3
				c-0.7-0.9-1.3-1.4-1.7-1.7c-0.4-0.3-0.8-0.5-1.2-0.5c-0.4,0-0.7,0.1-1,0.4c-0.3,0.3-0.4,0.6-0.4,1.1c0,0.5,0.1,0.8,0.4,1.1
				s0.7,0.4,1.2,0.4l-0.1,1c-0.7-0.1-1.3-0.3-1.7-0.8c-0.4-0.4-0.6-1-0.6-1.8c0-0.8,0.2-1.4,0.6-1.8c0.4-0.4,0.9-0.7,1.6-0.7
				c0.3,0,0.6,0.1,0.9,0.2c0.3,0.1,0.6,0.3,1,0.6c0.3,0.3,0.8,0.8,1.4,1.5c0.5,0.6,0.8,1,1,1.1c0.2,0.2,0.3,0.3,0.5,0.4V659.8z"/>
			<path class="st6" d="M158.8,653.6c-0.7,0.5-1.5,1-2.4,1.4c-0.9,0.4-1.8,0.6-2.8,0.6c-0.9,0-1.7-0.1-2.4-0.4
				c-0.9-0.3-1.8-0.8-2.7-1.5v-0.7c0.7,0.4,1.3,0.7,1.6,0.9c0.5,0.2,1,0.4,1.5,0.5c0.7,0.2,1.3,0.2,2,0.2c1.7,0,3.4-0.5,5.2-1.6
				V653.6z"/>
			<path class="st6" d="M154.4,652.1l-0.1-1c0.5-0.1,0.9-0.2,1.1-0.5c0.2-0.3,0.4-0.6,0.4-1c0-0.5-0.2-0.9-0.5-1.2s-0.8-0.5-1.4-0.5
				c-0.6,0-1,0.2-1.3,0.5s-0.5,0.7-0.5,1.2c0,0.3,0.1,0.6,0.2,0.8c0.1,0.3,0.3,0.4,0.5,0.6l-0.1,0.9l-4-0.8v-3.9h0.9v3.1l2.1,0.4
				c-0.3-0.5-0.5-1-0.5-1.5c0-0.7,0.2-1.3,0.7-1.7s1.1-0.7,1.8-0.7c0.7,0,1.3,0.2,1.8,0.6c0.6,0.5,1,1.2,1,2.1
				c0,0.7-0.2,1.3-0.6,1.8C155.6,651.8,155.1,652,154.4,652.1z"/>
			<path class="st6" d="M149.7,645.9h-0.9v-5.1h0.8c0.5,0.5,1.2,1,2.1,1.5c0.9,0.5,1.8,0.9,2.7,1.1c0.7,0.2,1.4,0.3,2.2,0.4v1
				c-0.6,0-1.4-0.1-2.2-0.4s-1.7-0.6-2.5-1s-1.5-0.9-2.1-1.4V645.9z"/>
			<path class="st6" d="M156.6,640.3l-8.1-2.3v-0.8l8.1,2.3V640.3z"/>
			<path class="st6" d="M150.6,631.8l0.1,1c-0.4,0.1-0.7,0.2-0.8,0.4c-0.3,0.3-0.4,0.6-0.4,1c0,0.3,0.1,0.6,0.3,0.8
				c0.2,0.3,0.5,0.5,1,0.7c0.4,0.2,1,0.3,1.8,0.3c-0.4-0.2-0.6-0.5-0.8-0.9c-0.2-0.3-0.3-0.7-0.3-1.1c0-0.6,0.2-1.2,0.7-1.6
				c0.5-0.5,1.1-0.7,1.8-0.7c0.5,0,1,0.1,1.4,0.3c0.4,0.2,0.7,0.5,1,0.9c0.2,0.4,0.3,0.8,0.3,1.3c0,0.8-0.3,1.5-0.9,2
				c-0.6,0.5-1.6,0.8-2.9,0.8c-1.5,0-2.6-0.3-3.3-0.8c-0.6-0.5-0.9-1.2-0.9-2c0-0.6,0.2-1.1,0.5-1.5
				C149.5,632.1,150,631.9,150.6,631.8z M154,635.7c0.3,0,0.7-0.1,1-0.2c0.3-0.1,0.5-0.3,0.7-0.6c0.2-0.3,0.2-0.5,0.2-0.8
				c0-0.4-0.2-0.8-0.5-1.1c-0.3-0.3-0.8-0.4-1.3-0.4c-0.5,0-1,0.1-1.3,0.4c-0.3,0.3-0.5,0.7-0.5,1.1c0,0.4,0.2,0.8,0.5,1.1
				C153,635.6,153.5,635.7,154,635.7z"/>
			<path class="st6" d="M156.5,627.6h-1.9v3.4h-0.9l-5.1-3.6v-0.8h5.1v-1.1h0.9v1.1h1.9V627.6z M153.7,627.6h-3.5l3.5,2.5V627.6z"/>
			<path class="st6" d="M151.4,622.5l-1.5,0.3h-1.3v-1.1h1.3l1.5,0.3V622.5z M151.4,624.3l-1.5,0.3h-1.3v-1.1h1.3l1.5,0.2V624.3z"/>
		</g>
		<g>
			<path class="st6" d="M158.8,619.8v0.7c-1.7-1.1-3.4-1.6-5.2-1.6c-0.7,0-1.3,0.1-2,0.2c-0.5,0.1-1.1,0.3-1.5,0.5
				c-0.3,0.1-0.9,0.4-1.6,0.9v-0.7c0.9-0.7,1.8-1.2,2.7-1.5c0.8-0.3,1.6-0.4,2.4-0.4c1,0,1.9,0.2,2.8,0.6
				C157.4,618.8,158.1,619.3,158.8,619.8z"/>
		</g>
		<g>
			<path class="st6" d="M123,419.6v1h-6.2c0.2,0.2,0.4,0.5,0.7,0.9c0.2,0.4,0.4,0.7,0.5,1h-0.9c-0.3-0.5-0.6-1-0.9-1.4
				s-0.7-0.7-1.1-0.9v-0.6H123z"/>
			<path class="st6" d="M120.9,417.2l-0.1-1c0.5-0.1,0.9-0.3,1.2-0.6c0.2-0.3,0.4-0.6,0.4-1c0-0.5-0.2-0.8-0.5-1.2
				c-0.3-0.3-0.7-0.5-1.2-0.5c-0.4,0-0.8,0.1-1.1,0.4s-0.4,0.7-0.4,1.1c0,0.2,0,0.4,0.1,0.7l-0.8-0.1c0-0.1,0-0.1,0-0.2
				c0-0.4-0.1-0.8-0.3-1.1c-0.2-0.3-0.5-0.5-1-0.5c-0.4,0-0.6,0.1-0.9,0.4c-0.2,0.2-0.3,0.5-0.3,0.9c0,0.4,0.1,0.7,0.4,0.9
				c0.2,0.3,0.6,0.4,1.1,0.5l-0.2,1c-0.6-0.1-1.1-0.4-1.5-0.8c-0.4-0.4-0.5-0.9-0.5-1.6c0-0.4,0.1-0.8,0.3-1.2
				c0.2-0.4,0.4-0.6,0.8-0.8s0.7-0.3,1-0.3c0.3,0,0.6,0.1,0.9,0.3s0.5,0.5,0.7,0.8c0.1-0.5,0.3-0.8,0.7-1.1c0.3-0.3,0.8-0.4,1.3-0.4
				c0.7,0,1.3,0.3,1.7,0.8s0.7,1.1,0.7,1.9c0,0.7-0.2,1.3-0.6,1.7C122.1,416.8,121.6,417.1,120.9,417.2z"/>
			<path class="st6" d="M123,407.4v1h-6.2c0.2,0.2,0.4,0.5,0.7,0.9c0.2,0.4,0.4,0.7,0.5,1h-0.9c-0.3-0.5-0.6-1-0.9-1.4
				s-0.7-0.7-1.1-0.9v-0.6H123z"/>
			<path class="st6" d="M123,404.4h-1.1v-1.1h1.1V404.4z"/>
			<path class="st6" d="M116.2,401.8h-0.9v-5.1h0.8c0.5,0.5,1.2,1,2.1,1.5s1.8,0.9,2.7,1.1c0.7,0.2,1.4,0.3,2.2,0.4v1
				c-0.6,0-1.4-0.1-2.2-0.4c-0.9-0.2-1.7-0.6-2.5-1c-0.8-0.4-1.5-0.9-2.1-1.4V401.8z"/>
			<path class="st6" d="M117.1,390.8l0.1,1c-0.4,0.1-0.7,0.2-0.8,0.4c-0.3,0.3-0.4,0.6-0.4,1c0,0.3,0.1,0.6,0.3,0.8
				c0.2,0.3,0.5,0.5,1,0.7s1,0.3,1.8,0.3c-0.4-0.2-0.6-0.5-0.8-0.9c-0.2-0.3-0.3-0.7-0.3-1.1c0-0.6,0.2-1.2,0.7-1.6
				c0.5-0.5,1.1-0.7,1.8-0.7c0.5,0,1,0.1,1.4,0.3c0.4,0.2,0.7,0.5,1,0.9s0.3,0.8,0.3,1.3c0,0.8-0.3,1.5-0.9,2
				c-0.6,0.5-1.6,0.8-2.9,0.8c-1.5,0-2.6-0.3-3.3-0.8c-0.6-0.5-0.9-1.2-0.9-2c0-0.6,0.2-1.1,0.5-1.5
				C116,391.1,116.5,390.8,117.1,390.8z M120.5,394.7c0.3,0,0.7-0.1,1-0.2c0.3-0.1,0.5-0.3,0.7-0.6c0.2-0.3,0.2-0.5,0.2-0.8
				c0-0.4-0.2-0.8-0.5-1.1s-0.8-0.4-1.3-0.4c-0.5,0-1,0.1-1.3,0.4c-0.3,0.3-0.5,0.7-0.5,1.1c0,0.4,0.2,0.8,0.5,1.1
				C119.5,394.5,120,394.7,120.5,394.7z"/>
			<path class="st6" d="M125.3,384.5c-0.7,0.5-1.5,1-2.4,1.4c-0.9,0.4-1.8,0.6-2.8,0.6c-0.9,0-1.7-0.1-2.4-0.4
				c-0.9-0.3-1.8-0.8-2.7-1.5v-0.7c0.7,0.4,1.3,0.7,1.6,0.9c0.5,0.2,1,0.4,1.5,0.5c0.7,0.2,1.3,0.2,2,0.2c1.7,0,3.4-0.5,5.2-1.6
				V384.5z"/>
			<path class="st6" d="M121,382.9l-0.1-1c0.5-0.1,0.9-0.2,1.1-0.5c0.2-0.3,0.4-0.6,0.4-1c0-0.5-0.2-0.9-0.5-1.2
				c-0.4-0.3-0.8-0.5-1.4-0.5c-0.6,0-1,0.2-1.3,0.5s-0.5,0.7-0.5,1.2c0,0.3,0.1,0.6,0.2,0.8s0.3,0.4,0.5,0.6l-0.1,0.9l-4-0.8v-3.9
				h0.9v3.1l2.1,0.4c-0.3-0.5-0.5-1-0.5-1.5c0-0.7,0.2-1.3,0.7-1.7c0.5-0.5,1.1-0.7,1.8-0.7c0.7,0,1.3,0.2,1.8,0.6
				c0.6,0.5,1,1.2,1,2.1c0,0.7-0.2,1.3-0.6,1.8C122.2,382.6,121.6,382.9,121,382.9z"/>
			<path class="st6" d="M120.9,373.8l-0.1-1c0.5-0.1,0.9-0.3,1.2-0.6c0.2-0.3,0.4-0.6,0.4-1c0-0.5-0.2-0.8-0.5-1.2
				c-0.3-0.3-0.7-0.5-1.2-0.5c-0.4,0-0.8,0.1-1.1,0.4c-0.3,0.3-0.4,0.7-0.4,1.1c0,0.2,0,0.4,0.1,0.7l-0.8-0.1c0-0.1,0-0.1,0-0.2
				c0-0.4-0.1-0.8-0.3-1.1s-0.5-0.5-1-0.5c-0.4,0-0.6,0.1-0.9,0.4s-0.3,0.5-0.3,0.9c0,0.4,0.1,0.7,0.4,0.9s0.6,0.4,1.1,0.5l-0.2,1
				c-0.6-0.1-1.1-0.4-1.5-0.8c-0.4-0.4-0.5-0.9-0.5-1.6c0-0.4,0.1-0.8,0.3-1.2c0.2-0.4,0.4-0.6,0.8-0.8s0.7-0.3,1-0.3
				c0.3,0,0.6,0.1,0.9,0.3c0.3,0.2,0.5,0.5,0.7,0.8c0.1-0.5,0.3-0.8,0.7-1.1c0.3-0.3,0.8-0.4,1.3-0.4c0.7,0,1.3,0.3,1.7,0.8
				c0.5,0.5,0.7,1.1,0.7,1.9c0,0.7-0.2,1.3-0.6,1.7C122.1,373.4,121.6,373.7,120.9,373.8z"/>
			<path class="st6" d="M123.2,368.1l-8.1-2.3v-0.8l8.1,2.3V368.1z"/>
			<path class="st6" d="M123,361v1h-6.2c0.2,0.2,0.4,0.5,0.7,0.9c0.2,0.4,0.4,0.7,0.5,1h-0.9c-0.3-0.5-0.6-1-0.9-1.4
				s-0.7-0.7-1.1-0.9V361H123z"/>
			<path class="st6" d="M117.1,353.5l0.1,1c-0.4,0.1-0.7,0.2-0.8,0.4c-0.3,0.3-0.4,0.6-0.4,1c0,0.3,0.1,0.6,0.3,0.8
				c0.2,0.3,0.5,0.5,1,0.7s1,0.3,1.8,0.3c-0.4-0.2-0.6-0.5-0.8-0.9c-0.2-0.3-0.3-0.7-0.3-1.1c0-0.6,0.2-1.2,0.7-1.6
				c0.5-0.5,1.1-0.7,1.8-0.7c0.5,0,1,0.1,1.4,0.3c0.4,0.2,0.7,0.5,1,0.9s0.3,0.8,0.3,1.3c0,0.8-0.3,1.5-0.9,2
				c-0.6,0.5-1.6,0.8-2.9,0.8c-1.5,0-2.6-0.3-3.3-0.8c-0.6-0.5-0.9-1.2-0.9-2c0-0.6,0.2-1.1,0.5-1.5
				C116,353.8,116.5,353.6,117.1,353.5z M120.5,357.4c0.3,0,0.7-0.1,1-0.2c0.3-0.1,0.5-0.3,0.7-0.6c0.2-0.3,0.2-0.5,0.2-0.8
				c0-0.4-0.2-0.8-0.5-1.1s-0.8-0.4-1.3-0.4c-0.5,0-1,0.1-1.3,0.4c-0.3,0.3-0.5,0.7-0.5,1.1c0,0.4,0.2,0.8,0.5,1.1
				C119.5,357.3,120,357.4,120.5,357.4z"/>
			<path class="st6" d="M117.9,350.3l-1.5,0.3h-1.3v-1.1h1.3l1.5,0.3V350.3z M117.9,352.1l-1.5,0.3h-1.3v-1.1h1.3l1.5,0.2V352.1z"/>
		</g>
		<g>
			<path class="st6" d="M125.3,347.6v0.7c-1.7-1.1-3.4-1.6-5.2-1.6c-0.7,0-1.3,0.1-2,0.2c-0.5,0.1-1.1,0.3-1.5,0.5
				c-0.3,0.1-0.9,0.4-1.6,0.9v-0.7c0.9-0.7,1.8-1.2,2.7-1.5c0.8-0.3,1.6-0.4,2.4-0.4c1,0,1.9,0.2,2.8,0.6
				C123.9,346.6,124.7,347.1,125.3,347.6z"/>
		</g>
		<g>
			<path class="st6" d="M154.4,185.5l-0.1-1c0.5-0.1,0.9-0.3,1.2-0.6c0.2-0.3,0.4-0.6,0.4-1c0-0.5-0.2-0.8-0.5-1.2
				c-0.3-0.3-0.7-0.5-1.2-0.5c-0.4,0-0.8,0.1-1.1,0.4c-0.3,0.3-0.4,0.7-0.4,1.1c0,0.2,0,0.4,0.1,0.7l-0.8-0.1c0-0.1,0-0.1,0-0.2
				c0-0.4-0.1-0.8-0.3-1.1s-0.5-0.5-1-0.5c-0.4,0-0.6,0.1-0.9,0.4s-0.3,0.5-0.3,0.9c0,0.4,0.1,0.7,0.4,0.9s0.6,0.4,1.1,0.5l-0.2,1
				c-0.6-0.1-1.1-0.4-1.5-0.8c-0.4-0.4-0.5-0.9-0.5-1.6c0-0.4,0.1-0.8,0.3-1.2c0.2-0.4,0.4-0.6,0.8-0.8s0.7-0.3,1-0.3
				c0.3,0,0.6,0.1,0.9,0.3c0.3,0.2,0.5,0.5,0.7,0.8c0.1-0.5,0.3-0.8,0.7-1.1c0.3-0.3,0.8-0.4,1.3-0.4c0.7,0,1.3,0.3,1.7,0.8
				c0.5,0.5,0.7,1.1,0.7,1.9c0,0.7-0.2,1.3-0.6,1.7C155.6,185.2,155.1,185.4,154.4,185.5z"/>
			<path class="st6" d="M154.7,179.2l-0.1-0.9c0.4-0.1,0.8-0.2,1-0.5c0.2-0.2,0.3-0.5,0.3-0.9c0-0.3-0.1-0.6-0.2-0.8
				c-0.1-0.2-0.3-0.4-0.5-0.5c-0.2-0.1-0.5-0.3-0.9-0.4s-0.8-0.1-1.2-0.1c0,0-0.1,0-0.2,0c0.3,0.2,0.6,0.5,0.7,0.8
				c0.2,0.3,0.3,0.7,0.3,1.1c0,0.7-0.2,1.2-0.7,1.7c-0.5,0.5-1.1,0.7-1.9,0.7c-0.8,0-1.4-0.2-1.9-0.7s-0.7-1.1-0.7-1.8
				c0-0.5,0.1-1,0.4-1.4c0.3-0.4,0.7-0.7,1.2-1c0.5-0.2,1.2-0.3,2.2-0.3c1,0,1.8,0.1,2.4,0.3c0.6,0.2,1,0.5,1.4,1
				c0.3,0.4,0.5,0.9,0.5,1.5c0,0.6-0.2,1.1-0.5,1.5C155.8,178.9,155.3,179.2,154.7,179.2z M151.2,175.3c-0.6,0-1,0.1-1.3,0.4
				c-0.3,0.3-0.5,0.7-0.5,1.1c0,0.4,0.2,0.8,0.5,1.1c0.4,0.3,0.8,0.5,1.4,0.5c0.5,0,0.9-0.2,1.2-0.5c0.3-0.3,0.5-0.7,0.5-1.1
				c0-0.4-0.2-0.8-0.5-1.1S151.8,175.3,151.2,175.3z"/>
			<path class="st6" d="M156.5,172.7h-1.1v-1.1h1.1V172.7z"/>
			<path class="st6" d="M155.6,165.1h0.9v5.2c-0.2,0-0.5,0-0.7-0.1c-0.4-0.1-0.7-0.3-1-0.6c-0.3-0.3-0.7-0.7-1.2-1.3
				c-0.7-0.9-1.3-1.4-1.7-1.7c-0.4-0.3-0.8-0.5-1.2-0.5c-0.4,0-0.7,0.1-1,0.4c-0.3,0.3-0.4,0.6-0.4,1.1c0,0.5,0.1,0.8,0.4,1.1
				s0.7,0.4,1.2,0.4l-0.1,1c-0.7-0.1-1.3-0.3-1.7-0.8c-0.4-0.4-0.6-1-0.6-1.8c0-0.8,0.2-1.4,0.6-1.8c0.4-0.4,0.9-0.7,1.6-0.7
				c0.3,0,0.6,0.1,0.9,0.2c0.3,0.1,0.6,0.3,1,0.6c0.3,0.3,0.8,0.8,1.4,1.5c0.5,0.6,0.8,1,1,1.1s0.3,0.3,0.5,0.4V165.1z"/>
			<path class="st6" d="M154.7,163.9l-0.1-0.9c0.4-0.1,0.8-0.2,1-0.5c0.2-0.2,0.3-0.5,0.3-0.9c0-0.3-0.1-0.6-0.2-0.8
				c-0.1-0.2-0.3-0.4-0.5-0.5c-0.2-0.1-0.5-0.3-0.9-0.4s-0.8-0.1-1.2-0.1c0,0-0.1,0-0.2,0c0.3,0.2,0.6,0.5,0.7,0.8
				c0.2,0.3,0.3,0.7,0.3,1.1c0,0.7-0.2,1.2-0.7,1.7c-0.5,0.5-1.1,0.7-1.9,0.7c-0.8,0-1.4-0.2-1.9-0.7s-0.7-1.1-0.7-1.8
				c0-0.5,0.1-1,0.4-1.4c0.3-0.4,0.7-0.7,1.2-1c0.5-0.2,1.2-0.3,2.2-0.3c1,0,1.8,0.1,2.4,0.3c0.6,0.2,1,0.5,1.4,1
				c0.3,0.4,0.5,0.9,0.5,1.5c0,0.6-0.2,1.1-0.5,1.5C155.8,163.6,155.3,163.9,154.7,163.9z M151.2,160c-0.6,0-1,0.1-1.3,0.4
				c-0.3,0.3-0.5,0.7-0.5,1.1c0,0.4,0.2,0.8,0.5,1.1c0.4,0.3,0.8,0.5,1.4,0.5c0.5,0,0.9-0.2,1.2-0.5c0.3-0.3,0.5-0.7,0.5-1.1
				c0-0.4-0.2-0.8-0.5-1.1S151.8,160,151.2,160z"/>
			<path class="st6" d="M158.8,152.8c-0.7,0.5-1.5,1-2.4,1.4c-0.9,0.4-1.8,0.6-2.8,0.6c-0.9,0-1.7-0.1-2.4-0.4
				c-0.9-0.3-1.8-0.8-2.7-1.5v-0.7c0.7,0.4,1.3,0.7,1.6,0.9c0.5,0.2,1,0.4,1.5,0.5c0.7,0.2,1.3,0.2,2,0.2c1.7,0,3.4-0.5,5.2-1.6
				V152.8z"/>
			<path class="st6" d="M154.4,151.3l-0.1-1c0.5-0.1,0.9-0.3,1.2-0.6c0.2-0.3,0.4-0.6,0.4-1c0-0.5-0.2-0.8-0.5-1.2
				c-0.3-0.3-0.7-0.5-1.2-0.5c-0.4,0-0.8,0.1-1.1,0.4c-0.3,0.3-0.4,0.7-0.4,1.1c0,0.2,0,0.4,0.1,0.7l-0.8-0.1c0-0.1,0-0.1,0-0.2
				c0-0.4-0.1-0.8-0.3-1.1s-0.5-0.5-1-0.5c-0.4,0-0.6,0.1-0.9,0.4s-0.3,0.5-0.3,0.9c0,0.4,0.1,0.7,0.4,0.9s0.6,0.4,1.1,0.5l-0.2,1
				c-0.6-0.1-1.1-0.4-1.5-0.8c-0.4-0.4-0.5-0.9-0.5-1.6c0-0.4,0.1-0.8,0.3-1.2c0.2-0.4,0.4-0.6,0.8-0.8s0.7-0.3,1-0.3
				c0.3,0,0.6,0.1,0.9,0.3c0.3,0.2,0.5,0.5,0.7,0.8c0.1-0.5,0.3-0.8,0.7-1.1c0.3-0.3,0.8-0.4,1.3-0.4c0.7,0,1.3,0.3,1.7,0.8
				c0.5,0.5,0.7,1.1,0.7,1.9c0,0.7-0.2,1.3-0.6,1.7C155.6,150.9,155.1,151.2,154.4,151.3z"/>
			<path class="st6" d="M154.4,145.1l-0.1-1c0.5-0.1,0.9-0.2,1.1-0.5c0.2-0.3,0.4-0.6,0.4-1c0-0.5-0.2-0.9-0.5-1.2
				c-0.4-0.3-0.8-0.5-1.4-0.5c-0.6,0-1,0.2-1.3,0.5s-0.5,0.7-0.5,1.2c0,0.3,0.1,0.6,0.2,0.8s0.3,0.4,0.5,0.6l-0.1,0.9l-4-0.8v-3.9
				h0.9v3.1l2.1,0.4c-0.3-0.5-0.5-1-0.5-1.5c0-0.7,0.2-1.3,0.7-1.7c0.5-0.5,1.1-0.7,1.8-0.7c0.7,0,1.3,0.2,1.8,0.6
				c0.6,0.5,1,1.2,1,2.1c0,0.7-0.2,1.3-0.6,1.8C155.6,144.8,155.1,145.1,154.4,145.1z"/>
			<path class="st6" d="M156.6,139.5l-8.1-2.3v-0.8l8.1,2.3V139.5z"/>
			<path class="st6" d="M150.6,131l0.1,1c-0.4,0.1-0.7,0.2-0.8,0.4c-0.3,0.3-0.4,0.6-0.4,1c0,0.3,0.1,0.6,0.3,0.8
				c0.2,0.3,0.5,0.5,1,0.7s1,0.3,1.8,0.3c-0.4-0.2-0.6-0.5-0.8-0.9c-0.2-0.3-0.3-0.7-0.3-1.1c0-0.6,0.2-1.2,0.7-1.6
				c0.5-0.5,1.1-0.7,1.8-0.7c0.5,0,1,0.1,1.4,0.3c0.4,0.2,0.7,0.5,1,0.9s0.3,0.8,0.3,1.3c0,0.8-0.3,1.5-0.9,2
				c-0.6,0.5-1.6,0.8-2.9,0.8c-1.5,0-2.6-0.3-3.3-0.8c-0.6-0.5-0.9-1.2-0.9-2c0-0.6,0.2-1.1,0.5-1.5C149.5,131.3,150,131,150.6,131z
				 M154,134.9c0.3,0,0.7-0.1,1-0.2c0.3-0.1,0.5-0.3,0.7-0.6c0.2-0.3,0.2-0.5,0.2-0.8c0-0.4-0.2-0.8-0.5-1.1s-0.8-0.4-1.3-0.4
				c-0.5,0-1,0.1-1.3,0.4c-0.3,0.3-0.5,0.7-0.5,1.1c0,0.4,0.2,0.8,0.5,1.1C153,134.8,153.5,134.9,154,134.9z"/>
			<path class="st6" d="M156.5,126.8h-1.9v3.4h-0.9l-5.1-3.6v-0.8h5.1v-1.1h0.9v1.1h1.9V126.8z M153.7,126.8h-3.5l3.5,2.5V126.8z"/>
			<path class="st6" d="M151.4,121.7l-1.5,0.3h-1.3v-1.1h1.3l1.5,0.3V121.7z M151.4,123.4l-1.5,0.3h-1.3v-1.1h1.3l1.5,0.2V123.4z"/>
		</g>
		<g>
			<path class="st6" d="M158.8,119v0.7c-1.7-1.1-3.4-1.6-5.2-1.6c-0.7,0-1.3,0.1-2,0.2c-0.5,0.1-1.1,0.3-1.5,0.5
				c-0.3,0.1-0.9,0.4-1.6,0.9V119c0.9-0.7,1.8-1.2,2.7-1.5c0.8-0.3,1.6-0.4,2.4-0.4c1,0,1.9,0.2,2.8,0.6
				C157.4,118,158.1,118.5,158.8,119z"/>
		</g>
		<g>
			<path class="st6" d="M864.1,405.6l4.2-5.7l-3.7-5.2h1.7l2,2.8c0.4,0.6,0.7,1,0.9,1.3c0.2-0.4,0.5-0.8,0.9-1.2l2.2-2.9h1.6
				l-3.8,5.2l4.1,5.8h-1.8l-2.8-3.9c-0.2-0.2-0.3-0.5-0.5-0.7c-0.2,0.4-0.4,0.7-0.5,0.8l-2.7,3.8H864.1z"/>
			<path class="st6" d="M297.3,407.4l4.2-5.7l-3.7-5.2h1.7l2,2.8c0.4,0.6,0.7,1,0.9,1.3c0.2-0.4,0.5-0.8,0.9-1.2l2.2-2.9h1.6
				l-3.8,5.2l4.1,5.8h-1.8l-2.8-3.9c-0.2-0.2-0.3-0.5-0.5-0.7c-0.2,0.4-0.4,0.7-0.5,0.8l-2.7,3.8H297.3z"/>
		</g>
		<line class="st64" x1="857.5" y1="400" x2="319.2" y2="400"/>
		<g>
			<path class="st6" d="M575.1,265.4l6.1-4.9l2.2,2.7c0.4,0.5,0.7,1,0.8,1.4c0.1,0.4,0.1,0.8,0,1.2c-0.1,0.4-0.4,0.7-0.7,1
				c-0.4,0.4-0.9,0.5-1.4,0.5c-0.5,0-1.1-0.3-1.6-0.8c0.1,0.3,0.1,0.5,0.1,0.7c0,0.4-0.1,0.9-0.3,1.3l-0.8,2.4l-0.8-1l0.6-1.8
				c0.2-0.5,0.3-1,0.4-1.3c0.1-0.3,0.1-0.6,0.1-0.7c0-0.2-0.1-0.4-0.1-0.5c-0.1-0.1-0.2-0.3-0.3-0.5l-0.8-0.9l-2.7,2.2L575.1,265.4z
				 M579.2,263.4l1.4,1.7c0.3,0.4,0.6,0.6,0.8,0.8c0.2,0.1,0.5,0.2,0.8,0.2c0.3,0,0.5-0.1,0.7-0.3c0.3-0.2,0.4-0.5,0.5-0.9
				c0-0.4-0.2-0.8-0.5-1.2l-1.6-1.9L579.2,263.4z"/>
		</g>
		<g>
			<path class="st6" d="M587.6,271.4l-0.7-0.7c0.2-0.3,0.4-0.6,0.4-0.8c0-0.4,0-0.7-0.3-1c-0.2-0.2-0.4-0.4-0.7-0.5
				c-0.4-0.1-0.8-0.1-1.2,0.1c-0.4,0.1-1,0.4-1.6,0.9c0.4,0,0.8,0,1.2,0.2c0.3,0.2,0.6,0.4,0.9,0.7c0.4,0.5,0.6,1.1,0.5,1.7
				s-0.4,1.2-1,1.7c-0.4,0.3-0.8,0.5-1.3,0.6c-0.5,0.1-0.9,0.1-1.3-0.1c-0.4-0.1-0.8-0.4-1.1-0.8c-0.5-0.6-0.7-1.3-0.5-2.1
				c0.1-0.8,0.7-1.6,1.8-2.4c1.2-1,2.2-1.4,3.1-1.4c0.8,0,1.4,0.3,1.9,1c0.4,0.5,0.6,1,0.6,1.5C588.2,270.5,588,270.9,587.6,271.4z
				 M582.5,270.5c-0.3,0.2-0.5,0.5-0.6,0.8c-0.1,0.3-0.2,0.6-0.2,0.9c0,0.3,0.1,0.6,0.3,0.8c0.3,0.3,0.6,0.5,1,0.5
				c0.4,0,0.9-0.1,1.3-0.5c0.4-0.3,0.7-0.7,0.7-1.1c0.1-0.4,0-0.8-0.3-1.1c-0.3-0.3-0.6-0.5-1.1-0.6
				C583.3,270,582.9,270.1,582.5,270.5z"/>
		</g>
		<g>
			<path class="st6" d="M584,276.4l0.9-0.7l0.7,0.9l-0.9,0.7L584,276.4z"/>
		</g>
		<g>
			<path class="st6" d="M587.2,277.1l0.7,0.7c-0.4,0.4-0.5,0.8-0.6,1.2c0,0.4,0.1,0.7,0.3,1c0.3,0.4,0.6,0.6,1.1,0.6
				c0.4,0,0.8-0.1,1.2-0.4c0.3-0.3,0.5-0.6,0.6-1c0-0.4-0.1-0.8-0.4-1.1c-0.1-0.1-0.3-0.3-0.5-0.5l0.7-0.5c0,0.1,0.1,0.1,0.1,0.1
				c0.3,0.3,0.6,0.5,0.9,0.7c0.4,0.1,0.7,0,1.1-0.2c0.3-0.2,0.4-0.5,0.5-0.8c0-0.3-0.1-0.6-0.3-0.9c-0.2-0.3-0.5-0.5-0.9-0.5
				c-0.3,0-0.7,0-1.1,0.3l-0.5-0.9c0.6-0.3,1.1-0.4,1.7-0.3c0.5,0.1,1,0.4,1.4,0.9c0.3,0.3,0.4,0.7,0.5,1.1c0.1,0.4,0.1,0.8-0.1,1.1
				c-0.1,0.3-0.3,0.6-0.6,0.9c-0.3,0.2-0.6,0.3-0.9,0.4s-0.7,0-1-0.2c0.2,0.4,0.3,0.9,0.2,1.3c-0.1,0.4-0.4,0.8-0.7,1.1
				c-0.5,0.4-1.1,0.6-1.8,0.5c-0.7-0.1-1.3-0.4-1.8-1c-0.4-0.5-0.6-1.1-0.6-1.7C586.5,278.1,586.7,277.5,587.2,277.1z"/>
		</g>
		<g>
			<path class="st6" d="M591,281.8l0.7,0.7c-0.3,0.4-0.5,0.7-0.5,1.1c0,0.4,0.1,0.7,0.3,1c0.3,0.4,0.7,0.6,1.2,0.6
				c0.5,0,0.9-0.1,1.4-0.5c0.4-0.3,0.7-0.7,0.7-1.2c0.1-0.4-0.1-0.9-0.4-1.2c-0.2-0.2-0.4-0.4-0.7-0.5c-0.3-0.1-0.5-0.1-0.8-0.1
				l-0.5-0.8l3.6-1.9l2.5,3l-0.7,0.6l-2-2.4l-1.9,1c0.6,0.2,1,0.4,1.3,0.8c0.4,0.5,0.6,1.1,0.5,1.8c-0.1,0.7-0.4,1.2-1,1.7
				c-0.6,0.4-1.2,0.7-1.8,0.7c-0.8,0-1.5-0.3-2-1c-0.5-0.6-0.7-1.1-0.6-1.7C590.3,282.8,590.5,282.3,591,281.8z"/>
		</g>
		<g>
			<path class="st6" d="M594.7,293.3c0.2-0.8,0.5-1.7,1-2.5c0.5-0.9,1.1-1.6,1.8-2.2c0.7-0.5,1.4-0.9,2.2-1.2c0.9-0.3,1.9-0.5,3-0.5
				l0.4,0.5c-0.9,0.1-1.4,0.2-1.8,0.3c-0.5,0.1-1,0.3-1.5,0.6c-0.6,0.3-1.2,0.7-1.7,1.1c-1.3,1.1-2.3,2.6-3,4.5L594.7,293.3z"/>
		</g>
		<g>
			<path class="st6" d="M599.8,295.9l-0.6-0.8l4.8-3.9c-0.3,0-0.7-0.1-1.1-0.3c-0.4-0.2-0.8-0.3-1-0.5l0.7-0.6
				c0.5,0.3,1.1,0.4,1.6,0.5c0.5,0.1,1,0.1,1.4,0l0.4,0.5L599.8,295.9z"/>
		</g>
		<g>
			<path class="st6" d="M600.9,297.6l7.8-3.3l0.5,0.6l-7.8,3.3L600.9,297.6z"/>
		</g>
		<g>
			<path class="st6" d="M605.2,302.6l1.5-1.2l-2.1-2.7l0.7-0.6l6.2-0.4l0.5,0.6l-4,3.2l0.7,0.8l-0.7,0.6l-0.7-0.8l-1.5,1.2
				L605.2,302.6z M607.3,300.9l2.8-2.2l-4.3,0.3L607.3,300.9z"/>
		</g>
		<g>
			<path class="st6" d="M611.2,302l1-1.1l1-0.8l0.7,0.9l-1,0.8l-1.3,0.8L611.2,302z M612.3,303.4l1-1.1l1-0.8l0.7,0.9l-1,0.8
				l-1.3,0.7L612.3,303.4z"/>
		</g>
		<g>
			<path class="st6" d="M608.3,310.2l-0.4-0.5c2-0.2,3.7-0.9,5-2c0.5-0.4,1-0.9,1.4-1.4c0.3-0.4,0.6-0.9,0.9-1.4
				c0.2-0.3,0.4-0.9,0.7-1.7l0.4,0.5c-0.3,1.1-0.7,2-1.2,2.9c-0.4,0.7-1,1.3-1.6,1.9c-0.8,0.6-1.6,1.1-2.5,1.3
				C610,310,609.2,310.2,608.3,310.2z"/>
		</g>
		<line class="st65" x1="561.5" y1="257.5" x2="607.1" y2="313.9"/>
		<polygon class="st6" points="560.3,262 554,247.9 566.4,257 		"/>
		<g>
			<path class="st61" d="M730,644.7c0,0,9.2-9.9,9.2-20.5c0-12.9-5.9-20.8-5.9-20.8"/>
		</g>
		<polygon class="st6" points="738,639.8 727.1,648.6 731.9,635.5 		"/>
		<polygon class="st6" points="733.5,610.6 727.5,597.9 739.1,605.7 		"/>
		<line class="st66" x1="346.4" y1="21.6" x2="655.9" y2="21.6"/>
		<polygon class="st4" points="348.6,24.8 336.4,21.5 348.6,18.3 		"/>
		<polygon class="st4" points="653.6,24.8 665.8,21.5 653.6,18.3 		"/>
		<g>
			<path class="st6" d="M474.4,11.3l-1,0.1c-0.1-0.4-0.2-0.7-0.4-0.8c-0.3-0.3-0.6-0.4-1-0.4c-0.3,0-0.6,0.1-0.8,0.3
				c-0.3,0.2-0.5,0.5-0.7,1c-0.2,0.4-0.3,1-0.3,1.8c0.2-0.4,0.5-0.6,0.9-0.8c0.3-0.2,0.7-0.3,1.1-0.3c0.6,0,1.2,0.2,1.6,0.7
				c0.5,0.5,0.7,1.1,0.7,1.8c0,0.5-0.1,1-0.3,1.4c-0.2,0.4-0.5,0.7-0.9,1c-0.4,0.2-0.8,0.3-1.3,0.3c-0.8,0-1.5-0.3-2-0.9
				c-0.5-0.6-0.8-1.6-0.8-2.9c0-1.5,0.3-2.6,0.8-3.3c0.5-0.6,1.2-0.9,2-0.9c0.6,0,1.1,0.2,1.5,0.5S474.3,10.6,474.4,11.3z
				 M470.5,14.6c0,0.3,0.1,0.7,0.2,1s0.3,0.5,0.6,0.7c0.3,0.2,0.5,0.2,0.8,0.2c0.4,0,0.8-0.2,1.1-0.5c0.3-0.3,0.4-0.8,0.4-1.3
				c0-0.5-0.1-1-0.4-1.3c-0.3-0.3-0.7-0.5-1.1-0.5c-0.4,0-0.8,0.2-1.1,0.5C470.6,13.7,470.5,14.1,470.5,14.6z"/>
			<path class="st6" d="M475.5,15.1l1-0.1c0.1,0.5,0.2,0.9,0.5,1.1c0.3,0.2,0.6,0.4,1,0.4c0.5,0,0.9-0.2,1.2-0.5
				c0.3-0.4,0.5-0.8,0.5-1.4c0-0.6-0.2-1-0.5-1.3c-0.3-0.3-0.7-0.5-1.2-0.5c-0.3,0-0.6,0.1-0.8,0.2c-0.3,0.1-0.4,0.3-0.6,0.6
				l-0.9-0.1l0.8-4h3.9v0.9h-3.1l-0.4,2.1c0.5-0.3,1-0.5,1.5-0.5c0.7,0,1.3,0.2,1.7,0.7s0.7,1.1,0.7,1.8c0,0.7-0.2,1.3-0.6,1.8
				c-0.5,0.6-1.2,1-2.1,1c-0.7,0-1.3-0.2-1.8-0.6C475.8,16.3,475.6,15.8,475.5,15.1z"/>
			<path class="st6" d="M482.2,17.2v-1.1h1.1v1.1H482.2z"/>
			<path class="st6" d="M484.7,13.3c0-0.9,0.1-1.7,0.3-2.2c0.2-0.6,0.5-1,0.9-1.3c0.4-0.3,0.9-0.5,1.4-0.5c0.4,0,0.8,0.1,1.1,0.3
				s0.6,0.4,0.8,0.7c0.2,0.3,0.4,0.7,0.5,1.2s0.2,1.1,0.2,1.9c0,0.9-0.1,1.7-0.3,2.2c-0.2,0.6-0.5,1-0.9,1.3
				c-0.4,0.3-0.9,0.5-1.4,0.5c-0.8,0-1.4-0.3-1.8-0.8C484.9,15.9,484.7,14.8,484.7,13.3z M485.7,13.3c0,1.3,0.2,2.2,0.5,2.6
				c0.3,0.4,0.7,0.6,1.1,0.6c0.4,0,0.8-0.2,1.1-0.6c0.3-0.4,0.5-1.3,0.5-2.6c0-1.3-0.2-2.2-0.5-2.6s-0.7-0.6-1.1-0.6
				c-0.4,0-0.8,0.2-1.1,0.6C485.8,11.1,485.7,12,485.7,13.3z"/>
			<path class="st6" d="M490.9,15.4l0.9-0.1c0.1,0.4,0.2,0.8,0.5,1c0.2,0.2,0.5,0.3,0.9,0.3c0.3,0,0.6-0.1,0.8-0.2s0.4-0.3,0.6-0.5
				c0.1-0.2,0.3-0.5,0.4-0.9c0.1-0.4,0.1-0.8,0.1-1.2c0,0,0-0.1,0-0.2c-0.2,0.3-0.5,0.6-0.8,0.7s-0.7,0.3-1.1,0.3
				c-0.7,0-1.2-0.2-1.7-0.7c-0.5-0.5-0.7-1.1-0.7-1.9c0-0.8,0.2-1.4,0.7-1.9s1.1-0.7,1.8-0.7c0.5,0,1,0.1,1.4,0.4
				c0.4,0.3,0.7,0.7,1,1.2c0.2,0.5,0.3,1.2,0.3,2.2c0,1-0.1,1.8-0.3,2.4c-0.2,0.6-0.5,1-1,1.4c-0.4,0.3-0.9,0.5-1.5,0.5
				c-0.6,0-1.1-0.2-1.5-0.5C491.3,16.5,491,16,490.9,15.4z M494.9,11.9c0-0.6-0.1-1-0.4-1.3c-0.3-0.3-0.7-0.5-1.1-0.5
				c-0.4,0-0.8,0.2-1.1,0.5c-0.3,0.4-0.5,0.8-0.5,1.4c0,0.5,0.2,0.9,0.5,1.2c0.3,0.3,0.7,0.5,1.1,0.5c0.4,0,0.8-0.2,1.1-0.5
				C494.8,12.9,494.9,12.5,494.9,11.9z"/>
			<path class="st6" d="M502.1,19.5c-0.5-0.7-1-1.5-1.4-2.4c-0.4-0.9-0.6-1.8-0.6-2.8c0-0.9,0.1-1.7,0.4-2.4
				c0.3-0.9,0.8-1.8,1.5-2.7h0.7c-0.4,0.7-0.7,1.3-0.9,1.6c-0.2,0.5-0.4,1-0.5,1.5c-0.2,0.7-0.2,1.3-0.2,2c0,1.7,0.5,3.4,1.6,5.2
				H502.1z"/>
			<path class="st6" d="M508.7,16.3v0.9h-5.2c0-0.2,0-0.5,0.1-0.7c0.1-0.4,0.3-0.7,0.6-1c0.3-0.3,0.7-0.7,1.3-1.2
				c0.9-0.7,1.4-1.3,1.7-1.7c0.3-0.4,0.5-0.8,0.5-1.2c0-0.4-0.1-0.7-0.4-1s-0.6-0.4-1.1-0.4c-0.5,0-0.8,0.1-1.1,0.4
				c-0.3,0.3-0.4,0.7-0.4,1.2l-1-0.1c0.1-0.7,0.3-1.3,0.8-1.7c0.4-0.4,1-0.6,1.8-0.6c0.8,0,1.4,0.2,1.8,0.6c0.4,0.4,0.7,0.9,0.7,1.6
				c0,0.3-0.1,0.6-0.2,0.9s-0.3,0.6-0.6,1s-0.8,0.8-1.5,1.4c-0.6,0.5-1,0.8-1.1,1c-0.2,0.2-0.3,0.3-0.4,0.5H508.7z"/>
			<path class="st6" d="M512.9,15.4l0.9-0.1c0.1,0.4,0.2,0.8,0.5,1c0.2,0.2,0.5,0.3,0.9,0.3c0.3,0,0.6-0.1,0.8-0.2s0.4-0.3,0.6-0.5
				c0.1-0.2,0.3-0.5,0.4-0.9c0.1-0.4,0.1-0.8,0.1-1.2c0,0,0-0.1,0-0.2c-0.2,0.3-0.5,0.6-0.8,0.7s-0.7,0.3-1.1,0.3
				c-0.7,0-1.2-0.2-1.7-0.7c-0.5-0.5-0.7-1.1-0.7-1.9c0-0.8,0.2-1.4,0.7-1.9s1.1-0.7,1.8-0.7c0.5,0,1,0.1,1.4,0.4
				c0.4,0.3,0.7,0.7,1,1.2c0.2,0.5,0.3,1.2,0.3,2.2c0,1-0.1,1.8-0.3,2.4c-0.2,0.6-0.5,1-1,1.4c-0.4,0.3-0.9,0.5-1.5,0.5
				c-0.6,0-1.1-0.2-1.5-0.5C513.3,16.5,513,16,512.9,15.4z M516.9,11.9c0-0.6-0.1-1-0.4-1.3c-0.3-0.3-0.7-0.5-1.1-0.5
				c-0.4,0-0.8,0.2-1.1,0.5c-0.3,0.4-0.5,0.8-0.5,1.4c0,0.5,0.2,0.9,0.5,1.2c0.3,0.3,0.7,0.5,1.1,0.5c0.4,0,0.8-0.2,1.1-0.5
				C516.8,12.9,516.9,12.5,516.9,11.9z"/>
			<path class="st6" d="M518.5,17.3l2.3-8.1h0.8l-2.3,8.1H518.5z"/>
			<path class="st6" d="M525.6,17.2h-1V11c-0.2,0.2-0.5,0.4-0.9,0.7c-0.4,0.2-0.7,0.4-1,0.5v-0.9c0.5-0.3,1-0.6,1.4-0.9
				c0.4-0.4,0.7-0.7,0.9-1.1h0.6V17.2z"/>
			<path class="st6" d="M533.1,11.3l-1,0.1c-0.1-0.4-0.2-0.7-0.4-0.8c-0.3-0.3-0.6-0.4-1-0.4c-0.3,0-0.6,0.1-0.8,0.3
				c-0.3,0.2-0.5,0.5-0.7,1c-0.2,0.4-0.3,1-0.3,1.8c0.2-0.4,0.5-0.6,0.9-0.8c0.3-0.2,0.7-0.3,1.1-0.3c0.6,0,1.2,0.2,1.6,0.7
				c0.5,0.5,0.7,1.1,0.7,1.8c0,0.5-0.1,1-0.3,1.4c-0.2,0.4-0.5,0.7-0.9,1c-0.4,0.2-0.8,0.3-1.3,0.3c-0.8,0-1.5-0.3-2-0.9
				c-0.5-0.6-0.8-1.6-0.8-2.9c0-1.5,0.3-2.6,0.8-3.3c0.5-0.6,1.2-0.9,2-0.9c0.6,0,1.1,0.2,1.5,0.5S533,10.6,533.1,11.3z M529.2,14.6
				c0,0.3,0.1,0.7,0.2,1s0.3,0.5,0.6,0.7c0.3,0.2,0.5,0.2,0.8,0.2c0.4,0,0.8-0.2,1.1-0.5c0.3-0.3,0.4-0.8,0.4-1.3
				c0-0.5-0.1-1-0.4-1.3c-0.3-0.3-0.7-0.5-1.1-0.5c-0.4,0-0.8,0.2-1.1,0.5C529.3,13.7,529.2,14.1,529.2,14.6z"/>
			<path class="st6" d="M534.5,12.1l-0.3-1.5V9.3h1.1v1.3l-0.2,1.5H534.5z M536.3,12.1l-0.3-1.5V9.3h1.1v1.3l-0.3,1.5H536.3z"/>
		</g>
		<g>
			<path class="st6" d="M539,19.5h-0.7c1.1-1.7,1.6-3.4,1.6-5.2c0-0.7-0.1-1.3-0.2-2c-0.1-0.5-0.3-1.1-0.5-1.5
				c-0.1-0.3-0.4-0.9-0.9-1.6h0.7c0.7,0.9,1.2,1.8,1.5,2.7c0.3,0.8,0.4,1.6,0.4,2.4c0,1-0.2,1.9-0.6,2.8
				C539.9,18,539.5,18.8,539,19.5z"/>
		</g>
		<g>
			<path class="st6" d="M720.1,232.3h-1v-6.2c-0.2,0.2-0.5,0.4-0.9,0.7c-0.4,0.2-0.7,0.4-1,0.5v-0.9c0.5-0.3,1-0.6,1.4-0.9
				c0.4-0.4,0.7-0.7,0.9-1.1h0.6V232.3z"/>
			<path class="st6" d="M722.6,230.2l1-0.1c0.1,0.5,0.3,0.9,0.6,1.2c0.3,0.2,0.6,0.4,1,0.4c0.5,0,0.8-0.2,1.2-0.5s0.5-0.7,0.5-1.2
				c0-0.4-0.1-0.8-0.4-1.1s-0.7-0.4-1.1-0.4c-0.2,0-0.4,0-0.7,0.1l0.1-0.8c0.1,0,0.1,0,0.2,0c0.4,0,0.8-0.1,1.1-0.3
				c0.3-0.2,0.5-0.5,0.5-1c0-0.4-0.1-0.6-0.4-0.9c-0.2-0.2-0.5-0.3-0.9-0.3c-0.4,0-0.7,0.1-0.9,0.4c-0.3,0.2-0.4,0.6-0.5,1.1l-1-0.2
				c0.1-0.6,0.4-1.1,0.8-1.5c0.4-0.4,0.9-0.5,1.6-0.5c0.4,0,0.8,0.1,1.2,0.3c0.4,0.2,0.6,0.4,0.8,0.8c0.2,0.3,0.3,0.7,0.3,1
				c0,0.3-0.1,0.6-0.3,0.9c-0.2,0.3-0.5,0.5-0.8,0.7c0.5,0.1,0.8,0.3,1.1,0.7c0.3,0.3,0.4,0.8,0.4,1.3c0,0.7-0.3,1.3-0.8,1.7
				c-0.5,0.5-1.1,0.7-1.9,0.7c-0.7,0-1.3-0.2-1.7-0.6C722.9,231.4,722.7,230.8,722.6,230.2z"/>
			<path class="st6" d="M729,225.7c0-0.4,0.1-0.8,0.4-1.1c0.3-0.3,0.6-0.4,1-0.4c0.4,0,0.8,0.1,1.1,0.4c0.3,0.3,0.4,0.6,0.4,1.1
				s-0.1,0.8-0.4,1.1c-0.3,0.3-0.6,0.4-1.1,0.4c-0.4,0-0.8-0.1-1-0.4C729.1,226.5,729,226.2,729,225.7z M729.5,225.7
				c0,0.3,0.1,0.5,0.3,0.6s0.4,0.3,0.6,0.3c0.2,0,0.5-0.1,0.6-0.3c0.2-0.2,0.3-0.4,0.3-0.6s-0.1-0.5-0.3-0.6
				c-0.2-0.2-0.4-0.3-0.6-0.3c-0.3,0-0.5,0.1-0.6,0.3S729.5,225.5,729.5,225.7z"/>
		</g>
		<g>
			<path class="st61" d="M702.6,249.6c0,0,8.2-8.9,8.2-18.4c0-11.5-5.3-18.7-5.3-18.7"/>
		</g>
		<polygon class="st6" points="709.9,245.2 700.1,253.1 704.4,241.3 		"/>
		<polygon class="st6" points="705.8,218.9 700.4,207.6 710.9,214.5 		"/>
		<g>
			<path class="st6" d="M569.8,576.2l-4.9-6.1l2.7-2.2c0.5-0.4,1-0.7,1.4-0.8c0.4-0.1,0.8-0.1,1.2,0c0.4,0.1,0.7,0.4,1,0.7
				c0.3,0.4,0.5,0.9,0.5,1.4c0,0.5-0.3,1.1-0.8,1.6c0.3-0.1,0.5-0.1,0.7-0.1c0.4,0,0.9,0.1,1.3,0.3l2.4,0.8l-1,0.8l-1.8-0.6
				c-0.5-0.2-1-0.3-1.3-0.4c-0.3-0.1-0.6-0.1-0.7-0.1c-0.2,0-0.4,0.1-0.5,0.1c-0.1,0.1-0.3,0.2-0.5,0.3l-0.9,0.8l2.2,2.7
				L569.8,576.2z M567.8,572.2l1.7-1.4c0.4-0.3,0.6-0.6,0.8-0.8c0.1-0.2,0.2-0.5,0.2-0.8c0-0.3-0.1-0.5-0.3-0.7
				c-0.2-0.3-0.5-0.4-0.9-0.5c-0.4,0-0.8,0.2-1.2,0.5l-1.9,1.6L567.8,572.2z"/>
		</g>
		<g>
			<path class="st6" d="M575.8,563.7l-0.7,0.7c-0.3-0.2-0.6-0.4-0.8-0.4c-0.4-0.1-0.7,0-1,0.3c-0.2,0.2-0.4,0.4-0.5,0.7
				c-0.1,0.4-0.1,0.8,0,1.2c0.1,0.4,0.4,1,0.9,1.6c0-0.4,0-0.8,0.2-1.2c0.2-0.3,0.4-0.6,0.7-0.9c0.5-0.4,1.1-0.6,1.7-0.5
				c0.6,0.1,1.2,0.4,1.7,1c0.3,0.4,0.5,0.8,0.6,1.3c0.1,0.5,0.1,0.9-0.1,1.3c-0.1,0.4-0.4,0.8-0.8,1.1c-0.6,0.5-1.3,0.7-2.1,0.5
				c-0.8-0.1-1.6-0.7-2.4-1.8c-1-1.2-1.4-2.2-1.4-3.1c0-0.8,0.3-1.4,1-1.9c0.5-0.4,1-0.6,1.5-0.6
				C574.8,563.1,575.3,563.3,575.8,563.7z M574.8,568.8c0.2,0.3,0.5,0.5,0.8,0.6c0.3,0.1,0.6,0.2,0.9,0.2c0.3,0,0.6-0.1,0.8-0.3
				c0.3-0.3,0.5-0.6,0.5-1c0-0.4-0.1-0.9-0.5-1.3c-0.3-0.4-0.7-0.7-1.1-0.7c-0.4-0.1-0.8,0-1.1,0.3c-0.3,0.3-0.5,0.6-0.6,1.1
				C574.4,568,574.5,568.5,574.8,568.8z"/>
		</g>
		<g>
			<path class="st6" d="M580.8,567.3l-0.7-0.9l0.9-0.7l0.7,0.9L580.8,567.3z"/>
		</g>
		<g>
			<path class="st6" d="M581.4,564.1l0.7-0.7c0.4,0.4,0.8,0.5,1.2,0.6c0.4,0,0.7-0.1,1-0.3c0.4-0.3,0.6-0.7,0.6-1.1
				c0-0.4-0.1-0.8-0.4-1.2c-0.3-0.3-0.6-0.5-1-0.6c-0.4,0-0.8,0.1-1.1,0.4c-0.1,0.1-0.3,0.3-0.5,0.5l-0.4-0.7c0.1,0,0.1-0.1,0.1-0.1
				c0.3-0.3,0.5-0.6,0.7-0.9c0.1-0.4,0-0.7-0.2-1.1c-0.2-0.3-0.5-0.4-0.8-0.5c-0.3,0-0.6,0.1-0.9,0.3c-0.3,0.2-0.5,0.5-0.5,0.9
				c0,0.3,0.1,0.7,0.3,1.1l-0.9,0.5c-0.3-0.6-0.4-1.1-0.3-1.7c0.1-0.5,0.4-1,0.9-1.4c0.3-0.3,0.7-0.4,1.1-0.5
				c0.4-0.1,0.8-0.1,1.1,0.1c0.3,0.1,0.6,0.3,0.9,0.6c0.2,0.3,0.3,0.6,0.4,0.9c0,0.3,0,0.7-0.2,1c0.4-0.2,0.8-0.3,1.3-0.2
				c0.4,0.1,0.8,0.4,1.1,0.7c0.4,0.5,0.6,1.1,0.5,1.8c-0.1,0.7-0.4,1.3-1,1.8c-0.5,0.4-1.1,0.6-1.7,0.6
				C582.4,564.8,581.9,564.6,581.4,564.1z"/>
		</g>
		<g>
			<path class="st6" d="M586.2,560.3l0.7-0.7c0.4,0.3,0.7,0.5,1.1,0.5c0.4,0,0.7-0.1,1-0.3c0.4-0.3,0.6-0.7,0.6-1.2
				c0-0.5-0.1-0.9-0.5-1.4c-0.3-0.4-0.7-0.7-1.2-0.7c-0.4-0.1-0.9,0.1-1.2,0.4c-0.2,0.2-0.4,0.4-0.5,0.7c-0.1,0.3-0.1,0.5-0.1,0.8
				l-0.8,0.5l-1.9-3.6l3-2.5l0.6,0.7l-2.4,2l1,1.9c0.2-0.6,0.4-1,0.8-1.3c0.5-0.4,1.1-0.6,1.8-0.5c0.7,0.1,1.2,0.4,1.7,1
				c0.4,0.6,0.7,1.2,0.7,1.8c0,0.8-0.3,1.5-1,2c-0.6,0.5-1.1,0.7-1.7,0.6C587.2,561,586.7,560.8,586.2,560.3z"/>
		</g>
		<g>
			<path class="st6" d="M597.7,556.6c-0.8-0.2-1.7-0.5-2.5-1c-0.9-0.5-1.6-1.1-2.2-1.8c-0.5-0.7-0.9-1.4-1.2-2.2
				c-0.3-0.9-0.5-1.9-0.5-3l0.5-0.4c0.1,0.9,0.2,1.4,0.3,1.8c0.1,0.5,0.3,1,0.6,1.5c0.3,0.6,0.7,1.2,1.1,1.7c1.1,1.3,2.6,2.3,4.5,3
				L597.7,556.6z"/>
		</g>
		<g>
			<path class="st6" d="M600.3,551.6l-0.8,0.6l-3.9-4.8c0,0.3-0.1,0.7-0.3,1.1s-0.3,0.8-0.5,1l-0.6-0.7c0.3-0.5,0.4-1.1,0.5-1.6
				c0.1-0.5,0.1-1,0-1.4l0.5-0.4L600.3,551.6z"/>
		</g>
		<g>
			<path class="st6" d="M602,550.4l-3.3-7.8l0.6-0.5l3.3,7.8L602,550.4z"/>
		</g>
		<g>
			<path class="st6" d="M607,546.1l-1.2-1.5l-2.7,2.1l-0.6-0.7l-0.4-6.2l0.6-0.5l3.2,4l0.8-0.7l0.6,0.7l-0.8,0.7l1.2,1.5L607,546.1z
				 M605.3,544l-2.2-2.8l0.3,4.3L605.3,544z"/>
		</g>
		<g>
			<path class="st6" d="M606.4,540.1l-1.2-1l-0.8-1l0.9-0.7l0.8,1l0.8,1.3L606.4,540.1z M607.8,539l-1.1-1l-0.8-1l0.9-0.7l0.8,1
				l0.7,1.3L607.8,539z"/>
		</g>
		<g>
			<path class="st6" d="M614.6,543l-0.5,0.4c-0.2-2-0.9-3.7-2-5c-0.4-0.5-0.9-1-1.4-1.4c-0.4-0.3-0.9-0.6-1.4-0.9
				c-0.3-0.2-0.9-0.4-1.7-0.7l0.5-0.4c1.1,0.3,2,0.7,2.9,1.2c0.7,0.4,1.3,1,1.9,1.6c0.6,0.8,1,1.6,1.3,2.5
				C614.4,541.3,614.6,542.2,614.6,543z"/>
		</g>
		<line class="st65" x1="561.9" y1="589.9" x2="617.7" y2="544.8"/>
		<polygon class="st4" points="566.4,591.1 552.3,597.3 561.4,584.9 		"/>
		<g>
			<path class="st6" d="M582.7,117.6l-4.9-6.1l2.7-2.2c0.5-0.4,1-0.7,1.4-0.8c0.4-0.1,0.8-0.1,1.2,0c0.4,0.1,0.7,0.4,1,0.7
				c0.4,0.4,0.5,0.9,0.5,1.4c0,0.5-0.3,1.1-0.8,1.6c0.3-0.1,0.5-0.1,0.7-0.1c0.4,0,0.9,0.1,1.3,0.3l2.4,0.8l-1,0.8l-1.8-0.6
				c-0.5-0.2-1-0.3-1.3-0.4c-0.3-0.1-0.6-0.1-0.7-0.1c-0.2,0-0.4,0.1-0.5,0.1c-0.1,0.1-0.3,0.2-0.5,0.3l-0.9,0.8l2.2,2.7
				L582.7,117.6z M580.8,113.5l1.7-1.4c0.4-0.3,0.6-0.6,0.8-0.8c0.1-0.2,0.2-0.5,0.2-0.8c0-0.3-0.1-0.5-0.3-0.7
				c-0.2-0.3-0.5-0.4-0.9-0.5c-0.4,0-0.8,0.2-1.2,0.5l-1.9,1.6L580.8,113.5z"/>
		</g>
		<g>
			<path class="st6" d="M584.3,107.5l-0.6-0.7l4-3.2l0.5,0.6c-0.1,0.7,0,1.6,0.2,2.6c0.2,1,0.4,1.9,0.8,2.8c0.3,0.6,0.6,1.3,1.1,1.9
				l-0.8,0.6c-0.4-0.5-0.8-1.1-1.1-2c-0.4-0.8-0.6-1.7-0.8-2.6c-0.2-0.9-0.2-1.7-0.2-2.5L584.3,107.5z"/>
		</g>
		<g>
			<path class="st6" d="M593.8,108.7l-0.7-0.9l0.9-0.7l0.7,0.9L593.8,108.7z"/>
		</g>
		<g>
			<path class="st6" d="M594.7,105.6l0.7-0.6c0.3,0.3,0.7,0.4,0.9,0.5c0.3,0,0.6-0.1,0.8-0.3c0.2-0.2,0.4-0.4,0.5-0.6
				c0.1-0.2,0.1-0.5,0.1-0.8c0-0.3-0.1-0.6-0.3-0.9c-0.2-0.4-0.4-0.7-0.6-1c0,0-0.1-0.1-0.1-0.1c0,0.4,0,0.7-0.1,1.1
				c-0.1,0.4-0.4,0.7-0.7,0.9c-0.5,0.4-1.1,0.6-1.7,0.5c-0.6-0.1-1.2-0.4-1.7-1c-0.5-0.6-0.7-1.3-0.7-1.9c0.1-0.7,0.4-1.2,0.9-1.7
				c0.4-0.3,0.8-0.5,1.4-0.6c0.5-0.1,1,0.1,1.5,0.3c0.5,0.3,1,0.8,1.6,1.5c0.6,0.8,1,1.5,1.3,2.1c0.2,0.6,0.2,1.2,0.1,1.7
				c-0.1,0.5-0.4,1-0.9,1.3c-0.5,0.4-1,0.6-1.5,0.5C595.6,106.2,595.1,106,594.7,105.6z M595.6,100.4c-0.3-0.4-0.7-0.7-1.2-0.7
				c-0.4-0.1-0.8,0-1.1,0.3c-0.3,0.3-0.5,0.6-0.5,1.1c0,0.5,0.1,0.9,0.5,1.4c0.3,0.4,0.7,0.6,1.1,0.7c0.4,0.1,0.8-0.1,1.2-0.3
				c0.3-0.3,0.5-0.6,0.6-1.1C596.1,101.3,595.9,100.8,595.6,100.4z"/>
		</g>
		<g>
			<path class="st6" d="M602.9,101.3l-1.2-1.5L599,102l-0.6-0.7l-0.4-6.2l0.6-0.5l3.2,4l0.8-0.7l0.6,0.7l-0.8,0.7l1.2,1.5
				L602.9,101.3z M601.1,99.1l-2.2-2.8l0.3,4.3L601.1,99.1z"/>
		</g>
		<g>
			<path class="st6" d="M610.7,98c-0.8-0.2-1.7-0.5-2.5-1c-0.9-0.5-1.6-1.1-2.2-1.8c-0.5-0.7-0.9-1.4-1.2-2.2
				c-0.3-0.9-0.5-1.9-0.5-3l0.5-0.4c0.1,0.9,0.2,1.4,0.3,1.8c0.1,0.5,0.3,1,0.6,1.5c0.3,0.6,0.7,1.2,1.1,1.7c1.1,1.3,2.6,2.3,4.5,3
				L610.7,98z"/>
		</g>
		<g>
			<path class="st6" d="M609.2,93.6l0.7-0.7c0.4,0.3,0.7,0.5,1.1,0.5c0.4,0,0.7-0.1,1-0.3c0.4-0.3,0.6-0.7,0.6-1.2
				c0-0.5-0.1-0.9-0.5-1.4c-0.3-0.4-0.7-0.7-1.2-0.7c-0.4-0.1-0.9,0.1-1.2,0.4c-0.2,0.2-0.4,0.4-0.5,0.7c-0.1,0.3-0.1,0.5-0.1,0.8
				l-0.8,0.5l-1.9-3.6l3-2.5l0.6,0.7l-2.4,2l1,1.9c0.2-0.6,0.4-1,0.8-1.3c0.5-0.4,1.1-0.6,1.8-0.5c0.7,0.1,1.2,0.4,1.7,1
				c0.4,0.6,0.7,1.2,0.7,1.8c0,0.8-0.3,1.5-1,2c-0.6,0.4-1.1,0.7-1.7,0.6C610.2,94.3,609.6,94.1,609.2,93.6z"/>
		</g>
		<g>
			<path class="st6" d="M614.9,91.7l-3.3-7.8l0.6-0.5l3.3,7.8L614.9,91.7z"/>
		</g>
		<g>
			<path class="st6" d="M620.4,87.1l-0.8,0.6l-3.9-4.8c0,0.3-0.1,0.7-0.3,1.1c-0.2,0.4-0.3,0.8-0.5,1l-0.6-0.7
				c0.3-0.5,0.4-1.1,0.5-1.6c0.1-0.5,0.1-1,0-1.4l0.5-0.4L620.4,87.1z"/>
		</g>
		<g>
			<path class="st6" d="M622.5,77.8l-0.7,0.7c-0.3-0.2-0.6-0.4-0.8-0.4c-0.4,0-0.7,0-1,0.3c-0.2,0.2-0.4,0.4-0.5,0.7
				c-0.1,0.4-0.1,0.8,0.1,1.2c0.1,0.4,0.4,1,0.9,1.6c0-0.4,0-0.8,0.2-1.2c0.2-0.3,0.4-0.6,0.7-0.9c0.5-0.4,1.1-0.6,1.7-0.5
				c0.6,0.1,1.2,0.4,1.7,1c0.3,0.4,0.5,0.8,0.6,1.3c0.1,0.5,0.1,0.9-0.1,1.3c-0.1,0.4-0.4,0.8-0.8,1.1c-0.6,0.5-1.3,0.7-2.1,0.5
				c-0.8-0.1-1.6-0.7-2.4-1.8c-1-1.2-1.4-2.2-1.4-3.1c0-0.8,0.3-1.4,1-1.9c0.5-0.4,1-0.6,1.5-0.6C621.6,77.2,622.1,77.4,622.5,77.8z
				 M621.6,82.9c0.2,0.3,0.5,0.5,0.8,0.6c0.3,0.1,0.6,0.2,0.9,0.2c0.3,0,0.6-0.1,0.8-0.3c0.3-0.3,0.5-0.6,0.5-1
				c0-0.4-0.1-0.9-0.5-1.3c-0.3-0.4-0.7-0.7-1.1-0.7c-0.4-0.1-0.8,0-1.1,0.3c-0.3,0.3-0.5,0.6-0.6,1.1
				C621.1,82.1,621.3,82.5,621.6,82.9z"/>
		</g>
		<g>
			<path class="st6" d="M624.2,77.6l-1.2-1l-0.8-1l0.9-0.7l0.8,1l0.8,1.3L624.2,77.6z M625.5,76.5l-1.1-1l-0.8-1l0.9-0.7l0.8,1
				l0.7,1.3L625.5,76.5z"/>
		</g>
		<g>
			<path class="st6" d="M632.3,80.5l-0.5,0.4c-0.2-2-0.9-3.7-2-5c-0.4-0.5-0.9-1-1.4-1.4c-0.4-0.3-0.9-0.6-1.4-0.9
				c-0.3-0.2-0.9-0.4-1.7-0.7l0.5-0.4c1.1,0.3,2,0.7,2.9,1.2c0.7,0.4,1.3,1,1.9,1.6c0.6,0.8,1,1.6,1.3,2.5
				C632.1,78.8,632.3,79.7,632.3,80.5z"/>
		</g>
		<line class="st65" x1="639.8" y1="78.8" x2="583.9" y2="123.9"/>
		<polygon class="st6" points="635.3,77.5 649.3,71.3 640.3,83.7 		"/>
		<g>
			<path class="st6" d="M461.2,82.6l7.7-1.5l0.7,3.4c0.1,0.7,0.2,1.2,0.1,1.6c-0.1,0.4-0.3,0.7-0.6,1c-0.3,0.3-0.7,0.5-1.1,0.5
				c-0.5,0.1-1,0-1.5-0.3c-0.4-0.3-0.8-0.8-1-1.5c-0.1,0.3-0.2,0.5-0.3,0.7c-0.2,0.4-0.5,0.7-0.9,1l-1.8,1.8l-0.2-1.3l1.4-1.3
				c0.4-0.4,0.7-0.7,0.9-0.9c0.2-0.2,0.3-0.4,0.4-0.6c0.1-0.2,0.1-0.3,0.1-0.5c0-0.1,0-0.3-0.1-0.6l-0.2-1.2l-3.4,0.7L461.2,82.6z
				 M465.7,82.8l0.4,2.2c0.1,0.5,0.2,0.8,0.4,1.1s0.3,0.4,0.6,0.5c0.2,0.1,0.5,0.1,0.7,0.1c0.4-0.1,0.6-0.3,0.8-0.6
				c0.2-0.3,0.2-0.8,0.1-1.3l-0.5-2.4L465.7,82.8z"/>
		</g>
		<g>
			<path class="st6" d="M464.6,89.6l0.3,0.9c-0.5,0.2-0.9,0.5-1.1,0.8s-0.2,0.6-0.2,1c0.1,0.4,0.3,0.8,0.7,1
				c0.4,0.2,0.8,0.3,1.2,0.2c0.4-0.1,0.8-0.3,1-0.6c0.2-0.3,0.3-0.7,0.2-1.2c0-0.2-0.1-0.4-0.2-0.6l0.9-0.1c0,0.1,0,0.1,0,0.2
				c0.1,0.4,0.3,0.7,0.5,1c0.3,0.3,0.6,0.4,1.1,0.3c0.3-0.1,0.6-0.2,0.8-0.5c0.2-0.3,0.2-0.6,0.2-1c-0.1-0.4-0.2-0.7-0.5-0.9
				c-0.3-0.2-0.7-0.3-1.1-0.3l0-1c0.7,0,1.2,0.2,1.6,0.5c0.4,0.3,0.7,0.8,0.8,1.4c0.1,0.4,0.1,0.8,0,1.2c-0.1,0.4-0.3,0.7-0.6,1
				c-0.3,0.2-0.6,0.4-0.9,0.5c-0.3,0.1-0.7,0-1-0.1c-0.3-0.1-0.6-0.3-0.8-0.7c0,0.5-0.2,0.9-0.5,1.2c-0.3,0.3-0.7,0.5-1.2,0.6
				c-0.7,0.1-1.3,0-1.9-0.4c-0.6-0.4-0.9-1-1.1-1.7c-0.1-0.7,0-1.3,0.3-1.8C463.5,90.1,464,89.8,464.6,89.6z"/>
		</g>
		<g>
			<path class="st6" d="M467.6,95.3c0.9-0.2,1.7-0.2,2.3-0.1c0.6,0.1,1.1,0.3,1.5,0.6c0.4,0.3,0.6,0.7,0.7,1.3
				c0.1,0.4,0.1,0.8,0,1.1s-0.3,0.6-0.6,0.9s-0.6,0.5-1.1,0.7c-0.4,0.2-1,0.4-1.8,0.5c-0.9,0.2-1.7,0.2-2.2,0.1
				c-0.6-0.1-1.1-0.3-1.5-0.6c-0.4-0.3-0.6-0.8-0.7-1.3c-0.1-0.7,0-1.4,0.5-1.9C465.1,96,466.1,95.5,467.6,95.3z M467.8,96.2
				c-1.3,0.2-2.1,0.6-2.4,0.9c-0.4,0.4-0.5,0.8-0.4,1.2c0.1,0.4,0.4,0.8,0.8,1c0.5,0.2,1.4,0.2,2.6,0c1.3-0.2,2.1-0.6,2.4-0.9
				c0.4-0.4,0.5-0.8,0.4-1.2c-0.1-0.4-0.3-0.7-0.8-0.9C469.9,96,469,96,467.8,96.2z"/>
		</g>
		<g>
			<path class="st6" d="M465.5,105l1.8-0.4l-0.6-3.4l0.9-0.2l5.7,2.6l0.1,0.8l-5,1l0.2,1l-0.9,0.2l-0.2-1l-1.8,0.4L465.5,105z
				 M468.2,104.5l3.5-0.7l-4-1.7L468.2,104.5z"/>
		</g>
		<g>
			<path class="st6" d="M466.2,108.5l1.1-0.2l0.2,1.1l-1.1,0.2L466.2,108.5z"/>
		</g>
		<g>
			<path class="st6" d="M471.1,111.6c0.1-0.4,0.2-0.8,0.4-1c0.2-0.2,0.5-0.4,0.9-0.5c0.6-0.1,1.1,0,1.5,0.3c0.5,0.3,0.8,0.8,0.9,1.5
				c0.1,0.7,0,1.3-0.3,1.7c-0.3,0.5-0.7,0.8-1.3,0.9c-0.4,0.1-0.7,0-1-0.1c-0.3-0.1-0.6-0.4-0.8-0.7c-0.1,0.5-0.2,0.9-0.5,1.2
				c-0.3,0.3-0.7,0.5-1.2,0.6c-0.7,0.1-1.3,0-1.8-0.4c-0.5-0.4-0.9-1-1-1.7c-0.1-0.8,0-1.4,0.3-2c0.4-0.6,0.9-0.9,1.6-1
				c0.5-0.1,0.9-0.1,1.3,0.1C470.6,110.9,470.9,111.2,471.1,111.6z M469.1,111.5c-0.3,0.1-0.5,0.2-0.7,0.3c-0.2,0.2-0.4,0.4-0.5,0.7
				c-0.1,0.3-0.1,0.6,0,0.9c0.1,0.5,0.3,0.8,0.7,1c0.3,0.2,0.7,0.3,1.2,0.2c0.5-0.1,0.8-0.3,1-0.7c0.2-0.4,0.3-0.8,0.2-1.2
				c-0.1-0.4-0.3-0.8-0.7-1C469.9,111.5,469.5,111.4,469.1,111.5z M472.7,111.1c-0.4,0.1-0.6,0.2-0.8,0.5c-0.2,0.3-0.2,0.6-0.2,1
				c0.1,0.4,0.2,0.6,0.5,0.8c0.3,0.2,0.6,0.3,0.9,0.2c0.3-0.1,0.6-0.2,0.8-0.5c0.2-0.3,0.3-0.6,0.2-1c-0.1-0.4-0.2-0.6-0.5-0.8
				C473.3,111.1,473,111.1,472.7,111.1z"/>
		</g>
		<g>
			<path class="st6" d="M471.6,116.3c0.9-0.2,1.7-0.2,2.3-0.1c0.6,0.1,1.1,0.3,1.5,0.6c0.4,0.3,0.6,0.7,0.7,1.3
				c0.1,0.4,0.1,0.8,0,1.1c-0.1,0.3-0.3,0.6-0.6,0.9c-0.3,0.3-0.6,0.5-1.1,0.7c-0.4,0.2-1,0.4-1.8,0.5c-0.9,0.2-1.7,0.2-2.2,0.1
				c-0.6-0.1-1.1-0.3-1.5-0.6c-0.4-0.3-0.6-0.8-0.7-1.3c-0.1-0.7,0-1.4,0.5-1.9C469.2,117,470.2,116.5,471.6,116.3z M471.8,117.2
				c-1.3,0.2-2.1,0.6-2.4,0.9c-0.4,0.4-0.5,0.8-0.4,1.2c0.1,0.4,0.4,0.8,0.8,1c0.5,0.2,1.4,0.2,2.6,0c1.3-0.2,2.1-0.6,2.5-0.9
				c0.4-0.4,0.5-0.8,0.4-1.2c-0.1-0.4-0.3-0.7-0.8-0.9C474,117,473.1,117,471.8,117.2z"/>
		</g>
		<g>
			<path class="st6" d="M467.7,128.5c0.6-0.7,1.2-1.2,2.1-1.8c0.8-0.5,1.7-0.9,2.6-1.1c0.8-0.2,1.7-0.2,2.5-0.1
				c0.9,0.1,1.9,0.5,2.9,1l0.1,0.7c-0.8-0.3-1.4-0.5-1.7-0.5c-0.5-0.1-1.1-0.2-1.6-0.2c-0.7,0-1.4,0-2,0.2c-1.7,0.3-3.3,1.2-4.8,2.6
				L467.7,128.5z"/>
		</g>
		<g>
			<path class="st6" d="M471,133.2l-0.2-0.9l6-1.2c-0.3-0.2-0.5-0.4-0.8-0.8c-0.3-0.3-0.5-0.6-0.7-0.9l0.9-0.2
				c0.4,0.5,0.7,0.9,1.2,1.2c0.4,0.3,0.8,0.5,1.2,0.6l0.1,0.6L471,133.2z"/>
		</g>
		<g>
			<path class="st6" d="M473.3,140.4l-0.9,0.2l-1-5.1c0.2-0.1,0.5-0.1,0.7,0c0.4,0.1,0.8,0.2,1.1,0.4c0.4,0.2,0.9,0.6,1.4,1
				c0.9,0.7,1.5,1.2,2,1.4c0.5,0.2,0.9,0.3,1.2,0.2c0.4-0.1,0.7-0.3,0.9-0.6c0.2-0.3,0.3-0.7,0.2-1.1c-0.1-0.5-0.3-0.8-0.6-1
				c-0.3-0.2-0.7-0.3-1.2-0.2l-0.1-1c0.7-0.1,1.3,0.1,1.8,0.4c0.5,0.4,0.8,0.9,0.9,1.6c0.1,0.7,0.1,1.4-0.3,1.9
				c-0.3,0.5-0.8,0.8-1.4,0.9c-0.3,0.1-0.6,0.1-0.9,0s-0.7-0.2-1.1-0.4c-0.4-0.2-0.9-0.6-1.6-1.2c-0.6-0.5-1-0.8-1.2-0.9
				c-0.2-0.1-0.4-0.2-0.6-0.3L473.3,140.4z"/>
		</g>
		<g>
			<path class="st6" d="M477.7,140.9l1.4-0.5l1.3-0.2l0.2,1.1l-1.3,0.2l-1.5,0L477.7,140.9z M478,142.7l1.4-0.5l1.3-0.2l0.2,1.1
				l-1.3,0.2l-1.5,0L478,142.7z"/>
		</g>
		<g>
			<path class="st6" d="M471.2,146.7l-0.1-0.7c1.9,0.7,3.7,0.9,5.4,0.6c0.7-0.1,1.3-0.3,1.9-0.6c0.5-0.2,1-0.5,1.4-0.8
				c0.3-0.2,0.8-0.6,1.4-1.2l0.1,0.7c-0.8,0.8-1.5,1.5-2.4,2c-0.7,0.4-1.5,0.7-2.3,0.9c-0.9,0.2-1.9,0.2-2.9,0
				C472.9,147.4,472,147.1,471.2,146.7z"/>
		</g>
		<line class="st65" x1="452.8" y1="70.3" x2="468.5" y2="150.1"/>
		<polygon class="st6" points="449.6,73.7 450.7,58.3 457.4,72.1 		"/>
		<g>
			<path class="st6" d="M360.6,187.9l-4.9-6.2l2.7-2.2c0.6-0.4,1-0.7,1.4-0.8c0.4-0.1,0.8-0.1,1.2,0c0.4,0.1,0.7,0.4,1,0.7
				c0.3,0.4,0.5,0.9,0.4,1.4s-0.3,1.1-0.9,1.6c0.3-0.1,0.5-0.1,0.7-0.1c0.4,0,0.9,0.1,1.3,0.3l2.4,0.8l-1,0.8l-1.8-0.6
				c-0.5-0.2-1-0.3-1.3-0.4c-0.3-0.1-0.6-0.1-0.7-0.1c-0.2,0-0.4,0.1-0.5,0.1c-0.1,0.1-0.3,0.2-0.5,0.3l-0.9,0.7l2.2,2.7
				L360.6,187.9z M358.7,183.8l1.8-1.4c0.4-0.3,0.6-0.6,0.8-0.8c0.2-0.2,0.2-0.5,0.2-0.7c0-0.3-0.1-0.5-0.3-0.7
				c-0.2-0.3-0.5-0.4-0.9-0.5s-0.8,0.1-1.2,0.5l-2,1.5L358.7,183.8z"/>
		</g>
		<g>
			<path class="st6" d="M369.4,181l-0.8,0.6l-3.8-4.8c0,0.3-0.1,0.7-0.3,1.1c-0.2,0.4-0.3,0.7-0.5,1l-0.6-0.7
				c0.3-0.5,0.4-1.1,0.5-1.6c0.1-0.5,0.1-1,0-1.4l0.5-0.4L369.4,181z"/>
		</g>
		<g>
			<path class="st6" d="M371.7,179.1l-0.7-0.9l0.9-0.7l0.7,0.9L371.7,179.1z"/>
		</g>
		<g>
			<path class="st6" d="M372.4,175.9l0.7-0.7c0.4,0.3,0.7,0.5,1.1,0.6c0.4,0,0.7-0.1,1-0.3c0.4-0.3,0.6-0.7,0.6-1.1
				c0-0.5-0.1-0.9-0.5-1.4c-0.3-0.4-0.7-0.7-1.2-0.7c-0.4-0.1-0.9,0.1-1.3,0.4c-0.2,0.2-0.4,0.4-0.5,0.7c-0.1,0.3-0.2,0.5-0.1,0.8
				l-0.8,0.5l-1.9-3.6l3.1-2.4l0.6,0.7l-2.5,1.9l1,1.9c0.2-0.6,0.5-1,0.9-1.3c0.5-0.4,1.1-0.6,1.8-0.5c0.7,0.1,1.2,0.4,1.7,1
				c0.4,0.6,0.7,1.2,0.7,1.8c0,0.8-0.3,1.5-1,2c-0.6,0.4-1.1,0.6-1.7,0.6C373.4,176.7,372.9,176.4,372.4,175.9z"/>
		</g>
		<g>
			<path class="st6" d="M377.5,172.3l0.7-0.6c0.3,0.3,0.6,0.5,0.9,0.5c0.3,0,0.6-0.1,0.9-0.3c0.2-0.2,0.4-0.4,0.5-0.6
				c0.1-0.2,0.1-0.5,0.1-0.8c0-0.3-0.1-0.6-0.3-0.9c-0.2-0.4-0.4-0.7-0.6-1c0,0-0.1-0.1-0.1-0.1c0,0.4,0,0.7-0.2,1.1
				c-0.1,0.4-0.4,0.7-0.7,0.9c-0.5,0.4-1.1,0.6-1.7,0.5c-0.6-0.1-1.2-0.4-1.7-1.1c-0.5-0.6-0.7-1.3-0.6-2c0.1-0.7,0.4-1.2,0.9-1.7
				c0.4-0.3,0.9-0.5,1.4-0.5c0.5,0,1,0.1,1.5,0.3c0.5,0.3,1,0.8,1.6,1.5c0.6,0.8,1,1.5,1.2,2.1c0.2,0.6,0.2,1.2,0.1,1.7
				s-0.4,0.9-0.9,1.3c-0.5,0.4-1,0.6-1.5,0.5C378.4,172.9,378,172.7,377.5,172.3z M378.5,167.1c-0.3-0.4-0.7-0.7-1.2-0.8
				c-0.4-0.1-0.8,0-1.1,0.3c-0.3,0.3-0.5,0.6-0.6,1.1c0,0.5,0.1,0.9,0.5,1.4c0.3,0.4,0.7,0.6,1.1,0.7c0.4,0.1,0.8,0,1.2-0.3
				c0.4-0.3,0.5-0.6,0.6-1.1C379,167.9,378.8,167.5,378.5,167.1z"/>
		</g>
		<g>
			<path class="st6" d="M388.8,168.6c-0.8-0.2-1.7-0.5-2.5-1c-0.8-0.5-1.6-1.1-2.2-1.9c-0.5-0.7-0.9-1.4-1.2-2.2
				c-0.3-0.9-0.5-1.9-0.5-3l0.5-0.4c0.1,0.9,0.2,1.4,0.3,1.8c0.1,0.5,0.3,1,0.6,1.5c0.3,0.6,0.6,1.2,1.1,1.7
				c1.1,1.4,2.5,2.4,4.4,3.1L388.8,168.6z"/>
		</g>
		<g>
			<path class="st6" d="M391.5,163.6l-0.8,0.6l-3.8-4.8c0,0.3-0.2,0.7-0.3,1.1c-0.2,0.4-0.3,0.7-0.5,1l-0.6-0.7
				c0.3-0.5,0.5-1.1,0.5-1.6c0.1-0.5,0.1-1,0-1.4l0.5-0.4L391.5,163.6z"/>
		</g>
		<g>
			<path class="st6" d="M393.2,162.5l-3.2-7.8l0.6-0.5l3.2,7.8L393.2,162.5z"/>
		</g>
		<g>
			<path class="st6" d="M398.7,157.9l-0.8,0.6l-3.8-4.8c0,0.3-0.1,0.7-0.3,1.1c-0.2,0.4-0.3,0.7-0.5,1l-0.6-0.7
				c0.3-0.5,0.5-1.1,0.5-1.6s0.1-1,0-1.4l0.5-0.4L398.7,157.9z"/>
		</g>
		<g>
			<path class="st6" d="M400.9,148.6l-0.7,0.7c-0.3-0.2-0.6-0.4-0.8-0.4c-0.4-0.1-0.7,0-1,0.3c-0.2,0.2-0.4,0.4-0.5,0.7
				c-0.1,0.4-0.1,0.8,0,1.2c0.1,0.4,0.4,1,0.9,1.6c0-0.4,0-0.8,0.2-1.1c0.2-0.3,0.4-0.6,0.7-0.9c0.5-0.4,1.1-0.5,1.7-0.5
				c0.6,0.1,1.2,0.4,1.7,1c0.3,0.4,0.5,0.8,0.6,1.3c0.1,0.5,0.1,0.9-0.1,1.3c-0.2,0.4-0.4,0.8-0.8,1c-0.6,0.5-1.3,0.7-2.1,0.5
				c-0.8-0.2-1.6-0.8-2.4-1.8c-0.9-1.2-1.4-2.2-1.4-3.1c0-0.8,0.3-1.4,1-1.9c0.5-0.4,1-0.6,1.5-0.5C400,148,400.5,148.2,400.9,148.6
				z M399.9,153.7c0.2,0.3,0.5,0.5,0.8,0.6c0.3,0.2,0.6,0.2,0.9,0.2c0.3,0,0.6-0.1,0.8-0.3c0.3-0.3,0.5-0.6,0.5-1
				c0-0.4-0.1-0.9-0.5-1.3c-0.3-0.4-0.7-0.7-1.1-0.7c-0.4-0.1-0.8,0-1.2,0.3c-0.3,0.3-0.5,0.6-0.6,1.1
				C399.5,152.9,399.6,153.3,399.9,153.7z"/>
		</g>
		<g>
			<path class="st6" d="M402.6,148.4l-1.1-1l-0.8-1l0.9-0.7l0.8,1l0.7,1.3L402.6,148.4z M404,147.3l-1.1-1l-0.8-1l0.9-0.7l0.8,1
				l0.7,1.3L404,147.3z"/>
		</g>
		<g>
			<path class="st6" d="M410.7,151.5l-0.5,0.4c-0.2-2-0.9-3.7-1.9-5c-0.4-0.5-0.9-1-1.4-1.4c-0.4-0.3-0.9-0.6-1.4-0.9
				c-0.3-0.2-0.9-0.4-1.7-0.7l0.5-0.4c1.1,0.3,2,0.7,2.8,1.2c0.7,0.4,1.3,1,1.8,1.7c0.6,0.8,1,1.6,1.3,2.5
				C410.5,149.7,410.7,150.6,410.7,151.5z"/>
		</g>
		<line class="st65" x1="348.1" y1="205.5" x2="414.5" y2="153.1"/>
		<polygon class="st6" points="352.6,206.8 338.5,212.8 347.7,200.5 		"/>
		<line class="st61" x1="848.2" y1="700.5" x2="848.2" y2="410.3"/>
		<polygon class="st4" points="851.4,698.2 848.1,710.7 844.8,698.2 		"/>
		<polygon class="st4" points="851.4,412.5 848.1,400.1 844.8,412.5 		"/>
		<line class="st61" x1="848.2" y1="389.9" x2="848.2" y2="66.4"/>
		<polygon class="st4" points="851.4,387.6 848.1,400 844.8,387.6 		"/>
		<polygon class="st4" points="851.4,68.7 848.1,56.3 844.8,68.7 		"/>
		<g>
			<path class="st6" d="M835.3,259.2l0.1,1c-0.4,0.1-0.7,0.2-0.8,0.4c-0.3,0.3-0.4,0.6-0.4,1c0,0.3,0.1,0.6,0.3,0.8
				c0.2,0.3,0.5,0.5,1,0.7s1,0.3,1.8,0.3c-0.4-0.2-0.6-0.5-0.8-0.9c-0.2-0.3-0.3-0.7-0.3-1.1c0-0.6,0.2-1.2,0.7-1.6
				c0.5-0.5,1.1-0.7,1.8-0.7c0.5,0,1,0.1,1.4,0.3c0.4,0.2,0.7,0.5,1,0.9s0.3,0.8,0.3,1.3c0,0.8-0.3,1.5-0.9,2
				c-0.6,0.5-1.6,0.8-2.9,0.8c-1.5,0-2.6-0.3-3.3-0.8c-0.6-0.5-0.9-1.2-0.9-2c0-0.6,0.2-1.1,0.5-1.5
				C834.2,259.6,834.7,259.3,835.3,259.2z M838.7,263.2c0.3,0,0.7-0.1,1-0.2c0.3-0.1,0.5-0.3,0.7-0.6c0.2-0.3,0.2-0.5,0.2-0.8
				c0-0.4-0.2-0.8-0.5-1.1s-0.8-0.4-1.3-0.4c-0.5,0-1,0.1-1.3,0.4c-0.3,0.3-0.5,0.7-0.5,1.1c0,0.4,0.2,0.8,0.5,1.1
				C837.8,263,838.2,263.2,838.7,263.2z"/>
			<path class="st6" d="M839.4,258l-0.1-0.9c0.4-0.1,0.8-0.2,1-0.5c0.2-0.2,0.3-0.5,0.3-0.9c0-0.3-0.1-0.6-0.2-0.8
				c-0.1-0.2-0.3-0.4-0.5-0.5c-0.2-0.1-0.5-0.3-0.9-0.4s-0.8-0.1-1.2-0.1c0,0-0.1,0-0.2,0c0.3,0.2,0.6,0.5,0.7,0.8
				c0.2,0.3,0.3,0.7,0.3,1.1c0,0.7-0.2,1.2-0.7,1.7c-0.5,0.5-1.1,0.7-1.9,0.7c-0.8,0-1.4-0.2-1.9-0.7s-0.7-1.1-0.7-1.8
				c0-0.5,0.1-1,0.4-1.4c0.3-0.4,0.7-0.7,1.2-1c0.5-0.2,1.2-0.3,2.2-0.3c1,0,1.8,0.1,2.4,0.3c0.6,0.2,1,0.5,1.4,1
				c0.3,0.4,0.5,0.9,0.5,1.5c0,0.6-0.2,1.1-0.5,1.5C840.5,257.7,840,257.9,839.4,258z M835.9,254c-0.6,0-1,0.1-1.3,0.4
				c-0.3,0.3-0.5,0.7-0.5,1.1c0,0.4,0.2,0.8,0.5,1.1c0.4,0.3,0.8,0.5,1.4,0.5c0.5,0,0.9-0.2,1.2-0.5c0.3-0.3,0.5-0.7,0.5-1.1
				c0-0.4-0.2-0.8-0.5-1.1S836.5,254,835.9,254z"/>
			<path class="st6" d="M841.2,251.5h-1.1v-1.1h1.1V251.5z"/>
			<path class="st6" d="M837.4,249c-0.9,0-1.7-0.1-2.2-0.3s-1-0.5-1.3-0.9c-0.3-0.4-0.5-0.9-0.5-1.4c0-0.4,0.1-0.8,0.3-1.1
				c0.2-0.3,0.4-0.6,0.7-0.8c0.3-0.2,0.7-0.4,1.2-0.5s1.1-0.2,1.9-0.2c0.9,0,1.7,0.1,2.2,0.3c0.6,0.2,1,0.5,1.3,0.9
				c0.3,0.4,0.5,0.9,0.5,1.4c0,0.8-0.3,1.4-0.8,1.8C839.9,248.7,838.8,249,837.4,249z M837.4,248c1.3,0,2.2-0.2,2.6-0.5
				c0.4-0.3,0.6-0.7,0.6-1.1c0-0.4-0.2-0.8-0.6-1.1s-1.3-0.5-2.6-0.5c-1.3,0-2.2,0.2-2.6,0.5c-0.4,0.3-0.6,0.7-0.6,1.1
				c0,0.4,0.2,0.8,0.6,1.1C835.2,247.8,836.1,248,837.4,248z"/>
			<path class="st6" d="M840.3,237.8h0.9v5.2c-0.2,0-0.5,0-0.7-0.1c-0.4-0.1-0.7-0.3-1-0.6c-0.3-0.3-0.7-0.7-1.2-1.3
				c-0.7-0.9-1.3-1.4-1.7-1.7c-0.4-0.3-0.8-0.5-1.2-0.5c-0.4,0-0.7,0.1-1,0.4c-0.3,0.3-0.4,0.6-0.4,1.1c0,0.5,0.1,0.8,0.4,1.1
				s0.7,0.4,1.2,0.4l-0.1,1c-0.7-0.1-1.3-0.3-1.7-0.8c-0.4-0.4-0.6-1-0.6-1.8c0-0.8,0.2-1.4,0.6-1.8c0.4-0.4,0.9-0.7,1.6-0.7
				c0.3,0,0.6,0.1,0.9,0.2c0.3,0.1,0.6,0.3,1,0.6c0.3,0.3,0.8,0.8,1.4,1.5c0.5,0.6,0.8,1,1,1.1s0.3,0.3,0.5,0.4V237.8z"/>
			<path class="st6" d="M843.5,231.6c-0.7,0.5-1.5,1-2.4,1.4c-0.9,0.4-1.8,0.6-2.8,0.6c-0.9,0-1.7-0.1-2.4-0.4
				c-0.9-0.3-1.8-0.8-2.7-1.5v-0.7c0.7,0.4,1.3,0.7,1.6,0.9c0.5,0.2,1,0.4,1.5,0.5c0.7,0.2,1.3,0.2,2,0.2c1.7,0,3.4-0.5,5.2-1.6
				V231.6z"/>
			<path class="st6" d="M840.3,225h0.9v5.2c-0.2,0-0.5,0-0.7-0.1c-0.4-0.1-0.7-0.3-1-0.6c-0.3-0.3-0.7-0.7-1.2-1.3
				c-0.7-0.9-1.3-1.4-1.7-1.7c-0.4-0.3-0.8-0.5-1.2-0.5c-0.4,0-0.7,0.1-1,0.4c-0.3,0.3-0.4,0.6-0.4,1.1c0,0.5,0.1,0.8,0.4,1.1
				s0.7,0.4,1.2,0.4l-0.1,1c-0.7-0.1-1.3-0.3-1.7-0.8c-0.4-0.4-0.6-1-0.6-1.8c0-0.8,0.2-1.4,0.6-1.8c0.4-0.4,0.9-0.7,1.6-0.7
				c0.3,0,0.6,0.1,0.9,0.2c0.3,0.1,0.6,0.3,1,0.6c0.3,0.3,0.8,0.8,1.4,1.5c0.5,0.6,0.8,1,1,1.1s0.3,0.3,0.5,0.4V225z"/>
			<path class="st6" d="M841.2,223.4h-1.1v-1.1h1.1V223.4z"/>
			<path class="st6" d="M834.4,220.8h-0.9v-5.1h0.8c0.5,0.5,1.2,1,2.1,1.5s1.8,0.9,2.7,1.1c0.7,0.2,1.4,0.3,2.2,0.4v1
				c-0.6,0-1.4-0.1-2.2-0.4c-0.9-0.2-1.7-0.6-2.5-1c-0.8-0.4-1.5-0.9-2.1-1.4V220.8z"/>
			<path class="st6" d="M841.2,211.1v1h-6.2c0.2,0.2,0.4,0.5,0.7,0.9c0.2,0.4,0.4,0.7,0.5,1h-0.9c-0.3-0.5-0.6-1-0.9-1.4
				s-0.7-0.7-1.1-0.9v-0.6H841.2z"/>
			<path class="st6" d="M834.4,208.6h-0.9v-5.1h0.8c0.5,0.5,1.2,1,2.1,1.5s1.8,0.9,2.7,1.1c0.7,0.2,1.4,0.3,2.2,0.4v1
				c-0.6,0-1.4-0.1-2.2-0.4c-0.9-0.2-1.7-0.6-2.5-1c-0.8-0.4-1.5-0.9-2.1-1.4V208.6z"/>
			<path class="st6" d="M839.2,202.5l-0.1-1c0.5-0.1,0.9-0.2,1.1-0.5c0.2-0.3,0.4-0.6,0.4-1c0-0.5-0.2-0.9-0.5-1.2
				c-0.4-0.3-0.8-0.5-1.4-0.5c-0.6,0-1,0.2-1.3,0.5s-0.5,0.7-0.5,1.2c0,0.3,0.1,0.6,0.2,0.8s0.3,0.4,0.5,0.6l-0.1,0.9l-4-0.8v-3.9
				h0.9v3.1l2.1,0.4c-0.3-0.5-0.5-1-0.5-1.5c0-0.7,0.2-1.3,0.7-1.7c0.5-0.5,1.1-0.7,1.8-0.7c0.7,0,1.3,0.2,1.8,0.6
				c0.6,0.5,1,1.2,1,2.1c0,0.7-0.2,1.3-0.6,1.8C840.4,202.2,839.8,202.5,839.2,202.5z"/>
			<path class="st6" d="M836.1,194.3l-1.5,0.3h-1.3v-1.1h1.3l1.5,0.3V194.3z M836.1,196.1l-1.5,0.3h-1.3v-1.1h1.3l1.5,0.2V196.1z"/>
		</g>
		<g>
			<path class="st6" d="M843.5,191.7v0.7c-1.7-1.1-3.4-1.6-5.2-1.6c-0.7,0-1.3,0.1-2,0.2c-0.5,0.1-1.1,0.3-1.5,0.5
				c-0.3,0.1-0.9,0.4-1.6,0.9v-0.7c0.9-0.7,1.8-1.2,2.7-1.5c0.8-0.3,1.6-0.4,2.4-0.4c1,0,1.9,0.2,2.8,0.6
				C842.1,190.7,842.9,191.1,843.5,191.7z"/>
		</g>
		<g>
			<path class="st6" d="M835.3,584.4l0.1,1c-0.4,0.1-0.7,0.2-0.8,0.4c-0.3,0.3-0.4,0.6-0.4,1c0,0.3,0.1,0.6,0.3,0.8
				c0.2,0.3,0.5,0.5,1,0.7c0.4,0.2,1,0.3,1.8,0.3c-0.4-0.2-0.6-0.5-0.8-0.9c-0.2-0.3-0.3-0.7-0.3-1.1c0-0.6,0.2-1.2,0.7-1.6
				c0.5-0.5,1.1-0.7,1.8-0.7c0.5,0,1,0.1,1.4,0.3c0.4,0.2,0.7,0.5,1,0.9c0.2,0.4,0.3,0.8,0.3,1.3c0,0.8-0.3,1.5-0.9,2
				c-0.6,0.5-1.6,0.8-2.9,0.8c-1.5,0-2.6-0.3-3.3-0.8c-0.6-0.5-0.9-1.2-0.9-2c0-0.6,0.2-1.1,0.5-1.5
				C834.2,584.7,834.7,584.5,835.3,584.4z M838.7,588.3c0.3,0,0.7-0.1,1-0.2c0.3-0.1,0.5-0.3,0.7-0.6c0.2-0.3,0.2-0.5,0.2-0.8
				c0-0.4-0.2-0.8-0.5-1.1c-0.3-0.3-0.8-0.4-1.3-0.4c-0.5,0-1,0.1-1.3,0.4c-0.3,0.3-0.5,0.7-0.5,1.1c0,0.4,0.2,0.8,0.5,1.1
				C837.8,588.2,838.2,588.3,838.7,588.3z"/>
			<path class="st6" d="M840.3,578.2h0.9v5.2c-0.2,0-0.5,0-0.7-0.1c-0.4-0.1-0.7-0.3-1-0.6c-0.3-0.3-0.7-0.7-1.2-1.3
				c-0.7-0.9-1.3-1.4-1.7-1.7c-0.4-0.3-0.8-0.5-1.2-0.5c-0.4,0-0.7,0.1-1,0.4c-0.3,0.3-0.4,0.6-0.4,1.1c0,0.5,0.1,0.8,0.4,1.1
				s0.7,0.4,1.2,0.4l-0.1,1c-0.7-0.1-1.3-0.3-1.7-0.8c-0.4-0.4-0.6-1-0.6-1.8c0-0.8,0.2-1.4,0.6-1.8c0.4-0.4,0.9-0.7,1.6-0.7
				c0.3,0,0.6,0.1,0.9,0.2c0.3,0.1,0.6,0.3,1,0.6c0.3,0.3,0.8,0.8,1.4,1.5c0.5,0.6,0.8,1,1,1.1c0.2,0.2,0.3,0.3,0.5,0.4V578.2z"/>
			<path class="st6" d="M841.2,576.6h-1.1v-1.1h1.1V576.6z"/>
			<path class="st6" d="M834.4,574.1h-0.9V569h0.8c0.5,0.5,1.2,1,2.1,1.5c0.9,0.5,1.8,0.9,2.7,1.1c0.7,0.2,1.4,0.3,2.2,0.4v1
				c-0.6,0-1.4-0.1-2.2-0.4s-1.7-0.6-2.5-1s-1.5-0.9-2.1-1.4V574.1z"/>
			<path class="st6" d="M841.2,564.9h-1.9v3.4h-0.9l-5.1-3.6v-0.8h5.1v-1.1h0.9v1.1h1.9V564.9z M838.5,564.9h-3.5l3.5,2.5V564.9z"/>
			<path class="st6" d="M843.5,556.7c-0.7,0.5-1.5,1-2.4,1.4c-0.9,0.4-1.8,0.6-2.8,0.6c-0.9,0-1.7-0.1-2.4-0.4
				c-0.9-0.3-1.8-0.8-2.7-1.5V556c0.7,0.4,1.3,0.7,1.6,0.9c0.5,0.2,1,0.4,1.5,0.5c0.7,0.2,1.3,0.2,2,0.2c1.7,0,3.4-0.5,5.2-1.6
				V556.7z"/>
			<path class="st6" d="M840.3,550.1h0.9v5.2c-0.2,0-0.5,0-0.7-0.1c-0.4-0.1-0.7-0.3-1-0.6c-0.3-0.3-0.7-0.7-1.2-1.3
				c-0.7-0.9-1.3-1.4-1.7-1.7c-0.4-0.3-0.8-0.5-1.2-0.5c-0.4,0-0.7,0.1-1,0.4c-0.3,0.3-0.4,0.6-0.4,1.1c0,0.5,0.1,0.8,0.4,1.1
				s0.7,0.4,1.2,0.4l-0.1,1c-0.7-0.1-1.3-0.3-1.7-0.8c-0.4-0.4-0.6-1-0.6-1.8c0-0.8,0.2-1.4,0.6-1.8c0.4-0.4,0.9-0.7,1.6-0.7
				c0.3,0,0.6,0.1,0.9,0.2c0.3,0.1,0.6,0.3,1,0.6c0.3,0.3,0.8,0.8,1.4,1.5c0.5,0.6,0.8,1,1,1.1c0.2,0.2,0.3,0.3,0.5,0.4V550.1z"/>
			<path class="st6" d="M841.2,548.5h-1.1v-1.1h1.1V548.5z"/>
			<path class="st6" d="M841.2,542.9h-1.9v3.4h-0.9l-5.1-3.6v-0.8h5.1v-1.1h0.9v1.1h1.9V542.9z M838.5,542.9h-3.5l3.5,2.5V542.9z"/>
			<path class="st6" d="M834.4,539.8h-0.9v-5.1h0.8c0.5,0.5,1.2,1,2.1,1.5c0.9,0.5,1.8,0.9,2.7,1.1c0.7,0.2,1.4,0.3,2.2,0.4v1
				c-0.6,0-1.4-0.1-2.2-0.4s-1.7-0.6-2.5-1s-1.5-0.9-2.1-1.4V539.8z"/>
			<path class="st6" d="M836.2,531.7l-1.5,0.3h-1.3v-1.1h1.3l1.5,0.3V531.7z M836.2,533.5l-1.5,0.3h-1.3v-1.1h1.3l1.5,0.2V533.5z"/>
		</g>
		<g>
			<path class="st6" d="M843.5,529v0.7c-1.7-1.1-3.4-1.6-5.2-1.6c-0.7,0-1.3,0.1-2,0.2c-0.5,0.1-1.1,0.3-1.5,0.5
				c-0.3,0.1-0.9,0.4-1.6,0.9V529c0.9-0.7,1.8-1.2,2.7-1.5c0.8-0.3,1.6-0.4,2.4-0.4c1,0,1.9,0.2,2.8,0.6
				C842.1,528,842.9,528.5,843.5,529z"/>
		</g>
		<line class="st61" x1="477.4" y1="423.7" x2="526.1" y2="423.7"/>
		<polygon class="st4" points="479.7,426.9 467.2,423.6 479.7,420.3 		"/>
		<polygon class="st4" points="523.8,426.9 536.2,423.6 523.8,420.3 		"/>
		<g>
			<path class="st6" d="M578.7,420.1h-1v-6.2c-0.2,0.2-0.5,0.4-0.9,0.7c-0.4,0.2-0.7,0.4-1,0.5v-0.9c0.5-0.3,1-0.6,1.4-0.9
				s0.7-0.7,0.9-1.1h0.6V420.1z"/>
			<path class="st6" d="M584.3,420.1v-1.9h-3.4v-0.9l3.6-5.1h0.8v5.1h1.1v0.9h-1.1v1.9H584.3z M584.3,417.3v-3.5l-2.5,3.5H584.3z"/>
			<path class="st6" d="M587.8,420.1V419h1.1v1.1H587.8z"/>
			<path class="st6" d="M595.4,419.2v0.9h-5.2c0-0.2,0-0.5,0.1-0.7c0.1-0.4,0.3-0.7,0.6-1c0.3-0.3,0.7-0.7,1.3-1.2
				c0.9-0.7,1.4-1.3,1.7-1.7c0.3-0.4,0.5-0.8,0.5-1.2c0-0.4-0.1-0.7-0.4-1c-0.3-0.3-0.6-0.4-1.1-0.4c-0.5,0-0.8,0.1-1.1,0.4
				s-0.4,0.7-0.4,1.2l-1-0.1c0.1-0.7,0.3-1.3,0.8-1.7c0.4-0.4,1-0.6,1.8-0.6c0.8,0,1.4,0.2,1.8,0.6c0.4,0.4,0.7,0.9,0.7,1.6
				c0,0.3-0.1,0.6-0.2,0.9c-0.1,0.3-0.3,0.6-0.6,1c-0.3,0.3-0.8,0.8-1.5,1.4c-0.6,0.5-1,0.8-1.1,1c-0.2,0.2-0.3,0.3-0.4,0.5H595.4z"
				/>
			<path class="st6" d="M596.6,418.3l0.9-0.1c0.1,0.4,0.2,0.8,0.5,1c0.2,0.2,0.5,0.3,0.9,0.3c0.3,0,0.6-0.1,0.8-0.2s0.4-0.3,0.6-0.5
				c0.1-0.2,0.3-0.5,0.4-0.9s0.1-0.8,0.1-1.2c0,0,0-0.1,0-0.2c-0.2,0.3-0.5,0.6-0.8,0.7s-0.7,0.3-1.1,0.3c-0.7,0-1.2-0.2-1.7-0.7
				c-0.5-0.5-0.7-1.1-0.7-1.9c0-0.8,0.2-1.4,0.7-1.9s1.1-0.7,1.8-0.7c0.5,0,1,0.1,1.4,0.4c0.4,0.3,0.7,0.7,1,1.2
				c0.2,0.5,0.3,1.2,0.3,2.2c0,1-0.1,1.8-0.3,2.4c-0.2,0.6-0.5,1-1,1.4c-0.4,0.3-0.9,0.5-1.5,0.5c-0.6,0-1.1-0.2-1.5-0.5
				C596.9,419.4,596.7,418.9,596.6,418.3z M600.6,414.8c0-0.6-0.1-1-0.4-1.3c-0.3-0.3-0.7-0.5-1.1-0.5c-0.4,0-0.8,0.2-1.1,0.5
				c-0.3,0.4-0.5,0.8-0.5,1.4c0,0.5,0.2,0.9,0.5,1.2c0.3,0.3,0.7,0.5,1.1,0.5c0.4,0,0.8-0.2,1.1-0.5
				C600.4,415.8,600.6,415.4,600.6,414.8z"/>
			<path class="st6" d="M607.8,422.4c-0.5-0.7-1-1.5-1.4-2.4c-0.4-0.9-0.6-1.8-0.6-2.8c0-0.9,0.1-1.7,0.4-2.4
				c0.3-0.9,0.8-1.8,1.5-2.7h0.7c-0.4,0.7-0.7,1.3-0.9,1.6c-0.2,0.5-0.4,1-0.5,1.5c-0.2,0.7-0.2,1.3-0.2,2c0,1.7,0.5,3.4,1.6,5.2
				H607.8z"/>
			<path class="st6" d="M609.4,418.3l0.9-0.1c0.1,0.4,0.2,0.8,0.5,1c0.2,0.2,0.5,0.3,0.9,0.3c0.3,0,0.6-0.1,0.8-0.2s0.4-0.3,0.6-0.5
				c0.1-0.2,0.3-0.5,0.4-0.9s0.1-0.8,0.1-1.2c0,0,0-0.1,0-0.2c-0.2,0.3-0.5,0.6-0.8,0.7s-0.7,0.3-1.1,0.3c-0.7,0-1.2-0.2-1.7-0.7
				c-0.5-0.5-0.7-1.1-0.7-1.9c0-0.8,0.2-1.4,0.7-1.9s1.1-0.7,1.8-0.7c0.5,0,1,0.1,1.4,0.4c0.4,0.3,0.7,0.7,1,1.2
				c0.2,0.5,0.3,1.2,0.3,2.2c0,1-0.1,1.8-0.3,2.4c-0.2,0.6-0.5,1-1,1.4c-0.4,0.3-0.9,0.5-1.5,0.5c-0.6,0-1.1-0.2-1.5-0.5
				C609.8,419.4,609.5,418.9,609.4,418.3z M613.4,414.8c0-0.6-0.1-1-0.4-1.3c-0.3-0.3-0.7-0.5-1.1-0.5c-0.4,0-0.8,0.2-1.1,0.5
				c-0.3,0.4-0.5,0.8-0.5,1.4c0,0.5,0.2,0.9,0.5,1.2c0.3,0.3,0.7,0.5,1.1,0.5c0.4,0,0.8-0.2,1.1-0.5
				C613.3,415.8,613.4,415.4,613.4,414.8z"/>
			<path class="st6" d="M615,420.2l2.3-8.1h0.8l-2.3,8.1H615z"/>
			<path class="st6" d="M622.1,420.1h-1v-6.2c-0.2,0.2-0.5,0.4-0.9,0.7c-0.4,0.2-0.7,0.4-1,0.5v-0.9c0.5-0.3,1-0.6,1.4-0.9
				s0.7-0.7,0.9-1.1h0.6V420.1z"/>
			<path class="st6" d="M629.6,414.2l-1,0.1c-0.1-0.4-0.2-0.7-0.4-0.8c-0.3-0.3-0.6-0.4-1-0.4c-0.3,0-0.6,0.1-0.8,0.3
				c-0.3,0.2-0.5,0.5-0.7,1c-0.2,0.4-0.3,1-0.3,1.8c0.2-0.4,0.5-0.6,0.9-0.8c0.3-0.2,0.7-0.3,1.1-0.3c0.6,0,1.2,0.2,1.6,0.7
				c0.5,0.5,0.7,1.1,0.7,1.8c0,0.5-0.1,1-0.3,1.4c-0.2,0.4-0.5,0.7-0.9,1c-0.4,0.2-0.8,0.3-1.3,0.3c-0.8,0-1.5-0.3-2-0.9
				c-0.5-0.6-0.8-1.6-0.8-2.9c0-1.5,0.3-2.6,0.8-3.3c0.5-0.6,1.2-0.9,2-0.9c0.6,0,1.1,0.2,1.5,0.5
				C629.3,413.1,629.5,413.5,629.6,414.2z M625.6,417.6c0,0.3,0.1,0.7,0.2,1c0.1,0.3,0.3,0.5,0.6,0.7c0.3,0.2,0.5,0.2,0.8,0.2
				c0.4,0,0.8-0.2,1.1-0.5c0.3-0.3,0.4-0.8,0.4-1.3c0-0.5-0.1-1-0.4-1.3c-0.3-0.3-0.7-0.5-1.1-0.5c-0.4,0-0.8,0.2-1.1,0.5
				C625.8,416.6,625.6,417,625.6,417.6z"/>
			<path class="st6" d="M631,415l-0.3-1.5v-1.3h1.1v1.3l-0.2,1.5H631z M632.8,415l-0.3-1.5v-1.3h1.1v1.3l-0.3,1.5H632.8z"/>
		</g>
		<g>
			<path class="st6" d="M635.5,422.4h-0.7c1.1-1.7,1.6-3.4,1.6-5.2c0-0.7-0.1-1.3-0.2-2c-0.1-0.5-0.3-1.1-0.5-1.5
				c-0.1-0.3-0.4-0.9-0.9-1.6h0.7c0.7,0.9,1.2,1.8,1.5,2.7c0.3,0.8,0.4,1.6,0.4,2.4c0,1-0.2,1.9-0.6,2.8
				C636.4,421,636,421.7,635.5,422.4z"/>
		</g>
		<g>
			<path class="st6" d="M263,682.1l1.1-7.8l3.5,0.5c0.7,0.1,1.2,0.2,1.6,0.4c0.3,0.2,0.6,0.5,0.8,0.9c0.2,0.4,0.2,0.8,0.2,1.2
				c-0.1,0.6-0.3,1-0.7,1.3c-0.4,0.3-1,0.5-1.8,0.5c0.3,0.2,0.4,0.3,0.6,0.5c0.3,0.3,0.5,0.7,0.7,1.2l1.1,2.3l-1.3-0.2l-0.8-1.8
				c-0.2-0.5-0.4-0.9-0.6-1.2c-0.2-0.3-0.3-0.5-0.5-0.6c-0.1-0.1-0.3-0.2-0.4-0.3c-0.1,0-0.3-0.1-0.6-0.1l-1.2-0.2l-0.5,3.5
				L263,682.1z M264.6,677.9l2.2,0.3c0.5,0.1,0.8,0.1,1.1,0c0.3-0.1,0.5-0.2,0.7-0.4c0.2-0.2,0.3-0.4,0.3-0.7c0.1-0.4,0-0.7-0.3-1
				c-0.2-0.3-0.6-0.5-1.2-0.5l-2.5-0.3L264.6,677.9z"/>
		</g>
		<g>
			<path class="st6" d="M274.1,683.7l-1-0.1l0.8-6.1c-0.3,0.2-0.6,0.4-1,0.5c-0.4,0.2-0.8,0.3-1.1,0.4l0.1-0.9
				c0.6-0.2,1.1-0.4,1.5-0.7c0.5-0.3,0.8-0.6,1-0.9l0.6,0.1L274.1,683.7z"/>
		</g>
		<g>
			<path class="st6" d="M277.1,684.1l0.2-1.1l1.1,0.2l-0.2,1.1L277.1,684.1z"/>
		</g>
		<g>
			<path class="st6" d="M279.8,682.4l1,0.1c0,0.5,0.1,0.9,0.4,1.2c0.2,0.3,0.5,0.5,0.9,0.5c0.5,0.1,0.9-0.1,1.2-0.4
				c0.4-0.3,0.6-0.7,0.7-1.3c0.1-0.5,0-1-0.3-1.4c-0.3-0.4-0.6-0.6-1.1-0.6c-0.3,0-0.6,0-0.9,0.1c-0.3,0.1-0.5,0.3-0.7,0.5l-0.9-0.2
				l1.3-3.9l3.9,0.5l-0.1,0.9l-3.1-0.4l-0.7,2c0.5-0.3,1-0.4,1.5-0.3c0.7,0.1,1.2,0.4,1.6,0.9c0.4,0.5,0.6,1.2,0.5,1.9
				c-0.1,0.7-0.4,1.3-0.9,1.7c-0.6,0.6-1.3,0.8-2.2,0.7c-0.7-0.1-1.3-0.4-1.7-0.8S279.8,683.1,279.8,682.4z"/>
		</g>
		<g>
			<path class="st6" d="M286,683.5l0.9,0c0,0.4,0.1,0.8,0.3,1c0.2,0.2,0.5,0.4,0.8,0.4c0.3,0,0.6,0,0.8-0.1c0.2-0.1,0.4-0.3,0.6-0.5
				c0.2-0.2,0.3-0.5,0.5-0.9c0.1-0.4,0.3-0.8,0.3-1.2c0,0,0-0.1,0-0.2c-0.2,0.3-0.5,0.5-0.9,0.6c-0.4,0.1-0.7,0.2-1.1,0.1
				c-0.6-0.1-1.2-0.4-1.5-0.9c-0.4-0.5-0.5-1.2-0.4-1.9c0.1-0.8,0.4-1.4,1-1.8c0.5-0.4,1.2-0.6,1.9-0.5c0.5,0.1,1,0.3,1.3,0.6
				c0.4,0.3,0.6,0.8,0.8,1.3c0.1,0.5,0.2,1.3,0,2.2c-0.1,1-0.4,1.8-0.7,2.3c-0.3,0.6-0.7,1-1.2,1.2c-0.5,0.2-1,0.3-1.6,0.3
				c-0.6-0.1-1.1-0.3-1.4-0.7C286.2,684.6,286,684.1,286,683.5z M290.4,680.6c0.1-0.5,0-1-0.3-1.4c-0.2-0.4-0.6-0.6-1-0.6
				c-0.4-0.1-0.8,0.1-1.2,0.4c-0.4,0.3-0.6,0.7-0.7,1.3c-0.1,0.5,0,0.9,0.3,1.3c0.3,0.4,0.6,0.6,1,0.6c0.4,0.1,0.8,0,1.2-0.3
				C290.1,681.5,290.3,681.1,290.4,680.6z"/>
		</g>
		<g>
			<path class="st6" d="M296.5,689.1c-0.4-0.7-0.8-1.6-1-2.5c-0.2-0.9-0.3-1.9-0.2-2.9c0.1-0.8,0.4-1.6,0.7-2.4
				c0.4-0.9,1.1-1.7,1.9-2.5l0.7,0.1c-0.5,0.7-0.9,1.2-1.1,1.5c-0.3,0.5-0.5,0.9-0.7,1.5c-0.2,0.6-0.4,1.3-0.5,2
				c-0.2,1.7,0.1,3.5,0.9,5.3L296.5,689.1z"/>
		</g>
		<g>
			<path class="st6" d="M301.9,687.5l-1-0.1l0.8-6.1c-0.3,0.2-0.6,0.4-1,0.5c-0.4,0.2-0.8,0.3-1.1,0.4l0.1-0.9
				c0.6-0.2,1.1-0.4,1.5-0.7c0.5-0.3,0.8-0.6,1-0.9l0.6,0.1L301.9,687.5z"/>
		</g>
		<g>
			<path class="st6" d="M303.9,687.9l3.4-7.7l0.8,0.1l-3.4,7.8L303.9,687.9z"/>
		</g>
		<g>
			<path class="st6" d="M311,688.8l-1-0.1l0.8-6.1c-0.3,0.2-0.6,0.4-1,0.5c-0.4,0.2-0.8,0.3-1.1,0.4l0.1-0.9
				c0.6-0.2,1.1-0.4,1.5-0.7c0.5-0.3,0.8-0.6,1-0.9l0.6,0.1L311,688.8z"/>
		</g>
		<g>
			<path class="st6" d="M319.2,683.9l-1-0.1c0-0.4-0.1-0.7-0.2-0.9c-0.2-0.3-0.5-0.5-0.9-0.5c-0.3,0-0.6,0-0.8,0.1
				c-0.3,0.2-0.6,0.5-0.8,0.9c-0.2,0.4-0.4,1-0.5,1.8c0.3-0.3,0.6-0.5,1-0.7c0.4-0.1,0.7-0.2,1.1-0.1c0.6,0.1,1.1,0.4,1.5,0.9
				c0.4,0.5,0.5,1.2,0.4,1.9c-0.1,0.5-0.2,0.9-0.5,1.3c-0.3,0.4-0.6,0.7-1,0.8c-0.4,0.2-0.8,0.2-1.3,0.2c-0.8-0.1-1.4-0.5-1.8-1.2
				c-0.4-0.7-0.5-1.7-0.4-3c0.2-1.5,0.6-2.6,1.3-3.2c0.6-0.5,1.3-0.7,2.1-0.6c0.6,0.1,1.1,0.3,1.4,0.7
				C319.1,682.8,319.2,683.3,319.2,683.9z M314.9,686.7c0,0.3,0,0.7,0.1,1c0.1,0.3,0.3,0.6,0.5,0.8c0.2,0.2,0.5,0.3,0.8,0.3
				c0.4,0.1,0.8-0.1,1.1-0.3c0.3-0.3,0.5-0.7,0.6-1.3c0.1-0.5,0-1-0.3-1.3c-0.2-0.4-0.6-0.6-1-0.6c-0.4-0.1-0.8,0-1.2,0.3
				S314.9,686.2,314.9,686.7z"/>
		</g>
		<g>
			<path class="st6" d="M320.5,685l-0.1-1.5l0.2-1.3l1.1,0.2l-0.2,1.3l-0.4,1.5L320.5,685z M322.3,685.2l-0.1-1.5l0.2-1.3l1.1,0.2
				l-0.2,1.3l-0.5,1.4L322.3,685.2z"/>
		</g>
		<g>
			<path class="st6" d="M323.9,692.9l-0.7-0.1c1.3-1.6,2.1-3.2,2.3-4.9c0.1-0.7,0.1-1.3,0-2c0-0.5-0.1-1.1-0.3-1.6
				c-0.1-0.3-0.3-0.9-0.6-1.7l0.7,0.1c0.5,1,0.9,1.9,1.1,2.9c0.2,0.8,0.2,1.6,0.1,2.5c-0.1,1-0.4,1.9-0.9,2.7
				C325.1,691.6,324.6,692.3,323.9,692.9z"/>
		</g>
		<g>
			<path class="st6" d="M749.7,626.8h-1v-6.2c-0.2,0.2-0.5,0.4-0.9,0.7c-0.4,0.2-0.7,0.4-1,0.5v-0.9c0.5-0.3,1-0.6,1.4-0.9
				c0.4-0.4,0.7-0.7,0.9-1.1h0.6V626.8z"/>
			<path class="st6" d="M752.2,624.8l1-0.1c0.1,0.5,0.3,0.9,0.6,1.2c0.3,0.2,0.6,0.4,1,0.4c0.5,0,0.8-0.2,1.2-0.5
				c0.3-0.3,0.5-0.7,0.5-1.2c0-0.4-0.1-0.8-0.4-1.1s-0.7-0.4-1.1-0.4c-0.2,0-0.4,0-0.7,0.1l0.1-0.8c0.1,0,0.1,0,0.2,0
				c0.4,0,0.8-0.1,1.1-0.3c0.3-0.2,0.5-0.5,0.5-1c0-0.4-0.1-0.6-0.4-0.9c-0.2-0.2-0.5-0.3-0.9-0.3c-0.4,0-0.7,0.1-0.9,0.4
				c-0.3,0.2-0.4,0.6-0.5,1.1l-1-0.2c0.1-0.6,0.4-1.1,0.8-1.5c0.4-0.4,0.9-0.5,1.6-0.5c0.4,0,0.8,0.1,1.2,0.3
				c0.4,0.2,0.6,0.4,0.8,0.8c0.2,0.3,0.3,0.7,0.3,1c0,0.3-0.1,0.6-0.3,0.9c-0.2,0.3-0.5,0.5-0.8,0.7c0.5,0.1,0.8,0.3,1.1,0.7
				c0.3,0.3,0.4,0.8,0.4,1.3c0,0.7-0.3,1.3-0.8,1.7s-1.1,0.7-1.9,0.7c-0.7,0-1.3-0.2-1.7-0.6C752.5,625.9,752.2,625.4,752.2,624.8z"
				/>
		</g>
		<g>
			<path class="st6" d="M758.5,620.3c0-0.4,0.1-0.8,0.4-1.1c0.3-0.3,0.6-0.4,1-0.4c0.4,0,0.8,0.1,1.1,0.4s0.4,0.6,0.4,1.1
				c0,0.4-0.1,0.8-0.4,1.1c-0.3,0.3-0.6,0.4-1.1,0.4c-0.4,0-0.8-0.1-1-0.4C758.7,621.1,758.5,620.7,758.5,620.3z M759.1,620.3
				c0,0.3,0.1,0.5,0.3,0.6c0.2,0.2,0.4,0.3,0.6,0.3c0.2,0,0.5-0.1,0.6-0.3c0.2-0.2,0.3-0.4,0.3-0.6c0-0.2-0.1-0.5-0.3-0.6
				c-0.2-0.2-0.4-0.3-0.6-0.3c-0.3,0-0.5,0.1-0.6,0.3C759.2,619.8,759.1,620.1,759.1,620.3z"/>
		</g>
		<line class="st65" x1="187.1" y1="699.7" x2="220.4" y2="681.1"/>
		<polygon class="st6" points="191.4,701.5 176.7,705.8 187.3,694.7 		"/>
		<line class="st65" x1="187.3" y1="676.6" x2="325.7" y2="696.1"/>
		<polygon class="st6" points="189.6,680.7 175.2,675.2 190.4,672.8 		"/>
	</g>
</g>
<g id="Watermark">
	<g>
		<rect x="438.5" y="642.8" class="st1" width="123.1" height="46.3"/>
		<g>
			<rect x="444.9" y="650.7" class="st75" width="62.9" height="30.6"/>
			<rect x="507.7" y="650.7" class="st75" width="47.4" height="30.6"/>
			<g>
				<path class="st76" d="M466.5,656.8l-2.8,18.9H461l-1.6-11l-1.5,11h-2.7l-2.8-18.9h2.5l1.8,14.2l1.8-14.2h2l1.8,14.2l1.8-14.2
					H466.5z"/>
				<path class="st76" d="M467.9,675.7v-18.9h2.5v18.9H467.9z"/>
				<path class="st76" d="M472.8,656.8h5c1.9,0,2.9,1.1,2.9,3.2v4.7c0,1.7-0.5,2.7-1.5,3.1l1.8,7.9h-2.4l-1.7-7.6h-1.5v7.6h-2.5
					V656.8z M475.4,665.9h1.7c0.8,0,1.1-0.5,1.1-1.4v-4.1c0-0.9-0.4-1.4-1.1-1.4h-1.7V665.9z"/>
				<path class="st76" d="M486.8,659.1v16.6h-2.5v-16.6h-2.4v-2.3h7.4v2.3H486.8z"/>
				<path class="st76" d="M496.3,675.7v-8.6h-3.1v8.6h-2.5v-18.9h2.5v8h3.1v-8h2.5v18.9H496.3z"/>
			</g>
			<g>
				<path class="st76" d="M516.3,656.8h5c1.9,0,2.9,1.1,2.9,3.2v4.7c0,1.7-0.5,2.7-1.5,3.1l1.8,7.9H522l-1.7-7.6h-1.5v7.6h-2.5
					V656.8z M518.8,665.9h1.7c0.8,0,1.1-0.5,1.1-1.4v-4.1c0-0.9-0.4-1.4-1.1-1.4h-1.7V665.9z"/>
				<path class="st76" d="M528.7,675.7h-2.5V660c0-2.2,1-3.2,3-3.2h1.9c2,0,3,1.1,3,3.2v15.7h-2.5v-6.9h-2.9V675.7z M531.6,666.5
					v-6.3c0-0.7-0.4-1.1-1.1-1.1h-0.7c-0.7,0-1.1,0.4-1.1,1.1v6.3H531.6z"/>
				<path class="st76" d="M536.3,675.7v-18.9h2.5v18.9H536.3z"/>
				<path class="st76" d="M547.2,675.7h-6v-18.9h2.5v16.6h3.5V675.7z"/>
			</g>
		</g>
	</g>
</g>
</svg>
