<?xml version="1.0" encoding="utf-8"?>
<!-- Generator: Adobe Illustrator 25.2.3, SVG Export Plug-In . SVG Version: 6.00 Build 0)  -->
<svg version="1.1" xmlns="http://www.w3.org/2000/svg" xmlns:xlink="http://www.w3.org/1999/xlink" x="0px" y="0px"
	 viewBox="0 0 1000 800" style="enable-background:new 0 0 1000 800;" xml:space="preserve">
<style type="text/css">
	.st0{display:none;}
	.st1{fill:#F0F0F0;}
	.st2{fill:none;stroke:#221E1F;stroke-width:1.0067;}
	.st3{fill:none;stroke:#221E1F;stroke-width:1.0815;}
	.st4{fill:#221E1F;}
	.st5{fill:none;stroke:#221E1F;stroke-width:1.0067;stroke-dasharray:25.4357,7.8961;}
	.st6{fill:#303030;}
	.st7{fill:none;stroke:#221E1F;stroke-width:0.9293;}
	.st8{fill:none;stroke:#303030;stroke-width:1.0067;stroke-miterlimit:10;}
	.st9{fill:none;stroke:#221E1F;stroke-width:1.2309;}
	.st10{fill:none;stroke:#221E1F;stroke-width:1.0036;stroke-linecap:round;stroke-linejoin:round;stroke-miterlimit:10;}
	.st11{fill:none;stroke:#221E1F;stroke-width:1.2309;stroke-linecap:round;stroke-linejoin:round;stroke-miterlimit:10;}
	.st12{fill:none;stroke:#221E1F;stroke-width:1.2309;stroke-miterlimit:10;}
	.st13{fill:none;stroke:#221E1F;stroke-width:1.2309;stroke-linecap:round;stroke-linejoin:round;}
	.st14{fill:none;stroke:#221E1F;stroke-width:1.2309;stroke-dasharray:6.9402,6.9402;}
	.st15{fill:none;stroke:#221E1F;stroke-width:1.148;}
	.st16{fill:none;stroke:#221E1F;stroke-width:1.148;stroke-dasharray:6.4521,6.4521;}
	.st17{fill:none;stroke:#221E1F;stroke-width:1.145;}
	.st18{fill:none;stroke:#221E1F;stroke-width:1.1283;}
	.st19{fill:none;stroke:#221E1F;stroke-width:1.1023;}
	.st20{fill:none;stroke:#221E1F;stroke-width:1.1283;stroke-dasharray:6.3679,6.3679;}
	.st21{fill:none;stroke:#221E1F;stroke-width:1.1486;}
	.st22{fill:none;stroke:#FFFFFF;stroke-width:5.4259;}
	.st23{fill:none;stroke:#221E1F;stroke-width:1.0581;}
	.st24{fill:none;stroke:#221E1F;stroke-width:1.0092;}
	.st25{fill:none;stroke:#221E1F;stroke-width:0.9007;}
	.st26{fill:none;stroke:#221E1F;stroke-width:0.9007;stroke-dasharray:6.2235,6.2235;}
	.st27{fill:none;stroke:#241F21;stroke-width:0.8703;}
	.st28{fill:none;stroke:#241F21;stroke-width:0.9357;}
	.st29{clip-path:url(#SVGID_2_);fill:none;stroke:#241F21;stroke-width:0.8703;}
	.st30{fill:none;stroke:#303030;stroke-width:0.8703;stroke-miterlimit:10;}
	.st31{fill:#241F21;}
	.st32{fill:none;stroke:#241F21;stroke-width:0.8703;stroke-dasharray:22.0524,6.4121;}
	.st33{clip-path:url(#SVGID_4_);}
	.st34{clip-path:url(#SVGID_6_);}
	.st35{clip-path:url(#SVGID_8_);}
	.st36{clip-path:url(#SVGID_10_);fill:#303030;}
	.st37{fill:none;stroke:#241F21;stroke-width:0.8703;stroke-dasharray:26.5684,7.9543;}
	.st38{clip-path:url(#SVGID_12_);}
	.st39{clip-path:url(#SVGID_14_);}
	.st40{clip-path:url(#SVGID_16_);}
	.st41{clip-path:url(#SVGID_18_);}
	.st42{fill:none;stroke:#241F21;stroke-width:0.8984;}
	.st43{fill:none;stroke:#303030;stroke-width:0.8984;stroke-miterlimit:10;}
	.st44{clip-path:url(#SVGID_20_);}
	.st45{clip-path:url(#SVGID_22_);}
	.st46{clip-path:url(#SVGID_24_);}
	.st47{clip-path:url(#SVGID_26_);}
	.st48{clip-path:url(#SVGID_28_);}
	.st49{clip-path:url(#SVGID_30_);}
	.st50{clip-path:url(#SVGID_32_);}
	.st51{clip-path:url(#SVGID_34_);fill:none;stroke:#241F21;stroke-width:0.8984;}
	.st52{clip-path:url(#SVGID_36_);fill:none;stroke:#241F21;stroke-width:0.8984;}
	.st53{clip-path:url(#SVGID_38_);fill:none;stroke:#241F21;stroke-width:0.8984;}
	.st54{clip-path:url(#SVGID_40_);fill:none;stroke:#241F21;stroke-width:0.8984;}
	.st55{fill:none;stroke:#241F21;stroke-width:0.8984;stroke-dasharray:22.7263,6.6621;}
	.st56{fill:none;stroke:#241F21;stroke-width:0.9362;}
	.st57{fill:none;stroke:#241F21;stroke-width:0.8984;stroke-dasharray:27.9392,8.7142;}
	.st58{clip-path:url(#SVGID_42_);}
	.st59{clip-path:url(#SVGID_44_);}
	.st60{clip-path:url(#SVGID_46_);}
	.st61{fill:none;stroke:#221E1F;stroke-width:0.765;}
	.st62{fill:none;stroke:#221E1F;stroke-width:0.8373;}
	.st63{fill:none;stroke:#221E1F;stroke-width:0.765;stroke-dasharray:21.1617,6.4071;}
	.st64{fill:none;stroke:#221E1F;stroke-width:0.765;stroke-dasharray:24.8189,7.2742;}
	.st65{fill:none;stroke:#303030;stroke-width:0.765;stroke-miterlimit:10;}
	.st66{fill:none;stroke:#221E1F;stroke-width:0.748;}
	.st67{fill:none;stroke:#241F21;stroke-width:1.3086;}
	.st68{fill:none;stroke:#241F21;stroke-width:1.5023;}
	.st69{fill:none;stroke:#241F21;stroke-width:1.1437;}
	.st70{fill:none;stroke:#241F21;stroke-width:1.5023;stroke-dasharray:23.5916,9.5345;}
	.st71{fill:none;stroke:#241F21;stroke-width:1.5023;stroke-dasharray:22.9216,8.8619;}
	.st72{fill:none;stroke:#241F21;stroke-width:1.5023;stroke-dasharray:21.3408,7.2811;}
	.st73{fill:none;stroke:#241F21;stroke-width:1.5023;stroke-dasharray:21.3303,7.2706;}
	.st74{fill:none;stroke:#241F21;stroke-width:1.5023;stroke-dasharray:20.027,5.9673;}
	.st75{fill:#F0F0F0;stroke:#CCCCCC;stroke-miterlimit:10;}
	.st76{fill:#CCCCCC;}
</style>
<g id="editable" class="st0">
</g>
<g id="Flat">
	<g>
		<g>
			<path class="st1" d="M817.2,690.5c-4.5-1-240.5-54.7-240.5-54.7s-31.3-6-38.3-43.2c0,0-5-59.1-5-143.6
				c0-84.5,5.5-171.4,5.5-171.4s3.5-29.3,38.3-40.2l86.9-20.4c0,0,12.4-1,12.9-16.9V135c0,0-4-52.7-63.1-61.6L500,71v0l-0.9,0
				l-0.9,0v0l-113.9,2.4c-59.1,8.9-63.1,61.6-63.1,61.6v65.1c0.5,15.9,12.9,16.9,12.9,16.9l86.9,20.4c34.8,10.9,38.3,40.2,38.3,40.2
				s5.5,86.9,5.5,171.4c0,84.5-5,143.6-5,143.6c-7,37.3-38.3,43.2-38.3,43.2s-236,53.7-240.5,54.7c-4.5,1-9.9,3-10.9,10.4v16.9
				c1,8.4,11.4,11.4,11.4,11.4h314.2h6.8h314.2c0,0,10.4-3,11.4-11.4v-16.9C827.1,693.5,821.7,691.5,817.2,690.5"/>
			<path class="st18" d="M817.2,690.5c-4.5-1-240.5-54.7-240.5-54.7s-31.3-6-38.3-43.2c0,0-5-59.1-5-143.6
				c0-84.5,5.5-171.4,5.5-171.4s3.5-29.3,38.3-40.2l86.9-20.4c0,0,12.4-1,12.9-16.9V135c0,0-4-52.7-63.1-61.6L500,71v0l-0.9,0
				l-0.9,0v0l-113.9,2.4c-59.1,8.9-63.1,61.6-63.1,61.6v65.1c0.5,15.9,12.9,16.9,12.9,16.9l86.9,20.4c34.8,10.9,38.3,40.2,38.3,40.2
				s5.5,86.9,5.5,171.4c0,84.5-5,143.6-5,143.6c-7,37.3-38.3,43.2-38.3,43.2s-236,53.7-240.5,54.7c-4.5,1-9.9,3-10.9,10.4v16.9
				c1,8.4,11.4,11.4,11.4,11.4h314.2h6.8h314.2c0,0,10.4-3,11.4-11.4v-16.9C827.1,693.5,821.7,691.5,817.2,690.5z"/>
		</g>
		<line class="st18" x1="506.1" y1="254" x2="745.9" y2="198"/>
		<line class="st18" x1="500" y1="616.5" x2="615.3" y2="644.6"/>
		<path class="st18" d="M70,71.1h627.5 M321.2,216.1V23.8 M677.9,213.8V26.3 M157.2,253.5h594"/>
		<line class="st18" x1="305.1" y1="448.2" x2="465" y2="448.2"/>
		<path class="st18" d="M67.5,729h760.3 M241.7,216.1h88.4"/>
		<line class="st18" x1="169.9" y1="702.6" x2="169.9" y2="785.7"/>
		<line class="st18" x1="828.2" y1="700" x2="828.2" y2="785.7"/>
		<line class="st18" x1="748" y1="615.9" x2="113.3" y2="615.9"/>
		<g>
			<path class="st6" d="M462.1,31.2v-3.3h-5.7v-1.1l5.5-7.8h1.8v7.6h1.7v1.3h-1.7v3.3H462.1z M462.1,26.6v-4.1c0-0.6,0-1.3,0.1-1.9
				h-0.1c-0.4,0.7-0.7,1.2-1,1.8l-3,4.2v0H462.1z"/>
			<path class="st6" d="M466.6,31.2v-1l1.3-1.3c3.1-3,4.5-4.5,4.5-6.4c0-1.2-0.6-2.4-2.4-2.4c-1.1,0-2,0.6-2.6,1l-0.5-1.2
				c0.8-0.7,2-1.2,3.5-1.2c2.6,0,3.7,1.8,3.7,3.6c0,2.3-1.6,4.1-4.2,6.6l-1,0.9v0h5.5v1.4H466.6z"/>
			<path class="st6" d="M476.4,30.2c0-0.7,0.5-1.2,1.1-1.2s1.1,0.5,1.1,1.2c0,0.7-0.4,1.2-1.1,1.2C476.8,31.4,476.4,30.9,476.4,30.2
				z"/>
			<path class="st6" d="M480,28.1c0-1.5,0.9-2.6,2.4-3.3l0-0.1c-1.4-0.6-1.9-1.7-1.9-2.7c0-1.9,1.6-3.3,3.8-3.3c2.4,0,3.6,1.5,3.6,3
				c0,1-0.5,2.1-2,2.9v0.1c1.5,0.6,2.5,1.7,2.5,3.2c0,2.1-1.8,3.6-4.2,3.6C481.5,31.4,480,29.9,480,28.1z M486.6,28
				c0-1.5-1-2.2-2.7-2.7c-1.4,0.4-2.2,1.4-2.2,2.5c-0.1,1.2,0.9,2.3,2.4,2.3C485.6,30.2,486.6,29.3,486.6,28z M482,21.9
				c0,1.2,0.9,1.9,2.3,2.3c1.1-0.4,1.9-1.1,1.9-2.2c0-1-0.6-2-2.1-2C482.8,20,482,20.9,482,21.9z"/>
			<path class="st6" d="M496.8,20.1c-0.3,0-0.8,0-1.2,0.1c-2.6,0.4-4,2.3-4.2,4.3h0.1c0.6-0.8,1.6-1.4,3-1.4c2.2,0,3.7,1.6,3.7,3.9
				c0,2.2-1.5,4.3-4.1,4.3c-2.6,0-4.3-2-4.3-5.2c0-2.4,0.9-4.3,2.1-5.5c1-1,2.4-1.6,3.9-1.8c0.5-0.1,0.9-0.1,1.2-0.1V20.1z
				 M496.3,27.2c0-1.7-1-2.8-2.5-2.8c-1,0-1.9,0.6-2.4,1.5c-0.1,0.2-0.2,0.4-0.2,0.7c0,2,1,3.5,2.7,3.5
				C495.3,30.1,496.3,28.9,496.3,27.2z"/>
			<path class="st6" d="M507.5,18.1c-1.4,1.8-2.4,4.3-2.4,7.7c0,3.3,1,5.8,2.4,7.6h-1.3c-1.2-1.6-2.5-4-2.5-7.6
				c0-3.7,1.3-6.1,2.5-7.7H507.5z"/>
			<path class="st6" d="M512.4,20.5L512.4,20.5l-2.2,1.1l-0.3-1.3l2.7-1.4h1.4v12.2h-1.6V20.5z"/>
			<path class="st6" d="M526,20.5L526,20.5l-2.2,1.1l-0.3-1.3l2.7-1.4h1.4v12.2H526V20.5z"/>
			<path class="st6" d="M535.6,20.5L535.6,20.5l-2.2,1.1l-0.3-1.3l2.7-1.4h1.4v12.2h-1.6V20.5z"/>
			<path class="st6" d="M540.8,31.9l5.2-13.6h1.3l-5.3,13.6H540.8z"/>
			<path class="st6" d="M551.7,20.5L551.7,20.5l-2.2,1.1l-0.3-1.3l2.7-1.4h1.4v12.2h-1.6V20.5z"/>
			<path class="st6" d="M564.8,20.1c-0.3,0-0.8,0-1.2,0.1c-2.6,0.4-4,2.3-4.2,4.3h0.1c0.6-0.8,1.6-1.4,3-1.4c2.2,0,3.7,1.6,3.7,3.9
				c0,2.2-1.5,4.3-4.1,4.3c-2.6,0-4.3-2-4.3-5.2c0-2.4,0.9-4.3,2.1-5.5c1-1,2.4-1.6,3.9-1.8c0.5-0.1,0.9-0.1,1.2-0.1V20.1z
				 M564.3,27.2c0-1.7-1-2.8-2.5-2.8c-1,0-1.9,0.6-2.4,1.5c-0.1,0.2-0.2,0.4-0.2,0.7c0,2,1,3.5,2.7,3.5
				C563.3,30.1,564.3,28.9,564.3,27.2z"/>
			<path class="st6" d="M569.2,18.3l-0.3,4.5h-1l-0.3-4.5H569.2z M572,18.3l-0.3,4.5h-1l-0.3-4.5H572z"/>
		</g>
		<g>
			<path class="st6" d="M573.4,33.5c1.3-1.9,2.4-4.3,2.4-7.7c0-3.4-1-5.8-2.4-7.6h1.3c1.2,1.5,2.5,3.9,2.5,7.7
				c0,3.7-1.3,6.1-2.5,7.7H573.4z"/>
		</g>
		<line class="st18" x1="335.8" y1="37.2" x2="662.4" y2="37.2"/>
		<polygon class="st4" points="339.2,41.9 320.8,37 339.2,32.1 		"/>
		<polygon class="st4" points="659.1,41.9 677.4,37 659.1,32.1 		"/>
		<g>
			<path class="st6" d="M699.1,47.1c0.6-0.6,1.5-1.3,2.5-1.9c1.5-1,2.6-1.3,3.6-1.1c0.8,0.1,1.6,0.7,2.1,1.5c0.9,1.4,0.6,2.9-0.2,4
				l0,0c1-0.3,2,0.2,3,1.1c1.3,1.3,2.2,2.1,2.7,2.4l-1.4,0.9c-0.4-0.2-1.2-0.9-2.4-2.1c-1.3-1.3-2.2-1.4-3.5-0.7l-1.3,0.8l3,4.6
				l-1.4,0.9L699.1,47.1z M703.6,51.1l1.4-0.9c1.5-1,1.9-2.4,1.1-3.6c-0.9-1.4-2.3-1.3-3.7-0.4c-0.7,0.4-1.1,0.8-1.3,1L703.6,51.1z"
				/>
		</g>
		<g>
			<path class="st6" d="M713.9,37.8l0.6,0.9l1.6,12.2l-1.4,0.9l-1.5-12l0,0l-5,3.3l-0.7-1.1L713.9,37.8z"/>
		</g>
		<g>
			<path class="st6" d="M721.6,46.2c-0.4-0.6-0.3-1.2,0.3-1.6c0.6-0.4,1.2-0.2,1.6,0.4c0.4,0.6,0.3,1.2-0.3,1.6
				C722.7,47,722,46.8,721.6,46.2z"/>
		</g>
		<g>
			<path class="st6" d="M725.5,43.5c0.3-0.2,0.6-0.4,1.1-0.8c0.7-0.6,1.3-1.5,1.5-2.4c0.3-1.1,0.2-2.3-0.4-3.6l0,0
				c-0.1,1.1-0.7,2-1.7,2.7c-1.8,1.2-3.9,0.6-5.1-1.2c-1.3-1.9-1-4.6,1.1-5.9c2.1-1.4,4.5-0.5,6.2,2.1c1.5,2.3,1.7,4.3,1.4,6
				c-0.3,1.3-1.1,2.5-2.1,3.3c-0.5,0.4-0.9,0.7-1.2,0.9L725.5,43.5z M722.1,37.3c0.8,1.3,2.2,1.7,3.4,0.9c0.9-0.6,1.4-1.5,1.3-2.4
				c0-0.2-0.1-0.4-0.2-0.6c-1.1-1.7-2.7-2.7-4.1-1.7C721.4,34.2,721.2,35.8,722.1,37.3z"/>
		</g>
		<g>
			<path class="st6" d="M733.1,24.4c-0.1,2.3,0.4,4.9,2.2,7.7c1.8,2.8,4,4.3,6.2,5.1l-1.1,0.7c-1.8-0.7-4.2-2-6.2-5
				c-2-3.1-2.3-5.8-2.1-7.8L733.1,24.4z"/>
		</g>
		<g>
			<path class="st6" d="M741.4,21.6l-3.9,2.5l1.3,2.9c0.2-0.2,0.4-0.4,0.8-0.6c0.8-0.5,1.7-0.9,2.6-0.9c1.1-0.1,2.3,0.4,3.2,1.7
				c1.3,2,0.7,4.5-1.5,6c-1.1,0.7-2.3,1-3,1l-0.3-1.3c0.6,0,1.6-0.3,2.6-0.9c1.3-0.9,1.9-2.4,1-3.8c-0.9-1.3-2.4-1.7-4.4-0.3
				c-0.6,0.4-1,0.7-1.3,1l-2.5-5.3l4.9-3.2L741.4,21.6z"/>
		</g>
		<g>
			<path class="st6" d="M749,30.4l-3-14.3l1.1-0.7l3,14.3L749,30.4z"/>
		</g>
		<g>
			<path class="st6" d="M751.9,14.9L751.9,14.9l-1.2,2.1l-1-0.9l1.5-2.7l1.2-0.8l6.7,10.2l-1.3,0.9L751.9,14.9z"/>
		</g>
		<g>
			<path class="st6" d="M762.6,7.5c-0.3,0.2-0.6,0.4-1,0.7c-1.9,1.8-2.1,4.1-1.2,6l0,0c0.1-1,0.6-2.1,1.7-2.8
				c1.8-1.2,3.9-0.7,5.2,1.3c1.2,1.9,1.1,4.4-1.1,5.8c-2.2,1.4-4.7,0.7-6.5-2c-1.3-2-1.6-4.1-1.3-5.7c0.3-1.4,1.1-2.6,2.3-3.6
				c0.4-0.3,0.7-0.6,1-0.7L762.6,7.5z M766.1,13.6c-1-1.5-2.4-1.8-3.6-1c-0.8,0.5-1.3,1.6-1.2,2.6c0,0.2,0.1,0.5,0.2,0.7
				c1.1,1.7,2.7,2.4,4.2,1.5C766.9,16.6,767,15.1,766.1,13.6z"/>
		</g>
		<g>
			<path class="st6" d="M765.4,3.5l2.2,4L766.7,8L764,4.4L765.4,3.5z M767.7,2l2.2,4l-0.8,0.5l-2.7-3.6L767.7,2z"/>
		</g>
		<g>
			<path class="st6" d="M777.1,14c0.1-2.3-0.4-4.9-2.2-7.7c-1.8-2.8-4-4.3-6.2-5.1l1.1-0.7c1.9,0.6,4.2,2,6.2,5.1
				c2,3.1,2.3,5.8,2.1,7.8L777.1,14z"/>
		</g>
		<line class="st18" x1="781.8" y1="15.3" x2="669.6" y2="89.1"/>
		<polygon class="st4" points="669.8,84.4 659.7,95.8 674.1,91 		"/>
		<line class="st19" x1="184.5" y1="777.4" x2="813.6" y2="777.4"/>
		<polygon class="st4" points="187.8,782 169.9,777.2 187.8,772.4 		"/>
		<polygon class="st4" points="810.4,782 828.3,777.2 810.4,772.4 		"/>
		<line class="st18" x1="500" y1="55.2" x2="500" y2="59.3"/>
		<line class="st20" x1="500" y1="67.5" x2="500" y2="736"/>
		<line class="st18" x1="500" y1="740.1" x2="500" y2="744.2"/>
		<g>
			<path class="st4" d="M508.7,66.6v-4.9l-4.4-6.6h1.8l2.3,3.5c0.4,0.6,0.8,1.3,1.2,1.9c0.3-0.6,0.8-1.3,1.3-2l2.2-3.4h1.8l-4.6,6.6
				v4.9H508.7z"/>
			<path class="st4" d="M508.7,744.2v-4.9l-4.4-6.6h1.8l2.3,3.5c0.4,0.6,0.8,1.3,1.2,1.9c0.3-0.6,0.8-1.3,1.3-2l2.2-3.4h1.8
				l-4.6,6.6v4.9H508.7z"/>
		</g>
		<g>
			<path class="st6" d="M759.7,218.6L759.7,218.6l-2.2,1.1l-0.3-1.3l2.7-1.4h1.4v12.2h-1.6V218.6z"/>
			<path class="st6" d="M766.2,227.4c0.5,0.3,1.6,0.8,2.7,0.8c2.1,0,2.8-1.4,2.8-2.4c0-1.7-1.6-2.4-3.2-2.4h-0.9v-1.2h0.9
				c1.2,0,2.7-0.6,2.7-2.1c0-1-0.6-1.8-2.1-1.8c-1,0-1.9,0.4-2.4,0.8l-0.4-1.2c0.6-0.5,1.9-0.9,3.2-0.9c2.4,0,3.5,1.4,3.5,2.9
				c0,1.3-0.8,2.3-2.3,2.9v0c1.5,0.3,2.7,1.4,2.7,3.1c0,2-1.5,3.7-4.5,3.7c-1.4,0-2.6-0.4-3.2-0.8L766.2,227.4z"/>
			<path class="st6" d="M780.1,218.9c0,1.5-1.2,2.5-2.5,2.5c-1.5,0-2.5-1.1-2.5-2.4c0-1.4,1.1-2.5,2.5-2.5
				C779.2,216.4,780.1,217.6,780.1,218.9z M776.1,219c0,0.9,0.6,1.5,1.5,1.5c0.8,0,1.5-0.7,1.5-1.6c0-0.7-0.4-1.6-1.5-1.6
				C776.6,217.3,776.1,218.1,776.1,219z"/>
		</g>
		<g>
			<path class="st18" d="M739.3,249c0,0,8.8-9.5,8.8-19.7c0-12.3-5.7-20-5.7-20"/>
		</g>
		<polygon class="st6" points="748.7,243.3 736.1,253.5 741.7,238.2 		"/>
		<polygon class="st6" points="740.7,214.3 733.7,199.5 747.3,208.6 		"/>
		<g>
			<path class="st6" d="M752.4,635L752.4,635l-2.2,1.1l-0.3-1.3l2.7-1.4h1.4v12.2h-1.6V635z"/>
			<path class="st6" d="M758.9,643.8c0.5,0.3,1.6,0.8,2.7,0.8c2.1,0,2.8-1.4,2.8-2.4c0-1.7-1.6-2.4-3.2-2.4h-0.9v-1.2h0.9
				c1.2,0,2.7-0.6,2.7-2.1c0-1-0.6-1.8-2.1-1.8c-1,0-1.9,0.4-2.4,0.8l-0.4-1.2c0.6-0.5,1.9-0.9,3.2-0.9c2.4,0,3.5,1.4,3.5,2.9
				c0,1.3-0.8,2.3-2.3,2.9v0c1.5,0.3,2.7,1.4,2.7,3.1c0,2-1.5,3.7-4.5,3.7c-1.4,0-2.6-0.4-3.2-0.8L758.9,643.8z"/>
			<path class="st6" d="M772.8,635.3c0,1.5-1.2,2.5-2.5,2.5c-1.5,0-2.5-1.1-2.5-2.4c0-1.4,1.1-2.5,2.5-2.5
				C771.9,632.8,772.8,634,772.8,635.3z M768.9,635.4c0,0.9,0.6,1.5,1.5,1.5c0.8,0,1.5-0.7,1.5-1.6c0-0.7-0.4-1.6-1.5-1.6
				C769.4,633.7,768.9,634.6,768.9,635.4z"/>
		</g>
		<g>
			<path class="st18" d="M732.1,665.4c0,0,8.8-9.5,8.8-19.7c0-12.3-5.7-20-5.7-20"/>
		</g>
		<polygon class="st6" points="741.5,659.7 728.8,669.9 734.4,654.6 		"/>
		<polygon class="st6" points="733.4,630.7 726.4,615.9 740,625 		"/>
		<g>
			<path class="st6" d="M583.4,392.5c0.8-0.2,2-0.3,3.1-0.2c1.7,0,2.9,0.3,3.7,1.1c0.6,0.6,1,1.4,1,2.4c0,1.7-1.1,2.8-2.4,3.2v0.1
				c1,0.3,1.6,1.2,1.8,2.6c0.4,1.8,0.7,3,1,3.5l-1.7,0c-0.2-0.4-0.5-1.5-0.8-3c-0.4-1.7-1-2.4-2.5-2.5l-1.5,0l0,5.5l-1.6,0
				L583.4,392.5z M585,398.3l1.7,0c1.7,0,2.9-0.9,2.9-2.4c0-1.6-1.2-2.4-2.9-2.4c-0.8,0-1.4,0.1-1.6,0.1L585,398.3z"/>
		</g>
		<g>
			<path class="st6" d="M593.2,403.2c0.5,0.3,1.6,0.8,2.7,0.8c2.1,0,2.8-1.3,2.8-2.4c0-1.7-1.5-2.5-3.1-2.5l-0.9,0l0-1.2l0.9,0
				c1.2,0,2.7-0.6,2.7-2.1c0-1-0.6-1.8-2.1-1.9c-1,0-1.9,0.4-2.4,0.8l-0.4-1.2c0.6-0.5,1.9-0.9,3.2-0.9c2.4,0,3.5,1.4,3.5,2.9
				c0,1.3-0.8,2.3-2.3,2.9v0c1.5,0.3,2.7,1.4,2.7,3.2c0,2-1.5,3.7-4.5,3.6c-1.4,0-2.6-0.4-3.2-0.8L593.2,403.2z"/>
		</g>
		<g>
			<path class="st6" d="M610.7,399c0,4.2-1.6,6.4-4.3,6.4c-2.4,0-4-2.3-4-6.3c0-4.1,1.8-6.3,4.3-6.3
				C609.2,392.8,610.7,395.1,610.7,399z M604,399.1c0,3.2,0.9,5,2.5,5c1.7,0,2.5-2,2.5-5.1c0-3-0.7-5-2.5-5
				C605.1,394,604,395.8,604,399.1z"/>
		</g>
		<g>
			<path class="st6" d="M617.3,405.2l0-3.3l-5.7,0l0-1.1l5.5-7.8l1.8,0l0,7.6l1.7,0l0,1.3l-1.7,0l0,3.3L617.3,405.2z M617.3,400.6
				l0-4.1c0-0.6,0-1.3,0.1-1.9h-0.1c-0.4,0.7-0.7,1.2-1,1.8l-3,4.1v0L617.3,400.6z"/>
		</g>
		<g>
			<path class="st6" d="M622,404.3c0-0.7,0.5-1.2,1.1-1.2s1.1,0.5,1.1,1.2c0,0.7-0.4,1.2-1.1,1.2C622.4,405.5,622,405,622,404.3z"/>
			<path class="st6" d="M625.6,402.2c0-1.5,0.9-2.6,2.4-3.3l0-0.1c-1.3-0.6-1.9-1.7-1.9-2.8c0-1.9,1.7-3.2,3.8-3.2
				c2.4,0,3.5,1.5,3.5,3c0,1-0.5,2.1-2,2.8l0,0.1c1.5,0.6,2.5,1.7,2.4,3.2c0,2.1-1.8,3.5-4.2,3.5C627.1,405.5,625.6,404,625.6,402.2
				z M632.2,402.1c0-1.5-1-2.2-2.7-2.7c-1.4,0.4-2.2,1.3-2.2,2.5c-0.1,1.2,0.9,2.3,2.4,2.3C631.2,404.3,632.2,403.4,632.2,402.1z
				 M627.7,396c0,1.2,0.9,1.9,2.3,2.3c1.1-0.4,1.9-1.1,1.9-2.2c0-1-0.6-2-2.1-2C628.4,394.1,627.7,395,627.7,396z"/>
		</g>
		<g>
			<path class="st6" d="M643.6,399.1c0,4.2-1.6,6.4-4.3,6.4c-2.4,0-4-2.3-4-6.3c0-4.1,1.8-6.3,4.3-6.3
				C642.1,393,643.6,395.3,643.6,399.1z M636.9,399.3c0,3.2,0.9,5,2.5,5c1.7,0,2.5-2,2.5-5.1c0-3-0.7-5-2.5-5
				C638,394.2,636.9,396,636.9,399.3z"/>
		</g>
		<g>
			<path class="st6" d="M653.2,392.4c-1.4,1.8-2.4,4.3-2.4,7.7c0,3.3,1,5.8,2.3,7.6l-1.3,0c-1.2-1.6-2.4-4-2.4-7.6
				c0-3.7,1.3-6.1,2.5-7.7L653.2,392.4z"/>
		</g>
		<g>
			<path class="st6" d="M658,394.8L658,394.8l-2.2,1.1l-0.3-1.3l2.7-1.4l1.4,0l-0.1,12.2l-1.6,0L658,394.8z"/>
		</g>
		<g>
			<path class="st6" d="M664.1,405.5l0-1l1.3-1.3c3.1-3,4.6-4.5,4.6-6.4c0-1.2-0.6-2.4-2.4-2.4c-1.1,0-2,0.6-2.6,1l-0.5-1.2
				c0.8-0.7,2.1-1.2,3.5-1.2c2.6,0,3.7,1.8,3.7,3.6c0,2.3-1.7,4.1-4.2,6.5l-1,0.9v0l5.5,0l0,1.4L664.1,405.5z"/>
		</g>
		<g>
			<path class="st6" d="M675.5,392.7l-0.3,4.5l-1,0l-0.3-4.5L675.5,392.7z M678.3,392.7l-0.3,4.5l-1,0l-0.3-4.5L678.3,392.7z"/>
			<path class="st6" d="M679.6,407.9c1.3-1.9,2.4-4.3,2.4-7.7c0-3.4-1-5.8-2.3-7.6l1.3,0c1.2,1.5,2.4,4,2.4,7.7
				c0,3.7-1.3,6.1-2.5,7.7L679.6,407.9z"/>
		</g>
		<g>
			<path class="st6" d="M307.6,438.2c0-1.5,0.9-2.6,2.4-3.3l0-0.1c-1.3-0.6-1.9-1.7-1.9-2.8c0-1.9,1.7-3.2,3.8-3.2
				c2.4,0,3.5,1.5,3.5,3c0,1-0.5,2.1-2,2.8l0,0.1c1.5,0.6,2.5,1.7,2.4,3.2c0,2.1-1.8,3.5-4.2,3.5
				C309.2,441.5,307.6,439.9,307.6,438.2z M314.2,438.1c0-1.5-1-2.2-2.7-2.7c-1.4,0.4-2.2,1.3-2.2,2.5c-0.1,1.2,0.9,2.3,2.4,2.3
				C313.2,440.3,314.2,439.4,314.2,438.1z M309.7,432c0,1.2,0.9,1.9,2.3,2.3c1.1-0.4,1.9-1.1,1.9-2.2c0-1-0.6-2-2.1-2
				C310.5,430,309.7,430.9,309.7,432z"/>
		</g>
		<g>
			<path class="st6" d="M317.6,440.3c0-0.7,0.5-1.2,1.1-1.2s1.1,0.5,1.1,1.2c0,0.7-0.4,1.2-1.1,1.2C318,441.5,317.6,441,317.6,440.3
				z"/>
			<path class="st6" d="M321.7,439.4c0.5,0.3,1.6,0.8,2.7,0.8c2.1,0,2.8-1.3,2.8-2.4c0-1.7-1.5-2.5-3.1-2.5l-0.9,0l0-1.2l0.9,0
				c1.2,0,2.7-0.6,2.7-2.1c0-1-0.6-1.8-2.1-1.9c-1,0-1.9,0.4-2.4,0.8l-0.4-1.2c0.6-0.5,1.9-0.9,3.2-0.9c2.4,0,3.5,1.4,3.5,2.9
				c0,1.3-0.8,2.3-2.3,2.9v0c1.5,0.3,2.7,1.4,2.7,3.2c0,2-1.5,3.7-4.5,3.6c-1.4,0-2.6-0.4-3.2-0.8L321.7,439.4z"/>
		</g>
		<g>
			<path class="st6" d="M331.4,439.5c0.5,0.3,1.6,0.8,2.7,0.8c2.1,0,2.8-1.3,2.8-2.4c0-1.7-1.5-2.5-3.1-2.5l-0.9,0l0-1.2l0.9,0
				c1.2,0,2.7-0.6,2.7-2.1c0-1-0.6-1.8-2.1-1.9c-1,0-1.9,0.4-2.4,0.8l-0.4-1.2c0.6-0.5,1.9-0.9,3.2-0.9c2.4,0,3.5,1.4,3.5,2.9
				c0,1.3-0.8,2.3-2.3,2.9v0c1.5,0.3,2.7,1.4,2.7,3.2c0,2-1.5,3.7-4.5,3.6c-1.4,0-2.6-0.4-3.2-0.8L331.4,439.5z"/>
		</g>
		<g>
			<path class="st6" d="M348.8,428.5c-1.4,1.8-2.4,4.3-2.4,7.7c0,3.3,1,5.8,2.3,7.6l-1.3,0c-1.2-1.6-2.4-4-2.4-7.6
				c0-3.7,1.3-6.1,2.5-7.7L348.8,428.5z"/>
		</g>
		<g>
			<path class="st6" d="M350,441.5l0-1l1.3-1.3c3.1-3,4.6-4.5,4.6-6.4c0-1.2-0.6-2.4-2.4-2.4c-1.1,0-2,0.6-2.6,1l-0.5-1.2
				c0.8-0.7,2.1-1.2,3.5-1.2c2.6,0,3.7,1.8,3.7,3.6c0,2.3-1.7,4.1-4.2,6.5l-1,0.9v0l5.5,0l0,1.4L350,441.5z"/>
		</g>
		<g>
			<path class="st6" d="M363.3,430.9L363.3,430.9l-2.2,1.1l-0.3-1.3l2.7-1.4l1.4,0l-0.1,12.2l-1.6,0L363.3,430.9z"/>
		</g>
		<g>
			<path class="st6" d="M368.5,442.4l5.3-13.6l1.3,0l-5.3,13.6L368.5,442.4z"/>
			<path class="st6" d="M382.8,430.6c-0.3,0-0.8,0-1.2,0.1c-2.6,0.4-4,2.3-4.3,4.3l0.1,0c0.6-0.8,1.6-1.4,3-1.4c2.2,0,3.7,1.6,3.7,4
				c0,2.2-1.5,4.3-4.1,4.3c-2.6,0-4.3-2.1-4.3-5.2c0-2.4,0.9-4.3,2.1-5.5c1-1,2.4-1.6,3.9-1.8c0.5-0.1,0.9-0.1,1.2-0.1L382.8,430.6z
				 M382.3,437.7c0-1.7-1-2.8-2.5-2.8c-1,0-1.9,0.6-2.4,1.5c-0.1,0.2-0.2,0.4-0.2,0.7c0,2,0.9,3.5,2.7,3.5
				C381.3,440.6,382.3,439.4,382.3,437.7z"/>
		</g>
		<g>
			<path class="st6" d="M390.5,441.7l0-3.3l-5.7,0l0-1.1l5.5-7.8l1.8,0l0,7.6l1.7,0l0,1.3l-1.7,0l0,3.3L390.5,441.7z M390.6,437.1
				l0-4.1c0-0.6,0-1.3,0.1-1.9h-0.1c-0.4,0.7-0.7,1.2-1,1.8l-3,4.1v0L390.6,437.1z"/>
		</g>
		<g>
			<path class="st6" d="M396.9,428.9l-0.3,4.5l-1,0l-0.3-4.5L396.9,428.9z M399.7,428.9l-0.3,4.5l-1,0l-0.3-4.5L399.7,428.9z"/>
			<path class="st6" d="M401,444.1c1.3-1.9,2.4-4.3,2.4-7.7c0-3.4-1-5.8-2.3-7.6l1.3,0c1.2,1.5,2.4,4,2.4,7.7c0,3.7-1.3,6.1-2.5,7.7
				L401,444.1z"/>
		</g>
		<line class="st18" x1="681.2" y1="411.6" x2="546.9" y2="411.3"/>
		<polygon class="st4" points="549.6,407.6 534.9,411.5 549.5,415.4 		"/>
		<g>
			<path class="st6" d="M864.8,646.1c0.6-0.6,1.5-1.3,2.5-1.9c1.5-1,2.6-1.3,3.6-1.1c0.8,0.1,1.6,0.7,2.1,1.5c0.9,1.4,0.6,2.9-0.2,4
				l0,0c1-0.3,2,0.2,3,1.1c1.3,1.3,2.2,2.1,2.7,2.4l-1.4,0.9c-0.4-0.2-1.2-0.9-2.4-2.1c-1.3-1.3-2.2-1.4-3.5-0.7l-1.3,0.8l3,4.6
				l-1.4,0.9L864.8,646.1z M869.3,650l1.4-0.9c1.5-1,1.9-2.4,1.1-3.6c-0.9-1.4-2.3-1.3-3.7-0.4c-0.7,0.4-1.1,0.8-1.3,1L869.3,650z"
				/>
		</g>
		<g>
			<path class="st6" d="M876.8,640.5L876.8,640.5l-1.2,2.1l-1-0.9l1.5-2.7l1.2-0.8l6.7,10.2l-1.3,0.9L876.8,640.5z"/>
		</g>
		<g>
			<path class="st6" d="M887.3,645.2c-0.4-0.6-0.3-1.2,0.3-1.6c0.6-0.4,1.2-0.2,1.6,0.4c0.4,0.6,0.3,1.2-0.3,1.6
				C888.3,645.9,887.6,645.8,887.3,645.2z"/>
		</g>
		<g>
			<path class="st6" d="M890.7,630.9c-0.3,0.2-0.6,0.4-1,0.7c-1.9,1.8-2.1,4.1-1.2,6l0,0c0.1-1,0.6-2.1,1.7-2.8
				c1.8-1.2,3.9-0.7,5.2,1.3c1.2,1.9,1.1,4.4-1.1,5.8c-2.2,1.4-4.7,0.7-6.5-2c-1.3-2-1.6-4.1-1.3-5.7c0.3-1.4,1.1-2.6,2.3-3.6
				c0.4-0.3,0.7-0.6,1-0.7L890.7,630.9z M894.2,637c-1-1.5-2.4-1.8-3.6-1c-0.8,0.5-1.3,1.6-1.2,2.6c0,0.2,0.1,0.5,0.2,0.7
				c1.1,1.7,2.7,2.4,4.2,1.5C895,640,895.2,638.5,894.2,637z"/>
		</g>
		<g>
			<path class="st6" d="M898.7,623.3c-0.1,2.3,0.4,4.9,2.2,7.7c1.8,2.8,4,4.3,6.2,5.1l-1.1,0.7c-1.8-0.7-4.2-2-6.2-5
				c-2-3.1-2.3-5.8-2.1-7.8L898.7,623.3z"/>
		</g>
		<g>
			<path class="st6" d="M904,622.7L904,622.7l-1.2,2.1l-1-0.9l1.5-2.7l1.2-0.8l6.7,10.2l-1.3,0.9L904,622.7z"/>
		</g>
		<g>
			<path class="st6" d="M914.6,629.4l-3-14.3l1.1-0.7l3,14.3L914.6,629.4z"/>
		</g>
		<g>
			<path class="st6" d="M917.5,613.9L917.5,613.9l-1.2,2.1l-1-0.9l1.5-2.7l1.2-0.8l6.7,10.2l-1.3,0.9L917.5,613.9z"/>
		</g>
		<g>
			<path class="st6" d="M928.3,606.4c-0.3,0.2-0.6,0.4-1,0.7c-1.9,1.8-2,4.1-1.2,6l0,0c0.1-1,0.6-2.1,1.7-2.8
				c1.8-1.2,3.9-0.7,5.2,1.3c1.2,1.9,1.1,4.4-1.1,5.8c-2.2,1.4-4.7,0.7-6.5-2c-1.3-2-1.6-4.1-1.3-5.7c0.3-1.4,1.1-2.6,2.3-3.6
				c0.4-0.3,0.7-0.6,1-0.7L928.3,606.4z M931.7,612.6c-1-1.5-2.4-1.8-3.6-1c-0.8,0.5-1.3,1.6-1.2,2.6c0,0.2,0.1,0.5,0.2,0.7
				c1.1,1.7,2.7,2.4,4.2,1.5C932.5,615.6,932.7,614.1,931.7,612.6z"/>
		</g>
		<g>
			<path class="st6" d="M931,602.5l2.2,4l-0.8,0.6l-2.7-3.6L931,602.5z M933.3,601l2.2,4l-0.8,0.5l-2.7-3.6L933.3,601z"/>
		</g>
		<g>
			<path class="st6" d="M942.7,612.9c0.1-2.3-0.4-4.9-2.2-7.7c-1.8-2.8-4-4.3-6.2-5.1l1.1-0.7c1.8,0.6,4.2,2,6.2,5.1
				c2,3.1,2.3,5.8,2.1,7.8L942.7,612.9z"/>
		</g>
		<line class="st18" x1="947.4" y1="614.3" x2="835.2" y2="688"/>
		<polygon class="st4" points="835.4,683.4 825.3,694.7 839.7,690 		"/>
		<line class="st18" x1="83.7" y1="714.3" x2="83.7" y2="85.9"/>
		<polygon class="st4" points="88.4,711 83.5,729.3 78.6,711 		"/>
		<polygon class="st4" points="88.4,89.3 83.5,70.9 78.6,89.3 		"/>
		<g>
			<path class="st6" d="M162.1,205.3h-1l-1.3-1.3c-3-3.1-4.5-4.5-6.4-4.5c-1.2,0-2.4,0.6-2.4,2.4c0,1.1,0.6,2,1,2.6l-1.2,0.5
				c-0.7-0.8-1.2-2-1.2-3.5c0-2.6,1.8-3.7,3.6-3.7c2.3,0,4.1,1.6,6.6,4.2l0.9,1h0v-5.5h1.4V205.3z"/>
			<path class="st6" d="M162.1,195.7h-1l-1.3-1.3c-3-3.1-4.5-4.5-6.4-4.5c-1.2,0-2.4,0.6-2.4,2.4c0,1.1,0.6,2,1,2.6l-1.2,0.5
				c-0.7-0.8-1.2-2-1.2-3.5c0-2.6,1.8-3.7,3.6-3.7c2.3,0,4.1,1.6,6.6,4.2l0.9,1h0v-5.5h1.4V195.7z"/>
			<path class="st6" d="M161.1,185.9c-0.7,0-1.2-0.5-1.2-1.1s0.5-1.1,1.2-1.1c0.7,0,1.2,0.4,1.2,1.1
				C162.3,185.5,161.8,185.9,161.1,185.9z"/>
			<path class="st6" d="M162.1,182.1h-1l-1.3-1.3c-3-3.1-4.5-4.5-6.4-4.5c-1.2,0-2.4,0.6-2.4,2.4c0,1.1,0.6,2,1,2.6l-1.2,0.5
				c-0.7-0.8-1.2-2-1.2-3.5c0-2.6,1.8-3.7,3.6-3.7c2.3,0,4.1,1.6,6.6,4.2l0.9,1h0v-5.5h1.4V182.1z"/>
			<path class="st6" d="M155.9,164.4c4.2,0,6.4,1.5,6.4,4.2c0,2.4-2.2,4-6.3,4c-4.1,0-6.4-1.8-6.4-4.2
				C149.7,165.8,152,164.4,155.9,164.4z M156,171c3.2,0,5-1,5-2.5c0-1.7-2-2.5-5.1-2.5c-3,0-5,0.8-5,2.5C151,170,152.7,171,156,171z
				"/>
			<path class="st6" d="M149.1,154.7c1.8,1.4,4.3,2.4,7.7,2.4c3.3,0,5.8-1,7.6-2.4v1.3c-1.6,1.2-4,2.5-7.6,2.5
				c-3.7,0-6.1-1.3-7.7-2.5V154.7z"/>
			<path class="st6" d="M149.9,145.6h1.1l11.1,5.3v1.7l-10.8-5.3h0v6h-1.4V145.6z"/>
			<path class="st6" d="M162.9,144.7l-13.6-5.2v-1.3l13.6,5.3V144.7z"/>
			<path class="st6" d="M159,137.6c-1.5,0-2.6-0.9-3.3-2.4l-0.1,0c-0.6,1.4-1.7,1.9-2.7,1.9c-1.9,0-3.3-1.6-3.3-3.8
				c0-2.4,1.5-3.6,3-3.6c1,0,2.1,0.5,2.9,2h0.1c0.6-1.5,1.7-2.5,3.2-2.5c2.1,0,3.6,1.8,3.6,4.2C162.3,136,160.8,137.6,159,137.6z
				 M152.8,135.5c1.2,0,1.9-0.9,2.3-2.3c-0.4-1.1-1.1-1.9-2.2-1.9c-1,0-2,0.6-2,2.1C150.9,134.8,151.8,135.5,152.8,135.5z
				 M158.9,131c-1.5,0-2.2,1-2.7,2.7c0.4,1.4,1.4,2.2,2.5,2.2c1.2,0.1,2.3-0.9,2.3-2.4C161.1,132,160.2,131,158.9,131z"/>
			<path class="st6" d="M149.2,123.2l4.5,0.3v1l-4.5,0.3V123.2z M149.2,126l4.5,0.3v1l-4.5,0.3V126z"/>
			<path class="st6" d="M164.4,121.9c-1.9-1.3-4.3-2.4-7.7-2.4c-3.4,0-5.8,1-7.6,2.4v-1.3c1.5-1.2,3.9-2.5,7.7-2.5
				c3.7,0,6.1,1.3,7.7,2.5V121.9z"/>
		</g>
		<g>
			<path class="st6" d="M241.9,195L241.9,195l1.1,2.2l-1.3,0.3l-1.4-2.7v-1.4h12.2v1.6H241.9z"/>
			<path class="st6" d="M240.3,181h1.1l11.1,5.3v1.7l-10.8-5.3h0v6h-1.4V181z"/>
			<path class="st6" d="M251.6,179.2c-0.7,0-1.2-0.5-1.2-1.1s0.5-1.1,1.2-1.1c0.7,0,1.2,0.4,1.2,1.1
				C252.8,178.7,252.3,179.2,251.6,179.2z"/>
			<path class="st6" d="M252.6,175.4h-1l-1.3-1.3c-3-3.1-4.5-4.5-6.4-4.5c-1.2,0-2.4,0.6-2.4,2.4c0,1.1,0.6,2,1,2.6l-1.2,0.5
				c-0.7-0.8-1.2-2-1.2-3.5c0-2.6,1.8-3.7,3.6-3.7c2.3,0,4.1,1.6,6.6,4.2l0.9,1h0v-5.5h1.4V175.4z"/>
			<path class="st6" d="M240.3,157.8h1.1l11.1,5.3v1.7l-10.8-5.3h0v6h-1.4V157.8z"/>
			<path class="st6" d="M239.5,148c1.8,1.4,4.3,2.4,7.7,2.4c3.3,0,5.8-1,7.6-2.4v1.3c-1.6,1.2-4,2.5-7.6,2.5c-3.7,0-6.1-1.3-7.7-2.5
				V148z"/>
			<path class="st6" d="M241.9,143.2L241.9,143.2l1.1,2.2l-1.3,0.3l-1.4-2.7v-1.4h12.2v1.6H241.9z"/>
			<path class="st6" d="M241.9,133.6L241.9,133.6l1.1,2.2l-1.3,0.3l-1.4-2.7V132h12.2v1.6H241.9z"/>
			<path class="st6" d="M253.3,128.4l-13.6-5.2v-1.3l13.6,5.3V128.4z"/>
			<path class="st6" d="M241.9,117.5L241.9,117.5l1.1,2.2l-1.3,0.3l-1.4-2.7v-1.4h12.2v1.6H241.9z"/>
			<path class="st6" d="M241.5,104.4c0,0.3,0,0.8,0.1,1.2c0.4,2.6,2.3,4,4.3,4.2v-0.1c-0.8-0.6-1.4-1.6-1.4-3c0-2.2,1.6-3.7,3.9-3.7
				c2.2,0,4.3,1.5,4.3,4.1c0,2.6-2,4.3-5.2,4.3c-2.4,0-4.3-0.9-5.5-2.1c-1-1-1.6-2.4-1.8-3.9c-0.1-0.5-0.1-0.9-0.1-1.2H241.5z
				 M248.6,104.9c-1.7,0-2.8,1-2.8,2.5c0,1,0.6,1.9,1.5,2.4c0.2,0.1,0.4,0.2,0.7,0.2c2,0,3.5-1,3.5-2.7
				C251.5,105.9,250.3,104.9,248.6,104.9z"/>
			<path class="st6" d="M239.7,97.2l4.5,0.3v1l-4.5,0.3V97.2z M239.7,100l4.5,0.3v1l-4.5,0.3V100z"/>
		</g>
		<g>
			<path class="st6" d="M254.8,95.8c-1.9-1.3-4.3-2.4-7.7-2.4c-3.4,0-5.8,1-7.6,2.4v-1.3c1.5-1.2,3.9-2.5,7.7-2.5
				c3.7,0,6.1,1.3,7.7,2.5V95.8z"/>
		</g>
		<line class="st18" x1="480" y1="448.3" x2="518.5" y2="448.3"/>
		<polygon class="st4" points="483.3,453 465,448.1 483.3,443.1 		"/>
		<polygon class="st4" points="515.1,453 533.5,448.1 515.1,443.1 		"/>
		<g>
			<path class="st6" d="M359.9,169.2c0.7-0.5,1.7-1.1,2.8-1.5c1.6-0.7,2.8-0.9,3.8-0.5c0.8,0.3,1.5,0.9,1.9,1.8
				c0.7,1.5,0.2,3-0.9,3.9l0,0.1c1-0.1,1.9,0.5,2.7,1.6c1.1,1.4,1.9,2.4,2.3,2.8l-1.5,0.7c-0.3-0.2-1-1.1-2-2.4
				c-1.1-1.4-1.9-1.8-3.3-1.2l-1.4,0.6l2.2,5l-1.5,0.7L359.9,169.2z M363.7,173.8l1.5-0.7c1.6-0.7,2.2-2,1.6-3.4
				c-0.7-1.5-2-1.7-3.6-1c-0.7,0.3-1.2,0.6-1.4,0.8L363.7,173.8z"/>
		</g>
		<g>
			<path class="st6" d="M372.6,165.6L372.6,165.6l-1.5,1.9l-0.8-1l1.9-2.4l1.3-0.6l4.9,11.2l-1.5,0.6L372.6,165.6z"/>
		</g>
		<g>
			<path class="st6" d="M384.6,157.6c-0.5,2.2-0.4,4.9,0.9,8c1.4,3.1,3.3,4.8,5.3,6l-1.2,0.5c-1.7-0.9-3.9-2.6-5.3-6
				c-1.5-3.4-1.3-6.1-0.9-8L384.6,157.6z"/>
		</g>
		<g>
			<path class="st6" d="M390,157.9L390,157.9l-1.5,1.9l-0.8-1l1.9-2.4l1.3-0.6l4.9,11.2l-1.5,0.6L390,157.9z"/>
		</g>
		<g>
			<path class="st6" d="M399.4,166.2l-0.7-14.6l1.2-0.5l0.7,14.6L399.4,166.2z"/>
		</g>
		<g>
			<path class="st6" d="M404.7,151.3L404.7,151.3l-1.5,1.9l-0.8-1l1.9-2.4l1.3-0.6l4.9,11.2l-1.5,0.6L404.7,151.3z"/>
		</g>
		<g>
			<path class="st6" d="M416.5,145.7c-0.3,0.1-0.7,0.3-1.1,0.6c-2.2,1.4-2.7,3.7-2.1,5.7l0.1,0c0.2-0.9,0.9-1.9,2.1-2.5
				c2-0.9,4-0.1,5,2.1c0.9,2,0.3,4.6-2,5.6c-2.4,1.1-4.8-0.1-6.1-3c-1-2.2-1-4.3-0.3-5.9c0.5-1.3,1.5-2.4,2.8-3.2
				c0.4-0.3,0.8-0.5,1.1-0.6L416.5,145.7z M418.9,152.3c-0.7-1.6-2-2.2-3.4-1.5c-0.9,0.4-1.5,1.3-1.6,2.3c0,0.2,0,0.5,0.1,0.7
				c0.8,1.8,2.3,2.8,3.9,2.1C419.2,155.4,419.6,153.9,418.9,152.3z"/>
		</g>
		<g>
			<path class="st6" d="M419.8,142.2l1.5,4.3l-0.9,0.4l-2.1-4L419.8,142.2z M422.4,141.1l1.5,4.3l-0.9,0.4l-2.1-4L422.4,141.1z"/>
		</g>
		<g>
			<path class="st6" d="M429.7,154.4c0.5-2.2,0.4-4.9-0.9-8c-1.4-3.1-3.3-4.9-5.3-6l1.2-0.5c1.7,0.9,3.8,2.6,5.3,6
				c1.5,3.4,1.3,6.1,0.8,8L429.7,154.4z"/>
		</g>
		<line class="st18" x1="456.9" y1="146.5" x2="334.3" y2="201.3"/>
		<polygon class="st4" points="335.2,196.7 323.5,206.3 338.5,203.9 		"/>
		<line class="st18" x1="169.1" y1="238.6" x2="169.1" y2="85.9"/>
		<polygon class="st4" points="173.8,235.2 168.9,253.5 164,235.2 		"/>
		<polygon class="st4" points="173.8,89.3 168.9,70.9 164,89.3 		"/>
		<line class="st21" x1="259.4" y1="200.8" x2="259.4" y2="86.2"/>
		<polygon class="st4" points="264.2,197.4 259.2,216.1 254.2,197.4 		"/>
		<polygon class="st4" points="264.2,89.6 259.2,70.9 254.2,89.6 		"/>
		<g>
			<path class="st6" d="M324.1,536.5c0.8,0.3,1.8,0.9,2.8,1.5c1.5,0.9,2.2,1.8,2.5,2.8c0.2,0.8,0.1,1.7-0.5,2.6
				c-0.9,1.4-2.4,1.8-3.8,1.4l0,0c0.6,0.8,0.6,1.9,0.2,3.2c-0.6,1.7-1,2.9-1.1,3.5l-1.4-0.9c0-0.4,0.4-1.5,0.9-3
				c0.6-1.7,0.4-2.6-0.8-3.4l-1.3-0.8l-3,4.6l-1.4-0.9L324.1,536.5z M322.3,542.3l1.4,0.9c1.5,0.9,2.9,0.7,3.7-0.5
				c0.9-1.4,0.3-2.6-1.2-3.6c-0.7-0.4-1.2-0.7-1.4-0.7L322.3,542.3z"/>
		</g>
		<g>
			<path class="st6" d="M337.2,546.7c-0.3-0.2-0.6-0.4-1.1-0.6c-2.4-1-4.6-0.2-5.9,1.4l0,0c0.9-0.3,2.1-0.3,3.2,0.4
				c1.8,1.2,2.3,3.3,1,5.3c-1.2,1.9-3.6,2.8-5.7,1.4c-2.2-1.4-2.5-4-0.8-6.7c1.3-2,3-3.2,4.7-3.5c1.4-0.3,2.9-0.1,4.3,0.6
				c0.5,0.2,0.8,0.4,1.1,0.6L337.2,546.7z M333,552.4c0.9-1.5,0.7-2.9-0.6-3.7c-0.8-0.5-1.9-0.5-2.8,0c-0.2,0.1-0.4,0.3-0.6,0.5
				c-1.1,1.7-1.1,3.5,0.4,4.4C330.6,554.3,332.1,553.8,333,552.4z"/>
		</g>
		<g>
			<path class="st6" d="M347.3,550.8c-2.1,0.8-4.3,2.3-6.1,5.2c-1.8,2.8-2.2,5.4-2.1,7.7L338,563c-0.2-2,0.1-4.7,2-7.8
				c2-3.1,4.4-4.5,6.2-5.1L347.3,550.8z"/>
		</g>
		<g>
			<path class="st6" d="M350.1,555.4L350.1,555.4l-2.4-0.2l0.4-1.2l3,0.2l1.2,0.8l-6.6,10.3l-1.3-0.9L350.1,555.4z"/>
		</g>
		<g>
			<path class="st6" d="M348.3,567.9l11.8-8.7l1.1,0.7l-11.8,8.6L348.3,567.9z"/>
		</g>
		<g>
			<path class="st6" d="M359.2,573.9l1.8-2.8l-4.8-3.1l0.6-0.9l8.8-3.6l1.5,1l-4.1,6.4l1.4,0.9l-0.7,1.1l-1.4-0.9l-1.8,2.8
				L359.2,573.9z M361.7,570l2.2-3.4c0.3-0.5,0.7-1.1,1.1-1.6l0,0c-0.7,0.4-1.2,0.7-1.8,1l-4.8,1.9l0,0L361.7,570z"/>
		</g>
		<g>
			<path class="st6" d="M371.4,566.5l-2.7,3.6l-0.9-0.5l2.2-4L371.4,566.5z M373.8,568l-2.7,3.6l-0.8-0.5l2.2-4L373.8,568z"/>
		</g>
		<g>
			<path class="st6" d="M366.7,581.5c2.1-0.8,4.3-2.3,6.1-5.2c1.8-2.8,2.3-5.4,2.1-7.7l1.1,0.7c0.2,1.9-0.1,4.7-2,7.8
				c-2,3.1-4.3,4.4-6.2,5.1L366.7,581.5z"/>
		</g>
		<line class="st18" x1="313" y1="551" x2="426.4" y2="622.9"/>
		<polygon class="st4" points="422.1,624.6 436.6,629.2 426.3,618 		"/>
		<g>
			<path class="st6" d="M111.8,712L111.8,712l1.1,2.2l-1.3,0.3l-1.4-2.7v-1.4h12.2v1.6H111.8z"/>
			<path class="st6" d="M120.5,705.6c0.3-0.5,0.8-1.6,0.8-2.7c0-2.1-1.4-2.8-2.4-2.8c-1.7,0-2.4,1.6-2.4,3.2v0.9h-1.2v-0.9
				c0-1.2-0.6-2.7-2.1-2.7c-1,0-1.8,0.6-1.8,2.1c0,1,0.4,1.9,0.8,2.4l-1.2,0.4c-0.5-0.6-0.9-1.9-0.9-3.2c0-2.4,1.4-3.5,2.9-3.5
				c1.3,0,2.3,0.8,2.9,2.3h0c0.3-1.5,1.4-2.7,3.1-2.7c2,0,3.7,1.5,3.7,4.5c0,1.4-0.4,2.6-0.8,3.2L120.5,705.6z"/>
			<path class="st6" d="M109.4,688.2c1.8,1.4,4.3,2.4,7.7,2.4c3.3,0,5.8-1,7.6-2.4v1.3c-1.6,1.2-4,2.5-7.6,2.5
				c-3.7,0-6.1-1.3-7.7-2.5V688.2z"/>
			<path class="st6" d="M111.8,683.4L111.8,683.4l1.1,2.2l-1.3,0.3l-1.4-2.7v-1.4h12.2v1.6H111.8z"/>
			<path class="st6" d="M110.2,669.4h1.1l11.1,5.3v1.7l-10.8-5.3h0v6h-1.4V669.4z"/>
			<path class="st6" d="M123.2,668.6l-13.6-5.2v-1.3l13.6,5.3V668.6z"/>
			<path class="st6" d="M120.5,660.9c0.3-0.5,0.8-1.6,0.8-2.7c0-2.1-1.4-2.8-2.4-2.8c-1.7,0-2.4,1.6-2.4,3.2v0.9h-1.2v-0.9
				c0-1.2-0.6-2.7-2.1-2.7c-1,0-1.8,0.6-1.8,2.1c0,1,0.4,1.9,0.8,2.4l-1.2,0.4c-0.5-0.6-0.9-1.9-0.9-3.2c0-2.4,1.4-3.5,2.9-3.5
				c1.3,0,2.3,0.8,2.9,2.3h0c0.3-1.5,1.4-2.7,3.1-2.7c2,0,3.7,1.5,3.7,4.5c0,1.4-0.4,2.6-0.8,3.2L120.5,660.9z"/>
			<path class="st6" d="M122.4,651.6h-1l-1.3-1.3c-3-3.1-4.5-4.5-6.4-4.5c-1.2,0-2.4,0.6-2.4,2.4c0,1.1,0.6,2,1,2.6l-1.2,0.5
				c-0.7-0.8-1.2-2-1.2-3.5c0-2.6,1.8-3.7,3.6-3.7c2.3,0,4.1,1.6,6.6,4.2l0.9,1h0v-5.5h1.4V651.6z"/>
			<path class="st6" d="M109.6,637.4l4.5,0.3v1l-4.5,0.3V637.4z M109.6,640.2l4.5,0.3v1l-4.5,0.3V640.2z"/>
		</g>
		<g>
			<path class="st6" d="M124.7,636c-1.9-1.3-4.3-2.4-7.7-2.4c-3.4,0-5.8,1-7.6,2.4v-1.3c1.5-1.2,3.9-2.5,7.7-2.5
				c3.7,0,6.1,1.3,7.7,2.5V636z"/>
		</g>
		<line class="st18" x1="133.9" y1="714" x2="133.9" y2="630.9"/>
		<polygon class="st4" points="138.6,710.6 133.7,729 128.8,710.6 		"/>
		<polygon class="st4" points="138.6,634.3 133.7,615.9 128.8,634.3 		"/>
		<g>
			<path class="st6" d="M523.3,211.9c-0.1-0.8-0.1-2,0-3.2c0.1-1.7,0.5-2.8,1.3-3.6c0.6-0.6,1.5-0.9,2.5-0.8c1.7,0.1,2.7,1.3,3,2.6
				l0.1,0c0.4-0.9,1.4-1.5,2.7-1.7c1.8-0.3,3-0.5,3.5-0.7l-0.1,1.7c-0.4,0.2-1.5,0.4-3.1,0.6c-1.8,0.2-2.5,0.9-2.7,2.3l-0.1,1.5
				l5.5,0.4l-0.1,1.6L523.3,211.9z M529.2,210.7l0.1-1.7c0.1-1.7-0.7-2.9-2.2-3c-1.6-0.1-2.4,1-2.6,2.7c-0.1,0.8,0,1.4,0,1.6
				L529.2,210.7z"/>
		</g>
		<g>
			<path class="st6" d="M534.6,202.8c0.3-0.4,0.9-1.5,1-2.6c0.2-2.1-1.1-2.9-2.1-2.9c-1.7-0.1-2.6,1.4-2.7,3l-0.1,0.9l-1.2-0.1
				l0.1-0.9c0.1-1.2-0.4-2.8-1.8-2.9c-1-0.1-1.9,0.5-2,2c-0.1,1,0.3,1.9,0.6,2.5L525,202c-0.4-0.7-0.8-1.9-0.7-3.3
				c0.2-2.4,1.7-3.4,3.2-3.3c1.3,0.1,2.3,0.9,2.7,2.5l0,0c0.4-1.5,1.6-2.6,3.3-2.5c1.9,0.2,3.5,1.8,3.3,4.7
				c-0.1,1.4-0.6,2.5-1.1,3.1L534.6,202.8z"/>
		</g>
		<g>
			<path class="st6" d="M531.6,185.1c4.1,0.3,6.3,2,6.1,4.7c-0.2,2.4-2.5,3.8-6.6,3.5c-4.1-0.3-6.2-2.3-6-4.7
				C525.3,186.1,527.7,184.8,531.6,185.1z M531.3,191.8c3.2,0.2,5-0.6,5.2-2.1c0.1-1.7-1.8-2.6-4.9-2.9c-3-0.2-5,0.4-5.2,2.1
				C526.3,190.3,528,191.5,531.3,191.8z"/>
		</g>
		<g>
			<path class="st6" d="M538.3,179l-3.3-0.3l-0.4,5.7l-1.1-0.1l-7.4-6l0.1-1.8l7.6,0.6l0.1-1.7l1.3,0.1l-0.1,1.7l3.3,0.3L538.3,179z
				 M533.7,178.6l-4.1-0.3c-0.6,0-1.3-0.1-1.9-0.2l0,0.1c0.7,0.4,1.2,0.8,1.7,1.2l3.9,3.3l0,0L533.7,178.6z"/>
		</g>
		<g>
			<path class="st6" d="M537.7,174.3c-0.7-0.1-1.1-0.6-1.1-1.2s0.6-1.1,1.3-1c0.7,0.1,1.1,0.5,1.1,1.2
				C538.9,173.9,538.4,174.3,537.7,174.3z"/>
		</g>
		<g>
			<path class="st6" d="M535.8,170.5c-1.5-0.1-2.6-1.1-3.1-2.7l-0.1,0c-0.7,1.3-1.8,1.8-2.9,1.7c-1.9-0.1-3.1-1.9-3-4
				c0.2-2.4,1.8-3.4,3.3-3.3c1,0.1,2.1,0.7,2.7,2.2l0.1,0c0.7-1.5,1.9-2.3,3.3-2.2c2.1,0.2,3.4,2.1,3.2,4.4
				C539.3,169.2,537.6,170.6,535.8,170.5z M529.8,168c1.2,0.1,1.9-0.8,2.4-2.1c-0.3-1.1-1-1.9-2.1-2c-1-0.1-2,0.4-2.1,1.9
				C527.9,167.1,528.8,167.9,529.8,168z M536.3,163.9c-1.5-0.1-2.3,0.9-2.9,2.5c0.3,1.5,1.2,2.3,2.3,2.4c1.2,0.2,2.4-0.7,2.5-2.3
				C538.4,165.1,537.5,164,536.3,163.9z"/>
		</g>
		<g>
			<path class="st6" d="M534.1,152.4c4.1,0.3,6.3,2,6.1,4.7c-0.2,2.4-2.5,3.8-6.6,3.5c-4.1-0.3-6.2-2.3-6-4.7
				C527.8,153.4,530.2,152.1,534.1,152.4z M533.8,159c3.2,0.2,5-0.6,5.2-2.1c0.1-1.7-1.8-2.6-4.9-2.9c-3-0.2-5,0.4-5.2,2.1
				C528.8,157.6,530.4,158.8,533.8,159z"/>
		</g>
		<g>
			<path class="st6" d="M528,142.3c1.7,1.5,4.1,2.7,7.5,3c3.3,0.3,5.8-0.6,7.8-1.8l-0.1,1.3c-1.6,1.1-4.1,2.1-7.8,1.9
				c-3.7-0.3-6-1.7-7.5-3L528,142.3z"/>
		</g>
		<g>
			<path class="st6" d="M530.8,137.6L530.8,137.6l1,2.2l-1.3,0.2l-1.2-2.8l0.1-1.4l12.2,0.9l-0.1,1.6L530.8,137.6z"/>
		</g>
		<g>
			<path class="st6" d="M541.9,132.4l-1-0.1l-1.2-1.4c-2.7-3.3-4.2-4.9-6-5c-1.2-0.1-2.4,0.4-2.6,2.2c-0.1,1.1,0.4,2.1,0.8,2.7
				l-1.2,0.4c-0.6-0.9-1.1-2.1-1-3.5c0.2-2.6,2.1-3.6,3.8-3.5c2.2,0.2,3.9,1.9,6.2,4.7l0.8,1l0,0l0.4-5.5l1.4,0.1L541.9,132.4z"/>
		</g>
		<g>
			<path class="st6" d="M529.9,120.1l4.5,0.7l-0.1,1l-4.5,0L529.9,120.1z M530.1,117.3l4.5,0.7l-0.1,1l-4.5,0L530.1,117.3z"/>
		</g>
		<g>
			<path class="st6" d="M545.3,117.1c-1.8-1.5-4.1-2.7-7.5-3c-3.4-0.3-5.8,0.6-7.8,1.8l0.1-1.3c1.6-1.1,4.1-2.1,7.8-1.9
				c3.7,0.3,6,1.7,7.5,3L545.3,117.1z"/>
		</g>
		<line class="st18" x1="541.3" y1="217" x2="551.1" y2="83.1"/>
		<polygon class="st4" points="554.7,86 551.8,71.1 546.8,85.4 		"/>
		<g>
			<path class="st4" d="M446.1,758.5V757h8.4v1.2c-0.8,0.9-1.6,2.1-2.5,3.5c-0.8,1.5-1.4,3-1.9,4.5c-0.3,1.1-0.5,2.3-0.6,3.6H448
				c0-1,0.2-2.3,0.6-3.7c0.4-1.4,0.9-2.8,1.7-4.2c0.7-1.3,1.5-2.5,2.3-3.4H446.1z"/>
			<path class="st4" d="M456.4,766.8l1.5-0.1c0.1,0.7,0.4,1.2,0.7,1.6c0.4,0.3,0.8,0.5,1.4,0.5c0.5,0,0.9-0.1,1.3-0.3
				s0.7-0.5,0.9-0.9c0.2-0.4,0.4-0.9,0.6-1.5c0.2-0.6,0.2-1.3,0.2-2c0-0.1,0-0.2,0-0.3c-0.3,0.5-0.8,0.9-1.3,1.2
				c-0.6,0.3-1.2,0.5-1.8,0.5c-1.1,0-2-0.4-2.7-1.2c-0.7-0.8-1.1-1.8-1.1-3.1c0-1.3,0.4-2.4,1.2-3.2c0.8-0.8,1.8-1.2,2.9-1.2
				c0.8,0,1.6,0.2,2.3,0.7s1.2,1.1,1.6,1.9c0.4,0.8,0.5,2.1,0.5,3.7c0,1.7-0.2,3-0.5,4c-0.4,1-0.9,1.7-1.6,2.2
				c-0.7,0.5-1.5,0.8-2.5,0.8c-1,0-1.8-0.3-2.5-0.8C456.9,768.6,456.6,767.8,456.4,766.8z M463,761.1c0-0.9-0.2-1.6-0.7-2.2
				c-0.5-0.5-1.1-0.8-1.8-0.8c-0.7,0-1.3,0.3-1.9,0.9c-0.5,0.6-0.8,1.3-0.8,2.3c0,0.8,0.2,1.5,0.8,2s1.1,0.8,1.9,0.8
				c0.7,0,1.3-0.3,1.8-0.8C462.7,762.7,463,762,463,761.1z"/>
			<path class="st4" d="M467.2,769.8V768h1.8v1.8H467.2z"/>
			<path class="st4" d="M471.6,766.4l1.6-0.2c0.2,0.9,0.5,1.6,0.9,2c0.4,0.4,1,0.6,1.6,0.6c0.8,0,1.4-0.3,1.9-0.8
				c0.5-0.5,0.8-1.2,0.8-1.9c0-0.7-0.2-1.3-0.7-1.8c-0.5-0.5-1.1-0.7-1.8-0.7c-0.3,0-0.7,0.1-1.1,0.2l0.2-1.4c0.1,0,0.2,0,0.3,0
				c0.7,0,1.3-0.2,1.8-0.5c0.5-0.4,0.8-0.9,0.8-1.6c0-0.6-0.2-1.1-0.6-1.5s-0.9-0.6-1.5-0.6c-0.6,0-1.1,0.2-1.6,0.6s-0.7,1-0.8,1.8
				l-1.6-0.3c0.2-1.1,0.6-1.9,1.3-2.5c0.7-0.6,1.6-0.9,2.6-0.9c0.7,0,1.4,0.2,2,0.5c0.6,0.3,1.1,0.7,1.4,1.2s0.5,1.1,0.5,1.7
				c0,0.6-0.2,1.1-0.5,1.5s-0.7,0.8-1.3,1.1c0.8,0.2,1.4,0.5,1.8,1.1c0.4,0.6,0.6,1.3,0.6,2.1c0,1.1-0.4,2.1-1.2,2.9
				s-1.9,1.2-3.1,1.2c-1.1,0-2.1-0.3-2.8-1C472.2,768.3,471.7,767.5,471.6,766.4z"/>
			<path class="st4" d="M484.6,762.8c-0.7-0.2-1.2-0.6-1.5-1c-0.3-0.5-0.5-1-0.5-1.6c0-0.9,0.3-1.7,1-2.4c0.7-0.6,1.6-1,2.7-1
				c1.1,0,2,0.3,2.7,1c0.7,0.7,1,1.5,1,2.4c0,0.6-0.2,1.1-0.5,1.6c-0.3,0.4-0.8,0.8-1.4,1c0.8,0.3,1.4,0.7,1.8,1.3
				c0.4,0.6,0.6,1.3,0.6,2.1c0,1.1-0.4,2-1.2,2.8s-1.8,1.1-3.1,1.1s-2.3-0.4-3.1-1.1c-0.8-0.8-1.2-1.7-1.2-2.8
				c0-0.8,0.2-1.6,0.6-2.1S483.8,763,484.6,762.8z M483.8,766.1c0,0.5,0.1,0.9,0.3,1.3s0.5,0.8,1,1c0.4,0.2,0.9,0.4,1.4,0.4
				c0.8,0,1.4-0.2,1.9-0.7s0.7-1.1,0.7-1.9c0-0.8-0.3-1.4-0.8-1.9s-1.2-0.8-1.9-0.8c-0.8,0-1.4,0.2-1.9,0.7
				C484,764.7,483.8,765.3,483.8,766.1z M484.3,760c0,0.6,0.2,1.1,0.6,1.5s0.9,0.6,1.5,0.6c0.6,0,1.1-0.2,1.5-0.6
				c0.4-0.4,0.6-0.9,0.6-1.4c0-0.6-0.2-1.1-0.6-1.5s-0.9-0.6-1.5-0.6c-0.6,0-1.1,0.2-1.5,0.6S484.3,759.5,484.3,760z"/>
			<path class="st4" d="M500.4,773.6c-0.9-1.1-1.6-2.4-2.2-3.9s-0.9-3-0.9-4.6c0-1.4,0.2-2.8,0.7-4c0.5-1.5,1.4-3,2.5-4.5h1.1
				c-0.7,1.2-1.2,2.1-1.4,2.6c-0.4,0.8-0.6,1.7-0.9,2.6c-0.3,1.1-0.4,2.2-0.4,3.3c0,2.8,0.9,5.7,2.7,8.5H500.4z"/>
			<path class="st4" d="M502.7,766.4l1.6-0.2c0.2,0.9,0.5,1.6,0.9,2c0.4,0.4,1,0.6,1.6,0.6c0.8,0,1.4-0.3,1.9-0.8
				c0.5-0.5,0.8-1.2,0.8-1.9c0-0.7-0.2-1.3-0.7-1.8c-0.5-0.5-1.1-0.7-1.8-0.7c-0.3,0-0.7,0.1-1.1,0.2l0.2-1.4c0.1,0,0.2,0,0.3,0
				c0.7,0,1.3-0.2,1.8-0.5c0.5-0.4,0.8-0.9,0.8-1.6c0-0.6-0.2-1.1-0.6-1.5s-0.9-0.6-1.5-0.6c-0.6,0-1.1,0.2-1.6,0.6s-0.7,1-0.8,1.8
				l-1.6-0.3c0.2-1.1,0.6-1.9,1.3-2.5c0.7-0.6,1.6-0.9,2.6-0.9c0.7,0,1.4,0.2,2,0.5c0.6,0.3,1.1,0.7,1.4,1.2s0.5,1.1,0.5,1.7
				c0,0.6-0.2,1.1-0.5,1.5s-0.7,0.8-1.3,1.1c0.8,0.2,1.4,0.5,1.8,1.1c0.4,0.6,0.6,1.3,0.6,2.1c0,1.1-0.4,2.1-1.2,2.9
				s-1.9,1.2-3.1,1.2c-1.1,0-2.1-0.3-2.8-1C503.3,768.3,502.8,767.5,502.7,766.4z"/>
			<path class="st4" d="M523.5,769.8h-1.6v-10.2c-0.4,0.4-0.9,0.7-1.5,1.1c-0.6,0.4-1.2,0.6-1.7,0.8V760c0.9-0.4,1.7-0.9,2.3-1.5
				s1.1-1.2,1.4-1.7h1V769.8z"/>
			<path class="st4" d="M526.4,770l3.8-13.5h1.3l-3.8,13.5H526.4z"/>
			<path class="st4" d="M534.9,762.8c-0.7-0.2-1.2-0.6-1.5-1c-0.3-0.5-0.5-1-0.5-1.6c0-0.9,0.3-1.7,1-2.4c0.7-0.6,1.6-1,2.7-1
				c1.1,0,2,0.3,2.7,1c0.7,0.7,1,1.5,1,2.4c0,0.6-0.2,1.1-0.5,1.6c-0.3,0.4-0.8,0.8-1.4,1c0.8,0.3,1.4,0.7,1.8,1.3
				c0.4,0.6,0.6,1.3,0.6,2.1c0,1.1-0.4,2-1.2,2.8s-1.8,1.1-3.1,1.1s-2.3-0.4-3.1-1.1c-0.8-0.8-1.2-1.7-1.2-2.8
				c0-0.8,0.2-1.6,0.6-2.1S534.1,763,534.9,762.8z M534.1,766.1c0,0.5,0.1,0.9,0.3,1.3s0.5,0.8,1,1c0.4,0.2,0.9,0.4,1.4,0.4
				c0.8,0,1.4-0.2,1.9-0.7s0.7-1.1,0.7-1.9c0-0.8-0.3-1.4-0.8-1.9s-1.2-0.8-1.9-0.8c-0.8,0-1.4,0.2-1.9,0.7
				C534.3,764.7,534.1,765.3,534.1,766.1z M534.6,760c0,0.6,0.2,1.1,0.6,1.5s0.9,0.6,1.5,0.6c0.6,0,1.1-0.2,1.5-0.6
				c0.4-0.4,0.6-0.9,0.6-1.4c0-0.6-0.2-1.1-0.6-1.5s-0.9-0.6-1.5-0.6c-0.6,0-1.1,0.2-1.5,0.6S534.6,759.5,534.6,760z"/>
			<path class="st4" d="M543.5,761.4l-0.4-2.5v-2.1h1.8v2.1l-0.4,2.5H543.5z M546.5,761.4l-0.4-2.5v-2.1h1.8v2.1l-0.4,2.5H546.5z"/>
			<path class="st4" d="M551.1,773.6h-1.1c1.8-2.8,2.7-5.7,2.7-8.5c0-1.1-0.1-2.2-0.4-3.3c-0.2-0.9-0.5-1.7-0.8-2.6
				c-0.2-0.5-0.7-1.4-1.4-2.7h1.1c1.1,1.5,1.9,3,2.5,4.5c0.5,1.3,0.7,2.6,0.7,4c0,1.6-0.3,3.1-0.9,4.6S552,772.5,551.1,773.6z"/>
		</g>
		<g>
			<path class="st4" d="M60.2,438.3h-1.5v-8.4h1.2c0.9,0.8,2.1,1.6,3.5,2.5c1.5,0.8,3,1.4,4.5,1.9c1.1,0.3,2.3,0.5,3.6,0.6v1.6
				c-1,0-2.3-0.2-3.7-0.6c-1.4-0.4-2.8-0.9-4.2-1.7c-1.3-0.7-2.5-1.5-3.4-2.3V438.3z"/>
			<path class="st4" d="M68.5,428l-0.1-1.5c0.7-0.1,1.2-0.4,1.6-0.7c0.3-0.4,0.5-0.8,0.5-1.4c0-0.5-0.1-0.9-0.3-1.3
				s-0.5-0.7-0.9-0.9c-0.4-0.2-0.9-0.4-1.5-0.6c-0.6-0.2-1.3-0.2-2-0.2c-0.1,0-0.2,0-0.3,0c0.5,0.3,0.9,0.8,1.2,1.3
				c0.3,0.6,0.5,1.2,0.5,1.8c0,1.1-0.4,2-1.2,2.7c-0.8,0.7-1.8,1.1-3.1,1.1c-1.3,0-2.4-0.4-3.2-1.2c-0.8-0.8-1.2-1.8-1.2-2.9
				c0-0.8,0.2-1.6,0.7-2.3s1.1-1.2,1.9-1.6c0.8-0.4,2.1-0.5,3.7-0.5c1.7,0,3,0.2,4,0.5c1,0.4,1.7,0.9,2.2,1.6
				c0.5,0.7,0.8,1.5,0.8,2.5c0,1-0.3,1.8-0.8,2.5C70.3,427.5,69.5,427.9,68.5,428z M62.7,421.5c-0.9,0-1.6,0.2-2.2,0.7
				c-0.5,0.5-0.8,1.1-0.8,1.8c0,0.7,0.3,1.3,0.9,1.9c0.6,0.5,1.3,0.8,2.3,0.8c0.8,0,1.5-0.2,2-0.8s0.8-1.1,0.8-1.9
				c0-0.7-0.3-1.3-0.8-1.8C64.3,421.7,63.6,421.5,62.7,421.5z"/>
			<path class="st4" d="M71.5,417.2h-1.8v-1.8h1.8V417.2z"/>
			<path class="st4" d="M68,412.8l-0.2-1.6c0.9-0.2,1.6-0.5,2-0.9c0.4-0.4,0.6-1,0.6-1.6c0-0.8-0.3-1.4-0.8-1.9
				c-0.5-0.5-1.2-0.8-1.9-0.8c-0.7,0-1.3,0.2-1.8,0.7c-0.5,0.5-0.7,1.1-0.7,1.8c0,0.3,0.1,0.7,0.2,1.1l-1.4-0.2c0-0.1,0-0.2,0-0.3
				c0-0.7-0.2-1.3-0.5-1.8c-0.4-0.5-0.9-0.8-1.6-0.8c-0.6,0-1.1,0.2-1.5,0.6s-0.6,0.9-0.6,1.5c0,0.6,0.2,1.1,0.6,1.6s1,0.7,1.8,0.8
				l-0.3,1.6c-1.1-0.2-1.9-0.6-2.5-1.3c-0.6-0.7-0.9-1.6-0.9-2.6c0-0.7,0.2-1.4,0.5-2c0.3-0.6,0.7-1.1,1.2-1.4s1.1-0.5,1.7-0.5
				c0.6,0,1.1,0.2,1.5,0.5s0.8,0.7,1.1,1.3c0.2-0.8,0.5-1.4,1.1-1.8c0.6-0.4,1.3-0.6,2.1-0.6c1.1,0,2.1,0.4,2.9,1.2s1.2,1.9,1.2,3.1
				c0,1.1-0.3,2.1-1,2.8C70,412.2,69.1,412.7,68,412.8z"/>
			<path class="st4" d="M64.4,399.8c-0.2,0.7-0.6,1.2-1,1.5c-0.5,0.3-1,0.5-1.6,0.5c-0.9,0-1.7-0.3-2.4-1c-0.6-0.7-1-1.6-1-2.7
				c0-1.1,0.3-2.1,1-2.7c0.7-0.7,1.5-1,2.4-1c0.6,0,1.1,0.2,1.6,0.5c0.4,0.3,0.8,0.8,1,1.4c0.3-0.8,0.7-1.4,1.3-1.8
				c0.6-0.4,1.3-0.6,2.1-0.6c1.1,0,2,0.4,2.8,1.2c0.8,0.8,1.1,1.8,1.1,3.1c0,1.3-0.4,2.3-1.1,3.1c-0.8,0.8-1.7,1.2-2.8,1.2
				c-0.8,0-1.6-0.2-2.1-0.6S64.6,400.6,64.4,399.8z M61.7,400.1c0.6,0,1.1-0.2,1.5-0.6s0.6-0.9,0.6-1.5c0-0.6-0.2-1.1-0.6-1.5
				c-0.4-0.4-0.9-0.6-1.4-0.6c-0.6,0-1.1,0.2-1.5,0.6s-0.6,0.9-0.6,1.5c0,0.6,0.2,1.1,0.6,1.5C60.7,399.9,61.2,400.1,61.7,400.1z
				 M67.7,400.7c0.5,0,0.9-0.1,1.3-0.3c0.4-0.2,0.8-0.5,1-1c0.2-0.4,0.4-0.9,0.4-1.4c0-0.8-0.2-1.4-0.7-1.9s-1.1-0.7-1.9-0.7
				c-0.8,0-1.4,0.3-1.9,0.8s-0.8,1.2-0.8,1.9c0,0.8,0.2,1.4,0.7,1.9S67,400.7,67.7,400.7z"/>
			<path class="st4" d="M75.3,384c-1.1,0.9-2.4,1.6-3.9,2.2s-3,0.9-4.6,0.9c-1.4,0-2.8-0.2-4-0.7c-1.5-0.5-3-1.4-4.5-2.5v-1.1
				c1.2,0.7,2.1,1.2,2.6,1.4c0.8,0.4,1.7,0.6,2.6,0.9c1.1,0.3,2.2,0.4,3.3,0.4c2.8,0,5.7-0.9,8.5-2.7V384z"/>
			<path class="st4" d="M68,381.7l-0.2-1.6c0.9-0.2,1.6-0.5,2-0.9c0.4-0.4,0.6-1,0.6-1.6c0-0.8-0.3-1.4-0.8-1.9
				c-0.5-0.5-1.2-0.8-1.9-0.8c-0.7,0-1.3,0.2-1.8,0.7c-0.5,0.5-0.7,1.1-0.7,1.8c0,0.3,0.1,0.7,0.2,1.1l-1.4-0.2c0-0.1,0-0.2,0-0.3
				c0-0.7-0.2-1.3-0.5-1.8c-0.4-0.5-0.9-0.8-1.6-0.8c-0.6,0-1.1,0.2-1.5,0.6s-0.6,0.9-0.6,1.5c0,0.6,0.2,1.1,0.6,1.6s1,0.7,1.8,0.8
				l-0.3,1.6c-1.1-0.2-1.9-0.6-2.5-1.3c-0.6-0.7-0.9-1.6-0.9-2.6c0-0.7,0.2-1.4,0.5-2s0.7-1.1,1.2-1.4c0.5-0.3,1.1-0.5,1.7-0.5
				c0.6,0,1.1,0.2,1.5,0.5s0.8,0.7,1.1,1.3c0.2-0.8,0.5-1.4,1.1-1.8c0.6-0.4,1.3-0.6,2.1-0.6c1.1,0,2.1,0.4,2.9,1.2
				c0.8,0.8,1.2,1.9,1.2,3.1c0,1.1-0.3,2.1-1,2.8S69.1,381.6,68,381.7z"/>
			<path class="st4" d="M71.5,360.9v1.6H61.3c0.4,0.4,0.7,0.9,1.1,1.5c0.4,0.6,0.6,1.2,0.8,1.7h-1.5c-0.4-0.9-0.9-1.7-1.5-2.3
				c-0.6-0.7-1.2-1.1-1.7-1.4v-1H71.5z"/>
			<path class="st4" d="M71.7,358l-13.5-3.8v-1.3l13.5,3.8V358z"/>
			<path class="st4" d="M64.4,349.5c-0.2,0.7-0.6,1.2-1,1.5c-0.5,0.3-1,0.5-1.6,0.5c-0.9,0-1.7-0.3-2.4-1c-0.6-0.7-1-1.6-1-2.7
				c0-1.1,0.3-2.1,1-2.7c0.7-0.7,1.5-1,2.4-1c0.6,0,1.1,0.2,1.6,0.5c0.4,0.3,0.8,0.8,1,1.4c0.3-0.8,0.7-1.4,1.3-1.8
				c0.6-0.4,1.3-0.6,2.1-0.6c1.1,0,2,0.4,2.8,1.2c0.8,0.8,1.1,1.8,1.1,3.1c0,1.3-0.4,2.3-1.1,3.1c-0.8,0.8-1.7,1.2-2.8,1.2
				c-0.8,0-1.6-0.2-2.1-0.6C65,350.9,64.6,350.3,64.4,349.5z M61.7,349.8c0.6,0,1.1-0.2,1.5-0.6s0.6-0.9,0.6-1.5
				c0-0.6-0.2-1.1-0.6-1.5c-0.4-0.4-0.9-0.6-1.4-0.6c-0.6,0-1.1,0.2-1.5,0.6s-0.6,0.9-0.6,1.5c0,0.6,0.2,1.1,0.6,1.5
				C60.7,349.6,61.2,349.8,61.7,349.8z M67.7,350.4c0.5,0,0.9-0.1,1.3-0.3c0.4-0.2,0.8-0.5,1-1c0.2-0.4,0.4-0.9,0.4-1.4
				c0-0.8-0.2-1.4-0.7-1.9s-1.1-0.7-1.9-0.7c-0.8,0-1.4,0.3-1.9,0.8s-0.8,1.2-0.8,1.9c0,0.8,0.2,1.4,0.7,1.9S67,350.4,67.7,350.4z"
				/>
			<path class="st4" d="M63.1,338l-2.5,0.4h-2.1v-1.8h2.1l2.5,0.4V338z M63.1,340.9l-2.5,0.4h-2.1v-1.8h2.1l2.5,0.4V340.9z"/>
			<path class="st4" d="M75.3,333.3v1.1c-2.8-1.8-5.7-2.7-8.5-2.7c-1.1,0-2.2,0.1-3.3,0.4c-0.9,0.2-1.7,0.5-2.6,0.8
				c-0.5,0.2-1.4,0.7-2.7,1.4v-1.1c1.5-1.1,3-1.9,4.5-2.5c1.3-0.5,2.6-0.7,4-0.7c1.6,0,3.1,0.3,4.6,0.9S74.2,332.5,75.3,333.3z"/>
		</g>
	</g>
</g>
<g id="Watermark">
	<g>
		<rect x="438.5" y="662.8" class="st1" width="123.1" height="46.3"/>
		<g>
			<rect x="444.9" y="670.7" class="st75" width="62.9" height="30.6"/>
			<rect x="507.7" y="670.7" class="st75" width="47.4" height="30.6"/>
			<g>
				<path class="st76" d="M466.5,676.8l-2.8,18.9H461l-1.6-11l-1.5,11h-2.7l-2.8-18.9h2.5l1.8,14.2l1.8-14.2h2l1.8,14.2l1.8-14.2
					H466.5z"/>
				<path class="st76" d="M467.9,695.7v-18.9h2.5v18.9H467.9z"/>
				<path class="st76" d="M472.8,676.8h5c1.9,0,2.9,1.1,2.9,3.2v4.7c0,1.7-0.5,2.7-1.5,3.1l1.8,7.9h-2.4l-1.7-7.6h-1.5v7.6h-2.5
					V676.8z M475.4,685.9h1.7c0.8,0,1.1-0.5,1.1-1.4v-4.1c0-0.9-0.4-1.4-1.1-1.4h-1.7V685.9z"/>
				<path class="st76" d="M486.8,679.1v16.6h-2.5v-16.6h-2.4v-2.3h7.4v2.3H486.8z"/>
				<path class="st76" d="M496.3,695.7v-8.6h-3.1v8.6h-2.5v-18.9h2.5v8h3.1v-8h2.5v18.9H496.3z"/>
			</g>
			<g>
				<path class="st76" d="M516.3,676.8h5c1.9,0,2.9,1.1,2.9,3.2v4.7c0,1.7-0.5,2.7-1.5,3.1l1.8,7.9H522l-1.7-7.6h-1.5v7.6h-2.5
					V676.8z M518.8,685.9h1.7c0.8,0,1.1-0.5,1.1-1.4v-4.1c0-0.9-0.4-1.4-1.1-1.4h-1.7V685.9z"/>
				<path class="st76" d="M528.7,695.7h-2.5V680c0-2.2,1-3.2,3-3.2h1.9c2,0,3,1.1,3,3.2v15.7h-2.5v-6.9h-2.9V695.7z M531.6,686.5
					v-6.3c0-0.7-0.4-1.1-1.1-1.1h-0.7c-0.7,0-1.1,0.4-1.1,1.1v6.3H531.6z"/>
				<path class="st76" d="M536.3,695.7v-18.9h2.5v18.9H536.3z"/>
				<path class="st76" d="M547.2,695.7h-6v-18.9h2.5v16.6h3.5V695.7z"/>
			</g>
		</g>
	</g>
</g>
</svg>
