<?xml version="1.0" encoding="utf-8"?>
<!-- Generator: Adobe Illustrator 25.2.3, SVG Export Plug-In . SVG Version: 6.00 Build 0)  -->
<svg version="1.1" xmlns="http://www.w3.org/2000/svg" xmlns:xlink="http://www.w3.org/1999/xlink" x="0px" y="0px"
	 viewBox="0 0 1000 800" style="enable-background:new 0 0 1000 800;" xml:space="preserve">
<style type="text/css">
	.st0{display:none;}
	.st1{fill:#F0F0F0;}
	.st2{fill:none;stroke:#221E1F;stroke-width:1.0067;}
	.st3{fill:none;stroke:#221E1F;stroke-width:1.0815;}
	.st4{fill:#221E1F;}
	.st5{fill:none;stroke:#221E1F;stroke-width:1.0067;stroke-dasharray:25.4357,7.8961;}
	.st6{fill:#303030;}
	.st7{fill:none;stroke:#221E1F;stroke-width:0.9293;}
	.st8{fill:none;stroke:#303030;stroke-width:1.0067;stroke-miterlimit:10;}
	.st9{fill:none;stroke:#221E1F;stroke-width:1.2309;}
	.st10{fill:none;stroke:#221E1F;stroke-width:1.0036;stroke-linecap:round;stroke-linejoin:round;stroke-miterlimit:10;}
	.st11{fill:none;stroke:#221E1F;stroke-width:1.2309;stroke-linecap:round;stroke-linejoin:round;stroke-miterlimit:10;}
	.st12{fill:none;stroke:#221E1F;stroke-width:1.2309;stroke-miterlimit:10;}
	.st13{fill:none;stroke:#221E1F;stroke-width:1.2309;stroke-linecap:round;stroke-linejoin:round;}
	.st14{fill:none;stroke:#221E1F;stroke-width:1.2309;stroke-dasharray:6.9402,6.9402;}
	.st15{fill:none;stroke:#221E1F;stroke-width:1.148;}
	.st16{fill:none;stroke:#221E1F;stroke-width:1.148;stroke-dasharray:6.4521,6.4521;}
	.st17{fill:none;stroke:#221E1F;stroke-width:1.145;}
	.st18{fill:none;stroke:#221E1F;stroke-width:1.1283;}
	.st19{fill:none;stroke:#221E1F;stroke-width:1.1023;}
	.st20{fill:none;stroke:#221E1F;stroke-width:1.1283;stroke-dasharray:6.3679,6.3679;}
	.st21{fill:none;stroke:#221E1F;stroke-width:1.1486;}
	.st22{fill:none;stroke:#FFFFFF;stroke-width:5.4259;}
	.st23{fill:none;stroke:#221E1F;stroke-width:1.0581;}
	.st24{fill:none;stroke:#221E1F;stroke-width:1.0092;}
	.st25{fill:none;stroke:#221E1F;stroke-width:0.9007;}
	.st26{fill:none;stroke:#221E1F;stroke-width:0.9007;stroke-dasharray:6.2235,6.2235;}
	.st27{fill:none;stroke:#241F21;stroke-width:0.8703;}
	.st28{fill:none;stroke:#241F21;stroke-width:0.9357;}
	.st29{clip-path:url(#SVGID_2_);fill:none;stroke:#241F21;stroke-width:0.8703;}
	.st30{fill:none;stroke:#303030;stroke-width:0.8703;stroke-miterlimit:10;}
	.st31{fill:#241F21;}
	.st32{fill:none;stroke:#241F21;stroke-width:0.8703;stroke-dasharray:22.0524,6.4121;}
	.st33{clip-path:url(#SVGID_4_);}
	.st34{clip-path:url(#SVGID_6_);}
	.st35{clip-path:url(#SVGID_8_);}
	.st36{clip-path:url(#SVGID_10_);fill:#303030;}
	.st37{fill:none;stroke:#241F21;stroke-width:0.8703;stroke-dasharray:26.5684,7.9543;}
	.st38{clip-path:url(#SVGID_12_);}
	.st39{clip-path:url(#SVGID_14_);}
	.st40{clip-path:url(#SVGID_16_);}
	.st41{clip-path:url(#SVGID_18_);}
	.st42{fill:none;stroke:#241F21;stroke-width:0.8984;}
	.st43{fill:none;stroke:#303030;stroke-width:0.8984;stroke-miterlimit:10;}
	.st44{clip-path:url(#SVGID_20_);}
	.st45{clip-path:url(#SVGID_22_);}
	.st46{clip-path:url(#SVGID_24_);}
	.st47{clip-path:url(#SVGID_26_);}
	.st48{clip-path:url(#SVGID_28_);}
	.st49{clip-path:url(#SVGID_30_);}
	.st50{clip-path:url(#SVGID_32_);}
	.st51{clip-path:url(#SVGID_34_);fill:none;stroke:#241F21;stroke-width:0.8984;}
	.st52{clip-path:url(#SVGID_36_);fill:none;stroke:#241F21;stroke-width:0.8984;}
	.st53{clip-path:url(#SVGID_38_);fill:none;stroke:#241F21;stroke-width:0.8984;}
	.st54{clip-path:url(#SVGID_40_);fill:none;stroke:#241F21;stroke-width:0.8984;}
	.st55{fill:none;stroke:#241F21;stroke-width:0.8984;stroke-dasharray:22.7263,6.6621;}
	.st56{fill:none;stroke:#241F21;stroke-width:0.9362;}
	.st57{fill:none;stroke:#241F21;stroke-width:0.8984;stroke-dasharray:27.9392,8.7142;}
	.st58{clip-path:url(#SVGID_42_);}
	.st59{clip-path:url(#SVGID_44_);}
	.st60{clip-path:url(#SVGID_46_);}
	.st61{fill:none;stroke:#221E1F;stroke-width:0.765;}
	.st62{fill:none;stroke:#221E1F;stroke-width:0.8373;}
	.st63{fill:none;stroke:#221E1F;stroke-width:0.765;stroke-dasharray:21.1617,6.4071;}
	.st64{fill:none;stroke:#221E1F;stroke-width:0.765;stroke-dasharray:24.8189,7.2742;}
	.st65{fill:none;stroke:#303030;stroke-width:0.765;stroke-miterlimit:10;}
	.st66{fill:none;stroke:#221E1F;stroke-width:0.748;}
	.st67{fill:none;stroke:#241F21;stroke-width:1.3086;}
	.st68{fill:none;stroke:#241F21;stroke-width:1.5023;}
	.st69{fill:none;stroke:#241F21;stroke-width:1.1437;}
	.st70{fill:none;stroke:#241F21;stroke-width:1.5023;stroke-dasharray:23.5916,9.5345;}
	.st71{fill:none;stroke:#241F21;stroke-width:1.5023;stroke-dasharray:22.9216,8.8619;}
	.st72{fill:none;stroke:#241F21;stroke-width:1.5023;stroke-dasharray:21.3408,7.2811;}
	.st73{fill:none;stroke:#241F21;stroke-width:1.5023;stroke-dasharray:21.3303,7.2706;}
	.st74{fill:none;stroke:#241F21;stroke-width:1.5023;stroke-dasharray:20.027,5.9673;}
	.st75{fill:#F0F0F0;stroke:#CCCCCC;stroke-miterlimit:10;}
	.st76{fill:#CCCCCC;}
</style>
<g id="editable" class="st0">
</g>
<g id="Flat">
	<g>
		<line class="st42" x1="894.3" y1="705" x2="894.3" y2="66.8"/>
		<polygon class="st31" points="898,702.3 894.1,717 890.2,702.3 		"/>
		<polygon class="st31" points="898,69.4 894.1,54.8 890.2,69.4 		"/>
		<g>
			<path class="st6" d="M889.5,416.5v1.1h-7.2c0.3,0.3,0.5,0.6,0.8,1.1c0.3,0.4,0.5,0.8,0.6,1.2h-1.1c-0.3-0.6-0.7-1.2-1.1-1.7
				c-0.4-0.5-0.8-0.8-1.2-1v-0.7H889.5z"/>
			<path class="st6" d="M888.5,407.6h1.1v6.1c-0.3,0-0.5,0-0.8-0.1c-0.4-0.2-0.8-0.4-1.2-0.7c-0.4-0.3-0.9-0.8-1.4-1.5
				c-0.8-1-1.5-1.7-2-2c-0.5-0.4-0.9-0.5-1.4-0.5c-0.5,0-0.8,0.2-1.1,0.5s-0.5,0.7-0.5,1.3c0,0.5,0.2,1,0.5,1.3
				c0.3,0.3,0.8,0.5,1.4,0.5l-0.1,1.2c-0.9-0.1-1.5-0.4-2-0.9c-0.5-0.5-0.7-1.2-0.7-2.1c0-0.9,0.2-1.6,0.7-2.1
				c0.5-0.5,1.1-0.8,1.8-0.8c0.4,0,0.7,0.1,1.1,0.2c0.4,0.2,0.7,0.4,1.1,0.8c0.4,0.4,0.9,0.9,1.6,1.8c0.6,0.7,1,1.1,1.2,1.3
				c0.2,0.2,0.4,0.4,0.6,0.5V407.6z"/>
			<path class="st6" d="M888.5,400.4h1.1v6.1c-0.3,0-0.5,0-0.8-0.1c-0.4-0.2-0.8-0.4-1.2-0.7c-0.4-0.3-0.9-0.8-1.4-1.5
				c-0.8-1-1.5-1.7-2-2c-0.5-0.4-0.9-0.5-1.4-0.5c-0.5,0-0.8,0.2-1.1,0.5s-0.5,0.7-0.5,1.3c0,0.5,0.2,1,0.5,1.3
				c0.3,0.3,0.8,0.5,1.4,0.5l-0.1,1.2c-0.9-0.1-1.5-0.4-2-0.9c-0.5-0.5-0.7-1.2-0.7-2.1c0-0.9,0.2-1.6,0.7-2.1
				c0.5-0.5,1.1-0.8,1.8-0.8c0.4,0,0.7,0.1,1.1,0.2c0.4,0.2,0.7,0.4,1.1,0.8c0.4,0.4,0.9,0.9,1.6,1.8c0.6,0.7,1,1.1,1.2,1.3
				c0.2,0.2,0.4,0.4,0.6,0.5V400.4z"/>
			<path class="st6" d="M889.5,398.6h-1.3v-1.3h1.3V398.6z"/>
			<path class="st6" d="M888.5,389.7h1.1v6.1c-0.3,0-0.5,0-0.8-0.1c-0.4-0.2-0.8-0.4-1.2-0.7c-0.4-0.3-0.9-0.8-1.4-1.5
				c-0.8-1-1.5-1.7-2-2c-0.5-0.4-0.9-0.5-1.4-0.5c-0.5,0-0.8,0.2-1.1,0.5s-0.5,0.7-0.5,1.3c0,0.5,0.2,1,0.5,1.3
				c0.3,0.3,0.8,0.5,1.4,0.5l-0.1,1.2c-0.9-0.1-1.5-0.4-2-0.9c-0.5-0.5-0.7-1.2-0.7-2.1c0-0.9,0.2-1.6,0.7-2.1
				c0.5-0.5,1.1-0.8,1.8-0.8c0.4,0,0.7,0.1,1.1,0.2c0.4,0.2,0.7,0.4,1.1,0.8c0.4,0.4,0.9,0.9,1.6,1.8c0.6,0.7,1,1.1,1.2,1.3
				c0.2,0.2,0.4,0.4,0.6,0.5V389.7z"/>
			<path class="st6" d="M889.5,384.8h-2.2v4h-1l-6-4.2v-0.9h6v-1.3h1v1.3h2.2V384.8z M886.3,384.8h-4.2l4.2,2.9V384.8z"/>
			<path class="st6" d="M892.3,375.2c-0.8,0.6-1.7,1.2-2.8,1.6c-1.1,0.4-2.2,0.7-3.3,0.7c-1,0-2-0.2-2.9-0.5c-1.1-0.4-2.1-1-3.2-1.8
				v-0.8c0.9,0.5,1.5,0.8,1.9,1c0.6,0.3,1.2,0.5,1.8,0.6c0.8,0.2,1.6,0.3,2.4,0.3c2,0,4-0.6,6.1-1.9V375.2z"/>
			<path class="st6" d="M889.5,369.7h-2.2v4h-1l-6-4.2v-0.9h6v-1.3h1v1.3h2.2V369.7z M886.3,369.7h-4.2l4.2,2.9V369.7z"/>
			<path class="st6" d="M889.5,358.3v1.1h-7.2c0.3,0.3,0.5,0.6,0.8,1.1c0.3,0.4,0.5,0.8,0.6,1.2h-1.1c-0.3-0.6-0.7-1.2-1.1-1.7
				c-0.4-0.5-0.8-0.8-1.2-1v-0.7H889.5z"/>
			<path class="st6" d="M887.1,355.4l-0.2-1.1c0.6-0.1,1.1-0.4,1.4-0.7c0.3-0.3,0.4-0.7,0.4-1.1c0-0.5-0.2-1-0.6-1.4
				c-0.4-0.4-0.8-0.6-1.4-0.6c-0.5,0-1,0.2-1.3,0.5c-0.3,0.3-0.5,0.8-0.5,1.3c0,0.2,0,0.5,0.1,0.8l-1-0.1c0-0.1,0-0.1,0-0.2
				c0-0.5-0.1-0.9-0.4-1.3c-0.3-0.4-0.6-0.6-1.2-0.6c-0.4,0-0.8,0.1-1,0.4c-0.3,0.3-0.4,0.6-0.4,1.1c0,0.4,0.1,0.8,0.4,1.1
				c0.3,0.3,0.7,0.5,1.3,0.6l-0.2,1.1c-0.8-0.1-1.4-0.5-1.8-0.9s-0.6-1.1-0.6-1.8c0-0.5,0.1-1,0.3-1.4s0.5-0.8,0.9-1
				c0.4-0.2,0.8-0.3,1.2-0.3c0.4,0,0.8,0.1,1.1,0.3c0.3,0.2,0.6,0.5,0.8,1c0.1-0.5,0.4-1,0.8-1.3c0.4-0.3,0.9-0.5,1.5-0.5
				c0.8,0,1.5,0.3,2.1,0.9c0.6,0.6,0.8,1.3,0.8,2.2c0,0.8-0.2,1.5-0.7,2C888.5,355,887.9,355.3,887.1,355.4z"/>
			<path class="st6" d="M889.7,348.7l-9.6-2.7v-0.9l9.6,2.7V348.7z"/>
			<path class="st6" d="M889.5,340.3v1.1h-7.2c0.3,0.3,0.5,0.6,0.8,1.1c0.3,0.4,0.5,0.8,0.6,1.2h-1.1c-0.3-0.6-0.7-1.2-1.1-1.7
				c-0.4-0.5-0.8-0.8-1.2-1v-0.7H889.5z"/>
			<path class="st6" d="M882.6,331.5l0.1,1.1c-0.4,0.1-0.8,0.2-1,0.4c-0.3,0.3-0.5,0.7-0.5,1.1c0,0.4,0.1,0.7,0.3,1
				c0.3,0.4,0.6,0.6,1.1,0.8c0.5,0.2,1.2,0.3,2.1,0.3c-0.4-0.3-0.7-0.6-0.9-1c-0.2-0.4-0.3-0.8-0.3-1.2c0-0.8,0.3-1.4,0.8-1.9
				c0.6-0.5,1.3-0.8,2.2-0.8c0.6,0,1.1,0.1,1.6,0.4s0.9,0.6,1.1,1c0.3,0.4,0.4,0.9,0.4,1.5c0,0.9-0.3,1.7-1,2.3
				c-0.7,0.6-1.8,0.9-3.4,0.9c-1.8,0-3.1-0.3-3.9-1c-0.7-0.6-1.1-1.4-1.1-2.3c0-0.7,0.2-1.3,0.6-1.8
				C881.3,331.9,881.8,331.6,882.6,331.5z M886.5,336.1c0.4,0,0.8-0.1,1.1-0.2c0.4-0.2,0.6-0.4,0.8-0.7s0.3-0.6,0.3-0.9
				c0-0.5-0.2-0.9-0.6-1.2c-0.4-0.3-0.9-0.5-1.6-0.5c-0.6,0-1.1,0.2-1.5,0.5c-0.4,0.3-0.6,0.8-0.6,1.3c0,0.5,0.2,0.9,0.6,1.3
				C885.5,335.9,885.9,336.1,886.5,336.1z"/>
			<path class="st6" d="M883.6,327.7l-1.8,0.3h-1.5v-1.3h1.5l1.8,0.3V327.7z M883.6,329.8l-1.8,0.3h-1.5v-1.3h1.5l1.8,0.3V329.8z"/>
		</g>
		<g>
			<path class="st6" d="M892.3,324.6v0.8c-2-1.3-4-1.9-6.1-1.9c-0.8,0-1.6,0.1-2.4,0.3c-0.6,0.1-1.2,0.3-1.8,0.6
				c-0.4,0.2-1,0.5-1.9,1v-0.8c1.1-0.8,2.1-1.4,3.2-1.8c0.9-0.3,1.9-0.5,2.9-0.5c1.1,0,2.2,0.2,3.3,0.7
				C890.5,323.5,891.5,324,892.3,324.6z"/>
		</g>
		<line class="st43" x1="342.1" y1="21.1" x2="657.8" y2="21.1"/>
		<polygon class="st6" points="344.7,24.8 330.1,20.9 344.7,17 		"/>
		<polygon class="st6" points="655.1,24.8 669.7,20.9 655.1,17 		"/>
		<g>
			<defs>
				<rect id="SVGID_19_" x="85.3" y="8.4" width="821.1" height="763.6"/>
			</defs>
			<clipPath id="SVGID_2_">
				<use xlink:href="#SVGID_19_"  style="overflow:visible;"/>
			</clipPath>
			<g style="clip-path:url(#SVGID_2_);">
				<path class="st6" d="M473.7,8.9l-1.1,0.1c-0.1-0.4-0.2-0.8-0.4-1c-0.3-0.3-0.7-0.5-1.1-0.5c-0.4,0-0.7,0.1-1,0.3
					c-0.4,0.3-0.6,0.6-0.8,1.1c-0.2,0.5-0.3,1.2-0.3,2.1c0.3-0.4,0.6-0.7,1-0.9s0.8-0.3,1.2-0.3c0.8,0,1.4,0.3,1.9,0.8
					c0.5,0.6,0.8,1.3,0.8,2.2c0,0.6-0.1,1.1-0.4,1.6c-0.2,0.5-0.6,0.9-1,1.1c-0.4,0.3-0.9,0.4-1.5,0.4c-0.9,0-1.7-0.3-2.3-1
					c-0.6-0.7-0.9-1.8-0.9-3.4c0-1.8,0.3-3.1,1-3.9c0.6-0.7,1.4-1.1,2.3-1.1c0.7,0,1.3,0.2,1.8,0.6C473.3,7.6,473.6,8.1,473.7,8.9z
					 M469,12.9c0,0.4,0.1,0.8,0.2,1.1c0.2,0.4,0.4,0.6,0.7,0.8c0.3,0.2,0.6,0.3,0.9,0.3c0.5,0,0.9-0.2,1.2-0.6
					c0.3-0.4,0.5-0.9,0.5-1.6c0-0.6-0.2-1.1-0.5-1.5c-0.3-0.4-0.8-0.6-1.3-0.6c-0.5,0-1,0.2-1.3,0.6C469.2,11.8,469,12.3,469,12.9z"
					/>
				<path class="st6" d="M480.9,14.8v1.1h-6.1c0-0.3,0-0.5,0.1-0.8c0.2-0.4,0.4-0.8,0.7-1.2c0.3-0.4,0.8-0.9,1.5-1.4
					c1-0.8,1.7-1.5,2-2c0.4-0.5,0.5-0.9,0.5-1.4c0-0.5-0.2-0.8-0.5-1.1s-0.7-0.5-1.3-0.5c-0.5,0-1,0.2-1.3,0.5
					c-0.3,0.3-0.5,0.8-0.5,1.4L475,9.2c0.1-0.9,0.4-1.5,0.9-2c0.5-0.5,1.2-0.7,2.1-0.7c0.9,0,1.6,0.2,2.1,0.7s0.8,1.1,0.8,1.8
					c0,0.4-0.1,0.7-0.2,1.1c-0.2,0.4-0.4,0.7-0.8,1.1c-0.4,0.4-0.9,0.9-1.8,1.6c-0.7,0.6-1.1,1-1.3,1.2c-0.2,0.2-0.4,0.4-0.5,0.6
					H480.9z"/>
			</g>
		</g>
		<g>
			<path class="st6" d="M482.8,15.9v-1.3h1.3v1.3H482.8z"/>
		</g>
		<g>
			<defs>
				<rect id="SVGID_21_" x="81.3" y="8.4" width="825.1" height="763.6"/>
			</defs>
			<clipPath id="SVGID_4_">
				<use xlink:href="#SVGID_21_"  style="overflow:visible;"/>
			</clipPath>
			<g class="st33">
				<path class="st6" d="M485.8,7.8V6.7h6v0.9c-0.6,0.6-1.2,1.5-1.8,2.5c-0.6,1-1,2.1-1.3,3.2c-0.2,0.8-0.4,1.6-0.4,2.5h-1.2
					c0-0.7,0.2-1.6,0.4-2.6s0.7-2,1.2-3s1.1-1.8,1.6-2.4H485.8z"/>
			</g>
		</g>
		<g>
			<defs>
				<rect id="SVGID_23_" x="85.3" y="8.4" width="821.1" height="763.6"/>
			</defs>
			<clipPath id="SVGID_6_">
				<use xlink:href="#SVGID_23_"  style="overflow:visible;"/>
			</clipPath>
			<g class="st34">
				<path class="st6" d="M497.3,15.9h-1.1V8.6c-0.3,0.3-0.6,0.5-1.1,0.8s-0.8,0.5-1.2,0.6V8.9c0.6-0.3,1.2-0.7,1.7-1.1
					s0.8-0.8,1-1.2h0.7V15.9z"/>
			</g>
		</g>
		<g>
			<defs>
				<rect id="SVGID_25_" x="85.3" y="8.4" width="821.1" height="763.6"/>
			</defs>
			<clipPath id="SVGID_8_">
				<use xlink:href="#SVGID_25_"  style="overflow:visible;"/>
			</clipPath>
			<g class="st35">
				<path class="st6" d="M506.3,18.6c-0.6-0.8-1.2-1.7-1.6-2.8c-0.4-1.1-0.7-2.2-0.7-3.3c0-1,0.2-2,0.5-2.9c0.4-1.1,1-2.1,1.8-3.2
					h0.8c-0.5,0.9-0.8,1.5-1,1.9c-0.3,0.6-0.5,1.2-0.6,1.8c-0.2,0.8-0.3,1.6-0.3,2.4c0,2,0.6,4,1.9,6.1H506.3z"/>
				<path class="st6" d="M514.1,14.8v1.1h-6.1c0-0.3,0-0.5,0.1-0.8c0.2-0.4,0.4-0.8,0.7-1.2c0.3-0.4,0.8-0.9,1.5-1.4
					c1-0.8,1.7-1.5,2-2c0.4-0.5,0.5-0.9,0.5-1.4c0-0.5-0.2-0.8-0.5-1.1s-0.7-0.5-1.3-0.5c-0.5,0-1,0.2-1.3,0.5
					c-0.3,0.3-0.5,0.8-0.5,1.4l-1.2-0.1c0.1-0.9,0.4-1.5,0.9-2c0.5-0.5,1.2-0.7,2.1-0.7c0.9,0,1.6,0.2,2.1,0.7s0.8,1.1,0.8,1.8
					c0,0.4-0.1,0.7-0.2,1.1c-0.2,0.4-0.4,0.7-0.8,1.1c-0.4,0.4-0.9,0.9-1.8,1.6c-0.7,0.6-1.1,1-1.3,1.2c-0.2,0.2-0.4,0.4-0.5,0.6
					H514.1z"/>
			</g>
		</g>
		<g>
			<defs>
				<rect id="SVGID_27_" x="85.3" y="8.4" width="821.1" height="763.6"/>
			</defs>
			<clipPath id="SVGID_10_">
				<use xlink:href="#SVGID_27_"  style="overflow:visible;"/>
			</clipPath>
			<g style="clip-path:url(#SVGID_10_);">
				<path class="st6" d="M523.2,15.9H522V8.6c-0.3,0.3-0.6,0.5-1.1,0.8s-0.8,0.5-1.2,0.6V8.9c0.6-0.3,1.2-0.7,1.7-1.1s0.8-0.8,1-1.2
					h0.7V15.9z"/>
			</g>
		</g>
		<g>
			<defs>
				<rect id="SVGID_29_" x="81.3" y="8.4" width="825.1" height="763.6"/>
			</defs>
			<clipPath id="SVGID_12_">
				<use xlink:href="#SVGID_29_"  style="overflow:visible;"/>
			</clipPath>
			<g class="st38">
				<path class="st6" d="M526.1,13.4l1.2-0.1c0.1,0.6,0.3,1,0.6,1.3s0.7,0.4,1.2,0.4c0.5,0,1-0.2,1.4-0.6s0.6-1,0.6-1.6
					c0-0.6-0.2-1.2-0.5-1.5c-0.4-0.4-0.8-0.6-1.4-0.6c-0.4,0-0.7,0.1-1,0.2c-0.3,0.2-0.5,0.4-0.7,0.6l-1.1-0.1l0.9-4.8h4.6v1.1h-3.7
					l-0.5,2.5c0.6-0.4,1.1-0.6,1.7-0.6c0.8,0,1.5,0.3,2,0.8s0.8,1.3,0.8,2.2c0,0.8-0.2,1.6-0.7,2.2c-0.6,0.7-1.4,1.1-2.4,1.1
					c-0.8,0-1.5-0.2-2.1-0.7C526.5,14.8,526.2,14.2,526.1,13.4z"/>
			</g>
		</g>
		<g>
			<defs>
				<rect id="SVGID_31_" x="85.3" y="8.4" width="821.1" height="763.6"/>
			</defs>
			<clipPath id="SVGID_14_">
				<use xlink:href="#SVGID_31_"  style="overflow:visible;"/>
			</clipPath>
			<g class="st39">
				<path class="st6" d="M532.8,16l2.7-9.6h0.9l-2.7,9.6H532.8z"/>
				<path class="st6" d="M536.9,13.4l1.1-0.2c0.1,0.6,0.4,1.1,0.7,1.4s0.7,0.4,1.1,0.4c0.5,0,1-0.2,1.4-0.6s0.6-0.8,0.6-1.4
					c0-0.5-0.2-1-0.5-1.3s-0.8-0.5-1.3-0.5c-0.2,0-0.5,0-0.8,0.1l0.1-1c0.1,0,0.1,0,0.2,0c0.5,0,0.9-0.1,1.3-0.4
					c0.4-0.3,0.6-0.6,0.6-1.2c0-0.4-0.1-0.8-0.4-1s-0.6-0.4-1.1-0.4c-0.4,0-0.8,0.1-1.1,0.4s-0.5,0.7-0.6,1.3L537,9
					c0.1-0.8,0.5-1.4,0.9-1.8c0.5-0.4,1.1-0.6,1.8-0.6c0.5,0,1,0.1,1.4,0.3c0.4,0.2,0.8,0.5,1,0.9c0.2,0.4,0.3,0.8,0.3,1.2
					c0,0.4-0.1,0.8-0.3,1.1s-0.5,0.6-1,0.8c0.5,0.1,1,0.4,1.3,0.8c0.3,0.4,0.5,0.9,0.5,1.5c0,0.8-0.3,1.5-0.9,2.1
					c-0.6,0.6-1.3,0.8-2.2,0.8c-0.8,0-1.5-0.2-2-0.7C537.3,14.8,537,14.2,536.9,13.4z"/>
				<path class="st6" d="M550.1,14.8v1.1h-6.1c0-0.3,0-0.5,0.1-0.8c0.2-0.4,0.4-0.8,0.7-1.2c0.3-0.4,0.8-0.9,1.5-1.4
					c1-0.8,1.7-1.5,2-2c0.4-0.5,0.5-0.9,0.5-1.4c0-0.5-0.2-0.8-0.5-1.1s-0.7-0.5-1.3-0.5c-0.5,0-1,0.2-1.3,0.5
					c-0.3,0.3-0.5,0.8-0.5,1.4l-1.2-0.1c0.1-0.9,0.4-1.5,0.9-2c0.5-0.5,1.2-0.7,2.1-0.7c0.9,0,1.6,0.2,2.1,0.7s0.8,1.1,0.8,1.8
					c0,0.4-0.1,0.7-0.2,1.1c-0.2,0.4-0.4,0.7-0.8,1.1c-0.4,0.4-0.9,0.9-1.8,1.6c-0.7,0.6-1.1,1-1.3,1.2c-0.2,0.2-0.4,0.4-0.5,0.6
					H550.1z"/>
				<path class="st6" d="M551.6,9.9l-0.3-1.8V6.6h1.3v1.5l-0.3,1.8H551.6z M553.7,9.9l-0.3-1.8V6.6h1.3v1.5l-0.3,1.8H553.7z"/>
			</g>
			<g class="st39">
				<path class="st6" d="M556.8,18.6H556c1.3-2,1.9-4,1.9-6.1c0-0.8-0.1-1.6-0.3-2.4c-0.1-0.6-0.3-1.2-0.6-1.8c-0.2-0.4-0.5-1-1-1.9
					h0.8c0.8,1.1,1.4,2.1,1.8,3.2c0.3,0.9,0.5,1.9,0.5,2.9c0,1.1-0.2,2.2-0.7,3.3C557.9,16.9,557.4,17.8,556.8,18.6z"/>
			</g>
		</g>
		<polygon class="st1" points="429.2,616.9 175.9,675.3 174.1,676 172.4,677 171.2,678.4 170.1,680 169.5,681.8 169.3,683.7 
			169.3,707.9 169.5,709.8 170.1,711.6 171.2,713.3 172.5,714.7 174.1,715.6 175.9,716.3 177.8,716.5 822.4,716.5 824.3,716.3 
			826.1,715.6 827.7,714.7 829.1,713.3 830.2,711.6 830.8,709.8 831,707.9 831,683.7 830.8,681.8 830.2,680 829.1,678.4 827.8,677 
			826.1,676 824.3,675.3 571.1,616.9 567.3,615.7 563.8,614.2 560.3,612.3 557.2,610.1 554.3,607.5 551.7,604.6 549.5,601.4 
			547.7,597.9 546.2,594.3 545.2,590.6 544.6,586.7 542.1,559.9 540.1,533 538.6,506.2 537.6,479.2 536.8,452.3 536.6,425.4 
			536.8,398.4 537.6,371.5 538.6,344.7 540.1,317.7 542.1,290.9 544.6,264.1 545.2,260.2 546.2,256.4 547.7,252.8 549.5,249.4 
			551.7,246.2 554.3,243.3 557.2,240.6 560.3,238.4 563.8,236.5 567.3,235 571.1,233.9 663.2,212.6 665.1,212 666.6,210.9 
			668,209.7 669,208 669.6,206.2 669.8,204.2 669.8,102.8 669.6,98.5 669,94.3 668,90.1 666.5,86.1 664.6,82.3 662.4,78.6 
			659.9,75.2 657,72 653.8,69.2 650.3,66.7 646.6,64.6 642.8,62.8 638.6,61.4 634.5,60.4 630.3,59.9 604.3,58.1 578.3,56.6 
			552.2,55.6 526.2,54.9 500.1,54.8 474.1,54.9 448.1,55.6 422,56.6 396,58.1 370,59.9 365.8,60.4 361.5,61.4 357.5,62.8 
			353.7,64.6 350,66.7 346.5,69.2 343.3,72 340.4,75.2 337.8,78.6 335.5,82.3 333.7,86.1 332.3,90.1 331.2,94.3 330.6,98.5 
			330.3,102.8 330.3,204.2 330.6,206.2 331.2,208 332.3,209.7 333.6,210.9 335.2,212 337,212.6 429.2,233.9 432.9,235 436.5,236.5 
			439.9,238.4 443.1,240.6 445.9,243.3 448.6,246.2 450.8,249.4 452.6,252.8 454.1,256.4 455.1,260.2 455.7,264.1 458.1,290.9 
			460.1,317.7 461.6,344.7 462.7,371.5 463.3,398.4 463.7,425.4 463.3,452.3 462.7,479.2 461.6,506.2 460.1,533 458.1,559.9 
			455.7,586.7 455.7,586.7 455.1,590.6 454.1,594.3 452.6,597.9 450.8,601.4 448.6,604.6 445.9,607.5 443.1,610.1 440,612.3 
			436.5,614.2 433,615.7 		"/>
		<path class="st42" d="M501.1,600.6l90.4,21.6 M320.2,208.8l180.2,41l112.6-25.3 M501.7,600.6l-95.9,21.6 M429.2,616.9l-253.3,58.4
			l-1.8,0.6l-1.7,1.1l-1.3,1.4l-1.1,1.6l-0.6,1.8l-0.2,1.9v24.2l0.2,1.9l0.6,1.8l1.1,1.7l1.4,1.4l1.6,1l1.8,0.6l1.9,0.2h644.6
			l1.9-0.2l1.8-0.6l1.6-1l1.4-1.4l1.1-1.7l0.6-1.8l0.2-1.9v-24.2l-0.2-1.9l-0.6-1.8l-1.1-1.6l-1.3-1.4l-1.7-1.1l-1.8-0.6
			l-253.3-58.4l-3.8-1.2l-3.5-1.5l-3.5-1.9l-3.1-2.2l-2.9-2.7l-2.7-2.9l-2.2-3.2l-1.8-3.5l-1.5-3.6l-1-3.7l-0.6-3.9l-2.4-26.7
			l-2-26.9l-1.5-26.8l-1.1-26.9l-0.7-26.9l-0.2-26.9l0.2-26.9l0.7-26.9l1.1-26.8l1.5-26.9l2-26.8l2.4-26.8l0.6-3.8l1-3.8l1.5-3.6
			l1.8-3.4l2.2-3.2l2.7-3l2.9-2.7l3.1-2.2l3.5-1.9l3.5-1.5l3.8-1.1l92.2-21.3l1.8-0.6l1.6-1.1l1.4-1.3l1-1.7l0.6-1.8l0.2-1.9V102.8
			l-0.2-4.2l-0.6-4.2l-1-4.1l-1.5-4l-1.9-3.8l-2.2-3.7l-2.5-3.4L657,72l-3.2-2.8l-3.5-2.5l-3.7-2.1l-3.8-1.8l-4.1-1.4l-4.1-1
			l-4.2-0.5l-26-1.8l-26-1.5l-26.1-1.1l-26-0.6l-26.1-0.1l-26.1,0.1l-26,0.6L422,56.6l-26,1.5l-26,1.8l-4.2,0.5l-4.2,1l-4,1.4
			l-3.8,1.8l-3.7,2.1l-3.5,2.5l-3.2,2.8l-2.9,3.2l-2.7,3.4l-2.2,3.7l-1.8,3.8l-1.5,4l-1.1,4.1l-0.6,4.2l-0.2,4.2v101.5l0.2,1.9
			l0.6,1.8l1.1,1.7l1.4,1.3l1.6,1.1l1.8,0.6l92.2,21.3l3.7,1.1l3.6,1.5l3.4,1.9l3.2,2.2l2.9,2.7l2.7,3l2.2,3.2l1.8,3.4l1.5,3.6
			l1,3.8l0.6,3.8l2.4,26.8l1.9,26.8l1.6,26.9l1.1,26.8l0.6,26.9l0.3,26.9l-0.3,26.9l-0.6,26.9l-1.1,26.9l-1.6,26.8l-1.9,26.9
			l-2.4,26.7h0l-0.6,3.9l-1,3.7l-1.5,3.6l-1.8,3.5l-2.2,3.2l-2.7,2.9l-2.9,2.7l-3.1,2.2l-3.5,1.9l-3.5,1.5L429.2,616.9z"/>
		<g>
			<defs>
				<rect id="SVGID_33_" x="85.3" y="8.4" width="821.1" height="763.6"/>
			</defs>
			<clipPath id="SVGID_16_">
				<use xlink:href="#SVGID_33_"  style="overflow:visible;"/>
			</clipPath>
			
				<line style="clip-path:url(#SVGID_16_);fill:none;stroke:#241F21;stroke-width:0.8984;" x1="85.3" y1="249.8" x2="808.3" y2="249.8"/>
		</g>
		<g>
			<defs>
				<rect id="SVGID_35_" x="81.3" y="8.4" width="825.1" height="763.6"/>
			</defs>
			<clipPath id="SVGID_18_">
				<use xlink:href="#SVGID_35_"  style="overflow:visible;"/>
			</clipPath>
			<path style="clip-path:url(#SVGID_18_);fill:none;stroke:#241F21;stroke-width:0.8984;" d="M90.8,716.7h817.4 M89.3,54.9h817.4
				 M330.1,112.2V11.2 M669.7,117.1V11.2"/>
		</g>
		<g>
			<defs>
				<rect id="SVGID_37_" x="85.3" y="8.4" width="821.1" height="763.6"/>
			</defs>
			<clipPath id="SVGID_20_">
				<use xlink:href="#SVGID_37_"  style="overflow:visible;"/>
			</clipPath>
			
				<line style="clip-path:url(#SVGID_20_);fill:none;stroke:#241F21;stroke-width:0.8984;" x1="169.3" y1="698.1" x2="169.3" y2="776.3"/>
		</g>
		<g>
			<defs>
				<rect id="SVGID_39_" x="81.3" y="8.4" width="825.1" height="763.6"/>
			</defs>
			<clipPath id="SVGID_22_">
				<use xlink:href="#SVGID_39_"  style="overflow:visible;"/>
			</clipPath>
			<path style="clip-path:url(#SVGID_22_);fill:none;stroke:#241F21;stroke-width:0.8984;" d="M809,600.7H89.3 M831,689.7V774"/>
		</g>
		<g>
			<path class="st6" d="M458.6,758.3h-1.1v-7.2c-0.3,0.3-0.6,0.5-1.1,0.8c-0.4,0.3-0.8,0.5-1.2,0.6v-1.1c0.6-0.3,1.2-0.7,1.7-1.1
				c0.5-0.4,0.8-0.8,1-1.2h0.7V758.3z"/>
			<path class="st6" d="M467.5,757.2v1.1h-6.1c0-0.3,0-0.5,0.1-0.8c0.2-0.4,0.4-0.8,0.7-1.2c0.3-0.4,0.8-0.9,1.5-1.4
				c1-0.8,1.7-1.5,2-2c0.4-0.5,0.5-0.9,0.5-1.4c0-0.5-0.2-0.8-0.5-1.1s-0.7-0.5-1.3-0.5c-0.5,0-1,0.2-1.3,0.5
				c-0.3,0.3-0.5,0.8-0.5,1.4l-1.2-0.1c0.1-0.9,0.4-1.5,0.9-2c0.5-0.5,1.2-0.7,2.1-0.7c0.9,0,1.6,0.2,2.1,0.7
				c0.5,0.5,0.8,1.1,0.8,1.8c0,0.4-0.1,0.7-0.2,1.1c-0.2,0.4-0.4,0.7-0.8,1.1c-0.4,0.4-0.9,0.9-1.8,1.6c-0.7,0.6-1.1,1-1.3,1.2
				c-0.2,0.2-0.4,0.4-0.5,0.6H467.5z"/>
			<path class="st6" d="M474.7,757.2v1.1h-6.1c0-0.3,0-0.5,0.1-0.8c0.2-0.4,0.4-0.8,0.7-1.2c0.3-0.4,0.8-0.9,1.5-1.4
				c1-0.8,1.7-1.5,2-2c0.4-0.5,0.5-0.9,0.5-1.4c0-0.5-0.2-0.8-0.5-1.1s-0.7-0.5-1.3-0.5c-0.5,0-1,0.2-1.3,0.5
				c-0.3,0.3-0.5,0.8-0.5,1.4l-1.2-0.1c0.1-0.9,0.4-1.5,0.9-2c0.5-0.5,1.2-0.7,2.1-0.7c0.9,0,1.6,0.2,2.1,0.7
				c0.5,0.5,0.8,1.1,0.8,1.8c0,0.4-0.1,0.7-0.2,1.1c-0.2,0.4-0.4,0.7-0.8,1.1c-0.4,0.4-0.9,0.9-1.8,1.6c-0.7,0.6-1.1,1-1.3,1.2
				c-0.2,0.2-0.4,0.4-0.5,0.6H474.7z"/>
			<path class="st6" d="M476.6,758.3V757h1.3v1.3H476.6z"/>
			<path class="st6" d="M485.5,757.2v1.1h-6.1c0-0.3,0-0.5,0.1-0.8c0.2-0.4,0.4-0.8,0.7-1.2c0.3-0.4,0.8-0.9,1.5-1.4
				c1-0.8,1.7-1.5,2-2c0.4-0.5,0.5-0.9,0.5-1.4c0-0.5-0.2-0.8-0.5-1.1s-0.7-0.5-1.3-0.5c-0.5,0-1,0.2-1.3,0.5
				c-0.3,0.3-0.5,0.8-0.5,1.4l-1.2-0.1c0.1-0.9,0.4-1.5,0.9-2c0.5-0.5,1.2-0.7,2.1-0.7c0.9,0,1.6,0.2,2.1,0.7
				c0.5,0.5,0.8,1.1,0.8,1.8c0,0.4-0.1,0.7-0.2,1.1c-0.2,0.4-0.4,0.7-0.8,1.1c-0.4,0.4-0.9,0.9-1.8,1.6c-0.7,0.6-1.1,1-1.3,1.2
				c-0.2,0.2-0.4,0.4-0.5,0.6H485.5z"/>
			<path class="st6" d="M490.4,758.3v-2.2h-4v-1l4.2-6h0.9v6h1.3v1h-1.3v2.2H490.4z M490.4,755.1v-4.2l-2.9,4.2H490.4z"/>
			<path class="st6" d="M500,761c-0.6-0.8-1.2-1.7-1.6-2.8c-0.4-1.1-0.7-2.2-0.7-3.3c0-1,0.2-2,0.5-2.9c0.4-1.1,1-2.1,1.8-3.2h0.8
				c-0.5,0.9-0.8,1.5-1,1.9c-0.3,0.6-0.5,1.2-0.6,1.8c-0.2,0.8-0.3,1.6-0.3,2.4c0,2,0.6,4,1.9,6.1H500z"/>
			<path class="st6" d="M505.5,758.3v-2.2h-4v-1l4.2-6h0.9v6h1.3v1h-1.3v2.2H505.5z M505.5,755.1v-4.2l-2.9,4.2H505.5z"/>
			<path class="st6" d="M516.9,758.3h-1.1v-7.2c-0.3,0.3-0.6,0.5-1.1,0.8c-0.4,0.3-0.8,0.5-1.2,0.6v-1.1c0.6-0.3,1.2-0.7,1.7-1.1
				c0.5-0.4,0.8-0.8,1-1.2h0.7V758.3z"/>
			<path class="st6" d="M519.8,755.9l1.1-0.2c0.1,0.6,0.4,1.1,0.7,1.4s0.7,0.4,1.1,0.4c0.5,0,1-0.2,1.4-0.6c0.4-0.4,0.6-0.8,0.6-1.4
				c0-0.5-0.2-1-0.5-1.3s-0.8-0.5-1.3-0.5c-0.2,0-0.5,0-0.8,0.1l0.1-1c0.1,0,0.1,0,0.2,0c0.5,0,0.9-0.1,1.3-0.4
				c0.4-0.3,0.6-0.6,0.6-1.2c0-0.4-0.1-0.8-0.4-1s-0.6-0.4-1.1-0.4c-0.4,0-0.8,0.1-1.1,0.4c-0.3,0.3-0.5,0.7-0.6,1.3l-1.1-0.2
				c0.1-0.8,0.5-1.4,0.9-1.8c0.5-0.4,1.1-0.6,1.8-0.6c0.5,0,1,0.1,1.4,0.3c0.4,0.2,0.8,0.5,1,0.9c0.2,0.4,0.3,0.8,0.3,1.2
				c0,0.4-0.1,0.8-0.3,1.1c-0.2,0.3-0.5,0.6-1,0.8c0.5,0.1,1,0.4,1.3,0.8c0.3,0.4,0.5,0.9,0.5,1.5c0,0.8-0.3,1.5-0.9,2.1
				c-0.6,0.6-1.3,0.8-2.2,0.8c-0.8,0-1.5-0.2-2-0.7C520.2,757.3,519.9,756.7,519.8,755.9z"/>
			<path class="st6" d="M526.5,758.5l2.7-9.6h0.9l-2.7,9.6H526.5z"/>
			<path class="st6" d="M534.9,758.3h-1.1v-7.2c-0.3,0.3-0.6,0.5-1.1,0.8c-0.4,0.3-0.8,0.5-1.2,0.6v-1.1c0.6-0.3,1.2-0.7,1.7-1.1
				c0.5-0.4,0.8-0.8,1-1.2h0.7V758.3z"/>
			<path class="st6" d="M543.7,751.3l-1.1,0.1c-0.1-0.4-0.2-0.8-0.4-1c-0.3-0.3-0.7-0.5-1.1-0.5c-0.4,0-0.7,0.1-1,0.3
				c-0.4,0.3-0.6,0.6-0.8,1.1c-0.2,0.5-0.3,1.2-0.3,2.1c0.3-0.4,0.6-0.7,1-0.9c0.4-0.2,0.8-0.3,1.2-0.3c0.8,0,1.4,0.3,1.9,0.8
				c0.5,0.6,0.8,1.3,0.8,2.2c0,0.6-0.1,1.1-0.4,1.6c-0.2,0.5-0.6,0.9-1,1.1c-0.4,0.3-0.9,0.4-1.5,0.4c-0.9,0-1.7-0.3-2.3-1
				c-0.6-0.7-0.9-1.8-0.9-3.4c0-1.8,0.3-3.1,1-3.9c0.6-0.7,1.4-1.1,2.3-1.1c0.7,0,1.3,0.2,1.8,0.6
				C543.3,750,543.6,750.6,543.7,751.3z M539,755.3c0,0.4,0.1,0.8,0.2,1.1c0.2,0.4,0.4,0.6,0.7,0.8s0.6,0.3,0.9,0.3
				c0.5,0,0.9-0.2,1.2-0.6c0.3-0.4,0.5-0.9,0.5-1.6c0-0.6-0.2-1.1-0.5-1.5c-0.3-0.4-0.8-0.6-1.3-0.6c-0.5,0-1,0.2-1.3,0.6
				C539.2,754.2,539,754.7,539,755.3z"/>
			<path class="st6" d="M545.4,752.3l-0.3-1.8v-1.5h1.3v1.5l-0.3,1.8H545.4z M547.4,752.3l-0.3-1.8v-1.5h1.3v1.5l-0.3,1.8H547.4z"/>
		</g>
		<g>
			<path class="st6" d="M550.6,761h-0.8c1.3-2,1.9-4,1.9-6.1c0-0.8-0.1-1.6-0.3-2.4c-0.1-0.6-0.3-1.2-0.6-1.8c-0.2-0.4-0.5-1-1-1.9
				h0.8c0.8,1.1,1.4,2.1,1.8,3.2c0.3,0.9,0.5,1.9,0.5,2.9c0,1.1-0.2,2.2-0.7,3.3C551.7,759.3,551.2,760.3,550.6,761z"/>
		</g>
		<line class="st42" x1="181.2" y1="765.4" x2="819.1" y2="765.4"/>
		<polygon class="st31" points="183.9,769.2 169.3,765.3 183.9,761.3 		"/>
		<polygon class="st31" points="816.4,769.2 831,765.3 816.4,761.3 		"/>
		<line class="st55" x1="500.4" y1="735.4" x2="499.6" y2="36.7"/>
		<g>
			<path class="st31" d="M512.4,734.5v-5.5l-5-7.5h2.1l2.6,3.9c0.5,0.7,0.9,1.5,1.3,2.2c0.4-0.7,0.9-1.4,1.5-2.3l2.5-3.8h2l-5.2,7.5
				v5.5H512.4z"/>
			<path class="st31" d="M512.4,50.5V45l-5-7.5h2.1l2.6,3.9c0.5,0.7,0.9,1.5,1.3,2.2c0.4-0.7,0.9-1.4,1.5-2.3l2.5-3.8h2l-5.2,7.5
				v5.5H512.4z"/>
		</g>
		<line class="st42" x1="861.3" y1="705.4" x2="861.3" y2="436.6"/>
		<polygon class="st31" points="865.1,702.7 861.2,717.3 857.2,702.7 		"/>
		<polygon class="st31" points="865.1,439.2 861.2,424.6 857.2,439.2 		"/>
		<line class="st42" x1="861.3" y1="412.7" x2="861.3" y2="67.4"/>
		<polygon class="st31" points="865.1,410 861.2,424.6 857.2,410 		"/>
		<polygon class="st31" points="865.1,70.1 861.2,55.5 857.2,70.1 		"/>
		<g>
			<path class="st6" d="M849.1,238.8l0.1,1.1c-0.4,0.1-0.8,0.2-1,0.4c-0.3,0.3-0.5,0.7-0.5,1.1c0,0.4,0.1,0.7,0.3,1
				c0.3,0.4,0.6,0.6,1.1,0.8c0.5,0.2,1.2,0.3,2.1,0.3c-0.4-0.3-0.7-0.6-0.9-1c-0.2-0.4-0.3-0.8-0.3-1.2c0-0.8,0.3-1.4,0.8-1.9
				c0.6-0.5,1.3-0.8,2.2-0.8c0.6,0,1.1,0.1,1.6,0.4s0.9,0.6,1.1,1c0.3,0.4,0.4,0.9,0.4,1.5c0,0.9-0.3,1.7-1,2.3
				c-0.7,0.6-1.8,0.9-3.4,0.9c-1.8,0-3.1-0.3-3.9-1c-0.7-0.6-1.1-1.4-1.1-2.3c0-0.7,0.2-1.3,0.6-1.8
				C847.8,239.2,848.4,238.9,849.1,238.8z M853.1,243.5c0.4,0,0.8-0.1,1.1-0.2c0.4-0.2,0.6-0.4,0.8-0.7s0.3-0.6,0.3-0.9
				c0-0.5-0.2-0.9-0.6-1.2c-0.4-0.3-0.9-0.5-1.6-0.5c-0.6,0-1.1,0.2-1.5,0.5c-0.4,0.3-0.6,0.8-0.6,1.3c0,0.5,0.2,0.9,0.6,1.3
				C852,243.3,852.5,243.5,853.1,243.5z"/>
			<path class="st6" d="M851.1,235.8c-0.2,0.5-0.4,0.8-0.7,1c-0.3,0.2-0.7,0.3-1.1,0.3c-0.7,0-1.2-0.2-1.7-0.7
				c-0.5-0.5-0.7-1.1-0.7-1.9c0-0.8,0.2-1.5,0.7-2c0.5-0.5,1-0.7,1.7-0.7c0.4,0,0.8,0.1,1.1,0.3c0.3,0.2,0.6,0.6,0.7,1
				c0.2-0.6,0.5-1,0.9-1.3c0.4-0.3,0.9-0.4,1.5-0.4c0.8,0,1.5,0.3,2,0.8s0.8,1.3,0.8,2.2c0,0.9-0.3,1.7-0.8,2.2s-1.2,0.8-2,0.8
				c-0.6,0-1.1-0.2-1.5-0.5C851.5,236.8,851.2,236.3,851.1,235.8z M849.1,236c0.4,0,0.8-0.1,1.1-0.4c0.3-0.3,0.4-0.6,0.4-1.1
				c0-0.4-0.1-0.8-0.4-1.1c-0.3-0.3-0.6-0.4-1-0.4c-0.4,0-0.8,0.1-1.1,0.4s-0.4,0.6-0.4,1.1c0,0.4,0.1,0.8,0.4,1.1
				C848.4,235.9,848.7,236,849.1,236z M853.4,236.4c0.3,0,0.6-0.1,0.9-0.2c0.3-0.2,0.5-0.4,0.7-0.7c0.2-0.3,0.2-0.6,0.2-1
				c0-0.5-0.2-1-0.5-1.3c-0.3-0.4-0.8-0.5-1.3-0.5c-0.5,0-1,0.2-1.4,0.5c-0.4,0.4-0.5,0.8-0.5,1.4c0,0.5,0.2,1,0.5,1.3
				S852.9,236.4,853.4,236.4z"/>
			<path class="st6" d="M856.1,229.7h-1.3v-1.3h1.3V229.7z"/>
			<path class="st6" d="M856.1,223.1h-2.2v4h-1l-6-4.2V222h6v-1.3h1v1.3h2.2V223.1z M852.8,223.1h-4.2l4.2,2.9V223.1z"/>
			<path class="st6" d="M849.1,213.6l0.1,1.1c-0.4,0.1-0.8,0.2-1,0.4c-0.3,0.3-0.5,0.7-0.5,1.1c0,0.4,0.1,0.7,0.3,1
				c0.3,0.4,0.6,0.6,1.1,0.8c0.5,0.2,1.2,0.3,2.1,0.3c-0.4-0.3-0.7-0.6-0.9-1c-0.2-0.4-0.3-0.8-0.3-1.2c0-0.8,0.3-1.4,0.8-1.9
				c0.6-0.5,1.3-0.8,2.2-0.8c0.6,0,1.1,0.1,1.6,0.4s0.9,0.6,1.1,1c0.3,0.4,0.4,0.9,0.4,1.5c0,0.9-0.3,1.7-1,2.3
				c-0.7,0.6-1.8,0.9-3.4,0.9c-1.8,0-3.1-0.3-3.9-1c-0.7-0.6-1.1-1.4-1.1-2.3c0-0.7,0.2-1.3,0.6-1.8
				C847.8,214,848.4,213.7,849.1,213.6z M853.1,218.3c0.4,0,0.8-0.1,1.1-0.2c0.4-0.2,0.6-0.4,0.8-0.7s0.3-0.6,0.3-0.9
				c0-0.5-0.2-0.9-0.6-1.2c-0.4-0.3-0.9-0.5-1.6-0.5c-0.6,0-1.1,0.2-1.5,0.5c-0.4,0.3-0.6,0.8-0.6,1.3c0,0.5,0.2,0.9,0.6,1.3
				C852,218.1,852.5,218.3,853.1,218.3z"/>
		</g>
		<g>
			<path class="st6" d="M853.7,577.3l-0.1-1.2c0.6-0.1,1-0.3,1.3-0.6s0.4-0.7,0.4-1.2c0-0.5-0.2-1-0.6-1.4c-0.4-0.4-1-0.6-1.6-0.6
				c-0.6,0-1.2,0.2-1.5,0.5c-0.4,0.4-0.6,0.8-0.6,1.4c0,0.4,0.1,0.7,0.2,1s0.4,0.5,0.6,0.7l-0.1,1.1l-4.8-0.9v-4.6h1.1v3.7l2.5,0.5
				c-0.4-0.6-0.6-1.1-0.6-1.7c0-0.8,0.3-1.5,0.8-2c0.6-0.6,1.3-0.8,2.2-0.8c0.8,0,1.6,0.2,2.2,0.7c0.8,0.6,1.1,1.4,1.1,2.4
				c0,0.8-0.2,1.5-0.7,2.1C855.1,576.9,854.4,577.2,853.7,577.3z"/>
			<path class="st6" d="M853.6,570.1l-0.2-1.1c0.6-0.1,1.1-0.4,1.4-0.7s0.4-0.7,0.4-1.1c0-0.5-0.2-1-0.6-1.4
				c-0.4-0.4-0.8-0.6-1.4-0.6c-0.5,0-1,0.2-1.3,0.5s-0.5,0.8-0.5,1.3c0,0.2,0,0.5,0.1,0.8l-1-0.1c0-0.1,0-0.1,0-0.2
				c0-0.5-0.1-0.9-0.4-1.3c-0.3-0.4-0.6-0.6-1.2-0.6c-0.4,0-0.8,0.1-1,0.4s-0.4,0.6-0.4,1.1c0,0.4,0.1,0.8,0.4,1.1
				c0.3,0.3,0.7,0.5,1.3,0.6l-0.2,1.1c-0.8-0.1-1.4-0.5-1.8-0.9c-0.4-0.5-0.6-1.1-0.6-1.8c0-0.5,0.1-1,0.3-1.4
				c0.2-0.4,0.5-0.8,0.9-1c0.4-0.2,0.8-0.3,1.2-0.3c0.4,0,0.8,0.1,1.1,0.3c0.3,0.2,0.6,0.5,0.8,1c0.1-0.5,0.4-1,0.8-1.3
				c0.4-0.3,0.9-0.5,1.5-0.5c0.8,0,1.5,0.3,2.1,0.9c0.6,0.6,0.8,1.3,0.8,2.2c0,0.8-0.2,1.5-0.7,2C855,569.7,854.4,570,853.6,570.1z"
				/>
			<path class="st6" d="M856.1,562.3h-1.3V561h1.3V562.3z"/>
			<path class="st6" d="M848,559.2h-1.1v-6h0.9c0.6,0.6,1.5,1.2,2.5,1.8c1,0.6,2.1,1,3.2,1.3c0.8,0.2,1.6,0.4,2.5,0.4v1.2
				c-0.7,0-1.6-0.2-2.6-0.4c-1-0.3-2-0.7-3-1.2s-1.8-1.1-2.4-1.6V559.2z"/>
			<path class="st6" d="M851.1,550.4c-0.2,0.5-0.4,0.8-0.7,1c-0.3,0.2-0.7,0.3-1.1,0.3c-0.7,0-1.2-0.2-1.7-0.7s-0.7-1.1-0.7-1.9
				c0-0.8,0.2-1.5,0.7-2c0.5-0.5,1-0.7,1.7-0.7c0.4,0,0.8,0.1,1.1,0.3c0.3,0.2,0.6,0.6,0.7,1c0.2-0.6,0.5-1,0.9-1.3
				c0.4-0.3,0.9-0.4,1.5-0.4c0.8,0,1.5,0.3,2,0.8c0.5,0.6,0.8,1.3,0.8,2.2c0,0.9-0.3,1.7-0.8,2.2s-1.2,0.8-2,0.8
				c-0.6,0-1.1-0.2-1.5-0.5C851.5,551.4,851.2,550.9,851.1,550.4z M849.1,550.6c0.4,0,0.8-0.1,1.1-0.4c0.3-0.3,0.4-0.6,0.4-1.1
				c0-0.4-0.1-0.8-0.4-1.1c-0.3-0.3-0.6-0.4-1-0.4c-0.4,0-0.8,0.1-1.1,0.4s-0.4,0.6-0.4,1.1c0,0.4,0.1,0.8,0.4,1.1
				C848.4,550.4,848.7,550.6,849.1,550.6z M853.4,550.9c0.3,0,0.6-0.1,0.9-0.2c0.3-0.2,0.5-0.4,0.7-0.7c0.2-0.3,0.2-0.6,0.2-1
				c0-0.5-0.2-1-0.5-1.3c-0.3-0.4-0.8-0.5-1.3-0.5c-0.5,0-1,0.2-1.4,0.5c-0.4,0.4-0.5,0.8-0.5,1.4c0,0.5,0.2,1,0.5,1.3
				S852.9,550.9,853.4,550.9z"/>
		</g>
		<line class="st42" x1="100" y1="238.4" x2="100" y2="66.8"/>
		<polygon class="st31" points="103.7,235.7 99.8,250.3 95.9,235.7 		"/>
		<polygon class="st31" points="103.7,69.4 99.8,54.8 95.9,69.4 		"/>
		<g>
			<path class="st6" d="M92.3,197.7l-0.2-1.1c0.6-0.1,1.1-0.4,1.4-0.7c0.3-0.3,0.4-0.7,0.4-1.1c0-0.5-0.2-1-0.6-1.4
				c-0.4-0.4-0.8-0.6-1.4-0.6c-0.5,0-1,0.2-1.3,0.5c-0.3,0.3-0.5,0.8-0.5,1.3c0,0.2,0,0.5,0.1,0.8l-1-0.1c0-0.1,0-0.1,0-0.2
				c0-0.5-0.1-0.9-0.4-1.3c-0.3-0.4-0.6-0.6-1.2-0.6c-0.4,0-0.8,0.1-1,0.4c-0.3,0.3-0.4,0.6-0.4,1.1c0,0.4,0.1,0.8,0.4,1.1
				c0.3,0.3,0.7,0.5,1.3,0.6l-0.2,1.1c-0.8-0.1-1.4-0.5-1.8-0.9s-0.6-1.1-0.6-1.8c0-0.5,0.1-1,0.3-1.4s0.5-0.8,0.9-1
				c0.4-0.2,0.8-0.3,1.2-0.3c0.4,0,0.8,0.1,1.1,0.3c0.3,0.2,0.6,0.5,0.8,1c0.1-0.5,0.4-1,0.8-1.3c0.4-0.3,0.9-0.5,1.5-0.5
				c0.8,0,1.5,0.3,2.1,0.9c0.6,0.6,0.8,1.3,0.8,2.2c0,0.8-0.2,1.5-0.7,2C93.7,197.3,93.1,197.6,92.3,197.7z"/>
			<path class="st6" d="M87.8,184.6l0.1,1.1c-0.4,0.1-0.8,0.2-1,0.4c-0.3,0.3-0.5,0.7-0.5,1.1c0,0.4,0.1,0.7,0.3,1
				c0.3,0.4,0.6,0.6,1.1,0.8c0.5,0.2,1.2,0.3,2.1,0.3c-0.4-0.3-0.7-0.6-0.9-1c-0.2-0.4-0.3-0.8-0.3-1.2c0-0.8,0.3-1.4,0.8-1.9
				c0.6-0.5,1.3-0.8,2.2-0.8c0.6,0,1.1,0.1,1.6,0.4s0.9,0.6,1.1,1c0.3,0.4,0.4,0.9,0.4,1.5c0,0.9-0.3,1.7-1,2.3
				c-0.7,0.6-1.8,0.9-3.4,0.9c-1.8,0-3.1-0.3-3.9-1c-0.7-0.6-1.1-1.4-1.1-2.3c0-0.7,0.2-1.3,0.6-1.8C86.5,185,87,184.7,87.8,184.6z
				 M91.7,189.3c0.4,0,0.8-0.1,1.1-0.2c0.4-0.2,0.6-0.4,0.8-0.7s0.3-0.6,0.3-0.9c0-0.5-0.2-0.9-0.6-1.2c-0.4-0.3-0.9-0.5-1.6-0.5
				c-0.6,0-1.1,0.2-1.5,0.5c-0.4,0.3-0.6,0.8-0.6,1.3c0,0.5,0.2,0.9,0.6,1.3C90.7,189.1,91.1,189.3,91.7,189.3z"/>
			<path class="st6" d="M94.7,182.7h-1.3v-1.3h1.3V182.7z"/>
			<path class="st6" d="M94.7,175.4v1.1h-7.2c0.3,0.3,0.5,0.6,0.8,1.1c0.3,0.4,0.5,0.8,0.6,1.2h-1.1c-0.3-0.6-0.7-1.2-1.1-1.7
				c-0.4-0.5-0.8-0.8-1.2-1v-0.7H94.7z"/>
			<path class="st6" d="M93.7,166.6h1.1v6.1c-0.3,0-0.5,0-0.8-0.1c-0.4-0.2-0.8-0.4-1.2-0.7c-0.4-0.3-0.9-0.8-1.4-1.5
				c-0.8-1-1.5-1.7-2-2c-0.5-0.4-0.9-0.5-1.4-0.5c-0.5,0-0.8,0.2-1.1,0.5s-0.5,0.7-0.5,1.3c0,0.5,0.2,1,0.5,1.3
				c0.3,0.3,0.8,0.5,1.4,0.5l-0.1,1.2c-0.9-0.1-1.5-0.4-2-0.9c-0.5-0.5-0.7-1.2-0.7-2.1c0-0.9,0.2-1.6,0.7-2.1
				c0.5-0.5,1.1-0.8,1.8-0.8c0.4,0,0.7,0.1,1.1,0.2c0.4,0.2,0.7,0.4,1.1,0.8c0.4,0.4,0.9,0.9,1.6,1.8c0.6,0.7,1,1.1,1.2,1.3
				c0.2,0.2,0.4,0.4,0.6,0.5V166.6z"/>
			<path class="st6" d="M97.5,159.3c-0.8,0.6-1.7,1.2-2.8,1.6c-1.1,0.4-2.2,0.7-3.3,0.7c-1,0-2-0.2-2.9-0.5c-1.1-0.4-2.1-1-3.2-1.8
				v-0.8c0.9,0.5,1.5,0.8,1.9,1c0.6,0.3,1.2,0.5,1.8,0.6c0.8,0.2,1.6,0.3,2.4,0.3c2,0,4-0.6,6.1-1.9V159.3z"/>
			<path class="st6" d="M94.7,153.2v1.1h-7.2c0.3,0.3,0.5,0.6,0.8,1.1c0.3,0.4,0.5,0.8,0.6,1.2h-1.1c-0.3-0.6-0.7-1.2-1.1-1.7
				c-0.4-0.5-0.8-0.8-1.2-1v-0.7H94.7z"/>
			<path class="st6" d="M92,150.4h-1.1v-3.5H92V150.4z"/>
			<path class="st6" d="M93.7,140h1.1v6.1c-0.3,0-0.5,0-0.8-0.1c-0.4-0.2-0.8-0.4-1.2-0.7c-0.4-0.3-0.9-0.8-1.4-1.5
				c-0.8-1-1.5-1.7-2-2c-0.5-0.4-0.9-0.5-1.4-0.5c-0.5,0-0.8,0.2-1.1,0.5s-0.5,0.7-0.5,1.3c0,0.5,0.2,1,0.5,1.3
				c0.3,0.3,0.8,0.5,1.4,0.5l-0.1,1.2c-0.9-0.1-1.5-0.4-2-0.9c-0.5-0.5-0.7-1.2-0.7-2.1c0-0.9,0.2-1.6,0.7-2.1
				c0.5-0.5,1.1-0.8,1.8-0.8c0.4,0,0.7,0.1,1.1,0.2c0.4,0.2,0.7,0.4,1.1,0.8c0.4,0.4,0.9,0.9,1.6,1.8c0.6,0.7,1,1.1,1.2,1.3
				c0.2,0.2,0.4,0.4,0.6,0.5V140z"/>
			<path class="st6" d="M86.7,138.7h-1.1v-6h0.9c0.6,0.6,1.5,1.2,2.5,1.8s2.1,1,3.2,1.3c0.8,0.2,1.6,0.4,2.5,0.4v1.2
				c-0.7,0-1.6-0.2-2.6-0.4c-1-0.3-2-0.7-3-1.2s-1.8-1.1-2.4-1.6V138.7z"/>
			<path class="st6" d="M94.9,132.1l-9.6-2.7v-0.9l9.6,2.7V132.1z"/>
			<path class="st6" d="M87.8,122.1l0.1,1.1c-0.4,0.1-0.8,0.2-1,0.4c-0.3,0.3-0.5,0.7-0.5,1.1c0,0.4,0.1,0.7,0.3,1
				c0.3,0.4,0.6,0.6,1.1,0.8c0.5,0.2,1.2,0.3,2.1,0.3c-0.4-0.3-0.7-0.6-0.9-1c-0.2-0.4-0.3-0.8-0.3-1.2c0-0.8,0.3-1.4,0.8-1.9
				c0.6-0.5,1.3-0.8,2.2-0.8c0.6,0,1.1,0.1,1.6,0.4s0.9,0.6,1.1,1c0.3,0.4,0.4,0.9,0.4,1.5c0,0.9-0.3,1.7-1,2.3
				c-0.7,0.6-1.8,0.9-3.4,0.9c-1.8,0-3.1-0.3-3.9-1c-0.7-0.6-1.1-1.4-1.1-2.3c0-0.7,0.2-1.3,0.6-1.8C86.5,122.4,87,122.1,87.8,122.1
				z M91.7,126.7c0.4,0,0.8-0.1,1.1-0.2c0.4-0.2,0.6-0.4,0.8-0.7s0.3-0.6,0.3-0.9c0-0.5-0.2-0.9-0.6-1.2c-0.4-0.3-0.9-0.5-1.6-0.5
				c-0.6,0-1.1,0.2-1.5,0.5c-0.4,0.3-0.6,0.8-0.6,1.3c0,0.5,0.2,0.9,0.6,1.3C90.7,126.5,91.1,126.7,91.7,126.7z"/>
			<path class="st6" d="M94.7,117.1h-2.2v4h-1l-6-4.2V116h6v-1.3h1v1.3h2.2V117.1z M91.5,117.1h-4.2l4.2,2.9V117.1z"/>
			<path class="st6" d="M88.8,111.1l-1.8,0.3h-1.5v-1.3H87l1.8,0.3V111.1z M88.8,113.2l-1.8,0.3h-1.5v-1.3H87l1.8,0.3V113.2z"/>
		</g>
		<g>
			<path class="st6" d="M97.5,107.8v0.8c-2-1.3-4-1.9-6.1-1.9c-0.8,0-1.6,0.1-2.4,0.3c-0.6,0.1-1.2,0.3-1.8,0.6
				c-0.4,0.2-1,0.5-1.9,1v-0.8c1.1-0.8,2.1-1.4,3.2-1.8c0.9-0.3,1.9-0.5,2.9-0.5c1.1,0,2.2,0.2,3.3,0.7
				C95.7,106.7,96.7,107.2,97.5,107.8z"/>
		</g>
		<line class="st42" x1="100" y1="588.8" x2="100" y2="261.7"/>
		<polygon class="st31" points="103.7,586.1 99.8,600.7 95.9,586.1 		"/>
		<polygon class="st31" points="103.7,264.4 99.8,249.8 95.9,264.4 		"/>
		<g>
			<path class="st6" d="M87.8,426.6l0.1,1.1c-0.4,0.1-0.8,0.2-1,0.4c-0.3,0.3-0.5,0.7-0.5,1.1c0,0.4,0.1,0.7,0.3,1
				c0.3,0.4,0.6,0.6,1.1,0.8c0.5,0.2,1.2,0.3,2.1,0.3c-0.4-0.3-0.7-0.6-0.9-1c-0.2-0.4-0.3-0.8-0.3-1.2c0-0.8,0.3-1.4,0.8-1.9
				c0.6-0.5,1.3-0.8,2.2-0.8c0.6,0,1.1,0.1,1.6,0.4c0.5,0.2,0.9,0.6,1.1,1c0.3,0.4,0.4,0.9,0.4,1.5c0,0.9-0.3,1.7-1,2.3
				c-0.7,0.6-1.8,0.9-3.4,0.9c-1.8,0-3.1-0.3-3.9-1c-0.7-0.6-1.1-1.4-1.1-2.3c0-0.7,0.2-1.3,0.6-1.8C86.5,427,87,426.7,87.8,426.6z
				 M91.7,431.2c0.4,0,0.8-0.1,1.1-0.2c0.4-0.2,0.6-0.4,0.8-0.7s0.3-0.6,0.3-0.9c0-0.5-0.2-0.9-0.6-1.2c-0.4-0.3-0.9-0.5-1.6-0.5
				c-0.6,0-1.1,0.2-1.5,0.5c-0.4,0.3-0.6,0.8-0.6,1.3c0,0.5,0.2,1,0.6,1.3C90.7,431.1,91.1,431.2,91.7,431.2z"/>
			<path class="st6" d="M94.7,421.7h-2.2v4h-1l-6-4.2v-0.9h6v-1.3h1v1.3h2.2V421.7z M91.5,421.7h-4.2l4.2,2.9V421.7z"/>
			<path class="st6" d="M94.7,417.5h-1.3v-1.3h1.3V417.5z"/>
			<path class="st6" d="M87.8,408.6l0.1,1.1c-0.4,0.1-0.8,0.2-1,0.4c-0.3,0.3-0.5,0.7-0.5,1.1c0,0.4,0.1,0.7,0.3,1
				c0.3,0.4,0.6,0.6,1.1,0.8c0.5,0.2,1.2,0.3,2.1,0.3c-0.4-0.3-0.7-0.6-0.9-1c-0.2-0.4-0.3-0.8-0.3-1.2c0-0.8,0.3-1.4,0.8-1.9
				c0.6-0.5,1.3-0.8,2.2-0.8c0.6,0,1.1,0.1,1.6,0.4c0.5,0.2,0.9,0.6,1.1,1c0.3,0.4,0.4,0.9,0.4,1.5c0,0.9-0.3,1.7-1,2.3
				c-0.7,0.6-1.8,0.9-3.4,0.9c-1.8,0-3.1-0.3-3.9-1c-0.7-0.6-1.1-1.4-1.1-2.3c0-0.7,0.2-1.3,0.6-1.8C86.5,409,87,408.7,87.8,408.6z
				 M91.7,413.3c0.4,0,0.8-0.1,1.1-0.2c0.4-0.2,0.6-0.4,0.8-0.7s0.3-0.6,0.3-0.9c0-0.5-0.2-0.9-0.6-1.2c-0.4-0.3-0.9-0.5-1.6-0.5
				c-0.6,0-1.1,0.2-1.5,0.5c-0.4,0.3-0.6,0.8-0.6,1.3c0,0.5,0.2,1,0.6,1.3C90.7,413.1,91.1,413.3,91.7,413.3z"/>
			<path class="st6" d="M92.6,407.1l-0.1-1.1c0.5-0.1,0.9-0.3,1.1-0.5c0.2-0.3,0.3-0.6,0.3-1c0-0.3-0.1-0.7-0.2-0.9
				c-0.2-0.3-0.4-0.5-0.6-0.6s-0.6-0.3-1.1-0.4c-0.5-0.1-0.9-0.2-1.4-0.2c-0.1,0-0.1,0-0.2,0c0.4,0.2,0.7,0.5,0.9,0.9
				c0.2,0.4,0.3,0.8,0.3,1.3c0,0.8-0.3,1.4-0.8,1.9c-0.6,0.5-1.3,0.8-2.2,0.8c-0.9,0-1.7-0.3-2.3-0.8s-0.9-1.2-0.9-2.1
				c0-0.6,0.2-1.2,0.5-1.7s0.8-0.9,1.4-1.1s1.5-0.4,2.6-0.4c1.2,0,2.1,0.1,2.8,0.4s1.2,0.6,1.6,1.1c0.4,0.5,0.5,1.1,0.5,1.8
				c0,0.7-0.2,1.3-0.6,1.8S93.3,407.1,92.6,407.1z M88.5,402.5c-0.7,0-1.2,0.2-1.6,0.5c-0.4,0.3-0.6,0.8-0.6,1.3
				c0,0.5,0.2,0.9,0.6,1.3c0.4,0.4,0.9,0.6,1.6,0.6c0.6,0,1.1-0.2,1.4-0.5c0.4-0.4,0.6-0.8,0.6-1.3c0-0.5-0.2-1-0.6-1.3
				C89.7,402.7,89.2,402.5,88.5,402.5z"/>
			<path class="st6" d="M97.5,394c-0.8,0.6-1.7,1.2-2.8,1.6c-1.1,0.4-2.2,0.7-3.3,0.7c-1,0-2-0.2-2.9-0.5c-1.1-0.4-2.1-1-3.2-1.8
				v-0.8c0.9,0.5,1.5,0.8,1.9,1c0.6,0.3,1.2,0.5,1.8,0.6c0.8,0.2,1.6,0.3,2.4,0.3c2,0,4-0.6,6.1-1.9V394z"/>
			<path class="st6" d="M93.7,386.2h1.1v6.1c-0.3,0-0.5,0-0.8-0.1c-0.4-0.2-0.8-0.4-1.2-0.7c-0.4-0.3-0.9-0.8-1.4-1.5
				c-0.8-1-1.5-1.7-2-2c-0.5-0.4-0.9-0.5-1.4-0.5c-0.5,0-0.8,0.2-1.1,0.5s-0.5,0.7-0.5,1.3c0,0.5,0.2,1,0.5,1.3
				c0.3,0.3,0.8,0.5,1.4,0.5l-0.1,1.2c-0.9-0.1-1.5-0.4-2-0.9c-0.5-0.5-0.7-1.2-0.7-2.1c0-0.9,0.2-1.6,0.7-2.1
				c0.5-0.5,1.1-0.8,1.8-0.8c0.4,0,0.7,0.1,1.1,0.2c0.4,0.2,0.7,0.4,1.1,0.8c0.4,0.4,0.9,0.9,1.6,1.8c0.6,0.7,1,1.1,1.2,1.3
				c0.2,0.2,0.4,0.4,0.6,0.5V386.2z"/>
			<path class="st6" d="M92,385.2h-1.1v-3.5H92V385.2z"/>
			<path class="st6" d="M92.3,380.7l-0.2-1.1c0.6-0.1,1.1-0.4,1.4-0.7c0.3-0.3,0.4-0.7,0.4-1.1c0-0.5-0.2-1-0.6-1.4
				c-0.4-0.4-0.8-0.6-1.4-0.6c-0.5,0-1,0.2-1.3,0.5c-0.3,0.3-0.5,0.8-0.5,1.3c0,0.2,0,0.5,0.1,0.8l-1-0.1c0-0.1,0-0.1,0-0.2
				c0-0.5-0.1-0.9-0.4-1.3c-0.3-0.4-0.6-0.6-1.2-0.6c-0.4,0-0.8,0.1-1,0.4c-0.3,0.3-0.4,0.6-0.4,1.1c0,0.4,0.1,0.8,0.4,1.1
				c0.3,0.3,0.7,0.5,1.3,0.6l-0.2,1.1c-0.8-0.1-1.4-0.5-1.8-0.9s-0.6-1.1-0.6-1.8c0-0.5,0.1-1,0.3-1.4s0.5-0.8,0.9-1
				c0.4-0.2,0.8-0.3,1.2-0.3c0.4,0,0.8,0.1,1.1,0.3c0.3,0.2,0.6,0.5,0.8,1c0.1-0.5,0.4-1,0.8-1.3c0.4-0.3,0.9-0.5,1.5-0.5
				c0.8,0,1.5,0.3,2.1,0.9c0.6,0.6,0.8,1.3,0.8,2.2c0,0.8-0.2,1.5-0.7,2C93.7,380.3,93.1,380.6,92.3,380.7z"/>
			<path class="st6" d="M92.3,373.5l-0.1-1.2c0.6-0.1,1-0.3,1.3-0.6c0.3-0.3,0.4-0.7,0.4-1.2c0-0.5-0.2-1-0.6-1.4
				c-0.4-0.4-1-0.6-1.6-0.6c-0.6,0-1.2,0.2-1.5,0.5c-0.4,0.4-0.6,0.8-0.6,1.4c0,0.4,0.1,0.7,0.2,1c0.2,0.3,0.4,0.5,0.6,0.7l-0.1,1.1
				l-4.8-0.9v-4.6h1.1v3.7l2.5,0.5c-0.4-0.6-0.6-1.1-0.6-1.7c0-0.8,0.3-1.5,0.8-2c0.6-0.6,1.3-0.8,2.2-0.8c0.8,0,1.6,0.2,2.2,0.7
				c0.8,0.6,1.1,1.4,1.1,2.4c0,0.8-0.2,1.5-0.7,2.1S93.1,373.4,92.3,373.5z"/>
			<path class="st6" d="M94.9,366.9l-9.6-2.7v-0.9l9.6,2.7V366.9z"/>
			<path class="st6" d="M87.8,356.8l0.1,1.1c-0.4,0.1-0.8,0.2-1,0.4c-0.3,0.3-0.5,0.7-0.5,1.1c0,0.4,0.1,0.7,0.3,1
				c0.3,0.4,0.6,0.6,1.1,0.8c0.5,0.2,1.2,0.3,2.1,0.3c-0.4-0.3-0.7-0.6-0.9-1c-0.2-0.4-0.3-0.8-0.3-1.2c0-0.8,0.3-1.4,0.8-1.9
				c0.6-0.5,1.3-0.8,2.2-0.8c0.6,0,1.1,0.1,1.6,0.4s0.9,0.6,1.1,1c0.3,0.4,0.4,0.9,0.4,1.5c0,0.9-0.3,1.7-1,2.3
				c-0.7,0.6-1.8,0.9-3.4,0.9c-1.8,0-3.1-0.3-3.9-1c-0.7-0.6-1.1-1.4-1.1-2.3c0-0.7,0.2-1.3,0.6-1.8C86.5,357.2,87,356.9,87.8,356.8
				z M91.7,361.5c0.4,0,0.8-0.1,1.1-0.2c0.4-0.2,0.6-0.4,0.8-0.7s0.3-0.6,0.3-0.9c0-0.5-0.2-0.9-0.6-1.2c-0.4-0.3-0.9-0.5-1.6-0.5
				c-0.6,0-1.1,0.2-1.5,0.5c-0.4,0.3-0.6,0.8-0.6,1.3c0,0.5,0.2,0.9,0.6,1.3C90.7,361.3,91.1,361.5,91.7,361.5z"/>
			<path class="st6" d="M94.7,351.9h-2.2v4h-1l-6-4.2v-0.9h6v-1.3h1v1.3h2.2V351.9z M91.5,351.9h-4.2l4.2,2.9V351.9z"/>
			<path class="st6" d="M88.8,345.9l-1.8,0.3h-1.5v-1.3H87l1.8,0.3V345.9z M88.8,348l-1.8,0.3h-1.5V347H87l1.8,0.3V348z"/>
		</g>
		<g>
			<path class="st6" d="M97.5,342.6v0.8c-2-1.3-4-1.9-6.1-1.9c-0.8,0-1.6,0.1-2.4,0.3c-0.6,0.1-1.2,0.3-1.8,0.6
				c-0.4,0.2-1,0.5-1.9,1v-0.8c1.1-0.8,2.1-1.4,3.2-1.8c0.9-0.3,1.9-0.5,2.9-0.5c1.1,0,2.2,0.2,3.3,0.7
				C95.7,341.4,96.7,342,97.5,342.6z"/>
		</g>
		<line class="st42" x1="100" y1="704.8" x2="100" y2="610.6"/>
		<polygon class="st31" points="103.7,702.1 99.8,716.7 95.9,702.1 		"/>
		<polygon class="st31" points="103.7,613.3 99.8,598.6 95.9,613.3 		"/>
		<g>
			<path class="st42" d="M244.7,603.6c0,0-10.8,11.6-10.8,24.1c0,15.1,7,24.5,7,24.5"/>
		</g>
		<polygon class="st6" points="233.9,611.4 246.7,601 241.1,616.5 		"/>
		<polygon class="st6" points="240.6,643.7 247.6,658.6 233.9,649.4 		"/>
		<g>
			<path class="st6" d="M205.3,632.9h-1.1v-7.2c-0.3,0.3-0.6,0.5-1.1,0.8c-0.4,0.3-0.8,0.5-1.2,0.6V626c0.6-0.3,1.2-0.7,1.7-1.1
				c0.5-0.4,0.8-0.8,1-1.2h0.7V632.9z"/>
			<path class="st6" d="M208.2,630.5l1.1-0.2c0.1,0.6,0.4,1.1,0.7,1.4s0.7,0.4,1.1,0.4c0.5,0,1-0.2,1.4-0.6c0.4-0.4,0.6-0.8,0.6-1.4
				c0-0.5-0.2-1-0.5-1.3s-0.8-0.5-1.3-0.5c-0.2,0-0.5,0-0.8,0.1l0.1-1c0.1,0,0.1,0,0.2,0c0.5,0,0.9-0.1,1.3-0.4
				c0.4-0.3,0.6-0.6,0.6-1.2c0-0.4-0.1-0.8-0.4-1s-0.6-0.4-1.1-0.4c-0.4,0-0.8,0.1-1.1,0.4c-0.3,0.3-0.5,0.7-0.6,1.3l-1.1-0.2
				c0.1-0.8,0.5-1.4,0.9-1.8c0.5-0.4,1.1-0.6,1.8-0.6c0.5,0,1,0.1,1.4,0.3c0.4,0.2,0.8,0.5,1,0.9c0.2,0.4,0.3,0.8,0.3,1.2
				c0,0.4-0.1,0.8-0.3,1.1c-0.2,0.3-0.5,0.6-1,0.8c0.5,0.1,1,0.4,1.3,0.8c0.3,0.4,0.5,0.9,0.5,1.5c0,0.8-0.3,1.5-0.9,2.1
				c-0.6,0.6-1.3,0.8-2.2,0.8c-0.8,0-1.5-0.2-2-0.7C208.6,631.9,208.3,631.3,208.2,630.5z"/>
			<path class="st6" d="M215.6,625.3c0-0.5,0.2-0.9,0.5-1.2c0.3-0.3,0.8-0.5,1.2-0.5c0.5,0,0.9,0.2,1.2,0.5c0.3,0.3,0.5,0.8,0.5,1.2
				s-0.2,0.9-0.5,1.2c-0.3,0.3-0.8,0.5-1.2,0.5c-0.5,0-0.9-0.2-1.2-0.5S215.6,625.8,215.6,625.3z M216.3,625.3
				c0,0.3,0.1,0.5,0.3,0.8c0.2,0.2,0.5,0.3,0.8,0.3c0.3,0,0.5-0.1,0.7-0.3c0.2-0.2,0.3-0.5,0.3-0.8s-0.1-0.5-0.3-0.8
				c-0.2-0.2-0.5-0.3-0.7-0.3c-0.3,0-0.5,0.1-0.8,0.3C216.4,624.7,216.3,625,216.3,625.3z"/>
		</g>
		<g>
			<path class="st42" d="M347.5,216.4c0,0-6.5,7-6.5,14.6c0,9.2,4.2,14.8,4.2,14.8"/>
		</g>
		<polygon class="st6" points="341,221.2 348.8,214.9 345.3,224.3 		"/>
		<polygon class="st6" points="345,240.8 349.3,249.8 341,244.2 		"/>
		<g>
			<path class="st6" d="M322,236.7h-1.1v-7.2c-0.3,0.3-0.6,0.5-1.1,0.8s-0.8,0.5-1.2,0.6v-1.1c0.6-0.3,1.2-0.7,1.7-1.1
				s0.8-0.8,1-1.2h0.7V236.7z"/>
			<path class="st6" d="M324.9,234.2l1.1-0.2c0.1,0.6,0.4,1.1,0.7,1.4s0.7,0.4,1.1,0.4c0.5,0,1-0.2,1.4-0.6s0.6-0.8,0.6-1.4
				c0-0.5-0.2-1-0.5-1.3s-0.8-0.5-1.3-0.5c-0.2,0-0.5,0-0.8,0.1l0.1-1c0.1,0,0.1,0,0.2,0c0.5,0,0.9-0.1,1.3-0.4
				c0.4-0.3,0.6-0.6,0.6-1.2c0-0.4-0.1-0.8-0.4-1s-0.6-0.4-1.1-0.4c-0.4,0-0.8,0.1-1.1,0.4s-0.5,0.7-0.6,1.3l-1.1-0.2
				c0.1-0.8,0.5-1.4,0.9-1.8c0.5-0.4,1.1-0.6,1.8-0.6c0.5,0,1,0.1,1.4,0.3c0.4,0.2,0.8,0.5,1,0.9c0.2,0.4,0.3,0.8,0.3,1.2
				c0,0.4-0.1,0.8-0.3,1.1s-0.5,0.6-1,0.8c0.5,0.1,1,0.4,1.3,0.8c0.3,0.4,0.5,0.9,0.5,1.5c0,0.8-0.3,1.5-0.9,2.1
				c-0.6,0.6-1.3,0.8-2.2,0.8c-0.8,0-1.5-0.2-2-0.7C325.3,235.6,325,235,324.9,234.2z"/>
			<path class="st6" d="M332.3,229c0-0.5,0.2-0.9,0.5-1.2c0.3-0.3,0.8-0.5,1.2-0.5c0.5,0,0.9,0.2,1.2,0.5c0.3,0.3,0.5,0.8,0.5,1.2
				s-0.2,0.9-0.5,1.2c-0.3,0.3-0.8,0.5-1.2,0.5c-0.5,0-0.9-0.2-1.2-0.5C332.5,229.9,332.3,229.5,332.3,229z M333,229
				c0,0.3,0.1,0.5,0.3,0.8s0.5,0.3,0.8,0.3c0.3,0,0.5-0.1,0.7-0.3c0.2-0.2,0.3-0.5,0.3-0.8s-0.1-0.5-0.3-0.8
				c-0.2-0.2-0.5-0.3-0.7-0.3c-0.3,0-0.5,0.1-0.8,0.3S333,228.7,333,229z"/>
		</g>
		<g>
			<path class="st6" d="M570.6,577.2l-5.8-7.2l3.2-2.6c0.6-0.5,1.2-0.8,1.6-1s0.9-0.1,1.4,0c0.5,0.2,0.9,0.4,1.2,0.8
				c0.4,0.5,0.6,1.1,0.5,1.7c0,0.6-0.4,1.3-1,1.9c0.3-0.1,0.6-0.1,0.9-0.1c0.5,0,1,0.1,1.6,0.3l2.8,0.9l-1.2,1l-2.2-0.7
				c-0.6-0.2-1.1-0.4-1.5-0.4c-0.4-0.1-0.7-0.1-0.9-0.1s-0.4,0.1-0.6,0.2c-0.1,0.1-0.3,0.2-0.6,0.4l-1.1,0.9l2.6,3.2L570.6,577.2z
				 M568.3,572.4l2.1-1.7c0.4-0.4,0.7-0.7,0.9-1c0.2-0.3,0.2-0.6,0.2-0.9c0-0.3-0.1-0.6-0.3-0.8c-0.3-0.3-0.6-0.5-1-0.5
				s-0.9,0.2-1.4,0.6l-2.3,1.8L568.3,572.4z"/>
			<path class="st6" d="M577.6,562.5l-0.8,0.8c-0.4-0.3-0.7-0.4-0.9-0.5c-0.4-0.1-0.8,0.1-1.2,0.3c-0.3,0.2-0.5,0.5-0.6,0.8
				c-0.1,0.4-0.1,0.9,0.1,1.4s0.5,1.1,1.1,1.9c0-0.5,0-0.9,0.2-1.4c0.2-0.4,0.4-0.7,0.8-1c0.6-0.5,1.3-0.7,2-0.6s1.4,0.5,2,1.2
				c0.4,0.5,0.6,1,0.7,1.5c0.1,0.5,0.1,1.1-0.1,1.5c-0.2,0.5-0.5,0.9-0.9,1.2c-0.7,0.6-1.6,0.8-2.5,0.6c-0.9-0.2-1.9-0.9-2.9-2.1
				c-1.1-1.4-1.7-2.6-1.7-3.7c0-0.9,0.4-1.7,1.1-2.3c0.6-0.5,1.2-0.7,1.8-0.6C576.6,561.8,577.1,562,577.6,562.5z M576.5,568.5
				c0.2,0.3,0.5,0.5,0.9,0.7s0.7,0.2,1.1,0.2s0.7-0.2,0.9-0.4c0.4-0.3,0.6-0.7,0.6-1.2c0-0.5-0.2-1-0.6-1.6
				c-0.4-0.5-0.9-0.8-1.3-0.9s-0.9,0.1-1.4,0.4c-0.4,0.3-0.6,0.7-0.7,1.3C576,567.6,576.2,568.1,576.5,568.5z"/>
		</g>
		<g>
			<path class="st6" d="M583.5,566.7l-0.8-1l1-0.8l0.8,1L583.5,566.7z"/>
		</g>
		<g>
			<path class="st6" d="M584.3,563l0.8-0.8c0.5,0.4,1,0.6,1.4,0.7c0.4,0,0.8-0.1,1.2-0.4c0.4-0.3,0.7-0.8,0.7-1.3
				c0.1-0.5-0.1-1-0.4-1.4c-0.3-0.4-0.7-0.6-1.2-0.7c-0.5-0.1-0.9,0.1-1.3,0.4c-0.2,0.1-0.3,0.3-0.5,0.6l-0.5-0.9
				c0.1,0,0.1-0.1,0.2-0.1c0.4-0.3,0.6-0.7,0.8-1.1c0.1-0.4,0-0.9-0.3-1.3c-0.3-0.3-0.6-0.5-1-0.5c-0.4,0-0.8,0.1-1.1,0.4
				c-0.3,0.3-0.5,0.6-0.6,1s0.1,0.8,0.3,1.3l-1,0.6c-0.4-0.7-0.5-1.3-0.4-2c0.1-0.6,0.5-1.2,1-1.6c0.4-0.3,0.8-0.5,1.3-0.6
				c0.5-0.1,0.9-0.1,1.3,0.1c0.4,0.2,0.7,0.4,1,0.7c0.3,0.3,0.4,0.7,0.4,1.1c0,0.4,0,0.8-0.2,1.2c0.5-0.2,1-0.3,1.5-0.2
				s0.9,0.4,1.3,0.9c0.5,0.6,0.7,1.3,0.6,2.2s-0.5,1.5-1.2,2.1c-0.6,0.5-1.3,0.7-2,0.7C585.5,563.8,584.8,563.5,584.3,563z"/>
		</g>
		<g>
			<path class="st6" d="M589.9,558.5l0.9-0.8c0.4,0.4,0.9,0.6,1.3,0.6c0.4,0,0.8-0.1,1.2-0.4c0.4-0.3,0.7-0.8,0.7-1.4
				c0-0.6-0.2-1.1-0.6-1.6c-0.4-0.5-0.9-0.8-1.4-0.9c-0.5-0.1-1,0.1-1.5,0.5c-0.3,0.2-0.5,0.5-0.6,0.8c-0.1,0.3-0.2,0.6-0.1,0.9
				l-0.9,0.6l-2.3-4.3l3.6-2.9l0.7,0.8l-2.9,2.3l1.2,2.2c0.2-0.7,0.5-1.2,1-1.6c0.6-0.5,1.3-0.7,2.1-0.6c0.8,0.1,1.5,0.5,2,1.2
				c0.5,0.7,0.8,1.4,0.8,2.2c0,1-0.4,1.8-1.2,2.4c-0.7,0.5-1.3,0.8-2.1,0.7C591.1,559.3,590.5,559,589.9,558.5z"/>
			<path class="st6" d="M603.5,554.1c-1-0.2-2-0.6-3-1.2c-1-0.6-1.9-1.3-2.6-2.2c-0.6-0.8-1.1-1.6-1.4-2.5c-0.4-1.1-0.6-2.3-0.6-3.6
				l0.6-0.5c0.2,1,0.3,1.7,0.4,2.1c0.2,0.6,0.4,1.2,0.7,1.8c0.4,0.7,0.8,1.4,1.3,2c1.3,1.6,3,2.8,5.3,3.5L603.5,554.1z"/>
			<path class="st6" d="M606.5,548.2l-0.9,0.7l-4.6-5.6c0,0.4-0.2,0.8-0.3,1.3c-0.2,0.5-0.4,0.9-0.6,1.2l-0.7-0.9
				c0.3-0.6,0.5-1.3,0.6-1.9c0.1-0.6,0.1-1.2,0-1.6l0.6-0.5L606.5,548.2z"/>
			<path class="st6" d="M608.5,546.8l-3.9-9.1l0.7-0.6l3.9,9.1L608.5,546.8z"/>
		</g>
		<g>
			<path class="st6" d="M614.4,541.8l-1.4-1.7l-3.1,2.5l-0.7-0.8l-0.5-7.3l0.7-0.6l3.8,4.7l1-0.8l0.7,0.8l-1,0.8l1.4,1.7
				L614.4,541.8z M612.4,539.3l-2.6-3.2l0.4,5.1L612.4,539.3z"/>
		</g>
		<g>
			<path class="st6" d="M613.7,534.7l-1.4-1.2l-1-1.2l1-0.8l1,1.2l0.9,1.5L613.7,534.7z M615.3,533.4l-1.3-1.2l-1-1.2l1-0.8l1,1.2
				l0.9,1.6L615.3,533.4z"/>
			<path class="st6" d="M623.3,538.1l-0.6,0.5c-0.3-2.4-1.1-4.3-2.3-5.9c-0.5-0.6-1.1-1.2-1.7-1.7c-0.5-0.4-1-0.7-1.6-1
				c-0.4-0.2-1-0.5-2-0.8l0.6-0.5c1.3,0.3,2.4,0.8,3.4,1.4c0.8,0.5,1.6,1.2,2.2,1.9c0.7,0.9,1.2,1.9,1.6,3
				C623.1,536.1,623.3,537.1,623.3,538.1z"/>
		</g>
		<line class="st43" x1="561.1" y1="593.2" x2="626.8" y2="540.1"/>
		<polygon class="st31" points="566.4,594.7 549.9,602 560.5,587.4 		"/>
		<line class="st42" x1="477.2" y1="423.6" x2="861.5" y2="423.6"/>
		<polygon class="st31" points="478.5,427.3 463.9,423.4 478.5,419.5 		"/>
		<polygon class="st31" points="521.5,427.3 536.1,423.4 521.5,419.5 		"/>
		<g>
			<path class="st6" d="M581.5,419.1h-1.1v-7.2c-0.3,0.3-0.6,0.5-1.1,0.8c-0.4,0.3-0.8,0.5-1.2,0.6v-1.1c0.6-0.3,1.2-0.7,1.7-1.1
				c0.5-0.4,0.8-0.8,1-1.2h0.7V419.1z"/>
			<path class="st6" d="M584.4,416.7l1.1-0.2c0.1,0.6,0.4,1.1,0.7,1.4s0.7,0.4,1.1,0.4c0.5,0,1-0.2,1.4-0.6c0.4-0.4,0.6-0.8,0.6-1.4
				c0-0.5-0.2-1-0.5-1.3s-0.8-0.5-1.3-0.5c-0.2,0-0.5,0-0.8,0.1l0.1-1c0.1,0,0.1,0,0.2,0c0.5,0,0.9-0.1,1.3-0.4
				c0.4-0.3,0.6-0.6,0.6-1.2c0-0.4-0.1-0.8-0.4-1s-0.6-0.4-1.1-0.4c-0.4,0-0.8,0.1-1.1,0.4c-0.3,0.3-0.5,0.7-0.6,1.3l-1.1-0.2
				c0.1-0.8,0.5-1.4,0.9-1.8c0.5-0.4,1.1-0.6,1.8-0.6c0.5,0,1,0.1,1.4,0.3c0.4,0.2,0.8,0.5,1,0.9c0.2,0.4,0.3,0.8,0.3,1.2
				c0,0.4-0.1,0.8-0.3,1.1c-0.2,0.3-0.5,0.6-1,0.8c0.5,0.1,1,0.4,1.3,0.8c0.3,0.4,0.5,0.9,0.5,1.5c0,0.8-0.3,1.5-0.9,2.1
				c-0.6,0.6-1.3,0.8-2.2,0.8c-0.8,0-1.5-0.2-2-0.7C584.8,418.1,584.5,417.4,584.4,416.7z"/>
			<path class="st6" d="M592.2,419.1v-1.3h1.3v1.3H592.2z"/>
			<path class="st6" d="M595.2,416.7l1.2-0.1c0.1,0.6,0.3,1,0.6,1.3s0.7,0.4,1.2,0.4c0.5,0,1-0.2,1.4-0.6c0.4-0.4,0.6-1,0.6-1.6
				c0-0.6-0.2-1.2-0.5-1.5c-0.4-0.4-0.8-0.6-1.4-0.6c-0.4,0-0.7,0.1-1,0.2s-0.5,0.4-0.7,0.6l-1.1-0.1l0.9-4.8h4.6v1.1h-3.7l-0.5,2.5
				c0.6-0.4,1.1-0.6,1.7-0.6c0.8,0,1.5,0.3,2,0.8c0.6,0.6,0.8,1.3,0.8,2.2c0,0.8-0.2,1.6-0.7,2.2c-0.6,0.8-1.4,1.1-2.4,1.1
				c-0.8,0-1.5-0.2-2.1-0.7C595.6,418.1,595.3,417.5,595.2,416.7z"/>
			<path class="st6" d="M602.4,414.5c0-1.1,0.1-2,0.3-2.6c0.2-0.7,0.6-1.2,1-1.5c0.4-0.4,1-0.5,1.7-0.5c0.5,0,0.9,0.1,1.3,0.3
				c0.4,0.2,0.7,0.5,0.9,0.9s0.4,0.8,0.6,1.4c0.1,0.5,0.2,1.3,0.2,2.2c0,1.1-0.1,2-0.3,2.6c-0.2,0.7-0.6,1.2-1,1.5s-1,0.5-1.7,0.5
				c-0.9,0-1.6-0.3-2.1-1C602.7,417.5,602.4,416.3,602.4,414.5z M603.5,414.5c0,1.5,0.2,2.5,0.5,3c0.4,0.5,0.8,0.8,1.3,0.8
				c0.5,0,1-0.3,1.3-0.8c0.4-0.5,0.5-1.5,0.5-3c0-1.5-0.2-2.5-0.5-3s-0.8-0.8-1.3-0.8c-0.5,0-0.9,0.2-1.2,0.7
				C603.7,412,603.5,413,603.5,414.5z"/>
			<path class="st6" d="M615.6,421.8c-0.6-0.8-1.2-1.7-1.6-2.8c-0.4-1.1-0.7-2.2-0.7-3.3c0-1,0.2-2,0.5-2.9c0.4-1.1,1-2.1,1.8-3.2
				h0.8c-0.5,0.9-0.8,1.5-1,1.9c-0.3,0.6-0.5,1.2-0.6,1.8c-0.2,0.8-0.3,1.6-0.3,2.4c0,2,0.6,4,1.9,6.1H615.6z"/>
			<path class="st6" d="M621.7,419.1h-1.1v-7.2c-0.3,0.3-0.6,0.5-1.1,0.8c-0.4,0.3-0.8,0.5-1.2,0.6v-1.1c0.6-0.3,1.2-0.7,1.7-1.1
				c0.5-0.4,0.8-0.8,1-1.2h0.7V419.1z"/>
			<path class="st6" d="M624.7,411.1V410h6v0.9c-0.6,0.6-1.2,1.5-1.8,2.5c-0.6,1-1,2.1-1.3,3.2c-0.2,0.8-0.4,1.6-0.4,2.5H626
				c0-0.7,0.2-1.6,0.4-2.6c0.3-1,0.7-2,1.2-3s1.1-1.8,1.6-2.4H624.7z"/>
			<path class="st6" d="M631.3,419.3l2.7-9.6h0.9l-2.7,9.6H631.3z"/>
			<path class="st6" d="M635.5,416.7l1.1-0.2c0.1,0.6,0.4,1.1,0.7,1.4s0.7,0.4,1.1,0.4c0.5,0,1-0.2,1.4-0.6c0.4-0.4,0.6-0.8,0.6-1.4
				c0-0.5-0.2-1-0.5-1.3s-0.8-0.5-1.3-0.5c-0.2,0-0.5,0-0.8,0.1l0.1-1c0.1,0,0.1,0,0.2,0c0.5,0,0.9-0.1,1.3-0.4
				c0.4-0.3,0.6-0.6,0.6-1.2c0-0.4-0.1-0.8-0.4-1s-0.6-0.4-1.1-0.4c-0.4,0-0.8,0.1-1.1,0.4c-0.3,0.3-0.5,0.7-0.6,1.3l-1.1-0.2
				c0.1-0.8,0.5-1.4,0.9-1.8c0.5-0.4,1.1-0.6,1.8-0.6c0.5,0,1,0.1,1.4,0.3c0.4,0.2,0.8,0.5,1,0.9c0.2,0.4,0.3,0.8,0.3,1.2
				c0,0.4-0.1,0.8-0.3,1.1c-0.2,0.3-0.5,0.6-1,0.8c0.5,0.1,1,0.4,1.3,0.8c0.3,0.4,0.5,0.9,0.5,1.5c0,0.8-0.3,1.5-0.9,2.1
				c-0.6,0.6-1.3,0.8-2.2,0.8c-0.8,0-1.5-0.2-2-0.7C635.8,418.1,635.5,417.4,635.5,416.7z"/>
			<path class="st6" d="M648.6,418v1.1h-6.1c0-0.3,0-0.5,0.1-0.8c0.2-0.4,0.4-0.8,0.7-1.2c0.3-0.4,0.8-0.9,1.5-1.4
				c1-0.8,1.7-1.5,2-2c0.4-0.5,0.5-0.9,0.5-1.4c0-0.5-0.2-0.8-0.5-1.1s-0.7-0.5-1.3-0.5c-0.5,0-1,0.2-1.3,0.5
				c-0.3,0.3-0.5,0.8-0.5,1.4l-1.2-0.1c0.1-0.9,0.4-1.5,0.9-2c0.5-0.5,1.2-0.7,2.1-0.7c0.9,0,1.6,0.2,2.1,0.7
				c0.5,0.5,0.8,1.1,0.8,1.8c0,0.4-0.1,0.7-0.2,1.1c-0.2,0.4-0.4,0.7-0.8,1.1c-0.4,0.4-0.9,0.9-1.8,1.6c-0.7,0.6-1.1,1-1.3,1.2
				c-0.2,0.2-0.4,0.4-0.5,0.6H648.6z"/>
			<path class="st6" d="M650.2,413.1l-0.3-1.8v-1.5h1.3v1.5l-0.3,1.8H650.2z M652.3,413.1l-0.3-1.8v-1.5h1.3v1.5l-0.3,1.8H652.3z"/>
		</g>
		<g>
			<path class="st6" d="M655.6,421.8h-0.8c1.3-2,1.9-4,1.9-6.1c0-0.8-0.1-1.6-0.3-2.4c-0.1-0.6-0.3-1.2-0.6-1.8
				c-0.2-0.4-0.5-1-1-1.9h0.8c0.8,1.1,1.4,2.1,1.8,3.2c0.3,0.9,0.5,1.9,0.5,2.9c0,1.1-0.2,2.2-0.7,3.3
				C656.7,420.1,656.2,421,655.6,421.8z"/>
		</g>
		<g>
			<path class="st6" d="M475.3,164.1l-9.3,0.3l-0.1-4.1c0-0.8,0-1.5,0.2-1.9c0.2-0.4,0.4-0.8,0.8-1.1c0.4-0.3,0.9-0.4,1.4-0.4
				c0.7,0,1.2,0.2,1.7,0.6c0.5,0.4,0.8,1.1,0.9,1.9c0.1-0.3,0.3-0.6,0.4-0.8c0.3-0.4,0.7-0.7,1.2-1.1l2.5-1.7l0.1,1.5l-1.9,1.3
				c-0.5,0.4-1,0.7-1.2,0.9c-0.3,0.2-0.5,0.5-0.6,0.6c-0.1,0.2-0.2,0.4-0.2,0.6c0,0.1,0,0.4,0,0.7l0,1.4l4.1-0.1L475.3,164.1z
				 M470.1,163.1l-0.1-2.6c0-0.6-0.1-1-0.2-1.3c-0.1-0.3-0.3-0.5-0.6-0.7c-0.3-0.2-0.5-0.2-0.8-0.2c-0.4,0-0.8,0.2-1.1,0.5
				c-0.3,0.3-0.4,0.8-0.4,1.5l0.1,2.9L470.1,163.1z"/>
			<path class="st6" d="M472.5,155.3l-0.2-1.1c0.6-0.2,1.1-0.4,1.4-0.7s0.4-0.7,0.4-1.2c0-0.5-0.2-1-0.6-1.3
				c-0.4-0.4-0.8-0.5-1.4-0.5c-0.5,0-0.9,0.2-1.3,0.6c-0.3,0.4-0.5,0.8-0.5,1.3c0,0.2,0.1,0.5,0.2,0.8l-1-0.1c0-0.1,0-0.1,0-0.2
				c0-0.5-0.2-0.9-0.4-1.3c-0.3-0.4-0.7-0.6-1.2-0.5c-0.4,0-0.8,0.2-1,0.5c-0.3,0.3-0.4,0.7-0.4,1.1c0,0.4,0.2,0.8,0.5,1.1
				s0.7,0.5,1.3,0.5l-0.2,1.1c-0.8-0.1-1.4-0.4-1.8-0.9c-0.4-0.5-0.7-1.1-0.7-1.8c0-0.5,0.1-1,0.3-1.4c0.2-0.4,0.5-0.8,0.9-1
				c0.4-0.2,0.8-0.4,1.2-0.4c0.4,0,0.8,0.1,1.1,0.3c0.3,0.2,0.6,0.5,0.8,0.9c0.1-0.6,0.4-1,0.7-1.3c0.4-0.3,0.9-0.5,1.5-0.5
				c0.8,0,1.5,0.2,2.1,0.8c0.6,0.6,0.9,1.3,0.9,2.2c0,0.8-0.2,1.5-0.7,2C473.9,154.9,473.3,155.2,472.5,155.3z"/>
			<path class="st6" d="M470.2,148.2c-1.1,0-2,0-2.7-0.2c-0.7-0.2-1.2-0.5-1.6-1c-0.4-0.4-0.6-1-0.6-1.7c0-0.5,0.1-0.9,0.3-1.3
				c0.2-0.4,0.5-0.7,0.8-1c0.4-0.3,0.8-0.5,1.4-0.6c0.5-0.2,1.3-0.3,2.2-0.3c1.1,0,2,0,2.6,0.2c0.7,0.2,1.2,0.5,1.6,0.9
				c0.4,0.4,0.6,1,0.6,1.7c0,0.9-0.3,1.6-0.9,2.1C473.1,147.8,471.9,148.2,470.2,148.2z M470.1,147.1c1.5-0.1,2.5-0.3,3-0.6
				c0.5-0.4,0.7-0.8,0.7-1.3c0-0.5-0.3-1-0.8-1.3c-0.5-0.3-1.5-0.5-3-0.4c-1.5,0.1-2.5,0.3-3,0.6c-0.5,0.4-0.7,0.8-0.7,1.4
				c0,0.5,0.3,0.9,0.7,1.2C467.6,147,468.6,147.1,470.1,147.1z"/>
			<path class="st6" d="M474.4,137.2l-2.2,0.1l0.1,4l-1,0l-6.1-4l0-0.9l6-0.2l0-1.2l1,0l0,1.2l2.2-0.1L474.4,137.2z M471.1,137.4
				l-4.2,0.1l4.3,2.8L471.1,137.4z"/>
			<path class="st6" d="M474.2,133.1l-1.3,0l0-1.3l1.3,0L474.2,133.1z"/>
			<path class="st6" d="M469,128.5c-0.2,0.5-0.4,0.8-0.7,1.1c-0.3,0.2-0.7,0.4-1.1,0.4c-0.7,0-1.2-0.2-1.7-0.7
				c-0.5-0.5-0.7-1.1-0.8-1.9c0-0.8,0.2-1.5,0.6-2c0.5-0.5,1-0.8,1.7-0.8c0.4,0,0.8,0.1,1.1,0.3c0.3,0.2,0.6,0.5,0.8,1
				c0.2-0.6,0.5-1,0.9-1.3c0.4-0.3,0.9-0.5,1.5-0.5c0.8,0,1.5,0.2,2,0.8c0.6,0.5,0.9,1.3,0.9,2.2c0,0.9-0.2,1.7-0.7,2.2
				c-0.5,0.6-1.2,0.9-2,0.9c-0.6,0-1.1-0.1-1.5-0.4C469.5,129.5,469.2,129.1,469,128.5z M467.1,128.8c0.4,0,0.8-0.2,1.1-0.5
				c0.3-0.3,0.4-0.7,0.4-1.1c0-0.4-0.2-0.8-0.5-1.1s-0.6-0.4-1-0.4c-0.4,0-0.8,0.2-1,0.5c-0.3,0.3-0.4,0.7-0.4,1.1
				c0,0.4,0.2,0.8,0.5,1.1C466.4,128.7,466.7,128.8,467.1,128.8z M471.4,129c0.3,0,0.6-0.1,0.9-0.3c0.3-0.2,0.5-0.4,0.7-0.7
				c0.2-0.3,0.2-0.6,0.2-1c0-0.5-0.2-1-0.6-1.3c-0.4-0.3-0.8-0.5-1.3-0.5c-0.5,0-1,0.2-1.3,0.6c-0.3,0.4-0.5,0.8-0.5,1.4
				c0,0.5,0.2,1,0.6,1.3C470.4,128.9,470.9,129.1,471.4,129z"/>
			<path class="st6" d="M476.4,116.8c-0.8,0.7-1.7,1.2-2.7,1.7c-1,0.5-2.1,0.7-3.3,0.8c-1,0-2-0.1-2.9-0.4c-1.1-0.3-2.2-0.9-3.2-1.6
				l0-0.8c0.9,0.5,1.5,0.8,1.9,0.9c0.6,0.2,1.2,0.4,1.8,0.5c0.8,0.2,1.6,0.2,2.4,0.2c2-0.1,4-0.8,6-2.1L476.4,116.8z"/>
			<path class="st6" d="M473.5,110.7l0,1.1l-7.2,0.2c0.3,0.3,0.5,0.6,0.8,1.1c0.3,0.4,0.5,0.8,0.6,1.2l-1.1,0
				c-0.3-0.6-0.7-1.2-1.1-1.6c-0.4-0.5-0.9-0.8-1.3-1l0-0.7L473.5,110.7z"/>
			<path class="st6" d="M472.1,101.9l1.1,0l0.2,6.1c-0.3,0-0.5,0-0.8-0.1c-0.4-0.1-0.8-0.4-1.3-0.7c-0.4-0.3-0.9-0.8-1.5-1.4
				c-0.9-1-1.5-1.6-2-2c-0.5-0.3-1-0.5-1.4-0.5c-0.4,0-0.8,0.2-1.1,0.5s-0.4,0.8-0.4,1.3c0,0.5,0.2,1,0.5,1.3
				c0.3,0.3,0.8,0.5,1.4,0.5l-0.1,1.2c-0.9-0.1-1.5-0.3-2-0.8c-0.5-0.5-0.7-1.2-0.8-2.1c0-0.9,0.2-1.6,0.7-2.1
				c0.5-0.5,1.1-0.8,1.8-0.8c0.4,0,0.7,0.1,1.1,0.2c0.4,0.1,0.7,0.4,1.2,0.7c0.4,0.3,1,0.9,1.7,1.7c0.6,0.7,1,1.1,1.2,1.3
				c0.2,0.2,0.4,0.3,0.6,0.5L472.1,101.9z"/>
			<path class="st6" d="M467.1,98.4l-1.8,0.4l-1.5,0.1l0-1.3l1.5-0.1l1.8,0.2L467.1,98.4z M467.1,100.5l-1.8,0.4l-1.5,0.1l0-1.3
				l1.5-0.1l1.8,0.2L467.1,100.5z"/>
		</g>
		<g>
			<path class="st6" d="M475.7,95l0,0.8c-2.1-1.2-4.1-1.8-6.1-1.7c-0.8,0-1.6,0.1-2.3,0.4c-0.6,0.2-1.2,0.4-1.8,0.7
				c-0.4,0.2-1,0.5-1.9,1.1l0-0.8c1-0.8,2.1-1.4,3.1-1.9c0.9-0.4,1.9-0.5,2.9-0.6c1.1,0,2.2,0.1,3.3,0.5
				C473.9,93.9,474.9,94.4,475.7,95z"/>
		</g>
		<line class="st43" x1="477.5" y1="69.4" x2="479.4" y2="165.1"/>
		<polygon class="st6" points="473,72.7 477.4,55.2 482.4,72.5 		"/>
		<g>
			<path class="st6" d="M580.6,161.8l3.9-8.4l3.7,1.7c0.7,0.3,1.3,0.7,1.6,1c0.3,0.3,0.5,0.7,0.6,1.2c0.1,0.5,0,1-0.2,1.4
				c-0.3,0.6-0.7,1-1.3,1.2c-0.6,0.2-1.3,0.2-2.1-0.1c0.2,0.3,0.4,0.5,0.5,0.7c0.2,0.4,0.3,1,0.4,1.5l0.4,3l-1.4-0.6l-0.3-2.3
				c-0.1-0.7-0.2-1.2-0.3-1.5c-0.1-0.4-0.2-0.6-0.3-0.8c-0.1-0.2-0.2-0.3-0.4-0.5c-0.1-0.1-0.3-0.2-0.6-0.3l-1.3-0.6l-1.7,3.7
				L580.6,161.8z M583.9,157.7l2.4,1.1c0.5,0.2,0.9,0.4,1.3,0.4c0.3,0,0.6,0,0.9-0.2c0.3-0.2,0.4-0.4,0.6-0.6c0.2-0.4,0.2-0.8,0-1.2
				c-0.2-0.4-0.6-0.7-1.2-1l-2.7-1.2L583.9,157.7z"/>
		</g>
		<g>
			<path class="st6" d="M592.5,167.4l-1-0.5l3.1-6.6c-0.4,0.1-0.8,0.2-1.3,0.3c-0.5,0-1,0.1-1.3,0l0.5-1c0.7,0,1.4-0.1,2-0.3
				s1.1-0.4,1.4-0.7l0.7,0.3L592.5,167.4z"/>
			<path class="st6" d="M595.7,168.9l0.5-1.2l1.2,0.5l-0.5,1.2L595.7,168.9z"/>
			<path class="st6" d="M599.4,167.9l1.1,0.4c-0.2,0.6-0.2,1,0,1.4c0.2,0.4,0.5,0.7,0.9,0.9c0.5,0.2,1,0.2,1.5,0s0.9-0.6,1.2-1.2
				c0.3-0.6,0.3-1.1,0.2-1.6c-0.2-0.5-0.5-0.9-1.1-1.1c-0.3-0.2-0.7-0.2-1-0.2c-0.3,0-0.6,0.1-0.9,0.3l-0.9-0.6l2.8-3.9l4.2,1.9
				l-0.5,1l-3.3-1.6l-1.5,2c0.7-0.1,1.3,0,1.8,0.2c0.7,0.3,1.2,0.9,1.5,1.6c0.3,0.7,0.2,1.5-0.2,2.3c-0.4,0.8-0.9,1.3-1.6,1.7
				c-0.9,0.4-1.7,0.4-2.7,0c-0.8-0.4-1.3-0.9-1.6-1.5C599.2,169.4,599.2,168.7,599.4,167.9z"/>
			<path class="st6" d="M606,171.3l1,0.4c-0.1,0.5-0.1,0.9,0,1.2c0.1,0.3,0.4,0.6,0.8,0.7c0.3,0.1,0.6,0.2,0.9,0.2
				c0.3,0,0.6-0.1,0.9-0.3c0.3-0.2,0.5-0.4,0.8-0.8c0.3-0.4,0.5-0.8,0.7-1.2c0,0,0.1-0.1,0.1-0.2c-0.4,0.2-0.8,0.4-1.2,0.4
				c-0.5,0-0.9,0-1.3-0.2c-0.7-0.3-1.2-0.8-1.4-1.6c-0.2-0.7-0.2-1.5,0.2-2.3c0.4-0.9,1-1.4,1.7-1.7c0.7-0.3,1.5-0.3,2.2,0.1
				c0.5,0.3,1,0.6,1.3,1.1c0.3,0.5,0.5,1.1,0.4,1.7s-0.3,1.5-0.7,2.5c-0.5,1.1-1,1.9-1.5,2.4c-0.5,0.5-1.1,0.9-1.7,1
				c-0.6,0.1-1.2,0-1.8-0.3c-0.7-0.3-1.1-0.7-1.4-1.3C605.8,172.6,605.8,172,606,171.3z M611.9,169.6c0.3-0.6,0.3-1.1,0.2-1.6
				c-0.2-0.5-0.5-0.8-0.9-1c-0.5-0.2-0.9-0.2-1.5,0s-0.9,0.6-1.2,1.2c-0.2,0.5-0.3,1-0.1,1.5c0.2,0.5,0.5,0.8,1,1.1
				c0.5,0.2,0.9,0.2,1.4,0C611.3,170.5,611.7,170.2,611.9,169.6z"/>
			<path class="st6" d="M615.8,181.2c-0.2-1-0.3-2-0.3-3.2s0.3-2.2,0.8-3.3c0.4-0.9,1-1.7,1.7-2.4c0.8-0.8,1.8-1.5,2.9-2.1l0.7,0.3
				c-0.8,0.6-1.4,1-1.7,1.3c-0.5,0.4-0.9,0.9-1.3,1.4c-0.5,0.6-0.9,1.3-1.2,2c-0.9,1.8-1.1,3.9-0.8,6.3L615.8,181.2z"/>
			<path class="st6" d="M622.5,181.3l-1-0.5l3.1-6.6c-0.4,0.1-0.8,0.2-1.3,0.3c-0.5,0-1,0.1-1.3,0l0.5-1c0.7,0,1.4-0.1,2-0.3
				c0.6-0.2,1.1-0.4,1.4-0.7l0.7,0.3L622.5,181.3z"/>
			<path class="st6" d="M624.6,182.5l6.5-7.5l0.8,0.4l-6.5,7.6L624.6,182.5z"/>
			<path class="st6" d="M632.3,185.9l-1-0.5l3.1-6.6c-0.4,0.1-0.8,0.2-1.3,0.3c-0.5,0-1,0.1-1.3,0l0.5-1c0.7,0,1.4-0.1,2-0.3
				c0.6-0.2,1.1-0.4,1.4-0.7l0.7,0.3L632.3,185.9z"/>
			<path class="st6" d="M643.2,183.3l-1.1-0.4c0.1-0.4,0.1-0.8,0-1.1c-0.1-0.4-0.4-0.7-0.8-0.9c-0.3-0.2-0.7-0.2-1-0.1
				c-0.4,0.1-0.9,0.3-1.2,0.7s-0.8,1-1.2,1.8c0.4-0.3,0.9-0.4,1.3-0.4c0.4,0,0.9,0.1,1.3,0.2c0.7,0.3,1.2,0.8,1.4,1.6
				c0.2,0.7,0.2,1.5-0.2,2.3c-0.2,0.5-0.6,1-1,1.3c-0.4,0.3-0.9,0.5-1.4,0.6c-0.5,0.1-1,0-1.5-0.3c-0.9-0.4-1.4-1-1.7-1.9
				c-0.2-0.9,0-2.1,0.6-3.5c0.8-1.6,1.6-2.7,2.5-3.1c0.8-0.4,1.7-0.4,2.6,0c0.7,0.3,1.1,0.7,1.4,1.3
				C643.4,182,643.5,182.6,643.2,183.3z M637.3,184.9c-0.2,0.4-0.2,0.7-0.2,1.1c0,0.4,0.1,0.7,0.3,1c0.2,0.3,0.4,0.5,0.7,0.7
				c0.4,0.2,0.9,0.2,1.4,0c0.5-0.2,0.9-0.6,1.1-1.2c0.3-0.6,0.3-1.1,0.2-1.6c-0.2-0.5-0.5-0.8-0.9-1c-0.5-0.2-0.9-0.2-1.4-0.1
				C638,184,637.6,184.4,637.3,184.9z"/>
			<path class="st6" d="M644.3,184.9l0.5-1.7l0.6-1.4l1.2,0.5l-0.6,1.4l-1,1.5L644.3,184.9z M646.2,185.8l0.5-1.7l0.6-1.4l1.2,0.5
				l-0.6,1.4l-1,1.5L646.2,185.8z"/>
			<path class="st6" d="M645.4,195l-0.7-0.3c2-1.3,3.4-2.9,4.3-4.7c0.3-0.7,0.6-1.5,0.7-2.2c0.1-0.6,0.2-1.3,0.2-1.9
				c0-0.4,0-1.1-0.1-2.1l0.7,0.3c0.3,1.3,0.4,2.5,0.2,3.6c-0.1,1-0.4,1.9-0.8,2.8c-0.5,1-1.1,1.9-2,2.7S646.3,194.6,645.4,195z"/>
		</g>
		<line class="st43" x1="654.3" y1="203.8" x2="576.9" y2="167.8"/>
		<polygon class="st6" points="653.3,198.4 667.2,210 649.4,206.8 		"/>
		<g>
			<path class="st6" d="M572.7,126.7l-5.8-7.2l3.2-2.6c0.6-0.5,1.2-0.8,1.6-1c0.4-0.1,0.9-0.1,1.4,0c0.5,0.2,0.9,0.4,1.2,0.8
				c0.4,0.5,0.6,1.1,0.5,1.7c0,0.6-0.4,1.3-1,1.9c0.4-0.1,0.6-0.1,0.9-0.1c0.5,0,1,0.1,1.6,0.3l2.8,1l-1.2,1l-2.2-0.7
				c-0.6-0.2-1.1-0.4-1.5-0.4c-0.4-0.1-0.7-0.1-0.9-0.1s-0.4,0.1-0.6,0.2c-0.1,0.1-0.3,0.2-0.6,0.4l-1.1,0.9l2.6,3.2L572.7,126.7z
				 M570.4,121.9l2-1.7c0.4-0.4,0.7-0.7,0.9-1c0.2-0.3,0.2-0.6,0.2-0.9c0-0.3-0.1-0.6-0.3-0.8c-0.3-0.3-0.6-0.5-1-0.5
				c-0.4,0-0.9,0.2-1.4,0.6l-2.3,1.8L570.4,121.9z"/>
			<path class="st6" d="M574.6,114.9l-0.7-0.9l4.7-3.8l0.6,0.7c-0.1,0.9,0,1.9,0.2,3s0.5,2.3,1,3.3c0.3,0.7,0.7,1.5,1.3,2.3
				l-0.9,0.7c-0.4-0.6-0.9-1.3-1.3-2.3c-0.4-1-0.8-2-1-3.1c-0.2-1.1-0.3-2-0.3-2.9L574.6,114.9z"/>
		</g>
		<g>
			<path class="st6" d="M585.7,116.2l-0.8-1l1-0.8l0.8,1L585.7,116.2z"/>
			<path class="st6" d="M586.8,112.6l0.8-0.8c0.4,0.3,0.8,0.5,1.1,0.5c0.3,0,0.7-0.1,1-0.4c0.3-0.2,0.5-0.5,0.6-0.8
				c0.1-0.3,0.1-0.6,0.1-0.9c0-0.3-0.2-0.7-0.4-1.1c-0.2-0.4-0.4-0.8-0.7-1.2c0,0-0.1-0.1-0.1-0.2c0.1,0.4,0,0.8-0.2,1.3
				c-0.2,0.4-0.4,0.8-0.8,1.1c-0.6,0.5-1.3,0.7-2,0.6c-0.8-0.1-1.4-0.5-2-1.2c-0.6-0.7-0.9-1.5-0.8-2.3c0.1-0.8,0.4-1.5,1.1-2
				c0.5-0.4,1-0.6,1.6-0.7c0.6-0.1,1.2,0.1,1.8,0.4c0.6,0.3,1.2,0.9,1.9,1.8c0.7,0.9,1.2,1.7,1.5,2.4c0.2,0.7,0.3,1.4,0.1,2
				c-0.2,0.6-0.5,1.1-1,1.5c-0.6,0.5-1.1,0.7-1.8,0.6C587.9,113.4,587.3,113.1,586.8,112.6z M587.8,106.5c-0.4-0.5-0.9-0.8-1.4-0.9
				c-0.5-0.1-1,0-1.3,0.3c-0.4,0.3-0.6,0.8-0.6,1.3c0,0.6,0.2,1.1,0.6,1.6c0.4,0.5,0.8,0.7,1.3,0.8c0.5,0.1,1-0.1,1.4-0.4
				c0.4-0.3,0.6-0.7,0.7-1.2C588.4,107.5,588.2,107,587.8,106.5z"/>
			<path class="st6" d="M596.4,107.6l-1.4-1.7l-3.1,2.5l-0.7-0.8l-0.5-7.3l0.7-0.6l3.8,4.7l1-0.8l0.7,0.8l-1,0.8l1.4,1.7
				L596.4,107.6z M594.4,105l-2.6-3.2l0.4,5.1L594.4,105z"/>
		</g>
		<g>
			<path class="st6" d="M605.6,103.6c-1-0.2-2-0.6-3-1.2c-1-0.6-1.9-1.3-2.6-2.2c-0.6-0.8-1.1-1.6-1.4-2.5c-0.4-1.1-0.6-2.3-0.6-3.6
				l0.6-0.5c0.2,1,0.3,1.7,0.4,2.1c0.2,0.6,0.4,1.2,0.7,1.8c0.4,0.7,0.8,1.4,1.3,2c1.3,1.6,3,2.8,5.3,3.5L605.6,103.6z"/>
			<path class="st6" d="M603.8,98.5l0.9-0.8c0.4,0.4,0.9,0.6,1.3,0.6c0.4,0,0.8-0.1,1.2-0.4c0.4-0.3,0.7-0.8,0.7-1.4
				c0-0.6-0.2-1.1-0.6-1.6c-0.4-0.5-0.9-0.8-1.4-0.9c-0.5-0.1-1,0.1-1.5,0.5c-0.3,0.2-0.5,0.5-0.6,0.8c-0.1,0.3-0.2,0.6-0.1,0.9
				l-0.9,0.6l-2.3-4.3l3.6-2.9l0.7,0.8l-2.9,2.3l1.2,2.2c0.2-0.6,0.5-1.2,1-1.6c0.6-0.5,1.3-0.7,2.1-0.6c0.8,0.1,1.5,0.5,2,1.2
				c0.5,0.7,0.8,1.4,0.8,2.2c0,1-0.4,1.8-1.2,2.4c-0.7,0.5-1.3,0.8-2,0.7C605,99.4,604.3,99.1,603.8,98.5z"/>
			<path class="st6" d="M610.6,96.3l-3.9-9.1l0.7-0.6l3.9,9.1L610.6,96.3z"/>
			<path class="st6" d="M617,90.9l-0.9,0.7l-4.6-5.6c0,0.4-0.2,0.8-0.3,1.3c-0.2,0.5-0.4,0.9-0.6,1.2l-0.7-0.9
				c0.3-0.6,0.5-1.3,0.6-1.9c0.1-0.6,0.1-1.2,0-1.6l0.6-0.5L617,90.9z"/>
			<path class="st6" d="M619.5,79.9l-0.8,0.8c-0.4-0.3-0.7-0.4-0.9-0.5c-0.4-0.1-0.8,0.1-1.2,0.3c-0.3,0.2-0.5,0.5-0.6,0.8
				c-0.1,0.4-0.1,0.9,0.1,1.4c0.2,0.5,0.5,1.1,1.1,1.9c0-0.5,0-0.9,0.2-1.4s0.4-0.7,0.8-1c0.6-0.5,1.3-0.7,2-0.6
				c0.8,0.1,1.4,0.5,2,1.2c0.4,0.5,0.6,1,0.7,1.5c0.1,0.5,0.1,1.1-0.1,1.5c-0.2,0.5-0.5,0.9-0.9,1.2c-0.7,0.6-1.6,0.8-2.5,0.6
				s-1.9-0.9-2.9-2.1c-1.1-1.4-1.7-2.6-1.7-3.7c0-0.9,0.4-1.7,1.1-2.3c0.6-0.5,1.2-0.7,1.8-0.6C618.4,79.2,619,79.4,619.5,79.9z
				 M618.4,86c0.2,0.3,0.5,0.5,0.9,0.7c0.4,0.2,0.7,0.2,1.1,0.2c0.4,0,0.7-0.2,0.9-0.4c0.4-0.3,0.6-0.7,0.6-1.2c0-0.5-0.2-1-0.6-1.6
				c-0.4-0.5-0.9-0.8-1.3-0.9c-0.5-0.1-0.9,0.1-1.4,0.4c-0.4,0.3-0.6,0.7-0.7,1.3C617.9,85,618,85.5,618.4,86z"/>
			<path class="st6" d="M621.4,79.7l-1.4-1.2l-1-1.2l1-0.8l1,1.2l0.9,1.6L621.4,79.7z M623.1,78.4l-1.3-1.2l-1-1.2l1-0.8l1,1.2
				l0.9,1.6L623.1,78.4z"/>
		</g>
		<g>
			<path class="st6" d="M631,83.1l-0.6,0.5c-0.3-2.4-1.1-4.3-2.3-5.9c-0.5-0.6-1.1-1.2-1.7-1.7c-0.5-0.4-1-0.7-1.6-1
				c-0.4-0.2-1-0.5-2-0.8l0.6-0.5c1.3,0.3,2.4,0.8,3.4,1.4c0.8,0.5,1.6,1.2,2.2,1.9c0.7,0.9,1.2,1.9,1.6,3
				C630.8,81.1,631,82.1,631,83.1z"/>
		</g>
		<line class="st43" x1="643.3" y1="79" x2="576.9" y2="132.6"/>
		<polygon class="st6" points="638,77.5 654.5,70.2 643.8,84.8 		"/>
		<g>
			<path class="st6" d="M665.8,698.5l-1.6-9.1l4-0.7c0.8-0.1,1.4-0.2,1.9-0.1c0.5,0.1,0.8,0.3,1.2,0.7c0.3,0.4,0.5,0.8,0.6,1.3
				c0.1,0.6,0,1.2-0.3,1.7c-0.3,0.5-0.9,0.9-1.8,1.2c0.3,0.1,0.6,0.2,0.8,0.3c0.4,0.3,0.8,0.6,1.2,1l2,2.2l-1.5,0.3l-1.5-1.7
				c-0.4-0.5-0.8-0.9-1.1-1.1c-0.3-0.2-0.5-0.4-0.7-0.5c-0.2-0.1-0.4-0.1-0.6-0.1c-0.1,0-0.4,0-0.7,0.1l-1.4,0.2l0.7,4.1
				L665.8,698.5z M666.1,693.2l2.6-0.5c0.6-0.1,1-0.2,1.3-0.4c0.3-0.2,0.5-0.4,0.6-0.7c0.1-0.3,0.2-0.6,0.1-0.9
				c-0.1-0.4-0.3-0.8-0.7-1c-0.4-0.2-0.9-0.3-1.6-0.2l-2.9,0.5L666.1,693.2z"/>
		</g>
		<g>
			<path class="st6" d="M678.7,696.2l-1.1,0.2l-1.2-7.1c-0.2,0.3-0.5,0.6-0.9,1c-0.4,0.3-0.8,0.6-1.1,0.8l-0.2-1.1
				c0.6-0.4,1.1-0.9,1.5-1.4c0.4-0.5,0.7-1,0.8-1.4l0.7-0.1L678.7,696.2z"/>
		</g>
		<g>
			<path class="st6" d="M682.2,695.6l-0.2-1.3l1.3-0.2l0.2,1.3L682.2,695.6z"/>
		</g>
		<g>
			<path class="st6" d="M684.7,692.7l1.2-0.3c0.2,0.6,0.5,1,0.8,1.2c0.4,0.2,0.8,0.3,1.2,0.2c0.5-0.1,1-0.4,1.3-0.8
				c0.3-0.5,0.4-1,0.3-1.7c-0.1-0.6-0.4-1.1-0.8-1.4c-0.4-0.3-0.9-0.4-1.5-0.3c-0.4,0.1-0.7,0.2-0.9,0.4c-0.3,0.2-0.5,0.5-0.6,0.8
				l-1.1,0l0.1-4.8l4.5-0.8l0.2,1.1l-3.6,0.6l-0.1,2.5c0.5-0.5,1-0.8,1.6-0.9c0.8-0.1,1.5,0,2.2,0.5c0.6,0.5,1,1.1,1.2,2
				c0.1,0.8,0,1.6-0.3,2.3c-0.5,0.8-1.2,1.3-2.2,1.5c-0.8,0.1-1.5,0-2.2-0.3C685.3,694,684.9,693.5,684.7,692.7z"/>
		</g>
		<g>
			<path class="st6" d="M693.1,688.6c-0.5-0.1-0.9-0.3-1.2-0.5c-0.3-0.3-0.5-0.6-0.5-1.1c-0.1-0.7,0-1.3,0.4-1.8s1-0.9,1.8-1
				c0.8-0.1,1.5,0,2,0.4c0.6,0.4,0.9,0.9,1,1.6c0.1,0.4,0,0.8-0.1,1.2c-0.2,0.4-0.5,0.7-0.9,0.9c0.6,0.1,1.1,0.3,1.4,0.7
				c0.4,0.4,0.6,0.8,0.7,1.4c0.1,0.8,0,1.5-0.5,2.1c-0.5,0.6-1.1,1-2,1.2c-0.9,0.2-1.7,0-2.3-0.4c-0.6-0.4-1-1.1-1.2-1.9
				c-0.1-0.6,0-1.1,0.2-1.6C692.2,689.2,692.6,688.9,693.1,688.6z M692.5,686.8c0.1,0.4,0.3,0.8,0.6,1c0.3,0.2,0.7,0.3,1.2,0.2
				c0.4-0.1,0.8-0.3,1-0.6s0.3-0.7,0.2-1.1c-0.1-0.4-0.3-0.7-0.6-1c-0.3-0.2-0.7-0.3-1.1-0.2c-0.4,0.1-0.8,0.3-1,0.6
				C692.6,686,692.5,686.4,692.5,686.8z M692.9,691c0.1,0.3,0.2,0.6,0.4,0.9c0.2,0.3,0.5,0.5,0.8,0.6c0.3,0.1,0.7,0.1,1,0.1
				c0.5-0.1,0.9-0.3,1.2-0.7c0.3-0.4,0.4-0.9,0.3-1.4c-0.1-0.5-0.4-1-0.8-1.2c-0.4-0.3-0.9-0.4-1.4-0.3c-0.5,0.1-0.9,0.3-1.2,0.8
				C692.9,690.1,692.8,690.5,692.9,691z"/>
		</g>
		<line class="st43" x1="814.7" y1="707.6" x2="775.5" y2="685.8"/>
		<polygon class="st6" points="809.6,709.8 827,714.8 814.5,701.8 		"/>
		<line class="st43" x1="814.5" y1="680.5" x2="651.6" y2="703.4"/>
		<polygon class="st6" points="811.8,685.3 828.7,678.8 810.8,676 		"/>
		<line class="st56" x1="137.7" y1="704.9" x2="137.7" y2="412.5"/>
		<polygon class="st31" points="141.6,702.1 137.5,717.3 133.4,702.1 		"/>
		<polygon class="st31" points="141.6,415.3 137.5,400.1 133.4,415.3 		"/>
		<g>
			<path class="st6" d="M130,570.4l-0.1-1.2c0.6-0.1,1-0.3,1.3-0.6s0.4-0.7,0.4-1.2c0-0.5-0.2-1-0.6-1.4c-0.4-0.4-1-0.6-1.6-0.6
				c-0.6,0-1.2,0.2-1.5,0.5c-0.4,0.4-0.6,0.8-0.6,1.4c0,0.4,0.1,0.7,0.2,1s0.4,0.5,0.6,0.7l-0.1,1.1l-4.8-0.9v-4.6h1.1v3.7l2.5,0.5
				c-0.4-0.6-0.6-1.1-0.6-1.7c0-0.8,0.3-1.5,0.8-2c0.6-0.6,1.3-0.8,2.2-0.8c0.8,0,1.6,0.2,2.2,0.7c0.8,0.6,1.1,1.4,1.1,2.4
				c0,0.8-0.2,1.5-0.7,2.1C131.4,570,130.8,570.3,130,570.4z"/>
			<path class="st6" d="M127.4,561.5c-0.2,0.5-0.4,0.8-0.7,1c-0.3,0.2-0.7,0.3-1.1,0.3c-0.7,0-1.2-0.2-1.7-0.7s-0.7-1.1-0.7-1.9
				c0-0.8,0.2-1.5,0.7-2c0.5-0.5,1-0.7,1.7-0.7c0.4,0,0.8,0.1,1.1,0.3c0.3,0.2,0.6,0.6,0.7,1c0.2-0.6,0.5-1,0.9-1.3
				c0.4-0.3,0.9-0.4,1.5-0.4c0.8,0,1.5,0.3,2,0.8c0.5,0.6,0.8,1.3,0.8,2.2c0,0.9-0.3,1.7-0.8,2.2s-1.2,0.8-2,0.8
				c-0.6,0-1.1-0.2-1.5-0.5C127.9,562.5,127.6,562,127.4,561.5z M125.5,561.7c0.4,0,0.8-0.1,1.1-0.4c0.3-0.3,0.4-0.6,0.4-1.1
				c0-0.4-0.1-0.8-0.4-1.1c-0.3-0.3-0.6-0.4-1-0.4c-0.4,0-0.8,0.1-1.1,0.4s-0.4,0.6-0.4,1.1c0,0.4,0.1,0.8,0.4,1.1
				C124.8,561.6,125.1,561.7,125.5,561.7z M129.8,562.1c0.3,0,0.6-0.1,0.9-0.2c0.3-0.2,0.5-0.4,0.7-0.7c0.2-0.3,0.2-0.6,0.2-1
				c0-0.5-0.2-1-0.5-1.3c-0.3-0.4-0.8-0.5-1.3-0.5c-0.5,0-1,0.2-1.4,0.5c-0.4,0.4-0.5,0.8-0.5,1.4c0,0.5,0.2,1,0.5,1.3
				S129.2,562.1,129.8,562.1z"/>
			<path class="st6" d="M132.5,555.4h-1.3v-1.3h1.3V555.4z"/>
			<path class="st6" d="M132.5,548.8h-2.2v4h-1l-6-4.2v-0.9h6v-1.3h1v1.3h2.2V548.8z M129.2,548.8H125l4.2,2.9V548.8z"/>
			<path class="st6" d="M131.4,539.3h1.1v6.1c-0.3,0-0.5,0-0.8-0.1c-0.4-0.2-0.8-0.4-1.2-0.7c-0.4-0.3-0.9-0.8-1.4-1.5
				c-0.8-1-1.5-1.7-2-2c-0.5-0.4-0.9-0.5-1.4-0.5c-0.5,0-0.8,0.2-1.1,0.5s-0.5,0.7-0.5,1.3c0,0.5,0.2,1,0.5,1.3
				c0.3,0.3,0.8,0.5,1.4,0.5l-0.1,1.2c-0.9-0.1-1.5-0.4-2-0.9c-0.5-0.5-0.7-1.2-0.7-2.1c0-0.9,0.2-1.6,0.7-2.1
				c0.5-0.5,1.1-0.8,1.8-0.8c0.4,0,0.7,0.1,1.1,0.2c0.4,0.2,0.7,0.4,1.1,0.8c0.4,0.4,0.9,0.9,1.6,1.8c0.6,0.7,1,1.1,1.2,1.3
				c0.2,0.2,0.4,0.4,0.6,0.5V539.3z"/>
			<path class="st6" d="M135.2,532c-0.8,0.6-1.7,1.2-2.8,1.6c-1.1,0.4-2.2,0.7-3.3,0.7c-1,0-2-0.2-2.9-0.5c-1.1-0.4-2.1-1-3.2-1.8
				v-0.8c0.9,0.5,1.5,0.8,1.9,1c0.6,0.3,1.2,0.5,1.8,0.6c0.8,0.2,1.6,0.3,2.4,0.3c2,0,4-0.6,6.1-1.9V532z"/>
			<path class="st6" d="M131.4,524.2h1.1v6.1c-0.3,0-0.5,0-0.8-0.1c-0.4-0.2-0.8-0.4-1.2-0.7c-0.4-0.3-0.9-0.8-1.4-1.5
				c-0.8-1-1.5-1.7-2-2c-0.5-0.4-0.9-0.5-1.4-0.5c-0.5,0-0.8,0.2-1.1,0.5s-0.5,0.7-0.5,1.3c0,0.5,0.2,1,0.5,1.3
				c0.3,0.3,0.8,0.5,1.4,0.5l-0.1,1.2c-0.9-0.1-1.5-0.4-2-0.9c-0.5-0.5-0.7-1.2-0.7-2.1c0-0.9,0.2-1.6,0.7-2.1
				c0.5-0.5,1.1-0.8,1.8-0.8c0.4,0,0.7,0.1,1.1,0.2c0.4,0.2,0.7,0.4,1.1,0.8c0.4,0.4,0.9,0.9,1.6,1.8c0.6,0.7,1,1.1,1.2,1.3
				c0.2,0.2,0.4,0.4,0.6,0.5V524.2z"/>
			<path class="st6" d="M132.5,522.3h-1.3V521h1.3V522.3z"/>
			<path class="st6" d="M130,519.4l-0.2-1.1c0.6-0.1,1.1-0.4,1.4-0.7s0.4-0.7,0.4-1.1c0-0.5-0.2-1-0.6-1.4c-0.4-0.4-0.8-0.6-1.4-0.6
				c-0.5,0-1,0.2-1.3,0.5s-0.5,0.8-0.5,1.3c0,0.2,0,0.5,0.1,0.8l-1-0.1c0-0.1,0-0.1,0-0.2c0-0.5-0.1-0.9-0.4-1.3
				c-0.3-0.4-0.6-0.6-1.2-0.6c-0.4,0-0.8,0.1-1,0.4s-0.4,0.6-0.4,1.1c0,0.4,0.1,0.8,0.4,1.1c0.3,0.3,0.7,0.5,1.3,0.6l-0.2,1.1
				c-0.8-0.1-1.4-0.5-1.8-0.9c-0.4-0.5-0.6-1.1-0.6-1.8c0-0.5,0.1-1,0.3-1.4c0.2-0.4,0.5-0.8,0.9-1c0.4-0.2,0.8-0.3,1.2-0.3
				c0.4,0,0.8,0.1,1.1,0.3c0.3,0.2,0.6,0.5,0.8,1c0.1-0.5,0.4-1,0.8-1.3c0.4-0.3,0.9-0.5,1.5-0.5c0.8,0,1.5,0.3,2.1,0.9
				c0.6,0.6,0.8,1.3,0.8,2.2c0,0.8-0.2,1.5-0.7,2C131.4,519,130.8,519.3,130,519.4z"/>
			<path class="st6" d="M127.9,512.2c-1.1,0-2-0.1-2.6-0.3c-0.7-0.2-1.2-0.6-1.5-1c-0.4-0.4-0.5-1-0.5-1.7c0-0.5,0.1-0.9,0.3-1.3
				c0.2-0.4,0.5-0.7,0.9-0.9s0.8-0.4,1.4-0.6c0.5-0.1,1.3-0.2,2.2-0.2c1.1,0,2,0.1,2.6,0.3c0.7,0.2,1.2,0.6,1.5,1s0.5,1,0.5,1.7
				c0,0.9-0.3,1.6-1,2.1C130.9,511.9,129.6,512.2,127.9,512.2z M127.9,511c1.5,0,2.5-0.2,3-0.5c0.5-0.4,0.8-0.8,0.8-1.3
				c0-0.5-0.3-1-0.8-1.3c-0.5-0.4-1.5-0.5-3-0.5c-1.5,0-2.5,0.2-3,0.5s-0.8,0.8-0.8,1.3c0,0.5,0.2,0.9,0.7,1.2
				C125.3,510.8,126.4,511,127.9,511z"/>
			<path class="st6" d="M126.5,502.5l-1.8,0.3h-1.5v-1.3h1.5l1.8,0.3V502.5z M126.5,504.6l-1.8,0.3h-1.5v-1.3h1.5l1.8,0.3V504.6z"/>
		</g>
		<g>
			<path class="st6" d="M135.2,499.2v0.8c-2-1.3-4-1.9-6.1-1.9c-0.8,0-1.6,0.1-2.4,0.3c-0.6,0.1-1.2,0.3-1.8,0.6
				c-0.4,0.2-1,0.5-1.9,1v-0.8c1.1-0.8,2.1-1.4,3.2-1.8c0.9-0.3,1.9-0.5,2.9-0.5c1.1,0,2.2,0.2,3.3,0.7
				C133.5,498.1,134.4,498.6,135.2,499.2z"/>
		</g>
		<line class="st42" x1="809" y1="411" x2="809" y2="261.7"/>
		<polygon class="st31" points="812.8,409.7 808.8,424.3 804.9,409.7 		"/>
		<polygon class="st31" points="812.8,264.4 808.8,249.8 804.9,264.4 		"/>
		<line class="st42" x1="809" y1="588.4" x2="809" y2="432"/>
		<polygon class="st31" points="812.8,585.7 808.8,600.4 804.9,585.7 		"/>
		<polygon class="st31" points="812.8,437.9 808.8,423.3 804.9,437.9 		"/>
		<g>
			<path class="st6" d="M745.6,406.5l5-6.7l-4.4-6.2h2l2.3,3.3c0.5,0.7,0.8,1.2,1,1.6c0.3-0.5,0.6-1,1-1.5l2.6-3.4h1.9l-4.5,6.1
				l4.9,6.8h-2.1l-3.2-4.6c-0.2-0.3-0.4-0.6-0.6-0.9c-0.3,0.5-0.5,0.8-0.6,1l-3.2,4.5H745.6z"/>
			<path class="st6" d="M110.9,408.7l5-6.7l-4.4-6.2h2l2.3,3.3c0.5,0.7,0.8,1.2,1,1.6c0.3-0.5,0.6-1,1-1.5l2.6-3.4h1.9l-4.5,6.1
				l4.9,6.8h-2.1l-3.2-4.6c-0.2-0.3-0.4-0.6-0.6-0.9c-0.3,0.5-0.5,0.8-0.6,1l-3.2,4.5H110.9z"/>
		</g>
		<line class="st57" x1="742" y1="400" x2="127.7" y2="400"/>
		<g>
			<path class="st6" d="M611.1,266.9l1.8-9.1l4,0.8c0.8,0.2,1.4,0.4,1.8,0.6c0.4,0.2,0.7,0.6,0.8,1.1c0.2,0.5,0.2,0.9,0.1,1.4
				c-0.1,0.6-0.4,1.1-0.9,1.5c-0.5,0.4-1.2,0.5-2.1,0.5c0.3,0.2,0.5,0.4,0.6,0.6c0.3,0.4,0.5,0.9,0.8,1.4l1.1,2.8l-1.5-0.3l-0.8-2.1
				c-0.2-0.6-0.5-1.1-0.6-1.4c-0.2-0.3-0.3-0.6-0.5-0.7c-0.2-0.2-0.3-0.3-0.5-0.3c-0.1-0.1-0.4-0.1-0.7-0.2l-1.4-0.3l-0.8,4
				L611.1,266.9z M613.3,262l2.6,0.5c0.5,0.1,1,0.1,1.3,0.1c0.3-0.1,0.6-0.2,0.8-0.4c0.2-0.2,0.3-0.5,0.4-0.8c0.1-0.4,0-0.8-0.3-1.2
				c-0.3-0.3-0.7-0.6-1.4-0.7l-2.9-0.6L613.3,262z"/>
		</g>
		<g>
			<path class="st6" d="M627,262.8l-1.1-0.1c0-0.5-0.1-0.8-0.2-1c-0.2-0.4-0.6-0.6-1-0.7c-0.4-0.1-0.7,0-1,0.1c-0.4,0.2-0.8,0.5-1,1
				c-0.3,0.5-0.5,1.1-0.7,2c0.3-0.4,0.7-0.6,1.2-0.7c0.4-0.1,0.9-0.1,1.3-0.1c0.7,0.1,1.3,0.5,1.7,1.2c0.4,0.6,0.5,1.4,0.4,2.3
				c-0.1,0.6-0.3,1.1-0.7,1.5c-0.3,0.4-0.8,0.8-1.2,0.9c-0.5,0.2-1,0.2-1.5,0.1c-0.9-0.2-1.6-0.7-2.1-1.5c-0.5-0.8-0.5-2-0.2-3.6
				c0.3-1.8,0.9-3,1.7-3.6c0.7-0.6,1.5-0.8,2.5-0.6c0.7,0.1,1.3,0.5,1.6,0.9C626.8,261.5,627,262.1,627,262.8z M621.6,265.8
				c-0.1,0.4-0.1,0.8,0,1.2c0.1,0.4,0.3,0.7,0.5,0.9c0.3,0.2,0.5,0.4,0.9,0.5c0.5,0.1,0.9,0,1.3-0.3c0.4-0.3,0.7-0.8,0.8-1.5
				c0.1-0.6,0-1.2-0.2-1.6c-0.3-0.4-0.7-0.7-1.2-0.8c-0.5-0.1-1,0-1.4,0.3C622,264.8,621.8,265.3,621.6,265.8z"/>
			<path class="st6" d="M627.5,270l0.2-1.3l1.3,0.2l-0.2,1.3L627.5,270z"/>
			<path class="st6" d="M630.9,268.2l1.1,0.1c0,0.7,0.1,1.2,0.4,1.5c0.3,0.3,0.6,0.6,1,0.6c0.5,0.1,1,0,1.4-0.3
				c0.4-0.3,0.7-0.7,0.8-1.2c0.1-0.5,0-1-0.3-1.4c-0.3-0.4-0.7-0.6-1.2-0.7c-0.2,0-0.5-0.1-0.8,0l0.3-1c0.1,0,0.1,0,0.2,0
				c0.5,0.1,0.9,0.1,1.4-0.1c0.4-0.2,0.7-0.5,0.8-1c0.1-0.4,0-0.8-0.2-1.1s-0.6-0.5-1-0.6c-0.4-0.1-0.8,0-1.2,0.2
				c-0.3,0.2-0.6,0.6-0.8,1.1l-1.1-0.4c0.3-0.7,0.7-1.2,1.3-1.6c0.6-0.3,1.2-0.4,1.9-0.3c0.5,0.1,0.9,0.3,1.3,0.6
				c0.4,0.3,0.6,0.6,0.8,1.1c0.1,0.4,0.2,0.8,0.1,1.2c-0.1,0.4-0.3,0.7-0.5,1c-0.3,0.3-0.6,0.5-1.1,0.6c0.5,0.2,0.9,0.6,1.1,1
				c0.2,0.4,0.3,1,0.2,1.6c-0.2,0.8-0.6,1.4-1.3,1.8c-0.7,0.4-1.5,0.6-2.4,0.4c-0.8-0.2-1.4-0.5-1.8-1.1
				C631,269.7,630.8,269,630.9,268.2z"/>
			<path class="st6" d="M638,269.6l1.2,0.1c0,0.6,0.1,1.1,0.4,1.4c0.3,0.3,0.6,0.6,1.1,0.7c0.5,0.1,1,0,1.5-0.3
				c0.5-0.3,0.7-0.8,0.9-1.5c0.1-0.6,0-1.2-0.2-1.6c-0.3-0.4-0.7-0.7-1.3-0.8c-0.4-0.1-0.7-0.1-1,0.1c-0.3,0.1-0.6,0.3-0.8,0.5
				l-1-0.3l1.8-4.5l4.5,0.9l-0.2,1.1l-3.6-0.7l-1,2.3c0.6-0.3,1.2-0.4,1.8-0.2c0.8,0.2,1.4,0.6,1.8,1.2c0.4,0.7,0.6,1.4,0.4,2.3
				c-0.2,0.8-0.5,1.5-1.1,2c-0.7,0.6-1.6,0.8-2.6,0.6c-0.8-0.2-1.5-0.5-1.9-1.1C638.1,271,637.9,270.4,638,269.6z"/>
		</g>
		<line class="st43" x1="559.3" y1="261.7" x2="643.1" y2="277.9"/>
		<polygon class="st6" points="561.6,266.7 545.3,258.8 563.3,257.5 		"/>
		<g>
			<path class="st6" d="M599,296.3l1.8-9.1l4,0.8c0.8,0.2,1.4,0.4,1.8,0.6s0.7,0.6,0.8,1.1s0.2,0.9,0.1,1.4
				c-0.1,0.6-0.4,1.1-0.9,1.5c-0.5,0.4-1.2,0.5-2.1,0.5c0.3,0.2,0.5,0.4,0.6,0.6c0.3,0.4,0.5,0.9,0.8,1.4l1.1,2.8l-1.5-0.3l-0.8-2.1
				c-0.2-0.6-0.5-1.1-0.6-1.4c-0.2-0.3-0.3-0.6-0.5-0.7c-0.2-0.2-0.3-0.3-0.5-0.3c-0.1-0.1-0.4-0.1-0.7-0.2l-1.4-0.3l-0.8,4
				L599,296.3z M601.2,291.5l2.6,0.5c0.5,0.1,1,0.1,1.3,0.1c0.3-0.1,0.6-0.2,0.8-0.4c0.2-0.2,0.3-0.5,0.4-0.8c0.1-0.4,0-0.8-0.3-1.2
				c-0.3-0.3-0.7-0.6-1.4-0.7l-2.9-0.6L601.2,291.5z"/>
		</g>
		<g>
			<path class="st6" d="M608.1,295.6l1.1,0.1c0,0.7,0.1,1.2,0.4,1.5s0.6,0.6,1,0.6c0.5,0.1,1,0,1.4-0.3c0.4-0.3,0.7-0.7,0.8-1.2
				c0.1-0.5,0-1-0.3-1.4s-0.7-0.6-1.2-0.7c-0.2,0-0.5-0.1-0.8,0l0.3-1c0.1,0,0.1,0,0.2,0c0.5,0.1,0.9,0,1.4-0.1s0.7-0.5,0.8-1
				c0.1-0.4,0-0.8-0.2-1.1c-0.2-0.3-0.6-0.5-1-0.6c-0.4-0.1-0.8,0-1.2,0.2s-0.6,0.6-0.8,1.1l-1.1-0.4c0.3-0.7,0.7-1.2,1.3-1.6
				c0.6-0.3,1.2-0.4,1.9-0.3c0.5,0.1,0.9,0.3,1.3,0.6c0.4,0.3,0.6,0.6,0.8,1.1c0.1,0.4,0.2,0.8,0.1,1.2c-0.1,0.4-0.2,0.7-0.5,1
				c-0.3,0.3-0.6,0.5-1.1,0.6c0.5,0.2,0.9,0.6,1.1,1c0.2,0.4,0.3,1,0.2,1.6c-0.2,0.8-0.6,1.4-1.3,1.9c-0.7,0.4-1.5,0.6-2.4,0.4
				c-0.8-0.2-1.4-0.5-1.8-1.1S608.1,296.4,608.1,295.6z"/>
			<path class="st6" d="M615.6,294.9c0.2-1.1,0.5-1.9,0.8-2.5c0.3-0.6,0.8-1.1,1.3-1.3c0.5-0.3,1.1-0.3,1.8-0.2
				c0.5,0.1,0.9,0.3,1.2,0.5s0.6,0.6,0.7,1c0.2,0.4,0.3,0.9,0.3,1.5s0,1.3-0.2,2.2c-0.2,1.1-0.5,1.9-0.8,2.5
				c-0.3,0.6-0.8,1.1-1.3,1.3c-0.5,0.3-1.1,0.3-1.8,0.2c-0.9-0.2-1.5-0.6-1.9-1.3C615.3,297.9,615.3,296.6,615.6,294.9z
				 M616.8,295.1c-0.3,1.5-0.3,2.5-0.1,3.1c0.3,0.6,0.6,0.9,1.2,1c0.5,0.1,1-0.1,1.4-0.5c0.4-0.4,0.8-1.4,1.1-2.9
				c0.3-1.5,0.3-2.5,0.1-3.1c-0.3-0.6-0.6-0.9-1.2-1c-0.5-0.1-1,0-1.4,0.4C617.4,292.7,617,293.7,616.8,295.1z"/>
			<path class="st6" d="M625.4,301.5l0.4-2.2l-3.9-0.8l0.2-1l5.3-5.1l0.9,0.2l-1.1,5.9l1.2,0.2l-0.2,1l-1.2-0.2l-0.4,2.2
				L625.4,301.5z M626,298.3l0.8-4.1l-3.6,3.5L626,298.3z"/>
			<path class="st6" d="M629.5,302.3l0.2-1.3l1.3,0.2l-0.2,1.3L629.5,302.3z"/>
		</g>
		<g>
			<path class="st6" d="M635.1,298.2c-0.4-0.3-0.7-0.6-0.9-0.9s-0.2-0.8-0.1-1.2c0.1-0.7,0.5-1.2,1-1.5c0.6-0.4,1.2-0.5,2-0.3
				c0.8,0.2,1.4,0.5,1.8,1.1s0.5,1.2,0.4,1.8c-0.1,0.4-0.3,0.8-0.5,1c-0.3,0.3-0.7,0.4-1.1,0.5c0.5,0.3,0.9,0.7,1.1,1.1
				c0.2,0.5,0.3,1,0.2,1.5c-0.2,0.8-0.6,1.4-1.2,1.8c-0.7,0.4-1.4,0.5-2.3,0.4c-0.9-0.2-1.6-0.6-2-1.2c-0.4-0.6-0.6-1.4-0.4-2.1
				c0.1-0.6,0.4-1.1,0.7-1.4S634.5,298.3,635.1,298.2z M634,300.4c-0.1,0.3,0,0.6,0,1c0.1,0.3,0.3,0.6,0.5,0.8
				c0.3,0.2,0.6,0.4,0.9,0.4c0.5,0.1,1,0,1.4-0.3c0.4-0.3,0.7-0.7,0.8-1.2c0.1-0.5,0-1-0.3-1.4c-0.3-0.4-0.7-0.7-1.2-0.8
				c-0.5-0.1-1,0-1.4,0.3C634.4,299.5,634.1,299.9,634,300.4z M635.2,296.3c-0.1,0.4,0,0.8,0.2,1.1c0.2,0.3,0.6,0.5,1,0.6
				c0.4,0.1,0.8,0,1.1-0.2s0.5-0.5,0.6-0.9c0.1-0.4,0-0.8-0.2-1.1c-0.2-0.3-0.6-0.5-1-0.6c-0.4-0.1-0.8,0-1.1,0.2
				C635.5,295.6,635.3,295.9,635.2,296.3z"/>
		</g>
		<line class="st43" x1="556" y1="291.2" x2="639.8" y2="307.4"/>
		<polygon class="st6" points="558.3,296.2 542,288.3 560.1,287.1 		"/>
		<g>
			<path class="st6" d="M802.7,550.6l-0.2-1.1c0.6-0.1,1.1-0.4,1.4-0.7s0.4-0.7,0.4-1.1c0-0.5-0.2-1-0.6-1.4
				c-0.4-0.4-0.8-0.6-1.4-0.6c-0.5,0-1,0.2-1.3,0.5s-0.5,0.8-0.5,1.3c0,0.2,0,0.5,0.1,0.8l-1-0.1c0-0.1,0-0.1,0-0.2
				c0-0.5-0.1-0.9-0.4-1.3c-0.3-0.4-0.6-0.6-1.2-0.6c-0.4,0-0.8,0.1-1,0.4s-0.4,0.6-0.4,1.1c0,0.4,0.1,0.8,0.4,1.1
				c0.3,0.3,0.7,0.5,1.3,0.6l-0.2,1.1c-0.8-0.1-1.4-0.5-1.8-0.9c-0.4-0.5-0.6-1.1-0.6-1.8c0-0.5,0.1-1,0.3-1.4
				c0.2-0.4,0.5-0.8,0.9-1c0.4-0.2,0.8-0.3,1.2-0.3c0.4,0,0.8,0.1,1.1,0.3c0.3,0.2,0.6,0.5,0.8,1c0.1-0.5,0.4-1,0.8-1.3
				c0.4-0.3,0.9-0.5,1.5-0.5c0.8,0,1.5,0.3,2.1,0.9c0.6,0.6,0.8,1.3,0.8,2.2c0,0.8-0.2,1.5-0.7,2
				C804.1,550.2,803.4,550.5,802.7,550.6z"/>
			<path class="st6" d="M804,537.4h1.1v6.1c-0.3,0-0.5,0-0.8-0.1c-0.4-0.2-0.8-0.4-1.2-0.7c-0.4-0.3-0.9-0.8-1.4-1.5
				c-0.8-1-1.5-1.7-2-2c-0.5-0.4-0.9-0.5-1.4-0.5c-0.5,0-0.8,0.2-1.1,0.5s-0.5,0.7-0.5,1.3c0,0.5,0.2,1,0.5,1.3
				c0.3,0.3,0.8,0.5,1.4,0.5l-0.1,1.2c-0.9-0.1-1.5-0.4-2-0.9c-0.5-0.5-0.7-1.2-0.7-2.1c0-0.9,0.2-1.6,0.7-2.1
				c0.5-0.5,1.1-0.8,1.8-0.8c0.4,0,0.7,0.1,1.1,0.2c0.4,0.2,0.7,0.4,1.1,0.8c0.4,0.4,0.9,0.9,1.6,1.8c0.6,0.7,1,1.1,1.2,1.3
				c0.2,0.2,0.4,0.4,0.6,0.5V537.4z"/>
			<path class="st6" d="M805.1,535.6h-1.3v-1.3h1.3V535.6z"/>
			<path class="st6" d="M802.7,532.6l-0.2-1.1c0.6-0.1,1.1-0.4,1.4-0.7s0.4-0.7,0.4-1.1c0-0.5-0.2-1-0.6-1.4
				c-0.4-0.4-0.8-0.6-1.4-0.6c-0.5,0-1,0.2-1.3,0.5s-0.5,0.8-0.5,1.3c0,0.2,0,0.5,0.1,0.8l-1-0.1c0-0.1,0-0.1,0-0.2
				c0-0.5-0.1-0.9-0.4-1.3c-0.3-0.4-0.6-0.6-1.2-0.6c-0.4,0-0.8,0.1-1,0.4s-0.4,0.6-0.4,1.1c0,0.4,0.1,0.8,0.4,1.1
				c0.3,0.3,0.7,0.5,1.3,0.6l-0.2,1.1c-0.8-0.1-1.4-0.5-1.8-0.9c-0.4-0.5-0.6-1.1-0.6-1.8c0-0.5,0.1-1,0.3-1.4
				c0.2-0.4,0.5-0.8,0.9-1c0.4-0.2,0.8-0.3,1.2-0.3c0.4,0,0.8,0.1,1.1,0.3c0.3,0.2,0.6,0.5,0.8,1c0.1-0.5,0.4-1,0.8-1.3
				c0.4-0.3,0.9-0.5,1.5-0.5c0.8,0,1.5,0.3,2.1,0.9c0.6,0.6,0.8,1.3,0.8,2.2c0,0.8-0.2,1.5-0.7,2
				C804.1,532.2,803.4,532.5,802.7,532.6z"/>
			<path class="st6" d="M802.7,525.4l-0.1-1.2c0.6-0.1,1-0.3,1.3-0.6s0.4-0.7,0.4-1.2c0-0.5-0.2-1-0.6-1.4c-0.4-0.4-1-0.6-1.6-0.6
				c-0.6,0-1.2,0.2-1.5,0.5c-0.4,0.4-0.6,0.8-0.6,1.4c0,0.4,0.1,0.7,0.2,1s0.4,0.5,0.6,0.7l-0.1,1.1l-4.8-0.9v-4.6h1.1v3.7l2.5,0.5
				c-0.4-0.6-0.6-1.1-0.6-1.7c0-0.8,0.3-1.5,0.8-2c0.6-0.6,1.3-0.8,2.2-0.8c0.8,0,1.6,0.2,2.2,0.7c0.8,0.6,1.1,1.4,1.1,2.4
				c0,0.8-0.2,1.5-0.7,2.1C804.1,525,803.5,525.3,802.7,525.4z"/>
			<path class="st6" d="M807.8,512.1c-0.8,0.6-1.7,1.2-2.8,1.6c-1.1,0.4-2.2,0.7-3.3,0.7c-1,0-2-0.2-2.9-0.5c-1.1-0.4-2.1-1-3.2-1.8
				v-0.8c0.9,0.5,1.5,0.8,1.9,1c0.6,0.3,1.2,0.5,1.8,0.6c0.8,0.2,1.6,0.3,2.4,0.3c2,0,4-0.6,6.1-1.9V512.1z"/>
			<path class="st6" d="M805.1,506v1.1h-7.2c0.3,0.3,0.5,0.6,0.8,1.1c0.3,0.4,0.5,0.8,0.6,1.2h-1.1c-0.3-0.6-0.7-1.2-1.1-1.7
				c-0.4-0.5-0.8-0.8-1.2-1V506H805.1z"/>
			<path class="st6" d="M802.3,503.2h-1.1v-3.5h1.1V503.2z"/>
			<path class="st6" d="M802.7,498.8l-0.2-1.1c0.6-0.1,1.1-0.4,1.4-0.7s0.4-0.7,0.4-1.1c0-0.5-0.2-1-0.6-1.4
				c-0.4-0.4-0.8-0.6-1.4-0.6c-0.5,0-1,0.2-1.3,0.5s-0.5,0.8-0.5,1.3c0,0.2,0,0.5,0.1,0.8l-1-0.1c0-0.1,0-0.1,0-0.2
				c0-0.5-0.1-0.9-0.4-1.3c-0.3-0.4-0.6-0.6-1.2-0.6c-0.4,0-0.8,0.1-1,0.4s-0.4,0.6-0.4,1.1c0,0.4,0.1,0.8,0.4,1.1
				c0.3,0.3,0.7,0.5,1.3,0.6l-0.2,1.1c-0.8-0.1-1.4-0.5-1.8-0.9c-0.4-0.5-0.6-1.1-0.6-1.8c0-0.5,0.1-1,0.3-1.4
				c0.2-0.4,0.5-0.8,0.9-1c0.4-0.2,0.8-0.3,1.2-0.3c0.4,0,0.8,0.1,1.1,0.3c0.3,0.2,0.6,0.5,0.8,1c0.1-0.5,0.4-1,0.8-1.3
				c0.4-0.3,0.9-0.5,1.5-0.5c0.8,0,1.5,0.3,2.1,0.9c0.6,0.6,0.8,1.3,0.8,2.2c0,0.8-0.2,1.5-0.7,2
				C804.1,498.4,803.4,498.7,802.7,498.8z"/>
			<path class="st6" d="M802.7,491.6l-0.1-1.2c0.6-0.1,1-0.3,1.3-0.6s0.4-0.7,0.4-1.2c0-0.5-0.2-1-0.6-1.4c-0.4-0.4-1-0.6-1.6-0.6
				c-0.6,0-1.2,0.2-1.5,0.5c-0.4,0.4-0.6,0.8-0.6,1.4c0,0.4,0.1,0.7,0.2,1s0.4,0.5,0.6,0.7l-0.1,1.1l-4.8-0.9v-4.6h1.1v3.7l2.5,0.5
				c-0.4-0.6-0.6-1.1-0.6-1.7c0-0.8,0.3-1.5,0.8-2c0.6-0.6,1.3-0.8,2.2-0.8c0.8,0,1.6,0.2,2.2,0.7c0.8,0.6,1.1,1.4,1.1,2.4
				c0,0.8-0.2,1.5-0.7,2.1C804.1,491.2,803.5,491.5,802.7,491.6z"/>
			<path class="st6" d="M805.3,485l-9.6-2.7v-0.9l9.6,2.7V485z"/>
			<path class="st6" d="M805.1,476.5v1.1h-7.2c0.3,0.3,0.5,0.6,0.8,1.1c0.3,0.4,0.5,0.8,0.6,1.2h-1.1c-0.3-0.6-0.7-1.2-1.1-1.7
				c-0.4-0.5-0.8-0.8-1.2-1v-0.7H805.1z"/>
			<path class="st6" d="M804,467.7h1.1v6.1c-0.3,0-0.5,0-0.8-0.1c-0.4-0.2-0.8-0.4-1.2-0.7c-0.4-0.3-0.9-0.8-1.4-1.5
				c-0.8-1-1.5-1.7-2-2c-0.5-0.4-0.9-0.5-1.4-0.5c-0.5,0-0.8,0.2-1.1,0.5s-0.5,0.7-0.5,1.3c0,0.5,0.2,1,0.5,1.3
				c0.3,0.3,0.8,0.5,1.4,0.5l-0.1,1.2c-0.9-0.1-1.5-0.4-2-0.9c-0.5-0.5-0.7-1.2-0.7-2.1c0-0.9,0.2-1.6,0.7-2.1
				c0.5-0.5,1.1-0.8,1.8-0.8c0.4,0,0.7,0.1,1.1,0.2c0.4,0.2,0.7,0.4,1.1,0.8c0.4,0.4,0.9,0.9,1.6,1.8c0.6,0.7,1,1.1,1.2,1.3
				c0.2,0.2,0.4,0.4,0.6,0.5V467.7z"/>
			<path class="st6" d="M800.1,464.7c-0.2,0.5-0.4,0.8-0.7,1c-0.3,0.2-0.7,0.3-1.1,0.3c-0.7,0-1.2-0.2-1.7-0.7s-0.7-1.1-0.7-1.9
				c0-0.8,0.2-1.5,0.7-2c0.5-0.5,1-0.7,1.7-0.7c0.4,0,0.8,0.1,1.1,0.3c0.3,0.2,0.6,0.6,0.7,1c0.2-0.6,0.5-1,0.9-1.3
				c0.4-0.3,0.9-0.4,1.5-0.4c0.8,0,1.5,0.3,2,0.8c0.5,0.6,0.8,1.3,0.8,2.2c0,0.9-0.3,1.7-0.8,2.2s-1.2,0.8-2,0.8
				c-0.6,0-1.1-0.2-1.5-0.5C800.5,465.7,800.2,465.2,800.1,464.7z M798.1,464.9c0.4,0,0.8-0.1,1.1-0.4c0.3-0.3,0.4-0.6,0.4-1.1
				c0-0.4-0.1-0.8-0.4-1.1c-0.3-0.3-0.6-0.4-1-0.4c-0.4,0-0.8,0.1-1.1,0.4s-0.4,0.6-0.4,1.1c0,0.4,0.1,0.8,0.4,1.1
				C797.4,464.8,797.8,464.9,798.1,464.9z M802.4,465.3c0.3,0,0.6-0.1,0.9-0.2c0.3-0.2,0.5-0.4,0.7-0.7c0.2-0.3,0.2-0.6,0.2-1
				c0-0.5-0.2-1-0.5-1.3c-0.3-0.4-0.8-0.5-1.3-0.5c-0.5,0-1,0.2-1.4,0.5c-0.4,0.4-0.5,0.8-0.5,1.4c0,0.5,0.2,1,0.5,1.3
				S801.9,465.3,802.4,465.3z"/>
			<path class="st6" d="M799.1,456.8l-1.8,0.3h-1.5v-1.3h1.5l1.8,0.3V456.8z M799.1,458.9l-1.8,0.3h-1.5v-1.3h1.5l1.8,0.3V458.9z"/>
			<path class="st6" d="M807.8,453.6v0.8c-2-1.3-4-1.9-6.1-1.9c-0.8,0-1.6,0.1-2.4,0.3c-0.6,0.1-1.2,0.3-1.8,0.6
				c-0.4,0.2-1,0.5-1.9,1v-0.8c1.1-0.8,2.1-1.4,3.2-1.8c0.9-0.3,1.9-0.5,2.9-0.5c1.1,0,2.2,0.2,3.3,0.7
				C806.1,452.4,807,453,807.8,453.6z"/>
		</g>
		<g>
			<path class="st6" d="M802.7,372.5l-0.2-1.1c0.6-0.1,1.1-0.4,1.4-0.7c0.3-0.3,0.4-0.7,0.4-1.1c0-0.5-0.2-1-0.6-1.4
				c-0.4-0.4-0.8-0.6-1.4-0.6c-0.5,0-1,0.2-1.3,0.5c-0.3,0.3-0.5,0.8-0.5,1.3c0,0.2,0,0.5,0.1,0.8l-1-0.1c0-0.1,0-0.1,0-0.2
				c0-0.5-0.1-0.9-0.4-1.3c-0.3-0.4-0.6-0.6-1.2-0.6c-0.4,0-0.8,0.1-1,0.4c-0.3,0.3-0.4,0.6-0.4,1.1c0,0.4,0.1,0.8,0.4,1.1
				c0.3,0.3,0.7,0.5,1.3,0.6l-0.2,1.1c-0.8-0.1-1.4-0.5-1.8-0.9s-0.6-1.1-0.6-1.8c0-0.5,0.1-1,0.3-1.4s0.5-0.8,0.9-1
				c0.4-0.2,0.8-0.3,1.2-0.3c0.4,0,0.8,0.1,1.1,0.3c0.3,0.2,0.6,0.5,0.8,1c0.1-0.5,0.4-1,0.8-1.3c0.4-0.3,0.9-0.5,1.5-0.5
				c0.8,0,1.5,0.3,2.1,0.9c0.6,0.6,0.8,1.3,0.8,2.2c0,0.8-0.2,1.5-0.7,2C804.1,372.1,803.4,372.4,802.7,372.5z"/>
			<path class="st6" d="M804,359.3h1.1v6.1c-0.3,0-0.5,0-0.8-0.1c-0.4-0.2-0.8-0.4-1.2-0.7c-0.4-0.3-0.9-0.8-1.4-1.5
				c-0.8-1-1.5-1.7-2-2c-0.5-0.4-0.9-0.5-1.4-0.5c-0.5,0-0.8,0.2-1.1,0.5s-0.5,0.7-0.5,1.3c0,0.5,0.2,1,0.5,1.3
				c0.3,0.3,0.8,0.5,1.4,0.5l-0.1,1.2c-0.9-0.1-1.5-0.4-2-0.9c-0.5-0.5-0.7-1.2-0.7-2.1c0-0.9,0.2-1.6,0.7-2.1
				c0.5-0.5,1.1-0.8,1.8-0.8c0.4,0,0.7,0.1,1.1,0.2c0.4,0.2,0.7,0.4,1.1,0.8c0.4,0.4,0.9,0.9,1.6,1.8c0.6,0.7,1,1.1,1.2,1.3
				c0.2,0.2,0.4,0.4,0.6,0.5V359.3z"/>
			<path class="st6" d="M805.1,357.5h-1.3v-1.3h1.3V357.5z"/>
			<path class="st6" d="M802.7,354.5l-0.2-1.1c0.6-0.1,1.1-0.4,1.4-0.7c0.3-0.3,0.4-0.7,0.4-1.1c0-0.5-0.2-1-0.6-1.4
				c-0.4-0.4-0.8-0.6-1.4-0.6c-0.5,0-1,0.2-1.3,0.5c-0.3,0.3-0.5,0.8-0.5,1.3c0,0.2,0,0.5,0.1,0.8l-1-0.1c0-0.1,0-0.1,0-0.2
				c0-0.5-0.1-0.9-0.4-1.3c-0.3-0.4-0.6-0.6-1.2-0.6c-0.4,0-0.8,0.1-1,0.4c-0.3,0.3-0.4,0.6-0.4,1.1c0,0.4,0.1,0.8,0.4,1.1
				c0.3,0.3,0.7,0.5,1.3,0.6l-0.2,1.1c-0.8-0.1-1.4-0.5-1.8-0.9s-0.6-1.1-0.6-1.8c0-0.5,0.1-1,0.3-1.4s0.5-0.8,0.9-1
				c0.4-0.2,0.8-0.3,1.2-0.3c0.4,0,0.8,0.1,1.1,0.3c0.3,0.2,0.6,0.5,0.8,1c0.1-0.5,0.4-1,0.8-1.3c0.4-0.3,0.9-0.5,1.5-0.5
				c0.8,0,1.5,0.3,2.1,0.9c0.6,0.6,0.8,1.3,0.8,2.2c0,0.8-0.2,1.5-0.7,2C804.1,354.1,803.4,354.4,802.7,354.5z"/>
			<path class="st6" d="M802.7,347.3l-0.1-1.2c0.6-0.1,1-0.3,1.3-0.6c0.3-0.3,0.4-0.7,0.4-1.2c0-0.5-0.2-1-0.6-1.4
				c-0.4-0.4-1-0.6-1.6-0.6c-0.6,0-1.2,0.2-1.5,0.5c-0.4,0.4-0.6,0.8-0.6,1.4c0,0.4,0.1,0.7,0.2,1c0.2,0.3,0.4,0.5,0.6,0.7l-0.1,1.1
				l-4.8-0.9v-4.6h1.1v3.7l2.5,0.5c-0.4-0.6-0.6-1.1-0.6-1.7c0-0.8,0.3-1.5,0.8-2c0.6-0.6,1.3-0.8,2.2-0.8c0.8,0,1.6,0.2,2.2,0.7
				c0.8,0.6,1.1,1.4,1.1,2.4c0,0.8-0.2,1.5-0.7,2.1S803.5,347.3,802.7,347.3z"/>
			<path class="st6" d="M807.8,334.1c-0.8,0.6-1.7,1.2-2.8,1.6c-1.1,0.4-2.2,0.7-3.3,0.7c-1,0-2-0.2-2.9-0.5c-1.1-0.4-2.1-1-3.2-1.8
				v-0.8c0.9,0.5,1.5,0.8,1.9,1c0.6,0.3,1.2,0.5,1.8,0.6c0.8,0.2,1.6,0.3,2.4,0.3c2,0,4-0.6,6.1-1.9V334.1z"/>
			<path class="st6" d="M805.1,328v1.1h-7.2c0.3,0.3,0.5,0.6,0.8,1.1c0.3,0.4,0.5,0.8,0.6,1.2h-1.1c-0.3-0.6-0.7-1.2-1.1-1.7
				c-0.4-0.5-0.8-0.8-1.2-1V328H805.1z"/>
			<path class="st6" d="M802.3,325.2h-1.1v-3.5h1.1V325.2z"/>
			<path class="st6" d="M802.7,320.7l-0.2-1.1c0.6-0.1,1.1-0.4,1.4-0.7c0.3-0.3,0.4-0.7,0.4-1.1c0-0.5-0.2-1-0.6-1.4
				c-0.4-0.4-0.8-0.6-1.4-0.6c-0.5,0-1,0.2-1.3,0.5c-0.3,0.3-0.5,0.8-0.5,1.3c0,0.2,0,0.5,0.1,0.8l-1-0.1c0-0.1,0-0.1,0-0.2
				c0-0.5-0.1-0.9-0.4-1.3c-0.3-0.4-0.6-0.6-1.2-0.6c-0.4,0-0.8,0.1-1,0.4c-0.3,0.3-0.4,0.6-0.4,1.1c0,0.4,0.1,0.8,0.4,1.1
				c0.3,0.3,0.7,0.5,1.3,0.6l-0.2,1.1c-0.8-0.1-1.4-0.5-1.8-0.9s-0.6-1.1-0.6-1.8c0-0.5,0.1-1,0.3-1.4s0.5-0.8,0.9-1
				c0.4-0.2,0.8-0.3,1.2-0.3c0.4,0,0.8,0.1,1.1,0.3c0.3,0.2,0.6,0.5,0.8,1c0.1-0.5,0.4-1,0.8-1.3c0.4-0.3,0.9-0.5,1.5-0.5
				c0.8,0,1.5,0.3,2.1,0.9c0.6,0.6,0.8,1.3,0.8,2.2c0,0.8-0.2,1.5-0.7,2C804.1,320.3,803.4,320.7,802.7,320.7z"/>
			<path class="st6" d="M802.7,313.5l-0.1-1.2c0.6-0.1,1-0.3,1.3-0.6c0.3-0.3,0.4-0.7,0.4-1.2c0-0.5-0.2-1-0.6-1.4
				c-0.4-0.4-1-0.6-1.6-0.6c-0.6,0-1.2,0.2-1.5,0.5c-0.4,0.4-0.6,0.8-0.6,1.4c0,0.4,0.1,0.7,0.2,1c0.2,0.3,0.4,0.5,0.6,0.7l-0.1,1.1
				l-4.8-0.9v-4.6h1.1v3.7l2.5,0.5c-0.4-0.6-0.6-1.1-0.6-1.7c0-0.8,0.3-1.5,0.8-2c0.6-0.6,1.3-0.8,2.2-0.8c0.8,0,1.6,0.2,2.2,0.7
				c0.8,0.6,1.1,1.4,1.1,2.4c0,0.8-0.2,1.5-0.7,2.1S803.5,313.5,802.7,313.5z"/>
			<path class="st6" d="M805.3,306.9l-9.6-2.7v-0.9l9.6,2.7V306.9z"/>
			<path class="st6" d="M805.1,298.5v1.1h-7.2c0.3,0.3,0.5,0.6,0.8,1.1c0.3,0.4,0.5,0.8,0.6,1.2h-1.1c-0.3-0.6-0.7-1.2-1.1-1.7
				c-0.4-0.5-0.8-0.8-1.2-1v-0.7H805.1z"/>
			<path class="st6" d="M804,289.6h1.1v6.1c-0.3,0-0.5,0-0.8-0.1c-0.4-0.2-0.8-0.4-1.2-0.7c-0.4-0.3-0.9-0.8-1.4-1.5
				c-0.8-1-1.5-1.7-2-2c-0.5-0.4-0.9-0.5-1.4-0.5c-0.5,0-0.8,0.2-1.1,0.5s-0.5,0.7-0.5,1.3c0,0.5,0.2,1,0.5,1.3
				c0.3,0.3,0.8,0.5,1.4,0.5l-0.1,1.2c-0.9-0.1-1.5-0.4-2-0.9c-0.5-0.5-0.7-1.2-0.7-2.1c0-0.9,0.2-1.6,0.7-2.1
				c0.5-0.5,1.1-0.8,1.8-0.8c0.4,0,0.7,0.1,1.1,0.2c0.4,0.2,0.7,0.4,1.1,0.8c0.4,0.4,0.9,0.9,1.6,1.8c0.6,0.7,1,1.1,1.2,1.3
				c0.2,0.2,0.4,0.4,0.6,0.5V289.6z"/>
			<path class="st6" d="M800.1,286.6c-0.2,0.5-0.4,0.8-0.7,1c-0.3,0.2-0.7,0.3-1.1,0.3c-0.7,0-1.2-0.2-1.7-0.7
				c-0.5-0.5-0.7-1.1-0.7-1.9c0-0.8,0.2-1.5,0.7-2c0.5-0.5,1-0.7,1.7-0.7c0.4,0,0.8,0.1,1.1,0.3c0.3,0.2,0.6,0.6,0.7,1
				c0.2-0.6,0.5-1,0.9-1.3c0.4-0.3,0.9-0.4,1.5-0.4c0.8,0,1.5,0.3,2,0.8s0.8,1.3,0.8,2.2c0,0.9-0.3,1.7-0.8,2.2s-1.2,0.8-2,0.8
				c-0.6,0-1.1-0.2-1.5-0.5C800.5,287.6,800.2,287.2,800.1,286.6z M798.1,286.8c0.4,0,0.8-0.1,1.1-0.4c0.3-0.3,0.4-0.6,0.4-1.1
				c0-0.4-0.1-0.8-0.4-1.1c-0.3-0.3-0.6-0.4-1-0.4c-0.4,0-0.8,0.1-1.1,0.4s-0.4,0.6-0.4,1.1c0,0.4,0.1,0.8,0.4,1.1
				C797.4,286.7,797.8,286.8,798.1,286.8z M802.4,287.2c0.3,0,0.6-0.1,0.9-0.2c0.3-0.2,0.5-0.4,0.7-0.7c0.2-0.3,0.2-0.6,0.2-1
				c0-0.5-0.2-1-0.5-1.3c-0.3-0.4-0.8-0.5-1.3-0.5c-0.5,0-1,0.2-1.4,0.5c-0.4,0.4-0.5,0.8-0.5,1.4c0,0.5,0.2,1,0.5,1.3
				S801.9,287.2,802.4,287.2z"/>
			<path class="st6" d="M799.1,278.7l-1.8,0.3h-1.5v-1.3h1.5l1.8,0.3V278.7z M799.1,280.8l-1.8,0.3h-1.5v-1.3h1.5l1.8,0.3V280.8z"/>
		</g>
		<g>
			<path class="st6" d="M807.8,275.4v0.8c-2-1.3-4-1.9-6.1-1.9c-0.8,0-1.6,0.1-2.4,0.3c-0.6,0.1-1.2,0.3-1.8,0.6
				c-0.4,0.2-1,0.5-1.9,1v-0.8c1.1-0.8,2.1-1.4,3.2-1.8c0.9-0.3,1.9-0.5,2.9-0.5c1.1,0,2.2,0.2,3.3,0.7
				C806.1,274.3,807,274.8,807.8,275.4z"/>
		</g>
		<g>
			<defs>
				<rect id="SVGID_41_" x="81.3" y="8.4" width="825.1" height="763.6"/>
			</defs>
			<clipPath id="SVGID_24_">
				<use xlink:href="#SVGID_41_"  style="overflow:visible;"/>
			</clipPath>
			<g class="st46">
				<path class="st6" d="M87.1,690.1h1.1v6.1c-0.3,0-0.5,0-0.8-0.1c-0.4-0.2-0.8-0.4-1.2-0.7c-0.4-0.3-0.9-0.8-1.4-1.5
					c-0.8-1-1.5-1.7-2-2c-0.5-0.4-0.9-0.5-1.4-0.5c-0.5,0-0.8,0.2-1.1,0.5s-0.5,0.7-0.5,1.3c0,0.5,0.2,1,0.5,1.3
					c0.3,0.3,0.8,0.5,1.4,0.5l-0.1,1.2c-0.9-0.1-1.5-0.4-2-0.9c-0.5-0.5-0.7-1.2-0.7-2.1c0-0.9,0.2-1.6,0.7-2.1
					c0.5-0.5,1.1-0.8,1.8-0.8c0.4,0,0.7,0.1,1.1,0.2c0.4,0.2,0.7,0.4,1.1,0.8c0.4,0.4,0.9,0.9,1.6,1.8c0.6,0.7,1,1.1,1.2,1.3
					c0.2,0.2,0.4,0.4,0.6,0.5V690.1z"/>
				<path class="st6" d="M88.2,684.6v1.1H81c0.3,0.3,0.5,0.6,0.8,1.1c0.3,0.4,0.5,0.8,0.6,1.2h-1.1c-0.3-0.6-0.7-1.2-1.1-1.7
					c-0.4-0.5-0.8-0.8-1.2-1v-0.7H88.2z"/>
			</g>
		</g>
		<g>
			<path class="st6" d="M88.2,681.1h-1.3v-1.3h1.3V681.1z"/>
		</g>
		<g>
			<defs>
				<rect id="SVGID_43_" x="81.3" y="8.4" width="825.1" height="763.6"/>
			</defs>
			<clipPath id="SVGID_26_">
				<use xlink:href="#SVGID_43_"  style="overflow:visible;"/>
			</clipPath>
			<g class="st47">
				<path class="st6" d="M88.2,674.5H86v4h-1l-6-4.2v-0.9h6v-1.3h1v1.3h2.2V674.5z M85,674.5h-4.2l4.2,2.9V674.5z"/>
				<path class="st6" d="M85.8,670.9l-0.2-1.1c0.6-0.1,1.1-0.4,1.4-0.7s0.4-0.7,0.4-1.1c0-0.5-0.2-1-0.6-1.4
					c-0.4-0.4-0.8-0.6-1.4-0.6c-0.5,0-1,0.2-1.3,0.5s-0.5,0.8-0.5,1.3c0,0.2,0,0.5,0.1,0.8l-1-0.1c0-0.1,0-0.1,0-0.2
					c0-0.5-0.1-0.9-0.4-1.3c-0.3-0.4-0.6-0.6-1.2-0.6c-0.4,0-0.8,0.1-1,0.4s-0.4,0.6-0.4,1.1c0,0.4,0.1,0.8,0.4,1.1
					c0.3,0.3,0.7,0.5,1.3,0.6l-0.2,1.1c-0.8-0.1-1.4-0.5-1.8-0.9c-0.4-0.5-0.6-1.1-0.6-1.8c0-0.5,0.1-1,0.3-1.4
					c0.2-0.4,0.5-0.8,0.9-1c0.4-0.2,0.8-0.3,1.2-0.3c0.4,0,0.8,0.1,1.1,0.3c0.3,0.2,0.6,0.5,0.8,1c0.1-0.5,0.4-1,0.8-1.3
					c0.4-0.3,0.9-0.5,1.5-0.5c0.8,0,1.5,0.3,2.1,0.9c0.6,0.6,0.8,1.3,0.8,2.2c0,0.8-0.2,1.5-0.7,2C87.2,670.5,86.6,670.8,85.8,670.9
					z"/>
			</g>
		</g>
		<g>
			<defs>
				<rect id="SVGID_45_" x="81.3" y="8.4" width="825.1" height="763.6"/>
			</defs>
			<clipPath id="SVGID_28_">
				<use xlink:href="#SVGID_45_"  style="overflow:visible;"/>
			</clipPath>
			<g class="st48">
				<path class="st6" d="M90.9,657.6c-0.8,0.6-1.7,1.2-2.8,1.6c-1.1,0.4-2.2,0.7-3.3,0.7c-1,0-2-0.2-2.9-0.5c-1.1-0.4-2.1-1-3.2-1.8
					v-0.8c0.9,0.5,1.5,0.8,1.9,1c0.6,0.3,1.2,0.5,1.8,0.6c0.8,0.2,1.6,0.3,2.4,0.3c2,0,4-0.6,6.1-1.9V657.6z"/>
				<path class="st6" d="M87.1,649.8h1.1v6.1c-0.3,0-0.5,0-0.8-0.1c-0.4-0.2-0.8-0.4-1.2-0.7c-0.4-0.3-0.9-0.8-1.4-1.5
					c-0.8-1-1.5-1.7-2-2c-0.5-0.4-0.9-0.5-1.4-0.5c-0.5,0-0.8,0.2-1.1,0.5s-0.5,0.7-0.5,1.3c0,0.5,0.2,1,0.5,1.3
					c0.3,0.3,0.8,0.5,1.4,0.5l-0.1,1.2c-0.9-0.1-1.5-0.4-2-0.9c-0.5-0.5-0.7-1.2-0.7-2.1c0-0.9,0.2-1.6,0.7-2.1
					c0.5-0.5,1.1-0.8,1.8-0.8c0.4,0,0.7,0.1,1.1,0.2c0.4,0.2,0.7,0.4,1.1,0.8c0.4,0.4,0.9,0.9,1.6,1.8c0.6,0.7,1,1.1,1.2,1.3
					c0.2,0.2,0.4,0.4,0.6,0.5V649.8z"/>
				<path class="st6" d="M80.2,648.5h-1.1v-6H80c0.6,0.6,1.5,1.2,2.5,1.8c1,0.6,2.1,1,3.2,1.3c0.8,0.2,1.6,0.4,2.5,0.4v1.2
					c-0.7,0-1.6-0.2-2.6-0.4c-1-0.3-2-0.7-3-1.2s-1.8-1.1-2.4-1.6V648.5z"/>
				<path class="st6" d="M88.4,642l-9.6-2.7v-0.9l9.6,2.7V642z"/>
				<path class="st6" d="M85.8,637.8l-0.2-1.1c0.6-0.1,1.1-0.4,1.4-0.7s0.4-0.7,0.4-1.1c0-0.5-0.2-1-0.6-1.4
					c-0.4-0.4-0.8-0.6-1.4-0.6c-0.5,0-1,0.2-1.3,0.5s-0.5,0.8-0.5,1.3c0,0.2,0,0.5,0.1,0.8l-1-0.1c0-0.1,0-0.1,0-0.2
					c0-0.5-0.1-0.9-0.4-1.3c-0.3-0.4-0.6-0.6-1.2-0.6c-0.4,0-0.8,0.1-1,0.4s-0.4,0.6-0.4,1.1c0,0.4,0.1,0.8,0.4,1.1
					c0.3,0.3,0.7,0.5,1.3,0.6l-0.2,1.1c-0.8-0.1-1.4-0.5-1.8-0.9c-0.4-0.5-0.6-1.1-0.6-1.8c0-0.5,0.1-1,0.3-1.4
					c0.2-0.4,0.5-0.8,0.9-1c0.4-0.2,0.8-0.3,1.2-0.3c0.4,0,0.8,0.1,1.1,0.3c0.3,0.2,0.6,0.5,0.8,1c0.1-0.5,0.4-1,0.8-1.3
					c0.4-0.3,0.9-0.5,1.5-0.5c0.8,0,1.5,0.3,2.1,0.9c0.6,0.6,0.8,1.3,0.8,2.2c0,0.8-0.2,1.5-0.7,2C87.2,637.4,86.6,637.7,85.8,637.8
					z"/>
				<path class="st6" d="M87.1,624.7h1.1v6.1c-0.3,0-0.5,0-0.8-0.1c-0.4-0.2-0.8-0.4-1.2-0.7c-0.4-0.3-0.9-0.8-1.4-1.5
					c-0.8-1-1.5-1.7-2-2c-0.5-0.4-0.9-0.5-1.4-0.5c-0.5,0-0.8,0.2-1.1,0.5s-0.5,0.7-0.5,1.3c0,0.5,0.2,1,0.5,1.3
					c0.3,0.3,0.8,0.5,1.4,0.5l-0.1,1.2c-0.9-0.1-1.5-0.4-2-0.9c-0.5-0.5-0.7-1.2-0.7-2.1c0-0.9,0.2-1.6,0.7-2.1
					c0.5-0.5,1.1-0.8,1.8-0.8c0.4,0,0.7,0.1,1.1,0.2c0.4,0.2,0.7,0.4,1.1,0.8c0.4,0.4,0.9,0.9,1.6,1.8c0.6,0.7,1,1.1,1.2,1.3
					c0.2,0.2,0.4,0.4,0.6,0.5V624.7z"/>
				<path class="st6" d="M82.2,621l-1.8,0.3H79V620h1.5l1.8,0.3V621z M82.2,623.1l-1.8,0.3H79v-1.3h1.5l1.8,0.3V623.1z"/>
			</g>
			<g class="st48">
				<path class="st6" d="M90.9,617.7v0.8c-2-1.3-4-1.9-6.1-1.9c-0.8,0-1.6,0.1-2.4,0.3c-0.6,0.1-1.2,0.3-1.8,0.6
					c-0.4,0.2-1,0.5-1.9,1v-0.8c1.1-0.8,2.1-1.4,3.2-1.8c0.9-0.3,1.9-0.5,2.9-0.5c1.1,0,2.2,0.2,3.3,0.7
					C89.2,616.6,90.2,617.1,90.9,617.7z"/>
			</g>
		</g>
	</g>
</g>
<g id="Watermark">
	<g>
		<rect x="438.5" y="642.8" class="st1" width="123.1" height="46.3"/>
		<g>
			<rect x="444.9" y="650.7" class="st75" width="62.9" height="30.6"/>
			<rect x="507.7" y="650.7" class="st75" width="47.4" height="30.6"/>
			<g>
				<path class="st76" d="M466.5,656.8l-2.8,18.9H461l-1.6-11l-1.5,11h-2.7l-2.8-18.9h2.5l1.8,14.2l1.8-14.2h2l1.8,14.2l1.8-14.2
					H466.5z"/>
				<path class="st76" d="M467.9,675.7v-18.9h2.5v18.9H467.9z"/>
				<path class="st76" d="M472.8,656.8h5c1.9,0,2.9,1.1,2.9,3.2v4.7c0,1.7-0.5,2.7-1.5,3.1l1.8,7.9h-2.4l-1.7-7.6h-1.5v7.6h-2.5
					V656.8z M475.4,665.9h1.7c0.8,0,1.1-0.5,1.1-1.4v-4.1c0-0.9-0.4-1.4-1.1-1.4h-1.7V665.9z"/>
				<path class="st76" d="M486.8,659.1v16.6h-2.5v-16.6h-2.4v-2.3h7.4v2.3H486.8z"/>
				<path class="st76" d="M496.3,675.7v-8.6h-3.1v8.6h-2.5v-18.9h2.5v8h3.1v-8h2.5v18.9H496.3z"/>
			</g>
			<g>
				<path class="st76" d="M516.3,656.8h5c1.9,0,2.9,1.1,2.9,3.2v4.7c0,1.7-0.5,2.7-1.5,3.1l1.8,7.9H522l-1.7-7.6h-1.5v7.6h-2.5
					V656.8z M518.8,665.9h1.7c0.8,0,1.1-0.5,1.1-1.4v-4.1c0-0.9-0.4-1.4-1.1-1.4h-1.7V665.9z"/>
				<path class="st76" d="M528.7,675.7h-2.5V660c0-2.2,1-3.2,3-3.2h1.9c2,0,3,1.1,3,3.2v15.7h-2.5v-6.9h-2.9V675.7z M531.6,666.5
					v-6.3c0-0.7-0.4-1.1-1.1-1.1h-0.7c-0.7,0-1.1,0.4-1.1,1.1v6.3H531.6z"/>
				<path class="st76" d="M536.3,675.7v-18.9h2.5v18.9H536.3z"/>
				<path class="st76" d="M547.2,675.7h-6v-18.9h2.5v16.6h3.5V675.7z"/>
			</g>
		</g>
	</g>
</g>
</svg>
