<svg id="Layer_1" data-name="Layer 1" xmlns="http://www.w3.org/2000/svg" viewBox="0 0 300 300"><defs><style>.cls-1{fill:#f0f0f0;}.cls-2{fill:#303030;}.cls-3{fill:none;stroke:#616161;stroke-miterlimit:10;stroke-width:0.32px;}.cls-4{fill:#616262;}</style></defs><path class="cls-1" d="M150,299A149,149,0,1,0,1,150,149,149,0,0,0,150,299"/><path class="cls-2" d="M26.28,159.06H20.85V132.65h5.43v11.17h10V132.65h5.43v26.41H36.3V148.25h-10Z"/><line class="cls-3" x1="52.82" y1="104.7" x2="52.82" y2="186.19"/><line class="cls-3" x1="48.36" y1="104.7" x2="57.27" y2="104.7"/><line class="cls-3" x1="48.36" y1="186.19" x2="57.27" y2="186.19"/><path class="cls-4" d="M61.9,187a3.53,3.53,0,0,1-1.73-3,49.64,49.64,0,0,1,.14-5.17,4.38,4.38,0,0,1,1.37-1.89,16.21,16.21,0,0,1,3.9-1.09c2.12-.44,7.53-1.66,9.68-3.22a11.26,11.26,0,0,0,4-4.62c.67-1.77,1-2,1.18-5.9s1.53-45.76,1.53-45.76l.22-6.55s.28-4.5,4.56-5.35a106,106,0,0,1,13.54-1.12c.92,0,13.62-.19,18.65,0a114.27,114.27,0,0,1,14.32,1.2c4.37.71,7.88,1.21,11.75,5.47s3.95,9.88,4.66,14.3,2.46,15.14,2.46,15.14.09,11.59,7.36,16.18,19.32,2.68,22.76,1.35c1-.39,6.23-3.37,7.71-7.87a50.53,50.53,0,0,0,1.94-9.07l4.81-29s1.13-5.08,5.72-5.41,12-.08,12-.08a3.35,3.35,0,0,1,3.65,3.6c.14,3.94.45,13.08.45,13.08l1.39,40.41s.12,5.21,2.72,7.78,3.79,3.7,6.92,4.23,8.74,1.84,8.74,1.84,1.63.68,1.63,3.35,0,4.61,0,4.61-.43,3.07-3,3.07h-173A3.39,3.39,0,0,1,61.9,187"/><path class="cls-2" d="M144.89,71.45,143.31,76h-5.75l9.11-26.42h6.78l9,26.42h-5.94L155,71.45ZM150,56.09,146.28,67h7.32Z"/><path class="cls-2" d="M150,219.59c3.24,0,5.34.48,6.73,1.5a6.84,6.84,0,0,1,2.53,5.59,6.34,6.34,0,0,1-1.66,4.51,6,6,0,0,1-2.77,1.59,5.9,5.9,0,0,1,3.13,1.42,6.15,6.15,0,0,1,1.9,4.75,6.87,6.87,0,0,1-2.73,5.78c-1.39.91-3,1.27-5.9,1.27h-9.75V219.59Zm-3.09,11.21h2.18c3.2,0,4.71-1.16,4.71-3.61a3.24,3.24,0,0,0-1.58-3,8.47,8.47,0,0,0-3.41-.51h-1.9Zm0,11.2h2.65c1.87,0,2.73-.16,3.52-.71a3.16,3.16,0,0,0,1.31-2.81,3.22,3.22,0,0,0-1.5-3c-.83-.48-1.66-.64-3.64-.64h-2.34Z"/><line class="cls-3" x1="218.49" y1="90.58" x2="81.51" y2="90.58"/><line class="cls-3" x1="218.49" y1="86.12" x2="218.49" y2="95.03"/><line class="cls-3" x1="81.51" y1="86.12" x2="81.51" y2="95.03"/><line class="cls-3" x1="238.84" y1="202.36" x2="61.15" y2="202.36"/><line class="cls-3" x1="238.84" y1="197.9" x2="238.84" y2="206.81"/><line class="cls-3" x1="61.16" y1="197.9" x2="61.16" y2="206.81"/></svg>