<?xml version="1.0" encoding="utf-8"?>
<!-- Generator: Adobe Illustrator 25.2.3, SVG Export Plug-In . SVG Version: 6.00 Build 0)  -->
<svg version="1.1" xmlns="http://www.w3.org/2000/svg" xmlns:xlink="http://www.w3.org/1999/xlink" x="0px" y="0px"
	 viewBox="0 0 1000 800" style="enable-background:new 0 0 1000 800;" xml:space="preserve">
<style type="text/css">
	.st0{fill:#F0F0F0;}
	.st1{fill:none;stroke:#221E1F;stroke-width:1.2032;}
	.st2{fill:none;stroke:#221E1F;stroke-width:1.0736;}
	.st3{fill:none;stroke:#221E1F;stroke-width:1.2032;stroke-miterlimit:10;}
	.st4{fill:none;stroke:#221E1F;stroke-width:1.0736;stroke-linecap:round;stroke-linejoin:round;stroke-miterlimit:10;}
	.st5{fill:none;stroke:#221E1F;stroke-width:1.0736;stroke-miterlimit:10;}
	.st6{fill:#303030;}
	.st7{fill:none;stroke:#221E1F;stroke-width:1.2032;stroke-linecap:round;stroke-linejoin:round;}
	.st8{fill:#221E1F;}
	.st9{fill:none;stroke:#221E1F;stroke-width:1.2032;stroke-dasharray:15.0983,4.5412;}
	.st10{fill:none;stroke:#221E1F;stroke-width:1.327;}
	.st11{fill:none;stroke:#221E1F;stroke-width:1.327;stroke-miterlimit:10;}
	.st12{fill:none;stroke:#221E1F;stroke-width:1.5312;stroke-miterlimit:10;}
	.st13{fill:none;stroke:#221E1F;stroke-width:1.327;stroke-linecap:round;stroke-linejoin:round;}
	.st14{fill:none;stroke:#221E1F;stroke-width:1.327;stroke-dasharray:16.5574,4.9134;}
	.st15{fill:none;stroke:#221E1F;stroke-width:1.1875;stroke-linecap:round;stroke-linejoin:round;}
	.st16{fill:none;stroke:#221E1F;stroke-width:1.1875;stroke-miterlimit:10;}
	.st17{fill:none;stroke:#221E1F;stroke-width:1.0882;}
	.st18{fill:none;stroke:#221E1F;stroke-width:1.0882;stroke-miterlimit:10;}
	.st19{fill:none;stroke:#221E1F;stroke-width:1.01;stroke-linecap:round;stroke-linejoin:round;stroke-miterlimit:10;}
	.st20{fill:none;stroke:#221E1F;stroke-width:1.0268;stroke-linecap:round;stroke-linejoin:round;stroke-miterlimit:10;}
	.st21{fill:none;stroke:#221E1F;stroke-width:1.0268;}
	.st22{fill:none;stroke:#221E1F;stroke-width:1.0882;stroke-linecap:round;stroke-linejoin:round;stroke-miterlimit:10;}
	.st23{fill:none;stroke:#221E1F;stroke-width:1.0882;stroke-linecap:round;stroke-linejoin:round;}
	.st24{fill:none;stroke:#221E1F;stroke-width:1.0882;stroke-dasharray:13.6188,4.0709;}
	.st25{fill:none;stroke:#303030;stroke-width:1.0882;stroke-miterlimit:10;}
	.st26{fill:none;stroke:#303030;stroke-width:0.9459;stroke-miterlimit:10;}
	.st27{fill:none;stroke:#303030;stroke-width:0.625;stroke-miterlimit:10;}
	.st28{fill:none;stroke:#221E1F;stroke-width:1.2065;}
	.st29{fill:none;stroke:#221E1F;stroke-width:1.058;stroke-miterlimit:10;}
	.st30{fill:none;stroke:#221E1F;stroke-width:1.2065;stroke-miterlimit:10;}
	.st31{fill:none;stroke:#221E1F;stroke-width:1.2065;stroke-dasharray:15.1403,4.5538;}
	.st32{fill:none;stroke:#221E1F;stroke-width:1.2065;stroke-linecap:round;stroke-linejoin:round;}
	.st33{fill:none;stroke:#221E1F;stroke-width:1.0363;}
	.st34{fill:none;stroke:#221E1F;stroke-width:1.0363;stroke-miterlimit:10;}
	.st35{fill:none;stroke:#221E1F;stroke-width:1.0536;stroke-linecap:round;stroke-linejoin:round;stroke-miterlimit:10;}
	.st36{fill:none;stroke:#221E1F;stroke-width:1.0536;stroke-miterlimit:10;}
	.st37{fill:none;stroke:#221E1F;stroke-width:1.0363;stroke-linecap:round;stroke-linejoin:round;}
	.st38{fill:none;stroke:#221E1F;stroke-width:1.0363;stroke-dasharray:14.1142,4.2633;}
	.st39{fill:none;stroke:#221E1F;stroke-width:1.0394;}
	.st40{fill:none;stroke:#221E1F;stroke-width:1.1318;stroke-linecap:round;stroke-linejoin:round;stroke-miterlimit:10;}
	.st41{fill:none;stroke:#221E1F;stroke-width:1.0394;stroke-miterlimit:10;}
	.st42{fill:none;stroke:#221E1F;stroke-width:1.1318;stroke-miterlimit:10;}
	.st43{fill:none;stroke:#221E1F;stroke-width:1.0394;stroke-dasharray:14.096,4.2184;}
	.st44{fill:none;stroke:#221E1F;stroke-width:0.9644;stroke-linecap:round;stroke-linejoin:round;}
	.st45{fill:none;stroke:#221E1F;stroke-width:1.0394;stroke-linecap:round;stroke-linejoin:round;}
	.st46{fill:none;stroke:#221E1F;stroke-width:1.0394;stroke-dasharray:28.8705,8.4195;}
	.st47{fill:none;stroke:#221E1F;stroke-width:1.0394;stroke-dasharray:30.1958,9.7419;}
	.st48{fill:none;stroke:#221E1F;stroke-width:1.1834;}
	.st49{fill:none;stroke:#221E1F;stroke-width:1.1834;stroke-dasharray:22.2172,9.0331;}
	.st50{fill:none;stroke:#221E1F;stroke-width:1.1834;stroke-dasharray:22.205,9.024;}
	.st51{fill:none;stroke:#221E1F;stroke-width:1.1834;stroke-dasharray:22.2172,9.0362;}
	.st52{fill:none;stroke:#221E1F;stroke-width:1.1834;stroke-dasharray:22.205,9.021;}
	.st53{fill:none;stroke:#221E1F;stroke-width:1.1834;stroke-dasharray:14.8529,4.4695;}
	.st54{fill:none;stroke:#221E1F;stroke-width:1.1834;stroke-linecap:round;stroke-linejoin:round;}
	.st55{fill:none;stroke:#221E1F;stroke-width:0.9791;}
	.st56{fill:none;stroke:#221E1F;stroke-width:1.2076;}
	.st57{fill:none;stroke:#221E1F;stroke-width:1.2076;stroke-dasharray:17.3391,6.3726;}
	.st58{fill:none;stroke:#221E1F;stroke-width:1.2076;stroke-dasharray:17.3363,6.3726;}
	.st59{fill:none;stroke:#221E1F;stroke-width:0.9791;stroke-dasharray:17.5349,5.1568;}
	.st60{fill:none;stroke:#303030;stroke-width:0.9791;}
	.st61{fill:none;stroke:#221E1F;stroke-width:0.8976;stroke-linecap:round;stroke-linejoin:round;}
	.st62{fill:none;stroke:#241F21;stroke-width:0.9771;}
	
		.st63{fill:none;stroke:#241F21;stroke-width:0.9771;stroke-linecap:round;stroke-linejoin:round;stroke-miterlimit:1;stroke-dasharray:16.5466,16.5466;}
	
		.st64{fill:none;stroke:#241F21;stroke-width:0.9771;stroke-linecap:round;stroke-linejoin:round;stroke-miterlimit:1;stroke-dasharray:17.1257,17.1257;}
	
		.st65{fill:none;stroke:#241F21;stroke-width:0.9771;stroke-linecap:round;stroke-linejoin:round;stroke-miterlimit:1;stroke-dasharray:16.5967,16.5967;}
	.st66{fill:none;stroke:#241F21;stroke-width:0.9771;stroke-linecap:round;stroke-linejoin:round;stroke-miterlimit:1;}
	.st67{fill:#241F21;}
	.st68{fill:none;stroke:#241F21;stroke-width:0.7626;stroke-linecap:round;stroke-linejoin:round;stroke-miterlimit:1;}
	.st69{fill:none;stroke:#221E1F;stroke-width:1.2516;}
	.st70{fill:none;stroke:#221E1F;stroke-width:1.2516;stroke-miterlimit:10;}
	.st71{fill:none;stroke:#221E1F;stroke-width:0.6258;}
	.st72{fill:none;stroke:#221E1F;stroke-width:0.6258;stroke-dasharray:18.3883,4.6234;}
	.st73{fill:none;stroke:#221E1F;stroke-width:0.6258;stroke-dasharray:21.5524,17.6199;}
	.st74{fill:none;stroke:#221E1F;stroke-width:0.6258;stroke-dasharray:20.1706,6.4056;}
	.st75{fill:none;stroke:#221E1F;stroke-width:0.9654;}
	.st76{fill:none;stroke:#303030;stroke-width:0.9654;}
	.st77{fill:none;stroke:#303030;stroke-width:0.9017;}
	.st78{fill:none;stroke:#303030;stroke-width:0.9654;stroke-dasharray:14.0607,4.2416;}
	.st79{fill:none;stroke:#303030;stroke-width:0.9654;stroke-dasharray:13.938,4.1189;}
	.st80{fill:none;stroke:#303030;stroke-width:0.9654;stroke-dasharray:14.3912,4.5697;}
	.st81{fill:none;stroke:#303030;stroke-width:0.9654;stroke-dasharray:14.7358,4.9143;}
	.st82{fill:none;stroke:#221E1F;stroke-width:0.9654;stroke-dasharray:15.4321,4.6901;}
	.st83{fill:none;stroke:#221E1F;stroke-width:0.9654;stroke-linecap:round;stroke-linejoin:round;}
	.st84{fill:none;stroke:#303030;stroke-width:0.8686;stroke-miterlimit:10;}
	.st85{fill:none;stroke:#303030;stroke-width:0.9654;stroke-miterlimit:10;}
	.st86{fill:none;stroke:#221E1F;stroke-width:2.6151;}
	.st87{fill:none;stroke:#221E1F;stroke-width:1.816;}
	.st88{fill:none;stroke:#221E1F;stroke-width:1.816;stroke-dasharray:21.5996,5.873;}
	.st89{fill:none;stroke:#221E1F;stroke-width:1.816;stroke-dasharray:21.596,5.8693;}
	.st90{fill:none;stroke:#221E1F;stroke-width:1.816;stroke-dasharray:45.6036,34.3698;}
	.st91{fill:none;stroke:#221E1F;stroke-width:1.816;stroke-dasharray:45.5927,34.3589;}
	.st92{fill:none;stroke:#221E1F;stroke-width:1.816;stroke-dasharray:21.596,5.873;}
	.st93{fill:none;stroke:#221E1F;stroke-width:2.158;}
	.st94{fill:none;stroke:#221E1F;stroke-width:1.4986;}
	.st95{fill:none;stroke:#221E1F;stroke-width:1.4986;stroke-dasharray:19.9046,5.413;}
	.st96{fill:none;stroke:#221E1F;stroke-width:1.4986;stroke-dasharray:19.9016,5.41;}
	.st97{fill:none;stroke:#221E1F;stroke-width:1.4986;stroke-dasharray:35.6909,25.3385;}
	.st98{fill:none;stroke:#221E1F;stroke-width:0.8673;}
	.st99{fill:none;stroke:#303030;stroke-width:0.9125;stroke-miterlimit:10;}
	.st100{fill:none;stroke:#303030;stroke-width:8.808669e-02;stroke-linecap:round;stroke-linejoin:round;stroke-miterlimit:10;}
	.st101{fill:none;stroke:#303030;stroke-width:0.8786;stroke-miterlimit:10;}
	.st102{fill:none;stroke:#303030;stroke-width:0.8786;}
	.st103{fill:none;stroke:#221E1F;stroke-width:0.9125;}
	.st104{fill:none;stroke:#221E1F;stroke-width:0.9125;stroke-dasharray:15.7291,4.7273;}
	.st105{fill:none;stroke:#221E1F;stroke-width:0.9125;stroke-linecap:round;stroke-linejoin:round;}
	.st106{fill:#F0F0F0;stroke:#CCCCCC;stroke-miterlimit:10;}
	.st107{fill:#CCCCCC;}
</style>
<g id="Flat">
	<g>
		<g>
			<path class="st0" d="M501,89.6C426.1,91,398.7,95.2,382.7,98c-23.4,4.1-45.4,32.3-44.9,60.3c0.7,35.8-0.4,82.3,0,92.6
				c0.3,6.5,12.1,12.8,16.9,14.3c0,0,72.4,17.2,81.6,20.4c36.2,12.6,30.8,27.2,30.5,114.2c-0.1,45.2,0.3,55,0,161
				c-0.1,26.4-25.2,42.3-34.8,44.9C385.5,618,231.8,656,223.1,657.1c0,0-12.5,1.1-12.6,13.3c-0.1,22.2-0.3,36-0.3,36H501h0.4h290.7
				c0,0-0.1-13.9-0.3-36c-0.1-12.1-12.6-13.3-12.6-13.3C770.7,656,617,618,570.5,605.7c-9.5-2.5-34.7-18.5-34.8-44.9
				c-0.3-106,0.2-115.8,0-161c-0.3-87-5.7-101.5,30.5-114.2c9.2-3.2,81.6-20.4,81.6-20.4c4.8-1.5,16.6-7.9,16.9-14.3
				c0.4-10.2-0.7-56.8,0-92.6c0.6-28-21.4-56.2-44.9-60.3c-16-2.8-43.5-7-118.4-8.4H501z"/>
			<path class="st86" d="M501,89.6C426.1,91,398.7,95.2,382.7,98c-23.4,4.1-45.4,32.3-44.9,60.3c0.7,35.8-0.4,82.3,0,92.6
				c0.3,6.5,12.1,12.8,16.9,14.3c0,0,72.4,17.2,81.6,20.4c36.2,12.6,30.8,27.2,30.5,114.2c-0.1,45.2,0.3,55,0,161
				c-0.1,26.4-25.2,42.3-34.8,44.9C385.5,618,231.8,656,223.1,657.1c0,0-12.5,1.1-12.6,13.3c-0.1,22.2-0.3,36-0.3,36H501h0.4h290.7
				c0,0-0.1-13.9-0.3-36c-0.1-12.1-12.6-13.3-12.6-13.3C770.7,656,617,618,570.5,605.7c-9.5-2.5-34.7-18.5-34.8-44.9
				c-0.3-106,0.2-115.8,0-161c-0.3-87-5.7-101.5,30.5-114.2c9.2-3.2,81.6-20.4,81.6-20.4c4.8-1.5,16.6-7.9,16.9-14.3
				c0.4-10.2-0.7-56.8,0-92.6c0.6-28-21.4-56.2-44.9-60.3c-16-2.8-43.5-7-118.4-8.4H501z"/>
		</g>
		<path class="st87" d="M237.4,781.7h526.8 M663.3,27.2v122.6 M336.8,27.2v122.6"/>
		<polygon class="st8" points="242.8,789.3 213.3,781.4 242.8,773.5 		"/>
		<polygon class="st8" points="758.8,789.3 788.3,781.4 758.8,773.5 		"/>
		<line class="st87" x1="490.5" y1="474.8" x2="510" y2="474.8"/>
		<polygon class="st8" points="495.9,482.4 466.3,474.4 495.9,466.5 		"/>
		<polygon class="st8" points="504.6,482.4 534.1,474.4 504.6,466.5 		"/>
		<line class="st87" x1="362.2" y1="52.2" x2="635.4" y2="52.2"/>
		<polygon class="st8" points="367.6,59.8 338.1,51.9 367.6,44 		"/>
		<polygon class="st8" points="630,59.8 659.5,51.9 630,44 		"/>
		<line class="st87" x1="373.1" y1="133.8" x2="437.5" y2="201.3"/>
		<polygon class="st8" points="371.4,142.9 356.7,116.1 382.8,132 		"/>
		<polyline class="st87" points="434,315.9 381,361.3 291.5,361.3 		"/>
		<polygon class="st8" points="424.9,313.6 452.5,300.4 435.3,325.6 		"/>
		<polyline class="st87" points="431.7,570.9 378.7,525.4 289.3,525.4 		"/>
		<polygon class="st8" points="432.6,561.6 449.8,586.8 422.3,573.6 		"/>
		<polyline class="st87" points="189.7,643 136.7,597.5 47.3,597.5 		"/>
		<polygon class="st8" points="190.6,633.7 207.8,658.9 180.3,645.7 		"/>
		<polyline class="st87" points="318.4,275.9 292,298.6 202.6,298.6 		"/>
		<polygon class="st8" points="309.3,273.7 336.9,260.4 319.6,285.7 		"/>
		<polyline class="st87" points="447,115.4 451.9,177.9 560.9,177.9 		"/>
		<polygon class="st8" points="439.8,121.4 445.4,91.3 455.6,120.1 		"/>
		<line class="st87" x1="885.6" y1="275.4" x2="885.6" y2="115.4"/>
		<polygon class="st8" points="893.1,270 885.2,299.6 877.3,270 		"/>
		<polygon class="st8" points="893.1,120.8 885.2,91.2 877.3,120.8 		"/>
		<line class="st87" x1="191" y1="379.3" x2="191" y2="115.4"/>
		<polygon class="st8" points="198.6,373.9 190.7,403.5 182.7,373.9 		"/>
		<polygon class="st8" points="198.6,120.8 190.7,91.2 182.7,120.8 		"/>
		<line class="st87" x1="774.4" y1="235.3" x2="774.4" y2="112.5"/>
		<polygon class="st8" points="781.9,229.9 774,259.4 766.1,229.9 		"/>
		<polygon class="st8" points="781.9,117.9 774,88.4 766.1,117.9 		"/>
		<line class="st87" x1="906.3" y1="682.1" x2="906.3" y2="614.8"/>
		<polygon class="st8" points="913.9,676.7 906,706.2 898.1,676.7 		"/>
		<polygon class="st8" points="913.9,620.2 906,590.6 898.1,620.2 		"/>
		<line class="st87" x1="846.4" y1="633.2" x2="846.4" y2="604"/>
		<polygon class="st8" points="854,627.8 846.1,657.4 838.2,627.8 		"/>
		<line class="st87" x1="846.4" y1="732.6" x2="846.4" y2="779.5"/>
		<polygon class="st8" points="838.8,738 846.7,708.4 854.7,738 		"/>
		<line class="st87" x1="963.6" y1="682.5" x2="963.6" y2="114.1"/>
		<polygon class="st8" points="971.2,677.1 963.3,706.6 955.4,677.1 		"/>
		<polygon class="st8" points="971.2,119.4 963.3,89.9 955.4,119.4 		"/>
		<line class="st88" x1="553.7" y1="286.3" x2="506" y2="298.1"/>
		<line class="st89" x1="446" y1="286.3" x2="493.6" y2="298.1"/>
		<path class="st87" d="M846.4,663.9v41 M789.5,711.8v75.7 M209.9,711.8v75.7 M796.5,707.1H974 M506.2,301.1h401 M794.9,661.1H855
			 M505.9,589h407.2 M535.6,474.6h161.5 M660.5,259.4H791 M198.4,407.1h192.6 M403.4,407.1h192.6 M197.9,88.4h777.8"/>
		<line class="st90" x1="500" y1="205.2" x2="500" y2="410.8"/>
		<line class="st87" x1="500" y1="60.2" x2="500" y2="635.2"/>
		<line class="st91" x1="500" y1="313.6" x2="500" y2="519.1"/>
		<line class="st87" x1="500" y1="442.6" x2="500" y2="743.6"/>
		<line class="st89" x1="552.9" y1="600.9" x2="505.3" y2="589.1"/>
		<line class="st92" x1="445.3" y1="600.9" x2="492.9" y2="589.1"/>
		<g>
			<path class="st8" d="M461.8,38.1v-5h-9v-2.3l9.5-13.5h2.1v13.5h2.8v2.3h-2.8v5H461.8z M461.8,30.8v-9.4l-6.5,9.4H461.8z"/>
			<path class="st8" d="M483.2,35.6v2.5h-13.7c0-0.6,0.1-1.2,0.3-1.8c0.3-0.9,0.9-1.9,1.7-2.8c0.8-0.9,1.9-2,3.3-3.1
				c2.3-1.9,3.8-3.3,4.6-4.4c0.8-1.1,1.2-2.1,1.2-3.1c0-1-0.4-1.9-1.1-2.6c-0.7-0.7-1.7-1-2.8-1c-1.2,0-2.2,0.4-3,1.1
				c-0.7,0.7-1.1,1.8-1.1,3.1l-2.6-0.3c0.2-2,0.9-3.4,2-4.5s2.7-1.5,4.7-1.5c2,0,3.6,0.6,4.7,1.7c1.2,1.1,1.7,2.5,1.7,4.1
				c0,0.8-0.2,1.7-0.5,2.5c-0.3,0.8-0.9,1.7-1.7,2.5s-2.1,2.1-3.9,3.7c-1.5,1.3-2.5,2.2-3,2.6c-0.4,0.5-0.8,0.9-1.1,1.4H483.2z"/>
			<path class="st8" d="M487.4,38.1v-2.9h2.9v2.9H487.4z"/>
			<path class="st8" d="M497.9,26.8c-1.1-0.4-1.8-0.9-2.4-1.7c-0.5-0.7-0.8-1.6-0.8-2.6c0-1.5,0.5-2.8,1.6-3.8
				c1.1-1,2.5-1.5,4.3-1.5c1.8,0,3.3,0.5,4.4,1.6c1.1,1.1,1.7,2.3,1.7,3.9c0,1-0.3,1.8-0.8,2.5c-0.5,0.7-1.3,1.3-2.3,1.7
				c1.3,0.4,2.2,1.1,2.9,2c0.7,0.9,1,2,1,3.3c0,1.8-0.6,3.3-1.9,4.5c-1.3,1.2-2.9,1.8-5,1.8c-2.1,0-3.7-0.6-5-1.8s-1.9-2.7-1.9-4.5
				c0-1.4,0.3-2.5,1-3.4C495.7,27.8,496.7,27.2,497.9,26.8z M496.6,32.1c0,0.7,0.2,1.4,0.5,2.1c0.3,0.7,0.9,1.2,1.5,1.6
				c0.7,0.4,1.4,0.6,2.2,0.6c1.2,0,2.2-0.4,3-1.2c0.8-0.8,1.2-1.8,1.2-3c0-1.2-0.4-2.2-1.2-3.1c-0.8-0.8-1.8-1.2-3.1-1.2
				c-1.2,0-2.2,0.4-3,1.2C497,29.9,496.6,30.9,496.6,32.1z M497.4,22.5c0,1,0.3,1.8,1,2.4c0.6,0.6,1.5,0.9,2.5,0.9
				c1,0,1.8-0.3,2.4-0.9c0.6-0.6,0.9-1.4,0.9-2.3c0-0.9-0.3-1.7-1-2.4c-0.6-0.6-1.5-1-2.4-1c-1,0-1.8,0.3-2.4,0.9
				C497.8,20.9,497.4,21.6,497.4,22.5z"/>
			<path class="st8" d="M523.4,22.4l-2.5,0.2c-0.2-1-0.5-1.7-1-2.2c-0.7-0.7-1.5-1.1-2.6-1.1c-0.8,0-1.5,0.2-2.1,0.7
				c-0.8,0.6-1.4,1.4-1.9,2.6s-0.7,2.7-0.7,4.8c0.6-0.9,1.4-1.6,2.3-2.1s1.8-0.7,2.8-0.7c1.7,0,3.2,0.6,4.3,1.9
				c1.2,1.3,1.8,2.9,1.8,4.9c0,1.3-0.3,2.5-0.8,3.6c-0.6,1.1-1.3,2-2.3,2.6s-2.1,0.9-3.3,0.9c-2.1,0-3.9-0.8-5.2-2.3
				c-1.3-1.6-2-4.1-2-7.7c0-4,0.7-6.9,2.2-8.8c1.3-1.6,3-2.4,5.2-2.4c1.6,0,3,0.5,4,1.4S523.2,20.8,523.4,22.4z M513,31.4
				c0,0.9,0.2,1.7,0.6,2.5c0.4,0.8,0.9,1.4,1.6,1.8s1.4,0.6,2.1,0.6c1.1,0,2-0.4,2.8-1.3s1.2-2.1,1.2-3.5c0-1.4-0.4-2.6-1.1-3.4
				c-0.8-0.8-1.7-1.2-2.9-1.2c-1.2,0-2.1,0.4-2.9,1.2S513,30,513,31.4z"/>
		</g>
		<g>
			<path class="st8" d="M984.9,361.2c0.4-1.1,0.9-1.8,1.7-2.4c0.7-0.5,1.6-0.8,2.6-0.8c1.5,0,2.8,0.5,3.8,1.6c1,1.1,1.5,2.5,1.5,4.3
				c0,1.8-0.5,3.3-1.6,4.4s-2.3,1.7-3.9,1.7c-1,0-1.8-0.3-2.5-0.8c-0.7-0.5-1.3-1.3-1.7-2.3c-0.4,1.3-1.1,2.2-2,2.9
				c-0.9,0.7-2,1-3.3,1c-1.8,0-3.3-0.6-4.5-1.9c-1.2-1.3-1.8-2.9-1.8-5c0-2.1,0.6-3.7,1.8-5c1.2-1.3,2.7-1.9,4.5-1.9
				c1.4,0,2.5,0.3,3.4,1C984,359,984.6,359.9,984.9,361.2z M979.7,359.9c-0.7,0-1.4,0.2-2.1,0.5c-0.7,0.3-1.2,0.9-1.6,1.5
				c-0.4,0.7-0.6,1.4-0.6,2.2c0,1.2,0.4,2.2,1.2,3s1.8,1.2,3,1.2c1.2,0,2.2-0.4,3.1-1.2c0.8-0.8,1.2-1.8,1.2-3.1
				c0-1.2-0.4-2.2-1.2-3C981.8,360.3,980.8,359.9,979.7,359.9z M989.3,360.7c-1,0-1.8,0.3-2.4,1s-0.9,1.5-0.9,2.5
				c0,1,0.3,1.8,0.9,2.4c0.6,0.6,1.4,0.9,2.3,0.9c0.9,0,1.7-0.3,2.4-1c0.6-0.6,1-1.5,1-2.4c0-1-0.3-1.8-0.9-2.4
				C990.9,361,990.1,360.7,989.3,360.7z"/>
			<path class="st8" d="M983.9,373.4c2.5,0,4.4,0.3,5.9,0.8s2.7,1.3,3.5,2.3s1.2,2.3,1.2,3.8c0,1.1-0.2,2.1-0.7,2.9
				s-1.1,1.5-1.9,2.1c-0.8,0.5-1.9,1-3.1,1.3c-1.2,0.3-2.9,0.5-4.9,0.5c-2.4,0-4.4-0.3-5.9-0.8c-1.5-0.5-2.7-1.3-3.5-2.2
				c-0.8-1-1.2-2.3-1.2-3.8c0-2,0.7-3.6,2.2-4.7C977.2,374.1,980,373.4,983.9,373.4z M983.9,376.1c-3.4,0-5.7,0.4-6.8,1.2
				s-1.7,1.8-1.7,3c0,1.2,0.6,2.2,1.7,3c1.1,0.8,3.4,1.2,6.8,1.2c3.4,0,5.7-0.4,6.8-1.2c1.1-0.8,1.7-1.8,1.7-3
				c0-1.2-0.5-2.1-1.5-2.8C989.7,376.5,987.3,376.1,983.9,376.1z"/>
			<path class="st8" d="M973.7,391h2.9v2.9h-2.9V391z"/>
			<path class="st8" d="M978.5,398l0.2,2.5c-1.2,0.2-2,0.6-2.5,1.2c-0.5,0.6-0.8,1.3-0.8,2.3c0,0.8,0.2,1.5,0.5,2.1s0.8,1.1,1.4,1.5
				c0.6,0.4,1.4,0.7,2.4,1s2.1,0.4,3.1,0.4c0.1,0,0.3,0,0.5,0c-0.8-0.5-1.5-1.2-2-2.1c-0.5-0.9-0.8-1.8-0.8-2.9
				c0-1.7,0.6-3.2,1.9-4.4c1.2-1.2,2.9-1.8,4.9-1.8c2.1,0,3.8,0.6,5.1,1.9c1.3,1.2,1.9,2.8,1.9,4.7c0,1.4-0.4,2.6-1.1,3.7
				c-0.7,1.1-1.8,2-3.1,2.6s-3.3,0.9-5.9,0.9c-2.7,0-4.8-0.3-6.3-0.9c-1.6-0.6-2.8-1.4-3.6-2.6c-0.8-1.1-1.2-2.5-1.2-4
				c0-1.6,0.5-3,1.4-4C975.6,398.9,976.8,398.3,978.5,398z M987.6,408.5c1.5,0,2.6-0.4,3.5-1.2c0.9-0.8,1.3-1.7,1.3-2.8
				c0-1.1-0.5-2.1-1.4-3s-2.1-1.3-3.6-1.3c-1.3,0-2.4,0.4-3.2,1.2c-0.8,0.8-1.2,1.8-1.2,3c0,1.2,0.4,2.2,1.2,2.9
				C985,408.1,986.2,408.5,987.6,408.5z"/>
			<path class="st8" d="M989.4,427.1l-0.2-2.5c1-0.2,1.7-0.5,2.2-1c0.7-0.7,1.1-1.5,1.1-2.6c0-0.8-0.2-1.5-0.7-2.1
				c-0.6-0.8-1.4-1.4-2.6-1.9c-1.1-0.5-2.7-0.7-4.8-0.7c0.9,0.6,1.6,1.4,2.1,2.3s0.7,1.8,0.7,2.8c0,1.7-0.6,3.2-1.9,4.3
				c-1.3,1.2-2.9,1.8-4.9,1.8c-1.3,0-2.5-0.3-3.6-0.8c-1.1-0.6-2-1.3-2.6-2.3s-0.9-2.1-0.9-3.3c0-2.1,0.8-3.9,2.3-5.2s4.1-2,7.7-2
				c4,0,6.9,0.7,8.8,2.2c1.6,1.3,2.4,3,2.4,5.2c0,1.6-0.5,3-1.4,4S991,426.9,989.4,427.1z M980.4,416.6c-0.9,0-1.7,0.2-2.5,0.6
				c-0.8,0.4-1.4,0.9-1.8,1.6c-0.4,0.7-0.6,1.4-0.6,2.1c0,1.1,0.4,2,1.3,2.8c0.9,0.8,2.1,1.2,3.5,1.2c1.4,0,2.6-0.4,3.4-1.1
				c0.8-0.8,1.2-1.7,1.2-2.9c0-1.2-0.4-2.1-1.2-2.9C982.8,417,981.7,416.6,980.4,416.6z"/>
		</g>
		<g>
			<path class="st8" d="M919.2,612.7v-2.6h16.3c-0.6-0.6-1.2-1.4-1.8-2.4c-0.6-1-1-1.9-1.3-2.7h2.5c0.7,1.4,1.5,2.7,2.4,3.7
				c1,1.1,1.9,1.8,2.8,2.3v1.6H919.2z"/>
			<path class="st8" d="M924.7,619.3l0.2,2.7c-1.3,0.2-2.3,0.7-2.9,1.4c-0.7,0.7-1,1.6-1,2.6c0,1.2,0.5,2.3,1.4,3.1
				c0.9,0.9,2.2,1.3,3.7,1.3c1.5,0,2.6-0.4,3.4-1.2c0.8-0.8,1.3-1.9,1.3-3.2c0-0.8-0.2-1.6-0.6-2.2c-0.4-0.7-0.9-1.2-1.5-1.6
				l0.3-2.4l10.7,2v10.3h-2.4v-8.3l-5.6-1.1c0.9,1.2,1.3,2.6,1.3,3.9c0,1.8-0.6,3.3-1.9,4.6c-1.3,1.2-2.9,1.9-4.9,1.9
				c-1.9,0-3.5-0.5-4.9-1.6c-1.7-1.3-2.5-3.2-2.5-5.5c0-1.9,0.5-3.4,1.6-4.6S922.9,619.4,924.7,619.3z"/>
			<path class="st8" d="M919.2,636.9h2.9v2.9h-2.9V636.9z"/>
			<path class="st8" d="M919.2,651.7h5v-9h2.3l13.5,9.5v2.1h-13.5v2.8h-2.3v-2.8h-5V651.7z M926.5,651.7h9.4l-9.4-6.5V651.7z"/>
			<path class="st8" d="M930.5,663.6c0.4-1.1,0.9-1.8,1.7-2.4c0.7-0.5,1.6-0.8,2.6-0.8c1.5,0,2.8,0.5,3.8,1.6c1,1.1,1.5,2.5,1.5,4.3
				c0,1.8-0.5,3.3-1.6,4.4c-1.1,1.1-2.3,1.7-3.9,1.7c-1,0-1.8-0.3-2.5-0.8c-0.7-0.5-1.3-1.3-1.7-2.3c-0.4,1.3-1.1,2.2-2,2.9
				s-2,1-3.3,1c-1.8,0-3.3-0.6-4.5-1.9c-1.2-1.3-1.8-2.9-1.8-5c0-2.1,0.6-3.7,1.8-5c1.2-1.3,2.7-1.9,4.5-1.9c1.4,0,2.5,0.3,3.4,1
				C929.6,661.3,930.2,662.3,930.5,663.6z M925.2,662.3c-0.7,0-1.4,0.2-2.1,0.5c-0.7,0.3-1.2,0.9-1.6,1.5c-0.4,0.7-0.6,1.4-0.6,2.2
				c0,1.2,0.4,2.2,1.2,3c0.8,0.8,1.8,1.2,3,1.2c1.2,0,2.2-0.4,3.1-1.2c0.8-0.8,1.2-1.8,1.2-3.1c0-1.2-0.4-2.2-1.2-3
				C927.4,662.7,926.4,662.3,925.2,662.3z M934.8,663.1c-1,0-1.8,0.3-2.4,1c-0.6,0.6-0.9,1.5-0.9,2.5c0,1,0.3,1.8,0.9,2.4
				c0.6,0.6,1.4,0.9,2.3,0.9c0.9,0,1.7-0.3,2.4-1c0.6-0.6,1-1.5,1-2.4c0-1-0.3-1.8-0.9-2.4C936.5,663.4,935.7,663.1,934.8,663.1z"/>
		</g>
		<g>
			<path class="st8" d="M869.7,726.2l0.2,2.7c-1.3,0.2-2.3,0.7-2.9,1.4c-0.7,0.7-1,1.6-1,2.6c0,1.2,0.5,2.3,1.4,3.1
				c0.9,0.9,2.2,1.3,3.7,1.3c1.5,0,2.6-0.4,3.4-1.2c0.8-0.8,1.3-1.9,1.3-3.2c0-0.8-0.2-1.6-0.6-2.2c-0.4-0.7-0.9-1.2-1.5-1.6
				l0.3-2.4l10.7,2V739h-2.4v-8.3l-5.6-1.1c0.9,1.2,1.3,2.6,1.3,3.9c0,1.8-0.6,3.3-1.9,4.6c-1.3,1.2-2.9,1.9-4.9,1.9
				c-1.9,0-3.5-0.5-4.9-1.6c-1.7-1.3-2.5-3.2-2.5-5.5c0-1.9,0.5-3.4,1.6-4.6S867.9,726.4,869.7,726.2z"/>
			<path class="st8" d="M864.2,743.8h2.9v2.9h-2.9V743.8z"/>
			<path class="st8" d="M869,750.8l0.2,2.5c-1.2,0.2-2,0.6-2.5,1.2c-0.5,0.6-0.8,1.3-0.8,2.3c0,0.8,0.2,1.5,0.5,2.1
				c0.4,0.6,0.8,1.1,1.4,1.5c0.6,0.4,1.4,0.7,2.4,1c1,0.3,2.1,0.4,3.1,0.4c0.1,0,0.3,0,0.5,0c-0.8-0.5-1.5-1.2-2-2.1
				c-0.5-0.9-0.8-1.8-0.8-2.9c0-1.7,0.6-3.2,1.9-4.4c1.2-1.2,2.9-1.8,4.9-1.8c2.1,0,3.8,0.6,5.1,1.9c1.3,1.2,1.9,2.8,1.9,4.7
				c0,1.4-0.4,2.6-1.1,3.7c-0.7,1.1-1.8,2-3.1,2.6c-1.3,0.6-3.3,0.9-5.9,0.9c-2.7,0-4.8-0.3-6.3-0.9c-1.6-0.6-2.8-1.4-3.6-2.6
				c-0.8-1.1-1.2-2.5-1.2-4c0-1.6,0.5-3,1.4-4C866.1,751.6,867.4,751,869,750.8z M878.2,761.3c1.5,0,2.6-0.4,3.5-1.2
				c0.9-0.8,1.3-1.7,1.3-2.8c0-1.1-0.5-2.1-1.4-3c-0.9-0.8-2.1-1.3-3.6-1.3c-1.3,0-2.4,0.4-3.2,1.2c-0.8,0.8-1.2,1.8-1.2,3
				c0,1.2,0.4,2.2,1.2,2.9C875.6,760.9,876.7,761.3,878.2,761.3z"/>
			<path class="st8" d="M879.9,779.8l-0.2-2.5c1-0.2,1.7-0.5,2.2-1c0.7-0.7,1.1-1.5,1.1-2.6c0-0.8-0.2-1.5-0.7-2.1
				c-0.6-0.8-1.4-1.4-2.6-1.9c-1.1-0.5-2.7-0.7-4.8-0.7c0.9,0.6,1.6,1.4,2.1,2.3s0.7,1.8,0.7,2.8c0,1.7-0.6,3.2-1.9,4.3
				s-2.9,1.8-4.9,1.8c-1.3,0-2.5-0.3-3.6-0.8c-1.1-0.6-2-1.3-2.6-2.3s-0.9-2.1-0.9-3.3c0-2.1,0.8-3.9,2.3-5.2c1.6-1.3,4.1-2,7.7-2
				c4,0,6.9,0.7,8.8,2.2c1.6,1.3,2.4,3,2.4,5.2c0,1.6-0.5,3-1.4,4S881.5,779.6,879.9,779.8z M871,769.4c-0.9,0-1.7,0.2-2.5,0.6
				c-0.8,0.4-1.4,0.9-1.8,1.6s-0.6,1.4-0.6,2.1c0,1.1,0.4,2,1.3,2.8c0.9,0.8,2.1,1.2,3.5,1.2c1.4,0,2.6-0.4,3.4-1.1
				c0.8-0.8,1.2-1.7,1.2-2.9c0-1.2-0.4-2.1-1.2-2.9C873.4,769.8,872.3,769.4,871,769.4z"/>
		</g>
		<g>
			<path class="st8" d="M391.9,140.4l15-14.4l6.4,6.6c1.3,1.3,2.1,2.5,2.5,3.4c0.4,1,0.5,2,0.2,3c-0.3,1.1-0.8,2-1.7,2.8
				c-1.1,1-2.3,1.5-3.7,1.6s-2.9-0.6-4.5-1.8c0.3,0.8,0.4,1.4,0.4,1.9c0,1.1-0.1,2.3-0.4,3.6l-1.6,6.5l-2.4-2.5l1.2-5
				c0.3-1.4,0.6-2.6,0.7-3.4c0.1-0.8,0.1-1.5,0-2c-0.1-0.5-0.3-0.9-0.5-1.3c-0.2-0.3-0.5-0.7-1-1.2l-2.2-2.3l-6.6,6.4L391.9,140.4z
				 M402.1,134.3l4.1,4.3c0.9,0.9,1.7,1.5,2.3,1.9c0.7,0.3,1.4,0.4,2,0.3c0.7-0.1,1.2-0.4,1.7-0.9c0.7-0.7,1-1.5,1-2.5
				c0-1-0.6-2-1.7-3.1l-4.6-4.7L402.1,134.3z"/>
		</g>
		<g>
			<path class="st8" d="M424.7,158.2c-0.5-1-0.6-2-0.4-2.8c0.2-0.9,0.6-1.6,1.3-2.3c1.1-1.1,2.4-1.5,3.9-1.5s2.9,0.7,4.1,2
				c1.3,1.3,1.9,2.7,1.9,4.3c0,1.5-0.5,2.8-1.6,3.9c-0.7,0.7-1.5,1.1-2.3,1.2c-0.9,0.1-1.8,0-2.8-0.5c0.6,1.2,0.8,2.4,0.6,3.5
				c-0.2,1.1-0.8,2.1-1.7,3c-1.3,1.2-2.8,1.8-4.5,1.8c-1.7-0.1-3.3-0.8-4.8-2.3s-2.1-3.1-2.1-4.8c0-1.7,0.7-3.3,2-4.5
				c1-0.9,2-1.5,3.2-1.6C422.4,157.2,423.5,157.5,424.7,158.2z M419.9,160.9c-0.5,0.5-0.9,1.1-1.2,1.8c-0.2,0.7-0.3,1.5-0.1,2.2
				c0.2,0.8,0.6,1.4,1.1,2c0.8,0.9,1.8,1.3,2.9,1.4c1.1,0,2.1-0.4,3-1.2c0.9-0.9,1.3-1.9,1.3-3s-0.4-2.2-1.3-3
				c-0.8-0.9-1.8-1.3-2.9-1.3C421.8,159.6,420.8,160,419.9,160.9z M427.4,154.8c-0.7,0.7-1.1,1.5-1.1,2.4c0,0.9,0.3,1.7,1,2.4
				c0.7,0.7,1.5,1.1,2.3,1.1s1.6-0.3,2.3-0.9c0.7-0.7,1-1.4,1-2.3c0-0.9-0.3-1.7-1-2.4c-0.7-0.7-1.5-1.1-2.4-1.1
				C428.8,153.9,428,154.2,427.4,154.8z"/>
		</g>
		<g>
			<path class="st8" d="M466.6,171.2v-20.8h9.2c1.9,0,3.3,0.2,4.2,0.6c1,0.4,1.7,1,2.3,2c0.6,0.9,0.9,2,0.9,3.1
				c0,1.5-0.5,2.7-1.4,3.7c-1,1-2.4,1.7-4.4,1.9c0.7,0.3,1.3,0.7,1.7,1c0.8,0.7,1.6,1.7,2.3,2.8l3.6,5.7h-3.5l-2.8-4.3
				c-0.8-1.2-1.5-2.2-2-2.9s-1-1.1-1.4-1.4c-0.4-0.3-0.8-0.4-1.3-0.6c-0.3-0.1-0.8-0.1-1.5-0.1h-3.2v9.2H466.6z M469.4,159.6h5.9
				c1.3,0,2.2-0.1,3-0.4c0.7-0.3,1.2-0.7,1.6-1.2c0.4-0.6,0.6-1.2,0.6-1.9c0-1-0.4-1.8-1.1-2.4c-0.7-0.6-1.8-1-3.4-1h-6.6V159.6z"/>
			<path class="st8" d="M504.2,171.2h-2.6v-16.3c-0.6,0.6-1.4,1.2-2.4,1.8s-1.9,1-2.7,1.3v-2.5c1.4-0.7,2.7-1.5,3.7-2.4
				c1.1-1,1.8-1.9,2.3-2.8h1.6V171.2z"/>
			<path class="st8" d="M524.2,168.7v2.5h-13.7c0-0.6,0.1-1.2,0.3-1.8c0.3-0.9,0.9-1.9,1.7-2.8c0.8-0.9,1.9-2,3.3-3.1
				c2.3-1.9,3.8-3.3,4.6-4.4c0.8-1.1,1.2-2.1,1.2-3.1c0-1-0.4-1.9-1.1-2.6c-0.7-0.7-1.7-1-2.8-1c-1.2,0-2.2,0.4-3,1.1
				c-0.7,0.7-1.1,1.8-1.1,3.1l-2.6-0.3c0.2-2,0.9-3.4,2-4.5s2.7-1.5,4.7-1.5c2,0,3.6,0.6,4.7,1.7c1.2,1.1,1.7,2.5,1.7,4.1
				c0,0.8-0.2,1.7-0.5,2.5c-0.3,0.8-0.9,1.7-1.7,2.5s-2.1,2.1-3.9,3.7c-1.5,1.3-2.5,2.2-3,2.6c-0.4,0.5-0.8,0.9-1.1,1.4H524.2z"/>
			<path class="st8" d="M527.1,153.1v-2.5h13.5v2c-1.3,1.4-2.6,3.3-3.9,5.6c-1.3,2.3-2.3,4.7-3,7.2c-0.5,1.7-0.8,3.6-1,5.7H530
				c0-1.6,0.4-3.6,1-5.9c0.6-2.3,1.5-4.6,2.6-6.7c1.1-2.2,2.4-4,3.7-5.4H527.1z"/>
		</g>
		<g>
			<path class="st8" d="M295.1,348.4v-20.8h9.2c1.9,0,3.3,0.2,4.2,0.6c1,0.4,1.7,1,2.3,2c0.6,0.9,0.9,2,0.9,3.1
				c0,1.5-0.5,2.7-1.4,3.7c-1,1-2.4,1.7-4.4,1.9c0.7,0.3,1.3,0.7,1.7,1c0.8,0.7,1.6,1.7,2.3,2.8l3.6,5.7H310l-2.8-4.3
				c-0.8-1.2-1.5-2.2-2-2.9s-1-1.1-1.4-1.4c-0.4-0.3-0.8-0.4-1.3-0.6c-0.3-0.1-0.8-0.1-1.5-0.1h-3.2v9.2H295.1z M297.9,336.8h5.9
				c1.3,0,2.2-0.1,3-0.4c0.7-0.3,1.2-0.7,1.6-1.2c0.4-0.6,0.6-1.2,0.6-1.9c0-1-0.4-1.8-1.1-2.4c-0.7-0.6-1.8-1-3.4-1h-6.6V336.8z"/>
			<path class="st8" d="M323.2,348.4v-5h-9v-2.3l9.5-13.5h2.1v13.5h2.8v2.3h-2.8v5H323.2z M323.2,341.1v-9.4l-6.5,9.4H323.2z"/>
			<path class="st8" d="M332.6,348.4v-2.9h2.9v2.9H332.6z"/>
			<path class="st8" d="M343.2,337.2c-1.1-0.4-1.8-0.9-2.4-1.7c-0.5-0.7-0.8-1.6-0.8-2.6c0-1.5,0.5-2.8,1.6-3.8
				c1.1-1,2.5-1.5,4.3-1.5c1.8,0,3.3,0.5,4.4,1.6c1.1,1.1,1.7,2.3,1.7,3.9c0,1-0.3,1.8-0.8,2.5c-0.5,0.7-1.3,1.3-2.3,1.7
				c1.3,0.4,2.2,1.1,2.9,2c0.7,0.9,1,2,1,3.3c0,1.8-0.6,3.3-1.9,4.5c-1.3,1.2-2.9,1.8-5,1.8c-2.1,0-3.7-0.6-5-1.8s-1.9-2.7-1.9-4.5
				c0-1.4,0.3-2.5,1-3.4C340.9,338.1,341.9,337.5,343.2,337.2z M341.8,342.4c0,0.7,0.2,1.4,0.5,2.1c0.3,0.7,0.9,1.2,1.5,1.6
				c0.7,0.4,1.4,0.6,2.2,0.6c1.2,0,2.2-0.4,3-1.2c0.8-0.8,1.2-1.8,1.2-3c0-1.2-0.4-2.2-1.2-3.1c-0.8-0.8-1.8-1.2-3.1-1.2
				c-1.2,0-2.2,0.4-3,1.2C342.2,340.3,341.8,341.2,341.8,342.4z M342.7,332.8c0,1,0.3,1.8,1,2.4c0.6,0.6,1.5,0.9,2.5,0.9
				c1,0,1.8-0.3,2.4-0.9c0.6-0.6,0.9-1.4,0.9-2.3c0-0.9-0.3-1.7-1-2.4c-0.6-0.6-1.5-1-2.4-1c-1,0-1.8,0.3-2.4,0.9
				C343,331.2,342.7,332,342.7,332.8z"/>
		</g>
		<g>
			<path class="st8" d="M287.9,513.2v-20.8h9.2c1.9,0,3.3,0.2,4.2,0.6c1,0.4,1.7,1,2.3,2c0.6,0.9,0.9,2,0.9,3.1
				c0,1.5-0.5,2.7-1.4,3.7c-1,1-2.4,1.7-4.4,1.9c0.7,0.3,1.3,0.7,1.7,1c0.8,0.7,1.6,1.7,2.3,2.8l3.6,5.7h-3.5l-2.8-4.3
				c-0.8-1.2-1.5-2.2-2-2.9s-1-1.1-1.4-1.4c-0.4-0.3-0.8-0.4-1.3-0.6c-0.3-0.1-0.8-0.1-1.5-0.1h-3.2v9.2H287.9z M290.7,501.6h5.9
				c1.3,0,2.2-0.1,3-0.4c0.7-0.3,1.2-0.7,1.6-1.2c0.4-0.6,0.6-1.2,0.6-1.9c0-1-0.4-1.8-1.1-2.4c-0.7-0.6-1.8-1-3.4-1h-6.6V501.6z"/>
			<path class="st8" d="M321.1,497.5l-2.5,0.2c-0.2-1-0.5-1.7-1-2.2c-0.7-0.7-1.5-1.1-2.6-1.1c-0.8,0-1.5,0.2-2.1,0.7
				c-0.8,0.6-1.4,1.4-1.9,2.6c-0.5,1.1-0.7,2.7-0.7,4.8c0.6-0.9,1.4-1.6,2.3-2.1s1.8-0.7,2.8-0.7c1.7,0,3.2,0.6,4.3,1.9
				s1.8,2.9,1.8,4.9c0,1.3-0.3,2.5-0.8,3.6c-0.6,1.1-1.3,2-2.3,2.6s-2.1,0.9-3.3,0.9c-2.1,0-3.9-0.8-5.2-2.3c-1.3-1.6-2-4.1-2-7.7
				c0-4,0.7-6.9,2.2-8.8c1.3-1.6,3-2.4,5.2-2.4c1.6,0,3,0.5,4,1.4S320.9,495.9,321.1,497.5z M310.6,506.5c0,0.9,0.2,1.7,0.6,2.5
				c0.4,0.8,0.9,1.4,1.6,1.8s1.4,0.6,2.1,0.6c1.1,0,2-0.4,2.8-1.3c0.8-0.9,1.2-2.1,1.2-3.5c0-1.4-0.4-2.6-1.1-3.4
				c-0.8-0.8-1.7-1.2-2.9-1.2c-1.2,0-2.1,0.4-2.9,1.2C311,504.1,310.6,505.2,310.6,506.5z"/>
			<path class="st8" d="M325.4,513.2v-2.9h2.9v2.9H325.4z"/>
			<path class="st8" d="M332.1,507.8l2.6-0.3c0.3,1.4,0.8,2.5,1.5,3.1c0.7,0.6,1.6,1,2.6,1c1.2,0,2.2-0.4,3-1.2
				c0.8-0.8,1.2-1.9,1.2-3.1c0-1.2-0.4-2.1-1.1-2.9c-0.8-0.8-1.7-1.1-2.9-1.1c-0.5,0-1.1,0.1-1.8,0.3l0.3-2.2c0.2,0,0.3,0,0.4,0
				c1.1,0,2.1-0.3,2.9-0.9c0.9-0.6,1.3-1.4,1.3-2.6c0-0.9-0.3-1.7-1-2.3c-0.6-0.6-1.5-0.9-2.5-0.9c-1,0-1.8,0.3-2.5,0.9
				c-0.7,0.6-1.1,1.6-1.3,2.8l-2.6-0.5c0.3-1.7,1-3,2.1-4c1.1-0.9,2.5-1.4,4.1-1.4c1.1,0,2.2,0.2,3.1,0.7c1,0.5,1.7,1.2,2.2,2
				s0.8,1.7,0.8,2.7c0,0.9-0.2,1.7-0.7,2.5c-0.5,0.7-1.2,1.3-2.1,1.8c1.2,0.3,2.2,0.9,2.9,1.8c0.7,0.9,1,2,1,3.4
				c0,1.8-0.7,3.4-2,4.6c-1.3,1.3-3,1.9-5,1.9c-1.8,0-3.3-0.5-4.5-1.6C332.9,510.9,332.2,509.5,332.1,507.8z"/>
		</g>
		<g>
			<path class="st8" d="M348.2,507.8l2.7-0.2c0.2,1.3,0.7,2.3,1.4,2.9c0.7,0.7,1.6,1,2.6,1c1.2,0,2.3-0.5,3.1-1.4
				c0.9-0.9,1.3-2.2,1.3-3.7c0-1.5-0.4-2.6-1.2-3.4c-0.8-0.8-1.9-1.3-3.2-1.3c-0.8,0-1.6,0.2-2.2,0.6c-0.7,0.4-1.2,0.9-1.6,1.5
				l-2.4-0.3l2-10.7H361v2.4h-8.3l-1.1,5.6c1.2-0.9,2.6-1.3,3.9-1.3c1.8,0,3.3,0.6,4.6,1.9c1.2,1.3,1.9,2.9,1.9,4.9
				c0,1.9-0.5,3.5-1.6,4.9c-1.3,1.7-3.2,2.5-5.5,2.5c-1.9,0-3.4-0.5-4.6-1.6C349,510.9,348.3,509.5,348.2,507.8z"/>
		</g>
		<g>
			<path class="st8" d="M211.9,285.7v-20.8h9.2c1.9,0,3.3,0.2,4.2,0.6c1,0.4,1.7,1,2.3,2c0.6,0.9,0.9,2,0.9,3.1
				c0,1.5-0.5,2.7-1.4,3.7c-1,1-2.4,1.7-4.4,1.9c0.7,0.3,1.3,0.7,1.7,1c0.8,0.7,1.6,1.7,2.3,2.8l3.6,5.7h-3.5l-2.8-4.3
				c-0.8-1.2-1.5-2.2-2-2.9s-1-1.1-1.4-1.4c-0.4-0.3-0.8-0.4-1.3-0.6c-0.3-0.1-0.8-0.1-1.5-0.1h-3.2v9.2H211.9z M214.6,274.1h5.9
				c1.3,0,2.2-0.1,3-0.4c0.7-0.3,1.2-0.7,1.6-1.2c0.4-0.6,0.6-1.2,0.6-1.9c0-1-0.4-1.8-1.1-2.4c-0.7-0.6-1.8-1-3.4-1h-6.6V274.1z"/>
			<path class="st8" d="M241.4,285.7h-2.6v-16.3c-0.6,0.6-1.4,1.2-2.4,1.8s-1.9,1-2.7,1.3V270c1.4-0.7,2.7-1.5,3.7-2.4
				c1.1-1,1.8-1.9,2.3-2.8h1.6V285.7z"/>
			<path class="st8" d="M249.4,285.7v-2.9h2.9v2.9H249.4z"/>
			<path class="st8" d="M256,280.3l2.7-0.2c0.2,1.3,0.7,2.3,1.4,2.9s1.6,1,2.6,1c1.2,0,2.3-0.5,3.1-1.4c0.9-0.9,1.3-2.2,1.3-3.7
				c0-1.5-0.4-2.6-1.2-3.4c-0.8-0.8-1.9-1.3-3.2-1.3c-0.8,0-1.6,0.2-2.2,0.6c-0.7,0.4-1.2,0.9-1.6,1.5l-2.4-0.3l2-10.7h10.3v2.4
				h-8.3l-1.1,5.6c1.2-0.9,2.6-1.3,3.9-1.3c1.8,0,3.3,0.6,4.6,1.9c1.2,1.3,1.9,2.9,1.9,4.9c0,1.9-0.5,3.5-1.6,4.9
				c-1.3,1.7-3.2,2.5-5.5,2.5c-1.9,0-3.4-0.5-4.6-1.6C256.9,283.4,256.2,282,256,280.3z"/>
		</g>
		<g>
			<path class="st8" d="M56.6,584.4v-20.8h9.2c1.9,0,3.3,0.2,4.2,0.6c1,0.4,1.7,1,2.3,2c0.6,0.9,0.9,2,0.9,3.1
				c0,1.5-0.5,2.7-1.4,3.7c-1,1-2.4,1.7-4.4,1.9c0.7,0.3,1.3,0.7,1.7,1c0.8,0.7,1.6,1.7,2.3,2.8l3.6,5.7h-3.5l-2.8-4.3
				c-0.8-1.2-1.5-2.2-2-2.9s-1-1.1-1.4-1.4c-0.4-0.3-0.8-0.4-1.3-0.6c-0.3-0.1-0.8-0.1-1.5-0.1h-3.2v9.2H56.6z M59.3,572.8h5.9
				c1.3,0,2.2-0.1,3-0.4c0.7-0.3,1.2-0.7,1.6-1.2c0.4-0.6,0.6-1.2,0.6-1.9c0-1-0.4-1.8-1.1-2.4c-0.7-0.6-1.8-1-3.4-1h-6.6V572.8z"/>
			<path class="st8" d="M86.1,584.4h-2.6v-16.3c-0.6,0.6-1.4,1.2-2.4,1.8c-1,0.6-1.9,1-2.7,1.3v-2.5c1.4-0.7,2.7-1.5,3.7-2.4
				c1.1-1,1.8-1.9,2.3-2.8h1.6V584.4z"/>
			<path class="st8" d="M94.1,584.4v-2.9H97v2.9H94.1z"/>
			<path class="st8" d="M100.7,579l2.7-0.2c0.2,1.3,0.7,2.3,1.4,2.9c0.7,0.7,1.6,1,2.6,1c1.2,0,2.3-0.5,3.1-1.4
				c0.9-0.9,1.3-2.2,1.3-3.7c0-1.5-0.4-2.6-1.2-3.4c-0.8-0.8-1.9-1.3-3.2-1.3c-0.8,0-1.6,0.2-2.2,0.6c-0.7,0.4-1.2,0.9-1.6,1.5
				l-2.4-0.3l2-10.7h10.3v2.4h-8.3l-1.1,5.6c1.2-0.9,2.6-1.3,3.9-1.3c1.8,0,3.3,0.6,4.6,1.9c1.2,1.3,1.9,2.9,1.9,4.9
				c0,1.9-0.5,3.5-1.6,4.9c-1.3,1.7-3.2,2.5-5.5,2.5c-1.9,0-3.4-0.5-4.6-1.6S100.9,580.7,100.7,579z"/>
		</g>
		<g>
			<path class="st8" d="M790.1,142.7h-2.5V129c0.6,0,1.2,0.1,1.8,0.3c0.9,0.3,1.9,0.9,2.8,1.7c0.9,0.8,2,1.9,3.1,3.3
				c1.9,2.3,3.3,3.8,4.4,4.6s2.1,1.2,3.1,1.2c1,0,1.9-0.4,2.6-1.1c0.7-0.7,1-1.7,1-2.8c0-1.2-0.4-2.2-1.1-3
				c-0.7-0.7-1.8-1.1-3.1-1.1l0.3-2.6c2,0.2,3.5,0.9,4.5,2s1.5,2.7,1.5,4.7c0,2-0.6,3.6-1.7,4.7c-1.1,1.2-2.5,1.7-4.1,1.7
				c-0.8,0-1.7-0.2-2.5-0.5c-0.8-0.3-1.7-0.9-2.5-1.7c-0.9-0.8-2.1-2.1-3.7-3.9c-1.3-1.5-2.2-2.5-2.6-3s-0.9-0.8-1.4-1.1V142.7z"/>
			<path class="st8" d="M790.1,158.9h-2.5v-13.7c0.6,0,1.2,0.1,1.8,0.3c0.9,0.3,1.9,0.9,2.8,1.7c0.9,0.8,2,1.9,3.1,3.3
				c1.9,2.3,3.3,3.8,4.4,4.6s2.1,1.2,3.1,1.2c1,0,1.9-0.4,2.6-1.1c0.7-0.7,1-1.7,1-2.8c0-1.2-0.4-2.2-1.1-3
				c-0.7-0.7-1.8-1.1-3.1-1.1l0.3-2.6c2,0.2,3.5,0.9,4.5,2s1.5,2.7,1.5,4.7c0,2-0.6,3.6-1.7,4.7c-1.1,1.2-2.5,1.7-4.1,1.7
				c-0.8,0-1.7-0.2-2.5-0.5c-0.8-0.3-1.7-0.9-2.5-1.7c-0.9-0.8-2.1-2.1-3.7-3.9c-1.3-1.5-2.2-2.5-2.6-3s-0.9-0.8-1.4-1.1V158.9z"/>
			<path class="st8" d="M787.6,163.1h2.9v2.9h-2.9V163.1z"/>
			<path class="st8" d="M787.6,177.9h5v-9h2.3l13.5,9.5v2.1h-13.5v2.8h-2.3v-2.8h-5V177.9z M794.9,177.9h9.4l-9.4-6.5V177.9z"/>
			<path class="st8" d="M790.1,199.3h-2.5v-13.7c0.6,0,1.2,0.1,1.8,0.3c0.9,0.3,1.9,0.9,2.8,1.7c0.9,0.8,2,1.9,3.1,3.3
				c1.9,2.3,3.3,3.8,4.4,4.6s2.1,1.2,3.1,1.2c1,0,1.9-0.4,2.6-1.1c0.7-0.7,1-1.7,1-2.8c0-1.2-0.4-2.2-1.1-3
				c-0.7-0.7-1.8-1.1-3.1-1.1l0.3-2.6c2,0.2,3.5,0.9,4.5,2s1.5,2.7,1.5,4.7c0,2-0.6,3.6-1.7,4.7c-1.1,1.2-2.5,1.7-4.1,1.7
				c-0.8,0-1.7-0.2-2.5-0.5c-0.8-0.3-1.7-0.9-2.5-1.7c-0.9-0.8-2.1-2.1-3.7-3.9c-1.3-1.5-2.2-2.5-2.6-3s-0.9-0.8-1.4-1.1V199.3z"/>
		</g>
		<g>
			<path class="st8" d="M178.4,280.6h-5v9h-2.3l-13.5-9.5v-2.1h13.5v-2.8h2.3v2.8h5V280.6z M171.1,280.6h-9.4l9.4,6.5V280.6z"/>
			<path class="st8" d="M178.4,263v2.6h-16.3c0.6,0.6,1.2,1.4,1.8,2.4c0.6,1,1,1.9,1.3,2.7h-2.5c-0.7-1.4-1.5-2.7-2.4-3.7
				c-1-1.1-1.9-1.8-2.8-2.3V263H178.4z"/>
			<path class="st8" d="M178.4,255.1h-2.9v-2.9h2.9V255.1z"/>
			<path class="st8" d="M162.7,235.2l0.2,2.5c-1,0.2-1.7,0.5-2.2,1c-0.7,0.7-1.1,1.5-1.1,2.6c0,0.8,0.2,1.5,0.7,2.1
				c0.6,0.8,1.4,1.4,2.6,1.9c1.1,0.5,2.7,0.7,4.8,0.7c-0.9-0.6-1.6-1.4-2.1-2.3s-0.7-1.8-0.7-2.8c0-1.7,0.6-3.2,1.9-4.3
				c1.3-1.2,2.9-1.8,4.9-1.8c1.3,0,2.5,0.3,3.6,0.8c1.1,0.6,2,1.3,2.6,2.3s0.9,2.1,0.9,3.3c0,2.1-0.8,3.9-2.3,5.2s-4.1,2-7.7,2
				c-4,0-6.9-0.7-8.8-2.2c-1.6-1.3-2.4-3-2.4-5.2c0-1.6,0.5-3,1.4-4S161.1,235.4,162.7,235.2z M171.7,245.6c0.9,0,1.7-0.2,2.5-0.6
				c0.8-0.4,1.4-0.9,1.8-1.6c0.4-0.7,0.6-1.4,0.6-2.1c0-1.1-0.4-2-1.3-2.8c-0.9-0.8-2.1-1.2-3.5-1.2c-1.4,0-2.6,0.4-3.4,1.1
				c-0.8,0.8-1.2,1.7-1.2,2.9c0,1.2,0.4,2.1,1.2,2.9C169.2,245.2,170.3,245.6,171.7,245.6z"/>
			<path class="st8" d="M178.4,224.1h-5v9h-2.3l-13.5-9.5v-2.1h13.5v-2.8h2.3v2.8h5V224.1z M171.1,224.1h-9.4l9.4,6.5V224.1z"/>
		</g>
		<g>
			<path class="st8" d="M901.4,162.6H899v-13.7c0.6,0,1.2,0.1,1.8,0.3c0.9,0.3,1.9,0.9,2.8,1.7c0.9,0.8,2,1.9,3.1,3.3
				c1.9,2.3,3.3,3.8,4.4,4.6s2.1,1.2,3.1,1.2c1,0,1.9-0.4,2.6-1.1c0.7-0.7,1-1.7,1-2.8c0-1.2-0.4-2.2-1.1-3
				c-0.7-0.7-1.8-1.1-3.1-1.1l0.3-2.6c2,0.2,3.5,0.9,4.5,2s1.5,2.7,1.5,4.7c0,2-0.6,3.6-1.7,4.7c-1.1,1.2-2.5,1.7-4.1,1.7
				c-0.8,0-1.7-0.2-2.5-0.5c-0.8-0.3-1.7-0.9-2.5-1.7c-0.9-0.8-2.1-2.1-3.7-3.9c-1.3-1.5-2.2-2.5-2.6-3s-0.9-0.8-1.4-1.1V162.6z"/>
			<path class="st8" d="M917.1,165.5h2.5V179h-2c-1.4-1.3-3.3-2.6-5.6-3.9c-2.3-1.3-4.7-2.3-7.2-3c-1.7-0.5-3.6-0.8-5.7-1v-2.6
				c1.6,0,3.6,0.3,5.9,1c2.3,0.6,4.6,1.5,6.7,2.6c2.2,1.1,4,2.4,5.4,3.7V165.5z"/>
			<path class="st8" d="M899,182.9h2.9v2.9H899V182.9z"/>
			<path class="st8" d="M917.1,189.7h2.5v13.5h-2c-1.4-1.3-3.3-2.6-5.6-3.9c-2.3-1.3-4.7-2.3-7.2-3c-1.7-0.5-3.6-0.8-5.7-1v-2.6
				c1.6,0,3.6,0.3,5.9,1c2.3,0.6,4.6,1.5,6.7,2.6c2.2,1.1,4,2.4,5.4,3.7V189.7z"/>
			<path class="st8" d="M910.3,209.6c0.4-1.1,0.9-1.8,1.7-2.4c0.7-0.5,1.6-0.8,2.6-0.8c1.5,0,2.8,0.5,3.8,1.6c1,1.1,1.5,2.5,1.5,4.3
				c0,1.8-0.5,3.3-1.6,4.4s-2.3,1.7-3.9,1.7c-1,0-1.8-0.3-2.5-0.8c-0.7-0.5-1.3-1.3-1.7-2.3c-0.4,1.3-1.1,2.2-2,2.9
				c-0.9,0.7-2,1-3.3,1c-1.8,0-3.3-0.6-4.5-1.9c-1.2-1.3-1.8-2.9-1.8-5c0-2.1,0.6-3.7,1.8-5c1.2-1.3,2.7-1.9,4.5-1.9
				c1.4,0,2.5,0.3,3.4,1C909.3,207.4,909.9,208.4,910.3,209.6z M905,208.3c-0.7,0-1.4,0.2-2.1,0.5c-0.7,0.3-1.2,0.9-1.6,1.5
				c-0.4,0.7-0.6,1.4-0.6,2.2c0,1.2,0.4,2.2,1.2,3s1.8,1.2,3,1.2c1.2,0,2.2-0.4,3.1-1.2c0.8-0.8,1.2-1.8,1.2-3.1
				c0-1.2-0.4-2.2-1.2-3C907.2,208.7,906.2,208.3,905,208.3z M914.6,209.1c-1,0-1.8,0.3-2.4,1s-0.9,1.5-0.9,2.5c0,1,0.3,1.8,0.9,2.4
				c0.6,0.6,1.4,0.9,2.3,0.9c0.9,0,1.7-0.3,2.4-1c0.6-0.6,1-1.5,1-2.4c0-1-0.3-1.8-0.9-2.4C916.2,209.5,915.5,209.1,914.6,209.1z"/>
		</g>
		<g>
			<path class="st8" d="M594.2,454.3l2.5-0.2c0.2,1.2,0.6,2,1.2,2.5c0.6,0.5,1.3,0.8,2.3,0.8c0.8,0,1.5-0.2,2.1-0.5
				c0.6-0.4,1.1-0.8,1.5-1.4c0.4-0.6,0.7-1.4,1-2.4c0.3-1,0.4-2.1,0.4-3.1c0-0.1,0-0.3,0-0.5c-0.5,0.8-1.2,1.5-2.1,2
				s-1.8,0.8-2.9,0.8c-1.7,0-3.2-0.6-4.4-1.9c-1.2-1.2-1.8-2.9-1.8-4.9c0-2.1,0.6-3.8,1.9-5.1c1.2-1.3,2.8-1.9,4.7-1.9
				c1.4,0,2.6,0.4,3.7,1.1c1.1,0.7,2,1.8,2.6,3.1c0.6,1.3,0.9,3.3,0.9,5.9c0,2.7-0.3,4.8-0.9,6.3c-0.6,1.6-1.4,2.8-2.6,3.6
				c-1.1,0.8-2.5,1.2-4,1.2c-1.6,0-3-0.5-4-1.4C595,457.2,594.4,455.9,594.2,454.3z M604.6,445.1c0-1.5-0.4-2.6-1.2-3.5
				s-1.7-1.3-2.8-1.3c-1.1,0-2.1,0.5-3,1.4c-0.8,0.9-1.3,2.1-1.3,3.6c0,1.3,0.4,2.4,1.2,3.2c0.8,0.8,1.8,1.2,3,1.2
				c1.2,0,2.2-0.4,2.9-1.2C604.3,447.7,604.6,446.6,604.6,445.1z"/>
			<path class="st8" d="M611.4,459.1v-2.9h2.9v2.9H611.4z"/>
			<path class="st8" d="M627.7,459.1h-2.6v-16.3c-0.6,0.6-1.4,1.2-2.4,1.8s-1.9,1-2.7,1.3v-2.5c1.4-0.7,2.7-1.5,3.7-2.4
				c1.1-1,1.8-1.9,2.3-2.8h1.6V459.1z"/>
			<path class="st8" d="M634.2,453.6l2.6-0.3c0.3,1.4,0.8,2.5,1.5,3.1c0.7,0.6,1.6,1,2.6,1c1.2,0,2.2-0.4,3-1.2
				c0.8-0.8,1.2-1.9,1.2-3.1c0-1.2-0.4-2.1-1.1-2.9c-0.8-0.8-1.7-1.1-2.9-1.1c-0.5,0-1.1,0.1-1.8,0.3l0.3-2.2c0.2,0,0.3,0,0.4,0
				c1.1,0,2.1-0.3,2.9-0.9s1.3-1.4,1.3-2.6c0-0.9-0.3-1.7-1-2.3c-0.6-0.6-1.5-0.9-2.5-0.9c-1,0-1.8,0.3-2.5,0.9
				c-0.7,0.6-1.1,1.6-1.3,2.8l-2.6-0.5c0.3-1.7,1-3,2.1-4c1.1-0.9,2.5-1.4,4.1-1.4c1.1,0,2.2,0.2,3.1,0.7c1,0.5,1.7,1.2,2.2,2
				s0.8,1.7,0.8,2.7c0,0.9-0.2,1.7-0.7,2.5c-0.5,0.7-1.2,1.3-2.1,1.8c1.2,0.3,2.2,0.9,2.9,1.8c0.7,0.9,1,2,1,3.4
				c0,1.8-0.7,3.4-2,4.6s-3,1.9-5,1.9c-1.8,0-3.3-0.5-4.5-1.6C635.1,456.8,634.4,455.4,634.2,453.6z"/>
		</g>
		<g>
			<path class="st8" d="M466.8,750.1v-2.5h13.5v2c-1.3,1.4-2.6,3.3-3.9,5.6c-1.3,2.3-2.3,4.7-3,7.2c-0.5,1.7-0.8,3.6-1,5.7h-2.6
				c0-1.6,0.4-3.6,1-5.9c0.6-2.3,1.5-4.6,2.6-6.7c1.1-2.2,2.4-4,3.7-5.4H466.8z"/>
			<path class="st8" d="M496.1,752.5l-2.5,0.2c-0.2-1-0.5-1.7-1-2.2c-0.7-0.7-1.5-1.1-2.6-1.1c-0.8,0-1.5,0.2-2.1,0.7
				c-0.8,0.6-1.4,1.4-1.9,2.6c-0.5,1.1-0.7,2.7-0.7,4.8c0.6-0.9,1.4-1.6,2.3-2.1s1.8-0.7,2.8-0.7c1.7,0,3.2,0.6,4.3,1.9
				s1.8,2.9,1.8,4.9c0,1.3-0.3,2.5-0.8,3.6c-0.6,1.1-1.3,2-2.3,2.6s-2.1,0.9-3.3,0.9c-2.1,0-3.9-0.8-5.2-2.3c-1.3-1.6-2-4.1-2-7.7
				c0-4,0.7-6.9,2.2-8.8c1.3-1.6,3-2.4,5.2-2.4c1.6,0,3,0.5,4,1.4S495.9,750.9,496.1,752.5z M485.6,761.5c0,0.9,0.2,1.7,0.6,2.5
				c0.4,0.8,0.9,1.4,1.6,1.8s1.4,0.6,2.1,0.6c1.1,0,2-0.4,2.8-1.3c0.8-0.9,1.2-2.1,1.2-3.5c0-1.4-0.4-2.6-1.1-3.4
				c-0.8-0.8-1.7-1.2-2.9-1.2c-1.2,0-2.1,0.4-2.9,1.2C486,759,485.6,760.1,485.6,761.5z"/>
			<path class="st8" d="M500.4,768.2v-2.9h2.9v2.9H500.4z"/>
		</g>
		<g>
			<path class="st8" d="M530.5,765.8v2.5h-13.7c0-0.6,0.1-1.2,0.3-1.8c0.3-0.9,0.9-1.9,1.7-2.8c0.8-0.9,1.9-2,3.3-3.1
				c2.3-1.9,3.8-3.3,4.6-4.4c0.8-1.1,1.2-2.1,1.2-3.1c0-1-0.4-1.9-1.1-2.6s-1.7-1-2.8-1c-1.2,0-2.2,0.4-3,1.1
				c-0.7,0.7-1.1,1.8-1.1,3.1l-2.6-0.3c0.2-2,0.9-3.5,2-4.5s2.7-1.5,4.7-1.5c2,0,3.6,0.6,4.7,1.7c1.2,1.1,1.7,2.5,1.7,4.1
				c0,0.8-0.2,1.7-0.5,2.5c-0.3,0.8-0.9,1.7-1.7,2.5c-0.8,0.9-2.1,2.1-3.9,3.7c-1.5,1.3-2.5,2.2-3,2.6c-0.4,0.5-0.8,0.9-1.1,1.4
				H530.5z"/>
		</g>
	</g>
</g>
<g id="Watermark">
	<g>
		<rect x="438.5" y="642.8" class="st0" width="123.1" height="46.3"/>
		<g>
			<rect x="444.9" y="650.7" class="st106" width="62.9" height="30.6"/>
			<rect x="507.7" y="650.7" class="st106" width="47.4" height="30.6"/>
			<g>
				<path class="st107" d="M466.5,656.8l-2.8,18.9H461l-1.6-11l-1.5,11h-2.7l-2.8-18.9h2.5l1.8,14.2l1.8-14.2h2l1.8,14.2l1.8-14.2
					H466.5z"/>
				<path class="st107" d="M467.9,675.7v-18.9h2.5v18.9H467.9z"/>
				<path class="st107" d="M472.8,656.8h5c1.9,0,2.9,1.1,2.9,3.2v4.7c0,1.7-0.5,2.7-1.5,3.1l1.8,7.9h-2.4l-1.7-7.6h-1.5v7.6h-2.5
					V656.8z M475.4,665.9h1.7c0.8,0,1.1-0.5,1.1-1.4v-4.1c0-0.9-0.4-1.4-1.1-1.4h-1.7V665.9z"/>
				<path class="st107" d="M486.8,659.1v16.6h-2.5v-16.6h-2.4v-2.3h7.4v2.3H486.8z"/>
				<path class="st107" d="M496.3,675.7v-8.6h-3.1v8.6h-2.5v-18.9h2.5v8h3.1v-8h2.5v18.9H496.3z"/>
			</g>
			<g>
				<path class="st107" d="M516.3,656.8h5c1.9,0,2.9,1.1,2.9,3.2v4.7c0,1.7-0.5,2.7-1.5,3.1l1.8,7.9H522l-1.7-7.6h-1.5v7.6h-2.5
					V656.8z M518.8,665.9h1.7c0.8,0,1.1-0.5,1.1-1.4v-4.1c0-0.9-0.4-1.4-1.1-1.4h-1.7V665.9z"/>
				<path class="st107" d="M528.7,675.7h-2.5V660c0-2.2,1-3.2,3-3.2h1.9c2,0,3,1.1,3,3.2v15.7h-2.5v-6.9h-2.9V675.7z M531.6,666.5
					v-6.3c0-0.7-0.4-1.1-1.1-1.1h-0.7c-0.7,0-1.1,0.4-1.1,1.1v6.3H531.6z"/>
				<path class="st107" d="M536.3,675.7v-18.9h2.5v18.9H536.3z"/>
				<path class="st107" d="M547.2,675.7h-6v-18.9h2.5v16.6h3.5V675.7z"/>
			</g>
		</g>
	</g>
</g>
</svg>
