<?xml version="1.0" encoding="utf-8"?>
<!-- Generator: Adobe Illustrator 25.2.3, SVG Export Plug-In . SVG Version: 6.00 Build 0)  -->
<svg version="1.1" xmlns="http://www.w3.org/2000/svg" xmlns:xlink="http://www.w3.org/1999/xlink" x="0px" y="0px"
	 viewBox="0 0 1000 800" style="enable-background:new 0 0 1000 800;" xml:space="preserve">
<style type="text/css">
	.st0{fill:#F0F0F0;}
	.st1{fill:none;stroke:#221E1F;stroke-width:1.2032;}
	.st2{fill:none;stroke:#221E1F;stroke-width:1.0736;}
	.st3{fill:none;stroke:#221E1F;stroke-width:1.2032;stroke-miterlimit:10;}
	.st4{fill:none;stroke:#221E1F;stroke-width:1.0736;stroke-linecap:round;stroke-linejoin:round;stroke-miterlimit:10;}
	.st5{fill:none;stroke:#221E1F;stroke-width:1.0736;stroke-miterlimit:10;}
	.st6{fill:#303030;}
	.st7{fill:none;stroke:#221E1F;stroke-width:1.2032;stroke-linecap:round;stroke-linejoin:round;}
	.st8{fill:#221E1F;}
	.st9{fill:none;stroke:#221E1F;stroke-width:1.2032;stroke-dasharray:15.0983,4.5412;}
	.st10{fill:none;stroke:#221E1F;stroke-width:1.327;}
	.st11{fill:none;stroke:#221E1F;stroke-width:1.327;stroke-miterlimit:10;}
	.st12{fill:none;stroke:#221E1F;stroke-width:1.5312;stroke-miterlimit:10;}
	.st13{fill:none;stroke:#221E1F;stroke-width:1.327;stroke-linecap:round;stroke-linejoin:round;}
	.st14{fill:none;stroke:#221E1F;stroke-width:1.327;stroke-dasharray:16.5574,4.9134;}
	.st15{fill:none;stroke:#221E1F;stroke-width:1.1875;stroke-linecap:round;stroke-linejoin:round;}
	.st16{fill:none;stroke:#221E1F;stroke-width:1.1875;stroke-miterlimit:10;}
	.st17{fill:none;stroke:#221E1F;stroke-width:1.0882;}
	.st18{fill:none;stroke:#221E1F;stroke-width:1.0882;stroke-miterlimit:10;}
	.st19{fill:none;stroke:#221E1F;stroke-width:1.01;stroke-linecap:round;stroke-linejoin:round;stroke-miterlimit:10;}
	.st20{fill:none;stroke:#221E1F;stroke-width:1.0268;stroke-linecap:round;stroke-linejoin:round;stroke-miterlimit:10;}
	.st21{fill:none;stroke:#221E1F;stroke-width:1.0268;}
	.st22{fill:none;stroke:#221E1F;stroke-width:1.0882;stroke-linecap:round;stroke-linejoin:round;stroke-miterlimit:10;}
	.st23{fill:none;stroke:#221E1F;stroke-width:1.0882;stroke-linecap:round;stroke-linejoin:round;}
	.st24{fill:none;stroke:#221E1F;stroke-width:1.0882;stroke-dasharray:13.6188,4.0709;}
	.st25{fill:none;stroke:#303030;stroke-width:1.0882;stroke-miterlimit:10;}
	.st26{fill:none;stroke:#303030;stroke-width:0.9459;stroke-miterlimit:10;}
	.st27{fill:none;stroke:#303030;stroke-width:0.625;stroke-miterlimit:10;}
	.st28{fill:none;stroke:#221E1F;stroke-width:1.2065;}
	.st29{fill:none;stroke:#221E1F;stroke-width:1.058;stroke-miterlimit:10;}
	.st30{fill:none;stroke:#221E1F;stroke-width:1.2065;stroke-miterlimit:10;}
	.st31{fill:none;stroke:#221E1F;stroke-width:1.2065;stroke-dasharray:15.1403,4.5538;}
	.st32{fill:none;stroke:#221E1F;stroke-width:1.2065;stroke-linecap:round;stroke-linejoin:round;}
	.st33{fill:none;stroke:#221E1F;stroke-width:1.0363;}
	.st34{fill:none;stroke:#221E1F;stroke-width:1.0363;stroke-miterlimit:10;}
	.st35{fill:none;stroke:#221E1F;stroke-width:1.0536;stroke-linecap:round;stroke-linejoin:round;stroke-miterlimit:10;}
	.st36{fill:none;stroke:#221E1F;stroke-width:1.0536;stroke-miterlimit:10;}
	.st37{fill:none;stroke:#221E1F;stroke-width:1.0363;stroke-linecap:round;stroke-linejoin:round;}
	.st38{fill:none;stroke:#221E1F;stroke-width:1.0363;stroke-dasharray:14.1142,4.2633;}
	.st39{fill:none;stroke:#221E1F;stroke-width:1.0394;}
	.st40{fill:none;stroke:#221E1F;stroke-width:1.1318;stroke-linecap:round;stroke-linejoin:round;stroke-miterlimit:10;}
	.st41{fill:none;stroke:#221E1F;stroke-width:1.0394;stroke-miterlimit:10;}
	.st42{fill:none;stroke:#221E1F;stroke-width:1.1318;stroke-miterlimit:10;}
	.st43{fill:none;stroke:#221E1F;stroke-width:1.0394;stroke-dasharray:14.096,4.2184;}
	.st44{fill:none;stroke:#221E1F;stroke-width:0.9644;stroke-linecap:round;stroke-linejoin:round;}
	.st45{fill:none;stroke:#221E1F;stroke-width:1.0394;stroke-linecap:round;stroke-linejoin:round;}
	.st46{fill:none;stroke:#221E1F;stroke-width:1.0394;stroke-dasharray:28.8705,8.4195;}
	.st47{fill:none;stroke:#221E1F;stroke-width:1.0394;stroke-dasharray:30.1958,9.7419;}
	.st48{fill:none;stroke:#221E1F;stroke-width:1.1834;}
	.st49{fill:none;stroke:#221E1F;stroke-width:1.1834;stroke-dasharray:22.2172,9.0331;}
	.st50{fill:none;stroke:#221E1F;stroke-width:1.1834;stroke-dasharray:22.205,9.024;}
	.st51{fill:none;stroke:#221E1F;stroke-width:1.1834;stroke-dasharray:22.2172,9.0362;}
	.st52{fill:none;stroke:#221E1F;stroke-width:1.1834;stroke-dasharray:22.205,9.021;}
	.st53{fill:none;stroke:#221E1F;stroke-width:1.1834;stroke-dasharray:14.8529,4.4695;}
	.st54{fill:none;stroke:#221E1F;stroke-width:1.1834;stroke-linecap:round;stroke-linejoin:round;}
	.st55{fill:none;stroke:#221E1F;stroke-width:0.9791;}
	.st56{fill:none;stroke:#221E1F;stroke-width:1.2076;}
	.st57{fill:none;stroke:#221E1F;stroke-width:1.2076;stroke-dasharray:17.3391,6.3726;}
	.st58{fill:none;stroke:#221E1F;stroke-width:1.2076;stroke-dasharray:17.3363,6.3726;}
	.st59{fill:none;stroke:#221E1F;stroke-width:0.9791;stroke-dasharray:17.5349,5.1568;}
	.st60{fill:none;stroke:#303030;stroke-width:0.9791;}
	.st61{fill:none;stroke:#221E1F;stroke-width:0.8976;stroke-linecap:round;stroke-linejoin:round;}
	.st62{fill:none;stroke:#241F21;stroke-width:0.9771;}
	
		.st63{fill:none;stroke:#241F21;stroke-width:0.9771;stroke-linecap:round;stroke-linejoin:round;stroke-miterlimit:1;stroke-dasharray:16.5466,16.5466;}
	
		.st64{fill:none;stroke:#241F21;stroke-width:0.9771;stroke-linecap:round;stroke-linejoin:round;stroke-miterlimit:1;stroke-dasharray:17.1257,17.1257;}
	
		.st65{fill:none;stroke:#241F21;stroke-width:0.9771;stroke-linecap:round;stroke-linejoin:round;stroke-miterlimit:1;stroke-dasharray:16.5967,16.5967;}
	.st66{fill:none;stroke:#241F21;stroke-width:0.9771;stroke-linecap:round;stroke-linejoin:round;stroke-miterlimit:1;}
	.st67{fill:#241F21;}
	.st68{fill:none;stroke:#241F21;stroke-width:0.7626;stroke-linecap:round;stroke-linejoin:round;stroke-miterlimit:1;}
	.st69{fill:none;stroke:#221E1F;stroke-width:1.2516;}
	.st70{fill:none;stroke:#221E1F;stroke-width:1.2516;stroke-miterlimit:10;}
	.st71{fill:none;stroke:#221E1F;stroke-width:0.6258;}
	.st72{fill:none;stroke:#221E1F;stroke-width:0.6258;stroke-dasharray:18.3883,4.6234;}
	.st73{fill:none;stroke:#221E1F;stroke-width:0.6258;stroke-dasharray:21.5524,17.6199;}
	.st74{fill:none;stroke:#221E1F;stroke-width:0.6258;stroke-dasharray:20.1706,6.4056;}
	.st75{fill:none;stroke:#221E1F;stroke-width:0.9654;}
	.st76{fill:none;stroke:#303030;stroke-width:0.9654;}
	.st77{fill:none;stroke:#303030;stroke-width:0.9017;}
	.st78{fill:none;stroke:#303030;stroke-width:0.9654;stroke-dasharray:14.0607,4.2416;}
	.st79{fill:none;stroke:#303030;stroke-width:0.9654;stroke-dasharray:13.938,4.1189;}
	.st80{fill:none;stroke:#303030;stroke-width:0.9654;stroke-dasharray:14.3912,4.5697;}
	.st81{fill:none;stroke:#303030;stroke-width:0.9654;stroke-dasharray:14.7358,4.9143;}
	.st82{fill:none;stroke:#221E1F;stroke-width:0.9654;stroke-dasharray:15.4321,4.6901;}
	.st83{fill:none;stroke:#221E1F;stroke-width:0.9654;stroke-linecap:round;stroke-linejoin:round;}
	.st84{fill:none;stroke:#303030;stroke-width:0.8686;stroke-miterlimit:10;}
	.st85{fill:none;stroke:#303030;stroke-width:0.9654;stroke-miterlimit:10;}
	.st86{fill:none;stroke:#221E1F;stroke-width:2.6151;}
	.st87{fill:none;stroke:#221E1F;stroke-width:1.816;}
	.st88{fill:none;stroke:#221E1F;stroke-width:1.816;stroke-dasharray:21.5996,5.873;}
	.st89{fill:none;stroke:#221E1F;stroke-width:1.816;stroke-dasharray:21.596,5.8693;}
	.st90{fill:none;stroke:#221E1F;stroke-width:1.816;stroke-dasharray:45.6036,34.3698;}
	.st91{fill:none;stroke:#221E1F;stroke-width:1.816;stroke-dasharray:45.5927,34.3589;}
	.st92{fill:none;stroke:#221E1F;stroke-width:1.816;stroke-dasharray:21.596,5.873;}
	.st93{fill:none;stroke:#221E1F;stroke-width:2.158;}
	.st94{fill:none;stroke:#221E1F;stroke-width:1.4986;}
	.st95{fill:none;stroke:#221E1F;stroke-width:1.4986;stroke-dasharray:19.9046,5.413;}
	.st96{fill:none;stroke:#221E1F;stroke-width:1.4986;stroke-dasharray:19.9016,5.41;}
	.st97{fill:none;stroke:#221E1F;stroke-width:1.4986;stroke-dasharray:35.6909,25.3385;}
	.st98{fill:none;stroke:#221E1F;stroke-width:0.8673;}
	.st99{fill:none;stroke:#303030;stroke-width:0.9125;stroke-miterlimit:10;}
	.st100{fill:none;stroke:#303030;stroke-width:8.808669e-02;stroke-linecap:round;stroke-linejoin:round;stroke-miterlimit:10;}
	.st101{fill:none;stroke:#303030;stroke-width:0.8786;stroke-miterlimit:10;}
	.st102{fill:none;stroke:#303030;stroke-width:0.8786;}
	.st103{fill:none;stroke:#221E1F;stroke-width:0.9125;}
	.st104{fill:none;stroke:#221E1F;stroke-width:0.9125;stroke-dasharray:15.7291,4.7273;}
	.st105{fill:none;stroke:#221E1F;stroke-width:0.9125;stroke-linecap:round;stroke-linejoin:round;}
	.st106{fill:#F0F0F0;stroke:#CCCCCC;stroke-miterlimit:10;}
	.st107{fill:#CCCCCC;}
</style>
<g id="Flat">
	<g>
		<g>
			<path class="st0" d="M787.1,648.3c-0.1-11.1-11.5-12.2-11.5-12.2c-8-1-80-13.5-92-15.5c-13.5-2.3-102.9-15.2-122.1-21.9
				c-24.1-8.5-28.8-37.9-29.8-95c-0.7-40.3-2.4-88-2-128.6c0.4-42.9-3.3-87.7,5.3-102.4c6.7-11.3,73-30.2,82.1-33.3
				c16.5-5.7,36.8-10.2,37.3-18.2c1.1-16.5,0.5-87.9-2.3-97.1c-4.9-16-23.2-32.1-44-35c-16.4-2.3-48.9-5.2-106.5-4.7
				c-57.6-0.5-90.1,2.4-106.5,4.7c-20.8,2.9-39.1,19.1-44,35c-2.8,9.2-3.4,80.6-2.3,97.1c0.5,8,20.9,12.5,37.3,18.2
				c9.2,3.2,75.5,22,82.1,33.3c8.6,14.6,4.9,59.5,5.3,102.4c0.4,40.7-1.3,88.4-2,128.6c-1,57.2-5.7,86.5-29.8,95
				c-19.2,6.7-108.6,19.7-122.1,21.9c-12,2-84,14.5-92,15.5c0,0-11.5,1-11.5,12.2c-0.1,20.3-0.3,29.9-0.3,29.9h285.3h0.7h285.3
				C787.4,678.2,787.2,668.6,787.1,648.3"/>
			<path class="st93" d="M787.1,648.3c-0.1-11.1-11.5-12.2-11.5-12.2c-8-1-80-13.5-92-15.5c-13.5-2.3-102.9-15.2-122.1-21.9
				c-24.1-8.5-28.8-37.9-29.8-95c-0.7-40.3-2.4-88-2-128.6c0.4-42.9-3.3-87.7,5.3-102.4c6.7-11.3,73-30.2,82.1-33.3
				c16.5-5.7,36.8-10.2,37.3-18.2c1.1-16.5,0.5-87.9-2.3-97.1c-4.9-16-23.2-32.1-44-35c-16.4-2.3-48.9-5.2-106.5-4.7
				c-57.6-0.5-90.1,2.4-106.5,4.7c-20.8,2.9-39.1,19.1-44,35c-2.8,9.2-3.4,80.6-2.3,97.1c0.5,8,20.9,12.5,37.3,18.2
				c9.2,3.2,75.5,22,82.1,33.3c8.6,14.6,4.9,59.5,5.3,102.4c0.4,40.7-1.3,88.4-2,128.6c-1,57.2-5.7,86.5-29.8,95
				c-19.2,6.7-108.6,19.7-122.1,21.9c-12,2-84,14.5-92,15.5c0,0-11.5,1-11.5,12.2c-0.1,20.3-0.3,29.9-0.3,29.9h285.3h0.7h285.3
				C787.4,678.2,787.2,668.6,787.1,648.3z"/>
		</g>
		<path class="st94" d="M236,753.8h531.5 M652.2,11.3v104.5 M350.3,13.4v117"/>
		<polygon class="st8" points="216.1,753.5 240.4,760.1 240.4,747 		"/>
		<polygon class="st8" points="763,760.1 787.4,753.5 763,747 		"/>
		<line class="st94" x1="493.7" y1="377.6" x2="509.8" y2="377.6"/>
		<polygon class="st8" points="498.2,383.9 473.8,377.4 498.2,370.8 		"/>
		<polygon class="st8" points="505.3,383.9 529.7,377.4 505.3,370.8 		"/>
		<line class="st94" x1="370.8" y1="39.4" x2="631" y2="39.4"/>
		<polygon class="st8" points="375.3,45.7 350.9,39.2 375.3,32.6 		"/>
		<polygon class="st8" points="626.6,45.7 651,39.2 626.6,32.6 		"/>
		<polyline class="st94" points="634.8,215.8 612.1,208.6 532.1,208.6 		"/>
		<polygon class="st8" points="632.5,208.5 653.7,222.2 628.5,221 		"/>
		<polyline class="st94" points="451.5,283.2 378.9,333 276.3,333 		"/>
		<polygon class="st8" points="444.3,280.5 468.1,272.1 451.7,291.3 		"/>
		<polyline class="st94" points="440.6,571.2 368,521.4 272.3,521.4 		"/>
		<polygon class="st8" points="440.5,563.5 456.9,582.7 433.1,574.3 		"/>
		<polyline class="st94" points="630,122.4 494.5,195.3 404.2,195.3 		"/>
		<polygon class="st8" points="623.1,119 647.6,113.3 629.3,130.5 		"/>
		<polyline class="st94" points="807,632.5 848.6,608.5 945.7,608.5 		"/>
		<polygon class="st8" points="814,635.7 789.6,642.2 807.4,624.3 		"/>
		<polyline class="st94" points="561.3,110.9 559.1,143.2 430,143.2 		"/>
		<polygon class="st8" points="554.8,114.9 563,91 567.8,115.8 		"/>
		<polyline class="st94" points="551.8,512.8 586.3,511.3 702.2,511.3 		"/>
		<polygon class="st8" points="556.6,518.8 531.9,513.4 556,505.8 		"/>
		<line class="st94" x1="121.7" y1="254.6" x2="121.7" y2="104.2"/>
		<polygon class="st8" points="128,250.1 121.5,274.5 114.9,250.1 		"/>
		<polygon class="st8" points="128,108.7 121.5,84.3 114.9,108.7 		"/>
		<line class="st94" x1="265.1" y1="202.1" x2="265.1" y2="104.2"/>
		<polygon class="st8" points="271.4,197.7 264.8,222.1 258.3,197.7 		"/>
		<polygon class="st8" points="271.4,108.6 264.8,84.2 258.3,108.6 		"/>
		<line class="st94" x1="94.9" y1="658.1" x2="94.9" y2="608.5"/>
		<polygon class="st8" points="101.1,653.7 94.6,678 88.1,653.7 		"/>
		<polygon class="st8" points="101.1,612.9 94.6,588.6 88.1,612.9 		"/>
		<line class="st94" x1="35.8" y1="658.2" x2="35.8" y2="104.3"/>
		<polygon class="st8" points="42.1,653.7 35.6,678.1 29,653.7 		"/>
		<polygon class="st8" points="42.1,108.8 35.6,84.4 29,108.8 		"/>
		<line class="st95" x1="549.5" y1="261.5" x2="505.6" y2="272.4"/>
		<line class="st96" x1="450.2" y1="261.5" x2="494.1" y2="272.4"/>
		<path class="st94" d="M787.2,678.6V762 M216.1,678.6V762 M22.6,678.4h765.8 M544.5,381.8h132.2 M157.9,639.1h60.6 M76.6,587.8
			h423.8 M256.9,224.9h91.6 M110.8,276h388.6 M499.1,83.6H28.3"/>
		<line class="st97" x1="499.6" y1="74.1" x2="499.6" y2="414.9"/>
		<path class="st94" d="M181.6,617.9v-29.3 M500,417.7v275.7"/>
		<polygon class="st8" points="187.9,613.4 181.3,637.8 174.8,613.4 		"/>
		<line class="st94" x1="181.6" y1="699.5" x2="181.6" y2="731"/>
		<polygon class="st8" points="175.4,704 181.9,679.6 188.4,704 		"/>
		<g>
			<path class="st8" d="M471.3,28.2v-4.1h-7.4v-1.9l7.8-11.1h1.7v11.1h2.3v1.9h-2.3v4.1H471.3z M471.3,22.1v-7.7l-5.4,7.7H471.3z"/>
			<path class="st8" d="M484.6,28.2v-4.1h-7.4v-1.9L485,11h1.7v11.1h2.3v1.9h-2.3v4.1H484.6z M484.6,22.1v-7.7l-5.4,7.7H484.6z"/>
			<path class="st8" d="M492.4,28.2v-2.4h2.4v2.4H492.4z"/>
			<path class="st8" d="M504.6,28.2v-4.1h-7.4v-1.9L505,11h1.7v11.1h2.3v1.9h-2.3v4.1H504.6z M504.6,22.1v-7.7l-5.4,7.7H504.6z"/>
			<path class="st8" d="M511.2,23.7l2.2-0.2c0.2,1.1,0.5,1.9,1.1,2.4c0.6,0.5,1.3,0.8,2.2,0.8c1,0,1.9-0.4,2.6-1.1
				c0.7-0.8,1.1-1.8,1.1-3c0-1.2-0.3-2.2-1-2.8c-0.7-0.7-1.6-1-2.7-1c-0.7,0-1.3,0.2-1.8,0.5c-0.5,0.3-1,0.7-1.3,1.2l-2-0.3l1.7-8.8
				h8.5v2h-6.8l-0.9,4.6c1-0.7,2.1-1.1,3.2-1.1c1.5,0,2.8,0.5,3.8,1.6s1.5,2.4,1.5,4c0,1.6-0.5,2.9-1.4,4c-1.1,1.4-2.6,2.1-4.5,2.1
				c-1.6,0-2.8-0.4-3.8-1.3S511.3,25.1,511.2,23.7z"/>
		</g>
		<g>
			<path class="st8" d="M535,200.3v-17.2h7.6c1.5,0,2.7,0.2,3.5,0.5c0.8,0.3,1.4,0.9,1.9,1.6c0.5,0.8,0.7,1.6,0.7,2.6
				c0,1.2-0.4,2.2-1.2,3.1c-0.8,0.8-2,1.4-3.7,1.6c0.6,0.3,1.1,0.6,1.4,0.9c0.7,0.6,1.3,1.4,1.9,2.3l3,4.7h-2.9l-2.3-3.6
				c-0.7-1-1.2-1.8-1.6-2.4c-0.4-0.5-0.8-0.9-1.2-1.1c-0.3-0.2-0.7-0.4-1-0.5c-0.3-0.1-0.7-0.1-1.3-0.1h-2.6v7.6H535z M537.2,190.8
				h4.9c1,0,1.9-0.1,2.4-0.3c0.6-0.2,1-0.6,1.3-1s0.5-1,0.5-1.5c0-0.8-0.3-1.5-0.9-2c-0.6-0.5-1.5-0.8-2.8-0.8h-5.4V190.8z"/>
			<path class="st8" d="M566,200.3h-2.1v-13.4c-0.5,0.5-1.2,1-2,1.5c-0.8,0.5-1.6,0.8-2.2,1.1v-2c1.2-0.6,2.2-1.2,3.1-2
				c0.9-0.8,1.5-1.6,1.9-2.3h1.4V200.3z"/>
			<path class="st8" d="M572.6,200.3v-2.4h2.4v2.4H572.6z"/>
			<path class="st8" d="M578,195.8l2.2-0.2c0.2,1.1,0.5,1.9,1.1,2.4c0.6,0.5,1.3,0.8,2.2,0.8c1,0,1.9-0.4,2.6-1.1
				c0.7-0.8,1.1-1.8,1.1-3c0-1.2-0.3-2.2-1-2.8c-0.7-0.7-1.6-1-2.7-1c-0.7,0-1.3,0.2-1.8,0.5c-0.5,0.3-1,0.7-1.3,1.2l-2-0.3l1.7-8.8
				h8.5v2h-6.8l-0.9,4.6c1-0.7,2.1-1.1,3.2-1.1c1.5,0,2.8,0.5,3.8,1.6s1.5,2.4,1.5,4c0,1.6-0.5,2.9-1.4,4c-1.1,1.4-2.6,2.1-4.5,2.1
				c-1.6,0-2.8-0.4-3.8-1.3S578.2,197.3,578,195.8z"/>
			<path class="st8" d="M591.7,196.4l2-0.2c0.2,1,0.5,1.6,1,2.1c0.5,0.4,1.1,0.6,1.9,0.6c0.6,0,1.2-0.1,1.7-0.4
				c0.5-0.3,0.9-0.7,1.2-1.2c0.3-0.5,0.6-1.2,0.8-2c0.2-0.8,0.3-1.7,0.3-2.6c0-0.1,0-0.2,0-0.4c-0.4,0.7-1,1.2-1.7,1.6
				c-0.7,0.4-1.5,0.6-2.4,0.6c-1.4,0-2.6-0.5-3.6-1.5s-1.5-2.4-1.5-4.1c0-1.7,0.5-3.1,1.5-4.2c1-1.1,2.3-1.6,3.9-1.6
				c1.1,0,2.1,0.3,3.1,0.9s1.6,1.5,2.1,2.6s0.7,2.7,0.7,4.8c0,2.2-0.2,3.9-0.7,5.2c-0.5,1.3-1.2,2.3-2.1,3c-0.9,0.7-2,1-3.3,1
				c-1.3,0-2.4-0.4-3.3-1.1C592.4,198.8,591.9,197.7,591.7,196.4z M600.3,188.8c0-1.2-0.3-2.2-1-2.9c-0.6-0.7-1.4-1.1-2.3-1.1
				c-0.9,0-1.8,0.4-2.4,1.1c-0.7,0.8-1,1.8-1,3c0,1.1,0.3,2,1,2.7c0.7,0.7,1.5,1,2.4,1c1,0,1.8-0.3,2.4-1
				C600,191,600.3,190,600.3,188.8z"/>
		</g>
		<g>
			<path class="st8" d="M587.8,500.7v-17.2h7.6c1.5,0,2.7,0.2,3.5,0.5c0.8,0.3,1.4,0.9,1.9,1.6c0.5,0.8,0.7,1.6,0.7,2.6
				c0,1.2-0.4,2.2-1.2,3.1c-0.8,0.8-2,1.4-3.7,1.6c0.6,0.3,1.1,0.6,1.4,0.9c0.7,0.6,1.3,1.4,1.9,2.3l3,4.7h-2.9l-2.3-3.6
				c-0.7-1-1.2-1.8-1.6-2.4c-0.4-0.5-0.8-0.9-1.2-1.1c-0.3-0.2-0.7-0.4-1-0.5c-0.3-0.1-0.7-0.1-1.3-0.1h-2.6v7.6H587.8z
				 M590.1,491.1h4.9c1,0,1.9-0.1,2.4-0.3c0.6-0.2,1-0.6,1.3-1c0.3-0.5,0.5-1,0.5-1.5c0-0.8-0.3-1.5-0.9-2c-0.6-0.5-1.5-0.8-2.8-0.8
				h-5.4V491.1z"/>
			<path class="st8" d="M618.8,500.7h-2.1v-13.4c-0.5,0.5-1.2,1-2,1.5c-0.8,0.5-1.6,0.8-2.2,1.1v-2c1.2-0.6,2.2-1.2,3.1-2
				c0.9-0.8,1.5-1.6,1.9-2.3h1.4V500.7z"/>
			<path class="st8" d="M624.6,496.7l2-0.2c0.2,1,0.5,1.6,1,2.1c0.5,0.4,1.1,0.6,1.9,0.6c0.6,0,1.2-0.1,1.7-0.4
				c0.5-0.3,0.9-0.7,1.2-1.2c0.3-0.5,0.6-1.2,0.8-2c0.2-0.8,0.3-1.7,0.3-2.6c0-0.1,0-0.2,0-0.4c-0.4,0.7-1,1.2-1.7,1.6
				c-0.7,0.4-1.5,0.6-2.4,0.6c-1.4,0-2.6-0.5-3.6-1.5s-1.5-2.4-1.5-4.1c0-1.7,0.5-3.1,1.5-4.2c1-1.1,2.3-1.6,3.9-1.6
				c1.1,0,2.1,0.3,3.1,0.9s1.6,1.5,2.1,2.6s0.7,2.7,0.7,4.8c0,2.2-0.2,3.9-0.7,5.2c-0.5,1.3-1.2,2.3-2.1,3c-0.9,0.7-2,1-3.3,1
				c-1.3,0-2.4-0.4-3.3-1.1S624.7,498.1,624.6,496.7z M633.2,489.2c0-1.2-0.3-2.2-1-2.9c-0.6-0.7-1.4-1.1-2.3-1.1
				c-0.9,0-1.8,0.4-2.4,1.1c-0.7,0.8-1,1.8-1,3c0,1.1,0.3,2,1,2.7c0.7,0.7,1.5,1,2.4,1c1,0,1.8-0.3,2.4-1
				C632.9,491.3,633.2,490.4,633.2,489.2z"/>
			<path class="st8" d="M637.6,492.2c0-2,0.2-3.7,0.6-4.9c0.4-1.2,1-2.2,1.9-2.9c0.8-0.7,1.9-1,3.1-1c0.9,0,1.7,0.2,2.4,0.6
				c0.7,0.4,1.3,0.9,1.7,1.6c0.5,0.7,0.8,1.5,1.1,2.6s0.4,2.4,0.4,4.1c0,2-0.2,3.6-0.6,4.9c-0.4,1.2-1,2.2-1.9,2.9
				c-0.8,0.7-1.9,1-3.1,1c-1.7,0-3-0.6-3.9-1.8C638.1,497.8,637.6,495.5,637.6,492.2z M639.7,492.2c0,2.8,0.3,4.7,1,5.6
				s1.5,1.4,2.4,1.4s1.8-0.5,2.4-1.4c0.7-0.9,1-2.8,1-5.6c0-2.8-0.3-4.7-1-5.6c-0.7-0.9-1.5-1.4-2.5-1.4c-1,0-1.7,0.4-2.3,1.2
				C640.1,487.5,639.7,489.4,639.7,492.2z"/>
			<path class="st8" d="M652.1,500.7v-2.4h2.4v2.4H652.1z"/>
		</g>
		<g>
			<path class="st8" d="M675.2,496.2l2.2-0.2c0.2,1.1,0.5,1.9,1.1,2.4c0.6,0.5,1.3,0.8,2.2,0.8c1,0,1.9-0.4,2.6-1.1
				c0.7-0.8,1.1-1.8,1.1-3c0-1.2-0.3-2.1-1-2.8c-0.7-0.7-1.6-1-2.7-1c-0.7,0-1.3,0.2-1.8,0.5c-0.5,0.3-1,0.7-1.3,1.2l-2-0.3l1.7-8.8
				h8.5v2h-6.8l-0.9,4.6c1-0.7,2.1-1.1,3.2-1.1c1.5,0,2.8,0.5,3.8,1.6s1.5,2.4,1.5,4c0,1.6-0.5,2.9-1.4,4c-1.1,1.4-2.6,2.1-4.5,2.1
				c-1.6,0-2.8-0.4-3.8-1.3S675.3,497.7,675.2,496.2z"/>
		</g>
		<g>
			<path class="st8" d="M851.7,596.6v-17.2h7.6c1.5,0,2.7,0.2,3.5,0.5c0.8,0.3,1.4,0.9,1.9,1.6c0.5,0.8,0.7,1.6,0.7,2.6
				c0,1.2-0.4,2.2-1.2,3.1c-0.8,0.8-2,1.4-3.7,1.6c0.6,0.3,1.1,0.6,1.4,0.9c0.7,0.6,1.3,1.4,1.9,2.3l3,4.7H864l-2.3-3.6
				c-0.7-1-1.2-1.8-1.6-2.4c-0.4-0.5-0.8-0.9-1.2-1.1c-0.3-0.2-0.7-0.4-1-0.5c-0.3-0.1-0.7-0.1-1.3-0.1H854v7.6H851.7z M854,587h4.9
				c1,0,1.9-0.1,2.4-0.3c0.6-0.2,1-0.6,1.3-1c0.3-0.5,0.5-1,0.5-1.5c0-0.8-0.3-1.5-0.9-2c-0.6-0.5-1.5-0.8-2.8-0.8H854V587z"/>
			<path class="st8" d="M882.8,596.6h-2.1v-13.4c-0.5,0.5-1.2,1-2,1.5c-0.8,0.5-1.6,0.8-2.2,1.1v-2c1.2-0.6,2.2-1.2,3.1-2
				c0.9-0.8,1.5-1.6,1.9-2.3h1.4V596.6z"/>
			<path class="st8" d="M889.4,596.6v-2.4h2.4v2.4H889.4z"/>
			<path class="st8" d="M894.8,592.1l2.2-0.2c0.2,1.1,0.5,1.9,1.1,2.4c0.6,0.5,1.3,0.8,2.2,0.8c1,0,1.9-0.4,2.6-1.1
				c0.7-0.8,1.1-1.8,1.1-3c0-1.2-0.3-2.1-1-2.8c-0.7-0.7-1.6-1-2.7-1c-0.7,0-1.3,0.2-1.8,0.5c-0.5,0.3-1,0.7-1.3,1.2l-2-0.3l1.7-8.8
				h8.5v2h-6.8l-0.9,4.6c1-0.7,2.1-1.1,3.2-1.1c1.5,0,2.8,0.5,3.8,1.6s1.5,2.4,1.5,4c0,1.6-0.5,2.9-1.4,4c-1.1,1.4-2.6,2.1-4.5,2.1
				c-1.6,0-2.8-0.4-3.8-1.3S895,593.6,894.8,592.1z"/>
			<path class="st8" d="M908.5,592.7l2-0.2c0.2,1,0.5,1.6,1,2.1c0.5,0.4,1.1,0.6,1.9,0.6c0.6,0,1.2-0.1,1.7-0.4
				c0.5-0.3,0.9-0.7,1.2-1.2c0.3-0.5,0.6-1.2,0.8-2c0.2-0.8,0.3-1.7,0.3-2.6c0-0.1,0-0.2,0-0.4c-0.4,0.7-1,1.2-1.7,1.6
				c-0.7,0.4-1.5,0.6-2.4,0.6c-1.4,0-2.6-0.5-3.6-1.5s-1.5-2.4-1.5-4.1c0-1.7,0.5-3.1,1.5-4.2c1-1.1,2.3-1.6,3.9-1.6
				c1.1,0,2.1,0.3,3.1,0.9c0.9,0.6,1.6,1.5,2.1,2.6s0.7,2.7,0.7,4.8c0,2.2-0.2,3.9-0.7,5.2c-0.5,1.3-1.2,2.3-2.1,3
				c-0.9,0.7-2,1-3.3,1c-1.3,0-2.4-0.4-3.3-1.1S908.7,594,908.5,592.7z M917.1,585.1c0-1.2-0.3-2.2-1-2.9c-0.6-0.7-1.4-1.1-2.3-1.1
				c-0.9,0-1.8,0.4-2.4,1.1c-0.7,0.8-1,1.8-1,3c0,1.1,0.3,2,1,2.7c0.7,0.7,1.5,1,2.4,1c1,0,1.8-0.3,2.4-1
				C916.8,587.2,917.1,586.3,917.1,585.1z"/>
		</g>
		<g>
			<path class="st8" d="M445.2,135.6v-17.2h7.6c1.5,0,2.7,0.2,3.5,0.5c0.8,0.3,1.4,0.9,1.9,1.6c0.5,0.8,0.7,1.6,0.7,2.6
				c0,1.2-0.4,2.2-1.2,3.1c-0.8,0.8-2,1.4-3.7,1.6c0.6,0.3,1.1,0.6,1.4,0.9c0.7,0.6,1.3,1.4,1.9,2.3l3,4.7h-2.9l-2.3-3.6
				c-0.7-1-1.2-1.8-1.6-2.4c-0.4-0.5-0.8-0.9-1.2-1.1c-0.3-0.2-0.7-0.4-1-0.5c-0.3-0.1-0.7-0.1-1.3-0.1h-2.6v7.6H445.2z M447.4,126
				h4.9c1,0,1.9-0.1,2.4-0.3c0.6-0.2,1-0.6,1.3-1s0.5-1,0.5-1.5c0-0.8-0.3-1.5-0.9-2c-0.6-0.5-1.5-0.8-2.8-0.8h-5.4V126z"/>
			<path class="st8" d="M479.3,133.6v2H468c0-0.5,0.1-1,0.2-1.5c0.3-0.8,0.8-1.5,1.4-2.3c0.6-0.7,1.6-1.6,2.8-2.6
				c1.9-1.5,3.1-2.7,3.8-3.6c0.7-0.9,1-1.7,1-2.5c0-0.8-0.3-1.5-0.9-2.1c-0.6-0.6-1.4-0.9-2.3-0.9c-1,0-1.8,0.3-2.4,0.9
				c-0.6,0.6-0.9,1.5-0.9,2.5l-2.2-0.2c0.1-1.6,0.7-2.8,1.7-3.7c1-0.8,2.3-1.3,3.9-1.3c1.6,0,3,0.5,3.9,1.4s1.4,2,1.4,3.4
				c0,0.7-0.1,1.4-0.4,2s-0.7,1.4-1.4,2.1c-0.7,0.7-1.7,1.7-3.2,3c-1.3,1.1-2.1,1.8-2.4,2.2c-0.4,0.4-0.7,0.8-0.9,1.1H479.3z"/>
			<path class="st8" d="M492.7,133.6v2h-11.3c0-0.5,0.1-1,0.2-1.5c0.3-0.8,0.8-1.5,1.4-2.3c0.6-0.7,1.6-1.6,2.8-2.6
				c1.9-1.5,3.1-2.7,3.8-3.6c0.7-0.9,1-1.7,1-2.5c0-0.8-0.3-1.5-0.9-2.1c-0.6-0.6-1.4-0.9-2.3-0.9c-1,0-1.8,0.3-2.4,0.9
				c-0.6,0.6-0.9,1.5-0.9,2.5l-2.2-0.2c0.1-1.6,0.7-2.8,1.7-3.7c1-0.8,2.3-1.3,3.9-1.3c1.6,0,3,0.5,3.9,1.4s1.4,2,1.4,3.4
				c0,0.7-0.1,1.4-0.4,2s-0.7,1.4-1.4,2.1c-0.7,0.7-1.7,1.7-3.2,3c-1.3,1.1-2.1,1.8-2.4,2.2c-0.4,0.4-0.7,0.8-0.9,1.1H492.7z"/>
			<path class="st8" d="M498.2,126.3c-0.9-0.3-1.5-0.8-1.9-1.4c-0.4-0.6-0.6-1.3-0.6-2.1c0-1.2,0.4-2.3,1.3-3.1
				c0.9-0.9,2.1-1.3,3.6-1.3c1.5,0,2.7,0.4,3.6,1.3c0.9,0.9,1.4,1.9,1.4,3.2c0,0.8-0.2,1.5-0.6,2.1c-0.4,0.6-1.1,1-1.9,1.4
				c1.1,0.3,1.9,0.9,2.4,1.7c0.6,0.8,0.8,1.7,0.8,2.7c0,1.5-0.5,2.7-1.6,3.7c-1,1-2.4,1.5-4.1,1.5c-1.7,0-3.1-0.5-4.1-1.5
				c-1-1-1.6-2.3-1.6-3.8c0-1.1,0.3-2.1,0.8-2.8C496.3,127.1,497.1,126.6,498.2,126.3z M497.1,130.6c0,0.6,0.1,1.2,0.4,1.7
				c0.3,0.6,0.7,1,1.3,1.3c0.6,0.3,1.2,0.5,1.8,0.5c1,0,1.8-0.3,2.5-1c0.7-0.6,1-1.5,1-2.5c0-1-0.3-1.9-1-2.5c-0.7-0.7-1.5-1-2.5-1
				c-1,0-1.8,0.3-2.5,1C497.4,128.8,497.1,129.7,497.1,130.6z M497.8,122.7c0,0.8,0.3,1.5,0.8,2c0.5,0.5,1.2,0.8,2,0.8
				c0.8,0,1.5-0.3,2-0.8c0.5-0.5,0.8-1.1,0.8-1.9c0-0.8-0.3-1.4-0.8-1.9c-0.5-0.5-1.2-0.8-2-0.8c-0.8,0-1.5,0.3-2,0.8
				C498,121.4,497.8,122,497.8,122.7z"/>
			<path class="st8" d="M509.5,135.6v-2.4h2.4v2.4H509.5z"/>
		</g>
		<g>
			<path class="st8" d="M543.5,122.6l-2.1,0.2c-0.2-0.8-0.5-1.4-0.8-1.8c-0.6-0.6-1.3-0.9-2.1-0.9c-0.7,0-1.3,0.2-1.8,0.6
				c-0.7,0.5-1.2,1.2-1.6,2.1c-0.4,0.9-0.6,2.3-0.6,4c0.5-0.8,1.1-1.3,1.9-1.7c0.7-0.4,1.5-0.6,2.3-0.6c1.4,0,2.6,0.5,3.6,1.6
				s1.5,2.4,1.5,4c0,1.1-0.2,2.1-0.7,3c-0.5,0.9-1.1,1.6-1.9,2.1s-1.7,0.7-2.8,0.7c-1.8,0-3.2-0.6-4.3-1.9c-1.1-1.3-1.7-3.4-1.7-6.4
				c0-3.3,0.6-5.7,1.8-7.2c1.1-1.3,2.5-2,4.3-2c1.4,0,2.5,0.4,3.3,1.1C542.8,120.3,543.3,121.3,543.5,122.6z M534.9,130
				c0,0.7,0.2,1.4,0.5,2.1c0.3,0.7,0.7,1.2,1.3,1.5c0.6,0.3,1.1,0.5,1.7,0.5c0.9,0,1.7-0.4,2.3-1.1c0.6-0.7,1-1.7,1-2.9
				c0-1.2-0.3-2.1-0.9-2.8c-0.6-0.7-1.4-1-2.4-1c-1,0-1.8,0.3-2.4,1C535.2,128,534.9,128.9,534.9,130z"/>
		</g>
		<g>
			<path class="st8" d="M464.3,731.6c-0.9-0.3-1.5-0.8-1.9-1.4c-0.4-0.6-0.6-1.3-0.6-2.1c0-1.2,0.4-2.3,1.3-3.1s2.1-1.3,3.6-1.3
				c1.5,0,2.7,0.4,3.6,1.3s1.4,1.9,1.4,3.2c0,0.8-0.2,1.5-0.6,2.1c-0.4,0.6-1.1,1-1.9,1.4c1.1,0.3,1.9,0.9,2.4,1.7
				c0.6,0.8,0.8,1.7,0.8,2.7c0,1.5-0.5,2.7-1.6,3.7s-2.4,1.5-4.1,1.5c-1.7,0-3.1-0.5-4.1-1.5c-1-1-1.6-2.3-1.6-3.8
				c0-1.1,0.3-2.1,0.8-2.8C462.5,732.4,463.3,731.9,464.3,731.6z M463.2,735.9c0,0.6,0.1,1.2,0.4,1.7c0.3,0.6,0.7,1,1.3,1.3
				c0.6,0.3,1.2,0.5,1.8,0.5c1,0,1.8-0.3,2.5-1c0.7-0.6,1-1.5,1-2.5c0-1-0.3-1.9-1-2.5c-0.7-0.7-1.5-1-2.5-1c-1,0-1.8,0.3-2.5,1
				S463.2,735,463.2,735.9z M463.9,728c0,0.8,0.3,1.5,0.8,2c0.5,0.5,1.2,0.8,2,0.8c0.8,0,1.5-0.3,2-0.8c0.5-0.5,0.8-1.1,0.8-1.9
				c0-0.8-0.3-1.4-0.8-1.9c-0.5-0.5-1.2-0.8-2-0.8c-0.8,0-1.5,0.3-2,0.8C464.2,726.7,463.9,727.3,463.9,728z"/>
			<path class="st8" d="M485.5,738.9v2h-11.3c0-0.5,0.1-1,0.2-1.5c0.3-0.8,0.8-1.5,1.4-2.3c0.6-0.8,1.6-1.6,2.8-2.6
				c1.9-1.5,3.1-2.7,3.8-3.6c0.7-0.9,1-1.7,1-2.5c0-0.8-0.3-1.5-0.9-2.1c-0.6-0.6-1.4-0.9-2.3-0.9c-1,0-1.8,0.3-2.4,0.9
				c-0.6,0.6-0.9,1.5-0.9,2.5l-2.2-0.2c0.1-1.6,0.7-2.8,1.7-3.7s2.3-1.3,3.9-1.3c1.6,0,3,0.5,3.9,1.4s1.4,2,1.4,3.4
				c0,0.7-0.1,1.4-0.4,2s-0.7,1.4-1.4,2.1c-0.7,0.7-1.7,1.7-3.2,3c-1.3,1.1-2.1,1.8-2.4,2.2c-0.4,0.4-0.7,0.8-0.9,1.1H485.5z"/>
			<path class="st8" d="M488.9,740.9v-2.4h2.4v2.4H488.9z"/>
			<path class="st8" d="M494.4,736.4l2.2-0.2c0.2,1.1,0.5,1.9,1.1,2.4c0.6,0.5,1.3,0.8,2.2,0.8c1,0,1.9-0.4,2.6-1.1
				c0.7-0.8,1.1-1.8,1.1-3c0-1.2-0.3-2.1-1-2.8c-0.7-0.7-1.6-1-2.7-1c-0.7,0-1.3,0.2-1.8,0.5c-0.5,0.3-1,0.7-1.3,1.2l-2-0.3l1.7-8.8
				h8.5v2h-6.8l-0.9,4.6c1-0.7,2.1-1.1,3.2-1.1c1.5,0,2.8,0.5,3.8,1.6s1.5,2.4,1.5,4c0,1.6-0.5,2.9-1.4,4c-1.1,1.4-2.6,2.1-4.5,2.1
				c-1.6,0-2.8-0.4-3.8-1.3S494.6,737.8,494.4,736.4z"/>
			<path class="st8" d="M507.8,736.4l2.2-0.2c0.2,1.1,0.5,1.9,1.1,2.4c0.6,0.5,1.3,0.8,2.2,0.8c1,0,1.9-0.4,2.6-1.1
				c0.7-0.8,1.1-1.8,1.1-3c0-1.2-0.3-2.1-1-2.8c-0.7-0.7-1.6-1-2.7-1c-0.7,0-1.3,0.2-1.8,0.5c-0.5,0.3-1,0.7-1.3,1.2l-2-0.3l1.7-8.8
				h8.5v2h-6.8l-0.9,4.6c1-0.7,2.1-1.1,3.2-1.1c1.5,0,2.8,0.5,3.8,1.6s1.5,2.4,1.5,4c0,1.6-0.5,2.9-1.4,4c-1.1,1.4-2.6,2.1-4.5,2.1
				c-1.6,0-2.8-0.4-3.8-1.3S507.9,737.8,507.8,736.4z"/>
		</g>
		<g>
			<path class="st8" d="M587.6,360.6c-0.9-0.3-1.5-0.8-1.9-1.4c-0.4-0.6-0.6-1.3-0.6-2.1c0-1.2,0.4-2.3,1.3-3.1
				c0.9-0.9,2.1-1.3,3.6-1.3c1.5,0,2.7,0.4,3.6,1.3c0.9,0.9,1.4,1.9,1.4,3.2c0,0.8-0.2,1.5-0.6,2.1c-0.4,0.6-1.1,1-1.9,1.4
				c1.1,0.3,1.9,0.9,2.4,1.7c0.6,0.8,0.8,1.7,0.8,2.7c0,1.5-0.5,2.7-1.6,3.7c-1,1-2.4,1.5-4.1,1.5c-1.7,0-3.1-0.5-4.1-1.5
				c-1-1-1.6-2.3-1.6-3.8c0-1.1,0.3-2.1,0.8-2.8C585.7,361.3,586.5,360.8,587.6,360.6z M586.5,364.9c0,0.6,0.1,1.2,0.4,1.7
				c0.3,0.6,0.7,1,1.3,1.3c0.6,0.3,1.2,0.5,1.8,0.5c1,0,1.8-0.3,2.5-1c0.7-0.6,1-1.5,1-2.5c0-1-0.3-1.9-1-2.5c-0.7-0.7-1.5-1-2.5-1
				c-1,0-1.8,0.3-2.5,1S586.5,363.9,586.5,364.9z M587.2,357c0,0.8,0.3,1.5,0.8,2c0.5,0.5,1.2,0.8,2,0.8c0.8,0,1.5-0.3,2-0.8
				c0.5-0.5,0.8-1.1,0.8-1.9c0-0.8-0.3-1.4-0.8-1.9c-0.5-0.5-1.2-0.8-2-0.8c-0.8,0-1.5,0.3-2,0.8C587.4,355.7,587.2,356.3,587.2,357
				z"/>
			<path class="st8" d="M598.9,369.9v-2.4h2.4v2.4H598.9z"/>
			<path class="st8" d="M604.3,365.3l2.1-0.3c0.2,1.2,0.7,2.1,1.2,2.6c0.6,0.5,1.3,0.8,2.1,0.8c1,0,1.8-0.3,2.5-1
				c0.7-0.7,1-1.5,1-2.6c0-1-0.3-1.8-0.9-2.4c-0.6-0.6-1.4-0.9-2.4-0.9c-0.4,0-0.9,0.1-1.5,0.2l0.2-1.8c0.1,0,0.3,0,0.3,0
				c0.9,0,1.7-0.2,2.4-0.7c0.7-0.5,1.1-1.2,1.1-2.2c0-0.8-0.3-1.4-0.8-1.9c-0.5-0.5-1.2-0.8-2-0.8c-0.8,0-1.5,0.3-2,0.8
				c-0.5,0.5-0.9,1.3-1.1,2.3l-2.1-0.4c0.3-1.4,0.8-2.5,1.8-3.3c0.9-0.8,2-1.2,3.4-1.2c0.9,0,1.8,0.2,2.6,0.6c0.8,0.4,1.4,1,1.8,1.6
				c0.4,0.7,0.6,1.4,0.6,2.2c0,0.7-0.2,1.4-0.6,2c-0.4,0.6-1,1.1-1.8,1.5c1,0.2,1.8,0.7,2.4,1.5c0.6,0.7,0.8,1.7,0.8,2.8
				c0,1.5-0.5,2.8-1.6,3.8s-2.5,1.6-4.1,1.6c-1.5,0-2.8-0.4-3.8-1.3S604.5,366.8,604.3,365.3z"/>
			<path class="st8" d="M617.7,365.3l2.1-0.3c0.2,1.2,0.7,2.1,1.2,2.6c0.6,0.5,1.3,0.8,2.1,0.8c1,0,1.8-0.3,2.5-1
				c0.7-0.7,1-1.5,1-2.6c0-1-0.3-1.8-0.9-2.4c-0.6-0.6-1.4-0.9-2.4-0.9c-0.4,0-0.9,0.1-1.5,0.2l0.2-1.8c0.1,0,0.3,0,0.3,0
				c0.9,0,1.7-0.2,2.4-0.7c0.7-0.5,1.1-1.2,1.1-2.2c0-0.8-0.3-1.4-0.8-1.9c-0.5-0.5-1.2-0.8-2-0.8c-0.8,0-1.5,0.3-2,0.8
				c-0.5,0.5-0.9,1.3-1.1,2.3l-2.1-0.4c0.3-1.4,0.8-2.5,1.8-3.3c0.9-0.8,2-1.2,3.4-1.2c0.9,0,1.8,0.2,2.6,0.6c0.8,0.4,1.4,1,1.8,1.6
				c0.4,0.7,0.6,1.4,0.6,2.2c0,0.7-0.2,1.4-0.6,2c-0.4,0.6-1,1.1-1.8,1.5c1,0.2,1.8,0.7,2.4,1.5c0.6,0.7,0.8,1.7,0.8,2.8
				c0,1.5-0.5,2.8-1.6,3.8s-2.5,1.6-4.1,1.6c-1.5,0-2.8-0.4-3.8-1.3S617.8,366.8,617.7,365.3z"/>
		</g>
		<g>
			<path class="st8" d="M14.3,412.7c-0.3,0.9-0.8,1.5-1.4,1.9c-0.6,0.4-1.3,0.6-2.1,0.6c-1.2,0-2.3-0.4-3.1-1.3s-1.3-2.1-1.3-3.6
				c0-1.5,0.4-2.7,1.3-3.6c0.9-0.9,1.9-1.4,3.2-1.4c0.8,0,1.5,0.2,2.1,0.6c0.6,0.4,1,1.1,1.4,1.9c0.3-1.1,0.9-1.9,1.7-2.4
				c0.8-0.6,1.7-0.8,2.7-0.8c1.5,0,2.7,0.5,3.7,1.6c1,1,1.5,2.4,1.5,4.1c0,1.7-0.5,3.1-1.5,4.1s-2.3,1.6-3.8,1.6
				c-1.1,0-2.1-0.3-2.8-0.8C15.1,414.5,14.6,413.7,14.3,412.7z M10.7,413.1c0.8,0,1.5-0.3,2-0.8c0.5-0.5,0.8-1.2,0.8-2
				c0-0.8-0.3-1.5-0.8-2c-0.5-0.5-1.1-0.8-1.9-0.8c-0.8,0-1.4,0.3-1.9,0.8c-0.5,0.5-0.8,1.2-0.8,2c0,0.8,0.3,1.5,0.8,2
				C9.4,412.8,10,413.1,10.7,413.1z M18.6,413.8c0.6,0,1.2-0.1,1.7-0.4c0.6-0.3,1-0.7,1.3-1.3s0.5-1.2,0.5-1.8c0-1-0.3-1.8-1-2.5
				c-0.6-0.7-1.5-1-2.5-1c-1,0-1.9,0.3-2.5,1c-0.7,0.7-1,1.5-1,2.5c0,1,0.3,1.8,1,2.5S17.7,413.8,18.6,413.8z"/>
			<path class="st8" d="M19.1,402.6l-0.2-2.2c1.1-0.2,1.9-0.5,2.4-1.1c0.5-0.6,0.8-1.3,0.8-2.2c0-1-0.4-1.9-1.1-2.6
				c-0.8-0.7-1.8-1.1-3-1.1c-1.2,0-2.1,0.3-2.8,1c-0.7,0.7-1,1.6-1,2.7c0,0.7,0.2,1.3,0.5,1.8c0.3,0.5,0.7,1,1.2,1.3l-0.3,2
				l-8.8-1.7V392h2v6.8l4.6,0.9c-0.7-1-1.1-2.1-1.1-3.2c0-1.5,0.5-2.8,1.6-3.8c1-1,2.4-1.5,4-1.5c1.6,0,2.9,0.5,4,1.4
				c1.4,1.1,2.1,2.6,2.1,4.5c0,1.6-0.4,2.8-1.3,3.8S20.5,402.4,19.1,402.6z"/>
			<path class="st8" d="M23.6,388h-2.4v-2.4h2.4V388z"/>
			<path class="st8" d="M8.7,382.4h-2v-11.1h1.6c1.2,1.1,2.7,2.2,4.6,3.2s3.9,1.9,5.9,2.5c1.4,0.4,3,0.7,4.7,0.8v2.2
				c-1.4,0-3-0.3-4.9-0.8c-1.9-0.5-3.8-1.2-5.5-2.2c-1.8-0.9-3.3-2-4.5-3V382.4z"/>
			<path class="st8" d="M19.1,369.2l-0.3-2.1c1.2-0.2,2.1-0.7,2.6-1.2c0.5-0.6,0.8-1.3,0.8-2.1c0-1-0.3-1.8-1-2.5
				c-0.7-0.7-1.5-1-2.6-1c-1,0-1.8,0.3-2.4,0.9c-0.6,0.6-0.9,1.4-0.9,2.4c0,0.4,0.1,0.9,0.2,1.5l-1.9-0.2c0-0.1,0-0.3,0-0.3
				c0-0.9-0.2-1.7-0.7-2.4c-0.5-0.7-1.2-1.1-2.2-1.1c-0.8,0-1.4,0.3-1.9,0.8c-0.5,0.5-0.8,1.2-0.8,2c0,0.8,0.3,1.5,0.8,2
				c0.5,0.5,1.3,0.9,2.3,1.1l-0.4,2.1c-1.4-0.3-2.5-0.8-3.3-1.8c-0.8-0.9-1.2-2-1.2-3.4c0-0.9,0.2-1.8,0.6-2.6
				c0.4-0.8,1-1.4,1.6-1.8c0.7-0.4,1.4-0.6,2.2-0.6c0.7,0,1.4,0.2,2,0.6c0.6,0.4,1.1,1,1.5,1.8c0.2-1,0.7-1.8,1.5-2.4
				c0.7-0.6,1.7-0.8,2.8-0.8c1.5,0,2.8,0.5,3.8,1.6s1.6,2.5,1.6,4.1c0,1.5-0.4,2.8-1.3,3.8S20.5,369.1,19.1,369.2z"/>
		</g>
		<g>
			<path class="st8" d="M108.5,205.4h2v11.3c-0.5,0-1-0.1-1.5-0.2c-0.8-0.3-1.5-0.8-2.3-1.4c-0.8-0.6-1.6-1.6-2.6-2.8
				c-1.5-1.9-2.7-3.1-3.6-3.8c-0.9-0.7-1.7-1-2.5-1c-0.8,0-1.5,0.3-2.1,0.9c-0.6,0.6-0.9,1.4-0.9,2.3c0,1,0.3,1.8,0.9,2.4
				c0.6,0.6,1.5,0.9,2.5,0.9l-0.2,2.2c-1.6-0.1-2.8-0.7-3.7-1.7c-0.8-1-1.3-2.3-1.3-3.9c0-1.6,0.5-3,1.4-3.9s2-1.4,3.4-1.4
				c0.7,0,1.4,0.1,2,0.4c0.7,0.3,1.4,0.7,2.1,1.4c0.7,0.7,1.7,1.7,3,3.2c1.1,1.3,1.8,2.1,2.2,2.4s0.8,0.7,1.1,0.9V205.4z"/>
			<path class="st8" d="M95.6,203h-2v-11.1h1.6c1.2,1.1,2.7,2.2,4.6,3.2s3.9,1.9,5.9,2.5c1.4,0.4,3,0.7,4.7,0.8v2.2
				c-1.4,0-3-0.3-4.9-0.8c-1.9-0.5-3.8-1.2-5.5-2.2c-1.8-0.9-3.3-2-4.5-3V203z"/>
			<path class="st8" d="M110.5,188.7h-2.4v-2.4h2.4V188.7z"/>
			<path class="st8" d="M95.6,183h-2v-11.1h1.6c1.2,1.1,2.7,2.2,4.6,3.2s3.9,1.9,5.9,2.5c1.4,0.4,3,0.7,4.7,0.8v2.2
				c-1.4,0-3-0.3-4.9-0.8c-1.9-0.5-3.8-1.2-5.5-2.2c-1.8-0.9-3.3-2-4.5-3V183z"/>
			<path class="st8" d="M101.2,166.6c-0.3,0.9-0.8,1.5-1.4,1.9c-0.6,0.4-1.3,0.6-2.1,0.6c-1.2,0-2.3-0.4-3.1-1.3s-1.3-2.1-1.3-3.6
				c0-1.5,0.4-2.7,1.3-3.6c0.9-0.9,1.9-1.4,3.2-1.4c0.8,0,1.5,0.2,2.1,0.6c0.6,0.4,1,1.1,1.4,1.9c0.3-1.1,0.9-1.9,1.7-2.4
				c0.8-0.6,1.7-0.8,2.7-0.8c1.5,0,2.7,0.5,3.7,1.6c1,1,1.5,2.4,1.5,4.1c0,1.7-0.5,3.1-1.5,4.1s-2.3,1.6-3.8,1.6
				c-1.1,0-2.1-0.3-2.8-0.8C102,168.4,101.5,167.6,101.2,166.6z M97.7,167c0.8,0,1.5-0.3,2-0.8c0.5-0.5,0.8-1.2,0.8-2
				c0-0.8-0.3-1.5-0.8-2c-0.5-0.5-1.1-0.8-1.9-0.8c-0.8,0-1.4,0.3-1.9,0.8c-0.5,0.5-0.8,1.2-0.8,2c0,0.8,0.3,1.5,0.8,2
				C96.3,166.8,96.9,167,97.7,167z M105.6,167.7c0.6,0,1.2-0.1,1.7-0.4c0.6-0.3,1-0.7,1.3-1.3s0.5-1.2,0.5-1.8c0-1-0.3-1.8-1-2.5
				c-0.6-0.7-1.5-1-2.5-1c-1,0-1.9,0.3-2.5,1c-0.7,0.7-1,1.5-1,2.5c0,1,0.3,1.8,1,2.5S104.6,167.7,105.6,167.7z"/>
		</g>
		<g>
			<path class="st8" d="M143,676l-0.2-2.2c1.1-0.2,1.9-0.5,2.4-1.1c0.5-0.6,0.8-1.3,0.8-2.2c0-1-0.4-1.9-1.1-2.6
				c-0.8-0.7-1.8-1.1-3-1.1c-1.2,0-2.1,0.3-2.8,1c-0.7,0.7-1,1.6-1,2.7c0,0.7,0.2,1.3,0.5,1.8c0.3,0.5,0.7,1,1.2,1.3l-0.3,2
				l-8.8-1.7v-8.5h2v6.8l4.6,0.9c-0.7-1-1.1-2.1-1.1-3.2c0-1.5,0.5-2.8,1.6-3.8s2.4-1.5,4-1.5c1.6,0,2.9,0.5,4,1.4
				c1.4,1.1,2.1,2.6,2.1,4.5c0,1.6-0.4,2.8-1.3,3.8S144.4,675.9,143,676z"/>
			<path class="st8" d="M147.5,661.5h-2.4v-2.4h2.4V661.5z"/>
		</g>
		<g>
			<path class="st8" d="M138.2,647.8c-0.3,0.9-0.8,1.5-1.4,1.9c-0.6,0.4-1.3,0.6-2.1,0.6c-1.2,0-2.3-0.4-3.1-1.3s-1.3-2.1-1.3-3.6
				c0-1.5,0.4-2.7,1.3-3.6s1.9-1.4,3.2-1.4c0.8,0,1.5,0.2,2.1,0.6c0.6,0.4,1,1.1,1.4,1.9c0.3-1.1,0.9-1.9,1.7-2.4
				c0.8-0.6,1.7-0.8,2.7-0.8c1.5,0,2.7,0.5,3.7,1.6s1.5,2.4,1.5,4.1c0,1.7-0.5,3.1-1.5,4.1c-1,1-2.3,1.6-3.8,1.6
				c-1.1,0-2.1-0.3-2.8-0.8C139,649.7,138.4,648.9,138.2,647.8z M134.6,648.2c0.8,0,1.5-0.3,2-0.8c0.5-0.5,0.8-1.2,0.8-2
				c0-0.8-0.3-1.5-0.8-2c-0.5-0.5-1.1-0.8-1.9-0.8c-0.8,0-1.4,0.3-1.9,0.8c-0.5,0.5-0.8,1.2-0.8,2c0,0.8,0.3,1.5,0.8,2
				C133.3,648,133.9,648.2,134.6,648.2z M142.5,648.9c0.6,0,1.2-0.1,1.7-0.4c0.6-0.3,1-0.7,1.3-1.3c0.3-0.6,0.5-1.2,0.5-1.8
				c0-1-0.3-1.8-1-2.5c-0.6-0.7-1.5-1-2.5-1c-1,0-1.9,0.3-2.5,1c-0.7,0.7-1,1.5-1,2.5c0,1,0.3,1.8,1,2.5S141.5,648.9,142.5,648.9z"
				/>
		</g>
		<g>
			<path class="st8" d="M82.8,652.1v2.1H69.3c0.5,0.5,1,1.2,1.5,2c0.5,0.8,0.8,1.6,1.1,2.2h-2c-0.6-1.2-1.2-2.2-2-3.1
				c-0.8-0.9-1.6-1.5-2.3-1.9v-1.4H82.8z"/>
			<path class="st8" d="M80.7,635.6h2V647c-0.5,0-1-0.1-1.5-0.2c-0.8-0.3-1.5-0.8-2.3-1.4c-0.8-0.6-1.6-1.6-2.6-2.8
				c-1.5-1.9-2.7-3.1-3.6-3.8c-0.9-0.7-1.7-1-2.5-1c-0.8,0-1.5,0.3-2.1,0.9c-0.6,0.6-0.9,1.4-0.9,2.3c0,1,0.3,1.8,0.9,2.4
				c0.6,0.6,1.5,0.9,2.5,0.9l-0.2,2.2c-1.6-0.1-2.8-0.7-3.7-1.7s-1.3-2.3-1.3-3.9c0-1.6,0.5-3,1.4-3.9s2-1.4,3.4-1.4
				c0.7,0,1.4,0.1,2,0.4s1.4,0.7,2.1,1.4c0.7,0.7,1.7,1.7,3,3.2c1.1,1.3,1.8,2.1,2.2,2.4c0.4,0.4,0.8,0.7,1.1,0.9V635.6z"/>
			<path class="st8" d="M82.8,632.2h-2.4v-2.4h2.4V632.2z"/>
		</g>
		<g>
			<path class="st8" d="M67.8,618.3h-2v-11.1h1.6c1.2,1.1,2.7,2.2,4.6,3.2s3.9,1.9,5.9,2.5c1.4,0.4,3,0.7,4.7,0.8v2.2
				c-1.4,0-3-0.3-4.9-0.8c-1.9-0.5-3.8-1.2-5.5-2.2s-3.3-2-4.5-3V618.3z"/>
		</g>
		<g>
			<path class="st8" d="M251.6,168.1h2v11.3c-0.5,0-1-0.1-1.5-0.2c-0.8-0.3-1.5-0.8-2.3-1.4c-0.8-0.6-1.6-1.6-2.6-2.8
				c-1.5-1.9-2.7-3.1-3.6-3.8c-0.9-0.7-1.7-1-2.5-1c-0.8,0-1.5,0.3-2.1,0.9c-0.6,0.6-0.9,1.4-0.9,2.3c0,1,0.3,1.8,0.9,2.4
				c0.6,0.6,1.5,0.9,2.5,0.9l-0.2,2.2c-1.6-0.1-2.8-0.7-3.7-1.7c-0.8-1-1.3-2.3-1.3-3.9c0-1.6,0.5-3,1.4-3.9s2-1.4,3.4-1.4
				c0.7,0,1.4,0.1,2,0.4c0.7,0.3,1.4,0.7,2.1,1.4c0.7,0.7,1.7,1.7,3,3.2c1.1,1.3,1.8,2.1,2.2,2.4s0.8,0.7,1.1,0.9V168.1z"/>
			<path class="st8" d="M245.2,165.8c-2,0-3.7-0.2-4.9-0.6s-2.2-1-2.9-1.9c-0.7-0.8-1-1.9-1-3.1c0-0.9,0.2-1.7,0.6-2.4
				c0.4-0.7,0.9-1.3,1.6-1.7c0.7-0.5,1.5-0.8,2.6-1.1c1-0.3,2.4-0.4,4.1-0.4c2,0,3.6,0.2,4.9,0.6c1.2,0.4,2.2,1,2.9,1.9
				c0.7,0.8,1,1.9,1,3.1c0,1.7-0.6,3-1.8,3.9C250.7,165.2,248.4,165.8,245.2,165.8z M245.2,163.6c2.8,0,4.7-0.3,5.6-1
				s1.4-1.5,1.4-2.4s-0.5-1.8-1.4-2.4c-0.9-0.7-2.8-1-5.6-1c-2.8,0-4.7,0.3-5.6,1c-0.9,0.7-1.4,1.5-1.4,2.5c0,1,0.4,1.7,1.2,2.3
				C240.4,163.3,242.3,163.6,245.2,163.6z"/>
			<path class="st8" d="M253.6,151.3h-2.4v-2.4h2.4V151.3z"/>
		</g>
		<g>
			<path class="st8" d="M253.6,130.8h-4.1v7.4h-1.9l-11.1-7.8v-1.7h11.1v-2.3h1.9v2.3h4.1V130.8z M247.6,130.8h-7.7l7.7,5.4V130.8z"
				/>
		</g>
	</g>
</g>
<g id="Watermark">
	<g>
		<rect x="438.5" y="612.8" class="st0" width="123.1" height="46.3"/>
		<g>
			<rect x="444.9" y="620.6" class="st106" width="62.9" height="30.6"/>
			<rect x="507.7" y="620.6" class="st106" width="47.4" height="30.6"/>
			<g>
				<path class="st107" d="M466.5,626.7l-2.8,18.9H461l-1.6-11l-1.5,11h-2.7l-2.8-18.9h2.5l1.8,14.2l1.8-14.2h2l1.8,14.2l1.8-14.2
					H466.5z"/>
				<path class="st107" d="M467.9,645.7v-18.9h2.5v18.9H467.9z"/>
				<path class="st107" d="M472.8,626.7h5c1.9,0,2.9,1.1,2.9,3.2v4.7c0,1.7-0.5,2.7-1.5,3.1l1.8,7.9h-2.4l-1.7-7.6h-1.5v7.6h-2.5
					V626.7z M475.4,635.9h1.7c0.8,0,1.1-0.5,1.1-1.4v-4.1c0-0.9-0.4-1.4-1.1-1.4h-1.7V635.9z"/>
				<path class="st107" d="M486.8,629v16.6h-2.5V629h-2.4v-2.3h7.4v2.3H486.8z"/>
				<path class="st107" d="M496.3,645.7v-8.6h-3.1v8.6h-2.5v-18.9h2.5v8h3.1v-8h2.5v18.9H496.3z"/>
			</g>
			<g>
				<path class="st107" d="M516.3,626.7h5c1.9,0,2.9,1.1,2.9,3.2v4.7c0,1.7-0.5,2.7-1.5,3.1l1.8,7.9H522l-1.7-7.6h-1.5v7.6h-2.5
					V626.7z M518.8,635.9h1.7c0.8,0,1.1-0.5,1.1-1.4v-4.1c0-0.9-0.4-1.4-1.1-1.4h-1.7V635.9z"/>
				<path class="st107" d="M528.7,645.7h-2.5V630c0-2.2,1-3.2,3-3.2h1.9c2,0,3,1.1,3,3.2v15.7h-2.5v-6.9h-2.9V645.7z M531.6,636.4
					v-6.3c0-0.7-0.4-1.1-1.1-1.1h-0.7c-0.7,0-1.1,0.4-1.1,1.1v6.3H531.6z"/>
				<path class="st107" d="M536.3,645.7v-18.9h2.5v18.9H536.3z"/>
				<path class="st107" d="M547.2,645.7h-6v-18.9h2.5v16.6h3.5V645.7z"/>
			</g>
		</g>
	</g>
</g>
</svg>
