<?xml version="1.0" encoding="utf-8"?>
<!-- Generator: Adobe Illustrator 25.2.3, SVG Export Plug-In . SVG Version: 6.00 Build 0)  -->
<svg version="1.1" xmlns="http://www.w3.org/2000/svg" xmlns:xlink="http://www.w3.org/1999/xlink" x="0px" y="0px"
	 viewBox="0 0 1000 800" style="enable-background:new 0 0 1000 800;" xml:space="preserve">
<style type="text/css">
	.st0{fill:#F0F0F0;}
	.st1{fill:none;stroke:#221E1F;stroke-width:1.2032;}
	.st2{fill:none;stroke:#221E1F;stroke-width:1.0736;}
	.st3{fill:none;stroke:#221E1F;stroke-width:1.2032;stroke-miterlimit:10;}
	.st4{fill:none;stroke:#221E1F;stroke-width:1.0736;stroke-linecap:round;stroke-linejoin:round;stroke-miterlimit:10;}
	.st5{fill:none;stroke:#221E1F;stroke-width:1.0736;stroke-miterlimit:10;}
	.st6{fill:#303030;}
	.st7{fill:none;stroke:#221E1F;stroke-width:1.2032;stroke-linecap:round;stroke-linejoin:round;}
	.st8{fill:#221E1F;}
	.st9{fill:none;stroke:#221E1F;stroke-width:1.2032;stroke-dasharray:15.0983,4.5412;}
	.st10{fill:none;stroke:#221E1F;stroke-width:1.327;}
	.st11{fill:none;stroke:#221E1F;stroke-width:1.327;stroke-miterlimit:10;}
	.st12{fill:none;stroke:#221E1F;stroke-width:1.5312;stroke-miterlimit:10;}
	.st13{fill:none;stroke:#221E1F;stroke-width:1.327;stroke-linecap:round;stroke-linejoin:round;}
	.st14{fill:none;stroke:#221E1F;stroke-width:1.327;stroke-dasharray:16.5574,4.9134;}
	.st15{fill:none;stroke:#221E1F;stroke-width:1.1875;stroke-linecap:round;stroke-linejoin:round;}
	.st16{fill:none;stroke:#221E1F;stroke-width:1.1875;stroke-miterlimit:10;}
	.st17{fill:none;stroke:#221E1F;stroke-width:1.0882;}
	.st18{fill:none;stroke:#221E1F;stroke-width:1.0882;stroke-miterlimit:10;}
	.st19{fill:none;stroke:#221E1F;stroke-width:1.01;stroke-linecap:round;stroke-linejoin:round;stroke-miterlimit:10;}
	.st20{fill:none;stroke:#221E1F;stroke-width:1.0268;stroke-linecap:round;stroke-linejoin:round;stroke-miterlimit:10;}
	.st21{fill:none;stroke:#221E1F;stroke-width:1.0268;}
	.st22{fill:none;stroke:#221E1F;stroke-width:1.0882;stroke-linecap:round;stroke-linejoin:round;stroke-miterlimit:10;}
	.st23{fill:none;stroke:#221E1F;stroke-width:1.0882;stroke-linecap:round;stroke-linejoin:round;}
	.st24{fill:none;stroke:#221E1F;stroke-width:1.0882;stroke-dasharray:13.6188,4.0709;}
	.st25{fill:none;stroke:#303030;stroke-width:1.0882;stroke-miterlimit:10;}
	.st26{fill:none;stroke:#303030;stroke-width:0.9459;stroke-miterlimit:10;}
	.st27{fill:none;stroke:#303030;stroke-width:0.625;stroke-miterlimit:10;}
	.st28{fill:none;stroke:#221E1F;stroke-width:1.2065;}
	.st29{fill:none;stroke:#221E1F;stroke-width:1.058;stroke-miterlimit:10;}
	.st30{fill:none;stroke:#221E1F;stroke-width:1.2065;stroke-miterlimit:10;}
	.st31{fill:none;stroke:#221E1F;stroke-width:1.2065;stroke-dasharray:15.1403,4.5538;}
	.st32{fill:none;stroke:#221E1F;stroke-width:1.2065;stroke-linecap:round;stroke-linejoin:round;}
	.st33{fill:none;stroke:#221E1F;stroke-width:1.0363;}
	.st34{fill:none;stroke:#221E1F;stroke-width:1.0363;stroke-miterlimit:10;}
	.st35{fill:none;stroke:#221E1F;stroke-width:1.0536;stroke-linecap:round;stroke-linejoin:round;stroke-miterlimit:10;}
	.st36{fill:none;stroke:#221E1F;stroke-width:1.0536;stroke-miterlimit:10;}
	.st37{fill:none;stroke:#221E1F;stroke-width:1.0363;stroke-linecap:round;stroke-linejoin:round;}
	.st38{fill:none;stroke:#221E1F;stroke-width:1.0363;stroke-dasharray:14.1142,4.2633;}
	.st39{fill:none;stroke:#221E1F;stroke-width:1.0394;}
	.st40{fill:none;stroke:#221E1F;stroke-width:1.1318;stroke-linecap:round;stroke-linejoin:round;stroke-miterlimit:10;}
	.st41{fill:none;stroke:#221E1F;stroke-width:1.0394;stroke-miterlimit:10;}
	.st42{fill:none;stroke:#221E1F;stroke-width:1.1318;stroke-miterlimit:10;}
	.st43{fill:none;stroke:#221E1F;stroke-width:1.0394;stroke-dasharray:14.096,4.2184;}
	.st44{fill:none;stroke:#221E1F;stroke-width:0.9644;stroke-linecap:round;stroke-linejoin:round;}
	.st45{fill:none;stroke:#221E1F;stroke-width:1.0394;stroke-linecap:round;stroke-linejoin:round;}
	.st46{fill:none;stroke:#221E1F;stroke-width:1.0394;stroke-dasharray:28.8705,8.4195;}
	.st47{fill:none;stroke:#221E1F;stroke-width:1.0394;stroke-dasharray:30.1958,9.7419;}
	.st48{fill:none;stroke:#221E1F;stroke-width:1.1834;}
	.st49{fill:none;stroke:#221E1F;stroke-width:1.1834;stroke-dasharray:22.2172,9.0331;}
	.st50{fill:none;stroke:#221E1F;stroke-width:1.1834;stroke-dasharray:22.205,9.024;}
	.st51{fill:none;stroke:#221E1F;stroke-width:1.1834;stroke-dasharray:22.2172,9.0362;}
	.st52{fill:none;stroke:#221E1F;stroke-width:1.1834;stroke-dasharray:22.205,9.021;}
	.st53{fill:none;stroke:#221E1F;stroke-width:1.1834;stroke-dasharray:14.8529,4.4695;}
	.st54{fill:none;stroke:#221E1F;stroke-width:1.1834;stroke-linecap:round;stroke-linejoin:round;}
	.st55{fill:none;stroke:#221E1F;stroke-width:0.9791;}
	.st56{fill:none;stroke:#221E1F;stroke-width:1.2076;}
	.st57{fill:none;stroke:#221E1F;stroke-width:1.2076;stroke-dasharray:17.3391,6.3726;}
	.st58{fill:none;stroke:#221E1F;stroke-width:1.2076;stroke-dasharray:17.3363,6.3726;}
	.st59{fill:none;stroke:#221E1F;stroke-width:0.9791;stroke-dasharray:17.5349,5.1568;}
	.st60{fill:none;stroke:#303030;stroke-width:0.9791;}
	.st61{fill:none;stroke:#221E1F;stroke-width:0.8976;stroke-linecap:round;stroke-linejoin:round;}
	.st62{fill:none;stroke:#241F21;stroke-width:0.9771;}
	
		.st63{fill:none;stroke:#241F21;stroke-width:0.9771;stroke-linecap:round;stroke-linejoin:round;stroke-miterlimit:1;stroke-dasharray:16.5466,16.5466;}
	
		.st64{fill:none;stroke:#241F21;stroke-width:0.9771;stroke-linecap:round;stroke-linejoin:round;stroke-miterlimit:1;stroke-dasharray:17.1257,17.1257;}
	
		.st65{fill:none;stroke:#241F21;stroke-width:0.9771;stroke-linecap:round;stroke-linejoin:round;stroke-miterlimit:1;stroke-dasharray:16.5967,16.5967;}
	.st66{fill:none;stroke:#241F21;stroke-width:0.9771;stroke-linecap:round;stroke-linejoin:round;stroke-miterlimit:1;}
	.st67{fill:#241F21;}
	.st68{fill:none;stroke:#241F21;stroke-width:0.7626;stroke-linecap:round;stroke-linejoin:round;stroke-miterlimit:1;}
	.st69{fill:none;stroke:#221E1F;stroke-width:1.2516;}
	.st70{fill:none;stroke:#221E1F;stroke-width:1.2516;stroke-miterlimit:10;}
	.st71{fill:none;stroke:#221E1F;stroke-width:0.6258;}
	.st72{fill:none;stroke:#221E1F;stroke-width:0.6258;stroke-dasharray:18.3883,4.6234;}
	.st73{fill:none;stroke:#221E1F;stroke-width:0.6258;stroke-dasharray:21.5524,17.6199;}
	.st74{fill:none;stroke:#221E1F;stroke-width:0.6258;stroke-dasharray:20.1706,6.4056;}
	.st75{fill:none;stroke:#221E1F;stroke-width:0.9654;}
	.st76{fill:none;stroke:#303030;stroke-width:0.9654;}
	.st77{fill:none;stroke:#303030;stroke-width:0.9017;}
	.st78{fill:none;stroke:#303030;stroke-width:0.9654;stroke-dasharray:14.0607,4.2416;}
	.st79{fill:none;stroke:#303030;stroke-width:0.9654;stroke-dasharray:13.938,4.1189;}
	.st80{fill:none;stroke:#303030;stroke-width:0.9654;stroke-dasharray:14.3912,4.5697;}
	.st81{fill:none;stroke:#303030;stroke-width:0.9654;stroke-dasharray:14.7358,4.9143;}
	.st82{fill:none;stroke:#221E1F;stroke-width:0.9654;stroke-dasharray:15.4321,4.6901;}
	.st83{fill:none;stroke:#221E1F;stroke-width:0.9654;stroke-linecap:round;stroke-linejoin:round;}
	.st84{fill:none;stroke:#303030;stroke-width:0.8686;stroke-miterlimit:10;}
	.st85{fill:none;stroke:#303030;stroke-width:0.9654;stroke-miterlimit:10;}
	.st86{fill:none;stroke:#221E1F;stroke-width:2.6151;}
	.st87{fill:none;stroke:#221E1F;stroke-width:1.816;}
	.st88{fill:none;stroke:#221E1F;stroke-width:1.816;stroke-dasharray:21.5996,5.873;}
	.st89{fill:none;stroke:#221E1F;stroke-width:1.816;stroke-dasharray:21.596,5.8693;}
	.st90{fill:none;stroke:#221E1F;stroke-width:1.816;stroke-dasharray:45.6036,34.3698;}
	.st91{fill:none;stroke:#221E1F;stroke-width:1.816;stroke-dasharray:45.5927,34.3589;}
	.st92{fill:none;stroke:#221E1F;stroke-width:1.816;stroke-dasharray:21.596,5.873;}
	.st93{fill:none;stroke:#221E1F;stroke-width:2.158;}
	.st94{fill:none;stroke:#221E1F;stroke-width:1.4986;}
	.st95{fill:none;stroke:#221E1F;stroke-width:1.4986;stroke-dasharray:19.9046,5.413;}
	.st96{fill:none;stroke:#221E1F;stroke-width:1.4986;stroke-dasharray:19.9016,5.41;}
	.st97{fill:none;stroke:#221E1F;stroke-width:1.4986;stroke-dasharray:35.6909,25.3385;}
	.st98{fill:none;stroke:#221E1F;stroke-width:0.8673;}
	.st99{fill:none;stroke:#303030;stroke-width:0.9125;stroke-miterlimit:10;}
	.st100{fill:none;stroke:#303030;stroke-width:8.808669e-02;stroke-linecap:round;stroke-linejoin:round;stroke-miterlimit:10;}
	.st101{fill:none;stroke:#303030;stroke-width:0.8786;stroke-miterlimit:10;}
	.st102{fill:none;stroke:#303030;stroke-width:0.8786;}
	.st103{fill:none;stroke:#221E1F;stroke-width:0.9125;}
	.st104{fill:none;stroke:#221E1F;stroke-width:0.9125;stroke-dasharray:15.7291,4.7273;}
	.st105{fill:none;stroke:#221E1F;stroke-width:0.9125;stroke-linecap:round;stroke-linejoin:round;}
	.st106{fill:#F0F0F0;stroke:#CCCCCC;stroke-miterlimit:10;}
	.st107{fill:#CCCCCC;}
</style>
<g id="Flat">
	<g>
		<g>
			<path class="st0" d="M674.1,669.7l-95-34.6c-23.4-8.5-39.7-30.1-41.5-55c-4.3-59.9-6.5-120.3-6.5-180.6c0,0,0-0.1,0-0.1
				c0,0,0-0.1,0-0.1c0-28.1,0.5-56.1,1.4-84c0.4-12.6,3-25,7.6-36.7c4.2-10.6,12.7-19,23.4-22.9l91.6-33.4l0,0c3-1.1,4.9-4,4.7-7.2
				l-4.5-89.6c-1.4-27.4-23-49.5-50.3-51.5c-70.1-5-141.2-5-211.3,0c-27.3,1.9-48.9,24.1-50.3,51.5l-4.5,89.6
				c-0.2,3.2,1.7,6.1,4.7,7.2v0l91.6,33.4c10.7,3.9,19.3,12.3,23.4,22.9c0,0,0,0,0,0c4.6,11.7,7.1,24.1,7.6,36.7
				c0.9,27.9,1.4,56,1.4,84.1c0,0,0,0,0,0.1c0,0,0,0,0,0.1c0,60.3-2.2,120.8-6.5,180.6c-1.8,24.9-18.1,46.5-41.5,55l-95,34.6h0
				c-5.5,2-11.1,3.4-16.9,4.1l-84.4,10.9c-7.5,1-13.1,7.4-13.1,14.9v21.5c0,4,3.2,7.2,7.2,7.2h563.6c4,0,7.2-3.2,7.2-7.2v-21.5
				c0-7.5-5.6-14-13.1-14.9L691,673.8C685.2,673.1,679.5,671.7,674.1,669.7"/>
			<path class="st98" d="M674.1,669.7l-95-34.6c-23.4-8.5-39.7-30.1-41.5-55c-4.3-59.9-6.5-120.3-6.5-180.6c0,0,0-0.1,0-0.1
				c0,0,0-0.1,0-0.1c0-28.1,0.5-56.1,1.4-84c0.4-12.6,3-25,7.6-36.7c4.2-10.6,12.7-19,23.4-22.9l91.6-33.4l0,0c3-1.1,4.9-4,4.7-7.2
				l-4.5-89.6c-1.4-27.4-23-49.5-50.3-51.5c-70.1-5-141.2-5-211.3,0c-27.3,1.9-48.9,24.1-50.3,51.5l-4.5,89.6
				c-0.2,3.2,1.7,6.1,4.7,7.2v0l91.6,33.4c10.7,3.9,19.3,12.3,23.4,22.9c0,0,0,0,0,0c4.6,11.7,7.1,24.1,7.6,36.7
				c0.9,27.9,1.4,56,1.4,84.1c0,0,0,0,0,0.1c0,0,0,0,0,0.1c0,60.3-2.2,120.8-6.5,180.6c-1.8,24.9-18.1,46.5-41.5,55l-95,34.6h0
				c-5.5,2-11.1,3.4-16.9,4.1l-84.4,10.9c-7.5,1-13.1,7.4-13.1,14.9v21.5c0,4,3.2,7.2,7.2,7.2h563.6c4,0,7.2-3.2,7.2-7.2v-21.5
				c0-7.5-5.6-14-13.1-14.9L691,673.8C685.2,673.1,679.5,671.7,674.1,669.7z"/>
		</g>
		<g>
			<path class="st6" d="M364.1,196.1l-5.6-9.3l4.1-2.5c0.8-0.5,1.5-0.8,2-0.9c0.5-0.1,1.1,0,1.6,0.3c0.5,0.3,0.9,0.7,1.2,1.2
				c0.4,0.7,0.5,1.3,0.4,2.1c-0.2,0.7-0.6,1.4-1.5,2.1c0.4,0,0.8,0,1,0c0.6,0.1,1.1,0.3,1.8,0.6l3.1,1.6l-1.5,0.9l-2.4-1.2
				c-0.7-0.3-1.2-0.6-1.7-0.7c-0.4-0.2-0.7-0.2-1-0.2c-0.3,0-0.5,0-0.7,0.1c-0.2,0.1-0.4,0.2-0.7,0.4l-1.4,0.9l2.5,4.1L364.1,196.1z
				 M362.2,190.2l2.6-1.6c0.6-0.3,1-0.7,1.2-1c0.2-0.3,0.4-0.6,0.4-1c0-0.4-0.1-0.7-0.3-1c-0.3-0.4-0.6-0.7-1.1-0.8
				c-0.5-0.1-1.1,0.1-1.8,0.5l-2.9,1.8L362.2,190.2z"/>
		</g>
		<g>
			<path class="st6" d="M377.3,188.2l-1.1,0.7l-4.4-7.3c-0.1,0.4-0.3,0.9-0.6,1.4c-0.3,0.5-0.6,1-0.8,1.3l-0.7-1.1
				c0.5-0.7,0.8-1.4,1-2.1c0.2-0.7,0.3-1.3,0.3-1.9l0.7-0.4L377.3,188.2z"/>
		</g>
		<g>
			<path class="st6" d="M380.8,186l-0.8-1.3l1.3-0.8l0.8,1.3L380.8,186z"/>
		</g>
		<g>
			<path class="st6" d="M382.3,181.8l1.1-0.8c0.4,0.5,0.9,0.8,1.4,0.9c0.5,0.1,1,0,1.4-0.3c0.5-0.3,0.9-0.8,1-1.5s0-1.3-0.4-2
				c-0.4-0.7-0.9-1.1-1.5-1.2c-0.6-0.2-1.2-0.1-1.8,0.3c-0.4,0.2-0.6,0.5-0.8,0.9c-0.2,0.3-0.3,0.7-0.3,1.1l-1.2,0.5l-2-5.3l4.6-2.8
				l0.7,1.1l-3.7,2.2l1,2.8c0.3-0.7,0.8-1.3,1.4-1.6c0.8-0.5,1.7-0.6,2.6-0.4c0.9,0.2,1.6,0.8,2.1,1.7c0.5,0.8,0.7,1.7,0.6,2.6
				c-0.1,1.1-0.7,2-1.8,2.6c-0.8,0.5-1.7,0.7-2.5,0.5C383.6,183,382.9,182.6,382.3,181.8z"/>
		</g>
		<g>
			<path class="st6" d="M389.9,177.7l1-0.8c0.4,0.5,0.8,0.7,1.2,0.8c0.4,0.1,0.8,0,1.2-0.3c0.4-0.2,0.6-0.5,0.8-0.8
				c0.2-0.3,0.3-0.7,0.3-1c0-0.4-0.1-0.8-0.2-1.3c-0.2-0.5-0.4-1-0.7-1.5c0-0.1-0.1-0.1-0.1-0.2c0,0.5-0.1,1-0.4,1.4
				c-0.3,0.5-0.6,0.8-1.1,1.1c-0.8,0.5-1.6,0.6-2.5,0.3c-0.9-0.2-1.6-0.8-2.1-1.7c-0.6-0.9-0.7-1.9-0.5-2.8c0.2-0.9,0.7-1.6,1.6-2.1
				c0.6-0.4,1.3-0.5,2-0.5c0.7,0,1.4,0.3,2,0.7c0.6,0.4,1.3,1.2,2,2.4c0.7,1.2,1.2,2.2,1.3,3.1c0.2,0.9,0.1,1.6-0.2,2.3
				c-0.3,0.7-0.8,1.2-1.5,1.6c-0.7,0.4-1.4,0.6-2.1,0.5S390.4,178.3,389.9,177.7z M392.1,170.8c-0.4-0.7-0.9-1.1-1.5-1.2
				c-0.6-0.2-1.1-0.1-1.6,0.2c-0.5,0.3-0.8,0.8-1,1.4c-0.1,0.6,0,1.3,0.4,1.9c0.4,0.6,0.8,1,1.4,1.1c0.6,0.2,1.1,0.1,1.7-0.2
				c0.5-0.3,0.9-0.8,1-1.3C392.6,172,392.5,171.4,392.1,170.8z"/>
		</g>
		<line class="st99" x1="467.1" y1="728.4" x2="94.7" y2="728.4"/>
		<g>
			<path class="st6" d="M96.1,420.6v1.3h-8.5c0.3,0.3,0.6,0.7,0.9,1.3c0.3,0.5,0.5,1,0.7,1.4H88c-0.3-0.7-0.8-1.4-1.3-2
				s-1-1-1.5-1.2v-0.9H96.1z"/>
			<path class="st6" d="M93.3,417.2l-0.2-1.3c0.8-0.2,1.3-0.4,1.6-0.8c0.3-0.4,0.5-0.8,0.5-1.3c0-0.6-0.2-1.2-0.7-1.6
				c-0.4-0.4-1-0.6-1.6-0.6c-0.6,0-1.1,0.2-1.5,0.6c-0.4,0.4-0.6,0.9-0.6,1.5c0,0.3,0,0.6,0.1,0.9l-1.2-0.1c0-0.1,0-0.2,0-0.2
				c0-0.6-0.1-1.1-0.4-1.5c-0.3-0.5-0.8-0.7-1.4-0.7c-0.5,0-0.9,0.2-1.2,0.5c-0.3,0.3-0.5,0.8-0.5,1.3c0,0.5,0.2,0.9,0.5,1.3
				c0.3,0.3,0.8,0.6,1.5,0.7l-0.2,1.3c-0.9-0.2-1.6-0.5-2.1-1.1c-0.5-0.6-0.7-1.3-0.7-2.2c0-0.6,0.1-1.1,0.4-1.6s0.6-0.9,1-1.1
				c0.4-0.3,0.9-0.4,1.4-0.4c0.5,0,0.9,0.1,1.3,0.4s0.7,0.6,0.9,1.1c0.1-0.6,0.5-1.1,0.9-1.5c0.5-0.4,1-0.5,1.8-0.5
				c0.9,0,1.7,0.3,2.4,1c0.7,0.7,1,1.6,1,2.6c0,1-0.3,1.7-0.9,2.4C94.9,416.7,94.2,417.1,93.3,417.2z"/>
			<path class="st6" d="M93.3,408.7l-0.2-1.3c0.8-0.2,1.3-0.4,1.6-0.8c0.3-0.4,0.5-0.8,0.5-1.3c0-0.6-0.2-1.2-0.7-1.6
				c-0.4-0.4-1-0.6-1.6-0.6c-0.6,0-1.1,0.2-1.5,0.6c-0.4,0.4-0.6,0.9-0.6,1.5c0,0.3,0,0.6,0.1,0.9l-1.2-0.1c0-0.1,0-0.2,0-0.2
				c0-0.6-0.1-1.1-0.4-1.5c-0.3-0.5-0.8-0.7-1.4-0.7c-0.5,0-0.9,0.2-1.2,0.5c-0.3,0.3-0.5,0.8-0.5,1.3c0,0.5,0.2,0.9,0.5,1.3
				c0.3,0.3,0.8,0.6,1.5,0.7l-0.2,1.3c-0.9-0.2-1.6-0.5-2.1-1.1c-0.5-0.6-0.7-1.3-0.7-2.2c0-0.6,0.1-1.1,0.4-1.6s0.6-0.9,1-1.1
				c0.4-0.3,0.9-0.4,1.4-0.4c0.5,0,0.9,0.1,1.3,0.4s0.7,0.6,0.9,1.1c0.1-0.6,0.5-1.1,0.9-1.5c0.5-0.4,1-0.5,1.8-0.5
				c0.9,0,1.7,0.3,2.4,1c0.7,0.7,1,1.6,1,2.6c0,1-0.3,1.7-0.9,2.4C94.9,408.3,94.2,408.6,93.3,408.7z"/>
			<path class="st6" d="M96.1,399.6h-1.5v-1.5h1.5V399.6z"/>
			<path class="st6" d="M93.3,396.1l-0.2-1.3c0.8-0.2,1.3-0.4,1.6-0.8c0.3-0.4,0.5-0.8,0.5-1.3c0-0.6-0.2-1.2-0.7-1.6
				c-0.4-0.4-1-0.6-1.6-0.6c-0.6,0-1.1,0.2-1.5,0.6c-0.4,0.4-0.6,0.9-0.6,1.5c0,0.3,0,0.6,0.1,0.9l-1.2-0.1c0-0.1,0-0.2,0-0.2
				c0-0.6-0.1-1.1-0.4-1.5c-0.3-0.5-0.8-0.7-1.4-0.7c-0.5,0-0.9,0.2-1.2,0.5c-0.3,0.3-0.5,0.8-0.5,1.3c0,0.5,0.2,0.9,0.5,1.3
				c0.3,0.3,0.8,0.6,1.5,0.7l-0.2,1.3c-0.9-0.2-1.6-0.5-2.1-1.1c-0.5-0.6-0.7-1.3-0.7-2.2c0-0.6,0.1-1.1,0.4-1.6s0.6-0.9,1-1.1
				c0.4-0.3,0.9-0.4,1.4-0.4c0.5,0,0.9,0.1,1.3,0.4s0.7,0.6,0.9,1.1c0.1-0.6,0.5-1.1,0.9-1.5c0.5-0.4,1-0.5,1.8-0.5
				c0.9,0,1.7,0.3,2.4,1c0.7,0.7,1,1.6,1,2.6c0,1-0.3,1.7-0.9,2.4C94.9,395.7,94.2,396,93.3,396.1z"/>
			<path class="st6" d="M93.3,387.7l-0.1-1.4c0.7-0.1,1.2-0.3,1.5-0.7c0.3-0.4,0.5-0.8,0.5-1.4c0-0.6-0.2-1.2-0.7-1.6
				s-1.1-0.7-1.9-0.7c-0.8,0-1.4,0.2-1.8,0.6c-0.4,0.4-0.7,1-0.7,1.7c0,0.4,0.1,0.8,0.3,1.2c0.2,0.3,0.4,0.6,0.8,0.8l-0.2,1.2
				l-5.6-1.1V381h1.3v4.3l2.9,0.6c-0.5-0.7-0.7-1.3-0.7-2c0-0.9,0.3-1.7,1-2.4c0.7-0.7,1.5-1,2.5-1c1,0,1.8,0.3,2.5,0.9
				c0.9,0.7,1.3,1.6,1.3,2.8c0,1-0.3,1.8-0.8,2.4S94.2,387.6,93.3,387.7z"/>
			<path class="st6" d="M99.3,372.1c-0.9,0.7-2,1.4-3.3,1.9c-1.2,0.5-2.5,0.8-3.9,0.8c-1.2,0-2.3-0.2-3.4-0.6
				c-1.2-0.4-2.5-1.1-3.7-2.1v-1c1,0.6,1.8,1,2.2,1.2c0.7,0.3,1.4,0.5,2.1,0.7c0.9,0.2,1.8,0.3,2.8,0.3c2.4,0,4.7-0.7,7.1-2.2V372.1
				z"/>
			<path class="st6" d="M93.3,370l-0.1-1.4c0.7-0.1,1.2-0.3,1.5-0.7c0.3-0.4,0.5-0.8,0.5-1.4c0-0.6-0.2-1.2-0.7-1.6
				s-1.1-0.7-1.9-0.7c-0.8,0-1.4,0.2-1.8,0.6c-0.4,0.4-0.7,1-0.7,1.7c0,0.4,0.1,0.8,0.3,1.2c0.2,0.3,0.4,0.6,0.8,0.8l-0.2,1.2
				l-5.6-1.1v-5.4h1.3v4.3l2.9,0.6c-0.5-0.7-0.7-1.3-0.7-2c0-0.9,0.3-1.7,1-2.4c0.7-0.7,1.5-1,2.5-1c1,0,1.8,0.3,2.5,0.9
				c0.9,0.7,1.3,1.6,1.3,2.8c0,1-0.3,1.8-0.8,2.4S94.2,369.9,93.3,370z"/>
			<path class="st6" d="M96.1,352.4v1.3h-8.5c0.3,0.3,0.6,0.7,0.9,1.3c0.3,0.5,0.5,1,0.7,1.4H88c-0.3-0.7-0.8-1.4-1.3-2
				s-1-1-1.5-1.2v-0.9H96.1z"/>
			<path class="st6" d="M96.3,349.6l-11.2-3.1v-1.1l11.2,3.1V349.6z"/>
			<path class="st6" d="M96.1,340.5h-2.6v4.7h-1.2l-7-4.9v-1.1h7v-1.5h1.2v1.5h2.6V340.5z M92.3,340.5h-4.9l4.9,3.4V340.5z"/>
			<path class="st6" d="M89.1,333.4l-2.1,0.4h-1.8v-1.5h1.8l2.1,0.4V333.4z M89.1,335.9l-2.1,0.4h-1.8v-1.5h1.8l2.1,0.3V335.9z"/>
			<path class="st6" d="M99.3,329.7v1c-2.4-1.5-4.7-2.2-7.1-2.2c-0.9,0-1.8,0.1-2.8,0.3c-0.7,0.2-1.5,0.4-2.1,0.7
				c-0.4,0.2-1.2,0.6-2.2,1.2v-1c1.2-0.9,2.5-1.6,3.7-2.1c1.1-0.4,2.2-0.6,3.4-0.6c1.3,0,2.6,0.3,3.9,0.8
				C97.3,328.3,98.4,329,99.3,329.7z"/>
		</g>
		<path class="st99" d="M499.4,278.3h267.8 M95.3,70.2h671.9 M140.3,399.7H843"/>
		<line class="st100" x1="727.1" y1="278.3" x2="725.8" y2="278.3"/>
		<line class="st101" x1="620.2" y1="317.5" x2="738.2" y2="317.5"/>
		<line class="st99" x1="732" y1="278.3" x2="732" y2="232.9"/>
		<g>
			<path class="st6" d="M717,260.4h-1.3v-7h1c0.7,0.7,1.7,1.4,2.9,2.1c1.2,0.7,2.5,1.2,3.8,1.6c0.9,0.3,1.9,0.4,3,0.5v1.4
				c-0.9,0-1.9-0.2-3.1-0.5c-1.2-0.3-2.4-0.8-3.5-1.4c-1.1-0.6-2.1-1.2-2.8-1.9V260.4z"/>
			<path class="st6" d="M726.5,251.4h-1.5v-1.5h1.5V251.4z"/>
			<path class="st6" d="M724,247.7l-0.1-1.3c0.6-0.1,1-0.3,1.3-0.6c0.3-0.3,0.4-0.7,0.4-1.2c0-0.4-0.1-0.8-0.3-1.1
				c-0.2-0.3-0.4-0.6-0.8-0.8c-0.3-0.2-0.7-0.4-1.3-0.5c-0.5-0.1-1.1-0.2-1.6-0.2c-0.1,0-0.1,0-0.3,0c0.4,0.3,0.8,0.6,1,1.1
				c0.3,0.5,0.4,1,0.4,1.5c0,0.9-0.3,1.7-1,2.3c-0.7,0.6-1.5,0.9-2.6,0.9c-1.1,0-2-0.3-2.7-1c-0.7-0.6-1-1.5-1-2.4
				c0-0.7,0.2-1.4,0.6-1.9s0.9-1,1.6-1.3c0.7-0.3,1.7-0.5,3.1-0.5c1.4,0,2.5,0.2,3.3,0.5s1.4,0.7,1.9,1.3c0.4,0.6,0.6,1.3,0.6,2.1
				c0,0.8-0.2,1.5-0.7,2.1C725.5,247.3,724.8,247.6,724,247.7z M719.2,242.2c-0.8,0-1.4,0.2-1.8,0.6c-0.4,0.4-0.7,0.9-0.7,1.5
				c0,0.6,0.2,1.1,0.7,1.5c0.5,0.4,1.1,0.7,1.9,0.7c0.7,0,1.3-0.2,1.7-0.6c0.4-0.4,0.6-0.9,0.6-1.5c0-0.6-0.2-1.1-0.6-1.5
				S719.9,242.2,719.2,242.2z"/>
			<path class="st6" d="M726.5,235.2h-2.6v4.7h-1.2l-7-4.9v-1.1h7v-1.5h1.2v1.5h2.6V235.2z M722.6,235.2h-4.9l4.9,3.4V235.2z"/>
		</g>
		<g>
			<path class="st6" d="M566.1,298.8l2.3-10.6l4.7,1c0.9,0.2,1.6,0.4,2.1,0.7c0.5,0.3,0.8,0.7,1,1.3c0.2,0.5,0.2,1.1,0.1,1.7
				c-0.2,0.8-0.5,1.3-1.1,1.7c-0.6,0.4-1.4,0.6-2.5,0.5c0.3,0.3,0.6,0.5,0.7,0.7c0.3,0.5,0.6,1,0.9,1.7l1.2,3.3l-1.8-0.4l-0.9-2.5
				c-0.3-0.7-0.5-1.3-0.7-1.7c-0.2-0.4-0.4-0.7-0.6-0.9c-0.2-0.2-0.4-0.3-0.6-0.4c-0.2-0.1-0.4-0.1-0.8-0.2l-1.6-0.3l-1,4.7
				L566.1,298.8z M568.8,293.2l3,0.6c0.6,0.1,1.2,0.2,1.5,0.1c0.4-0.1,0.7-0.2,1-0.5c0.3-0.3,0.4-0.5,0.5-0.9c0.1-0.5,0-1-0.3-1.4
				c-0.3-0.4-0.8-0.7-1.6-0.9l-3.4-0.7L568.8,293.2z"/>
		</g>
		<g>
			<path class="st6" d="M583.4,301.2l-0.3,1.3l-7-1.5c0.1-0.3,0.2-0.6,0.3-0.9c0.3-0.4,0.7-0.8,1.2-1.2c0.5-0.4,1.2-0.8,2-1.2
				c1.4-0.7,2.3-1.3,2.8-1.7c0.5-0.5,0.8-0.9,0.9-1.4c0.1-0.5,0-1-0.3-1.4c-0.3-0.4-0.7-0.7-1.3-0.8c-0.6-0.1-1.2-0.1-1.6,0.2
				c-0.5,0.3-0.8,0.8-0.9,1.4l-1.3-0.4c0.3-1,0.8-1.7,1.5-2.1c0.7-0.4,1.6-0.5,2.6-0.3c1,0.2,1.8,0.7,2.2,1.4
				c0.5,0.7,0.6,1.5,0.4,2.3c-0.1,0.4-0.3,0.8-0.5,1.2c-0.3,0.4-0.6,0.7-1.1,1.1c-0.5,0.4-1.3,0.8-2.4,1.4c-0.9,0.5-1.5,0.8-1.8,1
				c-0.3,0.2-0.5,0.4-0.7,0.6L583.4,301.2z"/>
		</g>
		<g>
			<path class="st6" d="M591.6,302.9l-0.3,1.3l-7-1.5c0.1-0.3,0.2-0.6,0.3-0.9c0.3-0.4,0.7-0.8,1.2-1.2c0.5-0.4,1.2-0.8,2-1.2
				c1.4-0.7,2.3-1.3,2.8-1.7s0.8-0.9,0.9-1.4c0.1-0.5,0-1-0.3-1.4c-0.3-0.4-0.7-0.7-1.3-0.8c-0.6-0.1-1.2-0.1-1.6,0.2
				s-0.8,0.8-0.9,1.4l-1.3-0.4c0.3-1,0.8-1.7,1.5-2.1c0.7-0.4,1.6-0.5,2.6-0.3c1,0.2,1.8,0.7,2.2,1.4c0.5,0.7,0.6,1.5,0.4,2.3
				c-0.1,0.4-0.3,0.8-0.5,1.2c-0.3,0.4-0.6,0.7-1.1,1.1c-0.5,0.4-1.3,0.8-2.4,1.4c-0.9,0.5-1.5,0.8-1.8,1c-0.3,0.2-0.5,0.4-0.7,0.6
				L591.6,302.9z"/>
		</g>
		<g>
			<path class="st6" d="M593.4,304.6l0.3-1.5l1.5,0.3l-0.3,1.5L593.4,304.6z"/>
		</g>
		<g>
			<path class="st6" d="M603.9,305.6l-0.3,1.3l-7-1.5c0.1-0.3,0.2-0.6,0.3-0.9c0.3-0.4,0.7-0.8,1.2-1.2s1.2-0.8,2-1.2
				c1.4-0.7,2.3-1.3,2.8-1.7c0.5-0.5,0.8-0.9,0.9-1.4c0.1-0.5,0-1-0.3-1.4c-0.3-0.4-0.7-0.7-1.3-0.8c-0.6-0.1-1.2-0.1-1.6,0.2
				s-0.8,0.8-0.9,1.4l-1.3-0.4c0.3-1,0.8-1.7,1.5-2.1c0.7-0.4,1.6-0.5,2.6-0.3c1,0.2,1.8,0.7,2.2,1.4s0.6,1.5,0.4,2.3
				c-0.1,0.4-0.3,0.8-0.5,1.2c-0.3,0.4-0.6,0.7-1.1,1.1c-0.5,0.4-1.3,0.8-2.4,1.4c-0.9,0.5-1.5,0.8-1.8,1c-0.3,0.2-0.5,0.4-0.7,0.6
				L603.9,305.6z"/>
		</g>
		<g>
			<path class="st6" d="M612.2,307.3l-0.3,1.3l-7-1.5c0.1-0.3,0.2-0.6,0.3-0.9c0.3-0.4,0.7-0.8,1.2-1.2c0.5-0.4,1.2-0.8,2-1.2
				c1.4-0.7,2.3-1.3,2.8-1.7c0.5-0.5,0.8-0.9,0.9-1.4c0.1-0.5,0-1-0.3-1.4c-0.3-0.4-0.7-0.7-1.3-0.8c-0.6-0.1-1.2-0.1-1.6,0.2
				c-0.5,0.3-0.8,0.8-0.9,1.4l-1.3-0.4c0.3-1,0.8-1.7,1.5-2.1c0.7-0.4,1.6-0.5,2.6-0.3c1,0.2,1.8,0.7,2.2,1.4
				c0.5,0.7,0.6,1.5,0.4,2.3c-0.1,0.4-0.3,0.8-0.5,1.2c-0.3,0.4-0.6,0.7-1.1,1.1c-0.5,0.4-1.3,0.8-2.4,1.4c-0.9,0.5-1.5,0.8-1.8,1
				s-0.5,0.4-0.7,0.6L612.2,307.3z"/>
		</g>
		<g>
			<path class="st6" d="M353.8,318.1l-7.2-8.1l3.6-3.2c0.7-0.6,1.3-1.1,1.8-1.2c0.5-0.2,1-0.2,1.6,0s1,0.5,1.4,0.9
				c0.5,0.6,0.8,1.2,0.7,1.9c0,0.7-0.4,1.5-1.1,2.3c0.4-0.1,0.7-0.2,1-0.2c0.6,0,1.2,0.1,1.8,0.3l3.4,0.9l-1.3,1.2l-2.6-0.7
				c-0.7-0.2-1.3-0.4-1.8-0.4c-0.4-0.1-0.8-0.1-1-0.1c-0.3,0-0.5,0.1-0.7,0.2c-0.1,0.1-0.4,0.2-0.6,0.5l-1.2,1.1l3.2,3.6
				L353.8,318.1z M350.8,312.6l2.3-2.1c0.5-0.4,0.8-0.8,1-1.2c0.2-0.3,0.3-0.7,0.2-1c-0.1-0.3-0.2-0.7-0.4-0.9
				c-0.3-0.4-0.8-0.6-1.3-0.6c-0.5,0-1,0.3-1.6,0.8l-2.6,2.3L350.8,312.6z"/>
		</g>
		<g>
			<path class="st6" d="M355.3,304.1l-0.9-1l5.2-4.7l0.7,0.8c0,1,0.1,2.2,0.4,3.6s0.7,2.6,1.3,3.9c0.4,0.9,0.9,1.7,1.6,2.6l-1,0.9
				c-0.6-0.6-1.1-1.5-1.7-2.6c-0.6-1.1-1-2.3-1.3-3.5c-0.3-1.2-0.5-2.4-0.5-3.4L355.3,304.1z"/>
		</g>
		<g>
			<path class="st6" d="M368.4,305.1l-1-1.1l1.1-1l1,1.1L368.4,305.1z"/>
			<path class="st6" d="M369.4,300.8l0.9-0.9c0.5,0.4,0.9,0.6,1.3,0.6c0.4,0,0.8-0.2,1.1-0.5c0.3-0.3,0.5-0.6,0.6-0.9
				c0.1-0.3,0.1-0.7,0.1-1.1c-0.1-0.4-0.2-0.8-0.5-1.3c-0.3-0.5-0.6-0.9-0.9-1.3c0,0-0.1-0.1-0.2-0.2c0.1,0.5,0,1-0.1,1.5
				c-0.2,0.5-0.5,0.9-0.9,1.3c-0.7,0.6-1.5,0.9-2.4,0.8c-0.9-0.1-1.7-0.5-2.4-1.3c-0.7-0.8-1.1-1.7-1-2.6c0-0.9,0.4-1.7,1.2-2.4
				c0.5-0.5,1.1-0.8,1.8-0.9c0.7-0.1,1.4,0,2.1,0.3c0.7,0.3,1.5,1,2.4,2c0.9,1,1.5,2,1.9,2.8c0.3,0.8,0.4,1.6,0.2,2.3
				s-0.5,1.3-1.1,1.9c-0.6,0.6-1.3,0.8-2,0.9C370.8,301.6,370.1,301.3,369.4,300.8z M370.3,293.6c-0.5-0.6-1.1-0.9-1.7-1
				c-0.6-0.1-1.1,0.1-1.5,0.5c-0.4,0.4-0.7,0.9-0.7,1.6c0,0.7,0.2,1.3,0.8,1.8c0.5,0.5,1,0.8,1.6,0.8c0.6,0,1.1-0.1,1.6-0.5
				c0.5-0.4,0.7-0.9,0.7-1.5C371.1,294.7,370.8,294.1,370.3,293.6z"/>
		</g>
		<g>
			<path class="st6" d="M380.4,294.3l-1.7-1.9l-3.5,3.1l-0.8-0.9l-1-8.5l0.8-0.7l4.7,5.2l1.1-1l0.8,0.9l-1.1,1l1.7,1.9L380.4,294.3z
				 M377.9,291.5l-3.3-3.7l0.7,5.9L377.9,291.5z"/>
		</g>
		<g>
			<path class="st6" d="M562,246.4l-1.2,0.5l-3-7.9c-0.2,0.4-0.5,0.8-0.9,1.3c-0.4,0.5-0.7,0.8-1.1,1.1l-0.5-1.2
				c0.6-0.6,1-1.2,1.4-1.9c0.3-0.7,0.5-1.3,0.6-1.8l0.8-0.3L562,246.4z"/>
		</g>
		<g>
			<path class="st6" d="M563.7,239l-0.5-1.4l1.4-0.5l0.5,1.4L563.7,239z M565.9,244.9l-0.5-1.4l1.4-0.5l0.5,1.4L565.9,244.9z"/>
		</g>
		<g>
			<path class="st6" d="M575.3,240l0.5,1.2l-6.7,2.5c-0.1-0.3-0.2-0.6-0.2-0.9c0-0.5,0.1-1.1,0.3-1.7c0.2-0.6,0.6-1.3,1-2.2
				c0.8-1.3,1.2-2.3,1.4-3c0.2-0.7,0.2-1.2,0-1.7c-0.2-0.5-0.5-0.8-1-1s-1-0.2-1.6,0c-0.6,0.2-1,0.6-1.2,1.1c-0.2,0.5-0.2,1.1,0,1.7
				l-1.3,0.4c-0.3-1-0.2-1.8,0.2-2.6s1.1-1.3,2-1.6c1-0.4,1.8-0.4,2.6-0.1c0.8,0.3,1.3,0.9,1.6,1.7c0.2,0.4,0.2,0.8,0.2,1.3
				s-0.1,1-0.4,1.6c-0.2,0.6-0.6,1.4-1.2,2.5c-0.5,0.9-0.8,1.5-1,1.8c-0.1,0.3-0.2,0.6-0.3,0.9L575.3,240z"/>
		</g>
		<g>
			<path class="st6" d="M577.7,240.4l-0.5-1.4l1.4-0.5l0.5,1.4L577.7,240.4z"/>
		</g>
		<g>
			<path class="st6" d="M577.7,230.4l-0.5-1.2l6.6-2.5l0.4,1c-0.4,0.9-0.7,2.1-0.9,3.5c-0.2,1.4-0.2,2.7-0.1,4.1
				c0.1,0.9,0.3,1.9,0.6,3l-1.3,0.5c-0.3-0.8-0.5-1.8-0.6-3.1c-0.1-1.2-0.1-2.5,0.1-3.8c0.2-1.3,0.4-2.4,0.8-3.3L577.7,230.4z"/>
		</g>
		<g>
			<path class="st6" d="M587.8,233.6l1.3-0.6c0.3,0.6,0.7,1,1.2,1.2s1,0.2,1.5,0c0.6-0.2,1-0.6,1.3-1.3c0.2-0.6,0.2-1.3-0.1-2
				c-0.3-0.7-0.7-1.2-1.2-1.5c-0.6-0.3-1.2-0.3-1.8,0c-0.4,0.2-0.7,0.4-1,0.7c-0.3,0.3-0.4,0.6-0.5,1l-1.2,0.3l-1-5.6l5-1.9l0.4,1.2
				l-4,1.5l0.5,2.9c0.4-0.7,1-1.1,1.7-1.4c0.9-0.3,1.7-0.3,2.6,0.1c0.8,0.4,1.4,1.1,1.8,2c0.3,0.9,0.4,1.8,0.1,2.7
				c-0.3,1.1-1.1,1.8-2.2,2.2c-0.9,0.3-1.8,0.4-2.6,0.1C588.8,235,588.2,234.4,587.8,233.6z"/>
		</g>
		<g>
			<path class="st6" d="M621.8,186.5l0.1,1.3l-8.5,0.4c0.3,0.3,0.6,0.7,1,1.2c0.3,0.5,0.6,1,0.8,1.4l-1.3,0.1
				c-0.4-0.7-0.8-1.4-1.4-1.9c-0.5-0.5-1-0.9-1.5-1.1l0-0.9L621.8,186.5z"/>
		</g>
		<g>
			<path class="st6" d="M615.3,182.7l-1.5,0.1l-0.1-1.5l1.5-0.1L615.3,182.7z M621.6,182.4l-1.5,0.1l-0.1-1.5l1.5-0.1L621.6,182.4z"
				/>
		</g>
		<g>
			<path class="st6" d="M619.9,172l1.3-0.1l0.3,7.2c-0.3,0-0.6,0-0.9-0.1c-0.5-0.2-1-0.4-1.5-0.8c-0.5-0.4-1.1-0.9-1.7-1.7
				c-1-1.1-1.8-1.9-2.4-2.3c-0.6-0.4-1.1-0.6-1.6-0.5c-0.5,0-1,0.2-1.3,0.6c-0.3,0.4-0.5,0.9-0.5,1.5c0,0.6,0.2,1.1,0.6,1.5
				c0.4,0.4,0.9,0.5,1.6,0.5l-0.1,1.4c-1,0-1.8-0.4-2.4-0.9c-0.6-0.6-0.9-1.4-0.9-2.4c0-1,0.2-1.9,0.7-2.5c0.5-0.6,1.2-1,2.1-1
				c0.4,0,0.9,0,1.3,0.2c0.4,0.2,0.9,0.4,1.4,0.8c0.5,0.4,1.2,1,2,2c0.7,0.8,1.2,1.3,1.4,1.5c0.2,0.2,0.5,0.4,0.7,0.5L619.9,172z"/>
		</g>
		<g>
			<path class="st6" d="M615.7,170.7c-1.3,0.1-2.3,0-3.1-0.2c-0.8-0.2-1.4-0.6-1.9-1.1c-0.4-0.5-0.7-1.1-0.7-1.9
				c0-0.6,0.1-1.1,0.3-1.5c0.2-0.4,0.5-0.8,1-1.1c0.4-0.3,1-0.6,1.6-0.7c0.6-0.2,1.5-0.3,2.5-0.4c1.3-0.1,2.3,0,3.1,0.2
				c0.8,0.2,1.4,0.6,1.9,1.1c0.5,0.5,0.7,1.1,0.7,1.9c0,1-0.3,1.9-1,2.5C619.2,170.2,617.8,170.6,615.7,170.7z M615.7,169.4
				c1.8-0.1,3-0.3,3.5-0.8c0.6-0.4,0.8-1,0.8-1.6c0-0.6-0.3-1.1-1-1.5c-0.6-0.4-1.8-0.5-3.6-0.5c-1.8,0.1-3,0.3-3.5,0.8
				c-0.6,0.4-0.8,1-0.8,1.6c0,0.6,0.3,1.1,0.8,1.4C612.7,169.3,613.9,169.5,615.7,169.4z"/>
		</g>
		<g>
			<path class="st6" d="M686.9,635.6l-10.3-3.4l1.5-4.6c0.3-0.9,0.6-1.6,1-2c0.3-0.4,0.8-0.7,1.4-0.8c0.6-0.1,1.1-0.1,1.7,0.1
				c0.7,0.2,1.3,0.7,1.6,1.3c0.3,0.6,0.4,1.5,0.2,2.5c0.3-0.3,0.6-0.5,0.8-0.7c0.5-0.3,1.1-0.5,1.7-0.7l3.4-0.9l-0.6,1.7l-2.6,0.7
				c-0.8,0.2-1.3,0.4-1.7,0.5c-0.4,0.1-0.7,0.3-0.9,0.5c-0.2,0.2-0.4,0.3-0.5,0.5c-0.1,0.1-0.2,0.4-0.3,0.7l-0.5,1.6l4.6,1.5
				L686.9,635.6z M681.6,632.3l1-2.9c0.2-0.6,0.3-1.1,0.3-1.5c0-0.4-0.1-0.7-0.4-1c-0.2-0.3-0.5-0.5-0.8-0.6
				c-0.5-0.2-0.9-0.1-1.4,0.1c-0.4,0.3-0.8,0.8-1,1.5l-1.1,3.3L681.6,632.3z"/>
		</g>
		<g>
			<path class="st6" d="M691.7,621l-0.4,1.3l-8.1-2.7c0.2,0.4,0.3,0.9,0.5,1.5c0.1,0.6,0.2,1.1,0.2,1.5l-1.2-0.4
				c-0.1-0.8-0.3-1.6-0.6-2.3s-0.6-1.2-1-1.6l0.3-0.8L691.7,621z"/>
		</g>
		<g>
			<path class="st6" d="M690.1,616.9l0.3-1.4c0.7,0.1,1.2,0,1.7-0.2c0.4-0.2,0.7-0.6,0.9-1.1c0.2-0.6,0.1-1.2-0.2-1.8
				c-0.3-0.6-0.9-1-1.6-1.2c-0.7-0.2-1.4-0.2-1.9,0c-0.5,0.3-0.9,0.7-1.1,1.4c-0.1,0.4-0.2,0.8-0.1,1.2c0.1,0.4,0.2,0.7,0.5,1
				l-0.5,1.1l-5-2.7l1.7-5.1l1.2,0.4l-1.4,4.1l2.6,1.5c-0.2-0.8-0.2-1.5,0-2.2c0.3-0.9,0.9-1.6,1.7-2c0.8-0.4,1.7-0.5,2.7-0.1
				c0.9,0.3,1.6,0.8,2.1,1.6c0.6,0.9,0.7,2,0.4,3.1c-0.3,0.9-0.8,1.6-1.5,2C691.8,617,691,617.1,690.1,616.9z"/>
		</g>
		<g>
			<path class="st6" d="M695.7,609l-1.4-0.5l0.5-1.4l1.4,0.5L695.7,609z"/>
		</g>
		<g>
			<path class="st6" d="M691.9,602c-0.4,0.5-0.8,0.8-1.2,0.9c-0.4,0.1-0.9,0.1-1.4,0c-0.8-0.2-1.3-0.7-1.6-1.4
				c-0.3-0.7-0.4-1.5-0.1-2.4c0.3-0.9,0.8-1.5,1.5-1.9c0.7-0.4,1.4-0.4,2.2-0.2c0.5,0.2,0.9,0.4,1.1,0.8c0.3,0.4,0.4,0.8,0.4,1.4
				c0.4-0.6,0.9-0.9,1.5-1.1c0.6-0.2,1.2-0.2,1.8,0c0.9,0.3,1.5,0.8,1.9,1.7c0.4,0.8,0.4,1.7,0.1,2.8c-0.3,1-0.9,1.7-1.7,2.2
				c-0.8,0.4-1.7,0.5-2.6,0.2c-0.7-0.2-1.2-0.6-1.5-1.1S691.8,602.6,691.9,602z M689.6,601.5c0.5,0.2,0.9,0.1,1.3-0.1
				c0.4-0.2,0.7-0.6,0.9-1.1c0.2-0.5,0.1-0.9-0.1-1.4c-0.2-0.4-0.5-0.7-1-0.8c-0.5-0.2-0.9-0.1-1.3,0.1s-0.7,0.6-0.9,1
				c-0.2,0.5-0.1,0.9,0.1,1.4C688.9,601.1,689.2,601.4,689.6,601.5z M694.3,603.5c0.4,0.1,0.7,0.1,1.1,0.1c0.4-0.1,0.7-0.2,1-0.5
				c0.3-0.3,0.5-0.6,0.6-1c0.2-0.6,0.2-1.2-0.1-1.7c-0.3-0.5-0.7-0.9-1.3-1.1c-0.6-0.2-1.2-0.2-1.7,0.1c-0.5,0.3-0.9,0.7-1.1,1.3
				c-0.2,0.6-0.2,1.2,0.1,1.7C693.2,602.9,693.7,603.3,694.3,603.5z"/>
		</g>
		<g>
			<path class="st6" d="M690.5,594.7l-1.2-0.4l2.2-6.7l1,0.3c0.5,0.9,1.2,1.8,2.1,2.9c0.9,1,2,1.9,3.1,2.7c0.8,0.5,1.7,1,2.7,1.4
				l-0.4,1.3c-0.8-0.3-1.7-0.8-2.8-1.4c-1-0.7-2-1.5-2.9-2.4c-0.9-0.9-1.6-1.8-2.1-2.7L690.5,594.7z"/>
		</g>
		<path class="st99" d="M837.5,683.3v-66.6 M768.9,683.4h74.8 M750.4,728.4h93.2"/>
		<g>
			<path class="st6" d="M824,658.5c-0.2,0.6-0.5,1-0.9,1.2c-0.4,0.3-0.8,0.4-1.3,0.4c-0.8,0-1.5-0.3-2-0.9c-0.5-0.6-0.8-1.3-0.8-2.3
				c0-0.9,0.3-1.7,0.8-2.3c0.5-0.6,1.2-0.9,2-0.9c0.5,0,0.9,0.1,1.3,0.4c0.4,0.3,0.7,0.7,0.9,1.2c0.2-0.7,0.6-1.2,1-1.5
				c0.5-0.3,1.1-0.5,1.7-0.5c0.9,0,1.7,0.3,2.3,1c0.6,0.7,0.9,1.5,0.9,2.6c0,1.1-0.3,1.9-1,2.6c-0.6,0.7-1.4,1-2.4,1
				c-0.7,0-1.3-0.2-1.8-0.5S824.2,659.2,824,658.5z M821.7,658.8c0.5,0,0.9-0.2,1.3-0.5s0.5-0.8,0.5-1.3c0-0.5-0.2-0.9-0.5-1.3
				c-0.3-0.3-0.7-0.5-1.2-0.5c-0.5,0-0.9,0.2-1.2,0.5c-0.3,0.3-0.5,0.8-0.5,1.3c0,0.5,0.2,0.9,0.5,1.3
				C820.9,658.6,821.3,658.8,821.7,658.8z M826.8,659.2c0.4,0,0.7-0.1,1.1-0.3c0.4-0.2,0.6-0.4,0.8-0.8c0.2-0.4,0.3-0.7,0.3-1.1
				c0-0.6-0.2-1.2-0.6-1.6c-0.4-0.4-0.9-0.6-1.6-0.6c-0.6,0-1.2,0.2-1.6,0.6c-0.4,0.4-0.6,1-0.6,1.6c0,0.6,0.2,1.1,0.6,1.6
				C825.6,659,826.1,659.2,826.8,659.2z"/>
			<path class="st6" d="M829.9,651.4h-1.5v-1.5h1.5V651.4z"/>
			<path class="st6" d="M820.5,647.8h-1.3v-7h1c0.7,0.7,1.7,1.4,2.9,2.1c1.2,0.7,2.5,1.2,3.8,1.6c0.9,0.3,1.9,0.4,3,0.5v1.4
				c-0.9,0-1.9-0.2-3.1-0.5c-1.2-0.3-2.4-0.8-3.5-1.4c-1.1-0.6-2.1-1.2-2.8-1.9V647.8z"/>
			<path class="st6" d="M827,639.5l-0.2-1.3c0.8-0.2,1.3-0.4,1.6-0.8s0.5-0.8,0.5-1.3c0-0.6-0.2-1.2-0.7-1.6c-0.4-0.4-1-0.6-1.6-0.6
				c-0.6,0-1.1,0.2-1.5,0.6c-0.4,0.4-0.6,0.9-0.6,1.5c0,0.3,0,0.6,0.1,0.9l-1.2-0.1c0-0.1,0-0.2,0-0.2c0-0.6-0.1-1.1-0.4-1.5
				c-0.3-0.5-0.8-0.7-1.4-0.7c-0.5,0-0.9,0.2-1.2,0.5c-0.3,0.3-0.5,0.8-0.5,1.3c0,0.5,0.2,0.9,0.5,1.3c0.3,0.3,0.8,0.6,1.5,0.7
				l-0.2,1.3c-0.9-0.2-1.6-0.5-2.1-1.1c-0.5-0.6-0.7-1.3-0.7-2.2c0-0.6,0.1-1.1,0.4-1.6c0.3-0.5,0.6-0.9,1-1.1
				c0.4-0.3,0.9-0.4,1.4-0.4c0.5,0,0.9,0.1,1.3,0.4c0.4,0.3,0.7,0.6,0.9,1.1c0.1-0.6,0.5-1.1,0.9-1.5c0.5-0.4,1-0.5,1.8-0.5
				c0.9,0,1.7,0.3,2.4,1c0.7,0.7,1,1.6,1,2.6c0,1-0.3,1.7-0.9,2.4S827.9,639.4,827,639.5z"/>
		</g>
		<g>
			<path class="st99" d="M788.5,712.3v76.1 M210.5,715.9v72.5"/>
		</g>
		<g>
			<path class="st6" d="M175.5,608.7l9.3-5.6l2.5,4.1c0.5,0.8,0.8,1.5,0.9,2c0.1,0.5,0,1.1-0.3,1.6c-0.3,0.5-0.7,0.9-1.2,1.2
				c-0.7,0.4-1.3,0.5-2.1,0.4c-0.7-0.2-1.4-0.6-2.1-1.4c0,0.4,0,0.8,0,1c-0.1,0.6-0.3,1.1-0.6,1.8l-1.5,3.1l-0.9-1.5l1.2-2.4
				c0.3-0.7,0.6-1.3,0.7-1.7c0.2-0.4,0.2-0.7,0.2-1c0-0.3,0-0.5-0.1-0.7c-0.1-0.2-0.2-0.4-0.4-0.7l-0.9-1.4l-4.1,2.5L175.5,608.7z
				 M181.5,606.8l1.6,2.6c0.3,0.6,0.7,1,1,1.2c0.3,0.2,0.6,0.4,1,0.4c0.4,0,0.7-0.1,1-0.3c0.4-0.3,0.7-0.6,0.8-1.1
				c0.1-0.5-0.1-1.1-0.5-1.8l-1.8-2.9L181.5,606.8z"/>
		</g>
		<g>
			<path class="st6" d="M183.4,616.1l0.8,1c-0.6,0.5-0.9,1-1,1.5c-0.1,0.5,0,1,0.3,1.4c0.3,0.5,0.8,0.9,1.4,1c0.6,0.1,1.2,0,1.7-0.3
				c0.5-0.3,0.8-0.8,1-1.3c0.1-0.5,0-1.1-0.3-1.6c-0.1-0.2-0.3-0.5-0.6-0.7l1.1-0.5c0,0.1,0.1,0.1,0.1,0.2c0.3,0.5,0.7,0.8,1.2,1.1
				c0.5,0.2,1,0.2,1.5-0.1c0.4-0.3,0.7-0.6,0.8-1.1c0.1-0.4,0-0.9-0.3-1.3c-0.3-0.4-0.6-0.7-1.1-0.9s-1-0.1-1.6,0.2l-0.5-1.3
				c0.8-0.3,1.6-0.4,2.3-0.1c0.7,0.2,1.3,0.7,1.7,1.5c0.3,0.5,0.5,1,0.5,1.6c0,0.6-0.1,1.1-0.3,1.5c-0.2,0.5-0.6,0.8-1,1.1
				c-0.4,0.2-0.8,0.4-1.3,0.3s-0.9-0.2-1.4-0.5c0.2,0.6,0.2,1.2,0,1.8c-0.2,0.5-0.6,1-1.2,1.4c-0.8,0.5-1.7,0.6-2.6,0.4
				c-0.9-0.2-1.7-0.8-2.2-1.7c-0.5-0.8-0.7-1.6-0.5-2.5C182.2,617.3,182.6,616.6,183.4,616.1z"/>
		</g>
		<g>
			<path class="st6" d="M185.7,625.4l1.3-0.8l0.8,1.3l-1.3,0.8L185.7,625.4z"/>
		</g>
		<g>
			<path class="st6" d="M190.1,632.7l-0.7-1.1l7.2-4.4c-0.4-0.1-0.9-0.3-1.4-0.6c-0.5-0.3-1-0.6-1.3-0.8l1.1-0.7
				c0.7,0.5,1.4,0.8,2.1,1s1.3,0.3,1.9,0.3l0.4,0.7L190.1,632.7z"/>
		</g>
		<g>
			<path class="st6" d="M199.9,630.8l1.1-0.7l3.7,6l-0.9,0.5c-1-0.2-2.2-0.3-3.6-0.2c-1.4,0.1-2.7,0.3-4,0.6
				c-0.9,0.2-1.9,0.6-2.8,1.1l-0.7-1.2c0.7-0.4,1.7-0.8,2.9-1.2c1.2-0.4,2.4-0.6,3.7-0.6c1.3-0.1,2.4,0,3.4,0.2L199.9,630.8z"/>
		</g>
		<g>
			<path class="st6" d="M600.2,635.9l-1.3-0.4l2.7-8c-0.4,0.2-0.9,0.3-1.5,0.5c-0.6,0.1-1.1,0.2-1.5,0.2l0.4-1.2
				c0.8-0.1,1.6-0.3,2.3-0.6c0.7-0.3,1.2-0.6,1.6-1l0.8,0.3L600.2,635.9z"/>
		</g>
		<g>
			<path class="st6" d="M604.1,637.3l0.5-1.4l1.4,0.5l-0.5,1.4L604.1,637.3z M606.1,631.3l0.5-1.4l1.4,0.5l-0.5,1.4L606.1,631.3z"/>
			<path class="st6" d="M614.4,639.5l-0.4,1.2l-6.8-2.3c0.1-0.3,0.2-0.6,0.4-0.8c0.3-0.4,0.8-0.8,1.3-1.1c0.5-0.3,1.3-0.6,2.2-1
				c1.4-0.5,2.4-1,3-1.4c0.6-0.4,0.9-0.8,1.1-1.3c0.2-0.5,0.1-1-0.1-1.4s-0.6-0.8-1.2-1c-0.6-0.2-1.2-0.2-1.6,0
				c-0.5,0.2-0.8,0.7-1.1,1.3l-1.2-0.6c0.4-0.9,1-1.6,1.8-1.9s1.6-0.3,2.6,0c1,0.3,1.7,0.9,2.1,1.6c0.4,0.7,0.4,1.5,0.2,2.3
				c-0.1,0.4-0.4,0.8-0.7,1.1c-0.3,0.3-0.7,0.7-1.3,1c-0.5,0.3-1.4,0.7-2.6,1.1c-1,0.4-1.6,0.6-1.9,0.8c-0.3,0.2-0.5,0.3-0.8,0.5
				L614.4,639.5z"/>
		</g>
		<g>
			<path class="st6" d="M616,641.4l0.5-1.4l1.4,0.5l-0.5,1.4L616,641.4z"/>
			<path class="st6" d="M622.4,633.6l0.4-1.2l6.6,2.3l-0.3,1c-0.9,0.5-1.9,1.2-2.9,2.1c-1,0.9-1.9,1.9-2.7,3c-0.5,0.8-1,1.7-1.4,2.7
				l-1.3-0.4c0.3-0.8,0.8-1.7,1.5-2.8c0.7-1,1.5-2,2.4-2.9c0.9-0.9,1.8-1.6,2.7-2.1L622.4,633.6z"/>
		</g>
		<g>
			<path class="st6" d="M628.2,642.5l1.4,0.3c-0.1,0.7-0.1,1.2,0.2,1.7s0.6,0.8,1.1,0.9c0.6,0.2,1.2,0.2,1.8-0.2
				c0.6-0.3,1-0.8,1.3-1.6c0.2-0.7,0.2-1.4,0-1.9c-0.3-0.6-0.7-0.9-1.4-1.2c-0.4-0.1-0.8-0.2-1.2-0.1c-0.4,0.1-0.7,0.2-1,0.5
				l-1.1-0.6l2.8-4.9l5.1,1.7l-0.4,1.2l-4.1-1.4l-1.5,2.6c0.8-0.2,1.5-0.2,2.2,0c0.9,0.3,1.5,0.9,1.9,1.7c0.4,0.8,0.4,1.7,0.1,2.7
				c-0.3,0.9-0.9,1.6-1.6,2.1c-0.9,0.6-2,0.7-3.1,0.3c-0.9-0.3-1.6-0.8-2-1.6C628.1,644.2,628,643.4,628.2,642.5z"/>
		</g>
		<line class="st101" x1="499.5" y1="648.2" x2="372.7" y2="648.2"/>
		<line class="st100" x1="467.1" y1="728.4" x2="380.8" y2="728.4"/>
		<g>
			<path class="st6" d="M379.4,706.7v1.3h-8.5c0.3,0.3,0.6,0.7,0.9,1.3c0.3,0.5,0.5,1,0.7,1.4h-1.3c-0.3-0.7-0.8-1.4-1.3-2
				s-1-1-1.5-1.2v-0.9H379.4z"/>
			<path class="st6" d="M371.2,696.4l0.1,1.3c-0.5,0.1-0.9,0.3-1.1,0.5c-0.4,0.4-0.6,0.8-0.6,1.3c0,0.4,0.1,0.8,0.4,1.1
				c0.3,0.4,0.8,0.8,1.3,1c0.6,0.2,1.4,0.4,2.5,0.4c-0.5-0.3-0.9-0.7-1.1-1.2c-0.2-0.5-0.4-0.9-0.4-1.5c0-0.9,0.3-1.6,1-2.3
				s1.5-0.9,2.5-0.9c0.7,0,1.3,0.1,1.9,0.4c0.6,0.3,1,0.7,1.3,1.2c0.3,0.5,0.5,1.1,0.5,1.7c0,1.1-0.4,2-1.2,2.7s-2.2,1.1-4,1.1
				c-2.1,0-3.6-0.4-4.6-1.2c-0.8-0.7-1.2-1.6-1.2-2.7c0-0.9,0.2-1.6,0.7-2.1S370.4,696.5,371.2,696.4z M375.9,701.8
				c0.5,0,0.9-0.1,1.3-0.3c0.4-0.2,0.7-0.5,1-0.8c0.2-0.3,0.3-0.7,0.3-1.1c0-0.6-0.2-1-0.7-1.5c-0.5-0.4-1.1-0.6-1.8-0.6
				c-0.8,0-1.3,0.2-1.8,0.6s-0.6,0.9-0.6,1.5c0,0.6,0.2,1.1,0.6,1.5S375.2,701.8,375.9,701.8z"/>
			<path class="st6" d="M379.4,694.1h-1.5v-1.5h1.5V694.1z"/>
			<path class="st6" d="M378.1,683.6h1.3v7.2c-0.3,0-0.6,0-0.9-0.2c-0.5-0.2-1-0.5-1.4-0.9c-0.5-0.4-1-1-1.6-1.7
				c-1-1.2-1.7-2-2.3-2.4c-0.6-0.4-1.1-0.6-1.6-0.6c-0.5,0-1,0.2-1.3,0.6s-0.5,0.9-0.5,1.5c0,0.6,0.2,1.2,0.6,1.5s0.9,0.6,1.6,0.6
				l-0.1,1.4c-1-0.1-1.8-0.4-2.3-1.1c-0.5-0.6-0.8-1.4-0.8-2.5c0-1,0.3-1.9,0.9-2.5s1.3-0.9,2.1-0.9c0.4,0,0.9,0.1,1.3,0.3
				s0.9,0.5,1.3,0.9c0.5,0.4,1.1,1.1,1.9,2.1c0.7,0.8,1.1,1.3,1.4,1.5s0.5,0.4,0.7,0.6V683.6z"/>
			<path class="st6" d="M370,682.1h-1.3v-7h1c0.7,0.7,1.7,1.4,2.9,2.1c1.2,0.7,2.5,1.2,3.8,1.6c0.9,0.3,1.9,0.4,3,0.5v1.4
				c-0.9,0-1.9-0.2-3.1-0.5c-1.2-0.3-2.4-0.8-3.5-1.4c-1.1-0.6-2.1-1.2-2.8-1.9V682.1z"/>
		</g>
		<line class="st100" x1="467.1" y1="728.4" x2="276.9" y2="728.4"/>
		<line class="st101" x1="500.2" y1="605.1" x2="274.5" y2="605.1"/>
		<g>
			<path class="st6" d="M275.7,660.9h1.3v7.2c-0.3,0-0.6,0-0.9-0.2c-0.5-0.2-1-0.5-1.4-0.9c-0.5-0.4-1-1-1.6-1.7
				c-1-1.2-1.7-2-2.3-2.4c-0.6-0.4-1.1-0.6-1.6-0.6c-0.5,0-1,0.2-1.3,0.6s-0.5,0.9-0.5,1.5c0,0.6,0.2,1.2,0.6,1.5s0.9,0.6,1.6,0.6
				l-0.1,1.4c-1-0.1-1.8-0.4-2.3-1.1c-0.5-0.6-0.8-1.4-0.8-2.5c0-1,0.3-1.9,0.9-2.5s1.3-0.9,2.1-0.9c0.4,0,0.9,0.1,1.3,0.3
				s0.9,0.5,1.3,0.9c0.5,0.4,1.1,1.1,1.9,2.1c0.7,0.8,1.1,1.3,1.4,1.5s0.5,0.4,0.7,0.6V660.9z"/>
			<path class="st6" d="M274.1,659.4L274,658c0.7-0.1,1.2-0.3,1.5-0.7s0.5-0.8,0.5-1.4c0-0.6-0.2-1.2-0.7-1.6
				c-0.5-0.4-1.1-0.7-1.9-0.7c-0.8,0-1.4,0.2-1.8,0.6c-0.4,0.4-0.7,1-0.7,1.7c0,0.4,0.1,0.8,0.3,1.2c0.2,0.3,0.4,0.6,0.8,0.8
				l-0.2,1.2l-5.6-1.1v-5.4h1.3v4.3l2.9,0.6c-0.5-0.7-0.7-1.3-0.7-2c0-0.9,0.3-1.7,1-2.4c0.7-0.7,1.5-1,2.5-1c1,0,1.8,0.3,2.5,0.9
				c0.9,0.7,1.3,1.6,1.3,2.8c0,1-0.3,1.8-0.8,2.4C275.7,659,275,659.3,274.1,659.4z"/>
		</g>
		<path class="st99" d="M659.2,202.2V17.1 M339.7,204.5V17.1"/>
		<g>
			<path class="st6" d="M443.1,118.8l10.8-0.3l0.1,4.8c0,1-0.1,1.7-0.2,2.2c-0.2,0.5-0.5,0.9-1,1.2s-1,0.5-1.6,0.5
				c-0.8,0-1.4-0.2-2-0.7c-0.5-0.5-0.9-1.2-1.1-2.3c-0.2,0.4-0.3,0.7-0.5,0.9c-0.4,0.4-0.8,0.8-1.4,1.2l-2.9,2l0-1.8l2.2-1.5
				c0.6-0.4,1.1-0.8,1.5-1.1c0.3-0.3,0.6-0.5,0.7-0.7c0.1-0.2,0.2-0.4,0.3-0.7c0-0.2,0-0.4,0-0.8l0-1.7l-4.8,0.1L443.1,118.8z
				 M449.2,120.1l0.1,3.1c0,0.7,0.1,1.2,0.2,1.5c0.1,0.4,0.4,0.6,0.7,0.8c0.3,0.2,0.6,0.3,1,0.3c0.5,0,0.9-0.2,1.3-0.6
				s0.5-1,0.5-1.8l-0.1-3.4L449.2,120.1z"/>
		</g>
		<g>
			<path class="st6" d="M446.3,133.4l0.2,1.3c-0.7,0.2-1.3,0.4-1.6,0.8c-0.3,0.4-0.5,0.8-0.5,1.4c0,0.6,0.2,1.1,0.7,1.6
				c0.4,0.4,1,0.6,1.6,0.6c0.6,0,1.1-0.2,1.5-0.6c0.4-0.4,0.6-0.9,0.6-1.5c0-0.3-0.1-0.6-0.2-0.9l1.2,0.1c0,0.1,0,0.2,0,0.2
				c0,0.6,0.2,1.1,0.5,1.5c0.3,0.4,0.8,0.7,1.4,0.6c0.5,0,0.9-0.2,1.2-0.5c0.3-0.3,0.5-0.8,0.4-1.3c0-0.5-0.2-0.9-0.5-1.3
				c-0.3-0.3-0.8-0.5-1.5-0.6l0.2-1.3c0.9,0.1,1.6,0.5,2.1,1.1c0.5,0.6,0.8,1.3,0.8,2.1c0,0.6-0.1,1.1-0.3,1.6
				c-0.2,0.5-0.6,0.9-1,1.2c-0.4,0.3-0.9,0.4-1.4,0.4c-0.5,0-0.9-0.1-1.3-0.3s-0.7-0.6-0.9-1.1c-0.1,0.6-0.4,1.1-0.9,1.5
				c-0.5,0.4-1,0.6-1.7,0.6c-0.9,0-1.8-0.3-2.4-1s-1-1.5-1-2.6c0-1,0.2-1.7,0.8-2.4C444.7,133.9,445.4,133.5,446.3,133.4z"/>
		</g>
		<g>
			<path class="st6" d="M449,141.8c1.3,0,2.3,0.1,3.1,0.3c0.8,0.2,1.4,0.6,1.8,1.1c0.4,0.5,0.7,1.2,0.7,1.9c0,0.6-0.1,1.1-0.3,1.5
				c-0.2,0.4-0.6,0.8-1,1.1c-0.4,0.3-1,0.5-1.6,0.7c-0.6,0.2-1.5,0.3-2.6,0.3c-1.3,0-2.3-0.1-3.1-0.3c-0.8-0.2-1.4-0.6-1.8-1.1
				c-0.4-0.5-0.7-1.2-0.7-2c0-1,0.3-1.9,1.1-2.5C445.5,142.2,447,141.8,449,141.8z M449.1,143.1c-1.8,0-3,0.3-3.5,0.7
				c-0.6,0.4-0.9,1-0.8,1.6s0.3,1.1,0.9,1.5c0.6,0.4,1.8,0.6,3.6,0.5c1.8,0,3-0.3,3.5-0.7c0.6-0.4,0.9-1,0.8-1.6
				c0-0.6-0.3-1.1-0.8-1.4C452.1,143.3,450.8,143.1,449.1,143.1z"/>
		</g>
		<g>
			<path class="st6" d="M444,154.6l2.6-0.1l-0.1-4.7l1.2,0l7.1,4.8l0,1.1l-7,0.2l0,1.5l-1.2,0l0-1.5l-2.6,0.1L444,154.6z
				 M447.8,154.5l4.9-0.1l-5-3.3L447.8,154.5z"/>
		</g>
		<g>
			<path class="st6" d="M444.1,159.5l1.5,0l0,1.5l-1.5,0L444.1,159.5z"/>
		</g>
		<g>
			<path class="st6" d="M450.1,164.9c0.2-0.6,0.5-1,0.8-1.2c0.4-0.3,0.8-0.4,1.3-0.4c0.8,0,1.5,0.2,2,0.8c0.6,0.6,0.8,1.3,0.9,2.2
				c0,0.9-0.2,1.7-0.8,2.3c-0.5,0.6-1.2,0.9-2,0.9c-0.5,0-0.9-0.1-1.3-0.4c-0.4-0.3-0.7-0.6-0.9-1.2c-0.2,0.7-0.5,1.2-1,1.5
				c-0.5,0.4-1,0.5-1.7,0.6c-0.9,0-1.7-0.3-2.4-0.9c-0.6-0.6-1-1.5-1-2.6c0-1.1,0.3-1.9,0.9-2.6s1.4-1,2.3-1c0.7,0,1.3,0.1,1.8,0.5
				S449.9,164.2,450.1,164.9z M447.3,164.2c-0.4,0-0.7,0.1-1.1,0.3c-0.4,0.2-0.6,0.5-0.8,0.8c-0.2,0.4-0.3,0.7-0.3,1.2
				c0,0.6,0.2,1.2,0.7,1.6c0.4,0.4,0.9,0.6,1.6,0.6c0.6,0,1.2-0.2,1.6-0.7c0.4-0.4,0.6-1,0.6-1.6c0-0.6-0.2-1.1-0.7-1.5
				C448.5,164.4,448,164.2,447.3,164.2z M452.4,164.6c-0.5,0-0.9,0.2-1.2,0.5c-0.3,0.3-0.5,0.8-0.5,1.3c0,0.5,0.2,0.9,0.5,1.2
				c0.3,0.3,0.7,0.5,1.2,0.5c0.5,0,0.9-0.2,1.2-0.5c0.3-0.3,0.5-0.8,0.5-1.3c0-0.5-0.2-0.9-0.5-1.3
				C453.2,164.7,452.8,164.5,452.4,164.6z"/>
		</g>
		<g>
			<path class="st6" d="M581.8,571.5l-6.4-8.8l3.9-2.8c0.8-0.6,1.4-0.9,2-1.1c0.5-0.1,1-0.1,1.6,0.1c0.5,0.2,1,0.6,1.3,1.1
				c0.5,0.6,0.6,1.3,0.5,2s-0.5,1.4-1.3,2.2c0.4-0.1,0.8-0.1,1-0.1c0.6,0.1,1.2,0.2,1.8,0.5l3.3,1.3l-1.5,1.1l-2.5-1
				c-0.7-0.3-1.3-0.5-1.7-0.6c-0.4-0.1-0.8-0.2-1-0.2c-0.3,0-0.5,0.1-0.7,0.2c-0.2,0.1-0.4,0.2-0.7,0.4l-1.3,1l2.8,3.9L581.8,571.5z
				 M579.4,565.7l2.5-1.8c0.5-0.4,0.9-0.7,1.1-1.1s0.3-0.7,0.3-1c0-0.4-0.1-0.7-0.3-1c-0.3-0.4-0.7-0.6-1.2-0.7
				c-0.5,0-1.1,0.2-1.7,0.6l-2.8,2L579.4,565.7z"/>
		</g>
		<g>
			<path class="st6" d="M594.2,562.4l-1.1,0.8l-5-6.9c-0.1,0.4-0.2,0.9-0.5,1.5c-0.2,0.6-0.5,1-0.7,1.4l-0.8-1
				c0.4-0.7,0.7-1.4,0.8-2.2s0.2-1.4,0.1-1.9l0.7-0.5L594.2,562.4z"/>
		</g>
		<g>
			<path class="st6" d="M601.9,555.3l0.8,1l-5.8,4.2c-0.2-0.3-0.3-0.5-0.4-0.8c-0.1-0.5-0.2-1.1-0.1-1.7c0-0.6,0.2-1.4,0.4-2.4
				c0.4-1.5,0.6-2.6,0.6-3.3s-0.1-1.3-0.4-1.7c-0.3-0.4-0.7-0.7-1.2-0.7c-0.5-0.1-1,0.1-1.5,0.4c-0.5,0.4-0.8,0.8-0.9,1.4
				c-0.1,0.5,0.1,1.1,0.5,1.6l-1.2,0.7c-0.5-0.9-0.7-1.7-0.5-2.5s0.7-1.5,1.5-2.1c0.8-0.6,1.7-0.9,2.5-0.7s1.5,0.5,2,1.2
				c0.3,0.4,0.4,0.7,0.5,1.2c0.1,0.4,0.1,1,0.1,1.6c-0.1,0.6-0.2,1.5-0.5,2.7c-0.3,1-0.4,1.7-0.4,2c0,0.3-0.1,0.6,0,0.9L601.9,555.3
				z"/>
		</g>
		<g>
			<path class="st6" d="M604.4,555.1l-0.9-1.2l1.2-0.9l0.9,1.2L604.4,555.1z"/>
			<path class="st6" d="M601.7,545.4l-0.8-1l5.7-4.1l0.6,0.8c-0.1,1-0.1,2.2,0.1,3.6c0.2,1.4,0.5,2.7,0.9,4c0.3,0.9,0.8,1.8,1.3,2.7
				l-1.1,0.8c-0.5-0.7-1-1.6-1.4-2.8s-0.8-2.4-0.9-3.6c-0.2-1.3-0.2-2.4-0.1-3.4L601.7,545.4z"/>
		</g>
		<line class="st99" x1="426.3" y1="263.5" x2="355.5" y2="326.4"/>
		<polygon class="st6" points="421.8,262.5 435.4,255.6 427,268.4 		"/>
		<line class="st102" x1="613.4" y1="85.9" x2="542.3" y2="149"/>
		<polygon class="st6" points="609,84.9 622.2,78.3 614.1,90.6 		"/>
		<line class="st102" x1="437" y1="83.8" x2="439.5" y2="190.4"/>
		<polygon class="st6" points="433.4,86.5 436.9,72.1 441.1,86.3 		"/>
		<line class="st101" x1="387" y1="716.7" x2="387" y2="659.8"/>
		<polygon class="st6" points="390.6,714.1 386.8,728.4 383,714.1 		"/>
		<polygon class="st6" points="390.6,662.4 386.8,648.2 383,662.4 		"/>
		<line class="st101" x1="283.1" y1="716.7" x2="283.1" y2="616.8"/>
		<polygon class="st6" points="286.8,714.1 282.9,728.4 279.1,714.1 		"/>
		<polygon class="st6" points="286.8,619.4 282.9,605.1 279.1,619.4 		"/>
		<line class="st101" x1="521.1" y1="297.4" x2="620.2" y2="317.5"/>
		<polygon class="st6" points="523,301.5 509.8,295 524.5,294 		"/>
		<line class="st101" x1="209.3" y1="678.3" x2="168.5" y2="611.7"/>
		<polygon class="st6" points="211.1,674.1 215.3,688.3 204.6,678.1 		"/>
		<line class="st99" x1="837.5" y1="716.3" x2="837.5" y2="695.5"/>
		<polygon class="st6" points="841.3,713.6 837.3,728.4 833.3,713.6 		"/>
		<polygon class="st6" points="841.3,698.2 837.3,683.4 833.3,698.2 		"/>
		<line class="st101" x1="684.4" y1="658.5" x2="707.8" y2="594.2"/>
		<polygon class="st6" points="688.8,657.3 680.3,669.4 681.6,654.7 		"/>
		<line class="st101" x1="555.6" y1="601" x2="618.7" y2="552.7"/>
		<polygon class="st6" points="559.9,602.4 546.2,608 555.2,596.3 		"/>
		<g>
			<path class="st6" d="M540.3,141.9l-7.1-8.2l3.6-3.2c0.7-0.6,1.3-1,1.9-1.2s1-0.2,1.6,0c0.5,0.2,1,0.5,1.4,0.9
				c0.5,0.6,0.7,1.2,0.7,2c0,0.7-0.4,1.5-1.1,2.3c0.4-0.1,0.7-0.2,1-0.2c0.6,0,1.2,0.1,1.8,0.3l3.4,1l-1.4,1.2l-2.6-0.8
				c-0.7-0.2-1.3-0.4-1.8-0.4c-0.4-0.1-0.8-0.1-1-0.1c-0.3,0-0.5,0.1-0.7,0.2c-0.1,0.1-0.4,0.2-0.6,0.5l-1.3,1.1l3.2,3.6
				L540.3,141.9z M537.4,136.4l2.3-2c0.5-0.4,0.8-0.8,1-1.2c0.2-0.3,0.3-0.7,0.2-1c-0.1-0.4-0.2-0.7-0.4-0.9
				c-0.3-0.4-0.8-0.6-1.3-0.6c-0.5,0-1,0.3-1.7,0.8l-2.6,2.3L537.4,136.4z"/>
			<path class="st6" d="M551.9,131.8l-1,0.9l-5.6-6.4c0,0.4-0.2,0.9-0.3,1.5c-0.2,0.6-0.4,1.1-0.6,1.4l-0.8-1
				c0.3-0.8,0.5-1.5,0.6-2.2c0.1-0.7,0.1-1.4-0.1-1.9l0.6-0.6L551.9,131.8z"/>
		</g>
		<g>
			<path class="st6" d="M557.4,127l-1,0.9l-5.6-6.4c0,0.4-0.2,0.9-0.3,1.5c-0.2,0.6-0.4,1.1-0.6,1.4l-0.8-1c0.3-0.8,0.5-1.5,0.6-2.2
				c0.1-0.7,0.1-1.4-0.1-1.9l0.6-0.6L557.4,127z"/>
		</g>
		<g>
			<path class="st6" d="M560.6,124.3l-1-1.1l1.1-1l1,1.1L560.6,124.3z"/>
		</g>
		<g>
			<path class="st6" d="M567,118.7l-1,0.9l-5.6-6.4c0,0.4-0.2,0.9-0.3,1.5s-0.4,1.1-0.6,1.4l-0.8-1c0.3-0.8,0.5-1.5,0.6-2.2
				c0.1-0.7,0.1-1.4-0.1-1.9l0.6-0.6L567,118.7z"/>
			<path class="st6" d="M573.3,113.2l-1,0.9l-5.6-6.4c0,0.4-0.2,0.9-0.3,1.5c-0.2,0.6-0.4,1.1-0.6,1.4l-0.8-1
				c0.3-0.8,0.5-1.5,0.6-2.2c0.1-0.7,0.1-1.4-0.1-1.9l0.6-0.6L573.3,113.2z"/>
		</g>
		<g>
			<path class="st6" d="M468.2,773.6h-1.3v-8.5c-0.3,0.3-0.7,0.6-1.3,0.9c-0.5,0.3-1,0.5-1.4,0.7v-1.3c0.7-0.3,1.4-0.8,2-1.3
				s1-1,1.2-1.5h0.9V773.6z"/>
		</g>
		<g>
			<path class="st6" d="M475.5,773.6h-1.3v-8.5c-0.3,0.3-0.7,0.6-1.3,0.9c-0.5,0.3-1,0.5-1.4,0.7v-1.3c0.7-0.3,1.4-0.8,2-1.3
				s1-1,1.2-1.5h0.9V773.6z"/>
			<path class="st6" d="M479,764.2v-1.3h7v1c-0.7,0.7-1.4,1.7-2.1,2.9c-0.7,1.2-1.2,2.5-1.6,3.8c-0.3,0.9-0.4,1.9-0.5,3h-1.4
				c0-0.9,0.2-1.9,0.5-3.1c0.3-1.2,0.8-2.4,1.4-3.5c0.6-1.1,1.2-2.1,1.9-2.8H479z"/>
			<path class="st6" d="M488.1,773.6v-1.5h1.5v1.5H488.1z"/>
			<path class="st6" d="M495.8,773.6V771h-4.7v-1.2l4.9-7h1.1v7h1.5v1.2h-1.5v2.6H495.8z M495.8,769.8v-4.9l-3.4,4.9H495.8z"/>
			<path class="st6" d="M500.1,764.2v-1.3h7v1c-0.7,0.7-1.4,1.7-2.1,2.9c-0.7,1.2-1.2,2.5-1.6,3.8c-0.3,0.9-0.4,1.9-0.5,3h-1.4
				c0-0.9,0.2-1.9,0.5-3.1c0.3-1.2,0.8-2.4,1.4-3.5c0.6-1.1,1.2-2.1,1.9-2.8H500.1z"/>
			<path class="st6" d="M515.5,776.8c-0.7-0.9-1.4-2-1.9-3.3c-0.5-1.2-0.8-2.5-0.8-3.9c0-1.2,0.2-2.3,0.6-3.4
				c0.4-1.2,1.1-2.5,2.1-3.7h1c-0.6,1-1,1.8-1.2,2.2c-0.3,0.7-0.5,1.4-0.7,2.1c-0.2,0.9-0.3,1.8-0.3,2.8c0,2.4,0.7,4.7,2.2,7.1
				H515.5z"/>
			<path class="st6" d="M521.9,773.6V771h-4.7v-1.2l4.9-7h1.1v7h1.5v1.2h-1.5v2.6H521.9z M521.9,769.8v-4.9l-3.4,4.9H521.9z"/>
			<path class="st6" d="M530.3,770.8l1.4-0.1c0.1,0.7,0.3,1.2,0.7,1.5s0.8,0.5,1.4,0.5c0.6,0,1.2-0.2,1.6-0.7
				c0.4-0.5,0.7-1.1,0.7-1.9c0-0.8-0.2-1.4-0.6-1.8c-0.4-0.4-1-0.7-1.7-0.7c-0.4,0-0.8,0.1-1.2,0.3c-0.3,0.2-0.6,0.4-0.8,0.8
				l-1.2-0.2l1.1-5.6h5.4v1.3h-4.3l-0.6,2.9c0.7-0.5,1.3-0.7,2-0.7c0.9,0,1.7,0.3,2.4,1c0.7,0.7,1,1.5,1,2.5c0,1-0.3,1.8-0.9,2.5
				c-0.7,0.9-1.6,1.3-2.8,1.3c-1,0-1.8-0.3-2.4-0.8C530.7,772.4,530.4,771.7,530.3,770.8z"/>
			<path class="st6" d="M538.1,773.8l3.1-11.2h1.1l-3.1,11.2H538.1z"/>
			<path class="st6" d="M545,767.7c-0.6-0.2-1-0.5-1.2-0.9c-0.3-0.4-0.4-0.8-0.4-1.3c0-0.8,0.3-1.5,0.9-2c0.6-0.5,1.3-0.8,2.3-0.8
				c0.9,0,1.7,0.3,2.3,0.8c0.6,0.5,0.9,1.2,0.9,2c0,0.5-0.1,0.9-0.4,1.3c-0.3,0.4-0.7,0.7-1.2,0.9c0.7,0.2,1.2,0.6,1.5,1
				c0.3,0.5,0.5,1.1,0.5,1.7c0,0.9-0.3,1.7-1,2.3c-0.7,0.6-1.5,0.9-2.6,0.9c-1.1,0-1.9-0.3-2.6-1c-0.7-0.6-1-1.4-1-2.4
				c0-0.7,0.2-1.3,0.5-1.8S544.3,767.9,545,767.7z M544.3,770.5c0,0.4,0.1,0.7,0.3,1.1c0.2,0.4,0.4,0.6,0.8,0.8
				c0.4,0.2,0.7,0.3,1.1,0.3c0.6,0,1.2-0.2,1.6-0.6c0.4-0.4,0.6-0.9,0.6-1.6c0-0.6-0.2-1.2-0.6-1.6c-0.4-0.4-1-0.6-1.6-0.6
				c-0.6,0-1.1,0.2-1.6,0.6C544.5,769.3,544.3,769.8,544.3,770.5z M544.7,765.5c0,0.5,0.2,0.9,0.5,1.3s0.8,0.5,1.3,0.5
				c0.5,0,0.9-0.2,1.3-0.5c0.3-0.3,0.5-0.7,0.5-1.2c0-0.5-0.2-0.9-0.5-1.2c-0.3-0.3-0.8-0.5-1.3-0.5c-0.5,0-0.9,0.2-1.3,0.5
				C544.9,764.6,544.7,765,544.7,765.5z"/>
			<path class="st6" d="M551.8,766.6l-0.4-2.1v-1.8h1.5v1.8l-0.3,2.1H551.8z M554.2,766.6l-0.4-2.1v-1.8h1.5v1.8l-0.4,2.1H554.2z"/>
			<path class="st6" d="M558,776.8h-1c1.5-2.4,2.2-4.7,2.2-7.1c0-0.9-0.1-1.8-0.3-2.8c-0.2-0.7-0.4-1.5-0.7-2.1
				c-0.2-0.4-0.6-1.2-1.2-2.2h1c0.9,1.2,1.6,2.5,2.1,3.7c0.4,1.1,0.6,2.2,0.6,3.4c0,1.3-0.3,2.6-0.8,3.9
				C559.3,774.8,558.7,775.9,558,776.8z"/>
		</g>
		<g>
			<path class="st6" d="M515,751.7v-6.4l-5.9-8.8h2.4l3,4.6c0.5,0.9,1.1,1.7,1.5,2.6c0.5-0.8,1-1.7,1.7-2.7l2.9-4.5h2.3l-6.1,8.8
				v6.4H515z"/>
			<path class="st6" d="M515,60v-6.4l-5.9-8.7h2.4l3,4.6c0.5,0.9,1.1,1.7,1.5,2.6c0.5-0.8,1-1.7,1.7-2.7l2.9-4.5h2.3l-6.1,8.7V60
				H515z"/>
		</g>
		<line class="st103" x1="761.1" y1="266.3" x2="761.1" y2="82.3"/>
		<polygon class="st8" points="764.9,263.6 760.9,278.3 756.9,263.6 		"/>
		<polygon class="st8" points="764.9,85 760.9,70.2 756.9,85 		"/>
		<g>
			<path class="st6" d="M752.2,196.6h-2.6v4.7h-1.2l-7-4.9v-1.1h7v-1.5h1.2v1.5h2.6V196.6z M748.4,196.6h-4.9l4.9,3.4V196.6z"/>
			<path class="st6" d="M750.9,185.4h1.3v7.2c-0.3,0-0.6,0-0.9-0.2c-0.5-0.2-1-0.5-1.4-0.9c-0.5-0.4-1-1-1.6-1.7
				c-1-1.2-1.7-2-2.3-2.4c-0.6-0.4-1.1-0.6-1.6-0.6c-0.5,0-1,0.2-1.3,0.6c-0.4,0.4-0.5,0.9-0.5,1.5c0,0.6,0.2,1.2,0.6,1.5
				s0.9,0.6,1.6,0.6l-0.1,1.4c-1-0.1-1.8-0.4-2.3-1.1c-0.5-0.6-0.8-1.4-0.8-2.5c0-1,0.3-1.9,0.9-2.5s1.3-0.9,2.1-0.9
				c0.4,0,0.9,0.1,1.3,0.3s0.9,0.5,1.3,0.9c0.5,0.4,1.1,1.1,1.9,2.1c0.7,0.8,1.1,1.3,1.4,1.5c0.2,0.2,0.5,0.4,0.7,0.6V185.4z"/>
			<path class="st6" d="M752.2,183.3h-1.5v-1.5h1.5V183.3z"/>
			<path class="st6" d="M752.2,175.5h-2.6v4.7h-1.2l-7-4.9v-1.1h7v-1.5h1.2v1.5h2.6V175.5z M748.4,175.5h-4.9l4.9,3.4V175.5z"/>
			<path class="st6" d="M742.8,171.3h-1.3v-7h1c0.7,0.7,1.7,1.4,2.9,2.1c1.2,0.7,2.5,1.2,3.8,1.6c0.9,0.3,1.9,0.4,3,0.5v1.4
				c-0.9,0-1.9-0.2-3.1-0.5c-1.2-0.3-2.4-0.8-3.5-1.4c-1.1-0.6-2.1-1.2-2.8-1.9V171.3z"/>
		</g>
		<line class="st103" x1="223.2" y1="780.8" x2="776.4" y2="780.8"/>
		<polygon class="st8" points="225.9,784.6 211.1,780.6 225.9,776.7 		"/>
		<polygon class="st8" points="773.7,784.6 788.5,780.6 773.7,776.7 		"/>
		<line class="st104" x1="500.4" y1="751.7" x2="499.5" y2="40.5"/>
		<g>
			<path class="st6" d="M470.1,16.1l-1.3,0.1c-0.1-0.5-0.3-0.9-0.5-1.1c-0.4-0.4-0.8-0.6-1.3-0.6c-0.4,0-0.8,0.1-1.1,0.4
				c-0.4,0.3-0.8,0.8-1,1.3c-0.2,0.6-0.4,1.4-0.4,2.5c0.3-0.5,0.7-0.9,1.2-1.1c0.5-0.2,0.9-0.4,1.5-0.4c0.9,0,1.6,0.3,2.3,1
				c0.6,0.7,0.9,1.5,0.9,2.5c0,0.7-0.1,1.3-0.4,1.9c-0.3,0.6-0.7,1-1.2,1.3c-0.5,0.3-1.1,0.5-1.7,0.5c-1.1,0-2-0.4-2.7-1.2
				c-0.7-0.8-1.1-2.2-1.1-4c0-2.1,0.4-3.6,1.2-4.6c0.7-0.8,1.6-1.2,2.7-1.2c0.9,0,1.6,0.2,2.1,0.7C469.7,14.6,470,15.3,470.1,16.1z
				 M464.7,20.8c0,0.5,0.1,0.9,0.3,1.3c0.2,0.4,0.5,0.7,0.8,1c0.3,0.2,0.7,0.3,1.1,0.3c0.6,0,1-0.2,1.5-0.7s0.6-1.1,0.6-1.8
				c0-0.7-0.2-1.3-0.6-1.8s-0.9-0.6-1.5-0.6c-0.6,0-1.1,0.2-1.5,0.6S464.7,20.1,464.7,20.8z"/>
			<path class="st6" d="M471.6,21.5l1.3-0.2c0.2,0.8,0.4,1.3,0.8,1.6s0.8,0.5,1.3,0.5c0.6,0,1.2-0.2,1.6-0.7c0.4-0.4,0.6-1,0.6-1.6
				c0-0.6-0.2-1.1-0.6-1.5s-0.9-0.6-1.5-0.6c-0.3,0-0.6,0-0.9,0.1l0.1-1.2c0.1,0,0.2,0,0.2,0c0.6,0,1.1-0.1,1.5-0.4
				c0.5-0.3,0.7-0.8,0.7-1.4c0-0.5-0.2-0.9-0.5-1.2c-0.3-0.3-0.8-0.5-1.3-0.5c-0.5,0-0.9,0.2-1.3,0.5c-0.3,0.3-0.6,0.8-0.7,1.5
				l-1.3-0.2c0.2-0.9,0.5-1.6,1.1-2.1s1.3-0.7,2.2-0.7c0.6,0,1.1,0.1,1.6,0.4c0.5,0.3,0.9,0.6,1.1,1s0.4,0.9,0.4,1.4
				c0,0.5-0.1,0.9-0.4,1.3c-0.3,0.4-0.6,0.7-1.1,0.9c0.6,0.1,1.1,0.5,1.5,0.9c0.4,0.5,0.5,1,0.5,1.7c0,0.9-0.3,1.7-1,2.4
				c-0.7,0.7-1.6,1-2.6,1c-1,0-1.7-0.3-2.4-0.9C472.1,23.1,471.7,22.4,471.6,21.5z"/>
			<path class="st6" d="M480.8,24.3v-1.5h1.5v1.5H480.8z"/>
			<path class="st6" d="M484.3,21.5l1.4-0.1c0.1,0.7,0.3,1.2,0.7,1.5s0.8,0.5,1.4,0.5c0.6,0,1.2-0.2,1.6-0.7
				c0.4-0.5,0.7-1.1,0.7-1.9c0-0.8-0.2-1.4-0.6-1.8s-1-0.7-1.7-0.7c-0.4,0-0.8,0.1-1.2,0.3c-0.3,0.2-0.6,0.4-0.8,0.8l-1.2-0.2
				l1.1-5.6h5.4v1.3h-4.3l-0.6,2.9c0.7-0.5,1.3-0.7,2-0.7c0.9,0,1.7,0.3,2.4,1s1,1.5,1,2.5c0,1-0.3,1.8-0.9,2.5
				c-0.7,0.9-1.6,1.3-2.8,1.3c-1,0-1.8-0.3-2.4-0.8C484.7,23.1,484.3,22.4,484.3,21.5z"/>
			<path class="st6" d="M499.8,27.5c-0.7-0.9-1.4-2-1.9-3.3c-0.5-1.2-0.8-2.5-0.8-3.9c0-1.2,0.2-2.3,0.6-3.4
				c0.4-1.2,1.1-2.5,2.1-3.7h1c-0.6,1-1,1.8-1.2,2.2c-0.3,0.7-0.5,1.4-0.7,2.1c-0.2,0.9-0.3,1.8-0.3,2.8c0,2.4,0.7,4.7,2.2,7.1
				H499.8z"/>
			<path class="st6" d="M508.9,23.1v1.3h-7.2c0-0.3,0-0.6,0.2-0.9c0.2-0.5,0.5-1,0.9-1.4c0.4-0.5,1-1,1.7-1.6c1.2-1,2-1.7,2.4-2.3
				c0.4-0.6,0.6-1.1,0.6-1.6c0-0.5-0.2-1-0.6-1.3c-0.4-0.4-0.9-0.5-1.5-0.5c-0.6,0-1.2,0.2-1.5,0.6s-0.6,0.9-0.6,1.6l-1.4-0.1
				c0.1-1,0.4-1.8,1.1-2.3c0.6-0.5,1.4-0.8,2.5-0.8c1,0,1.9,0.3,2.5,0.9c0.6,0.6,0.9,1.3,0.9,2.1c0,0.4-0.1,0.9-0.3,1.3
				c-0.2,0.4-0.5,0.9-0.9,1.3c-0.4,0.5-1.1,1.1-2.1,1.9c-0.8,0.7-1.3,1.1-1.5,1.4s-0.4,0.5-0.6,0.7H508.9z"/>
			<path class="st6" d="M519.6,24.3h-1.3v-8.5c-0.3,0.3-0.7,0.6-1.3,0.9c-0.5,0.3-1,0.5-1.4,0.7v-1.3c0.7-0.4,1.4-0.8,2-1.3
				c0.6-0.5,1-1,1.2-1.4h0.9V24.3z"/>
			<path class="st6" d="M522.4,24.5l3.1-11.2h1.1l-3.1,11.2H522.4z"/>
			<path class="st6" d="M534.2,23.1v1.3H527c0-0.3,0-0.6,0.2-0.9c0.2-0.5,0.5-1,0.9-1.4c0.4-0.5,1-1,1.7-1.6c1.2-1,2-1.7,2.4-2.3
				c0.4-0.6,0.6-1.1,0.6-1.6c0-0.5-0.2-1-0.6-1.3c-0.4-0.4-0.9-0.5-1.5-0.5c-0.6,0-1.2,0.2-1.5,0.6s-0.6,0.9-0.6,1.6l-1.4-0.1
				c0.1-1,0.4-1.8,1.1-2.3c0.6-0.5,1.4-0.8,2.5-0.8c1,0,1.9,0.3,2.5,0.9c0.6,0.6,0.9,1.3,0.9,2.1c0,0.4-0.1,0.9-0.3,1.3
				c-0.2,0.4-0.5,0.9-0.9,1.3c-0.4,0.5-1.1,1.1-2.1,1.9c-0.8,0.7-1.3,1.1-1.5,1.4s-0.4,0.5-0.6,0.7H534.2z"/>
			<path class="st6" d="M536.1,17.3l-0.4-2.1v-1.8h1.5v1.8l-0.3,2.1H536.1z M538.5,17.3l-0.4-2.1v-1.8h1.5v1.8l-0.4,2.1H538.5z"/>
			<path class="st6" d="M542.3,27.5h-1c1.5-2.4,2.2-4.7,2.2-7.1c0-0.9-0.1-1.8-0.3-2.8c-0.2-0.7-0.4-1.4-0.7-2.1
				c-0.2-0.4-0.6-1.2-1.2-2.2h1c0.9,1.2,1.6,2.5,2.1,3.7c0.4,1.1,0.6,2.2,0.6,3.4c0,1.3-0.3,2.6-0.8,3.9
				C543.6,25.5,543,26.6,542.3,27.5z"/>
		</g>
		<line class="st103" x1="351.8" y1="31.5" x2="647.1" y2="31.5"/>
		<polygon class="st8" points="354.5,35.3 339.7,31.4 354.5,27.4 		"/>
		<polygon class="st8" points="644.4,35.3 659.2,31.4 644.4,27.4 		"/>
		<line class="st103" x1="149.2" y1="716.3" x2="149.2" y2="411.7"/>
		<polygon class="st8" points="152.9,713.6 149,728.4 145,713.6 		"/>
		<polygon class="st8" points="152.9,414.4 149,399.7 145,414.4 		"/>
		<g>
			<path class="st6" d="M132.1,565.6l0.1,1.3c-0.5,0.1-0.9,0.3-1.1,0.5c-0.4,0.4-0.6,0.8-0.6,1.3c0,0.4,0.1,0.8,0.4,1.1
				c0.3,0.4,0.8,0.8,1.3,1c0.6,0.2,1.4,0.4,2.5,0.4c-0.5-0.3-0.9-0.7-1.1-1.2c-0.2-0.5-0.4-0.9-0.4-1.5c0-0.9,0.3-1.6,1-2.3
				c0.7-0.6,1.5-0.9,2.5-0.9c0.7,0,1.3,0.1,1.9,0.4c0.6,0.3,1,0.7,1.3,1.2c0.3,0.5,0.5,1.1,0.5,1.7c0,1.1-0.4,2-1.2,2.7
				s-2.2,1.1-4,1.1c-2.1,0-3.6-0.4-4.6-1.2c-0.8-0.7-1.2-1.6-1.2-2.7c0-0.9,0.2-1.6,0.7-2.1C130.6,566,131.3,565.7,132.1,565.6z
				 M136.8,571c0.5,0,0.9-0.1,1.3-0.3c0.4-0.2,0.7-0.5,1-0.8c0.2-0.3,0.3-0.7,0.3-1.1c0-0.6-0.2-1-0.7-1.5c-0.5-0.4-1.1-0.6-1.8-0.6
				c-0.8,0-1.3,0.2-1.8,0.6c-0.4,0.4-0.6,0.9-0.6,1.5c0,0.6,0.2,1.1,0.6,1.5C135.5,570.8,136.1,571,136.8,571z"/>
			<path class="st6" d="M132.1,557.2l0.1,1.3c-0.5,0.1-0.9,0.3-1.1,0.5c-0.4,0.4-0.6,0.8-0.6,1.3c0,0.4,0.1,0.8,0.4,1.1
				c0.3,0.4,0.8,0.8,1.3,1c0.6,0.2,1.4,0.4,2.5,0.4c-0.5-0.3-0.9-0.7-1.1-1.2c-0.2-0.5-0.4-0.9-0.4-1.5c0-0.9,0.3-1.6,1-2.3
				c0.7-0.6,1.5-0.9,2.5-0.9c0.7,0,1.3,0.1,1.9,0.4c0.6,0.3,1,0.7,1.3,1.2c0.3,0.5,0.5,1.1,0.5,1.7c0,1.1-0.4,2-1.2,2.7
				s-2.2,1.1-4,1.1c-2.1,0-3.6-0.4-4.6-1.2c-0.8-0.7-1.2-1.6-1.2-2.7c0-0.9,0.2-1.6,0.7-2.1C130.6,557.6,131.3,557.3,132.1,557.2z
				 M136.8,562.6c0.5,0,0.9-0.1,1.3-0.3c0.4-0.2,0.7-0.5,1-0.8c0.2-0.3,0.3-0.7,0.3-1.1c0-0.6-0.2-1-0.7-1.5
				c-0.5-0.4-1.1-0.6-1.8-0.6c-0.8,0-1.3,0.2-1.8,0.6c-0.4,0.4-0.6,0.9-0.6,1.5c0,0.6,0.2,1.1,0.6,1.5
				C135.5,562.4,136.1,562.6,136.8,562.6z"/>
			<path class="st6" d="M140.3,554.9h-1.5v-1.5h1.5V554.9z"/>
			<path class="st6" d="M132.1,544.5l0.1,1.3c-0.5,0.1-0.9,0.3-1.1,0.5c-0.4,0.4-0.6,0.8-0.6,1.3c0,0.4,0.1,0.8,0.4,1.1
				c0.3,0.4,0.8,0.8,1.3,1c0.6,0.2,1.4,0.4,2.5,0.4c-0.5-0.3-0.9-0.7-1.1-1.2c-0.2-0.5-0.4-0.9-0.4-1.5c0-0.9,0.3-1.6,1-2.3
				c0.7-0.6,1.5-0.9,2.5-0.9c0.7,0,1.3,0.1,1.9,0.4c0.6,0.3,1,0.7,1.3,1.2c0.3,0.5,0.5,1.1,0.5,1.7c0,1.1-0.4,2-1.2,2.7
				s-2.2,1.1-4,1.1c-2.1,0-3.6-0.4-4.6-1.2c-0.8-0.7-1.2-1.6-1.2-2.7c0-0.9,0.2-1.6,0.7-2.1C130.6,545,131.3,544.7,132.1,544.5z
				 M136.8,550c0.5,0,0.9-0.1,1.3-0.3c0.4-0.2,0.7-0.5,1-0.8c0.2-0.3,0.3-0.7,0.3-1.1c0-0.6-0.2-1-0.7-1.5c-0.5-0.4-1.1-0.6-1.8-0.6
				c-0.8,0-1.3,0.2-1.8,0.6c-0.4,0.4-0.6,0.9-0.6,1.5c0,0.6,0.2,1.1,0.6,1.5C135.5,549.8,136.1,550,136.8,550z"/>
			<path class="st6" d="M130.9,542.9h-1.3v-7h1c0.7,0.7,1.7,1.4,2.9,2.1c1.2,0.7,2.5,1.2,3.8,1.6c0.9,0.3,1.9,0.4,3,0.5v1.4
				c-0.9,0-1.9-0.2-3.1-0.5c-1.2-0.3-2.4-0.8-3.5-1.4c-1.1-0.6-2.1-1.2-2.8-1.9V542.9z"/>
		</g>
		<line class="st103" x1="103.7" y1="716.3" x2="103.7" y2="82.9"/>
		<polygon class="st8" points="107.5,713.6 103.5,728.4 99.6,713.6 		"/>
		<polygon class="st8" points="107.5,85.6 103.5,70.8 99.6,85.6 		"/>
		<line class="st103" x1="350.1" y1="212.1" x2="415.4" y2="174.3"/>
		<polygon class="st8" points="354.4,214.1 339.6,218.1 350.4,207.2 		"/>
		<line class="st103" x1="732" y1="291.7" x2="732" y2="305.4"/>
		<polygon class="st8" points="728.2,294.4 732.2,279.6 736.1,294.4 		"/>
		<polygon class="st8" points="728.2,302.7 732.2,317.5 736.1,302.7 		"/>
		<line class="st105" x1="478.3" y1="474" x2="520.2" y2="474"/>
		<polygon class="st8" points="481,477.8 466.3,473.8 481,469.8 		"/>
		<polygon class="st8" points="517.5,477.8 532.3,473.8 517.5,469.8 		"/>
		<line class="st103" x1="532.3" y1="473.9" x2="632.6" y2="473.9"/>
		<g>
			<path class="st6" d="M549,459.8L549,459.8l-1.7,0.9l-0.3-1l2.2-1.1l1.1,0l-0.1,9.8l-1.3,0L549,459.8z"/>
		</g>
		<g>
			<path class="st6" d="M554.2,466.9c0.4,0.2,1.3,0.6,2.2,0.6c1.7,0,2.2-1.1,2.2-1.9c0-1.4-1.2-2-2.5-2l-0.7,0l0-1l0.7,0
				c1,0,2.2-0.5,2.2-1.7c0-0.8-0.5-1.5-1.7-1.5c-0.8,0-1.5,0.3-2,0.6l-0.3-1c0.5-0.4,1.5-0.7,2.6-0.7c1.9,0,2.8,1.2,2.8,2.4
				c0,1-0.6,1.9-1.8,2.3l0,0c1.2,0.2,2.2,1.2,2.2,2.5c0,1.6-1.2,2.9-3.6,2.9c-1.1,0-2.1-0.4-2.6-0.7L554.2,466.9z"/>
		</g>
		<g>
			<path class="st6" d="M561.8,467.7c0-0.6,0.4-1,0.9-0.9c0.5,0,0.9,0.4,0.9,1c0,0.5-0.4,1-0.9,0.9
				C562.1,468.6,561.8,468.2,561.8,467.7z"/>
			<path class="st6" d="M567.7,459.9L567.7,459.9l-1.7,0.9l-0.3-1l2.2-1.1l1.1,0l-0.1,9.8l-1.3,0L567.7,459.9z"/>
		</g>
		<g>
			<path class="st6" d="M579.1,463.5c0,3.3-1.3,5.2-3.5,5.2c-1.9,0-3.2-1.8-3.2-5.1c0-3.3,1.5-5.1,3.5-5.1
				C578,458.5,579.2,460.4,579.1,463.5z M573.8,463.6c0,2.6,0.8,4,2,4c1.4,0,2-1.6,2-4.1c0-2.4-0.6-4-2-4
				C574.7,459.5,573.8,461,573.8,463.6z"/>
		</g>
		<g>
			<path class="st6" d="M587,458.1c-1.1,1.5-1.9,3.4-1.9,6.2c0,2.7,0.8,4.6,1.9,6.2l-1,0c-0.9-1.3-2-3.2-1.9-6.2c0-3,1.1-4.9,2-6.2
				L587,458.1z"/>
		</g>
		<g>
			<path class="st6" d="M588.2,467.1c0.4,0.2,1.3,0.6,2.2,0.6c1.7,0,2.2-1.1,2.2-1.9c0-1.4-1.2-2-2.5-2l-0.7,0l0-1l0.7,0
				c1,0,2.2-0.5,2.2-1.7c0-0.8-0.5-1.5-1.7-1.5c-0.8,0-1.5,0.3-2,0.6l-0.3-1c0.5-0.4,1.5-0.7,2.6-0.7c1.9,0,2.8,1.2,2.8,2.4
				c0,1-0.6,1.9-1.8,2.3l0,0c1.2,0.2,2.2,1.2,2.2,2.5c0,1.6-1.2,2.9-3.6,2.9c-1.1,0-2.1-0.4-2.6-0.7L588.2,467.1z"/>
		</g>
		<g>
			<path class="st6" d="M596,467.1c0.4,0.2,1.3,0.6,2.2,0.6c1.7,0,2.2-1.1,2.2-1.9c0-1.4-1.2-2-2.5-2l-0.7,0l0-1l0.7,0
				c1,0,2.2-0.5,2.2-1.7c0-0.8-0.5-1.5-1.7-1.5c-0.8,0-1.5,0.3-2,0.6l-0.3-1c0.5-0.4,1.5-0.7,2.6-0.7c1.9,0,2.8,1.2,2.8,2.4
				c0,1-0.6,1.9-1.8,2.3l0,0c1.2,0.2,2.2,1.2,2.2,2.5c0,1.6-1.2,2.9-3.6,2.9c-1.1,0-2.1-0.4-2.6-0.7L596,467.1z"/>
		</g>
		<g>
			<path class="st6" d="M602.7,469.3l4.3-11l1,0l-4.3,11L602.7,469.3z"/>
			<path class="st6" d="M614.3,459.8c-0.3,0-0.6,0-1,0.1c-2.1,0.3-3.2,1.9-3.4,3.5h0c0.5-0.6,1.3-1.1,2.4-1.1c1.7,0,3,1.3,3,3.2
				c0,1.8-1.2,3.5-3.3,3.5c-2.1,0-3.5-1.7-3.5-4.2c0-1.9,0.7-3.5,1.7-4.4c0.8-0.8,1.9-1.3,3.2-1.4c0.4-0.1,0.7-0.1,1-0.1
				L614.3,459.8z M613.9,465.5c0-1.4-0.8-2.3-2-2.3c-0.8,0-1.5,0.5-1.9,1.2c-0.1,0.2-0.2,0.3-0.2,0.6c0,1.6,0.8,2.8,2.2,2.8
				C613.1,467.9,613.9,466.9,613.9,465.5z"/>
		</g>
		<g>
			<path class="st6" d="M620.5,468.8l0-2.7l-4.6,0l0-0.9l4.4-6.3l1.4,0l0,6.1l1.4,0l0,1l-1.4,0l0,2.7L620.5,468.8z M620.6,465.1
				l0-3.3c0-0.5,0-1,0.1-1.5h0c-0.3,0.6-0.6,1-0.8,1.4l-2.4,3.3v0L620.6,465.1z"/>
		</g>
		<g>
			<path class="st6" d="M625.7,458.4l-0.3,3.6l-0.8,0l-0.2-3.6L625.7,458.4z M627.9,458.5l-0.3,3.6l-0.8,0l-0.2-3.6L627.9,458.5z"/>
			<path class="st6" d="M628.9,470.7c1.1-1.5,1.9-3.5,1.9-6.2c0-2.7-0.8-4.7-1.9-6.2l1,0c1,1.2,2,3.2,1.9,6.2c0,3-1,4.9-2,6.2
				L628.9,470.7z"/>
		</g>
		<g>
			<path class="st6" d="M567.3,337.6c0.7-0.1,1.6-0.2,2.5-0.2c1.4,0,2.3,0.2,3,0.8c0.5,0.5,0.8,1.1,0.8,1.9c0,1.3-0.8,2.2-1.9,2.6
				l0,0c0.8,0.3,1.3,1,1.5,2.1c0.3,1.4,0.6,2.4,0.8,2.8l-1.4,0c-0.2-0.3-0.4-1.2-0.7-2.4c-0.3-1.4-0.9-1.9-2.1-2l-1.2,0l0,4.4
				l-1.3,0L567.3,337.6z M568.6,342.2l1.3,0c1.4,0,2.3-0.8,2.3-2c0-1.3-1-1.9-2.4-1.9c-0.6,0-1.1,0.1-1.3,0.1L568.6,342.2z"/>
		</g>
		<g>
			<path class="st6" d="M580.9,338.8l-3.8,0l-0.4,2.5c0.2,0,0.4-0.1,0.8-0.1c0.8,0,1.5,0.2,2.1,0.5c0.8,0.4,1.4,1.3,1.4,2.5
				c0,1.9-1.5,3.4-3.6,3.4c-1.1,0-2-0.3-2.5-0.6l0.3-1c0.4,0.2,1.2,0.5,2.1,0.5c1.3,0,2.3-0.8,2.3-2.1c0-1.3-0.9-2.2-2.8-2.2
				c-0.6,0-1,0.1-1.4,0.1l0.6-4.7l4.7,0L580.9,338.8z"/>
		</g>
		<g>
			<path class="st6" d="M589.3,342.5c0,3.3-1.2,5.2-3.4,5.2c-1.9,0-3.2-1.8-3.3-5c0-3.3,1.4-5.1,3.4-5.1
				C588.1,337.5,589.3,339.3,589.3,342.5z M584,342.7c0,2.6,0.8,4,2,4c1.4,0,2-1.6,2-4.1c0-2.4-0.6-4-2-4
				C584.8,338.5,584,340,584,342.7z"/>
		</g>
		<g>
			<path class="st6" d="M590.5,345c0-1.2,0.7-2.1,1.9-2.6l0,0c-1.1-0.5-1.6-1.4-1.6-2.2c0-1.6,1.3-2.6,3-2.6c1.9,0,2.9,1.2,2.9,2.4
				c0,0.8-0.4,1.7-1.6,2.3l0,0c1.2,0.5,2,1.3,2,2.5c0,1.7-1.5,2.9-3.3,2.9C591.7,347.7,590.5,346.4,590.5,345z M595.8,344.9
				c0-1.2-0.8-1.8-2.2-2.1c-1.1,0.3-1.8,1.1-1.8,2c0,1,0.7,1.9,2,1.9C595,346.7,595.8,345.9,595.8,344.9z M592.1,340
				c0,1,0.8,1.5,1.9,1.8c0.8-0.3,1.5-0.9,1.5-1.8c0-0.8-0.5-1.6-1.7-1.6C592.7,338.4,592.1,339.2,592.1,340z"/>
		</g>
		<line class="st103" x1="543.7" y1="353.6" x2="600.8" y2="353.5"/>
		<polygon class="st8" points="546.4,357.4 531.6,353.5 546.4,349.5 		"/>
		<g>
			<path class="st6" d="M815,747.7l8-7.4l3.3,3.5c0.7,0.7,1.1,1.3,1.3,1.8s0.2,1,0.1,1.6c-0.2,0.6-0.5,1-0.9,1.4
				c-0.6,0.5-1.2,0.8-1.9,0.8c-0.7,0-1.5-0.3-2.3-1c0.1,0.4,0.2,0.7,0.2,1c0,0.6-0.1,1.2-0.2,1.9l-0.9,3.4l-1.2-1.3l0.7-2.6
				c0.2-0.8,0.3-1.3,0.4-1.8c0.1-0.4,0.1-0.8,0-1c0-0.3-0.1-0.5-0.2-0.7c-0.1-0.1-0.3-0.4-0.5-0.6l-1.1-1.2l-3.5,3.3L815,747.7z
				 M820.4,744.7l2.1,2.3c0.4,0.5,0.8,0.8,1.2,1c0.3,0.2,0.7,0.2,1,0.2c0.3-0.1,0.7-0.2,0.9-0.4c0.4-0.3,0.6-0.8,0.5-1.3
				c0-0.5-0.3-1-0.8-1.6l-2.3-2.5L820.4,744.7z"/>
		</g>
		<g>
			<path class="st6" d="M825.5,759l-0.9-1l6.2-5.8c-0.4,0-1-0.1-1.5-0.3s-1.1-0.4-1.5-0.6l0.9-0.9c0.8,0.3,1.5,0.5,2.3,0.6
				s1.4,0,1.9-0.1l0.6,0.6L825.5,759z"/>
		</g>
		<g>
			<path class="st6" d="M828.3,762.1l1.1-1l1,1.1l-1.1,1L828.3,762.1z"/>
		</g>
		<g>
			<path class="st6" d="M832.8,762.7l1,0.9c-0.4,0.5-0.6,1.1-0.6,1.6c0,0.5,0.2,1,0.5,1.4c0.4,0.5,1,0.7,1.6,0.7s1.3-0.3,1.9-0.8
				c0.6-0.5,0.9-1.1,0.9-1.7c0-0.6-0.2-1.2-0.7-1.7c-0.3-0.3-0.6-0.5-1-0.7c-0.4-0.1-0.7-0.1-1.1-0.1l-0.7-1l4.8-3l3.7,4l-0.9,0.9
				l-2.9-3.2l-2.5,1.6c0.8,0.2,1.4,0.5,1.9,1c0.6,0.7,0.9,1.5,0.9,2.4c0,0.9-0.4,1.7-1.2,2.4c-0.7,0.7-1.5,1-2.5,1.1
				c-1.1,0.1-2.1-0.3-2.9-1.2c-0.7-0.7-1-1.5-1-2.3C831.9,764.1,832.2,763.4,832.8,762.7z"/>
		</g>
		<g>
			<path class="st6" d="M838.4,769.2l1,0.9c-0.4,0.5-0.5,0.9-0.5,1.3c0,0.4,0.2,0.8,0.5,1.1c0.3,0.3,0.6,0.5,0.9,0.6
				c0.3,0.1,0.7,0.1,1.1,0s0.8-0.2,1.3-0.5c0.5-0.3,0.9-0.6,1.3-1c0,0,0.1-0.1,0.2-0.2c-0.5,0.1-1,0.1-1.5-0.1
				c-0.5-0.2-0.9-0.4-1.3-0.8c-0.6-0.7-0.9-1.4-0.8-2.3c0.1-0.9,0.5-1.7,1.3-2.4c0.8-0.7,1.7-1.1,2.6-1.1c0.9,0,1.7,0.4,2.4,1.1
				c0.5,0.5,0.8,1.1,0.9,1.8s0,1.4-0.3,2.1c-0.3,0.7-1,1.5-1.9,2.4c-1,0.9-1.9,1.6-2.7,1.9c-0.8,0.3-1.6,0.4-2.3,0.3
				c-0.7-0.1-1.3-0.5-1.9-1.1c-0.6-0.6-0.9-1.3-0.9-2S837.8,769.9,838.4,769.2z M845.6,770c0.6-0.5,0.9-1.1,0.9-1.7
				c0.1-0.6-0.1-1.1-0.5-1.5c-0.4-0.4-0.9-0.6-1.6-0.6c-0.7,0-1.3,0.3-1.8,0.8c-0.5,0.5-0.8,1-0.8,1.6c0,0.6,0.2,1.1,0.6,1.6
				c0.4,0.5,0.9,0.7,1.5,0.7C844.5,770.7,845.1,770.5,845.6,770z"/>
		</g>
		<line class="st103" x1="796.5" y1="737.4" x2="836.1" y2="781.5"/>
		<polygon class="st8" points="795.5,741.9 788.6,728.3 801.4,736.6 		"/>
	</g>
</g>
<g id="Watermark">
	<g>
		<rect x="438.5" y="642.8" class="st0" width="123.1" height="46.3"/>
		<g>
			<rect x="444.9" y="650.7" class="st106" width="62.9" height="30.6"/>
			<rect x="507.7" y="650.7" class="st106" width="47.4" height="30.6"/>
			<g>
				<path class="st107" d="M466.5,656.8l-2.8,18.9H461l-1.6-11l-1.5,11h-2.7l-2.8-18.9h2.5l1.8,14.2l1.8-14.2h2l1.8,14.2l1.8-14.2
					H466.5z"/>
				<path class="st107" d="M467.9,675.7v-18.9h2.5v18.9H467.9z"/>
				<path class="st107" d="M472.8,656.8h5c1.9,0,2.9,1.1,2.9,3.2v4.7c0,1.7-0.5,2.7-1.5,3.1l1.8,7.9h-2.4l-1.7-7.6h-1.5v7.6h-2.5
					V656.8z M475.4,665.9h1.7c0.8,0,1.1-0.5,1.1-1.4v-4.1c0-0.9-0.4-1.4-1.1-1.4h-1.7V665.9z"/>
				<path class="st107" d="M486.8,659.1v16.6h-2.5v-16.6h-2.4v-2.3h7.4v2.3H486.8z"/>
				<path class="st107" d="M496.3,675.7v-8.6h-3.1v8.6h-2.5v-18.9h2.5v8h3.1v-8h2.5v18.9H496.3z"/>
			</g>
			<g>
				<path class="st107" d="M516.3,656.8h5c1.9,0,2.9,1.1,2.9,3.2v4.7c0,1.7-0.5,2.7-1.5,3.1l1.8,7.9H522l-1.7-7.6h-1.5v7.6h-2.5
					V656.8z M518.8,665.9h1.7c0.8,0,1.1-0.5,1.1-1.4v-4.1c0-0.9-0.4-1.4-1.1-1.4h-1.7V665.9z"/>
				<path class="st107" d="M528.7,675.7h-2.5V660c0-2.2,1-3.2,3-3.2h1.9c2,0,3,1.1,3,3.2v15.7h-2.5v-6.9h-2.9V675.7z M531.6,666.5
					v-6.3c0-0.7-0.4-1.1-1.1-1.1h-0.7c-0.7,0-1.1,0.4-1.1,1.1v6.3H531.6z"/>
				<path class="st107" d="M536.3,675.7v-18.9h2.5v18.9H536.3z"/>
				<path class="st107" d="M547.2,675.7h-6v-18.9h2.5v16.6h3.5V675.7z"/>
			</g>
		</g>
	</g>
</g>
</svg>
