<svg id="Layer_1" data-name="Layer 1" xmlns="http://www.w3.org/2000/svg" viewBox="0 0 300 300"><defs><style>.cls-1{fill:#f0f0f0;}.cls-2{fill:#303030;}.cls-3,.cls-5{fill:none;stroke:#616161;stroke-width:0.32px;}.cls-3{stroke-miterlimit:10;}.cls-4{fill:#616161;}</style></defs><path class="cls-1" d="M150,299A149,149,0,1,0,1,150,149,149,0,0,0,150,299"/><path class="cls-2" d="M176.57,239.13c3.25,0,5.35.47,6.74,1.49a6.86,6.86,0,0,1,2.53,5.59,6.37,6.37,0,0,1-1.66,4.52,6,6,0,0,1-2.77,1.58,5.93,5.93,0,0,1,3.13,1.42,6.2,6.2,0,0,1,1.9,4.76,6.87,6.87,0,0,1-2.74,5.78c-1.38.91-3,1.27-5.89,1.27h-9.75V239.13Zm-3.08,11.2h2.18c3.2,0,4.71-1.15,4.71-3.6a3.24,3.24,0,0,0-1.59-3,8.18,8.18,0,0,0-3.4-.52h-1.9Zm0,11.2h2.65c1.86,0,2.73-.16,3.52-.7A3.2,3.2,0,0,0,181,258a3.24,3.24,0,0,0-1.5-3,6.74,6.74,0,0,0-3.64-.63h-2.34Z"/><path class="cls-2" d="M143.31,60.48,141.73,65H136l9.11-26.42h6.77l9,26.42H155l-1.5-4.56Zm5.07-15.36-3.69,10.93H152Z"/><path class="cls-2" d="M140.65,152.22h5.66L139,178.63h-5.47l-4.15-17.3-4.16,17.3H119.7l-7.2-26.41h5.74l4.23,16.67,4.28-16.67h5.39l4.12,16.95Z"/><path class="cls-2" d="M41.08,139.9H35.66V113.49h5.42v11.16h10V113.49h5.42V139.9H51.1V129.08h-10Z"/><line class="cls-3" x1="73.26" y1="88.35" x2="73.26" y2="211.65"/><line class="cls-3" x1="68.8" y1="88.35" x2="77.71" y2="88.35"/><line class="cls-3" x1="68.8" y1="211.65" x2="77.71" y2="211.65"/><line class="cls-3" x1="202.25" y1="221.9" x2="150.99" y2="221.9"/><line class="cls-3" x1="202.25" y1="217.45" x2="202.25" y2="226.36"/><line class="cls-3" x1="150.99" y1="217.45" x2="150.99" y2="226.36"/><line class="cls-3" x1="202.25" y1="78.12" x2="97.76" y2="78.12"/><line class="cls-3" x1="202.25" y1="73.66" x2="202.25" y2="82.57"/><line class="cls-3" x1="97.75" y1="73.66" x2="97.75" y2="82.57"/><path class="cls-4" d="M196.3,87.36c-4.9-.07-85.45,5.25-90.31,5.18s-7.62,3.13-8.23,8-.94,28.08-1,31.86,3.17,5.45,7.49,5.51,67,.43,69.16.46,3.76,1.13,3.71,4.91S177,187,177,189.74s-2.75,3.74-4.38,4.26-13,1.44-16.24,1.93a6.77,6.77,0,0,0-5.49,5.86c0,2.17-.08,5.41-.11,7.56s1.57,3.27,4.28,3.31,39.46-1,42.7-1a5.43,5.43,0,0,0,5.48-5.33c0-2.7,0-109.15,0-112.39s-1.53-6.5-6.93-6.58"/><line class="cls-5" x1="208.29" y1="165.41" x2="227.48" y2="165.41"/><polygon class="cls-4" points="210.69 159 204.28 165.41 210.69 171.83 210.69 159"/><line class="cls-5" x1="171.83" y1="165.41" x2="152.63" y2="165.41"/><polygon class="cls-4" points="169.42 171.83 175.84 165.42 169.42 159 169.42 171.83"/></svg>