<svg id="Layer_1" data-name="Layer 1" xmlns="http://www.w3.org/2000/svg" viewBox="0 0 300 300"><defs><style>.cls-1{fill:#f0f0f0;}.cls-2{fill:#303030;}.cls-3,.cls-4,.cls-6{fill:none;stroke-width:0.32px;}.cls-3,.cls-4{stroke:#616161;}.cls-3,.cls-6{stroke-miterlimit:10;}.cls-5{fill:#616161;}.cls-6{stroke:#fff;}</style></defs><path class="cls-1" d="M151.06,297.94A147.94,147.94,0,1,0,3.12,150,147.94,147.94,0,0,0,151.06,297.94"/><path class="cls-2" d="M147.19,60.7l-1.58,4.51h-5.69L149,39h6.72l9,26.22h-5.89l-1.5-4.51Zm5-15.26-3.65,10.85h7.27Z"/><path class="cls-2" d="M152.22,238.49c3.22,0,5.31.47,6.68,1.49a6.76,6.76,0,0,1,2.52,5.54,6.31,6.31,0,0,1-1.65,4.48,5.86,5.86,0,0,1-2.75,1.58,5.86,5.86,0,0,1,3.11,1.41,6.15,6.15,0,0,1,1.88,4.72,6.82,6.82,0,0,1-2.71,5.74c-1.38.9-3,1.26-5.86,1.26h-9.67V238.49Zm-3.07,11.12h2.17c3.18,0,4.67-1.14,4.67-3.57a3.22,3.22,0,0,0-1.57-3,8.27,8.27,0,0,0-3.38-.5h-1.89Zm0,11.13h2.64c1.85,0,2.71-.16,3.5-.71a3.16,3.16,0,0,0,1.3-2.79,3.21,3.21,0,0,0-1.5-3,6.64,6.64,0,0,0-3.61-.63h-2.33Z"/><path class="cls-2" d="M37.36,162.23H32V136h5.39v11.08H47.3V136h5.39v26.22H47.3V151.49H37.36Z"/><line class="cls-3" x1="63.72" y1="88.79" x2="63.72" y2="211.21"/><line class="cls-3" x1="59.29" y1="88.79" x2="68.14" y2="88.79"/><line class="cls-3" x1="59.29" y1="211.21" x2="68.14" y2="211.21"/><line class="cls-3" x1="213.48" y1="79.68" x2="91.04" y2="79.68"/><line class="cls-3" x1="213.48" y1="75.26" x2="213.48" y2="84.1"/><line class="cls-3" x1="91.04" y1="75.26" x2="91.04" y2="84.1"/><line class="cls-3" x1="226.94" y1="221.39" x2="77.58" y2="221.39"/><line class="cls-3" x1="226.94" y1="216.97" x2="226.94" y2="225.81"/><line class="cls-3" x1="77.58" y1="216.97" x2="77.58" y2="225.81"/><line class="cls-4" x1="162" y1="154.76" x2="181.06" y2="154.76"/><polygon class="cls-5" points="164.39 148.39 158.02 154.76 164.39 161.13 164.39 148.39"/><line class="cls-4" x1="142.52" y1="154.76" x2="123.46" y2="154.76"/><polygon class="cls-5" points="140.13 161.13 146.5 154.76 140.13 148.39 140.13 161.13"/><path class="cls-5" d="M152.26,211.33,225,211s2.91,0,2.91-1.82-.37-12.37-.37-13.82,0-3.64-3.63-5.1-15.65-2.91-20.74-4.36-8-3.64-8.37-7.64-.36-33.47-.36-39.29,2.18-8,5.09-9.09,6.55-1.09,9.46-2.18,5.82-3.28,5.82-7.28V97.11c0-5.1-3.27-8-8.36-8.37S165,86.92,152.26,86.92s-49.11,1.46-54.2,1.82S89.7,92,89.7,97.11v23.28c0,4,2.9,6.18,5.81,7.28s6.55,1.09,9.46,2.18,5.09,3.27,5.09,9.09,0,35.29-.36,39.29-3.27,6.18-8.37,7.64-17.09,2.91-20.73,4.36S77,193.87,77,195.33s-.37,12-.37,13.82S79.51,211,79.51,211Z"/><line class="cls-6" x1="190.72" y1="153.55" x2="113.8" y2="153.55"/><line class="cls-6" x1="190.72" y1="149.13" x2="190.72" y2="157.97"/><line class="cls-6" x1="113.8" y1="149.13" x2="113.8" y2="157.97"/><rect class="cls-5" x="131.88" y="132.21" width="40.77" height="43.37"/><path class="cls-2" d="M163.45,140.77h5.62L161.75,167h-5.42l-4.13-17.18L148.07,167h-5.43l-7.15-26.23h5.7l4.21,16.56,4.24-16.56H155l4.09,16.83Z"/></svg>