<svg id="Layer_1" data-name="Layer 1" xmlns="http://www.w3.org/2000/svg" viewBox="0 0 300 300"><defs><style>.cls-1{fill:#f0f0f0;}.cls-2{fill:#616161;}.cls-3{fill:#303030;}.cls-4,.cls-5{fill:none;stroke:#616161;stroke-width:0.32px;}.cls-4{stroke-miterlimit:10;}</style></defs><path class="cls-1" d="M149.61,299A149,149,0,1,0,.61,150a149,149,0,0,0,149,149"/><path class="cls-2" d="M149.62,212.64h59.53a8.06,8.06,0,0,0,2.93-1.09,10.29,10.29,0,0,0,.36-4.38c-.36-2.19-3.29-5.48-5.85-6.22s-8.39-1.94-23.37-5.11-17.9-17.17-17.9-21.18V154.57c0-28.49,20.82-36.89,23-38s5.85-4.75,5.48-6.94-1.09-9.13-2.19-12.79-4.39-8-8.4-8.39-13.52-1.1-33.6-1.1S120,88.09,116,88.46s-7.3,4.74-8.4,8.39-1.83,10.6-2.19,12.79,3.29,5.84,5.48,6.94,23,9.5,23,38v20.09c0,4-2.92,18-17.9,21.18S95.19,200.22,92.63,201s-5.48,4-5.84,6.22a10.29,10.29,0,0,0,.36,4.38,8.06,8.06,0,0,0,2.93,1.09Z"/><path class="cls-3" d="M144.5,59l-1.58,4.56h-5.74l9.1-26.42h6.78l9,26.42h-5.94L154.64,59Zm5.07-15.36-3.68,10.93h7.32Z"/><path class="cls-3" d="M149.57,239.12c3.25,0,5.35.47,6.73,1.5a6.82,6.82,0,0,1,2.54,5.58,6.33,6.33,0,0,1-1.67,4.52,5.89,5.89,0,0,1-2.77,1.58,5.79,5.79,0,0,1,3.13,1.43,6.15,6.15,0,0,1,1.9,4.75,6.89,6.89,0,0,1-2.73,5.78c-1.39.91-3,1.27-5.9,1.27h-9.74V239.12Zm-3.09,11.2h2.18c3.21,0,4.71-1.15,4.71-3.6a3.23,3.23,0,0,0-1.58-3,8.23,8.23,0,0,0-3.41-.51h-1.9Zm0,11.21h2.66c1.86,0,2.73-.16,3.52-.71A3.2,3.2,0,0,0,154,258a3.24,3.24,0,0,0-1.51-3c-.83-.47-1.66-.63-3.64-.63h-2.34Z"/><path class="cls-3" d="M226.1,140.69h5.65l-7.36,26.42h-5.47l-4.15-17.31-4.16,17.31h-5.47l-7.2-26.42h5.74l4.24,16.67,4.27-16.67h5.39l4.12,16.95Z"/><path class="cls-3" d="M40.69,162.31H35.27V135.9h5.42v11.16h10V135.9h5.43v26.41H50.71V151.49h-10Z"/><line class="cls-4" x1="72.87" y1="88.35" x2="72.87" y2="211.65"/><line class="cls-4" x1="68.41" y1="88.35" x2="77.32" y2="88.35"/><line class="cls-4" x1="68.41" y1="211.65" x2="77.32" y2="211.65"/><line class="cls-4" x1="197.26" y1="78.1" x2="104.24" y2="78.1"/><line class="cls-4" x1="197.26" y1="73.64" x2="197.26" y2="82.55"/><line class="cls-4" x1="104.24" y1="73.64" x2="104.24" y2="82.55"/><line class="cls-4" x1="213.85" y1="221.91" x2="90.55" y2="221.91"/><line class="cls-4" x1="213.85" y1="217.45" x2="213.85" y2="226.36"/><line class="cls-4" x1="90.55" y1="217.45" x2="90.55" y2="226.36"/><line class="cls-5" x1="170.65" y1="154.8" x2="189.85" y2="154.8"/><polygon class="cls-2" points="173.06 148.38 166.64 154.8 173.06 161.21 173.06 148.38"/><line class="cls-5" x1="128.58" y1="154.8" x2="109.38" y2="154.8"/><polygon class="cls-2" points="126.17 161.21 132.59 154.8 126.17 148.38 126.17 161.21"/></svg>