<svg id="Layer_1" data-name="Layer 1" xmlns="http://www.w3.org/2000/svg" viewBox="0 0 300 300"><defs><style>.cls-1{fill:#f0f0f0;}.cls-2{fill:#303030;}.cls-3,.cls-5{fill:none;stroke:#616161;stroke-width:0.32px;}.cls-3{stroke-miterlimit:10;}.cls-4{fill:#616262;}.cls-6{fill:#616161;}</style></defs><path class="cls-1" d="M150,299A149,149,0,1,0,1,150,149,149,0,0,0,150,299"/><path class="cls-2" d="M144.89,76.65l-1.59,4.56h-5.73l9.1-26.42h6.77l9,26.42h-5.94L155,76.65ZM150,61.29l-3.68,10.93h7.32Z"/><path class="cls-2" d="M150,219.29c3.24,0,5.35.47,6.73,1.5a6.81,6.81,0,0,1,2.53,5.59,6.34,6.34,0,0,1-1.66,4.51,5.86,5.86,0,0,1-2.77,1.58,5.9,5.9,0,0,1,3.13,1.43,6.15,6.15,0,0,1,1.9,4.75,6.87,6.87,0,0,1-2.73,5.78c-1.39.91-3,1.27-5.9,1.27h-9.74V219.29Zm-3.09,11.2h2.18c3.2,0,4.71-1.15,4.71-3.6a3.24,3.24,0,0,0-1.58-3,8.4,8.4,0,0,0-3.41-.51h-1.9Zm0,11.21h2.66c1.85,0,2.72-.16,3.52-.71a3.71,3.71,0,0,0-.2-5.82c-.83-.48-1.66-.64-3.64-.64h-2.34Z"/><path class="cls-2" d="M225,140.71h5.67l-7.37,26.41h-5.46l-4.16-17.31-4.16,17.31H204l-7.21-26.41h5.74l4.24,16.67,4.28-16.67h5.38l4.12,16.95Z"/><path class="cls-2" d="M65.32,162.33H59.89V135.92h5.43v11.16h10V135.92h5.43v26.41H75.34V151.51h-10Z"/><line class="cls-3" x1="49.85" y1="110.33" x2="49.85" y2="189.67"/><line class="cls-3" x1="45.4" y1="110.33" x2="54.31" y2="110.33"/><line class="cls-3" x1="45.4" y1="189.66" x2="54.31" y2="189.66"/><line class="cls-3" x1="183.65" y1="95.78" x2="114.21" y2="95.78"/><line class="cls-3" x1="183.65" y1="91.32" x2="183.65" y2="100.23"/><line class="cls-3" x1="114.22" y1="91.32" x2="114.22" y2="100.23"/><line class="cls-3" x1="214.23" y1="206.07" x2="90.93" y2="206.07"/><line class="cls-3" x1="214.23" y1="201.62" x2="214.23" y2="210.52"/><line class="cls-3" x1="90.93" y1="201.62" x2="90.93" y2="210.52"/><path class="cls-4" d="M237.27,178.77s.92-.15-46.29-3.7l-16.5-4.94s-5.09-1.69-5.25-6.63V149a6.47,6.47,0,0,1,3.85-5.25,34,34,0,0,1,7.1-1.85s4.17-2.32,4-5.56,0-19.44,0-19.44.3-6.48-6-6.78c-5.65-.28-24-.68-27.81-.76v0h-.74v0c-3.86.08-22.16.48-27.8.76-6.33.3-6,6.78-6,6.78s.15,16.21,0,19.44,4,5.56,4,5.56a34,34,0,0,1,7.1,1.85,6.49,6.49,0,0,1,3.85,5.25v14.5c-.15,4.94-5.24,6.63-5.24,6.63L109,175.07c-47.21,3.55-46.28,3.7-46.28,3.7-2.52.1-5.65,2.68-6.33,5.25v6.63H243.59V184c-.68-2.57-3.81-5.15-6.32-5.25"/><line class="cls-5" x1="173.25" y1="154.79" x2="192.45" y2="154.79"/><polygon class="cls-6" points="175.65 148.38 169.24 154.79 175.65 161.21 175.65 148.38"/><line class="cls-5" x1="126.75" y1="154.79" x2="107.56" y2="154.79"/><polygon class="cls-6" points="124.35 161.21 130.76 154.79 124.35 148.38 124.35 161.21"/></svg>