<svg id="Layer_1" data-name="Layer 1" xmlns="http://www.w3.org/2000/svg" viewBox="0 0 300 300"><defs><style>.cls-1{fill:#f0f0f0;}.cls-2{fill:#303030;}.cls-3{fill:none;stroke:#616161;stroke-miterlimit:10;stroke-width:0.32px;}.cls-4{fill:#616161;}</style></defs><path class="cls-1" d="M150,299A149,149,0,1,0,1,150,149,149,0,0,0,150,299"/><path class="cls-2" d="M150.14,88.43a13.19,13.19,0,0,1-9.83,4,12.15,12.15,0,0,1-9.46-4,14.6,14.6,0,0,1-3.56-9.7c0-8,5.46-13.78,13.11-13.78,4.08,0,6.85,1.14,10,4.2l-3.53,3.56c-2.14-1.94-4-2.73-6.18-2.73-4.63,0-7.87,3.56-7.87,8.63s3.4,8.75,8.15,8.75a7.32,7.32,0,0,0,5.9-2.69Z"/><path class="cls-2" d="M164.68,65.5h7.49c4.27,0,7.16.88,9.5,2.94a12.85,12.85,0,0,1,4.15,10,13.9,13.9,0,0,1-4.19,10.45,13.36,13.36,0,0,1-9.15,3h-7.8Zm5.43,22h1c2.89,0,4.68-.52,6.22-1.83a9,9,0,0,0,3-7c0-5.27-3.21-8.68-8.24-8.68h-2Z"/><path class="cls-2" d="M151.25,33.54h9.27V38h-9.27v6.61h9.27V49h-14.7V22.61h14.7v4.44h-9.27Z"/><path class="cls-2" d="M149.94,244.73c3.25,0,5.35.47,6.73,1.5a6.82,6.82,0,0,1,2.54,5.58,6.38,6.38,0,0,1-1.67,4.52,5.89,5.89,0,0,1-2.77,1.58,5.79,5.79,0,0,1,3.13,1.43,6.15,6.15,0,0,1,1.9,4.75,6.89,6.89,0,0,1-2.73,5.78c-1.39.91-3,1.27-5.9,1.27h-9.75V244.73Zm-3.09,11.2H149c3.21,0,4.71-1.15,4.71-3.6a3.23,3.23,0,0,0-1.58-3,8.29,8.29,0,0,0-3.41-.51h-1.9Zm0,11.21h2.65c1.87,0,2.74-.16,3.53-.71a3.2,3.2,0,0,0,1.31-2.82,3.24,3.24,0,0,0-1.51-3c-.83-.47-1.66-.63-3.65-.63h-2.33Z"/><path class="cls-2" d="M45.89,163.37l-1.58,4.55H38.57l9.1-26.41h6.78l9,26.41H57.54L56,163.37ZM51,148l-3.68,10.93h7.33Z"/><line class="cls-3" x1="73.26" y1="104.3" x2="73.26" y2="217.26"/><line class="cls-3" x1="68.8" y1="104.3" x2="77.71" y2="104.3"/><line class="cls-3" x1="68.8" y1="217.26" x2="77.71" y2="217.26"/><line class="cls-3" x1="157.94" y1="100.55" x2="120.98" y2="100.55"/><line class="cls-3" x1="157.94" y1="96.09" x2="157.94" y2="105"/><line class="cls-3" x1="120.98" y1="96.09" x2="120.98" y2="105"/><line class="cls-3" x1="185.31" y1="57.66" x2="120.98" y2="57.66"/><line class="cls-3" x1="185.31" y1="53.21" x2="185.31" y2="62.12"/><line class="cls-3" x1="120.98" y1="53.21" x2="120.98" y2="62.12"/><line class="cls-3" x1="185.31" y1="100.55" x2="157.11" y2="100.55"/><line class="cls-3" x1="185.31" y1="96.09" x2="185.31" y2="105"/><line class="cls-3" x1="157.11" y1="96.09" x2="157.11" y2="105"/><line class="cls-3" x1="198.51" y1="227.52" x2="91.33" y2="227.52"/><line class="cls-3" x1="198.51" y1="223.06" x2="198.51" y2="231.97"/><line class="cls-3" x1="91.33" y1="223.06" x2="91.33" y2="231.97"/><path class="cls-4" d="M156.1,133.82c3.38,15.87,16.27,7,17.55.33s1.92-13,2.23-14.32.64-4,2.24-4,3.19.33,4.46.33,2.88.34,2.56,3,0,2.67-2.56,14-9.57,15.32-13.4,17a96.58,96.58,0,0,1-11.81,4c-4.47,1.34-8.3,2.67-8.3,8.33v38.29c0,3,1,5.33,5.75,6.33s35.74,4,39.26,4.66,5.42,1.33,5.42,3.33a2.19,2.19,0,0,1-1.59,2.32l-52.67-.33-52.66.33a2.2,2.2,0,0,1-1.6-2.32c0-2,1.92-2.67,5.43-3.33s34.47-3.67,39.26-4.66,5.74-3.34,5.74-6.33V144.47a7.87,7.87,0,0,0-4.47-7.33c-1.59-.66-4.46-.66-8.61-1.66s-8-4-8-7V116.84c0-1.33,1-4,2.55-4s23.94-.33,26.17-.33,4.47,1.94,4.79,5c.64,6,1.6,13.32,2.24,16.32"/></svg>