<?xml version="1.0" encoding="utf-8"?>
<!-- Generator: Adobe Illustrator 25.2.3, SVG Export Plug-In . SVG Version: 6.00 Build 0)  -->
<svg version="1.1" xmlns="http://www.w3.org/2000/svg" xmlns:xlink="http://www.w3.org/1999/xlink" x="0px" y="0px"
	 viewBox="0 0 1000 800" style="enable-background:new 0 0 1000 800;" xml:space="preserve">
<style type="text/css">
	.st0{fill:#F0F0F0;}
	.st1{fill:none;stroke:#221E1F;stroke-width:1.2032;}
	.st2{fill:none;stroke:#221E1F;stroke-width:1.0736;}
	.st3{fill:none;stroke:#221E1F;stroke-width:1.2032;stroke-miterlimit:10;}
	.st4{fill:none;stroke:#221E1F;stroke-width:1.0736;stroke-linecap:round;stroke-linejoin:round;stroke-miterlimit:10;}
	.st5{fill:none;stroke:#221E1F;stroke-width:1.0736;stroke-miterlimit:10;}
	.st6{fill:#303030;}
	.st7{fill:none;stroke:#221E1F;stroke-width:1.2032;stroke-linecap:round;stroke-linejoin:round;}
	.st8{fill:#221E1F;}
	.st9{fill:none;stroke:#221E1F;stroke-width:1.2032;stroke-dasharray:15.0983,4.5412;}
	.st10{fill:none;stroke:#221E1F;stroke-width:1.327;}
	.st11{fill:none;stroke:#221E1F;stroke-width:1.327;stroke-miterlimit:10;}
	.st12{fill:none;stroke:#221E1F;stroke-width:1.5312;stroke-miterlimit:10;}
	.st13{fill:none;stroke:#221E1F;stroke-width:1.327;stroke-linecap:round;stroke-linejoin:round;}
	.st14{fill:none;stroke:#221E1F;stroke-width:1.327;stroke-dasharray:16.5574,4.9134;}
	.st15{fill:none;stroke:#221E1F;stroke-width:1.1875;stroke-linecap:round;stroke-linejoin:round;}
	.st16{fill:none;stroke:#221E1F;stroke-width:1.1875;stroke-miterlimit:10;}
	.st17{fill:none;stroke:#221E1F;stroke-width:1.0882;}
	.st18{fill:none;stroke:#221E1F;stroke-width:1.0882;stroke-miterlimit:10;}
	.st19{fill:none;stroke:#221E1F;stroke-width:1.01;stroke-linecap:round;stroke-linejoin:round;stroke-miterlimit:10;}
	.st20{fill:none;stroke:#221E1F;stroke-width:1.0268;stroke-linecap:round;stroke-linejoin:round;stroke-miterlimit:10;}
	.st21{fill:none;stroke:#221E1F;stroke-width:1.0268;}
	.st22{fill:none;stroke:#221E1F;stroke-width:1.0882;stroke-linecap:round;stroke-linejoin:round;stroke-miterlimit:10;}
	.st23{fill:none;stroke:#221E1F;stroke-width:1.0882;stroke-linecap:round;stroke-linejoin:round;}
	.st24{fill:none;stroke:#221E1F;stroke-width:1.0882;stroke-dasharray:13.6188,4.0709;}
	.st25{fill:none;stroke:#303030;stroke-width:1.0882;stroke-miterlimit:10;}
	.st26{fill:none;stroke:#303030;stroke-width:0.9459;stroke-miterlimit:10;}
	.st27{fill:none;stroke:#303030;stroke-width:0.625;stroke-miterlimit:10;}
	.st28{fill:none;stroke:#221E1F;stroke-width:1.2065;}
	.st29{fill:none;stroke:#221E1F;stroke-width:1.058;stroke-miterlimit:10;}
	.st30{fill:none;stroke:#221E1F;stroke-width:1.2065;stroke-miterlimit:10;}
	.st31{fill:none;stroke:#221E1F;stroke-width:1.2065;stroke-dasharray:15.1403,4.5538;}
	.st32{fill:none;stroke:#221E1F;stroke-width:1.2065;stroke-linecap:round;stroke-linejoin:round;}
	.st33{fill:none;stroke:#221E1F;stroke-width:1.0363;}
	.st34{fill:none;stroke:#221E1F;stroke-width:1.0363;stroke-miterlimit:10;}
	.st35{fill:none;stroke:#221E1F;stroke-width:1.0536;stroke-linecap:round;stroke-linejoin:round;stroke-miterlimit:10;}
	.st36{fill:none;stroke:#221E1F;stroke-width:1.0536;stroke-miterlimit:10;}
	.st37{fill:none;stroke:#221E1F;stroke-width:1.0363;stroke-linecap:round;stroke-linejoin:round;}
	.st38{fill:none;stroke:#221E1F;stroke-width:1.0363;stroke-dasharray:14.1142,4.2633;}
	.st39{fill:none;stroke:#221E1F;stroke-width:1.0394;}
	.st40{fill:none;stroke:#221E1F;stroke-width:1.1318;stroke-linecap:round;stroke-linejoin:round;stroke-miterlimit:10;}
	.st41{fill:none;stroke:#221E1F;stroke-width:1.0394;stroke-miterlimit:10;}
	.st42{fill:none;stroke:#221E1F;stroke-width:1.1318;stroke-miterlimit:10;}
	.st43{fill:none;stroke:#221E1F;stroke-width:1.0394;stroke-dasharray:14.096,4.2184;}
	.st44{fill:none;stroke:#221E1F;stroke-width:0.9644;stroke-linecap:round;stroke-linejoin:round;}
	.st45{fill:none;stroke:#221E1F;stroke-width:1.0394;stroke-linecap:round;stroke-linejoin:round;}
	.st46{fill:none;stroke:#221E1F;stroke-width:1.0394;stroke-dasharray:28.8705,8.4195;}
	.st47{fill:none;stroke:#221E1F;stroke-width:1.0394;stroke-dasharray:30.1958,9.7419;}
	.st48{fill:none;stroke:#221E1F;stroke-width:1.1834;}
	.st49{fill:none;stroke:#221E1F;stroke-width:1.1834;stroke-dasharray:22.2172,9.0331;}
	.st50{fill:none;stroke:#221E1F;stroke-width:1.1834;stroke-dasharray:22.205,9.024;}
	.st51{fill:none;stroke:#221E1F;stroke-width:1.1834;stroke-dasharray:22.2172,9.0362;}
	.st52{fill:none;stroke:#221E1F;stroke-width:1.1834;stroke-dasharray:22.205,9.021;}
	.st53{fill:none;stroke:#221E1F;stroke-width:1.1834;stroke-dasharray:14.8529,4.4695;}
	.st54{fill:none;stroke:#221E1F;stroke-width:1.1834;stroke-linecap:round;stroke-linejoin:round;}
	.st55{fill:none;stroke:#221E1F;stroke-width:0.9791;}
	.st56{fill:none;stroke:#221E1F;stroke-width:1.2076;}
	.st57{fill:none;stroke:#221E1F;stroke-width:1.2076;stroke-dasharray:17.3391,6.3726;}
	.st58{fill:none;stroke:#221E1F;stroke-width:1.2076;stroke-dasharray:17.3363,6.3726;}
	.st59{fill:none;stroke:#221E1F;stroke-width:0.9791;stroke-dasharray:17.5349,5.1568;}
	.st60{fill:none;stroke:#303030;stroke-width:0.9791;}
	.st61{fill:none;stroke:#221E1F;stroke-width:0.8976;stroke-linecap:round;stroke-linejoin:round;}
	.st62{fill:none;stroke:#241F21;stroke-width:0.9771;}
	
		.st63{fill:none;stroke:#241F21;stroke-width:0.9771;stroke-linecap:round;stroke-linejoin:round;stroke-miterlimit:1;stroke-dasharray:16.5466,16.5466;}
	
		.st64{fill:none;stroke:#241F21;stroke-width:0.9771;stroke-linecap:round;stroke-linejoin:round;stroke-miterlimit:1;stroke-dasharray:17.1257,17.1257;}
	
		.st65{fill:none;stroke:#241F21;stroke-width:0.9771;stroke-linecap:round;stroke-linejoin:round;stroke-miterlimit:1;stroke-dasharray:16.5967,16.5967;}
	.st66{fill:none;stroke:#241F21;stroke-width:0.9771;stroke-linecap:round;stroke-linejoin:round;stroke-miterlimit:1;}
	.st67{fill:#241F21;}
	.st68{fill:none;stroke:#241F21;stroke-width:0.7626;stroke-linecap:round;stroke-linejoin:round;stroke-miterlimit:1;}
	.st69{fill:none;stroke:#221E1F;stroke-width:1.2516;}
	.st70{fill:none;stroke:#221E1F;stroke-width:1.2516;stroke-miterlimit:10;}
	.st71{fill:none;stroke:#221E1F;stroke-width:0.6258;}
	.st72{fill:none;stroke:#221E1F;stroke-width:0.6258;stroke-dasharray:18.3883,4.6234;}
	.st73{fill:none;stroke:#221E1F;stroke-width:0.6258;stroke-dasharray:21.5524,17.6199;}
	.st74{fill:none;stroke:#221E1F;stroke-width:0.6258;stroke-dasharray:20.1706,6.4056;}
	.st75{fill:none;stroke:#221E1F;stroke-width:0.9654;}
	.st76{fill:none;stroke:#303030;stroke-width:0.9654;}
	.st77{fill:none;stroke:#303030;stroke-width:0.9017;}
	.st78{fill:none;stroke:#303030;stroke-width:0.9654;stroke-dasharray:14.0607,4.2416;}
	.st79{fill:none;stroke:#303030;stroke-width:0.9654;stroke-dasharray:13.938,4.1189;}
	.st80{fill:none;stroke:#303030;stroke-width:0.9654;stroke-dasharray:14.3912,4.5697;}
	.st81{fill:none;stroke:#303030;stroke-width:0.9654;stroke-dasharray:14.7358,4.9143;}
	.st82{fill:none;stroke:#221E1F;stroke-width:0.9654;stroke-dasharray:15.4321,4.6901;}
	.st83{fill:none;stroke:#221E1F;stroke-width:0.9654;stroke-linecap:round;stroke-linejoin:round;}
	.st84{fill:none;stroke:#303030;stroke-width:0.8686;stroke-miterlimit:10;}
	.st85{fill:none;stroke:#303030;stroke-width:0.9654;stroke-miterlimit:10;}
	.st86{fill:none;stroke:#221E1F;stroke-width:2.6151;}
	.st87{fill:none;stroke:#221E1F;stroke-width:1.816;}
	.st88{fill:none;stroke:#221E1F;stroke-width:1.816;stroke-dasharray:21.5996,5.873;}
	.st89{fill:none;stroke:#221E1F;stroke-width:1.816;stroke-dasharray:21.596,5.8693;}
	.st90{fill:none;stroke:#221E1F;stroke-width:1.816;stroke-dasharray:45.6036,34.3698;}
	.st91{fill:none;stroke:#221E1F;stroke-width:1.816;stroke-dasharray:45.5927,34.3589;}
	.st92{fill:none;stroke:#221E1F;stroke-width:1.816;stroke-dasharray:21.596,5.873;}
	.st93{fill:none;stroke:#221E1F;stroke-width:2.158;}
	.st94{fill:none;stroke:#221E1F;stroke-width:1.4986;}
	.st95{fill:none;stroke:#221E1F;stroke-width:1.4986;stroke-dasharray:19.9046,5.413;}
	.st96{fill:none;stroke:#221E1F;stroke-width:1.4986;stroke-dasharray:19.9016,5.41;}
	.st97{fill:none;stroke:#221E1F;stroke-width:1.4986;stroke-dasharray:35.6909,25.3385;}
	.st98{fill:none;stroke:#221E1F;stroke-width:0.8673;}
	.st99{fill:none;stroke:#303030;stroke-width:0.9125;stroke-miterlimit:10;}
	.st100{fill:none;stroke:#303030;stroke-width:8.808669e-02;stroke-linecap:round;stroke-linejoin:round;stroke-miterlimit:10;}
	.st101{fill:none;stroke:#303030;stroke-width:0.8786;stroke-miterlimit:10;}
	.st102{fill:none;stroke:#303030;stroke-width:0.8786;}
	.st103{fill:none;stroke:#221E1F;stroke-width:0.9125;}
	.st104{fill:none;stroke:#221E1F;stroke-width:0.9125;stroke-dasharray:15.7291,4.7273;}
	.st105{fill:none;stroke:#221E1F;stroke-width:0.9125;stroke-linecap:round;stroke-linejoin:round;}
	.st106{fill:#F0F0F0;stroke:#CCCCCC;stroke-miterlimit:10;}
	.st107{fill:#CCCCCC;}
</style>
<g id="Flat">
	<g>
		<polygon class="st0" points="527.5,584.6 527.5,303.7 528.4,295.3 530.6,287 534.5,279.5 539.8,272.7 546.3,267.1 553.6,262.8 
			561.6,260 624.1,244.4 628.9,242.6 633.4,240.1 637.2,236.8 640.3,232.8 642.7,228.2 644.2,223.3 644.6,218.2 644.6,140.9 
			643.6,130.8 640.8,121.1 636.3,112.1 630.1,104.1 622.7,97.3 614,92.1 604.5,88.6 594.6,86.9 500.4,83.4 406.4,86.9 396.4,88.6 
			386.9,92.1 378.3,97.3 370.7,104.1 364.6,112.1 360,121.1 357.2,130.8 356.3,140.9 356.3,218.2 356.8,223.3 358.3,228.2 
			360.6,232.8 363.8,236.8 367.5,240.1 371.9,242.6 376.7,244.4 439.2,260 447.4,262.8 454.7,267.1 461.2,272.7 466.4,279.5 
			470.2,287 472.6,295.3 473.4,303.7 473.4,584.6 472.6,593.1 470.2,601.3 466.4,609 461,615.6 454.6,621.2 447.3,625.5 
			439.2,628.3 259.7,673 254.9,674.6 250.5,677.2 246.6,680.6 243.4,684.6 241.1,689.1 239.7,694.1 239.3,699.1 239.3,714.1 
			761.7,714.1 761.7,699.1 761.2,694.1 759.7,689.1 757.5,684.6 754.3,680.6 750.5,677.2 746,674.6 741.2,673 561.6,628.3 
			553.6,625.5 546.3,621.2 539.8,615.6 534.6,609 530.6,601.3 528.4,593.1 		"/>
		<polygon class="st1" points="527.5,584.6 527.5,303.7 528.4,295.3 530.6,287 534.5,279.5 539.8,272.7 546.3,267.1 553.6,262.8 
			561.6,260 624.1,244.4 628.9,242.6 633.4,240.1 637.2,236.8 640.3,232.8 642.7,228.2 644.2,223.3 644.6,218.2 644.6,140.9 
			643.6,130.8 640.8,121.1 636.3,112.1 630.1,104.1 622.7,97.3 614,92.1 604.5,88.6 594.6,86.9 500.4,83.4 406.4,86.9 396.4,88.6 
			386.9,92.1 378.3,97.3 370.7,104.1 364.6,112.1 360,121.1 357.2,130.8 356.3,140.9 356.3,218.2 356.8,223.3 358.3,228.2 
			360.6,232.8 363.8,236.8 367.5,240.1 371.9,242.6 376.7,244.4 439.2,260 447.4,262.8 454.7,267.1 461.2,272.7 466.4,279.5 
			470.2,287 472.6,295.3 473.4,303.7 473.4,584.6 472.6,593.1 470.2,601.3 466.4,609 461,615.6 454.6,621.2 447.3,625.5 
			439.2,628.3 259.7,673 254.9,674.6 250.5,677.2 246.6,680.6 243.4,684.6 241.1,689.1 239.7,694.1 239.3,699.1 239.3,714.1 
			761.7,714.1 761.7,699.1 761.2,694.1 759.7,689.1 757.5,684.6 754.3,680.6 750.5,677.2 746,674.6 741.2,673 561.6,628.3 
			553.6,625.5 546.3,621.2 539.8,615.6 534.6,609 530.6,601.3 528.4,593.1 		"/>
		<line class="st2" x1="499.6" y1="239.3" x2="687" y2="239.3"/>
		<g>
			<path class="st3" d="M239.3,709.5v80.3 M761.7,707.5v82.4"/>
		</g>
		<path class="st4" d="M356.3,135.2V15.9 M644.6,135.2V15.9"/>
		<line class="st5" x1="506" y1="83.4" x2="888.4" y2="83.4"/>
		<path class="st3" d="M500,678h295.8 M500.8,613.1h347 M604.2,714.1h283.5"/>
		<line class="st4" x1="500.5" y1="275.2" x2="739.6" y2="275.2"/>
		<g>
			<path class="st6" d="M467.6,760.5h-5l-0.5,3.3c0.3,0,0.6-0.1,1.1-0.1c1,0,2,0.2,2.8,0.7c1,0.6,1.9,1.7,1.9,3.3
				c0,2.5-2,4.5-4.9,4.5c-1.4,0-2.6-0.4-3.2-0.8l0.4-1.3c0.5,0.3,1.6,0.7,2.8,0.7c1.7,0,3.1-1.1,3.1-2.8c0-1.7-1.1-2.9-3.7-2.9
				c-0.7,0-1.3,0.1-1.8,0.1l0.8-6.3h6.2V760.5z"/>
			<path class="st6" d="M470,768.7c0-1.6,1-2.8,2.6-3.5l0-0.1c-1.4-0.7-2.1-1.8-2.1-2.9c0-2.1,1.7-3.5,4-3.5c2.5,0,3.8,1.6,3.8,3.2
				c0,1.1-0.5,2.3-2.1,3v0.1c1.6,0.6,2.6,1.8,2.6,3.4c0,2.3-1.9,3.8-4.4,3.8C471.6,772.2,470,770.6,470,768.7z M477,768.6
				c0-1.6-1.1-2.3-2.9-2.8c-1.5,0.4-2.3,1.4-2.3,2.7c-0.1,1.3,0.9,2.5,2.6,2.5C476,770.9,477,770,477,768.6z M472.1,762.1
				c0,1.3,1,2,2.5,2.4c1.1-0.4,2-1.2,2-2.4c0-1-0.6-2.1-2.2-2.1C472.9,760,472.1,761,472.1,762.1z"/>
			<path class="st6" d="M489,758.1c-1.5,2-2.5,4.6-2.5,8.2c0,3.6,1.1,6.1,2.5,8.1h-1.4c-1.3-1.7-2.6-4.2-2.6-8.1
				c0-4,1.4-6.5,2.6-8.2H489z"/>
			<path class="st6" d="M490.3,772v-1.1l1.4-1.3c3.3-3.2,4.8-4.9,4.9-6.8c0-1.3-0.6-2.5-2.6-2.5c-1.2,0-2.2,0.6-2.8,1.1l-0.6-1.2
				c0.9-0.8,2.2-1.3,3.7-1.3c2.8,0,4,1.9,4,3.8c0,2.4-1.7,4.4-4.5,7l-1,1v0h5.9v1.5H490.3z"/>
			<path class="st6" d="M500.8,771c0-0.7,0.5-1.3,1.2-1.3s1.2,0.5,1.2,1.3c0,0.7-0.5,1.3-1.2,1.3C501.3,772.2,500.8,771.7,500.8,771
				z"/>
			<path class="st6" d="M504.8,772v-1.1l1.4-1.3c3.3-3.2,4.8-4.9,4.9-6.8c0-1.3-0.6-2.5-2.6-2.5c-1.2,0-2.2,0.6-2.8,1.1l-0.6-1.2
				c0.9-0.8,2.2-1.3,3.7-1.3c2.8,0,4,1.9,4,3.8c0,2.4-1.7,4.4-4.5,7l-1,1v0h5.9v1.5H504.8z"/>
			<path class="st6" d="M514.9,768.7c0-1.6,1-2.8,2.6-3.5l0-0.1c-1.4-0.7-2.1-1.8-2.1-2.9c0-2.1,1.7-3.5,4-3.5
				c2.5,0,3.8,1.6,3.8,3.2c0,1.1-0.5,2.3-2.1,3v0.1c1.6,0.6,2.6,1.8,2.6,3.4c0,2.3-1.9,3.8-4.4,3.8
				C516.6,772.2,514.9,770.6,514.9,768.7z M521.9,768.6c0-1.6-1.1-2.3-2.9-2.8c-1.5,0.4-2.3,1.4-2.3,2.7c-0.1,1.3,0.9,2.5,2.6,2.5
				C520.9,770.9,521.9,770,521.9,768.6z M517.1,762.1c0,1.3,1,2,2.5,2.4c1.1-0.4,2-1.2,2-2.4c0-1-0.6-2.1-2.2-2.1
				C517.9,760,517.1,761,517.1,762.1z"/>
			<path class="st6" d="M525.8,770c0.5,0.3,1.7,0.8,2.9,0.8c2.3,0,3-1.4,2.9-2.5c0-1.8-1.7-2.6-3.4-2.6h-1v-1.3h1
				c1.3,0,2.9-0.7,2.9-2.2c0-1-0.7-2-2.3-2c-1,0-2,0.5-2.6,0.9l-0.5-1.3c0.7-0.5,2-1,3.4-1c2.6,0,3.7,1.5,3.7,3.1
				c0,1.3-0.8,2.5-2.4,3.1v0c1.6,0.3,2.9,1.5,2.9,3.3c0,2.1-1.6,3.9-4.8,3.9c-1.5,0-2.7-0.5-3.4-0.9L525.8,770z"/>
			<path class="st6" d="M537.5,758.3l-0.3,4.8h-1.1l-0.3-4.8H537.5z M540.5,758.3l-0.3,4.8h-1.1l-0.3-4.8H540.5z"/>
		</g>
		<g>
			<path class="st6" d="M542,774.4c1.4-2,2.5-4.6,2.5-8.2c0-3.6-1.1-6.2-2.5-8.1h1.4c1.3,1.6,2.6,4.2,2.6,8.2c0,3.9-1.3,6.5-2.6,8.2
				H542z"/>
		</g>
		<g>
			<path class="st6" d="M463.5,27.2c0.5,0.3,1.7,0.8,2.9,0.8c2.3,0,3-1.4,2.9-2.5c0-1.8-1.7-2.6-3.4-2.6h-1v-1.3h1
				c1.3,0,2.9-0.7,2.9-2.2c0-1-0.7-2-2.3-2c-1,0-2,0.5-2.6,0.9l-0.5-1.3c0.7-0.5,2-1,3.4-1c2.6,0,3.7,1.5,3.7,3.1
				c0,1.3-0.8,2.5-2.4,3.1v0c1.6,0.3,2.9,1.5,2.9,3.3c0,2.1-1.6,3.9-4.8,3.9c-1.5,0-2.7-0.5-3.4-0.9L463.5,27.2z"/>
			<path class="st6" d="M473.4,29.3v-1.1l1.4-1.3c3.3-3.2,4.8-4.9,4.9-6.8c0-1.3-0.6-2.5-2.6-2.5c-1.2,0-2.2,0.6-2.8,1.1l-0.6-1.2
				c0.9-0.8,2.2-1.3,3.7-1.3c2.8,0,4,1.9,4,3.8c0,2.4-1.7,4.4-4.5,7l-1,1v0h5.9v1.5H473.4z"/>
			<path class="st6" d="M492.3,15.3c-1.5,2-2.5,4.6-2.5,8.2c0,3.6,1.1,6.1,2.5,8.1h-1.4c-1.3-1.7-2.6-4.2-2.6-8.1
				c0-3.9,1.4-6.5,2.6-8.2H492.3z"/>
			<path class="st6" d="M497.4,17.9L497.4,17.9l-2.3,1.2l-0.3-1.3l2.8-1.5h1.5v13h-1.7V17.9z"/>
			<path class="st6" d="M504,28.2c0-0.7,0.5-1.3,1.2-1.3s1.2,0.5,1.2,1.3c0,0.7-0.5,1.3-1.2,1.3C504.5,29.5,504,28.9,504,28.2z"/>
			<path class="st6" d="M508,29.3v-1.1l1.4-1.3c3.3-3.2,4.8-4.9,4.9-6.8c0-1.3-0.6-2.5-2.6-2.5c-1.2,0-2.2,0.6-2.8,1.1l-0.6-1.2
				c0.9-0.8,2.2-1.3,3.7-1.3c2.8,0,4,1.9,4,3.8c0,2.4-1.7,4.4-4.5,7l-1,1v0h5.9v1.5H508z"/>
			<path class="st6" d="M525.8,17.5c-0.4,0-0.8,0-1.3,0.1c-2.8,0.5-4.2,2.5-4.5,4.6h0.1c0.6-0.8,1.7-1.5,3.1-1.5
				c2.3,0,3.9,1.7,3.9,4.2c0,2.4-1.6,4.6-4.3,4.6c-2.8,0-4.6-2.2-4.6-5.6c0-2.6,0.9-4.6,2.2-5.9c1.1-1.1,2.5-1.7,4.2-1.9
				c0.5-0.1,1-0.1,1.3-0.1V17.5z M525.3,25c0-1.9-1.1-3-2.7-3c-1.1,0-2,0.7-2.5,1.6c-0.1,0.2-0.2,0.5-0.2,0.8c0,2.1,1,3.7,2.9,3.7
				C524.2,28.1,525.3,26.8,525.3,25z"/>
			<path class="st6" d="M537.3,22.6c0,4.4-1.6,6.9-4.5,6.9c-2.5,0-4.3-2.4-4.3-6.7c0-4.4,1.9-6.8,4.5-6.8
				C535.7,16,537.3,18.4,537.3,22.6z M530.2,22.8c0,3.4,1,5.3,2.6,5.3c1.8,0,2.7-2.1,2.7-5.4c0-3.2-0.8-5.3-2.6-5.3
				C531.3,17.4,530.2,19.3,530.2,22.8z"/>
			<path class="st6" d="M540.8,15.5l-0.3,4.8h-1.1l-0.3-4.8H540.8z M543.7,15.5l-0.3,4.8h-1.1l-0.3-4.8H543.7z"/>
		</g>
		<g>
			<path class="st6" d="M545.2,31.7c1.4-2,2.5-4.6,2.5-8.2c0-3.6-1.1-6.2-2.5-8.1h1.4c1.3,1.6,2.6,4.2,2.6,8.2
				c0,3.9-1.3,6.5-2.6,8.2H545.2z"/>
		</g>
		<g>
			<path class="st6" d="M657.5,179.8L657.5,179.8l1.2,2.3l-1.3,0.3l-1.5-2.8v-1.5h13v1.7H657.5z"/>
			<path class="st6" d="M655.9,164.9h1.2l11.9,5.7v1.8l-11.5-5.7h0v6.4h-1.5V164.9z"/>
			<path class="st6" d="M667.9,162.9c-0.7,0-1.3-0.5-1.3-1.2s0.5-1.2,1.3-1.2c0.7,0,1.3,0.5,1.3,1.2
				C669.1,162.5,668.6,162.9,667.9,162.9z"/>
		</g>
		<g>
			<path class="st6" d="M666.9,158.5c0.3-0.5,0.8-1.7,0.8-2.9c0-2.3-1.4-3-2.5-2.9c-1.8,0-2.6,1.7-2.6,3.4v1h-1.3v-1
				c0-1.3-0.7-2.9-2.2-2.9c-1,0-2,0.7-2,2.3c0,1,0.5,2,0.9,2.6l-1.3,0.5c-0.5-0.7-1-2-1-3.4c0-2.6,1.5-3.7,3.1-3.7
				c1.3,0,2.5,0.8,3.1,2.4h0c0.3-1.6,1.5-2.9,3.3-2.9c2.1,0,3.9,1.6,3.9,4.8c0,1.5-0.5,2.7-0.9,3.4L666.9,158.5z"/>
		</g>
		<g>
			<path class="st6" d="M724,192.2h-1.1l-1.3-1.4c-3.2-3.3-4.9-4.8-6.8-4.9c-1.3,0-2.5,0.6-2.5,2.6c0,1.2,0.6,2.2,1.1,2.8l-1.2,0.6
				c-0.8-0.9-1.3-2.2-1.3-3.7c0-2.8,1.9-4,3.8-4c2.4,0,4.4,1.7,7,4.5l1,1h0v-5.9h1.5V192.2z"/>
			<path class="st6" d="M712.6,178.1L712.6,178.1l1.2,2.3l-1.3,0.3l-1.5-2.8v-1.5h13v1.7H712.6z"/>
			<path class="st6" d="M723,171.5c-0.7,0-1.3-0.5-1.3-1.2s0.5-1.2,1.3-1.2c0.7,0,1.3,0.5,1.3,1.2C724.2,171,723.7,171.5,723,171.5z
				"/>
		</g>
		<g>
			<path class="st6" d="M722,167c0.3-0.5,0.8-1.7,0.8-2.9c0-2.3-1.4-3-2.5-2.9c-1.8,0-2.6,1.7-2.6,3.4v1h-1.3v-1
				c0-1.3-0.7-2.9-2.2-2.9c-1,0-2,0.7-2,2.3c0,1,0.5,2,0.9,2.6l-1.3,0.5c-0.5-0.7-1-2-1-3.4c0-2.6,1.5-3.7,3.1-3.7
				c1.3,0,2.5,0.8,3.1,2.4h0c0.3-1.6,1.5-2.9,3.3-2.9c2.1,0,3.9,1.6,3.9,4.8c0,1.5-0.5,2.7-0.9,3.4L722,167z"/>
		</g>
		<line class="st7" x1="489.2" y1="429" x2="511.6" y2="429"/>
		<polygon class="st8" points="492.8,434.1 473.2,428.8 492.8,423.6 		"/>
		<polygon class="st8" points="508,434.1 527.5,428.8 508,423.6 		"/>
		<line class="st1" x1="527.5" y1="429" x2="635.2" y2="429"/>
		<g>
			<path class="st6" d="M567.4,411c-0.4,0-0.8,0-1.3,0.1c-2.8,0.4-4.2,2.5-4.6,4.6l0.1,0c0.6-0.8,1.7-1.5,3.2-1.5
				c2.3,0,3.9,1.7,3.9,4.2c0,2.4-1.7,4.6-4.4,4.6c-2.8,0-4.6-2.2-4.6-5.6c0-2.6,0.9-4.6,2.2-5.9c1.1-1.1,2.5-1.7,4.2-1.9
				c0.5-0.1,1-0.1,1.3-0.1L567.4,411z M566.8,418.5c0-1.9-1-3-2.7-3c-1.1,0-2,0.6-2.5,1.6c-0.1,0.2-0.2,0.5-0.2,0.8
				c0,2.1,1,3.7,2.8,3.7C565.8,421.6,566.8,420.4,566.8,418.5z"/>
		</g>
		<g>
			<path class="st6" d="M578.9,408.9c-1.5,2-2.6,4.6-2.6,8.2c0,3.6,1.1,6.1,2.5,8.2l-1.4,0c-1.3-1.7-2.6-4.2-2.6-8.2
				c0-3.9,1.4-6.5,2.7-8.2L578.9,408.9z"/>
		</g>
		<g>
			<path class="st6" d="M588.8,416.3c0,4.4-1.7,6.9-4.6,6.9c-2.5,0-4.3-2.4-4.3-6.7c0-4.4,1.9-6.8,4.6-6.8
				C587.3,409.7,588.8,412.1,588.8,416.3z M581.7,416.4c0,3.4,1,5.3,2.6,5.3c1.8,0,2.7-2.1,2.7-5.4c0-3.2-0.8-5.3-2.6-5.3
				C582.9,411,581.8,412.9,581.7,416.4z"/>
		</g>
		<g>
			<path class="st6" d="M590.6,421.9c0-0.7,0.5-1.3,1.2-1.3c0.7,0,1.2,0.5,1.2,1.3c0,0.7-0.5,1.3-1.2,1.3
				C591,423.1,590.6,422.6,590.6,421.9z"/>
			<path class="st6" d="M594.6,422.9l0-1.1l1.4-1.3c3.3-3.1,4.9-4.8,4.9-6.8c0-1.3-0.6-2.6-2.6-2.6c-1.2,0-2.2,0.6-2.8,1.1L595,411
				c0.9-0.8,2.2-1.3,3.7-1.3c2.8,0,4,1.9,4,3.8c0,2.4-1.8,4.3-4.5,7l-1,1l0,0l5.9,0l0,1.5L594.6,422.9z"/>
		</g>
		<g>
			<path class="st6" d="M605.3,421c0.5,0.3,1.7,0.8,2.9,0.8c2.3,0,3-1.4,3-2.5c0-1.8-1.6-2.6-3.4-2.6l-1,0l0-1.3l1,0
				c1.3,0,2.9-0.6,2.9-2.2c0-1-0.7-2-2.3-2c-1,0-2,0.4-2.6,0.8l-0.5-1.3c0.7-0.5,2-1,3.4-1c2.6,0,3.7,1.5,3.7,3.1
				c0,1.3-0.8,2.5-2.4,3.1l0,0c1.6,0.3,2.9,1.5,2.9,3.4c0,2.1-1.6,3.9-4.8,3.9c-1.5,0-2.7-0.5-3.4-0.9L605.3,421z"/>
		</g>
		<g>
			<path class="st6" d="M622.7,411.3c-0.4,0-0.8,0-1.3,0.1c-2.8,0.4-4.2,2.5-4.6,4.6l0.1,0c0.6-0.8,1.7-1.5,3.2-1.5
				c2.3,0,3.9,1.7,3.9,4.2c0,2.4-1.7,4.6-4.4,4.6c-2.8,0-4.6-2.2-4.6-5.6c0-2.6,0.9-4.6,2.2-5.9c1.1-1.1,2.5-1.7,4.2-1.9
				c0.5-0.1,1-0.1,1.3-0.1L622.7,411.3z M622.1,418.8c0-1.9-1-3-2.7-3c-1.1,0-2,0.6-2.5,1.6c-0.1,0.2-0.2,0.5-0.2,0.8
				c0,2.1,1,3.7,2.8,3.7C621.1,422,622.1,420.7,622.1,418.8z"/>
		</g>
		<g>
			<path class="st6" d="M627.4,409.4l-0.4,4.8l-1.1,0l-0.3-4.8L627.4,409.4z M630.4,409.4l-0.4,4.8l-1.1,0l-0.3-4.8L630.4,409.4z"/>
			<path class="st6" d="M631.7,425.6c1.4-2,2.6-4.6,2.6-8.2c0-3.6-1-6.2-2.5-8.2l1.4,0c1.3,1.7,2.6,4.2,2.6,8.2
				c0,3.9-1.4,6.5-2.7,8.2L631.7,425.6z"/>
		</g>
		<g>
			<path class="st6" d="M860.7,396h1.2l11.9,5.7v1.8l-11.5-5.7h0v6.4h-1.5V396z"/>
			<path class="st6" d="M867.1,385.5c4.4,0,6.9,1.6,6.9,4.5c0,2.5-2.4,4.3-6.7,4.3c-4.4,0-6.8-1.9-6.8-4.5
				C860.5,387,863,385.5,867.1,385.5z M867.3,392.5c3.4,0,5.3-1,5.3-2.6c0-1.8-2.1-2.7-5.4-2.7c-3.2,0-5.3,0.8-5.3,2.6
				C861.9,391.4,863.8,392.5,867.3,392.5z"/>
			<path class="st6" d="M859.9,375.2c2,1.5,4.6,2.5,8.2,2.5c3.6,0,6.1-1.1,8.1-2.5v1.4c-1.7,1.3-4.2,2.6-8.1,2.6
				c-3.9,0-6.5-1.4-8.2-2.6V375.2z"/>
			<path class="st6" d="M873.8,373.9h-1.1l-1.3-1.4c-3.2-3.3-4.9-4.8-6.8-4.9c-1.3,0-2.5,0.6-2.5,2.6c0,1.2,0.6,2.2,1.1,2.8
				l-1.2,0.6c-0.8-0.9-1.3-2.2-1.3-3.7c0-2.8,1.9-4,3.8-4c2.4,0,4.4,1.7,7,4.5l1,1h0v-5.9h1.5V373.9z"/>
			<path class="st6" d="M872.7,363.5c-0.7,0-1.3-0.5-1.3-1.2s0.5-1.2,1.3-1.2c0.7,0,1.3,0.5,1.3,1.2
				C874,363,873.5,363.5,872.7,363.5z"/>
			<path class="st6" d="M860.7,351h1.2l11.9,5.7v1.8l-11.5-5.7h0v6.4h-1.5V351z"/>
			<path class="st6" d="M862.2,341.4v5l3.3,0.5c0-0.3-0.1-0.6-0.1-1.1c0-1,0.2-2,0.7-2.8c0.6-1,1.7-1.9,3.3-1.9c2.5,0,4.5,2,4.5,4.9
				c0,1.4-0.4,2.6-0.8,3.2l-1.3-0.4c0.3-0.5,0.7-1.6,0.7-2.8c0-1.7-1.1-3.1-2.8-3.1c-1.7,0-2.9,1.1-2.9,3.7c0,0.7,0.1,1.3,0.1,1.8
				l-6.3-0.8v-6.2H862.2z"/>
			<path class="st6" d="M862,331.5c0,0.4,0,0.8,0.1,1.3c0.5,2.8,2.5,4.2,4.6,4.5v-0.1c-0.8-0.6-1.5-1.7-1.5-3.1
				c0-2.3,1.7-3.9,4.2-3.9c2.4,0,4.6,1.6,4.6,4.3c0,2.8-2.2,4.6-5.6,4.6c-2.6,0-4.6-0.9-5.9-2.2c-1.1-1.1-1.7-2.5-1.9-4.2
				c-0.1-0.5-0.1-1-0.1-1.3H862z M869.5,332c-1.9,0-3,1.1-3,2.7c0,1.1,0.7,2,1.6,2.5c0.2,0.1,0.5,0.2,0.8,0.2c2.1,0,3.7-1,3.7-2.9
				C872.6,333,871.4,332,869.5,332z"/>
			<path class="st6" d="M860,323.8l4.8,0.3v1.1l-4.8,0.3V323.8z M860,326.7l4.8,0.3v1.1l-4.8,0.3V326.7z"/>
		</g>
		<g>
			<path class="st6" d="M876.2,322.3c-2-1.4-4.6-2.5-8.2-2.5c-3.6,0-6.2,1.1-8.1,2.5v-1.4c1.6-1.3,4.2-2.6,8.2-2.6
				c3.9,0,6.5,1.3,8.2,2.6V322.3z"/>
		</g>
		<line class="st7" x1="878.7" y1="698.1" x2="878.7" y2="99.4"/>
		<polygon class="st8" points="883.7,694.5 878.5,714.1 873.2,694.5 		"/>
		<polygon class="st8" points="883.7,103 878.5,83.4 873.2,103 		"/>
		<g>
			<path class="st6" d="M513.7,741.5v-5.7l-4.3-7.8h2l1.9,3.7c0.5,1,0.9,1.8,1.3,2.8h0c0.4-0.9,0.8-1.8,1.4-2.8l1.9-3.7h2l-4.5,7.8
				v5.8H513.7z"/>
		</g>
		<g>
			<path class="st6" d="M513.7,72.3v-5.7l-4.3-7.8h2l1.9,3.7c0.5,1,0.9,1.8,1.3,2.8h0c0.4-0.9,0.8-1.8,1.4-2.8l1.9-3.7h2l-4.5,7.8
				v5.8H513.7z"/>
		</g>
		<line class="st9" x1="500.4" y1="741.5" x2="499.6" y2="58.7"/>
		<g>
			<path class="st6" d="M404.4,540.4c0.7,0.6,1.6,1.5,2.3,2.4c1.2,1.5,1.7,2.6,1.6,3.7c0,0.9-0.5,1.8-1.3,2.4c-1.4,1.1-3,1-4.3,0.2
				l0,0c0.4,1,0,2.1-0.9,3.3c-1.2,1.5-2,2.6-2.2,3.1l-1.1-1.4c0.2-0.4,0.9-1.4,2-2.7c1.2-1.5,1.3-2.5,0.4-3.8l-1-1.3l-4.6,3.7
				l-1.1-1.4L404.4,540.4z M400.7,545.6l1.1,1.4c1.2,1.5,2.7,1.7,3.9,0.8c1.4-1.1,1.2-2.6,0-4c-0.5-0.7-1-1.1-1.2-1.2L400.7,545.6z"
				/>
		</g>
		<g>
			<path class="st6" d="M414.2,555.5l-3.1-3.9l-2.9,1.7c0.2,0.2,0.4,0.4,0.7,0.8c0.6,0.8,1.1,1.7,1.2,2.6c0.2,1.2-0.2,2.5-1.4,3.5
				c-2,1.6-4.7,1.2-6.5-1c-0.9-1.1-1.3-2.3-1.4-3l1.3-0.5c0.1,0.6,0.4,1.7,1.2,2.6c1,1.3,2.8,1.7,4.1,0.6c1.3-1.1,1.5-2.7-0.1-4.7
				c-0.5-0.6-0.9-1-1.2-1.3l5.4-3.3l3.9,4.9L414.2,555.5z"/>
		</g>
		<line class="st1" x1="386.8" y1="550.3" x2="440.9" y2="613.9"/>
		<polygon class="st8" points="436,614.3 449.3,623.5 442.4,608.8 		"/>
		<g>
			<path class="st6" d="M200.1,599.1c0.7,0.6,1.6,1.5,2.3,2.4c1.2,1.5,1.7,2.6,1.6,3.7c0,0.9-0.5,1.8-1.3,2.4c-1.4,1.1-3,1-4.3,0.2
				l0,0c0.4,1,0,2.1-0.9,3.3c-1.2,1.5-2,2.6-2.2,3.1l-1.1-1.4c0.2-0.4,0.9-1.4,2-2.7c1.2-1.5,1.3-2.5,0.4-3.8l-1-1.3l-4.6,3.7
				l-1.1-1.4L200.1,599.1z M196.4,604.3l1.1,1.4c1.2,1.5,2.7,1.7,3.9,0.8c1.4-1.1,1.2-2.6,0-4c-0.5-0.7-1-1.1-1.2-1.2L196.4,604.3z"
				/>
		</g>
		<g>
			<path class="st6" d="M197.9,614.4c0.1,0.6,0.4,1.8,1.2,2.8c1.4,1.8,3,1.4,3.8,0.7c1.4-1.2,1-2.9-0.1-4.3l-0.6-0.8l1-0.8l0.6,0.8
				c0.8,1,2.3,1.9,3.5,0.9c0.8-0.7,1.1-1.7,0.1-3c-0.7-0.8-1.6-1.3-2.3-1.5l0.7-1.2c0.8,0.2,2,0.9,2.9,2c1.6,2,1.1,3.9-0.1,4.9
				c-1,0.8-2.4,0.9-3.9,0l0,0c0.8,1.5,0.6,3.2-0.8,4.4c-1.6,1.3-4.1,1.2-6-1.3c-0.9-1.1-1.4-2.4-1.4-3.2L197.9,614.4z"/>
		</g>
		<line class="st1" x1="182.5" y1="609" x2="236.6" y2="672.6"/>
		<polygon class="st8" points="231.7,673 245.1,682.2 238.1,667.6 		"/>
		<g>
			<path class="st6" d="M380.7,321.1c0.6-0.7,1.5-1.6,2.4-2.3c1.5-1.2,2.6-1.7,3.7-1.6c0.9,0,1.8,0.5,2.4,1.3c1.1,1.4,1,3,0.2,4.3
				l0,0c1-0.4,2.1,0,3.3,0.9c1.5,1.2,2.6,2,3.1,2.2l-1.4,1.1c-0.4-0.2-1.4-0.9-2.7-2c-1.5-1.2-2.5-1.3-3.8-0.4l-1.3,1l3.7,4.6
				l-1.4,1.1L380.7,321.1z M385.9,324.8l1.4-1.1c1.5-1.2,1.7-2.7,0.8-3.9c-1.1-1.4-2.6-1.2-4,0c-0.7,0.5-1.1,1-1.2,1.2L385.9,324.8z
				"/>
		</g>
		<g>
			<path class="st6" d="M395.8,311.2l-3.9,3.1l1.7,2.9c0.2-0.2,0.4-0.4,0.8-0.7c0.8-0.6,1.7-1.1,2.6-1.2c1.2-0.2,2.5,0.2,3.5,1.4
				c1.6,2,1.2,4.7-1,6.5c-1.1,0.9-2.3,1.3-3,1.4l-0.5-1.3c0.6-0.1,1.7-0.4,2.6-1.2c1.3-1,1.7-2.8,0.6-4.1c-1.1-1.3-2.7-1.5-4.7,0.1
				c-0.6,0.5-1,0.9-1.3,1.2L390,314l4.9-3.9L395.8,311.2z"/>
		</g>
		<line class="st1" x1="390.6" y1="338.7" x2="454.2" y2="284.6"/>
		<polygon class="st8" points="454.6,289.5 463.8,276.1 449.2,283.1 		"/>
		<g>
			<path class="st6" d="M372.4,198c0.6-0.6,1.6-1.4,2.6-2.1c1.6-1,2.7-1.4,3.9-1.2c0.9,0.1,1.7,0.7,2.3,1.6c1,1.5,0.7,3.1-0.2,4.3
				l0,0.1c1.1-0.3,2.1,0.2,3.2,1.2c1.4,1.3,2.4,2.2,2.9,2.5l-1.5,1c-0.4-0.2-1.3-1-2.5-2.2c-1.4-1.3-2.3-1.5-3.7-0.7l-1.4,0.9
				l3.2,4.9l-1.5,1L372.4,198z M377.3,202.2l1.5-1c1.6-1,2-2.5,1.1-3.8c-1-1.5-2.4-1.4-4-0.4c-0.7,0.5-1.2,0.9-1.4,1.1L377.3,202.2z
				"/>
		</g>
		<g>
			<path class="st6" d="M387.5,201.6c0.6,0,1.8-0.2,2.9-0.9c1.9-1.2,1.7-2.8,1.1-3.7c-1-1.5-2.8-1.3-4.2-0.3l-0.8,0.5l-0.7-1.1
				l0.8-0.5c1.1-0.7,2.1-2.2,1.2-3.4c-0.6-0.9-1.6-1.3-3-0.4c-0.9,0.6-1.5,1.5-1.7,2.2l-1.1-0.8c0.3-0.8,1.1-1.9,2.3-2.7
				c2.1-1.4,4-0.8,4.8,0.5c0.7,1.1,0.7,2.5-0.3,3.9l0,0c1.5-0.6,3.3-0.3,4.3,1.2c1.1,1.7,0.8,4.2-1.8,5.9c-1.2,0.8-2.5,1.1-3.3,1.1
				L387.5,201.6z"/>
		</g>
		<line class="st1" x1="398.4" y1="205.6" x2="371.2" y2="224.7"/>
		<polygon class="st8" points="371.2,219.8 360.8,232.2 376.1,226.6 		"/>
		<g>
			<path class="st6" d="M410.6,105.7c0.7,0.5,1.7,1.3,2.5,2.2c1.3,1.3,1.9,2.4,1.9,3.6c0,0.9-0.3,1.8-1.1,2.6
				c-1.3,1.2-2.9,1.3-4.2,0.6l0,0c0.5,1,0.2,2.1-0.6,3.3c-1,1.6-1.7,2.8-1.9,3.3l-1.3-1.3c0.1-0.4,0.7-1.5,1.7-2.9
				c1.1-1.6,1.1-2.6,0-3.8l-1.1-1.2l-4.2,4.1l-1.2-1.2L410.6,105.7z M407.4,111.3l1.2,1.3c1.3,1.3,2.9,1.5,4,0.4
				c1.2-1.2,0.9-2.7-0.4-4c-0.6-0.6-1.1-1-1.3-1.1L407.4,111.3z"/>
		</g>
		<g>
			<path class="st6" d="M421.8,119.4c-0.2-0.3-0.6-0.6-1-0.9c-2.3-1.7-4.7-1.3-6.5,0l0,0c1-0.1,2.3,0.2,3.3,1.2
				c1.6,1.6,1.6,4-0.3,5.8c-1.7,1.7-4.4,2-6.3,0.1c-1.9-2-1.7-4.8,0.8-7.2c1.8-1.8,3.9-2.5,5.7-2.5c1.5,0,3,0.6,4.3,1.6
				c0.4,0.3,0.7,0.6,1,0.8L421.8,119.4z M416.1,124.3c1.3-1.3,1.4-2.8,0.3-4c-0.7-0.8-1.9-1-2.9-0.7c-0.2,0.1-0.5,0.2-0.7,0.4
				c-1.5,1.5-2,3.3-0.7,4.7C413.1,125.7,414.8,125.6,416.1,124.3z"/>
		</g>
		<line class="st1" x1="407.9" y1="132.4" x2="384.1" y2="109.3"/>
		<polygon class="st8" points="388.9,108.4 374.7,100.6 383.1,114.5 		"/>
		<g>
			<path class="st6" d="M820.2,677.2L820.2,677.2l1.2,2.3l-1.3,0.3l-1.5-2.8v-1.5h13v1.7H820.2z"/>
			<path class="st6" d="M820.2,666.9L820.2,666.9l1.2,2.3l-1.3,0.3l-1.5-2.8v-1.5h13v1.7H820.2z"/>
			<path class="st6" d="M830.6,660.3c-0.7,0-1.3-0.5-1.3-1.2c0-0.7,0.5-1.2,1.3-1.2c0.7,0,1.3,0.5,1.3,1.2
				C831.8,659.9,831.3,660.3,830.6,660.3z"/>
		</g>
		<g>
			<path class="st6" d="M831.6,656.3h-1.1l-1.3-1.4c-3.2-3.3-4.9-4.8-6.8-4.9c-1.3,0-2.5,0.6-2.5,2.6c0,1.2,0.6,2.2,1.1,2.8
				l-1.2,0.6c-0.8-0.9-1.3-2.2-1.3-3.7c0-2.8,1.9-4,3.8-4c2.4,0,4.4,1.7,7,4.5l1,1h0V648h1.5V656.3z"/>
		</g>
		<g>
			<path class="st6" d="M787.6,695.5h-3.5v6.1h-1.2l-8.3-5.8v-1.9h8.1V692h1.4v1.8h3.5V695.5z M782.7,695.5h-4.4c-0.7,0-1.4,0-2-0.1
				v0.1c0.8,0.4,1.3,0.7,1.9,1.1l4.4,3.2h0V695.5z"/>
		</g>
		<line class="st3" x1="837.4" y1="698.1" x2="837.4" y2="629.1"/>
		<polygon class="st8" points="842.5,694.5 837.2,714.1 832,694.5 		"/>
		<polygon class="st8" points="842.5,632.7 837.2,613.1 832,632.7 		"/>
		<line class="st1" x1="788.5" y1="631.8" x2="788.5" y2="667.4"/>
		<polygon class="st8" points="785,665 788.5,678 792,665 		"/>
		<line class="st1" x1="788.5" y1="760.6" x2="788.5" y2="725"/>
		<polygon class="st8" points="792,727.4 788.5,714.4 785,727.4 		"/>
		<line class="st7" x1="729.3" y1="259.3" x2="729.3" y2="99.4"/>
		<polygon class="st8" points="734.4,255.7 729.1,275.2 723.9,255.7 		"/>
		<polygon class="st8" points="734.4,103 729.1,83.4 723.9,103 		"/>
		<line class="st7" x1="372.3" y1="36" x2="628.9" y2="36"/>
		<polygon class="st8" points="375.8,41.1 356.3,35.8 375.8,30.6 		"/>
		<polygon class="st8" points="625.3,41.1 644.9,35.8 625.3,30.6 		"/>
		<line class="st7" x1="674.9" y1="223.3" x2="674.9" y2="99.4"/>
		<polygon class="st8" points="680,219.7 674.7,239.3 669.5,219.7 		"/>
		<polygon class="st8" points="680,103 674.7,83.4 669.5,103 		"/>
		<line class="st7" x1="255.8" y1="778.5" x2="745.7" y2="778.5"/>
		<polygon class="st8" points="259.4,783.5 239.9,778.3 259.4,773 		"/>
		<polygon class="st8" points="742.2,783.5 761.7,778.3 742.2,773 		"/>
	</g>
</g>
<g id="Watermark">
	<g>
		<rect x="438.5" y="152.3" class="st0" width="123.1" height="46.3"/>
		<g>
			<rect x="444.9" y="160.1" class="st106" width="62.9" height="30.6"/>
			<rect x="507.7" y="160.1" class="st106" width="47.4" height="30.6"/>
			<g>
				<path class="st107" d="M466.5,166.2l-2.8,18.9H461l-1.6-11l-1.5,11h-2.7l-2.8-18.9h2.5l1.8,14.2l1.8-14.2h2l1.8,14.2l1.8-14.2
					H466.5z"/>
				<path class="st107" d="M467.9,185.1v-18.9h2.5v18.9H467.9z"/>
				<path class="st107" d="M472.8,166.2h5c1.9,0,2.9,1.1,2.9,3.2v4.7c0,1.7-0.5,2.7-1.5,3.1l1.8,7.9h-2.4l-1.7-7.6h-1.5v7.6h-2.5
					V166.2z M475.4,175.3h1.7c0.8,0,1.1-0.5,1.1-1.4v-4.1c0-0.9-0.4-1.4-1.1-1.4h-1.7V175.3z"/>
				<path class="st107" d="M486.8,168.5v16.6h-2.5v-16.6h-2.4v-2.3h7.4v2.3H486.8z"/>
				<path class="st107" d="M496.3,185.1v-8.6h-3.1v8.6h-2.5v-18.9h2.5v8h3.1v-8h2.5v18.9H496.3z"/>
			</g>
			<g>
				<path class="st107" d="M516.3,166.2h5c1.9,0,2.9,1.1,2.9,3.2v4.7c0,1.7-0.5,2.7-1.5,3.1l1.8,7.9H522l-1.7-7.6h-1.5v7.6h-2.5
					V166.2z M518.8,175.3h1.7c0.8,0,1.1-0.5,1.1-1.4v-4.1c0-0.9-0.4-1.4-1.1-1.4h-1.7V175.3z"/>
				<path class="st107" d="M528.7,185.1h-2.5v-15.7c0-2.2,1-3.2,3-3.2h1.9c2,0,3,1.1,3,3.2v15.7h-2.5v-6.9h-2.9V185.1z M531.6,175.9
					v-6.3c0-0.7-0.4-1.1-1.1-1.1h-0.7c-0.7,0-1.1,0.4-1.1,1.1v6.3H531.6z"/>
				<path class="st107" d="M536.3,185.1v-18.9h2.5v18.9H536.3z"/>
				<path class="st107" d="M547.2,185.1h-6v-18.9h2.5v16.6h3.5V185.1z"/>
			</g>
		</g>
	</g>
</g>
</svg>
