<?xml version="1.0" encoding="utf-8"?>
<!-- Generator: Adobe Illustrator 25.2.3, SVG Export Plug-In . SVG Version: 6.00 Build 0)  -->
<svg version="1.1" xmlns="http://www.w3.org/2000/svg" xmlns:xlink="http://www.w3.org/1999/xlink" x="0px" y="0px"
	 viewBox="0 0 1000 800" style="enable-background:new 0 0 1000 800;" xml:space="preserve">
<style type="text/css">
	.st0{fill:#F0F0F0;}
	.st1{fill:none;stroke:#221E1F;stroke-width:1.2032;}
	.st2{fill:none;stroke:#221E1F;stroke-width:1.0736;}
	.st3{fill:none;stroke:#221E1F;stroke-width:1.2032;stroke-miterlimit:10;}
	.st4{fill:none;stroke:#221E1F;stroke-width:1.0736;stroke-linecap:round;stroke-linejoin:round;stroke-miterlimit:10;}
	.st5{fill:none;stroke:#221E1F;stroke-width:1.0736;stroke-miterlimit:10;}
	.st6{fill:#303030;}
	.st7{fill:none;stroke:#221E1F;stroke-width:1.2032;stroke-linecap:round;stroke-linejoin:round;}
	.st8{fill:#221E1F;}
	.st9{fill:none;stroke:#221E1F;stroke-width:1.2032;stroke-dasharray:15.0983,4.5412;}
	.st10{fill:none;stroke:#221E1F;stroke-width:1.327;}
	.st11{fill:none;stroke:#221E1F;stroke-width:1.327;stroke-miterlimit:10;}
	.st12{fill:none;stroke:#221E1F;stroke-width:1.5312;stroke-miterlimit:10;}
	.st13{fill:none;stroke:#221E1F;stroke-width:1.327;stroke-linecap:round;stroke-linejoin:round;}
	.st14{fill:none;stroke:#221E1F;stroke-width:1.327;stroke-dasharray:16.5574,4.9134;}
	.st15{fill:none;stroke:#221E1F;stroke-width:1.1875;stroke-linecap:round;stroke-linejoin:round;}
	.st16{fill:none;stroke:#221E1F;stroke-width:1.1875;stroke-miterlimit:10;}
	.st17{fill:none;stroke:#221E1F;stroke-width:1.0882;}
	.st18{fill:none;stroke:#221E1F;stroke-width:1.0882;stroke-miterlimit:10;}
	.st19{fill:none;stroke:#221E1F;stroke-width:1.01;stroke-linecap:round;stroke-linejoin:round;stroke-miterlimit:10;}
	.st20{fill:none;stroke:#221E1F;stroke-width:1.0268;stroke-linecap:round;stroke-linejoin:round;stroke-miterlimit:10;}
	.st21{fill:none;stroke:#221E1F;stroke-width:1.0268;}
	.st22{fill:none;stroke:#221E1F;stroke-width:1.0882;stroke-linecap:round;stroke-linejoin:round;stroke-miterlimit:10;}
	.st23{fill:none;stroke:#221E1F;stroke-width:1.0882;stroke-linecap:round;stroke-linejoin:round;}
	.st24{fill:none;stroke:#221E1F;stroke-width:1.0882;stroke-dasharray:13.6188,4.0709;}
	.st25{fill:none;stroke:#303030;stroke-width:1.0882;stroke-miterlimit:10;}
	.st26{fill:none;stroke:#303030;stroke-width:0.9459;stroke-miterlimit:10;}
	.st27{fill:none;stroke:#303030;stroke-width:0.625;stroke-miterlimit:10;}
	.st28{fill:none;stroke:#221E1F;stroke-width:1.2065;}
	.st29{fill:none;stroke:#221E1F;stroke-width:1.058;stroke-miterlimit:10;}
	.st30{fill:none;stroke:#221E1F;stroke-width:1.2065;stroke-miterlimit:10;}
	.st31{fill:none;stroke:#221E1F;stroke-width:1.2065;stroke-dasharray:15.1403,4.5538;}
	.st32{fill:none;stroke:#221E1F;stroke-width:1.2065;stroke-linecap:round;stroke-linejoin:round;}
	.st33{fill:none;stroke:#221E1F;stroke-width:1.0363;}
	.st34{fill:none;stroke:#221E1F;stroke-width:1.0363;stroke-miterlimit:10;}
	.st35{fill:none;stroke:#221E1F;stroke-width:1.0536;stroke-linecap:round;stroke-linejoin:round;stroke-miterlimit:10;}
	.st36{fill:none;stroke:#221E1F;stroke-width:1.0536;stroke-miterlimit:10;}
	.st37{fill:none;stroke:#221E1F;stroke-width:1.0363;stroke-linecap:round;stroke-linejoin:round;}
	.st38{fill:none;stroke:#221E1F;stroke-width:1.0363;stroke-dasharray:14.1142,4.2633;}
	.st39{fill:none;stroke:#221E1F;stroke-width:1.0394;}
	.st40{fill:none;stroke:#221E1F;stroke-width:1.1318;stroke-linecap:round;stroke-linejoin:round;stroke-miterlimit:10;}
	.st41{fill:none;stroke:#221E1F;stroke-width:1.0394;stroke-miterlimit:10;}
	.st42{fill:none;stroke:#221E1F;stroke-width:1.1318;stroke-miterlimit:10;}
	.st43{fill:none;stroke:#221E1F;stroke-width:1.0394;stroke-dasharray:14.096,4.2184;}
	.st44{fill:none;stroke:#221E1F;stroke-width:0.9644;stroke-linecap:round;stroke-linejoin:round;}
	.st45{fill:none;stroke:#221E1F;stroke-width:1.0394;stroke-linecap:round;stroke-linejoin:round;}
	.st46{fill:none;stroke:#221E1F;stroke-width:1.0394;stroke-dasharray:28.8705,8.4195;}
	.st47{fill:none;stroke:#221E1F;stroke-width:1.0394;stroke-dasharray:30.1958,9.7419;}
	.st48{fill:none;stroke:#221E1F;stroke-width:1.1834;}
	.st49{fill:none;stroke:#221E1F;stroke-width:1.1834;stroke-dasharray:22.2172,9.0331;}
	.st50{fill:none;stroke:#221E1F;stroke-width:1.1834;stroke-dasharray:22.205,9.024;}
	.st51{fill:none;stroke:#221E1F;stroke-width:1.1834;stroke-dasharray:22.2172,9.0362;}
	.st52{fill:none;stroke:#221E1F;stroke-width:1.1834;stroke-dasharray:22.205,9.021;}
	.st53{fill:none;stroke:#221E1F;stroke-width:1.1834;stroke-dasharray:14.8529,4.4695;}
	.st54{fill:none;stroke:#221E1F;stroke-width:1.1834;stroke-linecap:round;stroke-linejoin:round;}
	.st55{fill:none;stroke:#221E1F;stroke-width:0.9791;}
	.st56{fill:none;stroke:#221E1F;stroke-width:1.2076;}
	.st57{fill:none;stroke:#221E1F;stroke-width:1.2076;stroke-dasharray:17.3391,6.3726;}
	.st58{fill:none;stroke:#221E1F;stroke-width:1.2076;stroke-dasharray:17.3363,6.3726;}
	.st59{fill:none;stroke:#221E1F;stroke-width:0.9791;stroke-dasharray:17.5349,5.1568;}
	.st60{fill:none;stroke:#303030;stroke-width:0.9791;}
	.st61{fill:none;stroke:#221E1F;stroke-width:0.8976;stroke-linecap:round;stroke-linejoin:round;}
	.st62{fill:none;stroke:#241F21;stroke-width:0.9771;}
	
		.st63{fill:none;stroke:#241F21;stroke-width:0.9771;stroke-linecap:round;stroke-linejoin:round;stroke-miterlimit:1;stroke-dasharray:16.5466,16.5466;}
	
		.st64{fill:none;stroke:#241F21;stroke-width:0.9771;stroke-linecap:round;stroke-linejoin:round;stroke-miterlimit:1;stroke-dasharray:17.1257,17.1257;}
	
		.st65{fill:none;stroke:#241F21;stroke-width:0.9771;stroke-linecap:round;stroke-linejoin:round;stroke-miterlimit:1;stroke-dasharray:16.5967,16.5967;}
	.st66{fill:none;stroke:#241F21;stroke-width:0.9771;stroke-linecap:round;stroke-linejoin:round;stroke-miterlimit:1;}
	.st67{fill:#241F21;}
	.st68{fill:none;stroke:#241F21;stroke-width:0.7626;stroke-linecap:round;stroke-linejoin:round;stroke-miterlimit:1;}
	.st69{fill:none;stroke:#221E1F;stroke-width:1.2516;}
	.st70{fill:none;stroke:#221E1F;stroke-width:1.2516;stroke-miterlimit:10;}
	.st71{fill:none;stroke:#221E1F;stroke-width:0.6258;}
	.st72{fill:none;stroke:#221E1F;stroke-width:0.6258;stroke-dasharray:18.3883,4.6234;}
	.st73{fill:none;stroke:#221E1F;stroke-width:0.6258;stroke-dasharray:21.5524,17.6199;}
	.st74{fill:none;stroke:#221E1F;stroke-width:0.6258;stroke-dasharray:20.1706,6.4056;}
	.st75{fill:none;stroke:#221E1F;stroke-width:0.9654;}
	.st76{fill:none;stroke:#303030;stroke-width:0.9654;}
	.st77{fill:none;stroke:#303030;stroke-width:0.9017;}
	.st78{fill:none;stroke:#303030;stroke-width:0.9654;stroke-dasharray:14.0607,4.2416;}
	.st79{fill:none;stroke:#303030;stroke-width:0.9654;stroke-dasharray:13.938,4.1189;}
	.st80{fill:none;stroke:#303030;stroke-width:0.9654;stroke-dasharray:14.3912,4.5697;}
	.st81{fill:none;stroke:#303030;stroke-width:0.9654;stroke-dasharray:14.7358,4.9143;}
	.st82{fill:none;stroke:#221E1F;stroke-width:0.9654;stroke-dasharray:15.4321,4.6901;}
	.st83{fill:none;stroke:#221E1F;stroke-width:0.9654;stroke-linecap:round;stroke-linejoin:round;}
	.st84{fill:none;stroke:#303030;stroke-width:0.8686;stroke-miterlimit:10;}
	.st85{fill:none;stroke:#303030;stroke-width:0.9654;stroke-miterlimit:10;}
	.st86{fill:none;stroke:#221E1F;stroke-width:2.6151;}
	.st87{fill:none;stroke:#221E1F;stroke-width:1.816;}
	.st88{fill:none;stroke:#221E1F;stroke-width:1.816;stroke-dasharray:21.5996,5.873;}
	.st89{fill:none;stroke:#221E1F;stroke-width:1.816;stroke-dasharray:21.596,5.8693;}
	.st90{fill:none;stroke:#221E1F;stroke-width:1.816;stroke-dasharray:45.6036,34.3698;}
	.st91{fill:none;stroke:#221E1F;stroke-width:1.816;stroke-dasharray:45.5927,34.3589;}
	.st92{fill:none;stroke:#221E1F;stroke-width:1.816;stroke-dasharray:21.596,5.873;}
	.st93{fill:none;stroke:#221E1F;stroke-width:2.158;}
	.st94{fill:none;stroke:#221E1F;stroke-width:1.4986;}
	.st95{fill:none;stroke:#221E1F;stroke-width:1.4986;stroke-dasharray:19.9046,5.413;}
	.st96{fill:none;stroke:#221E1F;stroke-width:1.4986;stroke-dasharray:19.9016,5.41;}
	.st97{fill:none;stroke:#221E1F;stroke-width:1.4986;stroke-dasharray:35.6909,25.3385;}
	.st98{fill:none;stroke:#221E1F;stroke-width:0.8673;}
	.st99{fill:none;stroke:#303030;stroke-width:0.9125;stroke-miterlimit:10;}
	.st100{fill:none;stroke:#303030;stroke-width:8.808669e-02;stroke-linecap:round;stroke-linejoin:round;stroke-miterlimit:10;}
	.st101{fill:none;stroke:#303030;stroke-width:0.8786;stroke-miterlimit:10;}
	.st102{fill:none;stroke:#303030;stroke-width:0.8786;}
	.st103{fill:none;stroke:#221E1F;stroke-width:0.9125;}
	.st104{fill:none;stroke:#221E1F;stroke-width:0.9125;stroke-dasharray:15.7291,4.7273;}
	.st105{fill:none;stroke:#221E1F;stroke-width:0.9125;stroke-linecap:round;stroke-linejoin:round;}
	.st106{fill:#F0F0F0;stroke:#CCCCCC;stroke-miterlimit:10;}
	.st107{fill:#CCCCCC;}
</style>
<g id="Flat">
	<g>
		<polygon class="st0" points="779.3,680.2 777.2,676.2 774.5,672.7 771,669.7 767.1,667.4 762.8,665.9 573.1,618.7 564.7,615.7 
			556.7,611.1 549.9,605.1 544.3,598 540.2,589.9 537.5,581.1 536.7,572.1 536.7,273 537.5,263.9 540.2,255.2 544.3,247 
			549.9,239.9 556.7,234 564.7,229.4 573.3,226.3 634.6,211.1 639,209.6 642.9,207.3 646.3,204.3 649.1,200.8 651.1,196.7 
			652.4,192.4 652.8,187.8 652.8,135.3 651.7,123.4 648.4,111.9 643,101.2 635.7,91.7 626.8,83.7 616.4,77.5 605.2,73.4 593.5,71.4 
			500.7,68 407.9,71.4 396.1,73.4 384.9,77.5 374.6,83.7 365.6,91.7 358.4,101.2 352.9,111.9 349.7,123.4 348.5,135.3 348.5,187.8 
			349,192.4 350.2,196.7 352.3,200.8 355.1,204.3 358.5,207.3 362.4,209.6 366.8,211.1 428.1,226.3 436.7,229.4 444.5,234 
			451.4,239.9 457,247 461.2,255.2 463.8,263.9 464.6,273 464.6,572.1 463.8,581.1 461.2,589.9 457,598 451.4,605.1 444.6,611.1 
			436.7,615.7 428.2,618.7 238.6,665.9 234.2,667.4 230.3,669.7 226.9,672.7 224.1,676.2 222.1,680.2 220.8,684.6 220.3,689.2 
			220.3,708.8 500.7,708.8 781,708.8 781,689.2 780.6,684.6 		"/>
		<polygon class="st28" points="779.3,680.2 777.2,676.2 774.5,672.7 771,669.7 767.1,667.4 762.8,665.9 573.1,618.7 564.7,615.7 
			556.7,611.1 549.9,605.1 544.3,598 540.2,589.9 537.5,581.1 536.7,572.1 536.7,273 537.5,263.9 540.2,255.2 544.3,247 
			549.9,239.9 556.7,234 564.7,229.4 573.3,226.3 634.6,211.1 639,209.6 642.9,207.3 646.3,204.3 649.1,200.8 651.1,196.7 
			652.4,192.4 652.8,187.8 652.8,135.3 651.7,123.4 648.4,111.9 643,101.2 635.7,91.7 626.8,83.7 616.4,77.5 605.2,73.4 593.5,71.4 
			500.7,68 407.9,71.4 396.1,73.4 384.9,77.5 374.6,83.7 365.6,91.7 358.4,101.2 352.9,111.9 349.7,123.4 348.5,135.3 348.5,187.8 
			349,192.4 350.2,196.7 352.3,200.8 355.1,204.3 358.5,207.3 362.4,209.6 366.8,211.1 428.1,226.3 436.7,229.4 444.5,234 
			451.4,239.9 457,247 461.2,255.2 463.8,263.9 464.6,273 464.6,572.1 463.8,581.1 461.2,589.9 457,598 451.4,605.1 444.6,611.1 
			436.7,615.7 428.2,618.7 238.6,665.9 234.2,667.4 230.3,669.7 226.9,672.7 224.1,676.2 222.1,680.2 220.8,684.6 220.3,689.2 
			220.3,708.8 500.7,708.8 781,708.8 781,689.2 780.6,684.6 		"/>
		<polygon class="st0" points="781,708.8 500.7,708.8 220.3,708.8 220.3,689.2 220.8,684.6 222.1,680.2 224.1,676.2 226.9,672.7 
			230.3,669.7 234.2,667.4 238.6,665.9 428.2,618.7 436.7,615.7 444.6,611.1 451.4,605.1 457,598 461.2,589.9 463.8,581.1 
			464.6,572.1 464.6,273 463.8,263.9 461.2,255.2 457,247 451.4,239.9 444.5,234 436.7,229.4 428.1,226.3 366.8,211.1 362.4,209.6 
			358.5,207.3 355.1,204.3 352.3,200.8 350.2,196.7 349,192.4 348.5,187.8 348.5,135.3 349.7,123.4 352.9,111.9 358.4,101.2 
			365.6,91.7 374.6,83.7 384.9,77.5 396.1,73.4 407.9,71.4 500.7,68 593.5,71.4 605.2,73.4 616.4,77.5 626.8,83.7 635.7,91.7 
			643,101.2 648.4,111.9 651.7,123.4 652.8,135.3 652.8,187.8 652.4,192.4 651.1,196.7 649.1,200.8 646.3,204.3 642.9,207.3 
			639,209.6 634.6,211.1 573.3,226.3 564.6,229.4 556.7,234 549.9,239.9 544.3,247 540.2,255.2 537.5,263.9 536.7,273 536.7,572.1 
			537.5,581.1 540.2,589.9 544.3,598 549.9,605.1 556.7,611.1 564.6,615.7 573.1,618.7 762.8,665.9 767.1,667.4 771,669.7 
			774.5,672.7 777.2,676.2 779.3,680.2 780.6,684.6 781,689.2 		"/>
		<polygon class="st28" points="781,708.8 500.7,708.8 220.3,708.8 220.3,689.2 220.8,684.6 222.1,680.2 224.1,676.2 226.9,672.7 
			230.3,669.7 234.2,667.4 238.6,665.9 428.2,618.7 436.7,615.7 444.6,611.1 451.4,605.1 457,598 461.2,589.9 463.8,581.1 
			464.6,572.1 464.6,273 463.8,263.9 461.2,255.2 457,247 451.4,239.9 444.5,234 436.7,229.4 428.1,226.3 366.8,211.1 362.4,209.6 
			358.5,207.3 355.1,204.3 352.3,200.8 350.2,196.7 349,192.4 348.5,187.8 348.5,135.3 349.7,123.4 352.9,111.9 358.4,101.2 
			365.6,91.7 374.6,83.7 384.9,77.5 396.1,73.4 407.9,71.4 500.7,68 593.5,71.4 605.2,73.4 616.4,77.5 626.8,83.7 635.7,91.7 
			643,101.2 648.4,111.9 651.7,123.4 652.8,135.3 652.8,187.8 652.4,192.4 651.1,196.7 649.1,200.8 646.3,204.3 642.9,207.3 
			639,209.6 634.6,211.1 573.3,226.3 564.6,229.4 556.7,234 549.9,239.9 544.3,247 540.2,255.2 537.5,263.9 536.7,273 536.7,572.1 
			537.5,581.1 540.2,589.9 544.3,598 549.9,605.1 556.7,611.1 564.6,615.7 573.1,618.7 762.8,665.9 767.1,667.4 771,669.7 
			774.5,672.7 777.2,676.2 779.3,680.2 780.6,684.6 781,689.2 		"/>
		<line class="st29" x1="505.3" y1="68" x2="923.7" y2="68"/>
		<path class="st30" d="M643.9,206.6h63.3 M499.4,244.3h256.1 M771,670.4h41.2 M505.3,600.7h357 M220.3,707.4v80 M781,704.3v83.1
			 M779.3,708.8h147.9"/>
		<line class="st29" x1="652.4" y1="130.4" x2="652.4" y2="26.9"/>
		<line class="st30" x1="348.6" y1="134.5" x2="348.6" y2="31"/>
		<g>
			<path class="st6" d="M740.6,159.6h-1.1l-1.3-1.4c-3.2-3.3-4.9-4.8-6.8-4.9c-1.3,0-2.6,0.6-2.6,2.6c0,1.2,0.6,2.2,1.1,2.8
				l-1.2,0.6c-0.8-0.9-1.3-2.2-1.3-3.7c0-2.8,1.9-4,3.8-4c2.4,0,4.4,1.7,7,4.5l1,1h0v-5.9h1.5V159.6z"/>
			<path class="st6" d="M740.6,149.2h-1.1l-1.3-1.4c-3.2-3.3-4.9-4.8-6.8-4.9c-1.3,0-2.6,0.6-2.6,2.6c0,1.2,0.6,2.2,1.1,2.8
				l-1.2,0.6c-0.8-0.9-1.3-2.2-1.3-3.7c0-2.8,1.9-4,3.8-4c2.4,0,4.4,1.7,7,4.5l1,1h0v-5.9h1.5V149.2z"/>
		</g>
		<g>
			<path class="st6" d="M677.4,155.7L677.4,155.7l1.2,2.3l-1.3,0.3l-1.5-2.9V154h13.1v1.7H677.4z"/>
			<path class="st6" d="M675.7,140.7h1.2l11.9,5.7v1.8l-11.6-5.7h0v6.4h-1.5V140.7z"/>
			<path class="st6" d="M687.8,138.8c-0.7,0-1.3-0.5-1.3-1.2s0.5-1.2,1.3-1.2c0.7,0,1.3,0.5,1.3,1.2
				C689,138.3,688.5,138.8,687.8,138.8z"/>
		</g>
		<g>
			<path class="st6" d="M686.8,134.3c0.3-0.5,0.8-1.7,0.8-2.9c0-2.3-1.4-3-2.5-3c-1.8,0-2.6,1.7-2.6,3.4v1h-1.3v-1
				c0-1.3-0.7-2.9-2.2-2.9c-1,0-2,0.7-2,2.3c0,1,0.5,2.1,0.9,2.6l-1.3,0.5c-0.5-0.7-1-2-1-3.4c0-2.6,1.5-3.7,3.1-3.7
				c1.3,0,2.5,0.8,3.1,2.4h0c0.3-1.6,1.5-2.9,3.4-2.9c2.1,0,3.9,1.6,3.9,4.8c0,1.5-0.5,2.8-0.9,3.4L686.8,134.3z"/>
		</g>
		<g>
			<path class="st6" d="M368.3,286c0.6-0.7,1.5-1.6,2.4-2.3c1.5-1.2,2.6-1.7,3.8-1.6c0.9,0,1.8,0.5,2.4,1.3c1.1,1.4,1,3,0.2,4.3l0,0
				c1-0.4,2.1,0,3.3,0.9c1.5,1.2,2.6,2,3.1,2.2l-1.4,1.1c-0.4-0.2-1.4-0.9-2.7-2c-1.5-1.2-2.5-1.3-3.8-0.4l-1.3,1l3.7,4.6l-1.4,1.1
				L368.3,286z M373.6,289.8l1.4-1.1c1.5-1.2,1.7-2.7,0.8-3.9c-1.1-1.4-2.6-1.2-4,0c-0.7,0.5-1.1,1-1.2,1.2L373.6,289.8z"/>
		</g>
		<g>
			<path class="st6" d="M383.1,276.2c-0.3,0.2-0.6,0.5-1,0.9c-1.9,2.1-1.8,4.6-0.6,6.5l0,0c0-1,0.4-2.2,1.5-3.2
				c1.8-1.4,4.1-1.2,5.7,0.8c1.5,1.9,1.6,4.6-0.5,6.3c-2.2,1.7-5,1.2-7.1-1.5c-1.6-2-2.2-4.2-2-6c0.2-1.5,0.9-2.9,2.1-4.1
				c0.4-0.4,0.7-0.7,0.9-0.9L383.1,276.2z M387.4,282.4c-1.2-1.5-2.7-1.7-4-0.7c-0.8,0.7-1.2,1.8-1,2.8c0,0.2,0.1,0.5,0.3,0.7
				c1.4,1.7,3.1,2.3,4.6,1.1C388.6,285.5,388.6,283.9,387.4,282.4z"/>
		</g>
		<g>
			<path class="st6" d="M838.9,671.6L838.9,671.6l1.2,2.3l-1.3,0.3l-1.5-2.9v-1.5h13.1v1.7H838.9z"/>
			<path class="st6" d="M848.3,664.7c0.3-0.5,0.8-1.7,0.8-2.9c0-2.3-1.4-3-2.5-3c-1.8,0-2.6,1.7-2.6,3.4v1h-1.3v-1
				c0-1.3-0.7-2.9-2.2-2.9c-1,0-2,0.7-2,2.3c0,1,0.5,2.1,0.9,2.6l-1.3,0.5c-0.5-0.7-1-2-1-3.4c0-2.6,1.5-3.7,3.1-3.7
				c1.3,0,2.5,0.8,3.1,2.4h0c0.3-1.6,1.5-2.9,3.4-2.9c2.1,0,3.9,1.6,3.9,4.8c0,1.5-0.5,2.8-0.9,3.4L848.3,664.7z"/>
			<path class="st6" d="M849.3,654.7c-0.7,0-1.3-0.5-1.3-1.2c0-0.7,0.5-1.2,1.3-1.2c0.7,0,1.3,0.5,1.3,1.2
				C850.5,654.2,850,654.7,849.3,654.7z"/>
		</g>
		<g>
			<path class="st6" d="M838.7,642.8v5l3.4,0.5c0-0.3-0.1-0.6-0.1-1.1c0-1,0.2-2,0.7-2.8c0.6-1,1.7-1.9,3.4-1.9c2.6,0,4.5,2,4.5,4.9
				c0,1.4-0.4,2.6-0.8,3.3l-1.3-0.4c0.3-0.5,0.7-1.6,0.7-2.8c0-1.7-1.1-3.1-2.8-3.1c-1.7,0-2.9,1.1-2.9,3.8c0,0.7,0.1,1.3,0.1,1.8
				l-6.3-0.8v-6.3H838.7z"/>
		</g>
		<g>
			<path class="st6" d="M803.3,697.2h-3.6v6.1h-1.2l-8.3-5.8v-1.9h8.1v-1.8h1.4v1.8h3.6V697.2z M798.4,697.2H794
				c-0.7,0-1.4,0-2.1-0.1v0.1c0.8,0.4,1.3,0.7,1.9,1.1l4.4,3.2h0V697.2z"/>
			<path class="st6" d="M802.3,692.2c-0.7,0-1.3-0.5-1.3-1.2c0-0.7,0.5-1.2,1.3-1.2c0.7,0,1.3,0.5,1.3,1.2
				C803.5,691.7,803,692.2,802.3,692.2z"/>
		</g>
		<g>
			<path class="st6" d="M800,688.3c-1.6,0-2.8-1-3.5-2.6l-0.1,0c-0.7,1.4-1.8,2.1-2.9,2.1c-2.1,0-3.5-1.7-3.5-4
				c0-2.5,1.6-3.8,3.2-3.8c1.1,0,2.3,0.5,3.1,2.2h0.1c0.6-1.6,1.8-2.6,3.4-2.6c2.3,0,3.8,2,3.8,4.4
				C803.5,686.6,801.9,688.3,800,688.3z M793.4,686.1c1.3,0,2-1,2.4-2.5c-0.4-1.1-1.2-2-2.4-2c-1,0-2.1,0.6-2.1,2.2
				C791.3,685.3,792.2,686.1,793.4,686.1z M799.9,681.3c-1.6,0-2.4,1.1-2.9,2.9c0.4,1.5,1.4,2.4,2.7,2.4c1.3,0.1,2.5-0.9,2.5-2.6
				C802.2,682.3,801.3,681.3,799.9,681.3z"/>
		</g>
		<g>
			<path class="st6" d="M466.4,755v1.2l-5.7,11.9h-1.8l5.7-11.6v0h-6.4V755H466.4z"/>
			<path class="st6" d="M476.9,761.4c0,4.4-1.6,6.9-4.5,6.9c-2.6,0-4.3-2.4-4.3-6.7c0-4.4,1.9-6.8,4.5-6.8
				C475.4,754.8,476.9,757.3,476.9,761.4z M469.8,761.6c0,3.4,1,5.3,2.7,5.3c1.8,0,2.7-2.1,2.7-5.5c0-3.2-0.8-5.3-2.7-5.3
				C471,756.2,469.8,758.1,469.8,761.6z"/>
			<path class="st6" d="M487.2,754.1c-1.5,2-2.5,4.6-2.5,8.2c0,3.6,1.1,6.2,2.5,8.2h-1.4c-1.3-1.7-2.6-4.2-2.6-8.2
				c0-4,1.4-6.5,2.6-8.2H487.2z"/>
			<path class="st6" d="M488.5,768.1V767l1.4-1.3c3.3-3.2,4.8-4.9,4.9-6.8c0-1.3-0.6-2.6-2.6-2.6c-1.2,0-2.2,0.6-2.8,1.1l-0.6-1.2
				c0.9-0.8,2.2-1.3,3.7-1.3c2.8,0,4,1.9,4,3.8c0,2.4-1.7,4.4-4.5,7l-1,1v0h5.9v1.5H488.5z"/>
			<path class="st6" d="M499,767c0-0.7,0.5-1.3,1.2-1.3s1.2,0.5,1.2,1.3c0,0.7-0.5,1.3-1.2,1.3C499.5,768.3,499,767.8,499,767z"/>
			<path class="st6" d="M511.5,755v1.2l-5.7,11.9H504l5.7-11.6v0h-6.4V755H511.5z"/>
			<path class="st6" d="M521.1,756.5h-5l-0.5,3.4c0.3,0,0.6-0.1,1.1-0.1c1,0,2,0.2,2.8,0.7c1,0.6,1.9,1.7,1.9,3.4
				c0,2.6-2,4.5-4.9,4.5c-1.4,0-2.6-0.4-3.3-0.8l0.4-1.3c0.5,0.3,1.6,0.7,2.8,0.7c1.7,0,3.1-1.1,3.1-2.8c0-1.7-1.1-2.9-3.8-2.9
				c-0.7,0-1.3,0.1-1.8,0.1l0.8-6.3h6.3V756.5z"/>
			<path class="st6" d="M531.1,756.3c-0.4,0-0.8,0-1.3,0.1c-2.8,0.5-4.2,2.5-4.5,4.6h0.1c0.6-0.8,1.7-1.5,3.2-1.5
				c2.3,0,3.9,1.7,3.9,4.2c0,2.4-1.6,4.6-4.3,4.6c-2.8,0-4.6-2.2-4.6-5.6c0-2.6,0.9-4.6,2.2-5.9c1.1-1.1,2.5-1.7,4.2-1.9
				c0.5-0.1,1-0.1,1.3-0.1V756.3z M530.6,763.8c0-1.9-1.1-3-2.7-3c-1.1,0-2.1,0.7-2.5,1.6c-0.1,0.2-0.2,0.5-0.2,0.8
				c0,2.2,1,3.7,2.9,3.7C529.6,766.9,530.6,765.7,530.6,763.8z"/>
			<path class="st6" d="M535.8,754.3l-0.3,4.8h-1.1l-0.3-4.8H535.8z M538.8,754.3l-0.3,4.8h-1.1l-0.3-4.8H538.8z"/>
		</g>
		<g>
			<path class="st6" d="M540.3,770.5c1.4-2,2.5-4.6,2.5-8.2c0-3.6-1.1-6.2-2.5-8.2h1.4c1.3,1.6,2.6,4.2,2.6,8.2
				c0,3.9-1.3,6.5-2.6,8.2H540.3z"/>
		</g>
		<g>
			<path class="st6" d="M513.6,736.7v-5.8l-4.3-7.8h2l1.9,3.7c0.5,1,0.9,1.9,1.3,2.8h0c0.4-0.9,0.8-1.8,1.4-2.8l2-3.7h2l-4.5,7.8
				v5.8H513.6z"/>
		</g>
		<g>
			<path class="st6" d="M513.6,62.7V57l-4.3-7.8h2l1.9,3.7c0.5,1,0.9,1.9,1.3,2.8h0c0.4-0.9,0.8-1.8,1.4-2.8l2-3.7h2l-4.5,7.8v5.8
				H513.6z"/>
		</g>
		<line class="st28" x1="229.7" y1="775.3" x2="767.9" y2="775.3"/>
		<line class="st31" x1="500.3" y1="736.7" x2="499.4" y2="52"/>
		<polygon class="st8" points="240,780.7 220.3,775.4 240,770.2 		"/>
		<polygon class="st8" points="761.4,780.7 781,775.4 761.4,770.2 		"/>
		<g>
			<path class="st6" d="M905.8,398.9c-1.6,0-2.8-1-3.5-2.6l-0.1,0c-0.7,1.4-1.8,2.1-2.9,2.1c-2.1,0-3.5-1.7-3.5-4
				c0-2.5,1.6-3.8,3.2-3.8c1.1,0,2.3,0.5,3.1,2.2h0.1c0.6-1.6,1.8-2.6,3.4-2.6c2.3,0,3.8,2,3.8,4.4
				C909.3,397.2,907.7,398.9,905.8,398.9z M899.2,396.7c1.3,0,2-1,2.4-2.5c-0.4-1.1-1.2-2-2.4-2c-1,0-2.1,0.6-2.1,2.2
				C897.1,395.9,898,396.7,899.2,396.7z M905.7,391.8c-1.6,0-2.4,1.1-2.9,2.9c0.4,1.5,1.4,2.4,2.7,2.4c1.3,0.1,2.5-0.9,2.5-2.6
				C908,392.8,907,391.8,905.7,391.8z"/>
			<path class="st6" d="M902.4,379.7c4.4,0,6.9,1.6,6.9,4.5c0,2.6-2.4,4.3-6.7,4.3c-4.4,0-6.8-1.9-6.8-4.5
				C895.8,381.3,898.3,379.7,902.4,379.7z M902.6,386.8c3.4,0,5.3-1,5.3-2.7c0-1.8-2.1-2.7-5.5-2.7c-3.2,0-5.3,0.8-5.3,2.7
				C897.2,385.7,899.1,386.8,902.6,386.8z"/>
		</g>
		<g>
			<path class="st6" d="M895.1,369.4c2,1.5,4.6,2.5,8.2,2.5c3.6,0,6.2-1.1,8.2-2.5v1.4c-1.7,1.3-4.2,2.6-8.2,2.6
				c-4,0-6.5-1.4-8.2-2.6V369.4z"/>
			<path class="st6" d="M907.1,367.7c0.3-0.5,0.8-1.7,0.8-2.9c0-2.3-1.4-3-2.5-3c-1.8,0-2.6,1.7-2.6,3.4v1h-1.3v-1
				c0-1.3-0.7-2.9-2.2-2.9c-1,0-2,0.7-2,2.3c0,1,0.5,2.1,0.9,2.6l-1.3,0.5c-0.5-0.7-1-2-1-3.4c0-2.6,1.5-3.7,3.1-3.7
				c1.3,0,2.5,0.8,3.1,2.4h0c0.3-1.6,1.5-2.9,3.4-2.9c2.1,0,3.9,1.6,3.9,4.8c0,1.5-0.5,2.8-0.9,3.4L907.1,367.7z"/>
			<path class="st6" d="M908.1,357.6c-0.7,0-1.3-0.5-1.3-1.2s0.5-1.2,1.3-1.2c0.7,0,1.3,0.5,1.3,1.2
				C909.3,357.1,908.8,357.6,908.1,357.6z"/>
			<path class="st6" d="M897.7,349.8L897.7,349.8l1.2,2.3l-1.3,0.3l-1.5-2.9v-1.5h13.1v1.7H897.7z"/>
			<path class="st6" d="M897.5,335.5v5l3.4,0.5c0-0.3-0.1-0.6-0.1-1.1c0-1,0.2-2,0.7-2.8c0.6-1,1.7-1.9,3.4-1.9c2.6,0,4.5,2,4.5,4.9
				c0,1.4-0.4,2.6-0.8,3.3l-1.3-0.4c0.3-0.5,0.7-1.6,0.7-2.8c0-1.7-1.1-3.1-2.8-3.1c-1.7,0-2.9,1.1-2.9,3.8c0,0.7,0.1,1.3,0.1,1.8
				l-6.3-0.8v-6.3H897.5z"/>
			<path class="st6" d="M902.4,324.3c4.4,0,6.9,1.6,6.9,4.5c0,2.6-2.4,4.3-6.7,4.3c-4.4,0-6.8-1.9-6.8-4.5
				C895.8,325.9,898.3,324.3,902.4,324.3z M902.6,331.4c3.4,0,5.3-1,5.3-2.7c0-1.8-2.1-2.7-5.5-2.7c-3.2,0-5.3,0.8-5.3,2.7
				C897.2,330.3,899.1,331.4,902.6,331.4z"/>
			<path class="st6" d="M895.3,317.8l4.8,0.3v1.1l-4.8,0.3V317.8z M895.3,320.8l4.8,0.3v1.1l-4.8,0.3V320.8z"/>
		</g>
		<g>
			<path class="st6" d="M911.5,316.3c-2-1.4-4.6-2.5-8.2-2.5c-3.6,0-6.2,1.1-8.2,2.5V315c1.6-1.3,4.2-2.6,8.2-2.6
				c3.9,0,6.5,1.3,8.2,2.6V316.3z"/>
		</g>
		<line class="st32" x1="480.5" y1="348.5" x2="521.5" y2="348.5"/>
		<polygon class="st8" points="484.1,353.6 464.5,348.3 484.1,343 		"/>
		<polygon class="st8" points="517.9,353.6 537.5,348.3 517.9,343 		"/>
		<line class="st32" x1="695.8" y1="191.3" x2="695.8" y2="84"/>
		<polygon class="st8" points="700.9,187.7 695.6,207.3 690.3,187.7 		"/>
		<polygon class="st8" points="700.9,87.6 695.6,68 690.3,87.6 		"/>
		<line class="st28" x1="537" y1="348.4" x2="644.9" y2="348.4"/>
		<g>
			<path class="st6" d="M560.9,341c0.4,0,0.8,0,1.4-0.1c1-0.1,2-0.6,2.7-1.3c0.9-0.8,1.5-1.9,1.7-3.5l-0.1,0
				c-0.7,0.9-1.8,1.4-3.1,1.4c-2.4,0-3.9-1.8-3.8-4c0-2.5,1.8-4.6,4.5-4.6c2.7,0,4.3,2.2,4.3,5.5c0,2.9-1,4.9-2.3,6.1
				c-1,1-2.4,1.6-3.8,1.7c-0.6,0.1-1.2,0.1-1.6,0.1L560.9,341z M561.6,333.5c0,1.6,1,2.8,2.5,2.8c1.2,0,2.1-0.6,2.6-1.4
				c0.1-0.2,0.2-0.4,0.2-0.6c0-2.2-0.8-3.9-2.7-4C562.7,330.3,561.6,331.6,561.6,333.5z"/>
		</g>
		<g>
			<path class="st6" d="M579,328.4c-1.5,2-2.6,4.6-2.6,8.2c0,3.6,1.1,6.2,2.5,8.2l-1.4,0c-1.3-1.7-2.6-4.3-2.6-8.2
				c0-4,1.4-6.5,2.7-8.2L579,328.4z"/>
		</g>
		<g>
			<path class="st6" d="M588.9,335.7c0,4.4-1.7,6.9-4.6,6.9c-2.6,0-4.3-2.4-4.3-6.7c0-4.4,1.9-6.8,4.6-6.8
				C587.4,329.1,588.9,331.5,588.9,335.7z M581.8,335.9c0,3.4,1,5.3,2.6,5.3c1.8,0,2.7-2.1,2.7-5.4c0-3.2-0.8-5.3-2.6-5.3
				C583,330.4,581.8,332.3,581.8,335.9z"/>
		</g>
		<g>
			<path class="st6" d="M590.7,341.3c0-0.7,0.5-1.3,1.2-1.3c0.7,0,1.2,0.5,1.2,1.3c0,0.7-0.5,1.3-1.2,1.3
				C591.1,342.6,590.7,342.1,590.7,341.3z"/>
			<path class="st6" d="M595.1,340.4c0.5,0.3,1.7,0.8,2.9,0.8c2.3,0,3-1.4,3-2.5c0-1.8-1.7-2.6-3.4-2.6l-1,0l0-1.3l1,0
				c1.3,0,2.9-0.6,2.9-2.2c0-1-0.7-2-2.3-2c-1,0-2.1,0.5-2.6,0.8l-0.5-1.3c0.7-0.5,2-1,3.4-1c2.6,0,3.7,1.6,3.7,3.1
				c0,1.3-0.8,2.5-2.4,3.1l0,0c1.6,0.3,2.9,1.5,2.9,3.4c0,2.1-1.7,3.9-4.8,3.9c-1.5,0-2.8-0.5-3.4-0.9L595.1,340.4z"/>
		</g>
		<g>
			<path class="st6" d="M612.9,330.9l-5,0l-0.5,3.4c0.3,0,0.6-0.1,1.1-0.1c1,0,2,0.2,2.8,0.7c1,0.6,1.9,1.7,1.9,3.4
				c0,2.6-2.1,4.5-4.9,4.4c-1.4,0-2.6-0.4-3.3-0.8l0.5-1.3c0.5,0.3,1.6,0.7,2.8,0.7c1.7,0,3.1-1.1,3.1-2.8c0-1.7-1.1-2.9-3.7-2.9
				c-0.7,0-1.3,0.1-1.8,0.1l0.9-6.3l6.3,0L612.9,330.9z"/>
		</g>
		<g>
			<path class="st6" d="M620.8,342.6l0-3.6l-6.1,0l0-1.2l5.9-8.3l1.9,0l0,8.1l1.8,0l0,1.4l-1.8,0l0,3.6L620.8,342.6z M620.8,337.6
				l0-4.4c0-0.7,0-1.4,0.1-2.1l-0.1,0c-0.4,0.8-0.7,1.3-1.1,1.9l-3.2,4.4l0,0L620.8,337.6z"/>
		</g>
		<g>
			<path class="st6" d="M627.6,328.8l-0.4,4.8l-1.1,0l-0.3-4.8L627.6,328.8z M630.6,328.8l-0.4,4.8l-1.1,0l-0.3-4.8L630.6,328.8z"/>
			<path class="st6" d="M631.9,345.1c1.4-2,2.6-4.6,2.6-8.2c0-3.6-1-6.2-2.5-8.2l1.4,0c1.3,1.7,2.6,4.2,2.6,8.2
				c0,3.9-1.4,6.5-2.7,8.2L631.9,345.1z"/>
		</g>
		<line class="st32" x1="745" y1="228.3" x2="745" y2="84"/>
		<polygon class="st8" points="750,224.7 744.8,244.3 739.5,224.7 		"/>
		<polygon class="st8" points="750,87.6 744.8,68 739.5,87.6 		"/>
		<line class="st32" x1="364.1" y1="36.7" x2="636.4" y2="36.7"/>
		<polygon class="st8" points="367.7,41.7 348.1,36.5 367.7,31.2 		"/>
		<polygon class="st8" points="632.8,41.7 652.4,36.5 632.8,31.2 		"/>
		<g>
			<path class="st6" d="M465.8,24.9c0.5,0.3,1.7,0.8,2.9,0.8c2.3,0,3-1.4,3-2.5c0-1.8-1.7-2.6-3.4-2.6h-1v-1.3h1
				c1.3,0,2.9-0.7,2.9-2.2c0-1-0.7-2-2.3-2c-1,0-2.1,0.5-2.6,0.9l-0.5-1.3c0.7-0.5,2-1,3.4-1c2.6,0,3.7,1.5,3.7,3.1
				c0,1.3-0.8,2.5-2.4,3.1v0c1.6,0.3,2.9,1.5,2.9,3.4c0,2.1-1.6,3.9-4.8,3.9c-1.5,0-2.8-0.5-3.4-0.9L465.8,24.9z"/>
			<path class="st6" d="M475.5,23.6c0-1.6,1-2.8,2.6-3.5l0-0.1c-1.4-0.7-2.1-1.8-2.1-2.9c0-2.1,1.7-3.5,4-3.5c2.5,0,3.8,1.6,3.8,3.2
				c0,1.1-0.5,2.3-2.2,3.1V20c1.6,0.6,2.6,1.8,2.6,3.4c0,2.3-2,3.8-4.4,3.8C477.2,27.1,475.5,25.5,475.5,23.6z M482.6,23.5
				c0-1.6-1.1-2.4-2.9-2.9c-1.5,0.4-2.4,1.4-2.4,2.7c-0.1,1.3,0.9,2.5,2.6,2.5C481.5,25.9,482.6,24.9,482.6,23.5z M477.7,17
				c0,1.3,1,2,2.5,2.4c1.1-0.4,2-1.2,2-2.4c0-1-0.6-2.1-2.2-2.1C478.5,14.9,477.7,15.9,477.7,17z"/>
			<path class="st6" d="M494.7,13c-1.5,2-2.5,4.6-2.5,8.2c0,3.6,1.1,6.2,2.5,8.2h-1.4c-1.3-1.7-2.6-4.2-2.6-8.2c0-4,1.4-6.5,2.6-8.2
				H494.7z"/>
			<path class="st6" d="M499.8,15.5L499.8,15.5l-2.3,1.2l-0.3-1.3l2.9-1.5h1.5v13.1h-1.7V15.5z"/>
			<path class="st6" d="M506.4,25.9c0-0.7,0.5-1.3,1.2-1.3s1.2,0.5,1.2,1.3c0,0.7-0.5,1.3-1.2,1.3C506.9,27.1,506.4,26.6,506.4,25.9
				z"/>
			<path class="st6" d="M515.9,26.9v-3.6h-6.1v-1.2l5.8-8.3h1.9V22h1.8v1.4h-1.8v3.6H515.9z M515.9,22v-4.4c0-0.7,0-1.4,0.1-2.1
				h-0.1c-0.4,0.8-0.7,1.3-1.1,1.9l-3.2,4.4v0H515.9z"/>
			<path class="st6" d="M521.8,25.7c0.4,0,0.8,0,1.4-0.1c1-0.1,2-0.6,2.7-1.3c0.9-0.8,1.5-1.9,1.7-3.5h-0.1
				c-0.7,0.9-1.8,1.4-3.1,1.4c-2.4,0-3.9-1.8-3.9-4c0-2.5,1.8-4.6,4.5-4.6s4.3,2.2,4.3,5.5c0,2.9-1,4.9-2.3,6.1
				c-1,1-2.4,1.6-3.8,1.7c-0.6,0.1-1.2,0.1-1.6,0.1V25.7z M522.4,18.1c0,1.6,1,2.8,2.5,2.8c1.2,0,2.1-0.6,2.6-1.4
				c0.1-0.2,0.2-0.4,0.2-0.6c0-2.2-0.8-3.9-2.7-3.9C523.5,15,522.4,16.3,522.4,18.1z"/>
			<path class="st6" d="M538.5,15.1c-0.4,0-0.8,0-1.3,0.1c-2.8,0.5-4.2,2.5-4.5,4.6h0.1c0.6-0.8,1.7-1.5,3.2-1.5
				c2.3,0,3.9,1.7,3.9,4.2c0,2.4-1.6,4.6-4.3,4.6c-2.8,0-4.6-2.2-4.6-5.6c0-2.6,0.9-4.6,2.2-5.9c1.1-1.1,2.5-1.7,4.2-1.9
				c0.5-0.1,1-0.1,1.3-0.1V15.1z M538,22.6c0-1.9-1.1-3-2.7-3c-1.1,0-2.1,0.7-2.5,1.6c-0.1,0.2-0.2,0.5-0.2,0.8c0,2.2,1,3.7,2.9,3.7
				C537,25.8,538,24.5,538,22.6z"/>
			<path class="st6" d="M543.3,13.1l-0.3,4.8h-1.1l-0.3-4.8H543.3z M546.3,13.1l-0.3,4.8h-1.1l-0.3-4.8H546.3z"/>
		</g>
		<g>
			<path class="st6" d="M547.8,29.3c1.4-2,2.5-4.6,2.5-8.2c0-3.6-1.1-6.2-2.5-8.2h1.4c1.3,1.6,2.6,4.2,2.6,8.2
				c0,3.9-1.3,6.5-2.6,8.2H547.8z"/>
		</g>
		<line class="st32" x1="914" y1="693.2" x2="914" y2="84"/>
		<polygon class="st8" points="919,689.6 913.8,709.2 908.5,689.6 		"/>
		<polygon class="st8" points="919,87.6 913.8,68 908.5,87.6 		"/>
		<line class="st32" x1="856.2" y1="693.2" x2="856.2" y2="616.7"/>
		<polygon class="st8" points="861.2,689.6 855.9,709.2 850.7,689.6 		"/>
		<polygon class="st8" points="861.2,620.3 855.9,600.7 850.7,620.3 		"/>
		<line class="st28" x1="378.3" y1="303.7" x2="442.1" y2="249.4"/>
		<polygon class="st8" points="442.5,254.4 451.7,241 437,248 		"/>
		<g>
			<path class="st6" d="M398.1,529.4c0.7,0.6,1.6,1.5,2.3,2.4c1.2,1.5,1.7,2.6,1.6,3.8c0,0.9-0.5,1.8-1.3,2.4c-1.4,1.1-3,1-4.3,0.2
				l0,0c0.4,1,0,2.1-0.9,3.3c-1.2,1.5-2,2.6-2.2,3.1l-1.1-1.4c0.2-0.4,0.9-1.4,2-2.7c1.2-1.5,1.3-2.5,0.4-3.8l-1-1.3l-4.6,3.7
				l-1.1-1.4L398.1,529.4z M394.4,534.7l1.1,1.4c1.2,1.5,2.7,1.7,3.9,0.8c1.4-1.1,1.2-2.6,0-4c-0.5-0.7-1-1.1-1.2-1.2L394.4,534.7z"
				/>
		</g>
		<g>
			<path class="st6" d="M408,544.2c-0.2-0.3-0.5-0.6-0.9-1c-2.1-1.9-4.6-1.8-6.5-0.6l0,0c1,0,2.2,0.4,3.2,1.5
				c1.4,1.8,1.2,4.1-0.8,5.7c-1.9,1.5-4.6,1.6-6.3-0.5c-1.7-2.2-1.2-5,1.5-7.1c2-1.6,4.2-2.2,6-2c1.5,0.2,2.9,0.9,4.1,2.1
				c0.4,0.4,0.7,0.7,0.9,0.9L408,544.2z M401.8,548.5c1.5-1.2,1.7-2.7,0.7-4c-0.7-0.8-1.8-1.2-2.8-1c-0.2,0-0.5,0.1-0.7,0.3
				c-1.7,1.4-2.3,3.1-1.1,4.6C398.7,549.7,400.3,549.7,401.8,548.5z"/>
		</g>
		<line class="st28" x1="380.5" y1="539.4" x2="434.7" y2="603.2"/>
		<polygon class="st8" points="429.8,603.6 443.2,612.8 436.2,598.1 		"/>
		<g>
			<path class="st6" d="M179,593.9c0.7,0.6,1.6,1.5,2.3,2.4c1.2,1.5,1.7,2.6,1.6,3.8c0,0.9-0.5,1.8-1.3,2.4c-1.4,1.1-3,1-4.3,0.2
				l0,0c0.4,1,0,2.1-0.9,3.3c-1.2,1.5-2,2.6-2.2,3.1l-1.1-1.4c0.2-0.4,0.9-1.4,2-2.7c1.2-1.5,1.3-2.5,0.4-3.8l-1-1.3l-4.6,3.7
				l-1.1-1.4L179,593.9z M175.3,599.1l1.1,1.4c1.2,1.5,2.7,1.7,3.9,0.8c1.4-1.1,1.2-2.6,0-4c-0.5-0.7-1-1.1-1.2-1.2L175.3,599.1z"/>
		</g>
		<g>
			<path class="st6" d="M176.8,609.2c0.1,0.6,0.4,1.8,1.2,2.8c1.4,1.8,3,1.4,3.8,0.7c1.4-1.2,1-2.9-0.1-4.3l-0.6-0.8l1-0.8l0.6,0.8
				c0.8,1,2.3,1.9,3.6,0.9c0.8-0.7,1.1-1.8,0.1-3c-0.7-0.8-1.6-1.3-2.3-1.5l0.7-1.2c0.8,0.2,2,0.9,2.9,2c1.6,2,1.1,3.9-0.1,4.9
				c-1.1,0.8-2.4,0.9-3.9,0l0,0c0.8,1.5,0.6,3.2-0.8,4.4c-1.6,1.3-4.1,1.2-6-1.3c-0.9-1.1-1.4-2.4-1.4-3.2L176.8,609.2z"/>
		</g>
		<line class="st28" x1="161.3" y1="603.8" x2="215.6" y2="667.6"/>
		<polygon class="st8" points="210.7,668 224,677.2 217.1,662.6 		"/>
		<line class="st28" x1="804.1" y1="624" x2="804.1" y2="659.7"/>
		<polygon class="st8" points="800.6,657.3 804.1,670.4 807.7,657.3 		"/>
		<line class="st28" x1="804.1" y1="755.2" x2="804.1" y2="719.5"/>
		<polygon class="st8" points="807.7,721.9 804.1,708.8 800.6,721.9 		"/>
		<g>
			<path class="st6" d="M364.6,167.7c0.6-0.6,1.6-1.4,2.6-2.1c1.6-1,2.8-1.4,3.9-1.2c0.9,0.1,1.7,0.7,2.3,1.6c1,1.5,0.7,3.1-0.2,4.3
				l0,0c1.1-0.3,2.1,0.2,3.2,1.2c1.4,1.3,2.4,2.2,2.9,2.5l-1.5,1c-0.4-0.2-1.3-1-2.5-2.2c-1.4-1.3-2.4-1.5-3.7-0.7l-1.4,0.9l3.2,4.9
				l-1.5,1L364.6,167.7z M369.4,171.9l1.5-1c1.6-1,2-2.5,1.1-3.8c-1-1.5-2.4-1.4-4-0.4c-0.7,0.5-1.2,0.9-1.4,1.1L369.4,171.9z"/>
		</g>
		<g>
			<path class="st6" d="M379.7,171.4c0.6,0,1.8-0.2,2.9-0.9c1.9-1.3,1.7-2.8,1.1-3.7c-1-1.5-2.8-1.3-4.3-0.3l-0.8,0.5l-0.7-1.1
				l0.8-0.5c1.1-0.7,2.1-2.2,1.2-3.5c-0.6-0.9-1.6-1.3-3-0.4c-0.9,0.6-1.5,1.5-1.7,2.2l-1.1-0.8c0.3-0.8,1.1-1.9,2.3-2.7
				c2.1-1.4,4-0.8,4.8,0.5c0.7,1.1,0.7,2.5-0.3,3.9l0,0c1.5-0.6,3.3-0.3,4.3,1.2c1.2,1.7,0.8,4.2-1.8,5.9c-1.2,0.8-2.6,1.1-3.3,1.1
				L379.7,171.4z"/>
		</g>
		<line class="st28" x1="390.6" y1="175.4" x2="363.4" y2="194.6"/>
		<polygon class="st8" points="363.4,189.6 353,202.1 368.2,196.5 		"/>
		<g>
			<path class="st6" d="M406.1,93.3c0.7,0.5,1.7,1.3,2.5,2.2c1.3,1.3,1.9,2.4,1.9,3.6c0,0.9-0.3,1.8-1.1,2.6
				c-1.3,1.3-2.9,1.3-4.3,0.6l0,0c0.5,1,0.2,2.1-0.6,3.3c-1,1.6-1.8,2.8-1.9,3.3l-1.3-1.3c0.1-0.4,0.7-1.5,1.7-2.9
				c1.1-1.6,1.1-2.6,0-3.8l-1.2-1.2l-4.2,4.1l-1.2-1.3L406.1,93.3z M402.9,98.9l1.3,1.3c1.3,1.3,2.9,1.5,4,0.4
				c1.3-1.2,0.9-2.7-0.4-4c-0.6-0.6-1.1-1-1.3-1.1L402.9,98.9z"/>
		</g>
		<g>
			<path class="st6" d="M405.9,107.5c1.2-1.2,2.7-1.3,4.3-0.6l0-0.1c-0.5-1.5-0.2-2.7,0.7-3.5c1.5-1.4,3.7-1.2,5.3,0.5
				c1.8,1.8,1.5,3.8,0.4,5c-0.8,0.8-2,1.2-3.7,0.6l0,0c0.7,1.6,0.6,3.1-0.6,4.2c-1.6,1.6-4.1,1.3-5.8-0.5
				C404.6,111.2,404.6,108.8,405.9,107.5z M410.9,112.5c1.1-1.1,0.9-2.4,0-4.1c-1.4-0.8-2.7-0.7-3.6,0.2c-1,0.9-1.1,2.4,0,3.6
				C408.5,113.4,409.9,113.4,410.9,112.5z M412.2,104.4c-0.9,0.9-0.8,2.1,0,3.5c1.1,0.5,2.2,0.6,3.1-0.2c0.7-0.7,1.1-1.9,0-3.1
				C414.2,103.6,413,103.7,412.2,104.4z"/>
		</g>
		<line class="st28" x1="403.4" y1="120.1" x2="379.5" y2="96.9"/>
		<polygon class="st8" points="384.4,96 370.1,88.2 378.5,102.1 		"/>
		<g>
			<path class="st6" d="M479.7,113.5c0.2,0.9,0.4,2.1,0.5,3.3c0.1,1.9-0.2,3.1-0.9,4c-0.6,0.7-1.5,1.1-2.5,1.2c-1.8,0.1-3-1-3.6-2.4
				l-0.1,0c-0.3,1.1-1.2,1.7-2.6,2.1c-1.9,0.5-3.1,0.9-3.7,1.3l-0.1-1.8c0.4-0.2,1.5-0.6,3.2-1.1c1.8-0.5,2.5-1.3,2.5-2.9l-0.1-1.6
				l-5.9,0.3l-0.1-1.7L479.7,113.5z M473.6,115.6l0.1,1.8c0.1,1.9,1.2,3,2.7,2.9c1.7-0.1,2.4-1.4,2.4-3.3c0-0.8-0.2-1.4-0.3-1.7
				L473.6,115.6z"/>
		</g>
		<g>
			<path class="st6" d="M478.5,127.6L478.5,127.6l-1.4-2.2l1.3-0.4l1.7,2.8l0.1,1.5l-13.1,0.7l-0.1-1.7L478.5,127.6z"/>
		</g>
		<g>
			<path class="st6" d="M479.7,141.5c0-0.4,0-0.8-0.2-1.3c-0.6-2.7-2.7-4.1-4.9-4.3l0,0.1c0.9,0.6,1.6,1.6,1.7,3.1
				c0.1,2.3-1.4,4-4,4.2c-2.4,0.1-4.7-1.4-4.8-4.1c-0.2-2.8,1.9-4.7,5.3-4.9c2.6-0.1,4.6,0.7,6,1.9c1.1,1,1.9,2.4,2.2,4.1
				c0.1,0.5,0.2,1,0.2,1.3L479.7,141.5z M472.2,141.4c1.9-0.1,2.9-1.2,2.8-2.9c-0.1-1.1-0.8-2-1.7-2.4c-0.2-0.1-0.5-0.2-0.8-0.2
				c-2.1,0.2-3.7,1.2-3.6,3.1C469,140.6,470.3,141.5,472.2,141.4z"/>
		</g>
		<g>
			<path class="st6" d="M475.2,153.3c-4.4,0.2-7-1.3-7.1-4.2c-0.1-2.5,2.2-4.4,6.5-4.7c4.4-0.2,6.9,1.5,7,4.2
				C481.7,151.4,479.4,153.1,475.2,153.3z M474.6,146.2c-3.4,0.2-5.3,1.3-5.2,2.9c0.1,1.8,2.3,2.6,5.6,2.4c3.2-0.2,5.3-1.1,5.2-2.9
				C480.1,147.1,478.2,146,474.6,146.2z"/>
		</g>
		<line class="st28" x1="463.3" y1="155.2" x2="459.6" y2="82.4"/>
		<polygon class="st8" points="463.8,85.1 458.8,69.6 455.4,85.5 		"/>
	</g>
</g>
<g id="Watermark">
	<g>
		<rect x="438.5" y="641.1" class="st0" width="123.1" height="46.3"/>
		<g>
			<rect x="444.9" y="648.9" class="st106" width="62.9" height="30.6"/>
			<rect x="507.7" y="648.9" class="st106" width="47.4" height="30.6"/>
			<g>
				<path class="st107" d="M466.5,655l-2.8,18.9H461l-1.6-11l-1.5,11h-2.7l-2.8-18.9h2.5l1.8,14.2l1.8-14.2h2l1.8,14.2L464,655
					H466.5z"/>
				<path class="st107" d="M467.9,673.9V655h2.5v18.9H467.9z"/>
				<path class="st107" d="M472.8,655h5c1.9,0,2.9,1.1,2.9,3.2v4.7c0,1.7-0.5,2.7-1.5,3.1l1.8,7.9h-2.4l-1.7-7.6h-1.5v7.6h-2.5V655z
					 M475.4,664.1h1.7c0.8,0,1.1-0.5,1.1-1.4v-4.1c0-0.9-0.4-1.4-1.1-1.4h-1.7V664.1z"/>
				<path class="st107" d="M486.8,657.3v16.6h-2.5v-16.6h-2.4V655h7.4v2.3H486.8z"/>
				<path class="st107" d="M496.3,673.9v-8.6h-3.1v8.6h-2.5V655h2.5v8h3.1v-8h2.5v18.9H496.3z"/>
			</g>
			<g>
				<path class="st107" d="M516.3,655h5c1.9,0,2.9,1.1,2.9,3.2v4.7c0,1.7-0.5,2.7-1.5,3.1l1.8,7.9H522l-1.7-7.6h-1.5v7.6h-2.5V655z
					 M518.8,664.1h1.7c0.8,0,1.1-0.5,1.1-1.4v-4.1c0-0.9-0.4-1.4-1.1-1.4h-1.7V664.1z"/>
				<path class="st107" d="M528.7,673.9h-2.5v-15.7c0-2.2,1-3.2,3-3.2h1.9c2,0,3,1.1,3,3.2v15.7h-2.5V667h-2.9V673.9z M531.6,664.7
					v-6.3c0-0.7-0.4-1.1-1.1-1.1h-0.7c-0.7,0-1.1,0.4-1.1,1.1v6.3H531.6z"/>
				<path class="st107" d="M536.3,673.9V655h2.5v18.9H536.3z"/>
				<path class="st107" d="M547.2,673.9h-6V655h2.5v16.6h3.5V673.9z"/>
			</g>
		</g>
	</g>
</g>
</svg>
