<?xml version="1.0" encoding="utf-8"?>
<!-- Generator: Adobe Illustrator 25.2.3, SVG Export Plug-In . SVG Version: 6.00 Build 0)  -->
<svg version="1.1" xmlns="http://www.w3.org/2000/svg" xmlns:xlink="http://www.w3.org/1999/xlink" x="0px" y="0px"
	 viewBox="0 0 1000 800" style="enable-background:new 0 0 1000 800;" xml:space="preserve">
<style type="text/css">
	.st0{fill:#F0F0F0;}
	.st1{fill:none;stroke:#221E1F;stroke-width:1.2032;}
	.st2{fill:none;stroke:#221E1F;stroke-width:1.0736;}
	.st3{fill:none;stroke:#221E1F;stroke-width:1.2032;stroke-miterlimit:10;}
	.st4{fill:none;stroke:#221E1F;stroke-width:1.0736;stroke-linecap:round;stroke-linejoin:round;stroke-miterlimit:10;}
	.st5{fill:none;stroke:#221E1F;stroke-width:1.0736;stroke-miterlimit:10;}
	.st6{fill:#303030;}
	.st7{fill:none;stroke:#221E1F;stroke-width:1.2032;stroke-linecap:round;stroke-linejoin:round;}
	.st8{fill:#221E1F;}
	.st9{fill:none;stroke:#221E1F;stroke-width:1.2032;stroke-dasharray:15.0983,4.5412;}
	.st10{fill:none;stroke:#221E1F;stroke-width:1.327;}
	.st11{fill:none;stroke:#221E1F;stroke-width:1.327;stroke-miterlimit:10;}
	.st12{fill:none;stroke:#221E1F;stroke-width:1.5312;stroke-miterlimit:10;}
	.st13{fill:none;stroke:#221E1F;stroke-width:1.327;stroke-linecap:round;stroke-linejoin:round;}
	.st14{fill:none;stroke:#221E1F;stroke-width:1.327;stroke-dasharray:16.5574,4.9134;}
	.st15{fill:none;stroke:#221E1F;stroke-width:1.1875;stroke-linecap:round;stroke-linejoin:round;}
	.st16{fill:none;stroke:#221E1F;stroke-width:1.1875;stroke-miterlimit:10;}
	.st17{fill:none;stroke:#221E1F;stroke-width:1.0882;}
	.st18{fill:none;stroke:#221E1F;stroke-width:1.0882;stroke-miterlimit:10;}
	.st19{fill:none;stroke:#221E1F;stroke-width:1.01;stroke-linecap:round;stroke-linejoin:round;stroke-miterlimit:10;}
	.st20{fill:none;stroke:#221E1F;stroke-width:1.0268;stroke-linecap:round;stroke-linejoin:round;stroke-miterlimit:10;}
	.st21{fill:none;stroke:#221E1F;stroke-width:1.0268;}
	.st22{fill:none;stroke:#221E1F;stroke-width:1.0882;stroke-linecap:round;stroke-linejoin:round;stroke-miterlimit:10;}
	.st23{fill:none;stroke:#221E1F;stroke-width:1.0882;stroke-linecap:round;stroke-linejoin:round;}
	.st24{fill:none;stroke:#221E1F;stroke-width:1.0882;stroke-dasharray:13.6188,4.0709;}
	.st25{fill:none;stroke:#303030;stroke-width:1.0882;stroke-miterlimit:10;}
	.st26{fill:none;stroke:#303030;stroke-width:0.9459;stroke-miterlimit:10;}
	.st27{fill:none;stroke:#303030;stroke-width:0.625;stroke-miterlimit:10;}
	.st28{fill:none;stroke:#221E1F;stroke-width:1.2065;}
	.st29{fill:none;stroke:#221E1F;stroke-width:1.058;stroke-miterlimit:10;}
	.st30{fill:none;stroke:#221E1F;stroke-width:1.2065;stroke-miterlimit:10;}
	.st31{fill:none;stroke:#221E1F;stroke-width:1.2065;stroke-dasharray:15.1403,4.5538;}
	.st32{fill:none;stroke:#221E1F;stroke-width:1.2065;stroke-linecap:round;stroke-linejoin:round;}
	.st33{fill:none;stroke:#221E1F;stroke-width:1.0363;}
	.st34{fill:none;stroke:#221E1F;stroke-width:1.0363;stroke-miterlimit:10;}
	.st35{fill:none;stroke:#221E1F;stroke-width:1.0536;stroke-linecap:round;stroke-linejoin:round;stroke-miterlimit:10;}
	.st36{fill:none;stroke:#221E1F;stroke-width:1.0536;stroke-miterlimit:10;}
	.st37{fill:none;stroke:#221E1F;stroke-width:1.0363;stroke-linecap:round;stroke-linejoin:round;}
	.st38{fill:none;stroke:#221E1F;stroke-width:1.0363;stroke-dasharray:14.1142,4.2633;}
	.st39{fill:none;stroke:#221E1F;stroke-width:1.0394;}
	.st40{fill:none;stroke:#221E1F;stroke-width:1.1318;stroke-linecap:round;stroke-linejoin:round;stroke-miterlimit:10;}
	.st41{fill:none;stroke:#221E1F;stroke-width:1.0394;stroke-miterlimit:10;}
	.st42{fill:none;stroke:#221E1F;stroke-width:1.1318;stroke-miterlimit:10;}
	.st43{fill:none;stroke:#221E1F;stroke-width:1.0394;stroke-dasharray:14.096,4.2184;}
	.st44{fill:none;stroke:#221E1F;stroke-width:0.9644;stroke-linecap:round;stroke-linejoin:round;}
	.st45{fill:none;stroke:#221E1F;stroke-width:1.0394;stroke-linecap:round;stroke-linejoin:round;}
	.st46{fill:none;stroke:#221E1F;stroke-width:1.0394;stroke-dasharray:28.8705,8.4195;}
	.st47{fill:none;stroke:#221E1F;stroke-width:1.0394;stroke-dasharray:30.1958,9.7419;}
	.st48{fill:none;stroke:#221E1F;stroke-width:1.1834;}
	.st49{fill:none;stroke:#221E1F;stroke-width:1.1834;stroke-dasharray:22.2172,9.0331;}
	.st50{fill:none;stroke:#221E1F;stroke-width:1.1834;stroke-dasharray:22.205,9.024;}
	.st51{fill:none;stroke:#221E1F;stroke-width:1.1834;stroke-dasharray:22.2172,9.0362;}
	.st52{fill:none;stroke:#221E1F;stroke-width:1.1834;stroke-dasharray:22.205,9.021;}
	.st53{fill:none;stroke:#221E1F;stroke-width:1.1834;stroke-dasharray:14.8529,4.4695;}
	.st54{fill:none;stroke:#221E1F;stroke-width:1.1834;stroke-linecap:round;stroke-linejoin:round;}
	.st55{fill:none;stroke:#221E1F;stroke-width:0.9791;}
	.st56{fill:none;stroke:#221E1F;stroke-width:1.2076;}
	.st57{fill:none;stroke:#221E1F;stroke-width:1.2076;stroke-dasharray:17.3391,6.3726;}
	.st58{fill:none;stroke:#221E1F;stroke-width:1.2076;stroke-dasharray:17.3363,6.3726;}
	.st59{fill:none;stroke:#221E1F;stroke-width:0.9791;stroke-dasharray:17.5349,5.1568;}
	.st60{fill:none;stroke:#303030;stroke-width:0.9791;}
	.st61{fill:none;stroke:#221E1F;stroke-width:0.8976;stroke-linecap:round;stroke-linejoin:round;}
	.st62{fill:none;stroke:#241F21;stroke-width:0.9771;}
	
		.st63{fill:none;stroke:#241F21;stroke-width:0.9771;stroke-linecap:round;stroke-linejoin:round;stroke-miterlimit:1;stroke-dasharray:16.5466,16.5466;}
	
		.st64{fill:none;stroke:#241F21;stroke-width:0.9771;stroke-linecap:round;stroke-linejoin:round;stroke-miterlimit:1;stroke-dasharray:17.1257,17.1257;}
	
		.st65{fill:none;stroke:#241F21;stroke-width:0.9771;stroke-linecap:round;stroke-linejoin:round;stroke-miterlimit:1;stroke-dasharray:16.5967,16.5967;}
	.st66{fill:none;stroke:#241F21;stroke-width:0.9771;stroke-linecap:round;stroke-linejoin:round;stroke-miterlimit:1;}
	.st67{fill:#241F21;}
	.st68{fill:none;stroke:#241F21;stroke-width:0.7626;stroke-linecap:round;stroke-linejoin:round;stroke-miterlimit:1;}
	.st69{fill:none;stroke:#221E1F;stroke-width:1.2516;}
	.st70{fill:none;stroke:#221E1F;stroke-width:1.2516;stroke-miterlimit:10;}
	.st71{fill:none;stroke:#221E1F;stroke-width:0.6258;}
	.st72{fill:none;stroke:#221E1F;stroke-width:0.6258;stroke-dasharray:18.3883,4.6234;}
	.st73{fill:none;stroke:#221E1F;stroke-width:0.6258;stroke-dasharray:21.5524,17.6199;}
	.st74{fill:none;stroke:#221E1F;stroke-width:0.6258;stroke-dasharray:20.1706,6.4056;}
	.st75{fill:none;stroke:#221E1F;stroke-width:0.9654;}
	.st76{fill:none;stroke:#303030;stroke-width:0.9654;}
	.st77{fill:none;stroke:#303030;stroke-width:0.9017;}
	.st78{fill:none;stroke:#303030;stroke-width:0.9654;stroke-dasharray:14.0607,4.2416;}
	.st79{fill:none;stroke:#303030;stroke-width:0.9654;stroke-dasharray:13.938,4.1189;}
	.st80{fill:none;stroke:#303030;stroke-width:0.9654;stroke-dasharray:14.3912,4.5697;}
	.st81{fill:none;stroke:#303030;stroke-width:0.9654;stroke-dasharray:14.7358,4.9143;}
	.st82{fill:none;stroke:#221E1F;stroke-width:0.9654;stroke-dasharray:15.4321,4.6901;}
	.st83{fill:none;stroke:#221E1F;stroke-width:0.9654;stroke-linecap:round;stroke-linejoin:round;}
	.st84{fill:none;stroke:#303030;stroke-width:0.8686;stroke-miterlimit:10;}
	.st85{fill:none;stroke:#303030;stroke-width:0.9654;stroke-miterlimit:10;}
	.st86{fill:none;stroke:#221E1F;stroke-width:2.6151;}
	.st87{fill:none;stroke:#221E1F;stroke-width:1.816;}
	.st88{fill:none;stroke:#221E1F;stroke-width:1.816;stroke-dasharray:21.5996,5.873;}
	.st89{fill:none;stroke:#221E1F;stroke-width:1.816;stroke-dasharray:21.596,5.8693;}
	.st90{fill:none;stroke:#221E1F;stroke-width:1.816;stroke-dasharray:45.6036,34.3698;}
	.st91{fill:none;stroke:#221E1F;stroke-width:1.816;stroke-dasharray:45.5927,34.3589;}
	.st92{fill:none;stroke:#221E1F;stroke-width:1.816;stroke-dasharray:21.596,5.873;}
	.st93{fill:none;stroke:#221E1F;stroke-width:2.158;}
	.st94{fill:none;stroke:#221E1F;stroke-width:1.4986;}
	.st95{fill:none;stroke:#221E1F;stroke-width:1.4986;stroke-dasharray:19.9046,5.413;}
	.st96{fill:none;stroke:#221E1F;stroke-width:1.4986;stroke-dasharray:19.9016,5.41;}
	.st97{fill:none;stroke:#221E1F;stroke-width:1.4986;stroke-dasharray:35.6909,25.3385;}
	.st98{fill:none;stroke:#221E1F;stroke-width:0.8673;}
	.st99{fill:none;stroke:#303030;stroke-width:0.9125;stroke-miterlimit:10;}
	.st100{fill:none;stroke:#303030;stroke-width:8.808669e-02;stroke-linecap:round;stroke-linejoin:round;stroke-miterlimit:10;}
	.st101{fill:none;stroke:#303030;stroke-width:0.8786;stroke-miterlimit:10;}
	.st102{fill:none;stroke:#303030;stroke-width:0.8786;}
	.st103{fill:none;stroke:#221E1F;stroke-width:0.9125;}
	.st104{fill:none;stroke:#221E1F;stroke-width:0.9125;stroke-dasharray:15.7291,4.7273;}
	.st105{fill:none;stroke:#221E1F;stroke-width:0.9125;stroke-linecap:round;stroke-linejoin:round;}
	.st106{fill:#F0F0F0;stroke:#CCCCCC;stroke-miterlimit:10;}
	.st107{fill:#CCCCCC;}
</style>
<g id="Flat">
	<g>
		<polygon class="st0" points="771.3,680.9 769.5,677.5 767.2,674.6 764.3,672.1 761.1,670.2 757.5,669 563.2,620.6 556,618.1 
			549.5,614.2 543.8,609.4 539.2,603.3 535.7,596.6 533.6,589.4 532.9,581.8 532.9,278.6 533.6,271.1 535.7,263.9 539.2,257.1 
			543.8,251.1 549.5,246.2 556,242.4 563.2,239.9 627.7,223.7 631.3,222.5 634.5,220.6 637.3,218.1 639.7,215.2 641.4,211.8 
			642.4,208.1 642.8,204.3 642.8,143.4 641.9,133.5 639.1,124 634.7,115.1 628.6,107.3 621.3,100.6 612.8,95.5 603.5,91.9 
			593.7,90.3 499.6,86.6 405.5,90.3 395.8,91.9 386.4,95.5 378,100.6 370.6,107.3 364.5,115.1 360.1,124 357.4,133.5 356.5,143.4 
			356.5,204.3 356.8,208.1 357.9,211.8 359.5,215.2 361.9,218.1 364.8,220.6 368,222.5 371.5,223.7 436.1,239.9 443.2,242.4 
			449.7,246.2 455.4,251.1 460.1,257.1 463.5,263.9 465.6,271.1 466.4,278.6 466.4,581.8 465.6,589.4 463.5,596.6 460.1,603.3 
			455.4,609.4 449.7,614.2 443.2,618.1 436.1,620.6 241.7,669 238.1,670.2 234.9,672.1 232.1,674.6 229.7,677.5 228,680.9 
			227,684.6 226.6,688.4 226.6,706.1 499.6,706.1 772.6,706.1 772.6,688.4 772.3,684.6 		"/>
		<polygon class="st17" points="771.3,680.9 769.5,677.5 767.2,674.6 764.3,672.1 761.1,670.2 757.5,669 563.2,620.6 556,618.1 
			549.5,614.2 543.8,609.4 539.2,603.3 535.7,596.6 533.6,589.4 532.9,581.8 532.9,278.6 533.6,271.1 535.7,263.9 539.2,257.1 
			543.8,251.1 549.5,246.2 556,242.4 563.2,239.9 627.7,223.7 631.3,222.5 634.5,220.6 637.3,218.1 639.7,215.2 641.4,211.8 
			642.4,208.1 642.8,204.3 642.8,143.4 641.9,133.5 639.1,124 634.7,115.1 628.6,107.3 621.3,100.6 612.8,95.5 603.5,91.9 
			593.7,90.3 499.6,86.6 405.5,90.3 395.8,91.9 386.4,95.5 378,100.6 370.6,107.3 364.5,115.1 360.1,124 357.4,133.5 356.5,143.4 
			356.5,204.3 356.8,208.1 357.9,211.8 359.5,215.2 361.9,218.1 364.8,220.6 368,222.5 371.5,223.7 436.1,239.9 443.2,242.4 
			449.7,246.2 455.4,251.1 460.1,257.1 463.5,263.9 465.6,271.1 466.4,278.6 466.4,581.8 465.6,589.4 463.5,596.6 460.1,603.3 
			455.4,609.4 449.7,614.2 443.2,618.1 436.1,620.6 241.7,669 238.1,670.2 234.9,672.1 232.1,674.6 229.7,677.5 228,680.9 
			227,684.6 226.6,688.4 226.6,706.1 499.6,706.1 772.6,706.1 772.6,688.4 772.3,684.6 		"/>
		<line class="st18" x1="230.9" y1="676" x2="191.4" y2="676"/>
		<line class="st19" x1="348.8" y1="222.2" x2="293.8" y2="254.6"/>
		<g>
			<path class="st8" d="M351.6,218.4c-3,0.7-5.2,1-7.7,1.4l4.7,7.9c0.5-0.8,2.8-3.8,5-6.1c2.3-2.5,4.5-4.5,6-5.7
				C357.7,216.7,354.8,217.6,351.6,218.4"/>
		</g>
		<line class="st19" x1="408" y1="139.5" x2="377" y2="120"/>
		<g>
			<path class="st8" d="M372.4,119.3c2.1,2.4,3.3,4.1,4.8,6.2l4.9-7.8c-0.9-0.1-4.7-0.8-7.7-1.6c-3.2-0.9-6.1-1.9-7.8-2.7
				C368,114.7,370.2,116.8,372.4,119.3"/>
		</g>
		<line class="st19" x1="589.4" y1="547.1" x2="559" y2="606.4"/>
		<g>
			<path class="st8" d="M558.7,611c2.2-2.3,3.8-3.6,5.8-5.3l-8.2-4.2c0,1-0.4,4.7-1,7.8c-0.6,3.3-1.3,6.2-2,8
				C554.4,615.7,556.3,613.4,558.7,611"/>
		</g>
		<line class="st18" x1="779.8" y1="670.4" x2="834.3" y2="636.5"/>
		<g>
			<path class="st8" d="M777.1,674.2c3-0.8,5.1-1.1,7.7-1.6l-4.8-7.8c-0.5,0.8-2.8,3.8-4.8,6.2c-2.2,2.5-4.3,4.6-5.8,5.8
				C771,676.1,773.8,675.1,777.1,674.2"/>
		</g>
		<line class="st18" x1="634.9" y1="220" x2="683.4" y2="220"/>
		<line class="st19" x1="605" y1="300.7" x2="550.5" y2="262.6"/>
		<g>
			<path class="st8" d="M545.9,261.7c1.9,2.5,3.1,4.3,4.5,6.4l5.3-7.5c-0.9-0.2-4.6-1-7.6-2c-3.2-1-6-2.2-7.7-3.1
				C541.8,256.8,543.8,259,545.9,261.7"/>
		</g>
		<path class="st18" d="M499.9,255.8h252 M504.7,86.6h247.2"/>
		<line class="st19" x1="437" y1="239.9" x2="499.9" y2="255.8"/>
		<line class="st19" x1="566.6" y1="208.9" x2="573.1" y2="101.7"/>
		<g>
			<path class="st8" d="M571.5,97.3c-1.1,2.9-2,4.8-3.2,7.2l9.2,0.6c-0.4-0.9-1.5-4.5-2.3-7.5c-0.8-3.3-1.3-6.2-1.4-8.1
				C573.5,91.2,572.7,94.1,571.5,97.3"/>
			<path class="st18" d="M226.6,705.1v71.3 M772.6,704.9v73.7"/>
		</g>
		<line class="st20" x1="370.5" y1="32.4" x2="631.3" y2="32.4"/>
		<g>
			<path class="st8" d="M635.8,30.6c-3.1-0.9-5.1-1.7-7.6-2.7V37c0.9-0.4,4.5-1.8,7.6-2.7c3.3-1,6.3-1.6,8.3-1.9
				C642.1,32.2,639.1,31.5,635.8,30.6"/>
			<path class="st21" d="M635.8,30.6c-3.1-0.9-5.1-1.7-7.6-2.7V37c0.9-0.4,4.5-1.8,7.6-2.7c3.3-1,6.3-1.6,8.3-1.9
				C642.1,32.2,639.1,31.5,635.8,30.6z"/>
			<path class="st8" d="M366,34.3c3.1,0.9,5.1,1.7,7.6,2.7v-9.2c-0.9,0.4-4.5,1.8-7.6,2.7c-3.3,1-6.3,1.6-8.3,1.9
				C359.7,32.7,362.7,33.3,366,34.3"/>
			<path class="st21" d="M366,34.3c3.1,0.9,5.1,1.7,7.6,2.7v-9.2c-0.9,0.4-4.5,1.8-7.6,2.7c-3.3,1-6.3,1.6-8.3,1.9
				C359.7,32.7,362.7,33.3,366,34.3z"/>
		</g>
		<line class="st18" x1="642.3" y1="139.2" x2="642.3" y2="24.1"/>
		<line class="st22" x1="357.4" y1="139.2" x2="357.4" y2="24.1"/>
		<line class="st18" x1="54.7" y1="693.3" x2="54.7" y2="98.8"/>
		<g>
			<path class="st8" d="M52.8,94.4c-0.9,3-1.7,5-2.7,7.5h9.2c-0.4-0.9-1.8-4.4-2.7-7.5c-1-3.3-1.6-6.2-1.9-8.1
				C54.5,88.2,53.8,91.2,52.8,94.4"/>
			<path class="st17" d="M52.8,94.4c-0.9,3-1.7,5-2.7,7.5h9.2c-0.4-0.9-1.8-4.4-2.7-7.5c-1-3.3-1.6-6.2-1.9-8.1
				C54.5,88.2,53.8,91.2,52.8,94.4z"/>
			<path class="st8" d="M56.5,697.6c0.9-3,1.7-5,2.7-7.5h-9.2c0.4,0.9,1.8,4.4,2.7,7.5c1,3.3,1.6,6.2,1.9,8.1
				C54.9,703.9,55.6,700.9,56.5,697.6"/>
			<path class="st17" d="M56.5,697.6c0.9-3,1.7-5,2.7-7.5h-9.2c0.4,0.9,1.8,4.4,2.7,7.5c1,3.3,1.6,6.2,1.9,8.1
				C54.9,703.9,55.6,700.9,56.5,697.6z"/>
		</g>
		<line class="st22" x1="496.4" y1="86.6" x2="46.4" y2="86.6"/>
		<path class="st18" d="M500.6,604.7H143.1 M769.4,706.1H46.4"/>
		<line class="st22" x1="500.6" y1="604.7" x2="437" y2="620.6"/>
		<g>
			<path class="st6" d="M574.7,565.2l-11.6-5.8l2.6-5.2c0.5-1,1-1.8,1.5-2.2s1.1-0.7,1.8-0.7c0.7-0.1,1.4,0.1,2,0.4
				c0.8,0.4,1.4,1,1.7,1.8s0.2,1.8-0.2,3c0.4-0.3,0.7-0.5,1-0.6c0.6-0.2,1.4-0.4,2.2-0.5l4.2-0.4l-1,1.9l-3.2,0.3
				c-0.9,0.1-1.6,0.2-2.2,0.3s-0.9,0.2-1.2,0.4c-0.3,0.2-0.5,0.3-0.7,0.5c-0.1,0.2-0.3,0.4-0.5,0.8l-0.9,1.8l5.2,2.6L574.7,565.2z
				 M568.9,560.4l1.6-3.3c0.4-0.7,0.6-1.3,0.6-1.8c0.1-0.5,0-0.9-0.2-1.3c-0.2-0.4-0.5-0.6-0.9-0.8c-0.5-0.3-1.1-0.3-1.7-0.1
				c-0.6,0.2-1,0.8-1.5,1.6l-1.8,3.7L568.9,560.4z"/>
		</g>
		<g>
			<path class="st6" d="M575.1,542.3l-0.6,1.5c-0.6-0.2-1.1-0.2-1.5-0.1c-0.6,0.2-1,0.6-1.3,1.1c-0.2,0.5-0.3,0.9-0.2,1.4
				c0.1,0.6,0.4,1.2,0.9,1.8c0.5,0.6,1.3,1.2,2.5,1.7c-0.4-0.6-0.5-1.2-0.5-1.8s0.1-1.2,0.4-1.8c0.5-1,1.2-1.6,2.3-1.9
				s2.1-0.2,3.2,0.4c0.7,0.4,1.3,0.9,1.8,1.5c0.5,0.6,0.7,1.3,0.8,2c0.1,0.7-0.1,1.4-0.4,2.1c-0.6,1.2-1.5,1.9-2.8,2.3
				c-1.2,0.3-2.9,0-4.9-1c-2.2-1.1-3.7-2.3-4.3-3.7c-0.5-1.2-0.5-2.4,0.1-3.6c0.5-0.9,1.1-1.5,1.9-1.9
				C573.3,542,574.2,542,575.1,542.3z M577.2,550.6c0.5,0.2,1,0.4,1.6,0.4c0.6,0,1-0.1,1.5-0.4c0.4-0.3,0.7-0.6,0.9-1
				c0.3-0.6,0.3-1.2,0-1.9c-0.3-0.7-0.8-1.2-1.7-1.6c-0.8-0.4-1.5-0.5-2.2-0.3c-0.7,0.2-1.2,0.6-1.5,1.3c-0.3,0.6-0.4,1.3-0.1,2
				C576,549.7,576.5,550.3,577.2,550.6z"/>
		</g>
		<g>
			<path class="st6" d="M811.6,644.2L805,633l5-2.9c1-0.6,1.8-0.9,2.5-1c0.6-0.1,1.3,0,1.9,0.3c0.6,0.3,1.1,0.8,1.5,1.4
				c0.5,0.8,0.6,1.6,0.4,2.5c-0.2,0.8-0.8,1.7-1.8,2.4c0.5,0,0.9,0,1.2,0c0.7,0.1,1.4,0.4,2.1,0.8l3.7,1.9l-1.9,1.1l-2.9-1.5
				c-0.8-0.4-1.5-0.7-2-0.9c-0.5-0.2-0.9-0.3-1.2-0.3c-0.3,0-0.6,0-0.9,0.1c-0.2,0.1-0.5,0.2-0.9,0.4l-1.7,1l2.9,5L811.6,644.2z
				 M809.4,637l3.2-1.9c0.7-0.4,1.2-0.8,1.5-1.1c0.3-0.4,0.5-0.8,0.5-1.2c0-0.4-0.1-0.8-0.3-1.2c-0.3-0.5-0.8-0.8-1.3-1
				c-0.6-0.1-1.3,0.1-2.1,0.6l-3.5,2.1L809.4,637z"/>
		</g>
		<g>
			<path class="st6" d="M820.6,634.9l1.3-1c0.6,0.7,1.2,1.1,1.8,1.2c0.6,0.1,1.1,0,1.7-0.3c0.6-0.4,1.1-0.9,1.2-1.6
				c0.2-0.7,0.1-1.4-0.3-2.1c-0.4-0.6-0.9-1-1.5-1.2c-0.7-0.2-1.3-0.1-1.9,0.3c-0.3,0.2-0.6,0.4-0.9,0.7l-0.6-1.3
				c0.1,0,0.2-0.1,0.2-0.1c0.6-0.3,1-0.8,1.3-1.4s0.2-1.2-0.1-1.8c-0.3-0.5-0.7-0.8-1.2-0.9c-0.5-0.1-1.1,0-1.6,0.3
				c-0.5,0.3-0.9,0.7-1,1.3c-0.2,0.5-0.1,1.2,0.2,1.9l-1.5,0.6c-0.4-1-0.4-2-0.1-2.8c0.3-0.9,0.9-1.5,1.8-2.1
				c0.6-0.4,1.2-0.6,1.9-0.6c0.7,0,1.3,0.1,1.8,0.4c0.5,0.3,1,0.7,1.3,1.2c0.3,0.5,0.4,1,0.4,1.5c0,0.5-0.2,1.1-0.6,1.6
				c0.8-0.2,1.5-0.2,2.1,0s1.2,0.8,1.6,1.5c0.6,1,0.7,2,0.4,3.1c-0.3,1.1-1,2-2.1,2.6c-1,0.6-2,0.8-3,0.6S821.2,635.7,820.6,634.9z"
				/>
		</g>
		<g>
			<path class="st6" d="M291.8,250.7l-6.6-11.2l5-2.9c1-0.6,1.8-0.9,2.5-1c0.6-0.1,1.3,0,1.9,0.3c0.6,0.3,1.1,0.8,1.5,1.4
				c0.5,0.8,0.6,1.6,0.4,2.5c-0.2,0.8-0.8,1.7-1.8,2.4c0.5,0,0.9,0,1.2,0c0.7,0.1,1.4,0.4,2.1,0.8l3.7,1.9l-1.9,1.1l-2.9-1.5
				c-0.8-0.4-1.5-0.7-2-0.9c-0.5-0.2-0.9-0.3-1.2-0.3c-0.3,0-0.6,0-0.9,0.1c-0.2,0.1-0.5,0.2-0.9,0.4l-1.7,1l2.9,5L291.8,250.7z
				 M289.6,243.6l3.2-1.9c0.7-0.4,1.2-0.8,1.5-1.1s0.5-0.8,0.5-1.2c0-0.4-0.1-0.8-0.3-1.2c-0.3-0.5-0.8-0.8-1.3-1
				c-0.6-0.1-1.3,0.1-2.1,0.6l-3.5,2.1L289.6,243.6z"/>
		</g>
		<g>
			<path class="st6" d="M300.8,241.4l1.3-1c0.6,0.7,1.2,1.1,1.8,1.2c0.6,0.1,1.1,0,1.7-0.3c0.6-0.4,1.1-0.9,1.2-1.6
				c0.2-0.7,0.1-1.4-0.3-2.1c-0.4-0.6-0.9-1-1.5-1.2c-0.7-0.2-1.3-0.1-1.9,0.3c-0.3,0.2-0.6,0.4-0.9,0.7l-0.6-1.3
				c0.1,0,0.2-0.1,0.2-0.1c0.6-0.3,1-0.8,1.3-1.4c0.3-0.6,0.2-1.2-0.1-1.8c-0.3-0.5-0.7-0.8-1.2-0.9c-0.5-0.1-1.1,0-1.6,0.3
				c-0.5,0.3-0.9,0.7-1,1.3c-0.2,0.5-0.1,1.2,0.2,1.9l-1.5,0.6c-0.4-1-0.4-2-0.1-2.8c0.3-0.9,0.9-1.5,1.8-2.1
				c0.6-0.4,1.2-0.6,1.9-0.6c0.7,0,1.3,0.1,1.8,0.4c0.5,0.3,1,0.7,1.3,1.2c0.3,0.5,0.4,1,0.4,1.5c0,0.5-0.2,1.1-0.6,1.6
				c0.8-0.2,1.5-0.2,2.1,0c0.6,0.3,1.2,0.8,1.6,1.5c0.6,1,0.7,2,0.4,3.1c-0.3,1.1-1,2-2.1,2.6c-1,0.6-2,0.8-3,0.6
				C302.3,242.8,301.4,242.3,300.8,241.4z"/>
		</g>
		<g>
			<path class="st6" d="M390.5,122.6l7-10.9l4.8,3.1c1,0.6,1.6,1.2,2,1.7c0.4,0.5,0.6,1.1,0.5,1.8c0,0.7-0.2,1.3-0.6,1.9
				c-0.5,0.8-1.2,1.3-2,1.5c-0.8,0.2-1.8,0-3-0.5c0.3,0.4,0.4,0.8,0.5,1.1c0.2,0.7,0.3,1.4,0.3,2.2l0,4.2l-1.8-1.2l0-3.2
				c0-0.9,0-1.7-0.1-2.2c0-0.5-0.1-0.9-0.3-1.2c-0.1-0.3-0.3-0.5-0.5-0.7c-0.1-0.1-0.4-0.3-0.8-0.6l-1.7-1.1l-3.1,4.8L390.5,122.6z
				 M395.9,117.4l3.1,2c0.7,0.4,1.2,0.7,1.7,0.8c0.5,0.1,0.9,0.1,1.3-0.1c0.4-0.2,0.7-0.4,0.9-0.8c0.3-0.5,0.4-1.1,0.3-1.6
				c-0.2-0.6-0.6-1.1-1.5-1.6l-3.5-2.2L395.9,117.4z"/>
		</g>
		<g>
			<path class="st6" d="M406.8,124.7c-0.4-0.6-0.6-1.1-0.7-1.7c0-0.5,0.1-1.1,0.5-1.6c0.5-0.8,1.2-1.3,2.1-1.5
				c0.9-0.2,1.9,0,2.8,0.7c1,0.6,1.5,1.4,1.8,2.3c0.2,0.9,0.1,1.8-0.4,2.6c-0.3,0.5-0.7,0.9-1.2,1.1s-1.1,0.2-1.8,0.1
				c0.5,0.6,0.8,1.3,0.8,2c0,0.7-0.2,1.4-0.6,2.1c-0.6,0.9-1.4,1.5-2.5,1.7c-1.1,0.2-2.1,0-3.2-0.7c-1.1-0.7-1.7-1.6-2-2.6
				s-0.1-2.1,0.5-3c0.5-0.7,1-1.2,1.7-1.4C405.3,124.5,406,124.5,406.8,124.7z M404.3,127c-0.2,0.4-0.4,0.8-0.4,1.3
				c0,0.5,0,0.9,0.3,1.4c0.2,0.4,0.6,0.8,1,1c0.6,0.4,1.3,0.5,2,0.4c0.7-0.1,1.2-0.5,1.6-1.2c0.4-0.6,0.5-1.3,0.4-2
				c-0.2-0.7-0.6-1.3-1.2-1.7c-0.6-0.4-1.3-0.5-2-0.4C405.3,126,404.7,126.4,404.3,127z M408,122.3c-0.3,0.5-0.4,1-0.3,1.6
				c0.1,0.5,0.4,1,1,1.3c0.5,0.3,1,0.4,1.6,0.3c0.5-0.1,1-0.4,1.3-0.9c0.3-0.5,0.4-1,0.3-1.6c-0.1-0.6-0.4-1-0.9-1.3
				c-0.5-0.3-1-0.4-1.6-0.3C408.7,121.5,408.3,121.8,408,122.3z"/>
		</g>
		<g>
			<path class="st6" d="M562.4,209l-13-0.8l0.4-5.7c0.1-1.2,0.2-2,0.5-2.6c0.3-0.6,0.7-1,1.3-1.4s1.3-0.5,2-0.4
				c0.9,0.1,1.7,0.4,2.3,1c0.6,0.6,0.9,1.6,1,2.8c0.2-0.4,0.5-0.8,0.7-1c0.5-0.5,1.1-0.9,1.8-1.3l3.7-2l-0.1,2.2l-2.8,1.5
				c-0.8,0.5-1.4,0.8-1.9,1.1c-0.4,0.3-0.7,0.6-0.9,0.8c-0.2,0.2-0.3,0.5-0.4,0.8c-0.1,0.2-0.1,0.5-0.1,1l-0.1,2l5.8,0.4L562.4,209z
				 M555.3,206.8l0.2-3.7c0-0.8,0-1.4-0.1-1.9c-0.1-0.5-0.4-0.8-0.7-1.1c-0.3-0.3-0.7-0.4-1.1-0.4c-0.6,0-1.1,0.2-1.6,0.6
				c-0.4,0.4-0.7,1.1-0.7,2.1l-0.3,4.1L555.3,206.8z"/>
			<path class="st6" d="M563.5,190.6l-0.1,1.6l-10.1-0.6c0.3,0.4,0.7,0.9,1,1.6c0.3,0.6,0.6,1.2,0.7,1.7l-1.5-0.1
				c-0.4-0.9-0.8-1.7-1.4-2.4c-0.6-0.7-1.1-1.2-1.6-1.5l0.1-1L563.5,190.6z"/>
			<path class="st6" d="M556.9,183.6c-0.3,0.6-0.7,1.1-1.1,1.4c-0.5,0.3-1,0.4-1.6,0.4c-0.9-0.1-1.7-0.4-2.3-1.2
				c-0.6-0.7-0.9-1.6-0.8-2.8c0.1-1.1,0.5-2,1.2-2.7c0.7-0.6,1.5-0.9,2.5-0.9c0.6,0,1.1,0.2,1.5,0.6c0.4,0.3,0.7,0.8,0.9,1.5
				c0.3-0.8,0.8-1.4,1.4-1.7c0.6-0.4,1.3-0.5,2.1-0.5c1.1,0.1,2,0.5,2.7,1.3c0.7,0.8,1,1.9,0.9,3.2c-0.1,1.3-0.5,2.3-1.3,3
				c-0.8,0.7-1.8,1.1-2.9,1c-0.8-0.1-1.5-0.3-2.1-0.8S557.1,184.4,556.9,183.6z M554.2,183.8c0.6,0,1.1-0.1,1.5-0.5
				c0.4-0.4,0.6-0.9,0.7-1.5c0-0.6-0.1-1.1-0.5-1.5c-0.4-0.4-0.8-0.6-1.4-0.7c-0.6,0-1.1,0.1-1.5,0.5c-0.4,0.4-0.7,0.9-0.7,1.5
				c0,0.6,0.1,1.1,0.5,1.5S553.7,183.8,554.2,183.8z M560.1,184.7c0.5,0,0.9-0.1,1.3-0.2c0.4-0.2,0.8-0.5,1-0.9
				c0.3-0.4,0.4-0.9,0.4-1.3c0-0.8-0.2-1.4-0.6-1.9c-0.5-0.5-1.1-0.8-1.8-0.9c-0.8,0-1.4,0.2-1.9,0.6c-0.5,0.5-0.8,1.1-0.9,1.9
				c0,0.7,0.2,1.4,0.6,1.9C558.8,184.3,559.4,184.6,560.1,184.7z"/>
			<path class="st6" d="M558,176.1c-1.5-0.1-2.8-0.3-3.7-0.7c-0.9-0.4-1.6-0.9-2.1-1.5c-0.5-0.7-0.7-1.5-0.6-2.4
				c0-0.7,0.2-1.3,0.5-1.8c0.3-0.5,0.7-0.9,1.3-1.2c0.5-0.3,1.2-0.5,2-0.7c0.8-0.1,1.8-0.2,3.1-0.1c1.5,0.1,2.7,0.3,3.7,0.7
				c0.9,0.4,1.6,0.9,2.1,1.5c0.5,0.7,0.7,1.5,0.6,2.4c-0.1,1.2-0.6,2.2-1.5,2.9C562.2,175.9,560.4,176.2,558,176.1z M558.1,174.4
				c2.1,0.1,3.6,0,4.3-0.5c0.7-0.5,1.1-1,1.2-1.8c0-0.7-0.3-1.4-0.9-1.9c-0.7-0.5-2.1-0.9-4.2-1c-2.1-0.1-3.6,0-4.3,0.5
				c-0.7,0.5-1.1,1.1-1.2,1.8c0,0.7,0.2,1.3,0.8,1.8C554.5,173.9,556,174.3,558.1,174.4z"/>
		</g>
		<g>
			<path class="st6" d="M587.4,284.1l7.4-10.7l4.7,3.3c1,0.7,1.6,1.2,2,1.8s0.5,1.1,0.5,1.8c0,0.7-0.3,1.3-0.7,1.9
				c-0.5,0.8-1.2,1.2-2.1,1.4c-0.8,0.2-1.8,0-3-0.6c0.2,0.4,0.4,0.8,0.5,1.1c0.2,0.7,0.2,1.4,0.2,2.2l-0.1,4.2l-1.8-1.2l0.1-3.2
				c0-0.9,0-1.7,0-2.2c0-0.5-0.1-0.9-0.2-1.2c-0.1-0.3-0.3-0.5-0.5-0.7c-0.1-0.1-0.4-0.3-0.8-0.6l-1.6-1.1l-3.3,4.8L587.4,284.1z
				 M592.9,279.1l3,2.1c0.6,0.4,1.2,0.7,1.7,0.8c0.5,0.1,0.9,0.1,1.3-0.1c0.4-0.2,0.7-0.4,0.9-0.8c0.3-0.5,0.5-1,0.3-1.6
				c-0.1-0.6-0.6-1.1-1.4-1.7l-3.4-2.3L592.9,279.1z"/>
		</g>
		<g>
			<path class="st6" d="M610,287.8l-1.4-0.8c0.2-0.6,0.3-1.1,0.3-1.5c-0.1-0.6-0.4-1.1-0.9-1.5c-0.4-0.3-0.9-0.4-1.3-0.4
				c-0.6,0-1.2,0.2-1.9,0.6c-0.6,0.4-1.3,1.2-2.1,2.2c0.6-0.3,1.3-0.4,1.9-0.3c0.6,0.1,1.2,0.3,1.7,0.6c0.9,0.6,1.4,1.4,1.6,2.5
				c0.2,1.1-0.1,2.1-0.8,3.1c-0.5,0.7-1,1.2-1.7,1.6c-0.7,0.4-1.4,0.5-2.1,0.5c-0.7,0-1.4-0.3-2-0.7c-1.1-0.8-1.7-1.8-1.8-3
				c-0.1-1.3,0.4-2.8,1.7-4.7c1.4-2.1,2.8-3.3,4.2-3.7c1.2-0.4,2.4-0.2,3.5,0.6c0.8,0.6,1.4,1.3,1.6,2.1
				C610.6,286,610.5,286.9,610,287.8z M601.5,288.7c-0.3,0.5-0.5,1-0.6,1.5c-0.1,0.5,0,1,0.2,1.5s0.5,0.8,0.9,1.1
				c0.6,0.4,1.2,0.5,1.9,0.3c0.7-0.2,1.3-0.6,1.9-1.4c0.5-0.7,0.7-1.5,0.6-2.2c-0.1-0.7-0.5-1.2-1.1-1.7c-0.6-0.4-1.2-0.5-1.9-0.4
				C602.5,287.6,602,288,601.5,288.7z"/>
		</g>
		<g>
			<path class="st6" d="M49.1,398.7c0-0.3,0-0.7-0.1-1.3c-0.1-0.9-0.5-1.8-1.1-2.5c-0.7-0.8-1.7-1.3-3.1-1.6v0.1
				c0.8,0.7,1.3,1.6,1.3,2.8c0,2.1-1.6,3.5-3.6,3.5c-2.2,0-4.2-1.6-4.2-4s2-3.9,5-3.9c2.6,0,4.4,0.9,5.5,2c0.9,0.9,1.4,2.2,1.6,3.4
				c0.1,0.6,0.1,1.1,0.1,1.5H49.1z M42.4,398.1c1.5,0,2.5-0.9,2.5-2.3c0-1.1-0.5-1.9-1.2-2.3c-0.1-0.1-0.3-0.1-0.6-0.1
				c-2,0-3.6,0.7-3.6,2.4C39.5,397.1,40.7,398.1,42.4,398.1z"/>
			<path class="st6" d="M48.4,389.9c0.3-0.5,0.7-1.5,0.7-2.6c0-2-1.3-2.7-2.3-2.7c-1.7,0-2.4,1.5-2.4,3v0.9h-1.2v-0.9
				c0-1.2-0.6-2.6-2-2.6c-0.9,0-1.8,0.6-1.8,2.1c0,0.9,0.4,1.9,0.8,2.4l-1.2,0.4c-0.5-0.6-0.9-1.8-0.9-3.1c0-2.3,1.4-3.4,2.8-3.4
				c1.2,0,2.2,0.7,2.8,2.2h0c0.3-1.5,1.4-2.6,3-2.6c1.9,0,3.5,1.5,3.5,4.3c0,1.3-0.4,2.5-0.8,3.1L48.4,389.9z"/>
			<path class="st6" d="M37.7,373.2c1.8,1.3,4.1,2.3,7.4,2.3c3.2,0,5.6-1,7.4-2.3v1.3c-1.5,1.1-3.8,2.4-7.4,2.4
				c-3.6,0-5.9-1.2-7.4-2.4V373.2z"/>
			<path class="st6" d="M48.4,371.6c0.3-0.5,0.7-1.5,0.7-2.6c0-2-1.3-2.7-2.3-2.7c-1.7,0-2.4,1.5-2.4,3v0.9h-1.2v-0.9
				c0-1.2-0.6-2.6-2-2.6c-0.9,0-1.8,0.6-1.8,2.1c0,0.9,0.4,1.9,0.8,2.4l-1.2,0.4c-0.5-0.6-0.9-1.8-0.9-3.1c0-2.3,1.4-3.4,2.8-3.4
				c1.2,0,2.2,0.7,2.8,2.2h0c0.3-1.5,1.4-2.6,3-2.6c1.9,0,3.5,1.5,3.5,4.3c0,1.3-0.4,2.5-0.8,3.1L48.4,371.6z"/>
			<path class="st6" d="M49.3,362.6c-0.7,0-1.1-0.5-1.1-1.1c0-0.6,0.5-1.1,1.1-1.1c0.7,0,1.1,0.4,1.1,1.1
				C50.5,362.1,50,362.6,49.3,362.6z"/>
			<path class="st6" d="M39.6,352.2c0,0.3,0,0.7,0.1,1.2c0.4,2.5,2.2,3.8,4.2,4.1v-0.1c-0.7-0.6-1.4-1.5-1.4-2.8
				c0-2.1,1.5-3.6,3.8-3.6c2.2,0,4.2,1.5,4.2,3.9c0,2.5-2,4.2-5,4.2c-2.3,0-4.2-0.8-5.3-2c-1-1-1.6-2.3-1.7-3.8
				c-0.1-0.5-0.1-0.9-0.1-1.2H39.6z M46.4,352.7c-1.7,0-2.7,1-2.7,2.4c0,1,0.6,1.9,1.5,2.3c0.2,0.1,0.4,0.2,0.7,0.2
				c1.9,0,3.4-0.9,3.4-2.6C49.2,353.6,48.1,352.7,46.4,352.7z"/>
			<path class="st6" d="M39.6,342.9c0,0.3,0,0.7,0.1,1.2c0.4,2.5,2.2,3.8,4.2,4.1v-0.1c-0.7-0.6-1.4-1.5-1.4-2.8
				c0-2.1,1.5-3.6,3.8-3.6c2.2,0,4.2,1.5,4.2,3.9c0,2.5-2,4.2-5,4.2c-2.3,0-4.2-0.8-5.3-2c-1-1-1.6-2.3-1.7-3.8
				c-0.1-0.5-0.1-0.9-0.1-1.2H39.6z M46.4,343.4c-1.7,0-2.7,1-2.7,2.4c0,1,0.6,1.9,1.5,2.3c0.2,0.1,0.4,0.2,0.7,0.2
				c1.9,0,3.4-0.9,3.4-2.6C49.2,344.3,48.1,343.4,46.4,343.4z"/>
			<path class="st6" d="M40,336.9L40,336.9l1.1,2.1l-1.2,0.3l-1.4-2.6v-1.4h11.8v1.5H40z"/>
			<path class="st6" d="M37.8,326.6l4.4,0.3v1l-4.4,0.3V326.6z M37.8,329.3l4.4,0.3v1l-4.4,0.3V329.3z"/>
			<path class="st6" d="M52.5,325.4c-1.8-1.3-4.2-2.3-7.4-2.3c-3.2,0-5.6,1-7.4,2.3v-1.2c1.5-1.2,3.8-2.4,7.4-2.4
				c3.6,0,5.9,1.2,7.4,2.4V325.4z"/>
		</g>
		<g>
			<path class="st6" d="M191.3,687.8v4.5l3,0.5c0-0.3-0.1-0.5-0.1-1c0-0.9,0.2-1.8,0.6-2.5c0.5-0.9,1.5-1.7,3-1.7c2.3,0,4,1.8,4,4.4
				c0,1.3-0.4,2.4-0.7,2.9l-1.2-0.4c0.3-0.5,0.7-1.5,0.7-2.5c0-1.5-1-2.8-2.6-2.8c-1.5,0-2.6,1-2.6,3.4c0,0.7,0.1,1.2,0.1,1.6
				l-5.7-0.8v-5.6H191.3z"/>
		</g>
		<g>
			<path class="st6" d="M467.2,24.1v-3.2h-5.5v-1.1l5.3-7.5h1.7v7.3h1.7v1.3h-1.7v3.2H467.2z M467.2,19.6v-3.9c0-0.6,0-1.2,0.1-1.9
				h-0.1c-0.4,0.7-0.7,1.2-1,1.7l-2.9,4v0H467.2z"/>
			<path class="st6" d="M471.9,22.3c0.5,0.3,1.5,0.7,2.6,0.7c2,0,2.7-1.3,2.7-2.3c0-1.7-1.5-2.4-3-2.4h-0.9v-1.2h0.9
				c1.2,0,2.6-0.6,2.6-2c0-0.9-0.6-1.8-2.1-1.8c-0.9,0-1.9,0.4-2.4,0.8L472,13c0.6-0.5,1.8-0.9,3.1-0.9c2.3,0,3.4,1.4,3.4,2.8
				c0,1.2-0.7,2.2-2.2,2.8v0c1.5,0.3,2.6,1.4,2.6,3c0,1.9-1.5,3.5-4.3,3.5c-1.3,0-2.5-0.4-3.1-0.8L471.9,22.3z"/>
			<path class="st6" d="M488.7,11.5c-1.3,1.8-2.3,4.1-2.3,7.4c0,3.2,1,5.6,2.3,7.4h-1.3c-1.1-1.5-2.4-3.8-2.4-7.4
				c0-3.6,1.2-5.9,2.4-7.4H488.7z"/>
			<path class="st6" d="M493.3,13.8L493.3,13.8l-2.1,1.1l-0.3-1.2l2.6-1.4h1.4v11.8h-1.5V13.8z"/>
			<path class="st6" d="M499.3,23.2c0-0.7,0.5-1.1,1.1-1.1c0.6,0,1.1,0.5,1.1,1.1c0,0.7-0.4,1.1-1.1,1.1
				C499.7,24.3,499.3,23.8,499.3,23.2z"/>
			<path class="st6" d="M509.7,13.4c-0.3,0-0.7,0-1.2,0.1c-2.5,0.4-3.8,2.2-4.1,4.2h0.1c0.6-0.7,1.5-1.4,2.8-1.4
				c2.1,0,3.6,1.5,3.6,3.8c0,2.2-1.5,4.2-3.9,4.2c-2.5,0-4.2-2-4.2-5c0-2.3,0.8-4.2,2-5.3c1-1,2.3-1.6,3.8-1.7
				c0.5-0.1,0.9-0.1,1.2-0.1V13.4z M509.2,20.2c0-1.7-1-2.7-2.4-2.7c-1,0-1.9,0.6-2.3,1.5c-0.1,0.2-0.2,0.4-0.2,0.7
				c0,1.9,0.9,3.4,2.6,3.4C508.3,23.1,509.2,21.9,509.2,20.2z"/>
			<path class="st6" d="M513.2,23c0.3,0,0.7,0,1.3-0.1c0.9-0.1,1.8-0.5,2.5-1.1c0.8-0.7,1.3-1.7,1.6-3.1h-0.1
				c-0.7,0.8-1.6,1.3-2.8,1.3c-2.1,0-3.5-1.6-3.5-3.6c0-2.2,1.6-4.2,4-4.2s3.9,2,3.9,5c0,2.6-0.9,4.4-2,5.5
				c-0.9,0.9-2.2,1.4-3.4,1.6c-0.6,0.1-1.1,0.1-1.5,0.1V23z M513.7,16.2c0,1.5,0.9,2.5,2.3,2.5c1.1,0,1.9-0.5,2.3-1.2
				c0.1-0.1,0.1-0.3,0.1-0.6c0-2-0.7-3.6-2.4-3.6C514.7,13.3,513.7,14.5,513.7,16.2z"/>
			<path class="st6" d="M521.9,22.3c0.5,0.3,1.5,0.7,2.6,0.7c2,0,2.7-1.3,2.7-2.3c0-1.7-1.5-2.4-3-2.4h-0.9v-1.2h0.9
				c1.2,0,2.6-0.6,2.6-2c0-0.9-0.6-1.8-2.1-1.8c-0.9,0-1.9,0.4-2.4,0.8l-0.4-1.2c0.6-0.5,1.8-0.9,3.1-0.9c2.3,0,3.4,1.4,3.4,2.8
				c0,1.2-0.7,2.2-2.2,2.8v0c1.5,0.3,2.6,1.4,2.6,3c0,1.9-1.5,3.5-4.3,3.5c-1.3,0-2.5-0.4-3.1-0.8L521.9,22.3z"/>
			<path class="st6" d="M532.5,11.7l-0.3,4.4h-1l-0.3-4.4H532.5z M535.2,11.7l-0.3,4.4h-1l-0.3-4.4H535.2z"/>
		</g>
		<g>
			<path class="st6" d="M536.6,26.3c1.3-1.8,2.3-4.2,2.3-7.4c0-3.2-1-5.6-2.3-7.4h1.2c1.2,1.5,2.4,3.8,2.4,7.4
				c0,3.6-1.2,5.9-2.4,7.4H536.6z"/>
		</g>
		<line class="st23" x1="481.1" y1="381.2" x2="518" y2="381.2"/>
		<polygon class="st8" points="484.3,385.7 466.6,381 484.3,376.2 		"/>
		<polygon class="st8" points="514.8,385.7 532.5,381 514.8,376.2 		"/>
		<line class="st17" x1="532" y1="381.1" x2="629.4" y2="381.1"/>
		<g>
			<path class="st6" d="M556.2,365.2L556.2,365.2l-2.1,1.1l-0.3-1.2l2.6-1.4l1.4,0l-0.1,11.8l-1.5,0L556.2,365.2z"/>
		</g>
		<g>
			<path class="st6" d="M569.8,369.5c0,4-1.5,6.2-4.1,6.2c-2.3,0-3.9-2.2-3.9-6.1c0-4,1.7-6.1,4.1-6.1
				C568.5,363.6,569.9,365.8,569.8,369.5z M563.4,369.7c0,3.1,0.9,4.8,2.4,4.8c1.6,0,2.4-1.9,2.4-4.9c0-2.9-0.7-4.8-2.4-4.8
				C564.5,364.8,563.5,366.5,563.4,369.7z"/>
		</g>
		<g>
			<path class="st6" d="M579.2,363c-1.3,1.8-2.3,4.1-2.3,7.4c0,3.2,1,5.6,2.2,7.4l-1.3,0c-1.1-1.5-2.4-3.8-2.3-7.4
				c0-3.6,1.3-5.9,2.4-7.4L579.2,363z"/>
		</g>
		<g>
			<path class="st6" d="M588.2,369.6c0,4-1.5,6.2-4.1,6.2c-2.3,0-3.9-2.2-3.9-6.1c0-4,1.7-6.1,4.1-6.1
				C586.8,363.7,588.2,365.9,588.2,369.6z M581.7,369.8c0,3.1,0.9,4.8,2.4,4.8c1.6,0,2.4-1.9,2.4-4.9c0-2.9-0.7-4.8-2.4-4.8
				C582.8,364.9,581.8,366.6,581.7,369.8z"/>
		</g>
		<g>
			<path class="st6" d="M589.7,374.7c0-0.7,0.5-1.1,1.1-1.1c0.6,0,1.1,0.5,1.1,1.1c0,0.7-0.4,1.1-1.1,1.1
				C590.1,375.9,589.7,375.4,589.7,374.7z"/>
			<path class="st6" d="M593.7,373.9c0.5,0.3,1.5,0.8,2.6,0.8c2,0,2.7-1.3,2.7-2.3c0-1.7-1.5-2.4-3-2.4l-0.9,0l0-1.2l0.9,0
				c1.2,0,2.6-0.6,2.6-2c0-0.9-0.6-1.8-2.1-1.8c-0.9,0-1.9,0.4-2.4,0.8l-0.4-1.2c0.6-0.5,1.8-0.9,3.1-0.9c2.3,0,3.4,1.4,3.4,2.8
				c0,1.2-0.7,2.2-2.2,2.8v0c1.4,0.3,2.6,1.4,2.6,3c0,1.9-1.5,3.5-4.3,3.5c-1.3,0-2.5-0.4-3.1-0.8L593.7,373.9z"/>
		</g>
		<g>
			<path class="st6" d="M603.6,374.6c0.3,0,0.7,0,1.3,0c0.9-0.1,1.8-0.5,2.5-1.1c0.8-0.7,1.4-1.7,1.6-3.1h-0.1
				c-0.7,0.8-1.6,1.3-2.8,1.3c-2.1,0-3.5-1.6-3.5-3.6c0-2.2,1.6-4.2,4.1-4.2s3.9,2,3.9,5c0,2.6-0.9,4.4-2.1,5.5
				c-0.9,0.9-2.2,1.4-3.4,1.6c-0.6,0.1-1.1,0.1-1.5,0.1L603.6,374.6z M604.2,367.9c0,1.5,0.9,2.5,2.3,2.5c1.1,0,1.9-0.5,2.3-1.2
				c0.1-0.1,0.1-0.3,0.1-0.6c0-2-0.7-3.6-2.4-3.6C605.2,365,604.2,366.2,604.2,367.9z"/>
		</g>
		<g>
			<path class="st6" d="M616.9,375.8l0-3.2l-5.5,0l0-1.1l5.3-7.5l1.7,0l0,7.3l1.7,0l0,1.3l-1.7,0l0,3.2L616.9,375.8z M616.9,371.4
				l0-3.9c0-0.6,0-1.2,0.1-1.9l-0.1,0c-0.4,0.7-0.7,1.2-1,1.7l-2.9,4v0L616.9,371.4z"/>
		</g>
		<g>
			<path class="st6" d="M623.1,363.4l-0.3,4.4l-1,0l-0.3-4.4L623.1,363.4z M625.8,363.5l-0.3,4.4l-1,0l-0.3-4.4L625.8,363.5z"/>
			<path class="st6" d="M627,378.1c1.3-1.8,2.3-4.1,2.3-7.4c0-3.2-0.9-5.6-2.2-7.4l1.2,0c1.2,1.5,2.4,3.8,2.3,7.4
				c0,3.6-1.2,5.9-2.4,7.4L627,378.1z"/>
		</g>
		<g>
			<path class="st6" d="M462.1,756.6c0-1.5,0.9-2.5,2.3-3.2l0-0.1c-1.3-0.6-1.9-1.6-1.9-2.6c0-1.9,1.6-3.1,3.6-3.1
				c2.3,0,3.4,1.4,3.4,2.9c0,1-0.5,2.1-1.9,2.8v0.1c1.5,0.6,2.4,1.6,2.4,3c0,2-1.8,3.4-4,3.4C463.6,759.8,462.1,758.3,462.1,756.6z
				 M468.5,756.5c0-1.4-1-2.1-2.6-2.6c-1.4,0.4-2.1,1.3-2.1,2.4c-0.1,1.2,0.9,2.2,2.4,2.2C467.5,758.6,468.5,757.7,468.5,756.5z
				 M464.1,750.6c0,1.2,0.9,1.8,2.2,2.2c1-0.3,1.8-1.1,1.8-2.1c0-0.9-0.6-1.9-2-1.9C464.8,748.7,464.1,749.6,464.1,750.6z"/>
			<path class="st6" d="M471.6,759.6v-1l1.3-1.2c3-2.9,4.4-4.4,4.4-6.2c0-1.2-0.6-2.3-2.3-2.3c-1.1,0-2,0.5-2.5,1l-0.5-1.1
				c0.8-0.7,2-1.2,3.3-1.2c2.5,0,3.6,1.7,3.6,3.4c0,2.2-1.6,3.9-4.1,6.3l-0.9,0.9v0h5.3v1.3H471.6z"/>
			<path class="st6" d="M488.7,747c-1.3,1.8-2.3,4.1-2.3,7.4c0,3.2,1,5.6,2.3,7.4h-1.3c-1.1-1.5-2.4-3.8-2.4-7.4
				c0-3.6,1.2-5.9,2.4-7.4H488.7z"/>
			<path class="st6" d="M490.2,757.7c0.5,0.3,1.5,0.7,2.6,0.7c2,0,2.7-1.3,2.7-2.3c0-1.7-1.5-2.4-3-2.4h-0.9v-1.2h0.9
				c1.2,0,2.6-0.6,2.6-2c0-0.9-0.6-1.8-2.1-1.8c-0.9,0-1.9,0.4-2.4,0.8l-0.4-1.2c0.6-0.5,1.8-0.9,3.1-0.9c2.3,0,3.4,1.4,3.4,2.8
				c0,1.2-0.7,2.2-2.2,2.8v0c1.5,0.3,2.6,1.4,2.6,3c0,1.9-1.5,3.5-4.3,3.5c-1.3,0-2.5-0.4-3.1-0.8L490.2,757.7z"/>
			<path class="st6" d="M499.3,758.6c0-0.7,0.5-1.1,1.1-1.1c0.6,0,1.1,0.5,1.1,1.1c0,0.7-0.4,1.1-1.1,1.1
				C499.7,759.8,499.3,759.3,499.3,758.6z"/>
			<path class="st6" d="M502.9,759.6v-1l1.3-1.2c3-2.9,4.4-4.4,4.4-6.2c0-1.2-0.6-2.3-2.3-2.3c-1.1,0-2,0.5-2.5,1l-0.5-1.1
				c0.8-0.7,2-1.2,3.3-1.2c2.5,0,3.6,1.7,3.6,3.4c0,2.2-1.6,3.9-4.1,6.3l-0.9,0.9v0h5.3v1.3H502.9z"/>
			<path class="st6" d="M512.2,759.6v-1l1.3-1.2c3-2.9,4.4-4.4,4.4-6.2c0-1.2-0.6-2.3-2.3-2.3c-1.1,0-2,0.5-2.5,1l-0.5-1.1
				c0.8-0.7,2-1.2,3.3-1.2c2.5,0,3.6,1.7,3.6,3.4c0,2.2-1.6,3.9-4.1,6.3l-0.9,0.9v0h5.3v1.3H512.2z"/>
			<path class="st6" d="M521.4,756.6c0-1.5,0.9-2.5,2.3-3.2l0-0.1c-1.3-0.6-1.9-1.6-1.9-2.6c0-1.9,1.6-3.1,3.6-3.1
				c2.3,0,3.4,1.4,3.4,2.9c0,1-0.5,2.1-1.9,2.8v0.1c1.5,0.6,2.4,1.6,2.4,3c0,2-1.8,3.4-4,3.4C522.9,759.8,521.4,758.3,521.4,756.6z
				 M527.7,756.5c0-1.4-1-2.1-2.6-2.6c-1.4,0.4-2.1,1.3-2.1,2.4c-0.1,1.2,0.9,2.2,2.4,2.2C526.8,758.6,527.7,757.7,527.7,756.5z
				 M523.3,750.6c0,1.2,0.9,1.8,2.2,2.2c1-0.3,1.8-1.1,1.8-2.1c0-0.9-0.6-1.9-2-1.9C524.1,748.7,523.3,749.6,523.3,750.6z"/>
			<path class="st6" d="M532.5,747.1l-0.3,4.4h-1l-0.3-4.4H532.5z M535.2,747.1l-0.3,4.4h-1l-0.3-4.4H535.2z"/>
		</g>
		<g>
			<path class="st6" d="M512.5,731.2V726l-3.9-7h1.8l1.7,3.4c0.5,0.9,0.8,1.7,1.2,2.5h0c0.3-0.8,0.8-1.6,1.2-2.5l1.8-3.4h1.8l-4.1,7
				v5.2H512.5z"/>
		</g>
		<g>
			<path class="st6" d="M512.5,80.2V75l-3.9-7h1.8l1.7,3.4c0.5,0.9,0.8,1.7,1.2,2.5h0c0.3-0.8,0.8-1.6,1.2-2.5l1.8-3.4h1.8l-4.1,7
				v5.2H512.5z"/>
		</g>
		<g>
			<path class="st6" d="M536.6,761.8c1.3-1.8,2.3-4.2,2.3-7.4c0-3.2-1-5.6-2.3-7.4h1.2c1.2,1.5,2.4,3.8,2.4,7.4
				c0,3.6-1.2,5.9-2.4,7.4H536.6z"/>
		</g>
		<line class="st17" x1="241.8" y1="766" x2="759.4" y2="766"/>
		<polygon class="st8" points="245,770.6 227.3,765.8 245,761.1 		"/>
		<polygon class="st8" points="756.1,770.6 773.8,765.8 756.1,761.1 		"/>
		<line class="st24" x1="500.5" y1="731.2" x2="499.7" y2="63"/>
		<g>
			<path class="st6" d="M736,183.3h1.5v8.6c-0.4,0-0.8-0.1-1.1-0.2c-0.6-0.2-1.2-0.6-1.7-1c-0.6-0.5-1.2-1.2-2-2.1
				c-1.2-1.4-2.1-2.4-2.7-2.9c-0.7-0.5-1.3-0.7-1.9-0.7c-0.6,0-1.2,0.2-1.6,0.7c-0.4,0.5-0.7,1-0.7,1.8c0,0.8,0.2,1.4,0.7,1.8
				c0.5,0.5,1.1,0.7,1.9,0.7l-0.2,1.6c-1.2-0.1-2.2-0.5-2.8-1.3c-0.6-0.7-1-1.7-1-2.9c0-1.2,0.3-2.2,1-3c0.7-0.7,1.5-1.1,2.6-1.1
				c0.5,0,1,0.1,1.5,0.3c0.5,0.2,1,0.6,1.6,1.1c0.6,0.5,1.3,1.3,2.3,2.5c0.8,1,1.3,1.6,1.6,1.8c0.3,0.3,0.6,0.5,0.9,0.7V183.3z"/>
			<path class="st6" d="M734.2,181.6l-0.1-1.7c0.8-0.1,1.4-0.4,1.8-0.9s0.6-1,0.6-1.6c0-0.8-0.3-1.4-0.9-1.9
				c-0.6-0.5-1.3-0.8-2.3-0.8c-0.9,0-1.6,0.3-2.2,0.8c-0.5,0.5-0.8,1.2-0.8,2c0,0.5,0.1,1,0.4,1.4c0.2,0.4,0.5,0.7,0.9,1l-0.2,1.5
				l-6.7-1.3v-6.5h1.5v5.2l3.5,0.7c-0.5-0.8-0.8-1.6-0.8-2.5c0-1.1,0.4-2.1,1.2-2.9s1.8-1.2,3-1.2c1.2,0,2.2,0.3,3,1
				c1.1,0.8,1.6,2,1.6,3.4c0,1.2-0.3,2.1-1,2.9C736.1,181.1,735.3,181.5,734.2,181.6z"/>
			<path class="st6" d="M737.6,170.6h-1.8v-1.8h1.8V170.6z"/>
			<path class="st6" d="M737.6,161.4h-3.1v5.6H733l-8.4-5.9v-1.3h8.4V158h1.5v1.8h3.1V161.4z M733,161.4h-5.9l5.9,4.1V161.4z"/>
			<path class="st6" d="M731.2,156.4c-1.5,0-2.8-0.2-3.7-0.5c-0.9-0.3-1.7-0.8-2.2-1.4c-0.5-0.6-0.8-1.4-0.8-2.4
				c0-0.7,0.1-1.3,0.4-1.8c0.3-0.5,0.7-1,1.2-1.3c0.5-0.3,1.2-0.6,1.9-0.8c0.8-0.2,1.8-0.3,3.1-0.3c1.5,0,2.8,0.2,3.7,0.5
				c0.9,0.3,1.7,0.8,2.2,1.4c0.5,0.6,0.8,1.4,0.8,2.4c0,1.3-0.4,2.2-1.3,2.9C735.4,156,733.6,156.4,731.2,156.4z M731.2,154.7
				c2.1,0,3.5-0.2,4.3-0.7s1.1-1.1,1.1-1.8c0-0.7-0.4-1.3-1.1-1.8s-2.1-0.7-4.3-0.7c-2.1,0-3.6,0.2-4.3,0.7s-1.1,1.1-1.1,1.9
				c0,0.7,0.3,1.3,0.9,1.8C727.6,154.5,729,154.7,731.2,154.7z"/>
		</g>
		<line class="st25" x1="743.3" y1="241.3" x2="743.3" y2="100.5"/>
		<polygon class="st6" points="747.9,238.1 743.2,255.8 738.4,238.1 		"/>
		<polygon class="st6" points="747.9,103.7 743.2,86 738.4,103.7 		"/>
		<g>
			<path class="st6" d="M668.9,151.7h1.5v8.6c-0.4,0-0.8-0.1-1.1-0.2c-0.6-0.2-1.2-0.6-1.7-1c-0.6-0.5-1.2-1.2-2-2.1
				c-1.2-1.4-2.1-2.4-2.7-2.9c-0.7-0.5-1.3-0.7-1.9-0.7c-0.6,0-1.2,0.2-1.6,0.7c-0.4,0.5-0.7,1-0.7,1.8c0,0.8,0.2,1.4,0.7,1.8
				c0.5,0.5,1.1,0.7,1.9,0.7l-0.2,1.6c-1.2-0.1-2.2-0.5-2.8-1.3c-0.6-0.7-1-1.7-1-2.9c0-1.2,0.3-2.2,1-3c0.7-0.7,1.5-1.1,2.6-1.1
				c0.5,0,1,0.1,1.5,0.3c0.5,0.2,1,0.6,1.6,1.1c0.6,0.5,1.3,1.3,2.3,2.5c0.8,1,1.3,1.6,1.6,1.8c0.3,0.3,0.6,0.5,0.9,0.7V151.7z"/>
			<path class="st6" d="M664,150c-1.5,0-2.8-0.2-3.7-0.5c-0.9-0.3-1.7-0.8-2.2-1.4c-0.5-0.6-0.8-1.4-0.8-2.4c0-0.7,0.1-1.3,0.4-1.8
				c0.3-0.5,0.7-1,1.2-1.3c0.5-0.3,1.2-0.6,1.9-0.8c0.8-0.2,1.8-0.3,3.1-0.3c1.5,0,2.8,0.2,3.7,0.5c0.9,0.3,1.7,0.8,2.2,1.4
				c0.5,0.6,0.8,1.4,0.8,2.4c0,1.3-0.4,2.2-1.3,2.9C668.2,149.6,666.4,150,664,150z M664,148.4c2.1,0,3.5-0.2,4.3-0.7
				s1.1-1.1,1.1-1.8c0-0.7-0.4-1.3-1.1-1.8s-2.1-0.7-4.3-0.7c-2.1,0-3.6,0.2-4.3,0.7s-1.1,1.1-1.1,1.9c0,0.7,0.3,1.3,0.9,1.8
				C660.4,148.1,661.9,148.4,664,148.4z"/>
		</g>
		<line class="st25" x1="676.2" y1="205.6" x2="676.2" y2="100.5"/>
		<polygon class="st6" points="680.7,202.3 676,220 671.2,202.3 		"/>
		<polygon class="st6" points="680.7,103.7 676,86 671.2,103.7 		"/>
		<g>
			<path class="st6" d="M145.5,666.7v1.6h-10.2c0.4,0.4,0.7,0.9,1.1,1.5c0.4,0.6,0.6,1.2,0.8,1.7h-1.5c-0.4-0.9-0.9-1.7-1.5-2.3
				s-1.2-1.1-1.7-1.4v-1H145.5z"/>
			<path class="st6" d="M142.1,662.6L142,661c0.8-0.1,1.4-0.4,1.8-0.9c0.4-0.5,0.6-1,0.6-1.6c0-0.8-0.3-1.4-0.9-1.9
				s-1.3-0.8-2.3-0.8c-0.9,0-1.6,0.3-2.2,0.8c-0.5,0.5-0.8,1.2-0.8,2c0,0.5,0.1,1,0.3,1.4c0.2,0.4,0.5,0.7,0.9,1l-0.2,1.5l-6.7-1.3
				v-6.5h1.5v5.2l3.5,0.7c-0.5-0.8-0.8-1.6-0.8-2.5c0-1.1,0.4-2.1,1.2-2.9s1.8-1.2,3-1.2c1.2,0,2.2,0.3,3,1c1.1,0.8,1.6,2,1.6,3.4
				c0,1.2-0.3,2.1-1,2.9C144.1,662.1,143.2,662.5,142.1,662.6z"/>
			<path class="st6" d="M145.5,651.7h-1.8v-1.8h1.8V651.7z"/>
		</g>
		<g>
			<path class="st6" d="M144,639.1h1.5v8.6c-0.4,0-0.8-0.1-1.1-0.2c-0.6-0.2-1.2-0.6-1.7-1c-0.6-0.5-1.2-1.2-2-2.1
				c-1.2-1.4-2.1-2.4-2.7-2.9s-1.3-0.7-1.9-0.7c-0.6,0-1.2,0.2-1.6,0.7c-0.4,0.5-0.7,1-0.7,1.8c0,0.8,0.2,1.4,0.7,1.8
				c0.5,0.5,1.1,0.7,1.9,0.7l-0.2,1.6c-1.2-0.1-2.2-0.5-2.8-1.3c-0.6-0.7-1-1.7-1-2.9c0-1.2,0.3-2.2,1-3c0.7-0.7,1.5-1.1,2.6-1.1
				c0.5,0,1,0.1,1.5,0.3c0.5,0.2,1,0.6,1.6,1.1s1.3,1.3,2.3,2.5c0.8,1,1.3,1.6,1.6,1.8c0.3,0.3,0.6,0.5,0.9,0.7V639.1z"/>
		</g>
		<line class="st26" x1="151.3" y1="693.2" x2="151.3" y2="617.3"/>
		<polygon class="st6" points="155.2,690.4 151.1,705.8 147,690.4 		"/>
		<polygon class="st6" points="155.2,620.1 151.1,604.7 147,620.1 		"/>
		<line class="st26" x1="200.5" y1="667.1" x2="200.5" y2="639.7"/>
		<polygon class="st8" points="204.5,660.2 200.2,675.7 196,660.2 		"/>
		<polygon class="st27" points="204.5,660.2 200.2,675.7 196,660.2 		"/>
		<line class="st26" x1="200" y1="715.1" x2="200" y2="742.5"/>
		<polygon class="st8" points="196,722 200.3,706.5 204.5,722 		"/>
		<polygon class="st27" points="196,722 200.3,706.5 204.5,722 		"/>
	</g>
</g>
<g id="Watermark">
	<g>
		<rect x="438.5" y="641.1" class="st0" width="123.1" height="46.3"/>
		<g>
			<rect x="444.9" y="648.9" class="st106" width="62.9" height="30.6"/>
			<rect x="507.7" y="648.9" class="st106" width="47.4" height="30.6"/>
			<g>
				<path class="st107" d="M466.5,655l-2.8,18.9H461l-1.6-11l-1.5,11h-2.7l-2.8-18.9h2.5l1.8,14.2l1.8-14.2h2l1.8,14.2L464,655
					H466.5z"/>
				<path class="st107" d="M467.9,673.9V655h2.5v18.9H467.9z"/>
				<path class="st107" d="M472.8,655h5c1.9,0,2.9,1.1,2.9,3.2v4.7c0,1.7-0.5,2.7-1.5,3.1l1.8,7.9h-2.4l-1.7-7.6h-1.5v7.6h-2.5V655z
					 M475.4,664.1h1.7c0.8,0,1.1-0.5,1.1-1.4v-4.1c0-0.9-0.4-1.4-1.1-1.4h-1.7V664.1z"/>
				<path class="st107" d="M486.8,657.3v16.6h-2.5v-16.6h-2.4V655h7.4v2.3H486.8z"/>
				<path class="st107" d="M496.3,673.9v-8.6h-3.1v8.6h-2.5V655h2.5v8h3.1v-8h2.5v18.9H496.3z"/>
			</g>
			<g>
				<path class="st107" d="M516.3,655h5c1.9,0,2.9,1.1,2.9,3.2v4.7c0,1.7-0.5,2.7-1.5,3.1l1.8,7.9H522l-1.7-7.6h-1.5v7.6h-2.5V655z
					 M518.8,664.1h1.7c0.8,0,1.1-0.5,1.1-1.4v-4.1c0-0.9-0.4-1.4-1.1-1.4h-1.7V664.1z"/>
				<path class="st107" d="M528.7,673.9h-2.5v-15.7c0-2.2,1-3.2,3-3.2h1.9c2,0,3,1.1,3,3.2v15.7h-2.5V667h-2.9V673.9z M531.6,664.7
					v-6.3c0-0.7-0.4-1.1-1.1-1.1h-0.7c-0.7,0-1.1,0.4-1.1,1.1v6.3H531.6z"/>
				<path class="st107" d="M536.3,673.9V655h2.5v18.9H536.3z"/>
				<path class="st107" d="M547.2,673.9h-6V655h2.5v16.6h3.5V673.9z"/>
			</g>
		</g>
	</g>
</g>
</svg>
