<?xml version="1.0" encoding="utf-8"?>
<!-- Generator: Adobe Illustrator 25.2.3, SVG Export Plug-In . SVG Version: 6.00 Build 0)  -->
<svg version="1.1" xmlns="http://www.w3.org/2000/svg" xmlns:xlink="http://www.w3.org/1999/xlink" x="0px" y="0px"
	 viewBox="0 0 1000 800" style="enable-background:new 0 0 1000 800;" xml:space="preserve">
<style type="text/css">
	.st0{fill:#F0F0F0;}
	.st1{fill:none;stroke:#221E1F;stroke-width:1.2032;}
	.st2{fill:none;stroke:#221E1F;stroke-width:1.0736;}
	.st3{fill:none;stroke:#221E1F;stroke-width:1.2032;stroke-miterlimit:10;}
	.st4{fill:none;stroke:#221E1F;stroke-width:1.0736;stroke-linecap:round;stroke-linejoin:round;stroke-miterlimit:10;}
	.st5{fill:none;stroke:#221E1F;stroke-width:1.0736;stroke-miterlimit:10;}
	.st6{fill:#303030;}
	.st7{fill:none;stroke:#221E1F;stroke-width:1.2032;stroke-linecap:round;stroke-linejoin:round;}
	.st8{fill:#221E1F;}
	.st9{fill:none;stroke:#221E1F;stroke-width:1.2032;stroke-dasharray:15.0983,4.5412;}
	.st10{fill:none;stroke:#221E1F;stroke-width:1.327;}
	.st11{fill:none;stroke:#221E1F;stroke-width:1.327;stroke-miterlimit:10;}
	.st12{fill:none;stroke:#221E1F;stroke-width:1.5312;stroke-miterlimit:10;}
	.st13{fill:none;stroke:#221E1F;stroke-width:1.327;stroke-linecap:round;stroke-linejoin:round;}
	.st14{fill:none;stroke:#221E1F;stroke-width:1.327;stroke-dasharray:16.5574,4.9134;}
	.st15{fill:none;stroke:#221E1F;stroke-width:1.1875;stroke-linecap:round;stroke-linejoin:round;}
	.st16{fill:none;stroke:#221E1F;stroke-width:1.1875;stroke-miterlimit:10;}
	.st17{fill:none;stroke:#221E1F;stroke-width:1.0882;}
	.st18{fill:none;stroke:#221E1F;stroke-width:1.0882;stroke-miterlimit:10;}
	.st19{fill:none;stroke:#221E1F;stroke-width:1.01;stroke-linecap:round;stroke-linejoin:round;stroke-miterlimit:10;}
	.st20{fill:none;stroke:#221E1F;stroke-width:1.0268;stroke-linecap:round;stroke-linejoin:round;stroke-miterlimit:10;}
	.st21{fill:none;stroke:#221E1F;stroke-width:1.0268;}
	.st22{fill:none;stroke:#221E1F;stroke-width:1.0882;stroke-linecap:round;stroke-linejoin:round;stroke-miterlimit:10;}
	.st23{fill:none;stroke:#221E1F;stroke-width:1.0882;stroke-linecap:round;stroke-linejoin:round;}
	.st24{fill:none;stroke:#221E1F;stroke-width:1.0882;stroke-dasharray:13.6188,4.0709;}
	.st25{fill:none;stroke:#303030;stroke-width:1.0882;stroke-miterlimit:10;}
	.st26{fill:none;stroke:#303030;stroke-width:0.9459;stroke-miterlimit:10;}
	.st27{fill:none;stroke:#303030;stroke-width:0.625;stroke-miterlimit:10;}
	.st28{fill:none;stroke:#221E1F;stroke-width:1.2065;}
	.st29{fill:none;stroke:#221E1F;stroke-width:1.058;stroke-miterlimit:10;}
	.st30{fill:none;stroke:#221E1F;stroke-width:1.2065;stroke-miterlimit:10;}
	.st31{fill:none;stroke:#221E1F;stroke-width:1.2065;stroke-dasharray:15.1403,4.5538;}
	.st32{fill:none;stroke:#221E1F;stroke-width:1.2065;stroke-linecap:round;stroke-linejoin:round;}
	.st33{fill:none;stroke:#221E1F;stroke-width:1.0363;}
	.st34{fill:none;stroke:#221E1F;stroke-width:1.0363;stroke-miterlimit:10;}
	.st35{fill:none;stroke:#221E1F;stroke-width:1.0536;stroke-linecap:round;stroke-linejoin:round;stroke-miterlimit:10;}
	.st36{fill:none;stroke:#221E1F;stroke-width:1.0536;stroke-miterlimit:10;}
	.st37{fill:none;stroke:#221E1F;stroke-width:1.0363;stroke-linecap:round;stroke-linejoin:round;}
	.st38{fill:none;stroke:#221E1F;stroke-width:1.0363;stroke-dasharray:14.1142,4.2633;}
	.st39{fill:none;stroke:#221E1F;stroke-width:1.0394;}
	.st40{fill:none;stroke:#221E1F;stroke-width:1.1318;stroke-linecap:round;stroke-linejoin:round;stroke-miterlimit:10;}
	.st41{fill:none;stroke:#221E1F;stroke-width:1.0394;stroke-miterlimit:10;}
	.st42{fill:none;stroke:#221E1F;stroke-width:1.1318;stroke-miterlimit:10;}
	.st43{fill:none;stroke:#221E1F;stroke-width:1.0394;stroke-dasharray:14.096,4.2184;}
	.st44{fill:none;stroke:#221E1F;stroke-width:0.9644;stroke-linecap:round;stroke-linejoin:round;}
	.st45{fill:none;stroke:#221E1F;stroke-width:1.0394;stroke-linecap:round;stroke-linejoin:round;}
	.st46{fill:none;stroke:#221E1F;stroke-width:1.0394;stroke-dasharray:28.8705,8.4195;}
	.st47{fill:none;stroke:#221E1F;stroke-width:1.0394;stroke-dasharray:30.1958,9.7419;}
	.st48{fill:none;stroke:#221E1F;stroke-width:1.1834;}
	.st49{fill:none;stroke:#221E1F;stroke-width:1.1834;stroke-dasharray:22.2172,9.0331;}
	.st50{fill:none;stroke:#221E1F;stroke-width:1.1834;stroke-dasharray:22.205,9.024;}
	.st51{fill:none;stroke:#221E1F;stroke-width:1.1834;stroke-dasharray:22.2172,9.0362;}
	.st52{fill:none;stroke:#221E1F;stroke-width:1.1834;stroke-dasharray:22.205,9.021;}
	.st53{fill:none;stroke:#221E1F;stroke-width:1.1834;stroke-dasharray:14.8529,4.4695;}
	.st54{fill:none;stroke:#221E1F;stroke-width:1.1834;stroke-linecap:round;stroke-linejoin:round;}
	.st55{fill:none;stroke:#221E1F;stroke-width:0.9791;}
	.st56{fill:none;stroke:#221E1F;stroke-width:1.2076;}
	.st57{fill:none;stroke:#221E1F;stroke-width:1.2076;stroke-dasharray:17.3391,6.3726;}
	.st58{fill:none;stroke:#221E1F;stroke-width:1.2076;stroke-dasharray:17.3363,6.3726;}
	.st59{fill:none;stroke:#221E1F;stroke-width:0.9791;stroke-dasharray:17.5349,5.1568;}
	.st60{fill:none;stroke:#303030;stroke-width:0.9791;}
	.st61{fill:none;stroke:#221E1F;stroke-width:0.8976;stroke-linecap:round;stroke-linejoin:round;}
	.st62{fill:none;stroke:#241F21;stroke-width:0.9771;}
	
		.st63{fill:none;stroke:#241F21;stroke-width:0.9771;stroke-linecap:round;stroke-linejoin:round;stroke-miterlimit:1;stroke-dasharray:16.5466,16.5466;}
	
		.st64{fill:none;stroke:#241F21;stroke-width:0.9771;stroke-linecap:round;stroke-linejoin:round;stroke-miterlimit:1;stroke-dasharray:17.1257,17.1257;}
	
		.st65{fill:none;stroke:#241F21;stroke-width:0.9771;stroke-linecap:round;stroke-linejoin:round;stroke-miterlimit:1;stroke-dasharray:16.5967,16.5967;}
	.st66{fill:none;stroke:#241F21;stroke-width:0.9771;stroke-linecap:round;stroke-linejoin:round;stroke-miterlimit:1;}
	.st67{fill:#241F21;}
	.st68{fill:none;stroke:#241F21;stroke-width:0.7626;stroke-linecap:round;stroke-linejoin:round;stroke-miterlimit:1;}
	.st69{fill:none;stroke:#221E1F;stroke-width:1.2516;}
	.st70{fill:none;stroke:#221E1F;stroke-width:1.2516;stroke-miterlimit:10;}
	.st71{fill:none;stroke:#221E1F;stroke-width:0.6258;}
	.st72{fill:none;stroke:#221E1F;stroke-width:0.6258;stroke-dasharray:18.3883,4.6234;}
	.st73{fill:none;stroke:#221E1F;stroke-width:0.6258;stroke-dasharray:21.5524,17.6199;}
	.st74{fill:none;stroke:#221E1F;stroke-width:0.6258;stroke-dasharray:20.1706,6.4056;}
	.st75{fill:none;stroke:#221E1F;stroke-width:0.9654;}
	.st76{fill:none;stroke:#303030;stroke-width:0.9654;}
	.st77{fill:none;stroke:#303030;stroke-width:0.9017;}
	.st78{fill:none;stroke:#303030;stroke-width:0.9654;stroke-dasharray:14.0607,4.2416;}
	.st79{fill:none;stroke:#303030;stroke-width:0.9654;stroke-dasharray:13.938,4.1189;}
	.st80{fill:none;stroke:#303030;stroke-width:0.9654;stroke-dasharray:14.3912,4.5697;}
	.st81{fill:none;stroke:#303030;stroke-width:0.9654;stroke-dasharray:14.7358,4.9143;}
	.st82{fill:none;stroke:#221E1F;stroke-width:0.9654;stroke-dasharray:15.4321,4.6901;}
	.st83{fill:none;stroke:#221E1F;stroke-width:0.9654;stroke-linecap:round;stroke-linejoin:round;}
	.st84{fill:none;stroke:#303030;stroke-width:0.8686;stroke-miterlimit:10;}
	.st85{fill:none;stroke:#303030;stroke-width:0.9654;stroke-miterlimit:10;}
	.st86{fill:none;stroke:#221E1F;stroke-width:2.6151;}
	.st87{fill:none;stroke:#221E1F;stroke-width:1.816;}
	.st88{fill:none;stroke:#221E1F;stroke-width:1.816;stroke-dasharray:21.5996,5.873;}
	.st89{fill:none;stroke:#221E1F;stroke-width:1.816;stroke-dasharray:21.596,5.8693;}
	.st90{fill:none;stroke:#221E1F;stroke-width:1.816;stroke-dasharray:45.6036,34.3698;}
	.st91{fill:none;stroke:#221E1F;stroke-width:1.816;stroke-dasharray:45.5927,34.3589;}
	.st92{fill:none;stroke:#221E1F;stroke-width:1.816;stroke-dasharray:21.596,5.873;}
	.st93{fill:none;stroke:#221E1F;stroke-width:2.158;}
	.st94{fill:none;stroke:#221E1F;stroke-width:1.4986;}
	.st95{fill:none;stroke:#221E1F;stroke-width:1.4986;stroke-dasharray:19.9046,5.413;}
	.st96{fill:none;stroke:#221E1F;stroke-width:1.4986;stroke-dasharray:19.9016,5.41;}
	.st97{fill:none;stroke:#221E1F;stroke-width:1.4986;stroke-dasharray:35.6909,25.3385;}
	.st98{fill:none;stroke:#221E1F;stroke-width:0.8673;}
	.st99{fill:none;stroke:#303030;stroke-width:0.9125;stroke-miterlimit:10;}
	.st100{fill:none;stroke:#303030;stroke-width:8.808669e-02;stroke-linecap:round;stroke-linejoin:round;stroke-miterlimit:10;}
	.st101{fill:none;stroke:#303030;stroke-width:0.8786;stroke-miterlimit:10;}
	.st102{fill:none;stroke:#303030;stroke-width:0.8786;}
	.st103{fill:none;stroke:#221E1F;stroke-width:0.9125;}
	.st104{fill:none;stroke:#221E1F;stroke-width:0.9125;stroke-dasharray:15.7291,4.7273;}
	.st105{fill:none;stroke:#221E1F;stroke-width:0.9125;stroke-linecap:round;stroke-linejoin:round;}
	.st106{fill:#F0F0F0;stroke:#CCCCCC;stroke-miterlimit:10;}
	.st107{fill:#CCCCCC;}
</style>
<g id="Flat">
	<g>
		<polygon class="st0" points="623.2,213.7 627.2,212.3 630.9,210.2 634,207.4 636.6,204 638.5,200.3 639.7,196.3 640,192.1 
			640,132.9 639,122.3 636.1,111.9 631.2,102.4 624.7,93.9 616.6,86.7 607.4,81.3 597.4,77.7 586.8,75.9 500.4,73 414,75.9 
			403.5,77.7 393.4,81.3 384.2,86.7 376.1,93.9 369.6,102.4 364.7,111.9 361.8,122.3 360.8,132.9 360.8,192.1 361.1,196.3 
			362.4,200.3 364.3,204 366.8,207.4 370,210.2 373.7,212.3 377.6,213.7 435.1,228 442.9,230.8 450.2,235 456.6,240.5 461.7,247.3 
			465.5,254.6 467.9,262.7 468.7,271.1 468.7,578.1 467.9,586.5 465.5,594.6 461.7,602.1 456.6,608.7 450.2,614.2 442.9,618.5 
			435.1,621.3 259.4,665.2 254.8,666.7 250.7,669.2 247.1,672.3 244.1,676.1 242,680.4 240.6,685 240.2,689.8 240.2,707.7 
			760.7,707.7 760.7,689.8 760.2,685 758.9,680.4 756.8,676.1 753.7,672.3 750.1,669.2 746,666.7 741.4,665.2 565.8,621.3 
			557.9,618.5 550.7,614.2 544.3,608.7 539.1,602.1 535.3,594.6 533,586.5 532.2,578.1 532.2,271.1 533,262.7 535.3,254.6 
			539.1,247.3 544.3,240.5 550.7,235 557.9,230.8 565.8,228 		"/>
		<polygon class="st33" points="623.2,213.7 627.2,212.3 630.9,210.2 634,207.4 636.6,204 638.5,200.3 639.7,196.3 640,192.1 
			640,132.9 639,122.3 636.1,111.9 631.2,102.4 624.7,93.9 616.6,86.7 607.4,81.3 597.4,77.7 586.8,75.9 500.4,73 414,75.9 
			403.5,77.7 393.4,81.3 384.2,86.7 376.1,93.9 369.6,102.4 364.7,111.9 361.8,122.3 360.8,132.9 360.8,192.1 361.1,196.3 
			362.4,200.3 364.3,204 366.8,207.4 370,210.2 373.7,212.3 377.6,213.7 435.1,228 442.9,230.8 450.2,235 456.6,240.5 461.7,247.3 
			465.5,254.6 467.9,262.7 468.7,271.1 468.7,578.1 467.9,586.5 465.5,594.6 461.7,602.1 456.6,608.7 450.2,614.2 442.9,618.5 
			435.1,621.3 259.4,665.2 254.8,666.7 250.7,669.2 247.1,672.3 244.1,676.1 242,680.4 240.6,685 240.2,689.8 240.2,707.7 
			760.7,707.7 760.7,689.8 760.2,685 758.9,680.4 756.8,676.1 753.7,672.3 750.1,669.2 746,666.7 741.4,665.2 565.8,621.3 
			557.9,618.5 550.7,614.2 544.3,608.7 539.1,602.1 535.3,594.6 533,586.5 532.2,578.1 532.2,271.1 533,262.7 535.3,254.6 
			539.1,247.3 544.3,240.5 550.7,235 557.9,230.8 565.8,228 		"/>
		<path class="st34" d="M499.9,244.9h293.8 M631.7,209.4h62.3"/>
		<line class="st35" x1="504.4" y1="73" x2="915.1" y2="73"/>
		<line class="st34" x1="757.4" y1="707.7" x2="907.8" y2="707.7"/>
		<path class="st36" d="M240.2,705.1v74.8 M760.7,705.1v74.8"/>
		<path class="st35" d="M640,129V19.1 M360.8,129V19.1"/>
		<line class="st34" x1="500.4" y1="244.3" x2="565.8" y2="228"/>
		<line class="st35" x1="500.4" y1="604.9" x2="565.8" y2="621.3"/>
		<line class="st36" x1="500.4" y1="604.9" x2="843.1" y2="604.9"/>
		<line class="st34" x1="750.7" y1="670" x2="791.1" y2="670"/>
		<g>
			<g>
				<path class="st8" d="M468.4,26v-3.1h-4.2v-1l4-7.2h1.3v7h1.3v1.2h-1.3V26H468.4z M468.4,21.7V18c0-0.6,0-1.2,0-1.8h0
					c-0.3,0.7-0.5,1.1-0.7,1.7l-2.2,3.8v0H468.4z"/>
				<path class="st8" d="M475.5,26v-3.1h-4.2v-1l4-7.2h1.3v7h1.3v1.2h-1.3V26H475.5z M475.5,21.7V18c0-0.6,0-1.2,0-1.8h0
					c-0.3,0.7-0.5,1.1-0.7,1.7l-2.2,3.8v0H475.5z"/>
			</g>
		</g>
		<g>
			<path class="st6" d="M485.7,14c-1.3,1.7-2.2,3.9-2.2,7.1c0,3.1,0.9,5.3,2.2,7h-1.2c-1.1-1.4-2.3-3.6-2.3-7c0-3.4,1.2-5.6,2.3-7.1
				H485.7z"/>
			<path class="st6" d="M490.1,16.2L490.1,16.2l-2,1.1l-0.3-1.2l2.5-1.3h1.3V26h-1.5V16.2z"/>
			<path class="st6" d="M495.8,25.1c0-0.6,0.4-1.1,1-1.1s1,0.4,1,1.1c0,0.6-0.4,1.1-1,1.1C496.2,26.2,495.8,25.7,495.8,25.1z"/>
			<path class="st6" d="M506.5,14.8v1L501.6,26h-1.6l4.9-9.9v0h-5.5v-1.3H506.5z"/>
			<path class="st6" d="M508.5,24.2c0.4,0.3,1.4,0.7,2.5,0.7c2,0,2.6-1.2,2.5-2.2c0-1.6-1.4-2.2-2.9-2.2h-0.8v-1.1h0.8
				c1.1,0,2.5-0.6,2.5-1.9c0-0.9-0.6-1.7-2-1.7c-0.9,0-1.8,0.4-2.2,0.7l-0.4-1.1c0.6-0.4,1.7-0.9,2.9-0.9c2.2,0,3.2,1.3,3.2,2.7
				c0,1.2-0.7,2.1-2.1,2.6v0c1.4,0.3,2.5,1.3,2.5,2.9c0,1.8-1.4,3.4-4.1,3.4c-1.3,0-2.4-0.4-2.9-0.8L508.5,24.2z"/>
			<path class="st6" d="M517,26v-0.9l1.2-1.2c2.9-2.7,4.2-4.2,4.2-5.9c0-1.1-0.6-2.2-2.2-2.2c-1,0-1.9,0.5-2.4,0.9l-0.5-1.1
				c0.8-0.7,1.9-1.1,3.2-1.1c2.4,0,3.4,1.7,3.4,3.3c0,2.1-1.5,3.7-3.9,6l-0.9,0.8v0h5V26H517z"/>
			<path class="st6" d="M527.4,14.2l-0.3,4.1h-0.9l-0.3-4.1H527.4z M530,14.2l-0.3,4.1h-0.9l-0.3-4.1H530z"/>
		</g>
		<g>
			<path class="st6" d="M531.3,28.1c1.2-1.7,2.2-4,2.2-7.1c0-3.1-0.9-5.3-2.2-7h1.2c1.1,1.4,2.3,3.6,2.3,7c0,3.4-1.2,5.6-2.3,7
				H531.3z"/>
		</g>
		<g>
			<g>
				<path class="st8" d="M779.9,163.9h-1.2l-1.5-1.2c-3.6-3-5.5-4.4-7.7-4.4c-1.5,0-2.9,0.6-2.9,2.3c0,1.1,0.7,1.9,1.2,2.5l-1.4,0.5
					c-0.9-0.8-1.5-2-1.5-3.3c0-2.5,2.2-3.6,4.3-3.6c2.7,0,4.9,1.6,7.9,4l1.1,0.9h0v-5.3h1.6V163.9z"/>
				<path class="st8" d="M765.3,147.1h1.3l13.4,5.1v1.6l-13-5.1h0v5.7h-1.6V147.1z"/>
			</g>
		</g>
		<g>
			<path class="st8" d="M890.1,400.3L890.1,400.3l1.1,2l-1.2,0.3l-1.3-2.5v-1.3h11.2v1.5H890.1z"/>
			<path class="st8" d="M894.2,387.2c3.8,0,5.9,1.4,5.9,3.9c0,2.2-2.1,3.7-5.8,3.7c-3.8,0-5.8-1.6-5.8-3.9
				C888.5,388.6,890.6,387.2,894.2,387.2z M894.3,393.3c2.9,0,4.6-0.9,4.6-2.3c0-1.6-1.8-2.3-4.7-2.3c-2.8,0-4.6,0.7-4.6,2.3
				C889.7,392.4,891.3,393.3,894.3,393.3z"/>
			<path class="st8" d="M894.2,378.4c3.8,0,5.9,1.4,5.9,3.9c0,2.2-2.1,3.7-5.8,3.7c-3.8,0-5.8-1.6-5.8-3.9
				C888.5,379.7,890.6,378.4,894.2,378.4z M894.3,384.5c2.9,0,4.6-0.9,4.6-2.3c0-1.6-1.8-2.3-4.7-2.3c-2.8,0-4.6,0.7-4.6,2.3
				C889.7,383.5,891.3,384.5,894.3,384.5z"/>
		</g>
		<g>
			<path class="st6" d="M887.9,369.5c1.7,1.3,3.9,2.2,7.1,2.2c3.1,0,5.3-0.9,7-2.2v1.2c-1.4,1.1-3.6,2.3-7,2.3
				c-3.4,0-5.6-1.2-7.1-2.3V369.5z"/>
			<path class="st6" d="M898.2,368c0.3-0.4,0.7-1.4,0.7-2.5c0-2-1.2-2.6-2.2-2.5c-1.6,0-2.2,1.4-2.2,2.9v0.8h-1.1v-0.8
				c0-1.1-0.6-2.5-1.9-2.5c-0.9,0-1.7,0.6-1.7,2c0,0.9,0.4,1.8,0.7,2.2l-1.1,0.4c-0.4-0.6-0.9-1.7-0.9-2.9c0-2.2,1.3-3.2,2.7-3.2
				c1.2,0,2.1,0.7,2.6,2.1h0c0.3-1.4,1.3-2.5,2.9-2.5c1.8,0,3.4,1.4,3.4,4.1c0,1.3-0.4,2.4-0.8,2.9L898.2,368z"/>
			<path class="st6" d="M899,359.4c-0.6,0-1.1-0.4-1.1-1s0.4-1,1.1-1c0.6,0,1.1,0.4,1.1,1C900.1,359,899.6,359.4,899,359.4z"/>
			<path class="st6" d="M898.8,355.1c0-0.3,0-0.7-0.1-1.2c-0.1-0.9-0.5-1.7-1.1-2.3c-0.7-0.7-1.7-1.3-3-1.5v0.1
				c0.8,0.6,1.2,1.5,1.2,2.6c0,2-1.5,3.3-3.4,3.3c-2.1,0-4-1.5-4-3.8c0-2.3,1.9-3.7,4.7-3.7c2.5,0,4.2,0.8,5.3,1.9
				c0.8,0.9,1.4,2.1,1.5,3.3c0.1,0.6,0.1,1,0.1,1.4H898.8z M892.4,354.5c1.4,0,2.4-0.8,2.4-2.2c0-1-0.5-1.8-1.2-2.2
				c-0.1-0.1-0.3-0.1-0.6-0.1c-1.9,0-3.4,0.7-3.4,2.3C889.6,353.6,890.8,354.5,892.4,354.5z"/>
			<path class="st6" d="M898.2,346.7c0.3-0.4,0.7-1.4,0.7-2.5c0-2-1.2-2.6-2.2-2.5c-1.6,0-2.2,1.4-2.2,2.9v0.8h-1.1v-0.8
				c0-1.1-0.6-2.5-1.9-2.5c-0.9,0-1.7,0.6-1.7,2c0,0.9,0.4,1.8,0.7,2.2l-1.1,0.4c-0.4-0.6-0.9-1.7-0.9-2.9c0-2.2,1.3-3.2,2.7-3.2
				c1.2,0,2.1,0.7,2.6,2.1h0c0.3-1.4,1.3-2.5,2.9-2.5c1.8,0,3.4,1.4,3.4,4.1c0,1.3-0.4,2.4-0.8,2.9L898.2,346.7z"/>
			<path class="st6" d="M888.7,331h1l10.2,4.9v1.6l-9.9-4.9h0v5.5h-1.3V331z"/>
			<path class="st6" d="M888.1,325.2l4.1,0.3v0.9l-4.1,0.3V325.2z M888.1,327.8l4.1,0.3v0.9l-4.1,0.3V327.8z"/>
		</g>
		<g>
			<path class="st6" d="M902,323.9c-1.7-1.2-4-2.2-7.1-2.2c-3.1,0-5.3,0.9-7,2.2v-1.2c1.4-1.1,3.6-2.3,7-2.3c3.4,0,5.6,1.2,7,2.3
				V323.9z"/>
		</g>
		<line class="st33" x1="904.9" y1="693.4" x2="904.9" y2="86.4"/>
		<polygon class="st8" points="909.3,690.3 904.7,707.1 900.2,690.3 		"/>
		<polygon class="st8" points="909.3,89.5 904.7,72.7 900.2,89.5 		"/>
		<line class="st33" x1="785.5" y1="231.1" x2="785.5" y2="86.4"/>
		<polygon class="st8" points="789.8,228 785.3,244.9 780.8,228 		"/>
		<polygon class="st8" points="789.8,89.5 785.3,72.7 780.8,89.5 		"/>
		<line class="st37" x1="483.2" y1="397.3" x2="518.4" y2="397.3"/>
		<polygon class="st8" points="486.3,401.7 469.4,397.1 486.3,392.6 		"/>
		<polygon class="st8" points="515.3,401.7 532.2,397.1 515.3,392.6 		"/>
		<line class="st33" x1="531.7" y1="397.3" x2="624.5" y2="397.3"/>
		<g>
			<path class="st6" d="M554.7,382.1L554.7,382.1l-2,1l-0.3-1.2l2.5-1.3l1.3,0l-0.1,11.2l-1.5,0L554.7,382.1z"/>
		</g>
		<g>
			<path class="st6" d="M567.8,386.3c0,3.8-1.5,5.9-3.9,5.9c-2.2,0-3.7-2.1-3.7-5.8c0-3.8,1.7-5.8,3.9-5.8
				C566.4,380.6,567.8,382.7,567.8,386.3z M561.7,386.4c0,2.9,0.9,4.6,2.3,4.6c1.6,0,2.3-1.8,2.3-4.7c0-2.8-0.7-4.6-2.3-4.6
				C562.7,381.7,561.7,383.3,561.7,386.4z"/>
		</g>
		<g>
			<path class="st6" d="M576.6,380.1c-1.3,1.7-2.2,3.9-2.2,7.1c0,3.1,0.9,5.3,2.1,7l-1.2,0c-1.1-1.4-2.2-3.7-2.2-7
				c0-3.4,1.2-5.6,2.3-7.1L576.6,380.1z"/>
		</g>
		<g>
			<path class="st6" d="M585.2,386.4c0,3.8-1.5,5.9-3.9,5.9c-2.2,0-3.7-2.1-3.7-5.8c0-3.8,1.7-5.8,3.9-5.8
				C583.9,380.7,585.2,382.8,585.2,386.4z M579.1,386.5c0,2.9,0.9,4.6,2.3,4.6c1.6,0,2.3-1.8,2.3-4.7c0-2.8-0.7-4.6-2.3-4.6
				C580.1,381.8,579.1,383.4,579.1,386.5z"/>
		</g>
		<g>
			<path class="st6" d="M586.7,391.2c0-0.6,0.4-1.1,1-1.1s1,0.5,1,1.1c0,0.6-0.4,1.1-1,1.1C587.1,392.3,586.7,391.8,586.7,391.2z"/>
			<path class="st6" d="M590.5,390.4c0.4,0.3,1.4,0.7,2.5,0.7c2,0,2.6-1.2,2.6-2.2c0-1.6-1.4-2.3-2.9-2.3l-0.8,0l0-1.1l0.8,0
				c1.1,0,2.5-0.6,2.5-1.9c0-0.9-0.6-1.7-2-1.7c-0.9,0-1.8,0.4-2.2,0.7l-0.4-1.1c0.6-0.4,1.7-0.9,2.9-0.8c2.2,0,3.2,1.3,3.2,2.7
				c0,1.2-0.7,2.1-2.1,2.6v0c1.4,0.3,2.5,1.3,2.5,2.9c0,1.8-1.4,3.4-4.1,3.3c-1.3,0-2.4-0.4-2.9-0.8L590.5,390.4z"/>
		</g>
		<g>
			<path class="st6" d="M599.9,391.1c0.3,0,0.7,0,1.2,0c0.9-0.1,1.7-0.5,2.4-1.1c0.7-0.7,1.3-1.6,1.5-3h-0.1
				c-0.6,0.8-1.5,1.2-2.6,1.2c-2,0-3.3-1.5-3.3-3.5c0-2.1,1.6-4,3.9-4c2.3,0,3.7,1.9,3.7,4.8c0,2.5-0.9,4.2-2,5.3
				c-0.9,0.8-2.1,1.4-3.3,1.5c-0.6,0.1-1,0.1-1.4,0.1L599.9,391.1z M600.5,384.7c0,1.4,0.8,2.4,2.1,2.4c1,0,1.8-0.5,2.2-1.2
				c0.1-0.1,0.1-0.3,0.1-0.6c0-1.9-0.7-3.4-2.3-3.4C601.4,381.9,600.5,383.1,600.5,384.7z"/>
		</g>
		<g>
			<path class="st6" d="M612.6,392.3l0-3.1l-5.2,0l0-1l5.1-7.1l1.6,0l0,7l1.6,0l0,1.2l-1.6,0l0,3.1L612.6,392.3z M612.6,388l0-3.7
				c0-0.6,0-1.2,0.1-1.8l-0.1,0c-0.3,0.7-0.6,1.1-0.9,1.7l-2.8,3.8v0L612.6,388z"/>
		</g>
		<g>
			<path class="st6" d="M618.5,380.5l-0.3,4.1l-0.9,0l-0.3-4.1L618.5,380.5z M621,380.5l-0.3,4.1l-0.9,0l-0.3-4.1L621,380.5z"/>
			<path class="st6" d="M622.2,394.4c1.2-1.7,2.2-3.9,2.2-7.1c0-3.1-0.9-5.3-2.1-7l1.2,0c1.1,1.4,2.2,3.6,2.2,7c0,3.4-1.2,5.6-2.3,7
				L622.2,394.4z"/>
		</g>
		<line class="st33" x1="354" y1="212.5" x2="300.4" y2="257.2"/>
		<polygon class="st8" points="348.8,211.2 364.7,203.9 354.6,218.1 		"/>
		<g>
			<path class="st8" d="M286.9,244.5c0.5-0.6,1.3-1.4,2.1-2c1.2-1,2.2-1.5,3.2-1.4c0.8,0,1.5,0.4,2.1,1.1c1,1.2,0.9,2.6,0.2,3.7l0,0
				c0.9-0.3,1.8,0,2.8,0.7c1.3,1,2.3,1.7,2.7,1.9l-1.2,1c-0.4-0.1-1.2-0.7-2.4-1.6c-1.3-1-2.2-1.1-3.2-0.3l-1.1,0.9l3.2,3.9l-1.2,1
				L286.9,244.5z M291.5,247.6l1.2-1c1.2-1,1.5-2.4,0.6-3.4c-1-1.2-2.2-1-3.5,0c-0.6,0.5-0.9,0.8-1.1,1.1L291.5,247.6z"/>
		</g>
		<g>
			<path class="st8" d="M300.2,246.2c0.5-0.1,1.6-0.4,2.4-1c1.5-1.2,1.2-2.6,0.6-3.3c-1-1.2-2.5-0.8-3.7,0.1l-0.7,0.5l-0.7-0.9
				l0.7-0.5c0.9-0.7,1.6-2,0.7-3.1c-0.6-0.7-1.5-0.9-2.6,0c-0.7,0.6-1.1,1.4-1.3,2l-1-0.6c0.2-0.7,0.8-1.8,1.7-2.5
				c1.7-1.4,3.3-1,4.2,0c0.7,0.9,0.8,2.1,0.1,3.4l0,0c1.2-0.7,2.8-0.6,3.8,0.6c1.1,1.4,1.1,3.5-1,5.2c-1,0.8-2.1,1.2-2.7,1.3
				L300.2,246.2z"/>
		</g>
		<g>
			<path class="st8" d="M307.3,241.3c-0.4-0.5-0.4-1.1,0.1-1.5c0.5-0.4,1.1-0.3,1.5,0.2c0.4,0.5,0.4,1.1-0.1,1.5
				C308.3,241.9,307.7,241.8,307.3,241.3z"/>
		</g>
		<g>
			<path class="st8" d="M309.4,227.9l-3.3,2.7l1.5,2.5c0.2-0.2,0.3-0.4,0.7-0.6c0.7-0.6,1.5-1,2.2-1.1c1-0.2,2.2,0.1,3.1,1.2
				c1.4,1.7,1.1,4.1-0.8,5.6c-0.9,0.8-2,1.2-2.6,1.3l-0.4-1.1c0.5-0.1,1.5-0.4,2.2-1.1c1.1-0.9,1.5-2.4,0.5-3.6
				c-0.9-1.1-2.3-1.3-4.1,0.1c-0.5,0.4-0.8,0.8-1.1,1.1l-2.9-4.6l4.1-3.4L309.4,227.9z"/>
		</g>
		<line class="st33" x1="447.8" y1="251.4" x2="394.2" y2="296.1"/>
		<polygon class="st8" points="442.7,250.1 458.5,242.8 448.4,257 		"/>
		<g>
			<path class="st8" d="M386.3,281c0.5-0.6,1.3-1.4,2.1-2c1.2-1,2.2-1.5,3.2-1.4c0.8,0,1.5,0.4,2.1,1.1c1,1.2,0.9,2.6,0.2,3.7l0,0
				c0.9-0.3,1.8,0,2.8,0.7c1.3,1,2.3,1.7,2.7,1.9l-1.2,1c-0.4-0.1-1.2-0.7-2.4-1.6c-1.3-1-2.2-1.1-3.2-0.3l-1.1,0.9l3.2,3.9l-1.2,1
				L386.3,281z M390.9,284.1l1.2-1c1.2-1,1.5-2.4,0.6-3.4c-1-1.2-2.2-1-3.5,0c-0.6,0.5-0.9,0.8-1.1,1.1L390.9,284.1z"/>
		</g>
		<g>
			<path class="st8" d="M398.8,270.9l0.6,0.8l2.8,11l-1.2,1l-2.6-10.8l0,0l-4.2,3.5l-0.8-1L398.8,270.9z"/>
		</g>
		<line class="st33" x1="234.4" y1="665.9" x2="188.4" y2="613.4"/>
		<polygon class="st8" points="235.6,660.7 243.4,676.3 228.8,666.6 		"/>
		<g>
			<path class="st8" d="M203.7,605.1c0.6,0.5,1.4,1.2,2.1,2c1.1,1.2,1.5,2.2,1.5,3.2c0,0.8-0.4,1.6-1.1,2.1c-1.2,1-2.6,1-3.7,0.3
				l0,0c0.4,0.9,0.1,1.8-0.6,2.8c-1,1.4-1.6,2.3-1.8,2.8l-1-1.2c0.1-0.4,0.7-1.2,1.6-2.4c1-1.3,1-2.2,0.2-3.2l-0.9-1.1l-3.8,3.3
				l-1-1.1L203.7,605.1z M200.7,609.7l1,1.2c1.1,1.2,2.4,1.4,3.4,0.5c1.1-1,0.9-2.2-0.1-3.4c-0.5-0.5-0.9-0.9-1.1-1L200.7,609.7z"/>
		</g>
		<g>
			<path class="st8" d="M203.8,622.8l2.3-2l-3.4-3.9l0.8-0.7l8.7-0.9l1.1,1.2L208,621l1,1.2l-0.9,0.8l-1-1.2l-2.3,2L203.8,622.8z
				 M207,620l2.8-2.5c0.4-0.4,0.9-0.8,1.4-1.1l0,0c-0.7,0.2-1.3,0.3-1.9,0.4l-4.7,0.4l0,0L207,620z"/>
		</g>
		<g>
			<path class="st6" d="M463.8,754.8c0-1.4,0.8-2.4,2.2-3l0-0.1c-1.2-0.6-1.8-1.6-1.8-2.5c0-1.8,1.5-3,3.5-3c2.2,0,3.3,1.4,3.3,2.8
				c0,0.9-0.5,2-1.8,2.6v0.1c1.4,0.6,2.3,1.5,2.3,2.9c0,2-1.7,3.3-3.8,3.3C465.2,757.9,463.8,756.5,463.8,754.8z M469.9,754.8
				c0-1.4-1-2-2.5-2.5c-1.3,0.4-2,1.2-2,2.3c-0.1,1.1,0.8,2.1,2.2,2.1C469,756.8,469.9,755.9,469.9,754.8z M465.7,749.2
				c0,1.1,0.8,1.7,2.1,2.1c1-0.3,1.7-1,1.7-2c0-0.9-0.5-1.8-1.9-1.8C466.4,747.4,465.7,748.2,465.7,749.2z"/>
			<path class="st6" d="M472.8,757.7v-0.9l1.2-1.2c2.9-2.7,4.2-4.2,4.2-5.9c0-1.1-0.6-2.2-2.2-2.2c-1,0-1.9,0.5-2.4,1l-0.5-1.1
				c0.8-0.7,1.9-1.1,3.2-1.1c2.4,0,3.4,1.7,3.4,3.3c0,2.1-1.5,3.7-3.9,6l-0.9,0.8v0h5v1.3H472.8z"/>
			<path class="st6" d="M489.1,745.7c-1.3,1.7-2.2,3.9-2.2,7.1c0,3.1,0.9,5.3,2.2,7h-1.2c-1.1-1.4-2.3-3.6-2.3-7
				c0-3.4,1.2-5.6,2.3-7.1H489.1z"/>
			<path class="st6" d="M490.6,756c0.4,0.3,1.4,0.7,2.5,0.7c2,0,2.6-1.2,2.5-2.2c0-1.6-1.4-2.2-2.9-2.2h-0.8v-1.1h0.8
				c1.1,0,2.5-0.6,2.5-1.9c0-0.9-0.6-1.7-2-1.7c-0.9,0-1.8,0.4-2.2,0.7l-0.4-1.1c0.6-0.4,1.7-0.9,2.9-0.9c2.2,0,3.2,1.3,3.2,2.7
				c0,1.2-0.7,2.1-2.1,2.6v0c1.4,0.3,2.5,1.3,2.5,2.9c0,1.8-1.4,3.4-4.1,3.4c-1.3,0-2.4-0.4-2.9-0.8L490.6,756z"/>
			<path class="st6" d="M499.2,756.8c0-0.6,0.4-1.1,1-1.1s1,0.4,1,1.1c0,0.6-0.4,1.1-1,1.1C499.6,757.9,499.2,757.4,499.2,756.8z"/>
			<path class="st6" d="M502.7,757.7v-0.9l1.2-1.2c2.9-2.7,4.2-4.2,4.2-5.9c0-1.1-0.6-2.2-2.2-2.2c-1,0-1.9,0.5-2.4,1l-0.5-1.1
				c0.8-0.7,1.9-1.1,3.2-1.1c2.4,0,3.4,1.7,3.4,3.3c0,2.1-1.5,3.7-3.9,6l-0.9,0.8v0h5v1.3H502.7z"/>
			<path class="st6" d="M511.5,757.7v-0.9l1.2-1.2c2.9-2.7,4.2-4.2,4.2-5.9c0-1.1-0.6-2.2-2.2-2.2c-1,0-1.9,0.5-2.4,1l-0.5-1.1
				c0.8-0.7,1.9-1.1,3.2-1.1c2.4,0,3.4,1.7,3.4,3.3c0,2.1-1.5,3.7-3.9,6l-0.9,0.8v0h5v1.3H511.5z"/>
			<path class="st6" d="M520.2,754.8c0-1.4,0.8-2.4,2.2-3l0-0.1c-1.2-0.6-1.8-1.6-1.8-2.5c0-1.8,1.5-3,3.5-3c2.2,0,3.3,1.4,3.3,2.8
				c0,0.9-0.5,2-1.8,2.6v0.1c1.4,0.6,2.3,1.5,2.3,2.9c0,2-1.7,3.3-3.8,3.3C521.7,757.9,520.2,756.5,520.2,754.8z M526.3,754.8
				c0-1.4-1-2-2.5-2.5c-1.3,0.4-2,1.2-2,2.3c-0.1,1.1,0.8,2.1,2.2,2.1C525.4,756.8,526.3,755.9,526.3,754.8z M522.1,749.2
				c0,1.1,0.8,1.7,2.1,2.1c1-0.3,1.7-1,1.7-2c0-0.9-0.5-1.8-1.9-1.8C522.8,747.4,522.1,748.2,522.1,749.2z"/>
			<path class="st6" d="M530.9,745.9l-0.3,4.1h-0.9l-0.3-4.1H530.9z M533.4,745.9l-0.3,4.1h-0.9l-0.3-4.1H533.4z"/>
		</g>
		<g>
			<path class="st6" d="M534.7,759.8c1.2-1.7,2.2-4,2.2-7.1c0-3.1-0.9-5.3-2.2-7h1.2c1.1,1.4,2.3,3.6,2.3,7c0,3.4-1.2,5.6-2.3,7
				H534.7z"/>
		</g>
		<line class="st33" x1="253.9" y1="763.9" x2="746.9" y2="763.9"/>
		<polygon class="st8" points="257,768.2 240.2,763.7 257,759.2 		"/>
		<polygon class="st8" points="743.8,768.2 760.7,763.7 743.8,759.2 		"/>
		<g>
			<path class="st6" d="M512,730.7v-5.1l-4.7-7h2l2.4,3.7c0.4,0.7,0.9,1.4,1.2,2.1c0.4-0.6,0.8-1.4,1.3-2.1l2.4-3.6h1.9l-4.9,7v5.1
				H512z"/>
			<path class="st6" d="M512,67.6v-5.1l-4.7-7h2l2.4,3.7c0.4,0.7,0.9,1.4,1.2,2.1c0.4-0.6,0.8-1.4,1.3-2.1l2.4-3.6h1.9l-4.9,7v5.1
				H512z"/>
		</g>
		<line class="st38" x1="500.3" y1="730.7" x2="499.6" y2="55"/>
		<line class="st33" x1="443.7" y1="601.9" x2="397.7" y2="549.5"/>
		<polygon class="st8" points="444.9,596.7 452.7,612.4 438.1,602.7 		"/>
		<g>
			<path class="st8" d="M413,541.1c0.6,0.5,1.4,1.2,2.1,2c1.1,1.2,1.5,2.2,1.5,3.2c0,0.8-0.4,1.6-1.1,2.1c-1.2,1-2.6,1-3.7,0.3l0,0
				c0.4,0.9,0.1,1.8-0.6,2.8c-1,1.4-1.6,2.3-1.8,2.8l-1-1.2c0.1-0.4,0.7-1.2,1.6-2.4c1-1.3,1-2.2,0.2-3.2l-0.9-1.1l-3.8,3.3l-1-1.1
				L413,541.1z M410,545.7l1,1.2c1.1,1.2,2.4,1.4,3.4,0.5c1.1-1,0.9-2.2-0.1-3.4c-0.5-0.5-0.9-0.9-1.1-1L410,545.7z"/>
		</g>
		<g>
			<path class="st8" d="M423.3,553.4l-0.8,0.7l-10.9,3l-1-1.2l10.7-2.9l0,0l-3.6-4.1l1-0.8L423.3,553.4z"/>
		</g>
		<g>
			<path class="st8" d="M766.6,682.9h1l10.2,4.9v1.6l-9.9-4.9h0v5.5h-1.3V682.9z"/>
		</g>
		<line class="st33" x1="785.5" y1="694" x2="785.5" y2="683.8"/>
		<polygon class="st8" points="789.8,690.9 785.3,707.8 780.8,690.9 		"/>
		<polygon class="st8" points="789.8,686.8 785.3,670 780.8,686.8 		"/>
		<g>
			<path class="st8" d="M820.6,673.5L820.6,673.5l1.1,2l-1.2,0.3l-1.3-2.5V672h11.2v1.5H820.6z"/>
			<path class="st8" d="M820.2,661.5c0,0.3,0,0.7,0.1,1.1c0.4,2.4,2.1,3.6,4,3.9v-0.1c-0.7-0.5-1.3-1.5-1.3-2.7c0-2,1.4-3.4,3.6-3.4
				c2.1,0,4,1.4,4,3.7c0,2.4-1.9,4-4.8,4c-2.2,0-4-0.8-5.1-1.9c-0.9-0.9-1.5-2.2-1.7-3.6c-0.1-0.4-0.1-0.8-0.1-1.1H820.2z
				 M826.7,662c-1.6,0-2.6,0.9-2.6,2.3c0,0.9,0.6,1.8,1.4,2.2c0.2,0.1,0.4,0.2,0.7,0.2c1.8,0,3.2-0.9,3.2-2.5
				C829.4,662.8,828.3,662,826.7,662z"/>
			<path class="st8" d="M829.5,659c-0.6,0-1.1-0.4-1.1-1s0.4-1,1.1-1c0.6,0,1.1,0.4,1.1,1C830.6,658.5,830.1,659,829.5,659z"/>
		</g>
		<g>
			<path class="st8" d="M830.4,655.5h-0.9l-1.2-1.2c-2.7-2.9-4.2-4.2-5.9-4.2c-1.1,0-2.2,0.6-2.2,2.2c0,1,0.5,1.9,1,2.4l-1.1,0.5
				c-0.7-0.8-1.1-1.9-1.1-3.2c0-2.4,1.7-3.4,3.3-3.4c2.1,0,3.7,1.5,6,3.9l0.8,0.9h0v-5h1.3V655.5z"/>
		</g>
		<line class="st33" x1="835.8" y1="694" x2="835.8" y2="618.8"/>
		<polygon class="st8" points="840.1,690.9 835.6,707.7 831.1,690.9 		"/>
		<polygon class="st8" points="840.1,621.9 835.6,605 831.1,621.9 		"/>
		<line class="st33" x1="610.7" y1="98.6" x2="557.1" y2="143.3"/>
		<polygon class="st8" points="605.6,97.3 621.4,90 611.4,104.2 		"/>
		<g>
			<path class="st8" d="M553.9,125.4c0.5-0.6,1.3-1.4,2.1-2c1.2-1,2.2-1.5,3.2-1.4c0.8,0,1.5,0.4,2.1,1.1c1,1.2,0.9,2.6,0.2,3.7l0,0
				c0.9-0.3,1.8,0,2.8,0.7c1.3,1,2.3,1.7,2.7,1.9l-1.2,1c-0.4-0.1-1.2-0.7-2.4-1.6c-1.3-1-2.2-1.1-3.2-0.3l-1.1,0.9l3.2,3.9l-1.2,1
				L553.9,125.4z M558.4,128.5l1.2-1c1.2-1,1.5-2.4,0.6-3.4c-1-1.2-2.2-1-3.5,0c-0.6,0.5-0.9,0.8-1.1,1.1L558.4,128.5z"/>
		</g>
		<g>
			<path class="st8" d="M567.9,127.3c0.3-0.2,0.5-0.5,0.9-0.8c0.6-0.7,1-1.5,1.1-2.3c0.1-1-0.1-2.1-0.8-3.2l0,0c0,1-0.4,1.9-1.3,2.6
				c-1.6,1.3-3.5,0.9-4.7-0.5c-1.4-1.6-1.4-4.1,0.4-5.5c1.8-1.5,4-0.9,5.9,1.3c1.6,1.9,2,3.8,1.9,5.3c-0.1,1.2-0.7,2.4-1.6,3.2
				c-0.4,0.4-0.7,0.7-1,1L567.9,127.3z M564.2,121.9c0.9,1.1,2.2,1.3,3.2,0.5c0.8-0.6,1.1-1.5,1-2.3c0-0.2-0.1-0.3-0.2-0.5
				c-1.2-1.5-2.7-2.2-3.9-1.1C563.2,119.2,563.2,120.7,564.2,121.9z"/>
		</g>
		<g>
			<g>
				<path class="st8" d="M680.9,155.6h-1.2l-1.5-1.2c-3.6-3-5.5-4.4-7.7-4.4c-1.5,0-2.9,0.6-2.9,2.3c0,1.1,0.7,1.9,1.2,2.5l-1.4,0.5
					c-0.9-0.8-1.5-2-1.5-3.3c0-2.5,2.2-3.6,4.3-3.6c2.7,0,4.9,1.6,7.9,4l1.1,0.9h0v-5.3h1.6V155.6z"/>
				<path class="st8" d="M668.1,142.9L668.1,142.9l1.4,2.1l-1.5,0.3l-1.7-2.6v-1.4h14.7v1.5H668.1z"/>
				<path class="st8" d="M679.7,137c-0.8,0-1.4-0.5-1.4-1.1c0-0.6,0.6-1.1,1.4-1.1c0.8,0,1.4,0.4,1.4,1.1
					C681.2,136.5,680.5,137,679.7,137z"/>
			</g>
			<g>
				<path class="st8" d="M667.9,126.4v4.5l3.8,0.5c0-0.3-0.1-0.5-0.1-1c0-0.9,0.2-1.8,0.8-2.5c0.7-0.9,1.9-1.7,3.8-1.7
					c2.9,0,5,1.8,5,4.4c0,1.3-0.5,2.4-0.9,2.9l-1.5-0.4c0.4-0.5,0.8-1.4,0.8-2.5c0-1.5-1.2-2.8-3.2-2.8c-1.9,0-3.2,1-3.2,3.4
					c0,0.7,0.1,1.2,0.2,1.6l-7-0.8v-5.6H667.9z"/>
			</g>
		</g>
		<line class="st33" x1="686.4" y1="195.6" x2="686.4" y2="86.4"/>
		<polygon class="st8" points="690.8,192.5 686.3,209.4 681.7,192.5 		"/>
		<polygon class="st8" points="690.8,89.5 686.3,72.7 681.7,89.5 		"/>
		<line class="st33" x1="374.6" y1="32.7" x2="626.3" y2="32.7"/>
		<polygon class="st8" points="377.7,37 360.8,32.5 377.7,28 		"/>
		<polygon class="st8" points="623.2,37 640,32.5 623.2,28 		"/>
	</g>
</g>
<g id="Watermark">
	<g>
		<rect x="438.5" y="646.2" class="st0" width="123.1" height="46.3"/>
		<g>
			<rect x="444.9" y="654.1" class="st106" width="62.9" height="30.6"/>
			<rect x="507.7" y="654.1" class="st106" width="47.4" height="30.6"/>
			<g>
				<path class="st107" d="M466.5,660.2l-2.8,18.9H461l-1.6-11l-1.5,11h-2.7l-2.8-18.9h2.5l1.8,14.2l1.8-14.2h2l1.8,14.2l1.8-14.2
					H466.5z"/>
				<path class="st107" d="M467.9,679.1v-18.9h2.5v18.9H467.9z"/>
				<path class="st107" d="M472.8,660.2h5c1.9,0,2.9,1.1,2.9,3.2v4.7c0,1.7-0.5,2.7-1.5,3.1l1.8,7.9h-2.4l-1.7-7.6h-1.5v7.6h-2.5
					V660.2z M475.4,669.3h1.7c0.8,0,1.1-0.5,1.1-1.4v-4.1c0-0.9-0.4-1.4-1.1-1.4h-1.7V669.3z"/>
				<path class="st107" d="M486.8,662.4v16.6h-2.5v-16.6h-2.4v-2.3h7.4v2.3H486.8z"/>
				<path class="st107" d="M496.3,679.1v-8.6h-3.1v8.6h-2.5v-18.9h2.5v8h3.1v-8h2.5v18.9H496.3z"/>
			</g>
			<g>
				<path class="st107" d="M516.3,660.2h5c1.9,0,2.9,1.1,2.9,3.2v4.7c0,1.7-0.5,2.7-1.5,3.1l1.8,7.9H522l-1.7-7.6h-1.5v7.6h-2.5
					V660.2z M518.8,669.3h1.7c0.8,0,1.1-0.5,1.1-1.4v-4.1c0-0.9-0.4-1.4-1.1-1.4h-1.7V669.3z"/>
				<path class="st107" d="M528.7,679.1h-2.5v-15.7c0-2.2,1-3.2,3-3.2h1.9c2,0,3,1.1,3,3.2v15.7h-2.5v-6.9h-2.9V679.1z M531.6,669.8
					v-6.3c0-0.7-0.4-1.1-1.1-1.1h-0.7c-0.7,0-1.1,0.4-1.1,1.1v6.3H531.6z"/>
				<path class="st107" d="M536.3,679.1v-18.9h2.5v18.9H536.3z"/>
				<path class="st107" d="M547.2,679.1h-6v-18.9h2.5v16.6h3.5V679.1z"/>
			</g>
		</g>
	</g>
</g>
</svg>
