<?xml version="1.0" encoding="utf-8"?>
<!-- Generator: Adobe Illustrator 25.2.3, SVG Export Plug-In . SVG Version: 6.00 Build 0)  -->
<svg version="1.1" xmlns="http://www.w3.org/2000/svg" xmlns:xlink="http://www.w3.org/1999/xlink" x="0px" y="0px"
	 viewBox="0 0 1000 800" style="enable-background:new 0 0 1000 800;" xml:space="preserve">
<style type="text/css">
	.st0{fill:#F0F0F0;}
	.st1{fill:none;stroke:#221E1F;stroke-width:1.2032;}
	.st2{fill:none;stroke:#221E1F;stroke-width:1.0736;}
	.st3{fill:none;stroke:#221E1F;stroke-width:1.2032;stroke-miterlimit:10;}
	.st4{fill:none;stroke:#221E1F;stroke-width:1.0736;stroke-linecap:round;stroke-linejoin:round;stroke-miterlimit:10;}
	.st5{fill:none;stroke:#221E1F;stroke-width:1.0736;stroke-miterlimit:10;}
	.st6{fill:#303030;}
	.st7{fill:none;stroke:#221E1F;stroke-width:1.2032;stroke-linecap:round;stroke-linejoin:round;}
	.st8{fill:#221E1F;}
	.st9{fill:none;stroke:#221E1F;stroke-width:1.2032;stroke-dasharray:15.0983,4.5412;}
	.st10{fill:none;stroke:#221E1F;stroke-width:1.327;}
	.st11{fill:none;stroke:#221E1F;stroke-width:1.327;stroke-miterlimit:10;}
	.st12{fill:none;stroke:#221E1F;stroke-width:1.5312;stroke-miterlimit:10;}
	.st13{fill:none;stroke:#221E1F;stroke-width:1.327;stroke-linecap:round;stroke-linejoin:round;}
	.st14{fill:none;stroke:#221E1F;stroke-width:1.327;stroke-dasharray:16.5574,4.9134;}
	.st15{fill:none;stroke:#221E1F;stroke-width:1.1875;stroke-linecap:round;stroke-linejoin:round;}
	.st16{fill:none;stroke:#221E1F;stroke-width:1.1875;stroke-miterlimit:10;}
	.st17{fill:none;stroke:#221E1F;stroke-width:1.0882;}
	.st18{fill:none;stroke:#221E1F;stroke-width:1.0882;stroke-miterlimit:10;}
	.st19{fill:none;stroke:#221E1F;stroke-width:1.01;stroke-linecap:round;stroke-linejoin:round;stroke-miterlimit:10;}
	.st20{fill:none;stroke:#221E1F;stroke-width:1.0268;stroke-linecap:round;stroke-linejoin:round;stroke-miterlimit:10;}
	.st21{fill:none;stroke:#221E1F;stroke-width:1.0268;}
	.st22{fill:none;stroke:#221E1F;stroke-width:1.0882;stroke-linecap:round;stroke-linejoin:round;stroke-miterlimit:10;}
	.st23{fill:none;stroke:#221E1F;stroke-width:1.0882;stroke-linecap:round;stroke-linejoin:round;}
	.st24{fill:none;stroke:#221E1F;stroke-width:1.0882;stroke-dasharray:13.6188,4.0709;}
	.st25{fill:none;stroke:#303030;stroke-width:1.0882;stroke-miterlimit:10;}
	.st26{fill:none;stroke:#303030;stroke-width:0.9459;stroke-miterlimit:10;}
	.st27{fill:none;stroke:#303030;stroke-width:0.625;stroke-miterlimit:10;}
	.st28{fill:none;stroke:#221E1F;stroke-width:1.2065;}
	.st29{fill:none;stroke:#221E1F;stroke-width:1.058;stroke-miterlimit:10;}
	.st30{fill:none;stroke:#221E1F;stroke-width:1.2065;stroke-miterlimit:10;}
	.st31{fill:none;stroke:#221E1F;stroke-width:1.2065;stroke-dasharray:15.1403,4.5538;}
	.st32{fill:none;stroke:#221E1F;stroke-width:1.2065;stroke-linecap:round;stroke-linejoin:round;}
	.st33{fill:none;stroke:#221E1F;stroke-width:1.0363;}
	.st34{fill:none;stroke:#221E1F;stroke-width:1.0363;stroke-miterlimit:10;}
	.st35{fill:none;stroke:#221E1F;stroke-width:1.0536;stroke-linecap:round;stroke-linejoin:round;stroke-miterlimit:10;}
	.st36{fill:none;stroke:#221E1F;stroke-width:1.0536;stroke-miterlimit:10;}
	.st37{fill:none;stroke:#221E1F;stroke-width:1.0363;stroke-linecap:round;stroke-linejoin:round;}
	.st38{fill:none;stroke:#221E1F;stroke-width:1.0363;stroke-dasharray:14.1142,4.2633;}
	.st39{fill:none;stroke:#221E1F;stroke-width:1.0394;}
	.st40{fill:none;stroke:#221E1F;stroke-width:1.1318;stroke-linecap:round;stroke-linejoin:round;stroke-miterlimit:10;}
	.st41{fill:none;stroke:#221E1F;stroke-width:1.0394;stroke-miterlimit:10;}
	.st42{fill:none;stroke:#221E1F;stroke-width:1.1318;stroke-miterlimit:10;}
	.st43{fill:none;stroke:#221E1F;stroke-width:1.0394;stroke-dasharray:14.096,4.2184;}
	.st44{fill:none;stroke:#221E1F;stroke-width:0.9644;stroke-linecap:round;stroke-linejoin:round;}
	.st45{fill:none;stroke:#221E1F;stroke-width:1.0394;stroke-linecap:round;stroke-linejoin:round;}
	.st46{fill:none;stroke:#221E1F;stroke-width:1.0394;stroke-dasharray:28.8705,8.4195;}
	.st47{fill:none;stroke:#221E1F;stroke-width:1.0394;stroke-dasharray:30.1958,9.7419;}
	.st48{fill:none;stroke:#221E1F;stroke-width:1.1834;}
	.st49{fill:none;stroke:#221E1F;stroke-width:1.1834;stroke-dasharray:22.2172,9.0331;}
	.st50{fill:none;stroke:#221E1F;stroke-width:1.1834;stroke-dasharray:22.205,9.024;}
	.st51{fill:none;stroke:#221E1F;stroke-width:1.1834;stroke-dasharray:22.2172,9.0362;}
	.st52{fill:none;stroke:#221E1F;stroke-width:1.1834;stroke-dasharray:22.205,9.021;}
	.st53{fill:none;stroke:#221E1F;stroke-width:1.1834;stroke-dasharray:14.8529,4.4695;}
	.st54{fill:none;stroke:#221E1F;stroke-width:1.1834;stroke-linecap:round;stroke-linejoin:round;}
	.st55{fill:none;stroke:#221E1F;stroke-width:0.9791;}
	.st56{fill:none;stroke:#221E1F;stroke-width:1.2076;}
	.st57{fill:none;stroke:#221E1F;stroke-width:1.2076;stroke-dasharray:17.3391,6.3726;}
	.st58{fill:none;stroke:#221E1F;stroke-width:1.2076;stroke-dasharray:17.3363,6.3726;}
	.st59{fill:none;stroke:#221E1F;stroke-width:0.9791;stroke-dasharray:17.5349,5.1568;}
	.st60{fill:none;stroke:#303030;stroke-width:0.9791;}
	.st61{fill:none;stroke:#221E1F;stroke-width:0.8976;stroke-linecap:round;stroke-linejoin:round;}
	.st62{fill:none;stroke:#241F21;stroke-width:0.9771;}
	
		.st63{fill:none;stroke:#241F21;stroke-width:0.9771;stroke-linecap:round;stroke-linejoin:round;stroke-miterlimit:1;stroke-dasharray:16.5466,16.5466;}
	
		.st64{fill:none;stroke:#241F21;stroke-width:0.9771;stroke-linecap:round;stroke-linejoin:round;stroke-miterlimit:1;stroke-dasharray:17.1257,17.1257;}
	
		.st65{fill:none;stroke:#241F21;stroke-width:0.9771;stroke-linecap:round;stroke-linejoin:round;stroke-miterlimit:1;stroke-dasharray:16.5967,16.5967;}
	.st66{fill:none;stroke:#241F21;stroke-width:0.9771;stroke-linecap:round;stroke-linejoin:round;stroke-miterlimit:1;}
	.st67{fill:#241F21;}
	.st68{fill:none;stroke:#241F21;stroke-width:0.7626;stroke-linecap:round;stroke-linejoin:round;stroke-miterlimit:1;}
	.st69{fill:none;stroke:#221E1F;stroke-width:1.2516;}
	.st70{fill:none;stroke:#221E1F;stroke-width:1.2516;stroke-miterlimit:10;}
	.st71{fill:none;stroke:#221E1F;stroke-width:0.6258;}
	.st72{fill:none;stroke:#221E1F;stroke-width:0.6258;stroke-dasharray:18.3883,4.6234;}
	.st73{fill:none;stroke:#221E1F;stroke-width:0.6258;stroke-dasharray:21.5524,17.6199;}
	.st74{fill:none;stroke:#221E1F;stroke-width:0.6258;stroke-dasharray:20.1706,6.4056;}
	.st75{fill:none;stroke:#221E1F;stroke-width:0.9654;}
	.st76{fill:none;stroke:#303030;stroke-width:0.9654;}
	.st77{fill:none;stroke:#303030;stroke-width:0.9017;}
	.st78{fill:none;stroke:#303030;stroke-width:0.9654;stroke-dasharray:14.0607,4.2416;}
	.st79{fill:none;stroke:#303030;stroke-width:0.9654;stroke-dasharray:13.938,4.1189;}
	.st80{fill:none;stroke:#303030;stroke-width:0.9654;stroke-dasharray:14.3912,4.5697;}
	.st81{fill:none;stroke:#303030;stroke-width:0.9654;stroke-dasharray:14.7358,4.9143;}
	.st82{fill:none;stroke:#221E1F;stroke-width:0.9654;stroke-dasharray:15.4321,4.6901;}
	.st83{fill:none;stroke:#221E1F;stroke-width:0.9654;stroke-linecap:round;stroke-linejoin:round;}
	.st84{fill:none;stroke:#303030;stroke-width:0.8686;stroke-miterlimit:10;}
	.st85{fill:none;stroke:#303030;stroke-width:0.9654;stroke-miterlimit:10;}
	.st86{fill:none;stroke:#221E1F;stroke-width:2.6151;}
	.st87{fill:none;stroke:#221E1F;stroke-width:1.816;}
	.st88{fill:none;stroke:#221E1F;stroke-width:1.816;stroke-dasharray:21.5996,5.873;}
	.st89{fill:none;stroke:#221E1F;stroke-width:1.816;stroke-dasharray:21.596,5.8693;}
	.st90{fill:none;stroke:#221E1F;stroke-width:1.816;stroke-dasharray:45.6036,34.3698;}
	.st91{fill:none;stroke:#221E1F;stroke-width:1.816;stroke-dasharray:45.5927,34.3589;}
	.st92{fill:none;stroke:#221E1F;stroke-width:1.816;stroke-dasharray:21.596,5.873;}
	.st93{fill:none;stroke:#221E1F;stroke-width:2.158;}
	.st94{fill:none;stroke:#221E1F;stroke-width:1.4986;}
	.st95{fill:none;stroke:#221E1F;stroke-width:1.4986;stroke-dasharray:19.9046,5.413;}
	.st96{fill:none;stroke:#221E1F;stroke-width:1.4986;stroke-dasharray:19.9016,5.41;}
	.st97{fill:none;stroke:#221E1F;stroke-width:1.4986;stroke-dasharray:35.6909,25.3385;}
	.st98{fill:none;stroke:#221E1F;stroke-width:0.8673;}
	.st99{fill:none;stroke:#303030;stroke-width:0.9125;stroke-miterlimit:10;}
	.st100{fill:none;stroke:#303030;stroke-width:8.808669e-02;stroke-linecap:round;stroke-linejoin:round;stroke-miterlimit:10;}
	.st101{fill:none;stroke:#303030;stroke-width:0.8786;stroke-miterlimit:10;}
	.st102{fill:none;stroke:#303030;stroke-width:0.8786;}
	.st103{fill:none;stroke:#221E1F;stroke-width:0.9125;}
	.st104{fill:none;stroke:#221E1F;stroke-width:0.9125;stroke-dasharray:15.7291,4.7273;}
	.st105{fill:none;stroke:#221E1F;stroke-width:0.9125;stroke-linecap:round;stroke-linejoin:round;}
	.st106{fill:#F0F0F0;stroke:#CCCCCC;stroke-miterlimit:10;}
	.st107{fill:#CCCCCC;}
</style>
<g id="Flat">
	<g>
		<polygon class="st0" points="529.6,332.5 533.4,250 534.5,244.1 536.7,238.5 539.6,233.2 543.5,228.7 548,224.8 553.1,221.7 
			558.8,219.6 646.7,194.6 648.7,194 650.6,192.8 652.2,191.3 653.5,189.5 654.5,187.7 655,185.5 655.3,183.4 655.3,116.2 
			654.3,106.2 651.8,96.3 647.4,87 641.6,78.7 634.4,71.5 626,65.7 616.8,61.3 606.9,58.7 596.8,57.8 403.8,57.8 393.8,58.7 
			383.9,61.3 374.6,65.7 366.3,71.5 359.1,78.7 353.3,87 348.9,96.3 346.4,106.2 345.4,116.2 345.4,183.4 345.7,185.5 346.2,187.7 
			347.2,189.5 348.5,191.3 350.1,192.8 352,194 354,194.6 441.9,219.6 447.4,221.7 452.6,224.8 457.2,228.7 461.1,233.2 464,238.5 
			466.2,244.1 467.2,250 471.1,332.5 471.1,508 466.8,617.3 465.8,623.5 463.6,629.4 460.5,634.7 456.5,639.6 451.7,643.4 
			446.3,646.5 440.4,648.7 313.3,680.4 252.8,687.4 249.7,688.1 246.8,689.3 244.1,690.9 241.7,693.2 239.8,695.7 238.5,698.5 
			237.5,701.6 237.3,704.8 237.3,718.4 237.5,720.6 238.2,722.9 239.3,724.9 240.8,726.7 242.5,728.1 244.5,729.2 246.7,729.9 
			248.9,730 751.7,730 754,729.9 756.2,729.2 758.2,728.1 759.9,726.7 761.4,724.9 762.5,722.9 763.1,720.6 763.4,718.4 
			763.4,704.8 763.1,701.6 762.2,698.5 760.9,695.7 759,693.2 756.6,690.9 753.9,689.3 750.9,688.1 747.9,687.4 687.4,680.4 
			560.2,648.7 554.3,646.5 549,643.4 544.2,639.6 540.1,634.7 536.9,629.4 534.9,623.5 533.8,617.3 529.6,508 		"/>
		<polygon class="st39" points="529.6,332.5 533.4,250 534.5,244.1 536.7,238.5 539.6,233.2 543.5,228.7 548,224.8 553.1,221.7 
			558.8,219.6 646.7,194.6 648.7,194 650.6,192.8 652.2,191.3 653.5,189.5 654.5,187.7 655,185.5 655.3,183.4 655.3,116.2 
			654.3,106.2 651.8,96.3 647.4,87 641.6,78.7 634.4,71.5 626,65.7 616.8,61.3 606.9,58.7 596.8,57.8 403.8,57.8 393.8,58.7 
			383.9,61.3 374.6,65.7 366.3,71.5 359.1,78.7 353.3,87 348.9,96.3 346.4,106.2 345.4,116.2 345.4,183.4 345.7,185.5 346.2,187.7 
			347.2,189.5 348.5,191.3 350.1,192.8 352,194 354,194.6 441.9,219.6 447.4,221.7 452.6,224.8 457.2,228.7 461.1,233.2 464,238.5 
			466.2,244.1 467.2,250 471.1,332.5 471.1,508 466.8,617.3 465.8,623.5 463.6,629.4 460.5,634.7 456.5,639.6 451.7,643.4 
			446.3,646.5 440.4,648.7 313.3,680.4 252.8,687.4 249.7,688.1 246.8,689.3 244.1,690.9 241.7,693.2 239.8,695.7 238.5,698.5 
			237.5,701.6 237.3,704.8 237.3,718.4 237.5,720.6 238.2,722.9 239.3,724.9 240.8,726.7 242.5,728.1 244.5,729.2 246.7,729.9 
			248.9,730 751.7,730 754,729.9 756.2,729.2 758.2,728.1 759.9,726.7 761.4,724.9 762.5,722.9 763.1,720.6 763.4,718.4 
			763.4,704.8 763.1,701.6 762.2,698.5 760.9,695.7 759,693.2 756.6,690.9 753.9,689.3 750.9,688.1 747.9,687.4 687.4,680.4 
			560.2,648.7 554.3,646.5 549,643.4 544.2,639.6 540.1,634.7 536.9,629.4 534.9,623.5 533.8,617.3 529.6,508 		"/>
		<path class="st40" d="M593.1,57.8H151.8 M558.8,219.6l-58.4,16.6l-58.4-16.6 M560.2,648.7l-59.9-15l-59.9,15"/>
		<g>
			<path class="st41" d="M237.3,717.1v77.3 M748,730H151.8"/>
		</g>
		<path class="st42" d="M754.5,689.1h49.5 M753.3,730h106.5 M500.3,633.7H859 M763.4,718.4v72.4"/>
		<path class="st41" d="M313.3,684.1v90.7 M309.6,680.4H194.9 M655.3,112.6V15 M345.4,112.6V15 M651.7,192.2H697 M504,236.2h259.5
			 M600.4,57.8h163"/>
		<g>
			<path class="st8" d="M144.1,422.2L144.1,422.2l1.1,2l-1.2,0.3l-1.3-2.5v-1.3H154v1.5H144.1z"/>
			<path class="st8" d="M144.1,413.3L144.1,413.3l1.1,2l-1.2,0.3l-1.3-2.5v-1.3H154v1.5H144.1z"/>
			<path class="st8" d="M144,401v4.3l2.9,0.4c0-0.3-0.1-0.5-0.1-0.9c0-0.9,0.2-1.7,0.6-2.4c0.5-0.9,1.5-1.6,2.9-1.6
				c2.2,0,3.8,1.7,3.8,4.2c0,1.2-0.3,2.3-0.7,2.8l-1.2-0.4c0.3-0.5,0.6-1.4,0.6-2.4c0-1.4-0.9-2.7-2.4-2.7c-1.5,0-2.5,1-2.5,3.2
				c0,0.6,0.1,1.1,0.1,1.6l-5.4-0.7V401H144z"/>
		</g>
		<g>
			<path class="st6" d="M141.9,391.3c1.7,1.3,3.9,2.2,7.1,2.2c3.1,0,5.3-1,7-2.2v1.2c-1.4,1.1-3.7,2.3-7,2.3c-3.4,0-5.6-1.2-7.1-2.3
				V391.3z"/>
			<path class="st6" d="M154,385.5h-3.1v5.2h-1l-7.2-5v-1.6h7v-1.6h1.2v1.6h3.1V385.5z M149.7,385.5h-3.8c-0.6,0-1.2,0-1.8-0.1v0.1
				c0.7,0.3,1.1,0.6,1.7,0.9l3.8,2.8h0V385.5z"/>
			<path class="st6" d="M153.1,381.2c-0.6,0-1.1-0.4-1.1-1c0-0.6,0.5-1,1.1-1c0.6,0,1.1,0.4,1.1,1
				C154.1,380.8,153.7,381.2,153.1,381.2z"/>
			<path class="st6" d="M144,371v4.3l2.9,0.4c0-0.3-0.1-0.5-0.1-0.9c0-0.9,0.2-1.7,0.6-2.4c0.5-0.9,1.5-1.6,2.9-1.6
				c2.2,0,3.8,1.7,3.8,4.2c0,1.2-0.3,2.3-0.7,2.8l-1.2-0.4c0.3-0.5,0.6-1.4,0.6-2.4c0-1.4-0.9-2.7-2.4-2.7c-1.5,0-2.5,1-2.5,3.2
				c0,0.6,0.1,1.1,0.1,1.6l-5.4-0.7V371H144z"/>
			<path class="st6" d="M154,368.9H153l-1.2-1.2c-2.7-2.9-4.2-4.2-5.9-4.2c-1.1,0-2.2,0.6-2.2,2.2c0,1,0.5,1.9,1,2.4l-1.1,0.5
				c-0.7-0.8-1.1-1.9-1.1-3.2c0-2.4,1.7-3.4,3.3-3.4c2.1,0,3.8,1.5,6,3.9l0.8,0.9h0v-5.1h1.3V368.9z"/>
			<path class="st6" d="M151.1,360.1c-1.4,0-2.4-0.8-3-2.2l-0.1,0c-0.6,1.2-1.6,1.8-2.5,1.8c-1.8,0-3-1.5-3-3.5
				c0-2.2,1.4-3.3,2.8-3.3c1,0,2,0.5,2.6,1.9h0.1c0.6-1.4,1.5-2.3,2.9-2.3c2,0,3.3,1.7,3.3,3.8C154.1,358.7,152.7,360.1,151.1,360.1
				z M145.4,358.2c1.1,0,1.7-0.8,2.1-2.1c-0.3-1-1-1.7-2-1.7c-0.9,0-1.8,0.5-1.8,1.9C143.6,357.5,144.4,358.2,145.4,358.2z M151,354
				c-1.4,0-2,1-2.5,2.5c0.4,1.3,1.2,2,2.3,2c1.1,0.1,2.1-0.8,2.1-2.3C153,354.9,152.2,354,151,354z"/>
			<path class="st6" d="M142.1,346.9l4.2,0.3v0.9l-4.2,0.3V346.9z M142.1,349.5l4.2,0.3v0.9l-4.2,0.3V349.5z"/>
		</g>
		<g>
			<path class="st6" d="M156,345.6c-1.7-1.2-4-2.2-7.1-2.2c-3.1,0-5.3,0.9-7,2.2v-1.2c1.4-1.1,3.6-2.3,7-2.3c3.4,0,5.6,1.2,7.1,2.3
				V345.6z"/>
		</g>
		<g>
			<path class="st8" d="M270.7,743.7L270.7,743.7l-2,1.1l-0.3-1.2l2.5-1.3h1.3v11.3h-1.5V743.7z"/>
			<path class="st8" d="M276.7,751.8c0.4,0.3,1.4,0.7,2.5,0.7c2,0,2.6-1.2,2.5-2.2c0-1.6-1.4-2.3-2.9-2.3H278v-1.1h0.8
				c1.1,0,2.5-0.6,2.5-1.9c0-0.9-0.6-1.7-2-1.7c-0.9,0-1.8,0.4-2.3,0.7l-0.4-1.1c0.6-0.4,1.7-0.9,2.9-0.9c2.2,0,3.2,1.3,3.2,2.7
				c0,1.2-0.7,2.1-2.1,2.7v0c1.4,0.3,2.5,1.3,2.5,2.9c0,1.8-1.4,3.4-4.1,3.4c-1.3,0-2.4-0.4-2.9-0.8L276.7,751.8z"/>
		</g>
		<g>
			<path class="st8" d="M470.2,8.6h-4.3l-0.4,2.9c0.3,0,0.5-0.1,0.9-0.1c0.9,0,1.7,0.2,2.4,0.6c0.9,0.5,1.6,1.5,1.6,2.9
				c0,2.2-1.7,3.8-4.2,3.8c-1.2,0-2.3-0.3-2.8-0.7l0.4-1.2c0.5,0.3,1.4,0.6,2.4,0.6c1.4,0,2.7-0.9,2.7-2.4c0-1.5-1-2.5-3.2-2.5
				c-0.6,0-1.1,0.1-1.6,0.1l0.7-5.4h5.4V8.6z"/>
			<path class="st8" d="M472.8,16.8c0.4,0.3,1.4,0.7,2.5,0.7c2,0,2.6-1.2,2.5-2.2c0-1.6-1.4-2.3-2.9-2.3H474V12h0.8
				c1.1,0,2.5-0.6,2.5-1.9c0-0.9-0.6-1.7-2-1.7c-0.9,0-1.8,0.4-2.3,0.7L472.8,8c0.6-0.4,1.7-0.9,2.9-0.9c2.2,0,3.2,1.3,3.2,2.7
				c0,1.2-0.7,2.1-2.1,2.6v0c1.4,0.3,2.5,1.3,2.5,2.9c0,1.8-1.4,3.4-4.1,3.4c-1.3,0-2.4-0.4-2.9-0.8L472.8,16.8z"/>
		</g>
		<g>
			<path class="st6" d="M488.8,6.6c-1.3,1.7-2.2,3.9-2.2,7.1c0,3.1,1,5.3,2.2,7h-1.2c-1.1-1.4-2.3-3.7-2.3-7c0-3.4,1.2-5.6,2.3-7.1
				H488.8z"/>
			<path class="st6" d="M489.9,18.6v-0.9l1.2-1.2c2.9-2.7,4.2-4.2,4.2-5.9c0-1.1-0.6-2.2-2.2-2.2c-1,0-1.9,0.5-2.4,1l-0.5-1.1
				c0.8-0.7,1.9-1.1,3.2-1.1c2.4,0,3.4,1.7,3.4,3.3c0,2.1-1.5,3.8-3.9,6l-0.9,0.8v0h5.1v1.3H489.9z"/>
			<path class="st6" d="M498.9,17.7c0-0.6,0.4-1.1,1-1.1c0.6,0,1,0.5,1,1.1c0,0.6-0.4,1.1-1,1.1C499.3,18.8,498.9,18.3,498.9,17.7z"
				/>
			<path class="st6" d="M509.8,12.8c0,3.8-1.4,5.9-3.9,5.9c-2.2,0-3.7-2.1-3.7-5.8c0-3.8,1.6-5.9,3.9-5.9
				C508.5,7.1,509.8,9.2,509.8,12.8z M503.7,13c0,2.9,0.9,4.6,2.3,4.6c1.6,0,2.3-1.8,2.3-4.7c0-2.8-0.7-4.6-2.3-4.6
				C504.7,8.3,503.7,9.9,503.7,13z"/>
			<path class="st6" d="M511.1,15.7c0-1.4,0.8-2.4,2.2-3l0-0.1c-1.2-0.6-1.8-1.6-1.8-2.5c0-1.8,1.5-3,3.5-3c2.2,0,3.3,1.4,3.3,2.8
				c0,1-0.5,2-1.9,2.6v0.1c1.4,0.6,2.3,1.5,2.3,2.9c0,2-1.7,3.3-3.8,3.3C512.5,18.8,511.1,17.4,511.1,15.7z M517.2,15.6
				c0-1.4-1-2-2.5-2.5c-1.3,0.4-2,1.2-2,2.3c-0.1,1.1,0.8,2.1,2.3,2.1C516.3,17.7,517.2,16.8,517.2,15.6z M513,10
				c0,1.1,0.8,1.7,2.1,2.1c1-0.3,1.7-1,1.7-2c0-0.9-0.5-1.8-1.9-1.8C513.7,8.2,513,9,513,10z"/>
			<path class="st6" d="M527.4,7.3v1l-4.9,10.3H521l4.9-10v0h-5.5V7.3H527.4z"/>
			<path class="st6" d="M530.6,6.7l-0.3,4.2h-0.9l-0.3-4.2H530.6z M533.2,6.7l-0.3,4.2H532l-0.3-4.2H533.2z"/>
		</g>
		<g>
			<path class="st6" d="M534.5,20.7c1.2-1.7,2.2-4,2.2-7.1c0-3.1-0.9-5.3-2.2-7h1.2c1.1,1.4,2.3,3.6,2.3,7c0,3.4-1.2,5.6-2.3,7.1
				H534.5z"/>
		</g>
		<g>
			<path class="st8" d="M745.2,144.2c0.3-0.4,0.7-1.4,0.7-2.5c0-2-1.2-2.6-2.2-2.5c-1.6,0-2.3,1.4-2.3,2.9v0.8h-1.1v-0.8
				c0-1.1-0.6-2.5-1.9-2.5c-0.9,0-1.7,0.6-1.7,2c0,0.9,0.4,1.8,0.7,2.3l-1.1,0.4c-0.4-0.6-0.9-1.7-0.9-2.9c0-2.2,1.3-3.2,2.7-3.2
				c1.2,0,2.1,0.7,2.6,2.1h0c0.3-1.4,1.3-2.5,2.9-2.5c1.8,0,3.4,1.4,3.4,4.1c0,1.3-0.4,2.4-0.8,2.9L745.2,144.2z"/>
			<path class="st8" d="M741.2,128.2c3.8,0,5.9,1.4,5.9,3.9c0,2.2-2.1,3.7-5.8,3.7c-3.8,0-5.9-1.6-5.9-3.9
				C735.5,129.6,737.6,128.2,741.2,128.2z M741.3,134.3c2.9,0,4.6-0.9,4.6-2.3c0-1.6-1.8-2.3-4.7-2.3c-2.8,0-4.6,0.7-4.6,2.3
				C736.6,133.4,738.3,134.3,741.3,134.3z"/>
			<path class="st8" d="M746,126.7c-0.6,0-1.1-0.4-1.1-1c0-0.6,0.5-1,1.1-1c0.6,0,1.1,0.4,1.1,1C747.1,126.3,746.6,126.7,746,126.7z
				"/>
		</g>
		<g>
			<path class="st8" d="M736.9,116.5v4.3l2.9,0.4c0-0.3-0.1-0.5-0.1-0.9c0-0.9,0.2-1.7,0.6-2.4c0.5-0.9,1.5-1.6,2.9-1.6
				c2.2,0,3.8,1.7,3.8,4.2c0,1.2-0.3,2.3-0.7,2.8l-1.2-0.4c0.3-0.5,0.6-1.4,0.6-2.4c0-1.4-0.9-2.7-2.4-2.7c-1.5,0-2.5,1-2.5,3.2
				c0,0.6,0.1,1.1,0.1,1.6l-5.4-0.7v-5.4H736.9z"/>
		</g>
		<g>
			<path class="st8" d="M740.5,421.3c0,0.3,0,0.7,0.1,1.1c0.4,2.4,2.1,3.7,4,3.9v-0.1c-0.7-0.5-1.3-1.5-1.3-2.7c0-2,1.4-3.4,3.6-3.4
				c2.1,0,4,1.4,4,3.7c0,2.4-1.9,4-4.8,4c-2.2,0-4-0.8-5.1-1.9c-0.9-0.9-1.5-2.2-1.7-3.6c-0.1-0.5-0.1-0.8-0.1-1.1H740.5z
				 M747,421.7c-1.6,0-2.6,0.9-2.6,2.3c0,0.9,0.6,1.8,1.4,2.2c0.2,0.1,0.4,0.2,0.7,0.2c1.9,0,3.2-0.9,3.2-2.5
				C749.7,422.6,748.6,421.7,747,421.7z"/>
			<path class="st8" d="M747.8,419c-1.4,0-2.4-0.8-3-2.2l-0.1,0c-0.6,1.2-1.6,1.8-2.5,1.8c-1.8,0-3-1.5-3-3.5c0-2.2,1.4-3.3,2.8-3.3
				c1,0,2,0.5,2.6,1.9h0.1c0.6-1.4,1.5-2.3,2.9-2.3c2,0,3.3,1.7,3.3,3.8C750.9,417.6,749.5,419,747.8,419z M742.1,417.1
				c1.1,0,1.7-0.8,2.1-2.1c-0.3-1-1-1.7-2-1.7c-0.9,0-1.8,0.5-1.8,1.9C740.3,416.4,741.2,417.1,742.1,417.1z M747.8,412.9
				c-1.4,0-2,1-2.5,2.5c0.4,1.3,1.2,2,2.3,2c1.1,0.1,2.1-0.8,2.1-2.3C749.8,413.8,748.9,412.9,747.8,412.9z"/>
		</g>
		<g>
			<path class="st8" d="M205,715.2c-1.4,0-2.4-0.8-3-2.2l-0.1,0c-0.6,1.2-1.6,1.8-2.5,1.8c-1.8,0-3-1.5-3-3.5c0-2.2,1.4-3.3,2.8-3.3
				c1,0,2,0.5,2.6,1.9h0.1c0.6-1.4,1.5-2.3,2.9-2.3c2,0,3.3,1.7,3.3,3.8C208,713.8,206.6,715.2,205,715.2z M199.3,713.4
				c1.1,0,1.7-0.8,2.1-2.1c-0.3-1-1-1.7-2-1.7c-0.9,0-1.8,0.5-1.8,1.9C197.5,712.7,198.3,713.4,199.3,713.4z M204.9,709.2
				c-1.4,0-2,1-2.5,2.5c0.4,1.3,1.2,2,2.3,2c1.1,0.1,2.1-0.8,2.1-2.3C206.9,710.1,206.1,709.2,204.9,709.2z"/>
			<path class="st8" d="M207,706.1c-0.6,0-1.1-0.4-1.1-1c0-0.6,0.5-1,1.1-1c0.6,0,1.1,0.4,1.1,1C208,705.7,207.6,706.1,207,706.1z"
				/>
		</g>
		<g>
			<path class="st8" d="M197.9,695.9v4.3l2.9,0.4c0-0.3-0.1-0.5-0.1-0.9c0-0.9,0.2-1.7,0.6-2.4c0.5-0.9,1.5-1.6,2.9-1.6
				c2.2,0,3.8,1.8,3.8,4.2c0,1.2-0.3,2.3-0.7,2.8l-1.2-0.4c0.3-0.5,0.6-1.4,0.6-2.4c0-1.4-0.9-2.7-2.4-2.7c-1.5,0-2.5,1-2.5,3.2
				c0,0.6,0.1,1.1,0.1,1.6l-5.4-0.7v-5.4H197.9z"/>
		</g>
		<g>
			<path class="st6" d="M466.7,777.1c0.3,0,0.7,0,1.2-0.1c0.9-0.1,1.7-0.5,2.4-1.1c0.7-0.7,1.3-1.7,1.5-3h-0.1
				c-0.6,0.8-1.5,1.2-2.6,1.2c-2,0-3.3-1.5-3.3-3.4c0-2.1,1.5-4,3.8-4c2.3,0,3.7,1.9,3.7,4.7c0,2.5-0.8,4.2-1.9,5.3
				c-0.9,0.8-2.1,1.4-3.3,1.5c-0.6,0.1-1,0.1-1.4,0.1V777.1z M467.2,770.6c0,1.4,0.8,2.4,2.2,2.4c1,0,1.8-0.5,2.2-1.2
				c0.1-0.1,0.1-0.3,0.1-0.6c0-1.9-0.7-3.4-2.3-3.4C468.1,767.9,467.2,769,467.2,770.6z"/>
			<path class="st6" d="M482.2,772.4c0,3.8-1.4,5.9-3.9,5.9c-2.2,0-3.7-2.1-3.7-5.8c0-3.8,1.6-5.9,3.9-5.9
				C480.8,766.7,482.2,768.8,482.2,772.4z M476,772.6c0,2.9,0.9,4.6,2.3,4.6c1.6,0,2.3-1.8,2.3-4.7c0-2.8-0.7-4.6-2.3-4.6
				C477,767.9,476,769.5,476,772.6z"/>
			<path class="st6" d="M491,766.1c-1.3,1.7-2.2,3.9-2.2,7.1c0,3.1,1,5.3,2.2,7h-1.2c-1.1-1.4-2.3-3.7-2.3-7c0-3.4,1.2-5.6,2.3-7.1
				H491z"/>
			<path class="st6" d="M492.5,776.4c0.4,0.3,1.4,0.7,2.5,0.7c2,0,2.6-1.2,2.5-2.2c0-1.6-1.4-2.3-2.9-2.3h-0.8v-1.1h0.8
				c1.1,0,2.5-0.6,2.5-1.9c0-0.9-0.6-1.7-2-1.7c-0.9,0-1.8,0.4-2.3,0.7l-0.4-1.1c0.6-0.4,1.7-0.9,2.9-0.9c2.2,0,3.2,1.3,3.2,2.7
				c0,1.2-0.7,2.1-2.1,2.7v0c1.4,0.3,2.5,1.3,2.5,2.9c0,1.8-1.4,3.4-4.1,3.4c-1.3,0-2.4-0.4-2.9-0.8L492.5,776.4z"/>
			<path class="st6" d="M501.2,777.3c0-0.6,0.4-1.1,1-1.1c0.6,0,1,0.5,1,1.1c0,0.6-0.4,1.1-1,1.1
				C501.6,778.3,501.2,777.9,501.2,777.3z"/>
			<path class="st6" d="M511.3,768.2h-4.3l-0.4,2.9c0.3,0,0.5-0.1,0.9-0.1c0.9,0,1.7,0.2,2.4,0.6c0.9,0.5,1.6,1.5,1.6,2.9
				c0,2.2-1.7,3.8-4.2,3.8c-1.2,0-2.3-0.3-2.8-0.7l0.4-1.2c0.5,0.3,1.4,0.6,2.4,0.6c1.4,0,2.7-0.9,2.7-2.4c0-1.5-1-2.5-3.2-2.5
				c-0.6,0-1.1,0.1-1.6,0.1l0.7-5.4h5.4V768.2z"/>
			<path class="st6" d="M518.2,778.2v-3.1H513v-1l5-7.2h1.6v7h1.6v1.2h-1.6v3.1H518.2z M518.2,773.9v-3.8c0-0.6,0-1.2,0.1-1.8h-0.1
				c-0.3,0.7-0.6,1.1-0.9,1.7l-2.8,3.8v0H518.2z"/>
			<path class="st6" d="M522.8,776.4c0.4,0.3,1.4,0.7,2.5,0.7c2,0,2.6-1.2,2.5-2.2c0-1.6-1.4-2.3-2.9-2.3H524v-1.1h0.8
				c1.1,0,2.5-0.6,2.5-1.9c0-0.9-0.6-1.7-2-1.7c-0.9,0-1.8,0.4-2.3,0.7l-0.4-1.1c0.6-0.4,1.7-0.9,2.9-0.9c2.2,0,3.2,1.3,3.2,2.7
				c0,1.2-0.7,2.1-2.1,2.7v0c1.4,0.3,2.5,1.3,2.5,2.9c0,1.8-1.4,3.4-4.1,3.4c-1.3,0-2.4-0.4-2.9-0.8L522.8,776.4z"/>
			<path class="st6" d="M532.9,766.3l-0.3,4.2h-0.9l-0.3-4.2H532.9z M535.5,766.3l-0.3,4.2h-0.9l-0.3-4.2H535.5z"/>
		</g>
		<g>
			<path class="st6" d="M536.8,780.3c1.2-1.7,2.2-4,2.2-7.1c0-3.1-0.9-5.3-2.2-7h1.2c1.1,1.4,2.3,3.6,2.3,7c0,3.4-1.2,5.6-2.3,7.1
				H536.8z"/>
		</g>
		<line class="st39" x1="251.2" y1="784.3" x2="749.6" y2="784.3"/>
		<polygon class="st8" points="254.2,788.7 237.3,784.2 254.2,779.6 		"/>
		<polygon class="st8" points="746.5,788.7 763.4,784.2 746.5,779.6 		"/>
		<line class="st39" x1="335.6" y1="198.3" x2="281.8" y2="243"/>
		<polygon class="st8" points="330.5,196.9 346.3,189.6 336.3,203.9 		"/>
		<g>
			<path class="st8" d="M273.2,226.4c0.5-0.6,1.3-1.4,2.1-2c1.2-1,2.2-1.5,3.2-1.4c0.8,0,1.5,0.4,2.1,1.1c1,1.2,0.9,2.6,0.2,3.7l0,0
				c0.9-0.3,1.8,0,2.8,0.7c1.3,1,2.3,1.7,2.7,1.9l-1.2,1c-0.4-0.1-1.2-0.7-2.4-1.7c-1.3-1-2.2-1.1-3.2-0.3l-1.1,0.9l3.2,3.9l-1.2,1
				L273.2,226.4z M277.7,229.5l1.2-1c1.2-1,1.5-2.4,0.6-3.4c-1-1.2-2.2-1-3.5,0c-0.6,0.5-0.9,0.8-1.1,1.1L277.7,229.5z"/>
		</g>
		<g>
			<path class="st8" d="M287.3,229.6l-0.6-0.7l0.2-1.7c0.5-3.9,0.5-5.9-0.5-7.2c-0.7-0.9-1.8-1.3-3.1-0.3c-0.8,0.7-1.1,1.6-1.2,2.3
				l-1.1-0.5c0.2-1,0.7-2.1,1.7-2.9c1.9-1.5,3.7-0.9,4.7,0.3c1.3,1.6,1.2,3.9,0.9,7.1l-0.2,1.2l0,0l3.9-3.2l0.8,1L287.3,229.6z"/>
		</g>
		<line class="st39" x1="451.2" y1="243.8" x2="397.4" y2="288.6"/>
		<polygon class="st8" points="446,242.5 461.9,235.1 451.8,249.4 		"/>
		<g>
			<path class="st8" d="M389.5,273.4c0.5-0.6,1.3-1.4,2.1-2c1.2-1,2.2-1.5,3.2-1.4c0.8,0,1.5,0.4,2.1,1.1c1,1.2,0.9,2.6,0.2,3.7l0,0
				c0.9-0.3,1.8,0,2.8,0.7c1.3,1,2.3,1.7,2.7,1.9l-1.2,1c-0.4-0.1-1.2-0.7-2.4-1.7c-1.3-1-2.2-1.1-3.2-0.3l-1.1,0.9l3.2,3.9l-1.2,1
				L389.5,273.4z M394.1,276.6l1.2-1c1.2-1,1.5-2.4,0.6-3.4c-1-1.2-2.2-1-3.5,0c-0.6,0.5-0.9,0.8-1.1,1.1L394.1,276.6z"/>
		</g>
		<g>
			<path class="st8" d="M402.1,264.8c-0.3,0.2-0.5,0.5-0.8,0.8c-1.6,1.8-1.4,4-0.5,5.6l0,0c0-0.9,0.3-1.9,1.3-2.7
				c1.5-1.3,3.5-1.1,4.9,0.6c1.3,1.6,1.4,3.9-0.4,5.4c-1.9,1.5-4.3,1.1-6.1-1.2c-1.4-1.7-1.9-3.6-1.8-5.1c0.1-1.3,0.7-2.5,1.7-3.6
				c0.3-0.3,0.6-0.6,0.8-0.8L402.1,264.8z M405.9,270c-1-1.2-2.4-1.4-3.4-0.5c-0.7,0.6-1,1.6-0.8,2.5c0,0.2,0.1,0.4,0.3,0.6
				c1.2,1.4,2.7,1.9,4,0.9C406.9,272.7,406.9,271.3,405.9,270z"/>
		</g>
		<line class="st39" x1="622" y1="79.4" x2="568.3" y2="124.1"/>
		<polygon class="st8" points="616.9,78 632.8,70.7 622.7,85 		"/>
		<g>
			<path class="st8" d="M561.6,109.1c0.5-0.6,1.3-1.4,2.1-2c1.2-1,2.2-1.5,3.2-1.4c0.8,0,1.5,0.4,2.1,1.1c1,1.2,0.9,2.6,0.2,3.7l0,0
				c0.9-0.3,1.8,0,2.8,0.7c1.3,1,2.3,1.7,2.7,1.9l-1.2,1c-0.4-0.1-1.2-0.7-2.4-1.7c-1.3-1-2.2-1.1-3.2-0.3l-1.1,0.9l3.2,3.9l-1.2,1
				L561.6,109.1z M566.1,112.2l1.2-1c1.2-1,1.5-2.4,0.6-3.4c-1-1.2-2.2-1-3.5,0c-0.6,0.5-0.9,0.8-1.1,1.1L566.1,112.2z"/>
		</g>
		<g>
			<path class="st8" d="M572,102.6L572,102.6l-0.9,2.1l-1-0.7l1.1-2.6l1-0.8l7.2,8.7l-1.1,0.9L572,102.6z"/>
		</g>
		<g>
			<path class="st8" d="M584.6,97.4c2.4,2.9,2.7,5.5,0.8,7.1c-1.7,1.4-4.2,0.8-6.6-2.1c-2.4-2.9-2.5-5.5-0.7-7
				C579.9,93.9,582.3,94.7,584.6,97.4z M580,101.5c1.9,2.3,3.6,3,4.7,2.1c1.2-1,0.6-2.9-1.2-5.1c-1.8-2.1-3.5-3.1-4.7-2.1
				C577.8,97.2,578.1,99.1,580,101.5z"/>
		</g>
		<g>
			<path class="st6" d="M512.1,751.1v-5.2l-4.7-7h2l2.4,3.7c0.4,0.7,0.9,1.4,1.2,2.1c0.4-0.6,0.8-1.4,1.3-2.2l2.4-3.6h1.9l-4.9,7
				v5.2H512.1z"/>
			<path class="st6" d="M512.1,53.2v-5.2l-4.7-7h2l2.4,3.7c0.4,0.7,0.9,1.4,1.2,2.1c0.4-0.6,0.8-1.4,1.3-2.2l2.4-3.6h1.9l-4.9,7v5.2
				H512.1z"/>
		</g>
		<line class="st43" x1="500.4" y1="751.1" x2="499.7" y2="41"/>
		<line class="st39" x1="450.5" y1="623.5" x2="381.4" y2="612.3"/>
		<polygon class="st8" points="448.1,618.7 464.1,625.9 446.6,627.7 		"/>
		<g>
			<path class="st8" d="M387.8,596.4c0.8,0,1.9,0.1,2.9,0.2c1.6,0.3,2.6,0.7,3.2,1.5c0.5,0.6,0.7,1.4,0.5,2.3
				c-0.3,1.5-1.4,2.4-2.7,2.6l0,0.1c0.8,0.5,1.2,1.4,1.3,2.6c0.1,1.7,0.2,2.8,0.4,3.3l-1.5-0.3c-0.1-0.4-0.2-1.4-0.3-2.9
				c-0.1-1.6-0.6-2.3-1.9-2.6l-1.4-0.2l-0.8,5l-1.5-0.2L387.8,596.4z M388.4,601.9l1.5,0.3c1.6,0.3,2.7-0.4,3-1.8
				c0.2-1.5-0.7-2.3-2.3-2.6c-0.7-0.1-1.2-0.1-1.5-0.1L388.4,601.9z"/>
		</g>
		<g>
			<path class="st8" d="M402.6,600.3c-0.3-0.1-0.7-0.1-1.1-0.1c-2.4,0-4,1.5-4.5,3.3l0.1,0c0.6-0.6,1.7-1,2.9-0.8
				c2,0.3,3.1,2,2.8,4.1c-0.3,2-2,3.7-4.3,3.3c-2.4-0.4-3.6-2.5-3.1-5.4c0.4-2.2,1.4-3.8,2.7-4.7c1.1-0.8,2.4-1.1,3.8-1
				c0.5,0,0.8,0.1,1.1,0.1L402.6,600.3z M401.1,606.6c0.3-1.6-0.5-2.7-1.9-2.9c-0.9-0.2-1.8,0.3-2.4,1c-0.1,0.2-0.2,0.4-0.3,0.6
				c-0.3,1.8,0.3,3.3,1.9,3.6C399.8,609.1,400.8,608.2,401.1,606.6z"/>
		</g>
		<line class="st39" x1="230.1" y1="736.4" x2="177.5" y2="782.5"/>
		<polygon class="st8" points="224.9,735.2 240.6,727.4 230.9,742 		"/>
		<g>
			<path class="st8" d="M169.1,767.2c0.5-0.6,1.2-1.4,2-2.1c1.2-1.1,2.2-1.5,3.2-1.5c0.8,0,1.6,0.4,2.1,1.1c1,1.2,1,2.6,0.3,3.7l0,0
				c0.9-0.4,1.8-0.1,2.8,0.6c1.4,1,2.3,1.6,2.8,1.8l-1.2,1c-0.4-0.1-1.2-0.7-2.4-1.6c-1.3-1-2.2-1-3.3-0.2l-1.1,0.9l3.3,3.8l-1.1,1
				L169.1,767.2z M173.7,770.2l1.2-1c1.2-1.1,1.4-2.4,0.5-3.4c-1-1.1-2.2-0.9-3.5,0.1c-0.5,0.5-0.9,0.9-1,1.1L173.7,770.2z"/>
		</g>
		<g>
			<path class="st8" d="M183.3,770.1l-0.6-0.7l0.1-1.7c0.4-4,0.4-5.9-0.7-7.2c-0.8-0.9-1.9-1.3-3.1-0.2c-0.8,0.7-1.1,1.6-1.2,2.3
				l-1.1-0.5c0.2-1,0.7-2.1,1.6-3c1.8-1.6,3.7-1,4.7,0.2c1.4,1.6,1.3,3.8,1.1,7.1l-0.1,1.2l0,0l3.8-3.3l0.8,1L183.3,770.1z"/>
		</g>
		<line class="st39" x1="231.1" y1="683.3" x2="184.9" y2="630.8"/>
		<polygon class="st8" points="232.3,678.2 240.1,693.9 225.5,684.1 		"/>
		<g>
			<path class="st8" d="M200.2,622.4c0.6,0.5,1.4,1.2,2.1,2c1.1,1.2,1.5,2.2,1.5,3.2c0,0.8-0.4,1.6-1.1,2.1c-1.2,1-2.6,1-3.7,0.3
				l0,0c0.4,0.9,0.1,1.8-0.6,2.8c-1,1.4-1.6,2.3-1.8,2.8l-1-1.2c0.1-0.4,0.7-1.2,1.6-2.4c1-1.3,1-2.2,0.2-3.3l-0.9-1.1l-3.8,3.3
				l-1-1.1L200.2,622.4z M197.2,627l1,1.2c1.1,1.2,2.4,1.4,3.4,0.5c1.1-1,0.9-2.2-0.1-3.5c-0.5-0.5-0.9-0.9-1.1-1L197.2,627z"/>
		</g>
		<g>
			<path class="st8" d="M198.9,635.7c0.1,0.5,0.4,1.6,1.1,2.3c1.3,1.5,2.6,1.1,3.3,0.5c1.2-1,0.8-2.6-0.2-3.7l-0.6-0.6l0.9-0.8
				l0.6,0.6c0.7,0.8,2.1,1.5,3.1,0.6c0.7-0.6,0.9-1.5,0-2.6c-0.6-0.7-1.5-1.1-2-1.2l0.6-1c0.7,0.2,1.8,0.7,2.6,1.6
				c1.5,1.7,1.1,3.3,0.1,4.2c-0.9,0.8-2.1,0.9-3.4,0.2l0,0c0.7,1.2,0.7,2.8-0.5,3.8c-1.4,1.2-3.5,1.2-5.2-0.9
				c-0.8-1-1.3-2.1-1.3-2.7L198.9,635.7z"/>
		</g>
		<line class="st44" x1="484" y1="420.2" x2="516" y2="420.2"/>
		<polygon class="st8" points="486.9,424.2 471.2,420 486.9,415.8 		"/>
		<polygon class="st8" points="513.2,424.2 528.9,420 513.2,415.8 		"/>
		<line class="st39" x1="529.9" y1="420.1" x2="622.9" y2="420.1"/>
		<g>
			<path class="st6" d="M553,405L553,405l-2,1l-0.3-1.2l2.5-1.3l1.3,0l-0.1,11.3l-1.5,0L553,405z"/>
		</g>
		<g>
			<path class="st6" d="M566,409.1c0,3.8-1.5,5.9-3.9,5.9c-2.2,0-3.7-2.1-3.7-5.8c0-3.8,1.7-5.8,3.9-5.8
				C564.7,403.4,566,405.5,566,409.1z M559.9,409.3c0,2.9,0.9,4.6,2.3,4.6c1.6,0,2.3-1.8,2.3-4.7c0-2.8-0.7-4.6-2.3-4.6
				C560.9,404.6,559.9,406.2,559.9,409.3z"/>
		</g>
		<g>
			<path class="st6" d="M574.9,402.9c-1.3,1.7-2.2,3.9-2.2,7.1c0,3.1,0.9,5.3,2.1,7l-1.2,0c-1.1-1.4-2.2-3.7-2.2-7
				c0-3.4,1.2-5.6,2.3-7.1L574.9,402.9z"/>
		</g>
		<g>
			<path class="st6" d="M583.5,409.2c0,3.8-1.5,5.9-3.9,5.9c-2.2,0-3.7-2.1-3.7-5.8c0-3.8,1.7-5.8,3.9-5.8
				C582.2,403.5,583.5,405.6,583.5,409.2z M577.4,409.4c0,2.9,0.9,4.6,2.3,4.6c1.6,0,2.3-1.8,2.3-4.7c0-2.8-0.7-4.6-2.3-4.6
				C578.4,404.7,577.4,406.3,577.4,409.4z"/>
		</g>
		<g>
			<path class="st6" d="M585,414.1c0-0.6,0.4-1.1,1-1.1c0.6,0,1,0.5,1,1.1c0,0.6-0.4,1.1-1,1.1C585.4,415.2,585,414.7,585,414.1z"/>
			<path class="st6" d="M588.9,413.3c0.4,0.3,1.4,0.7,2.5,0.7c2,0,2.6-1.2,2.6-2.2c0-1.6-1.4-2.3-2.9-2.3l-0.8,0l0-1.1l0.8,0
				c1.1,0,2.5-0.6,2.5-1.9c0-0.9-0.6-1.7-2-1.7c-0.9,0-1.8,0.4-2.3,0.7l-0.4-1.1c0.6-0.4,1.7-0.9,2.9-0.8c2.2,0,3.2,1.3,3.2,2.7
				c0,1.2-0.7,2.1-2.1,2.6v0c1.4,0.3,2.5,1.3,2.5,2.9c0,1.8-1.4,3.4-4.1,3.4c-1.3,0-2.4-0.4-2.9-0.8L588.9,413.3z"/>
		</g>
		<g>
			<path class="st6" d="M598.3,414c0.3,0,0.7,0,1.2,0c0.9-0.1,1.7-0.5,2.4-1.1c0.7-0.7,1.3-1.7,1.5-3l-0.1,0
				c-0.6,0.8-1.5,1.2-2.7,1.2c-2,0-3.3-1.5-3.3-3.5c0-2.1,1.6-4,3.9-4c2.3,0,3.7,1.9,3.7,4.8c0,2.5-0.9,4.2-2,5.3
				c-0.9,0.8-2.1,1.4-3.3,1.5c-0.6,0.1-1,0.1-1.4,0.1L598.3,414z M598.9,407.5c0,1.4,0.8,2.4,2.2,2.4c1,0,1.8-0.5,2.2-1.2
				c0.1-0.1,0.1-0.3,0.1-0.6c0-1.9-0.7-3.4-2.3-3.4C599.8,404.8,598.9,405.9,598.9,407.5z"/>
		</g>
		<g>
			<path class="st6" d="M611,415.1l0-3.1l-5.2,0l0-1l5.1-7.2l1.6,0l0,7l1.6,0l0,1.2l-1.6,0l0,3.1L611,415.1z M611,410.9l0-3.8
				c0-0.6,0-1.2,0.1-1.8h-0.1c-0.4,0.7-0.6,1.1-0.9,1.7l-2.8,3.8v0L611,410.9z"/>
		</g>
		<g>
			<path class="st6" d="M616.9,403.3l-0.3,4.2l-0.9,0l-0.3-4.2L616.9,403.3z M619.5,403.3l-0.3,4.2l-0.9,0l-0.3-4.2L619.5,403.3z"/>
			<path class="st6" d="M620.6,417.3c1.2-1.7,2.2-4,2.2-7.1c0-3.1-0.9-5.3-2.1-7l1.2,0c1.1,1.4,2.2,3.6,2.2,7.1
				c0,3.4-1.2,5.6-2.3,7.1L620.6,417.3z"/>
		</g>
		<g>
			<path class="st6" d="M979.8,393.8l-1.5-2.6c-0.6-1-1-1.6-1.3-2.3l0,0c-0.3,0.7-0.7,1.3-1.3,2.3l-1.4,2.6l-1.7,0l3.6-5.9l-3.4-5.8
				l1.7,0l1.5,2.7c0.4,0.8,0.8,1.4,1.1,2h0.1c0.3-0.7,0.6-1.2,1.1-2l1.6-2.7l1.7,0l-3.6,5.7l3.6,6L979.8,393.8z"/>
		</g>
		<line class="st41" x1="215.9" y1="716.2" x2="215.9" y2="694.2"/>
		<polygon class="st8" points="220.2,713.1 215.7,730 211.1,713.1 		"/>
		<polygon class="st8" points="220.2,697.3 215.7,680.4 211.1,697.3 		"/>
		<line class="st39" x1="159" y1="716.2" x2="159" y2="71.6"/>
		<polygon class="st8" points="163.3,713.1 158.8,730 154.3,713.1 		"/>
		<polygon class="st8" points="163.3,74.7 158.8,57.8 154.3,74.7 		"/>
		<g>
			<path class="st8" d="M779.4,704.5h1l10.3,4.9v1.6l-10-4.9h0v5.5h-1.3V704.5z"/>
		</g>
		<line class="st39" x1="798.7" y1="716.2" x2="798.7" y2="703"/>
		<polygon class="st8" points="803,713.1 798.5,730 793.9,713.1 		"/>
		<polygon class="st8" points="803,706.1 798.5,689.2 793.9,706.1 		"/>
		<g>
			<path class="st8" d="M834.3,695.6L834.3,695.6l1.1,2l-1.2,0.3l-1.3-2.5v-1.3h11.3v1.5H834.3z"/>
			<path class="st8" d="M833.9,683.6c0,0.3,0,0.7,0.1,1.1c0.4,2.4,2.1,3.7,4,3.9v-0.1c-0.7-0.5-1.3-1.5-1.3-2.7c0-2,1.4-3.4,3.6-3.4
				c2.1,0,4,1.4,4,3.7c0,2.4-1.9,4-4.8,4c-2.2,0-4-0.8-5.1-1.9c-0.9-0.9-1.5-2.2-1.7-3.6c-0.1-0.5-0.1-0.8-0.1-1.1H833.9z
				 M840.4,684c-1.6,0-2.6,0.9-2.6,2.3c0,0.9,0.6,1.8,1.4,2.2c0.2,0.1,0.4,0.2,0.7,0.2c1.9,0,3.2-0.9,3.2-2.5
				C843.1,684.9,842,684,840.4,684z"/>
			<path class="st8" d="M843.2,681c-0.6,0-1.1-0.4-1.1-1c0-0.6,0.5-1,1.1-1c0.6,0,1.1,0.4,1.1,1C844.3,680.6,843.8,681,843.2,681z"
				/>
		</g>
		<g>
			<path class="st8" d="M834.1,670.8v4.3l2.9,0.4c0-0.3-0.1-0.5-0.1-0.9c0-0.9,0.2-1.7,0.6-2.4c0.5-0.9,1.5-1.6,2.9-1.6
				c2.2,0,3.8,1.8,3.8,4.2c0,1.2-0.3,2.3-0.7,2.8l-1.2-0.4c0.3-0.5,0.6-1.4,0.6-2.4c0-1.4-0.9-2.7-2.4-2.7c-1.5,0-2.5,1-2.5,3.2
				c0,0.6,0.1,1.1,0.1,1.6l-5.4-0.7v-5.4H834.1z"/>
		</g>
		<line class="st39" x1="852.1" y1="716.2" x2="852.1" y2="647.3"/>
		<polygon class="st8" points="856.5,713.1 851.9,730 847.4,713.1 		"/>
		<polygon class="st8" points="856.5,650.4 851.9,633.5 847.4,650.4 		"/>
		<g>
			<path class="st8" d="M678.8,135.1h-0.9l-1.2-1.2c-2.7-2.9-4.2-4.2-5.9-4.2c-1.1,0-2.2,0.6-2.2,2.2c0,1,0.5,1.9,1,2.4l-1.1,0.5
				c-0.7-0.8-1.1-1.9-1.1-3.2c0-2.4,1.7-3.4,3.3-3.4c2.1,0,3.8,1.5,6,3.9l0.8,0.9h0v-5.1h1.3V135.1z"/>
			<path class="st8" d="M677.1,125.8c0.3-0.4,0.7-1.4,0.7-2.5c0-2-1.2-2.6-2.2-2.5c-1.6,0-2.3,1.4-2.3,2.9v0.8h-1.1v-0.8
				c0-1.1-0.6-2.5-1.9-2.5c-0.9,0-1.7,0.6-1.7,2c0,0.9,0.4,1.8,0.7,2.3l-1.1,0.4c-0.4-0.6-0.9-1.7-0.9-2.9c0-2.2,1.3-3.2,2.7-3.2
				c1.2,0,2.1,0.7,2.6,2.1h0c0.3-1.4,1.3-2.5,2.9-2.5c1.8,0,3.4,1.4,3.4,4.1c0,1.3-0.4,2.4-0.8,2.9L677.1,125.8z"/>
		</g>
		<line class="st45" x1="686.8" y1="178.4" x2="686.8" y2="71.6"/>
		<polygon class="st8" points="691.2,175.3 686.6,192.2 682.1,175.3 		"/>
		<polygon class="st8" points="691.2,74.7 686.6,57.8 682.1,74.7 		"/>
		<line class="st39" x1="753.3" y1="223.1" x2="753.3" y2="71.6"/>
		<polygon class="st8" points="757.7,220.1 753.1,237 748.6,220.1 		"/>
		<polygon class="st8" points="757.7,74.7 753.1,57.8 748.6,74.7 		"/>
		<line class="st39" x1="753.3" y1="619.7" x2="753.3" y2="250"/>
		<polygon class="st8" points="757.7,616.6 753.1,633.5 748.6,616.6 		"/>
		<polygon class="st8" points="757.7,253.1 753.1,236.2 748.6,253.1 		"/>
		<line class="st46" x1="938.7" y1="388.5" x2="383.6" y2="387.5"/>
		<line class="st47" x1="340.1" y1="387.5" x2="265.1" y2="387.5"/>
		<path class="st39" d="M260.2,387.5h-15.1 M379.4,387.5l-14.4,0h-15.1 M961.6,388.5l-14.4,0"/>
		<g>
			<path class="st6" d="M229.7,393.8l-1.5-2.6c-0.6-1-1-1.6-1.3-2.3h0c-0.3,0.7-0.7,1.3-1.3,2.3l-1.4,2.6l-1.7,0l3.6-5.9l-3.4-5.8
				l1.7,0l1.5,2.7c0.4,0.8,0.8,1.4,1.1,2l0.1,0c0.3-0.7,0.6-1.2,1.1-2l1.6-2.7l1.7,0l-3.6,5.7l3.6,6L229.7,393.8z"/>
		</g>
		<line class="st41" x1="251.1" y1="758.2" x2="299.4" y2="758.2"/>
		<polygon class="st8" points="254.2,762.5 237.3,758 254.2,753.5 		"/>
		<polygon class="st8" points="296.4,762.5 313.3,758 296.4,753.5 		"/>
		<line class="st39" x1="359.2" y1="24.5" x2="641.4" y2="24.5"/>
		<polygon class="st8" points="362.3,28.8 345.4,24.3 362.3,19.7 		"/>
		<polygon class="st8" points="638.4,28.8 655.3,24.3 638.4,19.7 		"/>
	</g>
</g>
<g id="Watermark">
	<g>
		<rect x="438.5" y="667.1" class="st0" width="123.1" height="46.3"/>
		<g>
			<rect x="444.9" y="675" class="st106" width="62.9" height="30.6"/>
			<rect x="507.7" y="675" class="st106" width="47.4" height="30.6"/>
			<g>
				<path class="st107" d="M466.5,681.1l-2.8,18.9H461l-1.6-11l-1.5,11h-2.7l-2.8-18.9h2.5l1.8,14.2l1.8-14.2h2l1.8,14.2l1.8-14.2
					H466.5z"/>
				<path class="st107" d="M467.9,700v-18.9h2.5V700H467.9z"/>
				<path class="st107" d="M472.8,681.1h5c1.9,0,2.9,1.1,2.9,3.2v4.7c0,1.7-0.5,2.7-1.5,3.1l1.8,7.9h-2.4l-1.7-7.6h-1.5v7.6h-2.5
					V681.1z M475.4,690.2h1.7c0.8,0,1.1-0.5,1.1-1.4v-4.1c0-0.9-0.4-1.4-1.1-1.4h-1.7V690.2z"/>
				<path class="st107" d="M486.8,683.4V700h-2.5v-16.6h-2.4v-2.3h7.4v2.3H486.8z"/>
				<path class="st107" d="M496.3,700v-8.6h-3.1v8.6h-2.5v-18.9h2.5v8h3.1v-8h2.5V700H496.3z"/>
			</g>
			<g>
				<path class="st107" d="M516.3,681.1h5c1.9,0,2.9,1.1,2.9,3.2v4.7c0,1.7-0.5,2.7-1.5,3.1l1.8,7.9H522l-1.7-7.6h-1.5v7.6h-2.5
					V681.1z M518.8,690.2h1.7c0.8,0,1.1-0.5,1.1-1.4v-4.1c0-0.9-0.4-1.4-1.1-1.4h-1.7V690.2z"/>
				<path class="st107" d="M528.7,700h-2.5v-15.7c0-2.2,1-3.2,3-3.2h1.9c2,0,3,1.1,3,3.2V700h-2.5v-6.9h-2.9V700z M531.6,690.8v-6.3
					c0-0.7-0.4-1.1-1.1-1.1h-0.7c-0.7,0-1.1,0.4-1.1,1.1v6.3H531.6z"/>
				<path class="st107" d="M536.3,700v-18.9h2.5V700H536.3z"/>
				<path class="st107" d="M547.2,700h-6v-18.9h2.5v16.6h3.5V700z"/>
			</g>
		</g>
	</g>
</g>
</svg>
