<?xml version="1.0" encoding="utf-8"?>
<!-- Generator: Adobe Illustrator 25.2.3, SVG Export Plug-In . SVG Version: 6.00 Build 0)  -->
<svg version="1.1" xmlns="http://www.w3.org/2000/svg" xmlns:xlink="http://www.w3.org/1999/xlink" x="0px" y="0px"
	 viewBox="0 0 1000 800" style="enable-background:new 0 0 1000 800;" xml:space="preserve">
<style type="text/css">
	.st0{fill:#F0F0F0;}
	.st1{fill:none;stroke:#221E1F;stroke-width:1.2032;}
	.st2{fill:none;stroke:#221E1F;stroke-width:1.0736;}
	.st3{fill:none;stroke:#221E1F;stroke-width:1.2032;stroke-miterlimit:10;}
	.st4{fill:none;stroke:#221E1F;stroke-width:1.0736;stroke-linecap:round;stroke-linejoin:round;stroke-miterlimit:10;}
	.st5{fill:none;stroke:#221E1F;stroke-width:1.0736;stroke-miterlimit:10;}
	.st6{fill:#303030;}
	.st7{fill:none;stroke:#221E1F;stroke-width:1.2032;stroke-linecap:round;stroke-linejoin:round;}
	.st8{fill:#221E1F;}
	.st9{fill:none;stroke:#221E1F;stroke-width:1.2032;stroke-dasharray:15.0983,4.5412;}
	.st10{fill:none;stroke:#221E1F;stroke-width:1.327;}
	.st11{fill:none;stroke:#221E1F;stroke-width:1.327;stroke-miterlimit:10;}
	.st12{fill:none;stroke:#221E1F;stroke-width:1.5312;stroke-miterlimit:10;}
	.st13{fill:none;stroke:#221E1F;stroke-width:1.327;stroke-linecap:round;stroke-linejoin:round;}
	.st14{fill:none;stroke:#221E1F;stroke-width:1.327;stroke-dasharray:16.5574,4.9134;}
	.st15{fill:none;stroke:#221E1F;stroke-width:1.1875;stroke-linecap:round;stroke-linejoin:round;}
	.st16{fill:none;stroke:#221E1F;stroke-width:1.1875;stroke-miterlimit:10;}
	.st17{fill:none;stroke:#221E1F;stroke-width:1.0882;}
	.st18{fill:none;stroke:#221E1F;stroke-width:1.0882;stroke-miterlimit:10;}
	.st19{fill:none;stroke:#221E1F;stroke-width:1.01;stroke-linecap:round;stroke-linejoin:round;stroke-miterlimit:10;}
	.st20{fill:none;stroke:#221E1F;stroke-width:1.0268;stroke-linecap:round;stroke-linejoin:round;stroke-miterlimit:10;}
	.st21{fill:none;stroke:#221E1F;stroke-width:1.0268;}
	.st22{fill:none;stroke:#221E1F;stroke-width:1.0882;stroke-linecap:round;stroke-linejoin:round;stroke-miterlimit:10;}
	.st23{fill:none;stroke:#221E1F;stroke-width:1.0882;stroke-linecap:round;stroke-linejoin:round;}
	.st24{fill:none;stroke:#221E1F;stroke-width:1.0882;stroke-dasharray:13.6188,4.0709;}
	.st25{fill:none;stroke:#303030;stroke-width:1.0882;stroke-miterlimit:10;}
	.st26{fill:none;stroke:#303030;stroke-width:0.9459;stroke-miterlimit:10;}
	.st27{fill:none;stroke:#303030;stroke-width:0.625;stroke-miterlimit:10;}
	.st28{fill:none;stroke:#221E1F;stroke-width:1.2065;}
	.st29{fill:none;stroke:#221E1F;stroke-width:1.058;stroke-miterlimit:10;}
	.st30{fill:none;stroke:#221E1F;stroke-width:1.2065;stroke-miterlimit:10;}
	.st31{fill:none;stroke:#221E1F;stroke-width:1.2065;stroke-dasharray:15.1403,4.5538;}
	.st32{fill:none;stroke:#221E1F;stroke-width:1.2065;stroke-linecap:round;stroke-linejoin:round;}
	.st33{fill:none;stroke:#221E1F;stroke-width:1.0363;}
	.st34{fill:none;stroke:#221E1F;stroke-width:1.0363;stroke-miterlimit:10;}
	.st35{fill:none;stroke:#221E1F;stroke-width:1.0536;stroke-linecap:round;stroke-linejoin:round;stroke-miterlimit:10;}
	.st36{fill:none;stroke:#221E1F;stroke-width:1.0536;stroke-miterlimit:10;}
	.st37{fill:none;stroke:#221E1F;stroke-width:1.0363;stroke-linecap:round;stroke-linejoin:round;}
	.st38{fill:none;stroke:#221E1F;stroke-width:1.0363;stroke-dasharray:14.1142,4.2633;}
	.st39{fill:none;stroke:#221E1F;stroke-width:1.0394;}
	.st40{fill:none;stroke:#221E1F;stroke-width:1.1318;stroke-linecap:round;stroke-linejoin:round;stroke-miterlimit:10;}
	.st41{fill:none;stroke:#221E1F;stroke-width:1.0394;stroke-miterlimit:10;}
	.st42{fill:none;stroke:#221E1F;stroke-width:1.1318;stroke-miterlimit:10;}
	.st43{fill:none;stroke:#221E1F;stroke-width:1.0394;stroke-dasharray:14.096,4.2184;}
	.st44{fill:none;stroke:#221E1F;stroke-width:0.9644;stroke-linecap:round;stroke-linejoin:round;}
	.st45{fill:none;stroke:#221E1F;stroke-width:1.0394;stroke-linecap:round;stroke-linejoin:round;}
	.st46{fill:none;stroke:#221E1F;stroke-width:1.0394;stroke-dasharray:28.8705,8.4195;}
	.st47{fill:none;stroke:#221E1F;stroke-width:1.0394;stroke-dasharray:30.1958,9.7419;}
	.st48{fill:none;stroke:#221E1F;stroke-width:1.1834;}
	.st49{fill:none;stroke:#221E1F;stroke-width:1.1834;stroke-dasharray:22.2172,9.0331;}
	.st50{fill:none;stroke:#221E1F;stroke-width:1.1834;stroke-dasharray:22.205,9.024;}
	.st51{fill:none;stroke:#221E1F;stroke-width:1.1834;stroke-dasharray:22.2172,9.0362;}
	.st52{fill:none;stroke:#221E1F;stroke-width:1.1834;stroke-dasharray:22.205,9.021;}
	.st53{fill:none;stroke:#221E1F;stroke-width:1.1834;stroke-dasharray:14.8529,4.4695;}
	.st54{fill:none;stroke:#221E1F;stroke-width:1.1834;stroke-linecap:round;stroke-linejoin:round;}
	.st55{fill:none;stroke:#221E1F;stroke-width:0.9791;}
	.st56{fill:none;stroke:#221E1F;stroke-width:1.2076;}
	.st57{fill:none;stroke:#221E1F;stroke-width:1.2076;stroke-dasharray:17.3391,6.3726;}
	.st58{fill:none;stroke:#221E1F;stroke-width:1.2076;stroke-dasharray:17.3363,6.3726;}
	.st59{fill:none;stroke:#221E1F;stroke-width:0.9791;stroke-dasharray:17.5349,5.1568;}
	.st60{fill:none;stroke:#303030;stroke-width:0.9791;}
	.st61{fill:none;stroke:#221E1F;stroke-width:0.8976;stroke-linecap:round;stroke-linejoin:round;}
	.st62{fill:none;stroke:#241F21;stroke-width:0.9771;}
	
		.st63{fill:none;stroke:#241F21;stroke-width:0.9771;stroke-linecap:round;stroke-linejoin:round;stroke-miterlimit:1;stroke-dasharray:16.5466,16.5466;}
	
		.st64{fill:none;stroke:#241F21;stroke-width:0.9771;stroke-linecap:round;stroke-linejoin:round;stroke-miterlimit:1;stroke-dasharray:17.1257,17.1257;}
	
		.st65{fill:none;stroke:#241F21;stroke-width:0.9771;stroke-linecap:round;stroke-linejoin:round;stroke-miterlimit:1;stroke-dasharray:16.5967,16.5967;}
	.st66{fill:none;stroke:#241F21;stroke-width:0.9771;stroke-linecap:round;stroke-linejoin:round;stroke-miterlimit:1;}
	.st67{fill:#241F21;}
	.st68{fill:none;stroke:#241F21;stroke-width:0.7626;stroke-linecap:round;stroke-linejoin:round;stroke-miterlimit:1;}
	.st69{fill:none;stroke:#221E1F;stroke-width:1.2516;}
	.st70{fill:none;stroke:#221E1F;stroke-width:1.2516;stroke-miterlimit:10;}
	.st71{fill:none;stroke:#221E1F;stroke-width:0.6258;}
	.st72{fill:none;stroke:#221E1F;stroke-width:0.6258;stroke-dasharray:18.3883,4.6234;}
	.st73{fill:none;stroke:#221E1F;stroke-width:0.6258;stroke-dasharray:21.5524,17.6199;}
	.st74{fill:none;stroke:#221E1F;stroke-width:0.6258;stroke-dasharray:20.1706,6.4056;}
	.st75{fill:none;stroke:#221E1F;stroke-width:0.9654;}
	.st76{fill:none;stroke:#303030;stroke-width:0.9654;}
	.st77{fill:none;stroke:#303030;stroke-width:0.9017;}
	.st78{fill:none;stroke:#303030;stroke-width:0.9654;stroke-dasharray:14.0607,4.2416;}
	.st79{fill:none;stroke:#303030;stroke-width:0.9654;stroke-dasharray:13.938,4.1189;}
	.st80{fill:none;stroke:#303030;stroke-width:0.9654;stroke-dasharray:14.3912,4.5697;}
	.st81{fill:none;stroke:#303030;stroke-width:0.9654;stroke-dasharray:14.7358,4.9143;}
	.st82{fill:none;stroke:#221E1F;stroke-width:0.9654;stroke-dasharray:15.4321,4.6901;}
	.st83{fill:none;stroke:#221E1F;stroke-width:0.9654;stroke-linecap:round;stroke-linejoin:round;}
	.st84{fill:none;stroke:#303030;stroke-width:0.8686;stroke-miterlimit:10;}
	.st85{fill:none;stroke:#303030;stroke-width:0.9654;stroke-miterlimit:10;}
	.st86{fill:none;stroke:#221E1F;stroke-width:2.6151;}
	.st87{fill:none;stroke:#221E1F;stroke-width:1.816;}
	.st88{fill:none;stroke:#221E1F;stroke-width:1.816;stroke-dasharray:21.5996,5.873;}
	.st89{fill:none;stroke:#221E1F;stroke-width:1.816;stroke-dasharray:21.596,5.8693;}
	.st90{fill:none;stroke:#221E1F;stroke-width:1.816;stroke-dasharray:45.6036,34.3698;}
	.st91{fill:none;stroke:#221E1F;stroke-width:1.816;stroke-dasharray:45.5927,34.3589;}
	.st92{fill:none;stroke:#221E1F;stroke-width:1.816;stroke-dasharray:21.596,5.873;}
	.st93{fill:none;stroke:#221E1F;stroke-width:2.158;}
	.st94{fill:none;stroke:#221E1F;stroke-width:1.4986;}
	.st95{fill:none;stroke:#221E1F;stroke-width:1.4986;stroke-dasharray:19.9046,5.413;}
	.st96{fill:none;stroke:#221E1F;stroke-width:1.4986;stroke-dasharray:19.9016,5.41;}
	.st97{fill:none;stroke:#221E1F;stroke-width:1.4986;stroke-dasharray:35.6909,25.3385;}
	.st98{fill:none;stroke:#221E1F;stroke-width:0.8673;}
	.st99{fill:none;stroke:#303030;stroke-width:0.9125;stroke-miterlimit:10;}
	.st100{fill:none;stroke:#303030;stroke-width:8.808669e-02;stroke-linecap:round;stroke-linejoin:round;stroke-miterlimit:10;}
	.st101{fill:none;stroke:#303030;stroke-width:0.8786;stroke-miterlimit:10;}
	.st102{fill:none;stroke:#303030;stroke-width:0.8786;}
	.st103{fill:none;stroke:#221E1F;stroke-width:0.9125;}
	.st104{fill:none;stroke:#221E1F;stroke-width:0.9125;stroke-dasharray:15.7291,4.7273;}
	.st105{fill:none;stroke:#221E1F;stroke-width:0.9125;stroke-linecap:round;stroke-linejoin:round;}
	.st106{fill:#F0F0F0;stroke:#CCCCCC;stroke-miterlimit:10;}
	.st107{fill:#CCCCCC;}
</style>
<g id="Flat">
	<g>
		<g>
			<path class="st0" d="M833.9,697.6c0-6.1-3.3-9.2-9.3-11c-6-1.8-130.8-31-177.8-42c-64.3-15.1-99.9-15.3-102.4-55.3
				c-7-110.6-5.4-111.6-6.4-152.2c-1.3-51,4-124.7,4.6-145.6c0.7-23.8,6.4-48.4,32.1-54.5c26.5-6.2,83.1-19.4,96.8-21.8
				c9.7-1.7,14.9-6.4,14.6-11.5c-0.6-10.2,2.1-52.3-0.6-92c-1-15.2-11.4-31.8-30.2-40.6c-13.8-6.4-106.7-8.8-155.2-9.1
				c-48.5,0.3-141.7,2.7-155.5,9.1c-18.8,8.8-29.2,25.4-30.2,40.6c-2.7,39.7,0,81.8-0.6,92c-0.3,5.2,4.9,9.8,14.6,11.5
				c13.7,2.4,70.3,15.6,96.8,21.8c25.8,6.1,31.5,30.7,32.2,54.5c0.6,20.9,5.8,94.6,4.5,145.6c-1,40.6,1.9,41.2-6.2,152.2
				c-2.9,40-38.3,40.3-102.6,55.3c-47,11-171.8,40.2-177.8,42c-6,1.8-9.3,4.9-9.3,11l0.2,23.6c-0.6,5.1,5.4,9.9,11.7,10.1
				c6.8,0.2,322.2,0,322.3,0c0.1,0,315.1,0.2,321.9,0c6.3-0.2,12.3-5,11.7-10.1L833.9,697.6z"/>
			<path class="st48" d="M833.9,697.6c0-6.1-3.3-9.2-9.3-11c-6-1.8-130.8-31-177.8-42c-64.3-15.1-99.9-15.3-102.4-55.3
				c-7-110.6-5.4-111.6-6.4-152.2c-1.3-51,4-124.7,4.6-145.6c0.7-23.8,6.4-48.4,32.1-54.5c26.5-6.2,83.1-19.4,96.8-21.8
				c9.7-1.7,14.9-6.4,14.6-11.5c-0.6-10.2,2.1-52.3-0.6-92c-1-15.2-11.4-31.8-30.2-40.6c-13.8-6.4-106.7-8.8-155.2-9.1
				c-48.5,0.3-141.7,2.7-155.5,9.1c-18.8,8.8-29.2,25.4-30.2,40.6c-2.7,39.7,0,81.8-0.6,92c-0.3,5.2,4.9,9.8,14.6,11.5
				c13.7,2.4,70.3,15.6,96.8,21.8c25.8,6.1,31.5,30.7,32.2,54.5c0.6,20.9,5.8,94.6,4.5,145.6c-1,40.6,1.9,41.2-6.2,152.2
				c-2.9,40-38.3,40.3-102.6,55.3c-47,11-171.8,40.2-177.8,42c-6,1.8-9.3,4.9-9.3,11l0.2,23.6c-0.6,5.1,5.4,9.9,11.7,10.1
				c6.8,0.2,322.2,0,322.3,0c0.1,0,315.1,0.2,321.9,0c6.3-0.2,12.3-5,11.7-10.1L833.9,697.6z"/>
		</g>
		<path class="st48" d="M670.9,30.2H328.6 M313.1,21.4v131.8 M687.5,21.4v131.8"/>
		<polygon class="st8" points="667.3,25.2 686.6,30.4 667.3,35.5 		"/>
		<polygon class="st8" points="332.2,25.2 312.9,30.4 332.2,35.5 		"/>
		<line class="st48" x1="257.8" y1="237.2" x2="257.8" y2="77.6"/>
		<polygon class="st8" points="262.7,233.7 257.5,253 252.4,233.7 		"/>
		<polygon class="st8" points="262.7,81.1 257.5,61.9 252.4,81.1 		"/>
		<line class="st48" x1="300.2" y1="196.9" x2="300.2" y2="77.6"/>
		<polygon class="st8" points="305.1,193.4 300,212.6 294.8,193.4 		"/>
		<polygon class="st8" points="305.1,81.1 300,61.9 294.8,81.1 		"/>
		<line class="st48" x1="71.8" y1="714.8" x2="71.8" y2="77.6"/>
		<polygon class="st8" points="76.8,711.3 71.6,730.5 66.4,711.3 		"/>
		<polygon class="st8" points="76.8,81.1 71.6,61.9 66.4,81.1 		"/>
		<line class="st48" x1="109.2" y1="715.6" x2="109.2" y2="628.1"/>
		<polygon class="st8" points="114.1,712.1 109,731.3 103.8,712.1 		"/>
		<polygon class="st8" points="114.1,631.6 109,612.4 103.8,631.6 		"/>
		<polyline class="st48" points="724,363.7 628,363.7 559.6,359.6 		"/>
		<polygon class="st8" points="563.4,354.9 543.9,358.9 562.8,365.2 		"/>
		<line class="st49" x1="442.7" y1="240.5" x2="494.6" y2="253.4"/>
		<line class="st50" x1="560" y1="240.5" x2="508.1" y2="253.4"/>
		<line class="st51" x1="441.3" y1="625.3" x2="493.2" y2="612.4"/>
		<line class="st52" x1="558.6" y1="625.3" x2="506.7" y2="612.4"/>
		<path class="st48" d="M563.2,265l102.1,48.2h94.1 M501.7,61.9H55.4 M833.9,718.3V790 M166.1,719.4V790 M141.1,690h26.6
			 M488.8,612.4H101.2 M183,731.3H55.4"/>
		<polygon class="st8" points="564.2,271 549,258.1 568.7,261.7 		"/>
		<polyline class="st48" points="563.2,600 665.2,551.7 760.6,551.7 		"/>
		<polygon class="st8" points="568.5,602.9 548.9,606.5 564.1,593.6 		"/>
		<line class="st48" x1="554.6" y1="79.4" x2="549" y2="181.8"/>
		<polygon class="st8" points="549.5,82.6 555.7,63.7 559.8,83.2 		"/>
		<polyline class="st48" points="672.1,198.9 650.8,178.6 590.3,178.6 		"/>
		<polygon class="st8" points="672.9,192.9 683.3,209.9 665.8,200.4 		"/>
		<polyline class="st48" points="665.8,99.5 611.2,127.7 572,127.7 		"/>
		<polygon class="st8" points="660.4,96.7 679.9,92.4 665.2,105.9 		"/>
		<path class="st48" d="M319.5,212.4h-29.2 M495,253.4H249.2"/>
		<g>
			<path class="st8" d="M574.1,121.8v-14.1h6.3c1.3,0,2.2,0.1,2.9,0.4c0.7,0.3,1.2,0.7,1.6,1.3c0.4,0.6,0.6,1.4,0.6,2.1
				c0,1-0.3,1.8-1,2.5c-0.6,0.7-1.7,1.1-3,1.3c0.5,0.2,0.9,0.5,1.1,0.7c0.5,0.5,1.1,1.1,1.6,1.9l2.5,3.8h-2.3l-1.9-2.9
				c-0.5-0.8-1-1.5-1.3-1.9c-0.4-0.4-0.7-0.8-0.9-0.9s-0.6-0.3-0.9-0.4c-0.2,0-0.6-0.1-1-0.1h-2.2v6.3H574.1z M575.9,113.9h4
				c0.9,0,1.5-0.1,2-0.3c0.5-0.2,0.8-0.5,1.1-0.8s0.4-0.8,0.4-1.3c0-0.7-0.2-1.2-0.7-1.6s-1.3-0.6-2.3-0.6h-4.5V113.9z"/>
			<path class="st8" d="M590.3,114.1c-0.7-0.3-1.3-0.6-1.6-1.1s-0.5-1.1-0.5-1.8c0-1,0.4-1.9,1.1-2.6s1.7-1,2.9-1
				c1.2,0,2.2,0.4,3,1.1c0.8,0.7,1.1,1.6,1.1,2.6c0,0.7-0.2,1.2-0.5,1.7c-0.3,0.5-0.9,0.9-1.6,1.1c0.9,0.3,1.5,0.7,2,1.4
				s0.7,1.4,0.7,2.3c0,1.2-0.4,2.2-1.3,3s-2,1.2-3.4,1.2s-2.5-0.4-3.4-1.2c-0.9-0.8-1.3-1.9-1.3-3.1c0-0.9,0.2-1.7,0.7-2.3
				C588.7,114.8,589.4,114.3,590.3,114.1z M589.3,117.7c0,0.5,0.1,1,0.4,1.4c0.2,0.5,0.6,0.8,1,1.1c0.5,0.3,1,0.4,1.5,0.4
				c0.8,0,1.5-0.3,2.1-0.8c0.5-0.5,0.8-1.2,0.8-2c0-0.8-0.3-1.5-0.8-2.1c-0.6-0.5-1.3-0.8-2.1-0.8c-0.8,0-1.5,0.3-2,0.8
				C589.6,116.2,589.3,116.9,589.3,117.7z M589.9,111.2c0,0.7,0.2,1.2,0.6,1.6c0.4,0.4,1,0.6,1.7,0.6c0.7,0,1.2-0.2,1.6-0.6
				c0.4-0.4,0.6-0.9,0.6-1.5c0-0.6-0.2-1.2-0.7-1.6c-0.4-0.4-1-0.6-1.6-0.6c-0.7,0-1.2,0.2-1.6,0.6
				C590.1,110.1,589.9,110.6,589.9,111.2z"/>
		</g>
		<g>
			<path class="st8" d="M719.8,544.4v-14.1h6.3c1.3,0,2.2,0.1,2.9,0.4c0.7,0.3,1.2,0.7,1.6,1.3c0.4,0.6,0.6,1.4,0.6,2.1
				c0,1-0.3,1.8-1,2.5c-0.6,0.7-1.7,1.1-3,1.3c0.5,0.2,0.9,0.5,1.1,0.7c0.5,0.5,1.1,1.1,1.6,1.9l2.5,3.8h-2.3l-1.9-2.9
				c-0.5-0.8-1-1.5-1.3-1.9c-0.4-0.4-0.7-0.8-0.9-0.9s-0.6-0.3-0.9-0.4c-0.2,0-0.6-0.1-1-0.1h-2.2v6.3H719.8z M721.7,536.5h4
				c0.9,0,1.5-0.1,2-0.3c0.5-0.2,0.8-0.5,1.1-0.8c0.3-0.4,0.4-0.8,0.4-1.3c0-0.7-0.2-1.2-0.7-1.6c-0.5-0.4-1.3-0.6-2.3-0.6h-4.5
				V536.5z"/>
			<path class="st8" d="M742.3,533.7l-1.7,0.1c-0.2-0.7-0.4-1.2-0.7-1.5c-0.5-0.5-1-0.7-1.7-0.7c-0.6,0-1,0.2-1.5,0.5
				c-0.5,0.4-1,1-1.3,1.7c-0.3,0.8-0.5,1.9-0.5,3.3c0.4-0.6,0.9-1.1,1.5-1.4c0.6-0.3,1.2-0.5,1.9-0.5c1.2,0,2.1,0.4,3,1.3
				c0.8,0.9,1.2,2,1.2,3.3c0,0.9-0.2,1.7-0.6,2.5s-0.9,1.3-1.6,1.7c-0.7,0.4-1.4,0.6-2.3,0.6c-1.4,0-2.6-0.5-3.5-1.6
				c-0.9-1.1-1.4-2.8-1.4-5.3c0-2.7,0.5-4.7,1.5-6c0.9-1.1,2.1-1.6,3.6-1.6c1.1,0,2,0.3,2.7,0.9
				C741.7,531.8,742.1,532.6,742.3,533.7z M735.2,539.8c0,0.6,0.1,1.2,0.4,1.7c0.3,0.5,0.6,1,1.1,1.2c0.5,0.3,0.9,0.4,1.4,0.4
				c0.7,0,1.4-0.3,1.9-0.9s0.8-1.4,0.8-2.4c0-1-0.3-1.7-0.8-2.3c-0.5-0.6-1.2-0.8-2-0.8c-0.8,0-1.4,0.3-2,0.8
				C735.5,538.1,735.2,538.9,735.2,539.8z"/>
			<path class="st8" d="M745.2,544.4v-2h2v2H745.2z"/>
			<path class="st8" d="M755.3,544.4V541h-6.1v-1.6l6.4-9.1h1.4v9.1h1.9v1.6H757v3.4H755.3z M755.3,539.4V533l-4.4,6.4H755.3z"/>
		</g>
		<g>
			<path class="st8" d="M719.5,305.2v-14.1h6.3c1.3,0,2.2,0.1,2.9,0.4c0.7,0.3,1.2,0.7,1.6,1.3c0.4,0.6,0.6,1.4,0.6,2.1
				c0,1-0.3,1.8-1,2.5c-0.6,0.7-1.7,1.1-3,1.3c0.5,0.2,0.9,0.5,1.1,0.7c0.5,0.5,1.1,1.1,1.6,1.9l2.5,3.8h-2.3l-1.9-2.9
				c-0.5-0.8-1-1.5-1.3-1.9c-0.4-0.4-0.7-0.8-0.9-0.9s-0.6-0.3-0.9-0.4c-0.2,0-0.6-0.1-1-0.1h-2.2v6.3H719.5z M721.4,297.3h4
				c0.9,0,1.5-0.1,2-0.3c0.5-0.2,0.8-0.5,1.1-0.8s0.4-0.8,0.4-1.3c0-0.7-0.2-1.2-0.7-1.6s-1.3-0.6-2.3-0.6h-4.5V297.3z"/>
			<path class="st8" d="M742,294.5l-1.7,0.1c-0.2-0.7-0.4-1.2-0.7-1.5c-0.5-0.5-1-0.7-1.7-0.7c-0.6,0-1,0.2-1.5,0.5
				c-0.5,0.4-1,1-1.3,1.7c-0.3,0.8-0.5,1.9-0.5,3.3c0.4-0.6,0.9-1.1,1.5-1.4s1.2-0.5,1.9-0.5c1.2,0,2.1,0.4,3,1.3
				c0.8,0.9,1.2,2,1.2,3.3c0,0.9-0.2,1.7-0.6,2.5s-0.9,1.3-1.6,1.7c-0.7,0.4-1.4,0.6-2.3,0.6c-1.4,0-2.6-0.5-3.5-1.6
				s-1.4-2.8-1.4-5.3c0-2.7,0.5-4.7,1.5-6c0.9-1.1,2.1-1.6,3.6-1.6c1.1,0,2,0.3,2.7,0.9S741.9,293.4,742,294.5z M734.9,300.6
				c0,0.6,0.1,1.2,0.4,1.7c0.3,0.5,0.6,1,1.1,1.2c0.5,0.3,0.9,0.4,1.4,0.4c0.7,0,1.4-0.3,1.9-0.9c0.5-0.6,0.8-1.4,0.8-2.4
				c0-1-0.3-1.7-0.8-2.3c-0.5-0.6-1.2-0.8-2-0.8c-0.8,0-1.4,0.3-2,0.8C735.2,299,734.9,299.7,734.9,300.6z"/>
			<path class="st8" d="M745,305.2v-2h2v2H745z"/>
			<path class="st8" d="M755,305.2v-3.4h-6.1v-1.6l6.4-9.1h1.4v9.1h1.9v1.6h-1.9v3.4H755z M755,300.2v-6.4l-4.4,6.4H755z"/>
		</g>
		<g>
			<path class="st8" d="M678.4,355.3v-14.1h6.3c1.3,0,2.2,0.1,2.9,0.4c0.7,0.3,1.2,0.7,1.6,1.3c0.4,0.6,0.6,1.4,0.6,2.1
				c0,1-0.3,1.8-1,2.5c-0.6,0.7-1.7,1.1-3,1.3c0.5,0.2,0.9,0.5,1.1,0.7c0.5,0.5,1.1,1.1,1.6,1.9l2.5,3.8h-2.3l-1.9-2.9
				c-0.5-0.8-1-1.5-1.3-1.9c-0.4-0.4-0.7-0.8-0.9-0.9s-0.6-0.3-0.9-0.4c-0.2,0-0.6-0.1-1-0.1h-2.2v6.3H678.4z M680.2,347.5h4
				c0.9,0,1.5-0.1,2-0.3c0.5-0.2,0.8-0.5,1.1-0.8s0.4-0.8,0.4-1.3c0-0.7-0.2-1.2-0.7-1.6s-1.3-0.6-2.3-0.6h-4.5V347.5z"/>
			<path class="st8" d="M691.9,351.6l1.7-0.2c0.2,1,0.5,1.7,1,2.1c0.5,0.4,1.1,0.6,1.7,0.6c0.8,0,1.5-0.3,2.1-0.8
				c0.6-0.6,0.8-1.3,0.8-2.1c0-0.8-0.3-1.5-0.8-2c-0.5-0.5-1.2-0.8-2-0.8c-0.3,0-0.7,0.1-1.2,0.2l0.2-1.5c0.1,0,0.2,0,0.3,0
				c0.7,0,1.4-0.2,2-0.6c0.6-0.4,0.9-1,0.9-1.8c0-0.6-0.2-1.2-0.6-1.6s-1-0.6-1.7-0.6c-0.7,0-1.2,0.2-1.7,0.6
				c-0.4,0.4-0.7,1.1-0.9,1.9l-1.7-0.3c0.2-1.2,0.7-2.1,1.4-2.7c0.8-0.6,1.7-1,2.8-1c0.8,0,1.5,0.2,2.1,0.5c0.6,0.3,1.1,0.8,1.5,1.4
				c0.3,0.6,0.5,1.2,0.5,1.8c0,0.6-0.2,1.2-0.5,1.7c-0.3,0.5-0.8,0.9-1.5,1.2c0.8,0.2,1.5,0.6,1.9,1.2c0.5,0.6,0.7,1.4,0.7,2.3
				c0,1.2-0.4,2.3-1.3,3.1c-0.9,0.9-2,1.3-3.4,1.3c-1.2,0-2.3-0.4-3.1-1.1C692.5,353.7,692,352.8,691.9,351.6z"/>
			<path class="st8" d="M702.8,348.4c0-1.7,0.2-3,0.5-4c0.3-1,0.9-1.8,1.5-2.4c0.7-0.6,1.5-0.8,2.6-0.8c0.8,0,1.4,0.2,2,0.5
				c0.6,0.3,1,0.7,1.4,1.3c0.4,0.6,0.7,1.3,0.9,2.1c0.2,0.8,0.3,1.9,0.3,3.3c0,1.7-0.2,3-0.5,4s-0.8,1.8-1.5,2.4s-1.5,0.8-2.6,0.8
				c-1.4,0-2.4-0.5-3.2-1.5C703.3,352.9,702.8,351,702.8,348.4z M704.6,348.4c0,2.3,0.3,3.9,0.8,4.6c0.5,0.8,1.2,1.2,2,1.2
				s1.5-0.4,2-1.2s0.8-2.3,0.8-4.6c0-2.3-0.3-3.9-0.8-4.6c-0.5-0.8-1.2-1.1-2-1.1c-0.8,0-1.4,0.3-1.9,1
				C704.9,344.5,704.6,346.1,704.6,348.4z"/>
			<path class="st8" d="M713.8,351.6l1.8-0.2c0.1,0.9,0.4,1.6,0.9,2c0.5,0.4,1.1,0.7,1.8,0.7c0.8,0,1.5-0.3,2.1-0.9
				c0.6-0.6,0.9-1.5,0.9-2.5c0-1-0.3-1.8-0.8-2.3c-0.6-0.6-1.3-0.9-2.2-0.9c-0.6,0-1.1,0.1-1.5,0.4c-0.4,0.3-0.8,0.6-1.1,1l-1.6-0.2
				l1.4-7.3h7v1.7h-5.6l-0.8,3.8c0.8-0.6,1.7-0.9,2.7-0.9c1.2,0,2.3,0.4,3.1,1.3c0.8,0.9,1.3,2,1.3,3.3c0,1.3-0.4,2.4-1.1,3.3
				c-0.9,1.1-2.1,1.7-3.7,1.7c-1.3,0-2.3-0.4-3.1-1.1C714.4,353.8,713.9,352.8,713.8,351.6z"/>
		</g>
		<g>
			<path class="st8" d="M592.3,172.4v-14.1h6.3c1.3,0,2.2,0.1,2.9,0.4c0.7,0.3,1.2,0.7,1.6,1.3c0.4,0.6,0.6,1.4,0.6,2.1
				c0,1-0.3,1.8-1,2.5c-0.6,0.7-1.7,1.1-3,1.3c0.5,0.2,0.9,0.5,1.1,0.7c0.5,0.5,1.1,1.1,1.6,1.9l2.5,3.8h-2.3l-1.9-2.9
				c-0.5-0.8-1-1.5-1.3-1.9c-0.4-0.4-0.7-0.8-0.9-0.9s-0.6-0.3-0.9-0.4c-0.2,0-0.6-0.1-1-0.1h-2.2v6.3H592.3z M594.2,164.5h4
				c0.9,0,1.5-0.1,2-0.3c0.5-0.2,0.8-0.5,1.1-0.8s0.4-0.8,0.4-1.3c0-0.7-0.2-1.2-0.7-1.6s-1.3-0.6-2.3-0.6h-4.5V164.5z"/>
			<path class="st8" d="M612.3,172.4h-1.7v-11c-0.4,0.4-1,0.8-1.6,1.2c-0.7,0.4-1.3,0.7-1.8,0.9v-1.7c1-0.5,1.8-1,2.5-1.7
				c0.7-0.6,1.2-1.3,1.5-1.9h1.1V172.4z"/>
			<path class="st8" d="M617.7,172.4v-2h2v2H617.7z"/>
			<path class="st8" d="M631.2,161.7l-1.7,0.1c-0.2-0.7-0.4-1.2-0.7-1.5c-0.5-0.5-1-0.7-1.7-0.7c-0.6,0-1,0.2-1.5,0.5
				c-0.5,0.4-1,1-1.3,1.7c-0.3,0.8-0.5,1.9-0.5,3.3c0.4-0.6,0.9-1.1,1.5-1.4s1.2-0.5,1.9-0.5c1.2,0,2.1,0.4,3,1.3
				c0.8,0.9,1.2,2,1.2,3.3c0,0.9-0.2,1.7-0.6,2.5s-0.9,1.3-1.6,1.7c-0.7,0.4-1.4,0.6-2.3,0.6c-1.4,0-2.6-0.5-3.5-1.6
				s-1.4-2.8-1.4-5.3c0-2.7,0.5-4.7,1.5-6c0.9-1.1,2.1-1.6,3.6-1.6c1.1,0,2,0.3,2.7,0.9S631.1,160.6,631.2,161.7z M624.2,167.8
				c0,0.6,0.1,1.2,0.4,1.7c0.3,0.5,0.6,1,1.1,1.2c0.5,0.3,0.9,0.4,1.4,0.4c0.7,0,1.4-0.3,1.9-0.9c0.5-0.6,0.8-1.4,0.8-2.4
				c0-1-0.3-1.7-0.8-2.3c-0.5-0.6-1.2-0.8-2-0.8c-0.8,0-1.4,0.3-2,0.8C624.4,166.2,624.2,166.9,624.2,167.8z"/>
		</g>
		<g>
			<path class="st8" d="M543.1,178.2l-14.1-0.8l0.4-6.2c0.1-1.3,0.3-2.2,0.5-2.8c0.3-0.6,0.8-1.1,1.4-1.5c0.7-0.4,1.4-0.5,2.2-0.5
				c1,0.1,1.8,0.4,2.5,1.1c0.6,0.7,1,1.7,1.1,3.1c0.3-0.5,0.5-0.8,0.8-1.1c0.5-0.5,1.2-1,2-1.4l4-2.2l-0.1,2.3l-3,1.7
				c-0.9,0.5-1.6,0.9-2,1.2c-0.5,0.3-0.8,0.6-1,0.9c-0.2,0.3-0.3,0.5-0.4,0.8c-0.1,0.2-0.1,0.6-0.1,1l-0.1,2.2l6.3,0.4L543.1,178.2z
				 M535.3,175.9l0.2-4c0-0.9,0-1.5-0.1-2c-0.1-0.5-0.4-0.9-0.8-1.1c-0.4-0.3-0.8-0.4-1.2-0.4c-0.7,0-1.2,0.2-1.7,0.6
				c-0.5,0.5-0.7,1.2-0.8,2.3l-0.3,4.5L535.3,175.9z"/>
			<path class="st8" d="M540.1,164.5l-0.1-1.7c1-0.1,1.7-0.4,2.2-0.9c0.5-0.5,0.7-1,0.8-1.7c0-0.8-0.2-1.5-0.7-2.1
				c-0.5-0.6-1.2-0.9-2-1c-0.8,0-1.5,0.2-2,0.7c-0.5,0.5-0.8,1.1-0.9,1.9c0,0.3,0,0.7,0.1,1.2l-1.5-0.3c0-0.1,0-0.2,0-0.3
				c0-0.7-0.1-1.4-0.5-2c-0.4-0.6-0.9-0.9-1.7-1c-0.6,0-1.2,0.1-1.6,0.6c-0.4,0.4-0.7,0.9-0.7,1.6c0,0.7,0.1,1.2,0.5,1.7
				c0.4,0.5,1,0.8,1.9,1l-0.4,1.7c-1.1-0.3-2-0.8-2.6-1.6c-0.6-0.8-0.9-1.7-0.8-2.9c0-0.8,0.3-1.5,0.6-2.1c0.4-0.6,0.8-1.1,1.4-1.4
				c0.6-0.3,1.2-0.4,1.8-0.4c0.6,0,1.2,0.2,1.6,0.6c0.5,0.4,0.9,0.9,1.1,1.5c0.2-0.8,0.7-1.4,1.3-1.9c0.6-0.4,1.4-0.6,2.3-0.6
				c1.2,0.1,2.2,0.6,3.1,1.5c0.8,0.9,1.2,2.1,1.1,3.5c-0.1,1.2-0.5,2.2-1.3,3S541.3,164.4,540.1,164.5z"/>
			<path class="st8" d="M537.5,153.3c-1.7-0.1-3-0.3-4-0.7c-1-0.4-1.7-1-2.3-1.7s-0.7-1.6-0.7-2.6c0-0.8,0.2-1.4,0.6-2
				c0.3-0.6,0.8-1,1.4-1.3c0.6-0.3,1.3-0.6,2.1-0.8c0.8-0.2,2-0.2,3.3-0.1c1.7,0.1,3,0.3,4,0.7c1,0.4,1.8,1,2.3,1.7
				c0.5,0.7,0.7,1.6,0.7,2.6c-0.1,1.4-0.6,2.4-1.6,3.1C542.1,153.1,540.2,153.5,537.5,153.3z M537.6,151.6c2.3,0.1,3.9,0,4.7-0.5
				c0.8-0.5,1.2-1.1,1.3-1.9c0-0.8-0.3-1.5-1-2.1c-0.7-0.6-2.3-0.9-4.6-1.1c-2.3-0.1-3.9,0-4.7,0.5c-0.8,0.5-1.2,1.1-1.3,2
				c0,0.8,0.3,1.4,0.9,2C533.8,151,535.3,151.4,537.6,151.6z"/>
			<path class="st8" d="M541.4,142.6l0-1.8c0.9-0.1,1.6-0.4,2-0.8s0.7-1,0.8-1.7c0-0.8-0.2-1.6-0.8-2.2c-0.6-0.6-1.4-1-2.4-1
				c-1-0.1-1.8,0.2-2.4,0.7c-0.6,0.5-0.9,1.2-1,2.1c0,0.6,0.1,1.1,0.3,1.5c0.2,0.5,0.5,0.8,0.9,1.1l-0.3,1.6l-7.2-1.8l0.4-7l1.7,0.1
				l-0.3,5.6l3.7,1c-0.5-0.9-0.8-1.8-0.7-2.7c0.1-1.2,0.6-2.2,1.5-3c0.9-0.8,2-1.2,3.4-1.1c1.3,0.1,2.4,0.5,3.2,1.3
				c1.1,1,1.6,2.2,1.5,3.8c-0.1,1.3-0.5,2.3-1.3,3.1C543.6,142.1,542.6,142.5,541.4,142.6z"/>
		</g>
		<g>
			<path class="st8" d="M291,134.5h1.7v9.3c-0.4,0-0.8-0.1-1.2-0.2c-0.6-0.2-1.3-0.6-1.9-1.1c-0.6-0.5-1.3-1.3-2.1-2.3
				c-1.3-1.5-2.3-2.6-3-3.1c-0.7-0.5-1.4-0.8-2.1-0.8c-0.7,0-1.3,0.2-1.7,0.7c-0.5,0.5-0.7,1.1-0.7,1.9c0,0.8,0.3,1.5,0.8,2
				c0.5,0.5,1.2,0.8,2.1,0.8l-0.2,1.8c-1.3-0.1-2.3-0.6-3-1.4c-0.7-0.8-1-1.9-1-3.2c0-1.4,0.4-2.4,1.1-3.2c0.8-0.8,1.7-1.2,2.8-1.2
				c0.6,0,1.1,0.1,1.7,0.3c0.5,0.2,1.1,0.6,1.7,1.2s1.4,1.4,2.5,2.7c0.9,1,1.5,1.7,1.8,2c0.3,0.3,0.6,0.5,0.9,0.7V134.5z"/>
			<path class="st8" d="M292.7,127.1h-3.4v6.1h-1.6l-9.1-6.4v-1.4h9.1v-1.9h1.6v1.9h3.4V127.1z M287.7,127.1h-6.4l6.4,4.4V127.1z"/>
		</g>
		<g>
			<path class="st8" d="M245.8,167.4l-0.2-1.7c1-0.2,1.7-0.5,2.1-1c0.4-0.5,0.6-1.1,0.6-1.7c0-0.8-0.3-1.5-0.8-2.1
				c-0.6-0.6-1.3-0.8-2.1-0.8c-0.8,0-1.5,0.3-2,0.8c-0.5,0.5-0.8,1.2-0.8,2c0,0.3,0.1,0.7,0.2,1.2l-1.5-0.2c0-0.1,0-0.2,0-0.3
				c0-0.7-0.2-1.4-0.6-2c-0.4-0.6-1-0.9-1.8-0.9c-0.6,0-1.2,0.2-1.6,0.6s-0.6,1-0.6,1.7c0,0.7,0.2,1.2,0.6,1.7
				c0.4,0.4,1.1,0.7,1.9,0.9l-0.3,1.7c-1.2-0.2-2.1-0.7-2.7-1.4c-0.6-0.8-1-1.7-1-2.8c0-0.8,0.2-1.5,0.5-2.1
				c0.3-0.6,0.8-1.1,1.4-1.5c0.6-0.3,1.2-0.5,1.8-0.5c0.6,0,1.2,0.2,1.7,0.5c0.5,0.3,0.9,0.8,1.2,1.5c0.2-0.8,0.6-1.5,1.2-1.9
				c0.6-0.5,1.4-0.7,2.3-0.7c1.2,0,2.3,0.4,3.1,1.3c0.9,0.9,1.3,2,1.3,3.4c0,1.2-0.4,2.3-1.1,3.1C248,166.8,247,167.3,245.8,167.4z"
				/>
			<path class="st8" d="M249.6,149.9v1.7h-11c0.4,0.4,0.8,1,1.2,1.6c0.4,0.7,0.7,1.3,0.9,1.8h-1.7c-0.5-1-1-1.8-1.7-2.5
				c-0.6-0.7-1.3-1.2-1.9-1.5v-1.1H249.6z"/>
		</g>
		<g>
			<path class="st8" d="M103.7,680.4v1.7h-11c0.4,0.4,0.8,1,1.2,1.6c0.4,0.7,0.7,1.3,0.9,1.8h-1.7c-0.5-1-1-1.8-1.7-2.5
				c-0.6-0.7-1.3-1.2-1.9-1.5v-1.1H103.7z"/>
			<path class="st8" d="M100.5,675.7l-0.2-1.7c0.8-0.1,1.4-0.4,1.7-0.8c0.4-0.4,0.5-0.9,0.5-1.5c0-0.5-0.1-1-0.4-1.4
				c-0.2-0.4-0.6-0.7-1-1c-0.4-0.3-1-0.5-1.7-0.6c-0.7-0.2-1.4-0.3-2.1-0.3c-0.1,0-0.2,0-0.3,0c0.6,0.3,1,0.8,1.3,1.4
				c0.3,0.6,0.5,1.2,0.5,2c0,1.2-0.4,2.2-1.3,3c-0.8,0.8-2,1.2-3.4,1.2c-1.4,0-2.6-0.4-3.5-1.3c-0.9-0.8-1.3-1.9-1.3-3.2
				c0-0.9,0.2-1.8,0.7-2.5c0.5-0.8,1.2-1.3,2.1-1.7c0.9-0.4,2.2-0.6,4-0.6c1.8,0,3.2,0.2,4.3,0.6c1.1,0.4,1.9,1,2.4,1.7
				s0.8,1.7,0.8,2.7c0,1.1-0.3,2-0.9,2.7C102.4,675.1,101.6,675.5,100.5,675.7z M94.2,668.6c-1,0-1.8,0.3-2.4,0.8
				c-0.6,0.5-0.9,1.2-0.9,1.9c0,0.8,0.3,1.4,0.9,2c0.6,0.6,1.4,0.9,2.4,0.9c0.9,0,1.6-0.3,2.2-0.8c0.6-0.5,0.8-1.2,0.8-2
				c0-0.8-0.3-1.5-0.8-2C96,668.8,95.2,668.6,94.2,668.6z"/>
			<path class="st8" d="M103.7,664h-2v-2h2V664z"/>
		</g>
		<g>
			<path class="st8" d="M100,659.5l-0.2-1.8c0.9-0.1,1.6-0.4,2-0.9c0.4-0.5,0.7-1.1,0.7-1.8c0-0.8-0.3-1.5-0.9-2.1
				c-0.6-0.6-1.5-0.9-2.5-0.9c-1,0-1.8,0.3-2.3,0.8c-0.6,0.6-0.9,1.3-0.9,2.2c0,0.6,0.1,1.1,0.4,1.5c0.3,0.4,0.6,0.8,1,1.1l-0.2,1.6
				l-7.3-1.4v-7h1.7v5.6l3.8,0.8c-0.6-0.8-0.9-1.7-0.9-2.7c0-1.2,0.4-2.3,1.3-3.1c0.9-0.8,2-1.3,3.3-1.3c1.3,0,2.4,0.4,3.3,1.1
				c1.1,0.9,1.7,2.1,1.7,3.7c0,1.3-0.4,2.3-1.1,3.1C102.2,658.9,101.2,659.4,100,659.5z"/>
		</g>
		<g>
			<path class="st8" d="M452.9,11.4l-1.7,0.1c-0.2-0.7-0.4-1.2-0.7-1.5c-0.5-0.5-1-0.7-1.7-0.7c-0.6,0-1,0.2-1.5,0.5
				c-0.5,0.4-1,1-1.3,1.7c-0.3,0.8-0.5,1.9-0.5,3.3c0.4-0.6,0.9-1.1,1.5-1.4s1.2-0.5,1.9-0.5c1.2,0,2.1,0.4,3,1.3
				c0.8,0.9,1.2,2,1.2,3.3c0,0.9-0.2,1.7-0.6,2.5s-0.9,1.3-1.6,1.7c-0.7,0.4-1.4,0.6-2.3,0.6c-1.4,0-2.6-0.5-3.5-1.6
				s-1.4-2.8-1.4-5.3c0-2.7,0.5-4.7,1.5-6c0.9-1.1,2.1-1.6,3.6-1.6c1.1,0,2,0.3,2.7,0.9S452.7,10.3,452.9,11.4z M445.8,17.5
				c0,0.6,0.1,1.2,0.4,1.7c0.3,0.5,0.6,1,1.1,1.2c0.5,0.3,0.9,0.4,1.4,0.4c0.7,0,1.4-0.3,1.9-0.9c0.5-0.6,0.8-1.4,0.8-2.4
				c0-1-0.3-1.7-0.8-2.3c-0.5-0.6-1.2-0.8-2-0.8c-0.8,0-1.4,0.3-2,0.8C446.1,15.8,445.8,16.6,445.8,17.5z"/>
			<path class="st8" d="M454.9,15.1c0-1.7,0.2-3,0.5-4c0.3-1,0.9-1.8,1.5-2.4c0.7-0.6,1.5-0.8,2.6-0.8c0.8,0,1.4,0.2,2,0.5
				c0.6,0.3,1,0.7,1.4,1.3c0.4,0.6,0.7,1.3,0.9,2.1c0.2,0.8,0.3,1.9,0.3,3.3c0,1.7-0.2,3-0.5,4s-0.8,1.8-1.5,2.4s-1.5,0.8-2.6,0.8
				c-1.4,0-2.4-0.5-3.2-1.5C455.3,19.7,454.9,17.8,454.9,15.1z M456.6,15.1c0,2.3,0.3,3.9,0.8,4.6c0.5,0.8,1.2,1.2,2,1.2
				s1.5-0.4,2-1.2s0.8-2.3,0.8-4.6c0-2.3-0.3-3.9-0.8-4.6c-0.5-0.8-1.2-1.1-2-1.1c-0.8,0-1.4,0.3-1.9,1
				C456.9,11.2,456.6,12.8,456.6,15.1z"/>
			<path class="st8" d="M466.8,22.1v-2h2v2H466.8z"/>
		</g>
		<g>
			<path class="st8" d="M471.3,18.3l1.7-0.2c0.2,1,0.5,1.7,1,2.1c0.5,0.4,1.1,0.6,1.7,0.6c0.8,0,1.5-0.3,2.1-0.8
				c0.6-0.6,0.8-1.3,0.8-2.1c0-0.8-0.3-1.5-0.8-2c-0.5-0.5-1.2-0.8-2-0.8c-0.3,0-0.7,0.1-1.2,0.2l0.2-1.5c0.1,0,0.2,0,0.3,0
				c0.7,0,1.4-0.2,2-0.6c0.6-0.4,0.9-1,0.9-1.8c0-0.6-0.2-1.2-0.6-1.6s-1-0.6-1.7-0.6c-0.7,0-1.2,0.2-1.7,0.6
				c-0.4,0.4-0.7,1.1-0.9,1.9l-1.7-0.3c0.2-1.2,0.7-2.1,1.4-2.7c0.8-0.6,1.7-1,2.8-1c0.8,0,1.5,0.2,2.1,0.5c0.6,0.3,1.1,0.8,1.5,1.4
				c0.3,0.6,0.5,1.2,0.5,1.8c0,0.6-0.2,1.2-0.5,1.7c-0.3,0.5-0.8,0.9-1.5,1.2c0.8,0.2,1.5,0.6,1.9,1.2c0.5,0.6,0.7,1.4,0.7,2.3
				c0,1.2-0.4,2.3-1.3,3.1c-0.9,0.9-2,1.3-3.4,1.3c-1.2,0-2.3-0.4-3.1-1.1C471.9,20.5,471.4,19.5,471.3,18.3z"/>
		</g>
		<g>
			<path class="st6" d="M491.5,26.2c-1-1.2-1.8-2.6-2.4-4.2c-0.7-1.6-1-3.3-1-5c0-1.5,0.2-3,0.7-4.4c0.6-1.6,1.5-3.2,2.7-4.9h1.2
				c-0.8,1.3-1.3,2.3-1.5,2.9c-0.4,0.9-0.7,1.8-0.9,2.8c-0.3,1.2-0.4,2.4-0.4,3.6c0,3.1,1,6.2,2.9,9.3H491.5z"/>
			<path class="st6" d="M503.4,20.4v1.7h-9.3c0-0.4,0.1-0.8,0.2-1.2c0.2-0.6,0.6-1.3,1.1-1.9c0.5-0.6,1.3-1.3,2.3-2.1
				c1.5-1.3,2.6-2.3,3.1-3c0.5-0.7,0.8-1.4,0.8-2.1c0-0.7-0.2-1.3-0.7-1.7c-0.5-0.5-1.1-0.7-1.9-0.7c-0.8,0-1.5,0.3-2,0.8
				c-0.5,0.5-0.8,1.2-0.8,2.1l-1.8-0.2c0.1-1.3,0.6-2.3,1.4-3c0.8-0.7,1.9-1,3.2-1c1.4,0,2.4,0.4,3.2,1.1c0.8,0.8,1.2,1.7,1.2,2.8
				c0,0.6-0.1,1.1-0.3,1.7c-0.2,0.5-0.6,1.1-1.2,1.7s-1.4,1.4-2.7,2.5c-1,0.9-1.7,1.5-2,1.8c-0.3,0.3-0.5,0.6-0.7,0.9H503.4z"/>
			<path class="st6" d="M506.3,22.1v-2h2v2H506.3z"/>
			<path class="st6" d="M510.8,18.3l1.7-0.2c0.2,1,0.5,1.7,1,2.1c0.5,0.4,1.1,0.6,1.7,0.6c0.8,0,1.5-0.3,2.1-0.8
				c0.6-0.6,0.8-1.3,0.8-2.1c0-0.8-0.3-1.5-0.8-2c-0.5-0.5-1.2-0.8-2-0.8c-0.3,0-0.7,0.1-1.2,0.2l0.2-1.5c0.1,0,0.2,0,0.3,0
				c0.7,0,1.4-0.2,2-0.6c0.6-0.4,0.9-1,0.9-1.8c0-0.6-0.2-1.2-0.6-1.6s-1-0.6-1.7-0.6c-0.7,0-1.2,0.2-1.7,0.6
				c-0.4,0.4-0.7,1.1-0.9,1.9l-1.7-0.3c0.2-1.2,0.7-2.1,1.4-2.7c0.8-0.6,1.7-1,2.8-1c0.8,0,1.5,0.2,2.1,0.5c0.6,0.3,1.1,0.8,1.5,1.4
				c0.3,0.6,0.5,1.2,0.5,1.8c0,0.6-0.2,1.2-0.5,1.7c-0.3,0.5-0.8,0.9-1.5,1.2c0.8,0.2,1.5,0.6,1.9,1.2c0.5,0.6,0.7,1.4,0.7,2.3
				c0,1.2-0.4,2.3-1.3,3.1c-0.9,0.9-2,1.3-3.4,1.3c-1.2,0-2.3-0.4-3.1-1.1C511.4,20.5,510.9,19.5,510.8,18.3z"/>
			<path class="st6" d="M521.8,9.8V8.1h9.1v1.3c-0.9,1-1.8,2.2-2.7,3.8c-0.9,1.6-1.6,3.2-2,4.9c-0.3,1.2-0.6,2.5-0.7,3.9h-1.8
				c0-1.1,0.2-2.5,0.7-4c0.4-1.6,1-3.1,1.8-4.6c0.8-1.5,1.6-2.7,2.5-3.7H521.8z"/>
			<path class="st6" d="M538.3,22.1v-3.4h-6.1v-1.6l6.4-9.1h1.4v9.1h1.9v1.6H540v3.4H538.3z M538.3,17.1v-6.4l-4.4,6.4H538.3z"/>
			<path class="st6" d="M544.2,12.9l-0.5-2.7V7.9h2v2.3l-0.4,2.7H544.2z M547.4,12.9l-0.5-2.7V7.9h2v2.3l-0.5,2.7H547.4z"/>
		</g>
		<g>
			<path class="st6" d="M552.3,26.2h-1.2C553,23.1,554,20,554,17c0-1.2-0.1-2.4-0.4-3.6c-0.2-1-0.5-1.9-0.9-2.8
				c-0.3-0.6-0.8-1.5-1.6-2.9h1.2c1.2,1.6,2.1,3.2,2.7,4.9c0.5,1.4,0.7,2.9,0.7,4.4c0,1.7-0.3,3.4-1,5
				C554.1,23.6,553.3,25,552.3,26.2z"/>
		</g>
		<g>
			<path class="st6" d="M62.7,420.8v1.7h-11c0.4,0.4,0.8,1,1.2,1.6c0.4,0.7,0.7,1.3,0.9,1.8h-1.7c-0.5-1-1-1.8-1.7-2.5
				c-0.6-0.7-1.3-1.2-1.9-1.5v-1.1H62.7z"/>
			<path class="st6" d="M55.7,416.4c-1.7,0-3-0.2-4-0.5c-1-0.3-1.8-0.9-2.4-1.5c-0.6-0.7-0.8-1.5-0.8-2.6c0-0.8,0.2-1.4,0.5-2
				c0.3-0.6,0.7-1,1.3-1.4c0.6-0.4,1.3-0.7,2.1-0.9c0.8-0.2,1.9-0.3,3.3-0.3c1.7,0,3,0.2,4,0.5s1.8,0.8,2.4,1.5s0.8,1.5,0.8,2.6
				c0,1.4-0.5,2.4-1.5,3.2C60.3,415.9,58.4,416.4,55.7,416.4z M55.7,414.6c2.3,0,3.9-0.3,4.6-0.8c0.8-0.5,1.2-1.2,1.2-2
				s-0.4-1.5-1.2-2s-2.3-0.8-4.6-0.8c-2.3,0-3.9,0.3-4.6,0.8c-0.8,0.5-1.1,1.2-1.1,2c0,0.8,0.3,1.4,1,1.9
				C51.8,414.3,53.4,414.6,55.7,414.6z"/>
			<path class="st6" d="M55,402.7c-0.3,0.7-0.6,1.3-1.1,1.6s-1.1,0.5-1.8,0.5c-1,0-1.9-0.4-2.6-1.1s-1-1.7-1-2.9
				c0-1.2,0.4-2.2,1.1-3c0.7-0.8,1.6-1.1,2.6-1.1c0.7,0,1.2,0.2,1.7,0.5c0.5,0.3,0.9,0.9,1.1,1.6c0.3-0.9,0.7-1.5,1.4-2
				s1.4-0.7,2.3-0.7c1.2,0,2.2,0.4,3,1.3s1.2,2,1.2,3.4s-0.4,2.5-1.2,3.4c-0.8,0.9-1.9,1.3-3.1,1.3c-0.9,0-1.7-0.2-2.3-0.7
				C55.7,404.2,55.3,403.6,55,402.7z M52.1,403.1c0.7,0,1.2-0.2,1.6-0.6c0.4-0.4,0.6-1,0.6-1.7c0-0.7-0.2-1.2-0.6-1.6
				c-0.4-0.4-0.9-0.6-1.5-0.6c-0.6,0-1.2,0.2-1.6,0.7c-0.4,0.4-0.6,1-0.6,1.6c0,0.7,0.2,1.2,0.6,1.6C51,402.8,51.5,403.1,52.1,403.1
				z M58.6,403.6c0.5,0,1-0.1,1.4-0.4c0.5-0.2,0.8-0.6,1.1-1c0.3-0.5,0.4-1,0.4-1.5c0-0.8-0.3-1.5-0.8-2.1c-0.5-0.5-1.2-0.8-2-0.8
				c-0.8,0-1.5,0.3-2.1,0.8c-0.5,0.6-0.8,1.3-0.8,2.1c0,0.8,0.3,1.5,0.8,2C57.1,403.4,57.8,403.6,58.6,403.6z"/>
		</g>
		<g>
			<path class="st6" d="M66.8,385.1c-1.2,1-2.6,1.8-4.2,2.4c-1.6,0.7-3.3,1-5,1c-1.5,0-3-0.2-4.4-0.7c-1.6-0.6-3.2-1.5-4.9-2.7v-1.2
				c1.3,0.8,2.3,1.3,2.9,1.5c0.9,0.4,1.8,0.7,2.8,0.9c1.2,0.3,2.4,0.4,3.6,0.4c3.1,0,6.2-1,9.3-2.9V385.1z"/>
			<path class="st6" d="M62.7,376.8h-3.4v6.1h-1.6l-9.1-6.4V375h9.1v-1.9h1.6v1.9h3.4V376.8z M57.7,376.8h-6.4l6.4,4.4V376.8z"/>
		</g>
		<g>
			<path class="st6" d="M62.7,370.4h-2v-2h2V370.4z"/>
		</g>
		<g>
			<path class="st6" d="M61,356.8h1.7v9.3c-0.4,0-0.8-0.1-1.2-0.2c-0.6-0.2-1.3-0.6-1.9-1.1c-0.6-0.5-1.3-1.3-2.1-2.3
				c-1.3-1.5-2.3-2.6-3-3.1c-0.7-0.5-1.4-0.8-2.1-0.8c-0.7,0-1.3,0.2-1.7,0.7c-0.5,0.5-0.7,1.1-0.7,1.9c0,0.8,0.3,1.5,0.8,2
				c0.5,0.5,1.2,0.8,2.1,0.8l-0.2,1.8c-1.3-0.1-2.3-0.6-3-1.4c-0.7-0.8-1-1.9-1-3.2c0-1.4,0.4-2.4,1.1-3.2c0.8-0.8,1.7-1.2,2.8-1.2
				c0.6,0,1.1,0.1,1.7,0.3c0.5,0.2,1.1,0.6,1.7,1.2s1.4,1.4,2.5,2.7c0.9,1,1.5,1.7,1.8,2c0.3,0.3,0.6,0.5,0.9,0.7V356.8z"/>
			<path class="st6" d="M59,354.9l-0.2-1.8c0.9-0.1,1.6-0.4,2-0.9c0.4-0.5,0.7-1.1,0.7-1.8c0-0.8-0.3-1.5-0.9-2.1
				c-0.6-0.6-1.5-0.9-2.5-0.9c-1,0-1.8,0.3-2.3,0.8c-0.6,0.6-0.9,1.3-0.9,2.2c0,0.6,0.1,1.1,0.4,1.5c0.3,0.4,0.6,0.8,1,1.1l-0.2,1.6
				l-7.3-1.4v-7h1.7v5.6l3.8,0.8c-0.6-0.8-0.9-1.7-0.9-2.7c0-1.2,0.4-2.3,1.3-3.1c0.9-0.8,2-1.3,3.3-1.3c1.3,0,2.4,0.4,3.3,1.1
				c1.1,0.9,1.7,2.1,1.7,3.7c0,1.3-0.4,2.3-1.1,3.1C61.1,354.3,60.2,354.8,59,354.9z"/>
			<path class="st6" d="M61,334.8h1.7v9.3c-0.4,0-0.8-0.1-1.2-0.2c-0.6-0.2-1.3-0.6-1.9-1.1c-0.6-0.5-1.3-1.3-2.1-2.3
				c-1.3-1.5-2.3-2.6-3-3.1c-0.7-0.5-1.4-0.8-2.1-0.8c-0.7,0-1.3,0.2-1.7,0.7c-0.5,0.5-0.7,1.1-0.7,1.9c0,0.8,0.3,1.5,0.8,2
				c0.5,0.5,1.2,0.8,2.1,0.8l-0.2,1.8c-1.3-0.1-2.3-0.6-3-1.4c-0.7-0.8-1-1.9-1-3.2c0-1.4,0.4-2.4,1.1-3.2c0.8-0.8,1.7-1.2,2.8-1.2
				c0.6,0,1.1,0.1,1.7,0.3c0.5,0.2,1.1,0.6,1.7,1.2s1.4,1.4,2.5,2.7c0.9,1,1.5,1.7,1.8,2c0.3,0.3,0.6,0.5,0.9,0.7V334.8z"/>
			<path class="st6" d="M53.6,329.2l-2.7,0.5h-2.3v-2h2.3l2.7,0.5V329.2z M53.6,332.4l-2.7,0.5h-2.3v-2h2.3l2.7,0.4V332.4z"/>
		</g>
		<g>
			<path class="st6" d="M66.8,324.3v1.2c-3.1-1.9-6.2-2.9-9.3-2.9c-1.2,0-2.4,0.1-3.6,0.4c-1,0.2-1.9,0.5-2.8,0.9
				c-0.6,0.3-1.5,0.8-2.9,1.6v-1.2c1.6-1.2,3.2-2.1,4.9-2.7c1.4-0.5,2.9-0.7,4.4-0.7c1.7,0,3.4,0.3,5,1
				C64.2,322.6,65.6,323.4,66.8,324.3z"/>
		</g>
		<line class="st48" x1="150.1" y1="715.6" x2="150.1" y2="705.7"/>
		<polygon class="st8" points="155,712.1 149.9,731.3 144.7,712.1 		"/>
		<polygon class="st8" points="155,709.2 149.9,690 144.7,709.2 		"/>
		<g>
			<path class="st6" d="M128.9,712.6h-1.7v-9.1h1.3c1,0.9,2.2,1.8,3.8,2.7c1.6,0.9,3.2,1.6,4.9,2c1.2,0.3,2.5,0.6,3.9,0.7v1.8
				c-1.1,0-2.5-0.2-4-0.7c-1.6-0.4-3.1-1-4.6-1.8s-2.7-1.6-3.7-2.5V712.6z"/>
		</g>
		<g>
			<path class="st6" d="M467.9,773.6h-1.7v-11c-0.4,0.4-1,0.8-1.6,1.2c-0.7,0.4-1.3,0.7-1.8,0.9v-1.7c1-0.5,1.8-1,2.5-1.7
				s1.2-1.3,1.5-1.9h1.1V773.6z"/>
			<path class="st6" d="M472.3,766.6c0-1.7,0.2-3,0.5-4c0.3-1,0.9-1.8,1.5-2.4c0.7-0.6,1.5-0.8,2.6-0.8c0.8,0,1.4,0.2,2,0.5
				c0.6,0.3,1,0.7,1.4,1.3c0.4,0.6,0.7,1.3,0.9,2.1s0.3,1.9,0.3,3.3c0,1.7-0.2,3-0.5,4c-0.3,1-0.8,1.8-1.5,2.4
				c-0.7,0.6-1.5,0.8-2.6,0.8c-1.4,0-2.4-0.5-3.2-1.5C472.8,771.2,472.3,769.3,472.3,766.6z M474.1,766.6c0,2.3,0.3,3.9,0.8,4.6
				c0.5,0.8,1.2,1.2,2,1.2s1.5-0.4,2-1.2s0.8-2.3,0.8-4.6c0-2.3-0.3-3.9-0.8-4.6c-0.5-0.8-1.2-1.1-2-1.1c-0.8,0-1.4,0.3-1.9,1
				C474.4,762.7,474.1,764.3,474.1,766.6z"/>
			<path class="st6" d="M486,765.9c-0.7-0.3-1.3-0.6-1.6-1.1c-0.3-0.5-0.5-1.1-0.5-1.8c0-1,0.4-1.9,1.1-2.6c0.7-0.7,1.7-1,2.9-1
				c1.2,0,2.2,0.4,3,1.1c0.8,0.7,1.1,1.6,1.1,2.6c0,0.7-0.2,1.2-0.5,1.7c-0.3,0.5-0.9,0.9-1.6,1.1c0.9,0.3,1.5,0.7,2,1.4
				c0.5,0.6,0.7,1.4,0.7,2.3c0,1.2-0.4,2.2-1.3,3c-0.9,0.8-2,1.2-3.4,1.2s-2.5-0.4-3.4-1.2c-0.9-0.8-1.3-1.9-1.3-3.1
				c0-0.9,0.2-1.7,0.7-2.3C484.5,766.6,485.1,766.1,486,765.9z M485.1,769.5c0,0.5,0.1,1,0.4,1.4c0.2,0.5,0.6,0.8,1,1.1
				c0.5,0.3,1,0.4,1.5,0.4c0.8,0,1.5-0.3,2.1-0.8c0.5-0.5,0.8-1.2,0.8-2c0-0.8-0.3-1.5-0.8-2.1c-0.6-0.5-1.3-0.8-2.1-0.8
				c-0.8,0-1.5,0.3-2,0.8C485.3,768,485.1,768.7,485.1,769.5z M485.6,763c0,0.7,0.2,1.2,0.6,1.6s1,0.6,1.7,0.6
				c0.7,0,1.2-0.2,1.6-0.6c0.4-0.4,0.6-0.9,0.6-1.5c0-0.6-0.2-1.2-0.7-1.6s-1-0.7-1.6-0.7c-0.7,0-1.2,0.2-1.6,0.6
				S485.6,762.4,485.6,763z"/>
			<path class="st6" d="M503.6,777.7c-1-1.2-1.8-2.6-2.4-4.2c-0.7-1.6-1-3.3-1-5c0-1.5,0.2-3,0.7-4.4c0.6-1.6,1.5-3.2,2.7-4.9h1.2
				c-0.8,1.3-1.3,2.3-1.5,2.9c-0.4,0.9-0.7,1.8-0.9,2.8c-0.3,1.2-0.4,2.4-0.4,3.6c0,3.1,1,6.2,2.9,9.3H503.6z"/>
			<path class="st6" d="M511.9,773.6v-3.4h-6.1v-1.6l6.4-9.1h1.4v9.1h1.9v1.6h-1.9v3.4H511.9z M511.9,768.6v-6.4l-4.4,6.4H511.9z"/>
			<path class="st6" d="M518.3,773.6v-2h2v2H518.3z"/>
			<path class="st6" d="M531.9,771.9v1.7h-9.3c0-0.4,0.1-0.8,0.2-1.2c0.2-0.6,0.6-1.3,1.1-1.9s1.3-1.3,2.3-2.1
				c1.5-1.3,2.6-2.3,3.1-3c0.5-0.7,0.8-1.4,0.8-2.1c0-0.7-0.2-1.3-0.7-1.7c-0.5-0.5-1.1-0.7-1.9-0.7c-0.8,0-1.5,0.3-2,0.8
				c-0.5,0.5-0.8,1.2-0.8,2.1l-1.8-0.2c0.1-1.3,0.6-2.3,1.4-3c0.8-0.7,1.9-1,3.2-1c1.4,0,2.4,0.4,3.2,1.1c0.8,0.8,1.2,1.7,1.2,2.8
				c0,0.6-0.1,1.1-0.3,1.7c-0.2,0.5-0.6,1.1-1.2,1.7s-1.4,1.4-2.7,2.5c-1,0.9-1.7,1.5-2,1.8c-0.3,0.3-0.5,0.6-0.7,0.9H531.9z"/>
			<path class="st6" d="M533.8,769.9l1.8-0.2c0.1,0.9,0.4,1.6,0.9,2s1.1,0.7,1.8,0.7c0.8,0,1.5-0.3,2.1-0.9c0.6-0.6,0.9-1.5,0.9-2.5
				c0-1-0.3-1.8-0.8-2.3s-1.3-0.9-2.2-0.9c-0.6,0-1.1,0.1-1.5,0.4c-0.4,0.3-0.8,0.6-1.1,1l-1.6-0.2l1.4-7.3h7v1.7h-5.6l-0.8,3.8
				c0.8-0.6,1.7-0.9,2.7-0.9c1.2,0,2.3,0.4,3.1,1.3c0.8,0.9,1.3,2,1.3,3.3c0,1.3-0.4,2.4-1.1,3.3c-0.9,1.1-2.1,1.7-3.7,1.7
				c-1.3,0-2.3-0.4-3.1-1.1C534.3,772,533.9,771.1,533.8,769.9z"/>
			<path class="st6" d="M553.8,771.9v1.7h-9.3c0-0.4,0.1-0.8,0.2-1.2c0.2-0.6,0.6-1.3,1.1-1.9s1.3-1.3,2.3-2.1
				c1.5-1.3,2.6-2.3,3.1-3c0.5-0.7,0.8-1.4,0.8-2.1c0-0.7-0.2-1.3-0.7-1.7c-0.5-0.5-1.1-0.7-1.9-0.7c-0.8,0-1.5,0.3-2,0.8
				c-0.5,0.5-0.8,1.2-0.8,2.1l-1.8-0.2c0.1-1.3,0.6-2.3,1.4-3c0.8-0.7,1.9-1,3.2-1c1.4,0,2.4,0.4,3.2,1.1c0.8,0.8,1.2,1.7,1.2,2.8
				c0,0.6-0.1,1.1-0.3,1.7c-0.2,0.5-0.6,1.1-1.2,1.7s-1.4,1.4-2.7,2.5c-1,0.9-1.7,1.5-2,1.8c-0.3,0.3-0.5,0.6-0.7,0.9H553.8z"/>
			<path class="st6" d="M556.3,764.4l-0.5-2.7v-2.3h2v2.3l-0.4,2.7H556.3z M559.4,764.4l-0.5-2.7v-2.3h2v2.3l-0.5,2.7H559.4z"/>
		</g>
		<g>
			<path class="st6" d="M564.4,777.7h-1.2c1.9-3.1,2.9-6.2,2.9-9.3c0-1.2-0.1-2.4-0.4-3.6c-0.2-1-0.5-1.9-0.9-2.8
				c-0.3-0.6-0.8-1.5-1.6-2.9h1.2c1.2,1.6,2.1,3.2,2.7,4.9c0.5,1.4,0.7,2.9,0.7,4.4c0,1.7-0.3,3.4-1,5
				C566.2,775.1,565.3,776.5,564.4,777.7z"/>
		</g>
		<line class="st48" x1="183.4" y1="780.6" x2="818.1" y2="780.6"/>
		<polygon class="st8" points="186.9,785.6 167.7,780.4 186.9,775.2 		"/>
		<polygon class="st8" points="814.6,785.6 833.9,780.4 814.6,775.2 		"/>
		<g>
			<path class="st6" d="M513.7,753.3v-5.9l-5.4-8h2.2l2.7,4.2c0.5,0.8,1,1.6,1.4,2.3c0.4-0.7,0.9-1.5,1.5-2.5l2.7-4.1h2.1l-5.5,8
				v5.9H513.7z"/>
			<path class="st6" d="M513.7,57v-5.9l-5.4-8h2.2l2.7,4.2c0.5,0.8,1,1.6,1.4,2.3c0.4-0.7,0.9-1.5,1.5-2.5l2.7-4.1h2.1l-5.5,8V57
				H513.7z"/>
		</g>
		<line class="st53" x1="500.4" y1="753.3" x2="499.6" y2="42.8"/>
		<line class="st54" x1="477.6" y1="433.4" x2="522.2" y2="433.4"/>
		<polygon class="st8" points="481.1,438.3 461.8,433.1 481.1,428 		"/>
		<polygon class="st8" points="518.7,438.3 537.9,433.1 518.7,428 		"/>
		<line class="st48" x1="538.3" y1="433.3" x2="658.1" y2="433.3"/>
		<g>
			<path class="st6" d="M564.6,416L564.6,416l-2.3,1.2l-0.3-1.3l2.8-1.5l1.5,0l-0.1,12.8l-1.7,0L564.6,416z"/>
		</g>
		<g>
			<path class="st6" d="M570.9,427.2l0-1.1l1.4-1.3c3.3-3.1,4.8-4.7,4.8-6.7c0-1.3-0.6-2.5-2.5-2.5c-1.2,0-2.1,0.6-2.7,1.1l-0.5-1.2
				c0.9-0.7,2.2-1.3,3.6-1.3c2.8,0,3.9,1.9,3.9,3.8c0,2.4-1.7,4.3-4.5,6.9l-1,0.9v0l5.8,0l0,1.4L570.9,427.2z"/>
		</g>
		<g>
			<path class="st6" d="M581.2,426.3c0-0.7,0.5-1.2,1.2-1.2c0.7,0,1.2,0.5,1.2,1.2c0,0.7-0.5,1.2-1.2,1.2
				C581.7,427.5,581.2,427,581.2,426.3z"/>
			<path class="st6" d="M585.6,425.3c0.5,0.3,1.6,0.8,2.8,0.8c2.2,0,2.9-1.4,2.9-2.5c0-1.8-1.6-2.6-3.3-2.6l-1,0l0-1.3l1,0
				c1.3,0,2.9-0.6,2.9-2.2c0-1-0.6-1.9-2.2-1.9c-1,0-2,0.4-2.6,0.8l-0.4-1.3c0.7-0.5,2-1,3.4-1c2.5,0,3.7,1.5,3.7,3.1
				c0,1.3-0.8,2.4-2.4,3v0c1.6,0.3,2.9,1.5,2.8,3.3c0,2.1-1.6,3.8-4.7,3.8c-1.4,0-2.7-0.5-3.3-0.9L585.6,425.3z"/>
		</g>
		<g>
			<path class="st6" d="M603.9,413.7c-1.5,1.9-2.5,4.5-2.5,8.1c0,3.5,1,6,2.4,8l-1.4,0c-1.2-1.6-2.6-4.2-2.5-8
				c0-3.9,1.4-6.4,2.6-8.1L603.9,413.7z"/>
		</g>
		<g>
			<path class="st6" d="M613.6,420.9c0,4.4-1.7,6.8-4.5,6.7c-2.5,0-4.2-2.4-4.2-6.6c0-4.3,1.9-6.7,4.5-6.6
				C612.1,414.4,613.6,416.8,613.6,420.9z M606.7,421.1c0,3.3,1,5.2,2.6,5.2c1.8,0,2.6-2.1,2.7-5.3c0-3.2-0.8-5.2-2.6-5.2
				C607.8,415.7,606.7,417.6,606.7,421.1z"/>
		</g>
		<g>
			<path class="st6" d="M615.3,426.5c0-0.7,0.5-1.2,1.2-1.2c0.7,0,1.2,0.5,1.2,1.2c0,0.7-0.5,1.2-1.2,1.2
				C615.8,427.7,615.3,427.2,615.3,426.5z"/>
			<path class="st6" d="M624.6,427.5l0-3.5l-6,0l0-1.1l5.8-8.2l1.9,0l0,8l1.8,0l0,1.4l-1.8,0l0,3.5L624.6,427.5z M624.7,422.7l0-4.3
				c0-0.7,0-1.3,0.1-2l-0.1,0c-0.4,0.7-0.7,1.3-1.1,1.9l-3.2,4.3v0L624.7,422.7z"/>
		</g>
		<g>
			<path class="st6" d="M629.3,424.3c0-1.6,1-2.8,2.6-3.4l0-0.1c-1.4-0.7-2-1.8-2-2.9c0-2,1.7-3.4,4-3.4c2.5,0,3.7,1.6,3.7,3.2
				c0,1.1-0.5,2.2-2.1,3l0,0.1c1.6,0.6,2.6,1.8,2.6,3.3c0,2.2-1.9,3.7-4.4,3.7C630.9,427.8,629.3,426.2,629.3,424.3z M636.2,424.3
				c0-1.6-1.1-2.3-2.8-2.8c-1.5,0.4-2.3,1.4-2.3,2.6c-0.1,1.3,0.9,2.5,2.6,2.5C635.1,426.6,636.2,425.6,636.2,424.3z M631.4,417.8
				c0,1.3,1,2,2.4,2.4c1.1-0.4,2-1.2,2-2.3c0-1-0.6-2.1-2.2-2.1C632.2,415.8,631.4,416.7,631.4,417.8z"/>
		</g>
		<g>
			<path class="st6" d="M644.9,427.7l0-3.5l-6,0l0-1.1l5.8-8.2l1.9,0l0,8l1.8,0l0,1.4l-1.8,0l0,3.5L644.9,427.7z M644.9,422.8l0-4.3
				c0-0.7,0-1.3,0.1-2l-0.1,0c-0.4,0.7-0.7,1.3-1.1,1.9l-3.2,4.3v0L644.9,422.8z"/>
		</g>
		<g>
			<path class="st6" d="M651.6,414.2l-0.4,4.7l-1.1,0l-0.3-4.7L651.6,414.2z M654.5,414.2l-0.4,4.7l-1,0l-0.3-4.7L654.5,414.2z"/>
			<path class="st6" d="M655.8,430.1c1.4-1.9,2.5-4.5,2.5-8.1c0-3.5-1-6.1-2.4-8l1.3,0c1.3,1.6,2.6,4.2,2.5,8c0,3.9-1.4,6.4-2.6,8
				L655.8,430.1z"/>
		</g>
		<polyline class="st48" points="842,738.8 872.6,766.8 934.9,766.8 		"/>
		<polygon class="st8" points="841.2,744.9 830.5,728.1 848.2,737.2 		"/>
		<polyline class="st48" points="843.9,680 874.5,652 936.8,652 		"/>
		<polygon class="st8" points="849.8,681.3 832.1,690.4 842.9,673.6 		"/>
		<g>
			<path class="st6" d="M897.3,759.3v-14.1h6.3c1.3,0,2.2,0.1,2.9,0.4c0.7,0.3,1.2,0.7,1.6,1.3c0.4,0.6,0.6,1.4,0.6,2.1
				c0,1-0.3,1.8-1,2.5c-0.6,0.7-1.7,1.1-3,1.3c0.5,0.2,0.9,0.5,1.1,0.7c0.5,0.5,1.1,1.1,1.6,1.9l2.5,3.8h-2.3l-1.9-2.9
				c-0.5-0.8-1-1.5-1.3-1.9c-0.4-0.4-0.7-0.8-0.9-0.9s-0.6-0.3-0.9-0.4c-0.2,0-0.6-0.1-1-0.1h-2.2v6.3H897.3z M899.2,751.4h4
				c0.9,0,1.5-0.1,2-0.3c0.5-0.2,0.8-0.5,1.1-0.8c0.3-0.4,0.4-0.8,0.4-1.3c0-0.7-0.2-1.2-0.7-1.6c-0.5-0.4-1.3-0.6-2.3-0.6h-4.5
				V751.4z"/>
			<path class="st6" d="M917.3,759.3h-1.7v-11c-0.4,0.4-1,0.8-1.6,1.2c-0.7,0.4-1.3,0.7-1.8,0.9v-1.7c1-0.5,1.8-1,2.5-1.7
				s1.2-1.3,1.5-1.9h1.1V759.3z"/>
			<path class="st6" d="M922.7,759.3v-2h2v2H922.7z"/>
			<path class="st6" d="M936.2,748.7l-1.7,0.1c-0.2-0.7-0.4-1.2-0.7-1.5c-0.5-0.5-1-0.7-1.7-0.7c-0.6,0-1,0.2-1.5,0.5
				c-0.5,0.4-1,1-1.3,1.7c-0.3,0.8-0.5,1.9-0.5,3.3c0.4-0.6,0.9-1.1,1.5-1.4c0.6-0.3,1.2-0.5,1.9-0.5c1.2,0,2.1,0.4,3,1.3
				c0.8,0.9,1.2,2,1.2,3.3c0,0.9-0.2,1.7-0.6,2.5s-0.9,1.3-1.6,1.7c-0.7,0.4-1.4,0.6-2.3,0.6c-1.4,0-2.6-0.5-3.5-1.6
				c-0.9-1.1-1.4-2.8-1.4-5.3c0-2.7,0.5-4.7,1.5-6c0.9-1.1,2.1-1.6,3.6-1.6c1.1,0,2,0.3,2.7,0.9
				C935.7,746.7,936.1,747.6,936.2,748.7z M929.2,754.8c0,0.6,0.1,1.2,0.4,1.7c0.3,0.5,0.6,1,1.1,1.2c0.5,0.3,0.9,0.4,1.4,0.4
				c0.7,0,1.4-0.3,1.9-0.9s0.8-1.4,0.8-2.4c0-1-0.3-1.7-0.8-2.3c-0.5-0.6-1.2-0.8-2-0.8c-0.8,0-1.4,0.3-2,0.8
				C929.4,753.1,929.2,753.8,929.2,754.8z"/>
		</g>
		<g>
			<path class="st6" d="M897.3,644.5v-14.1h6.3c1.3,0,2.2,0.1,2.9,0.4c0.7,0.3,1.2,0.7,1.6,1.3c0.4,0.6,0.6,1.4,0.6,2.1
				c0,1-0.3,1.8-1,2.5c-0.6,0.7-1.7,1.1-3,1.3c0.5,0.2,0.9,0.5,1.1,0.7c0.5,0.5,1.1,1.1,1.6,1.9l2.5,3.8h-2.3l-1.9-2.9
				c-0.5-0.8-1-1.5-1.3-1.9c-0.4-0.4-0.7-0.8-0.9-0.9s-0.6-0.3-0.9-0.4c-0.2,0-0.6-0.1-1-0.1h-2.2v6.3H897.3z M899.2,636.6h4
				c0.9,0,1.5-0.1,2-0.3c0.5-0.2,0.8-0.5,1.1-0.8c0.3-0.4,0.4-0.8,0.4-1.3c0-0.7-0.2-1.2-0.7-1.6c-0.5-0.4-1.3-0.6-2.3-0.6h-4.5
				V636.6z"/>
			<path class="st6" d="M917.3,644.5h-1.7v-11c-0.4,0.4-1,0.8-1.6,1.2c-0.7,0.4-1.3,0.7-1.8,0.9v-1.7c1-0.5,1.8-1,2.5-1.7
				s1.2-1.3,1.5-1.9h1.1V644.5z"/>
			<path class="st6" d="M922.7,644.5v-2h2v2H922.7z"/>
			<path class="st6" d="M936.2,633.8l-1.7,0.1c-0.2-0.7-0.4-1.2-0.7-1.5c-0.5-0.5-1-0.7-1.7-0.7c-0.6,0-1,0.2-1.5,0.5
				c-0.5,0.4-1,1-1.3,1.7c-0.3,0.8-0.5,1.9-0.5,3.3c0.4-0.6,0.9-1.1,1.5-1.4c0.6-0.3,1.2-0.5,1.9-0.5c1.2,0,2.1,0.4,3,1.3
				c0.8,0.9,1.2,2,1.2,3.3c0,0.9-0.2,1.7-0.6,2.5s-0.9,1.3-1.6,1.7c-0.7,0.4-1.4,0.6-2.3,0.6c-1.4,0-2.6-0.5-3.5-1.6
				c-0.9-1.1-1.4-2.8-1.4-5.3c0-2.7,0.5-4.7,1.5-6c0.9-1.1,2.1-1.6,3.6-1.6c1.1,0,2,0.3,2.7,0.9
				C935.7,631.8,936.1,632.7,936.2,633.8z M929.2,639.9c0,0.6,0.1,1.2,0.4,1.7c0.3,0.5,0.6,1,1.1,1.2c0.5,0.3,0.9,0.4,1.4,0.4
				c0.7,0,1.4-0.3,1.9-0.9s0.8-1.4,0.8-2.4c0-1-0.3-1.7-0.8-2.3c-0.5-0.6-1.2-0.8-2-0.8c-0.8,0-1.4,0.3-2,0.8
				C929.4,638.2,929.2,639,929.2,639.9z"/>
		</g>
	</g>
</g>
<g id="Watermark">
	<g>
		<rect x="438.5" y="642.8" class="st0" width="123.1" height="46.3"/>
		<g>
			<rect x="444.9" y="650.7" class="st106" width="62.9" height="30.6"/>
			<rect x="507.7" y="650.7" class="st106" width="47.4" height="30.6"/>
			<g>
				<path class="st107" d="M466.5,656.8l-2.8,18.9H461l-1.6-11l-1.5,11h-2.7l-2.8-18.9h2.5l1.8,14.2l1.8-14.2h2l1.8,14.2l1.8-14.2
					H466.5z"/>
				<path class="st107" d="M467.9,675.7v-18.9h2.5v18.9H467.9z"/>
				<path class="st107" d="M472.8,656.8h5c1.9,0,2.9,1.1,2.9,3.2v4.7c0,1.7-0.5,2.7-1.5,3.1l1.8,7.9h-2.4l-1.7-7.6h-1.5v7.6h-2.5
					V656.8z M475.4,665.9h1.7c0.8,0,1.1-0.5,1.1-1.4v-4.1c0-0.9-0.4-1.4-1.1-1.4h-1.7V665.9z"/>
				<path class="st107" d="M486.8,659.1v16.6h-2.5v-16.6h-2.4v-2.3h7.4v2.3H486.8z"/>
				<path class="st107" d="M496.3,675.7v-8.6h-3.1v8.6h-2.5v-18.9h2.5v8h3.1v-8h2.5v18.9H496.3z"/>
			</g>
			<g>
				<path class="st107" d="M516.3,656.8h5c1.9,0,2.9,1.1,2.9,3.2v4.7c0,1.7-0.5,2.7-1.5,3.1l1.8,7.9H522l-1.7-7.6h-1.5v7.6h-2.5
					V656.8z M518.8,665.9h1.7c0.8,0,1.1-0.5,1.1-1.4v-4.1c0-0.9-0.4-1.4-1.1-1.4h-1.7V665.9z"/>
				<path class="st107" d="M528.7,675.7h-2.5V660c0-2.2,1-3.2,3-3.2h1.9c2,0,3,1.1,3,3.2v15.7h-2.5v-6.9h-2.9V675.7z M531.6,666.5
					v-6.3c0-0.7-0.4-1.1-1.1-1.1h-0.7c-0.7,0-1.1,0.4-1.1,1.1v6.3H531.6z"/>
				<path class="st107" d="M536.3,675.7v-18.9h2.5v18.9H536.3z"/>
				<path class="st107" d="M547.2,675.7h-6v-18.9h2.5v16.6h3.5V675.7z"/>
			</g>
		</g>
	</g>
</g>
</svg>
