<?xml version="1.0" encoding="utf-8"?>
<!-- Generator: Adobe Illustrator 25.2.3, SVG Export Plug-In . SVG Version: 6.00 Build 0)  -->
<svg version="1.1" xmlns="http://www.w3.org/2000/svg" xmlns:xlink="http://www.w3.org/1999/xlink" x="0px" y="0px"
	 viewBox="0 0 1000 800" style="enable-background:new 0 0 1000 800;" xml:space="preserve">
<style type="text/css">
	.st0{fill:#F0F0F0;}
	.st1{fill:none;stroke:#221E1F;stroke-width:1.2032;}
	.st2{fill:none;stroke:#221E1F;stroke-width:1.0736;}
	.st3{fill:none;stroke:#221E1F;stroke-width:1.2032;stroke-miterlimit:10;}
	.st4{fill:none;stroke:#221E1F;stroke-width:1.0736;stroke-linecap:round;stroke-linejoin:round;stroke-miterlimit:10;}
	.st5{fill:none;stroke:#221E1F;stroke-width:1.0736;stroke-miterlimit:10;}
	.st6{fill:#303030;}
	.st7{fill:none;stroke:#221E1F;stroke-width:1.2032;stroke-linecap:round;stroke-linejoin:round;}
	.st8{fill:#221E1F;}
	.st9{fill:none;stroke:#221E1F;stroke-width:1.2032;stroke-dasharray:15.0983,4.5412;}
	.st10{fill:none;stroke:#221E1F;stroke-width:1.327;}
	.st11{fill:none;stroke:#221E1F;stroke-width:1.327;stroke-miterlimit:10;}
	.st12{fill:none;stroke:#221E1F;stroke-width:1.5312;stroke-miterlimit:10;}
	.st13{fill:none;stroke:#221E1F;stroke-width:1.327;stroke-linecap:round;stroke-linejoin:round;}
	.st14{fill:none;stroke:#221E1F;stroke-width:1.327;stroke-dasharray:16.5574,4.9134;}
	.st15{fill:none;stroke:#221E1F;stroke-width:1.1875;stroke-linecap:round;stroke-linejoin:round;}
	.st16{fill:none;stroke:#221E1F;stroke-width:1.1875;stroke-miterlimit:10;}
	.st17{fill:none;stroke:#221E1F;stroke-width:1.0882;}
	.st18{fill:none;stroke:#221E1F;stroke-width:1.0882;stroke-miterlimit:10;}
	.st19{fill:none;stroke:#221E1F;stroke-width:1.01;stroke-linecap:round;stroke-linejoin:round;stroke-miterlimit:10;}
	.st20{fill:none;stroke:#221E1F;stroke-width:1.0268;stroke-linecap:round;stroke-linejoin:round;stroke-miterlimit:10;}
	.st21{fill:none;stroke:#221E1F;stroke-width:1.0268;}
	.st22{fill:none;stroke:#221E1F;stroke-width:1.0882;stroke-linecap:round;stroke-linejoin:round;stroke-miterlimit:10;}
	.st23{fill:none;stroke:#221E1F;stroke-width:1.0882;stroke-linecap:round;stroke-linejoin:round;}
	.st24{fill:none;stroke:#221E1F;stroke-width:1.0882;stroke-dasharray:13.6188,4.0709;}
	.st25{fill:none;stroke:#303030;stroke-width:1.0882;stroke-miterlimit:10;}
	.st26{fill:none;stroke:#303030;stroke-width:0.9459;stroke-miterlimit:10;}
	.st27{fill:none;stroke:#303030;stroke-width:0.625;stroke-miterlimit:10;}
	.st28{fill:none;stroke:#221E1F;stroke-width:1.2065;}
	.st29{fill:none;stroke:#221E1F;stroke-width:1.058;stroke-miterlimit:10;}
	.st30{fill:none;stroke:#221E1F;stroke-width:1.2065;stroke-miterlimit:10;}
	.st31{fill:none;stroke:#221E1F;stroke-width:1.2065;stroke-dasharray:15.1403,4.5538;}
	.st32{fill:none;stroke:#221E1F;stroke-width:1.2065;stroke-linecap:round;stroke-linejoin:round;}
	.st33{fill:none;stroke:#221E1F;stroke-width:1.0363;}
	.st34{fill:none;stroke:#221E1F;stroke-width:1.0363;stroke-miterlimit:10;}
	.st35{fill:none;stroke:#221E1F;stroke-width:1.0536;stroke-linecap:round;stroke-linejoin:round;stroke-miterlimit:10;}
	.st36{fill:none;stroke:#221E1F;stroke-width:1.0536;stroke-miterlimit:10;}
	.st37{fill:none;stroke:#221E1F;stroke-width:1.0363;stroke-linecap:round;stroke-linejoin:round;}
	.st38{fill:none;stroke:#221E1F;stroke-width:1.0363;stroke-dasharray:14.1142,4.2633;}
	.st39{fill:none;stroke:#221E1F;stroke-width:1.0394;}
	.st40{fill:none;stroke:#221E1F;stroke-width:1.1318;stroke-linecap:round;stroke-linejoin:round;stroke-miterlimit:10;}
	.st41{fill:none;stroke:#221E1F;stroke-width:1.0394;stroke-miterlimit:10;}
	.st42{fill:none;stroke:#221E1F;stroke-width:1.1318;stroke-miterlimit:10;}
	.st43{fill:none;stroke:#221E1F;stroke-width:1.0394;stroke-dasharray:14.096,4.2184;}
	.st44{fill:none;stroke:#221E1F;stroke-width:0.9644;stroke-linecap:round;stroke-linejoin:round;}
	.st45{fill:none;stroke:#221E1F;stroke-width:1.0394;stroke-linecap:round;stroke-linejoin:round;}
	.st46{fill:none;stroke:#221E1F;stroke-width:1.0394;stroke-dasharray:28.8705,8.4195;}
	.st47{fill:none;stroke:#221E1F;stroke-width:1.0394;stroke-dasharray:30.1958,9.7419;}
	.st48{fill:none;stroke:#221E1F;stroke-width:1.1834;}
	.st49{fill:none;stroke:#221E1F;stroke-width:1.1834;stroke-dasharray:22.2172,9.0331;}
	.st50{fill:none;stroke:#221E1F;stroke-width:1.1834;stroke-dasharray:22.205,9.024;}
	.st51{fill:none;stroke:#221E1F;stroke-width:1.1834;stroke-dasharray:22.2172,9.0362;}
	.st52{fill:none;stroke:#221E1F;stroke-width:1.1834;stroke-dasharray:22.205,9.021;}
	.st53{fill:none;stroke:#221E1F;stroke-width:1.1834;stroke-dasharray:14.8529,4.4695;}
	.st54{fill:none;stroke:#221E1F;stroke-width:1.1834;stroke-linecap:round;stroke-linejoin:round;}
	.st55{fill:none;stroke:#221E1F;stroke-width:0.9791;}
	.st56{fill:none;stroke:#221E1F;stroke-width:1.2076;}
	.st57{fill:none;stroke:#221E1F;stroke-width:1.2076;stroke-dasharray:17.3391,6.3726;}
	.st58{fill:none;stroke:#221E1F;stroke-width:1.2076;stroke-dasharray:17.3363,6.3726;}
	.st59{fill:none;stroke:#221E1F;stroke-width:0.9791;stroke-dasharray:17.5349,5.1568;}
	.st60{fill:none;stroke:#303030;stroke-width:0.9791;}
	.st61{fill:none;stroke:#221E1F;stroke-width:0.8976;stroke-linecap:round;stroke-linejoin:round;}
	.st62{fill:none;stroke:#241F21;stroke-width:0.9771;}
	
		.st63{fill:none;stroke:#241F21;stroke-width:0.9771;stroke-linecap:round;stroke-linejoin:round;stroke-miterlimit:1;stroke-dasharray:16.5466,16.5466;}
	
		.st64{fill:none;stroke:#241F21;stroke-width:0.9771;stroke-linecap:round;stroke-linejoin:round;stroke-miterlimit:1;stroke-dasharray:17.1257,17.1257;}
	
		.st65{fill:none;stroke:#241F21;stroke-width:0.9771;stroke-linecap:round;stroke-linejoin:round;stroke-miterlimit:1;stroke-dasharray:16.5967,16.5967;}
	.st66{fill:none;stroke:#241F21;stroke-width:0.9771;stroke-linecap:round;stroke-linejoin:round;stroke-miterlimit:1;}
	.st67{fill:#241F21;}
	.st68{fill:none;stroke:#241F21;stroke-width:0.7626;stroke-linecap:round;stroke-linejoin:round;stroke-miterlimit:1;}
	.st69{fill:none;stroke:#221E1F;stroke-width:1.2516;}
	.st70{fill:none;stroke:#221E1F;stroke-width:1.2516;stroke-miterlimit:10;}
	.st71{fill:none;stroke:#221E1F;stroke-width:0.6258;}
	.st72{fill:none;stroke:#221E1F;stroke-width:0.6258;stroke-dasharray:18.3883,4.6234;}
	.st73{fill:none;stroke:#221E1F;stroke-width:0.6258;stroke-dasharray:21.5524,17.6199;}
	.st74{fill:none;stroke:#221E1F;stroke-width:0.6258;stroke-dasharray:20.1706,6.4056;}
	.st75{fill:none;stroke:#221E1F;stroke-width:0.9654;}
	.st76{fill:none;stroke:#303030;stroke-width:0.9654;}
	.st77{fill:none;stroke:#303030;stroke-width:0.9017;}
	.st78{fill:none;stroke:#303030;stroke-width:0.9654;stroke-dasharray:14.0607,4.2416;}
	.st79{fill:none;stroke:#303030;stroke-width:0.9654;stroke-dasharray:13.938,4.1189;}
	.st80{fill:none;stroke:#303030;stroke-width:0.9654;stroke-dasharray:14.3912,4.5697;}
	.st81{fill:none;stroke:#303030;stroke-width:0.9654;stroke-dasharray:14.7358,4.9143;}
	.st82{fill:none;stroke:#221E1F;stroke-width:0.9654;stroke-dasharray:15.4321,4.6901;}
	.st83{fill:none;stroke:#221E1F;stroke-width:0.9654;stroke-linecap:round;stroke-linejoin:round;}
	.st84{fill:none;stroke:#303030;stroke-width:0.8686;stroke-miterlimit:10;}
	.st85{fill:none;stroke:#303030;stroke-width:0.9654;stroke-miterlimit:10;}
	.st86{fill:none;stroke:#221E1F;stroke-width:2.6151;}
	.st87{fill:none;stroke:#221E1F;stroke-width:1.816;}
	.st88{fill:none;stroke:#221E1F;stroke-width:1.816;stroke-dasharray:21.5996,5.873;}
	.st89{fill:none;stroke:#221E1F;stroke-width:1.816;stroke-dasharray:21.596,5.8693;}
	.st90{fill:none;stroke:#221E1F;stroke-width:1.816;stroke-dasharray:45.6036,34.3698;}
	.st91{fill:none;stroke:#221E1F;stroke-width:1.816;stroke-dasharray:45.5927,34.3589;}
	.st92{fill:none;stroke:#221E1F;stroke-width:1.816;stroke-dasharray:21.596,5.873;}
	.st93{fill:none;stroke:#221E1F;stroke-width:2.158;}
	.st94{fill:none;stroke:#221E1F;stroke-width:1.4986;}
	.st95{fill:none;stroke:#221E1F;stroke-width:1.4986;stroke-dasharray:19.9046,5.413;}
	.st96{fill:none;stroke:#221E1F;stroke-width:1.4986;stroke-dasharray:19.9016,5.41;}
	.st97{fill:none;stroke:#221E1F;stroke-width:1.4986;stroke-dasharray:35.6909,25.3385;}
	.st98{fill:none;stroke:#221E1F;stroke-width:0.8673;}
	.st99{fill:none;stroke:#303030;stroke-width:0.9125;stroke-miterlimit:10;}
	.st100{fill:none;stroke:#303030;stroke-width:8.808669e-02;stroke-linecap:round;stroke-linejoin:round;stroke-miterlimit:10;}
	.st101{fill:none;stroke:#303030;stroke-width:0.8786;stroke-miterlimit:10;}
	.st102{fill:none;stroke:#303030;stroke-width:0.8786;}
	.st103{fill:none;stroke:#221E1F;stroke-width:0.9125;}
	.st104{fill:none;stroke:#221E1F;stroke-width:0.9125;stroke-dasharray:15.7291,4.7273;}
	.st105{fill:none;stroke:#221E1F;stroke-width:0.9125;stroke-linecap:round;stroke-linejoin:round;}
	.st106{fill:#F0F0F0;stroke:#CCCCCC;stroke-miterlimit:10;}
	.st107{fill:#CCCCCC;}
</style>
<g id="Flat">
	<g>
		<g>
			<path class="st0" d="M246.2,727.4c-7.3,0.4-10.9-6.9-10.9-10.8v-25c0-6.4,3.9-11.5,10.9-13.3c0,0,42-2.4,92.3-6.9
				c39.4-9.1,62.2-15.4,100.8-25.1c12.6-3.1,19.8-11.7,21.7-21.1c6.2-29.7,6.6-41.4,9.7-76.4c2.9-33.7,4.5-235.2-2.5-280.2
				c-2.4-15.5-4.3-29.5-20.7-35c-13.6-4.5-87.6-22.9-87.6-22.9c-3.6-1.2-6-4.7-5.7-9.1l0.1-86.2c2-28,24.4-52.6,50.6-60.8
				c17.5-5.5,77.2-5.3,95.6-5.3h0.2c18.4,0,78.1-0.2,95.6,5.3c26.2,8.2,48.6,32.8,50.6,60.8l0.1,86.2c0.2,4.4-2.1,7.9-5.7,9.1
				c0,0-74,18.4-87.6,22.9c-16.4,5.5-18.3,19.4-20.7,35c-7,45-5.4,246.6-2.5,280.2c3,35,3.4,46.7,9.7,76.4c2,9.4,9.2,18,21.7,21.1
				c38.6,9.7,61.4,15.9,100.8,25.1c50.3,4.5,92.3,6.9,92.3,6.9c7,1.7,10.9,6.8,10.9,13.3v25c0,3.9-3.6,11.2-10.9,10.8H500.3H246.2z"
				/>
			<path class="st55" d="M246.2,727.4c-7.3,0.4-10.9-6.9-10.9-10.8v-25c0-6.4,3.9-11.5,10.9-13.3c0,0,42-2.4,92.3-6.9
				c39.4-9.1,62.2-15.4,100.8-25.1c12.6-3.1,19.8-11.7,21.7-21.1c6.2-29.7,6.6-41.4,9.7-76.4c2.9-33.7,4.5-235.2-2.5-280.2
				c-2.4-15.5-4.3-29.5-20.7-35c-13.6-4.5-87.6-22.9-87.6-22.9c-3.6-1.2-6-4.7-5.7-9.1l0.1-86.2c2-28,24.4-52.6,50.6-60.8
				c17.5-5.5,77.2-5.3,95.6-5.3h0.2c18.4,0,78.1-0.2,95.6,5.3c26.2,8.2,48.6,32.8,50.6,60.8l0.1,86.2c0.2,4.4-2.1,7.9-5.7,9.1
				c0,0-74,18.4-87.6,22.9c-16.4,5.5-18.3,19.4-20.7,35c-7,45-5.4,246.6-2.5,280.2c3,35,3.4,46.7,9.7,76.4c2,9.4,9.2,18,21.7,21.1
				c38.6,9.7,61.4,15.9,100.8,25.1c50.3,4.5,92.3,6.9,92.3,6.9c7,1.7,10.9,6.8,10.9,13.3v25c0,3.9-3.6,11.2-10.9,10.8H500.3H246.2z"
				/>
		</g>
		<path class="st55" d="M353.9,16.5v190.7 M648,14.8v190.7"/>
		<polyline class="st56" points="615.8,87.6 570.7,128.8 506.8,128.8 		"/>
		<polygon class="st8" points="609.7,86.3 627.7,76.9 616.8,94 		"/>
		<polyline class="st55" points="444.9,64.4 449.2,141.5 362.9,141.5 		"/>
		<polygon class="st8" points="441,67.5 444.4,51.4 449.5,67.1 		"/>
		<polyline class="st55" points="402.6,645.5 358.2,586.2 284.6,586.2 		"/>
		<polygon class="st8" points="404.1,640.7 410.3,656 397.3,645.9 		"/>
		<polyline class="st55" points="548.1,304.6 581,309.1 674.8,309.1 		"/>
		<polygon class="st8" points="550.4,309 535.2,302.6 551.6,300.6 		"/>
		<polyline class="st55" points="550.5,575.4 583.4,570.9 677.3,570.9 		"/>
		<polygon class="st8" points="554,579.1 537.6,577 552.8,570.6 		"/>
		<polyline class="st56" points="632.7,196.4 598.1,164.7 529.6,164.7 		"/>
		<polygon class="st8" points="633.5,190.2 644.5,207.4 626.4,198 		"/>
		<polyline class="st55" points="448.6,250.4 370.7,324.1 297,324.1 		"/>
		<polygon class="st8" points="443.6,249.4 458.1,241.5 449.5,255.6 		"/>
		<polyline class="st55" points="444.1,628 359,548.2 285.4,548.2 		"/>
		<polygon class="st8" points="444.8,623 453.4,637 438.9,629.3 		"/>
		<polyline class="st55" points="394.7,235.8 369.5,278.7 295.9,278.7 		"/>
		<polygon class="st8" points="389.7,236.2 401.4,224.6 397,240.5 		"/>
		<polyline class="st55" points="750.8,694.4 718.4,722 655.5,722 		"/>
		<polygon class="st8" points="745.9,693.2 760.8,686.1 751.4,699.7 		"/>
		<line class="st55" x1="205.8" y1="230.2" x2="205.8" y2="63.4"/>
		<polygon class="st8" points="209.9,227.3 205.6,243.2 201.4,227.3 		"/>
		<polygon class="st8" points="209.9,66.4 205.6,50.4 201.4,66.4 		"/>
		<line class="st55" x1="150.2" y1="713.3" x2="150.2" y2="63.4"/>
		<polygon class="st8" points="154.3,710.4 150,726.3 145.7,710.4 		"/>
		<polygon class="st8" points="154.3,66.3 150,50.4 145.7,66.3 		"/>
		<line class="st55" x1="205.8" y1="714.5" x2="205.8" y2="643.1"/>
		<polygon class="st8" points="209.9,711.6 205.6,727.5 201.4,711.6 		"/>
		<polygon class="st8" points="209.9,646 205.6,630.1 201.4,646 		"/>
		<line class="st55" x1="816.5" y1="714.5" x2="816.5" y2="692.6"/>
		<polygon class="st8" points="820.6,711.6 816.4,727.5 812.1,711.6 		"/>
		<polygon class="st8" points="820.6,695.5 816.4,679.6 812.1,695.5 		"/>
		<line class="st57" x1="545.4" y1="236.8" x2="505.6" y2="246.7"/>
		<line class="st58" x1="455.3" y1="236.8" x2="495.1" y2="246.7"/>
		<line class="st58" x1="545.4" y1="642.6" x2="505.6" y2="632.8"/>
		<line class="st58" x1="455.3" y1="642.6" x2="495.1" y2="632.8"/>
		<line class="st55" x1="731.8" y1="49" x2="139.2" y2="49"/>
		<line class="st56" x1="392" y1="246.4" x2="498.5" y2="246.4"/>
		<path class="st55" d="M188,630.5h311.5 M500.5,386.5h222 M204.9,246.4H382"/>
		<line class="st56" x1="139.2" y1="727.4" x2="243.9" y2="727.4"/>
		<g>
			<path class="st55" d="M713.1,374.5V64.1 M235.4,708.1v82.4 M766.2,710.3v82.4"/>
		</g>
		<polygon class="st8" points="717.2,371.6 712.9,387.6 708.7,371.6 		"/>
		<polygon class="st8" points="717.2,67 712.9,51.1 708.7,67 		"/>
		<line class="st55" x1="205.8" y1="614.2" x2="205.8" y2="263.8"/>
		<polygon class="st8" points="209.9,611.3 205.6,627.3 201.4,611.3 		"/>
		<polygon class="st8" points="209.9,266.7 205.6,250.8 201.4,266.7 		"/>
		<line class="st55" x1="773.2" y1="679.4" x2="826.8" y2="679.4"/>
		<line class="st56" x1="758.7" y1="726.9" x2="826.8" y2="726.9"/>
		<polyline class="st55" points="775.5,737.5 812.4,771.2 880.9,771.2 		"/>
		<polygon class="st8" points="774.9,742.5 766,728.6 780.6,736.2 		"/>
		<g>
			<path class="st6" d="M508.1,121.8v-11.7h5.2c1,0,1.8,0.1,2.4,0.3s1,0.6,1.3,1.1c0.3,0.5,0.5,1.1,0.5,1.8c0,0.8-0.3,1.5-0.8,2.1
				c-0.5,0.6-1.4,0.9-2.5,1.1c0.4,0.2,0.7,0.4,0.9,0.6c0.5,0.4,0.9,0.9,1.3,1.6l2,3.2h-1.9l-1.5-2.4c-0.5-0.7-0.8-1.2-1.1-1.6
				c-0.3-0.4-0.6-0.6-0.8-0.8s-0.5-0.3-0.7-0.3c-0.2,0-0.5-0.1-0.9-0.1h-1.8v5.2H508.1z M509.7,115.3h3.3c0.7,0,1.3-0.1,1.7-0.2
				s0.7-0.4,0.9-0.7c0.2-0.3,0.3-0.7,0.3-1c0-0.6-0.2-1-0.6-1.4c-0.4-0.4-1-0.5-1.9-0.5h-3.7V115.3z"/>
			<path class="st6" d="M529.2,121.8h-1.4v-9.1c-0.3,0.3-0.8,0.7-1.4,1c-0.6,0.3-1.1,0.6-1.5,0.7V113c0.8-0.4,1.5-0.8,2.1-1.4
				c0.6-0.5,1-1.1,1.3-1.6h0.9V121.8z"/>
			<path class="st6" d="M537.5,121.8V119h-5.1v-1.3l5.3-7.6h1.2v7.6h1.6v1.3h-1.6v2.8H537.5z M537.5,117.7v-5.3l-3.7,5.3H537.5z"/>
		</g>
		<g>
			<path class="st6" d="M532.1,158.5v-11.7h5.2c1,0,1.8,0.1,2.4,0.3s1,0.6,1.3,1.1c0.3,0.5,0.5,1.1,0.5,1.8c0,0.8-0.3,1.5-0.8,2.1
				c-0.5,0.6-1.4,0.9-2.5,1.1c0.4,0.2,0.7,0.4,0.9,0.6c0.5,0.4,0.9,0.9,1.3,1.6l2,3.2h-1.9l-1.5-2.4c-0.5-0.7-0.8-1.2-1.1-1.6
				c-0.3-0.4-0.6-0.6-0.8-0.8s-0.5-0.3-0.7-0.3c-0.2,0-0.5-0.1-0.9-0.1h-1.8v5.2H532.1z M533.7,152h3.3c0.7,0,1.3-0.1,1.7-0.2
				s0.7-0.4,0.9-0.7c0.2-0.3,0.3-0.7,0.3-1c0-0.6-0.2-1-0.6-1.4c-0.4-0.4-1-0.5-1.9-0.5h-3.7V152z"/>
		</g>
		<g>
			<path class="st6" d="M555.4,157.1v1.4h-7.7c0-0.3,0-0.7,0.2-1c0.2-0.5,0.5-1,0.9-1.6c0.4-0.5,1.1-1.1,1.9-1.8
				c1.3-1,2.1-1.9,2.6-2.5s0.7-1.2,0.7-1.7c0-0.6-0.2-1-0.6-1.4c-0.4-0.4-0.9-0.6-1.6-0.6c-0.7,0-1.2,0.2-1.7,0.6
				c-0.4,0.4-0.6,1-0.6,1.7l-1.5-0.2c0.1-1.1,0.5-1.9,1.1-2.5c0.7-0.6,1.5-0.9,2.7-0.9c1.1,0,2,0.3,2.7,0.9c0.7,0.6,1,1.4,1,2.3
				c0,0.5-0.1,0.9-0.3,1.4c-0.2,0.5-0.5,0.9-1,1.4c-0.4,0.5-1.2,1.2-2.2,2.1c-0.9,0.7-1.4,1.2-1.7,1.5s-0.4,0.5-0.6,0.8H555.4z"/>
		</g>
		<g>
			<path class="st6" d="M364.2,132.4v-11.7h5.2c1,0,1.8,0.1,2.4,0.3s1,0.6,1.3,1.1c0.3,0.5,0.5,1.1,0.5,1.8c0,0.8-0.3,1.5-0.8,2.1
				c-0.5,0.6-1.4,0.9-2.5,1.1c0.4,0.2,0.7,0.4,0.9,0.6c0.5,0.4,0.9,0.9,1.3,1.6l2,3.2h-1.9L371,130c-0.5-0.7-0.8-1.2-1.1-1.6
				c-0.3-0.4-0.6-0.6-0.8-0.8s-0.5-0.3-0.7-0.3c-0.2,0-0.5-0.1-0.9-0.1h-1.8v5.2H364.2z M365.8,125.9h3.3c0.7,0,1.3-0.1,1.7-0.2
				s0.7-0.4,0.9-0.7c0.2-0.3,0.3-0.7,0.3-1c0-0.6-0.2-1-0.6-1.4c-0.4-0.4-1-0.5-1.9-0.5h-3.7V125.9z"/>
			<path class="st6" d="M387.5,131.1v1.4h-7.7c0-0.3,0-0.7,0.2-1c0.2-0.5,0.5-1,0.9-1.6c0.4-0.5,1.1-1.1,1.9-1.8
				c1.3-1,2.1-1.9,2.6-2.5s0.7-1.2,0.7-1.7c0-0.6-0.2-1-0.6-1.4c-0.4-0.4-0.9-0.6-1.6-0.6c-0.7,0-1.2,0.2-1.7,0.6
				c-0.4,0.4-0.6,1-0.6,1.7l-1.5-0.2c0.1-1.1,0.5-1.9,1.1-2.5c0.7-0.6,1.5-0.9,2.7-0.9c1.1,0,2,0.3,2.7,0.9c0.7,0.6,1,1.4,1,2.3
				c0,0.5-0.1,0.9-0.3,1.4c-0.2,0.5-0.5,0.9-1,1.4c-0.4,0.5-1.2,1.2-2.2,2.1c-0.9,0.7-1.4,1.2-1.7,1.5s-0.4,0.5-0.6,0.8H387.5z"/>
			<path class="st6" d="M396.5,131.1v1.4h-7.7c0-0.3,0-0.7,0.2-1c0.2-0.5,0.5-1,0.9-1.6c0.4-0.5,1.1-1.1,1.9-1.8
				c1.3-1,2.1-1.9,2.6-2.5s0.7-1.2,0.7-1.7c0-0.6-0.2-1-0.6-1.4c-0.4-0.4-0.9-0.6-1.6-0.6c-0.7,0-1.2,0.2-1.7,0.6
				c-0.4,0.4-0.6,1-0.6,1.7l-1.5-0.2c0.1-1.1,0.5-1.9,1.1-2.5c0.7-0.6,1.5-0.9,2.7-0.9c1.1,0,2,0.3,2.7,0.9c0.7,0.6,1,1.4,1,2.3
				c0,0.5-0.1,0.9-0.3,1.4c-0.2,0.5-0.5,0.9-1,1.4c-0.4,0.5-1.2,1.2-2.2,2.1c-0.9,0.7-1.4,1.2-1.7,1.5s-0.4,0.5-0.6,0.8H396.5z"/>
			<path class="st6" d="M398.1,129.4l1.5-0.1c0.1,0.7,0.4,1.3,0.8,1.7s0.9,0.6,1.5,0.6c0.7,0,1.3-0.3,1.8-0.8
				c0.5-0.5,0.7-1.2,0.7-2.1c0-0.8-0.2-1.5-0.7-1.9c-0.5-0.5-1.1-0.7-1.8-0.7c-0.5,0-0.9,0.1-1.3,0.3c-0.4,0.2-0.7,0.5-0.9,0.8
				l-1.3-0.2l1.1-6h5.8v1.4h-4.7l-0.6,3.1c0.7-0.5,1.4-0.7,2.2-0.7c1,0,1.9,0.4,2.6,1.1s1.1,1.6,1.1,2.7c0,1.1-0.3,2-0.9,2.7
				c-0.7,0.9-1.8,1.4-3.1,1.4c-1.1,0-1.9-0.3-2.6-0.9C398.6,131.2,398.2,130.4,398.1,129.4z"/>
		</g>
		<g>
			<path class="st6" d="M197,679.9v1.4h-9.1c0.3,0.3,0.7,0.8,1,1.4c0.3,0.6,0.6,1.1,0.7,1.5h-1.4c-0.4-0.8-0.8-1.5-1.4-2.1
				c-0.5-0.6-1.1-1-1.6-1.3v-0.9H197z"/>
			<path class="st6" d="M194.3,676l-0.1-1.4c0.6-0.1,1.1-0.3,1.4-0.7c0.3-0.3,0.4-0.8,0.4-1.3c0-0.4-0.1-0.8-0.3-1.2
				c-0.2-0.3-0.5-0.6-0.8-0.8c-0.3-0.2-0.8-0.4-1.4-0.5c-0.6-0.1-1.2-0.2-1.8-0.2c-0.1,0-0.2,0-0.3,0c0.5,0.3,0.8,0.7,1.1,1.2
				s0.4,1,0.4,1.6c0,1-0.4,1.8-1.1,2.5c-0.7,0.7-1.6,1-2.8,1c-1.2,0-2.1-0.3-2.9-1c-0.7-0.7-1.1-1.6-1.1-2.6c0-0.8,0.2-1.5,0.6-2.1
				c0.4-0.6,1-1.1,1.7-1.4c0.8-0.3,1.9-0.5,3.3-0.5c1.5,0,2.7,0.2,3.6,0.5c0.9,0.3,1.6,0.8,2,1.4c0.5,0.6,0.7,1.4,0.7,2.3
				c0,0.9-0.3,1.7-0.8,2.2S195.2,675.9,194.3,676z M189.1,670.1c-0.8,0-1.5,0.2-2,0.7c-0.5,0.4-0.7,1-0.7,1.6c0,0.6,0.3,1.2,0.8,1.7
				s1.2,0.7,2,0.7c0.7,0,1.3-0.2,1.8-0.7c0.5-0.4,0.7-1,0.7-1.7c0-0.7-0.2-1.2-0.7-1.6C190.6,670.3,189.9,670.1,189.1,670.1z"/>
		</g>
		<g>
			<path class="st6" d="M188.2,422.6h-1.4V415h1.1c0.8,0.7,1.8,1.5,3.2,2.2c1.3,0.7,2.7,1.3,4,1.7c1,0.3,2,0.5,3.2,0.5v1.5
				c-0.9,0-2-0.2-3.3-0.5c-1.3-0.3-2.6-0.8-3.8-1.5c-1.2-0.6-2.2-1.3-3.1-2.1V422.6z"/>
			<path class="st6" d="M189.5,406.2l0.1,1.4c-0.6,0.1-1,0.3-1.2,0.5c-0.4,0.4-0.6,0.9-0.6,1.4c0,0.5,0.1,0.9,0.4,1.2
				c0.3,0.5,0.8,0.8,1.4,1.1c0.6,0.3,1.5,0.4,2.7,0.4c-0.5-0.3-0.9-0.8-1.2-1.3c-0.3-0.5-0.4-1-0.4-1.6c0-1,0.4-1.8,1.1-2.4
				c0.7-0.7,1.6-1,2.7-1c0.7,0,1.4,0.2,2,0.5c0.6,0.3,1.1,0.8,1.4,1.3c0.3,0.6,0.5,1.2,0.5,1.9c0,1.2-0.4,2.2-1.3,2.9
				c-0.9,0.8-2.3,1.1-4.3,1.1c-2.3,0-3.9-0.4-4.9-1.3c-0.9-0.7-1.3-1.7-1.3-2.9c0-0.9,0.3-1.7,0.8-2.3
				C187.9,406.6,188.6,406.3,189.5,406.2z M194.5,412c0.5,0,1-0.1,1.4-0.3c0.5-0.2,0.8-0.5,1-0.9c0.2-0.4,0.4-0.8,0.4-1.2
				c0-0.6-0.2-1.1-0.7-1.6c-0.5-0.4-1.2-0.7-2-0.7c-0.8,0-1.4,0.2-1.9,0.6s-0.7,1-0.7,1.6c0,0.6,0.2,1.2,0.7,1.6
				C193.2,411.8,193.8,412,194.5,412z"/>
		</g>
		<g>
			<path class="st6" d="M196.7,152l-0.2-1.4c0.8-0.2,1.4-0.4,1.8-0.8c0.4-0.4,0.5-0.9,0.5-1.4c0-0.7-0.2-1.2-0.7-1.7
				c-0.5-0.5-1-0.7-1.7-0.7c-0.7,0-1.2,0.2-1.6,0.6s-0.6,1-0.6,1.6c0,0.3,0.1,0.6,0.2,1L193,149c0-0.1,0-0.2,0-0.2
				c0-0.6-0.2-1.2-0.5-1.6c-0.3-0.5-0.8-0.7-1.5-0.7c-0.5,0-1,0.2-1.3,0.5c-0.3,0.4-0.5,0.8-0.5,1.4c0,0.6,0.2,1,0.5,1.4
				c0.4,0.4,0.9,0.6,1.6,0.7l-0.3,1.4c-1-0.2-1.7-0.6-2.2-1.2c-0.5-0.6-0.8-1.4-0.8-2.3c0-0.6,0.1-1.2,0.4-1.8
				c0.3-0.5,0.6-0.9,1.1-1.2c0.5-0.3,1-0.4,1.5-0.4c0.5,0,1,0.1,1.4,0.4c0.4,0.3,0.7,0.7,1,1.2c0.2-0.7,0.5-1.2,1-1.6
				c0.5-0.4,1.1-0.6,1.9-0.6c1,0,1.9,0.4,2.6,1.1c0.7,0.7,1.1,1.7,1.1,2.8c0,1-0.3,1.9-0.9,2.6S197.7,151.9,196.7,152z"/>
			<path class="st6" d="M197.1,142.7l-0.1-1.4c0.6-0.1,1.1-0.3,1.4-0.7c0.3-0.3,0.4-0.8,0.4-1.3c0-0.4-0.1-0.8-0.3-1.2
				c-0.2-0.3-0.5-0.6-0.8-0.8c-0.3-0.2-0.8-0.4-1.4-0.5c-0.6-0.1-1.2-0.2-1.8-0.2c-0.1,0-0.2,0-0.3,0c0.5,0.3,0.8,0.7,1.1,1.2
				s0.4,1,0.4,1.6c0,1-0.4,1.8-1.1,2.5c-0.7,0.7-1.6,1-2.8,1c-1.2,0-2.1-0.3-2.9-1c-0.7-0.7-1.1-1.6-1.1-2.6c0-0.8,0.2-1.5,0.6-2.1
				c0.4-0.6,1-1.1,1.7-1.4s1.9-0.5,3.3-0.5c1.5,0,2.7,0.2,3.6,0.5c0.9,0.3,1.6,0.8,2,1.4c0.5,0.6,0.7,1.4,0.7,2.3
				c0,0.9-0.3,1.7-0.8,2.2C198.7,142.2,198,142.6,197.1,142.7z M191.9,136.8c-0.8,0-1.5,0.2-2,0.7c-0.5,0.4-0.7,1-0.7,1.6
				c0,0.6,0.3,1.2,0.8,1.7c0.5,0.5,1.2,0.7,2,0.7c0.7,0,1.3-0.2,1.8-0.7s0.7-1,0.7-1.7c0-0.7-0.2-1.2-0.7-1.6
				S192.8,136.8,191.9,136.8z"/>
		</g>
		<g>
			<path class="st6" d="M700,219.6l0.1,1.4c-0.6,0.1-1,0.3-1.2,0.5c-0.4,0.4-0.6,0.9-0.6,1.4c0,0.5,0.1,0.9,0.4,1.2
				c0.3,0.5,0.8,0.8,1.4,1.1c0.6,0.3,1.5,0.4,2.7,0.4c-0.5-0.3-0.9-0.8-1.2-1.3c-0.3-0.5-0.4-1-0.4-1.6c0-1,0.4-1.8,1.1-2.4
				c0.7-0.7,1.6-1,2.7-1c0.7,0,1.4,0.2,2,0.5c0.6,0.3,1.1,0.8,1.4,1.3c0.3,0.6,0.5,1.2,0.5,1.9c0,1.2-0.4,2.2-1.3,2.9
				c-0.9,0.8-2.3,1.1-4.3,1.1c-2.3,0-3.9-0.4-4.9-1.3c-0.9-0.7-1.3-1.7-1.3-2.9c0-0.9,0.3-1.7,0.8-2.3
				C698.4,220.1,699.1,219.7,700,219.6z M705,225.4c0.5,0,1-0.1,1.4-0.3c0.5-0.2,0.8-0.5,1-0.9c0.2-0.4,0.4-0.8,0.4-1.2
				c0-0.6-0.2-1.1-0.7-1.6c-0.5-0.4-1.2-0.7-2-0.7c-0.8,0-1.4,0.2-1.9,0.6s-0.7,1-0.7,1.6c0,0.6,0.2,1.2,0.7,1.6
				C703.7,225.2,704.3,225.4,705,225.4z"/>
			<path class="st6" d="M700,210.5l0.1,1.4c-0.6,0.1-1,0.3-1.2,0.5c-0.4,0.4-0.6,0.9-0.6,1.4c0,0.5,0.1,0.9,0.4,1.2
				c0.3,0.5,0.8,0.8,1.4,1.1c0.6,0.3,1.5,0.4,2.7,0.4c-0.5-0.3-0.9-0.8-1.2-1.3c-0.3-0.5-0.4-1-0.4-1.6c0-1,0.4-1.8,1.1-2.4
				c0.7-0.7,1.6-1,2.7-1c0.7,0,1.4,0.2,2,0.5c0.6,0.3,1.1,0.8,1.4,1.3c0.3,0.6,0.5,1.2,0.5,1.9c0,1.2-0.4,2.2-1.3,2.9
				c-0.9,0.8-2.3,1.1-4.3,1.1c-2.3,0-3.9-0.4-4.9-1.3c-0.9-0.7-1.3-1.7-1.3-2.9c0-0.9,0.3-1.7,0.8-2.3
				C698.4,211,699.1,210.6,700,210.5z M705,216.4c0.5,0,1-0.1,1.4-0.3c0.5-0.2,0.8-0.5,1-0.9c0.2-0.4,0.4-0.8,0.4-1.2
				c0-0.6-0.2-1.1-0.7-1.6c-0.5-0.4-1.2-0.7-2-0.7c-0.8,0-1.4,0.2-1.9,0.6s-0.7,1-0.7,1.6c0,0.6,0.2,1.2,0.7,1.6
				C703.7,216.1,704.3,216.4,705,216.4z"/>
			<path class="st6" d="M708.8,208.1h-1.6v-1.6h1.6V208.1z"/>
		</g>
		<g>
			<path class="st6" d="M698.7,204.2h-1.4v-7.6h1.1c0.8,0.7,1.8,1.5,3.2,2.2c1.3,0.7,2.7,1.3,4,1.7c1,0.3,2,0.5,3.2,0.5v1.5
				c-0.9,0-2-0.2-3.3-0.5c-1.3-0.3-2.6-0.8-3.8-1.5c-1.2-0.6-2.2-1.3-3.1-2.1V204.2z"/>
		</g>
		<g>
			<path class="st6" d="M804.7,713.8l-0.1-1.4c0.6-0.1,1.1-0.3,1.4-0.7s0.4-0.8,0.4-1.3c0-0.4-0.1-0.8-0.3-1.2
				c-0.2-0.3-0.5-0.6-0.8-0.8c-0.3-0.2-0.8-0.4-1.4-0.5c-0.6-0.1-1.2-0.2-1.8-0.2c-0.1,0-0.2,0-0.3,0c0.5,0.3,0.8,0.7,1.1,1.2
				s0.4,1,0.4,1.6c0,1-0.4,1.8-1.1,2.5c-0.7,0.7-1.6,1-2.8,1c-1.2,0-2.1-0.3-2.9-1c-0.7-0.7-1.1-1.6-1.1-2.6c0-0.8,0.2-1.5,0.6-2.1
				c0.4-0.6,1-1.1,1.7-1.4c0.8-0.3,1.9-0.5,3.3-0.5c1.5,0,2.7,0.2,3.6,0.5c0.9,0.3,1.6,0.8,2,1.4c0.5,0.6,0.7,1.4,0.7,2.3
				c0,0.9-0.3,1.7-0.8,2.2C806.3,713.3,805.6,713.7,804.7,713.8z M799.5,707.9c-0.8,0-1.5,0.2-2,0.7c-0.5,0.4-0.7,1-0.7,1.6
				c0,0.6,0.3,1.2,0.8,1.7c0.5,0.5,1.2,0.7,2,0.7c0.7,0,1.3-0.2,1.8-0.7c0.5-0.4,0.7-1,0.7-1.7c0-0.7-0.2-1.2-0.7-1.6
				C801,708.1,800.3,707.9,799.5,707.9z"/>
			<path class="st6" d="M807.4,704.1h-1.6v-1.6h1.6V704.1z"/>
		</g>
		<g>
			<path class="st6" d="M804.3,700.4l-0.1-1.5c0.7-0.1,1.3-0.4,1.7-0.8s0.6-0.9,0.6-1.5c0-0.7-0.3-1.3-0.8-1.8
				c-0.5-0.5-1.2-0.7-2.1-0.7c-0.8,0-1.5,0.2-1.9,0.7c-0.5,0.5-0.7,1.1-0.7,1.8c0,0.5,0.1,0.9,0.3,1.3s0.5,0.7,0.8,0.9l-0.2,1.3
				l-6-1.1v-5.8h1.4v4.7l3.1,0.6c-0.5-0.7-0.7-1.4-0.7-2.2c0-1,0.4-1.9,1.1-2.6c0.7-0.7,1.6-1.1,2.7-1.1c1.1,0,2,0.3,2.7,0.9
				c0.9,0.7,1.4,1.8,1.4,3.1c0,1.1-0.3,1.9-0.9,2.6C806.1,699.9,805.3,700.3,804.3,700.4z"/>
		</g>
		<g>
			<path class="st6" d="M854.8,763.9v-11.7h5.2c1,0,1.8,0.1,2.4,0.3c0.5,0.2,1,0.6,1.3,1.1s0.5,1.1,0.5,1.8c0,0.8-0.3,1.5-0.8,2.1
				c-0.5,0.6-1.4,0.9-2.5,1.1c0.4,0.2,0.7,0.4,0.9,0.6c0.5,0.4,0.9,0.9,1.3,1.6l2,3.2h-1.9l-1.5-2.4c-0.5-0.7-0.8-1.2-1.1-1.6
				c-0.3-0.4-0.6-0.6-0.8-0.8c-0.2-0.1-0.5-0.3-0.7-0.3c-0.2,0-0.5-0.1-0.9-0.1h-1.8v5.2H854.8z M856.3,757.4h3.3
				c0.7,0,1.3-0.1,1.7-0.2s0.7-0.4,0.9-0.7c0.2-0.3,0.3-0.7,0.3-1c0-0.6-0.2-1-0.6-1.4c-0.4-0.4-1-0.5-1.9-0.5h-3.7V757.4z"/>
		</g>
		<g>
			<path class="st6" d="M878,762.5v1.4h-7.7c0-0.3,0-0.7,0.2-1c0.2-0.5,0.5-1,0.9-1.6s1.1-1.1,1.9-1.8c1.3-1,2.1-1.9,2.6-2.5
				s0.7-1.2,0.7-1.7c0-0.6-0.2-1-0.6-1.4c-0.4-0.4-0.9-0.6-1.6-0.6c-0.7,0-1.2,0.2-1.7,0.6c-0.4,0.4-0.6,1-0.6,1.7l-1.5-0.2
				c0.1-1.1,0.5-1.9,1.1-2.5c0.7-0.6,1.5-0.9,2.7-0.9c1.1,0,2,0.3,2.7,0.9c0.7,0.6,1,1.4,1,2.3c0,0.5-0.1,0.9-0.3,1.4
				c-0.2,0.5-0.5,0.9-1,1.4c-0.4,0.5-1.2,1.2-2.2,2.1c-0.9,0.7-1.4,1.2-1.7,1.5s-0.4,0.5-0.6,0.8H878z"/>
		</g>
		<g>
			<path class="st6" d="M299,317.6V306h5.2c1,0,1.8,0.1,2.4,0.3s1,0.6,1.3,1.1c0.3,0.5,0.5,1.1,0.5,1.8c0,0.8-0.3,1.5-0.8,2.1
				c-0.5,0.6-1.4,0.9-2.5,1.1c0.4,0.2,0.7,0.4,0.9,0.6c0.5,0.4,0.9,0.9,1.3,1.6l2,3.2h-1.9l-1.5-2.4c-0.5-0.7-0.8-1.2-1.1-1.6
				c-0.3-0.4-0.6-0.6-0.8-0.8s-0.5-0.3-0.7-0.3c-0.2,0-0.5-0.1-0.9-0.1h-1.8v5.2H299z M300.6,311.1h3.3c0.7,0,1.3-0.1,1.7-0.2
				s0.7-0.4,0.9-0.7c0.2-0.3,0.3-0.7,0.3-1c0-0.6-0.2-1-0.6-1.4c-0.4-0.4-1-0.5-1.9-0.5h-3.7V311.1z"/>
		</g>
		<g>
			<path class="st6" d="M322.2,308.8l-1.4,0.1c-0.1-0.6-0.3-1-0.5-1.2c-0.4-0.4-0.9-0.6-1.4-0.6c-0.5,0-0.9,0.1-1.2,0.4
				c-0.5,0.3-0.8,0.8-1.1,1.4c-0.3,0.6-0.4,1.5-0.4,2.7c0.3-0.5,0.8-0.9,1.3-1.2s1-0.4,1.6-0.4c1,0,1.8,0.4,2.4,1.1
				c0.7,0.7,1,1.6,1,2.7c0,0.7-0.2,1.4-0.5,2c-0.3,0.6-0.8,1.1-1.3,1.4c-0.6,0.3-1.2,0.5-1.9,0.5c-1.2,0-2.2-0.4-2.9-1.3
				c-0.8-0.9-1.1-2.3-1.1-4.3c0-2.3,0.4-3.9,1.3-4.9c0.7-0.9,1.7-1.3,2.9-1.3c0.9,0,1.7,0.3,2.3,0.8
				C321.7,307.2,322.1,307.9,322.2,308.8z M316.3,313.8c0,0.5,0.1,1,0.3,1.4c0.2,0.5,0.5,0.8,0.9,1s0.8,0.4,1.2,0.4
				c0.6,0,1.1-0.2,1.6-0.7c0.4-0.5,0.7-1.2,0.7-2c0-0.8-0.2-1.4-0.6-1.9c-0.4-0.5-1-0.7-1.6-0.7c-0.6,0-1.2,0.2-1.6,0.7
				C316.6,312.5,316.3,313.1,316.3,313.8z"/>
		</g>
		<g>
			<path class="st6" d="M628.9,301.4v-11.7h5.2c1,0,1.8,0.1,2.4,0.3s1,0.6,1.3,1.1c0.3,0.5,0.5,1.1,0.5,1.8c0,0.8-0.3,1.5-0.8,2.1
				c-0.5,0.6-1.4,0.9-2.5,1.1c0.4,0.2,0.7,0.4,0.9,0.6c0.5,0.4,0.9,0.9,1.3,1.6l2,3.2h-1.9l-1.5-2.4c-0.5-0.7-0.8-1.2-1.1-1.6
				c-0.3-0.4-0.6-0.6-0.8-0.8s-0.5-0.3-0.7-0.3c-0.2,0-0.5-0.1-0.9-0.1h-1.8v5.2H628.9z M630.4,294.9h3.3c0.7,0,1.3-0.1,1.7-0.2
				s0.7-0.4,0.9-0.7c0.2-0.3,0.3-0.7,0.3-1c0-0.6-0.2-1-0.6-1.4c-0.4-0.4-1-0.5-1.9-0.5h-3.7V294.9z"/>
			<path class="st6" d="M650,301.4h-1.4v-9.1c-0.3,0.3-0.8,0.7-1.4,1c-0.6,0.3-1.1,0.6-1.5,0.7v-1.4c0.8-0.4,1.5-0.8,2.1-1.4
				c0.6-0.5,1-1.1,1.3-1.6h0.9V301.4z"/>
			<path class="st6" d="M653.7,295.7c0-1.4,0.1-2.5,0.4-3.3s0.7-1.5,1.3-1.9s1.3-0.7,2.1-0.7c0.6,0,1.2,0.1,1.6,0.4
				c0.5,0.3,0.9,0.6,1.2,1.1c0.3,0.5,0.5,1.1,0.7,1.7c0.2,0.7,0.3,1.6,0.3,2.8c0,1.4-0.1,2.5-0.4,3.3c-0.3,0.8-0.7,1.5-1.3,2
				c-0.6,0.5-1.3,0.7-2.1,0.7c-1.1,0-2-0.4-2.7-1.2C654,299.5,653.7,297.9,653.7,295.7z M655.1,295.7c0,1.9,0.2,3.2,0.7,3.8
				c0.4,0.6,1,1,1.7,1c0.7,0,1.2-0.3,1.7-1c0.4-0.6,0.7-1.9,0.7-3.8c0-1.9-0.2-3.2-0.7-3.8s-1-0.9-1.7-0.9c-0.7,0-1.2,0.3-1.6,0.8
				C655.4,292.4,655.1,293.8,655.1,295.7z"/>
			<path class="st6" d="M662.7,295.7c0-1.4,0.1-2.5,0.4-3.3s0.7-1.5,1.3-1.9s1.3-0.7,2.1-0.7c0.6,0,1.2,0.1,1.6,0.4
				c0.5,0.3,0.9,0.6,1.2,1.1c0.3,0.5,0.5,1.1,0.7,1.7c0.2,0.7,0.3,1.6,0.3,2.8c0,1.4-0.1,2.5-0.4,3.3c-0.3,0.8-0.7,1.5-1.3,2
				c-0.6,0.5-1.3,0.7-2.1,0.7c-1.1,0-2-0.4-2.7-1.2C663.1,299.5,662.7,297.9,662.7,295.7z M664.2,295.7c0,1.9,0.2,3.2,0.7,3.8
				c0.4,0.6,1,1,1.7,1c0.7,0,1.2-0.3,1.7-1c0.4-0.6,0.7-1.9,0.7-3.8c0-1.9-0.2-3.2-0.7-3.8s-1-0.9-1.7-0.9c-0.7,0-1.2,0.3-1.6,0.8
				C664.5,292.4,664.2,293.8,664.2,295.7z"/>
		</g>
		<g>
			<path class="st8" d="M301.3,271.9h-1.4v-9.1c-0.3,0.3-0.8,0.7-1.4,1c-0.6,0.3-1.1,0.6-1.5,0.7v-1.4c0.8-0.4,1.5-0.8,2.1-1.4
				c0.6-0.5,1-1.1,1.3-1.6h0.9V271.9z"/>
			<path class="st8" d="M305.8,265v-1.6h1.6v1.6H305.8z M305.8,271.9v-1.6h1.6v1.6H305.8z"/>
		</g>
		<g>
			<path class="st8" d="M314.1,271.9v-2.8H309v-1.3l5.3-7.6h1.2v7.6h1.6v1.3h-1.6v2.8H314.1z M314.1,267.8v-5.3l-3.7,5.3H314.1z"/>
		</g>
		<g>
			<path class="st6" d="M143.3,430.6v1.4h-9.1c0.3,0.3,0.7,0.8,1,1.4c0.3,0.6,0.6,1.1,0.7,1.5h-1.4c-0.4-0.8-0.8-1.5-1.4-2.1
				c-0.5-0.6-1.1-1-1.6-1.3v-0.9H143.3z"/>
			<path class="st6" d="M140.3,426.9l-0.2-1.4c0.8-0.2,1.4-0.4,1.8-0.8c0.4-0.4,0.5-0.9,0.5-1.4c0-0.7-0.2-1.2-0.7-1.7
				c-0.5-0.5-1-0.7-1.7-0.7c-0.7,0-1.2,0.2-1.6,0.6s-0.6,1-0.6,1.6c0,0.3,0.1,0.6,0.2,1l-1.3-0.2c0-0.1,0-0.2,0-0.2
				c0-0.6-0.2-1.2-0.5-1.6c-0.3-0.5-0.8-0.7-1.5-0.7c-0.5,0-1,0.2-1.3,0.5c-0.3,0.4-0.5,0.8-0.5,1.4c0,0.6,0.2,1,0.5,1.4
				c0.4,0.4,0.9,0.6,1.6,0.7l-0.3,1.4c-1-0.2-1.7-0.6-2.2-1.2c-0.5-0.6-0.8-1.4-0.8-2.3c0-0.6,0.1-1.2,0.4-1.8
				c0.3-0.5,0.6-0.9,1.1-1.2c0.5-0.3,1-0.4,1.5-0.4c0.5,0,1,0.1,1.4,0.4c0.4,0.3,0.7,0.7,1,1.2c0.2-0.7,0.5-1.2,1-1.6
				c0.5-0.4,1.1-0.6,1.9-0.6c1,0,1.9,0.4,2.6,1.1c0.7,0.7,1.1,1.7,1.1,2.8c0,1-0.3,1.9-0.9,2.6S141.2,426.8,140.3,426.9z"/>
			<path class="st6" d="M143.3,413.3h-2.8v5.1h-1.3l-7.6-5.3v-1.2h7.6v-1.6h1.3v1.6h2.8V413.3z M139.2,413.3H134l5.3,3.7V413.3z"/>
		</g>
		<g>
			<path class="st6" d="M146.8,401.1c-1,0.8-2.2,1.5-3.5,2c-1.3,0.5-2.7,0.8-4.2,0.8c-1.3,0-2.5-0.2-3.6-0.6c-1.3-0.5-2.7-1.2-4-2.2
				v-1c1.1,0.6,1.9,1.1,2.4,1.3c0.7,0.3,1.5,0.6,2.3,0.8c1,0.2,2,0.3,3,0.3c2.6,0,5.1-0.8,7.7-2.4V401.1z"/>
		</g>
		<g>
			<path class="st6" d="M134,392.4v4l2.7,0.4c0-0.2-0.1-0.5-0.1-0.9c0-0.8,0.2-1.6,0.6-2.3c0.5-0.8,1.4-1.5,2.7-1.5
				c2.1,0,3.6,1.6,3.6,3.9c0,1.2-0.3,2.1-0.7,2.6l-1.1-0.4c0.3-0.4,0.6-1.3,0.6-2.3c0-1.4-0.9-2.5-2.3-2.5c-1.4,0-2.3,0.9-2.3,3.1
				c0,0.6,0.1,1.1,0.1,1.5l-5.1-0.7v-5.1H134z"/>
			<path class="st6" d="M142.5,390.3c-0.6,0-1-0.4-1-1c0-0.6,0.4-1,1-1c0.6,0,1,0.4,1,1C143.5,389.9,143.1,390.3,142.5,390.3z"/>
			<path class="st6" d="M143.4,387h-0.9l-1.1-1.1c-2.6-2.7-3.9-3.9-5.5-3.9c-1.1,0-2.1,0.5-2.1,2.1c0,1,0.5,1.8,0.9,2.3l-1,0.5
				c-0.6-0.7-1.1-1.8-1.1-3c0-2.3,1.6-3.2,3.1-3.2c2,0,3.5,1.4,5.7,3.7l0.8,0.8h0v-4.8h1.2V387z"/>
			<path class="st6" d="M132.7,371.8h0.9l9.7,4.6v1.5l-9.4-4.6h0v5.2h-1.2V371.8z"/>
			<path class="st6" d="M133.8,364.2c0,0.3,0,0.7,0.1,1.1c0.4,2.3,2,3.4,3.8,3.7v0c-0.7-0.5-1.2-1.4-1.2-2.6c0-1.9,1.4-3.2,3.4-3.2
				c1.9,0,3.7,1.3,3.7,3.5c0,2.3-1.8,3.8-4.5,3.8c-2.1,0-3.7-0.8-4.8-1.8c-0.9-0.9-1.4-2.1-1.6-3.4c-0.1-0.4-0.1-0.8-0.1-1H133.8z
				 M139.9,364.6c-1.5,0-2.4,0.9-2.4,2.2c0,0.9,0.5,1.7,1.3,2.1c0.2,0.1,0.4,0.2,0.6,0.2c1.7,0,3-0.8,3-2.3
				C142.4,365.5,141.4,364.6,139.9,364.6z"/>
			<path class="st6" d="M132.2,358l3.9,0.3v0.9l-3.9,0.3V358z M132.2,360.4l3.9,0.3v0.9l-3.9,0.3V360.4z"/>
		</g>
		<g>
			<path class="st6" d="M145.3,356.8c-1.6-1.2-3.7-2.1-6.7-2.1c-2.9,0-5,0.9-6.6,2.1v-1.1c1.3-1,3.4-2.1,6.6-2.1
				c3.2,0,5.3,1.1,6.7,2.1V356.8z"/>
		</g>
		<g>
			<path class="st6" d="M283.6,541.1v-11.7h5.2c1,0,1.8,0.1,2.4,0.3c0.5,0.2,1,0.6,1.3,1.1c0.3,0.5,0.5,1.1,0.5,1.8
				c0,0.8-0.3,1.5-0.8,2.1s-1.4,0.9-2.5,1.1c0.4,0.2,0.7,0.4,0.9,0.6c0.5,0.4,0.9,0.9,1.3,1.6l2,3.2h-1.9l-1.5-2.4
				c-0.5-0.7-0.8-1.2-1.1-1.6s-0.6-0.6-0.8-0.8c-0.2-0.1-0.5-0.3-0.7-0.3c-0.2,0-0.5-0.1-0.9-0.1h-1.8v5.2H283.6z M285.1,534.5h3.3
				c0.7,0,1.3-0.1,1.7-0.2s0.7-0.4,0.9-0.7s0.3-0.7,0.3-1c0-0.6-0.2-1-0.6-1.4c-0.4-0.4-1-0.5-1.9-0.5h-3.7V534.5z"/>
		</g>
		<g>
			<path class="st6" d="M306.8,532.2l-1.4,0.1c-0.1-0.6-0.3-1-0.5-1.2c-0.4-0.4-0.9-0.6-1.4-0.6c-0.5,0-0.9,0.1-1.2,0.4
				c-0.5,0.3-0.8,0.8-1.1,1.4c-0.3,0.6-0.4,1.5-0.4,2.7c0.3-0.5,0.8-0.9,1.3-1.2s1-0.4,1.6-0.4c1,0,1.8,0.4,2.4,1.1
				c0.7,0.7,1,1.6,1,2.7c0,0.7-0.2,1.4-0.5,2c-0.3,0.6-0.8,1.1-1.3,1.4s-1.2,0.5-1.9,0.5c-1.2,0-2.2-0.4-2.9-1.3
				c-0.8-0.9-1.1-2.3-1.1-4.3c0-2.3,0.4-3.9,1.3-4.9c0.7-0.9,1.7-1.3,2.9-1.3c0.9,0,1.7,0.3,2.3,0.8
				C306.3,530.6,306.6,531.3,306.8,532.2z M300.9,537.3c0,0.5,0.1,1,0.3,1.4c0.2,0.5,0.5,0.8,0.9,1s0.8,0.4,1.2,0.4
				c0.6,0,1.1-0.2,1.6-0.7c0.4-0.5,0.7-1.2,0.7-2c0-0.8-0.2-1.4-0.6-1.9c-0.4-0.5-1-0.7-1.6-0.7c-0.6,0-1.2,0.2-1.6,0.7
				C301.1,535.9,300.9,536.5,300.9,537.3z"/>
		</g>
		<g>
			<path class="st6" d="M553.1,556v-11.7h5.2c1,0,1.8,0.1,2.4,0.3c0.5,0.2,1,0.6,1.3,1.1s0.5,1.1,0.5,1.8c0,0.8-0.3,1.5-0.8,2.1
				c-0.5,0.6-1.4,0.9-2.5,1.1c0.4,0.2,0.7,0.4,0.9,0.6c0.5,0.4,0.9,0.9,1.3,1.6l2,3.2h-1.9l-1.5-2.4c-0.5-0.7-0.8-1.2-1.1-1.6
				c-0.3-0.4-0.6-0.6-0.8-0.8c-0.2-0.1-0.5-0.3-0.7-0.3c-0.2,0-0.5-0.1-0.9-0.1h-1.8v5.2H553.1z M554.7,549.4h3.3
				c0.7,0,1.3-0.1,1.7-0.2s0.7-0.4,0.9-0.7c0.2-0.3,0.3-0.7,0.3-1c0-0.6-0.2-1-0.6-1.4c-0.4-0.4-1-0.5-1.9-0.5h-3.7V549.4z"/>
			<path class="st6" d="M574.2,556h-1.4v-9.1c-0.3,0.3-0.8,0.7-1.4,1s-1.1,0.6-1.5,0.7v-1.4c0.8-0.4,1.5-0.8,2.1-1.4
				c0.6-0.5,1-1.1,1.3-1.6h0.9V556z"/>
			<path class="st6" d="M585.4,547.1l-1.4,0.1c-0.1-0.6-0.3-1-0.5-1.2c-0.4-0.4-0.9-0.6-1.4-0.6c-0.5,0-0.9,0.1-1.2,0.4
				c-0.5,0.3-0.8,0.8-1.1,1.4c-0.3,0.6-0.4,1.5-0.4,2.7c0.3-0.5,0.8-0.9,1.3-1.2s1-0.4,1.6-0.4c1,0,1.8,0.4,2.4,1.1
				c0.7,0.7,1,1.6,1,2.7c0,0.7-0.2,1.4-0.5,2c-0.3,0.6-0.8,1.1-1.3,1.4s-1.2,0.5-1.9,0.5c-1.2,0-2.2-0.4-2.9-1.3
				c-0.8-0.9-1.1-2.3-1.1-4.3c0-2.3,0.4-3.9,1.3-4.9c0.7-0.9,1.7-1.3,2.9-1.3c0.9,0,1.7,0.3,2.3,0.8
				C584.9,545.5,585.2,546.2,585.4,547.1z M579.5,552.2c0,0.5,0.1,1,0.3,1.4c0.2,0.5,0.5,0.8,0.9,1s0.8,0.4,1.2,0.4
				c0.6,0,1.1-0.2,1.6-0.7c0.4-0.5,0.7-1.2,0.7-2c0-0.8-0.2-1.4-0.6-1.9c-0.4-0.5-1-0.7-1.6-0.7c-0.6,0-1.2,0.2-1.6,0.7
				C579.7,550.8,579.5,551.4,579.5,552.2z"/>
			<path class="st6" d="M587,550.2c0-1.4,0.1-2.5,0.4-3.3s0.7-1.5,1.3-1.9s1.3-0.7,2.1-0.7c0.6,0,1.2,0.1,1.6,0.4
				c0.5,0.3,0.9,0.6,1.2,1.1c0.3,0.5,0.5,1.1,0.7,1.7c0.2,0.7,0.3,1.6,0.3,2.8c0,1.4-0.1,2.5-0.4,3.3c-0.3,0.8-0.7,1.5-1.3,2
				c-0.6,0.5-1.3,0.7-2.1,0.7c-1.1,0-2-0.4-2.7-1.2C587.4,554,587,552.4,587,550.2z M588.5,550.2c0,1.9,0.2,3.2,0.7,3.8
				c0.4,0.6,1,1,1.7,1c0.7,0,1.2-0.3,1.7-1s0.7-1.9,0.7-3.8c0-1.9-0.2-3.2-0.7-3.8s-1-0.9-1.7-0.9c-0.7,0-1.2,0.3-1.6,0.8
				C588.7,547,588.5,548.3,588.5,550.2z"/>
		</g>
		<g>
			<path class="st6" d="M623.6,706.9v-11.7h5.2c1,0,1.8,0.1,2.4,0.3c0.5,0.2,1,0.6,1.3,1.1s0.5,1.1,0.5,1.8c0,0.8-0.3,1.5-0.8,2.1
				c-0.5,0.6-1.4,0.9-2.5,1.1c0.4,0.2,0.7,0.4,0.9,0.6c0.5,0.4,0.9,0.9,1.3,1.6l2,3.2h-1.9l-1.5-2.4c-0.5-0.7-0.8-1.2-1.1-1.6
				c-0.3-0.4-0.6-0.6-0.8-0.8c-0.2-0.1-0.5-0.3-0.7-0.3c-0.2,0-0.5-0.1-0.9-0.1h-1.8v5.2H623.6z M625.1,700.4h3.3
				c0.7,0,1.3-0.1,1.7-0.2s0.7-0.4,0.9-0.7c0.2-0.3,0.3-0.7,0.3-1c0-0.6-0.2-1-0.6-1.4c-0.4-0.4-1-0.5-1.9-0.5h-3.7V700.4z"/>
		</g>
		<g>
			<path class="st6" d="M639.3,703.8l1.4-0.2c0.2,0.8,0.4,1.4,0.8,1.8c0.4,0.4,0.9,0.5,1.4,0.5c0.7,0,1.2-0.2,1.7-0.7
				c0.5-0.5,0.7-1,0.7-1.7c0-0.7-0.2-1.2-0.6-1.6c-0.4-0.4-1-0.6-1.6-0.6c-0.3,0-0.6,0.1-1,0.2l0.2-1.3c0.1,0,0.2,0,0.2,0
				c0.6,0,1.2-0.2,1.6-0.5c0.5-0.3,0.7-0.8,0.7-1.5c0-0.5-0.2-1-0.5-1.3c-0.4-0.3-0.8-0.5-1.4-0.5c-0.6,0-1,0.2-1.4,0.5
				c-0.4,0.4-0.6,0.9-0.7,1.6l-1.4-0.3c0.2-1,0.6-1.7,1.2-2.2c0.6-0.5,1.4-0.8,2.3-0.8c0.6,0,1.2,0.1,1.8,0.4
				c0.5,0.3,0.9,0.6,1.2,1.1s0.4,1,0.4,1.5c0,0.5-0.1,1-0.4,1.4c-0.3,0.4-0.7,0.7-1.2,1c0.7,0.2,1.2,0.5,1.6,1
				c0.4,0.5,0.6,1.1,0.6,1.9c0,1-0.4,1.9-1.1,2.6c-0.7,0.7-1.7,1.1-2.8,1.1c-1,0-1.9-0.3-2.6-0.9
				C639.8,705.6,639.4,704.8,639.3,703.8z"/>
		</g>
		<g>
			<path class="st6" d="M288.4,579.6h-1.4v-9.1c-0.3,0.3-0.8,0.7-1.4,1c-0.6,0.3-1.1,0.6-1.5,0.7v-1.4c0.8-0.4,1.5-0.8,2.1-1.4
				c0.6-0.5,1-1.1,1.3-1.6h0.9V579.6z"/>
			<path class="st6" d="M292.8,572.8v-1.6h1.6v1.6H292.8z M292.8,579.6V578h1.6v1.6H292.8z"/>
		</g>
		<g>
			<path class="st6" d="M301.2,579.6v-2.8h-5.1v-1.3l5.3-7.6h1.2v7.6h1.6v1.3h-1.6v2.8H301.2z M301.2,575.5v-5.3l-3.7,5.3H301.2z"/>
		</g>
		<g>
			<path class="st6" d="M475.2,774.4h-1.4v-9.1c-0.3,0.3-0.8,0.7-1.4,1s-1.1,0.6-1.5,0.7v-1.4c0.8-0.4,1.5-0.8,2.1-1.4
				c0.6-0.5,1-1.1,1.3-1.6h0.9V774.4z"/>
			<path class="st6" d="M478.9,768.6c0-1.4,0.1-2.5,0.4-3.3s0.7-1.5,1.3-1.9s1.3-0.7,2.1-0.7c0.6,0,1.2,0.1,1.6,0.4
				c0.5,0.3,0.9,0.6,1.2,1.1c0.3,0.5,0.5,1.1,0.7,1.7c0.2,0.7,0.3,1.6,0.3,2.8c0,1.4-0.1,2.5-0.4,3.3c-0.3,0.8-0.7,1.5-1.3,2
				c-0.6,0.5-1.3,0.7-2.1,0.7c-1.1,0-2-0.4-2.7-1.2C479.3,772.4,478.9,770.8,478.9,768.6z M480.4,768.6c0,1.9,0.2,3.2,0.7,3.8
				c0.4,0.6,1,1,1.7,1c0.7,0,1.2-0.3,1.7-1s0.7-1.9,0.7-3.8c0-1.9-0.2-3.2-0.7-3.8s-1-0.9-1.7-0.9c-0.7,0-1.2,0.3-1.6,0.8
				C480.6,765.4,480.4,766.7,480.4,768.6z"/>
			<path class="st6" d="M488,771.3l1.5-0.1c0.1,0.7,0.4,1.3,0.8,1.7s0.9,0.6,1.5,0.6c0.7,0,1.3-0.3,1.8-0.8c0.5-0.5,0.7-1.2,0.7-2.1
				c0-0.8-0.2-1.5-0.7-1.9c-0.5-0.5-1.1-0.7-1.8-0.7c-0.5,0-0.9,0.1-1.3,0.3s-0.7,0.5-0.9,0.8l-1.3-0.2l1.1-6h5.8v1.4h-4.7l-0.6,3.1
				c0.7-0.5,1.4-0.7,2.2-0.7c1,0,1.9,0.4,2.6,1.1c0.7,0.7,1.1,1.6,1.1,2.7c0,1.1-0.3,2-0.9,2.7c-0.7,0.9-1.8,1.4-3.1,1.4
				c-1.1,0-1.9-0.3-2.6-0.9C488.4,773.1,488.1,772.3,488,771.3z"/>
			<path class="st6" d="M504.7,777.8c-0.8-1-1.5-2.2-2-3.5c-0.5-1.3-0.8-2.7-0.8-4.2c0-1.3,0.2-2.5,0.6-3.6c0.5-1.3,1.2-2.7,2.2-4h1
				c-0.6,1.1-1.1,1.9-1.3,2.4c-0.3,0.7-0.6,1.5-0.8,2.3c-0.2,1-0.3,2-0.3,3c0,2.6,0.8,5.1,2.4,7.7H504.7z"/>
			<path class="st6" d="M511.6,774.4v-2.8h-5.1v-1.3l5.3-7.6h1.2v7.6h1.6v1.3H513v2.8H511.6z M511.6,770.3V765l-3.7,5.3H511.6z"/>
			<path class="st6" d="M516.9,774.4v-1.6h1.6v1.6H516.9z"/>
			<path class="st6" d="M526,774.4h-1.4v-9.1c-0.3,0.3-0.8,0.7-1.4,1s-1.1,0.6-1.5,0.7v-1.4c0.8-0.4,1.5-0.8,2.1-1.4
				c0.6-0.5,1-1.1,1.3-1.6h0.9V774.4z"/>
			<path class="st6" d="M529.7,771.3l1.4-0.2c0.2,0.8,0.4,1.4,0.8,1.8c0.4,0.4,0.9,0.5,1.4,0.5c0.7,0,1.2-0.2,1.7-0.7
				c0.5-0.5,0.7-1,0.7-1.7c0-0.7-0.2-1.2-0.6-1.6c-0.4-0.4-1-0.6-1.6-0.6c-0.3,0-0.6,0.1-1,0.2l0.2-1.3c0.1,0,0.2,0,0.2,0
				c0.6,0,1.2-0.2,1.6-0.5c0.5-0.3,0.7-0.8,0.7-1.5c0-0.5-0.2-1-0.5-1.3c-0.4-0.3-0.8-0.5-1.4-0.5c-0.6,0-1,0.2-1.4,0.5
				c-0.4,0.4-0.6,0.9-0.7,1.6l-1.4-0.3c0.2-1,0.6-1.7,1.2-2.2c0.6-0.5,1.4-0.8,2.3-0.8c0.6,0,1.2,0.1,1.8,0.4
				c0.5,0.3,0.9,0.6,1.2,1.1s0.4,1,0.4,1.5c0,0.5-0.1,1-0.4,1.4c-0.3,0.4-0.7,0.7-1.2,1c0.7,0.2,1.2,0.5,1.6,1
				c0.4,0.5,0.6,1.1,0.6,1.9c0,1-0.4,1.9-1.1,2.6c-0.7,0.7-1.7,1.1-2.8,1.1c-1,0-1.9-0.3-2.6-0.9
				C530.2,773.1,529.8,772.3,529.7,771.3z"/>
			<path class="st6" d="M543.4,774.4v-2.8h-5.1v-1.3l5.3-7.6h1.2v7.6h1.6v1.3h-1.6v2.8H543.4z M543.4,770.3V765l-3.7,5.3H543.4z"/>
			<path class="st6" d="M548.3,766.9l-0.4-2.2v-1.9h1.6v1.9l-0.4,2.2H548.3z M551,766.9l-0.4-2.2v-1.9h1.6v1.9l-0.4,2.2H551z"/>
		</g>
		<g>
			<path class="st6" d="M555,777.8h-1c1.6-2.5,2.4-5.1,2.4-7.7c0-1-0.1-2-0.3-3c-0.2-0.8-0.4-1.6-0.8-2.3c-0.2-0.5-0.6-1.3-1.3-2.4
				h1c1,1.3,1.7,2.7,2.2,4c0.4,1.2,0.6,2.4,0.6,3.6c0,1.4-0.3,2.8-0.8,4.2C556.5,775.7,555.8,776.8,555,777.8z"/>
		</g>
		<line class="st55" x1="249.4" y1="781.6" x2="752.7" y2="781.6"/>
		<polygon class="st8" points="252.3,785.7 236.4,781.5 252.3,777.2 		"/>
		<polygon class="st8" points="749.8,785.7 765.7,781.5 749.8,777.2 		"/>
		<g>
			<path class="st6" d="M515.2,751.6v-6.5l-5.9-8.8h2.5l3,4.6c0.6,0.9,1.1,1.7,1.6,2.6c0.5-0.8,1-1.7,1.7-2.7l3-4.5h2.4l-6.1,8.8
				v6.5H515.2z"/>
			<path class="st6" d="M515.2,45.9v-6.5l-5.9-8.8h2.5l3,4.6c0.6,0.9,1.1,1.7,1.6,2.6c0.5-0.8,1-1.7,1.7-2.7l3-4.5h2.4l-6.1,8.8v6.5
				H515.2z"/>
		</g>
		<line class="st59" x1="500.5" y1="751.6" x2="499.6" y2="30.6"/>
		<line class="st60" x1="366.9" y1="21.3" x2="634.9" y2="21.3"/>
		<polygon class="st6" points="369.9,25.4 353.9,21.2 369.9,16.9 		"/>
		<polygon class="st6" points="632,25.4 648,21.2 632,16.9 		"/>
		<g>
			<path class="st8" d="M464.5,12.6l1.5-0.1c0.1,0.7,0.4,1.3,0.8,1.7s0.9,0.6,1.5,0.6c0.7,0,1.3-0.3,1.8-0.8
				c0.5-0.5,0.7-1.2,0.7-2.1c0-0.8-0.2-1.5-0.7-1.9c-0.5-0.5-1.1-0.7-1.8-0.7c-0.5,0-0.9,0.1-1.3,0.3c-0.4,0.2-0.7,0.5-0.9,0.8
				l-1.3-0.2l1.1-6h5.8v1.4H467l-0.6,3.1c0.7-0.5,1.4-0.7,2.2-0.7c1,0,1.9,0.4,2.6,1.1s1.1,1.6,1.1,2.7c0,1.1-0.3,2-0.9,2.7
				c-0.7,0.9-1.8,1.4-3.1,1.4c-1.1,0-1.9-0.3-2.6-0.9C465,14.4,464.6,13.6,464.5,12.6z"/>
			<path class="st8" d="M475.8,9.3c-0.6-0.2-1-0.5-1.3-0.9C474.2,8,474,7.5,474,6.9c0-0.9,0.3-1.6,0.9-2.1c0.6-0.6,1.4-0.9,2.4-0.9
				c1,0,1.8,0.3,2.5,0.9c0.6,0.6,0.9,1.3,0.9,2.2c0,0.5-0.1,1-0.4,1.4c-0.3,0.4-0.7,0.7-1.3,0.9c0.7,0.2,1.3,0.6,1.6,1.1
				c0.4,0.5,0.6,1.1,0.6,1.9c0,1-0.4,1.8-1.1,2.5c-0.7,0.7-1.6,1-2.8,1c-1.2,0-2.1-0.3-2.8-1c-0.7-0.7-1.1-1.5-1.1-2.6
				c0-0.8,0.2-1.4,0.6-1.9C474.5,9.8,475.1,9.5,475.8,9.3z M475,12.3c0,0.4,0.1,0.8,0.3,1.2c0.2,0.4,0.5,0.7,0.9,0.9
				s0.8,0.3,1.2,0.3c0.7,0,1.3-0.2,1.7-0.7s0.7-1,0.7-1.7c0-0.7-0.2-1.3-0.7-1.7c-0.5-0.5-1-0.7-1.7-0.7c-0.7,0-1.2,0.2-1.7,0.7
				S475,11.6,475,12.3z M475.5,6.9c0,0.6,0.2,1,0.5,1.4c0.4,0.4,0.8,0.5,1.4,0.5c0.6,0,1-0.2,1.4-0.5c0.4-0.3,0.5-0.8,0.5-1.3
				c0-0.5-0.2-1-0.5-1.3c-0.4-0.4-0.8-0.5-1.4-0.5c-0.5,0-1,0.2-1.4,0.5S475.5,6.4,475.5,6.9z"/>
		</g>
		<g>
			<path class="st6" d="M490.8,4.3c-1.2,1.6-2.1,3.7-2.1,6.7c0,2.9,0.9,5,2.1,6.6h-1.1c-1-1.4-2.1-3.4-2.1-6.6
				c0-3.2,1.1-5.3,2.1-6.7H490.8z"/>
			<path class="st6" d="M491.9,15.6v-0.9l1.1-1.1c2.7-2.6,3.9-3.9,3.9-5.5c0-1.1-0.5-2.1-2.1-2.1c-1,0-1.8,0.5-2.3,0.9l-0.5-1
				c0.7-0.6,1.8-1.1,3-1.1c2.3,0,3.2,1.6,3.2,3.1c0,2-1.4,3.5-3.7,5.7l-0.8,0.8v0h4.8v1.2H491.9z"/>
			<path class="st6" d="M500.4,14.8c0-0.6,0.4-1,1-1c0.6,0,1,0.4,1,1c0,0.6-0.4,1-1,1C500.7,15.8,500.4,15.4,500.4,14.8z"/>
			<path class="st6" d="M503.6,15.6v-0.9l1.1-1.1c2.7-2.6,3.9-3.9,3.9-5.5c0-1.1-0.5-2.1-2.1-2.1c-1,0-1.8,0.5-2.3,0.9l-0.5-1
				c0.7-0.6,1.8-1.1,3-1.1c2.3,0,3.2,1.6,3.2,3.1c0,2-1.4,3.5-3.7,5.7l-0.8,0.8v0h4.8v1.2H503.6z"/>
			<path class="st6" d="M511.9,12.9c0-1.3,0.8-2.3,2.1-2.8l0,0c-1.2-0.6-1.7-1.5-1.7-2.4c0-1.7,1.4-2.8,3.3-2.8
				c2.1,0,3.1,1.3,3.1,2.6c0,0.9-0.4,1.9-1.7,2.5v0c1.3,0.5,2.1,1.5,2.1,2.7c0,1.8-1.6,3.1-3.6,3.1
				C513.2,15.8,511.9,14.5,511.9,12.9z M517.6,12.9c0-1.3-0.9-1.9-2.3-2.3c-1.2,0.4-1.9,1.2-1.9,2.2c0,1.1,0.8,2,2.1,2
				C516.7,14.8,517.6,14,517.6,12.9z M513.6,7.6c0,1.1,0.8,1.6,2,2c0.9-0.3,1.6-1,1.6-1.9c0-0.8-0.5-1.7-1.8-1.7
				C514.3,5.9,513.6,6.7,513.6,7.6z"/>
			<path class="st6" d="M520.7,14c0.4,0.3,1.4,0.7,2.3,0.7c1.8,0,2.4-1.2,2.4-2.1c0-1.5-1.4-2.1-2.7-2.1h-0.8V9.4h0.8
				c1,0,2.4-0.5,2.4-1.8c0-0.8-0.5-1.6-1.9-1.6c-0.8,0-1.7,0.4-2.1,0.7l-0.4-1c0.6-0.4,1.6-0.8,2.8-0.8c2.1,0,3,1.2,3,2.5
				c0,1.1-0.7,2-2,2.5v0c1.3,0.3,2.4,1.2,2.4,2.7c0,1.7-1.3,3.2-3.9,3.2c-1.2,0-2.2-0.4-2.8-0.7L520.7,14z"/>
			<path class="st6" d="M530.2,4.5L530,8.4h-0.9l-0.3-3.9H530.2z M532.7,4.5l-0.3,3.9h-0.9l-0.3-3.9H532.7z"/>
		</g>
		<g>
			<path class="st6" d="M533.9,17.6c1.2-1.6,2.1-3.7,2.1-6.7c0-2.9-0.9-5-2.1-6.6h1.1c1,1.3,2.1,3.4,2.1,6.6c0,3.2-1.1,5.3-2.1,6.7
				H533.9z"/>
		</g>
		<line class="st61" x1="485.1" y1="437.5" x2="515.9" y2="437.5"/>
		<polygon class="st8" points="487.8,441.2 473.2,437.3 487.8,433.4 		"/>
		<polygon class="st8" points="513.2,441.2 527.8,437.3 513.2,433.4 		"/>
		<line class="st55" x1="527.8" y1="437.4" x2="615.3" y2="437.4"/>
		<g>
			<path class="st6" d="M548.8,422.5L548.8,422.5l-1.9,1l-0.3-1.1l2.3-1.2l1.2,0l-0.1,10.6l-1.4,0L548.8,422.5z"/>
		</g>
		<g>
			<path class="st6" d="M557.2,422.5L557.2,422.5l-1.9,1l-0.3-1.1l2.3-1.2l1.2,0l-0.1,10.6l-1.4,0L557.2,422.5z"/>
		</g>
		<g>
			<path class="st6" d="M569.5,420.6c-1.2,1.6-2.1,3.7-2.1,6.7c0,2.9,0.9,5,2,6.6l-1.1,0c-1-1.4-2.1-3.5-2.1-6.6
				c0-3.2,1.1-5.3,2.2-6.7L569.5,420.6z"/>
		</g>
		<g>
			<path class="st6" d="M577.6,426.5c0,3.6-1.4,5.6-3.7,5.6c-2.1,0-3.5-2-3.5-5.5c0-3.6,1.6-5.5,3.7-5.5
				C576.3,421.1,577.6,423.1,577.6,426.5z M571.8,426.6c0,2.8,0.8,4.3,2.1,4.3c1.5,0,2.2-1.7,2.2-4.4c0-2.6-0.6-4.3-2.1-4.3
				C572.8,422.2,571.8,423.8,571.8,426.6z"/>
		</g>
		<g>
			<path class="st6" d="M579,431.1c0-0.6,0.4-1,1-1c0.6,0,1,0.4,1,1c0,0.6-0.4,1-1,1C579.4,432.1,579,431.7,579,431.1z"/>
			<path class="st6" d="M586.7,432l0-2.9l-4.9,0l0-0.9l4.8-6.7l1.5,0l0,6.6l1.5,0l0,1.1l-1.5,0l0,2.9L586.7,432z M586.7,428l0-3.5
				c0-0.6,0-1.1,0.1-1.7l0,0c-0.3,0.6-0.6,1.1-0.9,1.6l-2.6,3.6v0L586.7,428z"/>
		</g>
		<g>
			<path class="st6" d="M591,430.4c0.4,0.3,1.4,0.7,2.3,0.7c1.8,0,2.4-1.2,2.4-2c0-1.5-1.3-2.1-2.7-2.1l-0.8,0l0-1.1l0.8,0
				c1,0,2.4-0.5,2.4-1.8c0-0.8-0.5-1.6-1.8-1.6c-0.8,0-1.7,0.4-2.1,0.7l-0.4-1c0.6-0.4,1.6-0.8,2.8-0.8c2.1,0,3,1.3,3,2.5
				c0,1.1-0.7,2-2,2.5v0c1.3,0.3,2.4,1.3,2.3,2.7c0,1.7-1.3,3.2-3.9,3.2c-1.2,0-2.2-0.4-2.8-0.7L591,430.4z"/>
		</g>
		<g>
			<path class="st6" d="M599.4,430.4c0.4,0.3,1.4,0.7,2.3,0.7c1.8,0,2.4-1.2,2.4-2c0-1.5-1.3-2.1-2.7-2.1l-0.8,0l0-1.1l0.8,0
				c1,0,2.4-0.5,2.4-1.8c0-0.8-0.5-1.6-1.8-1.6c-0.8,0-1.7,0.4-2.1,0.7l-0.4-1c0.6-0.4,1.6-0.8,2.8-0.8c2.1,0,3,1.3,3,2.5
				c0,1.1-0.7,2-2,2.5v0c1.3,0.3,2.4,1.3,2.3,2.7c0,1.7-1.3,3.2-3.9,3.2c-1.2,0-2.2-0.4-2.8-0.7L599.4,430.4z"/>
		</g>
		<g>
			<path class="st6" d="M609,420.9l-0.3,3.9l-0.9,0l-0.2-3.9L609,420.9z M611.5,420.9l-0.3,3.9l-0.9,0l-0.3-3.9L611.5,420.9z"/>
			<path class="st6" d="M612.5,434.1c1.2-1.6,2.1-3.7,2.1-6.7c0-2.9-0.9-5-2-6.6l1.1,0c1,1.3,2.1,3.4,2.1,6.7c0,3.2-1.1,5.3-2.2,6.6
				L612.5,434.1z"/>
		</g>
	</g>
</g>
<g id="Watermark">
	<g>
		<rect x="438.5" y="667.8" class="st0" width="123.1" height="46.3"/>
		<g>
			<rect x="444.9" y="675.7" class="st106" width="62.9" height="30.6"/>
			<rect x="507.7" y="675.7" class="st106" width="47.4" height="30.6"/>
			<g>
				<path class="st107" d="M466.5,681.8l-2.8,18.9H461l-1.6-11l-1.5,11h-2.7l-2.8-18.9h2.5l1.8,14.2l1.8-14.2h2l1.8,14.2l1.8-14.2
					H466.5z"/>
				<path class="st107" d="M467.9,700.7v-18.9h2.5v18.9H467.9z"/>
				<path class="st107" d="M472.8,681.8h5c1.9,0,2.9,1.1,2.9,3.2v4.7c0,1.7-0.5,2.7-1.5,3.1l1.8,7.9h-2.4l-1.7-7.6h-1.5v7.6h-2.5
					V681.8z M475.4,690.9h1.7c0.8,0,1.1-0.5,1.1-1.4v-4.1c0-0.9-0.4-1.4-1.1-1.4h-1.7V690.9z"/>
				<path class="st107" d="M486.8,684.1v16.6h-2.5v-16.6h-2.4v-2.3h7.4v2.3H486.8z"/>
				<path class="st107" d="M496.3,700.7v-8.6h-3.1v8.6h-2.5v-18.9h2.5v8h3.1v-8h2.5v18.9H496.3z"/>
			</g>
			<g>
				<path class="st107" d="M516.3,681.8h5c1.9,0,2.9,1.1,2.9,3.2v4.7c0,1.7-0.5,2.7-1.5,3.1l1.8,7.9H522l-1.7-7.6h-1.5v7.6h-2.5
					V681.8z M518.8,690.9h1.7c0.8,0,1.1-0.5,1.1-1.4v-4.1c0-0.9-0.4-1.4-1.1-1.4h-1.7V690.9z"/>
				<path class="st107" d="M528.7,700.7h-2.5V685c0-2.2,1-3.2,3-3.2h1.9c2,0,3,1.1,3,3.2v15.7h-2.5v-6.9h-2.9V700.7z M531.6,691.5
					v-6.3c0-0.7-0.4-1.1-1.1-1.1h-0.7c-0.7,0-1.1,0.4-1.1,1.1v6.3H531.6z"/>
				<path class="st107" d="M536.3,700.7v-18.9h2.5v18.9H536.3z"/>
				<path class="st107" d="M547.2,700.7h-6v-18.9h2.5v16.6h3.5V700.7z"/>
			</g>
		</g>
	</g>
</g>
</svg>
