<?xml version="1.0" encoding="utf-8"?>
<!-- Generator: Adobe Illustrator 25.2.3, SVG Export Plug-In . SVG Version: 6.00 Build 0)  -->
<svg version="1.1" xmlns="http://www.w3.org/2000/svg" xmlns:xlink="http://www.w3.org/1999/xlink" x="0px" y="0px"
	 viewBox="0 0 1000 800" style="enable-background:new 0 0 1000 800;" xml:space="preserve">
<style type="text/css">
	.st0{fill:#F0F0F0;}
	.st1{fill:none;stroke:#221E1F;stroke-width:1.2032;}
	.st2{fill:none;stroke:#221E1F;stroke-width:1.0736;}
	.st3{fill:none;stroke:#221E1F;stroke-width:1.2032;stroke-miterlimit:10;}
	.st4{fill:none;stroke:#221E1F;stroke-width:1.0736;stroke-linecap:round;stroke-linejoin:round;stroke-miterlimit:10;}
	.st5{fill:none;stroke:#221E1F;stroke-width:1.0736;stroke-miterlimit:10;}
	.st6{fill:#303030;}
	.st7{fill:none;stroke:#221E1F;stroke-width:1.2032;stroke-linecap:round;stroke-linejoin:round;}
	.st8{fill:#221E1F;}
	.st9{fill:none;stroke:#221E1F;stroke-width:1.2032;stroke-dasharray:15.0983,4.5412;}
	.st10{fill:none;stroke:#221E1F;stroke-width:1.327;}
	.st11{fill:none;stroke:#221E1F;stroke-width:1.327;stroke-miterlimit:10;}
	.st12{fill:none;stroke:#221E1F;stroke-width:1.5312;stroke-miterlimit:10;}
	.st13{fill:none;stroke:#221E1F;stroke-width:1.327;stroke-linecap:round;stroke-linejoin:round;}
	.st14{fill:none;stroke:#221E1F;stroke-width:1.327;stroke-dasharray:16.5574,4.9134;}
	.st15{fill:none;stroke:#221E1F;stroke-width:1.1875;stroke-linecap:round;stroke-linejoin:round;}
	.st16{fill:none;stroke:#221E1F;stroke-width:1.1875;stroke-miterlimit:10;}
	.st17{fill:none;stroke:#221E1F;stroke-width:1.0882;}
	.st18{fill:none;stroke:#221E1F;stroke-width:1.0882;stroke-miterlimit:10;}
	.st19{fill:none;stroke:#221E1F;stroke-width:1.01;stroke-linecap:round;stroke-linejoin:round;stroke-miterlimit:10;}
	.st20{fill:none;stroke:#221E1F;stroke-width:1.0268;stroke-linecap:round;stroke-linejoin:round;stroke-miterlimit:10;}
	.st21{fill:none;stroke:#221E1F;stroke-width:1.0268;}
	.st22{fill:none;stroke:#221E1F;stroke-width:1.0882;stroke-linecap:round;stroke-linejoin:round;stroke-miterlimit:10;}
	.st23{fill:none;stroke:#221E1F;stroke-width:1.0882;stroke-linecap:round;stroke-linejoin:round;}
	.st24{fill:none;stroke:#221E1F;stroke-width:1.0882;stroke-dasharray:13.6188,4.0709;}
	.st25{fill:none;stroke:#303030;stroke-width:1.0882;stroke-miterlimit:10;}
	.st26{fill:none;stroke:#303030;stroke-width:0.9459;stroke-miterlimit:10;}
	.st27{fill:none;stroke:#303030;stroke-width:0.625;stroke-miterlimit:10;}
	.st28{fill:none;stroke:#221E1F;stroke-width:1.2065;}
	.st29{fill:none;stroke:#221E1F;stroke-width:1.058;stroke-miterlimit:10;}
	.st30{fill:none;stroke:#221E1F;stroke-width:1.2065;stroke-miterlimit:10;}
	.st31{fill:none;stroke:#221E1F;stroke-width:1.2065;stroke-dasharray:15.1403,4.5538;}
	.st32{fill:none;stroke:#221E1F;stroke-width:1.2065;stroke-linecap:round;stroke-linejoin:round;}
	.st33{fill:none;stroke:#221E1F;stroke-width:1.0363;}
	.st34{fill:none;stroke:#221E1F;stroke-width:1.0363;stroke-miterlimit:10;}
	.st35{fill:none;stroke:#221E1F;stroke-width:1.0536;stroke-linecap:round;stroke-linejoin:round;stroke-miterlimit:10;}
	.st36{fill:none;stroke:#221E1F;stroke-width:1.0536;stroke-miterlimit:10;}
	.st37{fill:none;stroke:#221E1F;stroke-width:1.0363;stroke-linecap:round;stroke-linejoin:round;}
	.st38{fill:none;stroke:#221E1F;stroke-width:1.0363;stroke-dasharray:14.1142,4.2633;}
	.st39{fill:none;stroke:#221E1F;stroke-width:1.0394;}
	.st40{fill:none;stroke:#221E1F;stroke-width:1.1318;stroke-linecap:round;stroke-linejoin:round;stroke-miterlimit:10;}
	.st41{fill:none;stroke:#221E1F;stroke-width:1.0394;stroke-miterlimit:10;}
	.st42{fill:none;stroke:#221E1F;stroke-width:1.1318;stroke-miterlimit:10;}
	.st43{fill:none;stroke:#221E1F;stroke-width:1.0394;stroke-dasharray:14.096,4.2184;}
	.st44{fill:none;stroke:#221E1F;stroke-width:0.9644;stroke-linecap:round;stroke-linejoin:round;}
	.st45{fill:none;stroke:#221E1F;stroke-width:1.0394;stroke-linecap:round;stroke-linejoin:round;}
	.st46{fill:none;stroke:#221E1F;stroke-width:1.0394;stroke-dasharray:28.8705,8.4195;}
	.st47{fill:none;stroke:#221E1F;stroke-width:1.0394;stroke-dasharray:30.1958,9.7419;}
	.st48{fill:none;stroke:#221E1F;stroke-width:1.1834;}
	.st49{fill:none;stroke:#221E1F;stroke-width:1.1834;stroke-dasharray:22.2172,9.0331;}
	.st50{fill:none;stroke:#221E1F;stroke-width:1.1834;stroke-dasharray:22.205,9.024;}
	.st51{fill:none;stroke:#221E1F;stroke-width:1.1834;stroke-dasharray:22.2172,9.0362;}
	.st52{fill:none;stroke:#221E1F;stroke-width:1.1834;stroke-dasharray:22.205,9.021;}
	.st53{fill:none;stroke:#221E1F;stroke-width:1.1834;stroke-dasharray:14.8529,4.4695;}
	.st54{fill:none;stroke:#221E1F;stroke-width:1.1834;stroke-linecap:round;stroke-linejoin:round;}
	.st55{fill:none;stroke:#221E1F;stroke-width:0.9791;}
	.st56{fill:none;stroke:#221E1F;stroke-width:1.2076;}
	.st57{fill:none;stroke:#221E1F;stroke-width:1.2076;stroke-dasharray:17.3391,6.3726;}
	.st58{fill:none;stroke:#221E1F;stroke-width:1.2076;stroke-dasharray:17.3363,6.3726;}
	.st59{fill:none;stroke:#221E1F;stroke-width:0.9791;stroke-dasharray:17.5349,5.1568;}
	.st60{fill:none;stroke:#303030;stroke-width:0.9791;}
	.st61{fill:none;stroke:#221E1F;stroke-width:0.8976;stroke-linecap:round;stroke-linejoin:round;}
	.st62{fill:none;stroke:#241F21;stroke-width:0.9771;}
	
		.st63{fill:none;stroke:#241F21;stroke-width:0.9771;stroke-linecap:round;stroke-linejoin:round;stroke-miterlimit:1;stroke-dasharray:16.5466,16.5466;}
	
		.st64{fill:none;stroke:#241F21;stroke-width:0.9771;stroke-linecap:round;stroke-linejoin:round;stroke-miterlimit:1;stroke-dasharray:17.1257,17.1257;}
	
		.st65{fill:none;stroke:#241F21;stroke-width:0.9771;stroke-linecap:round;stroke-linejoin:round;stroke-miterlimit:1;stroke-dasharray:16.5967,16.5967;}
	.st66{fill:none;stroke:#241F21;stroke-width:0.9771;stroke-linecap:round;stroke-linejoin:round;stroke-miterlimit:1;}
	.st67{fill:#241F21;}
	.st68{fill:none;stroke:#241F21;stroke-width:0.7626;stroke-linecap:round;stroke-linejoin:round;stroke-miterlimit:1;}
	.st69{fill:none;stroke:#221E1F;stroke-width:1.2516;}
	.st70{fill:none;stroke:#221E1F;stroke-width:1.2516;stroke-miterlimit:10;}
	.st71{fill:none;stroke:#221E1F;stroke-width:0.6258;}
	.st72{fill:none;stroke:#221E1F;stroke-width:0.6258;stroke-dasharray:18.3883,4.6234;}
	.st73{fill:none;stroke:#221E1F;stroke-width:0.6258;stroke-dasharray:21.5524,17.6199;}
	.st74{fill:none;stroke:#221E1F;stroke-width:0.6258;stroke-dasharray:20.1706,6.4056;}
	.st75{fill:none;stroke:#221E1F;stroke-width:0.9654;}
	.st76{fill:none;stroke:#303030;stroke-width:0.9654;}
	.st77{fill:none;stroke:#303030;stroke-width:0.9017;}
	.st78{fill:none;stroke:#303030;stroke-width:0.9654;stroke-dasharray:14.0607,4.2416;}
	.st79{fill:none;stroke:#303030;stroke-width:0.9654;stroke-dasharray:13.938,4.1189;}
	.st80{fill:none;stroke:#303030;stroke-width:0.9654;stroke-dasharray:14.3912,4.5697;}
	.st81{fill:none;stroke:#303030;stroke-width:0.9654;stroke-dasharray:14.7358,4.9143;}
	.st82{fill:none;stroke:#221E1F;stroke-width:0.9654;stroke-dasharray:15.4321,4.6901;}
	.st83{fill:none;stroke:#221E1F;stroke-width:0.9654;stroke-linecap:round;stroke-linejoin:round;}
	.st84{fill:none;stroke:#303030;stroke-width:0.8686;stroke-miterlimit:10;}
	.st85{fill:none;stroke:#303030;stroke-width:0.9654;stroke-miterlimit:10;}
	.st86{fill:none;stroke:#221E1F;stroke-width:2.6151;}
	.st87{fill:none;stroke:#221E1F;stroke-width:1.816;}
	.st88{fill:none;stroke:#221E1F;stroke-width:1.816;stroke-dasharray:21.5996,5.873;}
	.st89{fill:none;stroke:#221E1F;stroke-width:1.816;stroke-dasharray:21.596,5.8693;}
	.st90{fill:none;stroke:#221E1F;stroke-width:1.816;stroke-dasharray:45.6036,34.3698;}
	.st91{fill:none;stroke:#221E1F;stroke-width:1.816;stroke-dasharray:45.5927,34.3589;}
	.st92{fill:none;stroke:#221E1F;stroke-width:1.816;stroke-dasharray:21.596,5.873;}
	.st93{fill:none;stroke:#221E1F;stroke-width:2.158;}
	.st94{fill:none;stroke:#221E1F;stroke-width:1.4986;}
	.st95{fill:none;stroke:#221E1F;stroke-width:1.4986;stroke-dasharray:19.9046,5.413;}
	.st96{fill:none;stroke:#221E1F;stroke-width:1.4986;stroke-dasharray:19.9016,5.41;}
	.st97{fill:none;stroke:#221E1F;stroke-width:1.4986;stroke-dasharray:35.6909,25.3385;}
	.st98{fill:none;stroke:#221E1F;stroke-width:0.8673;}
	.st99{fill:none;stroke:#303030;stroke-width:0.9125;stroke-miterlimit:10;}
	.st100{fill:none;stroke:#303030;stroke-width:8.808669e-02;stroke-linecap:round;stroke-linejoin:round;stroke-miterlimit:10;}
	.st101{fill:none;stroke:#303030;stroke-width:0.8786;stroke-miterlimit:10;}
	.st102{fill:none;stroke:#303030;stroke-width:0.8786;}
	.st103{fill:none;stroke:#221E1F;stroke-width:0.9125;}
	.st104{fill:none;stroke:#221E1F;stroke-width:0.9125;stroke-dasharray:15.7291,4.7273;}
	.st105{fill:none;stroke:#221E1F;stroke-width:0.9125;stroke-linecap:round;stroke-linejoin:round;}
	.st106{fill:#F0F0F0;stroke:#CCCCCC;stroke-miterlimit:10;}
	.st107{fill:#CCCCCC;}
</style>
<g id="Flat">
	<g>
		<g>
			<path class="st0" d="M226.4,681.6c0,1.8,0.7,3.4,1.9,4.7c1.2,1.2,2.9,1.9,4.7,1.9h533.8c1.7,0,3.5-0.7,4.7-1.9
				c1.3-1.3,1.9-2.9,1.9-4.7v-22.9c0-3.3-1.2-6.5-3.5-8.9c-2.2-2.4-5.3-3.9-8.6-4.2l-81.1-7.2c-13.6-1.2-27.1-4-40.1-8.4l-85-28.4
				c-5.3-1.8-9.9-4.9-13.5-9.1c-3.6-4.2-6-9.3-6.9-14.8c-5.6-33.5-8.5-67.7-8.5-101.7V344.7c0-21.6,1.6-43.5,4.8-64.9
				c0.8-5.6,3.2-10.8,6.8-15.1c3.6-4.3,8.4-7.5,13.7-9.3l88.9-29.6c3.6-1.2,6-4.6,6-8.4v-86.1c0-11.2-4.2-21.9-11.9-30
				c-7.7-8.2-18.1-13-29.3-13.7c-34.9-2.1-70.4-3.2-105.4-3.2c-35,0-70.5,1.1-105.5,3.2c-11.2,0.7-21.6,5.5-29.3,13.7
				c-7.7,8.2-11.9,18.8-11.9,30v86.1c0,3.8,2.4,7.2,6,8.4l88.9,29.6c5.4,1.8,10.1,5,13.7,9.3c3.6,4.3,6,9.5,6.8,15.1
				c3.2,21.4,4.8,43.3,4.8,64.9V476c0,34-2.9,68.2-8.5,101.7c-0.9,5.5-3.3,10.6-6.9,14.8c-3.6,4.2-8.3,7.4-13.5,9.1l-85,28.4
				c-13,4.3-26.5,7.2-40.1,8.4l-81.1,7.2c-3.3,0.3-6.3,1.8-8.6,4.2c-2.2,2.4-3.5,5.6-3.5,8.9V681.6z"/>
			<path class="st62" d="M226.4,681.6c0,1.8,0.7,3.4,1.9,4.7c1.2,1.2,2.9,1.9,4.7,1.9h533.8c1.7,0,3.5-0.7,4.7-1.9
				c1.3-1.3,1.9-2.9,1.9-4.7v-22.9c0-3.3-1.2-6.5-3.5-8.9c-2.2-2.4-5.3-3.9-8.6-4.2l-81.1-7.2c-13.6-1.2-27.1-4-40.1-8.4l-85-28.4
				c-5.3-1.8-9.9-4.9-13.5-9.1c-3.6-4.2-6-9.3-6.9-14.8c-5.6-33.5-8.5-67.7-8.5-101.7V344.7c0-21.6,1.6-43.5,4.8-64.9
				c0.8-5.6,3.2-10.8,6.8-15.1c3.6-4.3,8.4-7.5,13.7-9.3l88.9-29.6c3.6-1.2,6-4.6,6-8.4v-86.1c0-11.2-4.2-21.9-11.9-30
				c-7.7-8.2-18.1-13-29.3-13.7c-34.9-2.1-70.4-3.2-105.4-3.2c-35,0-70.5,1.1-105.5,3.2c-11.2,0.7-21.6,5.5-29.3,13.7
				c-7.7,8.2-11.9,18.8-11.9,30v86.1c0,3.8,2.4,7.2,6,8.4l88.9,29.6c5.4,1.8,10.1,5,13.7,9.3c3.6,4.3,6,9.5,6.8,15.1
				c3.2,21.4,4.8,43.3,4.8,64.9V476c0,34-2.9,68.2-8.5,101.7c-0.9,5.5-3.3,10.6-6.9,14.8c-3.6,4.2-8.3,7.4-13.5,9.1l-85,28.4
				c-13,4.3-26.5,7.2-40.1,8.4l-81.1,7.2c-3.3,0.3-6.3,1.8-8.6,4.2c-2.2,2.4-3.5,5.6-3.5,8.9V681.6z"/>
		</g>
		<line class="st63" x1="500" y1="356.6" x2="500" y2="708.5"/>
		<line class="st64" x1="500" y1="55.5" x2="500" y2="312.4"/>
		<line class="st65" x1="121.5" y1="387.6" x2="635.9" y2="387.6"/>
		<path class="st66" d="M444.7,601.7l55.2-18.5 M448.3,255.3l51.7,17.2 M551.6,255.3L500,272.5 M555.2,601.7L500,583.2 M353.4,131.3
			V17.9 M646.5,131.3V17.9"/>
		<line class="st66" x1="365.4" y1="22.2" x2="634.8" y2="22.2"/>
		<g>
			<path class="st67" d="M639,20.4c-3-0.9-4.9-1.7-7.3-2.6v8.9c0.9-0.4,4.3-1.7,7.3-2.6c3.2-0.9,6.1-1.6,8-1.8
				C645.1,22,642.2,21.4,639,20.4"/>
			<path class="st67" d="M361.2,24c3,0.9,4.9,1.7,7.3,2.6v-8.9c-0.9,0.4-4.3,1.7-7.3,2.6c-3.2,0.9-6.1,1.6-8,1.8
				C355.1,22.4,358,23.1,361.2,24"/>
		</g>
		<line class="st66" x1="487.3" y1="344.7" x2="513" y2="344.7"/>
		<g>
			<path class="st67" d="M517.8,342.9c-3.4-0.9-5.6-1.7-8.4-2.6v8.9c1-0.4,5-1.7,8.4-2.6c3.7-0.9,7-1.6,9.1-1.8
				C524.8,344.5,521.5,343.9,517.8,342.9"/>
			<path class="st67" d="M482.4,346.5c3.4,0.9,5.6,1.7,8.4,2.6v-8.9c-1,0.4-5,1.7-8.4,2.6c-3.7,0.9-7,1.6-9.1,1.8
				C475.4,345,478.7,345.6,482.4,346.5"/>
			<path class="st66" d="M226.5,681.6v64.9 M773.4,681.6v64.9"/>
		</g>
		<line class="st66" x1="238.5" y1="742.1" x2="758" y2="742.1"/>
		<g>
			<path class="st67" d="M762.2,740.3c-2.9-0.9-4.8-1.7-7.2-2.6v8.9c0.8-0.4,4.2-1.7,7.2-2.6c3.1-0.9,6-1.6,7.8-1.8
				C768.2,741.9,765.3,741.3,762.2,740.3"/>
			<path class="st67" d="M234.3,743.9c2.9,0.9,4.8,1.7,7.2,2.6v-8.9c-0.8,0.4-4.2,1.7-7.2,2.6c-3.1,0.9-6,1.6-7.8,1.8
				C228.3,742.3,231.2,743,234.3,743.9"/>
		</g>
		<line class="st66" x1="179.4" y1="675.7" x2="179.4" y2="488.5"/>
		<g>
			<path class="st67" d="M177.6,484.2c-0.9,3-1.7,4.9-2.6,7.3h8.9c-0.4-0.9-1.7-4.3-2.6-7.3c-0.9-3.2-1.6-6.1-1.8-8
				C179.2,478.1,178.6,481,177.6,484.2"/>
			<path class="st67" d="M181.2,680c0.9-3,1.7-4.9,2.6-7.3H175c0.4,0.9,1.7,4.4,2.6,7.3c0.9,3.2,1.6,6.1,1.8,8
				C179.6,686.1,180.3,683.2,181.2,680"/>
		</g>
		<line class="st66" x1="462.3" y1="476" x2="175" y2="476"/>
		<g>
			<path class="st67" d="M466.3,474.2c-2.8-0.9-4.6-1.7-6.9-2.6v8.9c0.8-0.4,4.1-1.7,6.9-2.6c3-0.9,5.7-1.6,7.5-1.8
				C472,475.8,469.3,475.1,466.3,474.2"/>
		</g>
		<line class="st66" x1="461.8" y1="344.7" x2="175" y2="344.7"/>
		<g>
			<path class="st67" d="M465.8,342.9c-2.8-0.9-4.6-1.7-6.8-2.6v8.9c0.8-0.4,4.1-1.7,6.8-2.6c3-0.9,5.7-1.6,7.4-1.8
				C471.5,344.5,468.8,343.9,465.8,342.9"/>
		</g>
		<line class="st66" x1="179.4" y1="463.6" x2="179.4" y2="356.9"/>
		<g>
			<path class="st67" d="M177.6,352.5c-0.9,3.1-1.7,5.1-2.6,7.6h8.9c-0.4-0.9-1.7-4.5-2.6-7.6c-0.9-3.3-1.6-6.3-1.8-8.2
				C179.2,346.2,178.6,349.2,177.6,352.5"/>
			<path class="st67" d="M181.2,468c0.9-3.1,1.7-5.1,2.6-7.6H175c0.4,0.9,1.7,4.5,2.6,7.6c0.9,3.3,1.6,6.3,1.8,8.2
				C179.6,474.3,180.3,471.3,181.2,468"/>
		</g>
		<path class="st66" d="M814.3,688.2h45.9 M500,583.2h360.3"/>
		<line class="st66" x1="855.9" y1="675.4" x2="855.9" y2="595.8"/>
		<g>
			<path class="st67" d="M854.1,591.4c-0.9,3.1-1.7,5.1-2.6,7.6h8.9c-0.4-0.9-1.7-4.5-2.6-7.6c-0.9-3.3-1.6-6.3-1.8-8.3
				C855.7,585.1,855,588.1,854.1,591.4"/>
			<path class="st67" d="M857.7,679.9c0.9-3.1,1.7-5.1,2.6-7.6h-8.9c0.4,0.9,1.7,4.5,2.6,7.6c0.9,3.3,1.6,6.3,1.8,8.3
				C856.1,686.2,856.7,683.2,857.7,679.9"/>
		</g>
		<line class="st62" x1="708.3" y1="84.4" x2="819.5" y2="84.4"/>
		<line class="st66" x1="500" y1="272.5" x2="819.5" y2="272.5"/>
		<line class="st66" x1="815.1" y1="97.2" x2="815.1" y2="260"/>
		<g>
			<path class="st67" d="M816.9,264.3c0.9-3,1.7-5,2.6-7.4h-8.9c0.4,0.9,1.7,4.4,2.6,7.4c0.9,3.2,1.6,6.1,1.8,8
				C815.3,270.4,816,267.5,816.9,264.3"/>
			<path class="st67" d="M813.3,92.9c-0.9,3-1.7,5-2.6,7.4h8.9c-0.4-0.9-1.7-4.4-2.6-7.4c-0.9-3.2-1.6-6.1-1.8-8
				C814.9,86.8,814.2,89.7,813.3,92.9"/>
		</g>
		<line class="st66" x1="855.9" y1="688.2" x2="897.8" y2="688.2"/>
		<line class="st62" x1="819.5" y1="84.4" x2="897.8" y2="84.4"/>
		<line class="st66" x1="893.4" y1="676.4" x2="893.4" y2="96"/>
		<g>
			<path class="st67" d="M891.6,91.8c-0.9,2.9-1.7,4.9-2.6,7.2h8.9c-0.4-0.8-1.7-4.3-2.6-7.2c-0.9-3.1-1.6-6-1.8-7.9
				C893.2,85.8,892.6,88.6,891.6,91.8"/>
			<path class="st67" d="M895.2,680.6c0.9-2.9,1.7-4.9,2.6-7.2H889c0.4,0.8,1.7,4.3,2.6,7.2c0.9,3.1,1.6,6,1.8,7.9
				C893.6,686.7,894.3,683.8,895.2,680.6"/>
		</g>
		<path class="st66" d="M773.4,646.7h45.7 M766.8,688.2h52.3 M814.7,634.3V619"/>
		<g>
			<path class="st67" d="M816.5,638.5c0.9-2.9,1.7-4.8,2.6-7.1h-8.9c0.4,0.8,1.7,4.2,2.6,7.1c0.9,3.1,1.6,5.9,1.8,7.8
				C814.9,644.4,815.6,641.6,816.5,638.5"/>
		</g>
		<line class="st66" x1="814.7" y1="699.7" x2="814.7" y2="715"/>
		<g>
			<path class="st67" d="M812.9,695.6c-0.9,2.9-1.7,4.8-2.6,7.1h8.9c-0.4-0.8-1.7-4.2-2.6-7.1c-0.9-3.1-1.6-5.9-1.8-7.8
				C814.5,689.6,813.9,692.5,812.9,695.6"/>
		</g>
		<line class="st62" x1="500" y1="84.4" x2="708.3" y2="84.4"/>
		<line class="st66" x1="646.5" y1="131.3" x2="708.3" y2="131.3"/>
		<line class="st66" x1="704" y1="98.4" x2="704" y2="117.3"/>
		<g>
			<path class="st67" d="M705.8,122.2c0.9-3.4,1.7-5.6,2.6-8.3h-8.9c0.4,1,1.7,4.9,2.6,8.3c0.9,3.6,1.6,6.9,1.8,9.1
				C704.2,129.1,704.8,125.8,705.8,122.2"/>
			<path class="st67" d="M702.2,93.5c-0.9,3.4-1.7,5.6-2.6,8.3h8.9c-0.4-1-1.7-4.9-2.6-8.3c-0.9-3.6-1.6-6.9-1.8-9.1
				C703.7,86.6,703.1,89.9,702.2,93.5"/>
		</g>
		<path class="st66" d="M701.4,116h5.1l-2.5,15.3L701.4,116z M195.1,344.7L313.7,330"/>
		<path class="st66" d="M313.7,330l-18.8-24.1 M233.1,688.2H129.7"/>
		<line class="st66" x1="134.1" y1="675.8" x2="134.1" y2="400.1"/>
		<g>
			<path class="st67" d="M132.3,395.8c-0.9,3-1.7,4.9-2.6,7.3h8.9c-0.4-0.9-1.7-4.3-2.6-7.3c-0.9-3.2-1.6-6.1-1.8-7.9
				C133.9,389.8,133.3,392.7,132.3,395.8"/>
			<path class="st67" d="M135.9,680.1c0.9-3,1.7-4.9,2.6-7.3h-8.9c0.4,0.9,1.7,4.3,2.6,7.3c0.9,3.2,1.6,6.1,1.8,7.9
				C134.3,686.1,135,683.3,135.9,680.1"/>
		</g>
		<path class="st66" d="M394.5,87.6V42.7 M605.4,87.6V42.7"/>
		<line class="st66" x1="406.8" y1="47.1" x2="593.2" y2="47.1"/>
		<g>
			<path class="st67" d="M597.5,45.3c-3-0.9-5-1.7-7.4-2.6v8.9c0.9-0.4,4.4-1.7,7.4-2.6c3.2-0.9,6.1-1.6,8-1.8
				C603.6,46.9,600.7,46.2,597.5,45.3"/>
			<path class="st67" d="M402.5,48.9c3,0.9,5,1.7,7.4,2.6v-8.9c-0.9,0.4-4.4,1.7-7.4,2.6c-3.2,0.9-6.1,1.6-8,1.8
				C396.4,47.3,399.3,47.9,402.5,48.9"/>
		</g>
		<line class="st66" x1="602.8" y1="131.3" x2="646.5" y2="131.3"/>
		<g>
			<path class="st67" d="M650.7,129.5c-2.9-0.9-4.8-1.7-7.1-2.6v8.9c0.8-0.4,4.2-1.7,7.1-2.6c3.1-0.9,5.9-1.6,7.8-1.8
				C656.6,131,653.8,130.4,650.7,129.5"/>
		</g>
		<line class="st66" x1="438.6" y1="284.4" x2="446.4" y2="263.5"/>
		<g>
			<path class="st67" d="M446.1,260.2c-1.4,1.8-2.5,2.9-3.8,4.3l6.8,2c-0.1-0.7-0.3-3.3-0.2-5.5c0.1-2.3,0.3-4.4,0.6-5.7
				C448.8,256.5,447.6,258.3,446.1,260.2"/>
		</g>
		<line class="st68" x1="435" y1="572.6" x2="443.2" y2="593.5"/>
		<g>
			<path class="st67" d="M445.8,595.9c-0.1-2.2,0.1-3.7,0.2-5.5l-7.1,2c0.5,0.5,2.5,2.5,4,4.3c1.6,1.9,2.9,3.7,3.5,4.9
				C446.1,600.3,445.9,598.3,445.8,595.9"/>
		</g>
		<line class="st66" x1="255.6" y1="684.6" x2="237.4" y2="659.2"/>
		<g>
			<path class="st67" d="M233.5,657c1.1,2.9,1.6,4.9,2.3,7.4l6.8-5.6c-0.8-0.4-3.9-2.3-6.3-4.1c-2.6-1.9-4.8-3.8-6-5.1
				C231.2,651.2,232.4,653.9,233.5,657"/>
			<path class="st62" d="M233.5,657c1.1,2.9,1.6,4.9,2.3,7.4l6.8-5.6c-0.8-0.4-3.9-2.3-6.3-4.1c-2.6-1.9-4.8-3.8-6-5.1
				C231.2,651.2,232.4,653.9,233.5,657z"/>
		</g>
		<line class="st66" x1="731.9" y1="660.2" x2="761.1" y2="680.8"/>
		<g>
			<path class="st67" d="M765.5,681.7c-1.9-2.4-3-4.1-4.3-6.2l-5.1,7.3c0.9,0.2,4.5,1,7.3,1.9c3.1,1,5.8,2.1,7.4,3
				C769.4,686.4,767.5,684.2,765.5,681.7"/>
			<path class="st62" d="M199.4,344.7c0-2.4-2-4.4-4.4-4.4c-2.4,0-4.4,2-4.4,4.4c0,2.4,2,4.4,4.4,4.4
				C197.5,349.1,199.4,347.1,199.4,344.7z M207.4,476c0-2.4-2-4.4-4.4-4.4c-2.4,0-4.4,2-4.4,4.4c0,2.4,2,4.4,4.4,4.4
				C205.5,480.4,207.4,478.4,207.4,476z"/>
		</g>
		<line class="st66" x1="365" y1="215" x2="389.8" y2="196.6"/>
		<g>
			<path class="st67" d="M362.8,218.9c2.9-1,4.9-1.5,7.3-2.2l-5.3-7.1c-0.4,0.8-2.3,3.9-4.1,6.4c-1.9,2.6-3.8,4.8-5.1,6.1
				C357.1,221.2,359.7,220,362.8,218.9"/>
		</g>
		<path class="st66" d="M680.3,638.5L500,622.5 M319.6,638.5L500,622.5 M456.9,282.1l-162,23.8"/>
		<g>
			<path class="st67" d="M460.8,279.7c-3.1-0.4-5.1-1-7.6-1.5l1.3,8.8c0.8-0.5,4-2.3,6.8-3.7c3-1.4,5.7-2.4,7.5-2.9
				C467,280.4,464.1,280.2,460.8,279.7"/>
		</g>
		<line class="st62" x1="453.3" y1="575.2" x2="281.7" y2="546.8"/>
		<g>
			<path class="st67" d="M457.8,574.1c-2.8-1.3-4.5-2.5-6.7-3.8l-1.5,8.7c0.9-0.3,4.5-1,7.6-1.4c3.3-0.4,6.2-0.6,8.1-0.5
				C463.5,576.6,460.7,575.5,457.8,574.1"/>
		</g>
		<line class="st66" x1="450.1" y1="575.2" x2="281.7" y2="546.8"/>
		<line class="st66" x1="371.5" y1="504.3" x2="203" y2="476"/>
		<path class="st66" d="M371.5,504.3l-89.8,42.5 M326.2,578.3l10.6,45.2"/>
		<g>
			<path class="st67" d="M339.5,627.1c0.2-3,0.5-5.1,0.9-7.5l-8.6,2c0.6,0.7,2.7,3.7,4.2,6.3c1.6,2.8,2.9,5.4,3.5,7.1
				C339.3,633.2,339.3,630.4,339.5,627.1"/>
		</g>
		<line class="st66" x1="605" y1="99.5" x2="597.3" y2="227"/>
		<g>
			<path class="st67" d="M603.4,95.2c-1.1,2.8-2,4.7-3,7l8.8,0.5c-0.3-0.9-1.5-4.3-2.2-7.3c-0.8-3.2-1.2-6-1.3-7.9
				C605.4,89.4,604.5,92.2,603.4,95.2"/>
			<g>
				<path class="st67" d="M489.4,724.3L489.4,724.3l-1.9,1.3l-0.3-1.4l2.4-1.6h1.3v13.6h-1.4V724.3z"/>
				<path class="st67" d="M494.8,736.2v-1.1l1.2-1.4c2.8-3.3,4-5.1,4.1-7.1c0-1.4-0.5-2.7-2.2-2.7c-1,0-1.8,0.6-2.3,1.2l-0.5-1.3
					c0.8-0.8,1.8-1.4,3.1-1.4c2.3,0,3.3,2,3.3,4c0,2.5-1.5,4.5-3.7,7.3l-0.9,1v0h4.9v1.5H494.8z"/>
				<path class="st67" d="M509.9,724.1h-4.2l-0.4,3.5c0.3,0,0.5-0.1,0.9-0.1c0.8,0,1.7,0.2,2.3,0.7c0.9,0.6,1.6,1.8,1.6,3.5
					c0,2.7-1.7,4.6-4.1,4.6c-1.2,0-2.2-0.4-2.7-0.8l0.4-1.4c0.5,0.3,1.3,0.8,2.3,0.8c1.4,0,2.6-1.1,2.6-3c0-1.8-1-3-3.1-3
					c-0.6,0-1.1,0.1-1.5,0.1l0.7-6.5h5.2V724.1z"/>
			</g>
			<g>
				<path class="st67" d="M593.6,596.5L593.6,596.5l-2.2,0.5l0.2-1.4l2.8-0.7l1.2,0.4l-4.6,12.8l-1.3-0.5L593.6,596.5z"/>
			</g>
			<g>
				<path class="st67" d="M595.1,608.6c0.3-0.7,0.8-1.1,1.4-0.9c0.6,0.2,0.7,0.8,0.5,1.6c-0.2,0.7-0.8,1.1-1.4,0.9
					C595,609.9,594.8,609.2,595.1,608.6z M597.6,601.6c0.3-0.7,0.8-1.1,1.4-0.9c0.6,0.2,0.7,0.8,0.5,1.6c-0.2,0.7-0.8,1.1-1.4,0.9
					C597.5,603,597.3,602.3,597.6,601.6z"/>
				<path class="st67" d="M598.9,608.8c0.3,0.5,1,1.3,2,1.6c1.8,0.6,2.8-0.6,3.2-1.6c0.6-1.8-0.4-3-1.7-3.5l-0.8-0.3l0.5-1.3
					l0.8,0.3c1,0.4,2.5,0.2,3.1-1.3c0.4-1,0.2-2.1-1.1-2.6c-0.8-0.3-1.8-0.1-2.4,0.1l0.1-1.4c0.7-0.3,1.9-0.4,3,0
					c2,0.7,2.4,2.6,1.8,4.1c-0.5,1.3-1.5,2.2-3,2.3l0,0c1.1,0.8,1.7,2.3,1.1,4.1c-0.7,2-2.7,3.4-5.1,2.5c-1.2-0.4-2-1.2-2.4-1.8
					L598.9,608.8z"/>
			</g>
			<g>
				<path class="st67" d="M740.9,645.9c0.6,0.2,1.3,0.5,1.9,0.9c1,0.7,1.4,1.4,1.4,2.3c0,0.8-0.3,1.7-0.9,2.6
					c-1,1.5-2.3,2.2-3.3,2.1l0,0.1c0.3,0.7,0.1,1.7-0.6,3.1c-0.9,1.8-1.5,3-1.6,3.6l-0.9-0.6c0.1-0.4,0.6-1.5,1.4-3.1
					c0.9-1.8,0.9-2.6,0.1-3.2l-0.9-0.6l-3.4,5.1l-0.9-0.6L740.9,645.9z M738.3,651.8l0.9,0.6c1,0.7,2.2,0.2,3.1-1.2
					c1-1.5,0.8-2.6-0.1-3.3c-0.4-0.3-0.8-0.4-1-0.5L738.3,651.8z"/>
				<path class="st67" d="M749.3,653.9L749.3,653.9l-1.9,0.3l0.6-1.3l2.4-0.3l0.8,0.5l-7.6,11.3l-0.9-0.6L749.3,653.9z"/>
				<path class="st67" d="M746.6,665.2c0.4-0.6,1-0.9,1.4-0.7c0.4,0.2,0.3,0.9-0.1,1.5c-0.4,0.6-1,0.9-1.4,0.7
					C746.1,666.5,746.2,665.8,746.6,665.2z"/>
			</g>
			<g>
				<path class="st67" d="M758.8,660.2l-2.6-1.7l-2.2,2.7c0.2,0.1,0.3,0.1,0.6,0.3c0.5,0.3,0.9,0.9,1,1.6c0.2,0.9,0,2.1-1,3.5
					c-1.5,2.2-3.6,3.1-5.1,2.2c-0.7-0.5-1.1-1.3-1.2-1.8l1-1c0.1,0.5,0.4,1.2,1,1.6c0.9,0.6,2.2,0.1,3.2-1.4c1-1.5,1.1-2.9-0.3-3.8
					c-0.4-0.3-0.7-0.4-1-0.5l4.1-5.1l3.2,2.2L758.8,660.2z"/>
			</g>
			<g>
				<path class="st67" d="M493.9,323.7L493.9,323.7l-1.9,1.3l-0.3-1.4l2.4-1.6h1.3v13.6h-1.4V323.7z"/>
				<path class="st67" d="M499.3,335.6v-1.1l1.2-1.4c2.8-3.3,4-5.1,4.1-7.1c0-1.4-0.5-2.7-2.2-2.7c-1,0-1.8,0.6-2.3,1.2l-0.5-1.3
					c0.8-0.8,1.8-1.4,3.1-1.4c2.3,0,3.3,2,3.3,4c0,2.5-1.5,4.5-3.7,7.3l-0.9,1v0h4.9v1.5H499.3z"/>
			</g>
			<g>
				<path class="st67" d="M342.5,327c0.7-0.2,1.8-0.3,2.8-0.3c1.6,0,2.6,0.4,3.3,1.2c0.6,0.6,0.9,1.6,0.9,2.7c0,1.9-0.9,3.1-2.1,3.6
					v0.1c0.9,0.4,1.4,1.4,1.7,2.8c0.4,2,0.6,3.3,0.9,3.9h-1.5c-0.2-0.4-0.4-1.6-0.8-3.4c-0.3-1.9-0.9-2.7-2.3-2.7H344v6.1h-1.5V327z
					 M344,333.4h1.5c1.6,0,2.5-1.1,2.5-2.7c0-1.8-1.1-2.6-2.6-2.6c-0.7,0-1.2,0.1-1.4,0.2V333.4z"/>
				<path class="st67" d="M357.8,329L357.8,329l-1.9,1.3l-0.3-1.4l2.4-1.6h1.3v13.6h-1.4V329z"/>
				<path class="st67" d="M370.4,334c0,4.6-1.4,7.2-3.8,7.2c-2.1,0-3.6-2.5-3.6-7c0-4.6,1.6-7.1,3.8-7.1
					C369.1,327.1,370.4,329.7,370.4,334z M364.5,334.2c0,3.5,0.9,5.5,2.2,5.5c1.5,0,2.2-2.2,2.2-5.7c0-3.3-0.7-5.5-2.2-5.5
					C365.4,328.5,364.5,330.5,364.5,334.2z"/>
				<path class="st67" d="M379,334c0,4.6-1.4,7.2-3.8,7.2c-2.1,0-3.6-2.5-3.6-7c0-4.6,1.6-7.1,3.8-7.1
					C377.7,327.1,379,329.7,379,334z M373.1,334.2c0,3.5,0.9,5.5,2.2,5.5c1.5,0,2.2-2.2,2.2-5.7c0-3.3-0.7-5.5-2.2-5.5
					C374,328.5,373.1,330.5,373.1,334.2z"/>
			</g>
			<g>
				<path class="st67" d="M333.7,282c0.7-0.3,1.7-0.6,2.7-0.7c1.5-0.2,2.6-0.1,3.4,0.6c0.7,0.5,1.1,1.4,1.3,2.5
					c0.3,1.8-0.4,3.2-1.5,3.9l0,0.1c0.9,0.2,1.6,1.1,2.1,2.6c0.7,1.9,1.1,3.2,1.5,3.7l-1.5,0.2c-0.2-0.4-0.7-1.5-1.3-3.2
					c-0.6-1.9-1.3-2.5-2.7-2.4l-1.4,0.2l1,6l-1.4,0.2L333.7,282z M336.2,288.1l1.5-0.2c1.5-0.2,2.3-1.5,2.1-3
					c-0.3-1.8-1.5-2.4-3-2.2c-0.7,0.1-1.2,0.3-1.4,0.4L336.2,288.1z"/>
			</g>
			<g>
				<path class="st67" d="M349.1,281.6L349.1,281.6l-1.7,1.6l-0.5-1.3l2.1-1.9l1.2-0.2l2.1,13.4l-1.4,0.2L349.1,281.6z"/>
			</g>
			<g>
				<path class="st67" d="M362.3,284.5c0.7,4.6-0.2,7.3-2.6,7.7c-2.1,0.3-3.9-1.9-4.6-6.3c-0.7-4.5,0.4-7.2,2.6-7.6
					C360,277.9,361.7,280.2,362.3,284.5z M356.5,285.6c0.6,3.5,1.7,5.3,3.1,5.1c1.5-0.2,1.9-2.5,1.3-6c-0.5-3.3-1.5-5.4-3.1-5.1
					C356.6,279.9,356,282,356.5,285.6z"/>
			</g>
			<g>
				<path class="st67" d="M370.8,283.1c0.7,4.6-0.2,7.3-2.6,7.7c-2.1,0.3-3.9-1.9-4.6-6.3c-0.7-4.5,0.4-7.2,2.6-7.6
					C368.5,276.5,370.2,278.9,370.8,283.1z M365,284.3c0.6,3.5,1.7,5.3,3.1,5.1c1.5-0.2,1.9-2.5,1.3-6c-0.5-3.3-1.5-5.4-3.1-5.1
					C365.1,278.5,364.5,280.6,365,284.3z"/>
			</g>
			<g>
				<path class="st67" d="M333.7,458c0.7-0.2,1.8-0.3,2.8-0.3c1.6,0,2.6,0.4,3.3,1.2c0.6,0.6,0.9,1.6,0.9,2.7c0,1.9-0.9,3.1-2.1,3.6
					v0.1c0.9,0.4,1.4,1.4,1.7,2.8c0.4,2,0.6,3.3,0.9,3.9h-1.5c-0.2-0.4-0.4-1.6-0.8-3.4c-0.3-1.9-0.9-2.7-2.3-2.7h-1.4v6.1h-1.5V458
					z M335.1,464.4h1.5c1.6,0,2.5-1.1,2.5-2.7c0-1.8-1.1-2.6-2.6-2.6c-0.7,0-1.2,0.1-1.4,0.2V464.4z"/>
				<path class="st67" d="M348.9,460L348.9,460l-1.9,1.3l-0.3-1.4l2.4-1.6h1.3v13.6h-1.4V460z"/>
				<path class="st67" d="M358.9,471.9v-3.7h-5.1V467l4.9-8.7h1.6v8.5h1.5v1.4h-1.5v3.7H358.9z M358.9,466.7v-4.5c0-0.7,0-1.4,0-2.1
					h0c-0.3,0.8-0.6,1.4-0.9,2l-2.7,4.6v0H358.9z"/>
				<path class="st67" d="M370.1,464.9c0,4.6-1.4,7.2-3.8,7.2c-2.1,0-3.6-2.5-3.6-7c0-4.6,1.6-7.1,3.8-7.1
					C368.8,458,370.1,460.6,370.1,464.9z M364.2,465.1c0,3.5,0.9,5.5,2.2,5.5c1.5,0,2.2-2.2,2.2-5.7c0-3.3-0.7-5.5-2.2-5.5
					C365.2,459.5,364.2,461.4,364.2,465.1z"/>
			</g>
			<g>
				<path class="st67" d="M342.9,537.9c0.8,0,1.8,0,2.8,0.2c1.5,0.3,2.4,0.8,3,1.7c0.4,0.7,0.6,1.7,0.4,2.8
					c-0.3,1.8-1.5,2.9-2.8,3.1l0,0.1c0.8,0.5,1.1,1.6,1.1,3.1c0,2,0,3.4,0.1,4l-1.5-0.3c-0.1-0.4-0.1-1.7-0.1-3.5
					c0-2-0.4-2.8-1.7-3.1l-1.3-0.3l-1.1,6l-1.4-0.3L342.9,537.9z M343.2,544.5l1.5,0.3c1.5,0.3,2.7-0.6,3-2.2
					c0.3-1.8-0.5-2.8-2.1-3.1c-0.7-0.1-1.2-0.1-1.4-0.1L343.2,544.5z"/>
				<path class="st67" d="M357.5,542.7L357.5,542.7l-2.1,0.9l0-1.4l2.6-1.1l1.2,0.2l-2.5,13.4l-1.4-0.3L357.5,542.7z"/>
				<path class="st67" d="M365.1,556.3l0.7-3.6l-5-0.9l0.2-1.2l6.4-7.6l1.6,0.3l-1.6,8.3l1.5,0.3l-0.3,1.4l-1.5-0.3l-0.7,3.6
					L365.1,556.3z M366,551.2l0.8-4.5c0.1-0.7,0.3-1.4,0.4-2.1l0,0c-0.5,0.7-0.8,1.2-1.3,1.8l-3.5,4l0,0L366,551.2z"/>
				<path class="st67" d="M377.4,551.6c-0.9,4.5-2.7,6.8-5.1,6.3c-2.1-0.4-3-3.1-2.2-7.5c0.9-4.5,2.9-6.7,5-6.2
					C377.5,544.5,378.3,547.3,377.4,551.6z M371.6,550.7c-0.7,3.5-0.2,5.6,1.1,5.9c1.5,0.3,2.6-1.7,3.2-5.2c0.6-3.3,0.4-5.6-1.1-5.9
					C373.6,545.3,372.3,547,371.6,550.7z"/>
			</g>
			<g>
				<path class="st67" d="M343.4,574.2c0.3,0.7,0.7,1.7,0.9,2.7c0.3,1.5,0.2,2.6-0.5,3.4c-0.5,0.7-1.4,1.2-2.4,1.4
					c-1.8,0.4-3.2-0.3-4-1.3l-0.1,0c-0.2,0.9-1.1,1.6-2.4,2.2c-1.8,0.8-3.1,1.3-3.6,1.7l-0.3-1.5c0.4-0.3,1.5-0.8,3.1-1.4
					c1.8-0.7,2.4-1.5,2.2-2.8l-0.3-1.3l-6,1.3l-0.3-1.4L343.4,574.2z M337.4,576.9l0.3,1.5c0.3,1.5,1.6,2.3,3.1,1.9
					c1.8-0.4,2.3-1.6,2-3.1c-0.1-0.7-0.3-1.2-0.5-1.4L337.4,576.9z"/>
			</g>
			<g>
				<path class="st67" d="M333.2,593.3l3.6-0.8l-1-4.9l1.2-0.3l9.5,3l0.3,1.6l-8.3,1.8l0.3,1.5l-1.4,0.3l-0.3-1.5l-3.6,0.8
					L333.2,593.3z M338.3,592.2l4.4-0.9c0.7-0.1,1.4-0.3,2.1-0.4l0,0c-0.8-0.2-1.5-0.3-2.2-0.5l-5.1-1.6l0,0L338.3,592.2z"/>
			</g>
			<g>
				<path class="st67" d="M342.4,602.8c-4.5,1-7.3,0.1-7.8-2.2c-0.4-2.1,1.7-4,6.1-5c4.5-0.9,7.2,0.1,7.7,2.2
					C348.8,600.1,346.6,601.9,342.4,602.8z M340.9,597.1c-3.5,0.7-5.2,2-5,3.3c0.3,1.5,2.6,1.7,6,1c3.3-0.7,5.3-1.8,5-3.3
					C346.7,596.8,344.6,596.3,340.9,597.1z"/>
			</g>
			<g>
				<path class="st67" d="M410.8,588.7c0.6-0.4,1.6-0.9,2.5-1.3c1.5-0.5,2.5-0.6,3.5-0.1c0.8,0.4,1.4,1.2,1.8,2.2
					c0.7,1.7,0.2,3.2-0.7,4.1l0,0.1c0.9,0,1.8,0.8,2.6,2.1c1,1.7,1.8,2.9,2.2,3.3l-1.4,0.5c-0.3-0.3-1-1.4-1.9-2.9
					c-1-1.7-1.8-2.2-3.1-1.8l-1.3,0.5l2.1,5.7l-1.4,0.5L410.8,588.7z M414.4,594.2l1.4-0.5c1.5-0.5,2-1.9,1.4-3.4
					c-0.6-1.7-1.9-2.1-3.4-1.6c-0.7,0.2-1.1,0.5-1.3,0.7L414.4,594.2z"/>
			</g>
			<g>
				<path class="st67" d="M428.8,582.3l0.4,1.1l-0.1,13.3l-1.4,0.5l0.2-12.9l0,0l-5,1.9l-0.5-1.4L428.8,582.3z"/>
			</g>
			<g>
				<path class="st67" d="M412.3,263.3c0.7-0.2,1.8-0.3,2.8-0.4c1.6,0,2.6,0.3,3.3,1.1c0.6,0.6,0.9,1.6,0.9,2.7c0,1.9-0.9,3.1-2,3.6
					l0,0.1c0.9,0.4,1.4,1.3,1.7,2.8c0.4,2,0.7,3.3,1,3.9l-1.5,0c-0.2-0.4-0.5-1.6-0.8-3.4c-0.4-1.9-1-2.7-2.3-2.7l-1.4,0l0.1,6.1
					l-1.5,0L412.3,263.3z M413.9,269.7l1.5,0c1.6,0,2.5-1.1,2.5-2.7c0-1.8-1.1-2.6-2.7-2.6c-0.7,0-1.2,0.1-1.4,0.2L413.9,269.7z"/>
			</g>
			<g>
				<path class="st67" d="M431.4,263.2l0,1.2l-4.5,12.5l-1.5,0l4.4-12.1l0,0l-5.3,0.1l0-1.5L431.4,263.2z"/>
			</g>
			<g>
				<path class="st67" d="M174.4,596.2h-3.7v5.1h-1.2l-8.7-4.9v-1.6h8.5v-1.5h1.4v1.5h3.7V596.2z M169.3,596.2h-4.5
					c-0.7,0-1.4,0-2.1,0v0c0.8,0.3,1.4,0.6,2,0.9l4.6,2.7h0V596.2z"/>
				<path class="st67" d="M171,592.3c-1.7,0-2.9-0.8-3.6-2.2l-0.1,0c-0.7,1.2-1.9,1.7-3.1,1.7c-2.2,0-3.6-1.5-3.6-3.4
					c0-2.1,1.7-3.2,3.3-3.2c1.2,0,2.4,0.5,3.2,1.8h0.1c0.7-1.4,1.9-2.2,3.5-2.2c2.4,0,4,1.6,4,3.7
					C174.6,590.9,172.9,592.3,171,592.3z M164.1,590.5c1.4,0,2.1-0.8,2.5-2.1c-0.4-0.9-1.2-1.7-2.5-1.7c-1.1,0-2.2,0.5-2.2,1.8
					C161.9,589.8,162.9,590.5,164.1,590.5z M170.9,586.4c-1.7,0-2.4,0.9-3,2.4c0.5,1.3,1.5,2,2.8,2c1.4,0.1,2.6-0.8,2.6-2.2
					C173.3,587.3,172.3,586.4,170.9,586.4z"/>
				<path class="st67" d="M173.3,583.4c-0.8,0-1.3-0.4-1.3-1s0.5-1,1.3-1c0.8,0,1.3,0.4,1.3,1C174.6,583,174.1,583.4,173.3,583.4z"
					/>
			</g>
			<g>
				<path class="st67" d="M162.4,573.6v4.2l3.5,0.4c0-0.3-0.1-0.5-0.1-0.9c0-0.8,0.2-1.7,0.7-2.3c0.6-0.9,1.8-1.6,3.5-1.6
					c2.7,0,4.6,1.7,4.6,4.1c0,1.2-0.4,2.2-0.8,2.7l-1.4-0.4c0.3-0.5,0.8-1.3,0.8-2.3c0-1.4-1.1-2.6-3-2.6c-1.8,0-3,1-3,3.1
					c0,0.6,0.1,1.1,0.1,1.5l-6.5-0.7v-5.2H162.4z"/>
				<path class="st67" d="M172.3,571.2c0.3-0.4,0.9-1.4,0.9-2.4c0-1.9-1.5-2.5-2.6-2.5c-1.9,0-2.7,1.4-2.7,2.8v0.8h-1.4v-0.8
					c0-1.1-0.7-2.4-2.3-2.4c-1.1,0-2.1,0.6-2.1,1.9c0,0.9,0.5,1.7,0.9,2.2l-1.3,0.4c-0.5-0.6-1-1.7-1-2.8c0-2.1,1.6-3.1,3.2-3.1
					c1.4,0,2.6,0.7,3.2,2h0c0.3-1.3,1.6-2.4,3.5-2.4c2.2,0,4.1,1.4,4.1,4c0,1.2-0.5,2.3-0.9,2.8L172.3,571.2z"/>
			</g>
			<g>
				<path class="st67" d="M167.5,408c4.6,0,7.2,1.4,7.2,3.8c0,2.1-2.5,3.6-7,3.6c-4.6,0-7.1-1.6-7.1-3.8
					C160.6,409.3,163.1,408,167.5,408z M167.7,413.9c3.5,0,5.5-0.9,5.5-2.2c0-1.5-2.2-2.2-5.7-2.2c-3.3,0-5.5,0.7-5.5,2.2
					C162,412.9,164,413.9,167.7,413.9z"/>
			</g>
			<g>
				<path class="st67" d="M820,683.2c0-0.3,0-0.6-0.1-1.1c-0.1-0.8-0.6-1.5-1.3-2.1c-0.8-0.7-2-1.1-3.6-1.3v0
					c0.9,0.5,1.5,1.3,1.5,2.3c0,1.8-1.8,2.9-4.2,2.9c-2.6,0-4.8-1.4-4.8-3.4s2.3-3.3,5.7-3.3c3,0,5.1,0.7,6.4,1.7
					c1,0.8,1.7,1.8,1.8,2.9c0.1,0.5,0.1,0.9,0.1,1.2H820z M812.2,682.7c1.7,0,2.9-0.7,2.9-1.9c0-0.9-0.6-1.6-1.4-1.9
					c-0.2-0.1-0.4-0.1-0.7-0.1c-2.3,0-4.1,0.6-4.1,2C808.9,681.9,810.3,682.7,812.2,682.7z"/>
				<path class="st67" d="M820.2,676.1c-0.8,0-1.3-0.4-1.3-0.9s0.5-0.9,1.3-0.9c0.8,0,1.3,0.3,1.3,0.9
					C821.5,675.7,821,676.1,820.2,676.1z"/>
				<path class="st67" d="M821.3,668.9h-3.7v4.6h-1.2l-8.7-4.4v-1.4h8.5v-1.4h1.4v1.4h3.7V668.9z M816.2,668.9h-4.5
					c-0.7,0-1.4,0-2.1,0v0c0.8,0.3,1.4,0.5,2,0.8l4.6,2.4h0V668.9z"/>
				<path class="st67" d="M817.9,665.4c-1.7,0-2.9-0.7-3.6-2l-0.1,0c-0.7,1.1-1.9,1.6-3.1,1.6c-2.2,0-3.6-1.3-3.6-3.1
					c0-1.9,1.7-2.9,3.3-2.9c1.2,0,2.4,0.4,3.2,1.6h0.1c0.7-1.2,1.9-2,3.5-2c2.4,0,4,1.5,4,3.4C821.5,664.1,819.8,665.4,817.9,665.4z
					 M811,663.7c1.4,0,2.1-0.7,2.5-1.9c-0.4-0.9-1.2-1.5-2.5-1.5c-1.1,0-2.2,0.5-2.2,1.7C808.8,663.1,809.8,663.7,811,663.7z
					 M817.8,660c-1.7,0-2.4,0.8-3,2.2c0.5,1.2,1.5,1.8,2.8,1.8c1.4,0,2.6-0.7,2.6-2C820.2,660.8,819.2,660,817.8,660z"/>
			</g>
			<g>
				<path class="st67" d="M850.4,645.9h-1.1l-1.4-1.2c-3.3-2.8-5.1-4-7.1-4.1c-1.4,0-2.7,0.5-2.7,2.2c0,1,0.6,1.8,1.2,2.3l-1.3,0.5
					c-0.8-0.8-1.4-1.8-1.4-3.1c0-2.3,2-3.3,4-3.3c2.5,0,4.5,1.5,7.3,3.7l1,0.9h0v-4.9h1.5V645.9z"/>
				<path class="st67" d="M850.4,632.7h-3.7v5.1h-1.2l-8.7-4.9v-1.6h8.5v-1.5h1.4v1.5h3.7V632.7z M845.2,632.7h-4.5
					c-0.7,0-1.4,0-2.1,0v0c0.8,0.3,1.4,0.6,2,0.9l4.6,2.7h0V632.7z"/>
			</g>
			<g>
				<path class="st67" d="M875.6,390.5L875.6,390.5l1.3,1.9l-1.4,0.3l-1.6-2.4v-1.3h13.6v1.4H875.6z"/>
				<path class="st67" d="M885.4,384.7c0.3-0.4,0.9-1.4,0.9-2.4c0-1.9-1.5-2.5-2.6-2.5c-1.9,0-2.7,1.4-2.7,2.8v0.8h-1.4v-0.8
					c0-1.1-0.7-2.4-2.3-2.4c-1.1,0-2.1,0.6-2.1,1.9c0,0.9,0.5,1.7,0.9,2.2l-1.3,0.4c-0.5-0.6-1-1.7-1-2.8c0-2.1,1.6-3.1,3.2-3.1
					c1.4,0,2.6,0.7,3.2,2h0c0.3-1.3,1.6-2.4,3.5-2.4c2.2,0,4.1,1.4,4.1,4c0,1.2-0.5,2.3-0.9,2.8L885.4,384.7z"/>
				<path class="st67" d="M884.1,376.6c-1.7,0-2.9-0.8-3.6-2.2l-0.1,0c-0.7,1.2-1.9,1.7-3.1,1.7c-2.2,0-3.6-1.5-3.6-3.4
					c0-2.1,1.7-3.2,3.3-3.2c1.2,0,2.4,0.5,3.2,1.8h0.1c0.7-1.4,1.9-2.2,3.5-2.2c2.4,0,4,1.6,4,3.7
					C887.8,375.3,886.1,376.6,884.1,376.6z M877.2,374.8c1.4,0,2.1-0.8,2.5-2.1c-0.4-0.9-1.2-1.7-2.5-1.7c-1.1,0-2.2,0.5-2.2,1.8
					C875,374.2,876,374.8,877.2,374.8z M884,370.8c-1.7,0-2.4,0.9-3,2.4c0.5,1.3,1.5,2,2.8,2c1.4,0.1,2.6-0.8,2.6-2.2
					C886.4,371.6,885.4,370.8,884,370.8z"/>
			</g>
			<g>
				<path class="st67" d="M810.6,183h-3.7v5.1h-1.2l-8.7-4.9v-1.6h8.5v-1.5h1.4v1.5h3.7V183z M805.4,183h-4.5c-0.7,0-1.4,0-2.1-0.1
					v0.1c0.8,0.3,1.4,0.6,2,0.9l4.6,2.7h0V183z"/>
				<path class="st67" d="M808.4,178.6c0.3-0.4,0.9-1.4,0.9-2.4c0-1.9-1.5-2.5-2.6-2.5c-1.9,0-2.7,1.4-2.7,2.8v0.8h-1.4v-0.8
					c0-1.1-0.7-2.4-2.3-2.4c-1.1,0-2.1,0.6-2.1,1.9c0,0.9,0.5,1.7,0.9,2.2l-1.3,0.4c-0.5-0.6-1-1.7-1-2.8c0-2.1,1.6-3.1,3.2-3.1
					c1.4,0,2.6,0.7,3.2,2h0c0.3-1.3,1.6-2.4,3.5-2.4c2.2,0,4.1,1.4,4.1,4c0,1.2-0.5,2.3-0.9,2.8L808.4,178.6z"/>
			</g>
			<g>
				<path class="st67" d="M682.8,126.5L682.8,126.5l1.3,1.6l-1.4,0.2l-1.6-2v-1.1h13.6v1.2H682.8z"/>
				<path class="st67" d="M687.7,115.9c4.6,0,7.2,1.2,7.2,3.2c0,1.8-2.5,3-7,3c-4.6,0-7.1-1.3-7.1-3.2
					C680.8,117,683.4,115.9,687.7,115.9z M687.9,120.9c3.5,0,5.5-0.7,5.5-1.9c0-1.3-2.2-1.9-5.7-1.9c-3.3,0-5.5,0.6-5.5,1.9
					C682.2,120.1,684.2,120.9,687.9,120.9z"/>
				<path class="st67" d="M693.6,114.6c-0.8,0-1.3-0.4-1.3-0.9c0-0.5,0.5-0.8,1.3-0.8c0.8,0,1.3,0.3,1.3,0.9
					C694.9,114.3,694.3,114.6,693.6,114.6z"/>
				<path class="st67" d="M681.1,105.8h1.2l12.4,4v1.3l-12-4h0v4.5h-1.5V105.8z"/>
			</g>
			<g>
				<path class="st67" d="M682.8,101.8L682.8,101.8l1.3,1.6l-1.4,0.2l-1.6-2v-1.1h13.6v1.2H682.8z"/>
			</g>
			<g>
				<path class="st67" d="M579.6,226.4c-0.1-0.7-0.2-1.8-0.1-2.8c0.1-1.6,0.5-2.5,1.4-3.2c0.7-0.5,1.6-0.8,2.7-0.7
					c1.9,0.1,3,1.1,3.5,2.4l0.1,0c0.4-0.8,1.5-1.3,2.9-1.5c2-0.2,3.4-0.4,3.9-0.6l-0.1,1.5c-0.4,0.2-1.6,0.3-3.4,0.5
					c-2,0.2-2.7,0.8-2.9,2.1l-0.1,1.4l6.1,0.4l-0.1,1.5L579.6,226.4z M586.1,225.3l0.1-1.5c0.1-1.6-0.9-2.6-2.5-2.7
					c-1.8-0.1-2.7,0.9-2.8,2.4c0,0.7,0,1.2,0.1,1.4L586.1,225.3z"/>
			</g>
			<g>
				<path class="st67" d="M594.6,210.7l-3.7-0.2l-0.3,5l-1.2-0.1L581,210l0.1-1.6l8.4,0.5l0.1-1.5l1.4,0.1l-0.1,1.5l3.7,0.2
					L594.6,210.7z M589.4,210.4l-4.5-0.3c-0.7,0-1.4-0.1-2.1-0.2l0,0.1c0.8,0.4,1.3,0.7,1.9,1l4.4,3l0,0L589.4,210.4z"/>
			</g>
			<g>
				<path class="st67" d="M588.4,199.1c4.6,0.3,7.1,1.8,6.9,4.2c-0.1,2.1-2.7,3.4-7.2,3.1c-4.6-0.3-7-2-6.8-4.2
					C581.4,199.9,584,198.8,588.4,199.1z M588.2,205c3.5,0.2,5.6-0.5,5.7-1.8c0.1-1.5-2-2.4-5.5-2.6c-3.3-0.2-5.6,0.3-5.7,1.8
					C582.6,203.7,584.5,204.7,588.2,205z"/>
			</g>
			<g>
				<path class="st67" d="M588.9,190.5c4.6,0.3,7.1,1.8,6.9,4.2c-0.1,2.1-2.7,3.4-7.2,3.1c-4.6-0.3-7-2-6.8-4.2
					C582,191.4,584.6,190.2,588.9,190.5z M588.7,196.4c3.5,0.2,5.6-0.5,5.7-1.8c0.1-1.5-2-2.4-5.5-2.6c-3.3-0.2-5.6,0.3-5.7,1.8
					C583.1,195.1,585,196.2,588.7,196.4z"/>
			</g>
			<g>
				<path class="st67" d="M115.2,562.7c0,0.3,0,0.7,0.1,1.1c0.5,2.3,2.6,3.5,4.8,3.8v-0.1c-0.9-0.5-1.6-1.4-1.6-2.6
					c0-1.9,1.7-3.3,4.4-3.3c2.5,0,4.8,1.4,4.8,3.6c0,2.3-2.3,3.8-5.8,3.8c-2.7,0-4.8-0.8-6.1-1.8c-1.1-0.9-1.8-2.1-2-3.5
					c-0.1-0.4-0.1-0.8-0.1-1.1H115.2z M123.1,563.1c-1.9,0-3.1,0.9-3.1,2.2c0,0.9,0.7,1.7,1.7,2.1c0.2,0.1,0.5,0.2,0.8,0.2
					c2.2,0,3.9-0.9,3.9-2.4C126.3,563.9,125,563.1,123.1,563.1z"/>
				<path class="st67" d="M124.1,560.4c-1.7,0-2.9-0.8-3.6-2.2l-0.1,0c-0.7,1.2-1.9,1.7-3.1,1.7c-2.2,0-3.6-1.5-3.6-3.4
					c0-2.1,1.7-3.2,3.3-3.2c1.2,0,2.4,0.5,3.2,1.8h0.1c0.7-1.4,1.9-2.2,3.5-2.2c2.4,0,4,1.6,4,3.7
					C127.7,559.1,126.1,560.4,124.1,560.4z M117.2,558.6c1.4,0,2.1-0.8,2.5-2.1c-0.4-0.9-1.2-1.7-2.5-1.7c-1.1,0-2.2,0.5-2.2,1.8
					C115,558,116,558.6,117.2,558.6z M124,554.6c-1.7,0-2.4,0.9-3,2.4c0.5,1.3,1.5,2,2.8,2c1.4,0.1,2.6-0.8,2.6-2.2
					C126.4,555.4,125.4,554.6,124,554.6z"/>
				<path class="st67" d="M126.4,551.6c-0.8,0-1.3-0.4-1.3-1s0.5-1,1.3-1c0.8,0,1.3,0.4,1.3,1C127.7,551.2,127.2,551.6,126.4,551.6z
					"/>
				<path class="st67" d="M115.2,542c0,0.3,0,0.7,0.1,1.1c0.5,2.3,2.6,3.5,4.8,3.8v-0.1c-0.9-0.5-1.6-1.4-1.6-2.6
					c0-1.9,1.7-3.3,4.4-3.3c2.5,0,4.8,1.4,4.8,3.6c0,2.3-2.3,3.8-5.8,3.8c-2.7,0-4.8-0.8-6.1-1.8c-1.1-0.9-1.8-2.1-2-3.5
					c-0.1-0.4-0.1-0.8-0.1-1.1H115.2z M123.1,542.4c-1.9,0-3.1,0.9-3.1,2.2c0,0.9,0.7,1.7,1.7,2.1c0.2,0.1,0.5,0.2,0.8,0.2
					c2.2,0,3.9-0.9,3.9-2.4C126.3,543.3,125,542.4,123.1,542.4z"/>
				<path class="st67" d="M115.2,533.4c0,0.3,0,0.7,0.1,1.1c0.5,2.3,2.6,3.5,4.8,3.8v-0.1c-0.9-0.5-1.6-1.4-1.6-2.6
					c0-1.9,1.7-3.3,4.4-3.3c2.5,0,4.8,1.4,4.8,3.6c0,2.3-2.3,3.8-5.8,3.8c-2.7,0-4.8-0.8-6.1-1.8c-1.1-0.9-1.8-2.1-2-3.5
					c-0.1-0.4-0.1-0.8-0.1-1.1H115.2z M123.1,533.9c-1.9,0-3.1,0.9-3.1,2.2c0,0.9,0.7,1.7,1.7,2.1c0.2,0.1,0.5,0.2,0.8,0.2
					c2.2,0,3.9-0.9,3.9-2.4C126.3,534.7,125,533.9,123.1,533.9z"/>
			</g>
			<g>
				<path class="st67" d="M257,655.8c0.6,0.5,1.3,1.3,1.9,2.1c0.9,1.2,1.2,2.3,1,3.3c-0.2,0.8-0.7,1.7-1.6,2.3
					c-1.5,1.1-3,1.1-4.2,0.4l-0.1,0c0.2,0.9-0.3,1.9-1.3,3c-1.4,1.5-2.3,2.5-2.6,3l-0.9-1.2c0.2-0.4,1-1.3,2.3-2.6
					c1.4-1.4,1.6-2.4,0.8-3.5l-0.8-1.1l-4.9,3.7l-0.9-1.2L257,655.8z M252.7,660.8l0.9,1.2c0.9,1.2,2.4,1.4,3.7,0.4
					c1.5-1.1,1.5-2.4,0.6-3.7c-0.4-0.6-0.8-0.9-1-1.1L252.7,660.8z"/>
			</g>
			<g>
				<path class="st67" d="M254.9,672.8c0,0.5,0.1,1.6,0.8,2.4c1.1,1.5,2.7,1.1,3.6,0.4c1.5-1.2,1.4-2.7,0.5-3.9l-0.5-0.7l1.1-0.8
					l0.5,0.7c0.6,0.9,2,1.5,3.3,0.6c0.9-0.7,1.3-1.7,0.5-2.8c-0.5-0.7-1.4-1.1-2-1.2l0.8-1.1c0.8,0.1,1.8,0.7,2.5,1.7
					c1.3,1.7,0.6,3.4-0.7,4.4c-1.1,0.8-2.5,1-3.8,0.3l0,0c0.5,1.3,0.2,2.9-1.4,4c-1.7,1.3-4.1,1.4-5.6-0.7c-0.7-1-1-2.1-1-2.8
					L254.9,672.8z"/>
			</g>
			<g>
				<path class="st67" d="M426.4,613.3L426.4,613.3l-1.8,1.5l-0.4-1.4l2.2-1.8l1.2-0.1l1.4,13.5l-1.4,0.1L426.4,613.3z"/>
				<path class="st67" d="M432.3,616.2c-0.1-0.8,0.3-1.4,0.9-1.4c0.6-0.1,1,0.4,1.1,1.2c0.1,0.7-0.3,1.3-0.9,1.4
					C432.8,617.4,432.3,616.9,432.3,616.2z M433,623.5c-0.1-0.8,0.3-1.4,0.9-1.4c0.6-0.1,1,0.4,1.1,1.2c0.1,0.7-0.3,1.3-0.9,1.4
					C433.6,624.8,433.1,624.2,433,623.5z"/>
				<path class="st67" d="M438.4,612.1L438.4,612.1l-1.8,1.5l-0.4-1.4l2.2-1.8l1.2-0.1l1.4,13.5l-1.4,0.1L438.4,612.1z"/>
				<path class="st67" d="M447,611.2L447,611.2l-1.8,1.5l-0.4-1.4l2.2-1.8l1.2-0.1l1.4,13.5l-1.4,0.1L447,611.2z"/>
				<path class="st67" d="M453.6,621.4c-0.1-0.8,0.3-1.4,0.9-1.4c0.6-0.1,1,0.4,1.1,1.2c0.1,0.8-0.2,1.4-0.9,1.4
					C454.1,622.6,453.6,622.1,453.6,621.4z"/>
				<path class="st67" d="M457.1,620c0.5,0.3,1.5,0.7,2.5,0.6c1.9-0.2,2.3-1.8,2.2-2.9c-0.2-1.9-1.7-2.6-3.1-2.4l-0.8,0.1l-0.1-1.4
					l0.8-0.1c1.1-0.1,2.3-0.9,2.2-2.5c-0.1-1.1-0.8-2-2.1-1.8c-0.9,0.1-1.6,0.7-2.1,1.1l-0.5-1.3c0.5-0.6,1.6-1.2,2.7-1.3
					c2.1-0.2,3.3,1.3,3.4,2.9c0.1,1.4-0.4,2.7-1.7,3.4l0,0c1.4,0.2,2.6,1.3,2.8,3.2c0.2,2.2-0.9,4.2-3.5,4.5
					c-1.2,0.1-2.3-0.2-2.9-0.6L457.1,620z"/>
				<path class="st67" d="M465.6,621.2l-0.1-1.1l1-1.5c2.4-3.6,3.5-5.5,3.3-7.5c-0.1-1.4-0.8-2.6-2.4-2.4c-1,0.1-1.7,0.8-2.2,1.4
					l-0.6-1.2c0.7-0.9,1.7-1.6,2.9-1.7c2.3-0.2,3.5,1.7,3.7,3.6c0.3,2.5-1,4.7-3,7.7l-0.8,1.1l0,0l4.9-0.5l0.2,1.5L465.6,621.2z"/>
			</g>
			<g>
				<path class="st67" d="M129.7,382.9l-1.4-3.1c-0.6-1.2-1-2-1.3-2.8h0c-0.3,0.8-0.6,1.6-1.2,2.8l-1.4,3.1h-1.7l3.4-7.1l-3.3-7h1.7
					l1.5,3.3c0.4,0.9,0.7,1.6,1,2.4h0c0.3-0.8,0.6-1.5,1-2.4l1.5-3.3h1.7l-3.4,6.9l3.5,7.2H129.7z"/>
			</g>
			<g>
				<path class="st67" d="M622.1,382.3l-1.4-3.1c-0.6-1.2-1-2-1.3-2.8h0c-0.3,0.8-0.6,1.6-1.2,2.8l-1.4,3.1h-1.7l3.4-7.1l-3.3-7h1.7
					l1.5,3.3c0.4,0.9,0.7,1.6,1,2.4h0c0.3-0.8,0.6-1.5,1-2.4l1.5-3.3h1.7l-3.4,6.9l3.5,7.2H622.1z"/>
			</g>
			<g>
				<path class="st67" d="M609.7,113.3c0.6-0.2,1.4-0.3,2.2-0.3c1.2,0,2,0.4,2.5,1.2c0.4,0.6,0.7,1.6,0.7,2.7c0,1.9-0.7,3.1-1.7,3.6
					v0.1c0.7,0.4,1.1,1.4,1.3,2.8c0.3,2,0.5,3.3,0.7,3.9h-1.2c-0.1-0.4-0.3-1.6-0.6-3.4c-0.3-1.9-0.7-2.7-1.8-2.7h-1.1v6.1h-1.1
					V113.3z M610.8,119.7h1.2c1.2,0,2-1.1,2-2.7c0-1.8-0.8-2.6-2-2.6c-0.5,0-0.9,0.1-1.1,0.2V119.7z"/>
				<path class="st67" d="M621.5,115.3L621.5,115.3l-1.5,1.3l-0.2-1.4l1.8-1.6h1v13.6h-1.1V115.3z"/>
				<path class="st67" d="M631.3,120.3c0,4.6-1.1,7.2-2.9,7.2c-1.7,0-2.8-2.5-2.8-7c0-4.6,1.2-7.1,2.9-7.1
					C630.3,113.4,631.3,115.9,631.3,120.3z M626.8,120.5c0,3.5,0.7,5.5,1.7,5.5c1.2,0,1.7-2.2,1.7-5.7c0-3.3-0.5-5.5-1.7-5.5
					C627.5,114.8,626.8,116.8,626.8,120.5z"/>
			</g>
			<g>
				<path class="st67" d="M360.2,195c0.5-0.6,1.3-1.3,2.1-1.9c1.2-0.9,2.3-1.2,3.3-1c0.8,0.2,1.7,0.7,2.3,1.6c1.1,1.5,1.1,3,0.4,4.2
					l0,0.1c0.9-0.2,1.9,0.3,3,1.3c1.5,1.4,2.5,2.3,3,2.6l-1.2,0.9c-0.4-0.2-1.3-1-2.6-2.3c-1.4-1.4-2.3-1.6-3.4-0.9l-1.1,0.8
					l3.6,4.9l-1.2,0.9L360.2,195z M365.2,199.3l1.2-0.9c1.3-0.9,1.4-2.4,0.4-3.7c-1.1-1.5-2.4-1.5-3.7-0.6c-0.6,0.4-0.9,0.8-1.1,1
					L365.2,199.3z"/>
			</g>
			<g>
				<path class="st67" d="M378.1,199l-0.7-0.9l0.1-1.8c0.3-4.3,0.2-6.5-1-8.1c-0.8-1.1-2-1.8-3.3-0.8c-0.8,0.6-1.1,1.6-1.2,2.3
					l-1.1-0.8c0.1-1.1,0.6-2.2,1.6-2.9c1.9-1.4,3.9-0.4,5,1.2c1.5,2,1.5,4.5,1.3,8.1l-0.1,1.3l0,0l3.9-2.9l0.9,1.2L378.1,199z"/>
			</g>
			<g>
				<path class="st67" d="M407.6,221L407.6,221l-2.2,0.5l0.2-1.4l2.8-0.7l1.2,0.4l-4.7,12.8l-1.3-0.5L407.6,221z"/>
			</g>
			<g>
				<path class="st67" d="M409,233c0.3-0.7,0.8-1.1,1.4-0.9c0.6,0.2,0.7,0.8,0.5,1.6c-0.3,0.7-0.8,1.1-1.4,0.9
					C408.9,234.4,408.7,233.7,409,233z M411.5,226.1c0.3-0.7,0.8-1.1,1.4-0.9c0.6,0.2,0.7,0.8,0.5,1.6c-0.3,0.7-0.8,1.1-1.4,0.9
					C411.5,227.5,411.3,226.8,411.5,226.1z"/>
				<path class="st67" d="M412.8,233.3c0.3,0.5,1,1.3,2,1.6c1.8,0.6,2.8-0.6,3.2-1.6c0.6-1.8-0.4-3-1.7-3.5l-0.8-0.3l0.5-1.3
					l0.8,0.3c1,0.4,2.5,0.2,3.1-1.3c0.4-1,0.2-2.1-1.1-2.6c-0.8-0.3-1.8-0.1-2.4,0.1l0.1-1.4c0.7-0.3,1.9-0.4,3,0
					c2,0.7,2.4,2.6,1.8,4.1c-0.5,1.3-1.5,2.2-3,2.3l0,0c1.1,0.8,1.7,2.3,1.1,4.1c-0.7,2-2.7,3.4-5.1,2.5c-1.1-0.4-2-1.2-2.3-1.8
					L412.8,233.3z"/>
			</g>
			<g>
				<path class="st67" d="M503.7,3.2c-0.3,0-0.7,0-1.1,0.1c-2.3,0.5-3.5,2.6-3.8,4.8h0.1c0.5-0.9,1.4-1.6,2.6-1.6
					c1.9,0,3.3,1.7,3.3,4.4c0,2.5-1.4,4.8-3.6,4.8c-2.3,0-3.8-2.3-3.8-5.8c0-2.7,0.8-4.8,1.8-6.1c0.9-1.1,2.1-1.8,3.5-2
					c0.4-0.1,0.8-0.1,1.1-0.1V3.2z M503.3,11c0-1.9-0.9-3.1-2.2-3.1c-0.9,0-1.7,0.7-2.1,1.7c-0.1,0.2-0.2,0.5-0.2,0.8
					c0,2.2,0.9,3.9,2.4,3.9C502.4,14.3,503.3,13,503.3,11z"/>
				<path class="st67" d="M513.2,1.9v1.2l-4.7,12.4h-1.5l4.7-12v0h-5.3V1.9H513.2z"/>
			</g>
			<g>
				<path class="st67" d="M481.7,40.8v-3.7h-5.1v-1.2l4.9-8.7h1.6v8.5h1.5v1.4h-1.5v3.7H481.7z M481.7,35.6v-4.5c0-0.7,0-1.4,0-2.1
					h0c-0.3,0.8-0.6,1.4-0.9,2l-2.7,4.6v0H481.7z"/>
				<path class="st67" d="M485.6,37.3c0-1.7,0.8-2.9,2.2-3.6l0-0.1c-1.2-0.7-1.7-1.9-1.7-3.1c0-2.2,1.5-3.6,3.4-3.6
					c2.1,0,3.2,1.7,3.2,3.3c0,1.2-0.5,2.4-1.8,3.2v0.1c1.4,0.7,2.2,1.9,2.2,3.5c0,2.4-1.6,4-3.7,4C487,41,485.6,39.3,485.6,37.3z
					 M491.5,37.3c0-1.7-0.9-2.4-2.4-3c-1.3,0.5-2,1.5-2,2.8c-0.1,1.4,0.8,2.6,2.2,2.6C490.6,39.7,491.5,38.7,491.5,37.3z
					 M487.4,30.5c0,1.4,0.8,2.1,2.1,2.5c0.9-0.4,1.7-1.2,1.7-2.5c0-1.1-0.5-2.2-1.8-2.2C488.1,28.3,487.4,29.3,487.4,30.5z"/>
				<path class="st67" d="M494.5,39.7c0-0.8,0.4-1.3,1-1.3s1,0.5,1,1.3c0,0.8-0.4,1.3-1,1.3C494.9,41,494.5,40.5,494.5,39.7z"/>
				<path class="st67" d="M497.8,40.8v-1.1l1.2-1.4c2.8-3.3,4-5.1,4.1-7.1c0-1.4-0.5-2.7-2.2-2.7c-1,0-1.8,0.6-2.3,1.2l-0.5-1.3
					c0.8-0.8,1.8-1.4,3.1-1.4c2.3,0,3.3,2,3.3,4c0,2.5-1.5,4.5-3.7,7.3l-0.9,1v0h4.9v1.5H497.8z"/>
				<path class="st67" d="M513.6,33.8c0,4.6-1.4,7.2-3.8,7.2c-2.1,0-3.6-2.5-3.6-7c0-4.6,1.6-7.1,3.8-7.1
					C512.3,27,513.6,29.5,513.6,33.8z M507.7,34.1c0,3.5,0.9,5.5,2.2,5.5c1.5,0,2.2-2.2,2.2-5.7c0-3.3-0.7-5.5-2.2-5.5
					C508.7,28.4,507.7,30.3,507.7,34.1z"/>
				<path class="st67" d="M521.5,28.7h-4.2l-0.4,3.5c0.3,0,0.5-0.1,0.9-0.1c0.8,0,1.7,0.2,2.3,0.7c0.9,0.6,1.6,1.8,1.6,3.5
					c0,2.7-1.7,4.6-4.1,4.6c-1.2,0-2.2-0.4-2.7-0.8l0.4-1.4c0.5,0.3,1.3,0.8,2.3,0.8c1.4,0,2.6-1.1,2.6-3c0-1.8-1-3-3.1-3
					c-0.6,0-1.1,0.1-1.5,0.1l0.7-6.5h5.2V28.7z"/>
			</g>
			<g>
				<path class="st67" d="M510.1,717.5v-6l-3.6-8.1h1.7l1.6,3.9c0.4,1.1,0.8,1.9,1.1,2.9h0c0.3-0.9,0.7-1.8,1.1-2.9l1.6-3.9h1.7
					l-3.8,8.1v6H510.1z"/>
			</g>
			<g>
				<path class="st67" d="M510.1,70.6v-6l-3.6-8.1h1.7l1.6,3.9c0.4,1.1,0.8,1.9,1.1,2.9h0c0.3-0.9,0.7-1.8,1.1-2.9l1.6-3.9h1.7
					l-3.8,8.1v6H510.1z"/>
			</g>
		</g>
	</g>
</g>
<g id="Watermark">
	<g>
		<rect x="438.5" y="143.8" class="st0" width="123.1" height="46.3"/>
		<g>
			<rect x="444.9" y="151.7" class="st106" width="62.9" height="30.6"/>
			<rect x="507.7" y="151.7" class="st106" width="47.4" height="30.6"/>
			<g>
				<path class="st107" d="M466.5,157.8l-2.8,18.9H461l-1.6-11l-1.5,11h-2.7l-2.8-18.9h2.5l1.8,14.2l1.8-14.2h2l1.8,14.2l1.8-14.2
					H466.5z"/>
				<path class="st107" d="M467.9,176.7v-18.9h2.5v18.9H467.9z"/>
				<path class="st107" d="M472.8,157.8h5c1.9,0,2.9,1.1,2.9,3.2v4.7c0,1.7-0.5,2.7-1.5,3.1l1.8,7.9h-2.4l-1.7-7.6h-1.5v7.6h-2.5
					V157.8z M475.4,166.9h1.7c0.8,0,1.1-0.5,1.1-1.4v-4.1c0-0.9-0.4-1.4-1.1-1.4h-1.7V166.9z"/>
				<path class="st107" d="M486.8,160.1v16.6h-2.5v-16.6h-2.4v-2.3h7.4v2.3H486.8z"/>
				<path class="st107" d="M496.3,176.7v-8.6h-3.1v8.6h-2.5v-18.9h2.5v8h3.1v-8h2.5v18.9H496.3z"/>
			</g>
			<g>
				<path class="st107" d="M516.3,157.8h5c1.9,0,2.9,1.1,2.9,3.2v4.7c0,1.7-0.5,2.7-1.5,3.1l1.8,7.9H522l-1.7-7.6h-1.5v7.6h-2.5
					V157.8z M518.8,166.9h1.7c0.8,0,1.1-0.5,1.1-1.4v-4.1c0-0.9-0.4-1.4-1.1-1.4h-1.7V166.9z"/>
				<path class="st107" d="M528.7,176.7h-2.5V161c0-2.2,1-3.2,3-3.2h1.9c2,0,3,1.1,3,3.2v15.7h-2.5v-6.9h-2.9V176.7z M531.6,167.5
					v-6.3c0-0.7-0.4-1.1-1.1-1.1h-0.7c-0.7,0-1.1,0.4-1.1,1.1v6.3H531.6z"/>
				<path class="st107" d="M536.3,176.7v-18.9h2.5v18.9H536.3z"/>
				<path class="st107" d="M547.2,176.7h-6v-18.9h2.5v16.6h3.5V176.7z"/>
			</g>
		</g>
	</g>
</g>
</svg>
