<?xml version="1.0" encoding="utf-8"?>
<!-- Generator: Adobe Illustrator 25.2.3, SVG Export Plug-In . SVG Version: 6.00 Build 0)  -->
<svg version="1.1" xmlns="http://www.w3.org/2000/svg" xmlns:xlink="http://www.w3.org/1999/xlink" x="0px" y="0px"
	 viewBox="0 0 1000 800" style="enable-background:new 0 0 1000 800;" xml:space="preserve">
<style type="text/css">
	.st0{fill:#F0F0F0;}
	.st1{fill:none;stroke:#221E1F;stroke-width:1.2032;}
	.st2{fill:none;stroke:#221E1F;stroke-width:1.0736;}
	.st3{fill:none;stroke:#221E1F;stroke-width:1.2032;stroke-miterlimit:10;}
	.st4{fill:none;stroke:#221E1F;stroke-width:1.0736;stroke-linecap:round;stroke-linejoin:round;stroke-miterlimit:10;}
	.st5{fill:none;stroke:#221E1F;stroke-width:1.0736;stroke-miterlimit:10;}
	.st6{fill:#303030;}
	.st7{fill:none;stroke:#221E1F;stroke-width:1.2032;stroke-linecap:round;stroke-linejoin:round;}
	.st8{fill:#221E1F;}
	.st9{fill:none;stroke:#221E1F;stroke-width:1.2032;stroke-dasharray:15.0983,4.5412;}
	.st10{fill:none;stroke:#221E1F;stroke-width:1.327;}
	.st11{fill:none;stroke:#221E1F;stroke-width:1.327;stroke-miterlimit:10;}
	.st12{fill:none;stroke:#221E1F;stroke-width:1.5312;stroke-miterlimit:10;}
	.st13{fill:none;stroke:#221E1F;stroke-width:1.327;stroke-linecap:round;stroke-linejoin:round;}
	.st14{fill:none;stroke:#221E1F;stroke-width:1.327;stroke-dasharray:16.5574,4.9134;}
	.st15{fill:none;stroke:#221E1F;stroke-width:1.1875;stroke-linecap:round;stroke-linejoin:round;}
	.st16{fill:none;stroke:#221E1F;stroke-width:1.1875;stroke-miterlimit:10;}
	.st17{fill:none;stroke:#221E1F;stroke-width:1.0882;}
	.st18{fill:none;stroke:#221E1F;stroke-width:1.0882;stroke-miterlimit:10;}
	.st19{fill:none;stroke:#221E1F;stroke-width:1.01;stroke-linecap:round;stroke-linejoin:round;stroke-miterlimit:10;}
	.st20{fill:none;stroke:#221E1F;stroke-width:1.0268;stroke-linecap:round;stroke-linejoin:round;stroke-miterlimit:10;}
	.st21{fill:none;stroke:#221E1F;stroke-width:1.0268;}
	.st22{fill:none;stroke:#221E1F;stroke-width:1.0882;stroke-linecap:round;stroke-linejoin:round;stroke-miterlimit:10;}
	.st23{fill:none;stroke:#221E1F;stroke-width:1.0882;stroke-linecap:round;stroke-linejoin:round;}
	.st24{fill:none;stroke:#221E1F;stroke-width:1.0882;stroke-dasharray:13.6188,4.0709;}
	.st25{fill:none;stroke:#303030;stroke-width:1.0882;stroke-miterlimit:10;}
	.st26{fill:none;stroke:#303030;stroke-width:0.9459;stroke-miterlimit:10;}
	.st27{fill:none;stroke:#303030;stroke-width:0.625;stroke-miterlimit:10;}
	.st28{fill:none;stroke:#221E1F;stroke-width:1.2065;}
	.st29{fill:none;stroke:#221E1F;stroke-width:1.058;stroke-miterlimit:10;}
	.st30{fill:none;stroke:#221E1F;stroke-width:1.2065;stroke-miterlimit:10;}
	.st31{fill:none;stroke:#221E1F;stroke-width:1.2065;stroke-dasharray:15.1403,4.5538;}
	.st32{fill:none;stroke:#221E1F;stroke-width:1.2065;stroke-linecap:round;stroke-linejoin:round;}
	.st33{fill:none;stroke:#221E1F;stroke-width:1.0363;}
	.st34{fill:none;stroke:#221E1F;stroke-width:1.0363;stroke-miterlimit:10;}
	.st35{fill:none;stroke:#221E1F;stroke-width:1.0536;stroke-linecap:round;stroke-linejoin:round;stroke-miterlimit:10;}
	.st36{fill:none;stroke:#221E1F;stroke-width:1.0536;stroke-miterlimit:10;}
	.st37{fill:none;stroke:#221E1F;stroke-width:1.0363;stroke-linecap:round;stroke-linejoin:round;}
	.st38{fill:none;stroke:#221E1F;stroke-width:1.0363;stroke-dasharray:14.1142,4.2633;}
	.st39{fill:none;stroke:#221E1F;stroke-width:1.0394;}
	.st40{fill:none;stroke:#221E1F;stroke-width:1.1318;stroke-linecap:round;stroke-linejoin:round;stroke-miterlimit:10;}
	.st41{fill:none;stroke:#221E1F;stroke-width:1.0394;stroke-miterlimit:10;}
	.st42{fill:none;stroke:#221E1F;stroke-width:1.1318;stroke-miterlimit:10;}
	.st43{fill:none;stroke:#221E1F;stroke-width:1.0394;stroke-dasharray:14.096,4.2184;}
	.st44{fill:none;stroke:#221E1F;stroke-width:0.9644;stroke-linecap:round;stroke-linejoin:round;}
	.st45{fill:none;stroke:#221E1F;stroke-width:1.0394;stroke-linecap:round;stroke-linejoin:round;}
	.st46{fill:none;stroke:#221E1F;stroke-width:1.0394;stroke-dasharray:28.8705,8.4195;}
	.st47{fill:none;stroke:#221E1F;stroke-width:1.0394;stroke-dasharray:30.1958,9.7419;}
	.st48{fill:none;stroke:#221E1F;stroke-width:1.1834;}
	.st49{fill:none;stroke:#221E1F;stroke-width:1.1834;stroke-dasharray:22.2172,9.0331;}
	.st50{fill:none;stroke:#221E1F;stroke-width:1.1834;stroke-dasharray:22.205,9.024;}
	.st51{fill:none;stroke:#221E1F;stroke-width:1.1834;stroke-dasharray:22.2172,9.0362;}
	.st52{fill:none;stroke:#221E1F;stroke-width:1.1834;stroke-dasharray:22.205,9.021;}
	.st53{fill:none;stroke:#221E1F;stroke-width:1.1834;stroke-dasharray:14.8529,4.4695;}
	.st54{fill:none;stroke:#221E1F;stroke-width:1.1834;stroke-linecap:round;stroke-linejoin:round;}
	.st55{fill:none;stroke:#221E1F;stroke-width:0.9791;}
	.st56{fill:none;stroke:#221E1F;stroke-width:1.2076;}
	.st57{fill:none;stroke:#221E1F;stroke-width:1.2076;stroke-dasharray:17.3391,6.3726;}
	.st58{fill:none;stroke:#221E1F;stroke-width:1.2076;stroke-dasharray:17.3363,6.3726;}
	.st59{fill:none;stroke:#221E1F;stroke-width:0.9791;stroke-dasharray:17.5349,5.1568;}
	.st60{fill:none;stroke:#303030;stroke-width:0.9791;}
	.st61{fill:none;stroke:#221E1F;stroke-width:0.8976;stroke-linecap:round;stroke-linejoin:round;}
	.st62{fill:none;stroke:#241F21;stroke-width:0.9771;}
	
		.st63{fill:none;stroke:#241F21;stroke-width:0.9771;stroke-linecap:round;stroke-linejoin:round;stroke-miterlimit:1;stroke-dasharray:16.5466,16.5466;}
	
		.st64{fill:none;stroke:#241F21;stroke-width:0.9771;stroke-linecap:round;stroke-linejoin:round;stroke-miterlimit:1;stroke-dasharray:17.1257,17.1257;}
	
		.st65{fill:none;stroke:#241F21;stroke-width:0.9771;stroke-linecap:round;stroke-linejoin:round;stroke-miterlimit:1;stroke-dasharray:16.5967,16.5967;}
	.st66{fill:none;stroke:#241F21;stroke-width:0.9771;stroke-linecap:round;stroke-linejoin:round;stroke-miterlimit:1;}
	.st67{fill:#241F21;}
	.st68{fill:none;stroke:#241F21;stroke-width:0.7626;stroke-linecap:round;stroke-linejoin:round;stroke-miterlimit:1;}
	.st69{fill:none;stroke:#221E1F;stroke-width:1.2516;}
	.st70{fill:none;stroke:#221E1F;stroke-width:1.2516;stroke-miterlimit:10;}
	.st71{fill:none;stroke:#221E1F;stroke-width:0.6258;}
	.st72{fill:none;stroke:#221E1F;stroke-width:0.6258;stroke-dasharray:18.3883,4.6234;}
	.st73{fill:none;stroke:#221E1F;stroke-width:0.6258;stroke-dasharray:21.5524,17.6199;}
	.st74{fill:none;stroke:#221E1F;stroke-width:0.6258;stroke-dasharray:20.1706,6.4056;}
	.st75{fill:none;stroke:#221E1F;stroke-width:0.9654;}
	.st76{fill:none;stroke:#303030;stroke-width:0.9654;}
	.st77{fill:none;stroke:#303030;stroke-width:0.9017;}
	.st78{fill:none;stroke:#303030;stroke-width:0.9654;stroke-dasharray:14.0607,4.2416;}
	.st79{fill:none;stroke:#303030;stroke-width:0.9654;stroke-dasharray:13.938,4.1189;}
	.st80{fill:none;stroke:#303030;stroke-width:0.9654;stroke-dasharray:14.3912,4.5697;}
	.st81{fill:none;stroke:#303030;stroke-width:0.9654;stroke-dasharray:14.7358,4.9143;}
	.st82{fill:none;stroke:#221E1F;stroke-width:0.9654;stroke-dasharray:15.4321,4.6901;}
	.st83{fill:none;stroke:#221E1F;stroke-width:0.9654;stroke-linecap:round;stroke-linejoin:round;}
	.st84{fill:none;stroke:#303030;stroke-width:0.8686;stroke-miterlimit:10;}
	.st85{fill:none;stroke:#303030;stroke-width:0.9654;stroke-miterlimit:10;}
	.st86{fill:none;stroke:#221E1F;stroke-width:2.6151;}
	.st87{fill:none;stroke:#221E1F;stroke-width:1.816;}
	.st88{fill:none;stroke:#221E1F;stroke-width:1.816;stroke-dasharray:21.5996,5.873;}
	.st89{fill:none;stroke:#221E1F;stroke-width:1.816;stroke-dasharray:21.596,5.8693;}
	.st90{fill:none;stroke:#221E1F;stroke-width:1.816;stroke-dasharray:45.6036,34.3698;}
	.st91{fill:none;stroke:#221E1F;stroke-width:1.816;stroke-dasharray:45.5927,34.3589;}
	.st92{fill:none;stroke:#221E1F;stroke-width:1.816;stroke-dasharray:21.596,5.873;}
	.st93{fill:none;stroke:#221E1F;stroke-width:2.158;}
	.st94{fill:none;stroke:#221E1F;stroke-width:1.4986;}
	.st95{fill:none;stroke:#221E1F;stroke-width:1.4986;stroke-dasharray:19.9046,5.413;}
	.st96{fill:none;stroke:#221E1F;stroke-width:1.4986;stroke-dasharray:19.9016,5.41;}
	.st97{fill:none;stroke:#221E1F;stroke-width:1.4986;stroke-dasharray:35.6909,25.3385;}
	.st98{fill:none;stroke:#221E1F;stroke-width:0.8673;}
	.st99{fill:none;stroke:#303030;stroke-width:0.9125;stroke-miterlimit:10;}
	.st100{fill:none;stroke:#303030;stroke-width:8.808669e-02;stroke-linecap:round;stroke-linejoin:round;stroke-miterlimit:10;}
	.st101{fill:none;stroke:#303030;stroke-width:0.8786;stroke-miterlimit:10;}
	.st102{fill:none;stroke:#303030;stroke-width:0.8786;}
	.st103{fill:none;stroke:#221E1F;stroke-width:0.9125;}
	.st104{fill:none;stroke:#221E1F;stroke-width:0.9125;stroke-dasharray:15.7291,4.7273;}
	.st105{fill:none;stroke:#221E1F;stroke-width:0.9125;stroke-linecap:round;stroke-linejoin:round;}
	.st106{fill:#F0F0F0;stroke:#CCCCCC;stroke-miterlimit:10;}
	.st107{fill:#CCCCCC;}
</style>
<g id="Flat">
	<g>
		<polygon class="st0" points="260.3,704.8 740.3,704.8 740.3,696.5 739.8,691.1 738.2,685.8 735.8,681 732.5,676.7 728.3,673.1 
			723.6,670.4 718.4,668.6 560.7,629.5 552.2,626.4 544.4,621.9 537.4,615.9 531.9,608.7 527.8,600.7 525.2,591.9 524.3,582.8 
			524.3,261.9 525.2,252.9 527.8,244.2 531.9,236.1 537.4,229 544.4,222.9 552.2,218.3 560.7,215.4 598.4,206 603.5,204.2 
			608.3,201.5 612.4,197.9 615.8,193.6 618.3,188.7 619.8,183.4 620.3,178 620.3,139.8 619.2,128.9 616.3,118.5 611.3,108.7 
			604.4,100.2 596.2,93 586.8,87.5 576.5,83.9 565.7,82.3 500.2,80.5 434.9,82.3 424.1,83.9 413.8,87.5 404.3,93 396,100.2 
			389.3,108.7 384.3,118.5 381.4,128.9 380.3,139.8 380.3,178 380.8,183.4 382.3,188.7 384.8,193.6 388.2,197.9 392.3,201.5 
			397.1,204.2 402.2,206 439.9,215.4 448.4,218.3 456.2,222.9 463.2,229 468.7,236.1 472.8,244.2 475.4,252.9 476.3,261.9 
			476.3,582.8 475.4,591.9 472.8,600.7 468.7,608.7 463.2,615.9 456.2,621.9 448.4,626.4 439.9,629.5 282.2,668.6 277,670.4 
			272.3,673.1 268.1,676.7 264.8,681 262.2,685.8 260.8,691.1 260.3,696.5 		"/>
		<polygon class="st10" points="260.3,704.8 740.3,704.8 740.3,696.5 739.8,691.1 738.2,685.8 735.8,681 732.5,676.7 728.3,673.1 
			723.6,670.4 718.4,668.6 560.7,629.5 552.2,626.4 544.4,621.9 537.4,615.9 531.9,608.7 527.8,600.7 525.2,591.9 524.3,582.8 
			524.3,261.9 525.2,252.9 527.8,244.2 531.9,236.1 537.4,229 544.4,222.9 552.2,218.3 560.7,215.4 598.4,206 603.5,204.2 
			608.3,201.5 612.4,197.9 615.8,193.6 618.3,188.7 619.8,183.4 620.3,178 620.3,139.8 619.2,128.9 616.3,118.5 611.3,108.7 
			604.4,100.2 596.2,93 586.8,87.5 576.5,83.9 565.7,82.3 500.2,80.5 434.9,82.3 424.1,83.9 413.8,87.5 404.3,93 396,100.2 
			389.3,108.7 384.3,118.5 381.4,128.9 380.3,139.8 380.3,178 380.8,183.4 382.3,188.7 384.8,193.6 388.2,197.9 392.3,201.5 
			397.1,204.2 402.2,206 439.9,215.4 448.4,218.3 456.2,222.9 463.2,229 468.7,236.1 472.8,244.2 475.4,252.9 476.3,261.9 
			476.3,582.8 475.4,591.9 472.8,600.7 468.7,608.7 463.2,615.9 456.2,621.9 448.4,626.4 439.9,629.5 282.2,668.6 277,670.4 
			272.3,673.1 268.1,676.7 264.8,681 262.2,685.8 260.8,691.1 260.3,696.5 		"/>
		<path class="st11" d="M506.3,614.4l318.2,0 M260.3,703.5l0,86.5 M740.3,705.6l0,84.5 M380.3,133.8l0-110.6 M620.3,133.8l0-108.3
			 M506.3,80.5l379.8,0 M733.4,704.8l154,0 M499.7,200.6l167.1,0 M499.3,230.4l268.5,0"/>
		<line class="st12" x1="726.4" y1="672.2" x2="777.7" y2="672.2"/>
		<g>
			<path class="st6" d="M634.9,155.3L634.9,155.3l1.3,2.5l-1.5,0.4l-1.7-3.1v-1.7h14.4v1.9H634.9z"/>
			<path class="st6" d="M647.5,148.2h-1.2l-1.5-1.5c-3.5-3.7-5.4-5.3-7.5-5.4c-1.5,0-2.8,0.7-2.8,2.9c0,1.3,0.7,2.4,1.2,3.1
				l-1.4,0.6c-0.8-1-1.5-2.4-1.5-4.1c0-3.1,2.1-4.4,4.2-4.4c2.7,0,4.8,1.9,7.7,5l1.1,1.1h0V139h1.6V148.2z"/>
			<path class="st6" d="M646.3,136.7c-0.8,0-1.4-0.6-1.4-1.3c0-0.8,0.6-1.3,1.4-1.3c0.8,0,1.4,0.5,1.4,1.3
				C647.7,136.1,647.1,136.7,646.3,136.7z"/>
		</g>
		<g>
			<path class="st6" d="M634.8,123.6v5.5l3.7,0.6c0-0.3-0.1-0.6-0.1-1.2c0-1.1,0.2-2.2,0.8-3.1c0.6-1.1,1.9-2.1,3.7-2.1
				c2.8,0,4.9,2.2,4.9,5.4c0,1.6-0.4,2.9-0.9,3.6l-1.5-0.5c0.4-0.6,0.8-1.8,0.8-3.1c0-1.8-1.2-3.4-3.1-3.4c-1.9,0-3.2,1.3-3.2,4.1
				c0,0.8,0.1,1.5,0.2,2l-6.9-0.9v-6.9H634.8z"/>
		</g>
		<g>
			<path class="st6" d="M732.2,167.8L732.2,167.8l1.3,2.5l-1.5,0.4l-1.7-3.1v-1.7h14.4v1.9H732.2z"/>
			<path class="st6" d="M732,152.1v5.5l3.7,0.6c0-0.3-0.1-0.6-0.1-1.2c0-1.1,0.2-2.2,0.8-3.1c0.6-1.1,1.9-2.1,3.7-2.1
				c2.8,0,4.9,2.2,4.9,5.4c0,1.6-0.4,2.9-0.9,3.6l-1.5-0.5c0.4-0.6,0.8-1.8,0.8-3.1c0-1.8-1.2-3.4-3.1-3.4c-1.9,0-3.2,1.3-3.2,4.1
				c0,0.8,0.1,1.5,0.2,2l-6.9-0.9v-6.9H732z"/>
			<path class="st6" d="M743.6,149.1c-0.8,0-1.4-0.6-1.4-1.3c0-0.8,0.6-1.3,1.4-1.3c0.8,0,1.4,0.5,1.4,1.3
				C745,148.6,744.4,149.1,743.6,149.1z"/>
		</g>
		<g>
			<path class="st6" d="M731.7,136.5c0,0.4,0,0.9,0.1,1.5c0.5,3.1,2.7,4.7,5.1,5v-0.1c-0.9-0.7-1.7-1.9-1.7-3.5
				c0-2.5,1.8-4.3,4.6-4.3c2.6,0,5.1,1.8,5.1,4.8c0,3.1-2.4,5.1-6.1,5.1c-2.8,0-5.1-1-6.5-2.4c-1.2-1.2-1.9-2.8-2.1-4.6
				c-0.1-0.6-0.1-1.1-0.1-1.4H731.7z M740,137c-2.1,0-3.3,1.2-3.3,3c0,1.2,0.7,2.3,1.8,2.8c0.2,0.1,0.5,0.2,0.9,0.2
				c2.4,0,4.1-1.1,4.1-3.2C743.5,138.2,742.1,137,740,137z"/>
		</g>
		<g>
			<path class="st6" d="M852.8,447c0,0.4,0,0.9,0.1,1.5c0.5,3.1,2.7,4.7,5.1,5v-0.1c-0.9-0.7-1.7-1.9-1.7-3.5c0-2.5,1.8-4.3,4.6-4.3
				c2.6,0,5.1,1.8,5.1,4.8c0,3.1-2.4,5.1-6.1,5.1c-2.8,0-5.1-1-6.5-2.4c-1.2-1.2-1.9-2.8-2.1-4.6c-0.1-0.6-0.1-1.1-0.1-1.4H852.8z
				 M861.1,447.6c-2.1,0-3.3,1.2-3.3,3c0,1.2,0.7,2.3,1.8,2.8c0.2,0.1,0.5,0.2,0.9,0.2c2.4,0,4.1-1.1,4.1-3.2
				C864.6,448.7,863.2,447.6,861.1,447.6z"/>
			<path class="st6" d="M853.1,435.3v5.5l3.7,0.6c0-0.3-0.1-0.6-0.1-1.2c0-1.1,0.2-2.2,0.8-3.1c0.6-1.1,1.9-2.1,3.7-2.1
				c2.8,0,4.9,2.2,4.9,5.4c0,1.6-0.4,2.9-0.9,3.6l-1.5-0.5c0.4-0.6,0.8-1.8,0.8-3.1c0-1.8-1.2-3.4-3.1-3.4c-1.9,0-3.2,1.3-3.2,4.1
				c0,0.8,0.1,1.5,0.2,2l-6.9-0.9v-6.9H853.1z"/>
			<path class="st6" d="M850.5,423c2.2,1.6,5,2.8,9,2.8c3.9,0,6.8-1.2,9-2.8v1.5c-1.8,1.4-4.7,2.9-9,2.9c-4.4,0-7.2-1.5-9-2.9V423z"
				/>
			<path class="st6" d="M865.8,421.5h-1.2l-1.5-1.5c-3.5-3.7-5.4-5.3-7.5-5.4c-1.5,0-2.8,0.7-2.8,2.9c0,1.3,0.7,2.4,1.2,3.1
				l-1.4,0.6c-0.8-1-1.5-2.4-1.5-4.1c0-3.1,2.1-4.4,4.2-4.4c2.7,0,4.8,1.9,7.7,5l1.1,1.1h0v-6.5h1.6V421.5z"/>
			<path class="st6" d="M864.7,410c-0.8,0-1.4-0.6-1.4-1.3c0-0.8,0.6-1.3,1.4-1.3c0.8,0,1.4,0.5,1.4,1.3
				C866.1,409.5,865.5,410,864.7,410z"/>
			<path class="st6" d="M853.1,397v5.5l3.7,0.6c0-0.3-0.1-0.6-0.1-1.2c0-1.1,0.2-2.2,0.8-3.1c0.6-1.1,1.9-2.1,3.7-2.1
				c2.8,0,4.9,2.2,4.9,5.4c0,1.6-0.4,2.9-0.9,3.6l-1.5-0.5c0.4-0.6,0.8-1.8,0.8-3.1c0-1.8-1.2-3.4-3.1-3.4c-1.9,0-3.2,1.3-3.2,4.1
				c0,0.8,0.1,1.5,0.2,2l-6.9-0.9V397H853.1z"/>
			<path class="st6" d="M852.8,386.1c0,0.4,0,0.9,0.1,1.5c0.5,3.1,2.7,4.7,5.1,5v-0.1c-0.9-0.7-1.7-1.9-1.7-3.5
				c0-2.5,1.8-4.3,4.6-4.3c2.6,0,5.1,1.8,5.1,4.8c0,3.1-2.4,5.1-6.1,5.1c-2.8,0-5.1-1-6.5-2.4c-1.2-1.2-1.9-2.8-2.1-4.6
				c-0.1-0.6-0.1-1.1-0.1-1.4H852.8z M861.1,386.6c-2.1,0-3.3,1.2-3.3,3c0,1.2,0.7,2.3,1.8,2.8c0.2,0.1,0.5,0.2,0.9,0.2
				c2.4,0,4.1-1.1,4.1-3.2C864.6,387.8,863.2,386.6,861.1,386.6z"/>
			<path class="st6" d="M858.5,373.4c4.9,0,7.6,1.8,7.6,5c0,2.8-2.6,4.7-7.4,4.8c-4.8,0-7.5-2.1-7.5-5
				C851.2,375.1,853.9,373.4,858.5,373.4z M858.7,381.2c3.7,0,5.9-1.1,5.9-2.9c0-2-2.3-2.9-6-2.9c-3.5,0-5.9,0.9-5.9,2.9
				C852.7,379.9,854.8,381.2,858.7,381.2z"/>
			<path class="st6" d="M850.7,366.2l5.3,0.4v1.2l-5.3,0.4V366.2z M850.7,369.5l5.3,0.4v1.2l-5.3,0.4V369.5z"/>
		</g>
		<g>
			<path class="st6" d="M868.5,364.6c-2.2-1.6-5.1-2.8-9-2.8c-4,0-6.8,1.2-9,2.8v-1.5c1.8-1.4,4.6-2.9,9-2.9c4.3,0,7.1,1.5,9,2.9
				V364.6z"/>
		</g>
		<line class="st13" x1="871.5" y1="687.9" x2="871.5" y2="98.3"/>
		<polygon class="st8" points="877,683.9 871.2,705.5 865.4,683.9 		"/>
		<polygon class="st8" points="877,102.3 871.2,80.7 865.4,102.3 		"/>
		<g>
			<path class="st6" d="M515,735.7v-6.3l-4.7-8.6h2.2l2.1,4.1c0.6,1.1,1,2,1.5,3.1h0c0.4-1,0.9-1.9,1.5-3.1l2.1-4.1h2.2l-5,8.6v6.3
				H515z"/>
		</g>
		<g>
			<path class="st6" d="M515,74.3V68l-4.7-8.6h2.2l2.1,4.1c0.6,1.1,1,2,1.5,3.1h0c0.4-1,0.9-1.9,1.5-3.1l2.1-4.1h2.2l-5,8.6v6.3H515
				z"/>
		</g>
		<line class="st14" x1="500.3" y1="735.7" x2="499.4" y2="53.5"/>
		<g>
			<path class="st6" d="M464.1,756.6h-5.5l-0.6,3.7c0.3,0,0.6-0.1,1.2-0.1c1.1,0,2.2,0.2,3.1,0.8c1.1,0.6,2.1,1.9,2.1,3.7
				c0,2.8-2.2,4.9-5.4,4.9c-1.6,0-2.9-0.4-3.6-0.9l0.5-1.5c0.6,0.4,1.8,0.8,3.1,0.8c1.8,0,3.4-1.2,3.4-3.1c0-1.9-1.3-3.2-4.1-3.2
				c-0.8,0-1.5,0.1-2,0.2l0.9-6.9h6.9V756.6z"/>
			<path class="st6" d="M476.4,762c0,4.9-1.8,7.6-5,7.6c-2.8,0-4.7-2.6-4.8-7.4c0-4.8,2.1-7.5,5-7.5
				C474.7,754.7,476.4,757.4,476.4,762z M468.6,762.2c0,3.7,1.1,5.9,2.9,5.9c2,0,2.9-2.3,2.9-6c0-3.5-0.9-5.9-2.9-5.9
				C469.9,756.2,468.6,758.3,468.6,762.2z"/>
			<path class="st6" d="M487.8,754c-1.6,2.2-2.8,5-2.8,9c0,3.9,1.2,6.8,2.8,9h-1.5c-1.4-1.8-2.9-4.7-2.9-9c0-4.4,1.5-7.2,2.9-9
				H487.8z"/>
			<path class="st6" d="M493.4,756.8L493.4,756.8l-2.5,1.3l-0.4-1.5l3.1-1.7h1.7v14.4h-1.9V756.8z"/>
			<path class="st6" d="M500.7,768.2c0-0.8,0.6-1.4,1.3-1.4s1.3,0.6,1.3,1.4c0,0.8-0.5,1.4-1.3,1.4
				C501.2,769.6,500.7,769,500.7,768.2z"/>
			<path class="st6" d="M506.3,768c0.4,0,0.9,0,1.6-0.1c1.1-0.2,2.2-0.6,3-1.4c1-0.9,1.6-2.1,1.9-3.8h-0.1c-0.8,1-1.9,1.5-3.4,1.5
				c-2.6,0-4.2-1.9-4.2-4.4c0-2.7,2-5.1,4.9-5.1s4.8,2.4,4.8,6.1c0,3.2-1.1,5.4-2.5,6.7c-1.1,1.1-2.6,1.7-4.2,1.9
				c-0.7,0.1-1.3,0.1-1.8,0.1V768z M507,759.7c0,1.8,1.1,3.1,2.8,3.1c1.3,0,2.3-0.6,2.8-1.5c0.1-0.2,0.2-0.4,0.2-0.7
				c0-2.5-0.9-4.3-2.9-4.3C508.1,756.2,507,757.7,507,759.7z"/>
			<path class="st6" d="M524.7,756.3c-0.4,0-0.9,0-1.5,0.1c-3.1,0.5-4.7,2.7-5,5.1h0.1c0.7-0.9,1.9-1.7,3.5-1.7
				c2.5,0,4.3,1.8,4.3,4.6c0,2.6-1.8,5.1-4.8,5.1c-3.1,0-5.1-2.4-5.1-6.1c0-2.8,1-5.1,2.4-6.5c1.2-1.2,2.8-1.9,4.6-2.1
				c0.6-0.1,1.1-0.1,1.4-0.1V756.3z M524.1,764.6c0-2.1-1.2-3.3-3-3.3c-1.2,0-2.3,0.7-2.8,1.8c-0.1,0.2-0.2,0.5-0.2,0.9
				c0,2.4,1.1,4.1,3.2,4.1C523,768.1,524.1,766.7,524.1,764.6z"/>
			<path class="st6" d="M529,768c0.4,0,0.9,0,1.6-0.1c1.1-0.2,2.2-0.6,3-1.4c1-0.9,1.6-2.1,1.9-3.8h-0.1c-0.8,1-1.9,1.5-3.4,1.5
				c-2.6,0-4.2-1.9-4.2-4.4c0-2.7,2-5.1,4.9-5.1s4.8,2.4,4.8,6.1c0,3.2-1.1,5.4-2.5,6.7c-1.1,1.1-2.6,1.7-4.2,1.9
				c-0.7,0.1-1.3,0.1-1.8,0.1V768z M529.7,759.7c0,1.8,1.1,3.1,2.8,3.1c1.3,0,2.3-0.6,2.8-1.5c0.1-0.2,0.2-0.4,0.2-0.7
				c0-2.5-0.9-4.3-2.9-4.3C530.8,756.2,529.7,757.7,529.7,759.7z"/>
			<path class="st6" d="M541.2,754.2l-0.4,5.3h-1.2l-0.4-5.3H541.2z M544.5,754.2l-0.4,5.3H543l-0.4-5.3H544.5z"/>
		</g>
		<g>
			<path class="st6" d="M546.2,772c1.6-2.2,2.8-5.1,2.8-9c0-4-1.2-6.8-2.8-9h1.5c1.4,1.8,2.9,4.6,2.9,9c0,4.3-1.5,7.1-2.9,9H546.2z"
				/>
		</g>
		<line class="st13" x1="278.7" y1="776.5" x2="722.7" y2="776.5"/>
		<polygon class="st8" points="282.7,782.1 261.1,776.3 282.7,770.5 		"/>
		<polygon class="st8" points="718.7,782.1 740.3,776.3 718.7,770.5 		"/>
		<g>
			<path class="st6" d="M455.5,25.5v-1.2l1.5-1.5c3.7-3.5,5.3-5.4,5.4-7.5c0-1.5-0.7-2.8-2.9-2.8c-1.3,0-2.4,0.7-3.1,1.2l-0.6-1.4
				c1-0.8,2.4-1.5,4.1-1.5c3.1,0,4.4,2.1,4.4,4.2c0,2.7-1.9,4.8-5,7.7l-1.1,1.1v0h6.5v1.6H455.5z"/>
			<path class="st6" d="M475.5,12.7H470l-0.6,3.7c0.3,0,0.6-0.1,1.2-0.1c1.1,0,2.2,0.2,3.1,0.8c1.1,0.6,2.1,1.9,2.1,3.7
				c0,2.8-2.2,4.9-5.4,4.9c-1.6,0-2.9-0.4-3.6-0.9l0.5-1.5c0.6,0.4,1.8,0.8,3.1,0.8c1.8,0,3.4-1.2,3.4-3.1c0-1.9-1.3-3.2-4.1-3.2
				c-0.8,0-1.5,0.1-2,0.2l0.9-6.9h6.9V12.7z"/>
			<path class="st6" d="M487.8,10.1c-1.6,2.2-2.8,5-2.8,9c0,3.9,1.2,6.8,2.8,9h-1.5c-1.4-1.8-2.9-4.7-2.9-9c0-4.4,1.5-7.2,2.9-9
				H487.8z"/>
			<path class="st6" d="M498.8,18.1c0,4.9-1.8,7.6-5,7.6c-2.8,0-4.7-2.6-4.8-7.4c0-4.8,2.1-7.5,5-7.5
				C497,10.9,498.8,13.6,498.8,18.1z M491,18.4c0,3.7,1.1,5.9,2.9,5.9c2,0,2.9-2.3,2.9-6c0-3.5-0.9-5.9-2.9-5.9
				C492.2,12.4,491,14.4,491,18.4z"/>
			<path class="st6" d="M500.7,24.3c0-0.8,0.6-1.4,1.3-1.4s1.3,0.6,1.3,1.4c0,0.8-0.5,1.4-1.3,1.4C501.2,25.7,500.7,25.1,500.7,24.3
				z"/>
			<path class="st6" d="M506.3,24.1c0.4,0,0.9,0,1.6-0.1c1.1-0.2,2.2-0.6,3-1.4c1-0.9,1.6-2.1,1.9-3.8h-0.1c-0.8,1-1.9,1.5-3.4,1.5
				c-2.6,0-4.2-1.9-4.2-4.4c0-2.7,2-5.1,4.9-5.1s4.8,2.4,4.8,6.1c0,3.2-1.1,5.4-2.5,6.7c-1.1,1.1-2.6,1.7-4.2,1.9
				c-0.7,0.1-1.3,0.1-1.8,0.1V24.1z M507,15.8c0,1.8,1.1,3.1,2.8,3.1c1.3,0,2.3-0.6,2.8-1.5c0.1-0.2,0.2-0.4,0.2-0.7
				c0-2.5-0.9-4.3-2.9-4.3C508.1,12.3,507,13.8,507,15.8z"/>
			<path class="st6" d="M516.3,21.8c0-1.8,1.1-3.1,2.9-3.8l0-0.1c-1.6-0.8-2.3-2-2.3-3.2c0-2.3,1.9-3.8,4.4-3.8
				c2.8,0,4.2,1.7,4.2,3.5c0,1.2-0.6,2.5-2.4,3.4v0.1c1.8,0.7,2.9,2,2.9,3.7c0,2.5-2.1,4.2-4.9,4.2
				C518.1,25.7,516.3,23.9,516.3,21.8z M524,21.7c0-1.7-1.2-2.6-3.2-3.1c-1.7,0.5-2.6,1.6-2.6,3c-0.1,1.5,1,2.7,2.9,2.7
				C522.9,24.3,524,23.2,524,21.7z M518.7,14.6c0,1.4,1.1,2.2,2.7,2.7c1.2-0.4,2.2-1.3,2.2-2.6c0-1.1-0.7-2.3-2.4-2.3
				C519.6,12.3,518.7,13.3,518.7,14.6z"/>
			<path class="st6" d="M533.8,25.5v-3.9h-6.7v-1.3l6.4-9.2h2.1V20h2v1.5h-2v3.9H533.8z M533.8,20v-4.8c0-0.8,0-1.5,0.1-2.3h-0.1
				c-0.4,0.8-0.8,1.5-1.2,2.1l-3.5,4.9v0H533.8z"/>
			<path class="st6" d="M541.2,10.3l-0.4,5.3h-1.2l-0.4-5.3H541.2z M544.5,10.3l-0.4,5.3H543l-0.4-5.3H544.5z"/>
		</g>
		<g>
			<path class="st6" d="M546.2,28.1c1.6-2.2,2.8-5.1,2.8-9c0-4-1.2-6.8-2.8-9h1.5c1.4,1.8,2.9,4.6,2.9,9c0,4.3-1.5,7.1-2.9,9H546.2z
				"/>
		</g>
		<line class="st13" x1="398.3" y1="32.7" x2="602.6" y2="32.7"/>
		<polygon class="st8" points="402.3,38.2 380.7,32.4 402.3,26.6 		"/>
		<polygon class="st8" points="598.7,38.2 620.3,32.4 598.7,26.6 		"/>
		<line class="st13" x1="653.7" y1="98.7" x2="653.7" y2="183.2"/>
		<polygon class="st8" points="648.1,102.6 653.9,81.1 659.7,102.6 		"/>
		<polygon class="st8" points="648.1,179.3 653.9,200.9 659.7,179.3 		"/>
		<line class="st13" x1="754" y1="98.7" x2="754" y2="212.8"/>
		<polygon class="st8" points="748.4,102.6 754.2,81.1 760,102.6 		"/>
		<polygon class="st8" points="748.4,208.8 754.2,230.4 760,208.8 		"/>
		<line class="st15" x1="492.1" y1="391.1" x2="508.5" y2="391.1"/>
		<polygon class="st8" points="495.6,396.1 476.3,390.9 495.6,385.7 		"/>
		<polygon class="st8" points="505,396.1 524.3,390.9 505,385.7 		"/>
		<line class="st10" x1="523.9" y1="391" x2="642.6" y2="391"/>
		<g>
			<path class="st6" d="M568.2,371.5l-5.5,0l-0.6,3.7c0.3,0,0.6-0.1,1.2-0.1c1.1,0,2.2,0.3,3.1,0.8c1.1,0.6,2,1.9,2,3.7
				c0,2.8-2.3,4.9-5.4,4.9c-1.6,0-2.9-0.5-3.6-0.9l0.5-1.5c0.6,0.4,1.8,0.8,3.1,0.8c1.8,0,3.4-1.2,3.4-3.1c0-1.9-1.2-3.2-4.1-3.2
				c-0.8,0-1.5,0.1-2,0.1l1-6.9l6.9,0L568.2,371.5z"/>
		</g>
		<g>
			<path class="st6" d="M580.5,368.9c-1.6,2.2-2.8,5-2.8,9c0,3.9,1.2,6.8,2.7,9l-1.5,0c-1.4-1.8-2.9-4.7-2.8-9c0-4.4,1.5-7.2,2.9-9
				L580.5,368.9z"/>
		</g>
		<g>
			<path class="st6" d="M591.4,377c0,4.9-1.9,7.6-5,7.6c-2.8,0-4.7-2.7-4.7-7.4c0-4.8,2.1-7.5,5-7.4
				C589.8,369.7,591.5,372.4,591.4,377z M583.6,377.2c0,3.7,1.1,5.9,2.9,5.9c2,0,3-2.3,3-6c0-3.5-0.9-5.9-2.9-5.9
				C584.9,371.2,583.7,373.3,583.6,377.2z"/>
		</g>
		<g>
			<path class="st6" d="M593.4,383.2c0-0.8,0.6-1.4,1.3-1.4c0.8,0,1.3,0.6,1.3,1.4c0,0.8-0.5,1.4-1.3,1.4
				C593.9,384.6,593.4,384,593.4,383.2z"/>
			<path class="st6" d="M597.8,384.4l0-1.2l1.5-1.5c3.7-3.5,5.4-5.3,5.4-7.5c0-1.5-0.7-2.8-2.8-2.8c-1.3,0-2.4,0.6-3.1,1.2l-0.6-1.4
				c1-0.8,2.4-1.4,4.1-1.4c3.1,0,4.4,2.1,4.4,4.2c0,2.7-2,4.8-5,7.7l-1.2,1.1l0,0l6.5,0l0,1.6L597.8,384.4z"/>
		</g>
		<g>
			<path class="st6" d="M618.8,377.2c0,4.9-1.9,7.6-5,7.6c-2.8,0-4.7-2.7-4.7-7.4c0-4.8,2.1-7.5,5-7.4
				C617.1,369.9,618.8,372.6,618.8,377.2z M611,377.3c0,3.7,1.1,5.9,2.9,5.9c2,0,3-2.3,3-6c0-3.5-0.9-5.9-2.9-5.9
				C612.2,371.4,611,373.4,611,377.3z"/>
		</g>
		<g>
			<path class="st6" d="M622.7,369.4l-0.4,5.3l-1.2,0l-0.3-5.3L622.7,369.4z M626,369.4l-0.4,5.3l-1.2,0l-0.3-5.3L626,369.4z"/>
			<path class="st6" d="M627.4,387.2c1.6-2.2,2.8-5,2.8-9c0-4-1.2-6.8-2.7-9l1.5,0c1.4,1.8,2.9,4.7,2.8,9c0,4.3-1.5,7.1-2.9,9
				L627.4,387.2z"/>
		</g>
		<g>
			<path class="st6" d="M374,282c0.6-0.8,1.7-1.7,2.7-2.6c1.6-1.3,2.9-1.8,4.1-1.7c1,0,2,0.6,2.7,1.5c1.2,1.5,1.1,3.3,0.2,4.7l0,0.1
				c1.1-0.4,2.3,0,3.6,1c1.7,1.3,2.9,2.2,3.5,2.5l-1.6,1.2c-0.5-0.2-1.5-1-3-2.2c-1.6-1.3-2.7-1.4-4.1-0.4l-1.4,1.1l4,5l-1.5,1.2
				L374,282z M379.7,286.1l1.5-1.2c1.6-1.3,1.9-3,0.9-4.3c-1.2-1.5-2.8-1.3-4.4,0c-0.7,0.6-1.2,1.1-1.4,1.3L379.7,286.1z"/>
		</g>
		<g>
			<path class="st6" d="M390.6,271.1l-4.3,3.4l1.9,3.2c0.2-0.2,0.4-0.5,0.9-0.8c0.9-0.7,1.9-1.2,2.9-1.3c1.3-0.2,2.8,0.2,3.9,1.6
				c1.8,2.2,1.3,5.2-1.1,7.2c-1.2,1-2.5,1.5-3.3,1.6l-0.5-1.5c0.7-0.1,1.9-0.5,2.9-1.3c1.4-1.1,1.9-3.1,0.7-4.6
				c-1.2-1.4-3-1.7-5.2,0.1c-0.6,0.5-1.1,1-1.5,1.4l-3.6-6l5.4-4.3L390.6,271.1z"/>
		</g>
		<line class="st10" x1="384.9" y1="301.4" x2="455" y2="241.7"/>
		<polygon class="st8" points="455.5,247.1 465.6,232.4 449.5,240.1 		"/>
		<g>
			<path class="st6" d="M293.1,241.4c0.6-0.8,1.7-1.7,2.7-2.6c1.6-1.3,2.9-1.8,4.1-1.7c1,0,2,0.6,2.7,1.5c1.2,1.5,1.1,3.3,0.2,4.7
				l0,0.1c1.1-0.4,2.3,0,3.6,1c1.7,1.3,2.9,2.2,3.5,2.5l-1.6,1.2c-0.5-0.2-1.5-1-3-2.2c-1.6-1.3-2.7-1.4-4.1-0.4l-1.4,1.1l4,5
				l-1.5,1.2L293.1,241.4z M298.8,245.5l1.5-1.2c1.6-1.3,1.9-3,0.9-4.3c-1.2-1.5-2.8-1.3-4.4,0c-0.7,0.6-1.2,1.1-1.4,1.3
				L298.8,245.5z"/>
		</g>
		<g>
			<path class="st6" d="M310,243.9c0.7-0.1,2-0.4,3.1-1.3c1.9-1.6,1.6-3.3,0.8-4.2c-1.3-1.6-3.2-1.1-4.7,0.1l-0.8,0.7l-0.9-1.1
				l0.8-0.7c1.1-0.9,2-2.6,1-3.9c-0.7-0.9-1.9-1.2-3.3-0.1c-0.9,0.7-1.4,1.8-1.6,2.5l-1.3-0.8c0.2-0.9,1-2.2,2.2-3.2
				c2.2-1.8,4.3-1.3,5.4,0.1c0.9,1.2,1,2.7,0,4.3l0,0c1.6-0.8,3.6-0.7,4.8,0.9c1.4,1.8,1.3,4.5-1.4,6.6c-1.3,1-2.7,1.5-3.5,1.6
				L310,243.9z"/>
		</g>
		<line class="st10" x1="304" y1="260.8" x2="374.2" y2="201.2"/>
		<polygon class="st8" points="374.6,206.6 384.8,191.9 368.6,199.5 		"/>
		<g>
			<path class="st6" d="M409.9,527.5c0.8,0.6,1.7,1.7,2.6,2.7c1.3,1.6,1.8,2.9,1.7,4.1c0,1-0.6,2-1.5,2.7c-1.5,1.2-3.3,1.1-4.7,0.2
				l-0.1,0c0.4,1.1,0,2.3-1,3.6c-1.3,1.7-2.2,2.9-2.5,3.5l-1.2-1.6c0.2-0.5,1-1.5,2.2-3c1.3-1.6,1.4-2.7,0.4-4.1l-1.1-1.4l-5,4
				l-1.2-1.5L409.9,527.5z M405.8,533.2l1.2,1.5c1.3,1.6,3,1.9,4.3,0.9c1.5-1.2,1.3-2.8,0-4.4c-0.6-0.7-1.1-1.2-1.3-1.4L405.8,533.2
				z"/>
		</g>
		<g>
			<path class="st6" d="M420.7,544.1l-3.4-4.3l-3.2,1.9c0.2,0.2,0.5,0.4,0.8,0.9c0.7,0.9,1.2,1.9,1.3,2.9c0.2,1.3-0.2,2.8-1.6,3.9
				c-2.2,1.8-5.2,1.3-7.2-1.1c-1-1.2-1.5-2.5-1.6-3.3l1.5-0.5c0.1,0.7,0.5,1.9,1.3,2.9c1.1,1.4,3.1,1.9,4.6,0.7
				c1.4-1.2,1.7-3-0.1-5.2c-0.5-0.6-1-1.1-1.4-1.5l6-3.6l4.3,5.4L420.7,544.1z"/>
		</g>
		<line class="st10" x1="390.5" y1="538.4" x2="450.2" y2="608.5"/>
		<polygon class="st8" points="444.7,609 459.5,619.2 451.8,603 		"/>
		<g>
			<path class="st6" d="M217.9,585.3c0.8,0.6,1.7,1.7,2.6,2.7c1.3,1.6,1.8,2.9,1.7,4.1c0,1-0.6,2-1.5,2.7c-1.5,1.2-3.3,1.1-4.7,0.2
				l-0.1,0c0.4,1.1,0,2.3-1,3.6c-1.3,1.7-2.2,2.9-2.5,3.5l-1.2-1.6c0.2-0.5,1-1.5,2.2-3c1.3-1.6,1.4-2.7,0.4-4.1l-1.1-1.4l-5,4
				l-1.2-1.5L217.9,585.3z M213.8,591l1.2,1.5c1.3,1.6,3,1.9,4.3,0.9c1.5-1.2,1.3-2.8,0-4.4c-0.6-0.7-1.1-1.2-1.3-1.4L213.8,591z"/>
		</g>
		<g>
			<path class="st6" d="M215.4,602.2c0.1,0.7,0.4,2,1.3,3.1c1.6,1.9,3.3,1.6,4.2,0.8c1.6-1.3,1.1-3.2-0.1-4.7l-0.7-0.8l1.1-0.9
				l0.7,0.8c0.9,1.1,2.6,2,3.9,1c0.9-0.7,1.2-1.9,0.1-3.3c-0.7-0.9-1.8-1.4-2.5-1.6l0.8-1.3c0.9,0.2,2.2,1,3.2,2.2
				c1.8,2.2,1.3,4.3-0.1,5.4c-1.2,0.9-2.7,1-4.3,0l0,0c0.8,1.6,0.7,3.6-0.9,4.8c-1.8,1.4-4.5,1.3-6.6-1.4c-1-1.3-1.5-2.7-1.6-3.5
				L215.4,602.2z"/>
		</g>
		<line class="st10" x1="198.5" y1="596.2" x2="258.1" y2="666.4"/>
		<polygon class="st8" points="252.7,666.8 267.4,677 259.8,660.8 		"/>
		<g>
			<path class="st6" d="M767.2,701.1c0.4-0.6,0.9-1.8,0.9-3.2c0-2.5-1.6-3.3-2.8-3.2c-2,0-2.9,1.8-2.9,3.7v1.1H761v-1.1
				c0-1.4-0.7-3.2-2.4-3.2c-1.1,0-2.2,0.7-2.2,2.5c0,1.1,0.5,2.3,1,2.9l-1.4,0.5c-0.6-0.8-1.1-2.2-1.1-3.8c0-2.8,1.7-4.1,3.4-4.1
				c1.5,0,2.7,0.9,3.4,2.7h0c0.4-1.8,1.7-3.2,3.7-3.2c2.3,0,4.3,1.8,4.3,5.2c0,1.6-0.5,3-1,3.7L767.2,701.1z"/>
			<path class="st6" d="M768.3,690c-0.8,0-1.4-0.6-1.4-1.3c0-0.8,0.6-1.3,1.4-1.3c0.8,0,1.4,0.5,1.4,1.3
				C769.7,689.5,769.1,690,768.3,690z"/>
		</g>
		<g>
			<path class="st6" d="M769.4,685.6h-1.2l-1.5-1.5c-3.5-3.7-5.4-5.3-7.5-5.4c-1.5,0-2.8,0.7-2.8,2.9c0,1.3,0.7,2.4,1.2,3.1
				l-1.4,0.6c-0.8-1-1.5-2.4-1.5-4.1c0-3.1,2.1-4.4,4.2-4.4c2.7,0,4.8,1.9,7.7,5l1.1,1.1h0v-6.5h1.6V685.6z"/>
		</g>
		<line class="st10" x1="770.4" y1="646.6" x2="770.4" y2="660.4"/>
		<polygon class="st8" points="766.5,657.8 770.4,672.2 774.2,657.8 		"/>
		<line class="st10" x1="770.4" y1="729.3" x2="770.4" y2="716.8"/>
		<polygon class="st8" points="774.2,719.5 770.4,705.1 766.5,719.5 		"/>
		<g>
			<path class="st6" d="M807,670c0-0.4,0-0.9-0.1-1.6c-0.2-1.1-0.6-2.2-1.4-3c-0.9-1-2.1-1.6-3.8-1.9v0.1c1,0.8,1.5,1.9,1.5,3.4
				c0,2.6-1.9,4.2-4.4,4.2c-2.7,0-5.1-2-5.1-4.9c0-2.9,2.4-4.8,6.1-4.8c3.2,0,5.4,1.1,6.7,2.5c1.1,1.1,1.7,2.6,1.9,4.2
				c0.1,0.7,0.1,1.3,0.1,1.8H807z M798.8,669.3c1.8,0,3.1-1.1,3.1-2.8c0-1.3-0.6-2.3-1.5-2.8c-0.2-0.1-0.4-0.2-0.7-0.2
				c-2.5,0-4.3,0.9-4.3,2.9C795.3,668.1,796.7,669.3,798.8,669.3z"/>
			<path class="st6" d="M807.3,659.7c-0.8,0-1.4-0.6-1.4-1.3c0-0.8,0.6-1.3,1.4-1.3c0.8,0,1.4,0.5,1.4,1.3
				C808.7,659.1,808.1,659.7,807.3,659.7z"/>
		</g>
		<g>
			<path class="st6" d="M808.4,649.2h-3.9v6.7h-1.3l-9.2-6.4v-2.1h8.9v-2h1.5v2h3.9V649.2z M803,649.2h-4.8c-0.8,0-1.5,0-2.3-0.1
				v0.1c0.8,0.4,1.5,0.8,2.1,1.2l4.9,3.5h0V649.2z"/>
		</g>
		<line class="st16" x1="814.8" y1="688.5" x2="814.8" y2="630.8"/>
		<polygon class="st8" points="819.8,685 814.6,704.3 809.4,685 		"/>
		<polygon class="st8" points="819.8,634.4 814.6,615.1 809.4,634.4 		"/>
		<g>
			<path class="st6" d="M467.5,149.8c0.8,0.6,1.7,1.7,2.6,2.7c1.3,1.6,1.8,2.9,1.7,4.1c0,1-0.6,2-1.5,2.7c-1.5,1.2-3.3,1.1-4.7,0.2
				l-0.1,0c0.4,1.1,0,2.3-1,3.6c-1.3,1.7-2.2,2.9-2.5,3.5l-1.2-1.6c0.2-0.5,1-1.5,2.2-3c1.3-1.6,1.4-2.7,0.4-4.1l-1.1-1.4l-5,4
				l-1.2-1.5L467.5,149.8z M463.4,155.6l1.2,1.5c1.3,1.6,3,1.9,4.3,0.9c1.5-1.2,1.3-2.8,0-4.4c-0.6-0.7-1.1-1.2-1.3-1.4L463.4,155.6
				z"/>
		</g>
		<g>
			<path class="st6" d="M478.4,166c-0.2-0.3-0.6-0.7-1-1.1c-2.3-2.1-5.1-1.9-7.1-0.7l0,0.1c1.1,0,2.5,0.4,3.5,1.7
				c1.6,2,1.3,4.5-0.9,6.3c-2.1,1.6-5.1,1.8-6.9-0.6c-1.9-2.4-1.3-5.5,1.6-7.8c2.2-1.8,4.6-2.4,6.6-2.2c1.7,0.2,3.2,1,4.5,2.3
				c0.4,0.4,0.7,0.8,1,1L478.4,166z M471.5,170.8c1.6-1.3,1.8-3,0.7-4.4c-0.7-0.9-2-1.3-3.1-1.1c-0.3,0-0.5,0.1-0.8,0.4
				c-1.8,1.5-2.5,3.5-1.2,5C468.1,172.1,469.9,172.1,471.5,170.8z"/>
		</g>
		<line class="st10" x1="465.2" y1="180.6" x2="405.6" y2="110.5"/>
		<polygon class="st8" points="411,110 396.3,99.8 403.9,116 		"/>
	</g>
</g>
<g id="Watermark">
	<g>
		<rect x="438.5" y="641.1" class="st0" width="123.1" height="46.3"/>
		<g>
			<rect x="444.9" y="648.9" class="st106" width="62.9" height="30.6"/>
			<rect x="507.7" y="648.9" class="st106" width="47.4" height="30.6"/>
			<g>
				<path class="st107" d="M466.5,655l-2.8,18.9H461l-1.6-11l-1.5,11h-2.7l-2.8-18.9h2.5l1.8,14.2l1.8-14.2h2l1.8,14.2L464,655
					H466.5z"/>
				<path class="st107" d="M467.9,673.9V655h2.5v18.9H467.9z"/>
				<path class="st107" d="M472.8,655h5c1.9,0,2.9,1.1,2.9,3.2v4.7c0,1.7-0.5,2.7-1.5,3.1l1.8,7.9h-2.4l-1.7-7.6h-1.5v7.6h-2.5V655z
					 M475.4,664.1h1.7c0.8,0,1.1-0.5,1.1-1.4v-4.1c0-0.9-0.4-1.4-1.1-1.4h-1.7V664.1z"/>
				<path class="st107" d="M486.8,657.3v16.6h-2.5v-16.6h-2.4V655h7.4v2.3H486.8z"/>
				<path class="st107" d="M496.3,673.9v-8.6h-3.1v8.6h-2.5V655h2.5v8h3.1v-8h2.5v18.9H496.3z"/>
			</g>
			<g>
				<path class="st107" d="M516.3,655h5c1.9,0,2.9,1.1,2.9,3.2v4.7c0,1.7-0.5,2.7-1.5,3.1l1.8,7.9H522l-1.7-7.6h-1.5v7.6h-2.5V655z
					 M518.8,664.1h1.7c0.8,0,1.1-0.5,1.1-1.4v-4.1c0-0.9-0.4-1.4-1.1-1.4h-1.7V664.1z"/>
				<path class="st107" d="M528.7,673.9h-2.5v-15.7c0-2.2,1-3.2,3-3.2h1.9c2,0,3,1.1,3,3.2v15.7h-2.5V667h-2.9V673.9z M531.6,664.7
					v-6.3c0-0.7-0.4-1.1-1.1-1.1h-0.7c-0.7,0-1.1,0.4-1.1,1.1v6.3H531.6z"/>
				<path class="st107" d="M536.3,673.9V655h2.5v18.9H536.3z"/>
				<path class="st107" d="M547.2,673.9h-6V655h2.5v16.6h3.5V673.9z"/>
			</g>
		</g>
	</g>
</g>
</svg>
