<svg xmlns="http://www.w3.org/2000/svg" xmlns:xlink="http://www.w3.org/1999/xlink" viewBox="0 0 1000 800"><defs><style>.cls-1,.cls-3,.cls-4{fill:none;}.cls-2,.cls-7{fill:#f0f0f0;}.cls-3,.cls-4{stroke:#241f21;}.cls-3,.cls-7{stroke-miterlimit:10;}.cls-3{stroke-width:1.45px;}.cls-4{stroke-width:0.72px;}.cls-5{fill:#241f21;}.cls-6{clip-path:url(#clip-path);}.cls-7{stroke:#ccc;}.cls-8{fill:#ccc;}</style><clipPath id="clip-path"><rect class="cls-1" x="171.62" y="-3.44" width="762.75" height="800.97"/></clipPath></defs><g id="Flat"><path class="cls-2" d="M500.49,84.84h-222c-15,0-12,15.33-12,44.52,0,24.17,15.46,28.35,27.36,31.37s67.87,17.06,106.25,26.66,47.61,43.9,47.56,60.07c-.09,25.24.41,135.22.23,168.1s-26.33,51-37.7,54.24S293.85,499.66,288,501.26s-21.15,7.82-21.68,29.33,0,108-.23,133.15c-.14,15.46,12.29,27.56,25.49,28.58,25.2,2,29.11,2,68.37,4.27s80.67,2.66,140.55,3.2h.2c59.9-.54,101.31-.89,140.59-3.2s43.19-2.31,68.4-4.27c13.21-1,25.64-13.12,25.5-28.58-.23-25.1.3-111.65-.23-133.15s-15.82-27.73-21.69-29.33S602.4,473,591,469.8s-37.53-21.36-37.71-54.24.31-142.86.23-168.1c0-16.17,9.19-50.47,47.57-60.07s94.38-23.64,106.29-26.66,27.37-7.2,27.37-31.37c0-29.19,3.06-44.52-12-44.52H500.49Z"/><path class="cls-3" d="M500.49,84.84h-222c-15,0-12,15.33-12,44.52,0,24.17,15.46,28.35,27.36,31.37s67.87,17.06,106.25,26.66,47.61,43.9,47.56,60.07c-.09,25.24.41,135.22.23,168.1s-26.33,51-37.7,54.24S293.85,499.66,288,501.26s-21.15,7.82-21.68,29.33,0,108-.23,133.15c-.14,15.46,12.29,27.56,25.49,28.58,25.2,2,29.11,2,68.37,4.27s80.67,2.66,140.55,3.2h.2c59.9-.54,101.31-.89,140.59-3.2s43.19-2.31,68.4-4.27c13.21-1,25.64-13.12,25.5-28.58-.23-25.1.3-111.65-.23-133.15s-15.82-27.73-21.69-29.33S602.4,473,591,469.8s-37.53-21.36-37.71-54.24.31-142.86.23-168.1c0-16.17,9.19-50.47,47.57-60.07s94.38-23.64,106.29-26.66,27.37-7.2,27.37-31.37c0-29.19,3.06-44.52-12-44.52H500.49Z"/><path class="cls-4" d="M265.53,20.62V153.44l234.6,59.25,234.61-59.25V20.62M285.49,789.84H715.37"/><polygon class="cls-5" points="289.71 795.77 266.59 789.58 289.71 783.38 289.71 795.77"/><polygon class="cls-5" points="711.14 795.77 734.26 789.58 711.14 783.38 711.14 795.77"/><polyline class="cls-4" points="713.23 670.34 699.42 655.12 631.38 655.12"/><polygon class="cls-5" points="714.79 663.21 725.74 684.5 705.61 671.54 714.79 663.21"/><polyline class="cls-4" points="379.98 680.53 380.7 620.96 466.96 620.96"/><polygon class="cls-5" points="385.96 676.38 379.49 699.43 373.57 676.23 385.96 676.38"/><polyline class="cls-4" points="287.82 524.18 326.64 551.71 390.72 551.71"/><polygon class="cls-5" points="287.83 531.47 272.55 513.05 295 521.36 287.83 531.47"/><polyline class="cls-4" points="713.65 138.43 694.45 121.21 598.26 121.21"/><polygon class="cls-5" points="714.47 131.19 727.55 151.24 706.19 140.42 714.47 131.19"/><polyline class="cls-4" points="279.87 100.36 316.24 131.64 412.44 131.64"/><polygon class="cls-5" points="279.2 107.62 265.71 87.85 287.28 98.22 279.2 107.62"/><polyline class="cls-4" points="424.98 224.94 358.99 262.88 262.8 262.88"/><polygon class="cls-5" points="418.36 221.9 441.49 215.75 424.53 232.65 418.36 221.9"/><polyline class="cls-4" points="424.98 224.94 358.99 262.88 262.8 262.88"/><polygon class="cls-5" points="418.36 221.9 441.49 215.75 424.53 232.65 418.36 221.9"/><polyline class="cls-4" points="414.49 444.49 357.95 376.59 261.76 376.59"/><polygon class="cls-5" points="416.35 437.44 426.39 459.17 406.83 445.37 416.35 437.44"/><line class="cls-4" x1="286.79" y1="26.92" x2="714.42" y2="26.92"/><polygon class="cls-5" points="291.02 32.85 267.9 26.66 291.02 20.46 291.02 32.85"/><polygon class="cls-5" points="710.19 32.85 733.31 26.66 710.19 20.46 710.19 32.85"/><line class="cls-4" x1="228.66" y1="681.48" x2="228.66" y2="526.38"/><polygon class="cls-5" points="234.6 677.26 228.41 700.38 222.21 677.26 234.6 677.26"/><polygon class="cls-5" points="234.6 530.6 228.41 507.48 222.21 530.6 234.6 530.6"/><line class="cls-4" x1="227.11" y1="103.14" x2="227.11" y2="134.55"/><polygon class="cls-5" points="221.18 107.37 227.37 84.25 233.57 107.37 221.18 107.37"/><polygon class="cls-5" points="221.18 130.32 227.37 153.44 233.57 130.32 221.18 130.32"/><line class="cls-4" x1="789.65" y1="682.41" x2="789.65" y2="448.18"/><polygon class="cls-5" points="795.58 678.18 789.39 701.31 783.19 678.18 795.58 678.18"/><polygon class="cls-5" points="795.58 452.41 789.39 429.29 783.19 452.41 795.58 452.41"/><line class="cls-4" x1="789.65" y1="410.39" x2="789.65" y2="103.06"/><polygon class="cls-5" points="795.58 406.16 789.39 429.29 783.19 406.16 795.58 406.16"/><polygon class="cls-5" points="795.58 107.28 789.39 84.16 783.19 107.28 795.58 107.28"/><line class="cls-4" x1="875.91" y1="679.96" x2="875.91" y2="101.16"/><polygon class="cls-5" points="881.84 675.74 875.65 698.86 869.45 675.74 881.84 675.74"/><polygon class="cls-5" points="881.84 105.39 875.65 82.27 869.45 105.39 881.84 105.39"/><g class="cls-6"><path class="cls-4" d="M189.22,428.81h8.54m8.47,0H786.8m4.24,0h8.53M933.32,83.68h-728M202,507.34h64.76M202,152.84h64.76M171.21,700.37H938.3M266.4,799.44V506.53l234.21-59.24L735.21,507l-.47,289.58M501.08,71v8.54m0,8.42v627.2m0,4.2v8.54"/></g><path class="cls-5" d="M288.49,239.72a18.7,18.7,0,0,1,3.39-.28c1.89,0,3.1.34,3.95,1.11a3.42,3.42,0,0,1,1.08,2.6,3.59,3.59,0,0,1-2.58,3.49v.06a3.39,3.39,0,0,1,2,2.76,21.6,21.6,0,0,0,1.06,3.75h-1.83a17.65,17.65,0,0,1-.91-3.27c-.41-1.88-1.14-2.59-2.74-2.65h-1.66v5.92h-1.77Zm1.77,6.23h1.8c1.89,0,3.08-1,3.08-2.6,0-1.76-1.27-2.53-3.14-2.55a7.3,7.3,0,0,0-1.74.16Z"/><path class="cls-5" d="M302.65,241.69h0l-2.29,1.24-.35-1.36,2.88-1.54h1.52v13.18h-1.72Z"/><path class="cls-5" d="M332.93,246.48c0,4.48-1.66,7-4.58,7-2.57,0-4.32-2.41-4.36-6.77s1.91-6.86,4.58-6.86S332.93,242.28,332.93,246.48Zm-7.15.2c0,3.43,1.05,5.37,2.67,5.37,1.83,0,2.7-2.13,2.7-5.49s-.83-5.38-2.68-5.38C326.91,241.18,325.78,243.09,325.78,246.68Z"/><path class="cls-5" d="M348.88,108.26a17.7,17.7,0,0,1,3.39-.29,5.59,5.59,0,0,1,4,1.12,3.4,3.4,0,0,1,1.08,2.59,3.58,3.58,0,0,1-2.58,3.49v.06a3.44,3.44,0,0,1,2,2.76,21.33,21.33,0,0,0,1,3.75H356a17.16,17.16,0,0,1-.92-3.26c-.4-1.89-1.13-2.6-2.73-2.66h-1.67v5.92h-1.76Zm1.76,6.22h1.81c1.88,0,3.08-1,3.08-2.59,0-1.77-1.28-2.54-3.14-2.56a7.47,7.47,0,0,0-1.75.16Z"/><path class="cls-5" d="M359.16,121.74v-1.09l1.4-1.36c3.37-3.2,4.89-4.91,4.91-6.9a2.35,2.35,0,0,0-2.61-2.57,4.5,4.5,0,0,0-2.8,1.11l-.57-1.25a5.78,5.78,0,0,1,3.73-1.34,3.71,3.71,0,0,1,4,3.83c0,2.43-1.77,4.4-4.55,7.08l-1,1v0h5.92v1.48Z"/><path class="cls-5" d="M289.45,352.5a18.59,18.59,0,0,1,3.38-.28c1.89,0,3.11.34,4,1.11a3.42,3.42,0,0,1,1.07,2.6,3.58,3.58,0,0,1-2.57,3.49v.06a3.39,3.39,0,0,1,2,2.76,22.59,22.59,0,0,0,1.06,3.75h-1.83a18.53,18.53,0,0,1-.91-3.27c-.4-1.88-1.13-2.59-2.74-2.65h-1.66V366h-1.76Zm1.76,6.23H293c1.88,0,3.08-1,3.08-2.6,0-1.76-1.28-2.53-3.14-2.55a7.4,7.4,0,0,0-1.75.16Z"/><path class="cls-5" d="M303.6,354.47h0l-2.29,1.24-.34-1.36,2.88-1.54h1.52V366H303.6Z"/><path class="cls-5" d="M333.89,359.26c0,4.48-1.66,6.95-4.58,6.95-2.58,0-4.32-2.41-4.36-6.77s1.9-6.86,4.58-6.86S333.89,355.06,333.89,359.26Zm-7.16.2c0,3.43,1,5.37,2.68,5.37,1.82,0,2.69-2.13,2.69-5.49s-.83-5.38-2.67-5.38C327.87,354,326.73,355.87,326.73,359.46Z"/><path class="cls-5" d="M226.68,417.17l-1.74-3c-.71-1.16-1.16-1.91-1.58-2.7h0c-.39.79-.77,1.52-1.48,2.72l-1.65,3h-2l4.17-6.92-4-6.75h2l1.8,3.2c.51.9.89,1.59,1.26,2.32h.06c.38-.82.73-1.44,1.24-2.32l1.86-3.2h2l-4.16,6.65,4.26,7Z"/><path class="cls-5" d="M651.1,461.25h0l-2.29,1.24-.35-1.36,2.88-1.54h1.53v13.18H651.1Z"/><path class="cls-5" d="M656.7,473.58l5.66-14.7h1.38l-5.68,14.7Z"/><path class="cls-5" d="M677,472.77v-3.59H670.9V468l5.88-8.41h1.93v8.19h1.84v1.4h-1.84v3.59Zm0-5v-4.4q0-1,.06-2.07H677c-.41.77-.73,1.34-1.1,1.95l-3.22,4.48v0Z"/><path class="cls-5" d="M351.58,155.07h0l-2.29,1.24L348.9,155l2.88-1.54h1.52v13.18h-1.72Z"/><path class="cls-5" d="M357.18,167.4l5.66-14.7h1.37l-5.67,14.7Z"/><path class="cls-5" d="M371.7,166.59V163h-6.12v-1.17l5.88-8.42h1.92v8.19h1.85V163h-1.85v3.59Zm0-5v-4.4q0-1,.06-2.07h-.06c-.41.77-.73,1.34-1.1,2l-3.22,4.48v0Z"/><path class="cls-5" d="M636.23,97.36a18.7,18.7,0,0,1,3.39-.28,5.57,5.57,0,0,1,4,1.12,3.42,3.42,0,0,1,1.07,2.59,3.59,3.59,0,0,1-2.58,3.49v.06a3.39,3.39,0,0,1,2,2.76,21.6,21.6,0,0,0,1.06,3.75h-1.83a17.65,17.65,0,0,1-.91-3.27c-.41-1.88-1.14-2.59-2.74-2.65H638v5.92h-1.77Zm1.77,6.23h1.8c1.89,0,3.09-1,3.09-2.6,0-1.76-1.28-2.53-3.15-2.55a7.3,7.3,0,0,0-1.74.16Z"/><path class="cls-5" d="M654.39,99.17h-5l-.51,3.39a5.88,5.88,0,0,1,1.08-.09,5.61,5.61,0,0,1,2.83.71,3.76,3.76,0,0,1,1.89,3.39c0,2.58-2,4.5-4.91,4.5a6.39,6.39,0,0,1-3.28-.81l.44-1.36a5.88,5.88,0,0,0,2.82.73,2.91,2.91,0,0,0,3.13-2.86c0-1.7-1.16-2.92-3.8-2.92a13.64,13.64,0,0,0-1.82.14l.85-6.32h6.31Z"/><path class="cls-5" d="M487.45,12.79a3.77,3.77,0,0,1,2.61-3.53l0-.06a3.26,3.26,0,0,1-2.09-3c0-2.09,1.77-3.51,4.08-3.51,2.56,0,3.83,1.61,3.83,3.25a3.34,3.34,0,0,1-2.17,3.08v.06a3.65,3.65,0,0,1,2.66,3.41c0,2.29-2,3.83-4.48,3.83C489.11,16.36,487.45,14.72,487.45,12.79Zm7.09-.08c0-1.6-1.11-2.37-2.9-2.88a2.87,2.87,0,0,0-2.37,2.72,2.44,2.44,0,0,0,2.64,2.51A2.38,2.38,0,0,0,494.54,12.71Zm-4.9-6.59c0,1.32,1,2,2.51,2.43a2.58,2.58,0,0,0,2-2.39A2.05,2.05,0,0,0,491.93,4,2.1,2.1,0,0,0,489.64,6.12Z"/><path class="cls-5" d="M506.78,9.41c0,4.48-1.67,7-4.59,7-2.57,0-4.32-2.41-4.36-6.77s1.91-6.86,4.59-6.86S506.78,5.21,506.78,9.41Zm-7.16.2c0,3.43,1.05,5.37,2.67,5.37,1.83,0,2.7-2.13,2.7-5.49s-.83-5.38-2.68-5.38C500.75,4.11,499.62,6,499.62,9.61Z"/><path class="cls-5" d="M651.14,631.64a18.62,18.62,0,0,1,3.39-.28,5.59,5.59,0,0,1,4,1.11,3.41,3.41,0,0,1,1.08,2.6,3.6,3.6,0,0,1-2.58,3.49v.06a3.39,3.39,0,0,1,2,2.76,22.92,22.92,0,0,0,1,3.75h-1.82a17.65,17.65,0,0,1-.91-3.27c-.41-1.88-1.14-2.59-2.74-2.65h-1.66v5.92h-1.77Zm1.77,6.23h1.8c1.89,0,3.08-1,3.08-2.6,0-1.76-1.27-2.53-3.14-2.55a7.3,7.3,0,0,0-1.74.16Z"/><path class="cls-5" d="M669.29,633.45h-5l-.51,3.38a7.1,7.1,0,0,1,1.07-.08,5.52,5.52,0,0,1,2.84.71,3.76,3.76,0,0,1,1.89,3.39c0,2.57-2,4.5-4.91,4.5a6.46,6.46,0,0,1-3.28-.81l.44-1.36a5.84,5.84,0,0,0,2.82.73,2.9,2.9,0,0,0,3.12-2.86c0-1.7-1.15-2.92-3.79-2.92a13.64,13.64,0,0,0-1.82.14L663,632h6.3Z"/><path class="cls-5" d="M344.32,528.07a17.67,17.67,0,0,1,3.38-.29,5.6,5.6,0,0,1,4,1.12,3.4,3.4,0,0,1,1.07,2.59,3.58,3.58,0,0,1-2.57,3.49V535a3.41,3.41,0,0,1,2,2.76,22,22,0,0,0,1.06,3.75h-1.83a18.32,18.32,0,0,1-.91-3.26c-.4-1.89-1.13-2.6-2.74-2.66h-1.66v5.92h-1.76Zm1.76,6.22h1.81c1.88,0,3.08-1,3.08-2.59,0-1.77-1.28-2.54-3.14-2.56a7.4,7.4,0,0,0-1.75.16Z"/><path class="cls-5" d="M362.47,529.87h-5l-.51,3.39a7.25,7.25,0,0,1,1.08-.08,5.55,5.55,0,0,1,2.84.71,3.76,3.76,0,0,1,1.88,3.38,4.58,4.58,0,0,1-4.9,4.51,6.54,6.54,0,0,1-3.29-.81l.45-1.36a5.92,5.92,0,0,0,2.82.73,2.91,2.91,0,0,0,3.12-2.86c0-1.71-1.16-2.92-3.79-2.92a14,14,0,0,0-1.83.14l.85-6.33h6.31Z"/><path class="cls-5" d="M394.84,600a18.7,18.7,0,0,1,3.39-.28,5.61,5.61,0,0,1,4,1.12,3.38,3.38,0,0,1,1.07,2.59,3.59,3.59,0,0,1-2.58,3.49V607a3.4,3.4,0,0,1,2,2.76,21.6,21.6,0,0,0,1.06,3.75h-1.83a17.71,17.71,0,0,1-.91-3.26c-.41-1.89-1.14-2.6-2.74-2.66h-1.66v5.92h-1.77Zm1.77,6.23h1.8c1.89,0,3.09-1,3.09-2.6,0-1.76-1.28-2.53-3.15-2.55a7.3,7.3,0,0,0-1.74.16Z"/><path class="cls-5" d="M413,601.78h-5l-.51,3.39a7.25,7.25,0,0,1,1.08-.08,5.57,5.57,0,0,1,2.84.71,3.74,3.74,0,0,1,1.88,3.38c0,2.58-2.05,4.5-4.91,4.5a6.39,6.39,0,0,1-3.28-.81l.44-1.36a5.88,5.88,0,0,0,2.82.73,2.91,2.91,0,0,0,3.13-2.86c0-1.7-1.16-2.92-3.8-2.92a13.56,13.56,0,0,0-1.82.15l.85-6.33H413Z"/><path class="cls-5" d="M424.3,606.73c0,4.48-1.67,6.95-4.59,6.95-2.57,0-4.32-2.41-4.36-6.77s1.91-6.85,4.59-6.85S424.3,602.53,424.3,606.73Zm-7.16.2c0,3.43,1.05,5.37,2.67,5.37,1.83,0,2.7-2.12,2.7-5.49s-.83-5.38-2.68-5.38C418.27,601.43,417.14,603.34,417.14,606.93Z"/><path class="cls-5" d="M434.7,606.73c0,4.48-1.66,6.95-4.58,6.95-2.58,0-4.32-2.41-4.36-6.77s1.9-6.85,4.58-6.85S434.7,602.53,434.7,606.73Zm-7.16.2c0,3.43,1.06,5.37,2.68,5.37,1.82,0,2.7-2.12,2.7-5.49s-.83-5.38-2.68-5.38C428.68,601.43,427.54,603.34,427.54,606.93Z"/><path class="cls-5" d="M215.25,614.74a5.87,5.87,0,0,0,.83-2.92c0-2.29-1.46-3-2.55-3-1.85,0-2.64,1.68-2.64,3.41v1h-1.34v-1c0-1.3-.66-2.94-2.23-2.94-1,0-2,.67-2,2.31a4.84,4.84,0,0,0,.87,2.64l-1.3.46a6.24,6.24,0,0,1-1-3.44c0-2.6,1.54-3.78,3.14-3.78a3.27,3.27,0,0,1,3.1,2.44h0a3.43,3.43,0,0,1,3.39-2.94c2.11,0,4,1.64,4,4.8a6.68,6.68,0,0,1-.89,3.43Z"/><path class="cls-5" d="M215.25,604.34a5.94,5.94,0,0,0,.83-2.92c0-2.29-1.46-3-2.55-3-1.85,0-2.64,1.68-2.64,3.4v1h-1.34v-1c0-1.29-.66-2.94-2.23-2.94-1,0-2,.67-2,2.32a4.8,4.8,0,0,0,.87,2.63l-1.3.47a6.25,6.25,0,0,1-1-3.45c0-2.6,1.54-3.77,3.14-3.77a3.27,3.27,0,0,1,3.1,2.43h0a3.44,3.44,0,0,1,3.39-2.94c2.11,0,4,1.64,4,4.81a6.61,6.61,0,0,1-.89,3.42Z"/><path class="cls-5" d="M487.46,778.17a3.78,3.78,0,0,1,2.62-3.53l0-.06a3.26,3.26,0,0,1-2.09-3c0-2.09,1.76-3.51,4.08-3.51,2.55,0,3.83,1.61,3.83,3.25a3.35,3.35,0,0,1-2.17,3.08v.06a3.66,3.66,0,0,1,2.65,3.41c0,2.29-2,3.83-4.48,3.83C489.12,781.74,487.46,780.1,487.46,778.17Zm7.1-.08c0-1.6-1.12-2.37-2.9-2.88a2.87,2.87,0,0,0-2.37,2.72,2.43,2.43,0,0,0,2.63,2.51A2.38,2.38,0,0,0,494.56,778.09Zm-4.91-6.59c0,1.32,1,2,2.52,2.43a2.58,2.58,0,0,0,2-2.39,2,2,0,0,0-2.23-2.15A2.09,2.09,0,0,0,489.65,771.5Z"/><path class="cls-5" d="M506.79,774.79c0,4.48-1.66,7-4.58,7-2.58,0-4.32-2.41-4.36-6.77s1.9-6.86,4.58-6.86S506.79,770.59,506.79,774.79Zm-7.16.2c0,3.43,1.06,5.37,2.68,5.37,1.82,0,2.7-2.13,2.7-5.49s-.84-5.38-2.68-5.38C500.77,769.49,499.63,771.4,499.63,775Z"/><path class="cls-5" d="M527.12,66.38v-5.8l-4.32-7.87h2l1.92,3.78c.53,1,.93,1.86,1.36,2.81h0c.39-.89.85-1.78,1.38-2.81l2-3.78h2l-4.58,7.85v5.82Z"/><path class="cls-5" d="M898.5,364.44v0l-1.24-2.29,1.36-.34,1.54,2.88v1.52H887v-1.73Z"/><path class="cls-5" d="M893.71,379.74c-4.48,0-7-1.67-7-4.59,0-2.57,2.42-4.32,6.78-4.36s6.85,1.91,6.85,4.59S897.91,379.74,893.71,379.74Zm-.2-7.16c-3.43,0-5.38,1.05-5.38,2.68,0,1.82,2.13,2.69,5.5,2.69s5.37-.83,5.37-2.67C899,373.71,897.1,372.58,893.51,372.58Z"/><path class="cls-5" d="M898.66,389.25v-5l-3.39-.51a7.25,7.25,0,0,1,.08,1.08,5.55,5.55,0,0,1-.71,2.84,3.76,3.76,0,0,1-3.38,1.88,4.57,4.57,0,0,1-4.51-4.9,6.42,6.42,0,0,1,.82-3.29l1.35.45a6,6,0,0,0-.73,2.82,2.91,2.91,0,0,0,2.86,3.12c1.71,0,2.92-1.16,2.92-3.79a14,14,0,0,0-.14-1.83l6.33.85v6.31Z"/><path class="cls-5" d="M197,137.85v0l1.23,2.29-1.36.34-1.54-2.88v-1.52h13.18v1.73Z"/><path class="cls-5" d="M197,127.44v0l1.23,2.29-1.36.35-1.54-2.88v-1.52h13.18v1.72Z"/><path class="cls-5" d="M207.49,112.07a1.2,1.2,0,0,1-1.28-1.22,1.28,1.28,0,0,1,2.56,0A1.2,1.2,0,0,1,207.49,112.07Z"/><path class="cls-5" d="M205.2,108.18a3.78,3.78,0,0,1-3.53-2.62l-.06,0a3.27,3.27,0,0,1-3,2.09c-2.09,0-3.51-1.77-3.51-4.08,0-2.55,1.6-3.83,3.24-3.83a3.36,3.36,0,0,1,3.09,2.17h.06a3.66,3.66,0,0,1,3.4-2.66c2.3,0,3.84,2,3.84,4.49C208.77,106.51,207.12,108.18,205.2,108.18ZM198.53,106c1.31,0,2-1,2.43-2.52a2.61,2.61,0,0,0-2.39-2,2,2,0,0,0-2.15,2.23A2.1,2.1,0,0,0,198.53,106Zm6.59-4.91c-1.6,0-2.38,1.11-2.88,2.9a2.86,2.86,0,0,0,2.72,2.37,2.44,2.44,0,0,0,2.51-2.64A2.38,2.38,0,0,0,205.12,101.08Z"/><path class="cls-5" d="M810.13,218.21l-5.52,1.92a23.08,23.08,0,0,1-2.51.79V221c.81.23,1.62.51,2.51.84l5.52,1.9v1.87l-9.82-3.86V220l9.82-3.73Z"/><path class="cls-5" d="M803.17,226.6h1.22v10.47h-1.22Zm4,0h1.22v10.47h-1.22Z"/><path class="cls-5" d="M812,246.66v-5l-3.39-.5a5.76,5.76,0,0,1,.09,1.07A5.62,5.62,0,0,1,808,245a3.78,3.78,0,0,1-3.39,1.89c-2.58,0-4.5-2.05-4.5-4.91a6.43,6.43,0,0,1,.81-3.29l1.36.45a5.84,5.84,0,0,0-.73,2.82,2.9,2.9,0,0,0,2.86,3.12c1.7,0,2.92-1.15,2.92-3.79a14,14,0,0,0-.14-1.83l6.32.86v6.3Z"/><path class="cls-5" d="M803.66,249a3.77,3.77,0,0,1,3.53,2.61l.06,0a3.25,3.25,0,0,1,3-2.08c2.09,0,3.51,1.76,3.51,4.07,0,2.56-1.61,3.83-3.25,3.83a3.34,3.34,0,0,1-3.08-2.17h-.06a3.65,3.65,0,0,1-3.41,2.66c-2.29,0-3.83-2-3.83-4.48C800.09,250.7,801.73,249,803.66,249Zm.08,7.1c1.6,0,2.37-1.12,2.88-2.9a2.87,2.87,0,0,0-2.72-2.38,2.44,2.44,0,0,0-2.51,2.64A2.39,2.39,0,0,0,803.74,256.14Zm6.59-4.91c-1.32,0-2,1-2.43,2.51a2.58,2.58,0,0,0,2.39,2,2.05,2.05,0,0,0,2.15-2.23A2.1,2.1,0,0,0,810.33,251.23Z"/><path class="cls-5" d="M801.37,259.75a1.19,1.19,0,0,1,1.27,1.21,1.28,1.28,0,1,1-1.27-1.21Z"/><path class="cls-5" d="M812.23,271.33a5.9,5.9,0,0,0-.08-1.34,5.34,5.34,0,0,0-4.68-4.58v.06a4,4,0,0,1-2.74,7.16,4.41,4.41,0,0,1-4.64-4.38c0-2.82,2.19-4.67,5.62-4.67a8.29,8.29,0,0,1,5.94,2.23,7.21,7.21,0,0,1,1.94,4.22,8.91,8.91,0,0,1,.11,1.3Zm-7.6-.51c1.89,0,3-1.07,3-2.72a2.94,2.94,0,0,0-1.62-2.55,1.54,1.54,0,0,0-.79-.2c-2.17,0-3.77,1-3.77,2.9C801.47,269.79,802.74,270.82,804.63,270.82Z"/><path class="cls-5" d="M810.13,275.47l-5.52,1.92a25.68,25.68,0,0,1-2.51.8v.06c.81.22,1.62.5,2.51.83l5.52,1.9v1.87L800.31,279v-1.71l9.82-3.73Z"/><path class="cls-5" d="M803.17,538.07h1.22v10.47h-1.22Zm4,0h1.22v10.47h-1.22Z"/><path class="cls-5" d="M800.31,555.78h3.59v-6.12h1.18l8.41,5.88v1.92H805.3v1.85h-1.4v-1.85h-3.59Zm5,0h4.4q1,0,2.07.06v-.06c-.77-.4-1.34-.73-1.95-1.09l-4.48-3.23h0Z"/><path class="cls-5" d="M812.23,568.19a5.82,5.82,0,0,0-.08-1.33,5.36,5.36,0,0,0-4.68-4.59v.06a4,4,0,0,1,1.52,3.19c0,2.33-1.68,4-4.26,4a4.4,4.4,0,0,1-4.64-4.38c0-2.82,2.19-4.66,5.62-4.66a8.29,8.29,0,0,1,5.94,2.23,7.15,7.15,0,0,1,1.94,4.22,8.79,8.79,0,0,1,.11,1.29Zm-7.6-.5c1.89,0,3-1.08,3-2.72a2.93,2.93,0,0,0-1.62-2.55,1.45,1.45,0,0,0-.79-.21c-2.17,0-3.77,1-3.77,2.9C801.47,566.65,802.74,567.69,804.63,567.69Z"/><path class="cls-5" d="M801.37,571.22a1.2,1.2,0,0,1,1.27,1.22,1.17,1.17,0,0,1-1.27,1.19,1.18,1.18,0,0,1-1.28-1.21A1.2,1.2,0,0,1,801.37,571.22Z"/><path class="cls-5" d="M800.31,603.41h3.59v-6.13h1.18l8.42,5.89v1.92h-8.2v1.85h-1.4v-1.85h-3.59Zm5,0h4.4q1,0,2.07.06v-.06c-.77-.41-1.34-.73-1.94-1.1l-4.49-3.22h0Z"/><polygon class="cls-5" points="815.57 534.98 819.45 536.74 819.45 539.95 815.57 537.07 815.57 534.98"/></g><g id="Watermark"><rect class="cls-2" x="438.45" y="522.17" width="123.09" height="46.3"/><rect class="cls-7" x="444.86" y="530.01" width="62.89" height="30.62"/><rect class="cls-7" x="507.75" y="530.01" width="47.39" height="30.62"/><path class="cls-8" d="M466.48,536.11,463.69,555H461l-1.55-11-1.53,11h-2.74l-2.8-18.92h2.51l1.79,14.18,1.79-14.18h2l1.79,14.18L464,536.11Z"/><path class="cls-8" d="M467.93,555V536.11h2.53V555Z"/><path class="cls-8" d="M472.83,536.11h5q2.9,0,2.9,3.24V544c0,1.65-.51,2.69-1.51,3.13L481,555h-2.4l-1.66-7.64h-1.53V555h-2.53Zm2.53,9.12H477c.76,0,1.14-.46,1.14-1.37v-4.09c0-.91-.38-1.37-1.14-1.37h-1.66Z"/><path class="cls-8" d="M486.82,538.4V555h-2.53V538.4h-2.42v-2.29h7.38v2.29Z"/><path class="cls-8" d="M496.34,555v-8.59h-3.11V555H490.7V536.11h2.53v8h3.11v-8h2.53V555Z"/><path class="cls-8" d="M516.31,536.11h5q2.9,0,2.89,3.24V544c0,1.65-.5,2.69-1.5,3.13l1.77,7.88H522l-1.66-7.64h-1.53V555h-2.53Zm2.53,9.12h1.66c.76,0,1.13-.46,1.13-1.37v-4.09c0-.91-.37-1.37-1.13-1.37h-1.66Z"/><path class="cls-8" d="M528.67,555h-2.53V539.35q0-3.24,3-3.24h1.9q3,0,3,3.24V555h-2.53V548.1h-2.9Zm2.9-9.22v-6.3a1,1,0,0,0-1.11-1.11h-.68a1,1,0,0,0-1.11,1.11v6.3Z"/><path class="cls-8" d="M536.34,555V536.11h2.53V555Z"/><path class="cls-8" d="M547.24,555h-6V536.11h2.53v16.63h3.47Z"/></g></svg>