<svg xmlns="http://www.w3.org/2000/svg" xmlns:xlink="http://www.w3.org/1999/xlink" viewBox="0 0 1000 800"><defs><style>.cls-1,.cls-3,.cls-4,.cls-6{fill:none;}.cls-2,.cls-8{fill:#f0f0f0;}.cls-3,.cls-4,.cls-6{stroke:#241f21;}.cls-3{stroke-width:1.05px;}.cls-4,.cls-6{stroke-linecap:round;stroke-linejoin:round;stroke-width:0.53px;}.cls-5{fill:#241f21;}.cls-6{stroke-dashoffset:19.05px;stroke-dasharray:16.91 2.14 2.14 2.14;}.cls-7{clip-path:url(#clip-path);}.cls-8{stroke:#ccc;stroke-miterlimit:10;}.cls-9{fill:#ccc;}</style><clipPath id="clip-path"><rect class="cls-1" x="50.59" y="5.39" width="761.48" height="772.85"/></clipPath></defs><g id="Flat"><path class="cls-2" d="M233.28,331.38h105c33.32,0,33.32,29.54,33.32,29.54V663.06l17.8,17.8H606.78l17.8-17.8V360.92s0-29.54,33.32-29.54H764.41A18.42,18.42,0,0,0,782.84,313V130.72a18.37,18.37,0,0,0-18.38-18.38H233.28a18.38,18.38,0,0,0-18.38,18.38V313a18.38,18.38,0,0,0,18.38,18.38Z"/><path class="cls-3" d="M233.28,331.38h105c33.32,0,33.32,29.54,33.32,29.54V663.06l17.8,17.8H606.78l17.8-17.8V360.92s0-29.54,33.32-29.54H764.41A18.42,18.42,0,0,0,782.84,313V130.72a18.37,18.37,0,0,0-18.38-18.38H233.28a18.38,18.38,0,0,0-18.38,18.38V313a18.38,18.38,0,0,0,18.38,18.38Z"/><line class="cls-4" x1="724.63" y1="289.23" x2="767.69" y2="316.46"/><path class="cls-5" d="M773.32,317.34a94.54,94.54,0,0,1-5.81-7.6l-6,9.44a87.5,87.5,0,0,1,9.35,2,65.58,65.58,0,0,1,9.47,3.31,66.31,66.31,0,0,1-7-7.17"/><line class="cls-4" x1="728.69" y1="164.91" x2="765.95" y2="130.16"/><path class="cls-5" d="M771.32,128.24a95.08,95.08,0,0,0-4.3,8.55l-7.63-8.16a87.9,87.9,0,0,0,8.81-3.72,66.82,66.82,0,0,0,8.7-5,65.39,65.39,0,0,0-5.58,8.34"/><line class="cls-4" x1="312.02" y1="384.15" x2="349.28" y2="349.4"/><path class="cls-5" d="M354.65,347.48c-1.91,3.31-3,5.68-4.3,8.55l-7.63-8.16a84.58,84.58,0,0,0,8.81-3.72,65.68,65.68,0,0,0,8.7-5,66.47,66.47,0,0,0-5.58,8.34"/><line class="cls-4" x1="269.81" y1="280.64" x2="231.3" y2="314.01"/><path class="cls-5" d="M225.87,315.72a95.31,95.31,0,0,0,4.61-8.38l7.33,8.43a86.11,86.11,0,0,0-8.95,3.4,66.48,66.48,0,0,0-8.87,4.69,65.07,65.07,0,0,0,5.88-8.14"/><line class="cls-4" x1="267.45" y1="167.56" x2="232.21" y2="130.76"/><path class="cls-5" d="M227,128.54c1.72,3.42,2.63,5.84,3.81,8.78l8.08-7.71a88.12,88.12,0,0,1-8.59-4.22,66.83,66.83,0,0,1-8.4-5.49,65.34,65.34,0,0,1,5.1,8.64"/><line class="cls-4" x1="680.47" y1="388.46" x2="645.23" y2="351.66"/><path class="cls-5" d="M640,349.44c1.72,3.41,2.64,5.84,3.81,8.78l8.08-7.72a87.53,87.53,0,0,1-8.58-4.21,65.12,65.12,0,0,1-8.41-5.5,65.14,65.14,0,0,1,5.1,8.65"/><line class="cls-4" x1="59.28" y1="127.82" x2="59.28" y2="664.31"/><path class="cls-5" d="M61.55,669.78c1.11-3.83,2.13-6.32,3.31-9.39H53.69a95.84,95.84,0,0,1,3.3,9.39A71.91,71.91,0,0,1,59.27,680a71.91,71.91,0,0,1,2.28-10.23"/><path class="cls-5" d="M57,122.34c-1.1,3.84-2.12,6.33-3.3,9.4H64.88a92.7,92.7,0,0,1-3.3-9.4,70.72,70.72,0,0,1-2.29-10.22A69.13,69.13,0,0,1,57,122.34"/><line class="cls-4" x1="147.46" y1="357.39" x2="147.46" y2="664.31"/><path class="cls-5" d="M149.73,669.78c1.11-3.83,2.12-6.32,3.3-9.39H141.86a93.19,93.19,0,0,1,3.3,9.39A70.8,70.8,0,0,1,147.45,680a71.91,71.91,0,0,1,2.28-10.23"/><path class="cls-5" d="M145.19,351.91c-1.11,3.83-2.13,6.32-3.3,9.4h11.17a95.61,95.61,0,0,1-3.31-9.4,71.91,71.91,0,0,1-2.28-10.23,71.91,71.91,0,0,1-2.28,10.23"/><line class="cls-4" x1="698.12" y1="695.65" x2="698.12" y2="715.79"/><path class="cls-5" d="M695.85,690.17c-1.1,3.84-2.12,6.33-3.3,9.4h11.17a94.63,94.63,0,0,1-3.31-9.4A71.53,71.53,0,0,1,698.13,680a70.17,70.17,0,0,1-2.28,10.22"/><line class="cls-4" x1="698.12" y1="648.18" x2="698.12" y2="558.87"/><path class="cls-5" d="M695.85,653.65c-1.1-3.83-2.12-6.32-3.3-9.39h11.17a95.15,95.15,0,0,0-3.31,9.39,71.91,71.91,0,0,0-2.28,10.23,70.53,70.53,0,0,0-2.28-10.23"/><line class="cls-4" x1="147.46" y1="128.67" x2="147.46" y2="324.61"/><path class="cls-5" d="M149.73,330.08c1.11-3.83,2.12-6.32,3.3-9.39H141.86a93.19,93.19,0,0,1,3.3,9.39,71.09,71.09,0,0,1,2.29,10.23,70.82,70.82,0,0,1,2.28-10.23"/><path class="cls-5" d="M145.19,123.19c-1.11,3.84-2.13,6.33-3.3,9.4h11.16a98.09,98.09,0,0,1-3.3-9.4A71.83,71.83,0,0,1,147.47,113a71.83,71.83,0,0,1-2.28,10.22"/><line class="cls-4" x1="101.98" y1="128.67" x2="101.98" y2="314.38"/><path class="cls-5" d="M104.25,319.85c1.11-3.83,2.13-6.32,3.3-9.39H96.39a98.65,98.65,0,0,1,3.3,9.39A72.51,72.51,0,0,1,102,330.08a72.51,72.51,0,0,1,2.28-10.23"/><path class="cls-5" d="M99.71,123.19c-1.11,3.84-2.12,6.33-3.3,9.4h11.17a92.7,92.7,0,0,1-3.3-9.4A70.72,70.72,0,0,1,102,113a70.45,70.45,0,0,1-2.28,10.22"/><line class="cls-4" x1="516.32" y1="67.77" x2="768.16" y2="67.77"/><path class="cls-5" d="M773.51,65.5c-3.74-1.11-6.18-2.13-9.18-3.31V73.36a92.22,92.22,0,0,1,9.18-3.3,69.17,69.17,0,0,1,10-2.28,69.17,69.17,0,0,1-10-2.28"/><path class="cls-5" d="M511,70a97.22,97.22,0,0,1,9.18,3.3V62.17a88.76,88.76,0,0,1-9.18,3.3,67.84,67.84,0,0,1-10,2.28A68.1,68.1,0,0,1,511,70"/><line class="cls-4" x1="233.62" y1="67.77" x2="485.85" y2="67.77"/><path class="cls-5" d="M491.2,65.5c-3.75-1.11-6.18-2.13-9.18-3.31V73.36a91.25,91.25,0,0,1,9.18-3.3,68.88,68.88,0,0,1,10-2.28,68.88,68.88,0,0,1-10-2.28"/><path class="cls-5" d="M228.27,70a97.48,97.48,0,0,1,9.19,3.3V62.17a90.1,90.1,0,0,1-9.19,3.3,67.28,67.28,0,0,1-10,2.28,67.54,67.54,0,0,1,10,2.29"/><line class="cls-4" x1="230.95" y1="22.38" x2="767.23" y2="22.38"/><path class="cls-5" d="M772.58,20.11a97.22,97.22,0,0,1-9.18-3.3V28a89.67,89.67,0,0,1,9.18-3.3,68.1,68.1,0,0,1,10-2.29,66.57,66.57,0,0,1-10-2.28"/><path class="cls-5" d="M225.6,24.65c3.75,1.11,6.18,2.13,9.19,3.31V16.78a89.47,89.47,0,0,1-9.19,3.31,68.88,68.88,0,0,1-10,2.28,68.88,68.88,0,0,1,10,2.28"/><line class="cls-4" x1="230.29" y1="766.19" x2="356.44" y2="766.19"/><path class="cls-5" d="M361.79,763.92a97.22,97.22,0,0,1-9.18-3.3v11.17a89.67,89.67,0,0,1,9.18-3.3,67.82,67.82,0,0,1,10-2.29,68.88,68.88,0,0,1-10-2.28"/><path class="cls-5" d="M224.94,768.46c3.74,1.11,6.17,2.13,9.18,3.31V760.59a91.56,91.56,0,0,1-9.18,3.31,69.17,69.17,0,0,1-10,2.28,69.17,69.17,0,0,1,10,2.28"/><line class="cls-4" x1="387.14" y1="766.19" x2="609.1" y2="766.19"/><path class="cls-5" d="M614.45,763.92a97.48,97.48,0,0,1-9.19-3.3v11.17a90.1,90.1,0,0,1,9.19-3.3,67.82,67.82,0,0,1,10-2.29,68.88,68.88,0,0,1-10-2.28"/><path class="cls-5" d="M381.79,768.46c3.75,1.11,6.18,2.13,9.19,3.31V760.59a92,92,0,0,1-9.19,3.31,68.88,68.88,0,0,1-10,2.28,68.88,68.88,0,0,1,10,2.28"/><line class="cls-4" x1="640.53" y1="766.19" x2="767.81" y2="766.19"/><path class="cls-5" d="M773.16,763.92a96.22,96.22,0,0,1-9.18-3.3v11.17a88.76,88.76,0,0,1,9.18-3.3,67.82,67.82,0,0,1,10-2.29,68.88,68.88,0,0,1-10-2.28"/><path class="cls-5" d="M635.18,768.46c3.74,1.11,6.17,2.13,9.18,3.31V760.59a91.56,91.56,0,0,1-9.18,3.31,69.17,69.17,0,0,1-10,2.28,69.17,69.17,0,0,1,10,2.28"/><line class="cls-6" x1="812.05" y1="338.09" x2="165.02" y2="338.09"/><line class="cls-6" x1="500.02" y1="708.82" x2="500.02" y2="61.79"/><g class="cls-7"><path class="cls-4" d="M704.39,680.34H50.86m182.27-568H50.86m185.74,219H92.05M704.63,663.63H624.81m-409.62-348v463M371.07,660.11V778.6M624.45,660.11V778.6M783.16,14.12V132.61m-568-118.49V132.61m568,173.81V771.11"/></g><path class="cls-5" d="M793.79,369.24v-4.52l-2.69-6.14h1.25l1.2,2.94c.33.81.58,1.46.85,2.2h0c.24-.7.53-1.39.86-2.2l1.23-2.94h1.25l-2.86,6.12v4.54Z"/><path class="cls-5" d="M182.32,367.93V363.4l-2.7-6.14h1.26l1.2,2.95c.33.8.58,1.45.84,2.2h0c.24-.7.53-1.4.86-2.2l1.23-2.95h1.25l-2.86,6.13v4.54Z"/><path class="cls-5" d="M516.88,98.62l-1.09-2.36c-.44-.9-.72-1.48-1-2.1h0c-.24.62-.48,1.19-.93,2.12l-1,2.34h-1.26l2.6-5.39L511.67,88h1.27l1.13,2.5c.32.69.56,1.23.78,1.8h0c.24-.63.46-1.12.77-1.8l1.17-2.5h1.26l-2.59,5.19,2.66,5.47Z"/><path class="cls-5" d="M518.19,707.17l-1.08-2.36c-.45-.9-.72-1.49-1-2.1h0c-.24.61-.48,1.18-.92,2.12l-1,2.34h-1.27l2.61-5.4L513,696.5h1.28l1.13,2.5c.31.7.55,1.24.78,1.81h0c.24-.63.45-1.13.77-1.81l1.16-2.5h1.27l-2.59,5.19,2.65,5.48Z"/><path class="cls-5" d="M692.48,756.75v-.86l.87-1.06c2.1-2.5,3-3.82,3.06-5.38,0-1-.4-2-1.63-2a2.53,2.53,0,0,0-1.75.87l-.35-1a3.22,3.22,0,0,1,2.33-1c1.77,0,2.51,1.52,2.51,3,0,1.9-1.1,3.43-2.83,5.52l-.66.76v0h3.7v1.16Z"/><path class="cls-5" d="M698.87,754.14a3,3,0,0,1,1.63-2.76v0a2.63,2.63,0,0,1-1.31-2.31,2.56,2.56,0,0,1,2.55-2.74,2.36,2.36,0,0,1,2.39,2.53,2.69,2.69,0,0,1-1.35,2.41v0a2.83,2.83,0,0,1,1.65,2.66,2.8,2.8,0,0,1-2.79,3A2.67,2.67,0,0,1,698.87,754.14Zm4.43-.06a2.24,2.24,0,0,0-1.81-2.25A2.16,2.16,0,0,0,700,754a1.73,1.73,0,0,0,1.64,2A1.67,1.67,0,0,0,703.3,754.08Zm-3.07-5.15a1.93,1.93,0,0,0,1.57,1.9,2,2,0,0,0,1.26-1.87c0-.82-.4-1.67-1.4-1.67A1.48,1.48,0,0,0,700.23,748.93Z"/><path class="cls-5" d="M494.52,756.75V754H490.7V753l3.66-6.57h1.2v6.4h1.16V754h-1.16v2.8Zm0-3.89v-3.44c0-.54,0-1.07,0-1.61h0c-.26.6-.46,1-.69,1.52l-2,3.5v0Z"/><path class="cls-5" d="M502.48,747.63h-3.14l-.32,2.65a3.62,3.62,0,0,1,.67-.07,2.94,2.94,0,0,1,1.77.56,3.11,3.11,0,0,1,1.18,2.64c0,2-1.28,3.51-3.06,3.51a3.39,3.39,0,0,1-2.05-.63l.28-1.06a3.15,3.15,0,0,0,1.76.57,2,2,0,0,0,1.94-2.23,2.11,2.11,0,0,0-2.36-2.28,6.55,6.55,0,0,0-1.14.11l.53-4.94h3.94Z"/><path class="cls-5" d="M283.17,756.75v-.86l.87-1.06c2.1-2.5,3-3.82,3.06-5.38,0-1-.4-2-1.63-2a2.53,2.53,0,0,0-1.75.87l-.35-1a3.22,3.22,0,0,1,2.33-1c1.77,0,2.51,1.52,2.51,3,0,1.9-1.1,3.43-2.83,5.52l-.66.76v0h3.7v1.16Z"/><path class="cls-5" d="M289.56,754.14a3,3,0,0,1,1.63-2.76v0a2.63,2.63,0,0,1-1.31-2.31,2.55,2.55,0,0,1,2.55-2.74,2.36,2.36,0,0,1,2.39,2.53,2.68,2.68,0,0,1-1.36,2.41v0a3,3,0,0,1-1.14,5.65A2.66,2.66,0,0,1,289.56,754.14Zm4.42-.06a2.23,2.23,0,0,0-1.8-2.25A2.14,2.14,0,0,0,290.7,754a1.73,1.73,0,0,0,1.64,2A1.66,1.66,0,0,0,294,754.08Zm-3.06-5.15a1.93,1.93,0,0,0,1.57,1.9,2,2,0,0,0,1.25-1.87c0-.82-.39-1.67-1.39-1.67A1.48,1.48,0,0,0,290.92,748.93Z"/><path class="cls-5" d="M487,7.78h0l-1.43,1-.22-1.06,1.8-1.2h.95V16.77H487Z"/><path class="cls-5" d="M496.53,11.51c0,3.5-1,5.43-2.86,5.43-1.61,0-2.7-1.88-2.72-5.29s1.19-5.34,2.86-5.34S496.53,8.24,496.53,11.51Zm-4.47.16c0,2.67.66,4.19,1.67,4.19s1.68-1.66,1.68-4.28-.52-4.2-1.67-4.2C492.77,7.38,492.06,8.87,492.06,11.67Z"/><path class="cls-5" d="M500,7.78h0l-1.42,1-.22-1.06,1.8-1.2h.95V16.77H500Z"/><path class="cls-5" d="M631.15,52.19H628l-.32,2.64a3.75,3.75,0,0,1,.67-.06,2.93,2.93,0,0,1,1.77.55A3.11,3.11,0,0,1,631.32,58c0,2-1.28,3.51-3.06,3.51a3.39,3.39,0,0,1-2-.63l.28-1.06a3.08,3.08,0,0,0,1.76.57,2,2,0,0,0,1.94-2.23,2.11,2.11,0,0,0-2.36-2.28,6.55,6.55,0,0,0-1.14.11l.53-4.93h3.93Z"/><path class="cls-5" d="M638.2,56.05c0,3.49-1,5.42-2.86,5.42-1.6,0-2.69-1.88-2.71-5.28s1.18-5.35,2.85-5.35S638.2,52.77,638.2,56.05Zm-4.46.16c0,2.67.66,4.19,1.67,4.19s1.68-1.66,1.68-4.29-.52-4.19-1.67-4.19C634.45,51.92,633.74,53.4,633.74,56.21Z"/><path class="cls-5" d="M639.32,60.48c0-.59.32-1,.76-1s.75.41.75,1-.3,1-.76,1S639.32,61.05,639.32,60.48Z"/><path class="cls-5" d="M651.69,52.19h-3.13l-.32,2.64a3.75,3.75,0,0,1,.67-.06,2.93,2.93,0,0,1,1.77.55A3.11,3.11,0,0,1,651.86,58c0,2-1.28,3.51-3.06,3.51a3.39,3.39,0,0,1-2-.63l.28-1.06a3.08,3.08,0,0,0,1.76.57,2,2,0,0,0,1.94-2.23,2.11,2.11,0,0,0-2.36-2.28,6.55,6.55,0,0,0-1.14.11l.53-4.93h3.93Z"/><path class="cls-5" d="M342.5,52.19h-3.14L339,54.83a3.75,3.75,0,0,1,.67-.06,3,3,0,0,1,1.78.55A3.13,3.13,0,0,1,342.66,58c0,2-1.28,3.51-3.06,3.51a3.39,3.39,0,0,1-2.05-.63l.28-1.06a3.08,3.08,0,0,0,1.76.57,2,2,0,0,0,2-2.23,2.11,2.11,0,0,0-2.37-2.28A6.66,6.66,0,0,0,338,56l.53-4.93h3.94Z"/><path class="cls-5" d="M349.55,56.05c0,3.49-1,5.42-2.86,5.42-1.61,0-2.7-1.88-2.72-5.28s1.19-5.35,2.86-5.35S349.55,52.77,349.55,56.05Zm-4.47.16c0,2.67.66,4.19,1.67,4.19s1.68-1.66,1.68-4.29-.52-4.19-1.67-4.19C345.79,51.92,345.08,53.4,345.08,56.21Z"/><path class="cls-5" d="M350.66,60.48c0-.59.32-1,.76-1s.75.41.75,1-.29,1-.76,1S350.66,61.05,350.66,60.48Z"/><path class="cls-5" d="M363,52.19H359.9l-.31,2.64a3.66,3.66,0,0,1,.67-.06,3,3,0,0,1,1.77.55A3.13,3.13,0,0,1,363.2,58c0,2-1.27,3.51-3.06,3.51a3.41,3.41,0,0,1-2.05-.63l.28-1.06a3.08,3.08,0,0,0,1.76.57,2,2,0,0,0,1.95-2.23,2.11,2.11,0,0,0-2.37-2.28,6.66,6.66,0,0,0-1.14.11l.54-4.93H363Z"/><path class="cls-5" d="M711.79,136.34a8.79,8.79,0,0,1,2.11-.23A2.7,2.7,0,0,1,717,139a2.79,2.79,0,0,1-1.61,2.72v.05c.66.28,1.05,1,1.26,2.15a20.47,20.47,0,0,0,.65,2.93h-1.13a16.38,16.38,0,0,1-.57-2.55c-.26-1.47-.71-2-1.71-2.07h-1v4.62h-1.1Zm1.1,4.85H714a1.85,1.85,0,0,0,1.92-2,1.8,1.8,0,0,0-2-2,3.78,3.78,0,0,0-1.09.13Z"/><path class="cls-5" d="M737,145.26a3.24,3.24,0,0,0,1.82.65,1.81,1.81,0,0,0,1.86-2,2,2,0,0,0-2.12-2.06h-.62v-1.05h.62a1.74,1.74,0,0,0,1.83-1.74,1.38,1.38,0,0,0-1.44-1.55,2.66,2.66,0,0,0-1.64.68l-.29-1a3.4,3.4,0,0,1,2.15-.79,2.27,2.27,0,0,1,2.35,2.45,2.54,2.54,0,0,1-1.52,2.42v0a2.57,2.57,0,0,1,1.83,2.65,2.88,2.88,0,0,1-3,3.08,3.56,3.56,0,0,1-2.14-.69Z"/><path class="cls-5" d="M714.44,312.19a9.3,9.3,0,0,1,2.11-.22,2.7,2.7,0,0,1,3.14,2.9,2.79,2.79,0,0,1-1.61,2.72v.05c.66.28,1,1,1.25,2.15a20.34,20.34,0,0,0,.66,2.93h-1.14a16.69,16.69,0,0,1-.57-2.55c-.25-1.47-.71-2-1.71-2.08h-1v4.63h-1.1Zm1.1,4.86h1.12a1.85,1.85,0,0,0,1.92-2,1.8,1.8,0,0,0-2-2,3.33,3.33,0,0,0-1.08.13Z"/><path class="cls-5" d="M739.65,321.12a3.21,3.21,0,0,0,1.82.65,1.81,1.81,0,0,0,1.86-2,2,2,0,0,0-2.13-2h-.62v-1.05h.62a1.75,1.75,0,0,0,1.84-1.74,1.39,1.39,0,0,0-1.44-1.55,2.65,2.65,0,0,0-1.65.68l-.29-1a3.37,3.37,0,0,1,2.15-.79,2.27,2.27,0,0,1,2.35,2.45,2.53,2.53,0,0,1-1.51,2.42v0a2.55,2.55,0,0,1,1.83,2.64,2.89,2.89,0,0,1-3,3.09,3.55,3.55,0,0,1-2.14-.7Z"/><path class="cls-5" d="M258,136.86a8.73,8.73,0,0,1,2.11-.23,2.7,2.7,0,0,1,3.14,2.9,2.79,2.79,0,0,1-1.61,2.72v.05c.66.28,1.05,1,1.25,2.15a20,20,0,0,0,.66,2.93h-1.14a16.38,16.38,0,0,1-.57-2.55c-.25-1.47-.71-2-1.7-2.07h-1v4.62H258Zm1.1,4.85h1.12a1.85,1.85,0,0,0,1.93-2,1.8,1.8,0,0,0-2-2,3.73,3.73,0,0,0-1.09.13Z"/><path class="cls-5" d="M283.18,145.78a3.24,3.24,0,0,0,1.82.65,1.81,1.81,0,0,0,1.86-2,2,2,0,0,0-2.13-2.05h-.61v-1h.61a1.75,1.75,0,0,0,1.84-1.74,1.39,1.39,0,0,0-1.44-1.55,2.71,2.71,0,0,0-1.65.68l-.29-1a3.37,3.37,0,0,1,2.15-.79,2.27,2.27,0,0,1,2.35,2.45,2.53,2.53,0,0,1-1.51,2.42v0a2.57,2.57,0,0,1,1.83,2.65,2.88,2.88,0,0,1-3,3.08,3.55,3.55,0,0,1-2.13-.69Z"/><path class="cls-5" d="M638.51,388.09a8.79,8.79,0,0,1,2.11-.23,2.7,2.7,0,0,1,3.14,2.9,2.79,2.79,0,0,1-1.61,2.72v0c.66.28,1.05,1,1.26,2.15a20.47,20.47,0,0,0,.65,2.93h-1.14a18.29,18.29,0,0,1-.56-2.55c-.26-1.47-.71-2-1.71-2.07h-1v4.62h-1.1Zm1.1,4.85h1.13a1.85,1.85,0,0,0,1.92-2,1.8,1.8,0,0,0-2-2,3.78,3.78,0,0,0-1.09.13Z"/><path class="cls-5" d="M668.15,389.3a3.27,3.27,0,0,0-.84.07,3.89,3.89,0,0,0-2.85,3.65h0a2.33,2.33,0,0,1,2-1.18c1.45,0,2.48,1.31,2.48,3.32s-1,3.62-2.73,3.62-2.91-1.71-2.91-4.38a7.45,7.45,0,0,1,1.39-4.64,4.14,4.14,0,0,1,2.63-1.52,4.64,4.64,0,0,1,.81-.08Zm-.32,5.94c0-1.47-.67-2.36-1.69-2.36a1.86,1.86,0,0,0-1.6,1.27,1.47,1.47,0,0,0-.12.61c0,1.7.64,2.95,1.81,2.95C667.19,397.71,667.83,396.71,667.83,395.24Z"/><path class="cls-5" d="M125.34,237a3.17,3.17,0,0,0,.65-1.82,1.81,1.81,0,0,0-2-1.86,2,2,0,0,0-2.06,2.12v.62h-1v-.62a1.74,1.74,0,0,0-1.74-1.83,1.38,1.38,0,0,0-1.55,1.44,2.65,2.65,0,0,0,.68,1.65l-1,.29a3.42,3.42,0,0,1-.79-2.15,2.27,2.27,0,0,1,2.45-2.36,2.54,2.54,0,0,1,2.43,1.52h0a2.55,2.55,0,0,1,2.64-1.83,2.89,2.89,0,0,1,3.09,3,3.55,3.55,0,0,1-.7,2.13Z"/><path class="cls-5" d="M124.33,230.87a2.94,2.94,0,0,1-2.75-1.63l0,0a2.61,2.61,0,0,1-2.31,1.3,2.55,2.55,0,0,1-2.74-2.54,2.37,2.37,0,0,1,2.53-2.4,2.7,2.7,0,0,1,2.41,1.36h0a3,3,0,0,1,5.65,1.14A2.67,2.67,0,0,1,124.33,230.87Zm-5.21-1.36a1.92,1.92,0,0,0,1.9-1.57,2,2,0,0,0-1.86-1.25c-.83,0-1.68.39-1.68,1.39A1.48,1.48,0,0,0,119.12,229.51Zm5.15-3.06a2.24,2.24,0,0,0-2.25,1.81,2.16,2.16,0,0,0,2.12,1.48,1.74,1.74,0,0,0,2-1.65A1.66,1.66,0,0,0,124.27,226.45Z"/><path class="cls-5" d="M126.12,224.19c-.59,0-1-.31-1-.76s.41-.74,1-.74,1,.29,1,.76S126.69,224.19,126.12,224.19Z"/><path class="cls-5" d="M117.83,213.93v3.14l2.64.31a3.62,3.62,0,0,1-.07-.67,3,3,0,0,1,.56-1.77,3.13,3.13,0,0,1,2.64-1.18c2,0,3.51,1.28,3.51,3.06a3.39,3.39,0,0,1-.63,2.05l-1.06-.27a3.21,3.21,0,0,0,.57-1.76,2,2,0,0,0-2.23-2,2.11,2.11,0,0,0-2.28,2.37,6.53,6.53,0,0,0,.11,1.13l-4.94-.53v-3.93Z"/><path class="cls-5" d="M174.12,238.08h-2.8v3.82h-.92l-6.57-3.67V237h6.39v-1.15h1.1V237h2.8Zm-3.9,0h-3.43c-.54,0-1.08,0-1.61,0v0c.6.25,1,.45,1.52.68l3.49,2h0Z"/><path class="cls-5" d="M168.86,229.56c3.5,0,5.43,1,5.43,2.86,0,1.61-1.88,2.69-5.28,2.72s-5.35-1.19-5.35-2.86S165.59,229.56,168.86,229.56ZM169,234c2.68,0,4.19-.66,4.19-1.67s-1.66-1.69-4.28-1.69-4.2.52-4.2,1.67C164.73,233.32,166.22,234,169,234Z"/><path class="cls-5" d="M173.29,228.44c-.58,0-1-.31-1-.76s.41-.74,1-.74,1,.29,1,.76S173.86,228.44,173.29,228.44Z"/><path class="cls-5" d="M165.13,223.5v0l1,1.43-1.06.22-1.2-1.8v-1h10.29v1.08Z"/><path class="cls-5" d="M173.14,218.78a3.69,3.69,0,0,0,0-.9,2.86,2.86,0,0,0-1-1.72,4.94,4.94,0,0,0-2.74-1.09v0a2.24,2.24,0,0,1,1.11,1.93c0,1.48-1.39,2.43-3.15,2.43-1.94,0-3.65-1.13-3.65-2.81s1.71-2.72,4.33-2.72a7.46,7.46,0,0,1,4.83,1.42,3.84,3.84,0,0,1,1.38,2.39,4.39,4.39,0,0,1,.07,1Zm-5.92-.41c1.28,0,2.18-.62,2.18-1.58a1.79,1.79,0,0,0-1.07-1.62,1.18,1.18,0,0,0-.51-.1c-1.76,0-3.1.52-3.1,1.68C164.72,217.7,165.76,218.37,167.22,218.37Z"/><path class="cls-5" d="M75.48,402.7v0l1,1.43-1.06.22-1.2-1.8v-.95H84.46v1.08Z"/><path class="cls-5" d="M79.21,393.16c3.5,0,5.43,1,5.43,2.86,0,1.6-1.89,2.69-5.29,2.71S74,397.55,74,395.88,75.93,393.16,79.21,393.16Zm.16,4.46c2.67,0,4.19-.66,4.19-1.67s-1.66-1.68-4.29-1.68-4.19.52-4.19,1.67C75.08,396.91,76.57,397.62,79.37,397.62Z"/><path class="cls-5" d="M79.21,386.66c3.5,0,5.43,1,5.43,2.86,0,1.61-1.89,2.7-5.29,2.72S74,391.05,74,389.38,75.93,386.66,79.21,386.66Zm.16,4.47c2.67,0,4.19-.66,4.19-1.67s-1.66-1.68-4.29-1.68-4.19.52-4.19,1.67C75.08,390.42,76.57,391.13,79.37,391.13Z"/><path class="cls-5" d="M83.64,385.55c-.59,0-1-.32-1-.76s.41-.75,1-.75,1,.29,1,.76S84.21,385.55,83.64,385.55Z"/><path class="cls-5" d="M75.35,371.46v3.14l2.64.32a3.75,3.75,0,0,1-.06-.67,2.91,2.91,0,0,1,.55-1.77,3.12,3.12,0,0,1,2.64-1.18c2,0,3.52,1.28,3.52,3.06a3.39,3.39,0,0,1-.64,2.05l-1.06-.28a3.08,3.08,0,0,0,.57-1.76,2,2,0,0,0-2.23-1.94A2.11,2.11,0,0,0,79,374.79a7.71,7.71,0,0,0,.11,1.14l-4.93-.53v-3.94Z"/><path class="cls-5" d="M164.24,517.63a3.27,3.27,0,0,0,.07.84,3.89,3.89,0,0,0,3.65,2.86v0a2.33,2.33,0,0,1-1.19-2c0-1.45,1.32-2.48,3.33-2.48s3.62,1,3.62,2.74-1.71,2.91-4.38,2.91a7.43,7.43,0,0,1-4.64-1.4,4.14,4.14,0,0,1-1.52-2.63,4.56,4.56,0,0,1-.08-.81Zm5.94.32c-1.47,0-2.36.67-2.36,1.69a1.85,1.85,0,0,0,1.26,1.6,1.54,1.54,0,0,0,.62.13c1.7,0,3-.65,3-1.81C172.65,518.59,171.65,518,170.18,518Z"/><path class="cls-5" d="M168.29,510.37c3.5,0,5.43,1,5.43,2.86,0,1.61-1.88,2.69-5.28,2.72s-5.35-1.19-5.35-2.86S165,510.37,168.29,510.37Zm.16,4.47c2.68,0,4.2-.66,4.2-1.67s-1.67-1.69-4.29-1.69-4.2.52-4.2,1.67C164.16,514.13,165.65,514.84,168.45,514.84Z"/><path class="cls-5" d="M172.72,509.25c-.58,0-1-.31-1-.76s.41-.74,1-.74,1,.29,1,.76S173.29,509.25,172.72,509.25Z"/><path class="cls-5" d="M172,506.46a3.24,3.24,0,0,0,.65-1.83,1.81,1.81,0,0,0-2-1.85,2,2,0,0,0-2,2.12v.62H167.5v-.62a1.74,1.74,0,0,0-1.74-1.83,1.38,1.38,0,0,0-1.55,1.44,2.66,2.66,0,0,0,.68,1.64l-1,.29a3.35,3.35,0,0,1-.79-2.15,2.27,2.27,0,0,1,2.45-2.35,2.54,2.54,0,0,1,2.42,1.52h0a2.58,2.58,0,0,1,2.65-1.84,2.89,2.89,0,0,1,3.08,3,3.59,3.59,0,0,1-.69,2.14Z"/><path class="cls-5" d="M164.56,497.81v0l1,1.43-1.06.21-1.2-1.79v-.95h10.29v1.07Z"/><path class="cls-5" d="M727.21,615.53a3.17,3.17,0,0,0,.65-1.82,1.81,1.81,0,0,0-2-1.86,2,2,0,0,0-2.06,2.12v.62h-1V614a1.74,1.74,0,0,0-1.74-1.83,1.38,1.38,0,0,0-1.55,1.44,2.6,2.6,0,0,0,.68,1.64l-1,.3a3.42,3.42,0,0,1-.79-2.15A2.27,2.27,0,0,1,720.8,611a2.55,2.55,0,0,1,2.43,1.52h0a2.55,2.55,0,0,1,2.64-1.83,2.88,2.88,0,0,1,3.08,3,3.56,3.56,0,0,1-.69,2.14Z"/><path class="cls-5" d="M717.85,604.76l2.26-1.1v.78L717.85,606Zm11-1.89-1,.09v0a2.16,2.16,0,0,1,1.13,1.87,2,2,0,0,1-2.19,1.88c-1.86,0-2.87-1.32-2.85-3.69h-.16c-.63,0-1.77.14-1.77,1.4a2.62,2.62,0,0,0,.57,1.59l-.92.25a3.24,3.24,0,0,1-.68-2c0-1.87,1.6-2.33,3.13-2.33H727a12.77,12.77,0,0,0,1.83-.1Zm-3.91.17c0,1.21.24,2.59,1.73,2.59.9,0,1.33-.48,1.33-1a1.61,1.61,0,0,0-1.29-1.48,1.67,1.67,0,0,0-.44-.06Z"/><path class="cls-5" d="M728.81,594.39H726v3.83h-.92l-6.56-3.67v-1.21h6.39v-1.15H726v1.15h2.8Zm-3.89,0h-3.44l-1.61,0v0c.6.26,1,.46,1.52.69l3.5,2h0Z"/><path class="cls-5" d="M719.7,586.43v3.14l2.64.32a3.75,3.75,0,0,1-.06-.67,2.93,2.93,0,0,1,.55-1.77,3.11,3.11,0,0,1,2.64-1.18c2,0,3.51,1.28,3.51,3.06a3.39,3.39,0,0,1-.63,2l-1.06-.28a3.08,3.08,0,0,0,.57-1.76,2,2,0,0,0-2.23-1.94,2.11,2.11,0,0,0-2.28,2.36,6.55,6.55,0,0,0,.11,1.14l-4.93-.53v-3.94Z"/><path class="cls-5" d="M720,581.7a1.92,1.92,0,0,1,2.12,1.7,1.84,1.84,0,0,1-2,1.65,1.91,1.91,0,0,1-2.14-1.68A1.85,1.85,0,0,1,720,581.7Zm.08,2.67c.73,0,1.3-.43,1.3-1s-.59-1-1.37-1c-.58,0-1.32.28-1.32,1S719.43,584.37,720.11,584.37Z"/><path class="cls-5" d="M335.44,385.64a9.37,9.37,0,0,1,2.11-.22,3,3,0,0,1,2.47.87,3,3,0,0,1,.67,2,2.79,2.79,0,0,1-1.61,2.72v.05a2.7,2.7,0,0,1,1.26,2.15,22,22,0,0,0,.65,2.93h-1.13a16.38,16.38,0,0,1-.57-2.55c-.26-1.47-.71-2-1.71-2.07h-1v4.62h-1.1Zm1.1,4.86h1.13a1.86,1.86,0,0,0,1.92-2,1.79,1.79,0,0,0-2-2,3.89,3.89,0,0,0-1.09.12Z"/><path class="cls-5" d="M365.08,386.86a3.21,3.21,0,0,0-.84.06,3.89,3.89,0,0,0-2.85,3.65h0a2.35,2.35,0,0,1,2-1.18c1.45,0,2.48,1.31,2.48,3.32s-1,3.62-2.73,3.62-2.91-1.7-2.91-4.38a7.42,7.42,0,0,1,1.39-4.63,4.1,4.1,0,0,1,2.63-1.52,3.83,3.83,0,0,1,.81-.08Zm-.32,5.93c0-1.47-.67-2.36-1.69-2.36a1.86,1.86,0,0,0-1.6,1.27,1.52,1.52,0,0,0-.12.62c0,1.69.64,2.94,1.81,2.94C364.12,395.26,364.76,394.26,364.76,392.79Z"/><path class="cls-5" d="M258,308.66a8.77,8.77,0,0,1,2.11-.22,2.7,2.7,0,0,1,3.14,2.89,2.79,2.79,0,0,1-1.61,2.72v.05a2.65,2.65,0,0,1,1.25,2.15,20,20,0,0,0,.66,2.93h-1.14a16.38,16.38,0,0,1-.57-2.55c-.25-1.47-.7-2-1.7-2.07h-1v4.62H258Zm1.1,4.86h1.12a1.86,1.86,0,0,0,1.93-2,1.79,1.79,0,0,0-2-2,3.89,3.89,0,0,0-1.09.12Z"/><path class="cls-5" d="M283.17,317.58a3.24,3.24,0,0,0,1.82.65,1.81,1.81,0,0,0,1.86-2,2,2,0,0,0-2.12-2.06h-.62v-1h.62a1.75,1.75,0,0,0,1.83-1.75,1.39,1.39,0,0,0-1.44-1.55,2.71,2.71,0,0,0-1.65.68l-.29-1a3.42,3.42,0,0,1,2.15-.79,2.27,2.27,0,0,1,2.36,2.45,2.53,2.53,0,0,1-1.52,2.42v0a2.55,2.55,0,0,1,1.83,2.64,2.88,2.88,0,0,1-3,3.08,3.55,3.55,0,0,1-2.13-.69Z"/></g><g id="Watermark"><rect class="cls-2" x="438.45" y="552.2" width="123.09" height="46.3"/><rect class="cls-8" x="444.86" y="560.03" width="62.89" height="30.62"/><rect class="cls-8" x="507.75" y="560.03" width="47.39" height="30.62"/><path class="cls-9" d="M466.48,566.13l-2.79,18.92H461l-1.55-11-1.53,11h-2.74l-2.8-18.92h2.51l1.79,14.18,1.79-14.18h2l1.79,14.18L464,566.13Z"/><path class="cls-9" d="M467.93,585.05V566.13h2.53v18.92Z"/><path class="cls-9" d="M472.83,566.13h5q2.9,0,2.9,3.25V574c0,1.65-.51,2.7-1.51,3.13l1.77,7.88h-2.4l-1.66-7.64h-1.53v7.64h-2.53Zm2.53,9.12H477c.76,0,1.14-.46,1.14-1.37V569.8c0-.92-.38-1.37-1.14-1.37h-1.66Z"/><path class="cls-9" d="M486.82,568.43v16.62h-2.53V568.43h-2.42v-2.3h7.38v2.3Z"/><path class="cls-9" d="M496.34,585.05v-8.59h-3.11v8.59H490.7V566.13h2.53v8h3.11v-8h2.53v18.92Z"/><path class="cls-9" d="M516.31,566.13h5q2.9,0,2.89,3.25V574c0,1.65-.5,2.7-1.5,3.13l1.77,7.88H522l-1.66-7.64h-1.53v7.64h-2.53Zm2.53,9.12h1.66c.76,0,1.13-.46,1.13-1.37V569.8c0-.92-.37-1.37-1.13-1.37h-1.66Z"/><path class="cls-9" d="M528.67,585.05h-2.53V569.38q0-3.25,3-3.25h1.9q3,0,3,3.25v15.67h-2.53v-6.93h-2.9Zm2.9-9.22v-6.3a1,1,0,0,0-1.11-1.1h-.68a1,1,0,0,0-1.11,1.1v6.3Z"/><path class="cls-9" d="M536.34,585.05V566.13h2.53v18.92Z"/><path class="cls-9" d="M547.24,585.05h-6V566.13h2.53v16.63h3.47Z"/></g></svg>