<svg id="Layer_1" data-name="Layer 1" xmlns="http://www.w3.org/2000/svg" viewBox="0 0 300 300"><defs><style>.cls-1{fill:#f0f0f0;}.cls-2{fill:#303030;}.cls-3,.cls-4{fill:none;stroke:#616161;stroke-width:0.32px;}.cls-3{stroke-miterlimit:10;}.cls-5{fill:#616161;}.cls-6{fill:#616262;}</style></defs><path class="cls-1" d="M150,299A149,149,0,1,0,1,150,149,149,0,0,0,150,299"/><path class="cls-2" d="M144.89,59l-1.58,4.55h-5.75l9.11-26.41h6.77l9,26.41h-5.94L155,59ZM150,43.61l-3.69,10.93h7.33Z"/><path class="cls-2" d="M150,239.11c3.25,0,5.34.48,6.73,1.5a6.85,6.85,0,0,1,2.54,5.59,6.35,6.35,0,0,1-1.67,4.51,5.81,5.81,0,0,1-2.77,1.58,5.9,5.9,0,0,1,3.13,1.43,6.15,6.15,0,0,1,1.9,4.75,6.87,6.87,0,0,1-2.73,5.78c-1.39.91-3,1.27-5.91,1.27h-9.74V239.11Zm-3.09,11.2h2.18c3.21,0,4.71-1.15,4.71-3.6a3.24,3.24,0,0,0-1.58-3,8.47,8.47,0,0,0-3.41-.51h-1.9Zm0,11.21h2.65c1.87,0,2.74-.16,3.53-.71a3.73,3.73,0,0,0-.2-5.82c-.83-.48-1.67-.64-3.65-.64h-2.33Z"/><path class="cls-2" d="M215.27,140.69h5.66l-7.37,26.41H208.1l-4.16-17.3-4.16,17.3h-5.46l-7.21-26.41h5.75l4.23,16.67,4.28-16.67h5.38l4.12,16.94Z"/><path class="cls-2" d="M65.12,162.31H59.7V135.9h5.42v11.16h10V135.9h5.43v26.41H75.14V151.49h-10Z"/><line class="cls-3" x1="94.58" y1="88.58" x2="94.58" y2="213.02"/><line class="cls-3" x1="90.12" y1="88.58" x2="99.03" y2="88.58"/><line class="cls-3" x1="90.12" y1="213.02" x2="99.03" y2="213.02"/><line class="cls-3" x1="174.39" y1="78.1" x2="125.61" y2="78.1"/><line class="cls-3" x1="174.39" y1="73.64" x2="174.39" y2="82.55"/><line class="cls-3" x1="125.61" y1="73.64" x2="125.61" y2="82.55"/><line class="cls-3" x1="200.66" y1="221.9" x2="102.39" y2="221.9"/><line class="cls-3" x1="200.66" y1="217.45" x2="200.66" y2="226.36"/><line class="cls-3" x1="102.38" y1="217.45" x2="102.38" y2="226.36"/><line class="cls-4" x1="159.81" y1="154.79" x2="179.01" y2="154.79"/><polygon class="cls-5" points="162.21 148.38 155.8 154.79 162.21 161.21 162.21 148.38"/><line class="cls-4" x1="140.19" y1="154.79" x2="121" y2="154.79"/><polygon class="cls-5" points="137.79 161.21 144.2 154.79 137.79 148.38 137.79 161.21"/><polygon class="cls-6" points="101.39 214.01 198.61 214.01 198.61 212.35 198.5 211.25 198.19 210.18 197.7 209.19 197.02 208.33 196.18 207.6 195.22 207.06 194.18 206.69 162.23 198.77 160.52 198.14 158.93 197.23 157.52 196.01 156.4 194.55 155.56 192.93 155.04 191.16 154.86 189.31 154.86 124.33 155.04 122.51 155.56 120.73 156.4 119.09 157.52 117.66 158.93 116.44 160.52 115.49 162.23 114.89 169.87 112.99 170.91 112.63 171.88 112.08 172.71 111.35 173.39 110.49 173.9 109.5 174.19 108.44 174.3 107.34 174.3 99.6 174.09 97.39 173.49 95.28 172.47 93.3 171.09 91.58 169.43 90.12 167.52 89 165.44 88.27 163.25 87.96 149.99 87.59 136.75 87.96 134.56 88.27 132.48 89 130.55 90.12 128.88 91.58 127.53 93.3 126.51 95.28 125.91 97.39 125.7 99.6 125.7 107.34 125.81 108.44 126.09 109.5 126.62 110.49 127.3 111.35 128.13 112.08 129.09 112.63 130.13 112.99 137.77 114.89 139.49 115.49 141.08 116.44 142.48 117.66 143.6 119.09 144.44 120.73 144.96 122.51 145.14 124.33 145.14 189.31 144.96 191.16 144.44 192.93 143.6 194.55 142.48 196.01 141.08 197.23 139.49 198.14 137.77 198.77 105.82 206.69 104.78 207.06 103.81 207.6 102.98 208.33 102.31 209.19 101.79 210.18 101.5 211.25 101.39 212.35 101.39 214.01"/></svg>