<svg id="_1-drilling-crane-rails" data-name="1-drilling-crane-rails" xmlns="http://www.w3.org/2000/svg" viewBox="0 0 400 200"><defs><style>.cls-1{fill:#f1f0f0;}.cls-10,.cls-11,.cls-12,.cls-13,.cls-14,.cls-15,.cls-16,.cls-17,.cls-18,.cls-19,.cls-2,.cls-20,.cls-3,.cls-5,.cls-6,.cls-7,.cls-8{fill:none;}.cls-10,.cls-11,.cls-12,.cls-13,.cls-14,.cls-15,.cls-16,.cls-17,.cls-18,.cls-19,.cls-2,.cls-20,.cls-5,.cls-6,.cls-7,.cls-8{stroke:#231f20;}.cls-2,.cls-20{stroke-width:0.78px;}.cls-4{fill:#fff;}.cls-5{stroke-width:0.7px;}.cls-18,.cls-6{stroke-width:0.39px;}.cls-7{stroke-width:0.42px;stroke-dasharray:8.32 2.5;}.cls-19,.cls-8{stroke-width:0.42px;}.cls-8{stroke-dasharray:8.41 2.52;}.cls-9{fill:#231f20;}.cls-10{stroke-width:0.38px;}.cls-11{stroke-width:0.43px;}.cls-12{stroke-width:0.53px;}.cls-13{stroke-width:0.4px;}.cls-14{stroke-width:0.45px;}.cls-15{stroke-width:0.49px;}.cls-16{stroke-width:0.17px;}.cls-17{stroke-width:0.15px;}.cls-18{stroke-dasharray:7.78 2.33;}.cls-19{stroke-dasharray:8.41 2.52;}.cls-20{stroke-linecap:round;stroke-linejoin:round;}</style></defs><polyline class="cls-1" points="336.8 51.65 365.34 120.62 365.34 129.74 144.68 129.74 144.68 51.65 336.8 51.65"/><polygon class="cls-2" points="336.8 51.65 365.34 120.62 365.34 129.74 144.68 129.74 144.68 51.65 336.8 51.65"/><rect class="cls-3" x="34.11" y="49.95" width="331.79" height="100.11"/><path class="cls-4" d="M328.56,93.87a8.18,8.18,0,1,0,8.17-8.17,8.17,8.17,0,0,0-8.17,8.17"/><path class="cls-2" d="M328.56,93.87a8.18,8.18,0,1,0,8.17-8.17A8.17,8.17,0,0,0,328.56,93.87Z"/><path class="cls-4" d="M250.51,93.87a8.17,8.17,0,1,0,8.17-8.17,8.17,8.17,0,0,0-8.17,8.17"/><path class="cls-2" d="M250.51,93.87a8.17,8.17,0,1,0,8.17-8.17A8.17,8.17,0,0,0,250.51,93.87Z"/><path class="cls-4" d="M186.73,93.87a8.17,8.17,0,1,0,8.17-8.17,8.17,8.17,0,0,0-8.17,8.17"/><path class="cls-2" d="M186.73,93.87a8.17,8.17,0,1,0,8.17-8.17A8.17,8.17,0,0,0,186.73,93.87Z"/><line class="cls-5" x1="145.14" y1="68.44" x2="343.97" y2="68.44"/><line class="cls-2" x1="365.79" y1="121.11" x2="145.59" y2="121.11"/><path class="cls-6" d="M194.93,127.74V150m63.74-22.12V150m77.82-22.19v22.2M191.87,94.2h6.06m-3-3v6.07m-4.31-3H167.44m56.09,0H200.38m-5.48-5.81V81.27m0,18.25v23.14M255.55,94.2h6.06m-3-3v6.07m-4.31-3H231.12m56.09,0H264.06m-5.48-5.81V81.27m0,18.25v23.14M333.47,94.2h6.07m-3-3v6.07m-4.31-3H309.05m56.08,0H342m-5.48-5.81V81.27m0,18.25v23.14"/><line class="cls-7" x1="185.6" y1="68.62" x2="185.6" y2="94.01"/><line class="cls-8" x1="203.15" y1="68.07" x2="203.15" y2="94.01"/><line class="cls-6" x1="144.52" y1="127.53" x2="144.52" y2="149.73"/><path class="cls-9" d="M331,139.8a47.07,47.07,0,0,1-4.49-1.65v5.58a43.79,43.79,0,0,1,4.49-1.65,32.43,32.43,0,0,1,4.88-1.14A33.72,33.72,0,0,1,331,139.8"/><line class="cls-10" x1="328.42" y1="140.93" x2="304.13" y2="140.93"/><path class="cls-9" d="M329.7,140.38c-.9-.28-1.48-.53-2.2-.82v2.75a18.8,18.8,0,0,1,2.2-.81,15.86,15.86,0,0,1,2.4-.56,17.2,17.2,0,0,1-2.4-.56"/><path class="cls-9" d="M253.5,140c-1.83-.56-3-1.06-4.49-1.65v5.58a43.79,43.79,0,0,1,4.49-1.65,32.15,32.15,0,0,1,4.88-1.14A33.42,33.42,0,0,1,253.5,140"/><line class="cls-11" x1="250.88" y1="141.12" x2="232.23" y2="141.12"/><path class="cls-9" d="M252.34,140.49c-1-.31-1.68-.59-2.5-.92v3.11a24.45,24.45,0,0,1,2.5-.92,18.25,18.25,0,0,1,2.72-.64,18,18,0,0,1-2.72-.63"/><path class="cls-9" d="M189.18,139.91a45.84,45.84,0,0,1-4.48-1.65v5.58a42.46,42.46,0,0,1,4.48-1.65,33.72,33.72,0,0,1,4.88-1.14,32.43,32.43,0,0,1-4.88-1.14"/><line class="cls-12" x1="186.57" y1="141.04" x2="175.24" y2="141.04"/><path class="cls-9" d="M188.33,140.28a31.18,31.18,0,0,1-3-1.12v3.78a29.24,29.24,0,0,1,3-1.12,22.52,22.52,0,0,1,3.3-.77,22.52,22.52,0,0,1-3.3-.77"/><path class="cls-9" d="M264.66,142.14a45.84,45.84,0,0,1,4.48,1.65v-5.58a42.46,42.46,0,0,1-4.48,1.65,33.5,33.5,0,0,1-4.89,1.14,32.23,32.23,0,0,1,4.89,1.14"/><line class="cls-13" x1="267.27" y1="141.01" x2="292.82" y2="141.01"/><path class="cls-9" d="M265.92,141.59c.94.29,1.56.55,2.32.85v-2.88a21.75,21.75,0,0,1-2.32.85,15.92,15.92,0,0,1-2.52.59,18.54,18.54,0,0,1,2.52.59"/><path class="cls-9" d="M201.14,142.1a45.84,45.84,0,0,1,4.48,1.65v-5.58a42.46,42.46,0,0,1-4.48,1.65,32.43,32.43,0,0,1-4.88,1.14,33.72,33.72,0,0,1,4.88,1.14"/><line class="cls-14" x1="203.75" y1="140.97" x2="221.18" y2="140.97"/><path class="cls-9" d="M202.24,141.62a26.65,26.65,0,0,1,2.59,1v-3.23a23.24,23.24,0,0,1-2.59,1,20.17,20.17,0,0,1-2.82.66,18.58,18.58,0,0,1,2.82.65"/><path class="cls-9" d="M150.68,142.18a46.82,46.82,0,0,1,4.48,1.65v-5.58a43.36,43.36,0,0,1-4.48,1.65,33.8,33.8,0,0,1-4.89,1.14,32.51,32.51,0,0,1,4.89,1.14"/><line class="cls-15" x1="153.29" y1="141.04" x2="164.28" y2="141.04"/><path class="cls-9" d="M151.66,141.75c1.14.35,1.88.67,2.8,1V139.3c-.33.15-1.66.68-2.8,1a20.75,20.75,0,0,1-3,.71,20.75,20.75,0,0,1,3,.71"/><path class="cls-9" d="M168.73,140.42l.64-1.93c.13-.4.24-.81.33-1.2h0c.1.39.2.78.34,1.22l.65,1.91h-2m2.17.67.71,2.08h.92l-2.27-6.63h-1L167,143.17h.89l.69-2.08Z"/><path class="cls-9" d="M208.87,75.83a47.07,47.07,0,0,1,4.49,1.65V71.9a43.79,43.79,0,0,1-4.49,1.65A33.42,33.42,0,0,1,204,74.69a32.15,32.15,0,0,1,4.88,1.14"/><line class="cls-16" x1="211.48" y1="74.7" x2="215.14" y2="74.7"/><path class="cls-9" d="M210.92,74.94c.39.12.65.23,1,.36V74.09c-.11,0-.58.23-1,.36a8.14,8.14,0,0,1-1.07.24,7,7,0,0,1,1.07.25"/><path class="cls-9" d="M180,73.56a46.82,46.82,0,0,1-4.48-1.65v5.58A42.46,42.46,0,0,1,180,75.84a32.51,32.51,0,0,1,4.89-1.14A32.51,32.51,0,0,1,180,73.56"/><line class="cls-17" x1="177.37" y1="74.7" x2="174.05" y2="74.7"/><path class="cls-9" d="M177.86,74.48a7.93,7.93,0,0,1-.84-.31v1c.1,0,.5-.2.84-.31a5.59,5.59,0,0,1,.92-.21,7.22,7.22,0,0,1-.92-.22"/><path class="cls-9" d="M193.56,70.9a4.86,4.86,0,0,1,1-.08,2.36,2.36,0,0,1,2.69,2.56,2.55,2.55,0,0,1-2.83,2.81,5.38,5.38,0,0,1-.86,0V70.9m-.87,5.9a11.76,11.76,0,0,0,1.57.08,4.14,4.14,0,0,0,2.94-.95,3.56,3.56,0,0,0,1-2.58,3.06,3.06,0,0,0-.95-2.4,3.81,3.81,0,0,0-2.69-.81,12.38,12.38,0,0,0-1.83.13Z"/><polyline class="cls-9" points="128.49 112.45 125.92 112.45 125.92 114.84 128.8 114.84 128.8 115.56 125.06 115.56 125.06 108.92 128.65 108.92 128.65 109.64 125.92 109.64 125.92 111.74 128.49 111.74 128.49 112.45"/><path class="cls-9" d="M225.28,137.21a3.69,3.69,0,0,1,.76-.06c.87,0,1.45.31,1.45,1.08s-.53,1.12-1.43,1.12h-.78v-2.14m-.86,5.95a12.58,12.58,0,0,0,1.33.07,3.25,3.25,0,0,0,2.29-.62,1.72,1.72,0,0,0,.57-1.33,1.69,1.69,0,0,0-1.37-1.65v0a1.57,1.57,0,0,0,1.12-1.46,1.38,1.38,0,0,0-.56-1.17,2.65,2.65,0,0,0-1.81-.49,8.27,8.27,0,0,0-1.57.15Zm.86-3.17H226c.94,0,1.72.39,1.72,1.28s-.82,1.29-1.71,1.29a6.83,6.83,0,0,1-.72,0Z"/><path class="cls-9" d="M300.67,144.06a4.21,4.21,0,0,1-1.76.32,3.1,3.1,0,0,1-3.27-3.37,3.3,3.3,0,0,1,3.47-3.49,3.58,3.58,0,0,1,1.58.3l-.22.7a3,3,0,0,0-1.33-.28,2.47,2.47,0,0,0-2.59,2.74,2.4,2.4,0,0,0,2.54,2.67,3.61,3.61,0,0,0,1.41-.27l.17.68"/><line class="cls-18" x1="112.48" y1="130.41" x2="144.73" y2="130.41"/><line class="cls-19" x1="34.11" y1="94.43" x2="162.97" y2="94.43"/><rect class="cls-3" x="34.11" y="49.95" width="331.79" height="100.11"/><path class="cls-1" d="M117.49,127.71v-4c0-.52.25-2.77-.36-3-2.49-.74-5-1.27-7.53-1.82-2.13-.45-4.26-.85-6.39-1.29a32.44,32.44,0,0,1-7-1.83A23.75,23.75,0,0,1,92.89,114c-.34-.23-1.2-.58-1.41-1-.36-.63-.71-1.27-1.07-1.91-1.18-2.09-1.52-4.72-2-7-.94-4.7-.69-9.71-.37-14.46a48.06,48.06,0,0,1,.74-6.45,16.16,16.16,0,0,1,.93-3.52,27.7,27.7,0,0,1,1.85-3.33c2.48-3.82,6.68-6.14,10.74-8,2-.91,3.57-2.08,3.31-4.5a26.73,26.73,0,0,0-.65-3,20.15,20.15,0,0,0-2.53-6.88c-.25-.37-.89-.59-1.27-.81a7.27,7.27,0,0,0-1.59-.93,28.21,28.21,0,0,0-3-.67c-2.61-.32-5.24-.77-7.86-.95-4.67-.31-9.43-.19-14.11-.11a94.67,94.67,0,0,0-15.13,1.09,9.58,9.58,0,0,0-3.13.86l-2,1.2A3.55,3.55,0,0,0,53.24,55a15,15,0,0,0-1.31,3.55c-.38,1.15-.57,2.37-.84,3.55a8.07,8.07,0,0,0-.38,2.8c.3,2.48,2.71,3.18,4.68,4.06a34.89,34.89,0,0,1,5.19,3.1,17.64,17.64,0,0,1,4.85,5.29,18.55,18.55,0,0,1,2.3,6.73,47.74,47.74,0,0,1,.61,6.45,79.24,79.24,0,0,1,.1,8c-.16,4.64-.82,9.58-3.12,13.66-1,1.72-3.59,3.1-5.47,3.65-2.52.73-5,1.35-7.55,1.88-2.21.46-4.43.88-6.64,1.36-1.23.26-2.46.51-3.67.81-.54.13-1.08.26-1.61.42-.93.28-1.14.22-1.5,1.12a3.49,3.49,0,0,0,0,1.21v2.2c0,1.21,0,2.41-.07,3.61-.08.89-.2.93.56,1.39a3,3,0,0,0,1.32.26h73.86c.39,0,.79,0,1.18,0a3.77,3.77,0,0,0,1.9-.63c.2-.11-.09-1.54-.11-1.81"/><path class="cls-20" d="M117.49,127.71v-4c0-.52.25-2.77-.36-3-2.49-.74-5-1.27-7.53-1.82-2.13-.45-4.26-.85-6.39-1.29a32.44,32.44,0,0,1-7-1.83A23.75,23.75,0,0,1,92.89,114c-.34-.23-1.2-.58-1.41-1-.36-.63-.71-1.27-1.07-1.91-1.18-2.09-1.52-4.72-2-7-.94-4.7-.69-9.71-.37-14.46a48.06,48.06,0,0,1,.74-6.45,16.16,16.16,0,0,1,.93-3.52,27.7,27.7,0,0,1,1.85-3.33c2.48-3.82,6.68-6.14,10.74-8,2-.91,3.57-2.08,3.31-4.5a26.73,26.73,0,0,0-.65-3,20.15,20.15,0,0,0-2.53-6.88c-.25-.37-.89-.59-1.27-.81a7.27,7.27,0,0,0-1.59-.93,28.21,28.21,0,0,0-3-.67c-2.61-.32-5.24-.77-7.86-.95-4.67-.31-9.43-.19-14.11-.11a94.67,94.67,0,0,0-15.13,1.09,9.58,9.58,0,0,0-3.13.86l-2,1.2A3.55,3.55,0,0,0,53.24,55a15,15,0,0,0-1.31,3.55c-.38,1.15-.57,2.37-.84,3.55a8.07,8.07,0,0,0-.38,2.8c.3,2.48,2.71,3.18,4.68,4.06a34.89,34.89,0,0,1,5.19,3.1,17.64,17.64,0,0,1,4.85,5.29,18.55,18.55,0,0,1,2.3,6.73,47.74,47.74,0,0,1,.61,6.45,79.24,79.24,0,0,1,.1,8c-.16,4.64-.82,9.58-3.12,13.66-1,1.72-3.59,3.1-5.47,3.65-2.52.73-5,1.35-7.55,1.88-2.21.46-4.43.88-6.64,1.36-1.23.26-2.46.51-3.67.81-.54.14-1.08.26-1.61.42-.93.28-1.14.22-1.5,1.12a3.49,3.49,0,0,0,0,1.21v2.2c0,1.21,0,2.41-.07,3.61-.08.89-.2.93.56,1.39a3,3,0,0,0,1.32.26h73.86c.39,0,.79,0,1.18,0a3.77,3.77,0,0,0,1.9-.63c.2-.11-.09-1.54-.11-1.81"/><path class="cls-9" d="M125.91,100.06a47.07,47.07,0,0,1-1.65,4.49h5.58a43.79,43.79,0,0,1-1.65-4.49,33.42,33.42,0,0,1-1.14-4.88,32.15,32.15,0,0,1-1.14,4.88"/><line class="cls-6" x1="127.04" y1="102.67" x2="127.04" y2="106.68"/><path class="cls-9" d="M126.48,101.37a23.35,23.35,0,0,1-.83,2.24h2.79a22,22,0,0,1-.82-2.24,15.75,15.75,0,0,1-.57-2.44,17,17,0,0,1-.57,2.44"/><path class="cls-9" d="M128.18,125a47.07,47.07,0,0,1,1.65-4.49h-5.58A43.79,43.79,0,0,1,125.9,125,32.43,32.43,0,0,1,127,129.9a32.43,32.43,0,0,1,1.14-4.88"/><line class="cls-6" x1="127.04" y1="122.41" x2="127.04" y2="118.26"/><path class="cls-9" d="M127.61,123.71a23.35,23.35,0,0,1,.83-2.24h-2.79a22,22,0,0,1,.82,2.24,15.75,15.75,0,0,1,.57,2.44,17,17,0,0,1,.57-2.44"/></svg>