<svg xmlns="http://www.w3.org/2000/svg" viewBox="0 0 1000 800"><defs><style>.cls-1,.cls-10{fill:#f0f0f0;}.cls-2,.cls-3,.cls-4,.cls-5,.cls-6,.cls-9{fill:none;}.cls-2,.cls-3,.cls-5,.cls-6{stroke:#231f20;}.cls-2{stroke-width:2px;}.cls-5{stroke-dasharray:8.28 2.39;}.cls-6{stroke-dasharray:8.55 2.58;}.cls-7{fill:#231f20;}.cls-8{fill:#303030;}.cls-9{stroke:#303030;}.cls-10,.cls-9{stroke-miterlimit:10;}.cls-10{stroke:#ccc;}.cls-11{fill:#ccc;}</style></defs><g id="Flat"><path class="cls-1" d="M900.69,535.93C883,533.91,710.6,519.1,710.6,519.1l-62-20.75c-11.55-6-23.11-11.82-22.06-40.44l.27-54.1s-2.37-23.9,20.74-29.94l44.32-12.34s16-.8,19.2-24.8,0-104,0-104-2.4-33.6-36-38.4-177.86-7.48-177.86-7.48v.25c-19.54.37-141.62,2.82-172.5,7.23-33.6,4.8-36,38.4-36,38.4s-3.2,80,0,104,19.2,24.8,19.2,24.8l44.32,12.34c23.11,6,20.74,29.94,20.74,29.94l.27,54.1c1.05,28.62-10.51,34.4-22.06,40.44l-62,20.75S116.78,533.91,99.13,535.93c-18.17,2.08-22.4,23.2-22.4,23.2v29.6H923.09v-29.6s-4.24-21.12-22.4-23.2"/><path class="cls-2" d="M900.69,535.93C883,533.91,710.6,519.1,710.6,519.1l-62-20.75c-11.55-6-23.11-11.82-22.06-40.44l.27-54.1s-2.37-23.9,20.74-29.94l44.32-12.34s16-.8,19.2-24.8,0-104,0-104-2.4-33.6-36-38.4-177.86-7.48-177.86-7.48v.25c-19.54.37-141.62,2.82-172.5,7.23-33.6,4.8-36,38.4-36,38.4s-3.2,80,0,104,19.2,24.8,19.2,24.8l44.32,12.34c23.11,6,20.74,29.94,20.74,29.94l.27,54.1c1.05,28.62-10.51,34.4-22.06,40.44l-62,20.75S116.78,533.91,99.13,535.93c-18.17,2.08-22.4,23.2-22.4,23.2v29.6H923.09v-29.6S918.85,538,900.69,535.93Z"/><line class="cls-3" x1="501.45" y1="186.31" x2="998" y2="186.25"/><rect class="cls-4" x="26" y="119.08" width="972" height="561.78"/><line class="cls-3" x1="643.17" y1="518.65" x2="712.26" y2="518.65"/><line class="cls-3" x1="774.81" y1="357.33" x2="705.72" y2="357.33"/><line class="cls-3" x1="567.04" y1="492.31" x2="626.49" y2="492.31"/><line class="cls-3" x1="902.52" y1="535.88" x2="955.69" y2="535.88"/><line class="cls-3" x1="923.43" y1="536.23" x2="923.43" y2="680.86"/><rect class="cls-4" x="26" y="119.08" width="972" height="561.78"/><line class="cls-3" x1="710.6" y1="130.01" x2="710.6" y2="356.16"/><line class="cls-3" x1="626.64" y1="378.23" x2="626.64" y2="492.31"/><line class="cls-3" x1="76.47" y1="588.32" x2="76.47" y2="680.86"/><rect class="cls-4" x="26" y="119.08" width="972" height="561.78"/><line class="cls-3" x1="992.59" y1="588.65" x2="47.56" y2="588.65"/><line class="cls-5" x1="500.73" y1="635.18" x2="499.9" y2="160.75"/><line class="cls-6" x1="871.25" y1="409.18" x2="43.77" y2="408.61"/><line class="cls-3" x1="288.57" y1="130.01" x2="288.57" y2="257.28"/><line class="cls-3" x1="710.73" y1="519.66" x2="710.73" y2="635.18"/><line class="cls-3" x1="625.78" y1="380.49" x2="820.9" y2="380.49"/><line class="cls-3" x1="710.6" y1="356.15" x2="624.95" y2="379.74"/><line class="cls-3" x1="710.73" y1="519.66" x2="626.49" y2="492.31"/><path class="cls-7" d="M881.58,425.05l5.23-7.06-4.63-6.54h2.14l2.5,3.51c.51.72.87,1.25,1.08,1.61.31-.49.67-1,1.09-1.53l2.66-3.59h2l-4.7,6.47,5.09,7.13h-2.21l-3.42-4.83-.58-.81c-.28.42-.49.72-.62.9l-3.45,4.74Z"/><path class="cls-7" d="M26,422.13l5.23-7.05-4.63-6.54h2.13l2.5,3.5a18.36,18.36,0,0,1,1.08,1.62c.32-.49.68-1,1.1-1.53l2.66-3.59h2L33.35,415l5.09,7.13H36.23l-3.42-4.82-.58-.82c-.28.42-.49.72-.62.9l-3.45,4.74Z"/><path class="cls-7" d="M513.47,179.53v-6l-5.49-8.2h2.27l2.82,4.3c.51.81,1,1.6,1.45,2.39.43-.74,1-1.58,1.58-2.5l2.76-4.19h2.19l-5.68,8.2v6Z"/><path class="cls-7" d="M514.22,612.78v-6l-5.49-8.2H511l2.81,4.3c.52.8,1,1.6,1.46,2.4.43-.75,1-1.59,1.58-2.51l2.76-4.19h2.19l-5.68,8.2v6Z"/><rect class="cls-4" x="26" y="119.08" width="972" height="561.78"/><path class="cls-8" d="M793.8,289.35h-2.74v5h-1.29l-7.42-5.22V288h7.42V286.4h1.29V288h2.74Zm-4,0h-5.16l5.16,3.59Z"/><path class="cls-8" d="M790.8,285l-.12-1.48a2.63,2.63,0,0,0,1.62-.76,2.08,2.08,0,0,0,.54-1.44,2.24,2.24,0,0,0-.76-1.72,2.89,2.89,0,0,0-2-.7,2.58,2.58,0,0,0-1.89.67,2.34,2.34,0,0,0-.7,1.77,2.39,2.39,0,0,0,.31,1.23,2.29,2.29,0,0,0,.8.86l-.17,1.32-5.89-1.11v-5.7h1.35v4.58l3.08.61a3.71,3.71,0,0,1-.72-2.16,3.39,3.39,0,0,1,1-2.53,3.62,3.62,0,0,1,2.67-1,4.21,4.21,0,0,1,2.69.91,3.63,3.63,0,0,1,1.39,3,3.68,3.68,0,0,1-.88,2.55A3.37,3.37,0,0,1,790.8,285Z"/><path class="cls-8" d="M793.8,275.27h-1.6v-1.6h1.6Z"/><path class="cls-8" d="M790.8,271.61l-.12-1.47a2.64,2.64,0,0,0,1.62-.77,2.06,2.06,0,0,0,.54-1.44,2.24,2.24,0,0,0-.76-1.72,2.89,2.89,0,0,0-2-.7,2.58,2.58,0,0,0-1.89.67,2.59,2.59,0,0,0-.39,3,2.29,2.29,0,0,0,.8.86l-.17,1.32-5.89-1.11v-5.69h1.35v4.57l3.08.61a3.68,3.68,0,0,1-.72-2.16,3.4,3.4,0,0,1,1-2.53,3.61,3.61,0,0,1,2.67-1,4.2,4.2,0,0,1,2.69.9,3.63,3.63,0,0,1,1.39,3,3.68,3.68,0,0,1-.88,2.55A3.37,3.37,0,0,1,790.8,271.61Z"/><path class="cls-8" d="M740.27,277.72h-2.75v5h-1.29l-7.42-5.23v-1.15h7.42v-1.55h1.29v1.55h2.75Zm-4,0h-5.16l5.16,3.59Z"/><path class="cls-8" d="M734.62,273.33a10.39,10.39,0,0,1-3.27-.42,4,4,0,0,1-1.92-1.24,3.21,3.21,0,0,1-.67-2.07,3.46,3.46,0,0,1,.37-1.62,3.18,3.18,0,0,1,1.07-1.15,5.83,5.83,0,0,1,1.71-.71,11.4,11.4,0,0,1,2.71-.26,10.68,10.68,0,0,1,3.25.41,4.14,4.14,0,0,1,1.92,1.24,3.2,3.2,0,0,1,.67,2.09,3.12,3.12,0,0,1-1.19,2.6A7.56,7.56,0,0,1,734.62,273.33Zm0-1.44a7.16,7.16,0,0,0,3.75-.66,1.88,1.88,0,0,0,0-3.26,11,11,0,0,0-7.51,0,2,2,0,0,0-.93,1.64,1.8,1.8,0,0,0,.82,1.55A7.32,7.32,0,0,0,734.62,271.89Z"/><line class="cls-9" x1="800.04" y1="199.04" x2="800.04" y2="366.75"/><polygon class="cls-8" points="796.23 200.66 800.21 186.25 804.2 200.66 796.23 200.66"/><polygon class="cls-8" points="796.23 366.75 800.21 381.17 804.2 366.75 796.23 366.75"/><line class="cls-9" x1="746.59" y1="199.97" x2="746.59" y2="348.66"/><polygon class="cls-8" points="742.78 200.66 746.76 186.25 750.75 200.66 742.78 200.66"/><polygon class="cls-8" points="742.78 344.22 746.76 358.63 750.75 344.22 742.78 344.22"/><path class="cls-8" d="M467.42,428.68l-1.4.11a2.69,2.69,0,0,0-.53-1.2,1.88,1.88,0,0,0-1.41-.61,1.94,1.94,0,0,0-1.18.38,3.23,3.23,0,0,0-1,1.41,7.56,7.56,0,0,0-.39,2.65,3.24,3.24,0,0,1,1.24-1.15,3.33,3.33,0,0,1,1.54-.37,3.18,3.18,0,0,1,2.39,1,3.7,3.7,0,0,1,1,2.67,4.43,4.43,0,0,1-.46,2,3.47,3.47,0,0,1-1.28,1.42,3.77,3.77,0,0,1-4.71-.81,6.51,6.51,0,0,1-1.11-4.26,7.71,7.71,0,0,1,1.22-4.83,3.56,3.56,0,0,1,2.89-1.31,3.08,3.08,0,0,1,3.25,2.85Zm-5.75,4.94A3.35,3.35,0,0,0,462,435a2.34,2.34,0,0,0,.87,1,2.18,2.18,0,0,0,1.16.35,2,2,0,0,0,1.53-.72,2.81,2.81,0,0,0,.64-1.95,2.65,2.65,0,0,0-.63-1.87,2.06,2.06,0,0,0-1.59-.69,2.15,2.15,0,0,0-1.62.69A2.46,2.46,0,0,0,461.67,433.62Z"/><path class="cls-8" d="M469,431.68a10.47,10.47,0,0,1,.42-3.27,4.06,4.06,0,0,1,1.24-1.91,3.17,3.17,0,0,1,2.08-.67,3.33,3.33,0,0,1,1.61.37,3,3,0,0,1,1.15,1.07,5.51,5.51,0,0,1,.71,1.7,11,11,0,0,1,.26,2.71,10.75,10.75,0,0,1-.41,3.26,4.11,4.11,0,0,1-1.24,1.91,3.48,3.48,0,0,1-4.69-.51A7.59,7.59,0,0,1,469,431.68Zm1.45,0a7.23,7.23,0,0,0,.66,3.76,1.89,1.89,0,0,0,3.26,0,11,11,0,0,0,0-7.51,2,2,0,0,0-1.65-.93,1.82,1.82,0,0,0-1.55.82A7.34,7.34,0,0,0,470.47,431.68Z"/><path class="cls-8" d="M485.45,440.7a14.13,14.13,0,0,1-2-3.44,10.69,10.69,0,0,1-.2-7.64,15,15,0,0,1,2.17-3.94h1a26.18,26.18,0,0,0-1.25,2.32,12.38,12.38,0,0,0-.75,2.25,12.82,12.82,0,0,0-.34,2.94,14.08,14.08,0,0,0,2.34,7.51Z"/><path class="cls-8" d="M495.09,436v1.35h-7.57a2.44,2.44,0,0,1,.16-1,5.41,5.41,0,0,1,.93-1.53,13.93,13.93,0,0,1,1.84-1.73,14.82,14.82,0,0,0,2.52-2.43,2.9,2.9,0,0,0,.66-1.69,1.87,1.87,0,0,0-.6-1.41,2.12,2.12,0,0,0-1.56-.58,2.21,2.21,0,0,0-1.62.61,2.32,2.32,0,0,0-.62,1.69l-1.44-.15a3.51,3.51,0,0,1,1.11-2.46,3.82,3.82,0,0,1,2.61-.85,3.66,3.66,0,0,1,2.61.91,3,3,0,0,1,1,2.27,3.55,3.55,0,0,1-.28,1.35,5.28,5.28,0,0,1-.94,1.4,22.89,22.89,0,0,1-2.17,2,21,21,0,0,0-1.62,1.44,4.54,4.54,0,0,0-.6.76Z"/><path class="cls-8" d="M497.39,437.33v-1.6H499v1.6Z"/><path class="cls-8" d="M501.06,434.31l1.4-.19a3.05,3.05,0,0,0,.83,1.72,2,2,0,0,0,1.42.53,2.25,2.25,0,0,0,1.67-.69,2.3,2.3,0,0,0,.69-1.7,2.17,2.17,0,0,0-2.25-2.23,3.85,3.85,0,0,0-1,.16l.16-1.24.22,0a2.93,2.93,0,0,0,1.62-.47,1.6,1.6,0,0,0,.72-1.45,1.71,1.71,0,0,0-.52-1.28,1.86,1.86,0,0,0-1.36-.51,1.92,1.92,0,0,0-1.36.52,2.59,2.59,0,0,0-.71,1.55l-1.4-.25a3.55,3.55,0,0,1,1.17-2.19,3.38,3.38,0,0,1,2.27-.78,3.73,3.73,0,0,1,1.73.4,2.88,2.88,0,0,1,1.21,1.1,2.79,2.79,0,0,1,.42,1.48,2.48,2.48,0,0,1-.4,1.35,2.8,2.8,0,0,1-1.18,1,2.68,2.68,0,0,1,1.58,1,3,3,0,0,1,.56,1.85,3.37,3.37,0,0,1-1.1,2.54,3.81,3.81,0,0,1-2.76,1.05,3.61,3.61,0,0,1-2.51-.9A3.48,3.48,0,0,1,501.06,434.31Z"/><path class="cls-8" d="M517.25,428.68l-1.4.11a2.58,2.58,0,0,0-.53-1.2,1.88,1.88,0,0,0-1.41-.61,1.94,1.94,0,0,0-1.18.38,3.14,3.14,0,0,0-1,1.41,7.3,7.3,0,0,0-.4,2.65,3.23,3.23,0,0,1,2.78-1.52,3.17,3.17,0,0,1,2.39,1,3.7,3.7,0,0,1,1,2.67,4.43,4.43,0,0,1-.46,2,3.47,3.47,0,0,1-1.28,1.42,3.77,3.77,0,0,1-4.71-.81,6.51,6.51,0,0,1-1.11-4.26,7.65,7.65,0,0,1,1.23-4.83,3.53,3.53,0,0,1,2.88-1.31,3.08,3.08,0,0,1,3.25,2.85Zm-5.74,4.94a3.34,3.34,0,0,0,.3,1.39,2.34,2.34,0,0,0,.87,1,2.18,2.18,0,0,0,1.16.35,2,2,0,0,0,1.53-.72,2.82,2.82,0,0,0,.65-1.95,2.65,2.65,0,0,0-.64-1.87,2.06,2.06,0,0,0-1.59-.69,2.15,2.15,0,0,0-1.62.69A2.46,2.46,0,0,0,511.51,433.62Z"/><path class="cls-8" d="M526.25,436v1.35h-7.58a2.45,2.45,0,0,1,.17-1,5.15,5.15,0,0,1,.92-1.53,14.6,14.6,0,0,1,1.84-1.73,15.38,15.38,0,0,0,2.53-2.43,3,3,0,0,0,.65-1.69,1.89,1.89,0,0,0-.59-1.41,2.14,2.14,0,0,0-1.56-.58,2.23,2.23,0,0,0-1.63.61,2.32,2.32,0,0,0-.62,1.69l-1.44-.15a3.52,3.52,0,0,1,1.12-2.46,3.77,3.77,0,0,1,2.6-.85,3.62,3.62,0,0,1,2.61.91,3,3,0,0,1,1,2.27,3.37,3.37,0,0,1-.28,1.35,5.28,5.28,0,0,1-.94,1.4,22.5,22.5,0,0,1-2.16,2,19.87,19.87,0,0,0-1.63,1.44,4,4,0,0,0-.59.76Z"/><path class="cls-8" d="M528.21,429.93l-.39-2.18v-1.87h1.61v1.87l-.36,2.18Zm2.59,0-.38-2.18v-1.87H532v1.87l-.37,2.18Z"/><path class="cls-8" d="M534.69,440.7h-1a14.08,14.08,0,0,0,2.34-7.51,12.59,12.59,0,0,0-.34-2.92,11.63,11.63,0,0,0-.74-2.25,24.07,24.07,0,0,0-1.26-2.34h1a15,15,0,0,1,2.18,3.94,10.76,10.76,0,0,1-.21,7.64A14.46,14.46,0,0,1,534.69,440.7Z"/><line class="cls-9" x1="385.49" y1="443.21" x2="612.69" y2="443.21"/><polygon class="cls-8" points="388.04 447.02 373.63 443.04 388.04 439.06 388.04 447.02"/><polygon class="cls-8" points="612.23 447.02 626.64 443.04 612.23 439.06 612.23 447.02"/><path class="cls-8" d="M464.25,660.16v1.36h-7.57a2.49,2.49,0,0,1,.16-1,5.19,5.19,0,0,1,.93-1.53,14.63,14.63,0,0,1,1.84-1.73,15.22,15.22,0,0,0,2.52-2.43,2.88,2.88,0,0,0,.66-1.69,1.87,1.87,0,0,0-.6-1.41,2.44,2.44,0,0,0-3.18,0,2.24,2.24,0,0,0-.62,1.68l-1.45-.14a3.59,3.59,0,0,1,1.12-2.47,3.81,3.81,0,0,1,2.6-.85,3.63,3.63,0,0,1,2.61.92,3,3,0,0,1,1,2.26,3.38,3.38,0,0,1-.29,1.35,4.85,4.85,0,0,1-.93,1.4,22.83,22.83,0,0,1-2.17,2c-.84.71-1.39,1.19-1.62,1.44a5,5,0,0,0-.6.76Z"/><path class="cls-8" d="M465.76,655.87a10.5,10.5,0,0,1,.42-3.28,4.11,4.11,0,0,1,1.24-1.91,3.22,3.22,0,0,1,2.08-.67,3.33,3.33,0,0,1,1.61.37,3.1,3.1,0,0,1,1.15,1.07,5.83,5.83,0,0,1,.71,1.71,11.4,11.4,0,0,1,.26,2.71,10.72,10.72,0,0,1-.41,3.25,4.14,4.14,0,0,1-1.24,1.92,3.19,3.19,0,0,1-2.08.67,3.13,3.13,0,0,1-2.61-1.19A7.56,7.56,0,0,1,465.76,655.87Zm1.45,0c0,1.88.21,3.13.66,3.75a1.88,1.88,0,0,0,3.25,0,10.86,10.86,0,0,0,0-7.51,2,2,0,0,0-1.64-.93,1.8,1.8,0,0,0-1.55.82A7.29,7.29,0,0,0,467.21,655.87Z"/><path class="cls-8" d="M474.66,655.87a10.5,10.5,0,0,1,.42-3.28,4.11,4.11,0,0,1,1.24-1.91,3.22,3.22,0,0,1,2.08-.67,3.33,3.33,0,0,1,1.61.37,3.1,3.1,0,0,1,1.15,1.07,5.83,5.83,0,0,1,.72,1.71,11.48,11.48,0,0,1,.25,2.71,10.41,10.41,0,0,1-.41,3.25,4.14,4.14,0,0,1-1.24,1.92,3.17,3.17,0,0,1-2.08.67,3.13,3.13,0,0,1-2.61-1.19A7.56,7.56,0,0,1,474.66,655.87Zm1.45,0a7.16,7.16,0,0,0,.66,3.75,1.89,1.89,0,0,0,3.26,0,11,11,0,0,0,0-7.51,2,2,0,0,0-1.65-.93,1.81,1.81,0,0,0-1.55.82A7.29,7.29,0,0,0,476.11,655.87Z"/><path class="cls-8" d="M491.09,664.88a14.06,14.06,0,0,1-2-3.43,10.71,10.71,0,0,1-.2-7.65,15,15,0,0,1,2.17-3.94h1c-.63,1.09-1.05,1.86-1.25,2.32a12.38,12.38,0,0,0-.75,2.25,12.82,12.82,0,0,0-.34,2.94,14.08,14.08,0,0,0,2.34,7.51Z"/><path class="cls-8" d="M493.43,651.56v-1.35h7.42v1.09a15.83,15.83,0,0,0-2.17,3.1,19,19,0,0,0-1.66,4,15,15,0,0,0-.54,3.15H495a13.65,13.65,0,0,1,.53-3.27,16.68,16.68,0,0,1,1.46-3.69,15.64,15.64,0,0,1,2-3Z"/><path class="cls-8" d="M503,661.52v-1.61h1.6v1.61Z"/><path class="cls-8" d="M508.85,655.3a2.64,2.64,0,0,1-1.29-.91,2.34,2.34,0,0,1-.43-1.42,2.79,2.79,0,0,1,.9-2.11,3.79,3.79,0,0,1,4.81,0,2.82,2.82,0,0,1,.91,2.12,2.38,2.38,0,0,1-.41,1.39,2.61,2.61,0,0,1-1.27.91,3.1,3.1,0,0,1,1.6,1.11,3,3,0,0,1,.55,1.83,3.27,3.27,0,0,1-1,2.47,3.75,3.75,0,0,1-2.73,1,3.79,3.79,0,0,1-2.74-1,3.36,3.36,0,0,1-1-2.51,3,3,0,0,1,.57-1.87A2.87,2.87,0,0,1,508.85,655.3Zm-.73,2.91a2.51,2.51,0,0,0,.28,1.16,2.06,2.06,0,0,0,.85.88,2.55,2.55,0,0,0,1.21.3,2.28,2.28,0,0,0,1.67-.64,2.4,2.4,0,0,0,0-3.33,2.3,2.3,0,0,0-1.69-.67,2.22,2.22,0,0,0-1.65.66A2.25,2.25,0,0,0,508.12,658.21Zm.45-5.29a1.8,1.8,0,0,0,.53,1.33,1.86,1.86,0,0,0,1.36.51,1.83,1.83,0,0,0,1.33-.51,1.71,1.71,0,0,0,.52-1.25,1.74,1.74,0,0,0-.54-1.3,1.78,1.78,0,0,0-1.33-.53,1.87,1.87,0,0,0-1.34.51A1.7,1.7,0,0,0,508.57,652.92Z"/><path class="cls-8" d="M515.68,651.56v-1.35h7.42v1.09a15.83,15.83,0,0,0-2.17,3.1,19,19,0,0,0-1.66,4,15,15,0,0,0-.54,3.15h-1.44a13.65,13.65,0,0,1,.53-3.27,16.68,16.68,0,0,1,1.46-3.69,15.64,15.64,0,0,1,2-3Z"/><path class="cls-8" d="M529,661.52v-2.75h-5v-1.29l5.23-7.42h1.15v7.42H532v1.29h-1.55v2.75Zm0-4v-5.16l-3.59,5.16Z"/><path class="cls-8" d="M533.85,654.11l-.39-2.18v-1.87h1.61v1.87l-.36,2.18Zm2.59,0-.38-2.18v-1.87h1.6v1.87l-.37,2.18Z"/><path class="cls-8" d="M540.33,664.88h-1a14.08,14.08,0,0,0,2.34-7.51,13,13,0,0,0-.34-2.91,12.35,12.35,0,0,0-.74-2.25,25.12,25.12,0,0,0-1.26-2.35h1a15,15,0,0,1,2.17,3.94,10.79,10.79,0,0,1-.21,7.65A14.37,14.37,0,0,1,540.33,664.88Z"/><line class="cls-9" x1="88.33" y1="667.53" x2="914.25" y2="667.53"/><polygon class="cls-8" points="90.88 671.34 76.47 667.36 90.88 663.38 90.88 671.34"/><polygon class="cls-8" points="909.02 671.34 923.43 667.36 909.02 663.38 909.02 671.34"/><path class="cls-8" d="M114.72,563.11l-4.46-10.55,4.67-2a7.08,7.08,0,0,1,2.27-.62,2.52,2.52,0,0,1,1.6.51,3.34,3.34,0,0,1,1.11,1.4,2.85,2.85,0,0,1,.07,2.2,4,4,0,0,1-1.83,1.93,4.25,4.25,0,0,1,1.06.17,7.65,7.65,0,0,1,1.76.92l3,2.09-1.76.74-2.32-1.6c-.68-.46-1.22-.8-1.63-1a3.69,3.69,0,0,0-1-.41,2.42,2.42,0,0,0-.76,0,4.33,4.33,0,0,0-.8.27l-1.62.69,2,4.68Zm-1.1-6.48,3-1.27a5.1,5.1,0,0,0,1.42-.83,1.8,1.8,0,0,0,.55-1,2,2,0,0,0-.12-1.07,1.72,1.72,0,0,0-1.06-1,2.78,2.78,0,0,0-1.93.24l-3.34,1.42Z"/><path class="cls-8" d="M129.69,556.77l-1.3.54-3.49-8.25a7.42,7.42,0,0,1-.85,1.41,8.87,8.87,0,0,1-1.08,1.24l-.53-1.25a8.54,8.54,0,0,0,1.38-2,5.36,5.36,0,0,0,.55-1.9l.84-.35Z"/><path class="cls-8" d="M133.73,555l-.63-1.47,1.48-.63.62,1.48Z"/><path class="cls-8" d="M135.93,550.85l1.31-.69a2.65,2.65,0,0,0,1.33,1.2,2.06,2.06,0,0,0,1.54-.06,2.29,2.29,0,0,0,1.29-1.38,2.88,2.88,0,0,0-.15-2.14,2.58,2.58,0,0,0-1.36-1.49,2.34,2.34,0,0,0-1.9.05,2.42,2.42,0,0,0-1,.76,2.3,2.3,0,0,0-.48,1.07l-1.28.36L134,542.68l5.25-2.22.52,1.24-4.21,1.78.63,3.07a3.68,3.68,0,0,1,1.71-1.5,3.44,3.44,0,0,1,2.74,0,3.64,3.64,0,0,1,2,2.06,4.21,4.21,0,0,1,.21,2.83,3.61,3.61,0,0,1-2.23,2.45,3.69,3.69,0,0,1-2.69.19A3.42,3.42,0,0,1,135.93,550.85Z"/><line class="cls-9" x1="88.19" y1="583.68" x2="147.64" y2="556.43"/><polygon class="cls-8" points="91.49 586.37 76.73 588.75 88.17 579.12 91.49 586.37"/><path class="cls-8" d="M53.5,508.28H50.76v5H49.47L42,508v-1.15h7.43v-1.55h1.29v1.55H53.5Zm-4,0H44.3l5.17,3.58Z"/><path class="cls-8" d="M52.15,496.49H53.5v7.58a2.45,2.45,0,0,1-1-.17A5,5,0,0,1,51,503a13.32,13.32,0,0,1-1.73-1.84,15.64,15.64,0,0,0-2.43-2.52,2.9,2.9,0,0,0-1.69-.66,1.87,1.87,0,0,0-1.41.6,2.14,2.14,0,0,0-.58,1.56,2.23,2.23,0,0,0,.61,1.63,2.32,2.32,0,0,0,1.69.61l-.15,1.45a3.52,3.52,0,0,1-2.46-1.12,3.77,3.77,0,0,1-.85-2.6,3.62,3.62,0,0,1,.91-2.61,3,3,0,0,1,2.27-1,3.37,3.37,0,0,1,1.35.28,5.47,5.47,0,0,1,1.4.93,24.23,24.23,0,0,1,2,2.17,19.87,19.87,0,0,0,1.44,1.63,4,4,0,0,0,.76.59Z"/><path class="cls-8" d="M53.5,494.19H51.9v-1.6h1.6Z"/><path class="cls-8" d="M53.5,485.25v1.41h-9a7.28,7.28,0,0,1,1,1.33,10.53,10.53,0,0,1,.73,1.48H44.88a8.35,8.35,0,0,0-1.35-2.06A5.17,5.17,0,0,0,42,486.16v-.91Z"/><line class="cls-9" x1="59.74" y1="422.54" x2="59.74" y2="573.45"/><polygon class="cls-8" points="55.93 422.54 59.91 408.13 63.9 422.54 55.93 422.54"/><polygon class="cls-8" points="55.93 573.46 59.91 587.87 63.9 573.46 55.93 573.46"/><path class="cls-8" d="M345.47,224.06l5.74-9.91,4.39,2.55a6.61,6.61,0,0,1,1.86,1.43,2.49,2.49,0,0,1,.56,1.58,3.38,3.38,0,0,1-.45,1.74,2.9,2.9,0,0,1-1.72,1.38,4,4,0,0,1-2.64-.3,3.91,3.91,0,0,1,.51.95,7.94,7.94,0,0,1,.32,2l.16,3.69-1.65-1-.11-2.82c0-.82-.1-1.46-.16-1.92a3.7,3.7,0,0,0-.28-1.05,2.36,2.36,0,0,0-.45-.61,4.51,4.51,0,0,0-.7-.47l-1.52-.88-2.55,4.4Zm4.52-4.78,2.82,1.64a4.77,4.77,0,0,0,1.51.63,1.77,1.77,0,0,0,1.12-.15,1.83,1.83,0,0,0,.77-.74,1.66,1.66,0,0,0,.16-1.45,2.73,2.73,0,0,0-1.35-1.39L351.89,216Z"/><path class="cls-8" d="M359.54,232.21l-1.22-.7,4.49-7.76a7,7,0,0,1-1.64.17,8.87,8.87,0,0,1-1.64-.11l.68-1.18a8,8,0,0,0,2.46-.13,5.43,5.43,0,0,0,1.85-.69l.78.45Z"/><path class="cls-8" d="M365.48,229.13a10.53,10.53,0,0,1,2-2.62,4.06,4.06,0,0,1,2-1,3.17,3.17,0,0,1,2.13.46,3.31,3.31,0,0,1,1.21,1.13,3.11,3.11,0,0,1,.46,1.5,5.56,5.56,0,0,1-.24,1.83,11,11,0,0,1-1.13,2.48,10.63,10.63,0,0,1-2,2.61,4.06,4.06,0,0,1-2,1,3.5,3.5,0,0,1-3.8-2.79C364,232.53,364.41,231,365.48,229.13Zm1.26.73a7.21,7.21,0,0,0-1.32,3.58,1.9,1.9,0,0,0,2.83,1.63,11,11,0,0,0,3.76-6.5,2,2,0,0,0-1-1.63,1.81,1.81,0,0,0-1.75-.07A7.31,7.31,0,0,0,366.74,229.86Z"/><line class="cls-9" x1="310.75" y1="214.89" x2="368.3" y2="245.97"/><polygon class="cls-8" points="310.6 219.15 299.81 208.79 314.38 212.14 310.6 219.15"/><path class="cls-8" d="M323.85,316.85l-8.1-8.1,3.59-3.59a6.66,6.66,0,0,1,1.87-1.43,2.57,2.57,0,0,1,1.67-.13,3.32,3.32,0,0,1,1.56.89,2.87,2.87,0,0,1,.89,2,4,4,0,0,1-1,2.47,4.47,4.47,0,0,1,1.05-.24,7.76,7.76,0,0,1,2,.19l3.61.8-1.35,1.34-2.76-.61c-.8-.17-1.43-.29-1.89-.34a3.2,3.2,0,0,0-1.08,0,2.5,2.5,0,0,0-.71.27,4.74,4.74,0,0,0-.63.56l-1.25,1.24,3.6,3.6Zm-3.45-5.59,2.3-2.31a5,5,0,0,0,1-1.3,1.77,1.77,0,0,0,.14-1.12,1.89,1.89,0,0,0-.51-.94,1.72,1.72,0,0,0-1.36-.53,2.75,2.75,0,0,0-1.69.95l-2.57,2.56Z"/><path class="cls-8" d="M330.64,297.84l-.91,1.06a2.61,2.61,0,0,0-1.23-.47,1.82,1.82,0,0,0-1.42.57,1.87,1.87,0,0,0-.57,1.1,3.23,3.23,0,0,0,.26,1.74,7.48,7.48,0,0,0,1.59,2.15,3.31,3.31,0,0,1,.07-1.69,3.35,3.35,0,0,1,.82-1.35,3.13,3.13,0,0,1,2.43-1,3.72,3.72,0,0,1,2.59,1.19,4.41,4.41,0,0,1,1.09,1.75,3.35,3.35,0,0,1,.1,1.9,3.56,3.56,0,0,1-1,1.66,3.62,3.62,0,0,1-2.94,1.11,6.53,6.53,0,0,1-3.8-2.23q-2.36-2.36-2.55-4.29a3.54,3.54,0,0,1,1.11-3,3.07,3.07,0,0,1,4.32-.28Zm-.57,7.55a3.3,3.3,0,0,0,1.2.77,2.35,2.35,0,0,0,1.33.1,2.2,2.2,0,0,0,1.07-.58,2,2,0,0,0,.57-1.59,2.8,2.8,0,0,0-.93-1.83,2.68,2.68,0,0,0-1.77-.88,2.1,2.1,0,0,0-1.61.64,2.18,2.18,0,0,0-.66,1.63A2.43,2.43,0,0,0,330.07,305.39Z"/><line class="cls-9" x1="305.87" y1="348.11" x2="350.72" y2="300.51"/><polygon class="cls-8" points="309.94 349.36 297.15 357.12 304.14 343.9 309.94 349.36"/><path class="cls-8" d="M392.79,340.89l-8.1-8.1,3.6-3.59a6.79,6.79,0,0,1,1.86-1.43,2.57,2.57,0,0,1,1.67-.13,3.23,3.23,0,0,1,1.56.89,2.88,2.88,0,0,1,.9,2,4,4,0,0,1-1,2.47,4.47,4.47,0,0,1,1.05-.24,7.76,7.76,0,0,1,2,.19l3.61.8-1.34,1.34-2.76-.61c-.8-.17-1.43-.29-1.89-.34a3.27,3.27,0,0,0-1.09,0,2.43,2.43,0,0,0-.7.27,4.67,4.67,0,0,0-.64.56l-1.24,1.24,3.6,3.6Zm-3.45-5.59,2.31-2.31a4.69,4.69,0,0,0,1-1.3,1.71,1.71,0,0,0,.15-1.12,1.89,1.89,0,0,0-.51-.94,1.74,1.74,0,0,0-1.37-.53,2.76,2.76,0,0,0-1.68.95l-2.57,2.56Z"/><path class="cls-8" d="M399.58,321.88l-.91,1.06a2.61,2.61,0,0,0-1.23-.47A1.83,1.83,0,0,0,396,323a1.93,1.93,0,0,0-.57,1.1,3.23,3.23,0,0,0,.26,1.74A7.35,7.35,0,0,0,397.3,328a3.31,3.31,0,0,1,.07-1.69,3.35,3.35,0,0,1,.82-1.35,3.2,3.2,0,0,1,2.43-1,3.72,3.72,0,0,1,2.59,1.19A4.41,4.41,0,0,1,404.3,327a3.38,3.38,0,0,1,.1,1.91,3.49,3.49,0,0,1-1,1.65,3.59,3.59,0,0,1-2.94,1.11,6.56,6.56,0,0,1-3.8-2.23,7.67,7.67,0,0,1-2.55-4.28,3.55,3.55,0,0,1,1.11-3,3.07,3.07,0,0,1,4.32-.28Zm-.57,7.55a3.3,3.3,0,0,0,1.2.77,2.27,2.27,0,0,0,1.33.1,2.18,2.18,0,0,0,1.07-.57,2,2,0,0,0,.57-1.6,2.78,2.78,0,0,0-.92-1.83,2.68,2.68,0,0,0-1.78-.88,2.08,2.08,0,0,0-1.61.65,2.16,2.16,0,0,0-.66,1.62A2.47,2.47,0,0,0,399,329.43Z"/><line class="cls-9" x1="374.82" y1="372.16" x2="419.67" y2="324.56"/><polygon class="cls-8" points="378.89 373.41 366.1 381.17 373.09 367.94 378.89 373.41"/><path class="cls-8" d="M408.73,512.11l8.11-8.1,3.59,3.59a7,7,0,0,1,1.43,1.87,2.57,2.57,0,0,1,.13,1.67,3.32,3.32,0,0,1-.89,1.56,2.92,2.92,0,0,1-2,.9,4,4,0,0,1-2.48-1,4.09,4.09,0,0,1,.25,1,8.24,8.24,0,0,1-.19,2l-.8,3.61-1.35-1.35.62-2.75c.17-.8.28-1.43.34-1.89a3.55,3.55,0,0,0,0-1.09,2.19,2.19,0,0,0-.28-.7,4.43,4.43,0,0,0-.55-.64l-1.25-1.24-3.6,3.59Zm5.6-3.45,2.31,2.3a4.76,4.76,0,0,0,1.3,1,1.74,1.74,0,0,0,1.11.15,1.86,1.86,0,0,0,.95-.52,1.7,1.7,0,0,0,.52-1.36,2.75,2.75,0,0,0-.94-1.69L417,506Z"/><path class="cls-8" d="M422.4,517a2.5,2.5,0,0,1-.27-1.56,2.36,2.36,0,0,1,.7-1.3,2.76,2.76,0,0,1,2.13-.85,3.78,3.78,0,0,1,3.38,3.41,2.83,2.83,0,0,1-.85,2.15,2.4,2.4,0,0,1-1.28.68,2.63,2.63,0,0,1-1.54-.25,3.13,3.13,0,0,1,.35,1.92,3,3,0,0,1-.91,1.68,3.29,3.29,0,0,1-2.48,1,3.79,3.79,0,0,1-2.64-1.23,3.73,3.73,0,0,1-1.22-2.64,3.35,3.35,0,0,1,1-2.51,3.11,3.11,0,0,1,1.73-.92A2.87,2.87,0,0,1,422.4,517Zm-2.58,1.54a2.57,2.57,0,0,0-.62,1,2,2,0,0,0,0,1.21,2.49,2.49,0,0,0,.64,1.08,2.26,2.26,0,0,0,1.64.71,2.21,2.21,0,0,0,1.63-.7,2.26,2.26,0,0,0,.71-1.66,2.35,2.35,0,0,0-.73-1.67,2.23,2.23,0,0,0-1.63-.7A2.26,2.26,0,0,0,419.82,518.53Zm4.06-3.42a1.81,1.81,0,0,0-.57,1.31,1.92,1.92,0,0,0,.6,1.33,1.85,1.85,0,0,0,1.3.58,1.71,1.71,0,0,0,1.26-.52,1.82,1.82,0,0,0,0-2.62,1.84,1.84,0,0,0-1.31-.58A1.7,1.7,0,0,0,423.88,515.11Z"/><line class="cls-9" x1="377.39" y1="494.16" x2="424.99" y2="539.01"/><polygon class="cls-8" points="376.14 498.23 368.38 485.45 381.61 492.43 376.14 498.23"/><path class="cls-8" d="M852,572.86l-5.76-9.9,4.39-2.56a6.8,6.8,0,0,1,2.16-.9,2.53,2.53,0,0,1,1.65.3,3.21,3.21,0,0,1,1.28,1.25,2.92,2.92,0,0,1,.36,2.18,4,4,0,0,1-1.58,2.14,4,4,0,0,1,1.08,0,7.36,7.36,0,0,1,1.85.68l3.29,1.69-1.64,1-2.51-1.3q-1.1-.56-1.74-.81a3.75,3.75,0,0,0-1.05-.28,2.37,2.37,0,0,0-.76.09,5.21,5.21,0,0,0-.75.38l-1.52.88,2.56,4.4Zm-1.91-6.29,2.81-1.64a4.84,4.84,0,0,0,1.3-1,1.71,1.71,0,0,0,.43-1,1.9,1.9,0,0,0-.26-1,1.7,1.7,0,0,0-1.18-.86,2.77,2.77,0,0,0-1.87.49l-3.14,1.82Z"/><path class="cls-8" d="M863.46,556.2l-1.15.8a2.61,2.61,0,0,0-1.07-.78,1.89,1.89,0,0,0-1.52.19,2,2,0,0,0-.83.92,3.21,3.21,0,0,0-.19,1.75,7.39,7.39,0,0,0,1,2.49,3.19,3.19,0,0,1,.49-1.62,3.42,3.42,0,0,1,1.14-1.1,3.24,3.24,0,0,1,2.6-.31,3.74,3.74,0,0,1,2.2,1.82,4.39,4.39,0,0,1,.6,2,3.31,3.31,0,0,1-.39,1.86,3.46,3.46,0,0,1-1.35,1.36,3.56,3.56,0,0,1-3.12.32,6.48,6.48,0,0,1-3.11-3.13q-1.66-2.87-1.37-4.79a3.52,3.52,0,0,1,1.84-2.58,3.17,3.17,0,0,1,2.29-.46A3.26,3.26,0,0,1,863.46,556.2ZM861,563.36a3.11,3.11,0,0,0,1,1,2.26,2.26,0,0,0,1.25.44,2.13,2.13,0,0,0,1.18-.28,2,2,0,0,0,1-1.39,2.89,2.89,0,0,0-.43-2,2.64,2.64,0,0,0-1.49-1.3,2,2,0,0,0-1.72.21,2.17,2.17,0,0,0-1.06,1.4A2.5,2.5,0,0,0,861,563.36Z"/><line class="cls-9" x1="903.64" y1="549.59" x2="848.11" y2="584.15"/><polygon class="cls-8" points="900.02 547.34 914.36 543.1 904.23 554.1 900.02 547.34"/><line class="cls-3" x1="948.75" y1="535.88" x2="948.79" y2="588.48"/><line class="cls-3" x1="949.19" y1="476.38" x2="949.19" y2="521.05"/><line class="cls-3" x1="949.19" y1="630.33" x2="949.19" y2="592.93"/><polygon class="cls-8" points="944.76 521.05 948.74 535.46 952.73 521.05 944.76 521.05"/><polygon class="cls-8" points="952.73 602.89 948.75 588.48 944.76 602.89 952.73 602.89"/><path class="cls-8" d="M943.5,565.11v1.4h-9a7.38,7.38,0,0,1,1,1.34,8.71,8.71,0,0,1,.73,1.48h-1.36a8.42,8.42,0,0,0-1.34-2.06A5.52,5.52,0,0,0,932,566v-.9Z"/><path class="cls-8" d="M942.15,554.11h1.35v7.58a2.53,2.53,0,0,1-1-.17,5.07,5.07,0,0,1-1.52-.93,13.93,13.93,0,0,1-1.74-1.84,16.14,16.14,0,0,0-2.42-2.52,2.9,2.9,0,0,0-1.69-.66,1.9,1.9,0,0,0-1.42.6,2.17,2.17,0,0,0-.57,1.56,2.19,2.19,0,0,0,.61,1.63,2.32,2.32,0,0,0,1.69.61l-.15,1.45a3.57,3.57,0,0,1-2.47-1.12,3.82,3.82,0,0,1-.84-2.6,3.62,3.62,0,0,1,.91-2.61,3,3,0,0,1,2.27-1,3.4,3.4,0,0,1,1.35.28,5.47,5.47,0,0,1,1.4.93,23,23,0,0,1,2,2.17,21.39,21.39,0,0,0,1.45,1.63,4,4,0,0,0,.76.59Z"/><path class="cls-8" d="M643.16,566.85v1.4h-9a7.39,7.39,0,0,1,1,1.34,10.53,10.53,0,0,1,.73,1.48h-1.36a8.16,8.16,0,0,0-1.35-2.06,5.25,5.25,0,0,0-1.53-1.26v-.9Z"/><path class="cls-8" d="M634.51,556l.11,1.4a2.58,2.58,0,0,0-1.2.53,1.86,1.86,0,0,0-.6,1.4,1.93,1.93,0,0,0,.37,1.18,3.12,3.12,0,0,0,1.42,1,7.26,7.26,0,0,0,2.65.4,3.23,3.23,0,0,1-1.15-1.24,3.37,3.37,0,0,1-.38-1.54,3.2,3.2,0,0,1,1-2.4,3.7,3.7,0,0,1,2.67-1,4.44,4.44,0,0,1,2,.47,3.34,3.34,0,0,1,1.42,1.28,3.45,3.45,0,0,1,.49,1.84,3.62,3.62,0,0,1-1.29,2.87,6.56,6.56,0,0,1-4.27,1.11,7.65,7.65,0,0,1-4.83-1.23,3.53,3.53,0,0,1-1.31-2.88,3.24,3.24,0,0,1,.76-2.22A3.2,3.2,0,0,1,634.51,556Zm4.94,5.74a3.17,3.17,0,0,0,1.39-.31,2.28,2.28,0,0,0,1-.86,2.18,2.18,0,0,0,.34-1.17,2,2,0,0,0-.72-1.53,2.81,2.81,0,0,0-2-.64,2.65,2.65,0,0,0-1.87.63,2.1,2.1,0,0,0-.69,1.6,2.19,2.19,0,0,0,.69,1.62A2.46,2.46,0,0,0,639.45,561.69Z"/><path class="cls-8" d="M643.16,553.55h-1.6V552h1.6Z"/><path class="cls-8" d="M640.16,549.9l-.12-1.48a2.63,2.63,0,0,0,1.62-.76,2.08,2.08,0,0,0,.54-1.44,2.24,2.24,0,0,0-.76-1.72,2.89,2.89,0,0,0-2-.71,2.6,2.6,0,0,0-1.9.68,2.34,2.34,0,0,0-.7,1.77,2.46,2.46,0,0,0,1.11,2.09l-.17,1.32-5.89-1.11v-5.7h1.35v4.57l3.08.62a3.74,3.74,0,0,1-.72-2.17,3.4,3.4,0,0,1,1-2.53,3.61,3.61,0,0,1,2.67-1,4.15,4.15,0,0,1,2.69.91,3.62,3.62,0,0,1,1.39,3,3.68,3.68,0,0,1-.88,2.55A3.42,3.42,0,0,1,640.16,549.9Z"/><path class="cls-8" d="M594.7,619.49l1.48-.12a2.63,2.63,0,0,0,.76,1.62,2.08,2.08,0,0,0,1.44.54,2.24,2.24,0,0,0,1.72-.76,2.88,2.88,0,0,0,.7-2,2.59,2.59,0,0,0-.67-1.9,2.34,2.34,0,0,0-1.77-.7,2.46,2.46,0,0,0-2.09,1.11l-1.32-.17,1.11-5.89h5.7v1.35h-4.58l-.61,3.08a3.71,3.71,0,0,1,2.16-.72,3.39,3.39,0,0,1,2.53,1,3.61,3.61,0,0,1,1,2.67,4.2,4.2,0,0,1-.9,2.69,3.63,3.63,0,0,1-3,1.39,3.68,3.68,0,0,1-2.55-.88A3.37,3.37,0,0,1,594.7,619.49Z"/><path class="cls-8" d="M603.6,616.84a10.47,10.47,0,0,1,.42-3.27,4.11,4.11,0,0,1,1.24-1.91,3.17,3.17,0,0,1,2.08-.67,3.33,3.33,0,0,1,1.61.37,3.1,3.1,0,0,1,1.15,1.07,5.83,5.83,0,0,1,.71,1.71,13.59,13.59,0,0,1-.15,6,4.11,4.11,0,0,1-1.24,1.91,3.19,3.19,0,0,1-2.08.68,3.16,3.16,0,0,1-2.61-1.19A7.57,7.57,0,0,1,603.6,616.84Zm1.45,0a7.2,7.2,0,0,0,.66,3.76,1.88,1.88,0,0,0,3.25,0c.45-.62.67-1.87.67-3.75a7.08,7.08,0,0,0-.67-3.76,2,2,0,0,0-1.64-.93,1.82,1.82,0,0,0-1.55.82A7.34,7.34,0,0,0,605.05,616.84Z"/><line class="cls-9" x1="511.45" y1="628.37" x2="696.57" y2="628.37"/><polygon class="cls-8" points="515.94 632.18 501.52 628.2 515.94 624.22 515.94 632.18"/><polygon class="cls-8" points="696.11 632.18 710.52 628.2 696.11 624.22 696.11 632.18"/><line class="cls-9" x1="648.22" y1="531.17" x2="648.22" y2="579.02"/><polygon class="cls-8" points="644.41 533.07 648.39 518.65 652.38 533.07 644.41 533.07"/><polygon class="cls-8" points="644.41 574.59 648.39 589 652.38 574.59 644.41 574.59"/><path class="cls-8" d="M569.27,540.54h1.36v7.57a2.49,2.49,0,0,1-1-.16,5,5,0,0,1-1.52-.93,14.59,14.59,0,0,1-1.74-1.84,15.64,15.64,0,0,0-2.43-2.52,2.88,2.88,0,0,0-1.69-.66,1.87,1.87,0,0,0-1.41.6,2.44,2.44,0,0,0,0,3.18,2.26,2.26,0,0,0,1.68.62l-.14,1.45a3.57,3.57,0,0,1-2.47-1.12,3.84,3.84,0,0,1-.85-2.6,3.63,3.63,0,0,1,.92-2.61,3,3,0,0,1,2.26-1,3.45,3.45,0,0,1,1.36.28,5.18,5.18,0,0,1,1.39.93,22.83,22.83,0,0,1,2,2.17c.71.84,1.19,1.39,1.44,1.63a6.28,6.28,0,0,0,.76.59Z"/><path class="cls-8" d="M567.6,539l-.18-1.4a3.09,3.09,0,0,0,1.72-.83,2,2,0,0,0,.53-1.42,2.25,2.25,0,0,0-.69-1.67,2.32,2.32,0,0,0-1.71-.69,2.16,2.16,0,0,0-1.59.64,2.19,2.19,0,0,0-.63,1.61,4.25,4.25,0,0,0,.15,1l-1.23-.16a1.94,1.94,0,0,0,0-.22,2.85,2.85,0,0,0-.47-1.62,1.59,1.59,0,0,0-1.44-.72,1.7,1.7,0,0,0-1.28.52,1.86,1.86,0,0,0-.51,1.36,1.91,1.91,0,0,0,.51,1.36,2.64,2.64,0,0,0,1.55.71l-.25,1.4a3.61,3.61,0,0,1-2.19-1.17,3.38,3.38,0,0,1-.78-2.27,3.74,3.74,0,0,1,.41-1.73,2.86,2.86,0,0,1,2.57-1.63,2.43,2.43,0,0,1,1.35.4,1,1,0,1,0,1.94-.4,3,3,0,0,1,1.85-.56,3.41,3.41,0,0,1,2.55,1.1,3.85,3.85,0,0,1,1,2.76,3.61,3.61,0,0,1-.9,2.51A3.46,3.46,0,0,1,567.6,539Z"/><line class="cls-9" x1="575.69" y1="505.99" x2="575.69" y2="579.02"/><polygon class="cls-8" points="571.87 506.73 575.85 492.31 579.84 506.73 571.87 506.73"/><polygon class="cls-8" points="571.87 574.59 575.85 589 579.84 574.59 571.87 574.59"/><path class="cls-8" d="M969.76,417.37l-.13-1.35a2.24,2.24,0,0,0,1.38-.66,1.77,1.77,0,0,0,.44-1.24,2.16,2.16,0,0,0-.3-1.14,2.45,2.45,0,0,0-.8-.8,4.51,4.51,0,0,0-1.34-.52,7,7,0,0,0-1.72-.21H967a3.26,3.26,0,0,1,1.51,2.73,3.2,3.2,0,0,1-1,2.41,3.8,3.8,0,0,1-2.72,1,3.86,3.86,0,0,1-2.81-1A3.45,3.45,0,0,1,960.9,414a3.64,3.64,0,0,1,.6-2,3.82,3.82,0,0,1,1.72-1.41,8.45,8.45,0,0,1,3.22-.48,10.37,10.37,0,0,1,3.5.48,4.05,4.05,0,0,1,2,1.41,3.65,3.65,0,0,1,.68,2.21,3.25,3.25,0,0,1-.74,2.2A3.19,3.19,0,0,1,969.76,417.37Zm-5.06-5.76a2.74,2.74,0,0,0-1.92.65,2,2,0,0,0-.71,1.55,2.13,2.13,0,0,0,.76,1.63,2.81,2.81,0,0,0,2,.7,2.46,2.46,0,0,0,1.78-.66,2.2,2.2,0,0,0,.68-1.63,2.11,2.11,0,0,0-.68-1.61A2.71,2.71,0,0,0,964.7,411.61Z"/><path class="cls-8" d="M969.41,408.68l-.13-1.48a2.63,2.63,0,0,0,1.62-.76,2.09,2.09,0,0,0,.55-1.44,2.25,2.25,0,0,0-.77-1.72,2.88,2.88,0,0,0-2-.7,2.59,2.59,0,0,0-1.9.67,2.34,2.34,0,0,0-.7,1.77,2.5,2.5,0,0,0,.31,1.23,2.37,2.37,0,0,0,.8.86l-.17,1.32-5.88-1.11v-5.7h1.34v4.58l3.08.61a3.71,3.71,0,0,1-.72-2.16,3.42,3.42,0,0,1,1-2.53,3.62,3.62,0,0,1,2.67-1,4.19,4.19,0,0,1,2.69.91,3.63,3.63,0,0,1,1.39,3,3.72,3.72,0,0,1-.87,2.55A3.42,3.42,0,0,1,969.41,408.68Z"/><path class="cls-8" d="M975.77,392.25a13.74,13.74,0,0,1-3.43,2,10.79,10.79,0,0,1-7.65.21,15,15,0,0,1-3.94-2.18v-1c1.09.64,1.86,1.05,2.32,1.26a13.93,13.93,0,0,0,2.26.75,13.23,13.23,0,0,0,2.93.33,14.08,14.08,0,0,0,7.51-2.34Z"/><path class="cls-8" d="M969.38,390l-.19-1.4a3.09,3.09,0,0,0,1.73-.83,2,2,0,0,0,.53-1.42,2.25,2.25,0,0,0-.69-1.67,2.32,2.32,0,0,0-1.71-.69,2.16,2.16,0,0,0-1.59.64,2.19,2.19,0,0,0-.63,1.61,4.25,4.25,0,0,0,.15,1l-1.23-.16a1.94,1.94,0,0,0,0-.22,2.85,2.85,0,0,0-.47-1.62,1.59,1.59,0,0,0-1.44-.72,1.7,1.7,0,0,0-1.28.52,1.86,1.86,0,0,0-.51,1.36,1.91,1.91,0,0,0,.51,1.36,2.62,2.62,0,0,0,1.55.71l-.25,1.4a3.61,3.61,0,0,1-2.19-1.17,3.38,3.38,0,0,1-.78-2.27,3.86,3.86,0,0,1,.4-1.73,2.94,2.94,0,0,1,1.1-1.21,2.84,2.84,0,0,1,1.48-.42,2.43,2.43,0,0,1,1.35.4,1,1,0,1,0,1.94-.4,3,3,0,0,1,1.85-.56,3.41,3.41,0,0,1,2.55,1.1,3.86,3.86,0,0,1,1,2.76,3.61,3.61,0,0,1-.9,2.51A3.48,3.48,0,0,1,969.38,390Z"/><path class="cls-8" d="M972.41,380.31H970.8v-1.6h1.61Z"/><path class="cls-8" d="M962.45,376.56H961.1v-7.42h1.09a15.41,15.41,0,0,0,3.1,2.17,18.47,18.47,0,0,0,4,1.66,15,15,0,0,0,3.15.54V375a14.17,14.17,0,0,1-3.27-.53,17.19,17.19,0,0,1-3.69-1.46,15.65,15.65,0,0,1-3-2Z"/><path class="cls-8" d="M972.41,363.24h-2.75v5h-1.29L961,363v-1.14h7.42v-1.55h1.29v1.55h2.75Zm-4,0h-5.16l5.16,3.59Z"/><path class="cls-8" d="M966.76,358.85a10.39,10.39,0,0,1-3.27-.42,4.09,4.09,0,0,1-1.92-1.24,3.22,3.22,0,0,1-.67-2.08,3.44,3.44,0,0,1,.37-1.61,3.1,3.1,0,0,1,1.07-1.15,5.83,5.83,0,0,1,1.71-.71,10.9,10.9,0,0,1,2.71-.26,10.68,10.68,0,0,1,3.25.41,4.14,4.14,0,0,1,1.92,1.24,3.19,3.19,0,0,1,.67,2.08,3.13,3.13,0,0,1-1.19,2.61A7.56,7.56,0,0,1,966.76,358.85Zm0-1.45a7.16,7.16,0,0,0,3.75-.66,2,2,0,0,0,.94-1.63,2,2,0,0,0-.94-1.63,11,11,0,0,0-7.51,0,2,2,0,0,0-.93,1.65,1.8,1.8,0,0,0,.82,1.55A7.31,7.31,0,0,0,966.76,357.4Z"/><path class="cls-8" d="M965,346.9l-2.18.38H961v-1.6h1.87l2.18.38Zm0,2.59-2.18.39H961v-1.6h1.87l2.18.35Z"/><path class="cls-8" d="M975.77,343v1a14.08,14.08,0,0,0-7.51-2.34,13.17,13.17,0,0,0-5.16,1.08,25.12,25.12,0,0,0-2.35,1.26v-1a15,15,0,0,1,3.94-2.17,10.76,10.76,0,0,1,7.64.21A13.92,13.92,0,0,1,975.77,343Z"/><line class="cls-9" x1="978.65" y1="199.04" x2="978.65" y2="577.42"/><polygon class="cls-8" points="974.83 200.66 978.81 186.25 982.8 200.66 974.83 200.66"/><polygon class="cls-8" points="974.83 574.59 978.81 589 982.8 574.59 974.83 574.59"/><line class="cls-9" x1="300.64" y1="144.73" x2="696.57" y2="144.73"/><polygon class="cls-8" points="303.19 148.55 288.78 144.57 303.19 140.58 303.19 148.55"/><polygon class="cls-8" points="696.11 148.55 710.52 144.57 696.11 140.58 696.11 148.55"/><path class="cls-8" d="M590.8,258.82l-11.41-1,.45-5.06a6.56,6.56,0,0,1,.52-2.29,2.53,2.53,0,0,1,1.2-1.17,3.19,3.19,0,0,1,1.76-.32,2.86,2.86,0,0,1,2,1,4.07,4.07,0,0,1,.84,2.52,3.61,3.61,0,0,1,.65-.86,8,8,0,0,1,1.63-1.12l3.28-1.7-.17,1.9L589,252c-.72.38-1.28.7-1.67.95a3.74,3.74,0,0,0-.83.7,2.41,2.41,0,0,0-.37.66,4.55,4.55,0,0,0-.12.84l-.16,1.75,5.07.45Zm-6.24-2.08.29-3.24a4.88,4.88,0,0,0-.07-1.64,1.78,1.78,0,0,0-.6-1,1.85,1.85,0,0,0-1-.39,1.72,1.72,0,0,0-1.39.46,2.76,2.76,0,0,0-.68,1.81l-.32,3.62Z"/><path class="cls-8" d="M588.79,247.63v-1.48a2.66,2.66,0,0,0,1.68-.61,2.11,2.11,0,0,0,.67-1.39,2.27,2.27,0,0,0-.61-1.78,2.88,2.88,0,0,0-2-.88,2.6,2.6,0,0,0-2,.5,2.32,2.32,0,0,0-.85,1.7,2.48,2.48,0,0,0,.19,1.25,2.59,2.59,0,0,0,.72.93l-.28,1.3-5.77-1.63.51-5.67,1.34.12-.41,4.55,3,.89a3.76,3.76,0,0,1-.52-2.22,3.42,3.42,0,0,1,1.26-2.43,3.64,3.64,0,0,1,2.76-.79,4.14,4.14,0,0,1,2.59,1.14,3.65,3.65,0,0,1,1.12,3.12,3.72,3.72,0,0,1-1.1,2.47A3.39,3.39,0,0,1,588.79,247.63Z"/><path class="cls-8" d="M586.94,238.53a10.22,10.22,0,0,1-3.22-.71,4.09,4.09,0,0,1-1.79-1.4,3.14,3.14,0,0,1-.48-2.13,3.32,3.32,0,0,1,.51-1.58,3.13,3.13,0,0,1,1.17-1.05,5.69,5.69,0,0,1,1.76-.55,10.92,10.92,0,0,1,2.72,0,10.39,10.39,0,0,1,3.2.7,4.07,4.07,0,0,1,1.8,1.41,3.2,3.2,0,0,1,.49,2.13,3.15,3.15,0,0,1-1.42,2.49C590.67,238.49,589.08,238.72,586.94,238.53Zm.13-1.44a7.21,7.21,0,0,0,3.8-.32,2,2,0,0,0,1.08-1.54,2,2,0,0,0-.79-1.71,7.29,7.29,0,0,0-3.68-1,7.18,7.18,0,0,0-3.8.32,2,2,0,0,0-1.08,1.56,1.82,1.82,0,0,0,.68,1.61A7.25,7.25,0,0,0,587.07,237.09Z"/><path class="cls-8" d="M587.74,229.67a10.57,10.57,0,0,1-3.23-.71,4.1,4.1,0,0,1-1.79-1.41,3.2,3.2,0,0,1-.48-2.13,3.28,3.28,0,0,1,.51-1.57,3.13,3.13,0,0,1,1.17-1,5.69,5.69,0,0,1,1.76-.56,11.43,11.43,0,0,1,2.72,0,10.5,10.5,0,0,1,3.21.71,4.08,4.08,0,0,1,1.79,1.4,3.22,3.22,0,0,1,.49,2.14,3.13,3.13,0,0,1-1.41,2.48A7.55,7.55,0,0,1,587.74,229.67Zm.12-1.44c1.88.16,3.14.06,3.8-.33a1.88,1.88,0,0,0,.29-3.24,7.13,7.13,0,0,0-3.68-1c-1.88-.16-3.14-.06-3.8.33a1.92,1.92,0,0,0-1.07,1.55,1.79,1.79,0,0,0,.68,1.62A7.3,7.3,0,0,0,587.86,228.23Z"/><line class="cls-9" x1="601.57" y1="202.55" x2="597.7" y2="267.84"/><polygon class="cls-8" points="597.65 204.21 602.48 190.06 605.61 204.68 597.65 204.21"/><path class="cls-7" d="M463.24,130.75h-1.41v-9a7.28,7.28,0,0,1-1.33,1,9.59,9.59,0,0,1-1.49.73v-1.36a8.41,8.41,0,0,0,2.07-1.35,5.19,5.19,0,0,0,1.25-1.54h.91Z"/><path class="cls-7" d="M466.45,125.09a10.5,10.5,0,0,1,.42-3.28,4.07,4.07,0,0,1,1.25-1.91,3.17,3.17,0,0,1,2.08-.68,3.4,3.4,0,0,1,1.62.38,3,3,0,0,1,1.15,1.07,5.83,5.83,0,0,1,.71,1.71,11.4,11.4,0,0,1,.26,2.71,10.41,10.41,0,0,1-.42,3.26,4,4,0,0,1-1.24,1.92,3.48,3.48,0,0,1-4.69-.51A7.55,7.55,0,0,1,466.45,125.09Zm1.45,0a7.18,7.18,0,0,0,.66,3.76,1.89,1.89,0,0,0,3.27,0,7.23,7.23,0,0,0,.66-3.76,7.22,7.22,0,0,0-.66-3.77,2,2,0,0,0-1.65-.93,1.82,1.82,0,0,0-1.55.82A7.26,7.26,0,0,0,467.9,125.09Z"/><path class="cls-7" d="M475.77,125.09a10.5,10.5,0,0,1,.42-3.28,4.07,4.07,0,0,1,1.25-1.91,3.17,3.17,0,0,1,2.08-.68,3.4,3.4,0,0,1,1.62.38,3,3,0,0,1,1.15,1.07,5.83,5.83,0,0,1,.71,1.71,10.9,10.9,0,0,1,.26,2.71,10.75,10.75,0,0,1-.41,3.26,4.09,4.09,0,0,1-1.24,1.92,3.22,3.22,0,0,1-2.09.68,3.16,3.16,0,0,1-2.61-1.19A7.55,7.55,0,0,1,475.77,125.09Zm1.45,0a7.18,7.18,0,0,0,.66,3.76,2,2,0,0,0,1.64.94,1.93,1.93,0,0,0,1.63-.94,7.23,7.23,0,0,0,.66-3.76,7.22,7.22,0,0,0-.66-3.77,2,2,0,0,0-1.65-.93,1.84,1.84,0,0,0-1.55.82A7.36,7.36,0,0,0,477.22,125.09Z"/><path class="cls-7" d="M491.93,134.13a14.34,14.34,0,0,1-2-3.45,10.66,10.66,0,0,1-.81-4.09,10.46,10.46,0,0,1,.61-3.57,15.21,15.21,0,0,1,2.17-4h1c-.63,1.09-1.05,1.87-1.25,2.33a12.23,12.23,0,0,0-.75,2.26,12.76,12.76,0,0,0-.34,2.94,14.17,14.17,0,0,0,2.34,7.53Z"/><path class="cls-7" d="M493.83,127.72l1.41-.19a3.09,3.09,0,0,0,.83,1.73,2,2,0,0,0,1.42.53,2.29,2.29,0,0,0,1.68-.69,2.35,2.35,0,0,0,.68-1.71,2.18,2.18,0,0,0-.63-1.6,2.21,2.21,0,0,0-1.62-.63,3.85,3.85,0,0,0-1,.16l.16-1.24.22,0a2.93,2.93,0,0,0,1.62-.47,1.62,1.62,0,0,0,.72-1.45,1.72,1.72,0,0,0-.52-1.29,1.86,1.86,0,0,0-1.35-.51,2,2,0,0,0-1.38.52,2.58,2.58,0,0,0-.7,1.55L494,122.2a3.61,3.61,0,0,1,1.17-2.2,3.43,3.43,0,0,1,2.28-.78,3.78,3.78,0,0,1,1.74.41,2.94,2.94,0,0,1,1.21,1.1,2.9,2.9,0,0,1,.41,1.48,2.38,2.38,0,0,1-.4,1.35,2.67,2.67,0,0,1-1.18,1,2.68,2.68,0,0,1,1.58,1,2.94,2.94,0,0,1,.57,1.85,3.41,3.41,0,0,1-1.1,2.55,3.84,3.84,0,0,1-2.77,1.05,3.59,3.59,0,0,1-2.51-.9A3.45,3.45,0,0,1,493.83,127.72Z"/><path class="cls-7" d="M503.61,130.75v-1.6h1.61v1.6Z"/><path class="cls-7" d="M507.6,128.1,509,128a2.3,2.3,0,0,0,.66,1.39,1.77,1.77,0,0,0,1.24.43,2.16,2.16,0,0,0,1.14-.3,2.42,2.42,0,0,0,.8-.79,4.57,4.57,0,0,0,.53-1.35,7,7,0,0,0,.21-1.72c0-.06,0-.16,0-.28a3.28,3.28,0,0,1-5.15.48,3.78,3.78,0,0,1-1-2.73,3.86,3.86,0,0,1,1-2.81,3.46,3.46,0,0,1,2.58-1.07,3.63,3.63,0,0,1,2,.61,3.72,3.72,0,0,1,1.41,1.72,8.47,8.47,0,0,1,.48,3.23,10.41,10.41,0,0,1-.48,3.5,4.08,4.08,0,0,1-1.42,2,3.69,3.69,0,0,1-2.21.68,3.21,3.21,0,0,1-2.2-.75A3.24,3.24,0,0,1,507.6,128.1Zm5.78-5.07a2.78,2.78,0,0,0-.65-1.93,2,2,0,0,0-1.56-.71,2.14,2.14,0,0,0-1.63.77,2.81,2.81,0,0,0-.7,2,2.46,2.46,0,0,0,.66,1.78,2.18,2.18,0,0,0,1.64.69,2.1,2.1,0,0,0,1.61-.69A2.71,2.71,0,0,0,513.38,123Z"/><path class="cls-7" d="M516.42,127.72l1.41-.19a3.08,3.08,0,0,0,.82,1.73,2.07,2.07,0,0,0,1.42.53,2.25,2.25,0,0,0,1.68-.69,2.32,2.32,0,0,0,.69-1.71,2.18,2.18,0,0,0-.63-1.6,2.22,2.22,0,0,0-1.62-.63,3.79,3.79,0,0,0-1,.16l.15-1.24.23,0a2.93,2.93,0,0,0,1.62-.47,1.62,1.62,0,0,0,.72-1.45,1.72,1.72,0,0,0-.52-1.29,1.86,1.86,0,0,0-1.36-.51,2,2,0,0,0-1.37.52,2.58,2.58,0,0,0-.7,1.55l-1.41-.25a3.61,3.61,0,0,1,1.17-2.2,3.39,3.39,0,0,1,2.28-.78,3.71,3.71,0,0,1,1.73.41,2.88,2.88,0,0,1,1.21,1.1,2.81,2.81,0,0,1,.42,1.48,2.38,2.38,0,0,1-.4,1.35,2.67,2.67,0,0,1-1.18,1,2.68,2.68,0,0,1,1.58,1,2.94,2.94,0,0,1,.57,1.85,3.41,3.41,0,0,1-1.1,2.55,3.85,3.85,0,0,1-2.77,1.05,3.59,3.59,0,0,1-2.51-.9A3.45,3.45,0,0,1,516.42,127.72Z"/><path class="cls-7" d="M525.22,120.77v-1.35h7.43v1.1a15.13,15.13,0,0,0-2.17,3.1,18.58,18.58,0,0,0-1.67,4,15,15,0,0,0-.54,3.15h-1.45a14.26,14.26,0,0,1,.53-3.27,17,17,0,0,1,1.47-3.7,15.6,15.6,0,0,1,2-3Z"/><path class="cls-7" d="M535,123.34l-.39-2.19v-1.88h1.6v1.88l-.35,2.19Zm2.59,0-.38-2.19v-1.88h1.6v1.88l-.37,2.19Z"/><path class="cls-7" d="M541.57,134.13h-1a14.17,14.17,0,0,0,2.34-7.53,13.28,13.28,0,0,0-1.08-5.18c-.21-.47-.63-1.25-1.26-2.35h1a15.21,15.21,0,0,1,2.17,4,10.46,10.46,0,0,1,.61,3.57,10.66,10.66,0,0,1-.81,4.09A14.34,14.34,0,0,1,541.57,134.13Z"/><rect class="cls-4" x="26" y="119.08" width="972" height="561.78"/></g><g id="Watermark"><rect class="cls-1" x="438.45" y="288.83" width="123.09" height="46.3"/><rect class="cls-10" x="444.86" y="296.66" width="62.89" height="30.62"/><rect class="cls-10" x="507.75" y="296.66" width="47.39" height="30.62"/><path class="cls-11" d="M466.48,302.77l-2.79,18.91H461l-1.55-11-1.53,11h-2.74l-2.8-18.91h2.51l1.79,14.17,1.79-14.17h2l1.79,14.17L464,302.77Z"/><path class="cls-11" d="M467.93,321.68V302.77h2.53v18.91Z"/><path class="cls-11" d="M472.83,302.77h5q2.9,0,2.9,3.24v4.66c0,1.65-.51,2.7-1.51,3.13l1.77,7.88h-2.4L476.89,314h-1.53v7.64h-2.53Zm2.53,9.11H477c.76,0,1.14-.45,1.14-1.37v-4.08c0-.92-.38-1.37-1.14-1.37h-1.66Z"/><path class="cls-11" d="M486.82,305.06v16.62h-2.53V305.06h-2.42v-2.29h7.38v2.29Z"/><path class="cls-11" d="M496.34,321.68v-8.59h-3.11v8.59H490.7V302.77h2.53v8h3.11v-8h2.53v18.91Z"/><path class="cls-11" d="M516.31,302.77h5q2.9,0,2.89,3.24v4.66c0,1.65-.5,2.7-1.5,3.13l1.77,7.88H522L520.37,314h-1.53v7.64h-2.53Zm2.53,9.11h1.66c.76,0,1.13-.45,1.13-1.37v-4.08c0-.92-.37-1.37-1.13-1.37h-1.66Z"/><path class="cls-11" d="M528.67,321.68h-2.53V306q0-3.24,3-3.24h1.9q3,0,3,3.24v15.67h-2.53v-6.93h-2.9Zm2.9-9.22v-6.3a1,1,0,0,0-1.11-1.1h-.68a1,1,0,0,0-1.11,1.1v6.3Z"/><path class="cls-11" d="M536.34,321.68V302.77h2.53v18.91Z"/><path class="cls-11" d="M547.24,321.68h-6V302.77h2.53v16.62h3.47Z"/></g></svg>