<svg xmlns="http://www.w3.org/2000/svg" viewBox="0 0 1000 800"><defs><style>.cls-1,.cls-10,.cls-9{fill:#f0f0f0;}.cls-1,.cls-2,.cls-4,.cls-5{stroke:#231f20;}.cls-1{stroke-width:2px;}.cls-2,.cls-3,.cls-4,.cls-5,.cls-8{fill:none;}.cls-4{stroke-dasharray:8.48 2.53;}.cls-5{stroke-dasharray:8.94 2.69;}.cls-6{fill:#231f20;}.cls-7{fill:#303030;}.cls-8{stroke:#303030;}.cls-10,.cls-8{stroke-miterlimit:10;}.cls-10{stroke:#ccc;}.cls-11{fill:#ccc;}</style></defs><g id="Flat"><path class="cls-1" d="M902.17,529.57,729,509.2l-70.5-29.77s-20.37-13.31-19.59-28.2L638.17,416s3.13-21.93,25.85-29,52.48-16.45,52.48-16.45,13.33-9.4,14.11-23.5.78-121.43.78-121.43-7-35.25-36.82-34.47c0,0-69.81-5.3-191.45-7.71v-.12l-3,.06-3-.06v.12c-121.64,2.41-191.46,7.71-191.46,7.71-29.77-.78-36.82,34.47-36.82,34.47s0,107.33.78,121.43,14.11,23.5,14.11,23.5,29.77,9.4,52.48,16.45,25.86,29,25.86,29l-.79,35.25c.79,14.89-19.58,28.2-19.58,28.2L271.23,509.2,98.1,529.57C79.3,535.84,77,551.51,77,551.51V586H923.32V551.51s-2.35-15.67-21.15-21.94"/><path class="cls-2" d="M902.17,529.57,729,509.2l-70.5-29.77s-20.37-13.31-19.59-28.2L638.17,416s3.13-21.93,25.85-29,52.48-16.45,52.48-16.45,13.33-9.4,14.11-23.5.78-121.43.78-121.43-7-35.25-36.82-34.47c0,0-69.81-5.3-191.45-7.71v-.12l-3,.06-3-.06v.12c-121.64,2.41-191.46,7.71-191.46,7.71-29.77-.78-36.82,34.47-36.82,34.47s0,107.33.78,121.43,14.11,23.5,14.11,23.5,29.77,9.4,52.48,16.45,25.86,29,25.86,29l-.79,35.25c.79,14.89-19.58,28.2-19.58,28.2L271.23,509.2,98.1,529.57C79.3,535.84,77,551.51,77,551.51V586H923.32V551.51S921,535.84,902.17,529.57Z"/><line class="cls-2" x1="500.14" y1="183.31" x2="997" y2="183.26"/><rect class="cls-3" x="14" y="128.18" width="983" height="543.61"/><line class="cls-2" x1="660.81" y1="511.05" x2="733.06" y2="511.05"/><line class="cls-2" x1="575.29" y1="471.75" x2="637.42" y2="471.75"/><line class="cls-2" x1="904.73" y1="530.18" x2="954.37" y2="530.18"/><line class="cls-2" x1="923.11" y1="530.33" x2="923.11" y2="668.87"/><line class="cls-2" x1="731.7" y1="134.92" x2="731.7" y2="366.15"/><line class="cls-2" x1="637.64" y1="397.52" x2="637.64" y2="471.74"/><line class="cls-2" x1="76.44" y1="567.71" x2="76.44" y2="671.79"/><rect class="cls-3" x="14" y="128.18" width="983" height="543.61"/><line class="cls-2" x1="991.84" y1="586.04" x2="37.43" y2="586.04"/><line class="cls-4" x1="500.54" y1="632.17" x2="499.66" y2="159.2"/><line class="cls-5" x1="898.35" y1="404.58" x2="32.19" y2="403.99"/><line class="cls-2" x1="269.88" y1="133.71" x2="268.89" y2="229.86"/><line class="cls-2" x1="730.48" y1="510.25" x2="730.48" y2="635.74"/><line class="cls-2" x1="643.5" y1="395.97" x2="855.64" y2="395.97"/><line class="cls-2" x1="731.7" y1="366.15" x2="637.64" y2="397.95"/><line class="cls-2" x1="731.15" y1="510.25" x2="637.42" y2="471.75"/><line class="cls-2" x1="764.19" y1="366.15" x2="731.7" y2="366.15"/><path class="cls-6" d="M512,176.2v-5.56l-5.07-7.56H509l2.59,4c.47.74.92,1.48,1.34,2.21.4-.69.89-1.46,1.46-2.31l2.54-3.87h2l-5.25,7.56v5.56Z"/><path class="cls-6" d="M512.68,608.05v-5.56l-5.07-7.56h2.1l2.59,4c.47.74.92,1.48,1.34,2.21q.6-1,1.47-2.31l2.53-3.87h2l-5.24,7.56v5.56Z"/><path class="cls-7" d="M471.53,138.93h-1.3v-8.27a6.12,6.12,0,0,1-1.23.89,7.74,7.74,0,0,1-1.37.67V131a7.76,7.76,0,0,0,1.91-1.24,5.13,5.13,0,0,0,1.15-1.41h.84Z"/><path class="cls-7" d="M481.67,137.68v1.25h-7a2.3,2.3,0,0,1,.15-.9,4.57,4.57,0,0,1,.85-1.41,13.75,13.75,0,0,1,1.7-1.6,14.55,14.55,0,0,0,2.33-2.24,2.69,2.69,0,0,0,.6-1.56,1.72,1.72,0,0,0-.55-1.3,2,2,0,0,0-1.44-.53,2.06,2.06,0,0,0-1.5.56,2.19,2.19,0,0,0-.57,1.56l-1.33-.14a3.3,3.3,0,0,1,1-2.27,3.54,3.54,0,0,1,2.4-.78,3.35,3.35,0,0,1,2.41.84,2.77,2.77,0,0,1,.89,2.09,3.26,3.26,0,0,1-.26,1.25,5,5,0,0,1-.86,1.29,23,23,0,0,1-2,1.86c-.78.65-1.28,1.1-1.5,1.33a3.74,3.74,0,0,0-.55.7Z"/><path class="cls-7" d="M483.06,133.72a9.58,9.58,0,0,1,.39-3,3.74,3.74,0,0,1,1.15-1.76,2.87,2.87,0,0,1,1.91-.62,3.09,3.09,0,0,1,1.49.34,2.87,2.87,0,0,1,1.06,1,5.27,5.27,0,0,1,.66,1.57,10.37,10.37,0,0,1,.24,2.5,9.49,9.49,0,0,1-.39,3,3.74,3.74,0,0,1-1.14,1.77,3,3,0,0,1-1.92.62,2.87,2.87,0,0,1-2.4-1.1A6.93,6.93,0,0,1,483.06,133.72Zm1.34,0a6.57,6.57,0,0,0,.61,3.46,1.76,1.76,0,0,0,1.5.86,1.79,1.79,0,0,0,1.5-.86,10.15,10.15,0,0,0,0-6.93,1.8,1.8,0,0,0-1.51-.86,1.65,1.65,0,0,0-1.43.76A6.66,6.66,0,0,0,484.4,133.72Z"/><path class="cls-7" d="M498.22,142a13.14,13.14,0,0,1-1.82-3.17,10,10,0,0,1-.74-3.77,9.84,9.84,0,0,1,.55-3.29,14.31,14.31,0,0,1,2-3.63h.93a22.77,22.77,0,0,0-1.15,2.14,11.3,11.3,0,0,0-.7,2.08,12.45,12.45,0,0,0-.31,2.71,13,13,0,0,0,2.16,6.93Z"/><path class="cls-7" d="M504.46,138.93V136.4h-4.59v-1.19l4.82-6.85h1.06v6.85h1.43v1.19h-1.43v2.53Zm0-3.72v-4.77l-3.31,4.77Z"/><path class="cls-7" d="M509.24,138.93v-1.48h1.47v1.48Z"/><path class="cls-7" d="M512.7,129.74V128.5h6.84v1a14.19,14.19,0,0,0-2,2.85A17.54,17.54,0,0,0,516,136a13.58,13.58,0,0,0-.5,2.91h-1.33a12.27,12.27,0,0,1,.49-3,15.8,15.8,0,0,1,1.34-3.41,15,15,0,0,1,1.86-2.77Z"/><path class="cls-7" d="M527.64,137.68v1.25h-7a2.3,2.3,0,0,1,.15-.9,4.78,4.78,0,0,1,.85-1.41,14.51,14.51,0,0,1,1.7-1.6,14.12,14.12,0,0,0,2.33-2.24,2.71,2.71,0,0,0,.61-1.56,1.76,1.76,0,0,0-.55-1.3,2.26,2.26,0,0,0-2.94,0,2.11,2.11,0,0,0-.57,1.56l-1.34-.14a3.3,3.3,0,0,1,1-2.27,3.54,3.54,0,0,1,2.4-.78,3.35,3.35,0,0,1,2.41.84,2.77,2.77,0,0,1,.89,2.09,3.26,3.26,0,0,1-.26,1.25,4.74,4.74,0,0,1-.86,1.29,21.59,21.59,0,0,1-2,1.86c-.78.65-1.28,1.1-1.5,1.33a4.2,4.2,0,0,0-.55.7Z"/><path class="cls-7" d="M533.2,138.93V136.4h-4.59v-1.19l4.82-6.85h1.06v6.85h1.43v1.19h-1.43v2.53Zm0-3.72v-4.77l-3.31,4.77Z"/><path class="cls-7" d="M537.67,132.1l-.36-2v-1.73h1.48v1.73l-.32,2Zm2.39,0-.35-2v-1.73h1.48v1.73l-.35,2Z"/><path class="cls-7" d="M543.65,142h-.93a13.08,13.08,0,0,0,2.15-6.93,11.69,11.69,0,0,0-.31-2.69,11.5,11.5,0,0,0-.68-2.08c-.19-.43-.58-1.15-1.16-2.16h.93a14,14,0,0,1,2,3.63,9.89,9.89,0,0,1-.19,7.06A13.46,13.46,0,0,1,543.65,142Z"/><rect class="cls-3" x="14" y="128.18" width="983" height="543.61"/><line class="cls-8" x1="280.83" y1="143.95" x2="722.39" y2="143.95"/><polygon class="cls-7" points="283.18 147.47 269.88 143.8 283.18 140.13 283.18 147.47"/><polygon class="cls-7" points="718.4 147.47 731.7 143.8 718.4 140.13 718.4 147.47"/><path class="cls-7" d="M469.22,654.61v1.25h-7a2.3,2.3,0,0,1,.15-.9,4.61,4.61,0,0,1,.86-1.41,13.55,13.55,0,0,1,1.69-1.6,14.12,14.12,0,0,0,2.33-2.24,2.64,2.64,0,0,0,.61-1.56,1.76,1.76,0,0,0-.55-1.3,2.26,2.26,0,0,0-2.94,0,2.11,2.11,0,0,0-.57,1.56l-1.34-.14a3.3,3.3,0,0,1,1-2.27,3.5,3.5,0,0,1,2.4-.78,3.34,3.34,0,0,1,2.4.84,2.74,2.74,0,0,1,.89,2.09,3.08,3.08,0,0,1-.26,1.25,4.74,4.74,0,0,1-.86,1.29,21.59,21.59,0,0,1-2,1.86c-.78.65-1.28,1.1-1.5,1.33a4.8,4.8,0,0,0-.55.7Z"/><path class="cls-7" d="M477.43,654.61v1.25h-7a2.3,2.3,0,0,1,.15-.9,4.82,4.82,0,0,1,.86-1.41,13.75,13.75,0,0,1,1.7-1.6,14.38,14.38,0,0,0,2.32-2.24,2.64,2.64,0,0,0,.61-1.56,1.72,1.72,0,0,0-.55-1.3,2,2,0,0,0-1.44-.53,2.06,2.06,0,0,0-1.5.56,2.19,2.19,0,0,0-.57,1.56l-1.33-.14a3.26,3.26,0,0,1,1-2.27,3.5,3.5,0,0,1,2.4-.78,3.37,3.37,0,0,1,2.41.84,2.76,2.76,0,0,1,.88,2.09,3.24,3.24,0,0,1-.25,1.25,5,5,0,0,1-.87,1.29,21.59,21.59,0,0,1-2,1.86c-.78.65-1.28,1.1-1.5,1.33a4.12,4.12,0,0,0-.54.7Z"/><path class="cls-7" d="M478.82,650.65a9.58,9.58,0,0,1,.39-3,3.65,3.65,0,0,1,1.14-1.76,2.91,2.91,0,0,1,1.92-.62,3.12,3.12,0,0,1,1.49.34,2.87,2.87,0,0,1,1.06,1,5,5,0,0,1,.65,1.57,10.37,10.37,0,0,1,.24,2.5,9.52,9.52,0,0,1-.38,3,3.74,3.74,0,0,1-1.14,1.77,3,3,0,0,1-1.92.62,2.9,2.9,0,0,1-2.4-1.1A6.93,6.93,0,0,1,478.82,650.65Zm1.33,0a6.67,6.67,0,0,0,.61,3.46,1.79,1.79,0,0,0,1.51.86,1.81,1.81,0,0,0,1.5-.86,10.15,10.15,0,0,0,0-6.93,1.82,1.82,0,0,0-1.52-.86,1.67,1.67,0,0,0-1.43.76A6.76,6.76,0,0,0,480.15,650.65Z"/><path class="cls-7" d="M494,659a12.71,12.71,0,0,1-1.82-3.18,9.73,9.73,0,0,1-.74-3.76,9.84,9.84,0,0,1,.55-3.29,13.72,13.72,0,0,1,2-3.63h.93a23.58,23.58,0,0,0-1.16,2.14,12.08,12.08,0,0,0-.69,2.08,11.86,11.86,0,0,0-.31,2.71,13,13,0,0,0,2.16,6.93Z"/><path class="cls-7" d="M498.05,650.13a2.44,2.44,0,0,1-1.2-.85,2.18,2.18,0,0,1-.39-1.31,2.59,2.59,0,0,1,.83-1.94,3.51,3.51,0,0,1,4.44,0,2.62,2.62,0,0,1,.84,2,2.16,2.16,0,0,1-.39,1.28,2.4,2.4,0,0,1-1.17.84,2.66,2.66,0,0,1,2,2.71,3.05,3.05,0,0,1-1,2.28,3.5,3.5,0,0,1-2.52.92,3.47,3.47,0,0,1-2.52-.93,3.06,3.06,0,0,1-1-2.31,2.77,2.77,0,0,1,.52-1.72A2.62,2.62,0,0,1,498.05,650.13Zm-.68,2.68a2.38,2.38,0,0,0,.26,1.07,1.87,1.87,0,0,0,.79.81,2.27,2.27,0,0,0,1.12.28,2.07,2.07,0,0,0,1.53-.6,2,2,0,0,0,.61-1.52,2.08,2.08,0,0,0-.63-1.55,2.11,2.11,0,0,0-1.56-.61,2.05,2.05,0,0,0-2.12,2.12Zm.42-4.88a1.63,1.63,0,0,0,.48,1.22,1.87,1.87,0,0,0,2.49,0,1.57,1.57,0,0,0,.48-1.16,1.61,1.61,0,0,0-.5-1.2,1.8,1.8,0,0,0-2.46,0A1.53,1.53,0,0,0,497.79,647.93Z"/><path class="cls-7" d="M505,655.86v-1.48h1.48v1.48Z"/><path class="cls-7" d="M515.1,647.88l-1.29.1a2.4,2.4,0,0,0-.49-1.11,1.72,1.72,0,0,0-1.3-.56,1.82,1.82,0,0,0-1.09.35,3,3,0,0,0-1,1.3,6.78,6.78,0,0,0-.37,2.45,2.91,2.91,0,0,1,1.15-1.06,3.07,3.07,0,0,1,1.42-.35,3,3,0,0,1,2.21,1,3.41,3.41,0,0,1,.91,2.47,4,4,0,0,1-.43,1.85,3.11,3.11,0,0,1-1.18,1.3,3.16,3.16,0,0,1-1.7.46,3.36,3.36,0,0,1-2.65-1.19,6.06,6.06,0,0,1-1-3.94,7.05,7.05,0,0,1,1.13-4.45,3.25,3.25,0,0,1,2.66-1.21,3,3,0,0,1,2,.7A2.93,2.93,0,0,1,515.1,647.88Zm-5.3,4.55a3,3,0,0,0,.29,1.29,2.08,2.08,0,0,0,.79.93A2,2,0,0,0,512,655a1.82,1.82,0,0,0,1.41-.66,2.57,2.57,0,0,0,.59-1.8,2.45,2.45,0,0,0-.58-1.73,1.92,1.92,0,0,0-1.47-.63,2,2,0,0,0-1.49.63A2.26,2.26,0,0,0,509.8,652.43Z"/><path class="cls-7" d="M523.32,647.88l-1.3.1a2.3,2.3,0,0,0-.49-1.11,1.71,1.71,0,0,0-1.29-.56,1.78,1.78,0,0,0-1.09.35,3,3,0,0,0-1,1.3,7,7,0,0,0-.37,2.45,3,3,0,0,1,1.15-1.06,3.1,3.1,0,0,1,1.42-.35,2.93,2.93,0,0,1,2.21,1,3.41,3.41,0,0,1,.91,2.47,4,4,0,0,1-.43,1.85,3,3,0,0,1-1.18,1.3,3.14,3.14,0,0,1-1.7.46,3.33,3.33,0,0,1-2.64-1.19,6,6,0,0,1-1-3.94,7,7,0,0,1,1.14-4.45,3.23,3.23,0,0,1,2.66-1.21,2.84,2.84,0,0,1,3,2.63Zm-5.3,4.55a3,3,0,0,0,.28,1.29,2.1,2.1,0,0,0,.8.93,1.94,1.94,0,0,0,1.07.32,1.82,1.82,0,0,0,1.41-.66,2.58,2.58,0,0,0,.6-1.8,2.45,2.45,0,0,0-.59-1.73,1.92,1.92,0,0,0-1.47-.63,2,2,0,0,0-1.49.63A2.26,2.26,0,0,0,518,652.43Z"/><path class="cls-7" d="M529.68,655.86h-1.3v-8.27a6.12,6.12,0,0,1-1.23.89,8.45,8.45,0,0,1-1.36.67V647.9a8,8,0,0,0,1.9-1.24,5,5,0,0,0,1.15-1.41h.84Z"/><path class="cls-7" d="M533.43,649l-.36-2v-1.73h1.48V647l-.33,2Zm2.39,0-.36-2v-1.73h1.48V647l-.34,2Z"/><path class="cls-7" d="M539.4,659h-.93a13,13,0,0,0,2.16-6.93,11.63,11.63,0,0,0-.31-2.69,10.8,10.8,0,0,0-.69-2.08,22,22,0,0,0-1.16-2.16h.93a13.72,13.72,0,0,1,2,3.63,10,10,0,0,1-.19,7A13,13,0,0,1,539.4,659Z"/><line class="cls-8" x1="87.9" y1="660.89" x2="911.01" y2="660.89"/><polygon class="cls-7" points="90.26 664.41 76.96 660.74 90.26 657.06 90.26 664.41"/><polygon class="cls-7" points="909.07 664.41 922.37 660.74 909.07 657.06 909.07 664.41"/><path class="cls-6" d="M910.7,409.93l4.21-5.7L911.18,399h1.72l2,2.83a15.72,15.72,0,0,1,.87,1.31c.26-.39.55-.81.89-1.24l2.15-2.9h1.6l-3.8,5.23,4.11,5.75H919L916.19,406c-.15-.23-.31-.45-.47-.66-.22.34-.39.58-.5.73l-2.78,3.82Z"/><path class="cls-6" d="M14,409.93l4.22-5.7L14.48,399h1.73l2,2.83c.41.59.7,1,.87,1.31.25-.39.55-.81.89-1.24l2.14-2.9h1.6l-3.8,5.23L24,409.93H22.26L19.5,406l-.47-.66c-.23.34-.39.58-.5.73l-2.78,3.82Z"/><rect class="cls-3" x="14" y="128.18" width="983" height="543.61"/><line class="cls-2" x1="948.17" y1="530.34" x2="948.21" y2="585.98"/><line class="cls-2" x1="948.58" y1="482.56" x2="948.58" y2="523.77"/><line class="cls-2" x1="948.58" y1="624.59" x2="948.58" y2="590.09"/><polygon class="cls-7" points="944.5 517.12 948.17 530.42 951.85 517.12 944.5 517.12"/><polygon class="cls-7" points="951.85 599.27 948.17 585.98 944.5 599.27 951.85 599.27"/><path class="cls-7" d="M984.25,399.62v1.3H976a6.54,6.54,0,0,1,.9,1.23,8.45,8.45,0,0,1,.67,1.36h-1.25a8,8,0,0,0-1.25-1.9,4.7,4.7,0,0,0-1.41-1.15v-.84Z"/><path class="cls-7" d="M979,396.29a9.66,9.66,0,0,1-3-.38,3.79,3.79,0,0,1-1.76-1.15,2.92,2.92,0,0,1-.62-1.91,3.18,3.18,0,0,1,.34-1.49,2.79,2.79,0,0,1,1-1.06,5.38,5.38,0,0,1,1.57-.66,10.37,10.37,0,0,1,2.5-.24,9.94,9.94,0,0,1,3,.38,3.74,3.74,0,0,1,1.76,1.15,3.2,3.2,0,0,1-.47,4.32A7,7,0,0,1,979,396.29Zm0-1.33a6.61,6.61,0,0,0,3.47-.61,1.8,1.8,0,0,0,.86-1.5,1.77,1.77,0,0,0-.87-1.5,10.15,10.15,0,0,0-6.93,0,1.79,1.79,0,0,0-.85,1.51,1.67,1.67,0,0,0,.75,1.43A6.71,6.71,0,0,0,979,395Z"/><path class="cls-7" d="M981.48,388.08l-.12-1.36a2.52,2.52,0,0,0,1.5-.7,1.93,1.93,0,0,0,.5-1.33,2.07,2.07,0,0,0-.71-1.59,2.66,2.66,0,0,0-1.87-.65,2.45,2.45,0,0,0-1.76.62,2.23,2.23,0,0,0-.64,1.64,2.26,2.26,0,0,0,.29,1.13,2.09,2.09,0,0,0,.74.79l-.16,1.22-5.43-1v-5.26h1.24v4.22l2.84.57a3.47,3.47,0,0,1-.66-2,3.15,3.15,0,0,1,1-2.33,3.32,3.32,0,0,1,2.46-1,3.82,3.82,0,0,1,2.48.84,3.34,3.34,0,0,1,1.29,2.78,3.41,3.41,0,0,1-.81,2.35A3.11,3.11,0,0,1,981.48,388.08Z"/><path class="cls-7" d="M987.35,372.93a12.93,12.93,0,0,1-3.17,1.81,9.87,9.87,0,0,1-7,.19,13.85,13.85,0,0,1-3.64-2V372c1,.58,1.72,1,2.15,1.15a11.83,11.83,0,0,0,4.78,1,13,13,0,0,0,6.93-2.15Z"/><path class="cls-7" d="M984.25,366.69h-2.54v4.58h-1.19l-6.85-4.82v-1.06h6.85V364h1.19v1.43h2.54Zm-3.73,0h-4.76l4.76,3.31Z"/><path class="cls-7" d="M984.25,361.91h-1.48v-1.48h1.48Z"/><path class="cls-7" d="M984.25,353.65v1.29H976a7.27,7.27,0,0,1,.9,1.23,8.93,8.93,0,0,1,.67,1.37h-1.25a7.82,7.82,0,0,0-1.25-1.9,4.75,4.75,0,0,0-1.41-1.16v-.83Z"/><path class="cls-7" d="M981.46,350.31l-.18-1.29a2.89,2.89,0,0,0,1.59-.76,1.87,1.87,0,0,0,.49-1.31,2.08,2.08,0,0,0-.64-1.55,2.13,2.13,0,0,0-1.57-.63,2,2,0,0,0-1.47.58,2,2,0,0,0-.58,1.49,4.12,4.12,0,0,0,.14.92l-1.14-.15a2.06,2.06,0,0,0,0-.21,2.66,2.66,0,0,0-.44-1.49,1.47,1.47,0,0,0-1.33-.66,1.57,1.57,0,0,0-1.18.48,1.69,1.69,0,0,0-.47,1.25,1.8,1.8,0,0,0,.47,1.26,2.48,2.48,0,0,0,1.43.65l-.23,1.3a3.31,3.31,0,0,1-2-1.09,3.1,3.1,0,0,1-.72-2.09,3.58,3.58,0,0,1,.37-1.6,2.74,2.74,0,0,1,1-1.11,2.55,2.55,0,0,1,1.36-.39,2.23,2.23,0,0,1,1.25.37,2.51,2.51,0,0,1,.89,1.09,2.41,2.41,0,0,1,.9-1.46,2.75,2.75,0,0,1,1.7-.52,3.12,3.12,0,0,1,2.35,1,3.58,3.58,0,0,1,1,2.56,3.31,3.31,0,0,1-.83,2.31A3.18,3.18,0,0,1,981.46,350.31Z"/><path class="cls-7" d="M984.25,338h-2.54v4.59h-1.19l-6.85-4.83v-1.06h6.85v-1.43h1.19v1.43h2.54Zm-3.73,0h-4.76l4.76,3.31Z"/><path class="cls-7" d="M977.42,331.08l-2,.36h-1.74V330h1.74l2,.35Zm0,2.39-2,.36h-1.74v-1.48h1.74l2,.33Z"/><path class="cls-7" d="M987.35,327.44v.93a13,13,0,0,0-6.93-2.15,11.69,11.69,0,0,0-2.69.31,11.15,11.15,0,0,0-2.07.68c-.44.19-1.16.58-2.17,1.16v-.93a13.85,13.85,0,0,1,3.64-2,9.87,9.87,0,0,1,7,.19A13.26,13.26,0,0,1,987.35,327.44Z"/><line class="cls-8" x1="990.59" y1="189.14" x2="990.59" y2="575.22"/><polygon class="cls-7" points="987.07 195.64 990.74 182.35 994.42 195.64 987.07 195.64"/><polygon class="cls-7" points="987.07 572.75 990.74 586.04 994.42 572.75 987.07 572.75"/><line class="cls-8" x1="808.97" y1="190.99" x2="808.97" y2="382.17"/><polygon class="cls-7" points="805.45 196.55 809.12 183.26 812.8 196.55 805.45 196.55"/><polygon class="cls-7" points="805.45 382.17 809.12 395.47 812.8 382.17 805.45 382.17"/><line class="cls-8" x1="759.65" y1="186.86" x2="759.65" y2="357.23"/><polygon class="cls-7" points="756.13 196.55 759.8 183.26 763.48 196.55 756.13 196.55"/><polygon class="cls-7" points="756.13 353.15 759.8 366.44 763.48 353.15 756.13 353.15"/><path class="cls-7" d="M462.48,421v-1.25h6.84v1a14.58,14.58,0,0,0-2,2.86,17.11,17.11,0,0,0-1.53,3.66,14,14,0,0,0-.5,2.91H464a12.84,12.84,0,0,1,.49-3,16,16,0,0,1,1.34-3.41,14.9,14.9,0,0,1,1.87-2.76Z"/><path class="cls-7" d="M477.43,428.92v1.25h-7a2.32,2.32,0,0,1,.15-.91,4.91,4.91,0,0,1,.86-1.4,13,13,0,0,1,1.7-1.6,14.38,14.38,0,0,0,2.32-2.24,2.64,2.64,0,0,0,.61-1.56,1.71,1.71,0,0,0-.55-1.3,2,2,0,0,0-1.44-.53,2,2,0,0,0-1.5.56,2.16,2.16,0,0,0-.57,1.56l-1.33-.14a3.28,3.28,0,0,1,1-2.28,3.5,3.5,0,0,1,2.4-.78,3.33,3.33,0,0,1,2.41.85,2.75,2.75,0,0,1,.88,2.09,3.16,3.16,0,0,1-.25,1.24,5,5,0,0,1-.87,1.29,19.12,19.12,0,0,1-2,1.86c-.78.66-1.28,1.1-1.5,1.33a4.17,4.17,0,0,0-.54.71Z"/><path class="cls-7" d="M485.76,433.27A12.93,12.93,0,0,1,484,430.1a9.87,9.87,0,0,1-.19-7.05,13.85,13.85,0,0,1,2-3.64h.93c-.58,1-1,1.72-1.15,2.15a11.83,11.83,0,0,0-1,4.78,13,13,0,0,0,2.15,6.93Z"/><path class="cls-7" d="M494.66,428.92v1.25h-7a2.53,2.53,0,0,1,.16-.91,4.65,4.65,0,0,1,.85-1.4,13,13,0,0,1,1.7-1.6,14.55,14.55,0,0,0,2.33-2.24,2.69,2.69,0,0,0,.6-1.56,1.71,1.71,0,0,0-.55-1.3,2,2,0,0,0-1.44-.53,2,2,0,0,0-1.5.56,2.16,2.16,0,0,0-.57,1.56l-1.33-.14a3.28,3.28,0,0,1,1-2.28,3.54,3.54,0,0,1,2.4-.78,3.31,3.31,0,0,1,2.41.85,2.76,2.76,0,0,1,.89,2.09,3.17,3.17,0,0,1-.26,1.24,5,5,0,0,1-.86,1.29,19.46,19.46,0,0,1-2,1.86c-.77.66-1.27,1.1-1.49,1.33a3.78,3.78,0,0,0-.55.71Z"/><path class="cls-7" d="M496.78,430.17v-1.48h1.48v1.48Z"/><path class="cls-7" d="M502.15,424.43a2.3,2.3,0,0,1-1.19-.84,2.21,2.21,0,0,1-.39-1.31,2.54,2.54,0,0,1,.83-1.94,3,3,0,0,1,2.2-.79,3.09,3.09,0,0,1,2.23.81,2.58,2.58,0,0,1,.84,1.95,2.2,2.2,0,0,1-.38,1.28,2.37,2.37,0,0,1-1.17.84,2.88,2.88,0,0,1,1.48,1,2.79,2.79,0,0,1,.51,1.68,3,3,0,0,1-1,2.28,3.89,3.89,0,0,1-5,0,3.09,3.09,0,0,1-1-2.31,2.78,2.78,0,0,1,.52-1.73A2.67,2.67,0,0,1,502.15,424.43Zm-.68,2.69a2.3,2.3,0,0,0,.27,1.07,1.77,1.77,0,0,0,.78.8,2.31,2.31,0,0,0,1.12.29,2.07,2.07,0,0,0,1.53-.6,2,2,0,0,0,.61-1.52,2.09,2.09,0,0,0-.62-1.55,2.15,2.15,0,0,0-1.57-.61,2.07,2.07,0,0,0-2.12,2.12Zm.42-4.89a1.63,1.63,0,0,0,.49,1.23,1.7,1.7,0,0,0,1.25.48,1.67,1.67,0,0,0,1.23-.48,1.55,1.55,0,0,0,.48-1.15,1.61,1.61,0,0,0-.5-1.2,1.63,1.63,0,0,0-1.22-.49,1.74,1.74,0,0,0-1.24.47A1.57,1.57,0,0,0,501.89,422.23Z"/><path class="cls-7" d="M508.38,427.38l1.29-.18a2.89,2.89,0,0,0,.76,1.59,1.87,1.87,0,0,0,1.31.49,2.08,2.08,0,0,0,1.55-.64,2.13,2.13,0,0,0,.63-1.57,2,2,0,0,0-2.07-2.05,4.12,4.12,0,0,0-.92.14l.15-1.14.21,0a2.66,2.66,0,0,0,1.49-.44,1.47,1.47,0,0,0,.66-1.33,1.57,1.57,0,0,0-.48-1.18,1.69,1.69,0,0,0-1.25-.47,1.8,1.8,0,0,0-1.26.47,2.48,2.48,0,0,0-.65,1.43l-1.3-.23a3.31,3.31,0,0,1,1.09-2,3.1,3.1,0,0,1,2.09-.72,3.58,3.58,0,0,1,1.6.37,2.74,2.74,0,0,1,1.11,1,2.55,2.55,0,0,1,.39,1.36,2.23,2.23,0,0,1-.37,1.25,2.51,2.51,0,0,1-1.09.89,2.41,2.41,0,0,1,1.46.9,2.75,2.75,0,0,1,.52,1.7,3.12,3.12,0,0,1-1,2.35,3.58,3.58,0,0,1-2.55,1,3.32,3.32,0,0,1-2.32-.83A3.18,3.18,0,0,1,508.38,427.38Z"/><path class="cls-7" d="M516.58,427.4l1.36-.12a2.47,2.47,0,0,0,.71,1.5,1.91,1.91,0,0,0,1.33.5,2.07,2.07,0,0,0,1.58-.71,2.61,2.61,0,0,0,.65-1.87,2.45,2.45,0,0,0-.62-1.76,2.21,2.21,0,0,0-1.63-.64,2.3,2.3,0,0,0-1.14.29,2.16,2.16,0,0,0-.79.74l-1.22-.16,1-5.43h5.26V421h-4.22l-.57,2.84a3.47,3.47,0,0,1,2-.66,3.18,3.18,0,0,1,2.34,1,3.35,3.35,0,0,1,1,2.46,3.82,3.82,0,0,1-.84,2.48,3.33,3.33,0,0,1-2.77,1.29,3.43,3.43,0,0,1-2.36-.81A3.15,3.15,0,0,1,516.58,427.4Z"/><path class="cls-7" d="M525.22,423.34l-.36-2v-1.74h1.48v1.74l-.33,2Zm2.38,0-.35-2v-1.74h1.48v1.74l-.35,2Z"/><path class="cls-7" d="M531.19,433.27h-.93a13,13,0,0,0,2.16-6.93,11.69,11.69,0,0,0-.31-2.69,10.48,10.48,0,0,0-.69-2.07,20.77,20.77,0,0,0-1.16-2.17h.93a13.62,13.62,0,0,1,2,3.64,9.79,9.79,0,0,1,.55,3.29,10,10,0,0,1-.74,3.76A13.28,13.28,0,0,1,531.19,433.27Z"/><line class="cls-8" x1="372.44" y1="435.58" x2="629.87" y2="435.58"/><polygon class="cls-7" points="374.79 439.1 361.5 435.43 374.79 431.75 374.79 439.1"/><polygon class="cls-7" points="625.44 439.1 638.74 435.43 625.44 431.75 625.44 439.1"/><path class="cls-7" d="M617.69,612.93l-1.29.1a2.4,2.4,0,0,0-.49-1.11,1.71,1.71,0,0,0-1.3-.55,1.81,1.81,0,0,0-1.09.34,3,3,0,0,0-1,1.31,6.72,6.72,0,0,0-.37,2.44,3,3,0,0,1,1.15-1.06,3.06,3.06,0,0,1,1.42-.34,3,3,0,0,1,2.21,1,3.47,3.47,0,0,1,.91,2.47,4,4,0,0,1-.43,1.85,3.14,3.14,0,0,1-1.18,1.31,3.25,3.25,0,0,1-1.7.45,3.33,3.33,0,0,1-2.65-1.19,6,6,0,0,1-1-3.93,7.09,7.09,0,0,1,1.13-4.46,3.25,3.25,0,0,1,2.66-1.21,2.82,2.82,0,0,1,3,2.63Zm-5.3,4.56a3,3,0,0,0,.29,1.28,2.16,2.16,0,0,0,.79.94,2,2,0,0,0,1.08.32,1.8,1.8,0,0,0,1.41-.67,2.62,2.62,0,0,0,.59-1.8,2.45,2.45,0,0,0-.58-1.73,1.92,1.92,0,0,0-1.47-.63,2,2,0,0,0-1.5.63A2.32,2.32,0,0,0,612.39,617.49Z"/><path class="cls-7" d="M619.17,615.7a9.63,9.63,0,0,1,.39-3,3.65,3.65,0,0,1,1.14-1.76,3,3,0,0,1,1.92-.62,3.24,3.24,0,0,1,1.49.34,2.87,2.87,0,0,1,1.06,1,5,5,0,0,1,.65,1.57,10.37,10.37,0,0,1,.24,2.5,9.52,9.52,0,0,1-.38,3,3.76,3.76,0,0,1-1.14,1.77,3.24,3.24,0,0,1-4.33-.47A7,7,0,0,1,619.17,615.7Zm1.33,0a6.72,6.72,0,0,0,.61,3.47,1.74,1.74,0,0,0,3,0,10.15,10.15,0,0,0,0-6.93,1.81,1.81,0,0,0-1.52-.85,1.68,1.68,0,0,0-1.43.75A6.81,6.81,0,0,0,620.5,615.7Z"/><line class="cls-8" x1="511.48" y1="626.34" x2="728.64" y2="626.34"/><polygon class="cls-7" points="513.83 629.86 500.54 626.18 513.83 622.51 513.83 629.86"/><polygon class="cls-7" points="717.6 629.86 730.9 626.18 717.6 622.51 717.6 629.86"/><path class="cls-7" d="M41.64,505.48H39.11v4.58H37.92l-6.85-4.82v-1.06h6.85v-1.43h1.19v1.43h2.53Zm-3.72,0H33.15l4.77,3.31Z"/><path class="cls-7" d="M32.45,501.34H31.21v-6.85h1a14.19,14.19,0,0,0,2.85,2A17.54,17.54,0,0,0,38.73,498a13.59,13.59,0,0,0,2.91.49v1.34a13.31,13.31,0,0,1-3-.49A15.33,15.33,0,0,1,35.22,498a14.19,14.19,0,0,1-2.77-1.86Z"/><path class="cls-7" d="M41.64,492.48H40.16V491h1.48Z"/><path class="cls-7" d="M41.64,484.24v1.3H33.37a6.12,6.12,0,0,1,.89,1.23,7.68,7.68,0,0,1,.67,1.36H33.68a8,8,0,0,0-1.24-1.9A5,5,0,0,0,31,485.08v-.84Z"/><line class="cls-8" x1="47.06" y1="575.98" x2="47.06" y2="412.61"/><polygon class="cls-7" points="50.58 572.75 46.91 586.04 43.23 572.75 50.58 572.75"/><polygon class="cls-7" points="50.58 417.29 46.91 403.99 43.23 417.29 50.58 417.29"/><path class="cls-7" d="M579.2,249.21l-10.53-.94.42-4.67a6.14,6.14,0,0,1,.48-2.11,2.31,2.31,0,0,1,1.1-1.08,3,3,0,0,1,1.63-.3,2.65,2.65,0,0,1,1.82.89,3.7,3.7,0,0,1,.78,2.33,3.5,3.5,0,0,1,.6-.79,7.3,7.3,0,0,1,1.5-1l3-1.58-.15,1.75-2.32,1.2a17.66,17.66,0,0,0-1.54.88,3.4,3.4,0,0,0-.77.64,2.15,2.15,0,0,0-.33.61,3.87,3.87,0,0,0-.12.77l-.15,1.62,4.68.42Zm-5.75-1.92.26-3a4.42,4.42,0,0,0-.06-1.51,1.62,1.62,0,0,0-.56-.88,1.72,1.72,0,0,0-.92-.36,1.58,1.58,0,0,0-1.28.43,2.56,2.56,0,0,0-.63,1.67L570,247Z"/><path class="cls-7" d="M572.75,231.72V233a2.45,2.45,0,0,0-1.15.39,1.74,1.74,0,0,0-.67,1.24,1.78,1.78,0,0,0,.25,1.12,3,3,0,0,0,1.21,1.08,6.88,6.88,0,0,0,2.4.58,3,3,0,0,1-.95-1.23,3.15,3.15,0,0,1-.22-1.45,3,3,0,0,1,1.15-2.12,3.43,3.43,0,0,1,2.54-.68,4,4,0,0,1,1.81.59,3,3,0,0,1,1.19,1.29,3.23,3.23,0,0,1,.31,1.73,3.35,3.35,0,0,1-1.43,2.53,6,6,0,0,1-4,.67,7.09,7.09,0,0,1-4.34-1.52,3.27,3.27,0,0,1-1-2.76,2.94,2.94,0,0,1,.87-2A3,3,0,0,1,572.75,231.72Zm4.07,5.68a3,3,0,0,0,1.3-.17,2.06,2.06,0,0,0,1-.71,1.92,1.92,0,0,0,.42-1A1.84,1.84,0,0,0,579,234a2.65,2.65,0,0,0-1.75-.75,2.47,2.47,0,0,0-1.77.43,1.92,1.92,0,0,0-.76,1.41,2,2,0,0,0,.5,1.54A2.24,2.24,0,0,0,576.82,237.4Z"/><path class="cls-7" d="M575.64,230.49a9.82,9.82,0,0,1-3-.65,3.8,3.8,0,0,1-1.65-1.3,2.9,2.9,0,0,1-.45-2,3.19,3.19,0,0,1,.47-1.46,3,3,0,0,1,1.08-1,5.29,5.29,0,0,1,1.63-.51,10.29,10.29,0,0,1,2.51,0,9.7,9.7,0,0,1,3,.64,3.83,3.83,0,0,1,1.66,1.3,2.92,2.92,0,0,1,.45,2,2.89,2.89,0,0,1-1.3,2.29A6.94,6.94,0,0,1,575.64,230.49Zm.12-1.33a6.52,6.52,0,0,0,3.51-.3,1.77,1.77,0,0,0,1-1.42,1.8,1.8,0,0,0-.73-1.57,10.09,10.09,0,0,0-6.9-.62,1.8,1.8,0,0,0-1,1.44,1.66,1.66,0,0,0,.63,1.49A6.66,6.66,0,0,0,575.76,229.16Z"/><path class="cls-7" d="M576.37,222.31a9.82,9.82,0,0,1-3-.65,3.86,3.86,0,0,1-1.65-1.3,2.9,2.9,0,0,1-.45-2,3.08,3.08,0,0,1,.48-1.46,2.87,2.87,0,0,1,1.07-1,5.29,5.29,0,0,1,1.63-.51,10.3,10.3,0,0,1,2.51,0,9.84,9.84,0,0,1,3,.64,3.86,3.86,0,0,1,1.65,1.3,2.92,2.92,0,0,1,.45,2,2.89,2.89,0,0,1-1.3,2.29A6.94,6.94,0,0,1,576.37,222.31Zm.12-1.33a6.52,6.52,0,0,0,3.51-.3,1.77,1.77,0,0,0,1-1.42,1.8,1.8,0,0,0-.73-1.57,6.64,6.64,0,0,0-3.39-.92,6.73,6.73,0,0,0-3.51.3,1.8,1.8,0,0,0-1,1.44A1.68,1.68,0,0,0,573,220,6.66,6.66,0,0,0,576.49,221Z"/><line class="cls-8" x1="589.25" y1="197.31" x2="585.67" y2="257.54"/><polygon class="cls-7" points="585.63 198.84 590.08 185.78 592.97 199.28 585.63 198.84"/><path class="cls-7" d="M859.25,566.56l-5.32-9.13,4.05-2.36a6.28,6.28,0,0,1,2-.83,2.38,2.38,0,0,1,1.53.27,3.06,3.06,0,0,1,1.18,1.16,2.69,2.69,0,0,1,.32,2,3.66,3.66,0,0,1-1.45,2,3.82,3.82,0,0,1,1,0,7,7,0,0,1,1.72.64l3,1.56-1.52.88-2.32-1.19c-.67-.35-1.2-.6-1.6-.76a3.37,3.37,0,0,0-1-.25,2.18,2.18,0,0,0-.69.08,3.4,3.4,0,0,0-.7.35l-1.4.81,2.36,4.06Zm-1.76-5.8,2.6-1.52a4.5,4.5,0,0,0,1.19-.92,1.62,1.62,0,0,0,.4-1,1.82,1.82,0,0,0-.24-1,1.58,1.58,0,0,0-1.09-.79,2.62,2.62,0,0,0-1.73.45l-2.89,1.68Z"/><path class="cls-7" d="M869.79,551.2l-1.07.74a2.41,2.41,0,0,0-1-.72,1.73,1.73,0,0,0-1.4.18,1.79,1.79,0,0,0-.77.84,3.05,3.05,0,0,0-.18,1.62,7,7,0,0,0,.91,2.29,3,3,0,0,1,1.52-2.5,2.94,2.94,0,0,1,2.39-.29,3.49,3.49,0,0,1,2,1.68,4.11,4.11,0,0,1,.56,1.81,3.06,3.06,0,0,1-1.61,3,3.27,3.27,0,0,1-2.88.3,6,6,0,0,1-2.87-2.88,7.14,7.14,0,0,1-1.26-4.42,3.26,3.26,0,0,1,1.69-2.39,2.84,2.84,0,0,1,3.92.77Zm-2.29,6.6a3,3,0,0,0,.89,1,2.18,2.18,0,0,0,1.16.41,2,2,0,0,0,1.09-.27,1.83,1.83,0,0,0,.89-1.28,2.68,2.68,0,0,0-.4-1.86,2.46,2.46,0,0,0-1.37-1.2,1.94,1.94,0,0,0-1.59.2,2,2,0,0,0-1,1.29A2.25,2.25,0,0,0,867.5,557.8Z"/><line class="cls-8" x1="906.87" y1="545.2" x2="855.64" y2="577.09"/><polygon class="cls-7" points="903.53 543.13 916.76 539.22 907.42 549.37 903.53 543.13"/><path class="cls-7" d="M318.7,220.66l5.3-9.15,4.05,2.35a6.16,6.16,0,0,1,1.72,1.32,2.33,2.33,0,0,1,.51,1.46,2.93,2.93,0,0,1-.42,1.6,2.63,2.63,0,0,1-1.58,1.28,3.69,3.69,0,0,1-2.44-.28,3.33,3.33,0,0,1,.47.88,6.9,6.9,0,0,1,.3,1.8l.15,3.41-1.52-.89-.11-2.6q-.06-1.12-.15-1.77a2.73,2.73,0,0,0-.26-1,2.19,2.19,0,0,0-.41-.57,4.82,4.82,0,0,0-.64-.43l-1.41-.81-2.35,4.06Zm4.17-4.41,2.6,1.51a4.57,4.57,0,0,0,1.4.58,1.63,1.63,0,0,0,1-.14,1.81,1.81,0,0,0,.72-.68,1.55,1.55,0,0,0,.14-1.34,2.55,2.55,0,0,0-1.24-1.28l-2.9-1.68Z"/><path class="cls-7" d="M331.68,228.18l-1.13-.65,4.15-7.16a7.13,7.13,0,0,1-1.51.16,8.37,8.37,0,0,1-1.52-.11l.63-1.08a7.73,7.73,0,0,0,2.27-.12,4.85,4.85,0,0,0,1.71-.65l.72.42Z"/><path class="cls-7" d="M337.17,225.33a9.66,9.66,0,0,1,1.84-2.42,3.74,3.74,0,0,1,1.88-.95,3,3,0,0,1,2,.42,3.16,3.16,0,0,1,1.12,1.05,2.84,2.84,0,0,1,.43,1.38,5.23,5.23,0,0,1-.23,1.69,10.49,10.49,0,0,1-1,2.29,9.46,9.46,0,0,1-1.84,2.4,3.78,3.78,0,0,1-1.87,1,3,3,0,0,1-2-.43,2.86,2.86,0,0,1-1.52-2.15A6.88,6.88,0,0,1,337.17,225.33Zm1.15.67a6.55,6.55,0,0,0-1.21,3.3,1.74,1.74,0,0,0,2.6,1.51,10.24,10.24,0,0,0,3.48-6,1.8,1.8,0,0,0-.89-1.5,1.65,1.65,0,0,0-1.61-.06A6.68,6.68,0,0,0,338.32,226Z"/><line class="cls-8" x1="286.63" y1="212.2" x2="339.72" y2="240.87"/><polygon class="cls-7" points="286.49 216.12 276.53 206.57 289.98 209.66 286.49 216.12"/><path class="cls-7" d="M374.62,358.21l-7.47-7.47,3.32-3.32a6.18,6.18,0,0,1,1.72-1.31,2.25,2.25,0,0,1,1.54-.12,3,3,0,0,1,1.44.81,2.65,2.65,0,0,1,.82,1.86,3.7,3.7,0,0,1-.89,2.28,3.64,3.64,0,0,1,1-.22,7.44,7.44,0,0,1,1.82.17l3.33.74L380,352.87l-2.55-.57c-.73-.16-1.31-.26-1.74-.31a3.29,3.29,0,0,0-1,0,2.2,2.2,0,0,0-.65.25,4.13,4.13,0,0,0-.59.52l-1.14,1.14,3.31,3.32Zm-3.18-5.16,2.13-2.13a4.68,4.68,0,0,0,.92-1.2,1.62,1.62,0,0,0,.13-1,1.69,1.69,0,0,0-.47-.87,1.58,1.58,0,0,0-1.26-.48,2.54,2.54,0,0,0-1.56.87L369,350.58Z"/><path class="cls-7" d="M385.22,347.62l-.91.92-5.85-5.85a6.6,6.6,0,0,1-.24,1.5,8.89,8.89,0,0,1-.49,1.44l-.89-.89a7.81,7.81,0,0,0,.47-2.22,5,5,0,0,0-.18-1.82l.59-.59Z"/><path class="cls-7" d="M383.89,341.58a9.29,9.29,0,0,1-1.86-2.4,3.8,3.8,0,0,1-.44-2.06,2.91,2.91,0,0,1,.92-1.79,3.21,3.21,0,0,1,1.3-.82,2.91,2.91,0,0,1,1.44-.05,5.46,5.46,0,0,1,1.58.65,10.65,10.65,0,0,1,1.93,1.6,9.92,9.92,0,0,1,1.86,2.39,3.8,3.8,0,0,1,.44,2.06,2.94,2.94,0,0,1-.92,1.8,2.89,2.89,0,0,1-2.47.92A6.91,6.91,0,0,1,383.89,341.58Zm.94-.94a6.65,6.65,0,0,0,2.88,2,1.75,1.75,0,0,0,2.13-2.13,6.74,6.74,0,0,0-2-2.88,6.65,6.65,0,0,0-2.88-2,1.8,1.8,0,0,0-1.68.47,1.67,1.67,0,0,0-.48,1.54A6.8,6.8,0,0,0,384.83,340.64Z"/><line class="cls-8" x1="358.12" y1="386.99" x2="399.5" y2="343.08"/><polygon class="cls-7" points="361.88 388.14 350.08 395.3 356.53 383.1 361.88 388.14"/><path class="cls-7" d="M299.58,325.18l-7.47-7.48,3.31-3.31a6.2,6.2,0,0,1,1.72-1.32,2.4,2.4,0,0,1,1.55-.12,2.92,2.92,0,0,1,1.43.82,2.66,2.66,0,0,1,.83,1.85,3.7,3.7,0,0,1-.9,2.29,3.78,3.78,0,0,1,1-.23,7.88,7.88,0,0,1,1.81.17l3.34.74-1.24,1.24-2.55-.56c-.74-.16-1.32-.27-1.74-.32a3.29,3.29,0,0,0-1,0,2.11,2.11,0,0,0-.65.26,3.46,3.46,0,0,0-.59.51l-1.15,1.15,3.32,3.32ZM296.4,320l2.12-2.13a4.6,4.6,0,0,0,.92-1.19,1.66,1.66,0,0,0,.14-1,1.72,1.72,0,0,0-.48-.86,1.54,1.54,0,0,0-1.25-.49,2.54,2.54,0,0,0-1.56.87l-2.37,2.37Z"/><path class="cls-7" d="M305.84,307.63l-.84,1a2.39,2.39,0,0,0-1.13-.44,1.73,1.73,0,0,0-1.31.52,1.84,1.84,0,0,0-.53,1,3.09,3.09,0,0,0,.24,1.6,6.84,6.84,0,0,0,1.47,2,3,3,0,0,1,.06-1.56,3.15,3.15,0,0,1,.76-1.25,3,3,0,0,1,2.24-.88,3.39,3.39,0,0,1,2.39,1.1,4,4,0,0,1,1,1.61,3.12,3.12,0,0,1,.09,1.76,3.23,3.23,0,0,1-.88,1.52,3.33,3.33,0,0,1-2.72,1,6.06,6.06,0,0,1-3.51-2.06,7.1,7.1,0,0,1-2.35-3.95,3.27,3.27,0,0,1,1-2.74,2.83,2.83,0,0,1,4-.26Zm-.52,7a3,3,0,0,0,1.1.71,2.19,2.19,0,0,0,1.23.1,1.93,1.93,0,0,0,1-.54,1.82,1.82,0,0,0,.54-1.46,2.63,2.63,0,0,0-.86-1.7,2.52,2.52,0,0,0-1.64-.81,1.92,1.92,0,0,0-1.48.6,2,2,0,0,0-.61,1.5A2.25,2.25,0,0,0,305.32,314.6Z"/><line class="cls-8" x1="283.08" y1="353.95" x2="324.46" y2="310.04"/><polygon class="cls-7" points="286.83 355.1 275.04 362.26 281.48 350.06 286.83 355.1"/><path class="cls-7" d="M390.42,490.49l6.06-8.66,3.84,2.69a6.18,6.18,0,0,1,1.6,1.47,2.32,2.32,0,0,1,.38,1.5,2.94,2.94,0,0,1-.55,1.55,2.63,2.63,0,0,1-1.68,1.14,3.7,3.7,0,0,1-2.41-.49,3.68,3.68,0,0,1,.39.92,6.9,6.9,0,0,1,.14,1.81l-.14,3.41-1.44-1,.11-2.61a17.63,17.63,0,0,0,0-1.77,3.23,3.23,0,0,0-.17-1,2.26,2.26,0,0,0-.36-.59,4.5,4.5,0,0,0-.61-.49l-1.33-.93-2.7,3.84Zm4.53-4,2.47,1.72a4.44,4.44,0,0,0,1.34.7,1.57,1.57,0,0,0,1-.05,1.74,1.74,0,0,0,.78-.61,1.58,1.58,0,0,0,.26-1.33,2.55,2.55,0,0,0-1.13-1.38L397,483.59Z"/><path class="cls-7" d="M402.71,499.09l-1.06-.75,4.75-6.77a7.46,7.46,0,0,1-1.52,0,9,9,0,0,1-1.51-.24l.72-1a7.6,7.6,0,0,0,2.27.08,4.85,4.85,0,0,0,1.76-.5l.68.48Z"/><path class="cls-7" d="M408.42,496.72a9.84,9.84,0,0,1,2.05-2.25,3.75,3.75,0,0,1,1.95-.78,2.87,2.87,0,0,1,1.93.59,3.11,3.11,0,0,1,1,1.13,2.86,2.86,0,0,1,.3,1.42,5.13,5.13,0,0,1-.36,1.66,10.77,10.77,0,0,1-1.24,2.19,9.74,9.74,0,0,1-2,2.24,3.7,3.7,0,0,1-1.95.79,3.22,3.22,0,0,1-3.27-2.87A7.08,7.08,0,0,1,408.42,496.72Zm1.1.77a6.52,6.52,0,0,0-1.49,3.18,1.75,1.75,0,0,0,2.46,1.73,10.16,10.16,0,0,0,4-5.68,1.83,1.83,0,0,0-.75-1.57,1.68,1.68,0,0,0-1.61-.2A6.71,6.71,0,0,0,409.52,497.49Z"/><line class="cls-8" x1="359.18" y1="479.33" x2="409.61" y2="512.46"/><polygon class="cls-7" points="358.7 483.22 349.6 472.85 362.73 477.08 358.7 483.22"/><path class="cls-7" d="M112,561.68,107.87,552l4.32-1.83a5.93,5.93,0,0,1,2.09-.57,2.37,2.37,0,0,1,1.47.46,3.07,3.07,0,0,1,1,1.3,2.65,2.65,0,0,1,.06,2,3.65,3.65,0,0,1-1.69,1.78,3.38,3.38,0,0,1,1,.16,6.61,6.61,0,0,1,1.62.84l2.82,1.93-1.62.69-2.15-1.48c-.62-.43-1.12-.74-1.5-1a3.24,3.24,0,0,0-.93-.38,2.29,2.29,0,0,0-.69,0,5.22,5.22,0,0,0-.74.26l-1.49.63,1.82,4.33Zm-1-6,2.77-1.17a4.6,4.6,0,0,0,1.31-.77,1.58,1.58,0,0,0,.51-.91,1.73,1.73,0,0,0-.11-1,1.57,1.57,0,0,0-1-.92,2.57,2.57,0,0,0-1.78.22l-3.08,1.31Z"/><path class="cls-7" d="M125.8,555.83l-1.2.5-3.22-7.62a6.79,6.79,0,0,1-.78,1.31,9.48,9.48,0,0,1-1,1.15l-.49-1.16a7.69,7.69,0,0,0,1.27-1.88,4.94,4.94,0,0,0,.51-1.75l.78-.33Z"/><path class="cls-7" d="M129.52,554.24l-.57-1.37,1.36-.57.57,1.36Z"/><path class="cls-7" d="M131.56,550.37l1.21-.64a2.48,2.48,0,0,0,1.23,1.11,1.94,1.94,0,0,0,1.42-.06,2.06,2.06,0,0,0,1.18-1.27,2.66,2.66,0,0,0-.13-2,2.41,2.41,0,0,0-1.26-1.37,2.34,2.34,0,0,0-3.13,1.74l-1.18.33-1.17-5.4,4.84-2.05.48,1.14-3.88,1.65.58,2.83a3.43,3.43,0,0,1,1.58-1.38,3.18,3.18,0,0,1,2.53,0,3.33,3.33,0,0,1,1.83,1.9,3.82,3.82,0,0,1,.2,2.61,3.34,3.34,0,0,1-2.06,2.26,3.38,3.38,0,0,1-2.48.18A3.15,3.15,0,0,1,131.56,550.37Z"/><line class="cls-8" x1="87.52" y1="580.64" x2="142.37" y2="555.5"/><polygon class="cls-7" points="90.57 583.12 76.95 585.32 87.51 576.44 90.57 583.12"/><path class="cls-7" d="M943.33,561.65v1.29h-8.27a7.27,7.27,0,0,1,.9,1.23,8.93,8.93,0,0,1,.67,1.37h-1.26a7.52,7.52,0,0,0-1.24-1.9,4.75,4.75,0,0,0-1.41-1.16v-.83Z"/><path class="cls-7" d="M943.33,554.16H940.8v4.59h-1.19l-6.85-4.83v-1.06h6.85v-1.42h1.19v1.42h2.53Zm-3.72,0h-4.76l4.76,3.31Z"/><path class="cls-7" d="M580.53,535.84l-.17-1.3a2.89,2.89,0,0,0,1.59-.76,1.89,1.89,0,0,0,.48-1.31,2.09,2.09,0,0,0-.63-1.54,2.14,2.14,0,0,0-1.57-.63,2,2,0,0,0-1.48.58,2,2,0,0,0-.58,1.49,3.55,3.55,0,0,0,.15.91l-1.14-.14a1.79,1.79,0,0,0,0-.21,2.65,2.65,0,0,0-.43-1.49,1.47,1.47,0,0,0-1.33-.67,1.61,1.61,0,0,0-1.19.48,1.9,1.9,0,0,0,0,2.51,2.33,2.33,0,0,0,1.43.65l-.23,1.3a3.38,3.38,0,0,1-2-1.08,3.16,3.16,0,0,1-.71-2.1,3.39,3.39,0,0,1,.37-1.59,2.62,2.62,0,0,1,2.38-1.5,2.18,2.18,0,0,1,1.24.37,1,1,0,1,0,1.79-.37,2.74,2.74,0,0,1,1.71-.52,3.16,3.16,0,0,1,2.35,1,3.54,3.54,0,0,1,1,2.55,3.32,3.32,0,0,1-.83,2.31A3.23,3.23,0,0,1,580.53,535.84Z"/><path class="cls-7" d="M578.11,527.63a9.62,9.62,0,0,1-3-.38,3.74,3.74,0,0,1-1.76-1.15,2.87,2.87,0,0,1-.62-1.91,3.06,3.06,0,0,1,.34-1.49,2.87,2.87,0,0,1,1-1.06,5.27,5.27,0,0,1,1.57-.66,10.37,10.37,0,0,1,2.5-.24,9.82,9.82,0,0,1,3,.38,3.82,3.82,0,0,1,1.77,1.15,3,3,0,0,1,.62,1.92,2.89,2.89,0,0,1-1.09,2.4A7,7,0,0,1,578.11,527.63Zm0-1.33a6.57,6.57,0,0,0,3.46-.61,1.74,1.74,0,0,0,0-3,10.15,10.15,0,0,0-6.93,0,1.8,1.8,0,0,0-.86,1.51,1.65,1.65,0,0,0,.76,1.43A6.66,6.66,0,0,0,578.11,526.3Z"/><line class="cls-8" x1="588.74" y1="575.98" x2="588.74" y2="479.6"/><polygon class="cls-7" points="592.26 572.75 588.59 586.04 584.91 572.75 592.26 572.75"/><polygon class="cls-7" points="592.26 485.04 588.59 471.74 584.91 485.04 592.26 485.04"/><path class="cls-7" d="M660.19,547.54h1.25v7a2.24,2.24,0,0,1-.9-.15,4.61,4.61,0,0,1-1.41-.86,12.85,12.85,0,0,1-1.6-1.69,14.12,14.12,0,0,0-2.24-2.33,2.64,2.64,0,0,0-1.56-.61,1.76,1.76,0,0,0-1.3.55,2.26,2.26,0,0,0,0,2.94A2.09,2.09,0,0,0,654,553l-.14,1.34a3.3,3.3,0,0,1-2.27-1,3.46,3.46,0,0,1-.79-2.4,3.35,3.35,0,0,1,.85-2.4,2.74,2.74,0,0,1,2.09-.89,3.08,3.08,0,0,1,1.25.26,4.89,4.89,0,0,1,1.29.86,21.59,21.59,0,0,1,1.86,2,19.32,19.32,0,0,0,1.33,1.5,4.8,4.8,0,0,0,.7.55Z"/><path class="cls-7" d="M656.22,546.15a9.85,9.85,0,0,1-3-.38,3.82,3.82,0,0,1-1.77-1.15,3,3,0,0,1-.62-1.91,3.13,3.13,0,0,1,.35-1.5,2.83,2.83,0,0,1,1-1.06,5.33,5.33,0,0,1,1.58-.65,10.28,10.28,0,0,1,2.49-.24,9.9,9.9,0,0,1,3,.38,3.8,3.8,0,0,1,1.76,1.14,3.21,3.21,0,0,1-.47,4.33A7,7,0,0,1,656.22,546.15Zm0-1.33a6.61,6.61,0,0,0,3.47-.61,1.75,1.75,0,0,0,0-3,6.72,6.72,0,0,0-3.47-.61,6.65,6.65,0,0,0-3.46.61,1.79,1.79,0,0,0-.86,1.52,1.66,1.66,0,0,0,.76,1.43A6.74,6.74,0,0,0,656.22,544.82Z"/><line class="cls-8" x1="666.86" y1="575.98" x2="666.86" y2="523.13"/><polygon class="cls-7" points="670.38 572.75 666.71 586.04 663.03 572.75 670.38 572.75"/><polygon class="cls-7" points="670.38 524.35 666.71 511.05 663.03 524.35 670.38 524.35"/><path class="cls-6" d="M752.33,284.26H749.8v4.6h-1.2L741.74,284V283h6.86v-1.43h1.2V283h2.53Zm-3.73,0h-4.77l4.77,3.32Z"/><path class="cls-6" d="M743.13,280.62h-1.25v-6.86h1a14.58,14.58,0,0,0,2.86,2,16.93,16.93,0,0,0,3.67,1.54,13.58,13.58,0,0,0,2.91.5v1.33a12.41,12.41,0,0,1-3-.49,15.33,15.33,0,0,1-3.41-1.35,14.19,14.19,0,0,1-2.77-1.86Z"/><path class="cls-6" d="M752.33,273.16h-1.48v-1.48h1.48Z"/><path class="cls-6" d="M749.56,269.63l-.12-1.36a2.41,2.41,0,0,0,1.5-.71,1.88,1.88,0,0,0,.5-1.33,2.07,2.07,0,0,0-.7-1.59,2.7,2.7,0,0,0-1.88-.65,2.44,2.44,0,0,0-1.76.62,2.19,2.19,0,0,0-.64,1.64,2.23,2.23,0,0,0,.28,1.13,2.2,2.2,0,0,0,.74.8l-.16,1.22-5.44-1v-5.27h1.25v4.22l2.84.58a3.5,3.5,0,0,1-.66-2,3.18,3.18,0,0,1,1-2.34,3.37,3.37,0,0,1,2.47-.95,3.86,3.86,0,0,1,2.49.84,3.36,3.36,0,0,1,1.28,2.78,3.43,3.43,0,0,1-.81,2.36A3.11,3.11,0,0,1,749.56,269.63Z"/><path class="cls-6" d="M800.17,289.54l-.12-1.36a2.41,2.41,0,0,0,1.5-.71,1.89,1.89,0,0,0,.51-1.33,2.07,2.07,0,0,0-.71-1.59,2.69,2.69,0,0,0-1.88-.65,2.45,2.45,0,0,0-1.76.62,2.23,2.23,0,0,0-.64,1.64,2.3,2.3,0,0,0,.29,1.14,2.16,2.16,0,0,0,.74.79l-.16,1.22-5.44-1V283h1.24v4.23l2.85.57a3.44,3.44,0,0,1-.67-2,3.18,3.18,0,0,1,1-2.34,3.39,3.39,0,0,1,2.47-1,3.86,3.86,0,0,1,2.49.84,3.34,3.34,0,0,1,1.29,2.78,3.43,3.43,0,0,1-.81,2.36A3.14,3.14,0,0,1,800.17,289.54Z"/><path class="cls-6" d="M800.17,281.1l-.12-1.36a2.41,2.41,0,0,0,1.5-.71,1.87,1.87,0,0,0,.51-1.33,2.11,2.11,0,0,0-.71-1.59,2.69,2.69,0,0,0-1.88-.65,2.42,2.42,0,0,0-1.76.63,2.19,2.19,0,0,0-.64,1.63,2.3,2.3,0,0,0,.29,1.14,2.16,2.16,0,0,0,.74.79l-.16,1.22-5.44-1v-5.27h1.24v4.23l2.85.57a3.43,3.43,0,0,1-.67-2,3.15,3.15,0,0,1,1-2.34,3.35,3.35,0,0,1,2.47-1,3.86,3.86,0,0,1,2.49.84,3.36,3.36,0,0,1,1.29,2.78,3.42,3.42,0,0,1-.81,2.36A3.14,3.14,0,0,1,800.17,281.1Z"/><path class="cls-6" d="M803,272.08h-1.49V270.6H803Z"/><path class="cls-6" d="M800.17,268.56l-.12-1.37a2.46,2.46,0,0,0,1.5-.7,1.92,1.92,0,0,0,.51-1.34,2.11,2.11,0,0,0-.71-1.59,2.69,2.69,0,0,0-1.88-.65,2.42,2.42,0,0,0-1.76.63,2.19,2.19,0,0,0-.64,1.63,2.3,2.3,0,0,0,.29,1.14,2.09,2.09,0,0,0,.74.79l-.16,1.22-5.44-1V262h1.24v4.23l2.85.57a3.41,3.41,0,0,1-.67-2,3.15,3.15,0,0,1,1-2.34,3.35,3.35,0,0,1,2.47-1,3.86,3.86,0,0,1,2.49.84,3.36,3.36,0,0,1,1.29,2.78,3.42,3.42,0,0,1-.81,2.36A3.19,3.19,0,0,1,800.17,268.56Z"/></g><g id="Watermark"><rect class="cls-9" x="438.45" y="283.73" width="123.09" height="46.3"/><rect class="cls-10" x="444.86" y="291.57" width="62.89" height="30.62"/><rect class="cls-10" x="507.75" y="291.57" width="47.39" height="30.62"/><path class="cls-11" d="M466.48,297.67l-2.79,18.92H461l-1.55-11-1.53,11h-2.74l-2.8-18.92h2.51l1.79,14.17,1.79-14.17h2l1.79,14.17L464,297.67Z"/><path class="cls-11" d="M467.93,316.59V297.67h2.53v18.92Z"/><path class="cls-11" d="M472.83,297.67h5q2.9,0,2.9,3.24v4.66c0,1.66-.51,2.7-1.51,3.14l1.77,7.88h-2.4L476.89,309h-1.53v7.64h-2.53Zm2.53,9.12H477c.76,0,1.14-.46,1.14-1.37v-4.09c0-.91-.38-1.37-1.14-1.37h-1.66Z"/><path class="cls-11" d="M486.82,300v16.63h-2.53V300h-2.42v-2.29h7.38V300Z"/><path class="cls-11" d="M496.34,316.59V308h-3.11v8.59H490.7V297.67h2.53v8h3.11v-8h2.53v18.92Z"/><path class="cls-11" d="M516.31,297.67h5q2.9,0,2.89,3.24v4.66c0,1.66-.5,2.7-1.5,3.14l1.77,7.88H522L520.37,309h-1.53v7.64h-2.53Zm2.53,9.12h1.66c.76,0,1.13-.46,1.13-1.37v-4.09c0-.91-.37-1.37-1.13-1.37h-1.66Z"/><path class="cls-11" d="M528.67,316.59h-2.53V300.91q0-3.24,3-3.24h1.9q3,0,3,3.24v15.68h-2.53v-6.93h-2.9Zm2.9-9.22v-6.3a1,1,0,0,0-1.11-1.11h-.68a1,1,0,0,0-1.11,1.11v6.3Z"/><path class="cls-11" d="M536.34,316.59V297.67h2.53v18.92Z"/><path class="cls-11" d="M547.24,316.59h-6V297.67h2.53V314.3h3.47Z"/></g></svg>