<svg xmlns="http://www.w3.org/2000/svg" viewBox="0 0 1000 800"><defs><style>.cls-1,.cls-11{fill:#f0f0f0;}.cls-10,.cls-2,.cls-3,.cls-4,.cls-5,.cls-6,.cls-7{fill:none;}.cls-2,.cls-3,.cls-5,.cls-6,.cls-7{stroke:#231f20;}.cls-2{stroke-width:2px;}.cls-5{stroke-dasharray:10.09 3.09;}.cls-6{stroke-dasharray:10.08 2.99;}.cls-7{stroke-dasharray:9.31 2.22;}.cls-8{fill:#231f20;}.cls-9{fill:#303030;}.cls-10{stroke:#303030;}.cls-10,.cls-11{stroke-miterlimit:10;}.cls-11{stroke:#ccc;}.cls-12{fill:#ccc;}</style></defs><g id="Flat"><path class="cls-1" d="M897.62,613.73c-10.92-2.42-165.71-41.92-165.71-41.92-42.94-8.28-77.65-46.06-83.57-97.06V415.2c6.7-40.46,29-77.32,73.69-94.11l31.26-12.83c15-6.7,26.32-14.81,25.46-56V171s3.63-46.09-40-48.52c0,0-129.72-14.55-238.86-10.92C390.71,107.93,261,122.48,261,122.48,217.33,124.91,221,171,221,171v81.27c-.86,41.18,10.42,49.29,25.47,56l31.25,12.83c44.66,16.79,67,53.65,73.69,94.11v59.55c-5.92,51-40.63,88.78-83.56,97.06,0,0-154.8,39.5-165.72,41.92s-10.91,20.62-10.91,20.62v32.46H908.53V634.35s0-18.2-10.91-20.62"/><path class="cls-2" d="M897.62,613.73c-10.92-2.42-165.71-41.92-165.71-41.92-42.94-8.28-77.65-46.06-83.57-97.06V415.2c6.7-40.46,29-77.32,73.69-94.11l31.26-12.83c15-6.7,26.32-14.81,25.46-56V171s3.63-46.09-40-48.52c0,0-129.72-14.55-238.86-10.92C390.71,107.93,261,122.48,261,122.48,217.33,124.91,221,171,221,171v81.27c-.86,41.18,10.42,49.29,25.47,56l31.25,12.83c44.66,16.79,67,53.65,73.69,94.11v59.55c-5.92,51-40.63,88.78-83.56,97.06,0,0-154.8,39.5-165.72,41.92s-10.91,20.62-10.91,20.62v32.46H908.53V634.35S908.53,616.15,897.62,613.73Z"/><line class="cls-3" x1="502.71" y1="111.47" x2="999" y2="111.41"/><rect class="cls-4" x="9" y="58.39" width="990" height="683.2"/><line class="cls-3" x1="826.1" y1="296.83" x2="779.35" y2="296.83"/><line class="cls-3" x1="908.04" y1="617.04" x2="942.59" y2="617.04"/><line class="cls-3" x1="779.35" y1="61.5" x2="779.35" y2="296.58"/><line class="cls-3" x1="647.81" y1="352.02" x2="647.81" y2="552.08"/><line class="cls-3" x1="999" y1="666.66" x2="38.35" y2="666.66"/><rect class="cls-4" x="9" y="58.39" width="990" height="683.2"/><line class="cls-5" x1="500.34" y1="694.9" x2="499.45" y2="126.3"/><line class="cls-6" x1="811.69" y1="397.89" x2="114.75" y2="397.31"/><line class="cls-7" x1="88.16" y1="397.3" x2="44.65" y2="397.3"/><path class="cls-3" d="M42.44,397.3H33.22m78.56,0H92.57m735.05.6h-10"/><line class="cls-3" x1="908.04" y1="616.52" x2="908.04" y2="741.59"/><rect class="cls-4" x="9" y="58.39" width="990" height="683.2"/><line class="cls-3" x1="650.1" y1="351.22" x2="870.16" y2="351.22"/><line class="cls-3" x1="647.65" y1="552.08" x2="971.68" y2="552.08"/><line class="cls-3" x1="779.35" y1="296.58" x2="647.81" y2="352.02"/><line class="cls-3" x1="908.04" y1="616.52" x2="647.93" y2="551.57"/><line class="cls-3" x1="220.24" y1="61.5" x2="220.24" y2="296.58"/><line class="cls-3" x1="351.77" y1="352.02" x2="351.77" y2="552.08"/><line class="cls-3" x1="91.54" y1="617.18" x2="91.54" y2="741.59"/><rect class="cls-4" x="9" y="58.39" width="990" height="683.2"/><line class="cls-3" x1="220.24" y1="296.58" x2="351.77" y2="352.02"/><line class="cls-3" x1="90.72" y1="617.57" x2="352.72" y2="550.25"/><path class="cls-8" d="M512.91,104.62V98.53l-5.55-8.28h2.29l2.84,4.34c.52.82,1,1.62,1.47,2.42.44-.75,1-1.59,1.6-2.52l2.79-4.24h2.21l-5.74,8.28v6.09Z"/><path class="cls-8" d="M513.52,693.82v-6.08L508,679.46h2.29l2.85,4.34c.51.82,1,1.62,1.46,2.42.44-.75,1-1.59,1.6-2.53l2.79-4.23h2.21l-5.74,8.28v6.08Z"/><rect class="cls-4" x="9" y="58.39" width="990" height="683.2"/><path class="cls-9" d="M470.39,726.31v1.2h-6.75a2.34,2.34,0,0,1,.14-.87,4.83,4.83,0,0,1,.83-1.36,12.77,12.77,0,0,1,1.64-1.54,14,14,0,0,0,2.25-2.16,2.61,2.61,0,0,0,.58-1.51,1.66,1.66,0,0,0-.53-1.26,1.92,1.92,0,0,0-1.39-.51,2,2,0,0,0-1.45.54,2.1,2.1,0,0,0-.55,1.51l-1.28-.14a3.09,3.09,0,0,1,1-2.19,3.38,3.38,0,0,1,2.32-.76,3.23,3.23,0,0,1,2.33.82,2.66,2.66,0,0,1,.85,2,3,3,0,0,1-.25,1.2,4.82,4.82,0,0,1-.83,1.25,21.41,21.41,0,0,1-1.93,1.79,17.54,17.54,0,0,0-1.45,1.29,3.59,3.59,0,0,0-.53.68Z"/><path class="cls-9" d="M478.32,726.31v1.2h-6.75a2.16,2.16,0,0,1,.15-.87,4.57,4.57,0,0,1,.82-1.36,13.48,13.48,0,0,1,1.64-1.54,14,14,0,0,0,2.25-2.16,2.63,2.63,0,0,0,.59-1.51,1.66,1.66,0,0,0-.54-1.26,1.92,1.92,0,0,0-1.39-.51,2,2,0,0,0-1.45.54,2.1,2.1,0,0,0-.55,1.51l-1.28-.14a3.13,3.13,0,0,1,1-2.19,3.38,3.38,0,0,1,2.32-.76,3.22,3.22,0,0,1,2.33.82,2.66,2.66,0,0,1,.85,2,3,3,0,0,1-.25,1.2,4.58,4.58,0,0,1-.83,1.25,21.41,21.41,0,0,1-1.93,1.79c-.75.63-1.24,1.06-1.45,1.29a4,4,0,0,0-.53.68Z"/><path class="cls-9" d="M479.66,722.48a9.65,9.65,0,0,1,.37-2.92,3.66,3.66,0,0,1,1.11-1.7,2.84,2.84,0,0,1,1.85-.6,3,3,0,0,1,1.44.33,2.78,2.78,0,0,1,1,1,5.24,5.24,0,0,1,.63,1.51,10.29,10.29,0,0,1,.23,2.42,9.3,9.3,0,0,1-.37,2.9,3.65,3.65,0,0,1-1.1,1.7,3.1,3.1,0,0,1-4.18-.45A6.76,6.76,0,0,1,479.66,722.48Zm1.29,0a6.4,6.4,0,0,0,.59,3.34,1.67,1.67,0,0,0,2.9,0,9.78,9.78,0,0,0,0-6.69,1.75,1.75,0,0,0-1.46-.83,1.59,1.59,0,0,0-1.38.73A6.48,6.48,0,0,0,481,722.48Z"/><path class="cls-9" d="M494.3,730.51a12.57,12.57,0,0,1-1.76-3.06,9.71,9.71,0,0,1-.18-6.81,13.34,13.34,0,0,1,1.94-3.51h.9a22.88,22.88,0,0,0-1.12,2.07,11.43,11.43,0,0,0-.66,2,11.64,11.64,0,0,0-.3,2.62,12.53,12.53,0,0,0,2.08,6.69Z"/><path class="cls-9" d="M498.23,722a2.36,2.36,0,0,1-1.15-.82,2.12,2.12,0,0,1-.38-1.27,2.5,2.5,0,0,1,.8-1.87,3,3,0,0,1,2.13-.76,3,3,0,0,1,2.16.78,2.53,2.53,0,0,1,.81,1.89,2.06,2.06,0,0,1-.37,1.23,2.4,2.4,0,0,1-1.13.82,2.58,2.58,0,0,1,1.92,2.61,2.91,2.91,0,0,1-.93,2.2,3.74,3.74,0,0,1-4.87,0,3,3,0,0,1-.93-2.23,2.7,2.7,0,0,1,.51-1.67A2.46,2.46,0,0,1,498.23,722Zm-.65,2.59a2.24,2.24,0,0,0,.25,1,1.74,1.74,0,0,0,.76.78,2.23,2.23,0,0,0,1.08.28,2,2,0,0,0,1.48-.58,2,2,0,0,0,.59-1.47,2,2,0,0,0-.61-1.5,2.07,2.07,0,0,0-1.5-.59,2,2,0,0,0-2.05,2.05Zm.4-4.72a1.62,1.62,0,0,0,.47,1.19,1.8,1.8,0,0,0,2.4,0,1.52,1.52,0,0,0,.46-1.12,1.57,1.57,0,0,0-.48-1.16,1.61,1.61,0,0,0-1.18-.47,1.65,1.65,0,0,0-1.19.46A1.47,1.47,0,0,0,498,719.85Z"/><path class="cls-9" d="M504.94,727.51v-1.43h1.43v1.43Z"/><path class="cls-9" d="M514.7,719.8l-1.24.1a2.27,2.27,0,0,0-.48-1.07,1.64,1.64,0,0,0-1.25-.54,1.67,1.67,0,0,0-1.05.34,2.68,2.68,0,0,0-.93,1.26,6.52,6.52,0,0,0-.36,2.36,2.94,2.94,0,0,1,1.11-1,3,3,0,0,1,1.37-.33,2.83,2.83,0,0,1,2.13.92,3.31,3.31,0,0,1,.88,2.39,3.85,3.85,0,0,1-.41,1.78,3.07,3.07,0,0,1-1.14,1.27,3.12,3.12,0,0,1-1.64.44,3.21,3.21,0,0,1-2.56-1.16,5.81,5.81,0,0,1-1-3.8,6.8,6.8,0,0,1,1.1-4.3,3.13,3.13,0,0,1,2.57-1.17,2.74,2.74,0,0,1,2.89,2.54Zm-5.12,4.4a2.92,2.92,0,0,0,.28,1.24,2,2,0,0,0,.77.91,2,2,0,0,0,1,.31A1.76,1.76,0,0,0,513,726a2.5,2.5,0,0,0,.57-1.74,2.32,2.32,0,0,0-.56-1.66,1.85,1.85,0,0,0-1.42-.61,1.9,1.9,0,0,0-1.44.61A2.15,2.15,0,0,0,509.58,724.2Z"/><path class="cls-9" d="M522.63,719.8l-1.24.1a2.38,2.38,0,0,0-.47-1.07,1.76,1.76,0,0,0-2.31-.2,2.75,2.75,0,0,0-.93,1.26,6.52,6.52,0,0,0-.36,2.36,2.94,2.94,0,0,1,1.11-1,3,3,0,0,1,1.37-.33,2.87,2.87,0,0,1,2.14.92,3.35,3.35,0,0,1,.88,2.39,3.86,3.86,0,0,1-.42,1.78,2.94,2.94,0,0,1-1.14,1.27,3.12,3.12,0,0,1-1.64.44,3.23,3.23,0,0,1-2.56-1.16,5.87,5.87,0,0,1-1-3.8,6.81,6.81,0,0,1,1.09-4.3,3.13,3.13,0,0,1,2.57-1.17,2.88,2.88,0,0,1,2,.68A2.82,2.82,0,0,1,522.63,719.8Zm-5.11,4.4a2.91,2.91,0,0,0,.27,1.24,2.1,2.1,0,0,0,.77.91,2,2,0,0,0,1,.31A1.76,1.76,0,0,0,521,726a2.5,2.5,0,0,0,.58-1.74,2.32,2.32,0,0,0-.57-1.66,1.85,1.85,0,0,0-1.42-.61,1.9,1.9,0,0,0-1.44.61A2.14,2.14,0,0,0,517.52,724.2Z"/><path class="cls-9" d="M528.78,727.51h-1.25v-8a6.44,6.44,0,0,1-1.19.87A8.83,8.83,0,0,1,525,721v-1.22a7.77,7.77,0,0,0,1.84-1.19,4.72,4.72,0,0,0,1.12-1.37h.8Z"/><path class="cls-9" d="M532.41,720.92l-.35-1.95V717.3h1.42V719l-.31,1.95Zm2.3,0-.34-1.95V717.3h1.43V719l-.34,1.95Z"/><path class="cls-9" d="M538.18,730.51h-.9a12.53,12.53,0,0,0,2.08-6.69,11.6,11.6,0,0,0-1-4.6c-.18-.42-.56-1.12-1.12-2.09h.9a13.3,13.3,0,0,1,1.93,3.51,9.38,9.38,0,0,1,.54,3.17,9.49,9.49,0,0,1-.72,3.64A12.89,12.89,0,0,1,538.18,730.51Z"/><line class="cls-10" x1="102.11" y1="732.36" x2="897.08" y2="732.36"/><polygon class="cls-9" points="104.38 735.76 91.54 732.22 104.38 728.67 104.38 735.76"/><polygon class="cls-9" points="895.2 735.76 908.04 732.22 895.2 728.67 895.2 735.76"/><line class="cls-3" x1="936.12" y1="617.04" x2="936.15" y2="666.8"/><line class="cls-3" x1="936.51" y1="570.89" x2="936.51" y2="610.69"/><line class="cls-3" x1="936.51" y1="708.07" x2="936.51" y2="674.74"/><path class="cls-8" d="M837.59,402.6l4.08-5.5-3.62-5.1h1.67l1.95,2.73q.6.84.84,1.26c.25-.38.53-.78.86-1.19l2.08-2.8H847l-3.67,5,4,5.56h-1.73l-2.66-3.76-.45-.64c-.22.33-.38.56-.49.7l-2.68,3.7Z"/><rect class="cls-4" x="9" y="58.39" width="990" height="683.2"/><path class="cls-9" d="M987.21,414.53v1.26h-8a6.34,6.34,0,0,1,.87,1.18,7.82,7.82,0,0,1,.64,1.32h-1.21a8,8,0,0,0-1.19-1.84,4.84,4.84,0,0,0-1.37-1.11v-.81Z"/><path class="cls-9" d="M984.54,411.32l-.11-1.32a2.32,2.32,0,0,0,1.44-.67,1.88,1.88,0,0,0,.48-1.29,2,2,0,0,0-.68-1.53,2.56,2.56,0,0,0-1.81-.63,2.33,2.33,0,0,0-1.69.6,2.13,2.13,0,0,0-.62,1.58,2.24,2.24,0,0,0,.27,1.1,2.19,2.19,0,0,0,.72.76l-.16,1.18-5.24-1V405h1.2v4.08l2.74.55a3.4,3.4,0,0,1-.64-1.93,3.06,3.06,0,0,1,.93-2.26,3.25,3.25,0,0,1,2.38-.92,3.74,3.74,0,0,1,2.4.81,3.24,3.24,0,0,1,1.23,2.68,3.32,3.32,0,0,1-.77,2.27A3,3,0,0,1,984.54,411.32Z"/><path class="cls-9" d="M982.18,403.39a9.35,9.35,0,0,1-2.92-.37,3.66,3.66,0,0,1-1.7-1.11,2.84,2.84,0,0,1-.6-1.85,3,3,0,0,1,.33-1.44,2.68,2.68,0,0,1,1-1,5.24,5.24,0,0,1,1.51-.64,10.29,10.29,0,0,1,2.42-.23,9.3,9.3,0,0,1,2.9.37,3.66,3.66,0,0,1,1.7,1.11,3.11,3.11,0,0,1-.45,4.17A6.76,6.76,0,0,1,982.18,403.39Zm0-1.29a6.3,6.3,0,0,0,3.34-.59,1.68,1.68,0,0,0,0-2.9,9.78,9.78,0,0,0-6.69,0,1.72,1.72,0,0,0-.83,1.46,1.59,1.59,0,0,0,.73,1.38A6.39,6.39,0,0,0,982.18,402.1Z"/><path class="cls-9" d="M990.21,388.75a12.57,12.57,0,0,1-3.06,1.76,9.71,9.71,0,0,1-6.81.18,13.34,13.34,0,0,1-3.51-1.94v-.9A22.88,22.88,0,0,0,978.9,389a12.36,12.36,0,0,0,2,.67,11.64,11.64,0,0,0,2.62.3,12.57,12.57,0,0,0,6.69-2.09Z"/><path class="cls-9" d="M984.54,386.75l-.11-1.32a2.33,2.33,0,0,0,1.44-.68,1.83,1.83,0,0,0,.48-1.28,2,2,0,0,0-.68-1.54,2.6,2.6,0,0,0-1.81-.62,2.33,2.33,0,0,0-1.69.6,2.12,2.12,0,0,0-.62,1.58,2.2,2.2,0,0,0,.27,1.09,2.23,2.23,0,0,0,.72.77l-.16,1.17-5.24-1v-5.07h1.2v4.07l2.74.55a3.35,3.35,0,0,1-.64-1.93,3,3,0,0,1,.93-2.25,3.21,3.21,0,0,1,2.38-.92,3.74,3.74,0,0,1,2.4.81,3.23,3.23,0,0,1,1.23,2.68,3.36,3.36,0,0,1-.77,2.27A3.09,3.09,0,0,1,984.54,386.75Z"/><path class="cls-9" d="M987.21,378.11h-1.43v-1.43h1.43Z"/><path class="cls-9" d="M984.85,374.66l-.11-1.2a2,2,0,0,0,1.23-.59,1.55,1.55,0,0,0,.38-1.1,1.89,1.89,0,0,0-.26-1,2.19,2.19,0,0,0-.71-.71,4.09,4.09,0,0,0-1.19-.47,6.54,6.54,0,0,0-1.53-.19h-.25a2.83,2.83,0,0,1,1,1,2.75,2.75,0,0,1,.37,1.41,2.85,2.85,0,0,1-.92,2.14,3.34,3.34,0,0,1-2.42.88,3.43,3.43,0,0,1-2.5-.91,3.08,3.08,0,0,1-.95-2.3,3.29,3.29,0,0,1,2.07-3.07,7.39,7.39,0,0,1,2.87-.43,9.36,9.36,0,0,1,3.11.42,3.66,3.66,0,0,1,1.77,1.27,3.28,3.28,0,0,1,.6,2,2.87,2.87,0,0,1-.66,2A2.83,2.83,0,0,1,984.85,374.66Zm-4.51-5.13a2.41,2.41,0,0,0-1.71.58,1.79,1.79,0,0,0-.63,1.38,1.92,1.92,0,0,0,.68,1.45,2.5,2.5,0,0,0,1.77.62A2.13,2.13,0,0,0,982,373a1.91,1.91,0,0,0,.61-1.45,1.85,1.85,0,0,0-.61-1.43A2.41,2.41,0,0,0,980.34,369.53Z"/><path class="cls-9" d="M982.18,366.92a9.35,9.35,0,0,1-2.92-.37,3.66,3.66,0,0,1-1.7-1.11,2.84,2.84,0,0,1-.6-1.85,3,3,0,0,1,.33-1.44,2.75,2.75,0,0,1,1-1,5.24,5.24,0,0,1,1.51-.64,10.29,10.29,0,0,1,2.42-.23,9.6,9.6,0,0,1,2.9.37,3.66,3.66,0,0,1,1.7,1.11,3.11,3.11,0,0,1-.45,4.17A6.76,6.76,0,0,1,982.18,366.92Zm0-1.29a6.3,6.3,0,0,0,3.34-.59,1.68,1.68,0,0,0,0-2.9,9.78,9.78,0,0,0-6.69,0,1.72,1.72,0,0,0-.83,1.46,1.59,1.59,0,0,0,.73,1.38A6.39,6.39,0,0,0,982.18,365.63Z"/><path class="cls-9" d="M979.5,352.48l.1,1.25a2.38,2.38,0,0,0-1.07.47,1.76,1.76,0,0,0-.2,2.31,2.82,2.82,0,0,0,1.26.93,6.48,6.48,0,0,0,2.36.36,2.94,2.94,0,0,1-1-1.11,3,3,0,0,1-.33-1.37,2.87,2.87,0,0,1,.92-2.14,3.35,3.35,0,0,1,2.39-.88,3.86,3.86,0,0,1,1.78.42,3,3,0,0,1,1.27,1.14,3.11,3.11,0,0,1,.43,1.64,3.22,3.22,0,0,1-1.15,2.56,5.87,5.87,0,0,1-3.8,1,6.81,6.81,0,0,1-4.3-1.09,3.15,3.15,0,0,1-1.17-2.57,2.76,2.76,0,0,1,2.54-2.9Zm4.4,5.12a3,3,0,0,0,1.24-.27,2,2,0,0,0,.9-.77,1.91,1.91,0,0,0,.31-1,1.75,1.75,0,0,0-.64-1.36,2.46,2.46,0,0,0-1.74-.58,2.37,2.37,0,0,0-1.67.57,1.86,1.86,0,0,0-.6,1.42,1.93,1.93,0,0,0,.6,1.44A2.18,2.18,0,0,0,983.9,357.6Z"/><path class="cls-9" d="M980.62,348.34l-2,.34H977v-1.43h1.67l2,.34Zm0,2.31-2,.34H977v-1.42h1.67l2,.31Z"/><path class="cls-9" d="M990.21,344.82v.9a12.55,12.55,0,0,0-6.69-2.08,11.6,11.6,0,0,0-4.6,1c-.42.18-1.12.56-2.09,1.12v-.9a13.3,13.3,0,0,1,3.51-1.93,9.38,9.38,0,0,1,3.17-.54,9.49,9.49,0,0,1,3.64.72A12.89,12.89,0,0,1,990.21,344.82Z"/><line class="cls-10" x1="993.34" y1="123.96" x2="993.34" y2="655.89"/><polygon class="cls-9" points="989.94 124.63 993.49 111.79 997.04 124.63 989.94 124.63"/><polygon class="cls-9" points="989.94 653.49 993.49 666.34 997.04 653.49 989.94 653.49"/><path class="cls-9" d="M848.75,230.17l.1,1.24a2.27,2.27,0,0,0-1.07.48,1.63,1.63,0,0,0-.54,1.25,1.74,1.74,0,0,0,.34,1.05,2.78,2.78,0,0,0,1.26.93,6.52,6.52,0,0,0,2.36.36,2.93,2.93,0,0,1-.44-4.61,3.32,3.32,0,0,1,2.39-.89,3.93,3.93,0,0,1,1.79.42,3,3,0,0,1,1.26,1.14,3.12,3.12,0,0,1,.44,1.64,3.24,3.24,0,0,1-1.15,2.56,5.83,5.83,0,0,1-3.8,1,6.81,6.81,0,0,1-4.31-1.1,3.13,3.13,0,0,1-1.17-2.57,2.74,2.74,0,0,1,2.54-2.89Zm4.41,5.11a3,3,0,0,0,1.24-.27,2.07,2.07,0,0,0,.9-.77,2,2,0,0,0,.31-1,1.78,1.78,0,0,0-.64-1.36,2.53,2.53,0,0,0-1.74-.57,2.33,2.33,0,0,0-1.67.56,1.85,1.85,0,0,0-.61,1.42,1.9,1.9,0,0,0,.61,1.44A2.17,2.17,0,0,0,853.16,235.28Z"/><path class="cls-9" d="M856.46,224.72H854v4.43h-1.15l-6.62-4.66v-1h6.62v-1.38H854v1.38h2.44Zm-3.59,0h-4.6l4.6,3.2Z"/><path class="cls-9" d="M856.46,220.1H855v-1.42h1.42Z"/><path class="cls-9" d="M853.79,216.84l-.11-1.31a2.38,2.38,0,0,0,1.44-.68,1.84,1.84,0,0,0,.49-1.29,2,2,0,0,0-.69-1.53,2.54,2.54,0,0,0-1.81-.63,2.33,2.33,0,0,0-1.69.61,2.09,2.09,0,0,0-.62,1.57,2.14,2.14,0,0,0,.28,1.1,2.08,2.08,0,0,0,.71.76l-.15,1.18-5.25-1v-5.07h1.2v4.07l2.75.55a3.3,3.3,0,0,1-.64-1.93,3.06,3.06,0,0,1,.92-2.26,3.25,3.25,0,0,1,2.38-.92,3.71,3.71,0,0,1,2.4.81,3.26,3.26,0,0,1,1.24,2.68,3.32,3.32,0,0,1-.78,2.28A3.06,3.06,0,0,1,853.79,216.84Z"/><path class="cls-9" d="M806.08,213.8l-.11-1.31a2.44,2.44,0,0,0,1.45-.68,1.88,1.88,0,0,0,.48-1.29,2,2,0,0,0-.68-1.53,2.57,2.57,0,0,0-1.81-.63,2.32,2.32,0,0,0-1.69.61,2.06,2.06,0,0,0-.62,1.57,2.24,2.24,0,0,0,.27,1.1,2.08,2.08,0,0,0,.71.76l-.15,1.18-5.24-1v-5.07h1.2v4.07l2.74.55a3.3,3.3,0,0,1-.64-1.93,3.07,3.07,0,0,1,.93-2.26,3.23,3.23,0,0,1,2.38-.92,3.7,3.7,0,0,1,2.39.81,3.23,3.23,0,0,1,1.24,2.68,3.32,3.32,0,0,1-.78,2.28A3.06,3.06,0,0,1,806.08,213.8Z"/><path class="cls-9" d="M803.72,205.87a9.28,9.28,0,0,1-2.91-.37,3.56,3.56,0,0,1-1.7-1.11,2.82,2.82,0,0,1-.6-1.85,3.06,3.06,0,0,1,.33-1.44,2.81,2.81,0,0,1,.95-1,5.31,5.31,0,0,1,1.52-.64,10.26,10.26,0,0,1,2.41-.23,9.51,9.51,0,0,1,2.9.37,3.65,3.65,0,0,1,1.71,1.11,2.84,2.84,0,0,1,.6,1.85,2.78,2.78,0,0,1-1.06,2.32A6.68,6.68,0,0,1,803.72,205.87Zm0-1.29a6.47,6.47,0,0,0,3.35-.58,1.69,1.69,0,0,0,0-2.91,9.81,9.81,0,0,0-6.7,0,1.75,1.75,0,0,0-.83,1.47,1.63,1.63,0,0,0,.74,1.38A6.49,6.49,0,0,0,803.72,204.58Z"/><path class="cls-9" d="M958.6,625.41l-.16-1.26a2.68,2.68,0,0,0,1.53-.73,1.79,1.79,0,0,0,.47-1.26,2,2,0,0,0-.61-1.5,2.09,2.09,0,0,0-1.52-.61,1.93,1.93,0,0,0-2,2,3.35,3.35,0,0,0,.14.89l-1.1-.14a1.7,1.7,0,0,0,0-.21,2.58,2.58,0,0,0-.42-1.44,1.45,1.45,0,0,0-1.29-.64,1.52,1.52,0,0,0-1.14.47,1.65,1.65,0,0,0-.45,1.2,1.68,1.68,0,0,0,.46,1.22,2.29,2.29,0,0,0,1.38.63l-.22,1.25a3.23,3.23,0,0,1-2-1,3,3,0,0,1-.69-2,3.33,3.33,0,0,1,.36-1.54,2.61,2.61,0,0,1,2.29-1.45,2.17,2.17,0,0,1,1.21.36,2.45,2.45,0,0,1,.86,1,2.41,2.41,0,0,1,.87-1.41,2.64,2.64,0,0,1,1.64-.5,3,3,0,0,1,2.27,1,3.42,3.42,0,0,1,.93,2.46,3.21,3.21,0,0,1-.8,2.23A3.1,3.1,0,0,1,958.6,625.41Z"/><path class="cls-9" d="M961.3,612.76V614h-8a6.34,6.34,0,0,1,.87,1.18,8.67,8.67,0,0,1,.64,1.32h-1.21a7.69,7.69,0,0,0-1.2-1.84,4.68,4.68,0,0,0-1.36-1.11v-.81Z"/><path class="cls-9" d="M961.3,608.85h-1.43v-1.43h1.43Z"/><path class="cls-9" d="M958.63,605.59l-.12-1.32a2.33,2.33,0,0,0,1.45-.68,1.83,1.83,0,0,0,.48-1.28,2,2,0,0,0-.68-1.53,2.56,2.56,0,0,0-1.81-.63,2.33,2.33,0,0,0-1.69.6,2.08,2.08,0,0,0-.62,1.58,2.2,2.2,0,0,0,.27,1.09,2.14,2.14,0,0,0,.72.77l-.16,1.18-5.24-1V599.3h1.2v4.07l2.74.55a3.28,3.28,0,0,1-.64-1.92,3,3,0,0,1,.93-2.26,3.23,3.23,0,0,1,2.38-.92,3.7,3.7,0,0,1,2.39.81,3.22,3.22,0,0,1,1.24,2.68,3.28,3.28,0,0,1-.78,2.27A3.06,3.06,0,0,1,958.63,605.59Z"/><line class="cls-10" x1="965.92" y1="563.25" x2="965.92" y2="655.89"/><polygon class="cls-9" points="962.51 564.93 966.06 552.08 969.61 564.93 962.51 564.93"/><polygon class="cls-9" points="962.51 653.49 966.06 666.34 969.61 653.49 962.51 653.49"/><line class="cls-10" x1="862.02" y1="123.38" x2="862.02" y2="338.38"/><polygon class="cls-9" points="858.62 125.06 862.17 112.22 865.72 125.06 858.62 125.06"/><polygon class="cls-9" points="858.62 338.38 862.17 351.22 865.72 338.38 858.62 338.38"/><polygon class="cls-9" points="932.57 604.27 936.12 617.12 939.67 604.27 932.57 604.27"/><polygon class="cls-9" points="939.67 679.65 936.12 666.8 932.57 679.65 939.67 679.65"/><line class="cls-10" x1="814.39" y1="123.38" x2="814.39" y2="287.94"/><polygon class="cls-9" points="811 125.06 814.54 112.22 818.09 125.06 811 125.06"/><polygon class="cls-9" points="811 283.99 814.54 296.83 818.09 283.99 811 283.99"/><path class="cls-9" d="M468.52,68.77h-1.25v-8a6.8,6.8,0,0,1-1.19.87,8.67,8.67,0,0,1-1.32.64V61.08a7.69,7.69,0,0,0,1.84-1.2,4.68,4.68,0,0,0,1.11-1.36h.81Z"/><path class="cls-9" d="M471.73,66.1l1.32-.12a2.35,2.35,0,0,0,.67,1.45,1.88,1.88,0,0,0,1.29.48,2,2,0,0,0,1.53-.68,2.56,2.56,0,0,0,.63-1.81,2.33,2.33,0,0,0-.6-1.69,2.09,2.09,0,0,0-1.58-.62,2.18,2.18,0,0,0-1.09.27,2.14,2.14,0,0,0-.77.72L472,63.94l1-5.24H478v1.2h-4.08l-.55,2.74a3.33,3.33,0,0,1,1.93-.64,3.06,3.06,0,0,1,2.26.93,3.23,3.23,0,0,1,.92,2.38,3.7,3.7,0,0,1-.81,2.39A3.22,3.22,0,0,1,475,68.94a3.28,3.28,0,0,1-2.27-.78A3,3,0,0,1,471.73,66.1Z"/><path class="cls-9" d="M479.66,63.74a9.65,9.65,0,0,1,.37-2.92,3.61,3.61,0,0,1,1.11-1.7,2.84,2.84,0,0,1,1.85-.6,3,3,0,0,1,1.44.33,2.83,2.83,0,0,1,1,.95,5.43,5.43,0,0,1,.63,1.52,10.29,10.29,0,0,1,.23,2.42,9.3,9.3,0,0,1-.37,2.9,3.65,3.65,0,0,1-1.1,1.7,2.85,2.85,0,0,1-1.86.6,2.82,2.82,0,0,1-2.32-1A6.76,6.76,0,0,1,479.66,63.74Zm1.29,0a6.4,6.4,0,0,0,.59,3.34,1.71,1.71,0,0,0,1.45.83,1.73,1.73,0,0,0,1.45-.83,6.42,6.42,0,0,0,.59-3.34,6.39,6.39,0,0,0-.59-3.35,1.72,1.72,0,0,0-1.46-.83,1.59,1.59,0,0,0-1.38.73A6.48,6.48,0,0,0,481,63.74Z"/><path class="cls-9" d="M494.3,71.77a12.57,12.57,0,0,1-1.76-3.06,9.71,9.71,0,0,1-.18-6.81,13.34,13.34,0,0,1,1.94-3.51h.9a22.88,22.88,0,0,0-1.12,2.07,11.16,11.16,0,0,0-.66,2,11.64,11.64,0,0,0-.3,2.62,12.55,12.55,0,0,0,2.08,6.69Z"/><path class="cls-9" d="M496.3,66.1l1.32-.12a2.36,2.36,0,0,0,.68,1.45,1.85,1.85,0,0,0,1.28.48,2,2,0,0,0,1.54-.68,2.6,2.6,0,0,0,.62-1.81,2.33,2.33,0,0,0-.6-1.69,2.08,2.08,0,0,0-1.58-.62,2.16,2.16,0,0,0-1.86,1l-1.17-.16,1-5.24h5.07v1.2h-4.07L498,62.64A3.28,3.28,0,0,1,499.9,62a3,3,0,0,1,2.25.93,3.19,3.19,0,0,1,.92,2.38,3.75,3.75,0,0,1-.8,2.39,3.24,3.24,0,0,1-2.69,1.24,3.31,3.31,0,0,1-2.27-.78A3,3,0,0,1,496.3,66.1Z"/><path class="cls-9" d="M504.94,68.77V67.34h1.43v1.43Z"/><path class="cls-9" d="M508.39,66.41l1.2-.11a2.07,2.07,0,0,0,.59,1.23,1.55,1.55,0,0,0,1.1.38,1.89,1.89,0,0,0,1-.26,2.1,2.1,0,0,0,.71-.71,4.09,4.09,0,0,0,.47-1.19,6.54,6.54,0,0,0,.19-1.53c0-.06,0-.14,0-.26a2.86,2.86,0,0,1-1,1,2.75,2.75,0,0,1-1.41.37,2.85,2.85,0,0,1-2.14-.92A3.34,3.34,0,0,1,508.2,62a3.4,3.4,0,0,1,.92-2.5,3,3,0,0,1,2.29-.95,3.3,3.3,0,0,1,3.07,2.06,7.48,7.48,0,0,1,.43,2.88,9.36,9.36,0,0,1-.42,3.11,3.71,3.71,0,0,1-1.27,1.77,3.28,3.28,0,0,1-2,.6,2.89,2.89,0,0,1-2-.66A2.83,2.83,0,0,1,508.39,66.41Zm5.13-4.51a2.45,2.45,0,0,0-.57-1.71,1.83,1.83,0,0,0-1.39-.63,1.88,1.88,0,0,0-1.45.68,2.48,2.48,0,0,0-.62,1.77,2.13,2.13,0,0,0,.59,1.58,1.91,1.91,0,0,0,1.45.61,1.85,1.85,0,0,0,1.43-.61A2.41,2.41,0,0,0,513.52,61.9Z"/><path class="cls-9" d="M516.13,63.74a9.35,9.35,0,0,1,.37-2.92,3.61,3.61,0,0,1,1.11-1.7,2.84,2.84,0,0,1,1.85-.6,3,3,0,0,1,1.44.33,2.73,2.73,0,0,1,1,.95,5.16,5.16,0,0,1,.64,1.52,10.29,10.29,0,0,1,.23,2.42,9.3,9.3,0,0,1-.37,2.9,3.65,3.65,0,0,1-1.1,1.7,2.85,2.85,0,0,1-1.86.6,2.82,2.82,0,0,1-2.32-1A6.76,6.76,0,0,1,516.13,63.74Zm1.29,0a6.4,6.4,0,0,0,.59,3.34,1.71,1.71,0,0,0,1.45.83,1.73,1.73,0,0,0,1.45-.83,6.42,6.42,0,0,0,.59-3.34,6.39,6.39,0,0,0-.59-3.35,1.72,1.72,0,0,0-1.46-.83,1.59,1.59,0,0,0-1.38.73A6.39,6.39,0,0,0,517.42,63.74Z"/><path class="cls-9" d="M530.57,61.06l-1.25.1a2.38,2.38,0,0,0-.47-1.07,1.66,1.66,0,0,0-1.26-.54,1.73,1.73,0,0,0-1.05.33,2.93,2.93,0,0,0-.93,1.26,6.58,6.58,0,0,0-.36,2.37,2.87,2.87,0,0,1,1.11-1,3,3,0,0,1,1.37-.33,2.87,2.87,0,0,1,2.14.92,3.35,3.35,0,0,1,.88,2.39,3.86,3.86,0,0,1-.42,1.78,3,3,0,0,1-1.13,1.27,3.39,3.39,0,0,1-4.2-.72,5.81,5.81,0,0,1-1-3.8,6.81,6.81,0,0,1,1.09-4.3,3.15,3.15,0,0,1,2.57-1.17,2.87,2.87,0,0,1,2,.67A2.92,2.92,0,0,1,530.57,61.06Zm-5.12,4.4a3,3,0,0,0,.27,1.24,2,2,0,0,0,.77.9,1.91,1.91,0,0,0,1,.31,1.78,1.78,0,0,0,1.37-.64,2.5,2.5,0,0,0,.57-1.74,2.37,2.37,0,0,0-.57-1.67,1.87,1.87,0,0,0-1.42-.61,2,2,0,0,0-1.44.61A2.22,2.22,0,0,0,525.45,65.46Z"/><path class="cls-9" d="M532.41,62.18l-.35-2V58.56h1.42v1.67l-.31,2Zm2.3,0-.34-2V58.56h1.43v1.67l-.34,2Z"/><path class="cls-9" d="M538.18,71.77h-.9a12.55,12.55,0,0,0,2.08-6.69,11.6,11.6,0,0,0-1-4.6c-.18-.42-.56-1.12-1.12-2.09h.9a13.3,13.3,0,0,1,1.93,3.51,9.38,9.38,0,0,1,.54,3.17,9.49,9.49,0,0,1-.72,3.64A12.89,12.89,0,0,1,538.18,71.77Z"/><rect class="cls-4" x="9" y="58.39" width="990" height="683.2"/><line class="cls-10" x1="230.46" y1="73.62" x2="767.89" y2="73.62"/><polygon class="cls-9" points="232.74 77.02 219.9 73.47 232.74 69.92 232.74 77.02"/><polygon class="cls-9" points="766.5 77.02 779.35 73.47 766.5 69.92 766.5 77.02"/><path class="cls-8" d="M15.1,402.6l4.07-5.5L15.56,392h1.67l1.95,2.73q.6.84.84,1.26c.24-.38.53-.78.85-1.19L23,392h1.54l-3.66,5,4,5.56H23.07l-2.67-3.76L20,398.2l-.48.7-2.69,3.7Z"/><rect class="cls-4" x="9" y="58.39" width="990" height="683.2"/><line class="cls-10" x1="46.59" y1="409.4" x2="46.59" y2="655.89"/><polygon class="cls-9" points="43.2 410.44 46.74 397.59 50.29 410.44 43.2 410.44"/><polygon class="cls-9" points="43.2 653.49 46.74 666.34 50.29 653.49 43.2 653.49"/><path class="cls-9" d="M472.36,431.47a2.38,2.38,0,0,1-1.16-.81,2.14,2.14,0,0,1-.37-1.27,2.46,2.46,0,0,1,.8-1.87,2.94,2.94,0,0,1,2.13-.76,3,3,0,0,1,2.15.78,2.5,2.5,0,0,1,.81,1.89,2.06,2.06,0,0,1-.37,1.23,2.38,2.38,0,0,1-1.13.81,2.8,2.8,0,0,1,1.43,1,2.71,2.71,0,0,1,.49,1.63,2.91,2.91,0,0,1-.93,2.2,3.31,3.31,0,0,1-2.43.89,3.35,3.35,0,0,1-2.44-.89,3,3,0,0,1-.93-2.23,2.68,2.68,0,0,1,.51-1.67A2.52,2.52,0,0,1,472.36,431.47Zm-.66,2.6a2.25,2.25,0,0,0,.26,1,1.77,1.77,0,0,0,.75.78,2.28,2.28,0,0,0,1.08.27,2,2,0,0,0,1.48-.57,2,2,0,0,0,.59-1.47,2,2,0,0,0-.6-1.5,2,2,0,0,0-1.51-.59,2,2,0,0,0-1.47.58A2,2,0,0,0,471.7,434.07Zm.41-4.72a1.57,1.57,0,0,0,.46,1.18,1.81,1.81,0,0,0,2.4,0,1.52,1.52,0,0,0,.46-1.12,1.55,1.55,0,0,0-.47-1.16,1.65,1.65,0,0,0-1.19-.47,1.63,1.63,0,0,0-1.19.46A1.46,1.46,0,0,0,472.11,429.35Z"/><path class="cls-9" d="M478.36,432a9.35,9.35,0,0,1,.37-2.92,3.66,3.66,0,0,1,1.11-1.7,2.84,2.84,0,0,1,1.85-.6,3,3,0,0,1,1.44.33,2.81,2.81,0,0,1,1,1,5.43,5.43,0,0,1,.64,1.52A10.29,10.29,0,0,1,485,432a9.6,9.6,0,0,1-.37,2.9,3.66,3.66,0,0,1-1.11,1.7,3.11,3.11,0,0,1-4.17-.45A6.76,6.76,0,0,1,478.36,432Zm1.29,0a6.3,6.3,0,0,0,.59,3.34,1.68,1.68,0,0,0,2.9,0,9.78,9.78,0,0,0,0-6.69,1.73,1.73,0,0,0-1.47-.83,1.59,1.59,0,0,0-1.37.73A6.39,6.39,0,0,0,479.65,432Z"/><path class="cls-9" d="M493,440a12.57,12.57,0,0,1-1.76-3.06,9.48,9.48,0,0,1-.71-3.64,9.38,9.38,0,0,1,.53-3.17,13.06,13.06,0,0,1,1.94-3.51h.9a20.53,20.53,0,0,0-1.12,2.07,12,12,0,0,0-.67,2,11.64,11.64,0,0,0-.3,2.62A12.57,12.57,0,0,0,493.9,440Z"/><path class="cls-9" d="M495,434.32l1.25-.17a2.75,2.75,0,0,0,.74,1.53,1.78,1.78,0,0,0,1.26.47,2,2,0,0,0,1.5-.61,2.09,2.09,0,0,0,.61-1.52,1.91,1.91,0,0,0-.57-1.42,2,2,0,0,0-1.43-.56,3.29,3.29,0,0,0-.89.14l.14-1.1h.2a2.54,2.54,0,0,0,1.44-.42,1.41,1.41,0,0,0,.65-1.28,1.55,1.55,0,0,0-.47-1.15,1.84,1.84,0,0,0-2.42,0,2.29,2.29,0,0,0-.63,1.38l-1.25-.22a3.26,3.26,0,0,1,1-2,3,3,0,0,1,2-.69,3.36,3.36,0,0,1,1.54.36,2.61,2.61,0,0,1,1.07,1,2.48,2.48,0,0,1,.37,1.31,2.14,2.14,0,0,1-.35,1.21,2.45,2.45,0,0,1-1,.86,2.35,2.35,0,0,1,1.4.87,2.62,2.62,0,0,1,.51,1.65,3,3,0,0,1-1,2.26,3.43,3.43,0,0,1-2.47.93,3.24,3.24,0,0,1-2.23-.8A3.06,3.06,0,0,1,495,434.32Z"/><path class="cls-9" d="M503.64,437v-1.43h1.43V437Z"/><path class="cls-9" d="M511.62,437h-1.25v-8a6.8,6.8,0,0,1-1.19.87,8.67,8.67,0,0,1-1.32.64v-1.21a7.69,7.69,0,0,0,1.84-1.2,4.68,4.68,0,0,0,1.11-1.36h.81Z"/><path class="cls-9" d="M514.83,434.34l1.32-.11a2.32,2.32,0,0,0,.67,1.44,1.88,1.88,0,0,0,1.29.48,2,2,0,0,0,1.53-.68,2.56,2.56,0,0,0,.63-1.81,2.33,2.33,0,0,0-.6-1.69,2.13,2.13,0,0,0-1.58-.62,2.18,2.18,0,0,0-1.09.27,2.23,2.23,0,0,0-.77.72l-1.18-.16,1-5.24h5.08v1.2H517l-.55,2.74a3.4,3.4,0,0,1,1.93-.64,3.06,3.06,0,0,1,2.26.93,3.25,3.25,0,0,1,.92,2.38,3.74,3.74,0,0,1-.81,2.4,3.24,3.24,0,0,1-2.68,1.23,3.32,3.32,0,0,1-2.27-.77A3,3,0,0,1,514.83,434.34Z"/><path class="cls-9" d="M523.17,430.42l-.35-1.95V426.8h1.43v1.67l-.31,1.95Zm2.31,0-.34-1.95V426.8h1.42v1.67l-.33,1.95Z"/><path class="cls-9" d="M528.94,440h-.89a12.64,12.64,0,0,0,2.08-6.69,11.6,11.6,0,0,0-1-4.6c-.18-.42-.56-1.12-1.12-2.09h.89a13.06,13.06,0,0,1,1.94,3.51,9.38,9.38,0,0,1,.54,3.17,9.49,9.49,0,0,1-.72,3.64A12.57,12.57,0,0,1,528.94,440Z"/><path class="cls-9" d="M698.92,501.84l-6.45-7.92,3.51-2.85a6.11,6.11,0,0,1,1.79-1.1,2.25,2.25,0,0,1,1.49,0,2.91,2.91,0,0,1,1.3.92,2.54,2.54,0,0,1,.61,1.86,3.55,3.55,0,0,1-1.08,2.11,3.66,3.66,0,0,1,.95-.12,7,7,0,0,1,1.73.35l3.13,1-1.32,1.07-2.39-.79c-.69-.23-1.24-.39-1.64-.48a3,3,0,0,0-1-.09,1.69,1.69,0,0,0-.64.18,3.35,3.35,0,0,0-.62.43l-1.21,1L700,501Zm-2.55-5.27,2.25-1.84a4.3,4.3,0,0,0,1-1.06,1.53,1.53,0,0,0,.23-1,1.69,1.69,0,0,0-.37-.88,1.52,1.52,0,0,0-1.16-.59,2.47,2.47,0,0,0-1.58.69l-2.51,2Z"/><path class="cls-9" d="M704.79,493.57l.87-.92a2.8,2.8,0,0,0,1.54.73,1.84,1.84,0,0,0,1.27-.44,2,2,0,0,0,.77-1.42,2.06,2.06,0,0,0-.48-1.56,1.92,1.92,0,0,0-1.34-.75,2,2,0,0,0-1.46.47,3.15,3.15,0,0,0-.6.67l-.59-.94.17-.12a2.62,2.62,0,0,0,.85-1.23,1.45,1.45,0,0,0-.32-1.41,1.55,1.55,0,0,0-1.08-.59,1.65,1.65,0,0,0-1.22.41,1.73,1.73,0,0,0-.66,1.13,2.32,2.32,0,0,0,.39,1.46l-1.11.62a3.23,3.23,0,0,1-.43-2.17,3,3,0,0,1,1.14-1.82,3.3,3.3,0,0,1,1.42-.69,2.54,2.54,0,0,1,1.45.08,2.48,2.48,0,0,1,1.12.78A2.1,2.1,0,0,1,707,487a2.33,2.33,0,0,1-.27,1.33,2.39,2.39,0,0,1,1.64-.21,2.62,2.62,0,0,1,1.43,1,3,3,0,0,1,.68,2.37,3.48,3.48,0,0,1-1.33,2.28,3.22,3.22,0,0,1-2.23.79A3.12,3.12,0,0,1,704.79,493.57Z"/><path class="cls-9" d="M709.45,486.74a9.24,9.24,0,0,1-1.55-2.49,3.55,3.55,0,0,1-.22-2,2.88,2.88,0,0,1,1.05-1.64,3.11,3.11,0,0,1,1.33-.65,2.79,2.79,0,0,1,1.4.09,5.59,5.59,0,0,1,1.45.78,10.34,10.34,0,0,1,1.7,1.73,9.09,9.09,0,0,1,1.54,2.48,3.64,3.64,0,0,1,.23,2,3.1,3.1,0,0,1-3.53,2.28A6.67,6.67,0,0,1,709.45,486.74Zm1-.81a6.34,6.34,0,0,0,2.57,2.22,1.75,1.75,0,0,0,1.65-.27,1.79,1.79,0,0,0,.6-1.57,6.42,6.42,0,0,0-1.66-3,6.54,6.54,0,0,0-2.57-2.23,1.77,1.77,0,0,0-1.66.29,1.6,1.6,0,0,0-.61,1.44A6.52,6.52,0,0,0,710.45,485.93Z"/><line class="cls-10" x1="680.35" y1="527.93" x2="724.42" y2="489.8"/><polygon class="cls-9" points="683.84 529.41 671.81 535.13 679.2 524.04 683.84 529.41"/><path class="cls-9" d="M704.22,379.39l3.51-9.59,4.25,1.56a6,6,0,0,1,1.86,1,2.31,2.31,0,0,1,.73,1.31,2.89,2.89,0,0,1-.13,1.59,2.54,2.54,0,0,1-1.29,1.47,3.54,3.54,0,0,1-2.37.15,3.49,3.49,0,0,1,.6.75,7.18,7.18,0,0,1,.58,1.66l.71,3.22-1.59-.58-.54-2.46c-.16-.71-.3-1.26-.43-1.66a3.23,3.23,0,0,0-.41-.87,2.17,2.17,0,0,0-.49-.47,4.22,4.22,0,0,0-.69-.3l-1.47-.54-1.56,4.25Zm3.23-4.89,2.73,1a4.46,4.46,0,0,0,1.43.32,1.47,1.47,0,0,0,.95-.31,1.59,1.59,0,0,0,.57-.76,1.51,1.51,0,0,0-.08-1.3,2.47,2.47,0,0,0-1.4-1l-3-1.11Z"/><path class="cls-9" d="M714.34,380.23l1.24.27a2.71,2.71,0,0,0,.16,1.69,1.81,1.81,0,0,0,1,.88,2.07,2.07,0,0,0,1.62-.06,2.09,2.09,0,0,0,1.09-1.22,1.89,1.89,0,0,0,0-1.53,2,2,0,0,0-1.15-1,3.61,3.61,0,0,0-.88-.17l.51-1,.18.09a2.66,2.66,0,0,0,1.5.1,1.44,1.44,0,0,0,1-1,1.5,1.5,0,0,0,0-1.23,1.65,1.65,0,0,0-1-.84,1.67,1.67,0,0,0-1.3,0,2.35,2.35,0,0,0-1.06,1.08l-1.1-.64a3.21,3.21,0,0,1,1.65-1.48,3,3,0,0,1,2.14.05,3.25,3.25,0,0,1,1.32.87,2.53,2.53,0,0,1,.57,2.65,2.21,2.21,0,0,1-.74,1,2.43,2.43,0,0,1-1.29.45,2.41,2.41,0,0,1,1,1.3,2.61,2.61,0,0,1-.1,1.71A3,3,0,0,1,719,384a3.44,3.44,0,0,1-2.64,0,3.19,3.19,0,0,1-1.82-1.52A3.11,3.11,0,0,1,714.34,380.23Z"/><path class="cls-9" d="M722.59,380.76a9,9,0,0,1,1.35-2.61,3.62,3.62,0,0,1,1.62-1.22,2.86,2.86,0,0,1,2,.07,3.11,3.11,0,0,1,1.24.81,2.75,2.75,0,0,1,.63,1.25,5.14,5.14,0,0,1,.07,1.64,10.4,10.4,0,0,1-.61,2.34,9.28,9.28,0,0,1-1.35,2.6,3.49,3.49,0,0,1-1.62,1.22,3.1,3.1,0,0,1-3.76-1.86A6.71,6.71,0,0,1,722.59,380.76Zm1.2.44a6.4,6.4,0,0,0-.59,3.34,1.68,1.68,0,0,0,2.72,1,9.78,9.78,0,0,0,2.31-6.29,1.76,1.76,0,0,0-1.1-1.28,1.59,1.59,0,0,0-1.54.21A6.51,6.51,0,0,0,723.79,381.2Z"/><line class="cls-10" x1="672.34" y1="376.72" x2="727.64" y2="395.12"/><polygon class="cls-9" points="672.86 380.48 661.8 373.06 675.1 373.74 672.86 380.48"/><line class="cls-10" x1="362.34" y1="442.25" x2="636.65" y2="442.25"/><polygon class="cls-9" points="364.61 445.65 351.77 442.1 364.61 438.55 364.61 445.65"/><polygon class="cls-9" points="634.74 445.65 647.58 442.1 634.74 438.55 634.74 445.65"/><path class="cls-9" d="M713.17,270.8l3.52-9.58,4.25,1.56a5.86,5.86,0,0,1,1.85,1,2.23,2.23,0,0,1,.73,1.3,2.8,2.8,0,0,1-.13,1.59,2.59,2.59,0,0,1-1.29,1.48,3.58,3.58,0,0,1-2.36.14,3.75,3.75,0,0,1,.59.76,7,7,0,0,1,.58,1.66l.71,3.22-1.59-.59-.54-2.45c-.16-.72-.3-1.27-.43-1.66a3.31,3.31,0,0,0-.41-.88,2.12,2.12,0,0,0-.49-.46,3.37,3.37,0,0,0-.69-.31L716,267l-1.56,4.26Zm3.24-4.89,2.72,1a4.46,4.46,0,0,0,1.43.32,1.52,1.52,0,0,0,1-.3,1.61,1.61,0,0,0,.57-.77,1.52,1.52,0,0,0-.08-1.3,2.47,2.47,0,0,0-1.4-1l-3-1.11Z"/><path class="cls-9" d="M726.79,275.79l-1.17-.43,2.74-7.5a6.13,6.13,0,0,1-1.41.4,7.61,7.61,0,0,1-1.46.16l.42-1.14a7.69,7.69,0,0,0,2.14-.49,4.75,4.75,0,0,0,1.51-.9l.76.28Z"/><path class="cls-9" d="M731.54,272.17a9.24,9.24,0,0,1,1.35-2.61,3.71,3.71,0,0,1,1.63-1.22,2.84,2.84,0,0,1,1.94.08,2.93,2.93,0,0,1,1.24.8,2.8,2.8,0,0,1,.63,1.25,5.14,5.14,0,0,1,.07,1.64,9.83,9.83,0,0,1-.61,2.35,9.36,9.36,0,0,1-1.34,2.59,3.67,3.67,0,0,1-1.63,1.23,2.81,2.81,0,0,1-2-.08,2.77,2.77,0,0,1-1.81-1.79A6.71,6.71,0,0,1,731.54,272.17Zm1.21.44a6.37,6.37,0,0,0-.6,3.35,1.76,1.76,0,0,0,1.08,1.28,1.72,1.72,0,0,0,1.65-.29,6.49,6.49,0,0,0,1.7-2.93,6.38,6.38,0,0,0,.6-3.35,1.73,1.73,0,0,0-1.09-1.28,1.61,1.61,0,0,0-1.55.21A6.39,6.39,0,0,0,732.75,272.61Z"/><line class="cls-10" x1="758.51" y1="293.09" x2="703.22" y2="274.69"/><polygon class="cls-9" points="757.99 289.33 769.06 296.75 755.75 296.07 757.99 289.33"/><path class="cls-9" d="M730.11,183.17l-9-4.78,2.12-4a6,6,0,0,1,1.21-1.71,2.28,2.28,0,0,1,1.39-.54,2.87,2.87,0,0,1,1.56.34,2.57,2.57,0,0,1,1.29,1.48,3.54,3.54,0,0,1-.18,2.36,3.75,3.75,0,0,1,.83-.48,7.07,7.07,0,0,1,1.72-.35l3.29-.27-.8,1.5-2.51.2c-.72.06-1.29.13-1.69.2a3.19,3.19,0,0,0-.93.29,2,2,0,0,0-.53.42,3.79,3.79,0,0,0-.39.64l-.74,1.38,4,2.13Zm-4.41-3.87,1.36-2.56a4.35,4.35,0,0,0,.51-1.37,1.57,1.57,0,0,0-.17-1,1.69,1.69,0,0,0-.68-.67,1.56,1.56,0,0,0-1.3-.09,2.42,2.42,0,0,0-1.19,1.25l-1.52,2.85Z"/><path class="cls-9" d="M736.91,170.37l-.59,1.11-7.06-3.74a6.37,6.37,0,0,1,.21,1.45,8.41,8.41,0,0,1-.05,1.47l-1.07-.56a7.78,7.78,0,0,0-.19-2.19,4.7,4.7,0,0,0-.69-1.62l.38-.72Z"/><path class="cls-9" d="M734,165.18a9.18,9.18,0,0,1-2.4-1.7,3.58,3.58,0,0,1-1-1.77,2.8,2.8,0,0,1,.33-1.92,3,3,0,0,1,1-1.11,2.75,2.75,0,0,1,1.32-.46,5.36,5.36,0,0,1,1.64.15,9.74,9.74,0,0,1,2.24.93,9.46,9.46,0,0,1,2.39,1.68,3.71,3.71,0,0,1,1,1.78,2.86,2.86,0,0,1-.34,1.92,2.77,2.77,0,0,1-2,1.55A6.68,6.68,0,0,1,734,165.18Zm.6-1.14a6.33,6.33,0,0,0,3.24,1.05,1.68,1.68,0,0,0,1.35-2.57,9.87,9.87,0,0,0-5.91-3.13,1.74,1.74,0,0,0-1.42.9,1.6,1.6,0,0,0,0,1.56A6.4,6.4,0,0,0,734.56,164Z"/><line class="cls-10" x1="758.41" y1="141.26" x2="732.66" y2="193.54"/><polygon class="cls-9" points="754.62 141.26 763.48 131.31 760.99 144.4 754.62 141.26"/><path class="cls-9" d="M614.94,175.39l-10.16-.91.4-4.51a5.81,5.81,0,0,1,.46-2,2.23,2.23,0,0,1,1.07-1.05,2.89,2.89,0,0,1,1.57-.28,2.54,2.54,0,0,1,1.76.86,3.59,3.59,0,0,1,.75,2.25,3.26,3.26,0,0,1,.58-.77,6.81,6.81,0,0,1,1.45-1l2.93-1.52-.16,1.69-2.23,1.16c-.65.33-1.14.62-1.49.84a3.13,3.13,0,0,0-.74.62,2.05,2.05,0,0,0-.33.59,4.74,4.74,0,0,0-.11.75l-.14,1.56,4.51.4Zm-5.56-1.85.26-2.9a4.15,4.15,0,0,0-.06-1.46,1.44,1.44,0,0,0-.54-.84,1.61,1.61,0,0,0-.89-.35,1.49,1.49,0,0,0-1.23.41,2.51,2.51,0,0,0-.61,1.62l-.29,3.21Z"/><path class="cls-9" d="M610.47,163.24a2.36,2.36,0,0,1-.91,1.08,2.1,2.1,0,0,1-1.3.26,2.42,2.42,0,0,1-1.79-1,3.35,3.35,0,0,1,.4-4.26,2.5,2.5,0,0,1,2-.65,2.08,2.08,0,0,1,1.2.48,2.38,2.38,0,0,1,.71,1.2,2.74,2.74,0,0,1,1.11-1.33,2.67,2.67,0,0,1,1.67-.35,2.94,2.94,0,0,1,2.11,1.12,3.4,3.4,0,0,1,.67,2.51,3.34,3.34,0,0,1-1.11,2.34,3,3,0,0,1-2.31.73,2.7,2.7,0,0,1-1.61-.65A2.55,2.55,0,0,1,610.47,163.24Zm-2.14.06a1.53,1.53,0,0,0,1.22-.36,1.78,1.78,0,0,0,.22-2.38,1.49,1.49,0,0,0-1.07-.57,1.57,1.57,0,0,0-1.2.38,1.75,1.75,0,0,0-.22,2.36A1.43,1.43,0,0,0,608.33,163.3Zm4.66.83a2.3,2.3,0,0,0,1.06-.17,1.7,1.7,0,0,0,.84-.68,2.21,2.21,0,0,0,.37-1.05,2,2,0,0,0-.44-1.53,2.15,2.15,0,0,0-3-.24,2,2,0,0,0-.72,1.44,2,2,0,0,0,.45,1.52A2,2,0,0,0,613,164.13Z"/><path class="cls-9" d="M611.51,157.31a9.45,9.45,0,0,1-2.87-.63,3.56,3.56,0,0,1-1.6-1.26,2.81,2.81,0,0,1-.43-1.89,3,3,0,0,1,.46-1.41,2.68,2.68,0,0,1,1-.93,5.11,5.11,0,0,1,1.56-.5,10.15,10.15,0,0,1,2.43,0,9.32,9.32,0,0,1,2.86.62,3.67,3.67,0,0,1,1.6,1.25,2.87,2.87,0,0,1,.43,1.91,2.79,2.79,0,0,1-1.26,2.21A6.69,6.69,0,0,1,611.51,157.31Zm.11-1.29a6.45,6.45,0,0,0,3.39-.28,1.69,1.69,0,0,0,.25-2.9,9.83,9.83,0,0,0-6.67-.59,1.74,1.74,0,0,0-1,1.38,1.59,1.59,0,0,0,.61,1.44A6.32,6.32,0,0,0,611.62,156Z"/><path class="cls-9" d="M612.21,149.41a9.52,9.52,0,0,1-2.87-.63,3.6,3.6,0,0,1-1.59-1.26,2.82,2.82,0,0,1-.44-1.89,3,3,0,0,1,.46-1.41,2.83,2.83,0,0,1,1-.93,5.17,5.17,0,0,1,1.57-.5,10.15,10.15,0,0,1,2.43,0,9.18,9.18,0,0,1,2.85.62,3.61,3.61,0,0,1,1.6,1.25,2.87,2.87,0,0,1,.44,1.91,2.79,2.79,0,0,1-1.26,2.21A6.72,6.72,0,0,1,612.21,149.41Zm.12-1.29a6.41,6.41,0,0,0,3.38-.28,1.69,1.69,0,0,0,.26-2.9,9.83,9.83,0,0,0-6.67-.59,1.74,1.74,0,0,0-.95,1.38,1.58,1.58,0,0,0,.6,1.44A6.36,6.36,0,0,0,612.33,148.12Z"/><line class="cls-10" x1="624.51" y1="125.28" x2="621.05" y2="183.46"/><polygon class="cls-9" points="621.01 126.76 625.32 114.15 628.1 127.18 621.01 126.76"/><path class="cls-9" d="M848.8,647.17l-5.13-8.83,3.91-2.27a6,6,0,0,1,1.94-.81,2.23,2.23,0,0,1,1.46.27,3,3,0,0,1,1.15,1.11,2.63,2.63,0,0,1,.31,1.94,3.56,3.56,0,0,1-1.4,1.91,3.62,3.62,0,0,1,1,0,7.45,7.45,0,0,1,1.65.61l2.93,1.51-1.47.86-2.23-1.16c-.65-.33-1.17-.57-1.55-.73a3.14,3.14,0,0,0-.94-.24,2.09,2.09,0,0,0-.67.07,4.65,4.65,0,0,0-.67.34l-1.36.79,2.28,3.92Zm-1.7-5.61,2.51-1.46a4.24,4.24,0,0,0,1.16-.9,1.53,1.53,0,0,0,.38-.93,1.69,1.69,0,0,0-.23-.93,1.52,1.52,0,0,0-1-.76,2.47,2.47,0,0,0-1.67.43l-2.79,1.63Z"/><path class="cls-9" d="M859,632.33l-1,.71a2.33,2.33,0,0,0-1-.69,1.65,1.65,0,0,0-1.35.17,1.73,1.73,0,0,0-.74.82,2.8,2.8,0,0,0-.17,1.55,6.36,6.36,0,0,0,.88,2.22,2.84,2.84,0,0,1,.44-1.44,3,3,0,0,1,1-1,2.83,2.83,0,0,1,2.31-.27,3.28,3.28,0,0,1,2,1.62,3.93,3.93,0,0,1,.54,1.75,3,3,0,0,1-.35,1.66,3.1,3.1,0,0,1-1.2,1.21,3.24,3.24,0,0,1-2.79.29,5.79,5.79,0,0,1-2.76-2.79,6.75,6.75,0,0,1-1.22-4.27,3.12,3.12,0,0,1,1.63-2.3,2.87,2.87,0,0,1,2-.41A2.84,2.84,0,0,1,859,632.33Zm-2.21,6.38a3.06,3.06,0,0,0,.86.93,2,2,0,0,0,1.12.39,2,2,0,0,0,1-.25,1.76,1.76,0,0,0,.86-1.24,2.48,2.48,0,0,0-.38-1.79,2.38,2.38,0,0,0-1.33-1.16,1.84,1.84,0,0,0-1.53.19,1.93,1.93,0,0,0-.94,1.25A2.19,2.19,0,0,0,856.77,638.71Z"/><line class="cls-10" x1="894.87" y1="626.43" x2="845.39" y2="657.23"/><polygon class="cls-9" points="891.65 624.43 904.42 620.65 895.4 630.46 891.65 624.43"/><path class="cls-9" d="M45.82,708.3l-7.42-7L41.51,698a6.15,6.15,0,0,1,1.63-1.32,2.26,2.26,0,0,1,1.48-.16,3,3,0,0,1,1.41.75,2.57,2.57,0,0,1,.85,1.77,3.57,3.57,0,0,1-.8,2.23A3.58,3.58,0,0,1,47,701a6.8,6.8,0,0,1,1.76.12l3.24.62L50.83,703l-2.47-.48c-.71-.13-1.28-.22-1.69-.25a3.32,3.32,0,0,0-1,0,2,2,0,0,0-.62.27,3.63,3.63,0,0,0-.55.51l-1.08,1.14,3.3,3.11Zm-3.22-4.9,2-2.11a4.42,4.42,0,0,0,.86-1.18,1.58,1.58,0,0,0,.09-1,1.69,1.69,0,0,0-.47-.83,1.54,1.54,0,0,0-1.23-.43,2.43,2.43,0,0,0-1.48.88l-2.22,2.35Z"/><path class="cls-9" d="M55.79,697.79l-.86.91-5.81-5.49a6.5,6.5,0,0,1-.19,1.46,8.08,8.08,0,0,1-.43,1.4l-.88-.83a7.7,7.7,0,0,0,.39-2.16,4.53,4.53,0,0,0-.23-1.75l.56-.59Z"/><path class="cls-9" d="M58.48,695l-1-1,1-1,1,1Z"/><path class="cls-9" d="M58.77,690.74l.83-1a2.3,2.3,0,0,0,1.51.49,1.81,1.81,0,0,0,1.24-.6A2,2,0,0,0,62.9,688a2.56,2.56,0,0,0-.88-1.7,2.32,2.32,0,0,0-1.64-.72,2.31,2.31,0,0,0-2.09,1.7,2.2,2.2,0,0,0,0,1.05l-.92.75-3.13-4.32,3.49-3.69.87.82-2.8,3,1.62,2.29a3.36,3.36,0,0,1,.86-1.85,3.07,3.07,0,0,1,2.22-1,3.22,3.22,0,0,1,2.36,1A3.75,3.75,0,0,1,64,687.51a3.22,3.22,0,0,1-.94,2.8A3.3,3.3,0,0,1,61,691.43,3.07,3.07,0,0,1,58.77,690.74Z"/><line class="cls-10" x1="84" y1="675.41" x2="45.24" y2="718.92"/><polygon class="cls-9" points="80.35 674.4 91.54 667.17 85.65 679.12 80.35 674.4"/><path class="cls-9" d="M930.73,644.91v1.26h-8a6.34,6.34,0,0,1,.87,1.18,8.67,8.67,0,0,1,.64,1.32H923a7.69,7.69,0,0,0-1.2-1.84,4.68,4.68,0,0,0-1.36-1.11v-.81Z"/><path class="cls-9" d="M930.73,637.68h-2.44v4.43h-1.15l-6.62-4.66v-1h6.62v-1.38h1.15v1.38h2.44Zm-3.59,0h-4.61l4.61,3.2Z"/><path class="cls-8" d="M28.42,439.83H27.17v-6.89h1a14.79,14.79,0,0,0,2.88,2,17.82,17.82,0,0,0,3.69,1.54,13.67,13.67,0,0,0,2.93.5v1.34a12.56,12.56,0,0,1-3-.49,16,16,0,0,1-3.43-1.35,15.21,15.21,0,0,1-2.79-1.88Z"/><path class="cls-8" d="M36.42,424.82h1.26v7a2.32,2.32,0,0,1-.91-.15,5,5,0,0,1-1.42-.86,14.68,14.68,0,0,1-1.61-1.71,14.37,14.37,0,0,0-2.26-2.35,2.65,2.65,0,0,0-1.57-.61,1.75,1.75,0,0,0-1.31.56,2,2,0,0,0-.53,1.44,2.09,2.09,0,0,0,.56,1.52,2.2,2.2,0,0,0,1.57.57l-.14,1.34a3.31,3.31,0,0,1-2.29-1,3.55,3.55,0,0,1-.78-2.41,3.4,3.4,0,0,1,.84-2.43,2.78,2.78,0,0,1,2.11-.89,3.09,3.09,0,0,1,1.26.26,4.75,4.75,0,0,1,1.3.87,20.54,20.54,0,0,1,1.87,2c.66.79,1.11,1.29,1.34,1.51a4.26,4.26,0,0,0,.71.55Z"/><path class="cls-8" d="M37.68,422.6H36.19v-1.49h1.49Z"/><path class="cls-8" d="M28.42,419.48H27.17v-6.89h1a14.79,14.79,0,0,0,2.88,2,17.82,17.82,0,0,0,3.69,1.54,13.67,13.67,0,0,0,2.93.5V418a12.56,12.56,0,0,1-3-.49,16,16,0,0,1-3.43-1.35,15.21,15.21,0,0,1-2.79-1.88Z"/></g><g id="Watermark"><rect class="cls-1" x="438.45" y="239.01" width="123.09" height="46.3"/><rect class="cls-11" x="444.86" y="246.85" width="62.89" height="30.62"/><rect class="cls-11" x="507.75" y="246.85" width="47.39" height="30.62"/><path class="cls-12" d="M466.48,253l-2.79,18.92H461l-1.55-11-1.53,11h-2.74L452.33,253h2.51l1.79,14.18L458.42,253h2l1.79,14.18L464,253Z"/><path class="cls-12" d="M467.93,271.87V253h2.53v18.92Z"/><path class="cls-12" d="M472.83,253h5q2.9,0,2.9,3.24v4.67c0,1.65-.51,2.69-1.51,3.13l1.77,7.88h-2.4l-1.66-7.64h-1.53v7.64h-2.53Zm2.53,9.12H477c.76,0,1.14-.46,1.14-1.37v-4.08c0-.92-.38-1.37-1.14-1.37h-1.66Z"/><path class="cls-12" d="M486.82,255.25v16.62h-2.53V255.25h-2.42V253h7.38v2.3Z"/><path class="cls-12" d="M496.34,271.87v-8.59h-3.11v8.59H490.7V253h2.53v8h3.11v-8h2.53v18.92Z"/><path class="cls-12" d="M516.31,253h5q2.9,0,2.89,3.24v4.67c0,1.65-.5,2.69-1.5,3.13l1.77,7.88H522l-1.66-7.64h-1.53v7.64h-2.53Zm2.53,9.12h1.66c.76,0,1.13-.46,1.13-1.37v-4.08c0-.92-.37-1.37-1.13-1.37h-1.66Z"/><path class="cls-12" d="M528.67,271.87h-2.53V256.19q0-3.24,3-3.24h1.9q3,0,3,3.24v15.68h-2.53v-6.93h-2.9Zm2.9-9.22v-6.3a1,1,0,0,0-1.11-1.1h-.68a1,1,0,0,0-1.11,1.1v6.3Z"/><path class="cls-12" d="M536.34,271.87V253h2.53v18.92Z"/><path class="cls-12" d="M547.24,271.87h-6V253h2.53v16.63h3.47Z"/></g></svg>