<svg xmlns="http://www.w3.org/2000/svg" viewBox="0 0 1000 800"><defs><style>.cls-1,.cls-11{fill:#f0f0f0;}.cls-10,.cls-2,.cls-3,.cls-4,.cls-5,.cls-6,.cls-7{fill:none;}.cls-2,.cls-3,.cls-5,.cls-6,.cls-7{stroke:#231f20;}.cls-2{stroke-width:2px;}.cls-5{stroke-dasharray:6.64 1.94;}.cls-6{stroke-dasharray:6.87 2.01;}.cls-7{stroke-dasharray:6.21 1.34;}.cls-8{fill:#231f20;}.cls-9{fill:#303030;}.cls-10{stroke:#303030;}.cls-10,.cls-11{stroke-miterlimit:10;}.cls-11{stroke:#ccc;}.cls-12{fill:#ccc;}</style></defs><g id="Flat"><path class="cls-1" d="M859.28,504.38s-6.69-17.87-19.67-18.79S655,470.74,655,470.74L588.19,454s-20-8.56-18.79-28.61c0,0,.92-15.25,1.17-59.52,0,0,0-11.4,17.64-17l29.61-11.41s12-3.7,12.12-20.79c.12-20.42,0-76.08,0-76.08s-3.49-18.78-20.41-20.41c-17.7-1.71-82.39-2.43-104.32-2.63v-.06l-3.68,0-3.68,0v.06c-21.92.2-86.61.92-104.32,2.63-16.91,1.63-20.4,20.41-20.4,20.41s-.12,55.66,0,76.08c.1,17.09,12.12,20.79,12.12,20.79L414.85,349c17.63,5.56,17.65,17,17.65,17,.24,44.27,1.17,59.52,1.17,59.52,1.23,20.05-18.8,28.61-18.8,28.61l-66.79,16.7s-171.63,13.92-184.62,14.85-19.68,18.79-19.68,18.79l.31,28.81L501.53,533l357.45.15Z"/><path class="cls-2" d="M859.28,504.38s-6.69-17.87-19.67-18.79S655,470.74,655,470.74L588.19,454s-20-8.56-18.79-28.61c0,0,.92-15.25,1.17-59.52,0,0,0-11.4,17.64-17l29.61-11.41s12-3.7,12.12-20.79c.12-20.42,0-76.08,0-76.08s-3.49-18.78-20.41-20.41c-17.7-1.71-82.39-2.43-104.32-2.63v-.06l-3.68,0-3.68,0v.06c-21.92.2-86.61.92-104.32,2.63-16.91,1.63-20.4,20.41-20.4,20.41s-.12,55.66,0,76.08c.1,17.09,12.12,20.79,12.12,20.79L414.85,349c17.63,5.56,17.65,17,17.65,17,.24,44.27,1.17,59.52,1.17,59.52,1.23,20.05-18.8,28.61-18.8,28.61l-66.79,16.7s-171.63,13.92-184.62,14.85-19.68,18.79-19.68,18.79l.31,28.81L501.53,533l357.45.15Z"/><line class="cls-3" x1="502.22" y1="217.6" x2="989" y2="217.55"/><rect class="cls-4" x="2" y="148.69" width="987" height="502.59"/><line class="cls-3" x1="603.3" y1="470.57" x2="659.9" y2="470.57"/><line class="cls-3" x1="841.91" y1="486.18" x2="931.38" y2="486.18"/><line class="cls-3" x1="859.28" y1="486.14" x2="859.28" y2="651.28"/><rect class="cls-4" x="2" y="148.69" width="987" height="502.59"/><line class="cls-3" x1="631.12" y1="152.02" x2="631.12" y2="333.64"/><line class="cls-3" x1="569.85" y1="355.13" x2="570.11" y2="451.54"/><line class="cls-3" x1="144.51" y1="525.51" x2="144.51" y2="651.28"/><line class="cls-3" x1="989" y1="533.83" x2="23.33" y2="533.89"/><rect class="cls-4" x="2" y="148.69" width="987" height="502.59"/><line class="cls-5" x1="502.43" y1="593.03" x2="501.67" y2="195.86"/><line class="cls-6" x1="776.35" y1="409.68" x2="102.33" y2="409.1"/><line class="cls-7" x1="76.28" y1="409.27" x2="33.97" y2="409.86"/><path class="cls-3" d="M32,409.89l-9.1.12m76.49-.91H89.31l-9.1.13m712.1.47H782.24"/><path class="cls-3" d="M659,471.39V593M373.12,152V260.86"/><line class="cls-3" x1="570.14" y1="355.92" x2="758.19" y2="355.92"/><line class="cls-3" x1="631.12" y1="333.64" x2="570.14" y2="355.92"/><line class="cls-3" x1="659.9" y1="470.57" x2="570.11" y2="451.54"/><line class="cls-3" x1="703.82" y1="332.67" x2="631.11" y2="333.64"/><line class="cls-3" x1="542.64" y1="451.55" x2="570.83" y2="451.55"/><path class="cls-8" d="M513.1,211.2v-6.5l-5.93-8.84h2.45l3,4.64c.56.86,1.08,1.73,1.57,2.58q.71-1.22,1.71-2.7l3-4.52h2.37l-6.13,8.84v6.5Z"/><path class="cls-8" d="M513.1,558.17v-6.5l-5.93-8.84h2.45l3,4.64c.56.87,1.08,1.73,1.57,2.58q.71-1.2,1.71-2.7l3-4.52h2.37l-6.13,8.84v6.5Z"/><path class="cls-8" d="M19.37,478.36h1.81v10.15a3.24,3.24,0,0,1-1.31-.23,6.73,6.73,0,0,1-2-1.24,19.12,19.12,0,0,1-2.31-2.46,20.83,20.83,0,0,0-3.25-3.37,3.93,3.93,0,0,0-2.27-.87,2.53,2.53,0,0,0-1.89.79,2.88,2.88,0,0,0-.76,2.08,2.94,2.94,0,0,0,.81,2.17,3.14,3.14,0,0,0,2.27.82l-.21,1.94a4.77,4.77,0,0,1-3.31-1.5,5.06,5.06,0,0,1-1.14-3.47A4.84,4.84,0,0,1,7,479.68a4,4,0,0,1,3-1.29,4.68,4.68,0,0,1,1.82.38A6.77,6.77,0,0,1,13.72,480a29,29,0,0,1,2.7,2.89c.95,1.13,1.59,1.85,1.93,2.17a5.77,5.77,0,0,0,1,.78Z"/><path class="cls-8" d="M21.18,469.24v1.88h-12a9.12,9.12,0,0,1,1.3,1.79,12.32,12.32,0,0,1,1,2H9.62a11.21,11.21,0,0,0-1.8-2.77,7,7,0,0,0-2.05-1.68v-1.21Z"/><rect class="cls-4" x="2" y="148.69" width="987" height="502.59"/><rect class="cls-8" x="19.03" y="461.24" width="2.14" height="2.14"/><path class="cls-8" d="M7.85,458.34H6v-9.95H7.5a20.7,20.7,0,0,0,4.15,2.91A25.49,25.49,0,0,0,17,453.53a20.51,20.51,0,0,0,4.22.72v1.94a19,19,0,0,1-4.38-.71,23.22,23.22,0,0,1-4.94-2,21.06,21.06,0,0,1-4-2.72Z"/><path class="cls-8" d="M803.78,417.68l5.9-8-5.23-7.37h2.41l2.82,3.95a21.86,21.86,0,0,1,1.22,1.82c.35-.55.77-1.12,1.24-1.72l3-4h2.23l-5.3,7.29,5.74,8h-2.5l-3.85-5.44-.66-.92q-.46.71-.69,1l-3.89,5.34Z"/><path class="cls-8" d="M2,417.68l5.9-8-5.23-7.37H5.08L7.9,406.3a21.86,21.86,0,0,1,1.22,1.82c.35-.55.77-1.12,1.24-1.72l3-4h2.23l-5.3,7.29,5.74,8h-2.5l-3.85-5.44L9,411.32l-.7,1-3.89,5.34Z"/><rect class="cls-4" x="2" y="148.69" width="987" height="502.59"/><path class="cls-9" d="M459.71,379.33v1.82H449.5a3.46,3.46,0,0,1,.22-1.32,7,7,0,0,1,1.25-2.05,18.75,18.75,0,0,1,2.48-2.34,21.26,21.26,0,0,0,3.4-3.27,4,4,0,0,0,.89-2.28,2.52,2.52,0,0,0-.81-1.9,2.89,2.89,0,0,0-2.1-.78,3,3,0,0,0-2.19.82,3.08,3.08,0,0,0-.83,2.28l-1.95-.2a4.74,4.74,0,0,1,1.51-3.32,5.09,5.09,0,0,1,3.5-1.15,4.86,4.86,0,0,1,3.52,1.24,4.06,4.06,0,0,1,1.3,3.05,4.64,4.64,0,0,1-.38,1.82,7.13,7.13,0,0,1-1.26,1.89,32.46,32.46,0,0,1-2.92,2.72c-1.14.95-1.87,1.6-2.2,1.94a6.11,6.11,0,0,0-.8,1Z"/><path class="cls-9" d="M467.82,381.15v-3.7h-6.7v-1.74l7.05-10h1.54v10h2.09v1.74h-2.09v3.7Zm0-5.44v-7l-4.84,7Z"/><path class="cls-9" d="M483.88,385.69a19.07,19.07,0,0,1-2.65-4.64,14.52,14.52,0,0,1-.28-10.3,20.67,20.67,0,0,1,2.93-5.31h1.36a35.3,35.3,0,0,0-1.68,3.13,17.41,17.41,0,0,0-1,3,17.84,17.84,0,0,0-.45,4,19,19,0,0,0,3.15,10.12Z"/><path class="cls-9" d="M486.92,373.53a14.08,14.08,0,0,1,.56-4.41,5.42,5.42,0,0,1,1.67-2.57,4.28,4.28,0,0,1,2.8-.91,4.58,4.58,0,0,1,2.18.5,4.21,4.21,0,0,1,1.55,1.45,7.52,7.52,0,0,1,1,2.29,15.38,15.38,0,0,1,.35,3.65,14.24,14.24,0,0,1-.56,4.39,5.5,5.5,0,0,1-1.67,2.58,4.71,4.71,0,0,1-6.32-.69C487.42,378.53,486.92,376.43,486.92,373.53Zm1.94,0c0,2.54.3,4.22.89,5.06a2.55,2.55,0,0,0,4.4,0c.59-.84.89-2.53.89-5.06s-.3-4.23-.89-5.06a2.66,2.66,0,0,0-2.22-1.26,2.44,2.44,0,0,0-2.09,1.11Q488.87,369.73,488.86,373.53Z"/><path class="cls-9" d="M500,381.15V379h2.16v2.16Z"/><path class="cls-9" d="M505.19,377.58l1.82-.17a3.13,3.13,0,0,0,.89,1.86,2.39,2.39,0,0,0,1.67.58,2.87,2.87,0,0,0,1.54-.4,3.16,3.16,0,0,0,1.08-1.07,6.19,6.19,0,0,0,.7-1.8,9.51,9.51,0,0,0,.29-2.32c0-.08,0-.21,0-.38a4.41,4.41,0,0,1-1.56,1.47,4.16,4.16,0,0,1-2.13.56,4.32,4.32,0,0,1-3.25-1.39,5.09,5.09,0,0,1-1.32-3.66,5.2,5.2,0,0,1,1.38-3.78,4.62,4.62,0,0,1,3.47-1.44,5,5,0,0,1,2.76.81,5.13,5.13,0,0,1,1.89,2.32,11.21,11.21,0,0,1,.65,4.34,14.09,14.09,0,0,1-.64,4.72,5.66,5.66,0,0,1-1.91,2.67,5,5,0,0,1-3,.91,4.33,4.33,0,0,1-3-1A4.39,4.39,0,0,1,505.19,377.58Zm7.77-6.82a3.71,3.71,0,0,0-.87-2.59,2.73,2.73,0,0,0-2.09-1,2.93,2.93,0,0,0-2.21,1,3.85,3.85,0,0,0-.93,2.68,3.3,3.3,0,0,0,.89,2.4,2.93,2.93,0,0,0,2.19.92,2.84,2.84,0,0,0,2.17-.92A3.68,3.68,0,0,0,513,370.76Z"/><path class="cls-9" d="M523,381.15v-3.7h-6.7v-1.74l7.05-10h1.55v10H527v1.74h-2.08v3.7Zm0-5.44v-7l-4.83,7Z"/><path class="cls-9" d="M528.9,377.1l2-.16a3.58,3.58,0,0,0,1,2.18,2.79,2.79,0,0,0,1.94.73,3,3,0,0,0,2.32-1,3.9,3.9,0,0,0,1-2.74,3.52,3.52,0,0,0-.91-2.56,3.2,3.2,0,0,0-2.39-.94,3.32,3.32,0,0,0-2.81,1.5l-1.78-.23,1.5-7.93h7.68v1.81h-6.17l-.83,4.15a5,5,0,0,1,2.92-1,4.63,4.63,0,0,1,3.41,1.4,4.88,4.88,0,0,1,1.39,3.6,5.66,5.66,0,0,1-1.22,3.63,4.89,4.89,0,0,1-4.06,1.87,5,5,0,0,1-3.43-1.18A4.61,4.61,0,0,1,528.9,377.1Z"/><path class="cls-9" d="M541.52,371.17l-.52-2.94v-2.52h2.15v2.52l-.47,2.94Zm3.49,0-.52-2.94v-2.52h2.16v2.52l-.5,2.94Z"/><path class="cls-9" d="M550.36,385.69H549a19,19,0,0,0,3.15-10.12,17.42,17.42,0,0,0-.45-3.93,17.18,17.18,0,0,0-1-3c-.28-.63-.84-1.68-1.7-3.16h1.36a20.37,20.37,0,0,1,2.93,5.31,14.52,14.52,0,0,1-.28,10.3A19.4,19.4,0,0,1,550.36,385.69Z"/><path class="cls-9" d="M969.33,417.94l-.17-2a3.59,3.59,0,0,0,2.19-1,2.84,2.84,0,0,0,.73-1.94,3,3,0,0,0-1-2.32,3.88,3.88,0,0,0-2.73-1,3.5,3.5,0,0,0-2.56.91,3.16,3.16,0,0,0-.94,2.39,3.27,3.27,0,0,0,.42,1.65,3.1,3.1,0,0,0,1.08,1.16l-.24,1.78-7.93-1.5v-7.67H960v6.16l4.15.83a5.08,5.08,0,0,1-1-2.92,4.6,4.6,0,0,1,1.41-3.41,4.87,4.87,0,0,1,3.6-1.39,5.64,5.64,0,0,1,3.62,1.22,4.9,4.9,0,0,1,1.88,4.06,5,5,0,0,1-1.18,3.44A4.66,4.66,0,0,1,969.33,417.94Z"/><path class="cls-9" d="M969.33,405.94l-.17-2a3.59,3.59,0,0,0,2.19-1,2.82,2.82,0,0,0,.73-1.94,3,3,0,0,0-1-2.32,3.88,3.88,0,0,0-2.73-1,3.54,3.54,0,0,0-2.56.91,3.18,3.18,0,0,0-.94,2.39,3.27,3.27,0,0,0,.42,1.65,3,3,0,0,0,1.08,1.16l-.24,1.78-7.93-1.49v-7.68H960v6.16l4.15.83a5.06,5.06,0,0,1-1-2.92,4.62,4.62,0,0,1,1.41-3.41,4.87,4.87,0,0,1,3.6-1.39,5.64,5.64,0,0,1,3.62,1.22,4.91,4.91,0,0,1,1.88,4.06,5,5,0,0,1-1.18,3.44A4.62,4.62,0,0,1,969.33,405.94Z"/><path class="cls-9" d="M977.91,383.8a19,19,0,0,1-4.63,2.65,14.52,14.52,0,0,1-10.3.28,20.35,20.35,0,0,1-5.31-2.93v-1.36a33.92,33.92,0,0,0,3.13,1.68,17.41,17.41,0,0,0,3,1,17.69,17.69,0,0,0,4,.45,19,19,0,0,0,10.12-3.15Z"/><path class="cls-9" d="M971.55,370.8h1.82V381a3.44,3.44,0,0,1-1.31-.22,7.07,7.07,0,0,1-2.06-1.25,20.17,20.17,0,0,1-2.34-2.48,20.58,20.58,0,0,0-3.27-3.41,3.89,3.89,0,0,0-2.28-.88,2.53,2.53,0,0,0-1.9.81,2.9,2.9,0,0,0-.77,2.1,3,3,0,0,0,.82,2.19,3.1,3.1,0,0,0,2.27.83l-.2,1.95a4.78,4.78,0,0,1-3.32-1.51,5.15,5.15,0,0,1-1.14-3.51,4.88,4.88,0,0,1,1.23-3.51,4,4,0,0,1,3-1.3,4.73,4.73,0,0,1,1.83.38,7,7,0,0,1,1.88,1.26,31,31,0,0,1,2.72,2.92c1,1.14,1.6,1.87,1.94,2.19a6,6,0,0,0,1,.8Z"/><path class="cls-9" d="M973.37,367.7h-2.16v-2.16h2.16Z"/><path class="cls-9" d="M973.37,355.63v1.9H961.29a9.55,9.55,0,0,1,1.31,1.79,13.43,13.43,0,0,1,1,2h-1.84a11.12,11.12,0,0,0-1.81-2.78,7.3,7.3,0,0,0-2.06-1.69v-1.22Z"/><path class="cls-9" d="M961.71,340.94l.15,1.88a3.55,3.55,0,0,0-1.62.72,2.5,2.5,0,0,0-.81,1.9,2.66,2.66,0,0,0,.5,1.59,4.43,4.43,0,0,0,1.91,1.41,9.94,9.94,0,0,0,3.57.53,4.33,4.33,0,0,1-1.55-1.67,4.46,4.46,0,0,1-.5-2.08,4.27,4.27,0,0,1,1.39-3.22,5,5,0,0,1,3.61-1.34,5.89,5.89,0,0,1,2.7.63A4.57,4.57,0,0,1,973,343a4.64,4.64,0,0,1,.67,2.49,4.82,4.82,0,0,1-1.75,3.86q-1.74,1.5-5.74,1.5-4.49,0-6.51-1.65a4.77,4.77,0,0,1-1.77-3.89,4.12,4.12,0,0,1,3.84-4.38Zm6.66,7.74a4.33,4.33,0,0,0,1.87-.42,3,3,0,0,0,1.37-1.16,2.93,2.93,0,0,0,.47-1.57,2.68,2.68,0,0,0-1-2.06,3.81,3.81,0,0,0-2.63-.87,3.63,3.63,0,0,0-2.53.85,2.83,2.83,0,0,0-.92,2.15,2.92,2.92,0,0,0,.92,2.18A3.32,3.32,0,0,0,968.37,348.68Z"/><path class="cls-9" d="M969.33,338.78l-.17-2a3.59,3.59,0,0,0,2.19-1,2.84,2.84,0,0,0,.73-1.94,3,3,0,0,0-1-2.32,3.88,3.88,0,0,0-2.73-.95,3.5,3.5,0,0,0-2.56.91,3.16,3.16,0,0,0-.94,2.39,3.27,3.27,0,0,0,.42,1.65,3.1,3.1,0,0,0,1.08,1.16l-.24,1.78-7.93-1.5v-7.67H960v6.16l4.15.83a5.08,5.08,0,0,1-1-2.92,4.6,4.6,0,0,1,1.41-3.41,4.87,4.87,0,0,1,3.6-1.39,5.64,5.64,0,0,1,3.62,1.22,4.9,4.9,0,0,1,1.88,4.06,5,5,0,0,1-1.18,3.44A4.66,4.66,0,0,1,969.33,338.78Z"/><path class="cls-9" d="M963.4,322.67l-2.94.52h-2.53V321h2.53l2.94.5Zm0,3.49-2.94.53h-2.53v-2.16h2.53l2.94.47Z"/><path class="cls-9" d="M977.91,317.32v1.36a19,19,0,0,0-10.12-3.15,17.42,17.42,0,0,0-3.93.45,16.33,16.33,0,0,0-3,1,31.77,31.77,0,0,0-3.16,1.69v-1.36a20.46,20.46,0,0,1,5.3-2.93,14.54,14.54,0,0,1,10.31.28A19.33,19.33,0,0,1,977.91,317.32Z"/><line class="cls-10" x1="163.4" y1="641.52" x2="845.54" y2="641.52"/><polygon class="cls-9" points="164.29 646.67 144.86 641.3 164.29 635.93 164.29 646.67"/><polygon class="cls-9" points="841.13 646.67 860.56 641.3 841.13 635.93 841.13 646.67"/><line class="cls-10" x1="389.02" y1="172.32" x2="611.69" y2="172.32"/><polygon class="cls-9" points="392.55 177.46 373.12 172.09 392.55 166.72 392.55 177.46"/><polygon class="cls-9" points="611.69 177.46 631.12 172.09 611.69 166.72 611.69 177.46"/><line class="cls-10" x1="981.1" y1="516.97" x2="981.1" y2="234.43"/><polygon class="cls-9" points="986.24 513.43 980.88 532.86 975.5 513.43 986.24 513.43"/><polygon class="cls-9" points="986.24 237 980.88 217.57 975.5 237 986.24 237"/><line class="cls-10" x1="753.44" y1="339.07" x2="753.44" y2="234.43"/><polygon class="cls-9" points="758.58 336.49 753.22 355.92 747.84 336.49 758.58 336.49"/><polygon class="cls-9" points="758.58 237 753.22 217.57 747.84 237 758.58 237"/><line class="cls-10" x1="686.75" y1="316.62" x2="686.75" y2="234.43"/><polygon class="cls-9" points="691.89 313.73 686.52 333.15 681.15 313.73 691.89 313.73"/><polygon class="cls-9" points="691.89 237 686.52 217.57 681.15 237 691.89 237"/><line class="cls-10" x1="553.74" y1="515.93" x2="553.74" y2="468.41"/><polygon class="cls-9" points="558.88 513.04 553.52 532.47 548.14 513.04 558.88 513.04"/><polygon class="cls-9" points="558.88 470.77 553.52 451.35 548.14 470.77 558.88 470.77"/><line class="cls-10" x1="619.36" y1="513.88" x2="619.36" y2="488.56"/><polygon class="cls-9" points="624.5 513.04 619.14 532.47 613.77 513.04 624.5 513.04"/><polygon class="cls-9" points="624.5 490 619.14 470.57 613.77 490 624.5 490"/><line class="cls-10" x1="30.56" y1="517.59" x2="30.56" y2="427.96"/><polygon class="cls-9" points="35.7 514.7 30.33 534.13 24.96 514.7 35.7 514.7"/><polygon class="cls-9" points="35.7 429.44 30.33 410.01 24.96 429.44 35.7 429.44"/><line class="cls-10" x1="445.98" y1="391.59" x2="557.32" y2="391.59"/><polygon class="cls-9" points="452.74 396.73 433.31 391.36 452.74 385.99 452.74 396.73"/><polygon class="cls-9" points="551.6 396.73 571.03 391.36 551.6 385.99 551.6 396.73"/><line class="cls-10" x1="561.07" y1="232.11" x2="557.27" y2="291.87"/><polygon class="cls-9" points="556.08 234.92 562.83 217.38 565.76 235.94 556.08 234.92"/><line class="cls-10" x1="515.1" y1="584.97" x2="639.53" y2="584.97"/><polygon class="cls-9" points="521.85 590.11 502.43 584.74 521.85 579.37 521.85 590.11"/><polygon class="cls-9" points="639.53 590.11 658.96 584.74 639.53 579.37 639.53 590.11"/><line class="cls-3" x1="921.9" y1="485.83" x2="921.96" y2="533.89"/><path class="cls-3" d="M922.52,592.48V549.65m0-144.43v61.86"/><polygon class="cls-9" points="916.38 466.35 921.9 486.31 927.42 466.35 916.38 466.35"/><polygon class="cls-9" points="927.41 552.76 921.9 532.81 916.38 552.76 927.41 552.76"/><path class="cls-9" d="M906,513.49a3.71,3.71,0,0,1-1.27,1.79,3.33,3.33,0,0,1-2,.59,3.87,3.87,0,0,1-2.91-1.25,5.22,5.22,0,0,1,0-6.65,3.87,3.87,0,0,1,2.93-1.27,3.19,3.19,0,0,1,1.92.58A3.66,3.66,0,0,1,906,509a4,4,0,0,1,4.06-3,4.55,4.55,0,0,1,3.42,1.44,5.86,5.86,0,0,1,0,7.58,4.62,4.62,0,0,1-3.47,1.43,4.19,4.19,0,0,1-2.59-.78A3.89,3.89,0,0,1,906,513.49Zm-3.31.39a2.46,2.46,0,0,0,1.84-.73,2.79,2.79,0,0,0,0-3.73,2.34,2.34,0,0,0-1.74-.72,2.45,2.45,0,0,0-1.8.74,2.72,2.72,0,0,0,0,3.7A2.28,2.28,0,0,0,902.73,513.88Zm7.33.62a3.54,3.54,0,0,0,1.61-.39,2.81,2.81,0,0,0,1.21-1.18,3.33,3.33,0,0,0,.43-1.67,3.16,3.16,0,0,0-.9-2.31,3.33,3.33,0,0,0-4.61,0,3.2,3.2,0,0,0-.92,2.34,3.09,3.09,0,0,0,3.18,3.18Z"/><line class="cls-10" x1="134.12" y1="544.44" x2="91.55" y2="591.08"/><polygon class="cls-9" points="128.46 543.62 144.51 533.86 135.49 550.34 128.46 543.62"/><path class="cls-9" d="M87.1,585,75.53,574.14,80.34,569A9.42,9.42,0,0,1,82.86,567a3.5,3.5,0,0,1,2.31-.26,4.58,4.58,0,0,1,2.19,1.16,4,4,0,0,1,1.33,2.74,5.55,5.55,0,0,1-1.24,3.47,5.47,5.47,0,0,1,1.45-.38,10.88,10.88,0,0,1,2.73.17l5,.94-1.8,1.93L91,576c-1.11-.2-2-.33-2.63-.39a4.66,4.66,0,0,0-1.5,0,3.2,3.2,0,0,0-1,.41,6.61,6.61,0,0,0-.86.8l-1.66,1.78,5.13,4.82Zm-5-7.59,3.09-3.3a7,7,0,0,0,1.32-1.84,2.4,2.4,0,0,0,.15-1.55,2.6,2.6,0,0,0-.75-1.28,2.33,2.33,0,0,0-1.91-.67,3.81,3.81,0,0,0-2.29,1.38l-3.44,3.66Z"/><path class="cls-9" d="M102.49,568.55,101.15,570l-9.05-8.49a10.07,10.07,0,0,1-.28,2.27,13.58,13.58,0,0,1-.67,2.18l-1.38-1.29a11.56,11.56,0,0,0,.6-3.35,7.23,7.23,0,0,0-.36-2.72l.86-.91Z"/><path class="cls-9" d="M106.63,564.1,105,562.59l1.52-1.62,1.62,1.52Z"/><path class="cls-9" d="M107.07,557.57l1.27-1.61a3.67,3.67,0,0,0,2.36.76,2.89,2.89,0,0,0,1.92-.94,3.1,3.1,0,0,0,.85-2.46,4,4,0,0,0-1.39-2.64,3.58,3.58,0,0,0-2.55-1.11,3.6,3.6,0,0,0-3.23,2.66,3.29,3.29,0,0,0,0,1.62L104.87,555l-4.9-6.7,5.4-5.75,1.36,1.27-4.33,4.62,2.52,3.54a5.15,5.15,0,0,1,1.33-2.87,4.75,4.75,0,0,1,3.45-1.57,5,5,0,0,1,3.67,1.49,5.74,5.74,0,0,1,1.86,3.46,5,5,0,0,1-1.45,4.36,5.08,5.08,0,0,1-3.3,1.74A4.72,4.72,0,0,1,107.07,557.57Z"/><path class="cls-9" d="M454.85,463.6,465,451.41l5.41,4.49a9.47,9.47,0,0,1,2.2,2.39,3.45,3.45,0,0,1,.39,2.29,4.44,4.44,0,0,1-1,2.26,3.93,3.93,0,0,1-2.66,1.49,5.54,5.54,0,0,1-3.54-1,5.13,5.13,0,0,1,.47,1.41,10.93,10.93,0,0,1,0,2.74l-.64,5.08-2-1.68.5-3.88c.14-1.13.21-2,.23-2.65a4.74,4.74,0,0,0-.14-1.5,3.07,3.07,0,0,0-.47-.94,5.78,5.78,0,0,0-.85-.8L461,459.53l-4.5,5.42Zm7.28-5.47L465.6,461a7,7,0,0,0,1.93,1.21,2.37,2.37,0,0,0,1.55,0,2.56,2.56,0,0,0,1.24-.82,2.37,2.37,0,0,0,.55-1.95,3.82,3.82,0,0,0-1.52-2.2l-3.86-3.21Z"/><path class="cls-9" d="M469.19,470.12l1.68,1.17a3.69,3.69,0,0,0-.63,2.4,2.91,2.91,0,0,0,1.06,1.86,3.1,3.1,0,0,0,2.51.7,4,4,0,0,0,2.55-1.54,3.59,3.59,0,0,0,1-2.62,3.27,3.27,0,0,0-1.27-2.3,3.32,3.32,0,0,0-1.58-.76,3.2,3.2,0,0,0-1.63.09l-1.25-1.35,6.39-5.29,6.07,5L482.86,469l-4.87-4-3.38,2.73a5.19,5.19,0,0,1,2.94,1.15,4.79,4.79,0,0,1,1.77,3.35,5,5,0,0,1-1.26,3.76,5.77,5.77,0,0,1-3.35,2.06,5.05,5.05,0,0,1-4.44-1.18,5.2,5.2,0,0,1-1.94-3.19A4.72,4.72,0,0,1,469.19,470.12Z"/><line class="cls-10" x1="436.61" y1="457.15" x2="470.29" y2="487.03"/><polygon class="cls-9" points="436.6 464.5 425.85 446.8 444.16 456.47 436.6 464.5"/><line class="cls-10" x1="390.98" y1="326.65" x2="433.6" y2="312.12"/><polygon class="cls-9" points="397.37 330.29 376.67 330.89 394.13 319.75 397.37 330.29"/><path class="cls-9" d="M409.75,241.68l8.91-13.12,5.82,3.95a9.24,9.24,0,0,1,2.42,2.17,3.52,3.52,0,0,1,.62,2.24,4.56,4.56,0,0,1-.8,2.34,4,4,0,0,1-2.51,1.75,5.51,5.51,0,0,1-3.61-.68,5.19,5.19,0,0,1,.6,1.36,10.58,10.58,0,0,1,.25,2.73l-.14,5.12-2.18-1.49.12-3.9c0-1.14,0-2,0-2.66a4.47,4.47,0,0,0-.29-1.48,3.18,3.18,0,0,0-.55-.89,7.32,7.32,0,0,0-.93-.72l-2-1.37-4,5.83Zm6.71-6.15,3.74,2.54a6.85,6.85,0,0,0,2,1,2.43,2.43,0,0,0,1.56-.09,2.59,2.59,0,0,0,1.15-.94,2.36,2.36,0,0,0,.36-2,3.78,3.78,0,0,0-1.73-2.05l-4.15-2.82Z"/><path class="cls-9" d="M427.47,253.72l2.13-3.14-5.69-3.87,1-1.47,11.77-4.44,1.31.89-5.78,8.51,1.78,1.2-1,1.48-1.77-1.21-2.13,3.15Zm3.13-4.62,4-5.91-8.13,3.12Z"/><line class="cls-10" x1="391" y1="237.08" x2="427.42" y2="263.56"/><polygon class="cls-9" points="391.71 244.4 379.3 227.83 398.46 235.68 391.71 244.4"/><path class="cls-9" d="M377.82,387.45l-10.37-12,5.32-4.6a9.48,9.48,0,0,1,2.71-1.79,3.55,3.55,0,0,1,2.32,0,4.51,4.51,0,0,1,2.07,1.38,3.94,3.94,0,0,1,1,2.87,5.48,5.48,0,0,1-1.59,3.32,5.46,5.46,0,0,1,1.48-.23,10.72,10.72,0,0,1,2.7.45l4.91,1.46-2,1.73-3.75-1.12c-1.08-.32-1.94-.54-2.57-.66a4.64,4.64,0,0,0-1.5-.11,3.16,3.16,0,0,0-1,.31,5.81,5.81,0,0,0-.94.71l-1.84,1.59,4.61,5.33Zm-4.21-8.08,3.42-2.95a6.78,6.78,0,0,0,1.5-1.7,2.33,2.33,0,0,0,.31-1.52,2.53,2.53,0,0,0-.61-1.36,2.38,2.38,0,0,0-1.83-.86,3.82,3.82,0,0,0-2.42,1.14l-3.8,3.28Z"/><path class="cls-9" d="M394,373.43l-2.49-2.87-5.2,4.5-1.17-1.35-1.25-12.51,1.2-1,6.73,7.77,1.62-1.4,1.17,1.35-1.62,1.4,2.48,2.88Zm-3.65-4.22-4.68-5.41.92,8.66Z"/><line class="cls-10" x1="415.85" y1="365.67" x2="380.87" y2="394.02"/><polygon class="cls-9" points="408.6 364.46 427.82 356.75 415.29 373.23 408.6 364.46"/><path class="cls-9" d="M107.26,453.64l9.27-12.88,5.71,4.11a9.34,9.34,0,0,1,2.36,2.23,3.42,3.42,0,0,1,.55,2.25,4.46,4.46,0,0,1-.86,2.33,4,4,0,0,1-2.55,1.67,5.54,5.54,0,0,1-3.6-.78,5.36,5.36,0,0,1,.57,1.39,10.74,10.74,0,0,1,.18,2.73l-.28,5.11-2.15-1.54.23-3.9c.06-1.14.07-2,0-2.66a4.75,4.75,0,0,0-.25-1.49,3.06,3.06,0,0,0-.53-.9,5.64,5.64,0,0,0-.9-.74l-2-1.43L109,454.86Zm6.88-6,3.66,2.63a6.93,6.93,0,0,0,2,1.08,2.4,2.4,0,0,0,1.55-.06,2.58,2.58,0,0,0,1.18-.9,2.39,2.39,0,0,0,.41-2,3.81,3.81,0,0,0-1.67-2.1l-4.07-2.93Z"/><path class="cls-9" d="M124.66,466.13l2.22-3.08-5.59-4,1-1.45,11.88-4.12,1.29.93-6,8.35,1.74,1.25-1.05,1.45-1.74-1.25-2.22,3.08Zm3.26-4.53,4.18-5.81-8.21,2.91Z"/><line class="cls-10" x1="137.07" y1="485.28" x2="101.39" y2="457.82"/><polygon class="cls-9" points="136.57 477.95 148.53 494.85 129.59 486.49 136.57 477.95"/><path class="cls-9" d="M581,575.64v1.82H570.76a3.46,3.46,0,0,1,.22-1.32,7,7,0,0,1,1.25-2,18.75,18.75,0,0,1,2.48-2.34,21.44,21.44,0,0,0,3.41-3.27,3.91,3.91,0,0,0,.88-2.28,2.52,2.52,0,0,0-.81-1.9,2.87,2.87,0,0,0-2.1-.78,3,3,0,0,0-2.19.82,3.12,3.12,0,0,0-.83,2.28l-2-.2a4.78,4.78,0,0,1,1.51-3.32,5.1,5.1,0,0,1,3.51-1.15,4.84,4.84,0,0,1,3.51,1.24,4,4,0,0,1,1.3,3,4.64,4.64,0,0,1-.38,1.82,6.89,6.89,0,0,1-1.26,1.89,32.46,32.46,0,0,1-2.92,2.72c-1.14,1-1.87,1.6-2.19,1.94a5.63,5.63,0,0,0-.8,1Z"/><path class="cls-9" d="M583.13,564v-1.82h10v1.47a21.2,21.2,0,0,0-2.93,4.17,26.07,26.07,0,0,0-2.24,5.35,19.63,19.63,0,0,0-.72,4.25h-2a19.09,19.09,0,0,1,.71-4.4,23.58,23.58,0,0,1,2-5,21,21,0,0,1,2.72-4Z"/><path class="cls-9" d="M743.79,290.35h1.82v10.21a3.44,3.44,0,0,1-1.31-.22,7.07,7.07,0,0,1-2.06-1.25,20.17,20.17,0,0,1-2.34-2.48,20.58,20.58,0,0,0-3.27-3.41,3.89,3.89,0,0,0-2.28-.88,2.53,2.53,0,0,0-1.9.81,2.9,2.9,0,0,0-.77,2.1,3,3,0,0,0,.82,2.19,3.1,3.1,0,0,0,2.27.83l-.2,1.95a4.78,4.78,0,0,1-3.32-1.51,5.15,5.15,0,0,1-1.14-3.51,4.88,4.88,0,0,1,1.23-3.51,4,4,0,0,1,3-1.3,4.73,4.73,0,0,1,1.83.38A7,7,0,0,1,738.1,292a31,31,0,0,1,2.72,2.92c.95,1.14,1.6,1.87,1.94,2.19a6,6,0,0,0,1,.8Z"/><path class="cls-9" d="M745.61,282.24h-3.69v6.7h-1.74l-10-7.05v-1.55h10v-2.08h1.74v2.08h3.69Zm-5.43,0h-7l7,4.83Z"/><path class="cls-9" d="M676.78,279.69h1.83V289.9a3.46,3.46,0,0,1-1.32-.22,6.9,6.9,0,0,1-2-1.25A18.75,18.75,0,0,1,672.9,286a21.26,21.26,0,0,0-3.27-3.4,4,4,0,0,0-2.28-.89,2.54,2.54,0,0,0-1.91.81,2.9,2.9,0,0,0-.77,2.1,3,3,0,0,0,.82,2.19,3.12,3.12,0,0,0,2.28.83l-.2,2a4.81,4.81,0,0,1-3.33-1.51,5.14,5.14,0,0,1-1.14-3.5,4.89,4.89,0,0,1,1.23-3.52,4,4,0,0,1,3.06-1.3,4.68,4.68,0,0,1,1.82.38,6.89,6.89,0,0,1,1.89,1.26,31.25,31.25,0,0,1,2.71,2.92q1.44,1.71,2,2.19a5.94,5.94,0,0,0,1,.8Z"/><path class="cls-9" d="M671,277.66a14,14,0,0,1-4.41-.57,5.42,5.42,0,0,1-2.57-1.67,4.25,4.25,0,0,1-.91-2.8,4.61,4.61,0,0,1,.5-2.18,4.35,4.35,0,0,1,1.44-1.55,8,8,0,0,1,2.3-.95,14.82,14.82,0,0,1,3.65-.35,14,14,0,0,1,4.39.56,5.43,5.43,0,0,1,2.58,1.67,4.7,4.7,0,0,1-.69,6.31Q675.34,277.66,671,277.66Zm0-2c2.54,0,4.22-.3,5.06-.89a2.54,2.54,0,0,0,0-4.39c-.85-.6-2.53-.89-5.06-.89s-4.23.29-5.07.89a2.64,2.64,0,0,0-1.25,2.21,2.44,2.44,0,0,0,1.11,2.09Q667.19,275.71,671,275.71Z"/><path class="cls-9" d="M452.5,164.39V160.7h-6.7V159l7.05-10h1.55v10h2.08v1.74H454.4v3.69Zm0-5.43v-7l-4.84,7Z"/><path class="cls-9" d="M458.42,160.35l2-.17a3.59,3.59,0,0,0,1,2.19,2.8,2.8,0,0,0,1.94.73,3.06,3.06,0,0,0,2.32-1,3.92,3.92,0,0,0,.95-2.74,3.51,3.51,0,0,0-.92-2.56,3.14,3.14,0,0,0-2.38-.94,3.27,3.27,0,0,0-1.65.42,3,3,0,0,0-1.16,1.08l-1.78-.24,1.49-7.93h7.68V151h-6.16l-.83,4.15a5,5,0,0,1,2.91-1,4.63,4.63,0,0,1,3.42,1.41,4.91,4.91,0,0,1,1.39,3.6,5.64,5.64,0,0,1-1.22,3.62,4.91,4.91,0,0,1-4.06,1.88,5,5,0,0,1-3.44-1.18A4.62,4.62,0,0,1,458.42,160.35Z"/><path class="cls-9" d="M480.56,168.93a18.68,18.68,0,0,1-2.65-4.63,14.52,14.52,0,0,1-.28-10.3,20.35,20.35,0,0,1,2.93-5.31h1.36c-.85,1.46-1.41,2.5-1.69,3.13a18.26,18.26,0,0,0-1,3,17.69,17.69,0,0,0-.45,4,19,19,0,0,0,3.15,10.12Z"/><path class="cls-9" d="M490.74,164.39h-1.9V152.31a9.65,9.65,0,0,1-1.8,1.31,13.37,13.37,0,0,1-2,1v-1.84a11.12,11.12,0,0,0,2.78-1.81,7.12,7.12,0,0,0,1.68-2.06h1.23Z"/><path class="cls-9" d="M496.66,164.39v-2.16h2.16v2.16Z"/><path class="cls-9" d="M501.71,151v-1.82h10v1.48a20.61,20.61,0,0,0-2.92,4.17,24.8,24.8,0,0,0-2.24,5.35,20.15,20.15,0,0,0-.73,4.24h-1.95a18.72,18.72,0,0,1,.72-4.4,23,23,0,0,1,2-5,21.69,21.69,0,0,1,2.73-4Z"/><path class="cls-9" d="M513.71,151v-1.82h10v1.48a20.61,20.61,0,0,0-2.93,4.17,25.84,25.84,0,0,0-2.24,5.35,20.16,20.16,0,0,0-.72,4.24h-2a18.72,18.72,0,0,1,.72-4.4,23,23,0,0,1,2-5,21.68,21.68,0,0,1,2.72-4Z"/><path class="cls-9" d="M535.55,162.57v1.82H525.34a3.44,3.44,0,0,1,.22-1.31,7.07,7.07,0,0,1,1.25-2.06,20.17,20.17,0,0,1,2.48-2.34,20.41,20.41,0,0,0,3.4-3.27,3.91,3.91,0,0,0,.89-2.28,2.53,2.53,0,0,0-.81-1.9,3.29,3.29,0,0,0-4.29.05,3.08,3.08,0,0,0-.83,2.27l-1.95-.2a4.78,4.78,0,0,1,1.5-3.32,5.15,5.15,0,0,1,3.51-1.14,4.9,4.9,0,0,1,3.52,1.23,4.06,4.06,0,0,1,1.3,3.06,4.71,4.71,0,0,1-.38,1.82,7.52,7.52,0,0,1-1.26,1.88A30.19,30.19,0,0,1,531,159.6c-1.13,1-1.86,1.6-2.19,1.94a6.53,6.53,0,0,0-.8,1Z"/><path class="cls-9" d="M538.2,154.42l-.53-2.94V149h2.16v2.53l-.47,2.94Zm3.49,0-.52-2.94V149h2.16v2.53l-.5,2.94Z"/><path class="cls-9" d="M547,168.93h-1.36a19,19,0,0,0,3.15-10.12,17.42,17.42,0,0,0-.45-3.93,16.55,16.55,0,0,0-1-3c-.28-.63-.84-1.69-1.7-3.16H547A20.06,20.06,0,0,1,550,154a14.52,14.52,0,0,1-.28,10.3A19.33,19.33,0,0,1,547,168.93Z"/><rect class="cls-4" x="2" y="148.69" width="987" height="502.59"/><path class="cls-9" d="M446.93,633.44H445V621.36a10,10,0,0,1-1.79,1.31,13.43,13.43,0,0,1-2,1v-1.84A11.4,11.4,0,0,0,444,620a7.13,7.13,0,0,0,1.69-2.06h1.22Z"/><path class="cls-9" d="M461.75,631.62v1.82H451.54a3.34,3.34,0,0,1,.23-1.32,6.89,6.89,0,0,1,1.24-2,20.93,20.93,0,0,1,2.48-2.34,20.58,20.58,0,0,0,3.41-3.27,3.89,3.89,0,0,0,.88-2.28,2.56,2.56,0,0,0-.8-1.9,2.9,2.9,0,0,0-2.11-.77,3,3,0,0,0-2.19.82,3.1,3.1,0,0,0-.83,2.27l-2-.2a4.83,4.83,0,0,1,1.51-3.32,5.15,5.15,0,0,1,3.51-1.14,4.88,4.88,0,0,1,3.51,1.23,4,4,0,0,1,1.3,3.05,4.73,4.73,0,0,1-.38,1.83,7,7,0,0,1-1.26,1.88,29.81,29.81,0,0,1-2.92,2.72c-1.14,1-1.87,1.6-2.19,1.94a6,6,0,0,0-.8,1Z"/><path class="cls-9" d="M463.78,629.4l2-.17a3.53,3.53,0,0,0,1,2.18,2.8,2.8,0,0,0,1.95.74,3,3,0,0,0,2.31-1,3.88,3.88,0,0,0,.95-2.73,3.48,3.48,0,0,0-.91-2.56,3.16,3.16,0,0,0-2.39-.94,3.36,3.36,0,0,0-1.65.41,3.27,3.27,0,0,0-1.16,1.08l-1.78-.23,1.5-7.93h7.68V620h-6.17l-.83,4.15a5.08,5.08,0,0,1,2.92-1,4.62,4.62,0,0,1,3.41,1.4,4.91,4.91,0,0,1,1.39,3.61,5.6,5.6,0,0,1-1.22,3.62,4.89,4.89,0,0,1-4.05,1.88,5,5,0,0,1-3.44-1.18A4.63,4.63,0,0,1,463.78,629.4Z"/><path class="cls-9" d="M485.93,638a18.7,18.7,0,0,1-2.66-4.63A14.61,14.61,0,0,1,483,623a19.88,19.88,0,0,1,2.93-5.3h1.35q-1.27,2.19-1.68,3.12a16.43,16.43,0,0,0-1,3,17.7,17.7,0,0,0-.46,4A19,19,0,0,0,487.28,638Z"/><path class="cls-9" d="M495,633.44v-3.7h-6.7V628l7-10h1.55v10H499v1.73h-2.09v3.7Zm0-5.43v-7l-4.84,7Z"/><path class="cls-9" d="M502,633.44v-2.16h2.16v2.16Z"/><path class="cls-9" d="M507.23,629.87l1.83-.17a3.19,3.19,0,0,0,.88,1.87,2.48,2.48,0,0,0,1.68.58,3,3,0,0,0,1.53-.4,3.34,3.34,0,0,0,1.08-1.07,6.37,6.37,0,0,0,.71-1.81,10,10,0,0,0,.28-2.32c0-.08,0-.21,0-.38a4.29,4.29,0,0,1-1.55,1.47,4.21,4.21,0,0,1-2.14.57,4.32,4.32,0,0,1-3.24-1.39,5.08,5.08,0,0,1-1.33-3.67,5.17,5.17,0,0,1,1.39-3.78,4.6,4.6,0,0,1,3.47-1.43,5,5,0,0,1,2.75.81,5.07,5.07,0,0,1,1.9,2.31,11.44,11.44,0,0,1,.64,4.34,14,14,0,0,1-.64,4.72,5.5,5.5,0,0,1-1.91,2.67,5,5,0,0,1-3,.92,4.09,4.09,0,0,1-4.34-3.84Zm7.77-6.81a3.73,3.73,0,0,0-.87-2.6,2.75,2.75,0,0,0-2.09-1,2.87,2.87,0,0,0-2.2,1,3.8,3.8,0,0,0-.94,2.67,3.31,3.31,0,0,0,.89,2.4,2.94,2.94,0,0,0,2.2.92,2.83,2.83,0,0,0,2.16-.92A3.6,3.6,0,0,0,515,623.06Z"/><path class="cls-9" d="M528.91,631.62v1.82h-10.2a3.33,3.33,0,0,1,.22-1.32,6.94,6.94,0,0,1,1.25-2,19.46,19.46,0,0,1,2.48-2.34,20.83,20.83,0,0,0,3.4-3.27,3.89,3.89,0,0,0,.88-2.28,2.56,2.56,0,0,0-.8-1.9,2.89,2.89,0,0,0-2.1-.77,2.93,2.93,0,0,0-2.19.82,3.11,3.11,0,0,0-.84,2.27l-2-.2a4.83,4.83,0,0,1,1.51-3.32,5.15,5.15,0,0,1,3.51-1.14,4.92,4.92,0,0,1,3.52,1.23,4,4,0,0,1,1.29,3.05,4.55,4.55,0,0,1-.38,1.83,7,7,0,0,1-1.26,1.88,29.81,29.81,0,0,1-2.92,2.72c-1.14,1-1.87,1.6-2.19,1.94a6.53,6.53,0,0,0-.8,1Z"/><path class="cls-9" d="M538.09,633.44h-1.9V621.36a10,10,0,0,1-1.79,1.31,13.93,13.93,0,0,1-2,1v-1.84a11.4,11.4,0,0,0,2.78-1.81,7.3,7.3,0,0,0,1.69-2.06h1.22Z"/><path class="cls-9" d="M543.57,623.47l-.53-2.94V618h2.16v2.53l-.48,2.94Zm3.48,0-.51-2.94V618h2.16v2.53l-.51,2.94Z"/><path class="cls-9" d="M552.42,638h-1.36a19,19,0,0,0,3.15-10.12,17.42,17.42,0,0,0-.45-3.93,16.55,16.55,0,0,0-1-3,34.92,34.92,0,0,0-1.7-3.16h1.36a20.17,20.17,0,0,1,2.93,5.3,14.54,14.54,0,0,1-.28,10.31A19.33,19.33,0,0,1,552.42,638Z"/><path class="cls-9" d="M586.29,292.32l-15.83-.95.42-7a9.21,9.21,0,0,1,.62-3.19,3.56,3.56,0,0,1,1.61-1.67,4.51,4.51,0,0,1,2.43-.52,4,4,0,0,1,2.77,1.27,5.5,5.5,0,0,1,1.27,3.45,5.42,5.42,0,0,1,.87-1.21,10.25,10.25,0,0,1,2.21-1.61l4.47-2.5L587,281l-3.42,1.89c-1,.56-1.74,1-2.27,1.38a4.81,4.81,0,0,0-1.12,1,3.35,3.35,0,0,0-.48.94,6.33,6.33,0,0,0-.15,1.16l-.14,2.43,7,.42Zm-8.72-2.63.27-4.51a6.58,6.58,0,0,0-.16-2.26,2.39,2.39,0,0,0-.88-1.29,2.59,2.59,0,0,0-1.39-.51,2.38,2.38,0,0,0-1.9.71,3.89,3.89,0,0,0-.88,2.53l-.3,5Z"/><path class="cls-9" d="M587.58,271l-3.8-.23-.41,6.87-1.78-.11-9.83-7.84.1-1.59,10.26.62.13-2.14,1.78.11-.13,2.13,3.79.23Zm-5.58-.34-7.14-.43,6.84,5.39Z"/><path class="cls-9" d="M580.13,264.44a14.32,14.32,0,0,1-4.49-.85,5.68,5.68,0,0,1-2.54-1.87,4.44,4.44,0,0,1-.75-2.93,4.66,4.66,0,0,1,.65-2.2,4.27,4.27,0,0,1,1.57-1.5,7.85,7.85,0,0,1,2.41-.84,15.47,15.47,0,0,1,3.77-.14,14.7,14.7,0,0,1,4.46.85,5.64,5.64,0,0,1,2.55,1.87,4.83,4.83,0,0,1-1.1,6.43Q584.59,264.72,580.13,264.44Zm.12-2q3.9.24,5.24-.6a2.61,2.61,0,0,0,.27-4.5q-1.25-1-5.13-1.23t-5.25.6a2.69,2.69,0,0,0-1.42,2.2,2.5,2.5,0,0,0,1,2.21Q576.36,262.22,580.25,262.44Z"/><path class="cls-9" d="M580.87,252.16a14.26,14.26,0,0,1-4.49-.85,5.68,5.68,0,0,1-2.54-1.87,4.42,4.42,0,0,1-.75-2.93,4.66,4.66,0,0,1,.64-2.2,4.3,4.3,0,0,1,1.58-1.5,7.85,7.85,0,0,1,2.41-.84,15.05,15.05,0,0,1,3.77-.13,14.55,14.55,0,0,1,4.46.84,5.55,5.55,0,0,1,2.54,1.87A4.81,4.81,0,0,1,587.4,251Q585.33,252.44,580.87,252.16Zm.12-2c2.6.16,4.34,0,5.24-.6a2.61,2.61,0,0,0,.27-4.5q-1.25-1-5.13-1.23t-5.25.6a2.73,2.73,0,0,0-1.43,2.2,2.53,2.53,0,0,0,1,2.21C576.62,249.57,578.39,250,581,250.16Z"/><path class="cls-9" d="M610.22,505v1.9H598.14a9.54,9.54,0,0,1,1.3,1.79,11.72,11.72,0,0,1,1,2h-1.83a11.4,11.4,0,0,0-1.81-2.78,7,7,0,0,0-2.07-1.69V505Z"/><path class="cls-9" d="M610.22,493v1.9H598.14a9.65,9.65,0,0,1,1.3,1.8,11.66,11.66,0,0,1,1,2h-1.83a11.4,11.4,0,0,0-1.81-2.78,7.2,7.2,0,0,0-2.07-1.69V493Z"/><path class="cls-9" d="M545,505.84v1.9H532.93a9.65,9.65,0,0,1,1.3,1.8,12.46,12.46,0,0,1,1,2h-1.83a11.4,11.4,0,0,0-1.81-2.78,7.14,7.14,0,0,0-2.07-1.68v-1.23Z"/><path class="cls-9" d="M545,494.91h-3.7v6.7h-1.74l-10-7.05V493h10v-2.08h1.74V493H545Zm-5.44,0h-7l7,4.83Z"/><path class="cls-9" d="M545,487.93h-2.16v-2.16H545Z"/><path class="cls-9" d="M541,483l-.17-2a3.59,3.59,0,0,0,2.19-1,2.79,2.79,0,0,0,.73-1.94,3,3,0,0,0-1-2.32,3.9,3.9,0,0,0-2.74-.95,3.52,3.52,0,0,0-2.56.91,3.2,3.2,0,0,0-.94,2.39,3.32,3.32,0,0,0,1.5,2.81l-.23,1.78-7.93-1.5v-7.68h1.81v6.17l4.15.83a5,5,0,0,1-1-2.92,4.63,4.63,0,0,1,1.4-3.41,4.87,4.87,0,0,1,3.6-1.39A5.66,5.66,0,0,1,543.4,474a4.89,4.89,0,0,1,1.87,4.06,5,5,0,0,1-1.18,3.44A4.66,4.66,0,0,1,541,483Z"/><path class="cls-8" d="M405.47,314.56,400,299.81l6.54-2.44a9.61,9.61,0,0,1,3.15-.73,3.55,3.55,0,0,1,2.16.79,4.57,4.57,0,0,1,1.45,2,4,4,0,0,1,0,3,5.51,5.51,0,0,1-2.63,2.55,5.19,5.19,0,0,1,1.45.29,11.06,11.06,0,0,1,2.36,1.35l4.06,3.06-2.45.92-3.1-2.34c-.9-.67-1.62-1.18-2.17-1.51a4.62,4.62,0,0,0-1.36-.61,3,3,0,0,0-1-.06,6.49,6.49,0,0,0-1.12.33l-2.26.85,2.45,6.55Zm-1.13-9,4.19-1.57a6.45,6.45,0,0,0,2-1.06,2.35,2.35,0,0,0,.82-1.31,2.63,2.63,0,0,0-.1-1.47,2.37,2.37,0,0,0-1.41-1.44,3.79,3.79,0,0,0-2.65.23l-4.67,1.74Z"/><path class="cls-8" d="M418.09,305.4l1.72-.92a4.2,4.2,0,0,0,1.89,1.82,2.77,2.77,0,0,0,2.08,0,3.21,3.21,0,0,0,1.89-4.21,3,3,0,0,0-1.58-1.76,3.06,3.06,0,0,0-2.38,0,5.48,5.48,0,0,0-1.2.68l-.39-1.67.3-.09a3.88,3.88,0,0,0,1.85-1.38,2.19,2.19,0,0,0,.23-2.2,2.35,2.35,0,0,0-1.29-1.4,2.52,2.52,0,0,0-2,0,2.63,2.63,0,0,0-1.52,1.32,3.62,3.62,0,0,0-.16,2.33l-1.93.35a4.94,4.94,0,0,1,.46-3.38,4.65,4.65,0,0,1,2.55-2.1,5.18,5.18,0,0,1,2.42-.31,4,4,0,0,1,2.08.83,3.88,3.88,0,0,1,1.25,1.7,3.27,3.27,0,0,1,.13,1.93,3.67,3.67,0,0,1-1.05,1.82,3.64,3.64,0,0,1,2.5.49,4.1,4.1,0,0,1,1.62,2.11,4.63,4.63,0,0,1-.19,3.8,5.26,5.26,0,0,1-3.06,2.67,4.91,4.91,0,0,1-3.65.05A4.77,4.77,0,0,1,418.09,305.4Z"/></g><g id="Watermark"><rect class="cls-1" x="438.45" y="301.74" width="123.09" height="46.3"/><rect class="cls-11" x="444.86" y="309.58" width="62.89" height="30.62"/><rect class="cls-11" x="507.75" y="309.58" width="47.39" height="30.62"/><path class="cls-12" d="M466.48,315.68l-2.79,18.92H461l-1.55-11-1.53,11h-2.74l-2.8-18.92h2.51l1.79,14.18,1.79-14.18h2l1.79,14.18L464,315.68Z"/><path class="cls-12" d="M467.93,334.6V315.68h2.53V334.6Z"/><path class="cls-12" d="M472.83,315.68h5q2.9,0,2.9,3.24v4.67c0,1.65-.51,2.69-1.51,3.13L481,334.6h-2.4L476.89,327h-1.53v7.64h-2.53Zm2.53,9.12H477c.76,0,1.14-.46,1.14-1.37v-4.08c0-.92-.38-1.37-1.14-1.37h-1.66Z"/><path class="cls-12" d="M486.82,318V334.6h-2.53V318h-2.42v-2.3h7.38V318Z"/><path class="cls-12" d="M496.34,334.6V326h-3.11v8.59H490.7V315.68h2.53v8h3.11v-8h2.53V334.6Z"/><path class="cls-12" d="M516.31,315.68h5q2.9,0,2.89,3.24v4.67c0,1.65-.5,2.69-1.5,3.13l1.77,7.88H522L520.37,327h-1.53v7.64h-2.53Zm2.53,9.12h1.66c.76,0,1.13-.46,1.13-1.37v-4.08c0-.92-.37-1.37-1.13-1.37h-1.66Z"/><path class="cls-12" d="M528.67,334.6h-2.53V318.92q0-3.24,3-3.24h1.9q3,0,3,3.24V334.6h-2.53v-6.93h-2.9Zm2.9-9.22v-6.3a1,1,0,0,0-1.11-1.1h-.68a1,1,0,0,0-1.11,1.1v6.3Z"/><path class="cls-12" d="M536.34,334.6V315.68h2.53V334.6Z"/><path class="cls-12" d="M547.24,334.6h-6V315.68h2.53v16.63h3.47Z"/></g></svg>