<svg xmlns="http://www.w3.org/2000/svg" viewBox="0 0 1000 800"><defs><style>.cls-1,.cls-10{fill:#f0f0f0;}.cls-2,.cls-3,.cls-4,.cls-5,.cls-6,.cls-9{fill:none;}.cls-2,.cls-3,.cls-5,.cls-6{stroke:#231f20;}.cls-2{stroke-width:2px;}.cls-5{stroke-dasharray:7.82 2.33;}.cls-6{stroke-dasharray:7.91 2.42;}.cls-7{fill:#231f20;}.cls-8{fill:#303030;}.cls-9{stroke:#303030;}.cls-10,.cls-9{stroke-miterlimit:10;}.cls-10{stroke:#ccc;}.cls-11{fill:#ccc;}</style></defs><g id="Flat"><path class="cls-1" d="M897.19,502.45c-16.41-1.73-210.77-18.14-210.77-18.14L608.68,461A29.45,29.45,0,0,1,591.4,436.8c-1.73-18.14,0-61.33,0-61.33s-2.21-19.85,17.28-25.05c3-.81,23.71-6.51,27.1-7.45s19.54-2.92,19.54-25.37V227.76s0-26.78-26.77-30.24c-24.11-3.11-110.85-4.12-127.57-4.29v0l-1.45,0-1.45,0v0c-16.72.17-101.7,1.18-125.8,4.29C345.5,201,345.5,227.76,345.5,227.76V317.6c0,22.45,17.28,24.18,17.28,24.18s9.5,5.18,29.37,8.64,17.27,25.05,17.27,25.05,1.73,43.19,0,61.33A29.45,29.45,0,0,1,392.15,461L314.4,484.31S120,500.72,103.63,502.45,82,524.91,82,524.91v26.78H918.78V524.91s-5.18-20.73-21.59-22.46"/><path class="cls-2" d="M897.19,502.45c-16.41-1.73-210.77-18.14-210.77-18.14L608.68,461A29.45,29.45,0,0,1,591.4,436.8c-1.73-18.14,0-61.33,0-61.33s-2.21-19.85,17.28-25.05c3-.81,23.71-6.51,27.1-7.45s19.54-2.92,19.54-25.37V227.76s0-26.78-26.77-30.24c-24.11-3.11-110.85-4.12-127.57-4.29v0l-1.45,0-1.45,0v0c-16.72.17-101.7,1.18-125.8,4.29C345.5,201,345.5,227.76,345.5,227.76V317.6c0,22.45,17.28,24.18,17.28,24.18s9.5,5.18,29.37,8.64,17.27,25.05,17.27,25.05,1.73,43.19,0,61.33A29.45,29.45,0,0,1,392.15,461L314.4,484.31S120,500.72,103.63,502.45,82,524.91,82,524.91v26.78H918.78V524.91S913.6,504.18,897.19,502.45Z"/><line class="cls-3" x1="456.48" y1="193.92" x2="997" y2="193.87"/><rect class="cls-4" x="35" y="129.08" width="962" height="541.74"/><line class="cls-3" x1="628.72" y1="483.66" x2="686.26" y2="483.66"/><path class="cls-3" d="M918.78,504V670.82M967.3,504.45H917.06l-19.87-2"/><rect class="cls-4" x="35" y="129.08" width="962" height="541.74"/><line class="cls-3" x1="655.2" y1="134.89" x2="655.2" y2="337.67"/><line class="cls-3" x1="590.56" y1="356.15" x2="591.23" y2="457.16"/><line class="cls-3" x1="82.41" y1="551.49" x2="82.41" y2="669.49"/><line class="cls-3" x1="995.9" y1="551.89" x2="53.76" y2="551.94"/><rect class="cls-4" x="35" y="129.08" width="962" height="541.74"/><line class="cls-5" x1="500.51" y1="609.13" x2="500.09" y2="169.26"/><line class="cls-6" x1="737.95" y1="407.42" x2="51.6" y2="407.35"/><line class="cls-3" x1="345.14" y1="134.89" x2="345.14" y2="230.1"/><line class="cls-3" x1="686.21" y1="483.87" x2="686.21" y2="609.13"/><line class="cls-3" x1="590.27" y1="356.24" x2="756.77" y2="356.24"/><line class="cls-3" x1="655.2" y1="337.19" x2="691.81" y2="337.05"/><line class="cls-3" x1="655.61" y1="337.19" x2="590.27" y2="356.24"/><line class="cls-3" x1="684.88" y1="483.78" x2="591.97" y2="457.25"/><line class="cls-3" x1="563.12" y1="457.16" x2="591.97" y2="457.16"/><path class="cls-7" d="M511.9,188.17v-5.49l-5-7.48H509l2.57,3.92c.47.74.91,1.46,1.33,2.19.39-.68.87-1.45,1.44-2.29l2.51-3.82h2l-5.18,7.48v5.49Z"/><path class="cls-7" d="M511.63,571.68v-5.5l-5-7.48h2.07l2.57,3.93c.46.73.91,1.46,1.32,2.18.4-.68.88-1.44,1.45-2.28l2.51-3.83h2l-5.18,7.48v5.5Z"/><rect class="cls-4" x="35" y="129.08" width="962" height="541.74"/><path class="cls-8" d="M467.74,646.27h0l-1.88,1-.28-1.12,2.35-1.26h1.25V655.7h-1.41Z"/><path class="cls-8" d="M480.09,644.91v1l-4.7,9.83h-1.51l4.68-9.54v0h-5.28v-1.21Z"/><path class="cls-8" d="M488,646.14h-4.12l-.41,2.77a6.37,6.37,0,0,1,.88-.06,4.52,4.52,0,0,1,2.32.58,3.07,3.07,0,0,1,1.55,2.77,3.74,3.74,0,0,1-4,3.68,5.29,5.29,0,0,1-2.69-.66l.36-1.11a4.91,4.91,0,0,0,2.31.6,2.38,2.38,0,0,0,2.56-2.34c0-1.4-.95-2.4-3.11-2.4a11.06,11.06,0,0,0-1.49.12l.7-5.18H488Z"/><path class="cls-8" d="M497.27,644.18a11,11,0,0,0-2.09,6.79,11.17,11.17,0,0,0,2.09,6.74h-1.15A10.77,10.77,0,0,1,494,651a11,11,0,0,1,2.17-6.79Z"/><path class="cls-8" d="M504.51,645.94a4.91,4.91,0,0,0-1.1.07,4.39,4.39,0,0,0-3.75,3.83h0a3.29,3.29,0,0,1,5.86,2.24,3.61,3.61,0,0,1-3.59,3.8c-2.3,0-3.81-1.79-3.81-4.59a6.79,6.79,0,0,1,1.82-4.87,5.84,5.84,0,0,1,3.45-1.59,6.63,6.63,0,0,1,1.07-.08Zm-.42,6.23a2.19,2.19,0,0,0-2.22-2.48,2.39,2.39,0,0,0-2.09,1.33,1.25,1.25,0,0,0-.17.65c0,1.77.85,3.09,2.37,3.09C503.25,654.76,504.09,653.71,504.09,652.17Z"/><path class="cls-8" d="M507,654.84a1,1,0,1,1,1,1A1,1,0,0,1,507,654.84Z"/><path class="cls-8" d="M510.17,653a3.09,3.09,0,0,1,2.14-2.89l0-.05a2.67,2.67,0,0,1-1.71-2.42c0-1.71,1.45-2.87,3.34-2.87,2.09,0,3.14,1.31,3.14,2.65a2.74,2.74,0,0,1-1.78,2.53V650a3,3,0,0,1,2.17,2.79c0,1.87-1.61,3.13-3.66,3.13C511.53,655.88,510.17,654.54,510.17,653Zm5.81-.06c0-1.32-.92-1.95-2.38-2.36a2.33,2.33,0,0,0-1.94,2.22,2,2,0,0,0,2.16,2.06A2,2,0,0,0,516,652.9Zm-4-5.4c0,1.08.81,1.66,2.06,2a2.12,2.12,0,0,0,1.64-2,1.68,1.68,0,0,0-1.83-1.76A1.71,1.71,0,0,0,512,647.5Z"/><path class="cls-8" d="M519.66,654.67a5.59,5.59,0,0,0,1.18,0,4,4,0,0,0,2.26-1,4.79,4.79,0,0,0,1.43-2.87h0a3.18,3.18,0,0,1-2.54,1.16,3.12,3.12,0,0,1-3.19-3.31,3.7,3.7,0,0,1,3.68-3.83c2.21,0,3.57,1.79,3.57,4.55a6.79,6.79,0,0,1-1.86,5.06,5.45,5.45,0,0,1-3.13,1.45,7.68,7.68,0,0,1-1.35.08Zm.53-6.21a2.08,2.08,0,0,0,2.08,2.29,2.41,2.41,0,0,0,2.12-1.12.94.94,0,0,0,.14-.54c0-1.84-.69-3.25-2.21-3.25C521.07,645.84,520.19,646.94,520.19,648.46Z"/><path class="cls-8" d="M534.5,650.19c0,3.67-1.36,5.69-3.75,5.69-2.11,0-3.54-2-3.57-5.54s1.56-5.61,3.75-5.61S534.5,646.75,534.5,650.19Zm-5.86.17c0,2.8.86,4.4,2.19,4.4,1.5,0,2.21-1.75,2.21-4.5s-.68-4.4-2.19-4.4C529.57,645.86,528.64,647.42,528.64,650.36Z"/><path class="cls-8" d="M537.39,644.33l-.28,4h-.9l-.26-4Zm2.47,0-.28,4h-.88l-.28-4Z"/><path class="cls-8" d="M541,657.71a11.21,11.21,0,0,0,2.09-6.79,11,11,0,0,0-2.09-6.74h1.13a10.6,10.6,0,0,1,2.17,6.76,10.79,10.79,0,0,1-2.17,6.77Z"/><line class="cls-9" x1="97.04" y1="661.94" x2="904.73" y2="661.94"/><polygon class="cls-8" points="97.98 665.9 83.03 661.77 97.98 657.64 97.98 665.9"/><polygon class="cls-8" points="902.69 665.9 917.63 661.77 902.69 657.64 902.69 665.9"/><line class="cls-9" x1="511.64" y1="600.83" x2="675.45" y2="600.83"/><polygon class="cls-8" points="515.88 604.79 500.94 600.66 515.88 596.53 515.88 604.79"/><polygon class="cls-8" points="671.26 604.79 686.21 600.66 671.26 596.53 671.26 604.79"/><path class="cls-8" d="M623.62,522.46v0l1,1.87-1.11.29-1.27-2.36V521h10.8v1.42Z"/><path class="cls-8" d="M633.05,512.59h-2.94v5h-1l-6.89-4.82v-1.57H629v-1.51h1.15v1.51h2.94Zm-4.09,0h-3.6c-.57,0-1.13,0-1.69-.05v.05c.63.34,1.09.6,1.59.9l3.67,2.64h0Z"/><line class="cls-9" x1="638.29" y1="491.14" x2="638.29" y2="540.77"/><polygon class="cls-8" points="634.34 498.62 638.47 483.67 642.6 498.62 634.34 498.62"/><polygon class="cls-8" points="634.34 536.17 638.47 551.12 642.6 536.17 634.34 536.17"/><path class="cls-8" d="M562.63,511.43h-.9l-1.11-1.15c-2.62-2.76-4-4-5.65-4a1.92,1.92,0,0,0-2.1,2.14,3.68,3.68,0,0,0,.91,2.3l-1,.46a4.75,4.75,0,0,1-1.1-3.05,3,3,0,0,1,3.14-3.31c2,0,3.6,1.45,5.79,3.72l.8.86h0v-4.84h1.21Z"/><path class="cls-8" d="M557.12,495.74c3.66,0,5.69,1.36,5.69,3.75,0,2.11-2,3.54-5.55,3.57s-5.61-1.56-5.61-3.75S553.68,495.74,557.12,495.74Zm.16,5.86c2.81,0,4.4-.86,4.4-2.19,0-1.5-1.74-2.21-4.5-2.21s-4.4.68-4.4,2.19C552.78,500.67,554.34,501.6,557.28,501.6Z"/><line class="cls-9" x1="567.88" y1="466.53" x2="567.88" y2="540.77"/><polygon class="cls-8" points="563.92 472.19 568.05 457.25 572.18 472.19 563.92 472.19"/><polygon class="cls-8" points="563.92 536.17 568.05 551.12 572.18 536.17 563.92 536.17"/><path class="cls-8" d="M455.78,463.5a15.56,15.56,0,0,1,2.37,1.47,4.55,4.55,0,0,1,2.05,2.66,2.75,2.75,0,0,1-.56,2.23,2.93,2.93,0,0,1-3.39,1l0,0a2.79,2.79,0,0,1,0,2.79,17.7,17.7,0,0,0-1.14,3l-1.2-.89a14.22,14.22,0,0,1,1-2.59c.65-1.44.52-2.26-.5-3.08l-1.1-.81-2.88,3.89-1.16-.86Zm-1.87,5,1.18.88c1.24.92,2.53.82,3.3-.21s.39-2.29-.83-3.21a6.06,6.06,0,0,0-1.22-.74Z"/><path class="cls-8" d="M466.73,473.21a5.88,5.88,0,0,0-.92-.6,4.38,4.38,0,0,0-5.3.85l0,0a3.29,3.29,0,0,1,3.37,5.29,3.6,3.6,0,0,1-5.14.92c-1.85-1.38-2-3.72-.33-6a6.76,6.76,0,0,1,4.36-2.82,6,6,0,0,1,3.73.77,7.66,7.66,0,0,1,.9.57Zm-4,4.75a2.19,2.19,0,0,0-.32-3.31,2.41,2.41,0,0,0-2.47-.18,1.27,1.27,0,0,0-.52.43c-1,1.44-1.16,3,.07,3.89C460.46,479.54,461.77,479.21,462.69,478Z"/><line class="cls-9" x1="414.35" y1="458.79" x2="470.03" y2="497.54"/><polygon class="cls-8" points="413.7 463.15 403.79 451.23 418.42 456.37 413.7 463.15"/><path class="cls-8" d="M405.6,219.22a14.69,14.69,0,0,1,2.37,1.46,4.61,4.61,0,0,1,2.06,2.66,2.82,2.82,0,0,1-.56,2.23,2.93,2.93,0,0,1-3.4,1l0,0a2.79,2.79,0,0,1,0,2.8,18.32,18.32,0,0,0-1.14,3l-1.2-.89a15.45,15.45,0,0,1,1-2.6c.65-1.43.51-2.26-.51-3.08l-1.09-.81-2.89,3.9-1.16-.86Zm-1.87,4.95,1.19.88c1.24.92,2.53.82,3.29-.2s.39-2.29-.82-3.21a6,6,0,0,0-1.23-.75Z"/><path class="cls-8" d="M416.55,228.92a5.44,5.44,0,0,0-.92-.6,4.4,4.4,0,0,0-5.3.85l.05,0a3.29,3.29,0,0,1,3.37,5.29,3.62,3.62,0,0,1-5.15.92c-1.85-1.37-2-3.71-.33-6a6.78,6.78,0,0,1,4.37-2.82,5.87,5.87,0,0,1,3.72.78,7,7,0,0,1,.9.56Zm-4,4.76a2.19,2.19,0,0,0-.31-3.31,2.39,2.39,0,0,0-2.47-.18,1.24,1.24,0,0,0-.52.42c-1,1.45-1.16,3,.07,3.89C410.29,235.25,411.59,234.92,412.51,233.68Z"/><line class="cls-9" x1="364.18" y1="214.51" x2="419.85" y2="253.25"/><polygon class="cls-8" points="363.52 218.87 353.61 206.94 368.24 212.09 363.52 218.87"/><path class="cls-8" d="M378.6,289.31a15.13,15.13,0,0,1,2.13-1.78,4.55,4.55,0,0,1,3.18-1.11,2.78,2.78,0,0,1,1.94,1.23,2.93,2.93,0,0,1-.09,3.55l0,0a2.78,2.78,0,0,1,2.65.9,17.71,17.71,0,0,0,2.47,2l-1.22.86a14.74,14.74,0,0,1-2.15-1.75c-1.16-1.08-2-1.21-3.09-.49l-1.11.78,2.79,4-1.18.83Zm4.11,3.34,1.21-.85c1.26-.88,1.58-2.14.84-3.19s-2.05-1.09-3.31-.23a5.74,5.74,0,0,0-1.09.93Z"/><path class="cls-8" d="M391.61,282l-3.37,2.37,1.25,2.5a7,7,0,0,1,.68-.56,4.7,4.7,0,0,1,2.24-.86,3.1,3.1,0,0,1,2.86,1.38,3.76,3.76,0,0,1-1.17,5.33,5.19,5.19,0,0,1-2.58,1l-.34-1.12a4.75,4.75,0,0,0,2.23-.84,2.37,2.37,0,0,0,.74-3.38c-.81-1.13-2.15-1.41-3.91-.17a11.45,11.45,0,0,0-1.16.95l-2.41-4.64,4.23-3Z"/><line class="cls-9" x1="361.16" y1="327" x2="415.46" y2="286.34"/><polygon class="cls-8" points="365.1 328.99 350.66 334.65 360.14 322.38 365.1 328.99"/><path class="cls-8" d="M432.76,311.64a15.85,15.85,0,0,1,2.13-1.79,4.6,4.6,0,0,1,3.18-1.11A2.78,2.78,0,0,1,440,310a3,3,0,0,1-.08,3.55l0,0a2.79,2.79,0,0,1,2.64.9,17.29,17.29,0,0,0,2.47,2l-1.22.86a15.09,15.09,0,0,1-2.15-1.76c-1.16-1.07-2-1.2-3.08-.49l-1.12.78,2.79,4-1.18.83Zm4.11,3.34,1.21-.85c1.26-.89,1.58-2.15.84-3.19s-2.05-1.1-3.3-.23a5.58,5.58,0,0,0-1.1.93Z"/><path class="cls-8" d="M445.76,304.3l-3.36,2.37,1.25,2.5a7,7,0,0,1,.68-.56,4.66,4.66,0,0,1,2.24-.86,3.1,3.1,0,0,1,2.86,1.38,3.76,3.76,0,0,1-1.17,5.33,5.23,5.23,0,0,1-2.58,1l-.34-1.12a4.75,4.75,0,0,0,2.23-.84,2.38,2.38,0,0,0,.74-3.38c-.81-1.13-2.15-1.41-3.91-.17a11.45,11.45,0,0,0-1.16.95l-2.41-4.64,4.23-3Z"/><line class="cls-9" x1="415.32" y1="349.32" x2="469.62" y2="308.67"/><polygon class="cls-8" points="419.26 351.32 404.82 356.97 414.31 344.7 419.26 351.32"/><path class="cls-8" d="M547.72,264.19a14.6,14.6,0,0,1-.07-2.78,4.59,4.59,0,0,1,1.09-3.18,2.77,2.77,0,0,1,2.17-.76,3,3,0,0,1,2.74,2.27h.05a2.78,2.78,0,0,1,2.34-1.51,18.08,18.08,0,0,0,3.12-.69l-.09,1.49a14.08,14.08,0,0,1-2.71.6c-1.56.24-2.17.8-2.3,2.11L554,263.1l4.84.28-.09,1.44Zm5.17-1.15.09-1.48c.08-1.54-.71-2.57-2-2.64-1.44-.08-2.13.93-2.24,2.45a6.05,6.05,0,0,0,0,1.43Z"/><path class="cls-8" d="M559.48,251.89l-2.93-.17-.29,5-1-.06-6.6-5.2.09-1.57,6.69.38.09-1.51,1.14.07-.08,1.51,2.93.16Zm-4.07-.23-3.6-.21c-.56,0-1.13-.08-1.69-.14v0c.61.37,1.06.66,1.54,1l3.51,2.85h0Z"/><path class="cls-8" d="M554.61,240.4c3.67.21,5.61,1.69,5.47,4.07-.12,2.11-2.17,3.42-5.73,3.25s-5.52-1.87-5.39-4.06S551.18,240.21,554.61,240.4Zm-.16,5.86c2.8.16,4.44-.61,4.51-1.93.09-1.49-1.61-2.31-4.36-2.46s-4.43.43-4.52,1.93C550,245.08,551.51,246.1,554.45,246.26Z"/><path class="cls-8" d="M555.1,231.88c3.66.21,5.61,1.69,5.47,4.07-.12,2.11-2.17,3.42-5.74,3.25s-5.51-1.88-5.38-4.06S551.67,231.69,555.1,231.88Zm-.17,5.86c2.8.16,4.45-.61,4.52-1.93.09-1.5-1.61-2.31-4.37-2.46s-4.43.42-4.51,1.93C550.49,236.56,552,237.58,554.93,237.74Z"/><line class="cls-9" x1="568.43" y1="206.91" x2="566.59" y2="274.71"/><polygon class="cls-8" points="564.42 208.75 568.96 193.92 572.68 208.97 564.42 208.75"/><path class="cls-8" d="M54.8,491.63a4.93,4.93,0,0,0,.68-2.39c0-1.87-1.2-2.45-2.09-2.44-1.51,0-2.16,1.38-2.16,2.79v.81h-1.1v-.81c0-1.06-.55-2.41-1.82-2.41-.87,0-1.63.55-1.63,1.9a4,4,0,0,0,.71,2.15l-1.06.39a5.19,5.19,0,0,1-.83-2.83c0-2.12,1.26-3.08,2.57-3.08a2.67,2.67,0,0,1,2.54,2h0a2.81,2.81,0,0,1,2.77-2.41c1.73,0,3.24,1.35,3.24,3.94a5.45,5.45,0,0,1-.73,2.8Z"/><path class="cls-8" d="M51,476.29c3.67,0,5.7,1.37,5.7,3.76,0,2.1-2,3.53-5.55,3.57s-5.61-1.57-5.61-3.76S47.53,476.29,51,476.29Zm.17,5.86c2.8,0,4.4-.86,4.4-2.19,0-1.49-1.74-2.21-4.5-2.21s-4.4.69-4.4,2.2C46.63,481.22,48.19,482.15,51.13,482.15Z"/><path class="cls-8" d="M55.61,474.83a1,1,0,1,1,1-1A1,1,0,0,1,55.61,474.83Z"/><path class="cls-8" d="M54.8,471.19a4.93,4.93,0,0,0,.68-2.39c0-1.88-1.2-2.46-2.09-2.44-1.51,0-2.16,1.38-2.16,2.79V470h-1.1v-.81c0-1.06-.54-2.41-1.82-2.41-.87,0-1.63.55-1.63,1.89a4,4,0,0,0,.71,2.16l-1.06.38a5.16,5.16,0,0,1-.83-2.82c0-2.12,1.26-3.09,2.58-3.09a2.69,2.69,0,0,1,2.54,2h0a2.81,2.81,0,0,1,2.77-2.41c1.73,0,3.24,1.34,3.24,3.93a5.46,5.46,0,0,1-.73,2.81Z"/><line class="cls-9" x1="62.95" y1="409.86" x2="62.95" y2="537.41"/><polygon class="cls-8" points="58.99 422.3 63.12 407.35 67.25 422.3 58.99 422.3"/><polygon class="cls-8" points="58.99 537.41 63.12 552.36 67.25 537.41 58.99 537.41"/><path class="cls-7" d="M744.74,414.92l5-6.83-4.48-6.32h2.07l2.42,3.39c.5.7.85,1.22,1,1.56.31-.47.66-1,1.07-1.48l2.57-3.47h1.91L751.84,408l4.93,6.9h-2.14l-3.31-4.67-.56-.79c-.27.41-.47.7-.6.88l-3.33,4.58Z"/><path class="cls-7" d="M35,414.92l5.06-6.83-4.48-6.32h2.07l2.41,3.39q.75,1.05,1,1.56c.3-.47.66-1,1.06-1.48l2.57-3.47h1.92L42.11,408l4.92,6.9H44.89l-3.3-4.67-.56-.79c-.27.41-.47.7-.6.88l-3.34,4.58Z"/><rect class="cls-4" x="35" y="129.08" width="962" height="541.74"/><line class="cls-9" x1="745.11" y1="195.05" x2="745.11" y2="346.54"/><polygon class="cls-8" points="741.15 208.15 745.28 193.21 749.41 208.15 741.15 208.15"/><polygon class="cls-8" points="741.15 341.54 745.28 356.49 749.41 341.54 741.15 341.54"/><path class="cls-8" d="M736.58,284.51a4.86,4.86,0,0,0,.68-2.39c0-1.88-1.19-2.46-2.09-2.44-1.51,0-2.16,1.37-2.16,2.78v.82h-1.09v-.82c0-1.06-.55-2.4-1.83-2.4-.86,0-1.63.54-1.63,1.89a4,4,0,0,0,.72,2.16l-1.06.38a5.07,5.07,0,0,1-.83-2.82c0-2.13,1.26-3.09,2.57-3.09a2.68,2.68,0,0,1,2.54,2h0a2.81,2.81,0,0,1,2.77-2.41c1.73,0,3.24,1.35,3.24,3.94a5.45,5.45,0,0,1-.73,2.8Z"/><path class="cls-8" d="M738.26,271.82h-2.94v5h-1L727.47,272v-1.57h6.7v-1.51h1.15v1.51h2.94Zm-4.09,0h-3.6c-.56,0-1.13,0-1.69-.05v.05c.63.34,1.09.6,1.59.9l3.67,2.64h0Z"/><path class="cls-8" d="M677.74,269.69a4.93,4.93,0,0,0,.68-2.39c0-1.88-1.2-2.46-2.09-2.44-1.52,0-2.16,1.38-2.16,2.79v.81h-1.1v-.81c0-1.06-.55-2.41-1.82-2.41-.87,0-1.63.55-1.63,1.89a4,4,0,0,0,.71,2.16l-1.06.38a5.07,5.07,0,0,1-.83-2.82c0-2.12,1.26-3.09,2.57-3.09a2.69,2.69,0,0,1,2.54,2h0a2.81,2.81,0,0,1,2.77-2.41c1.72,0,3.24,1.34,3.24,3.93a5.56,5.56,0,0,1-.73,2.81Z"/><path class="cls-8" d="M673.9,254.35c3.67,0,5.7,1.36,5.7,3.75,0,2.11-2,3.54-5.55,3.57s-5.61-1.56-5.61-3.75S670.46,254.35,673.9,254.35Zm.17,5.86c2.8,0,4.4-.86,4.4-2.19,0-1.49-1.75-2.21-4.5-2.21s-4.4.68-4.4,2.19C669.57,259.28,671.13,260.21,674.07,260.21Z"/><line class="cls-9" x1="683.68" y1="195.05" x2="683.68" y2="325.05"/><polygon class="cls-8" points="679.72 208.92 683.85 193.97 687.98 208.92 679.72 208.92"/><polygon class="cls-8" points="679.72 321.86 683.85 336.81 687.98 321.86 679.72 321.86"/><path class="cls-8" d="M970.56,389.2h1l9.82,4.7v1.51l-9.54-4.68h0V396h-1.22Z"/><path class="cls-8" d="M971.79,381.25v4.12l2.77.41a6.37,6.37,0,0,1-.06-.88,4.52,4.52,0,0,1,.58-2.32,3.07,3.07,0,0,1,2.77-1.55,3.75,3.75,0,0,1,3.69,4,5.18,5.18,0,0,1-.67,2.69l-1.11-.37a4.72,4.72,0,0,0,.6-2.3,2.38,2.38,0,0,0-2.34-2.56c-1.4,0-2.39.95-2.39,3.1a11.31,11.31,0,0,0,.11,1.5l-5.18-.7v-5.16Z"/><path class="cls-8" d="M969.83,372a11,11,0,0,0,6.79,2.09,11.17,11.17,0,0,0,6.74-2.09v1.15a10.74,10.74,0,0,1-6.74,2.17,11,11,0,0,1-6.79-2.17Z"/><path class="cls-8" d="M981.35,370.94h-.89l-1.11-1.14c-2.63-2.76-4-4-5.65-4a1.93,1.93,0,0,0-2.11,2.14,3.65,3.65,0,0,0,.92,2.29l-1,.47a4.75,4.75,0,0,1-1.1-3.06,3,3,0,0,1,3.14-3.3c2,0,3.6,1.44,5.79,3.72l.8.86h0v-4.85h1.21Z"/><path class="cls-8" d="M980.49,362.31a1,1,0,0,1-1-1,1,1,0,0,1,1-1,1,1,0,1,1,0,2Z"/><path class="cls-8" d="M980.33,358.14a6.38,6.38,0,0,0-.05-1.18,4.09,4.09,0,0,0-1-2.25,4.71,4.71,0,0,0-2.87-1.43v.05a3.17,3.17,0,0,1,1.16,2.54,3.13,3.13,0,0,1-3.3,3.19,3.7,3.7,0,0,1-3.84-3.69c0-2.21,1.79-3.57,4.55-3.57a6.83,6.83,0,0,1,5.06,1.86,5.42,5.42,0,0,1,1.45,3.14,6.69,6.69,0,0,1,.08,1.34Zm-6.21-.53a2.07,2.07,0,0,0,2.29-2.07,2.42,2.42,0,0,0-1.13-2.13,1,1,0,0,0-.53-.13c-1.85,0-3.26.68-3.26,2.21C971.49,356.73,972.59,357.61,974.12,357.61Z"/><path class="cls-8" d="M971.79,344v4.12l2.77.41a6.2,6.2,0,0,1-.06-.87,4.53,4.53,0,0,1,.58-2.33,3.06,3.06,0,0,1,2.77-1.54,3.74,3.74,0,0,1,3.69,4,5.18,5.18,0,0,1-.67,2.69l-1.11-.36a4.79,4.79,0,0,0,.6-2.31,2.38,2.38,0,0,0-2.34-2.56c-1.4,0-2.39.95-2.39,3.11a11.28,11.28,0,0,0,.11,1.49l-5.18-.69V344Z"/><path class="cls-8" d="M979.68,341.61a5,5,0,0,0,.68-2.39c0-1.88-1.2-2.46-2.09-2.44-1.51,0-2.16,1.38-2.16,2.79v.81H975v-.81c0-1.06-.55-2.41-1.82-2.41-.87,0-1.63.55-1.63,1.89a4,4,0,0,0,.71,2.16l-1.06.38a5.16,5.16,0,0,1-.83-2.82c0-2.12,1.26-3.09,2.57-3.09a2.68,2.68,0,0,1,2.54,2h0a2.81,2.81,0,0,1,2.77-2.41c1.73,0,3.24,1.34,3.24,3.93a5.49,5.49,0,0,1-.73,2.81Z"/><path class="cls-8" d="M970,329.43l4,.28v.88l-4,.28Zm0,2.47,4,.28v.9l-4,.26Z"/><path class="cls-8" d="M983.36,328.31a11.21,11.21,0,0,0-6.79-2.09,11.06,11.06,0,0,0-6.74,2.09v-1.13a10.62,10.62,0,0,1,6.76-2.17,10.79,10.79,0,0,1,6.77,2.17Z"/><line class="cls-9" x1="987.83" y1="208.87" x2="987.83" y2="540.92"/><polygon class="cls-8" points="983.87 208.87 988 193.92 992.14 208.87 983.87 208.87"/><polygon class="cls-8" points="983.87 537.98 988 552.93 992.14 537.98 983.87 537.98"/><path class="cls-3" d="M944.26,596.54V557.76m.34,35.07V554.05m-.46-105.38V495m0,9.45,0,47.76"/><polygon class="cls-8" points="940.01 489.51 944.14 504.45 948.27 489.51 940.01 489.51"/><polygon class="cls-8" points="948.27 567.16 944.14 552.21 940.01 567.16 948.27 567.16"/><path class="cls-8" d="M929.27,533.49v0l1,1.87-1.11.29-1.26-2.36v-1.25H938.7v1.42Z"/><path class="cls-8" d="M933.19,521c3.67,0,5.69,1.36,5.69,3.75,0,2.11-2,3.54-5.54,3.57s-5.61-1.56-5.61-3.75S929.75,521,933.19,521Zm.16,5.86c2.81,0,4.4-.86,4.4-2.19,0-1.5-1.74-2.21-4.5-2.21s-4.39.68-4.39,2.19C928.86,525.9,930.42,526.83,933.35,526.83Z"/><path class="cls-8" d="M458.21,387.34a4.93,4.93,0,0,0,2.39.68c1.88,0,2.46-1.2,2.44-2.09,0-1.51-1.38-2.16-2.79-2.16h-.81v-1.1h.81c1.06,0,2.41-.54,2.41-1.82,0-.87-.55-1.63-1.89-1.63a3.87,3.87,0,0,0-2.16.72l-.38-1.07a5.16,5.16,0,0,1,2.82-.83c2.12,0,3.09,1.26,3.09,2.58a2.69,2.69,0,0,1-2,2.54v0a2.81,2.81,0,0,1,2.41,2.77c0,1.73-1.34,3.24-3.93,3.24a5.46,5.46,0,0,1-2.81-.73Z"/><path class="cls-8" d="M466.24,386.28a3.09,3.09,0,0,1,2.14-2.89v-.05a2.68,2.68,0,0,1-1.71-2.43c0-1.71,1.44-2.87,3.34-2.87,2.09,0,3.13,1.31,3.13,2.66a2.74,2.74,0,0,1-1.77,2.52v0a3,3,0,0,1,2.17,2.79c0,1.88-1.61,3.14-3.67,3.14C467.6,389.2,466.24,387.85,466.24,386.28Zm5.81-.07c0-1.31-.91-1.94-2.37-2.36a2.35,2.35,0,0,0-1.94,2.23,2,2,0,0,0,2.16,2.06A2,2,0,0,0,472.05,386.21Zm-4-5.4c0,1.08.81,1.67,2,2a2.14,2.14,0,0,0,1.65-2,1.68,1.68,0,0,0-1.83-1.76A1.71,1.71,0,0,0,468,380.81Z"/><path class="cls-8" d="M482.05,377.49a10.92,10.92,0,0,0-2.1,6.79,11.17,11.17,0,0,0,2.1,6.74H480.9a10.68,10.68,0,0,1-2.17-6.74,10.91,10.91,0,0,1,2.17-6.79Z"/><path class="cls-8" d="M486.3,379.59h0l-1.87,1-.29-1.11,2.36-1.26h1.25V389H486.3Z"/><path class="cls-8" d="M491.76,388.15a1,1,0,1,1,1,1.05A1,1,0,0,1,491.76,388.15Z"/><path class="cls-8" d="M499.59,389v-2.94h-5v-1l4.81-6.88H501v6.7h1.51v1.15H501V389Zm0-4.09v-3.6c0-.56,0-1.13.05-1.69h-.05c-.33.63-.6,1.09-.89,1.59l-2.64,3.67v0Z"/><path class="cls-8" d="M504.44,388a6.38,6.38,0,0,0,1.18-.05,4.16,4.16,0,0,0,2.26-1.05A4.75,4.75,0,0,0,509.3,384h-.05a3.15,3.15,0,0,1-2.54,1.16,3.12,3.12,0,0,1-3.18-3.3,3.7,3.7,0,0,1,3.68-3.84c2.21,0,3.57,1.8,3.57,4.55a6.79,6.79,0,0,1-1.86,5.06,5.33,5.33,0,0,1-3.14,1.45,6.69,6.69,0,0,1-1.34.08Zm.53-6.21a2.07,2.07,0,0,0,2.07,2.29,2.42,2.42,0,0,0,2.13-1.13,1,1,0,0,0,.13-.53c0-1.84-.68-3.26-2.21-3.26C505.85,379.15,505,380.25,505,381.78Z"/><path class="cls-8" d="M518.27,379.25a5.58,5.58,0,0,0-1.1.07,4.39,4.39,0,0,0-3.75,3.84h.05a3.29,3.29,0,0,1,5.86,2.24,3.61,3.61,0,0,1-3.59,3.8c-2.3,0-3.82-1.79-3.82-4.6a6.79,6.79,0,0,1,1.83-4.86,5.91,5.91,0,0,1,3.45-1.6,8,8,0,0,1,1.07-.08Zm-.42,6.23a2.19,2.19,0,0,0-2.22-2.47,2.38,2.38,0,0,0-2.09,1.32,1.28,1.28,0,0,0-.17.65c0,1.78.85,3.09,2.37,3.09C517,388.07,517.85,387,517.85,385.48Z"/><path class="cls-8" d="M522.17,377.64l-.29,4H521l-.27-4Zm2.47,0-.28,4h-.88l-.28-4Z"/><path class="cls-8" d="M525.75,391a11.22,11.22,0,0,0,2.1-6.79,11,11,0,0,0-2.1-6.74h1.13a10.56,10.56,0,0,1,2.18,6.76,10.7,10.7,0,0,1-2.18,6.77Z"/><line class="cls-9" x1="422.38" y1="395.12" x2="579.5" y2="395.12"/><polygon class="cls-8" points="425.03 399.08 410.08 394.95 425.03 390.81 425.03 399.08"/><polygon class="cls-8" points="576.02 399.08 590.97 394.95 576.02 390.81 576.02 399.08"/><path class="cls-8" d="M477.83,130.83a5.44,5.44,0,0,0-1.09.07,4.4,4.4,0,0,0-3.76,3.84h0a3.24,3.24,0,0,1,2.61-1.25,3.2,3.2,0,0,1,3.25,3.49,3.61,3.61,0,0,1-3.58,3.8c-2.31,0-3.82-1.79-3.82-4.6a6.75,6.75,0,0,1,1.83-4.86,5.88,5.88,0,0,1,3.45-1.6,7.9,7.9,0,0,1,1.06-.08Zm-.41,6.23a2.19,2.19,0,0,0-2.23-2.47,2.39,2.39,0,0,0-2.09,1.33,1.21,1.21,0,0,0-.17.64c0,1.78.85,3.09,2.38,3.09C476.57,139.65,477.42,138.6,477.42,137.06Z"/><path class="cls-8" d="M486.63,131h-4.12l-.41,2.78a5,5,0,0,1,.88-.07,4.52,4.52,0,0,1,2.32.58,3.07,3.07,0,0,1,1.55,2.77,3.75,3.75,0,0,1-4,3.69,5.29,5.29,0,0,1-2.69-.66l.36-1.12a4.79,4.79,0,0,0,2.31.6,2.38,2.38,0,0,0,2.56-2.34c0-1.39-.95-2.39-3.11-2.39a11.06,11.06,0,0,0-1.49.12l.7-5.18h5.16Z"/><path class="cls-8" d="M495.86,129.08a10.93,10.93,0,0,0-2.09,6.79,11.19,11.19,0,0,0,2.09,6.74h-1.15a10.79,10.79,0,0,1-2.17-6.74,10.92,10.92,0,0,1,2.17-6.79Z"/><path class="cls-8" d="M496.94,140.6v-.9l1.14-1.11c2.76-2.63,4-4,4-5.65a1.93,1.93,0,0,0-2.14-2.11,3.65,3.65,0,0,0-2.29.92l-.47-1a4.75,4.75,0,0,1,3.06-1.1,3,3,0,0,1,3.3,3.14c0,2-1.44,3.6-3.72,5.79l-.86.8v0h4.85v1.22Z"/><path class="cls-8" d="M505.57,139.73a1,1,0,0,1,1-1,1,1,0,0,1,1,1,1,1,0,1,1-2,0Z"/><path class="cls-8" d="M515.33,131h-4.12l-.41,2.78a5,5,0,0,1,.88-.07,4.52,4.52,0,0,1,2.32.58,3.07,3.07,0,0,1,1.55,2.77,3.75,3.75,0,0,1-4,3.69,5.29,5.29,0,0,1-2.69-.66l.36-1.12a4.79,4.79,0,0,0,2.31.6,2.38,2.38,0,0,0,2.56-2.34c0-1.39-1-2.39-3.11-2.39a11.06,11.06,0,0,0-1.49.12l.7-5.18h5.16Z"/><path class="cls-8" d="M523.85,131h-4.12l-.42,2.78a5,5,0,0,1,.88-.07,4.58,4.58,0,0,1,2.33.58,3.08,3.08,0,0,1,1.54,2.77,3.75,3.75,0,0,1-4,3.69,5.35,5.35,0,0,1-2.69-.66l.37-1.12a4.79,4.79,0,0,0,2.31.6,2.38,2.38,0,0,0,2.55-2.34c0-1.39-.94-2.39-3.1-2.39A10.92,10.92,0,0,0,518,135l.69-5.18h5.17Z"/><path class="cls-8" d="M526.77,139.57a6.38,6.38,0,0,0,1.18,0,4.09,4.09,0,0,0,2.25-1.05,4.71,4.71,0,0,0,1.43-2.87h0a3.17,3.17,0,0,1-2.54,1.16,3.13,3.13,0,0,1-3.19-3.3,3.71,3.71,0,0,1,3.69-3.84c2.21,0,3.57,1.8,3.57,4.55a6.84,6.84,0,0,1-1.86,5.07,5.41,5.41,0,0,1-3.14,1.44,6.69,6.69,0,0,1-1.34.08Zm.53-6.21a2.07,2.07,0,0,0,2.07,2.29,2.42,2.42,0,0,0,2.13-1.13,1,1,0,0,0,.13-.53c0-1.84-.68-3.25-2.21-3.25C528.18,130.74,527.3,131.83,527.3,133.36Z"/><path class="cls-8" d="M536,129.22l-.28,4h-.9l-.26-4Zm2.47,0-.28,4h-.88l-.28-4Z"/><path class="cls-8" d="M539.57,142.61a11.26,11.26,0,0,0,2.09-6.79,11,11,0,0,0-2.09-6.74h1.13a10.57,10.57,0,0,1,2.17,6.75,10.82,10.82,0,0,1-2.17,6.78Z"/><rect class="cls-4" x="35" y="129.08" width="962" height="541.74"/><line class="cls-9" x1="645.66" y1="147.08" x2="357.15" y2="147.08"/><polygon class="cls-8" points="640.25 143.12 655.2 147.25 640.25 151.38 640.25 143.12"/><polygon class="cls-8" points="360.09 143.12 345.14 147.25 360.09 151.38 360.09 143.12"/><path class="cls-8" d="M120,514.15a14.56,14.56,0,0,1,2.5-1.23,4.55,4.55,0,0,1,3.35-.32,2.78,2.78,0,0,1,1.59,1.66,2.93,2.93,0,0,1-.93,3.42l0,.05a2.8,2.8,0,0,1,2.35,1.51,18.61,18.61,0,0,0,1.92,2.55l-1.39.54a14.46,14.46,0,0,1-1.67-2.22c-.87-1.32-1.64-1.64-2.88-1.21l-1.27.49,1.77,4.52-1.35.52Zm3.2,4.22,1.37-.54c1.44-.56,2-1.7,1.58-2.89-.52-1.35-1.72-1.56-3.15-1a6.46,6.46,0,0,0-1.29.64Z"/><path class="cls-8" d="M131.39,511.44h0L130,513.08l-.67-.94,1.74-2,1.16-.45,3.92,10.05-1.32.51Z"/><path class="cls-8" d="M138.43,517.89a1,1,0,0,1,.55-1.34,1,1,0,1,1-.55,1.34Z"/><path class="cls-8" d="M144.37,506.24l-3.84,1.5.62,2.73a5.09,5.09,0,0,1,.8-.38,4.55,4.55,0,0,1,2.37-.3,3.07,3.07,0,0,1,2.45,2,3.75,3.75,0,0,1-2.41,4.89,5.31,5.31,0,0,1-2.75.36l-.06-1.17a4.86,4.86,0,0,0,2.37-.28,2.39,2.39,0,0,0,1.53-3.11c-.52-1.29-1.75-1.88-3.76-1.1a10.83,10.83,0,0,0-1.35.65L139.11,507l4.81-1.87Z"/><line class="cls-9" x1="94.06" y1="546.57" x2="156.5" y2="520.07"/><polygon class="cls-8" points="97.41 549.45 82.04 551.49 94.18 541.85 97.41 549.45"/><path class="cls-8" d="M836.23,525.08a16.13,16.13,0,0,1,2.54-1.15,4.56,4.56,0,0,1,3.35-.23,2.79,2.79,0,0,1,1.55,1.71,2.93,2.93,0,0,1-1,3.39l0,.05a2.8,2.8,0,0,1,2.31,1.57,16.67,16.67,0,0,0,1.85,2.6l-1.41.51a14.68,14.68,0,0,1-1.61-2.27c-.83-1.34-1.59-1.69-2.84-1.29l-1.28.46,1.63,4.56-1.36.49Zm3.08,4.32,1.39-.5c1.46-.52,2.09-1.65,1.66-2.85-.48-1.36-1.68-1.6-3.13-1.1a5.68,5.68,0,0,0-1.29.6Z"/><path class="cls-8" d="M850.72,521.47l-3.88,1.39.55,2.75a4.83,4.83,0,0,1,.8-.36,4.6,4.6,0,0,1,2.39-.24A3.09,3.09,0,0,1,853,527.1a3.75,3.75,0,0,1-2.55,4.83,5.32,5.32,0,0,1-2.75.28l0-1.17a4.82,4.82,0,0,0,2.37-.22,2.37,2.37,0,0,0,1.62-3.06c-.49-1.31-1.7-1.93-3.73-1.21a9.54,9.54,0,0,0-1.36.62l-1.09-5.12,4.86-1.74Z"/><line class="cls-9" x1="900.38" y1="516.75" x2="837.23" y2="541.5"/><polygon class="cls-8" points="897.12 513.78 912.54 512.17 900.13 521.47 897.12 513.78"/><path class="cls-7" d="M585.82,592.42a5.13,5.13,0,0,0,2.49.71c2,0,2.57-1.25,2.55-2.19,0-1.57-1.44-2.25-2.91-2.25h-.85v-1.14H588c1.11,0,2.51-.57,2.51-1.9,0-.91-.57-1.7-2-1.7a4.2,4.2,0,0,0-2.26.74l-.4-1.11a5.41,5.41,0,0,1,2.95-.86c2.22,0,3.22,1.31,3.22,2.68a2.79,2.79,0,0,1-2.08,2.65v0a2.92,2.92,0,0,1,2.51,2.89c0,1.8-1.4,3.38-4.1,3.38a5.67,5.67,0,0,1-2.93-.77Z"/><path class="cls-7" d="M594.88,593.09a6.1,6.1,0,0,0,1.23-.05,4.2,4.2,0,0,0,2.35-1.09,4.93,4.93,0,0,0,1.49-3h-.05a3.33,3.33,0,0,1-2.65,1.22,3.27,3.27,0,0,1-3.33-3.45,3.86,3.86,0,0,1,3.85-4c2.3,0,3.72,1.87,3.72,4.74a7.13,7.13,0,0,1-1.94,5.29,5.66,5.66,0,0,1-3.27,1.5,6.7,6.7,0,0,1-1.4.09Zm.55-6.47a2.16,2.16,0,0,0,2.16,2.38,2.52,2.52,0,0,0,2.22-1.17,1,1,0,0,0,.14-.56c0-1.92-.71-3.39-2.3-3.39C596.35,583.88,595.43,585,595.43,586.62Z"/></g><g id="Watermark"><rect class="cls-1" x="438.45" y="414.69" width="123.09" height="46.3"/><rect class="cls-10" x="444.86" y="422.53" width="62.89" height="30.62"/><rect class="cls-10" x="507.75" y="422.53" width="47.39" height="30.62"/><path class="cls-11" d="M466.48,428.63l-2.79,18.91H461l-1.55-11-1.53,11h-2.74l-2.8-18.91h2.51l1.79,14.17,1.79-14.17h2l1.79,14.17L464,428.63Z"/><path class="cls-11" d="M467.93,447.54V428.63h2.53v18.91Z"/><path class="cls-11" d="M472.83,428.63h5q2.9,0,2.9,3.24v4.66c0,1.65-.51,2.7-1.51,3.14l1.77,7.87h-2.4l-1.66-7.64h-1.53v7.64h-2.53Zm2.53,9.11H477c.76,0,1.14-.45,1.14-1.37v-4.08c0-.91-.38-1.37-1.14-1.37h-1.66Z"/><path class="cls-11" d="M486.82,430.92v16.62h-2.53V430.92h-2.42v-2.29h7.38v2.29Z"/><path class="cls-11" d="M496.34,447.54V439h-3.11v8.59H490.7V428.63h2.53v8h3.11v-8h2.53v18.91Z"/><path class="cls-11" d="M516.31,428.63h5q2.9,0,2.89,3.24v4.66c0,1.65-.5,2.7-1.5,3.14l1.77,7.87H522l-1.66-7.64h-1.53v7.64h-2.53Zm2.53,9.11h1.66c.76,0,1.13-.45,1.13-1.37v-4.08c0-.91-.37-1.37-1.13-1.37h-1.66Z"/><path class="cls-11" d="M528.67,447.54h-2.53V431.87q0-3.24,3-3.24h1.9q3,0,3,3.24v15.67h-2.53v-6.93h-2.9Zm2.9-9.22V432a1,1,0,0,0-1.11-1.1h-.68a1,1,0,0,0-1.11,1.1v6.3Z"/><path class="cls-11" d="M536.34,447.54V428.63h2.53v18.91Z"/><path class="cls-11" d="M547.24,447.54h-6V428.63h2.53v16.62h3.47Z"/></g></svg>