<svg xmlns="http://www.w3.org/2000/svg" viewBox="0 0 1000 800"><defs><style>.cls-1,.cls-10{fill:#f0f0f0;}.cls-2,.cls-3,.cls-4,.cls-5,.cls-6,.cls-9{fill:none;}.cls-2,.cls-3,.cls-5,.cls-6{stroke:#231f20;}.cls-2{stroke-width:2px;}.cls-5{stroke-dasharray:8.03 2.46;}.cls-6{stroke-dasharray:8.02 2.44;}.cls-7{fill:#231f20;}.cls-8{fill:#303030;}.cls-9{stroke:#303030;}.cls-10,.cls-9{stroke-miterlimit:10;}.cls-10{stroke:#ccc;}.cls-11{fill:#ccc;}</style></defs><g id="Flat"><path class="cls-1" d="M901.54,506.2c-20.35-1.51-210.38-16.59-210.38-16.59L614.05,466s-17.9-10.35-17.9-24.68v-64.1s2.25-17.34,16.58-21.11l30.93-9.8s14.32-6.79,15.83-19.61,0-98.78,0-98.78-6-29.41-27.9-30.92c-21.09-1.45-123.46-3.61-130.76-3.76h-.45c-7.32.15-109.68,2.31-130.76,3.76-21.87,1.51-27.9,30.92-27.9,30.92s-1.51,86,0,98.78,15.83,19.61,15.83,19.61l30.92,9.8c14.32,3.77,16.59,21.11,16.59,21.11v64.1C405.06,455.68,387,467,387,467L310,489.61S120,504.69,99.66,506.2s-24.13,23.38-24.13,23.38v25.64H925.68V529.58s-3.78-21.87-24.14-23.38"/><path class="cls-2" d="M901.54,506.2c-20.35-1.51-210.38-16.59-210.38-16.59L614.05,466s-17.9-10.35-17.9-24.68v-64.1s2.25-17.34,16.58-21.11l30.93-9.8s14.32-6.79,15.83-19.61,0-98.78,0-98.78-6-29.41-27.9-30.92c-21.09-1.45-123.46-3.61-130.76-3.76h-.45c-7.32.15-109.68,2.31-130.76,3.76-21.87,1.51-27.9,30.92-27.9,30.92s-1.51,86,0,98.78,15.83,19.61,15.83,19.61l30.92,9.8c14.32,3.77,16.59,21.11,16.59,21.11v64.1C405.06,455.68,387,467,387,467L310,489.61S120,504.69,99.66,506.2s-24.13,23.38-24.13,23.38v25.64H925.68V529.58S921.9,507.71,901.54,506.2Z"/><line class="cls-3" x1="500.93" y1="193.29" x2="998" y2="193.24"/><rect class="cls-4" x="23" y="132.67" width="975" height="534.6"/><line class="cls-3" x1="625.86" y1="488.8" x2="691.16" y2="489.61"/><line class="cls-3" x1="902.59" y1="506.25" x2="966.96" y2="506.25"/><line class="cls-3" x1="926.46" y1="506.25" x2="926.46" y2="667.28"/><rect class="cls-4" x="23" y="132.67" width="975" height="534.6"/><line class="cls-3" x1="659.6" y1="135.52" x2="659.6" y2="342.4"/><line class="cls-3" x1="596.95" y1="360.84" x2="595.81" y2="460.85"/><line class="cls-3" x1="75.52" y1="555.27" x2="75.52" y2="664.96"/><line class="cls-3" x1="992.74" y1="555.22" x2="41.16" y2="555.27"/><line class="cls-5" x1="501.32" y1="607.65" x2="500.53" y2="163.44"/><line class="cls-6" x1="845.29" y1="407.76" x2="43.88" y2="407.25"/><line class="cls-3" x1="341.59" y1="135.52" x2="341.59" y2="231.24"/><line class="cls-3" x1="691.16" y1="489.61" x2="691.39" y2="606.87"/><line class="cls-3" x1="596.95" y1="361.25" x2="784.28" y2="361.25"/><line class="cls-3" x1="659.4" y1="342.4" x2="724.95" y2="342.4"/><line class="cls-3" x1="659.6" y1="342.4" x2="596.95" y2="361.25"/><line class="cls-3" x1="691.33" y1="489.61" x2="595.81" y2="460.66"/><line class="cls-3" x1="559.48" y1="460.66" x2="595.81" y2="460.66"/><path class="cls-7" d="M510.15,187.93v-5.38l-4.9-7.32h2l2.51,3.84c.46.72.89,1.43,1.3,2.14.38-.67.86-1.41,1.41-2.24l2.46-3.74h2l-5.07,7.32v5.38Z"/><path class="cls-7" d="M512,576v-5.38L507,563.3h2l2.51,3.84c.46.72.89,1.43,1.3,2.14.38-.67.86-1.41,1.41-2.24l2.46-3.74h2l-5.07,7.32V576Z"/><path class="cls-7" d="M861,416.46l4.88-6.6-4.33-6.1h2l2.33,3.27a17.62,17.62,0,0,1,1,1.51c.3-.46.64-.93,1-1.43l2.48-3.35h1.85l-4.39,6,4.75,6.66h-2.06L867.33,412c-.19-.26-.37-.51-.54-.76l-.58.84L863,416.46Z"/><path class="cls-7" d="M23,412.68l4.88-6.59L23.55,400h2l2.34,3.27c.48.68.82,1.18,1,1.52q.44-.69,1-1.44L32.41,400h1.85l-4.39,6,4.75,6.66H32.55l-3.19-4.51-.54-.76-.58.85L25,412.68Z"/><rect class="cls-4" x="23" y="132.67" width="975" height="534.6"/><line class="cls-3" x1="958.06" y1="506.25" x2="958.1" y2="555.22"/><line class="cls-3" x1="958.06" y1="455.23" x2="958.06" y2="499.97"/><line class="cls-3" x1="958.17" y1="598.03" x2="958.17" y2="560.57"/><polygon class="cls-8" points="954.07 492.27 958.05 506.7 962.04 492.27 954.07 492.27"/><polygon class="cls-8" points="962.04 569.65 958.06 555.22 954.07 569.65 962.04 569.65"/><path class="cls-8" d="M952.8,535v1.4h-9a6.94,6.94,0,0,1,1,1.34,8.71,8.71,0,0,1,.73,1.48h-1.36a8.35,8.35,0,0,0-1.35-2.06,5.38,5.38,0,0,0-1.53-1.26V535Z"/><path class="cls-8" d="M952.8,526v1.41h-9a6.84,6.84,0,0,1,1,1.33,8.77,8.77,0,0,1,.73,1.49h-1.36a8.41,8.41,0,0,0-1.35-2.07,5.17,5.17,0,0,0-1.53-1.25V526Z"/><path class="cls-8" d="M48.92,497l-.18-1.41a3.05,3.05,0,0,0,1.72-.83,2,2,0,0,0,.53-1.42,2.29,2.29,0,0,0-.69-1.68,2.35,2.35,0,0,0-1.7-.68,2.16,2.16,0,0,0-1.6.63,2.19,2.19,0,0,0-.63,1.61,4.25,4.25,0,0,0,.15,1l-1.23-.16a2,2,0,0,0,0-.23,2.93,2.93,0,0,0-.47-1.62,1.6,1.6,0,0,0-1.45-.72,1.72,1.72,0,0,0-1.28.53,1.86,1.86,0,0,0-.51,1.35,1.89,1.89,0,0,0,.52,1.37,2.59,2.59,0,0,0,1.55.71l-.25,1.41a3.67,3.67,0,0,1-2.2-1.18,3.39,3.39,0,0,1-.78-2.28,3.77,3.77,0,0,1,.41-1.73,2.9,2.9,0,0,1,2.58-1.62,2.47,2.47,0,0,1,1.35.39,2.7,2.7,0,0,1,1,1.19,2.66,2.66,0,0,1,1-1.58,3,3,0,0,1,1.86-.57,3.37,3.37,0,0,1,2.54,1.1,3.84,3.84,0,0,1,1,2.77,3.61,3.61,0,0,1-.9,2.51A3.54,3.54,0,0,1,48.92,497Z"/><path class="cls-8" d="M52,483.59H49.21v5H47.92l-7.44-5.24v-1.15h7.44v-1.55h1.29v1.55H52Zm-4,0H42.74l5.18,3.6Z"/><path class="cls-8" d="M52,478.4h-1.6v-1.6H52Z"/><path class="cls-8" d="M43.29,467.45l.11,1.4a2.85,2.85,0,0,0-1.21.53,1.9,1.9,0,0,0-.6,1.41A2,2,0,0,0,42,472a3.14,3.14,0,0,0,1.41,1,7.32,7.32,0,0,0,2.66.4,3.29,3.29,0,0,1-.49-5.18,3.71,3.71,0,0,1,2.68-1,4.43,4.43,0,0,1,2,.46A3.47,3.47,0,0,1,51.66,469a3.79,3.79,0,0,1-.81,4.72,6.53,6.53,0,0,1-4.27,1.11,7.69,7.69,0,0,1-4.83-1.22,3.54,3.54,0,0,1-1.32-2.89,3.08,3.08,0,0,1,2.86-3.26Zm5,5.75a3.2,3.2,0,0,0,1.39-.31,2.26,2.26,0,0,0,1-.86,2.19,2.19,0,0,0,.35-1.17,2,2,0,0,0-.72-1.53,2.82,2.82,0,0,0-2-.64,2.66,2.66,0,0,0-1.87.63,2.08,2.08,0,0,0-.69,1.6,2.15,2.15,0,0,0,.69,1.62A2.48,2.48,0,0,0,48.24,473.2Z"/><line class="cls-9" x1="58.21" y1="417.67" x2="58.21" y2="540.83"/><polygon class="cls-8" points="54.39 422.46 58.37 408.03 62.36 422.46 54.39 422.46"/><polygon class="cls-8" points="54.39 540.83 58.37 555.26 62.36 540.83 54.39 540.83"/><path class="cls-8" d="M466.36,642.79v1.36h-7.59a2.5,2.5,0,0,1,.17-1,5.15,5.15,0,0,1,.92-1.53,14.78,14.78,0,0,1,1.85-1.74,15.22,15.22,0,0,0,2.52-2.43,2.88,2.88,0,0,0,.66-1.69,1.87,1.87,0,0,0-.6-1.41,2.14,2.14,0,0,0-1.56-.58,2.19,2.19,0,0,0-1.63.61,2.32,2.32,0,0,0-.61,1.69l-1.45-.15a3.57,3.57,0,0,1,1.12-2.47,3.82,3.82,0,0,1,2.6-.85,3.65,3.65,0,0,1,2.62.92,3,3,0,0,1,1,2.27,3.37,3.37,0,0,1-.28,1.35,5.31,5.31,0,0,1-.94,1.41,21.81,21.81,0,0,1-2.17,2c-.84.71-1.39,1.2-1.63,1.45a4.35,4.35,0,0,0-.59.76Z"/><path class="cls-8" d="M467.87,638.49a10.5,10.5,0,0,1,.42-3.28,4,4,0,0,1,1.24-1.91,3.17,3.17,0,0,1,2.08-.68,3.4,3.4,0,0,1,1.62.38,3,3,0,0,1,1.15,1.07,5.76,5.76,0,0,1,.71,1.7,11.55,11.55,0,0,1,.26,2.72,10.45,10.45,0,0,1-.42,3.26,4,4,0,0,1-1.24,1.91,3.12,3.12,0,0,1-2.08.68,3.16,3.16,0,0,1-2.61-1.19A7.59,7.59,0,0,1,467.87,638.49Zm1.44,0a7.21,7.21,0,0,0,.67,3.76,1.89,1.89,0,0,0,3.26,0,11,11,0,0,0,0-7.52,2,2,0,0,0-1.65-.93,1.81,1.81,0,0,0-1.55.82A7.34,7.34,0,0,0,469.31,638.49Z"/><path class="cls-8" d="M476.78,638.49a10.5,10.5,0,0,1,.42-3.28,4.06,4.06,0,0,1,1.24-1.91,3.19,3.19,0,0,1,2.08-.68,3.34,3.34,0,0,1,1.62.38,3,3,0,0,1,1.15,1.07,5.76,5.76,0,0,1,.71,1.7,11,11,0,0,1,.26,2.72,10.79,10.79,0,0,1-.41,3.26,4.11,4.11,0,0,1-1.24,1.91,3.48,3.48,0,0,1-4.69-.51A7.52,7.52,0,0,1,476.78,638.49Zm1.45,0a7.23,7.23,0,0,0,.66,3.76,2,2,0,0,0,1.63.93,1.93,1.93,0,0,0,1.63-.94,10.89,10.89,0,0,0,0-7.52,2,2,0,0,0-1.64-.93,1.79,1.79,0,0,0-1.55.82A7.24,7.24,0,0,0,478.23,638.49Z"/><path class="cls-8" d="M493.23,647.52a14.46,14.46,0,0,1-2-3.44,10.69,10.69,0,0,1-.81-4.09,10.46,10.46,0,0,1,.61-3.57,15,15,0,0,1,2.17-3.94h1A26.18,26.18,0,0,0,493,634.8a12.38,12.38,0,0,0-.75,2.25,12.84,12.84,0,0,0-.34,3,14.13,14.13,0,0,0,2.34,7.52Z"/><path class="cls-8" d="M495.58,634.17v-1.35H503v1.1a15.13,15.13,0,0,0-2.17,3.1,18.51,18.51,0,0,0-1.67,4,15,15,0,0,0-.54,3.16h-1.45a14.33,14.33,0,0,1,.54-3.28,16.88,16.88,0,0,1,1.46-3.69,16.07,16.07,0,0,1,2-3Z"/><path class="cls-8" d="M505.19,644.15v-1.61h1.61v1.61Z"/><path class="cls-8" d="M511,637.92a2.68,2.68,0,0,1-1.3-.91,2.42,2.42,0,0,1-.42-1.43,2.78,2.78,0,0,1,.9-2.1,3.76,3.76,0,0,1,4.81,0,2.82,2.82,0,0,1,.92,2.12,2.33,2.33,0,0,1-.42,1.39,2.57,2.57,0,0,1-1.27.91,3.12,3.12,0,0,1,1.61,1.11,3.08,3.08,0,0,1,.55,1.84,3.31,3.31,0,0,1-1,2.47,4.24,4.24,0,0,1-5.48,0,3.33,3.33,0,0,1-1-2.5,3,3,0,0,1,.57-1.88A2.89,2.89,0,0,1,511,637.92Zm-.73,2.91a2.55,2.55,0,0,0,.28,1.17,2,2,0,0,0,.85.87,2.45,2.45,0,0,0,1.21.31,2.25,2.25,0,0,0,1.67-.65,2.21,2.21,0,0,0,.66-1.65,2.25,2.25,0,0,0-.68-1.68,2.32,2.32,0,0,0-1.69-.67,2.24,2.24,0,0,0-2.3,2.3Zm.45-5.29a1.8,1.8,0,0,0,.53,1.33,1.86,1.86,0,0,0,1.36.51,1.83,1.83,0,0,0,1.33-.51,1.68,1.68,0,0,0,.52-1.26,1.78,1.78,0,0,0-.53-1.3,2,2,0,0,0-2.68,0A1.68,1.68,0,0,0,510.74,635.54Z"/><path class="cls-8" d="M517.86,634.17v-1.35h7.43v1.1a15.53,15.53,0,0,0-2.17,3.1,18.47,18.47,0,0,0-1.66,4,13.8,13.8,0,0,0-.54,3.16h-1.45a13.72,13.72,0,0,1,.53-3.28,17.39,17.39,0,0,1,1.46-3.69,16.07,16.07,0,0,1,2-3Z"/><path class="cls-8" d="M531.2,644.15V641.4h-5v-1.29l5.24-7.44h1.15v7.44h1.55v1.29h-1.55v2.75Zm0-4v-5.18l-3.59,5.18Z"/><path class="cls-8" d="M536.06,636.73l-.39-2.18v-1.88h1.6v1.88l-.35,2.18Zm2.59,0-.38-2.18v-1.88h1.6v1.88l-.37,2.18Z"/><path class="cls-8" d="M542.54,647.52h-1a14.13,14.13,0,0,0,2.34-7.52,13.07,13.07,0,0,0-.33-2.92,12.23,12.23,0,0,0-.75-2.26,24.07,24.07,0,0,0-1.26-2.34h1a15,15,0,0,1,2.18,3.94,10.82,10.82,0,0,1-.21,7.66A14.13,14.13,0,0,1,542.54,647.52Z"/><line class="cls-9" x1="89.89" y1="650.17" x2="917.01" y2="650.17"/><polygon class="cls-8" points="90.79 653.99 76.36 650 90.79 646.01 90.79 653.99"/><polygon class="cls-8" points="911.77 653.99 926.2 650 911.77 646.01 911.77 653.99"/><path class="cls-8" d="M974.47,381.3a2.64,2.64,0,0,1-.91,1.29,2.37,2.37,0,0,1-1.43.43,2.77,2.77,0,0,1-2.1-.9,3.77,3.77,0,0,1,0-4.82,2.82,2.82,0,0,1,2.12-.91,2.33,2.33,0,0,1,1.39.42,2.63,2.63,0,0,1,.91,1.27,2.92,2.92,0,0,1,2.95-2.16,3.31,3.31,0,0,1,2.47,1,4.24,4.24,0,0,1,0,5.48,3.34,3.34,0,0,1-2.5,1,3,3,0,0,1-1.88-.57A2.83,2.83,0,0,1,974.47,381.3Zm-2.39.28a1.81,1.81,0,0,0,1.34-.53,1.86,1.86,0,0,0,.51-1.36,1.81,1.81,0,0,0-.51-1.33,1.68,1.68,0,0,0-1.26-.52,1.78,1.78,0,0,0-1.3.53,1.84,1.84,0,0,0-.53,1.34,1.81,1.81,0,0,0,.52,1.33A1.63,1.63,0,0,0,972.08,381.58Zm5.3.45a2.55,2.55,0,0,0,1.17-.28,2,2,0,0,0,.87-.85,2.46,2.46,0,0,0,.31-1.22,2.33,2.33,0,0,0-4-1.64,2.28,2.28,0,0,0-.67,1.69,2.24,2.24,0,0,0,.66,1.65A2.26,2.26,0,0,0,977.38,382Z"/><path class="cls-8" d="M977.69,374.55l-.13-1.48a2.66,2.66,0,0,0,1.63-.76,2.09,2.09,0,0,0,.54-1.45,2.22,2.22,0,0,0-.77-1.72,2.86,2.86,0,0,0-2-.7,2.61,2.61,0,0,0-1.9.67,2.36,2.36,0,0,0-.7,1.78,2.49,2.49,0,0,0,1.11,2.09l-.17,1.32-5.89-1.11v-5.71h1.34v4.58l3.09.62a3.74,3.74,0,0,1-.72-2.17,3.42,3.42,0,0,1,1-2.54,3.65,3.65,0,0,1,2.67-1,4.18,4.18,0,0,1,2.7.91,3.62,3.62,0,0,1,1.39,3,3.69,3.69,0,0,1-.88,2.56A3.4,3.4,0,0,1,977.69,374.55Z"/><path class="cls-8" d="M984.07,358.1a14.34,14.34,0,0,1-3.45,2,10.71,10.71,0,0,1-7.65.2,15,15,0,0,1-4-2.17v-1a26,26,0,0,0,2.33,1.25,12.38,12.38,0,0,0,2.25.75,12.84,12.84,0,0,0,2.95.34,14.13,14.13,0,0,0,7.52-2.34Z"/><path class="cls-8" d="M977.67,355.83l-.19-1.4a3.12,3.12,0,0,0,1.72-.83,2,2,0,0,0,.53-1.42,2.34,2.34,0,0,0-2.39-2.36,2.16,2.16,0,0,0-1.6.63,2.19,2.19,0,0,0-.63,1.61,4.25,4.25,0,0,0,.15,1L974,352.9a2,2,0,0,0,0-.23,2.93,2.93,0,0,0-.47-1.62,1.6,1.6,0,0,0-1.45-.72,1.72,1.72,0,0,0-1.28.53,1.86,1.86,0,0,0-.51,1.35,1.89,1.89,0,0,0,.52,1.37,2.59,2.59,0,0,0,1.55.71l-.25,1.4a3.61,3.61,0,0,1-2.2-1.17,3.39,3.39,0,0,1-.78-2.28,3.77,3.77,0,0,1,.41-1.73,2.87,2.87,0,0,1,1.1-1.21,2.79,2.79,0,0,1,1.48-.42,2.48,2.48,0,0,1,1.35.4,1.05,1.05,0,1,0,1.94-.4,3,3,0,0,1,1.86-.56,3.37,3.37,0,0,1,2.54,1.1,3.84,3.84,0,0,1,1,2.77,3.63,3.63,0,0,1-.9,2.51A3.48,3.48,0,0,1,977.67,355.83Z"/><path class="cls-8" d="M980.69,346.14h-1.6v-1.61h1.6Z"/><path class="cls-8" d="M977.67,342.47l-.19-1.41a3.05,3.05,0,0,0,1.72-.83,2,2,0,0,0,.53-1.42,2.29,2.29,0,0,0-.69-1.68,2.35,2.35,0,0,0-1.7-.68,2.16,2.16,0,0,0-1.6.63,2.19,2.19,0,0,0-.63,1.61,4.25,4.25,0,0,0,.15,1l-1.23-.16a1.94,1.94,0,0,0,0-.22,2.93,2.93,0,0,0-.47-1.62,1.61,1.61,0,0,0-1.45-.73,1.72,1.72,0,0,0-1.28.53,1.86,1.86,0,0,0-.51,1.35,1.89,1.89,0,0,0,.52,1.37,2.59,2.59,0,0,0,1.55.71l-.25,1.41a3.67,3.67,0,0,1-2.2-1.18,3.39,3.39,0,0,1-.78-2.28,3.7,3.7,0,0,1,.41-1.72,2.76,2.76,0,0,1,1.1-1.21,2.79,2.79,0,0,1,1.48-.42,2.4,2.4,0,0,1,1.35.4,1,1,0,1,0,1.94-.4,3,3,0,0,1,1.86-.57,3.37,3.37,0,0,1,2.54,1.1,3.84,3.84,0,0,1,1,2.77,3.61,3.61,0,0,1-.9,2.51A3.54,3.54,0,0,1,977.67,342.47Z"/><path class="cls-8" d="M980.69,329H978v5h-1.29l-7.44-5.23v-1.15h7.44v-1.55H978v1.55h2.74Zm-4,0h-5.18l5.18,3.6Z"/><path class="cls-8" d="M972,317.33l.11,1.41a2.63,2.63,0,0,0-1.21.53,1.87,1.87,0,0,0-.6,1.41,1.94,1.94,0,0,0,.38,1.18,3.23,3.23,0,0,0,1.41,1.05,7.59,7.59,0,0,0,2.66.4,3.26,3.26,0,0,1-1.15-1.25,3.34,3.34,0,0,1-.38-1.54,3.2,3.2,0,0,1,1-2.4,3.71,3.71,0,0,1,2.68-1,4.44,4.44,0,0,1,2,.47,3.4,3.4,0,0,1,1.42,1.28,3.47,3.47,0,0,1,.49,1.84,3.6,3.6,0,0,1-1.3,2.88,6.51,6.51,0,0,1-4.26,1.11q-3.33,0-4.84-1.23a3.54,3.54,0,0,1-1.32-2.89,3.08,3.08,0,0,1,2.86-3.26Zm5,5.76a3.35,3.35,0,0,0,1.39-.31,2.34,2.34,0,0,0,1-.87,2.1,2.1,0,0,0,.35-1.16,2,2,0,0,0-.72-1.54,2.87,2.87,0,0,0-2-.64,2.62,2.62,0,0,0-1.87.64,2.05,2.05,0,0,0-.68,1.59,2.15,2.15,0,0,0,.68,1.62A2.46,2.46,0,0,0,977,323.09Z"/><path class="cls-8" d="M973.28,312.68l-2.18.38h-1.88v-1.6h1.88l2.18.37Zm0,2.59-2.18.39h-1.88v-1.6h1.88l2.18.35Z"/><path class="cls-8" d="M984.07,308.73v1a14.13,14.13,0,0,0-7.52-2.34,13.07,13.07,0,0,0-2.92.33,12.23,12.23,0,0,0-2.26.75,25.12,25.12,0,0,0-2.35,1.26v-1a15.09,15.09,0,0,1,4-2.18,10.79,10.79,0,0,1,7.65.21A14,14,0,0,1,984.07,308.73Z"/><line class="cls-9" x1="986.94" y1="205.51" x2="986.94" y2="543.54"/><polygon class="cls-8" points="983.12 207.96 987.11 193.53 991.1 207.96 983.12 207.96"/><polygon class="cls-8" points="983.12 540.7 987.11 555.13 991.1 540.7 983.12 540.7"/><line class="cls-9" x1="778.86" y1="205.51" x2="778.86" y2="351.8"/><polygon class="cls-8" points="775.03 207.96 779.02 193.53 783.01 207.96 775.03 207.96"/><polygon class="cls-8" points="775.03 346.96 779.02 361.4 783.01 346.96 775.03 346.96"/><path class="cls-8" d="M769.22,292.27l-.19-1.4a3.12,3.12,0,0,0,1.72-.83,2,2,0,0,0,.53-1.42,2.34,2.34,0,0,0-2.39-2.36,2.16,2.16,0,0,0-1.6.63,2.19,2.19,0,0,0-.63,1.61,4.25,4.25,0,0,0,.15,1l-1.23-.16a2,2,0,0,0,0-.23,2.85,2.85,0,0,0-.47-1.62,1.59,1.59,0,0,0-1.44-.72,1.73,1.73,0,0,0-1.29.53,1.86,1.86,0,0,0-.51,1.35,2,2,0,0,0,.52,1.37,2.53,2.53,0,0,0,1.55.7l-.25,1.41a3.61,3.61,0,0,1-2.2-1.17,3.39,3.39,0,0,1-.78-2.28,3.77,3.77,0,0,1,.41-1.73,2.88,2.88,0,0,1,1.1-1.21,2.81,2.81,0,0,1,1.48-.42,2.48,2.48,0,0,1,1.35.4,2.73,2.73,0,0,1,1,1.18,2.69,2.69,0,0,1,1-1.58,3,3,0,0,1,1.85-.56,3.37,3.37,0,0,1,2.54,1.1,3.84,3.84,0,0,1,1.05,2.77,3.63,3.63,0,0,1-.9,2.51A3.48,3.48,0,0,1,769.22,292.27Z"/><path class="cls-8" d="M769.59,283.16l-.12-1.36a2.27,2.27,0,0,0,1.38-.66,1.77,1.77,0,0,0,.43-1.24,2.25,2.25,0,0,0-.29-1.14,2.55,2.55,0,0,0-.8-.8,4.91,4.91,0,0,0-1.34-.53,7.1,7.1,0,0,0-1.72-.21h-.28a3.29,3.29,0,0,1,1.09,1.16,3.09,3.09,0,0,1,.42,1.58,3.21,3.21,0,0,1-1,2.41,3.76,3.76,0,0,1-2.72,1,3.9,3.9,0,0,1-2.81-1,3.46,3.46,0,0,1-1.07-2.58,3.72,3.72,0,0,1,2.33-3.46,8.45,8.45,0,0,1,3.22-.48,10.44,10.44,0,0,1,3.51.48,4.07,4.07,0,0,1,2,1.42,3.71,3.71,0,0,1,.68,2.21,3,3,0,0,1-2.85,3.23Zm-5.06-5.77a2.78,2.78,0,0,0-1.93.64,2,2,0,0,0-.71,1.56,2.14,2.14,0,0,0,.77,1.63,2.81,2.81,0,0,0,2,.7,2.46,2.46,0,0,0,1.78-.66,2.2,2.2,0,0,0,.68-1.63,2.1,2.1,0,0,0-.68-1.61A2.71,2.71,0,0,0,764.53,277.39Z"/><path class="cls-8" d="M772.25,273.66h-1.61v-1.6h1.61Z"/><path class="cls-8" d="M769.24,270l-.12-1.48a2.66,2.66,0,0,0,1.62-.76,2.09,2.09,0,0,0,.54-1.45,2.24,2.24,0,0,0-.76-1.72,2.91,2.91,0,0,0-2-.7,2.61,2.61,0,0,0-1.9.67,2.41,2.41,0,0,0-.7,1.78,2.49,2.49,0,0,0,1.11,2.09l-.17,1.32-5.89-1.11v-5.71h1.34v4.58l3.09.62a3.74,3.74,0,0,1-.72-2.17,3.46,3.46,0,0,1,1-2.54,3.67,3.67,0,0,1,2.68-1,4.17,4.17,0,0,1,2.69.91,3.63,3.63,0,0,1,1.39,3,3.73,3.73,0,0,1-.87,2.56A3.42,3.42,0,0,1,769.24,270Z"/><path class="cls-8" d="M712.39,278l-.19-1.41a3.09,3.09,0,0,0,1.73-.83,2,2,0,0,0,.53-1.42,2.29,2.29,0,0,0-.69-1.68,2.35,2.35,0,0,0-1.71-.68,2.18,2.18,0,0,0-1.6.63,2.21,2.21,0,0,0-.63,1.62,3.85,3.85,0,0,0,.16,1l-1.24-.16c0-.09,0-.17,0-.22a2.93,2.93,0,0,0-.47-1.62,1.62,1.62,0,0,0-1.45-.72,1.7,1.7,0,0,0-1.28.52,1.86,1.86,0,0,0-.51,1.35,1.92,1.92,0,0,0,.51,1.37,2.62,2.62,0,0,0,1.55.71l-.25,1.41a3.62,3.62,0,0,1-2.19-1.18,3.38,3.38,0,0,1-.78-2.27,3.7,3.7,0,0,1,.4-1.73,2.94,2.94,0,0,1,1.1-1.21,2.84,2.84,0,0,1,1.48-.42,2.41,2.41,0,0,1,1.36.4,2.74,2.74,0,0,1,1,1.18,2.62,2.62,0,0,1,1-1.58,2.94,2.94,0,0,1,1.85-.57,3.41,3.41,0,0,1,2.55,1.1,3.83,3.83,0,0,1,1,2.77,3.61,3.61,0,0,1-.9,2.51A3.51,3.51,0,0,1,712.39,278Z"/><path class="cls-8" d="M712.41,269.07l-.12-1.48a2.63,2.63,0,0,0,1.62-.76,2,2,0,0,0,.55-1.44,2.27,2.27,0,0,0-.77-1.73,2.88,2.88,0,0,0-2-.7,2.6,2.6,0,0,0-1.91.68,2.37,2.37,0,0,0-.69,1.77,2.44,2.44,0,0,0,.31,1.23,2.37,2.37,0,0,0,.8.86l-.17,1.32-5.9-1.11V262h1.35v4.58l3.08.62a3.74,3.74,0,0,1-.72-2.17,3.44,3.44,0,0,1,1-2.53,3.66,3.66,0,0,1,2.68-1,4.19,4.19,0,0,1,2.69.91,3.65,3.65,0,0,1,1.4,3,3.73,3.73,0,0,1-.88,2.55A3.42,3.42,0,0,1,712.41,269.07Z"/><line class="cls-9" x1="719.54" y1="205.51" x2="719.54" y2="331.04"/><polygon class="cls-8" points="715.72 207.96 719.7 193.53 723.7 207.96 715.72 207.96"/><polygon class="cls-8" points="715.72 327.96 719.7 342.4 723.7 327.96 715.72 327.96"/><path class="cls-8" d="M854.69,537.91l-4.49-10.56,4.68-2a6.83,6.83,0,0,1,2.27-.63,2.52,2.52,0,0,1,1.6.51,3.22,3.22,0,0,1,1.12,1.4,2.92,2.92,0,0,1,.07,2.21,3.93,3.93,0,0,1-1.83,1.93,4,4,0,0,1,1.07.17,8.23,8.23,0,0,1,1.76.91l3,2.1-1.75.74-2.34-1.6c-.67-.46-1.22-.8-1.62-1a3.36,3.36,0,0,0-1-.4,2.16,2.16,0,0,0-.76,0,4.57,4.57,0,0,0-.8.28l-1.62.69,2,4.69Zm-1.11-6.49,3-1.28a4.88,4.88,0,0,0,1.41-.83,1.78,1.78,0,0,0,.56-1,1.83,1.83,0,0,0-.13-1.06,1.67,1.67,0,0,0-1.06-1,2.78,2.78,0,0,0-1.93.24l-3.34,1.42Z"/><path class="cls-8" d="M868.14,522.8l-1.25.65a2.62,2.62,0,0,0-1-.9,1.86,1.86,0,0,0-1.53,0,1.93,1.93,0,0,0-.94.81,3.2,3.2,0,0,0-.42,1.72,7.64,7.64,0,0,0,.67,2.59,3.3,3.3,0,0,1,2-2.49,3.21,3.21,0,0,1,2.61,0,3.72,3.72,0,0,1,2,2.08,4.25,4.25,0,0,1,.36,2,3.36,3.36,0,0,1-.62,1.81,3.44,3.44,0,0,1-1.51,1.18,3.62,3.62,0,0,1-3.15-.07,6.49,6.49,0,0,1-2.69-3.5,7.63,7.63,0,0,1-.76-4.93,3.55,3.55,0,0,1,2.14-2.34,3.08,3.08,0,0,1,4.12,1.36Zm-3.36,6.8a3.1,3.1,0,0,0,.83,1.16,2.29,2.29,0,0,0,1.19.6,2.25,2.25,0,0,0,1.21-.14,2,2,0,0,0,1.13-1.26,2.83,2.83,0,0,0-.18-2.05,2.66,2.66,0,0,0-1.31-1.48,2.07,2.07,0,0,0-1.74,0,2.15,2.15,0,0,0-1.22,1.27A2.46,2.46,0,0,0,864.78,529.6Z"/><line class="cls-9" x1="908.92" y1="521.24" x2="849.43" y2="548.65"/><polygon class="cls-8" points="905.6 518.56 920.38 516.14 908.94 525.81 905.6 518.56"/><path class="cls-8" d="M471.48,134.37V133h7.43v1.1a15.83,15.83,0,0,0-2.17,3.1,18.68,18.68,0,0,0-1.66,4,13.89,13.89,0,0,0-.54,3.16h-1.45a13.65,13.65,0,0,1,.53-3.27,17.47,17.47,0,0,1,1.46-3.7,15.65,15.65,0,0,1,2-3Z"/><path class="cls-8" d="M480.3,141.33l1.48-.12a2.64,2.64,0,0,0,.77,1.62,2.09,2.09,0,0,0,1.44.55,2.25,2.25,0,0,0,1.72-.77,2.89,2.89,0,0,0,.71-2,2.63,2.63,0,0,0-.68-1.9A2.37,2.37,0,0,0,484,138a2.5,2.5,0,0,0-1.23.31,2.4,2.4,0,0,0-.86.81l-1.32-.18,1.11-5.89h5.7v1.35h-4.58l-.61,3.08a3.71,3.71,0,0,1,2.16-.72,3.45,3.45,0,0,1,2.54,1,3.65,3.65,0,0,1,1,2.68,4.15,4.15,0,0,1-.91,2.69,3.62,3.62,0,0,1-3,1.39,3.72,3.72,0,0,1-2.55-.87A3.47,3.47,0,0,1,480.3,141.33Z"/><path class="cls-8" d="M496.76,147.71a14.15,14.15,0,0,1-2-3.44,10.87,10.87,0,0,1-.8-4.09,10.7,10.7,0,0,1,.6-3.57,15,15,0,0,1,2.18-3.94h1c-.64,1.08-1,1.86-1.26,2.32a13.93,13.93,0,0,0-.75,2.26,13.25,13.25,0,0,0-.33,2.94,14.11,14.11,0,0,0,2.34,7.52Z"/><path class="cls-8" d="M506.42,143v1.36h-7.59a2.5,2.5,0,0,1,.17-1,5.15,5.15,0,0,1,.92-1.53,14.11,14.11,0,0,1,1.85-1.73,16.09,16.09,0,0,0,2.52-2.43A2.93,2.93,0,0,0,505,136a1.87,1.87,0,0,0-.6-1.41,2.14,2.14,0,0,0-1.56-.58,2.23,2.23,0,0,0-1.63.61,2.36,2.36,0,0,0-.62,1.69l-1.44-.14a3.55,3.55,0,0,1,1.12-2.47,3.77,3.77,0,0,1,2.6-.85,3.67,3.67,0,0,1,2.62.91,3,3,0,0,1,1,2.27,3.45,3.45,0,0,1-.28,1.36,5.28,5.28,0,0,1-.94,1.4,22.89,22.89,0,0,1-2.17,2c-.84.71-1.39,1.19-1.63,1.44a4.35,4.35,0,0,0-.59.76Z"/><path class="cls-8" d="M508.72,144.34v-1.61h1.6v1.61Z"/><path class="cls-8" d="M512.59,141.68l1.35-.12a2.36,2.36,0,0,0,.66,1.38,1.82,1.82,0,0,0,1.25.44,2.16,2.16,0,0,0,1.14-.3,2.55,2.55,0,0,0,.8-.8,4.62,4.62,0,0,0,.52-1.34,7.1,7.1,0,0,0,.21-1.72v-.28a3.29,3.29,0,0,1-1.16,1.09,3.14,3.14,0,0,1-1.58.42,3.22,3.22,0,0,1-2.41-1,3.78,3.78,0,0,1-1-2.73,3.86,3.86,0,0,1,1-2.81,3.42,3.42,0,0,1,2.58-1.06,3.66,3.66,0,0,1,2,.6,3.72,3.72,0,0,1,1.41,1.72,8.47,8.47,0,0,1,.48,3.23,10.71,10.71,0,0,1-.47,3.5,4.07,4.07,0,0,1-1.42,2,3.65,3.65,0,0,1-2.21.68,3,3,0,0,1-3.23-2.85Zm5.77-5.06a2.74,2.74,0,0,0-.65-1.92,2,2,0,0,0-1.55-.72,2.16,2.16,0,0,0-1.64.77,2.85,2.85,0,0,0-.69,2,2.46,2.46,0,0,0,.66,1.78,2.15,2.15,0,0,0,1.63.68,2.08,2.08,0,0,0,1.61-.68A2.71,2.71,0,0,0,518.36,136.62Z"/><path class="cls-8" d="M521.29,141.33l1.48-.12a2.64,2.64,0,0,0,.77,1.62,2.07,2.07,0,0,0,1.44.55,2.25,2.25,0,0,0,1.72-.77,2.89,2.89,0,0,0,.71-2,2.63,2.63,0,0,0-.68-1.9A2.37,2.37,0,0,0,525,138a2.5,2.5,0,0,0-1.23.31,2.4,2.4,0,0,0-.86.81l-1.33-.18,1.12-5.89h5.7v1.35h-4.58l-.62,3.08a3.76,3.76,0,0,1,2.17-.72,3.46,3.46,0,0,1,2.54,1,3.65,3.65,0,0,1,1,2.68,4.15,4.15,0,0,1-.91,2.69,3.62,3.62,0,0,1-3,1.39,3.75,3.75,0,0,1-2.56-.87A3.46,3.46,0,0,1,521.29,141.33Z"/><path class="cls-8" d="M530.22,141.31l1.4-.19a3.19,3.19,0,0,0,.83,1.73,2,2,0,0,0,1.42.53,2.29,2.29,0,0,0,1.68-.69,2.32,2.32,0,0,0,.69-1.71,2.17,2.17,0,0,0-2.25-2.23,3.85,3.85,0,0,0-1,.16l.16-1.24.23,0a2.93,2.93,0,0,0,1.62-.47,1.62,1.62,0,0,0,.72-1.45,1.73,1.73,0,0,0-.53-1.29,1.89,1.89,0,0,0-1.35-.5,1.92,1.92,0,0,0-1.37.51,2.55,2.55,0,0,0-.7,1.55l-1.41-.25a3.58,3.58,0,0,1,1.17-2.19,3.39,3.39,0,0,1,2.28-.78,3.76,3.76,0,0,1,1.73.4,2.94,2.94,0,0,1,1.21,1.1,2.81,2.81,0,0,1,.42,1.48,2.46,2.46,0,0,1-.4,1.35,2.7,2.7,0,0,1-1.19,1,2.68,2.68,0,0,1,1.59,1,3,3,0,0,1,.56,1.85,3.41,3.41,0,0,1-1.1,2.55,3.87,3.87,0,0,1-2.77,1,3.63,3.63,0,0,1-2.51-.9A3.48,3.48,0,0,1,530.22,141.31Z"/><path class="cls-8" d="M539.58,136.93l-.39-2.19v-1.88h1.61v1.88l-.35,2.19Zm2.6,0-.39-2.19v-1.88h1.61v1.88l-.38,2.19Z"/><path class="cls-8" d="M546.07,147.71h-1a14.11,14.11,0,0,0,2.34-7.52,12.59,12.59,0,0,0-.34-2.92,12.35,12.35,0,0,0-.74-2.25,23.89,23.89,0,0,0-1.26-2.35h1a15,15,0,0,1,2.17,3.94,10.46,10.46,0,0,1,.61,3.57,10.69,10.69,0,0,1-.81,4.09A14.46,14.46,0,0,1,546.07,147.71Z"/><rect class="cls-4" x="23" y="132.67" width="975" height="534.6"/><line class="cls-9" x1="353.41" y1="150.23" x2="650.74" y2="150.23"/><polygon class="cls-8" points="355.97 154.05 341.53 150.06 355.97 146.07 355.97 154.05"/><polygon class="cls-8" points="646.12 154.05 660.55 150.06 646.12 146.07 646.12 154.05"/><path class="cls-8" d="M469.3,388.78V386h-5v-1.29l5.23-7.44h1.15v7.44h1.55V386h-1.55v2.75Zm0-4v-5.18l-3.59,5.18Z"/><path class="cls-8" d="M473.7,385.77l1.48-.12a2.68,2.68,0,0,0,.76,1.62,2.1,2.1,0,0,0,1.45.54,2.24,2.24,0,0,0,1.72-.76,2.89,2.89,0,0,0,.71-2,2.61,2.61,0,0,0-.68-1.9,2.37,2.37,0,0,0-1.77-.7,2.5,2.5,0,0,0-1.23.31,2.38,2.38,0,0,0-.86.8l-1.33-.17,1.11-5.89h5.71v1.35h-4.58l-.62,3.08a3.74,3.74,0,0,1,2.17-.72,3.46,3.46,0,0,1,2.54,1,3.63,3.63,0,0,1,1,2.68,4.15,4.15,0,0,1-.91,2.69,3.62,3.62,0,0,1-3,1.39,3.73,3.73,0,0,1-2.56-.87A3.46,3.46,0,0,1,473.7,385.77Z"/><path class="cls-8" d="M490.15,392.15a14.46,14.46,0,0,1-2-3.44,10.89,10.89,0,0,1-.2-7.66,15,15,0,0,1,2.17-3.94h1c-.63,1.08-1,1.86-1.25,2.32a12.23,12.23,0,0,0-.75,2.26,13.26,13.26,0,0,0-.34,2.94,14.11,14.11,0,0,0,2.34,7.52Z"/><path class="cls-8" d="M497.71,388.78h-1.4v-9a7.39,7.39,0,0,1-1.34,1,9.53,9.53,0,0,1-1.48.73v-1.36a8.35,8.35,0,0,0,2.06-1.35,5.52,5.52,0,0,0,1.26-1.53h.9Z"/><path class="cls-8" d="M502.11,388.78v-1.61h1.61v1.61Z"/><path class="cls-8" d="M505.87,378.81v-1.36h7.43v1.1a15.13,15.13,0,0,0-2.17,3.1,18.72,18.72,0,0,0-1.67,4,15,15,0,0,0-.54,3.16h-1.45a14.17,14.17,0,0,1,.54-3.27,16.76,16.76,0,0,1,1.46-3.7,15.65,15.65,0,0,1,2-3Z"/><path class="cls-8" d="M514.78,378.81v-1.36h7.43v1.1a15.53,15.53,0,0,0-2.17,3.1,18.68,18.68,0,0,0-1.66,4,15,15,0,0,0-.54,3.16h-1.45a13.58,13.58,0,0,1,.53-3.27,17.27,17.27,0,0,1,1.46-3.7,15.65,15.65,0,0,1,2-3Z"/><path class="cls-8" d="M531,387.42v1.36h-7.58a2.49,2.49,0,0,1,.16-1,5,5,0,0,1,.93-1.53,14.59,14.59,0,0,1,1.84-1.74,15.38,15.38,0,0,0,2.53-2.43,2.88,2.88,0,0,0,.66-1.69A1.87,1.87,0,0,0,529,379a2.14,2.14,0,0,0-1.56-.58,2.23,2.23,0,0,0-1.63.61,2.28,2.28,0,0,0-.62,1.69l-1.45-.15a3.57,3.57,0,0,1,1.12-2.47,3.86,3.86,0,0,1,2.61-.84,3.62,3.62,0,0,1,2.61.91,3,3,0,0,1,1,2.27,3.45,3.45,0,0,1-.28,1.36,5.47,5.47,0,0,1-.93,1.4,24.23,24.23,0,0,1-2.17,2c-.85.71-1.39,1.19-1.63,1.44a5,5,0,0,0-.6.76Z"/><path class="cls-8" d="M533,381.36l-.39-2.18V377.3h1.61v1.88l-.36,2.18Zm2.59,0-.38-2.18V377.3h1.6v1.88l-.37,2.18Z"/><path class="cls-8" d="M539.47,392.15h-1a14.11,14.11,0,0,0,2.34-7.52,12.53,12.53,0,0,0-.34-2.92,11.63,11.63,0,0,0-.74-2.25,23.89,23.89,0,0,0-1.26-2.35h1a15,15,0,0,1,2.18,3.94,10.82,10.82,0,0,1-.21,7.66A14.46,14.46,0,0,1,539.47,392.15Z"/><line class="cls-9" x1="416.24" y1="394.66" x2="586.19" y2="394.66"/><polygon class="cls-8" points="418.79 398.48 404.36 394.49 418.79 390.5 418.79 398.48"/><polygon class="cls-8" points="582.39 398.48 596.83 394.49 582.39 390.5 582.39 398.48"/><path class="cls-8" d="M342.36,403.17l-8.15-8.08,3.58-3.61a6.82,6.82,0,0,1,1.87-1.44,2.57,2.57,0,0,1,1.67-.14,3.21,3.21,0,0,1,1.56.88,2.89,2.89,0,0,1,.91,2,4,4,0,0,1-1,2.48,4,4,0,0,1,1.06-.24,7.76,7.76,0,0,1,2,.18l3.62.78-1.35,1.36-2.76-.61q-1.2-.25-1.89-.33a3.55,3.55,0,0,0-1.09,0,2.24,2.24,0,0,0-.71.28,6.7,6.7,0,0,0-.63.56l-1.24,1.25,3.62,3.59Zm-3.48-5.59,2.29-2.32a4.78,4.78,0,0,0,1-1.31,1.77,1.77,0,0,0,.14-1.12,1.83,1.83,0,0,0-.52-.94,1.71,1.71,0,0,0-1.36-.52,2.75,2.75,0,0,0-1.69.95l-2.56,2.58Z"/><path class="cls-8" d="M349.1,384.07l-.91,1.07a2.73,2.73,0,0,0-1.23-.47,1.85,1.85,0,0,0-1.42.58,1.9,1.9,0,0,0-.57,1.1,3.23,3.23,0,0,0,.27,1.74,7.38,7.38,0,0,0,1.6,2.16,3.24,3.24,0,0,1,.06-1.7,3.38,3.38,0,0,1,.82-1.36,3.21,3.21,0,0,1,2.43-1,3.71,3.71,0,0,1,2.6,1.19,4.38,4.38,0,0,1,1.09,1.74,3.39,3.39,0,0,1,.11,1.91,3.54,3.54,0,0,1-.95,1.66,3.59,3.59,0,0,1-2.94,1.12,6.55,6.55,0,0,1-3.82-2.21c-1.57-1.57-2.43-3-2.57-4.28a3.55,3.55,0,0,1,1.11-3,3.2,3.2,0,0,1,2.1-1A3.24,3.24,0,0,1,349.1,384.07Zm-.54,7.57a3.15,3.15,0,0,0,1.2.76,2.27,2.27,0,0,0,1.33.1,2.16,2.16,0,0,0,1.07-.58,2,2,0,0,0,.57-1.6,2.81,2.81,0,0,0-.94-1.83,2.62,2.62,0,0,0-1.77-.87,2.06,2.06,0,0,0-1.61.65,2.18,2.18,0,0,0-.66,1.63A2.45,2.45,0,0,0,348.56,391.64Z"/><line class="cls-9" x1="386.38" y1="367.41" x2="341.66" y2="415.26"/><polygon class="cls-8" points="382.3 366.18 395.07 358.36 388.13 371.63 382.3 366.18"/><path class="cls-8" d="M113.56,529.09l-4.46-10.57,4.68-2a6.53,6.53,0,0,1,2.27-.62,2.57,2.57,0,0,1,1.6.5,3.22,3.22,0,0,1,1.11,1.41,2.93,2.93,0,0,1,.08,2.21A4,4,0,0,1,117,522a3.62,3.62,0,0,1,1.07.17,7.74,7.74,0,0,1,1.75.91l3.06,2.1-1.76.74-2.33-1.6c-.68-.46-1.22-.81-1.62-1a3.54,3.54,0,0,0-1-.41,2.43,2.43,0,0,0-.76,0,3.85,3.85,0,0,0-.8.28l-1.62.68,2,4.7Zm-1.1-6.5,3-1.27a5.1,5.1,0,0,0,1.42-.83,1.71,1.71,0,0,0,.55-1,2,2,0,0,0-.12-1.07,1.72,1.72,0,0,0-1.06-1,2.78,2.78,0,0,0-1.93.24L111,519.1Z"/><path class="cls-8" d="M128.55,522.73l-1.29.55-3.5-8.27a7.26,7.26,0,0,1-.85,1.42,9.49,9.49,0,0,1-1.08,1.24l-.53-1.25a8.59,8.59,0,0,0,1.38-2,5.3,5.3,0,0,0,.55-1.9l.84-.35Z"/><path class="cls-8" d="M132.6,521l-.63-1.47,1.48-.63.63,1.48Z"/><path class="cls-8" d="M134.8,516.81l1.32-.69a2.65,2.65,0,0,0,1.33,1.2,2.06,2.06,0,0,0,1.54-.07,2.22,2.22,0,0,0,1.29-1.37,2.9,2.9,0,0,0-.14-2.15,2.63,2.63,0,0,0-1.37-1.49,2.38,2.38,0,0,0-1.9,0,2.44,2.44,0,0,0-1,.76,2.33,2.33,0,0,0-.48,1.08l-1.29.35-1.27-5.86,5.26-2.22.52,1.24-4.22,1.78.63,3.08a3.7,3.7,0,0,1,1.72-1.5,3.44,3.44,0,0,1,2.74,0,3.65,3.65,0,0,1,2,2.06,4.24,4.24,0,0,1,.21,2.84,3.62,3.62,0,0,1-2.24,2.45,3.69,3.69,0,0,1-2.69.19A3.44,3.44,0,0,1,134.8,516.81Z"/><line class="cls-9" x1="87" y1="549.68" x2="146.54" y2="522.39"/><polygon class="cls-8" points="90.31 552.37 75.53 554.76 86.98 545.12 90.31 552.37"/><path class="cls-8" d="M597.75,592.28v-2.75h-5v-1.29l5.24-7.43h1.15v7.43h1.55v1.29h-1.55v2.75Zm0-4v-5.17l-3.59,5.17Z"/><path class="cls-8" d="M602.15,589.28l1.48-.13a2.63,2.63,0,0,0,.76,1.62,2,2,0,0,0,1.45.55,2.27,2.27,0,0,0,1.72-.77,2.88,2.88,0,0,0,.7-2,2.6,2.6,0,0,0-.68-1.91,2.37,2.37,0,0,0-1.77-.69,2.44,2.44,0,0,0-1.23.31,2.37,2.37,0,0,0-.86.8l-1.32-.17,1.11-5.9h5.71v1.35h-4.58l-.62,3.08a3.74,3.74,0,0,1,2.17-.72,3.42,3.42,0,0,1,2.53,1,3.66,3.66,0,0,1,1,2.68,4.13,4.13,0,0,1-.91,2.69,3.64,3.64,0,0,1-3,1.4,3.74,3.74,0,0,1-2.56-.88A3.4,3.4,0,0,1,602.15,589.28Z"/><line class="cls-9" x1="511.94" y1="598.16" x2="681.9" y2="598.16"/><polygon class="cls-8" points="516.03 601.98 501.6 598 516.03 594 516.03 601.98"/><polygon class="cls-8" points="676.73 601.98 691.16 598 676.73 594 676.73 601.98"/><path class="cls-8" d="M394.25,226.31l5.75-9.93,4.4,2.55a6.43,6.43,0,0,1,1.86,1.44,2.49,2.49,0,0,1,.56,1.58,3.38,3.38,0,0,1-.45,1.74,2.9,2.9,0,0,1-1.72,1.38,4,4,0,0,1-2.65-.3,4.1,4.1,0,0,1,.51.95,8.09,8.09,0,0,1,.33,1.95l.16,3.71-1.65-1-.12-2.83c0-.82-.09-1.46-.16-1.91a3.39,3.39,0,0,0-.28-1.06,2.15,2.15,0,0,0-.45-.61,5.38,5.38,0,0,0-.7-.47l-1.52-.88-2.56,4.41Zm4.52-4.79,2.83,1.64a4.81,4.81,0,0,0,1.52.63,1.73,1.73,0,0,0,1.11-.15,1.8,1.8,0,0,0,.78-.74,1.66,1.66,0,0,0,.16-1.45,2.7,2.7,0,0,0-1.35-1.39l-3.14-1.82Z"/><path class="cls-8" d="M408.74,227.51a2.7,2.7,0,0,1-.67-1.44,2.42,2.42,0,0,1,.35-1.45,2.79,2.79,0,0,1,1.83-1.37,3.79,3.79,0,0,1,4.16,2.43,2.85,2.85,0,0,1-.27,2.3,2.35,2.35,0,0,1-1.06,1,2.66,2.66,0,0,1-1.56.15,3.14,3.14,0,0,1,.83,1.77,3,3,0,0,1-.44,1.86,3.28,3.28,0,0,1-2.14,1.62,4.23,4.23,0,0,1-4.74-2.75,3.37,3.37,0,0,1,.36-2.69,3,3,0,0,1,1.43-1.34A2.91,2.91,0,0,1,408.74,227.51Zm-2.1,2.15a2.66,2.66,0,0,0-.34,1.15,2.1,2.1,0,0,0,.3,1.19,2.56,2.56,0,0,0,.89.87,2.25,2.25,0,0,0,1.77.27,2.19,2.19,0,0,0,1.4-1.1,2.28,2.28,0,0,0,.26-1.79,2.34,2.34,0,0,0-1.14-1.43,2.25,2.25,0,0,0-3.14.84Zm3.05-4.36a1.81,1.81,0,0,0-.21,1.42,1.86,1.86,0,0,0,.91,1.13,1.81,1.81,0,0,0,1.42.22,1.68,1.68,0,0,0,1.08-.82,1.77,1.77,0,0,0,.19-1.4,1.83,1.83,0,0,0-.89-1.12,1.86,1.86,0,0,0-1.42-.23A1.67,1.67,0,0,0,409.69,225.3Z"/><line class="cls-9" x1="359.48" y1="217.12" x2="417.11" y2="248.25"/><polygon class="cls-8" points="359.32 221.38 348.51 211.01 363.11 214.36 359.32 221.38"/><path class="cls-8" d="M382.81,305.6l-6.6-9.39,4.17-2.92a6.53,6.53,0,0,1,2.08-1.09,2.49,2.49,0,0,1,1.67.16,3.2,3.2,0,0,1,1.39,1.14,2.86,2.86,0,0,1,.54,2.13,4,4,0,0,1-1.39,2.28,4.25,4.25,0,0,1,1.08-.06,8.19,8.19,0,0,1,1.91.52l3.43,1.41-1.57,1.1-2.61-1.08c-.76-.31-1.36-.53-1.81-.66A3.3,3.3,0,0,0,384,299a2.17,2.17,0,0,0-.74.15,5.14,5.14,0,0,0-.72.44l-1.45,1,2.94,4.16Zm-2.44-6.12L383,297.6a5,5,0,0,0,1.21-1.11,1.74,1.74,0,0,0,.33-1.08,1.83,1.83,0,0,0-.34-1,1.7,1.7,0,0,0-1.25-.76,2.75,2.75,0,0,0-1.83.65l-3,2.09Z"/><path class="cls-8" d="M392.81,288l-1.08.9a2.64,2.64,0,0,0-1.13-.68,1.88,1.88,0,0,0-1.5.32,2,2,0,0,0-.75,1,3.28,3.28,0,0,0,0,1.77,7.58,7.58,0,0,0,1.2,2.4,3.25,3.25,0,0,1,.36-1.66,3.16,3.16,0,0,1,1-1.19,3.22,3.22,0,0,1,2.56-.54,3.72,3.72,0,0,1,2.35,1.63,4.41,4.41,0,0,1,.77,1.91,3.25,3.25,0,0,1-.23,1.89,3.45,3.45,0,0,1-1.22,1.47,3.61,3.61,0,0,1-3.1.59,6.54,6.54,0,0,1-3.36-2.85,7.63,7.63,0,0,1-1.78-4.66,3.55,3.55,0,0,1,1.61-2.74,3.08,3.08,0,0,1,4.3.46ZM391,295.35a3.15,3.15,0,0,0,1.06,1,2.19,2.19,0,0,0,1.29.33,2.16,2.16,0,0,0,1.15-.38,2,2,0,0,0,.84-1.47,2.77,2.77,0,0,0-.6-2,2.64,2.64,0,0,0-1.59-1.17,2.14,2.14,0,0,0-1.71.35,2.19,2.19,0,0,0-.93,1.5A2.5,2.5,0,0,0,391,295.35Z"/><line class="cls-9" x1="359.82" y1="333.28" x2="412.25" y2="294.03"/><polygon class="cls-8" points="363.62 335.21 349.68 340.67 358.84 328.82 363.62 335.21"/><line class="cls-9" x1="408.8" y1="463.45" x2="462.56" y2="500.86"/><polygon class="cls-8" points="408.17 467.66 398.59 456.14 412.72 461.11 408.17 467.66"/><path class="cls-8" d="M627.25,532.4v1.4h-9a7.39,7.39,0,0,1,1,1.34,9.53,9.53,0,0,1,.73,1.48h-1.36a8.35,8.35,0,0,0-1.35-2.06,5.52,5.52,0,0,0-1.53-1.26v-.9Z"/><path class="cls-8" d="M624.24,528.79l-.12-1.48a2.64,2.64,0,0,0,1.62-.77,2.06,2.06,0,0,0,.54-1.44,2.24,2.24,0,0,0-.76-1.72,2.89,2.89,0,0,0-2-.71,2.61,2.61,0,0,0-1.9.68,2.37,2.37,0,0,0-.7,1.77,2.5,2.5,0,0,0,.31,1.23,2.4,2.4,0,0,0,.81.86l-.18,1.33-5.89-1.12v-5.7h1.35v4.58l3.08.62a3.76,3.76,0,0,1-.72-2.17,3.46,3.46,0,0,1,1-2.54,3.63,3.63,0,0,1,2.68-1,4.15,4.15,0,0,1,2.69.91,3.62,3.62,0,0,1,1.39,3,3.75,3.75,0,0,1-.87,2.56A3.46,3.46,0,0,1,624.24,528.79Z"/><path class="cls-8" d="M627.25,519.08h-1.61v-1.6h1.61Z"/><path class="cls-8" d="M627.25,510.9H624.5v5h-1.29l-7.44-5.24v-1.15h7.44v-1.55h1.29v1.55h2.75Zm-4,0H618l5.17,3.6Z"/><line class="cls-9" x1="632.32" y1="497.3" x2="632.32" y2="545.22"/><polygon class="cls-8" points="628.5 503.64 632.48 489.21 636.47 503.64 628.5 503.64"/><polygon class="cls-8" points="628.5 540.78 632.48 555.21 636.47 540.78 628.5 540.78"/><path class="cls-8" d="M557.9,508.19h1.35v7.59a2.48,2.48,0,0,1-1-.17,5,5,0,0,1-1.53-.93,14.59,14.59,0,0,1-1.74-1.84,15.38,15.38,0,0,0-2.43-2.53,2.86,2.86,0,0,0-1.69-.65,1.86,1.86,0,0,0-1.41.59,2.14,2.14,0,0,0-.58,1.57,2.17,2.17,0,0,0,.61,1.62,2.28,2.28,0,0,0,1.69.62l-.15,1.45a3.57,3.57,0,0,1-2.47-1.12,3.87,3.87,0,0,1-.85-2.61,3.63,3.63,0,0,1,.92-2.61,3,3,0,0,1,2.27-1,3.37,3.37,0,0,1,1.35.28,5.3,5.3,0,0,1,1.4.93,20.84,20.84,0,0,1,2,2.18c.71.84,1.19,1.38,1.45,1.62a5,5,0,0,0,.76.6Z"/><path class="cls-8" d="M557.9,499.28h1.35v7.58a2.47,2.47,0,0,1-1-.16,5.41,5.41,0,0,1-1.53-.93,15.33,15.33,0,0,1-1.74-1.84,15.38,15.38,0,0,0-2.43-2.53,2.88,2.88,0,0,0-1.69-.66,1.87,1.87,0,0,0-1.41.6,2.14,2.14,0,0,0-.58,1.56,2.19,2.19,0,0,0,.61,1.63,2.36,2.36,0,0,0,1.69.62l-.15,1.44a3.56,3.56,0,0,1-2.47-1.11,3.87,3.87,0,0,1-.85-2.61,3.67,3.67,0,0,1,.92-2.62,3,3,0,0,1,2.27-1,3.55,3.55,0,0,1,1.35.28,5.12,5.12,0,0,1,1.4.94,20.51,20.51,0,0,1,2,2.17,21.39,21.39,0,0,0,1.45,1.63,4.35,4.35,0,0,0,.76.59Z"/><line class="cls-9" x1="564.32" y1="473.53" x2="564.32" y2="545.22"/><polygon class="cls-8" points="560.5 474.88 564.49 460.44 568.48 474.88 560.5 474.88"/><polygon class="cls-8" points="560.5 540.78 564.49 555.21 568.48 540.78 560.5 540.78"/><path class="cls-8" d="M558.5,263.72,547,263.07l.29-5.08a7,7,0,0,1,.44-2.31,2.54,2.54,0,0,1,1.17-1.21,3.19,3.19,0,0,1,1.75-.38,2.9,2.9,0,0,1,2,.9,4,4,0,0,1,.92,2.5,4.1,4.1,0,0,1,.63-.88,7.8,7.8,0,0,1,1.59-1.17l3.23-1.81-.1,1.9-2.47,1.38c-.72.41-1.26.74-1.65,1a3.54,3.54,0,0,0-.81.72,2.41,2.41,0,0,0-.34.68,4.13,4.13,0,0,0-.1.84l-.1,1.75,5.08.3Zm-6.31-1.88.18-3.26a4.94,4.94,0,0,0-.12-1.64,1.73,1.73,0,0,0-.64-.93,1.85,1.85,0,0,0-1-.36,1.72,1.72,0,0,0-1.37.51,2.81,2.81,0,0,0-.63,1.84l-.2,3.62Z"/><path class="cls-8" d="M556.12,252.57l0-1.48a2.67,2.67,0,0,0,1.67-.67,2.09,2.09,0,0,0,.62-1.41,2.21,2.21,0,0,0-.67-1.76,2.87,2.87,0,0,0-2-.82,2.58,2.58,0,0,0-1.94.57,2.6,2.6,0,0,0-.55,3,2.32,2.32,0,0,0,.75.91l-.25,1.31-5.82-1.45.33-5.7,1.34.08-.26,4.57,3,.8a3.69,3.69,0,0,1-.59-2.21,3.41,3.41,0,0,1,1.18-2.47,3.63,3.63,0,0,1,2.73-.88,4.17,4.17,0,0,1,2.64,1.06,3.66,3.66,0,0,1,1.22,3.09,3.73,3.73,0,0,1-1,2.5A3.41,3.41,0,0,1,556.12,252.57Z"/><path class="cls-8" d="M554,243.51a10.36,10.36,0,0,1-3.24-.61,4,4,0,0,1-1.84-1.35,3.2,3.2,0,0,1-.56-2.11,3.38,3.38,0,0,1,.47-1.6,3.11,3.11,0,0,1,1.13-1.09,5.9,5.9,0,0,1,1.75-.61,11.26,11.26,0,0,1,2.72-.1,10.16,10.16,0,0,1,3.23.6,4.07,4.07,0,0,1,1.84,1.34,3.2,3.2,0,0,1,.56,2.13,3.14,3.14,0,0,1-1.34,2.53A7.57,7.57,0,0,1,554,243.51Zm.08-1.45a7.25,7.25,0,0,0,3.8-.44,2,2,0,0,0,1-1.58,1.92,1.92,0,0,0-.84-1.68,7.18,7.18,0,0,0-3.71-.88c-1.89-.1-3.16,0-3.8.45a1.94,1.94,0,0,0-1,1.59,1.77,1.77,0,0,0,.73,1.59A7.22,7.22,0,0,0,554.06,242.06Z"/><path class="cls-8" d="M554.49,234.6a10.49,10.49,0,0,1-3.25-.61,3.93,3.93,0,0,1-1.83-1.35,3.14,3.14,0,0,1-.56-2.11,3.49,3.49,0,0,1,.46-1.6,3.22,3.22,0,0,1,1.14-1.09,5.83,5.83,0,0,1,1.74-.61,11.34,11.34,0,0,1,2.73-.1,10.16,10.16,0,0,1,3.23.6,4.07,4.07,0,0,1,1.84,1.34,3.2,3.2,0,0,1,.56,2.13,3.14,3.14,0,0,1-1.34,2.53A7.57,7.57,0,0,1,554.49,234.6Zm.08-1.45a7.27,7.27,0,0,0,3.8-.44,2,2,0,0,0,1-1.58,1.92,1.92,0,0,0-.84-1.68,7.19,7.19,0,0,0-3.72-.88A7.08,7.08,0,0,0,551,229a2,2,0,0,0-1,1.59,1.8,1.8,0,0,0,.74,1.59A7.22,7.22,0,0,0,554.57,233.15Z"/><line class="cls-9" x1="567.69" y1="207.77" x2="565.91" y2="273.24"/><polygon class="cls-8" points="563.82 209.55 568.2 195.23 571.79 209.77 563.82 209.55"/><path class="cls-7" d="M438.28,393.16,445,383.8l4.15,3a6.89,6.89,0,0,1,1.73,1.61,2.54,2.54,0,0,1,.4,1.63,3.24,3.24,0,0,1-.61,1.69,2.89,2.89,0,0,1-1.85,1.22,4,4,0,0,1-2.61-.55,4.07,4.07,0,0,1,.42,1,7.79,7.79,0,0,1,.13,2l-.18,3.71L445,397.94l.15-2.84a18.2,18.2,0,0,0,0-1.92,3.43,3.43,0,0,0-.18-1.08,2.2,2.2,0,0,0-.39-.65,4,4,0,0,0-.65-.54l-1.44-1-3,4.16Zm5-4.34,2.66,1.89a4.75,4.75,0,0,0,1.45.78,1.74,1.74,0,0,0,1.13-.05,1.91,1.91,0,0,0,.85-.66,1.71,1.71,0,0,0,.29-1.43,2.74,2.74,0,0,0-1.21-1.52l-3-2.11Z"/><path class="cls-7" d="M452.65,395.76a2.71,2.71,0,0,1-.53-1.51,2.41,2.41,0,0,1,.49-1.4,2.78,2.78,0,0,1,2-1.2,3.37,3.37,0,0,1,2.45.7,3.31,3.31,0,0,1,1.46,2.12,2.83,2.83,0,0,1-.48,2.26,2.32,2.32,0,0,1-1.16.89,2.58,2.58,0,0,1-1.56,0,3.08,3.08,0,0,1,.66,1.84,3.11,3.11,0,0,1-.61,1.82A3.31,3.31,0,0,1,453,402.7a4.26,4.26,0,0,1-4.47-3.19,3.37,3.37,0,0,1,.61-2.66,3,3,0,0,1,1.55-1.19A2.79,2.79,0,0,1,452.65,395.76Zm-2.29,1.94a2.46,2.46,0,0,0-.45,1.12,2,2,0,0,0,.19,1.21,2.49,2.49,0,0,0,.81,1,2.27,2.27,0,0,0,1.73.44,2.44,2.44,0,0,0,1.93-2.74,2.29,2.29,0,0,0-1-1.52,2.22,2.22,0,0,0-1.72-.43A2.28,2.28,0,0,0,450.36,397.7Zm3.45-4.05a1.83,1.83,0,0,0-.35,1.39,1.92,1.92,0,0,0,.81,1.21,1.85,1.85,0,0,0,1.39.36,1.74,1.74,0,0,0,1.16-.72,1.76,1.76,0,0,0,.32-1.38,1.87,1.87,0,0,0-.78-1.21A1.84,1.84,0,0,0,455,393,1.64,1.64,0,0,0,453.81,393.65Z"/></g><g id="Watermark"><rect class="cls-1" x="438.45" y="416.78" width="123.09" height="46.3"/><rect class="cls-10" x="444.86" y="424.61" width="62.89" height="30.62"/><rect class="cls-10" x="507.75" y="424.61" width="47.39" height="30.62"/><path class="cls-11" d="M466.48,430.71l-2.79,18.92H461l-1.55-11-1.53,11h-2.74l-2.8-18.92h2.51l1.79,14.18,1.79-14.18h2l1.79,14.18L464,430.71Z"/><path class="cls-11" d="M467.93,449.63V430.71h2.53v18.92Z"/><path class="cls-11" d="M472.83,430.71h5q2.9,0,2.9,3.24v4.67c0,1.65-.51,2.69-1.51,3.13l1.77,7.88h-2.4L476.89,442h-1.53v7.64h-2.53Zm2.53,9.12H477c.76,0,1.14-.46,1.14-1.37v-4.08c0-.92-.38-1.37-1.14-1.37h-1.66Z"/><path class="cls-11" d="M486.82,433v16.62h-2.53V433h-2.42v-2.3h7.38V433Z"/><path class="cls-11" d="M496.34,449.63V441h-3.11v8.59H490.7V430.71h2.53v8h3.11v-8h2.53v18.92Z"/><path class="cls-11" d="M516.31,430.71h5q2.9,0,2.89,3.24v4.67c0,1.65-.5,2.69-1.5,3.13l1.77,7.88H522L520.37,442h-1.53v7.64h-2.53Zm2.53,9.12h1.66c.76,0,1.13-.46,1.13-1.37v-4.08c0-.92-.37-1.37-1.13-1.37h-1.66Z"/><path class="cls-11" d="M528.67,449.63h-2.53V434q0-3.24,3-3.24h1.9q3,0,3,3.24v15.68h-2.53V442.7h-2.9Zm2.9-9.22v-6.3a1,1,0,0,0-1.11-1.1h-.68a1,1,0,0,0-1.11,1.1v6.3Z"/><path class="cls-11" d="M536.34,449.63V430.71h2.53v18.92Z"/><path class="cls-11" d="M547.24,449.63h-6V430.71h2.53v16.63h3.47Z"/></g></svg>