<?xml version="1.0" encoding="utf-8"?>
<!-- Generator: Adobe Illustrator 25.2.3, SVG Export Plug-In . SVG Version: 6.00 Build 0)  -->
<svg version="1.1" xmlns="http://www.w3.org/2000/svg" xmlns:xlink="http://www.w3.org/1999/xlink" x="0px" y="0px"
	 viewBox="0 0 1000 800" style="enable-background:new 0 0 1000 800;" xml:space="preserve">
<style type="text/css">
	.st0{fill:#F0F0F0;}
	.st1{fill:none;stroke:#221E1F;stroke-width:1.0614;}
	.st2{fill:#221E1F;}
	.st3{fill:none;stroke:#221E1F;stroke-width:1.0614;stroke-dasharray:12.8405,6.4722;}
	.st4{fill:none;stroke:#000000;stroke-width:1.404;}
	.st5{fill:none;stroke:#000000;stroke-width:0.975;}
	.st6{fill:none;stroke:#000000;stroke-width:0.975;stroke-dasharray:11.5538,5.7038;}
	.st7{fill:none;stroke:#000000;stroke-width:0.975;stroke-miterlimit:10;}
	.st8{fill:none;stroke:#221E1F;stroke-width:0.8906;}
	.st9{fill:none;stroke:#221E1F;stroke-width:0.8819;}
	.st10{clip-path:url(#SVGID_2_);fill:none;stroke:#221E1F;stroke-width:0.8819;}
	.st11{clip-path:url(#SVGID_4_);fill:none;stroke:#221E1F;stroke-width:0.8819;}
	.st12{fill:#303030;}
	.st13{fill:none;stroke:#303030;stroke-width:0.8906;stroke-miterlimit:10;}
	.st14{clip-path:url(#SVGID_6_);fill:none;stroke:#221E1F;stroke-width:0.8906;}
	.st15{fill:none;stroke:#221E1F;stroke-width:0.8906;stroke-dasharray:23.0235,6.997;}
	.st16{fill:none;stroke:#221E1F;stroke-width:0.8906;stroke-dasharray:19.498,3.4714;}
	.st17{fill:none;stroke:#221E1F;stroke-width:0.8906;stroke-dasharray:21.3897,6.2234;}
	.st18{clip-path:url(#SVGID_8_);fill:none;stroke:#221E1F;stroke-width:0.8025;}
	.st19{fill:none;stroke:#221E1F;stroke-width:0.7299;}
	.st20{clip-path:url(#SVGID_10_);fill:none;stroke:#221E1F;stroke-width:0.8025;}
	.st21{fill:none;stroke:#221E1F;stroke-width:0.7726;}
	.st22{fill:none;stroke:#221E1F;stroke-width:0.8025;}
	.st23{fill:none;stroke:#221E1F;stroke-width:0.8025;stroke-dasharray:21.5886,6.6505;}
	.st24{fill:none;stroke:#303030;stroke-width:0.8025;stroke-miterlimit:10;}
	.st25{fill:none;stroke:#221E1F;stroke-width:0.811;stroke-dasharray:21.8106,6.6911;}
	.st26{fill:none;stroke:#221E1F;stroke-width:0.811;stroke-dasharray:16.7651,1.6456;}
	.st27{fill:none;stroke:#221E1F;stroke-width:0.811;}
	.st28{clip-path:url(#SVGID_12_);fill:#221E1F;}
	.st29{fill:none;stroke:#221E1F;stroke-width:1.2695;}
	.st30{fill:none;stroke:#221E1F;stroke-width:0.8814;}
	.st31{fill:none;stroke:#221E1F;stroke-width:1.4133;}
	.st32{fill:none;stroke:#221E1F;stroke-width:0.9807;}
	.st33{fill:none;stroke:#221E1F;stroke-width:0.9807;stroke-dasharray:13.5825,6.7924;}
	.st34{fill:none;stroke:#221E1F;stroke-width:0.9807;stroke-dasharray:19.5641,12.5429;}
	.st35{fill:none;stroke:#221E1F;stroke-width:1.1332;}
	.st36{fill:none;stroke:#221E1F;stroke-width:1.7102;}
	.st37{fill:none;stroke:#221E1F;stroke-width:1.2031;stroke-linecap:round;stroke-linejoin:round;stroke-miterlimit:10;}
	.st38{fill:none;stroke:#221E1F;stroke-width:1.2031;}
	.st39{fill:none;stroke:#221E1F;stroke-width:1.2031;stroke-miterlimit:10;}
	
		.st40{fill:none;stroke:#221E1F;stroke-width:1.2031;stroke-linecap:round;stroke-linejoin:round;stroke-miterlimit:10;stroke-dasharray:9.1021,1.1746,1.1746,1.1746;stroke-dashoffset:10;}
	
		.st41{fill:none;stroke:#221E1F;stroke-width:1.2031;stroke-linecap:round;stroke-linejoin:round;stroke-miterlimit:10;stroke-dasharray:9.1228,1.1953,1.1953,1.1953;stroke-dashoffset:10;}
	.st42{fill:none;stroke:#221E1F;stroke-width:1.0246;}
	.st43{fill:none;stroke:#221E1F;stroke-width:1.0246;stroke-dasharray:5.7593,5.7593;}
	.st44{fill:none;stroke:#221E1F;stroke-width:1.0582;}
	.st45{fill:none;stroke:#221E1F;stroke-width:1.0246;stroke-dasharray:5.8059,5.8059;}
	.st46{fill:none;stroke:#241F21;stroke-width:0.8839;}
	.st47{fill:#241F21;}
	.st48{fill:none;stroke:#241F21;stroke-width:1.2533;}
	.st49{fill:none;stroke:#241F21;stroke-width:0.7133;stroke-linecap:round;stroke-linejoin:round;stroke-miterlimit:10;}
	.st50{fill:none;stroke:#241F21;stroke-width:0.8839;stroke-miterlimit:10;}
	
		.st51{clip-path:url(#SVGID_14_);fill:none;stroke:#241F21;stroke-width:0.8839;stroke-linecap:round;stroke-linejoin:round;stroke-miterlimit:10;}
	.st52{clip-path:url(#SVGID_14_);fill:none;stroke:#241F21;stroke-width:0.8839;stroke-miterlimit:10;}
	.st53{fill:none;stroke:#241F21;stroke-width:0.8839;stroke-linecap:round;stroke-linejoin:round;stroke-miterlimit:10;}
	.st54{fill:none;stroke:#241F21;stroke-width:0.7642;stroke-linecap:round;stroke-linejoin:round;stroke-miterlimit:10;}
	
		.st55{fill:none;stroke:#241F21;stroke-width:0.7133;stroke-linecap:round;stroke-linejoin:round;stroke-miterlimit:10;stroke-dasharray:9.9652,1.3195,1.3195,1.3195;stroke-dashoffset:11;}
	
		.st56{fill:none;stroke:#241F21;stroke-width:0.7133;stroke-linecap:round;stroke-linejoin:round;stroke-miterlimit:10;stroke-dasharray:9.7079,1.0622,1.0622,1.0622;stroke-dashoffset:10;}
	.st57{fill:none;stroke:#241F21;stroke-width:0.8839;stroke-dasharray:5.5991,5.5991;}
	.st58{fill:none;stroke:#241F21;stroke-width:0.7515;stroke-dasharray:5.6857,5.6857;}
	.st59{fill:none;stroke:#221E1F;stroke-width:1.0101;stroke-miterlimit:10;}
	.st60{fill:none;stroke:#221E1F;stroke-width:1.0012;}
	.st61{fill:none;stroke:#221E1F;stroke-width:0.9081;}
	.st62{fill:none;stroke:#221E1F;stroke-width:1.0385;}
	.st63{fill:none;stroke:#221E1F;stroke-width:0.9081;stroke-dasharray:20.8407,6.1278;}
	.st64{fill:none;stroke:#221E1F;stroke-width:1.406;}
	.st65{fill:none;stroke:#221E1F;stroke-width:0.9906;}
	.st66{fill:none;stroke:#221E1F;stroke-width:0.9887;}
	.st67{fill:none;stroke:#221E1F;stroke-width:0.8443;}
	.st68{fill:none;stroke:#221E1F;stroke-width:0.8443;stroke-dasharray:4.4655,4.4655;}
	.st69{fill:none;stroke:#221E1F;stroke-width:1.7608;}
	.st70{fill:none;stroke:#221E1F;stroke-width:1.0549;}
	.st71{clip-path:url(#SVGID_16_);fill:none;stroke:#221E1F;stroke-width:1.0549;}
	.st72{fill:none;stroke:#221E1F;stroke-width:1.0549;stroke-dasharray:5.538,5.538;}
	.st73{clip-path:url(#SVGID_18_);}
	.st74{clip-path:url(#SVGID_20_);}
	.st75{fill:#F0F0F0;stroke:#CCCCCC;stroke-miterlimit:10;}
	.st76{fill:#CCCCCC;}
</style>
<g id="Flat">
	<g>
		<g>
			<path class="st2" d="M510.7,743.6V738l-5.1-7.6h2.1l2.6,4c0.5,0.7,0.9,1.5,1.3,2.2c0.4-0.7,0.9-1.5,1.5-2.3l2.5-3.9h2l-5.3,7.6
				v5.6H510.7z"/>
			<path class="st2" d="M510.7,62.7v-5.6l-5.1-7.6h2.1l2.6,4c0.5,0.7,0.9,1.5,1.3,2.2c0.4-0.7,0.9-1.5,1.5-2.3l2.5-3.9h2l-5.3,7.6
				v5.6H510.7z"/>
			<path class="st0" d="M822.1,700c0.5-36.3-15.9-44.6-18.2-45.7c-5.3-2.4-107.9-25.9-157.8-37.4c-49.8-11.4-67.5-48.8-68.5-77.3
				c-1.8-50.4-2.7-119,0-173.9c3.3-66.8,59.9-104.3,104.8-116.8c40.2-11.2,35.9-22.6,36.8-81.5c0.9-54.8,1-81.5-33.2-89.3
				c-11.5-2.6-96.3-8.4-185.4-8.3c-89-0.1-173.9,5.7-185.4,8.3c-34.2,7.7-34.1,34.5-33.2,89.3c0.9,58.8-3.4,70.3,36.8,81.5
				c44.9,12.5,101.6,50,104.8,116.8c2.7,54.8,1.8,123.4,0,173.9c-1,28.5-18.7,65.9-68.5,77.3c-49.8,11.4-153.6,33.2-157.8,37.4
				c-4.2,4.2-18.7,9.3-18.2,45.7c0.1,7.8-1,20.8,5.2,20.8h316.2h316.2C823.1,720.8,822,707.8,822.1,700"/>
			<path class="st61" d="M822.1,700c0.5-36.3-15.9-44.6-18.2-45.7c-5.3-2.4-107.9-25.9-157.8-37.4c-49.8-11.4-67.5-48.8-68.5-77.3
				c-1.8-50.4-2.7-119,0-173.9c3.3-66.8,59.9-104.3,104.8-116.8c40.2-11.2,35.9-22.6,36.8-81.5c0.9-54.8,1-81.5-33.2-89.3
				c-11.5-2.6-96.3-8.4-185.4-8.3c-89-0.1-173.9,5.7-185.4,8.3c-34.2,7.7-34.1,34.5-33.2,89.3c0.9,58.8-3.4,70.3,36.8,81.5
				c44.9,12.5,101.6,50,104.8,116.8c2.7,54.8,1.8,123.4,0,173.9c-1,28.5-18.7,65.9-68.5,77.3c-49.8,11.4-153.6,33.2-157.8,37.4
				c-4.2,4.2-18.7,9.3-18.2,45.7c0.1,7.8-1,20.8,5.2,20.8h316.2h316.2C823.1,720.8,822,707.8,822.1,700z"/>
		</g>
		<path class="st61" d="M719.7,15.2l-0.1,139.7 M282.1,15.2v116.6"/>
		<polyline class="st62" points="451,88.9 451,131.9 490.8,131.9 		"/>
		<polygon class="st2" points="446.7,91.9 451.2,75.1 455.7,92 		"/>
		<polyline class="st61" points="605,579.3 649,544.6 719.7,544.6 		"/>
		<polygon class="st2" points="609.4,580.6 595.4,586.7 604.5,574.4 		"/>
		<polyline class="st62" points="697.7,228.5 665.2,199.3 595,199.3 		"/>
		<polygon class="st2" points="698.3,223.2 707.8,237.8 692.2,229.9 		"/>
		<polyline class="st62" points="697,98.8 665.4,124.8 595.2,124.8 		"/>
		<polygon class="st2" points="691.8,97.5 707.7,90.2 697.6,104.4 		"/>
		<polyline class="st61" points="397.3,319.4 347.5,350.3 277.2,350.3 		"/>
		<polygon class="st2" points="393,317.6 407.7,313.2 397.2,324.3 		"/>
		<polyline class="st61" points="803,670.2 770.1,697.2 699.9,697.2 		"/>
		<polygon class="st2" points="798.5,668.9 812.4,662.6 803.5,675.1 		"/>
		<line class="st61" x1="135.3" y1="274.8" x2="135.3" y2="81.8"/>
		<polygon class="st2" points="139.1,272.1 135.2,286.8 131.2,272.1 		"/>
		<polygon class="st2" points="139.1,84.5 135.2,69.8 131.2,84.5 		"/>
		<line class="st61" x1="779.6" y1="228.8" x2="779.6" y2="81.7"/>
		<polygon class="st2" points="783.4,226.1 779.4,240.9 775.5,226.1 		"/>
		<polygon class="st2" points="783.4,84.4 779.4,69.6 775.5,84.4 		"/>
		<line class="st61" x1="135.3" y1="708.7" x2="135.3" y2="596.6"/>
		<polygon class="st2" points="139.1,706 135.2,720.8 131.2,706 		"/>
		<polygon class="st2" points="139.1,599.3 135.2,584.6 131.2,599.3 		"/>
		<line class="st61" x1="164.8" y1="665.7" x2="164.8" y2="708.4"/>
		<polygon class="st2" points="161,668.4 165,653.6 168.9,668.4 		"/>
		<polygon class="st2" points="161,705.7 165,720.5 168.9,705.7 		"/>
		<line class="st61" x1="135.3" y1="573.1" x2="135.3" y2="303.8"/>
		<polygon class="st2" points="139.1,570.4 135.2,585.2 131.2,570.4 		"/>
		<polygon class="st2" points="139.1,306.5 135.2,291.7 131.2,306.5 		"/>
		<line class="st61" x1="863" y1="708.6" x2="863" y2="413.6"/>
		<polygon class="st2" points="866.8,705.9 862.8,720.7 858.8,705.9 		"/>
		<polygon class="st2" points="866.8,416.3 862.8,401.5 858.8,416.3 		"/>
		<g>
			<path class="st61" d="M822.1,702.9v83.4 M179.4,700v86.3 M127.5,720.8h799.2 M127.5,585.2h369.8 M702.7,241.5h83.5 M576.7,287.2
				H698 M595.5,586.8h98.7 M157.4,653.6h41.5 M127.5,286.8h370.2 M914.2,69.3H127.5 M498,400.1h369.7"/>
		</g>
		<g>
			<path class="st12" d="M281.2,343.7v-9.4h4.1c0.8,0,1.5,0.1,1.9,0.3c0.4,0.2,0.8,0.5,1,0.9c0.3,0.4,0.4,0.9,0.4,1.4
				c0,0.7-0.2,1.2-0.6,1.7c-0.4,0.5-1.1,0.7-2,0.9c0.3,0.2,0.6,0.3,0.7,0.5c0.4,0.3,0.7,0.7,1,1.2l1.6,2.5h-1.6l-1.2-1.9
				c-0.4-0.6-0.7-1-0.9-1.3c-0.2-0.3-0.4-0.5-0.6-0.6c-0.2-0.1-0.4-0.2-0.6-0.2c-0.1,0-0.4,0-0.7,0h-1.4v4.2H281.2z M282.4,338.5
				h2.7c0.6,0,1-0.1,1.3-0.2c0.3-0.1,0.6-0.3,0.7-0.6s0.2-0.5,0.2-0.8c0-0.4-0.2-0.8-0.5-1.1c-0.3-0.3-0.8-0.4-1.5-0.4h-3V338.5z"/>
			<path class="st12" d="M294.4,343.7h-1.1v-7.3c-0.3,0.3-0.6,0.5-1.1,0.8c-0.4,0.3-0.9,0.5-1.2,0.6v-1.1c0.6-0.3,1.2-0.7,1.7-1.1
				c0.5-0.4,0.8-0.8,1-1.3h0.7V343.7z"/>
		</g>
		<g>
			<path class="st12" d="M297.4,339.1c0-1.1,0.1-2,0.3-2.7s0.6-1.2,1-1.6c0.4-0.4,1-0.5,1.7-0.5c0.5,0,0.9,0.1,1.3,0.3
				c0.4,0.2,0.7,0.5,0.9,0.9c0.2,0.4,0.4,0.8,0.6,1.4c0.1,0.5,0.2,1.3,0.2,2.2c0,1.1-0.1,2-0.3,2.7s-0.6,1.2-1,1.6
				c-0.4,0.4-1,0.6-1.7,0.6c-0.9,0-1.6-0.3-2.1-1C297.7,342.1,297.4,340.9,297.4,339.1z M298.6,339.1c0,1.5,0.2,2.6,0.5,3.1
				c0.4,0.5,0.8,0.8,1.3,0.8s1-0.3,1.3-0.8c0.4-0.5,0.5-1.5,0.5-3.1c0-1.5-0.2-2.6-0.5-3.1c-0.4-0.5-0.8-0.8-1.3-0.8
				c-0.5,0-0.9,0.2-1.3,0.7C298.7,336.5,298.6,337.6,298.6,339.1z"/>
		</g>
		<g>
			<path class="st12" d="M459.1,125v-9.4h4.1c0.8,0,1.5,0.1,1.9,0.3c0.4,0.2,0.8,0.5,1,0.9c0.3,0.4,0.4,0.9,0.4,1.4
				c0,0.7-0.2,1.2-0.6,1.7c-0.4,0.5-1.1,0.7-2,0.9c0.3,0.2,0.6,0.3,0.7,0.5c0.4,0.3,0.7,0.7,1,1.2l1.6,2.5h-1.6l-1.2-1.9
				c-0.4-0.6-0.7-1-0.9-1.3c-0.2-0.3-0.4-0.5-0.6-0.6c-0.2-0.1-0.4-0.2-0.6-0.2c-0.1,0-0.4,0-0.7,0h-1.4v4.2H459.1z M460.4,119.8
				h2.7c0.6,0,1-0.1,1.3-0.2c0.3-0.1,0.6-0.3,0.7-0.6s0.2-0.5,0.2-0.8c0-0.4-0.2-0.8-0.5-1.1c-0.3-0.3-0.8-0.4-1.5-0.4h-3V119.8z"/>
			<path class="st12" d="M468.1,122.6l1.2-0.1c0.1,0.6,0.3,1,0.6,1.3c0.3,0.3,0.7,0.4,1.2,0.4c0.6,0,1-0.2,1.4-0.6s0.6-1,0.6-1.7
				c0-0.7-0.2-1.2-0.6-1.6c-0.4-0.4-0.8-0.6-1.4-0.6c-0.4,0-0.7,0.1-1,0.3s-0.5,0.4-0.7,0.7l-1.1-0.1l0.9-4.8h4.7v1.1h-3.7l-0.5,2.5
				c0.6-0.4,1.2-0.6,1.8-0.6c0.8,0,1.5,0.3,2.1,0.8s0.8,1.3,0.8,2.2c0,0.8-0.2,1.6-0.7,2.2c-0.6,0.8-1.4,1.1-2.5,1.1
				c-0.9,0-1.5-0.2-2.1-0.7S468.2,123.3,468.1,122.6z"/>
			<path class="st12" d="M475.4,120.4c0-1.1,0.1-2,0.3-2.7s0.6-1.2,1-1.6c0.4-0.4,1-0.5,1.7-0.5c0.5,0,0.9,0.1,1.3,0.3
				c0.4,0.2,0.7,0.5,0.9,0.9c0.2,0.4,0.4,0.8,0.6,1.4c0.1,0.5,0.2,1.3,0.2,2.2c0,1.1-0.1,2-0.3,2.7s-0.6,1.2-1,1.6
				c-0.4,0.4-1,0.6-1.7,0.6c-0.9,0-1.6-0.3-2.1-1C475.7,123.4,475.4,122.2,475.4,120.4z M476.5,120.4c0,1.5,0.2,2.6,0.5,3.1
				c0.4,0.5,0.8,0.8,1.3,0.8s1-0.3,1.3-0.8c0.4-0.5,0.5-1.5,0.5-3.1c0-1.5-0.2-2.6-0.5-3.1c-0.4-0.5-0.8-0.8-1.3-0.8
				c-0.5,0-0.9,0.2-1.3,0.7C476.7,117.8,476.5,118.9,476.5,120.4z"/>
			<path class="st12" d="M482.6,120.4c0-1.1,0.1-2,0.3-2.7s0.6-1.2,1-1.6c0.4-0.4,1-0.5,1.7-0.5c0.5,0,0.9,0.1,1.3,0.3
				c0.4,0.2,0.7,0.5,0.9,0.9c0.2,0.4,0.4,0.8,0.6,1.4c0.1,0.5,0.2,1.3,0.2,2.2c0,1.1-0.1,2-0.3,2.7s-0.6,1.2-1,1.6
				c-0.4,0.4-1,0.6-1.7,0.6c-0.9,0-1.6-0.3-2.1-1C482.9,123.4,482.6,122.2,482.6,120.4z M483.8,120.4c0,1.5,0.2,2.6,0.5,3.1
				c0.4,0.5,0.8,0.8,1.3,0.8s1-0.3,1.3-0.8c0.4-0.5,0.5-1.5,0.5-3.1c0-1.5-0.2-2.6-0.5-3.1c-0.4-0.5-0.8-0.8-1.3-0.8
				c-0.5,0-0.9,0.2-1.3,0.7C484,117.8,483.8,118.9,483.8,120.4z"/>
		</g>
		<g>
			<path class="st12" d="M674.2,539.5v-9.4h4.1c0.8,0,1.5,0.1,1.9,0.3s0.8,0.5,1,0.9c0.3,0.4,0.4,0.9,0.4,1.4c0,0.7-0.2,1.2-0.6,1.7
				c-0.4,0.5-1.1,0.7-2,0.9c0.3,0.2,0.6,0.3,0.7,0.5c0.4,0.3,0.7,0.7,1,1.2l1.6,2.5h-1.6l-1.2-1.9c-0.4-0.6-0.7-1-0.9-1.3
				c-0.2-0.3-0.4-0.5-0.6-0.6c-0.2-0.1-0.4-0.2-0.6-0.2c-0.1,0-0.4,0-0.7,0h-1.4v4.2H674.2z M675.4,534.3h2.7c0.6,0,1-0.1,1.3-0.2
				c0.3-0.1,0.6-0.3,0.7-0.6c0.2-0.3,0.2-0.5,0.2-0.8c0-0.4-0.2-0.8-0.5-1.1c-0.3-0.3-0.8-0.4-1.5-0.4h-3V534.3z"/>
			<path class="st12" d="M687.4,539.5h-1.1v-7.3c-0.3,0.3-0.6,0.5-1.1,0.8c-0.4,0.3-0.9,0.5-1.2,0.6v-1.1c0.6-0.3,1.2-0.7,1.7-1.1
				c0.5-0.4,0.8-0.8,1-1.3h0.7V539.5z"/>
			<path class="st12" d="M690.5,537.3l1.1-0.1c0.1,0.5,0.3,0.9,0.5,1.1c0.3,0.2,0.6,0.4,1,0.4c0.4,0,0.7-0.1,0.9-0.2
				s0.5-0.4,0.7-0.6c0.2-0.3,0.3-0.6,0.4-1.1c0.1-0.5,0.2-0.9,0.2-1.4c0-0.1,0-0.1,0-0.2c-0.2,0.4-0.5,0.7-0.9,0.9
				c-0.4,0.2-0.8,0.3-1.3,0.3c-0.8,0-1.4-0.3-2-0.8s-0.8-1.3-0.8-2.2c0-0.9,0.3-1.7,0.8-2.3c0.6-0.6,1.3-0.9,2.1-0.9
				c0.6,0,1.2,0.2,1.7,0.5c0.5,0.3,0.9,0.8,1.1,1.4c0.3,0.6,0.4,1.5,0.4,2.6c0,1.2-0.1,2.1-0.4,2.9c-0.3,0.7-0.6,1.2-1.2,1.6
				s-1.1,0.6-1.8,0.6c-0.7,0-1.3-0.2-1.8-0.6S690.6,538.1,690.5,537.3z M695.2,533.2c0-0.7-0.2-1.2-0.5-1.6
				c-0.4-0.4-0.8-0.6-1.3-0.6c-0.5,0-1,0.2-1.3,0.6s-0.6,1-0.6,1.6c0,0.6,0.2,1.1,0.5,1.5c0.4,0.4,0.8,0.6,1.3,0.6
				c0.5,0,1-0.2,1.3-0.6C695.1,534.4,695.2,533.9,695.2,533.2z"/>
			<path class="st12" d="M698.3,539.5v-1.3h1.3v1.3H698.3z"/>
			<path class="st12" d="M701.3,534.9c0-1.1,0.1-2,0.3-2.7c0.2-0.7,0.6-1.2,1-1.6s1-0.5,1.7-0.5c0.5,0,0.9,0.1,1.3,0.3
				c0.4,0.2,0.7,0.5,0.9,0.9c0.2,0.4,0.4,0.8,0.6,1.4s0.2,1.3,0.2,2.2c0,1.1-0.1,2-0.3,2.7c-0.2,0.7-0.6,1.2-1,1.6
				c-0.4,0.4-1,0.6-1.7,0.6c-0.9,0-1.6-0.3-2.1-1C701.6,537.9,701.3,536.6,701.3,534.9z M702.5,534.9c0,1.5,0.2,2.6,0.5,3.1
				c0.4,0.5,0.8,0.8,1.3,0.8s1-0.3,1.3-0.8c0.4-0.5,0.5-1.5,0.5-3.1c0-1.5-0.2-2.6-0.5-3.1c-0.4-0.5-0.8-0.8-1.3-0.8
				c-0.5,0-0.9,0.2-1.3,0.7C702.7,532.3,702.5,533.3,702.5,534.9z"/>
			<path class="st12" d="M708.5,537l1.2-0.1c0.1,0.6,0.3,1,0.6,1.3c0.3,0.3,0.7,0.4,1.2,0.4c0.6,0,1-0.2,1.4-0.6s0.6-1,0.6-1.7
				c0-0.7-0.2-1.2-0.6-1.6s-0.8-0.6-1.4-0.6c-0.4,0-0.7,0.1-1,0.3c-0.3,0.2-0.5,0.4-0.7,0.7l-1.1-0.1l0.9-4.8h4.7v1.1h-3.7l-0.5,2.5
				c0.6-0.4,1.2-0.6,1.8-0.6c0.8,0,1.5,0.3,2.1,0.8c0.6,0.6,0.8,1.3,0.8,2.2c0,0.8-0.2,1.6-0.7,2.2c-0.6,0.8-1.4,1.1-2.5,1.1
				c-0.9,0-1.5-0.2-2.1-0.7C708.9,538.5,708.6,537.8,708.5,537z"/>
		</g>
		<g>
			<path class="st12" d="M705.4,608.8h-1.1v-7.3c-0.3,0.3-0.6,0.5-1.1,0.8c-0.4,0.3-0.9,0.5-1.2,0.6v-1.1c0.6-0.3,1.2-0.7,1.7-1.1
				c0.5-0.4,0.8-0.8,1-1.3h0.7V608.8z"/>
			<path class="st12" d="M714.4,607.7v1.1h-6.2c0-0.3,0-0.5,0.1-0.8c0.2-0.4,0.4-0.8,0.8-1.2s0.8-0.9,1.5-1.4c1-0.8,1.7-1.5,2.1-2
				s0.5-0.9,0.5-1.4c0-0.5-0.2-0.8-0.5-1.2c-0.3-0.3-0.7-0.5-1.3-0.5c-0.6,0-1,0.2-1.3,0.5c-0.3,0.3-0.5,0.8-0.5,1.4l-1.2-0.1
				c0.1-0.9,0.4-1.6,0.9-2s1.2-0.7,2.1-0.7c0.9,0,1.6,0.2,2.1,0.7c0.5,0.5,0.8,1.1,0.8,1.9c0,0.4-0.1,0.7-0.2,1.1s-0.4,0.7-0.8,1.1
				c-0.4,0.4-0.9,0.9-1.8,1.6c-0.7,0.6-1.1,1-1.3,1.2c-0.2,0.2-0.4,0.4-0.5,0.6H714.4z"/>
			<path class="st12" d="M716.3,608.8v-1.3h1.3v1.3H716.3z"/>
			<path class="st12" d="M723,608.8v-2.2h-4.1v-1.1l4.3-6.1h0.9v6.1h1.3v1.1h-1.3v2.2H723z M723,605.5v-4.2l-2.9,4.2H723z"/>
			<path class="st12" d="M726.6,600.7v-1.1h6.1v0.9c-0.6,0.6-1.2,1.5-1.8,2.5s-1,2.1-1.4,3.2c-0.2,0.8-0.4,1.6-0.4,2.6h-1.2
				c0-0.7,0.2-1.6,0.4-2.7c0.3-1,0.7-2,1.2-3c0.5-1,1.1-1.8,1.6-2.4H726.6z"/>
			<path class="st12" d="M734.1,601.1c0-0.5,0.2-0.9,0.5-1.3s0.8-0.5,1.2-0.5c0.5,0,0.9,0.2,1.3,0.5s0.5,0.8,0.5,1.3
				s-0.2,0.9-0.5,1.3s-0.8,0.5-1.3,0.5c-0.5,0-0.9-0.2-1.2-0.5S734.1,601.6,734.1,601.1z M734.8,601.1c0,0.3,0.1,0.6,0.3,0.8
				c0.2,0.2,0.5,0.3,0.8,0.3c0.3,0,0.5-0.1,0.8-0.3c0.2-0.2,0.3-0.5,0.3-0.8s-0.1-0.6-0.3-0.8c-0.2-0.2-0.5-0.3-0.8-0.3
				c-0.3,0-0.6,0.1-0.8,0.3C734.9,600.5,734.8,600.8,734.8,601.1z"/>
		</g>
		<g>
			<path class="st12" d="M700,694v-9.4h4.1c0.8,0,1.5,0.1,1.9,0.3s0.8,0.5,1,0.9c0.3,0.4,0.4,0.9,0.4,1.4c0,0.7-0.2,1.2-0.6,1.7
				c-0.4,0.5-1.1,0.7-2,0.9c0.3,0.2,0.6,0.3,0.7,0.5c0.4,0.3,0.7,0.7,1,1.2l1.6,2.5h-1.6l-1.2-1.9c-0.4-0.6-0.7-1-0.9-1.3
				c-0.2-0.3-0.4-0.5-0.6-0.6c-0.2-0.1-0.4-0.2-0.6-0.2c-0.1,0-0.4,0-0.7,0h-1.4v4.2H700z M701.3,688.8h2.7c0.6,0,1-0.1,1.3-0.2
				c0.3-0.1,0.6-0.3,0.7-0.6c0.2-0.3,0.2-0.5,0.2-0.8c0-0.4-0.2-0.8-0.5-1.1c-0.3-0.3-0.8-0.4-1.5-0.4h-3V688.8z"/>
			<path class="st12" d="M713.3,694h-1.1v-7.3c-0.3,0.3-0.6,0.5-1.1,0.8c-0.4,0.3-0.9,0.5-1.2,0.6v-1.1c0.6-0.3,1.2-0.7,1.7-1.1
				c0.5-0.4,0.8-0.8,1-1.3h0.7V694z"/>
		</g>
		<g>
			<path class="st12" d="M716.2,689.4c0-1.1,0.1-2,0.3-2.7c0.2-0.7,0.6-1.2,1-1.6s1-0.5,1.7-0.5c0.5,0,0.9,0.1,1.3,0.3
				c0.4,0.2,0.7,0.5,0.9,0.9c0.2,0.4,0.4,0.8,0.6,1.4s0.2,1.3,0.2,2.2c0,1.1-0.1,2-0.3,2.7c-0.2,0.7-0.6,1.2-1,1.6
				c-0.4,0.4-1,0.6-1.7,0.6c-0.9,0-1.6-0.3-2.1-1C716.5,692.4,716.2,691.1,716.2,689.4z M717.4,689.4c0,1.5,0.2,2.6,0.5,3.1
				c0.4,0.5,0.8,0.8,1.3,0.8s1-0.3,1.3-0.8c0.4-0.5,0.5-1.5,0.5-3.1c0-1.5-0.2-2.6-0.5-3.1c-0.4-0.5-0.8-0.8-1.3-0.8
				c-0.5,0-0.9,0.2-1.3,0.7C717.6,686.8,717.4,687.8,717.4,689.4z"/>
		</g>
		<g>
			<path class="st12" d="M128.3,187.2l-0.1-1.2c0.6-0.1,1-0.3,1.3-0.6c0.3-0.3,0.4-0.7,0.4-1.2c0-0.6-0.2-1-0.6-1.4s-1-0.6-1.7-0.6
				c-0.7,0-1.2,0.2-1.6,0.6c-0.4,0.4-0.6,0.9-0.6,1.4c0,0.4,0.1,0.7,0.3,1c0.2,0.3,0.4,0.5,0.7,0.7l-0.1,1.1l-4.8-0.9v-4.7h1.1v3.7
				l2.5,0.5c-0.4-0.6-0.6-1.2-0.6-1.8c0-0.8,0.3-1.5,0.8-2.1c0.6-0.6,1.3-0.8,2.2-0.8c0.8,0,1.6,0.2,2.2,0.7
				c0.8,0.6,1.1,1.4,1.1,2.5c0,0.9-0.2,1.5-0.7,2.1C129.7,186.9,129.1,187.2,128.3,187.2z"/>
			<path class="st12" d="M126.1,180c-1.1,0-2-0.1-2.7-0.3c-0.7-0.2-1.2-0.6-1.6-1s-0.5-1-0.5-1.7c0-0.5,0.1-0.9,0.3-1.3
				c0.2-0.4,0.5-0.7,0.9-0.9c0.4-0.2,0.8-0.4,1.4-0.6c0.5-0.1,1.3-0.2,2.2-0.2c1.1,0,2,0.1,2.7,0.3c0.7,0.2,1.2,0.6,1.6,1
				s0.6,1,0.6,1.7c0,0.9-0.3,1.6-1,2.1C129.1,179.7,127.9,180,126.1,180z M126.1,178.8c1.5,0,2.6-0.2,3.1-0.5
				c0.5-0.4,0.8-0.8,0.8-1.3s-0.3-1-0.8-1.3s-1.5-0.5-3.1-0.5c-1.5,0-2.6,0.2-3.1,0.5c-0.5,0.4-0.8,0.8-0.8,1.3
				c0,0.5,0.2,0.9,0.7,1.3C123.5,178.6,124.6,178.8,126.1,178.8z"/>
			<path class="st12" d="M130.7,172.1h-1.3v-1.3h1.3V172.1z"/>
			<path class="st12" d="M125.7,167.3c-0.2,0.5-0.4,0.8-0.7,1.1c-0.3,0.2-0.7,0.3-1.2,0.3c-0.7,0-1.3-0.2-1.7-0.7s-0.7-1.1-0.7-2
				c0-0.8,0.2-1.5,0.7-2c0.5-0.5,1.1-0.7,1.7-0.7c0.4,0,0.8,0.1,1.1,0.3c0.3,0.2,0.6,0.6,0.7,1c0.2-0.6,0.5-1,0.9-1.3
				c0.4-0.3,0.9-0.5,1.5-0.5c0.8,0,1.5,0.3,2,0.8c0.5,0.6,0.8,1.3,0.8,2.2c0,0.9-0.3,1.7-0.8,2.2c-0.5,0.6-1.2,0.8-2,0.8
				c-0.6,0-1.1-0.2-1.5-0.5C126.1,168.3,125.8,167.9,125.7,167.3z M123.7,167.5c0.4,0,0.8-0.1,1.1-0.4c0.3-0.3,0.4-0.7,0.4-1.1
				c0-0.4-0.1-0.8-0.4-1.1c-0.3-0.3-0.6-0.4-1-0.4c-0.4,0-0.8,0.1-1.1,0.4c-0.3,0.3-0.4,0.7-0.4,1.1c0,0.4,0.1,0.8,0.4,1.1
				C123,167.4,123.3,167.5,123.7,167.5z M128,167.9c0.3,0,0.6-0.1,1-0.2c0.3-0.2,0.5-0.4,0.7-0.7c0.2-0.3,0.3-0.6,0.3-1
				c0-0.5-0.2-1-0.5-1.4s-0.8-0.5-1.3-0.5c-0.6,0-1,0.2-1.4,0.6c-0.4,0.4-0.5,0.8-0.5,1.4c0,0.5,0.2,1,0.5,1.3
				C127,167.7,127.5,167.9,128,167.9z"/>
		</g>
		<g>
			<path class="st12" d="M126.1,161.8c-1.1,0-2-0.1-2.7-0.3c-0.7-0.2-1.2-0.6-1.6-1s-0.5-1-0.5-1.7c0-0.5,0.1-0.9,0.3-1.3
				c0.2-0.4,0.5-0.7,0.9-0.9c0.4-0.2,0.8-0.4,1.4-0.6c0.5-0.1,1.3-0.2,2.2-0.2c1.1,0,2,0.1,2.7,0.3c0.7,0.2,1.2,0.6,1.6,1
				s0.6,1,0.6,1.7c0,0.9-0.3,1.6-1,2.1C129.1,161.5,127.9,161.8,126.1,161.8z M126.1,160.6c1.5,0,2.6-0.2,3.1-0.5
				c0.5-0.4,0.8-0.8,0.8-1.3s-0.3-1-0.8-1.3s-1.5-0.5-3.1-0.5c-1.5,0-2.6,0.2-3.1,0.5c-0.5,0.4-0.8,0.8-0.8,1.3
				c0,0.5,0.2,0.9,0.7,1.3C123.5,160.4,124.6,160.6,126.1,160.6z"/>
		</g>
		<g>
			<path class="st12" d="M123.7,441.1l0.1,1.1c-0.5,0.1-0.8,0.2-1,0.4c-0.3,0.3-0.5,0.7-0.5,1.1c0,0.4,0.1,0.7,0.3,1
				c0.3,0.4,0.6,0.6,1.2,0.9c0.5,0.2,1.2,0.3,2.2,0.3c-0.4-0.3-0.7-0.6-0.9-1c-0.2-0.4-0.3-0.8-0.3-1.3c0-0.8,0.3-1.4,0.8-2
				c0.6-0.5,1.3-0.8,2.2-0.8c0.6,0,1.1,0.1,1.6,0.4c0.5,0.3,0.9,0.6,1.2,1c0.3,0.4,0.4,0.9,0.4,1.5c0,1-0.4,1.7-1.1,2.3
				s-1.9,0.9-3.5,0.9c-1.8,0-3.1-0.3-3.9-1c-0.7-0.6-1.1-1.4-1.1-2.4c0-0.7,0.2-1.3,0.6-1.8C122.4,441.5,122.9,441.2,123.7,441.1z
				 M127.7,445.8c0.4,0,0.8-0.1,1.1-0.3c0.4-0.2,0.6-0.4,0.8-0.7c0.2-0.3,0.3-0.6,0.3-1c0-0.5-0.2-0.9-0.6-1.3
				c-0.4-0.3-0.9-0.5-1.6-0.5c-0.6,0-1.2,0.2-1.5,0.5c-0.4,0.3-0.6,0.8-0.6,1.3c0,0.5,0.2,1,0.6,1.3
				C126.6,445.6,127.1,445.8,127.7,445.8z"/>
			<path class="st12" d="M128.6,439.7l-0.1-1.1c0.5-0.1,0.9-0.3,1.1-0.5c0.2-0.3,0.4-0.6,0.4-1c0-0.4-0.1-0.7-0.2-0.9
				s-0.4-0.5-0.6-0.7c-0.3-0.2-0.6-0.3-1.1-0.4c-0.5-0.1-0.9-0.2-1.4-0.2c-0.1,0-0.1,0-0.2,0c0.4,0.2,0.7,0.5,0.9,0.9
				c0.2,0.4,0.3,0.8,0.3,1.3c0,0.8-0.3,1.4-0.8,2s-1.3,0.8-2.2,0.8c-0.9,0-1.7-0.3-2.3-0.8c-0.6-0.6-0.9-1.3-0.9-2.1
				c0-0.6,0.2-1.2,0.5-1.7c0.3-0.5,0.8-0.9,1.4-1.1c0.6-0.3,1.5-0.4,2.6-0.4c1.2,0,2.1,0.1,2.9,0.4c0.7,0.3,1.2,0.6,1.6,1.2
				s0.6,1.1,0.6,1.8c0,0.7-0.2,1.3-0.6,1.8S129.3,439.6,128.6,439.7z M124.4,435c-0.7,0-1.2,0.2-1.6,0.5c-0.4,0.4-0.6,0.8-0.6,1.3
				c0,0.5,0.2,1,0.6,1.3s1,0.6,1.6,0.6c0.6,0,1.1-0.2,1.5-0.5c0.4-0.4,0.6-0.8,0.6-1.3c0-0.5-0.2-1-0.6-1.3
				C125.6,435.1,125.1,435,124.4,435z"/>
			<path class="st12" d="M130.7,431.9h-1.3v-1.3h1.3V431.9z"/>
			<path class="st12" d="M123.7,423l0.1,1.1c-0.5,0.1-0.8,0.2-1,0.4c-0.3,0.3-0.5,0.7-0.5,1.1c0,0.4,0.1,0.7,0.3,1
				c0.3,0.4,0.6,0.6,1.2,0.9c0.5,0.2,1.2,0.3,2.2,0.3c-0.4-0.3-0.7-0.6-0.9-1c-0.2-0.4-0.3-0.8-0.3-1.3c0-0.8,0.3-1.4,0.8-2
				c0.6-0.5,1.3-0.8,2.2-0.8c0.6,0,1.1,0.1,1.6,0.4c0.5,0.3,0.9,0.6,1.2,1c0.3,0.4,0.4,0.9,0.4,1.5c0,1-0.4,1.7-1.1,2.3
				s-1.9,0.9-3.5,0.9c-1.8,0-3.1-0.3-3.9-1c-0.7-0.6-1.1-1.4-1.1-2.4c0-0.7,0.2-1.3,0.6-1.8C122.4,423.3,122.9,423.1,123.7,423z
				 M127.7,427.7c0.4,0,0.8-0.1,1.1-0.3c0.4-0.2,0.6-0.4,0.8-0.7c0.2-0.3,0.3-0.6,0.3-1c0-0.5-0.2-0.9-0.6-1.3
				c-0.4-0.3-0.9-0.5-1.6-0.5c-0.6,0-1.2,0.2-1.5,0.5c-0.4,0.3-0.6,0.8-0.6,1.3c0,0.5,0.2,1,0.6,1.3
				C126.6,427.5,127.1,427.7,127.7,427.7z"/>
			<path class="st12" d="M128.3,421.7l-0.2-1.1c0.7-0.1,1.1-0.4,1.4-0.7c0.3-0.3,0.4-0.7,0.4-1.2c0-0.5-0.2-1-0.6-1.4
				c-0.4-0.4-0.8-0.6-1.4-0.6c-0.5,0-1,0.2-1.3,0.5c-0.3,0.3-0.5,0.8-0.5,1.3c0,0.2,0,0.5,0.1,0.8l-1-0.1c0-0.1,0-0.1,0-0.2
				c0-0.5-0.1-0.9-0.4-1.3c-0.3-0.4-0.6-0.6-1.2-0.6c-0.4,0-0.8,0.1-1,0.4s-0.4,0.7-0.4,1.1c0,0.4,0.1,0.8,0.4,1.1
				c0.3,0.3,0.7,0.5,1.3,0.6l-0.2,1.1c-0.8-0.1-1.4-0.5-1.8-1c-0.4-0.5-0.6-1.1-0.6-1.9c0-0.5,0.1-1,0.3-1.4c0.2-0.4,0.5-0.8,0.9-1
				c0.4-0.2,0.8-0.3,1.2-0.3c0.4,0,0.8,0.1,1.1,0.3c0.3,0.2,0.6,0.5,0.8,1c0.1-0.6,0.4-1,0.8-1.3s0.9-0.5,1.5-0.5
				c0.8,0,1.5,0.3,2.1,0.9c0.6,0.6,0.9,1.3,0.9,2.3c0,0.8-0.2,1.5-0.7,2C129.7,421.3,129,421.6,128.3,421.7z"/>
		</g>
		<g>
			<path class="st12" d="M489.8,22.1h-1.1v-7.3c-0.3,0.3-0.6,0.5-1.1,0.8c-0.4,0.3-0.9,0.5-1.2,0.6V15c0.6-0.3,1.2-0.7,1.7-1.1
				c0.5-0.4,0.8-0.8,1-1.3h0.7V22.1z"/>
			<path class="st12" d="M492.8,17.4c0-1.1,0.1-2,0.3-2.7s0.6-1.2,1-1.6c0.4-0.4,1-0.5,1.7-0.5c0.5,0,0.9,0.1,1.3,0.3
				c0.4,0.2,0.7,0.5,0.9,0.9c0.2,0.4,0.4,0.8,0.6,1.4c0.1,0.5,0.2,1.3,0.2,2.2c0,1.1-0.1,2-0.3,2.7s-0.6,1.2-1,1.6
				c-0.4,0.4-1,0.6-1.7,0.6c-0.9,0-1.6-0.3-2.1-1C493.1,20.5,492.8,19.2,492.8,17.4z M493.9,17.4c0,1.5,0.2,2.6,0.5,3.1
				c0.4,0.5,0.8,0.8,1.3,0.8s1-0.3,1.3-0.8c0.4-0.5,0.5-1.5,0.5-3.1c0-1.5-0.2-2.6-0.5-3.1c-0.4-0.5-0.8-0.8-1.3-0.8
				c-0.5,0-0.9,0.2-1.3,0.7C494.1,14.9,493.9,15.9,493.9,17.4z"/>
			<path class="st12" d="M504.3,22.1h-1.1v-7.3c-0.3,0.3-0.6,0.5-1.1,0.8c-0.4,0.3-0.9,0.5-1.2,0.6V15c0.6-0.3,1.2-0.7,1.7-1.1
				c0.5-0.4,0.8-0.8,1-1.3h0.7V22.1z"/>
			<path class="st12" d="M507.9,22.1v-1.3h1.3v1.3H507.9z"/>
			<path class="st12" d="M516.9,15l-1.1,0.1c-0.1-0.5-0.2-0.8-0.4-1c-0.3-0.3-0.7-0.5-1.1-0.5c-0.4,0-0.7,0.1-1,0.3
				c-0.4,0.3-0.6,0.6-0.9,1.2c-0.2,0.5-0.3,1.2-0.3,2.2c0.3-0.4,0.6-0.7,1-0.9c0.4-0.2,0.8-0.3,1.3-0.3c0.8,0,1.4,0.3,2,0.8
				c0.5,0.6,0.8,1.3,0.8,2.2c0,0.6-0.1,1.1-0.4,1.6c-0.3,0.5-0.6,0.9-1,1.2c-0.4,0.3-0.9,0.4-1.5,0.4c-1,0-1.7-0.4-2.3-1.1
				s-0.9-1.9-0.9-3.5c0-1.8,0.3-3.1,1-3.9c0.6-0.7,1.4-1.1,2.4-1.1c0.7,0,1.3,0.2,1.8,0.6C516.5,13.7,516.8,14.3,516.9,15z
				 M512.2,19c0,0.4,0.1,0.8,0.3,1.1c0.2,0.4,0.4,0.6,0.7,0.8s0.6,0.3,1,0.3c0.5,0,0.9-0.2,1.3-0.6c0.3-0.4,0.5-0.9,0.5-1.6
				c0-0.6-0.2-1.2-0.5-1.5c-0.3-0.4-0.8-0.6-1.3-0.6c-0.5,0-1,0.2-1.3,0.6C512.4,17.9,512.2,18.4,512.2,19z"/>
			<path class="st12" d="M518.2,17.4c0-1.1,0.1-2,0.3-2.7s0.6-1.2,1-1.6c0.4-0.4,1-0.5,1.7-0.5c0.5,0,0.9,0.1,1.3,0.3
				c0.4,0.2,0.7,0.5,0.9,0.9c0.2,0.4,0.4,0.8,0.6,1.4c0.1,0.5,0.2,1.3,0.2,2.2c0,1.1-0.1,2-0.3,2.7s-0.6,1.2-1,1.6
				c-0.4,0.4-1,0.6-1.7,0.6c-0.9,0-1.6-0.3-2.1-1C518.5,20.5,518.2,19.2,518.2,17.4z M519.4,17.4c0,1.5,0.2,2.6,0.5,3.1
				c0.4,0.5,0.8,0.8,1.3,0.8s1-0.3,1.3-0.8c0.4-0.5,0.5-1.5,0.5-3.1c0-1.5-0.2-2.6-0.5-3.1c-0.4-0.5-0.8-0.8-1.3-0.8
				c-0.5,0-0.9,0.2-1.3,0.7C519.6,14.9,519.4,15.9,519.4,17.4z"/>
			<path class="st12" d="M531.6,24.8c-0.6-0.8-1.2-1.7-1.6-2.8c-0.4-1.1-0.7-2.2-0.7-3.3c0-1,0.2-2,0.5-2.9c0.4-1.1,1-2.1,1.8-3.2
				h0.8c-0.5,0.9-0.9,1.5-1,1.9c-0.3,0.6-0.5,1.2-0.6,1.8c-0.2,0.8-0.3,1.6-0.3,2.4c0,2,0.6,4.1,1.9,6.1H531.6z"/>
			<path class="st12" d="M537.1,22.1v-2.2h-4.1v-1.1l4.3-6.1h0.9v6.1h1.3v1.1h-1.3v2.2H537.1z M537.1,18.8v-4.2l-2.9,4.2H537.1z"/>
			<path class="st12" d="M541.1,16l-0.3-1.8v-1.5h1.3v1.5l-0.3,1.8H541.1z M543.2,16l-0.3-1.8v-1.5h1.3v1.5l-0.3,1.8H543.2z"/>
			<path class="st12" d="M546.4,24.8h-0.8c1.3-2,1.9-4.1,1.9-6.1c0-0.8-0.1-1.6-0.3-2.4c-0.1-0.6-0.3-1.3-0.6-1.8
				c-0.2-0.4-0.5-1-1-1.9h0.8c0.8,1.1,1.4,2.1,1.8,3.2c0.3,0.9,0.5,1.9,0.5,2.9c0,1.1-0.2,2.3-0.7,3.3
				C547.6,23.1,547.1,24,546.4,24.8z"/>
		</g>
		<line class="st61" x1="294.2" y1="27.7" x2="707.6" y2="27.7"/>
		<polygon class="st2" points="296.9,31.5 282.1,27.5 296.9,23.6 		"/>
		<polygon class="st2" points="704.9,31.5 719.7,27.5 704.9,23.6 		"/>
		<g>
			<path class="st12" d="M899.5,417v1.1h-7.3c0.3,0.3,0.5,0.6,0.8,1.1c0.3,0.4,0.5,0.9,0.6,1.2h-1.1c-0.3-0.6-0.7-1.2-1.1-1.7
				c-0.4-0.5-0.8-0.8-1.3-1V417H899.5z"/>
			<path class="st12" d="M897,414.1l-0.1-1.2c0.6-0.1,1-0.3,1.3-0.6c0.3-0.3,0.4-0.7,0.4-1.2c0-0.6-0.2-1-0.6-1.4s-1-0.6-1.7-0.6
				c-0.7,0-1.2,0.2-1.6,0.6s-0.6,0.8-0.6,1.4c0,0.4,0.1,0.7,0.3,1c0.2,0.3,0.4,0.5,0.7,0.7l-0.1,1.1l-4.8-0.9v-4.7h1.1v3.7l2.5,0.5
				c-0.4-0.6-0.6-1.2-0.6-1.8c0-0.8,0.3-1.5,0.8-2.1c0.6-0.6,1.3-0.8,2.2-0.8c0.8,0,1.6,0.2,2.2,0.7c0.8,0.6,1.1,1.4,1.1,2.5
				c0,0.9-0.2,1.5-0.7,2.1C898.4,413.7,897.8,414,897,414.1z"/>
			<path class="st12" d="M898.4,400.8h1.1v6.2c-0.3,0-0.5,0-0.8-0.1c-0.4-0.2-0.8-0.4-1.2-0.8s-0.9-0.8-1.4-1.5
				c-0.8-1-1.5-1.7-2-2.1s-0.9-0.5-1.4-0.5c-0.5,0-0.8,0.2-1.2,0.5c-0.3,0.3-0.5,0.7-0.5,1.3c0,0.6,0.2,1,0.5,1.3
				c0.3,0.3,0.8,0.5,1.4,0.5l-0.1,1.2c-0.9-0.1-1.6-0.4-2-0.9s-0.7-1.2-0.7-2.1c0-0.9,0.2-1.6,0.7-2.1c0.5-0.5,1.1-0.8,1.9-0.8
				c0.4,0,0.7,0.1,1.1,0.2s0.7,0.4,1.1,0.8c0.4,0.4,0.9,0.9,1.6,1.8c0.6,0.7,1,1.1,1.2,1.3c0.2,0.2,0.4,0.4,0.6,0.5V400.8z"/>
			<path class="st12" d="M899.5,398.9h-1.3v-1.3h1.3V398.9z"/>
			<path class="st12" d="M899.5,392.2h-2.2v4.1h-1.1l-6.1-4.3v-0.9h6.1v-1.3h1.1v1.3h2.2V392.2z M896.2,392.2H892l4.2,2.9V392.2z"/>
			<path class="st12" d="M892.4,382.7l0.1,1.1c-0.5,0.1-0.8,0.2-1,0.4c-0.3,0.3-0.5,0.7-0.5,1.1c0,0.4,0.1,0.7,0.3,1
				c0.3,0.4,0.6,0.6,1.2,0.9c0.5,0.2,1.2,0.3,2.2,0.3c-0.4-0.3-0.7-0.6-0.9-1s-0.3-0.8-0.3-1.3c0-0.8,0.3-1.4,0.8-2
				c0.6-0.5,1.3-0.8,2.2-0.8c0.6,0,1.1,0.1,1.6,0.4c0.5,0.3,0.9,0.6,1.2,1c0.3,0.4,0.4,0.9,0.4,1.5c0,1-0.4,1.7-1.1,2.3
				s-1.9,0.9-3.5,0.9c-1.8,0-3.1-0.3-3.9-1c-0.7-0.6-1.1-1.4-1.1-2.4c0-0.7,0.2-1.3,0.6-1.8C891.1,383.1,891.7,382.8,892.4,382.7z
				 M896.4,387.4c0.4,0,0.8-0.1,1.1-0.3c0.4-0.2,0.6-0.4,0.8-0.7c0.2-0.3,0.3-0.6,0.3-1c0-0.5-0.2-0.9-0.6-1.3s-0.9-0.5-1.6-0.5
				c-0.6,0-1.2,0.2-1.5,0.5c-0.4,0.3-0.6,0.8-0.6,1.3c0,0.5,0.2,1,0.6,1.3C895.3,387.2,895.8,387.4,896.4,387.4z"/>
			<path class="st12" d="M902.2,375.2c-0.8,0.6-1.7,1.2-2.8,1.6c-1.1,0.4-2.2,0.7-3.3,0.7c-1,0-2-0.2-2.9-0.5
				c-1.1-0.4-2.1-1-3.2-1.8v-0.8c0.9,0.5,1.5,0.9,1.9,1c0.6,0.3,1.2,0.5,1.8,0.6c0.8,0.2,1.6,0.3,2.4,0.3c2,0,4.1-0.6,6.1-1.9V375.2
				z"/>
			<path class="st12" d="M892.4,367.4l0.1,1.1c-0.5,0.1-0.8,0.2-1,0.4c-0.3,0.3-0.5,0.7-0.5,1.1c0,0.4,0.1,0.7,0.3,1
				c0.3,0.4,0.6,0.6,1.2,0.9c0.5,0.2,1.2,0.3,2.2,0.3c-0.4-0.3-0.7-0.6-0.9-1s-0.3-0.8-0.3-1.3c0-0.8,0.3-1.4,0.8-2
				c0.6-0.5,1.3-0.8,2.2-0.8c0.6,0,1.1,0.1,1.6,0.4c0.5,0.3,0.9,0.6,1.2,1c0.3,0.4,0.4,0.9,0.4,1.5c0,1-0.4,1.7-1.1,2.3
				s-1.9,0.9-3.5,0.9c-1.8,0-3.1-0.3-3.9-1c-0.7-0.6-1.1-1.4-1.1-2.4c0-0.7,0.2-1.3,0.6-1.8C891.1,367.8,891.7,367.5,892.4,367.4z
				 M896.4,372.1c0.4,0,0.8-0.1,1.1-0.3c0.4-0.2,0.6-0.4,0.8-0.7c0.2-0.3,0.3-0.6,0.3-1c0-0.5-0.2-0.9-0.6-1.3s-0.9-0.5-1.6-0.5
				c-0.6,0-1.2,0.2-1.5,0.5c-0.4,0.3-0.6,0.8-0.6,1.3c0,0.5,0.2,1,0.6,1.3C895.3,371.9,895.8,372.1,896.4,372.1z"/>
			<path class="st12" d="M893.4,363.6l-1.8,0.3h-1.5v-1.3h1.5l1.8,0.3V363.6z M893.4,365.7l-1.8,0.3h-1.5v-1.3h1.5l1.8,0.3V365.7z"
				/>
			<path class="st12" d="M902.2,360.4v0.8c-2-1.3-4.1-1.9-6.1-1.9c-0.8,0-1.6,0.1-2.4,0.3c-0.6,0.1-1.3,0.3-1.8,0.6
				c-0.4,0.2-1,0.5-1.9,1v-0.8c1.1-0.8,2.1-1.4,3.2-1.8c0.9-0.3,1.9-0.5,2.9-0.5c1.1,0,2.3,0.2,3.3,0.7
				C900.5,359.2,901.4,359.8,902.2,360.4z"/>
		</g>
		<g>
			<path class="st12" d="M844.2,577.2h-1.1v-6.1h0.9c0.6,0.6,1.5,1.2,2.5,1.8s2.1,1,3.2,1.4c0.8,0.2,1.6,0.4,2.6,0.4v1.2
				c-0.7,0-1.6-0.2-2.7-0.4c-1-0.3-2-0.7-3-1.2c-1-0.5-1.8-1.1-2.4-1.6V577.2z"/>
			<path class="st12" d="M849.9,570.1l-0.1-1.2c0.6-0.1,1-0.3,1.3-0.6c0.3-0.3,0.4-0.7,0.4-1.2c0-0.6-0.2-1-0.6-1.4s-1-0.6-1.7-0.6
				c-0.7,0-1.2,0.2-1.6,0.6s-0.6,0.8-0.6,1.4c0,0.4,0.1,0.7,0.3,1c0.2,0.3,0.4,0.5,0.7,0.7l-0.1,1.1l-4.8-0.9v-4.7h1.1v3.7l2.5,0.5
				c-0.4-0.6-0.6-1.2-0.6-1.8c0-0.8,0.3-1.5,0.8-2.1c0.6-0.6,1.3-0.8,2.2-0.8c0.8,0,1.6,0.2,2.2,0.7c0.8,0.6,1.1,1.4,1.1,2.5
				c0,0.9-0.2,1.5-0.7,2.1C851.3,569.7,850.6,570,849.9,570.1z"/>
			<path class="st12" d="M852.3,562.1H851v-1.3h1.3V562.1z"/>
			<path class="st12" d="M852.3,554.8v1.1H845c0.3,0.3,0.5,0.6,0.8,1.1c0.3,0.4,0.5,0.9,0.6,1.2h-1.1c-0.3-0.6-0.7-1.2-1.1-1.7
				c-0.4-0.5-0.8-0.8-1.3-1v-0.7H852.3z"/>
			<path class="st12" d="M845.2,545.9l0.1,1.1c-0.5,0.1-0.8,0.2-1,0.4c-0.3,0.3-0.5,0.7-0.5,1.1c0,0.4,0.1,0.7,0.3,1
				c0.3,0.4,0.6,0.6,1.2,0.9c0.5,0.2,1.2,0.3,2.2,0.3c-0.4-0.3-0.7-0.6-0.9-1c-0.2-0.4-0.3-0.8-0.3-1.3c0-0.8,0.3-1.4,0.8-2
				c0.6-0.5,1.3-0.8,2.2-0.8c0.6,0,1.1,0.1,1.6,0.4c0.5,0.3,0.9,0.6,1.2,1c0.3,0.4,0.4,0.9,0.4,1.5c0,1-0.4,1.7-1.1,2.3
				s-1.9,0.9-3.5,0.9c-1.8,0-3.1-0.3-3.9-1c-0.7-0.6-1.1-1.4-1.1-2.4c0-0.7,0.2-1.3,0.6-1.8C844,546.3,844.5,546,845.2,545.9z
				 M849.3,550.6c0.4,0,0.8-0.1,1.1-0.3c0.4-0.2,0.6-0.4,0.8-0.7c0.2-0.3,0.3-0.6,0.3-1c0-0.5-0.2-0.9-0.6-1.3
				c-0.4-0.3-0.9-0.5-1.6-0.5c-0.6,0-1.2,0.2-1.5,0.5c-0.4,0.3-0.6,0.8-0.6,1.3c0,0.5,0.2,1,0.6,1.3
				C848.2,550.4,848.7,550.6,849.3,550.6z"/>
		</g>
		<line class="st61" x1="904" y1="81.7" x2="904" y2="710.2"/>
		<polygon class="st2" points="900.2,84.4 904.1,69.6 908.1,84.4 		"/>
		<polygon class="st2" points="900.2,707.5 904.1,722.3 908.1,707.5 		"/>
		<g>
			<path class="st12" d="M475.6,768.6h-1.1v-7.3c-0.3,0.3-0.6,0.5-1.1,0.8c-0.4,0.3-0.9,0.5-1.2,0.6v-1.1c0.6-0.3,1.2-0.7,1.7-1.1
				c0.5-0.4,0.8-0.8,1-1.3h0.7V768.6z"/>
			<path class="st12" d="M478.5,766.1l1.2-0.1c0.1,0.6,0.3,1,0.6,1.3c0.3,0.3,0.7,0.4,1.2,0.4c0.6,0,1-0.2,1.4-0.6s0.6-1,0.6-1.7
				c0-0.7-0.2-1.2-0.6-1.6s-0.8-0.6-1.4-0.6c-0.4,0-0.7,0.1-1,0.3c-0.3,0.2-0.5,0.4-0.7,0.7l-1.1-0.1l0.9-4.8h4.7v1.1h-3.7L480,763
				c0.6-0.4,1.2-0.6,1.8-0.6c0.8,0,1.5,0.3,2.1,0.8c0.6,0.6,0.8,1.3,0.8,2.2c0,0.8-0.2,1.6-0.7,2.2c-0.6,0.8-1.4,1.1-2.5,1.1
				c-0.9,0-1.5-0.2-2.1-0.7C478.9,767.5,478.6,766.9,478.5,766.1z"/>
			<path class="st12" d="M485.8,764c0-1.1,0.1-2,0.3-2.7c0.2-0.7,0.6-1.2,1-1.6s1-0.5,1.7-0.5c0.5,0,0.9,0.1,1.3,0.3
				c0.4,0.2,0.7,0.5,0.9,0.9c0.2,0.4,0.4,0.8,0.6,1.4s0.2,1.3,0.2,2.2c0,1.1-0.1,2-0.3,2.7c-0.2,0.7-0.6,1.2-1,1.6
				c-0.4,0.4-1,0.6-1.7,0.6c-0.9,0-1.6-0.3-2.1-1C486.1,767,485.8,765.7,485.8,764z M486.9,764c0,1.5,0.2,2.6,0.5,3.1
				c0.4,0.5,0.8,0.8,1.3,0.8s1-0.3,1.3-0.8c0.4-0.5,0.5-1.5,0.5-3.1c0-1.5-0.2-2.6-0.5-3.1c-0.4-0.5-0.8-0.8-1.3-0.8
				c-0.5,0-0.9,0.2-1.3,0.7C487.1,761.4,486.9,762.4,486.9,764z"/>
			<path class="st12" d="M499.2,771.3c-0.6-0.8-1.2-1.7-1.6-2.8c-0.4-1.1-0.7-2.2-0.7-3.3c0-1,0.2-2,0.5-2.9c0.4-1.1,1-2.1,1.8-3.2
				h0.8c-0.5,0.9-0.9,1.5-1,1.9c-0.3,0.6-0.5,1.2-0.6,1.8c-0.2,0.8-0.3,1.6-0.3,2.4c0,2,0.6,4.1,1.9,6.1H499.2z"/>
			<path class="st12" d="M501,766.1l1.2-0.1c0.1,0.6,0.3,1,0.6,1.3c0.3,0.3,0.7,0.4,1.2,0.4c0.6,0,1-0.2,1.4-0.6s0.6-1,0.6-1.7
				c0-0.7-0.2-1.2-0.6-1.6s-0.8-0.6-1.4-0.6c-0.4,0-0.7,0.1-1,0.3c-0.3,0.2-0.5,0.4-0.7,0.7l-1.1-0.1l0.9-4.8h4.7v1.1h-3.7l-0.5,2.5
				c0.6-0.4,1.2-0.6,1.8-0.6c0.8,0,1.5,0.3,2.1,0.8c0.6,0.6,0.8,1.3,0.8,2.2c0,0.8-0.2,1.6-0.7,2.2c-0.6,0.8-1.4,1.1-2.5,1.1
				c-0.9,0-1.5-0.2-2.1-0.7C501.4,767.5,501.1,766.9,501,766.1z"/>
			<path class="st12" d="M508.9,768.6v-1.3h1.3v1.3H508.9z"/>
			<path class="st12" d="M512.1,766.4l1.1-0.1c0.1,0.5,0.3,0.9,0.5,1.1c0.3,0.2,0.6,0.4,1,0.4c0.4,0,0.7-0.1,0.9-0.2
				s0.5-0.4,0.7-0.6c0.2-0.3,0.3-0.6,0.4-1.1c0.1-0.5,0.2-0.9,0.2-1.4c0-0.1,0-0.1,0-0.2c-0.2,0.4-0.5,0.7-0.9,0.9
				c-0.4,0.2-0.8,0.3-1.3,0.3c-0.8,0-1.4-0.3-2-0.8s-0.8-1.3-0.8-2.2c0-0.9,0.3-1.7,0.8-2.3c0.6-0.6,1.3-0.9,2.1-0.9
				c0.6,0,1.2,0.2,1.7,0.5c0.5,0.3,0.9,0.8,1.1,1.4c0.3,0.6,0.4,1.5,0.4,2.6c0,1.2-0.1,2.1-0.4,2.9c-0.3,0.7-0.6,1.2-1.2,1.6
				s-1.1,0.6-1.8,0.6c-0.7,0-1.3-0.2-1.8-0.6S512.2,767.1,512.1,766.4z M516.8,762.3c0-0.7-0.2-1.2-0.5-1.6
				c-0.4-0.4-0.8-0.6-1.3-0.6c-0.5,0-1,0.2-1.3,0.6s-0.6,1-0.6,1.6c0,0.6,0.2,1.1,0.5,1.5c0.4,0.4,0.8,0.6,1.3,0.6
				c0.5,0,1-0.2,1.3-0.6C516.6,763.5,516.8,762.9,516.8,762.3z"/>
			<path class="st12" d="M519.2,764c0-1.1,0.1-2,0.3-2.7c0.2-0.7,0.6-1.2,1-1.6s1-0.5,1.7-0.5c0.5,0,0.9,0.1,1.3,0.3
				c0.4,0.2,0.7,0.5,0.9,0.9c0.2,0.4,0.4,0.8,0.6,1.4s0.2,1.3,0.2,2.2c0,1.1-0.1,2-0.3,2.7c-0.2,0.7-0.6,1.2-1,1.6
				c-0.4,0.4-1,0.6-1.7,0.6c-0.9,0-1.6-0.3-2.1-1C519.5,767,519.2,765.7,519.2,764z M520.4,764c0,1.5,0.2,2.6,0.5,3.1
				c0.4,0.5,0.8,0.8,1.3,0.8s1-0.3,1.3-0.8c0.4-0.5,0.5-1.5,0.5-3.1c0-1.5-0.2-2.6-0.5-3.1c-0.4-0.5-0.8-0.8-1.3-0.8
				c-0.5,0-0.9,0.2-1.3,0.7C520.6,761.4,520.4,762.4,520.4,764z"/>
			<path class="st12" d="M532.4,761.5l-1.1,0.1c-0.1-0.5-0.2-0.8-0.4-1c-0.3-0.3-0.7-0.5-1.1-0.5c-0.4,0-0.7,0.1-1,0.3
				c-0.4,0.3-0.6,0.6-0.9,1.2c-0.2,0.5-0.3,1.2-0.3,2.2c0.3-0.4,0.6-0.7,1-0.9c0.4-0.2,0.8-0.3,1.3-0.3c0.8,0,1.4,0.3,2,0.8
				c0.5,0.6,0.8,1.3,0.8,2.2c0,0.6-0.1,1.1-0.4,1.6c-0.3,0.5-0.6,0.9-1,1.2c-0.4,0.3-0.9,0.4-1.5,0.4c-1,0-1.7-0.4-2.3-1.1
				s-0.9-1.9-0.9-3.5c0-1.8,0.3-3.1,1-3.9c0.6-0.7,1.4-1.1,2.4-1.1c0.7,0,1.3,0.2,1.8,0.6C532,760.2,532.3,760.8,532.4,761.5z
				 M527.7,765.5c0,0.4,0.1,0.8,0.3,1.1c0.2,0.4,0.4,0.6,0.7,0.8c0.3,0.2,0.6,0.3,1,0.3c0.5,0,0.9-0.2,1.3-0.6
				c0.3-0.4,0.5-0.9,0.5-1.6c0-0.6-0.2-1.2-0.5-1.5c-0.3-0.4-0.8-0.6-1.3-0.6c-0.5,0-1,0.2-1.3,0.6
				C527.9,764.4,527.7,764.9,527.7,765.5z"/>
			<path class="st12" d="M534.1,762.5l-0.3-1.8v-1.5h1.3v1.5l-0.3,1.8H534.1z M536.2,762.5l-0.3-1.8v-1.5h1.3v1.5l-0.3,1.8H536.2z"
				/>
		</g>
		<g>
			<path class="st12" d="M539.4,771.3h-0.8c1.3-2,1.9-4.1,1.9-6.1c0-0.8-0.1-1.6-0.3-2.4c-0.1-0.6-0.3-1.3-0.6-1.8
				c-0.2-0.4-0.5-1-1-1.9h0.8c0.8,1.1,1.4,2.1,1.8,3.2c0.3,0.9,0.5,1.9,0.5,2.9c0,1.1-0.2,2.3-0.7,3.3S540,770.5,539.4,771.3z"/>
		</g>
		<line class="st61" x1="191.9" y1="774.2" x2="810" y2="774.2"/>
		<polygon class="st2" points="194.6,778 179.9,774 194.6,770.1 		"/>
		<polygon class="st2" points="807.3,778 822,774 807.3,770.1 		"/>
		<line class="st63" x1="498.6" y1="744.6" x2="497.8" y2="49.6"/>
		<g>
			<path class="st62" d="M688.6,623.4c0,0,7.1-7.7,7.1-15.9c0-10-4.6-16.1-4.6-16.1"/>
		</g>
		<polygon class="st12" points="694.8,619.6 686.4,626.5 690.1,616.3 		"/>
		<polygon class="st12" points="691.3,597 686.7,587.2 695.7,593.2 		"/>
		<g>
			<path class="st12" d="M707.6,269.3h-1.1v-7.3c-0.3,0.3-0.6,0.5-1.1,0.8c-0.4,0.3-0.9,0.5-1.2,0.6v-1.1c0.6-0.3,1.2-0.7,1.7-1.1
				c0.5-0.4,0.8-0.8,1-1.3h0.7V269.3z"/>
			<path class="st12" d="M714.8,269.3h-1.1v-7.3c-0.3,0.3-0.6,0.5-1.1,0.8c-0.4,0.3-0.9,0.5-1.2,0.6v-1.1c0.6-0.3,1.2-0.7,1.7-1.1
				c0.5-0.4,0.8-0.8,1-1.3h0.7V269.3z"/>
		</g>
		<g>
			<path class="st12" d="M717.5,269.3v-1.3h1.3v1.3H717.5z"/>
			<path class="st12" d="M720.6,267.1l1.1-0.1c0.1,0.5,0.3,0.9,0.5,1.1s0.6,0.4,1,0.4c0.4,0,0.7-0.1,0.9-0.2s0.5-0.4,0.7-0.6
				c0.2-0.3,0.3-0.6,0.4-1.1c0.1-0.5,0.2-0.9,0.2-1.4c0-0.1,0-0.1,0-0.2c-0.2,0.4-0.5,0.7-0.9,0.9c-0.4,0.2-0.8,0.3-1.3,0.3
				c-0.8,0-1.4-0.3-2-0.8s-0.8-1.3-0.8-2.2c0-0.9,0.3-1.7,0.8-2.3s1.3-0.9,2.1-0.9c0.6,0,1.2,0.2,1.7,0.5s0.9,0.8,1.1,1.4
				c0.3,0.6,0.4,1.5,0.4,2.6c0,1.2-0.1,2.1-0.4,2.9c-0.3,0.7-0.6,1.2-1.2,1.6s-1.1,0.6-1.8,0.6c-0.7,0-1.3-0.2-1.8-0.6
				S720.7,267.8,720.6,267.1z M725.3,263c0-0.7-0.2-1.2-0.5-1.6c-0.4-0.4-0.8-0.6-1.3-0.6c-0.5,0-1,0.2-1.3,0.6s-0.6,1-0.6,1.6
				c0,0.6,0.2,1.1,0.5,1.5c0.4,0.4,0.8,0.6,1.3,0.6c0.5,0,1-0.2,1.3-0.6S725.3,263.6,725.3,263z"/>
			<path class="st12" d="M733.7,268.2v1.1h-6.2c0-0.3,0-0.5,0.1-0.8c0.2-0.4,0.4-0.8,0.8-1.2c0.3-0.4,0.8-0.9,1.5-1.4
				c1-0.8,1.7-1.5,2.1-2c0.4-0.5,0.5-0.9,0.5-1.4c0-0.5-0.2-0.8-0.5-1.2c-0.3-0.3-0.7-0.5-1.3-0.5c-0.6,0-1,0.2-1.3,0.5
				c-0.3,0.3-0.5,0.8-0.5,1.4l-1.2-0.1c0.1-0.9,0.4-1.6,0.9-2c0.5-0.5,1.2-0.7,2.1-0.7c0.9,0,1.6,0.2,2.1,0.7
				c0.5,0.5,0.8,1.1,0.8,1.9c0,0.4-0.1,0.7-0.2,1.1c-0.2,0.4-0.4,0.7-0.8,1.1c-0.4,0.4-0.9,0.9-1.8,1.6c-0.7,0.6-1.1,1-1.3,1.2
				c-0.2,0.2-0.4,0.4-0.5,0.6H733.7z"/>
			<path class="st12" d="M735.2,261.5c0-0.5,0.2-0.9,0.5-1.3s0.8-0.5,1.2-0.5c0.5,0,0.9,0.2,1.3,0.5s0.5,0.8,0.5,1.3
				s-0.2,0.9-0.5,1.3s-0.8,0.5-1.3,0.5c-0.5,0-0.9-0.2-1.2-0.5C735.4,262.4,735.2,262,735.2,261.5z M735.9,261.5
				c0,0.3,0.1,0.6,0.3,0.8c0.2,0.2,0.5,0.3,0.8,0.3c0.3,0,0.5-0.1,0.8-0.3c0.2-0.2,0.3-0.5,0.3-0.8s-0.1-0.6-0.3-0.8
				c-0.2-0.2-0.5-0.3-0.8-0.3c-0.3,0-0.6,0.1-0.8,0.3C736.1,261,735.9,261.2,735.9,261.5z"/>
		</g>
		<g>
			<path class="st62" d="M690.7,283.8c0,0,7.1-7.7,7.1-15.9c0-10-4.6-16.1-4.6-16.1"/>
		</g>
		<polygon class="st12" points="697,280.1 688.5,286.9 692.3,276.7 		"/>
		<polygon class="st12" points="693.5,257.4 688.8,247.6 697.8,253.6 		"/>
		<g>
			<path class="st12" d="M596.2,117v-9.4h4.1c0.8,0,1.5,0.1,1.9,0.3c0.4,0.2,0.8,0.5,1,0.9c0.3,0.4,0.4,0.9,0.4,1.4
				c0,0.7-0.2,1.2-0.6,1.7c-0.4,0.5-1.1,0.7-2,0.9c0.3,0.2,0.6,0.3,0.7,0.5c0.4,0.3,0.7,0.7,1,1.2l1.6,2.5h-1.6l-1.2-1.9
				c-0.4-0.6-0.7-1-0.9-1.3c-0.2-0.3-0.4-0.5-0.6-0.6c-0.2-0.1-0.4-0.2-0.6-0.2c-0.1,0-0.4,0-0.7,0h-1.4v4.2H596.2z M597.5,111.8
				h2.7c0.6,0,1-0.1,1.3-0.2c0.3-0.1,0.6-0.3,0.7-0.6s0.2-0.5,0.2-0.8c0-0.4-0.2-0.8-0.5-1.1c-0.3-0.3-0.8-0.4-1.5-0.4h-3V111.8z"/>
			<path class="st12" d="M609.5,117h-1.1v-7.3c-0.3,0.3-0.6,0.5-1.1,0.8c-0.4,0.3-0.9,0.5-1.2,0.6V110c0.6-0.3,1.2-0.7,1.7-1.1
				c0.5-0.4,0.8-0.8,1-1.3h0.7V117z"/>
		</g>
		<g>
			<path class="st12" d="M612.4,112.4c0-1.1,0.1-2,0.3-2.7s0.6-1.2,1-1.6c0.4-0.4,1-0.5,1.7-0.5c0.5,0,0.9,0.1,1.3,0.3
				c0.4,0.2,0.7,0.5,0.9,0.9c0.2,0.4,0.4,0.8,0.6,1.4c0.1,0.5,0.2,1.3,0.2,2.2c0,1.1-0.1,2-0.3,2.7s-0.6,1.2-1,1.6
				c-0.4,0.4-1,0.6-1.7,0.6c-0.9,0-1.6-0.3-2.1-1C612.7,115.4,612.4,114.2,612.4,112.4z M613.6,112.4c0,1.5,0.2,2.6,0.5,3.1
				c0.4,0.5,0.8,0.8,1.3,0.8s1-0.3,1.3-0.8c0.4-0.5,0.5-1.5,0.5-3.1c0-1.5-0.2-2.6-0.5-3.1c-0.4-0.5-0.8-0.8-1.3-0.8
				c-0.5,0-0.9,0.2-1.3,0.7C613.8,109.8,613.6,110.9,613.6,112.4z"/>
		</g>
		<g>
			<path class="st12" d="M602.2,192.6v-9.4h4.1c0.8,0,1.5,0.1,1.9,0.3c0.4,0.2,0.8,0.5,1,0.9c0.3,0.4,0.4,0.9,0.4,1.4
				c0,0.7-0.2,1.2-0.6,1.7c-0.4,0.5-1.1,0.7-2,0.9c0.3,0.2,0.6,0.3,0.7,0.5c0.4,0.3,0.7,0.7,1,1.2l1.6,2.5h-1.6l-1.2-1.9
				c-0.4-0.6-0.7-1-0.9-1.3c-0.2-0.3-0.4-0.5-0.6-0.6c-0.2-0.1-0.4-0.2-0.6-0.2c-0.1,0-0.4,0-0.7,0h-1.4v4.2H602.2z M603.5,187.4
				h2.7c0.6,0,1-0.1,1.3-0.2c0.3-0.1,0.6-0.3,0.7-0.6s0.2-0.5,0.2-0.8c0-0.4-0.2-0.8-0.5-1.1c-0.3-0.3-0.8-0.4-1.5-0.4h-3V187.4z"/>
			<path class="st12" d="M611.3,184.5v-1.1h6.1v0.9c-0.6,0.6-1.2,1.5-1.8,2.5s-1,2.1-1.4,3.2c-0.2,0.8-0.4,1.6-0.4,2.6h-1.2
				c0-0.7,0.2-1.6,0.4-2.7s0.7-2,1.2-3c0.5-1,1.1-1.8,1.6-2.4H611.3z"/>
			<path class="st12" d="M619.1,192.6v-1.3h1.3v1.3H619.1z"/>
			<path class="st12" d="M622.2,190.5l1.1-0.1c0.1,0.5,0.3,0.9,0.5,1.1s0.6,0.4,1,0.4c0.4,0,0.7-0.1,0.9-0.2s0.5-0.4,0.7-0.6
				c0.2-0.3,0.3-0.6,0.4-1.1c0.1-0.5,0.2-0.9,0.2-1.4c0-0.1,0-0.1,0-0.2c-0.2,0.4-0.5,0.7-0.9,0.9c-0.4,0.2-0.8,0.3-1.3,0.3
				c-0.8,0-1.4-0.3-2-0.8s-0.8-1.3-0.8-2.2c0-0.9,0.3-1.7,0.8-2.3s1.3-0.9,2.1-0.9c0.6,0,1.2,0.2,1.7,0.5s0.9,0.8,1.1,1.4
				c0.3,0.6,0.4,1.5,0.4,2.6c0,1.2-0.1,2.1-0.4,2.9c-0.3,0.7-0.6,1.2-1.2,1.6s-1.1,0.6-1.8,0.6c-0.7,0-1.3-0.2-1.8-0.6
				S622.3,191.2,622.2,190.5z M627,186.3c0-0.7-0.2-1.2-0.5-1.6c-0.4-0.4-0.8-0.6-1.3-0.6c-0.5,0-1,0.2-1.3,0.6s-0.6,1-0.6,1.6
				c0,0.6,0.2,1.1,0.5,1.5c0.4,0.4,0.8,0.6,1.3,0.6c0.5,0,1-0.2,1.3-0.6S627,187,627,186.3z"/>
		</g>
		<g>
			<path class="st12" d="M633,192.6v-2.2H629v-1.1l4.3-6.1h0.9v6.1h1.3v1.1h-1.3v2.2H633z M633,189.3v-4.2l-2.9,4.2H633z"/>
		</g>
		<g>
			<path class="st12" d="M469.1,445.2l1.1-0.2c0.1,0.7,0.4,1.1,0.7,1.4c0.3,0.3,0.7,0.4,1.2,0.4c0.5,0,1-0.2,1.4-0.6
				c0.4-0.4,0.6-0.8,0.6-1.4c0-0.5-0.2-1-0.5-1.3c-0.3-0.3-0.8-0.5-1.3-0.5c-0.2,0-0.5,0-0.8,0.1l0.1-1c0.1,0,0.1,0,0.2,0
				c0.5,0,0.9-0.1,1.3-0.4c0.4-0.3,0.6-0.6,0.6-1.2c0-0.4-0.1-0.8-0.4-1s-0.7-0.4-1.1-0.4c-0.4,0-0.8,0.1-1.1,0.4
				c-0.3,0.3-0.5,0.7-0.6,1.3l-1.1-0.2c0.1-0.8,0.5-1.4,1-1.8c0.5-0.4,1.1-0.6,1.9-0.6c0.5,0,1,0.1,1.4,0.3c0.4,0.2,0.8,0.5,1,0.9
				c0.2,0.4,0.3,0.8,0.3,1.2c0,0.4-0.1,0.8-0.3,1.1c-0.2,0.3-0.5,0.6-1,0.8c0.6,0.1,1,0.4,1.3,0.8s0.5,0.9,0.5,1.5
				c0,0.8-0.3,1.5-0.9,2.1c-0.6,0.6-1.3,0.9-2.3,0.9c-0.8,0-1.5-0.2-2-0.7C469.5,446.6,469.1,445.9,469.1,445.2z"/>
			<path class="st12" d="M476.3,445.2l1.2-0.1c0.1,0.6,0.3,1,0.6,1.3c0.3,0.3,0.7,0.4,1.2,0.4c0.6,0,1-0.2,1.4-0.6s0.6-1,0.6-1.7
				c0-0.7-0.2-1.2-0.6-1.6s-0.8-0.6-1.4-0.6c-0.4,0-0.7,0.1-1,0.3c-0.3,0.2-0.5,0.4-0.7,0.7l-1.1-0.1l0.9-4.8h4.7v1.1h-3.7l-0.5,2.5
				c0.6-0.4,1.2-0.6,1.8-0.6c0.8,0,1.5,0.3,2.1,0.8c0.6,0.6,0.8,1.3,0.8,2.2c0,0.8-0.2,1.6-0.7,2.2c-0.6,0.8-1.4,1.1-2.5,1.1
				c-0.9,0-1.5-0.2-2.1-0.7C476.7,446.6,476.4,446,476.3,445.2z"/>
			<path class="st12" d="M489.7,450.4c-0.6-0.8-1.2-1.7-1.6-2.8c-0.4-1.1-0.7-2.2-0.7-3.3c0-1,0.2-2,0.5-2.9c0.4-1.1,1-2.1,1.8-3.2
				h0.8c-0.5,0.9-0.9,1.5-1,1.9c-0.3,0.6-0.5,1.2-0.6,1.8c-0.2,0.8-0.3,1.6-0.3,2.4c0,2,0.6,4.1,1.9,6.1H489.7z"/>
			<path class="st12" d="M495.9,447.6h-1.1v-7.3c-0.3,0.3-0.6,0.5-1.1,0.8c-0.4,0.3-0.9,0.5-1.2,0.6v-1.1c0.6-0.3,1.2-0.7,1.7-1.1
				c0.5-0.4,0.8-0.8,1-1.3h0.7V447.6z"/>
			<path class="st12" d="M499.5,447.6v-1.3h1.3v1.3H499.5z"/>
			<path class="st12" d="M502.5,445.2l1.1-0.2c0.1,0.7,0.4,1.1,0.7,1.4c0.3,0.3,0.7,0.4,1.2,0.4c0.5,0,1-0.2,1.4-0.6
				c0.4-0.4,0.6-0.8,0.6-1.4c0-0.5-0.2-1-0.5-1.3c-0.3-0.3-0.8-0.5-1.3-0.5c-0.2,0-0.5,0-0.8,0.1l0.1-1c0.1,0,0.1,0,0.2,0
				c0.5,0,0.9-0.1,1.3-0.4c0.4-0.3,0.6-0.6,0.6-1.2c0-0.4-0.1-0.8-0.4-1s-0.7-0.4-1.1-0.4c-0.4,0-0.8,0.1-1.1,0.4
				c-0.3,0.3-0.5,0.7-0.6,1.3l-1.1-0.2c0.1-0.8,0.5-1.4,1-1.8c0.5-0.4,1.1-0.6,1.9-0.6c0.5,0,1,0.1,1.4,0.3c0.4,0.2,0.8,0.5,1,0.9
				c0.2,0.4,0.3,0.8,0.3,1.2c0,0.4-0.1,0.8-0.3,1.1c-0.2,0.3-0.5,0.6-1,0.8c0.6,0.1,1,0.4,1.3,0.8s0.5,0.9,0.5,1.5
				c0,0.8-0.3,1.5-0.9,2.1c-0.6,0.6-1.3,0.9-2.3,0.9c-0.8,0-1.5-0.2-2-0.7C502.9,446.6,502.6,445.9,502.5,445.2z"/>
			<path class="st12" d="M509.8,439.5v-1.1h6.1v0.9c-0.6,0.6-1.2,1.5-1.8,2.5s-1,2.1-1.4,3.2c-0.2,0.8-0.4,1.6-0.4,2.6h-1.2
				c0-0.7,0.2-1.6,0.4-2.7c0.3-1,0.7-2,1.2-3c0.5-1,1.1-1.8,1.6-2.4H509.8z"/>
			<path class="st12" d="M518.8,442.6c-0.5-0.2-0.8-0.4-1.1-0.7s-0.3-0.7-0.3-1.2c0-0.7,0.2-1.3,0.7-1.7s1.1-0.7,2-0.7
				c0.8,0,1.5,0.2,2,0.7c0.5,0.5,0.7,1.1,0.7,1.7c0,0.4-0.1,0.8-0.3,1.1s-0.6,0.6-1,0.7c0.6,0.2,1,0.5,1.3,0.9s0.5,0.9,0.5,1.5
				c0,0.8-0.3,1.5-0.8,2c-0.6,0.5-1.3,0.8-2.2,0.8c-0.9,0-1.7-0.3-2.2-0.8c-0.6-0.5-0.8-1.2-0.8-2c0-0.6,0.2-1.1,0.5-1.5
				C517.8,443,518.2,442.7,518.8,442.6z M518.2,444.9c0,0.3,0.1,0.6,0.2,1c0.2,0.3,0.4,0.5,0.7,0.7s0.6,0.3,1,0.3
				c0.5,0,1-0.2,1.4-0.5s0.5-0.8,0.5-1.3c0-0.6-0.2-1-0.6-1.4s-0.8-0.5-1.4-0.5c-0.5,0-1,0.2-1.3,0.5
				C518.4,444,518.2,444.4,518.2,444.9z M518.6,440.6c0,0.4,0.1,0.8,0.4,1.1c0.3,0.3,0.7,0.4,1.1,0.4c0.4,0,0.8-0.1,1.1-0.4
				c0.3-0.3,0.4-0.6,0.4-1c0-0.4-0.1-0.8-0.4-1.1c-0.3-0.3-0.7-0.4-1.1-0.4c-0.4,0-0.8,0.1-1.1,0.4
				C518.7,439.9,518.6,440.2,518.6,440.6z"/>
			<path class="st12" d="M524.7,441.6l-0.3-1.8v-1.5h1.3v1.5l-0.3,1.8H524.7z M526.8,441.6l-0.3-1.8v-1.5h1.3v1.5l-0.3,1.8H526.8z"
				/>
		</g>
		<g>
			<path class="st12" d="M529.9,450.4h-0.8c1.3-2,1.9-4.1,1.9-6.1c0-0.8-0.1-1.6-0.3-2.4c-0.1-0.6-0.3-1.3-0.6-1.8
				c-0.2-0.4-0.5-1-1-1.9h0.8c0.8,1.1,1.4,2.1,1.8,3.2c0.3,0.9,0.5,1.9,0.5,2.9c0,1.1-0.2,2.3-0.7,3.3S530.6,449.6,529.9,450.4z"/>
		</g>
		<line class="st61" x1="437.9" y1="452.9" x2="563.9" y2="452.9"/>
		<polygon class="st2" points="440.6,456.7 425.8,452.8 440.6,448.8 		"/>
		<polygon class="st2" points="561.2,456.7 576,452.8 561.2,448.8 		"/>
		<g>
			<path class="st12" d="M773.6,167.3h-2.2v4.1h-1.1l-6.1-4.3v-0.9h6.1v-1.3h1.1v1.3h2.2V167.3z M770.3,167.3h-4.2l4.2,2.9V167.3z"
				/>
			<path class="st12" d="M769,163.7c-1.1,0-2-0.1-2.7-0.3c-0.7-0.2-1.2-0.6-1.6-1s-0.5-1-0.5-1.7c0-0.5,0.1-0.9,0.3-1.3
				c0.2-0.4,0.5-0.7,0.9-0.9c0.4-0.2,0.8-0.4,1.4-0.6c0.5-0.1,1.3-0.2,2.2-0.2c1.1,0,2,0.1,2.7,0.3c0.7,0.2,1.2,0.6,1.6,1
				s0.6,1,0.6,1.7c0,0.9-0.3,1.6-1,2.1C772,163.4,770.7,163.7,769,163.7z M769,162.6c1.5,0,2.6-0.2,3.1-0.5c0.5-0.4,0.8-0.8,0.8-1.3
				s-0.3-1-0.8-1.3s-1.5-0.5-3.1-0.5c-1.5,0-2.6,0.2-3.1,0.5c-0.5,0.4-0.8,0.8-0.8,1.3c0,0.5,0.2,0.9,0.7,1.3
				C766.4,162.4,767.4,162.6,769,162.6z"/>
			<path class="st12" d="M773.6,155.8h-1.3v-1.3h1.3V155.8z"/>
			<path class="st12" d="M773.6,148.5v1.1h-7.3c0.3,0.3,0.5,0.6,0.8,1.1s0.5,0.9,0.6,1.2h-1.1c-0.3-0.6-0.7-1.2-1.1-1.7
				c-0.4-0.5-0.8-0.8-1.3-1v-0.7H773.6z"/>
			<path class="st12" d="M769,145.6c-1.1,0-2-0.1-2.7-0.3c-0.7-0.2-1.2-0.6-1.6-1s-0.5-1-0.5-1.7c0-0.5,0.1-0.9,0.3-1.3
				c0.2-0.4,0.5-0.7,0.9-0.9c0.4-0.2,0.8-0.4,1.4-0.6c0.5-0.1,1.3-0.2,2.2-0.2c1.1,0,2,0.1,2.7,0.3c0.7,0.2,1.2,0.6,1.6,1
				s0.6,1,0.6,1.7c0,0.9-0.3,1.6-1,2.1C772,145.3,770.7,145.6,769,145.6z M769,144.4c1.5,0,2.6-0.2,3.1-0.5c0.5-0.4,0.8-0.8,0.8-1.3
				s-0.3-1-0.8-1.3s-1.5-0.5-3.1-0.5c-1.5,0-2.6,0.2-3.1,0.5c-0.5,0.4-0.8,0.8-0.8,1.3c0,0.5,0.2,0.9,0.7,1.3
				C766.4,144.2,767.4,144.4,769,144.4z"/>
		</g>
		<g>
			<path class="st12" d="M128.3,667.7l-0.2-1.1c0.7-0.1,1.1-0.4,1.4-0.7c0.3-0.3,0.4-0.7,0.4-1.2c0-0.5-0.2-1-0.6-1.4
				c-0.4-0.4-0.8-0.6-1.4-0.6c-0.5,0-1,0.2-1.3,0.5c-0.3,0.3-0.5,0.8-0.5,1.3c0,0.2,0,0.5,0.1,0.8l-1-0.1c0-0.1,0-0.1,0-0.2
				c0-0.5-0.1-0.9-0.4-1.3c-0.3-0.4-0.6-0.6-1.2-0.6c-0.4,0-0.8,0.1-1,0.4s-0.4,0.7-0.4,1.1c0,0.4,0.1,0.8,0.4,1.1
				c0.3,0.3,0.7,0.5,1.3,0.6l-0.2,1.1c-0.8-0.1-1.4-0.5-1.8-1c-0.4-0.5-0.6-1.1-0.6-1.9c0-0.5,0.1-1,0.3-1.4c0.2-0.4,0.5-0.8,0.9-1
				c0.4-0.2,0.8-0.3,1.2-0.3c0.4,0,0.8,0.1,1.1,0.3c0.3,0.2,0.6,0.5,0.8,1c0.1-0.6,0.4-1,0.8-1.3s0.9-0.5,1.5-0.5
				c0.8,0,1.5,0.3,2.1,0.9c0.6,0.6,0.9,1.3,0.9,2.3c0,0.8-0.2,1.5-0.7,2C129.7,667.4,129,667.7,128.3,667.7z"/>
			<path class="st12" d="M129.6,654.4h1.1v6.2c-0.3,0-0.5,0-0.8-0.1c-0.4-0.2-0.8-0.4-1.2-0.8s-0.9-0.8-1.4-1.5
				c-0.8-1-1.5-1.7-2-2.1s-0.9-0.5-1.4-0.5c-0.5,0-0.8,0.2-1.2,0.5c-0.3,0.3-0.5,0.7-0.5,1.3c0,0.6,0.2,1,0.5,1.3
				c0.3,0.3,0.8,0.5,1.4,0.5l-0.1,1.2c-0.9-0.1-1.6-0.4-2-0.9s-0.7-1.2-0.7-2.1c0-0.9,0.2-1.6,0.7-2.1c0.5-0.5,1.1-0.8,1.9-0.8
				c0.4,0,0.7,0.1,1.1,0.2s0.7,0.4,1.1,0.8c0.4,0.4,0.9,0.9,1.6,1.8c0.6,0.7,1,1.1,1.2,1.3c0.2,0.2,0.4,0.4,0.6,0.5V654.4z"/>
			<path class="st12" d="M130.7,652.6h-1.3v-1.3h1.3V652.6z"/>
			<path class="st12" d="M126.1,649.6c-1.1,0-2-0.1-2.7-0.3c-0.7-0.2-1.2-0.6-1.6-1s-0.5-1-0.5-1.7c0-0.5,0.1-0.9,0.3-1.3
				c0.2-0.4,0.5-0.7,0.9-0.9c0.4-0.2,0.8-0.4,1.4-0.6s1.3-0.2,2.2-0.2c1.1,0,2,0.1,2.7,0.3c0.7,0.2,1.2,0.6,1.6,1
				c0.4,0.4,0.6,1,0.6,1.7c0,0.9-0.3,1.6-1,2.1C129.1,649.3,127.9,649.6,126.1,649.6z M126.1,648.4c1.5,0,2.6-0.2,3.1-0.5
				c0.5-0.4,0.8-0.8,0.8-1.3s-0.3-1-0.8-1.3c-0.5-0.4-1.5-0.5-3.1-0.5c-1.5,0-2.6,0.2-3.1,0.5c-0.5,0.4-0.8,0.8-0.8,1.3
				c0,0.5,0.2,0.9,0.7,1.3C123.5,648.2,124.6,648.4,126.1,648.4z"/>
		</g>
		<g>
			<path class="st12" d="M128.3,642.3l-0.2-1.1c0.7-0.1,1.1-0.4,1.4-0.7c0.3-0.3,0.4-0.7,0.4-1.2c0-0.5-0.2-1-0.6-1.4
				c-0.4-0.4-0.8-0.6-1.4-0.6c-0.5,0-1,0.2-1.3,0.5c-0.3,0.3-0.5,0.8-0.5,1.3c0,0.2,0,0.5,0.1,0.8l-1-0.1c0-0.1,0-0.1,0-0.2
				c0-0.5-0.1-0.9-0.4-1.3c-0.3-0.4-0.6-0.6-1.2-0.6c-0.4,0-0.8,0.1-1,0.4s-0.4,0.7-0.4,1.1c0,0.4,0.1,0.8,0.4,1.1
				c0.3,0.3,0.7,0.5,1.3,0.6l-0.2,1.1c-0.8-0.1-1.4-0.5-1.8-1c-0.4-0.5-0.6-1.1-0.6-1.9c0-0.5,0.1-1,0.3-1.4c0.2-0.4,0.5-0.8,0.9-1
				c0.4-0.2,0.8-0.3,1.2-0.3c0.4,0,0.8,0.1,1.1,0.3c0.3,0.2,0.6,0.5,0.8,1c0.1-0.6,0.4-1,0.8-1.3s0.9-0.5,1.5-0.5
				c0.8,0,1.5,0.3,2.1,0.9c0.6,0.6,0.9,1.3,0.9,2.3c0,0.8-0.2,1.5-0.7,2C129.7,641.9,129,642.3,128.3,642.3z"/>
		</g>
		<g>
			<path class="st12" d="M158.6,699.3v1.1h-7.3c0.3,0.3,0.5,0.6,0.8,1.1c0.3,0.4,0.5,0.9,0.6,1.2h-1.1c-0.3-0.6-0.7-1.2-1.1-1.7
				c-0.4-0.5-0.8-0.8-1.3-1v-0.7H158.6z"/>
			<path class="st12" d="M156.1,696.3l-0.1-1.2c0.6-0.1,1-0.3,1.3-0.6c0.3-0.3,0.4-0.7,0.4-1.2c0-0.6-0.2-1-0.6-1.4s-1-0.6-1.7-0.6
				c-0.7,0-1.2,0.2-1.6,0.6s-0.6,0.8-0.6,1.4c0,0.4,0.1,0.7,0.3,1c0.2,0.3,0.4,0.5,0.7,0.7l-0.1,1.1l-4.8-0.9v-4.7h1.1v3.7l2.5,0.5
				c-0.4-0.6-0.6-1.2-0.6-1.8c0-0.8,0.3-1.5,0.8-2.1c0.6-0.6,1.3-0.8,2.2-0.8c0.8,0,1.6,0.2,2.2,0.7c0.8,0.6,1.1,1.4,1.1,2.5
				c0,0.9-0.2,1.5-0.7,2.1C157.5,696,156.9,696.3,156.1,696.3z"/>
			<path class="st12" d="M158.6,688.4h-1.3v-1.3h1.3V688.4z"/>
			<path class="st12" d="M158.6,681.8h-2.2v4.1h-1.1l-6.1-4.3v-0.9h6.1v-1.3h1.1v1.3h2.2V681.8z M155.3,681.8H151l4.2,2.9V681.8z"/>
		</g>
		<g>
			<path class="st12" d="M153.9,678.2c-1.1,0-2-0.1-2.7-0.3c-0.7-0.2-1.2-0.6-1.6-1s-0.5-1-0.5-1.7c0-0.5,0.1-0.9,0.3-1.3
				c0.2-0.4,0.5-0.7,0.9-0.9c0.4-0.2,0.8-0.4,1.4-0.6s1.3-0.2,2.2-0.2c1.1,0,2,0.1,2.7,0.3c0.7,0.2,1.2,0.6,1.6,1
				c0.4,0.4,0.6,1,0.6,1.7c0,0.9-0.3,1.6-1,2.1C157,677.9,155.7,678.2,153.9,678.2z M153.9,677c1.5,0,2.6-0.2,3.1-0.5
				c0.5-0.4,0.8-0.8,0.8-1.3s-0.3-1-0.8-1.3c-0.5-0.4-1.5-0.5-3.1-0.5c-1.5,0-2.6,0.2-3.1,0.5c-0.5,0.4-0.8,0.8-0.8,1.3
				c0,0.5,0.2,0.9,0.7,1.3C151.4,676.8,152.4,677,153.9,677z"/>
		</g>
	</g>
</g>
<g id="Watermark">
	<g>
		<rect x="438.5" y="489.2" class="st0" width="123.1" height="46.3"/>
		<g>
			<rect x="444.9" y="497.1" class="st75" width="62.9" height="30.6"/>
			<rect x="507.7" y="497.1" class="st75" width="47.4" height="30.6"/>
			<g>
				<path class="st76" d="M466.5,503.2l-2.8,18.9H461l-1.6-11l-1.5,11h-2.7l-2.8-18.9h2.5l1.8,14.2l1.8-14.2h2l1.8,14.2l1.8-14.2
					H466.5z"/>
				<path class="st76" d="M467.9,522.1v-18.9h2.5v18.9H467.9z"/>
				<path class="st76" d="M472.8,503.2h5c1.9,0,2.9,1.1,2.9,3.2v4.7c0,1.7-0.5,2.7-1.5,3.1l1.8,7.9h-2.4l-1.7-7.6h-1.5v7.6h-2.5
					V503.2z M475.4,512.3h1.7c0.8,0,1.1-0.5,1.1-1.4v-4.1c0-0.9-0.4-1.4-1.1-1.4h-1.7V512.3z"/>
				<path class="st76" d="M486.8,505.5v16.6h-2.5v-16.6h-2.4v-2.3h7.4v2.3H486.8z"/>
				<path class="st76" d="M496.3,522.1v-8.6h-3.1v8.6h-2.5v-18.9h2.5v8h3.1v-8h2.5v18.9H496.3z"/>
			</g>
			<g>
				<path class="st76" d="M516.3,503.2h5c1.9,0,2.9,1.1,2.9,3.2v4.7c0,1.7-0.5,2.7-1.5,3.1l1.8,7.9H522l-1.7-7.6h-1.5v7.6h-2.5
					V503.2z M518.8,512.3h1.7c0.8,0,1.1-0.5,1.1-1.4v-4.1c0-0.9-0.4-1.4-1.1-1.4h-1.7V512.3z"/>
				<path class="st76" d="M528.7,522.1h-2.5v-15.7c0-2.2,1-3.2,3-3.2h1.9c2,0,3,1.1,3,3.2v15.7h-2.5v-6.9h-2.9V522.1z M531.6,512.9
					v-6.3c0-0.7-0.4-1.1-1.1-1.1h-0.7c-0.7,0-1.1,0.4-1.1,1.1v6.3H531.6z"/>
				<path class="st76" d="M536.3,522.1v-18.9h2.5v18.9H536.3z"/>
				<path class="st76" d="M547.2,522.1h-6v-18.9h2.5v16.6h3.5V522.1z"/>
			</g>
		</g>
	</g>
</g>
</svg>
