<?xml version="1.0" encoding="utf-8"?>
<!-- Generator: Adobe Illustrator 25.2.3, SVG Export Plug-In . SVG Version: 6.00 Build 0)  -->
<svg version="1.1" xmlns="http://www.w3.org/2000/svg" xmlns:xlink="http://www.w3.org/1999/xlink" x="0px" y="0px"
	 viewBox="0 0 1000 800" style="enable-background:new 0 0 1000 800;" xml:space="preserve">
<style type="text/css">
	.st0{fill:#F0F0F0;}
	.st1{fill:none;stroke:#221E1F;stroke-width:1.0614;}
	.st2{fill:#221E1F;}
	.st3{fill:none;stroke:#221E1F;stroke-width:1.0614;stroke-dasharray:12.8405,6.4722;}
	.st4{fill:none;stroke:#000000;stroke-width:1.404;}
	.st5{fill:none;stroke:#000000;stroke-width:0.975;}
	.st6{fill:none;stroke:#000000;stroke-width:0.975;stroke-dasharray:11.5538,5.7038;}
	.st7{fill:none;stroke:#000000;stroke-width:0.975;stroke-miterlimit:10;}
	.st8{fill:none;stroke:#221E1F;stroke-width:0.8906;}
	.st9{fill:none;stroke:#221E1F;stroke-width:0.8819;}
	.st10{clip-path:url(#SVGID_2_);fill:none;stroke:#221E1F;stroke-width:0.8819;}
	.st11{clip-path:url(#SVGID_4_);fill:none;stroke:#221E1F;stroke-width:0.8819;}
	.st12{fill:#303030;}
	.st13{fill:none;stroke:#303030;stroke-width:0.8906;stroke-miterlimit:10;}
	.st14{clip-path:url(#SVGID_6_);fill:none;stroke:#221E1F;stroke-width:0.8906;}
	.st15{fill:none;stroke:#221E1F;stroke-width:0.8906;stroke-dasharray:23.0235,6.997;}
	.st16{fill:none;stroke:#221E1F;stroke-width:0.8906;stroke-dasharray:19.498,3.4714;}
	.st17{fill:none;stroke:#221E1F;stroke-width:0.8906;stroke-dasharray:21.3897,6.2234;}
	.st18{clip-path:url(#SVGID_8_);fill:none;stroke:#221E1F;stroke-width:0.8025;}
	.st19{fill:none;stroke:#221E1F;stroke-width:0.7299;}
	.st20{clip-path:url(#SVGID_10_);fill:none;stroke:#221E1F;stroke-width:0.8025;}
	.st21{fill:none;stroke:#221E1F;stroke-width:0.7726;}
	.st22{fill:none;stroke:#221E1F;stroke-width:0.8025;}
	.st23{fill:none;stroke:#221E1F;stroke-width:0.8025;stroke-dasharray:21.5886,6.6505;}
	.st24{fill:none;stroke:#303030;stroke-width:0.8025;stroke-miterlimit:10;}
	.st25{fill:none;stroke:#221E1F;stroke-width:0.811;stroke-dasharray:21.8106,6.6911;}
	.st26{fill:none;stroke:#221E1F;stroke-width:0.811;stroke-dasharray:16.7651,1.6456;}
	.st27{fill:none;stroke:#221E1F;stroke-width:0.811;}
	.st28{clip-path:url(#SVGID_12_);fill:#221E1F;}
	.st29{fill:none;stroke:#221E1F;stroke-width:1.2695;}
	.st30{fill:none;stroke:#221E1F;stroke-width:0.8814;}
	.st31{fill:none;stroke:#221E1F;stroke-width:1.4133;}
	.st32{fill:none;stroke:#221E1F;stroke-width:0.9807;}
	.st33{fill:none;stroke:#221E1F;stroke-width:0.9807;stroke-dasharray:13.5825,6.7924;}
	.st34{fill:none;stroke:#221E1F;stroke-width:0.9807;stroke-dasharray:19.5641,12.5429;}
	.st35{fill:none;stroke:#221E1F;stroke-width:1.1332;}
	.st36{fill:none;stroke:#221E1F;stroke-width:1.7102;}
	.st37{fill:none;stroke:#221E1F;stroke-width:1.2031;stroke-linecap:round;stroke-linejoin:round;stroke-miterlimit:10;}
	.st38{fill:none;stroke:#221E1F;stroke-width:1.2031;}
	.st39{fill:none;stroke:#221E1F;stroke-width:1.2031;stroke-miterlimit:10;}
	
		.st40{fill:none;stroke:#221E1F;stroke-width:1.2031;stroke-linecap:round;stroke-linejoin:round;stroke-miterlimit:10;stroke-dasharray:9.1021,1.1746,1.1746,1.1746;stroke-dashoffset:10;}
	
		.st41{fill:none;stroke:#221E1F;stroke-width:1.2031;stroke-linecap:round;stroke-linejoin:round;stroke-miterlimit:10;stroke-dasharray:9.1228,1.1953,1.1953,1.1953;stroke-dashoffset:10;}
	.st42{fill:none;stroke:#221E1F;stroke-width:1.0246;}
	.st43{fill:none;stroke:#221E1F;stroke-width:1.0246;stroke-dasharray:5.7593,5.7593;}
	.st44{fill:none;stroke:#221E1F;stroke-width:1.0582;}
	.st45{fill:none;stroke:#221E1F;stroke-width:1.0246;stroke-dasharray:5.8059,5.8059;}
	.st46{fill:none;stroke:#241F21;stroke-width:0.8839;}
	.st47{fill:#241F21;}
	.st48{fill:none;stroke:#241F21;stroke-width:1.2533;}
	.st49{fill:none;stroke:#241F21;stroke-width:0.7133;stroke-linecap:round;stroke-linejoin:round;stroke-miterlimit:10;}
	.st50{fill:none;stroke:#241F21;stroke-width:0.8839;stroke-miterlimit:10;}
	
		.st51{clip-path:url(#SVGID_14_);fill:none;stroke:#241F21;stroke-width:0.8839;stroke-linecap:round;stroke-linejoin:round;stroke-miterlimit:10;}
	.st52{clip-path:url(#SVGID_14_);fill:none;stroke:#241F21;stroke-width:0.8839;stroke-miterlimit:10;}
	.st53{fill:none;stroke:#241F21;stroke-width:0.8839;stroke-linecap:round;stroke-linejoin:round;stroke-miterlimit:10;}
	.st54{fill:none;stroke:#241F21;stroke-width:0.7642;stroke-linecap:round;stroke-linejoin:round;stroke-miterlimit:10;}
	
		.st55{fill:none;stroke:#241F21;stroke-width:0.7133;stroke-linecap:round;stroke-linejoin:round;stroke-miterlimit:10;stroke-dasharray:9.9652,1.3195,1.3195,1.3195;stroke-dashoffset:11;}
	
		.st56{fill:none;stroke:#241F21;stroke-width:0.7133;stroke-linecap:round;stroke-linejoin:round;stroke-miterlimit:10;stroke-dasharray:9.7079,1.0622,1.0622,1.0622;stroke-dashoffset:10;}
	.st57{fill:none;stroke:#241F21;stroke-width:0.8839;stroke-dasharray:5.5991,5.5991;}
	.st58{fill:none;stroke:#241F21;stroke-width:0.7515;stroke-dasharray:5.6857,5.6857;}
	.st59{fill:none;stroke:#221E1F;stroke-width:1.0101;stroke-miterlimit:10;}
	.st60{fill:none;stroke:#221E1F;stroke-width:1.0012;}
	.st61{fill:none;stroke:#221E1F;stroke-width:0.9081;}
	.st62{fill:none;stroke:#221E1F;stroke-width:1.0385;}
	.st63{fill:none;stroke:#221E1F;stroke-width:0.9081;stroke-dasharray:20.8407,6.1278;}
	.st64{fill:none;stroke:#221E1F;stroke-width:1.406;}
	.st65{fill:none;stroke:#221E1F;stroke-width:0.9906;}
	.st66{fill:none;stroke:#221E1F;stroke-width:0.9887;}
	.st67{fill:none;stroke:#221E1F;stroke-width:0.8443;}
	.st68{fill:none;stroke:#221E1F;stroke-width:0.8443;stroke-dasharray:4.4655,4.4655;}
	.st69{fill:none;stroke:#221E1F;stroke-width:1.7608;}
	.st70{fill:none;stroke:#221E1F;stroke-width:1.0549;}
	.st71{clip-path:url(#SVGID_16_);fill:none;stroke:#221E1F;stroke-width:1.0549;}
	.st72{fill:none;stroke:#221E1F;stroke-width:1.0549;stroke-dasharray:5.538,5.538;}
	.st73{clip-path:url(#SVGID_18_);}
	.st74{clip-path:url(#SVGID_20_);}
	.st75{fill:#F0F0F0;stroke:#CCCCCC;stroke-miterlimit:10;}
	.st76{fill:#CCCCCC;}
</style>
<g id="Flat">
	<g>
		<line class="st35" x1="96.5" y1="678.5" x2="699.4" y2="678.5"/>
		<polygon class="st2" points="99.8,683.2 81.4,678.3 99.8,673.3 		"/>
		<polygon class="st0" points="273.9,82.9 268.4,83.7 258.3,87.3 249.3,95.1 242.6,105.2 240.4,117.6 240.4,117.5 240.4,229.3 
			243.7,243.9 251.5,257.3 262.7,267.4 273.9,270.8 346.6,289.7 363.4,295.3 377.9,304.3 390.2,315.4 400.3,330 408.1,345.6 
			411.5,360.1 413.7,378.1 414.7,397 415.9,414.9 415.9,426.1 416,447.3 415.9,471.9 413.7,489.8 410.3,507.7 405.9,524.5 
			401.3,542.4 395.9,559.2 389.1,570.4 379,584.9 366.8,596.1 352.2,605 335.4,610.6 184.5,648.7 176.6,653.1 169.9,658.7 
			165.4,667.7 164.4,673.2 164.4,717.9 164.4,719.7 165.4,722.5 167.6,724.7 170.3,726.3 173.2,726.9 828.6,727 828.6,726.9 
			829.7,726.9 833,725.8 835.3,723.5 836.4,721.3 837.5,717.9 837.6,673.2 837.5,673.2 836.4,667.7 831.9,658.7 825.2,653.1 
			817.4,648.7 666.4,610.6 649.6,605 635.1,596.1 622.7,584.9 612.7,570.4 606,559.2 600.4,541.3 594.8,524.5 591.5,506.6 
			588.1,488.7 585.9,470.8 585.9,407.1 587,389.2 589.2,371.3 590.4,360.1 593.7,345.6 601.5,330 611.7,315.4 623.9,304.3 
			638.4,295.3 655.2,289.7 727.9,270.8 742.5,265.2 752.5,253.9 759.2,240.5 761.5,229.3 761.6,117.5 761.5,117.6 759.2,105.2 
			752.5,95.1 743.5,87.3 733,83.3 727.9,82.9 705.5,81.7 675.3,80.6 645.2,79.5 614.9,78.4 583.6,77.2 432.7,77.2 402.5,78.4 
			372.4,78.4 342.1,79.5 311.9,80.6 		"/>
		<polygon class="st36" points="273.9,82.9 268.4,83.7 258.3,87.3 249.3,95.1 242.6,105.2 240.4,117.6 240.4,117.5 240.4,229.3 
			243.7,243.9 251.5,257.3 262.7,267.4 273.9,270.8 346.6,289.7 363.4,295.3 377.9,304.3 390.2,315.4 400.3,330 408.1,345.6 
			411.5,360.1 413.7,378.1 414.7,397 415.9,414.9 415.9,426.1 416,447.3 415.9,471.9 413.7,489.8 410.3,507.7 405.9,524.5 
			401.3,542.4 395.9,559.2 389.1,570.4 379,584.9 366.8,596.1 352.2,605 335.4,610.6 184.5,648.7 176.6,653.1 169.9,658.7 
			165.4,667.7 164.4,673.2 164.4,717.9 164.4,719.7 165.4,722.5 167.6,724.7 170.3,726.3 173.2,726.9 828.6,727 828.6,726.9 
			829.7,726.9 833,725.8 835.3,723.5 836.4,721.3 837.5,717.9 837.6,673.2 837.5,673.2 836.4,667.7 831.9,658.7 825.2,653.1 
			817.4,648.7 666.4,610.6 649.6,605 635.1,596.1 622.7,584.9 612.7,570.4 606,559.2 600.4,541.3 594.8,524.5 591.5,506.6 
			588.1,488.7 585.9,470.8 585.9,407.1 587,389.2 589.2,371.3 590.4,360.1 593.7,345.6 601.5,330 611.7,315.4 623.9,304.3 
			638.4,295.3 655.2,289.7 727.9,270.8 742.5,265.2 752.5,253.9 759.2,240.5 761.5,229.3 761.6,117.5 761.5,117.6 759.2,105.2 
			752.5,95.1 743.5,87.3 733,83.3 727.9,82.9 705.5,81.7 675.3,80.6 645.2,79.5 614.9,78.4 583.6,77.2 432.7,77.2 402.5,78.4 
			372.4,78.4 342.1,79.5 311.9,80.6 		"/>
		<polyline class="st37" points="404,383.8 321.4,391.4 335.4,402.5 227.7,425.4 		"/>
		<g>
			<path class="st2" d="M407.5,382.1c-2.6-0.6-4.2-1.2-6.3-1.9l0.4,7.7c0.7-0.4,3.6-1.7,6-2.6c2.6-1,5.1-1.7,6.6-2
				C412.7,383.1,410.2,382.7,407.5,382.1"/>
		</g>
		<polyline class="st38" points="397.8,515.7 317.3,496.3 341.9,484.5 226.8,447.6 		"/>
		<g>
			<path class="st2" d="M401.6,514.8c-2.3-1.2-3.8-2.2-5.7-3.4l-1.4,7.6c0.8-0.2,3.9-0.8,6.5-1.1c2.8-0.3,5.3-0.4,6.9-0.3
				C406.4,517.1,404.1,516.1,401.6,514.8"/>
		</g>
		<polyline class="st37" points="534,87.9 534,180 511.7,149 501.8,391.4 		"/>
		<g>
			<path class="st2" d="M532.4,84.1c-0.8,2.7-1.5,4.5-2.3,6.7h7.7c-0.3-0.8-1.5-3.9-2.3-6.7c-0.8-2.9-1.4-5.5-1.6-7.2
				C533.8,78.5,533.2,81.2,532.4,84.1"/>
		</g>
		<path class="st39" d="M625.9,76.4h290.7 M771.3,727.3h145.4 M837.1,686.4v111.3 M240.3,15.9v104.6 M760.6,15.9v192.6"/>
		<line class="st37" x1="505.2" y1="307" x2="880.1" y2="307"/>
		<path class="st39" d="M503.5,447.2h334.5 M503.5,426.7h334.5"/>
		<line class="st37" x1="500.3" y1="590.8" x2="878.9" y2="590.8"/>
		<line class="st39" x1="195.8" y1="78.1" x2="240.3" y2="78.1"/>
		<line class="st37" x1="195.8" y1="263.5" x2="257.6" y2="263.5"/>
		<line class="st39" x1="131.4" y1="654.9" x2="173.8" y2="654.9"/>
		<line class="st40" x1="226.5" y1="426.7" x2="500.7" y2="426.7"/>
		<line class="st41" x1="500.7" y1="447.2" x2="224.8" y2="447.2"/>
		<g>
			<path class="st12" d="M295.6,123.4v-14.4h6.4c1.3,0,2.3,0.1,2.9,0.4c0.7,0.3,1.2,0.7,1.6,1.4s0.6,1.4,0.6,2.2c0,1-0.3,1.9-1,2.6
				c-0.7,0.7-1.7,1.1-3.1,1.3c0.5,0.2,0.9,0.5,1.1,0.7c0.6,0.5,1.1,1.1,1.6,1.9l2.5,3.9h-2.4l-1.9-3c-0.6-0.9-1-1.5-1.4-2
				c-0.4-0.5-0.7-0.8-1-1c-0.3-0.2-0.6-0.3-0.9-0.4c-0.2,0-0.6-0.1-1.1-0.1h-2.2v6.4H295.6z M297.5,115.4h4.1c0.9,0,1.5-0.1,2-0.3
				c0.5-0.2,0.9-0.5,1.1-0.9c0.3-0.4,0.4-0.8,0.4-1.3c0-0.7-0.2-1.2-0.7-1.7c-0.5-0.4-1.3-0.7-2.3-0.7h-4.5V115.4z"/>
			<path class="st12" d="M312.1,115.6c-0.7-0.3-1.3-0.6-1.6-1.1c-0.4-0.5-0.5-1.1-0.5-1.8c0-1,0.4-1.9,1.1-2.6
				c0.8-0.7,1.8-1.1,3-1.1c1.3,0,2.3,0.4,3,1.1c0.8,0.7,1.1,1.6,1.1,2.7c0,0.7-0.2,1.2-0.5,1.7s-0.9,0.9-1.6,1.1
				c0.9,0.3,1.6,0.8,2,1.4c0.5,0.6,0.7,1.4,0.7,2.3c0,1.2-0.4,2.3-1.3,3.1c-0.9,0.8-2,1.3-3.4,1.3c-1.4,0-2.6-0.4-3.4-1.3
				s-1.3-1.9-1.3-3.1c0-0.9,0.2-1.7,0.7-2.3S311.2,115.9,312.1,115.6z M311.2,119.3c0,0.5,0.1,1,0.4,1.5s0.6,0.8,1.1,1.1
				c0.5,0.3,1,0.4,1.5,0.4c0.8,0,1.5-0.3,2.1-0.8c0.5-0.5,0.8-1.2,0.8-2.1c0-0.8-0.3-1.6-0.8-2.1c-0.6-0.6-1.3-0.8-2.1-0.8
				c-0.8,0-1.5,0.3-2.1,0.8C311.4,117.8,311.2,118.5,311.2,119.3z M311.7,112.6c0,0.7,0.2,1.2,0.7,1.7c0.4,0.4,1,0.6,1.7,0.6
				c0.7,0,1.2-0.2,1.7-0.6s0.7-1,0.7-1.6c0-0.6-0.2-1.2-0.7-1.6s-1-0.7-1.7-0.7c-0.7,0-1.2,0.2-1.7,0.6S311.7,112,311.7,112.6z"/>
		</g>
		<g>
			<path class="st12" d="M525.4,143.4h-14.4v-6.4c0-1.3,0.1-2.3,0.4-2.9c0.3-0.7,0.7-1.2,1.4-1.6c0.7-0.4,1.4-0.6,2.2-0.6
				c1,0,1.9,0.3,2.6,1c0.7,0.7,1.1,1.7,1.3,3.1c0.2-0.5,0.5-0.9,0.7-1.1c0.5-0.6,1.1-1.1,1.9-1.6l3.9-2.5v2.4l-3,1.9
				c-0.9,0.6-1.5,1-2,1.4c-0.5,0.4-0.8,0.7-1,1s-0.3,0.6-0.4,0.9c0,0.2-0.1,0.6-0.1,1.1v2.2h6.4V143.4z M517.4,141.5v-4.1
				c0-0.9-0.1-1.5-0.3-2c-0.2-0.5-0.5-0.9-0.9-1.1c-0.4-0.3-0.8-0.4-1.3-0.4c-0.7,0-1.2,0.2-1.7,0.7s-0.7,1.3-0.7,2.3v4.5H517.4z"/>
			<path class="st12" d="M525.4,123.1v1.8h-11.2c0.4,0.4,0.8,1,1.2,1.7c0.4,0.7,0.7,1.3,0.9,1.9h-1.7c-0.5-1-1-1.8-1.7-2.6
				c-0.7-0.7-1.3-1.3-1.9-1.6v-1.1H525.4z"/>
			<path class="st12" d="M518.4,118.5c-1.7,0-3.1-0.2-4.1-0.5s-1.8-0.9-2.4-1.6c-0.6-0.7-0.8-1.6-0.8-2.6c0-0.8,0.2-1.4,0.5-2
				c0.3-0.6,0.8-1.1,1.3-1.4c0.6-0.4,1.3-0.7,2.1-0.9c0.8-0.2,2-0.3,3.4-0.3c1.7,0,3,0.2,4.1,0.5s1.8,0.9,2.4,1.6
				c0.6,0.7,0.8,1.6,0.8,2.6c0,1.4-0.5,2.5-1.5,3.3C523,118.1,521.1,118.5,518.4,118.5z M518.4,116.7c2.4,0,3.9-0.3,4.7-0.8
				c0.8-0.6,1.2-1.2,1.2-2s-0.4-1.5-1.2-2c-0.8-0.6-2.4-0.8-4.7-0.8c-2.4,0-3.9,0.3-4.7,0.8c-0.8,0.6-1.2,1.2-1.2,2.1
				c0,0.8,0.3,1.5,1,1.9C514.4,116.4,516,116.7,518.4,116.7z"/>
			<path class="st12" d="M518.4,107.4c-1.7,0-3.1-0.2-4.1-0.5s-1.8-0.9-2.4-1.6c-0.6-0.7-0.8-1.6-0.8-2.6c0-0.8,0.2-1.4,0.5-2
				c0.3-0.6,0.8-1.1,1.3-1.4c0.6-0.4,1.3-0.7,2.1-0.9c0.8-0.2,2-0.3,3.4-0.3c1.7,0,3,0.2,4.1,0.5s1.8,0.9,2.4,1.6
				c0.6,0.7,0.8,1.6,0.8,2.6c0,1.4-0.5,2.5-1.5,3.3C523,106.9,521.1,107.4,518.4,107.4z M518.4,105.6c2.4,0,3.9-0.3,4.7-0.8
				c0.8-0.6,1.2-1.2,1.2-2s-0.4-1.5-1.2-2c-0.8-0.6-2.4-0.8-4.7-0.8c-2.4,0-3.9,0.3-4.7,0.8c-0.8,0.6-1.2,1.2-1.2,2.1
				c0,0.8,0.3,1.5,1,1.9C514.4,105.3,516,105.6,518.4,105.6z"/>
			<path class="st12" d="M518.4,96.2c-1.7,0-3.1-0.2-4.1-0.5s-1.8-0.9-2.4-1.6c-0.6-0.7-0.8-1.6-0.8-2.6c0-0.8,0.2-1.4,0.5-2
				c0.3-0.6,0.8-1.1,1.3-1.4c0.6-0.4,1.3-0.7,2.1-0.9c0.8-0.2,2-0.3,3.4-0.3c1.7,0,3,0.2,4.1,0.5s1.8,0.9,2.4,1.6
				c0.6,0.7,0.8,1.6,0.8,2.6c0,1.4-0.5,2.5-1.5,3.3C523,95.7,521.1,96.2,518.4,96.2z M518.4,94.4c2.4,0,3.9-0.3,4.7-0.8
				c0.8-0.6,1.2-1.2,1.2-2s-0.4-1.5-1.2-2c-0.8-0.6-2.4-0.8-4.7-0.8c-2.4,0-3.9,0.3-4.7,0.8c-0.8,0.6-1.2,1.2-1.2,2.1
				c0,0.8,0.3,1.5,1,1.9C514.4,94.1,516,94.4,518.4,94.4z"/>
		</g>
		<g>
			<path class="st12" d="M304.2,305.1l-1.7-0.4l2.8-10.9c-0.5,0.3-1.2,0.5-1.9,0.8c-0.8,0.2-1.4,0.4-2,0.4l0.4-1.7
				c1.1-0.2,2-0.5,2.9-1c0.9-0.5,1.5-1,2-1.5l1.1,0.3L304.2,305.1z"/>
		</g>
		<g>
			<path class="st12" d="M309.6,306.5l0.5-1.9l1.9,0.5l-0.5,1.9L309.6,306.5z M311.6,298.3l0.5-1.9l1.9,0.5l-0.5,1.9L311.6,298.3z"
				/>
		</g>
		<g>
			<path class="st12" d="M319.5,309l0.8-3.3l-6-1.5l0.4-1.6l8.6-7.4l1.4,0.4l-2.3,9l1.9,0.5l-0.4,1.6l-1.9-0.5l-0.8,3.3L319.5,309z
				 M320.7,304.1l1.6-6.3l-6,5.2L320.7,304.1z"/>
		</g>
		<g>
			<path class="st12" d="M829.5,441.2l-0.2-1.9c0.9-0.1,1.6-0.5,2-1c0.5-0.5,0.7-1.1,0.7-1.8c0-0.8-0.3-1.6-1-2.2
				c-0.6-0.6-1.5-0.9-2.5-0.9c-1,0-1.8,0.3-2.4,0.8c-0.6,0.6-0.9,1.3-0.9,2.2c0,0.6,0.1,1.1,0.4,1.5c0.3,0.5,0.6,0.8,1,1.1l-0.2,1.7
				l-7.4-1.4v-7.1h1.7v5.7l3.9,0.8c-0.6-0.9-0.9-1.8-0.9-2.7c0-1.3,0.4-2.3,1.3-3.2c0.9-0.9,2-1.3,3.4-1.3c1.3,0,2.4,0.4,3.4,1.1
				c1.2,0.9,1.7,2.2,1.7,3.8c0,1.3-0.4,2.4-1.1,3.2C831.7,440.7,830.7,441.1,829.5,441.2z"/>
		</g>
		<g>
			<path class="st12" d="M862.7,678.9l-0.2-1.8c1-0.2,1.7-0.5,2.2-1c0.4-0.5,0.7-1.1,0.7-1.8c0-0.8-0.3-1.5-0.9-2.1
				c-0.6-0.6-1.3-0.9-2.1-0.9c-0.8,0-1.5,0.3-2,0.8c-0.5,0.5-0.8,1.2-0.8,2c0,0.3,0.1,0.7,0.2,1.2l-1.5-0.2c0-0.1,0-0.2,0-0.3
				c0-0.8-0.2-1.4-0.6-2s-1-0.9-1.8-0.9c-0.6,0-1.2,0.2-1.6,0.7c-0.4,0.4-0.6,1-0.6,1.7c0,0.7,0.2,1.3,0.6,1.7
				c0.4,0.5,1.1,0.8,1.9,0.9l-0.3,1.8c-1.2-0.2-2.1-0.7-2.7-1.5c-0.7-0.8-1-1.7-1-2.9c0-0.8,0.2-1.5,0.5-2.2
				c0.3-0.7,0.8-1.2,1.4-1.5c0.6-0.3,1.2-0.5,1.9-0.5c0.6,0,1.2,0.2,1.7,0.5c0.5,0.3,0.9,0.8,1.2,1.5c0.2-0.8,0.6-1.5,1.2-2
				c0.6-0.5,1.4-0.7,2.3-0.7c1.3,0,2.3,0.5,3.2,1.4c0.9,0.9,1.3,2.1,1.3,3.5c0,1.3-0.4,2.3-1.1,3.1
				C864.8,678.3,863.9,678.8,862.7,678.9z"/>
			<path class="st12" d="M866.5,661.1v1.8h-11.2c0.4,0.4,0.8,1,1.2,1.7c0.4,0.7,0.7,1.3,0.9,1.9h-1.7c-0.5-1-1-1.8-1.7-2.6
				c-0.7-0.7-1.3-1.3-1.9-1.6v-1.1H866.5z"/>
			<path class="st12" d="M866.5,655.6h-2v-2h2V655.6z"/>
		</g>
		<g>
			<path class="st12" d="M862.7,651l-0.2-1.9c0.9-0.1,1.6-0.5,2-1c0.5-0.5,0.7-1.1,0.7-1.8c0-0.8-0.3-1.6-1-2.2
				c-0.6-0.6-1.5-0.9-2.5-0.9c-1,0-1.8,0.3-2.4,0.8c-0.6,0.6-0.9,1.3-0.9,2.2c0,0.6,0.1,1.1,0.4,1.5c0.3,0.5,0.6,0.8,1,1.1l-0.2,1.7
				l-7.4-1.4v-7.1h1.7v5.7l3.9,0.8c-0.6-0.9-0.9-1.8-0.9-2.7c0-1.3,0.4-2.3,1.3-3.2c0.9-0.9,2-1.3,3.4-1.3c1.3,0,2.4,0.4,3.4,1.1
				c1.2,0.9,1.7,2.2,1.7,3.8c0,1.3-0.4,2.4-1.1,3.2C864.9,650.4,863.9,650.9,862.7,651z"/>
		</g>
		<g>
			<path class="st12" d="M780.8,219.8l-10.4,4v-1.9l6.2-2.2c0.7-0.2,1.4-0.5,2.1-0.7c-0.5-0.2-1.2-0.4-2-0.7l-6.3-2.3v-1.8l10.4,3.9
				V219.8z"/>
			<path class="st12" d="M768.9,205.3h2v1.9h-1.6c-0.9,0-1.5-0.1-1.9-0.3c-0.5-0.3-0.9-0.7-1.2-1.3l0.7-0.4c0.2,0.4,0.4,0.6,0.7,0.8
				c0.3,0.2,0.7,0.3,1.3,0.3V205.3z"/>
			<path class="st12" d="M772.4,187.8v9.5h-1.6v-9.5H772.4z M776.8,187.8v9.5h-1.6v-9.5H776.8z"/>
			<path class="st12" d="M768.4,180.1h-1.7v-9.3h1.4c1,0.9,2.3,1.8,3.9,2.7c1.6,0.9,3.3,1.6,5,2.1c1.2,0.4,2.5,0.6,3.9,0.7v1.8
				c-1.1,0-2.5-0.2-4.1-0.7c-1.6-0.4-3.1-1-4.6-1.8c-1.5-0.8-2.7-1.6-3.8-2.5V180.1z"/>
			<path class="st12" d="M780.8,163.4h-3.4v6.2h-1.6l-9.3-6.6v-1.4h9.3v-1.9h1.6v1.9h3.4V163.4z M775.8,163.4h-6.5l6.5,4.5V163.4z"
				/>
			<path class="st12" d="M780.8,156.9h-2v-2h2V156.9z"/>
		</g>
		<g>
			<path class="st12" d="M777.1,152.3l-0.2-1.8c1-0.2,1.7-0.5,2.2-1c0.4-0.5,0.7-1.1,0.7-1.8c0-0.8-0.3-1.5-0.9-2.1
				c-0.6-0.6-1.3-0.9-2.1-0.9c-0.8,0-1.5,0.3-2,0.8c-0.5,0.5-0.8,1.2-0.8,2c0,0.3,0.1,0.7,0.2,1.2l-1.5-0.2c0-0.1,0-0.2,0-0.3
				c0-0.8-0.2-1.4-0.6-2s-1-0.9-1.8-0.9c-0.6,0-1.2,0.2-1.6,0.7c-0.4,0.4-0.6,1-0.6,1.7c0,0.7,0.2,1.3,0.6,1.7
				c0.4,0.5,1.1,0.8,1.9,0.9l-0.3,1.8c-1.2-0.2-2.1-0.7-2.7-1.5c-0.7-0.8-1-1.7-1-2.9c0-0.8,0.2-1.5,0.5-2.2
				c0.3-0.7,0.8-1.2,1.4-1.5c0.6-0.3,1.2-0.5,1.9-0.5c0.6,0,1.2,0.2,1.7,0.5c0.5,0.3,0.9,0.8,1.2,1.5c0.2-0.8,0.6-1.5,1.2-2
				c0.6-0.5,1.4-0.7,2.3-0.7c1.3,0,2.3,0.5,3.2,1.4c0.9,0.9,1.3,2.1,1.3,3.5c0,1.3-0.4,2.3-1.1,3.1
				C779.2,151.7,778.2,152.2,777.1,152.3z"/>
		</g>
		<g>
			<path class="st12" d="M780.8,579.3l-10.4,4v-1.9l6.2-2.2c0.7-0.2,1.4-0.5,2.1-0.7c-0.5-0.2-1.2-0.4-2-0.7l-6.3-2.3v-1.8l10.4,3.9
				V579.3z"/>
			<path class="st12" d="M772.4,557.3v9.5h-1.6v-9.5H772.4z M776.8,557.3v9.5h-1.6v-9.5H776.8z"/>
			<path class="st12" d="M768.4,549.7h-1.7v-9.3h1.4c1,0.9,2.3,1.8,3.9,2.7c1.6,0.9,3.3,1.6,5,2.1c1.2,0.4,2.5,0.6,3.9,0.7v1.8
				c-1.1,0-2.5-0.2-4.1-0.7c-1.6-0.4-3.1-1-4.6-1.8c-1.5-0.8-2.7-1.6-3.8-2.5V549.7z"/>
			<path class="st12" d="M777.1,538.6l-0.2-1.9c0.9-0.1,1.6-0.5,2-1c0.5-0.5,0.7-1.1,0.7-1.8c0-0.8-0.3-1.6-1-2.2
				c-0.6-0.6-1.5-0.9-2.5-0.9c-1,0-1.8,0.3-2.4,0.8c-0.6,0.6-0.9,1.3-0.9,2.2c0,0.6,0.1,1.1,0.4,1.5c0.3,0.5,0.6,0.8,1,1.1l-0.2,1.7
				l-7.4-1.4v-7.1h1.7v5.7l3.9,0.8c-0.6-0.9-0.9-1.8-0.9-2.7c0-1.3,0.4-2.3,1.3-3.2c0.9-0.9,2-1.3,3.4-1.3c1.3,0,2.4,0.4,3.4,1.1
				c1.2,0.9,1.7,2.2,1.7,3.8c0,1.3-0.4,2.4-1.1,3.2C779.3,538,778.3,538.5,777.1,538.6z"/>
			<path class="st12" d="M780.8,526.5h-2v-2h2V526.5z"/>
		</g>
		<g>
			<path class="st12" d="M768.4,521.7h-1.7v-9.3h1.4c1,0.9,2.3,1.8,3.9,2.7c1.6,0.9,3.3,1.6,5,2.1c1.2,0.4,2.5,0.6,3.9,0.7v1.8
				c-1.1,0-2.5-0.2-4.1-0.7c-1.6-0.4-3.1-1-4.6-1.8c-1.5-0.8-2.7-1.6-3.8-2.5V521.7z"/>
		</g>
		<g>
			<path class="st12" d="M234.9,681.9v-14.4h6.4c1.3,0,2.3,0.1,2.9,0.4c0.7,0.3,1.2,0.7,1.6,1.4c0.4,0.7,0.6,1.4,0.6,2.2
				c0,1-0.3,1.9-1,2.6c-0.7,0.7-1.7,1.1-3.1,1.3c0.5,0.2,0.9,0.5,1.1,0.7c0.6,0.5,1.1,1.1,1.6,1.9l2.5,3.9h-2.4l-1.9-3
				c-0.6-0.9-1-1.5-1.4-2c-0.4-0.5-0.7-0.8-1-1s-0.6-0.3-0.9-0.4c-0.2,0-0.6-0.1-1.1-0.1h-2.2v6.4H234.9z M236.8,673.8h4.1
				c0.9,0,1.5-0.1,2-0.3c0.5-0.2,0.9-0.5,1.1-0.9s0.4-0.8,0.4-1.3c0-0.7-0.2-1.2-0.7-1.7s-1.3-0.7-2.3-0.7h-4.5V673.8z"/>
			<path class="st12" d="M257.8,671l-1.8,0.1c-0.2-0.7-0.4-1.2-0.7-1.5c-0.5-0.5-1.1-0.8-1.8-0.8c-0.6,0-1.1,0.2-1.5,0.5
				c-0.6,0.4-1,1-1.3,1.8s-0.5,1.9-0.5,3.3c0.4-0.6,0.9-1.1,1.6-1.4c0.6-0.3,1.3-0.5,1.9-0.5c1.2,0,2.2,0.4,3,1.3s1.2,2,1.2,3.4
				c0,0.9-0.2,1.7-0.6,2.5c-0.4,0.8-0.9,1.4-1.6,1.8c-0.7,0.4-1.5,0.6-2.3,0.6c-1.5,0-2.7-0.5-3.6-1.6s-1.4-2.9-1.4-5.3
				c0-2.8,0.5-4.8,1.5-6.1c0.9-1.1,2.1-1.6,3.6-1.6c1.1,0,2.1,0.3,2.8,1C257.2,669,257.6,669.9,257.8,671z M250.6,677.2
				c0,0.6,0.1,1.2,0.4,1.7c0.3,0.6,0.6,1,1.1,1.3c0.5,0.3,1,0.4,1.5,0.4c0.7,0,1.4-0.3,1.9-0.9c0.5-0.6,0.8-1.4,0.8-2.4
				c0-1-0.3-1.8-0.8-2.3s-1.2-0.9-2-0.9c-0.8,0-1.5,0.3-2,0.9C250.9,675.5,250.6,676.3,250.6,677.2z"/>
		</g>
		<g>
			<path class="st12" d="M236,713.8v-14.4h6.4c1.3,0,2.3,0.1,2.9,0.4c0.7,0.3,1.2,0.7,1.6,1.4c0.4,0.7,0.6,1.4,0.6,2.2
				c0,1-0.3,1.9-1,2.6c-0.7,0.7-1.7,1.1-3.1,1.3c0.5,0.2,0.9,0.5,1.1,0.7c0.6,0.5,1.1,1.1,1.6,1.9l2.5,3.9h-2.4l-1.9-3
				c-0.6-0.9-1-1.5-1.4-2c-0.4-0.5-0.7-0.8-1-1s-0.6-0.3-0.9-0.4c-0.2,0-0.6-0.1-1.1-0.1h-2.2v6.4H236z M237.9,705.8h4.1
				c0.9,0,1.5-0.1,2-0.3c0.5-0.2,0.9-0.5,1.1-0.9s0.4-0.8,0.4-1.3c0-0.7-0.2-1.2-0.7-1.7s-1.3-0.7-2.3-0.7h-4.5V705.8z"/>
			<path class="st12" d="M259,712.1v1.7h-9.5c0-0.4,0.1-0.8,0.2-1.2c0.2-0.6,0.6-1.3,1.2-1.9c0.5-0.6,1.3-1.4,2.3-2.2
				c1.6-1.3,2.6-2.3,3.2-3s0.8-1.5,0.8-2.1c0-0.7-0.2-1.3-0.8-1.8c-0.5-0.5-1.2-0.7-2-0.7c-0.8,0-1.5,0.3-2,0.8s-0.8,1.2-0.8,2.1
				l-1.8-0.2c0.1-1.4,0.6-2.4,1.4-3.1c0.8-0.7,1.9-1.1,3.3-1.1c1.4,0,2.5,0.4,3.3,1.1c0.8,0.8,1.2,1.7,1.2,2.8
				c0,0.6-0.1,1.1-0.4,1.7c-0.2,0.6-0.6,1.1-1.2,1.8c-0.5,0.6-1.5,1.5-2.7,2.5c-1.1,0.9-1.7,1.5-2,1.8c-0.3,0.3-0.5,0.6-0.7,1H259z"
				/>
		</g>
		<g>
			<path class="st12" d="M463.4,780.5h-1.8v-11.2c-0.4,0.4-1,0.8-1.7,1.2c-0.7,0.4-1.3,0.7-1.9,0.9v-1.7c1-0.5,1.8-1,2.6-1.7
				c0.7-0.7,1.3-1.3,1.6-1.9h1.1V780.5z"/>
			<path class="st12" d="M468,776.7l1.9-0.2c0.1,0.9,0.5,1.6,1,2c0.5,0.5,1.1,0.7,1.8,0.7c0.8,0,1.6-0.3,2.2-1
				c0.6-0.6,0.9-1.5,0.9-2.5c0-1-0.3-1.8-0.8-2.4c-0.6-0.6-1.3-0.9-2.2-0.9c-0.6,0-1.1,0.1-1.5,0.4c-0.5,0.3-0.8,0.6-1.1,1l-1.7-0.2
				l1.4-7.4h7.1v1.7h-5.7l-0.8,3.9c0.9-0.6,1.8-0.9,2.7-0.9c1.3,0,2.3,0.4,3.2,1.3c0.9,0.9,1.3,2,1.3,3.4c0,1.3-0.4,2.4-1.1,3.4
				c-0.9,1.2-2.2,1.7-3.8,1.7c-1.3,0-2.4-0.4-3.2-1.1C468.5,778.9,468.1,777.9,468,776.7z"/>
			<path class="st12" d="M479.1,776.7l1.9-0.2c0.1,0.9,0.5,1.6,1,2c0.5,0.5,1.1,0.7,1.8,0.7c0.8,0,1.6-0.3,2.2-1
				c0.6-0.6,0.9-1.5,0.9-2.5c0-1-0.3-1.8-0.8-2.4c-0.6-0.6-1.3-0.9-2.2-0.9c-0.6,0-1.1,0.1-1.5,0.4c-0.5,0.3-0.8,0.6-1.1,1l-1.7-0.2
				l1.4-7.4h7.1v1.7h-5.7l-0.8,3.9c0.9-0.6,1.8-0.9,2.7-0.9c1.3,0,2.3,0.4,3.2,1.3c0.9,0.9,1.3,2,1.3,3.4c0,1.3-0.4,2.4-1.1,3.4
				c-0.9,1.2-2.2,1.7-3.8,1.7c-1.3,0-2.4-0.4-3.2-1.1C479.7,778.9,479.2,777.9,479.1,776.7z"/>
			<path class="st12" d="M499.7,784.7c-1-1.2-1.8-2.7-2.5-4.3c-0.7-1.6-1-3.4-1-5.1c0-1.6,0.3-3,0.8-4.5c0.6-1.7,1.5-3.3,2.7-4.9
				h1.3c-0.8,1.4-1.3,2.3-1.6,2.9c-0.4,0.9-0.7,1.8-0.9,2.8c-0.3,1.2-0.4,2.4-0.4,3.7c0,3.1,1,6.3,2.9,9.4H499.7z"/>
			<path class="st12" d="M511.7,769.6l-1.8,0.1c-0.2-0.7-0.4-1.2-0.7-1.5c-0.5-0.5-1.1-0.8-1.8-0.8c-0.6,0-1.1,0.2-1.5,0.5
				c-0.6,0.4-1,1-1.3,1.8s-0.5,1.9-0.5,3.3c0.4-0.6,0.9-1.1,1.6-1.4c0.6-0.3,1.3-0.5,1.9-0.5c1.2,0,2.2,0.4,3,1.3s1.2,2,1.2,3.4
				c0,0.9-0.2,1.7-0.6,2.5c-0.4,0.8-0.9,1.4-1.6,1.8c-0.7,0.4-1.5,0.6-2.3,0.6c-1.5,0-2.7-0.5-3.6-1.6s-1.4-2.9-1.4-5.3
				c0-2.8,0.5-4.8,1.5-6.1c0.9-1.1,2.1-1.6,3.6-1.6c1.1,0,2.1,0.3,2.8,1C511.1,767.6,511.5,768.5,511.7,769.6z M504.5,775.8
				c0,0.6,0.1,1.2,0.4,1.7c0.3,0.6,0.6,1,1.1,1.3c0.5,0.3,1,0.4,1.5,0.4c0.7,0,1.4-0.3,1.9-0.9c0.5-0.6,0.8-1.4,0.8-2.4
				c0-1-0.3-1.8-0.8-2.3s-1.2-0.9-2-0.9c-0.8,0-1.5,0.3-2,0.9C504.8,774.1,504.5,774.9,504.5,775.8z"/>
			<path class="st12" d="M514.7,780.5v-2h2v2H514.7z"/>
			<path class="st12" d="M525.9,780.5h-1.8v-11.2c-0.4,0.4-1,0.8-1.7,1.2c-0.7,0.4-1.3,0.7-1.9,0.9v-1.7c1-0.5,1.8-1,2.6-1.7
				c0.7-0.7,1.3-1.3,1.6-1.9h1.1V780.5z"/>
			<path class="st12" d="M530.4,773.4c0-1.7,0.2-3.1,0.5-4.1c0.3-1,0.9-1.8,1.6-2.4c0.7-0.6,1.6-0.8,2.6-0.8c0.8,0,1.4,0.2,2,0.5
				c0.6,0.3,1.1,0.8,1.4,1.3c0.4,0.6,0.7,1.3,0.9,2.1c0.2,0.8,0.3,2,0.3,3.4c0,1.7-0.2,3-0.5,4.1c-0.3,1-0.9,1.8-1.6,2.4
				c-0.7,0.6-1.6,0.8-2.6,0.8c-1.4,0-2.5-0.5-3.3-1.5C530.9,778,530.4,776.1,530.4,773.4z M532.2,773.4c0,2.4,0.3,3.9,0.8,4.7
				c0.6,0.8,1.2,1.2,2,1.2c0.8,0,1.5-0.4,2-1.2c0.6-0.8,0.8-2.4,0.8-4.7c0-2.4-0.3-3.9-0.8-4.7c-0.6-0.8-1.2-1.2-2.1-1.2
				c-0.8,0-1.5,0.3-1.9,1C532.5,769.4,532.2,771,532.2,773.4z"/>
			<path class="st12" d="M550.9,778.8v1.7h-9.5c0-0.4,0.1-0.8,0.2-1.2c0.2-0.6,0.6-1.3,1.2-1.9c0.5-0.6,1.3-1.4,2.3-2.2
				c1.6-1.3,2.6-2.3,3.2-3s0.8-1.5,0.8-2.1c0-0.7-0.2-1.3-0.8-1.8c-0.5-0.5-1.2-0.7-2-0.7c-0.8,0-1.5,0.3-2,0.8s-0.8,1.2-0.8,2.1
				l-1.8-0.2c0.1-1.4,0.6-2.4,1.4-3.1c0.8-0.7,1.9-1.1,3.3-1.1c1.4,0,2.5,0.4,3.3,1.1c0.8,0.8,1.2,1.7,1.2,2.8
				c0,0.6-0.1,1.1-0.4,1.7c-0.2,0.6-0.6,1.1-1.2,1.8c-0.5,0.6-1.5,1.5-2.7,2.5c-1.1,0.9-1.7,1.5-2,1.8c-0.3,0.3-0.5,0.6-0.7,1H550.9
				z"/>
			<path class="st12" d="M553.3,771.2l-0.5-2.7v-2.4h2v2.4l-0.4,2.7H553.3z M556.6,771.2l-0.5-2.7v-2.4h2v2.4l-0.5,2.7H556.6z"/>
		</g>
		<g>
			<path class="st12" d="M561.6,784.7h-1.3c2-3.1,2.9-6.3,2.9-9.4c0-1.2-0.1-2.4-0.4-3.7c-0.2-1-0.5-1.9-0.9-2.8
				c-0.3-0.6-0.8-1.6-1.6-2.9h1.3c1.2,1.6,2.1,3.3,2.7,4.9c0.5,1.4,0.8,2.9,0.8,4.5c0,1.8-0.3,3.5-1,5.1
				C563.4,782,562.6,783.5,561.6,784.7z"/>
		</g>
		<g>
			<path class="st12" d="M463.4,27.8h-1.8V16.6c-0.4,0.4-1,0.8-1.7,1.2c-0.7,0.4-1.3,0.7-1.9,0.9V17c1-0.5,1.8-1,2.6-1.7
				s1.3-1.3,1.6-1.9h1.1V27.8z"/>
			<path class="st12" d="M477.2,26.1v1.7h-9.5c0-0.4,0.1-0.8,0.2-1.2c0.2-0.6,0.6-1.3,1.2-1.9c0.5-0.6,1.3-1.4,2.3-2.2
				c1.6-1.3,2.6-2.3,3.2-3s0.8-1.5,0.8-2.1c0-0.7-0.2-1.3-0.8-1.8c-0.5-0.5-1.2-0.7-2-0.7c-0.8,0-1.5,0.3-2,0.8
				c-0.5,0.5-0.8,1.2-0.8,2.1l-1.8-0.2c0.1-1.4,0.6-2.4,1.4-3.1c0.8-0.7,1.9-1.1,3.3-1.1c1.4,0,2.5,0.4,3.3,1.1
				c0.8,0.8,1.2,1.7,1.2,2.8c0,0.6-0.1,1.1-0.4,1.7s-0.6,1.1-1.2,1.8c-0.5,0.6-1.5,1.5-2.7,2.5c-1.1,0.9-1.7,1.5-2,1.8
				c-0.3,0.3-0.5,0.6-0.7,1H477.2z"/>
			<path class="st12" d="M479.1,20.7c0-1.7,0.2-3.1,0.5-4.1c0.3-1,0.9-1.8,1.6-2.4c0.7-0.6,1.6-0.8,2.6-0.8c0.8,0,1.4,0.2,2,0.5
				c0.6,0.3,1.1,0.8,1.4,1.3s0.7,1.3,0.9,2.1c0.2,0.8,0.3,2,0.3,3.4c0,1.7-0.2,3-0.5,4.1c-0.3,1-0.9,1.8-1.6,2.4
				c-0.7,0.6-1.6,0.8-2.6,0.8c-1.4,0-2.5-0.5-3.3-1.5C479.6,25.4,479.1,23.4,479.1,20.7z M480.9,20.7c0,2.4,0.3,3.9,0.8,4.7
				c0.6,0.8,1.2,1.2,2,1.2c0.8,0,1.5-0.4,2-1.2c0.6-0.8,0.8-2.4,0.8-4.7c0-2.4-0.3-3.9-0.8-4.7c-0.6-0.8-1.2-1.2-2.1-1.2
				c-0.8,0-1.5,0.3-1.9,1C481.2,16.8,480.9,18.4,480.9,20.7z"/>
			<path class="st12" d="M499.7,32c-1-1.2-1.8-2.7-2.5-4.3c-0.7-1.6-1-3.4-1-5.1c0-1.6,0.3-3,0.8-4.5c0.6-1.7,1.5-3.3,2.7-4.9h1.3
				c-0.8,1.4-1.3,2.3-1.6,2.9c-0.4,0.9-0.7,1.8-0.9,2.8c-0.3,1.2-0.4,2.4-0.4,3.7c0,3.1,1,6.3,2.9,9.4H499.7z"/>
			<path class="st12" d="M508.2,27.8v-3.4H502v-1.6l6.6-9.3h1.4v9.3h1.9v1.6h-1.9v3.4H508.2z M508.2,22.8v-6.5l-4.5,6.5H508.2z"/>
			<path class="st12" d="M514.7,27.8v-2h2v2H514.7z"/>
			<path class="st12" d="M519.4,15.3v-1.7h9.3V15c-0.9,1-1.8,2.3-2.7,3.9c-0.9,1.6-1.6,3.3-2.1,5c-0.4,1.2-0.6,2.5-0.7,3.9h-1.8
				c0-1.1,0.2-2.5,0.7-4.1c0.4-1.6,1-3.1,1.8-4.6c0.8-1.5,1.6-2.7,2.5-3.8H519.4z"/>
			<path class="st12" d="M539.7,26.1v1.7h-9.5c0-0.4,0.1-0.8,0.2-1.2c0.2-0.6,0.6-1.3,1.2-1.9c0.5-0.6,1.3-1.4,2.3-2.2
				c1.6-1.3,2.6-2.3,3.2-3s0.8-1.5,0.8-2.1c0-0.7-0.2-1.3-0.8-1.8c-0.5-0.5-1.2-0.7-2-0.7c-0.8,0-1.5,0.3-2,0.8
				c-0.5,0.5-0.8,1.2-0.8,2.1l-1.8-0.2c0.1-1.4,0.6-2.4,1.4-3.1c0.8-0.7,1.9-1.1,3.3-1.1c1.4,0,2.5,0.4,3.3,1.1
				c0.8,0.8,1.2,1.7,1.2,2.8c0,0.6-0.1,1.1-0.4,1.7s-0.6,1.1-1.2,1.8c-0.5,0.6-1.5,1.5-2.7,2.5c-1.1,0.9-1.7,1.5-2,1.8
				c-0.3,0.3-0.5,0.6-0.7,1H539.7z"/>
			<path class="st12" d="M547.2,27.8v-3.4H541v-1.6l6.6-9.3h1.4v9.3h1.9v1.6H549v3.4H547.2z M547.2,22.8v-6.5l-4.5,6.5H547.2z"/>
			<path class="st12" d="M553.3,18.5l-0.5-2.7v-2.4h2v2.4l-0.4,2.7H553.3z M556.6,18.5l-0.5-2.7v-2.4h2v2.4l-0.5,2.7H556.6z"/>
		</g>
		<g>
			<path class="st12" d="M561.6,32h-1.3c2-3.1,2.9-6.3,2.9-9.4c0-1.2-0.1-2.4-0.4-3.7c-0.2-1-0.5-1.9-0.9-2.8
				c-0.3-0.6-0.8-1.6-1.6-2.9h1.3c1.2,1.6,2.1,3.3,2.7,4.9c0.5,1.4,0.8,2.9,0.8,4.5c0,1.8-0.3,3.5-1,5.1
				C563.4,29.4,562.6,30.8,561.6,32z"/>
		</g>
		<g>
			<path class="st12" d="M903.4,456.6v1.8h-11.2c0.4,0.4,0.8,1,1.2,1.7c0.4,0.7,0.7,1.3,0.9,1.9h-1.7c-0.5-1-1-1.8-1.7-2.6
				c-0.7-0.7-1.3-1.3-1.9-1.6v-1.1H903.4z"/>
			<path class="st12" d="M899.6,452l-0.2-1.9c0.9-0.1,1.6-0.5,2-1c0.5-0.5,0.7-1.1,0.7-1.8c0-0.8-0.3-1.6-1-2.2
				c-0.6-0.6-1.5-0.9-2.5-0.9c-1,0-1.8,0.3-2.4,0.8c-0.6,0.6-0.9,1.3-0.9,2.2c0,0.6,0.1,1.1,0.4,1.5c0.3,0.5,0.6,0.8,1,1.1l-0.2,1.7
				l-7.4-1.4v-7.1h1.7v5.7l3.9,0.8c-0.6-0.9-0.9-1.8-0.9-2.7c0-1.3,0.4-2.3,1.3-3.2c0.9-0.9,2-1.3,3.4-1.3c1.3,0,2.4,0.4,3.4,1.1
				c1.2,0.9,1.7,2.2,1.7,3.8c0,1.3-0.4,2.4-1.1,3.2C901.8,451.5,900.8,451.9,899.6,452z"/>
			<path class="st12" d="M896.3,440.9c-1.7,0-3.1-0.2-4.1-0.5c-1-0.3-1.8-0.9-2.4-1.6c-0.6-0.7-0.8-1.6-0.8-2.6c0-0.8,0.2-1.4,0.5-2
				c0.3-0.6,0.8-1.1,1.3-1.4c0.6-0.4,1.3-0.7,2.1-0.9c0.8-0.2,2-0.3,3.4-0.3c1.7,0,3,0.2,4.1,0.5c1,0.3,1.8,0.9,2.4,1.6
				c0.6,0.7,0.8,1.6,0.8,2.6c0,1.4-0.5,2.5-1.5,3.3C900.9,440.4,899,440.9,896.3,440.9z M896.3,439.1c2.4,0,3.9-0.3,4.7-0.8
				c0.8-0.6,1.2-1.2,1.2-2c0-0.8-0.4-1.5-1.2-2c-0.8-0.6-2.4-0.8-4.7-0.8c-2.4,0-3.9,0.3-4.7,0.8c-0.8,0.6-1.2,1.2-1.2,2.1
				c0,0.8,0.3,1.5,1,1.9C892.3,438.8,893.9,439.1,896.3,439.1z"/>
			<path class="st12" d="M907.6,420.3c-1.2,1-2.7,1.8-4.3,2.5c-1.6,0.7-3.4,1-5.1,1c-1.6,0-3-0.3-4.5-0.8c-1.7-0.6-3.3-1.5-4.9-2.7
				V419c1.4,0.8,2.3,1.3,2.9,1.6c0.9,0.4,1.8,0.7,2.8,0.9c1.2,0.3,2.4,0.4,3.7,0.4c3.1,0,6.3-1,9.4-2.9V420.3z"/>
			<path class="st12" d="M899.6,417.5l-0.2-1.9c0.9-0.1,1.6-0.5,2-1c0.5-0.5,0.7-1.1,0.7-1.8c0-0.8-0.3-1.6-1-2.2
				c-0.6-0.6-1.5-0.9-2.5-0.9c-1,0-1.8,0.3-2.4,0.8c-0.6,0.6-0.9,1.3-0.9,2.2c0,0.6,0.1,1.1,0.4,1.5c0.3,0.5,0.6,0.8,1,1.1l-0.2,1.7
				l-7.4-1.4v-7.1h1.7v5.7l3.9,0.8c-0.6-0.9-0.9-1.8-0.9-2.7c0-1.3,0.4-2.3,1.3-3.2c0.9-0.9,2-1.3,3.4-1.3c1.3,0,2.4,0.4,3.4,1.1
				c1.2,0.9,1.7,2.2,1.7,3.8c0,1.3-0.4,2.4-1.1,3.2C901.8,416.9,900.8,417.4,899.6,417.5z"/>
			<path class="st12" d="M903.4,405.3h-2v-2h2V405.3z"/>
			<path class="st12" d="M900,400.5l-0.2-1.7c0.8-0.1,1.4-0.4,1.7-0.8c0.4-0.4,0.5-0.9,0.5-1.6c0-0.5-0.1-1-0.4-1.4
				c-0.2-0.4-0.6-0.7-1-1c-0.4-0.3-1-0.5-1.7-0.7c-0.7-0.2-1.4-0.3-2.2-0.3c-0.1,0-0.2,0-0.4,0c0.6,0.4,1,0.8,1.4,1.4
				c0.3,0.6,0.5,1.3,0.5,2c0,1.2-0.4,2.2-1.3,3s-2,1.2-3.4,1.2c-1.5,0-2.6-0.4-3.5-1.3s-1.3-1.9-1.3-3.2c0-0.9,0.3-1.8,0.8-2.6
				c0.5-0.8,1.2-1.4,2.2-1.8c0.9-0.4,2.3-0.6,4-0.6c1.8,0,3.3,0.2,4.4,0.6c1.1,0.4,1.9,1,2.5,1.8s0.9,1.7,0.9,2.8
				c0,1.1-0.3,2-0.9,2.8C902.1,399.9,901.2,400.3,900,400.5z M893.7,393.3c-1,0-1.8,0.3-2.4,0.8c-0.6,0.5-0.9,1.2-0.9,1.9
				c0,0.8,0.3,1.5,1,2c0.6,0.6,1.5,0.9,2.5,0.9c0.9,0,1.7-0.3,2.2-0.8c0.6-0.6,0.9-1.2,0.9-2c0-0.8-0.3-1.5-0.9-2
				C895.5,393.5,894.7,393.3,893.7,393.3z"/>
			<path class="st12" d="M896.3,389.6c-1.7,0-3.1-0.2-4.1-0.5s-1.8-0.9-2.4-1.6c-0.6-0.7-0.8-1.6-0.8-2.6c0-0.8,0.2-1.4,0.5-2
				c0.3-0.6,0.8-1.1,1.3-1.4c0.6-0.4,1.3-0.7,2.1-0.9c0.8-0.2,2-0.3,3.4-0.3c1.7,0,3,0.2,4.1,0.5s1.8,0.9,2.4,1.6
				c0.6,0.7,0.8,1.6,0.8,2.6c0,1.4-0.5,2.5-1.5,3.3C900.9,389.1,899,389.6,896.3,389.6z M896.3,387.8c2.4,0,3.9-0.3,4.7-0.8
				c0.8-0.6,1.2-1.2,1.2-2s-0.4-1.5-1.2-2c-0.8-0.6-2.4-0.8-4.7-0.8c-2.4,0-3.9,0.3-4.7,0.8c-0.8,0.6-1.2,1.2-1.2,2.1
				c0,0.8,0.3,1.5,1,1.9C892.3,387.5,893.9,387.8,896.3,387.8z"/>
			<path class="st12" d="M892.5,369.3l0.1,1.8c-0.7,0.2-1.2,0.4-1.5,0.7c-0.5,0.5-0.8,1.1-0.8,1.8c0,0.6,0.2,1.1,0.5,1.5
				c0.4,0.6,1,1,1.8,1.3c0.8,0.3,1.9,0.5,3.3,0.5c-0.6-0.4-1.1-0.9-1.4-1.6c-0.3-0.6-0.5-1.3-0.5-1.9c0-1.2,0.4-2.2,1.3-3
				c0.9-0.8,2-1.2,3.4-1.2c0.9,0,1.7,0.2,2.5,0.6c0.8,0.4,1.4,0.9,1.8,1.6c0.4,0.7,0.6,1.4,0.6,2.3c0,1.5-0.5,2.7-1.6,3.6
				c-1.1,0.9-2.9,1.4-5.3,1.4c-2.8,0-4.8-0.5-6.1-1.5c-1.1-0.9-1.6-2.1-1.6-3.6c0-1.1,0.3-2.1,1-2.8
				C890.5,369.8,891.4,369.4,892.5,369.3z M898.7,376.5c0.6,0,1.2-0.1,1.7-0.4c0.6-0.3,1-0.6,1.3-1.1c0.3-0.5,0.4-1,0.4-1.5
				c0-0.7-0.3-1.4-0.9-1.9c-0.6-0.5-1.4-0.8-2.4-0.8c-1,0-1.8,0.3-2.3,0.8c-0.6,0.5-0.9,1.2-0.9,2c0,0.8,0.3,1.5,0.9,2
				S897.8,376.5,898.7,376.5z"/>
			<path class="st12" d="M894.1,363.4l-2.7,0.5H889v-2h2.4l2.7,0.5V363.4z M894.1,366.7l-2.7,0.5H889v-2h2.4l2.7,0.4V366.7z"/>
		</g>
		<g>
			<path class="st12" d="M907.6,358.4v1.3c-3.1-2-6.3-2.9-9.4-2.9c-1.2,0-2.4,0.1-3.7,0.4c-1,0.2-1.9,0.5-2.8,0.9
				c-0.6,0.3-1.6,0.8-2.9,1.6v-1.3c1.6-1.2,3.3-2.1,4.9-2.7c1.4-0.5,2.9-0.8,4.5-0.8c1.8,0,3.5,0.3,5.1,1
				C904.9,356.6,906.4,357.4,907.6,358.4z"/>
		</g>
		<g>
			<path class="st12" d="M856.2,447.7l0.1,1.8c-0.7,0.2-1.2,0.4-1.5,0.7c-0.5,0.5-0.8,1.1-0.8,1.8c0,0.6,0.2,1.1,0.5,1.5
				c0.4,0.6,1,1,1.8,1.3s1.9,0.5,3.3,0.5c-0.6-0.4-1.1-0.9-1.4-1.6c-0.3-0.6-0.5-1.3-0.5-1.9c0-1.2,0.4-2.2,1.3-3s2-1.2,3.4-1.2
				c0.9,0,1.7,0.2,2.5,0.6c0.8,0.4,1.4,0.9,1.8,1.6c0.4,0.7,0.6,1.5,0.6,2.3c0,1.5-0.5,2.7-1.6,3.6s-2.9,1.4-5.3,1.4
				c-2.8,0-4.8-0.5-6.1-1.5c-1.1-0.9-1.6-2.1-1.6-3.6c0-1.1,0.3-2.1,1-2.8C854.2,448.2,855,447.8,856.2,447.7z M862.4,454.9
				c0.6,0,1.2-0.1,1.7-0.4c0.6-0.3,1-0.6,1.3-1.1c0.3-0.5,0.4-1,0.4-1.5c0-0.7-0.3-1.4-0.9-1.9c-0.6-0.5-1.4-0.8-2.4-0.8
				c-1,0-1.8,0.3-2.3,0.8s-0.9,1.2-0.9,2c0,0.8,0.3,1.5,0.9,2C860.7,454.6,861.4,454.9,862.4,454.9z"/>
			<path class="st12" d="M863.2,445.6l-0.2-1.9c0.9-0.1,1.6-0.5,2-1c0.5-0.5,0.7-1.1,0.7-1.8c0-0.8-0.3-1.6-1-2.2
				c-0.6-0.6-1.5-0.9-2.5-0.9c-1,0-1.8,0.3-2.4,0.8c-0.6,0.6-0.9,1.3-0.9,2.2c0,0.6,0.1,1.1,0.4,1.5c0.3,0.5,0.6,0.8,1,1.1l-0.2,1.7
				l-7.4-1.4v-7.1h1.7v5.7l3.9,0.8c-0.6-0.9-0.9-1.8-0.9-2.7c0-1.3,0.4-2.3,1.3-3.2c0.9-0.9,2-1.3,3.4-1.3c1.3,0,2.4,0.4,3.4,1.1
				c1.2,0.9,1.7,2.2,1.7,3.8c0,1.3-0.4,2.4-1.1,3.2C865.4,445.1,864.5,445.5,863.2,445.6z"/>
			<path class="st12" d="M867,433.5h-2v-2h2V433.5z"/>
		</g>
		<g>
			<path class="st12" d="M863.2,428.9l-0.2-1.9c0.9-0.1,1.6-0.5,2-1c0.5-0.5,0.7-1.1,0.7-1.8c0-0.8-0.3-1.6-1-2.2
				c-0.6-0.6-1.5-0.9-2.5-0.9c-1,0-1.8,0.3-2.4,0.8c-0.6,0.6-0.9,1.3-0.9,2.2c0,0.6,0.1,1.1,0.4,1.5c0.3,0.5,0.6,0.8,1,1.1l-0.2,1.7
				l-7.4-1.4V420h1.7v5.7l3.9,0.8c-0.6-0.9-0.9-1.8-0.9-2.7c0-1.3,0.4-2.3,1.3-3.2c0.9-0.9,2-1.3,3.4-1.3c1.3,0,2.4,0.4,3.4,1.1
				c1.2,0.9,1.7,2.2,1.7,3.8c0,1.3-0.4,2.4-1.1,3.2C865.4,428.3,864.5,428.8,863.2,428.9z"/>
		</g>
		<g>
			<path class="st12" d="M821.1,529.3l-0.2-1.8c1-0.2,1.7-0.5,2.2-1c0.4-0.5,0.7-1.1,0.7-1.8c0-0.8-0.3-1.5-0.9-2.1
				c-0.6-0.6-1.3-0.9-2.1-0.9c-0.8,0-1.5,0.3-2,0.8c-0.5,0.5-0.8,1.2-0.8,2c0,0.3,0.1,0.7,0.2,1.2l-1.5-0.2c0-0.1,0-0.2,0-0.3
				c0-0.8-0.2-1.4-0.6-2s-1-0.9-1.8-0.9c-0.6,0-1.2,0.2-1.6,0.7c-0.4,0.4-0.6,1-0.6,1.7c0,0.7,0.2,1.3,0.6,1.7
				c0.4,0.5,1.1,0.8,1.9,0.9l-0.3,1.8c-1.2-0.2-2.1-0.7-2.7-1.5c-0.7-0.8-1-1.7-1-2.9c0-0.8,0.2-1.5,0.5-2.2
				c0.3-0.7,0.8-1.2,1.4-1.5c0.6-0.3,1.2-0.5,1.9-0.5c0.6,0,1.2,0.2,1.7,0.5c0.5,0.3,0.9,0.8,1.2,1.5c0.2-0.8,0.6-1.5,1.2-2
				c0.6-0.5,1.4-0.7,2.3-0.7c1.3,0,2.3,0.5,3.2,1.4c0.9,0.9,1.3,2.1,1.3,3.5c0,1.3-0.4,2.3-1.1,3.1
				C823.2,528.7,822.3,529.2,821.1,529.3z"/>
			<path class="st12" d="M821.1,518.2l-0.2-1.8c1-0.2,1.7-0.5,2.2-1c0.4-0.5,0.7-1.1,0.7-1.8c0-0.8-0.3-1.5-0.9-2.1
				c-0.6-0.6-1.3-0.9-2.1-0.9c-0.8,0-1.5,0.3-2,0.8c-0.5,0.5-0.8,1.2-0.8,2c0,0.3,0.1,0.7,0.2,1.2l-1.5-0.2c0-0.1,0-0.2,0-0.3
				c0-0.8-0.2-1.4-0.6-2s-1-0.9-1.8-0.9c-0.6,0-1.2,0.2-1.6,0.7c-0.4,0.4-0.6,1-0.6,1.7c0,0.7,0.2,1.3,0.6,1.7
				c0.4,0.5,1.1,0.8,1.9,0.9l-0.3,1.8c-1.2-0.2-2.1-0.7-2.7-1.5c-0.7-0.8-1-1.7-1-2.9c0-0.8,0.2-1.5,0.5-2.2
				c0.3-0.7,0.8-1.2,1.4-1.5c0.6-0.3,1.2-0.5,1.9-0.5c0.6,0,1.2,0.2,1.7,0.5c0.5,0.3,0.9,0.8,1.2,1.5c0.2-0.8,0.6-1.5,1.2-2
				c0.6-0.5,1.4-0.7,2.3-0.7c1.3,0,2.3,0.5,3.2,1.4c0.9,0.9,1.3,2.1,1.3,3.5c0,1.3-0.4,2.3-1.1,3.1
				C823.2,517.6,822.3,518,821.1,518.2z"/>
		</g>
		<g>
			<path class="st12" d="M823.2,369.3h1.7v9.5c-0.4,0-0.8-0.1-1.2-0.2c-0.6-0.2-1.3-0.6-1.9-1.2c-0.6-0.5-1.4-1.3-2.2-2.3
				c-1.3-1.6-2.3-2.6-3-3.2c-0.7-0.5-1.5-0.8-2.1-0.8c-0.7,0-1.3,0.2-1.8,0.7c-0.5,0.5-0.7,1.2-0.7,2c0,0.8,0.3,1.5,0.8,2
				c0.5,0.5,1.2,0.8,2.1,0.8l-0.2,1.8c-1.4-0.1-2.4-0.6-3.1-1.4c-0.7-0.8-1.1-1.9-1.1-3.3c0-1.4,0.4-2.5,1.1-3.3
				c0.8-0.8,1.7-1.2,2.8-1.2c0.6,0,1.1,0.1,1.7,0.4c0.6,0.2,1.1,0.6,1.8,1.2c0.6,0.5,1.5,1.5,2.5,2.7c0.9,1.1,1.5,1.7,1.8,2
				c0.3,0.3,0.6,0.5,1,0.7V369.3z"/>
			<path class="st12" d="M812.4,367.3h-1.7V358h1.4c1,0.9,2.3,1.8,3.9,2.7c1.6,0.9,3.3,1.6,5,2.1c1.2,0.4,2.5,0.6,3.9,0.7v1.8
				c-1.1,0-2.5-0.2-4.1-0.7c-1.6-0.4-3.1-1-4.6-1.8c-1.5-0.8-2.7-1.6-3.8-2.5V367.3z"/>
			<path class="st12" d="M824.9,355.3h-2v-2h2V355.3z"/>
		</g>
		<g>
			<path class="st12" d="M821.1,350.7l-0.2-1.9c0.9-0.1,1.6-0.5,2-1c0.5-0.5,0.7-1.1,0.7-1.8c0-0.8-0.3-1.6-1-2.2
				c-0.6-0.6-1.5-0.9-2.5-0.9c-1,0-1.8,0.3-2.4,0.8c-0.6,0.6-0.9,1.3-0.9,2.2c0,0.6,0.1,1.1,0.4,1.5c0.3,0.5,0.6,0.8,1,1.1l-0.2,1.7
				l-7.4-1.4v-7.1h1.7v5.7l3.9,0.8c-0.6-0.9-0.9-1.8-0.9-2.7c0-1.3,0.4-2.3,1.3-3.2c0.9-0.9,2-1.3,3.4-1.3c1.3,0,2.4,0.4,3.4,1.1
				c1.2,0.9,1.7,2.2,1.7,3.8c0,1.3-0.4,2.4-1.1,3.2S822.3,350.5,821.1,350.7z"/>
		</g>
		<g>
			<path class="st12" d="M863.2,197l-0.2-1.9c0.9-0.1,1.6-0.5,2-1c0.5-0.5,0.7-1.1,0.7-1.8c0-0.8-0.3-1.6-1-2.2
				c-0.6-0.6-1.5-0.9-2.5-0.9c-1,0-1.8,0.3-2.4,0.8c-0.6,0.6-0.9,1.3-0.9,2.2c0,0.6,0.1,1.1,0.4,1.5c0.3,0.5,0.6,0.8,1,1.1l-0.2,1.7
				l-7.4-1.4v-7.1h1.7v5.7l3.9,0.8c-0.6-0.9-0.9-1.8-0.9-2.7c0-1.3,0.4-2.3,1.3-3.2c0.9-0.9,2-1.3,3.4-1.3c1.3,0,2.4,0.4,3.4,1.1
				c1.2,0.9,1.7,2.2,1.7,3.8c0,1.3-0.4,2.4-1.1,3.2S864.4,196.9,863.2,197z"/>
			<path class="st12" d="M863.2,185.8L863,184c1-0.2,1.7-0.5,2.2-1c0.4-0.5,0.7-1.1,0.7-1.8c0-0.8-0.3-1.5-0.9-2.1
				c-0.6-0.6-1.3-0.9-2.1-0.9c-0.8,0-1.5,0.3-2,0.8c-0.5,0.5-0.8,1.2-0.8,2c0,0.3,0.1,0.7,0.2,1.2l-1.5-0.2c0-0.1,0-0.2,0-0.3
				c0-0.8-0.2-1.4-0.6-2s-1-0.9-1.8-0.9c-0.6,0-1.2,0.2-1.6,0.7c-0.4,0.4-0.6,1-0.6,1.7c0,0.7,0.2,1.3,0.6,1.7
				c0.4,0.5,1.1,0.8,1.9,0.9l-0.3,1.8c-1.2-0.2-2.1-0.7-2.7-1.5c-0.7-0.8-1-1.7-1-2.9c0-0.8,0.2-1.5,0.5-2.2
				c0.3-0.7,0.8-1.2,1.4-1.5c0.6-0.3,1.2-0.5,1.9-0.5c0.6,0,1.2,0.2,1.7,0.5c0.5,0.3,0.9,0.8,1.2,1.5c0.2-0.8,0.6-1.5,1.2-2
				c0.6-0.5,1.4-0.7,2.3-0.7c1.3,0,2.3,0.5,3.2,1.4c0.9,0.9,1.3,2.1,1.3,3.5c0,1.3-0.4,2.3-1.1,3.1
				C865.4,185.2,864.4,185.7,863.2,185.8z"/>
		</g>
		<g>
			<path class="st12" d="M200.1,183h-3.4v6.2h-1.6l-9.3-6.6v-1.4h9.3v-1.9h1.6v1.9h3.4V183z M195.1,183h-6.5l6.5,4.5V183z"/>
			<path class="st12" d="M198.4,168.2h1.7v9.5c-0.4,0-0.8-0.1-1.2-0.2c-0.6-0.2-1.3-0.6-1.9-1.2c-0.6-0.5-1.4-1.3-2.2-2.3
				c-1.3-1.6-2.3-2.6-3-3.2c-0.7-0.5-1.5-0.8-2.1-0.8c-0.7,0-1.3,0.2-1.8,0.7c-0.5,0.5-0.7,1.2-0.7,2c0,0.8,0.3,1.5,0.8,2
				c0.5,0.5,1.2,0.8,2.1,0.8l-0.2,1.8c-1.4-0.1-2.4-0.6-3.1-1.4c-0.7-0.8-1.1-1.9-1.1-3.3c0-1.4,0.4-2.5,1.1-3.3
				c0.8-0.8,1.7-1.2,2.8-1.2c0.6,0,1.1,0.1,1.7,0.4c0.6,0.2,1.1,0.6,1.8,1.2c0.6,0.5,1.5,1.5,2.5,2.7c0.9,1.1,1.5,1.7,1.8,2
				c0.3,0.3,0.6,0.5,1,0.7V168.2z"/>
			<path class="st12" d="M200.1,165.4h-2v-2h2V165.4z"/>
		</g>
		<g>
			<path class="st12" d="M196.8,160.5l-0.2-1.7c0.8-0.1,1.4-0.4,1.7-0.8c0.4-0.4,0.5-0.9,0.5-1.6c0-0.5-0.1-1-0.4-1.4
				c-0.2-0.4-0.6-0.7-1-1c-0.4-0.3-1-0.5-1.7-0.7c-0.7-0.2-1.4-0.3-2.2-0.3c-0.1,0-0.2,0-0.4,0c0.6,0.4,1,0.8,1.4,1.4
				c0.3,0.6,0.5,1.3,0.5,2c0,1.2-0.4,2.2-1.3,3s-2,1.2-3.4,1.2c-1.5,0-2.6-0.4-3.5-1.3s-1.3-1.9-1.3-3.2c0-0.9,0.3-1.8,0.8-2.6
				c0.5-0.8,1.2-1.4,2.2-1.8c0.9-0.4,2.3-0.6,4-0.6c1.8,0,3.3,0.2,4.4,0.6c1.1,0.4,1.9,1,2.5,1.8s0.9,1.7,0.9,2.8
				c0,1.1-0.3,2-0.9,2.8C198.8,159.9,197.9,160.3,196.8,160.5z M190.5,153.3c-1,0-1.8,0.3-2.4,0.8c-0.6,0.5-0.9,1.2-0.9,1.9
				c0,0.8,0.3,1.5,1,2c0.6,0.6,1.5,0.9,2.5,0.9c0.9,0,1.7-0.3,2.2-0.8c0.6-0.6,0.9-1.2,0.9-2c0-0.8-0.3-1.5-0.9-2
				C192.3,153.5,191.5,153.3,190.5,153.3z"/>
		</g>
		<g>
			<path class="st12" d="M147.4,692.5v1.8h-11.2c0.4,0.4,0.8,1,1.2,1.7c0.4,0.7,0.7,1.3,0.9,1.9h-1.7c-0.5-1-1-1.8-1.7-2.6
				c-0.7-0.7-1.3-1.3-1.9-1.6v-1.1H147.4z"/>
			<path class="st12" d="M134.9,687.9h-1.7v-9.3h1.4c1,0.9,2.3,1.8,3.9,2.7c1.6,0.9,3.3,1.6,5,2.1c1.2,0.4,2.5,0.6,3.9,0.7v1.8
				c-1.1,0-2.5-0.2-4.1-0.7c-1.6-0.4-3.1-1-4.6-1.8c-1.5-0.8-2.7-1.6-3.8-2.5V687.9z"/>
		</g>
		<g>
			<path class="st12" d="M295.6,564.7v-14.4h6.4c1.3,0,2.3,0.1,2.9,0.4c0.7,0.3,1.2,0.7,1.6,1.4c0.4,0.7,0.6,1.4,0.6,2.2
				c0,1-0.3,1.9-1,2.6c-0.7,0.7-1.7,1.1-3.1,1.3c0.5,0.2,0.9,0.5,1.1,0.7c0.6,0.5,1.1,1.1,1.6,1.9l2.5,3.9h-2.4l-1.9-3
				c-0.6-0.9-1-1.5-1.4-2c-0.4-0.5-0.7-0.8-1-1s-0.6-0.3-0.9-0.4c-0.2,0-0.6-0.1-1.1-0.1h-2.2v6.4H295.6z M297.5,556.7h4.1
				c0.9,0,1.5-0.1,2-0.3c0.5-0.2,0.9-0.5,1.1-0.9s0.4-0.8,0.4-1.3c0-0.7-0.2-1.2-0.7-1.7s-1.3-0.7-2.3-0.7h-4.5V556.7z"/>
			<path class="st12" d="M318.6,563v1.7h-9.5c0-0.4,0.1-0.8,0.2-1.2c0.2-0.6,0.6-1.3,1.2-1.9c0.5-0.6,1.3-1.4,2.3-2.2
				c1.6-1.3,2.6-2.3,3.2-3s0.8-1.5,0.8-2.1c0-0.7-0.2-1.3-0.8-1.8c-0.5-0.5-1.2-0.7-2-0.7c-0.8,0-1.5,0.3-2,0.8s-0.8,1.2-0.8,2.1
				l-1.8-0.2c0.1-1.4,0.6-2.4,1.4-3.1c0.8-0.7,1.9-1.1,3.3-1.1c1.4,0,2.5,0.4,3.3,1.1c0.8,0.8,1.2,1.7,1.2,2.8
				c0,0.6-0.1,1.1-0.4,1.7c-0.2,0.6-0.6,1.1-1.2,1.8c-0.5,0.6-1.5,1.5-2.7,2.5c-1.1,0.9-1.7,1.5-2,1.8c-0.3,0.3-0.5,0.6-0.7,1H318.6
				z"/>
		</g>
		<g>
			<path class="st12" d="M320.6,557.6c0-1.7,0.2-3.1,0.5-4.1c0.3-1,0.9-1.8,1.6-2.4c0.7-0.6,1.6-0.8,2.6-0.8c0.8,0,1.4,0.2,2,0.5
				c0.6,0.3,1.1,0.8,1.4,1.3c0.4,0.6,0.7,1.3,0.9,2.1c0.2,0.8,0.3,2,0.3,3.4c0,1.7-0.2,3-0.5,4.1c-0.3,1-0.9,1.8-1.6,2.4
				c-0.7,0.6-1.6,0.8-2.6,0.8c-1.4,0-2.5-0.5-3.3-1.5C321,562.2,320.6,560.3,320.6,557.6z M322.4,557.6c0,2.4,0.3,3.9,0.8,4.7
				c0.6,0.8,1.2,1.2,2,1.2c0.8,0,1.5-0.4,2-1.2c0.6-0.8,0.8-2.4,0.8-4.7c0-2.4-0.3-3.9-0.8-4.7c-0.6-0.8-1.2-1.2-2.1-1.2
				c-0.8,0-1.5,0.3-1.9,1C322.7,553.6,322.4,555.2,322.4,557.6z"/>
		</g>
		<g>
			<path class="st12" d="M326.9,361.9v-14.4h6.4c1.3,0,2.3,0.1,2.9,0.4c0.7,0.3,1.2,0.7,1.6,1.4s0.6,1.4,0.6,2.2c0,1-0.3,1.9-1,2.6
				c-0.7,0.7-1.7,1.1-3.1,1.3c0.5,0.2,0.9,0.5,1.1,0.7c0.6,0.5,1.1,1.1,1.6,1.9l2.5,3.9h-2.4l-1.9-3c-0.6-0.9-1-1.5-1.4-2
				c-0.4-0.5-0.7-0.8-1-1c-0.3-0.2-0.6-0.3-0.9-0.4c-0.2,0-0.6-0.1-1.1-0.1h-2.2v6.4H326.9z M328.8,353.9h4.1c0.9,0,1.5-0.1,2-0.3
				c0.5-0.2,0.9-0.5,1.1-0.9c0.3-0.4,0.4-0.8,0.4-1.3c0-0.7-0.2-1.2-0.7-1.7c-0.5-0.4-1.3-0.7-2.3-0.7h-4.5V353.9z"/>
			<path class="st12" d="M349.9,360.2v1.7h-9.5c0-0.4,0.1-0.8,0.2-1.2c0.2-0.6,0.6-1.3,1.2-1.9c0.5-0.6,1.3-1.4,2.3-2.2
				c1.6-1.3,2.6-2.3,3.2-3s0.8-1.5,0.8-2.1c0-0.7-0.2-1.3-0.8-1.8c-0.5-0.5-1.2-0.7-2-0.7c-0.8,0-1.5,0.3-2,0.8
				c-0.5,0.5-0.8,1.2-0.8,2.1l-1.8-0.2c0.1-1.4,0.6-2.4,1.4-3.1c0.8-0.7,1.9-1.1,3.3-1.1c1.4,0,2.5,0.4,3.3,1.1
				c0.8,0.8,1.2,1.7,1.2,2.8c0,0.6-0.1,1.1-0.4,1.7s-0.6,1.1-1.2,1.8c-0.5,0.6-1.5,1.5-2.7,2.5c-1.1,0.9-1.7,1.5-2,1.8
				c-0.3,0.3-0.5,0.6-0.7,1H349.9z"/>
		</g>
		<g>
			<path class="st12" d="M351.9,354.8c0-1.7,0.2-3.1,0.5-4.1c0.3-1,0.9-1.8,1.6-2.4c0.7-0.6,1.6-0.8,2.6-0.8c0.8,0,1.4,0.2,2,0.5
				c0.6,0.3,1.1,0.8,1.4,1.3s0.7,1.3,0.9,2.1c0.2,0.8,0.3,2,0.3,3.4c0,1.7-0.2,3-0.5,4.1c-0.3,1-0.9,1.8-1.6,2.4
				c-0.7,0.6-1.6,0.8-2.6,0.8c-1.4,0-2.5-0.5-3.3-1.5C352.3,359.5,351.9,357.5,351.9,354.8z M353.7,354.8c0,2.4,0.3,3.9,0.8,4.7
				c0.6,0.8,1.2,1.2,2,1.2c0.8,0,1.5-0.4,2-1.2c0.6-0.8,0.8-2.4,0.8-4.7c0-2.4-0.3-3.9-0.8-4.7c-0.6-0.8-1.2-1.2-2.1-1.2
				c-0.8,0-1.5,0.3-1.9,1C354,350.9,353.7,352.5,353.7,354.8z"/>
		</g>
		<g>
			<path class="st12" d="M290.6,229.4V215h6.4c1.3,0,2.3,0.1,2.9,0.4c0.7,0.3,1.2,0.7,1.6,1.4s0.6,1.4,0.6,2.2c0,1-0.3,1.9-1,2.6
				c-0.7,0.7-1.7,1.1-3.1,1.3c0.5,0.2,0.9,0.5,1.1,0.7c0.6,0.5,1.1,1.1,1.6,1.9l2.5,3.9h-2.4l-1.9-3c-0.6-0.9-1-1.5-1.4-2
				c-0.4-0.5-0.7-0.8-1-1c-0.3-0.2-0.6-0.3-0.9-0.4c-0.2,0-0.6-0.1-1.1-0.1h-2.2v6.4H290.6z M292.5,221.3h4.1c0.9,0,1.5-0.1,2-0.3
				c0.5-0.2,0.9-0.5,1.1-0.9c0.3-0.4,0.4-0.8,0.4-1.3c0-0.7-0.2-1.2-0.7-1.7c-0.5-0.4-1.3-0.7-2.3-0.7h-4.5V221.3z"/>
			<path class="st12" d="M311,229.4h-1.8v-11.2c-0.4,0.4-1,0.8-1.7,1.2c-0.7,0.4-1.3,0.7-1.9,0.9v-1.7c1-0.5,1.8-1,2.6-1.7
				s1.3-1.3,1.6-1.9h1.1V229.4z"/>
		</g>
		<g>
			<path class="st12" d="M315.5,222.3c0-1.7,0.2-3.1,0.5-4.1c0.3-1,0.9-1.8,1.6-2.4c0.7-0.6,1.6-0.8,2.6-0.8c0.8,0,1.4,0.2,2,0.5
				c0.6,0.3,1.1,0.8,1.4,1.3s0.7,1.3,0.9,2.1c0.2,0.8,0.3,2,0.3,3.4c0,1.7-0.2,3-0.5,4.1c-0.3,1-0.9,1.8-1.6,2.4
				c-0.7,0.6-1.6,0.8-2.6,0.8c-1.4,0-2.5-0.5-3.3-1.5C316,226.9,315.5,225,315.5,222.3z M317.3,222.3c0,2.4,0.3,3.9,0.8,4.7
				c0.6,0.8,1.2,1.2,2,1.2c0.8,0,1.5-0.4,2-1.2c0.6-0.8,0.8-2.4,0.8-4.7c0-2.4-0.3-3.9-0.8-4.7c-0.6-0.8-1.2-1.2-2.1-1.2
				c-0.8,0-1.5,0.3-1.9,1C317.6,218.3,317.3,219.9,317.3,222.3z"/>
		</g>
		<g>
			<path class="st12" d="M270.5,390.1v-14.4h6.4c1.3,0,2.3,0.1,2.9,0.4c0.7,0.3,1.2,0.7,1.6,1.4s0.6,1.4,0.6,2.2c0,1-0.3,1.9-1,2.6
				c-0.7,0.7-1.7,1.1-3.1,1.3c0.5,0.2,0.9,0.5,1.1,0.7c0.6,0.5,1.1,1.1,1.6,1.9l2.5,3.9h-2.4l-1.9-3c-0.6-0.9-1-1.5-1.4-2
				c-0.4-0.5-0.7-0.8-1-1c-0.3-0.2-0.6-0.3-0.9-0.4c-0.2,0-0.6-0.1-1.1-0.1h-2.2v6.4H270.5z M272.4,382h4.1c0.9,0,1.5-0.1,2-0.3
				c0.5-0.2,0.9-0.5,1.1-0.9c0.3-0.4,0.4-0.8,0.4-1.3c0-0.7-0.2-1.2-0.7-1.7c-0.5-0.4-1.3-0.7-2.3-0.7h-4.5V382z"/>
			<path class="st12" d="M290.9,390.1h-1.8v-11.2c-0.4,0.4-1,0.8-1.7,1.2c-0.7,0.4-1.3,0.7-1.9,0.9v-1.7c1-0.5,1.8-1,2.6-1.7
				s1.3-1.3,1.6-1.9h1.1V390.1z"/>
			<path class="st12" d="M295.4,383c0-1.7,0.2-3.1,0.5-4.1c0.3-1,0.9-1.8,1.6-2.4c0.7-0.6,1.6-0.8,2.6-0.8c0.8,0,1.4,0.2,2,0.5
				c0.6,0.3,1.1,0.8,1.4,1.3s0.7,1.3,0.9,2.1c0.2,0.8,0.3,2,0.3,3.4c0,1.7-0.2,3-0.5,4.1c-0.3,1-0.9,1.8-1.6,2.4
				c-0.7,0.6-1.6,0.8-2.6,0.8c-1.4,0-2.5-0.5-3.3-1.5C295.9,387.6,295.4,385.7,295.4,383z M297.2,383c0,2.4,0.3,3.9,0.8,4.7
				c0.6,0.8,1.2,1.2,2,1.2c0.8,0,1.5-0.4,2-1.2c0.6-0.8,0.8-2.4,0.8-4.7c0-2.4-0.3-3.9-0.8-4.7c-0.6-0.8-1.2-1.2-2.1-1.2
				c-0.8,0-1.5,0.3-1.9,1C297.5,379,297.2,380.6,297.2,383z"/>
			<path class="st12" d="M306.6,383c0-1.7,0.2-3.1,0.5-4.1c0.3-1,0.9-1.8,1.6-2.4c0.7-0.6,1.6-0.8,2.6-0.8c0.8,0,1.4,0.2,2,0.5
				c0.6,0.3,1.1,0.8,1.4,1.3s0.7,1.3,0.9,2.1c0.2,0.8,0.3,2,0.3,3.4c0,1.7-0.2,3-0.5,4.1c-0.3,1-0.9,1.8-1.6,2.4
				c-0.7,0.6-1.6,0.8-2.6,0.8c-1.4,0-2.5-0.5-3.3-1.5C307,387.6,306.6,385.7,306.6,383z M308.4,383c0,2.4,0.3,3.9,0.8,4.7
				c0.6,0.8,1.2,1.2,2,1.2c0.8,0,1.5-0.4,2-1.2c0.6-0.8,0.8-2.4,0.8-4.7c0-2.4-0.3-3.9-0.8-4.7c-0.6-0.8-1.2-1.2-2.1-1.2
				c-0.8,0-1.5,0.3-1.9,1C308.7,379,308.4,380.6,308.4,383z"/>
		</g>
		<g>
			<path class="st12" d="M233.3,475.9v-14.4h6.4c1.3,0,2.3,0.1,2.9,0.4c0.7,0.3,1.2,0.7,1.6,1.4c0.4,0.7,0.6,1.4,0.6,2.2
				c0,1-0.3,1.9-1,2.6c-0.7,0.7-1.7,1.1-3.1,1.3c0.5,0.2,0.9,0.5,1.1,0.7c0.6,0.5,1.1,1.1,1.6,1.9l2.5,3.9h-2.4l-1.9-3
				c-0.6-0.9-1-1.5-1.4-2c-0.4-0.5-0.7-0.8-1-1s-0.6-0.3-0.9-0.4c-0.2,0-0.6-0.1-1.1-0.1h-2.2v6.4H233.3z M235.2,467.9h4.1
				c0.9,0,1.5-0.1,2-0.3c0.5-0.2,0.9-0.5,1.1-0.9s0.4-0.8,0.4-1.3c0-0.7-0.2-1.2-0.7-1.7s-1.3-0.7-2.3-0.7h-4.5V467.9z"/>
			<path class="st12" d="M247.2,463.4v-1.7h9.3v1.4c-0.9,1-1.8,2.3-2.7,3.9c-0.9,1.6-1.6,3.3-2.1,5c-0.4,1.2-0.6,2.5-0.7,3.9h-1.8
				c0-1.1,0.2-2.5,0.7-4.1c0.4-1.6,1-3.1,1.8-4.6c0.8-1.5,1.6-2.7,2.5-3.8H247.2z"/>
		</g>
		<g>
			<path class="st12" d="M258.2,468.8c0-1.7,0.2-3.1,0.5-4.1c0.3-1,0.9-1.8,1.6-2.4c0.7-0.6,1.6-0.8,2.6-0.8c0.8,0,1.4,0.2,2,0.5
				c0.6,0.3,1.1,0.8,1.4,1.3c0.4,0.6,0.7,1.3,0.9,2.1c0.2,0.8,0.3,2,0.3,3.4c0,1.7-0.2,3-0.5,4.1c-0.3,1-0.9,1.8-1.6,2.4
				c-0.7,0.6-1.6,0.8-2.6,0.8c-1.4,0-2.5-0.5-3.3-1.5C258.7,473.5,258.2,471.5,258.2,468.8z M260,468.8c0,2.4,0.3,3.9,0.8,4.7
				c0.6,0.8,1.2,1.2,2,1.2c0.8,0,1.5-0.4,2-1.2c0.6-0.8,0.8-2.4,0.8-4.7c0-2.4-0.3-3.9-0.8-4.7c-0.6-0.8-1.2-1.2-2.1-1.2
				c-0.8,0-1.5,0.3-1.9,1C260.3,464.8,260,466.5,260,468.8z"/>
		</g>
		<g>
			<path class="st12" d="M259.1,620.4l-1.7,0.5l-3.2-10.8c-0.3,0.5-0.7,1.1-1.3,1.6c-0.5,0.6-1.1,1.1-1.5,1.4l-0.5-1.6
				c0.8-0.7,1.5-1.5,2-2.4c0.5-0.8,0.8-1.6,1-2.3l1.1-0.3L259.1,620.4z"/>
		</g>
		<g>
			<path class="st12" d="M262,610.8l-0.6-1.9l1.9-0.6l0.6,1.9L262,610.8z M264.4,618.9l-0.6-1.9l1.9-0.6l0.6,1.9L264.4,618.9z"/>
		</g>
		<g>
			<path class="st12" d="M274.2,615.9l-1-3.3l-6,1.8l-0.5-1.5l3.6-10.8l1.4-0.4l2.6,8.9l1.9-0.6l0.5,1.5l-1.9,0.6l1,3.3L274.2,615.9
				z M272.8,611.1l-1.8-6.2l-2.5,7.5L272.8,611.1z"/>
		</g>
		<line class="st38" x1="430.4" y1="483.7" x2="571.5" y2="483.7"/>
		<polygon class="st2" points="434,488.8 414.4,483.5 434,478.3 		"/>
		<polygon class="st2" points="568,488.8 587.5,483.5 568,478.3 		"/>
		<line class="st38" x1="206.6" y1="250.7" x2="206.6" y2="90.9"/>
		<polygon class="st2" points="210.6,247.8 206.4,263.5 202.2,247.8 		"/>
		<polygon class="st2" points="210.6,93.8 206.4,78.1 202.2,93.8 		"/>
		<line class="st42" x1="500.3" y1="59.7" x2="500.3" y2="64.3"/>
		<line class="st43" x1="500.3" y1="73.3" x2="500.3" y2="735.5"/>
		<line class="st42" x1="500.3" y1="740" x2="500.3" y2="744.6"/>
		<g>
			<path class="st2" d="M509.6,72v-5.2l-4.7-7.1h2l2.4,3.7c0.4,0.7,0.9,1.4,1.2,2.1c0.4-0.6,0.8-1.4,1.3-2.2l2.4-3.6h1.9l-4.9,7.1
				V72H509.6z"/>
			<path class="st2" d="M509.6,744.6v-5.2l-4.7-7.1h2l2.4,3.7c0.4,0.7,0.9,1.4,1.2,2.1c0.4-0.6,0.8-1.4,1.3-2.2l2.4-3.6h1.9
				l-4.9,7.1v5.2H509.6z"/>
		</g>
		<line class="st38" x1="909.4" y1="714.5" x2="909.4" y2="90.9"/>
		<polygon class="st2" points="913.4,711.7 909.2,727.3 905,711.7 		"/>
		<polygon class="st2" points="913.4,93.8 909.2,78.1 905,93.8 		"/>
		<line class="st38" x1="873.1" y1="714.5" x2="873.1" y2="602.6"/>
		<polygon class="st2" points="877.1,711.7 873,727.3 868.7,711.7 		"/>
		<polygon class="st2" points="877.1,605.4 873,589.8 868.7,605.4 		"/>
		<line class="st38" x1="873.1" y1="577" x2="873.1" y2="319.8"/>
		<polygon class="st2" points="877.1,574.1 873,589.8 868.7,574.1 		"/>
		<polygon class="st2" points="877.1,322.6 873,307 868.7,322.6 		"/>
		<line class="st38" x1="873.1" y1="294.2" x2="873.1" y2="89.6"/>
		<polygon class="st2" points="877.1,291.3 873,307 868.7,291.3 		"/>
		<polygon class="st2" points="877.1,92.5 873,76.8 868.7,92.5 		"/>
		<line class="st38" x1="787.6" y1="386.3" x2="787.6" y2="89.6"/>
		<polygon class="st2" points="791.6,383.4 787.4,399.1 783.2,383.4 		"/>
		<polygon class="st2" points="791.6,92.5 787.4,76.8 783.2,92.5 		"/>
		<line class="st38" x1="787.6" y1="714.5" x2="787.6" y2="411.9"/>
		<polygon class="st2" points="791.6,711.7 787.4,727.3 783.2,711.7 		"/>
		<polygon class="st2" points="791.6,414.8 787.4,399.1 783.2,414.8 		"/>
		<line class="st38" x1="831" y1="578" x2="831" y2="461.2"/>
		<polygon class="st2" points="835,575.1 830.8,590.8 826.6,575.1 		"/>
		<polygon class="st2" points="835,464 830.8,448.4 826.6,464 		"/>
		<line class="st38" x1="831" y1="413.9" x2="831" y2="321"/>
		<polygon class="st2" points="835,411 830.8,426.7 826.6,411 		"/>
		<polygon class="st2" points="835,323.8 830.8,308.2 826.6,323.8 		"/>
		<line class="st38" x1="154.7" y1="714.2" x2="154.7" y2="667.7"/>
		<polygon class="st2" points="158.7,711.3 154.6,727 150.4,711.3 		"/>
		<polygon class="st2" points="158.7,670.6 154.6,654.9 150.4,670.6 		"/>
		<path class="st39" d="M180.1,665.2l20.1,8.9h31.7 M197.3,720.4h-65.8 M164.4,707.4v90.3"/>
		<polygon class="st2" points="180.9,670 168.7,659.3 184.6,662.5 		"/>
		<polyline class="st39" points="179.8,717.8 203.4,706.5 233.3,706.3 		"/>
		<polygon class="st2" points="184.2,720.2 168.2,723.2 180.5,712.7 		"/>
		<line class="st38" x1="365.6" y1="353.2" x2="392.7" y2="343.1"/>
		<polygon class="st2" points="391.4,347.9 404.6,338.5 388.5,340 		"/>
		<line class="st38" x1="333.4" y1="568.7" x2="353.7" y2="589.2"/>
		<polygon class="st2" points="348.8,590 362.9,598.2 354.8,584.1 		"/>
		<line class="st38" x1="284.7" y1="231" x2="259.5" y2="245"/>
		<polygon class="st2" points="260.1,240.1 248.4,251.4 264.2,247.5 		"/>
		<line class="st38" x1="289" y1="120.4" x2="260.6" y2="102.4"/>
		<polygon class="st2" points="265.1,100.6 249.6,95.7 260.6,107.7 		"/>
		<line class="st44" x1="254.4" y1="34.1" x2="746.6" y2="34.1"/>
		<polygon class="st2" points="257.5,38.5 240.3,33.9 257.5,29.3 		"/>
		<polygon class="st2" points="743.4,38.5 760.6,33.9 743.4,29.3 		"/>
		<line class="st45" x1="793.1" y1="399.1" x2="206.6" y2="398.2"/>
		<g>
			<path class="st12" d="M801.1,406.3l5.6-7.5l-4.9-6.9h2.3l2.6,3.7c0.5,0.8,0.9,1.4,1.2,1.8c0.3-0.5,0.7-1.1,1.1-1.6l2.9-3.8h2.1
				l-5,6.8l5.4,7.6h-2.4l-3.6-5.1c-0.2-0.3-0.4-0.6-0.6-1c-0.3,0.5-0.5,0.9-0.7,1.1l-3.6,5H801.1z"/>
			<path class="st12" d="M186.9,405.6l5.6-7.5l-4.9-6.9h2.3l2.6,3.7c0.5,0.8,0.9,1.4,1.2,1.8c0.3-0.5,0.7-1.1,1.1-1.6l2.9-3.8h2.1
				l-5,6.8l5.4,7.6h-2.4l-3.6-5.1c-0.2-0.3-0.4-0.6-0.6-1c-0.3,0.5-0.5,0.9-0.7,1.1l-3.6,5H186.9z"/>
		</g>
		<g>
			<path class="st2" d="M477.1,472.7l1.7-0.2c0.2,1,0.5,1.7,1,2.1c0.5,0.4,1,0.6,1.7,0.6c0.8,0,1.5-0.3,2-0.8
				c0.6-0.6,0.8-1.2,0.8-2.1c0-0.8-0.3-1.4-0.8-1.9s-1.2-0.8-1.9-0.8c-0.3,0-0.7,0.1-1.2,0.2l0.2-1.5c0.1,0,0.2,0,0.3,0
				c0.7,0,1.4-0.2,2-0.6s0.9-1,0.9-1.7c0-0.6-0.2-1.1-0.6-1.5s-1-0.6-1.6-0.6c-0.7,0-1.2,0.2-1.7,0.6c-0.4,0.4-0.7,1-0.9,1.9
				l-1.7-0.3c0.2-1.1,0.7-2,1.4-2.6c0.7-0.6,1.7-0.9,2.7-0.9c0.8,0,1.5,0.2,2.1,0.5c0.6,0.3,1.1,0.8,1.5,1.3
				c0.3,0.6,0.5,1.2,0.5,1.8c0,0.6-0.2,1.1-0.5,1.6c-0.3,0.5-0.8,0.9-1.4,1.2c0.8,0.2,1.5,0.6,1.9,1.2c0.5,0.6,0.7,1.3,0.7,2.2
				c0,1.2-0.4,2.2-1.3,3.1c-0.9,0.8-2,1.3-3.3,1.3c-1.2,0-2.2-0.4-3-1.1C477.6,474.8,477.2,473.9,477.1,472.7z"/>
			<path class="st2" d="M488.3,473.2l1.6-0.2c0.1,0.8,0.4,1.3,0.8,1.7c0.4,0.3,0.9,0.5,1.5,0.5c0.5,0,1-0.1,1.4-0.4s0.7-0.6,1-1
				c0.3-0.4,0.5-0.9,0.6-1.6s0.3-1.4,0.3-2.1c0-0.1,0-0.2,0-0.3c-0.3,0.5-0.8,1-1.4,1.3c-0.6,0.3-1.2,0.5-1.9,0.5
				c-1.1,0-2.1-0.4-2.9-1.2c-0.8-0.8-1.2-1.9-1.2-3.3c0-1.4,0.4-2.5,1.2-3.4c0.8-0.9,1.9-1.3,3.1-1.3c0.9,0,1.7,0.2,2.5,0.7
				c0.7,0.5,1.3,1.2,1.7,2.1c0.4,0.9,0.6,2.2,0.6,3.9c0,1.8-0.2,3.2-0.6,4.2c-0.4,1-1,1.8-1.7,2.4c-0.8,0.5-1.6,0.8-2.7,0.8
				c-1.1,0-2-0.3-2.7-0.9C488.9,475.1,488.4,474.3,488.3,473.2z M495.3,467.1c0-1-0.3-1.8-0.8-2.3c-0.5-0.6-1.1-0.9-1.9-0.9
				c-0.8,0-1.4,0.3-2,0.9c-0.6,0.6-0.8,1.4-0.8,2.4c0,0.9,0.3,1.6,0.8,2.1s1.2,0.8,2,0.8c0.8,0,1.4-0.3,1.9-0.8
				S495.3,468.1,495.3,467.1z"/>
		</g>
		<g>
			<path class="st2" d="M507.5,480.5c-0.9-1.2-1.7-2.6-2.4-4.2s-1-3.2-1-4.9c0-1.5,0.2-2.9,0.7-4.3c0.6-1.6,1.4-3.2,2.6-4.8h1.2
				c-0.8,1.3-1.3,2.2-1.5,2.8c-0.4,0.9-0.7,1.8-0.9,2.7c-0.3,1.2-0.4,2.4-0.4,3.6c0,3,0.9,6.1,2.8,9.1H507.5z"/>
			<path class="st2" d="M515.6,476.4h-1.7v-10.8c-0.4,0.4-0.9,0.8-1.6,1.2s-1.3,0.7-1.8,0.9V466c1-0.4,1.8-1,2.5-1.6
				c0.7-0.6,1.2-1.3,1.5-1.9h1.1V476.4z"/>
			<path class="st2" d="M520.1,476.4v-1.9h1.9v1.9c0,0.7-0.1,1.3-0.4,1.7c-0.3,0.4-0.7,0.8-1.2,1l-0.5-0.7c0.4-0.2,0.6-0.4,0.8-0.7
				s0.3-0.7,0.3-1.3H520.1z"/>
			<path class="st2" d="M524.7,472.8l1.8-0.2c0.1,0.9,0.4,1.5,0.9,2c0.5,0.4,1.1,0.7,1.7,0.7c0.8,0,1.5-0.3,2.1-0.9s0.9-1.4,0.9-2.5
				c0-1-0.3-1.7-0.8-2.3c-0.5-0.6-1.3-0.8-2.1-0.8c-0.5,0-1,0.1-1.5,0.4c-0.4,0.2-0.8,0.6-1,1l-1.6-0.2l1.3-7.1h6.9v1.6h-5.5
				l-0.7,3.7c0.8-0.6,1.7-0.9,2.6-0.9c1.2,0,2.2,0.4,3.1,1.3c0.8,0.8,1.2,1.9,1.2,3.2c0,1.3-0.4,2.3-1.1,3.2
				c-0.9,1.1-2.1,1.7-3.6,1.7c-1.3,0-2.3-0.4-3.1-1.1C525.3,474.9,524.9,473.9,524.7,472.8z"/>
			<path class="st2" d="M541.5,476.4v-3.3h-6v-1.6l6.3-9h1.4v9h1.9v1.6h-1.9v3.3H541.5z M541.5,471.5v-6.2l-4.3,6.2H541.5z"/>
			<path class="st2" d="M547.3,467.4l-0.5-2.6v-2.3h1.9v2.3l-0.4,2.6H547.3z M550.4,467.4l-0.5-2.6v-2.3h1.9v2.3l-0.5,2.6H550.4z"/>
			<path class="st2" d="M555.2,480.5H554c1.9-3,2.8-6,2.8-9.1c0-1.2-0.1-2.4-0.4-3.5c-0.2-0.9-0.5-1.9-0.9-2.7
				c-0.2-0.6-0.8-1.5-1.5-2.8h1.2c1.2,1.6,2.1,3.2,2.6,4.8c0.5,1.4,0.7,2.8,0.7,4.3c0,1.7-0.3,3.3-1,4.9
				C557,477.9,556.2,479.3,555.2,480.5z"/>
		</g>
	</g>
</g>
<g id="Watermark">
	<g>
		<rect x="438.5" y="572.8" class="st0" width="123.1" height="46.3"/>
		<g>
			<rect x="444.9" y="580.6" class="st75" width="62.9" height="30.6"/>
			<rect x="507.7" y="580.6" class="st75" width="47.4" height="30.6"/>
			<g>
				<path class="st76" d="M466.5,586.7l-2.8,18.9H461l-1.6-11l-1.5,11h-2.7l-2.8-18.9h2.5l1.8,14.2l1.8-14.2h2l1.8,14.2l1.8-14.2
					H466.5z"/>
				<path class="st76" d="M467.9,605.6v-18.9h2.5v18.9H467.9z"/>
				<path class="st76" d="M472.8,586.7h5c1.9,0,2.9,1.1,2.9,3.2v4.7c0,1.7-0.5,2.7-1.5,3.1l1.8,7.9h-2.4l-1.7-7.6h-1.5v7.6h-2.5
					V586.7z M475.4,595.8h1.7c0.8,0,1.1-0.5,1.1-1.4v-4.1c0-0.9-0.4-1.4-1.1-1.4h-1.7V595.8z"/>
				<path class="st76" d="M486.8,589v16.6h-2.5V589h-2.4v-2.3h7.4v2.3H486.8z"/>
				<path class="st76" d="M496.3,605.6v-8.6h-3.1v8.6h-2.5v-18.9h2.5v8h3.1v-8h2.5v18.9H496.3z"/>
			</g>
			<g>
				<path class="st76" d="M516.3,586.7h5c1.9,0,2.9,1.1,2.9,3.2v4.7c0,1.7-0.5,2.7-1.5,3.1l1.8,7.9H522l-1.7-7.6h-1.5v7.6h-2.5
					V586.7z M518.8,595.8h1.7c0.8,0,1.1-0.5,1.1-1.4v-4.1c0-0.9-0.4-1.4-1.1-1.4h-1.7V595.8z"/>
				<path class="st76" d="M528.7,605.6h-2.5V590c0-2.2,1-3.2,3-3.2h1.9c2,0,3,1.1,3,3.2v15.7h-2.5v-6.9h-2.9V605.6z M531.6,596.4
					v-6.3c0-0.7-0.4-1.1-1.1-1.1h-0.7c-0.7,0-1.1,0.4-1.1,1.1v6.3H531.6z"/>
				<path class="st76" d="M536.3,605.6v-18.9h2.5v18.9H536.3z"/>
				<path class="st76" d="M547.2,605.6h-6v-18.9h2.5v16.6h3.5V605.6z"/>
			</g>
		</g>
	</g>
</g>
</svg>
