<svg xmlns="http://www.w3.org/2000/svg" xmlns:xlink="http://www.w3.org/1999/xlink" viewBox="0 0 1000 800"><defs><style>.cls-1,.cls-11,.cls-6,.cls-7,.cls-8,.cls-9{fill:none;}.cls-2{clip-path:url(#clip-path);}.cls-13,.cls-14,.cls-3,.cls-5{fill:#f0f0f0;}.cls-3,.cls-5,.cls-6,.cls-7,.cls-8,.cls-9{stroke:#231f20;}.cls-11,.cls-14,.cls-3,.cls-5{stroke-miterlimit:10;}.cls-3{stroke-width:3px;}.cls-4{clip-path:url(#clip-path-2);}.cls-5{stroke-width:2px;}.cls-7{stroke-dasharray:11.88 3.62;}.cls-8{stroke-dasharray:11.62 3.33;}.cls-9{stroke-dasharray:9.95 1.67;}.cls-10{fill:#231f20;}.cls-11{stroke:#303030;}.cls-12{fill:#303030;}.cls-14{stroke:#ccc;}.cls-15{fill:#ccc;}</style><clipPath id="clip-path"><rect class="cls-1" x="-952.71" width="891.42" height="800"/></clipPath><clipPath id="clip-path-2"><rect class="cls-1" x="134.06" width="743.88" height="800"/></clipPath></defs><g id="Flat"><g class="cls-2"><path class="cls-3" d="M823.76,657a6.51,6.51,0,0,0-5.34-6c-13.28-2.58-232.21-53.62-232.21-53.62s-14-1-20.18-20.18c-5.48-17-7.5-83.89-8.5-150.48-.15-95.86,6.34-138.67,9.78-150.85,4.2-20.83,27-22.56,27-22.56l62.27-14.41c6.78-4.61,3.89-138.67,3.89-138.67S662.75,55.49,610,55.49c-1.44,0-66.59-3-66.59-3l-44-1.14h-.29l-44,1.14s-65.15,3-66.59,3c-52.76,0-50.45,44.68-50.45,44.68S335.27,234.23,342,238.84l62.27,14.41s22.78,1.73,27,22.56c3.44,12.18,9.93,55,9.79,150.85-1,66.59-3,133.52-8.51,150.48-6.2,19.17-20.18,20.18-20.18,20.18s-218.93,51-232.21,53.62a6.49,6.49,0,0,0-5.33,6s-1.19,31-.27,38.56c1,7.83,7.42,6.91,7.42,6.91l317.11.69h.2l317.3-.69s6.46.92,7.42-6.91c.92-7.54-.26-38.56-.26-38.56"/></g><g class="cls-4"><path class="cls-5" d="M765.3,659.27c-4.14,0-141.53-33.06-141.53-33.06-45.73-21.7-57.21-48.85-56.16-119.84,1.4-95.55-20.44-212.77,60-231.27,40.47-9.3,43.18-11,43.18-11,6.71-1.68,8.48-8.76,7.87-13S663,145.67,663,145.67c-5.42-17.33-20-29.8-34.59-32.51s-81-5.51-81-5.51l-46.2-.3h-.25l-46.2.3s-66.45,2.8-81,5.51-29.17,15.18-34.59,32.51c0,0-15.13,101.15-15.74,105.43s1.16,11.35,7.87,13c0,0,2.71,1.67,43.18,11,80.47,18.5,58.63,135.72,60,231.27,1,71-10.44,98.14-56.17,119.84,0,0-137.39,33.06-141.52,33.06s-6.2,10.33-6.2,10.33v36.15c0,3.1,6.2,5.17,6.2,5.17H765.3s6.19-2.07,6.19-5.17V669.6s-2.07-10.33-6.19-10.33"/></g><polyline class="cls-6" points="280.53 253.88 501.87 304.32 683.62 262.11"/><line class="cls-6" x1="276.25" y1="304.92" x2="831.02" y2="304.92"/><line class="cls-6" x1="322.68" y1="263.49" x2="321.88" y2="8.63"/><line class="cls-6" x1="681.58" y1="262.11" x2="681.58" y2="5.47"/><line class="cls-6" x1="343.88" y1="107.06" x2="875.9" y2="107.06"/><line class="cls-6" x1="191.63" y1="450.18" x2="435.5" y2="450.18"/><line class="cls-6" x1="154.14" y1="710.92" x2="237.4" y2="710.92"/><line class="cls-6" x1="230.52" y1="705.63" x2="230.52" y2="777.54"/><g class="cls-4"><line class="cls-6" x1="755.4" y1="710.92" x2="877.94" y2="710.92"/></g><line class="cls-6" x1="771.49" y1="705.27" x2="771.49" y2="775.79"/><line class="cls-6" x1="838.68" y1="598.06" x2="303.58" y2="598.06"/><polyline class="cls-6" points="376.83 626.52 501.34 598.15 624.19 626.52"/><line class="cls-7" x1="501.14" y1="729.1" x2="501.14" y2="89.68"/><line class="cls-8" x1="678.5" y1="415.72" x2="221.69" y2="415.3"/><line class="cls-9" x1="190.64" y1="415.28" x2="166.92" y2="415.28"/><path class="cls-6" d="M165.09,415.29h-11m63.88,0H194.3m504.31.45H685.83"/><g class="cls-4"><path class="cls-6" d="M294.69,208.52s-22.63,59.92-12.81,143.72"/><path class="cls-10" d="M294.7,208.28s-5.74,18.84-7.47,27.53"/><path class="cls-10" d="M288.29,240.73c1.59-3,2.88-4.86,4.4-7.2L283,231.61a73.43,73.43,0,0,1,1.31,8.33,58.55,58.55,0,0,1,.29,8.85,56.3,56.3,0,0,1,3.66-8.06"/><path class="cls-6" d="M294.7,208.28s-5.74,18.84-7.47,27.53"/><path class="cls-10" d="M287.76,238.27a41.92,41.92,0,0,1,2.2-3.6l-4.83-1a37.38,37.38,0,0,1,.65,4.17,28.68,28.68,0,0,1,.15,4.42,28.4,28.4,0,0,1,1.83-4"/><path class="cls-10" d="M281.73,351.2s-2.23-23.14-2.23-28.8"/><path class="cls-10" d="M277.49,317.79a83.45,83.45,0,0,1-2.91,7.91h9.85a76.4,76.4,0,0,1-2.91-7.91,58,58,0,0,1-2-8.62,56.54,56.54,0,0,1-2,8.62"/><path class="cls-6" d="M281.73,351.2s-2.23-23.14-2.23-28.8"/><path class="cls-10" d="M278.5,320.09c-.49,1.62-.94,2.66-1.46,4H282a36.67,36.67,0,0,1-1.45-4,28,28,0,0,1-1-4.31,29,29,0,0,1-1,4.31"/><path class="cls-6" d="M310.16,552.6s-13.53,59.63,15.4,131.77"/><path class="cls-10" d="M310.12,552.37s-2.66,18.38-2.84,26.62"/><path class="cls-10" d="M309.18,583.64a84.27,84.27,0,0,1,3.09-7.85l-9.85-.21a75.45,75.45,0,0,1,2.74,8,57.38,57.38,0,0,1,1.82,8.66,57.86,57.86,0,0,1,2.2-8.57"/><path class="cls-6" d="M310.12,552.37s-2.66,18.38-2.84,26.62"/><path class="cls-10" d="M308.23,581.31a40.61,40.61,0,0,1,1.55-3.92l-4.93-.11a38.79,38.79,0,0,1,1.37,4,28.69,28.69,0,0,1,.91,4.33,29.12,29.12,0,0,1,1.1-4.29"/><path class="cls-10" d="M325.17,683.49s-7.44-20.06-8.63-25.11"/><path class="cls-10" d="M313.53,654.35a81.3,81.3,0,0,1-1,8.37l9.59-2.26a77.14,77.14,0,0,1-4.65-7,57.29,57.29,0,0,1-3.93-7.93,58.14,58.14,0,0,1,0,8.85"/><path class="cls-6" d="M325.17,683.49s-7.44-20.06-8.63-25.11"/><path class="cls-10" d="M315,656.36c-.11,1.69-.3,2.81-.51,4.19l4.79-1.13A39.71,39.71,0,0,1,317,655.9a28.24,28.24,0,0,1-2-4,28.89,28.89,0,0,1,0,4.42"/></g><path class="cls-6" d="M664.39,155.32l-6.45-48.17-.65-50.74M338.46,149.74l5.42-42.59.64-50.74"/><polyline class="cls-6" points="233.31 450.32 307.35 454.62 296.38 499.86"/><line class="cls-11" x1="334.79" y1="17.67" x2="668.13" y2="17.67"/><polygon class="cls-12" points="337.69 21.75 321.82 17.5 337.69 13.24 337.69 21.75"/><polygon class="cls-12" points="665.71 21.75 681.58 17.5 665.71 13.24 665.71 21.75"/><line class="cls-11" x1="357.5" y1="67.41" x2="641.86" y2="67.41"/><polygon class="cls-12" points="360.4 71.48 344.52 67.23 360.4 62.98 360.4 71.48"/><polygon class="cls-12" points="641.42 71.48 657.29 67.23 641.42 62.98 641.42 71.48"/><line class="cls-11" x1="167.39" y1="695.04" x2="167.39" y2="429.71"/><polygon class="cls-12" points="171.47 695.04 167.22 710.92 162.96 695.04 171.47 695.04"/><polygon class="cls-12" points="171.47 431.39 167.22 415.51 162.96 431.39 171.47 431.39"/><line class="cls-11" x1="207.75" y1="696.91" x2="207.75" y2="462.71"/><polygon class="cls-12" points="211.82 696.91 207.57 710.92 203.32 696.91 211.82 696.91"/><polygon class="cls-12" points="211.82 464.19 207.57 450.18 203.32 464.19 211.82 464.19"/><line class="cls-11" x1="824.47" y1="701.21" x2="824.47" y2="611.62"/><polygon class="cls-12" points="828.54 696.24 824.29 711.32 820.03 696.24 828.54 696.24"/><polygon class="cls-12" points="828.54 613.15 824.29 598.06 820.03 613.15 828.54 613.15"/><path class="cls-12" d="M815.28,698.35h1.39v7.81a2.6,2.6,0,0,1-1-.17,5.32,5.32,0,0,1-1.58-1,14.73,14.73,0,0,1-1.78-1.89,16.9,16.9,0,0,0-2.5-2.61,3,3,0,0,0-1.75-.67,1.93,1.93,0,0,0-1.45.61,2.21,2.21,0,0,0-.59,1.61,2.26,2.26,0,0,0,.62,1.68,2.39,2.39,0,0,0,1.74.63l-.15,1.49a3.64,3.64,0,0,1-2.54-1.15,3.93,3.93,0,0,1-.87-2.68,3.74,3.74,0,0,1,.94-2.69,3.1,3.1,0,0,1,2.33-1,3.45,3.45,0,0,1,1.4.29,5.45,5.45,0,0,1,1.44,1,23.32,23.32,0,0,1,2.08,2.24c.73.87,1.22,1.42,1.48,1.67a4.67,4.67,0,0,0,.79.61Z"/><path class="cls-12" d="M807.76,689.27l.11,1.44a2.82,2.82,0,0,0-1.24.55,1.9,1.9,0,0,0-.62,1.45,2.06,2.06,0,0,0,.38,1.22,3.3,3.3,0,0,0,1.46,1.08,7.68,7.68,0,0,0,2.73.41,3.42,3.42,0,0,1-1.18-1.28,3.46,3.46,0,0,1-.39-1.59,3.29,3.29,0,0,1,1.07-2.47,3.83,3.83,0,0,1,2.76-1,4.49,4.49,0,0,1,2.06.48,3.5,3.5,0,0,1,1.47,1.32,3.57,3.57,0,0,1,.5,1.9,3.71,3.71,0,0,1-1.33,3,6.74,6.74,0,0,1-4.39,1.14c-2.29,0-3.94-.42-5-1.26a3.65,3.65,0,0,1-1.35-3,3.16,3.16,0,0,1,2.94-3.35Zm5.09,5.92a3.38,3.38,0,0,0,1.43-.31,2.41,2.41,0,0,0,1-.89,2.26,2.26,0,0,0,.36-1.2,2,2,0,0,0-.74-1.58,2.9,2.9,0,0,0-2-.66,2.7,2.7,0,0,0-1.93.65,2.13,2.13,0,0,0-.71,1.64,2.24,2.24,0,0,0,.71,1.67A2.51,2.51,0,0,0,812.85,695.19Z"/><path class="cls-12" d="M816.67,686.81H815v-1.65h1.65Z"/><path class="cls-12" d="M813.94,682.82l-.13-1.39a2.46,2.46,0,0,0,1.43-.68,1.88,1.88,0,0,0,.44-1.28,2.21,2.21,0,0,0-.3-1.17,2.6,2.6,0,0,0-.82-.83,5.08,5.08,0,0,0-1.38-.54,7.54,7.54,0,0,0-1.78-.22h-.29a3.31,3.31,0,0,1,1.13,1.19,3.21,3.21,0,0,1,.43,1.63,3.31,3.31,0,0,1-1.06,2.48,3.9,3.9,0,0,1-2.81,1,4,4,0,0,1-2.89-1.06,3.54,3.54,0,0,1-1.09-2.66,3.72,3.72,0,0,1,.62-2.1,3.84,3.84,0,0,1,1.76-1.45,8.76,8.76,0,0,1,3.33-.5,10.91,10.91,0,0,1,3.6.49,4.16,4.16,0,0,1,2,1.47,3.73,3.73,0,0,1,.7,2.27,3.11,3.11,0,0,1-2.93,3.32Zm-5.21-5.94a2.86,2.86,0,0,0-2,.67,2.06,2.06,0,0,0-.73,1.6,2.22,2.22,0,0,0,.78,1.68,2.93,2.93,0,0,0,2.05.72,2.54,2.54,0,0,0,1.83-.68,2.27,2.27,0,0,0,.71-1.68,2.16,2.16,0,0,0-.71-1.66A2.78,2.78,0,0,0,808.73,676.88Z"/><path class="cls-12" d="M813.94,673.64l-.13-1.39a2.41,2.41,0,0,0,1.43-.68,1.88,1.88,0,0,0,.44-1.28,2.26,2.26,0,0,0-.3-1.17,2.57,2.57,0,0,0-.82-.82,4.51,4.51,0,0,0-1.38-.54,7.06,7.06,0,0,0-1.78-.22h-.29a3.24,3.24,0,0,1,1.13,1.19,3.18,3.18,0,0,1,.43,1.63,3.34,3.34,0,0,1-1.06,2.48,3.94,3.94,0,0,1-2.81,1,4,4,0,0,1-2.89-1.06,3.52,3.52,0,0,1-1.09-2.65,3.75,3.75,0,0,1,.62-2.11,3.9,3.9,0,0,1,1.76-1.45,8.79,8.79,0,0,1,3.33-.49,10.65,10.65,0,0,1,3.6.49,4.15,4.15,0,0,1,2,1.46,3.78,3.78,0,0,1,.7,2.28,3.11,3.11,0,0,1-2.93,3.31Zm-5.21-5.93a2.85,2.85,0,0,0-2,.66A2.09,2.09,0,0,0,806,670a2.23,2.23,0,0,0,.78,1.69,3,3,0,0,0,2.05.71,2.5,2.5,0,0,0,1.83-.68,2.24,2.24,0,0,0,.71-1.68,2.14,2.14,0,0,0-.71-1.65A2.74,2.74,0,0,0,808.73,667.71Z"/><path class="cls-12" d="M820.14,656.93a14.44,14.44,0,0,1-3.54,2,11.13,11.13,0,0,1-7.88.21,15.35,15.35,0,0,1-4.06-2.24v-1c1.12.65,1.92,1.08,2.39,1.29a12.48,12.48,0,0,0,2.33.77,13.46,13.46,0,0,0,3,.35,14.46,14.46,0,0,0,7.74-2.41Z"/><path class="cls-12" d="M816.67,649.15v1.45h-9.24a7.26,7.26,0,0,1,1,1.37,9.65,9.65,0,0,1,.75,1.53h-1.4a8.61,8.61,0,0,0-1.39-2.13,5.48,5.48,0,0,0-1.57-1.29v-.93Z"/><path class="cls-12" d="M816.67,635.39v1.45h-9.24a7.26,7.26,0,0,1,1,1.37,9.65,9.65,0,0,1,.75,1.53h-1.4a8.61,8.61,0,0,0-1.39-2.13,5.65,5.65,0,0,0-1.57-1.29v-.93Z"/><path class="cls-12" d="M816.87,632.36l-12.21-3.42v-1.16l12.21,3.41Z"/><path class="cls-12" d="M816.67,621.63v1.45h-9.24a7.26,7.26,0,0,1,1,1.37,9.65,9.65,0,0,1,.75,1.53h-1.4a8.61,8.61,0,0,0-1.39-2.13,5.42,5.42,0,0,0-1.57-1.28v-.94Z"/><path class="cls-12" d="M807.76,610.39l.11,1.45a2.71,2.71,0,0,0-1.24.54,1.91,1.91,0,0,0-.62,1.45,2,2,0,0,0,.38,1.22,3.3,3.3,0,0,0,1.46,1.08,7.68,7.68,0,0,0,2.73.41,3.39,3.39,0,0,1-1.57-2.87,3.31,3.31,0,0,1,1.07-2.47,3.83,3.83,0,0,1,2.76-1,4.49,4.49,0,0,1,2.06.48,3.5,3.5,0,0,1,1.47,1.32,3.57,3.57,0,0,1,.5,1.9,3.71,3.71,0,0,1-1.33,3,6.74,6.74,0,0,1-4.39,1.14c-2.29,0-3.94-.42-5-1.26a3.65,3.65,0,0,1-1.35-3,3.17,3.17,0,0,1,2.94-3.36Zm5.09,5.92a3.38,3.38,0,0,0,1.43-.31,2.41,2.41,0,0,0,1-.89,2.21,2.21,0,0,0,.36-1.2,2,2,0,0,0-.74-1.58,2.9,2.9,0,0,0-2-.66,2.7,2.7,0,0,0-1.93.65,2.13,2.13,0,0,0-.71,1.64,2.24,2.24,0,0,0,.71,1.67A2.51,2.51,0,0,0,812.85,616.31Z"/><path class="cls-12" d="M809,605.6l-2.24.4h-1.94v-1.66h1.94l2.24.39Zm0,2.67-2.24.4h-1.94V607h1.94l2.24.36Z"/><path class="cls-12" d="M820.14,603.9v1a14.46,14.46,0,0,0-7.74-2.41,13.22,13.22,0,0,0-3,.35,12.86,12.86,0,0,0-2.32.76,27,27,0,0,0-2.42,1.3v-1a15.35,15.35,0,0,1,4.06-2.24,11.13,11.13,0,0,1,7.88.21A15.11,15.11,0,0,1,820.14,603.9Z"/><line class="cls-11" x1="865.29" y1="697.19" x2="865.29" y2="122.94"/><polygon class="cls-12" points="869.36 695.91 865.11 711.65 860.85 695.91 869.36 695.91"/><polygon class="cls-12" points="869.36 123.09 865.11 107.35 860.85 123.09 869.36 123.09"/><line class="cls-11" x1="451.95" y1="121.71" x2="459.64" y2="225.42"/><polygon class="cls-12" points="448.06 124.93 451.15 108.66 456.62 124.29 448.06 124.93"/><line class="cls-11" x1="421.51" y1="506.4" x2="297.2" y2="496.47"/><polygon class="cls-12" points="418.86 502.11 434.55 507.43 418.3 510.67 418.86 502.11"/><line class="cls-11" x1="448.65" y1="450.5" x2="553.18" y2="450.5"/><polygon class="cls-12" points="450.59 454.58 435.5 450.33 450.59 446.07 450.59 454.58"/><polygon class="cls-12" points="551.17 454.58 566.25 450.33 551.17 446.07 551.17 454.58"/><path class="cls-12" d="M456.76,437.25l1.45-.19a3.2,3.2,0,0,0,.85,1.78,2.09,2.09,0,0,0,1.46.54,2.41,2.41,0,0,0,2.43-2.46,2.24,2.24,0,0,0-.65-1.65,2.28,2.28,0,0,0-1.66-.65,4.05,4.05,0,0,0-1,.16l.16-1.27H460a3,3,0,0,0,1.67-.48,1.66,1.66,0,0,0,.74-1.49,1.76,1.76,0,0,0-.54-1.32,1.9,1.9,0,0,0-1.39-.52,1.93,1.93,0,0,0-1.41.53,2.63,2.63,0,0,0-.73,1.59l-1.45-.26a3.7,3.7,0,0,1,1.21-2.25,3.48,3.48,0,0,1,2.35-.81,3.86,3.86,0,0,1,1.78.42,3,3,0,0,1,1.24,1.13,2.9,2.9,0,0,1,.43,1.52,2.55,2.55,0,0,1-.41,1.4,2.71,2.71,0,0,1-1.22,1,2.79,2.79,0,0,1,1.63,1,3,3,0,0,1,.58,1.9,3.48,3.48,0,0,1-1.13,2.62,4,4,0,0,1-2.85,1.08,3.68,3.68,0,0,1-2.58-.93A3.5,3.5,0,0,1,456.76,437.25Z"/><path class="cls-12" d="M471.39,440.37h-1.45v-9.24a7.48,7.48,0,0,1-1.38,1,10.06,10.06,0,0,1-1.52.75v-1.4a8.65,8.65,0,0,0,2.12-1.39,5.34,5.34,0,0,0,1.29-1.58h.94Z"/><path class="cls-12" d="M475.91,440.37v-1.65h1.65v1.65Z"/><path class="cls-12" d="M479.78,430.11v-1.4h7.64v1.13a16.45,16.45,0,0,0-2.23,3.19,19.29,19.29,0,0,0-1.71,4.09,15.29,15.29,0,0,0-.56,3.25h-1.49A14.7,14.7,0,0,1,482,437a17.88,17.88,0,0,1,1.5-3.8,16.61,16.61,0,0,1,2.08-3.09Z"/><path class="cls-12" d="M488.86,437.28l1.52-.13a2.71,2.71,0,0,0,.79,1.67,2.13,2.13,0,0,0,1.48.56,2.29,2.29,0,0,0,1.77-.79,2.94,2.94,0,0,0,.73-2.09,2.67,2.67,0,0,0-.7-2,2.41,2.41,0,0,0-1.82-.72,2.58,2.58,0,0,0-1.27.32,2.42,2.42,0,0,0-.88.83l-1.36-.18,1.14-6.07h5.87v1.39h-4.71l-.64,3.17a3.9,3.9,0,0,1,2.24-.74,3.52,3.52,0,0,1,2.6,1.07,3.77,3.77,0,0,1,1.07,2.76,4.26,4.26,0,0,1-.94,2.77,3.74,3.74,0,0,1-3.1,1.43,3.83,3.83,0,0,1-2.63-.9A3.53,3.53,0,0,1,488.86,437.28Z"/><path class="cls-12" d="M505.79,443.84a14.44,14.44,0,0,1-2-3.54,11.13,11.13,0,0,1-.21-7.88,15.35,15.35,0,0,1,2.24-4.06h1c-.65,1.12-1.08,1.92-1.29,2.39a13.15,13.15,0,0,0-.77,2.32,13.62,13.62,0,0,0-.35,3,14.49,14.49,0,0,0,2.41,7.74Z"/><path class="cls-12" d="M513.57,440.37h-1.45v-9.24a7.37,7.37,0,0,1-1.37,1,10.6,10.6,0,0,1-1.53.75v-1.4a8.9,8.9,0,0,0,2.13-1.39,5.5,5.5,0,0,0,1.29-1.58h.93Z"/><path class="cls-12" d="M527.33,440.37h-1.45v-9.24a7.73,7.73,0,0,1-1.37,1,10.6,10.6,0,0,1-1.53.75v-1.4a8.9,8.9,0,0,0,2.13-1.39,5.68,5.68,0,0,0,1.29-1.58h.93Z"/><path class="cls-12" d="M530.36,440.57l3.42-12.21h1.16l-3.41,12.21Z"/><path class="cls-12" d="M540.28,440.37v-2.83h-5.13v-1.33l5.39-7.65h1.19v7.65h1.59v1.33h-1.59v2.83Zm0-4.16v-5.32l-3.7,5.32Z"/><path class="cls-12" d="M545.28,432.74l-.4-2.24v-1.94h1.65v1.94l-.37,2.24Zm2.66,0-.39-2.24v-1.94h1.65v1.94l-.39,2.24Z"/><path class="cls-12" d="M552,443.84h-1a14.49,14.49,0,0,0,2.41-7.74,13.21,13.21,0,0,0-.34-3,12.88,12.88,0,0,0-.77-2.32,25.7,25.7,0,0,0-1.3-2.42h1a15.35,15.35,0,0,1,2.24,4.06,10.8,10.8,0,0,1,.62,3.67,11.09,11.09,0,0,1-.83,4.21A14.77,14.77,0,0,1,552,443.84Z"/><line class="cls-11" x1="241.41" y1="769.92" x2="757.22" y2="769.92"/><polygon class="cls-12" points="246.39 774 230.52 769.74 246.39 765.49 246.39 774"/><polygon class="cls-12" points="755.62 774 771.49 769.74 755.62 765.49 755.62 774"/><path class="cls-12" d="M445.68,763.11h-1.45v-9.24a8.26,8.26,0,0,1-1.37,1,9.51,9.51,0,0,1-1.53.74v-1.4a8.88,8.88,0,0,0,2.13-1.38,5.64,5.64,0,0,0,1.29-1.58h.93Z"/><path class="cls-12" d="M449.4,760l1.45-.2a3.19,3.19,0,0,0,.85,1.78,2.12,2.12,0,0,0,1.47.54,2.33,2.33,0,0,0,1.72-.7,2.41,2.41,0,0,0,.71-1.76A2.24,2.24,0,0,0,455,758a2.28,2.28,0,0,0-1.66-.65,4.56,4.56,0,0,0-1,.16l.16-1.27.24,0a3,3,0,0,0,1.66-.48,1.66,1.66,0,0,0,.75-1.49,1.77,1.77,0,0,0-.54-1.33,1.93,1.93,0,0,0-1.4-.52,2,2,0,0,0-1.41.53,2.75,2.75,0,0,0-.72,1.6l-1.45-.26a3.68,3.68,0,0,1,1.21-2.26,3.45,3.45,0,0,1,2.34-.8,4,4,0,0,1,1.78.41,3,3,0,0,1,1.24,1.13,2.92,2.92,0,0,1,.44,1.53,2.51,2.51,0,0,1-.41,1.39,2.85,2.85,0,0,1-1.22,1,2.78,2.78,0,0,1,1.63,1,3.1,3.1,0,0,1,.58,1.91,3.5,3.5,0,0,1-1.13,2.62,3.94,3.94,0,0,1-2.85,1.07,3.68,3.68,0,0,1-2.58-.92A3.59,3.59,0,0,1,449.4,760Z"/><path class="cls-12" d="M464,763.11h-1.45v-9.24a7.86,7.86,0,0,1-1.37,1,9.51,9.51,0,0,1-1.53.74v-1.4a8.88,8.88,0,0,0,2.13-1.38,5.64,5.64,0,0,0,1.29-1.58H464Z"/><path class="cls-12" d="M468.56,763.11v-1.66h1.65v1.66Z"/><path class="cls-12" d="M472.43,752.84v-1.39h7.64v1.13a16.14,16.14,0,0,0-2.24,3.19,20.15,20.15,0,0,0-1.71,4.09,15.2,15.2,0,0,0-.55,3.25h-1.49a14.53,14.53,0,0,1,.54-3.37,17.29,17.29,0,0,1,1.51-3.81,16.13,16.13,0,0,1,2.08-3.09Z"/><path class="cls-12" d="M489,754.19l-1.44.11a2.82,2.82,0,0,0-.55-1.24,1.94,1.94,0,0,0-1.45-.62,2,2,0,0,0-1.22.39,3.39,3.39,0,0,0-1.08,1.46,7.6,7.6,0,0,0-.41,2.73,3.37,3.37,0,0,1,1.28-1.19,3.46,3.46,0,0,1,1.59-.39,3.29,3.29,0,0,1,2.47,1.07,3.83,3.83,0,0,1,1,2.76,4.56,4.56,0,0,1-.48,2.07,3.53,3.53,0,0,1-1.32,1.46,3.58,3.58,0,0,1-1.9.51,3.73,3.73,0,0,1-3-1.34,6.74,6.74,0,0,1-1.14-4.39q0-3.42,1.26-5a3.65,3.65,0,0,1,3-1.35,3.16,3.16,0,0,1,3.35,2.94Zm-5.92,5.09a3.35,3.35,0,0,0,.31,1.43,2.39,2.39,0,0,0,.9,1,2.2,2.2,0,0,0,1.2.35,2,2,0,0,0,1.57-.74,2.85,2.85,0,0,0,.66-2,2.7,2.7,0,0,0-.65-1.93,2.13,2.13,0,0,0-1.64-.7,2.24,2.24,0,0,0-1.67.7A2.53,2.53,0,0,0,483.11,759.28Z"/><path class="cls-12" d="M498.44,766.58a14.32,14.32,0,0,1-2-3.55,11.13,11.13,0,0,1-.21-7.88,15.51,15.51,0,0,1,2.24-4.06h1q-1,1.68-1.29,2.4a12.91,12.91,0,0,0-.78,2.32,13.47,13.47,0,0,0-.34,3,14.51,14.51,0,0,0,2.41,7.74Z"/><path class="cls-12" d="M500.76,760l1.52-.13a2.71,2.71,0,0,0,.78,1.67,2.11,2.11,0,0,0,1.49.56,2.31,2.31,0,0,0,1.77-.78,3,3,0,0,0,.73-2.1,2.67,2.67,0,0,0-.7-2,2.44,2.44,0,0,0-1.82-.71,2.47,2.47,0,0,0-1.27.32,2.4,2.4,0,0,0-.88.82l-1.37-.18,1.15-6.06H508v1.38h-4.71l-.64,3.18a3.8,3.8,0,0,1,2.23-.74,3.52,3.52,0,0,1,2.61,1.07,3.73,3.73,0,0,1,1.07,2.75,4.32,4.32,0,0,1-.94,2.77,3.74,3.74,0,0,1-3.1,1.44,3.79,3.79,0,0,1-2.63-.91A3.46,3.46,0,0,1,500.76,760Z"/><path class="cls-12" d="M514.52,760l1.45-.2a3.19,3.19,0,0,0,.85,1.78,2.12,2.12,0,0,0,1.47.54,2.33,2.33,0,0,0,1.72-.7,2.41,2.41,0,0,0,.71-1.76,2.24,2.24,0,0,0-.65-1.65,2.28,2.28,0,0,0-1.66-.65,4.56,4.56,0,0,0-1,.16l.16-1.27.24,0a3,3,0,0,0,1.66-.48,1.66,1.66,0,0,0,.75-1.49,1.77,1.77,0,0,0-.54-1.33,1.93,1.93,0,0,0-1.4-.52,2,2,0,0,0-1.41.53,2.75,2.75,0,0,0-.72,1.6l-1.45-.26a3.68,3.68,0,0,1,1.21-2.26,3.45,3.45,0,0,1,2.34-.8,4,4,0,0,1,1.78.41,3.12,3.12,0,0,1,1.25,1.13,3,3,0,0,1,.43,1.53,2.51,2.51,0,0,1-.41,1.39,2.85,2.85,0,0,1-1.22,1,2.78,2.78,0,0,1,1.63,1,3.1,3.1,0,0,1,.58,1.91,3.5,3.5,0,0,1-1.13,2.62,3.94,3.94,0,0,1-2.85,1.07,3.68,3.68,0,0,1-2.58-.92A3.59,3.59,0,0,1,514.52,760Z"/><path class="cls-12" d="M523,763.31l3.42-12.22h1.16l-3.42,12.22Z"/><path class="cls-12" d="M533.74,763.11h-1.45v-9.24a8,8,0,0,1-1.38,1,9.12,9.12,0,0,1-1.53.74v-1.4a8.5,8.5,0,0,0,2.13-1.38,5.47,5.47,0,0,0,1.29-1.58h.94Z"/><path class="cls-12" d="M545,754.19l-1.44.11a2.71,2.71,0,0,0-.55-1.24,1.92,1.92,0,0,0-1.45-.62,2,2,0,0,0-1.21.39,3.24,3.24,0,0,0-1.08,1.46,7.39,7.39,0,0,0-.41,2.73,3.23,3.23,0,0,1,1.28-1.19,3.39,3.39,0,0,1,1.58-.39,3.29,3.29,0,0,1,2.47,1.07,3.83,3.83,0,0,1,1,2.76,4.56,4.56,0,0,1-.48,2.07,3.48,3.48,0,0,1-3.22,2,3.71,3.71,0,0,1-3-1.34,6.73,6.73,0,0,1-1.15-4.39c0-2.28.43-3.94,1.27-5a3.64,3.64,0,0,1,3-1.35,3.15,3.15,0,0,1,3.35,2.94Zm-5.92,5.09a3.36,3.36,0,0,0,.32,1.43,2.37,2.37,0,0,0,.89,1,2.2,2.2,0,0,0,1.2.35,2,2,0,0,0,1.58-.74,2.9,2.9,0,0,0,.66-2,2.75,2.75,0,0,0-.65-1.93,2.16,2.16,0,0,0-1.65-.7,2.21,2.21,0,0,0-1.66.7A2.54,2.54,0,0,0,539.05,759.28Z"/><path class="cls-12" d="M547.1,755.48l-.4-2.25V751.3h1.65v1.93l-.36,2.25Zm2.67,0-.4-2.25V751.3H551v1.93l-.38,2.25Z"/><path class="cls-12" d="M553.76,766.58h-1a14.58,14.58,0,0,0,2.4-7.74,13.36,13.36,0,0,0-.34-3,12.38,12.38,0,0,0-.77-2.32c-.21-.48-.64-1.29-1.29-2.42h1a15.8,15.8,0,0,1,2.24,4.06,11.11,11.11,0,0,1,.62,3.68,10.86,10.86,0,0,1-.84,4.2A14.62,14.62,0,0,1,553.76,766.58Z"/><g class="cls-4"><line class="cls-11" x1="221.15" y1="720.89" x2="148.55" y2="799.67"/></g><polygon class="cls-12" points="216.14 720.25 230.14 711.39 222.45 726.07 216.14 720.25"/><g class="cls-4"><path class="cls-12" d="M145.76,794.65l-8.7-8,3.54-3.86a6.86,6.86,0,0,1,1.86-1.56,2.55,2.55,0,0,1,1.71-.2,3.34,3.34,0,0,1,1.65.84,3,3,0,0,1,1,2,4.15,4.15,0,0,1-.89,2.59,4.1,4.1,0,0,1,1.07-.3,8.48,8.48,0,0,1,2,.11l3.76.66-1.33,1.45-2.87-.51c-.83-.15-1.48-.23-2-.27a3.47,3.47,0,0,0-1.12.05,2.55,2.55,0,0,0-.71.31,4.68,4.68,0,0,0-.63.61L143,790l3.86,3.55ZM142,789l2.27-2.48a5.25,5.25,0,0,0,1-1.38,1.87,1.87,0,0,0,.1-1.16,2,2,0,0,0-.57-.95,1.81,1.81,0,0,0-1.43-.48,2.87,2.87,0,0,0-1.69,1l-2.53,2.76Z"/><path class="cls-12" d="M157.09,782.29l-1,1.07-6.81-6.24a7.25,7.25,0,0,1-.19,1.68,10.25,10.25,0,0,1-.48,1.64l-1-1A9,9,0,0,0,148,777a5.35,5.35,0,0,0-.3-2l.63-.69Z"/><path class="cls-12" d="M160.15,779l-1.21-1.12,1.11-1.22,1.22,1.12Z"/><path class="cls-12" d="M160.42,774.09l.94-1.21a2.71,2.71,0,0,0,1.76.55,2.15,2.15,0,0,0,1.42-.72,2.31,2.31,0,0,0,.61-1.84,3,3,0,0,0-1.05-2,2.73,2.73,0,0,0-1.91-.81,2.46,2.46,0,0,0-1.77.86,2.65,2.65,0,0,0-.62,1.15,2.6,2.6,0,0,0,0,1.21l-1.05.89-3.7-5,4-4.33,1,.94-3.18,3.48,1.91,2.61a3.8,3.8,0,0,1,1-2.15,3.54,3.54,0,0,1,2.55-1.2A3.72,3.72,0,0,1,165,767.7a4.28,4.28,0,0,1,1.41,2.56,3.74,3.74,0,0,1-1,3.26,3.89,3.89,0,0,1-2.45,1.33A3.55,3.55,0,0,1,160.42,774.09Z"/><path class="cls-12" d="M167,767.41l.84-1.11a2.44,2.44,0,0,0,1.51.46,1.82,1.82,0,0,0,1.19-.64,2.12,2.12,0,0,0,.57-1.07,2.53,2.53,0,0,0,0-1.16,5,5,0,0,0-.66-1.34,6.79,6.79,0,0,0-1.16-1.35c0-.05-.12-.11-.21-.2a3.37,3.37,0,0,1,0,1.64,3.25,3.25,0,0,1-.78,1.49,3.38,3.38,0,0,1-2.47,1.12,4.42,4.42,0,0,1-4.16-3.89,3.56,3.56,0,0,1,1-2.69,3.8,3.8,0,0,1,1.88-1.14,3.85,3.85,0,0,1,2.29.13,8.72,8.72,0,0,1,2.78,1.88,10.82,10.82,0,0,1,2.33,2.8,4.21,4.21,0,0,1,.51,2.46,3.75,3.75,0,0,1-1,2.15,3.13,3.13,0,0,1-4.4.46Zm.17-7.9a2.89,2.89,0,0,0-1.91-.85,2.09,2.09,0,0,0-1.62.69,2.19,2.19,0,0,0-.56,1.77,2.93,2.93,0,0,0,1,1.91,2.49,2.49,0,0,0,1.81.74,2.25,2.25,0,0,0,1.65-.76,2.19,2.19,0,0,0,.6-1.7A2.78,2.78,0,0,0,167.21,759.51Z"/><path class="cls-12" d="M182.91,759.28a14.28,14.28,0,0,1-4-.9,11.13,11.13,0,0,1-5.95-5.17,15.53,15.53,0,0,1-1.47-4.39l.7-.77a26.74,26.74,0,0,0,.89,2.57,13.22,13.22,0,0,0,1.19,2.14,13,13,0,0,0,2,2.3,14.47,14.47,0,0,0,7.33,3.46Z"/><path class="cls-12" d="M185.61,751.2l-1,1.07L177.82,746a7.84,7.84,0,0,1-.19,1.68,10.25,10.25,0,0,1-.48,1.64l-1-1a8.68,8.68,0,0,0,.42-2.51,5.55,5.55,0,0,0-.29-2l.63-.69Z"/><path class="cls-12" d="M187.8,749.11l-6.68-10.78.78-.86,6.69,10.78Z"/><path class="cls-12" d="M194.91,741.06l-1,1.07-6.81-6.24a7.32,7.32,0,0,1-.2,1.68,9.37,9.37,0,0,1-.47,1.64l-1-1a8.68,8.68,0,0,0,.42-2.51,5.55,5.55,0,0,0-.29-2l.63-.69Z"/><path class="cls-12" d="M195.93,726.75l-.89,1.14a2.74,2.74,0,0,0-1.29-.43,1.89,1.89,0,0,0-1.43.65,2,2,0,0,0-.54,1.16,3.36,3.36,0,0,0,.34,1.78,7.82,7.82,0,0,0,1.74,2.14,3.32,3.32,0,0,1,0-1.74,3.47,3.47,0,0,1,.79-1.43,3.29,3.29,0,0,1,2.46-1.1,3.8,3.8,0,0,1,2.72,1.12,4.69,4.69,0,0,1,1.2,1.74,3.51,3.51,0,0,1,.18,2,3.57,3.57,0,0,1-.91,1.75,3.7,3.7,0,0,1-3,1.27q-1.76,0-4-2.12c-1.68-1.54-2.62-3-2.81-4.3a3.62,3.62,0,0,1,1-3.1,3.16,3.16,0,0,1,4.43-.49Zm-.25,7.81a3.3,3.3,0,0,0,1.27.73,2.3,2.3,0,0,0,1.37.05,2.23,2.23,0,0,0,1.08-.64,2,2,0,0,0,.52-1.66,2.91,2.91,0,0,0-1-1.85,2.71,2.71,0,0,0-1.86-.83,2.15,2.15,0,0,0-1.63.74,2.23,2.23,0,0,0-.61,1.7A2.57,2.57,0,0,0,195.68,734.56Z"/><path class="cls-12" d="M198.32,726.06l-1.93-1.23-1.43-1.3,1.12-1.22,1.42,1.31,1.42,1.78Zm1.8-2-1.92-1.23-1.43-1.3,1.12-1.22,1.42,1.31,1.4,1.8Z"/><path class="cls-12" d="M211.05,728.6l-.7.76a14.67,14.67,0,0,0-4.08-7,13.07,13.07,0,0,0-2.45-1.77,12.68,12.68,0,0,0-2.23-1,24.56,24.56,0,0,0-2.65-.68l.7-.77a15.23,15.23,0,0,1,4.5,1.1,10.76,10.76,0,0,1,3.13,2,10.88,10.88,0,0,1,2.54,3.46A14.86,14.86,0,0,1,211.05,728.6Z"/></g><line class="cls-11" x1="243.56" y1="670.28" x2="306.78" y2="701.96"/><polygon class="cls-12" points="243.76 675.32 232.72 662.97 248.46 668.14 243.76 675.32"/><path class="cls-12" d="M311.47,704.4l.06-11.81,5.24,0a7.14,7.14,0,0,1,2.39.33,2.66,2.66,0,0,1,1.31,1.13,3.27,3.27,0,0,1,.48,1.79,3,3,0,0,1-.82,2.11,4.13,4.13,0,0,1-2.52,1.08,3.82,3.82,0,0,1,.94.6,8.39,8.39,0,0,1,1.29,1.57l2,3.23h-2L318.36,702c-.45-.71-.82-1.25-1.12-1.63a3.42,3.42,0,0,0-.79-.79,2.36,2.36,0,0,0-.71-.32,4.46,4.46,0,0,0-.87-.06h-1.81l0,5.24Zm1.6-6.59h3.35a4.77,4.77,0,0,0,1.68-.21,1.82,1.82,0,0,0,.92-.7,1.94,1.94,0,0,0,.32-1.06,1.74,1.74,0,0,0-.6-1.38,2.82,2.82,0,0,0-1.92-.55l-3.74,0Z"/><path class="cls-12" d="M328.23,704.48h-1.45l.05-9.24a7,7,0,0,1-1.38,1,10.44,10.44,0,0,1-1.53.74v-1.4a8.75,8.75,0,0,0,2.14-1.38,5.53,5.53,0,0,0,1.3-1.57h.93Z"/><path class="cls-12" d="M332.75,704.5v-1.65h1.65v1.65Z"/><path class="cls-12" d="M336.54,701.43l1.53-.12a2.65,2.65,0,0,0,.77,1.67,2.12,2.12,0,0,0,1.49.57,2.33,2.33,0,0,0,1.77-.78,3,3,0,0,0,.74-2.09,2.71,2.71,0,0,0-.69-2,2.45,2.45,0,0,0-1.82-.73,2.57,2.57,0,0,0-1.27.31,2.61,2.61,0,0,0-.89.82l-1.36-.18,1.18-6.06,5.87,0v1.38l-4.71,0-.65,3.17a3.85,3.85,0,0,1,2.23-.73,3.57,3.57,0,0,1,2.61,1.09,3.76,3.76,0,0,1,1.05,2.76,4.34,4.34,0,0,1-.95,2.76,3.71,3.71,0,0,1-3.11,1.42,3.84,3.84,0,0,1-2.63-.91A3.56,3.56,0,0,1,336.54,701.43Z"/><path class="cls-12" d="M345.93,701.84l1.4-.13a2.32,2.32,0,0,0,.67,1.43,1.81,1.81,0,0,0,1.27.45,2.1,2.1,0,0,0,1.18-.3,2.57,2.57,0,0,0,.83-.81,5.08,5.08,0,0,0,.54-1.38,7,7,0,0,0,.23-1.77c0-.06,0-.16,0-.29a3.37,3.37,0,0,1-1.19,1.12,3.33,3.33,0,0,1-1.63.42,3.26,3.26,0,0,1-2.48-1.08,3.86,3.86,0,0,1-1-2.8,4,4,0,0,1,1.07-2.89,3.51,3.51,0,0,1,2.66-1.08,3.76,3.76,0,0,1,2.11.63,4,4,0,0,1,1.44,1.77,9,9,0,0,1,.48,3.33,10.84,10.84,0,0,1-.51,3.6,4.34,4.34,0,0,1-1.48,2,3.85,3.85,0,0,1-2.28.69A3.34,3.34,0,0,1,347,704,3.27,3.27,0,0,1,345.93,701.84Zm6-5.18a2.81,2.81,0,0,0-.65-2,2.07,2.07,0,0,0-1.6-.74,2.22,2.22,0,0,0-1.68.78,2.91,2.91,0,0,0-.73,2,2.52,2.52,0,0,0,.67,1.84,2.24,2.24,0,0,0,1.68.71,2.17,2.17,0,0,0,1.66-.7A2.74,2.74,0,0,0,351.89,696.66Z"/><path class="cls-12" d="M362.61,708.12a14.6,14.6,0,0,1-2-3.55,11.3,11.3,0,0,1-.81-4.21,11,11,0,0,1,.64-3.67,15.52,15.52,0,0,1,2.26-4.05h1c-.65,1.11-1.09,1.91-1.3,2.38a12.91,12.91,0,0,0-.78,2.32,13.5,13.5,0,0,0-.37,3,14.6,14.6,0,0,0,2.37,7.75Z"/><path class="cls-12" d="M370.41,704.69H369l.05-9.23a7.48,7.48,0,0,1-1.38,1,10.44,10.44,0,0,1-1.53.74v-1.4a8.88,8.88,0,0,0,2.13-1.38,5.53,5.53,0,0,0,1.3-1.57h.93Z"/><path class="cls-12" d="M373.44,704.91l3.48-12.2h1.16l-3.47,12.19Z"/><path class="cls-12" d="M384.17,704.76h-1.45l0-9.24a7.48,7.48,0,0,1-1.38,1,10.44,10.44,0,0,1-1.53.74v-1.41a8.55,8.55,0,0,0,2.13-1.37,5.53,5.53,0,0,0,1.3-1.57h.93Z"/><path class="cls-12" d="M395.45,695.9,394,696a2.87,2.87,0,0,0-.54-1.25,2.07,2.07,0,0,0-2.67-.24,3.28,3.28,0,0,0-1.08,1.45,7.62,7.62,0,0,0-.43,2.73,3.29,3.29,0,0,1,1.29-1.18,3.45,3.45,0,0,1,1.59-.38,3.28,3.28,0,0,1,2.46,1.08,3.85,3.85,0,0,1,1,2.76,4.71,4.71,0,0,1-.49,2.07,3.47,3.47,0,0,1-1.33,1.45,3.57,3.57,0,0,1-1.9.5,3.68,3.68,0,0,1-2.95-1.35c-.76-.89-1.13-2.36-1.12-4.4q0-3.42,1.29-5a3.65,3.65,0,0,1,3-1.34,3.33,3.33,0,0,1,2.28.8A3.28,3.28,0,0,1,395.45,695.9ZM389.51,701a3.28,3.28,0,0,0,.31,1.44,2.32,2.32,0,0,0,.88,1,2.14,2.14,0,0,0,1.2.37,2.05,2.05,0,0,0,1.58-.73,2.89,2.89,0,0,0,.67-2,2.74,2.74,0,0,0-.64-1.94,2.13,2.13,0,0,0-1.64-.71,2.25,2.25,0,0,0-1.67.7A2.5,2.5,0,0,0,389.51,701Z"/><path class="cls-12" d="M397.57,697.2l-.39-2.25V693h1.65V695l-.37,2.24Zm2.67,0-.39-2.25V693h1.65V695l-.39,2.25Z"/><path class="cls-12" d="M404.25,708.33h-1a14.6,14.6,0,0,0,2.45-7.73,14,14,0,0,0-.33-3,12.35,12.35,0,0,0-.76-2.32,25.4,25.4,0,0,0-1.28-2.42h1a15.59,15.59,0,0,1,2.22,4.07,11.31,11.31,0,0,1,.6,3.68,10.88,10.88,0,0,1-.86,4.2A14.53,14.53,0,0,1,404.25,708.33Z"/><g class="cls-4"><path class="cls-12" d="M445.15,5.61a2.74,2.74,0,0,1-1.34-1,2.42,2.42,0,0,1-.43-1.46A2.87,2.87,0,0,1,444.31,1a3.89,3.89,0,0,1,4.95,0,2.91,2.91,0,0,1,.94,2.19,2.4,2.4,0,0,1-.43,1.43,2.75,2.75,0,0,1-1.31.94,3,3,0,0,1,2.23,3,3.39,3.39,0,0,1-1.08,2.54,4.36,4.36,0,0,1-5.63,0,3.43,3.43,0,0,1-1.08-2.59,3.09,3.09,0,0,1,.59-1.92A2.87,2.87,0,0,1,445.15,5.61Zm-.76,3a2.54,2.54,0,0,0,.3,1.2,2,2,0,0,0,.87.9,2.61,2.61,0,0,0,1.25.32,2.34,2.34,0,0,0,1.72-.67,2.28,2.28,0,0,0,.67-1.7,2.34,2.34,0,0,0-.69-1.73,2.4,2.4,0,0,0-1.75-.69,2.32,2.32,0,0,0-2.37,2.37Zm.47-5.45a1.85,1.85,0,0,0,.54,1.37,1.93,1.93,0,0,0,1.4.53,1.9,1.9,0,0,0,1.38-.53,1.76,1.76,0,0,0,.53-1.29,1.8,1.8,0,0,0-.55-1.34,1.9,1.9,0,0,0-1.37-.55,1.87,1.87,0,0,0-1.38.54A1.69,1.69,0,0,0,444.86,3.15Z"/><path class="cls-12" d="M452.19,1.75V.35h7.65V1.48a16,16,0,0,0-2.24,3.19,19.29,19.29,0,0,0-1.71,4.09,15.18,15.18,0,0,0-.56,3.25h-1.49a14.7,14.7,0,0,1,.55-3.37,17.88,17.88,0,0,1,1.5-3.8A16.62,16.62,0,0,1,458,1.75Z"/><path class="cls-12" d="M462.08,12V10.36h1.66V12Z"/><path class="cls-12" d="M465.86,8.89l1.45-.19a3.26,3.26,0,0,0,.85,1.78,2.11,2.11,0,0,0,1.46.54,2.35,2.35,0,0,0,1.73-.71,2.4,2.4,0,0,0,.71-1.76,2.2,2.2,0,0,0-.66-1.64,2.25,2.25,0,0,0-1.66-.65,4.05,4.05,0,0,0-1,.16l.16-1.27h.24a3,3,0,0,0,1.66-.48,1.64,1.64,0,0,0,.74-1.49A1.79,1.79,0,0,0,471,1.87a2,2,0,0,0-1.4-.53,2,2,0,0,0-1.41.54,2.63,2.63,0,0,0-.72,1.59L466,3.21A3.75,3.75,0,0,1,467.21,1a3.52,3.52,0,0,1,2.35-.8,3.83,3.83,0,0,1,1.78.42A3,3,0,0,1,473,3.22a2.47,2.47,0,0,1-.41,1.4,2.8,2.8,0,0,1-1.21,1,2.74,2.74,0,0,1,1.62,1,3,3,0,0,1,.58,1.9,3.47,3.47,0,0,1-1.12,2.62,4,4,0,0,1-2.85,1.08,3.72,3.72,0,0,1-2.59-.93A3.58,3.58,0,0,1,465.86,8.89Z"/><path class="cls-12" d="M480.49,12H479V2.77a7.73,7.73,0,0,1-1.37,1,10.6,10.6,0,0,1-1.53.75V3.12a8.9,8.9,0,0,0,2.13-1.39A5.5,5.5,0,0,0,479.56.15h.93Z"/><path class="cls-12" d="M492,15.48a14.44,14.44,0,0,1-2-3.54,11.12,11.12,0,0,1-.83-4.21,11,11,0,0,1,.62-3.67A15.64,15.64,0,0,1,492,0h1c-.65,1.12-1.08,1.91-1.29,2.39a13.15,13.15,0,0,0-.77,2.32,13.62,13.62,0,0,0-.35,3A14.51,14.51,0,0,0,493,15.48Z"/><path class="cls-12" d="M494.29,8.89l1.45-.19a3.26,3.26,0,0,0,.85,1.78,2.11,2.11,0,0,0,1.46.54,2.36,2.36,0,0,0,1.73-.71,2.39,2.39,0,0,0,.7-1.76,2.19,2.19,0,0,0-.65-1.64,2.26,2.26,0,0,0-1.66-.65,4.05,4.05,0,0,0-1,.16l.16-1.27h.23a3,3,0,0,0,1.67-.48A1.64,1.64,0,0,0,500,3.19a1.76,1.76,0,0,0-.54-1.32A1.91,1.91,0,0,0,498,1.34a2,2,0,0,0-1.41.54,2.63,2.63,0,0,0-.73,1.59l-1.45-.26A3.76,3.76,0,0,1,495.64,1,3.52,3.52,0,0,1,498,.15a3.86,3.86,0,0,1,1.78.42A3,3,0,0,1,501,1.7a2.9,2.9,0,0,1,.43,1.52,2.47,2.47,0,0,1-.41,1.4,2.8,2.8,0,0,1-1.21,1,2.77,2.77,0,0,1,1.62,1,3,3,0,0,1,.58,1.9,3.45,3.45,0,0,1-1.13,2.62A4,4,0,0,1,498,12.22a3.72,3.72,0,0,1-2.58-.93A3.58,3.58,0,0,1,494.29,8.89Z"/><path class="cls-12" d="M508.14,1.75V.35h7.64V1.48a16,16,0,0,0-2.23,3.19,19.87,19.87,0,0,0-1.72,4.09,15.2,15.2,0,0,0-.55,3.25h-1.49a14.17,14.17,0,0,1,.55-3.37,17.37,17.37,0,0,1,1.5-3.8,16.13,16.13,0,0,1,2.08-3.09Z"/><path class="cls-12" d="M516.53,12.21,520,0h1.16L517.7,12.21Z"/><path class="cls-12" d="M527.26,12h-1.45V2.77a7.73,7.73,0,0,1-1.37,1,10.6,10.6,0,0,1-1.53.75V3.12A8.9,8.9,0,0,0,525,1.73,5.68,5.68,0,0,0,526.33.15h.93Z"/><path class="cls-12" d="M538.5,3.09l-1.44.12A2.76,2.76,0,0,0,536.51,2a1.91,1.91,0,0,0-1.45-.63,2,2,0,0,0-1.22.39,3.31,3.31,0,0,0-1.08,1.46,7.68,7.68,0,0,0-.41,2.73,3.34,3.34,0,0,1,1.28-1.18,3.46,3.46,0,0,1,1.59-.39,3.29,3.29,0,0,1,2.47,1.07,3.83,3.83,0,0,1,1,2.76,4.49,4.49,0,0,1-.48,2.06,3.42,3.42,0,0,1-1.32,1.46,3.58,3.58,0,0,1-1.9.51,3.72,3.72,0,0,1-3-1.33,6.77,6.77,0,0,1-1.14-4.4q0-3.42,1.26-5a3.63,3.63,0,0,1,3-1.36,3.32,3.32,0,0,1,2.28.78A3.36,3.36,0,0,1,538.5,3.09Zm-5.92,5.09a3.42,3.42,0,0,0,.31,1.44,2.42,2.42,0,0,0,.9,1A2.21,2.21,0,0,0,535,11a2,2,0,0,0,1.57-.74,2.94,2.94,0,0,0,.66-2,2.73,2.73,0,0,0-.65-1.93,2.16,2.16,0,0,0-1.64-.7,2.27,2.27,0,0,0-1.67.7A2.55,2.55,0,0,0,532.58,8.18Z"/><path class="cls-12" d="M540.62,4.38l-.4-2.25V.2h1.65V2.13l-.36,2.25Zm2.67,0-.39-2.25V.2h1.65V2.13l-.39,2.25Z"/><path class="cls-12" d="M547.3,15.48h-1a14.51,14.51,0,0,0,2.41-7.74,13.22,13.22,0,0,0-.35-3,12.86,12.86,0,0,0-.76-2.32A25.7,25.7,0,0,0,546.26,0h1a15.64,15.64,0,0,1,2.24,4.06,11,11,0,0,1,.62,3.67,11.12,11.12,0,0,1-.83,4.21A15.11,15.11,0,0,1,547.3,15.48Z"/></g><path class="cls-12" d="M465.72,52V50.57h7.64v1.12a16.45,16.45,0,0,0-2.24,3.19,20.23,20.23,0,0,0-1.71,4.1,15.1,15.1,0,0,0-.55,3.24h-1.49a14.17,14.17,0,0,1,.55-3.37,16.88,16.88,0,0,1,1.5-3.8A16.13,16.13,0,0,1,471.5,52Z"/><path class="cls-12" d="M482.32,53.3l-1.44.12a2.82,2.82,0,0,0-.55-1.24,1.9,1.9,0,0,0-1.45-.62,2.06,2.06,0,0,0-1.22.38,3.45,3.45,0,0,0-1.08,1.46,7.68,7.68,0,0,0-.41,2.73A3.42,3.42,0,0,1,477.45,55a3.46,3.46,0,0,1,1.59-.39,3.29,3.29,0,0,1,2.47,1.07,3.83,3.83,0,0,1,1,2.76,4.49,4.49,0,0,1-.48,2.06,3.5,3.5,0,0,1-1.32,1.47,3.67,3.67,0,0,1-1.9.5,3.72,3.72,0,0,1-3-1.33,6.74,6.74,0,0,1-1.14-4.39q0-3.44,1.26-5a3.66,3.66,0,0,1,3-1.36,3.28,3.28,0,0,1,2.28.79A3.34,3.34,0,0,1,482.32,53.3Zm-5.92,5.1a3.38,3.38,0,0,0,.31,1.43,2.36,2.36,0,0,0,.9,1,2.21,2.21,0,0,0,1.2.36,2,2,0,0,0,1.57-.74,2.85,2.85,0,0,0,.66-2,2.7,2.7,0,0,0-.65-1.93,2.13,2.13,0,0,0-1.64-.71,2.24,2.24,0,0,0-1.67.71A2.51,2.51,0,0,0,476.4,58.4Z"/><path class="cls-12" d="M484.78,62.22V60.57h1.65v1.65Z"/><path class="cls-12" d="M496.17,60.83v1.39h-7.8a2.42,2.42,0,0,1,.17-1,5.28,5.28,0,0,1,.95-1.58,14.91,14.91,0,0,1,1.9-1.78,16.21,16.21,0,0,0,2.6-2.51,3,3,0,0,0,.68-1.74,1.94,1.94,0,0,0-.62-1.45,2.21,2.21,0,0,0-1.61-.6,2.26,2.26,0,0,0-1.67.63,2.4,2.4,0,0,0-.64,1.74l-1.49-.15a3.68,3.68,0,0,1,1.15-2.54,4,4,0,0,1,2.69-.88,3.74,3.74,0,0,1,2.69,1,3.08,3.08,0,0,1,1,2.33,3.62,3.62,0,0,1-.29,1.4,5.78,5.78,0,0,1-1,1.44,22.93,22.93,0,0,1-2.23,2.08c-.87.73-1.43,1.22-1.68,1.48a5.25,5.25,0,0,0-.61.79Z"/><path class="cls-12" d="M505.49,65.69a14.44,14.44,0,0,1-2-3.54,11.13,11.13,0,0,1-.21-7.88,15.35,15.35,0,0,1,2.24-4.06h1c-.64,1.12-1.07,1.92-1.28,2.39a13.46,13.46,0,0,0-.78,2.32,13.6,13.6,0,0,0-.34,3,14.53,14.53,0,0,0,2.4,7.74Z"/><path class="cls-12" d="M507.81,59.1l1.45-.19a3.23,3.23,0,0,0,.85,1.78,2.12,2.12,0,0,0,1.47.54,2.3,2.3,0,0,0,1.72-.71,2.39,2.39,0,0,0,.71-1.75,2.24,2.24,0,0,0-.65-1.65,2.28,2.28,0,0,0-1.66-.65,4.05,4.05,0,0,0-1,.16l.16-1.27.24,0a3,3,0,0,0,1.67-.49,1.66,1.66,0,0,0,.74-1.49,1.76,1.76,0,0,0-.54-1.32,1.93,1.93,0,0,0-1.4-.52,2,2,0,0,0-1.41.53,2.69,2.69,0,0,0-.72,1.59L508,53.43a3.7,3.7,0,0,1,1.21-2.26,3.47,3.47,0,0,1,2.34-.81,3.8,3.8,0,0,1,1.78.42,3.05,3.05,0,0,1,1.25,1.13,3,3,0,0,1,.43,1.52,2.55,2.55,0,0,1-.41,1.4,2.85,2.85,0,0,1-1.22,1,2.73,2.73,0,0,1,1.63,1,3.09,3.09,0,0,1,.58,1.9,3.5,3.5,0,0,1-1.13,2.63,4,4,0,0,1-2.85,1.07,3.72,3.72,0,0,1-2.58-.92A3.59,3.59,0,0,1,507.81,59.1Z"/><path class="cls-12" d="M517.46,54.59l-.41-2.24V50.41h1.65v1.94l-.36,2.24Zm2.66,0-.39-2.24V50.41h1.65v1.94L521,54.59Z"/><path class="cls-12" d="M524.19,65.69h-1A14.46,14.46,0,0,0,525.56,58a13.22,13.22,0,0,0-.35-3,12.12,12.12,0,0,0-.76-2.32,27,27,0,0,0-1.3-2.42h1a15.35,15.35,0,0,1,2.24,4.06,11.13,11.13,0,0,1-.21,7.88A14.77,14.77,0,0,1,524.19,65.69Z"/><g class="cls-4"><path class="cls-10" d="M510.5,729.1v-5.92l-5.4-8h2.24l2.76,4.22c.5.79,1,1.58,1.43,2.36.42-.74.94-1.56,1.55-2.46l2.71-4.12h2.15l-5.58,8v5.92Z"/><path class="cls-10" d="M510.5,103.65V97.73l-5.4-8h2.24l2.76,4.22c.5.79,1,1.58,1.43,2.36.42-.74.94-1.56,1.55-2.46l2.71-4.12h2.15l-5.58,8v5.92Z"/></g><path class="cls-12" d="M149.86,611.93h-1.4v-7.64h1.13a16.14,16.14,0,0,0,3.19,2.23,19.29,19.29,0,0,0,4.09,1.71,15.18,15.18,0,0,0,3.25.56v1.49a14.7,14.7,0,0,1-3.37-.55,18.18,18.18,0,0,1-3.81-1.5,16.18,16.18,0,0,1-3.08-2.08Z"/><path class="cls-12" d="M160.12,597.39v1.45h-9.24a8.26,8.26,0,0,1,1,1.37,10.6,10.6,0,0,1,.75,1.53h-1.41a8.62,8.62,0,0,0-1.38-2.12,5.34,5.34,0,0,0-1.58-1.29v-.94Z"/><path class="cls-12" d="M160.12,592.86h-1.65v-1.65h1.65Z"/><path class="cls-12" d="M157,589.09l-.19-1.45a3.19,3.19,0,0,0,1.77-.85,2.08,2.08,0,0,0,.55-1.47,2.34,2.34,0,0,0-.71-1.72,2.4,2.4,0,0,0-1.76-.71,2.21,2.21,0,0,0-2.29,2.31,4.05,4.05,0,0,0,.16,1l-1.28-.16a1.15,1.15,0,0,0,0-.24,3,3,0,0,0-.48-1.66,1.65,1.65,0,0,0-1.49-.75A1.76,1.76,0,0,0,150,584a1.93,1.93,0,0,0-.53,1.4,2,2,0,0,0,.53,1.41,2.75,2.75,0,0,0,1.6.72l-.26,1.45a3.76,3.76,0,0,1-2.26-1.21,3.51,3.51,0,0,1-.8-2.34,3.83,3.83,0,0,1,.42-1.78,3,3,0,0,1,2.65-1.68,2.51,2.51,0,0,1,1.39.41,2.78,2.78,0,0,1,1,1.22,2.78,2.78,0,0,1,1-1.63,3.12,3.12,0,0,1,1.91-.58,3.48,3.48,0,0,1,2.62,1.13,4,4,0,0,1,1.08,2.85,3.68,3.68,0,0,1-.93,2.58A3.59,3.59,0,0,1,157,589.09Z"/><path class="cls-12" d="M163.59,572.16a14.44,14.44,0,0,1-3.54,2,10.93,10.93,0,0,1-4.21.83,10.76,10.76,0,0,1-3.67-.62,15.35,15.35,0,0,1-4.06-2.24v-1a26.73,26.73,0,0,0,2.39,1.29,12.14,12.14,0,0,0,2.32.77,12.93,12.93,0,0,0,3,.35,14.51,14.51,0,0,0,7.74-2.41Z"/><path class="cls-12" d="M158.72,562.22h1.4V570a2.65,2.65,0,0,1-1-.17,5.4,5.4,0,0,1-1.57-1,14.7,14.7,0,0,1-1.79-1.89,16,16,0,0,0-2.5-2.61,3,3,0,0,0-1.74-.67,2,2,0,0,0-1.46.61,2.52,2.52,0,0,0,0,3.29,2.39,2.39,0,0,0,1.74.63l-.15,1.49a3.66,3.66,0,0,1-2.55-1.15,3.93,3.93,0,0,1-.87-2.68,3.78,3.78,0,0,1,.94-2.69,3.11,3.11,0,0,1,2.34-1,3.4,3.4,0,0,1,1.39.29,5.33,5.33,0,0,1,1.45,1,23.51,23.51,0,0,1,2.07,2.24c.73.87,1.23,1.42,1.49,1.67a4.62,4.62,0,0,0,.78.61Z"/><path class="cls-12" d="M160.12,559.85h-1.65V558.2h1.65Z"/><path class="cls-12" d="M153.71,553.85a2.73,2.73,0,0,1-.94,1.34,2.45,2.45,0,0,1-1.46.43,2.85,2.85,0,0,1-2.17-.92,3.43,3.43,0,0,1-.88-2.47,3.46,3.46,0,0,1,.9-2.49,2.94,2.94,0,0,1,2.19-.94,2.42,2.42,0,0,1,1.43.43,2.78,2.78,0,0,1,.93,1.31,3.15,3.15,0,0,1,1.15-1.65,3.11,3.11,0,0,1,1.88-.57,3.38,3.38,0,0,1,2.55,1.07,4.36,4.36,0,0,1,0,5.64,3.46,3.46,0,0,1-2.58,1.07,3.12,3.12,0,0,1-1.93-.59A2.89,2.89,0,0,1,153.71,553.85Zm-2.45.29a1.85,1.85,0,0,0,1.37-.54,1.93,1.93,0,0,0,.53-1.4,1.86,1.86,0,0,0-.53-1.37,1.73,1.73,0,0,0-1.29-.54,1.8,1.8,0,0,0-1.34.55,1.87,1.87,0,0,0-.55,1.38,1.89,1.89,0,0,0,.53,1.37A1.71,1.71,0,0,0,151.26,554.14Zm5.45.47a2.6,2.6,0,0,0,1.2-.3,2,2,0,0,0,.9-.87,2.58,2.58,0,0,0,.32-1.25,2.35,2.35,0,0,0-.67-1.71,2.48,2.48,0,0,0-3.43,0,2.36,2.36,0,0,0-.69,1.74,2.31,2.31,0,0,0,2.37,2.37Z"/><path class="cls-12" d="M160.12,541.45v1.45h-9.24a7.86,7.86,0,0,1,1,1.37,10.6,10.6,0,0,1,.75,1.53h-1.41a8.88,8.88,0,0,0-1.38-2.13,5.34,5.34,0,0,0-1.58-1.29v-.93Z"/><path class="cls-12" d="M152.49,534.59l-2.25.4h-1.93v-1.66h1.93l2.25.39Zm0,2.67-2.25.4h-1.93V536h1.93l2.25.36Z"/><path class="cls-12" d="M163.59,530.58v1a14.51,14.51,0,0,0-7.74-2.41,13.22,13.22,0,0,0-3,.35,12.86,12.86,0,0,0-2.32.76,25.7,25.7,0,0,0-2.42,1.3v-1a15.64,15.64,0,0,1,4.06-2.24,11,11,0,0,1,3.67-.62,11.12,11.12,0,0,1,4.21.83A15.11,15.11,0,0,1,163.59,530.58Z"/><path class="cls-12" d="M192.12,639.07l.11,1.44a2.71,2.71,0,0,0-1.24.55,1.92,1.92,0,0,0-.62,1.45,2,2,0,0,0,.39,1.21,3.21,3.21,0,0,0,1.45,1.08,7.46,7.46,0,0,0,2.73.41,3.28,3.28,0,0,1-1.18-1.28,3.39,3.39,0,0,1-.39-1.58,3.29,3.29,0,0,1,1.07-2.47,3.83,3.83,0,0,1,2.76-1,4.56,4.56,0,0,1,2.07.48,3.48,3.48,0,0,1,2,3.22,3.7,3.7,0,0,1-1.34,3c-.89.77-2.35,1.15-4.39,1.15q-3.42,0-5-1.27a3.62,3.62,0,0,1-1.35-3,3.16,3.16,0,0,1,2.94-3.35Zm5.09,5.92a3.36,3.36,0,0,0,1.43-.32,2.29,2.29,0,0,0,1-.89,2.21,2.21,0,0,0,.36-1.2,2,2,0,0,0-.74-1.58,2.9,2.9,0,0,0-2-.66,2.75,2.75,0,0,0-1.93.65,2.17,2.17,0,0,0-.71,1.65,2.22,2.22,0,0,0,.71,1.66A2.54,2.54,0,0,0,197.21,645Z"/><path class="cls-12" d="M199.64,629.8H201v7.8a2.45,2.45,0,0,1-1-.17,5,5,0,0,1-1.57-.95,14.21,14.21,0,0,1-1.79-1.9,16.26,16.26,0,0,0-2.5-2.6,3,3,0,0,0-1.75-.68,1.94,1.94,0,0,0-1.45.62,2.21,2.21,0,0,0-.59,1.61,2.28,2.28,0,0,0,.62,1.67,2.41,2.41,0,0,0,1.75.64l-.16,1.49a3.68,3.68,0,0,1-2.54-1.15,4,4,0,0,1-.87-2.68,3.75,3.75,0,0,1,.94-2.7,3.11,3.11,0,0,1,2.34-1,3.61,3.61,0,0,1,1.39.29,5.44,5.44,0,0,1,1.44,1,21.73,21.73,0,0,1,2.08,2.23c.73.87,1.22,1.43,1.49,1.68a5.19,5.19,0,0,0,.78.61Z"/><path class="cls-12" d="M201,627.43h-1.65v-1.65H201Z"/><path class="cls-12" d="M190.77,623.56h-1.39v-7.64h1.13a15.73,15.73,0,0,0,3.19,2.23,19.64,19.64,0,0,0,4.09,1.72,15.21,15.21,0,0,0,3.24.55v1.49a14.62,14.62,0,0,1-3.36-.55,17.76,17.76,0,0,1-3.81-1.5,16.61,16.61,0,0,1-3.09-2.08Z"/><path class="cls-12" d="M201,609v1.45h-9.24a7.26,7.26,0,0,1,1,1.37,8.86,8.86,0,0,1,.75,1.53h-1.4a8.62,8.62,0,0,0-1.38-2.12,5.47,5.47,0,0,0-1.58-1.29V609Z"/><path class="cls-12" d="M204.51,597.55a14.32,14.32,0,0,1-3.55,2,11,11,0,0,1-4.2.83,10.82,10.82,0,0,1-3.68-.62,15.35,15.35,0,0,1-4.06-2.24v-1q1.68,1,2.4,1.29a12.14,12.14,0,0,0,2.32.77,12.91,12.91,0,0,0,3,.35,14.52,14.52,0,0,0,7.75-2.41Z"/><path class="cls-12" d="M199.64,587.61H201v7.81a2.63,2.63,0,0,1-1-.17,5.28,5.28,0,0,1-1.57-1,14,14,0,0,1-1.79-1.89,16.44,16.44,0,0,0-2.5-2.61,3,3,0,0,0-1.75-.67,1.93,1.93,0,0,0-1.45.61,2.21,2.21,0,0,0-.59,1.61A2.3,2.3,0,0,0,191,593a2.4,2.4,0,0,0,1.75.63l-.16,1.49a3.64,3.64,0,0,1-2.54-1.15,3.93,3.93,0,0,1-.87-2.68,3.72,3.72,0,0,1,.94-2.69,3.11,3.11,0,0,1,2.34-1,3.43,3.43,0,0,1,1.39.29,5.15,5.15,0,0,1,1.44,1,22.09,22.09,0,0,1,2.08,2.24c.73.87,1.22,1.42,1.49,1.67a4.62,4.62,0,0,0,.78.61Z"/><path class="cls-12" d="M201,576v1.45h-9.24a7.26,7.26,0,0,1,1,1.37,8.86,8.86,0,0,1,.75,1.53h-1.4a8.88,8.88,0,0,0-1.38-2.13,5.58,5.58,0,0,0-1.58-1.28V576Z"/><path class="cls-12" d="M197.94,572.3l-.13-1.52a2.77,2.77,0,0,0,1.67-.79,2.11,2.11,0,0,0,.56-1.49,2.31,2.31,0,0,0-.79-1.77,3,3,0,0,0-2.09-.72,2.71,2.71,0,0,0-2,.69,2.44,2.44,0,0,0-.71,1.83,2.5,2.5,0,0,0,.31,1.26,2.54,2.54,0,0,0,.83.89l-.18,1.36-6.06-1.14V565h1.38v4.72l3.18.63a3.81,3.81,0,0,1-.75-2.23,3.52,3.52,0,0,1,1.08-2.61,3.72,3.72,0,0,1,2.75-1.06,4.31,4.31,0,0,1,2.77.93,3.74,3.74,0,0,1,1.44,3.1,3.82,3.82,0,0,1-.91,2.63A3.54,3.54,0,0,1,197.94,572.3Z"/><path class="cls-12" d="M201.24,563.81,189,560.38v-1.16l12.22,3.42Z"/><path class="cls-12" d="M197.92,558.53l-.2-1.45a3.23,3.23,0,0,0,1.78-.85,2.11,2.11,0,0,0,.54-1.46,2.32,2.32,0,0,0-.71-1.73,2.37,2.37,0,0,0-1.75-.7,2.2,2.2,0,0,0-1.65.65,2.26,2.26,0,0,0-.65,1.66,4.57,4.57,0,0,0,.16,1l-1.27-.16c0-.1,0-.17,0-.23a2.92,2.92,0,0,0-.49-1.67,1.66,1.66,0,0,0-1.49-.74,1.76,1.76,0,0,0-1.32.54,1.9,1.9,0,0,0-.52,1.39,2,2,0,0,0,.53,1.41,2.66,2.66,0,0,0,1.6.73l-.26,1.45a3.73,3.73,0,0,1-2.26-1.21,3.47,3.47,0,0,1-.8-2.35,3.85,3.85,0,0,1,.41-1.78,3.09,3.09,0,0,1,1.13-1.24,2.91,2.91,0,0,1,1.53-.43,2.44,2.44,0,0,1,1.39.41,2.82,2.82,0,0,1,1,1.21,2.71,2.71,0,0,1,1-1.62,3,3,0,0,1,1.91-.58,3.46,3.46,0,0,1,2.62,1.13,4,4,0,0,1,1.07,2.85,3.76,3.76,0,0,1-.92,2.58A3.63,3.63,0,0,1,197.92,558.53Z"/><path class="cls-12" d="M199.64,541.74H201v7.81a2.63,2.63,0,0,1-1-.17,5.45,5.45,0,0,1-1.57-1,14.21,14.21,0,0,1-1.79-1.9,16.26,16.26,0,0,0-2.5-2.6,3,3,0,0,0-1.75-.68,1.94,1.94,0,0,0-1.45.62,2.18,2.18,0,0,0-.59,1.6,2.3,2.3,0,0,0,.62,1.68,2.41,2.41,0,0,0,1.75.64l-.16,1.49a3.68,3.68,0,0,1-2.54-1.16,3.93,3.93,0,0,1-.87-2.68,3.74,3.74,0,0,1,.94-2.69,3.11,3.11,0,0,1,2.34-1,3.61,3.61,0,0,1,1.39.29,5.15,5.15,0,0,1,1.44,1,23.25,23.25,0,0,1,2.08,2.24,20.45,20.45,0,0,0,1.49,1.67,5.29,5.29,0,0,0,.78.62Z"/><path class="cls-12" d="M193.41,537.05l-2.25.39h-1.94v-1.65h1.94l2.25.39Zm0,2.66-2.25.41h-1.94v-1.66h1.94l2.25.37Z"/><path class="cls-12" d="M204.5,533.06v1a14.53,14.53,0,0,0-7.74-2.4,13.21,13.21,0,0,0-3,.34,12.14,12.14,0,0,0-2.32.77c-.48.21-1.29.64-2.42,1.29v-1a15.35,15.35,0,0,1,4.06-2.24A11.13,11.13,0,0,1,201,531,14.57,14.57,0,0,1,204.5,533.06Z"/><line class="cls-11" x1="824.47" y1="582.07" x2="824.47" y2="319"/><polygon class="cls-12" points="828.54 582.07 824.29 597.81 820.03 582.07 828.54 582.07"/><polygon class="cls-12" points="828.54 320.66 824.29 304.93 820.03 320.66 828.54 320.66"/><path class="cls-12" d="M807.48,533.39h-1.39v-7.64h1.13a16.14,16.14,0,0,0,3.19,2.23,19.08,19.08,0,0,0,4.09,1.71,15.18,15.18,0,0,0,3.25.56v1.49a14.62,14.62,0,0,1-3.37-.55,17.76,17.76,0,0,1-3.81-1.5,16.61,16.61,0,0,1-3.09-2.08Z"/><path class="cls-12" d="M817.75,518.85v1.45h-9.24a7.72,7.72,0,0,1,1,1.37,8.86,8.86,0,0,1,.75,1.53h-1.4a8.88,8.88,0,0,0-1.38-2.13,5.58,5.58,0,0,0-1.58-1.28v-.94Z"/><path class="cls-12" d="M817.75,514.32h-1.66v-1.65h1.66Z"/><path class="cls-12" d="M817.75,505.91h-2.83V511h-1.33l-7.65-5.39v-1.18h7.65v-1.6h1.33v1.6h2.83Zm-4.16,0h-5.33l5.33,3.69Z"/><path class="cls-12" d="M817.75,496.73h-2.83v5.12h-1.33l-7.65-5.39v-1.18h7.65v-1.6h1.33v1.6h2.83Zm-4.16,0h-5.33l5.33,3.7Z"/><path class="cls-12" d="M821.22,484.45a14.64,14.64,0,0,1-3.55,2,11.13,11.13,0,0,1-7.88.21,15.8,15.8,0,0,1-4.06-2.24v-1q1.68,1,2.4,1.29a13.72,13.72,0,0,0,2.32.77,13.48,13.48,0,0,0,3,.35,14.6,14.6,0,0,0,7.74-2.41Z"/><path class="cls-12" d="M816.35,474.51h1.4v7.8a2.47,2.47,0,0,1-1-.17,5.45,5.45,0,0,1-1.57-.95,14.88,14.88,0,0,1-1.79-1.9,16.26,16.26,0,0,0-2.5-2.6,3,3,0,0,0-1.75-.68,1.94,1.94,0,0,0-1.45.62,2.23,2.23,0,0,0-.59,1.61,2.26,2.26,0,0,0,.63,1.67,2.36,2.36,0,0,0,1.74.64L809.3,482a3.68,3.68,0,0,1-2.54-1.15,4,4,0,0,1-.87-2.69,3.74,3.74,0,0,1,.94-2.69,3.11,3.11,0,0,1,2.34-1,3.61,3.61,0,0,1,1.39.29,5.38,5.38,0,0,1,1.44,1,23.25,23.25,0,0,1,2.08,2.24c.73.87,1.23,1.43,1.49,1.67a4.7,4.7,0,0,0,.78.62Z"/><path class="cls-12" d="M817.75,462.91v1.45h-9.24a7.37,7.37,0,0,1,1,1.37,8.52,8.52,0,0,1,.75,1.53h-1.4a8.68,8.68,0,0,0-1.38-2.13,5.47,5.47,0,0,0-1.58-1.29v-.93Z"/><path class="cls-12" d="M814.63,459.18l-.2-1.45a3.13,3.13,0,0,0,1.78-.85,2.09,2.09,0,0,0,.54-1.46,2.35,2.35,0,0,0-.7-1.73,2.41,2.41,0,0,0-1.76-.7,2.24,2.24,0,0,0-1.65.65,2.28,2.28,0,0,0-.65,1.66,4.4,4.4,0,0,0,.16,1l-1.27-.16c0-.09,0-.17,0-.23a3,3,0,0,0-.48-1.67,1.68,1.68,0,0,0-1.5-.74,1.76,1.76,0,0,0-1.32.54,1.92,1.92,0,0,0-.52,1.39,2,2,0,0,0,.53,1.41,2.69,2.69,0,0,0,1.6.73L809,459a3.73,3.73,0,0,1-2.26-1.21,3.46,3.46,0,0,1-.8-2.34,3.92,3.92,0,0,1,.41-1.78,3.06,3.06,0,0,1,1.13-1.25A2.91,2.91,0,0,1,809,452a2.51,2.51,0,0,1,1.39.41,2.85,2.85,0,0,1,1,1.22,2.73,2.73,0,0,1,1-1.63,3,3,0,0,1,1.91-.58,3.5,3.5,0,0,1,2.62,1.13,3.94,3.94,0,0,1,1.07,2.85A3.68,3.68,0,0,1,817,458,3.54,3.54,0,0,1,814.63,459.18Z"/><path class="cls-12" d="M818,450.7l-12.22-3.42v-1.16L818,449.53Z"/><path class="cls-12" d="M817.75,440v1.45h-9.24a7.72,7.72,0,0,1,1,1.37,8.86,8.86,0,0,1,.75,1.53h-1.4a8.62,8.62,0,0,0-1.38-2.12,5.47,5.47,0,0,0-1.58-1.29V440Z"/><path class="cls-12" d="M808.83,428.74l.11,1.44a2.82,2.82,0,0,0-1.24.54,2,2,0,0,0-.62,1.45,2,2,0,0,0,.39,1.22,3.26,3.26,0,0,0,1.45,1.08,7.7,7.7,0,0,0,2.74.41,3.3,3.3,0,0,1-1.19-1.28,3.4,3.4,0,0,1-.39-1.59,3.31,3.31,0,0,1,1.07-2.47,3.86,3.86,0,0,1,2.76-1A4.69,4.69,0,0,1,816,429a3.53,3.53,0,0,1,1.46,1.32,3.58,3.58,0,0,1,.51,1.9,3.72,3.72,0,0,1-1.34,3,6.74,6.74,0,0,1-4.39,1.14q-3.42,0-5-1.26a3.65,3.65,0,0,1-1.35-3,3.36,3.36,0,0,1,.78-2.29A3.29,3.29,0,0,1,808.83,428.74Zm5.09,5.92a3.36,3.36,0,0,0,1.43-.32,2.44,2.44,0,0,0,1-.89,2.29,2.29,0,0,0,.35-1.2,2,2,0,0,0-.74-1.58,2.9,2.9,0,0,0-2-.66,2.75,2.75,0,0,0-1.93.65,2.13,2.13,0,0,0-.7,1.64,2.24,2.24,0,0,0,.7,1.67A2.54,2.54,0,0,0,813.92,434.66Z"/><path class="cls-12" d="M810.12,423.94l-2.25.4h-1.93v-1.66h1.93l2.25.39Zm0,2.67-2.25.4h-1.93v-1.65h1.93l2.25.36Z"/><path class="cls-12" d="M821.22,420v1a14.51,14.51,0,0,0-7.74-2.41,13.37,13.37,0,0,0-3,.35,13.12,13.12,0,0,0-2.32.76,25.9,25.9,0,0,0-2.41,1.3v-1a15.59,15.59,0,0,1,4-2.24,11.13,11.13,0,0,1,7.88.21A15,15,0,0,1,821.22,420Z"/><path class="cls-12" d="M858,475v1.45h-9.24a7.48,7.48,0,0,1,1,1.38,10.06,10.06,0,0,1,.75,1.52h-1.4a8.94,8.94,0,0,0-1.39-2.12,5.34,5.34,0,0,0-1.58-1.29V475Z"/><path class="cls-12" d="M858,466.64h-2.83v5.12h-1.33l-7.65-5.38v-1.19h7.65V463.6h1.33v1.59H858Zm-4.16,0h-5.32l5.32,3.7Z"/><path class="cls-12" d="M849.08,454.59l.11,1.44a2.71,2.71,0,0,0-1.24.55,1.92,1.92,0,0,0-.62,1.45,2,2,0,0,0,.39,1.22,3.39,3.39,0,0,0,1.46,1.08,7.92,7.92,0,0,0,2.73.41,3.45,3.45,0,0,1-1.19-1.28,3.58,3.58,0,0,1-.38-1.59,3.26,3.26,0,0,1,1.07-2.47,3.83,3.83,0,0,1,2.76-1,4.52,4.52,0,0,1,2.06.48,3.47,3.47,0,0,1,1.46,1.32,3.58,3.58,0,0,1,.51,1.9,3.69,3.69,0,0,1-1.33,2.95c-.89.77-2.36,1.15-4.4,1.15q-3.42,0-5-1.27a3.6,3.6,0,0,1-1.36-3,3.16,3.16,0,0,1,2.94-3.35Zm5.09,5.92a3.43,3.43,0,0,0,1.44-.32,2.4,2.4,0,0,0,1-.89,2.21,2.21,0,0,0,.36-1.2,2.06,2.06,0,0,0-.74-1.58,2.94,2.94,0,0,0-2-.66,2.76,2.76,0,0,0-1.93.65,2.16,2.16,0,0,0-.7,1.65,2.25,2.25,0,0,0,.7,1.67A2.57,2.57,0,0,0,854.17,460.51Z"/><path class="cls-12" d="M858,452.12h-1.65v-1.65H858Z"/><path class="cls-12" d="M852.17,448.35a10.79,10.79,0,0,1-3.37-.43,4.16,4.16,0,0,1-2-1.28,3.27,3.27,0,0,1-.69-2.14,3.51,3.51,0,0,1,.38-1.66,3.24,3.24,0,0,1,1.11-1.19,6,6,0,0,1,1.75-.73,11.49,11.49,0,0,1,2.79-.27,11,11,0,0,1,3.36.43,4.18,4.18,0,0,1,2,1.28,3.22,3.22,0,0,1,.7,2.14,3.27,3.27,0,0,1-1.22,2.69A7.89,7.89,0,0,1,852.17,448.35Zm0-1.49c1.94,0,3.23-.22,3.88-.68a1.94,1.94,0,0,0,0-3.36,11.35,11.35,0,0,0-7.74,0,2,2,0,0,0-1,1.7,1.85,1.85,0,0,0,.85,1.6A7.59,7.59,0,0,0,852.17,446.86Z"/><path class="cls-12" d="M854.91,439.18l-.13-1.52a2.77,2.77,0,0,0,1.67-.79,2.13,2.13,0,0,0,.56-1.48,2.33,2.33,0,0,0-.79-1.78,3,3,0,0,0-2.1-.72,2.68,2.68,0,0,0-2,.69,2.45,2.45,0,0,0-.72,1.83,2.51,2.51,0,0,0,.32,1.26,2.44,2.44,0,0,0,.82.89l-.17,1.36-6.07-1.14v-5.87h1.39v4.71l3.17.63a3.84,3.84,0,0,1-.74-2.23,3.55,3.55,0,0,1,1.07-2.61,3.75,3.75,0,0,1,2.76-1.06,4.33,4.33,0,0,1,2.77.93,3.78,3.78,0,0,1,1.43,3.11,3.83,3.83,0,0,1-.9,2.63A3.53,3.53,0,0,1,854.91,439.18Z"/><path class="cls-12" d="M861.47,422.25a14.77,14.77,0,0,1-3.54,2,11.12,11.12,0,0,1-4.21.83,11,11,0,0,1-3.67-.62,15.64,15.64,0,0,1-4.06-2.24v-1c1.12.65,1.91,1.08,2.39,1.29a14,14,0,0,0,2.32.77,13.55,13.55,0,0,0,3,.35,14.6,14.6,0,0,0,7.74-2.41Z"/><path class="cls-12" d="M854.91,419.93l-.13-1.52a2.77,2.77,0,0,0,1.67-.79,2.16,2.16,0,0,0,.56-1.49,2.31,2.31,0,0,0-.79-1.77,3,3,0,0,0-2.1-.72,2.68,2.68,0,0,0-2,.69,2.45,2.45,0,0,0-.72,1.83,2.56,2.56,0,0,0,1.14,2.15l-.17,1.36-6.07-1.14v-5.88h1.39v4.72l3.17.63a3.87,3.87,0,0,1-.74-2.23,3.55,3.55,0,0,1,1.07-2.61A3.75,3.75,0,0,1,854,412.1a4.33,4.33,0,0,1,2.77.93,3.76,3.76,0,0,1,1.43,3.1,3.82,3.82,0,0,1-.9,2.63A3.54,3.54,0,0,1,854.91,419.93Z"/><path class="cls-12" d="M854.88,406.16l-.19-1.45a3.19,3.19,0,0,0,1.77-.85,2.07,2.07,0,0,0,.55-1.46,2.36,2.36,0,0,0-.71-1.73,2.39,2.39,0,0,0-1.76-.7,2.19,2.19,0,0,0-1.64.65,2.22,2.22,0,0,0-.65,1.66,4.05,4.05,0,0,0,.16,1l-1.27-.16a2.11,2.11,0,0,0,0-.23,3,3,0,0,0-.48-1.67,1.64,1.64,0,0,0-1.49-.74,1.76,1.76,0,0,0-1.32.54,1.91,1.91,0,0,0-.53,1.39,2,2,0,0,0,.54,1.41,2.63,2.63,0,0,0,1.59.73L849.2,406a3.76,3.76,0,0,1-2.26-1.21,3.52,3.52,0,0,1-.8-2.35,3.86,3.86,0,0,1,.42-1.78,3,3,0,0,1,1.13-1.24,2.87,2.87,0,0,1,1.52-.43,2.41,2.41,0,0,1,1.39.41,2.75,2.75,0,0,1,1,1.21,2.72,2.72,0,0,1,1-1.62,3,3,0,0,1,1.9-.58,3.45,3.45,0,0,1,2.62,1.13,4,4,0,0,1,1.08,2.85,3.72,3.72,0,0,1-.93,2.58A3.6,3.6,0,0,1,854.88,406.16Z"/><path class="cls-12" d="M858.2,397.68,846,394.25v-1.16l12.21,3.42Z"/><path class="cls-12" d="M858,387.76h-2.83v5.13h-1.33l-7.65-5.39v-1.19h7.65v-1.59h1.33v1.59H858Zm-4.16,0h-5.32l5.32,3.7Z"/><path class="cls-12" d="M850.37,380.09l-2.25.4h-1.93v-1.65h1.93l2.25.38Zm0,2.67-2.25.4h-1.93v-1.65h1.93l2.25.36Z"/><path class="cls-12" d="M861.47,376v1a14.58,14.58,0,0,0-7.74-2.4,13.36,13.36,0,0,0-3,.34,12.28,12.28,0,0,0-2.31.77c-.49.21-1.29.64-2.42,1.29v-1a15.59,15.59,0,0,1,4.06-2.23,10.76,10.76,0,0,1,3.67-.62,10.93,10.93,0,0,1,4.21.83A14.74,14.74,0,0,1,861.47,376Z"/><line class="cls-11" x1="638.26" y1="132.79" x2="559.4" y2="218.36"/><polygon class="cls-12" points="633.25 132.16 647.25 123.29 639.56 137.97 633.25 132.16"/><path class="cls-12" d="M554.51,215l-8.68-8,3.55-3.85a7,7,0,0,1,1.86-1.55,2.58,2.58,0,0,1,1.72-.2,3.35,3.35,0,0,1,1.64.84,3,3,0,0,1,1,2,4.12,4.12,0,0,1-.89,2.6,4.1,4.1,0,0,1,1.07-.3,8.48,8.48,0,0,1,2,.11l3.76.67-1.34,1.44-2.86-.51a18.35,18.35,0,0,0-2-.27,3.52,3.52,0,0,0-1.12,0,2.42,2.42,0,0,0-.71.31,5.26,5.26,0,0,0-.64.61l-1.23,1.33,3.86,3.55Zm-3.79-5.62L553,206.9a4.88,4.88,0,0,0,1-1.38,1.78,1.78,0,0,0,.1-1.15,1.89,1.89,0,0,0-.57-1,1.76,1.76,0,0,0-1.42-.49,2.79,2.79,0,0,0-1.7,1l-2.53,2.75Z"/><path class="cls-12" d="M565.87,202.67l-1,1.06-6.79-6.26a7.4,7.4,0,0,1-.2,1.69,10.41,10.41,0,0,1-.48,1.63l-1-.95a8.38,8.38,0,0,0,.43-2.51,5.55,5.55,0,0,0-.29-2l.63-.69Z"/><path class="cls-12" d="M571.26,196.82l-1,1.07-6.8-6.27a7.86,7.86,0,0,1-.19,1.69,9.12,9.12,0,0,1-.49,1.63l-1-.95a8.62,8.62,0,0,0,.42-2.5,5.38,5.38,0,0,0-.28-2l.63-.69Z"/><path class="cls-12" d="M574.33,193.49l-1.22-1.12,1.12-1.21,1.21,1.12Z"/><path class="cls-12" d="M580.58,186.7l-1,1.07-6.79-6.26a7.46,7.46,0,0,1-.2,1.69,10.41,10.41,0,0,1-.48,1.63l-1-1a8.68,8.68,0,0,0,.42-2.51,5.34,5.34,0,0,0-.29-2l.64-.69Z"/><path class="cls-12" d="M586.8,180l-1,1.06L579,174.76a7.34,7.34,0,0,1-.2,1.69,10.41,10.41,0,0,1-.48,1.63l-1-1a8.7,8.7,0,0,0,.43-2.5,5.57,5.57,0,0,0-.29-2l.63-.69Z"/><path class="cls-12" d="M596.3,174.78a14.69,14.69,0,0,1-4-.91,11,11,0,0,1-3.65-2.24,10.81,10.81,0,0,1-2.29-2.95,15.18,15.18,0,0,1-1.46-4.4l.7-.76a26.74,26.74,0,0,0,.89,2.57,12.45,12.45,0,0,0,1.18,2.14,13.33,13.33,0,0,0,2,2.31A14.48,14.48,0,0,0,597,174Z"/><path class="cls-12" d="M587.84,163.69l-1-.94,5.18-5.62.83.76a15.5,15.5,0,0,0,.83,3.81,19.67,19.67,0,0,0,1.84,4,16,16,0,0,0,2,2.61l-1,1.09a14.37,14.37,0,0,1-2.1-2.68,18,18,0,0,1-1.78-3.69,16.09,16.09,0,0,1-.86-3.62Z"/><path class="cls-12" d="M601.22,164.61l-6.66-10.79.79-.86L602,163.75Z"/><path class="cls-12" d="M608.34,156.58l-1,1.07-6.79-6.26a7.46,7.46,0,0,1-.2,1.69,10.41,10.41,0,0,1-.48,1.63l-1-1a8.68,8.68,0,0,0,.42-2.51,5.34,5.34,0,0,0-.29-2l.64-.69Z"/><path class="cls-12" d="M609.4,142.28l-.89,1.13a2.74,2.74,0,0,0-1.29-.43,1.86,1.86,0,0,0-1.43.64,1.92,1.92,0,0,0-.54,1.16,3.18,3.18,0,0,0,.34,1.78,7.41,7.41,0,0,0,1.73,2.15,3.31,3.31,0,0,1,0-1.74,3.47,3.47,0,0,1,.79-1.43,3.32,3.32,0,0,1,2.46-1.09,3.79,3.79,0,0,1,2.72,1.12,4.54,4.54,0,0,1,1.2,1.75,3.51,3.51,0,0,1,.18,2,3.6,3.6,0,0,1-.92,1.74,3.71,3.71,0,0,1-3,1.27,6.73,6.73,0,0,1-4-2.13q-2.52-2.32-2.8-4.31a3.6,3.6,0,0,1,1-3.1,3.34,3.34,0,0,1,2.12-1.15A3.3,3.3,0,0,1,609.4,142.28Zm-.27,7.8a3.32,3.32,0,0,0,1.27.74,2.39,2.39,0,0,0,1.37.05,2.19,2.19,0,0,0,1.08-.64,2.07,2.07,0,0,0,.53-1.66,2.91,2.91,0,0,0-1-1.85,2.75,2.75,0,0,0-1.86-.83,2.16,2.16,0,0,0-1.63.73,2.24,2.24,0,0,0-.61,1.71A2.51,2.51,0,0,0,609.13,150.08Z"/><path class="cls-12" d="M611.79,141.59l-1.92-1.23-1.43-1.31,1.12-1.21,1.42,1.31,1.41,1.79Zm1.81-2-1.92-1.23-1.42-1.31,1.12-1.22,1.42,1.31,1.39,1.81Z"/><path class="cls-12" d="M624.52,144.16l-.71.76a14.48,14.48,0,0,0-4.06-7,12.62,12.62,0,0,0-2.44-1.78,12,12,0,0,0-2.23-1,23.93,23.93,0,0,0-2.65-.69l.7-.76a15.62,15.62,0,0,1,4.51,1.1,11.18,11.18,0,0,1,5.65,5.5A15.32,15.32,0,0,1,624.52,144.16Z"/><path class="cls-12" d="M352.69,243.53l-4.15-11.06,4.9-1.84a6.85,6.85,0,0,1,2.36-.54,2.65,2.65,0,0,1,1.63.59,3.44,3.44,0,0,1,1.08,1.49,2.93,2.93,0,0,1,0,2.27,4.08,4.08,0,0,1-2,1.91,4.33,4.33,0,0,1,1.09.22,7.88,7.88,0,0,1,1.76,1l3.05,2.29-1.84.69-2.32-1.76c-.68-.5-1.22-.87-1.63-1.12a3.56,3.56,0,0,0-1-.46,2.32,2.32,0,0,0-.78,0,4.23,4.23,0,0,0-.83.26l-1.7.63,1.84,4.91Zm-.86-6.73,3.15-1.18a4.93,4.93,0,0,0,1.49-.79,1.8,1.8,0,0,0,.61-1,1.88,1.88,0,0,0-.08-1.1,1.76,1.76,0,0,0-1.05-1.08,2.92,2.92,0,0,0-2,.17l-3.5,1.32Z"/><path class="cls-12" d="M362.18,236.64l1.29-.69a3.18,3.18,0,0,0,1.42,1.36,2.1,2.1,0,0,0,1.56,0,2.41,2.41,0,0,0,1.41-3.16,2.2,2.2,0,0,0-1.19-1.32,2.24,2.24,0,0,0-1.78,0,3.55,3.55,0,0,0-.9.51l-.3-1.25a1.63,1.63,0,0,0,.23-.07,3,3,0,0,0,1.39-1,1.68,1.68,0,0,0,.17-1.66,1.77,1.77,0,0,0-1-1.05,1.92,1.92,0,0,0-1.49,0,2,2,0,0,0-1.13,1,2.65,2.65,0,0,0-.12,1.75l-1.45.27a3.71,3.71,0,0,1,.34-2.54,3.51,3.51,0,0,1,1.91-1.57,3.79,3.79,0,0,1,1.81-.24,3.09,3.09,0,0,1,1.57.62,2.87,2.87,0,0,1,.93,1.28,2.48,2.48,0,0,1,.11,1.45,2.81,2.81,0,0,1-.79,1.36,2.72,2.72,0,0,1,1.88.37,3,3,0,0,1,1.21,1.58,3.46,3.46,0,0,1-.14,2.85,3.94,3.94,0,0,1-2.29,2,3.66,3.66,0,0,1-2.74,0A3.54,3.54,0,0,1,362.18,236.64Z"/><path class="cls-12" d="M372.62,236.06l-.58-1.55,1.54-.58.58,1.55Z"/><path class="cls-12" d="M381.26,232.81l-1.35.51-3.25-8.65a7.75,7.75,0,0,1-.93,1.42,11.11,11.11,0,0,1-1.17,1.24l-.49-1.32a8.92,8.92,0,0,0,1.5-2,5.29,5.29,0,0,0,.65-1.93l.88-.33Z"/><path class="cls-12" d="M381.22,221.87l-.49-1.31,7.16-2.68.4,1.05a16.55,16.55,0,0,0-1,3.77,19.53,19.53,0,0,0-.16,4.44,15.39,15.39,0,0,0,.62,3.23l-1.39.52a13.71,13.71,0,0,1-.67-3.34,17.5,17.5,0,0,1,.06-4.09,16.67,16.67,0,0,1,.87-3.63Z"/><path class="cls-12" d="M401.81,228.81a14.41,14.41,0,0,1-3.14-2.6,11,11,0,0,1-2.26-3.65,11.11,11.11,0,0,1-.71-3.66,15.69,15.69,0,0,1,.67-4.59l1-.36c-.22,1.27-.34,2.17-.37,2.69a12.59,12.59,0,0,0,.09,2.45,13.42,13.42,0,0,0,.74,2.95,14.5,14.5,0,0,0,5,6.4Z"/><path class="cls-12" d="M407.88,222.83l-1.36.51-3.24-8.65a7.82,7.82,0,0,1-.94,1.41,8.93,8.93,0,0,1-1.17,1.24l-.49-1.31a8.53,8.53,0,0,0,1.51-2.05,5.62,5.62,0,0,0,.65-1.93l.87-.32Z"/><path class="cls-12" d="M410.78,222l-1.08-12.63,1.08-.41,1.1,12.63Z"/><path class="cls-12" d="M415.49,213.13a2.71,2.71,0,0,1-1.59-.41,2.5,2.5,0,0,1-.92-1.22,2.84,2.84,0,0,1,.11-2.35,3.89,3.89,0,0,1,4.64-1.72,2.9,2.9,0,0,1,1.65,1.71,2.4,2.4,0,0,1,.1,1.49,2.69,2.69,0,0,1-.9,1.34,3.21,3.21,0,0,1,2,.49,3.14,3.14,0,0,1,1.19,1.57,3.38,3.38,0,0,1-.11,2.75,4.36,4.36,0,0,1-5.28,2,3.41,3.41,0,0,1-1.91-2,3.13,3.13,0,0,1-.13-2A2.93,2.93,0,0,1,415.49,213.13Zm-1.14-2.2a1.87,1.87,0,0,0,1,1.1,2,2,0,0,0,1.5,0,1.87,1.87,0,0,0,1.1-1,1.75,1.75,0,0,0,0-1.4,1.82,1.82,0,0,0-1-1.07,1.94,1.94,0,0,0-1.48,0,1.85,1.85,0,0,0-1.1,1A1.71,1.71,0,0,0,414.35,210.93Zm1.48,5.28a2.67,2.67,0,0,0,.7,1,2,2,0,0,0,1.13.53,2.54,2.54,0,0,0,1.28-.14,2.31,2.31,0,0,0,1.41-3.06,2.35,2.35,0,0,0-3.14-1.4,2.3,2.3,0,0,0-1.34,1.23A2.25,2.25,0,0,0,415.83,216.21Z"/><path class="cls-12" d="M422,209.38l-1.17-2-.68-1.81,1.55-.58.68,1.81.45,2.23Zm2.5-.94-1.16-2-.68-1.81,1.54-.58.68,1.81.43,2.24Z"/><path class="cls-12" d="M432.2,217.41l-1,.36a14.57,14.57,0,0,0-.46-8.09,13.67,13.67,0,0,0-1.38-2.69,12.5,12.5,0,0,0-1.54-1.91,24.73,24.73,0,0,0-2.06-1.8l1-.37a15.57,15.57,0,0,1,3.53,3,11.05,11.05,0,0,1,1.87,3.23,10.81,10.81,0,0,1,.69,4.23A14.59,14.59,0,0,1,432.2,217.41Z"/><line class="cls-11" x1="406.9" y1="312.61" x2="303.27" y2="390.07"/><polygon class="cls-12" points="402.1 311.07 417.48 304.92 407.23 317.94 402.1 311.07"/><path class="cls-12" d="M301.67,384.63l-7.07-9.46,4.2-3.14a6.91,6.91,0,0,1,2.11-1.18,2.56,2.56,0,0,1,1.72.12,3.3,3.3,0,0,1,1.46,1.13,2.93,2.93,0,0,1,.62,2.18,4.06,4.06,0,0,1-1.36,2.38,4.24,4.24,0,0,1,1.11-.09,7.9,7.9,0,0,1,2,.48L310,378.4l-1.58,1.17-2.72-1c-.79-.29-1.42-.5-1.88-.63a3.59,3.59,0,0,0-1.1-.15,2.29,2.29,0,0,0-.76.17,4.81,4.81,0,0,0-.73.48l-1.46,1.08,3.14,4.2Zm-2.7-6.22,2.7-2a5,5,0,0,0,1.2-1.18,1.82,1.82,0,0,0,.32-1.12,2,2,0,0,0-.39-1,1.76,1.76,0,0,0-1.31-.74,2.9,2.9,0,0,0-1.86.72l-3,2.24Z"/><path class="cls-12" d="M315,374.69l-1.17.87-5.53-7.4a7,7,0,0,1-.5,1.62,9.71,9.71,0,0,1-.77,1.52l-.84-1.13a8.69,8.69,0,0,0,.87-2.38,5.58,5.58,0,0,0,.09-2l.75-.56Z"/><path class="cls-12" d="M316.34,370.25l1-.93a2.48,2.48,0,0,0,1.4.73,1.86,1.86,0,0,0,1.29-.41,2.22,2.22,0,0,0,.76-.95,2.6,2.6,0,0,0,.17-1.15,4.89,4.89,0,0,0-.4-1.43,7.45,7.45,0,0,0-.88-1.55l-.18-.22a3.37,3.37,0,0,1-.28,1.61,3.22,3.22,0,0,1-1.05,1.32,3.26,3.26,0,0,1-2.63.63,3.89,3.89,0,0,1-2.49-1.63,4,4,0,0,1-.88-2.95,3.56,3.56,0,0,1,1.47-2.47,3.79,3.79,0,0,1,4.28-.22,8.9,8.9,0,0,1,2.39,2.37,10.78,10.78,0,0,1,1.76,3.18,4.23,4.23,0,0,1,.05,2.51,3.76,3.76,0,0,1-1.4,1.92,3.13,3.13,0,0,1-4.42-.36Zm1.64-7.73a2.88,2.88,0,0,0-1.72-1.19,2.12,2.12,0,0,0-1.72.37,2.22,2.22,0,0,0-.87,1.64,2.88,2.88,0,0,0,.65,2.07,2.46,2.46,0,0,0,1.64,1.06,2.23,2.23,0,0,0,1.77-.44,2.18,2.18,0,0,0,.9-1.55A2.76,2.76,0,0,0,318,362.52Z"/><path class="cls-12" d="M325.67,366.69l-1-1.32,1.33-1,1,1.32Z"/><path class="cls-12" d="M325.08,359.86a10.67,10.67,0,0,1-1.68-2.95,4.18,4.18,0,0,1-.15-2.35,3.25,3.25,0,0,1,1.3-1.83,3.48,3.48,0,0,1,1.56-.69,3.08,3.08,0,0,1,1.61.17,5.92,5.92,0,0,1,1.64,1,11.41,11.41,0,0,1,1.88,2.07,10.86,10.86,0,0,1,1.67,2.95,4.24,4.24,0,0,1,.16,2.34,3.33,3.33,0,0,1-1.3,1.85,3.25,3.25,0,0,1-2.89.62Q327.07,362.53,325.08,359.86Zm1.19-.89a7.42,7.42,0,0,0,2.86,2.7,2,2,0,0,0,2.69-2c0-.79-.61-1.95-1.77-3.5a7.41,7.41,0,0,0-2.86-2.7,2,2,0,0,0-1.94.25,1.86,1.86,0,0,0-.77,1.63A7.47,7.47,0,0,0,326.27,359Z"/><path class="cls-12" d="M333.93,356.66l1.14-1a2.8,2.8,0,0,0,1.63.87,2.12,2.12,0,0,0,1.52-.45,2.29,2.29,0,0,0,.95-1.69,3,3,0,0,0-.67-2.11,2.69,2.69,0,0,0-1.73-1.15,2.41,2.41,0,0,0-1.89.52,2.51,2.51,0,0,0-.83,1,2.49,2.49,0,0,0-.21,1.19l-1.2.67L329.93,349l4.7-3.52.83,1.11-3.77,2.83,1.39,2.92a3.82,3.82,0,0,1,1.34-1.93,3.56,3.56,0,0,1,2.73-.71,3.75,3.75,0,0,1,2.5,1.58,4.24,4.24,0,0,1,.91,2.77,3.73,3.73,0,0,1-1.62,3,3.81,3.81,0,0,1-2.65.85A3.49,3.49,0,0,1,333.93,356.66Z"/><path class="cls-12" d="M351.15,352a14.28,14.28,0,0,1-3.74-1.63,10.82,10.82,0,0,1-3.19-2.87,11.07,11.07,0,0,1-1.7-3.31,15.39,15.39,0,0,1-.64-4.59l.84-.62c.15,1.28.28,2.17.4,2.68a12.14,12.14,0,0,0,.77,2.32,13.07,13.07,0,0,0,1.53,2.64,14.62,14.62,0,0,0,6.57,4.76Z"/><path class="cls-12" d="M348.94,345.41l1.05-1a3.16,3.16,0,0,0,1.74.92,2.13,2.13,0,0,0,1.5-.44,2.41,2.41,0,0,0,.47-3.43,2.18,2.18,0,0,0-1.51-.93,2.23,2.23,0,0,0-1.71.47,4.26,4.26,0,0,0-.73.74l-.63-1.11.2-.13a3,3,0,0,0,1-1.38,1.62,1.62,0,0,0-.3-1.64,1.75,1.75,0,0,0-1.22-.74,2.13,2.13,0,0,0-2.24,1.69,2.7,2.7,0,0,0,.37,1.71l-1.31.66a3.74,3.74,0,0,1-.39-2.53,3.51,3.51,0,0,1,1.4-2.05,3.93,3.93,0,0,1,1.68-.73,2.94,2.94,0,0,1,1.67.16,2.88,2.88,0,0,1,1.26,1,2.51,2.51,0,0,1,.5,1.36,2.83,2.83,0,0,1-.37,1.53,2.75,2.75,0,0,1,1.9-.17,3.12,3.12,0,0,1,1.61,1.18,3.52,3.52,0,0,1,.66,2.77,4,4,0,0,1-1.64,2.57,3.73,3.73,0,0,1-2.62.81A3.66,3.66,0,0,1,348.94,345.41Z"/><path class="cls-12" d="M357.59,343.09,353,331.26l.93-.7,4.58,11.83Z"/><path class="cls-12" d="M365.28,337.09l-1.69-2.27-4.1,3.07-.8-1.06-.26-9.36.94-.71,4.59,6.13,1.27-.95L366,333l-1.28,1,1.69,2.26Zm-2.49-3.33-3.18-4.27.22,6.48Z"/><path class="cls-12" d="M364.59,328.08l-1.67-1.56L361.76,325l1.33-1,1.15,1.55,1.06,2Zm2.13-1.6-1.66-1.56-1.15-1.55,1.32-1,1.16,1.55,1,2Z"/><path class="cls-12" d="M376.5,333l-.84.62A14.54,14.54,0,0,0,373,326a13.53,13.53,0,0,0-2.08-2.2,12.4,12.4,0,0,0-2-1.4c-.46-.26-1.29-.65-2.49-1.16l.84-.62a15.29,15.29,0,0,1,4.22,1.91,11.15,11.15,0,0,1,2.7,2.57A11,11,0,0,1,376,329,15.06,15.06,0,0,1,376.5,333Z"/><path class="cls-12" d="M459,135.69l11.78-.86.38,5.22a7,7,0,0,1-.14,2.42,2.57,2.57,0,0,1-1,1.39,3.33,3.33,0,0,1-1.74.62,3,3,0,0,1-2.17-.66,4,4,0,0,1-1.27-2.42,4.16,4.16,0,0,1-.52,1,8.28,8.28,0,0,1-1.47,1.41l-3.06,2.28-.14-2,2.33-1.74a19.15,19.15,0,0,0,1.54-1.24,3.21,3.21,0,0,0,.73-.85,2.41,2.41,0,0,0,.27-.73,5.13,5.13,0,0,0,0-.87l-.13-1.81-5.23.38Zm6.7,1.08.24,3.35a5.14,5.14,0,0,0,.34,1.65,1.8,1.8,0,0,0,.78.87,2,2,0,0,0,1.08.24,1.81,1.81,0,0,0,1.33-.71,2.81,2.81,0,0,0,.39-2l-.27-3.73Z"/><path class="cls-12" d="M462.93,146.58l.3,1.43a3.11,3.11,0,0,0-1.71,1,2,2,0,0,0-.43,1.49,2.35,2.35,0,0,0,.83,1.68,2.4,2.4,0,0,0,1.8.57,2.21,2.21,0,0,0,1.6-.77,2.25,2.25,0,0,0,.52-1.7,3.93,3.93,0,0,0-.23-1l1.28.07a.88.88,0,0,0,0,.23,3,3,0,0,0,.6,1.63,1.65,1.65,0,0,0,1.54.63,1.78,1.78,0,0,0,1.28-.63,2.14,2.14,0,0,0-.21-2.8,2.69,2.69,0,0,0-1.64-.61l.15-1.46a3.69,3.69,0,0,1,2.34,1,3.51,3.51,0,0,1,1,2.28,3.76,3.76,0,0,1-.29,1.8,2.93,2.93,0,0,1-2.52,1.87,2.58,2.58,0,0,1-1.42-.31,2.8,2.8,0,0,1-1.09-1.14,2.66,2.66,0,0,1-.88,1.69,2.94,2.94,0,0,1-1.85.72,3.46,3.46,0,0,1-2.7-.93,4,4,0,0,1-1.28-2.77,3.72,3.72,0,0,1,.73-2.64A3.6,3.6,0,0,1,462.93,146.58Z"/><path class="cls-12" d="M463.57,155.55l.24,1.51a2.73,2.73,0,0,0-1.61.91,2,2,0,0,0-.45,1.52,2.29,2.29,0,0,0,.91,1.71,3,3,0,0,0,2.14.57,2.71,2.71,0,0,0,1.91-.84,2.46,2.46,0,0,0,.58-1.87,2.61,2.61,0,0,0-.41-1.24A2.48,2.48,0,0,0,466,157l.08-1.37,6.13.7.43,5.86-1.38.1-.35-4.71-3.21-.4a3.77,3.77,0,0,1,.9,2.17,3.47,3.47,0,0,1-.88,2.68,3.75,3.75,0,0,1-2.66,1.27,4.4,4.4,0,0,1-2.84-.73,4.17,4.17,0,0,1-.94-5.68A3.49,3.49,0,0,1,463.57,155.55Z"/><path class="cls-12" d="M464.22,164.54l.24,1.51a2.76,2.76,0,0,0-1.61.9,2.16,2.16,0,0,0-.45,1.52,2.34,2.34,0,0,0,.92,1.72,3,3,0,0,0,2.14.56,2.7,2.7,0,0,0,1.9-.83,2.39,2.39,0,0,0,.58-1.87,2.57,2.57,0,0,0-.4-1.24,2.51,2.51,0,0,0-.89-.83l.07-1.37,6.14.7.43,5.86-1.39.1-.34-4.7-3.21-.4a3.88,3.88,0,0,1,.9,2.17,3.52,3.52,0,0,1-.88,2.68,3.73,3.73,0,0,1-2.67,1.26,4.32,4.32,0,0,1-2.83-.73,3.76,3.76,0,0,1-1.66-3,3.87,3.87,0,0,1,.71-2.69A3.53,3.53,0,0,1,464.22,164.54Z"/><path class="cls-12" d="M461.85,174.56l1.65-.12.12,1.64-1.65.12Z"/><path class="cls-12" d="M471.57,185.17l-.22-1.43a2.68,2.68,0,0,0,1.2-.64,1.92,1.92,0,0,0,.51-1.49,2,2,0,0,0-.47-1.18,3.3,3.3,0,0,0-1.54-1,7.39,7.39,0,0,0-2.75-.21,3.35,3.35,0,0,1,1.28,1.19,3.46,3.46,0,0,1,.5,1.55,3.29,3.29,0,0,1-.89,2.54,3.82,3.82,0,0,1-2.68,1.22,4.37,4.37,0,0,1-2.09-.33,3.5,3.5,0,0,1-1.56-1.2,3.92,3.92,0,0,1,.47-4.91,6.8,6.8,0,0,1,4.3-1.46q3.42-.25,5.06.9a3.64,3.64,0,0,1,1.57,2.86,3.37,3.37,0,0,1-.62,2.34A3.26,3.26,0,0,1,471.57,185.17Zm-5.51-5.53a3.21,3.21,0,0,0-1.41.42,2.3,2.3,0,0,0-1,1,2.26,2.26,0,0,0-.27,1.23,2.05,2.05,0,0,0,.85,1.52,3,3,0,0,0,2.06.51,2.7,2.7,0,0,0,1.87-.79,2.13,2.13,0,0,0,.59-1.69,2.21,2.21,0,0,0-.83-1.61A2.48,2.48,0,0,0,466.06,179.64Z"/><path class="cls-12" d="M459.88,195.13a14.29,14.29,0,0,1,3.38-2.28,11.08,11.08,0,0,1,7.84-.79,15.7,15.7,0,0,1,4.22,1.94l.07,1a25.71,25.71,0,0,0-2.48-1.11,12.49,12.49,0,0,0-2.37-.61,14.1,14.1,0,0,0-3-.12,14.54,14.54,0,0,0-7.55,3Z"/><path class="cls-12" d="M463.9,202.64l-.1-1.45,9.21-.67a8,8,0,0,1-1.09-1.3,9.18,9.18,0,0,1-.86-1.47l1.4-.1a9,9,0,0,0,1.53,2,5.44,5.44,0,0,0,1.67,1.17l.07.93Z"/><path class="cls-12" d="M464.48,210.5l2.82-.2-.38-5.11,1.33-.1,8,4.82.08,1.18-7.63.55.12,1.6-1.33.09-.12-1.59-2.82.21Zm4.14-.3,5.32-.39-5.59-3.3Z"/><path class="cls-12" d="M472.44,214.77l2.21-.57,1.93-.14.12,1.65-1.93.14-2.27-.2Zm.19,2.66,2.22-.56,1.93-.14.12,1.65-1.93.14-2.27-.23Z"/><path class="cls-12" d="M461.85,222.13l-.08-1a14.56,14.56,0,0,0,7.9,1.84,13.09,13.09,0,0,0,3-.56,13.62,13.62,0,0,0,2.26-.94,24,24,0,0,0,2.31-1.47l.08,1a15.56,15.56,0,0,1-3.89,2.53,11,11,0,0,1-7.87.36A14.77,14.77,0,0,1,461.85,222.13Z"/><line class="cls-11" x1="337.25" y1="254.58" x2="436.43" y2="218.36"/><polygon class="cls-12" points="341.4 257.44 324.9 258.9 338.46 249.38 341.4 257.44"/><line class="cls-11" x1="397.11" y1="599.42" x2="289.37" y2="527.78"/><polygon class="cls-12" points="396.95 594.38 407.9 606.81 392.2 601.52 396.95 594.38"/><path class="cls-12" d="M294.33,523l6.54-9.84,4.36,2.9a7.22,7.22,0,0,1,1.82,1.6,2.57,2.57,0,0,1,.47,1.66A3.34,3.34,0,0,1,307,521a3,3,0,0,1-1.86,1.31,4.06,4.06,0,0,1-2.69-.48,4,4,0,0,1,.45,1,8,8,0,0,1,.21,2l-.07,3.81-1.63-1.09.06-2.91c0-.84,0-1.5,0-2a3.71,3.71,0,0,0-.22-1.1,2.51,2.51,0,0,0-.42-.65,4.51,4.51,0,0,0-.7-.53l-1.51-1-2.9,4.36Zm4.95-4.63,2.8,1.86a5.19,5.19,0,0,0,1.52.74,1.76,1.76,0,0,0,1.16-.08,1.87,1.87,0,0,0,.84-.71,1.74,1.74,0,0,0,.26-1.48,2.84,2.84,0,0,0-1.3-1.51l-3.11-2.07Z"/><path class="cls-12" d="M308.15,532.14l-1.21-.81,5.12-7.69a7.59,7.59,0,0,1-1.7.07,10.26,10.26,0,0,1-1.69-.22l.78-1.17a9,9,0,0,0,2.54,0,5.62,5.62,0,0,0,1.94-.6l.78.51Z"/><path class="cls-12" d="M312.93,532l1.23.66a2.42,2.42,0,0,0-.22,1.57,1.78,1.78,0,0,0,.82,1.07,2.21,2.21,0,0,0,1.14.4,2.51,2.51,0,0,0,1.14-.23,4.45,4.45,0,0,0,1.22-.85,7.13,7.13,0,0,0,1.16-1.35l.15-.25a3.21,3.21,0,0,1-1.61.28,3.13,3.13,0,0,1-1.59-.55,3.27,3.27,0,0,1-1.48-2.25,3.87,3.87,0,0,1,.71-2.9,4,4,0,0,1,2.48-1.82,3.54,3.54,0,0,1,2.82.56,3.72,3.72,0,0,1,1.41,1.68,3.94,3.94,0,0,1,.23,2.27,8.85,8.85,0,0,1-1.43,3,10.8,10.8,0,0,1-2.41,2.72,4.26,4.26,0,0,1-2.35.9,3.8,3.8,0,0,1-2.28-.68,3.12,3.12,0,0,1-1.14-4.28Zm7.83-1a2.85,2.85,0,0,0,.54-2,2.07,2.07,0,0,0-.92-1.5,2.25,2.25,0,0,0-1.84-.27,2.92,2.92,0,0,0-1.73,1.3,2.52,2.52,0,0,0-.45,1.91,2.24,2.24,0,0,0,1,1.51,2.1,2.1,0,0,0,1.77.33A2.76,2.76,0,0,0,320.76,531Z"/><path class="cls-12" d="M319.55,539.72l.92-1.37,1.37.91-.91,1.38Z"/><path class="cls-12" d="M325.92,537a10.81,10.81,0,0,1,2.22-2.57,4.25,4.25,0,0,1,2.16-.93,3.28,3.28,0,0,1,2.17.61,3.52,3.52,0,0,1,1.17,1.24,3.24,3.24,0,0,1,.38,1.58,6.21,6.21,0,0,1-.36,1.87,12.11,12.11,0,0,1-1.33,2.47,11.14,11.14,0,0,1-2.21,2.56,4.26,4.26,0,0,1-2.16.93,3.28,3.28,0,0,1-2.17-.61,3.23,3.23,0,0,1-1.56-2.5Q324.08,539.74,325.92,537Zm1.24.83a7.45,7.45,0,0,0-1.58,3.6,2,2,0,0,0,.87,1.73,2,2,0,0,0,1.93.12c.74-.28,1.64-1.23,2.71-2.84a7.42,7.42,0,0,0,1.58-3.6,2,2,0,0,0-.88-1.74,1.86,1.86,0,0,0-1.8-.18A7.53,7.53,0,0,0,327.16,537.79Z"/><path class="cls-12" d="M332.05,544.32l1.34.73a2.69,2.69,0,0,0-.27,1.83,2.1,2.1,0,0,0,.92,1.29,2.31,2.31,0,0,0,1.92.32,3,3,0,0,0,1.76-1.34,2.69,2.69,0,0,0,.5-2,2.39,2.39,0,0,0-1.12-1.6,2.51,2.51,0,0,0-1.23-.44,2.48,2.48,0,0,0-1.19.2l-1-.9L338,538l4.89,3.25-.76,1.16-3.93-2.61-2.29,2.29a3.77,3.77,0,0,1,2.27.62,3.51,3.51,0,0,1,1.58,2.33,3.75,3.75,0,0,1-.64,2.89,4.32,4.32,0,0,1-2.31,1.79,3.76,3.76,0,0,1-3.38-.53,3.81,3.81,0,0,1-1.69-2.21A3.52,3.52,0,0,1,332.05,544.32Z"/><path class="cls-12" d="M342.51,559.16a14.4,14.4,0,0,1,.27-4.08,11.13,11.13,0,0,1,1.64-4,11,11,0,0,1,2.55-2.71,15.62,15.62,0,0,1,4.11-2.14l.87.57c-1.16.58-2,1-2.4,1.28a13.78,13.78,0,0,0-1.93,1.51,12.82,12.82,0,0,0-2,2.33,14.52,14.52,0,0,0-2.28,7.78Z"/><path class="cls-12" d="M348.1,555l1.31.65a3.15,3.15,0,0,0-.27,1.94,2.08,2.08,0,0,0,.91,1.27,2.42,2.42,0,0,0,3.39-.71,2.18,2.18,0,0,0,.37-1.73,2.24,2.24,0,0,0-1-1.46,4,4,0,0,0-.94-.43l.84-1,.18.14a3,3,0,0,0,1.66.52,1.64,1.64,0,0,0,1.44-.83,1.73,1.73,0,0,0,.28-1.4,1.89,1.89,0,0,0-.87-1.21,2,2,0,0,0-1.46-.33,2.62,2.62,0,0,0-1.49.92l-1.07-1a3.76,3.76,0,0,1,2.26-1.21,3.58,3.58,0,0,1,2.4.63,4,4,0,0,1,1.25,1.33,3.08,3.08,0,0,1,.41,1.64,2.94,2.94,0,0,1-.49,1.5,2.47,2.47,0,0,1-1.11.94,2.8,2.8,0,0,1-1.57.15,2.7,2.7,0,0,1,.8,1.74,3,3,0,0,1-.57,1.91,3.52,3.52,0,0,1-2.39,1.56,4,4,0,0,1-3-.69,3.67,3.67,0,0,1-1.63-2.2A3.55,3.55,0,0,1,348.1,555Z"/><path class="cls-12" d="M353.32,562.42l9.62-8.27,1,.64-9.61,8.28Z"/><path class="cls-12" d="M361.69,567.75l1.57-2.36L359,562.56l.74-1.11,8.72-3.39,1,.66-4.24,6.37,1.33.88-.74,1.11-1.33-.88-1.56,2.35Zm2.3-3.46,2.95-4.44-6,2.39Z"/><path class="cls-12" d="M370.08,564.17l.91-2.1,1.07-1.61,1.38.92L372.37,563l-1.55,1.67Zm2.22,1.47.92-2.09,1.07-1.61,1.37.92-1.07,1.61L373,566.12Z"/><path class="cls-12" d="M369.54,577.14l-.86-.58a14.5,14.5,0,0,0,6.29-5.11,12.86,12.86,0,0,0,1.37-2.69,12.34,12.34,0,0,0,.65-2.36c.09-.52.18-1.43.26-2.73l.87.58a15.57,15.57,0,0,1-.39,4.62,10.8,10.8,0,0,1-1.52,3.4,10.93,10.93,0,0,1-3,3A14.68,14.68,0,0,1,369.54,577.14Z"/><line class="cls-11" x1="824.47" y1="296.26" x2="824.47" y2="120.83"/><polygon class="cls-12" points="828.54 289.72 824.29 304.81 820.03 289.72 828.54 289.72"/><polygon class="cls-12" points="828.54 122.15 824.29 107.06 820.03 122.15 828.54 122.15"/><path class="cls-12" d="M818.27,258.76h-2.82v5.13h-1.33l-7.66-5.39v-1.19h7.66v-1.59h1.33v1.59h2.82Zm-4.15,0h-5.33l5.33,3.7Z"/><path class="cls-12" d="M808,254.14h-1.39V246.5h1.13a16.14,16.14,0,0,0,3.19,2.23,19.08,19.08,0,0,0,4.09,1.71,15.2,15.2,0,0,0,3.24.56v1.49a14.62,14.62,0,0,1-3.36-.55,17.76,17.76,0,0,1-3.81-1.5,16.61,16.61,0,0,1-3.09-2.08Z"/><path class="cls-12" d="M818.27,244.25h-1.65V242.6h1.65Z"/><path class="cls-12" d="M809.36,233l.11,1.44a2.82,2.82,0,0,0-1.24.54,2,2,0,0,0-.62,1.45,2,2,0,0,0,.39,1.22,3.21,3.21,0,0,0,1.45,1.08,7.68,7.68,0,0,0,2.73.41,3.35,3.35,0,0,1-1.18-1.28,3.4,3.4,0,0,1-.39-1.59,3.31,3.31,0,0,1,1.07-2.47,3.86,3.86,0,0,1,2.76-1,4.56,4.56,0,0,1,2.07.48,3.45,3.45,0,0,1,1.46,1.31,3.58,3.58,0,0,1,.51,1.9,3.72,3.72,0,0,1-1.34,3,6.74,6.74,0,0,1-4.39,1.14q-3.42,0-5-1.26a3.65,3.65,0,0,1-1.35-3,3.36,3.36,0,0,1,.78-2.29A3.29,3.29,0,0,1,809.36,233Zm5.09,5.92a3.36,3.36,0,0,0,1.43-.32,2.29,2.29,0,0,0,1-.89,2.21,2.21,0,0,0,.36-1.2,2,2,0,0,0-.74-1.58,2.9,2.9,0,0,0-2-.66,2.75,2.75,0,0,0-1.93.65,2.15,2.15,0,0,0-.71,1.64,2.24,2.24,0,0,0,.71,1.67A2.54,2.54,0,0,0,814.45,238.88Z"/><path class="cls-12" d="M816.88,223.68h1.39v7.81a2.63,2.63,0,0,1-1-.17,5.45,5.45,0,0,1-1.57-.95,14.85,14.85,0,0,1-1.79-1.9,15.83,15.83,0,0,0-2.5-2.6,3,3,0,0,0-1.75-.68,1.94,1.94,0,0,0-1.45.62,2.18,2.18,0,0,0-.59,1.6,2.27,2.27,0,0,0,.63,1.68,2.32,2.32,0,0,0,1.74.63l-.16,1.49a3.64,3.64,0,0,1-2.54-1.15,3.93,3.93,0,0,1-.87-2.68,3.74,3.74,0,0,1,.94-2.69,3.11,3.11,0,0,1,2.34-1,3.61,3.61,0,0,1,1.39.29,5.15,5.15,0,0,1,1.44,1,23.25,23.25,0,0,1,2.08,2.24,20.45,20.45,0,0,0,1.49,1.67,5.29,5.29,0,0,0,.78.62Z"/><path class="cls-12" d="M821.75,214.37a14.32,14.32,0,0,1-3.55,2,11.13,11.13,0,0,1-7.88.21,15.35,15.35,0,0,1-4.06-2.24v-1q1.68,1,2.4,1.29a12.14,12.14,0,0,0,2.32.77,13.46,13.46,0,0,0,3,.35,14.52,14.52,0,0,0,7.75-2.41Z"/><path class="cls-12" d="M818.27,206.59V208H809a7.72,7.72,0,0,1,1,1.37,8.86,8.86,0,0,1,.75,1.53h-1.4a8.88,8.88,0,0,0-1.38-2.13,5.82,5.82,0,0,0-1.58-1.29v-.93Z"/><path class="cls-12" d="M808,198.2h-1.39v-7.65h1.13a16.14,16.14,0,0,0,3.19,2.24A19.6,19.6,0,0,0,815,194.5a15.21,15.21,0,0,0,3.24.55v1.49a14,14,0,0,1-3.36-.54,17.29,17.29,0,0,1-3.81-1.51,16.13,16.13,0,0,1-3.09-2.08Z"/><path class="cls-12" d="M818.48,189.8l-12.22-3.42v-1.16l12.22,3.41Z"/><path class="cls-12" d="M811.87,182.3a2.73,2.73,0,0,1-.94,1.34,2.48,2.48,0,0,1-1.47.43,2.87,2.87,0,0,1-2.17-.92,3.92,3.92,0,0,1,0-5,2.9,2.9,0,0,1,2.18-.94,2.44,2.44,0,0,1,1.43.43,2.73,2.73,0,0,1,.94,1.31,3.2,3.2,0,0,1,1.14-1.65,3.16,3.16,0,0,1,1.89-.57,3.38,3.38,0,0,1,2.54,1.07,4.34,4.34,0,0,1,0,5.64,3.46,3.46,0,0,1-2.58,1.07,3.18,3.18,0,0,1-1.93-.58A2.94,2.94,0,0,1,811.87,182.3Zm-2.46.29a1.83,1.83,0,0,0,1.37-.54,1.88,1.88,0,0,0,.53-1.4,1.85,1.85,0,0,0-.52-1.37,1.75,1.75,0,0,0-1.3-.54,1.85,1.85,0,0,0-1.34.55,2,2,0,0,0,0,2.75A1.71,1.71,0,0,0,809.41,182.59Zm5.46.47a2.72,2.72,0,0,0,1.2-.29,2.18,2.18,0,0,0,.9-.88,2.57,2.57,0,0,0,.31-1.25,2.35,2.35,0,0,0-.66-1.71,2.49,2.49,0,0,0-3.44,0,2.39,2.39,0,0,0-.68,1.74,2.31,2.31,0,0,0,2.37,2.37Z"/><path class="cls-12" d="M810.65,172.22l-2.25.39h-1.94V171h1.94l2.25.39Zm0,2.66-2.25.41h-1.94v-1.66h1.94l2.25.37Z"/><path class="cls-12" d="M821.75,168.15v1a14.52,14.52,0,0,0-7.75-2.41,13.29,13.29,0,0,0-3,.35,12.12,12.12,0,0,0-2.32.76,27,27,0,0,0-2.42,1.3v-1a15.35,15.35,0,0,1,4.06-2.24,11.13,11.13,0,0,1,7.88.21A14.64,14.64,0,0,1,821.75,168.15Z"/><path class="cls-12" d="M330.27,492.5l.92-11.78,5.22.41a7.26,7.26,0,0,1,2.37.51,2.58,2.58,0,0,1,1.22,1.22,3.24,3.24,0,0,1,.35,1.82,3,3,0,0,1-1,2,4.15,4.15,0,0,1-2.59.9,4.18,4.18,0,0,1,.89.66,8.18,8.18,0,0,1,1.17,1.67l1.8,3.36-2-.15-1.37-2.57c-.4-.75-.73-1.31-1-1.71a3.46,3.46,0,0,0-.73-.85,2.27,2.27,0,0,0-.68-.37,5.67,5.67,0,0,0-.87-.13l-1.8-.14-.41,5.23Zm2.07-6.46,3.35.27a5.38,5.38,0,0,0,1.69-.09,1.79,1.79,0,0,0,1-.64,1.88,1.88,0,0,0,.4-1,1.79,1.79,0,0,0-.5-1.42,2.86,2.86,0,0,0-1.87-.69l-3.73-.29Z"/><path class="cls-12" d="M341.62,490.26l1.46-.08a3.29,3.29,0,0,0,.71,1.84,2.08,2.08,0,0,0,1.42.65,2.27,2.27,0,0,0,1.77-.57,2.35,2.35,0,0,0,.84-1.69,2.21,2.21,0,0,0-.52-1.7,2.25,2.25,0,0,0-1.6-.77,4,4,0,0,0-1,.08l.26-1.26.23,0a2.93,2.93,0,0,0,1.7-.35,1.62,1.62,0,0,0,.85-1.42,1.77,1.77,0,0,0-.43-1.36,1.88,1.88,0,0,0-1.35-.63,1.94,1.94,0,0,0-1.45.42,2.63,2.63,0,0,0-.84,1.53l-1.43-.37a3.68,3.68,0,0,1,1.38-2.16,3.54,3.54,0,0,1,2.4-.62,3.93,3.93,0,0,1,1.75.56,3.05,3.05,0,0,1,1.15,1.22,2.94,2.94,0,0,1,.31,1.56,2.53,2.53,0,0,1-.52,1.35,2.79,2.79,0,0,1-1.29.9,2.73,2.73,0,0,1,1.54,1.13,3,3,0,0,1,.43,1.94A3.48,3.48,0,0,1,348,493a4,4,0,0,1-2.93.85,3.72,3.72,0,0,1-2.5-1.13A3.57,3.57,0,0,1,341.62,490.26Z"/><path class="cls-12" d="M350.81,488.27a10.85,10.85,0,0,1,.69-3.33,4.2,4.2,0,0,1,1.43-1.87,3.3,3.3,0,0,1,2.19-.52,3.52,3.52,0,0,1,1.63.51,3.16,3.16,0,0,1,1.09,1.2,5.86,5.86,0,0,1,.6,1.8,11.49,11.49,0,0,1,0,2.81,10.65,10.65,0,0,1-.68,3.31,4.2,4.2,0,0,1-1.43,1.87,3.25,3.25,0,0,1-2.2.52,3.21,3.21,0,0,1-2.57-1.43C350.9,492.1,350.63,490.48,350.81,488.27Zm1.48.11c-.15,1.94,0,3.24.38,3.91a1.94,1.94,0,0,0,3.35.26,7.39,7.39,0,0,0,1-3.8c.15-1.94,0-3.24-.38-3.92a2,2,0,0,0-1.61-1.08,1.84,1.84,0,0,0-1.66.72A7.47,7.47,0,0,0,352.29,488.38Z"/><path class="cls-12" d="M364,495.14l.23-2.82-5.11-.4.1-1.33,6-7.2,1.18.09-.59,7.63,1.59.12-.11,1.33-1.59-.13-.22,2.82Zm.33-4.14.42-5.31-4.11,5Z"/><path class="cls-12" d="M369.12,495.54l.13-1.64,1.65.13-.13,1.64Z"/><path class="cls-12" d="M375.61,489.63a2.67,2.67,0,0,1-1.26-1,2.42,2.42,0,0,1-.32-1.5,2.85,2.85,0,0,1,1.09-2.09,3.91,3.91,0,0,1,4.94.41,2.94,2.94,0,0,1,.77,2.25,2.55,2.55,0,0,1-.54,1.4,2.72,2.72,0,0,1-1.38.83,3.17,3.17,0,0,1,1.56,1.27,3.22,3.22,0,0,1,.42,1.92,3.43,3.43,0,0,1-1.27,2.46,4.38,4.38,0,0,1-5.62-.45,3.44,3.44,0,0,1-.87-2.66,3.09,3.09,0,0,1,.74-1.87A2.85,2.85,0,0,1,375.61,489.63Zm-1,2.93a2.48,2.48,0,0,0,.2,1.22,2,2,0,0,0,.8,1,2.62,2.62,0,0,0,1.22.42,2.36,2.36,0,0,0,1.76-.54,2.3,2.3,0,0,0,.81-1.64,2.34,2.34,0,0,0-.56-1.78,2.42,2.42,0,0,0-1.69-.82,2.3,2.3,0,0,0-2.54,2.18Zm.89-5.4a1.88,1.88,0,0,0,.43,1.41,2.08,2.08,0,0,0,2.77.22,1.77,1.77,0,0,0,.63-1.25,1.8,1.8,0,0,0-.44-1.38,1.87,1.87,0,0,0-1.33-.65,1.92,1.92,0,0,0-1.41.42A1.71,1.71,0,0,0,375.51,487.16Z"/><path class="cls-12" d="M272.94,283.17l-.15,1.45-9.19-1a7.42,7.42,0,0,1,.85,1.48,10,10,0,0,1,.59,1.59l-1.4-.15a8.9,8.9,0,0,0-1.15-2.26,5.41,5.41,0,0,0-1.43-1.44l.09-.93Z"/><path class="cls-12" d="M270.24,279.15l0-1.47a3.18,3.18,0,0,0,1.85-.66,2,2,0,0,0,.7-1.39,2.43,2.43,0,0,0-2.2-2.68A2.2,2.2,0,0,0,268,275a3.8,3.8,0,0,0,.05,1l-1.25-.29c0-.1,0-.17,0-.23a3,3,0,0,0-.3-1.71,1.66,1.66,0,0,0-1.41-.9,1.8,1.8,0,0,0-1.37.4,2,2,0,0,0-.67,1.33,2,2,0,0,0,.38,1.46A2.71,2.71,0,0,0,265,277l-.41,1.41a3.72,3.72,0,0,1-2.11-1.44,3.5,3.5,0,0,1-.56-2.41,3.93,3.93,0,0,1,.6-1.73,3,3,0,0,1,2.82-1.39,2.48,2.48,0,0,1,1.34.56,2.84,2.84,0,0,1,.87,1.32,2.71,2.71,0,0,1,1.17-1.52,3,3,0,0,1,1.95-.37,3.45,3.45,0,0,1,2.49,1.39,4,4,0,0,1,.77,2.95,3.73,3.73,0,0,1-1.19,2.47A3.62,3.62,0,0,1,270.24,279.15Z"/><path class="cls-12" d="M264.61,269a2.13,2.13,0,0,1-1.5-.81,2.18,2.18,0,0,1-.48-1.64,2.15,2.15,0,0,1,.82-1.51,2.09,2.09,0,0,1,1.63-.48,2.15,2.15,0,0,1,1.51.82,2.22,2.22,0,0,1-.33,3.14A2.14,2.14,0,0,1,264.61,269Zm.1-.87a1.34,1.34,0,0,0,1.49-1.21,1.31,1.31,0,0,0-.29-1,1.33,1.33,0,0,0-.92-.5,1.31,1.31,0,0,0-1,.3,1.26,1.26,0,0,0-.49.9,1.36,1.36,0,0,0,1.21,1.5Z"/><path class="cls-12" d="M295,630.26v0l1.27,1.7-1.06.44-1.58-2.13-.18-1.23,10.6-1.57.21,1.39Z"/><path class="cls-12" d="M301.84,623.7a4.85,4.85,0,0,0,.32-2.45c-.27-1.85-1.53-2.24-2.41-2.09-1.48.23-1.92,1.66-1.71,3.05l.12.8-1.08.16-.12-.8c-.16-1-.89-2.28-2.15-2.1a1.62,1.62,0,0,0-1.32,2.1,3.94,3.94,0,0,0,1,2l-1,.53a5.12,5.12,0,0,1-1.23-2.66c-.31-2.08.79-3.22,2.08-3.41a2.68,2.68,0,0,1,2.79,1.59h0a2.79,2.79,0,0,1,2.37-2.77c1.7-.26,3.38.84,3.76,3.39a5.35,5.35,0,0,1-.31,2.86Z"/><path class="cls-12" d="M292.66,612.87a2.17,2.17,0,0,1,2.51,1.86,2.1,2.1,0,0,1-1.78,2.45,2.18,2.18,0,0,1-2.53-1.84A2.1,2.1,0,0,1,292.66,612.87Zm.6,3.43a1.31,1.31,0,0,0,1.15-1.47,1.34,1.34,0,0,0-1.6-1.08,1.3,1.3,0,0,0-1.18,1.49A1.34,1.34,0,0,0,293.26,616.3Z"/><g class="cls-4"><path class="cls-12" d="M705.1,421.64l4.57-6.15-4-5.66h1.86l2.14,3a15.83,15.83,0,0,1,1,1.45c.27-.43.58-.87.94-1.34l2.37-3.14h1.7l-4.15,5.57,4.48,6.24H714l-3-4.21c-.17-.24-.34-.5-.52-.79-.26.43-.45.73-.56.89l-3,4.11Z"/><path class="cls-12" d="M134.06,421.64l4.57-6.15-4-5.66h1.86l2.14,3c.45.63.77,1.12,1,1.45a14.93,14.93,0,0,1,.93-1.34l2.38-3.14h1.69l-4.14,5.57,4.47,6.24H143l-3-4.21c-.16-.24-.34-.5-.51-.79-.27.43-.46.73-.57.89l-3,4.11Z"/></g></g><g id="Watermark"><rect class="cls-13" x="438.45" y="629.92" width="123.09" height="46.3"/><rect class="cls-14" x="444.86" y="637.76" width="62.89" height="30.62"/><rect class="cls-14" x="507.75" y="637.76" width="47.39" height="30.62"/><path class="cls-15" d="M466.48,643.86l-2.79,18.92H461l-1.55-11-1.53,11h-2.74l-2.8-18.92h2.51L456.63,658l1.79-14.17h2L462.19,658,464,643.86Z"/><path class="cls-15" d="M467.93,662.78V643.86h2.53v18.92Z"/><path class="cls-15" d="M472.83,643.86h5q2.9,0,2.9,3.24v4.66c0,1.65-.51,2.7-1.51,3.14l1.77,7.88h-2.4l-1.66-7.64h-1.53v7.64h-2.53Zm2.53,9.12H477c.76,0,1.14-.46,1.14-1.37v-4.09c0-.91-.38-1.37-1.14-1.37h-1.66Z"/><path class="cls-15" d="M486.82,646.15v16.63h-2.53V646.15h-2.42v-2.29h7.38v2.29Z"/><path class="cls-15" d="M496.34,662.78v-8.59h-3.11v8.59H490.7V643.86h2.53v8h3.11v-8h2.53v18.92Z"/><path class="cls-15" d="M516.31,643.86h5q2.9,0,2.89,3.24v4.66c0,1.65-.5,2.7-1.5,3.14l1.77,7.88H522l-1.66-7.64h-1.53v7.64h-2.53Zm2.53,9.12h1.66c.76,0,1.13-.46,1.13-1.37v-4.09c0-.91-.37-1.37-1.13-1.37h-1.66Z"/><path class="cls-15" d="M528.67,662.78h-2.53V647.1q0-3.24,3-3.24h1.9q3,0,3,3.24v15.68h-2.53v-6.93h-2.9Zm2.9-9.22v-6.3a1,1,0,0,0-1.11-1.11h-.68a1,1,0,0,0-1.11,1.11v6.3Z"/><path class="cls-15" d="M536.34,662.78V643.86h2.53v18.92Z"/><path class="cls-15" d="M547.24,662.78h-6V643.86h2.53v16.63h3.47Z"/></g></svg>