<?xml version="1.0" encoding="utf-8"?>
<!-- Generator: Adobe Illustrator 25.2.3, SVG Export Plug-In . SVG Version: 6.00 Build 0)  -->
<svg version="1.1" xmlns="http://www.w3.org/2000/svg" xmlns:xlink="http://www.w3.org/1999/xlink" x="0px" y="0px"
	 viewBox="0 0 1000 800" style="enable-background:new 0 0 1000 800;" xml:space="preserve">
<style type="text/css">
	.st0{fill:#F0F0F0;}
	.st1{fill:none;stroke:#221E1F;stroke-width:1.0614;}
	.st2{fill:#221E1F;}
	.st3{fill:none;stroke:#221E1F;stroke-width:1.0614;stroke-dasharray:12.8405,6.4722;}
	.st4{fill:none;stroke:#000000;stroke-width:1.404;}
	.st5{fill:none;stroke:#000000;stroke-width:0.975;}
	.st6{fill:none;stroke:#000000;stroke-width:0.975;stroke-dasharray:11.5538,5.7038;}
	.st7{fill:none;stroke:#000000;stroke-width:0.975;stroke-miterlimit:10;}
	.st8{fill:none;stroke:#221E1F;stroke-width:0.8906;}
	.st9{fill:none;stroke:#221E1F;stroke-width:0.8819;}
	.st10{clip-path:url(#SVGID_2_);fill:none;stroke:#221E1F;stroke-width:0.8819;}
	.st11{clip-path:url(#SVGID_4_);fill:none;stroke:#221E1F;stroke-width:0.8819;}
	.st12{fill:#303030;}
	.st13{fill:none;stroke:#303030;stroke-width:0.8906;stroke-miterlimit:10;}
	.st14{clip-path:url(#SVGID_6_);fill:none;stroke:#221E1F;stroke-width:0.8906;}
	.st15{fill:none;stroke:#221E1F;stroke-width:0.8906;stroke-dasharray:23.0235,6.997;}
	.st16{fill:none;stroke:#221E1F;stroke-width:0.8906;stroke-dasharray:19.498,3.4714;}
	.st17{fill:none;stroke:#221E1F;stroke-width:0.8906;stroke-dasharray:21.3897,6.2234;}
	.st18{clip-path:url(#SVGID_8_);fill:none;stroke:#221E1F;stroke-width:0.8025;}
	.st19{fill:none;stroke:#221E1F;stroke-width:0.7299;}
	.st20{clip-path:url(#SVGID_10_);fill:none;stroke:#221E1F;stroke-width:0.8025;}
	.st21{fill:none;stroke:#221E1F;stroke-width:0.7726;}
	.st22{fill:none;stroke:#221E1F;stroke-width:0.8025;}
	.st23{fill:none;stroke:#221E1F;stroke-width:0.8025;stroke-dasharray:21.5886,6.6505;}
	.st24{fill:none;stroke:#303030;stroke-width:0.8025;stroke-miterlimit:10;}
	.st25{fill:none;stroke:#221E1F;stroke-width:0.811;stroke-dasharray:21.8106,6.6911;}
	.st26{fill:none;stroke:#221E1F;stroke-width:0.811;stroke-dasharray:16.7651,1.6456;}
	.st27{fill:none;stroke:#221E1F;stroke-width:0.811;}
	.st28{clip-path:url(#SVGID_12_);fill:#221E1F;}
	.st29{fill:none;stroke:#221E1F;stroke-width:1.2695;}
	.st30{fill:none;stroke:#221E1F;stroke-width:0.8814;}
	.st31{fill:none;stroke:#221E1F;stroke-width:1.4133;}
	.st32{fill:none;stroke:#221E1F;stroke-width:0.9807;}
	.st33{fill:none;stroke:#221E1F;stroke-width:0.9807;stroke-dasharray:13.5825,6.7924;}
	.st34{fill:none;stroke:#221E1F;stroke-width:0.9807;stroke-dasharray:19.5641,12.5429;}
	.st35{fill:none;stroke:#221E1F;stroke-width:1.1332;}
	.st36{fill:none;stroke:#221E1F;stroke-width:1.7102;}
	.st37{fill:none;stroke:#221E1F;stroke-width:1.2031;stroke-linecap:round;stroke-linejoin:round;stroke-miterlimit:10;}
	.st38{fill:none;stroke:#221E1F;stroke-width:1.2031;}
	.st39{fill:none;stroke:#221E1F;stroke-width:1.2031;stroke-miterlimit:10;}
	
		.st40{fill:none;stroke:#221E1F;stroke-width:1.2031;stroke-linecap:round;stroke-linejoin:round;stroke-miterlimit:10;stroke-dasharray:9.1021,1.1746,1.1746,1.1746;stroke-dashoffset:10;}
	
		.st41{fill:none;stroke:#221E1F;stroke-width:1.2031;stroke-linecap:round;stroke-linejoin:round;stroke-miterlimit:10;stroke-dasharray:9.1228,1.1953,1.1953,1.1953;stroke-dashoffset:10;}
	.st42{fill:none;stroke:#221E1F;stroke-width:1.0246;}
	.st43{fill:none;stroke:#221E1F;stroke-width:1.0246;stroke-dasharray:5.7593,5.7593;}
	.st44{fill:none;stroke:#221E1F;stroke-width:1.0582;}
	.st45{fill:none;stroke:#221E1F;stroke-width:1.0246;stroke-dasharray:5.8059,5.8059;}
	.st46{fill:none;stroke:#241F21;stroke-width:0.8839;}
	.st47{fill:#241F21;}
	.st48{fill:none;stroke:#241F21;stroke-width:1.2533;}
	.st49{fill:none;stroke:#241F21;stroke-width:0.7133;stroke-linecap:round;stroke-linejoin:round;stroke-miterlimit:10;}
	.st50{fill:none;stroke:#241F21;stroke-width:0.8839;stroke-miterlimit:10;}
	
		.st51{clip-path:url(#SVGID_14_);fill:none;stroke:#241F21;stroke-width:0.8839;stroke-linecap:round;stroke-linejoin:round;stroke-miterlimit:10;}
	.st52{clip-path:url(#SVGID_14_);fill:none;stroke:#241F21;stroke-width:0.8839;stroke-miterlimit:10;}
	.st53{fill:none;stroke:#241F21;stroke-width:0.8839;stroke-linecap:round;stroke-linejoin:round;stroke-miterlimit:10;}
	.st54{fill:none;stroke:#241F21;stroke-width:0.7642;stroke-linecap:round;stroke-linejoin:round;stroke-miterlimit:10;}
	
		.st55{fill:none;stroke:#241F21;stroke-width:0.7133;stroke-linecap:round;stroke-linejoin:round;stroke-miterlimit:10;stroke-dasharray:9.9652,1.3195,1.3195,1.3195;stroke-dashoffset:11;}
	
		.st56{fill:none;stroke:#241F21;stroke-width:0.7133;stroke-linecap:round;stroke-linejoin:round;stroke-miterlimit:10;stroke-dasharray:9.7079,1.0622,1.0622,1.0622;stroke-dashoffset:10;}
	.st57{fill:none;stroke:#241F21;stroke-width:0.8839;stroke-dasharray:5.5991,5.5991;}
	.st58{fill:none;stroke:#241F21;stroke-width:0.7515;stroke-dasharray:5.6857,5.6857;}
	.st59{fill:none;stroke:#221E1F;stroke-width:1.0101;stroke-miterlimit:10;}
	.st60{fill:none;stroke:#221E1F;stroke-width:1.0012;}
	.st61{fill:none;stroke:#221E1F;stroke-width:0.9081;}
	.st62{fill:none;stroke:#221E1F;stroke-width:1.0385;}
	.st63{fill:none;stroke:#221E1F;stroke-width:0.9081;stroke-dasharray:20.8407,6.1278;}
	.st64{fill:none;stroke:#221E1F;stroke-width:1.406;}
	.st65{fill:none;stroke:#221E1F;stroke-width:0.9906;}
	.st66{fill:none;stroke:#221E1F;stroke-width:0.9887;}
	.st67{fill:none;stroke:#221E1F;stroke-width:0.8443;}
	.st68{fill:none;stroke:#221E1F;stroke-width:0.8443;stroke-dasharray:4.4655,4.4655;}
	.st69{fill:none;stroke:#221E1F;stroke-width:1.7608;}
	.st70{fill:none;stroke:#221E1F;stroke-width:1.0549;}
	.st71{clip-path:url(#SVGID_16_);fill:none;stroke:#221E1F;stroke-width:1.0549;}
	.st72{fill:none;stroke:#221E1F;stroke-width:1.0549;stroke-dasharray:5.538,5.538;}
	.st73{clip-path:url(#SVGID_18_);}
	.st74{clip-path:url(#SVGID_20_);}
	.st75{fill:#F0F0F0;stroke:#CCCCCC;stroke-miterlimit:10;}
	.st76{fill:#CCCCCC;}
</style>
<g id="Flat">
	<g>
		<g>
			<path class="st0" d="M872.5,690.2c2.6,0,7.7,1.2,8.1-6.9c0.4-6.6,0.2-8.3,0-16.5c-0.1-7.5-3.2-17-11.6-21.2
				c-7.9-3.9-22.4-3.8-38.7-5.4c-67.8-6.8-90.6-5.5-116.2-11.1c-54.9-12-60.1-61.5-60.3-75.3c-0.2-10.3-1.2-94.8,0.1-114.5
				c1.3-19.7,6.3-43.4,29.4-71.8c23-28.4,58.1-36.1,73.5-43.4c11.6-5.5,28.7-11.4,28.7-34.1s0.3-76.1,1-105.5
				c0.5-21-2.7-47.4-41.4-52.1c-37-4.5-243-8.7-243-8.7s-205.4,4.2-242.4,8.7c-38.7,4.7-41.9,31.1-41.4,52.1
				c0.7,29.4,1,82.8,1,105.5s17.1,28.5,28.7,34.1c15.4,7.3,50.4,15,73.5,43.4c23,28.4,28,52.1,29.4,71.8
				c1.3,19.7,0.3,104.2,0.1,114.5c-0.2,13.9-5.4,63.3-60.3,75.3c-25.6,5.6-48.4,4.4-116.2,11.1c-16.3,1.6-30.8,1.5-38.7,5.4
				c-8.4,4.1-11.4,13.7-11.6,21.2c-0.1,8.3-0.3,9.9,0,16.5c0.5,8.1,5.5,6.9,8.1,6.9h369.4H872.5z"/>
			<path class="st59" d="M872.5,690.2c2.6,0,7.7,1.2,8.1-6.9c0.4-6.6,0.2-8.3,0-16.5c-0.1-7.5-3.2-17-11.6-21.2
				c-7.9-3.9-22.4-3.8-38.7-5.4c-67.8-6.8-90.6-5.5-116.2-11.1c-54.9-12-60.1-61.5-60.3-75.3c-0.2-10.3-1.2-94.8,0.1-114.5
				c1.3-19.7,6.3-43.4,29.4-71.8c23-28.4,58.1-36.1,73.5-43.4c11.6-5.5,28.7-11.4,28.7-34.1s0.3-76.1,1-105.5
				c0.5-21-2.7-47.4-41.4-52.1c-37-4.5-243-8.7-243-8.7s-205.4,4.2-242.4,8.7c-38.7,4.7-41.9,31.1-41.4,52.1
				c0.7,29.4,1,82.8,1,105.5s17.1,28.5,28.7,34.1c15.4,7.3,50.4,15,73.5,43.4c23,28.4,28,52.1,29.4,71.8
				c1.3,19.7,0.3,104.2,0.1,114.5c-0.2,13.9-5.4,63.3-60.3,75.3c-25.6,5.6-48.4,4.4-116.2,11.1c-16.3,1.6-30.8,1.5-38.7,5.4
				c-8.4,4.1-11.4,13.7-11.6,21.2c-0.1,8.3-0.3,9.9,0,16.5c0.5,8.1,5.5,6.9,8.1,6.9h369.4H872.5z"/>
		</g>
		<path class="st60" d="M218,64.4v101.5 M786.2,64.4v101.5 M139.2,774.1h726.3"/>
		<polygon class="st2" points="142.1,778.3 125.8,773.9 142.1,769.5 		"/>
		<polygon class="st2" points="862.5,778.3 878.8,773.9 862.5,769.5 		"/>
		<polyline class="st60" points="620.1,145 615.7,259.1 552.4,259.1 		"/>
		<polygon class="st2" points="615.8,147.8 620.8,131.7 624.5,148.1 		"/>
		<polyline class="st60" points="687.4,597 731,552.9 799.2,552.9 		"/>
		<polygon class="st2" points="692.4,597.9 677.9,606.4 686.2,591.7 		"/>
		<polyline class="st60" points="685.6,390 742.5,427.7 810.7,427.7 		"/>
		<polygon class="st2" points="685.8,395.1 674.6,382.4 690.6,387.8 		"/>
		<polyline class="st60" points="768.2,301.9 728.3,273.1 660.6,273.1 		"/>
		<polygon class="st2" points="768.2,296.7 778.9,309.8 763.1,303.8 		"/>
		<polyline class="st60" points="761.3,157.9 712.8,207.9 645,207.9 		"/>
		<polygon class="st2" points="756.2,157.1 770.7,148.5 762.5,163.2 		"/>
		<polyline class="st60" points="141.7,660.3 158.7,677.9 223.6,677.9 		"/>
		<polygon class="st2" points="140.8,665.3 132.5,650.6 147,659.3 		"/>
		<line class="st60" x1="233.6" y1="72.9" x2="770.6" y2="72.9"/>
		<polygon class="st2" points="236.5,77.1 220.3,72.7 236.5,68.3 		"/>
		<polygon class="st2" points="767.6,77.1 783.9,72.7 767.6,68.3 		"/>
		<line class="st60" x1="159.6" y1="353.5" x2="159.6" y2="141.9"/>
		<polygon class="st2" points="163.8,350.5 159.4,366.8 155,350.5 		"/>
		<polygon class="st2" points="163.8,144.9 159.4,128.6 155,144.9 		"/>
		<line class="st60" x1="189" y1="298.7" x2="189" y2="142.5"/>
		<polygon class="st2" points="193.2,295.7 188.8,312 184.4,295.7 		"/>
		<polygon class="st2" points="193.2,145.5 188.8,129.2 184.4,145.5 		"/>
		<line class="st60" x1="639.5" y1="460.4" x2="365.1" y2="460.4"/>
		<polygon class="st2" points="636.5,456.2 652.8,460.5 636.5,464.9 		"/>
		<polygon class="st2" points="368.1,456.2 351.8,460.5 368.1,464.9 		"/>
		<line class="st60" x1="96.7" y1="659.2" x2="96.7" y2="679.8"/>
		<polygon class="st2" points="92.5,662.2 96.9,645.9 101.3,662.2 		"/>
		<polygon class="st2" points="92.5,676.8 96.9,693.1 101.3,676.8 		"/>
		<line class="st60" x1="47.4" y1="675.3" x2="47.4" y2="140.4"/>
		<polygon class="st2" points="51.6,672.3 47.2,688.6 42.9,672.3 		"/>
		<polygon class="st2" points="51.6,143.4 47.2,127.1 42.9,143.4 		"/>
		<line class="st60" x1="357.3" y1="677" x2="357.3" y2="638.2"/>
		<polygon class="st2" points="361.5,674 357.1,690.3 352.7,674 		"/>
		<polygon class="st2" points="361.5,641.2 357.1,624.9 352.7,641.2 		"/>
		<line class="st60" x1="933.4" y1="384" x2="933.4" y2="137.5"/>
		<polygon class="st2" points="937.6,381 933.2,397.3 928.9,381 		"/>
		<polygon class="st2" points="937.6,140.5 933.2,124.2 928.9,140.5 		"/>
		<line class="st60" x1="933.4" y1="676" x2="933.4" y2="410.6"/>
		<polygon class="st2" points="937.6,673 933.2,689.3 928.9,673 		"/>
		<polygon class="st2" points="937.6,413.6 933.2,397.3 928.9,413.6 		"/>
		<path class="st60" d="M969.5,124.8H26.4 M948.6,397.2H178.7 M23.7,691.3h108.4 M873.1,691.3h96.4 M70.7,643.5h68.8 M309.7,624.5
			h109.7 M176,312h53.1 M143.6,368.9h206.1 M125.1,692.9v99.5 M879.7,692.9v99.5 M500.5,476.3v211 M500.5,695.3v29.4 M500.5,106.3
			V440"/>
		<g>
			<path class="st2" d="M486.5,64.7h-1.8V53.4c-0.4,0.4-1,0.8-1.7,1.2c-0.7,0.4-1.3,0.7-1.9,0.9v-1.7c1-0.5,1.8-1,2.6-1.7
				s1.3-1.3,1.6-1.9h1.1V64.7z"/>
			<path class="st2" d="M491,60.9l1.8-0.2c0.1,0.9,0.5,1.6,1,2s1.1,0.7,1.8,0.7c0.8,0,1.6-0.3,2.2-1s0.9-1.5,0.9-2.5
				c0-1-0.3-1.8-0.8-2.4c-0.6-0.6-1.3-0.9-2.2-0.9c-0.6,0-1.1,0.1-1.5,0.4c-0.5,0.3-0.8,0.6-1.1,1l-1.7-0.2l1.4-7.4h7.1v1.7h-5.7
				l-0.8,3.9c0.9-0.6,1.8-0.9,2.7-0.9c1.3,0,2.3,0.4,3.2,1.3c0.9,0.9,1.3,2,1.3,3.3c0,1.3-0.4,2.4-1.1,3.4c-0.9,1.2-2.2,1.7-3.8,1.7
				c-1.3,0-2.4-0.4-3.2-1.1C491.6,63.1,491.1,62.1,491,60.9z"/>
			<path class="st2" d="M502.1,57.6c0-1.7,0.2-3.1,0.5-4.1c0.3-1,0.9-1.8,1.6-2.4c0.7-0.6,1.6-0.8,2.6-0.8c0.8,0,1.4,0.2,2,0.5
				c0.6,0.3,1.1,0.8,1.4,1.3c0.4,0.6,0.7,1.3,0.9,2.1c0.2,0.8,0.3,2,0.3,3.4c0,1.7-0.2,3-0.5,4.1s-0.9,1.8-1.5,2.4
				c-0.7,0.6-1.6,0.8-2.6,0.8c-1.4,0-2.5-0.5-3.3-1.5C502.6,62.2,502.1,60.3,502.1,57.6z M503.9,57.6c0,2.4,0.3,3.9,0.8,4.7
				c0.6,0.8,1.2,1.2,2,1.2s1.5-0.4,2-1.2c0.6-0.8,0.8-2.3,0.8-4.7c0-2.4-0.3-3.9-0.8-4.7c-0.6-0.8-1.2-1.2-2.1-1.2
				c-0.8,0-1.5,0.3-1.9,1C504.2,53.6,503.9,55.2,503.9,57.6z"/>
		</g>
		<g>
			<path class="st2" d="M173.1,389.9l5.5-7.5l-4.9-6.9h2.3l2.6,3.7c0.5,0.8,0.9,1.3,1.2,1.8c0.3-0.5,0.7-1.1,1.1-1.6l2.9-3.8h2.1
				l-5,6.8l5.4,7.6h-2.3l-3.6-5.1c-0.2-0.3-0.4-0.6-0.6-1c-0.3,0.5-0.5,0.9-0.7,1.1l-3.6,5H173.1z"/>
			<path class="st2" d="M186.4,389.9l5.5-7.5l-4.9-6.9h2.3l2.6,3.7c0.5,0.8,0.9,1.3,1.2,1.8c0.3-0.5,0.7-1.1,1.1-1.6l2.9-3.8h2.1
				l-5,6.8l5.4,7.6h-2.3l-3.6-5.1c-0.2-0.3-0.4-0.6-0.6-1c-0.3,0.5-0.5,0.9-0.7,1.1l-3.6,5H186.4z"/>
		</g>
		<g>
			<path class="st2" d="M514.3,116.4v-6.1l-5.5-8.3h2.3l2.8,4.3c0.5,0.8,1,1.6,1.5,2.4c0.4-0.7,1-1.6,1.6-2.5l2.8-4.2h2.2l-5.7,8.3
				v6.1H514.3z"/>
		</g>
		<g>
			<path class="st2" d="M519.7,717.9v-6.1l-5.5-8.3h2.3l2.8,4.3c0.5,0.8,1,1.6,1.5,2.4c0.4-0.8,1-1.6,1.6-2.5l2.8-4.2h2.2l-5.7,8.3
				v6.1H519.7z"/>
		</g>
		<g>
			<path class="st2" d="M661.4,199.5v-14.3h6.4c1.3,0,2.2,0.1,2.9,0.4s1.2,0.7,1.6,1.4c0.4,0.7,0.6,1.4,0.6,2.2c0,1-0.3,1.9-1,2.6
				c-0.7,0.7-1.7,1.1-3.1,1.3c0.5,0.2,0.9,0.5,1.1,0.7c0.6,0.5,1.1,1.1,1.6,1.9l2.5,3.9h-2.4l-1.9-3c-0.6-0.9-1-1.5-1.4-2
				c-0.4-0.5-0.7-0.8-1-1c-0.3-0.2-0.6-0.3-0.9-0.4c-0.2,0-0.6-0.1-1.1-0.1h-2.2v6.4H661.4z M663.3,191.5h4.1c0.9,0,1.5-0.1,2-0.3
				s0.9-0.5,1.1-0.9c0.3-0.4,0.4-0.8,0.4-1.3c0-0.7-0.2-1.2-0.7-1.7c-0.5-0.4-1.3-0.7-2.3-0.7h-4.5V191.5z"/>
			<path class="st2" d="M687.3,199.5h-1.8v-11.2c-0.4,0.4-1,0.8-1.7,1.2c-0.7,0.4-1.3,0.7-1.9,0.9v-1.7c1-0.5,1.8-1,2.6-1.7
				s1.3-1.3,1.6-1.9h1.1V199.5z"/>
			<path class="st2" d="M691.8,192.4c0-1.7,0.2-3.1,0.5-4.1c0.3-1,0.9-1.8,1.6-2.4c0.7-0.6,1.6-0.8,2.6-0.8c0.8,0,1.4,0.2,2,0.5
				c0.6,0.3,1.1,0.8,1.4,1.3c0.4,0.6,0.7,1.3,0.9,2.1c0.2,0.8,0.3,2,0.3,3.4c0,1.7-0.2,3-0.5,4.1s-0.9,1.8-1.5,2.4
				c-0.7,0.6-1.6,0.8-2.6,0.8c-1.4,0-2.5-0.5-3.3-1.5C692.3,197.1,691.8,195.1,691.8,192.4z M693.6,192.4c0,2.4,0.3,3.9,0.8,4.7
				c0.6,0.8,1.2,1.2,2,1.2s1.5-0.4,2-1.2c0.6-0.8,0.8-2.3,0.8-4.7c0-2.4-0.3-3.9-0.8-4.7c-0.6-0.8-1.2-1.2-2.1-1.2
				c-0.8,0-1.5,0.3-1.9,1C693.9,188.4,693.6,190.1,693.6,192.4z"/>
		</g>
		<g>
			<path class="st2" d="M670.9,265.6v-14.3h6.4c1.3,0,2.2,0.1,2.9,0.4s1.2,0.7,1.6,1.4c0.4,0.7,0.6,1.4,0.6,2.2c0,1-0.3,1.9-1,2.6
				c-0.7,0.7-1.7,1.1-3.1,1.3c0.5,0.2,0.9,0.5,1.1,0.7c0.6,0.5,1.1,1.1,1.6,1.9l2.5,3.9h-2.4l-1.9-3c-0.6-0.9-1-1.5-1.4-2
				c-0.4-0.5-0.7-0.8-1-1c-0.3-0.2-0.6-0.3-0.9-0.4c-0.2,0-0.6-0.1-1.1-0.1h-2.2v6.4H670.9z M672.8,257.6h4.1c0.9,0,1.5-0.1,2-0.3
				s0.9-0.5,1.1-0.9c0.3-0.4,0.4-0.8,0.4-1.3c0-0.7-0.2-1.2-0.7-1.7c-0.5-0.4-1.3-0.7-2.3-0.7h-4.5V257.6z"/>
			<path class="st2" d="M696.8,265.6h-1.8v-11.2c-0.4,0.4-1,0.8-1.7,1.2c-0.7,0.4-1.3,0.7-1.9,0.9v-1.7c1-0.5,1.8-1,2.6-1.7
				s1.3-1.3,1.6-1.9h1.1V265.6z"/>
			<path class="st2" d="M701.3,258.5c0-1.7,0.2-3.1,0.5-4.1c0.3-1,0.9-1.8,1.6-2.4c0.7-0.6,1.6-0.8,2.6-0.8c0.8,0,1.4,0.2,2,0.5
				c0.6,0.3,1.1,0.8,1.4,1.3c0.4,0.6,0.7,1.3,0.9,2.1c0.2,0.8,0.3,2,0.3,3.4c0,1.7-0.2,3-0.5,4.1s-0.9,1.8-1.5,2.4
				c-0.7,0.6-1.6,0.8-2.6,0.8c-1.4,0-2.5-0.5-3.3-1.5C701.8,263.2,701.3,261.2,701.3,258.5z M703.1,258.5c0,2.4,0.3,3.9,0.8,4.7
				c0.6,0.8,1.2,1.2,2,1.2s1.5-0.4,2-1.2c0.6-0.8,0.8-2.3,0.8-4.7c0-2.4-0.3-3.9-0.8-4.7c-0.6-0.8-1.2-1.2-2.1-1.2
				c-0.8,0-1.5,0.3-1.9,1C703.5,254.6,703.1,256.2,703.1,258.5z"/>
		</g>
		<g>
			<path class="st2" d="M750,420.9v-14.3h6.4c1.3,0,2.2,0.1,2.9,0.4c0.7,0.3,1.2,0.7,1.6,1.4s0.6,1.4,0.6,2.2c0,1-0.3,1.9-1,2.6
				c-0.7,0.7-1.7,1.1-3.1,1.3c0.5,0.2,0.9,0.5,1.1,0.7c0.6,0.5,1.1,1.1,1.6,1.9l2.5,3.9h-2.4l-1.9-3c-0.6-0.9-1-1.5-1.4-2
				c-0.4-0.5-0.7-0.8-1-1c-0.3-0.2-0.6-0.3-0.9-0.4c-0.2,0-0.6-0.1-1.1-0.1h-2.2v6.4H750z M751.9,412.8h4.1c0.9,0,1.5-0.1,2-0.3
				s0.9-0.5,1.1-0.9c0.3-0.4,0.4-0.8,0.4-1.3c0-0.7-0.2-1.2-0.7-1.7c-0.5-0.4-1.3-0.7-2.3-0.7h-4.5V412.8z"/>
			<path class="st2" d="M769.3,417.1l1.8-0.2c0.2,1,0.5,1.7,1,2.2c0.5,0.4,1.1,0.7,1.8,0.7c0.8,0,1.5-0.3,2.1-0.9
				c0.6-0.6,0.9-1.3,0.9-2.1c0-0.8-0.3-1.5-0.8-2c-0.5-0.5-1.2-0.8-2-0.8c-0.3,0-0.7,0.1-1.2,0.2l0.2-1.5c0.1,0,0.2,0,0.3,0
				c0.8,0,1.4-0.2,2-0.6c0.6-0.4,0.9-1,0.9-1.8c0-0.6-0.2-1.2-0.7-1.6c-0.4-0.4-1-0.6-1.7-0.6c-0.7,0-1.3,0.2-1.7,0.6
				c-0.5,0.4-0.8,1.1-0.9,1.9l-1.8-0.3c0.2-1.2,0.7-2.1,1.5-2.7c0.8-0.6,1.7-1,2.8-1c0.8,0,1.5,0.2,2.2,0.5c0.7,0.3,1.2,0.8,1.5,1.4
				s0.5,1.2,0.5,1.8c0,0.6-0.2,1.2-0.5,1.7c-0.3,0.5-0.8,0.9-1.5,1.2c0.8,0.2,1.5,0.6,2,1.2s0.7,1.4,0.7,2.3c0,1.3-0.5,2.3-1.4,3.2
				c-0.9,0.9-2.1,1.3-3.5,1.3c-1.3,0-2.3-0.4-3.1-1.1C769.9,419.2,769.5,418.3,769.3,417.1z"/>
			<path class="st2" d="M780.5,413.8c0-1.7,0.2-3.1,0.5-4.1c0.3-1,0.9-1.8,1.6-2.4c0.7-0.6,1.6-0.8,2.6-0.8c0.8,0,1.4,0.2,2,0.5
				c0.6,0.3,1.1,0.8,1.4,1.3c0.4,0.6,0.7,1.3,0.9,2.1c0.2,0.8,0.3,2,0.3,3.4c0,1.7-0.2,3-0.5,4.1s-0.9,1.8-1.5,2.4
				c-0.7,0.6-1.6,0.8-2.6,0.8c-1.4,0-2.5-0.5-3.3-1.5C780.9,418.4,780.5,416.5,780.5,413.8z M782.3,413.8c0,2.4,0.3,3.9,0.8,4.7
				c0.6,0.8,1.2,1.2,2,1.2s1.5-0.4,2-1.2c0.6-0.8,0.8-2.3,0.8-4.7c0-2.4-0.3-3.9-0.8-4.7c-0.6-0.8-1.2-1.2-2.1-1.2
				c-0.8,0-1.5,0.3-1.9,1C782.6,409.8,782.3,411.4,782.3,413.8z"/>
		</g>
		<g>
			<path class="st2" d="M558.5,251.3V237h6.4c1.3,0,2.2,0.1,2.9,0.4s1.2,0.7,1.6,1.4c0.4,0.7,0.6,1.4,0.6,2.2c0,1-0.3,1.9-1,2.6
				c-0.7,0.7-1.7,1.1-3.1,1.3c0.5,0.2,0.9,0.5,1.1,0.7c0.6,0.5,1.1,1.1,1.6,1.9l2.5,3.9h-2.4l-1.9-3c-0.6-0.9-1-1.5-1.4-2
				c-0.4-0.5-0.7-0.8-1-1c-0.3-0.2-0.6-0.3-0.9-0.4c-0.2,0-0.6-0.1-1.1-0.1h-2.2v6.4H558.5z M560.4,243.3h4.1c0.9,0,1.5-0.1,2-0.3
				s0.9-0.5,1.1-0.9c0.3-0.4,0.4-0.8,0.4-1.3c0-0.7-0.2-1.2-0.7-1.7c-0.5-0.4-1.3-0.7-2.3-0.7h-4.5V243.3z"/>
			<path class="st2" d="M580.5,243.6c-0.7-0.3-1.3-0.6-1.6-1.1c-0.4-0.5-0.5-1.1-0.5-1.8c0-1,0.4-1.9,1.1-2.6s1.7-1.1,3-1.1
				c1.3,0,2.3,0.4,3,1.1c0.8,0.7,1.1,1.6,1.1,2.7c0,0.7-0.2,1.2-0.5,1.7c-0.3,0.5-0.9,0.9-1.6,1.1c0.9,0.3,1.5,0.8,2,1.4
				c0.5,0.6,0.7,1.4,0.7,2.3c0,1.2-0.4,2.3-1.3,3.1c-0.9,0.8-2,1.3-3.4,1.3s-2.6-0.4-3.4-1.3c-0.9-0.8-1.3-1.9-1.3-3.1
				c0-0.9,0.2-1.7,0.7-2.3C578.9,244.2,579.6,243.8,580.5,243.6z M579.5,247.2c0,0.5,0.1,1,0.4,1.5s0.6,0.8,1.1,1.1
				c0.5,0.3,1,0.4,1.5,0.4c0.8,0,1.5-0.3,2.1-0.8c0.5-0.5,0.8-1.2,0.8-2.1c0-0.8-0.3-1.5-0.8-2.1c-0.6-0.6-1.3-0.8-2.1-0.8
				c-0.8,0-1.5,0.3-2.1,0.8C579.8,245.7,579.5,246.4,579.5,247.2z M580.1,240.6c0,0.7,0.2,1.2,0.7,1.7c0.4,0.4,1,0.6,1.7,0.6
				c0.7,0,1.2-0.2,1.7-0.6c0.4-0.4,0.7-1,0.7-1.6c0-0.6-0.2-1.2-0.7-1.6c-0.4-0.4-1-0.7-1.7-0.7c-0.7,0-1.2,0.2-1.7,0.6
				C580.3,239.5,580.1,240,580.1,240.6z"/>
			<path class="st2" d="M588.9,244.3c0-1.7,0.2-3.1,0.5-4.1c0.3-1,0.9-1.8,1.6-2.4c0.7-0.6,1.6-0.8,2.6-0.8c0.8,0,1.4,0.2,2,0.5
				c0.6,0.3,1.1,0.8,1.4,1.3c0.4,0.6,0.7,1.3,0.9,2.1c0.2,0.8,0.3,2,0.3,3.4c0,1.7-0.2,3-0.5,4.1s-0.9,1.8-1.5,2.4
				c-0.7,0.6-1.6,0.8-2.6,0.8c-1.4,0-2.5-0.5-3.3-1.5C589.4,248.9,588.9,247,588.9,244.3z M590.7,244.3c0,2.4,0.3,3.9,0.8,4.7
				c0.6,0.8,1.2,1.2,2,1.2s1.5-0.4,2-1.2c0.6-0.8,0.8-2.3,0.8-4.7c0-2.4-0.3-3.9-0.8-4.7c-0.6-0.8-1.2-1.2-2.1-1.2
				c-0.8,0-1.5,0.3-1.9,1C591,240.3,590.7,241.9,590.7,244.3z"/>
			<path class="st2" d="M600,244.3c0-1.7,0.2-3.1,0.5-4.1c0.3-1,0.9-1.8,1.6-2.4c0.7-0.6,1.6-0.8,2.6-0.8c0.8,0,1.4,0.2,2,0.5
				c0.6,0.3,1.1,0.8,1.4,1.3c0.4,0.6,0.7,1.3,0.9,2.1c0.2,0.8,0.3,2,0.3,3.4c0,1.7-0.2,3-0.5,4.1s-0.9,1.8-1.5,2.4
				c-0.7,0.6-1.6,0.8-2.6,0.8c-1.4,0-2.5-0.5-3.3-1.5C600.5,248.9,600,247,600,244.3z M601.8,244.3c0,2.4,0.3,3.9,0.8,4.7
				c0.6,0.8,1.2,1.2,2,1.2s1.5-0.4,2-1.2c0.6-0.8,0.8-2.3,0.8-4.7c0-2.4-0.3-3.9-0.8-4.7c-0.6-0.8-1.2-1.2-2.1-1.2
				c-0.8,0-1.5,0.3-1.9,1C602.1,240.3,601.8,241.9,601.8,244.3z"/>
		</g>
		<g>
			<path class="st2" d="M740.1,544.7v-14.3h6.4c1.3,0,2.2,0.1,2.9,0.4c0.7,0.3,1.2,0.7,1.6,1.4s0.6,1.4,0.6,2.2c0,1-0.3,1.9-1,2.6
				c-0.7,0.7-1.7,1.1-3.1,1.3c0.5,0.2,0.9,0.5,1.1,0.7c0.6,0.5,1.1,1.1,1.6,1.9l2.5,3.9h-2.4l-1.9-3c-0.6-0.9-1-1.5-1.4-2
				c-0.4-0.5-0.7-0.8-1-1c-0.3-0.2-0.6-0.3-0.9-0.4c-0.2,0-0.6-0.1-1.1-0.1H742v6.4H740.1z M742,536.7h4.1c0.9,0,1.5-0.1,2-0.3
				s0.9-0.5,1.1-0.9c0.3-0.4,0.4-0.8,0.4-1.3c0-0.7-0.2-1.2-0.7-1.7c-0.5-0.4-1.3-0.7-2.3-0.7H742V536.7z"/>
			<path class="st2" d="M768.6,543v1.7h-9.5c0-0.4,0.1-0.8,0.2-1.2c0.2-0.6,0.6-1.3,1.2-1.9c0.5-0.6,1.3-1.4,2.3-2.2
				c1.6-1.3,2.6-2.3,3.2-3s0.8-1.5,0.8-2.1c0-0.7-0.2-1.3-0.7-1.8c-0.5-0.5-1.1-0.7-2-0.7c-0.8,0-1.5,0.3-2,0.8
				c-0.5,0.5-0.8,1.2-0.8,2.1l-1.8-0.2c0.1-1.4,0.6-2.4,1.4-3.1c0.8-0.7,1.9-1.1,3.3-1.1c1.4,0,2.5,0.4,3.3,1.1
				c0.8,0.8,1.2,1.7,1.2,2.8c0,0.6-0.1,1.1-0.4,1.7c-0.2,0.6-0.6,1.1-1.2,1.8c-0.5,0.6-1.4,1.5-2.7,2.5c-1.1,0.9-1.7,1.5-2,1.8
				c-0.3,0.3-0.5,0.6-0.7,1H768.6z"/>
			<path class="st2" d="M770.5,537.6c0-1.7,0.2-3.1,0.5-4.1c0.3-1,0.9-1.8,1.6-2.4c0.7-0.6,1.6-0.8,2.6-0.8c0.8,0,1.4,0.2,2,0.5
				c0.6,0.3,1.1,0.8,1.4,1.3c0.4,0.6,0.7,1.3,0.9,2.1c0.2,0.8,0.3,2,0.3,3.4c0,1.7-0.2,3-0.5,4.1s-0.9,1.8-1.5,2.4
				c-0.7,0.6-1.6,0.8-2.6,0.8c-1.4,0-2.5-0.5-3.3-1.5C771,542.3,770.5,540.3,770.5,537.6z M772.3,537.6c0,2.4,0.3,3.9,0.8,4.7
				c0.6,0.8,1.2,1.2,2,1.2s1.5-0.4,2-1.2c0.6-0.8,0.8-2.3,0.8-4.7c0-2.4-0.3-3.9-0.8-4.7c-0.6-0.8-1.2-1.2-2.1-1.2
				c-0.8,0-1.5,0.3-1.9,1C772.6,533.7,772.3,535.3,772.3,537.6z"/>
		</g>
		<g>
			<path class="st2" d="M175,668.9v-14.3h6.4c1.3,0,2.2,0.1,2.9,0.4c0.7,0.3,1.2,0.7,1.6,1.4s0.6,1.4,0.6,2.2c0,1-0.3,1.9-1,2.6
				c-0.7,0.7-1.7,1.1-3.1,1.3c0.5,0.2,0.9,0.5,1.1,0.7c0.6,0.5,1.1,1.1,1.6,1.9l2.5,3.9h-2.4l-1.9-3c-0.6-0.9-1-1.5-1.4-2
				c-0.4-0.5-0.7-0.8-1-1c-0.3-0.2-0.6-0.3-0.9-0.4c-0.2,0-0.6-0.1-1.1-0.1h-2.2v6.4H175z M176.9,660.9h4.1c0.9,0,1.5-0.1,2-0.3
				s0.9-0.5,1.1-0.9c0.3-0.4,0.4-0.8,0.4-1.3c0-0.7-0.2-1.2-0.7-1.7c-0.5-0.4-1.3-0.7-2.3-0.7h-4.5V660.9z"/>
		</g>
		<g>
			<path class="st2" d="M203.4,658.1l-1.8,0.1c-0.2-0.7-0.4-1.2-0.7-1.5c-0.5-0.5-1.1-0.8-1.8-0.8c-0.6,0-1.1,0.2-1.5,0.5
				c-0.6,0.4-1,1-1.3,1.8s-0.5,1.9-0.5,3.3c0.4-0.6,0.9-1.1,1.6-1.4c0.6-0.3,1.3-0.5,1.9-0.5c1.2,0,2.2,0.4,3,1.3
				c0.8,0.9,1.2,2,1.2,3.4c0,0.9-0.2,1.7-0.6,2.5c-0.4,0.8-0.9,1.4-1.6,1.8c-0.7,0.4-1.4,0.6-2.3,0.6c-1.5,0-2.7-0.5-3.6-1.6
				c-0.9-1.1-1.4-2.9-1.4-5.3c0-2.8,0.5-4.8,1.5-6c0.9-1.1,2.1-1.6,3.6-1.6c1.1,0,2.1,0.3,2.8,0.9
				C202.8,656.1,203.2,657,203.4,658.1z M196.2,664.3c0,0.6,0.1,1.2,0.4,1.7c0.3,0.6,0.6,1,1.1,1.3s0.9,0.4,1.5,0.4
				c0.7,0,1.4-0.3,1.9-0.9c0.5-0.6,0.8-1.4,0.8-2.4c0-1-0.3-1.8-0.8-2.3c-0.5-0.6-1.2-0.9-2-0.9c-0.8,0-1.5,0.3-2,0.9
				C196.5,662.6,196.2,663.3,196.2,664.3z"/>
		</g>
		<g>
			<path class="st2" d="M349.5,673.2v1.8h-11.2c0.4,0.4,0.8,1,1.2,1.7c0.4,0.7,0.7,1.3,0.9,1.9h-1.7c-0.5-1-1-1.8-1.7-2.6
				c-0.7-0.7-1.3-1.3-1.9-1.6v-1.1H349.5z"/>
			<path class="st2" d="M337.1,668.5h-1.7v-9.3h1.4c1,0.9,2.3,1.8,3.9,2.7c1.6,0.9,3.3,1.6,5,2.1c1.2,0.4,2.5,0.6,3.9,0.7v1.8
				c-1.1,0-2.5-0.2-4.1-0.7s-3.1-1-4.6-1.8c-1.5-0.8-2.7-1.6-3.8-2.5V668.5z"/>
			<path class="st2" d="M349.5,656.5h-2v-2h2V656.5z"/>
			<path class="st2" d="M349.5,646.3h-3.4v6.2h-1.6l-9.3-6.5v-1.4h9.3v-1.9h1.6v1.9h3.4V646.3z M344.5,646.3H338l6.5,4.5V646.3z"/>
		</g>
		<g>
			<path class="st2" d="M940.7,504.7l10.4-4v1.9l-6.2,2.2c-0.7,0.2-1.4,0.5-2.1,0.7c0.5,0.2,1.2,0.4,2,0.7l6.3,2.3v1.8l-10.4-3.9
				V504.7z"/>
		</g>
		<g>
			<path class="st2" d="M944.8,522.6v-9.5h1.6v9.5H944.8z M949.1,522.6v-9.5h1.6v9.5H949.1z"/>
			<path class="st2" d="M953.1,524.7h1.7v9.3h-1.4c-1-0.9-2.3-1.8-3.9-2.7c-1.6-0.9-3.3-1.6-5-2.1c-1.2-0.4-2.5-0.6-3.9-0.7v-1.8
				c1.1,0,2.5,0.2,4.1,0.7s3.1,1,4.6,1.8c1.5,0.8,2.7,1.6,3.8,2.5V524.7z"/>
			<path class="st2" d="M953.1,535.8h1.7v9.3h-1.4c-1-0.9-2.3-1.8-3.9-2.7c-1.6-0.9-3.3-1.6-5-2.1c-1.2-0.4-2.5-0.6-3.9-0.7v-1.8
				c1.1,0,2.5,0.2,4.1,0.7s3.1,1,4.6,1.8c1.5,0.8,2.7,1.6,3.8,2.5V535.8z"/>
			<path class="st2" d="M940.7,547.8h2v2h-2V547.8z"/>
		</g>
		<g>
			<path class="st2" d="M944.4,552.4l0.2,1.8c-0.9,0.1-1.6,0.5-2,1s-0.7,1.1-0.7,1.8c0,0.8,0.3,1.6,1,2.2c0.6,0.6,1.5,0.9,2.5,0.9
				c1,0,1.8-0.3,2.4-0.8c0.6-0.6,0.9-1.3,0.9-2.2c0-0.6-0.1-1.1-0.4-1.5c-0.3-0.5-0.6-0.8-1-1.1l0.2-1.7l7.4,1.4v7.1h-1.7v-5.7
				l-3.9-0.8c0.6,0.9,0.9,1.8,0.9,2.7c0,1.3-0.4,2.3-1.3,3.2c-0.9,0.9-2,1.3-3.3,1.3c-1.3,0-2.4-0.4-3.4-1.1
				c-1.2-0.9-1.7-2.2-1.7-3.8c0-1.3,0.4-2.4,1.1-3.2C942.3,553,943.2,552.5,944.4,552.4z"/>
		</g>
		<g>
			<path class="st2" d="M139.1,262.3l0.1,1.8c-0.7,0.2-1.2,0.4-1.5,0.7c-0.5,0.5-0.8,1.1-0.8,1.8c0,0.6,0.2,1.1,0.5,1.5
				c0.4,0.6,1,1,1.8,1.3s1.9,0.5,3.3,0.5c-0.6-0.4-1.1-0.9-1.4-1.6c-0.3-0.6-0.5-1.3-0.5-1.9c0-1.2,0.4-2.2,1.3-3
				c0.9-0.8,2-1.2,3.4-1.2c0.9,0,1.7,0.2,2.5,0.6c0.8,0.4,1.4,0.9,1.8,1.6c0.4,0.7,0.6,1.4,0.6,2.3c0,1.5-0.5,2.7-1.6,3.6
				c-1.1,0.9-2.9,1.4-5.3,1.4c-2.8,0-4.8-0.5-6-1.5c-1.1-0.9-1.6-2.1-1.6-3.6c0-1.1,0.3-2.1,0.9-2.8
				C137.2,262.9,138,262.5,139.1,262.3z M145.3,269.5c0.6,0,1.2-0.1,1.7-0.4c0.6-0.3,1-0.6,1.3-1.1s0.4-0.9,0.4-1.5
				c0-0.7-0.3-1.4-0.9-1.9c-0.6-0.5-1.4-0.8-2.4-0.8c-1,0-1.8,0.3-2.3,0.8c-0.6,0.5-0.9,1.2-0.9,2c0,0.8,0.3,1.5,0.9,2
				C143.7,269.3,144.4,269.5,145.3,269.5z"/>
			<path class="st2" d="M150,254.7h-3.4v6.2h-1.6l-9.3-6.5v-1.4h9.3V251h1.6v1.9h3.4V254.7z M144.9,254.7h-6.5l6.5,4.5V254.7z"/>
			<path class="st2" d="M150,248.2h-2v-2h2V248.2z"/>
			<path class="st2" d="M146.2,243.6l-0.2-1.8c0.9-0.1,1.6-0.5,2-1c0.5-0.5,0.7-1.1,0.7-1.8c0-0.8-0.3-1.6-1-2.2
				c-0.6-0.6-1.5-0.9-2.5-0.9c-1,0-1.8,0.3-2.4,0.8c-0.6,0.6-0.9,1.3-0.9,2.2c0,0.6,0.1,1.1,0.4,1.5s0.6,0.8,1,1.1l-0.2,1.7
				l-7.4-1.4v-7.1h1.7v5.7l3.9,0.8c-0.6-0.9-0.9-1.8-0.9-2.7c0-1.3,0.4-2.3,1.3-3.2s2-1.3,3.3-1.3c1.3,0,2.4,0.4,3.4,1.1
				c1.2,0.9,1.7,2.2,1.7,3.8c0,1.3-0.4,2.4-1.1,3.2C148.4,243,147.4,243.5,146.2,243.6z"/>
		</g>
		<g>
			<path class="st2" d="M176.8,230.4l-0.2-1.8c0.9-0.1,1.6-0.5,2-1c0.5-0.5,0.7-1.1,0.7-1.8c0-0.8-0.3-1.6-1-2.2
				c-0.6-0.6-1.5-0.9-2.5-0.9c-1,0-1.8,0.3-2.4,0.8c-0.6,0.6-0.9,1.3-0.9,2.2c0,0.6,0.1,1.1,0.4,1.5s0.6,0.8,1,1.1l-0.2,1.7
				l-7.4-1.4v-7.1h1.7v5.7l3.9,0.8c-0.6-0.9-0.9-1.8-0.9-2.7c0-1.3,0.4-2.3,1.3-3.2s2-1.3,3.3-1.3c1.3,0,2.4,0.4,3.4,1.1
				c1.2,0.9,1.7,2.2,1.7,3.8c0,1.3-0.4,2.4-1.1,3.2C178.9,229.8,178,230.3,176.8,230.4z"/>
			<path class="st2" d="M173.5,219.3c-1.7,0-3.1-0.2-4.1-0.5c-1-0.3-1.8-0.9-2.4-1.6s-0.8-1.6-0.8-2.6c0-0.8,0.2-1.4,0.5-2
				c0.3-0.6,0.8-1.1,1.3-1.4c0.6-0.4,1.3-0.7,2.1-0.9c0.8-0.2,2-0.3,3.4-0.3c1.7,0,3,0.2,4.1,0.5c1,0.3,1.8,0.9,2.4,1.6
				s0.8,1.6,0.8,2.6c0,1.4-0.5,2.5-1.5,3.3C178.1,218.8,176.1,219.3,173.5,219.3z M173.5,217.5c2.4,0,3.9-0.3,4.7-0.8
				c0.8-0.6,1.2-1.2,1.2-2c0-0.8-0.4-1.5-1.2-2c-0.8-0.6-2.3-0.8-4.7-0.8c-2.4,0-3.9,0.3-4.7,0.8c-0.8,0.6-1.2,1.2-1.2,2.1
				c0,0.8,0.3,1.5,1,1.9C169.5,217.2,171.1,217.5,173.5,217.5z"/>
		</g>
		<g>
			<path class="st2" d="M39.2,424.5v1.8H27.9c0.4,0.4,0.8,1,1.2,1.7c0.4,0.7,0.7,1.3,0.9,1.9h-1.7c-0.5-1-1-1.8-1.7-2.6
				c-0.7-0.7-1.3-1.3-1.9-1.6v-1.1H39.2z"/>
			<path class="st2" d="M35.4,420l-0.2-1.8c0.9-0.1,1.6-0.5,2-1s0.7-1.1,0.7-1.8c0-0.8-0.3-1.6-1-2.2c-0.6-0.6-1.5-0.9-2.5-0.9
				c-1,0-1.8,0.3-2.4,0.8c-0.6,0.6-0.9,1.3-0.9,2.2c0,0.6,0.1,1.1,0.4,1.5c0.3,0.5,0.6,0.8,1,1.1l-0.2,1.7l-7.4-1.4v-7.1h1.7v5.7
				l3.9,0.8c-0.6-0.9-0.9-1.8-0.9-2.7c0-1.3,0.4-2.3,1.3-3.2c0.9-0.9,2-1.3,3.3-1.3c1.3,0,2.4,0.4,3.4,1.1c1.2,0.9,1.7,2.2,1.7,3.8
				c0,1.3-0.4,2.4-1.1,3.2C37.6,419.4,36.6,419.8,35.4,420z"/>
			<path class="st2" d="M32.1,408.8c-1.7,0-3.1-0.2-4.1-0.5c-1-0.3-1.8-0.9-2.4-1.6c-0.6-0.7-0.8-1.6-0.8-2.6c0-0.8,0.2-1.4,0.5-2
				c0.3-0.6,0.8-1.1,1.3-1.4c0.6-0.4,1.3-0.7,2.1-0.9c0.8-0.2,2-0.3,3.4-0.3c1.7,0,3,0.2,4.1,0.5c1,0.3,1.8,0.9,2.4,1.6
				c0.6,0.7,0.8,1.6,0.8,2.6c0,1.4-0.5,2.5-1.5,3.3C36.7,408.3,34.8,408.8,32.1,408.8z M32.1,407c2.4,0,3.9-0.3,4.7-0.8
				c0.8-0.6,1.2-1.2,1.2-2s-0.4-1.5-1.2-2c-0.8-0.6-2.3-0.8-4.7-0.8c-2.4,0-3.9,0.3-4.7,0.8c-0.8,0.6-1.2,1.2-1.2,2.1
				c0,0.8,0.3,1.5,1,1.9C28.1,406.7,29.7,407,32.1,407z"/>
		</g>
		<g>
			<path class="st2" d="M85.2,671.3v1.8H74c0.4,0.4,0.8,1,1.2,1.7c0.4,0.7,0.7,1.3,0.9,1.9h-1.7c-0.5-1-1-1.8-1.7-2.6
				c-0.7-0.7-1.3-1.3-1.9-1.6v-1.1H85.2z"/>
			<path class="st2" d="M83.5,657.5h1.7v9.5c-0.4,0-0.8-0.1-1.2-0.2c-0.6-0.2-1.3-0.6-1.9-1.2c-0.6-0.5-1.4-1.3-2.2-2.3
				c-1.3-1.6-2.3-2.6-3-3.2s-1.5-0.8-2.1-0.8c-0.7,0-1.3,0.2-1.8,0.7c-0.5,0.5-0.7,1.1-0.7,2c0,0.8,0.3,1.5,0.8,2
				c0.5,0.5,1.2,0.8,2.1,0.8l-0.2,1.8c-1.4-0.1-2.4-0.6-3.1-1.4c-0.7-0.8-1.1-1.9-1.1-3.3c0-1.4,0.4-2.5,1.1-3.3
				c0.8-0.8,1.7-1.2,2.8-1.2c0.6,0,1.1,0.1,1.7,0.4c0.6,0.2,1.1,0.6,1.8,1.2c0.6,0.5,1.5,1.4,2.5,2.7c0.9,1.1,1.5,1.7,1.8,2
				c0.3,0.3,0.6,0.5,1,0.7V657.5z"/>
		</g>
		<g>
			<path class="st2" d="M493.8,449.5c-0.7-0.3-1.3-0.6-1.6-1.1c-0.4-0.5-0.5-1.1-0.5-1.8c0-1,0.4-1.9,1.1-2.6c0.8-0.7,1.7-1.1,3-1.1
				c1.3,0,2.3,0.4,3,1.1c0.8,0.7,1.1,1.6,1.1,2.7c0,0.7-0.2,1.2-0.5,1.7c-0.3,0.5-0.9,0.9-1.6,1.1c0.9,0.3,1.5,0.8,2,1.4
				c0.5,0.6,0.7,1.4,0.7,2.3c0,1.2-0.4,2.3-1.3,3.1c-0.9,0.8-2,1.3-3.4,1.3s-2.6-0.4-3.4-1.3c-0.9-0.8-1.3-1.9-1.3-3.1
				c0-0.9,0.2-1.7,0.7-2.3C492.3,450.1,492.9,449.7,493.8,449.5z M492.9,453.1c0,0.5,0.1,1,0.4,1.5c0.2,0.5,0.6,0.8,1.1,1.1
				c0.5,0.3,1,0.4,1.5,0.4c0.8,0,1.5-0.3,2.1-0.8c0.5-0.5,0.8-1.2,0.8-2.1c0-0.8-0.3-1.5-0.8-2.1c-0.6-0.6-1.3-0.8-2.1-0.8
				c-0.8,0-1.5,0.3-2.1,0.8C493.2,451.6,492.9,452.3,492.9,453.1z M493.5,446.5c0,0.7,0.2,1.2,0.7,1.7c0.4,0.4,1,0.6,1.7,0.6
				c0.7,0,1.2-0.2,1.7-0.6c0.4-0.4,0.7-1,0.7-1.6c0-0.6-0.2-1.2-0.7-1.6s-1-0.7-1.7-0.7c-0.7,0-1.2,0.2-1.7,0.6
				C493.7,445.4,493.5,445.9,493.5,446.5z"/>
			<path class="st2" d="M502.3,450.2c0-1.7,0.2-3.1,0.5-4.1c0.3-1,0.9-1.8,1.6-2.4c0.7-0.6,1.6-0.8,2.6-0.8c0.8,0,1.4,0.2,2,0.5
				c0.6,0.3,1.1,0.8,1.4,1.3c0.4,0.6,0.7,1.3,0.9,2.1c0.2,0.8,0.3,2,0.3,3.4c0,1.7-0.2,3-0.5,4.1s-0.9,1.8-1.5,2.4
				c-0.7,0.6-1.6,0.8-2.6,0.8c-1.4,0-2.5-0.5-3.3-1.5C502.7,454.8,502.3,452.9,502.3,450.2z M504.1,450.2c0,2.4,0.3,3.9,0.8,4.7
				c0.6,0.8,1.2,1.2,2,1.2s1.5-0.4,2-1.2c0.6-0.8,0.8-2.3,0.8-4.7c0-2.4-0.3-3.9-0.8-4.7c-0.6-0.8-1.2-1.2-2.1-1.2
				c-0.8,0-1.5,0.3-1.9,1C504.4,446.2,504.1,447.8,504.1,450.2z"/>
		</g>
		<g>
			<path class="st2" d="M494.7,764.1v1.7h-9.5c0-0.4,0.1-0.8,0.2-1.2c0.2-0.6,0.6-1.3,1.2-1.9c0.5-0.6,1.3-1.4,2.3-2.2
				c1.6-1.3,2.6-2.3,3.2-3s0.8-1.5,0.8-2.1c0-0.7-0.2-1.3-0.7-1.8c-0.5-0.5-1.1-0.7-2-0.7c-0.8,0-1.5,0.3-2,0.8
				c-0.5,0.5-0.8,1.2-0.8,2.1l-1.8-0.2c0.1-1.4,0.6-2.4,1.4-3.1c0.8-0.7,1.9-1.1,3.3-1.1c1.4,0,2.5,0.4,3.3,1.1
				c0.8,0.8,1.2,1.7,1.2,2.8c0,0.6-0.1,1.1-0.4,1.7c-0.2,0.6-0.6,1.1-1.2,1.8c-0.5,0.6-1.4,1.5-2.7,2.5c-1.1,0.9-1.7,1.5-2,1.8
				c-0.3,0.3-0.5,0.6-0.7,1H494.7z"/>
			<path class="st2" d="M496.6,758.7c0-1.7,0.2-3.1,0.5-4.1c0.3-1,0.9-1.8,1.6-2.4c0.7-0.6,1.6-0.8,2.6-0.8c0.8,0,1.4,0.2,2,0.5
				c0.6,0.3,1.1,0.8,1.4,1.3c0.4,0.6,0.7,1.3,0.9,2.1c0.2,0.8,0.3,2,0.3,3.4c0,1.7-0.2,3-0.5,4.1s-0.9,1.8-1.5,2.4
				c-0.7,0.6-1.6,0.8-2.6,0.8c-1.4,0-2.5-0.5-3.3-1.5C497,763.3,496.6,761.4,496.6,758.7z M498.4,758.7c0,2.4,0.3,3.9,0.8,4.7
				c0.6,0.8,1.2,1.2,2,1.2s1.5-0.4,2-1.2c0.6-0.8,0.8-2.3,0.8-4.7c0-2.4-0.3-3.9-0.8-4.7c-0.6-0.8-1.2-1.2-2.1-1.2
				c-0.8,0-1.5,0.3-1.9,1C498.7,754.7,498.4,756.3,498.4,758.7z"/>
		</g>
		<g>
			<path class="st2" d="M507.7,758.7c0-1.7,0.2-3.1,0.5-4.1c0.3-1,0.9-1.8,1.6-2.4c0.7-0.6,1.6-0.8,2.6-0.8c0.8,0,1.4,0.2,2,0.5
				c0.6,0.3,1.1,0.8,1.4,1.3c0.4,0.6,0.7,1.3,0.9,2.1c0.2,0.8,0.3,2,0.3,3.4c0,1.7-0.2,3-0.5,4.1s-0.9,1.8-1.5,2.4
				c-0.7,0.6-1.6,0.8-2.6,0.8c-1.4,0-2.5-0.5-3.3-1.5C508.2,763.3,507.7,761.4,507.7,758.7z M509.5,758.7c0,2.4,0.3,3.9,0.8,4.7
				c0.6,0.8,1.2,1.2,2,1.2s1.5-0.4,2-1.2c0.6-0.8,0.8-2.3,0.8-4.7c0-2.4-0.3-3.9-0.8-4.7c-0.6-0.8-1.2-1.2-2.1-1.2
				c-0.8,0-1.5,0.3-1.9,1C509.8,754.7,509.5,756.3,509.5,758.7z"/>
		</g>
		<g>
			<path class="st2" d="M941.7,243.2l10.4-4v1.9l-6.2,2.2c-0.7,0.2-1.4,0.5-2.1,0.7c0.5,0.2,1.2,0.4,2,0.7l6.3,2.3v1.8l-10.4-3.9
				V243.2z"/>
			<path class="st2" d="M945.8,265.2v-9.5h1.6v9.5H945.8z M950.1,265.2v-9.5h1.6v9.5H950.1z"/>
			<path class="st2" d="M954.1,267.3h1.7v9.3h-1.4c-1-0.9-2.3-1.8-3.9-2.7c-1.6-0.9-3.3-1.6-5-2.1c-1.2-0.4-2.5-0.6-3.9-0.7v-1.8
				c1.1,0,2.5,0.2,4.1,0.7s3.1,1,4.6,1.8c1.5,0.8,2.7,1.6,3.8,2.5V267.3z"/>
			<path class="st2" d="M943.4,287.5h-1.7v-9.5c0.4,0,0.8,0.1,1.2,0.2c0.6,0.2,1.3,0.6,1.9,1.2c0.6,0.5,1.4,1.3,2.2,2.3
				c1.3,1.6,2.3,2.6,3,3.2s1.5,0.8,2.1,0.8c0.7,0,1.3-0.2,1.8-0.7c0.5-0.5,0.7-1.1,0.7-2c0-0.8-0.3-1.5-0.8-2
				c-0.5-0.5-1.2-0.8-2.1-0.8l0.2-1.8c1.4,0.1,2.4,0.6,3.1,1.4c0.7,0.8,1.1,1.9,1.1,3.3c0,1.4-0.4,2.5-1.1,3.3
				c-0.8,0.8-1.7,1.2-2.8,1.2c-0.6,0-1.1-0.1-1.7-0.4c-0.6-0.2-1.1-0.6-1.8-1.2c-0.6-0.5-1.5-1.4-2.5-2.7c-0.9-1.1-1.5-1.7-1.8-2
				c-0.3-0.3-0.6-0.5-1-0.7V287.5z"/>
			<path class="st2" d="M941.7,290.4h2v2h-2V290.4z"/>
		</g>
		<g>
			<path class="st2" d="M945.4,295l0.2,1.8c-0.9,0.1-1.6,0.5-2,1c-0.5,0.5-0.7,1.1-0.7,1.8c0,0.8,0.3,1.6,1,2.2
				c0.6,0.6,1.5,0.9,2.5,0.9c1,0,1.8-0.3,2.4-0.8c0.6-0.6,0.9-1.3,0.9-2.2c0-0.6-0.1-1.1-0.4-1.5s-0.6-0.8-1-1.1l0.2-1.7l7.4,1.4
				v7.1h-1.7v-5.7l-3.9-0.8c0.6,0.9,0.9,1.8,0.9,2.7c0,1.3-0.4,2.3-1.3,3.2s-2,1.3-3.3,1.3c-1.3,0-2.4-0.4-3.4-1.1
				c-1.2-0.9-1.7-2.2-1.7-3.8c0-1.3,0.4-2.4,1.1-3.2C943.3,295.5,944.2,295.1,945.4,295z"/>
		</g>
		<polygon class="st2" points="952.4,251.3 955.2,252.5 955.2,254.8 952.4,252.8 		"/>
	</g>
</g>
<g id="Watermark">
	<g>
		<rect x="438.5" y="351.6" class="st0" width="123.1" height="46.3"/>
		<g>
			<rect x="444.9" y="359.4" class="st75" width="62.9" height="30.6"/>
			<rect x="507.7" y="359.4" class="st75" width="47.4" height="30.6"/>
			<g>
				<path class="st76" d="M466.5,365.5l-2.8,18.9H461l-1.6-11l-1.5,11h-2.7l-2.8-18.9h2.5l1.8,14.2l1.8-14.2h2l1.8,14.2l1.8-14.2
					H466.5z"/>
				<path class="st76" d="M467.9,384.4v-18.9h2.5v18.9H467.9z"/>
				<path class="st76" d="M472.8,365.5h5c1.9,0,2.9,1.1,2.9,3.2v4.7c0,1.7-0.5,2.7-1.5,3.1l1.8,7.9h-2.4l-1.7-7.6h-1.5v7.6h-2.5
					V365.5z M475.4,374.6h1.7c0.8,0,1.1-0.5,1.1-1.4v-4.1c0-0.9-0.4-1.4-1.1-1.4h-1.7V374.6z"/>
				<path class="st76" d="M486.8,367.8v16.6h-2.5v-16.6h-2.4v-2.3h7.4v2.3H486.8z"/>
				<path class="st76" d="M496.3,384.4v-8.6h-3.1v8.6h-2.5v-18.9h2.5v8h3.1v-8h2.5v18.9H496.3z"/>
			</g>
			<g>
				<path class="st76" d="M516.3,365.5h5c1.9,0,2.9,1.1,2.9,3.2v4.7c0,1.7-0.5,2.7-1.5,3.1l1.8,7.9H522l-1.7-7.6h-1.5v7.6h-2.5
					V365.5z M518.8,374.6h1.7c0.8,0,1.1-0.5,1.1-1.4v-4.1c0-0.9-0.4-1.4-1.1-1.4h-1.7V374.6z"/>
				<path class="st76" d="M528.7,384.4h-2.5v-15.7c0-2.2,1-3.2,3-3.2h1.9c2,0,3,1.1,3,3.2v15.7h-2.5v-6.9h-2.9V384.4z M531.6,375.2
					v-6.3c0-0.7-0.4-1.1-1.1-1.1h-0.7c-0.7,0-1.1,0.4-1.1,1.1v6.3H531.6z"/>
				<path class="st76" d="M536.3,384.4v-18.9h2.5v18.9H536.3z"/>
				<path class="st76" d="M547.2,384.4h-6v-18.9h2.5v16.6h3.5V384.4z"/>
			</g>
		</g>
	</g>
</g>
</svg>
