<svg xmlns="http://www.w3.org/2000/svg" xmlns:xlink="http://www.w3.org/1999/xlink" viewBox="0 0 1000 800"><defs><style>.cls-1,.cls-12,.cls-2,.cls-6,.cls-8,.cls-9{fill:none;}.cls-2{stroke:#303030;}.cls-11,.cls-12,.cls-13,.cls-2{stroke-miterlimit:10;}.cls-3{fill:#303030;}.cls-4{clip-path:url(#clip-path);}.cls-11,.cls-13,.cls-5{fill:#f0f0f0;}.cls-11,.cls-12,.cls-6,.cls-8,.cls-9{stroke:#231f20;}.cls-7{fill:#231f20;}.cls-8{stroke-dasharray:11.29 3.41;}.cls-9{stroke-dasharray:11.84 3.58;}.cls-10{clip-path:url(#clip-path-7);}.cls-11{stroke-width:3px;}.cls-12{stroke-width:2px;}.cls-13{stroke:#ccc;}.cls-14{fill:#ccc;}</style><clipPath id="clip-path"><rect class="cls-1" x="98.46" width="821.09" height="800"/></clipPath><clipPath id="clip-path-7"><rect class="cls-1" x="-2992.71" width="891.42" height="800"/></clipPath></defs><g id="Flat"><line class="cls-2" x1="133.16" y1="703.62" x2="133.16" y2="418.85"/><polygon class="cls-3" points="136.96 702.94 132.99 717.77 129.02 702.94 136.96 702.94"/><polygon class="cls-3" points="136.96 419.36 132.99 404.53 129.02 419.36 136.96 419.36"/><path class="cls-3" d="M116.77,598.37h-1.3v-7.14h1.06a14.91,14.91,0,0,0,3,2.09,18.32,18.32,0,0,0,3.82,1.6,14.49,14.49,0,0,0,3,.52v1.39a14.14,14.14,0,0,1-3.15-.51,16.84,16.84,0,0,1-3.55-1.41,15.45,15.45,0,0,1-2.89-1.94Z"/><path class="cls-3" d="M118,582.86l.11,1.35a2.51,2.51,0,0,0-1.16.51,1.79,1.79,0,0,0-.58,1.36,1.84,1.84,0,0,0,.36,1.13,3,3,0,0,0,1.36,1,7.25,7.25,0,0,0,2.55.39,3.16,3.16,0,0,1-1.46-2.68,3.07,3.07,0,0,1,1-2.31,3.62,3.62,0,0,1,2.58-1,4.25,4.25,0,0,1,1.93.45,3.13,3.13,0,0,1,1.36,1.23,3.31,3.31,0,0,1,.48,1.77,3.47,3.47,0,0,1-1.25,2.76,6.24,6.24,0,0,1-4.1,1.07,7.35,7.35,0,0,1-4.65-1.18,3.41,3.41,0,0,1-1.27-2.78,3.16,3.16,0,0,1,.73-2.13A3.13,3.13,0,0,1,118,582.86Zm4.76,5.53a3.3,3.3,0,0,0,1.34-.29,2.27,2.27,0,0,0,1-.83,2.12,2.12,0,0,0,.33-1.13,1.9,1.9,0,0,0-.69-1.47,2.73,2.73,0,0,0-1.88-.62,2.58,2.58,0,0,0-1.8.61,2,2,0,0,0-.66,1.54,2.06,2.06,0,0,0,.66,1.55A2.36,2.36,0,0,0,122.79,588.39Z"/><path class="cls-3" d="M126.36,580.56h-1.54V579h1.54Z"/><path class="cls-3" d="M118,570l.11,1.35a2.51,2.51,0,0,0-1.16.51,1.79,1.79,0,0,0-.58,1.36,1.84,1.84,0,0,0,.36,1.13,3.06,3.06,0,0,0,1.36,1,7.06,7.06,0,0,0,2.55.38,3.12,3.12,0,0,1-1.1-1.19,3.23,3.23,0,0,1-.36-1.48,3.07,3.07,0,0,1,1-2.31,3.58,3.58,0,0,1,2.58-.95,4.37,4.37,0,0,1,1.93.44,3.21,3.21,0,0,1,1.36,1.24,3.31,3.31,0,0,1,.48,1.77A3.47,3.47,0,0,1,125.3,576a6.3,6.3,0,0,1-4.1,1.07,7.35,7.35,0,0,1-4.65-1.18,3.41,3.41,0,0,1-1.27-2.78A3,3,0,0,1,118,570Zm4.76,5.53a3.3,3.3,0,0,0,1.34-.29,2.22,2.22,0,0,0,1-.84,2.09,2.09,0,0,0,.33-1.12,1.9,1.9,0,0,0-.69-1.47,2.73,2.73,0,0,0-1.88-.62,2.53,2.53,0,0,0-1.8.61,2,2,0,0,0-.66,1.54,2.06,2.06,0,0,0,.66,1.55A2.36,2.36,0,0,0,122.79,575.54Z"/><path class="cls-3" d="M126.36,563.37v1.35h-8.63a7.19,7.19,0,0,1,.93,1.29,8.77,8.77,0,0,1,.7,1.42h-1.31a7.69,7.69,0,0,0-1.29-2,5.15,5.15,0,0,0-1.48-1.21v-.87Z"/><path class="cls-3" d="M129.6,552.65a13.4,13.4,0,0,1-3.31,1.9,10.19,10.19,0,0,1-3.92.78,10.44,10.44,0,0,1-3.44-.58,14.66,14.66,0,0,1-3.79-2.1v-1c1,.61,1.79,1,2.24,1.21a13,13,0,0,0,2.16.72,12.35,12.35,0,0,0,2.83.32,13.54,13.54,0,0,0,7.23-2.25Z"/><path class="cls-3" d="M123.45,550.48l-.18-1.36a3,3,0,0,0,1.66-.79,2,2,0,0,0,.5-1.37,2.2,2.2,0,0,0-.66-1.61,2.23,2.23,0,0,0-1.64-.66,2.07,2.07,0,0,0-2.14,2.16,3.89,3.89,0,0,0,.15,1l-1.19-.15a1.94,1.94,0,0,0,0-.22,2.79,2.79,0,0,0-.45-1.56,1.54,1.54,0,0,0-1.39-.69,1.64,1.64,0,0,0-1.23.5,1.79,1.79,0,0,0-.49,1.31,1.84,1.84,0,0,0,.49,1.31,2.53,2.53,0,0,0,1.49.68l-.24,1.35a3.46,3.46,0,0,1-2.11-1.13,3.23,3.23,0,0,1-.75-2.18,3.6,3.6,0,0,1,.39-1.67,2.84,2.84,0,0,1,1.06-1.16,2.7,2.7,0,0,1,1.42-.4,2.28,2.28,0,0,1,1.3.38,2.68,2.68,0,0,1,.94,1.14,2.57,2.57,0,0,1,.93-1.52,2.88,2.88,0,0,1,1.78-.54,3.25,3.25,0,0,1,2.45,1,3.7,3.7,0,0,1,1,2.66,3.45,3.45,0,0,1-.87,2.41A3.35,3.35,0,0,1,123.45,550.48Z"/><path class="cls-3" d="M126.36,541.16h-1.54v-1.55h1.54Z"/><path class="cls-3" d="M120.92,537.63a10.1,10.1,0,0,1-3.15-.4,3.93,3.93,0,0,1-1.84-1.19,3.08,3.08,0,0,1-.65-2,3.27,3.27,0,0,1,.36-1.56,2.93,2.93,0,0,1,1-1.1,5.47,5.47,0,0,1,1.64-.69,10.73,10.73,0,0,1,2.61-.25,10,10,0,0,1,3.13.4A4,4,0,0,1,125.9,532a3.09,3.09,0,0,1,.65,2,3,3,0,0,1-1.15,2.5A7.22,7.22,0,0,1,120.92,537.63Zm0-1.39a7,7,0,0,0,3.62-.63,1.9,1.9,0,0,0,.89-1.57,1.87,1.87,0,0,0-.9-1.57,6.93,6.93,0,0,0-3.61-.64,7,7,0,0,0-3.62.64,1.87,1.87,0,0,0-.89,1.58,1.72,1.72,0,0,0,.79,1.49A6.94,6.94,0,0,0,120.92,536.24Z"/><path class="cls-3" d="M126.36,524v1.36h-8.63a6.74,6.74,0,0,1,.93,1.28,8.44,8.44,0,0,1,.7,1.43h-1.31a7.93,7.93,0,0,0-1.29-2,4.94,4.94,0,0,0-1.48-1.2V524Z"/><path class="cls-3" d="M118,513.47l.11,1.34a2.41,2.41,0,0,0-1.16.52,1.76,1.76,0,0,0-.58,1.35,1.89,1.89,0,0,0,.36,1.14,3,3,0,0,0,1.36,1,7,7,0,0,0,2.55.39,3.16,3.16,0,0,1-1.46-2.68,3.1,3.1,0,0,1,1-2.31,3.62,3.62,0,0,1,2.58-1,4.25,4.25,0,0,1,1.93.45,3.26,3.26,0,0,1,1.36,1.23,3.31,3.31,0,0,1,.48,1.77,3.5,3.5,0,0,1-1.25,2.77,6.3,6.3,0,0,1-4.1,1.06,7.35,7.35,0,0,1-4.65-1.18,3.39,3.39,0,0,1-1.27-2.77,3.17,3.17,0,0,1,.73-2.14A3.12,3.12,0,0,1,118,513.47Zm4.76,5.53a3.15,3.15,0,0,0,1.34-.3,2.27,2.27,0,0,0,1-.83,2.11,2.11,0,0,0,.33-1.12,1.91,1.91,0,0,0-.69-1.48,2.73,2.73,0,0,0-1.88-.61,2.58,2.58,0,0,0-1.8.6,2,2,0,0,0-.66,1.54,2.1,2.1,0,0,0,.66,1.56A2.4,2.4,0,0,0,122.79,519Z"/><path class="cls-3" d="M119.23,509l-2.09.37h-1.81v-1.54h1.81l2.09.36Zm0,2.49-2.09.38h-1.81v-1.55h1.81l2.09.34Z"/><path class="cls-3" d="M129.61,505.25v1a13.59,13.59,0,0,0-7.24-2.25,12.66,12.66,0,0,0-2.8.32,11.51,11.51,0,0,0-2.17.72,25.39,25.39,0,0,0-2.26,1.21v-1a14.21,14.21,0,0,1,3.8-2.09,10.4,10.4,0,0,1,7.35.19A13.66,13.66,0,0,1,129.61,505.25Z"/><path class="cls-3" d="M273.42,627.42l.11,1.35-8.61.64a6.93,6.93,0,0,1,1,1.21,9.15,9.15,0,0,1,.81,1.37l-1.31.1A8.13,8.13,0,0,0,264,630.2a4.89,4.89,0,0,0-1.56-1.09l-.06-.87Z"/><path class="cls-3" d="M271.34,617l1.3-.1.54,7.27a2.19,2.19,0,0,1-.95-.09,5,5,0,0,1-1.53-.78,14.22,14.22,0,0,1-1.8-1.64,15,15,0,0,0-2.51-2.25,2.76,2.76,0,0,0-1.67-.51,1.81,1.81,0,0,0-1.31.67,2.07,2.07,0,0,0-.44,1.54,2.12,2.12,0,0,0,.7,1.52,2.22,2.22,0,0,0,1.67.47l0,1.4a3.43,3.43,0,0,1-2.45-.9,3.67,3.67,0,0,1-1-2.44,3.49,3.49,0,0,1,.69-2.57,2.88,2.88,0,0,1,2.11-1.08,3.34,3.34,0,0,1,1.32.17,5.14,5.14,0,0,1,1.41.8,21.4,21.4,0,0,1,2.09,1.94c.74.76,1.24,1.24,1.5,1.45a4.17,4.17,0,0,0,.77.52Z"/><path class="cls-3" d="M263.42,616.08a2.09,2.09,0,0,1-1.73-3.45,2,2,0,0,1,1.42-.72,2,2,0,0,1,1.52.51,2.08,2.08,0,0,1,.22,2.94A2,2,0,0,1,263.42,616.08Zm-.06-.82a1.28,1.28,0,0,0,1.18-1.36,1.25,1.25,0,0,0-.44-.86,1.27,1.27,0,0,0-.93-.31,1.27,1.27,0,0,0-1.17,1.36,1.19,1.19,0,0,0,.44.87A1.23,1.23,0,0,0,263.36,615.26Z"/><g class="cls-4"><path class="cls-5" d="M811.09,683.89s-3.54-19.11-19.82-24.06-128.84-27.61-128.84-27.61-80.7-14.87-83.53-112.56l.71-115.39C579.61,379.5,603,272.6,704.91,233c0,0,19.11-12,16.28-26.9-1.91-10-11.33-69.38-11.33-69.38s-8.52-32.87-42.47-35.39C596.08,96,525.8,95.1,504.24,95v0h-6.75v0c-21.56.15-91.84,1-163.15,6.34-34,2.52-42.48,35.39-42.48,35.39s-9.41,59.35-11.32,69.38c-2.83,14.86,16.28,26.9,16.28,26.9,101.94,39.64,125.3,146.54,125.3,171.31l.71,115.39c-2.83,97.69-83.54,112.56-83.54,112.56s-112.56,22.65-128.84,27.61-19.82,24.06-19.82,24.06v26.67c0,4,2.19,6.59,7.34,6.59s302.89-.68,302.89-.68l303.3.68a7,7,0,0,0,6.93-6.69Z"/><path class="cls-6" d="M333.13,633.46l168-34.36,154.81,31.4M250.44,178.27s-22,58.29-12.46,139.8m617.76,279.8H255.66M811.07,709.54v87.8M801,717.17,919.54,717M190.6,709.45v86.76m-76.2-79,83.77-.08M500.8,95.05l403.35-.94m-678,183,639.56-.05M232.83,220,501.14,276.5,704.91,233M811.09,683.89s-3.54-19.11-19.82-24.06-128.84-27.61-128.84-27.61-80.7-14.87-83.53-112.56l.71-115.39C579.61,379.5,603,272.6,704.91,233c0,0,19.11-12,16.28-26.9-1.91-10-11.33-69.38-11.33-69.38s-8.52-32.87-42.47-35.39C596.08,96,525.8,95.1,504.24,95v0h-6.75v0c-21.56.15-91.84,1-163.15,6.34-34,2.52-42.48,35.39-42.48,35.39s-9.41,59.35-11.32,69.38c-2.83,14.86,16.28,26.9,16.28,26.9,101.94,39.64,125.3,146.54,125.3,171.31l.71,115.39c-2.83,97.69-83.54,112.56-83.54,112.56s-112.56,22.65-128.84,27.61-19.82,24.06-19.82,24.06v26.67c0,4,2.19,6.59,7.34,6.59s302.89-.68,302.89-.68l303.3.68a7,7,0,0,0,6.93-6.69Z"/><path class="cls-7" d="M250.45,178s-5.58,18.33-7.27,26.79"/><path class="cls-7" d="M244.12,209.19c1.42-2.64,2.57-4.32,3.93-6.4l-8.6-1.72a70.53,70.53,0,0,1,1.16,7.42,51.71,51.71,0,0,1,.26,7.88,51.1,51.1,0,0,1,3.25-7.18"/><path class="cls-6" d="M250.45,178s-5.58,18.33-7.27,26.79"/><path class="cls-7" d="M243.65,207a37.41,37.41,0,0,1,2-3.21l-4.31-.85a32.89,32.89,0,0,1,.59,3.71,25.47,25.47,0,0,1,.12,3.93,26.61,26.61,0,0,1,1.63-3.58"/><path class="cls-7" d="M237.84,317.06s-2.18-22.51-2.18-28"/><path class="cls-7" d="M233.88,284.94c-.87,2.87-1.67,4.74-2.59,7.05h8.76a71.19,71.19,0,0,1-2.59-7.05,51.76,51.76,0,0,1-1.79-7.67,51.76,51.76,0,0,1-1.79,7.67"/><path class="cls-6" d="M237.84,317.06s-2.18-22.51-2.18-28"/><path class="cls-7" d="M234.77,287c-.43,1.44-.84,2.37-1.3,3.53h4.39a33.07,33.07,0,0,1-1.3-3.53,25.85,25.85,0,0,1-.89-3.83,26.11,26.11,0,0,1-.9,3.83"/><path class="cls-6" d="M284.58,554.63s-13.16,58,15,128.18"/><path class="cls-7" d="M284.54,554.41s-2.59,17.88-2.76,25.89"/><path class="cls-7" d="M283.47,584.44a74.63,74.63,0,0,1,2.75-7l-8.77-.19a71.91,71.91,0,0,1,2.44,7.1,52,52,0,0,1,1.62,7.72,51.46,51.46,0,0,1,2-7.64"/><path class="cls-6" d="M284.54,554.41s-2.59,17.88-2.76,25.89"/><path class="cls-7" d="M282.62,582.37c.47-1.42.89-2.35,1.38-3.49l-4.39-.1a33.86,33.86,0,0,1,1.22,3.55,25.34,25.34,0,0,1,.81,3.86,28,28,0,0,1,1-3.82"/><path class="cls-7" d="M299.18,682s-7.24-19.52-8.4-24.43"/><path class="cls-7" d="M288.11,653.94c-.19,3-.54,5-.91,7.46l8.54-2a65.32,65.32,0,0,1-4.14-6.26,52,52,0,0,1-3.51-7.06,51.74,51.74,0,0,1,0,7.88"/><path class="cls-6" d="M299.18,682s-7.24-19.52-8.4-24.43"/><path class="cls-7" d="M289.45,655.73c-.1,1.5-.27,2.51-.46,3.73l4.27-1a36.12,36.12,0,0,1-2.07-3.14,26.17,26.17,0,0,1-1.75-3.53,25.25,25.25,0,0,1,0,3.94"/></g><path class="cls-6" d="M721.49,2.58V208.76M280.23,5V208.76M291.72,49.69v89.62M710,51v88.34"/><line class="cls-2" x1="207.31" y1="770.18" x2="795.95" y2="770.18"/><polygon class="cls-3" points="207.31 773.99 192.48 770.01 207.31 766.04 207.31 773.99"/><polygon class="cls-3" points="794.46 773.99 809.29 770.01 794.46 766.04 794.46 773.99"/><path class="cls-3" d="M469.83,762.9h-1.35v-8.64a7,7,0,0,1-1.28.94,9.74,9.74,0,0,1-1.43.7v-1.31a8.24,8.24,0,0,0,2-1.3,5.11,5.11,0,0,0,1.2-1.47h.87Z"/><path class="cls-3" d="M473.3,760l1.42-.12a2.55,2.55,0,0,0,.74,1.56,2,2,0,0,0,1.39.52,2.16,2.16,0,0,0,1.65-.74,2.77,2.77,0,0,0,.68-2,2.51,2.51,0,0,0-.65-1.83,2.27,2.27,0,0,0-1.71-.67,2.35,2.35,0,0,0-1.18.3,2.2,2.2,0,0,0-.83.77l-1.27-.17,1.07-5.66h5.49v1.29h-4.41l-.59,3a3.6,3.6,0,0,1,2.08-.69,3.32,3.32,0,0,1,2.44,1,3.53,3.53,0,0,1,1,2.58,4,4,0,0,1-.88,2.58,3.46,3.46,0,0,1-2.89,1.34,3.56,3.56,0,0,1-2.46-.84A3.27,3.27,0,0,1,473.3,760Z"/><path class="cls-3" d="M489,761.59v1.31H481.7a2.3,2.3,0,0,1,.16-.94,4.78,4.78,0,0,1,.89-1.47,14.15,14.15,0,0,1,1.77-1.67,14.94,14.94,0,0,0,2.43-2.34,2.8,2.8,0,0,0,.63-1.63,1.84,1.84,0,0,0-.57-1.36,2.09,2.09,0,0,0-1.5-.55,2.12,2.12,0,0,0-1.57.59,2.19,2.19,0,0,0-.59,1.62L482,755a3.39,3.39,0,0,1,1.07-2.37,3.65,3.65,0,0,1,2.51-.82,3.49,3.49,0,0,1,2.51.88,2.87,2.87,0,0,1,.92,2.18,3.29,3.29,0,0,1-.27,1.3,5,5,0,0,1-.9,1.35,20.8,20.8,0,0,1-2.08,1.94c-.82.68-1.34,1.15-1.57,1.39a4.54,4.54,0,0,0-.57.73Z"/><path class="cls-3" d="M491.2,762.9v-1.55h1.55v1.55Z"/><path class="cls-3" d="M499.07,762.9v-2.65h-4.79V759l5-7.14h1.11V759h1.49v1.24h-1.49v2.65Zm0-3.89v-5l-3.46,5Z"/><path class="cls-3" d="M503.29,757.46a10,10,0,0,1,.41-3.15,3.81,3.81,0,0,1,1.19-1.84,3.08,3.08,0,0,1,2-.65,3.27,3.27,0,0,1,1.56.36,3,3,0,0,1,1.1,1,5.62,5.62,0,0,1,.69,1.64,11.14,11.14,0,0,1,.25,2.61,10.31,10.31,0,0,1-.4,3.13,4,4,0,0,1-1.19,1.84,3.37,3.37,0,0,1-4.52-.49A7.31,7.31,0,0,1,503.29,757.46Zm1.4,0a7,7,0,0,0,.63,3.61,1.82,1.82,0,0,0,3.14,0,10.69,10.69,0,0,0,0-7.23,1.88,1.88,0,0,0-1.58-.9,1.72,1.72,0,0,0-1.49.79A7,7,0,0,0,504.69,757.46Z"/><path class="cls-3" d="M519.11,766.14a13.59,13.59,0,0,1-1.9-3.31,10.46,10.46,0,0,1-.77-3.93,10.13,10.13,0,0,1,.58-3.43,14.45,14.45,0,0,1,2.09-3.79h1a22.63,22.63,0,0,0-1.2,2.23,12.3,12.3,0,0,0-.73,2.17,12.93,12.93,0,0,0-.32,2.83,13.59,13.59,0,0,0,2.25,7.23Z"/><path class="cls-3" d="M528.3,754.57l-1.34.1a2.56,2.56,0,0,0-.51-1.16,1.91,1.91,0,0,0-2.49-.22,3.08,3.08,0,0,0-1,1.37,7,7,0,0,0-.39,2.55,3.17,3.17,0,0,1,1.2-1.11,3.23,3.23,0,0,1,1.48-.36,3.06,3.06,0,0,1,2.31,1,3.58,3.58,0,0,1,1,2.57,4.19,4.19,0,0,1-.45,1.93,3.21,3.21,0,0,1-3,1.84,3.46,3.46,0,0,1-2.76-1.24,6.25,6.25,0,0,1-1.07-4.11,7.35,7.35,0,0,1,1.18-4.65,3.4,3.4,0,0,1,2.77-1.26,2.94,2.94,0,0,1,3.13,2.75Zm-5.53,4.75a3.12,3.12,0,0,0,.3,1.34,2.21,2.21,0,0,0,.83,1A2,2,0,0,0,525,762a1.91,1.91,0,0,0,1.48-.69,2.73,2.73,0,0,0,.62-1.88,2.59,2.59,0,0,0-.61-1.81,2,2,0,0,0-1.54-.65,2.13,2.13,0,0,0-1.56.65A2.41,2.41,0,0,0,522.77,759.32Z"/><path class="cls-3" d="M530.29,755.77l-.37-2.1v-1.8h1.54v1.8l-.34,2.1Zm2.49,0-.37-2.1v-1.8H534v1.8l-.37,2.1Z"/><path class="cls-3" d="M536.58,766.14h-1a13.59,13.59,0,0,0,2.25-7.23,12.68,12.68,0,0,0-.32-2.81,11.75,11.75,0,0,0-.72-2.17,24.24,24.24,0,0,0-1.21-2.25h1a14.45,14.45,0,0,1,2.09,3.79,10.13,10.13,0,0,1,.58,3.43,10.28,10.28,0,0,1-.78,3.93A13.57,13.57,0,0,1,536.58,766.14Z"/><g class="cls-4"><line class="cls-2" x1="182.21" y1="726.1" x2="114.4" y2="799.69"/></g><polygon class="cls-3" points="177.53 725.51 190.6 717.23 183.42 730.94 177.53 725.51"/><g class="cls-4"><path class="cls-3" d="M111.79,795l-8.13-7.46,3.31-3.6a6.29,6.29,0,0,1,1.73-1.45,2.52,2.52,0,0,1,1.61-.2,3.22,3.22,0,0,1,1.53.79,2.79,2.79,0,0,1,1,1.9,3.92,3.92,0,0,1-.83,2.42,3.9,3.9,0,0,1,1-.28,7.35,7.35,0,0,1,1.9.1l3.51.62-1.24,1.35-2.68-.48c-.77-.13-1.38-.21-1.83-.25a3.28,3.28,0,0,0-1,0,2.38,2.38,0,0,0-.67.29,4.7,4.7,0,0,0-.59.57l-1.14,1.24,3.61,3.31Zm-3.55-5.24,2.12-2.31a4.63,4.63,0,0,0,.9-1.3,1.63,1.63,0,0,0,.1-1.08,1.85,1.85,0,0,0-.53-.88,1.67,1.67,0,0,0-1.34-.45,2.65,2.65,0,0,0-1.58,1l-2.36,2.57Z"/><path class="cls-3" d="M122.38,783.46l-.92,1-6.36-5.84a6.83,6.83,0,0,1-.18,1.58,9,9,0,0,1-.45,1.52l-1-.88a8.19,8.19,0,0,0,.39-2.34,4.87,4.87,0,0,0-.28-1.88l.59-.65Z"/><path class="cls-3" d="M125.23,780.34l-1.13-1,1-1.14,1.14,1.05Z"/><path class="cls-3" d="M125.49,775.79l.87-1.12a2.52,2.52,0,0,0,1.64.51,2,2,0,0,0,1.33-.67,2.15,2.15,0,0,0,.57-1.72,2.75,2.75,0,0,0-1-1.82,2.51,2.51,0,0,0-1.79-.75,2.21,2.21,0,0,0-1.64.8,2.3,2.3,0,0,0-.58,1.07,2.27,2.27,0,0,0,0,1.13l-1,.83-3.45-4.62,3.71-4,1,.87-3,3.25L124,772a3.65,3.65,0,0,1,.9-2,3.3,3.3,0,0,1,2.38-1.12,3.52,3.52,0,0,1,2.57,1,4,4,0,0,1,1.32,2.39,3.48,3.48,0,0,1-1,3,3.54,3.54,0,0,1-2.28,1.24A3.22,3.22,0,0,1,125.49,775.79Z"/><path class="cls-3" d="M131.66,769.56l.8-1a2.27,2.27,0,0,0,1.41.43,1.72,1.72,0,0,0,1.11-.6,2.08,2.08,0,0,0,.53-1,2.37,2.37,0,0,0,0-1.09,4.46,4.46,0,0,0-.6-1.24,6.6,6.6,0,0,0-1.09-1.27l-.2-.17a3.12,3.12,0,0,1,0,1.52,3.13,3.13,0,0,1-3,2.43,3.6,3.6,0,0,1-2.57-1.07,3.68,3.68,0,0,1-1.32-2.55,3.29,3.29,0,0,1,.92-2.52,3.55,3.55,0,0,1,3.89-.94,8.22,8.22,0,0,1,2.6,1.76,10,10,0,0,1,2.17,2.61,3.91,3.91,0,0,1,.48,2.3,3.43,3.43,0,0,1-.95,2,3.09,3.09,0,0,1-2,1.08A3.14,3.14,0,0,1,131.66,769.56Zm.17-7.38a2.68,2.68,0,0,0-1.79-.79,1.92,1.92,0,0,0-1.51.64,2,2,0,0,0-.52,1.65,2.77,2.77,0,0,0,1,1.79,2.41,2.41,0,0,0,1.69.69,2.13,2.13,0,0,0,1.55-.71,2,2,0,0,0,.56-1.59A2.62,2.62,0,0,0,131.83,762.18Z"/><path class="cls-3" d="M146.49,762a13.78,13.78,0,0,1-3.72-.84,10.27,10.27,0,0,1-3.42-2.09,10.06,10.06,0,0,1-2.14-2.74,14.4,14.4,0,0,1-1.38-4.11l.66-.71a22.34,22.34,0,0,0,.83,2.39,11.54,11.54,0,0,0,1.11,2,12.39,12.39,0,0,0,1.86,2.15,13.57,13.57,0,0,0,6.85,3.23Z"/><path class="cls-3" d="M149,754.42l-.92,1-6.36-5.84a6.88,6.88,0,0,1-.18,1.58,8.24,8.24,0,0,1-.44,1.52l-1-.88a8.19,8.19,0,0,0,.39-2.34,5.09,5.09,0,0,0-.27-1.88l.59-.65Z"/><path class="cls-3" d="M151.06,752.46l-6.24-10.07.73-.79,6.25,10.06Z"/><path class="cls-3" d="M157.7,745l-.92,1-6.36-5.84a6.88,6.88,0,0,1-.18,1.58,9,9,0,0,1-.45,1.52l-1-.88a8.19,8.19,0,0,0,.39-2.34,5,5,0,0,0-.28-1.89l.59-.64Z"/><path class="cls-3" d="M158.65,731.58l-.83,1.06a2.63,2.63,0,0,0-1.2-.4,1.78,1.78,0,0,0-1.34.61,1.81,1.81,0,0,0-.5,1.08,3,3,0,0,0,.32,1.66,7.14,7.14,0,0,0,1.62,2,3.11,3.11,0,0,1,0-1.63,3.21,3.21,0,0,1,.74-1.34,3,3,0,0,1,2.29-1,3.52,3.52,0,0,1,2.54,1,4.12,4.12,0,0,1,1.12,1.63,3.23,3.23,0,0,1,.18,1.83,3.34,3.34,0,0,1-.85,1.63,3.46,3.46,0,0,1-2.79,1.19,6.26,6.26,0,0,1-3.74-2,7.33,7.33,0,0,1-2.63-4,3.41,3.41,0,0,1,.94-2.9,3.13,3.13,0,0,1,2-1.08A3.07,3.07,0,0,1,158.65,731.58Zm-.23,7.29a3,3,0,0,0,1.19.69,2.24,2.24,0,0,0,1.28,0,2,2,0,0,0,1-.6,1.9,1.9,0,0,0,.49-1.55,2.74,2.74,0,0,0-1-1.73,2.58,2.58,0,0,0-1.74-.77,2,2,0,0,0-1.52.69,2,2,0,0,0-.57,1.59A2.33,2.33,0,0,0,158.42,738.87Z"/><path class="cls-3" d="M160.88,730.93l-1.8-1.14-1.33-1.22,1-1.14,1.33,1.22,1.32,1.67Zm1.68-1.84L160.77,728l-1.33-1.22,1-1.14,1.33,1.22,1.3,1.69Z"/><path class="cls-3" d="M172.78,733.3l-.66.72a13.58,13.58,0,0,0-3.81-6.55,12.17,12.17,0,0,0-2.29-1.66,11.7,11.7,0,0,0-2.08-.93,24.39,24.39,0,0,0-2.48-.64l.66-.71a14.52,14.52,0,0,1,4.21,1,10.29,10.29,0,0,1,5.28,5.12A13.79,13.79,0,0,1,172.78,733.3Z"/></g><line class="cls-2" x1="435.57" y1="460.63" x2="565.3" y2="460.63"/><polygon class="cls-3" points="437.47 464.44 422.74 460.47 437.47 456.49 437.47 464.44"/><polygon class="cls-3" points="564.24 464.44 578.98 460.47 564.24 456.49 564.24 464.44"/><path class="cls-3" d="M460.69,448.26l1.35-.18a3,3,0,0,0,.8,1.66,2,2,0,0,0,1.36.5,2.2,2.2,0,0,0,1.62-.66,2.23,2.23,0,0,0,.66-1.64,2.07,2.07,0,0,0-2.16-2.14,3.89,3.89,0,0,0-1,.15l.15-1.19h.22a2.79,2.79,0,0,0,1.56-.45,1.54,1.54,0,0,0,.69-1.39,1.64,1.64,0,0,0-.5-1.23,1.79,1.79,0,0,0-1.31-.49,1.84,1.84,0,0,0-1.31.49,2.5,2.5,0,0,0-.68,1.49l-1.35-.24a3.47,3.47,0,0,1,1.12-2.11,3.27,3.27,0,0,1,2.19-.75,3.6,3.6,0,0,1,1.67.39,2.84,2.84,0,0,1,1.16,1.06,2.68,2.68,0,0,1,.4,1.42,2.36,2.36,0,0,1-.38,1.3,2.66,2.66,0,0,1-1.14.93,2.58,2.58,0,0,1,1.52.94,2.88,2.88,0,0,1,.54,1.78,3.27,3.27,0,0,1-1.05,2.45,3.69,3.69,0,0,1-2.66,1,3.42,3.42,0,0,1-2.41-.86A3.37,3.37,0,0,1,460.69,448.26Z"/><path class="cls-3" d="M471.34,445.19a2.59,2.59,0,0,1-1.25-.88,2.31,2.31,0,0,1-.41-1.37,2.68,2.68,0,0,1,.87-2,3.63,3.63,0,0,1,4.62,0,2.7,2.7,0,0,1,.88,2,2.24,2.24,0,0,1-.4,1.34,2.55,2.55,0,0,1-1.22.88,2.81,2.81,0,0,1,2.08,2.83,3.18,3.18,0,0,1-1,2.37,4.06,4.06,0,0,1-5.27,0,3.2,3.2,0,0,1-1-2.41,2.92,2.92,0,0,1,.54-1.8A2.72,2.72,0,0,1,471.34,445.19Zm-.71,2.8a2.5,2.5,0,0,0,.27,1.12,2,2,0,0,0,.82.84,2.47,2.47,0,0,0,1.17.29,2.25,2.25,0,0,0,1.58-3.83,2.26,2.26,0,0,0-1.63-.64,2.17,2.17,0,0,0-2.21,2.22Zm.44-5.1a1.7,1.7,0,0,0,.5,1.28,1.8,1.8,0,0,0,1.31.5,1.74,1.74,0,0,0,1.28-.5,1.59,1.59,0,0,0,.5-1.2,1.71,1.71,0,0,0-.51-1.26,1.8,1.8,0,0,0-1.29-.5,1.77,1.77,0,0,0-1.28.49A1.6,1.6,0,0,0,471.07,442.89Z"/><path class="cls-3" d="M478.58,451.17v-1.54h1.55v1.54Z"/><path class="cls-3" d="M487.21,451.17h-1.36v-8.63a6.74,6.74,0,0,1-1.28.93,8.82,8.82,0,0,1-1.43.7v-1.31a8.22,8.22,0,0,0,2-1.29,4.94,4.94,0,0,0,1.2-1.48h.88Z"/><path class="cls-3" d="M490.67,445.73a10,10,0,0,1,.41-3.15,3.93,3.93,0,0,1,1.19-1.84,3.08,3.08,0,0,1,2-.65,3.27,3.27,0,0,1,1.56.36,2.93,2.93,0,0,1,1.1,1,5.47,5.47,0,0,1,.69,1.64,10.73,10.73,0,0,1,.25,2.61,10,10,0,0,1-.4,3.13,4,4,0,0,1-1.19,1.85,3.09,3.09,0,0,1-2,.65,3,3,0,0,1-2.5-1.15A7.24,7.24,0,0,1,490.67,445.73Zm1.4,0a6.93,6.93,0,0,0,.63,3.61,1.82,1.82,0,0,0,3.14,0,10.53,10.53,0,0,0,0-7.23,1.88,1.88,0,0,0-1.58-.9,1.74,1.74,0,0,0-1.49.79A7,7,0,0,0,492.07,445.73Z"/><path class="cls-3" d="M506.49,454.41a13.4,13.4,0,0,1-1.9-3.31,10.38,10.38,0,0,1-.77-3.93,10.17,10.17,0,0,1,.58-3.43,14.45,14.45,0,0,1,2.09-3.79h1a23.85,23.85,0,0,0-1.2,2.23,11.75,11.75,0,0,0-.72,2.17,12.36,12.36,0,0,0-.33,2.83,13.59,13.59,0,0,0,2.25,7.23Z"/><path class="cls-3" d="M513.76,451.17h-1.35v-8.63a7.19,7.19,0,0,1-1.29.93,8.77,8.77,0,0,1-1.42.7v-1.31a8.15,8.15,0,0,0,2-1.29,5.15,5.15,0,0,0,1.21-1.48h.87Z"/><path class="cls-3" d="M526.61,451.17h-1.35v-8.63a7.19,7.19,0,0,1-1.29.93,8.77,8.77,0,0,1-1.42.7v-1.31a8,8,0,0,0,2-1.29,5.15,5.15,0,0,0,1.21-1.48h.87Z"/><path class="cls-3" d="M529.44,451.36l3.2-11.41h1.08l-3.19,11.41Z"/><path class="cls-3" d="M541.48,449.87v1.3h-7.29a2.3,2.3,0,0,1,.16-.94,4.78,4.78,0,0,1,.89-1.47,14.15,14.15,0,0,1,1.77-1.67,14.53,14.53,0,0,0,2.43-2.34,2.78,2.78,0,0,0,.63-1.63,1.81,1.81,0,0,0-.57-1.35,2.09,2.09,0,0,0-1.5-.56,2.12,2.12,0,0,0-1.57.59,2.2,2.2,0,0,0-.59,1.63l-1.4-.15a3.46,3.46,0,0,1,1.08-2.37,3.7,3.7,0,0,1,2.51-.82,3.54,3.54,0,0,1,2.51.88,2.89,2.89,0,0,1,.92,2.19,3.33,3.33,0,0,1-.27,1.3,5.07,5.07,0,0,1-.9,1.34,20.63,20.63,0,0,1-2.08,1.95c-.82.68-1.34,1.14-1.57,1.38a4.59,4.59,0,0,0-.57.74Z"/><path class="cls-3" d="M543.38,444l-.38-2.1v-1.8h1.54v1.8l-.34,2.1Zm2.49,0-.37-2.1v-1.8H547v1.8l-.36,2.1Z"/><path class="cls-3" d="M549.67,454.41h-1a13.59,13.59,0,0,0,2.25-7.23,12.52,12.52,0,0,0-1-5,24.84,24.84,0,0,0-1.22-2.26h1a14.45,14.45,0,0,1,2.09,3.79,10.42,10.42,0,0,1,.58,3.43,10.2,10.2,0,0,1-.78,3.93A13.7,13.7,0,0,1,549.67,454.41Z"/><g class="cls-4"><path class="cls-3" d="M719.93,409.37l4.27-5.75-3.77-5.28h1.74l2,2.83a14.1,14.1,0,0,1,.89,1.35q.38-.6.87-1.26l2.22-2.92h1.59l-3.87,5.2,4.17,5.83h-1.8l-2.78-3.94c-.16-.22-.32-.47-.48-.73-.25.4-.42.67-.53.82l-2.77,3.85Z"/><path class="cls-3" d="M98.46,409.37l4.26-5.75L99,398.34h1.74l2,2.83c.42.58.71,1,.89,1.35a13.11,13.11,0,0,1,.87-1.26l2.22-2.92h1.59l-3.88,5.2,4.18,5.83h-1.81L104,405.43c-.16-.22-.32-.47-.49-.73-.24.4-.42.67-.52.82l-2.77,3.85Z"/></g><line class="cls-8" x1="711.71" y1="404.23" x2="114.4" y2="404.23"/><path class="cls-3" d="M227.12,250.14l-.22,1.34-8.52-1.38a6.93,6.93,0,0,1,.71,1.42,8.81,8.81,0,0,1,.47,1.52l-1.3-.21a8.08,8.08,0,0,0-1-2.17,5,5,0,0,0-1.26-1.43l.14-.86Z"/><path class="cls-3" d="M227.52,239.49l1.29.2-1.17,7.2a2.25,2.25,0,0,1-.9-.31,4.94,4.94,0,0,1-1.31-1.11,13.65,13.65,0,0,1-1.36-2,15.1,15.1,0,0,0-1.92-2.77,2.75,2.75,0,0,0-1.51-.88,1.79,1.79,0,0,0-1.43.35,2.1,2.1,0,0,0-.79,1.39,2.16,2.16,0,0,0,.33,1.64,2.26,2.26,0,0,0,1.51.85l-.36,1.35a3.43,3.43,0,0,1-2.17-1.44,3.72,3.72,0,0,1-.41-2.61,3.55,3.55,0,0,1,1.27-2.34,2.92,2.92,0,0,1,2.31-.56,3.42,3.42,0,0,1,1.24.47,5,5,0,0,1,1.18,1.11,21.29,21.29,0,0,1,1.59,2.37,19.18,19.18,0,0,0,1.12,1.76,4.24,4.24,0,0,0,.63.69Z"/><path class="cls-3" d="M220.08,236.48a2,2,0,0,1-1.36-.84,2,2,0,0,1-.37-1.55,2.09,2.09,0,1,1,1.73,2.39Zm.13-.81a1.21,1.21,0,0,0,.94-.22,1.24,1.24,0,0,0,.52-.83,1.22,1.22,0,0,0-.23-.94,1.17,1.17,0,0,0-.83-.51,1.21,1.21,0,0,0-.94.22,1.27,1.27,0,0,0-.29,1.77A1.24,1.24,0,0,0,220.21,235.67Z"/><line class="cls-2" x1="369.77" y1="604.76" x2="285.62" y2="518.02"/><polygon class="cls-3" points="370.62 600.12 378.15 613.64 364.87 605.7 370.62 600.12"/><path class="cls-3" d="M290.38,515.84l7.92-7.68,3.41,3.51a6.46,6.46,0,0,1,1.34,1.82,2.45,2.45,0,0,1,.11,1.61,3.17,3.17,0,0,1-.88,1.49,2.79,2.79,0,0,1-1.95.83,3.89,3.89,0,0,1-2.37-1,3.56,3.56,0,0,1,.22,1,7.2,7.2,0,0,1-.21,1.89l-.82,3.47-1.28-1.32.63-2.65c.18-.76.3-1.37.36-1.81a3.35,3.35,0,0,0,0-1,2.36,2.36,0,0,0-.26-.69,4.08,4.08,0,0,0-.53-.62l-1.17-1.21-3.52,3.41Zm5.44-3.24,2.19,2.25a4.41,4.41,0,0,0,1.24,1,1.68,1.68,0,0,0,1.07.15,1.81,1.81,0,0,0,.91-.47,1.65,1.65,0,0,0,.53-1.31,2.67,2.67,0,0,0-.89-1.64l-2.43-2.5Z"/><path class="cls-3" d="M303.5,527.5l-.93.9-5.08-5.23a2.23,2.23,0,0,1,.79-.54,4.71,4.71,0,0,1,1.67-.38,13.58,13.58,0,0,1,2.44.1,14.67,14.67,0,0,0,3.37.12,2.69,2.69,0,0,0,1.6-.68,1.81,1.81,0,0,0,.58-1.36,2.06,2.06,0,0,0-.65-1.46,2.12,2.12,0,0,0-1.51-.72,2.26,2.26,0,0,0-1.58.71l-.87-1.1a3.44,3.44,0,0,1,2.46-.88,3.7,3.7,0,0,1,2.33,1.23,3.49,3.49,0,0,1,1.11,2.42,2.88,2.88,0,0,1-.92,2.18,3.11,3.11,0,0,1-1.12.71,5,5,0,0,1-1.59.3,24.86,24.86,0,0,1-2.85-.15c-1.06-.11-1.75-.16-2.09-.16a5.18,5.18,0,0,0-.92.1Z"/><path class="cls-3" d="M309.33,526.78a2.47,2.47,0,0,1-.24-1.51,2.29,2.29,0,0,1,.7-1.25,2.67,2.67,0,0,1,2-.79,3.62,3.62,0,0,1,3.21,3.34,2.68,2.68,0,0,1-.85,2,2.23,2.23,0,0,1-1.24.64,2.53,2.53,0,0,1-1.48-.26,2.94,2.94,0,0,1,.31,1.85,3,3,0,0,1-.9,1.61,3.17,3.17,0,0,1-2.4.93,4.08,4.08,0,0,1-3.66-3.78,3.22,3.22,0,0,1,1-2.4,2.93,2.93,0,0,1,1.68-.86A2.73,2.73,0,0,1,309.33,526.78Zm-2.51,1.44a2.5,2.5,0,0,0-.61,1,2,2,0,0,0,0,1.18,2.43,2.43,0,0,0,.6,1,2.18,2.18,0,0,0,1.56.71,2.1,2.1,0,0,0,1.58-.65,2.17,2.17,0,0,0,.71-1.59,2.24,2.24,0,0,0-.68-1.62,2.12,2.12,0,0,0-1.55-.69A2.16,2.16,0,0,0,306.82,528.22Zm4-3.24a1.7,1.7,0,0,0-.57,1.26,1.94,1.94,0,0,0,1.8,1.86,1.66,1.66,0,0,0,1.22-.48,1.74,1.74,0,0,0,.54-1.24,1.9,1.9,0,0,0-1.79-1.86A1.6,1.6,0,0,0,310.79,525Z"/><path class="cls-3" d="M310.08,536.14l1.11-1.07,1.07,1.11-1.11,1.07Z"/><path class="cls-3" d="M314.6,536.66l1.08.93a2.57,2.57,0,0,0-.61,1.62,2,2,0,0,0,.59,1.36,2.16,2.16,0,0,0,1.68.67,2.8,2.8,0,0,0,1.88-.87,2.55,2.55,0,0,0,.86-1.74,2.51,2.51,0,0,0-1.74-2.33,2.19,2.19,0,0,0-1.13-.06l-.77-1,4.81-3.18,3.82,3.94-.93.9-3.06-3.16-2.55,1.64a3.53,3.53,0,0,1,2,1,3.32,3.32,0,0,1,1,2.45,3.52,3.52,0,0,1-1.15,2.51,4.06,4.06,0,0,1-2.47,1.17,3.88,3.88,0,0,1-4.08-3.5A3.28,3.28,0,0,1,314.6,536.66Z"/><path class="cls-3" d="M325.44,538.21l.94-.91,5,5.13-.76.73a15.09,15.09,0,0,0-3.59.58,18.33,18.33,0,0,0-3.86,1.51A14.38,14.38,0,0,0,320.6,547l-1-1a13.85,13.85,0,0,1,2.62-1.82,16.64,16.64,0,0,1,3.53-1.47,15.46,15.46,0,0,1,3.42-.61Z"/><path class="cls-3" d="M327.18,558.43a13.57,13.57,0,0,1,1.06-3.66,10.37,10.37,0,0,1,5.14-5.27,14.47,14.47,0,0,1,4.18-1.14l.68.7c-1.17.29-2,.52-2.45.69a11.71,11.71,0,0,0-2.05,1,12.46,12.46,0,0,0-2.26,1.74,13.57,13.57,0,0,0-3.62,6.65Z"/><path class="cls-3" d="M334.57,561.39l-.94-1,6.19-6a7.3,7.3,0,0,1-1.56-.27,8.56,8.56,0,0,1-1.5-.54l.94-.91a8.36,8.36,0,0,0,2.31.53,5,5,0,0,0,1.9-.17l.61.63Z"/><path class="cls-3" d="M343.52,570.62l-.95-1,6.2-6a6.23,6.23,0,0,1-1.56-.27,9.17,9.17,0,0,1-1.5-.53l.94-.91a8.25,8.25,0,0,0,2.31.52,5,5,0,0,0,1.9-.16l.61.62Z"/><path class="cls-3" d="M345.35,572.78l10.42-5.65.75.78-10.41,5.65Z"/><path class="cls-3" d="M354.66,573.51a2.63,2.63,0,0,1-.24-1.51,2.36,2.36,0,0,1,.7-1.25,2.69,2.69,0,0,1,2.06-.78,3.62,3.62,0,0,1,3.2,3.33,2.7,2.7,0,0,1-.85,2.06,2.29,2.29,0,0,1-1.24.64,2.54,2.54,0,0,1-1.48-.27,3,3,0,0,1,.31,1.85,2.92,2.92,0,0,1-.89,1.61,3.18,3.18,0,0,1-2.41.94,4.08,4.08,0,0,1-3.66-3.79,3.22,3.22,0,0,1,1-2.39,3,3,0,0,1,1.68-.87A2.78,2.78,0,0,1,354.66,573.51Zm-2.5,1.44a2.56,2.56,0,0,0-.62,1,1.94,1.94,0,0,0,0,1.17,2.37,2.37,0,0,0,.6,1,2.15,2.15,0,0,0,1.56.72,2.32,2.32,0,0,0,2.29-2.25,2.26,2.26,0,0,0-.67-1.61,2.17,2.17,0,0,0-1.56-.7A2.12,2.12,0,0,0,352.16,575Zm4-3.23a1.68,1.68,0,0,0-.57,1.25,1.83,1.83,0,0,0,.55,1.29,1.77,1.77,0,0,0,1.25.57,1.64,1.64,0,0,0,1.22-.48,1.83,1.83,0,0,0-1.24-3.09A1.57,1.57,0,0,0,356.12,571.72Z"/><path class="cls-3" d="M360.3,577.69l1.25-1.73,1.3-1.26,1.07,1.11-1.3,1.25-1.74,1.22Zm1.74,1.79,1.25-1.73,1.29-1.26,1.08,1.11-1.3,1.26-1.76,1.2Z"/><path class="cls-3" d="M357.24,589.42l-.68-.7a13.46,13.46,0,0,0,6.76-3.41,12.15,12.15,0,0,0,1.79-2.19,12.56,12.56,0,0,0,1.06-2,25.25,25.25,0,0,0,.78-2.44l.67.69a14.26,14.26,0,0,1-1.26,4.14,10.38,10.38,0,0,1-5.42,5A13.89,13.89,0,0,1,357.24,589.42Z"/><line class="cls-2" x1="395.95" y1="347.69" x2="304.87" y2="385.57"/><polygon class="cls-3" points="391.96 345.19 407.29 343.16 395.03 352.59 391.96 345.19"/><path class="cls-3" d="M305.92,378.36l-4.23-10.19,4.51-1.87a6.66,6.66,0,0,1,2.19-.59,2.48,2.48,0,0,1,1.53.5,3.19,3.19,0,0,1,1.07,1.36,2.79,2.79,0,0,1,.05,2.12,3.84,3.84,0,0,1-1.77,1.85,3.65,3.65,0,0,1,1,.17,7.23,7.23,0,0,1,1.68.89l2.92,2-1.69.71L311,373.78c-.65-.45-1.17-.78-1.55-1a3.49,3.49,0,0,0-1-.4,2.26,2.26,0,0,0-.73,0,4.84,4.84,0,0,0-.77.27l-1.56.65,1.87,4.52Zm-1-6.25,2.9-1.2a4.9,4.9,0,0,0,1.37-.79,1.69,1.69,0,0,0,.53-.95,1.78,1.78,0,0,0-.1-1,1.66,1.66,0,0,0-1-1,2.64,2.64,0,0,0-1.85.22l-3.23,1.34Z"/><path class="cls-3" d="M314.56,371.64l1.27-.65a2.54,2.54,0,0,0,1.27,1.16,2,2,0,0,0,1.48,0,2.15,2.15,0,0,0,1.25-1.32,2.76,2.76,0,0,0-.12-2.06,2.5,2.5,0,0,0-1.31-1.44,2.25,2.25,0,0,0-1.83,0,2.31,2.31,0,0,0-1,.73,2.24,2.24,0,0,0-.47,1l-1.24.33-1.19-5.64,5.07-2.1.5,1.19-4.07,1.69.59,3a3.59,3.59,0,0,1,1.66-1.44,3.3,3.3,0,0,1,2.63,0,3.53,3.53,0,0,1,1.91,2,4,4,0,0,1,.18,2.73,3.49,3.49,0,0,1-2.16,2.35,3.56,3.56,0,0,1-2.59.16A3.29,3.29,0,0,1,314.56,371.64Z"/><path class="cls-3" d="M321.49,366a10.08,10.08,0,0,1-.83-3.06,3.83,3.83,0,0,1,.4-2.16,3,3,0,0,1,1.6-1.36,3.19,3.19,0,0,1,1.57-.27,2.94,2.94,0,0,1,1.42.53,5.5,5.5,0,0,1,1.26,1.25,10.85,10.85,0,0,1,1.23,2.31,10.33,10.33,0,0,1,.83,3.05,3.92,3.92,0,0,1-.39,2.16,3.11,3.11,0,0,1-1.61,1.37,3,3,0,0,1-2.75-.1A7.33,7.33,0,0,1,321.49,366Zm1.29-.53a6.87,6.87,0,0,0,2,3.09,1.82,1.82,0,0,0,2.9-1.2,7,7,0,0,0-.8-3.58,6.86,6.86,0,0,0-2-3.1,1.9,1.9,0,0,0-1.81-.22,1.74,1.74,0,0,0-1.07,1.3A7.08,7.08,0,0,0,322.78,365.47Z"/><path class="cls-3" d="M332.2,367.45l-.59-1.43,1.42-.59.59,1.43Z"/><path class="cls-3" d="M334.65,360a2.5,2.5,0,0,1-1.49-.33,2.28,2.28,0,0,1-.9-1.11,2.68,2.68,0,0,1,0-2.2,3.65,3.65,0,0,1,4.28-1.76,2.72,2.72,0,0,1,1.6,1.55,2.25,2.25,0,0,1,.14,1.39,2.57,2.57,0,0,1-.79,1.28,2.8,2.8,0,0,1,3,1.81,3.18,3.18,0,0,1,0,2.58,4.08,4.08,0,0,1-4.87,2,3.24,3.24,0,0,1-1.85-1.85,2.93,2.93,0,0,1-.18-1.87A2.76,2.76,0,0,1,334.65,360Zm-1.13-2a1.69,1.69,0,0,0,1,1,1.76,1.76,0,0,0,1.4,0,1.72,1.72,0,0,0,1-.95,1.63,1.63,0,0,0,0-1.3,1.69,1.69,0,0,0-.95-1,1.79,1.79,0,0,0-1.38,0,1.77,1.77,0,0,0-1,.95A1.59,1.59,0,0,0,333.52,357.94Zm1.55,4.87a2.49,2.49,0,0,0,.68.93,2,2,0,0,0,1.08.46A2.31,2.31,0,0,0,338,364a2.2,2.2,0,0,0,1.24-1.19,2.33,2.33,0,0,0-1.24-3,2.26,2.26,0,0,0-1.75,0,2.11,2.11,0,0,0-1.22,1.19A2.14,2.14,0,0,0,335.07,362.81Z"/><path class="cls-3" d="M340.56,358.08a9.8,9.8,0,0,1-.83-3.06,3.92,3.92,0,0,1,.39-2.16,3.11,3.11,0,0,1,1.6-1.36,3.23,3.23,0,0,1,1.58-.27,3,3,0,0,1,1.41.53A5.34,5.34,0,0,1,346,353a10.85,10.85,0,0,1,1.23,2.31,10.41,10.41,0,0,1,.83,3.05,3.83,3.83,0,0,1-.4,2.16,3.36,3.36,0,0,1-4.35,1.28A7.32,7.32,0,0,1,340.56,358.08Zm1.29-.53a6.87,6.87,0,0,0,2,3.09,1.82,1.82,0,0,0,2.9-1.2,10.65,10.65,0,0,0-2.77-6.68,1.9,1.9,0,0,0-1.81-.22,1.72,1.72,0,0,0-1.07,1.3A6.87,6.87,0,0,0,341.85,357.55Z"/><path class="cls-3" d="M358.5,360a13.68,13.68,0,0,1-3-2.33,10.34,10.34,0,0,1-2.22-3.33,10.46,10.46,0,0,1-.79-3.39,14.73,14.73,0,0,1,.48-4.31l.9-.37c-.16,1.19-.25,2-.26,2.52a12.51,12.51,0,0,0,.17,2.28,12.83,12.83,0,0,0,.78,2.74,13.64,13.64,0,0,0,4.86,5.82Z"/><path class="cls-3" d="M365.33,352.28l.5,1.2-6.73,2.8a2.35,2.35,0,0,1-.22-.93,5,5,0,0,1,.26-1.7,14.9,14.9,0,0,1,1-2.22,15.22,15.22,0,0,0,1.35-3.09,2.85,2.85,0,0,0,0-1.75,1.82,1.82,0,0,0-1.06-1,2.33,2.33,0,0,0-2.82,1.21,2.24,2.24,0,0,0,.08,1.73l-1.34.4a3.47,3.47,0,0,1,.08-2.61,3.67,3.67,0,0,1,2-1.71,3.46,3.46,0,0,1,2.66-.15,2.86,2.86,0,0,1,1.69,1.66,3.14,3.14,0,0,1,.25,1.3,5.05,5.05,0,0,1-.31,1.59,21.24,21.24,0,0,1-1.19,2.59c-.48.95-.79,1.57-.91,1.89a4.81,4.81,0,0,0-.25.89Z"/><path class="cls-3" d="M364.85,346.17l-1.15-1.79-.7-1.67,1.43-.59.69,1.67.49,2.07Zm2.3-.95-1.15-1.8-.69-1.67,1.43-.59.69,1.67.47,2.08Z"/><path class="cls-3" d="M374.63,353.34l-.89.37a13.55,13.55,0,0,0-.7-7.54,12.51,12.51,0,0,0-2.86-4.2c-.36-.34-1-.88-2-1.62l.9-.37a14.33,14.33,0,0,1,3.38,2.7,10.11,10.11,0,0,1,1.86,2.95,10.31,10.31,0,0,1,.78,3.92A13.43,13.43,0,0,1,374.63,353.34Z"/><path class="cls-3" d="M308.13,205l-5-9.81,4.35-2.23a6.25,6.25,0,0,1,2.13-.76,2.42,2.42,0,0,1,1.57.37,3.12,3.12,0,0,1,1.17,1.27,2.84,2.84,0,0,1,.23,2.11,3.87,3.87,0,0,1-1.62,2,4.29,4.29,0,0,1,1,.08,7.87,7.87,0,0,1,1.75.76l3.08,1.79-1.64.84L312.8,200c-.68-.39-1.23-.68-1.63-.87a3.33,3.33,0,0,0-1-.31,2.2,2.2,0,0,0-.73,0,3.6,3.6,0,0,0-.74.33l-1.51.77,2.24,4.36Zm-1.52-6.14,2.79-1.44a4.4,4.4,0,0,0,1.3-.9,1.69,1.69,0,0,0,.46-1,1.75,1.75,0,0,0-.19-1,1.64,1.64,0,0,0-1.09-.89,2.71,2.71,0,0,0-1.83.37l-3.11,1.6Z"/><path class="cls-3" d="M320,189.52l-1.15.71a2.55,2.55,0,0,0-1-.8,1.8,1.8,0,0,0-1.47.1,1.87,1.87,0,0,0-.85.84,3.09,3.09,0,0,0-.27,1.67,7.12,7.12,0,0,0,.82,2.45,3.21,3.21,0,0,1,.56-1.53,3.28,3.28,0,0,1,1.16-1,3.07,3.07,0,0,1,2.5-.17,3.6,3.6,0,0,1,2,1.86,4.36,4.36,0,0,1,.48,1.92,3.23,3.23,0,0,1-.47,1.78,3.32,3.32,0,0,1-1.36,1.23,3.47,3.47,0,0,1-3,.16,6.32,6.32,0,0,1-2.82-3.17A7.3,7.3,0,0,1,314,190.9a3.43,3.43,0,0,1,1.89-2.4,3.14,3.14,0,0,1,2.23-.32A3.06,3.06,0,0,1,320,189.52Zm-2.74,6.75a3.08,3.08,0,0,0,.87,1.06,2.25,2.25,0,0,0,1.19.49,2.12,2.12,0,0,0,1.15-.22,1.88,1.88,0,0,0,1-1.29,2.64,2.64,0,0,0-.31-1.95,2.58,2.58,0,0,0-1.36-1.33,2,2,0,0,0-1.67.12,2.06,2.06,0,0,0-1.08,1.3A2.33,2.33,0,0,0,317.22,196.27Z"/><path class="cls-3" d="M325.82,195.87l-.71-1.37,1.37-.71.71,1.38Z"/><path class="cls-3" d="M327.62,191.67l1.13-.78a3,3,0,0,0,1.46,1.11,2,2,0,0,0,1.45-.17,2.19,2.19,0,0,0,1.13-1.33,2.26,2.26,0,0,0-.16-1.76,2.08,2.08,0,0,0-2.9-.92,4,4,0,0,0-.78.57l-.41-1.12.2-.09a2.81,2.81,0,0,0,1.18-1.11,1.56,1.56,0,0,0,0-1.56,1.59,1.59,0,0,0-1-.86,1.74,1.74,0,0,0-1.38.16,1.81,1.81,0,0,0-.94,1,2.44,2.44,0,0,0,.07,1.63l-1.31.41a3.48,3.48,0,0,1,0-2.39,3.24,3.24,0,0,1,1.6-1.67,3.68,3.68,0,0,1,1.66-.42,2.86,2.86,0,0,1,1.52.41,2.82,2.82,0,0,1,1,1.08,2.4,2.4,0,0,1,.25,1.34,2.6,2.6,0,0,1-.58,1.34,2.63,2.63,0,0,1,1.78.14,2.85,2.85,0,0,1,1.29,1.34,3.25,3.25,0,0,1,.18,2.66,3.67,3.67,0,0,1-1.91,2.11,3.47,3.47,0,0,1-2.54.33A3.37,3.37,0,0,1,327.62,191.67Z"/><path class="cls-3" d="M335.25,187.77l1.21-.75a2.57,2.57,0,0,0,1.37,1,2,2,0,0,0,1.47-.17,2.19,2.19,0,0,0,1.14-1.41,2.77,2.77,0,0,0-.3-2.05,2.49,2.49,0,0,0-1.41-1.33,2.26,2.26,0,0,0-1.82.18,2.34,2.34,0,0,0-.92.81,2.23,2.23,0,0,0-.38,1.06l-1.21.44-1.64-5.53,4.88-2.51.59,1.15-3.91,2,.82,2.91a3.63,3.63,0,0,1,1.54-1.56,3.28,3.28,0,0,1,2.63-.23,3.49,3.49,0,0,1,2.06,1.84,4,4,0,0,1,.4,2.7,3.49,3.49,0,0,1-2,2.51,3.56,3.56,0,0,1-2.57.37A3.29,3.29,0,0,1,335.25,187.77Z"/><path class="cls-3" d="M352.12,186a13.76,13.76,0,0,1-3.2-2.08,10.47,10.47,0,0,1-3.54-6.46,14.43,14.43,0,0,1,.13-4.32l.86-.45c-.06,1.21-.08,2.05-.05,2.54a12.49,12.49,0,0,0,.35,2.26,12.92,12.92,0,0,0,1,2.66,13.5,13.5,0,0,0,5.3,5.4Z"/><path class="cls-3" d="M357.1,179.79l-1.2.62L352,172.73a6.94,6.94,0,0,1-.71,1.42,9.3,9.3,0,0,1-.95,1.27l-.6-1.16a8.41,8.41,0,0,0,1.18-2.06,5.08,5.08,0,0,0,.39-1.86l.78-.4Z"/><path class="cls-3" d="M359.71,178.67l-2.38-11.61,1-.5,2.38,11.61Z"/><path class="cls-3" d="M367.86,174.26l-1.21-2.34-4.26,2.18-.56-1.1,1.21-8.66,1-.51,3.27,6.36,1.32-.68.57,1.1-1.33.69,1.21,2.34Zm-1.78-3.45-2.27-4.42-.8,6Z"/><path class="cls-3" d="M368.76,165.79l-1.3-1.7-.82-1.6,1.37-.71.82,1.61.66,2Zm2.21-1.14-1.29-1.7-.82-1.6,1.37-.71.82,1.61.64,2Z"/><path class="cls-3" d="M379.09,172.14l-.86.44a13.55,13.55,0,0,0-1.31-7.46,12.19,12.19,0,0,0-1.57-2.35,11.73,11.73,0,0,0-1.63-1.6c-.38-.31-1.08-.79-2.1-1.45l.86-.45a14.55,14.55,0,0,1,3.59,2.42,10.33,10.33,0,0,1,3.19,6.64A13.61,13.61,0,0,1,379.09,172.14Z"/><line class="cls-2" x1="297.29" y1="216.92" x2="384.99" y2="171.81"/><polygon class="cls-3" points="301.47 219.09 286.35 222.36 297.81 211.96 301.47 219.09"/><line class="cls-2" x1="294.84" y1="16.51" x2="707.78" y2="16.51"/><polygon class="cls-3" points="295.46 20.32 280.64 16.34 295.46 12.37 295.46 20.32"/><polygon class="cls-3" points="706.44 20.32 721.26 16.34 706.44 12.37 706.44 20.32"/><line class="cls-2" x1="304.16" y1="62.97" x2="696.45" y2="62.97"/><polygon class="cls-3" points="306.87 66.77 292.04 62.8 306.87 58.83 306.87 66.77"/><polygon class="cls-3" points="695.06 66.77 709.89 62.8 695.06 58.83 695.06 66.77"/><g class="cls-4"><path class="cls-3" d="M471.42,11.22h-1.36V2.59a7.08,7.08,0,0,1-1.28.93,8.82,8.82,0,0,1-1.43.7V2.91a8.22,8.22,0,0,0,2-1.29,4.94,4.94,0,0,0,1.2-1.48h.88Z"/><path class="cls-3" d="M474.88,5.78a10,10,0,0,1,.41-3.15A3.81,3.81,0,0,1,476.48.79a3.08,3.08,0,0,1,2-.65A3.27,3.27,0,0,1,480,.5a3,3,0,0,1,1.1,1,5.74,5.74,0,0,1,.69,1.64,11.26,11.26,0,0,1,.25,2.61,10.27,10.27,0,0,1-.4,3.13,4,4,0,0,1-1.19,1.85,3.09,3.09,0,0,1-2,.65A3,3,0,0,1,476,10.26,7.29,7.29,0,0,1,474.88,5.78Zm1.4,0a7,7,0,0,0,.63,3.61,1.82,1.82,0,0,0,3.14,0,7,7,0,0,0,.63-3.61,7,7,0,0,0-.63-3.62,1.89,1.89,0,0,0-1.59-.9,1.74,1.74,0,0,0-1.48.79A7,7,0,0,0,476.28,5.78Z"/><path class="cls-3" d="M483.54,1.63V.33h7.14v1a15.2,15.2,0,0,0-2.08,3A17.88,17.88,0,0,0,487,8.19a13.87,13.87,0,0,0-.52,3h-1.39a13.07,13.07,0,0,1,.51-3.15A16.09,16.09,0,0,1,487,4.52,15.47,15.47,0,0,1,489,1.63Z"/><path class="cls-3" d="M492.78,11.22V9.68h1.55v1.54Z"/><path class="cls-3" d="M496.51,8.67l1.3-.12a2.28,2.28,0,0,0,.63,1.33,1.72,1.72,0,0,0,1.2.41,2,2,0,0,0,1.09-.28,2.27,2.27,0,0,0,.77-.77A4.16,4.16,0,0,0,502,8a7,7,0,0,0,.2-1.65V6a3.23,3.23,0,0,1-1.12,1,3,3,0,0,1-1.52.4,3.11,3.11,0,0,1-2.32-1,3.66,3.66,0,0,1-.94-2.62,3.75,3.75,0,0,1,1-2.7,3.31,3.31,0,0,1,2.48-1,3.58,3.58,0,0,1,2,.58,3.65,3.65,0,0,1,1.36,1.65,8.15,8.15,0,0,1,.46,3.11,9.87,9.87,0,0,1-.46,3.36,3.9,3.9,0,0,1-1.37,1.91,3.49,3.49,0,0,1-2.12.66,3.11,3.11,0,0,1-2.12-.72A3.11,3.11,0,0,1,496.51,8.67Zm5.54-4.87A2.62,2.62,0,0,0,501.43,2a1.93,1.93,0,0,0-1.49-.69,2.06,2.06,0,0,0-1.57.74,2.72,2.72,0,0,0-.67,1.91,2.36,2.36,0,0,0,.63,1.71,2.11,2.11,0,0,0,1.57.66,2,2,0,0,0,1.55-.66A2.58,2.58,0,0,0,502.05,3.8Z"/><path class="cls-3" d="M504.88,8.33l1.42-.12A2.54,2.54,0,0,0,507,9.77a2,2,0,0,0,1.39.52,2.19,2.19,0,0,0,1.66-.73,2.81,2.81,0,0,0,.67-2,2.5,2.5,0,0,0-.65-1.83,2.24,2.24,0,0,0-1.7-.67,2.33,2.33,0,0,0-1.18.3,2.28,2.28,0,0,0-.83.77L505.12,6,506.19.34h5.48V1.63h-4.4l-.6,3a3.63,3.63,0,0,1,2.09-.69,3.31,3.31,0,0,1,2.44,1,3.48,3.48,0,0,1,1,2.57,4,4,0,0,1-.87,2.59,3.52,3.52,0,0,1-2.9,1.34,3.56,3.56,0,0,1-2.46-.85A3.28,3.28,0,0,1,504.88,8.33Z"/><path class="cls-3" d="M520.69,14.46a13.07,13.07,0,0,1-1.89-3.31,10.36,10.36,0,0,1-.2-7.36A14.45,14.45,0,0,1,520.69,0h1c-.6,1-1,1.79-1.2,2.23a11.75,11.75,0,0,0-.72,2.17,12.36,12.36,0,0,0-.33,2.83,13.59,13.59,0,0,0,2.25,7.23Z"/><path class="cls-3" d="M527.2,11.22V8.58h-4.78V7.34l5-7.15h1.11V7.34H530V8.58h-1.48v2.64Zm0-3.88v-5l-3.45,5Z"/><path class="cls-3" d="M540.81,11.22h-1.35V2.59a7.19,7.19,0,0,1-1.29.93,8.38,8.38,0,0,1-1.42.7V2.91a8.22,8.22,0,0,0,2-1.29,5.27,5.27,0,0,0,1.2-1.48h.87Z"/><path class="cls-3" d="M543.64,11.41,546.84,0h1.08l-3.19,11.41Z"/><path class="cls-3" d="M552.9,11.22V8.58h-4.78V7.34l5-7.15h1.11V7.34h1.49V8.58h-1.49v2.64Zm0-3.88v-5l-3.45,5Z"/><path class="cls-3" d="M557.58,4.09,557.2,2V.19h1.54V2l-.34,2.1Zm2.49,0L559.7,2V.19h1.54V2l-.36,2.1Z"/><path class="cls-3" d="M563.87,14.46h-1a13.59,13.59,0,0,0,2.25-7.23,12.19,12.19,0,0,0-.33-2.81,12.14,12.14,0,0,0-.71-2.16c-.2-.45-.6-1.21-1.21-2.26h1A14.45,14.45,0,0,1,566,3.79a10.42,10.42,0,0,1,.58,3.43,10.2,10.2,0,0,1-.78,3.93A13.7,13.7,0,0,1,563.87,14.46Z"/></g><path class="cls-3" d="M476.55,58.12H475.2V49.49a7.19,7.19,0,0,1-1.29.93,9.68,9.68,0,0,1-1.42.7V49.81a8.15,8.15,0,0,0,2-1.29A5.15,5.15,0,0,0,475.68,47h.87Z"/><path class="cls-3" d="M480,52.68a10,10,0,0,1,.4-3.15,3.9,3.9,0,0,1,1.2-1.84,3.06,3.06,0,0,1,2-.65,3.2,3.2,0,0,1,1.55.36,3,3,0,0,1,1.11,1,5.47,5.47,0,0,1,.68,1.64,10.68,10.68,0,0,1,.25,2.61,10,10,0,0,1-.4,3.13,3.89,3.89,0,0,1-1.19,1.85,3.08,3.08,0,0,1-2,.65,3,3,0,0,1-2.51-1.15A7.24,7.24,0,0,1,480,52.68Zm1.39,0a6.82,6.82,0,0,0,.64,3.61,1.81,1.81,0,0,0,3.13,0,6.85,6.85,0,0,0,.64-3.61,6.84,6.84,0,0,0-.64-3.62,1.88,1.88,0,0,0-1.58-.9,1.75,1.75,0,0,0-1.49.79A7,7,0,0,0,481.41,52.68Z"/><path class="cls-3" d="M495.71,56.82v1.3h-7.29a2.47,2.47,0,0,1,.15-.94,5,5,0,0,1,.9-1.47A12.87,12.87,0,0,1,491.24,54a14.53,14.53,0,0,0,2.43-2.34,2.78,2.78,0,0,0,.63-1.63,1.77,1.77,0,0,0-.58-1.35,2.06,2.06,0,0,0-1.5-.56,2.11,2.11,0,0,0-1.56.59,2.25,2.25,0,0,0-.6,1.63l-1.39-.15a3.44,3.44,0,0,1,1.08-2.37,3.64,3.64,0,0,1,2.5-.82,3.55,3.55,0,0,1,2.52.88,2.92,2.92,0,0,1,.92,2.18,3.34,3.34,0,0,1-.27,1.31,5.07,5.07,0,0,1-.9,1.34,20,20,0,0,1-2.09,1.94c-.81.69-1.33,1.15-1.56,1.39a4.59,4.59,0,0,0-.57.74Z"/><path class="cls-3" d="M497.92,58.12V56.58h1.54v1.54Z"/><path class="cls-3" d="M501.45,55.21,502.8,55a2.94,2.94,0,0,0,.8,1.65,1.93,1.93,0,0,0,1.36.51,2.2,2.2,0,0,0,1.62-.66,2.26,2.26,0,0,0,.65-1.64,2.08,2.08,0,0,0-.61-1.54,2.1,2.1,0,0,0-1.55-.6,3.89,3.89,0,0,0-.95.15l.15-1.19h.22a2.78,2.78,0,0,0,1.55-.45,1.53,1.53,0,0,0,.7-1.39,1.61,1.61,0,0,0-.51-1.23,1.76,1.76,0,0,0-1.3-.49,1.84,1.84,0,0,0-1.31.49,2.45,2.45,0,0,0-.68,1.49l-1.36-.24a3.48,3.48,0,0,1,1.13-2.11A3.27,3.27,0,0,1,504.9,47a3.56,3.56,0,0,1,1.66.39,2.81,2.81,0,0,1,1.17,1.06,2.68,2.68,0,0,1,.4,1.42,2.36,2.36,0,0,1-.38,1.3,2.66,2.66,0,0,1-1.14.93,2.58,2.58,0,0,1,1.52.94,2.86,2.86,0,0,1,.54,1.78,3.27,3.27,0,0,1-1.05,2.45,3.7,3.7,0,0,1-2.67,1,3.46,3.46,0,0,1-2.41-.86A3.36,3.36,0,0,1,501.45,55.21Z"/><path class="cls-3" d="M510,55.23l1.42-.12a2.55,2.55,0,0,0,.74,1.56,2,2,0,0,0,1.38.52,2.16,2.16,0,0,0,1.66-.73,2.82,2.82,0,0,0,.68-2,2.54,2.54,0,0,0-.65-1.83,2.28,2.28,0,0,0-1.71-.67,2.35,2.35,0,0,0-1.18.3,2.28,2.28,0,0,0-.83.77l-1.27-.17,1.07-5.66h5.48v1.29h-4.4l-.59,3a3.61,3.61,0,0,1,2.08-.7,3.29,3.29,0,0,1,2.44,1,3.48,3.48,0,0,1,1,2.57,4,4,0,0,1-.87,2.59,3.87,3.87,0,0,1-5.35.49A3.25,3.25,0,0,1,510,55.23Z"/><path class="cls-3" d="M525.83,61.36a13.59,13.59,0,0,1-1.9-3.31,10.42,10.42,0,0,1-.19-7.36,14.17,14.17,0,0,1,2.09-3.79h1c-.61,1-1,1.79-1.21,2.23a13.46,13.46,0,0,0-.72,2.17,12.93,12.93,0,0,0-.32,2.83,13.59,13.59,0,0,0,2.25,7.23Z"/><path class="cls-3" d="M532.34,58.12V55.48h-4.79V54.24l5-7.15h1.11v7.15h1.49v1.24h-1.49v2.64Zm0-3.88v-5l-3.46,5Z"/><path class="cls-3" d="M546,58.12h-1.36V49.49a6.74,6.74,0,0,1-1.28.93,9.28,9.28,0,0,1-1.43.7V49.81a8.22,8.22,0,0,0,2-1.29,4.94,4.94,0,0,0,1.2-1.48H546Z"/><path class="cls-3" d="M548.78,58.31,552,46.9h1.09l-3.19,11.41Z"/><path class="cls-3" d="M553.71,55.21l1.35-.18a2.94,2.94,0,0,0,.79,1.65,2,2,0,0,0,1.37.51,2.18,2.18,0,0,0,1.61-.66,2.23,2.23,0,0,0,.66-1.64,2.08,2.08,0,0,0-.61-1.54,2.1,2.1,0,0,0-1.55-.6,3.89,3.89,0,0,0-1,.15l.15-1.19h.21a2.79,2.79,0,0,0,1.56-.45,1.54,1.54,0,0,0,.69-1.39,1.61,1.61,0,0,0-.5-1.23,1.78,1.78,0,0,0-1.3-.49,1.84,1.84,0,0,0-1.32.49,2.5,2.5,0,0,0-.68,1.49l-1.35-.24A3.48,3.48,0,0,1,555,47.79a3.27,3.27,0,0,1,2.19-.75,3.59,3.59,0,0,1,1.66.39A2.72,2.72,0,0,1,560,48.49a2.69,2.69,0,0,1,.41,1.42,2.29,2.29,0,0,1-.39,1.3,2.58,2.58,0,0,1-1.13.93,2.58,2.58,0,0,1,1.52.94,2.86,2.86,0,0,1,.54,1.78,3.27,3.27,0,0,1-1,2.45,3.73,3.73,0,0,1-2.67,1,3.44,3.44,0,0,1-2.41-.86A3.31,3.31,0,0,1,553.71,55.21Z"/><path class="cls-3" d="M569.39,56.82v1.3h-7.3a2.48,2.48,0,0,1,.16-.94,5.21,5.21,0,0,1,.89-1.47A13.66,13.66,0,0,1,564.92,54a14.94,14.94,0,0,0,2.43-2.34,2.78,2.78,0,0,0,.63-1.63,1.77,1.77,0,0,0-.58-1.35,2.06,2.06,0,0,0-1.5-.56,2.11,2.11,0,0,0-1.56.59,2.25,2.25,0,0,0-.6,1.63l-1.39-.15a3.39,3.39,0,0,1,1.08-2.37,3.62,3.62,0,0,1,2.5-.82,3.55,3.55,0,0,1,2.52.88,2.92,2.92,0,0,1,.92,2.18,3.34,3.34,0,0,1-.27,1.31,5.07,5.07,0,0,1-.9,1.34,20,20,0,0,1-2.09,1.94c-.81.69-1.33,1.15-1.56,1.39a4.59,4.59,0,0,0-.57.74Z"/><path class="cls-3" d="M571.28,51l-.38-2.1v-1.8h1.55v1.8l-.34,2.1Zm2.49,0-.37-2.1v-1.8H575v1.8l-.37,2.1Z"/><path class="cls-3" d="M577.5,61.36h-1a13.59,13.59,0,0,0,2.25-7.23,12.75,12.75,0,0,0-.32-2.81,11.41,11.41,0,0,0-.72-2.16,24,24,0,0,0-1.21-2.26h1a14.45,14.45,0,0,1,2.09,3.79,10.36,10.36,0,0,1-.2,7.36A13.57,13.57,0,0,1,577.5,61.36Z"/><line class="cls-2" x1="685.39" y1="120.82" x2="597.88" y2="204.17"/><polygon class="cls-3" points="680.76 119.92 694.35 112.51 686.29 125.72 680.76 119.92"/><path class="cls-3" d="M595.7,199.36l-7.61-8,3.54-3.37a6.41,6.41,0,0,1,1.83-1.33,2.46,2.46,0,0,1,1.61-.09,3.19,3.19,0,0,1,1.48.89,2.82,2.82,0,0,1,.82,2,3.86,3.86,0,0,1-1,2.36,4,4,0,0,1,1-.21,7.27,7.27,0,0,1,1.89.23l3.46.85-1.33,1.26-2.64-.65c-.77-.19-1.37-.31-1.81-.38a3.41,3.41,0,0,0-1.05,0,2.12,2.12,0,0,0-.68.25,3.94,3.94,0,0,0-.63.52l-1.22,1.17,3.37,3.54Zm-3.2-5.47,2.28-2.16a4.82,4.82,0,0,0,1-1.23,1.63,1.63,0,0,0,.16-1.07,1.77,1.77,0,0,0-.47-.92,1.63,1.63,0,0,0-1.3-.54,2.68,2.68,0,0,0-1.64.87L590,191.25Z"/><path class="cls-3" d="M607,188.57l-1,.93-5.95-6.25a7.38,7.38,0,0,1-.28,1.56,9.9,9.9,0,0,1-.55,1.49l-.91-1a7.93,7.93,0,0,0,.55-2.3,5.07,5.07,0,0,0-.15-1.9l.64-.6Z"/><path class="cls-3" d="M612.19,183.65l-1,.94-6-6.25a6.87,6.87,0,0,1-.29,1.56,8.91,8.91,0,0,1-.55,1.49l-.9-.95a8.61,8.61,0,0,0,.55-2.31,5,5,0,0,0-.15-1.89l.63-.61Z"/><path class="cls-3" d="M615.25,180.74l-1.06-1.12,1.12-1.06,1.06,1.11Z"/><path class="cls-3" d="M621.27,175l-1,.94-5.95-6.25a7.38,7.38,0,0,1-.28,1.56,9.9,9.9,0,0,1-.55,1.49l-.91-1a7.92,7.92,0,0,0,.55-2.31,5,5,0,0,0-.15-1.89l.63-.61Z"/><path class="cls-3" d="M627.48,169.1l-1,.93-6-6.25a7.47,7.47,0,0,1-.29,1.56,8.91,8.91,0,0,1-.55,1.49l-.9-1a8.24,8.24,0,0,0,.54-2.3,5.09,5.09,0,0,0-.14-1.9l.63-.6Z"/><path class="cls-3" d="M636.42,165.06a13.51,13.51,0,0,1-3.65-1.09,10.4,10.4,0,0,1-5.22-5.2,14.45,14.45,0,0,1-1.1-4.19l.7-.67c.28,1.18.51,2,.67,2.45a12.24,12.24,0,0,0,2.69,4.34,13.55,13.55,0,0,0,6.62,3.69Z"/><path class="cls-3" d="M629.21,154.21l-.9-.94,5.17-4.93.73.76a15.41,15.41,0,0,0,.54,3.6,18.14,18.14,0,0,0,1.48,3.87,13.83,13.83,0,0,0,1.72,2.56l-1,1a13.53,13.53,0,0,1-1.8-2.63,16.38,16.38,0,0,1-1.43-3.55,15.43,15.43,0,0,1-.59-3.43Z"/><path class="cls-3" d="M641.63,155.88l-5.55-10.47.78-.74,5.56,10.46Z"/><path class="cls-3" d="M648.76,148.83l-1,.94-6-6.25a6.79,6.79,0,0,1-.28,1.56,9.26,9.26,0,0,1-.55,1.49l-.9-.95a8.22,8.22,0,0,0,.54-2.31,5.31,5.31,0,0,0-.14-1.9l.63-.6Z"/><path class="cls-3" d="M650.61,135.56l-.9,1a2.43,2.43,0,0,0-1.17-.49,1.78,1.78,0,0,0-1.38.51,1.89,1.89,0,0,0-.57,1,3,3,0,0,0,.21,1.68,6.87,6.87,0,0,0,1.48,2.11,3.14,3.14,0,0,1,.1-1.62,3.26,3.26,0,0,1,.83-1.29,3.07,3.07,0,0,1,2.35-.87,3.63,3.63,0,0,1,2.47,1.21,4.27,4.27,0,0,1,1,1.71,3.3,3.3,0,0,1,.05,1.84,3.37,3.37,0,0,1-1,1.57,3.5,3.5,0,0,1-2.86,1,6.27,6.27,0,0,1-3.6-2.24,7.39,7.39,0,0,1-2.36-4.18,3.42,3.42,0,0,1,1.14-2.83,3,3,0,0,1,4.16-.17Zm-.72,7.26a3,3,0,0,0,1.14.76,2.16,2.16,0,0,0,1.27.13,2,2,0,0,0,1-.53,1.85,1.85,0,0,0,.59-1.51,2.7,2.7,0,0,0-.85-1.79,2.55,2.55,0,0,0-1.68-.89,2,2,0,0,0-1.57.59,2.09,2.09,0,0,0-.67,1.55A2.37,2.37,0,0,0,649.89,142.82Z"/><path class="cls-3" d="M652.88,135.06l-1.72-1.26-1.24-1.31,1.11-1.06,1.25,1.31,1.2,1.75Zm1.81-1.72L653,132.08l-1.25-1.31,1.12-1.06,1.25,1.3,1.18,1.77Z"/><path class="cls-3" d="M664.59,138.23l-.71.67a13.58,13.58,0,0,0-3.35-6.79,12.41,12.41,0,0,0-4.18-2.88c-.46-.19-1.27-.46-2.44-.8l.7-.67a14.51,14.51,0,0,1,4.13,1.3,10.1,10.1,0,0,1,2.79,2.09,10.22,10.22,0,0,1,2.14,3.38A13.92,13.92,0,0,1,664.59,138.23Z"/><line class="cls-2" x1="456.49" y1="108.29" x2="464.09" y2="228.9"/><polygon class="cls-3" points="452.83 111.25 455.89 96.09 460.83 110.75 452.83 111.25"/><path class="cls-3" d="M459.12,227.52l-11,.69-.31-4.88a6.44,6.44,0,0,1,.16-2.26,2.45,2.45,0,0,1,1-1.29,3.1,3.1,0,0,1,1.63-.56,2.77,2.77,0,0,1,2,.63,3.81,3.81,0,0,1,1.17,2.28,3.57,3.57,0,0,1,.49-.91,7.61,7.61,0,0,1,1.39-1.3l2.87-2.11.12,1.84-2.2,1.6c-.63.46-1.12.85-1.45,1.14a3.47,3.47,0,0,0-.69.79,2.34,2.34,0,0,0-.25.68,5.4,5.4,0,0,0,0,.82l.11,1.69,4.88-.31Zm-6.24-1.07-.19-3.14a4.73,4.73,0,0,0-.31-1.55,1.71,1.71,0,0,0-.71-.81,1.79,1.79,0,0,0-1-.23,1.64,1.64,0,0,0-1.25.65,2.66,2.66,0,0,0-.39,1.82l.22,3.49Z"/><path class="cls-3" d="M458.14,211.89l.09,1.35-8.62.54a7,7,0,0,1,1,1.22,9.26,9.26,0,0,1,.78,1.38l-1.3.08a8.64,8.64,0,0,0-1.42-1.9,5,5,0,0,0-1.55-1.1l-.05-.88Z"/><path class="cls-3" d="M457.65,204.09l-2.63.17.3,4.78-1.24.07-7.45-4.57-.07-1.11,7.13-.45-.09-1.48,1.24-.08.09,1.49,2.64-.17Zm-3.87.25-5,.31,5.18,3.13Z"/><path class="cls-3" d="M454.5,200.06l-.21-1.42a2.55,2.55,0,0,0,1.52-.83,2,2,0,0,0,.43-1.42,2.15,2.15,0,0,0-.84-1.6,2.77,2.77,0,0,0-2-.55,2.52,2.52,0,0,0-1.79.76,2.27,2.27,0,0,0-.56,1.74,2.38,2.38,0,0,0,.37,1.16,2.26,2.26,0,0,0,.82.78l-.08,1.28-5.72-.71-.35-5.47,1.29-.08.28,4.39,3,.4a3.57,3.57,0,0,1-.83-2,3.29,3.29,0,0,1,.85-2.5,3.52,3.52,0,0,1,2.51-1.15,4,4,0,0,1,2.63.71,3.46,3.46,0,0,1,1.52,2.8,3.54,3.54,0,0,1-.68,2.51A3.34,3.34,0,0,1,454.5,200.06Z"/><path class="cls-3" d="M447.28,191.83l-1.3.08-.45-7.12,1.05-.07a14.71,14.71,0,0,0,3.1,1.9A18,18,0,0,0,453.6,188a14,14,0,0,0,3.06.33l.09,1.39a13.44,13.44,0,0,1-3.18-.31,16.55,16.55,0,0,1-3.63-1.18,15,15,0,0,1-3-1.76Z"/><path class="cls-3" d="M456.26,182l-1.54.09-.1-1.54,1.55-.09Z"/><path class="cls-3" d="M454.29,171.47l1.3-.08.46,7.28a2.55,2.55,0,0,1-.95-.1,5.2,5.2,0,0,1-1.52-.8,14.66,14.66,0,0,1-1.78-1.66,14.36,14.36,0,0,0-2.48-2.28,2.77,2.77,0,0,0-1.67-.53,1.77,1.77,0,0,0-1.31.66,2.05,2.05,0,0,0-.46,1.53,2.15,2.15,0,0,0,.68,1.53,2.25,2.25,0,0,0,1.66.49l-.05,1.4a3.41,3.41,0,0,1-2.44-.93,3.63,3.63,0,0,1-1-2.45,3.46,3.46,0,0,1,.72-2.56,2.88,2.88,0,0,1,2.12-1.06,3.12,3.12,0,0,1,1.31.19,4.78,4.78,0,0,1,1.4.81,21.32,21.32,0,0,1,2.07,2c.74.77,1.23,1.26,1.49,1.48a4.29,4.29,0,0,0,.76.52Z"/><path class="cls-3" d="M450.07,170.28a10.05,10.05,0,0,1-3.16-.2A4,4,0,0,1,445,169a3.07,3.07,0,0,1-.77-1.95,3.36,3.36,0,0,1,.26-1.58,3,3,0,0,1,1-1.17,5.56,5.56,0,0,1,1.6-.79,11.2,11.2,0,0,1,2.58-.41,10.32,10.32,0,0,1,3.15.2,4,4,0,0,1,1.92,1.08,3.37,3.37,0,0,1-.21,4.53A7.23,7.23,0,0,1,450.07,170.28Zm-.08-1.39a6.87,6.87,0,0,0,3.56-.86,1.85,1.85,0,0,0,.8-1.62,1.88,1.88,0,0,0-1-1.51,10.58,10.58,0,0,0-7.21.45,1.9,1.9,0,0,0-.8,1.64,1.77,1.77,0,0,0,.88,1.44A7,7,0,0,0,450,168.89Z"/><path class="cls-3" d="M457.75,154a13.37,13.37,0,0,1-3.19,2.1,10.11,10.11,0,0,1-3.87,1,10,10,0,0,1-3.46-.36,14.47,14.47,0,0,1-3.92-1.85l-.06-1a23.7,23.7,0,0,0,2.31,1.06,12.39,12.39,0,0,0,2.21.59,12.89,12.89,0,0,0,2.84.14,13.56,13.56,0,0,0,7.08-2.7Z"/><path class="cls-3" d="M454.05,146.9l.09,1.35-8.62.54a7.08,7.08,0,0,1,1,1.23,8.79,8.79,0,0,1,.78,1.38l-1.3.08a7.92,7.92,0,0,0-1.42-1.9,4.9,4.9,0,0,0-1.55-1.11l-.05-.87Z"/><path class="cls-3" d="M447.84,143.44a2.5,2.5,0,0,1-.8,1.3,2.23,2.23,0,0,1-1.34.49,2.67,2.67,0,0,1-2.07-.73,3.18,3.18,0,0,1-1-2.25,3.23,3.23,0,0,1,.69-2.37,2.75,2.75,0,0,1,2-1,2.24,2.24,0,0,1,1.36.32,2.55,2.55,0,0,1,.95,1.16,2.82,2.82,0,0,1,2.69-2.25,3.21,3.21,0,0,1,2.44.85,3.66,3.66,0,0,1,1.12,2.57,3.59,3.59,0,0,1-.8,2.69,3.19,3.19,0,0,1-2.34,1.15,2.87,2.87,0,0,1-1.83-.43A2.73,2.73,0,0,1,447.84,143.44Zm-2.27.41a1.68,1.68,0,0,0,1.24-.58,1.93,1.93,0,0,0-.16-2.59,1.62,1.62,0,0,0-1.23-.42,1.7,1.7,0,0,0-1.22.59,1.78,1.78,0,0,0-.43,1.32,1.82,1.82,0,0,0,.58,1.25A1.59,1.59,0,0,0,445.57,143.85Zm5.11.12a2.48,2.48,0,0,0,1.1-.34,2,2,0,0,0,.79-.87,2.39,2.39,0,0,0,.22-1.18,2.21,2.21,0,0,0-.72-1.57,2.18,2.18,0,0,0-1.63-.53,2.23,2.23,0,0,0-2.11,2.42,2.16,2.16,0,0,0,2.35,2.07Z"/><path class="cls-3" d="M446.11,134.11l-2.07.5-1.8.11-.1-1.54,1.8-.11,2.12.23Zm.15,2.49-2.07.5-1.8.12-.1-1.54,1.81-.12,2.11.21Z"/><path class="cls-3" d="M456.23,129.82l.06,1a13.65,13.65,0,0,0-7.36-1.79,12.58,12.58,0,0,0-2.78.5,11.88,11.88,0,0,0-2.12.85,23.24,23.24,0,0,0-2.17,1.35l-.07-1a14.44,14.44,0,0,1,3.66-2.32,10.19,10.19,0,0,1,3.39-.8,10.34,10.34,0,0,1,4,.53A14,14,0,0,1,456.23,129.82Z"/><path class="cls-3" d="M839.32,698h1.3v7.29a2.29,2.29,0,0,1-.94-.15,5.21,5.21,0,0,1-1.47-.89,13.66,13.66,0,0,1-1.67-1.78,14.53,14.53,0,0,0-2.34-2.43,2.78,2.78,0,0,0-1.63-.63,1.77,1.77,0,0,0-1.35.58,2.06,2.06,0,0,0-.56,1.5,2.11,2.11,0,0,0,.59,1.56,2.25,2.25,0,0,0,1.63.6l-.15,1.39a3.44,3.44,0,0,1-2.37-1.08,3.62,3.62,0,0,1-.82-2.5,3.55,3.55,0,0,1,.88-2.52,2.92,2.92,0,0,1,2.18-.92,3.34,3.34,0,0,1,1.31.27,5.07,5.07,0,0,1,1.34.9,21.17,21.17,0,0,1,1.94,2.09c.69.81,1.15,1.33,1.39,1.56a4.59,4.59,0,0,0,.74.57Z"/><path class="cls-3" d="M834.64,694.51a2.59,2.59,0,0,1-.88,1.25,2.31,2.31,0,0,1-1.37.4,2.67,2.67,0,0,1-2-.86,3.64,3.64,0,0,1,0-4.63,2.7,2.7,0,0,1,2-.88,2.24,2.24,0,0,1,1.34.4,2.58,2.58,0,0,1,.88,1.23,2.9,2.9,0,0,1,1.07-1.55,2.94,2.94,0,0,1,1.76-.53,3.14,3.14,0,0,1,2.37,1,3.6,3.6,0,0,1,1,2.63,3.67,3.67,0,0,1-1,2.64,3.24,3.24,0,0,1-2.41,1,2.92,2.92,0,0,1-1.8-.55A2.66,2.66,0,0,1,834.64,694.51Zm-2.3.27a1.71,1.71,0,0,0,1.28-.51,1.78,1.78,0,0,0,.5-1.31,1.76,1.76,0,0,0-.5-1.28,1.62,1.62,0,0,0-1.2-.5,1.68,1.68,0,0,0-1.26.52,1.92,1.92,0,0,0,0,2.57A1.6,1.6,0,0,0,832.34,694.78Zm5.1.43a2.5,2.5,0,0,0,1.12-.27,1.9,1.9,0,0,0,.84-.82,2.46,2.46,0,0,0,.29-1.16,2.23,2.23,0,0,0-.62-1.61,2.16,2.16,0,0,0-1.59-.63,2.2,2.2,0,0,0-1.62.65,2.27,2.27,0,0,0-.64,1.63,2.15,2.15,0,0,0,2.22,2.21Z"/><path class="cls-3" d="M840.62,687.26h-1.54v-1.54h1.54Z"/><path class="cls-3" d="M834.64,681.66a2.64,2.64,0,0,1-.88,1.25,2.31,2.31,0,0,1-1.37.4,2.7,2.7,0,0,1-2-.86,3.26,3.26,0,0,1-.82-2.31,3.23,3.23,0,0,1,.84-2.32,2.7,2.7,0,0,1,2-.88,2.24,2.24,0,0,1,1.34.4,2.6,2.6,0,0,1,.88,1.22,2.91,2.91,0,0,1,1.07-1.54,2.87,2.87,0,0,1,1.76-.53,3.14,3.14,0,0,1,2.37,1,3.59,3.59,0,0,1,1,2.63,3.63,3.63,0,0,1-1,2.63,3.2,3.2,0,0,1-2.41,1,2.92,2.92,0,0,1-1.8-.54A2.66,2.66,0,0,1,834.64,681.66Zm-2.3.27a1.71,1.71,0,0,0,1.28-.51,1.78,1.78,0,0,0,.5-1.31,1.74,1.74,0,0,0-.5-1.28,1.62,1.62,0,0,0-1.2-.5,1.68,1.68,0,0,0-1.26.52,1.92,1.92,0,0,0,0,2.57A1.6,1.6,0,0,0,832.34,681.93Zm5.1.43a2.5,2.5,0,0,0,1.12-.27,2,2,0,0,0,.84-.82,2.46,2.46,0,0,0,.29-1.16,2.22,2.22,0,0,0-.62-1.61,2.16,2.16,0,0,0-1.59-.63,2.2,2.2,0,0,0-1.62.65,2.27,2.27,0,0,0-.64,1.63,2.13,2.13,0,0,0,.64,1.59A2.16,2.16,0,0,0,837.44,682.36Z"/><path class="cls-3" d="M831,675.08h-1.3v-7.14h1a15.21,15.21,0,0,0,3,2.09,18.4,18.4,0,0,0,3.83,1.6,14.49,14.49,0,0,0,3,.52v1.39a14.14,14.14,0,0,1-3.15-.51,16.63,16.63,0,0,1-3.55-1.41,15.61,15.61,0,0,1-2.89-1.94Z"/><path class="cls-3" d="M843.86,659.35a13.59,13.59,0,0,1-3.31,1.9,10.2,10.2,0,0,1-3.93.78,10.42,10.42,0,0,1-3.43-.58,14.5,14.5,0,0,1-3.79-2.1v-1c1,.61,1.79,1,2.23,1.21a13.46,13.46,0,0,0,2.17.72,12.35,12.35,0,0,0,2.83.32,13.59,13.59,0,0,0,7.23-2.25Z"/><path class="cls-3" d="M840.62,652.08v1.36H832a7.08,7.08,0,0,1,.93,1.28,9.74,9.74,0,0,1,.7,1.43h-1.31a8.22,8.22,0,0,0-1.29-2,4.94,4.94,0,0,0-1.48-1.2v-.88Z"/><path class="cls-3" d="M838.07,644.13l-.12-1.3a2.28,2.28,0,0,0,1.33-.63,1.76,1.76,0,0,0,.41-1.2,2,2,0,0,0-.28-1.09,2.27,2.27,0,0,0-.77-.77,4.67,4.67,0,0,0-1.29-.51,7,7,0,0,0-1.65-.2h-.27a3.11,3.11,0,0,1,1.05,1.11,3.05,3.05,0,0,1,.4,1.52,3.11,3.11,0,0,1-1,2.32,3.66,3.66,0,0,1-2.62.94,3.75,3.75,0,0,1-2.7-1,3.29,3.29,0,0,1-1-2.48,3.58,3.58,0,0,1,.58-2,3.65,3.65,0,0,1,1.65-1.36,8.35,8.35,0,0,1,3.11-.46,9.87,9.87,0,0,1,3.36.46,3.94,3.94,0,0,1,1.91,1.37,3.49,3.49,0,0,1,.66,2.12,2.91,2.91,0,0,1-2.74,3.1Zm-4.87-5.54a2.61,2.61,0,0,0-1.85.62,1.93,1.93,0,0,0-.69,1.49,2.06,2.06,0,0,0,.74,1.57,2.72,2.72,0,0,0,1.91.67,2.37,2.37,0,0,0,1.71-.63,2.11,2.11,0,0,0,.66-1.57,2,2,0,0,0-.66-1.55A2.59,2.59,0,0,0,833.2,638.59Z"/><path class="cls-3" d="M840.81,636.4l-11.41-3.19v-1.09l11.41,3.19Z"/><path class="cls-3" d="M832.29,624.46l.1,1.34a2.52,2.52,0,0,0-1.15.51,1.79,1.79,0,0,0-.58,1.36,1.84,1.84,0,0,0,.36,1.13,3,3,0,0,0,1.36,1,7,7,0,0,0,2.55.39,3.17,3.17,0,0,1-1.11-1.2,3.2,3.2,0,0,1-.36-1.48,3.08,3.08,0,0,1,1-2.31,3.59,3.59,0,0,1,2.58-1,4.25,4.25,0,0,1,1.93.45,3.26,3.26,0,0,1,1.36,1.23,3.31,3.31,0,0,1,.48,1.77,3.5,3.5,0,0,1-1.25,2.77,6.3,6.3,0,0,1-4.1,1.06,7.31,7.31,0,0,1-4.65-1.18,3.38,3.38,0,0,1-1.27-2.77,3.17,3.17,0,0,1,.73-2.14A3.12,3.12,0,0,1,832.29,624.46ZM837,630a3.09,3.09,0,0,0,1.34-.3,2.3,2.3,0,0,0,1-.83,2.11,2.11,0,0,0,.33-1.12,1.91,1.91,0,0,0-.69-1.48,2.73,2.73,0,0,0-1.88-.62,2.58,2.58,0,0,0-1.8.61,2,2,0,0,0-.66,1.54,2.1,2.1,0,0,0,.66,1.56A2.39,2.39,0,0,0,837,630Z"/><path class="cls-3" d="M840.62,618.57H838v4.79h-1.24l-7.15-5v-1.1h7.15v-1.49H838v1.49h2.64Zm-3.88,0h-5l5,3.46Z"/><path class="cls-3" d="M833.49,611.41l-2.1.37h-1.8v-1.55h1.8l2.1.37Zm0,2.49-2.1.38h-1.8v-1.55h1.8l2.1.34Z"/><path class="cls-3" d="M843.86,609.82v1a13.59,13.59,0,0,0-7.23-2.25,12.18,12.18,0,0,0-2.81.32,11.41,11.41,0,0,0-2.16.72,21.82,21.82,0,0,0-2.26,1.21v-1a14.5,14.5,0,0,1,3.79-2.1,10.42,10.42,0,0,1,3.43-.58,10.2,10.2,0,0,1,3.93.78A13.4,13.4,0,0,1,843.86,609.82Z"/><path class="cls-3" d="M832,508.38h-1.3v-7.14h1.06a15.1,15.1,0,0,0,3,2.08,17.88,17.88,0,0,0,3.83,1.6,13.87,13.87,0,0,0,3,.52v1.39a13.07,13.07,0,0,1-3.15-.51,16.28,16.28,0,0,1-3.55-1.4A15.47,15.47,0,0,1,832,503Z"/><path class="cls-3" d="M835.64,497.81a2.59,2.59,0,0,1-.88,1.25,2.31,2.31,0,0,1-1.37.41,2.68,2.68,0,0,1-2-.87,3.64,3.64,0,0,1,0-4.63,2.74,2.74,0,0,1,2-.88,2.24,2.24,0,0,1,1.34.41,2.5,2.5,0,0,1,.88,1.22,2.81,2.81,0,0,1,2.83-2.08,3.18,3.18,0,0,1,2.37,1,4.06,4.06,0,0,1,0,5.27,3.2,3.2,0,0,1-2.41,1,2.92,2.92,0,0,1-1.8-.54A2.72,2.72,0,0,1,835.64,497.81Zm-2.3.27a1.74,1.74,0,0,0,1.28-.5,1.8,1.8,0,0,0,.5-1.31,1.74,1.74,0,0,0-.5-1.28,1.59,1.59,0,0,0-1.2-.5,1.67,1.67,0,0,0-1.25.51,1.74,1.74,0,0,0-.51,1.28,1.77,1.77,0,0,0,.49,1.29A1.6,1.6,0,0,0,833.34,498.08Zm5.1.44a2.38,2.38,0,0,0,1.12-.28,1.93,1.93,0,0,0,.84-.81,2.47,2.47,0,0,0,.29-1.17,2.25,2.25,0,0,0-3.83-1.58,2.24,2.24,0,0,0-.64,1.63,2.17,2.17,0,0,0,2.22,2.21Z"/><path class="cls-3" d="M841.62,490.57h-1.54V489h1.54Z"/><path class="cls-3" d="M839.07,486.84l-.12-1.3a2.28,2.28,0,0,0,1.33-.63,1.72,1.72,0,0,0,.41-1.2,2,2,0,0,0-.28-1.09,2.3,2.3,0,0,0-.77-.78,4.45,4.45,0,0,0-1.29-.5,7,7,0,0,0-1.65-.2h-.27a3.29,3.29,0,0,1,1.05,1.11,3,3,0,0,1,.4,1.53,3.11,3.11,0,0,1-1,2.32,3.66,3.66,0,0,1-2.62.94,3.71,3.71,0,0,1-2.7-1,3.27,3.27,0,0,1-1-2.47,3.58,3.58,0,0,1,.58-2,3.65,3.65,0,0,1,1.65-1.36,8.15,8.15,0,0,1,3.11-.46,10,10,0,0,1,3.37.46,3.91,3.91,0,0,1,1.9,1.37,3.49,3.49,0,0,1,.66,2.12,2.91,2.91,0,0,1-2.74,3.1Zm-4.87-5.55a2.63,2.63,0,0,0-1.85.63,1.93,1.93,0,0,0-.69,1.49,2.06,2.06,0,0,0,.74,1.57,2.72,2.72,0,0,0,1.91.67A2.34,2.34,0,0,0,836,485a2.11,2.11,0,0,0,.66-1.57,2,2,0,0,0-.66-1.55A2.58,2.58,0,0,0,834.2,481.29Z"/><path class="cls-3" d="M835.64,476.39a2.59,2.59,0,0,1-.88,1.25,2.31,2.31,0,0,1-1.37.4,2.67,2.67,0,0,1-2-.86,3.64,3.64,0,0,1,0-4.63,2.7,2.7,0,0,1,2-.88,2.31,2.31,0,0,1,1.34.4,2.58,2.58,0,0,1,.88,1.23,2.9,2.9,0,0,1,1.07-1.55,2.94,2.94,0,0,1,1.76-.53,3.14,3.14,0,0,1,2.37,1,4.06,4.06,0,0,1,0,5.27,3.2,3.2,0,0,1-2.41,1,2.86,2.86,0,0,1-1.8-.55A2.66,2.66,0,0,1,835.64,476.39Zm-2.3.27a1.74,1.74,0,0,0,1.28-.5,1.81,1.81,0,0,0,.5-1.31,1.78,1.78,0,0,0-.5-1.29,1.62,1.62,0,0,0-1.2-.5,1.68,1.68,0,0,0-1.25.52,1.74,1.74,0,0,0-.51,1.28,1.77,1.77,0,0,0,.49,1.29A1.6,1.6,0,0,0,833.34,476.66Zm5.1.44a2.51,2.51,0,0,0,1.12-.28,1.93,1.93,0,0,0,.84-.81,2.5,2.5,0,0,0,.29-1.17,2.24,2.24,0,0,0-3.83-1.58,2.23,2.23,0,0,0-.64,1.62,2.17,2.17,0,0,0,2.22,2.22Z"/><path class="cls-3" d="M844.86,462.66a13.07,13.07,0,0,1-3.31,1.89,10.36,10.36,0,0,1-7.36.2,14.45,14.45,0,0,1-3.79-2.09v-1c1,.6,1.79,1,2.23,1.2a11.75,11.75,0,0,0,2.17.72,12.36,12.36,0,0,0,2.83.33,13.59,13.59,0,0,0,7.23-2.25Z"/><path class="cls-3" d="M838.71,460.48l-.18-1.35a3,3,0,0,0,1.66-.8,2,2,0,0,0,.5-1.36,2.2,2.2,0,0,0-.66-1.62,2.26,2.26,0,0,0-1.64-.65,2.08,2.08,0,0,0-1.54.61,2.1,2.1,0,0,0-.6,1.55,3.89,3.89,0,0,0,.15.95l-1.19-.15a1.86,1.86,0,0,0,0-.22,2.78,2.78,0,0,0-.45-1.55,1.53,1.53,0,0,0-1.39-.7,1.61,1.61,0,0,0-1.23.51,1.76,1.76,0,0,0-.49,1.3,1.86,1.86,0,0,0,.49,1.32,2.5,2.5,0,0,0,1.49.67l-.24,1.36a3.51,3.51,0,0,1-2.11-1.13,3.27,3.27,0,0,1-.75-2.19,3.56,3.56,0,0,1,.39-1.66A2.81,2.81,0,0,1,832,454.2a2.77,2.77,0,0,1,1.42-.4,2.36,2.36,0,0,1,1.3.38,2.66,2.66,0,0,1,.93,1.14,2.58,2.58,0,0,1,.94-1.52,2.88,2.88,0,0,1,1.78-.54,3.27,3.27,0,0,1,2.45,1.05,3.72,3.72,0,0,1,1,2.67,3.46,3.46,0,0,1-.86,2.41A3.36,3.36,0,0,1,838.71,460.48Z"/><path class="cls-3" d="M832,447.55h-1.3v-7.14h1.06a15.11,15.11,0,0,0,3,2.09,17.84,17.84,0,0,0,3.83,1.59,13.3,13.3,0,0,0,3,.52V446a13.67,13.67,0,0,1-3.15-.52,16.28,16.28,0,0,1-3.55-1.4,16,16,0,0,1-2.89-1.94Z"/><path class="cls-3" d="M841.81,439.71l-11.41-3.2v-1.08l11.41,3.19Z"/><path class="cls-3" d="M833.29,427.76l.1,1.35a2.52,2.52,0,0,0-1.15.51,1.77,1.77,0,0,0-.58,1.35,1.89,1.89,0,0,0,.36,1.14,3.06,3.06,0,0,0,1.36,1,7.28,7.28,0,0,0,2.55.38,3.14,3.14,0,0,1-1.47-2.68,3.07,3.07,0,0,1,1-2.3,3.55,3.55,0,0,1,2.58-1A4.25,4.25,0,0,1,840,428a3.26,3.26,0,0,1,1.36,1.23,3.34,3.34,0,0,1,.48,1.78,3.47,3.47,0,0,1-1.25,2.76,6.3,6.3,0,0,1-4.1,1.07,7.41,7.41,0,0,1-4.65-1.18,3.4,3.4,0,0,1-1.27-2.78,3.13,3.13,0,0,1,.73-2.13A3.09,3.09,0,0,1,833.29,427.76Zm4.75,5.53a3.09,3.09,0,0,0,1.34-.3,2.18,2.18,0,0,0,1-.83,2.11,2.11,0,0,0,.33-1.12,1.9,1.9,0,0,0-.69-1.47,2.68,2.68,0,0,0-1.88-.62,2.53,2.53,0,0,0-1.8.61,2,2,0,0,0-.66,1.53,2.09,2.09,0,0,0,.66,1.56A2.35,2.35,0,0,0,838,433.29Z"/><path class="cls-3" d="M841.62,421.88H839v4.78h-1.24l-7.15-5v-1.11h7.15V419H839v1.49h2.64Zm-3.88,0h-5l5,3.45Z"/><path class="cls-3" d="M834.49,414.71l-2.1.37h-1.8v-1.54h1.8l2.1.36Zm0,2.49-2.1.38h-1.8V416h1.8l2.1.34Z"/><path class="cls-3" d="M844.86,411v1a13.56,13.56,0,0,0-7.23-2.25,12.59,12.59,0,0,0-2.8.32,12,12,0,0,0-2.17.72,25.39,25.39,0,0,0-2.26,1.21v-1a14.45,14.45,0,0,1,3.79-2.09,10.36,10.36,0,0,1,7.36.2A13.7,13.7,0,0,1,844.86,411Z"/><path class="cls-3" d="M842.11,228.89h-2.64v4.78h-1.24l-7.15-5v-1.1h7.15v-1.49h1.24v1.49h2.64Zm-3.88,0h-5l5,3.45Z"/><path class="cls-3" d="M842.11,220.32h-2.64v4.78h-1.24l-7.15-5V219h7.15v-1.48h1.24V219h2.64Zm-3.88,0h-5l5,3.45Z"/><path class="cls-3" d="M842.11,215.33h-1.54v-1.54h1.54Z"/><path class="cls-3" d="M842.11,207.47h-2.64v4.78h-1.24l-7.15-5v-1.11h7.15v-1.49h1.24v1.49h2.64Zm-3.88,0h-5l5,3.45Z"/><path class="cls-3" d="M839.22,203.24l-.12-1.42a2.52,2.52,0,0,0,1.56-.74,2,2,0,0,0,.53-1.39,2.16,2.16,0,0,0-.74-1.65,2.78,2.78,0,0,0-2-.68,2.5,2.5,0,0,0-1.82.65,2.28,2.28,0,0,0-.67,1.71,2.35,2.35,0,0,0,.29,1.18,2.37,2.37,0,0,0,.77.83L836.9,203l-5.67-1.07v-5.49h1.3v4.41l3,.59a3.6,3.6,0,0,1-.69-2.08,3.28,3.28,0,0,1,1-2.44,3.5,3.5,0,0,1,2.57-1,4,4,0,0,1,2.59.87,3.5,3.5,0,0,1,1.34,2.89,3.56,3.56,0,0,1-.84,2.46A3.27,3.27,0,0,1,839.22,203.24Z"/><path class="cls-3" d="M845.36,187.42a13.66,13.66,0,0,1-3.32,1.9,10.4,10.4,0,0,1-7.35.19,14.21,14.21,0,0,1-3.8-2.09v-1c1.05.61,1.79,1,2.24,1.21a12.27,12.27,0,0,0,5,1,13.59,13.59,0,0,0,7.24-2.25Z"/><path class="cls-3" d="M842.11,180.15v1.36h-8.63a7.2,7.2,0,0,1,.94,1.28,8.69,8.69,0,0,1,.69,1.43h-1.3a8.24,8.24,0,0,0-1.3-2A5,5,0,0,0,831,181v-.88Z"/><path class="cls-3" d="M839.2,172.4,839,171a3,3,0,0,0,1.66-.79,2,2,0,0,0,.51-1.37,2.17,2.17,0,0,0-.67-1.61,2.22,2.22,0,0,0-1.64-.66,2,2,0,0,0-1.53.61,2.09,2.09,0,0,0-.61,1.55,4,4,0,0,0,.15,1l-1.19-.15c0-.1,0-.17,0-.22a2.72,2.72,0,0,0-.46-1.56,1.54,1.54,0,0,0-1.39-.69,1.66,1.66,0,0,0-1.23.5,1.78,1.78,0,0,0-.49,1.3,1.85,1.85,0,0,0,.5,1.32,2.47,2.47,0,0,0,1.49.68l-.24,1.35a3.41,3.41,0,0,1-2.11-1.13,3.23,3.23,0,0,1-.75-2.19,3.71,3.71,0,0,1,.38-1.66,2.85,2.85,0,0,1,1.06-1.16,2.7,2.7,0,0,1,1.42-.4,2.33,2.33,0,0,1,1.31.38,2.55,2.55,0,0,1,.93,1.14,2.51,2.51,0,0,1,.94-1.52,2.77,2.77,0,0,1,1.77-.55,3.23,3.23,0,0,1,2.45,1.06,3.7,3.7,0,0,1,1,2.66,3.45,3.45,0,0,1-.87,2.41A3.32,3.32,0,0,1,839.2,172.4Z"/><path class="cls-3" d="M842.3,164.47l-11.41-3.19v-1.09l11.41,3.19Z"/><path class="cls-3" d="M842.11,155.21h-2.64V160h-1.24l-7.15-5v-1.1h7.15v-1.49h1.24v1.49h2.64Zm-3.88,0h-5l5,3.46Z"/><path class="cls-3" d="M835,148.05l-2.1.37h-1.81v-1.55h1.81l2.1.37Zm0,2.49-2.1.37h-1.81v-1.54h1.81l2.1.34Z"/><path class="cls-3" d="M845.36,144.25v1a13.59,13.59,0,0,0-7.24-2.25,12.66,12.66,0,0,0-2.8.32,11.51,11.51,0,0,0-2.17.72,25.39,25.39,0,0,0-2.26,1.21v-1a14.5,14.5,0,0,1,3.8-2.09,10.09,10.09,0,0,1,3.43-.58,10.19,10.19,0,0,1,3.92.78A14,14,0,0,1,845.36,144.25Z"/><line class="cls-2" x1="848.9" y1="707.71" x2="848.9" y2="602.38"/><polygon class="cls-3" points="852.7 703.06 848.73 717.15 844.75 703.06 852.7 703.06"/><polygon class="cls-3" points="852.7 602.38 848.73 588.29 844.75 602.38 852.7 602.38"/><line class="cls-2" x1="887.02" y1="703.65" x2="887.02" y2="108.2"/><polygon class="cls-3" points="890.83 702.45 886.86 717.15 882.88 702.45 890.83 702.45"/><polygon class="cls-3" points="890.83 108.51 886.86 93.81 882.88 108.51 890.83 108.51"/><line class="cls-2" x1="848.9" y1="575.01" x2="848.9" y2="318.42"/><polygon class="cls-3" points="852.7 573.57 848.73 588.27 844.75 573.57 852.7 573.57"/><polygon class="cls-3" points="852.7 319.97 848.73 305.27 844.75 319.97 852.7 319.97"/><path class="cls-3" d="M880.21,443.16v1.36h-8.63a6.74,6.74,0,0,1,.93,1.28,8.77,8.77,0,0,1,.7,1.42H871.9a7.87,7.87,0,0,0-1.29-2,5.15,5.15,0,0,0-1.48-1.21v-.87Z"/><path class="cls-3" d="M877.32,439.69l-.12-1.42a2.54,2.54,0,0,0,1.56-.73,2,2,0,0,0,.53-1.39,2.18,2.18,0,0,0-.74-1.66,2.79,2.79,0,0,0-2-.67,2.5,2.5,0,0,0-1.83.65,2.28,2.28,0,0,0-.67,1.7,2.33,2.33,0,0,0,.3,1.18,2.37,2.37,0,0,0,.77.83l-.16,1.27-5.67-1.07V432.9h1.29v4.4l3,.59a3.57,3.57,0,0,1-.69-2.08,3.3,3.3,0,0,1,1-2.44,3.5,3.5,0,0,1,2.57-1,4,4,0,0,1,2.59.87,3.51,3.51,0,0,1,1.34,2.9,3.6,3.6,0,0,1-.84,2.46A3.33,3.33,0,0,1,877.32,439.69Z"/><path class="cls-3" d="M878.91,424h1.3v7.29a2.29,2.29,0,0,1-.94-.15,5.35,5.35,0,0,1-1.47-.89,13.66,13.66,0,0,1-1.67-1.78A15,15,0,0,0,873.8,426a2.82,2.82,0,0,0-1.63-.63,1.79,1.79,0,0,0-1.36.58,2.06,2.06,0,0,0-.55,1.5,2.11,2.11,0,0,0,.58,1.56,2.26,2.26,0,0,0,1.63.6l-.14,1.39A3.48,3.48,0,0,1,870,430a3.67,3.67,0,0,1-.82-2.5,3.51,3.51,0,0,1,.89-2.52,2.89,2.89,0,0,1,2.18-.92,3.33,3.33,0,0,1,1.3.27,5,5,0,0,1,1.35.9,22.48,22.48,0,0,1,1.94,2.09c.68.81,1.14,1.33,1.39,1.56a4.14,4.14,0,0,0,.73.57Z"/><path class="cls-3" d="M880.21,421.79h-1.54v-1.54h1.54Z"/><path class="cls-3" d="M880.21,413.93h-2.64v4.78h-1.24l-7.15-5v-1.11h7.15v-1.49h1.24v1.49h2.64Zm-3.88,0h-5l5,3.45Z"/><path class="cls-3" d="M874.77,409.7a10.1,10.1,0,0,1-3.15-.4,4,4,0,0,1-1.84-1.2,3.06,3.06,0,0,1-.65-2,3.2,3.2,0,0,1,.36-1.55,3,3,0,0,1,1-1.11,5.74,5.74,0,0,1,1.64-.69,11.34,11.34,0,0,1,2.61-.24,9.92,9.92,0,0,1,3.13.4,3.89,3.89,0,0,1,1.85,1.19,3.08,3.08,0,0,1,.65,2,3,3,0,0,1-1.15,2.51A7.22,7.22,0,0,1,874.77,409.7Zm0-1.39a6.87,6.87,0,0,0,3.62-.64,1.81,1.81,0,0,0,0-3.13,10.53,10.53,0,0,0-7.23,0,1.87,1.87,0,0,0-.89,1.58,1.73,1.73,0,0,0,.79,1.49A6.94,6.94,0,0,0,874.77,408.31Z"/><path class="cls-3" d="M883.45,393.88a13.4,13.4,0,0,1-3.31,1.9,10.19,10.19,0,0,1-3.92.78,10.44,10.44,0,0,1-3.44-.58,14.66,14.66,0,0,1-3.79-2.1v-1c1,.61,1.79,1,2.24,1.21a13,13,0,0,0,2.16.72,12.41,12.41,0,0,0,2.83.32,13.54,13.54,0,0,0,7.23-2.25Z"/><path class="cls-3" d="M871.88,384.69,872,386a2.56,2.56,0,0,0-1.16.51,1.77,1.77,0,0,0-.58,1.35,1.89,1.89,0,0,0,.36,1.14,3.12,3.12,0,0,0,1.36,1,7.28,7.28,0,0,0,2.55.38,3.14,3.14,0,0,1-1.1-1.2,3.2,3.2,0,0,1-.36-1.48,3.07,3.07,0,0,1,1-2.3,3.58,3.58,0,0,1,2.58-1,4.25,4.25,0,0,1,1.93.45,3.26,3.26,0,0,1,1.36,1.23,3.34,3.34,0,0,1,.48,1.78,3.47,3.47,0,0,1-1.25,2.76,6.28,6.28,0,0,1-4.1,1.07,7.41,7.41,0,0,1-4.65-1.18,3.42,3.42,0,0,1-1.27-2.78,3.08,3.08,0,0,1,.74-2.13A3,3,0,0,1,871.88,384.69Zm4.76,5.53a3.15,3.15,0,0,0,1.34-.3,2.2,2.2,0,0,0,1-.83,2.1,2.1,0,0,0,.34-1.12,1.92,1.92,0,0,0-.7-1.47,2.68,2.68,0,0,0-1.88-.62,2.53,2.53,0,0,0-1.8.61,2,2,0,0,0-.66,1.53,2.1,2.1,0,0,0,.66,1.56A2.36,2.36,0,0,0,876.64,390.22Z"/><path class="cls-3" d="M873.08,380.21l-2.09.37h-1.81V379H871l2.09.36Zm0,2.49-2.09.38h-1.81v-1.54H871l2.09.34Z"/><path class="cls-3" d="M883.45,376.41v1a13.54,13.54,0,0,0-7.23-2.25,12.85,12.85,0,0,0-5,1c-.45.2-1.2.6-2.26,1.21v-1a14.61,14.61,0,0,1,3.79-2.09,10.36,10.36,0,0,1,7.36.2A13.7,13.7,0,0,1,883.45,376.41Z"/><line class="cls-2" x1="848.9" y1="292.88" x2="848.9" y2="107.21"/><polygon class="cls-3" points="852.7 291.39 848.73 305.49 844.75 291.39 852.7 291.39"/><polygon class="cls-3" points="852.7 108.2 848.73 94.11 844.75 108.2 852.7 108.2"/><line class="cls-9" x1="501.63" y1="733.88" x2="501.63" y2="76.24"/><g class="cls-4"><path class="cls-7" d="M510.37,733.88v-5.52l-5-7.53h2.09l2.58,3.95c.47.74.91,1.47,1.33,2.2.4-.69.89-1.46,1.46-2.3l2.53-3.85h2l-5.22,7.53v5.52Z"/><path class="cls-7" d="M510.37,90.82V85.29l-5-7.52h2.09L510,81.71c.47.74.91,1.48,1.33,2.2.4-.68.89-1.45,1.46-2.3l2.53-3.84h2l-5.22,7.52v5.53Z"/></g><line class="cls-2" x1="204.12" y1="675.49" x2="248.11" y2="703.5"/><polygon class="cls-3" points="204.04 679.12 196.64 669.74 207.75 674.16 204.04 679.12"/><path class="cls-3" d="M251.74,704l.09-11,4.89,0a6.37,6.37,0,0,1,2.24.32,2.48,2.48,0,0,1,1.22,1.05,3.12,3.12,0,0,1,.44,1.67,2.74,2.74,0,0,1-.77,2,3.86,3.86,0,0,1-2.36,1,4.09,4.09,0,0,1,.88.55,7.62,7.62,0,0,1,1.19,1.48l1.9,3-1.84,0-1.44-2.3c-.42-.67-.77-1.18-1-1.53a3.39,3.39,0,0,0-.73-.74,1.9,1.9,0,0,0-.67-.3,3.77,3.77,0,0,0-.81-.06l-1.69,0,0,4.9Zm1.51-6.15,3.13,0a4.71,4.71,0,0,0,1.57-.2,1.59,1.59,0,0,0,.86-.65,1.89,1.89,0,0,0,.31-1,1.68,1.68,0,0,0-.56-1.29,2.67,2.67,0,0,0-1.79-.52l-3.49,0Z"/><path class="cls-3" d="M262.46,694.46v-1.3l7.14.06v1a15.44,15.44,0,0,0-2.11,3,18.6,18.6,0,0,0-1.63,3.81,13.85,13.85,0,0,0-.54,3h-1.39a13.59,13.59,0,0,1,.53-3.14,16.45,16.45,0,0,1,1.44-3.54,15.06,15.06,0,0,1,2-2.88Z"/><path class="cls-3" d="M271.62,704.12l0-1.54h1.54v1.54Z"/><path class="cls-3" d="M275.37,701.6l1.3-.11a2.3,2.3,0,0,0,.62,1.34,1.72,1.72,0,0,0,1.2.42,2.06,2.06,0,0,0,1.09-.28,2.24,2.24,0,0,0,.78-.75,4.66,4.66,0,0,0,.52-1.29,7,7,0,0,0,.21-1.65V699a3.3,3.3,0,0,1-1.12,1,3.16,3.16,0,0,1-3.84-.62,4.15,4.15,0,0,1,.09-5.32,3.27,3.27,0,0,1,2.48-1,3.57,3.57,0,0,1,3.31,2.26,8.2,8.2,0,0,1,.44,3.11,10.3,10.3,0,0,1-.49,3.36,3.93,3.93,0,0,1-1.38,1.9,3.52,3.52,0,0,1-2.13.63,2.91,2.91,0,0,1-3.08-2.76Zm5.58-4.82a2.64,2.64,0,0,0-.6-1.86,2,2,0,0,0-1.49-.7,2.08,2.08,0,0,0-1.58.73,2.7,2.7,0,0,0-.68,1.9,2.34,2.34,0,0,0,.62,1.72,2.08,2.08,0,0,0,1.56.67,2,2,0,0,0,1.55-.64A2.57,2.57,0,0,0,281,696.78Z"/><path class="cls-3" d="M288.06,704.25l0-2.64-4.79,0v-1.25l5.09-7.1h1.11l-.06,7.15h1.49v1.25l-1.49,0,0,2.64Zm0-3.88,0-5-3.5,4.94Z"/><path class="cls-3" d="M299.5,707.59a13.66,13.66,0,0,1-1.87-3.33,10.36,10.36,0,0,1-.74-3.93,10.15,10.15,0,0,1,.61-3.43,14.49,14.49,0,0,1,2.12-3.77h1c-.61,1-1,1.78-1.22,2.22a12.23,12.23,0,0,0-.74,2.16,13,13,0,0,0-.35,2.83,13.6,13.6,0,0,0,2.2,7.25Z"/><path class="cls-3" d="M301.72,701.48l1.42-.11a2.49,2.49,0,0,0,.73,1.56,2,2,0,0,0,1.38.54,2.17,2.17,0,0,0,1.66-.73,2.7,2.7,0,0,0,.69-2A2.49,2.49,0,0,0,307,699a2.25,2.25,0,0,0-1.7-.68,2.38,2.38,0,0,0-1.19.28,2.28,2.28,0,0,0-.83.77l-1.27-.18,1.12-5.65,5.48,0v1.29l-4.4,0-.62,3a3.59,3.59,0,0,1,2.09-.68,3.33,3.33,0,0,1,2.43,1,3.5,3.5,0,0,1,1,2.58,4,4,0,0,1-.89,2.59,3.53,3.53,0,0,1-2.91,1.31,3.57,3.57,0,0,1-2.45-.86A3.27,3.27,0,0,1,301.72,701.48Z"/><path class="cls-3" d="M309.63,704.62l3.29-11.38H314l-3.28,11.38Z"/><path class="cls-3" d="M319.65,704.51H318.3l.07-8.63a7.19,7.19,0,0,1-1.29.92,8.75,8.75,0,0,1-1.44.69v-1.31a8.06,8.06,0,0,0,2-1.28,5.16,5.16,0,0,0,1.22-1.46h.87Z"/><path class="cls-3" d="M330.21,696.27l-1.34.09a2.56,2.56,0,0,0-.51-1.16,1.91,1.91,0,0,0-2.48-.24,3.11,3.11,0,0,0-1,1.35,7.19,7.19,0,0,0-.41,2.55,3.11,3.11,0,0,1,2.69-1.44,3,3,0,0,1,2.3,1,3.56,3.56,0,0,1,.93,2.58,4.19,4.19,0,0,1-.46,1.93,3.35,3.35,0,0,1-1.24,1.36,3.45,3.45,0,0,1-1.78.46,3.48,3.48,0,0,1-2.76-1.27,6.36,6.36,0,0,1-1-4.11,7.32,7.32,0,0,1,1.22-4.64,3.39,3.39,0,0,1,2.79-1.25,3.13,3.13,0,0,1,2.12.75A3.09,3.09,0,0,1,330.21,696.27ZM324.64,701a3.3,3.3,0,0,0,.29,1.34,2.28,2.28,0,0,0,.82,1,2,2,0,0,0,1.12.34,1.87,1.87,0,0,0,1.48-.68,2.71,2.71,0,0,0,.64-1.87,2.58,2.58,0,0,0-.6-1.81,2,2,0,0,0-1.53-.67,2.08,2.08,0,0,0-1.56.64A2.41,2.41,0,0,0,324.64,701Z"/><path class="cls-3" d="M332.19,697.49l-.36-2.11,0-1.8h1.54l0,1.81-.35,2.09Zm2.49,0-.35-2.11v-1.8h1.55l0,1.81-.38,2.09Z"/><path class="cls-3" d="M338.4,707.9h-1a13.58,13.58,0,0,0,2.3-7.22,12.07,12.07,0,0,0-.3-2.8,11.53,11.53,0,0,0-.69-2.18c-.2-.45-.59-1.21-1.2-2.26h1a14.28,14.28,0,0,1,2.06,3.81,10.31,10.31,0,0,1-.25,7.36A13.62,13.62,0,0,1,338.4,707.9Z"/><g class="cls-10"><path class="cls-11" d="M823.76,657a6.51,6.51,0,0,0-5.34-6c-13.28-2.58-232.21-53.62-232.21-53.62s-14-1-20.18-20.18c-5.48-17-7.5-83.89-8.5-150.48-.15-95.86,6.34-138.67,9.78-150.85,4.2-20.83,27-22.56,27-22.56l62.27-14.41c6.78-4.61,3.89-138.67,3.89-138.67S662.75,55.49,610,55.49c-1.44,0-66.59-3-66.59-3l-44-1.14h-.29l-44,1.14s-65.15,3-66.59,3c-52.76,0-50.45,44.68-50.45,44.68S335.27,234.23,342,238.84l62.27,14.41s22.78,1.73,27,22.56c3.44,12.18,9.93,55,9.79,150.85-1,66.59-3,133.52-8.51,150.48-6.2,19.17-20.18,20.18-20.18,20.18s-218.93,51-232.21,53.62a6.49,6.49,0,0,0-5.33,6s-1.19,31-.27,38.56c1,7.83,7.42,6.91,7.42,6.91l317.11.69h.2l317.3-.69s6.46.92,7.42-6.91c.92-7.54-.26-38.56-.26-38.56"/></g><path class="cls-12" d="M811.09,683.89s-3.54-19.11-19.82-24.06-128.84-27.61-128.84-27.61-80.7-14.87-83.53-112.56l.71-115.39C579.61,379.5,603,272.6,704.91,233c0,0,19.11-12,16.28-26.9-1.91-10-11.33-69.38-11.33-69.38s-8.52-32.87-42.47-35.39C596.08,96,525.8,95.1,504.24,95v0h-6.75v0c-21.56.15-91.84,1-163.15,6.34-34,2.52-42.48,35.39-42.48,35.39s-9.41,59.35-11.32,69.38c-2.83,14.86,16.28,26.9,16.28,26.9,101.94,39.64,125.3,146.54,125.3,171.31l.71,115.39c-2.83,97.69-83.54,112.56-83.54,112.56s-112.56,22.65-128.84,27.61-19.82,24.06-19.82,24.06v26.67c0,4,2.19,6.59,7.34,6.59s302.89-.68,302.89-.68l303.3.68a7,7,0,0,0,6.93-6.69Z"/></g><g id="Watermark"><rect class="cls-5" x="438.45" y="636.92" width="123.09" height="46.3"/><rect class="cls-13" x="444.86" y="644.76" width="62.89" height="30.62"/><rect class="cls-13" x="507.75" y="644.76" width="47.39" height="30.62"/><path class="cls-14" d="M466.48,650.86l-2.79,18.92H461l-1.55-11-1.53,11h-2.74l-2.8-18.92h2.51L456.63,665l1.79-14.17h2L462.19,665,464,650.86Z"/><path class="cls-14" d="M467.93,669.78V650.86h2.53v18.92Z"/><path class="cls-14" d="M472.83,650.86h5q2.9,0,2.9,3.24v4.66c0,1.65-.51,2.7-1.51,3.14l1.77,7.88h-2.4l-1.66-7.64h-1.53v7.64h-2.53Zm2.53,9.12H477c.76,0,1.14-.46,1.14-1.37v-4.09c0-.91-.38-1.37-1.14-1.37h-1.66Z"/><path class="cls-14" d="M486.82,653.15v16.63h-2.53V653.15h-2.42v-2.29h7.38v2.29Z"/><path class="cls-14" d="M496.34,669.78v-8.59h-3.11v8.59H490.7V650.86h2.53v8h3.11v-8h2.53v18.92Z"/><path class="cls-14" d="M516.31,650.86h5q2.9,0,2.89,3.24v4.66c0,1.65-.5,2.7-1.5,3.14l1.77,7.88H522l-1.66-7.64h-1.53v7.64h-2.53Zm2.53,9.12h1.66c.76,0,1.13-.46,1.13-1.37v-4.09c0-.91-.37-1.37-1.13-1.37h-1.66Z"/><path class="cls-14" d="M528.67,669.78h-2.53V654.1q0-3.24,3-3.24h1.9q3,0,3,3.24v15.68h-2.53v-6.93h-2.9Zm2.9-9.22v-6.3a1,1,0,0,0-1.11-1.11h-.68a1,1,0,0,0-1.11,1.11v6.3Z"/><path class="cls-14" d="M536.34,669.78V650.86h2.53v18.92Z"/><path class="cls-14" d="M547.24,669.78h-6V650.86h2.53v16.63h3.47Z"/></g></svg>