<svg xmlns="http://www.w3.org/2000/svg" xmlns:xlink="http://www.w3.org/1999/xlink" viewBox="0 0 1000 800"><defs><style>.cls-1,.cls-11,.cls-12,.cls-7,.cls-9{fill:none;}.cls-2{clip-path:url(#clip-path);}.cls-13,.cls-3,.cls-6,.cls-8{fill:#f0f0f0;}.cls-11,.cls-12,.cls-3,.cls-7,.cls-8{stroke:#231f20;}.cls-13,.cls-3,.cls-9{stroke-miterlimit:10;}.cls-3{stroke-width:3px;}.cls-4{fill:#303030;}.cls-5{clip-path:url(#clip-path-2);}.cls-8{stroke-width:2px;}.cls-9{stroke:#303030;}.cls-10{fill:#231f20;}.cls-11{stroke-dasharray:11.85 3.59;}.cls-12{stroke-dasharray:11.84 3.58;}.cls-13{stroke:#ccc;}.cls-14{fill:#ccc;}</style><clipPath id="clip-path"><rect class="cls-1" x="-1972.71" width="891.42" height="800"/></clipPath><clipPath id="clip-path-2"><rect class="cls-1" x="98.55" width="802.91" height="800"/></clipPath></defs><g id="Flat"><g class="cls-2"><path class="cls-3" d="M823.76,657a6.51,6.51,0,0,0-5.34-6c-13.28-2.58-232.21-53.62-232.21-53.62s-14-1-20.18-20.18c-5.48-17-7.5-83.89-8.5-150.48-.15-95.86,6.34-138.67,9.78-150.85,4.2-20.83,27-22.56,27-22.56l62.27-14.41c6.78-4.61,3.89-138.67,3.89-138.67S662.75,55.49,610,55.49c-1.44,0-66.59-3-66.59-3l-44-1.14h-.29l-44,1.14s-65.15,3-66.59,3c-52.76,0-50.45,44.68-50.45,44.68S335.27,234.23,342,238.84l62.27,14.41s22.78,1.73,27,22.56c3.44,12.18,9.93,55,9.79,150.85-1,66.59-3,133.52-8.51,150.48-6.2,19.17-20.18,20.18-20.18,20.18s-218.93,51-232.21,53.62a6.49,6.49,0,0,0-5.33,6s-1.19,31-.27,38.56c1,7.83,7.42,6.91,7.42,6.91l317.11.69h.2l317.3-.69s6.46.92,7.42-6.91c.92-7.54-.26-38.56-.26-38.56"/></g><path class="cls-4" d="M843.14,701.43l-.18-1.35a3,3,0,0,0,1.66-.79,2,2,0,0,0,.51-1.37,2.2,2.2,0,0,0-.66-1.61,2.25,2.25,0,0,0-1.64-.66,2.06,2.06,0,0,0-1.54.61,2.09,2.09,0,0,0-.61,1.55,3.89,3.89,0,0,0,.15,1l-1.18-.15a1.79,1.79,0,0,0,0-.21,2.79,2.79,0,0,0-.45-1.56,1.55,1.55,0,0,0-1.39-.69,1.64,1.64,0,0,0-1.24.5,1.82,1.82,0,0,0-.48,1.3,1.84,1.84,0,0,0,.49,1.32,2.5,2.5,0,0,0,1.49.67l-.24,1.36a3.48,3.48,0,0,1-2.11-1.13A3.27,3.27,0,0,1,835,698a3.59,3.59,0,0,1,.39-1.66,2.78,2.78,0,0,1,1.06-1.16,2.69,2.69,0,0,1,1.42-.41,2.31,2.31,0,0,1,1.3.39,1,1,0,1,0,1.87-.39,2.84,2.84,0,0,1,1.78-.54,3.21,3.21,0,0,1,2.44,1.06,3.7,3.7,0,0,1,1,2.66,3.45,3.45,0,0,1-.87,2.41A3.31,3.31,0,0,1,843.14,701.43Z"/><path class="cls-4" d="M846.05,687.78v1.35h-8.62a7.08,7.08,0,0,1,.93,1.28,9.74,9.74,0,0,1,.7,1.43h-1.31a8.53,8.53,0,0,0-1.29-2,5.1,5.1,0,0,0-1.48-1.2v-.87Z"/><path class="cls-4" d="M846.05,683.55h-1.54V682h1.54Z"/><path class="cls-4" d="M836.47,679.94h-1.3V672.8h1.05a14.79,14.79,0,0,0,3,2.09,18.32,18.32,0,0,0,3.82,1.6,14.61,14.61,0,0,0,3,.52v1.39a14.15,14.15,0,0,1-3.14-.51,17.13,17.13,0,0,1-3.55-1.4,15.14,15.14,0,0,1-2.89-2Z"/><path class="cls-4" d="M843.17,671.46,843,670a2.55,2.55,0,0,0,1.57-.73,2,2,0,0,0,.52-1.39,2.16,2.16,0,0,0-.74-1.65,2.77,2.77,0,0,0-1.95-.68,2.51,2.51,0,0,0-1.83.65,2.27,2.27,0,0,0-.67,1.71,2.35,2.35,0,0,0,.3,1.18,2.17,2.17,0,0,0,.77.82l-.17,1.27-5.66-1.06v-5.49h1.29v4.4l3,.6a3.6,3.6,0,0,1-.69-2.09,3.31,3.31,0,0,1,1-2.43,3.52,3.52,0,0,1,2.58-1,4,4,0,0,1,2.58.87,3.49,3.49,0,0,1,1.34,2.89,3.58,3.58,0,0,1-.84,2.46A3.26,3.26,0,0,1,843.17,671.46Z"/><path class="cls-4" d="M849.29,655.66a13.5,13.5,0,0,1-3.3,1.89,10.36,10.36,0,0,1-7.36.2,14.45,14.45,0,0,1-3.79-2.09v-1c1,.6,1.79,1,2.23,1.2a11.75,11.75,0,0,0,2.17.72,12.36,12.36,0,0,0,2.83.33,13.53,13.53,0,0,0,7.22-2.25Z"/><path class="cls-4" d="M846.05,648.39v1.36h-8.62a6.74,6.74,0,0,1,.93,1.28,9.68,9.68,0,0,1,.7,1.42h-1.31a8.67,8.67,0,0,0-1.29-2,4.94,4.94,0,0,0-1.48-1.2v-.88Z"/><path class="cls-4" d="M846.05,635.55v1.35h-8.62a7.45,7.45,0,0,1,.93,1.28,9.74,9.74,0,0,1,.7,1.43h-1.31a8.53,8.53,0,0,0-1.29-2,5.27,5.27,0,0,0-1.48-1.2v-.87Z"/><path class="cls-4" d="M846.24,632.72l-11.4-3.2v-1.08l11.4,3.19Z"/><path class="cls-4" d="M846.05,623.46h-2.64v4.79h-1.24l-7.14-5v-1.1h7.14v-1.49h1.24v1.49h2.64Zm-3.88,0h-5l5,3.46Z"/><path class="cls-4" d="M838.93,616.3l-2.1.37H835v-1.54h1.8l2.1.36Zm0,2.49-2.1.38H835v-1.54h1.8l2.1.34Z"/><path class="cls-4" d="M849.29,612.51v1a13.53,13.53,0,0,0-7.22-2.25,12.52,12.52,0,0,0-5,1,23.55,23.55,0,0,0-2.26,1.22v-1a14.17,14.17,0,0,1,3.79-2.09,10.13,10.13,0,0,1,3.43-.58,10.46,10.46,0,0,1,3.93.77A13.52,13.52,0,0,1,849.29,612.51Z"/><g class="cls-5"><path class="cls-6" d="M292.56,261.21,292,261c-1.77-.33.58.26.58.26"/><path class="cls-7" d="M292.56,261.21,292,261C290.21,260.62,292.56,261.21,292.56,261.21Z"/><path class="cls-6" d="M697.71,261l-.58.26s2.35-.59.58-.26"/><path class="cls-7" d="M697.71,261l-.58.26S699.48,260.62,697.71,261Z"/><path class="cls-8" d="M804.11,695.55s-.64-40.36-43.56-50.61-139.66-30.11-139.66-30.11-60.85-10.89-61.5-75-.64-177.46-.64-177.46,0-70.46,76.88-87.76C682.32,264.15,695,261.45,697.71,261a27.59,27.59,0,0,0,15.43-25.37c0-19.22-10.24-114.67-10.24-114.67S698.41,99.13,676,98.49c-20.65-.59-158.1-.64-179.72-.64h-2.86c-21.62,0-159.06.05-179.71.64-22.42.64-26.91,22.42-26.91,22.42s-10.25,95.45-10.25,114.67A27.57,27.57,0,0,0,292,261c2.74.5,15.39,3.2,62.08,13.71,76.87,17.3,76.87,87.76,76.87,87.76s0,113.39-.64,177.46-61.5,75-61.5,75-96.73,19.86-139.66,30.11-43.56,50.61-43.56,50.61.42,10,.42,13.77a7.1,7.1,0,0,0,7.52,7.38c5,0,300.54.63,300.54.63h1.58l301.79-.63c2.67,0,6.18-2.75,6.18-5.24,0-1.46.51-15.91.51-15.91"/></g><line class="cls-9" x1="201" y1="769.76" x2="789.33" y2="769.76"/><polygon class="cls-4" points="201 773.57 186.19 769.6 201 765.62 201 773.57"/><polygon class="cls-4" points="787.84 773.57 802.65 769.6 787.84 765.62 787.84 773.57"/><path class="cls-4" d="M463.39,763.4H462v-8.62a7.19,7.19,0,0,1-1.29.93,9.68,9.68,0,0,1-1.42.7V755.1a8.46,8.46,0,0,0,2-1.29,5.15,5.15,0,0,0,1.21-1.48h.87Z"/><path class="cls-4" d="M466.86,760.51l1.42-.12A2.52,2.52,0,0,0,469,762a2,2,0,0,0,1.39.53,2.16,2.16,0,0,0,1.65-.74,2.78,2.78,0,0,0,.68-2,2.5,2.5,0,0,0-.65-1.82,2.26,2.26,0,0,0-1.7-.67,2.47,2.47,0,0,0-1.19.29,2.28,2.28,0,0,0-.82.78l-1.27-.17,1.06-5.66h5.49v1.29h-4.4l-.6,3a3.6,3.6,0,0,1,2.09-.69,3.27,3.27,0,0,1,2.43,1,3.52,3.52,0,0,1,1,2.57,4,4,0,0,1-.88,2.59,3.49,3.49,0,0,1-2.89,1.34,3.58,3.58,0,0,1-2.46-.84A3.3,3.3,0,0,1,466.86,760.51Z"/><path class="cls-4" d="M482.54,762.1v1.3h-7.29a2.33,2.33,0,0,1,.16-.94,4.74,4.74,0,0,1,.89-1.46,13.45,13.45,0,0,1,1.77-1.67A15.38,15.38,0,0,0,480.5,757a2.8,2.8,0,0,0,.63-1.63,1.81,1.81,0,0,0-.58-1.36,2.34,2.34,0,0,0-3.06,0,2.24,2.24,0,0,0-.6,1.62l-1.39-.14a3.44,3.44,0,0,1,1.08-2.37,3.64,3.64,0,0,1,2.5-.82,3.46,3.46,0,0,1,2.51.88,2.9,2.9,0,0,1,.93,2.18,3.29,3.29,0,0,1-.27,1.3,5,5,0,0,1-.9,1.35,21.17,21.17,0,0,1-2.09,1.94c-.81.68-1.33,1.14-1.56,1.39a4.14,4.14,0,0,0-.57.73Z"/><path class="cls-4" d="M484.75,763.4v-1.54h1.54v1.54Z"/><path class="cls-4" d="M492.6,763.4v-2.64h-4.78v-1.24l5-7.14H494v7.14h1.49v1.24H494v2.64Zm0-3.88v-5l-3.45,5Z"/><path class="cls-4" d="M496.83,758a10,10,0,0,1,.4-3.14,3.9,3.9,0,0,1,1.2-1.84,3.06,3.06,0,0,1,2-.65,3.2,3.2,0,0,1,1.55.36,3,3,0,0,1,1.11,1,5.36,5.36,0,0,1,.68,1.64A10.59,10.59,0,0,1,504,758a10,10,0,0,1-.4,3.14,3.91,3.91,0,0,1-1.19,1.84,3.08,3.08,0,0,1-2,.65,3,3,0,0,1-2.51-1.14A7.26,7.26,0,0,1,496.83,758Zm1.39,0a6.87,6.87,0,0,0,.64,3.62,1.81,1.81,0,0,0,3.13,0,10.5,10.5,0,0,0,0-7.22,1.88,1.88,0,0,0-1.58-.9,1.73,1.73,0,0,0-1.49.79A7,7,0,0,0,498.22,758Z"/><path class="cls-4" d="M512.64,766.64a13.4,13.4,0,0,1-1.9-3.31,10.37,10.37,0,0,1-.77-3.92,10.09,10.09,0,0,1,.58-3.43,14.45,14.45,0,0,1,2.09-3.79h1a23.85,23.85,0,0,0-1.2,2.23,12.3,12.3,0,0,0-.73,2.17,12.93,12.93,0,0,0-.32,2.83,13.53,13.53,0,0,0,2.25,7.22Z"/><path class="cls-4" d="M521.83,755.08l-1.35.1A2.56,2.56,0,0,0,520,754a1.9,1.9,0,0,0-2.49-.21,3.14,3.14,0,0,0-1,1.36,7.2,7.2,0,0,0-.38,2.55,3.09,3.09,0,0,1,1.2-1.11,3.2,3.2,0,0,1,1.48-.36,3,3,0,0,1,2.3,1,3.54,3.54,0,0,1,.95,2.57,4.21,4.21,0,0,1-.44,1.93,3.35,3.35,0,0,1-1.23,1.37,3.43,3.43,0,0,1-1.78.47,3.47,3.47,0,0,1-2.76-1.25,6.28,6.28,0,0,1-1.07-4.1,7.41,7.41,0,0,1,1.18-4.65,3.42,3.42,0,0,1,2.78-1.26,3.13,3.13,0,0,1,2.13.73A3.09,3.09,0,0,1,521.83,755.08Zm-5.53,4.75a3.12,3.12,0,0,0,.3,1.34,2.2,2.2,0,0,0,.83,1,2,2,0,0,0,1.12.34,1.88,1.88,0,0,0,1.47-.7,2.71,2.71,0,0,0,.62-1.88,2.53,2.53,0,0,0-.61-1.8,2,2,0,0,0-1.53-.65,2.11,2.11,0,0,0-1.56.65A2.37,2.37,0,0,0,516.3,759.83Z"/><path class="cls-4" d="M523.81,756.28l-.37-2.1v-1.8H525v1.8l-.34,2.1Zm2.49,0-.37-2.1v-1.8h1.55v1.8l-.36,2.1Z"/><path class="cls-4" d="M530.1,766.64h-1a13.53,13.53,0,0,0,2.25-7.22,12.68,12.68,0,0,0-.32-2.81,11.75,11.75,0,0,0-.72-2.17,24.24,24.24,0,0,0-1.21-2.25h1a14.45,14.45,0,0,1,2.09,3.79,10.09,10.09,0,0,1,.58,3.43,10.19,10.19,0,0,1-.78,3.92A13.7,13.7,0,0,1,530.1,766.64Z"/><path class="cls-4" d="M838.73,501.17l.1,1.34a2.63,2.63,0,0,0-1.15.52,1.76,1.76,0,0,0-.58,1.35,1.89,1.89,0,0,0,.36,1.14,3,3,0,0,0,1.36,1,7,7,0,0,0,2.55.39,3.17,3.17,0,0,1-1.11-1.2,3.2,3.2,0,0,1-.36-1.48,3.11,3.11,0,0,1,1-2.31,3.58,3.58,0,0,1,2.57-.95,4.19,4.19,0,0,1,1.93.45,3.29,3.29,0,0,1,1.37,1.23,3.39,3.39,0,0,1,.47,1.77,3.49,3.49,0,0,1-1.24,2.77,6.3,6.3,0,0,1-4.1,1.06,7.33,7.33,0,0,1-4.65-1.18A3.39,3.39,0,0,1,836,504.3a3.13,3.13,0,0,1,.73-2.13A3.09,3.09,0,0,1,838.73,501.17Zm4.75,5.53a3.09,3.09,0,0,0,1.34-.3,2.21,2.21,0,0,0,1-.83,2,2,0,0,0,.34-1.12,1.92,1.92,0,0,0-.69-1.48,2.73,2.73,0,0,0-1.88-.61,2.53,2.53,0,0,0-1.8.61,2,2,0,0,0-.66,1.53,2.1,2.1,0,0,0,.66,1.56A2.39,2.39,0,0,0,843.48,506.7Z"/><path class="cls-4" d="M844.5,499.42l-.12-1.3a2.28,2.28,0,0,0,1.34-.63,1.76,1.76,0,0,0,.41-1.19,2.07,2.07,0,0,0-.29-1.1,2.33,2.33,0,0,0-.76-.77,4.39,4.39,0,0,0-1.29-.5,6.55,6.55,0,0,0-1.65-.21h-.27a3.13,3.13,0,0,1,1.45,2.63,3.05,3.05,0,0,1-1,2.32,3.63,3.63,0,0,1-2.61.95,3.71,3.71,0,0,1-2.7-1,3.33,3.33,0,0,1-1-2.48,3.6,3.6,0,0,1,.58-2,3.69,3.69,0,0,1,1.65-1.35,8.15,8.15,0,0,1,3.11-.46,9.87,9.87,0,0,1,3.36.46,3.93,3.93,0,0,1,1.91,1.36,3.58,3.58,0,0,1,.65,2.13,3.09,3.09,0,0,1-.72,2.11A3,3,0,0,1,844.5,499.42Zm-4.86-5.54a2.67,2.67,0,0,0-1.85.62,1.94,1.94,0,0,0-.68,1.5,2.06,2.06,0,0,0,.73,1.57,2.76,2.76,0,0,0,1.91.67,2.38,2.38,0,0,0,1.71-.64,2.09,2.09,0,0,0,.66-1.57,2,2,0,0,0-.66-1.54A2.55,2.55,0,0,0,839.64,493.88Z"/><path class="cls-4" d="M847.05,490.3h-1.54v-1.54h1.54Z"/><path class="cls-4" d="M841.08,484.7a2.59,2.59,0,0,1-.88,1.25,2.31,2.31,0,0,1-1.37.4,2.68,2.68,0,0,1-2-.86,3.64,3.64,0,0,1,0-4.63,2.75,2.75,0,0,1,2-.88,2.23,2.23,0,0,1,1.33.41,2.55,2.55,0,0,1,.88,1.22,2.79,2.79,0,0,1,2.82-2.08,3.19,3.19,0,0,1,2.38,1,4.1,4.1,0,0,1,0,5.27,3.25,3.25,0,0,1-2.41,1,2.86,2.86,0,0,1-1.8-.55A2.66,2.66,0,0,1,841.08,484.7Zm-2.3.27a1.74,1.74,0,0,0,1.28-.5,1.81,1.81,0,0,0,.5-1.31,1.74,1.74,0,0,0-.5-1.28,1.59,1.59,0,0,0-1.2-.5,1.67,1.67,0,0,0-1.25.51,1.74,1.74,0,0,0-.51,1.28,1.77,1.77,0,0,0,.49,1.29A1.6,1.6,0,0,0,838.78,485Zm5.09.44a2.35,2.35,0,0,0,1.12-.28,1.88,1.88,0,0,0,.84-.81,2.37,2.37,0,0,0,.3-1.17,2.19,2.19,0,0,0-.62-1.6,2.33,2.33,0,0,0-3.21,0,2.24,2.24,0,0,0-.64,1.63,2.15,2.15,0,0,0,2.21,2.21Z"/><path class="cls-4" d="M844.17,478.22l-.12-1.42a2.55,2.55,0,0,0,1.56-.74,2,2,0,0,0,.52-1.39,2.16,2.16,0,0,0-.74-1.65,2.77,2.77,0,0,0-1.95-.68,2.54,2.54,0,0,0-1.83.65,2.28,2.28,0,0,0-.67,1.71,2.38,2.38,0,0,0,1.07,2l-.17,1.27-5.66-1.07v-5.48h1.29v4.4l3,.59a3.6,3.6,0,0,1-.69-2.08,3.28,3.28,0,0,1,1-2.44,3.48,3.48,0,0,1,2.57-1,4,4,0,0,1,2.58.87,3.47,3.47,0,0,1,1.34,2.89,3.56,3.56,0,0,1-.84,2.46A3.31,3.31,0,0,1,844.17,478.22Z"/><path class="cls-4" d="M850.3,462.41A13.43,13.43,0,0,1,847,464.3a10.36,10.36,0,0,1-7.36.2,14.45,14.45,0,0,1-3.79-2.09v-1a22.46,22.46,0,0,0,2.24,1.2,11.41,11.41,0,0,0,2.16.72,12.36,12.36,0,0,0,2.83.33,13.59,13.59,0,0,0,7.23-2.25Z"/><path class="cls-4" d="M845.75,453.13h1.3v7.29a2.55,2.55,0,0,1-.94-.16,5.07,5.07,0,0,1-1.46-.89A14.15,14.15,0,0,1,843,457.6a14.53,14.53,0,0,0-2.34-2.43,2.77,2.77,0,0,0-1.62-.63,1.82,1.82,0,0,0-1.36.57,2.06,2.06,0,0,0-.55,1.5,2.14,2.14,0,0,0,.58,1.57,2.24,2.24,0,0,0,1.63.59l-.15,1.39a3.41,3.41,0,0,1-2.37-1.07,3.72,3.72,0,0,1-.82-2.51,3.52,3.52,0,0,1,.88-2.51,2.9,2.9,0,0,1,2.19-.93,3.17,3.17,0,0,1,1.3.28,5.26,5.26,0,0,1,1.34.89,22.41,22.41,0,0,1,1.94,2.09c.68.81,1.15,1.33,1.39,1.56a4.12,4.12,0,0,0,.73.58Z"/><path class="cls-4" d="M844.14,447.39,844,446a3,3,0,0,0,1.66-.8,1.93,1.93,0,0,0,.51-1.36,2.18,2.18,0,0,0-.66-1.61,2.23,2.23,0,0,0-1.64-.66,2.06,2.06,0,0,0-1.54.61,2.1,2.1,0,0,0-.6,1.55,3.89,3.89,0,0,0,.15,1l-1.19-.15a1.86,1.86,0,0,0,0-.22,2.78,2.78,0,0,0-.45-1.55,1.53,1.53,0,0,0-1.39-.7,1.61,1.61,0,0,0-1.23.51,1.76,1.76,0,0,0-.49,1.3,1.84,1.84,0,0,0,.49,1.32,2.5,2.5,0,0,0,1.49.67l-.24,1.36a3.57,3.57,0,0,1-2.11-1.13,3.27,3.27,0,0,1-.75-2.19,3.56,3.56,0,0,1,.39-1.66,2.81,2.81,0,0,1,2.48-1.57,2.29,2.29,0,0,1,1.3.39,1,1,0,1,0,1.87-.39,2.86,2.86,0,0,1,1.78-.54,3.27,3.27,0,0,1,2.45,1.05,3.72,3.72,0,0,1,1,2.67,3.5,3.5,0,0,1-.86,2.41A3.36,3.36,0,0,1,844.14,447.39Z"/><path class="cls-4" d="M847.24,439.47l-11.4-3.19v-1.09l11.4,3.19Z"/><path class="cls-4" d="M847.05,430.21h-2.63V435h-1.25L836,430v-1.11h7.14v-1.49h1.25v1.49h2.63Zm-3.88,0h-5l5,3.46Z"/><path class="cls-4" d="M839.93,423.06l-2.1.36H836v-1.54h1.8l2.1.36Zm0,2.48-2.1.38H836v-1.54h1.8l2.1.34Z"/><path class="cls-4" d="M850.3,419.26v1a13.59,13.59,0,0,0-7.23-2.25,12.75,12.75,0,0,0-2.81.32,11.41,11.41,0,0,0-2.16.72,24,24,0,0,0-2.26,1.21v-1a14.45,14.45,0,0,1,3.79-2.09,10.36,10.36,0,0,1,7.36.2A13.76,13.76,0,0,1,850.3,419.26Z"/><path class="cls-4" d="M844.66,233.12l-.12-1.42a2.54,2.54,0,0,0,1.56-.73,2,2,0,0,0,.52-1.39,2.15,2.15,0,0,0-.73-1.65,2.8,2.8,0,0,0-2-.68,2.54,2.54,0,0,0-1.83.65,2.3,2.3,0,0,0-.67,1.71,2.34,2.34,0,0,0,1.07,2l-.16,1.27-5.67-1.06v-5.49H838v4.4l3,.6a3.6,3.6,0,0,1-.69-2.09,3.27,3.27,0,0,1,1-2.43,3.5,3.5,0,0,1,2.57-1,4,4,0,0,1,2.59.87,3.49,3.49,0,0,1,1.34,2.89,3.54,3.54,0,0,1-.85,2.46A3.28,3.28,0,0,1,844.66,233.12Z"/><path class="cls-4" d="M842.11,224.56a10.1,10.1,0,0,1-3.15-.4,3.91,3.91,0,0,1-1.83-1.2,3,3,0,0,1-.65-2,3.2,3.2,0,0,1,.36-1.55,2.88,2.88,0,0,1,1-1.11,5.36,5.36,0,0,1,1.64-.68,10.59,10.59,0,0,1,2.6-.25,9.92,9.92,0,0,1,3.13.4,3.89,3.89,0,0,1,1.85,1.19,3.08,3.08,0,0,1,.65,2,3,3,0,0,1-1.15,2.51A7.22,7.22,0,0,1,842.11,224.56Zm0-1.39a6.87,6.87,0,0,0,3.62-.64,1.82,1.82,0,0,0,0-3.13,10.53,10.53,0,0,0-7.23,0,1.89,1.89,0,0,0-.89,1.58,1.73,1.73,0,0,0,.79,1.49A6.94,6.94,0,0,0,842.11,223.17Z"/><path class="cls-4" d="M847.55,215.23H846v-1.54h1.54Z"/><path class="cls-4" d="M841.57,209.63a2.59,2.59,0,0,1-.88,1.25,2.31,2.31,0,0,1-1.37.41,2.66,2.66,0,0,1-2-.87,3.63,3.63,0,0,1,0-4.62,2.7,2.7,0,0,1,2-.88,2.21,2.21,0,0,1,1.33.4,2.55,2.55,0,0,1,.88,1.22,2.93,2.93,0,0,1,1.07-1.54,2.89,2.89,0,0,1,1.76-.53,3.14,3.14,0,0,1,2.37,1,4.05,4.05,0,0,1,0,5.26,3.2,3.2,0,0,1-2.41,1,2.86,2.86,0,0,1-1.8-.55A2.76,2.76,0,0,1,841.57,209.63Zm-2.29.27a1.72,1.72,0,0,0,1.27-.5,1.76,1.76,0,0,0,.5-1.31,1.73,1.73,0,0,0-.49-1.28,1.61,1.61,0,0,0-1.21-.5,1.71,1.71,0,0,0-1.25.51,1.76,1.76,0,0,0-.51,1.28,1.78,1.78,0,0,0,.5,1.29A1.6,1.6,0,0,0,839.28,209.9Zm5.09.44a2.38,2.38,0,0,0,1.12-.28,1.93,1.93,0,0,0,.84-.81,2.47,2.47,0,0,0,.29-1.17,2.24,2.24,0,0,0-3.82-1.58,2.22,2.22,0,0,0-.64,1.63,2.15,2.15,0,0,0,2.21,2.21Z"/><path class="cls-4" d="M842.11,203.15a10.41,10.41,0,0,1-3.15-.4,3.91,3.91,0,0,1-1.83-1.2,3,3,0,0,1-.65-2,3.2,3.2,0,0,1,.36-1.55,2.88,2.88,0,0,1,1-1.11,5.36,5.36,0,0,1,1.64-.68,10.59,10.59,0,0,1,2.6-.25,9.92,9.92,0,0,1,3.13.4,3.89,3.89,0,0,1,1.85,1.19,3.08,3.08,0,0,1,.65,2,3,3,0,0,1-1.15,2.51A7.22,7.22,0,0,1,842.11,203.15Zm0-1.39a6.87,6.87,0,0,0,3.62-.64,1.82,1.82,0,0,0,0-3.13,10.53,10.53,0,0,0-7.23,0,1.89,1.89,0,0,0-.89,1.58,1.73,1.73,0,0,0,.79,1.49A7,7,0,0,0,842.11,201.76Z"/><path class="cls-4" d="M850.79,187.34a13.59,13.59,0,0,1-3.31,1.9,10.37,10.37,0,0,1-3.92.77,10.09,10.09,0,0,1-3.43-.58,14.29,14.29,0,0,1-3.79-2.09v-1a22.63,22.63,0,0,0,2.23,1.2,12,12,0,0,0,2.17.73,12.84,12.84,0,0,0,2.82.32,13.59,13.59,0,0,0,7.23-2.25Z"/><path class="cls-4" d="M846.25,178.06h1.3v7.29a2.3,2.3,0,0,1-.94-.16,4.78,4.78,0,0,1-1.47-.89,14.15,14.15,0,0,1-1.67-1.77,15,15,0,0,0-2.33-2.43,2.82,2.82,0,0,0-1.63-.63,1.82,1.82,0,0,0-1.36.57,2.35,2.35,0,0,0,0,3.07,2.19,2.19,0,0,0,1.62.59l-.14,1.39a3.43,3.43,0,0,1-2.38-1.07,3.69,3.69,0,0,1-.81-2.51,3.49,3.49,0,0,1,.88-2.51,2.87,2.87,0,0,1,2.18-.92,3.29,3.29,0,0,1,1.3.27,5,5,0,0,1,1.35.9,22.07,22.07,0,0,1,1.94,2.08c.68.82,1.14,1.34,1.38,1.57a4.59,4.59,0,0,0,.74.57Z"/><path class="cls-4" d="M840.43,173.68l-2.1.37h-1.81V172.5h1.81l2.1.36Zm0,2.49-2.1.37h-1.81V175h1.81l2.1.34Z"/><path class="cls-4" d="M850.79,169.88v1a13.59,13.59,0,0,0-7.23-2.25,12.66,12.66,0,0,0-2.8.32,12.27,12.27,0,0,0-2.17.72,24.24,24.24,0,0,0-2.25,1.21v-1a14.29,14.29,0,0,1,3.79-2.09,10.09,10.09,0,0,1,3.43-.58,10.19,10.19,0,0,1,3.92.78A13.9,13.9,0,0,1,850.79,169.88Z"/><polyline class="cls-7" points="247.23 251.68 494.88 304.08 713.99 257.63"/><line class="cls-7" x1="236.53" y1="304.89" x2="873.21" y2="305.32"/><line class="cls-7" x1="276.44" y1="257.86" x2="272.89" y2="4.46"/><line class="cls-7" x1="712.74" y1="257.9" x2="715.87" y2="4.47"/><line class="cls-7" x1="289.19" y1="97.85" x2="895.63" y2="98.47"/><line class="cls-7" x1="134.91" y1="716.71" x2="194.9" y2="716.7"/><line class="cls-7" x1="185.99" y1="709.32" x2="186.18" y2="776.17"/><g class="cls-5"><line class="cls-7" x1="721.18" y1="716.76" x2="901.45" y2="716.76"/></g><line class="cls-7" x1="803.63" y1="711.45" x2="802.66" y2="775.17"/><line class="cls-7" x1="872.67" y1="587.97" x2="247.37" y2="587.97"/><g class="cls-5"><path class="cls-7" d="M263.87,208.29s-22.27,59-12.6,141.42M371.72,614.15l124.59-25.67,124.58,26.35"/><path class="cls-10" d="M263.88,208.05s-5.64,18.54-7.35,27.1"/><path class="cls-10" d="M257.51,239.72a78.06,78.06,0,0,1,4.1-6.69l-9-1.8a69.73,69.73,0,0,1,1.22,7.76,53.67,53.67,0,0,1,.26,8.23,54.7,54.7,0,0,1,3.41-7.5"/><path class="cls-7" d="M263.88,208.05s-5.64,18.54-7.35,27.1"/><path class="cls-10" d="M257,237.43a38.89,38.89,0,0,1,2.05-3.34l-4.49-.9a38.25,38.25,0,0,1,.6,3.88,28.39,28.39,0,0,1,.14,4.11,26.88,26.88,0,0,1,1.7-3.75"/><path class="cls-10" d="M251.12,348.69s-2.2-22.77-2.2-28.34"/><path class="cls-10" d="M247.06,316.06c-.91,3-1.75,5-2.71,7.37h9.16a72.12,72.12,0,0,1-2.71-7.37,54.1,54.1,0,0,1-1.87-8,54.1,54.1,0,0,1-1.87,8"/><path class="cls-7" d="M251.12,348.69s-2.2-22.77-2.2-28.34"/><path class="cls-10" d="M248,318.21c-.46,1.5-.87,2.47-1.36,3.68h4.58a36.64,36.64,0,0,1-1.35-3.68,28.14,28.14,0,0,1-.94-4,27.87,27.87,0,0,1-.93,4"/><path class="cls-7" d="M257.75,548.35S244.43,607,272.9,678"/><path class="cls-10" d="M257.71,548.13s-2.62,18.09-2.8,26.19"/><path class="cls-10" d="M256.68,578.65a78,78,0,0,1,2.87-7.3l-9.16-.2a72.54,72.54,0,0,1,2.54,7.42,54.49,54.49,0,0,1,1.7,8.06,54.28,54.28,0,0,1,2.05-8"/><path class="cls-7" d="M257.71,548.13s-2.62,18.09-2.8,26.19"/><path class="cls-10" d="M255.79,576.49c.49-1.49.93-2.46,1.44-3.65l-4.58-.1a36.19,36.19,0,0,1,1.27,3.71,27,27,0,0,1,.85,4,26.55,26.55,0,0,1,1-4"/><path class="cls-10" d="M272.52,677.15s-7.33-19.73-8.5-24.7"/><path class="cls-10" d="M261.23,648.7c-.2,3.13-.57,5.22-1,7.79l8.92-2.11a70.44,70.44,0,0,1-4.33-6.54,53.48,53.48,0,0,1-3.66-7.38,55.19,55.19,0,0,1,0,8.24"/><path class="cls-7" d="M272.52,677.15s-7.33-19.73-8.5-24.7"/><path class="cls-10" d="M262.62,650.57c-.1,1.57-.28,2.61-.47,3.9l4.46-1.05a37.39,37.39,0,0,1-2.17-3.28,27.08,27.08,0,0,1-1.82-3.69,26.52,26.52,0,0,1,0,4.12"/></g><path class="cls-7" d="M704.06,131.93l-1.44-33.45-.55-71.28M285.32,135.25l3.87-36.12-.42-71.93"/><g class="cls-5"><line class="cls-9" x1="177.18" y1="726.19" x2="109.41" y2="799.74"/></g><polygon class="cls-4" points="172.75 725.36 185.81 717.09 178.64 730.79 172.75 725.36"/><g class="cls-5"><path class="cls-4" d="M106.81,795.06l-8.13-7.46L102,784a6.48,6.48,0,0,1,1.73-1.45,2.43,2.43,0,0,1,1.6-.19,3.1,3.1,0,0,1,1.54.78,2.78,2.78,0,0,1,.94,1.9,3.86,3.86,0,0,1-.83,2.42,4,4,0,0,1,1-.28,7.87,7.87,0,0,1,1.9.1l3.51.62-1.25,1.35-2.67-.48c-.78-.13-1.39-.21-1.83-.25a3.32,3.32,0,0,0-1,.05,2,2,0,0,0-.66.29,4.49,4.49,0,0,0-.59.56l-1.14,1.25,3.6,3.31Zm-3.56-5.24,2.12-2.31a4.49,4.49,0,0,0,.91-1.3,1.69,1.69,0,0,0,.09-1.08,1.82,1.82,0,0,0-.53-.88,1.65,1.65,0,0,0-1.33-.45,2.67,2.67,0,0,0-1.59,1l-2.35,2.57Z"/><path class="cls-4" d="M117.38,783.52l-.91,1-6.36-5.83a6.75,6.75,0,0,1-.18,1.57,9.54,9.54,0,0,1-.44,1.53l-1-.89a8.12,8.12,0,0,0,.39-2.33,5.18,5.18,0,0,0-.27-1.89l.59-.64Z"/><path class="cls-4" d="M120.24,780.41l-1.13-1,1-1.13,1.13,1Z"/><path class="cls-4" d="M120.49,775.86l.87-1.13a2.62,2.62,0,0,0,1.65.52,2,2,0,0,0,1.32-.67,2.2,2.2,0,0,0,.58-1.72,2.81,2.81,0,0,0-1-1.82,2.48,2.48,0,0,0-1.78-.75,2.25,2.25,0,0,0-1.65.8,2.5,2.5,0,0,0-.58,1.07,2.39,2.39,0,0,0,0,1.13l-1,.82-3.45-4.61,3.71-4,1,.87-3,3.24L119,772a3.65,3.65,0,0,1,.9-2,3.3,3.3,0,0,1,2.38-1.12,3.52,3.52,0,0,1,2.57,1,4,4,0,0,1,1.31,2.39,3.48,3.48,0,0,1-1,3,3.53,3.53,0,0,1-2.28,1.24A3.29,3.29,0,0,1,120.49,775.86Z"/><path class="cls-4" d="M126.67,769.63l.79-1a2.27,2.27,0,0,0,1.41.43,1.72,1.72,0,0,0,1.11-.6,2.08,2.08,0,0,0,.53-1,2.32,2.32,0,0,0,0-1.08,4.44,4.44,0,0,0-.61-1.25,7.2,7.2,0,0,0-1.08-1.26l-.21-.18a3.17,3.17,0,0,1-.71,2.92,3.08,3.08,0,0,1-2.3,1,3.62,3.62,0,0,1-2.56-1.08,3.69,3.69,0,0,1-1.33-2.55,3.35,3.35,0,0,1,.92-2.52,3.48,3.48,0,0,1,1.76-1.05,3.63,3.63,0,0,1,2.13.11,8.12,8.12,0,0,1,2.6,1.76,10,10,0,0,1,2.17,2.61,3.92,3.92,0,0,1,.48,2.3,3.43,3.43,0,0,1-.95,2,2.9,2.9,0,0,1-4.11.44Zm.16-7.38a2.67,2.67,0,0,0-1.78-.79,2,2,0,0,0-1.52.64,2.08,2.08,0,0,0-.52,1.66,2.72,2.72,0,0,0,1,1.78,2.41,2.41,0,0,0,1.69.69,2.13,2.13,0,0,0,1.54-.71,2,2,0,0,0,.56-1.59A2.62,2.62,0,0,0,126.83,762.25Z"/><path class="cls-4" d="M141.48,762a13.42,13.42,0,0,1-3.72-.84,10.2,10.2,0,0,1-3.41-2.08,10.31,10.31,0,0,1-2.14-2.75,14.33,14.33,0,0,1-1.38-4.1l.66-.71a22.34,22.34,0,0,0,.83,2.39,11.54,11.54,0,0,0,1.11,2,12.33,12.33,0,0,0,1.86,2.15,13.65,13.65,0,0,0,6.85,3.23Z"/><path class="cls-4" d="M144,754.5l-.91,1-6.36-5.83a6.88,6.88,0,0,1-.18,1.58,9.1,9.1,0,0,1-.44,1.52l-1-.88a8.19,8.19,0,0,0,.39-2.34,5.09,5.09,0,0,0-.27-1.88l.59-.65Z"/><path class="cls-4" d="M146.05,752.54l-6.24-10.06.73-.8,6.25,10.06Z"/><path class="cls-4" d="M152.69,745l-.92,1-6.36-5.83a6.8,6.8,0,0,1-.18,1.57,8.61,8.61,0,0,1-.44,1.53l-1-.89a8.19,8.19,0,0,0,.39-2.34,5.12,5.12,0,0,0-.27-1.88l.59-.64Z"/><path class="cls-4" d="M153.64,731.67l-.83,1.06a2.52,2.52,0,0,0-1.2-.4,1.8,1.8,0,0,0-1.34.6,1.86,1.86,0,0,0-.5,1.09,3,3,0,0,0,.32,1.66,7,7,0,0,0,1.62,2,3.11,3.11,0,0,1,0-1.63,3.24,3.24,0,0,1,.74-1.33,3.05,3.05,0,0,1,2.29-1,3.6,3.6,0,0,1,2.54,1,4.33,4.33,0,0,1,1.12,1.64,3.22,3.22,0,0,1,.17,1.83,3.3,3.3,0,0,1-.85,1.63,3.48,3.48,0,0,1-2.78,1.19,6.29,6.29,0,0,1-3.74-2,7.37,7.37,0,0,1-2.63-4,3.41,3.41,0,0,1,.94-2.9,3.13,3.13,0,0,1,2-1.08A3.1,3.1,0,0,1,153.64,731.67Zm-.23,7.29a3.13,3.13,0,0,0,1.19.68,2.13,2.13,0,0,0,1.27.05,2.08,2.08,0,0,0,1-.6,1.9,1.9,0,0,0,.49-1.55,2.76,2.76,0,0,0-1-1.73,2.57,2.57,0,0,0-1.74-.77,2,2,0,0,0-1.52.69,2,2,0,0,0-.57,1.59A2.33,2.33,0,0,0,153.41,739Z"/><path class="cls-4" d="M155.87,731l-1.8-1.14-1.33-1.22,1-1.14,1.33,1.22,1.32,1.67Zm1.68-1.83L155.76,728l-1.33-1.22,1-1.14,1.33,1.22,1.3,1.69Z"/><path class="cls-4" d="M167.76,733.39l-.66.72a13.55,13.55,0,0,0-3.81-6.54,12.1,12.1,0,0,0-2.28-1.66,11.07,11.07,0,0,0-2.08-.94c-.47-.16-1.29-.37-2.48-.63l.65-.72a14.68,14.68,0,0,1,4.21,1,10.46,10.46,0,0,1,5.29,5.12A14.13,14.13,0,0,1,167.76,733.39Z"/></g><line class="cls-7" x1="141.7" y1="702.54" x2="141.7" y2="420.58"/><polygon class="cls-10" points="145.51 701.87 141.54 716.69 137.56 701.87 145.51 701.87"/><polygon class="cls-7" points="145.51 701.87 141.54 716.69 137.56 701.87 145.51 701.87"/><polygon class="cls-10" points="145.51 422.14 141.54 407.32 137.56 422.14 145.51 422.14"/><polygon class="cls-7" points="145.51 422.14 141.54 407.32 137.56 422.14 145.51 422.14"/><path class="cls-4" d="M125.33,590.69H124v-7.13h1a15.2,15.2,0,0,0,3,2.08,18.32,18.32,0,0,0,3.82,1.6,14.61,14.61,0,0,0,3,.52v1.39a13.59,13.59,0,0,1-3.14-.51,16.59,16.59,0,0,1-3.55-1.4,15.14,15.14,0,0,1-2.89-2Z"/><path class="cls-4" d="M126.59,575.19l.1,1.35a2.52,2.52,0,0,0-1.15.51,1.79,1.79,0,0,0-.58,1.35,1.87,1.87,0,0,0,.36,1.14,3.06,3.06,0,0,0,1.36,1,7.24,7.24,0,0,0,2.55.38,3.07,3.07,0,0,1-1.11-1.19,3.27,3.27,0,0,1-.36-1.49,3,3,0,0,1,1-2.3,3.54,3.54,0,0,1,2.57-1,4.19,4.19,0,0,1,1.93.45,3.2,3.2,0,0,1,1.37,1.22,3.66,3.66,0,0,1-.77,4.54,6.31,6.31,0,0,1-4.11,1.07,7.36,7.36,0,0,1-4.64-1.18,3.38,3.38,0,0,1-1.27-2.78,3,3,0,0,1,2.75-3.13Zm4.75,5.53a3.12,3.12,0,0,0,1.34-.3,2.09,2.09,0,0,0,1-.83,2,2,0,0,0,.34-1.12,1.9,1.9,0,0,0-.69-1.47,2.75,2.75,0,0,0-1.88-.62,2.5,2.5,0,0,0-1.8.61,2,2,0,0,0-.66,1.53,2.07,2.07,0,0,0,.66,1.56A2.33,2.33,0,0,0,131.34,580.72Z"/><path class="cls-4" d="M134.91,572.89h-1.54v-1.54h1.54Z"/><path class="cls-4" d="M132,569.37l-.18-1.36a3,3,0,0,0,1.66-.79,2,2,0,0,0,.51-1.37,2.2,2.2,0,0,0-.66-1.61,2.25,2.25,0,0,0-1.64-.66,2.1,2.1,0,0,0-1.54.61,2.13,2.13,0,0,0-.61,1.55,4,4,0,0,0,.15,1l-1.18-.16a1.7,1.7,0,0,0,0-.21,2.79,2.79,0,0,0-.45-1.56,1.55,1.55,0,0,0-1.39-.69,1.64,1.64,0,0,0-1.23.5,1.78,1.78,0,0,0-.49,1.3,1.84,1.84,0,0,0,.49,1.32,2.5,2.5,0,0,0,1.49.68l-.24,1.35a3.48,3.48,0,0,1-2.11-1.13,3.25,3.25,0,0,1-.75-2.19,3.59,3.59,0,0,1,.39-1.66,2.84,2.84,0,0,1,1.06-1.16,2.68,2.68,0,0,1,1.42-.4,2.3,2.3,0,0,1,1.3.38,2.66,2.66,0,0,1,.93,1.14,2.51,2.51,0,0,1,.94-1.52,2.86,2.86,0,0,1,1.78-.54,3.23,3.23,0,0,1,2.44,1.05,3.7,3.7,0,0,1,1,2.66,3.45,3.45,0,0,1-.87,2.41A3.37,3.37,0,0,1,132,569.37Z"/><path class="cls-4" d="M132,560.81l-.12-1.42a2.55,2.55,0,0,0,1.56-.74,2,2,0,0,0,.52-1.39,2.16,2.16,0,0,0-.74-1.65,2.77,2.77,0,0,0-1.95-.68,2.53,2.53,0,0,0-1.83.65,2.28,2.28,0,0,0-.67,1.71,2.35,2.35,0,0,0,.3,1.18,2.28,2.28,0,0,0,.77.83l-.17,1.27L124,559.5V554h1.29v4.4l3,.59a3.6,3.6,0,0,1-.69-2.08,3.32,3.32,0,0,1,1-2.44,3.52,3.52,0,0,1,2.58-1,4,4,0,0,1,2.58.87,3.47,3.47,0,0,1,1.34,2.89,3.56,3.56,0,0,1-.84,2.46A3.31,3.31,0,0,1,132,560.81Z"/><path class="cls-4" d="M138.15,545a13.18,13.18,0,0,1-3.3,1.89,10.28,10.28,0,0,1-3.93.78,10.13,10.13,0,0,1-3.43-.58A14.45,14.45,0,0,1,123.7,545v-1a23.85,23.85,0,0,0,2.23,1.2,11.75,11.75,0,0,0,2.17.72,12.36,12.36,0,0,0,2.83.33,13.53,13.53,0,0,0,7.22-2.25Z"/><path class="cls-4" d="M132,542.83l-.18-1.36a3,3,0,0,0,1.66-.79,2,2,0,0,0,.51-1.37,2.2,2.2,0,0,0-.66-1.61,2.25,2.25,0,0,0-1.64-.66,2.1,2.1,0,0,0-1.54.61,2.13,2.13,0,0,0-.61,1.55,3.89,3.89,0,0,0,.15,1l-1.18-.15a1.94,1.94,0,0,0,0-.22,2.79,2.79,0,0,0-.45-1.56,1.55,1.55,0,0,0-1.39-.69,1.64,1.64,0,0,0-1.23.5,1.78,1.78,0,0,0-.49,1.3,1.84,1.84,0,0,0,.49,1.32,2.5,2.5,0,0,0,1.49.68l-.24,1.35a3.43,3.43,0,0,1-2.11-1.13,3.23,3.23,0,0,1-.75-2.19,3.59,3.59,0,0,1,.39-1.66,2.84,2.84,0,0,1,1.06-1.16,2.68,2.68,0,0,1,1.42-.4,2.38,2.38,0,0,1,1.3.38,2.66,2.66,0,0,1,.93,1.14,2.54,2.54,0,0,1,.94-1.52,2.86,2.86,0,0,1,1.78-.54,3.23,3.23,0,0,1,2.44,1,3.7,3.7,0,0,1,1,2.66,3.45,3.45,0,0,1-.87,2.41A3.32,3.32,0,0,1,132,542.83Z"/><path class="cls-4" d="M134.91,533.51h-1.54V532h1.54Z"/><path class="cls-4" d="M129.48,530a10.32,10.32,0,0,1-3.15-.4,3.9,3.9,0,0,1-1.84-1.2,3.06,3.06,0,0,1-.65-2,3.2,3.2,0,0,1,.36-1.55,3,3,0,0,1,1-1.11,5.47,5.47,0,0,1,1.64-.68,10.62,10.62,0,0,1,2.61-.25,10,10,0,0,1,3.13.4,3.86,3.86,0,0,1,1.84,1.19,3.08,3.08,0,0,1,.65,2A3,3,0,0,1,134,528.9,7.31,7.31,0,0,1,129.48,530Zm0-1.39a6.82,6.82,0,0,0,3.61-.64,1.81,1.81,0,0,0,0-3.13,6.87,6.87,0,0,0-3.61-.64,6.84,6.84,0,0,0-3.62.64,1.88,1.88,0,0,0-.9,1.58,1.75,1.75,0,0,0,.79,1.49A7.08,7.08,0,0,0,129.48,528.6Z"/><path class="cls-4" d="M129.48,521.42a10,10,0,0,1-3.15-.4,4,4,0,0,1-1.84-1.19,3.08,3.08,0,0,1-.65-2,3.27,3.27,0,0,1,.36-1.56,3,3,0,0,1,1-1.1,5.74,5.74,0,0,1,1.64-.69,11.14,11.14,0,0,1,2.61-.25,10.31,10.31,0,0,1,3.13.4,4,4,0,0,1,1.84,1.19,3.09,3.09,0,0,1,.65,2,3,3,0,0,1-1.14,2.5A7.24,7.24,0,0,1,129.48,521.42Zm0-1.39a7,7,0,0,0,3.61-.63,1.82,1.82,0,0,0,0-3.14,10.53,10.53,0,0,0-7.23,0,1.88,1.88,0,0,0-.9,1.58,1.74,1.74,0,0,0,.79,1.49A7,7,0,0,0,129.48,520Z"/><path class="cls-4" d="M126.59,505.83l.1,1.35a2.52,2.52,0,0,0-1.15.51A1.79,1.79,0,0,0,125,509a1.87,1.87,0,0,0,.36,1.14,3.06,3.06,0,0,0,1.36,1,7.24,7.24,0,0,0,2.55.38,3.07,3.07,0,0,1-1.11-1.19,3.24,3.24,0,0,1-.36-1.49,3,3,0,0,1,1-2.3,3.58,3.58,0,0,1,2.57-.95,4.19,4.19,0,0,1,1.93.45,3.16,3.16,0,0,1,1.37,1.23,3.39,3.39,0,0,1,.47,1.77,3.46,3.46,0,0,1-1.24,2.76,6.31,6.31,0,0,1-4.11,1.07,7.36,7.36,0,0,1-4.64-1.18,3.38,3.38,0,0,1-1.27-2.78,3,3,0,0,1,2.75-3.13Zm4.75,5.53a3.12,3.12,0,0,0,1.34-.3,2.09,2.09,0,0,0,1-.83,2,2,0,0,0,.34-1.12,1.9,1.9,0,0,0-.69-1.47,2.75,2.75,0,0,0-1.88-.62,2.55,2.55,0,0,0-1.8.61,2,2,0,0,0-.66,1.54,2.06,2.06,0,0,0,.66,1.55A2.33,2.33,0,0,0,131.34,511.36Z"/><path class="cls-4" d="M127.79,501.36l-2.1.37h-1.8v-1.54h1.8l2.1.36Zm0,2.49-2.1.37h-1.8v-1.54h1.8l2.1.34Z"/><path class="cls-4" d="M138.15,497.62v1a13.54,13.54,0,0,0-7.23-2.25,12.1,12.1,0,0,0-2.8.33,11,11,0,0,0-2.17.71,24.24,24.24,0,0,0-2.25,1.21v-1a14.45,14.45,0,0,1,3.79-2.09,10.09,10.09,0,0,1,3.43-.58,10.19,10.19,0,0,1,3.92.78A13.7,13.7,0,0,1,138.15,497.62Z"/><line class="cls-9" x1="444.09" y1="453.03" x2="546.1" y2="453.03"/><polygon class="cls-4" points="445.99 456.84 431.26 452.87 445.99 448.89 445.99 456.84"/><polygon class="cls-4" points="544.14 456.84 558.87 452.87 544.14 448.89 544.14 456.84"/><path class="cls-4" d="M453.69,440.66l1.35-.18a3,3,0,0,0,.8,1.66,2,2,0,0,0,1.36.51,2.16,2.16,0,0,0,1.61-.66,2.25,2.25,0,0,0,.66-1.64,2.06,2.06,0,0,0-.61-1.54,2.11,2.11,0,0,0-1.55-.61,3.89,3.89,0,0,0-.95.15l.15-1.18h.22a2.78,2.78,0,0,0,1.55-.45,1.54,1.54,0,0,0,.7-1.39,1.61,1.61,0,0,0-.51-1.23,1.76,1.76,0,0,0-1.3-.49,1.84,1.84,0,0,0-1.31.49,2.45,2.45,0,0,0-.68,1.49l-1.35-.24a3.47,3.47,0,0,1,1.12-2.11,3.27,3.27,0,0,1,2.19-.75,3.56,3.56,0,0,1,1.66.39A2.81,2.81,0,0,1,460,434a2.77,2.77,0,0,1,.4,1.42,2.31,2.31,0,0,1-.39,1.3,2.58,2.58,0,0,1-1.13.93,2.54,2.54,0,0,1,1.52.94,2.86,2.86,0,0,1,.54,1.78,3.23,3.23,0,0,1-1.05,2.44,3.72,3.72,0,0,1-2.67,1,3.46,3.46,0,0,1-2.41-.87A3.31,3.31,0,0,1,453.69,440.66Z"/><path class="cls-4" d="M467.35,443.57H466V435a6.74,6.74,0,0,1-1.28.93,9.68,9.68,0,0,1-1.42.7v-1.31a8.35,8.35,0,0,0,2-1.29,4.94,4.94,0,0,0,1.2-1.48h.88Z"/><path class="cls-4" d="M471.57,443.57V442h1.54v1.54Z"/><path class="cls-4" d="M475.18,434v-1.3h7.14v1.05a15.21,15.21,0,0,0-2.09,3,18.32,18.32,0,0,0-1.6,3.82,14,14,0,0,0-.51,3h-1.4a13.68,13.68,0,0,1,.52-3.14,16.09,16.09,0,0,1,1.4-3.55,15.61,15.61,0,0,1,1.94-2.89Z"/><path class="cls-4" d="M483.66,440.69l1.42-.12a2.54,2.54,0,0,0,.73,1.56,2,2,0,0,0,1.39.52,2.16,2.16,0,0,0,1.65-.74,2.73,2.73,0,0,0,.68-2,2.53,2.53,0,0,0-.65-1.83,2.24,2.24,0,0,0-1.7-.67,2.33,2.33,0,0,0-1.18.3,2.2,2.2,0,0,0-.83.77l-1.27-.17L485,432.7h5.48V434h-4.4l-.59,3a3.52,3.52,0,0,1,2.08-.7,3.31,3.31,0,0,1,2.43,1,3.49,3.49,0,0,1,1,2.58,4,4,0,0,1-.88,2.58,3.46,3.46,0,0,1-2.89,1.34,3.6,3.6,0,0,1-2.46-.84A3.3,3.3,0,0,1,483.66,440.69Z"/><path class="cls-4" d="M499.47,446.81a13.52,13.52,0,0,1-1.9-3.3,10.27,10.27,0,0,1-.77-3.93,10.13,10.13,0,0,1,.58-3.43,14.17,14.17,0,0,1,2.09-3.79h1c-.61,1-1,1.79-1.21,2.23a13.46,13.46,0,0,0-.72,2.17,12.35,12.35,0,0,0-.32,2.83,13.53,13.53,0,0,0,2.25,7.22Z"/><path class="cls-4" d="M506.73,443.57h-1.35V435a7.19,7.19,0,0,1-1.29.93,9.22,9.22,0,0,1-1.42.7v-1.31a8,8,0,0,0,2-1.29,5.15,5.15,0,0,0,1.21-1.48h.87Z"/><path class="cls-4" d="M519.58,443.57h-1.36V435a6.74,6.74,0,0,1-1.28.93,9.28,9.28,0,0,1-1.43.7v-1.31a8.22,8.22,0,0,0,2-1.29,4.94,4.94,0,0,0,1.2-1.48h.88Z"/><path class="cls-4" d="M522.4,443.76l3.2-11.4h1.08l-3.19,11.4Z"/><path class="cls-4" d="M531.66,443.57v-2.64h-4.78v-1.24l5-7.14H533v7.14h1.49v1.24H533v2.64Zm0-3.88v-5l-3.45,5Z"/><path class="cls-4" d="M536.33,436.45l-.38-2.1v-1.8h1.55v1.8l-.34,2.1Zm2.49,0-.37-2.1v-1.8H540v1.8l-.36,2.1Z"/><path class="cls-4" d="M542.62,446.81h-1a13.53,13.53,0,0,0,2.25-7.22,12.74,12.74,0,0,0-1-5c-.2-.45-.6-1.21-1.21-2.26h1a14.45,14.45,0,0,1,2.09,3.79,10.36,10.36,0,0,1-.2,7.36A13.83,13.83,0,0,1,542.62,446.81Z"/><line class="cls-9" x1="854.33" y1="707.32" x2="854.33" y2="602.05"/><polygon class="cls-4" points="858.13 702.67 854.16 716.76 850.19 702.67 858.13 702.67"/><polygon class="cls-4" points="858.13 602.05 854.16 587.97 850.19 602.05 858.13 602.05"/><line class="cls-9" x1="892.43" y1="703.27" x2="892.43" y2="112.28"/><polygon class="cls-4" points="896.24 702.07 892.27 716.76 888.29 702.07 896.24 702.07"/><polygon class="cls-4" points="896.24 112.86 892.27 98.17 888.29 112.86 896.24 112.86"/><line class="cls-9" x1="854.33" y1="574.7" x2="854.33" y2="318.24"/><polygon class="cls-4" points="858.13 573.25 854.16 587.95 850.19 573.25 858.13 573.25"/><polygon class="cls-4" points="858.13 319.8 854.16 305.1 850.19 319.8 858.13 319.8"/><path class="cls-4" d="M885.62,442.92v1.35H877a7.08,7.08,0,0,1,.93,1.28,9.74,9.74,0,0,1,.7,1.43h-1.31a8.22,8.22,0,0,0-1.29-2,5.1,5.1,0,0,0-1.48-1.2v-.87Z"/><path class="cls-4" d="M882.74,439.45l-.12-1.42a2.55,2.55,0,0,0,1.56-.74,2,2,0,0,0,.52-1.38,2.18,2.18,0,0,0-.74-1.66,2.77,2.77,0,0,0-2-.67,2.48,2.48,0,0,0-1.83.65,2.24,2.24,0,0,0-.67,1.7,2.33,2.33,0,0,0,.3,1.18,2.2,2.2,0,0,0,.77.83l-.17,1.27-5.66-1.07v-5.48H876v4.4l3,.59a3.52,3.52,0,0,1-.7-2.08,3.34,3.34,0,0,1,1-2.44,3.52,3.52,0,0,1,2.58-1,4,4,0,0,1,2.58.87,3.48,3.48,0,0,1,1.34,2.9,3.56,3.56,0,0,1-.84,2.45A3.27,3.27,0,0,1,882.74,439.45Z"/><path class="cls-4" d="M884.32,423.77h1.3v7.29a2.51,2.51,0,0,1-.94-.16,5.07,5.07,0,0,1-1.46-.89,14.15,14.15,0,0,1-1.67-1.77,14.53,14.53,0,0,0-2.34-2.43,2.78,2.78,0,0,0-1.63-.63,1.81,1.81,0,0,0-1.35.57,2.06,2.06,0,0,0-.56,1.5,2.15,2.15,0,0,0,.59,1.57,2.2,2.2,0,0,0,1.63.59l-.15,1.39a3.41,3.41,0,0,1-2.37-1.07,3.72,3.72,0,0,1-.82-2.51,3.52,3.52,0,0,1,.88-2.51,2.89,2.89,0,0,1,2.19-.92,3.33,3.33,0,0,1,1.3.27,5.26,5.26,0,0,1,1.34.89A22.41,22.41,0,0,1,882.2,427c.68.81,1.15,1.34,1.39,1.57a4.54,4.54,0,0,0,.73.57Z"/><path class="cls-4" d="M885.62,421.56h-1.54V420h1.54Z"/><path class="cls-4" d="M885.62,413.7H883v4.78h-1.24l-7.14-5v-1.1h7.14v-1.49H883v1.49h2.64Zm-3.88,0h-5l5,3.45Z"/><path class="cls-4" d="M880.19,409.47a10,10,0,0,1-3.15-.4,3.93,3.93,0,0,1-1.84-1.19,3.08,3.08,0,0,1-.65-2,3.27,3.27,0,0,1,.36-1.56,3,3,0,0,1,1-1.1,5.74,5.74,0,0,1,1.64-.69,11.2,11.2,0,0,1,2.61-.25,10.31,10.31,0,0,1,3.13.4,4,4,0,0,1,1.84,1.2,3.35,3.35,0,0,1-.49,4.5A7.24,7.24,0,0,1,880.19,409.47Zm0-1.39a7,7,0,0,0,3.61-.63,1.82,1.82,0,0,0,0-3.14,10.69,10.69,0,0,0-7.23,0,1.89,1.89,0,0,0-.9,1.58,1.74,1.74,0,0,0,.79,1.49A7,7,0,0,0,880.19,408.08Z"/><path class="cls-4" d="M888.87,393.67a14.1,14.1,0,0,1-3.31,1.89,10.36,10.36,0,0,1-7.36.2,14.45,14.45,0,0,1-3.79-2.09v-1c1,.6,1.79,1,2.23,1.2a11.75,11.75,0,0,0,2.17.72,12.35,12.35,0,0,0,2.83.32,13.66,13.66,0,0,0,7.23-2.24Z"/><path class="cls-4" d="M877.3,384.48l.1,1.34a2.52,2.52,0,0,0-1.15.51,1.79,1.79,0,0,0-.58,1.36,1.84,1.84,0,0,0,.36,1.13,3,3,0,0,0,1.36,1,7.06,7.06,0,0,0,2.55.38,3.07,3.07,0,0,1-1.11-1.19,3.23,3.23,0,0,1-.36-1.48,3.06,3.06,0,0,1,1-2.31,3.58,3.58,0,0,1,2.57-1,4.19,4.19,0,0,1,1.93.45,3.29,3.29,0,0,1,1.37,1.23,3.39,3.39,0,0,1,.47,1.77,3.46,3.46,0,0,1-1.24,2.76,6.31,6.31,0,0,1-4.11,1.07,7.32,7.32,0,0,1-4.64-1.18,3.41,3.41,0,0,1-1.27-2.78,3.16,3.16,0,0,1,.73-2.13A3.12,3.12,0,0,1,877.3,384.48Zm4.75,5.52a3.26,3.26,0,0,0,1.34-.29,2.21,2.21,0,0,0,1-.83,2,2,0,0,0,.34-1.12,1.91,1.91,0,0,0-.69-1.48,2.73,2.73,0,0,0-1.88-.62,2.56,2.56,0,0,0-1.8.61,2,2,0,0,0-.66,1.54,2.06,2.06,0,0,0,.66,1.55A2.33,2.33,0,0,0,882.05,390Z"/><path class="cls-4" d="M878.5,380l-2.1.37h-1.8v-1.54h1.8l2.1.36Zm0,2.49-2.1.38h-1.8v-1.54h1.8l2.1.33Z"/><path class="cls-4" d="M888.87,376.2v1a13.57,13.57,0,0,0-7.23-2.24,12.52,12.52,0,0,0-5,1c-.45.2-1.21.6-2.26,1.21v-1a14.45,14.45,0,0,1,3.79-2.09,10.36,10.36,0,0,1,7.36.2A14.1,14.1,0,0,1,888.87,376.2Z"/><line class="cls-9" x1="854.33" y1="292.72" x2="854.33" y2="112.28"/><polygon class="cls-4" points="858.13 291.24 854.16 305.32 850.19 291.24 858.13 291.24"/><polygon class="cls-4" points="858.13 112.56 854.16 98.47 850.19 112.56 858.13 112.56"/><path class="cls-4" d="M616.35,707.59l0-11,4.89,0a6.65,6.65,0,0,1,2.24.31,2.46,2.46,0,0,1,1.22,1.06,3.18,3.18,0,0,1,.45,1.66,2.78,2.78,0,0,1-.77,2,3.86,3.86,0,0,1-2.35,1,3.74,3.74,0,0,1,.88.55,7.63,7.63,0,0,1,1.2,1.47l1.9,3h-1.83l-1.45-2.3a18.32,18.32,0,0,0-1-1.52,3.39,3.39,0,0,0-.73-.74,2.34,2.34,0,0,0-.67-.3,5.84,5.84,0,0,0-.81-.06h-1.69l0,4.89Zm1.49-6.15,3.13,0a4.71,4.71,0,0,0,1.57-.2,1.74,1.74,0,0,0,.86-.66,1.92,1.92,0,0,0,.3-1,1.62,1.62,0,0,0-.57-1.28,2.65,2.65,0,0,0-1.79-.52l-3.49,0Z"/><path class="cls-4" d="M632,707.67h-1.35l0-8.63a7.19,7.19,0,0,1-1.29.93,10.63,10.63,0,0,1-1.42.69v-1.31a8,8,0,0,0,2-1.28,5.09,5.09,0,0,0,1.21-1.47h.88Z"/><path class="cls-4" d="M642.58,706.42v1.31l-7.29,0a2.49,2.49,0,0,1,.17-.94,4.74,4.74,0,0,1,.89-1.46,14.34,14.34,0,0,1,1.78-1.66,14.9,14.9,0,0,0,2.45-2.33,2.77,2.77,0,0,0,.63-1.62,1.77,1.77,0,0,0-.56-1.36,2.08,2.08,0,0,0-1.5-.56,2.13,2.13,0,0,0-1.57.58A2.24,2.24,0,0,0,637,700l-1.39-.15a3.4,3.4,0,0,1,1.09-2.37,3.63,3.63,0,0,1,2.5-.8,3.47,3.47,0,0,1,2.51.89,2.93,2.93,0,0,1,.92,2.19,3.53,3.53,0,0,1-.28,1.3,5.13,5.13,0,0,1-.91,1.34,22.61,22.61,0,0,1-2.09,1.93,20.41,20.41,0,0,0-1.57,1.38,3.79,3.79,0,0,0-.58.73Z"/><path class="cls-4" d="M644.78,707.74V706.2h1.54v1.55Z"/><path class="cls-4" d="M648.44,698.17v-1.3l7.13,0V698a15,15,0,0,0-2.1,3,18,18,0,0,0-1.62,3.81,13.86,13.86,0,0,0-.53,3h-1.4a13.76,13.76,0,0,1,.53-3.14,16.38,16.38,0,0,1,1.42-3.54,15.54,15.54,0,0,1,2-2.88Z"/><path class="cls-4" d="M656.89,702.36a10.34,10.34,0,0,1,.42-3.15,3.86,3.86,0,0,1,1.21-1.83,3.06,3.06,0,0,1,2-.64,3.35,3.35,0,0,1,1.55.37,3,3,0,0,1,1.1,1,5.69,5.69,0,0,1,.68,1.65,10.74,10.74,0,0,1,.23,2.6,10,10,0,0,1-.41,3.14,3.91,3.91,0,0,1-1.2,1.83,3.37,3.37,0,0,1-4.51-.51A7.29,7.29,0,0,1,656.89,702.36Zm1.39,0a6.87,6.87,0,0,0,.62,3.61,1.87,1.87,0,0,0,1.56.91A1.89,1.89,0,0,0,662,706a7,7,0,0,0,.65-3.6,6.89,6.89,0,0,0-.62-3.62,1.9,1.9,0,0,0-1.58-.91,1.74,1.74,0,0,0-1.49.79A7,7,0,0,0,658.28,702.37Z"/><path class="cls-4" d="M672.66,711.12a13.8,13.8,0,0,1-1.88-3.32,10.33,10.33,0,0,1-.16-7.36,14.66,14.66,0,0,1,2.11-3.78h1a24.9,24.9,0,0,0-1.21,2.22,12.12,12.12,0,0,0-1.07,5,13.47,13.47,0,0,0,2.21,7.24Z"/><path class="cls-4" d="M679.94,707.91h-1.36l0-8.63a7.19,7.19,0,0,1-1.29.93,9.59,9.59,0,0,1-1.43.69v-1.31a8.19,8.19,0,0,0,2-1.28,5.26,5.26,0,0,0,1.21-1.47H680Z"/><path class="cls-4" d="M682.76,708.12,686,696.73h1.09l-3.25,11.38Z"/><path class="cls-4" d="M694.8,706.68V708l-7.29,0a2.48,2.48,0,0,1,.16-.94,5,5,0,0,1,.9-1.46,14.38,14.38,0,0,1,1.78-1.66,14.73,14.73,0,0,0,2.44-2.33,2.73,2.73,0,0,0,.64-1.62,1.78,1.78,0,0,0-.57-1.36,2.05,2.05,0,0,0-1.49-.56,2.11,2.11,0,0,0-1.57.58,2.24,2.24,0,0,0-.6,1.62l-1.39-.15a3.44,3.44,0,0,1,1.08-2.37,3.66,3.66,0,0,1,2.51-.8,3.48,3.48,0,0,1,2.51.89,2.88,2.88,0,0,1,.91,2.19,3.17,3.17,0,0,1-.28,1.3,5.07,5.07,0,0,1-.9,1.34,21.74,21.74,0,0,1-2.1,1.93c-.81.68-1.33,1.14-1.57,1.38a4.14,4.14,0,0,0-.57.73Z"/><path class="cls-4" d="M696.73,700.88l-.37-2.1V697h1.54v1.8l-.35,2.1Zm2.48,0-.35-2.1V697h1.54v1.81l-.37,2.09Z"/><path class="cls-4" d="M703,711.27h-1a13.52,13.52,0,0,0,2.28-7.21,12.65,12.65,0,0,0-1-5,24.53,24.53,0,0,0-1.2-2.26h1a14.32,14.32,0,0,1,2.07,3.81,10.27,10.27,0,0,1-.23,7.35A13.87,13.87,0,0,1,703,711.27Z"/><polyline class="cls-9" points="779.41 667.2 731.1 703.31 711.2 703.91"/><polygon class="cls-4" points="774.92 665.77 789.28 660.03 779.72 672.18 774.92 665.77"/><line class="cls-9" x1="406.99" y1="323.39" x2="310.25" y2="395.71"/><polygon class="cls-4" points="402.51 321.96 416.87 316.22 407.3 328.37 402.51 321.96"/><path class="cls-4" d="M308.75,390.63l-6.6-8.83,3.92-2.93a6.46,6.46,0,0,1,2-1.11,2.49,2.49,0,0,1,1.61.11,3.07,3.07,0,0,1,1.36,1.06,2.77,2.77,0,0,1,.58,2,3.88,3.88,0,0,1-1.27,2.22,4.11,4.11,0,0,1,1-.09,7.65,7.65,0,0,1,1.85.45l3.34,1.26-1.47,1.1-2.55-1c-.73-.27-1.32-.47-1.75-.58a3.13,3.13,0,0,0-1-.15,2.24,2.24,0,0,0-.71.16,3.82,3.82,0,0,0-.68.45l-1.36,1,2.93,3.92Zm-2.52-5.81,2.52-1.88a4.74,4.74,0,0,0,1.13-1.1,1.75,1.75,0,0,0,.29-1,1.85,1.85,0,0,0-.36-1,1.62,1.62,0,0,0-1.23-.69,2.69,2.69,0,0,0-1.74.67l-2.79,2.09Z"/><path class="cls-4" d="M321.16,381.35l-1.08.81-5.17-6.91a7,7,0,0,1-.46,1.51,8.84,8.84,0,0,1-.73,1.42l-.78-1.05a8.29,8.29,0,0,0,.81-2.22,5.1,5.1,0,0,0,.09-1.91l.7-.52Z"/><path class="cls-4" d="M322.45,377.21l1-.88a2.34,2.34,0,0,0,1.3.69,1.77,1.77,0,0,0,1.21-.39,2,2,0,0,0,.7-.88,2.17,2.17,0,0,0,.16-1.07,4.35,4.35,0,0,0-.36-1.34,7,7,0,0,0-.83-1.45l-.17-.21a3.2,3.2,0,0,1-.26,1.51,3,3,0,0,1-1,1.23,3.07,3.07,0,0,1-2.45.59,3.59,3.59,0,0,1-2.32-1.53,3.71,3.71,0,0,1-.83-2.75,3.31,3.31,0,0,1,1.37-2.3,3.6,3.6,0,0,1,1.93-.72,3.75,3.75,0,0,1,2.07.51,8.3,8.3,0,0,1,2.23,2.21,10,10,0,0,1,1.64,3,3.94,3.94,0,0,1,.05,2.35,3.49,3.49,0,0,1-1.31,1.79,3.05,3.05,0,0,1-2.12.69A3.09,3.09,0,0,1,322.45,377.21ZM324,370a2.68,2.68,0,0,0-1.61-1.11,2,2,0,0,0-1.6.34,2.08,2.08,0,0,0-.82,1.54,2.75,2.75,0,0,0,.61,1.93,2.37,2.37,0,0,0,1.53,1,2.1,2.1,0,0,0,1.65-.42,2,2,0,0,0,.84-1.45A2.6,2.6,0,0,0,324,370Z"/><path class="cls-4" d="M331.16,373.88l-.93-1.24,1.24-.92.92,1.24Z"/><path class="cls-4" d="M330.6,367.51a10.24,10.24,0,0,1-1.56-2.76,3.89,3.89,0,0,1-.14-2.19,3,3,0,0,1,1.21-1.72,3.2,3.2,0,0,1,1.46-.64,3,3,0,0,1,1.5.16,5.87,5.87,0,0,1,1.53.9,11,11,0,0,1,1.76,1.94,10.47,10.47,0,0,1,1.56,2.75,3.89,3.89,0,0,1,.14,2.19,3.06,3.06,0,0,1-1.21,1.72,3,3,0,0,1-2.69.58A7.25,7.25,0,0,1,330.6,367.51Zm1.11-.84a7,7,0,0,0,2.68,2.52,1.89,1.89,0,0,0,1.79-.22,1.87,1.87,0,0,0,.72-1.66,10.7,10.7,0,0,0-4.33-5.79,1.86,1.86,0,0,0-1.8.23,1.72,1.72,0,0,0-.72,1.52A6.9,6.9,0,0,0,331.71,366.67Z"/><path class="cls-4" d="M338.86,364.51l1.07-.94a2.57,2.57,0,0,0,1.52.81,2,2,0,0,0,1.43-.41,2.18,2.18,0,0,0,.88-1.59,2.75,2.75,0,0,0-.63-2,2.5,2.5,0,0,0-1.61-1.07,2.26,2.26,0,0,0-1.77.48,2.34,2.34,0,0,0-.77.95,2.3,2.3,0,0,0-.2,1.11l-1.12.63-2.53-5.18,4.39-3.28.77,1-3.52,2.63,1.3,2.73a3.57,3.57,0,0,1,1.25-1.8,3.31,3.31,0,0,1,2.56-.66,3.52,3.52,0,0,1,2.33,1.47,4,4,0,0,1,.85,2.59,3.49,3.49,0,0,1-1.52,2.81,3.56,3.56,0,0,1-2.47.79A3.3,3.3,0,0,1,338.86,364.51Z"/><path class="cls-4" d="M355,360.14a13.38,13.38,0,0,1-3.5-1.51,10.29,10.29,0,0,1-3-2.68,10,10,0,0,1-1.59-3.1,14.33,14.33,0,0,1-.6-4.28l.78-.58c.14,1.2.26,2,.37,2.51a12.17,12.17,0,0,0,.72,2.16,12.58,12.58,0,0,0,1.44,2.46,13.54,13.54,0,0,0,6.12,4.44Z"/><path class="cls-4" d="M352.88,354l1-1a2.93,2.93,0,0,0,1.63.86,1.92,1.92,0,0,0,1.39-.41,2.2,2.2,0,0,0,.9-1.5,2.24,2.24,0,0,0-.45-1.71,2.13,2.13,0,0,0-1.41-.86,2.11,2.11,0,0,0-1.61.44,3.7,3.7,0,0,0-.67.69l-.59-1,.18-.12a2.76,2.76,0,0,0,1-1.29,1.56,1.56,0,0,0-.28-1.53,1.65,1.65,0,0,0-1.14-.69,1.79,1.79,0,0,0-1.34.39,1.84,1.84,0,0,0-.75,1.19,2.46,2.46,0,0,0,.34,1.59l-1.22.62a3.47,3.47,0,0,1-.36-2.36,3.24,3.24,0,0,1,1.3-1.91,3.68,3.68,0,0,1,1.57-.69,2.91,2.91,0,0,1,1.56.15,2.76,2.76,0,0,1,1.17.9,2.3,2.3,0,0,1,.47,1.27,2.57,2.57,0,0,1-.35,1.43,2.58,2.58,0,0,1,1.78-.16,2.86,2.86,0,0,1,1.5,1.1,3.28,3.28,0,0,1,.62,2.59,3.68,3.68,0,0,1-1.53,2.4,3.46,3.46,0,0,1-2.45.75A3.35,3.35,0,0,1,352.88,354Z"/><path class="cls-4" d="M361,351.84l-4.26-11,.87-.65,4.27,11Z"/><path class="cls-4" d="M368.14,346.24l-1.58-2.11L362.72,347l-.74-1-.24-8.74.88-.66,4.28,5.72,1.19-.89.74,1-1.19.9,1.58,2.11Zm-2.33-3.11-3-4,.21,6.05Z"/><path class="cls-4" d="M367.49,337.83l-1.56-1.45-1.08-1.45,1.24-.92,1.08,1.45,1,1.88Zm2-1.49-1.55-1.46-1.08-1.44,1.24-.92,1.08,1.44,1,1.9Z"/><path class="cls-4" d="M378.61,342.47l-.78.58a13.52,13.52,0,0,0-2.53-7.14,12.48,12.48,0,0,0-1.93-2.05,11.88,11.88,0,0,0-1.87-1.31,25.23,25.23,0,0,0-2.32-1.08l.77-.58a14.48,14.48,0,0,1,3.95,1.78,10.41,10.41,0,0,1,4.24,6A13.85,13.85,0,0,1,378.61,342.47Z"/><line class="cls-7" x1="387.29" y1="594.78" x2="303.18" y2="508.09"/><polygon class="cls-10" points="388.14 590.15 395.67 603.66 382.39 595.73 388.14 590.15"/><polygon class="cls-7" points="388.14 590.15 395.67 603.66 382.39 595.73 388.14 590.15"/><path class="cls-4" d="M308,505.92l7.92-7.68,3.4,3.51a6.73,6.73,0,0,1,1.35,1.81,2.53,2.53,0,0,1,.1,1.61,3.12,3.12,0,0,1-.88,1.49,2.74,2.74,0,0,1-1.95.83,3.82,3.82,0,0,1-2.36-1,4.54,4.54,0,0,1,.22,1,8.16,8.16,0,0,1-.21,1.89l-.82,3.47-1.28-1.32.63-2.64c.18-.77.3-1.37.36-1.81a3.36,3.36,0,0,0,0-1.05,2.12,2.12,0,0,0-.25-.68,4.78,4.78,0,0,0-.53-.62l-1.18-1.22L309,507Zm5.44-3.25,2.18,2.26a4.85,4.85,0,0,0,1.24,1,1.63,1.63,0,0,0,1.07.16,1.78,1.78,0,0,0,.92-.48,1.62,1.62,0,0,0,.52-1.3,2.63,2.63,0,0,0-.88-1.64L316,500.13Z"/><path class="cls-4" d="M318.73,517l-.94-1,6.19-6a7.3,7.3,0,0,1-1.56-.27,8.28,8.28,0,0,1-1.5-.54l.94-.91a7.84,7.84,0,0,0,2.31.52,5,5,0,0,0,1.9-.16l.6.63Z"/><path class="cls-4" d="M323.11,517.88l1,.86a2.19,2.19,0,0,0-.52,1.38,1.74,1.74,0,0,0,.54,1.14,2,2,0,0,0,1,.59,2.36,2.36,0,0,0,1.09,0,4.61,4.61,0,0,0,1.27-.54,6.53,6.53,0,0,0,1.33-1,2,2,0,0,0,.19-.2,3,3,0,0,1-1.52-.06,3,3,0,0,1-1.35-.82,3,3,0,0,1-.9-2.35,3.6,3.6,0,0,1,1.22-2.5,3.69,3.69,0,0,1,2.62-1.17,3.28,3.28,0,0,1,2.46,1.07,3.55,3.55,0,0,1,1,1.81,3.65,3.65,0,0,1-.25,2.12,8,8,0,0,1-1.9,2.49,9.94,9.94,0,0,1-2.74,2,3.94,3.94,0,0,1-2.32.34,3.51,3.51,0,0,1-1.94-1.06,2.92,2.92,0,0,1-.2-4.14Zm7.36.6a2.7,2.7,0,0,0,.89-1.74,1.94,1.94,0,0,0-.55-1.55,2.07,2.07,0,0,0-1.62-.61,2.71,2.71,0,0,0-1.84.85,2.38,2.38,0,0,0-.78,1.65,2.06,2.06,0,0,0,.62,1.58,2,2,0,0,0,1.54.65A2.58,2.58,0,0,0,330.47,518.48Z"/><path class="cls-4" d="M327.63,526.21l1.11-1.08,1.08,1.11-1.11,1.07Z"/><path class="cls-4" d="M334,525a9.85,9.85,0,0,1,2.54-1.9,3.9,3.9,0,0,1,2.15-.43,3,3,0,0,1,1.85,1,3.18,3.18,0,0,1,.83,1.36,3,3,0,0,1,0,1.52,5.49,5.49,0,0,1-.7,1.63,11,11,0,0,1-1.7,2,10,10,0,0,1-2.52,1.89,3.83,3.83,0,0,1-2.15.43,3.09,3.09,0,0,1-1.87-1,3.05,3.05,0,0,1-.92-2.6A7.22,7.22,0,0,1,334,525Zm1,1a6.86,6.86,0,0,0-2.15,3,1.81,1.81,0,0,0,2.18,2.25,7,7,0,0,0,3-2.06,6.86,6.86,0,0,0,2.15-3,1.89,1.89,0,0,0-.46-1.76,1.72,1.72,0,0,0-1.6-.52A7,7,0,0,0,335,526Z"/><path class="cls-4" d="M338.12,532.87l1.08.94a2.54,2.54,0,0,0-.61,1.61,2,2,0,0,0,.59,1.36,2.17,2.17,0,0,0,1.68.68,2.79,2.79,0,0,0,1.88-.88,2.49,2.49,0,0,0,.85-1.74,2.27,2.27,0,0,0-.7-1.69,2.38,2.38,0,0,0-1-.64,2.41,2.41,0,0,0-1.13-.06l-.76-1,4.81-3.18,3.81,3.94-.93.9-3.06-3.16-2.54,1.63a3.68,3.68,0,0,1,1.95,1,3.32,3.32,0,0,1,1,2.44,3.53,3.53,0,0,1-1.16,2.51,4,4,0,0,1-2.46,1.17,3.49,3.49,0,0,1-3-1.14,3.53,3.53,0,0,1-1.1-2.35A3.29,3.29,0,0,1,338.12,532.87Z"/><path class="cls-4" d="M344.73,548.49a13.87,13.87,0,0,1,1-3.67,10.45,10.45,0,0,1,2.28-3.29,10.13,10.13,0,0,1,2.87-2,14.32,14.32,0,0,1,4.17-1.14l.68.7c-1.17.29-2,.52-2.44.69a11.81,11.81,0,0,0-2.06,1,12.75,12.75,0,0,0-2.25,1.74,13.55,13.55,0,0,0-3.63,6.64Z"/><path class="cls-4" d="M350.66,545.76l1.07.85a3,3,0,0,0-.64,1.72,2,2,0,0,0,.59,1.34,2.16,2.16,0,0,0,1.6.69,2.2,2.2,0,0,0,1.63-.67,2.06,2.06,0,0,0,.68-1.5,2.12,2.12,0,0,0-.64-1.54,4.37,4.37,0,0,0-.78-.58l1-.72.14.17a2.79,2.79,0,0,0,1.41.8,1.54,1.54,0,0,0,1.48-.47,1.66,1.66,0,0,0,.54-1.22,2,2,0,0,0-1.83-1.87,2.49,2.49,0,0,0-1.54.55l-.77-1.14a3.5,3.5,0,0,1,2.3-.66,3.24,3.24,0,0,1,2.06,1,3.63,3.63,0,0,1,.88,1.46,2.91,2.91,0,0,1,.05,1.57,2.79,2.79,0,0,1-.74,1.28,2.33,2.33,0,0,1-1.2.63,2.68,2.68,0,0,1-1.46-.16,2.57,2.57,0,0,1,.38,1.74,2.83,2.83,0,0,1-.9,1.62,3.21,3.21,0,0,1-2.49.95,3.66,3.66,0,0,1-2.57-1.21,3.46,3.46,0,0,1-1.06-2.33A3.35,3.35,0,0,1,350.66,545.76Z"/><path class="cls-4" d="M354,553.6,364.36,548l.75.78-10.4,5.65Z"/><path class="cls-4" d="M360.53,560.12l1.89-1.84-3.33-3.43L360,554l8.63-1.36.77.79-5.12,5,1,1.07-.89.86-1-1.07-1.9,1.84Zm2.78-2.7,3.57-3.46-6,1Z"/><path class="cls-4" d="M368.89,558.51l1.24-1.73,1.3-1.25,1.07,1.1-1.29,1.26-1.74,1.22Zm1.73,1.79,1.25-1.73,1.3-1.25,1.07,1.1L373,559.68l-1.76,1.2Z"/><path class="cls-4" d="M365.83,570.24l-.67-.7a13.55,13.55,0,0,0,6.75-3.41,13.06,13.06,0,0,0,1.79-2.19,11.4,11.4,0,0,0,1.05-2,24.33,24.33,0,0,0,.78-2.44l.68.7a14.45,14.45,0,0,1-1.27,4.14,10.34,10.34,0,0,1-2.06,2.8,10.12,10.12,0,0,1-3.36,2.17A13.58,13.58,0,0,1,365.83,570.24Z"/><path class="cls-4" d="M318.72,121.22l8.58-6.93,3.07,3.81a6.5,6.5,0,0,1,1.18,1.93,2.41,2.41,0,0,1-.05,1.61,3.16,3.16,0,0,1-1,1.4,2.77,2.77,0,0,1-2,.65,3.83,3.83,0,0,1-2.27-1.18,3.94,3.94,0,0,1,.13,1,8,8,0,0,1-.38,1.86l-1.13,3.38-1.16-1.43.87-2.57c.25-.75.42-1.34.52-1.78a3.24,3.24,0,0,0,.11-1,2.26,2.26,0,0,0-.19-.7,3.68,3.68,0,0,0-.47-.66l-1.06-1.32-3.81,3.08Zm5.71-2.73,2,2.44a4.62,4.62,0,0,0,1.15,1.08,1.61,1.61,0,0,0,1.05.25,1.71,1.71,0,0,0,.95-.39,1.65,1.65,0,0,0,.65-1.25,2.67,2.67,0,0,0-.74-1.71l-2.19-2.71Z"/><path class="cls-4" d="M336.24,129.66l-.93-1a2.53,2.53,0,0,0,.58-1.13,1.77,1.77,0,0,0-.4-1.41,1.82,1.82,0,0,0-1-.66,3.07,3.07,0,0,0-1.69.07,7.39,7.39,0,0,0-2.23,1.3,3.17,3.17,0,0,1,1.61.24,3.1,3.1,0,0,1,1.21.93,3,3,0,0,1,.68,2.42,3.57,3.57,0,0,1-1.41,2.35,4.18,4.18,0,0,1-1.78.87,3.27,3.27,0,0,1-1.84-.1,3.44,3.44,0,0,1-1.48-1.08,3.5,3.5,0,0,1-.77-2.93,6.24,6.24,0,0,1,2.53-3.41,7.29,7.29,0,0,1,4.35-2,3.39,3.39,0,0,1,2.73,1.36,3.1,3.1,0,0,1,.77,2.12A3.06,3.06,0,0,1,336.24,129.66Zm-7.17-1.31a3.2,3.2,0,0,0-.86,1.07,2.27,2.27,0,0,0-.23,1.26,2.16,2.16,0,0,0,.44,1.08,1.93,1.93,0,0,0,1.47.71,2.73,2.73,0,0,0,1.85-.7,2.6,2.6,0,0,0,1-1.61,2,2,0,0,0-.46-1.6,2.08,2.08,0,0,0-1.49-.8A2.33,2.33,0,0,0,329.07,128.35Z"/><path class="cls-4" d="M331.21,136.68l1.2-1,1,1.2-1.2,1Z"/><path class="cls-4" d="M335.69,137.6l1,.94a3,3,0,0,0-.79,1.65,2,2,0,0,0,.46,1.39,2.18,2.18,0,0,0,1.53.83,2.21,2.21,0,0,0,1.69-.51,2.09,2.09,0,0,0,.81-1.44,2.13,2.13,0,0,0-.5-1.59,4,4,0,0,0-.72-.65l1-.63a1.06,1.06,0,0,0,.13.18,2.77,2.77,0,0,0,1.32.93,1.54,1.54,0,0,0,1.52-.34,1.61,1.61,0,0,0,.64-1.16,1.76,1.76,0,0,0-.43-1.32,1.83,1.83,0,0,0-1.22-.71,2.5,2.5,0,0,0-1.58.4l-.66-1.2a3.5,3.5,0,0,1,2.35-.45,3.33,3.33,0,0,1,2,1.24,3.63,3.63,0,0,1,.74,1.53,3,3,0,0,1-.09,1.57,2.69,2.69,0,0,1-.86,1.2,2.28,2.28,0,0,1-1.25.52,2.61,2.61,0,0,1-1.44-.29,2.58,2.58,0,0,1,.23,1.77,2.82,2.82,0,0,1-1.05,1.53,3.21,3.21,0,0,1-2.56.72,3.67,3.67,0,0,1-2.46-1.44,3.47,3.47,0,0,1-.84-2.41A3.34,3.34,0,0,1,335.69,137.6Z"/><path class="cls-4" d="M341.05,144.27l1,1a2.53,2.53,0,0,0-.75,1.55,2,2,0,0,0,.47,1.4,2.14,2.14,0,0,0,1.61.83,2.78,2.78,0,0,0,1.94-.7,2.52,2.52,0,0,0,1-1.66,2.28,2.28,0,0,0-.55-1.74,2.33,2.33,0,0,0-1-.73,2.21,2.21,0,0,0-1.12-.16L343,143l5.07-2.72,3.45,4.26-1,.81-2.76-3.42-2.68,1.4a3.64,3.64,0,0,1,1.85,1.19,3.33,3.33,0,0,1,.75,2.52,3.49,3.49,0,0,1-1.38,2.39,4,4,0,0,1-2.56,1,3.48,3.48,0,0,1-2.86-1.42,3.61,3.61,0,0,1-.89-2.44A3.27,3.27,0,0,1,341.05,144.27Z"/><path class="cls-4" d="M346.21,160.41a13.76,13.76,0,0,1,1.38-3.55,10.43,10.43,0,0,1,2.57-3.07,10.11,10.11,0,0,1,3-1.7,14.36,14.36,0,0,1,4.27-.76l.6.76a24.23,24.23,0,0,0-2.49.47,12.26,12.26,0,0,0-2.14.79,13,13,0,0,0-2.4,1.53,13.56,13.56,0,0,0-4.21,6.29Z"/><path class="cls-4" d="M353.3,164l-.85-1.05,6.71-5.42a7.57,7.57,0,0,1-1.54-.41,9.23,9.23,0,0,1-1.43-.67l1-.83a8.42,8.42,0,0,0,2.26.74,5.26,5.26,0,0,0,1.9,0l.55.68Z"/><path class="cls-4" d="M354.92,166.35l10.88-4.68.68.85-10.87,4.68Z"/><path class="cls-4" d="M360.89,173.43l2.05-1.66-3-3.72,1-.78,8.72-.57.69.86-5.55,4.49.93,1.16-1,.78-.94-1.16-2.05,1.66Zm3-2.43,3.86-3.13-6,.44Z"/><path class="cls-4" d="M369.36,172.59l1.4-1.61,1.4-1.13,1,1.2-1.4,1.13-1.85,1.06Zm1.57,1.94,1.4-1.61,1.4-1.13,1,1.2-1.41,1.13-1.85,1Z"/><path class="cls-4" d="M365.25,184l-.61-.75a13.62,13.62,0,0,0,7-2.79,11.48,11.48,0,0,0,2-2,11.77,11.77,0,0,0,1.24-1.91,24.17,24.17,0,0,0,1-2.36l.61.75a14.27,14.27,0,0,1-1.63,4,10.38,10.38,0,0,1-5.85,4.47A13.55,13.55,0,0,1,365.25,184Z"/><line class="cls-9" x1="304.81" y1="112.97" x2="366.76" y2="189.64"/><polygon class="cls-4" points="303.55 117.5 297.27 103.37 309.77 112.47 303.55 117.5"/><path class="cls-4" d="M610.23,205.62l4.33-10.14,4.5,1.92a6.42,6.42,0,0,1,1.94,1.16,2.41,2.41,0,0,1,.71,1.44,3.07,3.07,0,0,1-.23,1.71,2.74,2.74,0,0,1-1.47,1.52,3.82,3.82,0,0,1-2.56,0,3.55,3.55,0,0,1,.59.85,7.5,7.5,0,0,1,.54,1.82l.58,3.52-1.68-.72L617,206c-.14-.77-.26-1.38-.38-1.81a3.13,3.13,0,0,0-.39-1,2.27,2.27,0,0,0-.49-.53,4.28,4.28,0,0,0-.73-.37l-1.56-.66-1.92,4.5Zm3.76-5.09,2.88,1.23a5.1,5.1,0,0,0,1.52.43,1.63,1.63,0,0,0,1.05-.28,1.75,1.75,0,0,0,.66-.79,1.66,1.66,0,0,0,0-1.41,2.65,2.65,0,0,0-1.45-1.16l-3.21-1.38Z"/><path class="cls-4" d="M629.67,204.87l-1.27-.43a2.59,2.59,0,0,0,0-1.26,1.9,1.9,0,0,0-2.2-1.18,3.14,3.14,0,0,0-1.47.85,7.42,7.42,0,0,0-1.35,2.2,3.2,3.2,0,0,1,1.53-.55,3.23,3.23,0,0,1,1.51.25,3.05,3.05,0,0,1,1.73,1.82,3.6,3.6,0,0,1-.14,2.74,4.18,4.18,0,0,1-1.17,1.6,3.2,3.2,0,0,1-1.67.77,3.33,3.33,0,0,1-1.82-.26,3.43,3.43,0,0,1-2-2.23,6.26,6.26,0,0,1,.63-4.19,7.28,7.28,0,0,1,2.91-3.81,3.4,3.4,0,0,1,3-.07,3.12,3.12,0,0,1,1.67,1.51A3.05,3.05,0,0,1,629.67,204.87Zm-6.95,2.2a3.27,3.27,0,0,0-.25,1.35,2.23,2.23,0,0,0,.38,1.22,2,2,0,0,0,.9.75,1.91,1.91,0,0,0,1.63-.06,2.68,2.68,0,0,0,1.3-1.48,2.56,2.56,0,0,0,.15-1.9,2,2,0,0,0-1.15-1.21,2.07,2.07,0,0,0-1.69,0A2.38,2.38,0,0,0,622.72,207.07Z"/><path class="cls-4" d="M628.52,213.43l.6-1.41,1.42.6-.61,1.42Z"/><path class="cls-4" d="M632.91,212.14l1.31.37a3,3,0,0,0,.08,1.84,2,2,0,0,0,1.06,1,2.15,2.15,0,0,0,1.74,0,2.23,2.23,0,0,0,1.25-1.25,2.08,2.08,0,0,0-1.14-2.81,4.1,4.1,0,0,0-.94-.24l.6-1,.2.09a2.72,2.72,0,0,0,1.61.2,1.54,1.54,0,0,0,1.18-1,1.66,1.66,0,0,0,0-1.33,1.78,1.78,0,0,0-1-1,1.87,1.87,0,0,0-1.41-.06,2.55,2.55,0,0,0-1.21,1.1l-1.15-.75a3.49,3.49,0,0,1,1.87-1.5,3.28,3.28,0,0,1,2.31.18,3.48,3.48,0,0,1,1.37,1,2.74,2.74,0,0,1,.47,2.89,2.28,2.28,0,0,1-.87,1,2.66,2.66,0,0,1-1.41.42,2.53,2.53,0,0,1,1,1.45,2.82,2.82,0,0,1-.2,1.85,3.25,3.25,0,0,1-1.93,1.84,3.7,3.7,0,0,1-2.84-.12,3.45,3.45,0,0,1-1.88-1.75A3.34,3.34,0,0,1,632.91,212.14Z"/><path class="cls-4" d="M640.76,215.53l1.36.44a2.51,2.51,0,0,0,.06,1.73,2,2,0,0,0,1.07,1,2.16,2.16,0,0,0,1.81,0,2.8,2.8,0,0,0,1.39-1.54,2.53,2.53,0,0,0,.12-1.93,2.29,2.29,0,0,0-1.3-1.29,2.43,2.43,0,0,0-1.21-.19,2.25,2.25,0,0,0-1.06.38l-1.1-.65,3.2-4.78,5,2.15-.51,1.19-4-1.73-1.71,2.49a3.67,3.67,0,0,1,2.19.18,3.35,3.35,0,0,1,1.85,1.88,3.54,3.54,0,0,1-.1,2.76,4,4,0,0,1-1.82,2,3.48,3.48,0,0,1-3.19.1,3.65,3.65,0,0,1-1.93-1.74A3.31,3.31,0,0,1,640.76,215.53Z"/><path class="cls-4" d="M652.89,227.37a13.43,13.43,0,0,1-.44-3.78,10.32,10.32,0,0,1,.83-3.92,10,10,0,0,1,1.88-2.92,14.44,14.44,0,0,1,3.41-2.67l.89.38c-1,.72-1.63,1.25-2,1.58a13.07,13.07,0,0,0-1.52,1.71,13.21,13.21,0,0,0-1.41,2.48,13.63,13.63,0,0,0-.77,7.52Z"/><path class="cls-4" d="M660.85,227.25l-1.25-.53,3.39-7.93a7.66,7.66,0,0,1-1.54.35,9.16,9.16,0,0,1-1.59.08l.51-1.2a8.3,8.3,0,0,0,2.34-.41,5.06,5.06,0,0,0,1.68-.88l.81.34Z"/><path class="cls-4" d="M663.37,228.53l7.42-9.22,1,.42L664.37,229Z"/><path class="cls-4" d="M672,232l1-2.43-4.4-1.88.48-1.14,7.44-4.59,1,.43L674.73,229l1.37.59-.49,1.14-1.37-.59-1,2.43Zm1.52-3.57,2-4.57-5.13,3.21Z"/><path class="cls-4" d="M679.05,227.28l.48-2.07.71-1.66,1.42.6-.71,1.66-1.14,1.8Zm2.29,1,.48-2.07.71-1.66,1.42.6-.71,1.66-1.16,1.79Z"/><path class="cls-4" d="M680.76,239.29l-.89-.39a13.48,13.48,0,0,0,4.9-5.76,12.55,12.55,0,0,0,.81-2.7,11.7,11.7,0,0,0,.19-2.28,23.82,23.82,0,0,0-.22-2.55l.89.38a14.31,14.31,0,0,1,.43,4.31,10.07,10.07,0,0,1-.81,3.38A10.42,10.42,0,0,1,683.8,237,14.16,14.16,0,0,1,680.76,239.29Z"/><line class="cls-9" x1="695.22" y1="248.47" x2="604.92" y2="208.95"/><polygon class="cls-4" points="694.26 243.87 706.34 253.52 691.05 251.2 694.26 243.87"/><line class="cls-9" x1="285" y1="16.5" x2="701.56" y2="16.5"/><polygon class="cls-4" points="287.71 20.3 272.89 16.34 287.71 12.36 287.71 20.3"/><polygon class="cls-4" points="701.55 20.3 716.37 16.34 701.55 12.36 701.55 20.3"/><line class="cls-9" x1="301.22" y1="62.93" x2="690.61" y2="62.93"/><polygon class="cls-4" points="303.93 66.73 289.12 62.77 303.93 58.79 303.93 66.73"/><polygon class="cls-4" points="687.82 66.73 702.64 62.77 687.82 58.79 687.82 66.73"/><g class="cls-5"><path class="cls-4" d="M463.39,11.21H462V2.59a7.19,7.19,0,0,1-1.29.93,9.68,9.68,0,0,1-1.42.7V2.91a8.15,8.15,0,0,0,2-1.29A5.15,5.15,0,0,0,462.52.14h.87Z"/><path class="cls-4" d="M466.86,5.78a10,10,0,0,1,.4-3.15A3.88,3.88,0,0,1,468.45.79a3.08,3.08,0,0,1,2-.65A3.27,3.27,0,0,1,472,.5a3,3,0,0,1,1.1,1,5.74,5.74,0,0,1,.69,1.64A11.28,11.28,0,0,1,474,5.78a10.35,10.35,0,0,1-.39,3.13,4,4,0,0,1-1.2,1.84,3.35,3.35,0,0,1-4.5-.49A7.24,7.24,0,0,1,466.86,5.78Zm1.39,0a7,7,0,0,0,.63,3.61,1.82,1.82,0,0,0,3.14,0,7,7,0,0,0,.63-3.61A7,7,0,0,0,472,2.16a1.89,1.89,0,0,0-1.59-.9,1.74,1.74,0,0,0-1.48.79A7,7,0,0,0,468.25,5.78Z"/><path class="cls-4" d="M475.62,8.66l1.3-.12a2.34,2.34,0,0,0,.64,1.34,1.76,1.76,0,0,0,1.19.41,2.1,2.1,0,0,0,1.1-.29,2.33,2.33,0,0,0,.77-.76,4.39,4.39,0,0,0,.5-1.29,6.54,6.54,0,0,0,.2-1.65V6a3,3,0,0,1-1.11,1.05,3.13,3.13,0,0,1-3.84-.59,3.63,3.63,0,0,1-.95-2.61,3.71,3.71,0,0,1,1-2.7,3.27,3.27,0,0,1,2.48-1,3.57,3.57,0,0,1,2,.58,3.65,3.65,0,0,1,1.36,1.65,8.15,8.15,0,0,1,.46,3.11,9.91,9.91,0,0,1-.46,3.36,3.93,3.93,0,0,1-1.36,1.91,3.61,3.61,0,0,1-2.13.65,3.09,3.09,0,0,1-2.11-.72A3.05,3.05,0,0,1,475.62,8.66Zm5.55-4.86A2.67,2.67,0,0,0,480.55,2a2,2,0,0,0-1.5-.69,2.07,2.07,0,0,0-1.57.74,2.76,2.76,0,0,0-.67,1.91,2.34,2.34,0,0,0,.64,1.71,2.08,2.08,0,0,0,1.57.66,2,2,0,0,0,1.54-.66A2.6,2.6,0,0,0,481.17,3.8Z"/><path class="cls-4" d="M484.75,11.21V9.67h1.54v1.54Z"/><path class="cls-4" d="M495.38,9.91v1.3h-7.29a2.33,2.33,0,0,1,.16-.94,5.07,5.07,0,0,1,.89-1.46,14.15,14.15,0,0,1,1.77-1.67,14.53,14.53,0,0,0,2.43-2.34A2.78,2.78,0,0,0,494,3.17a1.81,1.81,0,0,0-.57-1.35,2.09,2.09,0,0,0-1.5-.56,2.14,2.14,0,0,0-1.57.59,2.2,2.2,0,0,0-.59,1.63l-1.39-.15A3.39,3.39,0,0,1,489.42,1a3.7,3.7,0,0,1,2.51-.82,3.52,3.52,0,0,1,2.51.88,2.89,2.89,0,0,1,.92,2.18,3.34,3.34,0,0,1-.27,1.31,5.26,5.26,0,0,1-.89,1.34,22.41,22.41,0,0,1-2.09,1.94c-.81.68-1.34,1.15-1.57,1.39a4.54,4.54,0,0,0-.57.73Z"/><path class="cls-4" d="M504,9.91v1.3h-7.29a2.33,2.33,0,0,1,.16-.94,4.86,4.86,0,0,1,.89-1.46,14.15,14.15,0,0,1,1.77-1.67,14.53,14.53,0,0,0,2.43-2.34,2.78,2.78,0,0,0,.63-1.63A1.79,1.79,0,0,0,502,1.82a2.06,2.06,0,0,0-1.5-.56,2.11,2.11,0,0,0-1.56.59,2.25,2.25,0,0,0-.6,1.63l-1.39-.15A3.44,3.44,0,0,1,498,1a3.69,3.69,0,0,1,2.5-.82A3.5,3.5,0,0,1,503,1a2.9,2.9,0,0,1,.93,2.18,3.34,3.34,0,0,1-.27,1.31,5.07,5.07,0,0,1-.9,1.34,21.17,21.17,0,0,1-2.09,1.94c-.81.68-1.33,1.15-1.56,1.39a4.54,4.54,0,0,0-.57.73Z"/><path class="cls-4" d="M512.64,14.46a13.78,13.78,0,0,1-1.9-3.31A10.46,10.46,0,0,1,510,7.22a10.13,10.13,0,0,1,.58-3.43A14.45,14.45,0,0,1,512.64,0h1a23.85,23.85,0,0,0-1.2,2.23,12.58,12.58,0,0,0-.73,2.17,12.93,12.93,0,0,0-.32,2.83,13.59,13.59,0,0,0,2.25,7.23Z"/><path class="cls-4" d="M519.14,11.21V8.57h-4.78V7.33l5-7.14h1.11V7.33H522V8.57H520.5v2.64Zm0-3.88v-5l-3.45,5Z"/><path class="cls-4" d="M524.13,11.21V9.67h1.54v1.54Z"/><path class="cls-4" d="M527.66,8.3,529,8.12a3,3,0,0,0,.79,1.66,2,2,0,0,0,1.37.51,2.2,2.2,0,0,0,1.61-.66A2.23,2.23,0,0,0,533.44,8a2.06,2.06,0,0,0-.61-1.54,2.13,2.13,0,0,0-1.55-.61,3.89,3.89,0,0,0-.95.15l.15-1.18h.21a2.79,2.79,0,0,0,1.56-.45A1.54,1.54,0,0,0,532.94,3a1.61,1.61,0,0,0-.5-1.23,1.78,1.78,0,0,0-1.3-.49,1.84,1.84,0,0,0-1.32.49,2.5,2.5,0,0,0-.67,1.49L527.79,3A3.48,3.48,0,0,1,528.92.89a3.27,3.27,0,0,1,2.19-.75,3.59,3.59,0,0,1,1.66.39,2.78,2.78,0,0,1,1.16,1.06,2.68,2.68,0,0,1,.4,1.42,2.28,2.28,0,0,1-.38,1.3,2.58,2.58,0,0,1-1.13.93,2.56,2.56,0,0,1,1.51.94A2.8,2.8,0,0,1,534.88,8a3.24,3.24,0,0,1-1.06,2.45,3.74,3.74,0,0,1-2.66,1,3.45,3.45,0,0,1-2.41-.87A3.31,3.31,0,0,1,527.66,8.3Z"/><path class="cls-4" d="M536.66,4.09,536.28,2V.19h1.54V2l-.33,2.1Zm2.49,0L538.78,2V.19h1.54V2L540,4.09Z"/><path class="cls-4" d="M543,14.46h-1a13.66,13.66,0,0,0,2.24-7.23,12.18,12.18,0,0,0-.32-2.81,12.14,12.14,0,0,0-.71-2.16c-.2-.45-.6-1.21-1.21-2.26h1A14.74,14.74,0,0,1,545,3.79a10.36,10.36,0,0,1-.2,7.36A14.1,14.1,0,0,1,543,14.46Z"/></g><path class="cls-4" d="M473.53,58.09h-1.36V49.46a7.2,7.2,0,0,1-1.28.94,9.28,9.28,0,0,1-1.43.7V49.79a8.24,8.24,0,0,0,2-1.3,4.8,4.8,0,0,0,1.2-1.47h.88Z"/><path class="cls-4" d="M477,52.65a10.41,10.41,0,0,1,.4-3.15,3.91,3.91,0,0,1,1.2-1.83,3,3,0,0,1,2-.65,3.2,3.2,0,0,1,1.55.36,2.88,2.88,0,0,1,1.11,1,5.36,5.36,0,0,1,.68,1.64,10.59,10.59,0,0,1,.25,2.6,9.92,9.92,0,0,1-.4,3.13,3.89,3.89,0,0,1-1.19,1.85,3.08,3.08,0,0,1-2,.65,3,3,0,0,1-2.51-1.15A7.29,7.29,0,0,1,477,52.65Zm1.39,0a6.87,6.87,0,0,0,.64,3.62,1.82,1.82,0,0,0,3.13,0,6.82,6.82,0,0,0,.64-3.61,6.87,6.87,0,0,0-.64-3.62,1.89,1.89,0,0,0-1.58-.89,1.73,1.73,0,0,0-1.49.79A7,7,0,0,0,478.38,52.65Z"/><path class="cls-4" d="M490.66,58.09H489.3V49.46a7.2,7.2,0,0,1-1.28.94,9.28,9.28,0,0,1-1.43.7V49.79a8.24,8.24,0,0,0,2-1.3,4.8,4.8,0,0,0,1.2-1.47h.88Z"/><path class="cls-4" d="M494.88,58.09V56.55h1.54v1.54Z"/><path class="cls-4" d="M505.43,49.76l-1.35.11a2.56,2.56,0,0,0-.51-1.16,1.83,1.83,0,0,0-1.36-.58,1.86,1.86,0,0,0-1.13.36,3.12,3.12,0,0,0-1,1.36,7.28,7.28,0,0,0-.38,2.55,3.12,3.12,0,0,1,1.19-1.1,3.24,3.24,0,0,1,1.49-.36,3.07,3.07,0,0,1,2.3,1,3.62,3.62,0,0,1,.95,2.58,4.25,4.25,0,0,1-.45,1.93,3.13,3.13,0,0,1-1.23,1.36,3.31,3.31,0,0,1-1.77.48A3.47,3.47,0,0,1,499.41,57a6.3,6.3,0,0,1-1.07-4.1,7.41,7.41,0,0,1,1.18-4.65A3.4,3.4,0,0,1,502.3,47a3,3,0,0,1,3.13,2.74Zm-5.53,4.76a3.15,3.15,0,0,0,.3,1.34,2.14,2.14,0,0,0,.83,1,2.09,2.09,0,0,0,1.12.33,1.9,1.9,0,0,0,1.47-.69,2.73,2.73,0,0,0,.62-1.88,2.58,2.58,0,0,0-.61-1.8,2,2,0,0,0-1.54-.66,2.06,2.06,0,0,0-1.55.66A2.36,2.36,0,0,0,499.9,54.52Z"/><path class="cls-4" d="M507,52.65a10.1,10.1,0,0,1,.4-3.15,3.91,3.91,0,0,1,1.2-1.83,3,3,0,0,1,2-.65,3.27,3.27,0,0,1,1.56.36,2.93,2.93,0,0,1,1.1,1,5.62,5.62,0,0,1,.69,1.64,11.11,11.11,0,0,1,.25,2.6,10.22,10.22,0,0,1-.4,3.13,4,4,0,0,1-1.19,1.85,3.09,3.09,0,0,1-2,.65,3,3,0,0,1-2.5-1.15A7.22,7.22,0,0,1,507,52.65Zm1.39,0a7,7,0,0,0,.63,3.62,1.9,1.9,0,0,0,1.57.89,1.87,1.87,0,0,0,1.57-.9,6.93,6.93,0,0,0,.64-3.61,7,7,0,0,0-.64-3.62,1.89,1.89,0,0,0-1.58-.89,1.72,1.72,0,0,0-1.49.79A6.94,6.94,0,0,0,508.36,52.65Z"/><path class="cls-4" d="M522.78,61.33a13.59,13.59,0,0,1-1.9-3.31,10.18,10.18,0,0,1-.77-3.92,10.33,10.33,0,0,1,.57-3.43,14.34,14.34,0,0,1,2.1-3.79h1c-.61,1-1,1.78-1.21,2.23a12.84,12.84,0,0,0-.72,2.17,12.26,12.26,0,0,0-.32,2.82,13.59,13.59,0,0,0,2.25,7.23Z"/><path class="cls-4" d="M529.28,58.09V55.45H524.5V54.21l5-7.15h1.1v7.15h1.49v1.24h-1.49v2.64Zm0-3.88v-5l-3.45,5Z"/><path class="cls-4" d="M534,51l-.38-2.1V47.06h1.55v1.81l-.34,2.1Zm2.49,0-.37-2.1V47.06h1.54v1.81l-.36,2.1Z"/><path class="cls-4" d="M540.24,61.33h-1a13.59,13.59,0,0,0,2.25-7.23,12.1,12.1,0,0,0-.33-2.8,12.25,12.25,0,0,0-.71-2.17c-.2-.45-.6-1.2-1.21-2.25h1a14.29,14.29,0,0,1,2.09,3.79,10.34,10.34,0,0,1,.58,3.43,10.19,10.19,0,0,1-.78,3.92A13.9,13.9,0,0,1,540.24,61.33Z"/><path class="cls-4" d="M241.79,281.56l-.14,1.35-8.58-.91a6.79,6.79,0,0,1,.8,1.37,9.54,9.54,0,0,1,.54,1.49l-1.3-.14a8.22,8.22,0,0,0-1.08-2.11,5.19,5.19,0,0,0-1.34-1.35l.09-.87Z"/><path class="cls-4" d="M241.61,270.9l1.3.14-.77,7.24a2.42,2.42,0,0,1-.92-.25,5.14,5.14,0,0,1-1.36-1,14.34,14.34,0,0,1-1.48-1.94,15.13,15.13,0,0,0-2.06-2.66,2.79,2.79,0,0,0-1.56-.8,1.81,1.81,0,0,0-1.41.43,2.07,2.07,0,0,0-.7,1.43,2.1,2.1,0,0,0,.42,1.62,2.2,2.2,0,0,0,1.55.76l-.29,1.37a3.42,3.42,0,0,1-2.25-1.32,3.64,3.64,0,0,1-.54-2.58,3.5,3.5,0,0,1,1.13-2.4,2.91,2.91,0,0,1,2.27-.69,3.3,3.3,0,0,1,1.27.4,5.11,5.11,0,0,1,1.24,1,22.71,22.71,0,0,1,1.71,2.28,20.4,20.4,0,0,0,1.22,1.7,4.47,4.47,0,0,0,.66.65Z"/><path class="cls-4" d="M234,268.31a2,2,0,0,1-1.4-.76,2.09,2.09,0,0,1,3.25-2.63,2,2,0,0,1,.45,1.54,2.08,2.08,0,0,1-2.3,1.85Zm.09-.81a1.28,1.28,0,0,0,.94-.28,1.25,1.25,0,0,0,.46-.85,1.21,1.21,0,0,0-.28-.93,1.27,1.27,0,0,0-2.25.66,1.21,1.21,0,0,0,.28.93A1.24,1.24,0,0,0,234.1,267.5Z"/><path class="cls-4" d="M250.06,621.18l.1,1.35-8.6.64a7.77,7.77,0,0,1,1,1.21,8.67,8.67,0,0,1,.8,1.37l-1.3.1a7.87,7.87,0,0,0-1.44-1.88,5,5,0,0,0-1.56-1.09L239,622Z"/><path class="cls-4" d="M248,610.89l1.3-.1.54,7.27a2.52,2.52,0,0,1-1-.09,5,5,0,0,1-1.53-.78,14.22,14.22,0,0,1-1.8-1.64,14.19,14.19,0,0,0-2.5-2.25,2.79,2.79,0,0,0-1.67-.51,1.82,1.82,0,0,0-1.32.67,2.1,2.1,0,0,0-.44,1.54,2.18,2.18,0,0,0,.7,1.52A2.27,2.27,0,0,0,242,617l0,1.4a3.45,3.45,0,0,1-2.45-.9,3.72,3.72,0,0,1-1-2.44,3.54,3.54,0,0,1,.7-2.57,2.86,2.86,0,0,1,2.1-1.08,3.34,3.34,0,0,1,1.32.17,5.14,5.14,0,0,1,1.41.8,21.4,21.4,0,0,1,2.09,1.94c.74.76,1.24,1.24,1.5,1.45a4.35,4.35,0,0,0,.77.52Z"/><path class="cls-4" d="M240.06,609.85a2.09,2.09,0,0,1-.31-4.16,2.09,2.09,0,0,1,1.74,3.44A2,2,0,0,1,240.06,609.85ZM240,609a1.27,1.27,0,1,0-.92-.3A1.19,1.19,0,0,0,240,609Z"/><g class="cls-5"><path class="cls-4" d="M677.71,411.41l4.26-5.75-3.76-5.28H680l2,2.83c.42.59.71,1,.89,1.35a11.9,11.9,0,0,1,.87-1.25l2.22-2.93h1.58l-3.87,5.2,4.18,5.83H686l-2.77-3.93c-.16-.23-.32-.48-.49-.74-.24.4-.42.67-.52.83l-2.77,3.84Z"/><path class="cls-4" d="M111.74,413.3l4.27-5.74-3.76-5.28H114l2,2.83a12.94,12.94,0,0,1,.89,1.35q.38-.6.87-1.26l2.22-2.92h1.59l-3.87,5.2,4.17,5.82h-1.8l-2.78-3.93c-.15-.22-.31-.47-.48-.74-.24.4-.42.68-.53.83l-2.76,3.84Z"/></g><line class="cls-11" x1="665.46" y1="405.82" x2="133.84" y2="405.82"/><line class="cls-12" x1="495.65" y1="735.52" x2="495.65" y2="78.23"/><g class="cls-5"><path class="cls-10" d="M504.39,735.52V730l-5-7.52h2.08l2.58,3.94c.47.74.92,1.47,1.33,2.2.4-.68.89-1.45,1.46-2.29l2.52-3.85h2L506.12,730v5.52Z"/><path class="cls-10" d="M504.39,92.81V87.28l-5-7.52h2.08L504,83.71c.47.74.92,1.47,1.33,2.2.4-.69.89-1.46,1.46-2.3l2.52-3.85h2l-5.22,7.52v5.53Z"/></g></g><g id="Watermark"><rect class="cls-6" x="438.45" y="636.92" width="123.09" height="46.3"/><rect class="cls-13" x="444.86" y="644.76" width="62.89" height="30.62"/><rect class="cls-13" x="507.75" y="644.76" width="47.39" height="30.62"/><path class="cls-14" d="M466.48,650.86l-2.79,18.92H461l-1.55-11-1.53,11h-2.74l-2.8-18.92h2.51L456.63,665l1.79-14.17h2L462.19,665,464,650.86Z"/><path class="cls-14" d="M467.93,669.78V650.86h2.53v18.92Z"/><path class="cls-14" d="M472.83,650.86h5q2.9,0,2.9,3.24v4.66c0,1.65-.51,2.7-1.51,3.14l1.77,7.88h-2.4l-1.66-7.64h-1.53v7.64h-2.53Zm2.53,9.12H477c.76,0,1.14-.46,1.14-1.37v-4.09c0-.91-.38-1.37-1.14-1.37h-1.66Z"/><path class="cls-14" d="M486.82,653.15v16.63h-2.53V653.15h-2.42v-2.29h7.38v2.29Z"/><path class="cls-14" d="M496.34,669.78v-8.59h-3.11v8.59H490.7V650.86h2.53v8h3.11v-8h2.53v18.92Z"/><path class="cls-14" d="M516.31,650.86h5q2.9,0,2.89,3.24v4.66c0,1.65-.5,2.7-1.5,3.14l1.77,7.88H522l-1.66-7.64h-1.53v7.64h-2.53Zm2.53,9.12h1.66c.76,0,1.13-.46,1.13-1.37v-4.09c0-.91-.37-1.37-1.13-1.37h-1.66Z"/><path class="cls-14" d="M528.67,669.78h-2.53V654.1q0-3.24,3-3.24h1.9q3,0,3,3.24v15.68h-2.53v-6.93h-2.9Zm2.9-9.22v-6.3a1,1,0,0,0-1.11-1.11h-.68a1,1,0,0,0-1.11,1.11v6.3Z"/><path class="cls-14" d="M536.34,669.78V650.86h2.53v18.92Z"/><path class="cls-14" d="M547.24,669.78h-6V650.86h2.53v16.63h3.47Z"/></g></svg>