<?xml version="1.0" encoding="utf-8"?>
<!-- Generator: Adobe Illustrator 25.2.3, SVG Export Plug-In . SVG Version: 6.00 Build 0)  -->
<svg version="1.1" xmlns="http://www.w3.org/2000/svg" xmlns:xlink="http://www.w3.org/1999/xlink" x="0px" y="0px"
	 viewBox="0 0 1000 800" style="enable-background:new 0 0 1000 800;" xml:space="preserve">
<style type="text/css">
	.st0{fill:#F0F0F0;}
	.st1{fill:none;stroke:#221E1F;stroke-width:1.0614;}
	.st2{fill:#221E1F;}
	.st3{fill:none;stroke:#221E1F;stroke-width:1.0614;stroke-dasharray:12.8405,6.4722;}
	.st4{fill:none;stroke:#000000;stroke-width:1.404;}
	.st5{fill:none;stroke:#000000;stroke-width:0.975;}
	.st6{fill:none;stroke:#000000;stroke-width:0.975;stroke-dasharray:11.5538,5.7038;}
	.st7{fill:none;stroke:#000000;stroke-width:0.975;stroke-miterlimit:10;}
	.st8{fill:none;stroke:#221E1F;stroke-width:0.8906;}
	.st9{fill:none;stroke:#221E1F;stroke-width:0.8819;}
	.st10{clip-path:url(#SVGID_2_);fill:none;stroke:#221E1F;stroke-width:0.8819;}
	.st11{clip-path:url(#SVGID_4_);fill:none;stroke:#221E1F;stroke-width:0.8819;}
	.st12{fill:#303030;}
	.st13{fill:none;stroke:#303030;stroke-width:0.8906;stroke-miterlimit:10;}
	.st14{clip-path:url(#SVGID_6_);fill:none;stroke:#221E1F;stroke-width:0.8906;}
	.st15{fill:none;stroke:#221E1F;stroke-width:0.8906;stroke-dasharray:23.0235,6.997;}
	.st16{fill:none;stroke:#221E1F;stroke-width:0.8906;stroke-dasharray:19.498,3.4714;}
	.st17{fill:none;stroke:#221E1F;stroke-width:0.8906;stroke-dasharray:21.3897,6.2234;}
	.st18{clip-path:url(#SVGID_8_);fill:none;stroke:#221E1F;stroke-width:0.8025;}
	.st19{fill:none;stroke:#221E1F;stroke-width:0.7299;}
	.st20{clip-path:url(#SVGID_10_);fill:none;stroke:#221E1F;stroke-width:0.8025;}
	.st21{fill:none;stroke:#221E1F;stroke-width:0.7726;}
	.st22{fill:none;stroke:#221E1F;stroke-width:0.8025;}
	.st23{fill:none;stroke:#221E1F;stroke-width:0.8025;stroke-dasharray:21.5886,6.6505;}
	.st24{fill:none;stroke:#303030;stroke-width:0.8025;stroke-miterlimit:10;}
	.st25{fill:none;stroke:#221E1F;stroke-width:0.811;stroke-dasharray:21.8106,6.6911;}
	.st26{fill:none;stroke:#221E1F;stroke-width:0.811;stroke-dasharray:16.7651,1.6456;}
	.st27{fill:none;stroke:#221E1F;stroke-width:0.811;}
	.st28{clip-path:url(#SVGID_12_);fill:#221E1F;}
	.st29{fill:none;stroke:#221E1F;stroke-width:1.2695;}
	.st30{fill:none;stroke:#221E1F;stroke-width:0.8814;}
	.st31{fill:none;stroke:#221E1F;stroke-width:1.4133;}
	.st32{fill:none;stroke:#221E1F;stroke-width:0.9807;}
	.st33{fill:none;stroke:#221E1F;stroke-width:0.9807;stroke-dasharray:13.5825,6.7924;}
	.st34{fill:none;stroke:#221E1F;stroke-width:0.9807;stroke-dasharray:19.5641,12.5429;}
	.st35{fill:none;stroke:#221E1F;stroke-width:1.1332;}
	.st36{fill:none;stroke:#221E1F;stroke-width:1.7102;}
	.st37{fill:none;stroke:#221E1F;stroke-width:1.2031;stroke-linecap:round;stroke-linejoin:round;stroke-miterlimit:10;}
	.st38{fill:none;stroke:#221E1F;stroke-width:1.2031;}
	.st39{fill:none;stroke:#221E1F;stroke-width:1.2031;stroke-miterlimit:10;}
	
		.st40{fill:none;stroke:#221E1F;stroke-width:1.2031;stroke-linecap:round;stroke-linejoin:round;stroke-miterlimit:10;stroke-dasharray:9.1021,1.1746,1.1746,1.1746;stroke-dashoffset:10;}
	
		.st41{fill:none;stroke:#221E1F;stroke-width:1.2031;stroke-linecap:round;stroke-linejoin:round;stroke-miterlimit:10;stroke-dasharray:9.1228,1.1953,1.1953,1.1953;stroke-dashoffset:10;}
	.st42{fill:none;stroke:#221E1F;stroke-width:1.0246;}
	.st43{fill:none;stroke:#221E1F;stroke-width:1.0246;stroke-dasharray:5.7593,5.7593;}
	.st44{fill:none;stroke:#221E1F;stroke-width:1.0582;}
	.st45{fill:none;stroke:#221E1F;stroke-width:1.0246;stroke-dasharray:5.8059,5.8059;}
	.st46{fill:none;stroke:#241F21;stroke-width:0.8839;}
	.st47{fill:#241F21;}
	.st48{fill:none;stroke:#241F21;stroke-width:1.2533;}
	.st49{fill:none;stroke:#241F21;stroke-width:0.7133;stroke-linecap:round;stroke-linejoin:round;stroke-miterlimit:10;}
	.st50{fill:none;stroke:#241F21;stroke-width:0.8839;stroke-miterlimit:10;}
	
		.st51{clip-path:url(#SVGID_14_);fill:none;stroke:#241F21;stroke-width:0.8839;stroke-linecap:round;stroke-linejoin:round;stroke-miterlimit:10;}
	.st52{clip-path:url(#SVGID_14_);fill:none;stroke:#241F21;stroke-width:0.8839;stroke-miterlimit:10;}
	.st53{fill:none;stroke:#241F21;stroke-width:0.8839;stroke-linecap:round;stroke-linejoin:round;stroke-miterlimit:10;}
	.st54{fill:none;stroke:#241F21;stroke-width:0.7642;stroke-linecap:round;stroke-linejoin:round;stroke-miterlimit:10;}
	
		.st55{fill:none;stroke:#241F21;stroke-width:0.7133;stroke-linecap:round;stroke-linejoin:round;stroke-miterlimit:10;stroke-dasharray:9.9652,1.3195,1.3195,1.3195;stroke-dashoffset:11;}
	
		.st56{fill:none;stroke:#241F21;stroke-width:0.7133;stroke-linecap:round;stroke-linejoin:round;stroke-miterlimit:10;stroke-dasharray:9.7079,1.0622,1.0622,1.0622;stroke-dashoffset:10;}
	.st57{fill:none;stroke:#241F21;stroke-width:0.8839;stroke-dasharray:5.5991,5.5991;}
	.st58{fill:none;stroke:#241F21;stroke-width:0.7515;stroke-dasharray:5.6857,5.6857;}
	.st59{fill:none;stroke:#221E1F;stroke-width:1.0101;stroke-miterlimit:10;}
	.st60{fill:none;stroke:#221E1F;stroke-width:1.0012;}
	.st61{fill:none;stroke:#221E1F;stroke-width:0.9081;}
	.st62{fill:none;stroke:#221E1F;stroke-width:1.0385;}
	.st63{fill:none;stroke:#221E1F;stroke-width:0.9081;stroke-dasharray:20.8407,6.1278;}
	.st64{fill:none;stroke:#221E1F;stroke-width:1.406;}
	.st65{fill:none;stroke:#221E1F;stroke-width:0.9906;}
	.st66{fill:none;stroke:#221E1F;stroke-width:0.9887;}
	.st67{fill:none;stroke:#221E1F;stroke-width:0.8443;}
	.st68{fill:none;stroke:#221E1F;stroke-width:0.8443;stroke-dasharray:4.4655,4.4655;}
	.st69{fill:none;stroke:#221E1F;stroke-width:1.7608;}
	.st70{fill:none;stroke:#221E1F;stroke-width:1.0549;}
	.st71{clip-path:url(#SVGID_16_);fill:none;stroke:#221E1F;stroke-width:1.0549;}
	.st72{fill:none;stroke:#221E1F;stroke-width:1.0549;stroke-dasharray:5.538,5.538;}
	.st73{clip-path:url(#SVGID_18_);}
	.st74{clip-path:url(#SVGID_20_);}
	.st75{fill:#F0F0F0;stroke:#CCCCCC;stroke-miterlimit:10;}
	.st76{fill:#CCCCCC;}
</style>
<g id="Flat">
	<g>
		<g>
			<path class="st12" d="M878.3,656.2h1.8v9.8c-0.4,0-0.9-0.1-1.3-0.2c-0.7-0.2-1.3-0.7-2-1.2c-0.7-0.6-1.4-1.3-2.3-2.4
				c-1.3-1.6-2.4-2.7-3.2-3.3c-0.8-0.6-1.5-0.9-2.2-0.9c-0.7,0-1.3,0.3-1.8,0.8c-0.5,0.5-0.7,1.2-0.7,2c0,0.9,0.3,1.6,0.8,2.1
				s1.3,0.8,2.2,0.8l-0.2,1.9c-1.4-0.1-2.5-0.6-3.2-1.5c-0.7-0.8-1.1-2-1.1-3.4c0-1.4,0.4-2.6,1.2-3.4c0.8-0.8,1.8-1.2,2.9-1.2
				c0.6,0,1.2,0.1,1.8,0.4c0.6,0.2,1.2,0.6,1.8,1.2s1.5,1.5,2.6,2.8c0.9,1.1,1.5,1.8,1.9,2.1c0.3,0.3,0.7,0.6,1,0.8V656.2z"/>
			<path class="st12" d="M868.8,644.7l0.1,1.8c-0.7,0.2-1.2,0.4-1.6,0.7c-0.5,0.5-0.8,1.1-0.8,1.8c0,0.6,0.2,1.1,0.5,1.5
				c0.4,0.6,1,1,1.8,1.4c0.8,0.3,2,0.5,3.4,0.5c-0.7-0.4-1.2-1-1.5-1.6s-0.5-1.3-0.5-2c0-1.2,0.4-2.3,1.3-3.1
				c0.9-0.9,2.1-1.3,3.5-1.3c0.9,0,1.8,0.2,2.6,0.6c0.8,0.4,1.4,1,1.8,1.7c0.4,0.7,0.6,1.5,0.6,2.4c0,1.5-0.6,2.8-1.7,3.7
				c-1.1,1-3,1.4-5.5,1.4c-2.9,0-5-0.5-6.3-1.6c-1.1-0.9-1.7-2.2-1.7-3.7c0-1.2,0.3-2.1,1-2.9C866.7,645.3,867.6,644.9,868.8,644.7z
				 M875.2,652.2c0.6,0,1.2-0.1,1.8-0.4s1-0.6,1.3-1.1c0.3-0.5,0.5-1,0.5-1.5c0-0.8-0.3-1.4-0.9-2s-1.5-0.8-2.5-0.8
				c-1,0-1.8,0.3-2.4,0.8c-0.6,0.5-0.9,1.2-0.9,2.1c0,0.8,0.3,1.5,0.9,2.1C873.5,651.9,874.3,652.2,875.2,652.2z"/>
			<path class="st12" d="M880,641.6H878v-2.1h2.1V641.6z"/>
		</g>
		<g>
			<path class="st12" d="M876.1,636.9l-0.2-1.9c0.9-0.1,1.6-0.5,2.1-1c0.5-0.5,0.7-1.1,0.7-1.9c0-0.9-0.3-1.6-1-2.2
				c-0.7-0.6-1.5-0.9-2.6-0.9c-1,0-1.9,0.3-2.5,0.9c-0.6,0.6-0.9,1.4-0.9,2.3c0,0.6,0.1,1.1,0.4,1.6c0.3,0.5,0.6,0.8,1,1.1l-0.2,1.7
				l-7.7-1.4v-7.4h1.7v5.9l4,0.8c-0.6-0.9-0.9-1.8-0.9-2.8c0-1.3,0.5-2.4,1.4-3.3c0.9-0.9,2.1-1.3,3.5-1.3c1.3,0,2.5,0.4,3.5,1.2
				c1.2,1,1.8,2.3,1.8,3.9c0,1.4-0.4,2.5-1.1,3.3C878.4,636.3,877.4,636.7,876.1,636.9z"/>
		</g>
		<g>
			<path class="st12" d="M869.4,426l0.1,1.8c-0.7,0.2-1.2,0.4-1.6,0.7c-0.5,0.5-0.8,1.1-0.8,1.8c0,0.6,0.2,1.1,0.5,1.5
				c0.4,0.6,1,1,1.8,1.4c0.8,0.3,2,0.5,3.4,0.5c-0.7-0.4-1.2-1-1.5-1.6s-0.5-1.3-0.5-2c0-1.2,0.4-2.3,1.3-3.1
				c0.9-0.9,2.1-1.3,3.5-1.3c0.9,0,1.8,0.2,2.6,0.6c0.8,0.4,1.4,1,1.8,1.7c0.4,0.7,0.6,1.5,0.6,2.4c0,1.5-0.6,2.8-1.7,3.7
				c-1.1,1-3,1.4-5.5,1.4c-2.9,0-5-0.5-6.3-1.6c-1.1-0.9-1.7-2.2-1.7-3.7c0-1.2,0.3-2.1,1-2.9C867.3,426.6,868.2,426.1,869.4,426z
				 M875.8,433.4c0.6,0,1.2-0.1,1.8-0.4s1-0.6,1.3-1.1c0.3-0.5,0.5-1,0.5-1.5c0-0.8-0.3-1.4-0.9-2s-1.5-0.8-2.5-0.8
				c-1,0-1.8,0.3-2.4,0.8c-0.6,0.5-0.9,1.2-0.9,2.1c0,0.8,0.3,1.5,0.9,2.1C874,433.1,874.8,433.4,875.8,433.4z"/>
			<path class="st12" d="M876.7,423.9l-0.2-1.9c0.9-0.1,1.6-0.5,2.1-1c0.5-0.5,0.7-1.1,0.7-1.9c0-0.9-0.3-1.6-1-2.2
				c-0.7-0.6-1.5-0.9-2.6-0.9c-1,0-1.9,0.3-2.5,0.9c-0.6,0.6-0.9,1.4-0.9,2.3c0,0.6,0.1,1.1,0.4,1.6c0.3,0.5,0.6,0.8,1,1.1l-0.2,1.7
				l-7.7-1.4v-7.4h1.7v5.9l4,0.8c-0.6-0.9-0.9-1.8-0.9-2.8c0-1.3,0.5-2.4,1.4-3.3c0.9-0.9,2.1-1.3,3.5-1.3c1.3,0,2.5,0.4,3.5,1.2
				c1.2,1,1.8,2.3,1.8,3.9c0,1.4-0.4,2.5-1.1,3.3C879,423.3,878,423.8,876.7,423.9z"/>
			<path class="st12" d="M880.6,411.3h-2.1v-2.1h2.1V411.3z"/>
		</g>
		<g>
			<path class="st12" d="M876.7,406.5l-0.2-1.9c0.9-0.1,1.6-0.5,2.1-1c0.5-0.5,0.7-1.1,0.7-1.9c0-0.9-0.3-1.6-1-2.2
				c-0.7-0.6-1.5-0.9-2.6-0.9c-1,0-1.9,0.3-2.5,0.9c-0.6,0.6-0.9,1.4-0.9,2.3c0,0.6,0.1,1.1,0.4,1.6c0.3,0.5,0.6,0.8,1,1.1l-0.2,1.7
				l-7.7-1.4v-7.4h1.7v5.9l4,0.8c-0.6-0.9-0.9-1.8-0.9-2.8c0-1.3,0.5-2.4,1.4-3.3c0.9-0.9,2.1-1.3,3.5-1.3c1.3,0,2.5,0.4,3.5,1.2
				c1.2,1,1.8,2.3,1.8,3.9c0,1.4-0.4,2.5-1.1,3.3C879,405.9,878,406.4,876.7,406.5z"/>
		</g>
		<line class="st46" x1="886.9" y1="700.3" x2="886.9" y2="604.3"/>
		<polygon class="st47" points="891.1,697.4 886.8,713.6 882.4,697.4 		"/>
		<polygon class="st47" points="891.1,607.3 886.8,591 882.4,607.3 		"/>
		<line class="st46" x1="886.9" y1="577.7" x2="886.9" y2="299.8"/>
		<polygon class="st47" points="891.1,574.8 886.8,591 882.4,574.8 		"/>
		<polygon class="st47" points="891.1,302.8 886.8,286.6 882.4,302.8 		"/>
		<line class="st46" x1="886.9" y1="273.3" x2="886.9" y2="96.6"/>
		<polygon class="st47" points="891.1,270.3 886.8,286.6 882.4,270.3 		"/>
		<polygon class="st47" points="891.1,99.6 886.8,83.3 882.4,99.6 		"/>
		<g>
			<path class="st0" d="M499.1,82.6c0,0-146.2,0-195.9,4c-26.2,10.8-36.3,22.2-36.3,53.8c0,31.6-1.3,45.7,0,68.6
				c1.3,22.9,17.5,39.7,35.7,44.4c18.2,4.7,82.1,10.1,104.9,52.5c22.9,42.4,19.5,110.3,19.5,127.1c0,16.8-4,104.9-33,141.9
				c-28.9,37-59.9,38.3-59.9,38.3s-123.8,30.9-137.2,35c-13.5,4-21.5,18.8-21.5,25.6c0,6.7-0.7,30.9-0.7,30.9s1.3,8.7,5.4,8.7h640.4
				c4,0,5.4-8.7,5.4-8.7s-0.7-24.2-0.7-30.9c0-6.7-8.1-21.5-21.5-25.6c-13.5-4-137.2-35-137.2-35s-30.9-1.3-59.9-38.3
				c-28.9-37-33-125.1-33-141.9c0-16.8-3.4-84.8,19.5-127.1c22.9-42.4,86.8-47.8,104.9-52.5c18.2-4.7,34.3-21.5,35.7-44.4
				c1.3-22.9,0-37,0-68.6c0-31.6-10.1-43.1-36.3-53.8C647.6,82.6,499.1,82.6,499.1,82.6"/>
			<path class="st48" d="M499.1,82.6c0,0-146.2,0-195.9,4c-26.2,10.8-36.3,22.2-36.3,53.8c0,31.6-1.3,45.7,0,68.6
				c1.3,22.9,17.5,39.7,35.7,44.4c18.2,4.7,82.1,10.1,104.9,52.5c22.9,42.4,19.5,110.3,19.5,127.1c0,16.8-4,104.9-33,141.9
				c-28.9,37-59.9,38.3-59.9,38.3s-123.8,30.9-137.2,35c-13.5,4-21.5,18.8-21.5,25.6c0,6.7-0.7,30.9-0.7,30.9s1.3,8.7,5.4,8.7h640.4
				c4,0,5.4-8.7,5.4-8.7s-0.7-24.2-0.7-30.9c0-6.7-8.1-21.5-21.5-25.6c-13.5-4-137.2-35-137.2-35s-30.9-1.3-59.9-38.3
				c-28.9-37-33-125.1-33-141.9c0-16.8-3.4-84.8,19.5-127.1c22.9-42.4,86.8-47.8,104.9-52.5c18.2-4.7,34.3-21.5,35.7-44.4
				c1.3-22.9,0-37,0-68.6c0-31.6-10.1-43.1-36.3-53.8C647.6,82.6,499.1,82.6,499.1,82.6z"/>
		</g>
		<polyline class="st49" points="191.5,666.1 208.3,673.4 228.5,673.4 		"/>
		<g>
			<path class="st47" d="M187.1,665.2c1.9,2.4,3,4.1,4.4,6.2l5-7.3c-0.9-0.1-4.4-0.9-7.3-1.8c-3.1-1-5.8-2-7.4-2.9
				C183.1,660.6,185,662.7,187.1,665.2"/>
		</g>
		<polyline class="st49" points="185,706.5 196.7,699.1 229,699.1 		"/>
		<g>
			<path class="st47" d="M184.7,708.4c2.8-1.2,4.7-1.8,7.1-2.6l-5.7-6.7c-0.4,0.8-2.1,4-3.7,6.6c-1.8,2.7-3.5,5-4.7,6.4
				C179.2,711,181.7,709.7,184.7,708.4"/>
		</g>
		<polyline class="st50" points="410.6,364.5 358,369.7 386.8,374.4 323.1,413.3 		"/>
		<g>
			<path class="st47" d="M414.6,362.5c-2.9-0.7-4.9-1.4-7.2-2.2l0.5,8.8c0.8-0.4,4.1-2,6.9-3c3-1.1,5.8-1.9,7.6-2.2
				C420.6,363.7,417.8,363.2,414.6,362.5"/>
		</g>
		<polyline class="st50" points="410.1,474.2 358,468.9 374.1,455.1 322.9,437.6 		"/>
		<g>
			<path class="st47" d="M414.4,473.2c-2.7-1.4-4.4-2.5-6.5-3.8l-1.6,8.7c0.9-0.2,4.4-1,7.5-1.3c3.2-0.4,6.1-0.5,7.9-0.4
				C420,475.8,417.3,474.6,414.4,473.2"/>
		</g>
		<polyline class="st49" points="549.4,95.5 549.4,187.8 521.9,161.7 503,295.5 		"/>
		<g>
			<path class="st47" d="M547.6,91.1c-0.9,3.1-1.7,5.1-2.6,7.6h8.8c-0.4-0.9-1.7-4.5-2.6-7.6c-0.9-3.3-1.6-6.4-1.8-8.3
				C549.2,84.7,548.6,87.7,547.6,91.1"/>
		</g>
		<g>
			<defs>
				<rect id="SVGID_13_" x="114" y="2.8" width="833.4" height="785.7"/>
			</defs>
			<clipPath id="SVGID_2_">
				<use xlink:href="#SVGID_13_"  style="overflow:visible;"/>
			</clipPath>
			
				<path style="clip-path:url(#SVGID_2_);fill:none;stroke:#241F21;stroke-width:0.8839;stroke-linecap:round;stroke-linejoin:round;stroke-miterlimit:10;" d="
				M824.9,677.9v111.7 M266.9,10.6v131.1 M733.1,9.4v172.1"/>
			
				<line style="clip-path:url(#SVGID_2_);fill:none;stroke:#241F21;stroke-width:0.8839;stroke-miterlimit:10;" x1="174.9" y1="677.9" x2="174.9" y2="789.7"/>
			
				<line style="clip-path:url(#SVGID_2_);fill:none;stroke:#241F21;stroke-width:0.8839;stroke-linecap:round;stroke-linejoin:round;stroke-miterlimit:10;" x1="811.2" y1="714.6" x2="948.9" y2="714.6"/>
			
				<line style="clip-path:url(#SVGID_2_);fill:none;stroke:#241F21;stroke-width:0.8839;stroke-miterlimit:10;" x1="644.3" y1="83.6" x2="948.9" y2="83.6"/>
		</g>
		<path class="st49" d="M503.6,437.5h318 M503.6,413.3h318 M503.6,286.6h397.9"/>
		<line class="st50" x1="503.6" y1="591" x2="894.8" y2="591"/>
		<line class="st53" x1="195.2" y1="83.6" x2="385.8" y2="83.6"/>
		<path class="st50" d="M425.2,485.8v103.1 M574,485.8v103.1 M116.8,714h80.7 M116.8,653.3H174 M195.2,245.1h90.5"/>
		<line class="st54" x1="440.1" y1="490.9" x2="563" y2="490.9"/>
		<g>
			<path class="st47" d="M564.4,489.1c-3.6-0.9-5.9-1.7-8.8-2.6v8.8c1-0.4,5.2-1.7,8.8-2.6c3.8-0.9,7.3-1.6,9.5-1.8
				C571.7,490.7,568.2,490,564.4,489.1"/>
			<path class="st47" d="M435,492.7c3.6,0.9,5.9,1.7,8.8,2.6v-8.8c-1,0.4-5.2,1.7-8.8,2.6c-3.8,0.9-7.3,1.6-9.5,1.8
				C427.7,491.1,431.2,491.8,435,492.7"/>
			<path class="st47" d="M434.5,492.7c3.6,0.9,5.9,1.7,8.8,2.6v-8.8c-1,0.4-5.2,1.7-8.8,2.6c-3.8,0.9-7.3,1.6-9.5,1.8
				C427.2,491.1,430.6,491.8,434.5,492.7"/>
		</g>
		<line class="st55" x1="323.4" y1="413.3" x2="500.4" y2="413.3"/>
		<line class="st56" x1="500.4" y1="437.5" x2="323.1" y2="437.5"/>
		<g>
			<path class="st12" d="M459,18h-1.8V6.3c-0.4,0.4-1,0.8-1.7,1.3s-1.4,0.7-1.9,0.9V6.8c1-0.5,1.9-1.1,2.7-1.7s1.3-1.3,1.6-2h1.2V18
				z"/>
			<path class="st12" d="M463.7,10.7c0-1.8,0.2-3.2,0.5-4.3s0.9-1.9,1.6-2.5s1.6-0.9,2.7-0.9c0.8,0,1.5,0.2,2.1,0.5
				c0.6,0.3,1.1,0.8,1.5,1.4c0.4,0.6,0.7,1.3,0.9,2.2c0.2,0.9,0.3,2,0.3,3.5c0,1.7-0.2,3.2-0.5,4.2c-0.4,1.1-0.9,1.9-1.6,2.5
				c-0.7,0.6-1.6,0.9-2.7,0.9c-1.4,0-2.6-0.5-3.4-1.5C464.2,15.5,463.7,13.5,463.7,10.7z M465.6,10.7c0,2.4,0.3,4.1,0.9,4.9
				s1.3,1.2,2.1,1.2s1.5-0.4,2.1-1.2c0.6-0.8,0.9-2.4,0.9-4.9c0-2.5-0.3-4.1-0.9-4.9c-0.6-0.8-1.3-1.2-2.1-1.2c-0.8,0-1.5,0.4-2,1.1
				C465.9,6.5,465.6,8.2,465.6,10.7z"/>
			<path class="st12" d="M475.3,10.7c0-1.8,0.2-3.2,0.5-4.3s0.9-1.9,1.6-2.5S479,3,480.1,3c0.8,0,1.5,0.2,2.1,0.5
				c0.6,0.3,1.1,0.8,1.5,1.4c0.4,0.6,0.7,1.3,0.9,2.2c0.2,0.9,0.3,2,0.3,3.5c0,1.7-0.2,3.2-0.5,4.2c-0.4,1.1-0.9,1.9-1.6,2.5
				c-0.7,0.6-1.6,0.9-2.7,0.9c-1.4,0-2.6-0.5-3.4-1.5C475.7,15.5,475.3,13.5,475.3,10.7z M477.1,10.7c0,2.4,0.3,4.1,0.9,4.9
				s1.3,1.2,2.1,1.2s1.5-0.4,2.1-1.2c0.6-0.8,0.9-2.4,0.9-4.9c0-2.5-0.3-4.1-0.9-4.9c-0.6-0.8-1.3-1.2-2.1-1.2c-0.8,0-1.5,0.4-2,1.1
				C477.5,6.5,477.1,8.2,477.1,10.7z"/>
			<path class="st12" d="M496.6,22.4c-1-1.3-1.9-2.8-2.6-4.5c-0.7-1.7-1-3.5-1-5.3c0-1.6,0.3-3.2,0.8-4.6c0.6-1.7,1.6-3.4,2.8-5.1
				h1.3c-0.8,1.4-1.4,2.4-1.6,3c-0.4,0.9-0.7,1.9-1,2.9c-0.3,1.3-0.4,2.5-0.4,3.8c0,3.3,1,6.5,3,9.8H496.6z"/>
			<path class="st12" d="M499.6,14.1l1.8-0.2c0.2,1,0.6,1.8,1.1,2.2s1.1,0.7,1.8,0.7c0.9,0,1.6-0.3,2.2-0.9c0.6-0.6,0.9-1.3,0.9-2.2
				c0-0.8-0.3-1.5-0.8-2.1c-0.5-0.5-1.2-0.8-2.1-0.8c-0.3,0-0.8,0.1-1.3,0.2l0.2-1.6c0.1,0,0.2,0,0.3,0c0.8,0,1.5-0.2,2.1-0.6
				s0.9-1,0.9-1.9c0-0.7-0.2-1.2-0.7-1.7s-1-0.7-1.8-0.7c-0.7,0-1.3,0.2-1.8,0.7c-0.5,0.4-0.8,1.1-0.9,2l-1.8-0.3
				c0.2-1.2,0.7-2.2,1.5-2.9c0.8-0.7,1.8-1,3-1c0.8,0,1.6,0.2,2.2,0.5c0.7,0.3,1.2,0.8,1.6,1.4s0.5,1.2,0.5,1.9
				c0,0.6-0.2,1.2-0.5,1.8c-0.3,0.5-0.9,0.9-1.5,1.3c0.9,0.2,1.6,0.6,2.1,1.3c0.5,0.6,0.7,1.4,0.7,2.4c0,1.3-0.5,2.4-1.4,3.3
				s-2.1,1.4-3.6,1.4c-1.3,0-2.4-0.4-3.3-1.2C500.2,16.3,499.7,15.3,499.6,14.1z"/>
			<path class="st12" d="M512.1,18v-2.1h2.1V18H512.1z"/>
			<path class="st12" d="M517.2,14.6l1.8-0.2c0.1,0.8,0.4,1.4,0.9,1.8s1,0.6,1.6,0.6c0.6,0,1.1-0.1,1.5-0.4c0.4-0.3,0.8-0.6,1-1
				c0.3-0.4,0.5-1,0.7-1.7s0.3-1.5,0.3-2.2c0-0.1,0-0.2,0-0.4c-0.4,0.6-0.9,1.1-1.5,1.4c-0.6,0.4-1.3,0.5-2.1,0.5
				c-1.2,0-2.3-0.4-3.1-1.3s-1.3-2.1-1.3-3.5c0-1.5,0.4-2.7,1.3-3.6c0.9-0.9,2-1.4,3.3-1.4c1,0,1.9,0.3,2.7,0.8
				c0.8,0.5,1.4,1.3,1.8,2.2c0.4,1,0.6,2.4,0.6,4.2c0,1.9-0.2,3.4-0.6,4.5c-0.4,1.1-1,2-1.8,2.6s-1.8,0.9-2.9,0.9
				c-1.2,0-2.1-0.3-2.9-1S517.3,15.7,517.2,14.6z M524.7,8c0-1.1-0.3-1.9-0.8-2.5c-0.6-0.6-1.2-0.9-2-0.9c-0.8,0-1.5,0.3-2.1,1
				c-0.6,0.7-0.9,1.5-0.9,2.6c0,0.9,0.3,1.7,0.9,2.3s1.3,0.9,2.1,0.9c0.8,0,1.5-0.3,2.1-0.9C524.4,9.9,524.7,9,524.7,8z"/>
			<path class="st12" d="M528.5,14.1l1.8-0.2c0.2,1,0.6,1.8,1.1,2.2s1.1,0.7,1.8,0.7c0.9,0,1.6-0.3,2.2-0.9c0.6-0.6,0.9-1.3,0.9-2.2
				c0-0.8-0.3-1.5-0.8-2.1c-0.5-0.5-1.2-0.8-2.1-0.8c-0.3,0-0.8,0.1-1.3,0.2l0.2-1.6c0.1,0,0.2,0,0.3,0c0.8,0,1.5-0.2,2.1-0.6
				s0.9-1,0.9-1.9c0-0.7-0.2-1.2-0.7-1.7s-1-0.7-1.8-0.7c-0.7,0-1.3,0.2-1.8,0.7c-0.5,0.4-0.8,1.1-0.9,2l-1.8-0.3
				c0.2-1.2,0.7-2.2,1.5-2.9c0.8-0.7,1.8-1,3-1c0.8,0,1.6,0.2,2.2,0.5c0.7,0.3,1.2,0.8,1.6,1.4s0.5,1.2,0.5,1.9
				c0,0.6-0.2,1.2-0.5,1.8c-0.3,0.5-0.9,0.9-1.5,1.3c0.9,0.2,1.6,0.6,2.1,1.3c0.5,0.6,0.7,1.4,0.7,2.4c0,1.3-0.5,2.4-1.4,3.3
				s-2.1,1.4-3.6,1.4c-1.3,0-2.4-0.4-3.3-1.2C529.1,16.3,528.6,15.3,528.5,14.1z"/>
			<path class="st12" d="M540.2,5.1V3.3h9.6v1.4c-0.9,1-1.9,2.4-2.8,4c-0.9,1.7-1.7,3.4-2.2,5.2c-0.4,1.2-0.6,2.6-0.7,4.1h-1.9
				c0-1.2,0.3-2.6,0.7-4.2c0.4-1.7,1.1-3.3,1.9-4.8s1.7-2.8,2.6-3.9H540.2z"/>
			<path class="st12" d="M552.2,8.4l-0.5-2.8V3.1h2.1v2.4l-0.5,2.8H552.2z M555.6,8.4l-0.5-2.8V3.1h2.1v2.4l-0.5,2.8H555.6z"/>
		</g>
		<g>
			<path class="st12" d="M560.8,22.4h-1.3c2-3.3,3-6.5,3-9.8c0-1.3-0.1-2.5-0.4-3.8c-0.2-1-0.6-2-1-2.9c-0.3-0.6-0.8-1.6-1.6-3h1.3
				c1.3,1.7,2.2,3.4,2.8,5.1c0.5,1.5,0.8,3,0.8,4.6c0,1.8-0.4,3.6-1.1,5.3S561.8,21.1,560.8,22.4z"/>
		</g>
		<g>
			<path class="st12" d="M191.3,185.7l-0.2-1.8c1-0.2,1.8-0.6,2.2-1.1c0.5-0.5,0.7-1.1,0.7-1.8c0-0.9-0.3-1.6-0.9-2.2
				c-0.6-0.6-1.3-0.9-2.2-0.9c-0.8,0-1.5,0.3-2.1,0.8s-0.8,1.2-0.8,2.1c0,0.3,0.1,0.8,0.2,1.3l-1.6-0.2c0-0.1,0-0.2,0-0.3
				c0-0.8-0.2-1.5-0.6-2.1c-0.4-0.6-1-0.9-1.9-0.9c-0.7,0-1.2,0.2-1.7,0.7c-0.4,0.5-0.7,1-0.7,1.8c0,0.7,0.2,1.3,0.7,1.8
				s1.1,0.8,2,0.9l-0.3,1.8c-1.2-0.2-2.2-0.7-2.8-1.5c-0.7-0.8-1-1.8-1-3c0-0.8,0.2-1.6,0.5-2.2c0.3-0.7,0.8-1.2,1.4-1.6
				c0.6-0.4,1.2-0.5,1.9-0.5c0.6,0,1.2,0.2,1.8,0.5c0.5,0.3,0.9,0.9,1.3,1.5c0.2-0.9,0.6-1.6,1.3-2.1c0.6-0.5,1.4-0.7,2.4-0.7
				c1.3,0,2.4,0.5,3.3,1.4c0.9,0.9,1.4,2.1,1.4,3.6c0,1.3-0.4,2.4-1.2,3.3S192.5,185.5,191.3,185.7z"/>
			<path class="st12" d="M195.2,168.2h-3.6v6.5H190l-9.7-6.8v-1.5h9.7v-2h1.7v2h3.6V168.2z M190,168.2h-6.7l6.7,4.7V168.2z"/>
			<path class="st12" d="M195.2,161.5h-2.1v-2.1h2.1V161.5z"/>
		</g>
		<g>
			<path class="st12" d="M191.3,156.7l-0.2-1.9c0.9-0.1,1.6-0.5,2.1-1c0.5-0.5,0.7-1.1,0.7-1.9c0-0.9-0.3-1.6-1-2.2
				c-0.7-0.6-1.5-0.9-2.6-0.9c-1,0-1.9,0.3-2.5,0.9c-0.6,0.6-0.9,1.4-0.9,2.3c0,0.6,0.1,1.1,0.4,1.6s0.6,0.8,1,1.1l-0.2,1.7
				l-7.7-1.4v-7.4h1.7v5.9l4,0.8c-0.6-0.9-0.9-1.8-0.9-2.8c0-1.3,0.5-2.4,1.4-3.3c0.9-0.9,2.1-1.3,3.5-1.3c1.3,0,2.5,0.4,3.5,1.2
				c1.2,1,1.8,2.3,1.8,3.9c0,1.4-0.4,2.5-1.1,3.3C193.6,156.1,192.6,156.6,191.3,156.7z"/>
		</g>
		<g>
			<path class="st12" d="M129,689.7v1.8h-11.7c0.4,0.4,0.8,1,1.3,1.7s0.7,1.4,0.9,1.9h-1.8c-0.5-1-1.1-1.9-1.7-2.7s-1.3-1.3-2-1.6
				v-1.2H129z"/>
			<path class="st12" d="M125.1,685l-0.2-1.8c1-0.2,1.8-0.6,2.2-1.1s0.7-1.1,0.7-1.8c0-0.9-0.3-1.6-0.9-2.2
				c-0.6-0.6-1.3-0.9-2.2-0.9c-0.8,0-1.5,0.3-2.1,0.8s-0.8,1.2-0.8,2.1c0,0.3,0.1,0.8,0.2,1.3l-1.6-0.2c0-0.1,0-0.2,0-0.3
				c0-0.8-0.2-1.5-0.6-2.1s-1-0.9-1.9-0.9c-0.7,0-1.2,0.2-1.7,0.7s-0.7,1-0.7,1.8c0,0.7,0.2,1.3,0.7,1.8c0.4,0.5,1.1,0.8,2,0.9
				l-0.3,1.8c-1.2-0.2-2.2-0.7-2.8-1.5c-0.7-0.8-1-1.8-1-3c0-0.8,0.2-1.6,0.5-2.2c0.3-0.7,0.8-1.2,1.4-1.6c0.6-0.4,1.2-0.5,1.9-0.5
				c0.6,0,1.2,0.2,1.8,0.5c0.5,0.3,0.9,0.9,1.3,1.5c0.2-0.9,0.6-1.6,1.3-2.1c0.6-0.5,1.4-0.7,2.4-0.7c1.3,0,2.4,0.5,3.3,1.4
				s1.4,2.1,1.4,3.6c0,1.3-0.4,2.4-1.2,3.3C127.3,684.4,126.3,684.9,125.1,685z"/>
		</g>
		<g>
			<path class="st12" d="M807.3,361h1.8v9.8c-0.4,0-0.9-0.1-1.3-0.2c-0.7-0.3-1.3-0.7-2-1.2c-0.7-0.6-1.4-1.3-2.3-2.4
				c-1.3-1.6-2.4-2.7-3.2-3.3c-0.8-0.6-1.5-0.9-2.2-0.9c-0.7,0-1.3,0.3-1.8,0.8c-0.5,0.5-0.7,1.2-0.7,2c0,0.9,0.3,1.6,0.8,2.1
				s1.3,0.8,2.2,0.8l-0.2,1.9c-1.4-0.1-2.5-0.6-3.2-1.5c-0.7-0.8-1.1-2-1.1-3.4c0-1.4,0.4-2.6,1.2-3.4c0.8-0.8,1.8-1.2,2.9-1.2
				c0.6,0,1.2,0.1,1.8,0.4c0.6,0.2,1.2,0.6,1.8,1.2c0.6,0.6,1.5,1.5,2.6,2.8c0.9,1.1,1.5,1.8,1.9,2.1c0.3,0.3,0.7,0.6,1,0.8V361z"/>
			<path class="st12" d="M796.2,358.9h-1.8v-9.6h1.4c1,0.9,2.4,1.9,4,2.8c1.7,0.9,3.4,1.7,5.2,2.2c1.2,0.4,2.6,0.6,4.1,0.7v1.9
				c-1.2,0-2.6-0.3-4.2-0.7s-3.3-1.1-4.8-1.9c-1.5-0.8-2.8-1.7-3.9-2.6V358.9z"/>
			<path class="st12" d="M809.1,346.4H807v-2.1h2.1V346.4z"/>
		</g>
		<g>
			<path class="st12" d="M805.2,341.6l-0.2-1.9c0.9-0.1,1.6-0.5,2.1-1c0.5-0.5,0.7-1.1,0.7-1.9c0-0.9-0.3-1.6-1-2.2
				c-0.7-0.6-1.5-0.9-2.6-0.9c-1,0-1.9,0.3-2.5,0.9c-0.6,0.6-0.9,1.4-0.9,2.3c0,0.6,0.1,1.1,0.4,1.6s0.6,0.8,1,1.1l-0.2,1.7
				l-7.7-1.4v-7.4h1.7v5.9l4,0.8c-0.6-0.9-0.9-1.8-0.9-2.8c0-1.3,0.5-2.4,1.4-3.3c0.9-0.9,2.1-1.3,3.5-1.3c1.3,0,2.5,0.4,3.5,1.2
				c1.2,1,1.8,2.3,1.8,3.9c0,1.4-0.4,2.5-1.1,3.3C807.5,341,806.4,341.5,805.2,341.6z"/>
		</g>
		<g>
			<path class="st12" d="M805.2,431.1l-0.2-1.9c0.9-0.1,1.6-0.5,2.1-1c0.5-0.5,0.7-1.1,0.7-1.9c0-0.9-0.3-1.6-1-2.2
				c-0.7-0.6-1.5-0.9-2.6-0.9c-1,0-1.9,0.3-2.5,0.9c-0.6,0.6-0.9,1.4-0.9,2.3c0,0.6,0.1,1.1,0.4,1.6c0.3,0.5,0.6,0.8,1,1.1l-0.2,1.7
				l-7.7-1.4v-7.4h1.7v5.9l4,0.8c-0.6-0.9-0.9-1.8-0.9-2.8c0-1.3,0.5-2.4,1.4-3.3c0.9-0.9,2.1-1.3,3.5-1.3c1.3,0,2.5,0.4,3.5,1.2
				c1.2,1,1.8,2.3,1.8,3.9c0,1.4-0.4,2.5-1.1,3.3C807.5,430.5,806.4,431,805.2,431.1z"/>
		</g>
		<g>
			<path class="st12" d="M764.1,224.6l-10.8,4.1v-1.9l6.5-2.3c0.7-0.3,1.4-0.5,2.2-0.7c-0.6-0.2-1.3-0.4-2.1-0.7l-6.6-2.4v-1.9
				l10.8,4.1V224.6z"/>
			<path class="st12" d="M751.7,209.5h2.1v2h-1.7c-0.9,0-1.6-0.1-2-0.3c-0.5-0.3-1-0.7-1.2-1.4l0.7-0.4c0.2,0.4,0.4,0.6,0.7,0.8
				c0.3,0.2,0.8,0.3,1.3,0.3V209.5z"/>
			<path class="st12" d="M755.3,191.3v9.8h-1.7v-9.8H755.3z M759.9,191.3v9.8h-1.7v-9.8H759.9z"/>
			<path class="st12" d="M752.9,174.1l0.1,1.8c-0.7,0.2-1.2,0.4-1.6,0.7c-0.5,0.5-0.8,1.1-0.8,1.8c0,0.6,0.2,1.1,0.5,1.5
				c0.4,0.6,1,1,1.8,1.4c0.8,0.3,2,0.5,3.4,0.5c-0.7-0.4-1.2-1-1.5-1.6c-0.3-0.6-0.5-1.3-0.5-2c0-1.2,0.4-2.3,1.3-3.1
				s2.1-1.3,3.5-1.3c0.9,0,1.8,0.2,2.6,0.6s1.4,1,1.8,1.7c0.4,0.7,0.6,1.5,0.6,2.4c0,1.5-0.6,2.8-1.7,3.7s-3,1.4-5.5,1.4
				c-2.9,0-5-0.5-6.3-1.6c-1.1-0.9-1.7-2.2-1.7-3.7c0-1.2,0.3-2.1,1-2.9S751.7,174.2,752.9,174.1z M759.3,181.5
				c0.6,0,1.2-0.1,1.8-0.4c0.6-0.3,1-0.6,1.3-1.1c0.3-0.5,0.5-1,0.5-1.5c0-0.8-0.3-1.4-0.9-2c-0.6-0.6-1.5-0.8-2.5-0.8
				c-1,0-1.8,0.3-2.4,0.8s-0.9,1.2-0.9,2.1c0,0.8,0.3,1.5,0.9,2.1S758.3,181.5,759.3,181.5z"/>
			<path class="st12" d="M756,169.2c-0.3,0.8-0.7,1.3-1.2,1.7c-0.5,0.4-1.1,0.5-1.8,0.5c-1.1,0-2-0.4-2.7-1.2
				c-0.7-0.8-1.1-1.8-1.1-3.1c0-1.3,0.4-2.3,1.1-3.1c0.8-0.8,1.7-1.2,2.8-1.2c0.7,0,1.3,0.2,1.8,0.5c0.5,0.4,0.9,0.9,1.2,1.7
				c0.3-0.9,0.8-1.6,1.4-2.1s1.5-0.7,2.4-0.7c1.3,0,2.3,0.5,3.2,1.4c0.9,0.9,1.3,2.1,1.3,3.6c0,1.5-0.4,2.7-1.3,3.6
				c-0.9,0.9-2,1.4-3.3,1.4c-1,0-1.8-0.2-2.4-0.7C756.7,170.8,756.3,170.1,756,169.2z M752.9,169.5c0.7,0,1.3-0.2,1.7-0.7
				c0.4-0.5,0.7-1,0.7-1.8c0-0.7-0.2-1.3-0.7-1.7c-0.4-0.5-1-0.7-1.6-0.7c-0.7,0-1.2,0.2-1.7,0.7c-0.5,0.5-0.7,1-0.7,1.7
				c0,0.7,0.2,1.3,0.7,1.7C751.8,169.3,752.3,169.5,752.9,169.5z M759.8,170.1c0.5,0,1-0.1,1.5-0.4c0.5-0.2,0.9-0.6,1.1-1.1
				s0.4-1,0.4-1.6c0-0.9-0.3-1.6-0.8-2.2c-0.6-0.6-1.3-0.9-2.1-0.9c-0.9,0-1.6,0.3-2.2,0.9c-0.6,0.6-0.9,1.3-0.9,2.2
				c0,0.9,0.3,1.6,0.9,2.1S759,170.1,759.8,170.1z"/>
			<path class="st12" d="M764.1,159.4H762v-2.1h2.1V159.4z"/>
		</g>
		<g>
			<path class="st12" d="M764.1,147.7v1.8h-11.7c0.4,0.4,0.8,1,1.3,1.7c0.4,0.7,0.7,1.4,0.9,1.9h-1.8c-0.5-1-1.1-1.9-1.7-2.7
				c-0.7-0.8-1.3-1.3-2-1.6v-1.2H764.1z"/>
		</g>
		<g>
			<path class="st12" d="M764.1,579.8l-10.8,4.1V582l6.5-2.3c0.7-0.2,1.4-0.5,2.2-0.7c-0.6-0.2-1.3-0.4-2.1-0.7l-6.6-2.4V574
				l10.8,4.1V579.8z"/>
			<path class="st12" d="M755.3,557v9.8h-1.7V557H755.3z M759.9,557v9.8h-1.7V557H759.9z"/>
			<path class="st12" d="M752.9,539.7l0.1,1.8c-0.7,0.2-1.2,0.4-1.6,0.7c-0.5,0.5-0.8,1.1-0.8,1.8c0,0.6,0.2,1.1,0.5,1.5
				c0.4,0.6,1,1,1.8,1.4c0.8,0.3,2,0.5,3.4,0.5c-0.7-0.4-1.2-1-1.5-1.6s-0.5-1.3-0.5-2c0-1.2,0.4-2.3,1.3-3.1
				c0.9-0.9,2.1-1.3,3.5-1.3c0.9,0,1.8,0.2,2.6,0.6c0.8,0.4,1.4,1,1.8,1.7c0.4,0.7,0.6,1.5,0.6,2.4c0,1.5-0.6,2.8-1.7,3.7
				c-1.1,1-3,1.4-5.5,1.4c-2.9,0-5-0.5-6.3-1.6c-1.1-0.9-1.7-2.2-1.7-3.7c0-1.2,0.3-2.1,1-2.9C750.8,540.3,751.7,539.8,752.9,539.7z
				 M759.3,547.2c0.6,0,1.2-0.1,1.8-0.4s1-0.6,1.3-1.1c0.3-0.5,0.5-1,0.5-1.5c0-0.8-0.3-1.4-0.9-2s-1.5-0.8-2.5-0.8
				c-1,0-1.8,0.3-2.4,0.8c-0.6,0.5-0.9,1.2-0.9,2.1c0,0.8,0.3,1.5,0.9,2.1C757.5,546.9,758.3,547.2,759.3,547.2z"/>
			<path class="st12" d="M752.9,528.1l0.1,1.8c-0.7,0.2-1.2,0.4-1.6,0.7c-0.5,0.5-0.8,1.1-0.8,1.8c0,0.6,0.2,1.1,0.5,1.5
				c0.4,0.6,1,1,1.8,1.4c0.8,0.3,2,0.5,3.4,0.5c-0.7-0.4-1.2-1-1.5-1.6s-0.5-1.3-0.5-2c0-1.2,0.4-2.3,1.3-3.1
				c0.9-0.9,2.1-1.3,3.5-1.3c0.9,0,1.8,0.2,2.6,0.6c0.8,0.4,1.4,1,1.8,1.7c0.4,0.7,0.6,1.5,0.6,2.4c0,1.5-0.6,2.8-1.7,3.7
				c-1.1,1-3,1.4-5.5,1.4c-2.9,0-5-0.5-6.3-1.6c-1.1-0.9-1.7-2.2-1.7-3.7c0-1.2,0.3-2.1,1-2.9C750.8,528.7,751.7,528.3,752.9,528.1z
				 M759.3,535.6c0.6,0,1.2-0.1,1.8-0.4s1-0.6,1.3-1.1c0.3-0.5,0.5-1,0.5-1.5c0-0.8-0.3-1.4-0.9-2s-1.5-0.8-2.5-0.8
				c-1,0-1.8,0.3-2.4,0.8c-0.6,0.5-0.9,1.2-0.9,2.1c0,0.8,0.3,1.5,0.9,2.1C757.5,535.3,758.3,535.6,759.3,535.6z"/>
			<path class="st12" d="M764.1,525H762v-2.1h2.1V525z"/>
		</g>
		<g>
			<path class="st12" d="M760.7,519.9l-0.2-1.8c0.8-0.1,1.4-0.4,1.8-0.9c0.4-0.4,0.6-1,0.6-1.6c0-0.6-0.1-1.1-0.4-1.5
				c-0.3-0.4-0.6-0.8-1-1c-0.4-0.3-1-0.5-1.7-0.7c-0.7-0.2-1.5-0.3-2.2-0.3c-0.1,0-0.2,0-0.4,0c0.6,0.4,1.1,0.9,1.4,1.5
				c0.4,0.6,0.5,1.3,0.5,2.1c0,1.2-0.4,2.3-1.3,3.1c-0.9,0.9-2.1,1.3-3.5,1.3c-1.5,0-2.7-0.4-3.6-1.3c-0.9-0.9-1.4-2-1.4-3.3
				c0-1,0.3-1.9,0.8-2.7c0.5-0.8,1.3-1.4,2.2-1.8c1-0.4,2.4-0.6,4.2-0.6c1.9,0,3.4,0.2,4.5,0.6c1.1,0.4,2,1,2.6,1.8
				c0.6,0.8,0.9,1.8,0.9,2.9c0,1.2-0.3,2.1-1,2.9C762.7,519.3,761.8,519.8,760.7,519.9z M754.1,512.4c-1,0-1.9,0.3-2.5,0.8
				s-0.9,1.2-0.9,2c0,0.8,0.3,1.5,1,2.1c0.7,0.6,1.5,0.9,2.6,0.9c0.9,0,1.7-0.3,2.3-0.9s0.9-1.3,0.9-2.1c0-0.8-0.3-1.5-0.9-2.1
				C756,512.7,755.1,512.4,754.1,512.4z"/>
		</g>
		<g>
			<path class="st12" d="M310.4,558.4v-14.9h6.6c1.3,0,2.3,0.1,3,0.4c0.7,0.3,1.2,0.7,1.7,1.4c0.4,0.7,0.6,1.4,0.6,2.2
				c0,1.1-0.3,1.9-1,2.7c-0.7,0.7-1.7,1.2-3.2,1.4c0.5,0.3,0.9,0.5,1.2,0.7c0.6,0.5,1.1,1.2,1.6,2l2.6,4.1h-2.5l-2-3.1
				c-0.6-0.9-1-1.6-1.4-2.1c-0.4-0.5-0.7-0.8-1-1c-0.3-0.2-0.6-0.3-0.9-0.4c-0.2,0-0.6-0.1-1.1-0.1h-2.3v6.6H310.4z M312.4,550.1
				h4.2c0.9,0,1.6-0.1,2.1-0.3c0.5-0.2,0.9-0.5,1.2-0.9c0.3-0.4,0.4-0.9,0.4-1.3c0-0.7-0.3-1.3-0.8-1.7c-0.5-0.5-1.3-0.7-2.4-0.7
				h-4.7V550.1z"/>
			<path class="st12" d="M334.3,556.7v1.8h-9.8c0-0.4,0.1-0.9,0.2-1.3c0.2-0.7,0.7-1.3,1.2-2c0.6-0.7,1.3-1.4,2.4-2.3
				c1.6-1.3,2.7-2.4,3.3-3.2c0.6-0.8,0.9-1.5,0.9-2.2c0-0.7-0.3-1.3-0.8-1.8c-0.5-0.5-1.2-0.7-2-0.7c-0.9,0-1.6,0.3-2.1,0.8
				s-0.8,1.3-0.8,2.2l-1.9-0.2c0.1-1.4,0.6-2.5,1.5-3.2c0.8-0.7,2-1.1,3.4-1.1c1.4,0,2.6,0.4,3.4,1.2c0.8,0.8,1.2,1.8,1.2,2.9
				c0,0.6-0.1,1.2-0.4,1.8c-0.2,0.6-0.6,1.2-1.2,1.8s-1.5,1.5-2.8,2.6c-1.1,0.9-1.8,1.5-2.1,1.9c-0.3,0.3-0.6,0.7-0.8,1H334.3z"/>
		</g>
		<g>
			<path class="st12" d="M336.3,551.1c0-1.8,0.2-3.2,0.5-4.3c0.4-1.1,0.9-1.9,1.6-2.5c0.7-0.6,1.6-0.9,2.7-0.9
				c0.8,0,1.5,0.2,2.1,0.5c0.6,0.3,1.1,0.8,1.5,1.4c0.4,0.6,0.7,1.3,0.9,2.2c0.2,0.9,0.3,2,0.3,3.5c0,1.7-0.2,3.2-0.5,4.2
				c-0.4,1.1-0.9,1.9-1.6,2.5c-0.7,0.6-1.6,0.9-2.7,0.9c-1.4,0-2.6-0.5-3.4-1.5C336.8,555.9,336.3,553.9,336.3,551.1z M338.1,551.1
				c0,2.4,0.3,4.1,0.9,4.9s1.3,1.2,2.1,1.2s1.5-0.4,2.1-1.2c0.6-0.8,0.9-2.4,0.9-4.9c0-2.5-0.3-4.1-0.9-4.9
				c-0.6-0.8-1.3-1.2-2.1-1.2c-0.8,0-1.5,0.4-2,1.1C338.5,547,338.1,548.6,338.1,551.1z"/>
		</g>
		<g>
			<path class="st12" d="M233.3,679.1v-14.9h6.6c1.3,0,2.3,0.1,3,0.4c0.7,0.3,1.2,0.7,1.7,1.4c0.4,0.7,0.6,1.4,0.6,2.2
				c0,1.1-0.3,1.9-1,2.7c-0.7,0.7-1.7,1.2-3.2,1.4c0.5,0.3,0.9,0.5,1.2,0.7c0.6,0.5,1.1,1.2,1.6,2l2.6,4.1h-2.5l-2-3.1
				c-0.6-0.9-1-1.6-1.4-2.1c-0.4-0.5-0.7-0.8-1-1c-0.3-0.2-0.6-0.3-0.9-0.4c-0.2,0-0.6-0.1-1.1-0.1h-2.3v6.6H233.3z M235.3,670.8
				h4.2c0.9,0,1.6-0.1,2.1-0.3c0.5-0.2,0.9-0.5,1.2-0.9c0.3-0.4,0.4-0.9,0.4-1.3c0-0.7-0.3-1.3-0.8-1.7c-0.5-0.5-1.3-0.7-2.4-0.7
				h-4.7V670.8z"/>
			<path class="st12" d="M257,667.9l-1.8,0.1c-0.2-0.7-0.4-1.2-0.7-1.6c-0.5-0.5-1.1-0.8-1.8-0.8c-0.6,0-1.1,0.2-1.5,0.5
				c-0.6,0.4-1,1-1.4,1.8c-0.3,0.8-0.5,2-0.5,3.4c0.4-0.7,1-1.2,1.6-1.5s1.3-0.5,2-0.5c1.2,0,2.3,0.4,3.1,1.3
				c0.9,0.9,1.3,2.1,1.3,3.5c0,0.9-0.2,1.8-0.6,2.6c-0.4,0.8-1,1.4-1.7,1.8c-0.7,0.4-1.5,0.6-2.4,0.6c-1.5,0-2.8-0.6-3.7-1.7
				c-1-1.1-1.4-3-1.4-5.5c0-2.9,0.5-5,1.6-6.3c0.9-1.1,2.2-1.7,3.7-1.7c1.2,0,2.1,0.3,2.9,1C256.4,665.8,256.9,666.7,257,667.9z
				 M249.6,674.3c0,0.6,0.1,1.2,0.4,1.8s0.6,1,1.1,1.3c0.5,0.3,1,0.5,1.5,0.5c0.8,0,1.4-0.3,2-0.9s0.8-1.5,0.8-2.5
				c0-1-0.3-1.8-0.8-2.4c-0.5-0.6-1.2-0.9-2.1-0.9c-0.8,0-1.5,0.3-2.1,0.9C249.8,672.6,249.6,673.3,249.6,674.3z"/>
		</g>
		<g>
			<path class="st12" d="M233.3,705.4v-14.9h6.6c1.3,0,2.3,0.1,3,0.4c0.7,0.3,1.2,0.7,1.7,1.4c0.4,0.7,0.6,1.4,0.6,2.2
				c0,1.1-0.3,1.9-1,2.7c-0.7,0.7-1.7,1.2-3.2,1.4c0.5,0.3,0.9,0.5,1.2,0.7c0.6,0.5,1.1,1.2,1.6,2l2.6,4.1h-2.5l-2-3.1
				c-0.6-0.9-1-1.6-1.4-2.1c-0.4-0.5-0.7-0.8-1-1c-0.3-0.2-0.6-0.3-0.9-0.4c-0.2,0-0.6-0.1-1.1-0.1h-2.3v6.6H233.3z M235.3,697.1
				h4.2c0.9,0,1.6-0.1,2.1-0.3c0.5-0.2,0.9-0.5,1.2-0.9c0.3-0.4,0.4-0.9,0.4-1.3c0-0.7-0.3-1.3-0.8-1.7c-0.5-0.5-1.3-0.7-2.4-0.7
				h-4.7V697.1z"/>
			<path class="st12" d="M257.2,703.7v1.8h-9.8c0-0.4,0.1-0.9,0.2-1.3c0.2-0.7,0.7-1.3,1.2-2c0.6-0.7,1.3-1.4,2.4-2.3
				c1.6-1.3,2.7-2.4,3.3-3.2c0.6-0.8,0.9-1.5,0.9-2.2c0-0.7-0.3-1.3-0.8-1.8c-0.5-0.5-1.2-0.7-2-0.7c-0.9,0-1.6,0.3-2.1,0.8
				s-0.8,1.3-0.8,2.2l-1.9-0.2c0.1-1.4,0.6-2.5,1.5-3.2c0.8-0.7,2-1.1,3.4-1.1c1.4,0,2.6,0.4,3.4,1.2c0.8,0.8,1.2,1.8,1.2,2.9
				c0,0.6-0.1,1.2-0.4,1.8c-0.2,0.6-0.6,1.2-1.2,1.8s-1.5,1.5-2.8,2.6c-1.1,0.9-1.8,1.5-2.1,1.9c-0.3,0.3-0.6,0.7-0.8,1H257.2z"/>
		</g>
		<line class="st46" x1="191.5" y1="774.1" x2="808.3" y2="774.1"/>
		<polygon class="st47" points="195.2,779.3 174.9,773.9 195.2,768.4 		"/>
		<polygon class="st47" points="804.6,779.3 824.9,773.9 804.6,768.4 		"/>
		<line class="st46" x1="284.5" y1="27.6" x2="716.5" y2="27.6"/>
		<polygon class="st47" points="288.3,32.8 268,27.4 288.3,21.9 		"/>
		<polygon class="st47" points="712.8,32.8 733.1,27.4 712.8,21.9 		"/>
		<g>
			<path class="st12" d="M457.3,767.5h-1.8v-11.7c-0.4,0.4-1,0.8-1.7,1.3s-1.4,0.7-1.9,0.9v-1.8c1-0.5,1.9-1.1,2.7-1.7
				s1.3-1.3,1.6-2h1.2V767.5z"/>
			<path class="st12" d="M467.9,767.5V764h-6.5v-1.7l6.8-9.7h1.5v9.7h2v1.7h-2v3.6H467.9z M467.9,762.3v-6.7l-4.7,6.7H467.9z"/>
			<path class="st12" d="M473.6,760.2c0-1.8,0.2-3.2,0.5-4.3c0.4-1.1,0.9-1.9,1.6-2.5c0.7-0.6,1.6-0.9,2.7-0.9
				c0.8,0,1.5,0.2,2.1,0.5c0.6,0.3,1.1,0.8,1.5,1.4c0.4,0.6,0.7,1.3,0.9,2.2c0.2,0.9,0.3,2,0.3,3.5c0,1.7-0.2,3.2-0.5,4.2
				c-0.4,1.1-0.9,1.9-1.6,2.5c-0.7,0.6-1.6,0.9-2.7,0.9c-1.4,0-2.6-0.5-3.4-1.5C474.1,765,473.6,763,473.6,760.2z M475.5,760.2
				c0,2.4,0.3,4.1,0.9,4.9s1.3,1.2,2.1,1.2s1.5-0.4,2.1-1.2c0.6-0.8,0.9-2.4,0.9-4.9c0-2.5-0.3-4.1-0.9-4.9
				c-0.6-0.8-1.3-1.2-2.1-1.2c-0.8,0-1.5,0.4-2,1.1C475.8,756.1,475.5,757.7,475.5,760.2z"/>
			<path class="st12" d="M494.9,771.9c-1-1.3-1.9-2.8-2.6-4.5c-0.7-1.7-1-3.5-1-5.3c0-1.6,0.3-3.2,0.8-4.6c0.6-1.7,1.6-3.4,2.8-5.1
				h1.3c-0.8,1.4-1.4,2.4-1.6,3c-0.4,0.9-0.7,1.9-1,2.9c-0.3,1.3-0.4,2.5-0.4,3.8c0,3.3,1,6.5,3,9.8H494.9z"/>
			<path class="st12" d="M497.9,763.6l1.9-0.2c0.1,0.9,0.5,1.6,1,2.1c0.5,0.5,1.1,0.7,1.9,0.7c0.9,0,1.6-0.3,2.2-1
				c0.6-0.7,0.9-1.5,0.9-2.6c0-1-0.3-1.9-0.9-2.5c-0.6-0.6-1.4-0.9-2.3-0.9c-0.6,0-1.1,0.1-1.6,0.4c-0.5,0.3-0.8,0.6-1.1,1l-1.7-0.2
				l1.4-7.7h7.4v1.7h-5.9l-0.8,4c0.9-0.6,1.8-0.9,2.8-0.9c1.3,0,2.4,0.5,3.3,1.4c0.9,0.9,1.3,2.1,1.3,3.5c0,1.3-0.4,2.5-1.2,3.5
				c-1,1.2-2.3,1.8-3.9,1.8c-1.4,0-2.5-0.4-3.3-1.1C498.5,765.9,498,764.9,497.9,763.6z"/>
			<path class="st12" d="M510.5,767.5v-2.1h2.1v2.1H510.5z"/>
			<path class="st12" d="M515.2,763.6l1.9-0.2c0.1,0.9,0.5,1.6,1,2.1c0.5,0.5,1.1,0.7,1.9,0.7c0.9,0,1.6-0.3,2.2-1
				c0.6-0.7,0.9-1.5,0.9-2.6c0-1-0.3-1.9-0.9-2.5c-0.6-0.6-1.4-0.9-2.3-0.9c-0.6,0-1.1,0.1-1.6,0.4c-0.5,0.3-0.8,0.6-1.1,1l-1.7-0.2
				l1.4-7.7h7.4v1.7h-5.9l-0.8,4c0.9-0.6,1.8-0.9,2.8-0.9c1.3,0,2.4,0.5,3.3,1.4c0.9,0.9,1.3,2.1,1.3,3.5c0,1.3-0.4,2.5-1.2,3.5
				c-1,1.2-2.3,1.8-3.9,1.8c-1.4,0-2.5-0.4-3.3-1.1C515.8,765.9,515.3,764.9,515.2,763.6z"/>
			<path class="st12" d="M533.7,767.5h-1.8v-11.7c-0.4,0.4-1,0.8-1.7,1.3s-1.4,0.7-1.9,0.9v-1.8c1-0.5,1.9-1.1,2.7-1.7
				s1.3-1.3,1.6-2h1.2V767.5z"/>
			<path class="st12" d="M548,765.8v1.8h-9.8c0-0.4,0.1-0.9,0.2-1.3c0.2-0.7,0.7-1.3,1.2-2c0.6-0.7,1.3-1.4,2.4-2.3
				c1.6-1.3,2.7-2.4,3.3-3.2c0.6-0.8,0.9-1.5,0.9-2.2c0-0.7-0.3-1.3-0.8-1.8c-0.5-0.5-1.2-0.7-2-0.7c-0.9,0-1.6,0.3-2.1,0.8
				s-0.8,1.3-0.8,2.2l-1.9-0.2c0.1-1.4,0.6-2.5,1.5-3.2c0.8-0.7,2-1.1,3.4-1.1c1.4,0,2.6,0.4,3.4,1.2c0.8,0.8,1.2,1.8,1.2,2.9
				c0,0.6-0.1,1.2-0.4,1.8c-0.2,0.6-0.6,1.2-1.2,1.8s-1.5,1.5-2.8,2.6c-1.1,0.9-1.8,1.5-2.1,1.9c-0.3,0.3-0.6,0.7-0.8,1H548z"/>
			<path class="st12" d="M550.5,757.9l-0.5-2.8v-2.4h2.1v2.4l-0.5,2.8H550.5z M553.9,757.9l-0.5-2.8v-2.4h2.1v2.4l-0.5,2.8H553.9z"
				/>
		</g>
		<g>
			<path class="st12" d="M559.1,771.9h-1.3c2-3.3,3-6.5,3-9.8c0-1.3-0.1-2.5-0.4-3.8c-0.2-1-0.6-2-1-2.9c-0.3-0.6-0.8-1.6-1.6-3h1.3
				c1.3,1.7,2.2,3.4,2.8,5.1c0.5,1.5,0.8,3,0.8,4.6c0,1.8-0.4,3.6-1.1,5.3S560.1,770.6,559.1,771.9z"/>
		</g>
		<line class="st46" x1="939.3" y1="698" x2="939.3" y2="100.2"/>
		<polygon class="st47" points="944.5,694.3 939,714.6 933.6,694.3 		"/>
		<polygon class="st47" points="944.5,103.9 939,83.6 933.6,103.9 		"/>
		<g>
			<path class="st12" d="M932.7,455.8v1.8h-11.7c0.4,0.4,0.8,1,1.3,1.7s0.7,1.4,0.9,1.9h-1.8c-0.5-1-1.1-1.9-1.7-2.7s-1.3-1.3-2-1.6
				v-1.2H932.7z"/>
			<path class="st12" d="M928.8,451.1l-0.2-1.8c1-0.2,1.8-0.6,2.2-1.1s0.7-1.1,0.7-1.8c0-0.9-0.3-1.6-0.9-2.2
				c-0.6-0.6-1.3-0.9-2.2-0.9c-0.8,0-1.5,0.3-2.1,0.8s-0.8,1.2-0.8,2.1c0,0.3,0.1,0.8,0.2,1.3l-1.6-0.2c0-0.1,0-0.2,0-0.3
				c0-0.8-0.2-1.5-0.6-2.1s-1-0.9-1.9-0.9c-0.7,0-1.2,0.2-1.7,0.7s-0.7,1-0.7,1.8c0,0.7,0.2,1.3,0.7,1.8c0.4,0.5,1.1,0.8,2,0.9
				l-0.3,1.8c-1.2-0.2-2.2-0.7-2.8-1.5c-0.7-0.8-1-1.8-1-3c0-0.8,0.2-1.6,0.5-2.2c0.3-0.7,0.8-1.2,1.4-1.6c0.6-0.4,1.2-0.5,1.9-0.5
				c0.6,0,1.2,0.2,1.8,0.5c0.5,0.3,0.9,0.9,1.3,1.5c0.2-0.9,0.6-1.6,1.3-2.1c0.6-0.5,1.4-0.7,2.4-0.7c1.3,0,2.4,0.5,3.3,1.4
				s1.4,2.1,1.4,3.6c0,1.3-0.4,2.4-1.2,3.3C931,450.5,930,451,928.8,451.1z"/>
			<path class="st12" d="M928.8,439.5l-0.2-1.9c0.9-0.1,1.6-0.5,2.1-1c0.5-0.5,0.7-1.1,0.7-1.9c0-0.9-0.3-1.6-1-2.2
				c-0.7-0.6-1.5-0.9-2.6-0.9c-1,0-1.9,0.3-2.5,0.9c-0.6,0.6-0.9,1.4-0.9,2.3c0,0.6,0.1,1.1,0.4,1.6c0.3,0.5,0.6,0.8,1,1.1l-0.2,1.7
				l-7.7-1.4v-7.4h1.7v5.9l4,0.8c-0.6-0.9-0.9-1.8-0.9-2.8c0-1.3,0.5-2.4,1.4-3.3c0.9-0.9,2.1-1.3,3.5-1.3c1.3,0,2.5,0.4,3.5,1.2
				c1.2,1,1.8,2.3,1.8,3.9c0,1.4-0.4,2.5-1.1,3.3C931.1,438.9,930.1,439.4,928.8,439.5z"/>
			<path class="st12" d="M937.1,418.2c-1.3,1-2.8,1.9-4.5,2.6c-1.7,0.7-3.5,1-5.3,1c-1.6,0-3.2-0.3-4.6-0.8
				c-1.7-0.6-3.4-1.6-5.1-2.8v-1.3c1.4,0.8,2.4,1.4,3,1.6c0.9,0.4,1.9,0.7,2.9,1c1.3,0.3,2.5,0.4,3.8,0.4c3.3,0,6.5-1,9.8-3V418.2z"
				/>
			<path class="st12" d="M928.8,415.2l-0.2-1.9c0.9-0.1,1.6-0.5,2.1-1c0.5-0.5,0.7-1.1,0.7-1.9c0-0.9-0.3-1.6-1-2.2
				c-0.7-0.6-1.5-0.9-2.6-0.9c-1,0-1.9,0.3-2.5,0.9c-0.6,0.6-0.9,1.4-0.9,2.3c0,0.6,0.1,1.1,0.4,1.6c0.3,0.5,0.6,0.8,1,1.1l-0.2,1.7
				l-7.7-1.4v-7.4h1.7v5.9l4,0.8c-0.6-0.9-0.9-1.8-0.9-2.8c0-1.3,0.5-2.4,1.4-3.3c0.9-0.9,2.1-1.3,3.5-1.3c1.3,0,2.5,0.4,3.5,1.2
				c1.2,1,1.8,2.3,1.8,3.9c0,1.4-0.4,2.5-1.1,3.3C931.1,414.6,930.1,415.1,928.8,415.2z"/>
			<path class="st12" d="M932.7,402.6h-2.1v-2.1h2.1V402.6z"/>
			<path class="st12" d="M928.8,397.9l-0.2-1.8c1-0.2,1.8-0.6,2.2-1.1c0.5-0.5,0.7-1.1,0.7-1.8c0-0.9-0.3-1.6-0.9-2.2
				c-0.6-0.6-1.3-0.9-2.2-0.9c-0.8,0-1.5,0.3-2.1,0.8s-0.8,1.2-0.8,2.1c0,0.3,0.1,0.8,0.2,1.3l-1.6-0.2c0-0.1,0-0.2,0-0.3
				c0-0.8-0.2-1.5-0.6-2.1c-0.4-0.6-1-0.9-1.9-0.9c-0.7,0-1.2,0.2-1.7,0.7c-0.4,0.5-0.7,1-0.7,1.8c0,0.7,0.2,1.3,0.7,1.8
				s1.1,0.8,2,0.9l-0.3,1.8c-1.2-0.2-2.2-0.7-2.8-1.5c-0.7-0.8-1-1.8-1-3c0-0.8,0.2-1.6,0.5-2.2c0.3-0.7,0.8-1.2,1.4-1.6
				c0.6-0.4,1.2-0.5,1.9-0.5c0.6,0,1.2,0.2,1.8,0.5c0.5,0.3,0.9,0.9,1.3,1.5c0.2-0.9,0.6-1.6,1.3-2.1c0.6-0.5,1.4-0.7,2.4-0.7
				c1.3,0,2.4,0.5,3.3,1.4c0.9,0.9,1.4,2.1,1.4,3.6c0,1.3-0.4,2.4-1.2,3.3S930,397.8,928.8,397.9z"/>
			<path class="st12" d="M932.7,379.4v1.8h-11.7c0.4,0.4,0.8,1,1.3,1.7c0.4,0.7,0.7,1.4,0.9,1.9h-1.8c-0.5-1-1.1-1.9-1.7-2.7
				c-0.7-0.8-1.3-1.3-2-1.6v-1.2H932.7z"/>
			<path class="st12" d="M928.8,374.7l-0.2-1.9c0.9-0.1,1.6-0.5,2.1-1c0.5-0.5,0.7-1.1,0.7-1.9c0-0.9-0.3-1.6-1-2.2
				c-0.7-0.6-1.5-0.9-2.6-0.9c-1,0-1.9,0.3-2.5,0.9c-0.6,0.6-0.9,1.4-0.9,2.3c0,0.6,0.1,1.1,0.4,1.6s0.6,0.8,1,1.1l-0.2,1.7L918,373
				v-7.4h1.7v5.9l4,0.8c-0.6-0.9-0.9-1.8-0.9-2.8c0-1.3,0.5-2.4,1.4-3.3c0.9-0.9,2.1-1.3,3.5-1.3c1.3,0,2.5,0.4,3.5,1.2
				c1.2,1,1.8,2.3,1.8,3.9c0,1.4-0.4,2.5-1.1,3.3C931.1,374.1,930.1,374.6,928.8,374.7z"/>
			<path class="st12" d="M923.1,359.2l-2.8,0.5h-2.4v-2.1h2.4l2.8,0.5V359.2z M923.1,362.6l-2.8,0.5h-2.4V361h2.4l2.8,0.5V362.6z"/>
		</g>
		<g>
			<path class="st12" d="M937.1,354v1.3c-3.3-2-6.5-3-9.8-3c-1.3,0-2.5,0.1-3.8,0.4c-1,0.2-2,0.6-2.9,1c-0.6,0.3-1.6,0.8-3,1.6V354
				c1.7-1.3,3.4-2.2,5.1-2.8c1.5-0.5,3-0.8,4.6-0.8c1.8,0,3.6,0.4,5.3,1.1S935.8,353,937.1,354z"/>
		</g>
		<g>
			<path class="st12" d="M320,320.1v-14.9h6.6c1.3,0,2.3,0.1,3,0.4c0.7,0.3,1.2,0.7,1.7,1.4s0.6,1.4,0.6,2.2c0,1.1-0.3,1.9-1,2.7
				c-0.7,0.7-1.7,1.2-3.2,1.4c0.5,0.3,0.9,0.5,1.2,0.7c0.6,0.5,1.1,1.2,1.6,2l2.6,4.1h-2.5l-2-3.1c-0.6-0.9-1-1.6-1.4-2.1
				c-0.4-0.5-0.7-0.8-1-1c-0.3-0.2-0.6-0.3-0.9-0.4c-0.2,0-0.6-0.1-1.1-0.1H322v6.6H320z M322,311.7h4.2c0.9,0,1.6-0.1,2.1-0.3
				c0.5-0.2,0.9-0.5,1.2-0.9c0.3-0.4,0.4-0.9,0.4-1.3c0-0.7-0.3-1.3-0.8-1.7c-0.5-0.5-1.3-0.7-2.4-0.7H322V311.7z"/>
			<path class="st12" d="M343.8,318.3v1.8H334c0-0.4,0.1-0.9,0.2-1.3c0.2-0.7,0.7-1.3,1.2-2c0.6-0.7,1.3-1.4,2.4-2.3
				c1.6-1.3,2.7-2.4,3.3-3.2c0.6-0.8,0.9-1.5,0.9-2.2c0-0.7-0.3-1.3-0.8-1.8c-0.5-0.5-1.2-0.7-2-0.7c-0.9,0-1.6,0.3-2.1,0.8
				s-0.8,1.3-0.8,2.2l-1.9-0.2c0.1-1.4,0.6-2.5,1.5-3.2c0.8-0.7,2-1.1,3.4-1.1c1.4,0,2.6,0.4,3.4,1.2c0.8,0.8,1.2,1.8,1.2,2.9
				c0,0.6-0.1,1.2-0.4,1.8c-0.2,0.6-0.6,1.2-1.2,1.8c-0.6,0.6-1.5,1.5-2.8,2.6c-1.1,0.9-1.8,1.5-2.1,1.9c-0.3,0.3-0.6,0.7-0.8,1
				H343.8z"/>
		</g>
		<g>
			<path class="st12" d="M345.8,312.7c0-1.8,0.2-3.2,0.5-4.3s0.9-1.9,1.6-2.5s1.6-0.9,2.7-0.9c0.8,0,1.5,0.2,2.1,0.5
				c0.6,0.3,1.1,0.8,1.5,1.4c0.4,0.6,0.7,1.3,0.9,2.2c0.2,0.9,0.3,2,0.3,3.5c0,1.7-0.2,3.2-0.5,4.2c-0.4,1.1-0.9,1.9-1.6,2.5
				c-0.7,0.6-1.6,0.9-2.7,0.9c-1.4,0-2.6-0.5-3.4-1.5C346.3,317.5,345.8,315.5,345.8,312.7z M347.7,312.7c0,2.4,0.3,4.1,0.9,4.9
				s1.3,1.2,2.1,1.2s1.5-0.4,2.1-1.2c0.6-0.8,0.9-2.4,0.9-4.9c0-2.5-0.3-4.1-0.9-4.9c-0.6-0.8-1.3-1.2-2.1-1.2c-0.8,0-1.5,0.4-2,1.1
				C348,308.6,347.7,310.3,347.7,312.7z"/>
		</g>
		<g>
			<path class="st12" d="M302,375.7v-14.9h6.6c1.3,0,2.3,0.1,3,0.4c0.7,0.3,1.2,0.7,1.7,1.4s0.6,1.4,0.6,2.2c0,1.1-0.3,1.9-1,2.7
				c-0.7,0.7-1.7,1.2-3.2,1.4c0.5,0.3,0.9,0.5,1.2,0.7c0.6,0.5,1.1,1.2,1.6,2l2.6,4.1h-2.5l-2-3.1c-0.6-0.9-1-1.6-1.4-2.1
				c-0.4-0.5-0.7-0.8-1-1c-0.3-0.2-0.6-0.3-0.9-0.4c-0.2,0-0.6-0.1-1.1-0.1H304v6.6H302z M304,367.4h4.2c0.9,0,1.6-0.1,2.1-0.3
				c0.5-0.2,0.9-0.5,1.2-0.9c0.3-0.4,0.4-0.9,0.4-1.3c0-0.7-0.3-1.3-0.8-1.7c-0.5-0.5-1.3-0.7-2.4-0.7H304V367.4z"/>
			<path class="st12" d="M323.2,375.7h-1.8v-11.7c-0.4,0.4-1,0.8-1.7,1.3s-1.4,0.7-1.9,0.9v-1.8c1-0.5,1.9-1.1,2.7-1.7
				s1.3-1.3,1.6-2h1.2V375.7z"/>
			<path class="st12" d="M327.9,368.4c0-1.8,0.2-3.2,0.5-4.3s0.9-1.9,1.6-2.5s1.6-0.9,2.7-0.9c0.8,0,1.5,0.2,2.1,0.5
				c0.6,0.3,1.1,0.8,1.5,1.4c0.4,0.6,0.7,1.3,0.9,2.2c0.2,0.9,0.3,2,0.3,3.5c0,1.7-0.2,3.2-0.5,4.2c-0.4,1.1-0.9,1.9-1.6,2.5
				c-0.7,0.6-1.6,0.9-2.7,0.9c-1.4,0-2.6-0.5-3.4-1.5C328.4,373.2,327.9,371.2,327.9,368.4z M329.8,368.4c0,2.4,0.3,4.1,0.9,4.9
				s1.3,1.2,2.1,1.2s1.5-0.4,2.1-1.2c0.6-0.8,0.9-2.4,0.9-4.9c0-2.5-0.3-4.1-0.9-4.9c-0.6-0.8-1.3-1.2-2.1-1.2c-0.8,0-1.5,0.4-2,1.1
				C330.1,364.3,329.8,366,329.8,368.4z"/>
			<path class="st12" d="M339.4,368.4c0-1.8,0.2-3.2,0.5-4.3s0.9-1.9,1.6-2.5s1.6-0.9,2.7-0.9c0.8,0,1.5,0.2,2.1,0.5
				c0.6,0.3,1.1,0.8,1.5,1.4c0.4,0.6,0.7,1.3,0.9,2.2c0.2,0.9,0.3,2,0.3,3.5c0,1.7-0.2,3.2-0.5,4.2c-0.4,1.1-0.9,1.9-1.6,2.5
				c-0.7,0.6-1.6,0.9-2.7,0.9c-1.4,0-2.6-0.5-3.4-1.5C339.9,373.2,339.4,371.2,339.4,368.4z M341.3,368.4c0,2.4,0.3,4.1,0.9,4.9
				s1.3,1.2,2.1,1.2s1.5-0.4,2.1-1.2c0.6-0.8,0.9-2.4,0.9-4.9c0-2.5-0.3-4.1-0.9-4.9c-0.6-0.8-1.3-1.2-2.1-1.2c-0.8,0-1.5,0.4-2,1.1
				C341.6,364.3,341.3,366,341.3,368.4z"/>
		</g>
		<g>
			<path class="st12" d="M279,442.1v-14.9h6.6c1.3,0,2.3,0.1,3,0.4c0.7,0.3,1.2,0.7,1.7,1.4c0.4,0.7,0.6,1.4,0.6,2.2
				c0,1.1-0.3,1.9-1,2.7c-0.7,0.7-1.7,1.2-3.2,1.4c0.5,0.3,0.9,0.5,1.2,0.7c0.6,0.5,1.1,1.2,1.6,2l2.6,4.1h-2.5l-2-3.1
				c-0.6-0.9-1-1.6-1.4-2.1c-0.4-0.5-0.7-0.8-1-1c-0.3-0.2-0.6-0.3-0.9-0.4c-0.2,0-0.6-0.1-1.1-0.1H281v6.6H279z M281,433.8h4.2
				c0.9,0,1.6-0.1,2.1-0.3c0.5-0.2,0.9-0.5,1.2-0.9c0.3-0.4,0.4-0.9,0.4-1.3c0-0.7-0.3-1.3-0.8-1.7c-0.5-0.5-1.3-0.7-2.4-0.7H281
				V433.8z"/>
			<path class="st12" d="M293.4,429.1v-1.8h9.6v1.4c-0.9,1-1.9,2.4-2.8,4c-0.9,1.7-1.7,3.4-2.2,5.2c-0.4,1.2-0.6,2.6-0.7,4.1h-1.9
				c0-1.2,0.3-2.6,0.7-4.2c0.4-1.7,1.1-3.3,1.9-4.8s1.7-2.8,2.6-3.9H293.4z"/>
		</g>
		<g>
			<path class="st12" d="M304.9,434.7c0-1.8,0.2-3.2,0.5-4.3c0.4-1.1,0.9-1.9,1.6-2.5c0.7-0.6,1.6-0.9,2.7-0.9
				c0.8,0,1.5,0.2,2.1,0.5c0.6,0.3,1.1,0.8,1.5,1.4c0.4,0.6,0.7,1.3,0.9,2.2c0.2,0.9,0.3,2,0.3,3.5c0,1.7-0.2,3.2-0.5,4.2
				c-0.4,1.1-0.9,1.9-1.6,2.5c-0.7,0.6-1.6,0.9-2.7,0.9c-1.4,0-2.6-0.5-3.4-1.5C305.4,439.5,304.9,437.5,304.9,434.7z M306.8,434.7
				c0,2.4,0.3,4.1,0.9,4.9s1.3,1.2,2.1,1.2s1.5-0.4,2.1-1.2c0.6-0.8,0.9-2.4,0.9-4.9c0-2.5-0.3-4.1-0.9-4.9
				c-0.6-0.8-1.3-1.2-2.1-1.2c-0.8,0-1.5,0.4-2,1.1C307.1,430.6,306.8,432.3,306.8,434.7z"/>
		</g>
		<g>
			<path class="st12" d="M320,217.7v-14.9h6.6c1.3,0,2.3,0.1,3,0.4c0.7,0.3,1.2,0.7,1.7,1.4s0.6,1.4,0.6,2.2c0,1.1-0.3,1.9-1,2.7
				c-0.7,0.7-1.7,1.2-3.2,1.4c0.5,0.3,0.9,0.5,1.2,0.7c0.6,0.5,1.1,1.2,1.6,2l2.6,4.1h-2.5l-2-3.1c-0.6-0.9-1-1.6-1.4-2.1
				c-0.4-0.5-0.7-0.8-1-1c-0.3-0.2-0.6-0.3-0.9-0.4c-0.2,0-0.6-0.1-1.1-0.1h-2.3v6.6H320z M321.9,209.4h4.2c0.9,0,1.6-0.1,2.1-0.3
				c0.5-0.2,0.9-0.5,1.2-0.9c0.3-0.4,0.4-0.9,0.4-1.3c0-0.7-0.3-1.3-0.8-1.7c-0.5-0.5-1.3-0.7-2.4-0.7h-4.7V209.4z"/>
			<path class="st12" d="M341.1,217.7h-1.8V206c-0.4,0.4-1,0.8-1.7,1.3s-1.4,0.7-1.9,0.9v-1.8c1-0.5,1.9-1.1,2.7-1.7s1.3-1.3,1.6-2
				h1.2V217.7z"/>
		</g>
		<g>
			<path class="st12" d="M345.8,210.3c0-1.8,0.2-3.2,0.5-4.3s0.9-1.9,1.6-2.5s1.6-0.9,2.7-0.9c0.8,0,1.5,0.2,2.1,0.5
				c0.6,0.3,1.1,0.8,1.5,1.4c0.4,0.6,0.7,1.3,0.9,2.2c0.2,0.9,0.3,2,0.3,3.5c0,1.7-0.2,3.2-0.5,4.2c-0.4,1.1-0.9,1.9-1.6,2.5
				c-0.7,0.6-1.6,0.9-2.7,0.9c-1.4,0-2.6-0.5-3.4-1.5C346.3,215.1,345.8,213.1,345.8,210.3z M347.7,210.3c0,2.4,0.3,4.1,0.9,4.9
				s1.3,1.2,2.1,1.2s1.5-0.4,2.1-1.2c0.6-0.8,0.9-2.4,0.9-4.9c0-2.5-0.3-4.1-0.9-4.9c-0.6-0.8-1.3-1.2-2.1-1.2c-0.8,0-1.5,0.4-2,1.1
				C348,206.2,347.7,207.9,347.7,210.3z"/>
		</g>
		<g>
			<path class="st12" d="M316.3,278.4l-1.8-0.4l2.9-11.3c-0.5,0.3-1.2,0.6-2,0.8c-0.8,0.2-1.5,0.4-2.1,0.4l0.4-1.7
				c1.1-0.2,2.1-0.6,3-1s1.6-1,2.1-1.5l1.1,0.3L316.3,278.4z"/>
		</g>
		<g>
			<path class="st12" d="M321.9,279.8l0.5-2l2,0.5l-0.5,2L321.9,279.8z M324,271.3l0.5-2l2,0.5l-0.5,2L324,271.3z"/>
			<path class="st12" d="M332.2,282.4l0.9-3.5l-6.3-1.6l0.4-1.6l9-7.7l1.4,0.4l-2.4,9.4l2,0.5l-0.4,1.6l-2-0.5l-0.9,3.5L332.2,282.4
				z M333.5,277.3l1.7-6.5l-6.2,5.4L333.5,277.3z"/>
		</g>
		<g>
			<path class="st12" d="M283.6,621.2l-1.8,0.5l-3.3-11.2c-0.3,0.5-0.7,1.1-1.3,1.7c-0.6,0.6-1.1,1.1-1.6,1.5l-0.5-1.7
				c0.8-0.8,1.5-1.6,2.1-2.4c0.5-0.9,0.9-1.7,1-2.4l1.1-0.3L283.6,621.2z"/>
			<path class="st12" d="M286.6,611.2l-0.6-2l2-0.6l0.6,2L286.6,611.2z M289.1,619.5l-0.6-2l2-0.6l0.6,2L289.1,619.5z"/>
		</g>
		<g>
			<path class="st12" d="M299.3,616.5l-1-3.4l-6.2,1.8l-0.5-1.6l3.8-11.2l1.4-0.4l2.7,9.3l1.9-0.6l0.5,1.6l-1.9,0.6l1,3.4
				L299.3,616.5z M297.8,611.5l-1.9-6.4l-2.6,7.8L297.8,611.5z"/>
		</g>
		<line class="st46" x1="315.2" y1="216.5" x2="289" y2="231"/>
		<polygon class="st47" points="289.6,225.9 277.5,237.6 293.8,233.5 		"/>
		<line class="st46" x1="320.8" y1="126.6" x2="291.3" y2="107.9"/>
		<polygon class="st47" points="296,106 279.9,100.9 291.3,113.3 		"/>
		<line class="st46" x1="361.2" y1="312.6" x2="389.2" y2="302.2"/>
		<polygon class="st47" points="387.9,307.2 401.6,297.5 384.9,299 		"/>
		<g>
			<path class="st12" d="M326.3,130.5v-14.9h6.6c1.3,0,2.3,0.1,3,0.4c0.7,0.3,1.2,0.7,1.7,1.4s0.6,1.4,0.6,2.2c0,1.1-0.3,1.9-1,2.7
				c-0.7,0.7-1.7,1.2-3.2,1.4c0.5,0.3,0.9,0.5,1.2,0.7c0.6,0.5,1.1,1.2,1.6,2l2.6,4.1h-2.5l-2-3.1c-0.6-0.9-1-1.6-1.4-2.1
				c-0.4-0.5-0.7-0.8-1-1c-0.3-0.2-0.6-0.3-0.9-0.4c-0.2,0-0.6-0.1-1.1-0.1h-2.3v6.6H326.3z M328.2,122.1h4.2c0.9,0,1.6-0.1,2.1-0.3
				c0.5-0.2,0.9-0.5,1.2-0.9c0.3-0.4,0.4-0.9,0.4-1.3c0-0.7-0.3-1.3-0.8-1.7c-0.5-0.5-1.3-0.7-2.4-0.7h-4.7V122.1z"/>
			<path class="st12" d="M343.3,122.4c-0.8-0.3-1.3-0.7-1.7-1.2c-0.4-0.5-0.5-1.1-0.5-1.8c0-1.1,0.4-2,1.2-2.7
				c0.8-0.7,1.8-1.1,3.1-1.1c1.3,0,2.3,0.4,3.1,1.1c0.8,0.8,1.2,1.7,1.2,2.8c0,0.7-0.2,1.3-0.5,1.8s-0.9,0.9-1.7,1.2
				c0.9,0.3,1.6,0.8,2.1,1.4s0.7,1.5,0.7,2.4c0,1.3-0.5,2.3-1.4,3.2c-0.9,0.9-2.1,1.3-3.6,1.3s-2.7-0.4-3.6-1.3
				c-0.9-0.9-1.4-2-1.4-3.3c0-1,0.2-1.8,0.7-2.4C341.7,123.1,342.4,122.6,343.3,122.4z M342.4,126.2c0,0.5,0.1,1,0.4,1.5
				c0.2,0.5,0.6,0.9,1.1,1.1s1,0.4,1.6,0.4c0.9,0,1.6-0.3,2.2-0.8c0.6-0.6,0.9-1.3,0.9-2.1c0-0.9-0.3-1.6-0.9-2.2s-1.3-0.9-2.2-0.9
				c-0.9,0-1.6,0.3-2.1,0.9S342.4,125.3,342.4,126.2z M343,119.3c0,0.7,0.2,1.3,0.7,1.7c0.5,0.4,1,0.7,1.8,0.7
				c0.7,0,1.3-0.2,1.7-0.7c0.5-0.4,0.7-1,0.7-1.6c0-0.7-0.2-1.2-0.7-1.7c-0.5-0.5-1-0.7-1.7-0.7c-0.7,0-1.3,0.2-1.7,0.7
				C343.2,118.1,343,118.7,343,119.3z"/>
		</g>
		<g>
			<path class="st12" d="M533.2,149.9h-14.9v-6.6c0-1.3,0.1-2.3,0.4-3s0.7-1.2,1.4-1.7c0.7-0.4,1.4-0.6,2.2-0.6c1.1,0,1.9,0.3,2.7,1
				c0.7,0.7,1.2,1.7,1.4,3.2c0.3-0.5,0.5-0.9,0.7-1.2c0.5-0.6,1.2-1.1,2-1.6l4.1-2.6v2.5l-3.1,2c-0.9,0.6-1.6,1.1-2.1,1.4
				c-0.5,0.4-0.8,0.7-1,1c-0.2,0.3-0.3,0.6-0.4,0.9c0,0.2-0.1,0.6-0.1,1.1v2.3h6.6V149.9z M524.9,147.9v-4.2c0-0.9-0.1-1.6-0.3-2.1
				c-0.2-0.5-0.5-0.9-0.9-1.2c-0.4-0.3-0.9-0.4-1.3-0.4c-0.7,0-1.3,0.3-1.7,0.8c-0.5,0.5-0.7,1.3-0.7,2.4v4.7H524.9z"/>
			<path class="st12" d="M533.2,128.7v1.8h-11.7c0.4,0.4,0.8,1,1.3,1.7c0.4,0.7,0.7,1.4,0.9,1.9H522c-0.5-1-1.1-1.9-1.7-2.7
				c-0.7-0.8-1.3-1.3-2-1.6v-1.2H533.2z"/>
			<path class="st12" d="M525.9,124c-1.8,0-3.2-0.2-4.3-0.5c-1.1-0.4-1.9-0.9-2.5-1.6c-0.6-0.7-0.9-1.6-0.9-2.7
				c0-0.8,0.2-1.5,0.5-2.1c0.3-0.6,0.8-1.1,1.4-1.5c0.6-0.4,1.3-0.7,2.2-0.9c0.9-0.2,2-0.3,3.5-0.3c1.7,0,3.2,0.2,4.2,0.5
				c1.1,0.4,1.9,0.9,2.5,1.6c0.6,0.7,0.9,1.6,0.9,2.7c0,1.4-0.5,2.6-1.5,3.4C530.7,123.5,528.7,124,525.9,124z M525.9,122.1
				c2.4,0,4.1-0.3,4.9-0.9c0.8-0.6,1.2-1.3,1.2-2.1s-0.4-1.5-1.2-2.1c-0.8-0.6-2.4-0.9-4.9-0.9c-2.5,0-4.1,0.3-4.9,0.9
				c-0.8,0.6-1.2,1.3-1.2,2.1c0,0.8,0.4,1.5,1.1,2C521.8,121.8,523.5,122.1,525.9,122.1z"/>
			<path class="st12" d="M525.9,112.4c-1.8,0-3.2-0.2-4.3-0.5c-1.1-0.4-1.9-0.9-2.5-1.6c-0.6-0.7-0.9-1.6-0.9-2.7
				c0-0.8,0.2-1.5,0.5-2.1c0.3-0.6,0.8-1.1,1.4-1.5c0.6-0.4,1.3-0.7,2.2-0.9c0.9-0.2,2-0.3,3.5-0.3c1.7,0,3.2,0.2,4.2,0.5
				c1.1,0.4,1.9,0.9,2.5,1.6c0.6,0.7,0.9,1.6,0.9,2.7c0,1.4-0.5,2.6-1.5,3.4C530.7,112,528.7,112.4,525.9,112.4z M525.9,110.6
				c2.4,0,4.1-0.3,4.9-0.9c0.8-0.6,1.2-1.3,1.2-2.1s-0.4-1.5-1.2-2.1c-0.8-0.6-2.4-0.9-4.9-0.9c-2.5,0-4.1,0.3-4.9,0.9
				c-0.8,0.6-1.2,1.3-1.2,2.1c0,0.8,0.4,1.5,1.1,2C521.8,110.3,523.5,110.6,525.9,110.6z"/>
			<path class="st12" d="M525.9,100.9c-1.8,0-3.2-0.2-4.3-0.5c-1.1-0.4-1.9-0.9-2.5-1.6c-0.6-0.7-0.9-1.6-0.9-2.7
				c0-0.8,0.2-1.5,0.5-2.1c0.3-0.6,0.8-1.1,1.4-1.5c0.6-0.4,1.3-0.7,2.2-0.9c0.9-0.2,2-0.3,3.5-0.3c1.7,0,3.2,0.2,4.2,0.5
				c1.1,0.4,1.9,0.9,2.5,1.6c0.6,0.7,0.9,1.6,0.9,2.7c0,1.4-0.5,2.6-1.5,3.4C530.7,100.4,528.7,100.9,525.9,100.9z M525.9,99
				c2.4,0,4.1-0.3,4.9-0.9c0.8-0.6,1.2-1.3,1.2-2.1s-0.4-1.5-1.2-2.1c-0.8-0.6-2.4-0.9-4.9-0.9c-2.5,0-4.1,0.3-4.9,0.9
				c-0.8,0.6-1.2,1.3-1.2,2.1c0,0.8,0.4,1.5,1.1,2C521.8,98.7,523.5,99,525.9,99z"/>
		</g>
		<line class="st46" x1="500" y1="64.9" x2="500" y2="69.6"/>
		<line class="st57" x1="500" y1="78.9" x2="500" y2="722.7"/>
		<line class="st46" x1="500" y1="727.3" x2="500" y2="732"/>
		<g>
			<path class="st47" d="M509.6,77.6v-5.4l-4.9-7.3h2l2.5,3.8c0.5,0.7,0.9,1.4,1.3,2.1c0.4-0.7,0.8-1.4,1.4-2.2l2.5-3.7h2l-5.1,7.3
				v5.4H509.6z"/>
			<path class="st47" d="M509.6,732v-5.4l-4.9-7.3h2l2.5,3.8c0.5,0.7,0.9,1.4,1.3,2.1c0.4-0.7,0.8-1.4,1.4-2.2l2.5-3.7h2l-5.1,7.3
				v5.4H509.6z"/>
		</g>
		<line class="st46" x1="772.8" y1="387.3" x2="772.8" y2="96.6"/>
		<polygon class="st47" points="777,384.4 772.6,400.6 768.3,384.4 		"/>
		<polygon class="st47" points="777,99.6 772.6,83.3 768.3,99.6 		"/>
		<line class="st46" x1="772.8" y1="700.8" x2="772.8" y2="413.9"/>
		<polygon class="st47" points="777,697.8 772.6,714.1 768.3,697.8 		"/>
		<polygon class="st47" points="777,416.8 772.6,400.6 768.3,416.8 		"/>
		<g>
			<path class="st12" d="M805,521.2l-0.2-1.8c1-0.2,1.8-0.6,2.2-1.1s0.7-1.1,0.7-1.8c0-0.9-0.3-1.6-0.9-2.2
				c-0.6-0.6-1.3-0.9-2.2-0.9c-0.8,0-1.5,0.3-2.1,0.8s-0.8,1.2-0.8,2.1c0,0.3,0.1,0.8,0.2,1.3l-1.6-0.2c0-0.1,0-0.2,0-0.3
				c0-0.8-0.2-1.5-0.6-2.1s-1-0.9-1.9-0.9c-0.7,0-1.2,0.2-1.7,0.7s-0.7,1-0.7,1.8c0,0.7,0.2,1.3,0.7,1.8c0.4,0.5,1.1,0.8,2,0.9
				l-0.3,1.8c-1.2-0.2-2.2-0.7-2.8-1.5c-0.7-0.8-1-1.8-1-3c0-0.8,0.2-1.6,0.5-2.2c0.3-0.7,0.8-1.2,1.4-1.6c0.6-0.4,1.2-0.5,1.9-0.5
				c0.6,0,1.2,0.2,1.8,0.5c0.5,0.3,0.9,0.9,1.3,1.5c0.2-0.9,0.6-1.6,1.3-2.1c0.6-0.5,1.4-0.7,2.4-0.7c1.3,0,2.4,0.5,3.3,1.4
				s1.4,2.1,1.4,3.6c0,1.3-0.4,2.4-1.2,3.3C807.3,520.5,806.3,521,805,521.2z"/>
			<path class="st12" d="M805,509.6l-0.2-1.8c1-0.2,1.8-0.6,2.2-1.1s0.7-1.1,0.7-1.8c0-0.9-0.3-1.6-0.9-2.2
				c-0.6-0.6-1.3-0.9-2.2-0.9c-0.8,0-1.5,0.3-2.1,0.8s-0.8,1.2-0.8,2.1c0,0.3,0.1,0.8,0.2,1.3l-1.6-0.2c0-0.1,0-0.2,0-0.3
				c0-0.8-0.2-1.5-0.6-2.1s-1-0.9-1.9-0.9c-0.7,0-1.2,0.2-1.7,0.7s-0.7,1-0.7,1.8c0,0.7,0.2,1.3,0.7,1.8c0.4,0.5,1.1,0.8,2,0.9
				l-0.3,1.8c-1.2-0.2-2.2-0.7-2.8-1.5c-0.7-0.8-1-1.8-1-3c0-0.8,0.2-1.6,0.5-2.2c0.3-0.7,0.8-1.2,1.4-1.6c0.6-0.4,1.2-0.5,1.9-0.5
				c0.6,0,1.2,0.2,1.8,0.5c0.5,0.3,0.9,0.9,1.3,1.5c0.2-0.9,0.6-1.6,1.3-2.1c0.6-0.5,1.4-0.7,2.4-0.7c1.3,0,2.4,0.5,3.3,1.4
				s1.4,2.1,1.4,3.6c0,1.3-0.4,2.4-1.2,3.3C807.3,509,806.3,509.5,805,509.6z"/>
		</g>
		<line class="st46" x1="815.3" y1="577.6" x2="815.3" y2="450.8"/>
		<polygon class="st47" points="819.5,574.6 815.1,590.9 810.8,574.6 		"/>
		<polygon class="st47" points="819.5,453.7 815.1,437.5 810.8,453.7 		"/>
		<line class="st46" x1="815.3" y1="400" x2="815.3" y2="299.8"/>
		<polygon class="st47" points="819.5,397 815.1,413.3 810.8,397 		"/>
		<polygon class="st47" points="819.5,302.8 815.1,286.6 810.8,302.8 		"/>
		<line class="st46" x1="348.3" y1="560.4" x2="371.8" y2="578.9"/>
		<polygon class="st47" points="366.8,580.4 382.3,587 372.2,573.5 		"/>
		<line class="st58" x1="827.3" y1="400.5" x2="219.1" y2="399.6"/>
		<g>
			<path class="st12" d="M835.6,408l5.8-7.8l-5.1-7.1h2.4l2.7,3.8c0.6,0.8,1,1.4,1.2,1.8c0.3-0.5,0.7-1.1,1.2-1.7l3-4h2.1l-5.2,7
				l5.6,7.9h-2.4l-3.8-5.3c-0.2-0.3-0.4-0.6-0.6-1c-0.3,0.5-0.6,0.9-0.7,1.1L838,408H835.6z"/>
			<path class="st12" d="M198.7,407.3l5.8-7.8l-5.1-7.1h2.4l2.7,3.8c0.6,0.8,1,1.4,1.2,1.8c0.3-0.5,0.7-1.1,1.2-1.7l3-4h2.1l-5.2,7
				l5.6,7.9h-2.4l-3.7-5.3c-0.2-0.3-0.4-0.6-0.6-1c-0.3,0.5-0.6,0.9-0.7,1.1l-3.7,5.2H198.7z"/>
		</g>
		<g>
			<path class="st12" d="M490,483.4l1.8-0.2c0.2,1,0.6,1.8,1.1,2.2s1.1,0.7,1.8,0.7c0.9,0,1.6-0.3,2.2-0.9c0.6-0.6,0.9-1.3,0.9-2.2
				c0-0.8-0.3-1.5-0.8-2.1s-1.2-0.8-2.1-0.8c-0.3,0-0.8,0.1-1.3,0.2l0.2-1.6c0.1,0,0.2,0,0.3,0c0.8,0,1.5-0.2,2.1-0.6s0.9-1,0.9-1.9
				c0-0.7-0.2-1.2-0.7-1.7s-1-0.7-1.8-0.7c-0.7,0-1.3,0.2-1.8,0.7c-0.5,0.4-0.8,1.1-0.9,2l-1.8-0.3c0.2-1.2,0.7-2.2,1.5-2.8
				c0.8-0.7,1.8-1,3-1c0.8,0,1.6,0.2,2.2,0.5c0.7,0.3,1.2,0.8,1.6,1.4c0.4,0.6,0.5,1.2,0.5,1.9c0,0.6-0.2,1.2-0.5,1.8
				c-0.3,0.5-0.9,0.9-1.5,1.3c0.9,0.2,1.6,0.6,2.1,1.3c0.5,0.6,0.7,1.4,0.7,2.4c0,1.3-0.5,2.4-1.4,3.3s-2.1,1.4-3.6,1.4
				c-1.3,0-2.4-0.4-3.3-1.2C490.6,485.6,490.1,484.6,490,483.4z"/>
			<path class="st12" d="M511.1,485.6v1.8h-9.8c0-0.4,0.1-0.9,0.2-1.3c0.2-0.7,0.7-1.3,1.2-2c0.6-0.7,1.3-1.4,2.4-2.3
				c1.6-1.3,2.7-2.4,3.3-3.2c0.6-0.8,0.9-1.5,0.9-2.2c0-0.7-0.3-1.3-0.8-1.8c-0.5-0.5-1.2-0.7-2-0.7c-0.9,0-1.6,0.3-2.1,0.8
				s-0.8,1.3-0.8,2.2l-1.9-0.2c0.1-1.4,0.6-2.5,1.5-3.2c0.8-0.7,2-1.1,3.4-1.1c1.4,0,2.6,0.4,3.4,1.2c0.8,0.8,1.2,1.8,1.2,2.9
				c0,0.6-0.1,1.2-0.4,1.8c-0.2,0.6-0.6,1.2-1.2,1.8s-1.5,1.5-2.8,2.6c-1.1,0.9-1.8,1.5-2.1,1.9c-0.3,0.3-0.6,0.7-0.8,1H511.1z"/>
		</g>
		<line class="st46" x1="136.7" y1="700.3" x2="136.7" y2="666.1"/>
		<polygon class="st47" points="140.9,697.4 136.6,713.6 132.2,697.4 		"/>
		<polygon class="st47" points="140.9,669.1 136.6,652.9 132.2,669.1 		"/>
		<line class="st46" x1="213.2" y1="231.8" x2="213.2" y2="96.9"/>
		<polygon class="st47" points="217.4,228.8 213,245.1 208.7,228.8 		"/>
		<polygon class="st47" points="217.4,99.8 213,83.6 208.7,99.8 		"/>
		<g>
			<path class="st47" d="M880.5,190h-3.5v6.3h-1.6l-9.4-6.6v-1.5h9.4v-2h1.6v2h3.5V190z M875.4,190h-6.5l6.5,4.5V190z"/>
			<path class="st47" d="M876.7,184.5l-0.2-1.8c1-0.2,1.7-0.6,2.2-1c0.4-0.5,0.7-1.1,0.7-1.8c0-0.8-0.3-1.5-0.9-2.1
				c-0.6-0.6-1.3-0.9-2.2-0.9c-0.8,0-1.5,0.3-2,0.8c-0.5,0.5-0.8,1.2-0.8,2c0,0.3,0.1,0.8,0.2,1.3l-1.6-0.2c0-0.1,0-0.2,0-0.3
				c0-0.8-0.2-1.4-0.6-2c-0.4-0.6-1-0.9-1.8-0.9c-0.7,0-1.2,0.2-1.6,0.7c-0.4,0.4-0.6,1-0.6,1.7c0,0.7,0.2,1.3,0.7,1.7
				c0.4,0.5,1.1,0.8,2,0.9l-0.3,1.8c-1.2-0.2-2.1-0.7-2.8-1.5c-0.7-0.8-1-1.7-1-2.9c0-0.8,0.2-1.5,0.5-2.2s0.8-1.2,1.4-1.5
				c0.6-0.4,1.2-0.5,1.9-0.5c0.6,0,1.2,0.2,1.7,0.5s0.9,0.8,1.2,1.5c0.2-0.9,0.6-1.5,1.2-2c0.6-0.5,1.4-0.7,2.3-0.7
				c1.3,0,2.3,0.5,3.2,1.4c0.9,0.9,1.3,2.1,1.3,3.5c0,1.3-0.4,2.3-1.1,3.2S877.9,184.3,876.7,184.5z"/>
		</g>
	</g>
</g>
<g id="Watermark">
	<g>
		<rect x="438.5" y="567.2" class="st0" width="123.1" height="46.3"/>
		<g>
			<rect x="444.9" y="575" class="st75" width="62.9" height="30.6"/>
			<rect x="507.7" y="575" class="st75" width="47.4" height="30.6"/>
			<g>
				<path class="st76" d="M466.5,581.1l-2.8,18.9H461l-1.6-11l-1.5,11h-2.7l-2.8-18.9h2.5l1.8,14.2l1.8-14.2h2l1.8,14.2l1.8-14.2
					H466.5z"/>
				<path class="st76" d="M467.9,600v-18.9h2.5V600H467.9z"/>
				<path class="st76" d="M472.8,581.1h5c1.9,0,2.9,1.1,2.9,3.2v4.7c0,1.7-0.5,2.7-1.5,3.1l1.8,7.9h-2.4l-1.7-7.6h-1.5v7.6h-2.5
					V581.1z M475.4,590.2h1.7c0.8,0,1.1-0.5,1.1-1.4v-4.1c0-0.9-0.4-1.4-1.1-1.4h-1.7V590.2z"/>
				<path class="st76" d="M486.8,583.4V600h-2.5v-16.6h-2.4v-2.3h7.4v2.3H486.8z"/>
				<path class="st76" d="M496.3,600v-8.6h-3.1v8.6h-2.5v-18.9h2.5v8h3.1v-8h2.5V600H496.3z"/>
			</g>
			<g>
				<path class="st76" d="M516.3,581.1h5c1.9,0,2.9,1.1,2.9,3.2v4.7c0,1.7-0.5,2.7-1.5,3.1l1.8,7.9H522l-1.7-7.6h-1.5v7.6h-2.5
					V581.1z M518.8,590.2h1.7c0.8,0,1.1-0.5,1.1-1.4v-4.1c0-0.9-0.4-1.4-1.1-1.4h-1.7V590.2z"/>
				<path class="st76" d="M528.7,600h-2.5v-15.7c0-2.2,1-3.2,3-3.2h1.9c2,0,3,1.1,3,3.2V600h-2.5v-6.9h-2.9V600z M531.6,590.8v-6.3
					c0-0.7-0.4-1.1-1.1-1.1h-0.7c-0.7,0-1.1,0.4-1.1,1.1v6.3H531.6z"/>
				<path class="st76" d="M536.3,600v-18.9h2.5V600H536.3z"/>
				<path class="st76" d="M547.2,600h-6v-18.9h2.5v16.6h3.5V600z"/>
			</g>
		</g>
	</g>
</g>
</svg>
