<?xml version="1.0" encoding="utf-8"?>
<!-- Generator: Adobe Illustrator 25.2.3, SVG Export Plug-In . SVG Version: 6.00 Build 0)  -->
<svg version="1.1" xmlns="http://www.w3.org/2000/svg" xmlns:xlink="http://www.w3.org/1999/xlink" x="0px" y="0px"
	 viewBox="0 0 1000 800" style="enable-background:new 0 0 1000 800;" xml:space="preserve">
<style type="text/css">
	.st0{fill:#F0F0F0;}
	.st1{fill:none;stroke:#221E1F;stroke-width:1.0614;}
	.st2{fill:#221E1F;}
	.st3{fill:none;stroke:#221E1F;stroke-width:1.0614;stroke-dasharray:12.8405,6.4722;}
	.st4{fill:none;stroke:#000000;stroke-width:1.404;}
	.st5{fill:none;stroke:#000000;stroke-width:0.975;}
	.st6{fill:none;stroke:#000000;stroke-width:0.975;stroke-dasharray:11.5538,5.7038;}
	.st7{fill:none;stroke:#000000;stroke-width:0.975;stroke-miterlimit:10;}
	.st8{fill:none;stroke:#221E1F;stroke-width:0.8906;}
	.st9{fill:none;stroke:#221E1F;stroke-width:0.8819;}
	.st10{clip-path:url(#SVGID_2_);fill:none;stroke:#221E1F;stroke-width:0.8819;}
	.st11{clip-path:url(#SVGID_4_);fill:none;stroke:#221E1F;stroke-width:0.8819;}
	.st12{fill:#303030;}
	.st13{fill:none;stroke:#303030;stroke-width:0.8906;stroke-miterlimit:10;}
	.st14{clip-path:url(#SVGID_6_);fill:none;stroke:#221E1F;stroke-width:0.8906;}
	.st15{fill:none;stroke:#221E1F;stroke-width:0.8906;stroke-dasharray:23.0235,6.997;}
	.st16{fill:none;stroke:#221E1F;stroke-width:0.8906;stroke-dasharray:19.498,3.4714;}
	.st17{fill:none;stroke:#221E1F;stroke-width:0.8906;stroke-dasharray:21.3897,6.2234;}
	.st18{clip-path:url(#SVGID_8_);fill:none;stroke:#221E1F;stroke-width:0.8025;}
	.st19{fill:none;stroke:#221E1F;stroke-width:0.7299;}
	.st20{clip-path:url(#SVGID_10_);fill:none;stroke:#221E1F;stroke-width:0.8025;}
	.st21{fill:none;stroke:#221E1F;stroke-width:0.7726;}
	.st22{fill:none;stroke:#221E1F;stroke-width:0.8025;}
	.st23{fill:none;stroke:#221E1F;stroke-width:0.8025;stroke-dasharray:21.5886,6.6505;}
	.st24{fill:none;stroke:#303030;stroke-width:0.8025;stroke-miterlimit:10;}
	.st25{fill:none;stroke:#221E1F;stroke-width:0.811;stroke-dasharray:21.8106,6.6911;}
	.st26{fill:none;stroke:#221E1F;stroke-width:0.811;stroke-dasharray:16.7651,1.6456;}
	.st27{fill:none;stroke:#221E1F;stroke-width:0.811;}
	.st28{clip-path:url(#SVGID_12_);fill:#221E1F;}
	.st29{fill:none;stroke:#221E1F;stroke-width:1.2695;}
	.st30{fill:none;stroke:#221E1F;stroke-width:0.8814;}
	.st31{fill:none;stroke:#221E1F;stroke-width:1.4133;}
	.st32{fill:none;stroke:#221E1F;stroke-width:0.9807;}
	.st33{fill:none;stroke:#221E1F;stroke-width:0.9807;stroke-dasharray:13.5825,6.7924;}
	.st34{fill:none;stroke:#221E1F;stroke-width:0.9807;stroke-dasharray:19.5641,12.5429;}
	.st35{fill:none;stroke:#221E1F;stroke-width:1.1332;}
	.st36{fill:none;stroke:#221E1F;stroke-width:1.7102;}
	.st37{fill:none;stroke:#221E1F;stroke-width:1.2031;stroke-linecap:round;stroke-linejoin:round;stroke-miterlimit:10;}
	.st38{fill:none;stroke:#221E1F;stroke-width:1.2031;}
	.st39{fill:none;stroke:#221E1F;stroke-width:1.2031;stroke-miterlimit:10;}
	
		.st40{fill:none;stroke:#221E1F;stroke-width:1.2031;stroke-linecap:round;stroke-linejoin:round;stroke-miterlimit:10;stroke-dasharray:9.1021,1.1746,1.1746,1.1746;stroke-dashoffset:10;}
	
		.st41{fill:none;stroke:#221E1F;stroke-width:1.2031;stroke-linecap:round;stroke-linejoin:round;stroke-miterlimit:10;stroke-dasharray:9.1228,1.1953,1.1953,1.1953;stroke-dashoffset:10;}
	.st42{fill:none;stroke:#221E1F;stroke-width:1.0246;}
	.st43{fill:none;stroke:#221E1F;stroke-width:1.0246;stroke-dasharray:5.7593,5.7593;}
	.st44{fill:none;stroke:#221E1F;stroke-width:1.0582;}
	.st45{fill:none;stroke:#221E1F;stroke-width:1.0246;stroke-dasharray:5.8059,5.8059;}
	.st46{fill:none;stroke:#241F21;stroke-width:0.8839;}
	.st47{fill:#241F21;}
	.st48{fill:none;stroke:#241F21;stroke-width:1.2533;}
	.st49{fill:none;stroke:#241F21;stroke-width:0.7133;stroke-linecap:round;stroke-linejoin:round;stroke-miterlimit:10;}
	.st50{fill:none;stroke:#241F21;stroke-width:0.8839;stroke-miterlimit:10;}
	
		.st51{clip-path:url(#SVGID_14_);fill:none;stroke:#241F21;stroke-width:0.8839;stroke-linecap:round;stroke-linejoin:round;stroke-miterlimit:10;}
	.st52{clip-path:url(#SVGID_14_);fill:none;stroke:#241F21;stroke-width:0.8839;stroke-miterlimit:10;}
	.st53{fill:none;stroke:#241F21;stroke-width:0.8839;stroke-linecap:round;stroke-linejoin:round;stroke-miterlimit:10;}
	.st54{fill:none;stroke:#241F21;stroke-width:0.7642;stroke-linecap:round;stroke-linejoin:round;stroke-miterlimit:10;}
	
		.st55{fill:none;stroke:#241F21;stroke-width:0.7133;stroke-linecap:round;stroke-linejoin:round;stroke-miterlimit:10;stroke-dasharray:9.9652,1.3195,1.3195,1.3195;stroke-dashoffset:11;}
	
		.st56{fill:none;stroke:#241F21;stroke-width:0.7133;stroke-linecap:round;stroke-linejoin:round;stroke-miterlimit:10;stroke-dasharray:9.7079,1.0622,1.0622,1.0622;stroke-dashoffset:10;}
	.st57{fill:none;stroke:#241F21;stroke-width:0.8839;stroke-dasharray:5.5991,5.5991;}
	.st58{fill:none;stroke:#241F21;stroke-width:0.7515;stroke-dasharray:5.6857,5.6857;}
	.st59{fill:none;stroke:#221E1F;stroke-width:1.0101;stroke-miterlimit:10;}
	.st60{fill:none;stroke:#221E1F;stroke-width:1.0012;}
	.st61{fill:none;stroke:#221E1F;stroke-width:0.9081;}
	.st62{fill:none;stroke:#221E1F;stroke-width:1.0385;}
	.st63{fill:none;stroke:#221E1F;stroke-width:0.9081;stroke-dasharray:20.8407,6.1278;}
	.st64{fill:none;stroke:#221E1F;stroke-width:1.406;}
	.st65{fill:none;stroke:#221E1F;stroke-width:0.9906;}
	.st66{fill:none;stroke:#221E1F;stroke-width:0.9887;}
	.st67{fill:none;stroke:#221E1F;stroke-width:0.8443;}
	.st68{fill:none;stroke:#221E1F;stroke-width:0.8443;stroke-dasharray:4.4655,4.4655;}
	.st69{fill:none;stroke:#221E1F;stroke-width:1.7608;}
	.st70{fill:none;stroke:#221E1F;stroke-width:1.0549;}
	.st71{clip-path:url(#SVGID_16_);fill:none;stroke:#221E1F;stroke-width:1.0549;}
	.st72{fill:none;stroke:#221E1F;stroke-width:1.0549;stroke-dasharray:5.538,5.538;}
	.st73{clip-path:url(#SVGID_18_);}
	.st74{clip-path:url(#SVGID_20_);}
	.st75{fill:#F0F0F0;stroke:#CCCCCC;stroke-miterlimit:10;}
	.st76{fill:#CCCCCC;}
</style>
<g id="Flat">
	<g>
		<g>
			<path class="st0" d="M483.8,113.7c0,0,176.1-1.1,197.7,0.5c34.1,2.6,35.1,25.9,34.7,44.4c-0.6,25.9,0,82.8-0.4,101.8
				c-0.3,16.2-20.5,51.2-18.9,116.2c1.5,59.4,23.7,120.4,39.5,132.8c4.1,3.2,9.5,6.7,20.9,8.5c30.9,5,86.3,10,91.4,12.5
				c7.4,3.6,15.1,12.6,15.2,19.2c0.1,7.3,0.9,62.2,0.6,68c-0.4,7.1-8.7,18.5-17.2,18.5c-10.3,0-363.4-1.5-363.4-1.5h-0.3
				c0,0-353,1.5-363.3,1.5c-8.5,0-16.8-11.4-17.2-18.5c-0.3-5.8,0.4-60.8,0.6-68c0.1-6.6,7.8-15.6,15.2-19.2
				c5.1-2.5,60.5-7.5,91.4-12.5c11.4-1.8,16.8-5.3,20.9-8.5c15.8-12.4,37.9-73.5,39.5-132.8c1.7-65-18.6-100-18.8-116.2
				c-0.3-19,0.2-75.9-0.4-101.8c-0.4-18.5,0.6-41.8,34.7-44.4c21.7-1.6,197.7-0.5,197.7-0.5H483.8z"/>
			<path class="st29" d="M483.8,113.7c0,0,176.1-1.1,197.7,0.5c34.1,2.6,35.1,25.9,34.7,44.4c-0.6,25.9,0,82.8-0.4,101.8
				c-0.3,16.2-20.5,51.2-18.9,116.2c1.5,59.4,23.7,120.4,39.5,132.8c4.1,3.2,9.5,6.7,20.9,8.5c30.9,5,86.3,10,91.4,12.5
				c7.4,3.6,15.1,12.6,15.2,19.2c0.1,7.3,0.9,62.2,0.6,68c-0.4,7.1-8.7,18.5-17.2,18.5c-10.3,0-363.4-1.5-363.4-1.5h-0.3
				c0,0-353,1.5-363.3,1.5c-8.5,0-16.8-11.4-17.2-18.5c-0.3-5.8,0.4-60.8,0.6-68c0.1-6.6,7.8-15.6,15.2-19.2
				c5.1-2.5,60.5-7.5,91.4-12.5c11.4-1.8,16.8-5.3,20.9-8.5c15.8-12.4,37.9-73.5,39.5-132.8c1.7-65-18.6-100-18.8-116.2
				c-0.3-19,0.2-75.9-0.4-101.8c-0.4-18.5,0.6-41.8,34.7-44.4c21.7-1.6,197.7-0.5,197.7-0.5H483.8z"/>
		</g>
		<path class="st30" d="M251.1,69.7V139 M716.6,69.7V139 M853.3,701.5H115.2"/>
		<polygon class="st2" points="850.7,697.9 865,701.7 850.7,705.5 		"/>
		<polygon class="st2" points="117.9,697.9 103.5,701.7 117.9,705.5 		"/>
		<polyline class="st30" points="741.4,495.4 768.5,471.1 828.6,471.1 		"/>
		<polygon class="st2" points="745.8,496.4 732.5,503.1 740.7,490.7 		"/>
		<polyline class="st30" points="710.1,383.1 787.8,373.9 847.9,373.9 		"/>
		<polygon class="st2" points="713.1,386.4 698.4,384.3 712.2,378.8 		"/>
		<polyline class="st30" points="703,260 621.5,250.7 561.8,250.7 		"/>
		<polygon class="st2" points="700.8,256.1 714.6,261.5 699.9,263.7 		"/>
		<polyline class="st30" points="696.9,132.2 656,178.5 596.4,178.5 		"/>
		<polygon class="st2" points="692.4,131.7 704.8,123.5 698.2,136.8 		"/>
		<polyline class="st30" points="847.9,545.4 825.8,567.2 768.8,567.2 		"/>
		<polygon class="st2" points="843.5,544.6 856.4,537.2 848.9,550 		"/>
		<polyline class="st30" points="850.1,620.6 830.5,605.2 746.7,605.2 		"/>
		<polygon class="st2" points="850.3,616.1 859.2,627.9 845.6,622.1 		"/>
		<line class="st30" x1="263.7" y1="84.6" x2="703.3" y2="84.6"/>
		<polygon class="st2" points="266.3,88.3 251.9,84.5 266.3,80.6 		"/>
		<polygon class="st2" points="700.7,88.3 715,84.5 700.7,80.6 		"/>
		<line class="st30" x1="918.6" y1="387.5" x2="918.6" y2="125.3"/>
		<polygon class="st2" points="922.3,384.9 918.5,399.3 914.6,384.9 		"/>
		<polygon class="st2" points="922.3,127.9 918.5,113.6 914.6,127.9 		"/>
		<line class="st30" x1="918.6" y1="625.5" x2="918.6" y2="413.1"/>
		<polygon class="st2" points="922.3,622.9 918.5,637.2 914.6,622.9 		"/>
		<polygon class="st2" points="922.3,415.7 918.5,401.4 914.6,415.7 		"/>
		<line class="st30" x1="891.6" y1="239.7" x2="891.6" y2="125.3"/>
		<polygon class="st2" points="895.3,237.1 891.4,251.4 887.6,237.1 		"/>
		<polygon class="st2" points="895.3,127.9 891.4,113.6 887.6,127.9 		"/>
		<line class="st30" x1="891.7" y1="543.5" x2="891.7" y2="624.7"/>
		<polygon class="st2" points="888,546.1 891.8,531.8 895.7,546.1 		"/>
		<polygon class="st2" points="888,622.1 891.8,636.4 895.7,622.1 		"/>
		<line class="st30" x1="780.1" y1="435.6" x2="839.8" y2="443"/>
		<polygon class="st2" points="782.2,439.5 768.5,434 783.2,431.9 		"/>
		<polygon class="st2" points="836.7,446.3 851.4,444.3 837.6,438.7 		"/>
		<line class="st30" x1="952.7" y1="624.2" x2="952.7" y2="125.3"/>
		<polygon class="st2" points="956.4,621.5 952.6,635.9 948.7,621.5 		"/>
		<polygon class="st2" points="956.4,127.9 952.6,113.6 948.7,127.9 		"/>
		<path class="st30" d="M180.6,113.9h795.4 M155.9,400.7h773 M973.8,637.1h-917 M900.2,530.5h-35.5 M903.2,250.7H629 M864.5,726.6
			V529.4l-111.3-12.1 M102.7,726.6V529.4l107.9-11.5 M852.9,440.6l-11.2,87.6 M769.1,429.4L757.9,517"/>
		<g>
			<path class="st2" d="M727.9,338.3l4.9-6.6l-4.3-6h2l2.3,3.2c0.5,0.7,0.8,1.2,1,1.6c0.3-0.5,0.6-0.9,1-1.4l2.5-3.4h1.8l-4.4,6
				l4.8,6.7h-2.1l-3.2-4.5c-0.2-0.3-0.4-0.5-0.6-0.8c-0.3,0.5-0.5,0.8-0.6,0.9l-3.2,4.4H727.9z"/>
		</g>
		<g>
			<path class="st2" d="M607.9,171.9v-12.6h5.6c1.1,0,2,0.1,2.6,0.3c0.6,0.2,1.1,0.6,1.4,1.2c0.4,0.6,0.5,1.2,0.5,1.9
				c0,0.9-0.3,1.7-0.9,2.3c-0.6,0.6-1.5,1-2.7,1.2c0.4,0.2,0.8,0.4,1,0.6c0.5,0.4,1,1,1.4,1.7l2.2,3.4h-2.1l-1.7-2.6
				c-0.5-0.8-0.9-1.3-1.2-1.7c-0.3-0.4-0.6-0.7-0.8-0.8c-0.2-0.2-0.5-0.3-0.8-0.3c-0.2,0-0.5-0.1-0.9-0.1h-1.9v5.6H607.9z
				 M609.5,164.9h3.6c0.8,0,1.4-0.1,1.8-0.2c0.4-0.2,0.8-0.4,1-0.8c0.2-0.3,0.3-0.7,0.3-1.1c0-0.6-0.2-1.1-0.7-1.5
				c-0.4-0.4-1.1-0.6-2.1-0.6h-4V164.9z"/>
			<path class="st2" d="M625.1,169l1.5-0.1c0.1,0.7,0.4,1.2,0.7,1.5s0.8,0.5,1.4,0.5c0.5,0,0.9-0.1,1.3-0.3c0.4-0.2,0.7-0.5,0.9-0.9
				c0.2-0.4,0.4-0.9,0.6-1.5c0.2-0.6,0.2-1.3,0.2-1.9c0-0.1,0-0.2,0-0.3c-0.3,0.5-0.7,0.9-1.3,1.2c-0.5,0.3-1.1,0.5-1.7,0.5
				c-1,0-1.9-0.4-2.7-1.1s-1.1-1.8-1.1-3c0-1.3,0.4-2.3,1.1-3.1s1.7-1.2,2.8-1.2c0.8,0,1.6,0.2,2.3,0.7c0.7,0.4,1.2,1.1,1.5,1.9
				c0.4,0.8,0.5,2,0.5,3.6c0,1.6-0.2,2.9-0.5,3.9s-0.9,1.7-1.6,2.2c-0.7,0.5-1.5,0.7-2.4,0.7c-1,0-1.8-0.3-2.4-0.8
				C625.6,170.8,625.2,170,625.1,169z M631.4,163.4c0-0.9-0.2-1.6-0.7-2.1c-0.5-0.5-1-0.8-1.7-0.8c-0.7,0-1.3,0.3-1.8,0.8
				s-0.8,1.3-0.8,2.2c0,0.8,0.2,1.5,0.7,2c0.5,0.5,1.1,0.8,1.8,0.8c0.7,0,1.3-0.3,1.8-0.8C631.2,165,631.4,164.3,631.4,163.4z"/>
			<path class="st2" d="M635.5,171.9v-1.8h1.8v1.8H635.5z"/>
		</g>
		<g>
			<path class="st2" d="M639.5,168.6l1.6-0.1c0.1,0.8,0.4,1.4,0.8,1.8c0.4,0.4,1,0.6,1.6,0.6c0.7,0,1.4-0.3,1.9-0.8
				c0.5-0.6,0.8-1.3,0.8-2.2c0-0.9-0.2-1.6-0.7-2.1c-0.5-0.5-1.1-0.8-2-0.8c-0.5,0-1,0.1-1.4,0.3c-0.4,0.2-0.7,0.5-0.9,0.9l-1.5-0.2
				l1.2-6.5h6.3v1.5h-5l-0.7,3.4c0.8-0.5,1.6-0.8,2.4-0.8c1.1,0,2,0.4,2.8,1.1s1.1,1.7,1.1,2.9c0,1.1-0.3,2.1-1,3
				c-0.8,1-1.9,1.5-3.3,1.5c-1.1,0-2.1-0.3-2.8-1S639.6,169.7,639.5,168.6z"/>
		</g>
		<g>
			<path class="st2" d="M580.2,243.7V231h5.6c1.1,0,2,0.1,2.6,0.3c0.6,0.2,1.1,0.6,1.4,1.2c0.4,0.6,0.5,1.2,0.5,1.9
				c0,0.9-0.3,1.7-0.9,2.3c-0.6,0.6-1.5,1-2.7,1.2c0.4,0.2,0.8,0.4,1,0.6c0.5,0.4,1,1,1.4,1.7l2.2,3.4h-2.1l-1.7-2.6
				c-0.5-0.8-0.9-1.3-1.2-1.7c-0.3-0.4-0.6-0.7-0.8-0.8c-0.2-0.2-0.5-0.3-0.8-0.3c-0.2,0-0.5-0.1-0.9-0.1h-1.9v5.6H580.2z
				 M581.8,236.6h3.6c0.8,0,1.4-0.1,1.8-0.2c0.4-0.2,0.8-0.4,1-0.8c0.2-0.3,0.3-0.7,0.3-1.1c0-0.6-0.2-1.1-0.7-1.5
				c-0.4-0.4-1.1-0.6-2.1-0.6h-4V236.6z"/>
			<path class="st2" d="M605.3,242.2v1.5h-8.3c0-0.4,0-0.7,0.2-1.1c0.2-0.6,0.6-1.1,1-1.7c0.5-0.6,1.1-1.2,2-1.9
				c1.4-1.1,2.3-2,2.8-2.7c0.5-0.7,0.7-1.3,0.7-1.9c0-0.6-0.2-1.1-0.7-1.6c-0.4-0.4-1-0.6-1.7-0.6c-0.7,0-1.3,0.2-1.8,0.7
				s-0.7,1.1-0.7,1.9l-1.6-0.2c0.1-1.2,0.5-2.1,1.2-2.7c0.7-0.6,1.7-0.9,2.9-0.9c1.2,0,2.2,0.3,2.9,1s1.1,1.5,1.1,2.5
				c0,0.5-0.1,1-0.3,1.5c-0.2,0.5-0.5,1-1,1.5c-0.5,0.5-1.3,1.3-2.4,2.2c-0.9,0.8-1.5,1.3-1.8,1.6c-0.3,0.3-0.5,0.6-0.7,0.8H605.3z"
				/>
			<path class="st2" d="M607,240.4l1.6-0.1c0.1,0.8,0.4,1.4,0.8,1.8c0.4,0.4,1,0.6,1.6,0.6c0.7,0,1.4-0.3,1.9-0.8
				c0.5-0.6,0.8-1.3,0.8-2.2c0-0.9-0.2-1.6-0.7-2.1c-0.5-0.5-1.1-0.8-2-0.8c-0.5,0-1,0.1-1.4,0.3c-0.4,0.2-0.7,0.5-0.9,0.9l-1.5-0.2
				l1.2-6.5h6.3v1.5h-5l-0.7,3.4c0.8-0.5,1.6-0.8,2.4-0.8c1.1,0,2,0.4,2.8,1.1s1.1,1.7,1.1,2.9c0,1.1-0.3,2.1-1,3
				c-0.8,1-1.9,1.5-3.3,1.5c-1.1,0-2.1-0.3-2.8-1S607.1,241.4,607,240.4z"/>
			<path class="st2" d="M617.6,243.7v-1.8h1.8v1.8H617.6z"/>
		</g>
		<g>
			<path class="st2" d="M626.6,243.7v-3h-5.5v-1.4l5.8-8.2h1.3v8.2h1.7v1.4h-1.7v3H626.6z M626.6,239.2v-5.7l-4,5.7H626.6z"/>
		</g>
		<g>
			<path class="st2" d="M792.1,366.8v-12.6h5.6c1.1,0,2,0.1,2.6,0.3c0.6,0.2,1.1,0.6,1.4,1.2c0.4,0.6,0.5,1.2,0.5,1.9
				c0,0.9-0.3,1.7-0.9,2.3c-0.6,0.6-1.5,1-2.7,1.2c0.4,0.2,0.8,0.4,1,0.6c0.5,0.4,1,1,1.4,1.7l2.2,3.4h-2.1l-1.7-2.6
				c-0.5-0.8-0.9-1.3-1.2-1.7c-0.3-0.4-0.6-0.7-0.8-0.8c-0.2-0.2-0.5-0.3-0.8-0.3c-0.2,0-0.5-0.1-0.9-0.1h-1.9v5.6H792.1z
				 M793.8,359.8h3.6c0.8,0,1.4-0.1,1.8-0.2c0.4-0.2,0.8-0.4,1-0.8c0.2-0.3,0.3-0.7,0.3-1.1c0-0.6-0.2-1.1-0.7-1.5
				c-0.4-0.4-1.1-0.6-2.1-0.6h-4V359.8z"/>
			<path class="st2" d="M811.5,360c-0.6-0.2-1.1-0.6-1.4-1c-0.3-0.4-0.5-1-0.5-1.6c0-0.9,0.3-1.7,1-2.3c0.7-0.6,1.5-0.9,2.6-0.9
				c1.1,0,2,0.3,2.7,1c0.7,0.6,1,1.4,1,2.3c0,0.6-0.2,1.1-0.5,1.5c-0.3,0.4-0.8,0.8-1.4,1c0.8,0.3,1.4,0.7,1.8,1.2s0.6,1.2,0.6,2
				c0,1.1-0.4,2-1.1,2.7s-1.8,1.1-3,1.1c-1.2,0-2.3-0.4-3-1.1s-1.1-1.7-1.1-2.8c0-0.8,0.2-1.5,0.6-2.1
				C810.1,360.5,810.7,360.2,811.5,360z M810.6,363.2c0,0.4,0.1,0.9,0.3,1.3c0.2,0.4,0.5,0.7,0.9,1c0.4,0.2,0.9,0.3,1.3,0.3
				c0.7,0,1.4-0.2,1.8-0.7c0.5-0.5,0.7-1.1,0.7-1.8c0-0.7-0.2-1.4-0.7-1.9c-0.5-0.5-1.1-0.7-1.9-0.7c-0.7,0-1.3,0.2-1.8,0.7
				C810.9,361.8,810.6,362.4,810.6,363.2z M811.1,357.3c0,0.6,0.2,1.1,0.6,1.5c0.4,0.4,0.9,0.6,1.5,0.6c0.6,0,1.1-0.2,1.5-0.6
				s0.6-0.8,0.6-1.4c0-0.6-0.2-1-0.6-1.4c-0.4-0.4-0.9-0.6-1.5-0.6c-0.6,0-1.1,0.2-1.5,0.6C811.3,356.4,811.1,356.8,811.1,357.3z"/>
			<path class="st2" d="M819,355.8v-1.5h8.2v1.2c-0.8,0.9-1.6,2-2.4,3.4c-0.8,1.4-1.4,2.9-1.8,4.4c-0.3,1.1-0.5,2.2-0.6,3.5h-1.6
				c0-1,0.2-2.2,0.6-3.6c0.4-1.4,0.9-2.8,1.6-4.1c0.7-1.3,1.4-2.4,2.2-3.3H819z"/>
			<path class="st2" d="M829.6,366.8V365h1.8v1.8H829.6z"/>
		</g>
		<g>
			<path class="st2" d="M833.6,363.5l1.5-0.2c0.2,0.9,0.5,1.5,0.9,1.9c0.4,0.4,0.9,0.6,1.6,0.6c0.7,0,1.3-0.3,1.8-0.8
				c0.5-0.5,0.8-1.1,0.8-1.9c0-0.7-0.2-1.3-0.7-1.8c-0.5-0.5-1.1-0.7-1.8-0.7c-0.3,0-0.7,0.1-1.1,0.2l0.2-1.4c0.1,0,0.2,0,0.2,0
				c0.7,0,1.3-0.2,1.8-0.5c0.5-0.3,0.8-0.9,0.8-1.6c0-0.6-0.2-1-0.6-1.4c-0.4-0.4-0.9-0.6-1.5-0.6c-0.6,0-1.1,0.2-1.5,0.6
				c-0.4,0.4-0.7,0.9-0.8,1.7l-1.5-0.3c0.2-1,0.6-1.8,1.3-2.4c0.7-0.6,1.5-0.9,2.5-0.9c0.7,0,1.3,0.1,1.9,0.4c0.6,0.3,1,0.7,1.3,1.2
				c0.3,0.5,0.5,1.1,0.5,1.6c0,0.5-0.1,1-0.4,1.5c-0.3,0.4-0.7,0.8-1.3,1.1c0.7,0.2,1.3,0.5,1.7,1.1c0.4,0.5,0.6,1.2,0.6,2
				c0,1.1-0.4,2-1.2,2.8c-0.8,0.8-1.8,1.1-3,1.1c-1.1,0-2-0.3-2.8-1C834.1,365.4,833.7,364.5,833.6,363.5z"/>
		</g>
		<g>
			<path class="st2" d="M775.6,464.4v-12.6h5.6c1.1,0,2,0.1,2.6,0.3c0.6,0.2,1.1,0.6,1.4,1.2s0.5,1.2,0.5,1.9c0,0.9-0.3,1.7-0.9,2.3
				c-0.6,0.6-1.5,1-2.7,1.2c0.4,0.2,0.8,0.4,1,0.6c0.5,0.4,1,1,1.4,1.7l2.2,3.4h-2.1l-1.7-2.6c-0.5-0.8-0.9-1.3-1.2-1.7
				c-0.3-0.4-0.6-0.7-0.8-0.8c-0.2-0.2-0.5-0.3-0.8-0.3c-0.2,0-0.5-0.1-0.9-0.1h-1.9v5.6H775.6z M777.3,457.3h3.6
				c0.8,0,1.4-0.1,1.8-0.2c0.4-0.2,0.8-0.4,1-0.8c0.2-0.3,0.3-0.7,0.3-1.1c0-0.6-0.2-1.1-0.7-1.5c-0.4-0.4-1.1-0.6-2.1-0.6h-4V457.3
				z"/>
			<path class="st2" d="M798.5,464.4h-1.6v-9.9c-0.4,0.4-0.9,0.7-1.5,1.1c-0.6,0.4-1.1,0.6-1.6,0.8v-1.5c0.9-0.4,1.6-0.9,2.3-1.5
				c0.6-0.6,1.1-1.1,1.4-1.7h1V464.4z"/>
			<path class="st2" d="M810.6,462.9v1.5h-8.3c0-0.4,0-0.7,0.2-1.1c0.2-0.6,0.6-1.1,1-1.7c0.5-0.6,1.1-1.2,2-1.9
				c1.4-1.1,2.3-2,2.8-2.7c0.5-0.7,0.7-1.3,0.7-1.9c0-0.6-0.2-1.1-0.7-1.6c-0.4-0.4-1-0.6-1.7-0.6c-0.7,0-1.3,0.2-1.8,0.7
				c-0.4,0.4-0.7,1.1-0.7,1.9l-1.6-0.2c0.1-1.2,0.5-2.1,1.2-2.7c0.7-0.6,1.7-0.9,2.9-0.9c1.2,0,2.2,0.3,2.9,1s1.1,1.5,1.1,2.5
				c0,0.5-0.1,1-0.3,1.5s-0.5,1-1,1.5c-0.5,0.5-1.3,1.3-2.4,2.2c-0.9,0.8-1.5,1.3-1.8,1.6c-0.3,0.3-0.5,0.6-0.7,0.8H810.6z"/>
			<path class="st2" d="M813.1,464.4v-1.8h1.8v1.8H813.1z"/>
		</g>
		<g>
			<path class="st2" d="M817.2,453.4v-1.5h8.2v1.2c-0.8,0.9-1.6,2-2.4,3.4c-0.8,1.4-1.4,2.9-1.8,4.4c-0.3,1.1-0.5,2.2-0.6,3.5H819
				c0-1,0.2-2.2,0.6-3.6c0.4-1.4,0.9-2.8,1.6-4.1c0.7-1.3,1.4-2.4,2.2-3.3H817.2z"/>
		</g>
		<g>
			<path class="st2" d="M805,430.6l-0.2,1.5l-8.3-1c0-0.4,0.1-0.7,0.3-1c0.3-0.5,0.7-1.1,1.2-1.5c0.5-0.5,1.3-1,2.2-1.7
				c1.5-1,2.5-1.7,3.1-2.3c0.6-0.6,0.9-1.2,0.9-1.8c0.1-0.6-0.1-1.2-0.5-1.6c-0.4-0.5-0.9-0.8-1.6-0.8c-0.7-0.1-1.4,0.1-1.9,0.4
				c-0.5,0.4-0.8,1-0.9,1.8l-1.6-0.4c0.3-1.2,0.8-2,1.6-2.5c0.8-0.5,1.8-0.7,3-0.6c1.2,0.1,2.1,0.6,2.7,1.3c0.6,0.8,0.9,1.6,0.7,2.6
				c-0.1,0.5-0.2,1-0.5,1.4c-0.3,0.5-0.7,0.9-1.2,1.4c-0.5,0.5-1.4,1.1-2.6,1.9c-1,0.7-1.7,1.1-2,1.4c-0.3,0.2-0.5,0.5-0.8,0.8
				L805,430.6z"/>
			<path class="st2" d="M806.9,429l1.6,0.1c0,0.8,0.2,1.4,0.6,1.9c0.4,0.5,0.9,0.7,1.5,0.8c0.7,0.1,1.4-0.1,2-0.6
				c0.6-0.5,0.9-1.2,1-2.1c0.1-0.9-0.1-1.6-0.5-2.2s-1-0.9-1.8-1c-0.5-0.1-1,0-1.4,0.2c-0.4,0.2-0.8,0.4-1,0.8l-1.4-0.4l2-6.3
				l6.2,0.8l-0.2,1.5l-5-0.6l-1.1,3.3c0.8-0.4,1.6-0.6,2.5-0.5c1.1,0.1,2,0.6,2.6,1.5s0.9,1.9,0.8,3.1c-0.1,1.1-0.6,2.1-1.4,2.8
				c-0.9,0.9-2.1,1.3-3.5,1.1c-1.1-0.1-2-0.6-2.7-1.3S806.8,430,806.9,429z"/>
			<path class="st2" d="M817.1,433.5l0.2-1.8l1.8,0.2l-0.2,1.8L817.1,433.5z"/>
			<path class="st2" d="M826,434.6l0.4-3l-5.4-0.7l0.2-1.4l6.7-7.4l1.3,0.2l-1,8.1l1.7,0.2l-0.2,1.4l-1.7-0.2l-0.4,3L826,434.6z
				 M826.5,430.2l0.7-5.6l-4.6,5.2L826.5,430.2z"/>
		</g>
		<g>
			<path class="st2" d="M778.3,560.5v-12.6h5.6c1.1,0,2,0.1,2.6,0.3c0.6,0.2,1.1,0.6,1.4,1.2s0.5,1.2,0.5,1.9c0,0.9-0.3,1.7-0.9,2.3
				c-0.6,0.6-1.5,1-2.7,1.2c0.4,0.2,0.8,0.4,1,0.6c0.5,0.4,1,1,1.4,1.7l2.2,3.4h-2.1l-1.7-2.6c-0.5-0.8-0.9-1.3-1.2-1.7
				c-0.3-0.4-0.6-0.7-0.8-0.8c-0.2-0.2-0.5-0.3-0.8-0.3c-0.2,0-0.5-0.1-0.9-0.1h-1.9v5.6H778.3z M779.9,553.4h3.6
				c0.8,0,1.4-0.1,1.8-0.2c0.4-0.2,0.8-0.4,1-0.8c0.2-0.3,0.3-0.7,0.3-1.1c0-0.6-0.2-1.1-0.7-1.5c-0.4-0.4-1.1-0.6-2.1-0.6h-4V553.4
				z"/>
			<path class="st2" d="M795.3,549.5V548h8.2v1.2c-0.8,0.9-1.6,2-2.4,3.4c-0.8,1.4-1.4,2.9-1.8,4.4c-0.3,1.1-0.5,2.2-0.6,3.5h-1.6
				c0-1,0.2-2.2,0.6-3.6c0.4-1.4,0.9-2.8,1.6-4.1c0.7-1.3,1.4-2.4,2.2-3.3H795.3z"/>
			<path class="st2" d="M805.9,560.5v-1.8h1.8v1.8H805.9z"/>
		</g>
		<g>
			<path class="st2" d="M810.2,557.6l1.5-0.1c0.1,0.7,0.4,1.2,0.7,1.5c0.4,0.3,0.8,0.5,1.4,0.5c0.5,0,0.9-0.1,1.3-0.3
				c0.4-0.2,0.7-0.5,0.9-0.9c0.2-0.4,0.4-0.9,0.6-1.5c0.2-0.6,0.2-1.3,0.2-1.9c0-0.1,0-0.2,0-0.3c-0.3,0.5-0.7,0.9-1.3,1.2
				c-0.5,0.3-1.1,0.5-1.7,0.5c-1,0-1.9-0.4-2.7-1.1s-1.1-1.8-1.1-3c0-1.3,0.4-2.3,1.1-3.1c0.8-0.8,1.7-1.2,2.8-1.2
				c0.8,0,1.6,0.2,2.3,0.7c0.7,0.4,1.2,1.1,1.5,1.9s0.5,2,0.5,3.6c0,1.6-0.2,2.9-0.5,3.9s-0.9,1.7-1.6,2.2c-0.7,0.5-1.5,0.7-2.4,0.7
				c-1,0-1.8-0.3-2.4-0.8C810.7,559.3,810.3,558.5,810.2,557.6z M816.5,552c0-0.9-0.2-1.6-0.7-2.1c-0.5-0.5-1-0.8-1.7-0.8
				c-0.7,0-1.3,0.3-1.8,0.8s-0.8,1.3-0.8,2.2c0,0.8,0.2,1.5,0.7,2c0.5,0.5,1.1,0.8,1.8,0.8c0.7,0,1.3-0.3,1.8-0.8
				C816.3,553.6,816.5,552.9,816.5,552z"/>
		</g>
		<g>
			<path class="st2" d="M753,598.7v-12.6h5.6c1.1,0,2,0.1,2.6,0.3c0.6,0.2,1.1,0.6,1.4,1.2s0.5,1.2,0.5,1.9c0,0.9-0.3,1.7-0.9,2.3
				c-0.6,0.6-1.5,1-2.7,1.2c0.4,0.2,0.8,0.4,1,0.6c0.5,0.4,1,1,1.4,1.7l2.2,3.4H762l-1.7-2.6c-0.5-0.8-0.9-1.3-1.2-1.7
				c-0.3-0.4-0.6-0.7-0.8-0.8c-0.2-0.2-0.5-0.3-0.8-0.3c-0.2,0-0.5-0.1-0.9-0.1h-1.9v5.6H753z M754.7,591.6h3.6
				c0.8,0,1.4-0.1,1.8-0.2c0.4-0.2,0.8-0.4,1-0.8c0.2-0.3,0.3-0.7,0.3-1.1c0-0.6-0.2-1.1-0.7-1.5c-0.4-0.4-1.1-0.6-2.1-0.6h-4V591.6
				z"/>
			<path class="st2" d="M778,589.2l-1.5,0.1c-0.1-0.6-0.3-1-0.6-1.3c-0.4-0.4-0.9-0.7-1.6-0.7c-0.5,0-0.9,0.1-1.3,0.4
				c-0.5,0.4-0.9,0.9-1.2,1.6c-0.3,0.7-0.4,1.7-0.4,2.9c0.4-0.6,0.8-1,1.4-1.3c0.5-0.3,1.1-0.4,1.7-0.4c1,0,1.9,0.4,2.6,1.1
				s1.1,1.7,1.1,2.9c0,0.8-0.2,1.5-0.5,2.2c-0.3,0.7-0.8,1.2-1.4,1.6c-0.6,0.4-1.3,0.5-2,0.5c-1.3,0-2.3-0.5-3.2-1.4
				c-0.8-0.9-1.2-2.5-1.2-4.7c0-2.4,0.5-4.2,1.4-5.3c0.8-1,1.8-1.4,3.2-1.4c1,0,1.8,0.3,2.4,0.8S777.9,588.2,778,589.2z
				 M771.7,594.6c0,0.5,0.1,1,0.3,1.5c0.2,0.5,0.5,0.9,1,1.1c0.4,0.3,0.8,0.4,1.3,0.4c0.7,0,1.2-0.3,1.7-0.8
				c0.5-0.5,0.7-1.2,0.7-2.2c0-0.9-0.2-1.6-0.7-2.1c-0.5-0.5-1.1-0.8-1.8-0.8c-0.7,0-1.3,0.3-1.8,0.8
				C771.9,593.1,771.7,593.8,771.7,594.6z"/>
			<path class="st2" d="M780.6,598.7v-1.8h1.8v1.8H780.6z"/>
			<path class="st2" d="M789.6,598.7v-3h-5.5v-1.4l5.8-8.2h1.3v8.2h1.7v1.4h-1.7v3H789.6z M789.6,594.2v-5.7l-4,5.7H789.6z"/>
			<path class="st2" d="M799.8,598.7v-9.1h1.4v1.3c0.3-0.4,0.7-0.8,1.1-1.1c0.5-0.3,1-0.4,1.6-0.4c0.7,0,1.2,0.1,1.7,0.4
				s0.7,0.7,0.9,1.2c0.7-1.1,1.7-1.6,2.8-1.6c0.9,0,1.6,0.3,2.1,0.8c0.5,0.5,0.7,1.3,0.7,2.3v6.3h-1.5v-5.8c0-0.6-0.1-1.1-0.2-1.3
				c-0.1-0.3-0.3-0.5-0.5-0.7c-0.3-0.2-0.6-0.2-0.9-0.2c-0.6,0-1.2,0.2-1.6,0.6s-0.6,1.1-0.6,2.1v5.3h-1.5v-5.9
				c0-0.7-0.1-1.2-0.4-1.5c-0.3-0.3-0.7-0.5-1.2-0.5c-0.4,0-0.8,0.1-1.2,0.3c-0.4,0.2-0.6,0.6-0.8,1c-0.2,0.4-0.2,1.1-0.2,1.9v4.7
				H799.8z"/>
			<path class="st2" d="M820.5,597.6c-0.6,0.5-1.1,0.8-1.7,1c-0.5,0.2-1.1,0.3-1.7,0.3c-1,0-1.8-0.2-2.3-0.7s-0.8-1.1-0.8-1.9
				c0-0.4,0.1-0.9,0.3-1.2s0.5-0.7,0.8-0.9s0.7-0.4,1.1-0.5c0.3-0.1,0.8-0.2,1.4-0.2c1.3-0.1,2.2-0.3,2.8-0.5c0-0.2,0-0.3,0-0.4
				c0-0.6-0.1-1.1-0.4-1.3c-0.4-0.4-1-0.5-1.8-0.5c-0.7,0-1.3,0.1-1.6,0.4c-0.3,0.3-0.6,0.7-0.8,1.4l-1.5-0.2
				c0.1-0.6,0.4-1.2,0.7-1.6c0.3-0.4,0.8-0.7,1.4-0.9c0.6-0.2,1.3-0.3,2.1-0.3c0.8,0,1.4,0.1,1.9,0.3c0.5,0.2,0.8,0.4,1.1,0.7
				s0.4,0.6,0.5,1.1c0.1,0.3,0.1,0.7,0.1,1.4v2.1c0,1.4,0,2.4,0.1,2.7s0.2,0.7,0.4,1.1h-1.6C820.6,598.4,820.5,598,820.5,597.6z
				 M820.3,594.1c-0.6,0.2-1.4,0.4-2.5,0.6c-0.6,0.1-1.1,0.2-1.4,0.3c-0.3,0.1-0.5,0.3-0.6,0.5c-0.1,0.2-0.2,0.5-0.2,0.7
				c0,0.4,0.2,0.8,0.5,1s0.8,0.4,1.4,0.4c0.6,0,1.1-0.1,1.6-0.4c0.5-0.3,0.8-0.6,1-1.1c0.2-0.4,0.2-0.9,0.2-1.6V594.1z"/>
		</g>
		<g>
			<path class="st2" d="M823.2,598.7l3.3-4.8l-3.1-4.4h1.9l1.4,2.1c0.3,0.4,0.5,0.8,0.6,1c0.3-0.4,0.5-0.7,0.7-1l1.5-2.2h1.9
				l-3.2,4.3l3.4,4.8h-1.9l-1.9-2.8l-0.5-0.8l-2.4,3.6H823.2z"/>
		</g>
		<g>
			<path class="st2" d="M900.8,548.3l0.2,1.5c-0.9,0.2-1.5,0.5-1.9,0.9c-0.4,0.4-0.6,0.9-0.6,1.6c0,0.7,0.3,1.3,0.8,1.8
				c0.5,0.5,1.1,0.8,1.9,0.8c0.7,0,1.3-0.2,1.8-0.7s0.7-1.1,0.7-1.8c0-0.3-0.1-0.7-0.2-1.1l1.4,0.2c0,0.1,0,0.2,0,0.2
				c0,0.7,0.2,1.3,0.5,1.8c0.3,0.5,0.9,0.8,1.6,0.8c0.6,0,1-0.2,1.4-0.6c0.4-0.4,0.6-0.9,0.6-1.5c0-0.6-0.2-1.1-0.6-1.5
				s-0.9-0.7-1.7-0.8l0.3-1.5c1,0.2,1.8,0.6,2.4,1.3c0.6,0.7,0.9,1.5,0.9,2.5c0,0.7-0.1,1.3-0.4,1.9c-0.3,0.6-0.7,1-1.2,1.3
				c-0.5,0.3-1.1,0.5-1.6,0.5c-0.5,0-1-0.1-1.5-0.4s-0.8-0.7-1.1-1.3c-0.2,0.7-0.5,1.3-1.1,1.7c-0.5,0.4-1.2,0.6-2,0.6
				c-1.1,0-2-0.4-2.8-1.2c-0.8-0.8-1.1-1.8-1.1-3c0-1.1,0.3-2,1-2.8C898.9,548.8,899.7,548.4,900.8,548.3z"/>
			<path class="st2" d="M897.4,564v-1.6h9.9c-0.4-0.4-0.7-0.9-1.1-1.5s-0.6-1.1-0.8-1.6h1.5c0.4,0.9,0.9,1.6,1.5,2.3
				c0.6,0.6,1.1,1.1,1.7,1.4v1H897.4z"/>
			<path class="st2" d="M897.4,568.8h1.8v1.8h-1.8V568.8z"/>
			<path class="st2" d="M904.3,575.2c0.2-0.6,0.6-1.1,1-1.4c0.4-0.3,1-0.5,1.6-0.5c0.9,0,1.7,0.3,2.3,1c0.6,0.7,0.9,1.5,0.9,2.6
				c0,1.1-0.3,2-1,2.7c-0.6,0.7-1.4,1-2.3,1c-0.6,0-1.1-0.2-1.5-0.5c-0.4-0.3-0.8-0.8-1-1.4c-0.3,0.8-0.7,1.4-1.2,1.8
				c-0.6,0.4-1.2,0.6-2,0.6c-1.1,0-2-0.4-2.7-1.1s-1.1-1.8-1.1-3s0.4-2.2,1.1-3s1.7-1.1,2.8-1.1c0.8,0,1.5,0.2,2.1,0.6
				C903.7,573.9,904.1,574.5,904.3,575.2z M901.1,574.4c-0.4,0-0.9,0.1-1.3,0.3c-0.4,0.2-0.7,0.5-1,0.9c-0.2,0.4-0.3,0.9-0.3,1.3
				c0,0.7,0.2,1.4,0.7,1.8s1.1,0.7,1.8,0.7c0.7,0,1.4-0.2,1.9-0.7c0.5-0.5,0.7-1.1,0.7-1.9c0-0.7-0.2-1.3-0.7-1.8
				C902.4,574.7,901.8,574.4,901.1,574.4z M906.9,574.9c-0.6,0-1.1,0.2-1.5,0.6c-0.4,0.4-0.6,0.9-0.6,1.5c0,0.6,0.2,1.1,0.6,1.5
				s0.8,0.6,1.4,0.6c0.6,0,1-0.2,1.4-0.6c0.4-0.4,0.6-0.9,0.6-1.5c0-0.6-0.2-1.1-0.6-1.5C907.9,575.1,907.4,574.9,906.9,574.9z"/>
			<path class="st2" d="M897.4,588h9.1v1.4h-1.3c0.4,0.3,0.8,0.7,1.1,1.1c0.3,0.5,0.4,1,0.4,1.6c0,0.7-0.1,1.2-0.4,1.7
				s-0.7,0.7-1.2,0.9c1.1,0.7,1.6,1.7,1.6,2.8c0,0.9-0.3,1.6-0.8,2.1c-0.5,0.5-1.3,0.7-2.3,0.7h-6.3v-1.5h5.8c0.6,0,1.1,0,1.3-0.2
				c0.3-0.1,0.5-0.3,0.7-0.5c0.2-0.3,0.2-0.6,0.2-0.9c0-0.6-0.2-1.2-0.6-1.6s-1.1-0.6-2.1-0.6h-5.3v-1.5h5.9c0.7,0,1.2-0.1,1.6-0.4
				c0.3-0.3,0.5-0.7,0.5-1.2c0-0.4-0.1-0.8-0.3-1.2c-0.2-0.4-0.6-0.6-1-0.8c-0.4-0.2-1.1-0.2-1.9-0.2h-4.7V588z"/>
			<path class="st2" d="M898.6,608.6c-0.5-0.6-0.8-1.1-1-1.7c-0.2-0.5-0.3-1.1-0.3-1.7c0-1,0.2-1.8,0.7-2.3c0.5-0.5,1.1-0.8,1.9-0.8
				c0.4,0,0.9,0.1,1.2,0.3c0.4,0.2,0.7,0.5,0.9,0.8c0.2,0.3,0.4,0.7,0.5,1.1c0.1,0.3,0.2,0.8,0.2,1.4c0.1,1.3,0.3,2.2,0.5,2.8
				c0.2,0,0.3,0,0.4,0c0.6,0,1.1-0.1,1.3-0.4c0.4-0.4,0.5-1,0.5-1.8c0-0.7-0.1-1.3-0.4-1.6c-0.3-0.3-0.7-0.6-1.4-0.8l0.2-1.5
				c0.6,0.1,1.2,0.4,1.6,0.7c0.4,0.3,0.7,0.8,0.9,1.4c0.2,0.6,0.3,1.3,0.3,2.1c0,0.8-0.1,1.4-0.3,1.9c-0.2,0.5-0.4,0.8-0.7,1.1
				s-0.6,0.4-1.1,0.5c-0.3,0.1-0.7,0.1-1.4,0.1h-2.1c-1.4,0-2.4,0-2.7,0.1c-0.4,0.1-0.7,0.2-1.1,0.4v-1.6
				C897.7,608.8,898.1,608.7,898.6,608.6z M902,608.5c-0.2-0.6-0.4-1.4-0.6-2.5c-0.1-0.6-0.2-1.1-0.3-1.4c-0.1-0.3-0.3-0.5-0.5-0.6
				c-0.2-0.1-0.5-0.2-0.7-0.2c-0.4,0-0.8,0.2-1,0.5c-0.3,0.3-0.4,0.8-0.4,1.4c0,0.6,0.1,1.1,0.4,1.6c0.3,0.5,0.6,0.8,1.1,1
				c0.4,0.2,0.9,0.2,1.6,0.2H902z"/>
		</g>
		<g>
			<path class="st2" d="M897.4,611.4l4.8,3.3l4.4-3.1v1.9l-2.1,1.4c-0.4,0.3-0.7,0.5-1,0.6c0.4,0.3,0.7,0.5,1,0.7l2.2,1.5v1.9
				l-4.3-3.2l-4.8,3.4v-1.9l2.8-1.9l0.8-0.5l-3.6-2.4V611.4z"/>
		</g>
		<g>
			<path class="st2" d="M926.1,490.7l9.1-3.5v1.6l-5.5,2c-0.6,0.2-1.2,0.4-1.8,0.6c0.5,0.1,1.1,0.3,1.7,0.6l5.6,2v1.6l-9.1-3.5
				V490.7z"/>
			<path class="st2" d="M929.7,505.1v-8.3h1.4v8.3H929.7z M933.5,505.1v-8.3h1.4v8.3H933.5z"/>
			<path class="st2" d="M937,506.9h1.5v8.2h-1.2c-0.9-0.8-2-1.6-3.4-2.4s-2.9-1.4-4.4-1.8c-1.1-0.3-2.2-0.5-3.5-0.6v-1.6
				c1,0,2.2,0.2,3.6,0.6c1.4,0.4,2.8,0.9,4.1,1.6c1.3,0.7,2.4,1.4,3.3,2.2V506.9z"/>
			<path class="st2" d="M926.1,522.5v-1.6h9.9c-0.4-0.4-0.7-0.9-1.1-1.5s-0.6-1.1-0.8-1.6h1.5c0.4,0.9,0.9,1.6,1.5,2.3
				c0.6,0.6,1.1,1.1,1.7,1.4v1H926.1z"/>
		</g>
		<g>
			<path class="st2" d="M482.2,77.3h-1.6v-9.9c-0.4,0.4-0.9,0.7-1.5,1.1c-0.6,0.4-1.1,0.6-1.6,0.8v-1.5c0.9-0.4,1.6-0.9,2.3-1.5
				c0.6-0.6,1.1-1.1,1.4-1.7h1V77.3z"/>
			<path class="st2" d="M491.1,77.3v-3h-5.5v-1.4l5.8-8.2h1.3v8.2h1.7v1.4h-1.7v3H491.1z M491.1,72.9v-5.7l-4,5.7H491.1z"/>
			<path class="st2" d="M496,71.1c0-1.5,0.2-2.7,0.5-3.6c0.3-0.9,0.8-1.6,1.4-2.1c0.6-0.5,1.4-0.7,2.3-0.7c0.7,0,1.3,0.1,1.8,0.4
				c0.5,0.3,0.9,0.7,1.3,1.2c0.3,0.5,0.6,1.1,0.8,1.9c0.2,0.7,0.3,1.7,0.3,3c0,1.5-0.2,2.7-0.5,3.6c-0.3,0.9-0.8,1.6-1.4,2.1
				c-0.6,0.5-1.4,0.7-2.3,0.7c-1.2,0-2.2-0.4-2.9-1.3C496.4,75.2,496,73.5,496,71.1z M497.6,71.1c0,2.1,0.2,3.5,0.7,4.1
				c0.5,0.7,1.1,1,1.8,1c0.7,0,1.3-0.3,1.8-1c0.5-0.7,0.7-2.1,0.7-4.1c0-2.1-0.2-3.5-0.7-4.1c-0.5-0.7-1.1-1-1.8-1
				c-0.7,0-1.3,0.3-1.7,0.9C497.8,67.6,497.6,69,497.6,71.1z"/>
		</g>
		<g>
			<path class="st2" d="M470.8,693.1v1.5h-8.3c0-0.4,0-0.7,0.2-1.1c0.2-0.6,0.6-1.1,1-1.7c0.5-0.6,1.1-1.2,2-1.9
				c1.4-1.1,2.3-2,2.8-2.7c0.5-0.7,0.7-1.3,0.7-1.9c0-0.6-0.2-1.1-0.7-1.6c-0.4-0.4-1-0.6-1.7-0.6c-0.7,0-1.3,0.2-1.8,0.7
				c-0.4,0.4-0.7,1.1-0.7,1.9l-1.6-0.2c0.1-1.2,0.5-2.1,1.2-2.7c0.7-0.6,1.7-0.9,2.9-0.9c1.2,0,2.2,0.3,2.9,1s1.1,1.5,1.1,2.5
				c0,0.5-0.1,1-0.3,1.5s-0.5,1-1,1.5c-0.5,0.5-1.3,1.3-2.4,2.2c-0.9,0.8-1.5,1.3-1.8,1.6c-0.3,0.3-0.5,0.6-0.7,0.8H470.8z"/>
			<path class="st2" d="M480.7,693.1v1.5h-8.3c0-0.4,0-0.7,0.2-1.1c0.2-0.6,0.6-1.1,1-1.7c0.5-0.6,1.1-1.2,2-1.9
				c1.4-1.1,2.3-2,2.8-2.7c0.5-0.7,0.7-1.3,0.7-1.9c0-0.6-0.2-1.1-0.7-1.6c-0.4-0.4-1-0.6-1.7-0.6c-0.7,0-1.3,0.2-1.8,0.7
				c-0.4,0.4-0.7,1.1-0.7,1.9l-1.6-0.2c0.1-1.2,0.5-2.1,1.2-2.7c0.7-0.6,1.7-0.9,2.9-0.9c1.2,0,2.2,0.3,2.9,1s1.1,1.5,1.1,2.5
				c0,0.5-0.1,1-0.3,1.5s-0.5,1-1,1.5c-0.5,0.5-1.3,1.3-2.4,2.2c-0.9,0.8-1.5,1.3-1.8,1.6c-0.3,0.3-0.5,0.6-0.7,0.8H480.7z"/>
			<path class="st2" d="M482.5,691.7l1.5-0.1c0.1,0.7,0.4,1.2,0.7,1.5c0.4,0.3,0.8,0.5,1.4,0.5c0.5,0,0.9-0.1,1.3-0.3
				c0.4-0.2,0.7-0.5,0.9-0.9c0.2-0.4,0.4-0.9,0.6-1.5c0.2-0.6,0.2-1.3,0.2-1.9c0-0.1,0-0.2,0-0.3c-0.3,0.5-0.7,0.9-1.3,1.2
				c-0.5,0.3-1.1,0.5-1.7,0.5c-1,0-1.9-0.4-2.7-1.1s-1.1-1.8-1.1-3c0-1.3,0.4-2.3,1.1-3.1c0.8-0.8,1.7-1.2,2.8-1.2
				c0.8,0,1.6,0.2,2.3,0.7c0.7,0.4,1.2,1.1,1.5,1.9s0.5,2,0.5,3.6c0,1.6-0.2,2.9-0.5,3.9s-0.9,1.7-1.6,2.2c-0.7,0.5-1.5,0.7-2.4,0.7
				c-1,0-1.8-0.3-2.4-0.8C483.1,693.4,482.7,692.7,482.5,691.7z M488.9,686.1c0-0.9-0.2-1.6-0.7-2.1c-0.5-0.5-1-0.8-1.7-0.8
				c-0.7,0-1.3,0.3-1.8,0.8s-0.8,1.3-0.8,2.2c0,0.8,0.2,1.5,0.7,2c0.5,0.5,1.1,0.8,1.8,0.8c0.7,0,1.3-0.3,1.8-0.8
				C488.7,687.7,488.9,687,488.9,686.1z"/>
		</g>
		<g>
			<path class="st2" d="M925.8,238.7l9.1-3.5v1.6l-5.5,2c-0.6,0.2-1.2,0.4-1.8,0.6c0.5,0.1,1.1,0.3,1.7,0.6l5.6,2v1.6l-9.1-3.5
				V238.7z"/>
			<path class="st2" d="M929.4,258.1v-8.3h1.4v8.3H929.4z M933.2,258.1v-8.3h1.4v8.3H933.2z"/>
			<path class="st2" d="M932.7,262.2c0.2-0.6,0.6-1.1,1-1.4c0.4-0.3,1-0.5,1.6-0.5c0.9,0,1.7,0.3,2.3,1c0.6,0.7,0.9,1.5,0.9,2.6
				c0,1.1-0.3,2-1,2.7c-0.6,0.7-1.4,1-2.3,1c-0.6,0-1.1-0.2-1.5-0.5c-0.4-0.3-0.8-0.8-1-1.4c-0.3,0.8-0.7,1.4-1.2,1.8
				s-1.2,0.6-2,0.6c-1.1,0-2-0.4-2.7-1.1s-1.1-1.8-1.1-3c0-1.2,0.4-2.3,1.1-3s1.7-1.1,2.8-1.1c0.8,0,1.5,0.2,2.1,0.6
				C932.1,260.8,932.5,261.4,932.7,262.2z M929.5,261.4c-0.4,0-0.9,0.1-1.3,0.3c-0.4,0.2-0.7,0.5-1,0.9c-0.2,0.4-0.3,0.9-0.3,1.3
				c0,0.7,0.2,1.4,0.7,1.8c0.5,0.5,1.1,0.7,1.8,0.7c0.7,0,1.4-0.2,1.9-0.7c0.5-0.5,0.7-1.1,0.7-1.9c0-0.7-0.2-1.3-0.7-1.8
				C930.8,261.6,930.2,261.4,929.5,261.4z M935.3,261.9c-0.6,0-1.1,0.2-1.5,0.6c-0.4,0.4-0.6,0.9-0.6,1.5c0,0.6,0.2,1.1,0.6,1.5
				s0.8,0.6,1.4,0.6c0.6,0,1-0.2,1.4-0.6c0.4-0.4,0.6-0.9,0.6-1.5c0-0.6-0.2-1.1-0.6-1.5C936.3,262.1,935.8,261.9,935.3,261.9z"/>
			<path class="st2" d="M935.4,277.6l-0.1-1.5c0.6-0.1,1.1-0.3,1.3-0.6c0.4-0.4,0.7-0.9,0.7-1.6c0-0.5-0.1-0.9-0.4-1.3
				c-0.4-0.5-0.9-0.9-1.6-1.2s-1.7-0.4-2.9-0.4c0.6,0.4,1,0.8,1.3,1.4c0.3,0.5,0.4,1.1,0.4,1.7c0,1-0.4,1.9-1.1,2.6
				c-0.8,0.7-1.7,1.1-2.9,1.1c-0.8,0-1.5-0.2-2.2-0.5c-0.7-0.3-1.2-0.8-1.6-1.4s-0.5-1.3-0.5-2c0-1.3,0.5-2.3,1.4-3.2
				c0.9-0.8,2.5-1.2,4.7-1.2c2.4,0,4.2,0.5,5.3,1.4c1,0.8,1.4,1.8,1.4,3.2c0,1-0.3,1.8-0.8,2.4C937.1,277.1,936.3,277.5,935.4,277.6
				z M929.9,271.3c-0.5,0-1,0.1-1.5,0.3c-0.5,0.2-0.9,0.5-1.1,1c-0.3,0.4-0.4,0.8-0.4,1.3c0,0.7,0.3,1.2,0.8,1.7
				c0.5,0.5,1.2,0.7,2.2,0.7c0.9,0,1.6-0.2,2.1-0.7c0.5-0.5,0.8-1.1,0.8-1.8c0-0.7-0.3-1.3-0.8-1.8
				C931.4,271.6,930.7,271.3,929.9,271.3z"/>
			<path class="st2" d="M925.8,280.3h1.8v1.8h-1.8V280.3z"/>
		</g>
		<g>
			<path class="st2" d="M927.3,292.4h-1.5v-8.3c0.4,0,0.7,0,1.1,0.2c0.6,0.2,1.1,0.6,1.7,1c0.6,0.5,1.2,1.1,1.9,2
				c1.1,1.4,2,2.3,2.7,2.8c0.7,0.5,1.3,0.7,1.9,0.7c0.6,0,1.1-0.2,1.6-0.7c0.4-0.4,0.6-1,0.6-1.7c0-0.7-0.2-1.3-0.7-1.8
				s-1.1-0.7-1.9-0.7l0.2-1.6c1.2,0.1,2.1,0.5,2.7,1.2c0.6,0.7,0.9,1.7,0.9,2.9c0,1.2-0.3,2.2-1,2.9s-1.5,1.1-2.5,1.1
				c-0.5,0-1-0.1-1.5-0.3c-0.5-0.2-1-0.5-1.5-1c-0.5-0.5-1.3-1.3-2.2-2.4c-0.8-0.9-1.3-1.5-1.6-1.8c-0.3-0.3-0.6-0.5-0.8-0.7V292.4z
				"/>
		</g>
		<polygon class="st2" points="935.3,245.8 937.7,246.9 937.7,248.9 935.3,247.1 		"/>
		<g>
			<path class="st2" d="M960,343.7v-1.6h9.9c-0.4-0.4-0.7-0.9-1.1-1.5c-0.4-0.6-0.6-1.1-0.8-1.6h1.5c0.4,0.9,0.9,1.6,1.5,2.3
				c0.6,0.6,1.1,1.1,1.7,1.4v1H960z"/>
			<path class="st2" d="M963.3,347.6l0.1,1.6c-0.8,0.1-1.4,0.4-1.8,0.8c-0.4,0.4-0.6,1-0.6,1.6c0,0.7,0.3,1.4,0.8,1.9
				c0.6,0.5,1.3,0.8,2.2,0.8c0.9,0,1.6-0.2,2.1-0.7c0.5-0.5,0.8-1.1,0.8-2c0-0.5-0.1-1-0.3-1.4c-0.2-0.4-0.5-0.7-0.9-0.9l0.2-1.5
				l6.5,1.2v6.3h-1.5v-5l-3.4-0.7c0.5,0.8,0.8,1.6,0.8,2.4c0,1.1-0.4,2-1.1,2.8s-1.7,1.1-2.9,1.1c-1.1,0-2.1-0.3-3-1
				c-1-0.8-1.5-1.9-1.5-3.3c0-1.1,0.3-2.1,1-2.8S962.2,347.7,963.3,347.6z"/>
			<path class="st2" d="M970.9,357.6h1.5v8.2h-1.2c-0.9-0.8-2-1.6-3.4-2.4c-1.4-0.8-2.9-1.4-4.4-1.8c-1.1-0.3-2.2-0.5-3.5-0.6v-1.6
				c1,0,2.2,0.2,3.6,0.6c1.4,0.4,2.8,0.9,4.1,1.6c1.3,0.7,2.4,1.4,3.3,2.2V357.6z"/>
			<path class="st2" d="M960,368.1h1.8v1.8H960V368.1z"/>
		</g>
		<g>
			<path class="st2" d="M961.5,380.3H960v-8.3c0.4,0,0.7,0,1.1,0.2c0.6,0.2,1.1,0.6,1.7,1c0.6,0.5,1.2,1.1,1.9,2
				c1.1,1.4,2,2.3,2.7,2.8c0.7,0.5,1.3,0.7,1.9,0.7c0.6,0,1.1-0.2,1.6-0.7c0.4-0.4,0.6-1,0.6-1.7c0-0.7-0.2-1.3-0.7-1.8
				s-1.1-0.7-1.9-0.7l0.2-1.6c1.2,0.1,2.1,0.5,2.7,1.2c0.6,0.7,0.9,1.7,0.9,2.9c0,1.2-0.3,2.2-1,2.9s-1.5,1.1-2.5,1.1
				c-0.5,0-1-0.1-1.5-0.3c-0.5-0.2-1-0.5-1.5-1c-0.5-0.5-1.3-1.3-2.2-2.4c-0.8-0.9-1.3-1.5-1.6-1.8c-0.3-0.3-0.6-0.5-0.8-0.7V380.3z
				"/>
		</g>
		<g>
			<path class="st2" d="M898.8,173.7h3v-5.5h1.4l8.2,5.8v1.3h-8.2v1.7h-1.4v-1.7h-3V173.7z M903.3,173.7h5.7l-5.7-4V173.7z"/>
			<path class="st2" d="M898.8,184.4v-1.6h9.9c-0.4-0.4-0.7-0.9-1.1-1.5c-0.4-0.6-0.6-1.1-0.8-1.6h1.5c0.4,0.9,0.9,1.6,1.5,2.3
				c0.6,0.6,1.1,1.1,1.7,1.4v1H898.8z"/>
			<path class="st2" d="M898.8,189.2h1.8v1.8h-1.8V189.2z"/>
		</g>
		<g>
			<path class="st2" d="M902.2,193.3l0.2,1.5c-0.9,0.2-1.5,0.5-1.9,0.9c-0.4,0.4-0.6,0.9-0.6,1.6c0,0.7,0.3,1.3,0.8,1.8
				c0.5,0.5,1.1,0.8,1.9,0.8c0.7,0,1.3-0.2,1.8-0.7c0.5-0.5,0.7-1.1,0.7-1.8c0-0.3-0.1-0.7-0.2-1.1l1.4,0.2c0,0.1,0,0.2,0,0.2
				c0,0.7,0.2,1.3,0.5,1.8c0.3,0.5,0.9,0.8,1.6,0.8c0.6,0,1-0.2,1.4-0.6c0.4-0.4,0.6-0.9,0.6-1.5c0-0.6-0.2-1.1-0.6-1.5
				c-0.4-0.4-0.9-0.7-1.7-0.8l0.3-1.5c1,0.2,1.8,0.6,2.4,1.3c0.6,0.7,0.9,1.5,0.9,2.5c0,0.7-0.1,1.3-0.4,1.9c-0.3,0.6-0.7,1-1.2,1.3
				c-0.5,0.3-1.1,0.5-1.6,0.5c-0.5,0-1-0.1-1.5-0.4c-0.4-0.3-0.8-0.7-1.1-1.3c-0.2,0.7-0.5,1.3-1.1,1.7c-0.5,0.4-1.2,0.6-2,0.6
				c-1.1,0-2-0.4-2.8-1.2c-0.8-0.8-1.1-1.8-1.1-3c0-1.1,0.3-2,1-2.8C900.3,193.8,901.1,193.4,902.2,193.3z"/>
		</g>
	</g>
</g>
<g id="Watermark">
	<g>
		<rect x="438.5" y="414.7" class="st0" width="123.1" height="46.3"/>
		<g>
			<rect x="444.9" y="422.5" class="st75" width="62.9" height="30.6"/>
			<rect x="507.7" y="422.5" class="st75" width="47.4" height="30.6"/>
			<g>
				<path class="st76" d="M466.5,428.6l-2.8,18.9H461l-1.6-11l-1.5,11h-2.7l-2.8-18.9h2.5l1.8,14.2l1.8-14.2h2l1.8,14.2l1.8-14.2
					H466.5z"/>
				<path class="st76" d="M467.9,447.5v-18.9h2.5v18.9H467.9z"/>
				<path class="st76" d="M472.8,428.6h5c1.9,0,2.9,1.1,2.9,3.2v4.7c0,1.7-0.5,2.7-1.5,3.1l1.8,7.9h-2.4l-1.7-7.6h-1.5v7.6h-2.5
					V428.6z M475.4,437.7h1.7c0.8,0,1.1-0.5,1.1-1.4v-4.1c0-0.9-0.4-1.4-1.1-1.4h-1.7V437.7z"/>
				<path class="st76" d="M486.8,430.9v16.6h-2.5v-16.6h-2.4v-2.3h7.4v2.3H486.8z"/>
				<path class="st76" d="M496.3,447.5V439h-3.1v8.6h-2.5v-18.9h2.5v8h3.1v-8h2.5v18.9H496.3z"/>
			</g>
			<g>
				<path class="st76" d="M516.3,428.6h5c1.9,0,2.9,1.1,2.9,3.2v4.7c0,1.7-0.5,2.7-1.5,3.1l1.8,7.9H522l-1.7-7.6h-1.5v7.6h-2.5
					V428.6z M518.8,437.7h1.7c0.8,0,1.1-0.5,1.1-1.4v-4.1c0-0.9-0.4-1.4-1.1-1.4h-1.7V437.7z"/>
				<path class="st76" d="M528.7,447.5h-2.5v-15.7c0-2.2,1-3.2,3-3.2h1.9c2,0,3,1.1,3,3.2v15.7h-2.5v-6.9h-2.9V447.5z M531.6,438.3
					V432c0-0.7-0.4-1.1-1.1-1.1h-0.7c-0.7,0-1.1,0.4-1.1,1.1v6.3H531.6z"/>
				<path class="st76" d="M536.3,447.5v-18.9h2.5v18.9H536.3z"/>
				<path class="st76" d="M547.2,447.5h-6v-18.9h2.5v16.6h3.5V447.5z"/>
			</g>
		</g>
	</g>
</g>
</svg>
