<?xml version="1.0" encoding="utf-8"?>
<!-- Generator: Adobe Illustrator 25.2.3, SVG Export Plug-In . SVG Version: 6.00 Build 0)  -->
<svg version="1.1" xmlns="http://www.w3.org/2000/svg" xmlns:xlink="http://www.w3.org/1999/xlink" x="0px" y="0px"
	 viewBox="0 0 1000 800" style="enable-background:new 0 0 1000 800;" xml:space="preserve">
<style type="text/css">
	.st0{fill:#F0F0F0;}
	.st1{fill:none;stroke:#221E1F;stroke-width:1.0614;}
	.st2{fill:#221E1F;}
	.st3{fill:none;stroke:#221E1F;stroke-width:1.0614;stroke-dasharray:12.8405,6.4722;}
	.st4{fill:none;stroke:#000000;stroke-width:1.404;}
	.st5{fill:none;stroke:#000000;stroke-width:0.975;}
	.st6{fill:none;stroke:#000000;stroke-width:0.975;stroke-dasharray:11.5538,5.7038;}
	.st7{fill:none;stroke:#000000;stroke-width:0.975;stroke-miterlimit:10;}
	.st8{fill:none;stroke:#221E1F;stroke-width:0.8906;}
	.st9{fill:none;stroke:#221E1F;stroke-width:0.8819;}
	.st10{clip-path:url(#SVGID_2_);fill:none;stroke:#221E1F;stroke-width:0.8819;}
	.st11{clip-path:url(#SVGID_4_);fill:none;stroke:#221E1F;stroke-width:0.8819;}
	.st12{fill:#303030;}
	.st13{fill:none;stroke:#303030;stroke-width:0.8906;stroke-miterlimit:10;}
	.st14{clip-path:url(#SVGID_6_);fill:none;stroke:#221E1F;stroke-width:0.8906;}
	.st15{fill:none;stroke:#221E1F;stroke-width:0.8906;stroke-dasharray:23.0235,6.997;}
	.st16{fill:none;stroke:#221E1F;stroke-width:0.8906;stroke-dasharray:19.498,3.4714;}
	.st17{fill:none;stroke:#221E1F;stroke-width:0.8906;stroke-dasharray:21.3897,6.2234;}
	.st18{clip-path:url(#SVGID_8_);fill:none;stroke:#221E1F;stroke-width:0.8025;}
	.st19{fill:none;stroke:#221E1F;stroke-width:0.7299;}
	.st20{clip-path:url(#SVGID_10_);fill:none;stroke:#221E1F;stroke-width:0.8025;}
	.st21{fill:none;stroke:#221E1F;stroke-width:0.7726;}
	.st22{fill:none;stroke:#221E1F;stroke-width:0.8025;}
	.st23{fill:none;stroke:#221E1F;stroke-width:0.8025;stroke-dasharray:21.5886,6.6505;}
	.st24{fill:none;stroke:#303030;stroke-width:0.8025;stroke-miterlimit:10;}
	.st25{fill:none;stroke:#221E1F;stroke-width:0.811;stroke-dasharray:21.8106,6.6911;}
	.st26{fill:none;stroke:#221E1F;stroke-width:0.811;stroke-dasharray:16.7651,1.6456;}
	.st27{fill:none;stroke:#221E1F;stroke-width:0.811;}
	.st28{clip-path:url(#SVGID_12_);fill:#221E1F;}
	.st29{fill:none;stroke:#221E1F;stroke-width:1.2695;}
	.st30{fill:none;stroke:#221E1F;stroke-width:0.8814;}
	.st31{fill:none;stroke:#221E1F;stroke-width:1.4133;}
	.st32{fill:none;stroke:#221E1F;stroke-width:0.9807;}
	.st33{fill:none;stroke:#221E1F;stroke-width:0.9807;stroke-dasharray:13.5825,6.7924;}
	.st34{fill:none;stroke:#221E1F;stroke-width:0.9807;stroke-dasharray:19.5641,12.5429;}
	.st35{fill:none;stroke:#221E1F;stroke-width:1.1332;}
	.st36{fill:none;stroke:#221E1F;stroke-width:1.7102;}
	.st37{fill:none;stroke:#221E1F;stroke-width:1.2031;stroke-linecap:round;stroke-linejoin:round;stroke-miterlimit:10;}
	.st38{fill:none;stroke:#221E1F;stroke-width:1.2031;}
	.st39{fill:none;stroke:#221E1F;stroke-width:1.2031;stroke-miterlimit:10;}
	
		.st40{fill:none;stroke:#221E1F;stroke-width:1.2031;stroke-linecap:round;stroke-linejoin:round;stroke-miterlimit:10;stroke-dasharray:9.1021,1.1746,1.1746,1.1746;stroke-dashoffset:10;}
	
		.st41{fill:none;stroke:#221E1F;stroke-width:1.2031;stroke-linecap:round;stroke-linejoin:round;stroke-miterlimit:10;stroke-dasharray:9.1228,1.1953,1.1953,1.1953;stroke-dashoffset:10;}
	.st42{fill:none;stroke:#221E1F;stroke-width:1.0246;}
	.st43{fill:none;stroke:#221E1F;stroke-width:1.0246;stroke-dasharray:5.7593,5.7593;}
	.st44{fill:none;stroke:#221E1F;stroke-width:1.0582;}
	.st45{fill:none;stroke:#221E1F;stroke-width:1.0246;stroke-dasharray:5.8059,5.8059;}
	.st46{fill:none;stroke:#241F21;stroke-width:0.8839;}
	.st47{fill:#241F21;}
	.st48{fill:none;stroke:#241F21;stroke-width:1.2533;}
	.st49{fill:none;stroke:#241F21;stroke-width:0.7133;stroke-linecap:round;stroke-linejoin:round;stroke-miterlimit:10;}
	.st50{fill:none;stroke:#241F21;stroke-width:0.8839;stroke-miterlimit:10;}
	
		.st51{clip-path:url(#SVGID_14_);fill:none;stroke:#241F21;stroke-width:0.8839;stroke-linecap:round;stroke-linejoin:round;stroke-miterlimit:10;}
	.st52{clip-path:url(#SVGID_14_);fill:none;stroke:#241F21;stroke-width:0.8839;stroke-miterlimit:10;}
	.st53{fill:none;stroke:#241F21;stroke-width:0.8839;stroke-linecap:round;stroke-linejoin:round;stroke-miterlimit:10;}
	.st54{fill:none;stroke:#241F21;stroke-width:0.7642;stroke-linecap:round;stroke-linejoin:round;stroke-miterlimit:10;}
	
		.st55{fill:none;stroke:#241F21;stroke-width:0.7133;stroke-linecap:round;stroke-linejoin:round;stroke-miterlimit:10;stroke-dasharray:9.9652,1.3195,1.3195,1.3195;stroke-dashoffset:11;}
	
		.st56{fill:none;stroke:#241F21;stroke-width:0.7133;stroke-linecap:round;stroke-linejoin:round;stroke-miterlimit:10;stroke-dasharray:9.7079,1.0622,1.0622,1.0622;stroke-dashoffset:10;}
	.st57{fill:none;stroke:#241F21;stroke-width:0.8839;stroke-dasharray:5.5991,5.5991;}
	.st58{fill:none;stroke:#241F21;stroke-width:0.7515;stroke-dasharray:5.6857,5.6857;}
	.st59{fill:none;stroke:#221E1F;stroke-width:1.0101;stroke-miterlimit:10;}
	.st60{fill:none;stroke:#221E1F;stroke-width:1.0012;}
	.st61{fill:none;stroke:#221E1F;stroke-width:0.9081;}
	.st62{fill:none;stroke:#221E1F;stroke-width:1.0385;}
	.st63{fill:none;stroke:#221E1F;stroke-width:0.9081;stroke-dasharray:20.8407,6.1278;}
	.st64{fill:none;stroke:#221E1F;stroke-width:1.406;}
	.st65{fill:none;stroke:#221E1F;stroke-width:0.9906;}
	.st66{fill:none;stroke:#221E1F;stroke-width:0.9887;}
	.st67{fill:none;stroke:#221E1F;stroke-width:0.8443;}
	.st68{fill:none;stroke:#221E1F;stroke-width:0.8443;stroke-dasharray:4.4655,4.4655;}
	.st69{fill:none;stroke:#221E1F;stroke-width:1.7608;}
	.st70{fill:none;stroke:#221E1F;stroke-width:1.0549;}
	.st71{clip-path:url(#SVGID_16_);fill:none;stroke:#221E1F;stroke-width:1.0549;}
	.st72{fill:none;stroke:#221E1F;stroke-width:1.0549;stroke-dasharray:5.538,5.538;}
	.st73{clip-path:url(#SVGID_18_);}
	.st74{clip-path:url(#SVGID_20_);}
	.st75{fill:#F0F0F0;stroke:#CCCCCC;stroke-miterlimit:10;}
	.st76{fill:#CCCCCC;}
</style>
<g id="Flat">
	<g>
		<g>
			<path class="st0" d="M291.7,46.7c-12.8,0-23.2,10.4-23.2,23.2v146.4c0,18.2,12.8,34,30.6,37.8l26,5.5
				c57.1,12.1,97.9,62.5,97.9,120.9v160.8c0,36.5-25.5,68-61.2,75.6l-178.6,38c-17.8,3.8-30.6,19.5-30.6,37.8v41.6
				c0,4.3,3.5,7.7,7.7,7.7h679.8c4.3,0,7.7-3.5,7.7-7.7v-41.6c0-18.2-12.8-34-30.6-37.8l-178.6-38c-35.7-7.6-61.2-39.1-61.2-75.6
				V380.5c0-58.4,40.8-108.8,97.9-120.9l26-5.5c17.8-3.8,30.6-19.5,30.6-37.8V69.9c0-12.8-10.4-23.2-23.2-23.2H291.7z"/>
		</g>
		<g>
			<defs>
				<rect id="SVGID_7_" x="152.2" y="11" width="725.7" height="783.3"/>
			</defs>
			<clipPath id="SVGID_2_">
				<use xlink:href="#SVGID_7_"  style="overflow:visible;"/>
			</clipPath>
			<path style="clip-path:url(#SVGID_2_);fill:none;stroke:#221E1F;stroke-width:0.8025;" d="M291.7,46.7
				c-12.8,0-23.2,10.4-23.2,23.2v146.4c0,18.2,12.8,34,30.6,37.8l26,5.5c57.1,12.1,97.9,62.5,97.9,120.9v160.8
				c0,36.5-25.5,68-61.2,75.6l-178.6,38c-17.8,3.8-30.6,19.5-30.6,37.8v41.6c0,4.3,3.5,7.7,7.7,7.7h679.8c4.3,0,7.7-3.5,7.7-7.7
				v-41.6c0-18.2-12.8-34-30.6-37.8l-178.6-38c-35.7-7.6-61.2-39.1-61.2-75.6V380.5c0-58.4,40.8-108.8,97.9-120.9l26-5.5
				c17.8-3.8,30.6-19.5,30.6-37.8V69.9c0-12.8-10.4-23.2-23.2-23.2H291.7z"/>
		</g>
		<line class="st19" x1="431" y1="499.8" x2="569.2" y2="499.8"/>
		<g>
			<path class="st2" d="M572.1,498.3c-2.1-0.7-3.4-1.3-5-2.1v7c0.6-0.3,3-1.4,5-2.1c2.2-0.7,4.2-1.2,5.5-1.4
				C576.3,499.6,574.3,499.1,572.1,498.3"/>
			<path class="st2" d="M428,501.2c2.1,0.7,3.4,1.3,5,2.1v-7c-0.6,0.3-3,1.4-5,2.1c-2.2,0.7-4.2,1.3-5.5,1.4
				C423.8,499.9,425.8,500.4,428,501.2"/>
		</g>
		<g>
			<path class="st12" d="M820.7,243.7l-8.3,3.2v-1.2l6-2.1c0.5-0.2,0.9-0.3,1.4-0.4c-0.5-0.1-0.9-0.3-1.4-0.4l-6-2.2v-1.1l8.3,3.2
				V243.7z"/>
			<path class="st12" d="M815.4,238.5l-1.5,0.3h-1.4v-1.2h1.4l1.5,0.3V238.5z"/>
			<path class="st12" d="M815.8,231v5.4h-0.9V231H815.8z M818.3,231v5.4h-0.9V231H818.3z"/>
			<path class="st12" d="M818.8,226.5l-0.1-1c0.5-0.1,0.8-0.2,1-0.5c0.2-0.2,0.3-0.5,0.3-0.9c0-0.3-0.1-0.6-0.2-0.8
				s-0.3-0.4-0.6-0.6c-0.2-0.2-0.6-0.3-1-0.4c-0.4-0.1-0.8-0.2-1.2-0.2c0,0-0.1,0-0.2,0c0.3,0.2,0.6,0.5,0.8,0.8
				c0.2,0.4,0.3,0.7,0.3,1.1c0,0.7-0.2,1.3-0.7,1.7c-0.5,0.5-1.1,0.7-2,0.7c-0.8,0-1.5-0.2-2-0.7c-0.5-0.5-0.8-1.1-0.8-1.9
				c0-0.5,0.1-1,0.4-1.5c0.3-0.4,0.7-0.8,1.2-1c0.5-0.2,1.3-0.3,2.3-0.3c1.1,0,1.9,0.1,2.5,0.3s1.1,0.6,1.4,1c0.3,0.5,0.5,1,0.5,1.6
				c0,0.6-0.2,1.2-0.5,1.6S819.4,226.4,818.8,226.5z M815.1,222.4c-0.6,0-1,0.2-1.4,0.5s-0.5,0.7-0.5,1.1c0,0.5,0.2,0.8,0.6,1.2
				s0.8,0.5,1.4,0.5c0.5,0,1-0.2,1.3-0.5c0.3-0.3,0.5-0.7,0.5-1.2c0-0.5-0.2-0.9-0.5-1.2C816.2,222.5,815.7,222.4,815.1,222.4z"/>
			<path class="st12" d="M820.7,216.4v1h-6.5c0.2,0.2,0.5,0.6,0.7,1c0.2,0.4,0.4,0.8,0.5,1.1h-1c-0.3-0.6-0.6-1.1-1-1.5
				c-0.4-0.4-0.7-0.7-1.1-0.9v-0.7H820.7z"/>
			<path class="st12" d="M820.7,213.3h-1.2v-1.2h1.2V213.3z"/>
			<path class="st12" d="M820.7,207.4h-2v3.6h-0.9l-5.3-3.8v-0.8h5.3v-1.1h0.9v1.1h2V207.4z M817.8,207.4h-3.7l3.7,2.6V207.4z"/>
		</g>
		<g>
			<path class="st12" d="M820.7,588.2l-8.3,3.2v-1.2l6-2.1c0.5-0.2,0.9-0.3,1.4-0.4c-0.5-0.1-0.9-0.3-1.4-0.4l-6-2.2v-1.1l8.3,3.2
				V588.2z"/>
			<path class="st12" d="M815.8,577.7v5.4h-0.9v-5.4H815.8z M818.3,577.7v5.4h-0.9v-5.4H818.3z"/>
			<path class="st12" d="M816.2,571.8c-0.2,0.4-0.4,0.7-0.7,0.9c-0.3,0.2-0.6,0.3-1,0.3c-0.6,0-1.1-0.2-1.5-0.6s-0.6-1-0.6-1.7
				c0-0.7,0.2-1.3,0.6-1.7s0.9-0.7,1.5-0.7c0.4,0,0.7,0.1,1,0.3c0.3,0.2,0.5,0.5,0.7,0.9c0.2-0.5,0.4-0.9,0.8-1.2
				c0.4-0.3,0.8-0.4,1.3-0.4c0.7,0,1.3,0.2,1.8,0.7c0.5,0.5,0.7,1.2,0.7,2s-0.2,1.5-0.7,2c-0.5,0.5-1.1,0.7-1.8,0.7
				c-0.5,0-1-0.1-1.3-0.4C816.6,572.7,816.3,572.3,816.2,571.8z M814.5,572c0.4,0,0.7-0.1,1-0.4c0.2-0.3,0.4-0.6,0.4-1
				c0-0.4-0.1-0.7-0.4-1c-0.2-0.2-0.5-0.4-0.9-0.4c-0.4,0-0.7,0.1-0.9,0.4c-0.3,0.3-0.4,0.6-0.4,1c0,0.4,0.1,0.7,0.4,1
				S814.2,572,814.5,572z M818.3,572.4c0.3,0,0.6-0.1,0.8-0.2c0.3-0.1,0.5-0.3,0.6-0.6c0.1-0.3,0.2-0.6,0.2-0.9
				c0-0.5-0.2-0.9-0.5-1.2c-0.3-0.3-0.7-0.5-1.2-0.5c-0.5,0-0.9,0.2-1.2,0.5c-0.3,0.3-0.5,0.7-0.5,1.2c0,0.5,0.2,0.9,0.5,1.2
				S817.8,572.4,818.3,572.4z"/>
			<path class="st12" d="M816.2,565.4c-0.2,0.4-0.4,0.7-0.7,0.9c-0.3,0.2-0.6,0.3-1,0.3c-0.6,0-1.1-0.2-1.5-0.6s-0.6-1-0.6-1.7
				c0-0.7,0.2-1.3,0.6-1.7s0.9-0.7,1.5-0.7c0.4,0,0.7,0.1,1,0.3c0.3,0.2,0.5,0.5,0.7,0.9c0.2-0.5,0.4-0.9,0.8-1.2
				c0.4-0.3,0.8-0.4,1.3-0.4c0.7,0,1.3,0.2,1.8,0.7c0.5,0.5,0.7,1.2,0.7,2s-0.2,1.5-0.7,2c-0.5,0.5-1.1,0.7-1.8,0.7
				c-0.5,0-1-0.1-1.3-0.4C816.6,566.3,816.3,565.9,816.2,565.4z M814.5,565.6c0.4,0,0.7-0.1,1-0.4c0.2-0.3,0.4-0.6,0.4-1
				c0-0.4-0.1-0.7-0.4-1c-0.2-0.2-0.5-0.4-0.9-0.4c-0.4,0-0.7,0.1-0.9,0.4c-0.3,0.3-0.4,0.6-0.4,1c0,0.4,0.1,0.7,0.4,1
				S814.2,565.6,814.5,565.6z M818.3,565.9c0.3,0,0.6-0.1,0.8-0.2c0.3-0.1,0.5-0.3,0.6-0.6c0.1-0.3,0.2-0.6,0.2-0.9
				c0-0.5-0.2-0.9-0.5-1.2c-0.3-0.3-0.7-0.5-1.2-0.5c-0.5,0-0.9,0.2-1.2,0.5c-0.3,0.3-0.5,0.7-0.5,1.2c0,0.5,0.2,0.9,0.5,1.2
				S817.8,565.9,818.3,565.9z"/>
			<path class="st12" d="M820.7,560h-1.2v-1.2h1.2V560z"/>
		</g>
		<g>
			<path class="st12" d="M814.5,552.1l0.1,1c-0.4,0.1-0.7,0.2-0.9,0.4c-0.3,0.3-0.4,0.6-0.4,1c0,0.3,0.1,0.6,0.3,0.8
				c0.2,0.3,0.6,0.6,1,0.8c0.4,0.2,1.1,0.3,1.9,0.3c-0.4-0.2-0.6-0.5-0.8-0.9c-0.2-0.4-0.3-0.7-0.3-1.1c0-0.7,0.2-1.3,0.7-1.7
				c0.5-0.5,1.1-0.7,1.9-0.7c0.5,0,1,0.1,1.4,0.3c0.4,0.2,0.8,0.5,1,0.9c0.2,0.4,0.4,0.8,0.4,1.3c0,0.8-0.3,1.5-0.9,2.1
				c-0.6,0.5-1.6,0.8-3.1,0.8c-1.6,0-2.8-0.3-3.5-0.9c-0.6-0.5-0.9-1.2-0.9-2.1c0-0.6,0.2-1.2,0.5-1.6
				C813.3,552.5,813.8,552.2,814.5,552.1z M818,556.3c0.3,0,0.7-0.1,1-0.2c0.3-0.1,0.6-0.4,0.7-0.6c0.2-0.3,0.3-0.5,0.3-0.8
				c0-0.4-0.2-0.8-0.5-1.1s-0.8-0.5-1.4-0.5c-0.6,0-1,0.2-1.3,0.5c-0.3,0.3-0.5,0.7-0.5,1.1c0,0.5,0.2,0.8,0.5,1.2
				C817.1,556.1,817.5,556.3,818,556.3z"/>
		</g>
		<g>
			<path class="st12" d="M758.9,670h-2v3.6H756l-5.3-3.8V669h5.3v-1.1h0.9v1.1h2V670z M756,670h-3.7l3.7,2.6V670z"/>
			<path class="st12" d="M754.8,666.9c-1,0-1.8-0.1-2.4-0.3c-0.6-0.2-1.1-0.5-1.4-0.9c-0.3-0.4-0.5-0.9-0.5-1.5
				c0-0.4,0.1-0.8,0.3-1.2s0.4-0.6,0.8-0.8c0.3-0.2,0.7-0.4,1.2-0.5c0.5-0.1,1.1-0.2,2-0.2c1,0,1.8,0.1,2.3,0.3
				c0.6,0.2,1.1,0.5,1.4,0.9s0.5,0.9,0.5,1.5c0,0.8-0.3,1.4-0.9,1.9C757.5,666.6,756.4,666.9,754.8,666.9z M754.8,665.8
				c1.4,0,2.3-0.2,2.7-0.5c0.4-0.3,0.7-0.7,0.7-1.2s-0.2-0.9-0.7-1.2c-0.5-0.3-1.4-0.5-2.7-0.5c-1.4,0-2.3,0.2-2.7,0.5
				c-0.4,0.3-0.7,0.7-0.7,1.2c0,0.5,0.2,0.8,0.6,1.1C752.5,665.7,753.5,665.8,754.8,665.8z"/>
		</g>
		<g>
			<path class="st12" d="M751.7,456.1h-1v-5.3h0.8c0.6,0.5,1.3,1,2.2,1.6c0.9,0.5,1.9,0.9,2.9,1.2c0.7,0.2,1.4,0.3,2.3,0.4v1
				c-0.6,0-1.4-0.1-2.4-0.4c-0.9-0.2-1.8-0.6-2.7-1c-0.9-0.5-1.6-0.9-2.2-1.5V456.1z"/>
			<path class="st12" d="M756.7,449.7l-0.1-1.1c0.5-0.1,0.9-0.3,1.2-0.5s0.4-0.6,0.4-1c0-0.5-0.2-0.9-0.6-1.2
				c-0.4-0.3-0.9-0.5-1.5-0.5c-0.6,0-1,0.2-1.4,0.5c-0.3,0.3-0.5,0.8-0.5,1.3c0,0.3,0.1,0.6,0.2,0.9c0.1,0.3,0.3,0.5,0.6,0.6l-0.1,1
				l-4.2-0.8v-4.1h1v3.3l2.2,0.4c-0.3-0.5-0.5-1-0.5-1.6c0-0.7,0.2-1.3,0.7-1.8c0.5-0.5,1.1-0.7,1.9-0.7c0.7,0,1.4,0.2,1.9,0.7
				c0.7,0.5,1,1.3,1,2.2c0,0.8-0.2,1.4-0.6,1.8S757.4,449.6,756.7,449.7z"/>
			<path class="st12" d="M758.9,442.7h-1.2v-1.2h1.2V442.7z"/>
			<path class="st12" d="M757.9,434.8h1v5.5c-0.2,0-0.5,0-0.7-0.1c-0.4-0.1-0.7-0.4-1.1-0.7c-0.4-0.3-0.8-0.7-1.2-1.3
				c-0.7-0.9-1.3-1.5-1.7-1.8c-0.4-0.3-0.8-0.5-1.2-0.5c-0.4,0-0.7,0.1-1,0.4s-0.4,0.7-0.4,1.1c0,0.5,0.1,0.9,0.4,1.2
				s0.7,0.4,1.2,0.4l-0.1,1c-0.8-0.1-1.4-0.3-1.8-0.8c-0.4-0.5-0.6-1.1-0.6-1.9c0-0.8,0.2-1.4,0.7-1.9s1-0.7,1.6-0.7
				c0.3,0,0.7,0.1,1,0.2c0.3,0.1,0.7,0.4,1,0.7c0.4,0.3,0.8,0.8,1.5,1.6c0.5,0.6,0.9,1,1,1.2c0.2,0.2,0.4,0.3,0.5,0.4V434.8z"/>
			<path class="st12" d="M756.7,433.7l-0.1-1.1c0.5-0.1,0.9-0.3,1.2-0.5s0.4-0.6,0.4-1c0-0.5-0.2-0.9-0.6-1.2
				c-0.4-0.3-0.9-0.5-1.5-0.5c-0.6,0-1,0.2-1.4,0.5c-0.3,0.3-0.5,0.8-0.5,1.3c0,0.3,0.1,0.6,0.2,0.9c0.1,0.3,0.3,0.5,0.6,0.6l-0.1,1
				l-4.2-0.8v-4.1h1v3.3l2.2,0.4c-0.3-0.5-0.5-1-0.5-1.6c0-0.7,0.2-1.3,0.7-1.8c0.5-0.5,1.1-0.7,1.9-0.7c0.7,0,1.4,0.2,1.9,0.7
				c0.7,0.5,1,1.3,1,2.2c0,0.8-0.2,1.4-0.6,1.8S757.4,433.6,756.7,433.7z"/>
		</g>
		<g>
			<path class="st12" d="M752.7,177.3l0.1,1c-0.4,0.1-0.7,0.2-0.9,0.4c-0.3,0.3-0.4,0.6-0.4,1c0,0.3,0.1,0.6,0.3,0.8
				c0.2,0.3,0.6,0.6,1,0.8c0.4,0.2,1.1,0.3,1.9,0.3c-0.4-0.2-0.6-0.5-0.8-0.9c-0.2-0.4-0.3-0.7-0.3-1.1c0-0.7,0.2-1.3,0.7-1.7
				c0.5-0.5,1.1-0.7,1.9-0.7c0.5,0,1,0.1,1.4,0.3c0.4,0.2,0.8,0.5,1,0.9c0.2,0.4,0.4,0.8,0.4,1.3c0,0.8-0.3,1.5-0.9,2.1
				c-0.6,0.5-1.6,0.8-3.1,0.8c-1.6,0-2.8-0.3-3.5-0.9c-0.6-0.5-0.9-1.2-0.9-2.1c0-0.6,0.2-1.2,0.5-1.6
				C751.5,177.6,752,177.4,752.7,177.3z M756.2,181.4c0.3,0,0.7-0.1,1-0.2c0.3-0.1,0.6-0.4,0.7-0.6s0.3-0.5,0.3-0.8
				c0-0.4-0.2-0.8-0.5-1.1s-0.8-0.5-1.4-0.5c-0.6,0-1,0.2-1.3,0.5c-0.3,0.3-0.5,0.7-0.5,1.1c0,0.5,0.2,0.8,0.5,1.2
				C755.3,181.3,755.7,181.4,756.2,181.4z"/>
			<path class="st12" d="M758.9,172.9h-2v3.6H756l-5.3-3.8v-0.8h5.3v-1.1h0.9v1.1h2V172.9z M756,172.9h-3.7l3.7,2.6V172.9z"/>
			<path class="st12" d="M758.9,169.2h-1.2V168h1.2V169.2z"/>
			<path class="st12" d="M751.7,166.5h-1v-5.3h0.8c0.6,0.5,1.3,1,2.2,1.6c0.9,0.5,1.9,0.9,2.9,1.2c0.7,0.2,1.4,0.3,2.3,0.4v1
				c-0.6,0-1.4-0.1-2.4-0.4c-0.9-0.2-1.8-0.6-2.7-1c-0.9-0.5-1.6-0.9-2.2-1.5V166.5z"/>
			<path class="st12" d="M756.7,160.1l-0.1-1.1c0.5-0.1,0.9-0.3,1.2-0.5c0.3-0.3,0.4-0.6,0.4-1c0-0.5-0.2-0.9-0.6-1.2
				c-0.4-0.3-0.9-0.5-1.5-0.5c-0.6,0-1,0.2-1.4,0.5c-0.3,0.3-0.5,0.7-0.5,1.3c0,0.3,0.1,0.6,0.2,0.9c0.1,0.3,0.3,0.5,0.6,0.6l-0.1,1
				l-4.2-0.8V155h1v3.3l2.2,0.4c-0.3-0.5-0.5-1-0.5-1.6c0-0.7,0.2-1.3,0.7-1.8c0.5-0.5,1.1-0.7,1.9-0.7c0.7,0,1.4,0.2,1.9,0.7
				c0.7,0.5,1,1.3,1,2.2c0,0.8-0.2,1.4-0.6,1.8C758,159.8,757.4,160.1,756.7,160.1z"/>
		</g>
		<g>
			<path class="st12" d="M789.8,431.1v1h-6.5c0.2,0.2,0.5,0.6,0.7,1c0.2,0.4,0.4,0.8,0.5,1.1h-1c-0.3-0.6-0.6-1.1-1-1.5
				s-0.7-0.7-1.1-0.9v-0.7H789.8z"/>
			<path class="st12" d="M785.3,427c-0.2,0.4-0.4,0.7-0.7,0.9c-0.3,0.2-0.6,0.3-1,0.3c-0.6,0-1.1-0.2-1.5-0.6s-0.6-1-0.6-1.7
				c0-0.7,0.2-1.3,0.6-1.7s0.9-0.7,1.5-0.7c0.4,0,0.7,0.1,1,0.3c0.3,0.2,0.5,0.5,0.7,0.9c0.2-0.5,0.4-0.9,0.8-1.2
				c0.4-0.3,0.8-0.4,1.3-0.4c0.7,0,1.3,0.2,1.8,0.7c0.5,0.5,0.7,1.2,0.7,2s-0.2,1.5-0.7,2c-0.5,0.5-1.1,0.7-1.8,0.7
				c-0.5,0-1-0.1-1.3-0.4C785.7,427.9,785.4,427.5,785.3,427z M783.6,427.2c0.4,0,0.7-0.1,1-0.4c0.2-0.3,0.4-0.6,0.4-1
				c0-0.4-0.1-0.7-0.4-1c-0.2-0.2-0.5-0.4-0.9-0.4c-0.4,0-0.7,0.1-0.9,0.4c-0.3,0.3-0.4,0.6-0.4,1c0,0.4,0.1,0.7,0.4,1
				S783.2,427.2,783.6,427.2z M787.4,427.5c0.3,0,0.6-0.1,0.8-0.2c0.3-0.1,0.5-0.3,0.6-0.6c0.1-0.3,0.2-0.6,0.2-0.9
				c0-0.5-0.2-0.9-0.5-1.2c-0.3-0.3-0.7-0.5-1.2-0.5c-0.5,0-0.9,0.2-1.2,0.5c-0.3,0.3-0.5,0.7-0.5,1.2c0,0.5,0.2,0.9,0.5,1.2
				S786.9,427.5,787.4,427.5z"/>
			<path class="st12" d="M785.7,422.1c-1,0-1.8-0.1-2.4-0.3c-0.6-0.2-1.1-0.5-1.4-0.9c-0.3-0.4-0.5-0.9-0.5-1.5
				c0-0.4,0.1-0.8,0.3-1.2s0.4-0.6,0.8-0.8c0.3-0.2,0.7-0.4,1.2-0.5c0.5-0.1,1.1-0.2,2-0.2c1,0,1.8,0.1,2.3,0.3
				c0.6,0.2,1.1,0.5,1.4,0.9s0.5,0.9,0.5,1.5c0,0.8-0.3,1.4-0.9,1.9C788.4,421.9,787.3,422.1,785.7,422.1z M785.7,421.1
				c1.4,0,2.3-0.2,2.7-0.5c0.4-0.3,0.7-0.7,0.7-1.2s-0.2-0.9-0.7-1.2c-0.5-0.3-1.4-0.5-2.7-0.5c-1.4,0-2.3,0.2-2.7,0.5
				c-0.4,0.3-0.7,0.7-0.7,1.2c0,0.5,0.2,0.8,0.6,1.1C783.4,420.9,784.4,421.1,785.7,421.1z"/>
			<path class="st12" d="M792.2,410.3c-0.7,0.6-1.5,1-2.5,1.4c-0.9,0.4-1.9,0.6-2.9,0.6c-0.9,0-1.7-0.1-2.6-0.4
				c-0.9-0.3-1.9-0.9-2.8-1.6v-0.7c0.8,0.5,1.3,0.8,1.7,0.9c0.5,0.2,1.1,0.4,1.6,0.5c0.7,0.2,1.4,0.2,2.1,0.2c1.8,0,3.6-0.6,5.4-1.7
				V410.3z"/>
			<path class="st12" d="M782.6,408.6h-1v-5.3h0.8c0.6,0.5,1.3,1,2.2,1.6c0.9,0.5,1.9,0.9,2.9,1.2c0.7,0.2,1.4,0.3,2.3,0.4v1
				c-0.6,0-1.4-0.1-2.4-0.4c-0.9-0.2-1.8-0.6-2.7-1c-0.9-0.5-1.6-0.9-2.2-1.5V408.6z"/>
			<path class="st12" d="M789.8,401.7h-1.2v-1.2h1.2V401.7z"/>
			<path class="st12" d="M785.7,399.1c-1,0-1.8-0.1-2.4-0.3c-0.6-0.2-1.1-0.5-1.4-0.9c-0.3-0.4-0.5-0.9-0.5-1.5
				c0-0.4,0.1-0.8,0.3-1.2s0.4-0.6,0.8-0.8c0.3-0.2,0.7-0.4,1.2-0.5c0.5-0.1,1.1-0.2,2-0.2c1,0,1.8,0.1,2.3,0.3
				c0.6,0.2,1.1,0.5,1.4,0.9s0.5,0.9,0.5,1.5c0,0.8-0.3,1.4-0.9,1.9C788.4,398.8,787.3,399.1,785.7,399.1z M785.7,398
				c1.4,0,2.3-0.2,2.7-0.5c0.4-0.3,0.7-0.7,0.7-1.2s-0.2-0.9-0.7-1.2c-0.5-0.3-1.4-0.5-2.7-0.5c-1.4,0-2.3,0.2-2.7,0.5
				c-0.4,0.3-0.7,0.7-0.7,1.2c0,0.5,0.2,0.8,0.6,1.1C783.4,397.8,784.4,398,785.7,398z"/>
			<path class="st12" d="M785.3,391.1c-0.2,0.4-0.4,0.7-0.7,0.9s-0.6,0.3-1,0.3c-0.6,0-1.1-0.2-1.5-0.6c-0.4-0.4-0.6-1-0.6-1.7
				c0-0.7,0.2-1.3,0.6-1.7s0.9-0.7,1.5-0.7c0.4,0,0.7,0.1,1,0.3c0.3,0.2,0.5,0.5,0.7,0.9c0.2-0.5,0.4-0.9,0.8-1.2
				c0.4-0.3,0.8-0.4,1.3-0.4c0.7,0,1.3,0.2,1.8,0.7c0.5,0.5,0.7,1.2,0.7,2c0,0.8-0.2,1.5-0.7,2c-0.5,0.5-1.1,0.7-1.8,0.7
				c-0.5,0-1-0.1-1.3-0.4C785.7,392,785.4,391.6,785.3,391.1z M783.6,391.3c0.4,0,0.7-0.1,1-0.4s0.4-0.6,0.4-1c0-0.4-0.1-0.7-0.4-1
				c-0.2-0.2-0.5-0.4-0.9-0.4c-0.4,0-0.7,0.1-0.9,0.4c-0.3,0.3-0.4,0.6-0.4,1c0,0.4,0.1,0.7,0.4,1
				C782.9,391.2,783.2,391.3,783.6,391.3z M787.4,391.6c0.3,0,0.6-0.1,0.8-0.2c0.3-0.1,0.5-0.3,0.6-0.6c0.1-0.3,0.2-0.6,0.2-0.9
				c0-0.5-0.2-0.9-0.5-1.2c-0.3-0.3-0.7-0.5-1.2-0.5c-0.5,0-0.9,0.2-1.2,0.5c-0.3,0.3-0.5,0.7-0.5,1.2c0,0.5,0.2,0.9,0.5,1.2
				S786.9,391.6,787.4,391.6z"/>
			<path class="st12" d="M782.6,386.2h-1v-5.3h0.8c0.6,0.5,1.3,1,2.2,1.6c0.9,0.5,1.9,0.9,2.9,1.2c0.7,0.2,1.4,0.3,2.3,0.4v1
				c-0.6,0-1.4-0.1-2.4-0.4c-0.9-0.2-1.8-0.6-2.7-1c-0.9-0.5-1.6-0.9-2.2-1.5V386.2z"/>
			<path class="st12" d="M784.5,377.6l-1.6,0.3h-1.4v-1.2h1.4l1.6,0.3V377.6z M784.5,379.5l-1.6,0.3h-1.4v-1.2h1.4l1.6,0.3V379.5z"
				/>
		</g>
		<g>
			<path class="st12" d="M792.2,374.8v0.7c-1.8-1.1-3.6-1.7-5.4-1.7c-0.7,0-1.4,0.1-2.1,0.2c-0.6,0.1-1.1,0.3-1.6,0.5
				c-0.3,0.1-0.9,0.4-1.7,0.9v-0.7c0.9-0.7,1.9-1.2,2.8-1.6c0.8-0.3,1.7-0.4,2.6-0.4c1,0,2,0.2,2.9,0.6
				C790.7,373.8,791.5,374.3,792.2,374.8z"/>
		</g>
		<g>
			<path class="st12" d="M361,557.2l3.8-7.3l3.3,1.7c0.7,0.3,1.1,0.7,1.4,1c0.3,0.3,0.4,0.7,0.5,1.1c0,0.4-0.1,0.9-0.3,1.3
				c-0.3,0.5-0.7,0.9-1.2,1.1c-0.5,0.2-1.2,0.1-1.9-0.1c0.2,0.3,0.3,0.5,0.4,0.7c0.1,0.4,0.3,0.9,0.3,1.4l0.2,2.7l-1.2-0.6l-0.2-2
				c-0.1-0.6-0.1-1-0.2-1.4c-0.1-0.3-0.1-0.6-0.2-0.7s-0.2-0.3-0.3-0.4c-0.1-0.1-0.3-0.2-0.5-0.3l-1.1-0.6l-1.7,3.3L361,557.2z
				 M364.1,553.6l2.1,1.1c0.4,0.2,0.8,0.4,1.1,0.4c0.3,0,0.6,0,0.8-0.1s0.4-0.3,0.5-0.6c0.2-0.3,0.2-0.7,0.1-1s-0.5-0.7-1-0.9
				l-2.3-1.2L364.1,553.6z"/>
			<path class="st12" d="M373.2,562.4l-0.4,0.9l-4.8-2.5c0.1-0.2,0.2-0.4,0.4-0.6c0.3-0.3,0.7-0.5,1.1-0.7s1-0.3,1.8-0.5
				c1.1-0.2,1.9-0.5,2.4-0.7c0.5-0.2,0.8-0.5,1-0.9c0.2-0.4,0.2-0.7,0.1-1.1c-0.1-0.4-0.4-0.7-0.8-0.9c-0.4-0.2-0.8-0.3-1.2-0.1
				s-0.7,0.4-1,0.9l-0.9-0.6c0.4-0.7,0.9-1.1,1.5-1.2c0.6-0.1,1.2,0,1.9,0.3c0.7,0.4,1.2,0.8,1.4,1.4c0.2,0.6,0.2,1.2-0.1,1.8
				c-0.2,0.3-0.4,0.6-0.6,0.8c-0.3,0.2-0.6,0.4-1.1,0.6c-0.4,0.2-1.1,0.4-2.1,0.6c-0.8,0.2-1.3,0.3-1.5,0.4
				c-0.2,0.1-0.4,0.2-0.6,0.3L373.2,562.4z"/>
		</g>
		<g>
			<path class="st12" d="M375.6,560.1c0.4-0.9,0.9-1.5,1.3-2c0.5-0.4,0.9-0.7,1.4-0.8c0.5-0.1,1,0,1.5,0.3c0.4,0.2,0.7,0.5,0.9,0.8
				s0.3,0.7,0.4,1.1c0,0.4,0,0.8-0.1,1.3c-0.1,0.5-0.4,1.1-0.7,1.8c-0.4,0.9-0.9,1.5-1.3,1.9c-0.4,0.4-0.9,0.7-1.4,0.8
				c-0.5,0.1-1,0-1.6-0.3c-0.7-0.4-1.1-0.9-1.3-1.6C374.6,562.6,374.9,561.5,375.6,560.1z M376.5,560.6c-0.6,1.2-0.9,2.1-0.8,2.6
				c0.1,0.5,0.3,0.9,0.7,1.1s0.9,0.2,1.4-0.1s1-1,1.7-2.2c0.6-1.2,0.9-2.1,0.8-2.6c-0.1-0.5-0.3-0.9-0.7-1.1c-0.4-0.2-0.8-0.2-1.3,0
				C377.7,558.7,377.1,559.4,376.5,560.6z"/>
		</g>
		<g>
			<path class="st12" d="M188.4,714.7l-4.1-7.2l3.2-1.8c0.6-0.4,1.2-0.6,1.6-0.6c0.4-0.1,0.8,0,1.2,0.2c0.4,0.2,0.7,0.5,0.9,0.9
				c0.3,0.5,0.4,1,0.2,1.6s-0.5,1-1.1,1.5c0.3,0,0.6,0,0.8,0c0.4,0.1,0.9,0.3,1.3,0.5l2.4,1.2l-1.2,0.7l-1.8-0.9
				c-0.5-0.3-0.9-0.5-1.2-0.6s-0.6-0.2-0.8-0.2c-0.2,0-0.4,0-0.5,0.1c-0.1,0-0.3,0.1-0.5,0.3l-1.1,0.6l1.8,3.2L188.4,714.7z
				 M187,710.2l2-1.2c0.4-0.2,0.7-0.5,0.9-0.7c0.2-0.2,0.3-0.5,0.3-0.7c0-0.3,0-0.5-0.2-0.8c-0.2-0.3-0.5-0.5-0.8-0.6
				c-0.4-0.1-0.8,0-1.4,0.3l-2.3,1.3L187,710.2z"/>
		</g>
		<g>
			<path class="st12" d="M199.4,707.3l0.5,0.8l-4.7,2.7c-0.1-0.2-0.2-0.4-0.2-0.7c-0.1-0.4-0.1-0.8,0-1.3c0.1-0.5,0.3-1,0.5-1.7
				c0.4-1.1,0.6-1.9,0.7-2.4s0-1-0.2-1.3c-0.2-0.3-0.5-0.6-0.9-0.7c-0.4-0.1-0.8,0-1.2,0.2c-0.4,0.2-0.7,0.6-0.8,1s0,0.8,0.2,1.3
				l-1,0.4c-0.3-0.7-0.4-1.4-0.2-1.9c0.2-0.6,0.6-1.1,1.3-1.5c0.7-0.4,1.3-0.5,2-0.4c0.6,0.2,1.1,0.5,1.4,1.1
				c0.2,0.3,0.3,0.6,0.3,0.9c0,0.3,0,0.7-0.1,1.2c-0.1,0.5-0.3,1.1-0.6,2c-0.3,0.7-0.4,1.2-0.5,1.5c-0.1,0.2-0.1,0.5-0.1,0.7
				L199.4,707.3z"/>
		</g>
		<g>
			<defs>
				<rect id="SVGID_9_" x="152.2" y="11" width="725.7" height="783.3"/>
			</defs>
			<clipPath id="SVGID_4_">
				<use xlink:href="#SVGID_9_"  style="overflow:visible;"/>
			</clipPath>
			<path style="clip-path:url(#SVGID_4_);fill:none;stroke:#221E1F;stroke-width:0.8025;" d="M847.9,794.3V742 M152.6,794.3V742
				 M732,12v34.8"/>
		</g>
		<path class="st21" d="M759,742h88.8 M820.8,742h27"/>
		<path class="st22" d="M766.8,296.8H500.3 M766.8,587.5H500.3"/>
		<path class="st21" d="M293.1,587.5h168 M500.3,587.5h-39.1 M500.3,296.8h-43.1 M789.9,742h57.9"/>
		<line class="st22" x1="306.6" y1="296.8" x2="457.2" y2="296.8"/>
		<path class="st21" d="M152.6,742v-80.6 M152.6,742h305.1"/>
		<line class="st22" x1="500.3" y1="296.8" x2="268.5" y2="247.6"/>
		<line class="st21" x1="847.9" y1="742" x2="457.8" y2="742"/>
		<path class="st22" d="M847.9,661.4l-347.6-73.9 M847.9,742v-80.6"/>
		<line class="st22" x1="152.6" y1="661.4" x2="500.3" y2="587.5"/>
		<path class="st22" d="M423,603.9V280.4 M829.9,46.7H500.3 M732,247.6V46.7 M500.3,296.8L732,247.6 M577.5,603.9V280.4 M268.5,46.7
			h231.7"/>
		<g>
			<path class="st12" d="M469.2,19.4h-1v-6.5c-0.2,0.2-0.6,0.5-1,0.7c-0.4,0.2-0.8,0.4-1.1,0.5v-1c0.6-0.3,1.1-0.6,1.5-1
				c0.4-0.4,0.7-0.7,0.9-1.1h0.7V19.4z"/>
			<path class="st12" d="M477.1,18.4v1h-5.5c0-0.2,0-0.5,0.1-0.7c0.1-0.4,0.4-0.7,0.7-1.1c0.3-0.4,0.7-0.8,1.3-1.2
				c0.9-0.7,1.5-1.3,1.8-1.7c0.3-0.4,0.5-0.8,0.5-1.2c0-0.4-0.1-0.7-0.4-1s-0.7-0.4-1.1-0.4c-0.5,0-0.9,0.1-1.2,0.4
				c-0.3,0.3-0.4,0.7-0.4,1.2l-1-0.1c0.1-0.8,0.3-1.4,0.8-1.8s1.1-0.6,1.9-0.6c0.8,0,1.4,0.2,1.9,0.7c0.5,0.4,0.7,1,0.7,1.6
				c0,0.3-0.1,0.7-0.2,1c-0.1,0.3-0.4,0.7-0.7,1c-0.3,0.4-0.8,0.8-1.6,1.5c-0.6,0.5-1,0.9-1.2,1c-0.2,0.2-0.3,0.4-0.4,0.5H477.1z"/>
			<path class="st12" d="M478.2,15.3c0-1,0.1-1.8,0.3-2.4c0.2-0.6,0.5-1.1,0.9-1.4c0.4-0.3,0.9-0.5,1.5-0.5c0.4,0,0.8,0.1,1.2,0.3
				s0.6,0.4,0.8,0.8s0.4,0.7,0.5,1.2c0.1,0.5,0.2,1.1,0.2,2c0,1-0.1,1.8-0.3,2.3c-0.2,0.6-0.5,1.1-0.9,1.4s-0.9,0.5-1.5,0.5
				c-0.8,0-1.4-0.3-1.9-0.9C478.4,17.9,478.2,16.8,478.2,15.3z M479.2,15.3c0,1.4,0.2,2.3,0.5,2.7c0.3,0.4,0.7,0.7,1.2,0.7
				s0.9-0.2,1.2-0.7c0.3-0.5,0.5-1.4,0.5-2.7c0-1.4-0.2-2.3-0.5-2.7c-0.3-0.4-0.7-0.7-1.2-0.7c-0.5,0-0.8,0.2-1.1,0.6
				C479.4,13,479.2,13.9,479.2,15.3z"/>
			<path class="st12" d="M490,21.8c-0.6-0.7-1-1.5-1.4-2.5c-0.4-0.9-0.6-1.9-0.6-2.9c0-0.9,0.1-1.7,0.4-2.6c0.3-0.9,0.9-1.9,1.6-2.8
				h0.7c-0.5,0.8-0.8,1.3-0.9,1.7c-0.2,0.5-0.4,1.1-0.5,1.6c-0.2,0.7-0.2,1.4-0.2,2.1c0,1.8,0.6,3.6,1.7,5.4H490z"/>
			<path class="st12" d="M494.9,19.4v-2h-3.6v-0.9l3.8-5.3h0.8v5.3h1.1v0.9h-1.1v2H494.9z M494.9,16.4v-3.7l-2.6,3.7H494.9z"/>
			<path class="st12" d="M498.6,19.4v-1.2h1.2v1.2H498.6z"/>
			<path class="st12" d="M501.3,12.2v-1h5.3V12c-0.5,0.6-1,1.3-1.6,2.2s-0.9,1.9-1.2,2.9c-0.2,0.7-0.3,1.4-0.4,2.3h-1
				c0-0.6,0.1-1.4,0.4-2.4c0.2-0.9,0.6-1.8,1-2.7c0.5-0.9,0.9-1.6,1.5-2.2H501.3z"/>
			<path class="st12" d="M513,18.4v1h-5.5c0-0.2,0-0.5,0.1-0.7c0.1-0.4,0.4-0.7,0.7-1.1c0.3-0.4,0.7-0.8,1.3-1.2
				c0.9-0.7,1.5-1.3,1.8-1.7c0.3-0.4,0.5-0.8,0.5-1.2c0-0.4-0.1-0.7-0.4-1s-0.7-0.4-1.1-0.4c-0.5,0-0.9,0.1-1.2,0.4
				c-0.3,0.3-0.4,0.7-0.4,1.2l-1-0.1c0.1-0.8,0.3-1.4,0.8-1.8s1.1-0.6,1.9-0.6c0.8,0,1.4,0.2,1.9,0.7c0.5,0.4,0.7,1,0.7,1.6
				c0,0.3-0.1,0.7-0.2,1c-0.1,0.3-0.4,0.7-0.7,1c-0.3,0.4-0.8,0.8-1.6,1.5c-0.6,0.5-1,0.9-1.2,1c-0.2,0.2-0.3,0.4-0.4,0.5H513z"/>
			<path class="st12" d="M517.3,19.4v-2h-3.6v-0.9l3.8-5.3h0.8v5.3h1.1v0.9h-1.1v2H517.3z M517.3,16.4v-3.7l-2.6,3.7H517.3z"/>
			<path class="st12" d="M520.8,14l-0.3-1.6v-1.4h1.2v1.4l-0.3,1.6H520.8z M522.7,14l-0.3-1.6v-1.4h1.2v1.4l-0.3,1.6H522.7z"/>
			<path class="st12" d="M525.5,21.8h-0.7c1.1-1.8,1.7-3.6,1.7-5.4c0-0.7-0.1-1.4-0.2-2.1c-0.1-0.6-0.3-1.1-0.5-1.6
				c-0.1-0.3-0.4-0.9-0.9-1.7h0.7c0.7,0.9,1.2,1.9,1.6,2.8c0.3,0.8,0.4,1.7,0.4,2.6c0,1-0.2,2-0.6,2.9
				C526.5,20.2,526.1,21.1,525.5,21.8z"/>
		</g>
		<g>
			<path class="st12" d="M478.1,496v-2h-3.6v-0.9l3.8-5.3h0.8v5.3h1.1v0.9h-1.1v2H478.1z M478.1,493.1v-3.7l-2.6,3.7H478.1z"/>
			<path class="st12" d="M481.3,492c0-1,0.1-1.8,0.3-2.4c0.2-0.6,0.5-1.1,0.9-1.4c0.4-0.3,0.9-0.5,1.5-0.5c0.4,0,0.8,0.1,1.2,0.3
				c0.3,0.2,0.6,0.4,0.8,0.8s0.4,0.7,0.5,1.2c0.1,0.5,0.2,1.1,0.2,2c0,1-0.1,1.7-0.3,2.3c-0.2,0.6-0.5,1.1-0.9,1.4
				c-0.4,0.3-0.9,0.5-1.5,0.5c-0.8,0-1.4-0.3-1.9-0.9C481.5,494.6,481.3,493.5,481.3,492z M482.3,492c0,1.4,0.2,2.3,0.5,2.7
				c0.3,0.4,0.7,0.7,1.2,0.7s0.9-0.2,1.2-0.7c0.3-0.5,0.5-1.4,0.5-2.7c0-1.4-0.2-2.3-0.5-2.7c-0.3-0.4-0.7-0.7-1.2-0.7
				c-0.5,0-0.8,0.2-1.1,0.6C482.5,489.7,482.3,490.6,482.3,492z"/>
			<path class="st12" d="M493.1,498.5c-0.6-0.7-1-1.5-1.4-2.5c-0.4-0.9-0.6-1.9-0.6-2.9c0-0.9,0.1-1.7,0.4-2.6
				c0.3-0.9,0.9-1.9,1.6-2.8h0.7c-0.5,0.8-0.8,1.3-0.9,1.7c-0.2,0.5-0.4,1.1-0.5,1.6c-0.2,0.7-0.2,1.4-0.2,2.1
				c0,1.8,0.6,3.6,1.7,5.4H493.1z"/>
			<path class="st12" d="M498.5,496h-1v-6.5c-0.2,0.2-0.6,0.5-1,0.7c-0.4,0.2-0.8,0.4-1.1,0.5v-1c0.6-0.3,1.1-0.6,1.5-1
				s0.7-0.7,0.9-1.1h0.7V496z"/>
			<path class="st12" d="M501.7,496v-1.2h1.2v1.2H501.7z"/>
			<path class="st12" d="M504.3,493.9l1.1-0.1c0.1,0.5,0.3,0.9,0.5,1.2c0.3,0.3,0.6,0.4,1,0.4c0.5,0,0.9-0.2,1.2-0.6
				c0.3-0.4,0.5-0.9,0.5-1.5c0-0.6-0.2-1-0.5-1.4s-0.7-0.5-1.3-0.5c-0.3,0-0.6,0.1-0.9,0.2c-0.3,0.1-0.5,0.3-0.6,0.6l-1-0.1l0.8-4.2
				h4.1v1h-3.3l-0.4,2.2c0.5-0.3,1-0.5,1.6-0.5c0.7,0,1.3,0.2,1.8,0.7c0.5,0.5,0.7,1.1,0.7,1.9c0,0.7-0.2,1.4-0.7,1.9
				c-0.5,0.7-1.3,1-2.2,1c-0.8,0-1.4-0.2-1.8-0.6C504.7,495.1,504.4,494.6,504.3,493.9z"/>
			<path class="st12" d="M510.8,488.9v-1h5.3v0.8c-0.5,0.6-1,1.3-1.6,2.2s-0.9,1.9-1.2,2.9c-0.2,0.7-0.3,1.4-0.4,2.3h-1
				c0-0.6,0.1-1.4,0.4-2.4c0.2-0.9,0.6-1.8,1-2.7c0.5-0.9,0.9-1.6,1.5-2.2H510.8z"/>
			<path class="st12" d="M517.2,493.9l1.1-0.1c0.1,0.5,0.3,0.9,0.5,1.2c0.3,0.3,0.6,0.4,1,0.4c0.5,0,0.9-0.2,1.2-0.6
				c0.3-0.4,0.5-0.9,0.5-1.5c0-0.6-0.2-1-0.5-1.4s-0.7-0.5-1.3-0.5c-0.3,0-0.6,0.1-0.9,0.2c-0.3,0.1-0.5,0.3-0.6,0.6l-1-0.1l0.8-4.2
				h4.1v1h-3.3l-0.4,2.2c0.5-0.3,1-0.5,1.6-0.5c0.7,0,1.3,0.2,1.8,0.7c0.5,0.5,0.7,1.1,0.7,1.9c0,0.7-0.2,1.4-0.7,1.9
				c-0.5,0.7-1.3,1-2.2,1c-0.8,0-1.4-0.2-1.8-0.6C517.5,495.1,517.2,494.6,517.2,493.9z"/>
			<path class="st12" d="M523.9,490.7l-0.3-1.6v-1.4h1.2v1.4l-0.3,1.6H523.9z M525.8,490.7l-0.3-1.6v-1.4h1.2v1.4l-0.3,1.6H525.8z"
				/>
		</g>
		<g>
			<path class="st12" d="M528.6,498.5h-0.7c1.1-1.8,1.7-3.6,1.7-5.4c0-0.7-0.1-1.4-0.2-2.1c-0.1-0.6-0.3-1.1-0.5-1.6
				c-0.1-0.3-0.4-0.9-0.9-1.7h0.7c0.7,0.9,1.2,1.9,1.6,2.8c0.3,0.8,0.4,1.7,0.4,2.6c0,1-0.2,2-0.6,2.9
				C529.6,496.9,529.1,497.8,528.6,498.5z"/>
		</g>
		<line class="st22" x1="279.2" y1="23.2" x2="721.3" y2="23.2"/>
		<polygon class="st2" points="281.5,26.5 268.5,23 281.5,19.5 		"/>
		<polygon class="st2" points="719,26.5 732,23 719,19.5 		"/>
		<line class="st22" x1="824.7" y1="388.9" x2="824.7" y2="57.4"/>
		<polygon class="st2" points="828,386.5 824.6,399.5 821.1,386.5 		"/>
		<polygon class="st2" points="828,59.8 824.6,46.7 821.1,59.8 		"/>
		<line class="st22" x1="793.8" y1="731.3" x2="793.8" y2="57.4"/>
		<polygon class="st2" points="797.1,728.9 793.7,742 790.2,728.9 		"/>
		<polygon class="st2" points="797.1,59.8 793.7,46.7 790.2,59.8 		"/>
		<line class="st22" x1="824.7" y1="731.3" x2="824.7" y2="410.2"/>
		<polygon class="st2" points="828,728.9 824.6,742 821.1,728.9 		"/>
		<polygon class="st2" points="828,412.5 824.6,399.5 821.1,412.5 		"/>
		<line class="st22" x1="762.9" y1="731.3" x2="762.9" y2="598.1"/>
		<polygon class="st2" points="766.2,728.9 762.7,742 759.2,728.9 		"/>
		<polygon class="st2" points="766.2,600.5 762.7,587.5 759.2,600.5 		"/>
		<line class="st22" x1="762.9" y1="576.8" x2="762.9" y2="307.5"/>
		<polygon class="st2" points="766.2,574.4 762.7,587.5 759.2,574.4 		"/>
		<polygon class="st2" points="766.2,309.9 762.7,296.8 759.2,309.9 		"/>
		<line class="st22" x1="762.9" y1="286.2" x2="762.9" y2="57.4"/>
		<polygon class="st2" points="766.2,283.8 762.7,296.8 759.2,283.8 		"/>
		<polygon class="st2" points="766.2,59.8 762.7,46.7 759.2,59.8 		"/>
		<g>
			<path class="st12" d="M479.1,779h-1v-6.5c-0.2,0.2-0.6,0.5-1,0.7c-0.4,0.2-0.8,0.4-1.1,0.5v-1c0.6-0.3,1.1-0.6,1.5-1
				s0.7-0.7,0.9-1.1h0.7V779z"/>
			<path class="st12" d="M483.3,774.5c-0.4-0.2-0.7-0.4-0.9-0.7s-0.3-0.6-0.3-1c0-0.6,0.2-1.1,0.6-1.5c0.4-0.4,1-0.6,1.7-0.6
				c0.7,0,1.3,0.2,1.7,0.6c0.4,0.4,0.7,0.9,0.7,1.5c0,0.4-0.1,0.7-0.3,1s-0.5,0.5-0.9,0.7c0.5,0.2,0.9,0.4,1.2,0.8
				c0.3,0.4,0.4,0.8,0.4,1.3c0,0.7-0.2,1.3-0.7,1.8c-0.5,0.5-1.2,0.7-2,0.7c-0.8,0-1.5-0.2-2-0.7c-0.5-0.5-0.7-1.1-0.7-1.8
				c0-0.5,0.1-1,0.4-1.3C482.4,774.9,482.8,774.7,483.3,774.5z M482.8,776.6c0,0.3,0.1,0.6,0.2,0.8c0.1,0.3,0.3,0.5,0.6,0.6
				c0.3,0.1,0.6,0.2,0.9,0.2c0.5,0,0.9-0.2,1.2-0.5c0.3-0.3,0.5-0.7,0.5-1.2c0-0.5-0.2-0.9-0.5-1.2c-0.3-0.3-0.7-0.5-1.2-0.5
				c-0.5,0-0.9,0.2-1.2,0.5C482.9,775.8,482.8,776.2,482.8,776.6z M483.1,772.8c0,0.4,0.1,0.7,0.4,1c0.3,0.2,0.6,0.4,1,0.4
				c0.4,0,0.7-0.1,1-0.4c0.2-0.2,0.4-0.5,0.4-0.9c0-0.4-0.1-0.7-0.4-0.9c-0.3-0.3-0.6-0.4-1-0.4c-0.4,0-0.7,0.1-1,0.4
				S483.1,772.5,483.1,772.8z"/>
			<path class="st12" d="M488.1,774.9c0-1,0.1-1.8,0.3-2.4c0.2-0.6,0.5-1.1,0.9-1.4c0.4-0.3,0.9-0.5,1.5-0.5c0.4,0,0.8,0.1,1.2,0.3
				c0.3,0.2,0.6,0.4,0.8,0.8s0.4,0.7,0.5,1.2c0.1,0.5,0.2,1.1,0.2,2c0,1-0.1,1.7-0.3,2.3c-0.2,0.6-0.5,1.1-0.9,1.4
				c-0.4,0.3-0.9,0.5-1.5,0.5c-0.8,0-1.4-0.3-1.9-0.9C488.4,777.6,488.1,776.5,488.1,774.9z M489.2,774.9c0,1.4,0.2,2.3,0.5,2.7
				c0.3,0.4,0.7,0.7,1.2,0.7s0.9-0.2,1.2-0.7c0.3-0.5,0.5-1.4,0.5-2.7c0-1.4-0.2-2.3-0.5-2.7c-0.3-0.4-0.7-0.7-1.2-0.7
				c-0.5,0-0.8,0.2-1.1,0.6C489.3,772.7,489.2,773.6,489.2,774.9z"/>
			<path class="st12" d="M500,781.4c-0.6-0.7-1-1.5-1.4-2.5c-0.4-0.9-0.6-1.9-0.6-2.9c0-0.9,0.1-1.7,0.4-2.6
				c0.3-0.9,0.9-1.9,1.6-2.8h0.7c-0.5,0.8-0.8,1.3-0.9,1.7c-0.2,0.5-0.4,1.1-0.5,1.6c-0.2,0.7-0.2,1.4-0.2,2.1
				c0,1.8,0.6,3.6,1.7,5.4H500z"/>
			<path class="st12" d="M501.7,771.8v-1h5.3v0.8c-0.5,0.6-1,1.3-1.6,2.2s-0.9,1.9-1.2,2.9c-0.2,0.7-0.3,1.4-0.4,2.3h-1
				c0-0.6,0.1-1.4,0.4-2.4c0.2-0.9,0.6-1.8,1-2.7c0.5-0.9,0.9-1.6,1.5-2.2H501.7z"/>
			<path class="st12" d="M508.6,779v-1.2h1.2v1.2H508.6z"/>
			<path class="st12" d="M511.2,774.9c0-1,0.1-1.8,0.3-2.4c0.2-0.6,0.5-1.1,0.9-1.4c0.4-0.3,0.9-0.5,1.5-0.5c0.4,0,0.8,0.1,1.2,0.3
				c0.3,0.2,0.6,0.4,0.8,0.8s0.4,0.7,0.5,1.2c0.1,0.5,0.2,1.1,0.2,2c0,1-0.1,1.7-0.3,2.3c-0.2,0.6-0.5,1.1-0.9,1.4
				c-0.4,0.3-0.9,0.5-1.5,0.5c-0.8,0-1.4-0.3-1.9-0.9C511.5,777.6,511.2,776.5,511.2,774.9z M512.2,774.9c0,1.4,0.2,2.3,0.5,2.7
				c0.3,0.4,0.7,0.7,1.2,0.7s0.9-0.2,1.2-0.7c0.3-0.5,0.5-1.4,0.5-2.7c0-1.4-0.2-2.3-0.5-2.7c-0.3-0.4-0.7-0.7-1.2-0.7
				c-0.5,0-0.8,0.2-1.1,0.6C512.4,772.7,512.2,773.6,512.2,774.9z"/>
			<path class="st12" d="M519.2,774.5c-0.4-0.2-0.7-0.4-0.9-0.7s-0.3-0.6-0.3-1c0-0.6,0.2-1.1,0.6-1.5c0.4-0.4,1-0.6,1.7-0.6
				c0.7,0,1.3,0.2,1.7,0.6c0.4,0.4,0.7,0.9,0.7,1.5c0,0.4-0.1,0.7-0.3,1s-0.5,0.5-0.9,0.7c0.5,0.2,0.9,0.4,1.2,0.8
				c0.3,0.4,0.4,0.8,0.4,1.3c0,0.7-0.2,1.3-0.7,1.8c-0.5,0.5-1.2,0.7-2,0.7c-0.8,0-1.5-0.2-2-0.7c-0.5-0.5-0.7-1.1-0.7-1.8
				c0-0.5,0.1-1,0.4-1.3C518.3,774.9,518.7,774.7,519.2,774.5z M518.6,776.6c0,0.3,0.1,0.6,0.2,0.8c0.1,0.3,0.3,0.5,0.6,0.6
				c0.3,0.1,0.6,0.2,0.9,0.2c0.5,0,0.9-0.2,1.2-0.5c0.3-0.3,0.5-0.7,0.5-1.2c0-0.5-0.2-0.9-0.5-1.2c-0.3-0.3-0.7-0.5-1.2-0.5
				c-0.5,0-0.9,0.2-1.2,0.5C518.8,775.8,518.6,776.2,518.6,776.6z M519,772.8c0,0.4,0.1,0.7,0.4,1c0.3,0.2,0.6,0.4,1,0.4
				c0.4,0,0.7-0.1,1-0.4c0.2-0.2,0.4-0.5,0.4-0.9c0-0.4-0.1-0.7-0.4-0.9c-0.3-0.3-0.6-0.4-1-0.4c-0.4,0-0.7,0.1-1,0.4
				S519,772.5,519,772.8z"/>
			<path class="st12" d="M524.1,771.8v-1h5.3v0.8c-0.5,0.6-1,1.3-1.6,2.2s-0.9,1.9-1.2,2.9c-0.2,0.7-0.3,1.4-0.4,2.3h-1
				c0-0.6,0.1-1.4,0.4-2.4c0.2-0.9,0.6-1.8,1-2.7c0.5-0.9,0.9-1.6,1.5-2.2H524.1z"/>
			<path class="st12" d="M530.8,773.7l-0.3-1.6v-1.4h1.2v1.4l-0.3,1.6H530.8z M532.6,773.7l-0.3-1.6v-1.4h1.2v1.4l-0.3,1.6H532.6z"
				/>
			<path class="st12" d="M535.5,781.4h-0.7c1.1-1.8,1.7-3.6,1.7-5.4c0-0.7-0.1-1.4-0.2-2.1c-0.1-0.6-0.3-1.1-0.5-1.6
				c-0.1-0.3-0.4-0.9-0.9-1.7h0.7c0.7,0.9,1.2,1.9,1.6,2.8c0.3,0.8,0.4,1.7,0.4,2.6c0,1-0.2,2-0.6,2.9
				C536.5,779.9,536,780.7,535.5,781.4z"/>
		</g>
		<line class="st22" x1="163.3" y1="785.3" x2="837.2" y2="785.3"/>
		<polygon class="st2" points="152.6,785.2 165.7,788.7 165.7,781.7 		"/>
		<polygon class="st2" points="834.8,788.7 847.9,785.2 834.8,781.7 		"/>
		<line class="st23" x1="500.3" y1="758.6" x2="499.6" y2="31"/>
		<g>
			<path class="st2" d="M511,757.7v-4.9l-4.5-6.7h1.9l2.3,3.5c0.4,0.7,0.8,1.3,1.2,2c0.4-0.6,0.8-1.3,1.3-2l2.2-3.4h1.8l-4.6,6.7
				v4.9H511z"/>
			<path class="st2" d="M511,42.6v-4.9l-4.5-6.7h1.9l2.3,3.5c0.4,0.7,0.8,1.3,1.2,2c0.4-0.6,0.8-1.3,1.3-2l2.2-3.4h1.8l-4.6,6.7v4.9
				H511z"/>
		</g>
		<g>
			<path class="st12" d="M313.7,73.3l3.6-7.4l3.3,1.6c0.7,0.3,1.1,0.6,1.4,0.9c0.3,0.3,0.4,0.7,0.5,1.1c0,0.4,0,0.9-0.2,1.3
				c-0.3,0.5-0.6,0.9-1.2,1.1c-0.5,0.2-1.2,0.2-1.9-0.1c0.2,0.3,0.3,0.5,0.4,0.7c0.2,0.4,0.3,0.9,0.3,1.4l0.3,2.6l-1.2-0.6l-0.2-2
				c-0.1-0.6-0.1-1-0.2-1.4c-0.1-0.3-0.2-0.6-0.3-0.7c-0.1-0.2-0.2-0.3-0.4-0.4c-0.1-0.1-0.3-0.2-0.5-0.3l-1.1-0.6l-1.6,3.3
				L313.7,73.3z M316.7,69.7l2.1,1c0.4,0.2,0.8,0.3,1.1,0.4c0.3,0,0.6,0,0.8-0.2c0.2-0.1,0.4-0.3,0.5-0.6c0.2-0.4,0.2-0.7,0-1.1
				c-0.1-0.4-0.5-0.7-1-0.9l-2.4-1.1L316.7,69.7z"/>
			<path class="st12" d="M328.2,73.5l-0.9-0.4c0.1-0.4,0.1-0.7,0-0.9c-0.1-0.4-0.4-0.7-0.7-0.8c-0.3-0.1-0.6-0.2-0.9-0.1
				c-0.4,0.1-0.8,0.3-1.1,0.6c-0.4,0.3-0.7,0.9-1.1,1.6c0.4-0.2,0.8-0.3,1.2-0.4c0.4,0,0.8,0.1,1.1,0.2c0.6,0.3,1,0.8,1.2,1.4
				s0.1,1.3-0.2,2c-0.2,0.5-0.5,0.9-0.9,1.2s-0.8,0.5-1.3,0.5c-0.5,0-0.9,0-1.4-0.3c-0.8-0.4-1.2-0.9-1.5-1.7
				c-0.2-0.8,0-1.8,0.6-3.1c0.7-1.4,1.5-2.4,2.3-2.7c0.7-0.3,1.5-0.3,2.3,0.1c0.6,0.3,1,0.7,1.2,1.2
				C328.4,72.3,328.4,72.8,328.2,73.5z M323,74.9c-0.2,0.3-0.2,0.6-0.2,1c0,0.4,0.1,0.7,0.2,0.9c0.2,0.3,0.4,0.5,0.6,0.6
				c0.4,0.2,0.8,0.2,1.2,0c0.4-0.2,0.8-0.5,1-1.1c0.2-0.5,0.3-1,0.2-1.4c-0.1-0.4-0.4-0.7-0.8-0.9c-0.4-0.2-0.8-0.2-1.3-0.1
				C323.5,74.1,323.2,74.4,323,74.9z"/>
		</g>
		<line class="st24" x1="281.4" y1="61.8" x2="323.7" y2="82.6"/>
		<polygon class="st12" points="281.4,64.9 273.4,57.7 283.9,59.7 		"/>
		<g>
			<path class="st12" d="M306.4,218.9l-4.1-7.2l3.2-1.8c0.6-0.4,1.2-0.6,1.6-0.6c0.4-0.1,0.8,0,1.2,0.2c0.4,0.2,0.7,0.5,0.9,0.9
				c0.3,0.5,0.4,1,0.2,1.6c-0.1,0.5-0.5,1-1.1,1.5c0.3,0,0.6,0,0.8,0c0.4,0.1,0.9,0.3,1.3,0.5l2.4,1.2l-1.2,0.7l-1.8-1
				c-0.5-0.3-0.9-0.5-1.2-0.6c-0.3-0.1-0.6-0.2-0.8-0.2c-0.2,0-0.4,0-0.5,0.1c-0.1,0-0.3,0.1-0.5,0.3l-1.1,0.6l1.8,3.2L306.4,218.9z
				 M305,214.3l2-1.2c0.4-0.2,0.7-0.5,0.9-0.7c0.2-0.2,0.3-0.5,0.3-0.7c0-0.3,0-0.5-0.2-0.8c-0.2-0.3-0.5-0.5-0.8-0.6
				c-0.4-0.1-0.8,0-1.4,0.3l-2.3,1.3L305,214.3z"/>
			<path class="st12" d="M316.5,213.1l-0.9,0.5l-3.2-5.6c-0.1,0.3-0.3,0.7-0.5,1.1c-0.2,0.4-0.5,0.7-0.7,1l-0.5-0.9
				c0.4-0.5,0.6-1,0.8-1.6s0.3-1,0.2-1.4l0.6-0.3L316.5,213.1z"/>
		</g>
		<g>
			<path class="st12" d="M316.8,208.3c-0.5-0.8-0.8-1.6-0.9-2.2c-0.1-0.6-0.1-1.2,0.1-1.6c0.2-0.5,0.5-0.9,1.1-1.2
				c0.4-0.2,0.8-0.3,1.1-0.3c0.4,0,0.7,0.1,1.1,0.3s0.7,0.5,1.1,0.8c0.3,0.4,0.7,0.9,1.1,1.6c0.5,0.8,0.8,1.6,0.9,2.2
				c0.1,0.6,0.1,1.2-0.1,1.6c-0.2,0.5-0.5,0.9-1.1,1.2c-0.7,0.4-1.4,0.5-2.1,0.2C318.3,210.4,317.5,209.6,316.8,208.3z M317.7,207.7
				c0.7,1.2,1.3,1.9,1.8,2.1c0.5,0.2,0.9,0.2,1.4,0c0.4-0.2,0.6-0.6,0.7-1.2c0.1-0.5-0.3-1.4-0.9-2.6c-0.7-1.2-1.3-1.9-1.8-2.1
				c-0.5-0.2-1-0.2-1.4,0c-0.4,0.2-0.6,0.6-0.7,1.1C316.7,205.7,317,206.6,317.7,207.7z"/>
		</g>
		<line class="st24" x1="284.8" y1="235.7" x2="325.9" y2="212.6"/>
		<polygon class="st12" points="287.3,237.4 276.8,240 284.5,232.4 		"/>
		<g>
			<path class="st12" d="M286.4,280.8h-1v-6.5c-0.2,0.2-0.6,0.5-1,0.7c-0.4,0.2-0.8,0.4-1.1,0.5v-1c0.6-0.3,1.1-0.6,1.5-1
				c0.4-0.4,0.7-0.7,0.9-1.1h0.7V280.8z"/>
			<path class="st12" d="M294.3,279.9v1h-5.5c0-0.2,0-0.5,0.1-0.7c0.1-0.4,0.4-0.7,0.7-1.1c0.3-0.4,0.7-0.8,1.3-1.2
				c0.9-0.7,1.5-1.3,1.8-1.7c0.3-0.4,0.5-0.8,0.5-1.2c0-0.4-0.1-0.7-0.4-1s-0.7-0.4-1.1-0.4c-0.5,0-0.9,0.1-1.2,0.4
				c-0.3,0.3-0.4,0.7-0.4,1.2l-1-0.1c0.1-0.8,0.3-1.4,0.8-1.8s1.1-0.6,1.9-0.6c0.8,0,1.4,0.2,1.9,0.7c0.5,0.4,0.7,1,0.7,1.6
				c0,0.3-0.1,0.7-0.2,1c-0.1,0.3-0.4,0.7-0.7,1c-0.3,0.4-0.8,0.8-1.6,1.5c-0.6,0.5-1,0.9-1.2,1c-0.2,0.2-0.3,0.4-0.4,0.5H294.3z"/>
			<path class="st12" d="M295.8,273.3c0-0.3,0.1-0.5,0.3-0.7c0.2-0.2,0.4-0.3,0.7-0.3c0.3,0,0.5,0.1,0.7,0.3
				c0.2,0.2,0.3,0.4,0.3,0.7c0,0.3-0.1,0.5-0.3,0.7c-0.2,0.2-0.4,0.3-0.7,0.3c-0.3,0-0.5-0.1-0.7-0.3
				C295.9,273.9,295.8,273.6,295.8,273.3z M296.2,273.3c0,0.2,0.1,0.3,0.2,0.4s0.3,0.2,0.4,0.2c0.2,0,0.3-0.1,0.4-0.2
				c0.1-0.1,0.2-0.3,0.2-0.4s-0.1-0.3-0.2-0.4s-0.3-0.2-0.4-0.2c-0.2,0-0.3,0.1-0.4,0.2S296.2,273.1,296.2,273.3z"/>
		</g>
		<g>
			<path class="st22" d="M314.7,260.8c0,0-7,7.6-7,15.8c0,9.9,4.6,16,4.6,16"/>
		</g>
		<polygon class="st12" points="308.5,264.6 316.9,257.8 313.2,267.9 		"/>
		<polygon class="st12" points="312,287.1 316.7,296.8 307.7,290.8 		"/>
		<g>
			<path class="st12" d="M282.2,610.9h-1v-6.5c-0.2,0.2-0.6,0.5-1,0.7c-0.4,0.2-0.8,0.4-1.1,0.5v-1c0.6-0.3,1.1-0.6,1.5-1
				s0.7-0.7,0.9-1.1h0.7V610.9z"/>
			<path class="st12" d="M290.1,609.9v1h-5.5c0-0.2,0-0.5,0.1-0.7c0.1-0.4,0.4-0.7,0.7-1.1c0.3-0.4,0.7-0.8,1.3-1.2
				c0.9-0.7,1.5-1.3,1.8-1.7c0.3-0.4,0.5-0.8,0.5-1.2c0-0.4-0.1-0.7-0.4-1s-0.7-0.4-1.1-0.4c-0.5,0-0.9,0.1-1.2,0.4
				s-0.4,0.7-0.4,1.2l-1-0.1c0.1-0.8,0.3-1.4,0.8-1.8s1.1-0.6,1.9-0.6c0.8,0,1.4,0.2,1.9,0.7c0.5,0.4,0.7,1,0.7,1.6
				c0,0.3-0.1,0.7-0.2,1c-0.1,0.3-0.4,0.7-0.7,1c-0.3,0.4-0.8,0.8-1.6,1.5c-0.6,0.5-1,0.9-1.2,1c-0.2,0.2-0.3,0.4-0.4,0.5H290.1z"/>
			<path class="st12" d="M291.6,603.3c0-0.3,0.1-0.5,0.3-0.7c0.2-0.2,0.4-0.3,0.7-0.3c0.3,0,0.5,0.1,0.7,0.3
				c0.2,0.2,0.3,0.4,0.3,0.7c0,0.3-0.1,0.5-0.3,0.7c-0.2,0.2-0.4,0.3-0.7,0.3c-0.3,0-0.5-0.1-0.7-0.3
				C291.7,603.9,291.6,603.6,291.6,603.3z M292.1,603.4c0,0.2,0.1,0.3,0.2,0.4s0.3,0.2,0.4,0.2c0.2,0,0.3-0.1,0.4-0.2
				c0.1-0.1,0.2-0.3,0.2-0.4s-0.1-0.3-0.2-0.4s-0.3-0.2-0.4-0.2c-0.2,0-0.3,0.1-0.4,0.2S292.1,603.2,292.1,603.4z"/>
		</g>
		<g>
			<path class="st22" d="M310.6,590.9c0,0-7,7.6-7,15.8c0,9.9,4.6,16,4.6,16"/>
		</g>
		<polygon class="st12" points="304.4,594.6 312.8,587.9 309,598 		"/>
		<polygon class="st12" points="307.9,617.1 312.5,626.9 303.5,620.9 		"/>
		<line class="st24" x1="162.3" y1="735.3" x2="203.4" y2="712.3"/>
		<polygon class="st12" points="164.9,737 154.4,739.6 162.1,732 		"/>
		<g>
			<path class="st12" d="M196.9,681.5l3.6-7.4l3.3,1.6c0.7,0.3,1.1,0.6,1.4,0.9c0.3,0.3,0.4,0.7,0.5,1.1c0,0.4,0,0.9-0.2,1.3
				c-0.3,0.5-0.6,0.9-1.2,1.1c-0.5,0.2-1.2,0.2-1.9-0.1c0.2,0.3,0.3,0.5,0.4,0.7c0.2,0.4,0.3,0.9,0.3,1.4l0.3,2.6l-1.2-0.6l-0.2-2
				c-0.1-0.6-0.1-1-0.2-1.4c-0.1-0.3-0.2-0.6-0.3-0.7c-0.1-0.2-0.2-0.3-0.4-0.4c-0.1-0.1-0.3-0.2-0.5-0.3l-1.1-0.6l-1.6,3.3
				L196.9,681.5z M199.9,677.8l2.1,1c0.4,0.2,0.8,0.3,1.1,0.4c0.3,0,0.6,0,0.8-0.2c0.2-0.1,0.4-0.3,0.5-0.6c0.2-0.4,0.2-0.7,0-1.1
				c-0.1-0.3-0.5-0.7-1-0.9l-2.4-1.1L199.9,677.8z"/>
			<path class="st12" d="M207.5,686.6l-0.9-0.4l2.8-5.8c-0.3,0.1-0.7,0.2-1.2,0.2c-0.5,0-0.9,0-1.2,0l0.4-0.9c0.6,0,1.2-0.1,1.8-0.2
				c0.5-0.2,1-0.4,1.3-0.6l0.6,0.3L207.5,686.6z"/>
			<path class="st12" d="M211.6,684.1c0.4-0.9,0.9-1.5,1.3-2c0.4-0.4,0.9-0.7,1.4-0.8c0.5-0.1,1,0,1.6,0.2c0.4,0.2,0.7,0.4,0.9,0.7
				s0.4,0.7,0.4,1.1c0,0.4,0,0.8-0.1,1.3s-0.3,1.1-0.7,1.8c-0.4,0.9-0.9,1.5-1.3,2c-0.4,0.4-0.9,0.7-1.4,0.9s-1,0-1.6-0.2
				c-0.7-0.3-1.2-0.9-1.3-1.6C210.7,686.6,210.9,685.5,211.6,684.1z M212.5,684.5c-0.6,1.2-0.8,2.1-0.7,2.6c0.1,0.5,0.3,0.9,0.8,1.1
				c0.4,0.2,0.9,0.2,1.4-0.1c0.5-0.3,1-1,1.6-2.2c0.6-1.2,0.8-2.1,0.8-2.6s-0.3-0.9-0.8-1.1c-0.4-0.2-0.8-0.2-1.3,0
				C213.7,682.6,213.1,683.3,212.5,684.5z"/>
		</g>
		<line class="st24" x1="169.7" y1="672.6" x2="212" y2="693.4"/>
		<polygon class="st12" points="169.7,675.6 161.7,668.5 172.2,670.5 		"/>
		<line class="st25" x1="853.6" y1="400.3" x2="290.3" y2="399.8"/>
		<line class="st26" x1="268.8" y1="399.8" x2="233.6" y2="399.8"/>
		<path class="st27" d="M866.5,400.3l-8.1,0 M287.9,399.8l-8.1,0h-7.5 M231.8,399.8h-7.5"/>
		<g>
			<defs>
				<rect id="SVGID_11_" x="152.2" y="11" width="725.7" height="783.3"/>
			</defs>
			<clipPath id="SVGID_6_">
				<use xlink:href="#SVGID_11_"  style="overflow:visible;"/>
			</clipPath>
			<path style="clip-path:url(#SVGID_6_);fill:#221E1F;" d="M209.7,404.1l3.3-4.4l-2.9-4.1h1.3l1.6,2.2c0.3,0.5,0.6,0.8,0.7,1
				c0.2-0.3,0.4-0.6,0.7-1l1.7-2.3h1.2l-3,4.1l3.2,4.5h-1.4l-2.2-3c-0.1-0.2-0.2-0.3-0.4-0.5c-0.2,0.3-0.3,0.5-0.4,0.6l-2.2,3H209.7
				z"/>
			<path style="clip-path:url(#SVGID_6_);fill:#221E1F;" d="M870.1,404.1l3.3-4.4l-2.9-4.1h1.3l1.6,2.2c0.3,0.5,0.6,0.8,0.7,1
				c0.2-0.3,0.4-0.6,0.7-1l1.7-2.3h1.2l-3,4.1l3.2,4.5h-1.4l-2.2-3c-0.1-0.2-0.2-0.3-0.4-0.5c-0.2,0.3-0.3,0.5-0.4,0.6l-2.2,3H870.1
				z"/>
		</g>
		<g>
			<path class="st12" d="M345.1,327.8l-4.1-7.2l3.2-1.8c0.6-0.4,1.2-0.6,1.6-0.6c0.4-0.1,0.8,0,1.2,0.2c0.4,0.2,0.7,0.5,0.9,0.9
				c0.3,0.5,0.4,1,0.2,1.6c-0.1,0.5-0.5,1-1.1,1.5c0.3,0,0.6,0,0.8,0c0.4,0.1,0.9,0.3,1.3,0.5l2.4,1.2l-1.2,0.7l-1.8-1
				c-0.5-0.3-0.9-0.5-1.2-0.6c-0.3-0.1-0.6-0.2-0.8-0.2c-0.2,0-0.4,0-0.5,0.1c-0.1,0-0.3,0.1-0.5,0.3l-1.1,0.6l1.8,3.2L345.1,327.8z
				 M343.8,323.2l2-1.2c0.4-0.2,0.7-0.5,0.9-0.7c0.2-0.2,0.3-0.5,0.3-0.7c0-0.3,0-0.5-0.2-0.8c-0.2-0.3-0.5-0.5-0.8-0.6
				c-0.4-0.1-0.8,0-1.4,0.3l-2.3,1.3L343.8,323.2z"/>
			<path class="st12" d="M350.9,322l0.8-0.6c0.4,0.4,0.8,0.7,1.1,0.8c0.4,0.1,0.7,0,1.1-0.2c0.4-0.2,0.7-0.6,0.8-1
				c0.1-0.4,0.1-0.9-0.2-1.3c-0.2-0.4-0.6-0.7-1-0.8c-0.4-0.1-0.8-0.1-1.2,0.2c-0.2,0.1-0.4,0.2-0.6,0.5l-0.3-0.8
				c0.1,0,0.1,0,0.1-0.1c0.4-0.2,0.7-0.5,0.8-0.9c0.2-0.4,0.2-0.8-0.1-1.2c-0.2-0.3-0.4-0.5-0.8-0.6s-0.7,0-1,0.2
				c-0.3,0.2-0.6,0.5-0.7,0.8c-0.1,0.3-0.1,0.8,0.1,1.2l-1,0.3c-0.2-0.7-0.2-1.2,0-1.8c0.2-0.5,0.6-1,1.1-1.3
				c0.4-0.2,0.8-0.3,1.2-0.4c0.4,0,0.8,0.1,1.1,0.3c0.3,0.2,0.6,0.4,0.8,0.8c0.2,0.3,0.3,0.6,0.2,1c0,0.3-0.2,0.7-0.4,1
				c0.5-0.1,0.9-0.1,1.3,0c0.4,0.2,0.7,0.5,1,1c0.4,0.6,0.4,1.3,0.2,2c-0.2,0.7-0.7,1.2-1.4,1.6c-0.6,0.4-1.3,0.5-1.9,0.3
				S351.3,322.5,350.9,322z"/>
		</g>
		<g>
			<path class="st12" d="M361.7,317.2l0.5,0.8l-4.7,2.7c-0.1-0.2-0.2-0.4-0.2-0.7c-0.1-0.4-0.1-0.8,0-1.3c0.1-0.5,0.3-1,0.5-1.7
				c0.4-1.1,0.7-1.9,0.7-2.4c0.1-0.5,0-1-0.2-1.3c-0.2-0.3-0.5-0.6-0.9-0.7s-0.8,0-1.2,0.2c-0.4,0.2-0.7,0.6-0.8,1
				c-0.1,0.4,0,0.8,0.2,1.3l-1,0.4c-0.3-0.7-0.4-1.4-0.2-1.9s0.6-1.1,1.3-1.5c0.7-0.4,1.3-0.5,2-0.4c0.6,0.2,1.1,0.5,1.4,1.1
				c0.2,0.3,0.3,0.6,0.3,0.9c0,0.3,0,0.7-0.1,1.2c-0.1,0.5-0.3,1.1-0.6,2c-0.3,0.7-0.4,1.2-0.5,1.5c-0.1,0.2-0.1,0.5-0.1,0.7
				L361.7,317.2z"/>
		</g>
		<line class="st24" x1="387.2" y1="307.6" x2="346.1" y2="330.6"/>
		<polygon class="st12" points="384.6,305.9 395.1,303.3 387.5,310.9 		"/>
		<line class="st24" x1="400.7" y1="582.4" x2="358.4" y2="561.6"/>
		<polygon class="st12" points="400.7,579.3 408.7,586.5 398.1,584.5 		"/>
		<line class="st22" x1="268.5" y1="247.6" x2="268.5" y2="12.9"/>
	</g>
</g>
<g id="Watermark">
	<g>
		<rect x="438.5" y="374.3" class="st0" width="123.1" height="46.3"/>
		<g>
			<rect x="444.9" y="382.1" class="st75" width="62.9" height="30.6"/>
			<rect x="507.7" y="382.1" class="st75" width="47.4" height="30.6"/>
			<g>
				<path class="st76" d="M466.5,388.2l-2.8,18.9H461l-1.6-11l-1.5,11h-2.7l-2.8-18.9h2.5l1.8,14.2l1.8-14.2h2l1.8,14.2l1.8-14.2
					H466.5z"/>
				<path class="st76" d="M467.9,407.2v-18.9h2.5v18.9H467.9z"/>
				<path class="st76" d="M472.8,388.2h5c1.9,0,2.9,1.1,2.9,3.2v4.7c0,1.7-0.5,2.7-1.5,3.1l1.8,7.9h-2.4l-1.7-7.6h-1.5v7.6h-2.5
					V388.2z M475.4,397.3h1.7c0.8,0,1.1-0.5,1.1-1.4v-4.1c0-0.9-0.4-1.4-1.1-1.4h-1.7V397.3z"/>
				<path class="st76" d="M486.8,390.5v16.6h-2.5v-16.6h-2.4v-2.3h7.4v2.3H486.8z"/>
				<path class="st76" d="M496.3,407.2v-8.6h-3.1v8.6h-2.5v-18.9h2.5v8h3.1v-8h2.5v18.9H496.3z"/>
			</g>
			<g>
				<path class="st76" d="M516.3,388.2h5c1.9,0,2.9,1.1,2.9,3.2v4.7c0,1.7-0.5,2.7-1.5,3.1l1.8,7.9H522l-1.7-7.6h-1.5v7.6h-2.5
					V388.2z M518.8,397.3h1.7c0.8,0,1.1-0.5,1.1-1.4v-4.1c0-0.9-0.4-1.4-1.1-1.4h-1.7V397.3z"/>
				<path class="st76" d="M528.7,407.2h-2.5v-15.7c0-2.2,1-3.2,3-3.2h1.9c2,0,3,1.1,3,3.2v15.7h-2.5v-6.9h-2.9V407.2z M531.6,397.9
					v-6.3c0-0.7-0.4-1.1-1.1-1.1h-0.7c-0.7,0-1.1,0.4-1.1,1.1v6.3H531.6z"/>
				<path class="st76" d="M536.3,407.2v-18.9h2.5v18.9H536.3z"/>
				<path class="st76" d="M547.2,407.2h-6v-18.9h2.5v16.6h3.5V407.2z"/>
			</g>
		</g>
	</g>
</g>
</svg>
