<?xml version="1.0" encoding="utf-8"?>
<!-- Generator: Adobe Illustrator 25.2.3, SVG Export Plug-In . SVG Version: 6.00 Build 0)  -->
<svg version="1.1" xmlns="http://www.w3.org/2000/svg" xmlns:xlink="http://www.w3.org/1999/xlink" x="0px" y="0px"
	 viewBox="0 0 1000 800" style="enable-background:new 0 0 1000 800;" xml:space="preserve">
<style type="text/css">
	.st0{fill:#F0F0F0;}
	.st1{fill:none;stroke:#221E1F;stroke-width:1.0614;}
	.st2{fill:#221E1F;}
	.st3{fill:none;stroke:#221E1F;stroke-width:1.0614;stroke-dasharray:12.8405,6.4722;}
	.st4{fill:none;stroke:#000000;stroke-width:1.404;}
	.st5{fill:none;stroke:#000000;stroke-width:0.975;}
	.st6{fill:none;stroke:#000000;stroke-width:0.975;stroke-dasharray:11.5538,5.7038;}
	.st7{fill:none;stroke:#000000;stroke-width:0.975;stroke-miterlimit:10;}
	.st8{fill:none;stroke:#221E1F;stroke-width:0.8906;}
	.st9{fill:none;stroke:#221E1F;stroke-width:0.8819;}
	.st10{clip-path:url(#SVGID_2_);fill:none;stroke:#221E1F;stroke-width:0.8819;}
	.st11{clip-path:url(#SVGID_4_);fill:none;stroke:#221E1F;stroke-width:0.8819;}
	.st12{fill:#303030;}
	.st13{fill:none;stroke:#303030;stroke-width:0.8906;stroke-miterlimit:10;}
	.st14{clip-path:url(#SVGID_6_);fill:none;stroke:#221E1F;stroke-width:0.8906;}
	.st15{fill:none;stroke:#221E1F;stroke-width:0.8906;stroke-dasharray:23.0235,6.997;}
	.st16{fill:none;stroke:#221E1F;stroke-width:0.8906;stroke-dasharray:19.498,3.4714;}
	.st17{fill:none;stroke:#221E1F;stroke-width:0.8906;stroke-dasharray:21.3897,6.2234;}
	.st18{clip-path:url(#SVGID_8_);fill:none;stroke:#221E1F;stroke-width:0.8025;}
	.st19{fill:none;stroke:#221E1F;stroke-width:0.7299;}
	.st20{clip-path:url(#SVGID_10_);fill:none;stroke:#221E1F;stroke-width:0.8025;}
	.st21{fill:none;stroke:#221E1F;stroke-width:0.7726;}
	.st22{fill:none;stroke:#221E1F;stroke-width:0.8025;}
	.st23{fill:none;stroke:#221E1F;stroke-width:0.8025;stroke-dasharray:21.5886,6.6505;}
	.st24{fill:none;stroke:#303030;stroke-width:0.8025;stroke-miterlimit:10;}
	.st25{fill:none;stroke:#221E1F;stroke-width:0.811;stroke-dasharray:21.8106,6.6911;}
	.st26{fill:none;stroke:#221E1F;stroke-width:0.811;stroke-dasharray:16.7651,1.6456;}
	.st27{fill:none;stroke:#221E1F;stroke-width:0.811;}
	.st28{clip-path:url(#SVGID_12_);fill:#221E1F;}
	.st29{fill:none;stroke:#221E1F;stroke-width:1.2695;}
	.st30{fill:none;stroke:#221E1F;stroke-width:0.8814;}
	.st31{fill:none;stroke:#221E1F;stroke-width:1.4133;}
	.st32{fill:none;stroke:#221E1F;stroke-width:0.9807;}
	.st33{fill:none;stroke:#221E1F;stroke-width:0.9807;stroke-dasharray:13.5825,6.7924;}
	.st34{fill:none;stroke:#221E1F;stroke-width:0.9807;stroke-dasharray:19.5641,12.5429;}
	.st35{fill:none;stroke:#221E1F;stroke-width:1.1332;}
	.st36{fill:none;stroke:#221E1F;stroke-width:1.7102;}
	.st37{fill:none;stroke:#221E1F;stroke-width:1.2031;stroke-linecap:round;stroke-linejoin:round;stroke-miterlimit:10;}
	.st38{fill:none;stroke:#221E1F;stroke-width:1.2031;}
	.st39{fill:none;stroke:#221E1F;stroke-width:1.2031;stroke-miterlimit:10;}
	
		.st40{fill:none;stroke:#221E1F;stroke-width:1.2031;stroke-linecap:round;stroke-linejoin:round;stroke-miterlimit:10;stroke-dasharray:9.1021,1.1746,1.1746,1.1746;stroke-dashoffset:10;}
	
		.st41{fill:none;stroke:#221E1F;stroke-width:1.2031;stroke-linecap:round;stroke-linejoin:round;stroke-miterlimit:10;stroke-dasharray:9.1228,1.1953,1.1953,1.1953;stroke-dashoffset:10;}
	.st42{fill:none;stroke:#221E1F;stroke-width:1.0246;}
	.st43{fill:none;stroke:#221E1F;stroke-width:1.0246;stroke-dasharray:5.7593,5.7593;}
	.st44{fill:none;stroke:#221E1F;stroke-width:1.0582;}
	.st45{fill:none;stroke:#221E1F;stroke-width:1.0246;stroke-dasharray:5.8059,5.8059;}
	.st46{fill:none;stroke:#241F21;stroke-width:0.8839;}
	.st47{fill:#241F21;}
	.st48{fill:none;stroke:#241F21;stroke-width:1.2533;}
	.st49{fill:none;stroke:#241F21;stroke-width:0.7133;stroke-linecap:round;stroke-linejoin:round;stroke-miterlimit:10;}
	.st50{fill:none;stroke:#241F21;stroke-width:0.8839;stroke-miterlimit:10;}
	
		.st51{clip-path:url(#SVGID_14_);fill:none;stroke:#241F21;stroke-width:0.8839;stroke-linecap:round;stroke-linejoin:round;stroke-miterlimit:10;}
	.st52{clip-path:url(#SVGID_14_);fill:none;stroke:#241F21;stroke-width:0.8839;stroke-miterlimit:10;}
	.st53{fill:none;stroke:#241F21;stroke-width:0.8839;stroke-linecap:round;stroke-linejoin:round;stroke-miterlimit:10;}
	.st54{fill:none;stroke:#241F21;stroke-width:0.7642;stroke-linecap:round;stroke-linejoin:round;stroke-miterlimit:10;}
	
		.st55{fill:none;stroke:#241F21;stroke-width:0.7133;stroke-linecap:round;stroke-linejoin:round;stroke-miterlimit:10;stroke-dasharray:9.9652,1.3195,1.3195,1.3195;stroke-dashoffset:11;}
	
		.st56{fill:none;stroke:#241F21;stroke-width:0.7133;stroke-linecap:round;stroke-linejoin:round;stroke-miterlimit:10;stroke-dasharray:9.7079,1.0622,1.0622,1.0622;stroke-dashoffset:10;}
	.st57{fill:none;stroke:#241F21;stroke-width:0.8839;stroke-dasharray:5.5991,5.5991;}
	.st58{fill:none;stroke:#241F21;stroke-width:0.7515;stroke-dasharray:5.6857,5.6857;}
	.st59{fill:none;stroke:#221E1F;stroke-width:1.0101;stroke-miterlimit:10;}
	.st60{fill:none;stroke:#221E1F;stroke-width:1.0012;}
	.st61{fill:none;stroke:#221E1F;stroke-width:0.9081;}
	.st62{fill:none;stroke:#221E1F;stroke-width:1.0385;}
	.st63{fill:none;stroke:#221E1F;stroke-width:0.9081;stroke-dasharray:20.8407,6.1278;}
	.st64{fill:none;stroke:#221E1F;stroke-width:1.406;}
	.st65{fill:none;stroke:#221E1F;stroke-width:0.9906;}
	.st66{fill:none;stroke:#221E1F;stroke-width:0.9887;}
	.st67{fill:none;stroke:#221E1F;stroke-width:0.8443;}
	.st68{fill:none;stroke:#221E1F;stroke-width:0.8443;stroke-dasharray:4.4655,4.4655;}
	.st69{fill:none;stroke:#221E1F;stroke-width:1.7608;}
	.st70{fill:none;stroke:#221E1F;stroke-width:1.0549;}
	.st71{clip-path:url(#SVGID_16_);fill:none;stroke:#221E1F;stroke-width:1.0549;}
	.st72{fill:none;stroke:#221E1F;stroke-width:1.0549;stroke-dasharray:5.538,5.538;}
	.st73{clip-path:url(#SVGID_18_);}
	.st74{clip-path:url(#SVGID_20_);}
	.st75{fill:#F0F0F0;stroke:#CCCCCC;stroke-miterlimit:10;}
	.st76{fill:#CCCCCC;}
</style>
<g id="Flat">
	<g>
		<g>
			<path class="st0" d="M500.3,705.6h387.9c10.8,0,18.1-8.7,18.1-14.1c0.1-5.3,0.5-16.4,0.5-25c0-11.9-9.9-27.9-25.6-31.8
				c-17.7-4.4-67.6-17.4-87.2-22c-24.8-5.8-25.5-22.7-25.8-33.9c-0.2-11.3,0.2-206.4,0.5-235.5c0.2-29.2,18.1-49.8,32.8-54.4
				c14.7-4.7,65.4-17.2,84.1-21.8c16-4,21.9-18.6,21.7-27.4c-0.2-9.6,0-72.3,0-92.6c0-17-9.9-31.4-25.6-32.7
				c-15.7-1.3-381.6-0.8-381.6-0.8H500c0,0-365.9-0.5-381.6,0.8c-15.7,1.3-25.6,15.7-25.6,32.7c0,20.3,0.2,83,0,92.6
				c-0.2,8.8,5.8,23.4,21.7,27.4c18.6,4.7,69.4,17.2,84.1,21.8c14.7,4.7,32.6,25.2,32.8,54.4c0.2,29.2,0.7,224.3,0.5,235.5
				c-0.2,11.3-1,28.2-25.8,33.9c-19.6,4.5-69.5,17.6-87.2,22c-15.7,3.9-25.6,19.9-25.6,31.8c0,8.6,0.4,19.7,0.5,25
				c0.1,5.3,7.4,14.1,18.1,14.1H500H500.3z"/>
			<path class="st31" d="M500.3,705.6h387.9c10.8,0,18.1-8.7,18.1-14.1c0.1-5.3,0.5-16.4,0.5-25c0-11.9-9.9-27.9-25.6-31.8
				c-17.7-4.4-67.6-17.4-87.2-22c-24.8-5.8-25.5-22.7-25.8-33.9c-0.2-11.3,0.2-206.4,0.5-235.5c0.2-29.2,18.1-49.8,32.8-54.4
				c14.7-4.7,65.4-17.2,84.1-21.8c16-4,21.9-18.6,21.7-27.4c-0.2-9.6,0-72.3,0-92.6c0-17-9.9-31.4-25.6-32.7
				c-15.7-1.3-381.6-0.8-381.6-0.8H500c0,0-365.9-0.5-381.6,0.8c-15.7,1.3-25.6,15.7-25.6,32.7c0,20.3,0.2,83,0,92.6
				c-0.2,8.8,5.8,23.4,21.7,27.4c18.6,4.7,69.4,17.2,84.1,21.8c14.7,4.7,32.6,25.2,32.8,54.4c0.2,29.2,0.7,224.3,0.5,235.5
				c-0.2,11.3-1,28.2-25.8,33.9c-19.6,4.5-69.5,17.6-87.2,22c-15.7,3.9-25.6,19.9-25.6,31.8c0,8.6,0.4,19.7,0.5,25
				c0.1,5.3,7.4,14.1,18.1,14.1H500H500.3z"/>
		</g>
		<path class="st32" d="M92.8,21.4v240.9 M106.9,754.8h786.7"/>
		<polygon class="st2" points="109.8,758.9 93.8,754.7 109.8,750.4 		"/>
		<polygon class="st2" points="890.7,758.9 906.6,754.7 890.7,750.4 		"/>
		<polyline class="st32" points="111.3,131.9 141.6,164.3 220.3,164.3 		"/>
		<polygon class="st2" points="110.3,136.8 102.5,122.2 116.6,131 		"/>
		<polyline class="st32" points="110.3,249.6 138.3,226.9 217,226.9 		"/>
		<polygon class="st2" points="115.1,250.9 100,257.6 109.7,244.3 		"/>
		<polyline class="st32" points="209.5,316.5 171.9,341.7 93.2,341.7 		"/>
		<polygon class="st2" points="204.8,314.8 220.4,309.4 209.5,321.9 		"/>
		<polyline class="st32" points="91,713.1 57.9,747.6 5.9,747.6 		"/>
		<polygon class="st2" points="86,712.4 100.2,703.9 92.2,718.3 		"/>
		<polyline class="st32" points="214.7,592.3 176.8,564.9 98.1,564.9 		"/>
		<polygon class="st2" points="214.7,587.2 225.1,600.1 209.7,594.2 		"/>
		<polyline class="st32" points="111.8,659.4 151.1,683.6 243.8,683.6 		"/>
		<polygon class="st2" points="112.1,664.4 100.8,652.4 116.6,657.1 		"/>
		<line class="st32" x1="107.1" y1="33.5" x2="892.8" y2="33.5"/>
		<polygon class="st2" points="110,37.6 94,33.3 110,29 		"/>
		<polygon class="st2" points="889.9,37.6 905.8,33.3 889.9,29 		"/>
		<line class="st32" x1="63" y1="249.3" x2="63" y2="129.6"/>
		<polygon class="st2" points="67,246.4 62.8,262.3 58.5,246.4 		"/>
		<polygon class="st2" points="67,132.5 62.8,116.6 58.5,132.5 		"/>
		<line class="st32" x1="753.7" y1="449.9" x2="245.4" y2="449.9"/>
		<polygon class="st2" points="750.8,445.8 766.7,450.1 750.8,454.4 		"/>
		<polygon class="st2" points="248.3,445.8 232.4,450.1 248.3,454.4 		"/>
		<line class="st32" x1="64.4" y1="653.9" x2="64.4" y2="690.5"/>
		<polygon class="st2" points="60.3,656.8 64.5,640.9 68.8,656.8 		"/>
		<polygon class="st2" points="60.3,687.6 64.5,703.5 68.8,687.6 		"/>
		<line class="st32" x1="34" y1="691.5" x2="34" y2="128.5"/>
		<polygon class="st2" points="38.1,688.5 33.9,704.5 29.6,688.5 		"/>
		<polygon class="st2" points="38.1,131.4 33.9,115.5 29.6,131.4 		"/>
		<line class="st32" x1="937.4" y1="691.5" x2="937.4" y2="128.3"/>
		<polygon class="st2" points="941.5,688.5 937.2,704.5 932.9,688.5 		"/>
		<polygon class="st2" points="941.5,131.2 937.2,115.2 932.9,131.2 		"/>
		<line class="st32" x1="500.1" y1="525.8" x2="500.1" y2="377.3"/>
		<polygon class="st2" points="504.2,522.9 499.9,538.8 495.7,522.9 		"/>
		<polygon class="st2" points="504.2,380.2 499.9,364.3 495.7,380.2 		"/>
		<line class="st32" x1="500.1" y1="690.3" x2="500.1" y2="551.8"/>
		<polygon class="st2" points="504.2,687.4 499.9,703.4 495.7,687.4 		"/>
		<polygon class="st2" points="504.2,554.7 499.9,538.8 495.7,554.7 		"/>
		<line class="st32" x1="500.1" y1="348.3" x2="500.1" y2="126.3"/>
		<polygon class="st2" points="504.2,345.4 499.9,361.3 495.7,345.4 		"/>
		<polygon class="st2" points="504.2,129.2 499.9,113.3 495.7,129.2 		"/>
		<path class="st32" d="M979.7,113.2H9.1 M973.6,399.9h-5.9"/>
		<line class="st33" x1="961.8" y1="399.9" x2="153.6" y2="399.9"/>
		<g>
			<path class="st32" d="M150.7,399.9h-5.9 M9.5,704.7h942.2 M48.7,640h44.1l405.9-100.2l407.9,101v145.1 M19.9,263.3h76
				 M92.9,639.6V785 M499.7,56.4v5.9"/>
		</g>
		<line class="st34" x1="499.7" y1="68.4" x2="499.7" y2="120.1"/>
		<path class="st32" d="M499.7,123.1v5.9 M92.8,262.3l406,102l408.8-102.9V23.1 M231.1,295.7v309.8 M767.4,295.7v309.8"/>
		<g>
			<path class="st2" d="M497.4,23.9v1.7h-9.3c0-0.4,0.1-0.8,0.2-1.2c0.2-0.6,0.6-1.3,1.1-1.9s1.3-1.3,2.3-2.1c1.5-1.3,2.6-2.2,3.1-3
				c0.5-0.7,0.8-1.4,0.8-2.1c0-0.7-0.2-1.3-0.7-1.7c-0.5-0.5-1.1-0.7-1.9-0.7c-0.8,0-1.5,0.2-2,0.7c-0.5,0.5-0.8,1.2-0.8,2.1
				l-1.8-0.2c0.1-1.3,0.6-2.3,1.4-3s1.9-1,3.2-1c1.3,0,2.4,0.4,3.2,1.1c0.8,0.7,1.2,1.7,1.2,2.8c0,0.6-0.1,1.1-0.3,1.7
				c-0.2,0.5-0.6,1.1-1.1,1.7c-0.5,0.6-1.4,1.4-2.7,2.5c-1,0.9-1.7,1.5-2,1.8s-0.5,0.6-0.7,0.9H497.4z"/>
			<path class="st2" d="M508.3,23.9v1.7H499c0-0.4,0.1-0.8,0.2-1.2c0.2-0.6,0.6-1.3,1.1-1.9s1.3-1.3,2.3-2.1c1.5-1.3,2.6-2.2,3.1-3
				c0.5-0.7,0.8-1.4,0.8-2.1c0-0.7-0.2-1.3-0.7-1.7c-0.5-0.5-1.1-0.7-1.9-0.7c-0.8,0-1.5,0.2-2,0.7c-0.5,0.5-0.8,1.2-0.8,2.1
				l-1.8-0.2c0.1-1.3,0.6-2.3,1.4-3s1.9-1,3.2-1c1.3,0,2.4,0.4,3.2,1.1c0.8,0.7,1.2,1.7,1.2,2.8c0,0.6-0.1,1.1-0.3,1.7
				c-0.2,0.5-0.6,1.1-1.1,1.7c-0.5,0.6-1.4,1.4-2.7,2.5c-1,0.9-1.7,1.5-2,1.8s-0.5,0.6-0.7,0.9H508.3z"/>
			<path class="st2" d="M510.1,18.7c0-1.7,0.2-3,0.5-4c0.3-1,0.8-1.8,1.5-2.3c0.7-0.5,1.5-0.8,2.5-0.8c0.8,0,1.4,0.2,2,0.5
				c0.6,0.3,1,0.7,1.4,1.3s0.7,1.3,0.9,2.1c0.2,0.8,0.3,1.9,0.3,3.3c0,1.6-0.2,3-0.5,4s-0.8,1.8-1.5,2.3c-0.7,0.6-1.5,0.8-2.6,0.8
				c-1.4,0-2.4-0.5-3.2-1.5C510.6,23.2,510.1,21.3,510.1,18.7z M511.9,18.7c0,2.3,0.3,3.8,0.8,4.6s1.2,1.1,2,1.1
				c0.8,0,1.5-0.4,2-1.1c0.5-0.8,0.8-2.3,0.8-4.6c0-2.3-0.3-3.8-0.8-4.6c-0.5-0.8-1.2-1.1-2-1.1c-0.8,0-1.4,0.3-1.9,1
				C512.2,14.8,511.9,16.4,511.9,18.7z"/>
		</g>
		<g>
			<path class="st2" d="M557.5,443.3h-1.7v-11c-0.4,0.4-1,0.8-1.6,1.2c-0.7,0.4-1.3,0.7-1.8,0.9v-1.7c1-0.5,1.8-1,2.5-1.6
				s1.2-1.3,1.5-1.9h1.1V443.3z"/>
			<path class="st2" d="M567.5,443.3v-3.4h-6.1v-1.6l6.4-9.1h1.4v9.1h1.9v1.6h-1.9v3.4H567.5z M567.5,438.3V432l-4.4,6.3H567.5z"/>
			<path class="st2" d="M572.9,439.6l1.8-0.2c0.1,0.9,0.4,1.5,0.9,2c0.5,0.4,1.1,0.7,1.8,0.7c0.8,0,1.5-0.3,2.1-0.9
				c0.6-0.6,0.9-1.5,0.9-2.5c0-1-0.3-1.8-0.8-2.3c-0.6-0.6-1.3-0.9-2.2-0.9c-0.6,0-1.1,0.1-1.5,0.4c-0.4,0.3-0.8,0.6-1.1,1l-1.6-0.2
				l1.4-7.2h7v1.6h-5.6l-0.8,3.8c0.8-0.6,1.7-0.9,2.7-0.9c1.2,0,2.3,0.4,3.1,1.3c0.8,0.8,1.3,1.9,1.3,3.3c0,1.3-0.4,2.4-1.1,3.3
				c-0.9,1.1-2.1,1.7-3.7,1.7c-1.3,0-2.3-0.4-3.1-1.1S573,440.8,572.9,439.6z"/>
		</g>
		<g>
			<path class="st2" d="M497.4,745.1v1.7h-9.3c0-0.4,0.1-0.8,0.2-1.2c0.2-0.6,0.6-1.3,1.1-1.9c0.5-0.6,1.3-1.3,2.3-2.1
				c1.5-1.3,2.6-2.2,3.1-3c0.5-0.7,0.8-1.4,0.8-2.1c0-0.7-0.2-1.3-0.7-1.7c-0.5-0.5-1.1-0.7-1.9-0.7c-0.8,0-1.5,0.2-2,0.7
				s-0.8,1.2-0.8,2.1l-1.8-0.2c0.1-1.3,0.6-2.3,1.4-3s1.9-1,3.2-1c1.3,0,2.4,0.4,3.2,1.1c0.8,0.7,1.2,1.7,1.2,2.8
				c0,0.6-0.1,1.1-0.3,1.7c-0.2,0.5-0.6,1.1-1.1,1.7c-0.5,0.6-1.4,1.4-2.7,2.5c-1,0.9-1.7,1.5-2,1.8s-0.5,0.6-0.7,0.9H497.4z"/>
			<path class="st2" d="M508.3,745.1v1.7H499c0-0.4,0.1-0.8,0.2-1.2c0.2-0.6,0.6-1.3,1.1-1.9c0.5-0.6,1.3-1.3,2.3-2.1
				c1.5-1.3,2.6-2.2,3.1-3c0.5-0.7,0.8-1.4,0.8-2.1c0-0.7-0.2-1.3-0.7-1.7c-0.5-0.5-1.1-0.7-1.9-0.7c-0.8,0-1.5,0.2-2,0.7
				s-0.8,1.2-0.8,2.1l-1.8-0.2c0.1-1.3,0.6-2.3,1.4-3s1.9-1,3.2-1c1.3,0,2.4,0.4,3.2,1.1c0.8,0.7,1.2,1.7,1.2,2.8
				c0,0.6-0.1,1.1-0.3,1.7c-0.2,0.5-0.6,1.1-1.1,1.7c-0.5,0.6-1.4,1.4-2.7,2.5c-1,0.9-1.7,1.5-2,1.8s-0.5,0.6-0.7,0.9H508.3z"/>
			<path class="st2" d="M510.1,739.8c0-1.7,0.2-3,0.5-4c0.3-1,0.8-1.8,1.5-2.3c0.7-0.5,1.5-0.8,2.5-0.8c0.8,0,1.4,0.2,2,0.5
				c0.6,0.3,1,0.7,1.4,1.3s0.7,1.3,0.9,2.1c0.2,0.8,0.3,1.9,0.3,3.3c0,1.6-0.2,3-0.5,4s-0.8,1.8-1.5,2.3s-1.5,0.8-2.6,0.8
				c-1.4,0-2.4-0.5-3.2-1.5C510.6,744.4,510.1,742.5,510.1,739.8z M511.9,739.8c0,2.3,0.3,3.8,0.8,4.6c0.5,0.8,1.2,1.1,2,1.1
				c0.8,0,1.5-0.4,2-1.1c0.5-0.8,0.8-2.3,0.8-4.6c0-2.3-0.3-3.8-0.8-4.6c-0.5-0.8-1.2-1.1-2-1.1c-0.8,0-1.4,0.3-1.9,1
				C512.2,736,511.9,737.5,511.9,739.8z"/>
		</g>
		<g>
			<path class="st2" d="M873.9,391.8l5.4-7.3l-4.8-6.7h2.2l2.5,3.6c0.5,0.7,0.9,1.3,1.1,1.7c0.3-0.5,0.7-1,1.1-1.6l2.8-3.7h2
				l-4.9,6.6l5.3,7.4h-2.3l-3.5-5c-0.2-0.3-0.4-0.6-0.6-0.9c-0.3,0.5-0.5,0.9-0.7,1.1l-3.5,4.9H873.9z"/>
		</g>
		<g>
			<path class="st2" d="M166,391.8l5.4-7.3l-4.8-6.7h2.2l2.5,3.6c0.5,0.7,0.9,1.3,1.1,1.7c0.3-0.5,0.7-1,1.1-1.6l2.8-3.7h2l-4.9,6.6
				l5.3,7.4h-2.3l-3.5-5c-0.2-0.3-0.4-0.6-0.6-0.9c-0.3,0.5-0.5,0.9-0.7,1.1l-3.5,4.9H166z"/>
		</g>
		<g>
			<path class="st2" d="M530.9,78v-5.9l-5.4-8.1h2.3l2.8,4.2c0.5,0.8,1,1.6,1.4,2.4c0.4-0.7,0.9-1.6,1.5-2.5l2.7-4.1h2.2l-5.6,8.1
				V78H530.9z"/>
		</g>
		<g>
			<path class="st2" d="M179.3,675.7v-14h6.2c1.3,0,2.2,0.1,2.9,0.4c0.7,0.3,1.2,0.7,1.6,1.3c0.4,0.6,0.6,1.3,0.6,2.1
				c0,1-0.3,1.8-1,2.5c-0.6,0.7-1.6,1.1-3,1.3c0.5,0.2,0.9,0.5,1.1,0.7c0.5,0.5,1.1,1.1,1.5,1.9l2.4,3.8h-2.3l-1.9-2.9
				c-0.5-0.8-1-1.5-1.3-1.9c-0.4-0.4-0.7-0.8-0.9-0.9c-0.3-0.2-0.6-0.3-0.8-0.4c-0.2,0-0.6-0.1-1-0.1h-2.2v6.2H179.3z M181.2,667.8
				h4c0.8,0,1.5-0.1,2-0.3c0.5-0.2,0.8-0.5,1.1-0.8c0.2-0.4,0.4-0.8,0.4-1.3c0-0.7-0.2-1.2-0.7-1.6s-1.2-0.6-2.3-0.6h-4.4V667.8z"/>
			<path class="st2" d="M204.7,675.7H203v-11c-0.4,0.4-1,0.8-1.6,1.2c-0.7,0.4-1.3,0.7-1.8,0.9v-1.7c1-0.5,1.8-1,2.5-1.6
				s1.2-1.3,1.5-1.9h1.1V675.7z"/>
			<path class="st2" d="M209.1,668.8c0-1.7,0.2-3,0.5-4c0.3-1,0.8-1.8,1.5-2.3c0.7-0.5,1.5-0.8,2.5-0.8c0.8,0,1.4,0.2,2,0.5
				c0.6,0.3,1,0.7,1.4,1.3s0.7,1.3,0.9,2.1c0.2,0.8,0.3,1.9,0.3,3.3c0,1.6-0.2,3-0.5,4s-0.8,1.8-1.5,2.3s-1.5,0.8-2.6,0.8
				c-1.4,0-2.4-0.5-3.2-1.5C209.6,673.3,209.1,671.4,209.1,668.8z M210.9,668.8c0,2.3,0.3,3.8,0.8,4.6c0.5,0.8,1.2,1.1,2,1.1
				c0.8,0,1.5-0.4,2-1.1c0.5-0.8,0.8-2.3,0.8-4.6c0-2.3-0.3-3.8-0.8-4.6c-0.5-0.8-1.2-1.1-2-1.1c-0.8,0-1.4,0.3-1.9,1
				C211.2,664.9,210.9,666.5,210.9,668.8z"/>
		</g>
		<g>
			<path class="st2" d="M160.7,219.2v-14h6.2c1.3,0,2.2,0.1,2.9,0.4c0.7,0.3,1.2,0.7,1.6,1.3c0.4,0.6,0.6,1.3,0.6,2.1
				c0,1-0.3,1.8-1,2.5c-0.6,0.7-1.6,1.1-3,1.3c0.5,0.2,0.9,0.5,1.1,0.7c0.5,0.5,1.1,1.1,1.5,1.9l2.4,3.8h-2.3l-1.9-2.9
				c-0.5-0.8-1-1.5-1.3-1.9c-0.4-0.4-0.7-0.8-0.9-0.9s-0.6-0.3-0.8-0.4c-0.2,0-0.6-0.1-1-0.1h-2.2v6.2H160.7z M162.6,211.4h4
				c0.8,0,1.5-0.1,2-0.3c0.5-0.2,0.8-0.5,1.1-0.8c0.2-0.4,0.4-0.8,0.4-1.3c0-0.7-0.2-1.2-0.7-1.6c-0.5-0.4-1.2-0.6-2.3-0.6h-4.4
				V211.4z"/>
		</g>
		<g>
			<path class="st2" d="M182.3,211.6c-0.7-0.3-1.2-0.6-1.6-1.1c-0.3-0.5-0.5-1.1-0.5-1.7c0-1,0.4-1.9,1.1-2.6s1.7-1,2.9-1
				c1.2,0,2.2,0.4,3,1.1c0.7,0.7,1.1,1.6,1.1,2.6c0,0.7-0.2,1.2-0.5,1.7c-0.3,0.5-0.9,0.9-1.6,1.1c0.9,0.3,1.5,0.7,2,1.4
				c0.4,0.6,0.7,1.4,0.7,2.2c0,1.2-0.4,2.2-1.3,3c-0.8,0.8-2,1.2-3.4,1.2c-1.4,0-2.5-0.4-3.4-1.2c-0.8-0.8-1.3-1.8-1.3-3.1
				c0-0.9,0.2-1.7,0.7-2.3C180.7,212.2,181.4,211.8,182.3,211.6z M181.4,215.2c0,0.5,0.1,1,0.3,1.4c0.2,0.5,0.6,0.8,1,1.1
				c0.5,0.3,1,0.4,1.5,0.4c0.8,0,1.5-0.3,2-0.8s0.8-1.2,0.8-2c0-0.8-0.3-1.5-0.8-2.1c-0.6-0.5-1.2-0.8-2.1-0.8c-0.8,0-1.5,0.3-2,0.8
				C181.6,213.7,181.4,214.3,181.4,215.2z M181.9,208.7c0,0.7,0.2,1.2,0.6,1.6s1,0.6,1.7,0.6c0.7,0,1.2-0.2,1.6-0.6s0.6-0.9,0.6-1.5
				c0-0.6-0.2-1.2-0.7-1.6c-0.4-0.4-1-0.6-1.6-0.6c-0.7,0-1.2,0.2-1.6,0.6C182.1,207.6,181.9,208.1,181.9,208.7z"/>
		</g>
		<g>
			<path class="st2" d="M130.3,557.4v-14h6.2c1.3,0,2.2,0.1,2.9,0.4c0.7,0.3,1.2,0.7,1.6,1.3c0.4,0.6,0.6,1.3,0.6,2.1
				c0,1-0.3,1.8-1,2.5c-0.6,0.7-1.6,1.1-3,1.3c0.5,0.2,0.9,0.5,1.1,0.7c0.5,0.5,1.1,1.1,1.5,1.9l2.4,3.8h-2.3l-1.9-2.9
				c-0.5-0.8-1-1.5-1.3-1.9c-0.4-0.4-0.7-0.8-0.9-0.9c-0.3-0.2-0.6-0.3-0.8-0.4c-0.2,0-0.6-0.1-1-0.1h-2.2v6.2H130.3z M132.2,549.6
				h4c0.8,0,1.5-0.1,2-0.3c0.5-0.2,0.8-0.5,1.1-0.8c0.2-0.4,0.4-0.8,0.4-1.3c0-0.7-0.2-1.2-0.7-1.6s-1.2-0.6-2.3-0.6h-4.4V549.6z"/>
		</g>
		<g>
			<path class="st2" d="M151.9,549.8c-0.7-0.3-1.2-0.6-1.6-1.1c-0.3-0.5-0.5-1.1-0.5-1.7c0-1,0.4-1.9,1.1-2.6c0.7-0.7,1.7-1,2.9-1
				c1.2,0,2.2,0.4,3,1.1c0.7,0.7,1.1,1.6,1.1,2.6c0,0.7-0.2,1.2-0.5,1.7c-0.3,0.5-0.9,0.9-1.6,1.1c0.9,0.3,1.5,0.7,2,1.4
				c0.4,0.6,0.7,1.4,0.7,2.2c0,1.2-0.4,2.2-1.3,3c-0.8,0.8-2,1.2-3.4,1.2c-1.4,0-2.5-0.4-3.4-1.2c-0.8-0.8-1.3-1.8-1.3-3.1
				c0-0.9,0.2-1.7,0.7-2.3S151,550.1,151.9,549.8z M151,553.4c0,0.5,0.1,1,0.3,1.4c0.2,0.5,0.6,0.8,1,1.1c0.5,0.3,1,0.4,1.5,0.4
				c0.8,0,1.5-0.3,2-0.8c0.5-0.5,0.8-1.2,0.8-2c0-0.8-0.3-1.5-0.8-2.1c-0.6-0.5-1.2-0.8-2.1-0.8c-0.8,0-1.5,0.3-2,0.8
				C151.2,551.9,151,552.6,151,553.4z M151.5,546.9c0,0.7,0.2,1.2,0.6,1.6s1,0.6,1.7,0.6c0.7,0,1.2-0.2,1.6-0.6s0.6-0.9,0.6-1.5
				c0-0.6-0.2-1.2-0.7-1.6c-0.4-0.4-1-0.6-1.6-0.6c-0.7,0-1.2,0.2-1.6,0.6C151.7,545.8,151.5,546.3,151.5,546.9z"/>
		</g>
		<g>
			<path class="st2" d="M116.1,334.9v-14h6.2c1.3,0,2.2,0.1,2.9,0.4c0.7,0.3,1.2,0.7,1.6,1.3c0.4,0.6,0.6,1.3,0.6,2.1
				c0,1-0.3,1.8-1,2.5c-0.6,0.7-1.6,1.1-3,1.3c0.5,0.2,0.9,0.5,1.1,0.7c0.5,0.5,1.1,1.1,1.5,1.9l2.4,3.8h-2.3l-1.9-2.9
				c-0.5-0.8-1-1.5-1.3-1.9c-0.4-0.4-0.7-0.8-0.9-0.9s-0.6-0.3-0.8-0.4c-0.2,0-0.6-0.1-1-0.1h-2.2v6.2H116.1z M117.9,327h4
				c0.8,0,1.5-0.1,2-0.3c0.5-0.2,0.8-0.5,1.1-0.8c0.2-0.4,0.4-0.8,0.4-1.3c0-0.7-0.2-1.2-0.7-1.6c-0.5-0.4-1.2-0.6-2.3-0.6h-4.4V327
				z"/>
			<path class="st2" d="M141.4,334.9h-1.7v-11c-0.4,0.4-1,0.8-1.6,1.2c-0.7,0.4-1.3,0.7-1.8,0.9v-1.7c1-0.5,1.8-1,2.5-1.6
				c0.7-0.6,1.2-1.3,1.5-1.9h1.1V334.9z"/>
			<path class="st2" d="M145.8,331.2l1.8-0.2c0.1,0.9,0.4,1.5,0.9,2c0.5,0.4,1.1,0.7,1.8,0.7c0.8,0,1.5-0.3,2.1-0.9
				c0.6-0.6,0.9-1.5,0.9-2.5c0-1-0.3-1.8-0.8-2.3c-0.6-0.6-1.3-0.9-2.2-0.9c-0.6,0-1.1,0.1-1.5,0.4s-0.8,0.6-1.1,1l-1.6-0.2l1.4-7.2
				h7v1.6h-5.6l-0.8,3.8c0.8-0.6,1.7-0.9,2.7-0.9c1.2,0,2.3,0.4,3.1,1.3c0.8,0.8,1.3,1.9,1.3,3.3c0,1.3-0.4,2.4-1.1,3.3
				c-0.9,1.1-2.1,1.7-3.7,1.7c-1.3,0-2.3-0.4-3.1-1.1S146,332.4,145.8,331.2z"/>
		</g>
		<g>
			<path class="st2" d="M13.7,741.8v-14h6.2c1.3,0,2.2,0.1,2.9,0.4c0.7,0.3,1.2,0.7,1.6,1.3c0.4,0.6,0.6,1.3,0.6,2.1
				c0,1-0.3,1.8-1,2.5c-0.6,0.7-1.6,1.1-3,1.3c0.5,0.2,0.9,0.5,1.1,0.7c0.5,0.5,1.1,1.1,1.5,1.9l2.4,3.8h-2.3l-1.9-2.9
				c-0.5-0.8-1-1.5-1.3-1.9c-0.4-0.4-0.7-0.8-0.9-0.9c-0.3-0.2-0.6-0.3-0.8-0.4c-0.2,0-0.6-0.1-1-0.1h-2.2v6.2H13.7z M15.5,733.9h4
				c0.8,0,1.5-0.1,2-0.3c0.5-0.2,0.8-0.5,1.1-0.8c0.2-0.4,0.4-0.8,0.4-1.3c0-0.7-0.2-1.2-0.7-1.6s-1.2-0.6-2.3-0.6h-4.4V733.9z"/>
		</g>
		<g>
			<path class="st2" d="M32.5,738.1l1.8-0.2c0.1,0.9,0.4,1.5,0.9,2c0.5,0.4,1.1,0.7,1.8,0.7c0.8,0,1.5-0.3,2.1-0.9
				c0.6-0.6,0.9-1.5,0.9-2.5c0-1-0.3-1.8-0.8-2.3c-0.6-0.6-1.3-0.9-2.2-0.9c-0.6,0-1.1,0.1-1.5,0.4c-0.4,0.3-0.8,0.6-1.1,1l-1.6-0.2
				l1.4-7.2h7v1.6h-5.6l-0.8,3.8c0.8-0.6,1.7-0.9,2.7-0.9c1.2,0,2.3,0.4,3.1,1.3c0.8,0.8,1.3,1.9,1.3,3.3c0,1.3-0.4,2.4-1.1,3.3
				c-0.9,1.1-2.1,1.7-3.7,1.7c-1.3,0-2.3-0.4-3.1-1.1S32.6,739.3,32.5,738.1z"/>
		</g>
		<g>
			<path class="st2" d="M160.7,157.4v-14h6.2c1.3,0,2.2,0.1,2.9,0.4c0.7,0.3,1.2,0.7,1.6,1.3c0.4,0.6,0.6,1.3,0.6,2.1
				c0,1-0.3,1.8-1,2.5c-0.6,0.7-1.6,1.1-3,1.3c0.5,0.2,0.9,0.5,1.1,0.7c0.5,0.5,1.1,1.1,1.5,1.9l2.4,3.8h-2.3l-1.9-2.9
				c-0.5-0.8-1-1.5-1.3-1.9c-0.4-0.4-0.7-0.8-0.9-0.9s-0.6-0.3-0.8-0.4c-0.2,0-0.6-0.1-1-0.1h-2.2v6.2H160.7z M162.6,149.6h4
				c0.8,0,1.5-0.1,2-0.3c0.5-0.2,0.8-0.5,1.1-0.8c0.2-0.4,0.4-0.8,0.4-1.3c0-0.7-0.2-1.2-0.7-1.6c-0.5-0.4-1.2-0.6-2.3-0.6h-4.4
				V149.6z"/>
		</g>
		<g>
			<path class="st2" d="M182.2,149.8c-0.7-0.3-1.2-0.6-1.6-1.1c-0.3-0.5-0.5-1.1-0.5-1.7c0-1,0.4-1.9,1.1-2.6s1.7-1,2.9-1
				c1.2,0,2.2,0.4,3,1.1c0.7,0.7,1.1,1.6,1.1,2.6c0,0.7-0.2,1.2-0.5,1.7c-0.3,0.5-0.9,0.9-1.6,1.1c0.9,0.3,1.5,0.7,2,1.4
				c0.4,0.6,0.7,1.4,0.7,2.2c0,1.2-0.4,2.2-1.3,3c-0.8,0.8-2,1.2-3.4,1.2c-1.4,0-2.5-0.4-3.4-1.2c-0.8-0.8-1.3-1.8-1.3-3.1
				c0-0.9,0.2-1.7,0.7-2.3C180.7,150.5,181.4,150,182.2,149.8z M181.3,153.4c0,0.5,0.1,1,0.3,1.4c0.2,0.5,0.6,0.8,1,1.1
				c0.5,0.3,1,0.4,1.5,0.4c0.8,0,1.5-0.3,2-0.8s0.8-1.2,0.8-2c0-0.8-0.3-1.5-0.8-2.1c-0.6-0.5-1.2-0.8-2.1-0.8c-0.8,0-1.5,0.3-2,0.8
				C181.6,151.9,181.3,152.6,181.3,153.4z M181.9,146.9c0,0.7,0.2,1.2,0.6,1.6s1,0.6,1.7,0.6c0.7,0,1.2-0.2,1.6-0.6s0.6-0.9,0.6-1.5
				c0-0.6-0.2-1.2-0.7-1.6c-0.4-0.4-1-0.6-1.6-0.6c-0.7,0-1.2,0.2-1.6,0.6C182.1,145.8,181.9,146.3,181.9,146.9z"/>
		</g>
		<g>
			<path class="st2" d="M491.2,507.3h-3.4v6.1h-1.6l-9.1-6.4v-1.4h9.1v-1.9h1.6v1.9h3.4V507.3z M486.2,507.3h-6.3l6.3,4.4V507.3z"/>
			<path class="st2" d="M479,501.8h-1.7v-9.1h1.3c1,0.9,2.2,1.8,3.8,2.7c1.6,0.9,3.2,1.6,4.9,2c1.2,0.3,2.5,0.6,3.9,0.7v1.8
				c-1.1,0-2.4-0.2-4-0.7c-1.6-0.4-3.1-1-4.5-1.8s-2.7-1.6-3.7-2.5V501.8z"/>
			<path class="st2" d="M491.2,490.1h-2v-2h2V490.1z"/>
			<path class="st2" d="M487.5,485.6l-0.2-1.8c0.9-0.1,1.5-0.4,2-0.9c0.4-0.5,0.7-1.1,0.7-1.8c0-0.8-0.3-1.5-0.9-2.1
				s-1.5-0.9-2.5-0.9c-1,0-1.8,0.3-2.3,0.8c-0.6,0.6-0.9,1.3-0.9,2.2c0,0.6,0.1,1.1,0.4,1.5c0.3,0.4,0.6,0.8,1,1.1l-0.2,1.6
				l-7.2-1.4v-7h1.6v5.6l3.8,0.8c-0.6-0.8-0.9-1.7-0.9-2.7c0-1.2,0.4-2.3,1.3-3.1c0.8-0.8,1.9-1.3,3.3-1.3c1.3,0,2.4,0.4,3.3,1.1
				c1.1,0.9,1.7,2.1,1.7,3.7c0,1.3-0.4,2.3-1.1,3.1S488.7,485.5,487.5,485.6z"/>
		</g>
		<g>
			<path class="st2" d="M480.6,251.9l0.1,1.7c-0.7,0.2-1.2,0.4-1.5,0.7c-0.5,0.5-0.7,1-0.7,1.7c0,0.5,0.2,1,0.5,1.4
				c0.4,0.5,1,1,1.7,1.3c0.8,0.3,1.8,0.5,3.2,0.5c-0.6-0.4-1.1-0.9-1.4-1.5c-0.3-0.6-0.5-1.2-0.5-1.9c0-1.1,0.4-2.1,1.3-2.9
				c0.8-0.8,1.9-1.2,3.3-1.2c0.9,0,1.7,0.2,2.5,0.6s1.3,0.9,1.7,1.6c0.4,0.7,0.6,1.4,0.6,2.3c0,1.4-0.5,2.6-1.6,3.5
				c-1.1,0.9-2.8,1.4-5.2,1.4c-2.7,0-4.7-0.5-5.9-1.5c-1.1-0.9-1.6-2.1-1.6-3.5c0-1.1,0.3-2,0.9-2.7
				C478.6,252.5,479.5,252.1,480.6,251.9z M486.6,259c0.6,0,1.2-0.1,1.7-0.4c0.5-0.3,1-0.6,1.2-1.1c0.3-0.5,0.4-0.9,0.4-1.4
				c0-0.7-0.3-1.4-0.9-1.9c-0.6-0.5-1.4-0.8-2.4-0.8c-1,0-1.7,0.3-2.3,0.8c-0.6,0.5-0.8,1.2-0.8,2c0,0.8,0.3,1.4,0.8,2
				C485,258.7,485.7,259,486.6,259z"/>
			<path class="st2" d="M479,249.9h-1.7v-9.1h1.3c1,0.9,2.2,1.8,3.8,2.7s3.2,1.6,4.9,2c1.2,0.3,2.5,0.6,3.9,0.7v1.8
				c-1.1,0-2.4-0.2-4-0.7s-3.1-1-4.5-1.8s-2.7-1.6-3.7-2.5V249.9z"/>
			<path class="st2" d="M491.2,238.1h-2v-2h2V238.1z"/>
		</g>
		<g>
			<path class="st2" d="M487.5,233.7l-0.2-1.8c0.9-0.1,1.5-0.4,2-0.9c0.4-0.5,0.7-1.1,0.7-1.8c0-0.8-0.3-1.5-0.9-2.1
				c-0.6-0.6-1.5-0.9-2.5-0.9c-1,0-1.8,0.3-2.3,0.8c-0.6,0.6-0.9,1.3-0.9,2.2c0,0.6,0.1,1.1,0.4,1.5s0.6,0.8,1,1.1l-0.2,1.6
				l-7.2-1.4v-7h1.6v5.6l3.8,0.8c-0.6-0.8-0.9-1.7-0.9-2.7c0-1.2,0.4-2.3,1.3-3.1c0.8-0.8,1.9-1.3,3.3-1.3c1.3,0,2.4,0.4,3.3,1.1
				c1.1,0.9,1.7,2.1,1.7,3.7c0,1.3-0.4,2.3-1.1,3.1S488.7,233.5,487.5,233.7z"/>
		</g>
		<g>
			<path class="st2" d="M491.2,632.5h-3.4v6.1h-1.6l-9.1-6.4v-1.4h9.1v-1.9h1.6v1.9h3.4V632.5z M486.2,632.5h-6.3l6.3,4.4V632.5z"/>
			<path class="st2" d="M487.5,627.1l-0.2-1.8c0.9-0.1,1.5-0.4,2-0.9c0.4-0.5,0.7-1.1,0.7-1.8c0-0.8-0.3-1.5-0.9-2.1
				s-1.5-0.9-2.5-0.9c-1,0-1.8,0.3-2.3,0.8c-0.6,0.6-0.9,1.3-0.9,2.2c0,0.6,0.1,1.1,0.4,1.5c0.3,0.4,0.6,0.8,1,1.1l-0.2,1.6
				l-7.2-1.4v-7h1.6v5.6l3.8,0.8c-0.6-0.8-0.9-1.7-0.9-2.7c0-1.2,0.4-2.3,1.3-3.1c0.8-0.8,1.9-1.3,3.3-1.3c1.3,0,2.4,0.4,3.3,1.1
				c1.1,0.9,1.7,2.1,1.7,3.7c0,1.3-0.4,2.3-1.1,3.1S488.7,627,487.5,627.1z"/>
		</g>
		<g>
			<path class="st2" d="M944.9,509.7l10.2-3.9v1.8l-6.1,2.2c-0.7,0.2-1.3,0.5-2,0.7c0.5,0.2,1.2,0.4,1.9,0.6l6.2,2.3v1.8l-10.2-3.8
				V509.7z"/>
			<path class="st2" d="M948.9,525.7v-9.3h1.6v9.3H948.9z M953.1,525.7v-9.3h1.6v9.3H953.1z"/>
		</g>
		<g>
			<path class="st2" d="M952.5,533.2c0.3-0.7,0.6-1.2,1.1-1.6c0.5-0.3,1.1-0.5,1.7-0.5c1,0,1.9,0.4,2.6,1.1c0.7,0.7,1,1.7,1,2.9
				c0,1.2-0.4,2.2-1.1,3c-0.7,0.7-1.6,1.1-2.6,1.1c-0.7,0-1.2-0.2-1.7-0.5c-0.5-0.3-0.9-0.9-1.1-1.6c-0.3,0.9-0.7,1.5-1.4,2
				c-0.6,0.5-1.4,0.7-2.2,0.7c-1.2,0-2.2-0.4-3-1.3c-0.8-0.8-1.2-2-1.2-3.4s0.4-2.5,1.2-3.4c0.8-0.8,1.8-1.3,3.1-1.3
				c0.9,0,1.7,0.2,2.3,0.7C951.9,531.7,952.3,532.4,952.5,533.2z M948.9,532.3c-0.5,0-1,0.1-1.4,0.3c-0.5,0.2-0.8,0.6-1.1,1
				c-0.3,0.5-0.4,1-0.4,1.5c0,0.8,0.3,1.5,0.8,2s1.2,0.8,2,0.8c0.8,0,1.5-0.3,2.1-0.8c0.5-0.6,0.8-1.2,0.8-2.1c0-0.8-0.3-1.5-0.8-2
				S949.7,532.3,948.9,532.3z M955.4,532.9c-0.7,0-1.2,0.2-1.6,0.6s-0.6,1-0.6,1.7c0,0.7,0.2,1.2,0.6,1.6c0.4,0.4,0.9,0.6,1.5,0.6
				c0.6,0,1.2-0.2,1.6-0.7s0.6-1,0.6-1.6c0-0.7-0.2-1.2-0.6-1.6C956.5,533.1,956,532.9,955.4,532.9z"/>
			<path class="st2" d="M946.5,550.5h-1.7v-9.3c0.4,0,0.8,0.1,1.2,0.2c0.6,0.2,1.3,0.6,1.9,1.1c0.6,0.5,1.3,1.3,2.1,2.3
				c1.3,1.5,2.2,2.6,3,3.1s1.4,0.8,2.1,0.8c0.7,0,1.3-0.2,1.7-0.7s0.7-1.1,0.7-1.9c0-0.8-0.2-1.5-0.7-2c-0.5-0.5-1.2-0.8-2.1-0.8
				l0.2-1.8c1.3,0.1,2.3,0.6,3,1.4c0.7,0.8,1,1.9,1,3.2c0,1.3-0.4,2.4-1.1,3.2c-0.7,0.8-1.7,1.2-2.8,1.2c-0.6,0-1.1-0.1-1.7-0.3
				c-0.5-0.2-1.1-0.6-1.7-1.1c-0.6-0.5-1.4-1.4-2.5-2.7c-0.9-1-1.5-1.7-1.8-2s-0.6-0.5-0.9-0.7V550.5z"/>
			<path class="st2" d="M944.9,553.3h2v2h-2V553.3z"/>
		</g>
		<g>
			<path class="st2" d="M952.5,560.5c0.3-0.7,0.6-1.2,1.1-1.6c0.5-0.3,1.1-0.5,1.7-0.5c1,0,1.9,0.4,2.6,1.1c0.7,0.7,1,1.7,1,2.9
				c0,1.2-0.4,2.2-1.1,3c-0.7,0.7-1.6,1.1-2.6,1.1c-0.7,0-1.2-0.2-1.7-0.5c-0.5-0.3-0.9-0.9-1.1-1.6c-0.3,0.9-0.7,1.5-1.4,2
				c-0.6,0.5-1.4,0.7-2.2,0.7c-1.2,0-2.2-0.4-3-1.3c-0.8-0.8-1.2-2-1.2-3.4s0.4-2.5,1.2-3.4c0.8-0.8,1.8-1.3,3.1-1.3
				c0.9,0,1.7,0.2,2.3,0.7C951.9,558.9,952.3,559.6,952.5,560.5z M948.9,559.6c-0.5,0-1,0.1-1.4,0.3c-0.5,0.2-0.8,0.6-1.1,1
				c-0.3,0.5-0.4,1-0.4,1.5c0,0.8,0.3,1.5,0.8,2s1.2,0.8,2,0.8c0.8,0,1.5-0.3,2.1-0.8c0.5-0.6,0.8-1.2,0.8-2.1c0-0.8-0.3-1.5-0.8-2
				S949.7,559.6,948.9,559.6z M955.4,560.1c-0.7,0-1.2,0.2-1.6,0.6s-0.6,1-0.6,1.7c0,0.7,0.2,1.2,0.6,1.6c0.4,0.4,0.9,0.6,1.5,0.6
				c0.6,0,1.2-0.2,1.6-0.7s0.6-1,0.6-1.6c0-0.7-0.2-1.2-0.6-1.6C956.5,560.3,956,560.1,955.4,560.1z"/>
		</g>
		<g>
			<path class="st2" d="M54.6,194.9h-3.4v6.1h-1.6l-9.1-6.4v-1.4h9.1v-1.9h1.6v1.9h3.4V194.9z M49.7,194.9h-6.3l6.3,4.4V194.9z"/>
			<path class="st2" d="M47.7,189.5c-1.7,0-3-0.2-4-0.5c-1-0.3-1.8-0.8-2.3-1.5c-0.5-0.7-0.8-1.5-0.8-2.5c0-0.8,0.2-1.4,0.5-2
				c0.3-0.6,0.7-1,1.3-1.4s1.3-0.7,2.1-0.9c0.8-0.2,1.9-0.3,3.3-0.3c1.6,0,3,0.2,4,0.5s1.8,0.8,2.3,1.5c0.6,0.7,0.8,1.5,0.8,2.6
				c0,1.4-0.5,2.4-1.5,3.2C52.3,189,50.4,189.5,47.7,189.5z M47.7,187.7c2.3,0,3.8-0.3,4.6-0.8s1.1-1.2,1.1-2c0-0.8-0.4-1.5-1.1-2
				c-0.8-0.5-2.3-0.8-4.6-0.8c-2.3,0-3.8,0.3-4.6,0.8c-0.8,0.5-1.1,1.2-1.1,2c0,0.8,0.3,1.4,1,1.9C43.8,187.4,45.4,187.7,47.7,187.7
				z"/>
		</g>
		<g>
			<path class="st2" d="M26.7,418.5v1.7h-11c0.4,0.4,0.8,1,1.2,1.6c0.4,0.7,0.7,1.3,0.9,1.8h-1.7c-0.5-1-1-1.8-1.6-2.5
				c-0.6-0.7-1.3-1.2-1.9-1.5v-1.1H26.7z"/>
			<path class="st2" d="M16.1,405.2l0.1,1.7c-0.7,0.2-1.2,0.4-1.5,0.7c-0.5,0.5-0.7,1-0.7,1.7c0,0.5,0.2,1,0.5,1.4
				c0.4,0.5,1,1,1.7,1.3s1.8,0.5,3.2,0.5c-0.6-0.4-1.1-0.9-1.4-1.5c-0.3-0.6-0.5-1.2-0.5-1.9c0-1.1,0.4-2.1,1.3-2.9
				c0.8-0.8,1.9-1.2,3.3-1.2c0.9,0,1.7,0.2,2.5,0.6s1.3,0.9,1.7,1.6c0.4,0.7,0.6,1.4,0.6,2.3c0,1.4-0.5,2.6-1.6,3.5
				c-1.1,0.9-2.8,1.4-5.2,1.4c-2.7,0-4.7-0.5-5.9-1.5c-1.1-0.9-1.6-2.1-1.6-3.5c0-1.1,0.3-2,0.9-2.7C14.2,405.7,15,405.3,16.1,405.2
				z M22.2,412.2c0.6,0,1.2-0.1,1.7-0.4c0.5-0.3,1-0.6,1.2-1.1c0.3-0.5,0.4-0.9,0.4-1.4c0-0.7-0.3-1.4-0.9-1.9
				c-0.6-0.5-1.4-0.8-2.4-0.8c-1,0-1.7,0.3-2.3,0.8c-0.6,0.5-0.8,1.2-0.8,2c0,0.8,0.3,1.4,0.8,2C20.5,411.9,21.3,412.2,22.2,412.2z"
				/>
			<path class="st2" d="M19.8,403.2c-1.7,0-3-0.2-4-0.5c-1-0.3-1.8-0.8-2.3-1.5c-0.5-0.7-0.8-1.5-0.8-2.5c0-0.8,0.2-1.4,0.5-2
				c0.3-0.6,0.7-1,1.3-1.4s1.3-0.7,2.1-0.9c0.8-0.2,1.9-0.3,3.3-0.3c1.6,0,3,0.2,4,0.5s1.8,0.8,2.3,1.5c0.6,0.7,0.8,1.5,0.8,2.6
				c0,1.4-0.5,2.4-1.5,3.2C24.3,402.7,22.4,403.2,19.8,403.2z M19.8,401.4c2.3,0,3.8-0.3,4.6-0.8c0.8-0.5,1.1-1.2,1.1-2
				c0-0.8-0.4-1.5-1.1-2c-0.8-0.5-2.3-0.8-4.6-0.8c-2.3,0-3.8,0.3-4.6,0.8c-0.8,0.5-1.1,1.2-1.1,2c0,0.8,0.3,1.4,1,1.9
				C15.9,401.1,17.5,401.4,19.8,401.4z"/>
		</g>
		<g>
			<path class="st2" d="M56.1,684.2v1.7h-11c0.4,0.4,0.8,1,1.2,1.6c0.4,0.7,0.7,1.3,0.9,1.8h-1.7c-0.5-1-1-1.8-1.6-2.5
				c-0.6-0.7-1.3-1.2-1.9-1.5v-1.1H56.1z"/>
			<path class="st2" d="M43.9,679.7h-1.7v-9.1h1.3c1,0.9,2.2,1.8,3.8,2.7c1.6,0.9,3.2,1.6,4.9,2c1.2,0.3,2.5,0.6,3.9,0.7v1.8
				c-1.1,0-2.4-0.2-4-0.7c-1.6-0.4-3.1-1-4.5-1.8s-2.7-1.6-3.7-2.5V679.7z"/>
			<path class="st2" d="M52.4,668.9l-0.2-1.8c0.9-0.1,1.5-0.4,2-0.9c0.4-0.5,0.7-1.1,0.7-1.8c0-0.8-0.3-1.5-0.9-2.1
				s-1.5-0.9-2.5-0.9c-1,0-1.8,0.3-2.3,0.8c-0.6,0.6-0.9,1.3-0.9,2.2c0,0.6,0.1,1.1,0.4,1.5c0.3,0.4,0.6,0.8,1,1.1l-0.2,1.6
				l-7.2-1.4v-7h1.6v5.6l3.8,0.8c-0.6-0.8-0.9-1.7-0.9-2.7c0-1.2,0.4-2.3,1.3-3.1c0.8-0.8,1.9-1.3,3.3-1.3c1.3,0,2.4,0.4,3.3,1.1
				c1.1,0.9,1.7,2.1,1.7,3.7c0,1.3-0.4,2.3-1.1,3.1S53.6,668.8,52.4,668.9z"/>
		</g>
		<g>
			<path class="st2" d="M944.9,231.3l10.2-3.9v1.8l-6.1,2.2c-0.7,0.2-1.3,0.5-2,0.7c0.5,0.2,1.2,0.4,1.9,0.6l6.2,2.3v1.8l-10.2-3.8
				V231.3z"/>
			<path class="st2" d="M948.9,252.8v-9.3h1.6v9.3H948.9z M953.1,252.8v-9.3h1.6v9.3H953.1z"/>
			<path class="st2" d="M957.1,254.8h1.7v9.1h-1.3c-1-0.9-2.2-1.8-3.8-2.7s-3.2-1.6-4.9-2c-1.2-0.3-2.5-0.6-3.9-0.7v-1.8
				c1.1,0,2.4,0.2,4,0.7s3.1,1,4.5,1.8s2.7,1.6,3.7,2.5V254.8z"/>
			<path class="st2" d="M957.1,265.7h1.7v9.1h-1.3c-1-0.9-2.2-1.8-3.8-2.7s-3.2-1.6-4.9-2c-1.2-0.3-2.5-0.6-3.9-0.7v-1.8
				c1.1,0,2.4,0.2,4,0.7s3.1,1,4.5,1.8s2.7,1.6,3.7,2.5V265.7z"/>
			<path class="st2" d="M944.9,277.5h2v2h-2V277.5z"/>
		</g>
		<g>
			<path class="st2" d="M946.5,291h-1.7v-9.3c0.4,0,0.8,0.1,1.2,0.2c0.6,0.2,1.3,0.6,1.9,1.1s1.3,1.3,2.1,2.3c1.3,1.5,2.2,2.6,3,3.1
				c0.7,0.5,1.4,0.8,2.1,0.8c0.7,0,1.3-0.2,1.7-0.7c0.5-0.5,0.7-1.1,0.7-1.9c0-0.8-0.2-1.5-0.7-2c-0.5-0.5-1.2-0.8-2.1-0.8l0.2-1.8
				c1.3,0.1,2.3,0.6,3,1.4s1,1.9,1,3.2c0,1.3-0.4,2.4-1.1,3.2c-0.7,0.8-1.7,1.2-2.8,1.2c-0.6,0-1.1-0.1-1.7-0.3
				c-0.5-0.2-1.1-0.6-1.7-1.1c-0.6-0.5-1.4-1.4-2.5-2.7c-0.9-1-1.5-1.7-1.8-2s-0.6-0.5-0.9-0.7V291z"/>
		</g>
		<polygon class="st2" points="955.4,239.2 958.1,240.4 958.1,242.6 955.4,240.6 		"/>
	</g>
</g>
<g id="Watermark">
	<g>
		<rect x="438.5" y="301.7" class="st0" width="123.1" height="46.3"/>
		<g>
			<rect x="444.9" y="309.6" class="st75" width="62.9" height="30.6"/>
			<rect x="507.7" y="309.6" class="st75" width="47.4" height="30.6"/>
			<g>
				<path class="st76" d="M466.5,315.7l-2.8,18.9H461l-1.6-11l-1.5,11h-2.7l-2.8-18.9h2.5l1.8,14.2l1.8-14.2h2l1.8,14.2l1.8-14.2
					H466.5z"/>
				<path class="st76" d="M467.9,334.6v-18.9h2.5v18.9H467.9z"/>
				<path class="st76" d="M472.8,315.7h5c1.9,0,2.9,1.1,2.9,3.2v4.7c0,1.7-0.5,2.7-1.5,3.1l1.8,7.9h-2.4l-1.7-7.6h-1.5v7.6h-2.5
					V315.7z M475.4,324.8h1.7c0.8,0,1.1-0.5,1.1-1.4v-4.1c0-0.9-0.4-1.4-1.1-1.4h-1.7V324.8z"/>
				<path class="st76" d="M486.8,318v16.6h-2.5V318h-2.4v-2.3h7.4v2.3H486.8z"/>
				<path class="st76" d="M496.3,334.6V326h-3.1v8.6h-2.5v-18.9h2.5v8h3.1v-8h2.5v18.9H496.3z"/>
			</g>
			<g>
				<path class="st76" d="M516.3,315.7h5c1.9,0,2.9,1.1,2.9,3.2v4.7c0,1.7-0.5,2.7-1.5,3.1l1.8,7.9H522l-1.7-7.6h-1.5v7.6h-2.5
					V315.7z M518.8,324.8h1.7c0.8,0,1.1-0.5,1.1-1.4v-4.1c0-0.9-0.4-1.4-1.1-1.4h-1.7V324.8z"/>
				<path class="st76" d="M528.7,334.6h-2.5v-15.7c0-2.2,1-3.2,3-3.2h1.9c2,0,3,1.1,3,3.2v15.7h-2.5v-6.9h-2.9V334.6z M531.6,325.4
					v-6.3c0-0.7-0.4-1.1-1.1-1.1h-0.7c-0.7,0-1.1,0.4-1.1,1.1v6.3H531.6z"/>
				<path class="st76" d="M536.3,334.6v-18.9h2.5v18.9H536.3z"/>
				<path class="st76" d="M547.2,334.6h-6v-18.9h2.5v16.6h3.5V334.6z"/>
			</g>
		</g>
	</g>
</g>
</svg>
