<?xml version="1.0" encoding="utf-8"?>
<!-- Generator: Adobe Illustrator 25.2.3, SVG Export Plug-In . SVG Version: 6.00 Build 0)  -->
<svg version="1.1" xmlns="http://www.w3.org/2000/svg" xmlns:xlink="http://www.w3.org/1999/xlink" x="0px" y="0px"
	 viewBox="0 0 1000 800" style="enable-background:new 0 0 1000 800;" xml:space="preserve">
<style type="text/css">
	.st0{fill:#F0F0F0;}
	.st1{fill:none;stroke:#221E1F;stroke-width:1.0614;}
	.st2{fill:#221E1F;}
	.st3{fill:none;stroke:#221E1F;stroke-width:1.0614;stroke-dasharray:12.8405,6.4722;}
	.st4{fill:none;stroke:#000000;stroke-width:1.404;}
	.st5{fill:none;stroke:#000000;stroke-width:0.975;}
	.st6{fill:none;stroke:#000000;stroke-width:0.975;stroke-dasharray:11.5538,5.7038;}
	.st7{fill:none;stroke:#000000;stroke-width:0.975;stroke-miterlimit:10;}
	.st8{fill:none;stroke:#221E1F;stroke-width:0.8906;}
	.st9{fill:none;stroke:#221E1F;stroke-width:0.8819;}
	.st10{clip-path:url(#SVGID_2_);fill:none;stroke:#221E1F;stroke-width:0.8819;}
	.st11{clip-path:url(#SVGID_4_);fill:none;stroke:#221E1F;stroke-width:0.8819;}
	.st12{fill:#303030;}
	.st13{fill:none;stroke:#303030;stroke-width:0.8906;stroke-miterlimit:10;}
	.st14{clip-path:url(#SVGID_6_);fill:none;stroke:#221E1F;stroke-width:0.8906;}
	.st15{fill:none;stroke:#221E1F;stroke-width:0.8906;stroke-dasharray:23.0235,6.997;}
	.st16{fill:none;stroke:#221E1F;stroke-width:0.8906;stroke-dasharray:19.498,3.4714;}
	.st17{fill:none;stroke:#221E1F;stroke-width:0.8906;stroke-dasharray:21.3897,6.2234;}
	.st18{clip-path:url(#SVGID_8_);fill:none;stroke:#221E1F;stroke-width:0.8025;}
	.st19{fill:none;stroke:#221E1F;stroke-width:0.7299;}
	.st20{clip-path:url(#SVGID_10_);fill:none;stroke:#221E1F;stroke-width:0.8025;}
	.st21{fill:none;stroke:#221E1F;stroke-width:0.7726;}
	.st22{fill:none;stroke:#221E1F;stroke-width:0.8025;}
	.st23{fill:none;stroke:#221E1F;stroke-width:0.8025;stroke-dasharray:21.5886,6.6505;}
	.st24{fill:none;stroke:#303030;stroke-width:0.8025;stroke-miterlimit:10;}
	.st25{fill:none;stroke:#221E1F;stroke-width:0.811;stroke-dasharray:21.8106,6.6911;}
	.st26{fill:none;stroke:#221E1F;stroke-width:0.811;stroke-dasharray:16.7651,1.6456;}
	.st27{fill:none;stroke:#221E1F;stroke-width:0.811;}
	.st28{clip-path:url(#SVGID_12_);fill:#221E1F;}
	.st29{fill:none;stroke:#221E1F;stroke-width:1.2695;}
	.st30{fill:none;stroke:#221E1F;stroke-width:0.8814;}
	.st31{fill:none;stroke:#221E1F;stroke-width:1.4133;}
	.st32{fill:none;stroke:#221E1F;stroke-width:0.9807;}
	.st33{fill:none;stroke:#221E1F;stroke-width:0.9807;stroke-dasharray:13.5825,6.7924;}
	.st34{fill:none;stroke:#221E1F;stroke-width:0.9807;stroke-dasharray:19.5641,12.5429;}
	.st35{fill:none;stroke:#221E1F;stroke-width:1.1332;}
	.st36{fill:none;stroke:#221E1F;stroke-width:1.7102;}
	.st37{fill:none;stroke:#221E1F;stroke-width:1.2031;stroke-linecap:round;stroke-linejoin:round;stroke-miterlimit:10;}
	.st38{fill:none;stroke:#221E1F;stroke-width:1.2031;}
	.st39{fill:none;stroke:#221E1F;stroke-width:1.2031;stroke-miterlimit:10;}
	
		.st40{fill:none;stroke:#221E1F;stroke-width:1.2031;stroke-linecap:round;stroke-linejoin:round;stroke-miterlimit:10;stroke-dasharray:9.1021,1.1746,1.1746,1.1746;stroke-dashoffset:10;}
	
		.st41{fill:none;stroke:#221E1F;stroke-width:1.2031;stroke-linecap:round;stroke-linejoin:round;stroke-miterlimit:10;stroke-dasharray:9.1228,1.1953,1.1953,1.1953;stroke-dashoffset:10;}
	.st42{fill:none;stroke:#221E1F;stroke-width:1.0246;}
	.st43{fill:none;stroke:#221E1F;stroke-width:1.0246;stroke-dasharray:5.7593,5.7593;}
	.st44{fill:none;stroke:#221E1F;stroke-width:1.0582;}
	.st45{fill:none;stroke:#221E1F;stroke-width:1.0246;stroke-dasharray:5.8059,5.8059;}
	.st46{fill:none;stroke:#241F21;stroke-width:0.8839;}
	.st47{fill:#241F21;}
	.st48{fill:none;stroke:#241F21;stroke-width:1.2533;}
	.st49{fill:none;stroke:#241F21;stroke-width:0.7133;stroke-linecap:round;stroke-linejoin:round;stroke-miterlimit:10;}
	.st50{fill:none;stroke:#241F21;stroke-width:0.8839;stroke-miterlimit:10;}
	
		.st51{clip-path:url(#SVGID_14_);fill:none;stroke:#241F21;stroke-width:0.8839;stroke-linecap:round;stroke-linejoin:round;stroke-miterlimit:10;}
	.st52{clip-path:url(#SVGID_14_);fill:none;stroke:#241F21;stroke-width:0.8839;stroke-miterlimit:10;}
	.st53{fill:none;stroke:#241F21;stroke-width:0.8839;stroke-linecap:round;stroke-linejoin:round;stroke-miterlimit:10;}
	.st54{fill:none;stroke:#241F21;stroke-width:0.7642;stroke-linecap:round;stroke-linejoin:round;stroke-miterlimit:10;}
	
		.st55{fill:none;stroke:#241F21;stroke-width:0.7133;stroke-linecap:round;stroke-linejoin:round;stroke-miterlimit:10;stroke-dasharray:9.9652,1.3195,1.3195,1.3195;stroke-dashoffset:11;}
	
		.st56{fill:none;stroke:#241F21;stroke-width:0.7133;stroke-linecap:round;stroke-linejoin:round;stroke-miterlimit:10;stroke-dasharray:9.7079,1.0622,1.0622,1.0622;stroke-dashoffset:10;}
	.st57{fill:none;stroke:#241F21;stroke-width:0.8839;stroke-dasharray:5.5991,5.5991;}
	.st58{fill:none;stroke:#241F21;stroke-width:0.7515;stroke-dasharray:5.6857,5.6857;}
	.st59{fill:none;stroke:#221E1F;stroke-width:1.0101;stroke-miterlimit:10;}
	.st60{fill:none;stroke:#221E1F;stroke-width:1.0012;}
	.st61{fill:none;stroke:#221E1F;stroke-width:0.9081;}
	.st62{fill:none;stroke:#221E1F;stroke-width:1.0385;}
	.st63{fill:none;stroke:#221E1F;stroke-width:0.9081;stroke-dasharray:20.8407,6.1278;}
	.st64{fill:none;stroke:#221E1F;stroke-width:1.406;}
	.st65{fill:none;stroke:#221E1F;stroke-width:0.9906;}
	.st66{fill:none;stroke:#221E1F;stroke-width:0.9887;}
	.st67{fill:none;stroke:#221E1F;stroke-width:0.8443;}
	.st68{fill:none;stroke:#221E1F;stroke-width:0.8443;stroke-dasharray:4.4655,4.4655;}
	.st69{fill:none;stroke:#221E1F;stroke-width:1.7608;}
	.st70{fill:none;stroke:#221E1F;stroke-width:1.0549;}
	.st71{clip-path:url(#SVGID_16_);fill:none;stroke:#221E1F;stroke-width:1.0549;}
	.st72{fill:none;stroke:#221E1F;stroke-width:1.0549;stroke-dasharray:5.538,5.538;}
	.st73{clip-path:url(#SVGID_18_);}
	.st74{clip-path:url(#SVGID_20_);}
	.st75{fill:#F0F0F0;stroke:#CCCCCC;stroke-miterlimit:10;}
	.st76{fill:#CCCCCC;}
</style>
<g id="Flat">
	<g>
		<g>
			<path class="st0" d="M500.5,693h0.5h293.5c0,0-0.6-35.3-0.7-54.9c-0.1-10.7-8.8-15-17.9-16.9c-6.4-1.4-70.4-14.8-81.9-17.2
				c-36.7-7.8-61-4.3-98.5-40.3c-32.8-31.5-28.4-123.9-29.6-163.8c-1.2-41.5,2.7-112.9,2.7-112.9c1.2-27.4,18.8-53.6,28.8-63.9
				c12-12.3,30.2-21.1,30.2-21.1c4.2-1.4,14.4-7.8,14-24.4c-0.2-9,0-36.1-0.3-71.2c-0.2-27-17.3-42-33.8-43.2
				c-21.1-1.6-47.8-2.1-106.7-1.7h0.2c-58.9-0.4-85.6,0.1-106.7,1.7c-16.5,1.3-33.6,16.2-33.8,43.2c-0.3,35.1-0.1,62.1-0.3,71.2
				c-0.4,16.6,9.8,23,14,24.4c0,0,18.2,8.8,30.2,21.1c10,10.3,27.6,36.5,28.8,63.9c0,0,3.9,71.4,2.7,112.9
				c-1.2,39.9,3.3,132.3-29.6,163.8c-37.5,36-61.7,32.5-98.5,40.3c-11.5,2.4-75.5,15.8-81.9,17.2c-9.1,2-17.8,6.2-17.9,16.9
				c-0.1,19.6-0.7,54.9-0.7,54.9h293.4h0.5H500.5z"/>
			<path class="st0" d="M498.4,693h297V625c0,0-65.8-13.3-144.3-29.7c-86.3-18-84.8-99.9-85.8-207.7c-0.8-91.2,1.8-115.9,15.6-141.9
				c20-37.5,39.1-36.8,60.9-48.8V61.5H501.2h-0.6H360v135.4c21.8,11.9,40.9,11.2,60.9,48.8c13.8,26,16.4,50.7,15.6,141.9
				c-1,107.7,0.5,189.6-85.8,207.7C272.3,611.6,206.5,625,206.5,625V693h291.3H498.4z"/>
			<path class="st4" d="M498.4,693h297V625c0,0-65.8-13.3-144.3-29.7c-86.3-18-84.8-99.9-85.8-207.7c-0.8-91.2,1.8-115.9,15.6-141.9
				c20-37.5,39.1-36.8,60.9-48.8V61.5H501.2h-0.6H360v135.4c21.8,11.9,40.9,11.2,60.9,48.8c13.8,26,16.4,50.7,15.6,141.9
				c-1,107.7,0.5,189.6-85.8,207.7C272.3,611.6,206.5,625,206.5,625V693h291.3H498.4z"/>
		</g>
		<path class="st5" d="M359.8,7.8v57.5 M436.3,61.4v515.8 M500,35.2v674.7 M564.5,61.4v515.8 M641.9,7.8v57.5 M220,762h560.5"/>
		<polygon points="222.9,766.1 207,761.8 222.9,757.6 		"/>
		<polygon points="777.6,766.1 793.4,761.8 777.6,757.6 		"/>
		<line class="st5" x1="373.2" y1="27.1" x2="628.1" y2="27.1"/>
		<polygon points="376.1,31.2 360.2,27 376.1,22.7 		"/>
		<polygon points="625.2,31.2 641,27 625.2,22.7 		"/>
		<polyline class="st5" points="619.5,86.6 599,103.5 516.6,103.5 		"/>
		<polygon points="614.7,85.3 629.6,78.5 620.1,91.9 		"/>
		<polyline class="st5" points="626.8,186.3 593.2,166.7 516.1,166.7 		"/>
		<polygon points="626.3,181.4 637.9,193.1 622,188.7 		"/>
		<polyline class="st5" points="605.2,551.7 654.8,510.6 711,510.6 		"/>
		<polygon points="610,553 595.1,559.9 604.6,546.5 		"/>
		<polyline class="st5" points="599.8,242.3 659.8,286.2 701.5,286.2 		"/>
		<polygon points="599.8,247.3 589.5,234.5 604.8,240.4 		"/>
		<polyline class="st5" points="584,312.7 743.5,321.7 797.4,321.7 		"/>
		<polygon points="586.6,316.9 571,311.8 587.1,308.4 		"/>
		<line class="st5" x1="326.2" y1="189.3" x2="326.2" y2="75.4"/>
		<polygon points="330.3,186.4 326.1,202.3 321.8,186.4 		"/>
		<polygon points="330.3,78.3 326.1,62.4 321.8,78.3 		"/>
		<line class="st5" x1="673.3" y1="183" x2="673.3" y2="75.4"/>
		<polygon points="677.4,180.1 673.2,196 668.9,180.1 		"/>
		<polygon points="677.4,78.3 673.2,62.4 668.9,78.3 		"/>
		<line class="st5" x1="706" y1="243.4" x2="706" y2="75.4"/>
		<polygon points="710.1,240.5 705.8,256.4 701.6,240.5 		"/>
		<polygon points="710.1,78.3 705.8,62.4 701.6,78.3 		"/>
		<line class="st5" x1="291.7" y1="405.8" x2="291.7" y2="76.6"/>
		<polygon points="295.7,402.9 291.5,418.7 287.2,402.9 		"/>
		<polygon points="295.7,79.5 291.5,63.7 287.2,79.5 		"/>
		<line class="st5" x1="291.7" y1="682.2" x2="291.7" y2="433.2"/>
		<polygon points="295.7,679.3 291.5,695.1 287.2,679.3 		"/>
		<polygon points="295.7,436.1 291.5,420.2 287.2,436.1 		"/>
		<line class="st5" x1="858.4" y1="679.4" x2="858.4" y2="397.9"/>
		<polygon points="862.5,676.5 858.2,692.4 854,676.5 		"/>
		<polygon points="862.5,400.8 858.2,384.9 854,400.8 		"/>
		<line class="st5" x1="825.9" y1="679.4" x2="825.9" y2="414.1"/>
		<polygon points="830,676.5 825.7,692.4 821.5,676.5 		"/>
		<polygon points="830,417 825.7,401.2 821.5,417 		"/>
		<line class="st5" x1="175" y1="680" x2="175" y2="639"/>
		<polygon points="179,677.1 174.8,693 170.5,677.1 		"/>
		<polygon points="179,641.9 174.8,626.1 170.5,641.9 		"/>
		<line class="st5" x1="143.1" y1="679.4" x2="143.1" y2="580.1"/>
		<polygon points="147.1,676.5 142.9,692.4 138.6,676.5 		"/>
		<polygon points="147.1,583 142.9,567.1 138.6,583 		"/>
		<line class="st5" x1="112.3" y1="679.4" x2="112.3" y2="75.9"/>
		<polygon points="116.3,676.5 112.1,692.4 107.8,676.5 		"/>
		<polygon points="116.3,78.8 112.1,62.9 107.8,78.8 		"/>
		<path class="st5" d="M427.1,61.9H108.2 M501.7,257.4h216.2 M643,195.9h44.8 M323.7,201.2l45.2-0.4 M137.9,564.8h361.7
			 M148.8,625.7h59 M235.5,420H316 M800.5,383.8h74.1 M639.6,62.5h74.1"/>
		<line class="st6" x1="372.8" y1="400" x2="833" y2="400"/>
		<g>
			<path class="st5" d="M97.2,693.5h767 M794.6,694.7v84.1 M206.4,694.7v84.1 M782.1,681.2l-12-11.4H693"/>
		</g>
		<polygon points="782.8,676.3 791.4,690.3 777,682.4 		"/>
		<polyline class="st5" points="778.2,637.3 768.6,645.4 691.5,645.4 		"/>
		<polygon points="773.4,636 788.2,629 778.9,642.5 		"/>
		<path class="st7" d="M654.1,596.7l-154.5-31.9L363,592.3 M640.9,196.9l-140.9,60l-139.4-60"/>
		<line class="st5" x1="451.1" y1="389.4" x2="548" y2="389.4"/>
		<polygon points="454,393.5 438.2,389.2 454,385 		"/>
		<polygon points="545.1,393.5 561,389.2 545.1,385 		"/>
		<g>
			<path d="M490.1,7.5V5.9h9v1.3c-0.9,0.9-1.8,2.2-2.6,3.8c-0.9,1.6-1.5,3.2-2,4.8c-0.3,1.2-0.6,2.4-0.7,3.8h-1.8
				c0-1.1,0.2-2.4,0.6-4s1-3.1,1.8-4.5c0.8-1.4,1.6-2.7,2.5-3.7H490.1z"/>
			<path d="M500.8,12.7c0-1.7,0.2-3,0.5-4c0.3-1,0.8-1.8,1.5-2.3c0.7-0.5,1.5-0.8,2.5-0.8c0.7,0,1.4,0.2,2,0.5
				c0.6,0.3,1,0.7,1.4,1.3c0.4,0.6,0.7,1.3,0.9,2.1c0.2,0.8,0.3,1.9,0.3,3.3c0,1.6-0.2,3-0.5,4c-0.3,1-0.8,1.8-1.5,2.3
				c-0.7,0.5-1.5,0.8-2.5,0.8c-1.3,0-2.4-0.5-3.2-1.4C501.3,17.3,500.8,15.4,500.8,12.7z M502.6,12.7c0,2.3,0.3,3.8,0.8,4.6
				c0.5,0.8,1.2,1.1,2,1.1s1.4-0.4,2-1.1c0.5-0.8,0.8-2.3,0.8-4.6c0-2.3-0.3-3.8-0.8-4.6c-0.5-0.8-1.2-1.1-2-1.1
				c-0.8,0-1.4,0.3-1.9,1C502.9,8.9,502.6,10.5,502.6,12.7z"/>
		</g>
		<g>
			<path d="M528.9,97.1v-14h6.2c1.2,0,2.2,0.1,2.8,0.4c0.6,0.3,1.2,0.7,1.6,1.3s0.6,1.3,0.6,2.1c0,1-0.3,1.8-1,2.5s-1.6,1.1-3,1.3
				c0.5,0.2,0.9,0.5,1.1,0.7c0.5,0.5,1.1,1.1,1.5,1.9l2.4,3.8h-2.3l-1.8-2.9c-0.5-0.8-1-1.5-1.3-1.9s-0.7-0.8-0.9-0.9
				c-0.3-0.2-0.6-0.3-0.8-0.4c-0.2,0-0.6-0.1-1-0.1h-2.1v6.2H528.9z M530.8,89.3h4c0.8,0,1.5-0.1,2-0.3c0.5-0.2,0.8-0.5,1.1-0.8
				c0.2-0.4,0.4-0.8,0.4-1.3c0-0.7-0.2-1.2-0.7-1.6c-0.5-0.4-1.2-0.6-2.3-0.6h-4.4V89.3z"/>
			<path d="M548.7,97.1H547V86.1c-0.4,0.4-1,0.8-1.6,1.2c-0.7,0.4-1.3,0.7-1.8,0.9v-1.7c1-0.5,1.8-1,2.5-1.6s1.2-1.3,1.5-1.9h1.1
				V97.1z"/>
		</g>
		<g>
			<path d="M553.1,90.2c0-1.7,0.2-3,0.5-4c0.3-1,0.8-1.8,1.5-2.3c0.7-0.5,1.5-0.8,2.5-0.8c0.7,0,1.4,0.2,2,0.5
				c0.6,0.3,1,0.7,1.4,1.3c0.4,0.6,0.7,1.3,0.9,2.1c0.2,0.8,0.3,1.9,0.3,3.3c0,1.6-0.2,3-0.5,4c-0.3,1-0.8,1.8-1.5,2.3
				c-0.7,0.5-1.5,0.8-2.5,0.8c-1.3,0-2.4-0.5-3.2-1.4C553.6,94.7,553.1,92.8,553.1,90.2z M554.9,90.2c0,2.3,0.3,3.8,0.8,4.6
				c0.5,0.8,1.2,1.1,2,1.1s1.4-0.4,2-1.1c0.5-0.8,0.8-2.3,0.8-4.6c0-2.3-0.3-3.8-0.8-4.6c-0.5-0.8-1.2-1.1-2-1.1
				c-0.8,0-1.4,0.3-1.9,1C555.2,86.3,554.9,87.9,554.9,90.2z"/>
		</g>
		<g>
			<path d="M533.4,159.5v-14h6.2c1.2,0,2.2,0.1,2.8,0.4c0.6,0.3,1.2,0.7,1.6,1.3s0.6,1.3,0.6,2.1c0,1-0.3,1.8-1,2.5s-1.6,1.1-3,1.3
				c0.5,0.2,0.9,0.5,1.1,0.7c0.5,0.5,1.1,1.1,1.5,1.9l2.4,3.8h-2.3l-1.8-2.9c-0.5-0.8-1-1.5-1.3-1.9s-0.7-0.8-0.9-0.9
				c-0.3-0.2-0.6-0.3-0.8-0.4c-0.2,0-0.6-0.1-1-0.1h-2.1v6.2H533.4z M535.2,151.7h4c0.8,0,1.5-0.1,2-0.3c0.5-0.2,0.8-0.5,1.1-0.8
				c0.2-0.4,0.4-0.8,0.4-1.3c0-0.7-0.2-1.2-0.7-1.6c-0.5-0.4-1.2-0.6-2.3-0.6h-4.4V151.7z"/>
			<path d="M546.7,155.8l1.8-0.2c0.1,0.9,0.4,1.5,0.9,2c0.5,0.4,1.1,0.7,1.8,0.7c0.8,0,1.5-0.3,2.1-0.9c0.6-0.6,0.9-1.4,0.9-2.5
				c0-1-0.3-1.7-0.8-2.3c-0.5-0.6-1.3-0.8-2.2-0.8c-0.6,0-1.1,0.1-1.5,0.4c-0.4,0.3-0.8,0.6-1,1l-1.6-0.2l1.4-7.2h6.9v1.6h-5.6
				l-0.8,3.8c0.8-0.6,1.7-0.9,2.6-0.9c1.2,0,2.2,0.4,3.1,1.3s1.3,1.9,1.3,3.3c0,1.3-0.4,2.4-1.1,3.3c-0.9,1.1-2.1,1.7-3.7,1.7
				c-1.3,0-2.3-0.4-3.1-1.1C547.3,157.9,546.8,157,546.7,155.8z"/>
		</g>
		<g>
			<path d="M663.5,503.3v-14h6.2c1.2,0,2.2,0.1,2.8,0.4s1.2,0.7,1.6,1.3s0.6,1.3,0.6,2.1c0,1-0.3,1.8-1,2.5c-0.6,0.7-1.6,1.1-3,1.3
				c0.5,0.2,0.9,0.5,1.1,0.7c0.5,0.5,1.1,1.1,1.5,1.9l2.4,3.8h-2.3l-1.8-2.9c-0.5-0.8-1-1.5-1.3-1.9s-0.7-0.8-0.9-0.9
				c-0.3-0.2-0.6-0.3-0.8-0.4c-0.2,0-0.6-0.1-1-0.1h-2.1v6.2H663.5z M665.3,495.5h4c0.8,0,1.5-0.1,2-0.3s0.8-0.5,1.1-0.8
				s0.4-0.8,0.4-1.3c0-0.7-0.2-1.2-0.7-1.6c-0.5-0.4-1.2-0.6-2.3-0.6h-4.4V495.5z"/>
			<path d="M685.9,501.7v1.6h-9.2c0-0.4,0.1-0.8,0.2-1.2c0.2-0.6,0.6-1.2,1.1-1.9c0.5-0.6,1.3-1.3,2.2-2.1c1.5-1.2,2.5-2.2,3.1-3
				c0.5-0.7,0.8-1.4,0.8-2.1c0-0.7-0.2-1.3-0.7-1.7c-0.5-0.5-1.1-0.7-1.9-0.7c-0.8,0-1.5,0.2-2,0.7s-0.7,1.2-0.8,2.1l-1.8-0.2
				c0.1-1.3,0.6-2.3,1.4-3s1.8-1,3.2-1c1.3,0,2.4,0.4,3.2,1.1c0.8,0.7,1.2,1.7,1.2,2.8c0,0.6-0.1,1.1-0.3,1.6
				c-0.2,0.5-0.6,1.1-1.1,1.7c-0.5,0.6-1.4,1.4-2.6,2.5c-1,0.9-1.7,1.4-2,1.8s-0.5,0.6-0.7,0.9H685.9z"/>
		</g>
		<g>
			<path d="M687.7,499.7l1.8-0.2c0.1,0.9,0.4,1.5,0.9,2c0.5,0.4,1.1,0.7,1.8,0.7c0.8,0,1.5-0.3,2.1-0.9c0.6-0.6,0.9-1.4,0.9-2.5
				c0-1-0.3-1.7-0.8-2.3c-0.5-0.6-1.3-0.8-2.2-0.8c-0.6,0-1.1,0.1-1.5,0.4c-0.4,0.2-0.8,0.6-1,1l-1.6-0.2l1.4-7.2h6.9v1.6h-5.6
				L690,495c0.8-0.6,1.7-0.9,2.6-0.9c1.2,0,2.2,0.4,3.1,1.3c0.8,0.8,1.3,1.9,1.3,3.3c0,1.3-0.4,2.4-1.1,3.3
				c-0.9,1.1-2.1,1.7-3.7,1.7c-1.3,0-2.3-0.4-3.1-1.1C688.2,501.8,687.8,500.9,687.7,499.7z"/>
		</g>
		<g>
			<path d="M770.4,424.4l5.4-7.3l-4.8-6.7h2.2l2.5,3.6c0.5,0.7,0.9,1.3,1.1,1.7c0.3-0.5,0.7-1,1.1-1.6l2.8-3.7h2l-4.9,6.6l5.3,7.4
				h-2.3l-3.5-5c-0.2-0.3-0.4-0.6-0.6-0.9c-0.3,0.5-0.5,0.9-0.7,1l-3.5,4.9H770.4z"/>
		</g>
		<g>
			<path d="M219.6,424.4l5.4-7.3l-4.8-6.7h2.2l2.5,3.6c0.5,0.7,0.9,1.3,1.1,1.7c0.3-0.5,0.7-1,1.1-1.6l2.8-3.7h2l-4.9,6.6l5.3,7.4
				h-2.3l-3.5-5c-0.2-0.3-0.4-0.6-0.6-0.9c-0.3,0.5-0.5,0.9-0.7,1l-3.5,4.9H219.6z"/>
		</g>
		<g>
			<path d="M663.5,279.1v-14h6.2c1.2,0,2.2,0.1,2.8,0.4c0.6,0.3,1.2,0.7,1.6,1.3s0.6,1.3,0.6,2.1c0,1-0.3,1.8-1,2.5s-1.6,1.1-3,1.3
				c0.5,0.2,0.9,0.5,1.1,0.7c0.5,0.5,1.1,1.1,1.5,1.9l2.4,3.8h-2.3l-1.8-2.9c-0.5-0.8-1-1.5-1.3-1.9s-0.7-0.8-0.9-0.9
				c-0.3-0.2-0.6-0.3-0.8-0.4c-0.2,0-0.6-0.1-1-0.1h-2.1v6.2H663.5z M665.3,271.3h4c0.8,0,1.5-0.1,2-0.3c0.5-0.2,0.8-0.5,1.1-0.8
				c0.2-0.4,0.4-0.8,0.4-1.3c0-0.7-0.2-1.2-0.7-1.6c-0.5-0.4-1.2-0.6-2.3-0.6h-4.4V271.3z"/>
			<path d="M685.8,277.4v1.6h-9.2c0-0.4,0.1-0.8,0.2-1.2c0.2-0.6,0.6-1.2,1.1-1.9c0.5-0.6,1.3-1.3,2.2-2.1c1.5-1.2,2.5-2.2,3.1-3
				c0.5-0.7,0.8-1.4,0.8-2.1c0-0.7-0.2-1.3-0.7-1.7c-0.5-0.5-1.1-0.7-1.9-0.7c-0.8,0-1.5,0.2-2,0.7s-0.7,1.2-0.8,2.1l-1.8-0.2
				c0.1-1.3,0.6-2.3,1.4-3c0.8-0.7,1.8-1,3.2-1c1.3,0,2.4,0.4,3.2,1.1c0.8,0.7,1.2,1.7,1.2,2.8c0,0.6-0.1,1.1-0.3,1.6
				s-0.6,1.1-1.1,1.7c-0.5,0.6-1.4,1.4-2.6,2.5c-1,0.9-1.7,1.4-2,1.8c-0.3,0.3-0.5,0.6-0.7,0.9H685.8z"/>
		</g>
		<g>
			<path d="M687.7,275.4l1.8-0.2c0.1,0.9,0.4,1.5,0.9,2c0.5,0.4,1.1,0.7,1.8,0.7c0.8,0,1.5-0.3,2.1-0.9c0.6-0.6,0.9-1.4,0.9-2.5
				c0-1-0.3-1.7-0.8-2.3c-0.5-0.6-1.3-0.8-2.2-0.8c-0.6,0-1.1,0.1-1.5,0.4c-0.4,0.3-0.8,0.6-1,1l-1.6-0.2l1.4-7.2h6.9v1.6h-5.6
				l-0.8,3.8c0.8-0.6,1.7-0.9,2.6-0.9c1.2,0,2.2,0.4,3.1,1.3s1.3,1.9,1.3,3.3c0,1.3-0.4,2.4-1.1,3.3c-0.9,1.1-2.1,1.7-3.7,1.7
				c-1.3,0-2.3-0.4-3.1-1.1C688.2,277.5,687.8,276.6,687.7,275.4z"/>
		</g>
		<g>
			<path d="M738.7,314.2v-14h6.2c1.2,0,2.2,0.1,2.8,0.4c0.6,0.3,1.2,0.7,1.6,1.3s0.6,1.3,0.6,2.1c0,1-0.3,1.8-1,2.5s-1.6,1.1-3,1.3
				c0.5,0.2,0.9,0.5,1.1,0.7c0.5,0.5,1.1,1.1,1.5,1.9l2.4,3.8h-2.3l-1.8-2.9c-0.5-0.8-1-1.5-1.3-1.9s-0.7-0.8-0.9-0.9
				c-0.3-0.2-0.6-0.3-0.8-0.4c-0.2,0-0.6-0.1-1-0.1h-2.1v6.2H738.7z M740.5,306.4h4c0.8,0,1.5-0.1,2-0.3c0.5-0.2,0.8-0.5,1.1-0.8
				c0.2-0.4,0.4-0.8,0.4-1.3c0-0.7-0.2-1.2-0.7-1.6c-0.5-0.4-1.2-0.6-2.3-0.6h-4.4V306.4z"/>
			<path d="M752,310.5l1.7-0.2c0.2,1,0.5,1.7,1,2.1c0.5,0.4,1,0.6,1.7,0.6c0.8,0,1.5-0.3,2-0.8c0.6-0.6,0.8-1.3,0.8-2.1
				c0-0.8-0.3-1.4-0.8-1.9c-0.5-0.5-1.2-0.8-2-0.8c-0.3,0-0.7,0.1-1.2,0.2l0.2-1.5c0.1,0,0.2,0,0.3,0c0.7,0,1.4-0.2,2-0.6
				c0.6-0.4,0.9-1,0.9-1.8c0-0.6-0.2-1.1-0.6-1.6s-1-0.6-1.6-0.6c-0.7,0-1.2,0.2-1.7,0.6s-0.7,1-0.9,1.9l-1.7-0.3
				c0.2-1.1,0.7-2,1.4-2.7c0.7-0.6,1.7-0.9,2.8-0.9c0.8,0,1.5,0.2,2.1,0.5c0.6,0.3,1.1,0.8,1.5,1.3c0.3,0.6,0.5,1.2,0.5,1.8
				c0,0.6-0.2,1.2-0.5,1.6c-0.3,0.5-0.8,0.9-1.4,1.2c0.8,0.2,1.5,0.6,1.9,1.2c0.5,0.6,0.7,1.4,0.7,2.3c0,1.2-0.4,2.3-1.3,3.1
				c-0.9,0.8-2,1.3-3.4,1.3c-1.2,0-2.2-0.4-3.1-1.1C752.6,312.6,752.1,311.7,752,310.5z"/>
			<path d="M762.9,307.3c0-1.7,0.2-3,0.5-4c0.3-1,0.8-1.8,1.5-2.3c0.7-0.5,1.5-0.8,2.5-0.8c0.7,0,1.4,0.2,2,0.5
				c0.6,0.3,1,0.7,1.4,1.3c0.4,0.6,0.7,1.3,0.9,2.1c0.2,0.8,0.3,1.9,0.3,3.3c0,1.6-0.2,3-0.5,4c-0.3,1-0.8,1.8-1.5,2.3
				c-0.7,0.5-1.5,0.8-2.5,0.8c-1.3,0-2.4-0.5-3.2-1.4C763.3,311.8,762.9,309.9,762.9,307.3z M764.6,307.3c0,2.3,0.3,3.8,0.8,4.6
				c0.5,0.8,1.2,1.1,2,1.1s1.4-0.4,2-1.1c0.5-0.8,0.8-2.3,0.8-4.6c0-2.3-0.3-3.8-0.8-4.6c-0.5-0.8-1.2-1.1-2-1.1
				c-0.8,0-1.4,0.3-1.9,1C764.9,303.4,764.6,305,764.6,307.3z"/>
			<path d="M773.7,310.5l1.8-0.2c0.1,0.9,0.4,1.5,0.9,2c0.5,0.4,1.1,0.7,1.8,0.7c0.8,0,1.5-0.3,2.1-0.9c0.6-0.6,0.9-1.4,0.9-2.5
				c0-1-0.3-1.7-0.8-2.3c-0.5-0.6-1.3-0.8-2.2-0.8c-0.6,0-1.1,0.1-1.5,0.4c-0.4,0.3-0.8,0.6-1,1l-1.6-0.2l1.4-7.2h6.9v1.6h-5.6
				l-0.8,3.8c0.8-0.6,1.7-0.9,2.6-0.9c1.2,0,2.2,0.4,3.1,1.3s1.3,1.9,1.3,3.3c0,1.3-0.4,2.4-1.1,3.3c-0.9,1.1-2.1,1.7-3.7,1.7
				c-1.3,0-2.3-0.4-3.1-1.1C774.3,312.6,773.8,311.7,773.7,310.5z"/>
		</g>
		<g>
			<path d="M720.2,638.5v-14h6.2c1.2,0,2.2,0.1,2.8,0.4s1.2,0.7,1.6,1.3s0.6,1.3,0.6,2.1c0,1-0.3,1.8-1,2.5c-0.6,0.7-1.6,1.1-3,1.3
				c0.5,0.2,0.9,0.5,1.1,0.7c0.5,0.5,1.1,1.1,1.5,1.9l2.4,3.8h-2.3l-1.8-2.9c-0.5-0.8-1-1.5-1.3-1.9s-0.7-0.8-0.9-0.9
				c-0.3-0.2-0.6-0.3-0.8-0.4c-0.2,0-0.6-0.1-1-0.1h-2.1v6.2H720.2z M722.1,630.7h4c0.8,0,1.5-0.1,2-0.3s0.8-0.5,1.1-0.8
				s0.4-0.8,0.4-1.3c0-0.7-0.2-1.2-0.7-1.6c-0.5-0.4-1.2-0.6-2.3-0.6h-4.4V630.7z"/>
			<path d="M733.6,634.9l1.8-0.2c0.1,0.9,0.4,1.5,0.9,2c0.5,0.4,1.1,0.7,1.8,0.7c0.8,0,1.5-0.3,2.1-0.9c0.6-0.6,0.9-1.4,0.9-2.5
				c0-1-0.3-1.7-0.8-2.3c-0.5-0.6-1.3-0.8-2.2-0.8c-0.6,0-1.1,0.1-1.5,0.4c-0.4,0.2-0.8,0.6-1,1l-1.6-0.2l1.4-7.2h6.9v1.6h-5.6
				l-0.8,3.8c0.8-0.6,1.7-0.9,2.6-0.9c1.2,0,2.2,0.4,3.1,1.3c0.8,0.8,1.3,1.9,1.3,3.3c0,1.3-0.4,2.4-1.1,3.3
				c-0.9,1.1-2.1,1.7-3.7,1.7c-1.3,0-2.3-0.4-3.1-1.1C734.2,637,733.7,636,733.6,634.9z"/>
		</g>
		<g>
			<path d="M720.2,663.4v-14h6.2c1.2,0,2.2,0.1,2.8,0.4s1.2,0.7,1.6,1.3s0.6,1.3,0.6,2.1c0,1-0.3,1.8-1,2.5c-0.6,0.7-1.6,1.1-3,1.3
				c0.5,0.2,0.9,0.5,1.1,0.7c0.5,0.5,1.1,1.1,1.5,1.9l2.4,3.8h-2.3l-1.8-2.9c-0.5-0.8-1-1.5-1.3-1.9s-0.7-0.8-0.9-0.9
				c-0.3-0.2-0.6-0.3-0.8-0.4c-0.2,0-0.6-0.1-1-0.1h-2.1v6.2H720.2z M722.1,655.6h4c0.8,0,1.5-0.1,2-0.3s0.8-0.5,1.1-0.8
				s0.4-0.8,0.4-1.3c0-0.7-0.2-1.2-0.7-1.6c-0.5-0.4-1.2-0.6-2.3-0.6h-4.4V655.6z"/>
			<path d="M733.6,659.7l1.7-0.2c0.2,1,0.5,1.7,1,2.1c0.5,0.4,1,0.6,1.7,0.6c0.8,0,1.5-0.3,2-0.8c0.6-0.6,0.8-1.2,0.8-2.1
				c0-0.8-0.3-1.4-0.8-1.9c-0.5-0.5-1.2-0.8-2-0.8c-0.3,0-0.7,0.1-1.2,0.2l0.2-1.5c0.1,0,0.2,0,0.3,0c0.7,0,1.4-0.2,2-0.6
				c0.6-0.4,0.9-1,0.9-1.8c0-0.6-0.2-1.1-0.6-1.6c-0.4-0.4-1-0.6-1.6-0.6c-0.7,0-1.2,0.2-1.7,0.6s-0.7,1-0.9,1.9l-1.7-0.3
				c0.2-1.1,0.7-2,1.4-2.7c0.7-0.6,1.7-0.9,2.8-0.9c0.8,0,1.5,0.2,2.1,0.5c0.6,0.3,1.1,0.8,1.5,1.3c0.3,0.6,0.5,1.2,0.5,1.8
				c0,0.6-0.2,1.2-0.5,1.6c-0.3,0.5-0.8,0.9-1.4,1.2c0.8,0.2,1.5,0.6,1.9,1.2c0.5,0.6,0.7,1.4,0.7,2.3c0,1.2-0.4,2.3-1.3,3.1
				s-2,1.3-3.4,1.3c-1.2,0-2.2-0.4-3.1-1.1C734.2,661.8,733.7,660.9,733.6,659.7z"/>
		</g>
		<g>
			<path d="M704.7,600.3H703v-10.9c-0.4,0.4-1,0.8-1.6,1.2c-0.7,0.4-1.3,0.7-1.8,0.9v-1.7c1-0.5,1.8-1,2.5-1.6
				c0.7-0.6,1.2-1.3,1.5-1.9h1.1V600.3z"/>
			<path d="M708.3,600.6l4-14.4h1.4l-4,14.4H708.3z"/>
		</g>
		<g>
			<path d="M714.5,596.7l1.8-0.2c0.1,0.9,0.4,1.5,0.9,2c0.5,0.4,1.1,0.7,1.8,0.7c0.8,0,1.5-0.3,2.1-0.9c0.6-0.6,0.9-1.4,0.9-2.5
				c0-1-0.3-1.7-0.8-2.3c-0.5-0.6-1.3-0.8-2.2-0.8c-0.6,0-1.1,0.1-1.5,0.4c-0.4,0.2-0.8,0.6-1,1l-1.6-0.2l1.4-7.2h6.9v1.6h-5.6
				l-0.8,3.8c0.8-0.6,1.7-0.9,2.6-0.9c1.2,0,2.2,0.4,3.1,1.3c0.8,0.8,1.3,1.9,1.3,3.3c0,1.3-0.4,2.4-1.1,3.3
				c-0.9,1.1-2.1,1.7-3.7,1.7c-1.3,0-2.3-0.4-3.1-1.1C715.1,598.8,714.7,597.9,714.5,596.7z"/>
		</g>
		<g>
			<path d="M488.1,754.9h-1.7V744c-0.4,0.4-1,0.8-1.6,1.2c-0.7,0.4-1.3,0.7-1.8,0.9v-1.7c1-0.5,1.8-1,2.5-1.6
				c0.7-0.6,1.2-1.3,1.5-1.9h1.1V754.9z"/>
			<path d="M498,754.9v-3.3H492V750l6.4-9h1.4v9h1.9v1.6h-1.9v3.3H498z M498,750v-6.3l-4.4,6.3H498z"/>
			<path d="M512.3,744.3l-1.7,0.1c-0.2-0.7-0.4-1.2-0.6-1.5c-0.5-0.5-1-0.7-1.7-0.7c-0.5,0-1,0.2-1.4,0.5c-0.5,0.4-1,1-1.3,1.7
				c-0.3,0.8-0.5,1.8-0.5,3.2c0.4-0.6,0.9-1.1,1.5-1.4s1.2-0.5,1.9-0.5c1.1,0,2.1,0.4,2.9,1.3c0.8,0.8,1.2,1.9,1.2,3.3
				c0,0.9-0.2,1.7-0.6,2.4c-0.4,0.8-0.9,1.3-1.6,1.7c-0.7,0.4-1.4,0.6-2.2,0.6c-1.4,0-2.6-0.5-3.5-1.6c-0.9-1-1.4-2.8-1.4-5.2
				c0-2.7,0.5-4.7,1.5-5.9c0.9-1.1,2-1.6,3.5-1.6c1.1,0,2,0.3,2.7,0.9C511.7,742.4,512.1,743.3,512.3,744.3z M505.3,750.4
				c0,0.6,0.1,1.2,0.4,1.7c0.3,0.5,0.6,1,1.1,1.2s0.9,0.4,1.4,0.4c0.7,0,1.3-0.3,1.9-0.9s0.8-1.4,0.8-2.4c0-1-0.3-1.7-0.8-2.3
				c-0.5-0.6-1.2-0.8-1.9-0.8c-0.8,0-1.4,0.3-2,0.8C505.5,748.7,505.3,749.5,505.3,750.4z"/>
		</g>
		<g>
			<path d="M522.5,719.5v-5.9l-5.4-8h2.2l2.8,4.2c0.5,0.8,1,1.6,1.4,2.4c0.4-0.7,0.9-1.6,1.5-2.5l2.7-4.1h2.2l-5.6,8v5.9H522.5z"/>
		</g>
		<g>
			<path d="M512.1,53.1v-5.9l-5.4-8h2.2l2.8,4.2c0.5,0.8,1,1.6,1.4,2.4c0.4-0.7,0.9-1.6,1.5-2.5l2.7-4.1h2.2l-5.6,8v5.9H512.1z"/>
		</g>
		<g>
			<path d="M715,151.4h3.3v-6.1h1.6l9,6.4v1.4h-9v1.9h-1.6v-1.9H715V151.4z M720,151.4h6.3L720,147V151.4z"/>
			<path d="M722.6,159.4c0.3-0.7,0.6-1.2,1.1-1.6s1.1-0.5,1.7-0.5c1,0,1.9,0.4,2.6,1.1c0.7,0.7,1,1.7,1,2.9c0,1.2-0.4,2.2-1.1,2.9
				c-0.7,0.7-1.6,1.1-2.6,1.1c-0.6,0-1.2-0.2-1.7-0.5c-0.5-0.3-0.8-0.9-1.1-1.5c-0.3,0.9-0.7,1.5-1.4,2c-0.6,0.4-1.4,0.7-2.2,0.7
				c-1.2,0-2.2-0.4-3-1.3s-1.2-2-1.2-3.3s0.4-2.5,1.2-3.3c0.8-0.8,1.8-1.3,3.1-1.3c0.9,0,1.7,0.2,2.3,0.7
				C722,157.9,722.4,158.6,722.6,159.4z M719.1,158.5c-0.5,0-1,0.1-1.4,0.3c-0.5,0.2-0.8,0.6-1.1,1c-0.3,0.5-0.4,0.9-0.4,1.5
				c0,0.8,0.3,1.5,0.8,2s1.2,0.8,2,0.8c0.8,0,1.5-0.3,2-0.8c0.5-0.5,0.8-1.2,0.8-2.1c0-0.8-0.3-1.5-0.8-2
				C720.5,158.8,719.9,158.5,719.1,158.5z M725.5,159.1c-0.7,0-1.2,0.2-1.6,0.6c-0.4,0.4-0.6,1-0.6,1.7c0,0.7,0.2,1.2,0.6,1.6
				c0.4,0.4,0.9,0.6,1.5,0.6c0.6,0,1.2-0.2,1.6-0.7c0.4-0.4,0.6-1,0.6-1.6c0-0.7-0.2-1.2-0.6-1.6S726.1,159.1,725.5,159.1z"/>
			<path d="M715,168.6h2v2h-2V168.6z"/>
		</g>
		<g>
			<path d="M715,178.5h3.3v-6.1h1.6l9,6.4v1.4h-9v1.9h-1.6v-1.9H715V178.5z M720,178.5h6.3l-6.3-4.4V178.5z"/>
		</g>
		<g>
			<path d="M877.3,529.6h1.6v9h-1.3c-0.9-0.9-2.2-1.8-3.8-2.6s-3.2-1.5-4.8-2c-1.2-0.3-2.4-0.6-3.8-0.7v-1.8c1.1,0,2.4,0.2,4,0.6
				c1.6,0.4,3.1,1,4.5,1.8c1.4,0.8,2.7,1.6,3.7,2.5V529.6z"/>
			<path d="M877.3,540.5h1.6v9h-1.3c-0.9-0.9-2.2-1.8-3.8-2.6s-3.2-1.5-4.8-2c-1.2-0.3-2.4-0.6-3.8-0.7v-1.8c1.1,0,2.4,0.2,4,0.6
				c1.6,0.4,3.1,1,4.5,1.8c1.4,0.8,2.7,1.6,3.7,2.5V540.5z"/>
		</g>
		<g>
			<path d="M845.6,538h1.6v9h-1.3c-0.9-0.9-2.2-1.8-3.8-2.6c-1.6-0.9-3.2-1.5-4.8-2c-1.2-0.3-2.4-0.6-3.8-0.7V540
				c1.1,0,2.4,0.2,4,0.6c1.6,0.4,3.1,1,4.5,1.8c1.4,0.8,2.7,1.6,3.7,2.5V538z"/>
			<path d="M837.2,548.8l0.2,1.7c-1,0.2-1.7,0.5-2.1,1c-0.4,0.5-0.6,1-0.6,1.7c0,0.8,0.3,1.5,0.8,2c0.6,0.6,1.3,0.8,2.1,0.8
				c0.8,0,1.4-0.3,1.9-0.8c0.5-0.5,0.8-1.2,0.8-2c0-0.3-0.1-0.7-0.2-1.2l1.5,0.2c0,0.1,0,0.2,0,0.3c0,0.7,0.2,1.4,0.6,2
				s1,0.9,1.8,0.9c0.6,0,1.1-0.2,1.6-0.6c0.4-0.4,0.6-1,0.6-1.6c0-0.7-0.2-1.2-0.6-1.7s-1-0.7-1.9-0.9l0.3-1.7
				c1.1,0.2,2,0.7,2.7,1.4c0.6,0.7,0.9,1.7,0.9,2.8c0,0.8-0.2,1.5-0.5,2.1c-0.3,0.6-0.8,1.1-1.3,1.5s-1.2,0.5-1.8,0.5
				c-0.6,0-1.2-0.2-1.6-0.5c-0.5-0.3-0.9-0.8-1.2-1.4c-0.2,0.8-0.6,1.5-1.2,1.9c-0.6,0.5-1.4,0.7-2.3,0.7c-1.2,0-2.3-0.4-3.1-1.3
				c-0.8-0.9-1.3-2-1.3-3.4c0-1.2,0.4-2.2,1.1-3.1C835.1,549.4,836,548.9,837.2,548.8z"/>
		</g>
		<g>
			<path d="M684.1,111.1l0.2,1.7c-1,0.2-1.7,0.5-2.1,1c-0.4,0.5-0.6,1-0.6,1.7c0,0.8,0.3,1.5,0.8,2c0.6,0.6,1.3,0.8,2.1,0.8
				c0.8,0,1.4-0.3,1.9-0.8c0.5-0.5,0.8-1.2,0.8-2c0-0.3-0.1-0.7-0.2-1.2l1.5,0.2c0,0.1,0,0.2,0,0.3c0,0.7,0.2,1.4,0.6,2
				c0.4,0.6,1,0.9,1.8,0.9c0.6,0,1.1-0.2,1.6-0.6s0.6-1,0.6-1.6c0-0.7-0.2-1.2-0.6-1.7s-1-0.7-1.9-0.9l0.3-1.7
				c1.1,0.2,2,0.7,2.7,1.4c0.6,0.7,0.9,1.7,0.9,2.8c0,0.8-0.2,1.5-0.5,2.1c-0.3,0.6-0.8,1.1-1.3,1.5c-0.6,0.3-1.2,0.5-1.8,0.5
				c-0.6,0-1.2-0.2-1.6-0.5c-0.5-0.3-0.9-0.8-1.2-1.4c-0.2,0.8-0.6,1.5-1.2,1.9c-0.6,0.5-1.4,0.7-2.3,0.7c-1.2,0-2.3-0.4-3.1-1.3
				c-0.8-0.9-1.3-2-1.3-3.4c0-1.2,0.4-2.2,1.1-3.1C682,111.7,683,111.3,684.1,111.1z"/>
			<path d="M684.1,122l0.2,1.7c-1,0.2-1.7,0.5-2.1,1c-0.4,0.5-0.6,1-0.6,1.7c0,0.8,0.3,1.5,0.8,2c0.6,0.6,1.3,0.8,2.1,0.8
				c0.8,0,1.4-0.3,1.9-0.8c0.5-0.5,0.8-1.2,0.8-2c0-0.3-0.1-0.7-0.2-1.2l1.5,0.2c0,0.1,0,0.2,0,0.3c0,0.7,0.2,1.4,0.6,2
				c0.4,0.6,1,0.9,1.8,0.9c0.6,0,1.1-0.2,1.6-0.6s0.6-1,0.6-1.6c0-0.7-0.2-1.2-0.6-1.7s-1-0.7-1.9-0.9l0.3-1.7
				c1.1,0.2,2,0.7,2.7,1.4c0.6,0.7,0.9,1.7,0.9,2.8c0,0.8-0.2,1.5-0.5,2.1c-0.3,0.6-0.8,1.1-1.3,1.5c-0.6,0.3-1.2,0.5-1.8,0.5
				c-0.6,0-1.2-0.2-1.6-0.5c-0.5-0.3-0.9-0.8-1.2-1.4c-0.2,0.8-0.6,1.5-1.2,1.9c-0.6,0.5-1.4,0.7-2.3,0.7c-1.2,0-2.3-0.4-3.1-1.3
				c-0.8-0.9-1.3-2-1.3-3.4c0-1.2,0.4-2.2,1.1-3.1C682,122.6,683,122.1,684.1,122z"/>
			<path d="M680.4,133.8h2v2h-2V133.8z"/>
		</g>
		<g>
			<path d="M684.1,138.2l0.2,1.7c-1,0.2-1.7,0.5-2.1,1c-0.4,0.5-0.6,1-0.6,1.7c0,0.8,0.3,1.5,0.8,2c0.6,0.6,1.3,0.8,2.1,0.8
				c0.8,0,1.4-0.3,1.9-0.8c0.5-0.5,0.8-1.2,0.8-2c0-0.3-0.1-0.7-0.2-1.2l1.5,0.2c0,0.1,0,0.2,0,0.3c0,0.7,0.2,1.4,0.6,2
				c0.4,0.6,1,0.9,1.8,0.9c0.6,0,1.1-0.2,1.6-0.6s0.6-1,0.6-1.6c0-0.7-0.2-1.2-0.6-1.7s-1-0.7-1.9-0.9l0.3-1.7
				c1.1,0.2,2,0.7,2.7,1.4c0.6,0.7,0.9,1.7,0.9,2.8c0,0.8-0.2,1.5-0.5,2.1c-0.3,0.6-0.8,1.1-1.3,1.5c-0.6,0.3-1.2,0.5-1.8,0.5
				c-0.6,0-1.2-0.2-1.6-0.5c-0.5-0.3-0.9-0.8-1.2-1.4c-0.2,0.8-0.6,1.5-1.2,1.9c-0.6,0.5-1.4,0.7-2.3,0.7c-1.2,0-2.3-0.4-3.1-1.3
				c-0.8-0.9-1.3-2-1.3-3.4c0-1.2,0.4-2.2,1.1-3.1C682,138.8,683,138.3,684.1,138.2z"/>
		</g>
		<g>
			<path d="M132.7,638.7l-0.2-1.7c1-0.2,1.7-0.5,2.1-1c0.4-0.5,0.6-1,0.6-1.7c0-0.8-0.3-1.5-0.8-2s-1.3-0.8-2.1-0.8
				c-0.8,0-1.4,0.3-1.9,0.8c-0.5,0.5-0.8,1.2-0.8,2c0,0.3,0.1,0.7,0.2,1.2l-1.5-0.2c0-0.1,0-0.2,0-0.3c0-0.7-0.2-1.4-0.6-2
				c-0.4-0.6-1-0.9-1.8-0.9c-0.6,0-1.1,0.2-1.6,0.6c-0.4,0.4-0.6,1-0.6,1.6c0,0.7,0.2,1.2,0.6,1.7s1,0.7,1.9,0.9l-0.3,1.7
				c-1.1-0.2-2-0.7-2.7-1.4c-0.6-0.7-0.9-1.7-0.9-2.8c0-0.8,0.2-1.5,0.5-2.1c0.3-0.6,0.8-1.1,1.3-1.5c0.6-0.3,1.2-0.5,1.8-0.5
				c0.6,0,1.2,0.2,1.6,0.5c0.5,0.3,0.9,0.8,1.2,1.4c0.2-0.8,0.6-1.5,1.2-1.9c0.6-0.5,1.4-0.7,2.3-0.7c1.2,0,2.3,0.4,3.1,1.3
				c0.8,0.9,1.3,2,1.3,3.4c0,1.2-0.4,2.2-1.1,3.1C134.8,638.2,133.8,638.6,132.7,638.7z"/>
			<path d="M134.7,618.9h1.6v9.2c-0.4,0-0.8-0.1-1.2-0.2c-0.6-0.2-1.2-0.6-1.9-1.1c-0.6-0.5-1.3-1.3-2.1-2.2c-1.2-1.5-2.2-2.5-3-3.1
				c-0.7-0.5-1.4-0.8-2.1-0.8c-0.7,0-1.3,0.2-1.7,0.7c-0.5,0.5-0.7,1.1-0.7,1.9c0,0.8,0.2,1.5,0.7,2s1.2,0.7,2.1,0.8l-0.2,1.8
				c-1.3-0.1-2.3-0.6-3-1.4c-0.7-0.8-1-1.8-1-3.2c0-1.3,0.4-2.4,1.1-3.2c0.7-0.8,1.7-1.2,2.8-1.2c0.6,0,1.1,0.1,1.6,0.3
				s1.1,0.6,1.7,1.1c0.6,0.5,1.4,1.4,2.5,2.6c0.9,1,1.4,1.7,1.8,2c0.3,0.3,0.6,0.5,0.9,0.7V618.9z"/>
		</g>
		<g>
			<path d="M285.2,545.1l-14,5.4v-2l10.1-3.6c0.8-0.3,1.6-0.5,2.3-0.7c-0.8-0.2-1.5-0.5-2.3-0.8l-10.1-3.8v-1.9l14,5.5V545.1z"/>
			<path d="M277,527.3v9.2h-1.6v-9.2H277z M281.2,527.3v9.2h-1.6v-9.2H281.2z"/>
			<path d="M274.7,516.5l0.1,1.7c-0.7,0.2-1.2,0.4-1.5,0.6c-0.5,0.5-0.7,1-0.7,1.7c0,0.5,0.2,1,0.5,1.4c0.4,0.5,1,1,1.7,1.3
				c0.8,0.3,1.8,0.5,3.2,0.5c-0.6-0.4-1.1-0.9-1.4-1.5s-0.5-1.2-0.5-1.9c0-1.1,0.4-2.1,1.3-2.9c0.8-0.8,1.9-1.2,3.3-1.2
				c0.9,0,1.7,0.2,2.4,0.6c0.8,0.4,1.3,0.9,1.7,1.6s0.6,1.4,0.6,2.2c0,1.4-0.5,2.6-1.6,3.5c-1.1,0.9-2.8,1.4-5.2,1.4
				c-2.7,0-4.7-0.5-5.9-1.5c-1.1-0.9-1.6-2-1.6-3.5c0-1.1,0.3-2,0.9-2.7C272.7,517,273.6,516.6,274.7,516.5z M280.7,523.5
				c0.6,0,1.2-0.1,1.7-0.4c0.5-0.3,1-0.6,1.2-1.1c0.3-0.5,0.4-0.9,0.4-1.4c0-0.7-0.3-1.3-0.9-1.9s-1.4-0.8-2.4-0.8
				c-1,0-1.7,0.3-2.3,0.8c-0.6,0.5-0.8,1.2-0.8,1.9c0,0.8,0.3,1.4,0.8,2C279,523.2,279.8,523.5,280.7,523.5z"/>
			<path d="M277.6,511.9c-0.3,0.7-0.6,1.2-1.1,1.6s-1.1,0.5-1.7,0.5c-1,0-1.9-0.4-2.6-1.1c-0.7-0.7-1-1.7-1-2.9
				c0-1.2,0.4-2.2,1.1-2.9c0.7-0.7,1.6-1.1,2.6-1.1c0.6,0,1.2,0.2,1.7,0.5c0.5,0.3,0.8,0.9,1.1,1.5c0.3-0.9,0.7-1.5,1.4-2
				c0.6-0.4,1.4-0.7,2.2-0.7c1.2,0,2.2,0.4,3,1.3c0.8,0.8,1.2,2,1.2,3.3c0,1.4-0.4,2.5-1.2,3.3c-0.8,0.8-1.8,1.3-3.1,1.3
				c-0.9,0-1.7-0.2-2.3-0.7C278.3,513.4,277.8,512.7,277.6,511.9z M274.7,512.2c0.7,0,1.2-0.2,1.6-0.6c0.4-0.4,0.6-1,0.6-1.7
				c0-0.7-0.2-1.2-0.6-1.6c-0.4-0.4-0.9-0.6-1.5-0.6c-0.6,0-1.2,0.2-1.6,0.7c-0.4,0.4-0.6,1-0.6,1.6c0,0.7,0.2,1.2,0.6,1.6
				S274.1,512.2,274.7,512.2z M281.2,512.8c0.5,0,1-0.1,1.4-0.3c0.5-0.2,0.8-0.6,1.1-1c0.3-0.5,0.4-0.9,0.4-1.5c0-0.8-0.3-1.5-0.8-2
				s-1.2-0.8-2-0.8c-0.8,0-1.5,0.3-2,0.8s-0.8,1.2-0.8,2.1c0,0.8,0.3,1.5,0.8,2S280.4,512.8,281.2,512.8z"/>
		</g>
		<g>
			<path d="M167.4,663.4v1.7h-10.9c0.4,0.4,0.8,1,1.2,1.6c0.4,0.7,0.7,1.3,0.9,1.8h-1.7c-0.5-1-1-1.8-1.6-2.5
				c-0.6-0.7-1.3-1.2-1.9-1.5v-1.1H167.4z"/>
			<path d="M155.2,658.9h-1.6v-9h1.3c0.9,0.9,2.2,1.8,3.8,2.6c1.6,0.9,3.2,1.5,4.8,2c1.2,0.3,2.4,0.6,3.8,0.7v1.8
				c-1.1,0-2.4-0.2-4-0.6c-1.6-0.4-3.1-1-4.5-1.8c-1.4-0.8-2.7-1.6-3.7-2.5V658.9z"/>
		</g>
		<g>
			<path d="M316.1,146.2l-0.2-1.7c1-0.2,1.7-0.5,2.1-1c0.4-0.5,0.6-1,0.6-1.7c0-0.8-0.3-1.5-0.8-2c-0.6-0.6-1.3-0.8-2.1-0.8
				c-0.8,0-1.4,0.3-1.9,0.8c-0.5,0.5-0.8,1.2-0.8,2c0,0.3,0.1,0.7,0.2,1.2l-1.5-0.2c0-0.1,0-0.2,0-0.3c0-0.7-0.2-1.4-0.6-2
				c-0.4-0.6-1-0.9-1.8-0.9c-0.6,0-1.1,0.2-1.6,0.6s-0.6,1-0.6,1.6c0,0.7,0.2,1.2,0.6,1.7s1,0.7,1.9,0.9l-0.3,1.7
				c-1.1-0.2-2-0.7-2.7-1.4c-0.6-0.7-0.9-1.7-0.9-2.8c0-0.8,0.2-1.5,0.5-2.1c0.3-0.6,0.8-1.1,1.3-1.5c0.6-0.3,1.2-0.5,1.8-0.5
				c0.6,0,1.2,0.2,1.6,0.5c0.5,0.3,0.9,0.8,1.2,1.4c0.2-0.8,0.6-1.5,1.2-1.9c0.6-0.5,1.4-0.7,2.3-0.7c1.2,0,2.3,0.4,3.1,1.3
				c0.8,0.9,1.3,2,1.3,3.4c0,1.2-0.4,2.2-1.1,3.1C318.2,145.6,317.3,146.1,316.1,146.2z"/>
			<path d="M316.1,135.4l-0.2-1.8c0.9-0.1,1.5-0.4,2-0.9c0.4-0.5,0.7-1.1,0.7-1.8c0-0.8-0.3-1.5-0.9-2.1c-0.6-0.6-1.4-0.9-2.5-0.9
				c-1,0-1.7,0.3-2.3,0.8c-0.6,0.5-0.8,1.3-0.8,2.2c0,0.6,0.1,1.1,0.4,1.5c0.3,0.4,0.6,0.8,1,1l-0.2,1.6l-7.2-1.4v-6.9h1.6v5.6
				l3.8,0.8c-0.6-0.8-0.9-1.7-0.9-2.6c0-1.2,0.4-2.2,1.3-3.1s1.9-1.3,3.3-1.3c1.3,0,2.4,0.4,3.3,1.1c1.1,0.9,1.7,2.1,1.7,3.7
				c0,1.3-0.4,2.3-1.1,3.1C318.3,134.8,317.3,135.2,316.1,135.4z"/>
		</g>
		<g>
			<path d="M105.6,388.7v1.7H94.7c0.4,0.4,0.8,1,1.2,1.6c0.4,0.7,0.7,1.3,0.9,1.8h-1.7c-0.5-1-1-1.8-1.6-2.5s-1.3-1.2-1.9-1.5v-1.1
				H105.6z"/>
			<path d="M102,384.4l-0.2-1.8c0.9-0.1,1.5-0.4,2-0.9c0.4-0.5,0.7-1.1,0.7-1.8c0-0.8-0.3-1.5-0.9-2.1c-0.6-0.6-1.4-0.9-2.5-0.9
				c-1,0-1.7,0.3-2.3,0.8c-0.6,0.5-0.8,1.3-0.8,2.2c0,0.6,0.1,1.1,0.4,1.5c0.3,0.4,0.6,0.8,1,1L99,384l-7.2-1.4v-6.9h1.6v5.6
				l3.8,0.8c-0.6-0.8-0.9-1.7-0.9-2.6c0-1.2,0.4-2.2,1.3-3.1s1.9-1.3,3.3-1.3c1.3,0,2.4,0.4,3.3,1.1c1.1,0.9,1.7,2.1,1.7,3.7
				c0,1.3-0.4,2.3-1.1,3.1C104.1,383.8,103.1,384.2,102,384.4z"/>
			<path d="M93.5,373.4h-1.6v-9h1.3c0.9,0.9,2.2,1.8,3.8,2.6c1.6,0.9,3.2,1.5,4.8,2c1.2,0.3,2.4,0.6,3.8,0.7v1.8
				c-1.1,0-2.4-0.2-4-0.6s-3.1-1-4.5-1.8c-1.4-0.8-2.7-1.6-3.7-2.5V373.4z"/>
		</g>
		<g>
			<path d="M285.2,285.1l-10.1,3.8v-1.8l6.1-2.2c0.7-0.2,1.3-0.5,2-0.6c-0.5-0.2-1.2-0.4-1.9-0.6l-6.2-2.2v-1.8l10.1,3.8V285.1z"/>
			<path d="M277,263.8v9.2h-1.6v-9.2H277z M281.2,263.8v9.2h-1.6v-9.2H281.2z"/>
			<path d="M277.6,259.2c-0.3,0.7-0.6,1.2-1.1,1.6s-1.1,0.5-1.7,0.5c-1,0-1.9-0.4-2.6-1.1c-0.7-0.7-1-1.7-1-2.9
				c0-1.2,0.4-2.2,1.1-2.9c0.7-0.7,1.6-1.1,2.6-1.1c0.6,0,1.2,0.2,1.7,0.5c0.5,0.3,0.8,0.9,1.1,1.5c0.3-0.9,0.7-1.5,1.4-2
				c0.6-0.4,1.4-0.7,2.2-0.7c1.2,0,2.2,0.4,3,1.3s1.2,2,1.2,3.3s-0.4,2.5-1.2,3.3c-0.8,0.8-1.8,1.3-3.1,1.3c-0.9,0-1.7-0.2-2.3-0.7
				C278.2,260.7,277.8,260.1,277.6,259.2z M274.7,259.6c0.7,0,1.2-0.2,1.6-0.6c0.4-0.4,0.6-1,0.6-1.7c0-0.7-0.2-1.2-0.6-1.6
				c-0.4-0.4-0.9-0.6-1.5-0.6c-0.6,0-1.2,0.2-1.6,0.7c-0.4,0.4-0.6,1-0.6,1.6c0,0.7,0.2,1.2,0.6,1.6S274.1,259.6,274.7,259.6z
				 M281.1,260.1c0.5,0,1-0.1,1.4-0.3c0.5-0.2,0.8-0.6,1.1-1c0.3-0.5,0.4-0.9,0.4-1.5c0-0.8-0.3-1.5-0.8-2s-1.2-0.8-2-0.8
				c-0.8,0-1.5,0.3-2,0.8c-0.5,0.5-0.8,1.2-0.8,2.1c0,0.8,0.3,1.5,0.8,2C279.7,259.9,280.3,260.1,281.1,260.1z"/>
			<path d="M281.9,250.8l-0.2-1.6c0.8-0.1,1.3-0.4,1.7-0.8c0.3-0.4,0.5-0.9,0.5-1.5c0-0.5-0.1-1-0.4-1.4c-0.2-0.4-0.6-0.7-1-1
				c-0.4-0.3-0.9-0.5-1.6-0.6c-0.7-0.2-1.4-0.3-2.1-0.3c-0.1,0-0.2,0-0.3,0c0.5,0.3,1,0.8,1.3,1.4c0.3,0.6,0.5,1.2,0.5,1.9
				c0,1.2-0.4,2.1-1.3,2.9s-1.9,1.2-3.3,1.2c-1.4,0-2.6-0.4-3.4-1.3c-0.9-0.8-1.3-1.9-1.3-3.1c0-0.9,0.2-1.7,0.7-2.5
				c0.5-0.8,1.2-1.3,2.1-1.7c0.9-0.4,2.2-0.6,3.9-0.6c1.8,0,3.2,0.2,4.3,0.6c1.1,0.4,1.9,1,2.4,1.7c0.6,0.8,0.8,1.7,0.8,2.7
				c0,1.1-0.3,2-0.9,2.7C283.9,250.2,283,250.6,281.9,250.8z M275.8,243.7c-1,0-1.8,0.3-2.3,0.8c-0.6,0.5-0.9,1.2-0.9,1.9
				c0,0.8,0.3,1.4,0.9,2c0.6,0.6,1.4,0.8,2.4,0.8c0.9,0,1.6-0.3,2.2-0.8c0.6-0.5,0.8-1.2,0.8-2c0-0.8-0.3-1.4-0.8-2
				C277.5,244,276.8,243.7,275.8,243.7z"/>
		</g>
		<polygon points="274.7,279.1 272.1,277.9 272.1,275.7 274.7,277.7 		"/>
		<rect x="477.9" y="363.6" class="st0" width="49" height="24.2"/>
		<g>
			<path d="M492.4,378.2l1.7-0.2c0.2,1,0.5,1.7,1,2.1c0.5,0.4,1,0.6,1.7,0.6c0.8,0,1.5-0.3,2-0.8c0.6-0.6,0.8-1.3,0.8-2.1
				c0-0.8-0.3-1.4-0.8-1.9c-0.5-0.5-1.2-0.8-2-0.8c-0.3,0-0.7,0.1-1.2,0.2l0.2-1.5c0.1,0,0.2,0,0.3,0c0.7,0,1.4-0.2,2-0.6
				c0.6-0.4,0.9-1,0.9-1.8c0-0.6-0.2-1.1-0.6-1.6s-1-0.6-1.6-0.6c-0.7,0-1.2,0.2-1.7,0.6s-0.7,1-0.9,1.9l-1.7-0.3
				c0.2-1.1,0.7-2,1.4-2.7c0.7-0.6,1.7-0.9,2.8-0.9c0.8,0,1.5,0.2,2.1,0.5c0.6,0.3,1.1,0.8,1.5,1.3c0.3,0.6,0.5,1.2,0.5,1.8
				c0,0.6-0.2,1.2-0.5,1.6c-0.3,0.5-0.8,0.9-1.4,1.2c0.8,0.2,1.5,0.6,1.9,1.2c0.5,0.6,0.7,1.4,0.7,2.3c0,1.2-0.4,2.3-1.3,3.1
				c-0.9,0.8-2,1.3-3.4,1.3c-1.2,0-2.2-0.4-3.1-1.1C492.9,380.3,492.5,379.4,492.4,378.2z"/>
			<path d="M512.2,380.2v1.6H503c0-0.4,0.1-0.8,0.2-1.2c0.2-0.6,0.6-1.2,1.1-1.9c0.5-0.6,1.3-1.3,2.2-2.1c1.5-1.2,2.5-2.2,3.1-3
				c0.5-0.7,0.8-1.4,0.8-2.1c0-0.7-0.2-1.3-0.7-1.7c-0.5-0.5-1.1-0.7-1.9-0.7c-0.8,0-1.5,0.2-2,0.7s-0.7,1.2-0.8,2.1l-1.8-0.2
				c0.1-1.3,0.6-2.3,1.4-3c0.8-0.7,1.8-1,3.2-1c1.3,0,2.4,0.4,3.2,1.1c0.8,0.7,1.2,1.7,1.2,2.8c0,0.6-0.1,1.1-0.3,1.6
				c-0.2,0.5-0.6,1.1-1.1,1.7c-0.5,0.6-1.4,1.4-2.6,2.5c-1,0.9-1.7,1.4-2,1.8c-0.3,0.3-0.5,0.6-0.7,0.9H512.2z"/>
		</g>
	</g>
</g>
<g id="Watermark">
	<g>
		<rect x="438.5" y="301.7" class="st0" width="123.1" height="46.3"/>
		<g>
			<rect x="444.9" y="309.6" class="st75" width="62.9" height="30.6"/>
			<rect x="507.7" y="309.6" class="st75" width="47.4" height="30.6"/>
			<g>
				<path class="st76" d="M466.5,315.7l-2.8,18.9H461l-1.6-11l-1.5,11h-2.7l-2.8-18.9h2.5l1.8,14.2l1.8-14.2h2l1.8,14.2l1.8-14.2
					H466.5z"/>
				<path class="st76" d="M467.9,334.6v-18.9h2.5v18.9H467.9z"/>
				<path class="st76" d="M472.8,315.7h5c1.9,0,2.9,1.1,2.9,3.2v4.7c0,1.7-0.5,2.7-1.5,3.1l1.8,7.9h-2.4l-1.7-7.6h-1.5v7.6h-2.5
					V315.7z M475.4,324.8h1.7c0.8,0,1.1-0.5,1.1-1.4v-4.1c0-0.9-0.4-1.4-1.1-1.4h-1.7V324.8z"/>
				<path class="st76" d="M486.8,318v16.6h-2.5V318h-2.4v-2.3h7.4v2.3H486.8z"/>
				<path class="st76" d="M496.3,334.6V326h-3.1v8.6h-2.5v-18.9h2.5v8h3.1v-8h2.5v18.9H496.3z"/>
			</g>
			<g>
				<path class="st76" d="M516.3,315.7h5c1.9,0,2.9,1.1,2.9,3.2v4.7c0,1.7-0.5,2.7-1.5,3.1l1.8,7.9H522l-1.7-7.6h-1.5v7.6h-2.5
					V315.7z M518.8,324.8h1.7c0.8,0,1.1-0.5,1.1-1.4v-4.1c0-0.9-0.4-1.4-1.1-1.4h-1.7V324.8z"/>
				<path class="st76" d="M528.7,334.6h-2.5v-15.7c0-2.2,1-3.2,3-3.2h1.9c2,0,3,1.1,3,3.2v15.7h-2.5v-6.9h-2.9V334.6z M531.6,325.4
					v-6.3c0-0.7-0.4-1.1-1.1-1.1h-0.7c-0.7,0-1.1,0.4-1.1,1.1v6.3H531.6z"/>
				<path class="st76" d="M536.3,334.6v-18.9h2.5v18.9H536.3z"/>
				<path class="st76" d="M547.2,334.6h-6v-18.9h2.5v16.6h3.5V334.6z"/>
			</g>
		</g>
	</g>
</g>
</svg>
