<?xml version="1.0" encoding="utf-8"?>
<!-- Generator: Adobe Illustrator 25.2.3, SVG Export Plug-In . SVG Version: 6.00 Build 0)  -->
<svg version="1.1" xmlns="http://www.w3.org/2000/svg" xmlns:xlink="http://www.w3.org/1999/xlink" x="0px" y="0px"
	 viewBox="0 0 1000 800" style="enable-background:new 0 0 1000 800;" xml:space="preserve">
<style type="text/css">
	.st0{fill:#F0F0F0;}
	.st1{fill:none;stroke:#221E1F;stroke-width:1.0614;}
	.st2{fill:#221E1F;}
	.st3{fill:none;stroke:#221E1F;stroke-width:1.0614;stroke-dasharray:12.8405,6.4722;}
	.st4{fill:none;stroke:#000000;stroke-width:1.404;}
	.st5{fill:none;stroke:#000000;stroke-width:0.975;}
	.st6{fill:none;stroke:#000000;stroke-width:0.975;stroke-dasharray:11.5538,5.7038;}
	.st7{fill:none;stroke:#000000;stroke-width:0.975;stroke-miterlimit:10;}
	.st8{fill:none;stroke:#221E1F;stroke-width:0.8906;}
	.st9{fill:none;stroke:#221E1F;stroke-width:0.8819;}
	.st10{clip-path:url(#SVGID_2_);fill:none;stroke:#221E1F;stroke-width:0.8819;}
	.st11{clip-path:url(#SVGID_4_);fill:none;stroke:#221E1F;stroke-width:0.8819;}
	.st12{fill:#303030;}
	.st13{fill:none;stroke:#303030;stroke-width:0.8906;stroke-miterlimit:10;}
	.st14{clip-path:url(#SVGID_6_);fill:none;stroke:#221E1F;stroke-width:0.8906;}
	.st15{fill:none;stroke:#221E1F;stroke-width:0.8906;stroke-dasharray:23.0235,6.997;}
	.st16{fill:none;stroke:#221E1F;stroke-width:0.8906;stroke-dasharray:19.498,3.4714;}
	.st17{fill:none;stroke:#221E1F;stroke-width:0.8906;stroke-dasharray:21.3897,6.2234;}
	.st18{clip-path:url(#SVGID_8_);fill:none;stroke:#221E1F;stroke-width:0.8025;}
	.st19{fill:none;stroke:#221E1F;stroke-width:0.7299;}
	.st20{clip-path:url(#SVGID_10_);fill:none;stroke:#221E1F;stroke-width:0.8025;}
	.st21{fill:none;stroke:#221E1F;stroke-width:0.7726;}
	.st22{fill:none;stroke:#221E1F;stroke-width:0.8025;}
	.st23{fill:none;stroke:#221E1F;stroke-width:0.8025;stroke-dasharray:21.5886,6.6505;}
	.st24{fill:none;stroke:#303030;stroke-width:0.8025;stroke-miterlimit:10;}
	.st25{fill:none;stroke:#221E1F;stroke-width:0.811;stroke-dasharray:21.8106,6.6911;}
	.st26{fill:none;stroke:#221E1F;stroke-width:0.811;stroke-dasharray:16.7651,1.6456;}
	.st27{fill:none;stroke:#221E1F;stroke-width:0.811;}
	.st28{clip-path:url(#SVGID_12_);fill:#221E1F;}
	.st29{fill:none;stroke:#221E1F;stroke-width:1.2695;}
	.st30{fill:none;stroke:#221E1F;stroke-width:0.8814;}
	.st31{fill:none;stroke:#221E1F;stroke-width:1.4133;}
	.st32{fill:none;stroke:#221E1F;stroke-width:0.9807;}
	.st33{fill:none;stroke:#221E1F;stroke-width:0.9807;stroke-dasharray:13.5825,6.7924;}
	.st34{fill:none;stroke:#221E1F;stroke-width:0.9807;stroke-dasharray:19.5641,12.5429;}
	.st35{fill:none;stroke:#221E1F;stroke-width:1.1332;}
	.st36{fill:none;stroke:#221E1F;stroke-width:1.7102;}
	.st37{fill:none;stroke:#221E1F;stroke-width:1.2031;stroke-linecap:round;stroke-linejoin:round;stroke-miterlimit:10;}
	.st38{fill:none;stroke:#221E1F;stroke-width:1.2031;}
	.st39{fill:none;stroke:#221E1F;stroke-width:1.2031;stroke-miterlimit:10;}
	
		.st40{fill:none;stroke:#221E1F;stroke-width:1.2031;stroke-linecap:round;stroke-linejoin:round;stroke-miterlimit:10;stroke-dasharray:9.1021,1.1746,1.1746,1.1746;stroke-dashoffset:10;}
	
		.st41{fill:none;stroke:#221E1F;stroke-width:1.2031;stroke-linecap:round;stroke-linejoin:round;stroke-miterlimit:10;stroke-dasharray:9.1228,1.1953,1.1953,1.1953;stroke-dashoffset:10;}
	.st42{fill:none;stroke:#221E1F;stroke-width:1.0246;}
	.st43{fill:none;stroke:#221E1F;stroke-width:1.0246;stroke-dasharray:5.7593,5.7593;}
	.st44{fill:none;stroke:#221E1F;stroke-width:1.0582;}
	.st45{fill:none;stroke:#221E1F;stroke-width:1.0246;stroke-dasharray:5.8059,5.8059;}
	.st46{fill:none;stroke:#241F21;stroke-width:0.8839;}
	.st47{fill:#241F21;}
	.st48{fill:none;stroke:#241F21;stroke-width:1.2533;}
	.st49{fill:none;stroke:#241F21;stroke-width:0.7133;stroke-linecap:round;stroke-linejoin:round;stroke-miterlimit:10;}
	.st50{fill:none;stroke:#241F21;stroke-width:0.8839;stroke-miterlimit:10;}
	
		.st51{clip-path:url(#SVGID_14_);fill:none;stroke:#241F21;stroke-width:0.8839;stroke-linecap:round;stroke-linejoin:round;stroke-miterlimit:10;}
	.st52{clip-path:url(#SVGID_14_);fill:none;stroke:#241F21;stroke-width:0.8839;stroke-miterlimit:10;}
	.st53{fill:none;stroke:#241F21;stroke-width:0.8839;stroke-linecap:round;stroke-linejoin:round;stroke-miterlimit:10;}
	.st54{fill:none;stroke:#241F21;stroke-width:0.7642;stroke-linecap:round;stroke-linejoin:round;stroke-miterlimit:10;}
	
		.st55{fill:none;stroke:#241F21;stroke-width:0.7133;stroke-linecap:round;stroke-linejoin:round;stroke-miterlimit:10;stroke-dasharray:9.9652,1.3195,1.3195,1.3195;stroke-dashoffset:11;}
	
		.st56{fill:none;stroke:#241F21;stroke-width:0.7133;stroke-linecap:round;stroke-linejoin:round;stroke-miterlimit:10;stroke-dasharray:9.7079,1.0622,1.0622,1.0622;stroke-dashoffset:10;}
	.st57{fill:none;stroke:#241F21;stroke-width:0.8839;stroke-dasharray:5.5991,5.5991;}
	.st58{fill:none;stroke:#241F21;stroke-width:0.7515;stroke-dasharray:5.6857,5.6857;}
	.st59{fill:none;stroke:#221E1F;stroke-width:1.0101;stroke-miterlimit:10;}
	.st60{fill:none;stroke:#221E1F;stroke-width:1.0012;}
	.st61{fill:none;stroke:#221E1F;stroke-width:0.9081;}
	.st62{fill:none;stroke:#221E1F;stroke-width:1.0385;}
	.st63{fill:none;stroke:#221E1F;stroke-width:0.9081;stroke-dasharray:20.8407,6.1278;}
	.st64{fill:none;stroke:#221E1F;stroke-width:1.406;}
	.st65{fill:none;stroke:#221E1F;stroke-width:0.9906;}
	.st66{fill:none;stroke:#221E1F;stroke-width:0.9887;}
	.st67{fill:none;stroke:#221E1F;stroke-width:0.8443;}
	.st68{fill:none;stroke:#221E1F;stroke-width:0.8443;stroke-dasharray:4.4655,4.4655;}
	.st69{fill:none;stroke:#221E1F;stroke-width:1.7608;}
	.st70{fill:none;stroke:#221E1F;stroke-width:1.0549;}
	.st71{clip-path:url(#SVGID_16_);fill:none;stroke:#221E1F;stroke-width:1.0549;}
	.st72{fill:none;stroke:#221E1F;stroke-width:1.0549;stroke-dasharray:5.538,5.538;}
	.st73{clip-path:url(#SVGID_18_);}
	.st74{clip-path:url(#SVGID_20_);}
	.st75{fill:#F0F0F0;stroke:#CCCCCC;stroke-miterlimit:10;}
	.st76{fill:#CCCCCC;}
</style>
<g id="Flat">
	<g>
		<g>
			<path class="st0" d="M499.3,606.8c0,0-314,0-348,0c-2.1,0-11.1-1.6-11.4-11.2c-0.2-6-1.6-13.2,0-27c2.6-22.3,24.5-35,41-36.9
				c54-6.1,75.3-9.3,96.8-11.8c63.2-7.4,46.9-67.5,32.3-100.7c-16.7-38-31.6-60.4-31.6-78.5c0-18.1-2.1-103.9-2.7-127.4
				c-0.4-16.8,7.2-49.3,38.3-51.5c40.8-2.9,185.3-0.8,185.3-0.8h1.1c0,0,144.5-2.1,185.3,0.8c31,2.2,38.7,34.7,38.3,51.5
				c-0.5,23.4-2.7,109.3-2.7,127.4c0,18.1-14.8,40.5-31.6,78.5c-14.6,33.2-30.9,93.3,32.3,100.7c21.6,2.5,42.9,5.8,96.8,11.8
				c16.5,1.9,38.4,14.5,41,36.9c1.6,13.8,0.2,21.1,0,27c-0.3,9.6-9.3,11.2-11.4,11.2c-34.1,0-348,0-348,0H499.3z"/>
			<path class="st1" d="M499.3,606.8c0,0-314,0-348,0c-2.1,0-11.1-1.6-11.4-11.2c-0.2-6-1.6-13.2,0-27c2.6-22.3,24.5-35,41-36.9
				c54-6.1,75.3-9.3,96.8-11.8c63.2-7.4,46.9-67.5,32.3-100.7c-16.7-38-31.6-60.4-31.6-78.5c0-18.1-2.1-103.9-2.7-127.4
				c-0.4-16.8,7.2-49.3,38.3-51.5c40.8-2.9,185.3-0.8,185.3-0.8h1.1c0,0,144.5-2.1,185.3,0.8c31,2.2,38.7,34.7,38.3,51.5
				c-0.5,23.4-2.7,109.3-2.7,127.4c0,18.1-14.8,40.5-31.6,78.5c-14.6,33.2-30.9,93.3,32.3,100.7c21.6,2.5,42.9,5.8,96.8,11.8
				c16.5,1.9,38.4,14.5,41,36.9c1.6,13.8,0.2,21.1,0,27c-0.3,9.6-9.3,11.2-11.4,11.2c-34.1,0-348,0-348,0H499.3z"/>
		</g>
		<path class="st1" d="M962.8,160.4l-949.9,0 M964.9,606.6l-957.4,0 M24,176.8l0,207.7"/>
		<polygon class="st2" points="19.6,179.9 24.2,162.7 28.8,179.9 		"/>
		<polygon class="st2" points="19.6,381.3 24.2,398.6 28.8,381.3 		"/>
		<line class="st1" x1="437.5" y1="176.8" x2="437.5" y2="312.3"/>
		<polygon class="st2" points="433.1,179.9 437.7,162.7 442.3,179.9 		"/>
		<polygon class="st2" points="433.1,309.2 437.7,326.4 442.3,309.2 		"/>
		<polyline class="st1" points="298.5,357.7 326.1,347.4 398.3,347.4 		"/>
		<polygon class="st2" points="303,360.7 285.2,362.4 299.8,352 		"/>
		<polyline class="st1" points="292.3,416.5 256.8,432.4 184.5,432.4 		"/>
		<polygon class="st2" points="287.6,413.8 305.3,411 291.4,422.2 		"/>
		<polyline class="st1" points="304.3,491.6 261,460.7 188.7,460.7 		"/>
		<polygon class="st2" points="304.3,486.1 315.7,499.9 299,493.7 		"/>
		<polyline class="st1" points="165.8,553.6 199.4,581.9 247.2,581.9 		"/>
		<polygon class="st2" points="165.4,559.1 155.1,544.4 171.3,552 		"/>
		<polyline class="st1" points="132.6,611.2 102.8,638.7 55,638.7 		"/>
		<polygon class="st2" points="127.3,610.1 143.1,601.7 133.5,616.9 		"/>
		<polyline class="st1" points="301.4,181.7 351.8,224.6 407.1,224.6 		"/>
		<polygon class="st2" points="300.9,187.1 290.7,172.4 306.9,180.1 		"/>
		<line class="st1" x1="779.3" y1="343.6" x2="779.3" y2="174.4"/>
		<polygon class="st2" points="783.8,340.5 779.2,357.7 774.5,340.5 		"/>
		<polygon class="st2" points="783.8,177.6 779.2,160.3 774.5,177.6 		"/>
		<line class="st1" x1="877.7" y1="421.1" x2="877.7" y2="177.1"/>
		<polygon class="st2" points="882.2,417.9 877.5,435.2 872.9,417.9 		"/>
		<polygon class="st2" points="882.2,180.2 877.5,163 872.9,180.2 		"/>
		<line class="st1" x1="339.1" y1="703.9" x2="662.1" y2="703.9"/>
		<polygon class="st2" points="342.2,708.4 325,703.8 342.2,699.1 		"/>
		<polygon class="st2" points="658.9,708.4 676.2,703.8 658.9,699.1 		"/>
		<line class="st1" x1="292.3" y1="90.5" x2="708.8" y2="90.5"/>
		<polygon class="st2" points="295.4,94.9 278.2,90.3 295.4,85.7 		"/>
		<polygon class="st2" points="705.6,94.9 722.9,90.3 705.6,85.7 		"/>
		<line class="st1" x1="154.4" y1="738.6" x2="847.9" y2="738.6"/>
		<polygon class="st2" points="157.5,743 140.3,738.4 157.5,733.8 		"/>
		<polygon class="st2" points="844.7,743 862,738.4 844.7,733.8 		"/>
		<line class="st1" x1="877.1" y1="592.5" x2="877.1" y2="529.1"/>
		<polygon class="st2" points="881.5,589.4 876.9,606.6 872.3,589.4 		"/>
		<polygon class="st2" points="881.5,532.3 876.9,515 872.3,532.3 		"/>
		<line class="st1" x1="877.1" y1="500.9" x2="877.1" y2="447"/>
		<polygon class="st2" points="881.5,497.7 876.9,515 872.3,497.7 		"/>
		<polygon class="st2" points="881.5,450.2 876.9,432.9 872.3,450.2 		"/>
		<line class="st1" x1="934.3" y1="591.4" x2="934.3" y2="176.4"/>
		<polygon class="st2" points="938.8,588.2 934.2,605.5 929.5,588.2 		"/>
		<polygon class="st2" points="938.8,179.6 934.2,162.3 929.5,179.6 		"/>
		<line class="st1" x1="26.9" y1="591.4" x2="26.9" y2="414.8"/>
		<polygon class="st2" points="31.3,588.3 26.7,605.6 22,588.3 		"/>
		<polygon class="st2" points="31.3,418 26.7,400.7 22,418 		"/>
		<line class="st1" x1="70.1" y1="591.4" x2="70.1" y2="506.7"/>
		<polygon class="st2" points="74.6,588.3 69.9,605.6 65.3,588.3 		"/>
		<polygon class="st2" points="74.6,509.8 69.9,492.6 65.3,509.8 		"/>
		<line class="st1" x1="106.2" y1="591.4" x2="106.2" y2="551.2"/>
		<polygon class="st2" points="110.7,588.3 106,605.6 101.4,588.3 		"/>
		<polygon class="st2" points="110.7,554.4 106,537.1 101.4,554.4 		"/>
		<line class="st1" x1="185.9" y1="486.5" x2="266.3" y2="475.8"/>
		<polygon class="st2" points="189.6,490.5 171.8,488.1 188.3,481.3 		"/>
		<polygon class="st2" points="263.8,480.6 280.3,473.8 262.6,471.4 		"/>
		<path class="st1" d="M138.2,741.6l0-204.9l361.9-45.6L862,537.8l0,203.9 M676.2,514.6l215.4,0 M94,536.4l44.1,0 M399.4,328.3h58.4
			 M51.1,491.8l449,0 M280.1,469L286,519 M172,483.5l5.9,50.1 M676.2,435l215.4,0 M721.8,358.1h62.6"/>
		<line class="st3" x1="51.6" y1="400" x2="837" y2="400"/>
		<path class="st1" d="M676.3,711.3l0-276.5l47.8-76.4l0-274.9 M324.2,711.3l0-276.5l-47.8-76.4l0-274.9 M500,144.4l0,447.6"/>
		<polygon class="st2" points="495.6,588.8 500.2,606.1 504.8,588.8 		"/>
		<line class="st1" x1="500" y1="665.5" x2="500" y2="622.3"/>
		<polygon class="st2" points="504.4,625.5 499.8,608.2 495.2,625.5 		"/>
		<g>
			<path class="st2" d="M516.8,144.4V138l-5.9-8.8h2.4l3,4.6c0.6,0.9,1.1,1.7,1.5,2.6c0.5-0.8,1-1.7,1.7-2.7l2.9-4.5h2.3l-6.1,8.8
				v6.4H516.8z"/>
		</g>
		<g>
			<path class="st2" d="M516.8,655.7v-6.4l-5.9-8.8h2.4l3,4.6c0.6,0.9,1.1,1.7,1.5,2.6c0.5-0.8,1-1.7,1.7-2.7l2.9-4.5h2.3l-6.1,8.8
				v6.4H516.8z"/>
		</g>
		<g>
			<path class="st2" d="M353.5,216.2V201h6.7c1.4,0,2.4,0.1,3.1,0.4s1.3,0.8,1.7,1.4c0.4,0.7,0.6,1.5,0.6,2.3c0,1.1-0.3,2-1,2.7
				c-0.7,0.7-1.8,1.2-3.2,1.4c0.5,0.3,0.9,0.5,1.2,0.8c0.6,0.5,1.1,1.2,1.7,2l2.6,4.1h-2.5l-2-3.2c-0.6-0.9-1.1-1.6-1.5-2.1
				c-0.4-0.5-0.7-0.8-1-1c-0.3-0.2-0.6-0.3-0.9-0.4c-0.2,0-0.6-0.1-1.1-0.1h-2.3v6.7H353.5z M355.5,207.7h4.3c0.9,0,1.6-0.1,2.2-0.3
				c0.5-0.2,0.9-0.5,1.2-0.9c0.3-0.4,0.4-0.9,0.4-1.4c0-0.7-0.3-1.3-0.8-1.8s-1.3-0.7-2.5-0.7h-4.8V207.7z"/>
			<path class="st2" d="M381,216.2h-1.9v-11.9c-0.4,0.4-1,0.9-1.8,1.3c-0.7,0.4-1.4,0.8-2,1v-1.8c1-0.5,2-1.1,2.7-1.8
				c0.8-0.7,1.3-1.4,1.7-2h1.2V216.2z"/>
			<path class="st2" d="M385.7,208.7c0-1.8,0.2-3.2,0.6-4.3s0.9-1.9,1.6-2.5s1.6-0.9,2.8-0.9c0.8,0,1.5,0.2,2.1,0.5s1.1,0.8,1.5,1.4
				c0.4,0.6,0.7,1.4,0.9,2.3c0.2,0.9,0.3,2.1,0.3,3.6c0,1.8-0.2,3.2-0.5,4.3s-0.9,1.9-1.6,2.5s-1.6,0.9-2.8,0.9
				c-1.5,0-2.6-0.5-3.5-1.6C386.2,213.6,385.7,211.6,385.7,208.7z M387.7,208.7c0,2.5,0.3,4.2,0.9,5c0.6,0.8,1.3,1.2,2.2,1.2
				c0.9,0,1.6-0.4,2.2-1.2c0.6-0.8,0.9-2.5,0.9-5c0-2.5-0.3-4.2-0.9-5c-0.6-0.8-1.3-1.2-2.2-1.2c-0.9,0-1.5,0.4-2.1,1.1
				C388,204.5,387.7,206.2,387.7,208.7z"/>
		</g>
		<g>
			<path class="st2" d="M490.2,82h-1.9V70.1c-0.4,0.4-1,0.9-1.8,1.3c-0.7,0.4-1.4,0.8-2,1v-1.8c1-0.5,2-1.1,2.7-1.8
				c0.8-0.7,1.3-1.4,1.7-2h1.2V82z"/>
			<path class="st2" d="M495,74.5c0-1.8,0.2-3.2,0.6-4.3s0.9-1.9,1.6-2.5s1.6-0.9,2.8-0.9c0.8,0,1.5,0.2,2.1,0.5s1.1,0.8,1.5,1.4
				c0.4,0.6,0.7,1.4,0.9,2.3c0.2,0.9,0.3,2.1,0.3,3.6c0,1.8-0.2,3.2-0.5,4.3s-0.9,1.9-1.6,2.5s-1.6,0.9-2.8,0.9
				c-1.5,0-2.6-0.5-3.5-1.6C495.5,79.4,495,77.3,495,74.5z M496.9,74.5c0,2.5,0.3,4.2,0.9,5c0.6,0.8,1.3,1.2,2.2,1.2
				c0.9,0,1.6-0.4,2.2-1.2c0.6-0.8,0.9-2.5,0.9-5c0-2.5-0.3-4.2-0.9-5c-0.6-0.8-1.3-1.2-2.2-1.2c-0.9,0-1.5,0.4-2.1,1.1
				C497.3,70.3,496.9,72,496.9,74.5z"/>
			<path class="st2" d="M516.6,80.2V82h-10c0-0.4,0.1-0.9,0.2-1.3c0.3-0.7,0.7-1.4,1.2-2c0.6-0.7,1.4-1.4,2.4-2.3
				c1.7-1.4,2.8-2.4,3.3-3.2c0.6-0.8,0.9-1.5,0.9-2.2c0-0.7-0.3-1.4-0.8-1.9s-1.2-0.8-2.1-0.8c-0.9,0-1.6,0.3-2.2,0.8
				c-0.5,0.5-0.8,1.3-0.8,2.2l-1.9-0.2c0.1-1.4,0.6-2.5,1.5-3.3c0.9-0.7,2-1.1,3.5-1.1c1.5,0,2.6,0.4,3.5,1.2s1.3,1.8,1.3,3
				c0,0.6-0.1,1.2-0.4,1.8s-0.7,1.2-1.2,1.9s-1.5,1.5-2.9,2.7c-1.1,0.9-1.8,1.6-2.2,1.9c-0.3,0.3-0.6,0.7-0.8,1H516.6z"/>
		</g>
		<g>
			<path class="st2" d="M484.7,729.8h-1.9v-11.9c-0.4,0.4-1,0.9-1.8,1.3c-0.7,0.4-1.4,0.8-2,1v-1.8c1-0.5,2-1.1,2.7-1.8
				c0.8-0.7,1.3-1.4,1.7-2h1.2V729.8z"/>
			<path class="st2" d="M499.1,718.4l-1.9,0.1c-0.2-0.7-0.4-1.3-0.7-1.6c-0.5-0.5-1.1-0.8-1.9-0.8c-0.6,0-1.1,0.2-1.6,0.5
				c-0.6,0.4-1.1,1.1-1.4,1.9c-0.3,0.8-0.5,2-0.5,3.5c0.4-0.7,1-1.2,1.6-1.5c0.6-0.3,1.3-0.5,2-0.5c1.2,0,2.3,0.5,3.2,1.4
				c0.9,0.9,1.3,2.1,1.3,3.5c0,1-0.2,1.8-0.6,2.7c-0.4,0.8-1,1.4-1.7,1.9c-0.7,0.4-1.5,0.7-2.4,0.7c-1.6,0-2.8-0.6-3.8-1.7
				c-1-1.1-1.5-3-1.5-5.7c0-2.9,0.5-5.1,1.6-6.4c0.9-1.2,2.2-1.7,3.8-1.7c1.2,0,2.2,0.3,2.9,1C498.5,716.2,499,717.2,499.1,718.4z
				 M491.5,724.9c0,0.6,0.1,1.3,0.4,1.8c0.3,0.6,0.7,1,1.1,1.3s1,0.5,1.5,0.5c0.8,0,1.5-0.3,2-1s0.9-1.5,0.9-2.6
				c0-1.1-0.3-1.9-0.8-2.5c-0.6-0.6-1.3-0.9-2.1-0.9c-0.8,0-1.6,0.3-2.1,0.9C491.8,723.1,491.5,723.9,491.5,724.9z"/>
			<path class="st2" d="M501.3,725.8l2-0.2c0.1,1,0.5,1.7,1,2.2s1.2,0.7,1.9,0.7c0.9,0,1.7-0.3,2.3-1c0.6-0.7,0.9-1.6,0.9-2.7
				c0-1.1-0.3-1.9-0.9-2.5c-0.6-0.6-1.4-0.9-2.3-0.9c-0.6,0-1.1,0.1-1.6,0.4c-0.5,0.3-0.9,0.6-1.1,1.1l-1.8-0.2l1.5-7.8h7.6v1.8
				h-6.1l-0.8,4.1c0.9-0.6,1.9-1,2.9-1c1.3,0,2.4,0.5,3.4,1.4s1.4,2.1,1.4,3.5c0,1.4-0.4,2.6-1.2,3.6c-1,1.2-2.3,1.8-4,1.8
				c-1.4,0-2.5-0.4-3.4-1.2C501.9,728.2,501.4,727.1,501.3,725.8z"/>
		</g>
		<g>
			<path class="st2" d="M477.6,687.6c-0.8-0.3-1.3-0.7-1.7-1.2c-0.4-0.5-0.6-1.2-0.6-1.9c0-1.1,0.4-2,1.2-2.8
				c0.8-0.8,1.9-1.1,3.2-1.1c1.3,0,2.4,0.4,3.2,1.2c0.8,0.8,1.2,1.7,1.2,2.8c0,0.7-0.2,1.3-0.6,1.8c-0.4,0.5-0.9,0.9-1.7,1.2
				c0.9,0.3,1.6,0.8,2.1,1.5c0.5,0.7,0.7,1.5,0.7,2.4c0,1.3-0.5,2.4-1.4,3.3c-0.9,0.9-2.1,1.3-3.6,1.3s-2.7-0.4-3.6-1.3
				c-0.9-0.9-1.4-2-1.4-3.3c0-1,0.3-1.8,0.8-2.5C475.9,688.3,476.7,687.9,477.6,687.6z M476.6,691.5c0,0.5,0.1,1,0.4,1.5
				c0.3,0.5,0.6,0.9,1.1,1.2c0.5,0.3,1,0.4,1.6,0.4c0.9,0,1.6-0.3,2.2-0.9c0.6-0.6,0.9-1.3,0.9-2.2c0-0.9-0.3-1.6-0.9-2.2
				c-0.6-0.6-1.3-0.9-2.2-0.9c-0.9,0-1.6,0.3-2.2,0.9C476.9,689.9,476.6,690.6,476.6,691.5z M477.2,684.5c0,0.7,0.2,1.3,0.7,1.8
				c0.5,0.5,1.1,0.7,1.8,0.7c0.7,0,1.3-0.2,1.8-0.7c0.5-0.5,0.7-1,0.7-1.7c0-0.7-0.2-1.3-0.7-1.7c-0.5-0.5-1.1-0.7-1.8-0.7
				c-0.7,0-1.3,0.2-1.8,0.7S477.2,683.8,477.2,684.5z"/>
			<path class="st2" d="M486.5,688.4c0-1.8,0.2-3.2,0.6-4.3c0.4-1.1,0.9-1.9,1.6-2.5c0.7-0.6,1.6-0.9,2.8-0.9c0.8,0,1.5,0.2,2.1,0.5
				s1.1,0.8,1.5,1.4c0.4,0.6,0.7,1.4,0.9,2.3s0.3,2.1,0.3,3.6c0,1.8-0.2,3.2-0.5,4.3c-0.4,1.1-0.9,1.9-1.6,2.5s-1.6,0.9-2.8,0.9
				c-1.5,0-2.6-0.5-3.5-1.6C487,693.3,486.5,691.2,486.5,688.4z M488.4,688.4c0,2.5,0.3,4.2,0.9,5c0.6,0.8,1.3,1.2,2.2,1.2
				c0.9,0,1.6-0.4,2.2-1.2c0.6-0.8,0.9-2.5,0.9-5c0-2.5-0.3-4.2-0.9-5c-0.6-0.8-1.3-1.2-2.2-1.2c-0.9,0-1.5,0.4-2.1,1.1
				C488.8,684.2,488.4,685.9,488.4,688.4z"/>
			<path class="st2" d="M499.4,695.9v-2.1h2.1v2.1H499.4z"/>
			<path class="st2" d="M504.2,691.9l1.9-0.2c0.2,1.1,0.6,1.8,1.1,2.3c0.5,0.5,1.1,0.7,1.9,0.7c0.9,0,1.6-0.3,2.2-0.9
				c0.6-0.6,0.9-1.4,0.9-2.3c0-0.9-0.3-1.6-0.8-2.1c-0.6-0.6-1.3-0.8-2.1-0.8c-0.4,0-0.8,0.1-1.3,0.2l0.2-1.6c0.1,0,0.2,0,0.3,0
				c0.8,0,1.5-0.2,2.1-0.6c0.6-0.4,1-1.1,1-1.9c0-0.7-0.2-1.3-0.7-1.7s-1.1-0.7-1.8-0.7c-0.7,0-1.3,0.2-1.8,0.7s-0.8,1.1-0.9,2.1
				l-1.9-0.3c0.2-1.3,0.7-2.2,1.6-2.9c0.8-0.7,1.8-1,3-1c0.8,0,1.6,0.2,2.3,0.5c0.7,0.4,1.2,0.8,1.6,1.5c0.4,0.6,0.6,1.3,0.6,2
				c0,0.7-0.2,1.3-0.5,1.8c-0.4,0.5-0.9,1-1.6,1.3c0.9,0.2,1.6,0.6,2.1,1.3s0.7,1.5,0.7,2.5c0,1.3-0.5,2.5-1.5,3.4
				c-1,0.9-2.2,1.4-3.7,1.4c-1.3,0-2.4-0.4-3.3-1.2C504.9,694.1,504.3,693.1,504.2,691.9z"/>
		</g>
		<g>
			<path class="st2" d="M516,498.7c1.8,0,3.2,0.2,4.3,0.6c1.1,0.4,1.9,0.9,2.5,1.6c0.6,0.7,0.9,1.6,0.9,2.8c0,0.8-0.2,1.5-0.5,2.1
				c-0.3,0.6-0.8,1.1-1.4,1.5c-0.6,0.4-1.4,0.7-2.3,0.9c-0.9,0.2-2.1,0.3-3.6,0.3c-1.8,0-3.2-0.2-4.3-0.5s-1.9-0.9-2.5-1.6
				s-0.9-1.6-0.9-2.8c0-1.5,0.5-2.6,1.6-3.5C511.1,499.2,513.1,498.7,516,498.7z M516,500.6c-2.5,0-4.2,0.3-5,0.9
				c-0.8,0.6-1.2,1.3-1.2,2.2c0,0.9,0.4,1.6,1.2,2.2c0.8,0.6,2.5,0.9,5,0.9c2.5,0,4.2-0.3,5-0.9c0.8-0.6,1.2-1.3,1.2-2.2
				c0-0.9-0.4-1.5-1.1-2.1C520.2,501,518.5,500.6,516,500.6z"/>
			<path class="st2" d="M508.5,511.6h2.1v2.1h-2.1V511.6z"/>
			<path class="st2" d="M510.3,526.2h-1.8v-10c0.4,0,0.9,0.1,1.3,0.2c0.7,0.3,1.4,0.7,2,1.2c0.7,0.6,1.4,1.4,2.3,2.4
				c1.4,1.7,2.4,2.8,3.2,3.3c0.8,0.6,1.5,0.9,2.2,0.9c0.7,0,1.4-0.3,1.9-0.8c0.5-0.5,0.8-1.2,0.8-2.1c0-0.9-0.3-1.6-0.8-2.2
				c-0.5-0.5-1.3-0.8-2.2-0.8l0.2-1.9c1.4,0.1,2.5,0.6,3.3,1.5c0.7,0.9,1.1,2,1.1,3.5c0,1.5-0.4,2.6-1.2,3.5c-0.8,0.8-1.8,1.3-3,1.3
				c-0.6,0-1.2-0.1-1.8-0.4c-0.6-0.2-1.2-0.7-1.9-1.2s-1.5-1.5-2.7-2.9c-0.9-1.1-1.6-1.8-1.9-2.2s-0.7-0.6-1-0.8V526.2z"/>
			<path class="st2" d="M512.5,528.2l0.2,2c-1,0.1-1.7,0.5-2.2,1c-0.5,0.5-0.7,1.2-0.7,1.9c0,0.9,0.3,1.7,1,2.3
				c0.7,0.6,1.6,0.9,2.7,0.9c1.1,0,1.9-0.3,2.5-0.9s0.9-1.4,0.9-2.3c0-0.6-0.1-1.1-0.4-1.6c-0.3-0.5-0.6-0.9-1.1-1.1l0.2-1.8
				l7.8,1.5v7.6h-1.8v-6.1l-4.1-0.8c0.6,0.9,1,1.9,1,2.9c0,1.3-0.5,2.4-1.4,3.4c-0.9,0.9-2.1,1.4-3.5,1.4c-1.4,0-2.6-0.4-3.6-1.2
				c-1.2-1-1.8-2.3-1.8-4c0-1.4,0.4-2.5,1.2-3.4C510.2,528.8,511.2,528.3,512.5,528.2z"/>
			<path class="st2" d="M508.5,546.6h15.2v3l-10.8,3.6c-1,0.3-1.8,0.6-2.2,0.7c0.6,0.2,1.4,0.4,2.4,0.8l10.6,3.6v2.7h-15.2v-1.9
				h12.7l-12.7-4.4V553l12.9-4.4h-12.9V546.6z"/>
			<path class="st2" d="M508.5,562.7l15.2,5.8v2.2l-15.2,6.2v-2.3l4.6-1.8v-6.4l-4.6-1.7V562.7z M514.7,567.1v5.2l4.2-1.6
				c1.3-0.5,2.3-0.8,3.2-1.1c-1-0.2-1.9-0.5-2.9-0.8L514.7,567.1z"/>
		</g>
		<g>
			<path class="st2" d="M508.5,576.9l7.9,5.9l7.3-5.2v2.4l-3.9,2.8c-0.8,0.6-1.4,1-1.9,1.2c0.6,0.3,1.1,0.7,1.7,1.2l4,3.1v2.2
				l-7.2-5.3l-8,5.8v-2.5l5.4-3.8c0.3-0.2,0.6-0.4,1-0.7c-0.6-0.3-0.9-0.6-1.1-0.7l-5.3-3.8V576.9z"/>
		</g>
		<g>
			<path class="st2" d="M787.6,253.9h3.6v-6.6h1.7l9.8,6.9v1.5H793v2.1h-1.7v-2.1h-3.6V253.9z M793,253.9h6.9l-6.9-4.8V253.9z"/>
			<path class="st2" d="M791.6,259.7l0.2,2c-1,0.1-1.7,0.5-2.2,1c-0.5,0.5-0.7,1.2-0.7,1.9c0,0.9,0.3,1.7,1,2.3
				c0.7,0.6,1.6,0.9,2.7,0.9c1.1,0,1.9-0.3,2.5-0.9s0.9-1.4,0.9-2.3c0-0.6-0.1-1.1-0.4-1.6c-0.3-0.5-0.6-0.9-1.1-1.1l0.2-1.8
				l7.8,1.5v7.6h-1.8V263l-4.1-0.8c0.6,0.9,1,1.9,1,2.9c0,1.3-0.5,2.4-1.4,3.4c-0.9,0.9-2.1,1.4-3.5,1.4c-1.4,0-2.6-0.4-3.6-1.2
				c-1.2-1-1.8-2.3-1.8-4c0-1.4,0.4-2.5,1.2-3.4C789.3,260.4,790.3,259.9,791.6,259.7z"/>
			<path class="st2" d="M787.6,272.6h2.1v2.1h-2.1V272.6z"/>
		</g>
		<g>
			<path class="st2" d="M787.6,284.4v-1.9h11.9c-0.4-0.4-0.9-1-1.3-1.8s-0.7-1.4-1-2h1.8c0.5,1,1.1,2,1.8,2.7c0.7,0.8,1.4,1.3,2,1.7
				v1.2H787.6z"/>
		</g>
		<g>
			<path class="st2" d="M898.1,302.2l-0.1-1.9c0.7-0.2,1.3-0.4,1.6-0.7c0.5-0.5,0.8-1.1,0.8-1.9c0-0.6-0.2-1.1-0.5-1.6
				c-0.4-0.6-1.1-1.1-1.9-1.4c-0.8-0.3-2-0.5-3.5-0.5c0.7,0.4,1.2,1,1.5,1.6c0.3,0.6,0.5,1.3,0.5,2c0,1.2-0.5,2.3-1.4,3.2
				s-2.1,1.3-3.6,1.3c-1,0-1.8-0.2-2.7-0.6c-0.8-0.4-1.4-1-1.9-1.7s-0.7-1.5-0.7-2.4c0-1.6,0.6-2.8,1.7-3.8c1.1-1,3-1.5,5.7-1.5
				c2.9,0,5.1,0.5,6.4,1.6c1.2,0.9,1.7,2.2,1.7,3.8c0,1.2-0.3,2.2-1,2.9S899.2,302,898.1,302.2z M891.5,294.6
				c-0.6,0-1.3,0.1-1.8,0.4c-0.6,0.3-1,0.7-1.3,1.1c-0.3,0.5-0.5,1-0.5,1.5c0,0.8,0.3,1.5,1,2c0.6,0.6,1.5,0.9,2.6,0.9
				c1.1,0,1.9-0.3,2.5-0.8c0.6-0.6,0.9-1.3,0.9-2.1c0-0.8-0.3-1.6-0.9-2.1S892.5,294.6,891.5,294.6z"/>
			<path class="st2" d="M888.4,314.1h-1.8v-10c0.4,0,0.9,0.1,1.3,0.2c0.7,0.3,1.4,0.7,2,1.2c0.7,0.6,1.4,1.4,2.3,2.4
				c1.4,1.7,2.4,2.8,3.2,3.3c0.8,0.6,1.5,0.9,2.2,0.9c0.7,0,1.4-0.3,1.9-0.8c0.5-0.5,0.8-1.2,0.8-2.1c0-0.9-0.3-1.6-0.8-2.2
				c-0.5-0.5-1.3-0.8-2.2-0.8l0.2-1.9c1.4,0.1,2.5,0.6,3.3,1.5s1.1,2,1.1,3.5c0,1.5-0.4,2.6-1.2,3.5c-0.8,0.9-1.8,1.3-3,1.3
				c-0.6,0-1.2-0.1-1.8-0.4c-0.6-0.2-1.2-0.7-1.9-1.2s-1.5-1.5-2.7-2.9c-0.9-1.1-1.6-1.8-1.9-2.2s-0.7-0.6-1-0.8V314.1z"/>
			<path class="st2" d="M886.6,317.2h2.1v2.1h-2.1V317.2z"/>
			<path class="st2" d="M898.1,331.7l-0.1-1.9c0.7-0.2,1.3-0.4,1.6-0.7c0.5-0.5,0.8-1.1,0.8-1.9c0-0.6-0.2-1.1-0.5-1.6
				c-0.4-0.6-1.1-1.1-1.9-1.4c-0.8-0.3-2-0.5-3.5-0.5c0.7,0.4,1.2,1,1.5,1.6c0.3,0.6,0.5,1.3,0.5,2c0,1.2-0.5,2.3-1.4,3.2
				s-2.1,1.3-3.6,1.3c-1,0-1.8-0.2-2.7-0.6c-0.8-0.4-1.4-1-1.9-1.7s-0.7-1.5-0.7-2.4c0-1.6,0.6-2.8,1.7-3.8c1.1-1,3-1.5,5.7-1.5
				c2.9,0,5.1,0.5,6.4,1.6c1.2,0.9,1.7,2.2,1.7,3.8c0,1.2-0.3,2.2-1,2.9S899.2,331.5,898.1,331.7z M891.5,324.1
				c-0.6,0-1.3,0.1-1.8,0.4c-0.6,0.3-1,0.7-1.3,1.1c-0.3,0.5-0.5,1-0.5,1.5c0,0.8,0.3,1.5,1,2c0.6,0.6,1.5,0.9,2.6,0.9
				c1.1,0,1.9-0.3,2.5-0.8c0.6-0.6,0.9-1.3,0.9-2.1c0-0.8-0.3-1.6-0.9-2.1S892.5,324.1,891.5,324.1z"/>
		</g>
		<g>
			<path class="st2" d="M886.6,463.2v-1.9h11.9c-0.4-0.4-0.9-1-1.3-1.8c-0.4-0.7-0.7-1.4-1-2h1.8c0.5,1,1.1,2,1.8,2.7
				c0.7,0.8,1.4,1.3,2,1.7v1.2H886.6z"/>
			<path class="st2" d="M894.8,470.8c0.3-0.8,0.7-1.3,1.2-1.7c0.5-0.4,1.2-0.6,1.9-0.6c1.1,0,2,0.4,2.8,1.2c0.8,0.8,1.1,1.9,1.1,3.2
				c0,1.3-0.4,2.4-1.2,3.2c-0.8,0.8-1.7,1.2-2.8,1.2c-0.7,0-1.3-0.2-1.8-0.6c-0.5-0.4-0.9-0.9-1.2-1.7c-0.3,0.9-0.8,1.6-1.5,2.1
				c-0.7,0.5-1.5,0.7-2.4,0.7c-1.3,0-2.4-0.5-3.3-1.4c-0.9-0.9-1.3-2.1-1.3-3.6c0-1.5,0.4-2.7,1.3-3.6c0.9-0.9,2-1.4,3.3-1.4
				c1,0,1.8,0.2,2.5,0.8C894.1,469.2,894.6,469.9,894.8,470.8z M891,469.8c-0.5,0-1,0.1-1.5,0.4c-0.5,0.3-0.9,0.6-1.2,1.1
				c-0.3,0.5-0.4,1-0.4,1.6c0,0.9,0.3,1.6,0.9,2.2c0.6,0.6,1.3,0.9,2.2,0.9c0.9,0,1.6-0.3,2.2-0.9s0.9-1.3,0.9-2.2
				c0-0.9-0.3-1.6-0.9-2.2C892.6,470.1,891.8,469.8,891,469.8z M898,470.4c-0.7,0-1.3,0.2-1.8,0.7s-0.7,1.1-0.7,1.8
				c0,0.7,0.2,1.3,0.7,1.8c0.5,0.5,1,0.7,1.7,0.7c0.7,0,1.3-0.2,1.7-0.7c0.5-0.5,0.7-1.1,0.7-1.8c0-0.7-0.2-1.3-0.7-1.8
				S898.6,470.4,898,470.4z"/>
			<path class="st2" d="M886.6,480.8h2.1v2.1h-2.1V480.8z"/>
		</g>
		<g>
			<path class="st2" d="M886.6,492.6v-1.9h11.9c-0.4-0.4-0.9-1-1.3-1.8c-0.4-0.7-0.7-1.4-1-2h1.8c0.5,1,1.1,2,1.8,2.7
				c0.7,0.8,1.4,1.3,2,1.7v1.2H886.6z"/>
		</g>
		<g>
			<path class="st2" d="M941.8,365.3v-1.9h11.9c-0.4-0.4-0.9-1-1.3-1.8s-0.7-1.4-1-2h1.8c0.5,1,1.1,2,1.8,2.7c0.7,0.8,1.4,1.3,2,1.7
				v1.2H941.8z"/>
			<path class="st2" d="M949.3,370.1c1.8,0,3.2,0.2,4.3,0.6s1.9,0.9,2.5,1.6s0.9,1.6,0.9,2.8c0,0.8-0.2,1.5-0.5,2.1
				c-0.3,0.6-0.8,1.1-1.4,1.5c-0.6,0.4-1.4,0.7-2.3,0.9s-2.1,0.3-3.6,0.3c-1.8,0-3.2-0.2-4.3-0.5c-1.1-0.4-1.9-0.9-2.5-1.6
				s-0.9-1.6-0.9-2.8c0-1.5,0.5-2.6,1.6-3.5C944.4,370.6,946.4,370.1,949.3,370.1z M949.3,372c-2.5,0-4.2,0.3-5,0.9
				s-1.2,1.3-1.2,2.2c0,0.9,0.4,1.6,1.2,2.2c0.8,0.6,2.5,0.9,5,0.9c2.5,0,4.2-0.3,5-0.9c0.8-0.6,1.2-1.3,1.2-2.2
				c0-0.9-0.4-1.5-1.1-2.1C953.5,372.4,951.8,372,949.3,372z"/>
			<path class="st2" d="M943.6,391.7h-1.8v-10c0.4,0,0.9,0.1,1.3,0.2c0.7,0.3,1.4,0.7,2,1.2c0.7,0.6,1.4,1.4,2.3,2.4
				c1.4,1.7,2.4,2.8,3.2,3.3c0.8,0.6,1.5,0.9,2.2,0.9c0.7,0,1.4-0.3,1.9-0.8c0.5-0.5,0.8-1.2,0.8-2.1c0-0.9-0.3-1.6-0.8-2.2
				c-0.5-0.5-1.3-0.8-2.2-0.8l0.2-1.9c1.4,0.1,2.5,0.6,3.3,1.5s1.1,2,1.1,3.5c0,1.5-0.4,2.6-1.2,3.5c-0.8,0.9-1.8,1.3-3,1.3
				c-0.6,0-1.2-0.1-1.8-0.4c-0.6-0.2-1.2-0.7-1.9-1.2s-1.5-1.5-2.7-2.9c-0.9-1.1-1.6-1.8-1.9-2.2s-0.7-0.6-1-0.8V391.7z"/>
		</g>
		<g>
			<path class="st2" d="M888.4,551.8h-1.8v-10c0.4,0,0.9,0.1,1.3,0.2c0.7,0.3,1.4,0.7,2,1.2c0.7,0.6,1.4,1.4,2.3,2.4
				c1.4,1.7,2.4,2.8,3.2,3.3c0.8,0.6,1.5,0.9,2.2,0.9c0.7,0,1.4-0.3,1.9-0.8c0.5-0.5,0.8-1.2,0.8-2.1c0-0.9-0.3-1.6-0.8-2.2
				c-0.5-0.5-1.3-0.8-2.2-0.8l0.2-1.9c1.4,0.1,2.5,0.6,3.3,1.5c0.7,0.9,1.1,2,1.1,3.5c0,1.5-0.4,2.6-1.2,3.5c-0.8,0.8-1.8,1.3-3,1.3
				c-0.6,0-1.2-0.1-1.8-0.4c-0.6-0.2-1.2-0.7-1.9-1.2s-1.5-1.5-2.7-2.9c-0.9-1.1-1.6-1.8-1.9-2.2s-0.7-0.6-1-0.8V551.8z"/>
			<path class="st2" d="M886.6,560.8V559h11.9c-0.4-0.4-0.9-1-1.3-1.8c-0.4-0.7-0.7-1.4-1-2h1.8c0.5,1,1.1,2,1.8,2.7
				c0.7,0.8,1.4,1.3,2,1.7v1.2H886.6z"/>
			<path class="st2" d="M886.6,566.7h2.1v2.1h-2.1V566.7z"/>
		</g>
		<g>
			<path class="st2" d="M890.6,571.5l0.2,1.9c-1.1,0.2-1.8,0.6-2.3,1.1c-0.5,0.5-0.7,1.1-0.7,1.9c0,0.9,0.3,1.6,0.9,2.2
				c0.6,0.6,1.4,0.9,2.3,0.9c0.9,0,1.6-0.3,2.1-0.8c0.6-0.6,0.8-1.3,0.8-2.1c0-0.4-0.1-0.8-0.2-1.3l1.6,0.2c0,0.1,0,0.2,0,0.3
				c0,0.8,0.2,1.5,0.6,2.1s1.1,1,1.9,1c0.7,0,1.3-0.2,1.7-0.7c0.4-0.5,0.7-1.1,0.7-1.8c0-0.7-0.2-1.3-0.7-1.8
				c-0.5-0.5-1.1-0.8-2.1-0.9l0.3-1.9c1.3,0.2,2.2,0.7,2.9,1.6s1,1.8,1,3c0,0.8-0.2,1.6-0.5,2.3c-0.4,0.7-0.8,1.2-1.5,1.6
				c-0.6,0.4-1.3,0.6-2,0.6c-0.7,0-1.3-0.2-1.8-0.5c-0.5-0.4-1-0.9-1.3-1.6c-0.2,0.9-0.6,1.6-1.3,2.1c-0.7,0.5-1.5,0.7-2.5,0.7
				c-1.3,0-2.5-0.5-3.4-1.5c-0.9-1-1.4-2.2-1.4-3.7c0-1.3,0.4-2.4,1.2-3.3S889.3,571.6,890.6,571.5z"/>
		</g>
		<g>
			<path class="st2" d="M208.9,453.1v-15.2h6.7c1.4,0,2.4,0.1,3.1,0.4c0.7,0.3,1.3,0.8,1.7,1.4c0.4,0.7,0.6,1.5,0.6,2.3
				c0,1.1-0.3,2-1,2.7s-1.8,1.2-3.2,1.4c0.5,0.3,0.9,0.5,1.2,0.8c0.6,0.5,1.1,1.2,1.7,2l2.6,4.1h-2.5l-2-3.2
				c-0.6-0.9-1.1-1.6-1.5-2.1c-0.4-0.5-0.7-0.8-1-1s-0.6-0.3-0.9-0.4c-0.2,0-0.6-0.1-1.1-0.1h-2.3v6.7H208.9z M210.9,444.6h4.3
				c0.9,0,1.6-0.1,2.2-0.3c0.5-0.2,0.9-0.5,1.2-0.9c0.3-0.4,0.4-0.9,0.4-1.4c0-0.7-0.3-1.3-0.8-1.8s-1.3-0.7-2.5-0.7h-4.8V444.6z"/>
			<path class="st2" d="M236.3,453.1h-1.9v-11.9c-0.4,0.4-1,0.9-1.8,1.3c-0.7,0.4-1.4,0.8-2,1v-1.8c1-0.5,2-1.1,2.7-1.8
				c0.8-0.7,1.3-1.4,1.7-2h1.2V453.1z"/>
			<path class="st2" d="M241.1,445.6c0-1.8,0.2-3.2,0.6-4.3c0.4-1.1,0.9-1.9,1.6-2.5c0.7-0.6,1.6-0.9,2.8-0.9c0.8,0,1.5,0.2,2.1,0.5
				s1.1,0.8,1.5,1.4c0.4,0.6,0.7,1.4,0.9,2.3s0.3,2.1,0.3,3.6c0,1.8-0.2,3.2-0.5,4.3c-0.4,1.1-0.9,1.9-1.6,2.5s-1.6,0.9-2.8,0.9
				c-1.5,0-2.6-0.5-3.5-1.6C241.6,450.5,241.1,448.4,241.1,445.6z M243,445.6c0,2.5,0.3,4.2,0.9,5c0.6,0.8,1.3,1.2,2.2,1.2
				c0.9,0,1.6-0.4,2.2-1.2c0.6-0.8,0.9-2.5,0.9-5c0-2.5-0.3-4.2-0.9-5c-0.6-0.8-1.3-1.2-2.2-1.2c-0.9,0-1.5,0.4-2.1,1.1
				C243.4,441.4,243,443.1,243,445.6z"/>
		</g>
		<g>
			<path class="st2" d="M342.3,340v-15.2h6.7c1.4,0,2.4,0.1,3.1,0.4s1.3,0.8,1.7,1.4c0.4,0.7,0.6,1.5,0.6,2.3c0,1.1-0.3,2-1,2.7
				c-0.7,0.7-1.8,1.2-3.2,1.4c0.5,0.3,0.9,0.5,1.2,0.8c0.6,0.5,1.1,1.2,1.7,2l2.6,4.1h-2.5l-2-3.2c-0.6-0.9-1.1-1.6-1.5-2.1
				c-0.4-0.5-0.7-0.8-1-1c-0.3-0.2-0.6-0.3-0.9-0.4c-0.2,0-0.6-0.1-1.1-0.1h-2.3v6.7H342.3z M344.3,331.5h4.3c0.9,0,1.6-0.1,2.2-0.3
				c0.5-0.2,0.9-0.5,1.2-0.9c0.3-0.4,0.4-0.9,0.4-1.4c0-0.7-0.3-1.3-0.8-1.8s-1.3-0.7-2.5-0.7h-4.8V331.5z"/>
			<path class="st2" d="M372.6,338.2v1.8h-10c0-0.4,0.1-0.9,0.2-1.3c0.3-0.7,0.7-1.4,1.2-2c0.6-0.7,1.4-1.4,2.4-2.3
				c1.7-1.4,2.8-2.4,3.3-3.2c0.6-0.8,0.9-1.5,0.9-2.2c0-0.7-0.3-1.4-0.8-1.9s-1.2-0.8-2.1-0.8c-0.9,0-1.6,0.3-2.2,0.8
				c-0.5,0.5-0.8,1.3-0.8,2.2l-1.9-0.2c0.1-1.4,0.6-2.5,1.5-3.3c0.9-0.7,2-1.1,3.5-1.1c1.5,0,2.6,0.4,3.5,1.2s1.3,1.8,1.3,3
				c0,0.6-0.1,1.2-0.4,1.8s-0.7,1.2-1.2,1.9s-1.5,1.5-2.9,2.7c-1.1,0.9-1.8,1.6-2.2,1.9c-0.3,0.3-0.6,0.7-0.8,1H372.6z"/>
			<path class="st2" d="M374.6,336.1l2-0.2c0.1,1,0.5,1.7,1,2.2c0.5,0.5,1.2,0.7,1.9,0.7c0.9,0,1.7-0.3,2.3-1s0.9-1.6,0.9-2.7
				c0-1.1-0.3-1.9-0.9-2.5c-0.6-0.6-1.4-0.9-2.3-0.9c-0.6,0-1.1,0.1-1.6,0.4s-0.9,0.6-1.1,1.1l-1.8-0.2l1.5-7.8h7.6v1.8h-6.1
				l-0.8,4.1c0.9-0.6,1.9-1,2.9-1c1.3,0,2.4,0.5,3.4,1.4s1.4,2.1,1.4,3.5c0,1.4-0.4,2.6-1.2,3.6c-1,1.2-2.3,1.8-4,1.8
				c-1.4,0-2.5-0.4-3.4-1.2C375.2,338.4,374.7,337.3,374.6,336.1z"/>
		</g>
		<g>
			<path class="st2" d="M222.1,477.5l0.3,1.8l-9.9,1.6c-0.1-0.4-0.1-0.9,0-1.3c0.1-0.7,0.4-1.4,0.9-2.2c0.5-0.7,1.1-1.6,2.1-2.7
				c1.4-1.6,2.4-2.8,2.8-3.7c0.4-0.9,0.6-1.7,0.5-2.4c-0.1-0.7-0.5-1.3-1.1-1.7c-0.6-0.4-1.3-0.6-2.2-0.4c-0.9,0.1-1.6,0.5-2,1.1
				s-0.6,1.4-0.5,2.3l-1.9,0.1c-0.1-1.4,0.2-2.6,1-3.5c0.7-0.9,1.8-1.4,3.2-1.7c1.4-0.2,2.6,0,3.6,0.7c1,0.7,1.5,1.6,1.7,2.8
				c0.1,0.6,0.1,1.2-0.1,1.8c-0.2,0.6-0.5,1.3-0.9,2c-0.5,0.7-1.3,1.8-2.4,3.1c-1,1.1-1.6,1.8-1.8,2.2s-0.5,0.8-0.6,1.1L222.1,477.5
				z"/>
			<path class="st2" d="M223.8,475l1.9-0.5c0.3,0.9,0.7,1.6,1.3,2c0.6,0.4,1.3,0.5,2,0.4c0.9-0.1,1.6-0.6,2.1-1.4s0.7-1.7,0.5-2.8
				c-0.2-1.1-0.6-1.8-1.3-2.3c-0.7-0.5-1.5-0.7-2.5-0.5c-0.6,0.1-1.1,0.3-1.5,0.7s-0.8,0.8-1,1.2l-1.8,0l0.2-7.9l7.5-1.2l0.3,1.8
				l-6,0.9l-0.2,4.2c0.8-0.8,1.7-1.2,2.7-1.4c1.3-0.2,2.5,0.1,3.5,0.8c1,0.8,1.7,1.9,1.9,3.3c0.2,1.4,0,2.6-0.6,3.7
				c-0.8,1.4-2,2.2-3.7,2.4c-1.4,0.2-2.5,0-3.5-0.6C224.7,477.2,224.1,476.3,223.8,475z"/>
		</g>
		<g>
			<path class="st2" d="M200.4,424.4v-15.2h6.7c1.4,0,2.4,0.1,3.1,0.4c0.7,0.3,1.3,0.8,1.7,1.4c0.4,0.7,0.6,1.5,0.6,2.3
				c0,1.1-0.3,2-1,2.7s-1.8,1.2-3.2,1.4c0.5,0.3,0.9,0.5,1.2,0.8c0.6,0.5,1.1,1.2,1.7,2l2.6,4.1h-2.5l-2-3.2
				c-0.6-0.9-1.1-1.6-1.5-2.1c-0.4-0.5-0.7-0.8-1-1s-0.6-0.3-0.9-0.4c-0.2,0-0.6-0.1-1.1-0.1h-2.3v6.7H200.4z M202.4,415.9h4.3
				c0.9,0,1.6-0.1,2.2-0.3c0.5-0.2,0.9-0.5,1.2-0.9c0.3-0.4,0.4-0.9,0.4-1.4c0-0.7-0.3-1.3-0.8-1.8s-1.3-0.7-2.5-0.7h-4.8V415.9z"/>
			<path class="st2" d="M215,420.4l2-0.2c0.1,1,0.5,1.7,1,2.2s1.2,0.7,1.9,0.7c0.9,0,1.7-0.3,2.3-1c0.6-0.7,0.9-1.6,0.9-2.7
				c0-1.1-0.3-1.9-0.9-2.5c-0.6-0.6-1.4-0.9-2.3-0.9c-0.6,0-1.1,0.1-1.6,0.4c-0.5,0.3-0.9,0.6-1.1,1.1l-1.8-0.2l1.5-7.8h7.6v1.8
				h-6.1l-0.8,4.1c0.9-0.6,1.9-1,2.9-1c1.3,0,2.4,0.5,3.4,1.4s1.4,2.1,1.4,3.5c0,1.4-0.4,2.6-1.2,3.6c-1,1.2-2.3,1.8-4,1.8
				c-1.4,0-2.5-0.4-3.4-1.2C215.6,422.7,215.1,421.7,215,420.4z"/>
		</g>
		<g>
			<path class="st2" d="M226.7,416.9c0-1.8,0.2-3.2,0.6-4.3c0.4-1.1,0.9-1.9,1.6-2.5c0.7-0.6,1.6-0.9,2.8-0.9c0.8,0,1.5,0.2,2.1,0.5
				s1.1,0.8,1.5,1.4c0.4,0.6,0.7,1.4,0.9,2.3s0.3,2.1,0.3,3.6c0,1.8-0.2,3.2-0.5,4.3c-0.4,1.1-0.9,1.9-1.6,2.5s-1.6,0.9-2.8,0.9
				c-1.5,0-2.6-0.5-3.5-1.6C227.2,421.8,226.7,419.7,226.7,416.9z M228.7,416.9c0,2.5,0.3,4.2,0.9,5c0.6,0.8,1.3,1.2,2.2,1.2
				c0.9,0,1.6-0.4,2.2-1.2c0.6-0.8,0.9-2.5,0.9-5c0-2.5-0.3-4.2-0.9-5c-0.6-0.8-1.3-1.2-2.2-1.2c-0.9,0-1.5,0.4-2.1,1.1
				C229,412.7,228.7,414.4,228.7,416.9z"/>
		</g>
		<g>
			<path class="st2" d="M66.1,631.5v-15.2h6.7c1.4,0,2.4,0.1,3.1,0.4c0.7,0.3,1.3,0.8,1.7,1.4c0.4,0.7,0.6,1.5,0.6,2.3
				c0,1.1-0.3,2-1,2.7s-1.8,1.2-3.2,1.4c0.5,0.3,0.9,0.5,1.2,0.8c0.6,0.5,1.1,1.2,1.7,2l2.6,4.1H77l-2-3.2c-0.6-0.9-1.1-1.6-1.5-2.1
				c-0.4-0.5-0.7-0.8-1-1s-0.6-0.3-0.9-0.4c-0.2,0-0.6-0.1-1.1-0.1h-2.3v6.7H66.1z M68.1,623h4.3c0.9,0,1.6-0.1,2.2-0.3
				c0.5-0.2,0.9-0.5,1.2-0.9c0.3-0.4,0.4-0.9,0.4-1.4c0-0.7-0.3-1.3-0.8-1.8s-1.3-0.7-2.5-0.7h-4.8V623z"/>
			<path class="st2" d="M80.7,627.5l1.9-0.2c0.2,1.1,0.6,1.8,1.1,2.3c0.5,0.5,1.1,0.7,1.9,0.7c0.9,0,1.6-0.3,2.2-0.9
				c0.6-0.6,0.9-1.4,0.9-2.3c0-0.9-0.3-1.6-0.8-2.1c-0.6-0.6-1.3-0.8-2.1-0.8c-0.4,0-0.8,0.1-1.3,0.2l0.2-1.6c0.1,0,0.2,0,0.3,0
				c0.8,0,1.5-0.2,2.1-0.6c0.6-0.4,1-1.1,1-1.9c0-0.7-0.2-1.3-0.7-1.7s-1.1-0.7-1.8-0.7c-0.7,0-1.3,0.2-1.8,0.7s-0.8,1.1-0.9,2.1
				l-1.9-0.3c0.2-1.3,0.7-2.2,1.6-2.9c0.8-0.7,1.8-1,3-1c0.8,0,1.6,0.2,2.3,0.5c0.7,0.4,1.2,0.8,1.6,1.5c0.4,0.6,0.6,1.3,0.6,2
				c0,0.7-0.2,1.3-0.5,1.8c-0.4,0.5-0.9,1-1.6,1.3c0.9,0.2,1.6,0.6,2.1,1.3s0.7,1.5,0.7,2.5c0,1.3-0.5,2.5-1.5,3.4
				c-1,0.9-2.2,1.4-3.7,1.4c-1.3,0-2.4-0.4-3.3-1.2C81.3,629.8,80.8,628.8,80.7,627.5z"/>
		</g>
		<g>
			<path class="st2" d="M16.9,304.8l-11,4.2v-2l6.6-2.4c0.7-0.3,1.5-0.5,2.2-0.7c-0.6-0.2-1.3-0.4-2.1-0.7l-6.7-2.4v-1.9l11,4.2
				V304.8z"/>
			<path class="st2" d="M8,287.5v10H6.2v-10H8z M12.6,287.5v10h-1.7v-10H12.6z"/>
			<path class="st2" d="M12.9,285.4l-0.2-2c1-0.1,1.7-0.5,2.2-1c0.5-0.5,0.7-1.2,0.7-1.9c0-0.9-0.3-1.7-1-2.3
				c-0.7-0.6-1.6-0.9-2.7-0.9c-1.1,0-1.9,0.3-2.5,0.9s-0.9,1.4-0.9,2.3c0,0.6,0.1,1.1,0.4,1.6c0.3,0.5,0.6,0.9,1.1,1.1l-0.2,1.8
				l-7.8-1.5V276h1.8v6.1l4.1,0.8c-0.6-0.9-1-1.9-1-2.9c0-1.3,0.5-2.4,1.4-3.4c0.9-0.9,2.1-1.4,3.5-1.4c1.4,0,2.6,0.4,3.6,1.2
				c1.2,1,1.8,2.3,1.8,4c0,1.4-0.4,2.5-1.2,3.4C15.2,284.8,14.2,285.3,12.9,285.4z"/>
			<path class="st2" d="M16.9,267.6h-3.6v6.6h-1.7l-9.8-6.9v-1.5h9.8v-2.1h1.7v2.1h3.6V267.6z M11.6,267.6H4.7l6.9,4.8V267.6z"/>
			<path class="st2" d="M16.9,260.7h-2.1v-2.1h2.1V260.7z"/>
		</g>
		<g>
			<path class="st2" d="M12.9,255.9l-0.2-2c1-0.1,1.7-0.5,2.2-1c0.5-0.5,0.7-1.2,0.7-1.9c0-0.9-0.3-1.7-1-2.3
				c-0.7-0.6-1.6-0.9-2.7-0.9c-1.1,0-1.9,0.3-2.5,0.9s-0.9,1.4-0.9,2.3c0,0.6,0.1,1.1,0.4,1.6c0.3,0.5,0.6,0.9,1.1,1.1l-0.2,1.8
				l-7.8-1.5v-7.6h1.8v6.1l4.1,0.8c-0.6-0.9-1-1.9-1-2.9c0-1.3,0.5-2.4,1.4-3.4c0.9-0.9,2.1-1.4,3.5-1.4c1.4,0,2.6,0.4,3.6,1.2
				c1.2,1,1.8,2.3,1.8,4c0,1.4-0.4,2.5-1.2,3.4C15.2,255.3,14.2,255.8,12.9,255.9z"/>
		</g>
		<g>
			<path class="st2" d="M61.1,554.6h1.8v10c-0.4,0-0.9-0.1-1.3-0.2c-0.7-0.3-1.4-0.7-2-1.2c-0.7-0.6-1.4-1.4-2.3-2.4
				c-1.4-1.7-2.4-2.8-3.2-3.3c-0.8-0.6-1.5-0.9-2.2-0.9c-0.7,0-1.4,0.3-1.9,0.8c-0.5,0.5-0.8,1.2-0.8,2.1c0,0.9,0.3,1.6,0.8,2.2
				c0.5,0.5,1.3,0.8,2.2,0.8l-0.2,1.9c-1.4-0.1-2.5-0.6-3.3-1.5c-0.7-0.9-1.1-2-1.1-3.5c0-1.5,0.4-2.6,1.2-3.5
				c0.8-0.8,1.8-1.3,3-1.3c0.6,0,1.2,0.1,1.8,0.4c0.6,0.2,1.2,0.7,1.9,1.2s1.5,1.5,2.7,2.9c0.9,1.1,1.6,1.8,1.9,2.2s0.7,0.6,1,0.8
				V554.6z"/>
			<path class="st2" d="M51.5,542.9l0.1,1.9c-0.7,0.2-1.3,0.4-1.6,0.7c-0.5,0.5-0.8,1.1-0.8,1.9c0,0.6,0.2,1.1,0.5,1.6
				c0.4,0.6,1.1,1.1,1.9,1.4c0.8,0.3,2,0.5,3.5,0.5c-0.7-0.4-1.2-1-1.5-1.6c-0.3-0.6-0.5-1.3-0.5-2c0-1.2,0.5-2.3,1.4-3.2
				c0.9-0.9,2.1-1.3,3.6-1.3c1,0,1.8,0.2,2.7,0.6s1.4,1,1.9,1.7s0.7,1.5,0.7,2.4c0,1.6-0.6,2.8-1.7,3.8c-1.1,1-3,1.5-5.7,1.5
				c-2.9,0-5.1-0.5-6.4-1.6c-1.2-0.9-1.7-2.2-1.7-3.8c0-1.2,0.3-2.2,1-2.9S50.3,543,51.5,542.9z M58,550.5c0.6,0,1.3-0.1,1.8-0.4
				c0.6-0.3,1-0.7,1.3-1.1c0.3-0.5,0.5-1,0.5-1.5c0-0.8-0.3-1.5-1-2c-0.6-0.6-1.5-0.8-2.6-0.8c-1.1,0-1.9,0.3-2.5,0.8
				s-0.9,1.3-0.9,2.1c0,0.8,0.3,1.6,0.9,2.1C56.2,550.2,57,550.5,58,550.5z"/>
			<path class="st2" d="M62.9,539.7h-2.1v-2.1h2.1V539.7z"/>
		</g>
		<g>
			<path class="st2" d="M58.9,534.9l-0.2-1.9c1.1-0.2,1.8-0.6,2.3-1.1c0.5-0.5,0.7-1.1,0.7-1.9c0-0.9-0.3-1.6-0.9-2.2
				c-0.6-0.6-1.4-0.9-2.3-0.9c-0.9,0-1.6,0.3-2.1,0.8c-0.6,0.6-0.8,1.3-0.8,2.1c0,0.4,0.1,0.8,0.2,1.3l-1.6-0.2c0-0.1,0-0.2,0-0.3
				c0-0.8-0.2-1.5-0.6-2.1s-1.1-1-1.9-1c-0.7,0-1.3,0.2-1.7,0.7c-0.4,0.5-0.7,1.1-0.7,1.8c0,0.7,0.2,1.3,0.7,1.8
				c0.5,0.5,1.1,0.8,2.1,0.9l-0.3,1.9c-1.3-0.2-2.2-0.7-2.9-1.6s-1-1.8-1-3c0-0.8,0.2-1.6,0.5-2.3c0.4-0.7,0.8-1.2,1.5-1.6
				c0.6-0.4,1.3-0.6,2-0.6c0.7,0,1.3,0.2,1.8,0.5c0.5,0.4,1,0.9,1.3,1.6c0.2-0.9,0.6-1.6,1.3-2.1c0.7-0.5,1.5-0.7,2.5-0.7
				c1.3,0,2.5,0.5,3.4,1.5c0.9,1,1.4,2.2,1.4,3.7c0,1.3-0.4,2.4-1.2,3.3S60.2,534.8,58.9,534.9z"/>
		</g>
		<g>
			<path class="st2" d="M99,575v1.9H87.1c0.4,0.4,0.9,1,1.3,1.8c0.4,0.7,0.7,1.4,1,2h-1.8c-0.5-1-1.1-2-1.8-2.7
				c-0.7-0.8-1.4-1.3-2-1.7V575H99z"/>
			<path class="st2" d="M87.6,560.6l0.1,1.9c-0.7,0.2-1.3,0.4-1.6,0.7c-0.5,0.5-0.8,1.1-0.8,1.9c0,0.6,0.2,1.1,0.5,1.6
				c0.4,0.6,1.1,1.1,1.9,1.4c0.8,0.3,2,0.5,3.5,0.5c-0.7-0.4-1.2-1-1.5-1.6c-0.3-0.6-0.5-1.3-0.5-2c0-1.2,0.5-2.3,1.4-3.2
				c0.9-0.9,2.1-1.3,3.6-1.3c1,0,1.8,0.2,2.7,0.6s1.4,1,1.9,1.7s0.7,1.5,0.7,2.4c0,1.6-0.6,2.8-1.7,3.8c-1.1,1-3,1.5-5.7,1.5
				c-2.9,0-5.1-0.5-6.4-1.6c-1.2-0.9-1.7-2.2-1.7-3.8c0-1.2,0.3-2.2,1-2.9S86.4,560.7,87.6,560.6z M94.1,568.2
				c0.6,0,1.3-0.1,1.8-0.4c0.6-0.3,1-0.7,1.3-1.1c0.3-0.5,0.5-1,0.5-1.5c0-0.8-0.3-1.5-1-2c-0.6-0.6-1.5-0.8-2.6-0.8
				c-1.1,0-1.9,0.3-2.5,0.8s-0.9,1.3-0.9,2.1c0,0.8,0.3,1.6,0.9,2.1C92.3,567.9,93.1,568.2,94.1,568.2z"/>
		</g>
		<g>
			<path class="st2" d="M18,530.3l-11,4.2v-2l6.6-2.4c0.7-0.3,1.5-0.5,2.2-0.7c-0.6-0.2-1.3-0.4-2.1-0.7L7,526.3v-1.9l11,4.2V530.3z
				"/>
			<path class="st2" d="M9,507v10H7.3v-10H9z M13.6,507v10h-1.7v-10H13.6z"/>
			<path class="st2" d="M18,499h-3.6v6.6h-1.7l-9.8-6.9v-1.5h9.8v-2.1h1.7v2.1H18V499z M12.6,499H5.8l6.9,4.8V499z"/>
			<path class="st2" d="M4.8,493.1H3v-9.8h1.5c1,1,2.4,1.9,4.1,2.9c1.7,1,3.5,1.7,5.3,2.2c1.3,0.4,2.7,0.6,4.2,0.7v1.9
				c-1.2,0-2.6-0.3-4.3-0.7c-1.7-0.4-3.3-1.1-4.9-1.9c-1.6-0.8-2.9-1.7-4-2.7V493.1z"/>
			<path class="st2" d="M18,480.3h-2.1v-2.1H18V480.3z"/>
		</g>
		<g>
			<path class="st2" d="M14,475.5l-0.2-2c1-0.1,1.7-0.5,2.2-1c0.5-0.5,0.7-1.2,0.7-1.9c0-0.9-0.3-1.7-1-2.3
				c-0.7-0.6-1.6-0.9-2.7-0.9c-1.1,0-1.9,0.3-2.5,0.9s-0.9,1.4-0.9,2.3c0,0.6,0.1,1.1,0.4,1.6c0.3,0.5,0.6,0.9,1.1,1.1l-0.2,1.8
				L3,473.7v-7.6h1.8v6.1l4.1,0.8c-0.6-0.9-1-1.9-1-2.9c0-1.3,0.5-2.4,1.4-3.4c0.9-0.9,2.1-1.4,3.5-1.4c1.4,0,2.6,0.4,3.6,1.2
				c1.2,1,1.8,2.3,1.8,4c0,1.4-0.4,2.5-1.2,3.4C16.3,474.9,15.3,475.4,14,475.5z"/>
		</g>
		<polygon class="st2" points="6.6,521.8 3.7,520.5 3.7,518.1 6.6,520.2 		"/>
	</g>
</g>
<g id="Watermark">
	<g>
		<rect x="438.5" y="348.7" class="st0" width="123.1" height="46.3"/>
		<g>
			<rect x="444.9" y="356.5" class="st75" width="62.9" height="30.6"/>
			<rect x="507.7" y="356.5" class="st75" width="47.4" height="30.6"/>
			<g>
				<path class="st76" d="M466.5,362.6l-2.8,18.9H461l-1.6-11l-1.5,11h-2.7l-2.8-18.9h2.5l1.8,14.2l1.8-14.2h2l1.8,14.2l1.8-14.2
					H466.5z"/>
				<path class="st76" d="M467.9,381.5v-18.9h2.5v18.9H467.9z"/>
				<path class="st76" d="M472.8,362.6h5c1.9,0,2.9,1.1,2.9,3.2v4.7c0,1.7-0.5,2.7-1.5,3.1l1.8,7.9h-2.4l-1.7-7.6h-1.5v7.6h-2.5
					V362.6z M475.4,371.7h1.7c0.8,0,1.1-0.5,1.1-1.4v-4.1c0-0.9-0.4-1.4-1.1-1.4h-1.7V371.7z"/>
				<path class="st76" d="M486.8,364.9v16.6h-2.5v-16.6h-2.4v-2.3h7.4v2.3H486.8z"/>
				<path class="st76" d="M496.3,381.5v-8.6h-3.1v8.6h-2.5v-18.9h2.5v8h3.1v-8h2.5v18.9H496.3z"/>
			</g>
			<g>
				<path class="st76" d="M516.3,362.6h5c1.9,0,2.9,1.1,2.9,3.2v4.7c0,1.7-0.5,2.7-1.5,3.1l1.8,7.9H522l-1.7-7.6h-1.5v7.6h-2.5
					V362.6z M518.8,371.7h1.7c0.8,0,1.1-0.5,1.1-1.4v-4.1c0-0.9-0.4-1.4-1.1-1.4h-1.7V371.7z"/>
				<path class="st76" d="M528.7,381.5h-2.5v-15.7c0-2.2,1-3.2,3-3.2h1.9c2,0,3,1.1,3,3.2v15.7h-2.5v-6.9h-2.9V381.5z M531.6,372.3
					V366c0-0.7-0.4-1.1-1.1-1.1h-0.7c-0.7,0-1.1,0.4-1.1,1.1v6.3H531.6z"/>
				<path class="st76" d="M536.3,381.5v-18.9h2.5v18.9H536.3z"/>
				<path class="st76" d="M547.2,381.5h-6v-18.9h2.5v16.6h3.5V381.5z"/>
			</g>
		</g>
	</g>
</g>
</svg>
