<?xml version="1.0" encoding="utf-8"?>
<!-- Generator: Adobe Illustrator 25.2.3, SVG Export Plug-In . SVG Version: 6.00 Build 0)  -->
<svg version="1.1" xmlns="http://www.w3.org/2000/svg" xmlns:xlink="http://www.w3.org/1999/xlink" x="0px" y="0px"
	 viewBox="0 0 1000 800" style="enable-background:new 0 0 1000 800;" xml:space="preserve">
<style type="text/css">
	.st0{fill:#F0F0F0;}
	.st1{fill:none;stroke:#221E1F;stroke-width:1.0614;}
	.st2{fill:#221E1F;}
	.st3{fill:none;stroke:#221E1F;stroke-width:1.0614;stroke-dasharray:12.8405,6.4722;}
	.st4{fill:none;stroke:#000000;stroke-width:1.404;}
	.st5{fill:none;stroke:#000000;stroke-width:0.975;}
	.st6{fill:none;stroke:#000000;stroke-width:0.975;stroke-dasharray:11.5538,5.7038;}
	.st7{fill:none;stroke:#000000;stroke-width:0.975;stroke-miterlimit:10;}
	.st8{fill:none;stroke:#221E1F;stroke-width:0.8906;}
	.st9{fill:none;stroke:#221E1F;stroke-width:0.8819;}
	.st10{clip-path:url(#SVGID_2_);fill:none;stroke:#221E1F;stroke-width:0.8819;}
	.st11{clip-path:url(#SVGID_4_);fill:none;stroke:#221E1F;stroke-width:0.8819;}
	.st12{fill:#303030;}
	.st13{fill:none;stroke:#303030;stroke-width:0.8906;stroke-miterlimit:10;}
	.st14{clip-path:url(#SVGID_6_);fill:none;stroke:#221E1F;stroke-width:0.8906;}
	.st15{fill:none;stroke:#221E1F;stroke-width:0.8906;stroke-dasharray:23.0235,6.997;}
	.st16{fill:none;stroke:#221E1F;stroke-width:0.8906;stroke-dasharray:19.498,3.4714;}
	.st17{fill:none;stroke:#221E1F;stroke-width:0.8906;stroke-dasharray:21.3897,6.2234;}
	.st18{clip-path:url(#SVGID_8_);fill:none;stroke:#221E1F;stroke-width:0.8025;}
	.st19{fill:none;stroke:#221E1F;stroke-width:0.7299;}
	.st20{clip-path:url(#SVGID_10_);fill:none;stroke:#221E1F;stroke-width:0.8025;}
	.st21{fill:none;stroke:#221E1F;stroke-width:0.7726;}
	.st22{fill:none;stroke:#221E1F;stroke-width:0.8025;}
	.st23{fill:none;stroke:#221E1F;stroke-width:0.8025;stroke-dasharray:21.5886,6.6505;}
	.st24{fill:none;stroke:#303030;stroke-width:0.8025;stroke-miterlimit:10;}
	.st25{fill:none;stroke:#221E1F;stroke-width:0.811;stroke-dasharray:21.8106,6.6911;}
	.st26{fill:none;stroke:#221E1F;stroke-width:0.811;stroke-dasharray:16.7651,1.6456;}
	.st27{fill:none;stroke:#221E1F;stroke-width:0.811;}
	.st28{clip-path:url(#SVGID_12_);fill:#221E1F;}
	.st29{fill:none;stroke:#221E1F;stroke-width:1.2695;}
	.st30{fill:none;stroke:#221E1F;stroke-width:0.8814;}
	.st31{fill:none;stroke:#221E1F;stroke-width:1.4133;}
	.st32{fill:none;stroke:#221E1F;stroke-width:0.9807;}
	.st33{fill:none;stroke:#221E1F;stroke-width:0.9807;stroke-dasharray:13.5825,6.7924;}
	.st34{fill:none;stroke:#221E1F;stroke-width:0.9807;stroke-dasharray:19.5641,12.5429;}
	.st35{fill:none;stroke:#221E1F;stroke-width:1.1332;}
	.st36{fill:none;stroke:#221E1F;stroke-width:1.7102;}
	.st37{fill:none;stroke:#221E1F;stroke-width:1.2031;stroke-linecap:round;stroke-linejoin:round;stroke-miterlimit:10;}
	.st38{fill:none;stroke:#221E1F;stroke-width:1.2031;}
	.st39{fill:none;stroke:#221E1F;stroke-width:1.2031;stroke-miterlimit:10;}
	
		.st40{fill:none;stroke:#221E1F;stroke-width:1.2031;stroke-linecap:round;stroke-linejoin:round;stroke-miterlimit:10;stroke-dasharray:9.1021,1.1746,1.1746,1.1746;stroke-dashoffset:10;}
	
		.st41{fill:none;stroke:#221E1F;stroke-width:1.2031;stroke-linecap:round;stroke-linejoin:round;stroke-miterlimit:10;stroke-dasharray:9.1228,1.1953,1.1953,1.1953;stroke-dashoffset:10;}
	.st42{fill:none;stroke:#221E1F;stroke-width:1.0246;}
	.st43{fill:none;stroke:#221E1F;stroke-width:1.0246;stroke-dasharray:5.7593,5.7593;}
	.st44{fill:none;stroke:#221E1F;stroke-width:1.0582;}
	.st45{fill:none;stroke:#221E1F;stroke-width:1.0246;stroke-dasharray:5.8059,5.8059;}
	.st46{fill:none;stroke:#241F21;stroke-width:0.8839;}
	.st47{fill:#241F21;}
	.st48{fill:none;stroke:#241F21;stroke-width:1.2533;}
	.st49{fill:none;stroke:#241F21;stroke-width:0.7133;stroke-linecap:round;stroke-linejoin:round;stroke-miterlimit:10;}
	.st50{fill:none;stroke:#241F21;stroke-width:0.8839;stroke-miterlimit:10;}
	
		.st51{clip-path:url(#SVGID_14_);fill:none;stroke:#241F21;stroke-width:0.8839;stroke-linecap:round;stroke-linejoin:round;stroke-miterlimit:10;}
	.st52{clip-path:url(#SVGID_14_);fill:none;stroke:#241F21;stroke-width:0.8839;stroke-miterlimit:10;}
	.st53{fill:none;stroke:#241F21;stroke-width:0.8839;stroke-linecap:round;stroke-linejoin:round;stroke-miterlimit:10;}
	.st54{fill:none;stroke:#241F21;stroke-width:0.7642;stroke-linecap:round;stroke-linejoin:round;stroke-miterlimit:10;}
	
		.st55{fill:none;stroke:#241F21;stroke-width:0.7133;stroke-linecap:round;stroke-linejoin:round;stroke-miterlimit:10;stroke-dasharray:9.9652,1.3195,1.3195,1.3195;stroke-dashoffset:11;}
	
		.st56{fill:none;stroke:#241F21;stroke-width:0.7133;stroke-linecap:round;stroke-linejoin:round;stroke-miterlimit:10;stroke-dasharray:9.7079,1.0622,1.0622,1.0622;stroke-dashoffset:10;}
	.st57{fill:none;stroke:#241F21;stroke-width:0.8839;stroke-dasharray:5.5991,5.5991;}
	.st58{fill:none;stroke:#241F21;stroke-width:0.7515;stroke-dasharray:5.6857,5.6857;}
	.st59{fill:none;stroke:#221E1F;stroke-width:1.0101;stroke-miterlimit:10;}
	.st60{fill:none;stroke:#221E1F;stroke-width:1.0012;}
	.st61{fill:none;stroke:#221E1F;stroke-width:0.9081;}
	.st62{fill:none;stroke:#221E1F;stroke-width:1.0385;}
	.st63{fill:none;stroke:#221E1F;stroke-width:0.9081;stroke-dasharray:20.8407,6.1278;}
	.st64{fill:none;stroke:#221E1F;stroke-width:1.406;}
	.st65{fill:none;stroke:#221E1F;stroke-width:0.9906;}
	.st66{fill:none;stroke:#221E1F;stroke-width:0.9887;}
	.st67{fill:none;stroke:#221E1F;stroke-width:0.8443;}
	.st68{fill:none;stroke:#221E1F;stroke-width:0.8443;stroke-dasharray:4.4655,4.4655;}
	.st69{fill:none;stroke:#221E1F;stroke-width:1.7608;}
	.st70{fill:none;stroke:#221E1F;stroke-width:1.0549;}
	.st71{clip-path:url(#SVGID_16_);fill:none;stroke:#221E1F;stroke-width:1.0549;}
	.st72{fill:none;stroke:#221E1F;stroke-width:1.0549;stroke-dasharray:5.538,5.538;}
	.st73{clip-path:url(#SVGID_18_);}
	.st74{clip-path:url(#SVGID_20_);}
	.st75{fill:#F0F0F0;stroke:#CCCCCC;stroke-miterlimit:10;}
	.st76{fill:#CCCCCC;}
</style>
<g id="Flat">
	<g>
		<g>
			<path class="st0" d="M208.6,655.4c-25.9,5.5-44.4,28.4-44.4,54.8v16.2c0,3.9,3.1,7,7,7h658.6c3.9,0,7-3.1,7-7v-16.2
				c0-26.5-18.5-49.3-44.4-54.8l-148.3-31.5c-38.8-8.3-66.6-42.5-66.6-82.2V382.2c0-66.2,46.3-123.3,111-137.1l8.4-1.8
				c16.2-3.4,27.7-17.7,27.7-34.3V88.9c0-15.5-12.5-28-28-28H304.3c-15.5,0-28,12.5-28,28V209c0,16.5,11.6,30.8,27.7,34.3l8.4,1.8
				c64.7,13.8,111,70.9,111,137.1v159.5c0,39.7-27.8,74-66.6,82.2L208.6,655.4z"/>
			<path class="st8" d="M208.6,655.4c-25.9,5.5-44.4,28.4-44.4,54.8v16.2c0,3.9,3.1,7,7,7h658.6c3.9,0,7-3.1,7-7v-16.2
				c0-26.5-18.5-49.3-44.4-54.8l-148.3-31.5c-38.8-8.3-66.6-42.5-66.6-82.2V382.2c0-66.2,46.3-123.3,111-137.1l8.4-1.8
				c16.2-3.4,27.7-17.7,27.7-34.3V88.9c0-15.5-12.5-28-28-28H304.3c-15.5,0-28,12.5-28,28V209c0,16.5,11.6,30.8,27.7,34.3l8.4,1.8
				c64.7,13.8,111,70.9,111,137.1v159.5c0,39.7-27.8,74-66.6,82.2L208.6,655.4z"/>
		</g>
		<line class="st9" x1="955.8" y1="60.8" x2="724.7" y2="60.8"/>
		<g>
			<defs>
				<rect id="SVGID_1_" x="102.4" y="9.7" width="855" height="783.7"/>
			</defs>
			<clipPath id="SVGID_2_">
				<use xlink:href="#SVGID_1_"  style="overflow:visible;"/>
			</clipPath>
			<line class="st10" x1="164.2" y1="793.4" x2="164.2" y2="664.8"/>
		</g>
		<line class="st9" x1="276.3" y1="237.4" x2="276.3" y2="12.7"/>
		<g>
			<defs>
				<rect id="SVGID_3_" x="102.4" y="9.7" width="855" height="783.7"/>
			</defs>
			<clipPath id="SVGID_4_">
				<use xlink:href="#SVGID_3_"  style="overflow:visible;"/>
			</clipPath>
			<line class="st11" x1="836.8" y1="793.4" x2="836.8" y2="664.8"/>
		</g>
		<line class="st9" x1="276.3" y1="60.8" x2="500.5" y2="60.8"/>
		<line class="st8" x1="288.1" y1="24.6" x2="712.9" y2="24.6"/>
		<polygon class="st2" points="290.8,28.3 276.3,24.4 290.8,20.5 		"/>
		<g>
			<path class="st12" d="M312.1,86.1l6.4-6.5l2.9,2.8c0.6,0.6,1,1.1,1.2,1.5c0.2,0.4,0.2,0.9,0.1,1.3c-0.1,0.5-0.3,0.9-0.7,1.3
				c-0.5,0.5-1,0.7-1.6,0.7c-0.6,0-1.3-0.2-2-0.8c0.1,0.3,0.2,0.6,0.2,0.8c0,0.5,0,1-0.1,1.6l-0.6,2.9l-1.1-1.1l0.5-2.2
				c0.1-0.6,0.2-1.1,0.3-1.5c0-0.4,0-0.7,0-0.9c0-0.2-0.1-0.4-0.2-0.6c-0.1-0.1-0.2-0.3-0.5-0.5l-1-1l-2.9,2.9L312.1,86.1z
				 M316.5,83.3l1.9,1.8c0.4,0.4,0.7,0.7,1,0.8c0.3,0.1,0.6,0.2,0.9,0.1c0.3-0.1,0.5-0.2,0.8-0.4c0.3-0.3,0.4-0.7,0.4-1.1
				c0-0.4-0.3-0.9-0.8-1.3l-2.1-2L316.5,83.3z"/>
			<path class="st12" d="M321.3,95.2l-0.8-0.8l5-5.1c-0.4,0-0.8-0.1-1.3-0.2c-0.5-0.1-0.9-0.3-1.3-0.4l0.8-0.8
				c0.7,0.2,1.3,0.4,1.9,0.4c0.6,0,1.2,0,1.6-0.2l0.5,0.5L321.3,95.2z"/>
			<path class="st12" d="M322.9,97l8.5-4.9l0.6,0.6l-8.5,4.9L322.9,97z"/>
			<path class="st12" d="M328.5,102.3l1.5-1.6l-2.8-2.8l0.7-0.7l7.1-1.3l0.7,0.6l-4.2,4.2l0.9,0.9l-0.7,0.7l-0.9-0.9l-1.5,1.6
				L328.5,102.3z M330.8,100l2.9-3l-4.9,0.9L330.8,100z"/>
		</g>
		<line class="st13" x1="292.5" y1="76" x2="330.5" y2="112"/>
		<polygon class="st12" points="291.4,79.3 285.3,69 295.8,74.6 		"/>
		<g>
			<defs>
				<rect id="SVGID_5_" x="102.4" y="9.7" width="855" height="783.7"/>
			</defs>
			<clipPath id="SVGID_6_">
				<use xlink:href="#SVGID_5_"  style="overflow:visible;"/>
			</clipPath>
			<path class="st14" d="M957.4,400.4l-9.4,0 M256,399.8l-9.4,0h-8.9 M188.3,399.8h-8.9"/>
		</g>
		<g>
			<path class="st12" d="M944.5,271.5l-9.2,3.6v-1.3l6.7-2.4c0.5-0.2,1-0.4,1.5-0.5c-0.5-0.1-1-0.3-1.5-0.5l-6.7-2.5v-1.2l9.2,3.6
				V271.5z"/>
			<path class="st12" d="M938.6,265.7l-1.7,0.3h-1.5v-1.3h1.5l1.7,0.3V265.7z"/>
			<path class="st12" d="M939.1,257.3v6.1h-1.1v-6.1H939.1z M941.9,257.3v6.1h-1.1v-6.1H941.9z"/>
			<path class="st12" d="M936.5,252.4h-1.1v-5.9h0.9c0.6,0.6,1.4,1.2,2.5,1.7c1,0.6,2.1,1,3.2,1.3c0.8,0.2,1.6,0.4,2.5,0.4v1.2
				c-0.7,0-1.6-0.2-2.6-0.4c-1-0.3-2-0.7-3-1.2s-1.7-1-2.4-1.6V252.4z"/>
			<path class="st12" d="M937.6,239.5l0.1,1.1c-0.4,0.1-0.8,0.2-1,0.4c-0.3,0.3-0.5,0.7-0.5,1.1c0,0.4,0.1,0.7,0.3,0.9
				c0.3,0.4,0.6,0.6,1.1,0.8c0.5,0.2,1.2,0.3,2.1,0.3c-0.4-0.3-0.7-0.6-0.9-1s-0.3-0.8-0.3-1.2c0-0.8,0.3-1.4,0.8-1.9
				c0.6-0.5,1.3-0.8,2.1-0.8c0.6,0,1.1,0.1,1.6,0.4s0.9,0.6,1.1,1c0.3,0.4,0.4,0.9,0.4,1.5c0,0.9-0.3,1.7-1,2.3s-1.8,0.9-3.4,0.9
				c-1.8,0-3.1-0.3-3.9-1c-0.7-0.6-1.1-1.3-1.1-2.3c0-0.7,0.2-1.3,0.6-1.8C936.3,239.9,936.9,239.6,937.6,239.5z M941.5,244.1
				c0.4,0,0.8-0.1,1.1-0.2c0.4-0.2,0.6-0.4,0.8-0.7c0.2-0.3,0.3-0.6,0.3-0.9c0-0.5-0.2-0.9-0.6-1.2c-0.4-0.3-0.9-0.5-1.6-0.5
				c-0.6,0-1.1,0.2-1.5,0.5s-0.5,0.8-0.5,1.3c0,0.5,0.2,0.9,0.5,1.3C940.5,244,940.9,244.1,941.5,244.1z"/>
			<path class="st12" d="M944.5,237.6h-1.3v-1.3h1.3V237.6z"/>
			<path class="st12" d="M939.5,233c-0.2,0.5-0.4,0.8-0.7,1s-0.7,0.3-1.1,0.3c-0.7,0-1.2-0.2-1.7-0.7c-0.5-0.5-0.7-1.1-0.7-1.9
				c0-0.8,0.2-1.4,0.7-1.9c0.5-0.5,1-0.7,1.7-0.7c0.4,0,0.8,0.1,1.1,0.3c0.3,0.2,0.6,0.6,0.7,1c0.2-0.6,0.5-1,0.9-1.3
				c0.4-0.3,0.9-0.4,1.5-0.4c0.8,0,1.4,0.3,2,0.8c0.5,0.6,0.8,1.3,0.8,2.2c0,0.9-0.3,1.6-0.8,2.2c-0.5,0.6-1.2,0.8-2,0.8
				c-0.6,0-1.1-0.2-1.5-0.5C940,234,939.7,233.5,939.5,233z M937.6,233.2c0.4,0,0.8-0.1,1.1-0.4s0.4-0.6,0.4-1.1
				c0-0.4-0.1-0.8-0.4-1.1c-0.3-0.3-0.6-0.4-1-0.4c-0.4,0-0.8,0.1-1,0.4c-0.3,0.3-0.4,0.6-0.4,1.1c0,0.4,0.1,0.8,0.4,1.1
				C936.9,233.1,937.2,233.2,937.6,233.2z M941.9,233.6c0.3,0,0.6-0.1,0.9-0.2s0.5-0.4,0.7-0.7c0.2-0.3,0.2-0.6,0.2-1
				c0-0.5-0.2-1-0.5-1.3c-0.3-0.4-0.8-0.5-1.3-0.5c-0.5,0-1,0.2-1.3,0.5s-0.5,0.8-0.5,1.4c0,0.5,0.2,1,0.5,1.3
				C940.9,233.4,941.3,233.6,941.9,233.6z"/>
		</g>
		<g>
			<path class="st12" d="M944.5,586.8l-9.2,3.6V589l6.7-2.4c0.5-0.2,1-0.4,1.5-0.5c-0.5-0.1-1-0.3-1.5-0.5l-6.7-2.5v-1.2l9.2,3.6
				V586.8z"/>
			<path class="st12" d="M939.1,575.1v6.1h-1.1v-6.1H939.1z M941.9,575.1v6.1h-1.1v-6.1H941.9z"/>
			<path class="st12" d="M936.5,570.2h-1.1v-5.9h0.9c0.6,0.6,1.4,1.2,2.5,1.7c1,0.6,2.1,1,3.2,1.3c0.8,0.2,1.6,0.4,2.5,0.4v1.2
				c-0.7,0-1.6-0.2-2.6-0.4c-1-0.3-2-0.7-3-1.2s-1.7-1-2.4-1.6V570.2z"/>
			<path class="st12" d="M942.1,563.1l-0.1-1.2c0.6-0.1,1-0.3,1.3-0.6c0.3-0.3,0.4-0.7,0.4-1.2c0-0.5-0.2-1-0.6-1.4s-1-0.6-1.6-0.6
				c-0.6,0-1.1,0.2-1.5,0.5c-0.4,0.4-0.6,0.8-0.6,1.4c0,0.4,0.1,0.7,0.2,1s0.4,0.5,0.6,0.7l-0.1,1.1l-4.7-0.9v-4.6h1.1v3.7l2.5,0.5
				c-0.4-0.5-0.6-1.1-0.6-1.7c0-0.8,0.3-1.5,0.8-2c0.6-0.5,1.3-0.8,2.1-0.8c0.8,0,1.5,0.2,2.2,0.7c0.7,0.6,1.1,1.4,1.1,2.4
				c0,0.8-0.2,1.5-0.7,2C943.5,562.8,942.9,563.1,942.1,563.1z"/>
			<path class="st12" d="M944.5,555.4h-1.3v-1.3h1.3V555.4z"/>
		</g>
		<g>
			<path class="st12" d="M937.6,546.6l0.1,1.1c-0.4,0.1-0.8,0.2-1,0.4c-0.3,0.3-0.5,0.7-0.5,1.1c0,0.4,0.1,0.7,0.3,0.9
				c0.3,0.4,0.6,0.6,1.1,0.8c0.5,0.2,1.2,0.3,2.1,0.3c-0.4-0.3-0.7-0.6-0.9-1c-0.2-0.4-0.3-0.8-0.3-1.2c0-0.8,0.3-1.4,0.8-1.9
				c0.6-0.5,1.3-0.8,2.1-0.8c0.6,0,1.1,0.1,1.6,0.4s0.9,0.6,1.1,1c0.3,0.4,0.4,0.9,0.4,1.5c0,0.9-0.3,1.7-1,2.3
				c-0.7,0.6-1.8,0.9-3.4,0.9c-1.8,0-3.1-0.3-3.9-1c-0.7-0.6-1.1-1.3-1.1-2.3c0-0.7,0.2-1.3,0.6-1.8
				C936.3,547,936.9,546.7,937.6,546.6z M941.5,551.2c0.4,0,0.8-0.1,1.1-0.2c0.4-0.2,0.6-0.4,0.8-0.7s0.3-0.6,0.3-0.9
				c0-0.5-0.2-0.9-0.6-1.2c-0.4-0.3-0.9-0.5-1.6-0.5c-0.6,0-1.1,0.2-1.5,0.5s-0.5,0.8-0.5,1.3c0,0.5,0.2,0.9,0.5,1.3
				S940.9,551.2,941.5,551.2z"/>
		</g>
		<g>
			<path class="st12" d="M773.8,712.4l-5.8-7.1l3.2-2.6c0.6-0.5,1.2-0.8,1.6-1c0.4-0.1,0.9-0.1,1.3,0c0.5,0.2,0.8,0.4,1.2,0.8
				c0.4,0.5,0.6,1.1,0.5,1.7c0,0.6-0.4,1.2-1,1.9c0.3-0.1,0.6-0.1,0.9-0.1c0.5,0,1,0.1,1.6,0.3l2.8,0.9l-1.2,1l-2.1-0.7
				c-0.6-0.2-1.1-0.3-1.5-0.4c-0.4-0.1-0.6-0.1-0.9-0.1c-0.2,0-0.4,0.1-0.6,0.2c-0.1,0.1-0.3,0.2-0.6,0.4l-1.1,0.9l2.6,3.2
				L773.8,712.4z M771.5,707.7l2-1.6c0.4-0.3,0.7-0.7,0.9-1c0.2-0.3,0.2-0.6,0.2-0.9c0-0.3-0.1-0.6-0.3-0.8c-0.3-0.3-0.6-0.5-1-0.5
				s-0.9,0.2-1.4,0.6l-2.3,1.8L771.5,707.7z"/>
		</g>
		<g>
			<path class="st12" d="M783.9,704.2l-0.9,0.7l-4.5-5.6c0,0.4-0.2,0.8-0.3,1.3c-0.2,0.5-0.4,0.9-0.6,1.2l-0.7-0.8
				c0.3-0.6,0.5-1.3,0.6-1.9c0.1-0.6,0.1-1.2,0-1.6l0.6-0.5L783.9,704.2z"/>
			<path class="st12" d="M790,697.8l0.7,0.8l-4.7,3.8c-0.2-0.2-0.3-0.4-0.4-0.7c-0.1-0.4-0.2-0.9-0.2-1.4s0.1-1.2,0.3-2
				c0.3-1.3,0.4-2.2,0.3-2.8c0-0.6-0.2-1.1-0.4-1.4c-0.3-0.3-0.6-0.5-1.1-0.6c-0.4,0-0.9,0.1-1.3,0.4c-0.4,0.3-0.7,0.7-0.7,1.2
				c0,0.5,0.1,0.9,0.5,1.4l-1,0.6c-0.5-0.7-0.7-1.4-0.5-2.1c0.1-0.7,0.5-1.3,1.2-1.8c0.7-0.6,1.4-0.8,2.1-0.7
				c0.7,0.1,1.3,0.4,1.7,0.9c0.2,0.3,0.4,0.6,0.5,1s0.1,0.8,0.1,1.3c0,0.5-0.1,1.3-0.3,2.3c-0.2,0.9-0.3,1.4-0.3,1.7s0,0.5,0,0.8
				L790,697.8z"/>
			<path class="st12" d="M792.1,697.5l-0.8-1l1-0.8l0.8,1L792.1,697.5z"/>
		</g>
		<g>
			<path class="st12" d="M789.5,689.4l-0.7-0.8l4.6-3.7l0.6,0.7c-0.1,0.9,0,1.9,0.2,3c0.2,1.2,0.5,2.3,1,3.3
				c0.3,0.7,0.7,1.5,1.3,2.2l-0.9,0.7c-0.4-0.6-0.9-1.3-1.3-2.3c-0.4-1-0.8-2-1-3c-0.2-1.1-0.3-2-0.3-2.9L789.5,689.4z"/>
		</g>
		<g>
			<path class="st12" d="M862.2,751.9l6-6.9l3.1,2.7c0.6,0.5,1,1,1.2,1.4c0.2,0.4,0.3,0.8,0.2,1.3c-0.1,0.5-0.3,0.9-0.6,1.3
				c-0.4,0.5-0.9,0.8-1.6,0.8c-0.6,0.1-1.3-0.2-2-0.6c0.1,0.3,0.2,0.6,0.3,0.8c0.1,0.5,0,1,0,1.6l-0.4,2.9l-1.2-1l0.3-2.2
				c0.1-0.6,0.2-1.2,0.2-1.5c0-0.4,0-0.7-0.1-0.9c-0.1-0.2-0.1-0.4-0.3-0.5c-0.1-0.1-0.2-0.3-0.5-0.5l-1.1-0.9l-2.7,3.1L862.2,751.9
				z M866.5,748.9l2,1.7c0.4,0.4,0.8,0.6,1.1,0.7c0.3,0.1,0.6,0.1,0.9,0.1c0.3-0.1,0.5-0.2,0.7-0.5c0.3-0.3,0.4-0.7,0.3-1.1
				c-0.1-0.4-0.3-0.8-0.9-1.3l-2.2-1.9L866.5,748.9z"/>
		</g>
		<g>
			<path class="st12" d="M872.1,760.5l-0.8-0.7l4.7-5.4c-0.4,0-0.8,0-1.3-0.1c-0.5-0.1-0.9-0.2-1.3-0.3l0.7-0.8
				c0.7,0.2,1.3,0.3,2,0.3c0.6,0,1.2-0.1,1.6-0.3l0.5,0.5L872.1,760.5z"/>
		</g>
		<g>
			<path class="st12" d="M874.7,762.8l0.8-1l1,0.8l-0.8,1L874.7,762.8z"/>
			<path class="st12" d="M878.5,762.9l1,0.7c-0.3,0.5-0.4,1-0.4,1.4c0.1,0.4,0.2,0.8,0.6,1.1c0.4,0.4,0.9,0.5,1.4,0.4
				c0.6-0.1,1-0.3,1.5-0.9c0.4-0.5,0.6-1,0.6-1.5c0-0.5-0.3-1-0.7-1.4c-0.3-0.2-0.6-0.4-0.9-0.5c-0.3-0.1-0.6-0.1-0.9,0l-0.7-0.8
				l3.8-3l3.4,3l-0.7,0.8l-2.8-2.4l-2,1.5c0.7,0.1,1.2,0.3,1.7,0.7c0.6,0.5,0.9,1.2,1,2c0.1,0.8-0.2,1.5-0.8,2.2
				c-0.5,0.6-1.2,1-2,1.1c-0.9,0.2-1.8-0.1-2.5-0.7c-0.6-0.5-1-1.2-1.1-1.9C877.8,764.2,878,763.6,878.5,762.9z"/>
		</g>
		<g>
			<path class="st12" d="M883.8,767.9l0.9,0.6c-0.3,0.4-0.4,0.8-0.3,1.2c0,0.3,0.2,0.6,0.5,0.9c0.3,0.2,0.5,0.4,0.8,0.4
				c0.3,0.1,0.6,0,0.9-0.1s0.6-0.3,1-0.5c0.4-0.3,0.7-0.6,1-0.9c0,0,0.1-0.1,0.1-0.2c-0.4,0.1-0.8,0.1-1.3,0.1
				c-0.4-0.1-0.8-0.3-1.2-0.6c-0.6-0.5-0.9-1.1-0.9-1.9s0.2-1.5,0.8-2.2c0.6-0.7,1.3-1.1,2.1-1.2s1.5,0.2,2.1,0.7
				c0.4,0.4,0.8,0.9,0.9,1.4c0.2,0.6,0.1,1.2-0.1,1.8c-0.2,0.6-0.7,1.3-1.4,2.2c-0.8,0.9-1.5,1.5-2.1,1.9c-0.6,0.4-1.3,0.5-1.9,0.5
				c-0.6-0.1-1.2-0.3-1.7-0.8c-0.5-0.5-0.9-1-0.9-1.6C883.2,769.1,883.4,768.5,883.8,767.9z M889.9,767.9c0.4-0.5,0.6-1,0.6-1.5
				c0-0.5-0.2-0.9-0.6-1.2c-0.4-0.3-0.8-0.5-1.4-0.4c-0.5,0.1-1,0.3-1.5,0.8c-0.4,0.4-0.6,0.9-0.5,1.4c0,0.5,0.2,0.9,0.6,1.3
				c0.4,0.3,0.8,0.5,1.3,0.4C889,768.7,889.5,768.4,889.9,767.9z"/>
		</g>
		<g>
			<path class="st12" d="M305.7,208.6l-5.6-7.3l3.2-2.5c0.6-0.5,1.2-0.8,1.6-0.9s0.9-0.1,1.3,0.1s0.8,0.5,1.1,0.9
				c0.4,0.5,0.6,1.1,0.5,1.7c-0.1,0.6-0.4,1.2-1,1.9c0.3-0.1,0.6-0.1,0.9-0.1c0.5,0,1,0.2,1.5,0.4l2.8,1l-1.2,0.9l-2.1-0.8
				c-0.6-0.2-1.1-0.4-1.5-0.5c-0.4-0.1-0.6-0.1-0.9-0.1c-0.2,0-0.4,0.1-0.6,0.1c-0.1,0.1-0.3,0.2-0.6,0.4l-1.1,0.9l2.5,3.2
				L305.7,208.6z M303.5,203.8l2.1-1.6c0.4-0.3,0.7-0.6,0.9-0.9c0.2-0.3,0.3-0.6,0.2-0.9s-0.1-0.6-0.3-0.8c-0.3-0.3-0.6-0.5-1-0.6
				c-0.4,0-0.9,0.2-1.4,0.6l-2.3,1.8L303.5,203.8z"/>
			<path class="st12" d="M311.2,201.3l0.9-0.8c0.4,0.4,0.8,0.6,1.3,0.7c0.4,0,0.8-0.1,1.2-0.4c0.4-0.3,0.7-0.8,0.7-1.3
				c0-0.6-0.1-1.1-0.5-1.6c-0.4-0.5-0.8-0.8-1.4-0.9c-0.5-0.1-1,0.1-1.5,0.4c-0.3,0.2-0.5,0.5-0.6,0.8c-0.1,0.3-0.2,0.6-0.2,0.9
				l-0.9,0.5l-2.2-4.3l3.6-2.8l0.7,0.9l-2.9,2.2l1.1,2.3c0.2-0.6,0.5-1.1,1-1.5c0.6-0.5,1.3-0.7,2.1-0.6c0.8,0.1,1.4,0.5,2,1.2
				c0.5,0.7,0.8,1.4,0.7,2.1c0,0.9-0.4,1.7-1.2,2.3c-0.7,0.5-1.3,0.7-2,0.7C312.3,202.2,311.7,201.9,311.2,201.3z"/>
			<path class="st12" d="M318,199.3l-3.7-9.1l0.7-0.5l3.7,9.1L318,199.3z"/>
			<path class="st12" d="M324.5,194.1l-0.9,0.7l-4.4-5.7c-0.1,0.4-0.2,0.8-0.4,1.3c-0.2,0.5-0.4,0.9-0.6,1.2l-0.7-0.9
				c0.3-0.6,0.5-1.2,0.7-1.9s0.1-1.1,0-1.6l0.6-0.4L324.5,194.1z"/>
			<path class="st12" d="M327.2,183.3l-0.8,0.8c-0.3-0.3-0.7-0.5-0.9-0.5c-0.4-0.1-0.8,0-1.2,0.3c-0.3,0.2-0.5,0.5-0.6,0.8
				c-0.1,0.4-0.1,0.9,0,1.4c0.1,0.5,0.5,1.1,1,1.9c0-0.5,0-0.9,0.2-1.3c0.2-0.4,0.5-0.7,0.8-1c0.6-0.5,1.3-0.6,2-0.5
				s1.4,0.5,1.9,1.2c0.3,0.5,0.6,1,0.7,1.5s0.1,1.1-0.1,1.5c-0.2,0.5-0.5,0.9-0.9,1.2c-0.7,0.6-1.6,0.8-2.5,0.6
				c-0.9-0.2-1.8-0.9-2.8-2.2c-1.1-1.4-1.6-2.6-1.6-3.7c0-0.9,0.4-1.7,1.2-2.2c0.6-0.4,1.2-0.6,1.8-0.6
				C326.1,182.6,326.7,182.8,327.2,183.3z M326,189.3c0.2,0.3,0.5,0.6,0.9,0.7c0.3,0.2,0.7,0.3,1,0.2c0.3,0,0.7-0.1,0.9-0.3
				c0.4-0.3,0.6-0.7,0.6-1.2s-0.1-1-0.5-1.6c-0.4-0.5-0.8-0.8-1.3-0.9c-0.5-0.1-0.9,0-1.3,0.3c-0.4,0.3-0.6,0.7-0.7,1.2
				C325.5,188.3,325.6,188.8,326,189.3z"/>
			<path class="st12" d="M329.1,183.1l-1.3-1.2l-0.9-1.2l1-0.8l0.9,1.2l0.8,1.6L329.1,183.1z M330.8,181.9l-1.3-1.2l-0.9-1.2l1-0.8
				l0.9,1.2l0.8,1.6L330.8,181.9z"/>
		</g>
		<g>
			<path class="st12" d="M348.7,336.8l-5.3-7.5l3.3-2.3c0.7-0.5,1.2-0.8,1.7-0.9c0.4-0.1,0.9-0.1,1.3,0.1c0.4,0.2,0.8,0.5,1.1,0.9
				c0.4,0.5,0.5,1.1,0.4,1.7c-0.1,0.6-0.5,1.2-1.1,1.8c0.4-0.1,0.6-0.1,0.9,0c0.5,0.1,1,0.2,1.5,0.4l2.7,1.1L354,333l-2.1-0.9
				c-0.6-0.2-1.1-0.4-1.4-0.5c-0.4-0.1-0.6-0.2-0.9-0.1c-0.2,0-0.4,0-0.6,0.1c-0.1,0.1-0.3,0.2-0.6,0.4l-1.2,0.8l2.3,3.3
				L348.7,336.8z M346.7,331.9l2.1-1.5c0.5-0.3,0.8-0.6,1-0.9c0.2-0.3,0.3-0.6,0.3-0.9c0-0.3-0.1-0.6-0.3-0.8
				c-0.2-0.4-0.6-0.6-1-0.6c-0.4,0-0.9,0.1-1.5,0.5l-2.4,1.7L346.7,331.9z"/>
			<path class="st12" d="M359.3,329.3l-0.9,0.6l-4.1-5.9c-0.1,0.4-0.2,0.8-0.4,1.2c-0.2,0.5-0.4,0.9-0.6,1.2l-0.6-0.9
				c0.3-0.6,0.6-1.2,0.7-1.8c0.1-0.6,0.2-1.1,0.1-1.6l0.6-0.4L359.3,329.3z"/>
			<path class="st12" d="M368.1,323.2l-0.9,0.6L363,318c-0.1,0.4-0.2,0.8-0.4,1.2s-0.4,0.9-0.6,1.2l-0.6-0.9
				c0.3-0.6,0.6-1.2,0.7-1.8c0.1-0.6,0.2-1.1,0.1-1.6l0.6-0.4L368.1,323.2z"/>
			<path class="st12" d="M370.1,322l-3.3-9.3l0.7-0.5l3.3,9.3L370.1,322z"/>
			<path class="st12" d="M376.3,317.4l-1.3-1.8l-3.3,2.3l-0.6-0.8l0-7.3l0.8-0.5l3.4,4.9l1-0.7l0.6,0.8l-1,0.7l1.3,1.8L376.3,317.4z
				 M374.4,314.8l-2.4-3.4l0,5L374.4,314.8z"/>
		</g>
		<g>
			<path class="st12" d="M376.1,310.3l-1.3-1.2l-0.9-1.2l1-0.7l0.9,1.2l0.8,1.6L376.1,310.3z M377.8,309.1l-1.3-1.3l-0.9-1.2l1-0.7
				l0.9,1.2l0.8,1.6L377.8,309.1z"/>
		</g>
		<path class="st9" d="M724.7,13.1v47.8 M955.5,733.5H836.8"/>
		<path class="st8" d="M878.6,285.1H289.5 M878.6,593.4H500.5"/>
		<line class="st8" x1="276.3" y1="593.4" x2="500.7" y2="593.4"/>
		<line class="st8" x1="500.5" y1="285.1" x2="276.3" y2="237.4"/>
		<line class="st9" x1="836.8" y1="733.5" x2="164.2" y2="733.5"/>
		<path class="st8" d="M164.2,664.8l336.3-71.5 M836.8,664.8l-336.3-71.5"/>
		<path class="st8" d="M724.7,237.4V60.8 M500.5,285.1l224.2-47.7 M577.6,609.7V268.7"/>
		<line class="st9" x1="724.7" y1="60.8" x2="500.5" y2="60.8"/>
		<line class="st8" x1="423.4" y1="609.7" x2="423.4" y2="268.7"/>
		<g>
			<path class="st12" d="M479.9,777.3h-1.1v-7.2c-0.3,0.3-0.6,0.5-1.1,0.8s-0.8,0.5-1.2,0.6v-1.1c0.6-0.3,1.2-0.7,1.7-1.1
				c0.5-0.4,0.8-0.8,1-1.2h0.7V777.3z"/>
			<path class="st12" d="M482.7,774.9l1.2-0.1c0.1,0.6,0.3,1,0.6,1.3c0.3,0.3,0.7,0.4,1.2,0.4c0.5,0,1-0.2,1.4-0.6
				c0.4-0.4,0.6-1,0.6-1.6c0-0.6-0.2-1.1-0.5-1.5s-0.8-0.6-1.4-0.6c-0.4,0-0.7,0.1-1,0.2c-0.3,0.2-0.5,0.4-0.7,0.6l-1.1-0.1l0.9-4.7
				h4.6v1.1h-3.7l-0.5,2.5c0.6-0.4,1.1-0.6,1.7-0.6c0.8,0,1.5,0.3,2,0.8s0.8,1.3,0.8,2.1c0,0.8-0.2,1.5-0.7,2.2
				c-0.6,0.7-1.4,1.1-2.4,1.1c-0.8,0-1.5-0.2-2-0.7C483.1,776.3,482.8,775.7,482.7,774.9z"/>
			<path class="st12" d="M495.8,776.2v1.1h-6.1c0-0.3,0-0.5,0.1-0.8c0.2-0.4,0.4-0.8,0.7-1.2c0.3-0.4,0.8-0.9,1.5-1.4
				c1-0.8,1.7-1.5,2-1.9c0.4-0.5,0.5-0.9,0.5-1.4c0-0.4-0.2-0.8-0.5-1.1c-0.3-0.3-0.7-0.5-1.2-0.5c-0.5,0-1,0.2-1.3,0.5
				c-0.3,0.3-0.5,0.8-0.5,1.4l-1.2-0.1c0.1-0.9,0.4-1.5,0.9-2c0.5-0.5,1.2-0.7,2.1-0.7c0.9,0,1.6,0.2,2.1,0.7
				c0.5,0.5,0.8,1.1,0.8,1.8c0,0.4-0.1,0.7-0.2,1.1c-0.1,0.4-0.4,0.7-0.7,1.1c-0.3,0.4-0.9,0.9-1.7,1.6c-0.7,0.6-1.1,1-1.3,1.2
				s-0.4,0.4-0.5,0.6H495.8z"/>
			<path class="st12" d="M497.6,777.3V776h1.3v1.3H497.6z"/>
			<path class="st12" d="M504.2,777.3v-2.2h-4v-1l4.2-5.9h0.9v5.9h1.2v1h-1.2v2.2H504.2z M504.2,774.1v-4.1l-2.9,4.1H504.2z"/>
			<path class="st12" d="M507.7,772.8c0-1.1,0.1-2,0.3-2.6s0.6-1.2,1-1.5c0.4-0.4,1-0.5,1.7-0.5c0.5,0,0.9,0.1,1.3,0.3
				c0.4,0.2,0.7,0.5,0.9,0.9c0.2,0.4,0.4,0.8,0.6,1.4c0.1,0.5,0.2,1.3,0.2,2.2c0,1.1-0.1,1.9-0.3,2.6s-0.6,1.2-1,1.5
				c-0.4,0.4-1,0.5-1.7,0.5c-0.9,0-1.6-0.3-2.1-1C508,775.8,507.7,774.5,507.7,772.8z M508.8,772.8c0,1.5,0.2,2.5,0.5,3
				c0.4,0.5,0.8,0.7,1.3,0.7s1-0.2,1.3-0.8c0.4-0.5,0.5-1.5,0.5-3c0-1.5-0.2-2.5-0.5-3c-0.4-0.5-0.8-0.7-1.3-0.7
				c-0.5,0-0.9,0.2-1.2,0.7C509,770.2,508.8,771.3,508.8,772.8z"/>
			<path class="st12" d="M520.8,780c-0.6-0.8-1.1-1.7-1.6-2.8c-0.4-1.1-0.6-2.1-0.6-3.3c0-1,0.2-1.9,0.5-2.9c0.4-1.1,1-2.1,1.7-3.2
				h0.8c-0.5,0.9-0.8,1.5-1,1.9c-0.3,0.6-0.5,1.2-0.6,1.8c-0.2,0.8-0.3,1.6-0.3,2.4c0,2,0.6,4,1.9,6H520.8z"/>
			<path class="st12" d="M528.5,770.4l-1.1,0.1c-0.1-0.4-0.2-0.8-0.4-1c-0.3-0.3-0.7-0.5-1.1-0.5c-0.4,0-0.7,0.1-0.9,0.3
				c-0.4,0.3-0.6,0.6-0.8,1.1c-0.2,0.5-0.3,1.2-0.3,2.1c0.3-0.4,0.6-0.7,1-0.9s0.8-0.3,1.2-0.3c0.8,0,1.4,0.3,1.9,0.8
				c0.5,0.6,0.8,1.3,0.8,2.1c0,0.6-0.1,1.1-0.4,1.6s-0.6,0.9-1,1.1c-0.4,0.3-0.9,0.4-1.5,0.4c-0.9,0-1.7-0.3-2.3-1s-0.9-1.8-0.9-3.4
				c0-1.8,0.3-3.1,1-3.9c0.6-0.7,1.3-1.1,2.3-1.1c0.7,0,1.3,0.2,1.8,0.6C528.1,769.1,528.4,769.7,528.5,770.4z M523.9,774.3
				c0,0.4,0.1,0.8,0.2,1.1c0.2,0.4,0.4,0.6,0.7,0.8c0.3,0.2,0.6,0.3,0.9,0.3c0.5,0,0.9-0.2,1.2-0.6c0.3-0.4,0.5-0.9,0.5-1.6
				c0-0.6-0.2-1.1-0.5-1.5s-0.8-0.5-1.3-0.5c-0.5,0-0.9,0.2-1.3,0.5C524.1,773.3,523.9,773.7,523.9,774.3z"/>
			<path class="st12" d="M530.1,771.4l-0.3-1.7v-1.5h1.3v1.5l-0.3,1.7H530.1z M532.2,771.4l-0.3-1.7v-1.5h1.3v1.5l-0.3,1.7H532.2z"
				/>
			<path class="st12" d="M535.4,780h-0.8c1.2-2,1.9-4,1.9-6c0-0.8-0.1-1.6-0.3-2.3c-0.1-0.6-0.3-1.2-0.6-1.8c-0.2-0.4-0.5-1-1-1.9
				h0.8c0.8,1,1.4,2.1,1.7,3.2c0.3,0.9,0.5,1.9,0.5,2.9c0,1.1-0.2,2.2-0.6,3.3C536.5,778.3,536,779.2,535.4,780z"/>
		</g>
		<line class="st8" x1="176.9" y1="782.8" x2="825" y2="782.8"/>
		<polygon class="st2" points="179.5,786.6 165,782.7 179.5,778.8 		"/>
		<polygon class="st2" points="822.3,786.6 836.8,782.7 822.3,778.8 		"/>
		<g>
			<path class="st12" d="M479.9,19.1h-1.1v-7.2c-0.3,0.3-0.6,0.5-1.1,0.8c-0.4,0.3-0.8,0.5-1.2,0.6v-1.1c0.6-0.3,1.2-0.7,1.7-1.1
				c0.5-0.4,0.8-0.8,1-1.2h0.7V19.1z"/>
			<path class="st12" d="M482.7,14.5c0-1.1,0.1-2,0.3-2.6c0.2-0.7,0.6-1.2,1-1.5c0.4-0.4,1-0.5,1.7-0.5c0.5,0,0.9,0.1,1.3,0.3
				c0.4,0.2,0.7,0.5,0.9,0.9c0.2,0.4,0.4,0.8,0.6,1.4c0.1,0.5,0.2,1.3,0.2,2.2c0,1.1-0.1,1.9-0.3,2.6s-0.6,1.2-1,1.5
				c-0.4,0.4-1,0.5-1.7,0.5c-0.9,0-1.6-0.3-2.1-1C483,17.5,482.7,16.3,482.7,14.5z M483.9,14.5c0,1.5,0.2,2.5,0.5,3
				c0.4,0.5,0.8,0.7,1.3,0.7s1-0.2,1.3-0.8c0.4-0.5,0.5-1.5,0.5-3c0-1.5-0.2-2.5-0.5-3c-0.4-0.5-0.8-0.7-1.3-0.7
				c-0.5,0-0.9,0.2-1.2,0.7C484.1,12,483.9,13,483.9,14.5z"/>
			<path class="st12" d="M494.1,19.1H493v-7.2c-0.3,0.3-0.6,0.5-1.1,0.8c-0.4,0.3-0.8,0.5-1.2,0.6v-1.1c0.6-0.3,1.2-0.7,1.7-1.1
				c0.5-0.4,0.8-0.8,1-1.2h0.7V19.1z"/>
			<path class="st12" d="M497.6,19.1v-1.3h1.3v1.3H497.6z"/>
			<path class="st12" d="M506.4,12.1l-1.1,0.1c-0.1-0.4-0.2-0.8-0.4-1c-0.3-0.3-0.7-0.5-1.1-0.5c-0.4,0-0.7,0.1-0.9,0.3
				c-0.4,0.3-0.6,0.6-0.8,1.1c-0.2,0.5-0.3,1.2-0.3,2.1c0.3-0.4,0.6-0.7,1-0.9s0.8-0.3,1.2-0.3c0.8,0,1.4,0.3,1.9,0.8
				c0.5,0.6,0.8,1.3,0.8,2.1c0,0.6-0.1,1.1-0.4,1.6s-0.6,0.9-1,1.1c-0.4,0.3-0.9,0.4-1.5,0.4c-0.9,0-1.7-0.3-2.3-1s-0.9-1.8-0.9-3.4
				c0-1.8,0.3-3.1,1-3.9c0.6-0.7,1.3-1.1,2.3-1.1c0.7,0,1.3,0.2,1.8,0.6C506,10.9,506.3,11.4,506.4,12.1z M501.8,16.1
				c0,0.4,0.1,0.8,0.2,1.1c0.2,0.4,0.4,0.6,0.7,0.8c0.3,0.2,0.6,0.3,0.9,0.3c0.5,0,0.9-0.2,1.2-0.6c0.3-0.4,0.5-0.9,0.5-1.6
				c0-0.6-0.2-1.1-0.5-1.5s-0.8-0.5-1.3-0.5c-0.5,0-0.9,0.2-1.3,0.5C502,15,501.8,15.5,501.8,16.1z"/>
			<path class="st12" d="M507.7,14.5c0-1.1,0.1-2,0.3-2.6c0.2-0.7,0.6-1.2,1-1.5c0.4-0.4,1-0.5,1.7-0.5c0.5,0,0.9,0.1,1.3,0.3
				c0.4,0.2,0.7,0.5,0.9,0.9c0.2,0.4,0.4,0.8,0.6,1.4c0.1,0.5,0.2,1.3,0.2,2.2c0,1.1-0.1,1.9-0.3,2.6s-0.6,1.2-1,1.5
				c-0.4,0.4-1,0.5-1.7,0.5c-0.9,0-1.6-0.3-2.1-1C508,17.5,507.7,16.3,507.7,14.5z M508.8,14.5c0,1.5,0.2,2.5,0.5,3
				c0.4,0.5,0.8,0.7,1.3,0.7s1-0.2,1.3-0.8c0.4-0.5,0.5-1.5,0.5-3c0-1.5-0.2-2.5-0.5-3c-0.4-0.5-0.8-0.7-1.3-0.7
				c-0.5,0-0.9,0.2-1.2,0.7C509,12,508.8,13,508.8,14.5z"/>
			<path class="st12" d="M520.8,21.8c-0.6-0.8-1.1-1.7-1.6-2.8c-0.4-1.1-0.6-2.1-0.6-3.3c0-1,0.2-1.9,0.5-2.9c0.4-1.1,1-2.1,1.7-3.2
				h0.8c-0.5,0.9-0.8,1.5-1,1.9c-0.3,0.6-0.5,1.2-0.6,1.8c-0.2,0.8-0.3,1.6-0.3,2.4c0,2,0.6,4,1.9,6H520.8z"/>
			<path class="st12" d="M526.2,19.1v-2.2h-4v-1l4.2-5.9h0.9v5.9h1.2v1h-1.2v2.2H526.2z M526.2,15.8v-4.1l-2.9,4.1H526.2z"/>
			<path class="st12" d="M530.1,13.1l-0.3-1.7V9.9h1.3v1.5l-0.3,1.7H530.1z M532.2,13.1l-0.3-1.7V9.9h1.3v1.5l-0.3,1.7H532.2z"/>
			<path class="st12" d="M535.4,21.8h-0.8c1.2-2,1.9-4,1.9-6c0-0.8-0.1-1.6-0.3-2.3c-0.1-0.6-0.3-1.2-0.6-1.8c-0.2-0.4-0.5-1-1-1.9
				h0.8c0.8,1,1.4,2.1,1.7,3.2c0.3,0.9,0.5,1.9,0.5,2.9c0,1.1-0.2,2.2-0.6,3.3C536.5,20.1,536,21,535.4,21.8z"/>
		</g>
		<polygon class="st2" points="710.2,28.3 724.7,24.4 710.2,20.5 		"/>
		<g>
			<path class="st12" d="M261.7,619.3h-1.1v-7.2c-0.3,0.3-0.6,0.5-1.1,0.8s-0.8,0.5-1.2,0.6v-1.1c0.6-0.3,1.2-0.7,1.7-1.1
				c0.5-0.4,0.8-0.8,1-1.2h0.7V619.3z"/>
			<path class="st12" d="M270.5,618.3v1.1h-6.1c0-0.3,0-0.5,0.1-0.8c0.2-0.4,0.4-0.8,0.7-1.2c0.3-0.4,0.8-0.9,1.5-1.4
				c1-0.8,1.7-1.5,2-1.9c0.4-0.5,0.5-0.9,0.5-1.4c0-0.4-0.2-0.8-0.5-1.1c-0.3-0.3-0.7-0.5-1.2-0.5c-0.5,0-1,0.2-1.3,0.5
				c-0.3,0.3-0.5,0.8-0.5,1.4l-1.2-0.1c0.1-0.9,0.4-1.5,0.9-2c0.5-0.5,1.2-0.7,2.1-0.7c0.9,0,1.6,0.2,2.1,0.7
				c0.5,0.5,0.8,1.1,0.8,1.8c0,0.4-0.1,0.7-0.2,1.1c-0.1,0.4-0.4,0.7-0.7,1.1c-0.3,0.4-0.9,0.9-1.7,1.6c-0.7,0.6-1.1,1-1.3,1.2
				s-0.4,0.4-0.5,0.6H270.5z"/>
			<path class="st12" d="M272.2,611c0-0.3,0.1-0.6,0.3-0.8c0.2-0.2,0.5-0.3,0.8-0.3c0.3,0,0.6,0.1,0.8,0.3c0.2,0.2,0.3,0.5,0.3,0.8
				c0,0.3-0.1,0.6-0.3,0.8c-0.2,0.2-0.5,0.3-0.8,0.3c-0.3,0-0.6-0.1-0.8-0.3C272.3,611.6,272.2,611.3,272.2,611z M272.7,611
				c0,0.2,0.1,0.4,0.2,0.5c0.1,0.1,0.3,0.2,0.5,0.2s0.3-0.1,0.5-0.2c0.1-0.1,0.2-0.3,0.2-0.5s-0.1-0.3-0.2-0.5s-0.3-0.2-0.5-0.2
				c-0.2,0-0.3,0.1-0.5,0.2C272.8,610.6,272.7,610.8,272.7,611z"/>
		</g>
		<g>
			<path class="st8" d="M289.3,597.1c0,0-7.8,8.5-7.8,17.5c0,11,5.1,17.8,5.1,17.8"/>
		</g>
		<polygon class="st12" points="282.4,601.3 291.7,593.7 287.6,605 		"/>
		<polygon class="st12" points="286.3,626.3 291.4,637.1 281.4,630.5 		"/>
		<g>
			<path class="st12" d="M272.5,268.5h-1.1v-7.2c-0.3,0.3-0.6,0.5-1.1,0.8c-0.4,0.3-0.8,0.5-1.2,0.6v-1.1c0.6-0.3,1.2-0.7,1.7-1.1
				c0.5-0.4,0.8-0.8,1-1.2h0.7V268.5z"/>
			<path class="st12" d="M281.3,267.4v1.1h-6.1c0-0.3,0-0.5,0.1-0.8c0.2-0.4,0.4-0.8,0.7-1.2c0.3-0.4,0.8-0.9,1.5-1.4
				c1-0.8,1.7-1.5,2-1.9c0.4-0.5,0.5-0.9,0.5-1.4c0-0.4-0.2-0.8-0.5-1.1c-0.3-0.3-0.7-0.5-1.2-0.5c-0.5,0-1,0.2-1.3,0.5
				c-0.3,0.3-0.5,0.8-0.5,1.4l-1.2-0.1c0.1-0.9,0.4-1.5,0.9-2s1.2-0.7,2.1-0.7c0.9,0,1.6,0.2,2.1,0.7c0.5,0.5,0.8,1.1,0.8,1.8
				c0,0.4-0.1,0.7-0.2,1.1c-0.1,0.4-0.4,0.7-0.7,1.1s-0.9,0.9-1.7,1.6c-0.7,0.6-1.1,1-1.3,1.2c-0.2,0.2-0.4,0.4-0.5,0.6H281.3z"/>
			<path class="st12" d="M283,260.1c0-0.3,0.1-0.6,0.3-0.8c0.2-0.2,0.5-0.3,0.8-0.3c0.3,0,0.6,0.1,0.8,0.3c0.2,0.2,0.3,0.5,0.3,0.8
				c0,0.3-0.1,0.6-0.3,0.8c-0.2,0.2-0.5,0.3-0.8,0.3c-0.3,0-0.6-0.1-0.8-0.3C283.1,260.7,283,260.4,283,260.1z M283.5,260.1
				c0,0.2,0.1,0.4,0.2,0.5c0.1,0.1,0.3,0.2,0.5,0.2s0.3-0.1,0.5-0.2c0.1-0.1,0.2-0.3,0.2-0.5s-0.1-0.3-0.2-0.5
				c-0.1-0.1-0.3-0.2-0.5-0.2c-0.2,0-0.3,0.1-0.5,0.2S283.5,259.9,283.5,260.1z"/>
		</g>
		<g>
			<path class="st8" d="M300.1,246.2c0,0-7.8,8.5-7.8,17.5c0,11,5.1,17.8,5.1,17.8"/>
		</g>
		<polygon class="st12" points="293.2,250.4 302.5,242.9 298.4,254.1 		"/>
		<polygon class="st12" points="296.6,273.5 299.4,285.2 291,276.6 		"/>
		<g>
			<path class="st12" d="M356.3,555.1l4.2-8.2l3.6,1.9c0.7,0.4,1.2,0.7,1.5,1.1c0.3,0.3,0.5,0.8,0.5,1.2c0,0.5-0.1,1-0.3,1.4
				c-0.3,0.6-0.7,1-1.3,1.2c-0.6,0.2-1.3,0.2-2.1-0.1c0.2,0.3,0.4,0.5,0.4,0.7c0.2,0.5,0.3,1,0.3,1.5l0.3,3l-1.4-0.7l-0.2-2.3
				c-0.1-0.7-0.1-1.2-0.2-1.5c-0.1-0.4-0.2-0.6-0.3-0.8c-0.1-0.2-0.2-0.3-0.4-0.5c-0.1-0.1-0.3-0.2-0.6-0.3l-1.3-0.6l-1.9,3.6
				L356.3,555.1z M359.7,551.1l2.3,1.2c0.5,0.3,0.9,0.4,1.2,0.4c0.3,0,0.6,0,0.9-0.2c0.3-0.1,0.5-0.4,0.6-0.6
				c0.2-0.4,0.2-0.8,0.1-1.2c-0.2-0.4-0.5-0.7-1.1-1.1l-2.6-1.3L359.7,551.1z"/>
			<path class="st12" d="M365.2,556.9l1.1,0.4c-0.2,0.6-0.2,1.1,0,1.5c0.1,0.4,0.4,0.7,0.8,0.9c0.5,0.2,1,0.3,1.4,0.1s0.9-0.5,1.1-1
				c0.2-0.5,0.3-0.9,0.1-1.4c-0.1-0.5-0.5-0.8-0.9-1c-0.2-0.1-0.4-0.2-0.8-0.3l0.6-0.8c0.1,0,0.1,0.1,0.2,0.1
				c0.4,0.2,0.9,0.3,1.3,0.3c0.5,0,0.8-0.3,1-0.8c0.2-0.4,0.2-0.7,0.1-1.1c-0.1-0.4-0.4-0.7-0.8-0.9c-0.4-0.2-0.8-0.2-1.2-0.1
				s-0.7,0.4-1.1,0.8l-0.9-0.7c0.5-0.6,1-1,1.6-1.1s1.3-0.1,1.9,0.3c0.4,0.2,0.8,0.5,1.1,0.9c0.3,0.4,0.4,0.8,0.5,1.2
				s-0.1,0.8-0.2,1.2c-0.2,0.4-0.4,0.6-0.8,0.8c-0.3,0.2-0.7,0.3-1.2,0.3c0.4,0.4,0.7,0.8,0.8,1.3c0.1,0.5,0,1-0.3,1.5
				c-0.4,0.7-0.9,1.2-1.7,1.4c-0.8,0.2-1.6,0.1-2.4-0.3c-0.7-0.4-1.2-0.9-1.5-1.6C364.9,558.3,364.9,557.7,365.2,556.9z"/>
			<path class="st12" d="M369.9,562.2l6.7-7.2l0.8,0.4l-6.7,7.2L369.9,562.2z"/>
		</g>
		<g>
			<path class="st12" d="M376.8,565.6l1-2l-3.5-1.8l0.5-0.9l6.4-3.4l0.8,0.4l-2.7,5.3l1.1,0.6l-0.5,0.9l-1.1-0.6l-1,2L376.8,565.6z
				 M378.3,562.8l1.9-3.7l-4.4,2.4L378.3,562.8z"/>
		</g>
		<g>
			<path class="st12" d="M382.9,562.1l0.5-1.7l0.7-1.3l1.1,0.6l-0.7,1.3l-1,1.4L382.9,562.1z M384.8,563.1l0.5-1.7l0.7-1.3l1.1,0.6
				l-0.7,1.3l-1.1,1.4L384.8,563.1z"/>
		</g>
		<line class="st13" x1="400.3" y1="583.1" x2="353.3" y2="559.9"/>
		<polygon class="st12" points="400.3,579.6 409.2,587.6 397.5,585.4 		"/>
		<g>
			<path class="st12" d="M211.7,684.1l4.2-8.2l3.6,1.9c0.7,0.4,1.2,0.7,1.5,1.1c0.3,0.3,0.5,0.8,0.5,1.2c0,0.5-0.1,1-0.3,1.4
				c-0.3,0.6-0.7,1-1.3,1.2c-0.6,0.2-1.3,0.2-2.1-0.1c0.2,0.3,0.4,0.5,0.4,0.7c0.2,0.5,0.3,1,0.3,1.5l0.3,2.9l-1.4-0.7l-0.2-2.3
				c-0.1-0.7-0.1-1.2-0.2-1.5c-0.1-0.4-0.2-0.6-0.3-0.8c-0.1-0.2-0.2-0.3-0.4-0.5c-0.1-0.1-0.3-0.2-0.6-0.3l-1.3-0.6l-1.9,3.6
				L211.7,684.1z M215.2,680.1l2.3,1.2c0.5,0.3,0.9,0.4,1.2,0.4c0.3,0,0.6,0,0.9-0.2c0.3-0.1,0.5-0.4,0.6-0.6
				c0.2-0.4,0.2-0.8,0.1-1.2s-0.5-0.7-1.1-1.1l-2.6-1.3L215.2,680.1z"/>
			<path class="st12" d="M223.3,690.1l-1-0.5l3.3-6.4c-0.4,0.1-0.8,0.2-1.3,0.2c-0.5,0-0.9,0-1.3,0l0.5-1c0.7,0,1.3,0,2-0.2
				c0.6-0.2,1.1-0.4,1.5-0.6l0.6,0.3L223.3,690.1z"/>
			<path class="st12" d="M225.3,691.3l6.7-7.2l0.8,0.4l-6.7,7.2L225.3,691.3z"/>
			<path class="st12" d="M234.8,694.8l-0.5,1l-5.4-2.8c0.1-0.2,0.3-0.5,0.5-0.6c0.3-0.3,0.7-0.5,1.2-0.7c0.5-0.2,1.1-0.4,1.9-0.6
				c1.3-0.3,2.2-0.5,2.7-0.8c0.5-0.3,0.9-0.6,1.1-1c0.2-0.4,0.2-0.8,0.1-1.2c-0.1-0.4-0.4-0.7-0.9-1c-0.5-0.2-0.9-0.3-1.4-0.2
				c-0.4,0.1-0.8,0.5-1.1,1l-1-0.6c0.5-0.7,1-1.2,1.7-1.3c0.7-0.2,1.4,0,2.2,0.4c0.8,0.4,1.3,0.9,1.5,1.6c0.2,0.7,0.2,1.3-0.1,2
				c-0.2,0.3-0.4,0.6-0.7,0.9c-0.3,0.2-0.7,0.5-1.2,0.7c-0.5,0.2-1.2,0.4-2.3,0.6c-0.9,0.2-1.4,0.3-1.7,0.4
				c-0.3,0.1-0.5,0.2-0.7,0.3L234.8,694.8z"/>
			<path class="st12" d="M238.4,691.2l0.5-1.7l0.7-1.3l1.1,0.6l-0.7,1.3l-1,1.4L238.4,691.2z M240.3,692.2l0.5-1.7l0.7-1.3l1.1,0.6
				l-0.7,1.3l-1.1,1.4L240.3,692.2z"/>
		</g>
		<line class="st13" x1="187.2" y1="678.4" x2="234.1" y2="701.5"/>
		<polygon class="st12" points="187.2,681.8 178.2,673.8 190,676.1 		"/>
		<g>
			<path class="st12" d="M106.3,757.2l-4-8.3l3.7-1.8c0.7-0.4,1.3-0.5,1.8-0.6c0.5,0,0.9,0.1,1.3,0.3c0.4,0.3,0.7,0.6,0.9,1.1
				c0.3,0.6,0.3,1.2,0.1,1.8c-0.2,0.6-0.7,1.1-1.4,1.6c0.4,0,0.6,0,0.9,0.1c0.5,0.1,0.9,0.4,1.4,0.7l2.5,1.6l-1.4,0.7l-1.9-1.2
				c-0.6-0.3-1-0.6-1.3-0.8c-0.3-0.2-0.6-0.3-0.8-0.3c-0.2,0-0.4,0-0.6,0c-0.1,0-0.3,0.1-0.6,0.3l-1.3,0.6l1.8,3.7L106.3,757.2z
				 M105.2,752l2.4-1.1c0.5-0.2,0.9-0.5,1.1-0.7c0.2-0.2,0.4-0.5,0.4-0.8c0-0.3,0-0.6-0.1-0.8c-0.2-0.4-0.5-0.6-0.9-0.8
				c-0.4-0.1-0.9,0-1.5,0.3l-2.6,1.3L105.2,752z"/>
		</g>
		<g>
			<path class="st12" d="M118.1,751.6l-1,0.5l-3.1-6.5c-0.1,0.4-0.3,0.7-0.6,1.2c-0.3,0.4-0.6,0.8-0.8,1l-0.5-1
				c0.4-0.5,0.8-1.1,1-1.7c0.2-0.6,0.4-1.1,0.4-1.5l0.7-0.3L118.1,751.6z"/>
			<path class="st12" d="M120.3,750.7l-1.7-9.7l0.8-0.4l1.7,9.7L120.3,750.7z"/>
			<path class="st12" d="M127.7,747l-1,0.5l-3.1-6.5c-0.1,0.3-0.3,0.7-0.6,1.2c-0.3,0.4-0.6,0.8-0.8,1l-0.5-1c0.4-0.5,0.8-1.1,1-1.7
				s0.4-1.1,0.4-1.5l0.7-0.3L127.7,747z"/>
			<path class="st12" d="M132.6,736.9l-1,0.6c-0.3-0.4-0.5-0.6-0.8-0.7c-0.4-0.2-0.8-0.1-1.2,0c-0.3,0.2-0.6,0.4-0.7,0.7
				c-0.2,0.4-0.3,0.8-0.3,1.4c0,0.5,0.2,1.2,0.6,2.1c0.1-0.5,0.2-0.9,0.5-1.3c0.3-0.3,0.6-0.6,1-0.8c0.7-0.3,1.4-0.4,2.1-0.1
				c0.7,0.3,1.3,0.8,1.6,1.6c0.2,0.5,0.4,1.1,0.4,1.6c0,0.6-0.2,1-0.4,1.5c-0.3,0.4-0.7,0.8-1.2,1c-0.8,0.4-1.7,0.4-2.5,0.1
				c-0.8-0.4-1.6-1.3-2.3-2.7c-0.8-1.6-1-2.9-0.8-3.9c0.2-0.9,0.8-1.5,1.6-1.9c0.7-0.3,1.3-0.4,1.9-0.2
				C131.7,736,132.2,736.3,132.6,736.9z M130.2,742.5c0.2,0.3,0.4,0.6,0.7,0.9c0.3,0.2,0.6,0.4,1,0.4c0.3,0,0.7,0,1-0.2
				c0.4-0.2,0.7-0.6,0.9-1c0.1-0.5,0.1-1-0.2-1.6c-0.3-0.6-0.6-0.9-1.1-1.1c-0.5-0.2-0.9-0.2-1.4,0.1c-0.5,0.2-0.8,0.6-0.9,1.1
				C129.9,741.5,129.9,742,130.2,742.5z"/>
			<path class="st12" d="M134.5,737.1l-1-1.4l-0.6-1.4l1.2-0.6l0.6,1.4l0.5,1.7L134.5,737.1z M136.4,736.2l-1-1.4l-0.6-1.4l1.2-0.6
				l0.6,1.4l0.5,1.7L136.4,736.2z"/>
		</g>
		<line class="st13" x1="155.1" y1="739.1" x2="108.3" y2="762.5"/>
		<polygon class="st12" points="152.4,737.1 164.2,734.8 155.3,742.8 		"/>
		<g>
			<path class="st12" d="M335.4,100.8l1-1.5l1.1-1.1l0.9,0.9l-1.1,1.1l-1.4,1L335.4,100.8z M336.9,102.2l1-1.5l1.1-1.1l0.9,0.9
				l-1.1,1.1l-1.4,1L336.9,102.2z"/>
		</g>
		<line class="st13" x1="292.2" y1="224.2" x2="335.2" y2="194.4"/>
		<polygon class="st12" points="295.2,225.9 283.9,229.8 291.5,220.6 		"/>
		<line class="st13" x1="392.8" y1="312.1" x2="349.8" y2="341.9"/>
		<polygon class="st12" points="389.8,310.5 401.1,306.5 393.4,315.7 		"/>
		<g>
			<path class="st12" d="M666.1,196l4.8-7.8l3.5,2.1c0.7,0.4,1.2,0.8,1.5,1.2c0.3,0.4,0.4,0.8,0.4,1.3c0,0.5-0.1,0.9-0.4,1.4
				c-0.3,0.6-0.8,0.9-1.4,1.1c-0.6,0.2-1.3,0.1-2.1-0.3c0.2,0.3,0.3,0.6,0.4,0.8c0.1,0.5,0.2,1,0.2,1.6l0.1,3l-1.3-0.8l0-2.3
				c0-0.7,0-1.2-0.1-1.5c0-0.4-0.1-0.6-0.2-0.8c-0.1-0.2-0.2-0.4-0.3-0.5c-0.1-0.1-0.3-0.2-0.6-0.4l-1.2-0.7l-2.1,3.5L666.1,196z
				 M669.8,192.2l2.2,1.4c0.5,0.3,0.9,0.5,1.2,0.5c0.3,0.1,0.6,0,0.9-0.1c0.3-0.1,0.5-0.3,0.6-0.6c0.2-0.4,0.3-0.8,0.2-1.2
				c-0.1-0.4-0.5-0.8-1.1-1.1l-2.5-1.5L669.8,192.2z"/>
			<path class="st12" d="M677.8,193.7l0.6-0.9l5.1,3.1l-0.5,0.7c-0.8,0.2-1.7,0.6-2.8,1.2c-1,0.6-2,1.3-2.8,2
				c-0.6,0.5-1.1,1.2-1.7,1.9l-1-0.6c0.4-0.6,1-1.3,1.7-2c0.8-0.7,1.6-1.4,2.5-1.9c0.9-0.5,1.8-1,2.6-1.2L677.8,193.7z"/>
			<path class="st12" d="M680.2,204.5l0.7-1.1l1.1,0.7l-0.7,1.1L680.2,204.5z"/>
			<path class="st12" d="M683.9,204.3l1,0.5c-0.2,0.5-0.2,0.9-0.1,1.2c0.1,0.3,0.3,0.6,0.7,0.8c0.3,0.2,0.6,0.3,0.9,0.3
				c0.3,0,0.6-0.1,0.9-0.2s0.6-0.4,0.9-0.7c0.3-0.3,0.6-0.7,0.9-1.1c0,0,0.1-0.1,0.1-0.2c-0.4,0.2-0.8,0.3-1.2,0.3
				c-0.4,0-0.9-0.1-1.3-0.4c-0.6-0.4-1.1-1-1.2-1.7c-0.2-0.7,0-1.5,0.5-2.3c0.5-0.8,1.1-1.3,1.9-1.5c0.8-0.2,1.5-0.1,2.2,0.3
				c0.5,0.3,0.9,0.7,1.1,1.3c0.3,0.5,0.3,1.1,0.2,1.8c-0.1,0.6-0.4,1.4-1,2.4c-0.6,1-1.2,1.7-1.8,2.2c-0.6,0.5-1.2,0.7-1.8,0.8
				c-0.6,0-1.2-0.1-1.8-0.5c-0.6-0.4-1-0.8-1.2-1.4C683.6,205.6,683.6,205,683.9,204.3z M690,203.3c0.3-0.6,0.5-1.1,0.4-1.6
				c-0.1-0.5-0.4-0.9-0.8-1.1c-0.4-0.3-0.9-0.3-1.4-0.2c-0.5,0.2-1,0.5-1.3,1.1c-0.3,0.5-0.4,1-0.3,1.5c0.1,0.5,0.4,0.9,0.8,1.1
				c0.4,0.3,0.9,0.3,1.4,0.2C689.2,204.2,689.6,203.8,690,203.3z"/>
			<path class="st12" d="M691.9,211.6l1.1-1.9l-3.4-2.1l0.5-0.9l6.7-2.9l0.8,0.5l-3.1,5.1l1.1,0.6L695,211l-1.1-0.6l-1.1,1.9
				L691.9,211.6z M693.5,208.9l2.1-3.5l-4.6,2L693.5,208.9z"/>
		</g>
		<line class="st13" x1="706.3" y1="226.5" x2="661.7" y2="199.1"/>
		<polygon class="st12" points="706.6,223.2 714.8,231.9 703.3,228.6 		"/>
		<g>
			<path class="st12" d="M667.2,103.4l-5.6-7.3l3.2-2.5c0.6-0.5,1.2-0.8,1.6-0.9s0.9-0.1,1.3,0.1c0.5,0.2,0.8,0.5,1.1,0.9
				c0.4,0.5,0.6,1.1,0.5,1.7c-0.1,0.6-0.4,1.2-1,1.9c0.3-0.1,0.6-0.1,0.9-0.1c0.5,0,1,0.2,1.5,0.3l2.8,1l-1.2,0.9l-2.1-0.8
				c-0.6-0.2-1.1-0.4-1.5-0.5c-0.4-0.1-0.6-0.1-0.9-0.1c-0.2,0-0.4,0.1-0.6,0.1c-0.1,0.1-0.3,0.2-0.6,0.4l-1.1,0.9l2.5,3.2
				L667.2,103.4z M665,98.6l2.1-1.6c0.4-0.3,0.7-0.6,0.9-0.9c0.2-0.3,0.3-0.6,0.2-0.9c0-0.3-0.1-0.6-0.3-0.8c-0.3-0.3-0.6-0.5-1-0.6
				c-0.4,0-0.9,0.2-1.4,0.6l-2.3,1.8L665,98.6z"/>
		</g>
		<g>
			<path class="st12" d="M674.5,89l-0.8,0.8c-0.3-0.3-0.7-0.5-0.9-0.5c-0.4-0.1-0.8,0-1.2,0.3c-0.3,0.2-0.5,0.5-0.6,0.8
				c-0.1,0.4-0.1,0.9,0,1.4c0.1,0.5,0.5,1.1,1,1.9c0-0.5,0-0.9,0.2-1.3c0.2-0.4,0.5-0.7,0.8-1c0.6-0.5,1.3-0.6,2-0.5
				s1.4,0.5,1.9,1.2c0.4,0.5,0.6,1,0.7,1.5c0.1,0.5,0.1,1.1-0.1,1.5c-0.2,0.5-0.5,0.9-0.9,1.2c-0.7,0.6-1.6,0.8-2.4,0.6
				c-0.9-0.2-1.8-0.9-2.8-2.2c-1.1-1.4-1.6-2.6-1.6-3.7c0-0.9,0.4-1.7,1.2-2.2c0.6-0.4,1.2-0.6,1.8-0.6
				C673.4,88.2,674,88.5,674.5,89z M673.3,94.9c0.2,0.3,0.5,0.5,0.9,0.7c0.3,0.2,0.7,0.3,1,0.2c0.3,0,0.7-0.2,0.9-0.4
				c0.4-0.3,0.6-0.7,0.6-1.2c0-0.5-0.1-1-0.6-1.6c-0.4-0.5-0.8-0.8-1.3-0.9c-0.5-0.1-0.9,0-1.3,0.3c-0.4,0.3-0.6,0.7-0.7,1.2
				C672.8,94,672.9,94.5,673.3,94.9z"/>
		</g>
		<g>
			<path class="st12" d="M680.3,93.3l-0.8-1l1-0.8l0.8,1L680.3,93.3z"/>
			<path class="st12" d="M681.1,89.6l0.8-0.8c0.5,0.4,0.9,0.7,1.4,0.7c0.4,0,0.8-0.1,1.2-0.4c0.4-0.3,0.7-0.7,0.7-1.3
				c0.1-0.5-0.1-1-0.4-1.4c-0.3-0.4-0.7-0.6-1.2-0.7c-0.5-0.1-0.9,0.1-1.3,0.4c-0.2,0.1-0.4,0.3-0.6,0.6l-0.5-0.9
				c0.1,0,0.1-0.1,0.2-0.1c0.4-0.3,0.6-0.7,0.8-1.1c0.2-0.4,0.1-0.9-0.3-1.3c-0.3-0.3-0.6-0.5-1-0.6c-0.4,0-0.8,0.1-1.1,0.3
				c-0.3,0.3-0.6,0.6-0.6,1c-0.1,0.4,0,0.8,0.3,1.3l-1,0.5c-0.4-0.7-0.5-1.3-0.3-2c0.1-0.6,0.5-1.2,1.1-1.6c0.4-0.3,0.8-0.5,1.3-0.6
				c0.5-0.1,0.9-0.1,1.3,0.1c0.4,0.2,0.7,0.4,1,0.7c0.2,0.3,0.4,0.7,0.4,1.1c0,0.4-0.1,0.8-0.3,1.2c0.5-0.2,1-0.3,1.5-0.2
				c0.5,0.1,0.9,0.4,1.3,0.9c0.5,0.6,0.7,1.3,0.6,2.1c-0.1,0.8-0.5,1.5-1.2,2c-0.6,0.5-1.3,0.7-2,0.7
				C682.3,90.5,681.6,90.2,681.1,89.6z"/>
		</g>
		<g>
			<path class="st12" d="M686.8,85.3l0.9-0.8c0.4,0.4,0.8,0.6,1.3,0.7c0.4,0,0.8-0.1,1.2-0.4c0.4-0.3,0.7-0.8,0.7-1.3
				c0-0.6-0.1-1.1-0.5-1.6c-0.4-0.5-0.8-0.8-1.4-0.9c-0.5-0.1-1,0.1-1.5,0.4c-0.3,0.2-0.5,0.5-0.6,0.8c-0.1,0.3-0.2,0.6-0.2,0.9
				l-0.9,0.5l-2.2-4.3l3.6-2.8l0.7,0.9l-2.9,2.2l1.1,2.3c0.2-0.6,0.5-1.1,1-1.5c0.6-0.5,1.3-0.7,2.1-0.6s1.4,0.5,2,1.2
				c0.5,0.7,0.8,1.4,0.7,2.1c0,0.9-0.4,1.7-1.2,2.4c-0.7,0.5-1.3,0.7-2,0.7C687.9,86.1,687.3,85.8,686.8,85.3z"/>
		</g>
		<line class="st13" x1="710.1" y1="76.7" x2="668.5" y2="108.5"/>
		<polygon class="st12" points="707,75.2 718.1,70.7 710.9,80.3 		"/>
		<g>
			<path class="st12" d="M905,390.8v1.1h-7.2c0.3,0.3,0.5,0.6,0.8,1.1c0.3,0.4,0.5,0.8,0.6,1.2h-1.1c-0.3-0.6-0.7-1.2-1.1-1.7
				c-0.4-0.5-0.8-0.8-1.2-1v-0.7H905z"/>
			<path class="st12" d="M902.6,387.9l-0.1-1.2c0.6-0.1,1-0.3,1.3-0.6c0.3-0.3,0.4-0.7,0.4-1.2c0-0.5-0.2-1-0.6-1.4s-1-0.6-1.6-0.6
				c-0.6,0-1.1,0.2-1.5,0.5s-0.6,0.8-0.6,1.4c0,0.4,0.1,0.7,0.2,1c0.2,0.3,0.4,0.5,0.6,0.7l-0.1,1.1l-4.7-0.9v-4.6h1.1v3.7l2.5,0.5
				c-0.4-0.6-0.6-1.1-0.6-1.7c0-0.8,0.3-1.5,0.8-2s1.3-0.8,2.1-0.8c0.8,0,1.5,0.2,2.2,0.7c0.7,0.6,1.1,1.4,1.1,2.4
				c0,0.8-0.2,1.5-0.7,2C904,387.5,903.4,387.8,902.6,387.9z"/>
			<path class="st12" d="M903.9,374.8h1.1v6.1c-0.3,0-0.5,0-0.8-0.1c-0.4-0.2-0.8-0.4-1.2-0.7c-0.4-0.3-0.9-0.8-1.4-1.5
				c-0.8-1-1.5-1.7-1.9-2c-0.5-0.4-0.9-0.5-1.4-0.5c-0.4,0-0.8,0.2-1.1,0.5c-0.3,0.3-0.5,0.7-0.5,1.2c0,0.5,0.2,1,0.5,1.3
				c0.3,0.3,0.8,0.5,1.4,0.5l-0.1,1.2c-0.9-0.1-1.5-0.4-2-0.9s-0.7-1.2-0.7-2.1c0-0.9,0.2-1.6,0.7-2.1c0.5-0.5,1.1-0.8,1.8-0.8
				c0.4,0,0.7,0.1,1.1,0.2c0.4,0.1,0.7,0.4,1.1,0.7s0.9,0.9,1.6,1.7c0.6,0.7,1,1.1,1.2,1.3c0.2,0.2,0.4,0.4,0.6,0.5V374.8z"/>
			<path class="st12" d="M905,373h-1.3v-1.3h1.3V373z"/>
			<path class="st12" d="M905,366.5h-2.2v4h-1l-5.9-4.2v-0.9h5.9v-1.2h1v1.2h2.2V366.5z M901.8,366.5h-4.1l4.1,2.9V366.5z"/>
			<path class="st12" d="M900.5,362.9c-1.1,0-2-0.1-2.6-0.3c-0.7-0.2-1.2-0.6-1.5-1c-0.4-0.4-0.5-1-0.5-1.7c0-0.5,0.1-0.9,0.3-1.3
				c0.2-0.4,0.5-0.7,0.9-0.9c0.4-0.2,0.8-0.4,1.4-0.6c0.5-0.1,1.3-0.2,2.2-0.2c1.1,0,1.9,0.1,2.6,0.3s1.2,0.6,1.5,1
				c0.4,0.4,0.5,1,0.5,1.7c0,0.9-0.3,1.6-1,2.1C903.4,362.6,902.2,362.9,900.5,362.9z M900.5,361.8c1.5,0,2.5-0.2,3-0.5
				c0.5-0.4,0.7-0.8,0.7-1.3s-0.2-1-0.8-1.3c-0.5-0.4-1.5-0.5-3-0.5c-1.5,0-2.5,0.2-3,0.5c-0.5,0.4-0.7,0.8-0.7,1.3
				c0,0.5,0.2,0.9,0.7,1.2C897.9,361.6,899,361.8,900.5,361.8z"/>
			<path class="st12" d="M907.7,349.8c-0.8,0.6-1.7,1.1-2.8,1.6c-1.1,0.4-2.1,0.6-3.3,0.6c-1,0-1.9-0.2-2.9-0.5
				c-1.1-0.4-2.1-1-3.2-1.7V349c0.9,0.5,1.5,0.8,1.9,1c0.6,0.3,1.2,0.5,1.8,0.6c0.8,0.2,1.6,0.3,2.4,0.3c2,0,4-0.6,6-1.9V349.8z"/>
			<path class="st12" d="M898.1,342.2l0.1,1.1c-0.4,0.1-0.8,0.2-1,0.4c-0.3,0.3-0.5,0.7-0.5,1.1c0,0.4,0.1,0.7,0.3,0.9
				c0.3,0.4,0.6,0.6,1.1,0.8c0.5,0.2,1.2,0.3,2.1,0.3c-0.4-0.3-0.7-0.6-0.9-1s-0.3-0.8-0.3-1.2c0-0.8,0.3-1.4,0.8-1.9
				c0.6-0.5,1.3-0.8,2.1-0.8c0.6,0,1.1,0.1,1.6,0.4s0.9,0.6,1.1,1c0.3,0.4,0.4,0.9,0.4,1.5c0,0.9-0.3,1.7-1,2.3s-1.8,0.9-3.4,0.9
				c-1.8,0-3.1-0.3-3.9-1c-0.7-0.6-1.1-1.3-1.1-2.3c0-0.7,0.2-1.3,0.6-1.8C896.8,342.5,897.3,342.2,898.1,342.2z M902,346.8
				c0.4,0,0.8-0.1,1.1-0.2c0.4-0.2,0.6-0.4,0.8-0.7c0.2-0.3,0.3-0.6,0.3-0.9c0-0.5-0.2-0.9-0.6-1.2c-0.4-0.3-0.9-0.5-1.6-0.5
				c-0.6,0-1.1,0.2-1.5,0.5s-0.5,0.8-0.5,1.3c0,0.5,0.2,0.9,0.5,1.3C900.9,346.6,901.4,346.8,902,346.8z"/>
			<path class="st12" d="M899.1,338.4l-1.7,0.3h-1.5v-1.3h1.5l1.7,0.3V338.4z M899.1,340.5l-1.7,0.3h-1.5v-1.3h1.5l1.7,0.3V340.5z"
				/>
			<path class="st12" d="M907.7,335.3v0.8c-2-1.2-4-1.9-6-1.9c-0.8,0-1.6,0.1-2.3,0.3c-0.6,0.1-1.2,0.3-1.8,0.6
				c-0.4,0.2-1,0.5-1.9,1v-0.8c1-0.8,2.1-1.4,3.2-1.7c0.9-0.3,1.9-0.5,2.9-0.5c1.1,0,2.2,0.2,3.3,0.6
				C906,334.1,906.9,334.7,907.7,335.3z"/>
		</g>
		<g>
			<path class="st12" d="M857.8,471.4l0.1,1.1c-0.4,0.1-0.8,0.2-1,0.4c-0.3,0.3-0.5,0.7-0.5,1.1c0,0.4,0.1,0.7,0.3,0.9
				c0.3,0.4,0.6,0.6,1.1,0.8c0.5,0.2,1.2,0.3,2.1,0.3c-0.4-0.3-0.7-0.6-0.9-1c-0.2-0.4-0.3-0.8-0.3-1.2c0-0.8,0.3-1.4,0.8-1.9
				c0.6-0.5,1.3-0.8,2.1-0.8c0.6,0,1.1,0.1,1.6,0.4s0.9,0.6,1.1,1c0.3,0.4,0.4,0.9,0.4,1.5c0,0.9-0.3,1.7-1,2.3
				c-0.7,0.6-1.8,0.9-3.4,0.9c-1.8,0-3.1-0.3-3.9-1c-0.7-0.6-1.1-1.3-1.1-2.3c0-0.7,0.2-1.3,0.6-1.8
				C856.6,471.7,857.1,471.5,857.8,471.4z M861.8,476c0.4,0,0.8-0.1,1.1-0.2c0.4-0.2,0.6-0.4,0.8-0.7s0.3-0.6,0.3-0.9
				c0-0.5-0.2-0.9-0.6-1.2c-0.4-0.3-0.9-0.5-1.6-0.5c-0.6,0-1.1,0.2-1.5,0.5s-0.5,0.8-0.5,1.3c0,0.5,0.2,0.9,0.5,1.3
				S861.2,476,861.8,476z"/>
			<path class="st12" d="M862.6,469.9l-0.1-1.1c0.5-0.1,0.9-0.3,1.1-0.5c0.2-0.3,0.3-0.6,0.3-1c0-0.3-0.1-0.6-0.2-0.9
				c-0.2-0.3-0.4-0.5-0.6-0.6s-0.6-0.3-1.1-0.4c-0.5-0.1-0.9-0.2-1.4-0.2c0,0-0.1,0-0.2,0c0.4,0.2,0.6,0.5,0.9,0.9s0.3,0.8,0.3,1.3
				c0,0.8-0.3,1.4-0.8,1.9c-0.6,0.5-1.3,0.8-2.2,0.8c-0.9,0-1.7-0.3-2.2-0.8c-0.6-0.5-0.9-1.2-0.9-2.1c0-0.6,0.2-1.1,0.5-1.6
				c0.3-0.5,0.8-0.9,1.4-1.1c0.6-0.3,1.5-0.4,2.6-0.4c1.2,0,2.1,0.1,2.8,0.4c0.7,0.3,1.2,0.6,1.6,1.1c0.4,0.5,0.5,1.1,0.5,1.8
				c0,0.7-0.2,1.3-0.6,1.8C863.9,469.6,863.4,469.8,862.6,469.9z M858.6,465.3c-0.6,0-1.2,0.2-1.5,0.5c-0.4,0.3-0.6,0.8-0.6,1.2
				c0,0.5,0.2,0.9,0.6,1.3c0.4,0.4,0.9,0.6,1.6,0.6c0.6,0,1.1-0.2,1.4-0.5c0.4-0.4,0.5-0.8,0.5-1.3c0-0.5-0.2-0.9-0.5-1.3
				C859.7,465.5,859.2,465.3,858.6,465.3z"/>
			<path class="st12" d="M864.8,462.3h-1.3v-1.3h1.3V462.3z"/>
			<path class="st12" d="M859.8,457.7c-0.2,0.5-0.4,0.8-0.7,1c-0.3,0.2-0.7,0.3-1.1,0.3c-0.7,0-1.2-0.2-1.7-0.7s-0.7-1.1-0.7-1.9
				c0-0.8,0.2-1.4,0.7-1.9c0.5-0.5,1-0.7,1.7-0.7c0.4,0,0.8,0.1,1.1,0.3c0.3,0.2,0.6,0.6,0.7,1c0.2-0.6,0.5-1,0.9-1.3
				s0.9-0.4,1.5-0.4c0.8,0,1.4,0.3,2,0.8c0.5,0.6,0.8,1.3,0.8,2.2c0,0.9-0.3,1.6-0.8,2.2c-0.5,0.6-1.2,0.8-2,0.8
				c-0.6,0-1.1-0.2-1.5-0.5C860.2,458.7,859.9,458.2,859.8,457.7z M857.9,457.9c0.4,0,0.8-0.1,1.1-0.4c0.3-0.3,0.4-0.6,0.4-1.1
				c0-0.4-0.1-0.8-0.4-1.1c-0.3-0.3-0.6-0.4-1-0.4c-0.4,0-0.8,0.1-1,0.4c-0.3,0.3-0.4,0.6-0.4,1.1c0,0.4,0.1,0.8,0.4,1.1
				C857.2,457.8,857.5,457.9,857.9,457.9z M862.1,458.3c0.3,0,0.6-0.1,0.9-0.2c0.3-0.2,0.5-0.4,0.7-0.7c0.2-0.3,0.2-0.6,0.2-1
				c0-0.5-0.2-1-0.5-1.3s-0.8-0.5-1.3-0.5c-0.5,0-1,0.2-1.3,0.5s-0.5,0.8-0.5,1.4c0,0.5,0.2,1,0.5,1.3
				C861.2,458.1,861.6,458.3,862.1,458.3z"/>
			<path class="st12" d="M862.4,452.3l-0.1-1.2c0.6-0.1,1-0.3,1.3-0.6c0.3-0.3,0.4-0.7,0.4-1.2c0-0.5-0.2-1-0.6-1.4s-1-0.6-1.6-0.6
				c-0.6,0-1.1,0.2-1.5,0.5c-0.4,0.4-0.6,0.8-0.6,1.4c0,0.4,0.1,0.7,0.2,1s0.4,0.5,0.6,0.7l-0.1,1.1l-4.7-0.9v-4.6h1.1v3.7l2.5,0.5
				c-0.4-0.5-0.6-1.1-0.6-1.7c0-0.8,0.3-1.5,0.8-2c0.6-0.5,1.3-0.8,2.1-0.8c0.8,0,1.5,0.2,2.2,0.7c0.7,0.6,1.1,1.4,1.1,2.4
				c0,0.8-0.2,1.5-0.7,2C863.8,451.9,863.1,452.2,862.4,452.3z"/>
			<path class="st12" d="M867.5,439.1c-0.8,0.6-1.7,1.1-2.8,1.6c-1.1,0.4-2.1,0.6-3.3,0.6c-1,0-1.9-0.2-2.9-0.5
				c-1.1-0.4-2.1-1-3.2-1.7v-0.8c0.9,0.5,1.5,0.8,1.9,1c0.6,0.3,1.2,0.5,1.8,0.6c0.8,0.2,1.6,0.3,2.4,0.3c2,0,4-0.6,6-1.9V439.1z"/>
			<path class="st12" d="M863.7,431.4h1.1v6.1c-0.3,0-0.5,0-0.8-0.1c-0.4-0.2-0.8-0.4-1.2-0.7s-0.9-0.8-1.4-1.5
				c-0.8-1-1.5-1.7-1.9-2c-0.5-0.3-0.9-0.5-1.4-0.5c-0.4,0-0.8,0.2-1.1,0.5c-0.3,0.3-0.5,0.7-0.5,1.2c0,0.5,0.2,1,0.5,1.3
				s0.8,0.5,1.4,0.5l-0.1,1.2c-0.9-0.1-1.5-0.4-2-0.9s-0.7-1.2-0.7-2.1c0-0.9,0.2-1.6,0.7-2.1s1.1-0.8,1.8-0.8
				c0.4,0,0.7,0.1,1.1,0.2s0.7,0.4,1.1,0.7c0.4,0.3,0.9,0.9,1.6,1.7c0.6,0.7,1,1.1,1.2,1.3c0.2,0.2,0.4,0.4,0.6,0.5V431.4z"/>
			<path class="st12" d="M862.3,426.6l-0.2-1.1c0.6-0.1,1.1-0.3,1.4-0.7c0.3-0.3,0.4-0.7,0.4-1.1c0-0.5-0.2-1-0.6-1.3
				c-0.4-0.4-0.8-0.5-1.4-0.5c-0.5,0-0.9,0.2-1.3,0.5c-0.3,0.3-0.5,0.8-0.5,1.3c0,0.2,0,0.5,0.1,0.8l-1-0.1c0-0.1,0-0.1,0-0.2
				c0-0.5-0.1-0.9-0.4-1.3c-0.2-0.4-0.6-0.6-1.2-0.6c-0.4,0-0.8,0.1-1,0.4s-0.4,0.6-0.4,1.1c0,0.4,0.1,0.8,0.4,1.1
				c0.3,0.3,0.7,0.5,1.2,0.6l-0.2,1.1c-0.8-0.1-1.3-0.5-1.8-0.9s-0.6-1.1-0.6-1.8c0-0.5,0.1-1,0.3-1.4s0.5-0.7,0.9-1
				c0.4-0.2,0.8-0.3,1.2-0.3c0.4,0,0.8,0.1,1.1,0.3c0.3,0.2,0.6,0.5,0.8,0.9c0.1-0.5,0.4-1,0.8-1.3c0.4-0.3,0.9-0.5,1.5-0.5
				c0.8,0,1.5,0.3,2,0.9c0.6,0.6,0.8,1.3,0.8,2.2c0,0.8-0.2,1.5-0.7,2C863.7,426.3,863.1,426.6,862.3,426.6z"/>
			<path class="st12" d="M864.9,420.1l-9.5-2.7v-0.9l9.5,2.7V420.1z"/>
			<path class="st12" d="M864.8,412.4h-2.2v4h-1l-5.9-4.2v-0.9h5.9V410h1v1.2h2.2V412.4z M861.5,412.4h-4.1l4.1,2.9V412.4z"/>
			<path class="st12" d="M858.8,406.4l-1.7,0.3h-1.5v-1.3h1.5l1.7,0.3V406.4z M858.8,408.5l-1.7,0.3h-1.5v-1.3h1.5l1.7,0.3V408.5z"
				/>
			<path class="st12" d="M867.5,403.2v0.8c-2-1.2-4-1.9-6-1.9c-0.8,0-1.6,0.1-2.3,0.3c-0.6,0.1-1.2,0.3-1.8,0.6
				c-0.4,0.2-1,0.5-1.9,1v-0.8c1-0.8,2.1-1.4,3.2-1.7c0.9-0.3,1.9-0.5,2.9-0.5c1.1,0,2.2,0.2,3.3,0.6
				C865.8,402.1,866.7,402.6,867.5,403.2z"/>
		</g>
		<g>
			<path class="st12" d="M620.8,318l4-8.3l3.7,1.8c0.7,0.4,1.3,0.7,1.6,1c0.3,0.3,0.5,0.7,0.5,1.2c0,0.5,0,1-0.3,1.4
				c-0.3,0.6-0.7,1-1.3,1.2c-0.6,0.2-1.3,0.2-2.1-0.1c0.2,0.3,0.4,0.5,0.5,0.7c0.2,0.4,0.3,1,0.4,1.5l0.4,2.9l-1.4-0.7l-0.3-2.2
				c-0.1-0.6-0.2-1.2-0.2-1.5c-0.1-0.4-0.2-0.6-0.3-0.8c-0.1-0.2-0.2-0.3-0.4-0.5c-0.1-0.1-0.3-0.2-0.6-0.3l-1.3-0.6l-1.8,3.7
				L620.8,318z M624.1,313.9l2.4,1.1c0.5,0.2,0.9,0.4,1.2,0.4c0.3,0,0.6,0,0.9-0.2c0.3-0.2,0.4-0.4,0.6-0.6c0.2-0.4,0.2-0.8,0-1.2
				c-0.2-0.4-0.6-0.7-1.2-1l-2.6-1.3L624.1,313.9z"/>
		</g>
		<g>
			<path class="st12" d="M629.7,319.6l1.1,0.4c-0.2,0.6-0.2,1.1,0,1.5c0.2,0.4,0.4,0.7,0.8,0.9c0.5,0.2,1,0.3,1.4,0.1
				c0.5-0.2,0.8-0.5,1.1-1c0.2-0.5,0.3-0.9,0.1-1.4c-0.2-0.4-0.5-0.8-0.9-1c-0.2-0.1-0.4-0.2-0.8-0.2l0.5-0.8c0.1,0,0.1,0.1,0.2,0.1
				c0.4,0.2,0.9,0.3,1.3,0.2s0.8-0.3,1-0.8c0.2-0.4,0.2-0.7,0.1-1.1c-0.1-0.4-0.4-0.6-0.8-0.8c-0.4-0.2-0.8-0.2-1.2-0.1
				c-0.4,0.1-0.7,0.4-1,0.9l-0.9-0.7c0.5-0.6,1-1,1.6-1.2s1.3-0.1,1.9,0.2c0.5,0.2,0.8,0.5,1.1,0.9c0.3,0.4,0.4,0.8,0.5,1.2
				c0,0.4,0,0.8-0.2,1.2c-0.2,0.4-0.4,0.6-0.8,0.8c-0.3,0.2-0.7,0.3-1.2,0.3c0.4,0.3,0.7,0.8,0.8,1.2s0,1-0.2,1.5
				c-0.3,0.7-0.9,1.2-1.7,1.5c-0.8,0.2-1.6,0.2-2.4-0.2c-0.7-0.3-1.2-0.9-1.5-1.5C629.5,321,629.5,320.3,629.7,319.6z"/>
		</g>
		<g>
			<path class="st12" d="M638.9,326.7l-1-0.5l3.1-6.5c-0.4,0.1-0.8,0.2-1.3,0.2s-0.9,0-1.3,0l0.5-1c0.7,0,1.3-0.1,2-0.3
				c0.6-0.2,1.1-0.4,1.4-0.7l0.7,0.3L638.9,326.7z"/>
		</g>
		<g>
			<path class="st12" d="M642.1,328.2l0.6-1.2l1.2,0.6l-0.6,1.2L642.1,328.2z"/>
			<path class="st12" d="M648.3,322.3l0.5-1l5.3,2.6l-0.4,0.8c-0.8,0.3-1.7,0.8-2.6,1.5c-1,0.7-1.8,1.4-2.6,2.3
				c-0.5,0.6-1,1.3-1.5,2.1l-1-0.5c0.3-0.6,0.8-1.4,1.5-2.2c0.7-0.8,1.5-1.5,2.3-2.2c0.9-0.6,1.7-1.1,2.5-1.5L648.3,322.3z"/>
		</g>
		<g>
			<path class="st12" d="M652.2,330.4l1.1,0.4c-0.2,0.6-0.2,1,0,1.4s0.4,0.7,0.9,0.9c0.5,0.2,1,0.2,1.5,0c0.5-0.2,0.9-0.6,1.2-1.2
				c0.3-0.6,0.3-1.1,0.2-1.6s-0.5-0.9-1-1.1c-0.3-0.2-0.7-0.2-1-0.2c-0.3,0-0.6,0.1-0.9,0.3l-0.9-0.6l2.8-3.9l4.1,2l-0.5,1l-3.3-1.6
				l-1.5,2c0.7-0.1,1.3,0,1.8,0.2c0.7,0.3,1.2,0.9,1.5,1.6c0.3,0.7,0.2,1.5-0.2,2.3c-0.4,0.7-0.9,1.3-1.6,1.6
				c-0.9,0.4-1.7,0.4-2.7,0c-0.8-0.4-1.3-0.9-1.5-1.5C651.9,331.8,651.9,331.1,652.2,330.4z"/>
		</g>
		<line class="st13" x1="606.2" y1="315.8" x2="653.1" y2="338.9"/>
		<polygon class="st12" points="606.2,319.2 597.2,311.2 609,313.4 		"/>
		<g>
			<path class="st12" d="M609.7,571.6l-5.5-7.3l3.2-2.5c0.7-0.5,1.2-0.8,1.6-0.9c0.4-0.1,0.9-0.1,1.3,0.1c0.5,0.2,0.8,0.5,1.1,0.9
				c0.4,0.5,0.6,1.1,0.5,1.7s-0.4,1.2-1,1.9c0.3-0.1,0.6-0.1,0.9-0.1c0.5,0,1,0.2,1.5,0.4l2.8,1l-1.2,0.9l-2.1-0.8
				c-0.6-0.2-1.1-0.4-1.5-0.5c-0.4-0.1-0.6-0.1-0.9-0.1c-0.2,0-0.4,0.1-0.6,0.1c-0.1,0.1-0.3,0.2-0.6,0.4l-1.1,0.8l2.5,3.2
				L609.7,571.6z M607.6,566.8l2.1-1.6c0.4-0.3,0.8-0.6,0.9-0.9c0.2-0.3,0.3-0.6,0.2-0.9c0-0.3-0.1-0.6-0.3-0.8
				c-0.3-0.3-0.6-0.5-1-0.6c-0.4,0-0.9,0.2-1.4,0.6l-2.3,1.8L607.6,566.8z"/>
			<path class="st12" d="M620.1,563.7l-0.9,0.7l-4.3-5.7c-0.1,0.4-0.2,0.8-0.4,1.3c-0.2,0.5-0.4,0.9-0.6,1.2l-0.7-0.9
				c0.3-0.6,0.5-1.2,0.7-1.9c0.1-0.6,0.1-1.1,0.1-1.6l0.6-0.4L620.1,563.7z"/>
			<path class="st12" d="M621.3,560.2l0.8-0.7c0.4,0.3,0.7,0.5,1.1,0.6c0.3,0,0.7-0.1,1-0.3c0.3-0.2,0.5-0.5,0.6-0.7
				c0.1-0.3,0.2-0.6,0.1-0.9c0-0.3-0.1-0.7-0.3-1.1s-0.4-0.8-0.7-1.2c0,0-0.1-0.1-0.1-0.2c0,0.4,0,0.8-0.2,1.3
				c-0.2,0.4-0.4,0.8-0.8,1c-0.6,0.5-1.3,0.6-2,0.5c-0.8-0.1-1.4-0.5-1.9-1.3c-0.6-0.7-0.8-1.5-0.7-2.3c0.1-0.8,0.5-1.4,1.1-1.9
				c0.5-0.4,1-0.6,1.6-0.6s1.2,0.1,1.7,0.4c0.6,0.3,1.2,0.9,1.9,1.8c0.7,0.9,1.2,1.8,1.4,2.5c0.2,0.7,0.2,1.4,0.1,2
				c-0.2,0.6-0.5,1.1-1.1,1.5c-0.6,0.4-1.2,0.6-1.8,0.6C622.3,561,621.8,560.7,621.3,560.2z M622.5,554.2c-0.4-0.5-0.8-0.8-1.3-0.9
				c-0.5-0.1-0.9,0-1.3,0.3c-0.4,0.3-0.6,0.7-0.7,1.3c0,0.5,0.1,1.1,0.5,1.6c0.4,0.5,0.8,0.7,1.3,0.8c0.5,0.1,1,0,1.4-0.4
				c0.4-0.3,0.6-0.7,0.7-1.2C623.1,555.2,622.9,554.7,622.5,554.2z"/>
			<path class="st12" d="M628.6,557.3l-0.8-1l1-0.8l0.8,1L628.6,557.3z"/>
			<path class="st12" d="M628.2,551.9c-0.7-0.9-1.1-1.6-1.3-2.3c-0.2-0.7-0.3-1.3-0.1-1.8c0.1-0.6,0.5-1,1-1.4
				c0.4-0.3,0.8-0.5,1.2-0.5s0.8,0,1.3,0.1c0.4,0.2,0.8,0.4,1.3,0.7c0.4,0.3,0.9,0.9,1.5,1.6c0.6,0.9,1.1,1.6,1.3,2.3
				c0.2,0.7,0.3,1.3,0.1,1.8c-0.1,0.6-0.5,1-1,1.4c-0.7,0.5-1.4,0.7-2.2,0.5C630.2,554.1,629.2,553.3,628.2,551.9z M629.1,551.2
				c0.9,1.2,1.7,1.9,2.2,2.1c0.6,0.2,1.1,0.1,1.5-0.2s0.6-0.8,0.6-1.4c0-0.6-0.5-1.5-1.4-2.7c-0.9-1.2-1.7-1.9-2.2-2.1
				c-0.6-0.2-1.1-0.1-1.5,0.2c-0.4,0.3-0.6,0.7-0.6,1.3C627.7,549.1,628.2,550,629.1,551.2z"/>
			<path class="st12" d="M635.2,549.3l0.9-0.8c0.4,0.4,0.8,0.6,1.3,0.7c0.4,0,0.8-0.1,1.2-0.4c0.4-0.3,0.7-0.8,0.7-1.3
				c0.1-0.6-0.1-1.1-0.5-1.6c-0.4-0.5-0.8-0.8-1.4-0.9c-0.5-0.1-1,0.1-1.5,0.4c-0.3,0.2-0.5,0.5-0.6,0.8c-0.1,0.3-0.2,0.6-0.2,0.9
				l-0.9,0.5l-2.1-4.3l3.6-2.8l0.7,0.9l-2.9,2.2l1.1,2.3c0.2-0.6,0.6-1.1,1-1.5c0.6-0.5,1.3-0.7,2.1-0.6c0.8,0.1,1.4,0.5,2,1.2
				c0.5,0.7,0.7,1.4,0.7,2.2c0,0.9-0.4,1.7-1.2,2.3c-0.7,0.5-1.3,0.7-2.1,0.7C636.3,550.2,635.7,549.9,635.2,549.3z"/>
		</g>
		<line class="st13" x1="601.2" y1="583.7" x2="643.2" y2="552.5"/>
		<polygon class="st12" points="604.3,585.3 593.1,589.6 600.5,580.2 		"/>
		<g>
			<path class="st12" d="M862.3,703.5l-0.2-1.1c0.6-0.1,1.1-0.3,1.4-0.7c0.3-0.3,0.4-0.7,0.4-1.1c0-0.5-0.2-1-0.6-1.3
				c-0.4-0.4-0.8-0.5-1.4-0.5c-0.5,0-0.9,0.2-1.3,0.5c-0.3,0.3-0.5,0.8-0.5,1.3c0,0.2,0,0.5,0.1,0.8l-1-0.1c0-0.1,0-0.1,0-0.2
				c0-0.5-0.1-0.9-0.4-1.3c-0.2-0.4-0.6-0.6-1.2-0.6c-0.4,0-0.8,0.1-1,0.4s-0.4,0.6-0.4,1.1c0,0.4,0.1,0.8,0.4,1.1
				c0.3,0.3,0.7,0.5,1.2,0.6l-0.2,1.1c-0.8-0.1-1.3-0.5-1.8-0.9s-0.6-1.1-0.6-1.8c0-0.5,0.1-1,0.3-1.4s0.5-0.7,0.9-1
				c0.4-0.2,0.8-0.3,1.2-0.3c0.4,0,0.8,0.1,1.1,0.3c0.3,0.2,0.6,0.5,0.8,0.9c0.1-0.5,0.4-1,0.8-1.3c0.4-0.3,0.9-0.5,1.5-0.5
				c0.8,0,1.5,0.3,2,0.9c0.6,0.6,0.8,1.3,0.8,2.2c0,0.8-0.2,1.5-0.7,2C863.7,703.1,863.1,703.4,862.3,703.5z"/>
			<path class="st12" d="M864.8,692.1v1.1h-7.2c0.3,0.3,0.5,0.6,0.8,1.1c0.3,0.4,0.5,0.8,0.6,1.2h-1.1c-0.3-0.6-0.7-1.2-1.1-1.7
				c-0.4-0.5-0.8-0.8-1.2-1v-0.7H864.8z"/>
			<path class="st12" d="M864.8,688.6h-1.3v-1.3h1.3V688.6z"/>
			<path class="st12" d="M856.8,685.6h-1.1v-5.9h0.9c0.6,0.6,1.4,1.2,2.5,1.7c1,0.6,2.1,1,3.2,1.3c0.8,0.2,1.6,0.4,2.5,0.4v1.2
				c-0.7,0-1.6-0.2-2.6-0.4c-1-0.3-2-0.7-3-1.2s-1.7-1-2.4-1.6V685.6z"/>
			<path class="st12" d="M862.4,678.5l-0.1-1.2c0.6-0.1,1-0.3,1.3-0.6c0.3-0.3,0.4-0.7,0.4-1.2c0-0.5-0.2-1-0.6-1.4s-1-0.6-1.6-0.6
				c-0.6,0-1.1,0.2-1.5,0.5c-0.4,0.4-0.6,0.8-0.6,1.4c0,0.4,0.1,0.7,0.2,1s0.4,0.5,0.6,0.7l-0.1,1.1l-4.7-0.9v-4.6h1.1v3.7l2.5,0.5
				c-0.4-0.5-0.6-1.1-0.6-1.7c0-0.8,0.3-1.5,0.8-2c0.6-0.5,1.3-0.8,2.1-0.8c0.8,0,1.5,0.2,2.2,0.7c0.7,0.6,1.1,1.4,1.1,2.4
				c0,0.8-0.2,1.5-0.7,2C863.8,678.2,863.1,678.5,862.4,678.5z"/>
			<path class="st12" d="M867.5,665.4c-0.8,0.6-1.7,1.1-2.8,1.6c-1.1,0.4-2.1,0.6-3.3,0.6c-1,0-1.9-0.2-2.9-0.5
				c-1.1-0.4-2.1-1-3.2-1.7v-0.8c0.9,0.5,1.5,0.8,1.9,1c0.6,0.3,1.2,0.5,1.8,0.6c0.8,0.2,1.6,0.3,2.4,0.3c2,0,4-0.6,6-1.9V665.4z"/>
			<path class="st12" d="M864.8,659.3v1.1h-7.2c0.3,0.3,0.5,0.6,0.8,1.1c0.3,0.4,0.5,0.8,0.6,1.2h-1.1c-0.3-0.6-0.7-1.2-1.1-1.7
				c-0.4-0.5-0.8-0.8-1.2-1v-0.7H864.8z"/>
			<path class="st12" d="M864.8,648.7v1.1h-7.2c0.3,0.3,0.5,0.6,0.8,1.1c0.3,0.4,0.5,0.8,0.6,1.2h-1.1c-0.3-0.6-0.7-1.2-1.1-1.7
				c-0.4-0.5-0.8-0.8-1.2-1v-0.7H864.8z"/>
			<path class="st12" d="M864.9,646.3l-9.5-2.7v-0.9l9.5,2.7V646.3z"/>
			<path class="st12" d="M864.8,638.6h-2.2v4h-1l-5.9-4.2v-0.9h5.9v-1.2h1v1.2h2.2V638.6z M861.5,638.6h-4.1l4.1,2.9V638.6z"/>
			<path class="st12" d="M858.8,632.6l-1.7,0.3h-1.5v-1.3h1.5l1.7,0.3V632.6z M858.8,634.7l-1.7,0.3h-1.5v-1.3h1.5l1.7,0.3V634.7z"
				/>
			<path class="st12" d="M867.5,629.5v0.8c-2-1.2-4-1.9-6-1.9c-0.8,0-1.6,0.1-2.3,0.3c-0.6,0.1-1.2,0.3-1.8,0.6
				c-0.4,0.2-1,0.5-1.9,1v-0.8c1-0.8,2.1-1.4,3.2-1.7c0.9-0.3,1.9-0.5,2.9-0.5c1.1,0,2.2,0.2,3.3,0.6
				C865.8,628.3,866.7,628.9,867.5,629.5z"/>
		</g>
		<line class="st13" x1="844.2" y1="740.5" x2="883" y2="775.6"/>
		<polygon class="st12" points="843.2,743.8 836.8,733.7 847.5,739.1 		"/>
		<line class="st13" x1="817.7" y1="682.9" x2="777.1" y2="715.9"/>
		<polygon class="st12" points="814.6,681.4 825.5,676.6 818.6,686.4 		"/>
		<g>
			<path class="st12" d="M862.4,200.9l-0.1-1.2c0.6-0.1,1-0.3,1.3-0.6c0.3-0.3,0.4-0.7,0.4-1.2c0-0.5-0.2-1-0.6-1.4s-1-0.6-1.6-0.6
				c-0.6,0-1.1,0.2-1.5,0.5s-0.6,0.8-0.6,1.4c0,0.4,0.1,0.7,0.2,1c0.2,0.3,0.4,0.5,0.6,0.7l-0.1,1.1l-4.7-0.9v-4.6h1.1v3.7l2.5,0.5
				c-0.4-0.6-0.6-1.1-0.6-1.7c0-0.8,0.3-1.5,0.8-2s1.3-0.8,2.1-0.8c0.8,0,1.5,0.2,2.2,0.7c0.7,0.6,1.1,1.4,1.1,2.4
				c0,0.8-0.2,1.5-0.7,2C863.8,200.5,863.1,200.8,862.4,200.9z"/>
			<path class="st12" d="M860.2,193.7c-1.1,0-2-0.1-2.6-0.3c-0.7-0.2-1.2-0.6-1.5-1c-0.4-0.4-0.5-1-0.5-1.7c0-0.5,0.1-0.9,0.3-1.3
				c0.2-0.4,0.5-0.7,0.9-0.9c0.4-0.2,0.8-0.4,1.4-0.6c0.5-0.1,1.3-0.2,2.2-0.2c1.1,0,1.9,0.1,2.6,0.3s1.2,0.6,1.5,1
				c0.4,0.4,0.5,1,0.5,1.7c0,0.9-0.3,1.6-1,2.1C863.2,193.4,862,193.7,860.2,193.7z M860.2,192.6c1.5,0,2.5-0.2,3-0.5
				c0.5-0.4,0.7-0.8,0.7-1.3s-0.2-1-0.8-1.3c-0.5-0.4-1.5-0.5-3-0.5c-1.5,0-2.5,0.2-3,0.5c-0.5,0.4-0.7,0.8-0.7,1.3
				c0,0.5,0.2,0.9,0.7,1.2C857.7,192.4,858.7,192.6,860.2,192.6z"/>
			<path class="st12" d="M864.8,186h-1.3v-1.3h1.3V186z"/>
			<path class="st12" d="M859.8,181.3c-0.2,0.5-0.4,0.8-0.7,1s-0.7,0.3-1.1,0.3c-0.7,0-1.2-0.2-1.7-0.7c-0.5-0.5-0.7-1.1-0.7-1.9
				c0-0.8,0.2-1.4,0.7-1.9c0.5-0.5,1-0.7,1.7-0.7c0.4,0,0.8,0.1,1.1,0.3c0.3,0.2,0.6,0.6,0.7,1c0.2-0.6,0.5-1,0.9-1.3
				c0.4-0.3,0.9-0.4,1.5-0.4c0.8,0,1.4,0.3,2,0.8c0.5,0.6,0.8,1.3,0.8,2.2c0,0.9-0.3,1.6-0.8,2.2c-0.5,0.6-1.2,0.8-2,0.8
				c-0.6,0-1.1-0.2-1.5-0.5C860.2,182.3,859.9,181.9,859.8,181.3z M857.9,181.5c0.4,0,0.8-0.1,1.1-0.4s0.4-0.6,0.4-1.1
				c0-0.4-0.1-0.8-0.4-1.1c-0.3-0.3-0.6-0.4-1-0.4c-0.4,0-0.8,0.1-1,0.4c-0.3,0.3-0.4,0.6-0.4,1.1c0,0.4,0.1,0.8,0.4,1.1
				C857.2,181.4,857.5,181.5,857.9,181.5z M862.1,181.9c0.3,0,0.6-0.1,0.9-0.2s0.5-0.4,0.7-0.7c0.2-0.3,0.2-0.6,0.2-1
				c0-0.5-0.2-1-0.5-1.3c-0.3-0.4-0.8-0.5-1.3-0.5c-0.5,0-1,0.2-1.3,0.5s-0.5,0.8-0.5,1.4c0,0.5,0.2,1,0.5,1.3
				C861.2,181.7,861.6,181.9,862.1,181.9z"/>
			<path class="st12" d="M860.2,175.9c-1.1,0-2-0.1-2.6-0.3c-0.7-0.2-1.2-0.6-1.5-1c-0.4-0.4-0.5-1-0.5-1.7c0-0.5,0.1-0.9,0.3-1.3
				c0.2-0.4,0.5-0.7,0.9-0.9c0.4-0.2,0.8-0.4,1.4-0.6c0.5-0.1,1.3-0.2,2.2-0.2c1.1,0,1.9,0.1,2.6,0.3s1.2,0.6,1.5,1
				c0.4,0.4,0.5,1,0.5,1.7c0,0.9-0.3,1.6-1,2.1C863.2,175.6,862,175.9,860.2,175.9z M860.2,174.8c1.5,0,2.5-0.2,3-0.5
				c0.5-0.4,0.7-0.8,0.7-1.3s-0.2-1-0.8-1.3c-0.5-0.4-1.5-0.5-3-0.5c-1.5,0-2.5,0.2-3,0.5c-0.5,0.4-0.7,0.8-0.7,1.3
				c0,0.5,0.2,0.9,0.7,1.2C857.7,174.6,858.7,174.8,860.2,174.8z"/>
			<path class="st12" d="M867.5,162.8c-0.8,0.6-1.7,1.1-2.8,1.6c-1.1,0.4-2.1,0.6-3.3,0.6c-1,0-1.9-0.2-2.9-0.5
				c-1.1-0.4-2.1-1-3.2-1.7V162c0.9,0.5,1.5,0.8,1.9,1c0.6,0.3,1.2,0.5,1.8,0.6c0.8,0.2,1.6,0.3,2.4,0.3c2,0,4-0.6,6-1.9V162.8z"/>
			<path class="st12" d="M863.7,155.1h1.1v6.1c-0.3,0-0.5,0-0.8-0.1c-0.4-0.2-0.8-0.4-1.2-0.7c-0.4-0.3-0.9-0.8-1.4-1.5
				c-0.8-1-1.5-1.7-1.9-2c-0.5-0.4-0.9-0.5-1.4-0.5c-0.4,0-0.8,0.2-1.1,0.5c-0.3,0.3-0.5,0.7-0.5,1.2c0,0.5,0.2,1,0.5,1.3
				c0.3,0.3,0.8,0.5,1.4,0.5l-0.1,1.2c-0.9-0.1-1.5-0.4-2-0.9s-0.7-1.2-0.7-2.1c0-0.9,0.2-1.6,0.7-2.1c0.5-0.5,1.1-0.8,1.8-0.8
				c0.4,0,0.7,0.1,1.1,0.2c0.4,0.1,0.7,0.4,1.1,0.7s0.9,0.9,1.6,1.7c0.6,0.7,1,1.1,1.2,1.3c0.2,0.2,0.4,0.4,0.6,0.5V155.1z"/>
			<path class="st12" d="M858.8,151.4l-1.7,0.3h-1.5v-1.3h1.5l1.7,0.3V151.4z M858.8,153.5l-1.7,0.3h-1.5v-1.3h1.5l1.7,0.3V153.5z"
				/>
			<path class="st12" d="M867.5,148.3v0.8c-2-1.2-4-1.9-6-1.9c-0.8,0-1.6,0.1-2.3,0.3c-0.6,0.1-1.2,0.3-1.8,0.6
				c-0.4,0.2-1,0.5-1.9,1v-0.8c1-0.8,2.1-1.4,3.2-1.7c0.9-0.3,1.9-0.5,2.9-0.5c1.1,0,2.2,0.2,3.3,0.6
				C865.8,147.1,866.7,147.6,867.5,148.3z"/>
		</g>
		<g>
			<path class="st12" d="M466.6,449.1l1.1-0.2c0.1,0.6,0.3,1.1,0.7,1.4c0.3,0.3,0.7,0.4,1.1,0.4c0.5,0,1-0.2,1.3-0.6
				c0.4-0.4,0.5-0.8,0.5-1.4c0-0.5-0.2-0.9-0.5-1.3c-0.3-0.3-0.8-0.5-1.3-0.5c-0.2,0-0.5,0-0.8,0.1l0.1-1c0.1,0,0.1,0,0.2,0
				c0.5,0,0.9-0.1,1.3-0.4c0.4-0.3,0.6-0.6,0.6-1.2c0-0.4-0.1-0.8-0.4-1s-0.6-0.4-1.1-0.4c-0.4,0-0.8,0.1-1.1,0.4
				c-0.3,0.3-0.5,0.7-0.6,1.2l-1.1-0.2c0.1-0.8,0.5-1.3,0.9-1.8c0.5-0.4,1.1-0.6,1.8-0.6c0.5,0,1,0.1,1.4,0.3s0.7,0.5,1,0.9
				c0.2,0.4,0.3,0.8,0.3,1.2c0,0.4-0.1,0.8-0.3,1.1c-0.2,0.3-0.5,0.6-0.9,0.8c0.5,0.1,1,0.4,1.3,0.8c0.3,0.4,0.5,0.9,0.5,1.5
				c0,0.8-0.3,1.5-0.9,2c-0.6,0.6-1.3,0.8-2.2,0.8c-0.8,0-1.5-0.2-2-0.7S466.6,449.9,466.6,449.1z"/>
			<path class="st12" d="M477.3,451.6v-2.2h-4v-1l4.2-5.9h0.9v5.9h1.2v1h-1.2v2.2H477.3z M477.3,448.3v-4.1l-2.9,4.1H477.3z"/>
			<path class="st12" d="M481.4,451.6v-1.3h1.3v1.3H481.4z"/>
			<path class="st12" d="M484.5,449.4l1.1-0.1c0.1,0.5,0.3,0.9,0.5,1.1c0.3,0.2,0.6,0.3,1,0.3c0.3,0,0.6-0.1,0.9-0.2
				c0.3-0.2,0.5-0.4,0.6-0.6c0.2-0.3,0.3-0.6,0.4-1.1c0.1-0.5,0.2-0.9,0.2-1.4c0,0,0-0.1,0-0.2c-0.2,0.4-0.5,0.6-0.9,0.9
				c-0.4,0.2-0.8,0.3-1.3,0.3c-0.8,0-1.4-0.3-1.9-0.8c-0.5-0.6-0.8-1.3-0.8-2.2c0-0.9,0.3-1.7,0.8-2.2c0.5-0.6,1.2-0.9,2.1-0.9
				c0.6,0,1.1,0.2,1.6,0.5c0.5,0.3,0.9,0.8,1.1,1.4c0.3,0.6,0.4,1.5,0.4,2.6c0,1.2-0.1,2.1-0.4,2.8s-0.6,1.2-1.1,1.6
				c-0.5,0.4-1.1,0.5-1.8,0.5c-0.7,0-1.3-0.2-1.8-0.6C484.9,450.7,484.6,450.2,484.5,449.4z M489.1,445.4c0-0.6-0.2-1.2-0.5-1.5
				c-0.3-0.4-0.8-0.6-1.2-0.6c-0.5,0-0.9,0.2-1.3,0.6c-0.4,0.4-0.6,0.9-0.6,1.6c0,0.6,0.2,1.1,0.5,1.4c0.4,0.4,0.8,0.5,1.3,0.5
				c0.5,0,0.9-0.2,1.3-0.5C489,446.5,489.1,446,489.1,445.4z"/>
			<path class="st12" d="M497.4,450.5v1.1h-6.1c0-0.3,0-0.5,0.1-0.8c0.2-0.4,0.4-0.8,0.7-1.2c0.3-0.4,0.8-0.9,1.5-1.4
				c1-0.8,1.7-1.5,2-1.9c0.4-0.5,0.5-0.9,0.5-1.4c0-0.4-0.2-0.8-0.5-1.1c-0.3-0.3-0.7-0.5-1.2-0.5c-0.5,0-1,0.2-1.3,0.5
				c-0.3,0.3-0.5,0.8-0.5,1.4l-1.2-0.1c0.1-0.9,0.4-1.5,0.9-2c0.5-0.5,1.2-0.7,2.1-0.7c0.9,0,1.6,0.2,2.1,0.7
				c0.5,0.5,0.8,1.1,0.8,1.8c0,0.4-0.1,0.7-0.2,1.1c-0.1,0.4-0.4,0.7-0.7,1.1c-0.3,0.4-0.9,0.9-1.7,1.6c-0.7,0.6-1.1,1-1.3,1.2
				s-0.4,0.4-0.5,0.6H497.4z"/>
			<path class="st12" d="M504.6,454.3c-0.6-0.8-1.1-1.7-1.6-2.8c-0.4-1.1-0.6-2.1-0.6-3.3c0-1,0.2-1.9,0.5-2.9
				c0.4-1.1,1-2.1,1.7-3.2h0.8c-0.5,0.9-0.8,1.5-1,1.9c-0.3,0.6-0.5,1.2-0.6,1.8c-0.2,0.8-0.3,1.6-0.3,2.4c0,2,0.6,4,1.9,6H504.6z"
				/>
			<path class="st12" d="M510.7,451.6h-1.1v-7.2c-0.3,0.3-0.6,0.5-1.1,0.8s-0.8,0.5-1.2,0.6v-1.1c0.6-0.3,1.2-0.7,1.7-1.1
				c0.5-0.4,0.8-0.8,1-1.2h0.7V451.6z"/>
			<path class="st12" d="M517.1,449.1l1.1-0.2c0.1,0.6,0.3,1.1,0.7,1.4c0.3,0.3,0.7,0.4,1.1,0.4c0.5,0,1-0.2,1.3-0.6
				c0.4-0.4,0.5-0.8,0.5-1.4c0-0.5-0.2-0.9-0.5-1.3c-0.3-0.3-0.8-0.5-1.3-0.5c-0.2,0-0.5,0-0.8,0.1l0.1-1c0.1,0,0.1,0,0.2,0
				c0.5,0,0.9-0.1,1.3-0.4c0.4-0.3,0.6-0.6,0.6-1.2c0-0.4-0.1-0.8-0.4-1s-0.6-0.4-1.1-0.4c-0.4,0-0.8,0.1-1.1,0.4
				c-0.3,0.3-0.5,0.7-0.6,1.2l-1.1-0.2c0.1-0.8,0.5-1.3,0.9-1.8c0.5-0.4,1.1-0.6,1.8-0.6c0.5,0,1,0.1,1.4,0.3s0.7,0.5,1,0.9
				c0.2,0.4,0.3,0.8,0.3,1.2c0,0.4-0.1,0.8-0.3,1.1c-0.2,0.3-0.5,0.6-0.9,0.8c0.5,0.1,1,0.4,1.3,0.8c0.3,0.4,0.5,0.9,0.5,1.5
				c0,0.8-0.3,1.5-0.9,2c-0.6,0.6-1.3,0.8-2.2,0.8c-0.8,0-1.5-0.2-2-0.7S517.2,449.9,517.1,449.1z"/>
			<path class="st12" d="M523.7,451.7l2.7-9.5h0.9l-2.7,9.5H523.7z"/>
			<path class="st12" d="M529.5,446.6c-0.5-0.2-0.8-0.4-1-0.7c-0.2-0.3-0.3-0.7-0.3-1.1c0-0.7,0.2-1.2,0.7-1.7
				c0.5-0.5,1.1-0.7,1.9-0.7c0.8,0,1.4,0.2,1.9,0.7s0.7,1,0.7,1.7c0,0.4-0.1,0.8-0.3,1.1c-0.2,0.3-0.6,0.6-1,0.7
				c0.6,0.2,1,0.5,1.3,0.9c0.3,0.4,0.4,0.9,0.4,1.5c0,0.8-0.3,1.4-0.8,2c-0.6,0.5-1.3,0.8-2.2,0.8c-0.9,0-1.6-0.3-2.2-0.8
				s-0.8-1.2-0.8-2c0-0.6,0.2-1.1,0.5-1.5S529,446.7,529.5,446.6z M529,448.9c0,0.3,0.1,0.6,0.2,0.9c0.2,0.3,0.4,0.5,0.7,0.7
				s0.6,0.2,1,0.2c0.5,0,1-0.2,1.3-0.5c0.4-0.3,0.5-0.8,0.5-1.3c0-0.5-0.2-1-0.5-1.3s-0.8-0.5-1.4-0.5c-0.5,0-1,0.2-1.3,0.5
				S529,448.4,529,448.9z M529.3,444.7c0,0.4,0.1,0.8,0.4,1.1c0.3,0.3,0.6,0.4,1.1,0.4c0.4,0,0.8-0.1,1.1-0.4c0.3-0.3,0.4-0.6,0.4-1
				c0-0.4-0.1-0.8-0.4-1s-0.6-0.4-1.1-0.4c-0.4,0-0.8,0.1-1.1,0.4S529.3,444.3,529.3,444.7z"/>
			<path class="st12" d="M535.3,445.6l-0.3-1.7v-1.5h1.3v1.5l-0.3,1.7H535.3z M537.4,445.6l-0.3-1.7v-1.5h1.3v1.5l-0.3,1.7H537.4z"
				/>
			<path class="st12" d="M540.5,454.3h-0.8c1.2-2,1.9-4,1.9-6c0-0.8-0.1-1.6-0.3-2.3c-0.1-0.6-0.3-1.2-0.6-1.8c-0.2-0.4-0.5-1-1-1.9
				h0.8c0.8,1,1.4,2.1,1.7,3.2c0.3,0.9,0.5,1.9,0.5,2.9c0,1.1-0.2,2.2-0.6,3.3C541.7,452.6,541.2,453.5,540.5,454.3z"/>
		</g>
		<line class="st8" x1="948.9" y1="72.8" x2="948.9" y2="388"/>
		<polygon class="st2" points="945.2,75.4 949.1,60.9 953,75.4 		"/>
		<polygon class="st2" points="945.2,385.3 949.1,399.8 953,385.3 		"/>
		<line class="st8" x1="948.9" y1="411.7" x2="948.9" y2="721.7"/>
		<polygon class="st2" points="945.2,414.3 949.1,399.8 953,414.3 		"/>
		<polygon class="st2" points="945.2,719 949.1,733.5 953,719 		"/>
		<line class="st8" x1="911.9" y1="72.5" x2="911.9" y2="721.7"/>
		<polygon class="st2" points="908.1,75.1 912,60.7 915.9,75.1 		"/>
		<polygon class="st2" points="908.1,719 912,733.5 915.9,719 		"/>
		<line class="st8" x1="874.2" y1="605.4" x2="874.2" y2="721.7"/>
		<polygon class="st2" points="870.5,608 874.4,593.5 878.2,608 		"/>
		<polygon class="st2" points="870.5,719 874.4,733.5 878.2,719 		"/>
		<line class="st8" x1="874.2" y1="72.5" x2="874.2" y2="274"/>
		<polygon class="st2" points="870.5,75.1 874.3,60.7 878.2,75.1 		"/>
		<polygon class="st2" points="870.5,271.3 874.3,285.8 878.2,271.3 		"/>
		<line class="st8" x1="874.2" y1="296.4" x2="874.2" y2="581.5"/>
		<polygon class="st2" points="870.5,299.1 874.3,284.6 878.2,299.1 		"/>
		<polygon class="st2" points="870.5,578.9 874.3,593.4 878.2,578.9 		"/>
		<line class="st15" x1="942.3" y1="400.4" x2="258.9" y2="399.8"/>
		<line class="st16" x1="233.1" y1="399.8" x2="190.6" y2="399.8"/>
		<g>
			<path class="st2" d="M163.2,404.6l3.7-4.9l-3.2-4.6h1.5l1.8,2.5c0.4,0.5,0.6,0.9,0.8,1.1c0.2-0.3,0.5-0.7,0.8-1.1l1.9-2.5h1.4
				l-3.3,4.5l3.6,5h-1.6l-2.4-3.4c-0.1-0.2-0.3-0.4-0.4-0.6c-0.2,0.3-0.3,0.5-0.4,0.6l-2.4,3.3H163.2z"/>
		</g>
		<line class="st8" x1="435.3" y1="456.7" x2="565.7" y2="456.7"/>
		<polygon class="st2" points="437.9,460.5 423.4,456.6 437.9,452.7 		"/>
		<polygon class="st2" points="563.1,460.5 577.6,456.6 563.1,452.7 		"/>
		<g>
			<path class="st2" d="M512.2,54.7v-5.5l-5-7.4h2.1l2.6,3.9c0.5,0.7,0.9,1.5,1.3,2.2c0.4-0.7,0.9-1.4,1.4-2.3l2.5-3.8h2l-5.2,7.4
				v5.5H512.2z"/>
			<path class="st2" d="M512.2,753.6v-5.5l-5-7.4h2.1l2.6,3.9c0.5,0.7,0.9,1.5,1.3,2.2c0.4-0.7,0.9-1.4,1.4-2.3l2.5-3.8h2l-5.2,7.4
				v5.5H512.2z"/>
		</g>
		<line class="st17" x1="500.4" y1="753.6" x2="499.6" y2="41.8"/>
		<g>
			<path class="st2" d="M351.4,75.7l0.2,1c-0.3,0.1-0.6,0.1-0.8,0.1c-0.4,0-0.7-0.1-0.9-0.2c-0.2-0.1-0.4-0.3-0.5-0.5
				s-0.1-0.6-0.1-1.3v-3.7h-0.8v-0.8h0.8v-1.6l1.1-0.7v2.2h1.1v0.8h-1.1v3.7c0,0.3,0,0.5,0.1,0.6c0,0.1,0.1,0.2,0.2,0.2
				s0.2,0.1,0.4,0.1C351.1,75.7,351.2,75.7,351.4,75.7z"/>
			<path class="st2" d="M352.3,73.4c0-1.2,0.3-2.1,1-2.6c0.6-0.5,1.2-0.7,2-0.7c0.9,0,1.6,0.3,2.2,0.9c0.6,0.6,0.8,1.4,0.8,2.4
				c0,0.8-0.1,1.5-0.4,1.9c-0.2,0.5-0.6,0.8-1.1,1.1c-0.5,0.3-1,0.4-1.5,0.4c-0.9,0-1.6-0.3-2.2-0.9
				C352.6,75.4,352.3,74.5,352.3,73.4z M353.4,73.4c0,0.8,0.2,1.4,0.5,1.8c0.4,0.4,0.8,0.6,1.4,0.6c0.5,0,1-0.2,1.3-0.6
				c0.4-0.4,0.5-1,0.5-1.9c0-0.8-0.2-1.4-0.5-1.8c-0.4-0.4-0.8-0.6-1.3-0.6c-0.5,0-1,0.2-1.4,0.6C353.6,72,353.4,72.6,353.4,73.4z"
				/>
			<path class="st2" d="M367.2,75.9c-0.4,0.3-0.8,0.6-1.2,0.7c-0.4,0.1-0.8,0.2-1.2,0.2c-0.7,0-1.2-0.2-1.6-0.5
				c-0.4-0.3-0.6-0.8-0.6-1.3c0-0.3,0.1-0.6,0.2-0.9c0.1-0.3,0.3-0.5,0.6-0.6c0.2-0.2,0.5-0.3,0.8-0.4c0.2-0.1,0.5-0.1,1-0.2
				c0.9-0.1,1.5-0.2,1.9-0.4c0-0.1,0-0.2,0-0.3c0-0.4-0.1-0.8-0.3-0.9c-0.3-0.2-0.7-0.4-1.2-0.4c-0.5,0-0.9,0.1-1.1,0.3
				s-0.4,0.5-0.5,1l-1.1-0.1c0.1-0.5,0.3-0.8,0.5-1.1s0.5-0.5,1-0.6s0.9-0.2,1.5-0.2c0.5,0,1,0.1,1.3,0.2c0.3,0.1,0.6,0.3,0.8,0.5
				c0.2,0.2,0.3,0.4,0.3,0.7c0,0.2,0.1,0.5,0.1,1V74c0,1,0,1.6,0.1,1.9c0,0.3,0.1,0.5,0.3,0.8h-1.1
				C367.3,76.4,367.2,76.2,367.2,75.9z M367.1,73.4c-0.4,0.2-1,0.3-1.8,0.4c-0.4,0.1-0.8,0.1-0.9,0.2s-0.3,0.2-0.4,0.4
				s-0.2,0.3-0.2,0.5c0,0.3,0.1,0.5,0.3,0.7c0.2,0.2,0.5,0.3,1,0.3c0.4,0,0.8-0.1,1.1-0.3c0.3-0.2,0.6-0.4,0.7-0.8
				c0.1-0.2,0.2-0.6,0.2-1.1V73.4z"/>
			<path class="st2" d="M370.1,79.1v-8.9h1v0.8c0.2-0.3,0.5-0.6,0.8-0.7c0.3-0.2,0.6-0.2,1.1-0.2c0.5,0,1,0.1,1.4,0.4
				c0.4,0.3,0.7,0.7,0.9,1.2s0.3,1.1,0.3,1.7c0,0.7-0.1,1.2-0.4,1.8c-0.2,0.5-0.6,0.9-1,1.2c-0.4,0.3-0.9,0.4-1.4,0.4
				c-0.4,0-0.7-0.1-1-0.2c-0.3-0.2-0.5-0.3-0.7-0.6v3.1H370.1z M371.1,73.5c0,0.8,0.2,1.4,0.5,1.8c0.3,0.4,0.7,0.6,1.2,0.6
				c0.5,0,0.9-0.2,1.2-0.6s0.5-1,0.5-1.9c0-0.8-0.2-1.4-0.5-1.8c-0.3-0.4-0.7-0.6-1.2-0.6c-0.5,0-0.9,0.2-1.2,0.6
				C371.3,72,371.1,72.7,371.1,73.5z"/>
			<path class="st2" d="M377.2,79.1v-8.9h1v0.8c0.2-0.3,0.5-0.6,0.8-0.7c0.3-0.2,0.6-0.2,1.1-0.2c0.5,0,1,0.1,1.4,0.4
				c0.4,0.3,0.7,0.7,0.9,1.2s0.3,1.1,0.3,1.7c0,0.7-0.1,1.2-0.4,1.8c-0.2,0.5-0.6,0.9-1,1.2c-0.4,0.3-0.9,0.4-1.4,0.4
				c-0.4,0-0.7-0.1-1-0.2c-0.3-0.2-0.5-0.3-0.7-0.6v3.1H377.2z M378.2,73.5c0,0.8,0.2,1.4,0.5,1.8c0.3,0.4,0.7,0.6,1.2,0.6
				c0.5,0,0.9-0.2,1.2-0.6s0.5-1,0.5-1.9c0-0.8-0.2-1.4-0.5-1.8c-0.3-0.4-0.7-0.6-1.2-0.6c-0.5,0-0.9,0.2-1.2,0.6
				C378.4,72,378.2,72.7,378.2,73.5z"/>
			<path class="st2" d="M384.4,76.7v-6.4h1v1c0.2-0.5,0.5-0.8,0.7-0.9c0.2-0.1,0.4-0.2,0.7-0.2c0.4,0,0.7,0.1,1.1,0.4l-0.4,1
				c-0.3-0.2-0.5-0.2-0.8-0.2c-0.2,0-0.5,0.1-0.6,0.2c-0.2,0.1-0.3,0.3-0.4,0.6c-0.1,0.4-0.2,0.8-0.2,1.3v3.4H384.4z"/>
			<path class="st2" d="M388.3,73.4c0-1.2,0.3-2.1,1-2.6c0.6-0.5,1.2-0.7,2-0.7c0.9,0,1.6,0.3,2.2,0.9c0.6,0.6,0.8,1.4,0.8,2.4
				c0,0.8-0.1,1.5-0.4,1.9c-0.2,0.5-0.6,0.8-1.1,1.1c-0.5,0.3-1,0.4-1.5,0.4c-0.9,0-1.6-0.3-2.2-0.9
				C388.6,75.4,388.3,74.5,388.3,73.4z M389.5,73.4c0,0.8,0.2,1.4,0.5,1.8c0.4,0.4,0.8,0.6,1.4,0.6c0.5,0,1-0.2,1.3-0.6
				c0.4-0.4,0.5-1,0.5-1.9c0-0.8-0.2-1.4-0.5-1.8c-0.4-0.4-0.8-0.6-1.3-0.6c-0.5,0-1,0.2-1.4,0.6C389.6,72,389.5,72.6,389.5,73.4z"
				/>
			<path class="st2" d="M394.9,76.7l2.3-3.3l-2.2-3.1h1.4l1,1.5c0.2,0.3,0.3,0.5,0.4,0.7c0.2-0.3,0.3-0.5,0.5-0.7l1.1-1.5h1.3
				l-2.2,3l2.4,3.4h-1.3l-1.3-2l-0.4-0.5l-1.7,2.5H394.9z"/>
			<path class="st2" d="M402.4,76.7v-1.2h1.2v1.2H402.4z"/>
			<path class="st2" d="M408.7,74.3l1.1-0.1c0.1,0.6,0.3,1.1,0.6,1.3c0.3,0.3,0.7,0.4,1.1,0.4c0.5,0,0.9-0.2,1.3-0.5
				c0.4-0.4,0.5-0.8,0.5-1.3c0-0.5-0.2-0.9-0.5-1.2c-0.3-0.3-0.7-0.5-1.2-0.5c-0.2,0-0.5,0-0.8,0.1l0.1-1c0.1,0,0.1,0,0.2,0
				c0.5,0,0.9-0.1,1.2-0.4c0.4-0.2,0.6-0.6,0.6-1.1c0-0.4-0.1-0.7-0.4-1c-0.3-0.3-0.6-0.4-1-0.4c-0.4,0-0.8,0.1-1.1,0.4
				s-0.5,0.7-0.5,1.2l-1.1-0.2c0.1-0.7,0.4-1.3,0.9-1.7c0.5-0.4,1.1-0.6,1.8-0.6c0.5,0,0.9,0.1,1.3,0.3c0.4,0.2,0.7,0.5,0.9,0.8
				s0.3,0.7,0.3,1.1c0,0.4-0.1,0.7-0.3,1c-0.2,0.3-0.5,0.6-0.9,0.7c0.5,0.1,0.9,0.4,1.2,0.8c0.3,0.4,0.4,0.9,0.4,1.4
				c0,0.8-0.3,1.4-0.8,2c-0.6,0.5-1.3,0.8-2.1,0.8c-0.8,0-1.4-0.2-1.9-0.7S408.7,75.1,408.7,74.3z"/>
			<path class="st2" d="M415.4,76.8l2.6-9.2h0.9l-2.6,9.2H415.4z"/>
			<path class="st2" d="M421.3,71.9c-0.5-0.2-0.8-0.4-1-0.7c-0.2-0.3-0.3-0.7-0.3-1.1c0-0.6,0.2-1.2,0.7-1.6
				c0.5-0.4,1.1-0.7,1.8-0.7c0.8,0,1.4,0.2,1.9,0.7c0.5,0.4,0.7,1,0.7,1.6c0,0.4-0.1,0.8-0.3,1.1s-0.5,0.5-1,0.7
				c0.5,0.2,1,0.5,1.2,0.9c0.3,0.4,0.4,0.9,0.4,1.4c0,0.8-0.3,1.4-0.8,1.9c-0.5,0.5-1.2,0.8-2.1,0.8s-1.6-0.3-2.1-0.8
				c-0.5-0.5-0.8-1.2-0.8-1.9c0-0.6,0.1-1.1,0.4-1.4C420.3,72.3,420.7,72,421.3,71.9z M420.7,74.1c0,0.3,0.1,0.6,0.2,0.9
				c0.1,0.3,0.4,0.5,0.7,0.7c0.3,0.2,0.6,0.2,0.9,0.2c0.5,0,0.9-0.2,1.3-0.5c0.3-0.3,0.5-0.8,0.5-1.3c0-0.5-0.2-1-0.5-1.3
				c-0.3-0.3-0.8-0.5-1.3-0.5c-0.5,0-0.9,0.2-1.3,0.5C420.9,73.2,420.7,73.6,420.7,74.1z M421,70c0,0.4,0.1,0.8,0.4,1
				s0.6,0.4,1.1,0.4c0.4,0,0.8-0.1,1-0.4c0.3-0.3,0.4-0.6,0.4-1c0-0.4-0.1-0.7-0.4-1c-0.3-0.3-0.6-0.4-1-0.4c-0.4,0-0.8,0.1-1,0.4
				C421.2,69.3,421,69.6,421,70z"/>
			<path class="st2" d="M427.3,70.9l-0.3-1.7v-1.4h1.2v1.4l-0.3,1.7H427.3z M429.3,70.9l-0.3-1.7v-1.4h1.2v1.4l-0.3,1.7H429.3z"/>
			<path class="st2" d="M434.6,74v-1.1h3.3V74H434.6z"/>
			<path class="st2" d="M442.4,74.6l1-0.1c0.1,0.5,0.3,0.8,0.5,1.1c0.2,0.2,0.6,0.3,1,0.3c0.3,0,0.6-0.1,0.9-0.2
				c0.3-0.2,0.5-0.4,0.6-0.6c0.2-0.3,0.3-0.6,0.4-1s0.2-0.9,0.2-1.3c0,0,0-0.1,0-0.2c-0.2,0.3-0.5,0.6-0.9,0.8
				c-0.4,0.2-0.8,0.3-1.2,0.3c-0.7,0-1.4-0.3-1.9-0.8c-0.5-0.5-0.8-1.2-0.8-2.1c0-0.9,0.3-1.6,0.8-2.2s1.2-0.8,2-0.8
				c0.6,0,1.1,0.2,1.6,0.5s0.8,0.8,1.1,1.3c0.2,0.6,0.4,1.4,0.4,2.5c0,1.1-0.1,2-0.4,2.7c-0.2,0.7-0.6,1.2-1.1,1.5
				c-0.5,0.4-1.1,0.5-1.7,0.5c-0.7,0-1.3-0.2-1.7-0.6C442.8,75.8,442.5,75.3,442.4,74.6z M446.9,70.7c0-0.6-0.2-1.1-0.5-1.5
				s-0.7-0.5-1.2-0.5c-0.5,0-0.9,0.2-1.3,0.6c-0.4,0.4-0.5,0.9-0.5,1.5c0,0.6,0.2,1,0.5,1.4c0.3,0.4,0.8,0.5,1.3,0.5
				c0.5,0,0.9-0.2,1.2-0.5C446.7,71.8,446.9,71.3,446.9,70.7z"/>
			<path class="st2" d="M449.9,76.7v-1.2h1.2v1.2H449.9z"/>
			<path class="st2" d="M453.1,74.3l1.1-0.1c0.1,0.6,0.3,1,0.6,1.3c0.3,0.3,0.7,0.4,1.1,0.4c0.5,0,1-0.2,1.3-0.6
				c0.4-0.4,0.5-0.9,0.5-1.6c0-0.6-0.2-1.1-0.5-1.5c-0.3-0.4-0.8-0.5-1.4-0.5c-0.4,0-0.7,0.1-0.9,0.2c-0.3,0.2-0.5,0.4-0.7,0.6
				l-1-0.1l0.9-4.5h4.4v1H455l-0.5,2.4c0.5-0.4,1.1-0.6,1.7-0.6c0.8,0,1.4,0.3,2,0.8c0.5,0.5,0.8,1.2,0.8,2.1c0,0.8-0.2,1.5-0.7,2.1
				c-0.6,0.7-1.3,1.1-2.3,1.1c-0.8,0-1.5-0.2-2-0.7C453.4,75.7,453.1,75.1,453.1,74.3z"/>
			<path class="st2" d="M460.6,76.7v-6.4h1v0.9c0.2-0.3,0.5-0.6,0.8-0.8c0.3-0.2,0.7-0.3,1.1-0.3c0.5,0,0.9,0.1,1.2,0.3
				c0.3,0.2,0.5,0.5,0.6,0.8c0.5-0.7,1.2-1.1,2-1.1c0.6,0,1.1,0.2,1.5,0.5c0.3,0.4,0.5,0.9,0.5,1.6v4.4h-1.1v-4c0-0.4,0-0.7-0.1-0.9
				c-0.1-0.2-0.2-0.3-0.4-0.5c-0.2-0.1-0.4-0.2-0.7-0.2c-0.5,0-0.8,0.1-1.1,0.4c-0.3,0.3-0.4,0.8-0.4,1.4v3.7h-1.1v-4.2
				c0-0.5-0.1-0.8-0.3-1.1c-0.2-0.2-0.5-0.4-0.9-0.4c-0.3,0-0.6,0.1-0.8,0.2c-0.3,0.2-0.4,0.4-0.6,0.7c-0.1,0.3-0.2,0.8-0.2,1.3v3.3
				H460.6z"/>
			<path class="st2" d="M471.1,76.7v-6.4h1v0.9c0.2-0.3,0.5-0.6,0.8-0.8c0.3-0.2,0.7-0.3,1.1-0.3c0.5,0,0.9,0.1,1.2,0.3
				c0.3,0.2,0.5,0.5,0.6,0.8c0.5-0.7,1.2-1.1,2-1.1c0.6,0,1.1,0.2,1.5,0.5c0.3,0.4,0.5,0.9,0.5,1.6v4.4h-1.1v-4c0-0.4,0-0.7-0.1-0.9
				c-0.1-0.2-0.2-0.3-0.4-0.5c-0.2-0.1-0.4-0.2-0.7-0.2c-0.5,0-0.8,0.1-1.1,0.4c-0.3,0.3-0.4,0.8-0.4,1.4v3.7h-1.1v-4.2
				c0-0.5-0.1-0.8-0.3-1.1c-0.2-0.2-0.5-0.4-0.9-0.4c-0.3,0-0.6,0.1-0.8,0.2c-0.3,0.2-0.4,0.4-0.6,0.7c-0.1,0.3-0.2,0.8-0.2,1.3v3.3
				H471.1z"/>
		</g>
		<g>
			<path class="st2" d="M214,726.3l0.2,1c-0.3,0.1-0.6,0.1-0.8,0.1c-0.4,0-0.7-0.1-0.9-0.2s-0.4-0.3-0.5-0.5s-0.1-0.6-0.1-1.3v-3.7
				h-0.8v-0.8h0.8v-1.6l1.1-0.7v2.2h1.1v0.8h-1.1v3.7c0,0.3,0,0.5,0.1,0.6c0,0.1,0.1,0.2,0.2,0.2c0.1,0.1,0.2,0.1,0.4,0.1
				C213.7,726.3,213.8,726.3,214,726.3z"/>
			<path class="st2" d="M214.9,724c0-1.2,0.3-2.1,1-2.6c0.6-0.5,1.2-0.7,2-0.7c0.9,0,1.6,0.3,2.2,0.9c0.6,0.6,0.8,1.4,0.8,2.4
				c0,0.8-0.1,1.5-0.4,1.9c-0.2,0.5-0.6,0.8-1.1,1.1c-0.5,0.3-1,0.4-1.5,0.4c-0.9,0-1.6-0.3-2.2-0.9
				C215.2,726,214.9,725.1,214.9,724z M216,724c0,0.8,0.2,1.4,0.5,1.8c0.4,0.4,0.8,0.6,1.4,0.6c0.5,0,1-0.2,1.3-0.6
				c0.4-0.4,0.5-1,0.5-1.9c0-0.8-0.2-1.4-0.5-1.8s-0.8-0.6-1.3-0.6c-0.5,0-1,0.2-1.4,0.6C216.2,722.6,216,723.2,216,724z"/>
			<path class="st2" d="M229.8,726.5c-0.4,0.3-0.8,0.6-1.2,0.7c-0.4,0.1-0.8,0.2-1.2,0.2c-0.7,0-1.2-0.2-1.6-0.5
				c-0.4-0.3-0.6-0.8-0.6-1.3c0-0.3,0.1-0.6,0.2-0.9c0.1-0.3,0.3-0.5,0.6-0.6s0.5-0.3,0.8-0.4c0.2-0.1,0.5-0.1,1-0.2
				c0.9-0.1,1.5-0.2,1.9-0.4c0-0.1,0-0.2,0-0.3c0-0.4-0.1-0.8-0.3-0.9c-0.3-0.2-0.7-0.4-1.2-0.4c-0.5,0-0.9,0.1-1.1,0.3
				c-0.2,0.2-0.4,0.5-0.5,1l-1.1-0.1c0.1-0.5,0.3-0.8,0.5-1.1c0.2-0.3,0.5-0.5,1-0.6s0.9-0.2,1.5-0.2c0.5,0,1,0.1,1.3,0.2
				c0.3,0.1,0.6,0.3,0.8,0.5c0.2,0.2,0.3,0.4,0.3,0.7c0,0.2,0.1,0.5,0.1,1v1.4c0,1,0,1.6,0.1,1.9c0,0.3,0.1,0.5,0.3,0.8H230
				C229.9,727,229.8,726.8,229.8,726.5z M229.7,724c-0.4,0.2-1,0.3-1.8,0.4c-0.4,0.1-0.8,0.1-0.9,0.2c-0.2,0.1-0.3,0.2-0.4,0.4
				c-0.1,0.2-0.2,0.3-0.2,0.5c0,0.3,0.1,0.5,0.3,0.7c0.2,0.2,0.5,0.3,1,0.3c0.4,0,0.8-0.1,1.1-0.3c0.3-0.2,0.6-0.4,0.7-0.8
				c0.1-0.2,0.2-0.6,0.2-1.1V724z"/>
			<path class="st2" d="M232.7,729.7v-8.9h1v0.8c0.2-0.3,0.5-0.6,0.8-0.7c0.3-0.2,0.6-0.2,1.1-0.2c0.5,0,1,0.1,1.4,0.4
				c0.4,0.3,0.7,0.7,0.9,1.2c0.2,0.5,0.3,1.1,0.3,1.7c0,0.7-0.1,1.2-0.4,1.8c-0.2,0.5-0.6,0.9-1,1.2c-0.4,0.3-0.9,0.4-1.4,0.4
				c-0.4,0-0.7-0.1-1-0.2c-0.3-0.2-0.5-0.3-0.7-0.6v3.1H232.7z M233.7,724.1c0,0.8,0.2,1.4,0.5,1.8c0.3,0.4,0.7,0.6,1.2,0.6
				c0.5,0,0.9-0.2,1.2-0.6s0.5-1,0.5-1.9c0-0.8-0.2-1.4-0.5-1.8c-0.3-0.4-0.7-0.6-1.2-0.6c-0.5,0-0.9,0.2-1.2,0.6
				C233.9,722.6,233.7,723.3,233.7,724.1z"/>
			<path class="st2" d="M239.8,729.7v-8.9h1v0.8c0.2-0.3,0.5-0.6,0.8-0.7c0.3-0.2,0.6-0.2,1.1-0.2c0.5,0,1,0.1,1.4,0.4
				c0.4,0.3,0.7,0.7,0.9,1.2c0.2,0.5,0.3,1.1,0.3,1.7c0,0.7-0.1,1.2-0.4,1.8c-0.2,0.5-0.6,0.9-1,1.2c-0.4,0.3-0.9,0.4-1.4,0.4
				c-0.4,0-0.7-0.1-1-0.2c-0.3-0.2-0.5-0.3-0.7-0.6v3.1H239.8z M240.8,724.1c0,0.8,0.2,1.4,0.5,1.8c0.3,0.4,0.7,0.6,1.2,0.6
				c0.5,0,0.9-0.2,1.2-0.6s0.5-1,0.5-1.9c0-0.8-0.2-1.4-0.5-1.8c-0.3-0.4-0.7-0.6-1.2-0.6c-0.5,0-0.9,0.2-1.2,0.6
				C241,722.6,240.8,723.3,240.8,724.1z"/>
			<path class="st2" d="M247,727.2v-6.4h1v1c0.2-0.5,0.5-0.8,0.7-0.9c0.2-0.1,0.4-0.2,0.7-0.2c0.4,0,0.7,0.1,1.1,0.4l-0.4,1
				c-0.3-0.2-0.5-0.2-0.8-0.2c-0.2,0-0.5,0.1-0.6,0.2c-0.2,0.1-0.3,0.3-0.4,0.6c-0.1,0.4-0.2,0.8-0.2,1.3v3.4H247z"/>
			<path class="st2" d="M250.9,724c0-1.2,0.3-2.1,1-2.6c0.6-0.5,1.2-0.7,2-0.7c0.9,0,1.6,0.3,2.2,0.9c0.6,0.6,0.8,1.4,0.8,2.4
				c0,0.8-0.1,1.5-0.4,1.9c-0.2,0.5-0.6,0.8-1.1,1.1c-0.5,0.3-1,0.4-1.5,0.4c-0.9,0-1.6-0.3-2.2-0.9
				C251.2,726,250.9,725.1,250.9,724z M252.1,724c0,0.8,0.2,1.4,0.5,1.8c0.4,0.4,0.8,0.6,1.4,0.6c0.5,0,1-0.2,1.3-0.6
				c0.4-0.4,0.5-1,0.5-1.9c0-0.8-0.2-1.4-0.5-1.8s-0.8-0.6-1.3-0.6c-0.5,0-1,0.2-1.4,0.6C252.2,722.6,252.1,723.2,252.1,724z"/>
			<path class="st2" d="M257.5,727.2l2.3-3.3l-2.2-3.1h1.4l1,1.5c0.2,0.3,0.3,0.5,0.4,0.7c0.2-0.3,0.3-0.5,0.5-0.7l1.1-1.5h1.3
				l-2.2,3l2.4,3.4h-1.3l-1.3-2l-0.4-0.5l-1.7,2.5H257.5z"/>
			<path class="st2" d="M265,727.2V726h1.2v1.2H265z"/>
			<path class="st2" d="M271.3,724.9l1.1-0.1c0.1,0.6,0.3,1.1,0.6,1.3c0.3,0.3,0.7,0.4,1.1,0.4c0.5,0,0.9-0.2,1.3-0.5
				c0.4-0.4,0.5-0.8,0.5-1.3c0-0.5-0.2-0.9-0.5-1.2c-0.3-0.3-0.7-0.5-1.2-0.5c-0.2,0-0.5,0-0.8,0.1l0.1-1c0.1,0,0.1,0,0.2,0
				c0.5,0,0.9-0.1,1.2-0.4c0.4-0.2,0.6-0.6,0.6-1.1c0-0.4-0.1-0.7-0.4-1s-0.6-0.4-1-0.4c-0.4,0-0.8,0.1-1.1,0.4s-0.5,0.7-0.5,1.2
				l-1.1-0.2c0.1-0.7,0.4-1.3,0.9-1.7c0.5-0.4,1.1-0.6,1.8-0.6c0.5,0,0.9,0.1,1.3,0.3c0.4,0.2,0.7,0.5,0.9,0.8s0.3,0.7,0.3,1.1
				c0,0.4-0.1,0.7-0.3,1c-0.2,0.3-0.5,0.6-0.9,0.7c0.5,0.1,0.9,0.4,1.2,0.8c0.3,0.4,0.4,0.9,0.4,1.4c0,0.8-0.3,1.4-0.8,2
				c-0.6,0.5-1.3,0.8-2.1,0.8c-0.8,0-1.4-0.2-1.9-0.7S271.3,725.6,271.3,724.9z"/>
			<path class="st2" d="M278,727.4l2.6-9.2h0.9l-2.6,9.2H278z"/>
			<path class="st2" d="M286,727.2h-1.1v-6.9c-0.3,0.2-0.6,0.5-1,0.7c-0.4,0.2-0.8,0.4-1.1,0.6v-1.1c0.6-0.3,1.1-0.6,1.6-1
				c0.5-0.4,0.8-0.8,1-1.2h0.7V727.2z"/>
			<path class="st2" d="M294.3,720.6l-1.1,0.1c-0.1-0.4-0.2-0.7-0.4-0.9c-0.3-0.3-0.7-0.5-1.1-0.5c-0.3,0-0.7,0.1-0.9,0.3
				c-0.3,0.2-0.6,0.6-0.8,1.1c-0.2,0.5-0.3,1.2-0.3,2c0.3-0.4,0.6-0.7,1-0.9c0.4-0.2,0.8-0.3,1.2-0.3c0.7,0,1.3,0.3,1.9,0.8
				c0.5,0.5,0.8,1.2,0.8,2.1c0,0.6-0.1,1.1-0.4,1.5c-0.2,0.5-0.6,0.8-1,1.1c-0.4,0.3-0.9,0.4-1.4,0.4c-0.9,0-1.6-0.3-2.2-1
				c-0.6-0.7-0.9-1.8-0.9-3.3c0-1.7,0.3-3,0.9-3.7c0.6-0.7,1.3-1,2.2-1c0.7,0,1.3,0.2,1.7,0.6C294,719.3,294.3,719.9,294.3,720.6z
				 M289.9,724.4c0,0.4,0.1,0.7,0.2,1.1c0.2,0.3,0.4,0.6,0.7,0.8c0.3,0.2,0.6,0.3,0.9,0.3c0.5,0,0.9-0.2,1.2-0.6s0.5-0.9,0.5-1.5
				c0-0.6-0.2-1.1-0.5-1.4c-0.3-0.4-0.7-0.5-1.2-0.5c-0.5,0-0.9,0.2-1.2,0.5C290.1,723.3,289.9,723.8,289.9,724.4z"/>
			<path class="st2" d="M296.4,721.5l-0.3-1.7v-1.4h1.2v1.4l-0.3,1.7H296.4z M298.4,721.5l-0.3-1.7v-1.4h1.2v1.4l-0.3,1.7H298.4z"/>
			<path class="st2" d="M303.8,724.6v-1.1h3.3v1.1H303.8z"/>
			<path class="st2" d="M314.9,727.2v-2.1h-3.8v-1l4-5.7h0.9v5.7h1.2v1H316v2.1H314.9z M314.9,724.1v-4l-2.8,4H314.9z"/>
			<path class="st2" d="M319.1,727.2V726h1.2v1.2H319.1z"/>
			<path class="st2" d="M321.9,719.6v-1h5.7v0.8c-0.6,0.6-1.1,1.4-1.7,2.4c-0.6,1-1,2-1.3,3.1c-0.2,0.7-0.4,1.6-0.4,2.4h-1.1
				c0-0.7,0.1-1.5,0.4-2.5c0.3-1,0.6-1.9,1.1-2.9c0.5-0.9,1-1.7,1.6-2.3H321.9z"/>
			<path class="st2" d="M328.7,727.2v-6.4h1v0.9c0.2-0.3,0.5-0.6,0.8-0.8s0.7-0.3,1.1-0.3c0.5,0,0.9,0.1,1.2,0.3
				c0.3,0.2,0.5,0.5,0.6,0.8c0.5-0.7,1.2-1.1,2-1.1c0.6,0,1.1,0.2,1.5,0.5c0.3,0.4,0.5,0.9,0.5,1.6v4.4h-1.1v-4c0-0.4,0-0.7-0.1-0.9
				c-0.1-0.2-0.2-0.3-0.4-0.5c-0.2-0.1-0.4-0.2-0.7-0.2c-0.5,0-0.8,0.1-1.1,0.4c-0.3,0.3-0.4,0.8-0.4,1.4v3.7h-1.1v-4.2
				c0-0.5-0.1-0.8-0.3-1.1c-0.2-0.2-0.5-0.4-0.9-0.4c-0.3,0-0.6,0.1-0.8,0.2c-0.3,0.2-0.4,0.4-0.6,0.7c-0.1,0.3-0.2,0.8-0.2,1.3v3.3
				H328.7z"/>
			<path class="st2" d="M339.2,727.2v-6.4h1v0.9c0.2-0.3,0.5-0.6,0.8-0.8s0.7-0.3,1.1-0.3c0.5,0,0.9,0.1,1.2,0.3
				c0.3,0.2,0.5,0.5,0.6,0.8c0.5-0.7,1.2-1.1,2-1.1c0.6,0,1.1,0.2,1.5,0.5c0.3,0.4,0.5,0.9,0.5,1.6v4.4h-1.1v-4c0-0.4,0-0.7-0.1-0.9
				c-0.1-0.2-0.2-0.3-0.4-0.5c-0.2-0.1-0.4-0.2-0.7-0.2c-0.5,0-0.8,0.1-1.1,0.4c-0.3,0.3-0.4,0.8-0.4,1.4v3.7H343v-4.2
				c0-0.5-0.1-0.8-0.3-1.1c-0.2-0.2-0.5-0.4-0.9-0.4c-0.3,0-0.6,0.1-0.8,0.2c-0.3,0.2-0.4,0.4-0.6,0.7c-0.1,0.3-0.2,0.8-0.2,1.3v3.3
				H339.2z"/>
		</g>
	</g>
</g>
<g id="Watermark">
	<g>
		<rect x="438.5" y="334.9" class="st0" width="123.1" height="46.3"/>
		<g>
			<rect x="444.9" y="342.7" class="st75" width="62.9" height="30.6"/>
			<rect x="507.7" y="342.7" class="st75" width="47.4" height="30.6"/>
			<g>
				<path class="st76" d="M466.5,348.8l-2.8,18.9H461l-1.6-11l-1.5,11h-2.7l-2.8-18.9h2.5l1.8,14.2l1.8-14.2h2l1.8,14.2l1.8-14.2
					H466.5z"/>
				<path class="st76" d="M467.9,367.7v-18.9h2.5v18.9H467.9z"/>
				<path class="st76" d="M472.8,348.8h5c1.9,0,2.9,1.1,2.9,3.2v4.7c0,1.7-0.5,2.7-1.5,3.1l1.8,7.9h-2.4l-1.7-7.6h-1.5v7.6h-2.5
					V348.8z M475.4,357.9h1.7c0.8,0,1.1-0.5,1.1-1.4v-4.1c0-0.9-0.4-1.4-1.1-1.4h-1.7V357.9z"/>
				<path class="st76" d="M486.8,351.1v16.6h-2.5v-16.6h-2.4v-2.3h7.4v2.3H486.8z"/>
				<path class="st76" d="M496.3,367.7v-8.6h-3.1v8.6h-2.5v-18.9h2.5v8h3.1v-8h2.5v18.9H496.3z"/>
			</g>
			<g>
				<path class="st76" d="M516.3,348.8h5c1.9,0,2.9,1.1,2.9,3.2v4.7c0,1.7-0.5,2.7-1.5,3.1l1.8,7.9H522l-1.7-7.6h-1.5v7.6h-2.5
					V348.8z M518.8,357.9h1.7c0.8,0,1.1-0.5,1.1-1.4v-4.1c0-0.9-0.4-1.4-1.1-1.4h-1.7V357.9z"/>
				<path class="st76" d="M528.7,367.7h-2.5V352c0-2.2,1-3.2,3-3.2h1.9c2,0,3,1.1,3,3.2v15.7h-2.5v-6.9h-2.9V367.7z M531.6,358.5
					v-6.3c0-0.7-0.4-1.1-1.1-1.1h-0.7c-0.7,0-1.1,0.4-1.1,1.1v6.3H531.6z"/>
				<path class="st76" d="M536.3,367.7v-18.9h2.5v18.9H536.3z"/>
				<path class="st76" d="M547.2,367.7h-6v-18.9h2.5v16.6h3.5V367.7z"/>
			</g>
		</g>
	</g>
</g>
</svg>
