<?xml version="1.0" encoding="utf-8"?>
<!-- Generator: Adobe Illustrator 25.2.3, SVG Export Plug-In . SVG Version: 6.00 Build 0)  -->
<svg version="1.1" xmlns="http://www.w3.org/2000/svg" xmlns:xlink="http://www.w3.org/1999/xlink" x="0px" y="0px"
	 viewBox="0 0 1000 800" style="enable-background:new 0 0 1000 800;" xml:space="preserve">
<style type="text/css">
	.st0{fill:#F0F0F0;}
	.st1{fill:none;stroke:#221E1F;stroke-width:1.0614;}
	.st2{fill:#221E1F;}
	.st3{fill:none;stroke:#221E1F;stroke-width:1.0614;stroke-dasharray:12.8405,6.4722;}
	.st4{fill:none;stroke:#000000;stroke-width:1.404;}
	.st5{fill:none;stroke:#000000;stroke-width:0.975;}
	.st6{fill:none;stroke:#000000;stroke-width:0.975;stroke-dasharray:11.5538,5.7038;}
	.st7{fill:none;stroke:#000000;stroke-width:0.975;stroke-miterlimit:10;}
	.st8{fill:none;stroke:#221E1F;stroke-width:0.8906;}
	.st9{fill:none;stroke:#221E1F;stroke-width:0.8819;}
	.st10{clip-path:url(#SVGID_2_);fill:none;stroke:#221E1F;stroke-width:0.8819;}
	.st11{clip-path:url(#SVGID_4_);fill:none;stroke:#221E1F;stroke-width:0.8819;}
	.st12{fill:#303030;}
	.st13{fill:none;stroke:#303030;stroke-width:0.8906;stroke-miterlimit:10;}
	.st14{clip-path:url(#SVGID_6_);fill:none;stroke:#221E1F;stroke-width:0.8906;}
	.st15{fill:none;stroke:#221E1F;stroke-width:0.8906;stroke-dasharray:23.0235,6.997;}
	.st16{fill:none;stroke:#221E1F;stroke-width:0.8906;stroke-dasharray:19.498,3.4714;}
	.st17{fill:none;stroke:#221E1F;stroke-width:0.8906;stroke-dasharray:21.3897,6.2234;}
	.st18{clip-path:url(#SVGID_8_);fill:none;stroke:#221E1F;stroke-width:0.8025;}
	.st19{fill:none;stroke:#221E1F;stroke-width:0.7299;}
	.st20{clip-path:url(#SVGID_10_);fill:none;stroke:#221E1F;stroke-width:0.8025;}
	.st21{fill:none;stroke:#221E1F;stroke-width:0.7726;}
	.st22{fill:none;stroke:#221E1F;stroke-width:0.8025;}
	.st23{fill:none;stroke:#221E1F;stroke-width:0.8025;stroke-dasharray:21.5886,6.6505;}
	.st24{fill:none;stroke:#303030;stroke-width:0.8025;stroke-miterlimit:10;}
	.st25{fill:none;stroke:#221E1F;stroke-width:0.811;stroke-dasharray:21.8106,6.6911;}
	.st26{fill:none;stroke:#221E1F;stroke-width:0.811;stroke-dasharray:16.7651,1.6456;}
	.st27{fill:none;stroke:#221E1F;stroke-width:0.811;}
	.st28{clip-path:url(#SVGID_12_);fill:#221E1F;}
	.st29{fill:none;stroke:#221E1F;stroke-width:1.2695;}
	.st30{fill:none;stroke:#221E1F;stroke-width:0.8814;}
	.st31{fill:none;stroke:#221E1F;stroke-width:1.4133;}
	.st32{fill:none;stroke:#221E1F;stroke-width:0.9807;}
	.st33{fill:none;stroke:#221E1F;stroke-width:0.9807;stroke-dasharray:13.5825,6.7924;}
	.st34{fill:none;stroke:#221E1F;stroke-width:0.9807;stroke-dasharray:19.5641,12.5429;}
	.st35{fill:none;stroke:#221E1F;stroke-width:1.1332;}
	.st36{fill:none;stroke:#221E1F;stroke-width:1.7102;}
	.st37{fill:none;stroke:#221E1F;stroke-width:1.2031;stroke-linecap:round;stroke-linejoin:round;stroke-miterlimit:10;}
	.st38{fill:none;stroke:#221E1F;stroke-width:1.2031;}
	.st39{fill:none;stroke:#221E1F;stroke-width:1.2031;stroke-miterlimit:10;}
	
		.st40{fill:none;stroke:#221E1F;stroke-width:1.2031;stroke-linecap:round;stroke-linejoin:round;stroke-miterlimit:10;stroke-dasharray:9.1021,1.1746,1.1746,1.1746;stroke-dashoffset:10;}
	
		.st41{fill:none;stroke:#221E1F;stroke-width:1.2031;stroke-linecap:round;stroke-linejoin:round;stroke-miterlimit:10;stroke-dasharray:9.1228,1.1953,1.1953,1.1953;stroke-dashoffset:10;}
	.st42{fill:none;stroke:#221E1F;stroke-width:1.0246;}
	.st43{fill:none;stroke:#221E1F;stroke-width:1.0246;stroke-dasharray:5.7593,5.7593;}
	.st44{fill:none;stroke:#221E1F;stroke-width:1.0582;}
	.st45{fill:none;stroke:#221E1F;stroke-width:1.0246;stroke-dasharray:5.8059,5.8059;}
	.st46{fill:none;stroke:#241F21;stroke-width:0.8839;}
	.st47{fill:#241F21;}
	.st48{fill:none;stroke:#241F21;stroke-width:1.2533;}
	.st49{fill:none;stroke:#241F21;stroke-width:0.7133;stroke-linecap:round;stroke-linejoin:round;stroke-miterlimit:10;}
	.st50{fill:none;stroke:#241F21;stroke-width:0.8839;stroke-miterlimit:10;}
	
		.st51{clip-path:url(#SVGID_14_);fill:none;stroke:#241F21;stroke-width:0.8839;stroke-linecap:round;stroke-linejoin:round;stroke-miterlimit:10;}
	.st52{clip-path:url(#SVGID_14_);fill:none;stroke:#241F21;stroke-width:0.8839;stroke-miterlimit:10;}
	.st53{fill:none;stroke:#241F21;stroke-width:0.8839;stroke-linecap:round;stroke-linejoin:round;stroke-miterlimit:10;}
	.st54{fill:none;stroke:#241F21;stroke-width:0.7642;stroke-linecap:round;stroke-linejoin:round;stroke-miterlimit:10;}
	
		.st55{fill:none;stroke:#241F21;stroke-width:0.7133;stroke-linecap:round;stroke-linejoin:round;stroke-miterlimit:10;stroke-dasharray:9.9652,1.3195,1.3195,1.3195;stroke-dashoffset:11;}
	
		.st56{fill:none;stroke:#241F21;stroke-width:0.7133;stroke-linecap:round;stroke-linejoin:round;stroke-miterlimit:10;stroke-dasharray:9.7079,1.0622,1.0622,1.0622;stroke-dashoffset:10;}
	.st57{fill:none;stroke:#241F21;stroke-width:0.8839;stroke-dasharray:5.5991,5.5991;}
	.st58{fill:none;stroke:#241F21;stroke-width:0.7515;stroke-dasharray:5.6857,5.6857;}
	.st59{fill:none;stroke:#221E1F;stroke-width:1.0101;stroke-miterlimit:10;}
	.st60{fill:none;stroke:#221E1F;stroke-width:1.0012;}
	.st61{fill:none;stroke:#221E1F;stroke-width:0.9081;}
	.st62{fill:none;stroke:#221E1F;stroke-width:1.0385;}
	.st63{fill:none;stroke:#221E1F;stroke-width:0.9081;stroke-dasharray:20.8407,6.1278;}
	.st64{fill:none;stroke:#221E1F;stroke-width:1.406;}
	.st65{fill:none;stroke:#221E1F;stroke-width:0.9906;}
	.st66{fill:none;stroke:#221E1F;stroke-width:0.9887;}
	.st67{fill:none;stroke:#221E1F;stroke-width:0.8443;}
	.st68{fill:none;stroke:#221E1F;stroke-width:0.8443;stroke-dasharray:4.4655,4.4655;}
	.st69{fill:none;stroke:#221E1F;stroke-width:1.7608;}
	.st70{fill:none;stroke:#221E1F;stroke-width:1.0549;}
	.st71{clip-path:url(#SVGID_16_);fill:none;stroke:#221E1F;stroke-width:1.0549;}
	.st72{fill:none;stroke:#221E1F;stroke-width:1.0549;stroke-dasharray:5.538,5.538;}
	.st73{clip-path:url(#SVGID_18_);}
	.st74{clip-path:url(#SVGID_20_);}
	.st75{fill:#F0F0F0;stroke:#CCCCCC;stroke-miterlimit:10;}
	.st76{fill:#CCCCCC;}
</style>
<g id="Flat">
	<g>
		<g>
			<path class="st0" d="M500.9,726.2H210.5c0,0-6.8,0-9.9-2c-1.8-1.2-2.6-11.5-0.4-26.7c1.2-8.5,7.7-13.7,11.5-16.7
				c13.1-10.3,123.6-30.1,141.1-39.6c17.5-9.5,24.6-9.1,55.6-50.8c22.5-30.3,28.2-151-6-215.4s-96.8-86.7-110.8-99.3
				c-11.4-10.2-2.4-50.4,0.1-77c2.8-29.8,4-55.7,20.7-63.8c19.8-9.6,89.3-10.6,187.8-12.2h-0.1c98.5,1.6,168,2.6,187.8,12.2
				c16.7,8,17.9,34,20.7,63.8c2.5,26.5,11.5,66.7,0.1,77c-14,12.6-76.7,35-110.8,99.3c-34.2,64.4-28.5,185.1-6,215.4
				c31,41.7,38.1,41.3,55.6,50.8c17.5,9.5,128,29.3,141.1,39.6c3.8,2.9,10.3,8.2,11.5,16.7c2.1,15.2,1.4,25.5-0.4,26.7
				c-3.1,2-9.9,2-9.9,2H499.1H500.9z"/>
			<path class="st64" d="M500.9,726.2H210.5c0,0-6.8,0-9.9-2c-1.8-1.2-2.6-11.5-0.4-26.7c1.2-8.5,7.7-13.7,11.5-16.7
				c13.1-10.3,123.6-30.1,141.1-39.6c17.5-9.5,24.6-9.1,55.6-50.8c22.5-30.3,28.2-151-6-215.4s-96.8-86.7-110.8-99.3
				c-11.4-10.2-2.4-50.4,0.1-77c2.8-29.8,4-55.7,20.7-63.8c19.8-9.6,89.3-10.6,187.8-12.2h-0.1c98.5,1.6,168,2.6,187.8,12.2
				c16.7,8,17.9,34,20.7,63.8c2.5,26.5,11.5,66.7,0.1,77c-14,12.6-76.7,35-110.8,99.3c-34.2,64.4-28.5,185.1-6,215.4
				c31,41.7,38.1,41.3,55.6,50.8c17.5,9.5,128,29.3,141.1,39.6c3.8,2.9,10.3,8.2,11.5,16.7c2.1,15.2,1.4,25.5-0.4,26.7
				c-3.1,2-9.9,2-9.9,2H499.1H500.9z"/>
		</g>
		<g>
			<path class="st2" d="M544.8,219.8V208h5.2c1.1,0,1.9,0.1,2.4,0.3s1,0.6,1.3,1.1c0.3,0.5,0.5,1.1,0.5,1.8c0,0.8-0.3,1.5-0.8,2.1
				c-0.5,0.6-1.4,0.9-2.5,1.1c0.4,0.2,0.7,0.4,0.9,0.6c0.5,0.4,0.9,0.9,1.3,1.6l2.1,3.2h-2l-1.6-2.5c-0.5-0.7-0.8-1.3-1.1-1.6
				c-0.3-0.4-0.6-0.6-0.8-0.8c-0.2-0.2-0.5-0.3-0.7-0.3c-0.2,0-0.5-0.1-0.9-0.1h-1.8v5.2H544.8z M546.4,213.2h3.4
				c0.7,0,1.3-0.1,1.7-0.2c0.4-0.1,0.7-0.4,0.9-0.7c0.2-0.3,0.3-0.7,0.3-1.1c0-0.6-0.2-1-0.6-1.4c-0.4-0.4-1-0.5-1.9-0.5h-3.7V213.2
				z"/>
			<path class="st2" d="M560.8,219.8V217h-5.1v-1.3l5.4-7.7h1.2v7.7h1.6v1.3h-1.6v2.8H560.8z M560.8,215.7v-5.3l-3.7,5.3H560.8z"/>
			<path class="st2" d="M565.3,216.7l1.5-0.1c0.1,0.7,0.4,1.3,0.8,1.7s0.9,0.6,1.5,0.6c0.7,0,1.3-0.3,1.8-0.8
				c0.5-0.5,0.7-1.2,0.7-2.1c0-0.8-0.2-1.5-0.7-2c-0.5-0.5-1.1-0.7-1.8-0.7c-0.5,0-0.9,0.1-1.3,0.3c-0.4,0.2-0.7,0.5-0.9,0.8
				l-1.4-0.2l1.1-6.1h5.9v1.4h-4.7l-0.6,3.2c0.7-0.5,1.5-0.7,2.2-0.7c1,0,1.9,0.4,2.6,1.1c0.7,0.7,1.1,1.6,1.1,2.8
				c0,1.1-0.3,2-0.9,2.8c-0.8,1-1.8,1.4-3.1,1.4c-1.1,0-2-0.3-2.6-0.9C565.8,218.5,565.4,217.7,565.3,216.7z"/>
			<path class="st2" d="M574.5,214c0-1.4,0.1-2.5,0.4-3.4c0.3-0.9,0.7-1.5,1.3-2c0.6-0.5,1.3-0.7,2.1-0.7c0.6,0,1.2,0.1,1.7,0.4
				s0.9,0.6,1.2,1.1s0.6,1.1,0.7,1.8c0.2,0.7,0.3,1.6,0.3,2.8c0,1.4-0.1,2.5-0.4,3.4c-0.3,0.9-0.7,1.5-1.3,2s-1.3,0.7-2.1,0.7
				c-1.1,0-2-0.4-2.7-1.2C574.9,217.8,574.5,216.2,574.5,214z M576,214c0,1.9,0.2,3.2,0.7,3.9s1,1,1.7,1c0.7,0,1.2-0.3,1.7-1
				c0.5-0.6,0.7-1.9,0.7-3.9c0-1.9-0.2-3.2-0.7-3.9c-0.5-0.6-1-1-1.7-1c-0.7,0-1.2,0.3-1.6,0.8C576.2,210.7,576,212,576,214z"/>
		</g>
		<path class="st65" d="M299.9,70.6v48.7L282.1,283V15.6 M700.2,70.6v48.7L718,283V15.6"/>
		<polyline class="st66" points="634.5,142.2 630.2,223.2 541.3,223.2 		"/>
		<polygon class="st2" points="631,144.3 635.2,131.7 637.9,144.7 		"/>
		<line class="st65" x1="253.5" y1="272.9" x2="253.5" y2="133.5"/>
		<polygon class="st2" points="256.8,270.6 253.4,283.5 249.9,270.6 		"/>
		<polygon class="st2" points="256.8,135.9 253.4,123 249.9,135.9 		"/>
		<line class="st67" x1="564.7" y1="491.8" x2="435.5" y2="491.8"/>
		<polygon class="st2" points="562.7,489 573.6,491.9 562.7,494.9 		"/>
		<polygon class="st2" points="437.5,489 426.6,491.9 437.5,494.9 		"/>
		<line class="st65" x1="903.1" y1="716.8" x2="903.1" y2="133.5"/>
		<polygon class="st2" points="906.4,714.5 902.9,727.3 899.5,714.5 		"/>
		<polygon class="st2" points="906.4,135.9 902.9,123 899.5,135.9 		"/>
		<line class="st66" x1="654.6" y1="715" x2="654.6" y2="617.6"/>
		<polygon class="st2" points="657.9,712.7 654.4,725.5 651,712.7 		"/>
		<polygon class="st2" points="657.9,620 654.4,607.1 651,620 		"/>
		<line class="st66" x1="496.7" y1="606.3" x2="682.6" y2="606.3"/>
		<line class="st67" x1="246.1" y1="283.5" x2="721.2" y2="283.5"/>
		<path class="st65" d="M854.1,681l0,45.5 M804.3,680.9v99.8 M788.5,680.8h76 M764.1,726.5h155.5 M499.7,605.8h182.9 M246.1,123
			h673.5"/>
		<line class="st67" x1="197.8" y1="681" x2="197.8" y2="780.8"/>
		<path class="st65" d="M306.6,297.8L226.2,461h188.2 M328.7,648.9l172.2-43.3 M672.6,648.9l-172.2-43.3"/>
		<polygon class="st2" points="302.6,298.5 311.4,288.4 308.8,301.5 		"/>
		<polygon class="st2" points="412.1,464.3 425,460.8 412.1,457.4 		"/>
		<polyline class="st65" points="344.7,633.2 302.5,529.7 414.4,529.7 		"/>
		<polygon class="st2" points="346.8,629.8 348.5,643 340.4,632.4 		"/>
		<polygon class="st2" points="412.1,533 425,529.6 412.1,526.1 		"/>
		<polyline class="st66" points="315.8,144.5 358.3,178.7 407.1,178.7 		"/>
		<polygon class="st2" points="315.6,148.6 307.7,137.8 319.9,143.2 		"/>
		<polyline class="st66" points="298.8,268.3 344.2,236.5 407.1,234.7 		"/>
		<polygon class="st2" points="302.7,269.7 290.1,274.2 298.7,264 		"/>
		<polyline class="st66" points="789.5,719.6 745.3,705.3 681.5,705.3 		"/>
		<polygon class="st2" points="788.3,715.7 799.5,722.9 786.2,722.3 		"/>
		<polyline class="st65" points="218.8,688.6 352.6,709.1 415.1,709.1 		"/>
		<polygon class="st2" points="220.6,692.2 208.4,686.9 221.6,685.4 		"/>
		<line class="st65" x1="854.1" y1="597" x2="854.1" y2="670.3"/>
		<polygon class="st2" points="850.8,667.9 854.3,680.8 857.7,667.9 		"/>
		<line class="st65" x1="854.1" y1="765.3" x2="854.1" y2="737.2"/>
		<polygon class="st2" points="857.4,739.6 854,726.7 850.5,739.6 		"/>
		<line class="st65" x1="211.6" y1="765.9" x2="791.2" y2="765.9"/>
		<polygon class="st2" points="214.5,770.1 198.4,765.8 214.5,761.4 		"/>
		<polygon class="st2" points="788.2,770.1 804.3,765.8 788.2,761.4 		"/>
		<g>
			<path class="st12" d="M470.8,751.9L470.8,751.9l-1.9,1l-0.3-1.1l2.3-1.3h1.2v10.7h-1.4V751.9z"/>
			<path class="st12" d="M482.5,751.8h-4.1l-0.4,2.8c0.2,0,0.5-0.1,0.9-0.1c0.8,0,1.7,0.2,2.3,0.6c0.8,0.5,1.5,1.4,1.5,2.8
				c0,2.1-1.7,3.7-4,3.7c-1.2,0-2.2-0.3-2.7-0.7l0.4-1.1c0.4,0.3,1.3,0.6,2.3,0.6c1.4,0,2.5-0.9,2.5-2.3c0-1.4-0.9-2.4-3.1-2.4
				c-0.6,0-1.1,0.1-1.5,0.1l0.7-5.2h5.1V751.8z"/>
			<path class="st12" d="M491.7,755.8c0,3.6-1.4,5.7-3.7,5.7c-2.1,0-3.5-2-3.5-5.5c0-3.6,1.6-5.6,3.7-5.6
				C490.4,750.4,491.7,752.4,491.7,755.8z M485.9,756c0,2.8,0.9,4.4,2.2,4.4c1.5,0,2.2-1.7,2.2-4.5c0-2.6-0.7-4.4-2.2-4.4
				C486.8,751.5,485.9,753,485.9,756z"/>
			<path class="st12" d="M500.1,749.8c-1.2,1.6-2.1,3.8-2.1,6.8c0,2.9,0.9,5.1,2.1,6.7H499c-1-1.4-2.2-3.5-2.2-6.7
				c0-3.3,1.1-5.4,2.2-6.8H500.1z"/>
			<path class="st12" d="M507.6,751.8h-4.1l-0.4,2.8c0.2,0,0.5-0.1,0.9-0.1c0.8,0,1.7,0.2,2.3,0.6c0.8,0.5,1.5,1.4,1.5,2.8
				c0,2.1-1.7,3.7-4,3.7c-1.2,0-2.2-0.3-2.7-0.7l0.4-1.1c0.4,0.3,1.3,0.6,2.3,0.6c1.4,0,2.5-0.9,2.5-2.3c0-1.4-0.9-2.4-3.1-2.4
				c-0.6,0-1.1,0.1-1.5,0.1l0.7-5.2h5.1V751.8z"/>
			<path class="st12" d="M509.8,760.4c0-0.6,0.4-1,1-1c0.6,0,1,0.4,1,1c0,0.6-0.4,1-1,1C510.2,761.5,509.8,761,509.8,760.4z"/>
			<path class="st12" d="M513.9,760.3c0.3,0,0.7,0,1.2,0c0.8-0.1,1.6-0.5,2.2-1c0.7-0.6,1.2-1.6,1.4-2.9h0c-0.6,0.7-1.5,1.2-2.5,1.2
				c-1.9,0-3.2-1.5-3.2-3.3c0-2,1.5-3.8,3.7-3.8c2.2,0,3.5,1.8,3.5,4.5c0,2.4-0.8,4-1.8,5c-0.8,0.8-2,1.3-3.1,1.4
				c-0.5,0.1-1,0.1-1.3,0.1V760.3z M514.5,754.1c0,1.3,0.8,2.3,2.1,2.3c1,0,1.7-0.5,2.1-1.1c0.1-0.1,0.1-0.3,0.1-0.5
				c0-1.8-0.7-3.2-2.2-3.2C515.3,751.5,514.5,752.6,514.5,754.1z"/>
			<path class="st12" d="M528.7,755.8c0,3.6-1.4,5.7-3.7,5.7c-2.1,0-3.5-2-3.5-5.5c0-3.6,1.6-5.6,3.7-5.6
				C527.4,750.4,528.7,752.4,528.7,755.8z M522.9,756c0,2.8,0.9,4.4,2.2,4.4c1.5,0,2.2-1.7,2.2-4.5c0-2.6-0.7-4.4-2.2-4.4
				C523.8,751.5,522.9,753,522.9,756z"/>
			<path class="st12" d="M536.2,751.6c-0.3,0-0.7,0-1.1,0.1c-2.3,0.4-3.5,2-3.7,3.8h0c0.5-0.7,1.4-1.2,2.6-1.2
				c1.9,0,3.2,1.4,3.2,3.5c0,2-1.3,3.8-3.6,3.8c-2.3,0-3.8-1.8-3.8-4.6c0-2.1,0.8-3.8,1.8-4.8c0.9-0.9,2.1-1.4,3.4-1.6
				c0.4-0.1,0.8-0.1,1.1-0.1V751.6z M535.7,757.8c0-1.5-0.9-2.5-2.2-2.5c-0.9,0-1.7,0.5-2.1,1.3c-0.1,0.2-0.2,0.4-0.2,0.6
				c0,1.8,0.8,3.1,2.4,3.1C534.9,760.3,535.7,759.3,535.7,757.8z"/>
			<path class="st12" d="M540,750l-0.3,4h-0.9l-0.3-4H540z M542.5,750l-0.3,4h-0.9l-0.3-4H542.5z"/>
		</g>
		<g>
			<path class="st12" d="M543.7,763.3c1.2-1.6,2.1-3.8,2.1-6.8c0-3-0.9-5.1-2.1-6.7h1.1c1.1,1.4,2.2,3.5,2.2,6.7
				c0,3.2-1.1,5.3-2.2,6.7H543.7z"/>
		</g>
		<g>
			<path class="st12" d="M468,485.1c0.4,0.3,1.4,0.7,2.4,0.7c1.9,0,2.4-1.2,2.4-2.1c0-1.5-1.4-2.1-2.8-2.1h-0.8v-1.1h0.8
				c1.1,0,2.4-0.5,2.4-1.8c0-0.9-0.5-1.6-1.9-1.6c-0.9,0-1.7,0.4-2.1,0.7l-0.4-1.1c0.6-0.4,1.7-0.8,2.8-0.8c2.1,0,3.1,1.3,3.1,2.6
				c0,1.1-0.7,2-2,2.5v0c1.3,0.3,2.4,1.3,2.4,2.8c0,1.7-1.3,3.2-3.9,3.2c-1.2,0-2.3-0.4-2.8-0.7L468,485.1z"/>
			<path class="st12" d="M476,484c0-1.4,0.8-2.3,2.1-2.9l0,0c-1.2-0.6-1.7-1.5-1.7-2.4c0-1.7,1.4-2.9,3.3-2.9c2.1,0,3.1,1.3,3.1,2.6
				c0,0.9-0.4,1.9-1.8,2.5v0c1.3,0.5,2.2,1.5,2.2,2.8c0,1.9-1.6,3.1-3.6,3.1C477.3,486.9,476,485.6,476,484z M481.7,484
				c0-1.3-0.9-1.9-2.4-2.3c-1.3,0.4-1.9,1.2-1.9,2.2c0,1.1,0.8,2,2.1,2C480.9,485.9,481.7,485.1,481.7,484z M477.8,478.6
				c0,1.1,0.8,1.7,2,2c0.9-0.3,1.6-1,1.6-1.9c0-0.9-0.5-1.8-1.8-1.8C478.4,476.9,477.8,477.7,477.8,478.6z"/>
			<path class="st12" d="M491.7,475.3c-1.2,1.6-2.1,3.8-2.1,6.8c0,2.9,0.9,5.1,2.1,6.7h-1.1c-1-1.4-2.2-3.5-2.2-6.7
				c0-3.3,1.1-5.4,2.2-6.8H491.7z"/>
			<path class="st12" d="M495.9,477.4L495.9,477.4l-1.9,1l-0.3-1.1l2.3-1.3h1.2v10.7h-1.4V477.4z"/>
			<path class="st12" d="M501.3,485.9c0-0.6,0.4-1,1-1c0.6,0,1,0.4,1,1c0,0.6-0.4,1-1,1C501.7,486.9,501.3,486.5,501.3,485.9z"/>
			<path class="st12" d="M509.1,486.7v-2.9h-5v-1l4.8-6.9h1.6v6.7h1.5v1.1h-1.5v2.9H509.1z M509.1,482.7v-3.6c0-0.6,0-1.1,0-1.7h0
				c-0.3,0.6-0.6,1.1-0.9,1.6l-2.6,3.6v0H509.1z"/>
			<path class="st12" d="M514,485.7c0.3,0,0.7,0,1.2,0c0.8-0.1,1.6-0.5,2.2-1c0.7-0.6,1.2-1.6,1.4-2.9h0c-0.6,0.7-1.5,1.2-2.5,1.2
				c-1.9,0-3.2-1.5-3.2-3.3c0-2,1.5-3.8,3.7-3.8c2.2,0,3.5,1.8,3.5,4.5c0,2.4-0.8,4-1.8,5c-0.8,0.8-2,1.3-3.1,1.4
				c-0.5,0.1-1,0.1-1.3,0.1V485.7z M514.5,479.5c0,1.3,0.8,2.3,2.1,2.3c1,0,1.7-0.5,2.1-1.1c0.1-0.1,0.1-0.3,0.1-0.5
				c0-1.8-0.7-3.2-2.2-3.2C515.4,476.9,514.5,478,514.5,479.5z"/>
			<path class="st12" d="M527.7,477c-0.3,0-0.7,0-1.1,0.1c-2.3,0.4-3.5,2-3.7,3.8h0c0.5-0.7,1.4-1.2,2.6-1.2c1.9,0,3.2,1.4,3.2,3.5
				c0,2-1.3,3.8-3.6,3.8c-2.3,0-3.8-1.8-3.8-4.6c0-2.1,0.8-3.8,1.8-4.8c0.9-0.9,2.1-1.4,3.4-1.6c0.4-0.1,0.8-0.1,1.1-0.1V477z
				 M527.3,483.2c0-1.5-0.9-2.5-2.2-2.5c-0.9,0-1.7,0.5-2.1,1.3c-0.1,0.2-0.2,0.4-0.2,0.6c0,1.8,0.8,3.1,2.4,3.1
				C526.5,485.8,527.3,484.8,527.3,483.2z"/>
			<path class="st12" d="M531.6,475.4l-0.3,4h-0.9l-0.3-4H531.6z M534,475.4l-0.3,4h-0.9l-0.3-4H534z"/>
		</g>
		<g>
			<path class="st12" d="M535.3,488.7c1.2-1.6,2.1-3.8,2.1-6.8c0-3-0.9-5.1-2.1-6.7h1.1c1.1,1.4,2.2,3.5,2.2,6.7
				c0,3.2-1.1,5.3-2.2,6.7H535.3z"/>
		</g>
		<line class="st67" x1="500" y1="109.4" x2="500" y2="113.2"/>
		<line class="st68" x1="500" y1="120.7" x2="500" y2="732.5"/>
		<line class="st67" x1="500" y1="736.2" x2="500" y2="739.9"/>
		<line class="st65" x1="295.2" y1="33.5" x2="703" y2="33.5"/>
		<polygon class="st2" points="298.2,37.6 282.1,33.3 298.2,29 		"/>
		<polygon class="st2" points="700,37.6 716.2,33.3 700,29 		"/>
		<line class="st65" x1="313.3" y1="86.6" x2="687" y2="86.6"/>
		<polygon class="st2" points="316.2,90.7 300.1,86.4 316.2,82.1 		"/>
		<polygon class="st2" points="684.1,90.7 700.2,86.4 684.1,82.1 		"/>
		<g>
			<path class="st2" d="M466.8,30.5h-1.5v-9.2c-0.3,0.3-0.8,0.7-1.4,1c-0.6,0.3-1.1,0.6-1.5,0.8v-1.4c0.8-0.4,1.5-0.8,2.1-1.4
				c0.6-0.5,1-1.1,1.3-1.6h0.9V30.5z"/>
			<path class="st2" d="M470.5,24.6c0-1.4,0.1-2.5,0.4-3.4c0.3-0.9,0.7-1.5,1.3-2c0.6-0.5,1.3-0.7,2.1-0.7c0.6,0,1.2,0.1,1.7,0.4
				s0.9,0.6,1.2,1.1s0.6,1.1,0.7,1.8c0.2,0.7,0.3,1.6,0.3,2.8c0,1.4-0.1,2.5-0.4,3.4c-0.3,0.9-0.7,1.5-1.3,2s-1.3,0.7-2.1,0.7
				c-1.1,0-2-0.4-2.7-1.2C470.9,28.5,470.5,26.9,470.5,24.6z M472,24.6c0,1.9,0.2,3.2,0.7,3.9s1,1,1.7,1c0.7,0,1.2-0.3,1.7-1
				c0.5-0.6,0.7-1.9,0.7-3.9c0-1.9-0.2-3.2-0.7-3.9c-0.5-0.6-1-1-1.7-1c-0.7,0-1.2,0.3-1.6,0.8C472.2,21.4,472,22.7,472,24.6z"/>
			<path class="st2" d="M481.9,24.1c-0.6-0.2-1-0.5-1.3-0.9s-0.4-0.9-0.4-1.5c0-0.9,0.3-1.6,0.9-2.2c0.6-0.6,1.4-0.9,2.5-0.9
				c1,0,1.9,0.3,2.5,0.9s0.9,1.3,0.9,2.2c0,0.5-0.1,1-0.4,1.4s-0.7,0.7-1.3,0.9c0.7,0.2,1.3,0.6,1.7,1.1c0.4,0.5,0.6,1.2,0.6,1.9
				c0,1-0.4,1.9-1.1,2.5s-1.7,1-2.8,1s-2.1-0.3-2.8-1c-0.7-0.7-1.1-1.6-1.1-2.6c0-0.8,0.2-1.4,0.6-1.9
				C480.6,24.6,481.2,24.3,481.9,24.1z M481.1,27.1c0,0.4,0.1,0.8,0.3,1.2c0.2,0.4,0.5,0.7,0.9,0.9c0.4,0.2,0.8,0.3,1.2,0.3
				c0.7,0,1.3-0.2,1.7-0.7c0.5-0.4,0.7-1,0.7-1.7c0-0.7-0.2-1.3-0.7-1.7c-0.5-0.5-1-0.7-1.7-0.7c-0.7,0-1.2,0.2-1.7,0.7
				C481.4,25.8,481.1,26.4,481.1,27.1z M481.6,21.6c0,0.6,0.2,1,0.5,1.4c0.4,0.4,0.8,0.5,1.4,0.5c0.6,0,1-0.2,1.4-0.5
				s0.5-0.8,0.5-1.3c0-0.5-0.2-1-0.6-1.3c-0.4-0.4-0.8-0.5-1.4-0.5c-0.6,0-1,0.2-1.4,0.5C481.8,20.7,481.6,21.1,481.6,21.6z"/>
			<path class="st2" d="M496.6,33.9c-0.8-1-1.5-2.2-2-3.5c-0.6-1.4-0.8-2.8-0.8-4.2c0-1.3,0.2-2.5,0.6-3.7c0.5-1.4,1.2-2.7,2.2-4.1
				h1c-0.7,1.1-1.1,1.9-1.3,2.4c-0.3,0.7-0.6,1.5-0.8,2.3c-0.2,1-0.3,2-0.3,3c0,2.6,0.8,5.2,2.4,7.7H496.6z"/>
			<path class="st2" d="M503.6,30.5v-2.8h-5.1v-1.3l5.4-7.7h1.2v7.7h1.6v1.3H505v2.8H503.6z M503.6,26.3V21l-3.7,5.3H503.6z"/>
			<path class="st2" d="M508.9,30.5v-1.7h1.7v1.7H508.9z"/>
			<path class="st2" d="M520.3,29.1v1.4h-7.8c0-0.3,0-0.7,0.2-1c0.2-0.5,0.5-1.1,1-1.6c0.4-0.5,1.1-1.1,1.9-1.8
				c1.3-1.1,2.2-1.9,2.6-2.5c0.5-0.6,0.7-1.2,0.7-1.7c0-0.6-0.2-1.1-0.6-1.5s-0.9-0.6-1.6-0.6c-0.7,0-1.3,0.2-1.7,0.6
				c-0.4,0.4-0.6,1-0.6,1.7l-1.5-0.2c0.1-1.1,0.5-2,1.2-2.5c0.7-0.6,1.6-0.9,2.7-0.9c1.1,0,2,0.3,2.7,0.9c0.7,0.6,1,1.4,1,2.3
				c0,0.5-0.1,0.9-0.3,1.4c-0.2,0.5-0.5,0.9-1,1.4c-0.4,0.5-1.2,1.2-2.2,2.1c-0.9,0.7-1.4,1.2-1.7,1.5c-0.2,0.3-0.5,0.5-0.6,0.8
				H520.3z"/>
			<path class="st2" d="M521.9,27.4l1.5-0.1c0.1,0.7,0.4,1.3,0.8,1.7s0.9,0.6,1.5,0.6c0.7,0,1.3-0.3,1.8-0.8
				c0.5-0.5,0.7-1.2,0.7-2.1c0-0.8-0.2-1.5-0.7-2c-0.5-0.5-1.1-0.7-1.8-0.7c-0.5,0-0.9,0.1-1.3,0.3c-0.4,0.2-0.7,0.5-0.9,0.8
				l-1.4-0.2l1.1-6.1h5.9v1.4h-4.7l-0.6,3.2c0.7-0.5,1.5-0.7,2.2-0.7c1,0,1.9,0.4,2.6,1.1c0.7,0.7,1.1,1.6,1.1,2.8
				c0,1.1-0.3,2-0.9,2.8c-0.8,1-1.8,1.4-3.1,1.4c-1.1,0-2-0.3-2.6-0.9C522.4,29.2,522,28.4,521.9,27.4z"/>
			<path class="st2" d="M538.7,29.1v1.4h-7.8c0-0.3,0-0.7,0.2-1c0.2-0.5,0.5-1.1,1-1.6c0.4-0.5,1.1-1.1,1.9-1.8
				c1.3-1.1,2.2-1.9,2.6-2.5c0.5-0.6,0.7-1.2,0.7-1.7c0-0.6-0.2-1.1-0.6-1.5s-0.9-0.6-1.6-0.6c-0.7,0-1.3,0.2-1.7,0.6
				c-0.4,0.4-0.6,1-0.6,1.7l-1.5-0.2c0.1-1.1,0.5-2,1.2-2.5c0.7-0.6,1.6-0.9,2.7-0.9c1.1,0,2,0.3,2.7,0.9c0.7,0.6,1,1.4,1,2.3
				c0,0.5-0.1,0.9-0.3,1.4c-0.2,0.5-0.5,0.9-1,1.4c-0.4,0.5-1.2,1.2-2.2,2.1c-0.9,0.7-1.4,1.2-1.7,1.5c-0.2,0.3-0.5,0.5-0.6,0.8
				H538.7z"/>
		</g>
		<g>
			<path class="st12" d="M541.8,19.2l-0.3,4h-0.9l-0.3-4H541.8z M544.3,19.2l-0.3,4h-0.9l-0.3-4H544.3z"/>
		</g>
		<g>
			<path class="st2" d="M547.2,33.9h-1c1.6-2.6,2.4-5.2,2.4-7.7c0-1-0.1-2-0.3-3c-0.2-0.8-0.4-1.6-0.8-2.3c-0.2-0.5-0.6-1.3-1.3-2.4
				h1c1,1.3,1.8,2.7,2.2,4.1c0.4,1.2,0.6,2.4,0.6,3.7c0,1.5-0.3,2.9-0.8,4.2C548.6,31.8,547.9,32.9,547.2,33.9z"/>
		</g>
		<g>
			<path class="st2" d="M466.8,83.3h-1.5V74c-0.3,0.3-0.8,0.7-1.4,1c-0.6,0.3-1.1,0.6-1.5,0.8v-1.4c0.8-0.4,1.5-0.8,2.1-1.4
				c0.6-0.5,1-1.1,1.3-1.6h0.9V83.3z"/>
			<path class="st2" d="M470.5,77.5c0-1.4,0.1-2.5,0.4-3.4c0.3-0.9,0.7-1.5,1.3-2c0.6-0.5,1.3-0.7,2.1-0.7c0.6,0,1.2,0.1,1.7,0.4
				s0.9,0.6,1.2,1.1s0.6,1.1,0.7,1.8c0.2,0.7,0.3,1.6,0.3,2.8c0,1.4-0.1,2.5-0.4,3.4c-0.3,0.9-0.7,1.5-1.3,2s-1.3,0.7-2.1,0.7
				c-1.1,0-2-0.4-2.7-1.2C470.9,81.3,470.5,79.7,470.5,77.5z M472,77.5c0,1.9,0.2,3.2,0.7,3.9s1,1,1.7,1c0.7,0,1.2-0.3,1.7-1
				c0.5-0.6,0.7-1.9,0.7-3.9c0-1.9-0.2-3.2-0.7-3.9c-0.5-0.6-1-1-1.7-1c-0.7,0-1.2,0.3-1.6,0.8C472.2,74.2,472,75.5,472,77.5z"/>
			<path class="st2" d="M479.7,77.5c0-1.4,0.1-2.5,0.4-3.4c0.3-0.9,0.7-1.5,1.3-2c0.6-0.5,1.3-0.7,2.1-0.7c0.6,0,1.2,0.1,1.7,0.4
				s0.9,0.6,1.2,1.1s0.6,1.1,0.7,1.8c0.2,0.7,0.3,1.6,0.3,2.8c0,1.4-0.1,2.5-0.4,3.4c-0.3,0.9-0.7,1.5-1.3,2s-1.3,0.7-2.1,0.7
				c-1.1,0-2-0.4-2.7-1.2C480,81.3,479.7,79.7,479.7,77.5z M481.1,77.5c0,1.9,0.2,3.2,0.7,3.9s1,1,1.7,1c0.7,0,1.2-0.3,1.7-1
				c0.5-0.6,0.7-1.9,0.7-3.9c0-1.9-0.2-3.2-0.7-3.9c-0.5-0.6-1-1-1.7-1c-0.7,0-1.2,0.3-1.6,0.8C481.4,74.2,481.1,75.5,481.1,77.5z"
				/>
			<path class="st2" d="M496.6,86.8c-0.8-1-1.5-2.2-2-3.5c-0.6-1.4-0.8-2.8-0.8-4.2c0-1.3,0.2-2.5,0.6-3.7c0.5-1.4,1.2-2.7,2.2-4.1
				h1c-0.7,1.1-1.1,1.9-1.3,2.4c-0.3,0.7-0.6,1.5-0.8,2.3c-0.2,1-0.3,2-0.3,3c0,2.6,0.8,5.2,2.4,7.7H496.6z"/>
			<path class="st2" d="M498.9,80.2l1.5-0.2c0.2,0.8,0.5,1.4,0.9,1.8c0.4,0.4,0.9,0.5,1.5,0.5c0.7,0,1.3-0.2,1.7-0.7
				c0.5-0.5,0.7-1.1,0.7-1.8c0-0.7-0.2-1.2-0.7-1.6s-1-0.6-1.7-0.6c-0.3,0-0.6,0.1-1,0.2l0.2-1.3c0.1,0,0.2,0,0.2,0
				c0.6,0,1.2-0.2,1.7-0.5c0.5-0.3,0.7-0.8,0.7-1.5c0-0.5-0.2-1-0.5-1.3c-0.4-0.3-0.8-0.5-1.4-0.5c-0.6,0-1,0.2-1.4,0.5
				c-0.4,0.4-0.6,0.9-0.7,1.6l-1.5-0.3c0.2-1,0.6-1.7,1.2-2.3c0.6-0.5,1.4-0.8,2.3-0.8c0.6,0,1.2,0.1,1.8,0.4s1,0.7,1.2,1.1
				c0.3,0.5,0.4,1,0.4,1.5c0,0.5-0.1,1-0.4,1.4c-0.3,0.4-0.7,0.8-1.2,1c0.7,0.2,1.2,0.5,1.6,1s0.6,1.1,0.6,1.9c0,1-0.4,1.9-1.1,2.6
				c-0.8,0.7-1.7,1.1-2.9,1.1c-1,0-1.9-0.3-2.6-0.9C499.4,81.9,499,81.1,498.9,80.2z"/>
			<path class="st2" d="M508.9,83.3v-1.7h1.7v1.7H508.9z"/>
			<path class="st2" d="M512.9,80.6l1.4-0.1c0.1,0.7,0.3,1.1,0.7,1.4c0.3,0.3,0.8,0.4,1.3,0.4c0.4,0,0.8-0.1,1.2-0.3
				s0.6-0.5,0.8-0.8c0.2-0.3,0.4-0.8,0.5-1.4c0.1-0.6,0.2-1.2,0.2-1.8c0-0.1,0-0.2,0-0.3c-0.3,0.5-0.7,0.8-1.2,1.1
				c-0.5,0.3-1,0.4-1.6,0.4c-1,0-1.8-0.4-2.5-1.1c-0.7-0.7-1-1.6-1-2.8c0-1.2,0.4-2.2,1.1-2.9s1.6-1.1,2.7-1.1
				c0.8,0,1.5,0.2,2.1,0.6c0.6,0.4,1.1,1,1.5,1.8c0.3,0.8,0.5,1.9,0.5,3.3c0,1.5-0.2,2.7-0.5,3.6c-0.3,0.9-0.8,1.6-1.5,2
				c-0.6,0.5-1.4,0.7-2.3,0.7c-0.9,0-1.7-0.3-2.3-0.8S513,81.5,512.9,80.6z M518.8,75.3c0-0.8-0.2-1.5-0.7-2c-0.4-0.5-1-0.7-1.6-0.7
				c-0.6,0-1.2,0.3-1.7,0.8c-0.5,0.5-0.7,1.2-0.7,2c0,0.8,0.2,1.4,0.7,1.8s1,0.7,1.7,0.7c0.7,0,1.2-0.2,1.7-0.7
				C518.6,76.8,518.8,76.2,518.8,75.3z"/>
			<path class="st2" d="M521.9,80.2l1.5-0.2c0.2,0.8,0.5,1.4,0.9,1.8c0.4,0.4,0.9,0.5,1.5,0.5c0.7,0,1.3-0.2,1.7-0.7
				c0.5-0.5,0.7-1.1,0.7-1.8c0-0.7-0.2-1.2-0.7-1.6s-1-0.6-1.7-0.6c-0.3,0-0.6,0.1-1,0.2l0.2-1.3c0.1,0,0.2,0,0.2,0
				c0.6,0,1.2-0.2,1.7-0.5c0.5-0.3,0.7-0.8,0.7-1.5c0-0.5-0.2-1-0.5-1.3c-0.4-0.3-0.8-0.5-1.4-0.5c-0.6,0-1,0.2-1.4,0.5
				c-0.4,0.4-0.6,0.9-0.7,1.6l-1.5-0.3c0.2-1,0.6-1.7,1.2-2.3c0.6-0.5,1.4-0.8,2.3-0.8c0.6,0,1.2,0.1,1.8,0.4s1,0.7,1.2,1.1
				c0.3,0.5,0.4,1,0.4,1.5c0,0.5-0.1,1-0.4,1.4c-0.3,0.4-0.7,0.8-1.2,1c0.7,0.2,1.2,0.5,1.6,1s0.6,1.1,0.6,1.9c0,1-0.4,1.9-1.1,2.6
				c-0.8,0.7-1.7,1.1-2.9,1.1c-1,0-1.9-0.3-2.6-0.9C522.4,81.9,522,81.1,521.9,80.2z"/>
			<path class="st2" d="M531.1,73v-1.4h7.6v1.1c-0.8,0.8-1.5,1.9-2.2,3.2c-0.7,1.3-1.3,2.7-1.7,4.1c-0.3,1-0.5,2.1-0.6,3.2h-1.5
				c0-0.9,0.2-2.1,0.5-3.4c0.3-1.3,0.9-2.6,1.5-3.8c0.7-1.2,1.3-2.3,2.1-3.1H531.1z"/>
		</g>
		<g>
			<path class="st12" d="M541.8,72l-0.3,4h-0.9l-0.3-4H541.8z M544.3,72l-0.3,4h-0.9l-0.3-4H544.3z"/>
		</g>
		<g>
			<path class="st2" d="M547.2,86.8h-1c1.6-2.6,2.4-5.2,2.4-7.7c0-1-0.1-2-0.3-3c-0.2-0.8-0.4-1.6-0.8-2.3c-0.2-0.5-0.6-1.3-1.3-2.4
				h1c1,1.3,1.8,2.7,2.2,4.1c0.4,1.2,0.6,2.4,0.6,3.7c0,1.5-0.3,2.9-0.8,4.2C548.6,84.6,547.9,85.7,547.2,86.8z"/>
		</g>
		<g>
			<path class="st12" d="M917.6,409L917.6,409l-1-1.9l1.1-0.3l1.3,2.3v1.2h-10.7V409H917.6z"/>
		</g>
		<g>
			<path class="st12" d="M917.7,420.7v-4.1l-2.8-0.4c0,0.2,0.1,0.5,0.1,0.9c0,0.8-0.2,1.7-0.6,2.3c-0.5,0.8-1.4,1.5-2.8,1.5
				c-2.1,0-3.7-1.7-3.7-4c0-1.2,0.3-2.2,0.7-2.7l1.1,0.4c-0.3,0.4-0.6,1.3-0.6,2.3c0,1.4,0.9,2.5,2.3,2.5c1.4,0,2.4-0.9,2.4-3.1
				c0-0.6-0.1-1.1-0.1-1.5l5.2,0.7v5.1H917.7z"/>
		</g>
		<g>
			<path class="st12" d="M913.7,429.9c-3.6,0-5.7-1.4-5.7-3.7c0-2.1,2-3.5,5.5-3.5c3.6,0,5.6,1.6,5.6,3.7
				C919.1,428.6,917.1,429.9,913.7,429.9z M913.5,424.1c-2.8,0-4.4,0.9-4.4,2.2c0,1.5,1.7,2.2,4.5,2.2c2.6,0,4.4-0.7,4.4-2.2
				C918,425,916.4,424.1,913.5,424.1z"/>
		</g>
		<g>
			<path class="st12" d="M919.6,438.4c-1.6-1.2-3.8-2.1-6.8-2.1c-2.9,0-5.1,0.9-6.7,2.1v-1.1c1.4-1,3.5-2.2,6.7-2.2
				c3.3,0,5.4,1.1,6.8,2.2V438.4z"/>
		</g>
		<g>
			<path class="st12" d="M917.7,445.9v-4.1l-2.8-0.4c0,0.2,0.1,0.5,0.1,0.9c0,0.8-0.2,1.7-0.6,2.3c-0.5,0.8-1.4,1.5-2.8,1.5
				c-2.1,0-3.7-1.7-3.7-4c0-1.2,0.3-2.2,0.7-2.7l1.1,0.4c-0.3,0.4-0.6,1.3-0.6,2.3c0,1.4,0.9,2.5,2.3,2.5c1.4,0,2.4-0.9,2.4-3.1
				c0-0.6-0.1-1.1-0.1-1.5l5.2,0.7v5.1H917.7z"/>
			<path class="st12" d="M909,448c0.6,0,1,0.4,1,1c0,0.6-0.4,1-1,1c-0.6,0-1-0.4-1-1C908,448.4,908.4,448,909,448z"/>
		</g>
		<g>
			<path class="st12" d="M909.2,452.2c0,0.3,0,0.7,0,1.2c0.1,0.8,0.5,1.6,1,2.2c0.6,0.7,1.6,1.2,2.9,1.4v0c-0.7-0.6-1.2-1.5-1.2-2.5
				c0-1.9,1.5-3.2,3.3-3.2c2,0,3.8,1.5,3.8,3.7c0,2.2-1.8,3.5-4.5,3.5c-2.4,0-4-0.8-5-1.8c-0.8-0.8-1.3-2-1.4-3.1
				c-0.1-0.5-0.1-1-0.1-1.3H909.2z M915.4,452.7c-1.3,0-2.3,0.8-2.3,2.1c0,1,0.5,1.7,1.1,2.1c0.1,0.1,0.3,0.1,0.5,0.1
				c1.8,0,3.2-0.7,3.2-2.2C918,453.6,916.9,452.7,915.4,452.7z"/>
			<path class="st12" d="M913.7,467c-3.6,0-5.7-1.4-5.7-3.7c0-2.1,2-3.5,5.5-3.5c3.6,0,5.6,1.6,5.6,3.7
				C919.1,465.7,917.1,467,913.7,467z M913.5,461.1c-2.8,0-4.4,0.9-4.4,2.2c0,1.5,1.7,2.2,4.5,2.2c2.6,0,4.4-0.7,4.4-2.2
				C918,462.1,916.4,461.1,913.5,461.1z"/>
			<path class="st12" d="M917.9,474.4c0-0.3,0-0.7-0.1-1.1c-0.4-2.3-2-3.5-3.8-3.7v0c0.7,0.5,1.2,1.4,1.2,2.6c0,1.9-1.4,3.2-3.5,3.2
				c-2,0-3.8-1.3-3.8-3.6c0-2.3,1.8-3.8,4.6-3.8c2.1,0,3.8,0.8,4.8,1.8c0.9,0.9,1.4,2.1,1.6,3.4c0.1,0.4,0.1,0.8,0.1,1.1H917.9z
				 M911.7,474c1.5,0,2.5-0.9,2.5-2.2c0-0.9-0.5-1.7-1.3-2.1c-0.2-0.1-0.4-0.2-0.6-0.2c-1.8,0-3.1,0.8-3.1,2.4
				C909.1,473.2,910.2,474,911.7,474z"/>
			<path class="st12" d="M919.5,478.3l-4-0.3v-0.9l4-0.3V478.3z M919.5,480.8l-4-0.3v-0.9l4-0.3V480.8z"/>
		</g>
		<g>
			<path class="st12" d="M906.2,482c1.6,1.2,3.8,2.1,6.8,2.1c3,0,5.1-0.9,6.7-2.1v1.1c-1.4,1.1-3.5,2.2-6.7,2.2
				c-3.2,0-5.3-1.1-6.7-2.2V482z"/>
		</g>
		<g>
			<path class="st12" d="M867.8,607.5L867.8,607.5l-1-1.9l1.1-0.3l1.3,2.3v1.2h-10.7v-1.4H867.8z"/>
			<path class="st12" d="M867.8,616L867.8,616l-1-1.9l1.1-0.3l1.3,2.3v1.2h-10.7V616H867.8z"/>
			<path class="st12" d="M859.2,621.4c0.6,0,1,0.4,1,1c0,0.6-0.4,1-1,1c-0.6,0-1-0.4-1-1C858.2,621.8,858.6,621.4,859.2,621.4z"/>
			<path class="st12" d="M858.4,624.7h0.9l1.1,1.1c2.6,2.7,4,4,5.6,4c1.1,0,2.1-0.5,2.1-2.1c0-1-0.5-1.8-0.9-2.3l1-0.5
				c0.6,0.7,1.1,1.8,1.1,3c0,2.3-1.6,3.3-3.1,3.3c-2,0-3.6-1.4-5.8-3.7l-0.8-0.9h0v4.8h-1.2V624.7z"/>
			<path class="st12" d="M859.4,634.1c0,0.3,0,0.7,0,1.2c0.1,0.8,0.5,1.6,1,2.2c0.6,0.7,1.6,1.2,2.9,1.4v0c-0.7-0.6-1.2-1.5-1.2-2.5
				c0-1.9,1.5-3.2,3.3-3.2c2,0,3.8,1.5,3.8,3.7c0,2.2-1.8,3.5-4.5,3.5c-2.4,0-4-0.8-5-1.8c-0.8-0.8-1.3-2-1.4-3.1
				c-0.1-0.5-0.1-1-0.1-1.3H859.4z M865.6,634.6c-1.3,0-2.3,0.8-2.3,2.1c0,1,0.5,1.7,1.1,2.1c0.1,0.1,0.3,0.1,0.5,0.1
				c1.8,0,3.2-0.7,3.2-2.2C868.2,635.5,867.1,634.6,865.6,634.6z"/>
		</g>
		<g>
			<path class="st12" d="M647.9,675.8c0.3-0.4,0.7-1.4,0.7-2.4c0-1.9-1.2-2.4-2.1-2.4c-1.5,0-2.1,1.4-2.1,2.8v0.8h-1.1v-0.8
				c0-1.1-0.5-2.4-1.8-2.4c-0.9,0-1.6,0.5-1.6,1.9c0,0.9,0.4,1.7,0.7,2.1l-1.1,0.4c-0.4-0.6-0.8-1.7-0.8-2.8c0-2.1,1.3-3.1,2.6-3.1
				c1.1,0,2,0.7,2.5,2h0c0.3-1.3,1.3-2.4,2.8-2.4c1.7,0,3.2,1.3,3.2,3.9c0,1.2-0.4,2.3-0.7,2.8L647.9,675.8z"/>
			<path class="st12" d="M644.1,660.5c3.6,0,5.7,1.4,5.7,3.7c0,2.1-2,3.5-5.5,3.5c-3.6,0-5.6-1.6-5.6-3.7
				C638.7,661.8,640.7,660.5,644.1,660.5z M644.3,666.4c2.8,0,4.4-0.9,4.4-2.2c0-1.5-1.7-2.2-4.5-2.2c-2.6,0-4.4,0.7-4.4,2.2
				C639.8,665.4,641.3,666.4,644.3,666.4z"/>
		</g>
		<g>
			<path class="st2" d="M683.4,699.8V688h5.2c1.1,0,1.9,0.1,2.4,0.3c0.5,0.2,1,0.6,1.3,1.1c0.3,0.5,0.5,1.1,0.5,1.8
				c0,0.8-0.3,1.5-0.8,2.1c-0.5,0.6-1.4,0.9-2.5,1.1c0.4,0.2,0.7,0.4,0.9,0.6c0.5,0.4,0.9,0.9,1.3,1.6l2.1,3.2h-2l-1.6-2.5
				c-0.5-0.7-0.8-1.3-1.1-1.6c-0.3-0.4-0.6-0.6-0.8-0.8c-0.2-0.2-0.5-0.3-0.7-0.3c-0.2,0-0.5-0.1-0.9-0.1H685v5.2H683.4z M685,693.2
				h3.4c0.7,0,1.3-0.1,1.7-0.2c0.4-0.1,0.7-0.4,0.9-0.7c0.2-0.3,0.3-0.7,0.3-1.1c0-0.6-0.2-1-0.6-1.4c-0.4-0.4-1-0.5-1.9-0.5H685
				V693.2z"/>
			<path class="st2" d="M702.3,698.4v1.4h-7.8c0-0.3,0-0.7,0.2-1c0.2-0.5,0.5-1.1,1-1.6c0.4-0.5,1.1-1.1,1.9-1.8
				c1.3-1.1,2.2-1.9,2.6-2.5c0.5-0.6,0.7-1.2,0.7-1.7c0-0.6-0.2-1.1-0.6-1.5c-0.4-0.4-0.9-0.6-1.6-0.6c-0.7,0-1.3,0.2-1.7,0.6
				c-0.4,0.4-0.6,1-0.6,1.7l-1.5-0.2c0.1-1.1,0.5-2,1.2-2.5c0.7-0.6,1.6-0.9,2.7-0.9c1.1,0,2,0.3,2.7,0.9c0.7,0.6,1,1.4,1,2.3
				c0,0.5-0.1,0.9-0.3,1.4s-0.5,0.9-1,1.4c-0.4,0.5-1.2,1.2-2.2,2.1c-0.9,0.7-1.4,1.2-1.7,1.5s-0.5,0.5-0.6,0.8H702.3z"/>
		</g>
		<g>
			<path class="st2" d="M392.7,705v-11.8h5.2c1.1,0,1.9,0.1,2.4,0.3c0.5,0.2,1,0.6,1.3,1.1c0.3,0.5,0.5,1.1,0.5,1.8
				c0,0.8-0.3,1.5-0.8,2.1c-0.5,0.6-1.4,0.9-2.5,1.1c0.4,0.2,0.7,0.4,0.9,0.6c0.5,0.4,0.9,0.9,1.3,1.6l2.1,3.2h-2l-1.6-2.5
				c-0.5-0.7-0.8-1.3-1.1-1.6c-0.3-0.4-0.6-0.6-0.8-0.8c-0.2-0.2-0.5-0.3-0.7-0.3c-0.2,0-0.5-0.1-0.9-0.1h-1.8v5.2H392.7z
				 M394.2,698.3h3.4c0.7,0,1.3-0.1,1.7-0.2c0.4-0.1,0.7-0.4,0.9-0.7c0.2-0.3,0.3-0.7,0.3-1.1c0-0.6-0.2-1-0.6-1.4
				c-0.4-0.4-1-0.5-1.9-0.5h-3.7V698.3z"/>
			<path class="st2" d="M406.2,698.5c-0.6-0.2-1-0.5-1.3-0.9s-0.4-0.9-0.4-1.5c0-0.9,0.3-1.6,0.9-2.2c0.6-0.6,1.4-0.9,2.5-0.9
				c1,0,1.9,0.3,2.5,0.9c0.6,0.6,0.9,1.3,0.9,2.2c0,0.5-0.1,1-0.4,1.4c-0.3,0.4-0.7,0.7-1.3,0.9c0.7,0.2,1.3,0.6,1.7,1.1
				c0.4,0.5,0.6,1.2,0.6,1.9c0,1-0.4,1.9-1.1,2.5c-0.7,0.7-1.7,1-2.8,1s-2.1-0.3-2.8-1c-0.7-0.7-1.1-1.6-1.1-2.6
				c0-0.8,0.2-1.4,0.6-1.9C404.9,699.1,405.5,698.7,406.2,698.5z M405.5,701.5c0,0.4,0.1,0.8,0.3,1.2c0.2,0.4,0.5,0.7,0.9,0.9
				c0.4,0.2,0.8,0.3,1.2,0.3c0.7,0,1.3-0.2,1.7-0.7c0.5-0.4,0.7-1,0.7-1.7c0-0.7-0.2-1.3-0.7-1.7s-1-0.7-1.7-0.7
				c-0.7,0-1.2,0.2-1.7,0.7C405.7,700.3,405.5,700.9,405.5,701.5z M405.9,696.1c0,0.6,0.2,1,0.5,1.4s0.8,0.5,1.4,0.5
				c0.6,0,1-0.2,1.4-0.5c0.4-0.4,0.5-0.8,0.5-1.3c0-0.5-0.2-1-0.6-1.3s-0.8-0.5-1.4-0.5c-0.6,0-1,0.2-1.4,0.5
				C406.1,695.2,405.9,695.6,405.9,696.1z"/>
		</g>
		<g>
			<path class="st2" d="M269.2,528.2v-11.8h5.2c1.1,0,1.9,0.1,2.4,0.3c0.5,0.2,1,0.6,1.3,1.1c0.3,0.5,0.5,1.1,0.5,1.8
				c0,0.8-0.3,1.5-0.8,2.1c-0.5,0.6-1.4,0.9-2.5,1.1c0.4,0.2,0.7,0.4,0.9,0.6c0.5,0.4,0.9,0.9,1.3,1.6l2.1,3.2h-2l-1.6-2.5
				c-0.5-0.7-0.8-1.3-1.1-1.6c-0.3-0.4-0.6-0.6-0.8-0.8c-0.2-0.2-0.5-0.3-0.7-0.3c-0.2,0-0.5-0.1-0.9-0.1h-1.8v5.2H269.2z
				 M270.7,521.6h3.4c0.7,0,1.3-0.1,1.7-0.2c0.4-0.1,0.7-0.4,0.9-0.7c0.2-0.3,0.3-0.7,0.3-1.1c0-0.6-0.2-1-0.6-1.4
				c-0.4-0.4-1-0.5-1.9-0.5h-3.7V521.6z"/>
			<path class="st2" d="M280.5,525l1.5-0.2c0.2,0.8,0.5,1.4,0.9,1.8c0.4,0.4,0.9,0.5,1.5,0.5c0.7,0,1.3-0.2,1.7-0.7
				c0.5-0.5,0.7-1.1,0.7-1.8c0-0.7-0.2-1.2-0.7-1.6s-1-0.6-1.7-0.6c-0.3,0-0.6,0.1-1,0.2l0.2-1.3c0.1,0,0.2,0,0.2,0
				c0.6,0,1.2-0.2,1.7-0.5c0.5-0.3,0.7-0.8,0.7-1.5c0-0.5-0.2-1-0.5-1.3c-0.4-0.3-0.8-0.5-1.4-0.5c-0.6,0-1,0.2-1.4,0.5
				c-0.4,0.4-0.6,0.9-0.7,1.6l-1.5-0.3c0.2-1,0.6-1.7,1.2-2.3c0.6-0.5,1.4-0.8,2.3-0.8c0.6,0,1.2,0.1,1.8,0.4c0.5,0.3,1,0.7,1.2,1.1
				c0.3,0.5,0.4,1,0.4,1.5c0,0.5-0.1,1-0.4,1.4s-0.7,0.8-1.2,1c0.7,0.2,1.2,0.5,1.6,1s0.6,1.1,0.6,1.9c0,1-0.4,1.9-1.1,2.6
				c-0.8,0.7-1.7,1.1-2.9,1.1c-1,0-1.9-0.3-2.6-0.9S280.6,526,280.5,525z"/>
		</g>
		<g>
			<path class="st2" d="M289.7,522.3c0-1.4,0.1-2.5,0.4-3.4c0.3-0.9,0.7-1.5,1.3-2c0.6-0.5,1.3-0.7,2.1-0.7c0.6,0,1.2,0.1,1.7,0.4
				c0.5,0.3,0.9,0.6,1.2,1.1c0.3,0.5,0.6,1.1,0.7,1.8c0.2,0.7,0.3,1.6,0.3,2.8c0,1.4-0.1,2.5-0.4,3.4c-0.3,0.9-0.7,1.5-1.3,2
				s-1.3,0.7-2.1,0.7c-1.1,0-2-0.4-2.7-1.2C290.1,526.1,289.7,524.5,289.7,522.3z M291.2,522.3c0,1.9,0.2,3.2,0.7,3.9
				c0.5,0.6,1,1,1.7,1c0.7,0,1.2-0.3,1.7-1s0.7-1.9,0.7-3.9c0-1.9-0.2-3.2-0.7-3.9c-0.5-0.6-1-1-1.7-1c-0.7,0-1.2,0.3-1.6,0.8
				C291.4,519.1,291.2,520.4,291.2,522.3z"/>
		</g>
		<g>
			<path class="st2" d="M192.4,461.3v-11.8h5.2c1.1,0,1.9,0.1,2.4,0.3c0.5,0.2,1,0.6,1.3,1.1c0.3,0.5,0.5,1.1,0.5,1.8
				c0,0.8-0.3,1.5-0.8,2.1c-0.5,0.6-1.4,0.9-2.5,1.1c0.4,0.2,0.7,0.4,0.9,0.6c0.5,0.4,0.9,0.9,1.3,1.6l2.1,3.2h-2l-1.6-2.5
				c-0.5-0.7-0.8-1.3-1.1-1.6c-0.3-0.4-0.6-0.6-0.8-0.8c-0.2-0.2-0.5-0.3-0.7-0.3c-0.2,0-0.5-0.1-0.9-0.1H194v5.2H192.4z M194,454.7
				h3.4c0.7,0,1.3-0.1,1.7-0.2c0.4-0.1,0.7-0.4,0.9-0.7c0.2-0.3,0.3-0.7,0.3-1.1c0-0.6-0.2-1-0.6-1.4c-0.4-0.4-1-0.5-1.9-0.5H194
				V454.7z"/>
			<path class="st2" d="M203.7,458.2l1.5-0.1c0.1,0.7,0.4,1.3,0.8,1.7c0.4,0.4,0.9,0.6,1.5,0.6c0.7,0,1.3-0.3,1.8-0.8
				c0.5-0.5,0.7-1.2,0.7-2.1c0-0.8-0.2-1.5-0.7-2c-0.5-0.5-1.1-0.7-1.8-0.7c-0.5,0-0.9,0.1-1.3,0.3s-0.7,0.5-0.9,0.8l-1.4-0.2
				l1.1-6.1h5.9v1.4h-4.7l-0.6,3.2c0.7-0.5,1.5-0.7,2.2-0.7c1,0,1.9,0.4,2.6,1.1c0.7,0.7,1.1,1.6,1.1,2.8c0,1.1-0.3,2-0.9,2.8
				c-0.8,1-1.8,1.4-3.1,1.4c-1.1,0-2-0.3-2.6-0.9C204.2,460,203.8,459.2,203.7,458.2z"/>
		</g>
		<g>
			<path class="st2" d="M212.9,455.5c0-1.4,0.1-2.5,0.4-3.4c0.3-0.9,0.7-1.5,1.3-2c0.6-0.5,1.3-0.7,2.1-0.7c0.6,0,1.2,0.1,1.7,0.4
				c0.5,0.3,0.9,0.6,1.2,1.1c0.3,0.5,0.6,1.1,0.7,1.8c0.2,0.7,0.3,1.6,0.3,2.8c0,1.4-0.1,2.5-0.4,3.4c-0.3,0.9-0.7,1.5-1.3,2
				s-1.3,0.7-2.1,0.7c-1.1,0-2-0.4-2.7-1.2C213.3,459.3,212.9,457.7,212.9,455.5z M214.4,455.5c0,1.9,0.2,3.2,0.7,3.9
				c0.5,0.6,1,1,1.7,1c0.7,0,1.2-0.3,1.7-1s0.7-1.9,0.7-3.9c0-1.9-0.2-3.2-0.7-3.9c-0.5-0.6-1-1-1.7-1c-0.7,0-1.2,0.3-1.6,0.8
				C214.7,452.2,214.4,453.5,214.4,455.5z"/>
		</g>
		<g>
			<path class="st2" d="M382.9,230.8V219h5.2c1.1,0,1.9,0.1,2.4,0.3s1,0.6,1.3,1.1c0.3,0.5,0.5,1.1,0.5,1.8c0,0.8-0.3,1.5-0.8,2.1
				c-0.5,0.6-1.4,0.9-2.5,1.1c0.4,0.2,0.7,0.4,0.9,0.6c0.5,0.4,0.9,0.9,1.3,1.6l2.1,3.2h-2l-1.6-2.5c-0.5-0.7-0.8-1.3-1.1-1.6
				c-0.3-0.4-0.6-0.6-0.8-0.8c-0.2-0.2-0.5-0.3-0.7-0.3c-0.2,0-0.5-0.1-0.9-0.1h-1.8v5.2H382.9z M384.5,224.2h3.4
				c0.7,0,1.3-0.1,1.7-0.2c0.4-0.1,0.7-0.4,0.9-0.7c0.2-0.3,0.3-0.7,0.3-1.1c0-0.6-0.2-1-0.6-1.4c-0.4-0.4-1-0.5-1.9-0.5h-3.7V224.2
				z"/>
			<path class="st2" d="M396.5,224.4c-0.6-0.2-1-0.5-1.3-0.9s-0.4-0.9-0.4-1.5c0-0.9,0.3-1.6,0.9-2.2c0.6-0.6,1.4-0.9,2.5-0.9
				c1,0,1.9,0.3,2.5,0.9s0.9,1.3,0.9,2.2c0,0.5-0.1,1-0.4,1.4s-0.7,0.7-1.3,0.9c0.7,0.2,1.3,0.6,1.7,1.1c0.4,0.5,0.6,1.2,0.6,1.9
				c0,1-0.4,1.9-1.1,2.5s-1.7,1-2.8,1s-2.1-0.3-2.8-1c-0.7-0.7-1.1-1.6-1.1-2.6c0-0.8,0.2-1.4,0.6-1.9
				C395.2,225,395.7,224.6,396.5,224.4z M395.7,227.4c0,0.4,0.1,0.8,0.3,1.2c0.2,0.4,0.5,0.7,0.9,0.9c0.4,0.2,0.8,0.3,1.2,0.3
				c0.7,0,1.3-0.2,1.7-0.7c0.5-0.4,0.7-1,0.7-1.7c0-0.7-0.2-1.3-0.7-1.7c-0.5-0.5-1-0.7-1.7-0.7c-0.7,0-1.2,0.2-1.7,0.7
				C395.9,226.2,395.7,226.8,395.7,227.4z M396.2,222c0,0.6,0.2,1,0.5,1.4c0.4,0.4,0.8,0.5,1.4,0.5c0.6,0,1-0.2,1.4-0.5
				s0.5-0.8,0.5-1.3c0-0.5-0.2-1-0.6-1.3c-0.4-0.4-0.8-0.5-1.4-0.5c-0.6,0-1,0.2-1.4,0.5C396.4,221.1,396.2,221.5,396.2,222z"/>
		</g>
		<g>
			<path class="st2" d="M382.9,174v-11.8h5.2c1.1,0,1.9,0.1,2.4,0.3s1,0.6,1.3,1.1c0.3,0.5,0.5,1.1,0.5,1.8c0,0.8-0.3,1.5-0.8,2.1
				c-0.5,0.6-1.4,0.9-2.5,1.1c0.4,0.2,0.7,0.4,0.9,0.6c0.5,0.4,0.9,0.9,1.3,1.6l2.1,3.2h-2l-1.6-2.5c-0.5-0.7-0.8-1.3-1.1-1.6
				c-0.3-0.4-0.6-0.6-0.8-0.8c-0.2-0.2-0.5-0.3-0.7-0.3c-0.2,0-0.5-0.1-0.9-0.1h-1.8v5.2H382.9z M384.5,167.4h3.4
				c0.7,0,1.3-0.1,1.7-0.2c0.4-0.1,0.7-0.4,0.9-0.7c0.2-0.3,0.3-0.7,0.3-1.1c0-0.6-0.2-1-0.6-1.4c-0.4-0.4-1-0.5-1.9-0.5h-3.7V167.4
				z"/>
			<path class="st2" d="M396.5,167.6c-0.6-0.2-1-0.5-1.3-0.9s-0.4-0.9-0.4-1.5c0-0.9,0.3-1.6,0.9-2.2c0.6-0.6,1.4-0.9,2.5-0.9
				c1,0,1.9,0.3,2.5,0.9s0.9,1.3,0.9,2.2c0,0.5-0.1,1-0.4,1.4s-0.7,0.7-1.3,0.9c0.7,0.2,1.3,0.6,1.7,1.1c0.4,0.5,0.6,1.2,0.6,1.9
				c0,1-0.4,1.9-1.1,2.5s-1.7,1-2.8,1s-2.1-0.3-2.8-1c-0.7-0.7-1.1-1.6-1.1-2.6c0-0.8,0.2-1.4,0.6-1.9
				C395.2,168.1,395.7,167.8,396.5,167.6z M395.7,170.6c0,0.4,0.1,0.8,0.3,1.2c0.2,0.4,0.5,0.7,0.9,0.9c0.4,0.2,0.8,0.3,1.2,0.3
				c0.7,0,1.3-0.2,1.7-0.7c0.5-0.4,0.7-1,0.7-1.7c0-0.7-0.2-1.3-0.7-1.7c-0.5-0.5-1-0.7-1.7-0.7c-0.7,0-1.2,0.2-1.7,0.7
				C395.9,169.3,395.7,169.9,395.7,170.6z M396.2,165.1c0,0.6,0.2,1,0.5,1.4c0.4,0.4,0.8,0.5,1.4,0.5c0.6,0,1-0.2,1.4-0.5
				s0.5-0.8,0.5-1.3c0-0.5-0.2-1-0.6-1.3c-0.4-0.4-0.8-0.5-1.4-0.5c-0.6,0-1,0.2-1.4,0.5C396.4,164.2,396.2,164.6,396.2,165.1z"/>
		</g>
		<g>
			<path class="st12" d="M248.3,205h-2.9v5h-1l-6.9-4.8v-1.6h6.7v-1.5h1.1v1.5h2.9V205z M244.2,205h-3.6c-0.6,0-1.1,0-1.7,0v0
				c0.6,0.3,1.1,0.6,1.6,0.9l3.6,2.6h0V205z"/>
			<path class="st12" d="M242.8,193.9c3.6,0,5.7,1.4,5.7,3.7c0,2.1-2,3.5-5.5,3.5c-3.6,0-5.6-1.6-5.6-3.7
				C237.4,195.2,239.4,193.9,242.8,193.9z M242.9,199.7c2.8,0,4.4-0.9,4.4-2.2c0-1.5-1.7-2.2-4.5-2.2c-2.6,0-4.4,0.7-4.4,2.2
				C238.5,198.8,240,199.7,242.9,199.7z"/>
		</g>
		<g>
			<path class="st2" d="M507.6,119.6v-4.3l-3.9-5.8h1.6l2,3c0.4,0.6,0.7,1.1,1,1.7c0.3-0.5,0.7-1.1,1.1-1.8l1.9-3h1.6l-4,5.8v4.3
				H507.6z"/>
			<path class="st2" d="M507.6,739.9v-4.3l-3.9-5.8h1.6l2,3c0.4,0.6,0.7,1.1,1,1.7c0.3-0.5,0.7-1.1,1.1-1.8l1.9-3h1.6l-4,5.8v4.3
				H507.6z"/>
		</g>
	</g>
</g>
<g id="Watermark">
	<g>
		<rect x="438.5" y="349.7" class="st0" width="123.1" height="46.3"/>
		<g>
			<rect x="444.9" y="357.5" class="st75" width="62.9" height="30.6"/>
			<rect x="507.7" y="357.5" class="st75" width="47.4" height="30.6"/>
			<g>
				<path class="st76" d="M466.5,363.6l-2.8,18.9H461l-1.6-11l-1.5,11h-2.7l-2.8-18.9h2.5l1.8,14.2l1.8-14.2h2l1.8,14.2l1.8-14.2
					H466.5z"/>
				<path class="st76" d="M467.9,382.5v-18.9h2.5v18.9H467.9z"/>
				<path class="st76" d="M472.8,363.6h5c1.9,0,2.9,1.1,2.9,3.2v4.7c0,1.7-0.5,2.7-1.5,3.1l1.8,7.9h-2.4l-1.7-7.6h-1.5v7.6h-2.5
					V363.6z M475.4,372.7h1.7c0.8,0,1.1-0.5,1.1-1.4v-4.1c0-0.9-0.4-1.4-1.1-1.4h-1.7V372.7z"/>
				<path class="st76" d="M486.8,365.9v16.6h-2.5v-16.6h-2.4v-2.3h7.4v2.3H486.8z"/>
				<path class="st76" d="M496.3,382.5v-8.6h-3.1v8.6h-2.5v-18.9h2.5v8h3.1v-8h2.5v18.9H496.3z"/>
			</g>
			<g>
				<path class="st76" d="M516.3,363.6h5c1.9,0,2.9,1.1,2.9,3.2v4.7c0,1.7-0.5,2.7-1.5,3.1l1.8,7.9H522l-1.7-7.6h-1.5v7.6h-2.5
					V363.6z M518.8,372.7h1.7c0.8,0,1.1-0.5,1.1-1.4v-4.1c0-0.9-0.4-1.4-1.1-1.4h-1.7V372.7z"/>
				<path class="st76" d="M528.7,382.5h-2.5v-15.7c0-2.2,1-3.2,3-3.2h1.9c2,0,3,1.1,3,3.2v15.7h-2.5v-6.9h-2.9V382.5z M531.6,373.3
					V367c0-0.7-0.4-1.1-1.1-1.1h-0.7c-0.7,0-1.1,0.4-1.1,1.1v6.3H531.6z"/>
				<path class="st76" d="M536.3,382.5v-18.9h2.5v18.9H536.3z"/>
				<path class="st76" d="M547.2,382.5h-6v-18.9h2.5v16.6h3.5V382.5z"/>
			</g>
		</g>
	</g>
</g>
</svg>
