<?xml version="1.0" encoding="utf-8"?>
<!-- Generator: Adobe Illustrator 25.2.3, SVG Export Plug-In . SVG Version: 6.00 Build 0)  -->
<svg version="1.1" xmlns="http://www.w3.org/2000/svg" xmlns:xlink="http://www.w3.org/1999/xlink" x="0px" y="0px"
	 viewBox="0 0 1000 800" style="enable-background:new 0 0 1000 800;" xml:space="preserve">
<style type="text/css">
	.st0{fill:#F0F0F0;}
	.st1{fill:none;stroke:#221E1F;stroke-width:1.0614;}
	.st2{fill:#221E1F;}
	.st3{fill:none;stroke:#221E1F;stroke-width:1.0614;stroke-dasharray:12.8405,6.4722;}
	.st4{fill:none;stroke:#000000;stroke-width:1.404;}
	.st5{fill:none;stroke:#000000;stroke-width:0.975;}
	.st6{fill:none;stroke:#000000;stroke-width:0.975;stroke-dasharray:11.5538,5.7038;}
	.st7{fill:none;stroke:#000000;stroke-width:0.975;stroke-miterlimit:10;}
	.st8{fill:none;stroke:#221E1F;stroke-width:0.8906;}
	.st9{fill:none;stroke:#221E1F;stroke-width:0.8819;}
	.st10{clip-path:url(#SVGID_2_);fill:none;stroke:#221E1F;stroke-width:0.8819;}
	.st11{clip-path:url(#SVGID_4_);fill:none;stroke:#221E1F;stroke-width:0.8819;}
	.st12{fill:#303030;}
	.st13{fill:none;stroke:#303030;stroke-width:0.8906;stroke-miterlimit:10;}
	.st14{clip-path:url(#SVGID_6_);fill:none;stroke:#221E1F;stroke-width:0.8906;}
	.st15{fill:none;stroke:#221E1F;stroke-width:0.8906;stroke-dasharray:23.0235,6.997;}
	.st16{fill:none;stroke:#221E1F;stroke-width:0.8906;stroke-dasharray:19.498,3.4714;}
	.st17{fill:none;stroke:#221E1F;stroke-width:0.8906;stroke-dasharray:21.3897,6.2234;}
	.st18{clip-path:url(#SVGID_8_);fill:none;stroke:#221E1F;stroke-width:0.8025;}
	.st19{fill:none;stroke:#221E1F;stroke-width:0.7299;}
	.st20{clip-path:url(#SVGID_10_);fill:none;stroke:#221E1F;stroke-width:0.8025;}
	.st21{fill:none;stroke:#221E1F;stroke-width:0.7726;}
	.st22{fill:none;stroke:#221E1F;stroke-width:0.8025;}
	.st23{fill:none;stroke:#221E1F;stroke-width:0.8025;stroke-dasharray:21.5886,6.6505;}
	.st24{fill:none;stroke:#303030;stroke-width:0.8025;stroke-miterlimit:10;}
	.st25{fill:none;stroke:#221E1F;stroke-width:0.811;stroke-dasharray:21.8106,6.6911;}
	.st26{fill:none;stroke:#221E1F;stroke-width:0.811;stroke-dasharray:16.7651,1.6456;}
	.st27{fill:none;stroke:#221E1F;stroke-width:0.811;}
	.st28{clip-path:url(#SVGID_12_);fill:#221E1F;}
	.st29{fill:none;stroke:#221E1F;stroke-width:1.2695;}
	.st30{fill:none;stroke:#221E1F;stroke-width:0.8814;}
	.st31{fill:none;stroke:#221E1F;stroke-width:1.4133;}
	.st32{fill:none;stroke:#221E1F;stroke-width:0.9807;}
	.st33{fill:none;stroke:#221E1F;stroke-width:0.9807;stroke-dasharray:13.5825,6.7924;}
	.st34{fill:none;stroke:#221E1F;stroke-width:0.9807;stroke-dasharray:19.5641,12.5429;}
	.st35{fill:none;stroke:#221E1F;stroke-width:1.1332;}
	.st36{fill:none;stroke:#221E1F;stroke-width:1.7102;}
	.st37{fill:none;stroke:#221E1F;stroke-width:1.2031;stroke-linecap:round;stroke-linejoin:round;stroke-miterlimit:10;}
	.st38{fill:none;stroke:#221E1F;stroke-width:1.2031;}
	.st39{fill:none;stroke:#221E1F;stroke-width:1.2031;stroke-miterlimit:10;}
	
		.st40{fill:none;stroke:#221E1F;stroke-width:1.2031;stroke-linecap:round;stroke-linejoin:round;stroke-miterlimit:10;stroke-dasharray:9.1021,1.1746,1.1746,1.1746;stroke-dashoffset:10;}
	
		.st41{fill:none;stroke:#221E1F;stroke-width:1.2031;stroke-linecap:round;stroke-linejoin:round;stroke-miterlimit:10;stroke-dasharray:9.1228,1.1953,1.1953,1.1953;stroke-dashoffset:10;}
	.st42{fill:none;stroke:#221E1F;stroke-width:1.0246;}
	.st43{fill:none;stroke:#221E1F;stroke-width:1.0246;stroke-dasharray:5.7593,5.7593;}
	.st44{fill:none;stroke:#221E1F;stroke-width:1.0582;}
	.st45{fill:none;stroke:#221E1F;stroke-width:1.0246;stroke-dasharray:5.8059,5.8059;}
	.st46{fill:none;stroke:#241F21;stroke-width:0.8839;}
	.st47{fill:#241F21;}
	.st48{fill:none;stroke:#241F21;stroke-width:1.2533;}
	.st49{fill:none;stroke:#241F21;stroke-width:0.7133;stroke-linecap:round;stroke-linejoin:round;stroke-miterlimit:10;}
	.st50{fill:none;stroke:#241F21;stroke-width:0.8839;stroke-miterlimit:10;}
	
		.st51{clip-path:url(#SVGID_14_);fill:none;stroke:#241F21;stroke-width:0.8839;stroke-linecap:round;stroke-linejoin:round;stroke-miterlimit:10;}
	.st52{clip-path:url(#SVGID_14_);fill:none;stroke:#241F21;stroke-width:0.8839;stroke-miterlimit:10;}
	.st53{fill:none;stroke:#241F21;stroke-width:0.8839;stroke-linecap:round;stroke-linejoin:round;stroke-miterlimit:10;}
	.st54{fill:none;stroke:#241F21;stroke-width:0.7642;stroke-linecap:round;stroke-linejoin:round;stroke-miterlimit:10;}
	
		.st55{fill:none;stroke:#241F21;stroke-width:0.7133;stroke-linecap:round;stroke-linejoin:round;stroke-miterlimit:10;stroke-dasharray:9.9652,1.3195,1.3195,1.3195;stroke-dashoffset:11;}
	
		.st56{fill:none;stroke:#241F21;stroke-width:0.7133;stroke-linecap:round;stroke-linejoin:round;stroke-miterlimit:10;stroke-dasharray:9.7079,1.0622,1.0622,1.0622;stroke-dashoffset:10;}
	.st57{fill:none;stroke:#241F21;stroke-width:0.8839;stroke-dasharray:5.5991,5.5991;}
	.st58{fill:none;stroke:#241F21;stroke-width:0.7515;stroke-dasharray:5.6857,5.6857;}
	.st59{fill:none;stroke:#221E1F;stroke-width:1.0101;stroke-miterlimit:10;}
	.st60{fill:none;stroke:#221E1F;stroke-width:1.0012;}
	.st61{fill:none;stroke:#221E1F;stroke-width:0.9081;}
	.st62{fill:none;stroke:#221E1F;stroke-width:1.0385;}
	.st63{fill:none;stroke:#221E1F;stroke-width:0.9081;stroke-dasharray:20.8407,6.1278;}
	.st64{fill:none;stroke:#221E1F;stroke-width:1.406;}
	.st65{fill:none;stroke:#221E1F;stroke-width:0.9906;}
	.st66{fill:none;stroke:#221E1F;stroke-width:0.9887;}
	.st67{fill:none;stroke:#221E1F;stroke-width:0.8443;}
	.st68{fill:none;stroke:#221E1F;stroke-width:0.8443;stroke-dasharray:4.4655,4.4655;}
	.st69{fill:none;stroke:#221E1F;stroke-width:1.7608;}
	.st70{fill:none;stroke:#221E1F;stroke-width:1.0549;}
	.st71{clip-path:url(#SVGID_16_);fill:none;stroke:#221E1F;stroke-width:1.0549;}
	.st72{fill:none;stroke:#221E1F;stroke-width:1.0549;stroke-dasharray:5.538,5.538;}
	.st73{clip-path:url(#SVGID_18_);}
	.st74{clip-path:url(#SVGID_20_);}
	.st75{fill:#F0F0F0;stroke:#CCCCCC;stroke-miterlimit:10;}
	.st76{fill:#CCCCCC;}
</style>
<g id="Flat">
	<g>
		<g>
			<path class="st0" d="M499.7,734.7h328.5c6.5,0,6-14.3,6.1-22.1c0.3-17,1.1-29.6-34-38.8c-41-10.8-109.8-25.5-136.5-36.2
				c-54.7-21.9-76.1-79-76.4-107.6c-0.8-64.3-8.8-101.5,17.8-159c12.6-27.4,31.6-53.7,47.2-68.1c12.2-11.2,32.2-28.4,58.3-40
				c18.6-8.3,41.8-12.6,40.3-37.9c-1.8-29.2-6.7-70.2-10.6-104.7c-2.7-24.4-16.5-27.7-26.6-29.2C701.8,89.1,592.7,79,499.7,79.1h0.2
				c-93-0.1-202,10-214.2,11.9c-10.1,1.5-23.8,4.8-26.6,29.2c-3.9,34.5-8.8,75.5-10.6,104.7c-1.6,25.3,21.7,29.7,40.3,37.9
				c26.1,11.6,46.1,28.8,58.3,40c15.7,14.4,34.6,40.8,47.2,68.1c26.6,57.5,18.6,94.7,17.8,159c-0.3,28.6-21.7,85.6-76.4,107.6
				c-26.7,10.7-95.5,25.3-136.5,36.2c-35.1,9.3-34.2,21.9-34,38.8c0.1,7.8-0.4,22.1,6.1,22.1h328.5H499.7z"/>
			<path class="st69" d="M499.7,734.7h328.5c6.5,0,6-14.3,6.1-22.1c0.3-17,1.1-29.6-34-38.8c-41-10.8-109.8-25.5-136.5-36.2
				c-54.7-21.9-76.1-79-76.4-107.6c-0.8-64.3-8.8-101.5,17.8-159c12.6-27.4,31.6-53.7,47.2-68.1c12.2-11.2,32.2-28.4,58.3-40
				c18.6-8.3,41.8-12.6,40.3-37.9c-1.8-29.2-6.7-70.2-10.6-104.7c-2.7-24.4-16.5-27.7-26.6-29.2C701.8,89.1,592.7,79,499.7,79.1h0.2
				c-93-0.1-202,10-214.2,11.9c-10.1,1.5-23.8,4.8-26.6,29.2c-3.9,34.5-8.8,75.5-10.6,104.7c-1.6,25.3,21.7,29.7,40.3,37.9
				c26.1,11.6,46.1,28.8,58.3,40c15.7,14.4,34.6,40.8,47.2,68.1c26.6,57.5,18.6,94.7,17.8,159c-0.3,28.6-21.7,85.6-76.4,107.6
				c-26.7,10.7-95.5,25.3-136.5,36.2c-35.1,9.3-34.2,21.9-34,38.8c0.1,7.8-0.4,22.1,6.1,22.1h328.5H499.7z"/>
		</g>
		<path class="st70" d="M263.2,38.1v41.3 M738.2,38.1v41.3 M753.1,14v239.8 M245.9,14v239.8 M179.4,785.1H822"/>
		<polygon class="st2" points="182.6,789.5 165.4,784.9 182.6,780.3 		"/>
		<polygon class="st2" points="818.9,789.5 836,784.9 818.9,780.3 		"/>
		<polyline class="st70" points="181,728.6 230,715.1 304.1,715.1 		"/>
		<polygon class="st2" points="185.2,732 167.5,732.1 182.8,723.1 		"/>
		<polyline class="st70" points="191.5,687.4 230,693.2 304.1,693.2 		"/>
		<polygon class="st2" points="194,692.2 177.7,685.1 195.3,683.1 		"/>
		<line class="st70" x1="259.6" y1="21.7" x2="739.1" y2="21.7"/>
		<polygon class="st2" points="262.7,26.1 245.5,21.5 262.7,16.9 		"/>
		<polygon class="st2" points="735.9,26.1 753.1,21.5 735.9,16.9 		"/>
		<line class="st70" x1="278.3" y1="48.1" x2="724.1" y2="48.1"/>
		<polygon class="st2" points="281.5,52.5 264.3,47.9 281.5,43.3 		"/>
		<polygon class="st2" points="721,52.5 738.2,47.9 721,43.3 		"/>
		<line class="st70" x1="211.5" y1="240.3" x2="211.5" y2="94.9"/>
		<polygon class="st2" points="215.9,237.1 211.3,254.3 206.7,237.1 		"/>
		<polygon class="st2" points="215.9,98 211.3,80.9 206.7,98 		"/>
		<line class="st70" x1="572.7" y1="434" x2="427.3" y2="434"/>
		<polygon class="st2" points="569.6,429.6 586.8,434.2 569.6,438.8 		"/>
		<polygon class="st2" points="430.4,429.6 413.2,434.2 430.4,438.8 		"/>
		<line class="st70" x1="894.2" y1="719.5" x2="894.2" y2="93.6"/>
		<polygon class="st2" points="898.6,716.4 894,733.6 889.4,716.4 		"/>
		<polygon class="st2" points="898.6,96.7 894,79.6 889.4,96.7 		"/>
		<line class="st70" x1="656" y1="721" x2="656" y2="614.2"/>
		<polygon class="st2" points="660.4,717.9 655.8,735 651.2,717.9 		"/>
		<polygon class="st2" points="660.4,617.3 655.8,600.2 651.2,617.3 		"/>
		<g>
			<defs>
				<rect id="SVGID_15_" x="133.4" y="-27.3" width="778.9" height="829.9"/>
			</defs>
			<clipPath id="SVGID_2_">
				<use xlink:href="#SVGID_15_"  style="overflow:visible;"/>
			</clipPath>
			<path style="clip-path:url(#SVGID_2_);fill:none;stroke:#221E1F;stroke-width:1.0549;" d="M822.8,683.2H884 M498.9,599.5h168.5
				 M133.4,735.8h778.8 M193.8,79.7h718.4 M194.9,254.1h582.8 M166.2,730.6v62.1 M836,683.3v109.3 M500,61.5v4.6"/>
		</g>
		<line class="st72" x1="500" y1="75.5" x2="500" y2="745.6"/>
		<path class="st70" d="M500,750.3v4.6 M857.2,683.3v52.5 M857,571.8v97"/>
		<polygon class="st2" points="852.6,665.6 857.2,682.7 861.8,665.6 		"/>
		<line class="st70" x1="857.2" y1="786.1" x2="857.2" y2="749.9"/>
		<polygon class="st2" points="861.6,753 857,735.8 852.4,753 		"/>
		<polyline class="st70" points="264.2,271 193.8,456.7 397.1,456.7 		"/>
		<polygon class="st2" points="259,272.4 269.4,258 267.6,275.7 		"/>
		<polygon class="st2" points="394,461.1 411.2,456.5 394,451.9 		"/>
		<polyline class="st70" points="308.5,631 279.5,518.6 399.2,518.6 		"/>
		<polygon class="st2" points="312,626.8 311.9,644.6 303.1,629.1 		"/>
		<polygon class="st2" points="396.1,523 413.2,518.4 396.1,513.8 		"/>
		<polyline class="st70" points="264.6,233.8 318.8,205.1 394.4,205.1 		"/>
		<polygon class="st2" points="269.4,236.2 252.1,240.2 265.1,228.1 		"/>
		<polyline class="st70" points="278.4,113.2 321.7,143.9 394.4,143.9 		"/>
		<polygon class="st2" points="278.4,118.6 267.1,104.9 283.7,111.1 		"/>
		<polyline class="st70" points="636.8,101.6 632.1,169.7 556.5,169.7 		"/>
		<polygon class="st2" points="632.2,104.4 638,87.6 641.4,105 		"/>
		<path class="st70" d="M753.3,253.7L738.4,79.4 M245.9,253.7l17.3-174.3 M314.6,644.3l184.3-44.8l206,51"/>
		<g>
			<path class="st2" d="M292.7,450.4v-12h5.3c1.1,0,1.9,0.1,2.4,0.3c0.6,0.2,1,0.6,1.3,1.1c0.3,0.5,0.5,1.1,0.5,1.8
				c0,0.8-0.3,1.6-0.8,2.1c-0.5,0.6-1.4,1-2.5,1.1c0.4,0.2,0.7,0.4,1,0.6c0.5,0.4,0.9,1,1.3,1.6l2.1,3.3h-2l-1.6-2.5
				c-0.5-0.7-0.8-1.3-1.1-1.6c-0.3-0.4-0.6-0.6-0.8-0.8c-0.2-0.2-0.5-0.3-0.7-0.3c-0.2,0-0.5-0.1-0.9-0.1h-1.8v5.3H292.7z
				 M294.3,443.7h3.4c0.7,0,1.3-0.1,1.7-0.2s0.7-0.4,0.9-0.7s0.3-0.7,0.3-1.1c0-0.6-0.2-1-0.6-1.4c-0.4-0.4-1.1-0.5-1.9-0.5h-3.8
				V443.7z"/>
			<path class="st2" d="M304.1,447.2l1.5-0.1c0.1,0.8,0.4,1.3,0.8,1.7c0.4,0.4,0.9,0.6,1.5,0.6c0.7,0,1.3-0.3,1.8-0.8
				c0.5-0.5,0.7-1.2,0.7-2.1c0-0.8-0.2-1.5-0.7-2c-0.5-0.5-1.1-0.7-1.8-0.7c-0.5,0-0.9,0.1-1.3,0.3s-0.7,0.5-0.9,0.8l-1.4-0.2
				l1.2-6.1h5.9v1.4h-4.8l-0.6,3.2c0.7-0.5,1.5-0.8,2.3-0.8c1,0,1.9,0.4,2.6,1.1c0.7,0.7,1.1,1.7,1.1,2.8c0,1.1-0.3,2-0.9,2.8
				c-0.8,1-1.8,1.5-3.1,1.5c-1.1,0-2-0.3-2.7-0.9C304.6,449.1,304.2,448.3,304.1,447.2z"/>
		</g>
		<g>
			<path class="st2" d="M321.1,441.4l-1.5,0.1c-0.1-0.6-0.3-1-0.6-1.3c-0.4-0.4-0.9-0.6-1.5-0.6c-0.5,0-0.9,0.1-1.2,0.4
				c-0.5,0.3-0.8,0.8-1.1,1.5c-0.3,0.6-0.4,1.6-0.4,2.8c0.4-0.5,0.8-0.9,1.3-1.2c0.5-0.3,1-0.4,1.6-0.4c1,0,1.8,0.4,2.5,1.1
				c0.7,0.7,1,1.7,1,2.8c0,0.8-0.2,1.4-0.5,2.1s-0.8,1.1-1.3,1.5c-0.6,0.3-1.2,0.5-1.9,0.5c-1.2,0-2.2-0.5-3-1.3
				c-0.8-0.9-1.2-2.4-1.2-4.4c0-2.3,0.4-4,1.3-5c0.7-0.9,1.7-1.4,3-1.4c0.9,0,1.7,0.3,2.3,0.8S320.9,440.4,321.1,441.4z
				 M315.1,446.5c0,0.5,0.1,1,0.3,1.5c0.2,0.5,0.5,0.8,0.9,1.1c0.4,0.2,0.8,0.4,1.2,0.4c0.6,0,1.2-0.2,1.6-0.8
				c0.4-0.5,0.7-1.2,0.7-2c0-0.8-0.2-1.5-0.7-2s-1-0.7-1.7-0.7c-0.7,0-1.2,0.2-1.7,0.7C315.3,445.1,315.1,445.7,315.1,446.5z"/>
		</g>
		<g>
			<path class="st2" d="M333,512.4v-12h5.3c1.1,0,1.9,0.1,2.4,0.3c0.6,0.2,1,0.6,1.3,1.1c0.3,0.5,0.5,1.1,0.5,1.8
				c0,0.8-0.3,1.6-0.8,2.1c-0.5,0.6-1.4,1-2.5,1.1c0.4,0.2,0.7,0.4,1,0.6c0.5,0.4,0.9,1,1.3,1.6l2.1,3.3h-2l-1.6-2.5
				c-0.5-0.7-0.8-1.3-1.1-1.6c-0.3-0.4-0.6-0.6-0.8-0.8c-0.2-0.2-0.5-0.3-0.7-0.3c-0.2,0-0.5-0.1-0.9-0.1h-1.8v5.3H333z
				 M334.5,505.7h3.4c0.7,0,1.3-0.1,1.7-0.2s0.7-0.4,0.9-0.7s0.3-0.7,0.3-1.1c0-0.6-0.2-1-0.6-1.4c-0.4-0.4-1.1-0.5-1.9-0.5h-3.8
				V505.7z"/>
			<path class="st2" d="M344.4,509.2l1.5-0.2c0.2,0.8,0.5,1.4,0.9,1.8c0.4,0.4,0.9,0.6,1.5,0.6c0.7,0,1.3-0.2,1.7-0.7
				c0.5-0.5,0.7-1.1,0.7-1.8c0-0.7-0.2-1.2-0.7-1.7s-1-0.7-1.7-0.7c-0.3,0-0.6,0.1-1,0.2l0.2-1.3c0.1,0,0.2,0,0.2,0
				c0.6,0,1.2-0.2,1.7-0.5c0.5-0.3,0.8-0.8,0.8-1.5c0-0.5-0.2-1-0.5-1.3s-0.8-0.5-1.4-0.5c-0.6,0-1,0.2-1.4,0.5
				c-0.4,0.4-0.6,0.9-0.7,1.6l-1.5-0.3c0.2-1,0.6-1.7,1.2-2.3c0.6-0.5,1.4-0.8,2.4-0.8c0.7,0,1.3,0.1,1.8,0.4c0.5,0.3,1,0.7,1.3,1.1
				c0.3,0.5,0.4,1,0.4,1.5c0,0.5-0.1,1-0.4,1.4s-0.7,0.8-1.2,1c0.7,0.2,1.3,0.5,1.6,1s0.6,1.2,0.6,1.9c0,1-0.4,1.9-1.1,2.7
				c-0.8,0.7-1.7,1.1-2.9,1.1c-1,0-1.9-0.3-2.6-0.9S344.5,510.2,344.4,509.2z"/>
		</g>
		<g>
			<path class="st2" d="M358.4,512.4v-2.9h-5.2v-1.3l5.5-7.7h1.2v7.7h1.6v1.3h-1.6v2.9H358.4z M358.4,508.2v-5.4l-3.7,5.4H358.4z"/>
		</g>
		<g>
			<path class="st2" d="M262,687.7v-12h5.3c1.1,0,1.9,0.1,2.4,0.3c0.6,0.2,1,0.6,1.3,1.1c0.3,0.5,0.5,1.1,0.5,1.8
				c0,0.8-0.3,1.6-0.8,2.1c-0.5,0.6-1.4,1-2.5,1.1c0.4,0.2,0.7,0.4,1,0.6c0.5,0.4,0.9,1,1.3,1.6l2.1,3.3h-2l-1.6-2.5
				c-0.5-0.7-0.8-1.3-1.1-1.6c-0.3-0.4-0.6-0.6-0.8-0.8c-0.2-0.2-0.5-0.3-0.7-0.3c-0.2,0-0.5-0.1-0.9-0.1h-1.8v5.3H262z
				 M263.6,681.1h3.4c0.7,0,1.3-0.1,1.7-0.2s0.7-0.4,0.9-0.7s0.3-0.7,0.3-1.1c0-0.6-0.2-1-0.6-1.4c-0.4-0.4-1.1-0.5-1.9-0.5h-3.8
				V681.1z"/>
			<path class="st2" d="M275.7,681.2c-0.6-0.2-1.1-0.5-1.4-1c-0.3-0.4-0.4-0.9-0.4-1.5c0-0.9,0.3-1.6,0.9-2.2s1.5-0.9,2.5-0.9
				c1,0,1.9,0.3,2.5,0.9c0.6,0.6,1,1.3,1,2.2c0,0.6-0.1,1-0.4,1.4c-0.3,0.4-0.7,0.7-1.3,1c0.7,0.2,1.3,0.6,1.7,1.2
				c0.4,0.5,0.6,1.2,0.6,1.9c0,1-0.4,1.9-1.1,2.6c-0.7,0.7-1.7,1-2.9,1s-2.1-0.3-2.9-1c-0.7-0.7-1.1-1.6-1.1-2.6
				c0-0.8,0.2-1.4,0.6-2C274.4,681.8,275,681.4,275.7,681.2z M274.9,684.3c0,0.4,0.1,0.8,0.3,1.2s0.5,0.7,0.9,0.9s0.8,0.3,1.3,0.3
				c0.7,0,1.3-0.2,1.7-0.7c0.5-0.5,0.7-1,0.7-1.7c0-0.7-0.2-1.3-0.7-1.8c-0.5-0.5-1.1-0.7-1.8-0.7c-0.7,0-1.3,0.2-1.7,0.7
				S274.9,683.6,274.9,684.3z M275.4,678.8c0,0.6,0.2,1,0.5,1.4c0.4,0.4,0.8,0.5,1.4,0.5c0.6,0,1-0.2,1.4-0.5s0.5-0.8,0.5-1.3
				c0-0.5-0.2-1-0.6-1.4s-0.8-0.6-1.4-0.6c-0.6,0-1,0.2-1.4,0.5C275.6,677.8,275.4,678.3,275.4,678.8z"/>
		</g>
		<g>
			<path class="st2" d="M261.9,710.2v-12h5.3c1.1,0,1.9,0.1,2.4,0.3c0.6,0.2,1,0.6,1.3,1.1c0.3,0.5,0.5,1.1,0.5,1.8
				c0,0.8-0.3,1.6-0.8,2.1c-0.5,0.6-1.4,1-2.5,1.1c0.4,0.2,0.7,0.4,1,0.6c0.5,0.4,0.9,1,1.3,1.6l2.1,3.3h-2l-1.6-2.5
				c-0.5-0.7-0.8-1.3-1.1-1.6c-0.3-0.4-0.6-0.6-0.8-0.8c-0.2-0.2-0.5-0.3-0.7-0.3c-0.2,0-0.5-0.1-0.9-0.1h-1.8v5.3H261.9z
				 M263.5,703.5h3.4c0.7,0,1.3-0.1,1.7-0.2s0.7-0.4,0.9-0.7s0.3-0.7,0.3-1.1c0-0.6-0.2-1-0.6-1.4c-0.4-0.4-1.1-0.5-1.9-0.5h-3.8
				V703.5z"/>
			<path class="st2" d="M281.1,708.8v1.4h-7.9c0-0.4,0-0.7,0.2-1c0.2-0.5,0.5-1.1,1-1.6c0.4-0.5,1.1-1.1,1.9-1.8
				c1.3-1.1,2.2-1.9,2.6-2.5c0.5-0.6,0.7-1.2,0.7-1.8c0-0.6-0.2-1.1-0.6-1.5c-0.4-0.4-1-0.6-1.6-0.6c-0.7,0-1.3,0.2-1.7,0.6
				c-0.4,0.4-0.6,1-0.6,1.8l-1.5-0.2c0.1-1.1,0.5-2,1.2-2.6s1.6-0.9,2.7-0.9c1.1,0,2.1,0.3,2.7,1c0.7,0.6,1,1.4,1,2.4
				c0,0.5-0.1,0.9-0.3,1.4c-0.2,0.5-0.5,0.9-1,1.5c-0.5,0.5-1.2,1.2-2.3,2.1c-0.9,0.7-1.4,1.2-1.7,1.5s-0.5,0.5-0.6,0.8H281.1z"/>
		</g>
		<g>
			<path class="st2" d="M577.5,163.8v-12h5.3c1.1,0,1.9,0.1,2.4,0.3c0.6,0.2,1,0.6,1.3,1.1c0.3,0.5,0.5,1.1,0.5,1.8
				c0,0.8-0.3,1.6-0.8,2.1c-0.5,0.6-1.4,1-2.5,1.1c0.4,0.2,0.7,0.4,1,0.6c0.5,0.4,0.9,1,1.3,1.6l2.1,3.3h-2l-1.6-2.5
				c-0.5-0.7-0.8-1.3-1.1-1.6c-0.3-0.4-0.6-0.6-0.8-0.8c-0.2-0.2-0.5-0.3-0.7-0.3c-0.2,0-0.5-0.1-0.9-0.1h-1.8v5.3H577.5z
				 M579.1,157.2h3.4c0.7,0,1.3-0.1,1.7-0.2s0.7-0.4,0.9-0.7s0.3-0.7,0.3-1.1c0-0.6-0.2-1-0.6-1.4c-0.4-0.4-1.1-0.5-1.9-0.5h-3.8
				V157.2z"/>
			<path class="st2" d="M588.9,160.7l1.5-0.1c0.1,0.8,0.4,1.3,0.8,1.7c0.4,0.4,0.9,0.6,1.5,0.6c0.7,0,1.3-0.3,1.8-0.8
				c0.5-0.5,0.7-1.2,0.7-2.1c0-0.8-0.2-1.5-0.7-2c-0.5-0.5-1.1-0.7-1.8-0.7c-0.5,0-0.9,0.1-1.3,0.3s-0.7,0.5-0.9,0.8l-1.4-0.2
				l1.2-6.1h5.9v1.4h-4.8l-0.6,3.2c0.7-0.5,1.5-0.8,2.3-0.8c1,0,1.9,0.4,2.6,1.1c0.7,0.7,1.1,1.7,1.1,2.8c0,1.1-0.3,2-0.9,2.8
				c-0.8,1-1.8,1.5-3.1,1.5c-1.1,0-2-0.3-2.7-0.9C589.4,162.5,589,161.7,588.9,160.7z"/>
			<path class="st2" d="M598.2,157.9c0-1.4,0.1-2.6,0.4-3.4c0.3-0.9,0.7-1.5,1.3-2c0.6-0.5,1.3-0.7,2.2-0.7c0.6,0,1.2,0.1,1.7,0.4
				c0.5,0.3,0.9,0.6,1.2,1.1c0.3,0.5,0.6,1.1,0.7,1.8c0.2,0.7,0.3,1.6,0.3,2.8c0,1.4-0.1,2.5-0.4,3.4c-0.3,0.9-0.7,1.5-1.3,2
				c-0.6,0.5-1.3,0.7-2.2,0.7c-1.2,0-2.1-0.4-2.7-1.2C598.6,161.8,598.2,160.2,598.2,157.9z M599.7,157.9c0,2,0.2,3.3,0.7,3.9
				c0.5,0.6,1,1,1.7,1c0.7,0,1.2-0.3,1.7-1c0.5-0.7,0.7-2,0.7-3.9c0-2-0.2-3.3-0.7-3.9c-0.5-0.6-1-1-1.7-1c-0.7,0-1.2,0.3-1.6,0.9
				C600,154.6,599.7,156,599.7,157.9z"/>
			<path class="st2" d="M607.5,157.9c0-1.4,0.1-2.6,0.4-3.4c0.3-0.9,0.7-1.5,1.3-2c0.6-0.5,1.3-0.7,2.2-0.7c0.6,0,1.2,0.1,1.7,0.4
				c0.5,0.3,0.9,0.6,1.2,1.1c0.3,0.5,0.6,1.1,0.7,1.8c0.2,0.7,0.3,1.6,0.3,2.8c0,1.4-0.1,2.5-0.4,3.4c-0.3,0.9-0.7,1.5-1.3,2
				c-0.6,0.5-1.3,0.7-2.2,0.7c-1.2,0-2.1-0.4-2.7-1.2C607.9,161.8,607.5,160.2,607.5,157.9z M609,157.9c0,2,0.2,3.3,0.7,3.9
				c0.5,0.6,1,1,1.7,1c0.7,0,1.2-0.3,1.7-1c0.5-0.7,0.7-2,0.7-3.9c0-2-0.2-3.3-0.7-3.9c-0.5-0.6-1-1-1.7-1c-0.7,0-1.2,0.3-1.6,0.9
				C609.3,154.6,609,156,609,157.9z"/>
		</g>
		<g>
			<path class="st12" d="M910.2,368.7L910.2,368.7l-1-1.9l1.1-0.3l1.3,2.4v1.3h-10.9v-1.4H910.2z"/>
			<path class="st12" d="M911.6,381.1h-1l-9.9-4.7v-1.5l9.6,4.7h0v-5.3h1.2V381.1z"/>
			<path class="st12" d="M906.3,389.9c-3.7,0-5.7-1.4-5.7-3.8c0-2.1,2-3.6,5.6-3.6c3.6,0,5.6,1.6,5.6,3.8
				C911.8,388.6,909.7,389.9,906.3,389.9z M906.1,384c-2.8,0-4.4,0.9-4.4,2.2c0,1.5,1.8,2.2,4.5,2.2c2.7,0,4.4-0.7,4.4-2.2
				C910.6,384.9,909.1,384,906.1,384z"/>
			<path class="st12" d="M912.3,398.4c-1.6-1.2-3.8-2.1-6.8-2.1c-3,0-5.1,0.9-6.8,2.1v-1.2c1.4-1.1,3.5-2.2,6.8-2.2
				c3.3,0,5.4,1.1,6.8,2.2V398.4z"/>
			<path class="st12" d="M910.6,405.7c0-0.3,0-0.7-0.1-1.1c-0.4-2.3-2.1-3.5-3.9-3.8v0.1c0.7,0.5,1.3,1.4,1.3,2.6
				c0,1.9-1.4,3.3-3.5,3.3c-2,0-3.8-1.4-3.8-3.6c0-2.3,1.8-3.8,4.6-3.8c2.1,0,3.8,0.8,4.9,1.8c0.9,0.9,1.4,2.1,1.6,3.5
				c0.1,0.4,0.1,0.8,0.1,1.1H910.6z M904.3,405.3c1.6,0,2.5-0.9,2.5-2.2c0-0.9-0.6-1.7-1.3-2.1c-0.2-0.1-0.4-0.2-0.7-0.2
				c-1.8,0-3.1,0.9-3.1,2.4C901.7,404.4,902.7,405.3,904.3,405.3z"/>
			<path class="st12" d="M901.6,408.2c0.6,0,1.1,0.4,1.1,1c0,0.6-0.4,1-1.1,1c-0.6,0-1.1-0.4-1.1-1
				C900.5,408.6,901,408.2,901.6,408.2z"/>
			<path class="st12" d="M910.6,417.7c0-0.3,0-0.7-0.1-1.1c-0.4-2.3-2.1-3.5-3.9-3.8v0c0.7,0.5,1.3,1.4,1.3,2.6
				c0,1.9-1.4,3.3-3.5,3.3c-2,0-3.8-1.4-3.8-3.6c0-2.3,1.8-3.8,4.6-3.8c2.1,0,3.8,0.8,4.9,1.8c0.9,0.9,1.4,2.1,1.6,3.5
				c0.1,0.4,0.1,0.8,0.1,1.1H910.6z M904.3,417.3c1.6,0,2.5-0.9,2.5-2.2c0-0.9-0.6-1.7-1.3-2.1c-0.2-0.1-0.4-0.2-0.7-0.2
				c-1.8,0-3.1,0.9-3.1,2.4C901.7,416.4,902.7,417.3,904.3,417.3z"/>
			<path class="st12" d="M901.8,420.9c0,0.3,0,0.7,0,1.2c0.1,0.9,0.5,1.7,1.1,2.3c0.7,0.7,1.6,1.2,2.9,1.4v-0.1
				c-0.7-0.6-1.2-1.5-1.2-2.6c0-2,1.5-3.2,3.3-3.2c2.1,0,3.9,1.5,3.9,3.7s-1.8,3.6-4.6,3.6c-2.4,0-4.1-0.8-5.1-1.9
				c-0.8-0.8-1.3-2-1.5-3.2c-0.1-0.5-0.1-1-0.1-1.4H901.8z M908,421.5c-1.4,0-2.3,0.8-2.3,2.1c0,1,0.5,1.8,1.1,2.1
				c0.1,0.1,0.3,0.1,0.5,0.1c1.9,0,3.3-0.7,3.3-2.2C910.7,422.4,909.6,421.5,908,421.5z"/>
			<path class="st12" d="M902.4,429c-0.3,0.4-0.7,1.4-0.7,2.4c0,1.9,1.2,2.5,2.1,2.5c1.5,0,2.2-1.4,2.2-2.8v-0.8h1.1v0.8
				c0,1.1,0.6,2.4,1.8,2.4c0.9,0,1.6-0.6,1.6-1.9c0-0.9-0.4-1.7-0.7-2.2l1.1-0.4c0.4,0.6,0.8,1.7,0.8,2.8c0,2.1-1.3,3.1-2.6,3.1
				c-1.1,0-2.1-0.7-2.6-2h0c-0.3,1.3-1.3,2.4-2.8,2.4c-1.7,0-3.3-1.4-3.3-4c0-1.2,0.4-2.3,0.7-2.8L902.4,429z"/>
			<path class="st12" d="M912.2,438.8l-4-0.3v-0.9l4-0.3V438.8z M912.2,441.3l-4-0.3v-0.9l4-0.3V441.3z"/>
		</g>
		<g>
			<defs>
				<rect id="SVGID_17_" x="133.4" y="-27.3" width="778.9" height="829.9"/>
			</defs>
			<clipPath id="SVGID_4_">
				<use xlink:href="#SVGID_17_"  style="overflow:visible;"/>
			</clipPath>
			<g style="clip-path:url(#SVGID_4_);">
				<path class="st12" d="M898.7,442.5c1.7,1.2,3.8,2.1,6.8,2.1c3,0,5.1-0.9,6.8-2.1v1.1c-1.4,1.1-3.5,2.2-6.8,2.2
					c-3.3,0-5.4-1.1-6.8-2.2V442.5z"/>
			</g>
		</g>
		<g>
			<path class="st2" d="M863.2,609.4v-1.5h9.4c-0.3-0.4-0.7-0.8-1-1.4c-0.3-0.6-0.6-1.1-0.8-1.5h1.4c0.4,0.8,0.9,1.5,1.4,2.2
				s1.1,1,1.6,1.3v0.9H863.2z"/>
			<path class="st2" d="M866.4,613.2l0.2,1.5c-0.8,0.2-1.4,0.5-1.8,0.9s-0.6,0.9-0.6,1.5c0,0.7,0.2,1.3,0.7,1.7s1.1,0.7,1.8,0.7
				c0.7,0,1.2-0.2,1.7-0.7c0.4-0.4,0.7-1,0.7-1.7c0-0.3-0.1-0.6-0.2-1l1.3,0.2c0,0.1,0,0.2,0,0.2c0,0.6,0.2,1.2,0.5,1.7
				c0.3,0.5,0.8,0.8,1.5,0.8c0.5,0,1-0.2,1.3-0.5s0.5-0.8,0.5-1.4c0-0.6-0.2-1-0.5-1.4c-0.4-0.4-0.9-0.6-1.6-0.7l0.3-1.5
				c1,0.2,1.7,0.6,2.3,1.2s0.8,1.4,0.8,2.4c0,0.7-0.1,1.3-0.4,1.8c-0.3,0.5-0.7,1-1.1,1.3c-0.5,0.3-1,0.4-1.5,0.4
				c-0.5,0-1-0.1-1.4-0.4c-0.4-0.3-0.8-0.7-1-1.2c-0.2,0.7-0.5,1.3-1,1.6s-1.2,0.6-1.9,0.6c-1,0-1.9-0.4-2.7-1.1
				c-0.7-0.8-1.1-1.7-1.1-2.9c0-1,0.3-1.9,0.9-2.6S865.4,613.3,866.4,613.2z"/>
			<path class="st2" d="M863.2,623.3h1.7v1.7h-1.7V623.3z"/>
			<path class="st2" d="M873.6,627.2h1.4v7.7h-1.1c-0.8-0.8-1.9-1.5-3.2-2.3c-1.3-0.7-2.7-1.3-4.1-1.7c-1-0.3-2.1-0.5-3.3-0.6v-1.5
				c0.9,0,2.1,0.2,3.4,0.6s2.6,0.9,3.9,1.5c1.2,0.7,2.3,1.4,3.1,2.1V627.2z"/>
			<path class="st2" d="M866.3,636.4l0.1,1.5c-0.8,0.1-1.3,0.4-1.7,0.8c-0.4,0.4-0.6,0.9-0.6,1.5c0,0.7,0.3,1.3,0.8,1.8
				c0.5,0.5,1.2,0.7,2.1,0.7c0.8,0,1.5-0.2,2-0.7c0.5-0.5,0.7-1.1,0.7-1.8c0-0.5-0.1-0.9-0.3-1.3c-0.2-0.4-0.5-0.7-0.8-0.9l0.2-1.4
				l6.1,1.2v5.9h-1.4V639l-3.2-0.6c0.5,0.7,0.8,1.5,0.8,2.3c0,1-0.4,1.9-1.1,2.6c-0.7,0.7-1.7,1.1-2.8,1.1c-1.1,0-2-0.3-2.8-0.9
				c-1-0.8-1.5-1.8-1.5-3.1c0-1.1,0.3-2,0.9-2.7C864.5,636.9,865.3,636.5,866.3,636.4z"/>
		</g>
		<g>
			<path class="st12" d="M665,667.5c-0.3,0.4-0.7,1.4-0.7,2.4c0,1.9,1.2,2.5,2.1,2.5c1.5,0,2.2-1.4,2.2-2.8v-0.8h1.1v0.8
				c0,1.1,0.6,2.4,1.8,2.4c0.9,0,1.6-0.6,1.6-1.9c0-0.9-0.4-1.7-0.7-2.2l1.1-0.4c0.4,0.6,0.8,1.7,0.8,2.8c0,2.1-1.3,3.1-2.6,3.1
				c-1.1,0-2.1-0.7-2.6-2h0c-0.3,1.3-1.3,2.4-2.8,2.4c-1.7,0-3.3-1.4-3.3-4c0-1.2,0.4-2.3,0.7-2.8L665,667.5z"/>
			<path class="st12" d="M673,682.2v-4.1l-2.8-0.4c0,0.3,0.1,0.5,0.1,0.9c0,0.8-0.2,1.7-0.6,2.3c-0.5,0.9-1.4,1.6-2.8,1.6
				c-2.1,0-3.7-1.7-3.7-4c0-1.2,0.3-2.2,0.7-2.7l1.1,0.4c-0.3,0.5-0.6,1.3-0.6,2.3c0,1.4,0.9,2.6,2.4,2.6c1.4,0,2.4-1,2.4-3.1
				c0-0.6-0.1-1.1-0.1-1.5l5.2,0.7v5.2H673z"/>
		</g>
		<g>
			<path class="st2" d="M205.3,169.4h-2.9v5.2h-1.3l-7.7-5.5v-1.2h7.7v-1.6h1.3v1.6h2.9V169.4z M201.1,169.4h-5.4l5.4,3.7V169.4z"/>
			<path class="st2" d="M202.2,164.8l-0.1-1.5c0.8-0.1,1.3-0.4,1.7-0.8c0.4-0.4,0.6-0.9,0.6-1.5c0-0.7-0.3-1.3-0.8-1.8
				c-0.5-0.5-1.2-0.7-2.1-0.7c-0.8,0-1.5,0.2-2,0.7c-0.5,0.5-0.7,1.1-0.7,1.8c0,0.5,0.1,0.9,0.3,1.3c0.2,0.4,0.5,0.7,0.8,0.9
				l-0.2,1.4l-6.1-1.2v-5.9h1.4v4.8l3.2,0.6c-0.5-0.7-0.8-1.5-0.8-2.3c0-1,0.4-1.9,1.1-2.6c0.7-0.7,1.7-1.1,2.8-1.1
				c1.1,0,2,0.3,2.8,0.9c1,0.8,1.5,1.8,1.5,3.1c0,1.1-0.3,2-0.9,2.7C204,164.3,203.2,164.7,202.2,164.8z"/>
		</g>
		<g>
			<path class="st2" d="M460.7,17.9h-1.5V8.6c-0.4,0.3-0.8,0.7-1.4,1c-0.6,0.3-1.1,0.6-1.5,0.8V8.9c0.8-0.4,1.5-0.9,2.2-1.4
				c0.6-0.5,1-1.1,1.3-1.6h0.9V17.9z"/>
			<path class="st2" d="M472.2,16.5v1.4h-7.9c0-0.4,0-0.7,0.2-1c0.2-0.5,0.5-1.1,1-1.6c0.4-0.5,1.1-1.1,1.9-1.8
				c1.3-1.1,2.2-1.9,2.6-2.5c0.5-0.6,0.7-1.2,0.7-1.8c0-0.6-0.2-1.1-0.6-1.5c-0.4-0.4-1-0.6-1.6-0.6c-0.7,0-1.3,0.2-1.7,0.6
				c-0.4,0.4-0.6,1-0.6,1.8l-1.5-0.2c0.1-1.1,0.5-2,1.2-2.6s1.6-0.9,2.7-0.9c1.1,0,2.1,0.3,2.7,1c0.7,0.6,1,1.4,1,2.4
				c0,0.5-0.1,0.9-0.3,1.4c-0.2,0.5-0.5,0.9-1,1.5c-0.5,0.5-1.2,1.2-2.3,2.1c-0.9,0.7-1.4,1.2-1.7,1.5s-0.5,0.5-0.6,0.8H472.2z"/>
			<path class="st2" d="M474,15.2l1.4-0.1c0.1,0.7,0.3,1.1,0.7,1.4c0.3,0.3,0.8,0.4,1.3,0.4c0.5,0,0.8-0.1,1.2-0.3
				c0.3-0.2,0.6-0.5,0.8-0.8c0.2-0.3,0.4-0.8,0.5-1.4s0.2-1.2,0.2-1.8c0-0.1,0-0.2,0-0.3c-0.3,0.5-0.7,0.8-1.2,1.1
				c-0.5,0.3-1.1,0.4-1.7,0.4c-1,0-1.8-0.4-2.5-1.1c-0.7-0.7-1-1.7-1-2.8c0-1.2,0.4-2.2,1.1-2.9s1.6-1.1,2.7-1.1
				c0.8,0,1.5,0.2,2.1,0.6c0.6,0.4,1.1,1,1.5,1.8c0.3,0.8,0.5,1.9,0.5,3.4c0,1.5-0.2,2.7-0.5,3.6c-0.3,0.9-0.8,1.6-1.5,2.1
				c-0.7,0.5-1.4,0.7-2.3,0.7c-0.9,0-1.7-0.3-2.3-0.8C474.4,16.8,474.1,16.1,474,15.2z M480,9.9c0-0.8-0.2-1.5-0.7-2
				c-0.4-0.5-1-0.7-1.6-0.7c-0.7,0-1.2,0.3-1.7,0.8c-0.5,0.5-0.7,1.2-0.7,2.1c0,0.8,0.2,1.4,0.7,1.9c0.5,0.5,1,0.7,1.7,0.7
				c0.7,0,1.2-0.2,1.7-0.7S480,10.7,480,9.9z"/>
		</g>
		<g>
			<defs>
				<rect id="SVGID_19_" x="133.4" y="-24.2" width="778.9" height="829.9"/>
			</defs>
			<clipPath id="SVGID_6_">
				<use xlink:href="#SVGID_19_"  style="overflow:visible;"/>
			</clipPath>
			<g style="clip-path:url(#SVGID_6_);">
				<path class="st2" d="M490.9,21.4c-0.8-1-1.5-2.2-2.1-3.6c-0.6-1.4-0.8-2.8-0.8-4.3c0-1.3,0.2-2.5,0.6-3.7
					c0.5-1.4,1.2-2.7,2.3-4.1h1.1c-0.7,1.1-1.1,1.9-1.3,2.4c-0.3,0.8-0.6,1.5-0.8,2.3c-0.2,1-0.4,2-0.4,3.1c0,2.6,0.8,5.2,2.4,7.8
					H490.9z"/>
			</g>
		</g>
		<g>
			<path class="st2" d="M493.3,14.8l1.5-0.1c0.1,0.8,0.4,1.3,0.8,1.7c0.4,0.4,0.9,0.6,1.5,0.6c0.7,0,1.3-0.3,1.8-0.8
				c0.5-0.5,0.7-1.2,0.7-2.1c0-0.8-0.2-1.5-0.7-2c-0.5-0.5-1.1-0.7-1.8-0.7c-0.5,0-0.9,0.1-1.3,0.3s-0.7,0.5-0.9,0.8l-1.4-0.2
				l1.2-6.1h5.9v1.4h-4.8l-0.6,3.2c0.7-0.5,1.5-0.8,2.3-0.8c1,0,1.9,0.4,2.6,1.1c0.7,0.7,1.1,1.7,1.1,2.8c0,1.1-0.3,2-0.9,2.8
				c-0.8,1-1.8,1.5-3.1,1.5c-1.1,0-2-0.3-2.7-0.9C493.7,16.6,493.4,15.8,493.3,14.8z"/>
			<path class="st2" d="M503.4,17.9v-1.7h1.7v1.7H503.4z"/>
			<path class="st2" d="M507.2,12c0-1.4,0.1-2.6,0.4-3.4c0.3-0.9,0.7-1.5,1.3-2c0.6-0.5,1.3-0.7,2.2-0.7c0.6,0,1.2,0.1,1.7,0.4
				c0.5,0.3,0.9,0.6,1.2,1.1c0.3,0.5,0.6,1.1,0.7,1.8c0.2,0.7,0.3,1.6,0.3,2.8c0,1.4-0.1,2.5-0.4,3.4c-0.3,0.9-0.7,1.5-1.3,2
				c-0.6,0.5-1.3,0.7-2.2,0.7c-1.2,0-2.1-0.4-2.7-1.2C507.6,15.9,507.2,14.3,507.2,12z M508.7,12c0,2,0.2,3.3,0.7,3.9
				c0.5,0.6,1,1,1.7,1c0.7,0,1.2-0.3,1.7-1c0.5-0.7,0.7-2,0.7-3.9c0-2-0.2-3.3-0.7-3.9c-0.5-0.6-1-1-1.7-1c-0.7,0-1.2,0.3-1.6,0.9
				C508.9,8.7,508.7,10.1,508.7,12z"/>
			<path class="st2" d="M516.6,7.5V6.1h7.7v1.1c-0.8,0.8-1.5,1.9-2.3,3.2c-0.7,1.3-1.3,2.7-1.7,4.1c-0.3,1-0.5,2.1-0.6,3.3h-1.5
				c0-0.9,0.2-2.1,0.6-3.4s0.9-2.6,1.5-3.9c0.7-1.2,1.4-2.3,2.1-3.1H516.6z"/>
			<path class="st2" d="M526,15.2l1.4-0.1c0.1,0.7,0.3,1.1,0.7,1.4c0.3,0.3,0.8,0.4,1.3,0.4c0.5,0,0.8-0.1,1.2-0.3
				c0.3-0.2,0.6-0.5,0.8-0.8c0.2-0.3,0.4-0.8,0.5-1.4s0.2-1.2,0.2-1.8c0-0.1,0-0.2,0-0.3c-0.3,0.5-0.7,0.8-1.2,1.1
				c-0.5,0.3-1.1,0.4-1.7,0.4c-1,0-1.8-0.4-2.5-1.1c-0.7-0.7-1-1.7-1-2.8c0-1.2,0.4-2.2,1.1-2.9s1.6-1.1,2.7-1.1
				c0.8,0,1.5,0.2,2.1,0.6c0.6,0.4,1.1,1,1.5,1.8c0.3,0.8,0.5,1.9,0.5,3.4c0,1.5-0.2,2.7-0.5,3.6c-0.3,0.9-0.8,1.6-1.5,2.1
				c-0.7,0.5-1.4,0.7-2.3,0.7c-0.9,0-1.7-0.3-2.3-0.8C526.5,16.8,526.1,16.1,526,15.2z M532,9.9c0-0.8-0.2-1.5-0.7-2
				c-0.4-0.5-1-0.7-1.6-0.7c-0.7,0-1.2,0.3-1.7,0.8c-0.5,0.5-0.7,1.2-0.7,2.1c0,0.8,0.2,1.4,0.7,1.9c0.5,0.5,1,0.7,1.7,0.7
				c0.7,0,1.2-0.2,1.7-0.7S532,10.7,532,9.9z"/>
		</g>
		<g>
			<path class="st12" d="M536.6,6.5l-0.3,4h-0.9l-0.3-4H536.6z M539.1,6.5l-0.3,4H538l-0.3-4H539.1z"/>
		</g>
		<g>
			<path class="st2" d="M542,22.3H541c1.6-2.6,2.4-5.2,2.4-7.8c0-1-0.1-2-0.4-3c-0.2-0.8-0.4-1.6-0.8-2.3c-0.2-0.5-0.6-1.3-1.3-2.4
				h1.1c1,1.4,1.8,2.7,2.3,4.1c0.4,1.2,0.6,2.4,0.6,3.7c0,1.5-0.3,2.9-0.8,4.3S542.8,21.3,542,22.3z"/>
		</g>
		<g>
			<path class="st2" d="M460.7,43.5h-1.5v-9.4c-0.4,0.3-0.8,0.7-1.4,1c-0.6,0.3-1.1,0.6-1.5,0.8v-1.4c0.8-0.4,1.5-0.9,2.2-1.4
				c0.6-0.5,1-1.1,1.3-1.6h0.9V43.5z"/>
			<path class="st2" d="M472.2,42v1.4h-7.9c0-0.4,0-0.7,0.2-1c0.2-0.5,0.5-1.1,1-1.6c0.4-0.5,1.1-1.1,1.9-1.8
				c1.3-1.1,2.2-1.9,2.6-2.5c0.5-0.6,0.7-1.2,0.7-1.8c0-0.6-0.2-1.1-0.6-1.5c-0.4-0.4-1-0.6-1.6-0.6c-0.7,0-1.3,0.2-1.7,0.6
				c-0.4,0.4-0.6,1-0.6,1.8l-1.5-0.2c0.1-1.1,0.5-2,1.2-2.6s1.6-0.9,2.7-0.9c1.1,0,2.1,0.3,2.7,1c0.7,0.6,1,1.4,1,2.4
				c0,0.5-0.1,0.9-0.3,1.4c-0.2,0.5-0.5,0.9-1,1.5c-0.5,0.5-1.2,1.2-2.3,2.1c-0.9,0.7-1.4,1.2-1.7,1.5s-0.5,0.5-0.6,0.8H472.2z"/>
			<path class="st2" d="M473.7,37.6c0-1.4,0.1-2.6,0.4-3.4c0.3-0.9,0.7-1.5,1.3-2c0.6-0.5,1.3-0.7,2.2-0.7c0.6,0,1.2,0.1,1.7,0.4
				c0.5,0.3,0.9,0.6,1.2,1.1c0.3,0.5,0.6,1.1,0.7,1.8s0.3,1.6,0.3,2.8c0,1.4-0.1,2.5-0.4,3.4s-0.7,1.5-1.3,2
				c-0.6,0.5-1.3,0.7-2.2,0.7c-1.2,0-2.1-0.4-2.7-1.2C474.1,41.4,473.7,39.8,473.7,37.6z M475.2,37.6c0,2,0.2,3.3,0.7,3.9
				c0.5,0.6,1,1,1.7,1c0.7,0,1.2-0.3,1.7-1c0.5-0.7,0.7-2,0.7-3.9c0-2-0.2-3.3-0.7-3.9c-0.5-0.6-1-1-1.7-1c-0.7,0-1.2,0.3-1.6,0.9
				C475.5,34.2,475.2,35.6,475.2,37.6z"/>
			<path class="st2" d="M490.9,47c-0.8-1-1.5-2.2-2.1-3.6c-0.6-1.4-0.8-2.8-0.8-4.3c0-1.3,0.2-2.5,0.6-3.7c0.5-1.4,1.2-2.7,2.3-4.1
				h1.1c-0.7,1.1-1.1,1.9-1.3,2.4c-0.3,0.8-0.6,1.5-0.8,2.3c-0.2,1-0.4,2-0.4,3.1c0,2.6,0.8,5.2,2.4,7.8H490.9z"/>
			<path class="st2" d="M497.9,43.5v-2.9h-5.2v-1.3l5.5-7.7h1.2v7.7h1.6v1.3h-1.6v2.9H497.9z M497.9,39.2v-5.4l-3.7,5.4H497.9z"/>
			<path class="st2" d="M503.3,43.5v-1.7h1.7v1.7H503.3z"/>
			<path class="st2" d="M507.3,33.1v-1.4h7.7v1.1c-0.8,0.8-1.5,1.9-2.3,3.2c-0.7,1.3-1.3,2.7-1.7,4.1c-0.3,1-0.5,2.1-0.6,3.3h-1.5
				c0-0.9,0.2-2.1,0.6-3.4s0.9-2.6,1.5-3.9c0.7-1.2,1.4-2.3,2.1-3.1H507.3z"/>
			<path class="st2" d="M524.2,42v1.4h-7.9c0-0.4,0-0.7,0.2-1c0.2-0.5,0.5-1.1,1-1.6c0.4-0.5,1.1-1.1,1.9-1.8
				c1.3-1.1,2.2-1.9,2.6-2.5c0.5-0.6,0.7-1.2,0.7-1.8c0-0.6-0.2-1.1-0.6-1.5c-0.4-0.4-1-0.6-1.6-0.6c-0.7,0-1.3,0.2-1.7,0.6
				c-0.4,0.4-0.6,1-0.6,1.8l-1.5-0.2c0.1-1.1,0.5-2,1.2-2.6s1.6-0.9,2.7-0.9c1.1,0,2.1,0.3,2.7,1c0.7,0.6,1,1.4,1,2.4
				c0,0.5-0.1,0.9-0.3,1.4c-0.2,0.5-0.5,0.9-1,1.5c-0.5,0.5-1.2,1.2-2.3,2.1c-0.9,0.7-1.4,1.2-1.7,1.5s-0.5,0.5-0.6,0.8H524.2z"/>
			<path class="st2" d="M530.4,43.5v-2.9h-5.2v-1.3l5.5-7.7h1.2v7.7h1.6v1.3h-1.6v2.9H530.4z M530.4,39.2v-5.4l-3.7,5.4H530.4z"/>
		</g>
		<g>
			<path class="st12" d="M536.6,32l-0.3,4h-0.9l-0.3-4H536.6z M539.1,32l-0.3,4H538l-0.3-4H539.1z"/>
		</g>
		<g>
			<path class="st2" d="M542,47H541c1.6-2.6,2.4-5.2,2.4-7.8c0-1-0.1-2-0.4-3c-0.2-0.8-0.4-1.6-0.8-2.3c-0.2-0.5-0.6-1.3-1.3-2.4
				h1.1c1,1.4,1.8,2.7,2.3,4.1c0.4,1.2,0.6,2.4,0.6,3.7c0,1.5-0.3,2.9-0.8,4.3S542.8,45.9,542,47z"/>
		</g>
		<g>
			<path class="st2" d="M508.8,74.9v-5.1l-4.6-6.9h1.9l2.4,3.6c0.4,0.7,0.8,1.3,1.2,2c0.4-0.6,0.8-1.3,1.3-2.1l2.3-3.5h1.8l-4.8,6.9
				v5.1H508.8z"/>
		</g>
		<g>
			<path class="st12" d="M460.9,769.4L460.9,769.4l-1.9,1l-0.3-1.1l2.4-1.3h1.3v10.9h-1.4V769.4z"/>
			<path class="st12" d="M473.3,768.1v1l-4.7,9.9h-1.5l4.7-9.6v0h-5.3v-1.2H473.3z"/>
			<path class="st12" d="M482.1,773.4c0,3.7-1.4,5.7-3.8,5.7c-2.1,0-3.6-2-3.6-5.6c0-3.6,1.6-5.6,3.8-5.6
				C480.8,767.9,482.1,769.9,482.1,773.4z M476.2,773.6c0,2.8,0.9,4.4,2.2,4.4c1.5,0,2.2-1.8,2.2-4.5c0-2.7-0.7-4.4-2.2-4.4
				C477.1,769,476.2,770.6,476.2,773.6z"/>
			<path class="st12" d="M490.6,767.3c-1.2,1.6-2.1,3.8-2.1,6.8c0,3,0.9,5.1,2.1,6.8h-1.2c-1.1-1.4-2.2-3.5-2.2-6.8
				c0-3.3,1.1-5.4,2.2-6.8H490.6z"/>
			<path class="st12" d="M497.9,769.1c-0.3,0-0.7,0-1.1,0.1c-2.3,0.4-3.5,2.1-3.8,3.9h0c0.5-0.7,1.4-1.3,2.6-1.3
				c1.9,0,3.3,1.4,3.3,3.5c0,2-1.4,3.8-3.6,3.8c-2.3,0-3.8-1.8-3.8-4.6c0-2.1,0.8-3.8,1.8-4.9c0.9-0.9,2.1-1.4,3.5-1.6
				c0.4-0.1,0.8-0.1,1.1-0.1V769.1z M497.5,775.4c0-1.6-0.9-2.5-2.2-2.5c-0.9,0-1.7,0.6-2.1,1.3c-0.1,0.2-0.2,0.4-0.2,0.7
				c0,1.8,0.9,3.1,2.4,3.1C496.6,778,497.5,776.9,497.5,775.4z"/>
			<path class="st12" d="M500.4,778.1c0-0.6,0.4-1.1,1-1.1s1,0.4,1,1.1c0,0.6-0.4,1.1-1,1.1C500.8,779.1,500.4,778.7,500.4,778.1z"
				/>
			<path class="st12" d="M509.9,769.1c-0.3,0-0.7,0-1.1,0.1c-2.3,0.4-3.5,2.1-3.8,3.9h0c0.5-0.7,1.4-1.3,2.6-1.3
				c1.9,0,3.3,1.4,3.3,3.5c0,2-1.4,3.8-3.6,3.8c-2.3,0-3.8-1.8-3.8-4.6c0-2.1,0.8-3.8,1.8-4.9c0.9-0.9,2.1-1.4,3.5-1.6
				c0.4-0.1,0.8-0.1,1.1-0.1V769.1z M509.5,775.4c0-1.6-0.9-2.5-2.2-2.5c-0.9,0-1.7,0.6-2.1,1.3c-0.1,0.2-0.2,0.4-0.2,0.7
				c0,1.8,0.9,3.1,2.4,3.1C508.6,778,509.5,776.9,509.5,775.4z"/>
			<path class="st12" d="M513.1,777.9c0.3,0,0.7,0,1.2,0c0.9-0.1,1.7-0.5,2.3-1.1c0.7-0.7,1.2-1.6,1.4-2.9H518
				c-0.6,0.7-1.5,1.2-2.6,1.2c-2,0-3.2-1.5-3.2-3.3c0-2.1,1.5-3.9,3.7-3.9c2.2,0,3.6,1.8,3.6,4.6c0,2.4-0.8,4.1-1.9,5.1
				c-0.8,0.8-2,1.3-3.2,1.5c-0.5,0.1-1,0.1-1.4,0.1V777.9z M513.7,771.6c0,1.4,0.8,2.3,2.1,2.3c1,0,1.8-0.5,2.1-1.1
				c0.1-0.1,0.1-0.3,0.1-0.5c0-1.9-0.7-3.3-2.2-3.3C514.6,769,513.7,770.1,513.7,771.6z"/>
			<path class="st12" d="M521.2,777.2c0.4,0.3,1.4,0.7,2.4,0.7c1.9,0,2.5-1.2,2.5-2.1c0-1.5-1.4-2.2-2.8-2.2h-0.8v-1.1h0.8
				c1.1,0,2.4-0.6,2.4-1.8c0-0.9-0.6-1.6-1.9-1.6c-0.9,0-1.7,0.4-2.2,0.7l-0.4-1.1c0.6-0.4,1.7-0.8,2.8-0.8c2.1,0,3.1,1.3,3.1,2.6
				c0,1.1-0.7,2.1-2,2.6v0c1.3,0.3,2.4,1.3,2.4,2.8c0,1.7-1.4,3.3-4,3.3c-1.2,0-2.3-0.4-2.8-0.7L521.2,777.2z"/>
			<path class="st12" d="M531,767.5l-0.3,4h-0.9l-0.3-4H531z M533.5,767.5l-0.3,4h-0.9l-0.3-4H533.5z"/>
		</g>
		<g>
			<path class="st12" d="M534.7,781c1.2-1.7,2.1-3.8,2.1-6.8c0-3-0.9-5.1-2.1-6.8h1.1c1.1,1.4,2.2,3.5,2.2,6.8
				c0,3.3-1.1,5.4-2.2,6.8H534.7z"/>
		</g>
		<g>
			<path class="st2" d="M370.7,137.9v-12h5.3c1.1,0,1.9,0.1,2.4,0.3c0.6,0.2,1,0.6,1.3,1.1c0.3,0.5,0.5,1.1,0.5,1.8
				c0,0.8-0.3,1.6-0.8,2.1c-0.5,0.6-1.4,1-2.5,1.1c0.4,0.2,0.7,0.4,1,0.6c0.5,0.4,0.9,1,1.3,1.6l2.1,3.3h-2l-1.6-2.5
				c-0.5-0.7-0.8-1.3-1.1-1.6c-0.3-0.4-0.6-0.6-0.8-0.8c-0.2-0.2-0.5-0.3-0.7-0.3c-0.2,0-0.5-0.1-0.9-0.1h-1.8v5.3H370.7z
				 M372.3,131.2h3.4c0.7,0,1.3-0.1,1.7-0.2s0.7-0.4,0.9-0.7s0.3-0.7,0.3-1.1c0-0.6-0.2-1-0.6-1.4c-0.4-0.4-1.1-0.5-1.9-0.5h-3.8
				V131.2z"/>
			<path class="st2" d="M384.4,131.4c-0.6-0.2-1.1-0.5-1.4-1c-0.3-0.4-0.4-0.9-0.4-1.5c0-0.9,0.3-1.6,0.9-2.2s1.5-0.9,2.5-0.9
				c1,0,1.9,0.3,2.5,0.9c0.6,0.6,1,1.3,1,2.2c0,0.6-0.1,1-0.4,1.4c-0.3,0.4-0.7,0.7-1.3,1c0.7,0.2,1.3,0.6,1.7,1.2
				c0.4,0.5,0.6,1.2,0.6,1.9c0,1-0.4,1.9-1.1,2.6c-0.7,0.7-1.7,1-2.9,1s-2.1-0.3-2.9-1c-0.7-0.7-1.1-1.6-1.1-2.6
				c0-0.8,0.2-1.4,0.6-2C383.1,131.9,383.7,131.6,384.4,131.4z M383.6,134.4c0,0.4,0.1,0.8,0.3,1.2s0.5,0.7,0.9,0.9s0.8,0.3,1.3,0.3
				c0.7,0,1.3-0.2,1.7-0.7c0.5-0.5,0.7-1,0.7-1.7c0-0.7-0.2-1.3-0.7-1.8c-0.5-0.5-1.1-0.7-1.8-0.7c-0.7,0-1.3,0.2-1.7,0.7
				S383.6,133.7,383.6,134.4z M384.1,128.9c0,0.6,0.2,1,0.5,1.4c0.4,0.4,0.8,0.5,1.4,0.5c0.6,0,1-0.2,1.4-0.5s0.5-0.8,0.5-1.3
				c0-0.5-0.2-1-0.6-1.4s-0.8-0.6-1.4-0.6c-0.6,0-1,0.2-1.4,0.5C384.3,128,384.1,128.4,384.1,128.9z"/>
		</g>
		<g>
			<path class="st2" d="M370.7,199.1v-12h5.3c1.1,0,1.9,0.1,2.4,0.3c0.6,0.2,1,0.6,1.3,1.1c0.3,0.5,0.5,1.1,0.5,1.8
				c0,0.8-0.3,1.6-0.8,2.1c-0.5,0.6-1.4,1-2.5,1.1c0.4,0.2,0.7,0.4,1,0.6c0.5,0.4,0.9,1,1.3,1.6l2.1,3.3h-2l-1.6-2.5
				c-0.5-0.7-0.8-1.3-1.1-1.6c-0.3-0.4-0.6-0.6-0.8-0.8c-0.2-0.2-0.5-0.3-0.7-0.3c-0.2,0-0.5-0.1-0.9-0.1h-1.8v5.3H370.7z
				 M372.3,192.4h3.4c0.7,0,1.3-0.1,1.7-0.2s0.7-0.4,0.9-0.7s0.3-0.7,0.3-1.1c0-0.6-0.2-1-0.6-1.4c-0.4-0.4-1.1-0.5-1.9-0.5h-3.8
				V192.4z"/>
			<path class="st2" d="M384.4,192.6c-0.6-0.2-1.1-0.5-1.4-1c-0.3-0.4-0.4-0.9-0.4-1.5c0-0.9,0.3-1.6,0.9-2.2s1.5-0.9,2.5-0.9
				c1,0,1.9,0.3,2.5,0.9c0.6,0.6,1,1.3,1,2.2c0,0.6-0.1,1-0.4,1.4c-0.3,0.4-0.7,0.7-1.3,1c0.7,0.2,1.3,0.6,1.7,1.2
				c0.4,0.5,0.6,1.2,0.6,1.9c0,1-0.4,1.9-1.1,2.6c-0.7,0.7-1.7,1-2.9,1s-2.1-0.3-2.9-1c-0.7-0.7-1.1-1.6-1.1-2.6
				c0-0.8,0.2-1.4,0.6-2C383.1,193.1,383.7,192.8,384.4,192.6z M383.6,195.6c0,0.4,0.1,0.8,0.3,1.2s0.5,0.7,0.9,0.9s0.8,0.3,1.3,0.3
				c0.7,0,1.3-0.2,1.7-0.7c0.5-0.5,0.7-1,0.7-1.7c0-0.7-0.2-1.3-0.7-1.8c-0.5-0.5-1.1-0.7-1.8-0.7c-0.7,0-1.3,0.2-1.7,0.7
				S383.6,195,383.6,195.6z M384.1,190.1c0,0.6,0.2,1,0.5,1.4c0.4,0.4,0.8,0.5,1.4,0.5c0.6,0,1-0.2,1.4-0.5s0.5-0.8,0.5-1.3
				c0-0.5-0.2-1-0.6-1.4s-0.8-0.6-1.4-0.6c-0.6,0-1,0.2-1.4,0.5C384.3,189.2,384.1,189.6,384.1,190.1z"/>
		</g>
		<g>
			<path class="st2" d="M508.8,754.9v-5.1l-4.6-6.9h1.9l2.4,3.6c0.4,0.7,0.8,1.3,1.2,2c0.4-0.6,0.8-1.3,1.3-2.1l2.3-3.5h1.8
				l-4.8,6.9v5.1H508.8z"/>
		</g>
		<rect x="490.8" y="412.9" class="st0" width="15.9" height="13.1"/>
		<g>
			<path class="st2" d="M467,426v-2.9h-5.2v-1.3l5.5-7.7h1.2v7.7h1.6v1.3h-1.6v2.9H467z M467,421.8v-5.4l-3.7,5.4H467z"/>
			<path class="st2" d="M476.3,426v-2.9h-5.2v-1.3l5.5-7.7h1.2v7.7h1.6v1.3h-1.6v2.9H476.3z M476.3,421.8v-5.4l-3.7,5.4H476.3z"/>
			<path class="st2" d="M488.8,429.5c-0.8-1-1.5-2.2-2.1-3.6c-0.6-1.4-0.8-2.8-0.8-4.3c0-1.3,0.2-2.5,0.6-3.7
				c0.5-1.4,1.2-2.7,2.3-4.1h1.1c-0.7,1.1-1.1,1.9-1.3,2.4c-0.3,0.8-0.6,1.5-0.8,2.3c-0.2,1-0.4,2-0.4,3.1c0,2.6,0.8,5.2,2.4,7.8
				H488.8z"/>
			<path class="st2" d="M496.6,426h-1.5v-9.4c-0.4,0.3-0.8,0.7-1.4,1c-0.6,0.3-1.1,0.6-1.5,0.8V417c0.8-0.4,1.5-0.9,2.2-1.4
				c0.6-0.5,1-1.1,1.3-1.6h0.9V426z"/>
			<path class="st2" d="M501.2,426v-1.7h1.7v1.7H501.2z"/>
			<path class="st2" d="M505.1,415.6v-1.4h7.7v1.1c-0.8,0.8-1.5,1.9-2.3,3.2c-0.7,1.3-1.3,2.7-1.7,4.1c-0.3,1-0.5,2.1-0.6,3.3h-1.5
				c0-0.9,0.2-2.1,0.6-3.4s0.9-2.6,1.5-3.9c0.7-1.2,1.4-2.3,2.1-3.1H505.1z"/>
			<path class="st2" d="M514.3,422.8l1.5-0.2c0.2,0.8,0.5,1.4,0.9,1.8c0.4,0.4,0.9,0.6,1.5,0.6c0.7,0,1.3-0.2,1.7-0.7
				c0.5-0.5,0.7-1.1,0.7-1.8c0-0.7-0.2-1.2-0.7-1.7s-1-0.7-1.7-0.7c-0.3,0-0.6,0.1-1,0.2l0.2-1.3c0.1,0,0.2,0,0.2,0
				c0.6,0,1.2-0.2,1.7-0.5c0.5-0.3,0.8-0.8,0.8-1.5c0-0.5-0.2-1-0.5-1.3s-0.8-0.5-1.4-0.5c-0.6,0-1,0.2-1.4,0.5
				c-0.4,0.4-0.6,0.9-0.7,1.6l-1.5-0.3c0.2-1,0.6-1.7,1.2-2.3c0.6-0.5,1.4-0.8,2.4-0.8c0.7,0,1.3,0.1,1.8,0.4c0.5,0.3,1,0.7,1.3,1.1
				c0.3,0.5,0.4,1,0.4,1.5c0,0.5-0.1,1-0.4,1.4s-0.7,0.8-1.2,1c0.7,0.2,1.3,0.5,1.6,1s0.6,1.2,0.6,1.9c0,1-0.4,1.9-1.1,2.7
				c-0.8,0.7-1.7,1.1-2.9,1.1c-1,0-1.9-0.3-2.6-0.9S514.4,423.8,514.3,422.8z"/>
			<path class="st2" d="M531.3,424.6v1.4h-7.9c0-0.4,0-0.7,0.2-1c0.2-0.5,0.5-1.1,1-1.6c0.4-0.5,1.1-1.1,1.9-1.8
				c1.3-1.1,2.2-1.9,2.6-2.5c0.5-0.6,0.7-1.2,0.7-1.8c0-0.6-0.2-1.1-0.6-1.5c-0.4-0.4-1-0.6-1.6-0.6c-0.7,0-1.3,0.2-1.7,0.6
				c-0.4,0.4-0.6,1-0.6,1.8l-1.5-0.2c0.1-1.1,0.5-2,1.2-2.6s1.6-0.9,2.7-0.9c1.1,0,2.1,0.3,2.7,1c0.7,0.6,1,1.4,1,2.4
				c0,0.5-0.1,0.9-0.3,1.4c-0.2,0.5-0.5,0.9-1,1.5c-0.5,0.5-1.2,1.2-2.3,2.1c-0.9,0.7-1.4,1.2-1.7,1.5s-0.5,0.5-0.6,0.8H531.3z"/>
		</g>
		<g>
			<path class="st12" d="M534.5,414.5l-0.3,4h-0.9l-0.3-4H534.5z M537,414.5l-0.3,4h-0.9l-0.3-4H537z"/>
		</g>
		<g>
			<path class="st2" d="M539.9,429.5h-1.1c1.6-2.6,2.4-5.2,2.4-7.8c0-1-0.1-2-0.4-3c-0.2-0.8-0.4-1.6-0.8-2.3
				c-0.2-0.5-0.6-1.3-1.3-2.4h1.1c1,1.4,1.8,2.7,2.3,4.1c0.4,1.2,0.6,2.4,0.6,3.7c0,1.5-0.3,2.9-0.8,4.3S540.7,428.5,539.9,429.5z"
				/>
		</g>
	</g>
</g>
<g id="Watermark">
	<g>
		<rect x="438.5" y="301.4" class="st0" width="123.1" height="46.3"/>
		<g>
			<rect x="444.9" y="309.2" class="st75" width="62.9" height="30.6"/>
			<rect x="507.7" y="309.2" class="st75" width="47.4" height="30.6"/>
			<g>
				<path class="st76" d="M466.5,315.3l-2.8,18.9H461l-1.6-11l-1.5,11h-2.7l-2.8-18.9h2.5l1.8,14.2l1.8-14.2h2l1.8,14.2l1.8-14.2
					H466.5z"/>
				<path class="st76" d="M467.9,334.3v-18.9h2.5v18.9H467.9z"/>
				<path class="st76" d="M472.8,315.3h5c1.9,0,2.9,1.1,2.9,3.2v4.7c0,1.7-0.5,2.7-1.5,3.1l1.8,7.9h-2.4l-1.7-7.6h-1.5v7.6h-2.5
					V315.3z M475.4,324.5h1.7c0.8,0,1.1-0.5,1.1-1.4V319c0-0.9-0.4-1.4-1.1-1.4h-1.7V324.5z"/>
				<path class="st76" d="M486.8,317.6v16.6h-2.5v-16.6h-2.4v-2.3h7.4v2.3H486.8z"/>
				<path class="st76" d="M496.3,334.3v-8.6h-3.1v8.6h-2.5v-18.9h2.5v8h3.1v-8h2.5v18.9H496.3z"/>
			</g>
			<g>
				<path class="st76" d="M516.3,315.3h5c1.9,0,2.9,1.1,2.9,3.2v4.7c0,1.7-0.5,2.7-1.5,3.1l1.8,7.9H522l-1.7-7.6h-1.5v7.6h-2.5
					V315.3z M518.8,324.5h1.7c0.8,0,1.1-0.5,1.1-1.4V319c0-0.9-0.4-1.4-1.1-1.4h-1.7V324.5z"/>
				<path class="st76" d="M528.7,334.3h-2.5v-15.7c0-2.2,1-3.2,3-3.2h1.9c2,0,3,1.1,3,3.2v15.7h-2.5v-6.9h-2.9V334.3z M531.6,325
					v-6.3c0-0.7-0.4-1.1-1.1-1.1h-0.7c-0.7,0-1.1,0.4-1.1,1.1v6.3H531.6z"/>
				<path class="st76" d="M536.3,334.3v-18.9h2.5v18.9H536.3z"/>
				<path class="st76" d="M547.2,334.3h-6v-18.9h2.5V332h3.5V334.3z"/>
			</g>
		</g>
	</g>
</g>
</svg>
