<?xml version="1.0" encoding="utf-8"?>
<!-- Generator: Adobe Illustrator 25.2.3, SVG Export Plug-In . SVG Version: 6.00 Build 0)  -->
<svg version="1.1" xmlns="http://www.w3.org/2000/svg" xmlns:xlink="http://www.w3.org/1999/xlink" x="0px" y="0px"
	 viewBox="0 0 1000 800" style="enable-background:new 0 0 1000 800;" xml:space="preserve">
<style type="text/css">
	.st0{display:none;}
	.st1{fill:#F0F0F0;}
	.st2{fill:none;stroke:#221E1F;stroke-width:1.0067;}
	.st3{fill:none;stroke:#221E1F;stroke-width:1.0815;}
	.st4{fill:#221E1F;}
	.st5{fill:none;stroke:#221E1F;stroke-width:1.0067;stroke-dasharray:25.4357,7.8961;}
	.st6{fill:#303030;}
	.st7{fill:none;stroke:#221E1F;stroke-width:0.9293;}
	.st8{fill:none;stroke:#303030;stroke-width:1.0067;stroke-miterlimit:10;}
	.st9{fill:none;stroke:#221E1F;stroke-width:1.2309;}
	.st10{fill:none;stroke:#221E1F;stroke-width:1.0036;stroke-linecap:round;stroke-linejoin:round;stroke-miterlimit:10;}
	.st11{fill:none;stroke:#221E1F;stroke-width:1.2309;stroke-linecap:round;stroke-linejoin:round;stroke-miterlimit:10;}
	.st12{fill:none;stroke:#221E1F;stroke-width:1.2309;stroke-miterlimit:10;}
	.st13{fill:none;stroke:#221E1F;stroke-width:1.2309;stroke-linecap:round;stroke-linejoin:round;}
	.st14{fill:none;stroke:#221E1F;stroke-width:1.2309;stroke-dasharray:6.9402,6.9402;}
	.st15{fill:none;stroke:#221E1F;stroke-width:1.148;}
	.st16{fill:none;stroke:#221E1F;stroke-width:1.148;stroke-dasharray:6.4521,6.4521;}
	.st17{fill:none;stroke:#221E1F;stroke-width:1.145;}
	.st18{fill:none;stroke:#221E1F;stroke-width:1.1283;}
	.st19{fill:none;stroke:#221E1F;stroke-width:1.1023;}
	.st20{fill:none;stroke:#221E1F;stroke-width:1.1283;stroke-dasharray:6.3679,6.3679;}
	.st21{fill:none;stroke:#221E1F;stroke-width:1.1486;}
	.st22{fill:none;stroke:#FFFFFF;stroke-width:5.4259;}
	.st23{fill:none;stroke:#221E1F;stroke-width:1.0581;}
	.st24{fill:none;stroke:#221E1F;stroke-width:1.0092;}
	.st25{fill:none;stroke:#221E1F;stroke-width:0.9007;}
	.st26{fill:none;stroke:#221E1F;stroke-width:0.9007;stroke-dasharray:6.2235,6.2235;}
	.st27{fill:none;stroke:#241F21;stroke-width:0.8703;}
	.st28{fill:none;stroke:#241F21;stroke-width:0.9357;}
	.st29{clip-path:url(#SVGID_2_);fill:none;stroke:#241F21;stroke-width:0.8703;}
	.st30{fill:none;stroke:#303030;stroke-width:0.8703;stroke-miterlimit:10;}
	.st31{fill:#241F21;}
	.st32{fill:none;stroke:#241F21;stroke-width:0.8703;stroke-dasharray:22.0524,6.4121;}
	.st33{clip-path:url(#SVGID_4_);}
	.st34{clip-path:url(#SVGID_6_);}
	.st35{clip-path:url(#SVGID_8_);}
	.st36{clip-path:url(#SVGID_10_);fill:#303030;}
	.st37{fill:none;stroke:#241F21;stroke-width:0.8703;stroke-dasharray:26.5684,7.9543;}
	.st38{clip-path:url(#SVGID_12_);}
	.st39{clip-path:url(#SVGID_14_);}
	.st40{clip-path:url(#SVGID_16_);}
	.st41{clip-path:url(#SVGID_18_);}
	.st42{fill:none;stroke:#241F21;stroke-width:0.8984;}
	.st43{fill:none;stroke:#303030;stroke-width:0.8984;stroke-miterlimit:10;}
	.st44{clip-path:url(#SVGID_20_);}
	.st45{clip-path:url(#SVGID_22_);}
	.st46{clip-path:url(#SVGID_24_);}
	.st47{clip-path:url(#SVGID_26_);}
	.st48{clip-path:url(#SVGID_28_);}
	.st49{clip-path:url(#SVGID_30_);}
	.st50{clip-path:url(#SVGID_32_);}
	.st51{clip-path:url(#SVGID_34_);fill:none;stroke:#241F21;stroke-width:0.8984;}
	.st52{clip-path:url(#SVGID_36_);fill:none;stroke:#241F21;stroke-width:0.8984;}
	.st53{clip-path:url(#SVGID_38_);fill:none;stroke:#241F21;stroke-width:0.8984;}
	.st54{clip-path:url(#SVGID_40_);fill:none;stroke:#241F21;stroke-width:0.8984;}
	.st55{fill:none;stroke:#241F21;stroke-width:0.8984;stroke-dasharray:22.7263,6.6621;}
	.st56{fill:none;stroke:#241F21;stroke-width:0.9362;}
	.st57{fill:none;stroke:#241F21;stroke-width:0.8984;stroke-dasharray:27.9392,8.7142;}
	.st58{clip-path:url(#SVGID_42_);}
	.st59{clip-path:url(#SVGID_44_);}
	.st60{clip-path:url(#SVGID_46_);}
	.st61{fill:none;stroke:#221E1F;stroke-width:0.765;}
	.st62{fill:none;stroke:#221E1F;stroke-width:0.8373;}
	.st63{fill:none;stroke:#221E1F;stroke-width:0.765;stroke-dasharray:21.1617,6.4071;}
	.st64{fill:none;stroke:#221E1F;stroke-width:0.765;stroke-dasharray:24.8189,7.2742;}
	.st65{fill:none;stroke:#303030;stroke-width:0.765;stroke-miterlimit:10;}
	.st66{fill:none;stroke:#221E1F;stroke-width:0.748;}
	.st67{fill:none;stroke:#241F21;stroke-width:1.3086;}
	.st68{fill:none;stroke:#241F21;stroke-width:1.5023;}
	.st69{fill:none;stroke:#241F21;stroke-width:1.1437;}
	.st70{fill:none;stroke:#241F21;stroke-width:1.5023;stroke-dasharray:23.5916,9.5345;}
	.st71{fill:none;stroke:#241F21;stroke-width:1.5023;stroke-dasharray:22.9216,8.8619;}
	.st72{fill:none;stroke:#241F21;stroke-width:1.5023;stroke-dasharray:21.3408,7.2811;}
	.st73{fill:none;stroke:#241F21;stroke-width:1.5023;stroke-dasharray:21.3303,7.2706;}
	.st74{fill:none;stroke:#241F21;stroke-width:1.5023;stroke-dasharray:20.027,5.9673;}
	.st75{fill:#F0F0F0;stroke:#CCCCCC;stroke-miterlimit:10;}
	.st76{fill:#CCCCCC;}
</style>
<g id="editable" class="st0">
</g>
<g id="Flat">
	<g>
		<g>
			<path class="st1" d="M808,689.6c-4.5-1-230.9-53.3-230.9-53.3s-31.3-5.8-38.3-42.2c0,0-5-57.7-5-140c0-82.4,5.5-157.3,5.5-157.3
				s3.5-28.6,38.3-39.2l83.8-19.9c0,0,12.4-1,12.9-16.5v-70c0,0-0.7-48.1-59.9-56.8L500.3,92v0l-0.9,0l-0.9,0v0l-114.1,2.4
				c-59.2,8.7-59.9,56.8-59.9,56.8v70c0.5,15.5,9.7,16.5,9.7,16.5l87,19.9c34.8,10.7,38.3,39.2,38.3,39.2s5.5,75,5.5,157.3
				c0,82.4-5,140-5,140c-7,36.3-38.3,42.2-38.3,42.2s-222.9,52.3-227.3,53.3c-4.5,1-9.9,2.9-10.9,10.2v19.7
				c1,8.2,11.4,11.1,11.4,11.1H496h6.8h304.7c0,0,10.4-2.9,11.4-11.1v-19.7C817.9,692.5,812.5,690.5,808,689.6"/>
			<path class="st15" d="M808,689.6c-4.5-1-230.9-53.3-230.9-53.3s-31.3-5.8-38.3-42.2c0,0-5-57.7-5-140c0-82.4,5.5-157.3,5.5-157.3
				s3.5-28.6,38.3-39.2l83.8-19.9c0,0,12.4-1,12.9-16.5v-70c0,0-0.7-48.1-59.9-56.8L500.3,92v0l-0.9,0l-0.9,0v0l-114.1,2.4
				c-59.2,8.7-59.9,56.8-59.9,56.8v70c0.5,15.5,9.7,16.5,9.7,16.5l87,19.9c34.8,10.7,38.3,39.2,38.3,39.2s5.5,75,5.5,157.3
				c0,82.4-5,140-5,140c-7,36.3-38.3,42.2-38.3,42.2s-222.9,52.3-227.3,53.3c-4.5,1-9.9,2.9-10.9,10.2v19.7
				c1,8.2,11.4,11.1,11.4,11.1H496h6.8h304.7c0,0,10.4-2.9,11.4-11.1v-19.7C817.9,692.5,812.5,690.5,808,689.6z"/>
		</g>
		<line class="st15" x1="500.1" y1="275.4" x2="751.3" y2="217.1"/>
		<line class="st15" x1="502.3" y1="617.8" x2="583.1" y2="637.7"/>
		<line class="st15" x1="123.3" y1="276.1" x2="761.7" y2="276.1"/>
		<line class="st15" x1="675" y1="199.3" x2="675.5" y2="32.3"/>
		<line class="st15" x1="324.6" y1="163.5" x2="324.9" y2="32.3"/>
		<line class="st15" x1="67.8" y1="92.3" x2="675.5" y2="92.3"/>
		<line class="st15" x1="67.8" y1="730.9" x2="819.4" y2="730.9"/>
		<line class="st15" x1="183.5" y1="712.8" x2="183.5" y2="788.1"/>
		<g>
			<line class="st15" x1="818.9" y1="719.6" x2="818.9" y2="793.1"/>
		</g>
		<line class="st15" x1="764.5" y1="617.8" x2="121.5" y2="617.8"/>
		<line class="st15" x1="302.7" y1="446.2" x2="465.4" y2="446.2"/>
		<g>
			<path class="st6" d="M313.5,426.9l0,1.1l-5.5,11.3l-1.7,0l5.5-11v0l-6.1,0l0-1.4L313.5,426.9z"/>
		</g>
		<g>
			<path class="st6" d="M315.3,438.3c0-0.7,0.5-1.2,1.2-1.2c0.7,0,1.1,0.5,1.1,1.2c0,0.7-0.4,1.2-1.2,1.2
				C315.8,439.5,315.3,439,315.3,438.3z"/>
			<path class="st6" d="M326.6,428.4l-4.7,0l-0.5,3.2c0.3,0,0.6-0.1,1-0.1c1,0,1.9,0.2,2.7,0.7c1,0.6,1.8,1.6,1.8,3.2
				c0,2.4-2,4.2-4.7,4.2c-1.4,0-2.5-0.4-3.1-0.8l0.4-1.3c0.5,0.3,1.5,0.7,2.7,0.7c1.6,0,3-1,3-2.7c0-1.6-1.1-2.8-3.6-2.8
				c-0.7,0-1.3,0.1-1.7,0.1l0.8-6l6,0L326.6,428.4z"/>
		</g>
		<g>
			<path class="st6" d="M334.2,439.4l0-3.4l-5.8,0l0-1.1l5.6-7.9l1.8,0l0,7.7l1.7,0l0,1.3l-1.7,0l0,3.4L334.2,439.4z M334.2,434.7
				l0-4.2c0-0.7,0-1.3,0.1-2h-0.1c-0.4,0.7-0.7,1.3-1,1.8l-3.1,4.2v0L334.2,434.7z"/>
		</g>
		<g>
			<path class="st6" d="M347.1,426.2c-1.4,1.9-2.4,4.3-2.5,7.8c0,3.4,1,5.9,2.4,7.8l-1.3,0c-1.2-1.6-2.5-4.1-2.5-7.8
				c0-3.8,1.3-6.2,2.6-7.8L347.1,426.2z"/>
		</g>
		<g>
			<path class="st6" d="M352,428.7L352,428.7l-2.2,1.2l-0.3-1.3l2.7-1.4l1.4,0l-0.1,12.4l-1.6,0L352,428.7z"/>
		</g>
		<g>
			<path class="st6" d="M359.1,438.4c0.4,0,0.8,0,1.4,0c1-0.1,1.9-0.5,2.6-1.2c0.8-0.7,1.4-1.8,1.7-3.3h-0.1
				c-0.7,0.8-1.7,1.3-2.9,1.3c-2.2,0-3.7-1.7-3.7-3.8c0-2.4,1.7-4.4,4.3-4.4c2.5,0,4.1,2.1,4.1,5.3c0,2.7-0.9,4.6-2.2,5.8
				c-1,0.9-2.3,1.5-3.6,1.6c-0.6,0.1-1.1,0.1-1.5,0.1L359.1,438.4z M359.7,431.2c0,1.5,0.9,2.6,2.4,2.7c1.1,0,2-0.5,2.5-1.3
				c0.1-0.2,0.2-0.3,0.2-0.6c0-2.1-0.8-3.8-2.5-3.8C360.8,428.2,359.8,429.5,359.7,431.2z"/>
		</g>
		<g>
			<path class="st6" d="M367.1,440.4l5.4-13.8l1.3,0l-5.4,13.8L367.1,440.4z"/>
			<path class="st6" d="M381.7,428.5c-0.3,0-0.8,0-1.3,0.1c-2.6,0.4-4.1,2.3-4.4,4.4h0.1c0.6-0.8,1.6-1.4,3-1.4c2.2,0,3.7,1.6,3.7,4
				c0,2.3-1.6,4.4-4.2,4.4c-2.7,0-4.4-2.1-4.4-5.3c0-2.4,0.9-4.4,2.1-5.6c1-1,2.4-1.6,4-1.8c0.5-0.1,0.9-0.1,1.2-0.1L381.7,428.5z
				 M381.1,435.6c0-1.8-1-2.9-2.5-2.9c-1,0-2,0.6-2.4,1.5c-0.1,0.2-0.2,0.4-0.2,0.7c0,2,1,3.6,2.7,3.6
				C380.2,438.6,381.1,437.4,381.1,435.6z"/>
		</g>
		<g>
			<path class="st6" d="M389.5,439.8l0-3.4l-5.8,0l0-1.1l5.6-7.9l1.8,0l0,7.7l1.7,0l0,1.3l-1.7,0l0,3.4L389.5,439.8z M389.6,435
				l0-4.2c0-0.7,0-1.3,0.1-2h-0.1c-0.4,0.7-0.7,1.3-1,1.8l-3.1,4.2v0L389.6,435z"/>
		</g>
		<g>
			<path class="st6" d="M396,426.7l-0.4,4.6l-1,0l-0.3-4.6L396,426.7z M398.9,426.7l-0.4,4.6l-1,0l-0.3-4.6L398.9,426.7z"/>
			<path class="st6" d="M400.1,442.1c1.4-1.9,2.4-4.4,2.5-7.8c0-3.4-1-5.9-2.4-7.8l1.3,0c1.2,1.6,2.5,4,2.5,7.8
				c0,3.8-1.3,6.2-2.6,7.8L400.1,442.1z"/>
		</g>
		<line class="st15" x1="480.6" y1="446.3" x2="519.8" y2="446.3"/>
		<polygon class="st4" points="484,451.1 465.4,446.1 484,441.1 		"/>
		<polygon class="st4" points="516.4,451.1 535.1,446.1 516.4,441.1 		"/>
		<g>
			<path class="st6" d="M321,545.7c0.9,0.1,2,0.4,3.1,0.8c1.7,0.6,2.7,1.3,3.2,2.2c0.4,0.8,0.5,1.7,0.2,2.6
				c-0.6,1.6-1.9,2.3-3.4,2.3l0,0.1c0.8,0.6,1.1,1.7,0.9,3.1c-0.2,1.8-0.3,3.1-0.2,3.7l-1.6-0.6c-0.1-0.4,0-1.6,0.2-3.2
				c0.2-1.8-0.2-2.7-1.6-3.2l-1.5-0.5l-1.8,5.3l-1.6-0.5L321,545.7z M320.7,551.8l1.6,0.6c1.7,0.6,3.1,0,3.5-1.4
				c0.5-1.6-0.4-2.7-2-3.2c-0.8-0.3-1.3-0.4-1.6-0.4L320.7,551.8z"/>
		</g>
		<g>
			<path class="st6" d="M336.4,552.5c-0.3-0.1-0.7-0.3-1.2-0.3c-2.6-0.4-4.6,0.9-5.5,2.8l0.1,0c0.8-0.5,2-0.8,3.3-0.4
				c2.1,0.7,3,2.7,2.2,5c-0.7,2.2-2.9,3.6-5.3,2.8c-2.5-0.9-3.5-3.4-2.4-6.4c0.8-2.3,2.3-3.9,3.8-4.6c1.3-0.6,2.8-0.8,4.4-0.4
				c0.5,0.1,0.9,0.2,1.2,0.3L336.4,552.5z M333.6,559.1c0.6-1.7,0-3-1.5-3.5c-1-0.3-2.1,0-2.8,0.7c-0.2,0.1-0.3,0.4-0.4,0.6
				c-0.6,1.9-0.2,3.7,1.4,4.3C331.7,561.6,333.1,560.8,333.6,559.1z"/>
		</g>
		<g>
			<path class="st6" d="M335.8,563.1c0.2-0.7,0.8-1,1.5-0.8c0.6,0.2,0.9,0.8,0.7,1.5c-0.2,0.7-0.8,1-1.5,0.8
				C335.8,564.4,335.6,563.8,335.8,563.1z"/>
		</g>
		<g>
			<path class="st6" d="M340.1,563.6c0.4,0.4,1.2,1.3,2.4,1.6c2,0.7,3.1-0.4,3.4-1.4c0.5-1.7-0.7-2.9-2.2-3.4l-0.9-0.3l0.4-1.2
				l0.9,0.3c1.2,0.4,2.8,0.3,3.3-1.1c0.3-0.9,0-2-1.5-2.5c-0.9-0.3-2-0.2-2.6,0l0-1.3c0.8-0.2,2.1-0.3,3.4,0.2
				c2.3,0.8,2.9,2.5,2.4,4c-0.4,1.2-1.5,2-3.1,2l0,0c1.3,0.8,2.2,2.3,1.6,3.9c-0.6,1.9-2.7,3-5.5,2.1c-1.3-0.5-2.3-1.3-2.8-1.8
				L340.1,563.6z"/>
		</g>
		<g>
			<path class="st6" d="M359,560.4l-4.5-1.5l-1.5,2.9c0.3,0.1,0.5,0.1,1,0.3c0.9,0.3,1.7,0.8,2.3,1.5c0.7,0.8,1.2,2.1,0.6,3.6
				c-0.8,2.3-3.2,3.4-5.8,2.5c-1.3-0.4-2.2-1.2-2.7-1.7l0.8-1.1c0.4,0.5,1.2,1.1,2.3,1.5c1.5,0.5,3.1,0,3.7-1.6
				c0.5-1.5-0.1-3-2.5-3.8c-0.7-0.2-1.2-0.3-1.7-0.4l2.7-5.4l5.6,1.9L359,560.4z"/>
		</g>
		<g>
			<path class="st6" d="M369.8,561.7c-1.9,1.3-3.7,3.3-4.8,6.6c-1.1,3.2-0.9,5.9-0.2,8.1l-1.2-0.4c-0.6-1.9-1.1-4.6,0.2-8.2
				c1.2-3.6,3.3-5.5,4.9-6.6L369.8,561.7z"/>
		</g>
		<g>
			<path class="st6" d="M373.6,565.6L373.6,565.6l-2.5,0.4l0.1-1.3l3-0.5l1.4,0.5l-4,11.8l-1.5-0.5L373.6,565.6z"/>
		</g>
		<g>
			<path class="st6" d="M374.8,578.3l9.6-11.4l1.2,0.4l-9.6,11.4L374.8,578.3z"/>
		</g>
		<g>
			<path class="st6" d="M387,581.7l1.1-3.2l-5.5-1.9l0.4-1l7.8-5.7l1.7,0.6l-2.5,7.3l1.6,0.6l-0.4,1.2l-1.6-0.6l-1.1,3.2L387,581.7z
				 M388.6,577.2l1.3-3.9c0.2-0.6,0.4-1.2,0.7-1.8l-0.1,0c-0.6,0.6-1.1,1-1.6,1.4l-4.3,3l0,0L388.6,577.2z"/>
		</g>
		<g>
			<path class="st6" d="M397.4,571.4l-1.8,4.2l-1-0.3l1.2-4.4L397.4,571.4z M400.1,572.3l-1.8,4.2l-1-0.3l1.2-4.4L400.1,572.3z"/>
		</g>
		<g>
			<path class="st6" d="M396.3,587.3c1.9-1.4,3.7-3.4,4.8-6.6c1.1-3.2,0.9-5.9,0.2-8.1l1.2,0.4c0.6,1.9,1.1,4.6-0.2,8.2
				c-1.2,3.5-3.2,5.4-4.9,6.6L396.3,587.3z"/>
		</g>
		<line class="st15" x1="313.6" y1="562.6" x2="442.9" y2="606.5"/>
		<polygon class="st4" points="439.1,609.3 454.5,610.3 441.7,601.7 		"/>
		<g>
			<path class="st6" d="M762.2,240.6L762.2,240.6l-2.2,1.2l-0.3-1.3l2.7-1.5h1.4v12.4h-1.6V240.6z"/>
			<path class="st6" d="M768.8,249.5c0.5,0.3,1.6,0.8,2.8,0.8c2.2,0,2.8-1.4,2.8-2.4c0-1.7-1.6-2.5-3.2-2.5h-0.9v-1.3h0.9
				c1.2,0,2.8-0.6,2.8-2.1c0-1-0.6-1.9-2.2-1.9c-1,0-2,0.4-2.5,0.8l-0.4-1.2c0.7-0.5,1.9-1,3.3-1c2.4,0,3.6,1.5,3.6,3
				c0,1.3-0.8,2.4-2.3,2.9v0c1.5,0.3,2.8,1.5,2.8,3.2c0,2-1.5,3.7-4.5,3.7c-1.4,0-2.6-0.4-3.2-0.8L768.8,249.5z"/>
			<path class="st6" d="M783,240.8c0,1.5-1.2,2.6-2.6,2.6c-1.5,0-2.5-1.1-2.5-2.5c0-1.5,1.1-2.6,2.5-2.6
				C782,238.3,783,239.5,783,240.8z M778.9,240.9c0,0.9,0.7,1.6,1.5,1.6c0.9,0,1.5-0.7,1.5-1.6c0-0.7-0.4-1.6-1.5-1.6
				C779.4,239.2,778.9,240.1,778.9,240.9z"/>
		</g>
		<g>
			<path class="st15" d="M741.5,271.4c0,0,8.9-9.6,8.9-20c0-12.5-5.8-20.3-5.8-20.3"/>
		</g>
		<polygon class="st6" points="751.1,265.7 738.2,276.1 743.9,260.5 		"/>
		<polygon class="st6" points="742.9,236.2 735.8,221.2 749.6,230.4 		"/>
		<g>
			<path class="st6" d="M185.2,276.8c0.7-0.5,1.7-1.1,2.8-1.6c1.6-0.8,2.8-0.9,3.8-0.6c0.8,0.2,1.5,0.9,2,1.8c0.7,1.5,0.2,3-0.8,4
				l0,0.1c1-0.1,2,0.5,2.8,1.6c1.1,1.5,1.9,2.5,2.4,2.8l-1.6,0.7c-0.3-0.2-1.1-1.1-2.1-2.4c-1.1-1.5-2-1.8-3.4-1.2l-1.4,0.7l2.4,5.1
				l-1.5,0.7L185.2,276.8z M189.2,281.4l1.5-0.7c1.6-0.8,2.2-2.1,1.6-3.4c-0.7-1.5-2.1-1.7-3.7-0.9c-0.7,0.3-1.2,0.7-1.4,0.8
				L189.2,281.4z"/>
		</g>
		<g>
			<path class="st6" d="M198.1,272.8L198.1,272.8l-1.5,2l-0.8-1l1.8-2.5l1.3-0.6l5.3,11.3l-1.5,0.7L198.1,272.8z"/>
		</g>
		<g>
			<path class="st6" d="M208,279.1c-0.3-0.6-0.1-1.3,0.5-1.6c0.6-0.3,1.2,0,1.5,0.6c0.3,0.6,0.1,1.3-0.5,1.6
				C208.9,280,208.3,279.7,208,279.1z"/>
		</g>
		<g>
			<path class="st6" d="M213.5,265.2c-0.3,0.1-0.7,0.3-1.1,0.6c-2.2,1.5-2.7,3.9-2.1,5.8l0.1,0c0.2-1,0.9-2,2.1-2.6
				c2-0.9,4.1-0.1,5.1,2.1c1,2.1,0.4,4.6-1.9,5.7c-2.4,1.1-4.9,0-6.2-2.9c-1-2.2-1.1-4.3-0.5-6c0.5-1.4,1.5-2.5,2.8-3.3
				c0.4-0.3,0.8-0.5,1.1-0.6L213.5,265.2z M216.1,271.9c-0.8-1.6-2.1-2.2-3.5-1.5c-0.9,0.4-1.5,1.4-1.5,2.4c0,0.2,0,0.5,0.1,0.8
				c0.9,1.8,2.4,2.8,4,2.1C216.5,275,216.9,273.5,216.1,271.9z"/>
		</g>
		<g>
			<path class="st6" d="M222.6,258.7c-0.5,2.3-0.3,5,1.1,8.1c1.4,3.1,3.4,4.9,5.5,6l-1.2,0.6c-1.8-0.9-4-2.6-5.6-6
				c-1.6-3.4-1.5-6.2-1-8.2L222.6,258.7z"/>
		</g>
		<g>
			<path class="st6" d="M228.1,258.8L228.1,258.8l-1.5,2l-0.8-1l1.8-2.5l1.3-0.6l5.3,11.3l-1.5,0.7L228.1,258.8z"/>
		</g>
		<g>
			<path class="st6" d="M237.8,267.1l-1-14.8l1.2-0.6l1,14.8L237.8,267.1z"/>
		</g>
		<g>
			<path class="st6" d="M242.9,251.8L242.9,251.8l-1.5,2l-0.8-1l1.8-2.5l1.3-0.6L249,261l-1.5,0.7L242.9,251.8z"/>
		</g>
		<g>
			<path class="st6" d="M254.7,245.9c-0.3,0.1-0.7,0.3-1.1,0.6c-2.2,1.5-2.7,3.9-2.1,5.8l0.1,0c0.2-1,0.9-2,2.1-2.6
				c2-0.9,4.1-0.1,5.1,2.1c1,2.1,0.4,4.6-1.9,5.7c-2.4,1.1-4.9,0-6.2-2.9c-1-2.2-1.1-4.3-0.5-6c0.5-1.4,1.5-2.5,2.8-3.3
				c0.4-0.3,0.8-0.5,1.1-0.6L254.7,245.9z M257.3,252.6c-0.8-1.6-2.1-2.2-3.5-1.5c-0.9,0.4-1.5,1.4-1.5,2.4c0,0.2,0,0.5,0.1,0.8
				c0.9,1.8,2.4,2.8,4,2.1C257.7,255.7,258.1,254.2,257.3,252.6z"/>
		</g>
		<g>
			<path class="st6" d="M258,242.3l1.6,4.3l-0.9,0.4l-2.2-4L258,242.3z M260.6,241.1l1.6,4.3l-0.9,0.4l-2.2-4L260.6,241.1z"/>
		</g>
		<g>
			<path class="st6" d="M268.3,254.5c0.4-2.3,0.3-5-1.1-8.1c-1.4-3.1-3.4-4.9-5.5-6l1.2-0.5c1.8,0.9,4,2.6,5.6,6
				c1.6,3.4,1.5,6.1,1,8.1L268.3,254.5z"/>
		</g>
		<line class="st15" x1="191.7" y1="294.2" x2="315.2" y2="236"/>
		<polygon class="st4" points="314.4,240.6 326.2,230.6 311,233.4 		"/>
		<line class="st15" x1="500.1" y1="77.6" x2="500.1" y2="81.8"/>
		<line class="st16" x1="500.1" y1="90.2" x2="500.1" y2="741.9"/>
		<line class="st15" x1="500.1" y1="746.1" x2="500.1" y2="750.4"/>
		<g>
			<path class="st4" d="M508.9,750.4v-4.9l-4.5-6.7h1.9l2.3,3.5c0.4,0.7,0.8,1.3,1.2,2c0.4-0.6,0.8-1.3,1.3-2.1l2.3-3.4h1.8
				l-4.7,6.7v4.9H508.9z"/>
			<path class="st4" d="M508.9,89.3v-4.9l-4.5-6.7h1.9l2.3,3.5c0.4,0.7,0.8,1.3,1.2,2c0.4-0.6,0.8-1.3,1.3-2.1l2.3-3.4h1.8l-4.7,6.7
				v4.9H508.9z"/>
		</g>
		<line class="st17" x1="198.7" y1="779.8" x2="803.7" y2="779.8"/>
		<polygon class="st4" points="202.1,784.5 183.5,779.6 202.1,774.6 		"/>
		<polygon class="st4" points="800.3,784.5 818.9,779.6 800.3,774.6 		"/>
		<g>
			<path class="st6" d="M456.3,762.3c-0.3,0-0.8,0-1.3,0.1c-2.6,0.4-4,2.4-4.3,4.4h0.1c0.6-0.8,1.6-1.4,3-1.4c2.2,0,3.8,1.6,3.8,4
				c0,2.3-1.5,4.4-4.1,4.4c-2.7,0-4.4-2.1-4.4-5.3c0-2.4,0.9-4.4,2.1-5.6c1-1,2.4-1.6,4-1.8c0.5-0.1,0.9-0.1,1.2-0.1V762.3z
				 M455.8,769.4c0-1.8-1-2.9-2.6-2.9c-1,0-2,0.6-2.4,1.5c-0.1,0.2-0.2,0.4-0.2,0.7c0,2,1,3.6,2.7,3.6
				C454.8,772.4,455.8,771.2,455.8,769.4z"/>
			<path class="st6" d="M460,772.3c0.4,0,0.8,0,1.4-0.1c1-0.1,1.9-0.5,2.6-1.2c0.8-0.7,1.4-1.8,1.6-3.3h-0.1
				c-0.7,0.8-1.7,1.3-2.9,1.3c-2.2,0-3.7-1.7-3.7-3.8c0-2.4,1.7-4.4,4.2-4.4s4.1,2.1,4.1,5.2c0,2.7-0.9,4.6-2.1,5.8
				c-1,0.9-2.3,1.5-3.6,1.7c-0.6,0.1-1.1,0.1-1.5,0.1V772.3z M460.6,765.2c0,1.5,0.9,2.6,2.4,2.6c1.1,0,2-0.6,2.4-1.3
				c0.1-0.2,0.2-0.3,0.2-0.6c0-2.1-0.8-3.8-2.5-3.8C461.6,762.1,460.6,763.4,460.6,765.2z"/>
			<path class="st6" d="M469,772.5c0-0.7,0.5-1.2,1.1-1.2c0.7,0,1.1,0.5,1.1,1.2c0,0.7-0.4,1.2-1.1,1.2
				C469.4,773.7,469,773.2,469,772.5z"/>
			<path class="st6" d="M472.6,770.4c0-1.6,0.9-2.7,2.5-3.3l0-0.1c-1.4-0.7-2-1.7-2-2.8c0-2,1.7-3.3,3.8-3.3c2.4,0,3.6,1.5,3.6,3.1
				c0,1.1-0.5,2.2-2,2.9v0.1c1.5,0.6,2.5,1.7,2.5,3.2c0,2.2-1.9,3.6-4.2,3.6C474.2,773.7,472.6,772.2,472.6,770.4z M479.3,770.3
				c0-1.5-1.1-2.2-2.7-2.7c-1.5,0.4-2.2,1.4-2.2,2.6c-0.1,1.3,0.9,2.4,2.5,2.4C478.4,772.5,479.3,771.6,479.3,770.3z M474.7,764.1
				c0,1.2,0.9,1.9,2.4,2.3c1.1-0.4,1.9-1.1,1.9-2.3c0-1-0.6-2-2.1-2C475.5,762.1,474.7,763,474.7,764.1z"/>
			<path class="st6" d="M490,762.5h-4.7l-0.5,3.2c0.3,0,0.6-0.1,1-0.1c1,0,1.9,0.2,2.7,0.7c1,0.6,1.8,1.6,1.8,3.2
				c0,2.4-1.9,4.2-4.6,4.2c-1.4,0-2.5-0.4-3.1-0.8l0.4-1.3c0.5,0.3,1.5,0.7,2.7,0.7c1.6,0,2.9-1,2.9-2.7c0-1.6-1.1-2.8-3.6-2.8
				c-0.7,0-1.3,0.1-1.7,0.1l0.8-6h6V762.5z"/>
			<path class="st6" d="M500.7,760.2c-1.4,1.9-2.4,4.4-2.4,7.8c0,3.4,1.1,5.9,2.4,7.8h-1.3c-1.2-1.6-2.5-4-2.5-7.8
				c0-3.8,1.3-6.2,2.5-7.8H500.7z"/>
			<path class="st6" d="M501.9,773.5v-1l1.3-1.3c3.2-3,4.6-4.6,4.6-6.5c0-1.3-0.6-2.4-2.5-2.4c-1.1,0-2.1,0.6-2.6,1.1l-0.5-1.2
				c0.9-0.7,2.1-1.3,3.5-1.3c2.7,0,3.8,1.8,3.8,3.6c0,2.3-1.7,4.2-4.3,6.7l-1,0.9v0h5.6v1.4H501.9z"/>
			<path class="st6" d="M516.2,771.6c0.5,0.3,1.6,0.8,2.8,0.8c2.2,0,2.8-1.4,2.8-2.4c0-1.7-1.6-2.5-3.2-2.5h-0.9v-1.3h0.9
				c1.2,0,2.8-0.6,2.8-2.1c0-1-0.6-1.9-2.2-1.9c-1,0-2,0.4-2.5,0.8l-0.4-1.2c0.7-0.5,1.9-1,3.3-1c2.4,0,3.6,1.5,3.6,3
				c0,1.3-0.8,2.4-2.3,2.9v0c1.5,0.3,2.8,1.5,2.8,3.2c0,2-1.5,3.7-4.5,3.7c-1.4,0-2.6-0.4-3.2-0.8L516.2,771.6z"/>
			<path class="st6" d="M524.7,774.3l5.3-13.9h1.3l-5.4,13.9H524.7z"/>
			<path class="st6" d="M537.4,773.5v-3.4h-5.8V769l5.5-7.9h1.8v7.7h1.7v1.3h-1.7v3.4H537.4z M537.4,768.8v-4.2c0-0.7,0-1.3,0.1-2
				h-0.1c-0.4,0.7-0.7,1.3-1,1.8l-3,4.2v0H537.4z"/>
			<path class="st6" d="M543.7,760.4l-0.3,4.6h-1l-0.3-4.6H543.7z M546.6,760.4l-0.3,4.6h-1l-0.3-4.6H546.6z"/>
			<path class="st6" d="M547.9,775.8c1.4-1.9,2.4-4.4,2.4-7.8c0-3.4-1-5.9-2.4-7.8h1.3c1.2,1.6,2.5,4,2.5,7.8c0,3.8-1.3,6.2-2.5,7.8
				H547.9z"/>
		</g>
		<g>
			<path class="st6" d="M122.1,722.1L122.1,722.1l1.2,2.2l-1.3,0.3l-1.5-2.7v-1.4H133v1.6H122.1z"/>
			<path class="st6" d="M133,715.9h-1l-1.3-1.3c-3-3.2-4.6-4.6-6.5-4.6c-1.3,0-2.4,0.6-2.4,2.5c0,1.1,0.6,2.1,1.1,2.6l-1.2,0.5
				c-0.7-0.9-1.3-2.1-1.3-3.5c0-2.7,1.8-3.8,3.6-3.8c2.3,0,4.2,1.7,6.7,4.3l0.9,1h0V708h1.4V715.9z"/>
			<path class="st6" d="M132,706c-0.7,0-1.2-0.5-1.2-1.1c0-0.7,0.5-1.1,1.2-1.1c0.7,0,1.2,0.4,1.2,1.1
				C133.2,705.5,132.6,706,132,706z"/>
			<path class="st6" d="M131,701.7c0.3-0.5,0.8-1.6,0.8-2.8c0-2.2-1.4-2.8-2.4-2.8c-1.7,0-2.5,1.6-2.5,3.2v0.9h-1.3v-0.9
				c0-1.2-0.6-2.8-2.1-2.8c-1,0-1.9,0.6-1.9,2.2c0,1,0.4,2,0.8,2.5l-1.2,0.4c-0.5-0.7-1-1.9-1-3.3c0-2.4,1.5-3.6,3-3.6
				c1.3,0,2.4,0.8,2.9,2.3h0c0.3-1.5,1.5-2.8,3.2-2.8c2,0,3.7,1.5,3.7,4.5c0,1.4-0.4,2.6-0.8,3.2L131,701.7z"/>
			<path class="st6" d="M119.7,684.1c1.9,1.4,4.4,2.4,7.8,2.4c3.4,0,5.9-1.1,7.8-2.4v1.3c-1.6,1.2-4,2.5-7.8,2.5
				c-3.8,0-6.2-1.3-7.8-2.5V684.1z"/>
			<path class="st6" d="M131,682.4c0.3-0.5,0.8-1.6,0.8-2.8c0-2.2-1.4-2.8-2.4-2.8c-1.7,0-2.5,1.6-2.5,3.2v0.9h-1.3v-0.9
				c0-1.2-0.6-2.8-2.1-2.8c-1,0-1.9,0.6-1.9,2.2c0,1,0.4,2,0.8,2.5l-1.2,0.4c-0.5-0.7-1-1.9-1-3.3c0-2.4,1.5-3.6,3-3.6
				c1.3,0,2.4,0.8,2.9,2.3h0c0.3-1.5,1.5-2.8,3.2-2.8c2,0,3.7,1.5,3.7,4.5c0,1.4-0.4,2.6-0.8,3.2L131,682.4z"/>
			<path class="st6" d="M122.1,665.3L122.1,665.3l1.2,2.2l-1.3,0.3l-1.5-2.7v-1.4H133v1.6H122.1z"/>
			<path class="st6" d="M133.7,660l-13.9-5.3v-1.3l13.9,5.4V660z"/>
			<path class="st6" d="M121.7,645.5c0,0.3,0,0.8,0.1,1.3c0.4,2.6,2.4,4,4.4,4.3V651c-0.8-0.6-1.4-1.6-1.4-3c0-2.2,1.6-3.8,4-3.8
				c2.3,0,4.4,1.5,4.4,4.1c0,2.7-2.1,4.4-5.3,4.4c-2.4,0-4.4-0.9-5.6-2.1c-1-1-1.6-2.4-1.8-4c-0.1-0.5-0.1-0.9-0.1-1.2H121.7z
				 M128.9,646c-1.8,0-2.9,1-2.9,2.6c0,1,0.6,2,1.5,2.4c0.2,0.1,0.4,0.2,0.7,0.2c2,0,3.6-1,3.6-2.7C131.9,646.9,130.7,646,128.9,646
				z"/>
			<path class="st6" d="M133,637.6h-3.4v5.8h-1.1l-7.9-5.5V636h7.7v-1.7h1.3v1.7h3.4V637.6z M128.2,637.6h-4.2c-0.7,0-1.3,0-2-0.1
				v0.1c0.7,0.4,1.3,0.7,1.8,1l4.2,3h0V637.6z"/>
			<path class="st6" d="M119.8,628.3l4.6,0.3v1l-4.6,0.3V628.3z M119.8,631.2l4.6,0.3v1l-4.6,0.3V631.2z"/>
		</g>
		<g>
			<path class="st6" d="M135.3,626.9c-1.9-1.4-4.4-2.4-7.8-2.4c-3.4,0-5.9,1-7.8,2.4v-1.3c1.6-1.2,4-2.5,7.8-2.5
				c3.8,0,6.2,1.3,7.8,2.5V626.9z"/>
		</g>
		<line class="st15" x1="144.6" y1="716.2" x2="144.6" y2="633"/>
		<polygon class="st4" points="149.4,712.8 144.4,731.5 139.4,712.8 		"/>
		<polygon class="st4" points="149.4,636.5 144.4,617.8 139.4,636.5 		"/>
		<g>
			<path class="st6" d="M121.3,234.4L121.3,234.4l1.2,2.2l-1.3,0.3l-1.5-2.7v-1.4h12.4v1.6H121.3z"/>
			<path class="st6" d="M131,227.3c0-0.4,0-0.8-0.1-1.4c-0.1-1-0.5-1.9-1.2-2.6c-0.7-0.8-1.8-1.4-3.3-1.6v0.1
				c0.8,0.7,1.3,1.7,1.3,2.9c0,2.2-1.7,3.7-3.8,3.7c-2.4,0-4.4-1.7-4.4-4.2s2.1-4.1,5.2-4.1c2.7,0,4.7,0.9,5.8,2.1
				c0.9,1,1.5,2.3,1.7,3.6c0.1,0.6,0.1,1.1,0.1,1.5H131z M123.8,226.7c1.5,0,2.6-0.9,2.6-2.4c0-1.1-0.6-2-1.3-2.4
				c-0.2-0.1-0.3-0.2-0.6-0.2c-2.1,0-3.8,0.8-3.8,2.5C120.8,225.6,122.1,226.7,123.8,226.7z"/>
			<path class="st6" d="M131.2,218.3c-0.7,0-1.2-0.5-1.2-1.1s0.5-1.1,1.2-1.1c0.7,0,1.2,0.4,1.2,1.1
				C132.4,217.8,131.9,218.3,131.2,218.3z"/>
			<path class="st6" d="M129,214.6c-1.6,0-2.7-0.9-3.3-2.5l-0.1,0c-0.7,1.4-1.7,2-2.8,2c-2,0-3.3-1.7-3.3-3.8c0-2.4,1.5-3.6,3.1-3.6
				c1.1,0,2.2,0.5,2.9,2h0.1c0.6-1.5,1.7-2.5,3.2-2.5c2.2,0,3.6,1.9,3.6,4.2C132.4,213.1,130.9,214.6,129,214.6z M122.7,212.6
				c1.2,0,1.9-0.9,2.3-2.4c-0.4-1.1-1.1-1.9-2.3-1.9c-1,0-2,0.6-2,2.1C120.7,211.8,121.7,212.6,122.7,212.6z M129,207.9
				c-1.5,0-2.2,1.1-2.7,2.7c0.4,1.5,1.4,2.2,2.6,2.2c1.3,0.1,2.4-0.9,2.4-2.5C131.2,208.9,130.2,207.9,129,207.9z"/>
			<path class="st6" d="M132.2,199.5h-3.4v5.8h-1.1l-7.9-5.5v-1.8h7.7v-1.7h1.3v1.7h3.4V199.5z M127.5,199.5h-4.2
				c-0.7,0-1.3,0-2-0.1v0.1c0.7,0.4,1.3,0.7,1.8,1l4.2,3h0V199.5z"/>
			<path class="st6" d="M118.9,186.6c1.9,1.4,4.4,2.4,7.8,2.4c3.4,0,5.9-1.1,7.8-2.4v1.3c-1.6,1.2-4,2.5-7.8,2.5
				c-3.8,0-6.2-1.3-7.8-2.5V186.6z"/>
			<path class="st6" d="M132.2,185.4h-1l-1.3-1.3c-3-3.2-4.6-4.6-6.5-4.6c-1.3,0-2.4,0.6-2.4,2.5c0,1.1,0.6,2.1,1.1,2.6l-1.2,0.5
				c-0.7-0.9-1.3-2.1-1.3-3.5c0-2.7,1.8-3.8,3.6-3.8c2.3,0,4.2,1.7,6.7,4.3l0.9,1h0v-5.6h1.4V185.4z"/>
			<path class="st6" d="M132.2,170.3h-3.4v5.8h-1.1l-7.9-5.5v-1.8h7.7V167h1.3v1.7h3.4V170.3z M127.5,170.3h-4.2c-0.7,0-1.3,0-2-0.1
				v0.1c0.7,0.4,1.3,0.7,1.8,1l4.2,3h0V170.3z"/>
			<path class="st6" d="M133,166.6l-13.9-5.3V160l13.9,5.4V166.6z"/>
			<path class="st6" d="M130.3,158.8c0.3-0.5,0.8-1.6,0.8-2.8c0-2.2-1.4-2.8-2.4-2.8c-1.7,0-2.5,1.6-2.5,3.2v0.9h-1.3v-0.9
				c0-1.2-0.6-2.8-2.1-2.8c-1,0-1.9,0.6-1.9,2.2c0,1,0.4,2,0.8,2.5l-1.2,0.4c-0.5-0.7-1-1.9-1-3.3c0-2.4,1.5-3.6,3-3.6
				c1.3,0,2.4,0.8,2.9,2.3h0c0.3-1.5,1.5-2.8,3.2-2.8c2,0,3.7,1.5,3.7,4.5c0,1.4-0.4,2.6-0.8,3.2L130.3,158.8z"/>
			<path class="st6" d="M132.2,149.3h-1l-1.3-1.3c-3-3.2-4.6-4.6-6.5-4.6c-1.3,0-2.4,0.6-2.4,2.5c0,1.1,0.6,2.1,1.1,2.6l-1.2,0.5
				c-0.7-0.9-1.3-2.1-1.3-3.5c0-2.7,1.8-3.8,3.6-3.8c2.3,0,4.2,1.7,6.7,4.3l0.9,1h0v-5.6h1.4V149.3z"/>
			<path class="st6" d="M119.1,134.9l4.6,0.3v1l-4.6,0.3V134.9z M119.1,137.8l4.6,0.3v1l-4.6,0.3V137.8z"/>
		</g>
		<g>
			<path class="st6" d="M134.5,133.4c-1.9-1.4-4.4-2.4-7.8-2.4c-3.4,0-5.9,1-7.8,2.4v-1.3c1.6-1.2,4-2.5,7.8-2.5
				c3.8,0,6.2,1.3,7.8,2.5V133.4z"/>
		</g>
		<line class="st15" x1="138.8" y1="261.9" x2="138.8" y2="107.2"/>
		<polygon class="st4" points="143.6,258.5 138.6,277.2 133.6,258.5 		"/>
		<polygon class="st4" points="143.6,110.6 138.6,92 133.6,110.6 		"/>
		<g>
			<path class="st6" d="M67,458.8c0,0.3,0,0.8,0.1,1.3c0.4,2.6,2.4,4,4.4,4.3v-0.1c-0.8-0.6-1.4-1.6-1.4-3c0-2.2,1.6-3.8,4-3.8
				c2.3,0,4.4,1.5,4.4,4.1c0,2.7-2.1,4.4-5.3,4.4c-2.4,0-4.4-0.9-5.6-2.1c-1-1-1.6-2.4-1.8-4c-0.1-0.5-0.1-0.9-0.1-1.2H67z
				 M74.2,459.3c-1.8,0-2.9,1-2.9,2.6c0,1,0.6,2,1.5,2.4c0.2,0.1,0.4,0.2,0.7,0.2c2,0,3.6-1,3.6-2.7
				C77.1,460.3,75.9,459.3,74.2,459.3z"/>
			<path class="st6" d="M77,455.1c0-0.4,0-0.8-0.1-1.4c-0.1-1-0.5-1.9-1.2-2.6c-0.7-0.8-1.8-1.4-3.3-1.6v0.1
				c0.8,0.7,1.3,1.7,1.3,2.9c0,2.2-1.7,3.7-3.8,3.7c-2.4,0-4.4-1.7-4.4-4.2s2.1-4.1,5.2-4.1c2.7,0,4.7,0.9,5.8,2.1
				c0.9,1,1.5,2.3,1.7,3.6c0.1,0.6,0.1,1.1,0.1,1.5H77z M69.9,454.5c1.5,0,2.6-0.9,2.6-2.4c0-1.1-0.6-2-1.3-2.4
				c-0.2-0.1-0.3-0.2-0.6-0.2c-2.1,0-3.8,0.8-3.8,2.5C66.9,453.5,68.1,454.5,69.9,454.5z"/>
			<path class="st6" d="M77.2,446.2c-0.7,0-1.2-0.5-1.2-1.1c0-0.7,0.5-1.1,1.2-1.1c0.7,0,1.2,0.4,1.2,1.1
				C78.4,445.7,77.9,446.2,77.2,446.2z"/>
			<path class="st6" d="M75.1,442.5c-1.6,0-2.7-0.9-3.3-2.5l-0.1,0c-0.7,1.4-1.7,2-2.8,2c-2,0-3.3-1.7-3.3-3.8
				c0-2.4,1.5-3.6,3.1-3.6c1.1,0,2.2,0.5,2.9,2h0.1c0.6-1.5,1.7-2.5,3.2-2.5c2.2,0,3.6,1.9,3.6,4.2
				C78.4,440.9,76.9,442.5,75.1,442.5z M68.8,440.4c1.2,0,1.9-0.9,2.3-2.4c-0.4-1.1-1.1-1.9-2.3-1.9c-1,0-2,0.6-2,2.1
				C66.8,439.7,67.7,440.4,68.8,440.4z M75,435.8c-1.5,0-2.2,1.1-2.7,2.7c0.4,1.5,1.4,2.2,2.6,2.2c1.3,0.1,2.4-0.9,2.4-2.5
				C77.2,436.8,76.3,435.8,75,435.8z"/>
			<path class="st6" d="M67.2,425.1v4.7l3.2,0.5c0-0.3-0.1-0.6-0.1-1c0-1,0.2-1.9,0.7-2.7c0.6-1,1.6-1.8,3.2-1.8
				c2.4,0,4.2,1.9,4.2,4.6c0,1.4-0.4,2.5-0.8,3.1l-1.3-0.4c0.3-0.5,0.7-1.5,0.7-2.7c0-1.6-1-2.9-2.7-2.9c-1.6,0-2.8,1.1-2.8,3.6
				c0,0.7,0.1,1.3,0.1,1.7l-6-0.8v-6H67.2z"/>
			<path class="st6" d="M64.9,414.5c1.9,1.4,4.4,2.4,7.8,2.4c3.4,0,5.9-1.1,7.8-2.4v1.3c-1.6,1.2-4,2.5-7.8,2.5
				c-3.8,0-6.2-1.3-7.8-2.5V414.5z"/>
			<path class="st6" d="M78.2,413.2h-1l-1.3-1.3c-3-3.2-4.6-4.6-6.5-4.6c-1.3,0-2.4,0.6-2.4,2.5c0,1.1,0.6,2.1,1.1,2.6l-1.2,0.5
				c-0.7-0.9-1.3-2.1-1.3-3.5c0-2.7,1.8-3.8,3.6-3.8c2.3,0,4.2,1.7,6.7,4.3l0.9,1h0v-5.6h1.4V413.2z"/>
			<path class="st6" d="M76.3,398.9c0.3-0.5,0.8-1.6,0.8-2.8c0-2.2-1.4-2.8-2.4-2.8c-1.7,0-2.5,1.6-2.5,3.2v0.9h-1.3v-0.9
				c0-1.2-0.6-2.8-2.1-2.8c-1,0-1.9,0.6-1.9,2.2c0,1,0.4,2,0.8,2.5l-1.2,0.4c-0.5-0.7-1-1.9-1-3.3c0-2.4,1.5-3.6,3-3.6
				c1.3,0,2.4,0.8,2.9,2.3h0c0.3-1.5,1.5-2.8,3.2-2.8c2,0,3.7,1.5,3.7,4.5c0,1.4-0.4,2.6-0.8,3.2L76.3,398.9z"/>
			<path class="st6" d="M79,390.4l-13.9-5.3v-1.3l13.9,5.4V390.4z"/>
			<path class="st6" d="M78.2,377.8h-3.4v5.8h-1.1l-7.9-5.5v-1.8h7.7v-1.7h1.3v1.7h3.4V377.8z M73.5,377.8h-4.2c-0.7,0-1.3,0-2-0.1
				v0.1c0.7,0.4,1.3,0.7,1.8,1l4.2,3h0V377.8z"/>
			<path class="st6" d="M65.1,368.5l4.6,0.3v1l-4.6,0.3V368.5z M65.1,371.4l4.6,0.3v1l-4.6,0.3V371.4z"/>
			<path class="st6" d="M80.5,367.2c-1.9-1.4-4.4-2.4-7.8-2.4c-3.4,0-5.9,1-7.8,2.4v-1.3c1.6-1.2,4-2.5,7.8-2.5
				c3.8,0,6.2,1.3,7.8,2.5V367.2z"/>
		</g>
		<line class="st15" x1="84.8" y1="715.4" x2="84.8" y2="107.2"/>
		<polygon class="st4" points="89.6,712 84.6,730.6 79.6,712 		"/>
		<polygon class="st4" points="89.6,110.6 84.6,92 79.6,110.6 		"/>
		<g>
			<path class="st6" d="M238.5,8.5c0.8,0.4,1.7,1.1,2.6,1.8c1.4,1.1,2,2.1,2.2,3.2c0.1,0.9-0.2,1.8-0.8,2.5c-1.1,1.3-2.6,1.5-4,1
				l0,0c0.5,0.9,0.4,2-0.2,3.2c-0.8,1.7-1.4,2.8-1.5,3.4l-1.3-1.1c0.1-0.4,0.6-1.4,1.3-2.9c0.8-1.6,0.7-2.6-0.4-3.6l-1.2-1l-3.6,4.3
				l-1.3-1.1L238.5,8.5z M236,14.1l1.3,1.1c1.4,1.1,2.9,1.1,3.8,0c1.1-1.3,0.6-2.6-0.7-3.8c-0.6-0.5-1.1-0.8-1.4-0.9L236,14.1z"/>
			<path class="st6" d="M250.5,20.4c-0.3-0.2-0.6-0.5-1-0.8c-2.3-1.4-4.6-0.8-6.2,0.6l0,0c1-0.2,2.2-0.1,3.2,0.8
				c1.7,1.4,1.9,3.6,0.3,5.5c-1.5,1.7-4,2.4-6,0.7c-2-1.7-2.1-4.4,0-6.9c1.6-1.9,3.5-2.8,5.2-3c1.4-0.1,2.9,0.3,4.2,1.1
				c0.4,0.3,0.8,0.5,1,0.7L250.5,20.4z M245.5,25.6c1.1-1.4,1-2.8-0.1-3.8c-0.8-0.6-1.9-0.8-2.8-0.4c-0.2,0.1-0.4,0.2-0.6,0.5
				c-1.3,1.6-1.5,3.4-0.2,4.5C242.8,27.3,244.4,27,245.5,25.6z"/>
			<path class="st6" d="M246.1,30.1c0.5-0.5,1.1-0.6,1.7-0.2c0.5,0.4,0.5,1.1,0.1,1.6c-0.4,0.5-1.1,0.6-1.7,0.2
				C245.7,31.3,245.6,30.6,246.1,30.1z"/>
			<path class="st6" d="M249.9,32.1c0.2,0.5,0.7,1.6,1.6,2.4c1.7,1.4,3.1,0.8,3.7-0.1c1.1-1.4,0.4-2.9-0.9-4l-0.7-0.6l0.8-1l0.7,0.6
				c0.9,0.8,2.5,1.3,3.5,0.2c0.6-0.8,0.7-1.8-0.5-2.8c-0.8-0.6-1.8-0.9-2.4-1l0.4-1.2c0.8,0,2.1,0.5,3.1,1.3
				c1.9,1.6,1.8,3.4,0.8,4.6c-0.8,1-2.1,1.3-3.6,0.8l0,0c1,1.2,1.2,2.9,0.1,4.2c-1.3,1.5-3.6,1.9-5.9,0c-1.1-0.9-1.7-2-1.9-2.7
				L249.9,32.1z"/>
			<path class="st6" d="M268.7,35.9l-3.6-3l-2.4,2.1c0.2,0.2,0.5,0.3,0.8,0.6c0.7,0.6,1.3,1.4,1.6,2.2c0.4,1.1,0.3,2.4-0.7,3.6
				c-1.6,1.9-4.2,2-6.3,0.3c-1-0.9-1.7-1.9-1.9-2.6l1.1-0.7c0.2,0.6,0.7,1.5,1.6,2.2c1.2,1,2.9,1.1,4-0.2c1-1.2,0.9-2.8-1-4.4
				c-0.5-0.5-1-0.7-1.4-1L265,31l4.6,3.8L268.7,35.9z"/>
			<path class="st6" d="M278.3,40.9c-2.3,0.5-4.6,1.8-6.9,4.5c-2.2,2.6-2.9,5.2-3.1,7.5l-1-0.8c0.1-2,0.7-4.7,3-7.6
				c2.4-2.9,5-3.9,6.9-4.4L278.3,40.9z"/>
			<path class="st6" d="M280.5,45.9L280.5,45.9l-2.4-0.5l0.6-1.2l3,0.6l1.1,0.9l-8,9.6l-1.2-1L280.5,45.9z"/>
			<path class="st6" d="M277.1,58.3l13-7.2l1,0.8l-13,7.2L277.1,58.3z"/>
			<path class="st6" d="M287.3,65.8l2.2-2.6l-4.4-3.7l0.7-0.9l9.3-2.5l1.4,1.2l-4.9,5.9l1.3,1.1l-0.8,1l-1.3-1.1l-2.2,2.6
				L287.3,65.8z M290.4,62.1L293,59c0.4-0.5,0.8-1,1.3-1.5l0,0c-0.8,0.3-1.3,0.5-2,0.8l-5,1.3l0,0L290.4,62.1z"/>
			<path class="st6" d="M300.6,59.8l-3.2,3.3l-0.8-0.7l2.7-3.7L300.6,59.8z M302.8,61.6l-3.2,3.3l-0.8-0.6l2.7-3.7L302.8,61.6z"/>
		</g>
		<g>
			<path class="st6" d="M294.1,74.4c2.3-0.6,4.7-1.8,6.9-4.5c2.2-2.6,3-5.2,3.1-7.5l1,0.8c-0.1,2-0.6,4.7-3.1,7.6
				c-2.4,2.9-4.9,3.9-6.9,4.4L294.1,74.4z"/>
		</g>
		<line class="st15" x1="225.5" y1="21.7" x2="330.7" y2="108.8"/>
		<polygon class="st4" points="326.2,110 340.3,116.4 331.3,103.8 		"/>
		<line class="st15" x1="340.1" y1="44" x2="660.2" y2="44"/>
		<polygon class="st4" points="343.5,48.8 324.9,43.8 343.5,38.8 		"/>
		<polygon class="st4" points="656.8,48.8 675.5,43.8 656.8,38.8 		"/>
		<g>
			<path class="st6" d="M760.2,637.2L760.2,637.2l-2.2,1.2l-0.3-1.3l2.7-1.5h1.4v12.4h-1.6V637.2z"/>
			<path class="st6" d="M766.8,646.1c0.5,0.3,1.6,0.8,2.8,0.8c2.2,0,2.8-1.4,2.8-2.4c0-1.7-1.6-2.5-3.2-2.5h-0.9v-1.3h0.9
				c1.2,0,2.8-0.6,2.8-2.1c0-1-0.6-1.9-2.2-1.9c-1,0-2,0.4-2.5,0.8l-0.4-1.2c0.7-0.5,1.9-1,3.3-1c2.4,0,3.6,1.5,3.6,3
				c0,1.3-0.8,2.4-2.3,2.9v0c1.5,0.3,2.8,1.5,2.8,3.2c0,2-1.5,3.7-4.5,3.7c-1.4,0-2.6-0.4-3.2-0.8L766.8,646.1z"/>
			<path class="st6" d="M780.9,637.4c0,1.6-1.2,2.6-2.6,2.6c-1.5,0-2.5-1.1-2.5-2.5c0-1.5,1.1-2.6,2.5-2.6
				C780,635,780.9,636.1,780.9,637.4z M776.9,637.5c0,0.9,0.7,1.6,1.5,1.6c0.9,0,1.5-0.7,1.5-1.6c0-0.7-0.4-1.6-1.5-1.6
				C777.4,635.9,776.9,636.7,776.9,637.5z"/>
		</g>
		<g>
			<path class="st15" d="M739.5,668.1c0,0,8.9-9.6,8.9-20c0-12.5-5.8-20.3-5.8-20.3"/>
		</g>
		<polygon class="st6" points="749,662.3 736.1,672.7 741.9,657.2 		"/>
		<polygon class="st6" points="740.8,632.8 733.7,617.8 747.5,627 		"/>
		<g>
			<path class="st6" d="M861.9,647.5l1.4-0.9c1.5-1,1.9-2.4,1.1-3.6c-0.9-1.4-2.3-1.3-3.8-0.4c-0.7,0.4-1.1,0.8-1.3,1L861.9,647.5z
				 M857.3,643.5c0.6-0.6,1.6-1.3,2.5-2c1.5-1,2.6-1.3,3.7-1.2c0.9,0.1,1.6,0.7,2.2,1.5c0.9,1.4,0.6,3-0.2,4.1l0,0
				c1-0.3,2,0.2,3,1.1c1.3,1.3,2.3,2.2,2.8,2.4l-1.4,0.9c-0.4-0.2-1.2-1-2.4-2.1c-1.3-1.3-2.2-1.5-3.5-0.7l-1.3,0.9l3.1,4.7
				l-1.4,0.9L857.3,643.5z"/>
		</g>
		<polygon class="st6" points="869.5,637.8 869.4,637.8 868.3,639.9 867.3,639 868.8,636.3 870,635.6 876.8,646 875.4,646.9 		"/>
		<g>
			<path class="st6" d="M880.1,642.6c-0.4-0.6-0.3-1.3,0.3-1.6c0.6-0.4,1.2-0.2,1.6,0.4c0.4,0.6,0.3,1.3-0.3,1.6
				C881.2,643.4,880.5,643.2,880.1,642.6"/>
			<path class="st6" d="M887.2,634.3c-1-1.5-2.4-1.8-3.7-1c-0.9,0.6-1.3,1.6-1.2,2.6c0,0.2,0.1,0.5,0.3,0.7c1.2,1.7,2.8,2.5,4.2,1.5
				C888,637.3,888.2,635.8,887.2,634.3 M883.7,628c-0.3,0.2-0.7,0.4-1,0.8c-2,1.8-2.1,4.2-1.2,6.1l0,0c0.1-1,0.6-2.1,1.7-2.8
				c1.8-1.2,4-0.7,5.3,1.3c1.2,1.9,1.1,4.5-1.1,5.9c-2.2,1.5-4.8,0.7-6.6-2c-1.3-2.1-1.7-4.2-1.3-5.9c0.3-1.4,1.1-2.7,2.3-3.7
				c0.4-0.3,0.7-0.6,1-0.7L883.7,628z"/>
			<path class="st6" d="M891.7,620.3c-0.1,2.3,0.4,5,2.3,7.9c1.9,2.9,4.1,4.3,6.3,5.2l-1.1,0.7c-1.9-0.7-4.3-2-6.3-5.1
				c-2-3.2-2.3-5.9-2.2-7.9L891.7,620.3z"/>
		</g>
		<polygon class="st6" points="897.2,619.7 897.1,619.7 896,621.9 895,621 896.5,618.3 897.7,617.5 904.5,627.9 903.1,628.8 		"/>
		<polygon class="st6" points="907.9,626.6 904.8,612 905.9,611.3 909,625.9 		"/>
		<polygon class="st6" points="910.9,610.8 910.9,610.8 909.7,612.9 908.7,612 910.2,609.3 911.4,608.5 918.2,619 916.8,619.9 		"/>
		<g>
			<path class="st6" d="M925.3,609.5c-1-1.5-2.4-1.8-3.7-1c-0.9,0.6-1.3,1.6-1.2,2.6c0,0.2,0.1,0.5,0.3,0.7c1.1,1.7,2.8,2.5,4.2,1.5
				C926.1,612.5,926.3,611,925.3,609.5 M921.8,603.2c-0.3,0.2-0.7,0.4-1,0.8c-2,1.8-2.1,4.2-1.2,6.1l0,0c0.1-1,0.6-2.1,1.7-2.8
				c1.8-1.2,4-0.7,5.3,1.3c1.2,1.9,1.1,4.5-1.1,5.9c-2.2,1.5-4.8,0.7-6.6-2c-1.3-2.1-1.7-4.2-1.3-5.9c0.3-1.4,1.1-2.7,2.3-3.7
				c0.4-0.3,0.7-0.6,1-0.7L921.8,603.2z"/>
		</g>
		<path class="st6" d="M926.9,597.6l2.2,4l-0.9,0.6l-2.8-3.7L926.9,597.6z M924.5,599.2l2.2,4l-0.9,0.6l-2.8-3.7L924.5,599.2z"/>
		<g>
			<path class="st6" d="M936.5,609.8c0.1-2.3-0.4-5-2.3-7.9c-1.9-2.9-4.1-4.4-6.3-5.2l1.1-0.7c1.9,0.7,4.3,2,6.4,5.2
				c2.1,3.1,2.3,5.9,2.2,7.9L936.5,609.8z"/>
		</g>
		<line class="st15" x1="941.4" y1="611.2" x2="827.2" y2="686.2"/>
		<polygon class="st4" points="827.4,681.5 817.1,693 831.8,688.2 		"/>
		<g>
			<path class="st4" d="M481,34.5l1.4-0.2c0.2,0.8,0.4,1.4,0.8,1.8c0.4,0.4,0.9,0.5,1.4,0.5c0.7,0,1.2-0.2,1.7-0.7
				c0.5-0.5,0.7-1,0.7-1.7c0-0.7-0.2-1.2-0.6-1.6s-1-0.6-1.6-0.6c-0.3,0-0.6,0.1-1,0.2l0.2-1.3c0.1,0,0.2,0,0.2,0
				c0.6,0,1.2-0.2,1.6-0.5c0.5-0.3,0.7-0.8,0.7-1.5c0-0.5-0.2-1-0.5-1.3c-0.4-0.3-0.8-0.5-1.4-0.5c-0.6,0-1,0.2-1.4,0.5
				s-0.6,0.9-0.7,1.6l-1.4-0.3c0.2-1,0.6-1.7,1.2-2.2c0.6-0.5,1.4-0.8,2.3-0.8c0.6,0,1.2,0.1,1.8,0.4c0.5,0.3,0.9,0.6,1.2,1.1
				c0.3,0.5,0.4,1,0.4,1.5c0,0.5-0.1,1-0.4,1.4c-0.3,0.4-0.7,0.7-1.2,1c0.7,0.2,1.2,0.5,1.6,1c0.4,0.5,0.6,1.1,0.6,1.9
				c0,1-0.4,1.9-1.1,2.6s-1.7,1.1-2.8,1.1c-1,0-1.9-0.3-2.5-0.9C481.5,36.3,481.1,35.5,481,34.5z"/>
			<path class="st4" d="M492.6,31.3c-0.6-0.2-1-0.5-1.3-0.9c-0.3-0.4-0.4-0.9-0.4-1.4c0-0.8,0.3-1.6,0.9-2.1
				c0.6-0.6,1.4-0.9,2.4-0.9c1,0,1.8,0.3,2.5,0.9c0.6,0.6,0.9,1.3,0.9,2.2c0,0.5-0.1,1-0.4,1.4c-0.3,0.4-0.7,0.7-1.3,0.9
				c0.7,0.2,1.3,0.6,1.6,1.1c0.4,0.5,0.6,1.1,0.6,1.9c0,1-0.4,1.8-1.1,2.5c-0.7,0.7-1.6,1-2.8,1s-2.1-0.3-2.8-1
				c-0.7-0.7-1.1-1.5-1.1-2.5c0-0.8,0.2-1.4,0.6-1.9C491.4,31.8,491.9,31.5,492.6,31.3z M491.9,34.2c0,0.4,0.1,0.8,0.3,1.2
				s0.5,0.7,0.9,0.9s0.8,0.3,1.2,0.3c0.7,0,1.2-0.2,1.7-0.7c0.4-0.4,0.7-1,0.7-1.7c0-0.7-0.2-1.3-0.7-1.7c-0.5-0.5-1-0.7-1.7-0.7
				c-0.7,0-1.2,0.2-1.7,0.7C492.1,33,491.9,33.6,491.9,34.2z M492.4,28.8c0,0.6,0.2,1,0.5,1.4s0.8,0.5,1.4,0.5c0.6,0,1-0.2,1.4-0.5
				c0.4-0.3,0.5-0.8,0.5-1.3c0-0.5-0.2-1-0.5-1.3s-0.8-0.5-1.4-0.5c-0.5,0-1,0.2-1.4,0.5S492.4,28.4,492.4,28.8z"/>
			<path class="st4" d="M500.6,37.6V36h1.6v1.6H500.6z"/>
			<path class="st4" d="M508.5,37.6H507v-9.1c-0.3,0.3-0.8,0.7-1.4,1c-0.6,0.3-1.1,0.6-1.5,0.7v-1.4c0.8-0.4,1.5-0.8,2.1-1.4
				c0.6-0.5,1-1.1,1.3-1.6h0.9V37.6z"/>
			<path class="st4" d="M519.5,41c-0.8-1-1.5-2.2-2-3.5c-0.5-1.3-0.8-2.7-0.8-4.2c0-1.3,0.2-2.5,0.6-3.6c0.5-1.3,1.2-2.7,2.2-4h1
				c-0.6,1.1-1.1,1.9-1.3,2.4c-0.3,0.7-0.6,1.5-0.8,2.3c-0.2,1-0.3,2-0.3,3c0,2.6,0.8,5.1,2.4,7.6H519.5z"/>
			<path class="st4" d="M526.4,37.6H525v-9.1c-0.3,0.3-0.8,0.7-1.4,1c-0.6,0.3-1.1,0.6-1.5,0.7v-1.4c0.8-0.4,1.5-0.8,2.1-1.4
				c0.6-0.5,1-1.1,1.3-1.6h0.9V37.6z"/>
			<path class="st4" d="M529.9,34.1v-1.4h4.4v1.4H529.9z"/>
			<path class="st4" d="M540.2,37.6h-1.4v-9.1c-0.3,0.3-0.8,0.7-1.4,1c-0.6,0.3-1.1,0.6-1.5,0.7v-1.4c0.8-0.4,1.5-0.8,2.1-1.4
				c0.6-0.5,1-1.1,1.3-1.6h0.9V37.6z"/>
			<path class="st4" d="M542.8,37.8l3.4-12.1h1.1L544,37.8H542.8z"/>
			<path class="st4" d="M555.8,36.2v1.4h-7.7c0-0.3,0-0.7,0.2-1c0.2-0.5,0.5-1,0.9-1.6c0.4-0.5,1.1-1.1,1.9-1.8
				c1.3-1,2.1-1.9,2.6-2.5c0.4-0.6,0.7-1.2,0.7-1.7c0-0.6-0.2-1-0.6-1.4c-0.4-0.4-0.9-0.6-1.6-0.6c-0.7,0-1.2,0.2-1.7,0.6
				c-0.4,0.4-0.6,1-0.6,1.7l-1.5-0.2c0.1-1.1,0.5-1.9,1.1-2.5c0.7-0.6,1.5-0.9,2.6-0.9c1.1,0,2,0.3,2.7,0.9c0.7,0.6,1,1.4,1,2.3
				c0,0.5-0.1,0.9-0.3,1.4c-0.2,0.5-0.5,0.9-1,1.4c-0.4,0.5-1.2,1.2-2.2,2.1c-0.9,0.7-1.4,1.2-1.7,1.5s-0.4,0.5-0.6,0.8H555.8z"/>
			<path class="st4" d="M558.4,30.1l-0.4-2.2v-1.9h1.6v1.9l-0.4,2.2H558.4z M561,30.1l-0.4-2.2v-1.9h1.6v1.9l-0.4,2.2H561z"/>
			<path class="st4" d="M565.2,41h-1c1.6-2.5,2.4-5.1,2.4-7.6c0-1-0.1-2-0.3-3c-0.2-0.8-0.4-1.6-0.8-2.3c-0.2-0.5-0.6-1.3-1.3-2.4h1
				c1,1.3,1.7,2.7,2.2,4c0.4,1.2,0.6,2.4,0.6,3.6c0,1.4-0.3,2.8-0.8,4.2C566.6,38.9,566,40,565.2,41z"/>
		</g>
	</g>
</g>
<g id="Watermark">
	<g>
		<rect x="438.5" y="662.8" class="st1" width="123.1" height="46.3"/>
		<g>
			<rect x="444.9" y="670.7" class="st75" width="62.9" height="30.6"/>
			<rect x="507.7" y="670.7" class="st75" width="47.4" height="30.6"/>
			<g>
				<path class="st76" d="M466.5,676.8l-2.8,18.9H461l-1.6-11l-1.5,11h-2.7l-2.8-18.9h2.5l1.8,14.2l1.8-14.2h2l1.8,14.2l1.8-14.2
					H466.5z"/>
				<path class="st76" d="M467.9,695.7v-18.9h2.5v18.9H467.9z"/>
				<path class="st76" d="M472.8,676.8h5c1.9,0,2.9,1.1,2.9,3.2v4.7c0,1.7-0.5,2.7-1.5,3.1l1.8,7.9h-2.4l-1.7-7.6h-1.5v7.6h-2.5
					V676.8z M475.4,685.9h1.7c0.8,0,1.1-0.5,1.1-1.4v-4.1c0-0.9-0.4-1.4-1.1-1.4h-1.7V685.9z"/>
				<path class="st76" d="M486.8,679.1v16.6h-2.5v-16.6h-2.4v-2.3h7.4v2.3H486.8z"/>
				<path class="st76" d="M496.3,695.7v-8.6h-3.1v8.6h-2.5v-18.9h2.5v8h3.1v-8h2.5v18.9H496.3z"/>
			</g>
			<g>
				<path class="st76" d="M516.3,676.8h5c1.9,0,2.9,1.1,2.9,3.2v4.7c0,1.7-0.5,2.7-1.5,3.1l1.8,7.9H522l-1.7-7.6h-1.5v7.6h-2.5
					V676.8z M518.8,685.9h1.7c0.8,0,1.1-0.5,1.1-1.4v-4.1c0-0.9-0.4-1.4-1.1-1.4h-1.7V685.9z"/>
				<path class="st76" d="M528.7,695.7h-2.5V680c0-2.2,1-3.2,3-3.2h1.9c2,0,3,1.1,3,3.2v15.7h-2.5v-6.9h-2.9V695.7z M531.6,686.5
					v-6.3c0-0.7-0.4-1.1-1.1-1.1h-0.7c-0.7,0-1.1,0.4-1.1,1.1v6.3H531.6z"/>
				<path class="st76" d="M536.3,695.7v-18.9h2.5v18.9H536.3z"/>
				<path class="st76" d="M547.2,695.7h-6v-18.9h2.5v16.6h3.5V695.7z"/>
			</g>
		</g>
	</g>
</g>
</svg>
