<?xml version="1.0" encoding="utf-8"?>
<!-- Generator: Adobe Illustrator 25.2.3, SVG Export Plug-In . SVG Version: 6.00 Build 0)  -->
<svg version="1.1" xmlns="http://www.w3.org/2000/svg" xmlns:xlink="http://www.w3.org/1999/xlink" x="0px" y="0px"
	 viewBox="0 0 1000 800" style="enable-background:new 0 0 1000 800;" xml:space="preserve">
<style type="text/css">
	.st0{display:none;}
	.st1{fill:#F0F0F0;}
	.st2{fill:none;stroke:#221E1F;stroke-width:1.0067;}
	.st3{fill:none;stroke:#221E1F;stroke-width:1.0815;}
	.st4{fill:#221E1F;}
	.st5{fill:none;stroke:#221E1F;stroke-width:1.0067;stroke-dasharray:25.4357,7.8961;}
	.st6{fill:#303030;}
	.st7{fill:none;stroke:#221E1F;stroke-width:0.9293;}
	.st8{fill:none;stroke:#303030;stroke-width:1.0067;stroke-miterlimit:10;}
	.st9{fill:none;stroke:#221E1F;stroke-width:1.2309;}
	.st10{fill:none;stroke:#221E1F;stroke-width:1.0036;stroke-linecap:round;stroke-linejoin:round;stroke-miterlimit:10;}
	.st11{fill:none;stroke:#221E1F;stroke-width:1.2309;stroke-linecap:round;stroke-linejoin:round;stroke-miterlimit:10;}
	.st12{fill:none;stroke:#221E1F;stroke-width:1.2309;stroke-miterlimit:10;}
	.st13{fill:none;stroke:#221E1F;stroke-width:1.2309;stroke-linecap:round;stroke-linejoin:round;}
	.st14{fill:none;stroke:#221E1F;stroke-width:1.2309;stroke-dasharray:6.9402,6.9402;}
	.st15{fill:none;stroke:#221E1F;stroke-width:1.148;}
	.st16{fill:none;stroke:#221E1F;stroke-width:1.148;stroke-dasharray:6.4521,6.4521;}
	.st17{fill:none;stroke:#221E1F;stroke-width:1.145;}
	.st18{fill:none;stroke:#221E1F;stroke-width:1.1283;}
	.st19{fill:none;stroke:#221E1F;stroke-width:1.1023;}
	.st20{fill:none;stroke:#221E1F;stroke-width:1.1283;stroke-dasharray:6.3679,6.3679;}
	.st21{fill:none;stroke:#221E1F;stroke-width:1.1486;}
	.st22{fill:none;stroke:#FFFFFF;stroke-width:5.4259;}
	.st23{fill:none;stroke:#221E1F;stroke-width:1.0581;}
	.st24{fill:none;stroke:#221E1F;stroke-width:1.0092;}
	.st25{fill:none;stroke:#221E1F;stroke-width:0.9007;}
	.st26{fill:none;stroke:#221E1F;stroke-width:0.9007;stroke-dasharray:6.2235,6.2235;}
	.st27{fill:none;stroke:#241F21;stroke-width:0.8703;}
	.st28{fill:none;stroke:#241F21;stroke-width:0.9357;}
	.st29{clip-path:url(#SVGID_2_);fill:none;stroke:#241F21;stroke-width:0.8703;}
	.st30{fill:none;stroke:#303030;stroke-width:0.8703;stroke-miterlimit:10;}
	.st31{fill:#241F21;}
	.st32{fill:none;stroke:#241F21;stroke-width:0.8703;stroke-dasharray:22.0524,6.4121;}
	.st33{clip-path:url(#SVGID_4_);}
	.st34{clip-path:url(#SVGID_6_);}
	.st35{clip-path:url(#SVGID_8_);}
	.st36{clip-path:url(#SVGID_10_);fill:#303030;}
	.st37{fill:none;stroke:#241F21;stroke-width:0.8703;stroke-dasharray:26.5684,7.9543;}
	.st38{clip-path:url(#SVGID_12_);}
	.st39{clip-path:url(#SVGID_14_);}
	.st40{clip-path:url(#SVGID_16_);}
	.st41{clip-path:url(#SVGID_18_);}
	.st42{fill:none;stroke:#241F21;stroke-width:0.8984;}
	.st43{fill:none;stroke:#303030;stroke-width:0.8984;stroke-miterlimit:10;}
	.st44{clip-path:url(#SVGID_20_);}
	.st45{clip-path:url(#SVGID_22_);}
	.st46{clip-path:url(#SVGID_24_);}
	.st47{clip-path:url(#SVGID_26_);}
	.st48{clip-path:url(#SVGID_28_);}
	.st49{clip-path:url(#SVGID_30_);}
	.st50{clip-path:url(#SVGID_32_);}
	.st51{clip-path:url(#SVGID_34_);fill:none;stroke:#241F21;stroke-width:0.8984;}
	.st52{clip-path:url(#SVGID_36_);fill:none;stroke:#241F21;stroke-width:0.8984;}
	.st53{clip-path:url(#SVGID_38_);fill:none;stroke:#241F21;stroke-width:0.8984;}
	.st54{clip-path:url(#SVGID_40_);fill:none;stroke:#241F21;stroke-width:0.8984;}
	.st55{fill:none;stroke:#241F21;stroke-width:0.8984;stroke-dasharray:22.7263,6.6621;}
	.st56{fill:none;stroke:#241F21;stroke-width:0.9362;}
	.st57{fill:none;stroke:#241F21;stroke-width:0.8984;stroke-dasharray:27.9392,8.7142;}
	.st58{clip-path:url(#SVGID_42_);}
	.st59{clip-path:url(#SVGID_44_);}
	.st60{clip-path:url(#SVGID_46_);}
	.st61{fill:none;stroke:#221E1F;stroke-width:0.765;}
	.st62{fill:none;stroke:#221E1F;stroke-width:0.8373;}
	.st63{fill:none;stroke:#221E1F;stroke-width:0.765;stroke-dasharray:21.1617,6.4071;}
	.st64{fill:none;stroke:#221E1F;stroke-width:0.765;stroke-dasharray:24.8189,7.2742;}
	.st65{fill:none;stroke:#303030;stroke-width:0.765;stroke-miterlimit:10;}
	.st66{fill:none;stroke:#221E1F;stroke-width:0.748;}
	.st67{fill:none;stroke:#241F21;stroke-width:1.3086;}
	.st68{fill:none;stroke:#241F21;stroke-width:1.5023;}
	.st69{fill:none;stroke:#241F21;stroke-width:1.1437;}
	.st70{fill:none;stroke:#241F21;stroke-width:1.5023;stroke-dasharray:23.5916,9.5345;}
	.st71{fill:none;stroke:#241F21;stroke-width:1.5023;stroke-dasharray:22.9216,8.8619;}
	.st72{fill:none;stroke:#241F21;stroke-width:1.5023;stroke-dasharray:21.3408,7.2811;}
	.st73{fill:none;stroke:#241F21;stroke-width:1.5023;stroke-dasharray:21.3303,7.2706;}
	.st74{fill:none;stroke:#241F21;stroke-width:1.5023;stroke-dasharray:20.027,5.9673;}
	.st75{fill:#F0F0F0;stroke:#CCCCCC;stroke-miterlimit:10;}
	.st76{fill:#CCCCCC;}
</style>
<g id="editable" class="st0">
</g>
<g id="Flat">
	<g>
		<g>
			<path class="st6" d="M873.8,435.6c0,0.4,0,0.8,0.1,1.4c0.5,2.8,2.5,4.3,4.7,4.6v-0.1c-0.8-0.6-1.5-1.7-1.5-3.2c0-2.4,1.7-4,4.3-4
				c2.4,0,4.7,1.7,4.7,4.4c0,2.9-2.2,4.7-5.7,4.7c-2.6,0-4.7-0.9-6-2.3c-1.1-1.1-1.8-2.6-2-4.3c-0.1-0.5-0.1-1-0.1-1.3H873.8z
				 M881.5,436.1c-1.9,0-3.1,1.1-3.1,2.7c0,1.1,0.7,2.1,1.6,2.6c0.2,0.1,0.5,0.2,0.8,0.2c2.2,0,3.8-1,3.8-2.9
				C884.7,437.2,883.4,436.1,881.5,436.1z"/>
			<path class="st6" d="M873.8,425.1c0,0.4,0,0.8,0.1,1.4c0.5,2.8,2.5,4.3,4.7,4.6V431c-0.8-0.6-1.5-1.7-1.5-3.2c0-2.4,1.7-4,4.3-4
				c2.4,0,4.7,1.7,4.7,4.4c0,2.9-2.2,4.7-5.7,4.7c-2.6,0-4.7-0.9-6-2.3c-1.1-1.1-1.8-2.6-2-4.3c-0.1-0.5-0.1-1-0.1-1.3H873.8z
				 M881.5,425.6c-1.9,0-3.1,1.1-3.1,2.7c0,1.1,0.7,2.1,1.6,2.6c0.2,0.1,0.5,0.2,0.8,0.2c2.2,0,3.8-1,3.8-2.9
				C884.7,426.7,883.4,425.6,881.5,425.6z"/>
			<path class="st6" d="M884.8,422.1c-0.8,0-1.3-0.5-1.3-1.2s0.5-1.2,1.3-1.2c0.7,0,1.3,0.5,1.3,1.2
				C886.1,421.6,885.6,422.1,884.8,422.1z"/>
			<path class="st6" d="M873.8,410.3c0,0.4,0,0.8,0.1,1.4c0.5,2.8,2.5,4.3,4.7,4.6v-0.1c-0.8-0.6-1.5-1.7-1.5-3.2c0-2.4,1.7-4,4.3-4
				c2.4,0,4.7,1.7,4.7,4.4c0,2.9-2.2,4.7-5.7,4.7c-2.6,0-4.7-0.9-6-2.3c-1.1-1.1-1.8-2.6-2-4.3c-0.1-0.5-0.1-1-0.1-1.3H873.8z
				 M881.5,410.9c-1.9,0-3.1,1.1-3.1,2.7c0,1.1,0.7,2.1,1.6,2.6c0.2,0.1,0.5,0.2,0.8,0.2c2.2,0,3.8-1,3.8-2.9
				C884.7,411.9,883.4,410.9,881.5,410.9z"/>
			<path class="st6" d="M872.6,398.8h1.2l12.1,5.8v1.9l-11.8-5.8h0v6.5h-1.5V398.8z"/>
			<path class="st6" d="M871.7,388.1c2,1.5,4.7,2.6,8.4,2.6c3.7,0,6.3-1.1,8.3-2.6v1.4c-1.7,1.3-4.3,2.7-8.3,2.7
				c-4,0-6.7-1.4-8.4-2.7V388.1z"/>
			<path class="st6" d="M885.9,386.7h-1.1l-1.4-1.4c-3.2-3.4-5-4.9-7-5c-1.4,0-2.6,0.7-2.6,2.6c0,1.2,0.6,2.2,1.1,2.8l-1.3,0.6
				c-0.8-0.9-1.4-2.2-1.4-3.8c0-2.9,2-4.1,3.9-4.1c2.5,0,4.5,1.8,7.2,4.6l1,1.1h0v-6h1.5V386.7z"/>
			<path class="st6" d="M874.1,363.9v5.1l3.4,0.5c0-0.3-0.1-0.6-0.1-1.1c0-1,0.2-2.1,0.7-2.9c0.6-1,1.7-1.9,3.4-1.9
				c2.6,0,4.6,2.1,4.6,5c0,1.5-0.4,2.7-0.8,3.3l-1.4-0.5c0.3-0.6,0.7-1.6,0.7-2.9c0-1.7-1.1-3.2-2.9-3.2c-1.7,0-3,1.2-3,3.8
				c0,0.8,0.1,1.4,0.1,1.8l-6.4-0.9v-6.4H874.1z"/>
			<path class="st6" d="M886.7,362.3l-14.9-5.7v-1.4l14.9,5.7V362.3z"/>
			<path class="st6" d="M882.5,354.5c-1.7,0-2.9-1-3.6-2.6l-0.1,0c-0.7,1.5-1.8,2.1-3,2.1c-2.1,0-3.5-1.8-3.5-4.1
				c0-2.6,1.6-3.9,3.3-3.9c1.1,0,2.3,0.6,3.1,2.2h0.1c0.7-1.7,1.8-2.7,3.4-2.7c2.3,0,3.9,2,3.9,4.5
				C886.1,352.8,884.5,354.5,882.5,354.5z M875.8,352.2c1.3,0,2.1-1,2.5-2.5c-0.4-1.1-1.2-2-2.4-2c-1.1,0-2.2,0.6-2.2,2.3
				C873.6,351.4,874.6,352.2,875.8,352.2z M882.4,347.3c-1.6,0-2.4,1.1-2.9,2.9c0.5,1.6,1.5,2.4,2.7,2.4c1.4,0.1,2.5-1,2.5-2.7
				C884.8,348.3,883.8,347.3,882.4,347.3z"/>
			<path class="st6" d="M871.8,338.8l4.9,0.3v1.1l-4.9,0.3V338.8z M871.8,341.9l4.9,0.3v1.1l-4.9,0.3V341.9z"/>
			<path class="st6" d="M888.4,337.4c-2-1.5-4.7-2.6-8.4-2.6c-3.7,0-6.3,1.1-8.3,2.6V336c1.7-1.3,4.3-2.7,8.3-2.7
				c4,0,6.6,1.4,8.4,2.7V337.4z"/>
		</g>
		<line class="st9" x1="893" y1="710.7" x2="893" y2="98.7"/>
		<polygon class="st4" points="898.1,707 892.7,727.1 887.4,707 		"/>
		<polygon class="st4" points="898.1,102.3 892.7,82.3 887.4,102.3 		"/>
		<g>
			<path class="st1" d="M465.4,285.5c-3.2-34.8-35.8-42.7-35.8-42.7l-83-19.2c0,0-12.3-0.9-12-20.5l0.3-50c0,0-2.9-34.5,20.3-52.4
				c23.3-17.9,36.7-17.1,61.3-17.1c30.2,0,160.2-1.1,160.2-1.1s85-6.2,88.1,62l0.5,55.3c0,0,1.9,14.4-3.5,19
				c-5.3,4.5-13.6,6.1-25.1,8.8c-11.5,2.7-56.9,12.8-56.9,12.8s-44.9,3.5-45.2,53.2c-0.3,49.7,0.3,298.6,0.3,298.6
				s0.3,35.8,42.2,45.4c42,9.6,231,53.2,231,53.2s15.8,1.3,14.4,19.5c-1.3,18.2-12.3,16.6-16.6,16.8c-4.3,0.3-614.1,0-614.1,0
				s-13.6-2.7-14.4-14.4c-0.8-11.8,2.1-18.2,8.8-20c6.7-1.9,229.4-53.5,229.4-53.5s49.6-7.8,49.5-50.3
				C464.9,540.5,465.4,285.5,465.4,285.5"/>
			<path class="st9" d="M465.4,285.5c-3.2-34.8-35.8-42.7-35.8-42.7l-83-19.2c0,0-12.3-0.9-12-20.5l0.3-50c0,0-2.9-34.5,20.3-52.4
				c23.3-17.9,36.7-17.1,61.3-17.1c30.2,0,160.2-1.1,160.2-1.1s85-6.2,88.1,62l0.5,55.3c0,0,1.9,14.4-3.5,19
				c-5.3,4.5-13.6,6.1-25.1,8.8c-11.5,2.7-56.9,12.8-56.9,12.8s-44.9,3.5-45.2,53.2c-0.3,49.7,0.3,298.6,0.3,298.6
				s0.3,35.8,42.2,45.4c42,9.6,231,53.2,231,53.2s15.8,1.3,14.4,19.5c-1.3,18.2-12.3,16.6-16.6,16.8c-4.3,0.3-614.1,0-614.1,0
				s-13.6-2.7-14.4-14.4c-0.8-11.8,2.1-18.2,8.8-20c6.7-1.9,229.4-53.5,229.4-53.5s49.6-7.8,49.5-50.3
				C464.9,540.5,465.4,285.5,465.4,285.5z"/>
		</g>
		<line class="st10" x1="465.3" y1="439.5" x2="77.9" y2="439.5"/>
		<path class="st11" d="M335,142.7V29 M189.5,727.4H77.9"/>
		<line class="st9" x1="665.1" y1="142.7" x2="665.1" y2="29"/>
		<line class="st12" x1="822.2" y1="704.5" x2="822.2" y2="791.4"/>
		<line class="st10" x1="177.6" y1="695.9" x2="177.6" y2="791.4"/>
		<line class="st9" x1="503" y1="259" x2="819.4" y2="259"/>
		<line class="st11" x1="503" y1="619.8" x2="869.8" y2="619.8"/>
		<path class="st10" d="M500,619.8l70.6,16.4 M429.6,636.2l70.5-16.4"/>
		<line class="st9" x1="503" y1="259" x2="819.4" y2="259"/>
		<path class="st11" d="M500,259l70.6-16.2 M429.6,242.8L500,259"/>
		<line class="st12" x1="803.2" y1="727.4" x2="901" y2="727.4"/>
		<line class="st9" x1="503" y1="83.1" x2="905.2" y2="83.1"/>
		<g>
			<path class="st6" d="M775.7,530.5c0.3-0.5,0.8-1.7,0.8-3c0-2.3-1.5-3-2.6-3c-1.9,0-2.7,1.7-2.7,3.4v1h-1.4v-1c0-1.3-0.7-3-2.3-3
				c-1.1,0-2,0.7-2,2.3c0,1.1,0.5,2.1,0.9,2.7l-1.3,0.5c-0.5-0.7-1-2.1-1-3.5c0-2.6,1.6-3.8,3.2-3.8c1.4,0,2.5,0.8,3.1,2.5h0
				c0.3-1.6,1.6-3,3.4-3c2.1,0,4,1.7,4,4.9c0,1.5-0.5,2.8-0.9,3.5L775.7,530.5z"/>
			<path class="st6" d="M764.4,511.7h1.2l12.1,5.8v1.9l-11.8-5.8h0v6.5h-1.5V511.7z"/>
			<path class="st6" d="M776.7,509.7c-0.8,0-1.3-0.5-1.3-1.2s0.5-1.2,1.3-1.2c0.7,0,1.3,0.5,1.3,1.2
				C778,509.2,777.4,509.7,776.7,509.7z"/>
			<path class="st6" d="M775.7,505.2c0.3-0.5,0.8-1.7,0.8-3c0-2.3-1.5-3-2.6-3c-1.9,0-2.7,1.7-2.7,3.4v1h-1.4v-1c0-1.3-0.7-3-2.3-3
				c-1.1,0-2,0.7-2,2.3c0,1.1,0.5,2.1,0.9,2.7l-1.3,0.5c-0.5-0.7-1-2.1-1-3.5c0-2.6,1.6-3.8,3.2-3.8c1.4,0,2.5,0.8,3.1,2.5h0
				c0.3-1.6,1.6-3,3.4-3c2.1,0,4,1.7,4,4.9c0,1.5-0.5,2.8-0.9,3.5L775.7,505.2z"/>
			<path class="st6" d="M766.1,491.2L766.1,491.2l1.3,2.4l-1.4,0.3l-1.6-2.9v-1.5h13.3v1.7H766.1z"/>
			<path class="st6" d="M763.5,475.7c2,1.5,4.7,2.6,8.4,2.6c3.7,0,6.3-1.1,8.3-2.6v1.4c-1.7,1.3-4.3,2.7-8.3,2.7
				c-4,0-6.7-1.4-8.4-2.7V475.7z"/>
			<path class="st6" d="M766.1,470.5L766.1,470.5l1.3,2.4l-1.4,0.3l-1.6-2.9v-1.5h13.3v1.7H766.1z"/>
			<path class="st6" d="M766.1,455.6L766.1,455.6l1.3,2.4l-1.4,0.3l-1.6-2.9v-1.5h13.3v1.7H766.1z"/>
			<path class="st6" d="M766,441v5.1l3.4,0.5c0-0.3-0.1-0.6-0.1-1.1c0-1,0.2-2.1,0.7-2.9c0.6-1,1.7-1.9,3.4-1.9c2.6,0,4.6,2.1,4.6,5
				c0,1.5-0.4,2.7-0.8,3.3l-1.4-0.5c0.3-0.6,0.7-1.6,0.7-2.9c0-1.7-1.1-3.2-2.9-3.2c-1.7,0-3,1.2-3,3.8c0,0.8,0.1,1.4,0.1,1.8
				l-6.4-0.9V441H766z"/>
			<path class="st6" d="M778.6,439.4l-14.9-5.7v-1.4l14.9,5.7V439.4z"/>
			<path class="st6" d="M775.7,431c0.3-0.5,0.8-1.7,0.8-3c0-2.3-1.5-3-2.6-3c-1.9,0-2.7,1.7-2.7,3.4v1h-1.4v-1c0-1.3-0.7-3-2.3-3
				c-1.1,0-2,0.7-2,2.3c0,1.1,0.5,2.1,0.9,2.7l-1.3,0.5c-0.5-0.7-1-2.1-1-3.5c0-2.6,1.6-3.8,3.2-3.8c1.4,0,2.5,0.8,3.1,2.5h0
				c0.3-1.6,1.6-3,3.4-3c2.1,0,4,1.7,4,4.9c0,1.5-0.5,2.8-0.9,3.5L775.7,431z"/>
			<path class="st6" d="M777.8,420.9h-1.1l-1.4-1.4c-3.2-3.4-5-4.9-7-5c-1.4,0-2.6,0.7-2.6,2.6c0,1.2,0.6,2.2,1.1,2.8l-1.3,0.6
				c-0.8-0.9-1.4-2.2-1.4-3.8c0-2.9,2-4.1,3.9-4.1c2.5,0,4.5,1.8,7.2,4.6l1,1.1h0v-6h1.5V420.9z"/>
			<path class="st6" d="M763.7,405.4l4.9,0.3v1.1l-4.9,0.3V405.4z M763.7,408.5l4.9,0.3v1.1l-4.9,0.3V408.5z"/>
		</g>
		<g>
			<path class="st6" d="M780.2,403.8c-2-1.5-4.7-2.6-8.4-2.6c-3.7,0-6.3,1.1-8.3,2.6v-1.4c1.7-1.3,4.3-2.7,8.3-2.7
				c4,0,6.6,1.4,8.4,2.7V403.8z"/>
		</g>
		<line class="st9" x1="784.8" y1="710.7" x2="784.8" y2="275.4"/>
		<polygon class="st4" points="790,707 784.6,727.1 779.3,707 		"/>
		<polygon class="st4" points="790,279 784.6,259 779.3,279 		"/>
		<g>
			<path class="st6" d="M765.3,228L765.3,228l1.3,2.4l-1.4,0.3l-1.6-2.9v-1.5H777v1.7H765.3z"/>
			<path class="st6" d="M773.6,221.6c-1.7,0-2.9-1-3.6-2.6l-0.1,0c-0.7,1.5-1.8,2.1-3,2.1c-2.1,0-3.5-1.8-3.5-4.1
				c0-2.6,1.6-3.9,3.3-3.9c1.1,0,2.3,0.6,3.1,2.2h0.1c0.7-1.7,1.8-2.7,3.4-2.7c2.3,0,3.9,2,3.9,4.5
				C777.2,219.9,775.6,221.6,773.6,221.6z M766.9,219.3c1.3,0,2.1-1,2.5-2.5c-0.4-1.1-1.2-2-2.4-2c-1.1,0-2.2,0.6-2.2,2.3
				C764.7,218.5,765.7,219.3,766.9,219.3z M773.5,214.4c-1.6,0-2.4,1.1-2.9,2.9c0.5,1.6,1.5,2.4,2.7,2.4c1.4,0.1,2.5-1,2.5-2.7
				C775.9,215.4,774.9,214.4,773.5,214.4z"/>
			<path class="st6" d="M775.9,210.7c-0.8,0-1.3-0.5-1.3-1.2s0.5-1.2,1.3-1.2c0.7,0,1.3,0.5,1.3,1.2
				C777.2,210.2,776.7,210.7,775.9,210.7z"/>
			<path class="st6" d="M777,206.6h-1.1l-1.4-1.4c-3.2-3.4-5-4.9-7-5c-1.4,0-2.6,0.7-2.6,2.6c0,1.2,0.6,2.2,1.1,2.8l-1.3,0.6
				c-0.8-0.9-1.4-2.2-1.4-3.8c0-2.9,2-4.1,3.9-4.1c2.5,0,4.5,1.8,7.2,4.6l1,1.1h0v-6h1.5V206.6z"/>
			<path class="st6" d="M764.9,188.5c0,0.4,0,0.8,0.1,1.4c0.5,2.8,2.5,4.3,4.7,4.6v-0.1c-0.8-0.6-1.5-1.7-1.5-3.2c0-2.4,1.7-4,4.3-4
				c2.4,0,4.7,1.7,4.7,4.4c0,2.9-2.2,4.7-5.7,4.7c-2.6,0-4.7-0.9-6-2.3c-1.1-1.1-1.8-2.6-2-4.3c-0.1-0.5-0.1-1-0.1-1.3H764.9z
				 M772.6,189c-1.9,0-3.1,1.1-3.1,2.7c0,1.1,0.7,2.1,1.6,2.6c0.2,0.1,0.5,0.2,0.8,0.2c2.2,0,3.8-1,3.8-2.9
				C775.8,190,774.5,189,772.6,189z"/>
			<path class="st6" d="M762.8,176.7c2,1.5,4.7,2.6,8.4,2.6c3.7,0,6.3-1.1,8.3-2.6v1.4c-1.7,1.3-4.3,2.7-8.3,2.7
				c-4,0-6.7-1.4-8.4-2.7V176.7z"/>
			<path class="st6" d="M777,175.4h-1.1l-1.4-1.4c-3.2-3.4-5-4.9-7-5c-1.4,0-2.6,0.7-2.6,2.6c0,1.2,0.6,2.2,1.1,2.8l-1.3,0.6
				c-0.8-0.9-1.4-2.2-1.4-3.8c0-2.9,2-4.1,3.9-4.1c2.5,0,4.5,1.8,7.2,4.6l1,1.1h0v-6h1.5V175.4z"/>
			<path class="st6" d="M774.9,164.4c0.3-0.5,0.8-1.7,0.8-3c0-2.3-1.5-3-2.6-3c-1.9,0-2.7,1.7-2.7,3.4v1h-1.4v-1c0-1.3-0.7-3-2.3-3
				c-1.1,0-2,0.7-2,2.3c0,1.1,0.5,2.1,0.9,2.7l-1.3,0.5c-0.5-0.7-1-2.1-1-3.5c0-2.6,1.6-3.8,3.2-3.8c1.4,0,2.5,0.8,3.1,2.5h0
				c0.3-1.6,1.6-3,3.4-3c2.1,0,4,1.7,4,4.9c0,1.5-0.5,2.8-0.9,3.5L774.9,164.4z"/>
			<path class="st6" d="M777.8,155.3l-14.9-5.7v-1.4l14.9,5.7V155.3z"/>
			<path class="st6" d="M774.9,146.9c0.3-0.5,0.8-1.7,0.8-3c0-2.3-1.5-3-2.6-3c-1.9,0-2.7,1.7-2.7,3.4v1h-1.4v-1c0-1.3-0.7-3-2.3-3
				c-1.1,0-2,0.7-2,2.3c0,1.1,0.5,2.1,0.9,2.7l-1.3,0.5c-0.5-0.7-1-2.1-1-3.5c0-2.6,1.6-3.8,3.2-3.8c1.4,0,2.5,0.8,3.1,2.5h0
				c0.3-1.6,1.6-3,3.4-3c2.1,0,4,1.7,4,4.9c0,1.5-0.5,2.8-0.9,3.5L774.9,146.9z"/>
			<path class="st6" d="M777,136.8h-1.1l-1.4-1.4c-3.2-3.4-5-4.9-7-5c-1.4,0-2.6,0.7-2.6,2.6c0,1.2,0.6,2.2,1.1,2.8l-1.3,0.6
				c-0.8-0.9-1.4-2.2-1.4-3.8c0-2.9,2-4.1,3.9-4.1c2.5,0,4.5,1.8,7.2,4.6l1,1.1h0v-6h1.5V136.8z"/>
			<path class="st6" d="M762.9,121.3l4.9,0.3v1.1l-4.9,0.3V121.3z M762.9,124.4l4.9,0.3v1.1l-4.9,0.3V124.4z"/>
		</g>
		<g>
			<path class="st6" d="M779.5,119.8c-2-1.5-4.7-2.6-8.4-2.6c-3.7,0-6.3,1.1-8.3,2.6v-1.4c1.7-1.3,4.3-2.7,8.3-2.7
				c4,0,6.6,1.4,8.4,2.7V119.8z"/>
		</g>
		<g>
			<path class="st6" d="M528.4,223.9c-0.2-0.9-0.3-2.2-0.3-3.4c0-1.9,0.3-3.1,1.1-4c0.6-0.7,1.6-1.1,2.6-1.1c1.8,0,3,1.1,3.5,2.6
				h0.1c0.4-1.1,1.4-1.7,2.8-2c1.9-0.5,3.3-0.8,3.8-1.1v1.8c-0.4,0.2-1.6,0.5-3.3,0.9c-1.9,0.4-2.6,1.1-2.7,2.8v1.7h6v1.8H528.4z
				 M534.7,222.1v-1.8c0-1.9-1-3.1-2.6-3.1c-1.8,0-2.6,1.3-2.6,3.2c0,0.9,0.1,1.5,0.2,1.8H534.7z"/>
			<path class="st6" d="M540,213.1c0.3-0.5,0.8-1.7,0.8-3c0-2.3-1.5-3-2.6-3c-1.9,0-2.7,1.7-2.7,3.4v1h-1.4v-1c0-1.3-0.7-3-2.3-3
				c-1.1,0-2,0.7-2,2.3c0,1.1,0.5,2.1,0.9,2.7l-1.3,0.5c-0.5-0.7-1-2.1-1-3.5c0-2.6,1.6-3.8,3.2-3.8c1.4,0,2.5,0.8,3.1,2.5h0
				c0.3-1.6,1.6-3,3.4-3c2.1,0,4,1.7,4,4.9c0,1.5-0.5,2.8-0.9,3.5L540,213.1z"/>
			<path class="st6" d="M535.3,194.1c4.5,0,7,1.7,7,4.6c0,2.6-2.4,4.4-6.8,4.4c-4.5,0-6.9-1.9-6.9-4.6
				C528.5,195.7,531,194.1,535.3,194.1z M535.5,201.4c3.5,0,5.4-1.1,5.4-2.7c0-1.8-2.2-2.7-5.6-2.7c-3.3,0-5.4,0.8-5.4,2.7
				C529.9,200.2,531.8,201.4,535.5,201.4z"/>
			<path class="st6" d="M542.1,186.9h-3.6v6.2h-1.2l-8.5-5.9v-1.9h8.3v-1.9h1.4v1.9h3.6V186.9z M537,186.9h-4.5
				c-0.7,0-1.4,0-2.1-0.1v0.1c0.8,0.4,1.4,0.7,2,1.1l4.5,3.3h0V186.9z"/>
			<path class="st6" d="M541,181.8c-0.8,0-1.3-0.5-1.3-1.2s0.5-1.2,1.3-1.2c0.7,0,1.3,0.5,1.3,1.2
				C542.3,181.3,541.7,181.8,541,181.8z"/>
			<path class="st6" d="M528.7,169h1.2l12.1,5.8v1.9l-11.8-5.8h0v6.5h-1.5V169z"/>
			<path class="st6" d="M540.8,166.1c0-0.4,0-0.8-0.1-1.5c-0.1-1-0.6-2-1.3-2.8c-0.8-0.9-2-1.5-3.5-1.8v0.1c0.9,0.7,1.4,1.8,1.4,3.1
				c0,2.4-1.8,3.9-4.1,3.9c-2.5,0-4.7-1.8-4.7-4.6s2.2-4.4,5.6-4.4c2.9,0,5,1,6.3,2.3c1,1,1.6,2.4,1.8,3.9c0.1,0.7,0.1,1.2,0.1,1.7
				H540.8z M533.1,165.5c1.7,0,2.8-1,2.8-2.6c0-1.2-0.6-2.2-1.4-2.6c-0.2-0.1-0.4-0.2-0.7-0.2c-2.3,0-4,0.8-4,2.7
				C529.9,164.4,531.2,165.5,533.1,165.5z"/>
			<path class="st6" d="M527.8,147.8c2,1.5,4.7,2.6,8.4,2.6c3.7,0,6.3-1.1,8.3-2.6v1.4c-1.7,1.3-4.3,2.7-8.3,2.7
				c-4,0-6.7-1.4-8.4-2.7V147.8z"/>
			<path class="st6" d="M530.4,142.6L530.4,142.6l1.3,2.4l-1.4,0.3l-1.6-2.9v-1.5h13.3v1.7H530.4z"/>
			<path class="st6" d="M542.1,135.9H541l-1.4-1.4c-3.2-3.4-5-4.9-7-5c-1.4,0-2.6,0.7-2.6,2.6c0,1.2,0.6,2.2,1.1,2.8l-1.3,0.6
				c-0.8-0.9-1.4-2.2-1.4-3.8c0-2.9,2-4.1,3.9-4.1c2.5,0,4.5,1.8,7.2,4.6l1,1.1h0v-6h1.5V135.9z"/>
			<path class="st6" d="M528,120.5l4.9,0.3v1.1l-4.9,0.3V120.5z M528,123.5l4.9,0.3v1.1l-4.9,0.3V123.5z"/>
		</g>
		<g>
			<path class="st6" d="M544.5,118.9c-2-1.5-4.7-2.6-8.4-2.6c-3.7,0-6.3,1.1-8.3,2.6v-1.4c1.7-1.3,4.3-2.7,8.3-2.7
				c4,0,6.6,1.4,8.4,2.7V118.9z"/>
		</g>
		<line class="st9" x1="784.8" y1="245.3" x2="784.8" y2="99.4"/>
		<polygon class="st4" points="790,241.7 784.6,261.7 779.3,241.7 		"/>
		<polygon class="st4" points="790,103.1 784.6,83.1 779.3,103.1 		"/>
		<line class="st9" x1="865.4" y1="711.6" x2="865.4" y2="636.1"/>
		<polygon class="st4" points="870.5,707.9 865.2,728 859.8,707.9 		"/>
		<polygon class="st4" points="870.5,639.8 865.2,619.8 859.8,639.8 		"/>
		<line class="st13" x1="194.2" y1="779.7" x2="805.9" y2="779.7"/>
		<polygon class="st4" points="197.8,784.9 177.8,779.5 197.8,774.1 		"/>
		<polygon class="st4" points="802.2,784.9 822.2,779.5 802.2,774.1 		"/>
		<g>
			<path class="st6" d="M470.3,761c-0.4,0-0.8,0-1.4,0.1c-2.8,0.5-4.3,2.5-4.6,4.7h0.1c0.6-0.8,1.7-1.5,3.2-1.5c2.4,0,4,1.7,4,4.3
				c0,2.4-1.7,4.7-4.4,4.7c-2.9,0-4.7-2.2-4.7-5.7c0-2.6,0.9-4.7,2.3-6c1.1-1.1,2.6-1.8,4.3-2c0.5-0.1,1-0.1,1.3-0.1V761z
				 M469.8,768.7c0-1.9-1.1-3.1-2.7-3.1c-1.1,0-2.1,0.7-2.6,1.6c-0.1,0.2-0.2,0.5-0.2,0.8c0,2.2,1,3.8,2.9,3.8
				C468.8,771.9,469.8,770.6,469.8,768.7z"/>
			<path class="st6" d="M480.9,761c-0.4,0-0.8,0-1.4,0.1c-2.8,0.5-4.3,2.5-4.6,4.7h0.1c0.6-0.8,1.7-1.5,3.2-1.5c2.4,0,4,1.7,4,4.3
				c0,2.4-1.7,4.7-4.4,4.7c-2.9,0-4.7-2.2-4.7-5.7c0-2.6,0.9-4.7,2.3-6c1.1-1.1,2.6-1.8,4.3-2c0.5-0.1,1-0.1,1.3-0.1V761z
				 M480.3,768.7c0-1.9-1.1-3.1-2.7-3.1c-1.1,0-2.1,0.7-2.6,1.6c-0.1,0.2-0.2,0.5-0.2,0.8c0,2.2,1,3.8,2.9,3.8
				C479.3,771.9,480.3,770.6,480.3,768.7z"/>
			<path class="st6" d="M483.9,772c0-0.8,0.5-1.3,1.2-1.3s1.2,0.5,1.2,1.3c0,0.7-0.5,1.3-1.2,1.3C484.4,773.3,483.9,772.7,483.9,772
				z"/>
			<path class="st6" d="M495.6,761c-0.4,0-0.8,0-1.4,0.1c-2.8,0.5-4.3,2.5-4.6,4.7h0.1c0.6-0.8,1.7-1.5,3.2-1.5c2.4,0,4,1.7,4,4.3
				c0,2.4-1.7,4.7-4.4,4.7c-2.9,0-4.7-2.2-4.7-5.7c0-2.6,0.9-4.7,2.3-6c1.1-1.1,2.6-1.8,4.3-2c0.5-0.1,1-0.1,1.3-0.1V761z
				 M495.1,768.7c0-1.9-1.1-3.1-2.7-3.1c-1.1,0-2.1,0.7-2.6,1.6c-0.1,0.2-0.2,0.5-0.2,0.8c0,2.2,1,3.8,2.9,3.8
				C494.1,771.9,495.1,770.6,495.1,768.7z"/>
			<path class="st6" d="M507.2,759.7v1.2l-5.8,12.1h-1.9l5.8-11.8v0h-6.5v-1.5H507.2z"/>
			<path class="st6" d="M517.9,758.8c-1.5,2-2.6,4.7-2.6,8.4c0,3.7,1.1,6.3,2.6,8.3h-1.4c-1.3-1.7-2.7-4.3-2.7-8.3
				c0-4,1.4-6.7,2.7-8.4H517.9z"/>
			<path class="st6" d="M519.2,773v-1.1l1.4-1.4c3.4-3.2,4.9-5,5-7c0-1.4-0.7-2.6-2.6-2.6c-1.2,0-2.2,0.6-2.8,1.1l-0.6-1.3
				c0.9-0.8,2.2-1.4,3.8-1.4c2.9,0,4.1,2,4.1,3.9c0,2.5-1.8,4.5-4.6,7.2l-1.1,1v0h6v1.5H519.2z"/>
			<path class="st6" d="M542.1,761.2H537l-0.5,3.4c0.3,0,0.6-0.1,1.1-0.1c1,0,2.1,0.2,2.9,0.7c1,0.6,1.9,1.7,1.9,3.4
				c0,2.6-2.1,4.6-5,4.6c-1.5,0-2.7-0.4-3.3-0.8l0.5-1.4c0.6,0.3,1.6,0.7,2.9,0.7c1.7,0,3.2-1.1,3.2-2.9c0-1.7-1.2-3-3.8-3
				c-0.8,0-1.4,0.1-1.8,0.1l0.9-6.4h6.4V761.2z"/>
			<path class="st6" d="M543.7,773.9l5.7-14.9h1.4l-5.7,14.9H543.7z"/>
			<path class="st6" d="M551.5,769.7c0-1.7,1-2.9,2.6-3.6l0-0.1c-1.5-0.7-2.1-1.8-2.1-3c0-2.1,1.8-3.5,4.1-3.5
				c2.6,0,3.9,1.6,3.9,3.3c0,1.1-0.6,2.3-2.2,3.1v0.1c1.7,0.7,2.7,1.8,2.7,3.4c0,2.3-2,3.9-4.5,3.9
				C553.2,773.3,551.5,771.6,551.5,769.7z M558.7,769.6c0-1.6-1.1-2.4-2.9-2.9c-1.6,0.5-2.4,1.5-2.4,2.7c-0.1,1.4,1,2.5,2.7,2.5
				C557.6,772,558.7,770.9,558.7,769.6z M553.7,762.9c0,1.3,1,2.1,2.5,2.5c1.1-0.4,2-1.2,2-2.4c0-1.1-0.6-2.2-2.3-2.2
				C554.5,760.8,553.7,761.8,553.7,762.9z"/>
			<path class="st6" d="M564.1,759l-0.3,4.9h-1.1l-0.3-4.9H564.1z M567.2,759l-0.3,4.9h-1.1l-0.3-4.9H567.2z"/>
			<path class="st6" d="M568.6,775.5c1.5-2,2.6-4.7,2.6-8.4c0-3.7-1.1-6.3-2.6-8.3h1.4c1.3,1.7,2.7,4.3,2.7,8.3c0,4-1.4,6.6-2.7,8.4
				H568.6z"/>
		</g>
		<g>
			<path class="st4" d="M509.5,748.2v-5.3l-4.8-7.2h2l2.5,3.8c0.5,0.7,0.9,1.4,1.3,2.1c0.4-0.7,0.8-1.4,1.4-2.2l2.4-3.7h1.9l-5,7.2
				v5.3H509.5z"/>
			<path class="st4" d="M509.5,79v-5.3l-4.8-7.2h2l2.5,3.8c0.5,0.7,0.9,1.4,1.3,2.1c0.4-0.7,0.8-1.4,1.4-2.2l2.4-3.7h1.9l-5,7.2V79
				H509.5z"/>
		</g>
		<g>
			<path class="st6" d="M186,266.2c0.7-0.5,1.9-1.2,3-1.7c1.7-0.8,3-1,4.1-0.7c0.9,0.3,1.6,1,2.1,1.9c0.8,1.7,0.2,3.2-0.9,4.3l0,0.1
				c1.1-0.1,2.1,0.5,3,1.7c1.2,1.6,2.1,2.6,2.6,3l-1.7,0.8c-0.4-0.3-1.2-1.2-2.2-2.6c-1.2-1.6-2.2-1.9-3.6-1.3l-1.5,0.7l2.5,5.4
				l-1.6,0.8L186,266.2z M190.3,271.2l1.7-0.8c1.7-0.8,2.4-2.3,1.7-3.7c-0.8-1.6-2.3-1.8-4-1c-0.8,0.4-1.3,0.7-1.5,0.9L190.3,271.2z
				"/>
		</g>
		<g>
			<path class="st6" d="M199.9,262L199.9,262l-1.6,2.1l-0.9-1.1l2-2.6l1.4-0.6l5.6,12.1l-1.6,0.7L199.9,262z"/>
		</g>
		<g>
			<path class="st6" d="M210.4,268.7c-0.3-0.7-0.1-1.4,0.6-1.7c0.7-0.3,1.3,0,1.6,0.7c0.3,0.7,0.1,1.4-0.6,1.7
				C211.4,269.7,210.8,269.4,210.4,268.7z"/>
		</g>
		<g>
			<path class="st6" d="M216.8,253.9l-4.6,2.1l1,3.3c0.3-0.2,0.5-0.3,1-0.5c0.9-0.4,2-0.7,2.9-0.6c1.2,0.1,2.5,0.8,3.2,2.3
				c1.1,2.4,0,5-2.6,6.2c-1.3,0.6-2.6,0.8-3.4,0.7l-0.2-1.4c0.6,0.1,1.8,0,2.9-0.5c1.5-0.7,2.4-2.3,1.6-4c-0.7-1.6-2.3-2.2-4.7-1.1
				c-0.7,0.3-1.2,0.6-1.6,0.9l-1.9-6.2l5.8-2.7L216.8,253.9z"/>
		</g>
		<g>
			<path class="st6" d="M229.2,261.1l-1.5-3.3l-5.6,2.6l-0.5-1.1l1.8-10.2l1.8-0.8l3.5,7.5l1.7-0.8l0.6,1.3l-1.7,0.8l1.5,3.3
				L229.2,261.1z M227.1,256.5l-1.9-4c-0.3-0.6-0.6-1.3-0.8-1.9l-0.1,0c0,0.9-0.1,1.5-0.2,2.3l-1,5.5l0,0L227.1,256.5z"/>
		</g>
		<g>
			<path class="st6" d="M235.7,242.4c-0.5,2.5-0.4,5.3,1.2,8.7c1.5,3.3,3.7,5.2,5.9,6.5l-1.3,0.6c-1.9-1-4.3-2.8-6-6.4
				c-1.7-3.7-1.6-6.6-1.1-8.7L235.7,242.4z"/>
		</g>
		<g>
			<path class="st6" d="M241.5,242.5L241.5,242.5l-1.6,2.1l-0.9-1.1l2-2.6l1.4-0.6l5.6,12.1l-1.6,0.7L241.5,242.5z"/>
		</g>
		<g>
			<path class="st6" d="M251.9,251.4l-1.1-15.9l1.3-0.6l1.1,15.9L251.9,251.4z"/>
		</g>
		<g>
			<path class="st6" d="M257.4,235L257.4,235l-1.6,2.1l-0.9-1.1l2-2.6l1.4-0.7l5.6,12.1l-1.6,0.7L257.4,235z"/>
		</g>
		<g>
			<path class="st6" d="M270.1,228.6c-0.3,0.1-0.8,0.4-1.2,0.6c-2.4,1.6-2.8,4.1-2.2,6.3l0.1,0c0.2-1,0.9-2.1,2.3-2.8
				c2.1-1,4.4-0.2,5.5,2.2c1,2.2,0.5,5-2,6.1c-2.6,1.2-5.2,0-6.7-3.2c-1.1-2.4-1.1-4.7-0.5-6.4c0.5-1.5,1.6-2.7,3-3.6
				c0.4-0.3,0.8-0.5,1.1-0.6L270.1,228.6z M272.9,235.8c-0.8-1.7-2.3-2.3-3.8-1.6c-1,0.5-1.6,1.5-1.6,2.6c0,0.2,0,0.5,0.2,0.8
				c1,2,2.6,3,4.3,2.2C273.3,239.2,273.7,237.6,272.9,235.8z"/>
		</g>
		<g>
			<path class="st6" d="M273.6,224.8l1.8,4.6l-1,0.5l-2.4-4.3L273.6,224.8z M276.4,223.5l1.8,4.6l-1,0.5l-2.4-4.3L276.4,223.5z"/>
		</g>
		<g>
			<path class="st6" d="M284.7,237.9c0.5-2.5,0.4-5.3-1.2-8.7c-1.6-3.3-3.7-5.2-5.9-6.5l1.3-0.6c1.9,1,4.3,2.8,6,6.4
				c1.7,3.6,1.6,6.6,1.1,8.7L284.7,237.9z"/>
		</g>
		<line class="st9" x1="193.2" y1="284.9" x2="325.7" y2="222.5"/>
		<polygon class="st4" points="324.8,227.4 337.5,216.7 321.2,219.7 		"/>
		<line class="st13" x1="305.7" y1="395.7" x2="452.2" y2="395.8"/>
		<polygon class="st4" points="449.2,399.9 465.3,395.6 449.2,391.3 		"/>
		<line class="st13" x1="480.8" y1="439.5" x2="518.1" y2="439.5"/>
		<polygon class="st4" points="484.4,444.6 464.4,439.3 484.4,433.9 		"/>
		<polygon class="st4" points="514.5,444.6 534.5,439.3 514.5,433.9 		"/>
		<line class="st9" x1="534.8" y1="439.4" x2="689.6" y2="439.4"/>
		<g>
			<path class="st6" d="M609.7,419.8c-0.4,0-0.8,0-1.4,0.1c-2.8,0.5-4.3,2.5-4.7,4.7l0.1,0c0.6-0.8,1.8-1.5,3.2-1.5
				c2.4,0,4,1.7,4,4.3c0,2.4-1.7,4.7-4.5,4.7c-2.9,0-4.7-2.2-4.7-5.7c0-2.6,1-4.7,2.3-6c1.1-1.1,2.6-1.7,4.3-1.9
				c0.5-0.1,1-0.1,1.3-0.1L609.7,419.8z M609.1,427.5c0-1.9-1.1-3.1-2.7-3.1c-1.1,0-2.1,0.7-2.6,1.6c-0.1,0.2-0.2,0.5-0.2,0.8
				c0,2.2,1,3.8,2.9,3.8C608,430.7,609.1,429.4,609.1,427.5z"/>
		</g>
		<g>
			<path class="st6" d="M612.7,430.9c0-0.8,0.5-1.3,1.2-1.3s1.2,0.5,1.2,1.3c0,0.7-0.5,1.3-1.2,1.3
				C613.2,432.1,612.7,431.6,612.7,430.9z"/>
			<path class="st6" d="M617.2,429.9c0.5,0.3,1.7,0.9,2.9,0.9c2.3,0,3-1.5,3-2.6c0-1.9-1.7-2.7-3.4-2.7l-1,0l0-1.4l1,0
				c1.3,0,3-0.7,3-2.2c0-1.1-0.7-2-2.3-2c-1.1,0-2.1,0.5-2.7,0.9l-0.5-1.3c0.7-0.5,2.1-1,3.5-1c2.6,0,3.8,1.6,3.8,3.2
				c0,1.4-0.8,2.5-2.5,3.1v0c1.6,0.3,3,1.6,3,3.4c0,2.1-1.7,4-4.9,4c-1.5,0-2.8-0.5-3.5-0.9L617.2,429.9z"/>
		</g>
		<g>
			<path class="st6" d="M635.3,420.2l-5.1,0l-0.5,3.4c0.3,0,0.6-0.1,1.1-0.1c1,0,2,0.2,2.9,0.7c1,0.6,1.9,1.8,1.9,3.4
				c0,2.6-2.1,4.5-5,4.5c-1.5,0-2.7-0.4-3.3-0.8l0.5-1.4c0.6,0.3,1.6,0.7,2.8,0.8c1.7,0,3.2-1.1,3.2-2.9c0-1.7-1.2-3-3.8-3
				c-0.8,0-1.4,0.1-1.8,0.1l0.9-6.4l6.4,0L635.3,420.2z"/>
		</g>
		<g>
			<path class="st6" d="M646.8,417.9c-1.5,2-2.6,4.7-2.6,8.4c0,3.7,1.1,6.3,2.5,8.3l-1.4,0c-1.3-1.7-2.7-4.3-2.6-8.3
				c0-4,1.4-6.7,2.7-8.4L646.8,417.9z"/>
		</g>
		<g>
			<path class="st6" d="M652,420.5L652,420.5l-2.4,1.2l-0.3-1.4l2.9-1.5l1.5,0l-0.1,13.3l-1.7,0L652,420.5z"/>
		</g>
		<g>
			<path class="st6" d="M657.6,433l5.8-14.8l1.4,0L659,433L657.6,433z"/>
			<path class="st6" d="M671.2,432.3l0-3.6l-6.2,0l0-1.2l6-8.5l1.9,0l0,8.3l1.9,0l0,1.4l-1.9,0l0,3.6L671.2,432.3z M671.2,427.2
				l0-4.5c0-0.7,0-1.4,0.1-2.1l-0.1,0c-0.4,0.8-0.7,1.3-1.1,2l-3.3,4.5v0L671.2,427.2z"/>
		</g>
		<g>
			<path class="st6" d="M678.2,418.3l-0.4,4.9l-1.1,0l-0.3-4.9L678.2,418.3z M681.2,418.3l-0.4,4.9l-1.1,0l-0.3-4.9L681.2,418.3z"/>
			<path class="st6" d="M682.6,434.8c1.5-2,2.6-4.7,2.6-8.4c0-3.7-1.1-6.3-2.5-8.3l1.4,0c1.3,1.7,2.7,4.3,2.6,8.4
				c0,4-1.4,6.6-2.7,8.4L682.6,434.8z"/>
		</g>
		<g>
			<path class="st6" d="M30.9,772.8c0.7-0.5,1.9-1.2,3-1.7c1.7-0.8,3-1,4.1-0.7c0.9,0.3,1.6,1,2.1,1.9c0.8,1.7,0.2,3.2-0.9,4.3
				l0,0.1c1.1-0.1,2.1,0.5,3,1.7c1.2,1.6,2.1,2.6,2.6,3l-1.7,0.8c-0.4-0.3-1.2-1.2-2.2-2.6c-1.2-1.6-2.2-1.9-3.6-1.3l-1.5,0.7
				l2.5,5.4l-1.6,0.8L30.9,772.8z M35.2,777.7l1.7-0.8c1.7-0.8,2.4-2.3,1.7-3.7c-0.8-1.6-2.3-1.8-4-1c-0.8,0.4-1.3,0.7-1.5,0.9
				L35.2,777.7z"/>
		</g>
		<g>
			<path class="st6" d="M44.8,768.5L44.8,768.5l-1.6,2.1l-0.9-1.1l2-2.6l1.4-0.7l5.6,12.1l-1.6,0.7L44.8,768.5z"/>
		</g>
		<g>
			<path class="st6" d="M55.3,775.2c-0.3-0.7-0.1-1.4,0.6-1.7c0.7-0.3,1.3,0,1.6,0.7c0.3,0.7,0.1,1.4-0.6,1.7
				C56.3,776.2,55.6,775.9,55.3,775.2z"/>
		</g>
		<g>
			<path class="st6" d="M61.7,760.4l-4.6,2.2l1,3.3c0.3-0.2,0.5-0.3,1-0.5c0.9-0.4,2-0.7,2.9-0.6c1.2,0.1,2.5,0.8,3.2,2.3
				c1.1,2.4,0,5-2.6,6.2c-1.3,0.6-2.6,0.8-3.4,0.7l-0.2-1.4c0.6,0.1,1.8,0,2.9-0.5c1.5-0.7,2.4-2.3,1.6-4c-0.7-1.6-2.3-2.2-4.7-1.1
				c-0.7,0.3-1.2,0.6-1.6,0.9l-1.9-6.2l5.8-2.7L61.7,760.4z"/>
		</g>
		<g>
			<path class="st6" d="M74.1,767.6l-1.5-3.3l-5.6,2.6l-0.5-1.1l1.8-10.2l1.8-0.8l3.5,7.5l1.7-0.8l0.6,1.3l-1.7,0.8l1.5,3.3
				L74.1,767.6z M72,763.1l-1.9-4c-0.3-0.6-0.6-1.3-0.8-1.9l-0.1,0c0,0.9-0.1,1.5-0.2,2.3l-1,5.5l0,0L72,763.1z"/>
		</g>
		<g>
			<path class="st6" d="M80.6,748.9c-0.5,2.5-0.4,5.3,1.2,8.7c1.5,3.3,3.7,5.2,5.9,6.5l-1.3,0.6c-1.9-1-4.3-2.8-6-6.4
				c-1.7-3.7-1.6-6.6-1.1-8.7L80.6,748.9z"/>
		</g>
		<g>
			<path class="st6" d="M86.4,749L86.4,749l-1.6,2.1l-0.9-1.1l2-2.6l1.4-0.7l5.6,12.1l-1.6,0.7L86.4,749z"/>
		</g>
		<g>
			<path class="st6" d="M96.8,757.9L95.7,742l1.3-0.6l1.1,15.9L96.8,757.9z"/>
		</g>
		<g>
			<path class="st6" d="M102.3,741.6L102.3,741.6l-1.6,2.1l-0.9-1.1l2-2.6l1.4-0.6l5.6,12.1l-1.6,0.7L102.3,741.6z"/>
		</g>
		<g>
			<path class="st6" d="M115,735.2c-0.3,0.1-0.8,0.4-1.2,0.6c-2.4,1.6-2.8,4.1-2.2,6.3l0.1,0c0.2-1,0.9-2.1,2.3-2.8
				c2.1-1,4.4-0.2,5.5,2.2c1,2.2,0.5,5-2,6.1c-2.6,1.2-5.2,0-6.7-3.2c-1.1-2.4-1.1-4.7-0.5-6.4c0.5-1.5,1.6-2.7,3-3.6
				c0.4-0.3,0.8-0.5,1.1-0.6L115,735.2z M117.8,742.3c-0.8-1.7-2.3-2.3-3.8-1.6c-1,0.5-1.6,1.5-1.6,2.6c0,0.2,0,0.5,0.2,0.8
				c1,2,2.6,3,4.3,2.2C118.2,745.7,118.6,744.1,117.8,742.3z"/>
		</g>
		<g>
			<path class="st6" d="M118.5,731.3l1.8,4.6l-1,0.5l-2.4-4.3L118.5,731.3z M121.3,730l1.8,4.6l-1,0.5l-2.4-4.3L121.3,730z"/>
		</g>
		<g>
			<path class="st6" d="M129.6,744.4c0.5-2.5,0.4-5.3-1.2-8.7c-1.6-3.3-3.7-5.2-5.9-6.5l1.3-0.6c1.9,1,4.3,2.8,6,6.4
				c1.7,3.6,1.6,6.6,1.1,8.7L129.6,744.4z"/>
		</g>
		<line class="st13" x1="38.1" y1="791.4" x2="170.6" y2="729"/>
		<polygon class="st4" points="169.7,734 182.4,723.3 166.1,726.2 		"/>
		<g>
			<path class="st6" d="M580.8,568.7c0.7-0.5,1.9-1.2,3-1.7c1.7-0.8,3-1,4.1-0.7c0.9,0.3,1.6,1,2.1,1.9c0.8,1.7,0.2,3.2-0.9,4.3
				l0,0.1c1.1-0.1,2.1,0.5,3,1.7c1.2,1.6,2.1,2.6,2.6,3l-1.7,0.8c-0.4-0.3-1.2-1.2-2.2-2.6c-1.2-1.6-2.2-1.9-3.6-1.3l-1.5,0.7
				l2.5,5.4l-1.6,0.8L580.8,568.7z M585.1,573.6l1.7-0.8c1.7-0.8,2.4-2.3,1.7-3.7c-0.8-1.6-2.3-1.8-4-1c-0.8,0.4-1.3,0.7-1.5,0.9
				L585.1,573.6z"/>
		</g>
		<g>
			<path class="st6" d="M601.1,574.3l-1.5-3.3l-5.6,2.6l-0.5-1.1l1.8-10.2l1.8-0.8l3.5,7.5l1.7-0.8l0.6,1.3l-1.7,0.8l1.5,3.3
				L601.1,574.3z M598.9,569.7l-1.9-4c-0.3-0.6-0.6-1.3-0.8-1.9l-0.1,0c0,0.9-0.1,1.5-0.2,2.3l-1,5.5l0,0L598.9,569.7z"/>
		</g>
		<g>
			<path class="st6" d="M605.2,571.1c-0.3-0.7-0.1-1.4,0.6-1.7c0.7-0.3,1.3,0,1.6,0.7c0.3,0.7,0.1,1.4-0.6,1.7
				C606.2,572.1,605.5,571.8,605.2,571.1z"/>
		</g>
		<g>
			<path class="st6" d="M611.6,554.6l0.5,1.1l-0.1,13.5l-1.7,0.8l0.3-13.1l0,0l-5.9,2.8l-0.6-1.4L611.6,554.6z"/>
		</g>
		<g>
			<path class="st6" d="M617.3,562.9c-0.7-1.5-0.3-3,0.9-4.4l0,0c-1.6,0-2.7-0.8-3.2-1.8c-0.9-1.9,0.1-4,2.2-5
				c2.3-1.1,4.2-0.2,4.9,1.3c0.5,1,0.5,2.4-0.7,3.8l0,0.1c1.8-0.1,3.2,0.5,3.9,2c1,2.1-0.2,4.4-2.5,5.4
				C620.4,565.5,618.2,564.7,617.3,562.9z M616.5,555.9c0.6,1.2,1.8,1.4,3.3,1.2c0.9-0.8,1.3-2,0.8-3.1c-0.5-1-1.5-1.7-3-1
				C616.3,553.6,616,554.8,616.5,555.9z M623.8,559.8c-0.7-1.5-2-1.7-3.9-1.4c-1.2,1.1-1.6,2.4-1,3.5c0.5,1.3,1.9,1.9,3.5,1.2
				C623.9,562.4,624.4,561,623.8,559.8z"/>
		</g>
		<g>
			<path class="st6" d="M630.4,544.8c-0.5,2.5-0.4,5.3,1.2,8.7c1.5,3.3,3.7,5.2,5.9,6.5l-1.3,0.6c-1.9-1-4.3-2.8-6-6.4
				c-1.7-3.7-1.6-6.6-1.1-8.7L630.4,544.8z"/>
		</g>
		<g>
			<path class="st6" d="M637.2,555.1c0.6,0.1,1.9,0,3-0.5c2.1-1,2.1-2.6,1.6-3.6c-0.8-1.7-2.7-1.7-4.2-1l-0.9,0.4l-0.6-1.2l0.9-0.4
				c1.2-0.6,2.4-1.9,1.7-3.3c-0.5-1-1.5-1.5-3-0.8c-1,0.5-1.7,1.3-2,1.9l-1-1c0.4-0.8,1.4-1.8,2.7-2.4c2.4-1.1,4.1-0.2,4.8,1.3
				c0.6,1.2,0.3,2.7-0.9,3.9l0,0c1.6-0.4,3.4,0.2,4.1,1.8c0.9,1.9,0.2,4.3-2.7,5.7c-1.4,0.6-2.7,0.8-3.5,0.6L637.2,555.1z"/>
		</g>
		<g>
			<path class="st6" d="M646.7,553.8l-1.1-15.9l1.3-0.6l1.1,15.9L646.7,553.8z"/>
		</g>
		<g>
			<path class="st6" d="M652.2,537.5L652.2,537.5l-1.6,2.1l-0.9-1.1l2-2.6l1.4-0.7l5.6,12.1l-1.6,0.7L652.2,537.5z"/>
		</g>
		<g>
			<path class="st6" d="M664.9,531.1c-0.3,0.1-0.8,0.4-1.2,0.6c-2.4,1.6-2.8,4.1-2.2,6.3l0.1,0c0.2-1,0.9-2.1,2.3-2.8
				c2.1-1,4.4-0.2,5.5,2.2c1,2.2,0.5,5-2,6.1c-2.6,1.2-5.2,0-6.7-3.2c-1.1-2.4-1.1-4.7-0.5-6.4c0.5-1.5,1.6-2.7,3-3.6
				c0.4-0.3,0.8-0.5,1.1-0.6L664.9,531.1z M667.7,538.3c-0.8-1.7-2.3-2.3-3.8-1.6c-1,0.5-1.6,1.5-1.6,2.6c0,0.2,0,0.5,0.2,0.8
				c1,2,2.6,3,4.3,2.2C668.1,541.6,668.5,540,667.7,538.3z"/>
		</g>
		<g>
			<path class="st6" d="M668.4,527.2l1.8,4.6l-1,0.5l-2.4-4.3L668.4,527.2z M671.2,525.9l1.8,4.6l-1,0.5l-2.4-4.3L671.2,525.9z"/>
		</g>
		<g>
			<path class="st6" d="M679.5,540.3c0.5-2.5,0.4-5.3-1.2-8.7c-1.6-3.3-3.7-5.2-5.9-6.5l1.3-0.6c1.9,1,4.3,2.8,6,6.4
				c1.7,3.6,1.6,6.6,1.1,8.7L679.5,540.3z"/>
		</g>
		<line class="st9" x1="684.4" y1="543.5" x2="551.9" y2="605.9"/>
		<polygon class="st4" points="552.8,600.9 540.1,611.7 556.4,608.7 		"/>
		<g>
			<path class="st6" d="M598.4,281.8c0.8,0.4,1.9,1.2,2.8,1.9c1.5,1.2,2.2,2.2,2.4,3.4c0.2,0.9-0.1,1.9-0.8,2.7
				c-1.1,1.4-2.8,1.6-4.2,1.1l0,0c0.6,1,0.5,2.1-0.2,3.4c-0.9,1.8-1.4,3-1.6,3.6l-1.4-1.2c0.1-0.4,0.6-1.6,1.4-3.1
				c0.9-1.7,0.8-2.8-0.5-3.8l-1.3-1.1l-3.8,4.7l-1.4-1.1L598.4,281.8z M595.8,287.8l1.4,1.1c1.5,1.2,3.1,1.1,4.1-0.1
				c1.1-1.4,0.6-2.8-0.8-4c-0.7-0.5-1.2-0.9-1.5-1L595.8,287.8z"/>
		</g>
		<g>
			<path class="st6" d="M602.2,302.4l2.3-2.8l-4.8-3.9l0.7-0.9l10-2.9l1.5,1.2l-5.2,6.4l1.5,1.2l-0.9,1.1l-1.5-1.2l-2.3,2.8
				L602.2,302.4z M605.4,298.5l2.8-3.5c0.4-0.5,0.9-1.1,1.4-1.6l0,0c-0.8,0.3-1.4,0.6-2.1,0.8l-5.4,1.5l0,0L605.4,298.5z"/>
		</g>
		<g>
			<path class="st6" d="M606.9,304.8c0.5-0.6,1.2-0.7,1.8-0.2s0.6,1.2,0.1,1.8c-0.5,0.6-1.2,0.7-1.8,0.2
				C606.4,306.1,606.4,305.4,606.9,304.8z"/>
		</g>
		<g>
			<path class="st6" d="M624.5,303.3l-0.7,0.9l-12.2,5.8l-1.5-1.2l11.9-5.5l0,0l-5.1-4.1l0.9-1.2L624.5,303.3z"/>
		</g>
		<g>
			<path class="st6" d="M619.6,312.1c1.1-1.3,2.6-1.6,4.3-1.1l0-0.1c-0.7-1.5-0.5-2.8,0.2-3.7c1.3-1.6,3.6-1.6,5.4-0.2
				c2,1.6,2,3.7,0.9,5c-0.7,0.9-1.9,1.5-3.7,1l0,0c0.9,1.6,0.9,3.1-0.1,4.4c-1.5,1.8-4,1.8-6,0.2
				C618.6,315.9,618.3,313.6,619.6,312.1z M625.2,316.5c1-1.3,0.6-2.6-0.4-4.1c-1.5-0.6-2.8-0.4-3.6,0.6c-0.9,1-0.9,2.6,0.5,3.7
				C622.9,317.7,624.3,317.6,625.2,316.5z M625.5,308.2c-0.8,1-0.5,2.2,0.4,3.5c1.1,0.4,2.3,0.3,3.1-0.6c0.7-0.8,0.9-2.1-0.4-3.1
				C627.5,307.1,626.3,307.3,625.5,308.2z"/>
		</g>
		<g>
			<path class="st6" d="M641.6,315.9c-2.4,0.6-5,2-7.3,4.9c-2.3,2.8-3.1,5.6-3.2,8.1L630,328c0.1-2.1,0.6-5.1,3.2-8.2
				c2.6-3.1,5.3-4.3,7.4-4.8L641.6,315.9z"/>
		</g>
		<g>
			<path class="st6" d="M635.3,326.5c0.2,0.6,0.8,1.7,1.8,2.5c1.8,1.5,3.3,0.8,4-0.1c1.2-1.5,0.4-3.1-1-4.2l-0.8-0.6l0.9-1.1
				l0.8,0.6c1,0.8,2.7,1.3,3.7,0.1c0.7-0.8,0.7-2-0.6-3c-0.8-0.7-1.9-0.9-2.6-1l0.5-1.3c0.9,0,2.2,0.5,3.4,1.4c2,1.7,2,3.6,1,4.9
				c-0.9,1.1-2.2,1.5-3.9,0.9l0,0c1.1,1.3,1.3,3.1,0.2,4.5c-1.3,1.7-3.8,2.1-6.3,0c-1.2-0.9-1.9-2.1-2.1-2.9L635.3,326.5z"/>
		</g>
		<g>
			<path class="st6" d="M640.6,334.5l13.8-8l1.1,0.9l-13.8,7.9L640.6,334.5z"/>
		</g>
		<g>
			<path class="st6" d="M657.7,332.3L657.7,332.3l-2.6-0.5l0.6-1.3l3.2,0.6l1.2,1l-8.4,10.4l-1.4-1.1L657.7,332.3z"/>
		</g>
		<g>
			<path class="st6" d="M669,340.9c-0.3-0.2-0.7-0.5-1.1-0.8c-2.5-1.4-5-0.7-6.6,0.8l0,0c1-0.3,2.3-0.1,3.5,0.8
				c1.8,1.5,2.1,3.9,0.4,5.9c-1.5,1.9-4.2,2.6-6.4,0.9c-2.2-1.8-2.3-4.7-0.1-7.4c1.7-2,3.7-3.1,5.5-3.2c1.5-0.1,3.1,0.3,4.6,1.2
				c0.5,0.3,0.8,0.5,1.1,0.7L669,340.9z M663.8,346.5c1.2-1.5,1.1-3.1-0.2-4.1c-0.8-0.7-2.1-0.8-3-0.4c-0.2,0.1-0.5,0.2-0.7,0.5
				c-1.3,1.7-1.6,3.6-0.1,4.8C661,348.4,662.6,348,663.8,346.5z"/>
		</g>
		<g>
			<path class="st6" d="M674,342.4l-3.4,3.6l-0.9-0.7l2.8-4L674,342.4z M676.4,344.3l-3.4,3.6l-0.8-0.7l2.8-4L676.4,344.3z"/>
		</g>
		<g>
			<path class="st6" d="M667.1,358c2.4-0.7,5-2,7.3-4.9c2.3-2.9,3.1-5.6,3.2-8.1l1.1,0.9c0,2.1-0.6,5-3.2,8.2
				c-2.5,3.1-5.2,4.3-7.4,4.8L667.1,358z"/>
		</g>
		<line class="st9" x1="666.4" y1="363.8" x2="552.3" y2="272"/>
		<polygon class="st4" points="557.1,270.6 541.9,263.9 551.7,277.3 		"/>
		<g>
			<path class="st6" d="M409.8,127.6c0.7,0.6,1.6,1.5,2.4,2.4c1.2,1.5,1.8,2.6,1.7,3.8c0,0.9-0.5,1.8-1.3,2.5
				c-1.4,1.2-3.1,1.1-4.4,0.3l0,0c0.4,1.1,0.1,2.2-0.8,3.4c-1.2,1.6-2,2.7-2.2,3.3l-1.2-1.4c0.1-0.4,0.9-1.4,1.9-2.8
				c1.2-1.5,1.3-2.6,0.2-3.8l-1.1-1.3l-4.6,3.9l-1.2-1.4L409.8,127.6z M406.1,133.1l1.2,1.4c1.2,1.5,2.8,1.7,4,0.7
				c1.4-1.2,1.1-2.6-0.1-4.1c-0.6-0.7-1-1.1-1.3-1.2L406.1,133.1z"/>
		</g>
		<g>
			<path class="st6" d="M420.3,142.3c-0.2-0.3-0.5-0.6-0.9-1c-2.2-1.8-4.7-1.6-6.6-0.5l0,0c1.1-0.1,2.3,0.3,3.3,1.5
				c1.5,1.8,1.3,4.2-0.7,5.9c-1.9,1.6-4.7,1.8-6.4-0.3c-1.9-2.2-1.4-5,1.3-7.3c2-1.7,4.2-2.3,6-2.2c1.5,0.1,3,0.8,4.3,2
				c0.4,0.4,0.7,0.7,0.9,0.9L420.3,142.3z M414.1,146.9c1.5-1.2,1.6-2.8,0.5-4.1c-0.7-0.8-1.9-1.2-2.9-0.9c-0.2,0-0.5,0.1-0.7,0.4
				c-1.6,1.5-2.2,3.3-1,4.7C411,148.2,412.7,148.2,414.1,146.9z"/>
		</g>
		<g>
			<path class="st6" d="M413.9,151.8c0.6-0.5,1.3-0.4,1.8,0.1s0.4,1.3-0.2,1.8c-0.6,0.5-1.3,0.5-1.8-0.1
				C413.3,153,413.4,152.3,413.9,151.8z"/>
		</g>
		<g>
			<path class="st6" d="M417.6,154.6c0.1,0.6,0.5,1.8,1.3,2.8c1.5,1.8,3.1,1.4,3.9,0.6c1.4-1.2,0.9-3-0.2-4.4l-0.7-0.8l1-0.9
				l0.7,0.8c0.9,1,2.4,1.8,3.6,0.8c0.8-0.7,1.1-1.8,0-3.1c-0.7-0.8-1.7-1.3-2.4-1.5l0.7-1.2c0.8,0.2,2.1,0.9,3,2
				c1.7,2,1.3,3.9,0.1,5c-1,0.9-2.5,1-4,0.2l0,0c0.8,1.5,0.7,3.3-0.7,4.5c-1.6,1.4-4.1,1.3-6.2-1.1c-1-1.1-1.5-2.4-1.6-3.2
				L417.6,154.6z"/>
		</g>
		<g>
			<path class="st6" d="M436.8,162l-3.3-3.9l-2.9,1.8c0.2,0.2,0.4,0.4,0.8,0.8c0.7,0.8,1.2,1.7,1.3,2.6c0.2,1.2-0.1,2.6-1.4,3.7
				c-2,1.7-4.8,1.4-6.7-0.8c-0.9-1.1-1.4-2.3-1.5-3.1l1.3-0.5c0.1,0.6,0.5,1.7,1.3,2.6c1.1,1.3,2.9,1.7,4.2,0.5
				c1.3-1.1,1.5-2.8-0.2-4.8c-0.5-0.6-0.9-1-1.3-1.3l5.4-3.5l4.1,4.9L436.8,162z"/>
		</g>
		<g>
			<path class="st6" d="M446,169.1c-2.5,0.2-5.2,1.1-8.1,3.5c-2.8,2.4-4,4.9-4.7,7.4l-0.9-1.1c0.5-2.1,1.5-4.9,4.6-7.4
				c3.1-2.6,6-3.3,8.1-3.4L446,169.1z"/>
		</g>
		<g>
			<path class="st6" d="M447.5,174.8L447.5,174.8l-2.5-1l0.8-1.2l3.1,1.2l1,1.2l-10.1,8.7l-1.1-1.3L447.5,174.8z"/>
		</g>
		<g>
			<path class="st6" d="M441.7,187.1l15-5.3l0.9,1.1l-15,5.3L441.7,187.1z"/>
		</g>
		<g>
			<path class="st6" d="M451.1,196.9l2.8-2.4l-4-4.7l0.9-0.8l10.3-1l1.3,1.5l-6.3,5.4l1.2,1.4l-1.1,0.9l-1.2-1.4l-2.8,2.4
				L451.1,196.9z M454.9,193.7l3.4-2.9c0.5-0.5,1.1-0.9,1.6-1.3l0,0c-0.9,0.2-1.5,0.3-2.2,0.4l-5.6,0.5l0,0L454.9,193.7z"/>
		</g>
		<g>
			<path class="st6" d="M466.3,193l-4,2.9l-0.7-0.8l3.5-3.4L466.3,193z M468.2,195.3l-4,2.9l-0.7-0.8l3.5-3.5L468.2,195.3z"/>
		</g>
		<g>
			<path class="st6" d="M456.6,207.2c2.5-0.2,5.2-1.1,8.1-3.5c2.8-2.4,4.1-4.9,4.7-7.4l0.9,1.1c-0.4,2.1-1.5,4.8-4.6,7.5
				c-3.1,2.6-5.9,3.3-8.1,3.4L456.6,207.2z"/>
		</g>
		<line class="st9" x1="454.3" y1="211.8" x2="366.3" y2="109.5"/>
		<polygon class="st4" points="371.3,109.1 357.6,99.7 364.8,114.7 		"/>
		<line class="st9" x1="549.9" y1="225.5" x2="549.9" y2="95.5"/>
		<polygon class="st4" points="554,98.4 549.7,82.4 545.4,98.4 		"/>
		<g>
			<path class="st6" d="M77.4,648.7h-1.1l-1.4-1.4c-3.2-3.4-5-4.9-7-5c-1.4,0-2.6,0.7-2.6,2.6c0,1.2,0.6,2.2,1.1,2.8l-1.3,0.6
				c-0.8-0.9-1.4-2.2-1.4-3.8c0-2.9,2-4.1,3.9-4.1c2.5,0,4.5,1.8,7.2,4.6l1,1.1h0v-6h1.5V648.7z"/>
			<path class="st6" d="M76.2,637.1c0-0.4,0-0.8-0.1-1.5c-0.1-1-0.6-2-1.3-2.8c-0.8-0.9-2-1.5-3.5-1.8v0.1c0.9,0.7,1.4,1.8,1.4,3.1
				c0,2.4-1.8,3.9-4.1,3.9c-2.5,0-4.7-1.8-4.7-4.6s2.2-4.4,5.6-4.4c2.9,0,5,1,6.3,2.3c1,1,1.6,2.4,1.8,3.9c0.1,0.7,0.1,1.2,0.1,1.7
				H76.2z M68.5,636.5c1.7,0,2.8-1,2.8-2.6c0-1.2-0.6-2.2-1.4-2.6c-0.2-0.1-0.4-0.2-0.7-0.2c-2.3,0-4,0.8-4,2.7
				C65.3,635.4,66.6,636.5,68.5,636.5z"/>
			<path class="st6" d="M76.4,627.5c-0.8,0-1.3-0.5-1.3-1.2s0.5-1.2,1.3-1.2c0.7,0,1.3,0.5,1.3,1.2C77.7,627,77.1,627.5,76.4,627.5z
				"/>
			<path class="st6" d="M64.1,614.8h1.2l12.1,5.8v1.9l-11.8-5.8h0v6.5h-1.5V614.8z"/>
			<path class="st6" d="M64.1,604.2h1.2l12.1,5.8v1.9l-11.8-5.8h0v6.5h-1.5V604.2z"/>
			<path class="st6" d="M63.2,593.5c2,1.5,4.7,2.6,8.4,2.6c3.7,0,6.3-1.1,8.3-2.6v1.4c-1.7,1.3-4.3,2.7-8.3,2.7
				c-4,0-6.7-1.4-8.4-2.7V593.5z"/>
			<path class="st6" d="M65.8,588.3L65.8,588.3l1.3,2.4l-1.4,0.3l-1.6-2.9v-1.5h13.3v1.7H65.8z"/>
			<path class="st6" d="M65.8,573.4L65.8,573.4l1.3,2.4l-1.4,0.3l-1.6-2.9v-1.5h13.3v1.7H65.8z"/>
			<path class="st6" d="M65.8,562.9L65.8,562.9l1.3,2.4l-1.4,0.3l-1.6-2.9v-1.5h13.3v1.7H65.8z"/>
			<path class="st6" d="M78.3,557.2l-14.9-5.7v-1.4l14.9,5.7V557.2z"/>
			<path class="st6" d="M65.4,541.6c0,0.4,0,0.8,0.1,1.4c0.5,2.8,2.5,4.3,4.7,4.6v-0.1c-0.8-0.6-1.5-1.7-1.5-3.2c0-2.4,1.7-4,4.3-4
				c2.4,0,4.7,1.7,4.7,4.4c0,2.9-2.2,4.7-5.7,4.7c-2.6,0-4.7-0.9-6-2.3c-1.1-1.1-1.8-2.6-2-4.3c-0.1-0.5-0.1-1-0.1-1.3H65.4z
				 M73.1,542.1c-1.9,0-3.1,1.1-3.1,2.7c0,1.1,0.7,2.1,1.6,2.6c0.2,0.1,0.5,0.2,0.8,0.2c2.2,0,3.8-1,3.8-2.9
				C76.3,543.2,75,542.1,73.1,542.1z"/>
			<path class="st6" d="M77.4,533.1h-3.6v6.2h-1.2l-8.5-5.9v-1.9h8.3v-1.9h1.4v1.9h3.6V533.1z M72.4,533.1H68c-0.7,0-1.4,0-2.1-0.1
				v0.1c0.8,0.4,1.4,0.7,2,1.1l4.5,3.3h0V533.1z"/>
			<path class="st6" d="M63.4,523.2l4.9,0.3v1.1l-4.9,0.3V523.2z M63.4,526.3l4.9,0.3v1.1l-4.9,0.3V526.3z"/>
		</g>
		<g>
			<path class="st6" d="M79.9,521.7c-2-1.5-4.7-2.6-8.4-2.6c-3.7,0-6.3,1.1-8.3,2.6v-1.4c1.7-1.3,4.3-2.7,8.3-2.7
				c4,0,6.6,1.4,8.4,2.7V521.7z"/>
		</g>
		<line class="st9" x1="351.3" y1="42.5" x2="648.7" y2="42.5"/>
		<polygon class="st4" points="355,47.7 335,42.3 355,36.9 		"/>
		<polygon class="st4" points="645.1,47.7 665.1,42.3 645.1,36.9 		"/>
		<g>
			<path class="st6" d="M463,33.8c0.5,0.3,1.7,0.8,3,0.8c2.3,0,3-1.5,3-2.6c0-1.9-1.7-2.7-3.4-2.7h-1V28h1c1.3,0,3-0.7,3-2.3
				c0-1.1-0.7-2-2.3-2c-1.1,0-2.1,0.5-2.7,0.9l-0.5-1.3c0.7-0.5,2.1-1,3.5-1c2.6,0,3.8,1.6,3.8,3.2c0,1.4-0.8,2.5-2.5,3.1v0
				c1.6,0.3,3,1.6,3,3.4c0,2.1-1.7,4-4.9,4c-1.5,0-2.8-0.5-3.5-0.9L463,33.8z"/>
			<path class="st6" d="M478.6,35.8v-3.6h-6.2V31l5.9-8.5h1.9v8.3h1.9v1.4h-1.9v3.6H478.6z M478.6,30.8v-4.5c0-0.7,0-1.4,0.1-2.1
				h-0.1c-0.4,0.8-0.7,1.4-1.1,2l-3.3,4.5v0H478.6z"/>
			<path class="st6" d="M483.7,34.8c0-0.8,0.5-1.3,1.2-1.3s1.2,0.5,1.2,1.3c0,0.7-0.5,1.3-1.2,1.3C484.2,36.1,483.7,35.5,483.7,34.8
				z"/>
			<path class="st6" d="M491.8,24.2L491.8,24.2l-2.4,1.3l-0.3-1.4l2.9-1.6h1.5v13.3h-1.7V24.2z"/>
			<path class="st6" d="M498.8,33.8c0.5,0.3,1.7,0.8,3,0.8c2.3,0,3-1.5,3-2.6c0-1.9-1.7-2.7-3.4-2.7h-1V28h1c1.3,0,3-0.7,3-2.3
				c0-1.1-0.7-2-2.3-2c-1.1,0-2.1,0.5-2.7,0.9l-0.5-1.3c0.7-0.5,2.1-1,3.5-1c2.6,0,3.8,1.6,3.8,3.2c0,1.4-0.8,2.5-2.5,3.1v0
				c1.6,0.3,3,1.6,3,3.4c0,2.1-1.7,4-4.9,4c-1.5,0-2.8-0.5-3.5-0.9L498.8,33.8z"/>
			<path class="st6" d="M517.7,21.6c-1.5,2-2.6,4.7-2.6,8.4c0,3.7,1.1,6.3,2.6,8.3h-1.4c-1.3-1.7-2.7-4.3-2.7-8.3
				c0-4,1.4-6.7,2.7-8.4H517.7z"/>
			<path class="st6" d="M523,24.2L523,24.2l-2.4,1.3l-0.3-1.4l2.9-1.6h1.5v13.3H523V24.2z"/>
			<path class="st6" d="M537.9,24.2L537.9,24.2l-2.4,1.3l-0.3-1.4l2.9-1.6h1.5v13.3h-1.7V24.2z"/>
			<path class="st6" d="M548.4,24.2L548.4,24.2l-2.4,1.3l-0.3-1.4l2.9-1.6h1.5v13.3h-1.7V24.2z"/>
			<path class="st6" d="M554,36.7l5.7-14.9h1.4l-5.7,14.9H554z"/>
			<path class="st6" d="M562.4,33.8c0.5,0.3,1.7,0.8,3,0.8c2.3,0,3-1.5,3-2.6c0-1.9-1.7-2.7-3.4-2.7h-1V28h1c1.3,0,3-0.7,3-2.3
				c0-1.1-0.7-2-2.3-2c-1.1,0-2.1,0.5-2.7,0.9l-0.5-1.3c0.7-0.5,2.1-1,3.5-1c2.6,0,3.8,1.6,3.8,3.2c0,1.4-0.8,2.5-2.5,3.1v0
				c1.6,0.3,3,1.6,3,3.4c0,2.1-1.7,4-4.9,4c-1.5,0-2.8-0.5-3.5-0.9L562.4,33.8z"/>
			<path class="st6" d="M572.5,35.8v-1.1l1.4-1.4c3.4-3.2,4.9-5,5-7c0-1.4-0.7-2.6-2.6-2.6c-1.2,0-2.2,0.6-2.8,1.1l-0.6-1.3
				c0.9-0.8,2.2-1.4,3.8-1.4c2.9,0,4.1,2,4.1,3.9c0,2.5-1.8,4.5-4.6,7.2l-1.1,1v0h6v1.5H572.5z"/>
			<path class="st6" d="M585,21.8l-0.3,4.9h-1.1l-0.3-4.9H585z M588,21.8l-0.3,4.9h-1.1l-0.3-4.9H588z"/>
		</g>
		<g>
			<path class="st6" d="M589.6,38.3c1.5-2,2.6-4.7,2.6-8.4c0-3.7-1.1-6.3-2.6-8.3h1.4c1.3,1.7,2.7,4.3,2.7,8.3c0,4-1.4,6.6-2.7,8.4
				H589.6z"/>
		</g>
		<line class="st13" x1="84" y1="711.6" x2="84" y2="455.8"/>
		<polygon class="st4" points="89.2,707.9 83.8,728 78.4,707.9 		"/>
		<polygon class="st4" points="89.2,459.5 83.8,439.5 78.4,459.5 		"/>
		<line class="st9" x1="500" y1="66.5" x2="500" y2="71"/>
		<line class="st14" x1="500" y1="80" x2="500" y2="739.2"/>
		<line class="st9" x1="500" y1="743.7" x2="500" y2="748.2"/>
		<g>
			<path class="st4" d="M842.9,719.3v3.3H842c0-2.5-1-3.5-2.5-3.6v-0.9H854v1.2H842.9z"/>
			<path class="st4" d="M842.9,710.4v3.3H842c0-2.5-1-3.5-2.5-3.6v-0.9H854v1.2H842.9z"/>
			<path class="st4" d="M851.9,704.3v-1.4h2.1v1.4H851.9z"/>
			<path class="st4" d="M842.9,697.5v3.3H842c0-2.5-1-3.5-2.5-3.6v-0.9H854v1.2H842.9z"/>
			<path class="st4" d="M842.9,688.6v3.3H842c0-2.5-1-3.5-2.5-3.6v-0.9H854v1.2H842.9z"/>
			<path class="st4" d="M839.4,673.8c2.8,1.6,6,2.4,9.2,2.4s6.4-0.8,9.2-2.4v0.9c-3.3,2-6.3,2.7-9.2,2.7s-5.9-0.7-9.2-2.7V673.8z"/>
			<path class="st4" d="M839.8,672.1v-8.2h1.1c3.8,3.1,9.2,4.9,13.2,5.2v1.4c-4-0.2-9.7-2.5-13.2-5.4v6.9H839.8z"/>
			<path class="st4" d="M839.1,658l15.1,5v1.1l-15.1-5V658z"/>
			<path class="st4" d="M842.9,652.9v3.3H842c0-2.5-1-3.5-2.5-3.6v-0.9H854v1.2H842.9z"/>
			<path class="st4" d="M842.9,640.8c-1.4,0.1-2.4,0.8-2.4,2.3c0,2,1.8,3,6.6,3.1l0,0c-1.5-0.5-2.4-1.6-2.4-3.1
				c0-2.5,1.8-3.8,4.5-3.8c2.7,0,5,1.3,5,4c0,3.3-2.4,4.2-7,4.2c-4.8,0-7.8-0.9-7.8-4.4c0-2.3,1.4-3.5,3.4-3.5V640.8z M853.3,643.2
				c0-2-1.8-2.7-3.7-2.7s-3.7,0.7-3.7,2.7c0,2,1.8,2.7,3.7,2.7S853.3,645.2,853.3,643.2z"/>
			<path class="st4" d="M839.4,633.5v-1.2h4.9v1.2H839.4z M839.4,636.5v-1.2h4.9v1.2H839.4z"/>
			<path class="st4" d="M857.8,630.1c-2.8-1.6-6-2.4-9.2-2.4s-6.4,0.8-9.2,2.4v-0.9c3.3-2,6.3-2.7,9.2-2.7s5.9,0.7,9.2,2.7V630.1z"
				/>
		</g>
		<g>
			<path class="st4" d="M308.6,373.1h4.4c2.5,0,3.8,1.4,3.8,3.7c0,1.8-0.7,3.3-2.6,3.7v0c1.8,0.2,2.4,1.2,2.5,3.5l0,1.6
				c0,0.8,0.1,1.6,0.6,2.2h-1.5c-0.3-0.5-0.4-1.3-0.4-2.1l0-1.2c-0.1-2.6-0.5-3.4-2.9-3.4h-2.5v6.7h-1.3V373.1z M309.9,379.9h2.3
				c2.1,0,3.3-0.9,3.3-2.9c0-1.8-0.8-2.9-3.1-2.9h-2.4V379.9z"/>
			<path class="st4" d="M322.2,379.6h0.7c1.7,0,2.7-1,2.7-2.7c0-1.7-0.8-2.7-2.4-2.7c-1.5,0-2.5,0.9-2.6,3h-1.3c0-2.4,1.3-4,3.9-4
				c2.2,0,3.7,1.4,3.7,3.6c0,1.6-0.8,2.9-2.3,3.3v0c1.7,0.3,2.8,1.6,2.8,3.4c0,2.6-1.4,4.4-4.2,4.4c-2.5,0-4-1.4-4.1-4.1h1.3
				c0,1.7,0.9,3.1,2.7,3.1c1.5,0,2.9-0.9,2.9-3.3c0-1.9-1.1-2.9-2.9-2.9h-1V379.6z"/>
			<path class="st4" d="M333.8,373.2c3.3,0,4.1,3.1,4.1,7.4s-0.8,7.4-4.1,7.4s-4.1-3.1-4.1-7.4S330.5,373.2,333.8,373.2z
				 M333.8,386.9c2,0,2.8-1.7,2.8-6.4s-0.8-6.4-2.8-6.4s-2.8,1.7-2.8,6.4S331.8,386.9,333.8,386.9z"/>
			<path class="st4" d="M345.7,384h-5.6v-1.2l5.6-9.6h1.2v9.7h1.7v1.1h-1.7v3.7h-1.2V384z M345.7,382.9v-7.6h0l-4.5,7.6H345.7z"/>
			<path class="st4" d="M351.1,385.6h1.4v2.1h-1.4V385.6z"/>
			<path class="st4" d="M358.1,380L358.1,380c-1.4-0.4-2.2-1.8-2.2-3.2c0-2.4,1.5-3.6,3.7-3.6c2.1,0,3.7,1.2,3.7,3.6
				c0,1.4-0.7,2.8-2.2,3.2v0c1.8,0.2,2.6,1.9,2.6,3.6c0,2.7-1.6,4.3-4.1,4.3c-2.4,0-4.1-1.6-4.1-4.3
				C355.5,381.9,356.3,380.2,358.1,380z M359.6,386.9c1.8,0,2.8-1.5,2.8-3.2c0-1.8-0.9-3.2-2.8-3.2s-2.8,1.5-2.8,3.2
				C356.8,385.5,357.7,386.9,359.6,386.9z M359.6,379.4c1.6,0,2.3-1,2.3-2.6s-0.8-2.6-2.3-2.6c-1.6,0-2.3,1.1-2.3,2.6
				S358,379.4,359.6,379.4z"/>
			<path class="st4" d="M370.1,373.2c3.3,0,4.1,3.1,4.1,7.4s-0.8,7.4-4.1,7.4s-4.1-3.1-4.1-7.4S366.8,373.2,370.1,373.2z
				 M370.1,386.9c2,0,2.8-1.7,2.8-6.4s-0.8-6.4-2.8-6.4s-2.8,1.7-2.8,6.4S368.1,386.9,370.1,386.9z"/>
			<path class="st4" d="M384.6,373.1c-1.6,2.8-2.4,6-2.4,9.2s0.8,6.4,2.4,9.2h-0.9c-2-3.3-2.7-6.3-2.7-9.2s0.7-5.9,2.7-9.2H384.6z"
				/>
			<path class="st4" d="M389.5,376.6h-3.3v-0.9c2.5,0,3.5-1,3.6-2.5h0.9v14.5h-1.2V376.6z"/>
			<path class="st4" d="M395,377.7c0.1-2.8,1.4-4.6,4.1-4.6c2,0,3.8,1.2,3.8,3.9c0,1.7-0.5,2.9-2.4,4.5l-1.6,1.3
				c-1.5,1.2-2.3,2.2-2.5,3.7h6.6v1.1h-8c0-2.4,1.1-4,3-5.6l1.6-1.3c1.5-1.2,2-2.2,2-3.6c0-1.9-1.1-3-2.6-3c-1.7,0-2.6,1.1-2.7,3.5
				H395z"/>
			<path class="st4" d="M405.8,373.1h1.2v4.9h-1.2V373.1z M408.9,373.1h1.2v4.9h-1.2V373.1z"/>
			<path class="st4" d="M412.3,391.5c1.6-2.8,2.4-6,2.4-9.2s-0.8-6.4-2.4-9.2h0.9c2,3.3,2.7,6.3,2.7,9.2s-0.7,5.9-2.7,9.2H412.3z"/>
		</g>
	</g>
</g>
<g id="Watermark">
	<g>
		<rect x="438.5" y="662.8" class="st1" width="123.1" height="46.3"/>
		<g>
			<rect x="444.9" y="670.7" class="st75" width="62.9" height="30.6"/>
			<rect x="507.7" y="670.7" class="st75" width="47.4" height="30.6"/>
			<g>
				<path class="st76" d="M466.5,676.8l-2.8,18.9H461l-1.6-11l-1.5,11h-2.7l-2.8-18.9h2.5l1.8,14.2l1.8-14.2h2l1.8,14.2l1.8-14.2
					H466.5z"/>
				<path class="st76" d="M467.9,695.7v-18.9h2.5v18.9H467.9z"/>
				<path class="st76" d="M472.8,676.8h5c1.9,0,2.9,1.1,2.9,3.2v4.7c0,1.7-0.5,2.7-1.5,3.1l1.8,7.9h-2.4l-1.7-7.6h-1.5v7.6h-2.5
					V676.8z M475.4,685.9h1.7c0.8,0,1.1-0.5,1.1-1.4v-4.1c0-0.9-0.4-1.4-1.1-1.4h-1.7V685.9z"/>
				<path class="st76" d="M486.8,679.1v16.6h-2.5v-16.6h-2.4v-2.3h7.4v2.3H486.8z"/>
				<path class="st76" d="M496.3,695.7v-8.6h-3.1v8.6h-2.5v-18.9h2.5v8h3.1v-8h2.5v18.9H496.3z"/>
			</g>
			<g>
				<path class="st76" d="M516.3,676.8h5c1.9,0,2.9,1.1,2.9,3.2v4.7c0,1.7-0.5,2.7-1.5,3.1l1.8,7.9H522l-1.7-7.6h-1.5v7.6h-2.5
					V676.8z M518.8,685.9h1.7c0.8,0,1.1-0.5,1.1-1.4v-4.1c0-0.9-0.4-1.4-1.1-1.4h-1.7V685.9z"/>
				<path class="st76" d="M528.7,695.7h-2.5V680c0-2.2,1-3.2,3-3.2h1.9c2,0,3,1.1,3,3.2v15.7h-2.5v-6.9h-2.9V695.7z M531.6,686.5
					v-6.3c0-0.7-0.4-1.1-1.1-1.1h-0.7c-0.7,0-1.1,0.4-1.1,1.1v6.3H531.6z"/>
				<path class="st76" d="M536.3,695.7v-18.9h2.5v18.9H536.3z"/>
				<path class="st76" d="M547.2,695.7h-6v-18.9h2.5v16.6h3.5V695.7z"/>
			</g>
		</g>
	</g>
</g>
</svg>
