<svg xmlns="http://www.w3.org/2000/svg" xmlns:xlink="http://www.w3.org/1999/xlink" viewBox="0 0 1000 800"><defs><style>.cls-1,.cls-2,.cls-6,.cls-7,.cls-8,.cls-9{fill:none;}.cls-2{stroke:#000;}.cls-11,.cls-12,.cls-2{stroke-miterlimit:10;}.cls-3{clip-path:url(#clip-path);}.cls-11,.cls-12,.cls-4{fill:#f0f0f0;}.cls-5{fill:#231f20;}.cls-11,.cls-6,.cls-7,.cls-8,.cls-9{stroke:#231f20;}.cls-7{stroke-dasharray:9.82 2.91;}.cls-8{stroke-dasharray:10 3;}.cls-9{stroke-dasharray:10.23 3.23;}.cls-10{clip-path:url(#clip-path-10);}.cls-11{stroke-width:3px;}.cls-12{stroke:#ccc;}.cls-13{fill:#ccc;}</style><clipPath id="clip-path"><rect class="cls-1" x="45.79" width="938.42" height="800"/></clipPath><clipPath id="clip-path-10"><rect class="cls-1" x="1087.29" width="891.42" height="800"/></clipPath></defs><g id="Flat"><line class="cls-2" x1="977.86" y1="721.97" x2="977.86" y2="65.29"/><polygon points="981.86 719.15 977.72 734.59 973.58 719.15 981.86 719.15"/><polygon points="981.86 68.11 977.72 52.67 973.58 68.11 981.86 68.11"/><g class="cls-3"><path class="cls-4" d="M841.45,678s-2.06-10.93-9.57-11.61-164-37.59-164-37.59c-57.41-10.93-59.46-38.95-59.46-38.95-34.85-58.77-61.5-228.24-15.71-331.43,0,0,17.76-28,46.46-33.49,14.87-2.83,34.17-.68,31.44-24.61-3-25.8,0-97,0-97s.69-41-42.37-45.79C587,52.91,507.09,52.74,500.37,52.73v0s-84.73,0-127.79,4.78-42.37,45.79-42.37,45.79,3,71.23,0,97c-2.73,23.93,16.58,21.78,31.44,24.61,28.7,5.47,46.47,33.49,46.47,33.49C453.9,361.6,427.25,531.07,392.4,589.84c0,0-2,28-59.45,38.95,0,0-156.5,36.9-164,37.59S159.37,678,159.37,678s-2.05,32.81-.68,45.79,16.4,11.62,16.4,11.62l326.4-.69,324.24.69s15,1.36,16.4-11.62-.68-45.79-.68-45.79"/><path class="cls-5" d="M498.37,54.71v0h2c8.78,0,86.93.22,127.64,4.75,17.07,1.89,29.07,9.78,35.68,23.43a50.59,50.59,0,0,1,4.91,20.32c-.14,3.34-2.91,71.74,0,97.31,2.07,18.11-9.21,19.58-22.28,21.28-2.5.33-5.09.66-7.54,1.13-29.22,5.57-47,33.21-47.78,34.38l-.08.13-.06.13C570.26,304.05,562.25,369.17,568.32,441c5.09,60.14,20,118.76,38.16,149.55.27,1.86,1.69,8.48,8.66,16.07,10.49,11.43,28.09,19.56,52.31,24.18,7,1.64,156.69,36.93,164.25,37.62,5.56.51,7.53,8.85,7.76,9.89.14,2.33,2,33.06.68,45.31-.94,8.91-9.54,9.87-13.2,9.87-.64,0-1,0-1,0h-.18l-324.24-.69-326.41.69h-.17s-.4,0-1,0c-3.65,0-12.26-1-13.19-9.87-1.29-12.24.53-43,.68-45.31.22-1,2.19-9.39,7.76-9.89,7.55-.69,157.27-36,164.24-37.62,24.22-4.62,41.82-12.75,52.31-24.18,7-7.59,8.39-14.21,8.66-16.07,18.11-30.79,33.07-89.41,38.16-149.55,6.07-71.78-1.93-136.9-22.54-183.36l-.06-.13-.08-.13c-.75-1.17-18.57-28.81-47.79-34.38-2.45-.47-5-.8-7.54-1.13-13.06-1.7-24.35-3.17-22.28-21.28,2.92-25.57.15-94,0-97.31a50.79,50.79,0,0,1,4.91-20.32c6.61-13.65,18.62-21.54,35.68-23.43,38.79-4.31,112.5-4.73,125.57-4.77m2-2s-84.73,0-127.79,4.78-42.37,45.79-42.37,45.79,3,71.23,0,97c-2.73,23.93,16.58,21.78,31.44,24.61,28.7,5.47,46.47,33.49,46.47,33.49C453.9,361.6,427.25,531.07,392.4,589.84c0,0-2,28-59.45,38.95,0,0-156.5,36.9-164,37.59S159.37,678,159.37,678s-2.05,32.81-.68,45.79c1.13,10.72,11.58,11.66,15.18,11.66.76,0,1.22,0,1.22,0l326.4-.69,324.24.69s.45,0,1.21,0c3.61,0,14.06-.94,15.19-11.66,1.37-13-.68-45.79-.68-45.79s-2.06-10.93-9.57-11.61-164-37.59-164-37.59c-57.41-10.93-59.46-38.95-59.46-38.95-34.85-58.77-61.5-228.24-15.71-331.43,0,0,17.76-28,46.46-33.49,14.87-2.83,34.17-.68,31.44-24.61-3-25.8,0-97,0-97s.69-41-42.37-45.79C587,52.91,507.09,52.74,500.37,52.73v0Z"/></g><polyline class="cls-6" points="245.56 198.61 499.99 257.4 630.05 227.06"/><line class="cls-6" x1="238.31" y1="258.05" x2="924.25" y2="258.05"/><line class="cls-6" x1="329.82" y1="99.42" x2="329.82" y2="9.8"/><line class="cls-6" x1="671.25" y1="99.42" x2="671.25" y2="9.8"/><g class="cls-3"><line class="cls-6" x1="500.78" y1="52.16" x2="983.64" y2="52.16"/></g><line class="cls-6" x1="59.62" y1="402.31" x2="430.25" y2="402.31"/><polyline class="cls-6" points="165.41 401.52 301.45 391.63 293.25 377.73"/><line class="cls-6" x1="60.02" y1="735.43" x2="173.18" y2="735.43"/><g class="cls-3"><line class="cls-6" x1="159.02" y1="725.39" x2="159.02" y2="799.83"/><line class="cls-6" x1="832.7" y1="734.93" x2="984.21" y2="734.93"/><line class="cls-6" x1="841.46" y1="726.23" x2="841.46" y2="800"/></g><line class="cls-6" x1="922.01" y1="589.74" x2="260.39" y2="589.74"/><polyline class="cls-6" points="347.96 624.75 500.5 590.05 652.84 624.51"/><line class="cls-7" x1="500.78" y1="753.29" x2="500.78" y2="37.96"/><line class="cls-8" x1="799.26" y1="433.98" x2="193.72" y2="433.52"/><line class="cls-9" x1="157.1" y1="433.5" x2="127.88" y2="433.5"/><path class="cls-6" d="M123.89,433.5H111.27m78.76,0H165.08M819,434H806.66"/><g class="cls-3"><path class="cls-5" d="M421.19,365.17c-3.2-.7-5.3-1.41-7.9-2.22l.77,9.55a73.78,73.78,0,0,1,7.44-3.43,56.59,56.59,0,0,1,8.21-2.62,56.59,56.59,0,0,1-8.52-1.28"/></g><line class="cls-6" x1="289.12" y1="377.6" x2="416.87" y2="367.5"/><g class="cls-3"><path class="cls-5" d="M419,366.31a39.44,39.44,0,0,1-3.94-1.1l.38,4.77a37.21,37.21,0,0,1,3.72-1.72,28.44,28.44,0,0,1,4.1-1.3,28,28,0,0,1-4.26-.65"/><path class="cls-5" d="M375,603.51a79.79,79.79,0,0,1-3-7.64l-7.18,6.35a73.32,73.32,0,0,1,7.22,3.89,54.75,54.75,0,0,1,7,5,56.83,56.83,0,0,1-4.09-7.58"/></g><line class="cls-6" x1="289.14" y1="509.4" x2="370.53" y2="601.42"/><g class="cls-3"><path class="cls-5" d="M372.77,602.48a40.54,40.54,0,0,1-1.49-3.82l-3.59,3.18a35.75,35.75,0,0,1,3.61,1.94,26.67,26.67,0,0,1,3.51,2.49,28.23,28.23,0,0,1-2-3.79"/><path class="cls-6" d="M263,161s-27.87,57.29-15.77,137.4"/><path class="cls-5" d="M263.07,160.71s-7.09,18-9.24,26.34"/><path class="cls-5" d="M254.59,191.87c1.71-2.8,3.06-4.55,4.67-6.74l-9.27-2.4a75.07,75.07,0,0,1,.81,8.16,55.83,55.83,0,0,1-.2,8.61,56.15,56.15,0,0,1,4-7.63"/><path class="cls-6" d="M263,160.73s-7,18-9.17,26.31"/><path class="cls-5" d="M254.21,189.46a38.9,38.9,0,0,1,2.34-3.37l-4.64-1.2a39.77,39.77,0,0,1,.41,4.08,29.18,29.18,0,0,1-.1,4.3,27.66,27.66,0,0,1,2-3.81"/><path class="cls-5" d="M247,297.38s-2.76-22.14-2.76-27.55"/><path class="cls-5" d="M242.32,265.35c-.95,3.14-1.82,5.18-2.83,7.7h9.58a73,73,0,0,1-2.83-7.7,56.06,56.06,0,0,1-2-8.38,56.06,56.06,0,0,1-2,8.38"/><path class="cls-6" d="M247,297.37s-2.7-22.13-2.7-27.54"/><path class="cls-5" d="M243.3,267.59c-.48,1.57-.92,2.59-1.42,3.85h4.79a35.13,35.13,0,0,1-1.42-3.85,28.53,28.53,0,0,1-1-4.19,28.27,28.27,0,0,1-1,4.19"/><path class="cls-6" d="M269.83,547.42s-14.06,62.16,16,137.37"/><path class="cls-5" d="M269.76,547.18s-2.77,19.16-3,27.75"/><path class="cls-5" d="M268.65,579.45a79.1,79.1,0,0,1,3-7.63l-9.58-.21a75.35,75.35,0,0,1,2.66,7.76,57.2,57.2,0,0,1,1.78,8.42,56,56,0,0,1,2.14-8.34"/><path class="cls-6" d="M269.73,547.18s-2.71,19.16-2.9,27.75"/><path class="cls-5" d="M267.72,577.19c.51-1.56,1-2.57,1.5-3.81l-4.78-.11a39.44,39.44,0,0,1,1.33,3.88,27.71,27.71,0,0,1,.88,4.21,29.12,29.12,0,0,1,1.07-4.17"/><path class="cls-5" d="M285.45,683.88s-7.76-20.91-9-26.17"/><path class="cls-5" d="M273.53,653.79c-.2,3.27-.59,5.46-1,8.14l9.32-2.19a77.42,77.42,0,0,1-4.52-6.85,55.27,55.27,0,0,1-3.82-7.71,56.3,56.3,0,0,1,0,8.61"/><path class="cls-6" d="M285.42,683.87s-7.7-20.89-8.93-26.16"/><path class="cls-5" d="M275,655.75a38.71,38.71,0,0,1-.5,4.07l4.67-1.1a35.59,35.59,0,0,1-2.26-3.42,28.2,28.2,0,0,1-1.92-3.86,27.46,27.46,0,0,1,0,4.31"/></g><line class="cls-2" x1="65.67" y1="722.96" x2="65.67" y2="414.92"/><polygon points="69.6 720.14 65.47 735.58 61.33 720.14 69.6 720.14"/><polygon points="69.6 417.75 65.47 402.31 61.33 417.75 69.6 417.75"/><line class="cls-2" x1="116.63" y1="722.96" x2="116.63" y2="446.08"/><polygon points="120.56 720.14 116.42 735.58 112.29 720.14 120.56 720.14"/><polygon points="120.56 448.9 116.42 433.47 112.29 448.9 120.56 448.9"/><line class="cls-2" x1="176.35" y1="787.68" x2="833.03" y2="787.68"/><polygon points="179.17 791.68 163.73 787.55 179.17 783.41 179.17 791.68"/><polygon points="830.21 791.68 845.65 787.55 830.21 783.41 830.21 791.68"/><line class="cls-2" x1="342.43" y1="20.35" x2="658.29" y2="20.35"/><polygon points="345.25 24.28 329.81 20.15 345.25 16.01 345.25 24.28"/><polygon points="655.47 24.28 670.9 20.15 655.47 16.01 655.47 24.28"/><line class="cls-2" x1="916.43" y1="721.97" x2="916.43" y2="602.19"/><polygon points="920.43 719.15 916.29 734.59 912.15 719.15 920.43 719.15"/><polygon points="920.43 605.02 916.29 589.58 912.15 605.02 920.43 605.02"/><line class="cls-2" x1="916.43" y1="244.82" x2="916.43" y2="65.28"/><polygon points="920.43 242 916.29 257.44 912.15 242 920.43 242"/><polygon points="920.43 68.11 916.29 52.67 912.15 68.11 920.43 68.11"/><line class="cls-2" x1="916.43" y1="576.96" x2="916.43" y2="273.07"/><polygon points="920.43 574.14 916.29 589.58 912.15 574.14 920.43 574.14"/><polygon points="920.43 275.89 916.29 260.45 912.15 275.89 920.43 275.89"/><path d="M358.88,222l-8.2-10.83,4.8-3.64a8.21,8.21,0,0,1,2.42-1.38,3.11,3.11,0,0,1,2,.12,4,4,0,0,1,1.69,1.29,3.42,3.42,0,0,1,.72,2.51,4.7,4.7,0,0,1-1.54,2.75,4.71,4.71,0,0,1,1.27-.11,9.59,9.59,0,0,1,2.28.54l4.12,1.52-1.81,1.37L363.48,215c-.91-.33-1.63-.57-2.16-.71a3.9,3.9,0,0,0-1.28-.17,2.64,2.64,0,0,0-.87.2,5.64,5.64,0,0,0-.84.56l-1.66,1.25,3.64,4.82Zm-3.15-7.14,3.08-2.33a5.8,5.8,0,0,0,1.39-1.37,2.1,2.1,0,0,0,.35-1.29,2.32,2.32,0,0,0-.45-1.19,2,2,0,0,0-1.52-.84,3.24,3.24,0,0,0-2.13.84L353,211.3Z"/><path d="M374.28,210.37l-1.33,1-6.42-8.48a8.78,8.78,0,0,1-.57,1.87,10.76,10.76,0,0,1-.88,1.74l-1-1.28a10,10,0,0,0,1-2.75,6.09,6.09,0,0,0,.08-2.34l.86-.65Z"/><path d="M378.43,207.22l-1.15-1.51,1.52-1.15,1.15,1.52Z"/><path d="M379.74,201.77l1.31-1.18a3.16,3.16,0,0,0,1.88,1,2.44,2.44,0,0,0,1.75-.52,2.67,2.67,0,0,0,1.08-2,3.39,3.39,0,0,0-.79-2.42,3.05,3.05,0,0,0-2-1.31,2.74,2.74,0,0,0-2.17.61,2.86,2.86,0,0,0-.94,1.17,2.75,2.75,0,0,0-.24,1.37l-1.37.78-3.16-6.36,5.38-4.08,1,1.28-4.33,3.27,1.62,3.35a4.44,4.44,0,0,1,1.54-2.23,4.08,4.08,0,0,1,3.13-.83,4.33,4.33,0,0,1,2.89,1.79,4.92,4.92,0,0,1,1.07,3.19,4.3,4.3,0,0,1-1.85,3.47,4.37,4.37,0,0,1-3,1A4.07,4.07,0,0,1,379.74,201.77Z"/><path d="M388.61,195.58l1.19-1.09a2.78,2.78,0,0,0,1.61.84,2.13,2.13,0,0,0,1.49-.49,2.63,2.63,0,0,0,.86-1.09,3,3,0,0,0,.19-1.32,5.6,5.6,0,0,0-.47-1.65,8.58,8.58,0,0,0-1-1.78l-.21-.25a3.65,3.65,0,0,1-.31,1.85,3.87,3.87,0,0,1-4.21,2.28,4.52,4.52,0,0,1-2.88-1.87,4.59,4.59,0,0,1-1-3.39,4.06,4.06,0,0,1,1.67-2.85,4.37,4.37,0,0,1,2.36-.89,4.48,4.48,0,0,1,2.56.61,10.14,10.14,0,0,1,2.77,2.71,12.46,12.46,0,0,1,2.05,3.65,4.86,4.86,0,0,1,.07,2.89,4.26,4.26,0,0,1-1.6,2.22,3.81,3.81,0,0,1-2.61.87A3.86,3.86,0,0,1,388.61,195.58Zm1.83-8.91a3.29,3.29,0,0,0-2-1.36,2.4,2.4,0,0,0-2,.44,2.54,2.54,0,0,0-1,1.89,3.39,3.39,0,0,0,.76,2.38,3,3,0,0,0,1.9,1.21,2.61,2.61,0,0,0,2-.52,2.48,2.48,0,0,0,1-1.8A3.18,3.18,0,0,0,390.44,186.67Z"/><path d="M408.26,189.66a16.61,16.61,0,0,1-4.33-1.85,12.69,12.69,0,0,1-3.68-3.28,12.44,12.44,0,0,1-2-3.8,17.75,17.75,0,0,1-.77-5.28l1-.72q.27,2.21.48,3.09a14.13,14.13,0,0,0,.9,2.66,15.54,15.54,0,0,0,1.78,3,16.79,16.79,0,0,0,7.59,5.43Z"/><path d="M413,181.07l-1.33,1-6.42-8.48a8.68,8.68,0,0,1-.57,1.88,10.76,10.76,0,0,1-.88,1.74l-1-1.28a10.13,10.13,0,0,0,1-2.75,6.14,6.14,0,0,0,.08-2.35l.86-.64Z"/><path d="M415.91,179.15l-5.34-13.59,1.06-.8L417,178.34Z"/><path d="M425.61,171.51l-1.33,1L417.86,164a8,8,0,0,1-.56,1.87,11.35,11.35,0,0,1-.88,1.75l-1-1.29a10,10,0,0,0,1-2.75,6.32,6.32,0,0,0,.09-2.34l.86-.65Z"/><path d="M429.73,155.52l-1.24,1.11a3.08,3.08,0,0,0-1.37-.76,2.19,2.19,0,0,0-1.76.44,2.31,2.31,0,0,0-.85,1.2,3.77,3.77,0,0,0,0,2.08,9.05,9.05,0,0,0,1.52,2.8,3.8,3.8,0,0,1,.36-2,4,4,0,0,1,1.18-1.46,3.8,3.8,0,0,1,3-.73,4.4,4.4,0,0,1,2.85,1.82,5.17,5.17,0,0,1,1,2.23,4,4,0,0,1-.2,2.26,4.1,4.1,0,0,1-1.39,1.78,4.26,4.26,0,0,1-3.64.83q-2-.42-4.1-3.24c-1.58-2.09-2.35-3.91-2.29-5.44a4.17,4.17,0,0,1,1.78-3.31,3.9,3.9,0,0,1,2.64-.87A3.84,3.84,0,0,1,429.73,155.52Zm-1.9,8.79a4,4,0,0,0,1.29,1.09,2.79,2.79,0,0,0,1.54.34,2.5,2.5,0,0,0,1.35-.51,2.34,2.34,0,0,0,.94-1.77,3.38,3.38,0,0,0-.8-2.31,3.13,3.13,0,0,0-1.93-1.32,2.5,2.5,0,0,0-2,.5,2.57,2.57,0,0,0-1,1.8A2.9,2.9,0,0,0,427.83,164.31Z"/><path d="M432.58,155.23l-1.93-1.79-1.35-1.77,1.52-1.15,1.34,1.78,1.23,2.31Zm2.44-1.85-1.92-1.79-1.34-1.78,1.51-1.14,1.35,1.77,1.2,2.33Z"/><path d="M446.53,160.66l-.95.72a16.69,16.69,0,0,0-3.17-8.77,15.06,15.06,0,0,0-2.4-2.52,14.52,14.52,0,0,0-2.32-1.6,29.71,29.71,0,0,0-2.87-1.31l1-.73a17.84,17.84,0,0,1,4.87,2.17,12.8,12.8,0,0,1,5.28,7.38A16.9,16.9,0,0,1,446.53,160.66Z"/><line class="cls-2" x1="444.61" y1="402.32" x2="555.12" y2="402.32"/><polygon points="447.44 406.29 432 402.15 447.44 398.01 447.44 406.29"/><polygon points="552.29 406.29 567.73 402.15 552.29 398.01 552.29 406.29"/><line class="cls-2" x1="351.3" y1="80.59" x2="440.03" y2="141.7"/><polygon points="351.35 85.47 340.9 73.21 356.08 78.6 351.35 85.47"/><line class="cls-2" x1="344.65" y1="208.96" x2="429.68" y2="142.81"/><polygon points="349.32 210.4 334.48 216.66 344.2 203.81 349.32 210.4"/><line class="cls-2" x1="454.85" y1="66.22" x2="458" y2="203.71"/><polygon points="450.88 69.14 454.73 53.5 459.22 68.97 450.88 69.14"/><line class="cls-2" x1="386.01" y1="251.79" x2="296.3" y2="350.03"/><polygon points="381.17 251.17 394.75 242.49 387.33 256.8 381.17 251.17"/><line class="cls-2" x1="172.13" y1="680.87" x2="192.48" y2="706.74"/><polygon points="176.4 679.6 163.63 669.99 169.88 684.7 176.4 679.6"/><polyline class="cls-2" points="173.16 724.11 192.4 706.93 254 706.93"/><polygon points="177.92 725.05 163.91 732.74 172.2 719.07 177.92 725.05"/><g class="cls-3"><path class="cls-5" d="M514.23,47.31V41.56L509,33.72h2.18l2.68,4.11c.5.77,1,1.53,1.4,2.29.41-.71.92-1.51,1.51-2.39l2.63-4h2.1L516,41.56v5.75Z"/><path class="cls-5" d="M511,753.29v-5.76l-5.26-7.83h2.18l2.68,4.1c.49.77,1,1.54,1.39,2.29.42-.71.92-1.51,1.52-2.39l2.63-4h2.1l-5.43,7.83v5.76Z"/><path class="cls-5" d="M831.92,441.25l5.22-7.05-4.63-6.54h2.14l2.5,3.5c.51.73.87,1.26,1.08,1.62.31-.49.68-1,1.09-1.53l2.66-3.59h2l-4.7,6.46,5.09,7.13h-2.21l-3.42-4.82c-.19-.28-.39-.55-.58-.82-.28.42-.48.72-.62.9l-3.44,4.74Z"/><path class="cls-5" d="M91.18,440.62l5.23-7.06L91.77,427h2.14l2.5,3.5a18.36,18.36,0,0,1,1.08,1.62,17.93,17.93,0,0,1,1.1-1.53l2.66-3.59h2l-4.7,6.46,5.08,7.13H101.4L98,435.79l-.57-.81c-.28.42-.49.72-.62.9l-3.45,4.74Z"/><path class="cls-5" d="M239.24,233.23l-.19,1.65-10.57-1.21a8.6,8.6,0,0,1,1,1.71,11.54,11.54,0,0,1,.65,1.85l-1.6-.18a10,10,0,0,0-1.31-2.62,6.3,6.3,0,0,0-1.63-1.69l.12-1.06Z"/><path class="cls-5" d="M236.19,228.55l-.05-1.67a3.66,3.66,0,0,0,2.12-.74,2.43,2.43,0,0,0,.81-1.61,2.67,2.67,0,0,0-.58-2.07,2.75,2.75,0,0,0-1.92-1,2.53,2.53,0,0,0-2,.53,2.62,2.62,0,0,0-1,1.81,5,5,0,0,0,0,1.19l-1.42-.35a1.66,1.66,0,0,0,.05-.26,3.35,3.35,0,0,0-.34-2,1.9,1.9,0,0,0-1.61-1,2,2,0,0,0-1.59.45,2.2,2.2,0,0,0-.78,1.53,2.32,2.32,0,0,0,.42,1.7,3.11,3.11,0,0,0,1.74,1l-.48,1.62a4.26,4.26,0,0,1-2.43-1.69,4,4,0,0,1-.61-2.79,4.41,4.41,0,0,1,.71-2,3.38,3.38,0,0,1,1.46-1.28,3.29,3.29,0,0,1,1.79-.3,2.92,2.92,0,0,1,1.55.66,3.17,3.17,0,0,1,1,1.52,3.16,3.16,0,0,1,1.36-1.74,3.47,3.47,0,0,1,2.25-.42,4,4,0,0,1,2.85,1.63,4.57,4.57,0,0,1,.85,3.4,4.2,4.2,0,0,1-1.39,2.83,4,4,0,0,1-2.87,1"/><path class="cls-5" d="M231.68,216.26a2.48,2.48,0,0,0,.95-1.71,2.57,2.57,0,0,0-4.15-2.31,2.57,2.57,0,0,0,1.3,4.56,2.5,2.5,0,0,0,1.9-.54m-2.82-1a1.55,1.55,0,0,1,.25-2.19,1.56,1.56,0,0,1,2.19.25,1.58,1.58,0,0,1-.25,2.19,1.55,1.55,0,0,1-2.19-.25"/><path class="cls-5" d="M274.64,607.88l-.05-1.66,10.63-.34a8,8,0,0,1-1.2-1.55,11,11,0,0,1-.92-1.73l1.61-.06a10.2,10.2,0,0,0,1.67,2.41,6.26,6.26,0,0,0,1.87,1.43l0,1.07Z"/><path class="cls-5" d="M278.33,612.07l.29,1.65a3.7,3.7,0,0,0-2,1,2.47,2.47,0,0,0-.56,1.71,2.67,2.67,0,0,0,.88,2,2.75,2.75,0,0,0,2,.74,2.59,2.59,0,0,0,1.87-.81,2.63,2.63,0,0,0,.69-1.93,4.68,4.68,0,0,0-.23-1.17l1.46.14c0,.11,0,.2,0,.26a3.42,3.42,0,0,0,.62,1.9,1.93,1.93,0,0,0,1.75.79,2,2,0,0,0,1.5-.67,2.25,2.25,0,0,0,.56-1.64,2.34,2.34,0,0,0-.67-1.61,3.07,3.07,0,0,0-1.87-.78l.24-1.67a4.28,4.28,0,0,1,2.65,1.31,4,4,0,0,1,1,2.68,4.51,4.51,0,0,1-.41,2.07,3.46,3.46,0,0,1-1.26,1.48,3.34,3.34,0,0,1-1.74.55,2.89,2.89,0,0,1-1.62-.42,3.19,3.19,0,0,1-1.19-1.36,3.17,3.17,0,0,1-1.09,1.91,3.49,3.49,0,0,1-2.17.75,4.07,4.07,0,0,1-3.06-1.2,4.63,4.63,0,0,1-1.34-3.24,4.34,4.34,0,0,1,1-3,4,4,0,0,1,2.69-1.43"/><path class="cls-5" d="M284.58,623.57a2.57,2.57,0,0,0,2,4.32,2.57,2.57,0,0,0-.16-5.13,2.52,2.52,0,0,0-1.8.81m2.94.62a1.48,1.48,0,0,1,.49,1.09,1.55,1.55,0,0,1-1.5,1.6,1.55,1.55,0,0,1-1.61-1.5,1.55,1.55,0,0,1,1.51-1.61,1.51,1.51,0,0,1,1.11.42"/><path class="cls-5" d="M310.28,369.8l-.43-6,2.06-.15a4.67,4.67,0,0,1,1,0,2.37,2.37,0,0,1,.84.3,3.94,3.94,0,0,1,1,.84c.37.4.84,1,1.42,1.76l2,2.69,2.24-.17-2.6-3.51a9,9,0,0,0-1.61-1.69,4.65,4.65,0,0,0-1.13-.59,4.69,4.69,0,0,0,2.77-1.47,3.44,3.44,0,0,0,.75-2.5,3.93,3.93,0,0,0-.71-2,3,3,0,0,0-1.59-1.18,7.81,7.81,0,0,0-2.76-.16l-6,.43,1,13.56Zm-.88-12,4.26-.31a3.15,3.15,0,0,1,2.2.46,2,2,0,0,1,.8,1.52,2.15,2.15,0,0,1-.26,1.24,2.06,2.06,0,0,1-1,.89,5.73,5.73,0,0,1-1.88.39l-3.82.28Z"/><path class="cls-5" d="M323.43,363a2.61,2.61,0,0,1,1.9-.92,2.71,2.71,0,0,1,2.06.64,2.73,2.73,0,0,1-1.6,4.85,3,3,0,0,1-1.47-.26,2.32,2.32,0,0,1-1.07-1,2.94,2.94,0,0,1-.43-1.35,2.69,2.69,0,0,1,.61-2m-1.82-.15a3.56,3.56,0,0,0-.51,2.26,4,4,0,0,0,1.45,2.87,5,5,0,0,0,6.47-.47,3.89,3.89,0,0,0,1-3,3.52,3.52,0,0,0-.82-2.11,3.64,3.64,0,0,0-2-1.18,3.16,3.16,0,0,0,1.43-1.18,2.79,2.79,0,0,0,.37-1.68,3.35,3.35,0,0,0-1.27-2.43,4,4,0,0,0-2.93-.82,4,4,0,0,0-2.76,1.22,3.26,3.26,0,0,0-.88,2.56,2.81,2.81,0,0,0,.62,1.64,3.11,3.11,0,0,0,1.63,1,3.37,3.37,0,0,0-1.82,1.36m1.79-5.66a2.19,2.19,0,0,1,1.54-.73,2.13,2.13,0,0,1,1.63.51,2.08,2.08,0,0,1,.73,1.49,2,2,0,0,1-.49,1.53,2.11,2.11,0,0,1-1.54.72,2.18,2.18,0,0,1-1.66-.49,2.14,2.14,0,0,1-.72-1.53,2,2,0,0,1,.51-1.5"/><path class="cls-5" d="M334,362.18a2.64,2.64,0,0,1,1.89-.92,2.75,2.75,0,0,1,2.06.64,2.69,2.69,0,0,1,.93,1.94,2.62,2.62,0,0,1-.62,2,2.66,2.66,0,0,1-1.91.91,3,3,0,0,1-1.47-.26,2.32,2.32,0,0,1-1.07-1,3.06,3.06,0,0,1-.43-1.35,2.69,2.69,0,0,1,.62-2m-1.83-.15a3.59,3.59,0,0,0-.51,2.27,4,4,0,0,0,1.45,2.87,5,5,0,0,0,6.47-.47,3.89,3.89,0,0,0,1-3,3.6,3.6,0,0,0-.81-2.12,3.68,3.68,0,0,0-2-1.17,3.12,3.12,0,0,0,1.43-1.19,2.79,2.79,0,0,0,.37-1.68,3.33,3.33,0,0,0-1.27-2.43,4.49,4.49,0,0,0-5.69.4,3.29,3.29,0,0,0-.88,2.56,2.87,2.87,0,0,0,.62,1.65,3.21,3.21,0,0,0,1.63,1,3.3,3.3,0,0,0-1.82,1.35m1.79-5.66a2.19,2.19,0,0,1,1.54-.73,2.15,2.15,0,0,1,2.37,2,2.08,2.08,0,0,1-.5,1.54,2.39,2.39,0,0,1-3.19.22,2.11,2.11,0,0,1-.73-1.52,2,2,0,0,1,.51-1.51"/></g><rect class="cls-5" x="343.3" y="365.41" width="1.9" height="1.9" transform="translate(-26.17 26.48) rotate(-4.24)"/><g class="cls-3"><path class="cls-5" d="M349.13,366.3a3.82,3.82,0,0,0,2.65.7,4.38,4.38,0,0,0,2.54-1,4.85,4.85,0,0,0,1.5-2.47,12.36,12.36,0,0,0,.25-4.18,10.18,10.18,0,0,0-.84-3.78,4.42,4.42,0,0,0-1.8-1.9,4.35,4.35,0,0,0-2.45-.54,4.07,4.07,0,0,0-2.94,1.48,4.64,4.64,0,0,0-1,3.41,4.51,4.51,0,0,0,1.39,3.14,3.71,3.71,0,0,0,2.92,1,3.59,3.59,0,0,0,1.82-.63,3.72,3.72,0,0,0,1.26-1.39c0,.15,0,.26,0,.33a9.43,9.43,0,0,1-.1,2.06,5.52,5.52,0,0,1-.5,1.63,2.74,2.74,0,0,1-.87,1,2.6,2.6,0,0,1-1.32.45,2.16,2.16,0,0,1-1.5-.4,2.79,2.79,0,0,1-.89-1.57l-1.58.24a3.81,3.81,0,0,0,1.38,2.4m4.36-6.58a2.41,2.41,0,0,1-1.81.94,2.51,2.51,0,0,1-2-.66,3,3,0,0,1-.92-2,3.4,3.4,0,0,1,.64-2.41,2.46,2.46,0,0,1,1.84-1,2.35,2.35,0,0,1,1.88.7,3.31,3.31,0,0,1,.91,2.22,3.11,3.11,0,0,1-.57,2.29"/><path class="cls-5" d="M359.53,365a4.16,4.16,0,0,0,5.57.19,4.73,4.73,0,0,0,1.29-2.37,12.32,12.32,0,0,0,.21-3.9,13.54,13.54,0,0,0-.54-3.18,7,7,0,0,0-1-2,3.55,3.55,0,0,0-1.45-1.16,3.87,3.87,0,0,0-1.95-.3,3.78,3.78,0,0,0-2.39,1,4.87,4.87,0,0,0-1.3,2.37,12.71,12.71,0,0,0-.21,3.92q.29,3.82,1.75,5.43m.48-10.19a2.15,2.15,0,0,1,1.76-1.1,2.27,2.27,0,0,1,2,1c.57.69.94,2.16,1.1,4.39s0,3.73-.45,4.5a2.23,2.23,0,0,1-3.83.29c-.57-.7-.94-2.16-1.1-4.4s0-3.77.51-4.64"/><path d="M49.35,615.88l.13,1.66a3.14,3.14,0,0,0-1.42.63,2.2,2.2,0,0,0-.72,1.67,2.28,2.28,0,0,0,.45,1.4,3.8,3.8,0,0,0,1.67,1.24,8.85,8.85,0,0,0,3.15.47,3.91,3.91,0,0,1-1.37-1.47,4,4,0,0,1-.44-1.83A3.78,3.78,0,0,1,52,616.81a4.4,4.4,0,0,1,3.17-1.17,5.18,5.18,0,0,1,2.38.55,4,4,0,0,1,1.68,1.52,4.12,4.12,0,0,1,.59,2.18,4.28,4.28,0,0,1-1.54,3.41c-1,.87-2.71,1.31-5.05,1.31q-3.94,0-5.73-1.45A4.19,4.19,0,0,1,46,619.74a3.65,3.65,0,0,1,3.38-3.86Zm5.86,6.81a3.89,3.89,0,0,0,1.65-.36,2.71,2.71,0,0,0,1.2-1,2.53,2.53,0,0,0,.42-1.38,2.37,2.37,0,0,0-.86-1.82,3.39,3.39,0,0,0-2.32-.76,3.17,3.17,0,0,0-2.22.75,2.5,2.5,0,0,0-.81,1.9,2.59,2.59,0,0,0,.81,1.92A3,3,0,0,0,55.21,622.69Z"/><path d="M59.62,607.69v1.67H49a8.18,8.18,0,0,1,1.15,1.58A10.39,10.39,0,0,1,51,612.7H49.38a10.34,10.34,0,0,0-1.59-2.45A6.27,6.27,0,0,0,46,608.77v-1.08Z"/><path d="M59.62,602.48h-1.9v-1.9h1.9Z"/><path d="M56.47,597.89l-.15-1.6a2.78,2.78,0,0,0,1.65-.78,2.12,2.12,0,0,0,.51-1.47,2.5,2.5,0,0,0-.36-1.35,2.85,2.85,0,0,0-.94-1,5.21,5.21,0,0,0-1.59-.62,8.2,8.2,0,0,0-2-.25h-.33a3.83,3.83,0,0,1,1.29,1.36,3.75,3.75,0,0,1,.5,1.88A3.79,3.79,0,0,1,53.78,597a4.49,4.49,0,0,1-3.22,1.16,4.59,4.59,0,0,1-3.33-1.21A4.1,4.1,0,0,1,46,593.87a4.39,4.39,0,0,1,.71-2.42,4.45,4.45,0,0,1,2-1.67,10,10,0,0,1,3.82-.57,12.58,12.58,0,0,1,4.15.56A4.86,4.86,0,0,1,59,591.46a4.32,4.32,0,0,1,.81,2.62,3.59,3.59,0,0,1-3.38,3.81Zm-6-6.83a3.3,3.3,0,0,0-2.29.77,2.4,2.4,0,0,0-.84,1.84,2.51,2.51,0,0,0,.91,1.93,3.37,3.37,0,0,0,2.35.83,2.91,2.91,0,0,0,2.11-.78,2.6,2.6,0,0,0,.81-1.94,2.47,2.47,0,0,0-.81-1.9A3.18,3.18,0,0,0,50.48,591.06Z"/><path d="M59.62,581.3V583H49a8.18,8.18,0,0,1,1.15,1.58,10.39,10.39,0,0,1,.86,1.76H49.38a10.14,10.14,0,0,0-1.59-2.45A6.27,6.27,0,0,0,46,582.38V581.3Z"/><path d="M63.61,568.1a16.41,16.41,0,0,1-4.08,2.33,12.78,12.78,0,0,1-9.06.25,17.86,17.86,0,0,1-4.68-2.58v-1.2c1.29.75,2.21,1.24,2.76,1.49a15.06,15.06,0,0,0,6.15,1.28,16.7,16.7,0,0,0,8.91-2.77Z"/><path d="M58,556.66h1.61v9a3,3,0,0,1-1.16-.19,6.24,6.24,0,0,1-1.81-1.1,18.07,18.07,0,0,1-2.06-2.18,18.35,18.35,0,0,0-2.88-3,3.43,3.43,0,0,0-2-.78,2.25,2.25,0,0,0-1.68.71,2.57,2.57,0,0,0-.68,1.85,2.62,2.62,0,0,0,.72,1.93,2.74,2.74,0,0,0,2,.73l-.18,1.72A4.21,4.21,0,0,1,47,564a4.48,4.48,0,0,1-1-3.09,4.31,4.31,0,0,1,1.08-3.09,3.57,3.57,0,0,1,2.69-1.14,4.14,4.14,0,0,1,1.61.33A6.31,6.31,0,0,1,53,558.12a27,27,0,0,1,2.39,2.57c.84,1,1.41,1.65,1.71,1.93a5.5,5.5,0,0,0,.9.7Z"/><path d="M47.81,549.48H46.2v-8.79h1.3a18.63,18.63,0,0,0,3.67,2.57,22.85,22.85,0,0,0,4.71,2,17.57,17.57,0,0,0,3.74.64v1.71a16.82,16.82,0,0,1-3.88-.63,20.47,20.47,0,0,1-4.38-1.73,18.73,18.73,0,0,1-3.55-2.39Z"/><path d="M59.85,539.82l-14.06-3.94v-1.33l14.06,3.93Z"/><path d="M59.62,527.48v1.66H49a8.51,8.51,0,0,1,1.15,1.58,10.77,10.77,0,0,1,.86,1.76H49.38A10.34,10.34,0,0,0,47.79,530,6.44,6.44,0,0,0,46,528.55v-1.07Z"/><path d="M49.35,514.54l.13,1.66a3.14,3.14,0,0,0-1.42.63,2.2,2.2,0,0,0-.72,1.67,2.28,2.28,0,0,0,.45,1.4,3.73,3.73,0,0,0,1.67,1.24,8.82,8.82,0,0,0,3.15.48,3.86,3.86,0,0,1-1.81-3.3A3.8,3.8,0,0,1,52,515.47a4.4,4.4,0,0,1,3.17-1.17,5.3,5.3,0,0,1,2.38.55,4.07,4.07,0,0,1,1.68,1.52,4.13,4.13,0,0,1,.59,2.19,4.26,4.26,0,0,1-1.54,3.4c-1,.88-2.71,1.32-5.05,1.32q-3.94,0-5.73-1.46A4.19,4.19,0,0,1,46,518.4a3.65,3.65,0,0,1,3.38-3.86Zm5.86,6.82a3.9,3.9,0,0,0,1.65-.37,2.7,2.7,0,0,0,1.2-1,2.54,2.54,0,0,0,.42-1.39,2.34,2.34,0,0,0-.86-1.81A3.34,3.34,0,0,0,55.3,516a3.17,3.17,0,0,0-2.22.75,2.47,2.47,0,0,0-.81,1.89,2.59,2.59,0,0,0,.81,1.92A3,3,0,0,0,55.21,521.36Z"/><path d="M50.84,509l-2.59.45H46v-1.9h2.23l2.59.45Zm0,3.06-2.59.47H46v-1.9h2.23l2.59.42Z"/><path d="M63.61,504.4v1.2a16.74,16.74,0,0,0-8.91-2.78,15.64,15.64,0,0,0-3.46.4,15.46,15.46,0,0,0-2.67.88,31.27,31.27,0,0,0-2.78,1.5v-1.2a17.86,17.86,0,0,1,4.68-2.58,12.78,12.78,0,0,1,9.06.25A17.06,17.06,0,0,1,63.61,504.4Z"/></g><path d="M899.48,460.35l.13,1.66a3,3,0,0,0-1.43.63,2.21,2.21,0,0,0-.71,1.66,2.3,2.3,0,0,0,.45,1.41,3.88,3.88,0,0,0,1.67,1.24,8.85,8.85,0,0,0,3.15.47,3.84,3.84,0,0,1-1.37-1.47,4,4,0,0,1-.44-1.83,3.78,3.78,0,0,1,1.23-2.84,4.4,4.4,0,0,1,3.17-1.17,5.2,5.2,0,0,1,2.38.55,4,4,0,0,1,1.68,1.51,4.15,4.15,0,0,1,.59,2.19,4.29,4.29,0,0,1-1.54,3.4q-1.53,1.32-5.06,1.32-3.93,0-5.72-1.46a4.16,4.16,0,0,1-1.56-3.42,3.85,3.85,0,0,1,.9-2.63A3.8,3.8,0,0,1,899.48,460.35Zm5.86,6.81a3.76,3.76,0,0,0,1.65-.37,2.64,2.64,0,0,0,1.2-1,2.52,2.52,0,0,0,.41-1.38,2.35,2.35,0,0,0-.85-1.82,3.34,3.34,0,0,0-2.32-.76,3.14,3.14,0,0,0-2.22.75,2.47,2.47,0,0,0-.81,1.89,2.56,2.56,0,0,0,.81,1.92A2.91,2.91,0,0,0,905.34,467.16Z"/><path d="M909.74,452.16v1.67H899.11a8.63,8.63,0,0,1,1.15,1.58,11.21,11.21,0,0,1,.86,1.76h-1.61a10.14,10.14,0,0,0-1.59-2.45,6.27,6.27,0,0,0-1.82-1.48v-1.08Z"/><path d="M909.74,447h-1.9v-1.9h1.9Z"/><path d="M906.6,442.36l-.15-1.6a2.81,2.81,0,0,0,1.64-.78,2.15,2.15,0,0,0,.51-1.48,2.46,2.46,0,0,0-.35-1.34,2.76,2.76,0,0,0-.94-1,5.47,5.47,0,0,0-1.59-.63,8.76,8.76,0,0,0-2-.25h-.33a3.86,3.86,0,0,1,1.29,1.37,3.73,3.73,0,0,1,.5,1.88,3.77,3.77,0,0,1-1.23,2.85,4.46,4.46,0,0,1-3.22,1.17,4.56,4.56,0,0,1-3.33-1.22,4.07,4.07,0,0,1-1.26-3.05,4.34,4.34,0,0,1,2.75-4.09,9.77,9.77,0,0,1,3.82-.58,12.29,12.29,0,0,1,4.15.57,4.91,4.91,0,0,1,2.35,1.68,4.36,4.36,0,0,1,.81,2.62,3.84,3.84,0,0,1-.89,2.61A3.79,3.79,0,0,1,906.6,442.36Zm-6-6.83a3.29,3.29,0,0,0-2.28.76,2.41,2.41,0,0,0-.84,1.84,2.52,2.52,0,0,0,.91,1.94,3.36,3.36,0,0,0,2.35.83,2.88,2.88,0,0,0,2.11-.79,2.57,2.57,0,0,0,.81-1.93,2.46,2.46,0,0,0-.81-1.9A3.19,3.19,0,0,0,900.6,435.53Z"/><path d="M909.74,425.77v1.67H899.11a8.29,8.29,0,0,1,1.15,1.58,11.15,11.15,0,0,1,.86,1.75h-1.61a10.08,10.08,0,0,0-1.59-2.44,6.32,6.32,0,0,0-1.82-1.49v-1.07Z"/><path d="M913.74,412.57a16.73,16.73,0,0,1-4.08,2.33,12.73,12.73,0,0,1-9.07.24,17.64,17.64,0,0,1-4.67-2.57v-1.2a31.3,31.3,0,0,0,2.76,1.48,14.19,14.19,0,0,0,2.67.89,15.17,15.17,0,0,0,3.48.4,16.73,16.73,0,0,0,8.91-2.77Z"/><path d="M908.14,401.13h1.6v9a2.82,2.82,0,0,1-1.15-.2,5.87,5.87,0,0,1-1.81-1.09,17.5,17.5,0,0,1-2.06-2.19,18.61,18.61,0,0,0-2.88-3,3.46,3.46,0,0,0-2-.78,2.24,2.24,0,0,0-1.67.71,2.57,2.57,0,0,0-.68,1.85,2.63,2.63,0,0,0,.72,1.93,2.76,2.76,0,0,0,2,.73l-.18,1.71a4.22,4.22,0,0,1-2.93-1.32,4.54,4.54,0,0,1-1-3.09,4.33,4.33,0,0,1,1.08-3.1,3.57,3.57,0,0,1,2.69-1.14,4.15,4.15,0,0,1,1.61.34,6.12,6.12,0,0,1,1.65,1.11,25.58,25.58,0,0,1,2.4,2.57c.84,1,1.41,1.64,1.71,1.93a5.5,5.5,0,0,0,.9.7Z"/><path d="M897.93,394h-1.6v-8.8h1.3a18.22,18.22,0,0,0,3.67,2.58,22.85,22.85,0,0,0,4.71,2,17.59,17.59,0,0,0,3.73.63v1.72a16.83,16.83,0,0,1-3.87-.63,20.47,20.47,0,0,1-4.38-1.73,18.69,18.69,0,0,1-3.56-2.4Z"/><path d="M910,384.29l-14.06-3.94V379L910,383Z"/><path d="M909.74,371.94v1.67H899.11a8.63,8.63,0,0,1,1.15,1.58,11.21,11.21,0,0,1,.86,1.76h-1.61a10.14,10.14,0,0,0-1.59-2.45A6.27,6.27,0,0,0,896.1,373v-1.08Z"/><path d="M899.48,359l.13,1.66a3.24,3.24,0,0,0-1.43.63,2.23,2.23,0,0,0-.71,1.67,2.28,2.28,0,0,0,.45,1.4,3.8,3.8,0,0,0,1.67,1.24,8.85,8.85,0,0,0,3.15.47,3.84,3.84,0,0,1-1.37-1.47,4,4,0,0,1-.44-1.83,3.78,3.78,0,0,1,1.23-2.84,4.4,4.4,0,0,1,3.17-1.17,5.2,5.2,0,0,1,2.38.55,4,4,0,0,1,1.68,1.52A4.12,4.12,0,0,1,910,363a4.31,4.31,0,0,1-1.54,3.41q-1.53,1.31-5.06,1.31-3.93,0-5.72-1.45a4.19,4.19,0,0,1-1.56-3.42,3.65,3.65,0,0,1,3.38-3.86Zm5.86,6.81a3.89,3.89,0,0,0,1.65-.36,2.71,2.71,0,0,0,1.2-1,2.52,2.52,0,0,0,.41-1.38,2.36,2.36,0,0,0-.85-1.82,3.39,3.39,0,0,0-2.32-.76,3.1,3.1,0,0,0-2.22.76,2.47,2.47,0,0,0-.81,1.89,2.59,2.59,0,0,0,.81,1.92A2.94,2.94,0,0,0,905.34,365.82Z"/><path d="M901,353.49l-2.59.46h-2.23v-1.9h2.23l2.59.44Zm0,3.07-2.59.47h-2.23v-1.91h2.23l2.59.42Z"/><path d="M913.74,348.87v1.2a16.7,16.7,0,0,0-8.91-2.77,15.05,15.05,0,0,0-6.13,1.28,30.42,30.42,0,0,0-2.78,1.49v-1.2a17.86,17.86,0,0,1,4.68-2.58,12.78,12.78,0,0,1,9.06.25A17.06,17.06,0,0,1,913.74,348.87Z"/><path d="M103,624.52l-.15-1.75a3.08,3.08,0,0,0,1.92-.91,2.45,2.45,0,0,0,.65-1.71,2.66,2.66,0,0,0-.91-2,3.46,3.46,0,0,0-2.41-.83,3.11,3.11,0,0,0-2.25.8,2.82,2.82,0,0,0-.83,2.1,2.92,2.92,0,0,0,1.32,2.48l-.21,1.56-7-1.31v-6.76h1.6v5.42l3.65.73a4.39,4.39,0,0,1-.85-2.56,4.09,4.09,0,0,1,1.23-3,4.33,4.33,0,0,1,3.17-1.22,5,5,0,0,1,3.19,1.07,4.33,4.33,0,0,1,1.65,3.57,4.41,4.41,0,0,1-1,3A4,4,0,0,1,103,624.52Z"/><path d="M96.28,605.3l.13,1.66a3.18,3.18,0,0,0-1.43.63,2.2,2.2,0,0,0-.72,1.67,2.28,2.28,0,0,0,.45,1.4,3.71,3.71,0,0,0,1.68,1.24,8.72,8.72,0,0,0,3.14.48,3.92,3.92,0,0,1-1.81-3.3A3.8,3.8,0,0,1,99,606.23a4.42,4.42,0,0,1,3.18-1.17,5.29,5.29,0,0,1,2.37.55,4,4,0,0,1,1.69,1.52,4.12,4.12,0,0,1,.58,2.19,4.28,4.28,0,0,1-1.53,3.4c-1,.88-2.71,1.32-5.06,1.32q-3.95,0-5.73-1.46a4.19,4.19,0,0,1-1.56-3.42,3.64,3.64,0,0,1,3.39-3.86Zm5.86,6.82a4,4,0,0,0,1.65-.37,2.81,2.81,0,0,0,1.2-1,2.61,2.61,0,0,0,.41-1.39,2.36,2.36,0,0,0-.85-1.81,3.36,3.36,0,0,0-2.32-.76,3.14,3.14,0,0,0-2.22.75,2.47,2.47,0,0,0-.81,1.89,2.59,2.59,0,0,0,.81,1.92A3,3,0,0,0,102.14,612.12Z"/><path d="M106.54,602.47h-1.9v-1.9h1.9Z"/><path d="M106.54,591.84v1.67H95.91a9.12,9.12,0,0,1,1.15,1.58,11.21,11.21,0,0,1,.86,1.76H96.3a9.85,9.85,0,0,0-1.59-2.45,6.14,6.14,0,0,0-1.82-1.48v-1.08Z"/><path d="M99.84,587.57a12.43,12.43,0,0,1-3.88-.5,4.83,4.83,0,0,1-2.27-1.47,3.77,3.77,0,0,1-.8-2.46,4.06,4.06,0,0,1,.44-1.92,3.68,3.68,0,0,1,1.27-1.36,7.06,7.06,0,0,1,2-.85,13.77,13.77,0,0,1,3.22-.3,12.42,12.42,0,0,1,3.86.49,4.73,4.73,0,0,1,2.27,1.47,3.78,3.78,0,0,1,.8,2.47,3.71,3.71,0,0,1-1.41,3.08Q103.67,587.57,99.84,587.57Zm0-1.72c2.23,0,3.71-.26,4.45-.78a2.24,2.24,0,0,0,0-3.87c-.75-.52-2.23-.78-4.45-.78s-3.73.26-4.46.78a2.34,2.34,0,0,0-1.11,2,2.14,2.14,0,0,0,1,1.83C96.08,585.57,97.61,585.85,99.84,585.85Z"/><path d="M110.53,568.08a16.87,16.87,0,0,1-4.07,2.34,12.87,12.87,0,0,1-9.07.24,18,18,0,0,1-4.67-2.58v-1.2a31,31,0,0,0,2.75,1.49,14.94,14.94,0,0,0,2.67.89,15.9,15.9,0,0,0,3.49.4,16.69,16.69,0,0,0,8.9-2.78Z"/><path d="M104.94,556.64h1.6v9a2.86,2.86,0,0,1-1.16-.19,6.37,6.37,0,0,1-1.81-1.1,17.34,17.34,0,0,1-2.06-2.18,18.83,18.83,0,0,0-2.87-3,3.44,3.44,0,0,0-2-.77,2.22,2.22,0,0,0-1.67.7,2.55,2.55,0,0,0-.69,1.85,2.61,2.61,0,0,0,.73,1.93,2.71,2.71,0,0,0,2,.73l-.18,1.72A4.21,4.21,0,0,1,93.9,564a4.5,4.5,0,0,1-1-3.08A4.28,4.28,0,0,1,94,557.8a3.56,3.56,0,0,1,2.69-1.14,4.13,4.13,0,0,1,1.6.33,6.4,6.4,0,0,1,1.66,1.11,26.94,26.94,0,0,1,2.39,2.57c.84,1,1.41,1.65,1.71,1.93a5.23,5.23,0,0,0,.91.71Z"/><path d="M106.54,553.92h-1.9V552h1.9Z"/><path d="M104.94,540.81h1.6v9a3,3,0,0,1-1.16-.19,6.37,6.37,0,0,1-1.81-1.1,17.53,17.53,0,0,1-2.06-2.19,19.11,19.11,0,0,0-2.87-3,3.46,3.46,0,0,0-2-.78,2.23,2.23,0,0,0-1.67.71,2.54,2.54,0,0,0-.69,1.85A2.62,2.62,0,0,0,95,547a2.75,2.75,0,0,0,2,.73l-.18,1.72a4.21,4.21,0,0,1-2.92-1.33,4.54,4.54,0,0,1-1-3.09A4.27,4.27,0,0,1,94,542a3.56,3.56,0,0,1,2.69-1.14,4.13,4.13,0,0,1,1.6.33,6.15,6.15,0,0,1,1.66,1.11,25.75,25.75,0,0,1,2.39,2.57c.84,1,1.41,1.64,1.71,1.93a5.16,5.16,0,0,0,.91.7Z"/><path d="M99.84,539a12.43,12.43,0,0,1-3.88-.5,4.83,4.83,0,0,1-2.27-1.47,3.77,3.77,0,0,1-.8-2.46,4.06,4.06,0,0,1,.44-1.92,3.78,3.78,0,0,1,1.27-1.37,7.35,7.35,0,0,1,2-.84,13.77,13.77,0,0,1,3.22-.3,12.42,12.42,0,0,1,3.86.49,4.73,4.73,0,0,1,2.27,1.47,3.78,3.78,0,0,1,.8,2.47,3.71,3.71,0,0,1-1.41,3.08Q103.67,539,99.84,539Zm0-1.72c2.23,0,3.71-.26,4.45-.78a2.24,2.24,0,0,0,0-3.87c-.75-.52-2.23-.78-4.45-.78s-3.73.26-4.46.78a2.34,2.34,0,0,0-1.11,2,2.15,2.15,0,0,0,1,1.84C96.08,537,97.61,537.3,99.84,537.3Z"/><path d="M97.76,524.84l-2.59.46H93v-1.9h2.22l2.59.44Zm0,3.07-2.59.47H93v-1.9h2.22l2.59.41Z"/><path d="M110.53,520.22v1.19a16.76,16.76,0,0,0-8.9-2.77,15.5,15.5,0,0,0-3.46.4,14.16,14.16,0,0,0-2.67.88,30.31,30.31,0,0,0-2.78,1.49v-1.19a18,18,0,0,1,4.67-2.58,12.78,12.78,0,0,1,4.23-.71,12.62,12.62,0,0,1,4.84,1A16.85,16.85,0,0,1,110.53,520.22Z"/><path d="M295.68,504.47l10.19-9,4,4.51a8,8,0,0,1,1.56,2.32,3.07,3.07,0,0,1,0,2,3.94,3.94,0,0,1-1.16,1.78,3.47,3.47,0,0,1-2.45.91,4.75,4.75,0,0,1-2.86-1.34,5,5,0,0,1,.21,1.26,9.22,9.22,0,0,1-.37,2.32l-1.21,4.22-1.49-1.7.93-3.22c.26-.93.44-1.67.54-2.21a4,4,0,0,0,.08-1.28,2.89,2.89,0,0,0-.27-.86,6.19,6.19,0,0,0-.62-.79l-1.38-1.57-4.52,4Zm6.88-3.68,2.56,2.9a5.69,5.69,0,0,0,1.47,1.28,2.05,2.05,0,0,0,1.31.25,2.14,2.14,0,0,0,1.15-.53,2.07,2.07,0,0,0,.73-1.58,3.35,3.35,0,0,0-1-2.07l-2.85-3.22Z"/><path d="M308.46,518.92l-1.11-1.25,8-7a7.94,7.94,0,0,1-1.9-.42,11,11,0,0,1-1.81-.75l1.21-1.06a10,10,0,0,0,2.81.78,6.34,6.34,0,0,0,2.35-.09l.71.8Z"/><path d="M318.29,527.64l-1.21,1.06L311.14,522a3.05,3.05,0,0,1,1-.62,6.32,6.32,0,0,1,2.08-.37,17.6,17.6,0,0,1,3,.28,19.42,19.42,0,0,0,4.14.34,3.44,3.44,0,0,0,2-.75,2.22,2.22,0,0,0,.78-1.64,2.57,2.57,0,0,0-.71-1.84,2.6,2.6,0,0,0-1.82-1,2.72,2.72,0,0,0-2,.77l-1-1.4a4.22,4.22,0,0,1,3.07-.94,4.51,4.51,0,0,1,2.8,1.65,4.32,4.32,0,0,1,1.24,3,3.56,3.56,0,0,1-1.26,2.63,4.12,4.12,0,0,1-1.43.81,6.31,6.31,0,0,1-2,.27,26.39,26.39,0,0,1-3.49-.35c-1.29-.19-2.15-.3-2.56-.31a5.92,5.92,0,0,0-1.14.07Z"/><path d="M318.89,530.74l1.43-1.26,1.25,1.43-1.42,1.26Z"/><path d="M330.69,526.26l1.2-1.06,5.82,6.6-1,.86a18.23,18.23,0,0,0-4.46.5,22.35,22.35,0,0,0-4.83,1.64,17,17,0,0,0-3.22,2l-1.14-1.29a16.68,16.68,0,0,1,3.32-2.09,20.53,20.53,0,0,1,4.43-1.6,19,19,0,0,1,4.25-.56Z"/><path d="M333.77,537.48a12.7,12.7,0,0,1,3.24-2.2,4.81,4.81,0,0,1,2.68-.39,3.72,3.72,0,0,1,2.22,1.32,4,4,0,0,1,.94,1.73,3.57,3.57,0,0,1-.05,1.86,6.73,6.73,0,0,1-1,2,13.23,13.23,0,0,1-2.2,2.35,12.4,12.4,0,0,1-3.22,2.19,4.81,4.81,0,0,1-2.68.4,4.14,4.14,0,0,1-3.22-4.57Q330.91,540,333.77,537.48Zm1.14,1.28c-1.67,1.48-2.62,2.66-2.82,3.54a2.24,2.24,0,0,0,2.56,2.9c.9-.1,2.19-.89,3.85-2.36s2.62-2.66,2.83-3.54a2.32,2.32,0,0,0-.47-2.19,2.13,2.13,0,0,0-1.94-.74Q337.42,536.55,334.91,538.76Z"/><path d="M338.66,559.16a16.73,16.73,0,0,1,1.51-4.45,12.69,12.69,0,0,1,3-3.92,12.37,12.37,0,0,1,3.64-2.26,17.55,17.55,0,0,1,5.21-1.16l.79.89c-1.46.29-2.47.53-3,.71a14.7,14.7,0,0,0-2.59,1.1,15.45,15.45,0,0,0-2.88,2,16.76,16.76,0,0,0-4.85,8Z"/><path d="M347.58,563.23l-1.1-1.26,8-7a8.41,8.41,0,0,1-1.9-.43,10.7,10.7,0,0,1-1.81-.74L352,552.7a10,10,0,0,0,2.81.78,6.28,6.28,0,0,0,2.34-.09l.72.81Z"/><path d="M349.71,566l13.15-6.34.88,1L350.6,567Z"/><path d="M360.91,575.9l-1.2,1.06-5.94-6.73a2.88,2.88,0,0,1,1-.63,6.38,6.38,0,0,1,2.09-.37,17.58,17.58,0,0,1,3,.28,18.84,18.84,0,0,0,4.14.34,3.41,3.41,0,0,0,2-.75,2.21,2.21,0,0,0,.79-1.64,2.55,2.55,0,0,0-.71-1.83,2.59,2.59,0,0,0-1.82-1,2.8,2.8,0,0,0-2,.77l-1-1.4a4.21,4.21,0,0,1,3.07-.94,4.53,4.53,0,0,1,2.8,1.65,4.31,4.31,0,0,1,1.23,3,3.55,3.55,0,0,1-1.26,2.63,4.08,4.08,0,0,1-1.42.81,6,6,0,0,1-2,.27,27.91,27.91,0,0,1-3.5-.34c-1.29-.2-2.14-.3-2.55-.32a6,6,0,0,0-1.15.07Z"/><path d="M367.84,572.9l1.63-2.06,1.67-1.47,1.25,1.43-1.66,1.47-2.22,1.4Zm2,2.3,1.64-2.05,1.66-1.47,1.26,1.43-1.67,1.47L370.53,576Z"/><path d="M363.39,587.17l-.79-.9a16.74,16.74,0,0,0,8.51-3.81,15.51,15.51,0,0,0,2.33-2.59,14.14,14.14,0,0,0,1.42-2.43c.26-.55.62-1.53,1.1-3l.79.9a18,18,0,0,1-1.8,5,12.48,12.48,0,0,1-2.7,3.34,12.65,12.65,0,0,1-4.26,2.48A16.85,16.85,0,0,1,363.39,587.17Z"/><path d="M293.87,343.58l-10.09-9.1,4-4.48a7.91,7.91,0,0,1,2.12-1.8,3,3,0,0,1,2-.26,3.85,3.85,0,0,1,1.9.95,3.43,3.43,0,0,1,1.18,2.33,4.75,4.75,0,0,1-1,3,4.51,4.51,0,0,1,1.23-.35,9.45,9.45,0,0,1,2.34.1l4.33.72-1.51,1.68-3.31-.55c-1-.16-1.71-.26-2.26-.3a4.47,4.47,0,0,0-1.29.07,2.86,2.86,0,0,0-.81.37,5.4,5.4,0,0,0-.72.7l-1.4,1.55,4.48,4Zm-4.44-6.42,2.59-2.87a5.69,5.69,0,0,0,1.1-1.61,2.05,2.05,0,0,0,.11-1.33,2.18,2.18,0,0,0-.67-1.08,2,2,0,0,0-1.64-.54A3.24,3.24,0,0,0,289,331l-2.89,3.2Z"/><path d="M306.79,329.25l-1.12,1.24-7.9-7.12a8.53,8.53,0,0,1-.2,1.95,10.73,10.73,0,0,1-.54,1.88l-1.2-1.08a10.29,10.29,0,0,0,.46-2.89,6.42,6.42,0,0,0-.36-2.32l.72-.8Z"/><path d="M314.33,318.5l1.19,1.07-6,6.67a3.09,3.09,0,0,1-.73-.92,6.11,6.11,0,0,1-.6-2,16.43,16.43,0,0,1-.07-3,18.4,18.4,0,0,0-.13-4.15,3.43,3.43,0,0,0-1-1.92,2.27,2.27,0,0,0-1.72-.6,2.59,2.59,0,0,0-1.74.92,2.64,2.64,0,0,0-.76,1.92,2.74,2.74,0,0,0,1,1.88l-1.28,1.16a4.26,4.26,0,0,1-1.29-2.94,4.54,4.54,0,0,1,1.33-3,4.28,4.28,0,0,1,2.88-1.57,3.56,3.56,0,0,1,2.76,1,4,4,0,0,1,1,1.32,6.1,6.1,0,0,1,.49,1.94,26,26,0,0,1,.06,3.51,25,25,0,0,0,0,2.58,4.93,4.93,0,0,0,.2,1.13Z"/><path d="M317.34,317.55l-1.41-1.28,1.28-1.41,1.41,1.27Z"/><path d="M311.55,306.33l-1.19-1.07,5.89-6.54,1,.87a18.48,18.48,0,0,0,1,4.37,22.52,22.52,0,0,0,2.18,4.62,17.32,17.32,0,0,0,2.35,3l-1.15,1.27a16.55,16.55,0,0,1-2.46-3.06,20.23,20.23,0,0,1-2.09-4.22,18.45,18.45,0,0,1-1-4.16Z"/><path d="M322.35,302a12.08,12.08,0,0,1-2.55-3,4.8,4.8,0,0,1-.7-2.61,3.71,3.71,0,0,1,1.06-2.36,4,4,0,0,1,1.61-1.13,3.64,3.64,0,0,1,1.86-.16,6.69,6.69,0,0,1,2.06.72,13.45,13.45,0,0,1,2.59,1.93,12.42,12.42,0,0,1,2.54,2.95,4.8,4.8,0,0,1,.7,2.61,3.76,3.76,0,0,1-1.06,2.37,3.68,3.68,0,0,1-3.11,1.35Q325.19,304.56,322.35,302Zm1.14-1.27q2.49,2.23,3.84,2.4a2.24,2.24,0,0,0,2.58-2.88c-.2-.88-1.12-2.07-2.78-3.56s-2.94-2.3-3.83-2.4a2.31,2.31,0,0,0-2.13.71,2.16,2.16,0,0,0-.51,2C320.89,298,321.84,299.22,323.49,300.72Z"/><path d="M343.34,294.69a16.86,16.86,0,0,1-4.59-1,12.77,12.77,0,0,1-6.9-5.89,17.78,17.78,0,0,1-1.74-5.05l.8-.89a30.23,30.23,0,0,0,1,2.95,14.53,14.53,0,0,0,1.39,2.45,15.34,15.34,0,0,0,2.32,2.63,16.79,16.79,0,0,0,8.47,3.91Z"/><path d="M346.37,285.35l-1.12,1.24-7.89-7.12a9.21,9.21,0,0,1-.21,1.95,11.75,11.75,0,0,1-.53,1.88l-1.2-1.08a9.92,9.92,0,0,0,.45-2.89,6.19,6.19,0,0,0-.35-2.32l.72-.8Z"/><path d="M348.88,282.92l-7.8-12.34.89-1,7.81,12.33Z"/><path d="M357.45,270.68l1.19,1.07-6,6.67a3,3,0,0,1-.73-.92,6.06,6.06,0,0,1-.6-2,16.43,16.43,0,0,1-.07-3,18.34,18.34,0,0,0-.13-4.15,3.5,3.5,0,0,0-1-1.93,2.24,2.24,0,0,0-1.72-.59,2.55,2.55,0,0,0-1.74.92,2.6,2.6,0,0,0-.76,1.91,2.78,2.78,0,0,0,1,1.89l-1.28,1.15a4.24,4.24,0,0,1-1.29-2.94,4.58,4.58,0,0,1,1.32-3,4.32,4.32,0,0,1,2.88-1.57,3.57,3.57,0,0,1,2.76.95,4,4,0,0,1,1,1.33,6,6,0,0,1,.49,1.93,26,26,0,0,1,.06,3.51q-.07,2,0,2.58a6.16,6.16,0,0,0,.2,1.13Z"/><path d="M353.69,264.14l-2.24-1.39-1.65-1.49,1.27-1.41,1.66,1.49,1.64,2Zm2.05-2.28-2.22-1.4L351.86,259l1.28-1.41,1.65,1.49,1.62,2.06Z"/><path d="M368.36,266.94l-.8.88a16.69,16.69,0,0,0-4.76-8,15.32,15.32,0,0,0-2.83-2,14,14,0,0,0-2.58-1.13,28.72,28.72,0,0,0-3.06-.76l.8-.89a17.79,17.79,0,0,1,5.2,1.22,12.44,12.44,0,0,1,3.61,2.3,12.77,12.77,0,0,1,3,4A17.28,17.28,0,0,1,368.36,266.94Z"/><path d="M356.09,76l7.7-11.2,5,3.41a8,8,0,0,1,2.07,1.87,3,3,0,0,1,.51,1.92,3.88,3.88,0,0,1-.69,2,3.42,3.42,0,0,1-2.16,1.48,4.73,4.73,0,0,1-3.09-.6,4.93,4.93,0,0,1,.51,1.17,10.06,10.06,0,0,1,.2,2.34L366,82.8l-1.86-1.28.12-3.35c0-1,0-1.73,0-2.27a3.76,3.76,0,0,0-.24-1.27,2.51,2.51,0,0,0-.47-.76,4.78,4.78,0,0,0-.79-.62L361,72.06l-3.42,5Zm5.79-5.24L365.06,73a5.65,5.65,0,0,0,1.74.88,2,2,0,0,0,1.33-.07,2.22,2.22,0,0,0,1-.8,2,2,0,0,0,.32-1.7A3.27,3.27,0,0,0,368,69.51l-3.55-2.43Z"/><path d="M373.59,73.72l.91-1.32,7.25,5L381,78.45a18.62,18.62,0,0,0-4.2,1.57,22.63,22.63,0,0,0-4.29,2.76,17.56,17.56,0,0,0-2.64,2.72l-1.41-1a16.54,16.54,0,0,1,2.71-2.84,20.13,20.13,0,0,1,3.91-2.63,18.46,18.46,0,0,1,4-1.57Z"/><path d="M376.28,89.9l1.08-1.57,1.56,1.08L377.85,91Z"/><path d="M381.84,89.91l1.41.78a2.8,2.8,0,0,0-.29,1.8,2.12,2.12,0,0,0,.93,1.25,2.59,2.59,0,0,0,1.31.48,3,3,0,0,0,1.32-.24,5.51,5.51,0,0,0,1.41-1,8.34,8.34,0,0,0,1.36-1.54l.18-.28a3.77,3.77,0,0,1-1.86.29,3.71,3.71,0,0,1-1.83-.65,3.82,3.82,0,0,1-1.66-2.63,4.47,4.47,0,0,1,.87-3.32,4.58,4.58,0,0,1,2.89-2,4.1,4.1,0,0,1,3.23.69,4.34,4.34,0,0,1,1.59,2,4.4,4.4,0,0,1,.22,2.63,9.93,9.93,0,0,1-1.69,3.47,12.51,12.51,0,0,1-2.82,3.1,4.87,4.87,0,0,1-2.72,1,4.34,4.34,0,0,1-2.61-.82,3.58,3.58,0,0,1-1.24-4.94Zm9-1.07a3.25,3.25,0,0,0,.66-2.32,2.36,2.36,0,0,0-1-1.73,2.55,2.55,0,0,0-2.12-.35,3.37,3.37,0,0,0-2,1.47,2.92,2.92,0,0,0-.55,2.18A2.6,2.6,0,0,0,387,89.86a2.52,2.52,0,0,0,2,.41A3.2,3.2,0,0,0,390.87,88.84Z"/><path d="M393,101.37l1.84-2.68L390,95.35l.87-1.26,10.1-3.74,1.12.77-5,7.25,1.52,1-.87,1.26-1.51-1-1.85,2.69Zm2.71-3.94,3.47-5.05-7,2.64Z"/><path d="M402.35,112.67a16.68,16.68,0,0,1,.39-4.69,12.75,12.75,0,0,1,1.95-4.52,12.52,12.52,0,0,1,3-3.08A17.46,17.46,0,0,1,412.45,98l1,.67c-1.34.64-2.27,1.12-2.78,1.43a15.82,15.82,0,0,0-2.25,1.7,15.56,15.56,0,0,0-2.3,2.64,16.79,16.79,0,0,0-2.76,8.92Z"/><path d="M408.84,108l1.52.87a3.16,3.16,0,0,0-.34,2.1,2.47,2.47,0,0,0,1,1.5,2.67,2.67,0,0,0,2.2.4,3.36,3.36,0,0,0,2.05-1.51,3.08,3.08,0,0,0,.62-2.31,2.8,2.8,0,0,0-1.26-1.87,3,3,0,0,0-1.41-.52,2.75,2.75,0,0,0-1.38.2l-1.18-1,5-5,5.57,3.83-.9,1.31-4.47-3.07-2.67,2.6a4.39,4.39,0,0,1,2.6.75,4.06,4.06,0,0,1,1.77,2.72,4.25,4.25,0,0,1-.79,3.3,4.92,4.92,0,0,1-2.69,2,4.32,4.32,0,0,1-3.87-.66,4.4,4.4,0,0,1-1.91-2.57A4,4,0,0,1,408.84,108Z"/><path d="M414.74,116.62,426,107.27l1.1.76-11.21,9.35Z"/><path d="M425,123.42l-1.37-.94,6-8.76a9.36,9.36,0,0,1-1.95,0,11.44,11.44,0,0,1-1.94-.29l.92-1.33a9.94,9.94,0,0,0,2.92.08,6.25,6.25,0,0,0,2.25-.66l.88.61Z"/><path d="M441.52,122.29l-1.44-.83a3.18,3.18,0,0,0,.29-1.53,2.24,2.24,0,0,0-1-1.54A2.29,2.29,0,0,0,438,118a3.74,3.74,0,0,0-2,.68,8.52,8.52,0,0,0-2.17,2.32,3.87,3.87,0,0,1,2-.29,4,4,0,0,1,1.76.67,3.77,3.77,0,0,1,1.65,2.62,4.39,4.39,0,0,1-.84,3.28,5.26,5.26,0,0,1-1.8,1.65,4.09,4.09,0,0,1-2.2.53,4.2,4.2,0,0,1-2.13-.76,4.29,4.29,0,0,1-1.94-3.19q-.21-2,1.78-4.92,2.24-3.24,4.45-3.89a4.18,4.18,0,0,1,3.7.65,3.89,3.89,0,0,1,1.66,2.23A3.81,3.81,0,0,1,441.52,122.29Zm-8.93,1a3.93,3.93,0,0,0-.64,1.57,2.76,2.76,0,0,0,.17,1.57,2.5,2.5,0,0,0,.9,1.12,2.36,2.36,0,0,0,2,.33,3.36,3.36,0,0,0,1.94-1.48,3.15,3.15,0,0,0,.64-2.26,2.47,2.47,0,0,0-1.1-1.74,2.59,2.59,0,0,0-2-.41A2.87,2.87,0,0,0,432.59,123.26Z"/><path d="M442.69,124.9l1.08-2.39,1.27-1.84,1.56,1.08-1.26,1.83-1.81,1.9Zm2.53,1.74,1.09-2.39,1.26-1.83,1.57,1.08-1.26,1.83L446,127.21Z"/><path d="M441.84,139.82l-1-.68a16.72,16.72,0,0,0,7.33-5.77,15,15,0,0,0,1.63-3.07,15.66,15.66,0,0,0,.79-2.7c.11-.6.23-1.64.34-3.14l1,.68a17.61,17.61,0,0,1-.53,5.31,12.66,12.66,0,0,1-5.34,7.33A16.9,16.9,0,0,1,441.84,139.82Z"/><path d="M463.46,780.3H461.8V769.67a9.53,9.53,0,0,1-1.58,1.15,11.65,11.65,0,0,1-1.76.86v-1.61a10.07,10.07,0,0,0,2.45-1.6,6.3,6.3,0,0,0,1.48-1.82h1.07Z"/><path d="M476.51,778.7v1.6h-9a2.86,2.86,0,0,1,.19-1.16,6.15,6.15,0,0,1,1.1-1.81,16.67,16.67,0,0,1,2.18-2.05,18.78,18.78,0,0,0,3-2.88,3.44,3.44,0,0,0,.77-2,2.22,2.22,0,0,0-.7-1.67,2.55,2.55,0,0,0-1.85-.68,2.6,2.6,0,0,0-1.93.72,2.71,2.71,0,0,0-.73,2l-1.72-.18a4.23,4.23,0,0,1,1.33-2.92,4.5,4.5,0,0,1,3.08-1,4.32,4.32,0,0,1,3.1,1.09,3.56,3.56,0,0,1,1.14,2.69,4.09,4.09,0,0,1-.33,1.6,6.49,6.49,0,0,1-1.11,1.66,28.25,28.25,0,0,1-2.57,2.39c-1,.84-1.65,1.41-1.93,1.71a5.23,5.23,0,0,0-.71.91Z"/><path d="M478.41,768.49v-1.6h8.8v1.29a18.61,18.61,0,0,0-2.58,3.68,22.54,22.54,0,0,0-2,4.7,18.34,18.34,0,0,0-.64,3.74h-1.71a16.74,16.74,0,0,1,.63-3.87,20.35,20.35,0,0,1,1.73-4.39,18.6,18.6,0,0,1,2.4-3.55Z"/><path d="M497.78,784.3a16.78,16.78,0,0,1-2.33-4.08,12.73,12.73,0,0,1-.24-9.07,17.64,17.64,0,0,1,2.57-4.67H499a30.12,30.12,0,0,0-1.48,2.75,14.19,14.19,0,0,0-.89,2.67,15.32,15.32,0,0,0-.4,3.49A16.73,16.73,0,0,0,499,784.3Z"/><path d="M500.46,776.74l1.75-.15a3.16,3.16,0,0,0,.9,1.93,2.44,2.44,0,0,0,1.71.64,2.66,2.66,0,0,0,2-.91,3.4,3.4,0,0,0,.84-2.41,3.07,3.07,0,0,0-.81-2.25,2.79,2.79,0,0,0-2.1-.83,3,3,0,0,0-1.45.37,2.83,2.83,0,0,0-1,1l-1.57-.2,1.32-7h6.76v1.59H503.4l-.73,3.65a4.42,4.42,0,0,1,2.57-.85,4.05,4.05,0,0,1,3,1.23,4.3,4.3,0,0,1,1.23,3.17,4.93,4.93,0,0,1-1.08,3.19,4.3,4.3,0,0,1-3.57,1.65,4.39,4.39,0,0,1-3-1A4,4,0,0,1,500.46,776.74Z"/><path d="M511.56,771.52l-.46-2.59v-2.22H513v2.22l-.42,2.59Zm3.07,0-.45-2.59v-2.22h1.9v2.22l-.45,2.59Z"/><path d="M519.31,784.3h-1.19a16.82,16.82,0,0,0,2.77-8.91,15.57,15.57,0,0,0-.4-3.46,14.92,14.92,0,0,0-.88-2.67c-.24-.56-.74-1.48-1.49-2.78h1.19a18,18,0,0,1,2.58,4.67,12.78,12.78,0,0,1,.71,4.23,12.62,12.62,0,0,1-1,4.84A17.11,17.11,0,0,1,519.31,784.3Z"/><g class="cls-3"><path d="M461,3.56l-1.66.13a3.24,3.24,0,0,0-.63-1.43,2.23,2.23,0,0,0-1.67-.71,2.28,2.28,0,0,0-1.4.45,3.73,3.73,0,0,0-1.24,1.67,8.82,8.82,0,0,0-.48,3.15,3.93,3.93,0,0,1,1.48-1.37A4,4,0,0,1,457.23,5a3.8,3.8,0,0,1,2.85,1.23,4.4,4.4,0,0,1,1.17,3.17,5.34,5.34,0,0,1-.55,2.38,4.07,4.07,0,0,1-1.52,1.68,4.13,4.13,0,0,1-2.19.59,4.29,4.29,0,0,1-3.4-1.54q-1.32-1.53-1.32-5.06,0-3.93,1.46-5.72A4.19,4.19,0,0,1,457.15.18a3.83,3.83,0,0,1,2.63.9A3.83,3.83,0,0,1,461,3.56Zm-6.82,5.86a3.9,3.9,0,0,0,.37,1.65,2.7,2.7,0,0,0,1,1.2,2.53,2.53,0,0,0,1.39.41,2.33,2.33,0,0,0,1.81-.85,3.34,3.34,0,0,0,.76-2.32,3.14,3.14,0,0,0-.75-2.22,2.47,2.47,0,0,0-1.89-.81,2.59,2.59,0,0,0-1.92.81A3,3,0,0,0,454.19,9.42Z"/><path d="M462.92,10.24l1.67-.23a3.68,3.68,0,0,0,1,2.05,2.4,2.4,0,0,0,1.69.62,2.69,2.69,0,0,0,2-.81,2.74,2.74,0,0,0,.82-2,2.57,2.57,0,0,0-2.66-2.64,4.91,4.91,0,0,0-1.18.18l.18-1.46h.27a3.45,3.45,0,0,0,1.92-.55,1.9,1.9,0,0,0,.85-1.72,2,2,0,0,0-.62-1.52,2.2,2.2,0,0,0-1.6-.6,2.25,2.25,0,0,0-1.62.61A3.08,3.08,0,0,0,464.75,4l-1.67-.3a4.34,4.34,0,0,1,1.39-2.6,4.07,4.07,0,0,1,2.7-.92,4.42,4.42,0,0,1,2.05.48,3.43,3.43,0,0,1,1.93,3.05,2.88,2.88,0,0,1-.47,1.6,3.22,3.22,0,0,1-1.4,1.15,3.17,3.17,0,0,1,1.87,1.16,3.52,3.52,0,0,1,.67,2.19,4,4,0,0,1-1.3,3,4.6,4.6,0,0,1-3.28,1.24,4.25,4.25,0,0,1-3-1.07A4.1,4.1,0,0,1,462.92,10.24Z"/><path d="M474.4,13.82v-1.9h1.9v1.9Z"/><path d="M478.74,10.26l1.75-.14A3.16,3.16,0,0,0,481.4,12a2.44,2.44,0,0,0,1.71.64,2.69,2.69,0,0,0,2-.9A3.46,3.46,0,0,0,486,9.37a3.12,3.12,0,0,0-.8-2.26,2.78,2.78,0,0,0-2.1-.82,2.91,2.91,0,0,0-1.45.36,2.76,2.76,0,0,0-1,.95L479,7.4l1.31-7h6.76V2h-5.42L481,5.67a4.41,4.41,0,0,1,2.57-.86,4.05,4.05,0,0,1,3,1.24,4.29,4.29,0,0,1,1.22,3.17,5,5,0,0,1-1.07,3.19,4.3,4.3,0,0,1-3.57,1.65,4.41,4.41,0,0,1-3-1A4.05,4.05,0,0,1,478.74,10.26Z"/><path d="M489.3,7.12a12.43,12.43,0,0,1,.5-3.88A4.8,4.8,0,0,1,491.27,1a3.71,3.71,0,0,1,2.46-.8,3.94,3.94,0,0,1,1.92.44A3.6,3.6,0,0,1,497,1.89a6.94,6.94,0,0,1,.85,2,13.62,13.62,0,0,1,.3,3.21,12.37,12.37,0,0,1-.49,3.86,4.83,4.83,0,0,1-1.47,2.27,4.11,4.11,0,0,1-5.55-.6C489.75,11.52,489.3,9.67,489.3,7.12Zm1.72,0c0,2.23.26,3.72.78,4.46a2.25,2.25,0,0,0,3.87,0c.52-.74.78-2.22.78-4.45s-.26-3.72-.78-4.46a2.36,2.36,0,0,0-2-1.1,2.13,2.13,0,0,0-1.83,1C491.3,3.36,491,4.89,491,7.12Z"/><path d="M508.79,17.82a16.75,16.75,0,0,1-2.34-4.08,12.61,12.61,0,0,1-.95-4.84,12.52,12.52,0,0,1,.71-4.23A18,18,0,0,1,508.79,0H510c-.74,1.29-1.24,2.21-1.48,2.75a15.49,15.49,0,0,0-.89,2.67,15.32,15.32,0,0,0-.4,3.49A16.82,16.82,0,0,0,510,17.82Z"/><path d="M520.23,12.22v1.6h-9a3,3,0,0,1,.2-1.15,5.9,5.9,0,0,1,1.1-1.81,16.64,16.64,0,0,1,2.18-2.06,18.35,18.35,0,0,0,3-2.88,3.51,3.51,0,0,0,.77-2,2.22,2.22,0,0,0-.7-1.67,2.9,2.9,0,0,0-3.78,0,2.76,2.76,0,0,0-.74,2l-1.71-.17a4.23,4.23,0,0,1,1.33-2.93,4.5,4.5,0,0,1,3.08-1,4.32,4.32,0,0,1,3.1,1.08A3.57,3.57,0,0,1,520.21,4a4.06,4.06,0,0,1-.33,1.6,6.49,6.49,0,0,1-1.11,1.66,28,28,0,0,1-2.57,2.4c-1,.84-1.65,1.41-1.93,1.71a5.58,5.58,0,0,0-.71.9Z"/><path d="M523,13.82v-1.9h1.9v1.9Z"/><path d="M527.29,10.26l1.75-.14A3.16,3.16,0,0,0,530,12a2.44,2.44,0,0,0,1.71.64,2.69,2.69,0,0,0,2-.9,3.46,3.46,0,0,0,.83-2.41,3.12,3.12,0,0,0-.8-2.26,2.78,2.78,0,0,0-2.1-.82,2.91,2.91,0,0,0-1.45.36,2.76,2.76,0,0,0-1,.95l-1.57-.2,1.31-7h6.76V2h-5.42l-.73,3.66a4.41,4.41,0,0,1,2.57-.86,4.05,4.05,0,0,1,3,1.24,4.29,4.29,0,0,1,1.22,3.17,5,5,0,0,1-1.07,3.19,4.3,4.3,0,0,1-3.57,1.65,4.41,4.41,0,0,1-3-1A4.05,4.05,0,0,1,527.29,10.26Z"/><path d="M538.4,5l-.46-2.58V.23h1.9V2.46L539.42,5Zm3.07,0L541,2.46V.23h1.9V2.46L542.47,5Z"/><path d="M546.15,17.82H545a16.73,16.73,0,0,0,2.77-8.91,15.62,15.62,0,0,0-.39-3.46,15.46,15.46,0,0,0-.88-2.67c-.25-.55-.74-1.48-1.5-2.78h1.2a18,18,0,0,1,2.58,4.67,12.78,12.78,0,0,1,.71,4.23,12.62,12.62,0,0,1-1,4.84A17.06,17.06,0,0,1,546.15,17.82Z"/></g><path d="M264.67,713.69V700.1h6a8.24,8.24,0,0,1,2.77.36,3.07,3.07,0,0,1,1.51,1.3,3.89,3.89,0,0,1,.56,2,3.42,3.42,0,0,1-.93,2.44,4.72,4.72,0,0,1-2.9,1.26,4.81,4.81,0,0,1,1.09.68,9.6,9.6,0,0,1,1.49,1.81l2.36,3.7h-2.26l-1.8-2.83c-.52-.82-.95-1.44-1.29-1.87a3.86,3.86,0,0,0-.92-.91,2.81,2.81,0,0,0-.82-.36,4.76,4.76,0,0,0-1-.07h-2.09v6Zm1.79-7.6h3.87a5.82,5.82,0,0,0,1.93-.25,2.09,2.09,0,0,0,1.06-.82,2.2,2.2,0,0,0,.36-1.22,2,2,0,0,0-.7-1.58,3.31,3.31,0,0,0-2.21-.62h-4.31Z"/><path d="M284,713.69h-1.67V703.05a8.18,8.18,0,0,1-1.58,1.15,11.35,11.35,0,0,1-1.76.87v-1.62a10.14,10.14,0,0,0,2.45-1.59,6.27,6.27,0,0,0,1.48-1.82H284Z"/><path d="M289.17,713.69v-1.9h1.9v1.9Z"/><path d="M293.51,710.13l1.75-.15a3.15,3.15,0,0,0,.9,1.92,2.48,2.48,0,0,0,1.71.65,2.67,2.67,0,0,0,2-.91,3.42,3.42,0,0,0,.84-2.41A3.11,3.11,0,0,0,300,707a2.82,2.82,0,0,0-2.1-.83,2.92,2.92,0,0,0-2.48,1.32l-1.57-.21,1.32-7h6.76v1.6h-5.42l-.74,3.65a4.42,4.42,0,0,1,2.57-.85,4.05,4.05,0,0,1,3,1.23,4.3,4.3,0,0,1,1.23,3.17,5,5,0,0,1-1.08,3.19,4.3,4.3,0,0,1-3.57,1.65,4.4,4.4,0,0,1-3-1A4,4,0,0,1,293.51,710.13Z"/><path d="M304.32,710.54l1.6-.14a2.84,2.84,0,0,0,.78,1.64,2.12,2.12,0,0,0,1.47.51,2.56,2.56,0,0,0,1.35-.35,2.79,2.79,0,0,0,1-1,5.21,5.21,0,0,0,.62-1.59,8.14,8.14,0,0,0,.25-2c0-.07,0-.18,0-.33a3.83,3.83,0,0,1-1.36,1.29,3.65,3.65,0,0,1-1.88.5,3.82,3.82,0,0,1-2.86-1.22,5.12,5.12,0,0,1,.06-6.56,4.07,4.07,0,0,1,3-1.26,4.39,4.39,0,0,1,2.42.71,4.45,4.45,0,0,1,1.67,2,10,10,0,0,1,.57,3.82,12.58,12.58,0,0,1-.56,4.15,4.82,4.82,0,0,1-1.69,2.35,4.31,4.31,0,0,1-2.61.81,3.59,3.59,0,0,1-3.82-3.38Zm6.83-6a3.26,3.26,0,0,0-.77-2.28,2.37,2.37,0,0,0-1.84-.85,2.55,2.55,0,0,0-1.93.91,3.38,3.38,0,0,0-.83,2.36,2.9,2.9,0,0,0,.78,2.1,2.58,2.58,0,0,0,1.94.82,2.43,2.43,0,0,0,1.9-.82A3.18,3.18,0,0,0,311.15,704.55Z"/><path d="M323.55,717.68a16.41,16.41,0,0,1-2.33-4.08,12.59,12.59,0,0,1-1-4.84,12.43,12.43,0,0,1,.72-4.22,17.48,17.48,0,0,1,2.57-4.67h1.2a30.12,30.12,0,0,0-1.48,2.75,14.19,14.19,0,0,0-.89,2.67,15.23,15.23,0,0,0-.4,3.48,16.68,16.68,0,0,0,2.77,8.91Z"/><path d="M332.51,713.69h-1.67V703.05a8.18,8.18,0,0,1-1.58,1.15,11.35,11.35,0,0,1-1.76.87v-1.62a10.14,10.14,0,0,0,2.45-1.59,6.27,6.27,0,0,0,1.48-1.82h1.08Z"/><path d="M336,713.92l3.94-14h1.34l-3.93,14Z"/><path d="M348.34,713.69h-1.67V703.05a7.88,7.88,0,0,1-1.58,1.15,11.29,11.29,0,0,1-1.75.87v-1.62a10.08,10.08,0,0,0,2.44-1.59,6.32,6.32,0,0,0,1.49-1.82h1.07Z"/><path d="M361.28,703.42l-1.66.13a3.14,3.14,0,0,0-.63-1.42,2.22,2.22,0,0,0-1.67-.72,2.28,2.28,0,0,0-1.4.45,3.8,3.8,0,0,0-1.25,1.68,8.75,8.75,0,0,0-.47,3.14,3.76,3.76,0,0,1,1.48-1.36,3.92,3.92,0,0,1,1.82-.45,3.78,3.78,0,0,1,2.84,1.23,4.38,4.38,0,0,1,1.18,3.17,5.18,5.18,0,0,1-.56,2.38,3.93,3.93,0,0,1-1.51,1.68,4.13,4.13,0,0,1-2.19.59,4.26,4.26,0,0,1-3.4-1.54q-1.32-1.53-1.32-5,0-3.95,1.46-5.73a4.16,4.16,0,0,1,3.42-1.56,3.65,3.65,0,0,1,3.86,3.38Zm-6.82,5.86a3.76,3.76,0,0,0,.37,1.65,2.64,2.64,0,0,0,1,1.2,2.53,2.53,0,0,0,1.38.42,2.36,2.36,0,0,0,1.82-.86,3.32,3.32,0,0,0,.76-2.31,3.14,3.14,0,0,0-.75-2.22,2.47,2.47,0,0,0-1.89-.82,2.57,2.57,0,0,0-1.92.82A2.9,2.9,0,0,0,354.46,709.28Z"/><path d="M363.72,704.91l-.46-2.59V700.1h1.9v2.22l-.42,2.59Zm3.07,0-.45-2.59V700.1h1.9v2.22l-.45,2.59Z"/><path d="M371.42,717.68h-1.2a16.68,16.68,0,0,0,2.77-8.91,15.47,15.47,0,0,0-.39-3.45,14.94,14.94,0,0,0-.89-2.67,27.94,27.94,0,0,0-1.49-2.78h1.2a17.81,17.81,0,0,1,2.58,4.67,12.78,12.78,0,0,1-.25,9.06A17.06,17.06,0,0,1,371.42,717.68Z"/><path d="M971.27,437.57v1.67H960.64a8.29,8.29,0,0,1,1.15,1.58,11.15,11.15,0,0,1,.86,1.75H961a10.34,10.34,0,0,0-1.59-2.45,6.44,6.44,0,0,0-1.82-1.48v-1.07Z"/><path d="M969.67,424.52h1.6v9a2.81,2.81,0,0,1-1.15-.19,5.9,5.9,0,0,1-1.81-1.1,16.64,16.64,0,0,1-2.06-2.18,18.35,18.35,0,0,0-2.88-3,3.51,3.51,0,0,0-2-.77,2.24,2.24,0,0,0-1.67.7,2.9,2.9,0,0,0,0,3.78,2.71,2.71,0,0,0,2,.73l-.17,1.72a4.23,4.23,0,0,1-2.93-1.33,4.5,4.5,0,0,1-1-3.08,4.32,4.32,0,0,1,1.08-3.1,3.57,3.57,0,0,1,2.69-1.14,4.06,4.06,0,0,1,1.6.33,6.49,6.49,0,0,1,1.66,1.11,28,28,0,0,1,2.4,2.57c.84,1,1.41,1.65,1.71,1.93a5.58,5.58,0,0,0,.9.71Z"/><path d="M959.46,422.62h-1.6v-8.8h1.3a18.22,18.22,0,0,0,3.67,2.58,22.85,22.85,0,0,0,4.71,2,18.24,18.24,0,0,0,3.73.64v1.71a16.83,16.83,0,0,1-3.87-.63,20.27,20.27,0,0,1-4.38-1.73,19.16,19.16,0,0,1-3.56-2.39Z"/><path d="M975.27,403.25a16.41,16.41,0,0,1-4.08,2.33,12.73,12.73,0,0,1-9.07.24,17.64,17.64,0,0,1-4.67-2.57v-1.2a31.3,31.3,0,0,0,2.76,1.48,14.19,14.19,0,0,0,2.67.89,15.17,15.17,0,0,0,3.48.4,16.73,16.73,0,0,0,8.91-2.77Z"/><path d="M967.71,400.58l-.14-1.76a3.15,3.15,0,0,0,1.92-.9,2.44,2.44,0,0,0,.64-1.71,2.69,2.69,0,0,0-.9-2,3.41,3.41,0,0,0-2.41-.83,3.08,3.08,0,0,0-2.26.8,2.78,2.78,0,0,0-.82,2.1,2.91,2.91,0,0,0,.36,1.45,2.76,2.76,0,0,0,.95,1l-.2,1.57-7-1.32v-6.75h1.59v5.42l3.66.73a4.43,4.43,0,0,1-.86-2.57,4,4,0,0,1,1.24-3,4.29,4.29,0,0,1,3.17-1.22,4.94,4.94,0,0,1,3.19,1.07,4.3,4.3,0,0,1,1.65,3.57,4.41,4.41,0,0,1-1,3A4.09,4.09,0,0,1,967.71,400.58Z"/><path d="M962.5,386.4l-2.59.46h-2.23V385h2.23l2.59.44Zm0,3.07-2.59.46h-2.23V388h2.23l2.59.42Z"/><path d="M975.27,381.72v1.2a16.74,16.74,0,0,0-8.91-2.78,15.64,15.64,0,0,0-3.46.4,15.46,15.46,0,0,0-2.67.88,31.27,31.27,0,0,0-2.78,1.5v-1.2a18,18,0,0,1,4.67-2.58,12.78,12.78,0,0,1,4.23-.71,12.62,12.62,0,0,1,4.84,1A17.06,17.06,0,0,1,975.27,381.72Z"/><path d="M906,216.88l-.23-1.67a3.68,3.68,0,0,0,2-1,2.39,2.39,0,0,0,.62-1.68,2.72,2.72,0,0,0-.81-2,2.77,2.77,0,0,0-2-.81,2.55,2.55,0,0,0-2.64,2.66,4.91,4.91,0,0,0,.18,1.18l-1.46-.19c0-.11,0-.2,0-.27a3.39,3.39,0,0,0-.55-1.91,1.91,1.91,0,0,0-1.72-.86,2,2,0,0,0-1.52.62,2.46,2.46,0,0,0,0,3.23,3.07,3.07,0,0,0,1.84.83l-.3,1.67a4.29,4.29,0,0,1-2.6-1.39,4,4,0,0,1-.92-2.7,4.38,4.38,0,0,1,.48-2,3.38,3.38,0,0,1,1.3-1.44,3.33,3.33,0,0,1,1.75-.49,2.81,2.81,0,0,1,1.6.47,1.24,1.24,0,1,0,2.31-.47,3.46,3.46,0,0,1,2.19-.67,4,4,0,0,1,3,1.3,4.58,4.58,0,0,1,1.24,3.28,4.28,4.28,0,0,1-1.07,3A4.1,4.1,0,0,1,906,216.88Z"/><path d="M902.17,203.76a3.11,3.11,0,0,1-1.08,1.54,2.86,2.86,0,0,1-1.69.5,3.28,3.28,0,0,1-2.49-1.06,4,4,0,0,1-1-2.84,4,4,0,0,1,1-2.87,3.36,3.36,0,0,1,2.52-1.08,2.74,2.74,0,0,1,1.64.49,3.16,3.16,0,0,1,1.08,1.51,3.72,3.72,0,0,1,1.32-1.9,3.6,3.6,0,0,1,2.17-.66,3.88,3.88,0,0,1,2.93,1.24,5,5,0,0,1,0,6.49,4,4,0,0,1-3,1.23,3.66,3.66,0,0,1-2.22-.67A3.43,3.43,0,0,1,902.17,203.76Zm-2.82.34a2.09,2.09,0,0,0,1.57-.63,2.4,2.4,0,0,0,0-3.19,2,2,0,0,0-1.49-.62,2.08,2.08,0,0,0-1.54.64,2.32,2.32,0,0,0,0,3.16A2,2,0,0,0,899.35,204.1Zm6.27.53a2.93,2.93,0,0,0,1.38-.34,2.39,2.39,0,0,0,1-1,3,3,0,0,0,.36-1.44,2.65,2.65,0,0,0-.77-2,2.61,2.61,0,0,0-2-.78,2.68,2.68,0,0,0-2,.8,2.74,2.74,0,0,0-.79,2,2.65,2.65,0,0,0,.78,2A2.61,2.61,0,0,0,905.62,204.63Z"/><path d="M909.54,194.83h-1.9v-1.9h1.9Z"/><path d="M909.54,184.21v1.67H898.91a8.63,8.63,0,0,1,1.15,1.58,11.21,11.21,0,0,1,.86,1.76h-1.61a10.14,10.14,0,0,0-1.59-2.45,6.27,6.27,0,0,0-1.82-1.48v-1.08Z"/><path d="M902.84,179.94a12.43,12.43,0,0,1-3.88-.5A4.8,4.8,0,0,1,896.7,178a3.76,3.76,0,0,1-.8-2.47,3.93,3.93,0,0,1,.44-1.91,3.7,3.7,0,0,1,1.27-1.37,6.68,6.68,0,0,1,2-.84,13.54,13.54,0,0,1,3.21-.31,12.68,12.68,0,0,1,3.86.49A4.83,4.83,0,0,1,909,173a4.12,4.12,0,0,1-.6,5.56C907.24,179.49,905.39,179.94,902.84,179.94Zm0-1.72c2.23,0,3.72-.26,4.46-.78a2.25,2.25,0,0,0,0-3.87c-.74-.52-2.22-.78-4.45-.78s-3.72.26-4.46.78a2.33,2.33,0,0,0-1.1,2,2.14,2.14,0,0,0,1,1.84C899.08,177.93,900.61,178.22,902.84,178.22Z"/><path d="M913.54,160.45a16.75,16.75,0,0,1-4.08,2.34,12.87,12.87,0,0,1-9.07.24,18,18,0,0,1-4.67-2.58v-1.2c1.29.75,2.21,1.25,2.76,1.49a15.26,15.26,0,0,0,6.15,1.29,16.74,16.74,0,0,0,8.91-2.78Z"/><path d="M909.54,151.49v1.67H898.91a8.63,8.63,0,0,1,1.15,1.58,11.65,11.65,0,0,1,.86,1.76h-1.61a10.34,10.34,0,0,0-1.59-2.45,6.27,6.27,0,0,0-1.82-1.48v-1.08Z"/><path d="M909.54,146.28h-1.9v-1.9h1.9Z"/><path d="M906,142l-.14-1.76a3.15,3.15,0,0,0,1.92-.9,2.44,2.44,0,0,0,.64-1.71,2.69,2.69,0,0,0-.9-2,3.41,3.41,0,0,0-2.41-.83,3.08,3.08,0,0,0-2.26.8,2.78,2.78,0,0,0-.82,2.1,2.94,2.94,0,0,0,.36,1.45,2.83,2.83,0,0,0,1,1l-.2,1.57-7-1.32v-6.76h1.59V139l3.66.73a4.43,4.43,0,0,1-.86-2.57,4,4,0,0,1,1.24-3,4.3,4.3,0,0,1,3.17-1.23,5,5,0,0,1,3.19,1.08,4.3,4.3,0,0,1,1.65,3.57,4.44,4.44,0,0,1-1,3A4.09,4.09,0,0,1,906,142Z"/><path d="M900.77,127.77l-2.59.45H896v-1.9h2.23l2.59.45Zm0,3.07-2.59.46H896v-1.9h2.23l2.59.42Z"/><path d="M913.54,123.09v1.19a16.82,16.82,0,0,0-8.91-2.77,15.64,15.64,0,0,0-3.46.4,15.46,15.46,0,0,0-2.67.88c-.55.24-1.48.74-2.78,1.49v-1.19a18,18,0,0,1,4.67-2.58,12.78,12.78,0,0,1,4.23-.71,12.62,12.62,0,0,1,4.84,1A16.73,16.73,0,0,1,913.54,123.09Z"/><path d="M461.51,85.18l13.58-.41.19,6a8,8,0,0,1-.29,2.77,3,3,0,0,1-1.24,1.55,3.91,3.91,0,0,1-2,.62,3.39,3.39,0,0,1-2.47-.86A4.72,4.72,0,0,1,467.9,92a4.31,4.31,0,0,1-.64,1.1,9.36,9.36,0,0,1-1.76,1.55l-3.63,2.48-.07-2.27L464.58,93q1.2-.83,1.83-1.35a4.5,4.5,0,0,0,.88-.94,2.91,2.91,0,0,0,.34-.83,6.88,6.88,0,0,0,0-1l-.06-2.08-6,.18Zm7.64,1.57.12,3.87a6.08,6.08,0,0,0,.31,1.92,2.13,2.13,0,0,0,.85,1,2.22,2.22,0,0,0,1.23.32,2,2,0,0,0,1.56-.75,3.25,3.25,0,0,0,.56-2.22l-.13-4.3Z"/><path d="M465.49,98.08l.27,1.66a3.67,3.67,0,0,0-2,1,2.38,2.38,0,0,0-.58,1.7,2.74,2.74,0,0,0,.88,2,2.78,2.78,0,0,0,2,.75,2.63,2.63,0,0,0,1.88-.81,2.58,2.58,0,0,0,.68-1.93,4.61,4.61,0,0,0-.22-1.17l1.47.14c0,.11,0,.2,0,.27a3.42,3.42,0,0,0,.62,1.9,1.91,1.91,0,0,0,1.74.8,2,2,0,0,0,1.5-.67,2.19,2.19,0,0,0,.55-1.62,2.27,2.27,0,0,0-.66-1.6,3.08,3.08,0,0,0-1.86-.78l.25-1.68a4.33,4.33,0,0,1,2.64,1.31,4.06,4.06,0,0,1,1,2.67,4.58,4.58,0,0,1-.41,2.06,3.38,3.38,0,0,1-1.26,1.47,3.34,3.34,0,0,1-1.74.55,2.85,2.85,0,0,1-1.62-.42,3.22,3.22,0,0,1-1.19-1.37,3.1,3.1,0,0,1-1.1,1.91,3.48,3.48,0,0,1-2.17.73,4,4,0,0,1-3.05-1.2,4.57,4.57,0,0,1-1.34-3.24,4.29,4.29,0,0,1,1-3A4.11,4.11,0,0,1,465.49,98.08Z"/><path d="M468.92,108.53a12.38,12.38,0,0,1,3.89.38,4.78,4.78,0,0,1,2.31,1.41,3.74,3.74,0,0,1,.87,2.43,3.88,3.88,0,0,1-.38,1.93,3.51,3.51,0,0,1-1.23,1.4,6.66,6.66,0,0,1-2,.91,13.35,13.35,0,0,1-3.2.4,12.7,12.7,0,0,1-3.88-.37,4.85,4.85,0,0,1-2.31-1.4,3.8,3.8,0,0,1-.88-2.45,3.73,3.73,0,0,1,1.32-3.13Q465.09,108.65,468.92,108.53Zm.05,1.72c-2.23.06-3.7.37-4.43.91a2.24,2.24,0,0,0,.13,3.87c.75.5,2.24.71,4.47.65s3.71-.38,4.43-.92a2.32,2.32,0,0,0,1-2,2.12,2.12,0,0,0-1-1.8C472.74,110.42,471.2,110.18,469,110.25Z"/><path d="M462.7,124.63l3.26-.09-.18-5.9,1.53,0,9,5.93,0,1.36-8.8.27,0,1.83-1.53,0L466,126.2l-3.26.1Zm4.78-.14,6.13-.19-6.25-4.06Z"/><path d="M462.89,130.78l1.9-.06.06,1.9-1.9.06Z"/><path d="M470.46,137.46a3.15,3.15,0,0,1,1-1.57,2.84,2.84,0,0,1,1.67-.56,3.32,3.32,0,0,1,2.53,1,4.51,4.51,0,0,1,.15,5.7,3.34,3.34,0,0,1-2.49,1.16,2.82,2.82,0,0,1-1.66-.44,3.18,3.18,0,0,1-1.12-1.47,3.71,3.71,0,0,1-1.26,1.94,3.67,3.67,0,0,1-2.15.72,3.9,3.9,0,0,1-3-1.15,5,5,0,0,1-.19-6.48A3.9,3.9,0,0,1,467,135a3.58,3.58,0,0,1,2.24.6A3.36,3.36,0,0,1,470.46,137.46Zm-3.47-.77a2.94,2.94,0,0,0-1.37.38,2.34,2.34,0,0,0-1,1,3,3,0,0,0-.33,1.44,2.7,2.7,0,0,0,.83,1.95,2.59,2.59,0,0,0,2,.72,2.66,2.66,0,0,0,2-.86,2.77,2.77,0,0,0,.73-2,2.7,2.7,0,0,0-.84-1.93A2.65,2.65,0,0,0,467,136.69Zm6.29.35a2.13,2.13,0,0,0-1.56.67,2.21,2.21,0,0,0-.56,1.63,2.16,2.16,0,0,0,.66,1.56,2,2,0,0,0,1.5.57,2.1,2.1,0,0,0,1.52-.68,2.15,2.15,0,0,0,.58-1.6,2.2,2.2,0,0,0-.66-1.57A2,2,0,0,0,473.28,137Z"/><path d="M470,145.47a12.39,12.39,0,0,1,3.89.37,4.94,4.94,0,0,1,2.32,1.41,3.79,3.79,0,0,1,.87,2.44,4,4,0,0,1-.39,1.93,3.63,3.63,0,0,1-1.22,1.4,7.11,7.11,0,0,1-2,.9,13.73,13.73,0,0,1-3.2.41,12.59,12.59,0,0,1-3.87-.38,4.8,4.8,0,0,1-2.32-1.4,3.8,3.8,0,0,1-.88-2.44,3.75,3.75,0,0,1,1.32-3.13C465.66,146.05,467.49,145.54,470,145.47Zm0,1.71c-2.23.07-3.7.37-4.42.92a2.23,2.23,0,0,0,.12,3.86c.75.5,2.24.72,4.47.65s3.71-.37,4.43-.92a2.32,2.32,0,0,0,1.05-2,2.17,2.17,0,0,0-1-1.81Q473.44,147.07,470.09,147.18Z"/><path d="M459.93,165.26a16.83,16.83,0,0,1,4-2.45,12.86,12.86,0,0,1,9.06-.52,17.69,17.69,0,0,1,4.74,2.44l0,1.19c-1.31-.71-2.24-1.17-2.8-1.4a15.09,15.09,0,0,0-6.19-1.1,16.71,16.71,0,0,0-8.82,3Z"/><path d="M464.2,174.1l-.05-1.67,10.63-.32a8.44,8.44,0,0,1-1.2-1.55,11.73,11.73,0,0,1-.91-1.72l1.61-.05a9.79,9.79,0,0,0,1.67,2.39,6.11,6.11,0,0,0,1.86,1.43l0,1.08Z"/><path d="M466.2,187.09l-1.61,0-.27-9a2.84,2.84,0,0,1,1.16.16,6.12,6.12,0,0,1,1.84,1,17.44,17.44,0,0,1,2.13,2.12,18.16,18.16,0,0,0,3,2.91,3.45,3.45,0,0,0,2,.71,2.24,2.24,0,0,0,1.65-.75,2.91,2.91,0,0,0-.16-3.78,2.72,2.72,0,0,0-2-.67l.12-1.72a4.2,4.2,0,0,1,3,1.24,4.47,4.47,0,0,1,1.1,3.05,4.31,4.31,0,0,1-1,3.13,3.55,3.55,0,0,1-2.65,1.22,4.12,4.12,0,0,1-1.61-.28,6.25,6.25,0,0,1-1.7-1.06,28.05,28.05,0,0,1-2.46-2.5c-.87-1-1.46-1.6-1.77-1.88a5.4,5.4,0,0,0-.93-.67Z"/><path d="M473.44,189.2l2.57-.54,2.23-.06.05,1.9-2.22.06-2.6-.34Zm.09,3.07,2.58-.53,2.22-.07.06,1.9-2.23.07-2.6-.37Z"/><path d="M460.9,197.34l0-1.2a16.68,16.68,0,0,0,9,2.5,15.39,15.39,0,0,0,6.09-1.46,29.7,29.7,0,0,0,2.73-1.58l0,1.2a17.93,17.93,0,0,1-4.59,2.72,12.87,12.87,0,0,1-4.2.84,12.49,12.49,0,0,1-4.87-.82A16.82,16.82,0,0,1,460.9,197.34Z"/><path d="M458.65,394v1.6h-9a3,3,0,0,1,.19-1.16,6.19,6.19,0,0,1,1.1-1.8,16.82,16.82,0,0,1,2.19-2.06,18.61,18.61,0,0,0,3-2.88,3.46,3.46,0,0,0,.78-2,2.23,2.23,0,0,0-.71-1.67,2.53,2.53,0,0,0-1.85-.68,2.62,2.62,0,0,0-1.93.72,2.75,2.75,0,0,0-.73,2l-1.72-.17a4.23,4.23,0,0,1,1.33-2.93,4.54,4.54,0,0,1,3.09-1,4.31,4.31,0,0,1,3.09,1.08,3.56,3.56,0,0,1,1.14,2.69,4.09,4.09,0,0,1-.33,1.6,6,6,0,0,1-1.11,1.66,25.75,25.75,0,0,1-2.57,2.39c-1,.84-1.64,1.41-1.93,1.71a5.55,5.55,0,0,0-.7.91Z"/><path d="M460.44,392.06l1.75-.15a3.11,3.11,0,0,0,.91,1.93,2.44,2.44,0,0,0,1.71.64,2.66,2.66,0,0,0,2-.91,3.44,3.44,0,0,0,.83-2.41,3.11,3.11,0,0,0-.8-2.25,2.79,2.79,0,0,0-2.1-.83,2.92,2.92,0,0,0-1.45.37,2.76,2.76,0,0,0-1,.95l-1.57-.2,1.31-7h6.76v1.59h-5.42l-.73,3.65a4.46,4.46,0,0,1,2.57-.85,4.08,4.08,0,0,1,3,1.23,4.34,4.34,0,0,1,1.22,3.17,5,5,0,0,1-1.07,3.19,4.3,4.3,0,0,1-3.57,1.65,4.4,4.4,0,0,1-3-1A4.07,4.07,0,0,1,460.44,392.06Z"/><path d="M471.94,395.62v-1.9h1.9v1.9Z"/><path d="M481.63,395.62v-3.25h-5.9v-1.53l6.2-8.81h1.36v8.81h1.84v1.53h-1.84v3.25Zm0-4.78v-6.13l-4.26,6.13Z"/><path d="M486.84,388.92a12.47,12.47,0,0,1,.49-3.88,4.77,4.77,0,0,1,1.48-2.27,3.76,3.76,0,0,1,2.46-.79,3.94,3.94,0,0,1,1.92.44,3.59,3.59,0,0,1,1.36,1.27,6.57,6.57,0,0,1,.84,2,13,13,0,0,1,.31,3.21,12.72,12.72,0,0,1-.49,3.86,4.83,4.83,0,0,1-1.47,2.27,4.14,4.14,0,0,1-5.56-.61C487.28,393.31,486.84,391.47,486.84,388.92Zm1.71,0c0,2.23.26,3.72.78,4.45a2.24,2.24,0,0,0,3.87,0c.52-.74.78-2.23.78-4.45s-.26-3.72-.78-4.46a2.3,2.3,0,0,0-1.95-1.1,2.14,2.14,0,0,0-1.84,1C488.84,385.16,488.55,386.69,488.55,388.92Z"/><path d="M511.6,399.62a16.75,16.75,0,0,1-2.34-4.08,12.87,12.87,0,0,1-.24-9.07,18,18,0,0,1,2.58-4.67h1.19a30.12,30.12,0,0,0-1.48,2.75,15.49,15.49,0,0,0-.89,2.67,15.32,15.32,0,0,0-.4,3.49,16.73,16.73,0,0,0,2.77,8.91Z"/><path d="M520.55,395.62h-1.67V385a8.75,8.75,0,0,1-1.58,1.15,11.15,11.15,0,0,1-1.75.86v-1.61a9.82,9.82,0,0,0,2.44-1.6,6.29,6.29,0,0,0,1.49-1.81h1.07Z"/><path d="M525.37,386.84l-.46-2.58V382h1.9v2.23l-.42,2.58Zm3.07,0-.45-2.58V382h1.9v2.23l-.45,2.58Z"/><path d="M533.12,399.62h-1.19a16.73,16.73,0,0,0,2.77-8.91,15,15,0,0,0-.4-3.46,14.16,14.16,0,0,0-.88-2.67c-.24-.56-.74-1.48-1.49-2.78h1.19a17.68,17.68,0,0,1,2.58,4.67,12.52,12.52,0,0,1,.71,4.23,12.8,12.8,0,0,1-.95,4.84A17.08,17.08,0,0,1,533.12,399.62Z"/><path d="M908.14,718.91h1.61v9a2.86,2.86,0,0,1-1.16-.19,6.24,6.24,0,0,1-1.81-1.1,17.34,17.34,0,0,1-2.06-2.18,18.35,18.35,0,0,0-2.88-3,3.41,3.41,0,0,0-2-.78,2.27,2.27,0,0,0-1.68.71,2.89,2.89,0,0,0,.05,3.78,2.7,2.7,0,0,0,2,.73l-.18,1.72a4.21,4.21,0,0,1-2.92-1.33,4.5,4.5,0,0,1-1-3.08,4.28,4.28,0,0,1,1.09-3.1,3.55,3.55,0,0,1,2.68-1.14,4.14,4.14,0,0,1,1.61.33,6.4,6.4,0,0,1,1.66,1.11,26.94,26.94,0,0,1,2.39,2.57c.84,1,1.41,1.65,1.71,1.93a5.58,5.58,0,0,0,.9.71Z"/><path d="M899.48,708.46l.13,1.66a3.14,3.14,0,0,0-1.42.63,2.2,2.2,0,0,0-.72,1.67,2.28,2.28,0,0,0,.45,1.4,3.71,3.71,0,0,0,1.68,1.24,8.72,8.72,0,0,0,3.14.48,3.92,3.92,0,0,1-1.81-3.3,3.8,3.8,0,0,1,1.23-2.85,4.42,4.42,0,0,1,3.17-1.17,5.3,5.3,0,0,1,2.38.55,4.1,4.1,0,0,1,1.69,1.52,4.21,4.21,0,0,1,.58,2.19,4.26,4.26,0,0,1-1.54,3.4q-1.53,1.32-5.05,1.32-3.95,0-5.73-1.46a4.19,4.19,0,0,1-1.56-3.42,3.65,3.65,0,0,1,3.38-3.86Zm5.86,6.82a3.9,3.9,0,0,0,1.65-.37,2.7,2.7,0,0,0,1.2-1,2.54,2.54,0,0,0,.42-1.39,2.34,2.34,0,0,0-.86-1.81,3.32,3.32,0,0,0-2.31-.76,3.14,3.14,0,0,0-2.22.75,2.47,2.47,0,0,0-.81,1.89,2.59,2.59,0,0,0,.81,1.92A2.94,2.94,0,0,0,905.34,715.28Z"/><path d="M909.75,705.63h-1.9v-1.9h1.9Z"/><path d="M906.6,701l-.14-1.61a2.72,2.72,0,0,0,1.64-.78,2.12,2.12,0,0,0,.51-1.47,2.52,2.52,0,0,0-.36-1.35,2.84,2.84,0,0,0-.94-1,5.48,5.48,0,0,0-1.59-.62,8.14,8.14,0,0,0-2-.25h-.33a3.78,3.78,0,0,1,1.29,1.37,3.69,3.69,0,0,1,.5,1.87,3.82,3.82,0,0,1-1.22,2.86,4.5,4.5,0,0,1-3.23,1.17,4.6,4.6,0,0,1-3.33-1.22A4.07,4.07,0,0,1,896.1,697a4.39,4.39,0,0,1,.71-2.42,4.52,4.52,0,0,1,2-1.67,10,10,0,0,1,3.82-.57,12.29,12.29,0,0,1,4.15.57,4.74,4.74,0,0,1,2.35,1.68,4.34,4.34,0,0,1,.81,2.62A3.61,3.61,0,0,1,906.6,701Zm-6-6.84a3.26,3.26,0,0,0-2.28.77,2.37,2.37,0,0,0-.85,1.84,2.57,2.57,0,0,0,.91,1.94,3.38,3.38,0,0,0,2.36.82,2.9,2.9,0,0,0,2.1-.78,2.56,2.56,0,0,0,.82-1.93,2.45,2.45,0,0,0-.82-1.91A3.18,3.18,0,0,0,900.61,694.2Z"/><path d="M906.6,690.48l-.14-1.61a2.78,2.78,0,0,0,1.64-.77,2.16,2.16,0,0,0,.51-1.48,2.52,2.52,0,0,0-.36-1.35,2.84,2.84,0,0,0-.94-.95,5.79,5.79,0,0,0-1.59-.62,8.14,8.14,0,0,0-2-.25h-.33a3.78,3.78,0,0,1,1.29,1.37,3.73,3.73,0,0,1,.5,1.88,3.81,3.81,0,0,1-1.22,2.85,4.5,4.5,0,0,1-3.23,1.17,4.6,4.6,0,0,1-3.33-1.22,4.07,4.07,0,0,1-1.26-3,4.4,4.4,0,0,1,.71-2.43,4.52,4.52,0,0,1,2-1.67,10,10,0,0,1,3.82-.57,12.29,12.29,0,0,1,4.15.57,4.74,4.74,0,0,1,2.35,1.68,4.36,4.36,0,0,1,.81,2.62,3.61,3.61,0,0,1-3.38,3.82Zm-6-6.83a3.26,3.26,0,0,0-2.28.76,2.37,2.37,0,0,0-.85,1.84,2.57,2.57,0,0,0,.91,1.94,3.38,3.38,0,0,0,2.36.82,2.9,2.9,0,0,0,2.1-.78,2.56,2.56,0,0,0,.82-1.93,2.45,2.45,0,0,0-.82-1.91A3.17,3.17,0,0,0,900.61,683.65Z"/><path d="M913.74,671.24a16.75,16.75,0,0,1-4.08,2.34,12.85,12.85,0,0,1-9.06.24,17.81,17.81,0,0,1-4.67-2.58V670a31,31,0,0,0,2.75,1.49,14.94,14.94,0,0,0,2.67.89,15.81,15.81,0,0,0,3.48.4,16.69,16.69,0,0,0,8.91-2.78Z"/><path d="M909.75,662.29V664H899.11a7.88,7.88,0,0,1,1.15,1.58,11.29,11.29,0,0,1,.87,1.75h-1.62a10.34,10.34,0,0,0-1.59-2.45,6.44,6.44,0,0,0-1.82-1.48v-1.07Z"/><path d="M909.75,646.45v1.67H899.11a8.18,8.18,0,0,1,1.15,1.58,11.35,11.35,0,0,1,.87,1.76h-1.62a10.14,10.14,0,0,0-1.59-2.45,6.27,6.27,0,0,0-1.82-1.48v-1.08Z"/><path d="M910,643,895.93,639v-1.34L910,641.62Z"/><path d="M909.75,630.62v1.67H899.11a7.88,7.88,0,0,1,1.15,1.58,11.29,11.29,0,0,1,.87,1.75h-1.62a10.28,10.28,0,0,0-1.59-2.44,6.32,6.32,0,0,0-1.82-1.49v-1.07Z"/><path d="M899.48,617.69l.13,1.65a3.14,3.14,0,0,0-1.42.63,2.22,2.22,0,0,0-.72,1.67,2.28,2.28,0,0,0,.45,1.4,3.8,3.8,0,0,0,1.68,1.25,8.75,8.75,0,0,0,3.14.47,3.76,3.76,0,0,1-1.36-1.48,3.92,3.92,0,0,1-.45-1.82,3.78,3.78,0,0,1,1.23-2.84,4.38,4.38,0,0,1,3.17-1.18,5.18,5.18,0,0,1,2.38.56,4,4,0,0,1,1.69,1.51,4.21,4.21,0,0,1,.58,2.19,4.26,4.26,0,0,1-1.54,3.4q-1.53,1.32-5.05,1.32-3.95,0-5.73-1.46a4.16,4.16,0,0,1-1.56-3.42,3.85,3.85,0,0,1,.9-2.63A3.8,3.8,0,0,1,899.48,617.69Zm5.86,6.81a3.76,3.76,0,0,0,1.65-.37,2.64,2.64,0,0,0,1.2-1,2.53,2.53,0,0,0,.42-1.38,2.36,2.36,0,0,0-.86-1.82,3.32,3.32,0,0,0-2.31-.76,3.14,3.14,0,0,0-2.22.75,2.47,2.47,0,0,0-.81,1.89,2.56,2.56,0,0,0,.81,1.92A2.9,2.9,0,0,0,905.34,624.5Z"/><path d="M901,612.17l-2.59.45h-2.22v-1.9h2.22l2.59.45Zm0,3.07-2.59.46h-2.22v-1.9h2.22l2.59.42Z"/><path d="M913.74,607.54v1.19a16.68,16.68,0,0,0-8.91-2.77,14.91,14.91,0,0,0-3.45.4,14.16,14.16,0,0,0-2.67.88,30.31,30.31,0,0,0-2.78,1.49v-1.19A17.53,17.53,0,0,1,900.6,605a12.43,12.43,0,0,1,4.22-.71,12.59,12.59,0,0,1,4.84,1A16.41,16.41,0,0,1,913.74,607.54Z"/><g class="cls-10"><path class="cls-11" d="M823.76,657a6.51,6.51,0,0,0-5.34-6c-13.28-2.58-232.21-53.62-232.21-53.62s-14-1-20.18-20.18c-5.48-17-7.5-83.89-8.5-150.48-.15-95.86,6.34-138.67,9.78-150.85,4.2-20.83,27-22.56,27-22.56l62.27-14.41c6.78-4.61,3.89-138.67,3.89-138.67S662.75,55.49,610,55.49c-1.44,0-66.59-3-66.59-3l-44-1.14h-.29l-44,1.14s-65.15,3-66.59,3c-52.76,0-50.45,44.68-50.45,44.68S335.27,234.23,342,238.84l62.27,14.41s22.78,1.73,27,22.56c3.44,12.18,9.93,55,9.79,150.85-1,66.59-3,133.52-8.51,150.48-6.2,19.17-20.18,20.18-20.18,20.18s-218.93,51-232.21,53.62a6.49,6.49,0,0,0-5.33,6s-1.19,31-.27,38.56c1,7.83,7.42,6.91,7.42,6.91l317.11.69h.2l317.3-.69s6.46.92,7.42-6.91c.92-7.54-.26-38.56-.26-38.56"/></g></g><g id="Watermark"><rect class="cls-4" x="438.45" y="635.92" width="123.09" height="46.3"/><rect class="cls-12" x="444.86" y="643.76" width="62.89" height="30.62"/><rect class="cls-12" x="507.75" y="643.76" width="47.39" height="30.62"/><path class="cls-13" d="M466.48,649.86l-2.79,18.92H461l-1.55-11-1.53,11h-2.74l-2.8-18.92h2.51L456.63,664l1.79-14.17h2L462.19,664,464,649.86Z"/><path class="cls-13" d="M467.93,668.78V649.86h2.53v18.92Z"/><path class="cls-13" d="M472.83,649.86h5q2.9,0,2.9,3.24v4.66c0,1.65-.51,2.7-1.51,3.14l1.77,7.88h-2.4l-1.66-7.64h-1.53v7.64h-2.53Zm2.53,9.12H477c.76,0,1.14-.46,1.14-1.37v-4.09c0-.91-.38-1.37-1.14-1.37h-1.66Z"/><path class="cls-13" d="M486.82,652.15v16.63h-2.53V652.15h-2.42v-2.29h7.38v2.29Z"/><path class="cls-13" d="M496.34,668.78v-8.59h-3.11v8.59H490.7V649.86h2.53v8h3.11v-8h2.53v18.92Z"/><path class="cls-13" d="M516.31,649.86h5q2.9,0,2.89,3.24v4.66c0,1.65-.5,2.7-1.5,3.14l1.77,7.88H522l-1.66-7.64h-1.53v7.64h-2.53Zm2.53,9.12h1.66c.76,0,1.13-.46,1.13-1.37v-4.09c0-.91-.37-1.37-1.13-1.37h-1.66Z"/><path class="cls-13" d="M528.67,668.78h-2.53V653.1q0-3.24,3-3.24h1.9q3,0,3,3.24v15.68h-2.53v-6.93h-2.9Zm2.9-9.22v-6.3a1,1,0,0,0-1.11-1.11h-.68a1,1,0,0,0-1.11,1.11v6.3Z"/><path class="cls-13" d="M536.34,668.78V649.86h2.53v18.92Z"/><path class="cls-13" d="M547.24,668.78h-6V649.86h2.53v16.63h3.47Z"/></g></svg>