<svg xmlns="http://www.w3.org/2000/svg" xmlns:xlink="http://www.w3.org/1999/xlink" viewBox="0 0 1000 800"><defs><style>.cls-1,.cls-10,.cls-11,.cls-6,.cls-7,.cls-8{fill:none;}.cls-2{fill:#dadada;}.cls-3{fill:#303030;}.cls-4{clip-path:url(#clip-path);}.cls-12,.cls-13,.cls-5{fill:#f0f0f0;}.cls-11,.cls-5,.cls-6,.cls-7,.cls-8{stroke:#231f20;}.cls-10,.cls-13,.cls-5{stroke-miterlimit:10;}.cls-5{stroke-width:2px;}.cls-7{stroke-dasharray:9.18 2.78;}.cls-8{stroke-dasharray:10.01 3.61;}.cls-9{fill:#231f20;}.cls-10{stroke:#303030;}.cls-11{stroke-dasharray:11.84 3.58;}.cls-13{stroke:#ccc;}.cls-14{fill:#ccc;}</style><clipPath id="clip-path"><rect class="cls-1" x="67.29" width="891.42" height="800"/></clipPath></defs><g id="Flat"><rect class="cls-2" x="464.73" y="441.45" width="68.95" height="38.59"/><path class="cls-3" d="M507.92,449.51h5.69l-6,22.47H502l-2.86-13.31L496.23,472H490.6l-5.8-22.47h5.8l2.9,12.77,3-12.77H502l2.9,13.07Z"/><g class="cls-4"><path class="cls-5" d="M823.76,657a6.51,6.51,0,0,0-5.34-6c-13.28-2.58-232.21-53.62-232.21-53.62s-14-1-20.18-20.18c-5.48-17-7.5-83.89-8.5-150.48-.15-95.86,6.34-138.67,9.78-150.85,4.2-20.83,27-22.56,27-22.56l62.27-14.41c6.78-4.61,3.89-138.67,3.89-138.67S662.75,55.49,610,55.49c-1.44,0-66.59-3-66.59-3l-44-1.14h-.29l-44,1.14s-65.15,3-66.59,3c-52.76,0-50.45,44.68-50.45,44.68S335.27,234.23,342,238.84l62.27,14.41s22.78,1.73,27,22.56c3.44,12.18,9.93,55,9.79,150.85-1,66.59-3,133.52-8.51,150.48-6.2,19.17-20.18,20.18-20.18,20.18s-218.93,51-232.21,53.62a6.49,6.49,0,0,0-5.33,6s-1.19,31-.27,38.56c1,7.83,7.42,6.91,7.42,6.91l317.11.69h.2l317.3-.69s6.46.92,7.42-6.91c.92-7.54-.26-38.56-.26-38.56"/></g><polyline class="cls-6" points="297.85 227.89 499.29 276.15 621.01 246.65"/><line class="cls-6" x1="297.85" y1="275.76" x2="894.89" y2="275.76"/><line class="cls-6" x1="337.74" y1="96.09" x2="337.74" y2="13.69"/><line class="cls-6" x1="660.89" y1="96.09" x2="660.89" y2="13.69"/><line class="cls-6" x1="501.75" y1="51.38" x2="946.28" y2="52.26"/><line class="cls-6" x1="133.73" y1="426.34" x2="440.88" y2="426.34"/><line class="cls-6" x1="79.99" y1="702.71" x2="181.96" y2="702.71"/><line class="cls-6" x1="174.17" y1="694.89" x2="174.17" y2="780.98"/><g class="cls-4"><line class="cls-6" x1="816.92" y1="702.56" x2="958.71" y2="702.56"/></g><line class="cls-6" x1="824.1" y1="694.78" x2="824.31" y2="781.95"/><line class="cls-6" x1="906.73" y1="577.49" x2="287.57" y2="577.49"/><polyline class="cls-6" points="410.03 598.12 499.59 577.97 584.45 597.62"/><line class="cls-7" x1="732.87" y1="400.74" x2="163.17" y2="400.22"/><line class="cls-8" x1="129.88" y1="400.2" x2="102.91" y2="400.2"/><path class="cls-6" d="M98.8,400.2H87.38m72.62,0H138.11m611.57.56H739.21"/><g class="cls-4"><path class="cls-9" d="M430.6,494.89c-3-1-4.86-1.94-7.21-3L423,501a73.79,73.79,0,0,1,7.44-2.39,54.21,54.21,0,0,1,8.05-1.53,52.5,52.5,0,0,1-7.89-2.19"/></g><line class="cls-6" x1="273.9" y1="490.18" x2="426.25" y2="496.56"/><g class="cls-4"><path class="cls-9" d="M428.42,495.72a38.93,38.93,0,0,1-3.6-1.5l-.19,4.56a33.59,33.59,0,0,1,3.72-1.19,26.43,26.43,0,0,1,4-.77,27.38,27.38,0,0,1-3.95-1.1"/><path class="cls-6" d="M295.44,542.17c1.74-7.08-10.12,60.83,15,118.76"/><path class="cls-9" d="M295.83,541.8s-2.1,16.64-1.89,24.16"/><path class="cls-9" d="M295.91,570.18c.82-3,1.6-5,2.49-7.4l-9.11.25a71.9,71.9,0,0,1,2.89,7.25,53.3,53.3,0,0,1,2.09,7.92,52.65,52.65,0,0,1,1.64-8"/><path class="cls-6" d="M295.83,541.8s-2.1,16.64-1.89,24.16"/><path class="cls-9" d="M294.92,568.07a37.89,37.89,0,0,1,1.25-3.7l-4.56.13a33.82,33.82,0,0,1,1.45,3.62,25.62,25.62,0,0,1,1,4,26.33,26.33,0,0,1,.82-4"/><path class="cls-9" d="M310.07,660.34s-6.64-18.6-7.8-23.25"/><path class="cls-9" d="M299.44,633.4c-.15,3.12-.49,5.2-.84,7.76l8.84-2.21a71.79,71.79,0,0,1-4.39-6.45,54.32,54.32,0,0,1-3.74-7.3,53.43,53.43,0,0,1,.13,8.2"/><path class="cls-6" d="M310.07,660.34s-6.64-18.6-7.8-23.25"/><path class="cls-9" d="M300.85,635.24a36.53,36.53,0,0,1-.42,3.89l4.43-1.11a34.57,34.57,0,0,1-2.2-3.23,28.4,28.4,0,0,1-1.87-3.64,26.07,26.07,0,0,1,.06,4.09"/><path class="cls-9" d="M310.42,239.25a77,77,0,0,1-3.5,7l9.07,1a69.59,69.59,0,0,1-1.87-7.58,53.46,53.46,0,0,1-1-8.13,53.61,53.61,0,0,1-2.73,7.72"/><path class="cls-9" d="M310.85,268.81c1.23-2.87,2.27-4.7,3.49-7l-9.06-1a72.76,72.76,0,0,1,1.87,7.58,53.32,53.32,0,0,1,1,8.14,54.35,54.35,0,0,1,2.74-7.73"/></g><line class="cls-6" x1="309.48" y1="264.37" x2="311.78" y2="243.7"/><g class="cls-4"><path class="cls-9" d="M311.1,241.48a36.51,36.51,0,0,1-1.75,3.49l4.53.5a36.38,36.38,0,0,1-.93-3.79,26.59,26.59,0,0,1-.48-4.07,26.58,26.58,0,0,1-1.37,3.87"/><path class="cls-9" d="M310.16,266.59c.62-1.43,1.14-2.35,1.75-3.49l-4.53-.51a36.75,36.75,0,0,1,.93,3.8,26.87,26.87,0,0,1,.49,4.06,27.52,27.52,0,0,1,1.36-3.86"/></g><polyline class="cls-6" points="176.83 426.83 291.28 441.26 274.39 490.01"/><g class="cls-4"><line class="cls-10" x1="166.18" y1="711.61" x2="85.01" y2="799.69"/></g><polygon class="cls-3" points="161.55 711.02 174.51 702.82 167.39 716.4 161.55 711.02"/><line class="cls-10" x1="186.2" y1="660.34" x2="242.63" y2="696.28"/><polygon class="cls-3" points="186.09 665 176.59 652.97 190.84 658.64 186.09 665"/><line class="cls-10" x1="140.06" y1="691.7" x2="140.06" y2="437.26"/><polygon class="cls-3" points="143.83 689.37 139.9 702.12 135.96 689.37 143.83 689.37"/><polygon class="cls-3" points="143.83 439.59 139.9 426.83 135.96 439.59 143.83 439.59"/><line class="cls-10" x1="349.97" y1="21.51" x2="648.66" y2="21.51"/><polygon class="cls-3" points="352.71 25.29 337.74 21.35 352.71 17.41 352.71 25.29"/><polygon class="cls-3" points="645.92 25.29 660.89 21.35 645.92 17.41 645.92 25.29"/><line class="cls-10" x1="646.73" y1="231.45" x2="538.82" y2="165.05"/><polygon class="cls-3" points="646.42 226.79 656.96 237.93 642.26 233.55 646.42 226.79"/><line class="cls-10" x1="639.32" y1="76.02" x2="532.54" y2="144.24"/><polygon class="cls-3" points="634.99 74.27 649.61 69.64 639.26 80.96 634.99 74.27"/><path class="cls-3" d="M527.67,136.57l-7.61-11.92,5.28-3.38A8.54,8.54,0,0,1,528,120a3.18,3.18,0,0,1,2.06.29,4,4,0,0,1,1.64,1.48,3.56,3.56,0,0,1,.54,2.67,4.82,4.82,0,0,1-1.83,2.72,4.93,4.93,0,0,1,1.33,0,9.81,9.81,0,0,1,2.33.75l4.15,1.92-2,1.27L533,129.66c-.92-.43-1.65-.73-2.19-.92a4.54,4.54,0,0,0-1.31-.29,2.73,2.73,0,0,0-.92.15,4.94,4.94,0,0,0-.92.5l-1.83,1.17,3.38,5.3ZM525,128.9l3.39-2.16a6,6,0,0,0,1.55-1.31,2.13,2.13,0,0,0,.47-1.31,2.3,2.3,0,0,0-.37-1.27,2.11,2.11,0,0,0-1.5-1,3.41,3.41,0,0,0-2.29.7L522.48,125Z"/><path class="cls-3" d="M532.56,118.86l-.9-1.41,7.72-4.93.73,1.14a19.41,19.41,0,0,0-.2,4.66,23.74,23.74,0,0,0,.91,5.24,18.59,18.59,0,0,0,1.54,3.64l-1.51,1a17.64,17.64,0,0,1-1.62-3.76,21.56,21.56,0,0,1-.94-4.81,19.62,19.62,0,0,1,.11-4.46Z"/><path class="cls-3" d="M549.17,122.84l-1.06-1.67,1.66-1.06,1.07,1.67Z"/><path class="cls-3" d="M551.44,117.51l1.33-1a2.83,2.83,0,0,0,1.6,1,2.22,2.22,0,0,0,1.58-.37,2.72,2.72,0,0,0,1-1.07,3,3,0,0,0,.3-1.36,5.87,5.87,0,0,0-.34-1.74A8.8,8.8,0,0,0,556,111l-.19-.29a4,4,0,0,1-.48,1.9,3.85,3.85,0,0,1-1.37,1.49,4,4,0,0,1-3.19.53,4.65,4.65,0,0,1-2.83-2.18,4.75,4.75,0,0,1-.8-3.6,4.22,4.22,0,0,1,2-2.82,4.58,4.58,0,0,1,2.53-.74,4.69,4.69,0,0,1,2.61.85,10.55,10.55,0,0,1,2.64,3,12.61,12.61,0,0,1,1.83,4,5.06,5.06,0,0,1-.16,3,4.58,4.58,0,0,1-1.84,2.17,3.75,3.75,0,0,1-5.25-.82Zm2.64-9.09a3.45,3.45,0,0,0-2-1.58,2.53,2.53,0,0,0-2.09.29,2.66,2.66,0,0,0-1.19,1.89,3.48,3.48,0,0,0,.59,2.53,3,3,0,0,0,1.87,1.41,2.69,2.69,0,0,0,2.15-.37,2.59,2.59,0,0,0,1.22-1.78A3.36,3.36,0,0,0,554.08,108.42Z"/><path class="cls-3" d="M566.94,111.49l-1.82-2.85-5.18,3.3-.85-1.34.5-11.2,1.2-.77,4.93,7.73,1.62-1,.85,1.34-1.61,1,1.83,2.86Zm-2.68-4.19-3.43-5.38-.3,7.76Z"/><path class="cls-3" d="M581.59,107.08a17.74,17.74,0,0,1-4.34-2.27A13.36,13.36,0,0,1,572,97a18.41,18.41,0,0,1-.36-5.54l1-.67c.07,1.54.15,2.63.24,3.25a16,16,0,0,0,.72,2.84,16.61,16.61,0,0,0,1.6,3.28,17.5,17.5,0,0,0,7.43,6.27Z"/><path class="cls-3" d="M579.7,99l1.45-1.11A3.32,3.32,0,0,0,583,99a2.55,2.55,0,0,0,1.86-.4,2.78,2.78,0,0,0,1.28-1.94,3.56,3.56,0,0,0-.62-2.58,3.26,3.26,0,0,0-2-1.53,2.9,2.9,0,0,0-2.3.46,3,3,0,0,0-1.07,1.13,2.91,2.91,0,0,0-.37,1.41l-1.49.7L575.6,89.4l5.93-3.78.89,1.4-4.76,3,1.41,3.61a4.56,4.56,0,0,1,1.77-2.19,4.28,4.28,0,0,1,3.33-.6A4.47,4.47,0,0,1,587,93a5.12,5.12,0,0,1,.84,3.4,4.48,4.48,0,0,1-2.2,3.45,4.6,4.6,0,0,1-3.24.78A4.17,4.17,0,0,1,579.7,99Z"/><path class="cls-3" d="M590.39,96.8,586,82.26l1.18-.75,4.42,14.54Z"/><path class="cls-3" d="M601.11,89.67l-1.47.94-6-9.33a8.9,8.9,0,0,1-.74,1.89,11.85,11.85,0,0,1-1.06,1.74L591,83.5a10.49,10.49,0,0,0,1.25-2.77,6.48,6.48,0,0,0,.28-2.43l1-.6Z"/><path class="cls-3" d="M606.7,73.42l-1.38,1a3.35,3.35,0,0,0-1.35-.9,2.33,2.33,0,0,0-1.87.31,2.39,2.39,0,0,0-1,1.18,4.08,4.08,0,0,0-.15,2.17,9.29,9.29,0,0,0,1.35,3,4.06,4.06,0,0,1,1.88-3.44,4,4,0,0,1,3.18-.51,4.56,4.56,0,0,1,2.81,2.13,5.46,5.46,0,0,1,.85,2.4,4.12,4.12,0,0,1-.39,2.32,4.27,4.27,0,0,1-1.59,1.74,4.42,4.42,0,0,1-3.84.56q-2-.61-4-3.7c-1.48-2.3-2.12-4.25-1.94-5.84a4.36,4.36,0,0,1,2.13-3.29,4,4,0,0,1,2.81-.68A4,4,0,0,1,606.7,73.42Zm-2.69,9a3.87,3.87,0,0,0,1.24,1.24,2.78,2.78,0,0,0,1.58.48,2.63,2.63,0,0,0,1.44-.41,2.45,2.45,0,0,0,1.12-1.77,3.53,3.53,0,0,0-.64-2.46,3.24,3.24,0,0,0-1.9-1.52,2.52,2.52,0,0,0-2.11.35,2.61,2.61,0,0,0-1.23,1.78A3,3,0,0,0,604,82.38Z"/><path class="cls-3" d="M609.68,73.35l-1.86-2-1.24-2,1.66-1.06,1.25,2,1.08,2.5Zm2.69-1.72-1.85-2-1.24-2,1.66-1.07,1.25,2,1.06,2.52Z"/><path class="cls-3" d="M623.64,80.22l-1,.67A17.35,17.35,0,0,0,620,71.52a15.8,15.8,0,0,0-2.29-2.82,15.42,15.42,0,0,0-2.27-1.85c-.52-.35-1.48-.88-2.87-1.6l1-.67a18.43,18.43,0,0,1,4.88,2.66,12.84,12.84,0,0,1,3,3.31,13,13,0,0,1,1.87,4.78A17.83,17.83,0,0,1,623.64,80.22Z"/><line class="cls-10" x1="186.18" y1="773.69" x2="811.29" y2="773.69"/><polygon class="cls-3" points="188.87 777.47 174.17 773.53 188.87 769.59 188.87 777.47"/><polygon class="cls-3" points="809.4 777.47 824.1 773.53 809.4 769.59 809.4 777.47"/><line class="cls-10" x1="889.98" y1="272.87" x2="889.98" y2="59.25"/><polygon class="cls-3" points="893.75 261.8 889.82 275.76 885.88 261.8 893.75 261.8"/><polygon class="cls-3" points="893.75 66.23 889.82 52.26 885.88 66.23 893.75 66.23"/><line class="cls-10" x1="941.08" y1="691.65" x2="941.08" y2="64.07"/><polygon class="cls-3" points="944.86 689.1 940.92 703.06 936.98 689.1 944.86 689.1"/><polygon class="cls-3" points="944.86 66.23 940.92 52.26 936.98 66.23 944.86 66.23"/><path class="cls-3" d="M444.37,210.78l-14.14.73-.32-6.26a8.29,8.29,0,0,1,.23-2.9,3.2,3.2,0,0,1,1.26-1.64,4,4,0,0,1,2.1-.7,3.59,3.59,0,0,1,2.59.84,5,5,0,0,1,1.47,2.94,4.84,4.84,0,0,1,.64-1.16A9.7,9.7,0,0,1,440,201l3.72-2.66.12,2.35-2.84,2c-.82.59-1.45,1.07-1.88,1.45a4,4,0,0,0-.89,1,2.85,2.85,0,0,0-.34.87,6.61,6.61,0,0,0,0,1l.11,2.17,6.28-.32Zm-8-1.46-.2-4a6.18,6.18,0,0,0-.37-2,2.17,2.17,0,0,0-.91-1.06,2.33,2.33,0,0,0-1.29-.31,2.15,2.15,0,0,0-1.61.81,3.43,3.43,0,0,0-.52,2.34l.23,4.47Z"/><path class="cls-3" d="M439.93,197.46l-.32-1.73a3.84,3.84,0,0,0,2.07-1.12,2.5,2.5,0,0,0,.56-1.79,2.81,2.81,0,0,0-.95-2,2.86,2.86,0,0,0-2.15-.73,2.64,2.64,0,0,0-1.93.88,2.71,2.71,0,0,0-.67,2,4.82,4.82,0,0,0,.25,1.21l-1.53-.11a1.29,1.29,0,0,0,0-.28,3.49,3.49,0,0,0-.68-2,2,2,0,0,0-1.83-.79,2.06,2.06,0,0,0-1.54.73,2.29,2.29,0,0,0-.55,1.7,2.39,2.39,0,0,0,.73,1.65,3.23,3.23,0,0,0,1.95.77l-.22,1.75a4.42,4.42,0,0,1-2.77-1.31,4.16,4.16,0,0,1-1.11-2.75,4.75,4.75,0,0,1,.38-2.16,3.73,3.73,0,0,1,1.28-1.56,3.53,3.53,0,0,1,1.8-.61,2.93,2.93,0,0,1,1.69.41,3.32,3.32,0,0,1,1.27,1.39,3.28,3.28,0,0,1,1.1-2,3.57,3.57,0,0,1,2.25-.81,4.15,4.15,0,0,1,3.2,1.18,4.74,4.74,0,0,1,1.47,3.35,4.46,4.46,0,0,1-.95,3.15A4.32,4.32,0,0,1,439.93,197.46Z"/><path class="cls-3" d="M436.12,186.66a13.15,13.15,0,0,1-4.06-.31,5,5,0,0,1-2.44-1.41,3.9,3.9,0,0,1-1-2.52,4.27,4.27,0,0,1,.35-2,3.85,3.85,0,0,1,1.25-1.48,7.31,7.31,0,0,1,2.06-1,14,14,0,0,1,3.32-.49,12.78,12.78,0,0,1,4,.3,5,5,0,0,1,2.44,1.41,4.3,4.3,0,0,1-.33,5.81C440.67,186,438.77,186.52,436.12,186.66Zm-.09-1.79q3.48-.18,4.59-1.05a2.34,2.34,0,0,0-.22-4c-.8-.51-2.35-.7-4.67-.58s-3.86.48-4.59,1.06a2.39,2.39,0,0,0-1,2.09,2.25,2.25,0,0,0,1.11,1.86C432.1,184.78,433.71,185,436,184.87Z"/><path class="cls-3" d="M442.23,169.75l-3.39.18.32,6.13-1.59.08-9.49-6-.08-1.42,9.16-.48-.1-1.91,1.59-.08.1,1.91,3.39-.18Zm-5,.26-6.37.33,6.6,4.09Z"/><path class="cls-3" d="M441.89,163.36l-2,.1-.11-2,2-.1Z"/><path class="cls-3" d="M433.86,156.57a3.27,3.27,0,0,1-1.05,1.66,3,3,0,0,1-1.73.62,3.47,3.47,0,0,1-2.65-1,4.68,4.68,0,0,1-.28-5.93,3.45,3.45,0,0,1,2.56-1.26,2.81,2.81,0,0,1,1.73.42,3.27,3.27,0,0,1,1.21,1.51,3.87,3.87,0,0,1,1.26-2.05,3.79,3.79,0,0,1,2.22-.8,4.07,4.07,0,0,1,3.12,1.13,5.22,5.22,0,0,1,.35,6.74,4.17,4.17,0,0,1-3,1.45,3.79,3.79,0,0,1-2.34-.58A3.48,3.48,0,0,1,433.86,156.57Zm-2.93.5a2.16,2.16,0,0,0,1.61-.73,2.31,2.31,0,0,0,.55-1.71,2.29,2.29,0,0,0-.72-1.61,2.23,2.23,0,0,0-3.15.19,2.26,2.26,0,0,0-.57,1.67,2.32,2.32,0,0,0,.73,1.62A2,2,0,0,0,430.93,157.07Zm6.56.22a3.19,3.19,0,0,0,1.42-.42,2.5,2.5,0,0,0,1-1.11,3,3,0,0,0,.3-1.51,2.75,2.75,0,0,0-.91-2,2.71,2.71,0,0,0-2.07-.7,2.75,2.75,0,0,0-2,.94,2.81,2.81,0,0,0-.71,2.13,2.76,2.76,0,0,0,3,2.68Z"/><path class="cls-3" d="M434.12,148.23a12.94,12.94,0,0,1-4.07-.31,5,5,0,0,1-2.43-1.41,4,4,0,0,1-1-2.51,4.22,4.22,0,0,1,.36-2,3.73,3.73,0,0,1,1.25-1.49,7.25,7.25,0,0,1,2.05-1,14.14,14.14,0,0,1,3.33-.49,12.83,12.83,0,0,1,4,.3,5.06,5.06,0,0,1,2.44,1.41,4,4,0,0,1,1,2.52,3.88,3.88,0,0,1-1.3,3.29Q438.1,148,434.12,148.23Zm-.1-1.79q3.48-.18,4.59-1.05a2.43,2.43,0,0,0,1.05-2.07,2.39,2.39,0,0,0-1.26-1.95c-.8-.51-2.36-.7-4.67-.58s-3.86.48-4.6,1.06a2.44,2.44,0,0,0-1,2.09,2.22,2.22,0,0,0,1.11,1.86C430.1,146.35,431.7,146.56,434,146.44Z"/><path class="cls-3" d="M444.19,127.38a17.36,17.36,0,0,1-4.12,2.65,13.17,13.17,0,0,1-5,1.26,13,13,0,0,1-4.44-.52,18.64,18.64,0,0,1-5-2.42l-.06-1.24c1.38.7,2.36,1.17,2.94,1.39a16.65,16.65,0,0,0,2.83.78,16,16,0,0,0,3.65.22,17.43,17.43,0,0,0,9.11-3.36Z"/><path class="cls-3" d="M439.54,118.29l.09,1.73-11.05.58a8.89,8.89,0,0,1,1.28,1.58,12.34,12.34,0,0,1,1,1.78l-1.68.09a10.11,10.11,0,0,0-1.79-2.46,6.59,6.59,0,0,0-2-1.45l-.06-1.11Z"/><path class="cls-3" d="M437.17,104.81l1.67-.09.48,9.34a2.92,2.92,0,0,1-1.21-.14,6.24,6.24,0,0,1-1.94-1,17.19,17.19,0,0,1-2.26-2.16,19,19,0,0,0-3.16-3,3.61,3.61,0,0,0-2.13-.7,2.34,2.34,0,0,0-1.7.83,2.7,2.7,0,0,0-.61,2,2.74,2.74,0,0,0,.86,2,2.88,2.88,0,0,0,2.12.65l-.09,1.79a4.39,4.39,0,0,1-3.11-1.22,4.69,4.69,0,0,1-1.21-3.15,4.4,4.4,0,0,1,1-3.28,3.67,3.67,0,0,1,2.73-1.33,4.13,4.13,0,0,1,1.69.26A6.35,6.35,0,0,1,432,106.6a27.78,27.78,0,0,1,2.63,2.54c.93,1,1.56,1.64,1.88,1.92a6.21,6.21,0,0,0,1,.68Z"/><path class="cls-3" d="M429.41,99.58l-2.66.61-2.31.12-.11-2,2.32-.12,2.71.33Zm.17,3.19-2.66.62-2.32.12-.1-2,2.31-.12,2.71.3Z"/><path class="cls-3" d="M442.47,94.1l.07,1.25a17.47,17.47,0,0,0-9.42-2.4,15.5,15.5,0,0,0-3.57.6,14.72,14.72,0,0,0-2.73,1.06,32.56,32.56,0,0,0-2.82,1.7l-.06-1.24a18.4,18.4,0,0,1,4.72-2.93,13.35,13.35,0,0,1,9.44-.24A17.88,17.88,0,0,1,442.47,94.1Z"/><line class="cls-10" x1="446.18" y1="66.54" x2="451.73" y2="217.11"/><polygon class="cls-3" points="442.46 69.37 445.96 54.44 450.4 69.12 442.46 69.37"/><g class="cls-4"><path class="cls-9" d="M762.11,407.67l5-6.72-4.41-6.22h2l2.38,3.33c.49.69.83,1.2,1,1.54a16,16,0,0,1,1-1.45l2.53-3.42h1.89l-4.48,6.15,4.84,6.79h-2.1l-3.25-4.59-.56-.78c-.26.4-.46.68-.58.86l-3.28,4.51Z"/><path class="cls-9" d="M67.29,404.62l5-6.71-4.41-6.22h2L72.27,395c.49.69.84,1.2,1,1.54.3-.46.65-.95,1-1.46l2.53-3.41h1.89l-4.47,6.15,4.84,6.78H77L73.77,400l-.55-.77c-.27.4-.47.68-.59.85l-3.28,4.51Z"/></g><line class="cls-10" x1="95.69" y1="690.69" x2="95.69" y2="411.73"/><polygon class="cls-3" points="99.46 688.14 95.52 702.12 91.58 688.14 99.46 688.14"/><polygon class="cls-3" points="99.46 414.28 95.52 400.3 91.58 414.28 99.46 414.28"/><path class="cls-3" d="M79.27,587.33l.13,1.73a3.3,3.3,0,0,0-1.48.66,2.29,2.29,0,0,0-.75,1.74,2.41,2.41,0,0,0,.46,1.45,4,4,0,0,0,1.75,1.3,9.22,9.22,0,0,0,3.27.49,4,4,0,0,1-1.41-1.53,4.15,4.15,0,0,1-.47-1.91,4,4,0,0,1,1.28-3,4.61,4.61,0,0,1,3.31-1.22,5.44,5.44,0,0,1,2.47.58,4.17,4.17,0,0,1,1.76,1.58,4.35,4.35,0,0,1,.6,2.27,4.48,4.48,0,0,1-1.59,3.55c-1.07.91-2.82,1.37-5.27,1.37q-4.1,0-6-1.52a4.36,4.36,0,0,1-1.62-3.56,3.8,3.8,0,0,1,3.53-4Zm6.1,7.1a4.11,4.11,0,0,0,1.72-.38A2.93,2.93,0,0,0,88.34,593a2.69,2.69,0,0,0,.43-1.44,2.46,2.46,0,0,0-.89-1.89,3.49,3.49,0,0,0-2.42-.79,3.28,3.28,0,0,0-2.31.78,2.58,2.58,0,0,0-.84,2,2.69,2.69,0,0,0,.84,2A3,3,0,0,0,85.37,594.43Z"/><path class="cls-3" d="M90,578.81v1.74H78.88a8.94,8.94,0,0,1,1.2,1.64A10.77,10.77,0,0,1,81,584H79.29a10.11,10.11,0,0,0-1.66-2.55,6.6,6.6,0,0,0-1.89-1.54v-1.12Z"/><path class="cls-3" d="M90,573.38H88v-2h2Z"/><path class="cls-3" d="M88.28,559.73H90v9.36a3.07,3.07,0,0,1-1.2-.21,6.11,6.11,0,0,1-1.89-1.14,18.13,18.13,0,0,1-2.14-2.27,19,19,0,0,0-3-3.12,3.57,3.57,0,0,0-2.09-.81,2.32,2.32,0,0,0-1.74.74,2.66,2.66,0,0,0-.71,1.92,2.72,2.72,0,0,0,.75,2A2.85,2.85,0,0,0,80,567l-.18,1.79a4.38,4.38,0,0,1-3-1.38,4.71,4.71,0,0,1-1.05-3.22,4.5,4.5,0,0,1,1.13-3.22,3.72,3.72,0,0,1,2.8-1.19,4.28,4.28,0,0,1,1.67.35,6.64,6.64,0,0,1,1.73,1.15,29.64,29.64,0,0,1,2.49,2.68c.88,1.05,1.47,1.71,1.78,2a5.44,5.44,0,0,0,.94.73Z"/><path class="cls-3" d="M90,551.33v1.73H78.88a9,9,0,0,1,1.2,1.65,10.77,10.77,0,0,1,.89,1.83H79.29A10.11,10.11,0,0,0,77.63,554a6.43,6.43,0,0,0-1.89-1.54v-1.12Z"/><path class="cls-3" d="M94.11,537.58A17.22,17.22,0,0,1,89.87,540a13.31,13.31,0,0,1-5,1,13,13,0,0,1-4.41-.74,18.52,18.52,0,0,1-4.86-2.68v-1.25a32.23,32.23,0,0,0,2.87,1.55,15.1,15.1,0,0,0,2.78.92,15.92,15.92,0,0,0,3.63.42,17.37,17.37,0,0,0,9.27-2.89Z"/><path class="cls-3" d="M88.28,525.67H90V535a3.26,3.26,0,0,1-1.2-.2,6.36,6.36,0,0,1-1.89-1.15,18.13,18.13,0,0,1-2.14-2.27,19,19,0,0,0-3-3.12,3.57,3.57,0,0,0-2.09-.81,2.32,2.32,0,0,0-1.74.74,2.66,2.66,0,0,0-.71,1.92,2.72,2.72,0,0,0,.75,2,2.9,2.9,0,0,0,2.09.77l-.18,1.78a4.38,4.38,0,0,1-3-1.38,4.7,4.7,0,0,1-1.05-3.21,4.51,4.51,0,0,1,1.13-3.23,3.72,3.72,0,0,1,2.8-1.19,4.28,4.28,0,0,1,1.67.35,6.46,6.46,0,0,1,1.73,1.16,29.2,29.2,0,0,1,2.49,2.67c.88,1,1.47,1.72,1.78,2a6.08,6.08,0,0,0,.94.74Z"/><path class="cls-3" d="M90,522.83H88v-2h2Z"/><path class="cls-3" d="M90,512.74H86.56v6.14H85l-9.17-6.46V511H85v-1.91h1.59V511H90Zm-5,0H78.59L85,517.17Z"/><path class="cls-3" d="M90,500.77v1.73H78.88a9,9,0,0,1,1.2,1.65A10.77,10.77,0,0,1,81,506H79.29a10.11,10.11,0,0,0-1.66-2.55,6.43,6.43,0,0,0-1.89-1.54v-1.12Z"/><path class="cls-3" d="M80.81,492.55l-2.69.47H75.8v-2h2.32l2.69.47Zm0,3.2-2.69.48H75.8v-2h2.32l2.69.43Z"/><path class="cls-3" d="M94.11,487.75V489a17.44,17.44,0,0,0-9.27-2.88,15.66,15.66,0,0,0-3.6.41,15.1,15.1,0,0,0-2.78.92c-.58.25-1.55.77-2.9,1.55v-1.24a18.57,18.57,0,0,1,4.86-2.69,13.3,13.3,0,0,1,4.41-.74,13.13,13.13,0,0,1,5,1A17.55,17.55,0,0,1,94.11,487.75Z"/><line class="cls-10" x1="889.98" y1="566.07" x2="889.98" y2="287.39"/><polygon class="cls-3" points="893.75 563.52 889.82 577.49 885.88 563.52 893.75 563.52"/><polygon class="cls-3" points="893.75 289.94 889.82 275.97 885.88 289.94 893.75 289.94"/><line class="cls-10" x1="889.98" y1="694.65" x2="889.98" y2="588.9"/><polygon class="cls-3" points="893.75 688.6 889.82 702.56 885.88 688.6 893.75 688.6"/><polygon class="cls-3" points="893.75 591.45 889.82 577.49 885.88 591.45 893.75 591.45"/><path class="cls-3" d="M873.56,462.7l.14,1.73a3.24,3.24,0,0,0-1.49.65,2.28,2.28,0,0,0-.74,1.74,2.38,2.38,0,0,0,.46,1.46,3.88,3.88,0,0,0,1.75,1.29,9.11,9.11,0,0,0,3.27.5,4,4,0,0,1-1.42-1.54,4.1,4.1,0,0,1-.46-1.9,3.92,3.92,0,0,1,1.28-3,4.59,4.59,0,0,1,3.3-1.22,5.48,5.48,0,0,1,2.48.57,4.21,4.21,0,0,1,1.75,1.58,4.28,4.28,0,0,1,.61,2.28,4.43,4.43,0,0,1-1.6,3.54c-1.06.92-2.82,1.37-5.27,1.37q-4.1,0-6-1.51a4.36,4.36,0,0,1-1.62-3.56,3.78,3.78,0,0,1,3.52-4Zm6.1,7.1a4.11,4.11,0,0,0,1.72-.38,2.87,2.87,0,0,0,1.25-1.07,2.66,2.66,0,0,0,.43-1.44,2.46,2.46,0,0,0-.89-1.89,3.47,3.47,0,0,0-2.41-.79,3.26,3.26,0,0,0-2.31.78,2.55,2.55,0,0,0-.85,2,2.68,2.68,0,0,0,.85,2A3.06,3.06,0,0,0,879.66,469.8Z"/><path class="cls-3" d="M884.25,454.18v1.73H873.17a9,9,0,0,1,1.2,1.65,11.73,11.73,0,0,1,.9,1.83h-1.68a10.68,10.68,0,0,0-1.66-2.55A6.43,6.43,0,0,0,870,455.3v-1.12Z"/><path class="cls-3" d="M884.25,448.75h-2v-2h2Z"/><path class="cls-3" d="M884.25,437.69v1.73H873.17a9,9,0,0,1,1.2,1.65,11.73,11.73,0,0,1,.9,1.83h-1.68a10.68,10.68,0,0,0-1.66-2.55,6.43,6.43,0,0,0-1.89-1.54v-1.12Z"/><path class="cls-3" d="M882.58,424.1h1.67v9.36a3.31,3.31,0,0,1-1.21-.2,6.31,6.31,0,0,1-1.88-1.15,17.43,17.43,0,0,1-2.14-2.27,19.87,19.87,0,0,0-3-3.12,3.61,3.61,0,0,0-2.09-.81,2.32,2.32,0,0,0-1.74.74,2.62,2.62,0,0,0-.71,1.92,2.72,2.72,0,0,0,.75,2,2.83,2.83,0,0,0,2.08.76l-.18,1.79a4.4,4.4,0,0,1-3-1.38,4.75,4.75,0,0,1-1-3.21,4.46,4.46,0,0,1,1.13-3.23,3.7,3.7,0,0,1,2.8-1.19,4.31,4.31,0,0,1,1.67.35,6.61,6.61,0,0,1,1.72,1.15,29.35,29.35,0,0,1,2.5,2.68,24.33,24.33,0,0,0,1.78,2,5.64,5.64,0,0,0,.94.74Z"/><path class="cls-3" d="M888.41,412.94a17.64,17.64,0,0,1-4.25,2.44,13.38,13.38,0,0,1-9.44.25,18.62,18.62,0,0,1-4.87-2.69V411.7c1.34.78,2.3,1.29,2.87,1.54a14.88,14.88,0,0,0,2.78.93,16,16,0,0,0,3.63.41,17.45,17.45,0,0,0,9.28-2.88Z"/><path class="cls-3" d="M882.58,401h1.67v9.36a3.12,3.12,0,0,1-1.21-.21,6.27,6.27,0,0,1-1.88-1.14,18.1,18.1,0,0,1-2.14-2.27,19.87,19.87,0,0,0-3-3.12,3.61,3.61,0,0,0-2.09-.81,2.28,2.28,0,0,0-1.74.74,2.62,2.62,0,0,0-.71,1.92,2.72,2.72,0,0,0,.75,2,2.83,2.83,0,0,0,2.08.76l-.18,1.79a4.4,4.4,0,0,1-3-1.38,4.76,4.76,0,0,1-1-3.22,4.44,4.44,0,0,1,1.13-3.22,3.7,3.7,0,0,1,2.8-1.19,4.31,4.31,0,0,1,1.67.35,6.36,6.36,0,0,1,1.72,1.15,28,28,0,0,1,2.5,2.68c.87,1,1.46,1.71,1.78,2a5.09,5.09,0,0,0,.94.73Z"/><path class="cls-3" d="M884.25,387.13v1.74H873.17a8.94,8.94,0,0,1,1.2,1.64,11.73,11.73,0,0,1,.9,1.83h-1.68a10.68,10.68,0,0,0-1.66-2.55,6.6,6.6,0,0,0-1.89-1.54v-1.12Z"/><path class="cls-3" d="M880.51,382.67l-.23-1.74a3.87,3.87,0,0,0,2.13-1,2.53,2.53,0,0,0,.65-1.75,2.78,2.78,0,0,0-.85-2.07,2.89,2.89,0,0,0-2.1-.85,2.67,2.67,0,0,0-2.75,2.78,4.92,4.92,0,0,0,.19,1.22l-1.53-.19a1.58,1.58,0,0,0,0-.28,3.55,3.55,0,0,0-.58-2,2,2,0,0,0-1.78-.89,2.13,2.13,0,0,0-1.59.65,2.33,2.33,0,0,0-.62,1.67,2.39,2.39,0,0,0,.63,1.69,3.25,3.25,0,0,0,1.91.87l-.3,1.74a4.51,4.51,0,0,1-2.71-1.45,4.2,4.2,0,0,1-1-2.81,4.67,4.67,0,0,1,.49-2.14,3.71,3.71,0,0,1,1.36-1.49,3.51,3.51,0,0,1,1.83-.51,3,3,0,0,1,1.67.49,1.3,1.3,0,1,0,2.4-.49,3.58,3.58,0,0,1,2.28-.7,4.18,4.18,0,0,1,3.14,1.35,4.75,4.75,0,0,1,1.29,3.42,4.44,4.44,0,0,1-1.11,3.09A4.32,4.32,0,0,1,880.51,382.67Z"/><path class="cls-3" d="M884.49,372.5l-14.64-4.1V367l14.64,4.09Z"/><path class="cls-3" d="M880.51,366.18l-.23-1.74a3.87,3.87,0,0,0,2.13-1,2.53,2.53,0,0,0,.65-1.75,2.78,2.78,0,0,0-.85-2.07,2.88,2.88,0,0,0-2.1-.84,2.65,2.65,0,0,0-2.75,2.77,4.92,4.92,0,0,0,.19,1.22l-1.53-.19a1.58,1.58,0,0,0,0-.28,3.55,3.55,0,0,0-.58-2,2,2,0,0,0-1.78-.89,2.13,2.13,0,0,0-1.59.65,2.33,2.33,0,0,0-.62,1.67,2.38,2.38,0,0,0,.63,1.69,3.25,3.25,0,0,0,1.91.87l-.3,1.74a4.51,4.51,0,0,1-2.71-1.45,4.18,4.18,0,0,1-1-2.81,4.63,4.63,0,0,1,.49-2.13,3.74,3.74,0,0,1,1.36-1.5,3.51,3.51,0,0,1,1.83-.51,3,3,0,0,1,1.67.49,1.3,1.3,0,1,0,2.4-.49,3.58,3.58,0,0,1,2.28-.7,4.18,4.18,0,0,1,3.14,1.35,4.77,4.77,0,0,1,1.29,3.42,4.48,4.48,0,0,1-1.11,3.1A4.31,4.31,0,0,1,880.51,366.18Z"/><path class="cls-3" d="M882.58,346.06h1.67v9.36a3.12,3.12,0,0,1-1.21-.21,6.49,6.49,0,0,1-1.88-1.14A18.1,18.1,0,0,1,879,351.8a19.87,19.87,0,0,0-3-3.12,3.61,3.61,0,0,0-2.09-.81,2.31,2.31,0,0,0-1.74.73,2.66,2.66,0,0,0-.71,1.93,2.72,2.72,0,0,0,.75,2,2.87,2.87,0,0,0,2.08.76l-.18,1.79a4.44,4.44,0,0,1-3-1.38,4.76,4.76,0,0,1-1-3.22,4.44,4.44,0,0,1,1.13-3.22,3.7,3.7,0,0,1,2.8-1.19,4.31,4.31,0,0,1,1.67.35,6.36,6.36,0,0,1,1.72,1.15,28,28,0,0,1,2.5,2.68c.87,1,1.46,1.71,1.78,2a5.56,5.56,0,0,0,.94.73Z"/><path class="cls-3" d="M875.11,340.43l-2.7.48H870.1v-2h2.31l2.7.46Zm0,3.2-2.7.48H870.1v-2h2.31l2.7.44Z"/><path class="cls-3" d="M888.41,335.65v1.24a17.45,17.45,0,0,0-9.28-2.88,15.92,15.92,0,0,0-6.38,1.33c-.58.25-1.54.77-2.9,1.55v-1.24a18.62,18.62,0,0,1,4.87-2.69,13.24,13.24,0,0,1,4.4-.74,13.06,13.06,0,0,1,5,1A17.62,17.62,0,0,1,888.41,335.65Z"/><path class="cls-3" d="M882.58,669.25h1.67v9.36a3.31,3.31,0,0,1-1.21-.2,6.44,6.44,0,0,1-1.88-1.15A17.43,17.43,0,0,1,879,675a19.42,19.42,0,0,0-3-3.12,3.61,3.61,0,0,0-2.09-.81,2.32,2.32,0,0,0-1.74.74,2.62,2.62,0,0,0-.71,1.92,2.72,2.72,0,0,0,.75,2,2.84,2.84,0,0,0,2.09.76l-.19,1.79a4.35,4.35,0,0,1-3-1.38,4.71,4.71,0,0,1-1.05-3.22,4.5,4.5,0,0,1,1.13-3.22,3.7,3.7,0,0,1,2.8-1.19,4.31,4.31,0,0,1,1.67.35,6.81,6.81,0,0,1,1.73,1.15,31.1,31.1,0,0,1,2.49,2.68,26.45,26.45,0,0,0,1.78,2,5.64,5.64,0,0,0,.94.74Z"/><path class="cls-3" d="M880.54,667.39l-.15-1.82a3.26,3.26,0,0,0,2-1,2.53,2.53,0,0,0,.67-1.78,2.77,2.77,0,0,0-.94-2.12,3.58,3.58,0,0,0-2.51-.87,3.2,3.2,0,0,0-2.35.84,2.9,2.9,0,0,0-.86,2.18,3,3,0,0,0,1.37,2.58l-.21,1.63-7.27-1.37v-7H872v5.65l3.8.76a4.61,4.61,0,0,1-.88-2.67,4.22,4.22,0,0,1,1.28-3.13,4.48,4.48,0,0,1,3.3-1.27,5.13,5.13,0,0,1,3.32,1.12,4.45,4.45,0,0,1,1.72,3.71,4.61,4.61,0,0,1-1.08,3.16A4.26,4.26,0,0,1,880.54,667.39Z"/><path class="cls-3" d="M884.25,655.42h-2v-2h2Z"/><path class="cls-3" d="M884.25,645.33h-3.39v6.14h-1.59L870.1,645v-1.42h9.17v-1.91h1.59v1.91h3.39Zm-5,0h-6.38l6.38,4.43Z"/><path class="cls-3" d="M877.27,639.91a13.08,13.08,0,0,1-4-.52,5,5,0,0,1-2.36-1.54,3.92,3.92,0,0,1-.83-2.56,4.16,4.16,0,0,1,.46-2,3.81,3.81,0,0,1,1.32-1.42,7.21,7.21,0,0,1,2.1-.87,13.67,13.67,0,0,1,3.35-.32,13,13,0,0,1,4,.51,5,5,0,0,1,2.37,1.53,4,4,0,0,1,.83,2.57,3.89,3.89,0,0,1-1.47,3.22C881.84,639.44,879.93,639.91,877.27,639.91Zm0-1.79c2.32,0,3.87-.27,4.64-.82a2.33,2.33,0,0,0,0-4c-.77-.55-2.31-.82-4.63-.82s-3.88.27-4.64.82a2.41,2.41,0,0,0-1.15,2,2.2,2.2,0,0,0,1,1.91C873.35,637.82,875,638.12,877.27,638.12Z"/><path class="cls-3" d="M888.41,619.61a17.64,17.64,0,0,1-4.25,2.44,13.38,13.38,0,0,1-9.44.25,18.62,18.62,0,0,1-4.87-2.69v-1.24c1.34.78,2.3,1.29,2.87,1.54a16.5,16.5,0,0,0,2.78.93,16,16,0,0,0,3.63.41,17.45,17.45,0,0,0,9.28-2.88Z"/><path class="cls-3" d="M884.25,610.29V612H873.18a8.6,8.6,0,0,1,1.19,1.64,11.73,11.73,0,0,1,.9,1.83h-1.68a10.68,10.68,0,0,0-1.66-2.55,6.43,6.43,0,0,0-1.89-1.54v-1.12Z"/><path class="cls-3" d="M875.11,602.07l-2.7.47H870.1v-2h2.31l2.7.46Zm0,3.2-2.7.48H870.1v-2h2.31l2.7.44Z"/><path class="cls-3" d="M888.41,597.2v1.24a17.46,17.46,0,0,0-9.28-2.89,16.13,16.13,0,0,0-6.38,1.34c-.58.25-1.54.77-2.9,1.55V597.2a18.62,18.62,0,0,1,4.87-2.69,13.24,13.24,0,0,1,4.4-.74,13.06,13.06,0,0,1,5,1A17.29,17.29,0,0,1,888.41,597.2Z"/><path class="cls-3" d="M933.68,441.17v1.74H922.6a8.94,8.94,0,0,1,1.2,1.64,11.73,11.73,0,0,1,.9,1.83H923a10.68,10.68,0,0,0-1.66-2.55,6.6,6.6,0,0,0-1.89-1.54v-1.12Z"/><path class="cls-3" d="M929.94,436.71l-.23-1.74a3.87,3.87,0,0,0,2.13-1,2.53,2.53,0,0,0,.65-1.75,2.78,2.78,0,0,0-.85-2.07,2.88,2.88,0,0,0-2.1-.84,2.65,2.65,0,0,0-2.75,2.77,4.92,4.92,0,0,0,.19,1.22l-1.53-.19a1.58,1.58,0,0,0,0-.28,3.55,3.55,0,0,0-.58-2,2,2,0,0,0-1.78-.89,2.13,2.13,0,0,0-1.59.65,2.33,2.33,0,0,0-.62,1.67,2.38,2.38,0,0,0,.63,1.69,3.22,3.22,0,0,0,1.91.87l-.3,1.74a4.51,4.51,0,0,1-2.71-1.45,4.2,4.2,0,0,1-1-2.81,4.65,4.65,0,0,1,.49-2.14,3.71,3.71,0,0,1,1.36-1.49,3.51,3.51,0,0,1,1.83-.51,3,3,0,0,1,1.67.49,1.29,1.29,0,1,0,2.39-.49,3.63,3.63,0,0,1,2.29-.7,4.18,4.18,0,0,1,3.14,1.35,4.75,4.75,0,0,1,1.29,3.42,4.44,4.44,0,0,1-1.11,3.09A4.32,4.32,0,0,1,929.94,436.71Z"/><path class="cls-3" d="M933.68,419.18v1.74H922.6a8.61,8.61,0,0,1,1.2,1.64,11.73,11.73,0,0,1,.9,1.83H923a10.68,10.68,0,0,0-1.66-2.55,6.43,6.43,0,0,0-1.89-1.54v-1.12Z"/><path class="cls-3" d="M933.68,413.75h-2v-2h2Z"/><path class="cls-3" d="M921.38,409.12h-1.67V400h1.35a19.55,19.55,0,0,0,3.82,2.68,24,24,0,0,0,4.91,2.05,18.24,18.24,0,0,0,3.89.66v1.79a17.33,17.33,0,0,1-4-.66,21.42,21.42,0,0,1-4.56-1.8,19.52,19.52,0,0,1-3.7-2.49Z"/><path class="cls-3" d="M923,389.22l.14,1.73a3.14,3.14,0,0,0-1.49.66,2.26,2.26,0,0,0-.74,1.73,2.38,2.38,0,0,0,.46,1.46,3.88,3.88,0,0,0,1.75,1.29,9.11,9.11,0,0,0,3.27.5,4,4,0,0,1-1.42-1.54,4.1,4.1,0,0,1-.46-1.9,3.92,3.92,0,0,1,1.28-3,4.59,4.59,0,0,1,3.3-1.22,5.48,5.48,0,0,1,2.48.57,4.21,4.21,0,0,1,1.75,1.58,4.28,4.28,0,0,1,.61,2.28,4.43,4.43,0,0,1-1.6,3.54q-1.59,1.38-5.27,1.38-4.09,0-6-1.52a4.36,4.36,0,0,1-1.62-3.56,3.78,3.78,0,0,1,3.52-4Zm6.1,7.1a4.11,4.11,0,0,0,1.72-.38,2.87,2.87,0,0,0,1.25-1.07,2.66,2.66,0,0,0,.43-1.44,2.46,2.46,0,0,0-.89-1.89,3.47,3.47,0,0,0-2.41-.79,3.26,3.26,0,0,0-2.31.78,2.55,2.55,0,0,0-.85,2,2.68,2.68,0,0,0,.85,2A3.06,3.06,0,0,0,929.09,396.32Z"/><path class="cls-3" d="M937.84,377.94a17.64,17.64,0,0,1-4.25,2.44,13.38,13.38,0,0,1-9.44.25,18.34,18.34,0,0,1-4.87-2.69V376.7c1.34.78,2.3,1.29,2.87,1.54a14.88,14.88,0,0,0,2.78.93,15.92,15.92,0,0,0,3.63.42,17.46,17.46,0,0,0,9.28-2.89Z"/><path class="cls-3" d="M930,375.16l-.15-1.82a3.28,3.28,0,0,0,2-.94,2.54,2.54,0,0,0,.67-1.78,2.79,2.79,0,0,0-1-2.13,3.55,3.55,0,0,0-2.51-.87,3.19,3.19,0,0,0-2.34.84,2.94,2.94,0,0,0-.86,2.19,3.05,3.05,0,0,0,.38,1.51,2.81,2.81,0,0,0,1,1.06l-.21,1.64-7.27-1.38v-7h1.66v5.64l3.8.77a4.63,4.63,0,0,1-.89-2.68,4.2,4.2,0,0,1,1.29-3.12,4.47,4.47,0,0,1,3.3-1.28,5.13,5.13,0,0,1,3.32,1.12,4.48,4.48,0,0,1,1.72,3.72,4.58,4.58,0,0,1-1.08,3.15A4.21,4.21,0,0,1,930,375.16Z"/><path class="cls-3" d="M929.94,358.67l-.23-1.74a3.87,3.87,0,0,0,2.13-1,2.53,2.53,0,0,0,.65-1.75,2.78,2.78,0,0,0-.85-2.07,2.85,2.85,0,0,0-2.1-.85,2.68,2.68,0,0,0-2,.78,2.71,2.71,0,0,0-.77,2,4.93,4.93,0,0,0,.19,1.23l-1.53-.19a1.58,1.58,0,0,0,0-.28,3.55,3.55,0,0,0-.58-2,2,2,0,0,0-1.78-.89,2.1,2.1,0,0,0-1.59.65,2.31,2.31,0,0,0-.62,1.67,2.39,2.39,0,0,0,.63,1.69,3.16,3.16,0,0,0,1.91.86l-.3,1.74a4.41,4.41,0,0,1-2.71-1.45,4.18,4.18,0,0,1-1-2.81,4.63,4.63,0,0,1,.49-2.13,3.65,3.65,0,0,1,1.36-1.49,3.52,3.52,0,0,1,1.83-.52,3,3,0,0,1,1.67.5A3.27,3.27,0,0,1,926,352a3.4,3.4,0,0,1,1.2-2,3.69,3.69,0,0,1,2.29-.69,4.18,4.18,0,0,1,3.14,1.35,4.75,4.75,0,0,1,1.29,3.42,4.44,4.44,0,0,1-1.11,3.09A4.32,4.32,0,0,1,929.94,358.67Z"/><path class="cls-3" d="M933.92,348.5l-14.64-4.1V343l14.64,4.09Z"/><path class="cls-3" d="M933.68,335.64v1.74H922.6a9.3,9.3,0,0,1,1.2,1.64,11.73,11.73,0,0,1,.9,1.83H923a10.42,10.42,0,0,0-1.66-2.54,6.49,6.49,0,0,0-1.89-1.55v-1.12Z"/><path class="cls-3" d="M923,322.17l.14,1.73a3.35,3.35,0,0,0-1.49.66,2.28,2.28,0,0,0-.74,1.74,2.35,2.35,0,0,0,.46,1.45,4,4,0,0,0,1.75,1.3,9.14,9.14,0,0,0,3.27.49A4,4,0,0,1,925,328a4.07,4.07,0,0,1-.46-1.9,3.92,3.92,0,0,1,1.28-3,4.59,4.59,0,0,1,3.3-1.22,5.36,5.36,0,0,1,2.48.58,4.14,4.14,0,0,1,1.75,1.58,4.24,4.24,0,0,1,.61,2.27,4.46,4.46,0,0,1-1.6,3.55q-1.59,1.37-5.27,1.37-4.09,0-6-1.52a4.36,4.36,0,0,1-1.62-3.56,3.78,3.78,0,0,1,3.52-4Zm6.1,7.1a4.11,4.11,0,0,0,1.72-.38,2.87,2.87,0,0,0,1.25-1.07,2.66,2.66,0,0,0,.43-1.44,2.46,2.46,0,0,0-.89-1.89,3.47,3.47,0,0,0-2.41-.79,3.26,3.26,0,0,0-2.31.78,2.55,2.55,0,0,0-.85,2,2.66,2.66,0,0,0,.85,2A3,3,0,0,0,929.09,329.27Z"/><path class="cls-3" d="M924.54,316.43l-2.7.47h-2.31v-2h2.31l2.7.47Zm0,3.2-2.7.48h-2.31v-2h2.31l2.7.43Z"/><path class="cls-3" d="M937.84,311.65v1.24a17.45,17.45,0,0,0-9.28-2.88,15.66,15.66,0,0,0-3.6.41,14.86,14.86,0,0,0-2.78.92c-.58.25-1.54.77-2.9,1.55v-1.24a18.62,18.62,0,0,1,4.87-2.69,13.24,13.24,0,0,1,4.4-.74,13.06,13.06,0,0,1,5,1A17.29,17.29,0,0,1,937.84,311.65Z"/><path class="cls-3" d="M325.38,510l8.36-11.42,5.06,3.7a8.49,8.49,0,0,1,2.1,2,3.18,3.18,0,0,1,.48,2,4.09,4.09,0,0,1-.79,2.07,3.55,3.55,0,0,1-2.29,1.47,4.93,4.93,0,0,1-3.2-.72,4.78,4.78,0,0,1,.49,1.23,9.55,9.55,0,0,1,.14,2.44l-.29,4.56-1.9-1.39.23-3.48q.09-1.51.06-2.37a4.33,4.33,0,0,0-.2-1.33,2.92,2.92,0,0,0-.47-.81,6.43,6.43,0,0,0-.8-.67L330.6,506l-3.71,5.07Zm6.18-5.28,3.25,2.38a5.8,5.8,0,0,0,1.78,1,2.2,2.2,0,0,0,1.39,0,2.39,2.39,0,0,0,1-.8,2.1,2.1,0,0,0,.39-1.77,3.43,3.43,0,0,0-1.48-1.88l-3.61-2.65Z"/><path class="cls-3" d="M349.89,514.7l-1.47-.91a3.33,3.33,0,0,0,.35-1.59,2.3,2.3,0,0,0-1-1.62,2.39,2.39,0,0,0-1.45-.49,4,4,0,0,0-2.08.64,9.35,9.35,0,0,0-2.33,2.35,4.2,4.2,0,0,1,2.08-.24,4.12,4.12,0,0,1,1.8.75,4,4,0,0,1,1.64,2.79,4.59,4.59,0,0,1-1,3.38,5.47,5.47,0,0,1-1.93,1.66,4.17,4.17,0,0,1-2.31.48,4.27,4.27,0,0,1-2.2-.85,4.48,4.48,0,0,1-1.91-3.38q-.16-2.1,2-5.06,2.43-3.32,4.75-3.92a4.36,4.36,0,0,1,3.84.8,4,4,0,0,1,1.65,2.37A3.93,3.93,0,0,1,349.89,514.7Zm-9.33.73a4.08,4.08,0,0,0-.7,1.61,2.83,2.83,0,0,0,.12,1.64,2.73,2.73,0,0,0,.9,1.2,2.47,2.47,0,0,0,2.06.4A3.52,3.52,0,0,0,345,518.8a3.25,3.25,0,0,0,.74-2.33,2.57,2.57,0,0,0-1.09-1.84,2.67,2.67,0,0,0-2.11-.5A3,3,0,0,0,340.56,515.43Z"/><path class="cls-3" d="M346,525.07l1.17-1.6,1.6,1.17-1.17,1.6Z"/><path class="cls-3" d="M351.83,524.73l1.54.84a3.85,3.85,0,0,0-.44,2.32,2.52,2.52,0,0,0,1,1.56,2.83,2.83,0,0,0,2.17.54,2.93,2.93,0,0,0,1.93-1.2,2.65,2.65,0,0,0,.53-2.06,2.73,2.73,0,0,0-1.14-1.8,5.63,5.63,0,0,0-1.11-.57l1.06-1.11.21.18a3.58,3.58,0,0,0,2,.71,2,2,0,0,0,1.77-.91,2.11,2.11,0,0,0,.41-1.66,2.3,2.3,0,0,0-1-1.5,2.36,2.36,0,0,0-1.74-.48,3.18,3.18,0,0,0-1.83,1L356,519.34a4.48,4.48,0,0,1,2.77-1.33,4.2,4.2,0,0,1,2.83.89,4.63,4.63,0,0,1,1.43,1.66,3.59,3.59,0,0,1,.4,2,3.48,3.48,0,0,1-.66,1.77,2.91,2.91,0,0,1-1.39,1.06,3.28,3.28,0,0,1-1.88.1,3.27,3.27,0,0,1,.86,2.13,3.62,3.62,0,0,1-.78,2.25,4.21,4.21,0,0,1-2.95,1.73,4.72,4.72,0,0,1-3.52-1,4.51,4.51,0,0,1-1.84-2.73A4.28,4.28,0,0,1,351.83,524.73Z"/><path class="cls-3" d="M360.67,531.24l1.56,1a3.31,3.31,0,0,0-.42,2.17,2.54,2.54,0,0,0,1,1.59,2.73,2.73,0,0,0,2.27.49,3.56,3.56,0,0,0,2.19-1.51,3.25,3.25,0,0,0,.71-2.39,2.89,2.89,0,0,0-1.26-2,3,3,0,0,0-2.89-.42L362.68,529l5.4-5.06,5.68,4.16-1,1.34-4.56-3.34-2.86,2.62a4.63,4.63,0,0,1,2.68.86,4.25,4.25,0,0,1,1.77,2.89,4.52,4.52,0,0,1-.92,3.42,5.18,5.18,0,0,1-2.87,2,4.46,4.46,0,0,1-4-.81,4.57,4.57,0,0,1-1.91-2.73A4.23,4.23,0,0,1,360.67,531.24Z"/><path class="cls-3" d="M372.4,549.58a17.53,17.53,0,0,1,.54-4.87,13.36,13.36,0,0,1,5.38-7.76,18.61,18.61,0,0,1,5-2.34l1,.73a30.78,30.78,0,0,0-2.94,1.41,15,15,0,0,0-2.39,1.69,16.54,16.54,0,0,0-2.48,2.68,17.42,17.42,0,0,0-3.15,9.19Z"/><path class="cls-3" d="M382.38,551.73l-1.4-1,6.54-8.93a9.28,9.28,0,0,1-2,0,12.59,12.59,0,0,1-2-.35l1-1.36a10.45,10.45,0,0,0,3,.17,6.53,6.53,0,0,0,2.37-.62l.9.66Z"/><path class="cls-3" d="M385.16,554.07l12-9.39,1.12.82-11.95,9.39Z"/><path class="cls-3" d="M394.89,560.9l2-2.74-5-3.62.94-1.29,10.63-3.58,1.15.83-5.42,7.4,1.54,1.13-.94,1.29-1.54-1.13-2,2.73Zm2.95-4,3.77-5.15-7.35,2.53Z"/><path class="cls-3" d="M405.13,557.06l1.2-2.46,1.37-1.87,1.6,1.17-1.37,1.87L406,557.69Zm2.58,1.89,1.21-2.45,1.37-1.87,1.59,1.17-1.37,1.87-2,1.89Z"/><path class="cls-3" d="M403.78,572.56l-1-.73a17.5,17.5,0,0,0,7.81-5.78,16.31,16.31,0,0,0,1.79-3.15,14.18,14.18,0,0,0,.9-2.79,31.07,31.07,0,0,0,.46-3.25l1,.73a18.67,18.67,0,0,1-.71,5.51,13.3,13.3,0,0,1-5.79,7.47A17.54,17.54,0,0,1,403.78,572.56Z"/><line class="cls-10" x1="413.97" y1="583.81" x2="317.29" y2="513.1"/><polygon class="cls-3" points="414.03 579.14 423.64 591.09 409.34 585.55 414.03 579.14"/><path class="cls-3" d="M328.33,364.3l-10.79-9.16,4.06-4.78a8.36,8.36,0,0,1,2.15-1.95,3.16,3.16,0,0,1,2-.33,4,4,0,0,1,2,.93,3.58,3.58,0,0,1,1.31,2.39,5,5,0,0,1-.95,3.15,4.71,4.71,0,0,1,1.27-.41,10,10,0,0,1,2.44,0l4.53.62-1.53,1.8-3.45-.48c-1-.13-1.79-.21-2.37-.23a4.19,4.19,0,0,0-1.33.11,2.74,2.74,0,0,0-.84.41,5.25,5.25,0,0,0-.73.75l-1.4,1.65,4.79,4.07Zm-4.82-6.54,2.6-3.07a6,6,0,0,0,1.1-1.71,2.15,2.15,0,0,0,.07-1.39,2.3,2.3,0,0,0-.73-1.1,2.1,2.1,0,0,0-1.73-.52,3.42,3.42,0,0,0-2,1.34l-2.9,3.42Z"/><path class="cls-3" d="M334.77,340.19l-1,1.4a3.27,3.27,0,0,0-1.56-.46,2.45,2.45,0,0,0-2.28,2.25,4,4,0,0,0,.49,2.12,9,9,0,0,0,2.18,2.49,4,4,0,0,1,.79-3.83,3.92,3.92,0,0,1,2.89-1.43,4.56,4.56,0,0,1,3.31,1.21,5.41,5.41,0,0,1,1.52,2,4.15,4.15,0,0,1-.7,4.46,4.45,4.45,0,0,1-3.51,1.67c-1.4,0-3-.78-4.9-2.36q-3.14-2.65-3.57-5a4.34,4.34,0,0,1,1.07-3.76,3.78,3.78,0,0,1,5.28-.78Zm.06,9.35a4,4,0,0,0,1.56.82,2.86,2.86,0,0,0,1.64,0,2.62,2.62,0,0,0,1.26-.82,2.44,2.44,0,0,0,.55-2,3.49,3.49,0,0,0-1.33-2.16,3.3,3.3,0,0,0-2.27-.9,2.59,2.59,0,0,0-1.92,1,2.74,2.74,0,0,0-.65,2.07A3.07,3.07,0,0,0,334.83,349.54Z"/><path class="cls-3" d="M344.83,344.85l-1.51-1.28,1.28-1.51,1.51,1.28Z"/><path class="cls-3" d="M344.92,339l.94-1.48a3.76,3.76,0,0,0,2.29.6,2.52,2.52,0,0,0,1.63-.91,2.79,2.79,0,0,0,.69-2.13,2.85,2.85,0,0,0-1.06-2,2.67,2.67,0,0,0-2-.69,2.72,2.72,0,0,0-1.88,1,5,5,0,0,0-.65,1.06l-1-1.14a1.65,1.65,0,0,0,.19-.2,3.57,3.57,0,0,0,.85-1.9,2,2,0,0,0-.78-1.83,2.13,2.13,0,0,0-1.63-.53,2.3,2.3,0,0,0-1.56.87,2.36,2.36,0,0,0-.61,1.7,3.22,3.22,0,0,0,.9,1.9l-1.36,1.12a4.46,4.46,0,0,1-1.13-2.86,4.17,4.17,0,0,1,1.09-2.76,4.55,4.55,0,0,1,1.76-1.3,3.56,3.56,0,0,1,3.72.52,3,3,0,0,1,1,1.46,3.39,3.39,0,0,1,0,1.89,3.22,3.22,0,0,1,2.17-.71,3.62,3.62,0,0,1,2.19.94,4.14,4.14,0,0,1,1.52,3.07,4.72,4.72,0,0,1-1.22,3.44,4.52,4.52,0,0,1-2.85,1.64A4.33,4.33,0,0,1,344.92,339Z"/><path class="cls-3" d="M352,330.62l1.07-1.49a3.24,3.24,0,0,0,2.13.58,2.58,2.58,0,0,0,1.67-.92,2.76,2.76,0,0,0,.65-2.23,3.6,3.6,0,0,0-1.35-2.29,3.2,3.2,0,0,0-2.33-.88,2.88,2.88,0,0,0-2.07,1.11,3.07,3.07,0,0,0-.69,1.4,2.83,2.83,0,0,0,.07,1.45L350,328.46l-4.66-5.75,4.56-5.37,1.26,1.08-3.65,4.3,2.41,3a4.56,4.56,0,0,1,1.05-2.62,4.22,4.22,0,0,1,3-1.55,4.45,4.45,0,0,1,3.34,1.16,5.15,5.15,0,0,1,1.81,3,4.48,4.48,0,0,1-1.09,3.94,4.64,4.64,0,0,1-2.87,1.71A4.23,4.23,0,0,1,352,330.62Z"/><path class="cls-3" d="M371.18,320.24a17.48,17.48,0,0,1-4.82-.89,13.18,13.18,0,0,1-4.48-2.5,13,13,0,0,1-2.88-3.42,18.32,18.32,0,0,1-2-5.19l.8-.95c.52,1.46.92,2.47,1.19,3a15.83,15.83,0,0,0,1.52,2.51,16.18,16.18,0,0,0,2.5,2.66,17.34,17.34,0,0,0,8.94,3.8Z"/><path class="cls-3" d="M374,310.44l-1.12,1.32-8.44-7.16a9.51,9.51,0,0,1-.15,2,13,13,0,0,1-.5,2l-1.28-1.08a11.07,11.07,0,0,0,.38-3,6.37,6.37,0,0,0-.45-2.4l.73-.86Z"/><path class="cls-3" d="M376.57,307.83l-8.51-12.6.9-1.06,8.51,12.59Z"/><path class="cls-3" d="M384.08,298.61l-2.59-2.19-4,4.68-1.22-1-2.81-10.86.92-1.08,7,5.93,1.24-1.45,1.21,1-1.23,1.46,2.58,2.19Zm-3.8-3.22-4.87-4.13,2,7.51Z"/><path class="cls-3" d="M381,288.13l-2.36-1.38-1.77-1.5,1.28-1.51,1.77,1.5,1.77,2.08Zm2.07-2.44-2.36-1.38-1.77-1.5,1.28-1.51,1.77,1.5,1.75,2.1Z"/><path class="cls-3" d="M396.35,290.58l-.81.95a17.37,17.37,0,0,0-5.2-8.2,15.46,15.46,0,0,0-3-2,15.09,15.09,0,0,0-2.71-1.1c-.6-.18-1.68-.41-3.21-.69l.8-.95a18.49,18.49,0,0,1,5.45,1.11,13.18,13.18,0,0,1,3.84,2.28,13,13,0,0,1,3.19,4A17.69,17.69,0,0,1,396.35,290.58Z"/><line class="cls-10" x1="416.42" y1="272.03" x2="332.73" y2="370.5"/><polygon class="cls-3" points="411.77 271.64 424.37 262.91 417.83 276.78 411.77 271.64"/><path class="cls-3" d="M130,610.51l-.15-1.83a3.28,3.28,0,0,0,2-.94,2.54,2.54,0,0,0,.67-1.78,2.76,2.76,0,0,0-.95-2.13,3.59,3.59,0,0,0-2.51-.86,3.19,3.19,0,0,0-2.34.83,2.94,2.94,0,0,0-.86,2.19,3.05,3.05,0,0,0,.38,1.51,3,3,0,0,0,1,1.07L127,610.2l-7.27-1.37v-7h1.66v5.65l3.8.76a4.63,4.63,0,0,1-.89-2.68,4.22,4.22,0,0,1,1.29-3.12,4.47,4.47,0,0,1,3.3-1.28,5.18,5.18,0,0,1,3.32,1.12A4.48,4.48,0,0,1,134,606a4.56,4.56,0,0,1-1.08,3.15A4.27,4.27,0,0,1,130,610.51Z"/><path class="cls-3" d="M130,599.51l-.15-1.83a3.22,3.22,0,0,0,2-.94,2.53,2.53,0,0,0,.67-1.78,2.75,2.75,0,0,0-.95-2.12,3.55,3.55,0,0,0-2.51-.87,3.23,3.23,0,0,0-2.34.83,2.94,2.94,0,0,0-.86,2.19,3.09,3.09,0,0,0,.38,1.52,3,3,0,0,0,1,1.06L127,599.2l-7.27-1.37v-7h1.66v5.65l3.8.76a4.62,4.62,0,0,1-.89-2.67,4.22,4.22,0,0,1,1.29-3.13,4.46,4.46,0,0,1,3.3-1.27,5.13,5.13,0,0,1,3.32,1.12A4.45,4.45,0,0,1,134,595a4.56,4.56,0,0,1-1.08,3.15A4.22,4.22,0,0,1,130,599.51Z"/><path class="cls-3" d="M133.73,587.54h-2v-2h2Z"/><path class="cls-3" d="M130.46,582.76l-.16-1.67a2.86,2.86,0,0,0,1.71-.81,2.25,2.25,0,0,0,.53-1.54,2.59,2.59,0,0,0-.37-1.4,3,3,0,0,0-1-1,5.78,5.78,0,0,0-1.65-.65,8.92,8.92,0,0,0-2.12-.26h-.35a3.93,3.93,0,0,1,1.34,1.43,3.8,3.8,0,0,1,.52,2,3.94,3.94,0,0,1-1.27,3A4.63,4.63,0,0,1,124.3,583a4.77,4.77,0,0,1-3.47-1.27,4.27,4.27,0,0,1-1.31-3.18,4.53,4.53,0,0,1,2.86-4.26,10.33,10.33,0,0,1,4-.6,12.94,12.94,0,0,1,4.32.59,5.16,5.16,0,0,1,2.45,1.75,4.56,4.56,0,0,1,.84,2.73,3.73,3.73,0,0,1-3.51,4Zm-6.25-7.12a3.43,3.43,0,0,0-2.38.8,2.51,2.51,0,0,0-.87,1.92,2.66,2.66,0,0,0,.94,2,3.51,3.51,0,0,0,2.45.85,3,3,0,0,0,2.2-.81,2.7,2.7,0,0,0,.85-2,2.6,2.6,0,0,0-.85-2A3.31,3.31,0,0,0,124.21,575.64Z"/><path class="cls-3" d="M123,563l.14,1.73a3.24,3.24,0,0,0-1.49.65,2.28,2.28,0,0,0-.74,1.74,2.4,2.4,0,0,0,.46,1.46,3.88,3.88,0,0,0,1.75,1.29,8.92,8.92,0,0,0,3.27.49,4,4,0,0,1-1.42-1.53,4.13,4.13,0,0,1-.46-1.9,3.91,3.91,0,0,1,1.28-3,4.55,4.55,0,0,1,3.3-1.22,5.48,5.48,0,0,1,2.48.57,4.14,4.14,0,0,1,1.75,1.58,4.28,4.28,0,0,1,.61,2.28,4.43,4.43,0,0,1-1.6,3.54c-1.06.92-2.82,1.37-5.26,1.37q-4.11,0-6-1.51a4.36,4.36,0,0,1-1.62-3.57,3.78,3.78,0,0,1,3.52-4Zm6.1,7.09a4,4,0,0,0,1.72-.38,2.79,2.79,0,0,0,1.25-1.06,2.66,2.66,0,0,0,.43-1.44,2.4,2.4,0,0,0-.89-1.89,3.47,3.47,0,0,0-2.41-.8,3.22,3.22,0,0,0-2.31.79,2.54,2.54,0,0,0-.85,2,2.64,2.64,0,0,0,.85,2A3,3,0,0,0,129.14,570.1Z"/><path class="cls-3" d="M137.89,551.73a17.64,17.64,0,0,1-4.25,2.44,13.38,13.38,0,0,1-9.44.25,18.62,18.62,0,0,1-4.87-2.69v-1.24c1.34.78,2.3,1.29,2.87,1.54A16.5,16.5,0,0,0,125,553a16,16,0,0,0,3.63.41,17.45,17.45,0,0,0,9.28-2.88Z"/><path class="cls-3" d="M132.06,539.82h1.67v9.35a2.94,2.94,0,0,1-1.21-.2,6.49,6.49,0,0,1-1.88-1.14,18.29,18.29,0,0,1-2.14-2.28,19.69,19.69,0,0,0-3-3.11,3.57,3.57,0,0,0-2.09-.82,2.32,2.32,0,0,0-1.74.74,2.66,2.66,0,0,0-.71,1.93,2.73,2.73,0,0,0,.75,2,2.87,2.87,0,0,0,2.08.76l-.18,1.79a4.4,4.4,0,0,1-3-1.39,4.67,4.67,0,0,1-1-3.21,4.44,4.44,0,0,1,1.13-3.22,3.67,3.67,0,0,1,2.8-1.19,4.14,4.14,0,0,1,1.67.35,6.36,6.36,0,0,1,1.72,1.15,28,28,0,0,1,2.5,2.68c.87,1,1.46,1.71,1.78,2a5.56,5.56,0,0,0,.94.73Z"/><path class="cls-3" d="M133.73,537h-2v-2h2Z"/><path class="cls-3" d="M133.73,525.92v1.74H122.66a9.06,9.06,0,0,1,1.19,1.64,11.73,11.73,0,0,1,.9,1.83h-1.68a10.68,10.68,0,0,0-1.66-2.55,6.43,6.43,0,0,0-1.89-1.54v-1.12Z"/><path class="cls-3" d="M130,521.46l-.23-1.74a3.8,3.8,0,0,0,2.13-1,2.53,2.53,0,0,0,.65-1.75,2.78,2.78,0,0,0-.85-2.07,2.85,2.85,0,0,0-2.1-.85,2.68,2.68,0,0,0-2,.78,2.71,2.71,0,0,0-.77,2A4.93,4.93,0,0,0,127,518l-1.53-.19a1.58,1.58,0,0,0,0-.28,3.55,3.55,0,0,0-.58-2,2,2,0,0,0-1.78-.89,2.13,2.13,0,0,0-1.59.65A2.31,2.31,0,0,0,121,517a2.39,2.39,0,0,0,.63,1.69,3.19,3.19,0,0,0,1.92.86l-.31,1.74a4.41,4.41,0,0,1-2.71-1.45,4.16,4.16,0,0,1-1-2.8,4.65,4.65,0,0,1,.49-2.14,3.71,3.71,0,0,1,1.36-1.49,3.52,3.52,0,0,1,1.83-.52,3,3,0,0,1,1.67.5,3.33,3.33,0,0,1,1.19,1.45,3.36,3.36,0,0,1,1.21-2,3.64,3.64,0,0,1,2.28-.69,4.18,4.18,0,0,1,3.14,1.35A4.75,4.75,0,0,1,134,517a4.44,4.44,0,0,1-1.11,3.09A4.32,4.32,0,0,1,130,521.46Z"/><path class="cls-3" d="M134,511.29l-14.64-4.1V505.8L134,509.89Z"/><path class="cls-3" d="M123,496l.14,1.73a3.24,3.24,0,0,0-1.49.65,2.28,2.28,0,0,0-.74,1.74,2.38,2.38,0,0,0,.46,1.46,3.88,3.88,0,0,0,1.75,1.29,9.11,9.11,0,0,0,3.27.5,4,4,0,0,1-1.42-1.54,4.1,4.1,0,0,1-.46-1.9,3.92,3.92,0,0,1,1.28-3,4.59,4.59,0,0,1,3.3-1.22,5.48,5.48,0,0,1,2.48.57,4.21,4.21,0,0,1,1.75,1.58,4.28,4.28,0,0,1,.61,2.28,4.43,4.43,0,0,1-1.6,3.54c-1.06.92-2.82,1.37-5.26,1.37q-4.11,0-6-1.51a4.36,4.36,0,0,1-1.62-3.56,3.78,3.78,0,0,1,3.52-4Zm6.1,7.1a4,4,0,0,0,1.72-.39,2.73,2.73,0,0,0,1.25-1.06,2.66,2.66,0,0,0,.43-1.44,2.43,2.43,0,0,0-.89-1.89,3.47,3.47,0,0,0-2.41-.79,3.26,3.26,0,0,0-2.31.78,2.55,2.55,0,0,0-.85,2,2.68,2.68,0,0,0,.85,2A3.06,3.06,0,0,0,129.14,503.06Z"/><path class="cls-3" d="M133.73,488.41h-3.39v6.14h-1.59l-9.17-6.46v-1.42h9.17v-1.91h1.59v1.91h3.39Zm-5,0h-6.38l6.38,4.43Z"/><path class="cls-3" d="M124.59,479.22l-2.7.47h-2.31v-2h2.31l2.7.47Zm0,3.2-2.7.48h-2.31v-2h2.31l2.7.43Z"/><path class="cls-3" d="M137.89,474.44v1.24a17.46,17.46,0,0,0-9.28-2.89,16.13,16.13,0,0,0-6.38,1.34c-.58.25-1.54.77-2.9,1.55v-1.24a18.62,18.62,0,0,1,4.87-2.69,13.24,13.24,0,0,1,4.4-.74,13.06,13.06,0,0,1,5,1A17.29,17.29,0,0,1,137.89,474.44Z"/><path class="cls-3" d="M297.76,483.63l.64-14.14,6.27.28a8.29,8.29,0,0,1,2.86.52A3.12,3.12,0,0,1,309,471.7a4,4,0,0,1,.49,2.16,3.54,3.54,0,0,1-1.09,2.49,4.94,4.94,0,0,1-3.06,1.18,5.08,5.08,0,0,1,1.09.75,9.94,9.94,0,0,1,1.47,2l2.28,4-2.35-.1-1.74-3c-.5-.87-.93-1.54-1.26-2a4.09,4.09,0,0,0-.91-1,2.79,2.79,0,0,0-.83-.41,5.81,5.81,0,0,0-1-.12l-2.17-.09-.29,6.27Zm2.23-7.82,4,.19a5.85,5.85,0,0,0,2-.18,2.11,2.11,0,0,0,1.14-.8,2.24,2.24,0,0,0,.43-1.25,2.08,2.08,0,0,0-.65-1.68,3.44,3.44,0,0,0-2.27-.75l-4.48-.2Z"/><path class="cls-3" d="M311.47,480.51l1.75-.15a3.81,3.81,0,0,0,.92,2.17,2.53,2.53,0,0,0,1.72.73,2.78,2.78,0,0,0,2.1-.76,2.81,2.81,0,0,0,.94-2.06,2.64,2.64,0,0,0-.69-2,2.69,2.69,0,0,0-1.95-.86,4.94,4.94,0,0,0-1.23.13l.26-1.51.28,0a3.59,3.59,0,0,0,2-.49,2,2,0,0,0,1-1.74,2.07,2.07,0,0,0-.58-1.61,2.31,2.31,0,0,0-1.64-.71,2.34,2.34,0,0,0-1.71.57,3.18,3.18,0,0,0-1,1.86l-1.72-.38a4.46,4.46,0,0,1,1.57-2.64,4.16,4.16,0,0,1,2.85-.83,4.6,4.6,0,0,1,2.11.59,3.62,3.62,0,0,1,1.43,1.42,3.55,3.55,0,0,1,.43,1.85,3,3,0,0,1-.57,1.64,3.27,3.27,0,0,1-1.51,1.13,3.3,3.3,0,0,1,1.9,1.29,3.7,3.7,0,0,1,.59,2.31,4.18,4.18,0,0,1-1.5,3.08,4.73,4.73,0,0,1-3.47,1.14,4.5,4.5,0,0,1-3-1.25A4.32,4.32,0,0,1,311.47,480.51Z"/><path class="cls-3" d="M322.59,477.76a12.75,12.75,0,0,1,.7-4,5,5,0,0,1,1.64-2.29,3.9,3.9,0,0,1,2.59-.71,4.17,4.17,0,0,1,2,.55,3.83,3.83,0,0,1,1.36,1.38,7.53,7.53,0,0,1,.78,2.15,14.33,14.33,0,0,1,.17,3.35,13,13,0,0,1-.7,4,5,5,0,0,1-1.63,2.3,4,4,0,0,1-2.61.72,3.9,3.9,0,0,1-3.14-1.61Q322.41,481.75,322.59,477.76Zm1.78.08c-.1,2.33.1,3.88.61,4.68a2.33,2.33,0,0,0,4,.17c.58-.74.92-2.28,1-4.59s-.09-3.89-.6-4.68a2.4,2.4,0,0,0-2-1.23,2.23,2.23,0,0,0-2,.92C324.85,474,324.48,475.52,324.37,477.84Z"/><path class="cls-3" d="M338.82,485.49l.15-3.39-6.13-.28.07-1.59,6.87-8.87,1.42.07-.42,9.16,1.91.08-.07,1.6-1.91-.09-.15,3.38Zm.23-5,.28-6.38-4.71,6.18Z"/><path class="cls-3" d="M345.21,485.77l.09-2,2,.09-.09,2Z"/><path class="cls-3" d="M352.75,478.43a3.17,3.17,0,0,1-1.55-1.2,2.93,2.93,0,0,1-.45-1.78,3.45,3.45,0,0,1,1.23-2.54,4.67,4.67,0,0,1,5.93.29,3.47,3.47,0,0,1,1,2.67,2.92,2.92,0,0,1-.59,1.69,3.28,3.28,0,0,1-1.62,1.05,3.84,3.84,0,0,1,1.92,1.46,3.79,3.79,0,0,1,.58,2.29,4.1,4.1,0,0,1-1.42,3,4.72,4.72,0,0,1-3.44,1.08A4.64,4.64,0,0,1,351,485a4.16,4.16,0,0,1-1.15-3.15,3.7,3.7,0,0,1,.81-2.28A3.49,3.49,0,0,1,352.75,478.43ZM351.68,482a3.08,3.08,0,0,0,.28,1.45,2.55,2.55,0,0,0,1,1.13,3.08,3.08,0,0,0,1.48.44,2.88,2.88,0,0,0,2.25-4.81,2.89,2.89,0,0,0-2.05-.92,2.8,2.8,0,0,0-2.07.72A2.74,2.74,0,0,0,351.68,482Zm.85-6.5a2.22,2.22,0,0,0,.57,1.67,2.31,2.31,0,0,0,1.65.71,2.28,2.28,0,0,0,1.68-.56,2.23,2.23,0,0,0,.12-3.15,2.24,2.24,0,0,0-1.62-.73,2.27,2.27,0,0,0-1.67.56A2.06,2.06,0,0,0,352.53,475.48Z"/><path class="cls-3" d="M361,479.5a13,13,0,0,1,.7-4,5.06,5.06,0,0,1,1.64-2.29,3.93,3.93,0,0,1,2.6-.71,4.17,4.17,0,0,1,2,.55,3.8,3.8,0,0,1,1.35,1.38,7.17,7.17,0,0,1,.79,2.14,14,14,0,0,1,.16,3.36,12.7,12.7,0,0,1-.69,4,5,5,0,0,1-1.64,2.3,3.91,3.91,0,0,1-2.6.71,3.85,3.85,0,0,1-3.15-1.61Q360.84,483.5,361,479.5Zm1.79.08c-.11,2.33.09,3.88.6,4.67a2.33,2.33,0,0,0,4,.18q.85-1.12,1-4.59c.1-2.33-.1-3.89-.61-4.68a2.4,2.4,0,0,0-2-1.24,2.26,2.26,0,0,0-2,.93C363.28,475.69,362.91,477.26,362.81,479.58Z"/><path class="cls-3" d="M380.79,491.55a17.46,17.46,0,0,1-2.24-4.35,13.4,13.4,0,0,1,.18-9.45,18.51,18.51,0,0,1,2.9-4.74l1.24.06c-.83,1.3-1.39,2.23-1.67,2.79a16.15,16.15,0,0,0-1.05,2.74,16.47,16.47,0,0,0-.58,3.61,17.39,17.39,0,0,0,2.47,9.4Z"/><path class="cls-3" d="M390.3,487.81l-1.74-.07.5-11.07a8.78,8.78,0,0,1-1.7,1.13,12,12,0,0,1-1.86.81l.07-1.68a10.52,10.52,0,0,0,2.62-1.54,6.48,6.48,0,0,0,1.63-1.82l1.12.05Z"/><path class="cls-3" d="M403.94,486.76l-.08,1.67-9.34-.42a2.91,2.91,0,0,1,.26-1.2A6.42,6.42,0,0,1,396,485a18.23,18.23,0,0,1,2.37-2,19.34,19.34,0,0,0,3.25-2.85,3.57,3.57,0,0,0,.91-2,2.35,2.35,0,0,0-.66-1.78,2.66,2.66,0,0,0-1.9-.79,2.72,2.72,0,0,0-2,.66,2.84,2.84,0,0,0-.85,2.05l-1.78-.26a4.46,4.46,0,0,1,1.52-3,4.72,4.72,0,0,1,3.26-.9,4.47,4.47,0,0,1,3.17,1.28,3.7,3.7,0,0,1,1.06,2.85,4.42,4.42,0,0,1-.42,1.65,6.8,6.8,0,0,1-1.23,1.68,30,30,0,0,1-2.79,2.36c-1.08.83-1.78,1.39-2.09,1.69a5.82,5.82,0,0,0-.78.91Z"/><path class="cls-3" d="M406.7,479.41l-.36-2.72.11-2.31,2,.09-.1,2.31-.56,2.68Zm3.2.14-.36-2.71.11-2.32,2,.09-.11,2.32-.58,2.67Z"/><path class="cls-3" d="M414.16,493.06l-1.24-.06a17.42,17.42,0,0,0,3.3-9.13,15.73,15.73,0,0,0-.25-3.62,15.93,15.93,0,0,0-.79-2.82,31.47,31.47,0,0,0-1.42-3l1.24,0a18.19,18.19,0,0,1,2.46,5,12.88,12.88,0,0,1,.55,4.43,13.18,13.18,0,0,1-1.23,5A17.67,17.67,0,0,1,414.16,493.06Z"/><g class="cls-4"><path class="cls-3" d="M80.34,795.93,69.87,786.4l4.23-4.64a8.37,8.37,0,0,1,2.22-1.87,3.18,3.18,0,0,1,2.05-.26,4.07,4.07,0,0,1,2,1,3.59,3.59,0,0,1,1.23,2.43,4.91,4.91,0,0,1-1.06,3.11,5.4,5.4,0,0,1,1.28-.36,10.35,10.35,0,0,1,2.44.12l4.51.77-1.59,1.74-3.44-.59c-1-.17-1.78-.27-2.35-.31a4.2,4.2,0,0,0-1.34.06,2.75,2.75,0,0,0-.85.38,5.26,5.26,0,0,0-.75.73L77,790.31l4.65,4.23Zm-4.59-6.71,2.71-3a6,6,0,0,0,1.16-1.66,2.17,2.17,0,0,0,.11-1.39,2.33,2.33,0,0,0-.69-1.13,2.09,2.09,0,0,0-1.71-.57,3.43,3.43,0,0,0-2,1.27l-3,3.31Z"/></g><path class="cls-3" d="M93.86,781.07l-1.17,1.28L84.5,774.9a9.25,9.25,0,0,1-.22,2,12,12,0,0,1-.57,2l-1.24-1.13a10.42,10.42,0,0,0,.48-3,6.5,6.5,0,0,0-.36-2.42l.76-.83Z"/><path class="cls-3" d="M97.51,777.06,96,775.72l1.33-1.46,1.47,1.33Z"/><path class="cls-3" d="M97.81,771.22l1.11-1.46a3.31,3.31,0,0,0,2.12.66,2.59,2.59,0,0,0,1.69-.87,2.75,2.75,0,0,0,.73-2.21,3.54,3.54,0,0,0-1.27-2.33,3.19,3.19,0,0,0-2.3-1,2.85,2.85,0,0,0-2.1,1,2.93,2.93,0,0,0-.74,1.37,2.88,2.88,0,0,0,0,1.46L95.81,769l-4.45-5.91,4.73-5.2L97.32,759l-3.8,4.17,2.3,3.13A4.57,4.57,0,0,1,97,763.71a4.24,4.24,0,0,1,3.06-1.45,4.53,4.53,0,0,1,3.3,1.28,5.19,5.19,0,0,1,1.7,3.06,4.47,4.47,0,0,1-1.23,3.91,4.56,4.56,0,0,1-2.92,1.6A4.23,4.23,0,0,1,97.81,771.22Z"/><path class="cls-3" d="M105.7,763.19l1-1.34a3,3,0,0,0,1.81.55,2.26,2.26,0,0,0,1.43-.78,2.64,2.64,0,0,0,.67-1.29,3,3,0,0,0-.06-1.39,5.82,5.82,0,0,0-.79-1.59,8.27,8.27,0,0,0-1.39-1.62l-.26-.23a4.05,4.05,0,0,1,0,2,3.86,3.86,0,0,1-.93,1.79,3.91,3.91,0,0,1-2.94,1.34,4.64,4.64,0,0,1-3.31-1.36A4.77,4.77,0,0,1,99.26,756a4.25,4.25,0,0,1,1.17-3.23,4.48,4.48,0,0,1,2.25-1.37,4.62,4.62,0,0,1,2.74.14,10.33,10.33,0,0,1,3.34,2.24,13,13,0,0,1,2.8,3.34,5,5,0,0,1,.63,2.95,4.55,4.55,0,0,1-1.21,2.58,3.74,3.74,0,0,1-5.28.58Zm.17-9.47a3.4,3.4,0,0,0-2.29-1,2.48,2.48,0,0,0-1.94.83,2.65,2.65,0,0,0-.66,2.13,3.47,3.47,0,0,0,1.24,2.28,3,3,0,0,0,2.17.88,2.72,2.72,0,0,0,2-.92,2.59,2.59,0,0,0,.71-2A3.33,3.33,0,0,0,105.87,753.72Z"/><path class="cls-3" d="M124.68,753.37a16.93,16.93,0,0,1-4.78-1.06,13.13,13.13,0,0,1-4.39-2.65,13,13,0,0,1-2.76-3.52,18.54,18.54,0,0,1-1.79-5.25l.84-.93a31.14,31.14,0,0,0,1.08,3.08,15.64,15.64,0,0,0,1.43,2.55,15.84,15.84,0,0,0,2.41,2.75,17.27,17.27,0,0,0,8.8,4.11Z"/><path class="cls-3" d="M127.88,743.67,126.71,745l-8.19-7.46a8.75,8.75,0,0,1-.22,2,11.36,11.36,0,0,1-.57,2l-1.24-1.14a10.34,10.34,0,0,0,.49-3,6.44,6.44,0,0,0-.36-2.41l.75-.83Z"/><path class="cls-3" d="M130.5,741.15l-8.06-12.88.93-1,8.07,12.88Z"/><path class="cls-3" d="M139,731.48l-1.17,1.29-8.19-7.46a9.39,9.39,0,0,1-.22,2,11,11,0,0,1-.57,1.95l-1.24-1.13a10.34,10.34,0,0,0,.49-3,6.71,6.71,0,0,0-.36-2.42l.75-.82Z"/><path class="cls-3" d="M140.14,714.33l-1.07,1.37a3.21,3.21,0,0,0-1.54-.52,2.34,2.34,0,0,0-1.72.79,2.44,2.44,0,0,0-.64,1.39,3.94,3.94,0,0,0,.43,2.13,9.13,9.13,0,0,0,2.09,2.57,4,4,0,0,1,0-2.09,4.08,4.08,0,0,1,.94-1.72,3.94,3.94,0,0,1,2.93-1.33,4.58,4.58,0,0,1,3.27,1.32,5.52,5.52,0,0,1,1.45,2.09,4.16,4.16,0,0,1-.85,4.44,4.45,4.45,0,0,1-3.57,1.55c-1.4,0-3-.89-4.82-2.53q-3-2.76-3.39-5.14a4.32,4.32,0,0,1,1.2-3.72,3.78,3.78,0,0,1,5.31-.6Zm-.27,9.35a4.19,4.19,0,0,0,1.53.88,2.88,2.88,0,0,0,1.64.05,2.67,2.67,0,0,0,1.29-.78,2.46,2.46,0,0,0,.62-2,3.52,3.52,0,0,0-1.25-2.21,3.27,3.27,0,0,0-2.24-1,2.56,2.56,0,0,0-2,.89,2.66,2.66,0,0,0-.72,2A3,3,0,0,0,139.87,723.68Z"/><path class="cls-3" d="M143,713.49,140.68,712,139,710.47l1.33-1.46,1.72,1.56,1.7,2.13Zm2.15-2.37-2.31-1.46-1.71-1.56,1.33-1.46,1.71,1.56,1.68,2.15Z"/><path class="cls-3" d="M158.26,716.47l-.83.92a17.47,17.47,0,0,0-4.92-8.38,15.83,15.83,0,0,0-2.95-2.11,15.17,15.17,0,0,0-2.67-1.2c-.6-.2-1.66-.47-3.19-.8l.84-.92a18.42,18.42,0,0,1,5.41,1.29,13.3,13.3,0,0,1,6.81,6.55A17.46,17.46,0,0,1,158.26,716.47Z"/><path class="cls-3" d="M247.28,696.87l.12-14.15,6.27,0a8.32,8.32,0,0,1,2.87.4,3.14,3.14,0,0,1,1.57,1.36,4,4,0,0,1,.57,2.14,3.55,3.55,0,0,1-1,2.53,5,5,0,0,1-3,1.29,4.84,4.84,0,0,1,1.12.71,9.43,9.43,0,0,1,1.54,1.9l2.43,3.87-2.35,0-1.85-3c-.54-.85-1-1.51-1.34-2a4.2,4.2,0,0,0-.94-.95,2.59,2.59,0,0,0-.85-.39,6,6,0,0,0-1-.07l-2.17,0-.05,6.28Zm1.94-7.89,4,0a6,6,0,0,0,2-.25,2.07,2.07,0,0,0,1.11-.84,2.32,2.32,0,0,0,.39-1.27A2.08,2.08,0,0,0,256,685a3.36,3.36,0,0,0-2.29-.67l-4.48,0Z"/><path class="cls-3" d="M267.37,697h-1.74l.09-11.08a9,9,0,0,1-1.65,1.19,11.93,11.93,0,0,1-1.84.88v-1.68a10.21,10.21,0,0,0,2.56-1.64,6.23,6.23,0,0,0,1.56-1.88h1.12Z"/><path class="cls-3" d="M272.79,697.08l0-2h2v2Z"/><path class="cls-3" d="M277.34,693.4l1.83-.13a3.32,3.32,0,0,0,.92,2,2.54,2.54,0,0,0,1.78.68A2.74,2.74,0,0,0,284,695a3.58,3.58,0,0,0,.89-2.5,3.21,3.21,0,0,0-.82-2.35,3.19,3.19,0,0,0-3.69-.51,3,3,0,0,0-1.08,1l-1.63-.23,1.43-7.25,7,.05v1.66l-5.65,0-.79,3.8a4.55,4.55,0,0,1,2.68-.87,4.22,4.22,0,0,1,3.12,1.31,4.48,4.48,0,0,1,1.24,3.31,5.17,5.17,0,0,1-1.14,3.31,4.49,4.49,0,0,1-3.73,1.69,4.58,4.58,0,0,1-3.15-1.11A4.24,4.24,0,0,1,277.34,693.4Z"/><path class="cls-3" d="M288.59,693.93l1.67-.14a2.86,2.86,0,0,0,.8,1.71,2.25,2.25,0,0,0,1.53.55,2.74,2.74,0,0,0,1.41-.36,3,3,0,0,0,1-1,5.88,5.88,0,0,0,.66-1.65,8.86,8.86,0,0,0,.27-2.12v-.35a4,4,0,0,1-1.44,1.34,3.92,3.92,0,0,1-2,.5,4,4,0,0,1-3-1.3,4.65,4.65,0,0,1-1.19-3.37,4.79,4.79,0,0,1,1.3-3.46,4.27,4.27,0,0,1,3.19-1.28,4.5,4.5,0,0,1,2.52.76,4.63,4.63,0,0,1,1.72,2.13,10.5,10.5,0,0,1,.56,4,12.85,12.85,0,0,1-.62,4.32,5.14,5.14,0,0,1-1.78,2.43,4.61,4.61,0,0,1-2.73.82,3.74,3.74,0,0,1-4-3.55Zm7.17-6.19a3.42,3.42,0,0,0-.78-2.38,2.47,2.47,0,0,0-1.91-.89,2.64,2.64,0,0,0-2,.93,3.48,3.48,0,0,0-.87,2.44A3,3,0,0,0,291,690a2.71,2.71,0,0,0,2,.87,2.6,2.6,0,0,0,2-.83A3.36,3.36,0,0,0,295.76,687.74Z"/><path class="cls-3" d="M308.56,701.52a17.3,17.3,0,0,1-2.4-4.26,13.28,13.28,0,0,1-1-5,13,13,0,0,1,.78-4.4,18.62,18.62,0,0,1,2.72-4.84H310c-.79,1.33-1.31,2.28-1.57,2.85a15.44,15.44,0,0,0-.95,2.78,15.93,15.93,0,0,0-.44,3.62,17.35,17.35,0,0,0,2.81,9.3Z"/><path class="cls-3" d="M317.92,697.44l-1.74,0,.09-11.07a9,9,0,0,1-1.65,1.19,12.93,12.93,0,0,1-1.84.88v-1.68a10.76,10.76,0,0,0,2.57-1.64,6.55,6.55,0,0,0,1.56-1.88H318Z"/><path class="cls-3" d="M321.55,697.71l4.22-14.6h1.39L323,697.72Z"/><path class="cls-3" d="M334.41,697.57h-1.74l.09-11.07a9,9,0,0,1-1.65,1.18,11.93,11.93,0,0,1-1.84.88v-1.68a10.46,10.46,0,0,0,2.57-1.64,6.55,6.55,0,0,0,1.56-1.88h1.12Z"/><path class="cls-3" d="M348,687l-1.73.12a3.34,3.34,0,0,0-.64-1.5,2.29,2.29,0,0,0-1.74-.75,2.34,2.34,0,0,0-1.46.45,3.91,3.91,0,0,0-1.3,1.73,8.91,8.91,0,0,0-.52,3.27,4,4,0,0,1,3.45-1.85,3.94,3.94,0,0,1,3,1.3,4.64,4.64,0,0,1,1.19,3.32,5.33,5.33,0,0,1-.59,2.47,4.16,4.16,0,0,1-1.6,1.74,4.26,4.26,0,0,1-2.28.59,4.43,4.43,0,0,1-3.53-1.63c-.9-1.07-1.35-2.83-1.33-5.27,0-2.74.55-4.72,1.57-6a4.37,4.37,0,0,1,3.57-1.59,4,4,0,0,1,2.73,1A3.93,3.93,0,0,1,348,687Zm-7.14,6a3.94,3.94,0,0,0,.36,1.72,2.88,2.88,0,0,0,1.06,1.26,2.61,2.61,0,0,0,1.43.44,2.42,2.42,0,0,0,1.9-.87,3.43,3.43,0,0,0,.81-2.41,3.25,3.25,0,0,0-.76-2.32,2.57,2.57,0,0,0-2-.86,2.72,2.72,0,0,0-2,.83A3,3,0,0,0,340.82,693Z"/><path class="cls-3" d="M350.49,688.56l-.46-2.7,0-2.31h2l0,2.32-.45,2.69Zm3.2,0-.45-2.7,0-2.32,2,0,0,2.32-.49,2.68Z"/><path class="cls-3" d="M358.46,701.93h-1.25a17.36,17.36,0,0,0,3-9.25,16.34,16.34,0,0,0-.38-3.61,14.89,14.89,0,0,0-.9-2.79,28.94,28.94,0,0,0-1.53-2.9h1.25a18.73,18.73,0,0,1,2.64,4.88,13.28,13.28,0,0,1-.33,9.44A17.68,17.68,0,0,1,358.46,701.93Z"/><g class="cls-4"><path class="cls-3" d="M459,3.71l-1.73.13a3.29,3.29,0,0,0-.66-1.49,2.32,2.32,0,0,0-1.74-.74,2.43,2.43,0,0,0-1.45.46,4,4,0,0,0-1.3,1.75,9.22,9.22,0,0,0-.49,3.27,4.08,4.08,0,0,1,1.54-1.42,4.19,4.19,0,0,1,1.9-.46,4,4,0,0,1,3,1.28,4.61,4.61,0,0,1,1.22,3.31,5.32,5.32,0,0,1-.58,2.47A4.17,4.17,0,0,1,457.13,14a4.3,4.3,0,0,1-2.27.6A4.48,4.48,0,0,1,451.31,13c-.91-1.07-1.37-2.82-1.37-5.27,0-2.74.51-4.72,1.52-6A4.36,4.36,0,0,1,455,.18a4,4,0,0,1,2.74.94A4,4,0,0,1,459,3.71Zm-7.1,6.1a4.11,4.11,0,0,0,.38,1.72,2.93,2.93,0,0,0,1.07,1.25,2.74,2.74,0,0,0,1.44.43,2.46,2.46,0,0,0,1.89-.89,3.49,3.49,0,0,0,.79-2.42,3.28,3.28,0,0,0-.78-2.31,2.58,2.58,0,0,0-2-.84,2.69,2.69,0,0,0-2,.84A3,3,0,0,0,451.94,9.81Z"/><path class="cls-3" d="M461,10.69l1.82-.16a3.28,3.28,0,0,0,.94,2,2.55,2.55,0,0,0,1.78.68,2.79,2.79,0,0,0,2.13-1,3.57,3.57,0,0,0,.87-2.51,3.23,3.23,0,0,0-.84-2.35,3.18,3.18,0,0,0-3.7-.47,2.87,2.87,0,0,0-1.06,1l-1.63-.21L462.7.43h7V2.09h-5.64l-.77,3.81A4.63,4.63,0,0,1,466,5a4.23,4.23,0,0,1,3.12,1.28,4.5,4.5,0,0,1,1.28,3.3,5.16,5.16,0,0,1-1.12,3.33,4.5,4.5,0,0,1-3.72,1.71,4.58,4.58,0,0,1-3.15-1.08A4.19,4.19,0,0,1,461,10.69Z"/><path class="cls-3" d="M473,14.39v-2h2v2Z"/><path class="cls-3" d="M477.5,7.41a13.08,13.08,0,0,1,.52-4A5.1,5.1,0,0,1,479.56,1a3.94,3.94,0,0,1,2.56-.83,4.16,4.16,0,0,1,2,.46A4,4,0,0,1,485.54,2a7.44,7.44,0,0,1,.88,2.11,14.11,14.11,0,0,1,.31,3.34,13,13,0,0,1-.51,4,5,5,0,0,1-1.53,2.37,3.89,3.89,0,0,1-2.57.83,3.85,3.85,0,0,1-3.21-1.46Q477.5,11.4,477.5,7.41Zm1.79,0c0,2.33.27,3.87.82,4.64a2.32,2.32,0,0,0,4,0c.55-.78.82-2.32.82-4.64s-.27-3.87-.82-4.64a2.41,2.41,0,0,0-2-1.15,2.24,2.24,0,0,0-1.91,1C479.59,3.5,479.29,5.09,479.29,7.41Z"/><path class="cls-3" d="M488.76,11.12l1.67-.15a2.86,2.86,0,0,0,.81,1.7,2.21,2.21,0,0,0,1.54.54,2.68,2.68,0,0,0,1.4-.37,3.09,3.09,0,0,0,1-1,5.85,5.85,0,0,0,.65-1.66,8.85,8.85,0,0,0,.26-2.12c0-.08,0-.19,0-.35a4.09,4.09,0,0,1-1.42,1.35,4.08,4.08,0,0,1-4.93-.76A4.67,4.67,0,0,1,488.5,5a4.79,4.79,0,0,1,1.27-3.47A4.27,4.27,0,0,1,493,.18a4.54,4.54,0,0,1,2.53.75A4.59,4.59,0,0,1,497.21,3a10.38,10.38,0,0,1,.6,4,13,13,0,0,1-.59,4.32,5.06,5.06,0,0,1-1.75,2.44,4.56,4.56,0,0,1-2.73.84,3.74,3.74,0,0,1-4-3.51Zm7.12-6.25a3.4,3.4,0,0,0-.8-2.37,2.48,2.48,0,0,0-1.92-.88,2.64,2.64,0,0,0-2,.95A3.46,3.46,0,0,0,490.29,5a3,3,0,0,0,.81,2.19,2.69,2.69,0,0,0,2,.85,2.56,2.56,0,0,0,2-.85A3.31,3.31,0,0,0,495.88,4.87Z"/><path class="cls-3" d="M508.79,18.55a17.22,17.22,0,0,1-2.43-4.24,13.31,13.31,0,0,1-1-5,13,13,0,0,1,.74-4.41A18.52,18.52,0,0,1,508.79,0H510c-.78,1.34-1.29,2.29-1.55,2.87a15.1,15.1,0,0,0-.92,2.78,15.92,15.92,0,0,0-.42,3.63A17.37,17.37,0,0,0,510,18.55Z"/><path class="cls-3" d="M520.71,12.72v1.67h-9.36a3.22,3.22,0,0,1,.2-1.2,6.36,6.36,0,0,1,1.15-1.89A18.13,18.13,0,0,1,515,9.16a19,19,0,0,0,3.12-3,3.57,3.57,0,0,0,.81-2.09,2.32,2.32,0,0,0-.74-1.74,2.66,2.66,0,0,0-1.92-.71,2.72,2.72,0,0,0-2,.75,2.85,2.85,0,0,0-.76,2.09l-1.79-.18a4.38,4.38,0,0,1,1.38-3.05,4.71,4.71,0,0,1,3.22-1,4.5,4.5,0,0,1,3.22,1.13,3.72,3.72,0,0,1,1.19,2.8,4.28,4.28,0,0,1-.35,1.67,6.64,6.64,0,0,1-1.15,1.73A31.1,31.1,0,0,1,516.51,10c-1,.88-1.72,1.47-2,1.78a6.08,6.08,0,0,0-.74.94Z"/><path class="cls-3" d="M528.32,11.12,530,11a2.92,2.92,0,0,0,.81,1.7,2.21,2.21,0,0,0,1.54.54,2.68,2.68,0,0,0,1.4-.37,2.9,2.9,0,0,0,1-1,5.57,5.57,0,0,0,.65-1.66,8.85,8.85,0,0,0,.26-2.12c0-.08,0-.19,0-.35a4.09,4.09,0,0,1-1.42,1.35,4.08,4.08,0,0,1-4.93-.76A4.67,4.67,0,0,1,528.06,5a4.83,4.83,0,0,1,1.27-3.47A4.27,4.27,0,0,1,532.51.18,4.52,4.52,0,0,1,535,.93,4.67,4.67,0,0,1,536.78,3a10.61,10.61,0,0,1,.59,4,13,13,0,0,1-.59,4.32A5.06,5.06,0,0,1,535,13.79a4.56,4.56,0,0,1-2.73.84,3.74,3.74,0,0,1-4-3.51Zm7.12-6.25a3.4,3.4,0,0,0-.8-2.37,2.48,2.48,0,0,0-1.91-.88,2.64,2.64,0,0,0-2,.95A3.46,3.46,0,0,0,529.85,5a3,3,0,0,0,.81,2.19,2.69,2.69,0,0,0,2,.85,2.56,2.56,0,0,0,2-.85A3.31,3.31,0,0,0,535.44,4.87Z"/><path class="cls-3" d="M538.24,14.63,542.34,0h1.39l-4.09,14.63Z"/><path class="cls-3" d="M551.1,14.39h-1.74V3.32a9,9,0,0,1-1.65,1.2,11.59,11.59,0,0,1-1.83.89V3.73a10,10,0,0,0,2.55-1.66A6.65,6.65,0,0,0,550,.18h1.12Z"/><path class="cls-3" d="M564.57,3.71l-1.73.13a3.4,3.4,0,0,0-.66-1.49,2.32,2.32,0,0,0-1.74-.74,2.41,2.41,0,0,0-1.45.46,4,4,0,0,0-1.3,1.75,9.22,9.22,0,0,0-.49,3.27,4.13,4.13,0,0,1,1.53-1.42,4.27,4.27,0,0,1,1.91-.46,3.94,3.94,0,0,1,3,1.28,4.58,4.58,0,0,1,1.23,3.31,5.44,5.44,0,0,1-.58,2.47A4.17,4.17,0,0,1,562.66,14a4.36,4.36,0,0,1-2.28.6A4.48,4.48,0,0,1,556.84,13c-.91-1.07-1.37-2.82-1.37-5.27,0-2.74.51-4.72,1.52-6A4.36,4.36,0,0,1,560.55.18a4,4,0,0,1,2.74.94A4,4,0,0,1,564.57,3.71Zm-7.1,6.1a4.11,4.11,0,0,0,.38,1.72,2.86,2.86,0,0,0,1.07,1.25,2.69,2.69,0,0,0,1.44.43,2.46,2.46,0,0,0,1.89-.89A3.49,3.49,0,0,0,563,9.9a3.28,3.28,0,0,0-.78-2.31,2.58,2.58,0,0,0-2-.84,2.69,2.69,0,0,0-2,.84A3,3,0,0,0,557.47,9.81Z"/><path class="cls-3" d="M567.11,5.25l-.48-2.69V.24h2V2.56l-.44,2.69Zm3.2,0-.48-2.69V.24h2V2.56l-.46,2.69Z"/><path class="cls-3" d="M575.11,18.55h-1.24a17.44,17.44,0,0,0,2.88-9.27,15.8,15.8,0,0,0-.41-3.61,15.62,15.62,0,0,0-.92-2.78c-.25-.57-.77-1.54-1.55-2.89h1.24a18.57,18.57,0,0,1,2.69,4.86,13.3,13.3,0,0,1,.74,4.41,13.13,13.13,0,0,1-1,5A17.22,17.22,0,0,1,575.11,18.55Z"/></g><path class="cls-3" d="M546.76,161.43l7.41-12.06,5.35,3.29a8.29,8.29,0,0,1,2.25,1.84,3.18,3.18,0,0,1,.63,2,4,4,0,0,1-.61,2.12,3.53,3.53,0,0,1-2.17,1.65,4.85,4.85,0,0,1-3.25-.46A4.51,4.51,0,0,1,557,161a9.28,9.28,0,0,1,.34,2.41l.08,4.57-2-1.23,0-3.49c0-1-.06-1.8-.13-2.37a4.49,4.49,0,0,0-.31-1.3,2.92,2.92,0,0,0-.53-.77,6.24,6.24,0,0,0-.85-.61l-1.86-1.13-3.29,5.35Zm5.73-5.76,3.43,2.11a6,6,0,0,0,1.85.83,2.13,2.13,0,0,0,1.38-.15,2.28,2.28,0,0,0,1-.88,2.11,2.11,0,0,0,.24-1.79,3.36,3.36,0,0,0-1.62-1.76L555,151.69Z"/><path class="cls-3" d="M563.85,172l-1.48-.91,5.81-9.43a9.44,9.44,0,0,1-2,.16,11.31,11.31,0,0,1-2-.2l.88-1.43a10.23,10.23,0,0,0,3-.08,6.37,6.37,0,0,0,2.31-.8l.95.59Z"/><path class="cls-3" d="M568.47,174.81l1-1.68,1.68,1-1,1.68Z"/><path class="cls-3" d="M574.26,174l1.64.82a3.25,3.25,0,0,0-.25,2.2,2.56,2.56,0,0,0,1.16,1.51,2.79,2.79,0,0,0,2.31.3,3.52,3.52,0,0,0,2-1.68,3.18,3.18,0,0,0,.52-2.43,2.89,2.89,0,0,0-1.41-1.88,3,3,0,0,0-1.49-.47,2.92,2.92,0,0,0-1.42.28l-1.28-1,5-5.47,6,3.68-.87,1.42-4.81-3-2.64,2.84a4.58,4.58,0,0,1,2.74.64,4.23,4.23,0,0,1,2,2.74,4.49,4.49,0,0,1-.64,3.48,5.21,5.21,0,0,1-2.7,2.24,4.48,4.48,0,0,1-4.07-.49A4.55,4.55,0,0,1,574,177.2,4.21,4.21,0,0,1,574.26,174Z"/><path class="cls-3" d="M583.62,180.29l1.5.75a2.86,2.86,0,0,0-.2,1.88,2.15,2.15,0,0,0,1,1.25,2.69,2.69,0,0,0,1.38.43,3,3,0,0,0,1.36-.32,5.72,5.72,0,0,0,1.42-1.07,8.57,8.57,0,0,0,1.33-1.67l.18-.3a4,4,0,0,1-1.92.4,3.86,3.86,0,0,1-1.94-.59,3.94,3.94,0,0,1-1.86-2.64,4.63,4.63,0,0,1,.72-3.5,4.84,4.84,0,0,1,2.9-2.29,4.29,4.29,0,0,1,3.4.55,4.63,4.63,0,0,1,1.76,2,4.68,4.68,0,0,1,.37,2.72,10.62,10.62,0,0,1-1.58,3.7,12.91,12.91,0,0,1-2.77,3.37,5,5,0,0,1-2.77,1.16,4.52,4.52,0,0,1-2.77-.71,4,4,0,0,1-1.82-2.21A3.91,3.91,0,0,1,583.62,180.29ZM593,178.7a3.44,3.44,0,0,0,.57-2.44,2.53,2.53,0,0,0-1.17-1.75,2.63,2.63,0,0,0-2.22-.25,3.47,3.47,0,0,0-2,1.64,3,3,0,0,0-.46,2.29,2.69,2.69,0,0,0,1.27,1.78,2.57,2.57,0,0,0,2.13.32A3.32,3.32,0,0,0,593,178.7Z"/><path class="cls-3" d="M596.78,197.13a17.35,17.35,0,0,1,.16-4.9,13.31,13.31,0,0,1,4.73-8.17,18.59,18.59,0,0,1,4.84-2.74l1.06.66a30.69,30.69,0,0,0-2.82,1.63,16,16,0,0,0-2.25,1.88,16.26,16.26,0,0,0-2.25,2.87,17.38,17.38,0,0,0-2.41,9.42Z"/><path class="cls-3" d="M606.91,198.47l-1.49-.91,5.81-9.43a9.38,9.38,0,0,1-2,.16,11.41,11.41,0,0,1-2-.2l.88-1.43a10.58,10.58,0,0,0,3-.08,6.56,6.56,0,0,0,2.31-.8l1,.59Z"/><path class="cls-3" d="M609.87,200.58,621,190.26l1.19.73-11.16,10.32Z"/><path class="cls-3" d="M621,207.11l-1.48-.91,5.8-9.43a9.38,9.38,0,0,1-2,.16,11.41,11.41,0,0,1-2-.2l.88-1.43a10.23,10.23,0,0,0,3-.08,6.37,6.37,0,0,0,2.31-.8l1,.59Z"/><path class="cls-3" d="M638,205.07l-1.54-.79a3.23,3.23,0,0,0,.22-1.61,2.29,2.29,0,0,0-1.09-1.55,2.4,2.4,0,0,0-1.48-.37,4.08,4.08,0,0,0-2,.81,9.11,9.11,0,0,0-2.13,2.53,4,4,0,0,1,2-.4,4,4,0,0,1,1.86.6,4,4,0,0,1,1.85,2.64,4.62,4.62,0,0,1-.69,3.46,5.5,5.5,0,0,1-1.79,1.8,4.24,4.24,0,0,1-2.26.67,4.29,4.29,0,0,1-2.26-.68,4.43,4.43,0,0,1-2.18-3.22c-.22-1.38.31-3.12,1.59-5.2,1.43-2.33,2.91-3.76,4.42-4.29a4.38,4.38,0,0,1,3.88.49,3.79,3.79,0,0,1,1.57,5.11Zm-9.23,1.47a4,4,0,0,0-.58,1.67,2.82,2.82,0,0,0,.25,1.62,2.66,2.66,0,0,0,1,1.12,2.51,2.51,0,0,0,2.08.24,3.52,3.52,0,0,0,1.94-1.64,3.28,3.28,0,0,0,.54-2.38,2.52,2.52,0,0,0-1.23-1.75,2.63,2.63,0,0,0-2.15-.33A3,3,0,0,0,628.78,206.54Z"/><path class="cls-3" d="M639.37,207.72l1-2.55,1.22-2,1.68,1-1.21,2-1.78,2.06Zm2.72,1.67,1-2.54,1.22-2,1.68,1-1.21,2L643,209.94Z"/><path class="cls-3" d="M639.27,223.28l-1.06-.66a17.49,17.49,0,0,0,7.33-6.38,16.16,16.16,0,0,0,1.53-3.29,15.11,15.11,0,0,0,.67-2.85,32.09,32.09,0,0,0,.2-3.28l1.06.65a18.62,18.62,0,0,1-.27,5.55,13.28,13.28,0,0,1-5.16,7.91A18.08,18.08,0,0,1,639.27,223.28Z"/><path class="cls-3" d="M443.83,767.38h-1.74V756.31a8.6,8.6,0,0,1-1.64,1.19,11.73,11.73,0,0,1-1.83.9v-1.68a10.68,10.68,0,0,0,2.55-1.66,6.6,6.6,0,0,0,1.54-1.89h1.12Z"/><path class="cls-3" d="M448.29,763.64l1.74-.23a3.8,3.8,0,0,0,1,2.13,2.48,2.48,0,0,0,1.75.65,2.78,2.78,0,0,0,2.07-.85,2.86,2.86,0,0,0,.85-2.1,2.65,2.65,0,0,0-.79-2,2.71,2.71,0,0,0-2-.77,4.93,4.93,0,0,0-1.23.19l.19-1.53a1.58,1.58,0,0,0,.28,0,3.55,3.55,0,0,0,2-.58,2,2,0,0,0,.89-1.78,2.1,2.1,0,0,0-.65-1.58,2.29,2.29,0,0,0-1.67-.63,2.36,2.36,0,0,0-1.69.64,3.19,3.19,0,0,0-.87,1.91l-1.73-.31a4.45,4.45,0,0,1,1.44-2.71,4.2,4.2,0,0,1,2.81-1,4.53,4.53,0,0,1,2.14.5,3.62,3.62,0,0,1,1.49,1.35,3.55,3.55,0,0,1,.52,1.83,3,3,0,0,1-.5,1.67,1.29,1.29,0,1,0,.5,2.4,3.66,3.66,0,0,1,.69,2.28,4.17,4.17,0,0,1-1.35,3.14,4.75,4.75,0,0,1-3.42,1.29,4.44,4.44,0,0,1-3.09-1.11A4.32,4.32,0,0,1,448.29,763.64Z"/><path class="cls-3" d="M465.82,767.38h-1.73V756.31a9,9,0,0,1-1.65,1.19,11.73,11.73,0,0,1-1.83.9v-1.68a10.68,10.68,0,0,0,2.55-1.66,6.43,6.43,0,0,0,1.54-1.89h1.12Z"/><path class="cls-3" d="M471.25,767.38v-2h2v2Z"/><path class="cls-3" d="M475.88,755.08v-1.67H485v1.35a19.43,19.43,0,0,0-2.67,3.82,23.48,23.48,0,0,0-2.06,4.91,18.24,18.24,0,0,0-.66,3.89h-1.79a17.41,17.41,0,0,1,.66-4,21.63,21.63,0,0,1,1.8-4.56,19.52,19.52,0,0,1,2.49-3.7Z"/><path class="cls-3" d="M495.78,756.69l-1.73.14a3.29,3.29,0,0,0-.65-1.49,2.32,2.32,0,0,0-1.74-.74,2.38,2.38,0,0,0-1.46.46,3.88,3.88,0,0,0-1.29,1.75,9.19,9.19,0,0,0-.5,3.27,4,4,0,0,1,1.54-1.42,4.1,4.1,0,0,1,1.9-.46,3.91,3.91,0,0,1,3,1.28,4.59,4.59,0,0,1,1.22,3.3,5.48,5.48,0,0,1-.57,2.48,4.21,4.21,0,0,1-1.58,1.75,4.28,4.28,0,0,1-2.28.61,4.43,4.43,0,0,1-3.54-1.6c-.92-1.06-1.37-2.82-1.37-5.26q0-4.11,1.51-6a4.36,4.36,0,0,1,3.56-1.62,3.8,3.8,0,0,1,4,3.52Zm-7.1,6.1a3.94,3.94,0,0,0,.39,1.72,2.73,2.73,0,0,0,1.06,1.25,2.66,2.66,0,0,0,1.44.43,2.43,2.43,0,0,0,1.89-.89,3.47,3.47,0,0,0,.79-2.41,3.26,3.26,0,0,0-.78-2.31,2.59,2.59,0,0,0-2-.85,2.71,2.71,0,0,0-2,.85A3.06,3.06,0,0,0,488.68,762.79Z"/><path class="cls-3" d="M507.06,771.54a17.45,17.45,0,0,1-2.44-4.25,13.38,13.38,0,0,1-.25-9.44,18.42,18.42,0,0,1,2.69-4.86h1.24a31.6,31.6,0,0,0-1.54,2.86,14.88,14.88,0,0,0-.93,2.78,16,16,0,0,0-.41,3.63,17.45,17.45,0,0,0,2.88,9.28Z"/><path class="cls-3" d="M509.84,763.67l1.82-.15a3.3,3.3,0,0,0,.94,2,2.54,2.54,0,0,0,1.78.67,2.78,2.78,0,0,0,2.13-.94,3.57,3.57,0,0,0,.87-2.51,3.22,3.22,0,0,0-.84-2.35,2.94,2.94,0,0,0-2.19-.86,3.05,3.05,0,0,0-1.51.38,3,3,0,0,0-1.06,1l-1.63-.21,1.37-7.27h7v1.66h-5.64l-.77,3.8a4.61,4.61,0,0,1,2.68-.88,4.23,4.23,0,0,1,3.13,1.28,4.53,4.53,0,0,1,1.27,3.3,5.13,5.13,0,0,1-1.12,3.32,4.48,4.48,0,0,1-3.72,1.72,4.58,4.58,0,0,1-3.15-1.08A4.21,4.21,0,0,1,509.84,763.67Z"/><path class="cls-3" d="M526.33,763.64l1.74-.23a3.8,3.8,0,0,0,1,2.13,2.5,2.5,0,0,0,1.75.65,2.78,2.78,0,0,0,2.07-.85,2.82,2.82,0,0,0,.85-2.1,2.68,2.68,0,0,0-.78-2,2.74,2.74,0,0,0-2-.77,4.93,4.93,0,0,0-1.23.19l.2-1.53a1.47,1.47,0,0,0,.28,0,3.52,3.52,0,0,0,2-.58,2,2,0,0,0,.89-1.78,2.06,2.06,0,0,0-.65-1.58,2.28,2.28,0,0,0-1.67-.63,2.33,2.33,0,0,0-1.68.64,3.19,3.19,0,0,0-.87,1.91l-1.74-.31a4.41,4.41,0,0,1,1.45-2.71,4.18,4.18,0,0,1,2.81-1,4.52,4.52,0,0,1,2.13.5,3.56,3.56,0,0,1,1.49,1.35,3.46,3.46,0,0,1,.52,1.83,3.05,3.05,0,0,1-.49,1.67,1.3,1.3,0,1,0,.49,2.4,3.66,3.66,0,0,1,.69,2.28,4.17,4.17,0,0,1-1.35,3.14,4.75,4.75,0,0,1-3.42,1.29,4.44,4.44,0,0,1-3.09-1.11A4.32,4.32,0,0,1,526.33,763.64Z"/><path class="cls-3" d="M536.5,767.62,540.6,753H542l-4.09,14.63Z"/><path class="cls-3" d="M549.36,767.38h-1.74V756.31A8.94,8.94,0,0,1,546,757.5a11.73,11.73,0,0,1-1.83.9v-1.68a10.68,10.68,0,0,0,2.55-1.66,6.6,6.6,0,0,0,1.54-1.89h1.12Z"/><path class="cls-3" d="M562.83,756.69l-1.73.14a3.29,3.29,0,0,0-.66-1.49,2.32,2.32,0,0,0-1.74-.74,2.37,2.37,0,0,0-1.45.46,4,4,0,0,0-1.3,1.75,9.22,9.22,0,0,0-.49,3.27,4,4,0,0,1,1.54-1.42,4.07,4.07,0,0,1,1.9-.46,3.92,3.92,0,0,1,3,1.28,4.59,4.59,0,0,1,1.22,3.3,5.36,5.36,0,0,1-.58,2.48,4.14,4.14,0,0,1-1.58,1.75,4.22,4.22,0,0,1-2.27.61,4.46,4.46,0,0,1-3.55-1.6c-.91-1.06-1.37-2.82-1.37-5.26q0-4.11,1.52-6a4.36,4.36,0,0,1,3.56-1.62,3.8,3.8,0,0,1,4,3.52Zm-7.1,6.1a4.07,4.07,0,0,0,.38,1.72,2.81,2.81,0,0,0,1.07,1.25,2.66,2.66,0,0,0,1.44.43,2.43,2.43,0,0,0,1.89-.89,3.47,3.47,0,0,0,.79-2.41,3.26,3.26,0,0,0-.78-2.31,2.59,2.59,0,0,0-2-.85,2.7,2.7,0,0,0-2,.85A3,3,0,0,0,555.73,762.79Z"/><path class="cls-3" d="M565.38,758.24l-.49-2.7v-2.31h2v2.31l-.43,2.7Zm3.19,0-.47-2.7v-2.31h2v2.31l-.47,2.7Z"/><path class="cls-3" d="M573.35,771.54h-1.24a17.46,17.46,0,0,0,2.89-9.28,15.67,15.67,0,0,0-.42-3.6,14.86,14.86,0,0,0-.92-2.78c-.25-.58-.77-1.54-1.55-2.89h1.24a18.42,18.42,0,0,1,2.69,4.86,13.24,13.24,0,0,1,.74,4.4,13.06,13.06,0,0,1-1,5A17.11,17.11,0,0,1,573.35,771.54Z"/><path class="cls-3" d="M884.25,210.92h-3.39v6.14h-1.59l-9.17-6.46v-1.42h9.17v-1.91h1.59v1.91h3.39Zm-5,0h-6.38l6.38,4.43Z"/><path class="cls-3" d="M880.54,205.49l-.15-1.82a3.3,3.3,0,0,0,2-.94,2.57,2.57,0,0,0,.67-1.79,2.77,2.77,0,0,0-.94-2.12,3.58,3.58,0,0,0-2.51-.87,3.2,3.2,0,0,0-2.35.84,2.9,2.9,0,0,0-.86,2.18,3,3,0,0,0,1.37,2.58l-.21,1.63-7.27-1.37v-7H872v5.65l3.8.76a4.61,4.61,0,0,1-.88-2.67,4.22,4.22,0,0,1,1.28-3.13,4.48,4.48,0,0,1,3.3-1.27,5.13,5.13,0,0,1,3.32,1.12,4.45,4.45,0,0,1,1.72,3.71,4.61,4.61,0,0,1-1.08,3.16A4.21,4.21,0,0,1,880.54,205.49Z"/><path class="cls-3" d="M884.25,193.52h-2v-2h2Z"/><path class="cls-3" d="M882.58,179.87h1.67v9.35A2.94,2.94,0,0,1,883,189a6.62,6.62,0,0,1-1.88-1.14A17.61,17.61,0,0,1,879,185.6a19.69,19.69,0,0,0-3-3.11,3.63,3.63,0,0,0-2.09-.82,2.32,2.32,0,0,0-1.74.74,2.66,2.66,0,0,0-.71,1.93,2.72,2.72,0,0,0,.75,2,2.88,2.88,0,0,0,2.09.76l-.19,1.79a4.44,4.44,0,0,1-3-1.38A4.71,4.71,0,0,1,870,184.3a4.48,4.48,0,0,1,1.13-3.22,3.67,3.67,0,0,1,2.8-1.19,4.14,4.14,0,0,1,1.67.35,6.55,6.55,0,0,1,1.73,1.15,29.64,29.64,0,0,1,2.49,2.68c.87,1,1.47,1.71,1.78,2a5.56,5.56,0,0,0,.94.73Z"/><path class="cls-3" d="M884.25,172.44h-3.39v6.14h-1.59l-9.17-6.46V170.7h9.17v-1.91h1.59v1.91h3.39Zm-5,0h-6.38l6.38,4.43Z"/><path class="cls-3" d="M888.41,157.71a17.64,17.64,0,0,1-4.25,2.44,13.38,13.38,0,0,1-9.44.25,18.62,18.62,0,0,1-4.87-2.69v-1.24c1.34.78,2.3,1.29,2.87,1.54a15.65,15.65,0,0,0,2.78.93,16,16,0,0,0,3.63.41,17.45,17.45,0,0,0,9.28-2.88Z"/><path class="cls-3" d="M884.25,148.39v1.74H873.18a8.6,8.6,0,0,1,1.19,1.64,11.73,11.73,0,0,1,.9,1.83h-1.68a10.68,10.68,0,0,0-1.66-2.55,6.6,6.6,0,0,0-1.89-1.54v-1.12Z"/><path class="cls-3" d="M882.58,129.31h1.67v9.36a3.12,3.12,0,0,1-1.21-.21,6.4,6.4,0,0,1-1.88-1.14,18.1,18.1,0,0,1-2.14-2.27,19.42,19.42,0,0,0-3-3.12,3.61,3.61,0,0,0-2.09-.81,2.31,2.31,0,0,0-1.74.73,2.66,2.66,0,0,0-.71,1.93,2.72,2.72,0,0,0,.75,2,2.84,2.84,0,0,0,2.09.76l-.19,1.79a4.35,4.35,0,0,1-3-1.38,4.71,4.71,0,0,1-1.05-3.22,4.48,4.48,0,0,1,1.13-3.22,3.7,3.7,0,0,1,2.8-1.19,4.31,4.31,0,0,1,1.67.35,6.55,6.55,0,0,1,1.73,1.15,29.64,29.64,0,0,1,2.49,2.68c.87,1,1.47,1.71,1.78,2a5.56,5.56,0,0,0,.94.73Z"/><path class="cls-3" d="M880.54,127.45l-.15-1.83a3.25,3.25,0,0,0,2-.94,2.53,2.53,0,0,0,.67-1.78,2.76,2.76,0,0,0-.94-2.12,3.58,3.58,0,0,0-2.51-.87,3.24,3.24,0,0,0-2.35.83,2.94,2.94,0,0,0-.86,2.19,3,3,0,0,0,1.37,2.58l-.21,1.63-7.27-1.37v-7H872v5.65l3.8.76a4.61,4.61,0,0,1-.88-2.67,4.22,4.22,0,0,1,1.28-3.13,4.48,4.48,0,0,1,3.3-1.28,5.18,5.18,0,0,1,3.32,1.12,4.48,4.48,0,0,1,1.72,3.72,4.56,4.56,0,0,1-1.08,3.15A4.22,4.22,0,0,1,880.54,127.45Z"/><path class="cls-3" d="M884.49,117.27l-14.64-4.1v-1.39l14.64,4.09Z"/><path class="cls-3" d="M880.51,111l-.23-1.74a3.8,3.8,0,0,0,2.13-1,2.53,2.53,0,0,0,.65-1.75,2.78,2.78,0,0,0-.85-2.07,2.87,2.87,0,0,0-2.1-.84,2.68,2.68,0,0,0-2,.78,2.72,2.72,0,0,0-.77,2,4.92,4.92,0,0,0,.19,1.22l-1.53-.19a1.58,1.58,0,0,0,0-.28,3.55,3.55,0,0,0-.58-2,2,2,0,0,0-1.78-.89,2.13,2.13,0,0,0-1.59.65,2.33,2.33,0,0,0-.62,1.67,2.38,2.38,0,0,0,.63,1.69A3.25,3.25,0,0,0,874,109l-.31,1.74a4.51,4.51,0,0,1-2.71-1.45,4.2,4.2,0,0,1-1-2.81,4.59,4.59,0,0,1,.5-2.14,3.62,3.62,0,0,1,1.35-1.49,3.51,3.51,0,0,1,1.83-.51,3,3,0,0,1,1.67.49,1.3,1.3,0,1,0,2.4-.49,3.6,3.6,0,0,1,2.28-.7,4.18,4.18,0,0,1,3.14,1.35,4.75,4.75,0,0,1,1.29,3.42,4.44,4.44,0,0,1-1.11,3.09A4.28,4.28,0,0,1,880.51,111Z"/><path class="cls-3" d="M882.58,90.83h1.67v9.36A3.12,3.12,0,0,1,883,100a6.62,6.62,0,0,1-1.88-1.14A17.61,17.61,0,0,1,879,96.56a19.69,19.69,0,0,0-3-3.11,3.61,3.61,0,0,0-2.09-.81,2.31,2.31,0,0,0-1.74.73,2.66,2.66,0,0,0-.71,1.93,2.72,2.72,0,0,0,.75,2,2.88,2.88,0,0,0,2.09.76l-.19,1.79a4.44,4.44,0,0,1-3-1.38A4.71,4.71,0,0,1,870,95.26,4.48,4.48,0,0,1,871.17,92a3.7,3.7,0,0,1,2.8-1.19,4.31,4.31,0,0,1,1.67.35,6.55,6.55,0,0,1,1.73,1.15A29.64,29.64,0,0,1,879.86,95c.87,1,1.47,1.71,1.78,2a5.56,5.56,0,0,0,.94.73Z"/><path class="cls-3" d="M875.11,85.2l-2.7.48H870.1v-2h2.31l2.7.46Zm0,3.2-2.7.48H870.1v-2h2.31l2.7.44Z"/><path class="cls-3" d="M888.41,80.42v1.24a17.45,17.45,0,0,0-9.28-2.88,15.92,15.92,0,0,0-6.38,1.33c-.58.25-1.54.77-2.9,1.55V80.42a18.62,18.62,0,0,1,4.87-2.69,13.24,13.24,0,0,1,4.4-.74,13.06,13.06,0,0,1,5,1A17.62,17.62,0,0,1,888.41,80.42Z"/><path class="cls-3" d="M458.46,418.13v1.67h-9.35a3.26,3.26,0,0,1,.2-1.2,6.36,6.36,0,0,1,1.15-1.89,18.13,18.13,0,0,1,2.27-2.14,19,19,0,0,0,3.12-3,3.57,3.57,0,0,0,.81-2.09,2.32,2.32,0,0,0-.74-1.74A2.66,2.66,0,0,0,454,407a2.72,2.72,0,0,0-2,.75,2.9,2.9,0,0,0-.77,2.09l-1.78-.18a4.38,4.38,0,0,1,1.38-3.05,4.7,4.7,0,0,1,3.21-1.05,4.51,4.51,0,0,1,3.23,1.13,3.73,3.73,0,0,1,1.19,2.8,4.24,4.24,0,0,1-.35,1.67,6.3,6.3,0,0,1-1.16,1.73,26.61,26.61,0,0,1-2.67,2.49c-1,.88-1.72,1.47-2,1.78a6.08,6.08,0,0,0-.74.94Z"/><path class="cls-3" d="M460.34,416.07l1.74-.23a3.86,3.86,0,0,0,1,2.12,2.52,2.52,0,0,0,1.76.66,2.85,2.85,0,0,0,2.07-.85,2.89,2.89,0,0,0,.84-2.11,2.66,2.66,0,0,0-.78-2,2.69,2.69,0,0,0-2-.78,5.29,5.29,0,0,0-1.22.19l.19-1.52.28,0a3.65,3.65,0,0,0,2-.58,2,2,0,0,0,.88-1.79,2.12,2.12,0,0,0-.64-1.58,2.29,2.29,0,0,0-1.67-.63,2.34,2.34,0,0,0-1.69.64,3.19,3.19,0,0,0-.87,1.91l-1.74-.31a4.49,4.49,0,0,1,1.45-2.71,4.18,4.18,0,0,1,2.81-1,4.64,4.64,0,0,1,2.13.5,3.52,3.52,0,0,1,1.49,1.36,3.42,3.42,0,0,1,.52,1.82,3,3,0,0,1-.49,1.67,3.45,3.45,0,0,1-1.46,1.2,3.24,3.24,0,0,1,2,1.2,3.68,3.68,0,0,1,.7,2.28,4.16,4.16,0,0,1-1.36,3.15,4.78,4.78,0,0,1-3.41,1.28,4.45,4.45,0,0,1-3.1-1.11A4.24,4.24,0,0,1,460.34,416.07Z"/><path class="cls-3" d="M472.3,419.8v-2h2v2Z"/><path class="cls-3" d="M479.49,412.13a3.25,3.25,0,0,1-1.6-1.13,3,3,0,0,1-.52-1.76,3.42,3.42,0,0,1,1.11-2.59,4.07,4.07,0,0,1,2.95-1.06,4.16,4.16,0,0,1,3,1.08,3.49,3.49,0,0,1,1.12,2.62A2.88,2.88,0,0,1,485,411a3.25,3.25,0,0,1-1.57,1.13,3.76,3.76,0,0,1,2,1.37,3.71,3.71,0,0,1,.68,2.26,4,4,0,0,1-1.28,3.05,5.24,5.24,0,0,1-6.76,0,4.12,4.12,0,0,1-1.28-3.09,3.71,3.71,0,0,1,.7-2.31A3.46,3.46,0,0,1,479.49,412.13Zm-.91,3.59a3.07,3.07,0,0,0,.36,1.44,2.52,2.52,0,0,0,1,1.08,3.15,3.15,0,0,0,1.5.38,2.83,2.83,0,0,0,2.06-.8,3,3,0,0,0,0-4.12,2.87,2.87,0,0,0-2.09-.82,2.77,2.77,0,0,0-2.84,2.84Zm.56-6.54a2.24,2.24,0,0,0,.65,1.65,2.3,2.3,0,0,0,1.68.63,2.26,2.26,0,0,0,1.65-.63,2.12,2.12,0,0,0,.64-1.55,2.18,2.18,0,0,0-.66-1.61,2.43,2.43,0,0,0-3.3,0A2,2,0,0,0,479.14,409.18Z"/><path class="cls-3" d="M494.36,419.8h-1.74V408.73a9,9,0,0,1-1.65,1.2,11.67,11.67,0,0,1-1.82.9v-1.68a10.42,10.42,0,0,0,2.54-1.66,6.64,6.64,0,0,0,1.55-1.9h1.12Z"/><path class="cls-3" d="M508.11,424a17.57,17.57,0,0,1-2.44-4.24,13.38,13.38,0,0,1-.25-9.44,18.62,18.62,0,0,1,2.69-4.87h1.24a31.39,31.39,0,0,0-1.54,2.87,14.64,14.64,0,0,0-.93,2.78,15.92,15.92,0,0,0-.42,3.63,17.43,17.43,0,0,0,2.89,9.27Z"/><path class="cls-3" d="M517.43,419.8h-1.74V408.73a8.61,8.61,0,0,1-1.64,1.2,11.73,11.73,0,0,1-1.83.9v-1.68a10.68,10.68,0,0,0,2.55-1.66,6.76,6.76,0,0,0,1.54-1.9h1.12Z"/><path class="cls-3" d="M521.88,416.1l1.83-.16a3.28,3.28,0,0,0,.94,2,2.57,2.57,0,0,0,1.78.67,2.77,2.77,0,0,0,2.12-.95,3.57,3.57,0,0,0,.87-2.51,3.27,3.27,0,0,0-.83-2.35,2.93,2.93,0,0,0-2.19-.85,3,3,0,0,0-1.52.38,2.89,2.89,0,0,0-1.06,1l-1.63-.22,1.37-7.27h7v1.66H525l-.76,3.81a4.62,4.62,0,0,1,2.67-.89A4.25,4.25,0,0,1,530,411.7a4.51,4.51,0,0,1,1.28,3.31,5.2,5.2,0,0,1-1.12,3.32,4.5,4.5,0,0,1-3.72,1.71,4.56,4.56,0,0,1-3.15-1.08A4.2,4.2,0,0,1,521.88,416.1Z"/><path class="cls-3" d="M532.06,420l4.1-14.63h1.39L533.46,420Z"/><path class="cls-3" d="M544.92,419.8h-1.74V408.73a9,9,0,0,1-1.65,1.2,11.73,11.73,0,0,1-1.83.9v-1.68a10.3,10.3,0,0,0,2.55-1.66,6.82,6.82,0,0,0,1.55-1.9h1.12Z"/><path class="cls-3" d="M558.38,409.12l-1.72.13a3.3,3.3,0,0,0-.66-1.48,2.29,2.29,0,0,0-1.74-.75,2.4,2.4,0,0,0-1.46.47,4,4,0,0,0-1.29,1.74,9.22,9.22,0,0,0-.49,3.27,4.1,4.1,0,0,1,1.53-1.41,4.15,4.15,0,0,1,1.91-.47,3.94,3.94,0,0,1,2.95,1.28,4.58,4.58,0,0,1,1.23,3.31,5.44,5.44,0,0,1-.58,2.47,4.17,4.17,0,0,1-1.58,1.76,4.36,4.36,0,0,1-2.28.6,4.48,4.48,0,0,1-3.54-1.59c-.91-1.07-1.37-2.82-1.37-5.27q0-4.1,1.52-6a4.36,4.36,0,0,1,3.56-1.62,4,4,0,0,1,2.74.94A4,4,0,0,1,558.38,409.12Zm-7.09,6.1a4.11,4.11,0,0,0,.38,1.72,2.86,2.86,0,0,0,1.07,1.25,2.68,2.68,0,0,0,1.43.43,2.47,2.47,0,0,0,1.9-.89,3.54,3.54,0,0,0,.79-2.42,3.3,3.3,0,0,0-.78-2.31,2.58,2.58,0,0,0-2-.84,2.69,2.69,0,0,0-2,.84A3,3,0,0,0,551.29,415.22Z"/><path class="cls-3" d="M560.93,410.66l-.48-2.69v-2.32h2V408l-.44,2.69Zm3.2,0-.48-2.69v-2.32h2V408l-.46,2.69Z"/><path class="cls-3" d="M566.36,424h-1.25a17.34,17.34,0,0,0,2.89-9.27,15.67,15.67,0,0,0-.42-3.6,14.36,14.36,0,0,0-.91-2.78,31.17,31.17,0,0,0-1.56-2.9h1.25a18.57,18.57,0,0,1,2.68,4.87,13,13,0,0,1,.75,4.4,13.28,13.28,0,0,1-1,5A17.88,17.88,0,0,1,566.36,424Z"/><line class="cls-10" x1="453.17" y1="426.51" x2="544.76" y2="426.51"/><polygon class="cls-3" points="455.86 430.28 441.16 426.35 455.86 422.41 455.86 430.28"/><polygon class="cls-3" points="542.58 430.28 557.27 426.35 542.58 422.41 542.58 430.28"/><path class="cls-3" d="M289.94,608.06l.19,1.72-11,1.22a9,9,0,0,1,1.37,1.5,12.32,12.32,0,0,1,1.1,1.72l-1.67.19a10.5,10.5,0,0,0-1.93-2.35,6.39,6.39,0,0,0-2.05-1.33l-.13-1.11Z"/><path class="cls-3" d="M285.75,604.23l-.42-1.7a3.89,3.89,0,0,0,2-1.25,2.48,2.48,0,0,0,.45-1.81,2.79,2.79,0,0,0-1.07-2,2.85,2.85,0,0,0-2.18-.61,2.67,2.67,0,0,0-2.43,3.06,4.8,4.8,0,0,0,.32,1.2l-1.53,0a2,2,0,0,0,0-.28,3.58,3.58,0,0,0-.79-1.92,2,2,0,0,0-1.87-.69,2.14,2.14,0,0,0-1.51.82,2.31,2.31,0,0,0-.44,1.73,2.4,2.4,0,0,0,.82,1.61,3.18,3.18,0,0,0,2,.65L279,604.8a4.44,4.44,0,0,1-2.85-1.14,4.16,4.16,0,0,1-1.26-2.69,4.53,4.53,0,0,1,.26-2.17,3.59,3.59,0,0,1,1.18-1.63,3.45,3.45,0,0,1,1.76-.72,3,3,0,0,1,1.71.31,3.28,3.28,0,0,1,1.35,1.32,3.27,3.27,0,0,1,1-2.07,3.67,3.67,0,0,1,2.2-.94,4.16,4.16,0,0,1,3.27,1,4.76,4.76,0,0,1,1.65,3.26,4.42,4.42,0,0,1-.76,3.2A4.36,4.36,0,0,1,285.75,604.23Z"/><path class="cls-3" d="M276.59,594a2.68,2.68,0,1,1-.59-5.32,2.68,2.68,0,0,1,3,2.37,2.68,2.68,0,0,1-2.37,3Zm-.12-1a1.56,1.56,0,0,0,1.1-.61,1.61,1.61,0,0,0-.25-2.28,1.6,1.6,0,0,0-1.2-.35,1.58,1.58,0,0,0-1.1.6,1.56,1.56,0,0,0-.35,1.19,1.58,1.58,0,0,0,.6,1.1A1.6,1.6,0,0,0,276.47,592.93Z"/><path class="cls-3" d="M300.18,259.44l-.24,1.72-11-1.51a8.94,8.94,0,0,1,1,1.79,10.89,10.89,0,0,1,.64,1.94l-1.66-.23a10.41,10.41,0,0,0-1.3-2.75,6.47,6.47,0,0,0-1.66-1.79l.15-1.11Z"/><path class="cls-3" d="M297.06,254.71V253a3.75,3.75,0,0,0,2.25-.72,2.53,2.53,0,0,0,.89-1.65,2.81,2.81,0,0,0-.56-2.16,2.89,2.89,0,0,0-2-1.13,2.64,2.64,0,0,0-2.06.51,2.69,2.69,0,0,0-1.05,1.86,5.31,5.31,0,0,0,0,1.24l-1.49-.4a2.32,2.32,0,0,0,.06-.27,3.61,3.61,0,0,0-.3-2.06,2,2,0,0,0-1.65-1.12,2.11,2.11,0,0,0-1.66.42,2.56,2.56,0,0,0-.44,3.33,3.15,3.15,0,0,0,1.77,1.12l-.54,1.68a4.47,4.47,0,0,1-2.49-1.8,4.22,4.22,0,0,1-.57-2.92,4.66,4.66,0,0,1,.79-2,3.59,3.59,0,0,1,3.42-1.56,3,3,0,0,1,1.59.72,3.4,3.4,0,0,1,1,1.61,3.23,3.23,0,0,1,1.45-1.77,3.68,3.68,0,0,1,2.36-.38,4.18,4.18,0,0,1,2.93,1.77,4.74,4.74,0,0,1,.81,3.56,4.46,4.46,0,0,1-1.52,2.91A4.29,4.29,0,0,1,297.06,254.71Z"/><path class="cls-3" d="M290.68,242.53a2.68,2.68,0,1,1,3-2.29,2.67,2.67,0,0,1-3,2.29Zm.14-1.05a1.58,1.58,0,0,0,1.21-.31,1.56,1.56,0,0,0,.63-1.08,1.58,1.58,0,0,0-.32-1.2,1.56,1.56,0,0,0-1.08-.63,1.63,1.63,0,0,0-1.52,2.59A1.56,1.56,0,0,0,290.82,241.48Z"/><line class="cls-11" x1="499.55" y1="724.62" x2="499.55" y2="29.17"/><g class="cls-4"><path class="cls-9" d="M510.76,724.62v-7.09l-6.47-9.65H507l3.31,5.06q.9,1.42,1.71,2.82c.51-.88,1.14-1.86,1.87-3l3.24-4.93h2.58L513,717.53v7.09Z"/><path class="cls-9" d="M510.76,47.18v-7.1l-6.47-9.65H507l3.31,5.06c.6.95,1.17,1.89,1.71,2.83.51-.89,1.14-1.87,1.87-3l3.24-4.94h2.58L513,40.08v7.1Z"/></g></g><g id="Watermark"><rect class="cls-12" x="438.45" y="624.92" width="123.09" height="46.3"/><rect class="cls-13" x="444.86" y="632.76" width="62.89" height="30.62"/><rect class="cls-13" x="507.75" y="632.76" width="47.39" height="30.62"/><path class="cls-14" d="M466.48,638.86l-2.79,18.92H461l-1.55-11-1.53,11h-2.74l-2.8-18.92h2.51L456.63,653l1.79-14.17h2L462.19,653,464,638.86Z"/><path class="cls-14" d="M467.93,657.78V638.86h2.53v18.92Z"/><path class="cls-14" d="M472.83,638.86h5q2.9,0,2.9,3.24v4.66c0,1.65-.51,2.7-1.51,3.14l1.77,7.88h-2.4l-1.66-7.64h-1.53v7.64h-2.53Zm2.53,9.12H477c.76,0,1.14-.46,1.14-1.37v-4.09c0-.91-.38-1.37-1.14-1.37h-1.66Z"/><path class="cls-14" d="M486.82,641.15v16.63h-2.53V641.15h-2.42v-2.29h7.38v2.29Z"/><path class="cls-14" d="M496.34,657.78v-8.59h-3.11v8.59H490.7V638.86h2.53v8h3.11v-8h2.53v18.92Z"/><path class="cls-14" d="M516.31,638.86h5q2.9,0,2.89,3.24v4.66c0,1.65-.5,2.7-1.5,3.14l1.77,7.88H522l-1.66-7.64h-1.53v7.64h-2.53Zm2.53,9.12h1.66c.76,0,1.13-.46,1.13-1.37v-4.09c0-.91-.37-1.37-1.13-1.37h-1.66Z"/><path class="cls-14" d="M528.67,657.78h-2.53V642.1q0-3.24,3-3.24h1.9q3,0,3,3.24v15.68h-2.53v-6.93h-2.9Zm2.9-9.22v-6.3a1,1,0,0,0-1.11-1.11h-.68a1,1,0,0,0-1.11,1.11v6.3Z"/><path class="cls-14" d="M536.34,657.78V638.86h2.53v18.92Z"/><path class="cls-14" d="M547.24,657.78h-6V638.86h2.53v16.63h3.47Z"/></g></svg>